<?xml version="1.0" encoding="utf-8" standalone="no"?>
<!DOCTYPE svg PUBLIC "-//W3C//DTD SVG 1.1//EN"
  "http://www.w3.org/Graphics/SVG/1.1/DTD/svg11.dtd">
<!-- Created with matplotlib (https://matplotlib.org/) -->
<svg height="73.4945pt" version="1.1" viewBox="0 0 141.066468 73.4945" width="141.066468pt" xmlns="http://www.w3.org/2000/svg" xmlns:xlink="http://www.w3.org/1999/xlink">
 <metadata>
  <rdf:RDF xmlns:cc="http://creativecommons.org/ns#" xmlns:dc="http://purl.org/dc/elements/1.1/" xmlns:rdf="http://www.w3.org/1999/02/22-rdf-syntax-ns#">
   <cc:Work>
    <dc:type rdf:resource="http://purl.org/dc/dcmitype/StillImage"/>
    <dc:date>2020-09-25T15:40:01.126496</dc:date>
    <dc:format>image/svg+xml</dc:format>
    <dc:creator>
     <cc:Agent>
      <dc:title>Matplotlib v3.3.2, https://matplotlib.org/</dc:title>
     </cc:Agent>
    </dc:creator>
   </cc:Work>
  </rdf:RDF>
 </metadata>
 <defs>
  <style type="text/css">*{stroke-linecap:butt;stroke-linejoin:round;}</style>
 </defs>
 <g id="figure_1">
  <g id="patch_1">
   <path d="M 0 73.4945 
L 141.066468 73.4945 
L 141.066468 -0 
L 0 -0 
z
" style="fill:none;"/>
  </g>
  <g id="axes_1">
   <g id="patch_2">
    <path d="M 31.287094 51.552 
L 120.567094 51.552 
L 120.567094 7.2 
L 31.287094 7.2 
z
" style="fill:none;"/>
   </g>
   <g id="patch_3">
    <path clip-path="url(#p2344bc13c4)" d="M 35.345276 29.376 
L 36.675827 29.376 
L 36.675827 40.24799 
L 35.345276 40.24799 
z
" style="fill:#3182bd;stroke:#3182bd;stroke-linejoin:miter;"/>
   </g>
   <g id="patch_4">
    <path clip-path="url(#p2344bc13c4)" d="M 38.006379 29.376 
L 39.33693 29.376 
L 39.33693 12.916603 
L 38.006379 12.916603 
z
" style="fill:#3182bd;stroke:#3182bd;stroke-linejoin:miter;"/>
   </g>
   <g id="patch_5">
    <path clip-path="url(#p2344bc13c4)" d="M 40.667481 29.376 
L 41.998033 29.376 
L 41.998033 13.655406 
L 40.667481 13.655406 
z
" style="fill:#3182bd;stroke:#3182bd;stroke-linejoin:miter;"/>
   </g>
   <g id="patch_6">
    <path clip-path="url(#p2344bc13c4)" d="M 43.328584 29.376 
L 44.659136 29.376 
L 44.659136 40.984051 
L 43.328584 40.984051 
z
" style="fill:#3182bd;stroke:#3182bd;stroke-linejoin:miter;"/>
   </g>
   <g id="patch_7">
    <path clip-path="url(#p2344bc13c4)" d="M 45.989687 29.376 
L 47.320238 29.376 
L 47.320238 35.312887 
L 45.989687 35.312887 
z
" style="fill:#3182bd;stroke:#3182bd;stroke-linejoin:miter;"/>
   </g>
   <g id="patch_8">
    <path clip-path="url(#p2344bc13c4)" d="M 48.65079 29.376 
L 49.981341 29.376 
L 49.981341 34.024704 
L 48.65079 34.024704 
z
" style="fill:#3182bd;stroke:#3182bd;stroke-linejoin:miter;"/>
   </g>
   <g id="patch_9">
    <path clip-path="url(#p2344bc13c4)" d="M 51.311893 29.376 
L 52.642444 29.376 
L 52.642444 29.78456 
L 51.311893 29.78456 
z
" style="fill:#3182bd;stroke:#3182bd;stroke-linejoin:miter;"/>
   </g>
   <g id="patch_10">
    <path clip-path="url(#p2344bc13c4)" d="M 53.972996 29.376 
L 55.303547 29.376 
L 55.303547 31.001458 
L 53.972996 31.001458 
z
" style="fill:#3182bd;stroke:#3182bd;stroke-linejoin:miter;"/>
   </g>
   <g id="patch_11">
    <path clip-path="url(#p2344bc13c4)" d="M 56.634098 29.376 
L 57.96465 29.376 
L 57.96465 29.419606 
L 56.634098 29.419606 
z
" style="fill:#fc8d59;stroke:#fc8d59;stroke-linejoin:miter;"/>
   </g>
   <g id="patch_12">
    <path clip-path="url(#p2344bc13c4)" d="M 59.295201 29.376 
L 60.625753 29.376 
L 60.625753 29.386184 
L 59.295201 29.386184 
z
" style="fill:#fc8d59;stroke:#fc8d59;stroke-linejoin:miter;"/>
   </g>
   <g id="patch_13">
    <path clip-path="url(#p2344bc13c4)" d="M 61.956304 29.376 
L 63.286855 29.376 
L 63.286855 29.279856 
L 61.956304 29.279856 
z
" style="fill:#fc8d59;stroke:#fc8d59;stroke-linejoin:miter;"/>
   </g>
   <g id="patch_14">
    <path clip-path="url(#p2344bc13c4)" d="M 64.617407 29.376 
L 65.947958 29.376 
L 65.947958 29.410999 
L 64.617407 29.410999 
z
" style="fill:#fc8d59;stroke:#fc8d59;stroke-linejoin:miter;"/>
   </g>
   <g id="patch_15">
    <path clip-path="url(#p2344bc13c4)" d="M 67.27851 29.376 
L 68.609061 29.376 
L 68.609061 29.361603 
L 67.27851 29.361603 
z
" style="fill:#fc8d59;stroke:#fc8d59;stroke-linejoin:miter;"/>
   </g>
   <g id="patch_16">
    <path clip-path="url(#p2344bc13c4)" d="M 69.939613 29.376 
L 71.270164 29.376 
L 71.270164 29.36361 
L 69.939613 29.36361 
z
" style="fill:#fc8d59;stroke:#fc8d59;stroke-linejoin:miter;"/>
   </g>
   <g id="patch_17">
    <path clip-path="url(#p2344bc13c4)" d="M 72.600715 29.376 
L 73.931267 29.376 
L 73.931267 29.399801 
L 72.600715 29.399801 
z
" style="fill:#fc8d59;stroke:#fc8d59;stroke-linejoin:miter;"/>
   </g>
   <g id="patch_18">
    <path clip-path="url(#p2344bc13c4)" d="M 75.261818 29.376 
L 76.59237 29.376 
L 76.59237 29.526256 
L 75.261818 29.526256 
z
" style="fill:#fc8d59;stroke:#fc8d59;stroke-linejoin:miter;"/>
   </g>
   <g id="patch_19">
    <path clip-path="url(#p2344bc13c4)" d="M 77.922921 29.376 
L 79.253472 29.376 
L 79.253472 29.591339 
L 77.922921 29.591339 
z
" style="fill:#2ca25f;stroke:#2ca25f;stroke-linejoin:miter;"/>
   </g>
   <g id="patch_20">
    <path clip-path="url(#p2344bc13c4)" d="M 80.584024 29.376 
L 81.914575 29.376 
L 81.914575 29.159822 
L 80.584024 29.159822 
z
" style="fill:#2ca25f;stroke:#2ca25f;stroke-linejoin:miter;"/>
   </g>
   <g id="patch_21">
    <path clip-path="url(#p2344bc13c4)" d="M 83.245127 29.376 
L 84.575678 29.376 
L 84.575678 29.40078 
L 83.245127 29.40078 
z
" style="fill:#2ca25f;stroke:#2ca25f;stroke-linejoin:miter;"/>
   </g>
   <g id="patch_22">
    <path clip-path="url(#p2344bc13c4)" d="M 85.90623 29.376 
L 87.236781 29.376 
L 87.236781 29.409566 
L 85.90623 29.409566 
z
" style="fill:#2ca25f;stroke:#2ca25f;stroke-linejoin:miter;"/>
   </g>
   <g id="patch_23">
    <path clip-path="url(#p2344bc13c4)" d="M 88.567332 29.376 
L 89.897884 29.376 
L 89.897884 29.408105 
L 88.567332 29.408105 
z
" style="fill:#2ca25f;stroke:#2ca25f;stroke-linejoin:miter;"/>
   </g>
   <g id="patch_24">
    <path clip-path="url(#p2344bc13c4)" d="M 91.228435 29.376 
L 92.558987 29.376 
L 92.558987 29.499307 
L 91.228435 29.499307 
z
" style="fill:#2ca25f;stroke:#2ca25f;stroke-linejoin:miter;"/>
   </g>
   <g id="patch_25">
    <path clip-path="url(#p2344bc13c4)" d="M 93.889538 29.376 
L 95.220089 29.376 
L 95.220089 29.482759 
L 93.889538 29.482759 
z
" style="fill:#2ca25f;stroke:#2ca25f;stroke-linejoin:miter;"/>
   </g>
   <g id="patch_26">
    <path clip-path="url(#p2344bc13c4)" d="M 96.550641 29.376 
L 97.881192 29.376 
L 97.881192 29.328689 
L 96.550641 29.328689 
z
" style="fill:#2ca25f;stroke:#2ca25f;stroke-linejoin:miter;"/>
   </g>
   <g id="patch_27">
    <path clip-path="url(#p2344bc13c4)" d="M 99.211744 29.376 
L 100.542295 29.376 
L 100.542295 28.961783 
L 99.211744 28.961783 
z
" style="stroke:#000000;stroke-linejoin:miter;"/>
   </g>
   <g id="patch_28">
    <path clip-path="url(#p2344bc13c4)" d="M 101.872846 29.376 
L 103.203398 29.376 
L 103.203398 29.292953 
L 101.872846 29.292953 
z
" style="stroke:#000000;stroke-linejoin:miter;"/>
   </g>
   <g id="patch_29">
    <path clip-path="url(#p2344bc13c4)" d="M 104.533949 29.376 
L 105.864501 29.376 
L 105.864501 29.533231 
L 104.533949 29.533231 
z
" style="stroke:#000000;stroke-linejoin:miter;"/>
   </g>
   <g id="patch_30">
    <path clip-path="url(#p2344bc13c4)" d="M 107.195052 29.376 
L 108.525604 29.376 
L 108.525604 29.43249 
L 107.195052 29.43249 
z
" style="stroke:#000000;stroke-linejoin:miter;"/>
   </g>
   <g id="patch_31">
    <path clip-path="url(#p2344bc13c4)" d="M 109.856155 29.376 
L 111.186706 29.376 
L 111.186706 27.717115 
L 109.856155 27.717115 
z
" style="stroke:#000000;stroke-linejoin:miter;"/>
   </g>
   <g id="patch_32">
    <path clip-path="url(#p2344bc13c4)" d="M 112.517258 29.376 
L 113.847809 29.376 
L 113.847809 29.358151 
L 112.517258 29.358151 
z
" style="stroke:#000000;stroke-linejoin:miter;"/>
   </g>
   <g id="patch_33">
    <path clip-path="url(#p2344bc13c4)" d="M 115.178361 29.376 
L 116.508912 29.376 
L 116.508912 29.172501 
L 115.178361 29.172501 
z
" style="stroke:#000000;stroke-linejoin:miter;"/>
   </g>
   <g id="matplotlib.axis_1">
    <g id="xtick_1">
     <g id="line2d_1">
      <defs>
       <path d="M 0 0 
L 0 3.5 
" id="meaaae5465f" style="stroke:#000000;stroke-width:1.5;"/>
      </defs>
      <g>
       <use style="stroke:#000000;stroke-width:1.5;" x="34.68" xlink:href="#meaaae5465f" y="51.552"/>
      </g>
     </g>
     <g id="text_1">
      <!-- $\;\;\;\;\;\;\;\;\;\;\;\;\;\;\mathdefault{AB/PD}$ -->
      <g transform="translate(7.2 64.63075)">
       <text>
        <tspan style="font-family:DejaVu Sans;font-size:8px;font-style:book;font-weight:book;" x="30.306232 35.778888 41.26717 43.962482 48.786701" y="-0.171875">AB/PD</tspan>
       </text>
      </g>
     </g>
    </g>
    <g id="xtick_2">
     <g id="line2d_2">
      <g>
       <use style="stroke:#000000;stroke-width:1.5;" x="55.968823" xlink:href="#meaaae5465f" y="51.552"/>
      </g>
     </g>
     <g id="text_2">
      <!-- $\;\;\;\;\;\;\;\;\;\;\;\;\;\;\;\mathdefault{LP}$ -->
      <g transform="translate(35.088823 64.63075)">
       <text>
        <tspan style="font-family:DejaVu Sans;font-size:8px;font-style:book;font-weight:book;" x="32.470963 36.927994" y="-0.171875">LP</tspan>
       </text>
      </g>
     </g>
    </g>
    <g id="xtick_3">
     <g id="line2d_3">
      <g>
       <use style="stroke:#000000;stroke-width:1.5;" x="77.257645" xlink:href="#meaaae5465f" y="51.552"/>
      </g>
     </g>
     <g id="text_3">
      <!-- $\;\;\;\;\;\;\;\;\;\;\;\;\;\mathdefault{PY}$ -->
      <g transform="translate(58.297645 64.63075)">
       <text>
        <tspan style="font-family:DejaVu Sans;font-size:8px;font-style:book;font-weight:book;" x="28.141501 32.96572" y="-0.171875">PY</tspan>
       </text>
      </g>
     </g>
    </g>
    <g id="xtick_4">
     <g id="line2d_4">
      <g>
       <use style="stroke:#000000;stroke-width:1.5;" x="98.546468" xlink:href="#meaaae5465f" y="51.552"/>
      </g>
     </g>
     <g id="text_4">
      <!-- $\;\;\;\;\;\;\;\;\;\;\;\;\;\;\;\mathdefault{Synapses}$ -->
      <g transform="translate(63.226468 64.6145)">
       <text>
        <tspan style="font-family:DejaVu Sans;font-size:8px;font-style:book;font-weight:book;" x="32.470963 37.549088 42.283463 47.353775 52.256119 57.334244 61.502213 66.424088" y="-0.0625">Synapses</tspan>
       </text>
      </g>
     </g>
    </g>
    <g id="xtick_5">
     <g id="line2d_5">
      <g>
       <use style="stroke:#000000;stroke-width:1.5;" x="117.174188" xlink:href="#meaaae5465f" y="51.552"/>
      </g>
     </g>
    </g>
   </g>
   <g id="matplotlib.axis_2">
    <g id="ytick_1">
     <g id="line2d_6">
      <defs>
       <path d="M 0 0 
L -3.5 0 
" id="mc4c5f5ccc7" style="stroke:#000000;stroke-width:1.5;"/>
      </defs>
      <g>
       <use style="stroke:#000000;stroke-width:1.5;" x="31.287094" xlink:href="#mc4c5f5ccc7" y="44.16"/>
      </g>
     </g>
     <g id="text_5">
      <text style="font-family:DejaVu Sans;font-size:8px;font-stretch:normal;font-style:normal;font-weight:normal;text-anchor:end;" transform="rotate(-0, 24.287094, 47.199375)" x="24.287094" y="47.199375">−1</text>
     </g>
    </g>
    <g id="ytick_2">
     <g id="line2d_7">
      <g>
       <use style="stroke:#000000;stroke-width:1.5;" x="31.287094" xlink:href="#mc4c5f5ccc7" y="29.376"/>
      </g>
     </g>
     <g id="text_6">
      <text style="font-family:DejaVu Sans;font-size:8px;font-stretch:normal;font-style:normal;font-weight:normal;text-anchor:end;" transform="rotate(-0, 24.287094, 32.415375)" x="24.287094" y="32.415375">0</text>
     </g>
    </g>
    <g id="ytick_3">
     <g id="line2d_8">
      <g>
       <use style="stroke:#000000;stroke-width:1.5;" x="31.287094" xlink:href="#mc4c5f5ccc7" y="14.592"/>
      </g>
     </g>
     <g id="text_7">
      <text style="font-family:DejaVu Sans;font-size:8px;font-stretch:normal;font-style:normal;font-weight:normal;text-anchor:end;" transform="rotate(-0, 24.287094, 17.631375)" x="24.287094" y="17.631375">1</text>
     </g>
    </g>
   </g>
   <g id="patch_34">
    <path d="M 31.287094 51.552 
L 31.287094 7.2 
" style="fill:none;stroke:#000000;stroke-linecap:square;stroke-linejoin:miter;stroke-width:1.5;"/>
   </g>
   <g id="patch_35">
    <path d="M 31.287094 51.552 
L 120.567094 51.552 
" style="fill:none;stroke:#000000;stroke-linecap:square;stroke-linejoin:miter;stroke-width:1.5;"/>
   </g>
  </g>
 </g>
 <defs>
  <clipPath id="p2344bc13c4">
   <rect height="44.352" width="89.28" x="31.287094" y="7.2"/>
  </clipPath>
 </defs>
</svg>
