<?xml version="1.0" encoding="utf-8" standalone="no"?>
<!DOCTYPE svg PUBLIC "-//W3C//DTD SVG 1.1//EN"
  "http://www.w3.org/Graphics/SVG/1.1/DTD/svg11.dtd">
<!-- Created with matplotlib (https://matplotlib.org/) -->
<svg height="96.325pt" version="1.1" viewBox="0 0 150.46625 96.325" width="150.46625pt" xmlns="http://www.w3.org/2000/svg" xmlns:xlink="http://www.w3.org/1999/xlink">
 <metadata>
  <rdf:RDF xmlns:cc="http://creativecommons.org/ns#" xmlns:dc="http://purl.org/dc/elements/1.1/" xmlns:rdf="http://www.w3.org/1999/02/22-rdf-syntax-ns#">
   <cc:Work>
    <dc:type rdf:resource="http://purl.org/dc/dcmitype/StillImage"/>
    <dc:date>2020-10-26T12:12:22.721935</dc:date>
    <dc:format>image/svg+xml</dc:format>
    <dc:creator>
     <cc:Agent>
      <dc:title>Matplotlib v3.3.2, https://matplotlib.org/</dc:title>
     </cc:Agent>
    </dc:creator>
   </cc:Work>
  </rdf:RDF>
 </metadata>
 <defs>
  <style type="text/css">*{stroke-linecap:butt;stroke-linejoin:round;}</style>
 </defs>
 <g id="figure_1">
  <g id="patch_1">
   <path d="M 0 96.325 
L 150.46625 96.325 
L 150.46625 0 
L 0 0 
z
" style="fill:none;"/>
  </g>
  <g id="axes_1">
   <g id="patch_2">
    <path d="M 42.82625 62.64 
L 143.26625 62.64 
L 143.26625 7.2 
L 42.82625 7.2 
z
" style="fill:none;"/>
   </g>
   <g id="patch_3">
    <path clip-path="url(#p31835beb52)" d="M 47.391705 13.401192 
L 48.888575 13.401192 
L 48.888575 9.72 
L 47.391705 9.72 
z
"/>
   </g>
   <g id="patch_4">
    <path clip-path="url(#p31835beb52)" d="M 50.385445 13.401192 
L 51.882316 13.401192 
L 51.882316 23.121896 
L 50.385445 23.121896 
z
"/>
   </g>
   <g id="patch_5">
    <path clip-path="url(#p31835beb52)" d="M 53.379186 13.401192 
L 54.876056 13.401192 
L 54.876056 26.880066 
L 53.379186 26.880066 
z
"/>
   </g>
   <g id="patch_6">
    <path clip-path="url(#p31835beb52)" d="M 56.372927 13.401192 
L 57.869797 13.401192 
L 57.869797 34.586751 
L 56.372927 34.586751 
z
"/>
   </g>
   <g id="patch_7">
    <path clip-path="url(#p31835beb52)" d="M 59.366667 13.401192 
L 60.863538 13.401192 
L 60.863538 38.547164 
L 59.366667 38.547164 
z
"/>
   </g>
   <g id="patch_8">
    <path clip-path="url(#p31835beb52)" d="M 62.360408 13.401192 
L 63.857278 13.401192 
L 63.857278 40.299857 
L 62.360408 40.299857 
z
"/>
   </g>
   <g id="patch_9">
    <path clip-path="url(#p31835beb52)" d="M 65.354149 13.401192 
L 66.851019 13.401192 
L 66.851019 44.883784 
L 65.354149 44.883784 
z
"/>
   </g>
   <g id="patch_10">
    <path clip-path="url(#p31835beb52)" d="M 68.347889 13.401192 
L 69.84476 13.401192 
L 69.84476 49.475889 
L 68.347889 49.475889 
z
"/>
   </g>
   <g id="patch_11">
    <path clip-path="url(#p31835beb52)" d="M 71.34163 13.401192 
L 72.8385 13.401192 
L 72.8385 50.232496 
L 71.34163 50.232496 
z
"/>
   </g>
   <g id="patch_12">
    <path clip-path="url(#p31835beb52)" d="M 74.335371 13.401192 
L 75.832241 13.401192 
L 75.832241 51.127716 
L 74.335371 51.127716 
z
"/>
   </g>
   <g id="patch_13">
    <path clip-path="url(#p31835beb52)" d="M 77.329111 13.401192 
L 78.825982 13.401192 
L 78.825982 51.915396 
L 77.329111 51.915396 
z
"/>
   </g>
   <g id="patch_14">
    <path clip-path="url(#p31835beb52)" d="M 80.322852 13.401192 
L 81.819722 13.401192 
L 81.819722 52.325389 
L 80.322852 52.325389 
z
"/>
   </g>
   <g id="patch_15">
    <path clip-path="url(#p31835beb52)" d="M 83.316593 13.401192 
L 84.813463 13.401192 
L 84.813463 53.296466 
L 83.316593 53.296466 
z
"/>
   </g>
   <g id="patch_16">
    <path clip-path="url(#p31835beb52)" d="M 86.310333 13.401192 
L 87.807204 13.401192 
L 87.807204 53.866181 
L 86.310333 53.866181 
z
"/>
   </g>
   <g id="patch_17">
    <path clip-path="url(#p31835beb52)" d="M 89.304074 13.401192 
L 90.800944 13.401192 
L 90.800944 54.261763 
L 89.304074 54.261763 
z
"/>
   </g>
   <g id="patch_18">
    <path clip-path="url(#p31835beb52)" d="M 92.297815 13.401192 
L 93.794685 13.401192 
L 93.794685 54.744583 
L 92.297815 54.744583 
z
"/>
   </g>
   <g id="patch_19">
    <path clip-path="url(#p31835beb52)" d="M 95.291556 13.401192 
L 96.788426 13.401192 
L 96.788426 54.812706 
L 95.291556 54.812706 
z
"/>
   </g>
   <g id="patch_20">
    <path clip-path="url(#p31835beb52)" d="M 98.285296 13.401192 
L 99.782167 13.401192 
L 99.782167 55.516217 
L 98.285296 55.516217 
z
"/>
   </g>
   <g id="patch_21">
    <path clip-path="url(#p31835beb52)" d="M 101.279037 13.401192 
L 102.775907 13.401192 
L 102.775907 55.791554 
L 101.279037 55.791554 
z
"/>
   </g>
   <g id="patch_22">
    <path clip-path="url(#p31835beb52)" d="M 104.272778 13.401192 
L 105.769648 13.401192 
L 105.769648 56.001023 
L 104.272778 56.001023 
z
"/>
   </g>
   <g id="patch_23">
    <path clip-path="url(#p31835beb52)" d="M 107.266518 13.401192 
L 108.763389 13.401192 
L 108.763389 56.920371 
L 107.266518 56.920371 
z
"/>
   </g>
   <g id="patch_24">
    <path clip-path="url(#p31835beb52)" d="M 110.260259 13.401192 
L 111.757129 13.401192 
L 111.757129 57.206376 
L 110.260259 57.206376 
z
"/>
   </g>
   <g id="patch_25">
    <path clip-path="url(#p31835beb52)" d="M 113.254 13.401192 
L 114.75087 13.401192 
L 114.75087 57.567532 
L 113.254 57.567532 
z
"/>
   </g>
   <g id="patch_26">
    <path clip-path="url(#p31835beb52)" d="M 116.24774 13.401192 
L 117.744611 13.401192 
L 117.744611 58.063478 
L 116.24774 58.063478 
z
"/>
   </g>
   <g id="patch_27">
    <path clip-path="url(#p31835beb52)" d="M 119.241481 13.401192 
L 120.738351 13.401192 
L 120.738351 58.174126 
L 119.241481 58.174126 
z
"/>
   </g>
   <g id="patch_28">
    <path clip-path="url(#p31835beb52)" d="M 122.235222 13.401192 
L 123.732092 13.401192 
L 123.732092 58.597754 
L 122.235222 58.597754 
z
"/>
   </g>
   <g id="patch_29">
    <path clip-path="url(#p31835beb52)" d="M 125.228962 13.401192 
L 126.725833 13.401192 
L 126.725833 58.769849 
L 125.228962 58.769849 
z
"/>
   </g>
   <g id="patch_30">
    <path clip-path="url(#p31835beb52)" d="M 128.222703 13.401192 
L 129.719573 13.401192 
L 129.719573 59.07356 
L 128.222703 59.07356 
z
"/>
   </g>
   <g id="patch_31">
    <path clip-path="url(#p31835beb52)" d="M 131.216444 13.401192 
L 132.713314 13.401192 
L 132.713314 59.415149 
L 131.216444 59.415149 
z
"/>
   </g>
   <g id="patch_32">
    <path clip-path="url(#p31835beb52)" d="M 134.210184 13.401192 
L 135.707055 13.401192 
L 135.707055 59.731626 
L 134.210184 59.731626 
z
"/>
   </g>
   <g id="patch_33">
    <path clip-path="url(#p31835beb52)" d="M 137.203925 13.401192 
L 138.700795 13.401192 
L 138.700795 60.12 
L 137.203925 60.12 
z
"/>
   </g>
   <g id="matplotlib.axis_1">
    <g id="xtick_1">
     <g id="line2d_1">
      <defs>
       <path d="M 0 0 
L 0 3.5 
" id="me567207e1d" style="stroke:#000000;stroke-width:1.5;"/>
      </defs>
      <g>
       <use style="stroke:#000000;stroke-width:1.5;" x="48.14014" xlink:href="#me567207e1d" y="62.64"/>
      </g>
     </g>
     <g id="text_1">
      <text style="font-family:DejaVu Sans;font-size:8px;font-stretch:normal;font-style:normal;font-weight:normal;text-anchor:middle;" transform="rotate(-0, 48.14014, 75.71875)" x="48.14014" y="75.71875">0</text>
     </g>
    </g>
    <g id="xtick_2">
     <g id="line2d_2">
      <g>
       <use style="stroke:#000000;stroke-width:1.5;" x="78.077547" xlink:href="#me567207e1d" y="62.64"/>
      </g>
     </g>
     <g id="text_2">
      <text style="font-family:DejaVu Sans;font-size:8px;font-stretch:normal;font-style:normal;font-weight:normal;text-anchor:middle;" transform="rotate(-0, 78.077547, 75.71875)" x="78.077547" y="75.71875">10</text>
     </g>
    </g>
    <g id="xtick_3">
     <g id="line2d_3">
      <g>
       <use style="stroke:#000000;stroke-width:1.5;" x="108.014953" xlink:href="#me567207e1d" y="62.64"/>
      </g>
     </g>
     <g id="text_3">
      <text style="font-family:DejaVu Sans;font-size:8px;font-stretch:normal;font-style:normal;font-weight:normal;text-anchor:middle;" transform="rotate(-0, 108.014953, 75.71875)" x="108.014953" y="75.71875">20</text>
     </g>
    </g>
    <g id="xtick_4">
     <g id="line2d_4">
      <g>
       <use style="stroke:#000000;stroke-width:1.5;" x="137.95236" xlink:href="#me567207e1d" y="62.64"/>
      </g>
     </g>
     <g id="text_4">
      <text style="font-family:DejaVu Sans;font-size:8px;font-stretch:normal;font-style:normal;font-weight:normal;text-anchor:middle;" transform="rotate(-0, 137.95236, 75.71875)" x="137.95236" y="75.71875">30</text>
     </g>
    </g>
    <g id="text_5">
     <text style="font-family:DejaVu Sans;font-size:8px;font-stretch:normal;font-style:normal;font-weight:normal;text-anchor:middle;" transform="rotate(-0, 93.04625, 87.46125)" x="93.04625" y="87.46125">Dimension</text>
    </g>
   </g>
   <g id="matplotlib.axis_2">
    <g id="ytick_1">
     <g id="line2d_5">
      <defs>
       <path d="M 0 0 
L -3.5 0 
" id="m1938335bc3" style="stroke:#000000;stroke-width:1.5;"/>
      </defs>
      <g>
       <use style="stroke:#000000;stroke-width:1.5;" x="42.82625" xlink:href="#m1938335bc3" y="61.849284"/>
      </g>
     </g>
     <g id="text_6">
      <text style="font-family:DejaVu Sans;font-size:8px;font-stretch:normal;font-style:normal;font-weight:normal;text-anchor:end;" transform="rotate(-0, 35.82625, 64.888659)" x="35.82625" y="64.888659">−10</text>
     </g>
    </g>
    <g id="ytick_2">
     <g id="line2d_6">
      <g>
       <use style="stroke:#000000;stroke-width:1.5;" x="42.82625" xlink:href="#m1938335bc3" y="37.625238"/>
      </g>
     </g>
     <g id="text_7">
      <text style="font-family:DejaVu Sans;font-size:8px;font-stretch:normal;font-style:normal;font-weight:normal;text-anchor:end;" transform="rotate(-0, 35.82625, 40.664613)" x="35.82625" y="40.664613">−5</text>
     </g>
    </g>
    <g id="ytick_3">
     <g id="line2d_7">
      <g>
       <use style="stroke:#000000;stroke-width:1.5;" x="42.82625" xlink:href="#m1938335bc3" y="13.401192"/>
      </g>
     </g>
     <g id="text_8">
      <text style="font-family:DejaVu Sans;font-size:8px;font-stretch:normal;font-style:normal;font-weight:normal;text-anchor:end;" transform="rotate(-0, 35.82625, 16.440567)" x="35.82625" y="16.440567">0</text>
     </g>
    </g>
    <g id="text_9">
     <text style="font-family:DejaVu Sans;font-size:8px;font-stretch:normal;font-style:normal;font-weight:normal;text-anchor:middle;" transform="rotate(-90, 13.27875, 34.92)" x="13.27875" y="34.92">log(E.-value)</text>
    </g>
   </g>
   <g id="patch_34">
    <path d="M 42.82625 62.64 
L 42.82625 7.2 
" style="fill:none;stroke:#000000;stroke-linecap:square;stroke-linejoin:miter;stroke-width:1.5;"/>
   </g>
   <g id="patch_35">
    <path d="M 42.82625 62.64 
L 143.26625 62.64 
" style="fill:none;stroke:#000000;stroke-linecap:square;stroke-linejoin:miter;stroke-width:1.5;"/>
   </g>
  </g>
 </g>
 <defs>
  <clipPath id="p31835beb52">
   <rect height="55.44" width="100.44" x="42.82625" y="7.2"/>
  </clipPath>
 </defs>
</svg>
