<?xml version="1.0" encoding="utf-8" standalone="no"?>
<!DOCTYPE svg PUBLIC "-//W3C//DTD SVG 1.1//EN"
  "http://www.w3.org/Graphics/SVG/1.1/DTD/svg11.dtd">
<!-- Created with matplotlib (https://matplotlib.org/) -->
<svg height="85.5715pt" version="1.1" viewBox="0 0 133.72625 85.5715" width="133.72625pt" xmlns="http://www.w3.org/2000/svg" xmlns:xlink="http://www.w3.org/1999/xlink">
 <metadata>
  <rdf:RDF xmlns:cc="http://creativecommons.org/ns#" xmlns:dc="http://purl.org/dc/elements/1.1/" xmlns:rdf="http://www.w3.org/1999/02/22-rdf-syntax-ns#">
   <cc:Work>
    <dc:type rdf:resource="http://purl.org/dc/dcmitype/StillImage"/>
    <dc:date>2020-09-28T14:17:38.170266</dc:date>
    <dc:format>image/svg+xml</dc:format>
    <dc:creator>
     <cc:Agent>
      <dc:title>Matplotlib v3.3.2, https://matplotlib.org/</dc:title>
     </cc:Agent>
    </dc:creator>
   </cc:Work>
  </rdf:RDF>
 </metadata>
 <defs>
  <style type="text/css">*{stroke-linecap:butt;stroke-linejoin:round;}</style>
 </defs>
 <g id="figure_1">
  <g id="patch_1">
   <path d="M -0 85.5715 
L 133.72625 85.5715 
L 133.72625 0 
L -0 0 
z
" style="fill:none;"/>
  </g>
  <g id="axes_1">
   <g id="patch_2">
    <path d="M 42.82625 51.8865 
L 126.52625 51.8865 
L 126.52625 13.0785 
L 42.82625 13.0785 
z
" style="fill:none;"/>
   </g>
   <g id="patch_3">
    <path clip-path="url(#p7e6dfca236)" d="M 46.630795 17.419334 
L 47.878187 17.419334 
L 47.878187 14.8425 
L 46.630795 14.8425 
z
" style="fill:#045a8d;"/>
   </g>
   <g id="patch_4">
    <path clip-path="url(#p7e6dfca236)" d="M 49.125579 17.419334 
L 50.372971 17.419334 
L 50.372971 24.223827 
L 49.125579 24.223827 
z
" style="fill:#045a8d;"/>
   </g>
   <g id="patch_5">
    <path clip-path="url(#p7e6dfca236)" d="M 51.620363 17.419334 
L 52.867755 17.419334 
L 52.867755 26.854546 
L 51.620363 26.854546 
z
" style="fill:#045a8d;"/>
   </g>
   <g id="patch_6">
    <path clip-path="url(#p7e6dfca236)" d="M 54.115147 17.419334 
L 55.362539 17.419334 
L 55.362539 32.249226 
L 54.115147 32.249226 
z
" style="fill:#045a8d;"/>
   </g>
   <g id="patch_7">
    <path clip-path="url(#p7e6dfca236)" d="M 56.609931 17.419334 
L 57.857323 17.419334 
L 57.857323 35.021515 
L 56.609931 35.021515 
z
" style="fill:#045a8d;"/>
   </g>
   <g id="patch_8">
    <path clip-path="url(#p7e6dfca236)" d="M 59.104715 17.419334 
L 60.352107 17.419334 
L 60.352107 36.2484 
L 59.104715 36.2484 
z
" style="fill:#045a8d;"/>
   </g>
   <g id="patch_9">
    <path clip-path="url(#p7e6dfca236)" d="M 61.599499 17.419334 
L 62.846891 17.419334 
L 62.846891 39.457149 
L 61.599499 39.457149 
z
" style="fill:#045a8d;"/>
   </g>
   <g id="patch_10">
    <path clip-path="url(#p7e6dfca236)" d="M 64.094283 17.419334 
L 65.341675 17.419334 
L 65.341675 42.671623 
L 64.094283 42.671623 
z
" style="fill:#045a8d;"/>
   </g>
   <g id="patch_11">
    <path clip-path="url(#p7e6dfca236)" d="M 66.589067 17.419334 
L 67.836459 17.419334 
L 67.836459 43.201247 
L 66.589067 43.201247 
z
" style="fill:#045a8d;"/>
   </g>
   <g id="patch_12">
    <path clip-path="url(#p7e6dfca236)" d="M 69.083851 17.419334 
L 70.331243 17.419334 
L 70.331243 43.827901 
L 69.083851 43.827901 
z
" style="fill:#045a8d;"/>
   </g>
   <g id="patch_13">
    <path clip-path="url(#p7e6dfca236)" d="M 71.578635 17.419334 
L 72.826026 17.419334 
L 72.826026 44.379277 
L 71.578635 44.379277 
z
" style="fill:#045a8d;"/>
   </g>
   <g id="patch_14">
    <path clip-path="url(#p7e6dfca236)" d="M 74.073418 17.419334 
L 75.32081 17.419334 
L 75.32081 44.666273 
L 74.073418 44.666273 
z
" style="fill:#045a8d;"/>
   </g>
   <g id="patch_15">
    <path clip-path="url(#p7e6dfca236)" d="M 76.568202 17.419334 
L 77.815594 17.419334 
L 77.815594 45.346027 
L 76.568202 45.346027 
z
" style="fill:#045a8d;"/>
   </g>
   <g id="patch_16">
    <path clip-path="url(#p7e6dfca236)" d="M 79.062986 17.419334 
L 80.310378 17.419334 
L 80.310378 45.744827 
L 79.062986 45.744827 
z
" style="fill:#045a8d;"/>
   </g>
   <g id="patch_17">
    <path clip-path="url(#p7e6dfca236)" d="M 81.55777 17.419334 
L 82.805162 17.419334 
L 82.805162 46.021734 
L 81.55777 46.021734 
z
" style="fill:#045a8d;"/>
   </g>
   <g id="patch_18">
    <path clip-path="url(#p7e6dfca236)" d="M 84.052554 17.419334 
L 85.299946 17.419334 
L 85.299946 46.359708 
L 84.052554 46.359708 
z
" style="fill:#045a8d;"/>
   </g>
   <g id="patch_19">
    <path clip-path="url(#p7e6dfca236)" d="M 86.547338 17.419334 
L 87.79473 17.419334 
L 87.79473 46.407394 
L 86.547338 46.407394 
z
" style="fill:#045a8d;"/>
   </g>
   <g id="patch_20">
    <path clip-path="url(#p7e6dfca236)" d="M 89.042122 17.419334 
L 90.289514 17.419334 
L 90.289514 46.899852 
L 89.042122 46.899852 
z
" style="fill:#045a8d;"/>
   </g>
   <g id="patch_21">
    <path clip-path="url(#p7e6dfca236)" d="M 91.536906 17.419334 
L 92.784298 17.419334 
L 92.784298 47.092588 
L 91.536906 47.092588 
z
" style="fill:#045a8d;"/>
   </g>
   <g id="patch_22">
    <path clip-path="url(#p7e6dfca236)" d="M 94.03169 17.419334 
L 95.279082 17.419334 
L 95.279082 47.239216 
L 94.03169 47.239216 
z
" style="fill:#045a8d;"/>
   </g>
   <g id="patch_23">
    <path clip-path="url(#p7e6dfca236)" d="M 96.526474 17.419334 
L 97.773865 17.419334 
L 97.773865 47.882759 
L 96.526474 47.882759 
z
" style="fill:#045a8d;"/>
   </g>
   <g id="patch_24">
    <path clip-path="url(#p7e6dfca236)" d="M 99.021257 17.419334 
L 100.268649 17.419334 
L 100.268649 48.082963 
L 99.021257 48.082963 
z
" style="fill:#045a8d;"/>
   </g>
   <g id="patch_25">
    <path clip-path="url(#p7e6dfca236)" d="M 101.516041 17.419334 
L 102.763433 17.419334 
L 102.763433 48.335772 
L 101.516041 48.335772 
z
" style="fill:#045a8d;"/>
   </g>
   <g id="patch_26">
    <path clip-path="url(#p7e6dfca236)" d="M 104.010825 17.419334 
L 105.258217 17.419334 
L 105.258217 48.682935 
L 104.010825 48.682935 
z
" style="fill:#045a8d;"/>
   </g>
   <g id="patch_27">
    <path clip-path="url(#p7e6dfca236)" d="M 106.505609 17.419334 
L 107.753001 17.419334 
L 107.753001 48.760389 
L 106.505609 48.760389 
z
" style="fill:#045a8d;"/>
   </g>
   <g id="patch_28">
    <path clip-path="url(#p7e6dfca236)" d="M 109.000393 17.419334 
L 110.247785 17.419334 
L 110.247785 49.056928 
L 109.000393 49.056928 
z
" style="fill:#045a8d;"/>
   </g>
   <g id="patch_29">
    <path clip-path="url(#p7e6dfca236)" d="M 111.495177 17.419334 
L 112.742569 17.419334 
L 112.742569 49.177395 
L 111.495177 49.177395 
z
" style="fill:#045a8d;"/>
   </g>
   <g id="patch_30">
    <path clip-path="url(#p7e6dfca236)" d="M 113.989961 17.419334 
L 115.237353 17.419334 
L 115.237353 49.389992 
L 113.989961 49.389992 
z
" style="fill:#045a8d;"/>
   </g>
   <g id="patch_31">
    <path clip-path="url(#p7e6dfca236)" d="M 116.484745 17.419334 
L 117.732137 17.419334 
L 117.732137 49.629104 
L 116.484745 49.629104 
z
" style="fill:#045a8d;"/>
   </g>
   <g id="patch_32">
    <path clip-path="url(#p7e6dfca236)" d="M 118.979529 17.419334 
L 120.226921 17.419334 
L 120.226921 49.850638 
L 118.979529 49.850638 
z
" style="fill:#045a8d;"/>
   </g>
   <g id="patch_33">
    <path clip-path="url(#p7e6dfca236)" d="M 121.474313 17.419334 
L 122.721705 17.419334 
L 122.721705 50.1225 
L 121.474313 50.1225 
z
" style="fill:#045a8d;"/>
   </g>
   <g id="matplotlib.axis_1">
    <g id="xtick_1">
     <g id="line2d_1">
      <defs>
       <path d="M 0 0 
L 0 3.5 
" id="m207b0e0830" style="stroke:#000000;stroke-width:1.5;"/>
      </defs>
      <g>
       <use style="stroke:#000000;stroke-width:1.5;" x="47.254491" xlink:href="#m207b0e0830" y="51.8865"/>
      </g>
     </g>
     <g id="text_1">
      <text style="font-family:DejaVu Sans;font-size:8px;font-stretch:normal;font-style:normal;font-weight:normal;text-anchor:middle;" transform="rotate(-0, 47.254491, 64.96525)" x="47.254491" y="64.96525">0</text>
     </g>
    </g>
    <g id="xtick_2">
     <g id="line2d_2">
      <g>
       <use style="stroke:#000000;stroke-width:1.5;" x="97.15017" xlink:href="#m207b0e0830" y="51.8865"/>
      </g>
     </g>
     <g id="text_2">
      <text style="font-family:DejaVu Sans;font-size:8px;font-stretch:normal;font-style:normal;font-weight:normal;text-anchor:middle;" transform="rotate(-0, 97.15017, 64.96525)" x="97.15017" y="64.96525">20</text>
     </g>
    </g>
    <g id="text_3">
     <text style="font-family:DejaVu Sans;font-size:8px;font-stretch:normal;font-style:normal;font-weight:normal;text-anchor:middle;" transform="rotate(-0, 84.67625, 76.70775)" x="84.67625" y="76.70775">Dimension</text>
    </g>
   </g>
   <g id="matplotlib.axis_2">
    <g id="ytick_1">
     <g id="line2d_3">
      <defs>
       <path d="M 0 0 
L -3.5 0 
" id="m5fd8195ffa" style="stroke:#000000;stroke-width:1.5;"/>
      </defs>
      <g>
       <use style="stroke:#000000;stroke-width:1.5;" x="42.82625" xlink:href="#m5fd8195ffa" y="51.332999"/>
      </g>
     </g>
     <g id="text_4">
      <text style="font-family:DejaVu Sans;font-size:8px;font-stretch:normal;font-style:normal;font-weight:normal;text-anchor:end;" transform="rotate(-0, 35.82625, 54.372374)" x="35.82625" y="54.372374">−10</text>
     </g>
    </g>
    <g id="ytick_2">
     <g id="line2d_4">
      <g>
       <use style="stroke:#000000;stroke-width:1.5;" x="42.82625" xlink:href="#m5fd8195ffa" y="17.419334"/>
      </g>
     </g>
     <g id="text_5">
      <text style="font-family:DejaVu Sans;font-size:8px;font-stretch:normal;font-style:normal;font-weight:normal;text-anchor:end;" transform="rotate(-0, 35.82625, 20.458709)" x="35.82625" y="20.458709">0</text>
     </g>
    </g>
    <g id="text_6">
     <text style="font-family:DejaVu Sans;font-size:8px;font-stretch:normal;font-style:normal;font-weight:normal;text-anchor:middle;" transform="rotate(-90, 13.27875, 32.4825)" x="13.27875" y="32.4825">log(E.-value)</text>
    </g>
   </g>
   <g id="patch_34">
    <path d="M 42.82625 51.8865 
L 42.82625 13.0785 
" style="fill:none;stroke:#000000;stroke-linecap:square;stroke-linejoin:miter;stroke-width:1.5;"/>
   </g>
   <g id="patch_35">
    <path d="M 42.82625 51.8865 
L 126.52625 51.8865 
" style="fill:none;stroke:#000000;stroke-linecap:square;stroke-linejoin:miter;stroke-width:1.5;"/>
   </g>
  </g>
 </g>
 <defs>
  <clipPath id="p7e6dfca236">
   <rect height="38.808" width="83.7" x="42.82625" y="13.0785"/>
  </clipPath>
 </defs>
</svg>
