<?xml version="1.0" encoding="utf-8" standalone="no"?>
<!DOCTYPE svg PUBLIC "-//W3C//DTD SVG 1.1//EN"
  "http://www.w3.org/Graphics/SVG/1.1/DTD/svg11.dtd">
<!-- Created with matplotlib (https://matplotlib.org/) -->
<svg height="76.533875pt" version="1.1" viewBox="0 0 141.066468 76.533875" width="141.066468pt" xmlns="http://www.w3.org/2000/svg" xmlns:xlink="http://www.w3.org/1999/xlink">
 <metadata>
  <rdf:RDF xmlns:cc="http://creativecommons.org/ns#" xmlns:dc="http://purl.org/dc/elements/1.1/" xmlns:rdf="http://www.w3.org/1999/02/22-rdf-syntax-ns#">
   <cc:Work>
    <dc:type rdf:resource="http://purl.org/dc/dcmitype/StillImage"/>
    <dc:date>2020-09-25T19:09:32.384833</dc:date>
    <dc:format>image/svg+xml</dc:format>
    <dc:creator>
     <cc:Agent>
      <dc:title>Matplotlib v3.3.2, https://matplotlib.org/</dc:title>
     </cc:Agent>
    </dc:creator>
   </cc:Work>
  </rdf:RDF>
 </metadata>
 <defs>
  <style type="text/css">*{stroke-linecap:butt;stroke-linejoin:round;}</style>
 </defs>
 <g id="figure_1">
  <g id="patch_1">
   <path d="M 0 76.533875 
L 141.066468 76.533875 
L 141.066468 0 
L 0 0 
z
" style="fill:none;"/>
  </g>
  <g id="axes_1">
   <g id="patch_2">
    <path d="M 31.287094 54.591375 
L 120.567094 54.591375 
L 120.567094 10.239375 
L 31.287094 10.239375 
z
" style="fill:none;"/>
   </g>
   <g id="patch_3">
    <path clip-path="url(#p3002391adc)" d="M 35.345276 32.415375 
L 36.675827 32.415375 
L 36.675827 48.72336 
L 35.345276 48.72336 
z
" style="fill:#3182bd;stroke:#3182bd;stroke-linejoin:miter;"/>
   </g>
   <g id="patch_4">
    <path clip-path="url(#p3002391adc)" d="M 38.006379 32.415375 
L 39.33693 32.415375 
L 39.33693 7.72628 
L 38.006379 7.72628 
z
" style="fill:#3182bd;stroke:#3182bd;stroke-linejoin:miter;"/>
   </g>
   <g id="patch_5">
    <path clip-path="url(#p3002391adc)" d="M 40.667481 32.415375 
L 41.998033 32.415375 
L 41.998033 8.834484 
L 40.667481 8.834484 
z
" style="fill:#3182bd;stroke:#3182bd;stroke-linejoin:miter;"/>
   </g>
   <g id="patch_6">
    <path clip-path="url(#p3002391adc)" d="M 43.328584 32.415375 
L 44.659136 32.415375 
L 44.659136 49.827452 
L 43.328584 49.827452 
z
" style="fill:#3182bd;stroke:#3182bd;stroke-linejoin:miter;"/>
   </g>
   <g id="patch_7">
    <path clip-path="url(#p3002391adc)" d="M 45.989687 32.415375 
L 47.320238 32.415375 
L 47.320238 41.320706 
L 45.989687 41.320706 
z
" style="fill:#3182bd;stroke:#3182bd;stroke-linejoin:miter;"/>
   </g>
   <g id="patch_8">
    <path clip-path="url(#p3002391adc)" d="M 48.65079 32.415375 
L 49.981341 32.415375 
L 49.981341 39.38843 
L 48.65079 39.38843 
z
" style="fill:#3182bd;stroke:#3182bd;stroke-linejoin:miter;"/>
   </g>
   <g id="patch_9">
    <path clip-path="url(#p3002391adc)" d="M 51.311893 32.415375 
L 52.642444 32.415375 
L 52.642444 33.028215 
L 51.311893 33.028215 
z
" style="fill:#3182bd;stroke:#3182bd;stroke-linejoin:miter;"/>
   </g>
   <g id="patch_10">
    <path clip-path="url(#p3002391adc)" d="M 53.972996 32.415375 
L 55.303547 32.415375 
L 55.303547 34.853562 
L 53.972996 34.853562 
z
" style="fill:#3182bd;stroke:#3182bd;stroke-linejoin:miter;"/>
   </g>
   <g id="patch_11">
    <path clip-path="url(#p3002391adc)" d="M 56.634098 32.415375 
L 57.96465 32.415375 
L 57.96465 32.480783 
L 56.634098 32.480783 
z
" style="fill:#fc8d59;stroke:#fc8d59;stroke-linejoin:miter;"/>
   </g>
   <g id="patch_12">
    <path clip-path="url(#p3002391adc)" d="M 59.295201 32.415375 
L 60.625753 32.415375 
L 60.625753 32.430652 
L 59.295201 32.430652 
z
" style="fill:#fc8d59;stroke:#fc8d59;stroke-linejoin:miter;"/>
   </g>
   <g id="patch_13">
    <path clip-path="url(#p3002391adc)" d="M 61.956304 32.415375 
L 63.286855 32.415375 
L 63.286855 32.271159 
L 61.956304 32.271159 
z
" style="fill:#fc8d59;stroke:#fc8d59;stroke-linejoin:miter;"/>
   </g>
   <g id="patch_14">
    <path clip-path="url(#p3002391adc)" d="M 64.617407 32.415375 
L 65.947958 32.415375 
L 65.947958 32.467874 
L 64.617407 32.467874 
z
" style="fill:#fc8d59;stroke:#fc8d59;stroke-linejoin:miter;"/>
   </g>
   <g id="patch_15">
    <path clip-path="url(#p3002391adc)" d="M 67.27851 32.415375 
L 68.609061 32.415375 
L 68.609061 32.39378 
L 67.27851 32.39378 
z
" style="fill:#fc8d59;stroke:#fc8d59;stroke-linejoin:miter;"/>
   </g>
   <g id="patch_16">
    <path clip-path="url(#p3002391adc)" d="M 69.939613 32.415375 
L 71.270164 32.415375 
L 71.270164 32.39679 
L 69.939613 32.39679 
z
" style="fill:#fc8d59;stroke:#fc8d59;stroke-linejoin:miter;"/>
   </g>
   <g id="patch_17">
    <path clip-path="url(#p3002391adc)" d="M 72.600715 32.415375 
L 73.931267 32.415375 
L 73.931267 32.451077 
L 72.600715 32.451077 
z
" style="fill:#fc8d59;stroke:#fc8d59;stroke-linejoin:miter;"/>
   </g>
   <g id="patch_18">
    <path clip-path="url(#p3002391adc)" d="M 75.261818 32.415375 
L 76.59237 32.415375 
L 76.59237 32.640759 
L 75.261818 32.640759 
z
" style="fill:#fc8d59;stroke:#fc8d59;stroke-linejoin:miter;"/>
   </g>
   <g id="patch_19">
    <path clip-path="url(#p3002391adc)" d="M 77.922921 32.415375 
L 79.253472 32.415375 
L 79.253472 32.738384 
L 77.922921 32.738384 
z
" style="fill:#2ca25f;stroke:#2ca25f;stroke-linejoin:miter;"/>
   </g>
   <g id="patch_20">
    <path clip-path="url(#p3002391adc)" d="M 80.584024 32.415375 
L 81.914575 32.415375 
L 81.914575 32.091108 
L 80.584024 32.091108 
z
" style="fill:#2ca25f;stroke:#2ca25f;stroke-linejoin:miter;"/>
   </g>
   <g id="patch_21">
    <path clip-path="url(#p3002391adc)" d="M 83.245127 32.415375 
L 84.575678 32.415375 
L 84.575678 32.452545 
L 83.245127 32.452545 
z
" style="fill:#2ca25f;stroke:#2ca25f;stroke-linejoin:miter;"/>
   </g>
   <g id="patch_22">
    <path clip-path="url(#p3002391adc)" d="M 85.90623 32.415375 
L 87.236781 32.415375 
L 87.236781 32.465725 
L 85.90623 32.465725 
z
" style="fill:#2ca25f;stroke:#2ca25f;stroke-linejoin:miter;"/>
   </g>
   <g id="patch_23">
    <path clip-path="url(#p3002391adc)" d="M 88.567332 32.415375 
L 89.897884 32.415375 
L 89.897884 32.463532 
L 88.567332 32.463532 
z
" style="fill:#2ca25f;stroke:#2ca25f;stroke-linejoin:miter;"/>
   </g>
   <g id="patch_24">
    <path clip-path="url(#p3002391adc)" d="M 91.228435 32.415375 
L 92.558987 32.415375 
L 92.558987 32.600336 
L 91.228435 32.600336 
z
" style="fill:#2ca25f;stroke:#2ca25f;stroke-linejoin:miter;"/>
   </g>
   <g id="patch_25">
    <path clip-path="url(#p3002391adc)" d="M 93.889538 32.415375 
L 95.220089 32.415375 
L 95.220089 32.575513 
L 93.889538 32.575513 
z
" style="fill:#2ca25f;stroke:#2ca25f;stroke-linejoin:miter;"/>
   </g>
   <g id="patch_26">
    <path clip-path="url(#p3002391adc)" d="M 96.550641 32.415375 
L 97.881192 32.415375 
L 97.881192 32.344408 
L 96.550641 32.344408 
z
" style="fill:#2ca25f;stroke:#2ca25f;stroke-linejoin:miter;"/>
   </g>
   <g id="patch_27">
    <path clip-path="url(#p3002391adc)" d="M 99.211744 32.415375 
L 100.542295 32.415375 
L 100.542295 31.794049 
L 99.211744 31.794049 
z
" style="stroke:#000000;stroke-linejoin:miter;"/>
   </g>
   <g id="patch_28">
    <path clip-path="url(#p3002391adc)" d="M 101.872846 32.415375 
L 103.203398 32.415375 
L 103.203398 32.290804 
L 101.872846 32.290804 
z
" style="stroke:#000000;stroke-linejoin:miter;"/>
   </g>
   <g id="patch_29">
    <path clip-path="url(#p3002391adc)" d="M 104.533949 32.415375 
L 105.864501 32.415375 
L 105.864501 32.651221 
L 104.533949 32.651221 
z
" style="stroke:#000000;stroke-linejoin:miter;"/>
   </g>
   <g id="patch_30">
    <path clip-path="url(#p3002391adc)" d="M 107.195052 32.415375 
L 108.525604 32.415375 
L 108.525604 32.50011 
L 107.195052 32.50011 
z
" style="stroke:#000000;stroke-linejoin:miter;"/>
   </g>
   <g id="patch_31">
    <path clip-path="url(#p3002391adc)" d="M 109.856155 32.415375 
L 111.186706 32.415375 
L 111.186706 29.927048 
L 109.856155 29.927048 
z
" style="stroke:#000000;stroke-linejoin:miter;"/>
   </g>
   <g id="patch_32">
    <path clip-path="url(#p3002391adc)" d="M 112.517258 32.415375 
L 113.847809 32.415375 
L 113.847809 32.388601 
L 112.517258 32.388601 
z
" style="stroke:#000000;stroke-linejoin:miter;"/>
   </g>
   <g id="patch_33">
    <path clip-path="url(#p3002391adc)" d="M 115.178361 32.415375 
L 116.508912 32.415375 
L 116.508912 32.110127 
L 115.178361 32.110127 
z
" style="stroke:#000000;stroke-linejoin:miter;"/>
   </g>
   <g id="matplotlib.axis_1">
    <g id="xtick_1">
     <g id="line2d_1">
      <defs>
       <path d="M 0 0 
L 0 3.5 
" id="mc41f54e365" style="stroke:#000000;stroke-width:1.5;"/>
      </defs>
      <g>
       <use style="stroke:#000000;stroke-width:1.5;" x="34.68" xlink:href="#mc41f54e365" y="54.591375"/>
      </g>
     </g>
     <g id="text_1">
      <!-- $\;\;\;\;\;\;\;\;\;\;\;\;\;\;\mathdefault{AB/PD}$ -->
      <g transform="translate(7.2 67.670125)">
       <text>
        <tspan style="font-family:DejaVu Sans;font-size:8px;font-style:book;font-weight:book;" x="30.306232 35.778888 41.26717 43.962482 48.786701" y="-0.171875">AB/PD</tspan>
       </text>
      </g>
     </g>
    </g>
    <g id="xtick_2">
     <g id="line2d_2">
      <g>
       <use style="stroke:#000000;stroke-width:1.5;" x="55.968823" xlink:href="#mc41f54e365" y="54.591375"/>
      </g>
     </g>
     <g id="text_2">
      <!-- $\;\;\;\;\;\;\;\;\;\;\;\;\;\;\;\mathdefault{LP}$ -->
      <g transform="translate(35.088823 67.670125)">
       <text>
        <tspan style="font-family:DejaVu Sans;font-size:8px;font-style:book;font-weight:book;" x="32.470963 36.927994" y="-0.171875">LP</tspan>
       </text>
      </g>
     </g>
    </g>
    <g id="xtick_3">
     <g id="line2d_3">
      <g>
       <use style="stroke:#000000;stroke-width:1.5;" x="77.257645" xlink:href="#mc41f54e365" y="54.591375"/>
      </g>
     </g>
     <g id="text_3">
      <!-- $\;\;\;\;\;\;\;\;\;\;\;\;\;\mathdefault{PY}$ -->
      <g transform="translate(58.297645 67.670125)">
       <text>
        <tspan style="font-family:DejaVu Sans;font-size:8px;font-style:book;font-weight:book;" x="28.141501 32.96572" y="-0.171875">PY</tspan>
       </text>
      </g>
     </g>
    </g>
    <g id="xtick_4">
     <g id="line2d_4">
      <g>
       <use style="stroke:#000000;stroke-width:1.5;" x="98.546468" xlink:href="#mc41f54e365" y="54.591375"/>
      </g>
     </g>
     <g id="text_4">
      <!-- $\;\;\;\;\;\;\;\;\;\;\;\;\;\;\;\mathdefault{Synapses}$ -->
      <g transform="translate(63.226468 67.653875)">
       <text>
        <tspan style="font-family:DejaVu Sans;font-size:8px;font-style:book;font-weight:book;" x="32.470963 37.549088 42.283463 47.353775 52.256119 57.334244 61.502213 66.424088" y="-0.0625">Synapses</tspan>
       </text>
      </g>
     </g>
    </g>
    <g id="xtick_5">
     <g id="line2d_5">
      <g>
       <use style="stroke:#000000;stroke-width:1.5;" x="117.174188" xlink:href="#mc41f54e365" y="54.591375"/>
      </g>
     </g>
    </g>
   </g>
   <g id="matplotlib.axis_2">
    <g id="ytick_1">
     <g id="line2d_6">
      <defs>
       <path d="M 0 0 
L -3.5 0 
" id="mf901dd857f" style="stroke:#000000;stroke-width:1.5;"/>
      </defs>
      <g>
       <use style="stroke:#000000;stroke-width:1.5;" x="31.287094" xlink:href="#mf901dd857f" y="54.591375"/>
      </g>
     </g>
     <g id="text_5">
      <text style="font-family:DejaVu Sans;font-size:8px;font-stretch:normal;font-style:normal;font-weight:normal;text-anchor:end;" transform="rotate(-0, 24.287094, 57.63075)" x="24.287094" y="57.63075">−1</text>
     </g>
    </g>
    <g id="ytick_2">
     <g id="line2d_7">
      <g>
       <use style="stroke:#000000;stroke-width:1.5;" x="31.287094" xlink:href="#mf901dd857f" y="32.415375"/>
      </g>
     </g>
     <g id="text_6">
      <text style="font-family:DejaVu Sans;font-size:8px;font-stretch:normal;font-style:normal;font-weight:normal;text-anchor:end;" transform="rotate(-0, 24.287094, 35.45475)" x="24.287094" y="35.45475">0</text>
     </g>
    </g>
    <g id="ytick_3">
     <g id="line2d_8">
      <g>
       <use style="stroke:#000000;stroke-width:1.5;" x="31.287094" xlink:href="#mf901dd857f" y="10.239375"/>
      </g>
     </g>
     <g id="text_7">
      <text style="font-family:DejaVu Sans;font-size:8px;font-stretch:normal;font-style:normal;font-weight:normal;text-anchor:end;" transform="rotate(-0, 24.287094, 13.27875)" x="24.287094" y="13.27875">1</text>
     </g>
    </g>
   </g>
   <g id="patch_34">
    <path d="M 31.287094 54.591375 
L 31.287094 10.239375 
" style="fill:none;stroke:#000000;stroke-linecap:square;stroke-linejoin:miter;stroke-width:1.5;"/>
   </g>
   <g id="patch_35">
    <path d="M 31.287094 54.591375 
L 120.567094 54.591375 
" style="fill:none;stroke:#000000;stroke-linecap:square;stroke-linejoin:miter;stroke-width:1.5;"/>
   </g>
  </g>
 </g>
 <defs>
  <clipPath id="p3002391adc">
   <rect height="44.352" width="89.28" x="31.287094" y="10.239375"/>
  </clipPath>
 </defs>
</svg>
