<?xml version="1.0" encoding="utf-8" standalone="no"?>
<!DOCTYPE svg PUBLIC "-//W3C//DTD SVG 1.1//EN"
  "http://www.w3.org/Graphics/SVG/1.1/DTD/svg11.dtd">
<!-- Created with matplotlib (https://matplotlib.org/) -->
<svg height="84.5825pt" version="1.1" viewBox="0 0 150.434783 84.5825" width="150.434783pt" xmlns="http://www.w3.org/2000/svg" xmlns:xlink="http://www.w3.org/1999/xlink">
 <metadata>
  <rdf:RDF xmlns:cc="http://creativecommons.org/ns#" xmlns:dc="http://purl.org/dc/elements/1.1/" xmlns:rdf="http://www.w3.org/1999/02/22-rdf-syntax-ns#">
   <cc:Work>
    <dc:type rdf:resource="http://purl.org/dc/dcmitype/StillImage"/>
    <dc:date>2020-09-25T19:09:42.245022</dc:date>
    <dc:format>image/svg+xml</dc:format>
    <dc:creator>
     <cc:Agent>
      <dc:title>Matplotlib v3.3.2, https://matplotlib.org/</dc:title>
     </cc:Agent>
    </dc:creator>
   </cc:Work>
  </rdf:RDF>
 </metadata>
 <defs>
  <style type="text/css">*{stroke-linecap:butt;stroke-linejoin:round;}</style>
 </defs>
 <g id="figure_1">
  <g id="patch_1">
   <path d="M 0 84.5825 
L 150.434783 84.5825 
L 150.434783 0 
L 0 0 
z
" style="fill:none;"/>
  </g>
  <g id="axes_1">
   <g id="patch_2">
    <path d="M 30.28 62.64 
L 141.88 62.64 
L 141.88 7.2 
L 30.28 7.2 
z
" style="fill:none;"/>
   </g>
   <g id="patch_3">
    <path clip-path="url(#pd44905390a)" d="M 31.493043 49.846154 
L 33.91913 49.846154 
L 33.91913 49.975829 
L 31.493043 49.975829 
z
" style="fill:#fc8d59;stroke:#fc8d59;stroke-linejoin:miter;"/>
   </g>
   <g id="patch_4">
    <path clip-path="url(#pd44905390a)" d="M 36.345217 49.846154 
L 38.771304 49.846154 
L 38.771304 49.874815 
L 36.345217 49.874815 
z
" style="fill:#fc8d59;stroke:#fc8d59;stroke-linejoin:miter;"/>
   </g>
   <g id="patch_5">
    <path clip-path="url(#pd44905390a)" d="M 41.197391 49.846154 
L 43.623478 49.846154 
L 43.623478 49.711101 
L 41.197391 49.711101 
z
" style="fill:#fc8d59;stroke:#fc8d59;stroke-linejoin:miter;"/>
   </g>
   <g id="patch_6">
    <path clip-path="url(#pd44905390a)" d="M 46.049565 49.846154 
L 48.475652 49.846154 
L 48.475652 49.805797 
L 46.049565 49.805797 
z
" style="fill:#fc8d59;stroke:#fc8d59;stroke-linejoin:miter;"/>
   </g>
   <g id="patch_7">
    <path clip-path="url(#pd44905390a)" d="M 50.901739 49.846154 
L 53.327826 49.846154 
L 53.327826 49.799734 
L 50.901739 49.799734 
z
" style="fill:#fc8d59;stroke:#fc8d59;stroke-linejoin:miter;"/>
   </g>
   <g id="patch_8">
    <path clip-path="url(#pd44905390a)" d="M 55.753913 49.846154 
L 58.18 49.846154 
L 58.18 49.780206 
L 55.753913 49.780206 
z
" style="fill:#fc8d59;stroke:#fc8d59;stroke-linejoin:miter;"/>
   </g>
   <g id="patch_9">
    <path clip-path="url(#pd44905390a)" d="M 60.606087 49.846154 
L 63.032174 49.846154 
L 63.032174 49.900404 
L 60.606087 49.900404 
z
" style="fill:#fc8d59;stroke:#fc8d59;stroke-linejoin:miter;"/>
   </g>
   <g id="patch_10">
    <path clip-path="url(#pd44905390a)" d="M 65.458261 49.846154 
L 67.884348 49.846154 
L 67.884348 50.081012 
L 65.458261 50.081012 
z
" style="fill:#fc8d59;stroke:#fc8d59;stroke-linejoin:miter;"/>
   </g>
   <g id="patch_11">
    <path clip-path="url(#pd44905390a)" d="M 70.310435 49.846154 
L 72.736522 49.846154 
L 72.736522 50.114943 
L 70.310435 50.114943 
z
" style="fill:#2ca25f;stroke:#2ca25f;stroke-linejoin:miter;"/>
   </g>
   <g id="patch_12">
    <path clip-path="url(#pd44905390a)" d="M 75.162609 49.846154 
L 77.588696 49.846154 
L 77.588696 49.545159 
L 75.162609 49.545159 
z
" style="fill:#2ca25f;stroke:#2ca25f;stroke-linejoin:miter;"/>
   </g>
   <g id="patch_13">
    <path clip-path="url(#pd44905390a)" d="M 80.014783 49.846154 
L 82.44087 49.846154 
L 82.44087 49.932084 
L 80.014783 49.932084 
z
" style="fill:#2ca25f;stroke:#2ca25f;stroke-linejoin:miter;"/>
   </g>
   <g id="patch_14">
    <path clip-path="url(#pd44905390a)" d="M 84.866957 49.846154 
L 87.293043 49.846154 
L 87.293043 49.890534 
L 84.866957 49.890534 
z
" style="fill:#2ca25f;stroke:#2ca25f;stroke-linejoin:miter;"/>
   </g>
   <g id="patch_15">
    <path clip-path="url(#pd44905390a)" d="M 89.71913 49.846154 
L 92.145217 49.846154 
L 92.145217 49.926225 
L 89.71913 49.926225 
z
" style="fill:#2ca25f;stroke:#2ca25f;stroke-linejoin:miter;"/>
   </g>
   <g id="patch_16">
    <path clip-path="url(#pd44905390a)" d="M 94.571304 49.846154 
L 96.997391 49.846154 
L 96.997391 50.015216 
L 94.571304 50.015216 
z
" style="fill:#2ca25f;stroke:#2ca25f;stroke-linejoin:miter;"/>
   </g>
   <g id="patch_17">
    <path clip-path="url(#pd44905390a)" d="M 99.423478 49.846154 
L 101.849565 49.846154 
L 101.849565 50.0205 
L 99.423478 50.0205 
z
" style="fill:#2ca25f;stroke:#2ca25f;stroke-linejoin:miter;"/>
   </g>
   <g id="patch_18">
    <path clip-path="url(#pd44905390a)" d="M 104.275652 49.846154 
L 106.701739 49.846154 
L 106.701739 49.771197 
L 104.275652 49.771197 
z
" style="fill:#2ca25f;stroke:#2ca25f;stroke-linejoin:miter;"/>
   </g>
   <g id="patch_19">
    <path clip-path="url(#pd44905390a)" d="M 109.127826 49.846154 
L 111.553913 49.846154 
L 111.553913 49.268849 
L 109.127826 49.268849 
z
" style="stroke:#000000;stroke-linejoin:miter;"/>
   </g>
   <g id="patch_20">
    <path clip-path="url(#pd44905390a)" d="M 113.98 49.846154 
L 116.406087 49.846154 
L 116.406087 49.796914 
L 113.98 49.796914 
z
" style="stroke:#000000;stroke-linejoin:miter;"/>
   </g>
   <g id="patch_21">
    <path clip-path="url(#pd44905390a)" d="M 118.832174 49.846154 
L 121.258261 49.846154 
L 121.258261 50.15124 
L 118.832174 50.15124 
z
" style="stroke:#000000;stroke-linejoin:miter;"/>
   </g>
   <g id="patch_22">
    <path clip-path="url(#pd44905390a)" d="M 123.684348 49.846154 
L 126.110435 49.846154 
L 126.110435 49.900744 
L 123.684348 49.900744 
z
" style="stroke:#000000;stroke-linejoin:miter;"/>
   </g>
   <g id="patch_23">
    <path clip-path="url(#pd44905390a)" d="M 128.536522 49.846154 
L 130.962609 49.846154 
L 130.962609 47.209004 
L 128.536522 47.209004 
z
" style="stroke:#000000;stroke-linejoin:miter;"/>
   </g>
   <g id="patch_24">
    <path clip-path="url(#pd44905390a)" d="M 133.388696 49.846154 
L 135.814783 49.846154 
L 135.814783 49.83679 
L 133.388696 49.83679 
z
" style="stroke:#000000;stroke-linejoin:miter;"/>
   </g>
   <g id="patch_25">
    <path clip-path="url(#pd44905390a)" d="M 138.24087 49.846154 
L 140.666957 49.846154 
L 140.666957 49.621887 
L 138.24087 49.621887 
z
" style="stroke:#000000;stroke-linejoin:miter;"/>
   </g>
   <g id="matplotlib.axis_1">
    <g id="xtick_1">
     <g id="line2d_1">
      <defs>
       <path d="M 0 0 
L 0 3.5 
" id="m390e3120f1" style="stroke:#000000;stroke-width:1.5;"/>
      </defs>
      <g>
       <use style="stroke:#000000;stroke-width:1.5;" x="30.28" xlink:href="#m390e3120f1" y="62.64"/>
      </g>
     </g>
     <g id="text_1">
      <!-- $\;\;\;\;\;\;\;\;\;\;\;\;\;\;\;\;\;\mathdefault{LP}$ -->
      <g transform="translate(7.2 75.71875)">
       <text>
        <tspan style="font-family:DejaVu Sans;font-size:8px;font-style:book;font-weight:book;" x="36.800425 41.257456" y="-0.171875">LP</tspan>
       </text>
      </g>
     </g>
    </g>
    <g id="xtick_2">
     <g id="line2d_2">
      <g>
       <use style="stroke:#000000;stroke-width:1.5;" x="69.097391" xlink:href="#m390e3120f1" y="62.64"/>
      </g>
     </g>
     <g id="text_2">
      <!-- $\;\;\;\;\;\;\;\;\;\;\;\;\;\;\;\;\;\mathdefault{PY}$ -->
      <g transform="translate(45.817391 75.71875)">
       <text>
        <tspan style="font-family:DejaVu Sans;font-size:8px;font-style:book;font-weight:book;" x="36.800425 41.624643" y="-0.171875">PY</tspan>
       </text>
      </g>
     </g>
    </g>
    <g id="xtick_3">
     <g id="line2d_3">
      <g>
       <use style="stroke:#000000;stroke-width:1.5;" x="107.914783" xlink:href="#m390e3120f1" y="62.64"/>
      </g>
     </g>
     <g id="text_3">
      <!-- $\;\;\;\;\;\;\;\;\;\;\;\;\;\;\;\mathdefault{Synapses}$ -->
      <g transform="translate(72.594783 75.7025)">
       <text>
        <tspan style="font-family:DejaVu Sans;font-size:8px;font-style:book;font-weight:book;" x="32.470963 37.549088 42.283463 47.353775 52.256119 57.334244 61.502213 66.424088" y="-0.0625">Synapses</tspan>
       </text>
      </g>
     </g>
    </g>
    <g id="xtick_4">
     <g id="line2d_4">
      <g>
       <use style="stroke:#000000;stroke-width:1.5;" x="141.88" xlink:href="#m390e3120f1" y="62.64"/>
      </g>
     </g>
    </g>
   </g>
   <g id="matplotlib.axis_2"/>
   <g id="patch_26">
    <path d="M 30.28 62.64 
L 141.88 62.64 
" style="fill:none;stroke:#000000;stroke-linecap:square;stroke-linejoin:miter;stroke-width:1.5;"/>
   </g>
  </g>
 </g>
 <defs>
  <clipPath id="pd44905390a">
   <rect height="55.44" width="111.6" x="30.28" y="7.2"/>
  </clipPath>
 </defs>
</svg>
