<?xml version="1.0" encoding="utf-8" standalone="no"?>
<!DOCTYPE svg PUBLIC "-//W3C//DTD SVG 1.1//EN"
  "http://www.w3.org/Graphics/SVG/1.1/DTD/svg11.dtd">
<!-- Created with matplotlib (https://matplotlib.org/) -->
<svg height="85.5715pt" version="1.1" viewBox="0 0 133.72625 85.5715" width="133.72625pt" xmlns="http://www.w3.org/2000/svg" xmlns:xlink="http://www.w3.org/1999/xlink">
 <metadata>
  <rdf:RDF xmlns:cc="http://creativecommons.org/ns#" xmlns:dc="http://purl.org/dc/elements/1.1/" xmlns:rdf="http://www.w3.org/1999/02/22-rdf-syntax-ns#">
   <cc:Work>
    <dc:type rdf:resource="http://purl.org/dc/dcmitype/StillImage"/>
    <dc:date>2020-09-28T14:17:36.521030</dc:date>
    <dc:format>image/svg+xml</dc:format>
    <dc:creator>
     <cc:Agent>
      <dc:title>Matplotlib v3.3.2, https://matplotlib.org/</dc:title>
     </cc:Agent>
    </dc:creator>
   </cc:Work>
  </rdf:RDF>
 </metadata>
 <defs>
  <style type="text/css">*{stroke-linecap:butt;stroke-linejoin:round;}</style>
 </defs>
 <g id="figure_1">
  <g id="patch_1">
   <path d="M -0 85.5715 
L 133.72625 85.5715 
L 133.72625 0 
L -0 0 
z
" style="fill:none;"/>
  </g>
  <g id="axes_1">
   <g id="patch_2">
    <path d="M 42.82625 51.8865 
L 126.52625 51.8865 
L 126.52625 13.0785 
L 42.82625 13.0785 
z
" style="fill:none;"/>
   </g>
   <g id="patch_3">
    <path clip-path="url(#pc4fa69b8c5)" d="M 46.630795 13.0785 
L 47.878187 13.0785 
L 47.878187 15.519712 
L 46.630795 15.519712 
z
" style="fill:#045a8d;"/>
   </g>
   <g id="patch_4">
    <path clip-path="url(#pc4fa69b8c5)" d="M 49.125579 13.0785 
L 50.372971 13.0785 
L 50.372971 21.904949 
L 49.125579 21.904949 
z
" style="fill:#045a8d;"/>
   </g>
   <g id="patch_5">
    <path clip-path="url(#pc4fa69b8c5)" d="M 51.620363 13.0785 
L 52.867755 13.0785 
L 52.867755 27.725745 
L 51.620363 27.725745 
z
" style="fill:#045a8d;"/>
   </g>
   <g id="patch_6">
    <path clip-path="url(#pc4fa69b8c5)" d="M 54.115147 13.0785 
L 55.362539 13.0785 
L 55.362539 31.265 
L 54.115147 31.265 
z
" style="fill:#045a8d;"/>
   </g>
   <g id="patch_7">
    <path clip-path="url(#pc4fa69b8c5)" d="M 56.609931 13.0785 
L 57.857323 13.0785 
L 57.857323 33.108645 
L 56.609931 33.108645 
z
" style="fill:#045a8d;"/>
   </g>
   <g id="patch_8">
    <path clip-path="url(#pc4fa69b8c5)" d="M 59.104715 13.0785 
L 60.352107 13.0785 
L 60.352107 36.748 
L 59.104715 36.748 
z
" style="fill:#045a8d;"/>
   </g>
   <g id="patch_9">
    <path clip-path="url(#pc4fa69b8c5)" d="M 61.599499 13.0785 
L 62.846891 13.0785 
L 62.846891 40.321054 
L 61.599499 40.321054 
z
" style="fill:#045a8d;"/>
   </g>
   <g id="patch_10">
    <path clip-path="url(#pc4fa69b8c5)" d="M 64.094283 13.0785 
L 65.341675 13.0785 
L 65.341675 42.620682 
L 64.094283 42.620682 
z
" style="fill:#045a8d;"/>
   </g>
   <g id="patch_11">
    <path clip-path="url(#pc4fa69b8c5)" d="M 66.589067 13.0785 
L 67.836459 13.0785 
L 67.836459 42.755982 
L 66.589067 42.755982 
z
" style="fill:#045a8d;"/>
   </g>
   <g id="patch_12">
    <path clip-path="url(#pc4fa69b8c5)" d="M 69.083851 13.0785 
L 70.331243 13.0785 
L 70.331243 44.538304 
L 69.083851 44.538304 
z
" style="fill:#045a8d;"/>
   </g>
   <g id="patch_13">
    <path clip-path="url(#pc4fa69b8c5)" d="M 71.578635 13.0785 
L 72.826026 13.0785 
L 72.826026 45.038057 
L 71.578635 45.038057 
z
" style="fill:#045a8d;"/>
   </g>
   <g id="patch_14">
    <path clip-path="url(#pc4fa69b8c5)" d="M 74.073418 13.0785 
L 75.32081 13.0785 
L 75.32081 45.284856 
L 74.073418 45.284856 
z
" style="fill:#045a8d;"/>
   </g>
   <g id="patch_15">
    <path clip-path="url(#pc4fa69b8c5)" d="M 76.568202 13.0785 
L 77.815594 13.0785 
L 77.815594 45.55346 
L 76.568202 45.55346 
z
" style="fill:#045a8d;"/>
   </g>
   <g id="patch_16">
    <path clip-path="url(#pc4fa69b8c5)" d="M 79.062986 13.0785 
L 80.310378 13.0785 
L 80.310378 45.901601 
L 79.062986 45.901601 
z
" style="fill:#045a8d;"/>
   </g>
   <g id="patch_17">
    <path clip-path="url(#pc4fa69b8c5)" d="M 81.55777 13.0785 
L 82.805162 13.0785 
L 82.805162 45.970934 
L 81.55777 45.970934 
z
" style="fill:#045a8d;"/>
   </g>
   <g id="patch_18">
    <path clip-path="url(#pc4fa69b8c5)" d="M 84.052554 13.0785 
L 85.299946 13.0785 
L 85.299946 46.222673 
L 84.052554 46.222673 
z
" style="fill:#045a8d;"/>
   </g>
   <g id="patch_19">
    <path clip-path="url(#pc4fa69b8c5)" d="M 86.547338 13.0785 
L 87.79473 13.0785 
L 87.79473 46.512572 
L 86.547338 46.512572 
z
" style="fill:#045a8d;"/>
   </g>
   <g id="patch_20">
    <path clip-path="url(#pc4fa69b8c5)" d="M 89.042122 13.0785 
L 90.289514 13.0785 
L 90.289514 46.884524 
L 89.042122 46.884524 
z
" style="fill:#045a8d;"/>
   </g>
   <g id="patch_21">
    <path clip-path="url(#pc4fa69b8c5)" d="M 91.536906 13.0785 
L 92.784298 13.0785 
L 92.784298 47.000112 
L 91.536906 47.000112 
z
" style="fill:#045a8d;"/>
   </g>
   <g id="patch_22">
    <path clip-path="url(#pc4fa69b8c5)" d="M 94.03169 13.0785 
L 95.279082 13.0785 
L 95.279082 47.34573 
L 94.03169 47.34573 
z
" style="fill:#045a8d;"/>
   </g>
   <g id="patch_23">
    <path clip-path="url(#pc4fa69b8c5)" d="M 96.526474 13.0785 
L 97.773865 13.0785 
L 97.773865 47.449054 
L 96.526474 47.449054 
z
" style="fill:#045a8d;"/>
   </g>
   <g id="patch_24">
    <path clip-path="url(#pc4fa69b8c5)" d="M 99.021257 13.0785 
L 100.268649 13.0785 
L 100.268649 47.812457 
L 99.021257 47.812457 
z
" style="fill:#045a8d;"/>
   </g>
   <g id="patch_25">
    <path clip-path="url(#pc4fa69b8c5)" d="M 101.516041 13.0785 
L 102.763433 13.0785 
L 102.763433 48.025469 
L 101.516041 48.025469 
z
" style="fill:#045a8d;"/>
   </g>
   <g id="patch_26">
    <path clip-path="url(#pc4fa69b8c5)" d="M 104.010825 13.0785 
L 105.258217 13.0785 
L 105.258217 48.324407 
L 104.010825 48.324407 
z
" style="fill:#045a8d;"/>
   </g>
   <g id="patch_27">
    <path clip-path="url(#pc4fa69b8c5)" d="M 106.505609 13.0785 
L 107.753001 13.0785 
L 107.753001 48.552615 
L 106.505609 48.552615 
z
" style="fill:#045a8d;"/>
   </g>
   <g id="patch_28">
    <path clip-path="url(#pc4fa69b8c5)" d="M 109.000393 13.0785 
L 110.247785 13.0785 
L 110.247785 48.585376 
L 109.000393 48.585376 
z
" style="fill:#045a8d;"/>
   </g>
   <g id="patch_29">
    <path clip-path="url(#pc4fa69b8c5)" d="M 111.495177 13.0785 
L 112.742569 13.0785 
L 112.742569 48.932921 
L 111.495177 48.932921 
z
" style="fill:#045a8d;"/>
   </g>
   <g id="patch_30">
    <path clip-path="url(#pc4fa69b8c5)" d="M 113.989961 13.0785 
L 115.237353 13.0785 
L 115.237353 49.157388 
L 113.989961 49.157388 
z
" style="fill:#045a8d;"/>
   </g>
   <g id="patch_31">
    <path clip-path="url(#pc4fa69b8c5)" d="M 116.484745 13.0785 
L 117.732137 13.0785 
L 117.732137 49.228904 
L 116.484745 49.228904 
z
" style="fill:#045a8d;"/>
   </g>
   <g id="patch_32">
    <path clip-path="url(#pc4fa69b8c5)" d="M 118.979529 13.0785 
L 120.226921 13.0785 
L 120.226921 49.91752 
L 118.979529 49.91752 
z
" style="fill:#045a8d;"/>
   </g>
   <g id="patch_33">
    <path clip-path="url(#pc4fa69b8c5)" d="M 121.474313 13.0785 
L 122.721705 13.0785 
L 122.721705 50.0385 
L 121.474313 50.0385 
z
" style="fill:#045a8d;"/>
   </g>
   <g id="matplotlib.axis_1">
    <g id="xtick_1">
     <g id="line2d_1">
      <defs>
       <path d="M 0 0 
L 0 3.5 
" id="me81eb7db72" style="stroke:#000000;stroke-width:1.5;"/>
      </defs>
      <g>
       <use style="stroke:#000000;stroke-width:1.5;" x="47.254491" xlink:href="#me81eb7db72" y="51.8865"/>
      </g>
     </g>
     <g id="text_1">
      <text style="font-family:DejaVu Sans;font-size:8px;font-stretch:normal;font-style:normal;font-weight:normal;text-anchor:middle;" transform="rotate(-0, 47.254491, 64.96525)" x="47.254491" y="64.96525">0</text>
     </g>
    </g>
    <g id="xtick_2">
     <g id="line2d_2">
      <g>
       <use style="stroke:#000000;stroke-width:1.5;" x="97.15017" xlink:href="#me81eb7db72" y="51.8865"/>
      </g>
     </g>
     <g id="text_2">
      <text style="font-family:DejaVu Sans;font-size:8px;font-stretch:normal;font-style:normal;font-weight:normal;text-anchor:middle;" transform="rotate(-0, 97.15017, 64.96525)" x="97.15017" y="64.96525">20</text>
     </g>
    </g>
    <g id="text_3">
     <text style="font-family:DejaVu Sans;font-size:8px;font-stretch:normal;font-style:normal;font-weight:normal;text-anchor:middle;" transform="rotate(-0, 84.67625, 76.70775)" x="84.67625" y="76.70775">Dimension</text>
    </g>
   </g>
   <g id="matplotlib.axis_2">
    <g id="ytick_1">
     <g id="line2d_3">
      <defs>
       <path d="M 0 0 
L -3.5 0 
" id="m2cfcf95c1a" style="stroke:#000000;stroke-width:1.5;"/>
      </defs>
      <g>
       <use style="stroke:#000000;stroke-width:1.5;" x="42.82625" xlink:href="#m2cfcf95c1a" y="44.612121"/>
      </g>
     </g>
     <g id="text_4">
      <text style="font-family:DejaVu Sans;font-size:8px;font-stretch:normal;font-style:normal;font-weight:normal;text-anchor:end;" transform="rotate(-0, 35.82625, 47.651496)" x="35.82625" y="47.651496">−10</text>
     </g>
    </g>
    <g id="ytick_2">
     <g id="line2d_4">
      <g>
       <use style="stroke:#000000;stroke-width:1.5;" x="42.82625" xlink:href="#m2cfcf95c1a" y="13.0785"/>
      </g>
     </g>
     <g id="text_5">
      <text style="font-family:DejaVu Sans;font-size:8px;font-stretch:normal;font-style:normal;font-weight:normal;text-anchor:end;" transform="rotate(-0, 35.82625, 16.117875)" x="35.82625" y="16.117875">0</text>
     </g>
    </g>
    <g id="text_6">
     <text style="font-family:DejaVu Sans;font-size:8px;font-stretch:normal;font-style:normal;font-weight:normal;text-anchor:middle;" transform="rotate(-90, 13.27875, 32.4825)" x="13.27875" y="32.4825">log(E.-value)</text>
    </g>
   </g>
   <g id="patch_34">
    <path d="M 42.82625 51.8865 
L 42.82625 13.0785 
" style="fill:none;stroke:#000000;stroke-linecap:square;stroke-linejoin:miter;stroke-width:1.5;"/>
   </g>
   <g id="patch_35">
    <path d="M 42.82625 51.8865 
L 126.52625 51.8865 
" style="fill:none;stroke:#000000;stroke-linecap:square;stroke-linejoin:miter;stroke-width:1.5;"/>
   </g>
  </g>
 </g>
 <defs>
  <clipPath id="pc4fa69b8c5">
   <rect height="38.808" width="83.7" x="42.82625" y="13.0785"/>
  </clipPath>
 </defs>
</svg>
