<?xml version="1.0" encoding="utf-8" standalone="no"?>
<!DOCTYPE svg PUBLIC "-//W3C//DTD SVG 1.1//EN"
  "http://www.w3.org/Graphics/SVG/1.1/DTD/svg11.dtd">
<!-- Created with matplotlib (https://matplotlib.org/) -->
<svg height="76.215125pt" version="1.1" viewBox="0 0 134.746468 76.215125" width="134.746468pt" xmlns="http://www.w3.org/2000/svg" xmlns:xlink="http://www.w3.org/1999/xlink">
 <defs>
  <style type="text/css">
*{stroke-linecap:butt;stroke-linejoin:round;}
  </style>
 </defs>
 <g id="figure_1">
  <g id="patch_1">
   <path d="M -0 76.215125 
L 134.746468 76.215125 
L 134.746468 -0 
L -0 -0 
z
" style="fill:none;"/>
  </g>
  <g id="axes_1">
   <g id="patch_2">
    <path d="M 28.807094 54.415125 
L 118.087094 54.415125 
L 118.087094 10.063125 
L 28.807094 10.063125 
z
" style="fill:none;"/>
   </g>
   <g id="patch_3">
    <path clip-path="url(#p1cf9552569)" d="M 32.865276 32.239125 
L 34.195827 32.239125 
L 34.195827 11.997484 
L 32.865276 11.997484 
z
" style="fill:#3182bd;stroke:#3182bd;stroke-linejoin:miter;"/>
   </g>
   <g id="patch_4">
    <path clip-path="url(#p1cf9552569)" d="M 35.526379 32.239125 
L 36.85693 32.239125 
L 36.85693 29.96809 
L 35.526379 29.96809 
z
" style="fill:#3182bd;stroke:#3182bd;stroke-linejoin:miter;"/>
   </g>
   <g id="patch_5">
    <path clip-path="url(#p1cf9552569)" d="M 38.187481 32.239125 
L 39.518033 32.239125 
L 39.518033 31.237331 
L 38.187481 31.237331 
z
" style="fill:#3182bd;stroke:#3182bd;stroke-linejoin:miter;"/>
   </g>
   <g id="patch_6">
    <path clip-path="url(#p1cf9552569)" d="M 40.848584 32.239125 
L 42.179136 32.239125 
L 42.179136 34.914256 
L 40.848584 34.914256 
z
" style="fill:#3182bd;stroke:#3182bd;stroke-linejoin:miter;"/>
   </g>
   <g id="patch_7">
    <path clip-path="url(#p1cf9552569)" d="M 43.509687 32.239125 
L 44.840238 32.239125 
L 44.840238 27.396033 
L 43.509687 27.396033 
z
" style="fill:#3182bd;stroke:#3182bd;stroke-linejoin:miter;"/>
   </g>
   <g id="patch_8">
    <path clip-path="url(#p1cf9552569)" d="M 46.17079 32.239125 
L 47.501341 32.239125 
L 47.501341 32.494829 
L 46.17079 32.494829 
z
" style="fill:#3182bd;stroke:#3182bd;stroke-linejoin:miter;"/>
   </g>
   <g id="patch_9">
    <path clip-path="url(#p1cf9552569)" d="M 48.831893 32.239125 
L 50.162444 32.239125 
L 50.162444 32.252888 
L 48.831893 32.252888 
z
" style="fill:#3182bd;stroke:#3182bd;stroke-linejoin:miter;"/>
   </g>
   <g id="patch_10">
    <path clip-path="url(#p1cf9552569)" d="M 51.492996 32.239125 
L 52.823547 32.239125 
L 52.823547 32.456416 
L 51.492996 32.456416 
z
" style="fill:#3182bd;stroke:#3182bd;stroke-linejoin:miter;"/>
   </g>
   <g id="patch_11">
    <path clip-path="url(#p1cf9552569)" d="M 54.154098 32.239125 
L 55.48465 32.239125 
L 55.48465 32.259251 
L 54.154098 32.259251 
z
" style="fill:#fc8d59;stroke:#fc8d59;stroke-linejoin:miter;"/>
   </g>
   <g id="patch_12">
    <path clip-path="url(#p1cf9552569)" d="M 56.815201 32.239125 
L 58.145753 32.239125 
L 58.145753 32.215616 
L 56.815201 32.215616 
z
" style="fill:#fc8d59;stroke:#fc8d59;stroke-linejoin:miter;"/>
   </g>
   <g id="patch_13">
    <path clip-path="url(#p1cf9552569)" d="M 59.476304 32.239125 
L 60.806855 32.239125 
L 60.806855 32.332214 
L 59.476304 32.332214 
z
" style="fill:#fc8d59;stroke:#fc8d59;stroke-linejoin:miter;"/>
   </g>
   <g id="patch_14">
    <path clip-path="url(#p1cf9552569)" d="M 62.137407 32.239125 
L 63.467958 32.239125 
L 63.467958 32.168527 
L 62.137407 32.168527 
z
" style="fill:#fc8d59;stroke:#fc8d59;stroke-linejoin:miter;"/>
   </g>
   <g id="patch_15">
    <path clip-path="url(#p1cf9552569)" d="M 64.79851 32.239125 
L 66.129061 32.239125 
L 66.129061 32.193665 
L 64.79851 32.193665 
z
" style="fill:#fc8d59;stroke:#fc8d59;stroke-linejoin:miter;"/>
   </g>
   <g id="patch_16">
    <path clip-path="url(#p1cf9552569)" d="M 67.459613 32.239125 
L 68.790164 32.239125 
L 68.790164 32.24147 
L 67.459613 32.24147 
z
" style="fill:#fc8d59;stroke:#fc8d59;stroke-linejoin:miter;"/>
   </g>
   <g id="patch_17">
    <path clip-path="url(#p1cf9552569)" d="M 70.120715 32.239125 
L 71.451267 32.239125 
L 71.451267 32.340715 
L 70.120715 32.340715 
z
" style="fill:#fc8d59;stroke:#fc8d59;stroke-linejoin:miter;"/>
   </g>
   <g id="patch_18">
    <path clip-path="url(#p1cf9552569)" d="M 72.781818 32.239125 
L 74.11237 32.239125 
L 74.11237 32.229201 
L 72.781818 32.229201 
z
" style="fill:#fc8d59;stroke:#fc8d59;stroke-linejoin:miter;"/>
   </g>
   <g id="patch_19">
    <path clip-path="url(#p1cf9552569)" d="M 75.442921 32.239125 
L 76.773472 32.239125 
L 76.773472 32.241747 
L 75.442921 32.241747 
z
" style="fill:#2ca25f;stroke:#2ca25f;stroke-linejoin:miter;"/>
   </g>
   <g id="patch_20">
    <path clip-path="url(#p1cf9552569)" d="M 78.104024 32.239125 
L 79.434575 32.239125 
L 79.434575 32.173207 
L 78.104024 32.173207 
z
" style="fill:#2ca25f;stroke:#2ca25f;stroke-linejoin:miter;"/>
   </g>
   <g id="patch_21">
    <path clip-path="url(#p1cf9552569)" d="M 80.765127 32.239125 
L 82.095678 32.239125 
L 82.095678 32.174281 
L 80.765127 32.174281 
z
" style="fill:#2ca25f;stroke:#2ca25f;stroke-linejoin:miter;"/>
   </g>
   <g id="patch_22">
    <path clip-path="url(#p1cf9552569)" d="M 83.42623 32.239125 
L 84.756781 32.239125 
L 84.756781 32.241984 
L 83.42623 32.241984 
z
" style="fill:#2ca25f;stroke:#2ca25f;stroke-linejoin:miter;"/>
   </g>
   <g id="patch_23">
    <path clip-path="url(#p1cf9552569)" d="M 86.087332 32.239125 
L 87.417884 32.239125 
L 87.417884 32.309902 
L 86.087332 32.309902 
z
" style="fill:#2ca25f;stroke:#2ca25f;stroke-linejoin:miter;"/>
   </g>
   <g id="patch_24">
    <path clip-path="url(#p1cf9552569)" d="M 88.748435 32.239125 
L 90.078987 32.239125 
L 90.078987 32.238818 
L 88.748435 32.238818 
z
" style="fill:#2ca25f;stroke:#2ca25f;stroke-linejoin:miter;"/>
   </g>
   <g id="patch_25">
    <path clip-path="url(#p1cf9552569)" d="M 91.409538 32.239125 
L 92.740089 32.239125 
L 92.740089 32.256802 
L 91.409538 32.256802 
z
" style="fill:#2ca25f;stroke:#2ca25f;stroke-linejoin:miter;"/>
   </g>
   <g id="patch_26">
    <path clip-path="url(#p1cf9552569)" d="M 94.070641 32.239125 
L 95.401192 32.239125 
L 95.401192 32.202253 
L 94.070641 32.202253 
z
" style="fill:#2ca25f;stroke:#2ca25f;stroke-linejoin:miter;"/>
   </g>
   <g id="patch_27">
    <path clip-path="url(#p1cf9552569)" d="M 96.731744 32.239125 
L 98.062295 32.239125 
L 98.062295 32.23424 
L 96.731744 32.23424 
z
" style="stroke:#000000;stroke-linejoin:miter;"/>
   </g>
   <g id="patch_28">
    <path clip-path="url(#p1cf9552569)" d="M 99.392846 32.239125 
L 100.723398 32.239125 
L 100.723398 32.149154 
L 99.392846 32.149154 
z
" style="stroke:#000000;stroke-linejoin:miter;"/>
   </g>
   <g id="patch_29">
    <path clip-path="url(#p1cf9552569)" d="M 102.053949 32.239125 
L 103.384501 32.239125 
L 103.384501 32.334687 
L 102.053949 32.334687 
z
" style="stroke:#000000;stroke-linejoin:miter;"/>
   </g>
   <g id="patch_30">
    <path clip-path="url(#p1cf9552569)" d="M 104.715052 32.239125 
L 106.045604 32.239125 
L 106.045604 32.335731 
L 104.715052 32.335731 
z
" style="stroke:#000000;stroke-linejoin:miter;"/>
   </g>
   <g id="patch_31">
    <path clip-path="url(#p1cf9552569)" d="M 107.376155 32.239125 
L 108.706706 32.239125 
L 108.706706 31.83213 
L 107.376155 31.83213 
z
" style="stroke:#000000;stroke-linejoin:miter;"/>
   </g>
   <g id="patch_32">
    <path clip-path="url(#p1cf9552569)" d="M 110.037258 32.239125 
L 111.367809 32.239125 
L 111.367809 32.198413 
L 110.037258 32.198413 
z
" style="stroke:#000000;stroke-linejoin:miter;"/>
   </g>
   <g id="patch_33">
    <path clip-path="url(#p1cf9552569)" d="M 112.698361 32.239125 
L 114.028912 32.239125 
L 114.028912 32.147997 
L 112.698361 32.147997 
z
" style="stroke:#000000;stroke-linejoin:miter;"/>
   </g>
   <g id="matplotlib.axis_1">
    <g id="xtick_1">
     <g id="line2d_1">
      <defs>
       <path d="M 0 0 
L 0 3.5 
" id="mef830faea5" style="stroke:#000000;stroke-width:1.5;"/>
      </defs>
      <g>
       <use style="stroke:#000000;stroke-width:1.5;" x="32.2" xlink:href="#mef830faea5" y="54.415125"/>
      </g>
     </g>
     <g id="text_1">
      <!-- $\;\;\;\;\;\;\;\;\;\;\;\;\;\;\mathdefault{AB/PD}$ -->
      <g transform="translate(7.2 67.141375)">
       <text>
        <tspan style="font-family:Arial;font-size:8px;font-style:regular;font-weight:regular;" x="25.916006 31.251943 36.587881 38.810537 44.146475" y="-0.171875">AB/PD</tspan>
       </text>
      </g>
     </g>
    </g>
    <g id="xtick_2">
     <g id="line2d_2">
      <g>
       <use style="stroke:#000000;stroke-width:1.5;" x="53.488823" xlink:href="#mef830faea5" y="54.415125"/>
      </g>
     </g>
     <g id="text_2">
      <!-- $\;\;\;\;\;\;\;\;\;\;\;\;\;\;\;\mathdefault{LP}$ -->
      <g transform="translate(34.688823 67.141375)">
       <text>
        <tspan style="font-family:Arial;font-size:8px;font-style:regular;font-weight:regular;" x="27.767149 32.216368" y="-0.265625">LP</tspan>
       </text>
      </g>
     </g>
    </g>
    <g id="xtick_3">
     <g id="line2d_3">
      <g>
       <use style="stroke:#000000;stroke-width:1.5;" x="74.777645" xlink:href="#mef830faea5" y="54.415125"/>
      </g>
     </g>
     <g id="text_3">
      <!-- $\;\;\;\;\;\;\;\;\;\;\;\;\;\mathdefault{PY}$ -->
      <g transform="translate(57.377645 67.141375)">
       <text>
        <tspan style="font-family:Arial;font-size:8px;font-style:regular;font-weight:regular;" x="24.064863 29.4008" y="-0.265625">PY</tspan>
       </text>
      </g>
     </g>
    </g>
    <g id="xtick_4">
     <g id="line2d_4">
      <g>
       <use style="stroke:#000000;stroke-width:1.5;" x="96.066468" xlink:href="#mef830faea5" y="54.415125"/>
      </g>
     </g>
     <g id="text_4">
      <!-- $\;\;\;\;\;\;\;\;\;\;\;\;\;\;\;\mathdefault{Synapses}$ -->
      <g transform="translate(64.586468 67.255125)">
       <text>
        <tspan style="font-family:Arial;font-size:8px;font-style:regular;font-weight:regular;" x="27.767149 33.103087 37.103087 41.552305 46.001524 50.450743 54.450743 58.899962" y="-0.171875">Synapses</tspan>
       </text>
      </g>
     </g>
    </g>
    <g id="xtick_5">
     <g id="line2d_5">
      <g>
       <use style="stroke:#000000;stroke-width:1.5;" x="114.694188" xlink:href="#mef830faea5" y="54.415125"/>
      </g>
     </g>
    </g>
   </g>
   <g id="matplotlib.axis_2">
    <g id="ytick_1">
     <g id="line2d_6">
      <defs>
       <path d="M 0 0 
L -3.5 0 
" id="m82c4a00579" style="stroke:#000000;stroke-width:1.5;"/>
      </defs>
      <g>
       <use style="stroke:#000000;stroke-width:1.5;" x="28.807094" xlink:href="#m82c4a00579" y="54.415125"/>
      </g>
     </g>
     <g id="text_5">
      <text style="font-family:Arial;font-size:8px;font-style:normal;font-weight:normal;text-anchor:end;" transform="rotate(-0, 21.807094, 57.27825)" x="21.807094" y="57.27825">−1</text>
     </g>
    </g>
    <g id="ytick_2">
     <g id="line2d_7">
      <g>
       <use style="stroke:#000000;stroke-width:1.5;" x="28.807094" xlink:href="#m82c4a00579" y="32.239125"/>
      </g>
     </g>
     <g id="text_6">
      <text style="font-family:Arial;font-size:8px;font-style:normal;font-weight:normal;text-anchor:end;" transform="rotate(-0, 21.807094, 35.10225)" x="21.807094" y="35.10225">0</text>
     </g>
    </g>
    <g id="ytick_3">
     <g id="line2d_8">
      <g>
       <use style="stroke:#000000;stroke-width:1.5;" x="28.807094" xlink:href="#m82c4a00579" y="10.063125"/>
      </g>
     </g>
     <g id="text_7">
      <text style="font-family:Arial;font-size:8px;font-style:normal;font-weight:normal;text-anchor:end;" transform="rotate(-0, 21.807094, 12.92625)" x="21.807094" y="12.92625">1</text>
     </g>
    </g>
   </g>
   <g id="patch_34">
    <path d="M 28.807094 54.415125 
L 28.807094 10.063125 
" style="fill:none;stroke:#000000;stroke-linecap:square;stroke-linejoin:miter;stroke-width:1.5;"/>
   </g>
   <g id="patch_35">
    <path d="M 28.807094 54.415125 
L 118.087094 54.415125 
" style="fill:none;stroke:#000000;stroke-linecap:square;stroke-linejoin:miter;stroke-width:1.5;"/>
   </g>
  </g>
 </g>
 <defs>
  <clipPath id="p1cf9552569">
   <rect height="44.352" width="89.28" x="28.807094" y="10.063125"/>
  </clipPath>
 </defs>
</svg>
