<?xml version="1.0" encoding="utf-8" standalone="no"?>
<!DOCTYPE svg PUBLIC "-//W3C//DTD SVG 1.1//EN"
  "http://www.w3.org/Graphics/SVG/1.1/DTD/svg11.dtd">
<!-- Created with matplotlib (https://matplotlib.org/) -->
<svg height="73.352pt" version="1.1" viewBox="0 0 134.746468 73.352" width="134.746468pt" xmlns="http://www.w3.org/2000/svg" xmlns:xlink="http://www.w3.org/1999/xlink">
 <defs>
  <style type="text/css">
*{stroke-linecap:butt;stroke-linejoin:round;}
  </style>
 </defs>
 <g id="figure_1">
  <g id="patch_1">
   <path d="M -0 73.352 
L 134.746468 73.352 
L 134.746468 -0 
L -0 -0 
z
" style="fill:none;"/>
  </g>
  <g id="axes_1">
   <g id="patch_2">
    <path d="M 28.807094 51.552 
L 118.087094 51.552 
L 118.087094 7.2 
L 28.807094 7.2 
z
" style="fill:none;"/>
   </g>
   <g id="patch_3">
    <path clip-path="url(#pbb112214f8)" d="M 32.865276 29.376 
L 34.195827 29.376 
L 34.195827 40.247989 
L 32.865276 40.247989 
z
" style="fill:#3182bd;stroke:#3182bd;stroke-linejoin:miter;"/>
   </g>
   <g id="patch_4">
    <path clip-path="url(#pbb112214f8)" d="M 35.526379 29.376 
L 36.85693 29.376 
L 36.85693 12.916603 
L 35.526379 12.916603 
z
" style="fill:#3182bd;stroke:#3182bd;stroke-linejoin:miter;"/>
   </g>
   <g id="patch_5">
    <path clip-path="url(#pbb112214f8)" d="M 38.187481 29.376 
L 39.518033 29.376 
L 39.518033 13.655406 
L 38.187481 13.655406 
z
" style="fill:#3182bd;stroke:#3182bd;stroke-linejoin:miter;"/>
   </g>
   <g id="patch_6">
    <path clip-path="url(#pbb112214f8)" d="M 40.848584 29.376 
L 42.179136 29.376 
L 42.179136 40.984051 
L 40.848584 40.984051 
z
" style="fill:#3182bd;stroke:#3182bd;stroke-linejoin:miter;"/>
   </g>
   <g id="patch_7">
    <path clip-path="url(#pbb112214f8)" d="M 43.509687 29.376 
L 44.840238 29.376 
L 44.840238 35.312887 
L 43.509687 35.312887 
z
" style="fill:#3182bd;stroke:#3182bd;stroke-linejoin:miter;"/>
   </g>
   <g id="patch_8">
    <path clip-path="url(#pbb112214f8)" d="M 46.17079 29.376 
L 47.501341 29.376 
L 47.501341 34.024704 
L 46.17079 34.024704 
z
" style="fill:#3182bd;stroke:#3182bd;stroke-linejoin:miter;"/>
   </g>
   <g id="patch_9">
    <path clip-path="url(#pbb112214f8)" d="M 48.831893 29.376 
L 50.162444 29.376 
L 50.162444 29.78456 
L 48.831893 29.78456 
z
" style="fill:#3182bd;stroke:#3182bd;stroke-linejoin:miter;"/>
   </g>
   <g id="patch_10">
    <path clip-path="url(#pbb112214f8)" d="M 51.492996 29.376 
L 52.823547 29.376 
L 52.823547 31.001458 
L 51.492996 31.001458 
z
" style="fill:#3182bd;stroke:#3182bd;stroke-linejoin:miter;"/>
   </g>
   <g id="patch_11">
    <path clip-path="url(#pbb112214f8)" d="M 54.154098 29.376 
L 55.48465 29.376 
L 55.48465 29.419606 
L 54.154098 29.419606 
z
" style="fill:#fc8d59;stroke:#fc8d59;stroke-linejoin:miter;"/>
   </g>
   <g id="patch_12">
    <path clip-path="url(#pbb112214f8)" d="M 56.815201 29.376 
L 58.145753 29.376 
L 58.145753 29.386184 
L 56.815201 29.386184 
z
" style="fill:#fc8d59;stroke:#fc8d59;stroke-linejoin:miter;"/>
   </g>
   <g id="patch_13">
    <path clip-path="url(#pbb112214f8)" d="M 59.476304 29.376 
L 60.806855 29.376 
L 60.806855 29.279856 
L 59.476304 29.279856 
z
" style="fill:#fc8d59;stroke:#fc8d59;stroke-linejoin:miter;"/>
   </g>
   <g id="patch_14">
    <path clip-path="url(#pbb112214f8)" d="M 62.137407 29.376 
L 63.467958 29.376 
L 63.467958 29.410999 
L 62.137407 29.410999 
z
" style="fill:#fc8d59;stroke:#fc8d59;stroke-linejoin:miter;"/>
   </g>
   <g id="patch_15">
    <path clip-path="url(#pbb112214f8)" d="M 64.79851 29.376 
L 66.129061 29.376 
L 66.129061 29.361603 
L 64.79851 29.361603 
z
" style="fill:#fc8d59;stroke:#fc8d59;stroke-linejoin:miter;"/>
   </g>
   <g id="patch_16">
    <path clip-path="url(#pbb112214f8)" d="M 67.459613 29.376 
L 68.790164 29.376 
L 68.790164 29.36361 
L 67.459613 29.36361 
z
" style="fill:#fc8d59;stroke:#fc8d59;stroke-linejoin:miter;"/>
   </g>
   <g id="patch_17">
    <path clip-path="url(#pbb112214f8)" d="M 70.120715 29.376 
L 71.451267 29.376 
L 71.451267 29.399801 
L 70.120715 29.399801 
z
" style="fill:#fc8d59;stroke:#fc8d59;stroke-linejoin:miter;"/>
   </g>
   <g id="patch_18">
    <path clip-path="url(#pbb112214f8)" d="M 72.781818 29.376 
L 74.11237 29.376 
L 74.11237 29.526256 
L 72.781818 29.526256 
z
" style="fill:#fc8d59;stroke:#fc8d59;stroke-linejoin:miter;"/>
   </g>
   <g id="patch_19">
    <path clip-path="url(#pbb112214f8)" d="M 75.442921 29.376 
L 76.773472 29.376 
L 76.773472 29.591339 
L 75.442921 29.591339 
z
" style="fill:#2ca25f;stroke:#2ca25f;stroke-linejoin:miter;"/>
   </g>
   <g id="patch_20">
    <path clip-path="url(#pbb112214f8)" d="M 78.104024 29.376 
L 79.434575 29.376 
L 79.434575 29.159822 
L 78.104024 29.159822 
z
" style="fill:#2ca25f;stroke:#2ca25f;stroke-linejoin:miter;"/>
   </g>
   <g id="patch_21">
    <path clip-path="url(#pbb112214f8)" d="M 80.765127 29.376 
L 82.095678 29.376 
L 82.095678 29.40078 
L 80.765127 29.40078 
z
" style="fill:#2ca25f;stroke:#2ca25f;stroke-linejoin:miter;"/>
   </g>
   <g id="patch_22">
    <path clip-path="url(#pbb112214f8)" d="M 83.42623 29.376 
L 84.756781 29.376 
L 84.756781 29.409566 
L 83.42623 29.409566 
z
" style="fill:#2ca25f;stroke:#2ca25f;stroke-linejoin:miter;"/>
   </g>
   <g id="patch_23">
    <path clip-path="url(#pbb112214f8)" d="M 86.087332 29.376 
L 87.417884 29.376 
L 87.417884 29.408105 
L 86.087332 29.408105 
z
" style="fill:#2ca25f;stroke:#2ca25f;stroke-linejoin:miter;"/>
   </g>
   <g id="patch_24">
    <path clip-path="url(#pbb112214f8)" d="M 88.748435 29.376 
L 90.078987 29.376 
L 90.078987 29.499307 
L 88.748435 29.499307 
z
" style="fill:#2ca25f;stroke:#2ca25f;stroke-linejoin:miter;"/>
   </g>
   <g id="patch_25">
    <path clip-path="url(#pbb112214f8)" d="M 91.409538 29.376 
L 92.740089 29.376 
L 92.740089 29.482759 
L 91.409538 29.482759 
z
" style="fill:#2ca25f;stroke:#2ca25f;stroke-linejoin:miter;"/>
   </g>
   <g id="patch_26">
    <path clip-path="url(#pbb112214f8)" d="M 94.070641 29.376 
L 95.401192 29.376 
L 95.401192 29.328689 
L 94.070641 29.328689 
z
" style="fill:#2ca25f;stroke:#2ca25f;stroke-linejoin:miter;"/>
   </g>
   <g id="patch_27">
    <path clip-path="url(#pbb112214f8)" d="M 96.731744 29.376 
L 98.062295 29.376 
L 98.062295 28.961783 
L 96.731744 28.961783 
z
" style="stroke:#000000;stroke-linejoin:miter;"/>
   </g>
   <g id="patch_28">
    <path clip-path="url(#pbb112214f8)" d="M 99.392846 29.376 
L 100.723398 29.376 
L 100.723398 29.292953 
L 99.392846 29.292953 
z
" style="stroke:#000000;stroke-linejoin:miter;"/>
   </g>
   <g id="patch_29">
    <path clip-path="url(#pbb112214f8)" d="M 102.053949 29.376 
L 103.384501 29.376 
L 103.384501 29.533231 
L 102.053949 29.533231 
z
" style="stroke:#000000;stroke-linejoin:miter;"/>
   </g>
   <g id="patch_30">
    <path clip-path="url(#pbb112214f8)" d="M 104.715052 29.376 
L 106.045604 29.376 
L 106.045604 29.43249 
L 104.715052 29.43249 
z
" style="stroke:#000000;stroke-linejoin:miter;"/>
   </g>
   <g id="patch_31">
    <path clip-path="url(#pbb112214f8)" d="M 107.376155 29.376 
L 108.706706 29.376 
L 108.706706 27.717115 
L 107.376155 27.717115 
z
" style="stroke:#000000;stroke-linejoin:miter;"/>
   </g>
   <g id="patch_32">
    <path clip-path="url(#pbb112214f8)" d="M 110.037258 29.376 
L 111.367809 29.376 
L 111.367809 29.358151 
L 110.037258 29.358151 
z
" style="stroke:#000000;stroke-linejoin:miter;"/>
   </g>
   <g id="patch_33">
    <path clip-path="url(#pbb112214f8)" d="M 112.698361 29.376 
L 114.028912 29.376 
L 114.028912 29.172501 
L 112.698361 29.172501 
z
" style="stroke:#000000;stroke-linejoin:miter;"/>
   </g>
   <g id="matplotlib.axis_1">
    <g id="xtick_1">
     <g id="line2d_1">
      <defs>
       <path d="M 0 0 
L 0 3.5 
" id="mc007178b0d" style="stroke:#000000;stroke-width:1.5;"/>
      </defs>
      <g>
       <use style="stroke:#000000;stroke-width:1.5;" x="32.2" xlink:href="#mc007178b0d" y="51.552"/>
      </g>
     </g>
     <g id="text_1">
      <!-- $\;\;\;\;\;\;\;\;\;\;\;\;\;\;\mathdefault{AB/PD}$ -->
      <g transform="translate(7.2 64.27825)">
       <text>
        <tspan style="font-family:Arial;font-size:8px;font-style:regular;font-weight:regular;" x="25.916006 31.251943 36.587881 38.810537 44.146475" y="-0.171875">AB/PD</tspan>
       </text>
      </g>
     </g>
    </g>
    <g id="xtick_2">
     <g id="line2d_2">
      <g>
       <use style="stroke:#000000;stroke-width:1.5;" x="53.488823" xlink:href="#mc007178b0d" y="51.552"/>
      </g>
     </g>
     <g id="text_2">
      <!-- $\;\;\;\;\;\;\;\;\;\;\;\;\;\;\;\mathdefault{LP}$ -->
      <g transform="translate(34.688823 64.27825)">
       <text>
        <tspan style="font-family:Arial;font-size:8px;font-style:regular;font-weight:regular;" x="27.767149 32.216368" y="-0.265625">LP</tspan>
       </text>
      </g>
     </g>
    </g>
    <g id="xtick_3">
     <g id="line2d_3">
      <g>
       <use style="stroke:#000000;stroke-width:1.5;" x="74.777645" xlink:href="#mc007178b0d" y="51.552"/>
      </g>
     </g>
     <g id="text_3">
      <!-- $\;\;\;\;\;\;\;\;\;\;\;\;\;\mathdefault{PY}$ -->
      <g transform="translate(57.377645 64.27825)">
       <text>
        <tspan style="font-family:Arial;font-size:8px;font-style:regular;font-weight:regular;" x="24.064863 29.4008" y="-0.265625">PY</tspan>
       </text>
      </g>
     </g>
    </g>
    <g id="xtick_4">
     <g id="line2d_4">
      <g>
       <use style="stroke:#000000;stroke-width:1.5;" x="96.066468" xlink:href="#mc007178b0d" y="51.552"/>
      </g>
     </g>
     <g id="text_4">
      <!-- $\;\;\;\;\;\;\;\;\;\;\;\;\;\;\;\mathdefault{Synapses}$ -->
      <g transform="translate(64.586468 64.392)">
       <text>
        <tspan style="font-family:Arial;font-size:8px;font-style:regular;font-weight:regular;" x="27.767149 33.103087 37.103087 41.552305 46.001524 50.450743 54.450743 58.899962" y="-0.171875">Synapses</tspan>
       </text>
      </g>
     </g>
    </g>
    <g id="xtick_5">
     <g id="line2d_5">
      <g>
       <use style="stroke:#000000;stroke-width:1.5;" x="114.694188" xlink:href="#mc007178b0d" y="51.552"/>
      </g>
     </g>
    </g>
   </g>
   <g id="matplotlib.axis_2">
    <g id="ytick_1">
     <g id="line2d_6">
      <defs>
       <path d="M 0 0 
L -3.5 0 
" id="m2f7fde33a9" style="stroke:#000000;stroke-width:1.5;"/>
      </defs>
      <g>
       <use style="stroke:#000000;stroke-width:1.5;" x="28.807094" xlink:href="#m2f7fde33a9" y="44.16"/>
      </g>
     </g>
     <g id="text_5">
      <text style="font-family:Arial;font-size:8px;font-style:normal;font-weight:normal;text-anchor:end;" transform="rotate(-0, 21.807094, 47.023125)" x="21.807094" y="47.023125">−1</text>
     </g>
    </g>
    <g id="ytick_2">
     <g id="line2d_7">
      <g>
       <use style="stroke:#000000;stroke-width:1.5;" x="28.807094" xlink:href="#m2f7fde33a9" y="29.376"/>
      </g>
     </g>
     <g id="text_6">
      <text style="font-family:Arial;font-size:8px;font-style:normal;font-weight:normal;text-anchor:end;" transform="rotate(-0, 21.807094, 32.239125)" x="21.807094" y="32.239125">0</text>
     </g>
    </g>
    <g id="ytick_3">
     <g id="line2d_8">
      <g>
       <use style="stroke:#000000;stroke-width:1.5;" x="28.807094" xlink:href="#m2f7fde33a9" y="14.592"/>
      </g>
     </g>
     <g id="text_7">
      <text style="font-family:Arial;font-size:8px;font-style:normal;font-weight:normal;text-anchor:end;" transform="rotate(-0, 21.807094, 17.455125)" x="21.807094" y="17.455125">1</text>
     </g>
    </g>
   </g>
   <g id="patch_34">
    <path d="M 28.807094 51.552 
L 28.807094 7.2 
" style="fill:none;stroke:#000000;stroke-linecap:square;stroke-linejoin:miter;stroke-width:1.5;"/>
   </g>
   <g id="patch_35">
    <path d="M 28.807094 51.552 
L 118.087094 51.552 
" style="fill:none;stroke:#000000;stroke-linecap:square;stroke-linejoin:miter;stroke-width:1.5;"/>
   </g>
  </g>
 </g>
 <defs>
  <clipPath id="pbb112214f8">
   <rect height="44.352" width="89.28" x="28.807094" y="7.2"/>
  </clipPath>
 </defs>
</svg>
