<?xml version="1.0" encoding="utf-8" standalone="no"?>
<!DOCTYPE svg PUBLIC "-//W3C//DTD SVG 1.1//EN"
  "http://www.w3.org/Graphics/SVG/1.1/DTD/svg11.dtd">
<!-- Created with matplotlib (https://matplotlib.org/) -->
<svg height="67.9505pt" version="1.1" viewBox="0 0 150.434783 67.9505" width="150.434783pt" xmlns="http://www.w3.org/2000/svg" xmlns:xlink="http://www.w3.org/1999/xlink">
 <metadata>
  <rdf:RDF xmlns:cc="http://creativecommons.org/ns#" xmlns:dc="http://purl.org/dc/elements/1.1/" xmlns:rdf="http://www.w3.org/1999/02/22-rdf-syntax-ns#">
   <cc:Work>
    <dc:type rdf:resource="http://purl.org/dc/dcmitype/StillImage"/>
    <dc:date>2020-09-29T16:45:33.974925</dc:date>
    <dc:format>image/svg+xml</dc:format>
    <dc:creator>
     <cc:Agent>
      <dc:title>Matplotlib v3.3.2, https://matplotlib.org/</dc:title>
     </cc:Agent>
    </dc:creator>
   </cc:Work>
  </rdf:RDF>
 </metadata>
 <defs>
  <style type="text/css">*{stroke-linecap:butt;stroke-linejoin:round;}</style>
 </defs>
 <g id="figure_1">
  <g id="patch_1">
   <path d="M 0 67.9505 
L 150.434783 67.9505 
L 150.434783 -0 
L 0 -0 
z
" style="fill:none;"/>
  </g>
  <g id="axes_1">
   <g id="patch_2">
    <path d="M 30.28 46.008 
L 141.88 46.008 
L 141.88 7.2 
L 30.28 7.2 
z
" style="fill:none;"/>
   </g>
   <g id="patch_3">
    <path clip-path="url(#p37a324b610)" d="M 31.493043 30.028235 
L 33.91913 30.028235 
L 33.91913 30.09765 
L 31.493043 30.09765 
z
" style="fill:#fc8d59;stroke:#fc8d59;stroke-linejoin:miter;"/>
   </g>
   <g id="patch_4">
    <path clip-path="url(#p37a324b610)" d="M 36.345217 30.028235 
L 38.771304 30.028235 
L 38.771304 30.043578 
L 36.345217 30.043578 
z
" style="fill:#fc8d59;stroke:#fc8d59;stroke-linejoin:miter;"/>
   </g>
   <g id="patch_5">
    <path clip-path="url(#p37a324b610)" d="M 41.197391 30.028235 
L 43.623478 30.028235 
L 43.623478 29.955942 
L 41.197391 29.955942 
z
" style="fill:#fc8d59;stroke:#fc8d59;stroke-linejoin:miter;"/>
   </g>
   <g id="patch_6">
    <path clip-path="url(#p37a324b610)" d="M 46.049565 30.028235 
L 48.475652 30.028235 
L 48.475652 30.006632 
L 46.049565 30.006632 
z
" style="fill:#fc8d59;stroke:#fc8d59;stroke-linejoin:miter;"/>
   </g>
   <g id="patch_7">
    <path clip-path="url(#p37a324b610)" d="M 50.901739 30.028235 
L 53.327826 30.028235 
L 53.327826 30.003387 
L 50.901739 30.003387 
z
" style="fill:#fc8d59;stroke:#fc8d59;stroke-linejoin:miter;"/>
   </g>
   <g id="patch_8">
    <path clip-path="url(#p37a324b610)" d="M 55.753913 30.028235 
L 58.18 30.028235 
L 58.18 29.992934 
L 55.753913 29.992934 
z
" style="fill:#fc8d59;stroke:#fc8d59;stroke-linejoin:miter;"/>
   </g>
   <g id="patch_9">
    <path clip-path="url(#p37a324b610)" d="M 60.606087 30.028235 
L 63.032174 30.028235 
L 63.032174 30.057275 
L 60.606087 30.057275 
z
" style="fill:#fc8d59;stroke:#fc8d59;stroke-linejoin:miter;"/>
   </g>
   <g id="patch_10">
    <path clip-path="url(#p37a324b610)" d="M 65.458261 30.028235 
L 67.884348 30.028235 
L 67.884348 30.153953 
L 65.458261 30.153953 
z
" style="fill:#fc8d59;stroke:#fc8d59;stroke-linejoin:miter;"/>
   </g>
   <g id="patch_11">
    <path clip-path="url(#p37a324b610)" d="M 70.310435 30.028235 
L 72.736522 30.028235 
L 72.736522 30.172117 
L 70.310435 30.172117 
z
" style="fill:#2ca25f;stroke:#2ca25f;stroke-linejoin:miter;"/>
   </g>
   <g id="patch_12">
    <path clip-path="url(#p37a324b610)" d="M 75.162609 30.028235 
L 77.588696 30.028235 
L 77.588696 29.867114 
L 75.162609 29.867114 
z
" style="fill:#2ca25f;stroke:#2ca25f;stroke-linejoin:miter;"/>
   </g>
   <g id="patch_13">
    <path clip-path="url(#p37a324b610)" d="M 80.014783 30.028235 
L 82.44087 30.028235 
L 82.44087 30.074233 
L 80.014783 30.074233 
z
" style="fill:#2ca25f;stroke:#2ca25f;stroke-linejoin:miter;"/>
   </g>
   <g id="patch_14">
    <path clip-path="url(#p37a324b610)" d="M 84.866957 30.028235 
L 87.293043 30.028235 
L 87.293043 30.051992 
L 84.866957 30.051992 
z
" style="fill:#2ca25f;stroke:#2ca25f;stroke-linejoin:miter;"/>
   </g>
   <g id="patch_15">
    <path clip-path="url(#p37a324b610)" d="M 89.71913 30.028235 
L 92.145217 30.028235 
L 92.145217 30.071097 
L 89.71913 30.071097 
z
" style="fill:#2ca25f;stroke:#2ca25f;stroke-linejoin:miter;"/>
   </g>
   <g id="patch_16">
    <path clip-path="url(#p37a324b610)" d="M 94.571304 30.028235 
L 96.997391 30.028235 
L 96.997391 30.118733 
L 94.571304 30.118733 
z
" style="fill:#2ca25f;stroke:#2ca25f;stroke-linejoin:miter;"/>
   </g>
   <g id="patch_17">
    <path clip-path="url(#p37a324b610)" d="M 99.423478 30.028235 
L 101.849565 30.028235 
L 101.849565 30.121562 
L 99.423478 30.121562 
z
" style="fill:#2ca25f;stroke:#2ca25f;stroke-linejoin:miter;"/>
   </g>
   <g id="patch_18">
    <path clip-path="url(#p37a324b610)" d="M 104.275652 30.028235 
L 106.701739 30.028235 
L 106.701739 29.988111 
L 104.275652 29.988111 
z
" style="fill:#2ca25f;stroke:#2ca25f;stroke-linejoin:miter;"/>
   </g>
   <g id="patch_19">
    <path clip-path="url(#p37a324b610)" d="M 109.127826 30.028235 
L 111.553913 30.028235 
L 111.553913 29.719207 
L 109.127826 29.719207 
z
" style="stroke:#000000;stroke-linejoin:miter;"/>
   </g>
   <g id="patch_20">
    <path clip-path="url(#p37a324b610)" d="M 113.98 30.028235 
L 116.406087 30.028235 
L 116.406087 30.001877 
L 113.98 30.001877 
z
" style="stroke:#000000;stroke-linejoin:miter;"/>
   </g>
   <g id="patch_21">
    <path clip-path="url(#p37a324b610)" d="M 118.832174 30.028235 
L 121.258261 30.028235 
L 121.258261 30.191546 
L 118.832174 30.191546 
z
" style="stroke:#000000;stroke-linejoin:miter;"/>
   </g>
   <g id="patch_22">
    <path clip-path="url(#p37a324b610)" d="M 123.684348 30.028235 
L 126.110435 30.028235 
L 126.110435 30.057457 
L 123.684348 30.057457 
z
" style="stroke:#000000;stroke-linejoin:miter;"/>
   </g>
   <g id="patch_23">
    <path clip-path="url(#p37a324b610)" d="M 128.536522 30.028235 
L 130.962609 30.028235 
L 130.962609 28.616584 
L 128.536522 28.616584 
z
" style="stroke:#000000;stroke-linejoin:miter;"/>
   </g>
   <g id="patch_24">
    <path clip-path="url(#p37a324b610)" d="M 133.388696 30.028235 
L 135.814783 30.028235 
L 135.814783 30.023223 
L 133.388696 30.023223 
z
" style="stroke:#000000;stroke-linejoin:miter;"/>
   </g>
   <g id="patch_25">
    <path clip-path="url(#p37a324b610)" d="M 138.24087 30.028235 
L 140.666957 30.028235 
L 140.666957 29.908187 
L 138.24087 29.908187 
z
" style="stroke:#000000;stroke-linejoin:miter;"/>
   </g>
   <g id="matplotlib.axis_1">
    <g id="xtick_1">
     <g id="line2d_1">
      <defs>
       <path d="M 0 0 
L 0 3.5 
" id="me4c13cb210" style="stroke:#000000;stroke-width:1.5;"/>
      </defs>
      <g>
       <use style="stroke:#000000;stroke-width:1.5;" x="30.28" xlink:href="#me4c13cb210" y="46.008"/>
      </g>
     </g>
     <g id="text_1">
      <!-- $\;\;\;\;\;\;\;\;\;\;\;\;\;\;\;\;\;\mathdefault{LP}$ -->
      <g transform="translate(7.2 59.08675)">
       <text>
        <tspan style="font-family:DejaVu Sans;font-size:8px;font-style:book;font-weight:book;" x="36.800425 41.257456" y="-0.171875">LP</tspan>
       </text>
      </g>
     </g>
    </g>
    <g id="xtick_2">
     <g id="line2d_2">
      <g>
       <use style="stroke:#000000;stroke-width:1.5;" x="69.097391" xlink:href="#me4c13cb210" y="46.008"/>
      </g>
     </g>
     <g id="text_2">
      <!-- $\;\;\;\;\;\;\;\;\;\;\;\;\;\;\;\;\;\mathdefault{PY}$ -->
      <g transform="translate(45.817391 59.08675)">
       <text>
        <tspan style="font-family:DejaVu Sans;font-size:8px;font-style:book;font-weight:book;" x="36.800425 41.624643" y="-0.171875">PY</tspan>
       </text>
      </g>
     </g>
    </g>
    <g id="xtick_3">
     <g id="line2d_3">
      <g>
       <use style="stroke:#000000;stroke-width:1.5;" x="107.914783" xlink:href="#me4c13cb210" y="46.008"/>
      </g>
     </g>
     <g id="text_3">
      <!-- $\;\;\;\;\;\;\;\;\;\;\;\;\;\;\;\mathdefault{Synapses}$ -->
      <g transform="translate(72.594783 59.0705)">
       <text>
        <tspan style="font-family:DejaVu Sans;font-size:8px;font-style:book;font-weight:book;" x="32.470963 37.549088 42.283463 47.353775 52.256119 57.334244 61.502213 66.424088" y="-0.0625">Synapses</tspan>
       </text>
      </g>
     </g>
    </g>
    <g id="xtick_4">
     <g id="line2d_4">
      <g>
       <use style="stroke:#000000;stroke-width:1.5;" x="141.88" xlink:href="#me4c13cb210" y="46.008"/>
      </g>
     </g>
    </g>
   </g>
   <g id="matplotlib.axis_2"/>
   <g id="patch_26">
    <path d="M 30.28 46.008 
L 141.88 46.008 
" style="fill:none;stroke:#000000;stroke-linecap:square;stroke-linejoin:miter;stroke-width:1.5;"/>
   </g>
  </g>
 </g>
 <defs>
  <clipPath id="p37a324b610">
   <rect height="38.808" width="111.6" x="30.28" y="7.2"/>
  </clipPath>
 </defs>
</svg>
