<?xml version="1.0" encoding="utf-8" standalone="no"?>
<!DOCTYPE svg PUBLIC "-//W3C//DTD SVG 1.1//EN"
  "http://www.w3.org/Graphics/SVG/1.1/DTD/svg11.dtd">
<!-- Created with matplotlib (https://matplotlib.org/) -->
<svg height="124.6645pt" version="1.1" viewBox="0 0 147.72 124.6645" width="147.72pt" xmlns="http://www.w3.org/2000/svg" xmlns:xlink="http://www.w3.org/1999/xlink">
 <defs>
  <style type="text/css">
*{stroke-linecap:butt;stroke-linejoin:round;}
  </style>
 </defs>
 <g id="figure_1">
  <g id="patch_1">
   <path d="M 0 124.6645 
L 147.72 124.6645 
L 147.72 -0 
L 0 -0 
z
" style="fill:none;"/>
  </g>
  <g id="axes_1">
   <g id="patch_2">
    <path d="M 15 86.832 
L 126.6 86.832 
L 126.6 7.2 
L 15 7.2 
z
" style="fill:none;"/>
   </g>
   <g id="matplotlib.axis_1">
    <g id="xtick_1">
     <g id="line2d_1">
      <defs>
       <path d="M 0 0 
L 0 3.5 
" id="m495cbe6007" style="stroke:#000000;stroke-width:1.5;"/>
      </defs>
      <g>
       <use style="stroke:#000000;stroke-width:1.5;" x="15" xlink:href="#m495cbe6007" y="91.832"/>
      </g>
     </g>
     <g id="text_1">
      <!-- $\mathdefault{2.00}$ -->
      <g transform="translate(7.2 104.55825)">
       <text>
        <tspan style="font-family:Arial;font-size:8px;font-style:regular;font-weight:regular;" x="0 4.449219 6.671875 11.121094" y="-0.25">2.00</tspan>
       </text>
      </g>
     </g>
    </g>
    <g id="xtick_2">
     <g id="line2d_2">
      <g>
       <use style="stroke:#000000;stroke-width:1.5;" x="126.6" xlink:href="#m495cbe6007" y="91.832"/>
      </g>
     </g>
     <g id="text_2">
      <!-- $\mathdefault{12.00}\;\;\;$  -->
      <g transform="translate(112.68 104.55825)">
       <text>
        <tspan style="font-family:Arial;font-size:8px;font-style:regular;font-weight:regular;" x="0 4.449219 8.898438 11.121094 15.570312 25.572961" y="-0.25">12.00 </tspan>
       </text>
      </g>
     </g>
    </g>
    <g id="text_3">
     <text style="font-family:Arial;font-size:8px;font-style:normal;font-weight:normal;text-anchor:middle;" transform="rotate(-0, 70.8, 115.8745)" x="70.8" y="115.8745">LP-CaS</text>
    </g>
   </g>
   <g id="matplotlib.axis_2">
    <g id="ytick_1"/>
    <g id="ytick_2"/>
    <g id="ytick_3"/>
   </g>
   <g id="line2d_3">
    <path clip-path="url(#p8bd0614a3a)" d="M 15 79.921785 
L 19.65 79.921785 
L 24.3 79.921785 
L 28.95 79.921785 
L 33.6 79.921785 
L 38.25 79.921785 
L 42.9 79.920672 
L 47.55 76.15353 
L 52.2 14.110215 
L 56.85 77.816869 
L 61.5 79.915271 
L 66.15 79.921764 
L 70.8 79.921785 
L 75.45 79.921785 
L 80.1 79.921785 
L 84.75 79.921785 
L 89.4 79.921785 
L 94.05 79.921785 
L 98.7 79.921785 
L 103.35 79.921785 
L 108 79.921785 
L 112.65 79.921785 
L 117.3 79.921785 
L 121.95 79.921785 
L 126.6 79.921785 
" style="fill:none;stroke:#2e7fe8;stroke-linecap:square;stroke-width:1.5;"/>
   </g>
   <g id="line2d_4">
    <path clip-path="url(#p8bd0614a3a)" d="M 51.920569 83.212364 
L 51.920569 10.819636 
" style="fill:none;stroke:#8d62bc;stroke-linecap:square;stroke-width:1.5;"/>
   </g>
   <g id="line2d_5">
    <path clip-path="url(#p8bd0614a3a)" d="M 81.533501 83.212364 
L 81.533501 10.819636 
" style="fill:none;stroke:#d73789;stroke-linecap:square;stroke-width:1.5;"/>
   </g>
   <g id="patch_3">
    <path d="M 15 91.832 
L 126.6 91.832 
" style="fill:none;stroke:#000000;stroke-linecap:square;stroke-linejoin:miter;stroke-width:1.5;"/>
   </g>
  </g>
 </g>
 <defs>
  <clipPath id="p8bd0614a3a">
   <rect height="79.632" width="111.6" x="15" y="7.2"/>
  </clipPath>
 </defs>
</svg>
