<?xml version='1.0' encoding='ASCII' standalone='yes'?>
<svg xmlns="http://www.w3.org/2000/svg" xmlns:xlink="http://www.w3.org/1999/xlink" version="1.1" width="20.3cm" viewBox="0 0 20.3cm 3.7cm" height="3.7cm">
  <g>
    <g transform="translate(0.0, 11.55) scale(1) ">
      <g transform="translate(0, 0.0) scale(1) translate(0, 0) scale(1.25) "><metadata>
  <rdf:RDF xmlns:cc="http://creativecommons.org/ns#" xmlns:dc="http://purl.org/dc/elements/1.1/" xmlns:rdf="http://www.w3.org/1999/02/22-rdf-syntax-ns#">
   <cc:Work>
    <dc:type rdf:resource="http://purl.org/dc/dcmitype/StillImage"/>
    <dc:date>2021-06-28T15:10:41.117647</dc:date>
    <dc:format>image/svg+xml</dc:format>
    <dc:creator>
     <cc:Agent>
      <dc:title>Matplotlib v3.4.2, https://matplotlib.org/</dc:title>
     </cc:Agent>
    </dc:creator>
   </cc:Work>
  </rdf:RDF>
 </metadata>
 <defs>
  <style type="text/css">*{stroke-linecap:butt;stroke-linejoin:round;}</style>
 </defs>
 <g id="figure_1">
  <g id="patch_1">
   <path d="M 0 108.40375  L 165.1025 108.40375  L 165.1025 0  L 0 0  z " style="fill:none;"/>
  </g>
  <g id="axes_1">
   <g id="patch_2">
    <path d="M 46.3025 74.71875  L 157.9025 74.71875  L 157.9025 19.27875  L 46.3025 19.27875  z " style="fill:#ffffff;"/>
   </g>
   <g id="patch_3">
    <path clip-path="url(#p9807fca7a5)" d="M 51.375227 74.71875  L 53.038417 74.71875  L 53.038417 21.91875  L 51.375227 21.91875  z "/>
   </g>
   <g id="patch_4">
    <path clip-path="url(#p9807fca7a5)" d="M 54.701606 74.71875  L 56.364795 74.71875  L 56.364795 73.936428  L 54.701606 73.936428  z "/>
   </g>
   <g id="patch_5">
    <path clip-path="url(#p9807fca7a5)" d="M 58.027984 74.71875  L 59.691174 74.71875  L 59.691174 74.319847  L 58.027984 74.319847  z "/>
   </g>
   <g id="patch_6">
    <path clip-path="url(#p9807fca7a5)" d="M 61.354363 74.71875  L 63.017552 74.71875  L 63.017552 74.569168  L 61.354363 74.569168  z "/>
   </g>
   <g id="patch_7">
    <path clip-path="url(#p9807fca7a5)" d="M 64.680741 74.71875  L 66.343931 74.71875  L 66.343931 74.622203  L 64.680741 74.622203  z "/>
   </g>
   <g id="patch_8">
    <path clip-path="url(#p9807fca7a5)" d="M 68.00712 74.71875  L 69.670309 74.71875  L 69.670309 74.665725  L 68.00712 74.665725  z "/>
   </g>
   <g id="patch_9">
    <path clip-path="url(#p9807fca7a5)" d="M 71.333499 74.71875  L 72.996688 74.71875  L 72.996688 74.675112  L 71.333499 74.675112  z "/>
   </g>
   <g id="patch_10">
    <path clip-path="url(#p9807fca7a5)" d="M 74.659877 74.71875  L 76.323066 74.71875  L 76.323066 74.68222  L 74.659877 74.68222  z "/>
   </g>
   <g id="patch_11">
    <path clip-path="url(#p9807fca7a5)" d="M 77.986256 74.71875  L 79.649445 74.71875  L 79.649445 74.684463  L 77.986256 74.684463  z "/>
   </g>
   <g id="patch_12">
    <path clip-path="url(#p9807fca7a5)" d="M 81.312634 74.71875  L 82.975823 74.71875  L 82.975823 74.695  L 81.312634 74.695  z "/>
   </g>
   <g id="patch_13">
    <path clip-path="url(#p9807fca7a5)" d="M 84.639013 74.71875  L 86.302202 74.71875  L 86.302202 74.700774  L 84.639013 74.700774  z "/>
   </g>
   <g id="patch_14">
    <path clip-path="url(#p9807fca7a5)" d="M 87.965391 74.71875  L 89.62858 74.71875  L 89.62858 74.706982  L 87.965391 74.706982  z "/>
   </g>
   <g id="patch_15">
    <path clip-path="url(#p9807fca7a5)" d="M 91.29177 74.71875  L 92.954959 74.71875  L 92.954959 74.708853  L 91.29177 74.708853  z "/>
   </g>
   <g id="patch_16">
    <path clip-path="url(#p9807fca7a5)" d="M 94.618148 74.71875  L 96.281338 74.71875  L 96.281338 74.709752  L 94.618148 74.709752  z "/>
   </g>
   <g id="patch_17">
    <path clip-path="url(#p9807fca7a5)" d="M 97.944527 74.71875  L 99.607716 74.71875  L 99.607716 74.71329  L 97.944527 74.71329  z "/>
   </g>
   <g id="patch_18">
    <path clip-path="url(#p9807fca7a5)" d="M 101.270905 74.71875  L 102.934095 74.71875  L 102.934095 74.714132  L 101.270905 74.714132  z "/>
   </g>
   <g id="patch_19">
    <path clip-path="url(#p9807fca7a5)" d="M 104.597284 74.71875  L 106.260473 74.71875  L 106.260473 74.716223  L 104.597284 74.716223  z "/>
   </g>
   <g id="patch_20">
    <path clip-path="url(#p9807fca7a5)" d="M 107.923662 74.71875  L 109.586852 74.71875  L 109.586852 74.716789  L 107.923662 74.716789  z "/>
   </g>
   <g id="patch_21">
    <path clip-path="url(#p9807fca7a5)" d="M 111.250041 74.71875  L 112.91323 74.71875  L 112.91323 74.717503  L 111.250041 74.717503  z "/>
   </g>
   <g id="patch_22">
    <path clip-path="url(#p9807fca7a5)" d="M 114.57642 74.71875  L 116.239609 74.71875  L 116.239609 74.71828  L 114.57642 74.71828  z "/>
   </g>
   <g id="patch_23">
    <path clip-path="url(#p9807fca7a5)" d="M 117.902798 74.71875  L 119.565987 74.71875  L 119.565987 74.718749  L 117.902798 74.718749  z "/>
   </g>
   <g id="patch_24">
    <path clip-path="url(#p9807fca7a5)" d="M 121.229177 74.71875  L 122.892366 74.71875  L 122.892366 74.71875  L 121.229177 74.71875  z "/>
   </g>
   <g id="patch_25">
    <path clip-path="url(#p9807fca7a5)" d="M 124.555555 74.71875  L 126.218744 74.71875  L 126.218744 74.71875  L 124.555555 74.71875  z "/>
   </g>
   <g id="patch_26">
    <path clip-path="url(#p9807fca7a5)" d="M 127.881934 74.71875  L 129.545123 74.71875  L 129.545123 74.71875  L 127.881934 74.71875  z "/>
   </g>
   <g id="patch_27">
    <path clip-path="url(#p9807fca7a5)" d="M 131.208312 74.71875  L 132.871501 74.71875  L 132.871501 74.71875  L 131.208312 74.71875  z "/>
   </g>
   <g id="patch_28">
    <path clip-path="url(#p9807fca7a5)" d="M 134.534691 74.71875  L 136.19788 74.71875  L 136.19788 74.71875  L 134.534691 74.71875  z "/>
   </g>
   <g id="patch_29">
    <path clip-path="url(#p9807fca7a5)" d="M 137.861069 74.71875  L 139.524259 74.71875  L 139.524259 74.71875  L 137.861069 74.71875  z "/>
   </g>
   <g id="patch_30">
    <path clip-path="url(#p9807fca7a5)" d="M 141.187448 74.71875  L 142.850637 74.71875  L 142.850637 74.71875  L 141.187448 74.71875  z "/>
   </g>
   <g id="patch_31">
    <path clip-path="url(#p9807fca7a5)" d="M 144.513826 74.71875  L 146.177016 74.71875  L 146.177016 74.71875  L 144.513826 74.71875  z "/>
   </g>
   <g id="patch_32">
    <path clip-path="url(#p9807fca7a5)" d="M 147.840205 74.71875  L 149.503394 74.71875  L 149.503394 74.71875  L 147.840205 74.71875  z "/>
   </g>
   <g id="patch_33">
    <path clip-path="url(#p9807fca7a5)" d="M 151.166583 74.71875  L 152.829773 74.71875  L 152.829773 74.718748  L 151.166583 74.718748  z "/>
   </g>
   <g id="matplotlib.axis_1">
    <g id="xtick_1">
     <g id="line2d_1">
      <defs>
       <path d="M 0 0  L 0 3.5  " id="m2b76921e6c" style="stroke:#000000;stroke-width:1.5;"/>
      </defs>
      <g>
       <use style="stroke:#000000;stroke-width:1.5;" x="52.206822" xlink:href="#m2b76921e6c" y="74.71875"/>
      </g>
     </g>
     <g id="text_1">
      <text style="font-family:DejaVu Sans;font-size:8px;font-stretch:normal;font-style:normal;font-weight:normal;text-anchor:middle;" transform="rotate(-0, 52.206822, 87.7975)" x="52.206822" y="87.7975">0</text>
     </g>
    </g>
    <g id="xtick_2">
     <g id="line2d_2">
      <g>
       <use style="stroke:#000000;stroke-width:1.5;" x="85.470607" xlink:href="#m2b76921e6c" y="74.71875"/>
      </g>
     </g>
     <g id="text_2">
      <text style="font-family:DejaVu Sans;font-size:8px;font-stretch:normal;font-style:normal;font-weight:normal;text-anchor:middle;" transform="rotate(-0, 85.470607, 87.7975)" x="85.470607" y="87.7975">10</text>
     </g>
    </g>
    <g id="xtick_3">
     <g id="line2d_3">
      <g>
       <use style="stroke:#000000;stroke-width:1.5;" x="118.734393" xlink:href="#m2b76921e6c" y="74.71875"/>
      </g>
     </g>
     <g id="text_3">
      <text style="font-family:DejaVu Sans;font-size:8px;font-stretch:normal;font-style:normal;font-weight:normal;text-anchor:middle;" transform="rotate(-0, 118.734393, 87.7975)" x="118.734393" y="87.7975">20</text>
     </g>
    </g>
    <g id="xtick_4">
     <g id="line2d_4">
      <g>
       <use style="stroke:#000000;stroke-width:1.5;" x="151.998178" xlink:href="#m2b76921e6c" y="74.71875"/>
      </g>
     </g>
     <g id="text_4">
      <text style="font-family:DejaVu Sans;font-size:8px;font-stretch:normal;font-style:normal;font-weight:normal;text-anchor:middle;" transform="rotate(-0, 151.998178, 87.7975)" x="151.998178" y="87.7975">30</text>
     </g>
    </g>
    <g id="text_5">
     <text style="font-family:DejaVu Sans;font-size:8px;font-stretch:normal;font-style:normal;font-weight:normal;text-anchor:middle;" transform="rotate(-0, 102.1025, 99.54)" x="102.1025" y="99.54">Dimension</text>
    </g>
   </g>
   <g id="matplotlib.axis_2">
    <g id="ytick_1">
     <g id="line2d_5">
      <defs>
       <path d="M 0 0  L -3.5 0  " id="ma11c0532a4" style="stroke:#000000;stroke-width:1.5;"/>
      </defs>
      <g>
       <use style="stroke:#000000;stroke-width:1.5;" x="46.3025" xlink:href="#ma11c0532a4" y="74.71875"/>
      </g>
     </g>
     <g id="text_6">
      <text style="font-family:DejaVu Sans;font-size:8px;font-stretch:normal;font-style:normal;font-weight:normal;text-anchor:end;" transform="rotate(-0, 39.3025, 77.758125)" x="39.3025" y="77.758125">0</text>
     </g>
    </g>
    <g id="ytick_2">
     <g id="line2d_6">
      <g>
       <use style="stroke:#000000;stroke-width:1.5;" x="46.3025" xlink:href="#ma11c0532a4" y="49.969729"/>
      </g>
     </g>
     <g id="text_7">
      <text style="font-family:DejaVu Sans;font-size:8px;font-stretch:normal;font-style:normal;font-weight:normal;text-anchor:end;" transform="rotate(-0, 39.3025, 53.009104)" x="39.3025" y="53.009104">1000</text>
     </g>
    </g>
    <g id="ytick_3">
     <g id="line2d_7">
      <g>
       <use style="stroke:#000000;stroke-width:1.5;" x="46.3025" xlink:href="#ma11c0532a4" y="25.220708"/>
      </g>
     </g>
     <g id="text_8">
      <text style="font-family:DejaVu Sans;font-size:8px;font-stretch:normal;font-style:normal;font-weight:normal;text-anchor:end;" transform="rotate(-0, 39.3025, 28.260083)" x="39.3025" y="28.260083">2000</text>
     </g>
    </g>
    <g id="text_9">
     <text style="font-family:DejaVu Sans;font-size:8px;font-stretch:normal;font-style:normal;font-weight:normal;text-anchor:middle;" transform="rotate(-90, 13.27875, 46.99875)" x="13.27875" y="46.99875">log(E.-value)</text>
    </g>
   </g>
   <g id="patch_34">
    <path d="M 46.3025 74.71875  L 46.3025 19.27875  " style="fill:none;stroke:#000000;stroke-linecap:square;stroke-linejoin:miter;stroke-width:1.5;"/>
   </g>
   <g id="patch_35">
    <path d="M 46.3025 74.71875  L 157.9025 74.71875  " style="fill:none;stroke:#000000;stroke-linecap:square;stroke-linejoin:miter;stroke-width:1.5;"/>
   </g>
   <g id="text_10">
    <text style="font-family:DejaVu Sans;font-size:8px;font-stretch:normal;font-style:normal;font-weight:normal;text-anchor:middle;" transform="rotate(-0, 102.1025, 13.27875)" x="102.1025" y="13.27875">Total energy</text>
   </g>
  </g>
 </g>
 <defs>
  <clipPath id="p9807fca7a5">
   <rect height="55.44" width="111.6" x="46.3025" y="19.27875"/>
  </clipPath>
 </defs>
</g>
    </g>
    <g transform="translate(220.0, 0.0) scale(1) ">
      <g transform="translate(0, 0.0) scale(1) translate(0, 0) scale(1.25) "><metadata>
  <rdf:RDF xmlns:cc="http://creativecommons.org/ns#" xmlns:dc="http://purl.org/dc/elements/1.1/" xmlns:rdf="http://www.w3.org/1999/02/22-rdf-syntax-ns#">
   <cc:Work>
    <dc:type rdf:resource="http://purl.org/dc/dcmitype/StillImage"/>
    <dc:date>2021-06-28T15:11:14.405898</dc:date>
    <dc:format>image/svg+xml</dc:format>
    <dc:creator>
     <cc:Agent>
      <dc:title>Matplotlib v3.4.2, https://matplotlib.org/</dc:title>
     </cc:Agent>
    </dc:creator>
   </cc:Work>
  </rdf:RDF>
 </metadata>
 <defs>
  <style type="text/css">*{stroke-linecap:butt;stroke-linejoin:round;}</style>
 </defs>
 <g id="figure_1">
  <g id="patch_1">
   <path d="M 0 117.362  L 151.395 117.362  L 151.395 0  L 0 0  z " style="fill:none;"/>
  </g>
  <g id="axes_1">
   <g id="patch_2">
    <path d="M 43.755 83.677  L 144.195 83.677  L 144.195 28.237  L 43.755 28.237  z " style="fill:#ffffff;"/>
   </g>
   <g id="patch_3">
    <path clip-path="url(#p4f186bb834)" d="M 48.320455 83.677  L 49.817325 83.677  L 49.817325 30.877  L 48.320455 30.877  z "/>
   </g>
   <g id="patch_4">
    <path clip-path="url(#p4f186bb834)" d="M 51.314195 83.677  L 52.811066 83.677  L 52.811066 79.653766  L 51.314195 79.653766  z "/>
   </g>
   <g id="patch_5">
    <path clip-path="url(#p4f186bb834)" d="M 54.307936 83.677  L 55.804806 83.677  L 55.804806 83.140559  L 54.307936 83.140559  z "/>
   </g>
   <g id="patch_6">
    <path clip-path="url(#p4f186bb834)" d="M 57.301677 83.677  L 58.798547 83.677  L 58.798547 83.333514  L 57.301677 83.333514  z "/>
   </g>
   <g id="patch_7">
    <path clip-path="url(#p4f186bb834)" d="M 60.295417 83.677  L 61.792288 83.677  L 61.792288 83.577666  L 60.295417 83.577666  z "/>
   </g>
   <g id="patch_8">
    <path clip-path="url(#p4f186bb834)" d="M 63.289158 83.677  L 64.786028 83.677  L 64.786028 83.616078  L 63.289158 83.616078  z "/>
   </g>
   <g id="patch_9">
    <path clip-path="url(#p4f186bb834)" d="M 66.282899 83.677  L 67.779769 83.677  L 67.779769 83.639125  L 66.282899 83.639125  z "/>
   </g>
   <g id="patch_10">
    <path clip-path="url(#p4f186bb834)" d="M 69.276639 83.677  L 70.77351 83.677  L 70.77351 83.650935  L 69.276639 83.650935  z "/>
   </g>
   <g id="patch_11">
    <path clip-path="url(#p4f186bb834)" d="M 72.27038 83.677  L 73.76725 83.677  L 73.76725 83.656362  L 72.27038 83.656362  z "/>
   </g>
   <g id="patch_12">
    <path clip-path="url(#p4f186bb834)" d="M 75.264121 83.677  L 76.760991 83.677  L 76.760991 83.659938  L 75.264121 83.659938  z "/>
   </g>
   <g id="patch_13">
    <path clip-path="url(#p4f186bb834)" d="M 78.257861 83.677  L 79.754732 83.677  L 79.754732 83.663  L 78.257861 83.663  z "/>
   </g>
   <g id="patch_14">
    <path clip-path="url(#p4f186bb834)" d="M 81.251602 83.677  L 82.748472 83.677  L 82.748472 83.666976  L 81.251602 83.666976  z "/>
   </g>
   <g id="patch_15">
    <path clip-path="url(#p4f186bb834)" d="M 84.245343 83.677  L 85.742213 83.677  L 85.742213 83.671064  L 84.245343 83.671064  z "/>
   </g>
   <g id="patch_16">
    <path clip-path="url(#p4f186bb834)" d="M 87.239083 83.677  L 88.735954 83.677  L 88.735954 83.671942  L 87.239083 83.671942  z "/>
   </g>
   <g id="patch_17">
    <path clip-path="url(#p4f186bb834)" d="M 90.232824 83.677  L 91.729694 83.677  L 91.729694 83.673656  L 90.232824 83.673656  z "/>
   </g>
   <g id="patch_18">
    <path clip-path="url(#p4f186bb834)" d="M 93.226565 83.677  L 94.723435 83.677  L 94.723435 83.674283  L 93.226565 83.674283  z "/>
   </g>
   <g id="patch_19">
    <path clip-path="url(#p4f186bb834)" d="M 96.220306 83.677  L 97.717176 83.677  L 97.717176 83.675224  L 96.220306 83.675224  z "/>
   </g>
   <g id="patch_20">
    <path clip-path="url(#p4f186bb834)" d="M 99.214046 83.677  L 100.710917 83.677  L 100.710917 83.675448  L 99.214046 83.675448  z "/>
   </g>
   <g id="patch_21">
    <path clip-path="url(#p4f186bb834)" d="M 102.207787 83.677  L 103.704657 83.677  L 103.704657 83.676445  L 102.207787 83.676445  z "/>
   </g>
   <g id="patch_22">
    <path clip-path="url(#p4f186bb834)" d="M 105.201528 83.677  L 106.698398 83.677  L 106.698398 83.676792  L 105.201528 83.676792  z "/>
   </g>
   <g id="patch_23">
    <path clip-path="url(#p4f186bb834)" d="M 108.195268 83.677  L 109.692139 83.677  L 109.692139 83.677  L 108.195268 83.677  z "/>
   </g>
   <g id="patch_24">
    <path clip-path="url(#p4f186bb834)" d="M 111.189009 83.677  L 112.685879 83.677  L 112.685879 83.677  L 111.189009 83.677  z "/>
   </g>
   <g id="patch_25">
    <path clip-path="url(#p4f186bb834)" d="M 114.18275 83.677  L 115.67962 83.677  L 115.67962 83.677  L 114.18275 83.677  z "/>
   </g>
   <g id="patch_26">
    <path clip-path="url(#p4f186bb834)" d="M 117.17649 83.677  L 118.673361 83.677  L 118.673361 83.677  L 117.17649 83.677  z "/>
   </g>
   <g id="patch_27">
    <path clip-path="url(#p4f186bb834)" d="M 120.170231 83.677  L 121.667101 83.677  L 121.667101 83.677  L 120.170231 83.677  z "/>
   </g>
   <g id="patch_28">
    <path clip-path="url(#p4f186bb834)" d="M 123.163972 83.677  L 124.660842 83.677  L 124.660842 83.677  L 123.163972 83.677  z "/>
   </g>
   <g id="patch_29">
    <path clip-path="url(#p4f186bb834)" d="M 126.157712 83.677  L 127.654583 83.677  L 127.654583 83.677  L 126.157712 83.677  z "/>
   </g>
   <g id="patch_30">
    <path clip-path="url(#p4f186bb834)" d="M 129.151453 83.677  L 130.648323 83.677  L 130.648323 83.677  L 129.151453 83.677  z "/>
   </g>
   <g id="patch_31">
    <path clip-path="url(#p4f186bb834)" d="M 132.145194 83.677  L 133.642064 83.677  L 133.642064 83.677  L 132.145194 83.677  z "/>
   </g>
   <g id="patch_32">
    <path clip-path="url(#p4f186bb834)" d="M 135.138934 83.677  L 136.635805 83.677  L 136.635805 83.677  L 135.138934 83.677  z "/>
   </g>
   <g id="patch_33">
    <path clip-path="url(#p4f186bb834)" d="M 138.132675 83.677  L 139.629545 83.677  L 139.629545 83.677  L 138.132675 83.677  z "/>
   </g>
   <g id="matplotlib.axis_1">
    <g id="xtick_1">
     <g id="line2d_1">
      <defs>
       <path d="M 0 0  L 0 3.5  " id="m8920caf612" style="stroke:#000000;stroke-width:1.5;"/>
      </defs>
      <g>
       <use style="stroke:#000000;stroke-width:1.5;" x="49.06889" xlink:href="#m8920caf612" y="83.677"/>
      </g>
     </g>
     <g id="text_1">
      <text style="font-family:DejaVu Sans;font-size:8px;font-stretch:normal;font-style:normal;font-weight:normal;text-anchor:middle;" transform="rotate(-0, 49.06889, 96.75575)" x="49.06889" y="96.75575">0</text>
     </g>
    </g>
    <g id="xtick_2">
     <g id="line2d_2">
      <g>
       <use style="stroke:#000000;stroke-width:1.5;" x="79.006297" xlink:href="#m8920caf612" y="83.677"/>
      </g>
     </g>
     <g id="text_2">
      <text style="font-family:DejaVu Sans;font-size:8px;font-stretch:normal;font-style:normal;font-weight:normal;text-anchor:middle;" transform="rotate(-0, 79.006297, 96.75575)" x="79.006297" y="96.75575">10</text>
     </g>
    </g>
    <g id="xtick_3">
     <g id="line2d_3">
      <g>
       <use style="stroke:#000000;stroke-width:1.5;" x="108.943703" xlink:href="#m8920caf612" y="83.677"/>
      </g>
     </g>
     <g id="text_3">
      <text style="font-family:DejaVu Sans;font-size:8px;font-stretch:normal;font-style:normal;font-weight:normal;text-anchor:middle;" transform="rotate(-0, 108.943703, 96.75575)" x="108.943703" y="96.75575">20</text>
     </g>
    </g>
    <g id="xtick_4">
     <g id="line2d_4">
      <g>
       <use style="stroke:#000000;stroke-width:1.5;" x="138.88111" xlink:href="#m8920caf612" y="83.677"/>
      </g>
     </g>
     <g id="text_4">
      <text style="font-family:DejaVu Sans;font-size:8px;font-stretch:normal;font-style:normal;font-weight:normal;text-anchor:middle;" transform="rotate(-0, 138.88111, 96.75575)" x="138.88111" y="96.75575">30</text>
     </g>
    </g>
    <g id="text_5">
     <text style="font-family:DejaVu Sans;font-size:8px;font-stretch:normal;font-style:normal;font-weight:normal;text-anchor:middle;" transform="rotate(-0, 93.975, 108.49825)" x="93.975" y="108.49825">Dimension</text>
    </g>
   </g>
   <g id="matplotlib.axis_2">
    <g id="ytick_1">
     <g id="line2d_5">
      <defs>
       <path d="M 0 0  L -3.5 0  " id="m18c80f375b" style="stroke:#000000;stroke-width:1.5;"/>
      </defs>
      <g>
       <use style="stroke:#000000;stroke-width:1.5;" x="43.755" xlink:href="#m18c80f375b" y="83.677"/>
      </g>
     </g>
     <g id="text_6">
      <text style="font-family:DejaVu Sans;font-size:8px;font-stretch:normal;font-style:normal;font-weight:normal;text-anchor:end;" transform="rotate(-0, 36.755, 86.716375)" x="36.755" y="86.716375">0.00</text>
     </g>
    </g>
    <g id="ytick_2">
     <g id="line2d_6">
      <g>
       <use style="stroke:#000000;stroke-width:1.5;" x="43.755" xlink:href="#m18c80f375b" y="51.943624"/>
      </g>
     </g>
     <g id="text_7">
      <text style="font-family:DejaVu Sans;font-size:8px;font-stretch:normal;font-style:normal;font-weight:normal;text-anchor:end;" transform="rotate(-0, 36.755, 54.982999)" x="36.755" y="54.982999">0.02</text>
     </g>
    </g>
    <g id="text_8">
     <text style="font-family:DejaVu Sans;font-size:8px;font-stretch:normal;font-style:normal;font-weight:normal;text-anchor:middle;" transform="rotate(-90, 13.27875, 55.957)" x="13.27875" y="55.957">log(E.-value)</text>
    </g>
   </g>
   <g id="patch_34">
    <path d="M 43.755 83.677  L 43.755 28.237  " style="fill:none;stroke:#000000;stroke-linecap:square;stroke-linejoin:miter;stroke-width:1.5;"/>
   </g>
   <g id="patch_35">
    <path d="M 43.755 83.677  L 144.195 83.677  " style="fill:none;stroke:#000000;stroke-linecap:square;stroke-linejoin:miter;stroke-width:1.5;"/>
   </g>
   <g id="text_9">
    <text style="font-family:DejaVu Sans;font-size:8px;font-stretch:normal;font-style:normal;font-weight:normal;" transform="translate(77.190625 13.27875)">E / spike</text>
    <text style="font-family:DejaVu Sans;font-size:8px;font-stretch:normal;font-style:normal;font-weight:normal;" transform="translate(78.53375 22.237)">(AB/PD)</text>
   </g>
  </g>
 </g>
 <defs>
  <clipPath id="p4f186bb834">
   <rect height="55.44" width="100.44" x="43.755" y="28.237"/>
  </clipPath>
 </defs>
</g>
    </g>
    <g transform="translate(440.0, 0.0) scale(1) ">
      <g transform="translate(0, 0.0) scale(1) translate(0, 0) scale(1.25) "><metadata>
  <rdf:RDF xmlns:cc="http://creativecommons.org/ns#" xmlns:dc="http://purl.org/dc/elements/1.1/" xmlns:rdf="http://www.w3.org/1999/02/22-rdf-syntax-ns#">
   <cc:Work>
    <dc:type rdf:resource="http://purl.org/dc/dcmitype/StillImage"/>
    <dc:date>2021-06-28T15:11:40.589993</dc:date>
    <dc:format>image/svg+xml</dc:format>
    <dc:creator>
     <cc:Agent>
      <dc:title>Matplotlib v3.4.2, https://matplotlib.org/</dc:title>
     </cc:Agent>
    </dc:creator>
   </cc:Work>
  </rdf:RDF>
 </metadata>
 <defs>
  <style type="text/css">*{stroke-linecap:butt;stroke-linejoin:round;}</style>
 </defs>
 <g id="figure_1">
  <g id="patch_1">
   <path d="M 0 117.362  L 138.6725 117.362  L 138.6725 0  L 0 0  z " style="fill:none;"/>
  </g>
  <g id="axes_1">
   <g id="patch_2">
    <path d="M 31.0325 83.677  L 131.4725 83.677  L 131.4725 28.237  L 31.0325 28.237  z " style="fill:#ffffff;"/>
   </g>
   <g id="patch_3">
    <path clip-path="url(#p9b91bd3f11)" d="M 35.597955 83.677  L 37.094825 83.677  L 37.094825 30.877  L 35.597955 30.877  z "/>
   </g>
   <g id="patch_4">
    <path clip-path="url(#p9b91bd3f11)" d="M 38.591695 83.677  L 40.088566 83.677  L 40.088566 81.755278  L 38.591695 81.755278  z "/>
   </g>
   <g id="patch_5">
    <path clip-path="url(#p9b91bd3f11)" d="M 41.585436 83.677  L 43.082306 83.677  L 43.082306 83.154181  L 41.585436 83.154181  z "/>
   </g>
   <g id="patch_6">
    <path clip-path="url(#p9b91bd3f11)" d="M 44.579177 83.677  L 46.076047 83.677  L 46.076047 83.520923  L 44.579177 83.520923  z "/>
   </g>
   <g id="patch_7">
    <path clip-path="url(#p9b91bd3f11)" d="M 47.572917 83.677  L 49.069788 83.677  L 49.069788 83.543578  L 47.572917 83.543578  z "/>
   </g>
   <g id="patch_8">
    <path clip-path="url(#p9b91bd3f11)" d="M 50.566658 83.677  L 52.063528 83.677  L 52.063528 83.587982  L 50.566658 83.587982  z "/>
   </g>
   <g id="patch_9">
    <path clip-path="url(#p9b91bd3f11)" d="M 53.560399 83.677  L 55.057269 83.677  L 55.057269 83.607927  L 53.560399 83.607927  z "/>
   </g>
   <g id="patch_10">
    <path clip-path="url(#p9b91bd3f11)" d="M 56.554139 83.677  L 58.05101 83.677  L 58.05101 83.626933  L 56.554139 83.626933  z "/>
   </g>
   <g id="patch_11">
    <path clip-path="url(#p9b91bd3f11)" d="M 59.54788 83.677  L 61.04475 83.677  L 61.04475 83.64635  L 59.54788 83.64635  z "/>
   </g>
   <g id="patch_12">
    <path clip-path="url(#p9b91bd3f11)" d="M 62.541621 83.677  L 64.038491 83.677  L 64.038491 83.653534  L 62.541621 83.653534  z "/>
   </g>
   <g id="patch_13">
    <path clip-path="url(#p9b91bd3f11)" d="M 65.535361 83.677  L 67.032232 83.677  L 67.032232 83.660799  L 65.535361 83.660799  z "/>
   </g>
   <g id="patch_14">
    <path clip-path="url(#p9b91bd3f11)" d="M 68.529102 83.677  L 70.025972 83.677  L 70.025972 83.663694  L 68.529102 83.663694  z "/>
   </g>
   <g id="patch_15">
    <path clip-path="url(#p9b91bd3f11)" d="M 71.522843 83.677  L 73.019713 83.677  L 73.019713 83.66663  L 71.522843 83.66663  z "/>
   </g>
   <g id="patch_16">
    <path clip-path="url(#p9b91bd3f11)" d="M 74.516583 83.677  L 76.013454 83.677  L 76.013454 83.66863  L 74.516583 83.66863  z "/>
   </g>
   <g id="patch_17">
    <path clip-path="url(#p9b91bd3f11)" d="M 77.510324 83.677  L 79.007194 83.677  L 79.007194 83.672252  L 77.510324 83.672252  z "/>
   </g>
   <g id="patch_18">
    <path clip-path="url(#p9b91bd3f11)" d="M 80.504065 83.677  L 82.000935 83.677  L 82.000935 83.673408  L 80.504065 83.673408  z "/>
   </g>
   <g id="patch_19">
    <path clip-path="url(#p9b91bd3f11)" d="M 83.497806 83.677  L 84.994676 83.677  L 84.994676 83.67439  L 83.497806 83.67439  z "/>
   </g>
   <g id="patch_20">
    <path clip-path="url(#p9b91bd3f11)" d="M 86.491546 83.677  L 87.988417 83.677  L 87.988417 83.675926  L 86.491546 83.675926  z "/>
   </g>
   <g id="patch_21">
    <path clip-path="url(#p9b91bd3f11)" d="M 89.485287 83.677  L 90.982157 83.677  L 90.982157 83.676064  L 89.485287 83.676064  z "/>
   </g>
   <g id="patch_22">
    <path clip-path="url(#p9b91bd3f11)" d="M 92.479028 83.677  L 93.975898 83.677  L 93.975898 83.676304  L 92.479028 83.676304  z "/>
   </g>
   <g id="patch_23">
    <path clip-path="url(#p9b91bd3f11)" d="M 95.472768 83.677  L 96.969639 83.677  L 96.969639 83.677  L 95.472768 83.677  z "/>
   </g>
   <g id="patch_24">
    <path clip-path="url(#p9b91bd3f11)" d="M 98.466509 83.677  L 99.963379 83.677  L 99.963379 83.677  L 98.466509 83.677  z "/>
   </g>
   <g id="patch_25">
    <path clip-path="url(#p9b91bd3f11)" d="M 101.46025 83.677  L 102.95712 83.677  L 102.95712 83.677  L 101.46025 83.677  z "/>
   </g>
   <g id="patch_26">
    <path clip-path="url(#p9b91bd3f11)" d="M 104.45399 83.677  L 105.950861 83.677  L 105.950861 83.677  L 104.45399 83.677  z "/>
   </g>
   <g id="patch_27">
    <path clip-path="url(#p9b91bd3f11)" d="M 107.447731 83.677  L 108.944601 83.677  L 108.944601 83.677  L 107.447731 83.677  z "/>
   </g>
   <g id="patch_28">
    <path clip-path="url(#p9b91bd3f11)" d="M 110.441472 83.677  L 111.938342 83.677  L 111.938342 83.677  L 110.441472 83.677  z "/>
   </g>
   <g id="patch_29">
    <path clip-path="url(#p9b91bd3f11)" d="M 113.435212 83.677  L 114.932083 83.677  L 114.932083 83.677  L 113.435212 83.677  z "/>
   </g>
   <g id="patch_30">
    <path clip-path="url(#p9b91bd3f11)" d="M 116.428953 83.677  L 117.925823 83.677  L 117.925823 83.677  L 116.428953 83.677  z "/>
   </g>
   <g id="patch_31">
    <path clip-path="url(#p9b91bd3f11)" d="M 119.422694 83.677  L 120.919564 83.677  L 120.919564 83.677  L 119.422694 83.677  z "/>
   </g>
   <g id="patch_32">
    <path clip-path="url(#p9b91bd3f11)" d="M 122.416434 83.677  L 123.913305 83.677  L 123.913305 83.677  L 122.416434 83.677  z "/>
   </g>
   <g id="patch_33">
    <path clip-path="url(#p9b91bd3f11)" d="M 125.410175 83.677  L 126.907045 83.677  L 126.907045 83.677  L 125.410175 83.677  z "/>
   </g>
   <g id="matplotlib.axis_1">
    <g id="xtick_1">
     <g id="line2d_1">
      <defs>
       <path d="M 0 0  L 0 3.5  " id="m63ae0cb73e" style="stroke:#000000;stroke-width:1.5;"/>
      </defs>
      <g>
       <use style="stroke:#000000;stroke-width:1.5;" x="36.34639" xlink:href="#m63ae0cb73e" y="83.677"/>
      </g>
     </g>
     <g id="text_1">
      <text style="font-family:DejaVu Sans;font-size:8px;font-stretch:normal;font-style:normal;font-weight:normal;text-anchor:middle;" transform="rotate(-0, 36.34639, 96.75575)" x="36.34639" y="96.75575">0</text>
     </g>
    </g>
    <g id="xtick_2">
     <g id="line2d_2">
      <g>
       <use style="stroke:#000000;stroke-width:1.5;" x="66.283797" xlink:href="#m63ae0cb73e" y="83.677"/>
      </g>
     </g>
     <g id="text_2">
      <text style="font-family:DejaVu Sans;font-size:8px;font-stretch:normal;font-style:normal;font-weight:normal;text-anchor:middle;" transform="rotate(-0, 66.283797, 96.75575)" x="66.283797" y="96.75575">10</text>
     </g>
    </g>
    <g id="xtick_3">
     <g id="line2d_3">
      <g>
       <use style="stroke:#000000;stroke-width:1.5;" x="96.221203" xlink:href="#m63ae0cb73e" y="83.677"/>
      </g>
     </g>
     <g id="text_3">
      <text style="font-family:DejaVu Sans;font-size:8px;font-stretch:normal;font-style:normal;font-weight:normal;text-anchor:middle;" transform="rotate(-0, 96.221203, 96.75575)" x="96.221203" y="96.75575">20</text>
     </g>
    </g>
    <g id="xtick_4">
     <g id="line2d_4">
      <g>
       <use style="stroke:#000000;stroke-width:1.5;" x="126.15861" xlink:href="#m63ae0cb73e" y="83.677"/>
      </g>
     </g>
     <g id="text_4">
      <text style="font-family:DejaVu Sans;font-size:8px;font-stretch:normal;font-style:normal;font-weight:normal;text-anchor:middle;" transform="rotate(-0, 126.15861, 96.75575)" x="126.15861" y="96.75575">30</text>
     </g>
    </g>
    <g id="text_5">
     <text style="font-family:DejaVu Sans;font-size:8px;font-stretch:normal;font-style:normal;font-weight:normal;text-anchor:middle;" transform="rotate(-0, 81.2525, 108.49825)" x="81.2525" y="108.49825">Dimension</text>
    </g>
   </g>
   <g id="matplotlib.axis_2">
    <g id="ytick_1">
     <g id="line2d_5">
      <defs>
       <path d="M 0 0  L -3.5 0  " id="me6684375d9" style="stroke:#000000;stroke-width:1.5;"/>
      </defs>
      <g>
       <use style="stroke:#000000;stroke-width:1.5;" x="31.0325" xlink:href="#me6684375d9" y="83.677"/>
      </g>
     </g>
     <g id="text_6">
      <text style="font-family:DejaVu Sans;font-size:8px;font-stretch:normal;font-style:normal;font-weight:normal;text-anchor:end;" transform="rotate(-0, 24.0325, 86.716375)" x="24.0325" y="86.716375">0</text>
     </g>
    </g>
    <g id="ytick_2">
     <g id="line2d_6">
      <g>
       <use style="stroke:#000000;stroke-width:1.5;" x="31.0325" xlink:href="#me6684375d9" y="55.315027"/>
      </g>
     </g>
     <g id="text_7">
      <text style="font-family:DejaVu Sans;font-size:8px;font-stretch:normal;font-style:normal;font-weight:normal;text-anchor:end;" transform="rotate(-0, 24.0325, 58.354402)" x="24.0325" y="58.354402">2</text>
     </g>
    </g>
    <g id="text_8">
     <text style="font-family:DejaVu Sans;font-size:8px;font-stretch:normal;font-style:normal;font-weight:normal;text-anchor:middle;" transform="rotate(-90, 13.27875, 55.957)" x="13.27875" y="55.957">log(E.-value)</text>
    </g>
    <g id="text_9">
     <text style="font-family:DejaVu Sans;font-size:8px;font-stretch:normal;font-style:normal;font-weight:normal;text-anchor:start;" transform="rotate(-0, 31.0325, 25.237)" x="31.0325" y="25.237">1e&#8722;5</text>
    </g>
   </g>
   <g id="patch_34">
    <path d="M 31.0325 83.677  L 31.0325 28.237  " style="fill:none;stroke:#000000;stroke-linecap:square;stroke-linejoin:miter;stroke-width:1.5;"/>
   </g>
   <g id="patch_35">
    <path d="M 31.0325 83.677  L 131.4725 83.677  " style="fill:none;stroke:#000000;stroke-linecap:square;stroke-linejoin:miter;stroke-width:1.5;"/>
   </g>
   <g id="text_10">
    <text style="font-family:DejaVu Sans;font-size:8px;font-stretch:normal;font-style:normal;font-weight:normal;" transform="translate(48.788125 13.27875)">Spikes per burst</text>
    <text style="font-family:DejaVu Sans;font-size:8px;font-stretch:normal;font-style:normal;font-weight:normal;" transform="translate(65.81125 22.237)">(AB/PD)</text>
   </g>
  </g>
 </g>
 <defs>
  <clipPath id="p9b91bd3f11">
   <rect height="55.44" width="100.44" x="31.0325" y="28.237"/>
  </clipPath>
 </defs>
</g>
    </g>
  </g>
</svg>
