<?xml version="1.0" encoding="utf-8" standalone="no"?>
<!DOCTYPE svg PUBLIC "-//W3C//DTD SVG 1.1//EN"
  "http://www.w3.org/Graphics/SVG/1.1/DTD/svg11.dtd">
<!-- Created with matplotlib (https://matplotlib.org/) -->
<svg height="87.467375pt" version="1.1" viewBox="0 0 211.84625 87.467375" width="211.84625pt" xmlns="http://www.w3.org/2000/svg" xmlns:xlink="http://www.w3.org/1999/xlink">
 <metadata>
  <rdf:RDF xmlns:cc="http://creativecommons.org/ns#" xmlns:dc="http://purl.org/dc/elements/1.1/" xmlns:rdf="http://www.w3.org/1999/02/22-rdf-syntax-ns#">
   <cc:Work>
    <dc:type rdf:resource="http://purl.org/dc/dcmitype/StillImage"/>
    <dc:date>2021-01-26T17:20:24.056390</dc:date>
    <dc:format>image/svg+xml</dc:format>
    <dc:creator>
     <cc:Agent>
      <dc:title>Matplotlib v3.3.2, https://matplotlib.org/</dc:title>
     </cc:Agent>
    </dc:creator>
   </cc:Work>
  </rdf:RDF>
 </metadata>
 <defs>
  <style type="text/css">*{stroke-linecap:butt;stroke-linejoin:round;}</style>
 </defs>
 <g id="figure_1">
  <g id="patch_1">
   <path d="M 0 87.467375 
L 211.84625 87.467375 
L 211.84625 0 
L 0 0 
z
" style="fill:none;"/>
  </g>
  <g id="axes_1">
   <g id="patch_2">
    <path d="M 42.82625 76.767375 
L 113.182772 76.767375 
L 113.182772 10.239375 
L 42.82625 10.239375 
z
" style="fill:none;"/>
   </g>
   <g id="matplotlib.axis_1"/>
   <g id="matplotlib.axis_2">
    <g id="ytick_1">
     <g id="line2d_1">
      <defs>
       <path d="M 0 0 
L -3.5 0 
" id="ma7c2418c37" style="stroke:#000000;stroke-width:1.5;"/>
      </defs>
      <g>
       <use style="stroke:#000000;stroke-width:1.5;" x="42.82625" xlink:href="#ma7c2418c37" y="68.08981"/>
      </g>
     </g>
     <g id="text_1">
      <text style="font-family:DejaVu Sans;font-size:8px;font-stretch:normal;font-style:normal;font-weight:normal;text-anchor:end;" transform="rotate(-0, 35.82625, 71.129185)" x="35.82625" y="71.129185">−50</text>
     </g>
    </g>
    <g id="ytick_2">
     <g id="line2d_2">
      <g>
       <use style="stroke:#000000;stroke-width:1.5;" x="42.82625" xlink:href="#ma7c2418c37" y="39.164592"/>
      </g>
     </g>
     <g id="text_2">
      <text style="font-family:DejaVu Sans;font-size:8px;font-stretch:normal;font-style:normal;font-weight:normal;text-anchor:end;" transform="rotate(-0, 35.82625, 42.203967)" x="35.82625" y="42.203967">0</text>
     </g>
    </g>
    <g id="ytick_3">
     <g id="line2d_3">
      <g>
       <use style="stroke:#000000;stroke-width:1.5;" x="42.82625" xlink:href="#ma7c2418c37" y="10.239375"/>
      </g>
     </g>
     <g id="text_3">
      <text style="font-family:DejaVu Sans;font-size:8px;font-stretch:normal;font-style:normal;font-weight:normal;text-anchor:end;" transform="rotate(-0, 35.82625, 13.27875)" x="35.82625" y="13.27875">50</text>
     </g>
    </g>
    <g id="text_4">
     <text style="font-family:DejaVu Sans;font-size:8px;font-stretch:normal;font-style:normal;font-weight:normal;text-anchor:middle;" transform="rotate(-90, 13.27875, 43.503375)" x="13.27875" y="43.503375">Voltage PY (mV)</text>
    </g>
   </g>
   <g id="line2d_4">
    <path clip-path="url(#p8ce74d5f1c)" d="M 46.024274 69.290098 
L 47.805903 67.945119 
L 51.012834 65.731359 
L 51.36916 65.458849 
L 52.081812 64.923119 
L 52.6163 64.614781 
L 54.041603 63.895934 
L 54.576092 63.436867 
L 55.110581 63.205523 
L 55.645069 62.881917 
L 56.179558 62.554792 
L 57.961187 60.867418 
L 58.495675 60.071069 
L 58.852001 59.30617 
L 59.208327 57.806151 
L 59.38649 56.396925 
L 59.564653 53.16004 
L 59.742816 40.950669 
L 59.920978 16.992039 
L 60.099141 12.324079 
L 60.277304 12.752212 
L 60.63363 15.186341 
L 61.168119 21.298912 
L 62.415259 36.735266 
L 63.306073 44.140123 
L 63.840562 49.180455 
L 64.018725 52.374739 
L 64.553213 71.200909 
L 64.909539 73.923393 
L 65.087702 74.254166 
L 65.265865 74.329085 
L 65.622191 74.165025 
L 67.047494 73.183162 
L 67.760145 72.546083 
L 67.938308 72.449565 
L 68.294634 72.08946 
L 68.472797 72.049524 
L 69.363611 71.227017 
L 69.719937 71.090007 
L 70.432588 70.518132 
L 70.788914 70.305137 
L 71.323403 69.899727 
L 72.39238 69.212194 
L 72.748706 68.818392 
L 73.817683 68.176286 
L 74.530335 67.637272 
L 77.380941 66.097628 
L 77.737267 65.806826 
L 78.628081 65.451449 
L 78.984407 65.363486 
L 79.697058 64.98093 
L 81.122361 63.907062 
L 81.478687 63.811637 
L 85.576433 61.18459 
L 86.289085 60.494496 
L 87.001736 59.146374 
L 87.358062 57.721256 
L 87.536225 56.338108 
L 87.714388 53.265465 
L 87.892551 42.266422 
L 88.070714 18.452869 
L 88.248877 12.275801 
L 88.427039 12.546223 
L 88.783365 14.916097 
L 89.317854 21.153133 
L 90.564994 37.216246 
L 91.990297 50.732671 
L 92.16846 55.234101 
L 92.524786 69.440729 
L 92.881111 73.522555 
L 93.059274 74.079977 
L 93.4156 74.370962 
L 93.771926 74.208544 
L 99.294975 70.22981 
L 100.542115 69.368194 
L 100.898441 69.115231 
L 102.858233 67.900212 
L 103.392721 67.455635 
L 103.749047 67.398726 
L 104.461699 67.006062 
L 105.887002 66.275141 
L 106.42149 66.097579 
L 107.490468 65.637526 
L 107.668631 65.644742 
L 108.024956 65.352897 
L 109.984748 64.457925 
L 109.984748 64.457925 
" style="fill:none;stroke:#000000;stroke-linecap:square;stroke-width:1.6;"/>
   </g>
   <g id="patch_3">
    <path d="M 42.82625 76.767375 
L 42.82625 10.239375 
" style="fill:none;stroke:#000000;stroke-linecap:square;stroke-linejoin:miter;stroke-width:1.5;"/>
   </g>
   <g id="patch_4">
    <path d="M 42.82625 76.767375 
L 113.182772 76.767375 
" style="fill:none;stroke:#000000;stroke-linecap:square;stroke-linejoin:miter;stroke-width:1.5;"/>
   </g>
  </g>
  <g id="axes_2">
   <g id="patch_5">
    <path d="M 134.289728 76.767375 
L 204.64625 76.767375 
L 204.64625 10.239375 
L 134.289728 10.239375 
z
" style="fill:none;"/>
   </g>
   <g id="matplotlib.axis_3"/>
   <g id="matplotlib.axis_4"/>
   <g id="line2d_5">
    <path clip-path="url(#p042aa46a44)" d="M 137.487752 68.944732 
L 138.022241 68.579735 
L 139.091218 67.809989 
L 139.982032 67.158675 
L 140.516521 66.853496 
L 140.872847 66.52635 
L 141.763661 66.099883 
L 142.29815 65.81429 
L 143.367127 65.306365 
L 143.723453 64.915659 
L 145.326919 64.222896 
L 145.505082 64.104003 
L 145.683245 64.129614 
L 146.574059 63.556137 
L 147.464873 63.262453 
L 147.999362 62.981424 
L 148.355688 62.846541 
L 148.890176 62.510371 
L 149.246502 62.248863 
L 149.424665 62.258311 
L 150.671805 61.056962 
L 151.206294 60.3334 
L 151.56262 59.40841 
L 151.740782 58.696446 
L 151.918945 57.420921 
L 152.097108 54.790682 
L 152.275271 44.12269 
L 152.453434 15.325064 
L 152.631597 11.931079 
L 152.80976 12.523477 
L 153.166086 15.069657 
L 153.700574 21.444157 
L 154.947714 37.179402 
L 156.373017 50.472181 
L 156.55118 55.48603 
L 156.907506 70.781532 
L 157.263832 73.422145 
L 157.441995 73.769741 
L 157.620158 73.857965 
L 158.154646 73.508095 
L 159.223623 72.672024 
L 160.470764 71.574904 
L 160.827089 71.325795 
L 161.361578 70.799769 
L 161.717904 70.496897 
L 162.965044 69.575904 
L 163.32137 69.32184 
L 164.034021 68.813631 
L 164.390347 68.455568 
L 168.488093 65.758245 
L 168.666256 65.774079 
L 169.378908 65.386631 
L 169.913396 65.160145 
L 172.58584 63.898913 
L 174.011143 62.958216 
L 174.901957 62.644069 
L 175.436446 62.30804 
L 175.970934 62.118677 
L 176.149097 62.026565 
L 176.32726 61.807874 
L 176.683586 61.653136 
L 177.396237 60.82748 
L 178.108889 59.407295 
L 178.465215 57.241262 
L 178.643378 54.261096 
L 178.82154 41.282844 
L 178.999703 14.124076 
L 179.177866 11.961695 
L 179.534192 13.780779 
L 179.890518 17.192987 
L 181.850309 40.643801 
L 182.741124 48.330031 
L 182.919287 51.2674 
L 183.631938 72.718366 
L 183.988264 73.702982 
L 184.34459 73.706133 
L 185.769893 72.582928 
L 186.126219 72.270787 
L 188.08601 70.612665 
L 188.798662 70.080314 
L 189.154987 69.711214 
L 189.867639 69.231786 
L 192.183756 67.541843 
L 192.896408 67.026628 
L 193.252734 66.729972 
L 196.459666 65.058089 
L 196.815991 64.983764 
L 197.706806 64.439562 
L 198.59762 64.060941 
L 198.953946 63.950328 
L 200.379249 63.183491 
L 201.448226 62.728119 
L 201.448226 62.728119 
" style="fill:none;stroke:#000000;stroke-linecap:square;stroke-width:1.6;"/>
   </g>
   <g id="patch_6">
    <path d="M 134.289728 76.767375 
L 204.64625 76.767375 
" style="fill:none;stroke:#000000;stroke-linecap:square;stroke-linejoin:miter;stroke-width:1.5;"/>
   </g>
  </g>
 </g>
 <defs>
  <clipPath id="p8ce74d5f1c">
   <rect height="66.528" width="70.356522" x="42.82625" y="10.239375"/>
  </clipPath>
  <clipPath id="p042aa46a44">
   <rect height="66.528" width="70.356522" x="134.289728" y="10.239375"/>
  </clipPath>
 </defs>
</svg>
