<?xml version="1.0" encoding="utf-8" standalone="no"?>
<!DOCTYPE svg PUBLIC "-//W3C//DTD SVG 1.1//EN"
  "http://www.w3.org/Graphics/SVG/1.1/DTD/svg11.dtd">
<!-- Created with matplotlib (https://matplotlib.org/) -->
<svg height="101.869pt" version="1.1" viewBox="0 0 238.1825 101.869" width="238.1825pt" xmlns="http://www.w3.org/2000/svg" xmlns:xlink="http://www.w3.org/1999/xlink">
 <metadata>
  <rdf:RDF xmlns:cc="http://creativecommons.org/ns#" xmlns:dc="http://purl.org/dc/elements/1.1/" xmlns:rdf="http://www.w3.org/1999/02/22-rdf-syntax-ns#">
   <cc:Work>
    <dc:type rdf:resource="http://purl.org/dc/dcmitype/StillImage"/>
    <dc:date>2021-01-08T11:22:48.570309</dc:date>
    <dc:format>image/svg+xml</dc:format>
    <dc:creator>
     <cc:Agent>
      <dc:title>Matplotlib v3.3.2, https://matplotlib.org/</dc:title>
     </cc:Agent>
    </dc:creator>
   </cc:Work>
  </rdf:RDF>
 </metadata>
 <defs>
  <style type="text/css">*{stroke-linecap:butt;stroke-linejoin:round;}</style>
 </defs>
 <g id="figure_1">
  <g id="patch_1">
   <path d="M 0 101.869 
L 238.1825 101.869 
L 238.1825 0 
L 0 0 
z
" style="fill:none;"/>
  </g>
  <g id="axes_1">
   <g id="patch_2">
    <path d="M 18.9425 68.184 
L 119.913929 68.184 
L 119.913929 7.2 
L 18.9425 7.2 
z
" style="fill:none;"/>
   </g>
   <g id="matplotlib.axis_1">
    <g id="xtick_1">
     <g id="line2d_1">
      <defs>
       <path d="M 0 0 
L 0 3.5 
" id="m1ad1e77f94" style="stroke:#000000;stroke-width:1.5;"/>
      </defs>
      <g>
       <use style="stroke:#000000;stroke-width:1.5;" x="22.002356" xlink:href="#m1ad1e77f94" y="68.184"/>
      </g>
     </g>
     <g id="text_1">
      <text style="font-family:DejaVu Sans;font-size:8px;font-stretch:normal;font-style:normal;font-weight:normal;text-anchor:middle;" transform="rotate(-0, 22.002356, 81.26275)" x="22.002356" y="81.26275">0</text>
     </g>
    </g>
    <g id="xtick_2">
     <g id="line2d_2">
      <g>
       <use style="stroke:#000000;stroke-width:1.5;" x="52.600918" xlink:href="#m1ad1e77f94" y="68.184"/>
      </g>
     </g>
     <g id="text_2">
      <text style="font-family:DejaVu Sans;font-size:8px;font-stretch:normal;font-style:normal;font-weight:normal;text-anchor:middle;" transform="rotate(-0, 52.600918, 81.26275)" x="52.600918" y="81.26275">1</text>
     </g>
    </g>
    <g id="xtick_3">
     <g id="line2d_3">
      <g>
       <use style="stroke:#000000;stroke-width:1.5;" x="83.199479" xlink:href="#m1ad1e77f94" y="68.184"/>
      </g>
     </g>
     <g id="text_3">
      <text style="font-family:DejaVu Sans;font-size:8px;font-stretch:normal;font-style:normal;font-weight:normal;text-anchor:middle;" transform="rotate(-0, 83.199479, 81.26275)" x="83.199479" y="81.26275">2</text>
     </g>
    </g>
    <g id="xtick_4">
     <g id="line2d_4">
      <g>
       <use style="stroke:#000000;stroke-width:1.5;" x="113.798041" xlink:href="#m1ad1e77f94" y="68.184"/>
      </g>
     </g>
     <g id="text_4">
      <text style="font-family:DejaVu Sans;font-size:8px;font-stretch:normal;font-style:normal;font-weight:normal;text-anchor:middle;" transform="rotate(-0, 113.798041, 81.26275)" x="113.798041" y="81.26275">3</text>
     </g>
    </g>
    <g id="text_5">
     <text style="font-family:DejaVu Sans;font-size:8px;font-stretch:normal;font-style:normal;font-weight:normal;text-anchor:middle;" transform="rotate(-0, 69.428214, 93.00525)" x="69.428214" y="93.00525">Time (seconds)</text>
    </g>
   </g>
   <g id="matplotlib.axis_2">
    <g id="text_6">
     <text style="font-family:DejaVu Sans;font-size:8px;font-stretch:normal;font-style:normal;font-weight:normal;text-anchor:middle;" transform="rotate(-90, 13.27875, 37.692)" x="13.27875" y="37.692">Energy</text>
    </g>
   </g>
   <g id="line2d_5">
    <path clip-path="url(#p10e6800af3)" d="M 22.002356 27.472246 
L 23.937715 27.52423 
L 36.230687 27.527802 
L 48.347718 27.45768 
L 48.382141 26.477454 
L 48.416564 23.280142 
L 48.489236 26.685244 
L 48.680477 27.23447 
L 48.691952 27.213167 
L 48.703426 26.819704 
L 48.760798 19.173169 
L 48.814346 26.194039 
L 48.990288 27.025237 
L 49.066784 27.164175 
L 49.085908 27.016101 
L 49.147105 18.375657 
L 49.204477 26.295682 
L 49.388069 27.053842 
L 49.47604 27.193645 
L 49.491339 27.119638 
L 49.521938 23.058426 
L 49.556361 18.485699 
L 49.617558 26.460652 
L 49.827923 27.152651 
L 49.912069 27.249065 
L 49.927368 27.188882 
L 49.954142 24.53086 
L 49.99239 18.806903 
L 50.053588 26.56577 
L 50.256303 27.174346 
L 50.386347 27.302867 
L 50.401646 27.255619 
L 50.424595 25.881637 
L 50.470493 19.328344 
L 50.527865 26.661253 
L 50.722931 27.197714 
L 50.914172 27.35028 
L 50.929471 27.309056 
L 50.95242 26.362951 
L 50.998318 20.266899 
L 51.059515 26.788421 
L 51.281355 27.272316 
L 51.49172 27.386578 
L 51.507019 27.354313 
L 51.518494 27.073963 
L 51.575866 21.061152 
L 51.629413 26.823217 
L 51.80918 27.240449 
L 52.084567 27.418379 
L 52.164888 27.334937 
L 52.199312 24.844194 
L 52.226085 22.191769 
L 52.294932 26.970284 
L 52.543545 27.350456 
L 52.838057 27.426721 
L 52.868655 27.331483 
L 52.918378 23.274697 
L 52.929852 22.988183 
L 52.956626 26.14027 
L 53.075196 27.187934 
L 53.346758 27.415842 
L 53.652743 27.420576 
L 53.656568 27.408842 
L 53.671867 27.037761 
L 53.72159 23.826406 
L 53.679517 27.070531 
L 53.778962 27.059056 
L 54.023751 27.375623 
L 54.367985 27.455169 
L 54.498029 27.365266 
L 54.543926 24.589658 
L 54.555401 24.223828 
L 54.608948 27.085134 
L 54.849912 27.38289 
L 55.20562 27.462658 
L 55.526905 27.391069 
L 55.565153 25.889485 
L 55.584278 24.974614 
L 55.660774 27.189039 
L 55.932336 27.425189 
L 56.444862 27.483662 
L 59.971346 27.527727 
L 83.513115 27.425646 
L 83.559013 24.295032 
L 83.578137 23.275515 
L 83.646983 26.663451 
L 83.845874 27.239299 
L 83.853524 27.229644 
L 83.868823 26.750364 
L 83.926195 19.152985 
L 83.983568 26.247564 
L 84.186283 27.099937 
L 84.236006 27.170243 
L 84.251305 27.088357 
L 84.285728 21.876713 
L 84.316327 18.373582 
L 84.373699 26.314227 
L 84.568765 27.084061 
L 84.649086 27.197929 
L 84.664386 27.063483 
L 84.725583 18.486556 
L 84.782955 26.415106 
L 84.958897 27.076769 
L 85.085116 27.251862 
L 85.100415 27.191398 
L 85.127189 24.575977 
L 85.165437 18.872552 
L 85.226634 26.571507 
L 85.42935 27.17653 
L 85.559393 27.306748 
L 85.578518 27.238173 
L 85.609116 24.010722 
L 85.64354 19.382324 
L 85.704737 26.680195 
L 85.911277 27.218823 
L 86.091044 27.351889 
L 86.106343 27.309022 
L 86.133117 25.777459 
L 86.17519 20.361515 
L 86.236387 26.796217 
L 86.462051 27.278807 
L 86.660942 27.384828 
L 86.676241 27.35874 
L 86.69154 26.821188 
L 86.748913 21.0435 
L 86.69919 26.895149 
L 86.798635 26.807139 
L 86.966927 27.222354 
L 87.242314 27.414655 
L 87.318811 27.357651 
L 87.322636 27.315855 
L 87.368533 22.770492 
L 87.383833 21.917214 
L 87.43738 26.904294 
L 87.632446 27.28707 
L 87.923132 27.435569 
L 88.057001 27.378871 
L 88.060826 27.34662 
L 88.102899 24.207315 
L 88.122023 23.224185 
L 88.18322 27.028379 
L 88.435658 27.370384 
L 88.772242 27.446463 
L 88.82579 27.37235 
L 88.860213 25.679316 
L 88.886987 23.705327 
L 88.959659 27.091173 
L 89.219746 27.392054 
L 89.552506 27.43819 
L 89.57928 27.349041 
L 89.636652 23.611548 
L 89.701674 27.074101 
L 89.957937 27.388162 
L 90.336594 27.469264 
L 92.860975 27.526999 
L 113.794216 27.527849 
L 113.794216 27.527849 
" style="fill:none;stroke:#666666;stroke-linecap:square;stroke-width:0.6;"/>
   </g>
   <g id="line2d_6">
    <path clip-path="url(#p10e6800af3)" d="M 22.002356 47.855499 
L 30.879764 47.745831 
L 30.929487 46.040656 
L 31.009808 47.501839 
L 31.254596 47.724104 
L 31.365516 47.71553 
L 31.373166 47.680183 
L 31.403764 45.888177 
L 31.426713 43.643311 
L 31.50321 47.310725 
L 31.740348 47.65985 
L 31.981312 47.725226 
L 31.992787 47.698995 
L 32.008086 47.31525 
L 32.050159 44.043485 
L 32.115181 47.352069 
L 32.359969 47.677277 
L 32.685079 47.745042 
L 32.704203 47.607815 
L 32.750101 44.372554 
L 32.818948 47.433189 
L 33.071386 47.712476 
L 33.488291 47.799441 
L 33.591561 47.706282 
L 33.641284 45.294566 
L 33.710131 47.535344 
L 33.977868 47.751578 
L 34.498044 47.821103 
L 34.746657 47.729463 
L 34.784905 46.456002 
L 34.79638 46.177144 
L 34.869051 47.611071 
L 35.163562 47.777122 
L 35.779359 47.812752 
L 35.85968 47.721024 
L 35.905578 46.136951 
L 35.978249 47.618138 
L 36.276585 47.784485 
L 36.988002 47.843883 
L 42.44602 47.855573 
L 64.515233 47.7879 
L 64.549656 47.268485 
L 64.572605 45.894756 
L 64.656751 47.50478 
L 64.905364 47.727861 
L 65.031583 47.716429 
L 65.039233 47.672286 
L 65.069832 45.759095 
L 65.092781 43.726147 
L 65.169277 47.318515 
L 65.406416 47.66099 
L 65.635905 47.723628 
L 65.64738 47.695129 
L 65.674153 46.981467 
L 65.704752 43.877913 
L 65.781248 47.366973 
L 66.026037 47.67944 
L 66.347322 47.743348 
L 66.370271 47.550054 
L 66.416168 44.617029 
L 66.48119 47.433155 
L 66.733628 47.706903 
L 67.11611 47.776614 
L 67.150534 47.657403 
L 67.196432 44.888992 
L 67.265278 47.495137 
L 67.525366 47.736717 
L 67.995819 47.815245 
L 68.144987 47.72545 
L 68.183235 45.934264 
L 68.19471 45.533326 
L 68.267381 47.578835 
L 68.542768 47.769734 
L 69.124141 47.8332 
L 70.787938 47.757339 
L 70.826186 46.974089 
L 70.841485 46.511758 
L 70.925631 47.656604 
L 71.246916 47.792603 
L 72.176348 47.842087 
L 78.491126 47.855575 
L 99.454965 47.778383 
L 99.489389 47.097966 
L 99.508513 45.970597 
L 99.592659 47.505159 
L 99.841272 47.727054 
L 99.956017 47.718135 
L 99.963666 47.686629 
L 99.99044 46.581708 
L 100.017214 43.638283 
L 100.09371 47.308229 
L 100.330849 47.659002 
L 100.583287 47.723992 
L 100.590937 47.707031 
L 100.606236 47.445694 
L 100.652134 44.079218 
L 100.717156 47.357659 
L 100.961944 47.677529 
L 101.283229 47.74858 
L 101.306178 47.622177 
L 101.352076 44.58983 
L 101.420923 47.43787 
L 101.673361 47.709766 
L 102.078792 47.784805 
L 102.12469 47.699573 
L 102.166763 45.32702 
L 102.174412 45.170469 
L 102.212661 47.452881 
L 102.411551 47.694435 
L 102.790209 47.80427 
L 103.111493 47.740148 
L 103.145917 46.509644 
L 103.161216 45.604802 
L 103.245362 47.592945 
L 103.528399 47.773635 
L 104.14037 47.829706 
L 105.352838 47.728812 
L 105.402561 46.66934 
L 105.471407 47.640609 
L 105.792692 47.785031 
L 106.098678 47.738888 
L 106.129277 46.762429 
L 106.152225 45.217631 
L 106.232547 47.599413 
L 106.507934 47.779888 
L 107.131379 47.84241 
L 110.608141 47.855624 
L 113.794216 47.855569 
L 113.794216 47.855569 
" style="fill:none;stroke:#666666;stroke-linecap:square;stroke-width:0.6;"/>
   </g>
   <g id="line2d_7">
    <path clip-path="url(#p10e6800af3)" d="M 22.002356 68.183208 
L 35.997373 68.110405 
L 36.035621 66.666251 
L 36.07387 62.991901 
L 36.142716 66.702539 
L 36.337782 67.824789 
L 36.349257 67.815578 
L 36.356906 67.759857 
L 36.39133 64.146482 
L 36.418104 62.179594 
L 36.483125 66.782201 
L 36.697315 67.838211 
L 36.70879 67.835714 
L 36.720264 67.752909 
L 36.769987 61.530398 
L 36.785286 60.958804 
L 36.823534 64.592214 
L 36.942104 67.435375 
L 37.114221 67.901839 
L 37.133345 67.827436 
L 37.167768 63.944172 
L 37.202192 60.612784 
L 37.259564 66.857839 
L 37.45463 67.794741 
L 37.580849 67.963628 
L 37.599973 67.863943 
L 37.66882 60.816773 
L 37.730017 67.029218 
L 37.951856 67.880278 
L 38.08955 68.010728 
L 38.108674 67.971568 
L 38.123973 67.081917 
L 38.131623 67.13034 
L 38.181346 61.18207 
L 38.242543 67.12177 
L 38.460558 67.890044 
L 38.678572 68.058 
L 38.682397 68.054723 
L 38.701521 67.962747 
L 38.751244 62.83986 
L 38.770368 61.910178 
L 38.816266 67.05669 
L 38.957784 67.730868 
L 39.198748 68.05874 
L 39.321142 68.060882 
L 39.328792 68.03095 
L 39.35939 66.633803 
L 39.401463 62.435827 
L 39.46266 67.312076 
L 39.703624 67.969228 
L 39.963712 68.106071 
L 40.036383 68.047065 
L 40.070807 66.294125 
L 40.10523 63.007646 
L 40.174077 67.396181 
L 40.418865 67.996298 
L 40.690428 68.1132 
L 40.75545 68.004026 
L 40.820472 63.144269 
L 40.881669 67.38141 
L 41.118808 67.986534 
L 41.38272 68.114737 
L 41.49364 68.026031 
L 41.539538 64.512767 
L 41.558662 63.397812 
L 41.619859 67.40509 
L 41.856998 67.994649 
L 42.12856 68.121047 
L 42.250954 68.058048 
L 42.285378 66.522295 
L 42.319801 63.468797 
L 42.388648 67.451701 
L 42.633436 68.015103 
L 42.912648 68.127477 
L 43.057991 68.04419 
L 43.100064 65.268777 
L 43.126838 63.565931 
L 43.19186 67.450628 
L 43.436649 68.017554 
L 43.71586 68.129198 
L 43.887977 68.066105 
L 43.922401 66.628038 
L 43.956824 63.799199 
L 44.025671 67.480451 
L 44.270459 68.027241 
L 44.553496 68.129523 
L 44.672066 68.067873 
L 44.706489 66.579681 
L 44.740912 63.66743 
L 44.809759 67.468923 
L 45.054548 68.025057 
L 45.341409 68.134543 
L 45.582373 68.073583 
L 45.616796 66.789351 
L 45.651219 63.974832 
L 45.720066 67.489431 
L 45.96103 68.030788 
L 46.247891 68.137004 
L 46.534753 68.088631 
L 46.569176 67.026404 
L 46.607425 63.954633 
L 46.676271 67.487358 
L 46.917235 68.033686 
L 47.204096 68.137664 
L 47.414462 68.047324 
L 47.479484 63.994799 
L 47.54833 67.480701 
L 47.789294 68.032902 
L 48.072331 68.137385 
L 49.403368 68.180835 
L 63.750269 68.183419 
L 71.189544 68.108998 
L 71.227792 66.639053 
L 71.26604 62.81569 
L 71.334887 66.658112 
L 71.529953 67.810521 
L 71.545252 67.740821 
L 71.579676 64.031053 
L 71.606449 62.04741 
L 71.671471 66.764772 
L 71.885661 67.839309 
L 71.900961 67.836871 
L 71.912435 67.739851 
L 71.977457 60.985679 
L 72.038654 66.793753 
L 72.260494 67.850686 
L 72.306391 67.895065 
L 72.321691 67.8167 
L 72.359939 63.136192 
L 72.386713 60.607937 
L 72.44791 66.864898 
L 72.6468 67.805746 
L 72.76537 67.962157 
L 72.784494 67.899839 
L 72.815093 65.211396 
L 72.853341 60.806201 
L 72.914538 67.011679 
L 73.124903 67.855426 
L 73.281721 68.013662 
L 73.300845 67.955925 
L 73.331443 65.744472 
L 73.369692 61.239393 
L 73.430889 67.116001 
L 73.641254 67.876522 
L 73.855444 68.052437 
L 73.863093 68.045293 
L 73.882217 67.914391 
L 73.947239 61.852223 
L 74.004612 67.196453 
L 74.207327 67.884149 
L 74.452116 68.084741 
L 74.517138 68.02369 
L 74.547736 66.519345 
L 74.585984 62.467412 
L 74.651006 67.319952 
L 74.89197 67.971126 
L 75.148233 68.100707 
L 75.205605 68.027468 
L 75.243853 65.412342 
L 75.274452 62.922996 
L 75.339474 67.382285 
L 75.584262 67.992011 
L 75.855825 68.115561 
L 75.94762 68.050088 
L 75.982044 66.373662 
L 76.016467 63.271867 
L 76.085314 67.429389 
L 76.330102 68.006294 
L 76.601665 68.117837 
L 76.674336 68.028 
L 76.720234 64.403424 
L 76.743183 63.189466 
L 76.800555 67.384393 
L 77.033869 67.984776 
L 77.301607 68.12085 
L 77.489023 68.062736 
L 77.523446 66.54545 
L 77.55787 63.595667 
L 77.626716 67.461558 
L 77.871505 68.018947 
L 78.154542 68.127041 
L 78.273111 68.061947 
L 78.307534 66.505242 
L 78.341958 63.573757 
L 78.410805 67.4611 
L 78.655593 68.020399 
L 78.93863 68.130041 
L 79.087798 68.057242 
L 79.126046 65.92051 
L 79.156644 63.662148 
L 79.225491 67.471791 
L 79.47028 68.024878 
L 79.753316 68.133069 
L 79.963682 68.089619 
L 79.967506 68.062113 
L 80.005755 66.063235 
L 80.036353 63.879667 
L 80.1052 67.486364 
L 80.349988 68.031678 
L 80.63685 68.132755 
L 80.74777 68.067947 
L 80.782193 66.609222 
L 80.816616 63.610796 
L 80.885463 67.459102 
L 81.130252 68.024736 
L 81.413288 68.134609 
L 81.650427 68.07404 
L 81.688675 66.282134 
L 81.719274 64.118391 
L 81.788121 67.505633 
L 82.029084 68.035626 
L 82.319771 68.136945 
L 82.518661 68.071768 
L 82.55691 66.207814 
L 82.587508 64.030265 
L 82.656355 67.495002 
L 82.897319 68.034665 
L 83.18418 68.138413 
L 83.570487 68.071081 
L 83.608735 66.5635 
L 83.639334 64.588034 
L 83.708181 67.539904 
L 83.945319 68.044678 
L 84.243655 68.147367 
L 85.528795 68.182307 
L 106.913365 68.1559 
L 106.936314 68.067721 
L 107.008985 62.884507 
L 106.951613 68.086627 
L 107.089306 66.836338 
L 107.269073 67.814347 
L 107.280547 67.775292 
L 107.303496 66.270334 
L 107.345569 62.065509 
L 107.410591 66.807501 
L 107.628606 67.863094 
L 107.64773 67.829101 
L 107.651555 67.779776 
L 107.701278 61.542002 
L 107.716577 60.920863 
L 107.754825 64.2785 
L 107.873395 67.450196 
L 108.060811 67.933732 
L 108.07611 67.899485 
L 108.099059 66.731977 
L 108.148782 60.739319 
L 108.206154 66.89572 
L 108.397395 67.801315 
L 108.546563 67.989748 
L 108.561862 67.949288 
L 108.588636 66.43525 
L 108.634534 61.088216 
L 108.691906 67.03485 
L 108.890797 67.844249 
L 109.089687 68.039279 
L 109.101162 68.024383 
L 109.116461 67.736489 
L 109.177658 61.569458 
L 109.231206 67.069755 
L 109.391848 67.771765 
L 109.628987 68.064721 
L 109.705483 68.048813 
L 109.713133 68.008698 
L 109.743732 66.314319 
L 109.78198 62.110134 
L 109.847002 67.272583 
L 110.084141 67.958235 
L 110.340404 68.103979 
L 110.40925 68.039567 
L 110.443674 66.175484 
L 110.478097 62.959334 
L 110.543119 67.366418 
L 110.787908 67.992359 
L 111.05182 68.113116 
L 111.120667 68.043439 
L 111.15509 66.227995 
L 111.189514 63.133746 
L 111.254536 67.395189 
L 111.499324 68.000117 
L 111.770886 68.120972 
L 111.874157 68.059952 
L 111.90858 66.507705 
L 111.943003 63.313191 
L 112.01185 67.427032 
L 112.256639 68.009524 
L 112.53585 68.126962 
L 112.688843 68.064995 
L 112.723267 66.54851 
L 112.75769 63.550802 
L 112.826537 67.450905 
L 113.071325 68.018308 
L 113.354362 68.129604 
L 113.51118 68.049483 
L 113.553253 65.32886 
L 113.580026 63.69831 
L 113.645048 67.455024 
L 113.794216 67.894541 
L 113.794216 67.894541 
" style="fill:none;stroke:#666666;stroke-linecap:square;stroke-width:0.6;"/>
   </g>
   <g id="line2d_8">
    <path clip-path="url(#p10e6800af3)" d="M 118.384 17.672 
L 118.384 11.512 
" style="fill:none;stroke:#000000;stroke-linecap:square;stroke-width:1.5;"/>
   </g>
   <g id="patch_3">
    <path d="M 18.9425 68.184 
L 18.9425 7.2 
" style="fill:none;stroke:#000000;stroke-linecap:square;stroke-linejoin:miter;stroke-width:1.5;"/>
   </g>
   <g id="patch_4">
    <path d="M 18.9425 68.184 
L 119.913929 68.184 
" style="fill:none;stroke:#000000;stroke-linecap:square;stroke-linejoin:miter;stroke-width:1.5;"/>
   </g>
  </g>
  <g id="axes_2">
   <g id="patch_5">
    <path d="M 130.011071 68.184 
L 230.9825 68.184 
L 230.9825 7.2 
L 130.011071 7.2 
z
" style="fill:none;"/>
   </g>
   <g id="matplotlib.axis_3">
    <g id="xtick_5">
     <g id="line2d_9">
      <g>
       <use style="stroke:#000000;stroke-width:1.5;" x="133.070928" xlink:href="#m1ad1e77f94" y="68.184"/>
      </g>
     </g>
     <g id="text_7">
      <text style="font-family:DejaVu Sans;font-size:8px;font-stretch:normal;font-style:normal;font-weight:normal;text-anchor:middle;" transform="rotate(-0, 133.070928, 81.26275)" x="133.070928" y="81.26275">0</text>
     </g>
    </g>
    <g id="xtick_6">
     <g id="line2d_10">
      <g>
       <use style="stroke:#000000;stroke-width:1.5;" x="163.669489" xlink:href="#m1ad1e77f94" y="68.184"/>
      </g>
     </g>
     <g id="text_8">
      <text style="font-family:DejaVu Sans;font-size:8px;font-stretch:normal;font-style:normal;font-weight:normal;text-anchor:middle;" transform="rotate(-0, 163.669489, 81.26275)" x="163.669489" y="81.26275">1</text>
     </g>
    </g>
    <g id="xtick_7">
     <g id="line2d_11">
      <g>
       <use style="stroke:#000000;stroke-width:1.5;" x="194.268051" xlink:href="#m1ad1e77f94" y="68.184"/>
      </g>
     </g>
     <g id="text_9">
      <text style="font-family:DejaVu Sans;font-size:8px;font-stretch:normal;font-style:normal;font-weight:normal;text-anchor:middle;" transform="rotate(-0, 194.268051, 81.26275)" x="194.268051" y="81.26275">2</text>
     </g>
    </g>
    <g id="xtick_8">
     <g id="line2d_12">
      <g>
       <use style="stroke:#000000;stroke-width:1.5;" x="224.866612" xlink:href="#m1ad1e77f94" y="68.184"/>
      </g>
     </g>
     <g id="text_10">
      <text style="font-family:DejaVu Sans;font-size:8px;font-stretch:normal;font-style:normal;font-weight:normal;text-anchor:middle;" transform="rotate(-0, 224.866612, 81.26275)" x="224.866612" y="81.26275">3</text>
     </g>
    </g>
    <g id="text_11">
     <text style="font-family:DejaVu Sans;font-size:8px;font-stretch:normal;font-style:normal;font-weight:normal;text-anchor:middle;" transform="rotate(-0, 180.496786, 93.00525)" x="180.496786" y="93.00525">Time (seconds)</text>
    </g>
   </g>
   <g id="matplotlib.axis_4"/>
   <g id="line2d_13">
    <path clip-path="url(#p76f25a4668)" d="M 133.070928 27.46276 
L 134.956564 27.527922 
L 158.961136 27.44156 
L 158.976435 27.47962 
L 159.003209 24.763229 
L 159.041457 19.916676 
L 159.110304 25.257954 
L 159.217399 26.504487 
L 159.232698 25.895952 
L 159.278596 20.357074 
L 159.343618 25.463112 
L 159.439238 26.418539 
L 159.454537 25.680701 
L 159.500435 20.390263 
L 159.565457 25.633744 
L 159.657253 26.463729 
L 159.672552 26.141259 
L 159.71845 20.07925 
L 159.783472 25.692603 
L 159.890567 26.552332 
L 159.902041 26.327502 
L 159.955589 19.185118 
L 160.012961 25.675761 
L 160.143005 26.669801 
L 160.158304 26.200884 
L 160.211852 17.85387 
L 160.269224 25.595571 
L 160.418392 26.769185 
L 160.429867 26.78865 
L 160.441341 26.675474 
L 160.502538 16.636026 
L 160.563735 25.67588 
L 160.712903 26.793098 
L 160.754976 26.908947 
L 160.770276 26.610338 
L 160.831473 16.070897 
L 160.88502 24.948372 
L 161.007414 26.661681 
L 161.114509 27.012936 
L 161.129809 26.859331 
L 161.194831 16.104655 
L 161.252203 25.635535 
L 161.382247 26.761917 
L 161.504641 27.093232 
L 161.523765 26.886099 
L 161.588787 16.404274 
L 161.642335 25.470873 
L 161.764729 26.763142 
L 161.933021 27.165786 
L 161.94832 27.110231 
L 161.971269 25.014746 
L 162.020992 17.171894 
L 162.074539 25.916588 
L 162.204583 26.855418 
L 162.395824 27.22538 
L 162.411123 27.207043 
L 162.426423 26.690355 
L 162.48762 18.298297 
L 162.537342 25.842455 
L 162.663562 26.881163 
L 162.893051 27.271833 
L 162.923649 27.169149 
L 162.961897 22.45883 
L 162.992496 19.28517 
L 163.049868 26.393012 
L 163.221985 27.082903 
L 163.44 27.303429 
L 163.466774 27.213128 
L 163.505022 23.185281 
L 163.535621 20.411045 
L 163.596818 26.538015 
L 163.822482 27.221138 
L 164.021373 27.32798 
L 164.029022 27.318538 
L 164.048146 27.081842 
L 164.109344 21.294664 
L 164.162891 26.544184 
L 164.342658 27.162397 
L 164.572147 27.352982 
L 164.667767 27.276621 
L 164.702191 24.989749 
L 164.732789 22.252968 
L 164.801636 26.714892 
L 165.0426 27.29237 
L 165.287388 27.359673 
L 165.310337 27.267027 
L 165.363885 22.889488 
L 165.375359 22.674366 
L 165.402133 24.5456 
L 165.520702 27.033329 
L 165.750191 27.349254 
L 166.266542 27.455117 
L 167.968587 27.52759 
L 193.526036 27.470941 
L 193.541335 26.607837 
L 193.560459 26.661443 
L 193.610182 19.887577 
L 193.679029 25.177349 
L 193.778474 26.400223 
L 193.793773 25.780312 
L 193.839671 20.756229 
L 193.904693 25.461049 
L 193.985014 26.286273 
L 194.000313 25.464107 
L 194.042386 21.332559 
L 194.107408 25.665303 
L 194.176255 26.310176 
L 194.191554 25.992745 
L 194.233627 21.676109 
L 194.302474 25.847738 
L 194.371321 26.395191 
L 194.38662 25.746548 
L 194.428693 21.644426 
L 194.493715 25.925322 
L 194.570212 26.484104 
L 194.585511 25.8465 
L 194.627584 21.021956 
L 194.692606 25.929443 
L 194.784402 26.591631 
L 194.799701 26.38583 
L 194.849424 19.644471 
L 194.910621 25.847463 
L 195.03684 26.703185 
L 195.052139 26.381686 
L 195.109511 17.815464 
L 195.163059 25.635485 
L 195.304577 26.754272 
L 195.331351 26.823398 
L 195.342825 26.715772 
L 195.407847 16.420709 
L 195.46522 25.684139 
L 195.606738 26.763384 
L 195.66411 26.938722 
L 195.683234 26.649439 
L 195.748256 15.968488 
L 195.797979 24.79897 
L 195.916548 26.657738 
L 196.038943 27.037265 
L 196.058067 26.798749 
L 196.123089 16.251942 
L 196.172811 24.650898 
L 196.291381 26.706171 
L 196.440549 27.114948 
L 196.459673 27.02691 
L 196.490271 22.49525 
L 196.52852 16.649585 
L 196.585892 25.905285 
L 196.719761 26.840419 
L 196.884228 27.182464 
L 196.903352 27.132025 
L 196.926301 25.291262 
L 196.976024 17.680765 
L 197.029571 26.021561 
L 197.16344 26.88827 
L 197.358506 27.232733 
L 197.373805 27.212719 
L 197.389104 26.785405 
L 197.454126 18.538033 
L 197.500024 25.909196 
L 197.626243 26.891375 
L 197.859557 27.276366 
L 197.897805 27.203513 
L 197.928404 24.552855 
L 197.966652 19.688535 
L 198.027849 26.456125 
L 198.22674 27.148945 
L 198.414156 27.29933 
L 198.42563 27.286382 
L 198.444755 27.064809 
L 198.505952 20.525436 
L 198.559499 26.444882 
L 198.716317 27.078288 
L 198.945806 27.329362 
L 199.022302 27.297771 
L 199.029952 27.241693 
L 199.0682 23.901243 
L 199.094974 21.578454 
L 199.159996 26.64043 
L 199.397135 27.262223 
L 199.634274 27.349424 
L 199.664872 27.269562 
L 199.70312 24.469828 
L 199.729894 22.603714 
L 199.794916 26.732379 
L 200.03588 27.292733 
L 200.207997 27.334501 
L 200.215646 27.318222 
L 200.230946 26.863572 
L 200.288318 21.814572 
L 200.341865 26.601411 
L 200.533106 27.20826 
L 200.770245 27.375345 
L 201.703501 27.4927 
L 204.342627 27.52795 
L 224.862788 27.527883 
L 224.862788 27.527883 
" style="fill:none;stroke:#666666;stroke-linecap:square;stroke-width:0.6;"/>
   </g>
   <g id="line2d_14">
    <path clip-path="url(#p76f25a4668)" d="M 133.070928 47.854714 
L 140.498728 47.749111 
L 140.548451 44.752416 
L 140.556101 44.654862 
L 140.575225 46.220146 
L 140.693794 47.493026 
L 140.927108 47.719225 
L 140.930933 47.716772 
L 140.953882 47.513057 
L 141.00743 41.120195 
L 141.068627 47.044791 
L 141.290466 47.593718 
L 141.454933 47.701191 
L 141.470233 47.658674 
L 141.497007 46.070788 
L 141.53143 40.983884 
L 141.600277 47.150973 
L 141.837416 47.632619 
L 142.028657 47.723142 
L 142.043956 47.677399 
L 142.07073 46.225857 
L 142.105153 41.442438 
L 142.174 47.244467 
L 142.414963 47.663594 
L 142.667401 47.752031 
L 142.675051 47.739094 
L 142.69035 47.539917 
L 142.743898 42.064025 
L 142.80127 47.292493 
L 143.02311 47.666727 
L 143.344395 47.789765 
L 143.417066 47.681972 
L 143.474439 43.019428 
L 143.535636 47.39542 
L 143.780424 47.712917 
L 144.147607 47.806853 
L 144.247052 47.701927 
L 144.3006 43.825556 
L 144.365622 47.462305 
L 144.61806 47.736109 
L 145.023491 47.814432 
L 145.14206 47.739083 
L 145.176484 46.056959 
L 145.199432 44.353542 
L 145.275929 47.527836 
L 145.543666 47.760058 
L 146.025594 47.824277 
L 146.274207 47.720809 
L 146.32393 45.150858 
L 146.392776 47.560931 
L 146.664339 47.770737 
L 147.180689 47.825797 
L 147.440777 47.737475 
L 147.48285 45.639302 
L 147.494325 45.33058 
L 147.555522 47.570499 
L 147.830909 47.775517 
L 148.381683 47.83522 
L 151.437714 47.855193 
L 173.805263 47.752195 
L 173.851161 44.972558 
L 173.862635 44.696916 
L 173.912358 47.253364 
L 174.126548 47.669058 
L 174.245117 47.714103 
L 174.256592 47.6699 
L 174.283365 46.004134 
L 174.317789 41.033256 
L 174.386635 47.089059 
L 174.619949 47.618257 
L 174.772942 47.706516 
L 174.788242 47.671559 
L 174.803541 46.860416 
L 174.81119 46.865954 
L 174.853264 41.102123 
L 174.918285 47.16081 
L 175.155424 47.636068 
L 175.35814 47.727835 
L 175.369614 47.697019 
L 175.396388 46.621845 
L 175.434636 41.61088 
L 175.503483 47.263961 
L 175.744447 47.669099 
L 176.00071 47.754855 
L 176.008359 47.742752 
L 176.023658 47.567098 
L 176.077206 42.246008 
L 176.134578 47.304599 
L 176.360243 47.673151 
L 176.685352 47.792511 
L 176.758024 47.706711 
L 176.792447 45.195362 
L 176.815396 42.968803 
L 176.888068 47.420139 
L 177.140506 47.723982 
L 177.522988 47.806976 
L 177.591835 47.698674 
L 177.645382 43.785294 
L 177.710404 47.463113 
L 177.962842 47.736641 
L 178.372098 47.81767 
L 178.559514 47.750619 
L 178.593938 46.26125 
L 178.616887 44.592939 
L 178.693383 47.541178 
L 178.964945 47.764966 
L 179.439223 47.820217 
L 179.523369 47.706994 
L 179.576916 44.561635 
L 179.638114 47.524034 
L 179.902026 47.759825 
L 180.380129 47.828606 
L 180.969151 47.746421 
L 181.007399 46.103875 
L 181.022698 45.45351 
L 181.099195 47.602675 
L 181.386056 47.787167 
L 182.017152 47.845084 
L 186.41952 47.855198 
L 208.634076 47.725522 
L 208.687623 44.631762 
L 208.75647 47.303239 
L 208.982134 47.68793 
L 209.06628 47.713264 
L 209.08158 47.654732 
L 209.108353 45.827325 
L 209.142777 41.089238 
L 209.211623 47.082247 
L 209.444937 47.614339 
L 209.590281 47.694782 
L 209.601755 47.658599 
L 209.624704 46.78088 
L 209.666777 41.022116 
L 209.731799 47.14269 
L 209.965113 47.625423 
L 210.160179 47.717898 
L 210.171653 47.683896 
L 210.186953 46.865584 
L 210.194602 46.971657 
L 210.236675 41.618858 
L 210.301697 47.24041 
L 210.542661 47.660974 
L 210.775975 47.739589 
L 210.783625 47.719689 
L 210.810398 46.995101 
L 210.848646 41.967233 
L 210.917493 47.315843 
L 211.162282 47.688044 
L 211.479742 47.773819 
L 211.506516 47.645291 
L 211.560063 42.950304 
L 211.62126 47.379315 
L 211.862224 47.705547 
L 212.221757 47.801258 
L 212.290604 47.712557 
L 212.328852 44.77036 
L 212.347976 43.448463 
L 212.416823 47.454178 
L 212.673086 47.735501 
L 213.074692 47.81526 
L 213.212385 47.703136 
L 213.265933 44.358172 
L 213.32713 47.498315 
L 213.587218 47.749704 
L 214.030897 47.820081 
L 214.180065 47.739757 
L 214.218313 45.66544 
L 214.233612 44.742063 
L 214.310109 47.55106 
L 214.581671 47.767828 
L 215.075073 47.82452 
L 215.24719 47.743944 
L 215.285438 45.836418 
L 215.300737 44.976838 
L 215.377234 47.5722 
L 215.652621 47.775528 
L 216.195745 47.831662 
L 224.862788 47.855132 
L 224.862788 47.855132 
" style="fill:none;stroke:#666666;stroke-linecap:square;stroke-width:0.6;"/>
   </g>
   <g id="line2d_15">
    <path clip-path="url(#p76f25a4668)" d="M 133.070928 68.182426 
L 148.140719 68.078506 
L 148.156018 68.080211 
L 148.178967 64.255086 
L 148.217216 56.259992 
L 148.286062 64.562849 
L 148.44288 67.152334 
L 148.454354 66.984596 
L 148.504077 58.656286 
L 148.572924 65.602399 
L 148.714442 67.270004 
L 148.729742 67.084682 
L 148.779464 57.915874 
L 148.848311 65.719499 
L 149.005129 67.362666 
L 149.020428 67.090117 
L 149.073975 56.334331 
L 149.135172 65.64539 
L 149.322589 67.479976 
L 149.334063 67.386662 
L 149.364662 59.716977 
L 149.39526 54.61253 
L 149.456457 65.68961 
L 149.666822 67.58716 
L 149.678297 67.560738 
L 149.682122 67.509613 
L 149.705071 62.882612 
L 149.747144 53.295169 
L 149.804516 65.664391 
L 149.988107 67.491527 
L 150.053129 67.692069 
L 150.072253 67.390753 
L 150.133451 52.973513 
L 150.186998 65.601084 
L 150.332341 67.274551 
L 150.462385 67.770559 
L 150.481509 67.623208 
L 150.546531 52.91625 
L 150.607728 66.007757 
L 150.806619 67.608901 
L 150.902239 67.832997 
L 150.917539 67.745909 
L 150.944312 62.793809 
L 150.986385 53.242667 
L 151.043758 66.072974 
L 151.227349 67.55927 
L 151.357393 67.884091 
L 151.380342 67.729028 
L 151.445364 53.613106 
L 151.506561 66.221245 
L 151.709276 67.662558 
L 151.83932 67.920138 
L 151.858444 67.854267 
L 151.881393 65.109268 
L 151.927291 54.174066 
L 151.984664 66.246433 
L 152.16443 67.58565 
L 152.332722 67.942239 
L 152.348021 67.896215 
L 152.367146 66.650408 
L 152.420693 54.240415 
L 152.478065 66.312174 
L 152.669306 67.642573 
L 152.849073 67.970811 
L 152.864372 67.930897 
L 152.883496 66.91101 
L 152.937044 54.912807 
L 152.994416 66.385326 
L 153.189482 67.677746 
L 153.361599 67.979543 
L 153.380723 67.944984 
L 153.392197 67.551232 
L 153.453394 54.926995 
L 153.506942 66.269091 
L 153.66376 67.51056 
L 153.885599 67.99615 
L 153.912373 67.976464 
L 153.920023 67.92133 
L 153.946796 64.651378 
L 153.988869 55.345373 
L 154.050066 66.491915 
L 154.271906 67.784576 
L 154.440198 68.003681 
L 154.455497 67.972544 
L 154.466972 67.604669 
L 154.528169 55.600491 
L 154.581716 66.364058 
L 154.746184 67.573618 
L 154.968023 68.013631 
L 154.998622 67.982692 
L 155.002447 67.957173 
L 155.025396 66.230089 
L 155.071293 55.666774 
L 155.132491 66.501163 
L 155.34668 67.770177 
L 155.537921 68.025194 
L 155.549396 68.017094 
L 155.56852 67.845023 
L 155.633542 56.170056 
L 155.690914 66.523705 
L 155.901279 67.769987 
L 156.09252 68.023663 
L 156.103995 68.014581 
L 156.123119 67.797065 
L 156.188141 56.259913 
L 156.241688 66.485909 
L 156.432929 67.707424 
L 156.647119 68.032922 
L 156.677718 67.971411 
L 156.700667 66.218032 
L 156.746565 56.322147 
L 156.807762 66.567602 
L 157.033426 67.823224 
L 157.217018 68.034206 
L 157.232317 68.017481 
L 157.247616 67.73905 
L 157.308813 56.474139 
L 157.362361 66.445326 
L 157.534478 67.639369 
L 157.756317 68.037483 
L 157.802215 68.021723 
L 157.809865 67.980066 
L 157.832814 66.322679 
L 157.878711 56.611459 
L 157.939909 66.587452 
L 158.165573 67.83202 
L 158.352989 68.038861 
L 158.364464 68.028758 
L 158.379763 67.901026 
L 158.444785 56.638934 
L 158.505982 66.593458 
L 158.735471 67.843343 
L 158.934362 68.052342 
L 158.945836 68.044953 
L 158.96496 67.913603 
L 159.029982 57.203384 
L 159.091179 66.639823 
L 159.320669 67.842285 
L 159.550158 68.083146 
L 160.047384 68.165921 
L 161.695882 68.182648 
L 181.393706 68.09629 
L 181.409005 68.101885 
L 181.428129 65.759383 
L 181.474027 56.238397 
L 181.542874 64.647393 
L 181.699692 67.162084 
L 181.711166 66.998656 
L 181.760889 58.628508 
L 181.83356 65.672415 
L 181.975079 67.264051 
L 181.990378 66.731297 
L 182.040101 57.831218 
L 182.105123 65.689289 
L 182.265765 67.365655 
L 182.27724 67.230367 
L 182.334612 56.286624 
L 182.403459 65.801266 
L 182.583225 67.472284 
L 182.5947 67.317101 
L 182.652072 54.536136 
L 182.717094 65.70566 
L 182.931284 67.586367 
L 182.946583 67.384082 
L 183.00778 53.430439 
L 183.065152 65.665711 
L 183.248744 67.490949 
L 183.309941 67.684698 
L 183.329065 67.498453 
L 183.390262 52.986223 
L 183.451459 65.838923 
L 183.6427 67.549563 
L 183.723022 67.770245 
L 183.742146 67.498866 
L 183.803343 53.020438 
L 183.85689 65.664671 
L 183.998409 67.275266 
L 184.155226 67.826999 
L 184.17435 67.672935 
L 184.239372 53.177813 
L 184.300569 66.116519 
L 184.49946 67.626956 
L 184.614205 67.875466 
L 184.633329 67.725334 
L 184.698351 53.705324 
L 184.759548 66.227402 
L 184.962263 67.663614 
L 185.088482 67.916066 
L 185.107606 67.856076 
L 185.130555 65.154359 
L 185.176453 54.050839 
L 185.23765 66.300449 
L 185.444191 67.69173 
L 185.581884 67.94399 
L 185.601008 67.891999 
L 185.620132 66.488395 
L 185.669855 54.39114 
L 185.731052 66.341068 
L 185.929943 67.676442 
L 186.090585 67.960604 
L 186.105885 67.924468 
L 186.125009 66.896512 
L 186.178556 54.70251 
L 186.235928 66.362755 
L 186.427169 67.657349 
L 186.606936 67.97903 
L 186.622235 67.954915 
L 186.63371 67.756606 
L 186.698732 55.052444 
L 186.752279 66.340534 
L 186.920571 67.572006 
L 187.130936 67.989345 
L 187.134761 67.987791 
L 187.15771 67.823608 
L 187.222732 55.100479 
L 187.280104 66.413537 
L 187.471345 67.673312 
L 187.666411 68.001936 
L 187.677886 67.993926 
L 187.69701 67.702293 
L 187.762032 55.348353 
L 187.811754 66.301604 
L 187.964747 67.510313 
L 188.186587 68.005804 
L 188.22866 68.004721 
L 188.240134 67.959376 
L 188.263083 66.187898 
L 188.308981 55.842452 
L 188.370178 66.522988 
L 188.588193 67.785758 
L 188.767959 68.016037 
L 188.783259 67.985711 
L 188.794733 67.674678 
L 188.85593 55.808146 
L 188.909478 66.381257 
L 189.073945 67.58313 
L 189.295785 68.021706 
L 189.337858 68.012888 
L 189.349332 67.931814 
L 189.379931 63.436702 
L 189.418179 56.17693 
L 189.479376 66.584206 
L 189.71269 67.841339 
L 189.880982 68.021812 
L 189.892457 67.997319 
L 189.903931 67.808147 
L 189.968953 56.074769 
L 190.0225 66.46567 
L 190.206092 67.676346 
L 190.424107 68.032447 
L 190.45853 67.982018 
L 190.462355 67.931227 
L 190.492953 63.441638 
L 190.527377 56.304415 
L 190.592399 66.597199 
L 190.825713 67.847227 
L 191.009304 68.033059 
L 191.020779 68.016366 
L 191.036078 67.621109 
L 191.097275 56.620667 
L 191.150822 66.490101 
L 191.334414 67.690704 
L 191.552429 68.038751 
L 191.586852 68.010262 
L 191.594502 67.933635 
L 191.628925 62.228592 
L 191.659523 56.518196 
L 191.724545 66.613022 
L 191.957859 67.854575 
L 192.137626 68.042196 
L 192.152925 68.024414 
L 192.168225 67.744139 
L 192.229422 56.67508 
L 192.282969 66.469547 
L 192.458911 67.663531 
L 192.676926 68.041194 
L 192.726648 68.032018 
L 192.738123 67.958817 
L 192.768721 63.889661 
L 192.80697 56.893698 
L 192.868167 66.630791 
L 193.101481 67.862256 
L 193.292722 68.051715 
L 193.304196 68.040542 
L 193.319495 67.918573 
L 193.384517 56.955734 
L 193.449539 66.65301 
L 193.682853 67.854849 
L 193.916167 68.087863 
L 194.474591 68.170526 
L 196.406125 68.182682 
L 216.333439 68.057956 
L 216.344913 68.071699 
L 216.375512 62.501018 
L 216.409935 56.231295 
L 216.478782 64.604512 
L 216.635599 67.168773 
L 216.650899 66.93735 
L 216.700621 58.626637 
L 216.769468 65.60281 
L 216.914811 67.268563 
L 216.930111 66.923736 
L 216.979833 57.883405 
L 217.044855 65.665025 
L 217.205498 67.366821 
L 217.220797 67.113098 
L 217.274344 56.321387 
L 217.335542 65.622828 
L 217.522958 67.475486 
L 217.534432 67.421922 
L 217.553556 64.267797 
L 217.595629 54.691342 
L 217.656826 65.646549 
L 217.863367 67.569295 
L 217.874841 67.57593 
L 217.886316 67.44002 
L 217.947513 53.461126 
L 218.012535 65.806815 
L 218.230549 67.643316 
L 218.253498 67.682843 
L 218.268798 67.538961 
L 218.33382 53.091494 
L 218.395017 65.906514 
L 218.605382 67.636295 
L 218.662754 67.760491 
L 218.678053 67.615078 
L 218.743075 53.093973 
L 218.804272 66.019339 
L 219.010813 67.63952 
L 219.091134 67.822334 
L 219.110258 67.687788 
L 219.156156 55.546339 
L 219.17528 53.236302 
L 219.221178 65.066472 
L 219.347397 67.169796 
L 219.542463 67.86872 
L 219.557762 67.833257 
L 219.576886 66.453142 
L 219.630434 53.5053 
L 219.687806 66.144466 
L 219.867572 67.557115 
L 220.01674 67.908076 
L 220.035865 67.845563 
L 220.058813 65.038947 
L 220.104711 53.930548 
L 220.162084 66.214805 
L 220.338025 67.559907 
L 220.506317 67.942083 
L 220.525442 67.904507 
L 220.544566 66.860378 
L 220.598113 54.293717 
L 220.655485 66.289585 
L 220.835252 67.594639 
L 221.015019 67.960086 
L 221.030318 67.935013 
L 221.041792 67.645879 
L 221.102989 54.746802 
L 221.156537 66.201961 
L 221.305705 67.457979 
L 221.52372 67.974888 
L 221.550493 67.896422 
L 221.577267 64.265082 
L 221.61934 54.80654 
L 221.680537 66.446739 
L 221.898552 67.759332 
L 222.063019 67.992585 
L 222.078319 67.957563 
L 222.089793 67.537357 
L 222.15099 55.318532 
L 222.204538 66.33891 
L 222.36518 67.546067 
L 222.58702 68.006566 
L 222.617618 67.988271 
L 222.625268 67.937285 
L 222.652042 64.850324 
L 222.694115 55.674915 
L 222.755312 66.521351 
L 222.977151 67.793189 
L 223.133969 68.005716 
L 223.156918 67.950762 
L 223.179867 66.146125 
L 223.229589 55.455618 
L 223.286962 66.487095 
L 223.497327 67.753903 
L 223.684743 68.013127 
L 223.696218 68.000036 
L 223.711517 67.707377 
L 223.772714 55.570469 
L 223.826261 66.337724 
L 223.983079 67.539927 
L 224.204919 68.014464 
L 224.246992 68.011351 
L 224.258466 67.95467 
L 224.281415 66.066271 
L 224.327313 55.833871 
L 224.38851 66.53614 
L 224.61035 67.800545 
L 224.793941 68.025999 
L 224.80924 68.006377 
L 224.824539 67.531209 
L 224.862788 59.06386 
L 224.862788 59.06386 
" style="fill:none;stroke:#666666;stroke-linecap:square;stroke-width:0.6;"/>
   </g>
   <g id="line2d_16">
    <path clip-path="url(#p76f25a4668)" d="M 229.452572 17.672 
L 229.452572 11.512 
" style="fill:none;stroke:#000000;stroke-linecap:square;stroke-width:1.5;"/>
   </g>
   <g id="patch_6">
    <path d="M 130.011071 68.184 
L 130.011071 7.2 
" style="fill:none;stroke:#000000;stroke-linecap:square;stroke-linejoin:miter;stroke-width:1.5;"/>
   </g>
   <g id="patch_7">
    <path d="M 130.011071 68.184 
L 230.9825 68.184 
" style="fill:none;stroke:#000000;stroke-linecap:square;stroke-linejoin:miter;stroke-width:1.5;"/>
   </g>
  </g>
 </g>
 <defs>
  <clipPath id="p10e6800af3">
   <rect height="60.984" width="100.971429" x="18.9425" y="7.2"/>
  </clipPath>
  <clipPath id="p76f25a4668">
   <rect height="60.984" width="100.971429" x="130.011071" y="7.2"/>
  </clipPath>
 </defs>
</svg>
