<?xml version="1.0" encoding="utf-8" standalone="no"?>
<!DOCTYPE svg PUBLIC "-//W3C//DTD SVG 1.1//EN"
  "http://www.w3.org/Graphics/SVG/1.1/DTD/svg11.dtd">
<!-- Created with matplotlib (https://matplotlib.org/) -->
<svg height="101.869pt" version="1.1" viewBox="0 0 238.1825 101.869" width="238.1825pt" xmlns="http://www.w3.org/2000/svg" xmlns:xlink="http://www.w3.org/1999/xlink">
 <metadata>
  <rdf:RDF xmlns:cc="http://creativecommons.org/ns#" xmlns:dc="http://purl.org/dc/elements/1.1/" xmlns:rdf="http://www.w3.org/1999/02/22-rdf-syntax-ns#">
   <cc:Work>
    <dc:type rdf:resource="http://purl.org/dc/dcmitype/StillImage"/>
    <dc:date>2020-12-18T15:33:36.749509</dc:date>
    <dc:format>image/svg+xml</dc:format>
    <dc:creator>
     <cc:Agent>
      <dc:title>Matplotlib v3.3.2, https://matplotlib.org/</dc:title>
     </cc:Agent>
    </dc:creator>
   </cc:Work>
  </rdf:RDF>
 </metadata>
 <defs>
  <style type="text/css">*{stroke-linecap:butt;stroke-linejoin:round;}</style>
 </defs>
 <g id="figure_1">
  <g id="patch_1">
   <path d="M 0 101.869 
L 238.1825 101.869 
L 238.1825 0 
L 0 0 
z
" style="fill:none;"/>
  </g>
  <g id="axes_1">
   <g id="patch_2">
    <path d="M 18.9425 68.184 
L 119.913929 68.184 
L 119.913929 7.2 
L 18.9425 7.2 
z
" style="fill:none;"/>
   </g>
   <g id="matplotlib.axis_1">
    <g id="xtick_1">
     <g id="line2d_1">
      <defs>
       <path d="M 0 0 
L 0 3.5 
" id="m538fed99d1" style="stroke:#000000;stroke-width:1.5;"/>
      </defs>
      <g>
       <use style="stroke:#000000;stroke-width:1.5;" x="23.53211" xlink:href="#m538fed99d1" y="68.184"/>
      </g>
     </g>
     <g id="text_1">
      <text style="font-family:DejaVu Sans;font-size:8px;font-stretch:normal;font-style:normal;font-weight:normal;text-anchor:middle;" transform="rotate(-0, 23.53211, 81.26275)" x="23.53211" y="81.26275">0</text>
     </g>
    </g>
    <g id="xtick_2">
     <g id="line2d_2">
      <g>
       <use style="stroke:#000000;stroke-width:1.5;" x="53.143694" xlink:href="#m538fed99d1" y="68.184"/>
      </g>
     </g>
     <g id="text_2">
      <text style="font-family:DejaVu Sans;font-size:8px;font-stretch:normal;font-style:normal;font-weight:normal;text-anchor:middle;" transform="rotate(-0, 53.143694, 81.26275)" x="53.143694" y="81.26275">1</text>
     </g>
    </g>
    <g id="xtick_3">
     <g id="line2d_3">
      <g>
       <use style="stroke:#000000;stroke-width:1.5;" x="82.755278" xlink:href="#m538fed99d1" y="68.184"/>
      </g>
     </g>
     <g id="text_3">
      <text style="font-family:DejaVu Sans;font-size:8px;font-stretch:normal;font-style:normal;font-weight:normal;text-anchor:middle;" transform="rotate(-0, 82.755278, 81.26275)" x="82.755278" y="81.26275">2</text>
     </g>
    </g>
    <g id="xtick_4">
     <g id="line2d_4">
      <g>
       <use style="stroke:#000000;stroke-width:1.5;" x="112.366861" xlink:href="#m538fed99d1" y="68.184"/>
      </g>
     </g>
     <g id="text_4">
      <text style="font-family:DejaVu Sans;font-size:8px;font-stretch:normal;font-style:normal;font-weight:normal;text-anchor:middle;" transform="rotate(-0, 112.366861, 81.26275)" x="112.366861" y="81.26275">3</text>
     </g>
    </g>
    <g id="text_5">
     <text style="font-family:DejaVu Sans;font-size:8px;font-stretch:normal;font-style:normal;font-weight:normal;text-anchor:middle;" transform="rotate(-0, 69.428214, 93.00525)" x="69.428214" y="93.00525">Time (seconds)</text>
    </g>
   </g>
   <g id="matplotlib.axis_2">
    <g id="text_6">
     <text style="font-family:DejaVu Sans;font-size:8px;font-stretch:normal;font-style:normal;font-weight:normal;text-anchor:middle;" transform="rotate(-90, 13.27875, 37.692)" x="13.27875" y="37.692">Energy</text>
    </g>
   </g>
   <g id="line2d_5">
    <path clip-path="url(#p7573cdc7b3)" d="M 23.53211 27.472246 
L 25.405043 27.52423 
L 37.301497 27.527802 
L 49.027684 27.45768 
L 49.060997 26.477454 
L 49.09431 23.280142 
L 49.168339 26.706329 
L 49.34971 27.23447 
L 49.364516 27.184358 
L 49.390426 24.593586 
L 49.42744 19.173169 
L 49.490365 26.308787 
L 49.712452 27.157295 
L 49.727258 27.16217 
L 49.738362 27.108435 
L 49.764272 24.045549 
L 49.801287 18.375657 
L 49.864211 26.365329 
L 50.086298 27.160677 
L 50.119611 27.193645 
L 50.134417 27.119638 
L 50.164028 23.058426 
L 50.197341 18.485699 
L 50.260266 26.487327 
L 50.486054 27.196383 
L 50.541576 27.249065 
L 50.556382 27.188882 
L 50.582292 24.53086 
L 50.619307 18.806903 
L 50.682231 26.591454 
L 50.900617 27.215075 
L 51.000556 27.302867 
L 51.019063 27.20105 
L 51.067182 20.069803 
L 51.081988 19.328344 
L 51.115301 25.111625 
L 51.230045 27.001894 
L 51.481744 27.352113 
L 51.52246 27.329109 
L 51.529863 27.270024 
L 51.563176 23.642964 
L 51.592787 20.266899 
L 51.655712 26.805214 
L 51.888903 27.296374 
L 52.070274 27.386578 
L 52.08508 27.354313 
L 52.11099 26.370989 
L 52.151706 21.061152 
L 52.218332 26.892364 
L 52.458926 27.328451 
L 52.706923 27.404206 
L 52.710625 27.39739 
L 52.72543 27.258364 
L 52.780952 22.191769 
L 52.840175 26.946549 
L 53.073367 27.339034 
L 53.365781 27.430221 
L 53.402795 27.331483 
L 53.462019 22.988183 
L 53.524943 27.024485 
L 53.776642 27.373554 
L 54.10607 27.448765 
L 54.172697 27.351692 
L 54.228218 23.826406 
L 54.294844 27.086068 
L 54.550244 27.392706 
L 54.916688 27.45425 
L 54.979612 27.365266 
L 55.02403 24.589658 
L 55.035134 24.223828 
L 55.090656 27.094432 
L 55.338653 27.393491 
L 55.708797 27.465401 
L 55.975302 27.391069 
L 56.012316 25.889485 
L 56.030823 24.974614 
L 56.108554 27.195327 
L 56.375058 27.427785 
L 56.885858 27.484952 
L 59.288098 27.527535 
L 83.058796 27.425646 
L 83.106915 23.883845 
L 83.121721 23.275515 
L 83.180944 26.616719 
L 83.380822 27.239299 
L 83.388225 27.229644 
L 83.403031 26.750364 
L 83.458553 19.152985 
L 83.517776 26.283099 
L 83.73246 27.144116 
L 83.75837 27.170243 
L 83.773176 27.088357 
L 83.806489 21.876713 
L 83.8361 18.373582 
L 83.895324 26.349355 
L 84.110008 27.144903 
L 84.158126 27.197929 
L 84.172932 27.063483 
L 84.232155 18.486556 
L 84.291379 26.453092 
L 84.491257 27.144854 
L 84.580091 27.251862 
L 84.598599 27.112019 
L 84.657822 18.872552 
L 84.713344 26.537794 
L 84.887312 27.130096 
L 85.039071 27.306748 
L 85.057578 27.238173 
L 85.08719 24.010722 
L 85.120503 19.382324 
L 85.183427 26.70159 
L 85.405514 27.253678 
L 85.553572 27.351889 
L 85.568378 27.309022 
L 85.594288 25.777459 
L 85.635004 20.361515 
L 85.697929 26.812468 
L 85.934821 27.302201 
L 86.112491 27.377565 
L 86.123595 27.339436 
L 86.149505 26.109266 
L 86.190221 21.0435 
L 86.253146 26.884969 
L 86.49374 27.326984 
L 86.726931 27.403649 
L 86.734334 27.390652 
L 86.74914 27.203051 
L 86.804662 21.917214 
L 86.860183 26.92213 
L 87.074867 27.317165 
L 87.367282 27.440168 
L 87.459818 27.34662 
L 87.500534 24.207315 
L 87.519041 23.224185 
L 87.581966 27.038141 
L 87.833664 27.377265 
L 88.15569 27.444964 
L 88.203809 27.320893 
L 88.259331 23.705327 
L 88.318554 27.065187 
L 88.570252 27.385955 
L 88.89598 27.441919 
L 88.929293 27.349041 
L 88.984815 23.611548 
L 89.047739 27.074101 
L 89.303139 27.39225 
L 89.684388 27.470905 
L 92.179164 27.527171 
L 112.36316 27.527849 
L 112.36316 27.527849 
" style="fill:none;stroke:#666666;stroke-linecap:square;stroke-width:0.6;"/>
   </g>
   <g id="line2d_6">
    <path clip-path="url(#p7573cdc7b3)" d="M 23.53211 47.855499 
L 32.123171 47.745831 
L 32.17129 46.040656 
L 32.252722 47.508883 
L 32.497017 47.728388 
L 32.593255 47.71553 
L 32.600658 47.680183 
L 32.630269 45.888177 
L 32.652478 43.643311 
L 32.730209 47.321774 
L 32.9634 47.664983 
L 33.189188 47.725226 
L 33.200292 47.698995 
L 33.2188 47.021142 
L 33.226203 47.097377 
L 33.255814 44.043485 
L 33.333545 47.389901 
L 33.57784 47.690595 
L 33.870255 47.745042 
L 33.873956 47.738077 
L 33.892463 47.424872 
L 33.933179 44.372554 
L 33.999805 47.433189 
L 34.247802 47.714415 
L 34.654961 47.799023 
L 34.747498 47.706282 
L 34.795617 45.294566 
L 34.865944 47.541394 
L 35.128747 47.754323 
L 35.64695 47.820861 
L 35.865335 47.729463 
L 35.906051 46.273537 
L 35.913454 46.177144 
L 35.961573 47.583175 
L 36.239181 47.768995 
L 36.809204 47.819084 
L 36.942456 47.721024 
L 36.986874 46.136951 
L 37.060903 47.622392 
L 37.353317 47.78631 
L 38.056592 47.844427 
L 44.045535 47.855605 
L 64.677406 47.771562 
L 64.710719 46.92386 
L 64.729226 45.894756 
L 64.814359 47.51176 
L 65.058655 47.730726 
L 65.1734 47.716429 
L 65.180803 47.672286 
L 65.210414 45.759095 
L 65.232623 43.726147 
L 65.310353 47.329293 
L 65.547246 47.668531 
L 65.758229 47.723628 
L 65.769333 47.695129 
L 65.795243 46.981467 
L 65.824855 43.877913 
L 65.902585 47.37642 
L 66.146881 47.686158 
L 66.450399 47.737186 
L 66.468907 47.550054 
L 66.513324 44.617029 
L 66.57995 47.441126 
L 66.827947 47.710711 
L 67.19439 47.774641 
L 67.224002 47.657403 
L 67.268419 44.888992 
L 67.338747 47.502049 
L 67.594147 47.739918 
L 68.056828 47.814764 
L 68.186378 47.72545 
L 68.223393 45.934264 
L 68.234497 45.533326 
L 68.308526 47.584066 
L 68.578732 47.772053 
L 69.159859 47.833442 
L 70.74778 47.736822 
L 70.795899 46.511758 
L 70.866227 47.646095 
L 71.173447 47.789809 
L 72.032183 47.841085 
L 78.591149 47.855619 
L 98.490133 47.756371 
L 98.530849 46.144736 
L 98.538252 45.970597 
L 98.604878 47.47501 
L 98.838069 47.717607 
L 98.96762 47.72691 
L 98.978724 47.686629 
L 99.004634 46.581708 
L 99.030544 43.638283 
L 99.108275 47.319373 
L 99.341466 47.664128 
L 99.578359 47.723992 
L 99.585761 47.707031 
L 99.600567 47.445694 
L 99.644985 44.079218 
L 99.711611 47.367351 
L 99.952205 47.68211 
L 100.259425 47.744086 
L 100.281634 47.480994 
L 100.32235 44.58983 
L 100.392677 47.445808 
L 100.640674 47.713502 
L 101.033028 47.781361 
L 101.073744 47.639904 
L 101.118161 45.170469 
L 101.184787 47.515865 
L 101.443888 47.743711 
L 101.925077 47.812834 
L 102.028717 47.706691 
L 102.073135 45.604802 
L 102.143462 47.5777 
L 102.413668 47.769205 
L 102.991094 47.830216 
L 104.197766 47.696426 
L 104.242183 46.66934 
L 104.312511 47.644119 
L 104.627134 47.786433 
L 104.915847 47.738888 
L 104.945458 46.762429 
L 104.967667 45.217631 
L 105.049099 47.60443 
L 105.323006 47.783088 
L 105.955953 47.843652 
L 109.957219 47.855596 
L 112.36316 47.855569 
L 112.36316 47.855569 
" style="fill:none;stroke:#666666;stroke-linecap:square;stroke-width:0.6;"/>
   </g>
   <g id="line2d_7">
    <path clip-path="url(#p7573cdc7b3)" d="M 23.53211 68.183208 
L 37.075708 68.110405 
L 37.112723 66.666251 
L 37.149737 62.991901 
L 37.220065 66.752519 
L 37.408839 67.825695 
L 37.41254 67.823912 
L 37.427346 67.657282 
L 37.482868 62.179594 
L 37.545792 66.782201 
L 37.756775 67.840131 
L 37.775282 67.752909 
L 37.838207 60.958804 
L 37.904833 66.853639 
L 38.130621 67.879343 
L 38.160233 67.900485 
L 38.175038 67.827436 
L 38.208352 63.944172 
L 38.241665 60.612784 
L 38.300888 66.899711 
L 38.515572 67.860242 
L 38.608108 67.963628 
L 38.626615 67.863943 
L 38.693241 60.816773 
L 38.756166 67.058435 
L 38.989357 67.917745 
L 39.104102 68.008341 
L 39.122609 67.936384 
L 39.155922 64.811939 
L 39.189235 61.18207 
L 39.25216 67.149308 
L 39.48165 67.926332 
L 39.670423 68.058 
L 39.685229 68.031413 
L 39.711139 67.270251 
L 39.759258 61.910178 
L 39.822183 67.262287 
L 40.062777 67.966335 
L 40.281162 68.075195 
L 40.288565 68.067816 
L 40.307073 67.889076 
L 40.369997 62.435827 
L 40.421817 67.263389 
L 40.621696 67.91126 
L 40.865991 68.09791 
L 40.980736 68.070009 
L 40.984437 68.047065 
L 41.017751 66.294125 
L 41.051064 63.007646 
L 41.121391 67.413324 
L 41.365687 68.007639 
L 41.628489 68.112708 
L 41.68031 68.004026 
L 41.743234 63.144269 
L 41.806159 67.399795 
L 42.046753 68.002728 
L 42.313257 68.117617 
L 42.394689 68.026031 
L 42.439107 64.512767 
L 42.457614 63.397812 
L 42.520538 67.422984 
L 42.761133 68.010255 
L 43.031338 68.123145 
L 43.127576 68.058048 
L 43.160889 66.522295 
L 43.194202 63.468797 
L 43.264529 67.467877 
L 43.508825 68.025545 
L 43.790135 68.128989 
L 43.908581 68.04419 
L 43.949297 65.268777 
L 43.975207 63.565931 
L 44.041833 67.467008 
L 44.282428 68.024575 
L 44.563738 68.130886 
L 44.711796 68.066105 
L 44.745109 66.628038 
L 44.778422 63.799199 
L 44.848749 67.496368 
L 45.089343 68.033866 
L 45.370653 68.130684 
L 45.470592 68.067873 
L 45.503905 66.579681 
L 45.537218 63.66743 
L 45.607546 67.485047 
L 45.84814 68.031846 
L 46.133152 68.136245 
L 46.351537 68.073583 
L 46.38485 66.789351 
L 46.418163 63.974832 
L 46.488491 67.505467 
L 46.729085 68.040568 
L 47.021499 68.140052 
L 47.273198 68.088631 
L 47.306511 67.026404 
L 47.343525 63.954633 
L 47.410151 67.487358 
L 47.647044 68.037011 
L 47.932055 68.138639 
L 48.124531 68.047324 
L 48.187455 63.994799 
L 48.257783 67.497112 
L 48.494675 68.039564 
L 48.779687 68.139518 
L 50.078895 68.181112 
L 64.566362 68.183387 
L 71.132731 68.108998 
L 71.169746 66.639053 
L 71.20676 62.81569 
L 71.277088 66.710019 
L 71.46216 67.810521 
L 71.469563 67.80041 
L 71.484369 67.251018 
L 71.536189 62.04741 
L 71.599114 66.764772 
L 71.810096 67.841848 
L 71.8212 67.836871 
L 71.832305 67.739851 
L 71.895229 60.985679 
L 71.958154 66.830432 
L 72.183942 67.875214 
L 72.213554 67.895065 
L 72.22836 67.8167 
L 72.265374 63.136192 
L 72.291284 60.607937 
L 72.354209 66.905466 
L 72.572594 67.868936 
L 72.661429 67.960295 
L 72.676235 67.899839 
L 72.705846 65.211396 
L 72.742861 60.806201 
L 72.805786 67.044009 
L 73.031574 67.903045 
L 73.157423 68.013662 
L 73.17593 67.955925 
L 73.205542 65.744472 
L 73.242556 61.239393 
L 73.305481 67.145264 
L 73.531269 67.920602 
L 73.71264 68.052437 
L 73.727446 68.029893 
L 73.742252 67.677132 
L 73.801475 61.852223 
L 73.853295 67.156619 
L 74.027263 67.833162 
L 74.264156 68.077945 
L 74.345588 68.062842 
L 74.352991 68.02369 
L 74.382602 66.519345 
L 74.419617 62.467412 
L 74.486243 67.339176 
L 74.730538 67.988283 
L 74.982237 68.100689 
L 75.019251 68.027468 
L 75.056266 65.412342 
L 75.085877 62.922996 
L 75.152504 67.399819 
L 75.396799 68.003672 
L 75.667005 68.11647 
L 75.737332 68.050088 
L 75.770645 66.373662 
L 75.803958 63.271867 
L 75.874286 67.445928 
L 76.118581 68.017105 
L 76.392489 68.117291 
L 76.440607 68.028 
L 76.485025 64.403424 
L 76.507233 63.189466 
L 76.566457 67.403134 
L 76.807051 68.00525 
L 77.080958 68.125905 
L 77.229016 68.062736 
L 77.262329 66.54545 
L 77.295642 63.595667 
L 77.365969 67.477642 
L 77.606564 68.02582 
L 77.884172 68.128339 
L 77.987813 68.061947 
L 78.021126 66.505242 
L 78.054439 63.573757 
L 78.124766 67.477253 
L 78.36536 68.027306 
L 78.64667 68.131277 
L 78.776221 68.057242 
L 78.813236 65.92051 
L 78.842847 63.662148 
L 78.913175 67.487791 
L 79.153769 68.031653 
L 79.43878 68.135163 
L 79.627554 68.062113 
L 79.664569 66.063235 
L 79.69418 63.879667 
L 79.764508 67.502304 
L 80.005102 68.038174 
L 80.290113 68.13379 
L 80.386351 68.023385 
L 80.449276 63.610796 
L 80.5122 67.442163 
L 80.752794 68.024736 
L 81.030403 68.135005 
L 81.256191 68.07404 
L 81.293206 66.282134 
L 81.322817 64.118391 
L 81.393145 67.521394 
L 81.630037 68.042028 
L 81.915049 68.137813 
L 82.09642 68.071768 
L 82.133434 66.207814 
L 82.163046 64.030265 
L 82.233373 67.511031 
L 82.470266 68.041198 
L 82.758979 68.140309 
L 83.114318 68.071081 
L 83.151333 66.5635 
L 83.180944 64.588034 
L 83.251272 67.555391 
L 83.484463 68.050831 
L 83.780579 68.149104 
L 85.146413 68.182687 
L 105.707956 68.152204 
L 105.730165 67.955995 
L 105.796791 62.884507 
L 105.741269 68.086627 
L 105.852313 66.517559 
L 106.041087 67.810967 
L 106.052191 67.810204 
L 106.063295 67.71914 
L 106.122519 62.065509 
L 106.189145 66.84535 
L 106.400127 67.863574 
L 106.418634 67.779776 
L 106.481559 60.920863 
L 106.548185 66.876587 
L 106.773973 67.894563 
L 106.818391 67.93229 
L 106.833197 67.859235 
L 106.870211 63.410156 
L 106.899823 60.739319 
L 106.959046 66.937685 
L 107.17373 67.874665 
L 107.284773 67.989748 
L 107.30328 67.90542 
L 107.343996 63.135591 
L 107.369907 61.088216 
L 107.42913 67.069999 
L 107.647515 67.901433 
L 107.810379 68.039279 
L 107.825185 68.010332 
L 107.836289 67.736489 
L 107.895512 61.569458 
L 107.947332 67.069755 
L 108.106495 67.78124 
L 108.339686 68.067262 
L 108.406312 68.048813 
L 108.413715 68.008698 
L 108.443326 66.314319 
L 108.480341 62.110134 
L 108.546967 67.293274 
L 108.787561 67.976956 
L 109.03926 68.103193 
L 109.087378 68.039567 
L 109.120691 66.175484 
L 109.154004 62.959334 
L 109.220631 67.384568 
L 109.464926 68.004179 
L 109.724027 68.111746 
L 109.775848 68.043439 
L 109.809161 66.227995 
L 109.842474 63.133746 
L 109.9091 67.412637 
L 110.153395 68.011554 
L 110.427303 68.122643 
L 110.508734 68.019243 
L 110.571659 63.313191 
L 110.638285 67.427032 
L 110.878879 68.01324 
L 111.152786 68.127735 
L 111.293441 68.064995 
L 111.326754 66.54851 
L 111.360067 63.550802 
L 111.430395 67.467284 
L 111.670989 68.025313 
L 111.952299 68.131022 
L 112.089253 68.049483 
L 112.129969 65.32886 
L 112.155879 63.69831 
L 112.222505 67.471503 
L 112.36316 67.894541 
L 112.36316 67.894541 
" style="fill:none;stroke:#666666;stroke-linecap:square;stroke-width:0.6;"/>
   </g>
   <g id="line2d_8">
    <path clip-path="url(#p7573cdc7b3)" d="M 115.324318 65.72 
L 115.324318 59.56 
" style="fill:none;stroke:#000000;stroke-linecap:square;stroke-width:1.5;"/>
   </g>
   <g id="patch_3">
    <path d="M 18.9425 68.184 
L 18.9425 7.2 
" style="fill:none;stroke:#000000;stroke-linecap:square;stroke-linejoin:miter;stroke-width:1.5;"/>
   </g>
   <g id="patch_4">
    <path d="M 18.9425 68.184 
L 119.913929 68.184 
" style="fill:none;stroke:#000000;stroke-linecap:square;stroke-linejoin:miter;stroke-width:1.5;"/>
   </g>
  </g>
  <g id="axes_2">
   <g id="patch_5">
    <path d="M 130.011071 68.184 
L 230.9825 68.184 
L 230.9825 7.2 
L 130.011071 7.2 
z
" style="fill:none;"/>
   </g>
   <g id="matplotlib.axis_3">
    <g id="xtick_5">
     <g id="line2d_9">
      <g>
       <use style="stroke:#000000;stroke-width:1.5;" x="134.600682" xlink:href="#m538fed99d1" y="68.184"/>
      </g>
     </g>
     <g id="text_7">
      <text style="font-family:DejaVu Sans;font-size:8px;font-stretch:normal;font-style:normal;font-weight:normal;text-anchor:middle;" transform="rotate(-0, 134.600682, 81.26275)" x="134.600682" y="81.26275">0</text>
     </g>
    </g>
    <g id="xtick_6">
     <g id="line2d_10">
      <g>
       <use style="stroke:#000000;stroke-width:1.5;" x="164.212265" xlink:href="#m538fed99d1" y="68.184"/>
      </g>
     </g>
     <g id="text_8">
      <text style="font-family:DejaVu Sans;font-size:8px;font-stretch:normal;font-style:normal;font-weight:normal;text-anchor:middle;" transform="rotate(-0, 164.212265, 81.26275)" x="164.212265" y="81.26275">1</text>
     </g>
    </g>
    <g id="xtick_7">
     <g id="line2d_11">
      <g>
       <use style="stroke:#000000;stroke-width:1.5;" x="193.823849" xlink:href="#m538fed99d1" y="68.184"/>
      </g>
     </g>
     <g id="text_9">
      <text style="font-family:DejaVu Sans;font-size:8px;font-stretch:normal;font-style:normal;font-weight:normal;text-anchor:middle;" transform="rotate(-0, 193.823849, 81.26275)" x="193.823849" y="81.26275">2</text>
     </g>
    </g>
    <g id="xtick_8">
     <g id="line2d_12">
      <g>
       <use style="stroke:#000000;stroke-width:1.5;" x="223.435433" xlink:href="#m538fed99d1" y="68.184"/>
      </g>
     </g>
     <g id="text_10">
      <text style="font-family:DejaVu Sans;font-size:8px;font-stretch:normal;font-style:normal;font-weight:normal;text-anchor:middle;" transform="rotate(-0, 223.435433, 81.26275)" x="223.435433" y="81.26275">3</text>
     </g>
    </g>
    <g id="text_11">
     <text style="font-family:DejaVu Sans;font-size:8px;font-stretch:normal;font-style:normal;font-weight:normal;text-anchor:middle;" transform="rotate(-0, 180.496786, 93.00525)" x="180.496786" y="93.00525">Time (seconds)</text>
    </g>
   </g>
   <g id="matplotlib.axis_4"/>
   <g id="line2d_13">
    <path clip-path="url(#pd326141097)" d="M 134.600682 27.46276 
L 136.425496 27.527922 
L 159.655783 27.44156 
L 159.670589 27.47962 
L 159.696499 24.763229 
L 159.733513 19.916676 
L 159.803841 25.336698 
L 159.90378 26.504487 
L 159.918586 25.895952 
L 159.963003 20.357074 
L 160.029629 25.523515 
L 160.118464 26.418539 
L 160.13327 25.680701 
L 160.177687 20.390263 
L 160.244313 25.684525 
L 160.329447 26.463729 
L 160.344252 26.141259 
L 160.38867 20.07925 
L 160.455296 25.740716 
L 160.555235 26.552332 
L 160.566339 26.327502 
L 160.618159 19.185118 
L 160.677383 25.734623 
L 160.79953 26.669801 
L 160.814336 26.200884 
L 160.866156 17.85387 
L 160.92538 25.704457 
L 161.077139 26.78865 
L 161.088243 26.675474 
L 161.147467 16.636026 
L 161.210391 25.784071 
L 161.380658 26.896657 
L 161.391762 26.908947 
L 161.402866 26.815108 
L 161.443582 18.416382 
L 161.465791 16.070897 
L 161.517611 24.948372 
L 161.639759 26.680296 
L 161.739698 27.012936 
L 161.754504 26.859331 
L 161.817429 16.104655 
L 161.87295 25.635535 
L 162.002501 26.777916 
L 162.117246 27.093232 
L 162.135753 26.886099 
L 162.198678 16.404274 
L 162.250498 25.470873 
L 162.372646 26.778714 
L 162.531808 27.165786 
L 162.550315 27.042018 
L 162.616941 17.171894 
L 162.672463 26.088038 
L 162.813118 26.92024 
L 162.979683 27.22538 
L 162.998191 27.186339 
L 163.012996 26.036888 
L 163.016698 26.268668 
L 163.068518 18.298297 
L 163.12404 26.220255 
L 163.268396 26.977495 
L 163.464573 27.271242 
L 163.479379 27.252896 
L 163.494185 27.035051 
L 163.557109 19.28517 
L 163.608929 26.326309 
L 163.756987 27.026919 
L 163.979074 27.305261 
L 164.016089 27.213128 
L 164.053103 23.185281 
L 164.082715 20.411045 
L 164.141938 26.538015 
L 164.364025 27.226197 
L 164.549097 27.330767 
L 164.563903 27.309577 
L 164.578709 27.081842 
L 164.637932 21.294664 
L 164.693454 26.577606 
L 164.900735 27.223819 
L 165.126523 27.355574 
L 165.178343 27.276621 
L 165.211656 24.989749 
L 165.241268 22.252968 
L 165.307894 26.714892 
L 165.544787 27.295702 
L 165.781679 27.355759 
L 165.803888 27.16517 
L 165.863111 22.674366 
L 165.918633 26.711447 
L 166.148123 27.295475 
L 166.410926 27.395457 
L 167.069783 27.484224 
L 169.375785 27.527951 
L 193.10947 27.444398 
L 193.124275 27.472305 
L 193.150186 24.769468 
L 193.1872 19.887577 
L 193.257528 25.259386 
L 193.350064 26.400223 
L 193.36487 25.780312 
L 193.409287 20.756229 
L 193.475913 25.521303 
L 193.549942 26.286273 
L 193.564748 25.464107 
L 193.605464 21.332559 
L 193.67209 25.716188 
L 193.735014 26.310176 
L 193.753522 25.343934 
L 193.790536 21.676109 
L 193.860864 25.891693 
L 193.923788 26.395191 
L 193.938594 25.746548 
L 193.97931 21.644426 
L 194.045936 25.965813 
L 194.116263 26.484104 
L 194.131069 25.8465 
L 194.171785 21.021956 
L 194.238411 25.968324 
L 194.323545 26.591631 
L 194.33835 26.38583 
L 194.386469 19.644471 
L 194.449394 25.89385 
L 194.56784 26.703185 
L 194.582646 26.381686 
L 194.638168 17.815464 
L 194.693689 25.765023 
L 194.852852 26.823398 
L 194.863956 26.715772 
L 194.926881 16.420709 
L 194.986104 25.818348 
L 195.145266 26.866819 
L 195.174878 26.938722 
L 195.193385 26.649439 
L 195.256309 15.968488 
L 195.30813 25.488886 
L 195.433979 26.727305 
L 195.537619 27.037265 
L 195.556127 26.798749 
L 195.619051 16.251942 
L 195.670872 25.518555 
L 195.796721 26.770351 
L 195.926272 27.114948 
L 195.944779 27.02691 
L 195.97439 22.49525 
L 196.011405 16.649585 
L 196.070628 26.061605 
L 196.214984 26.905665 
L 196.355639 27.182464 
L 196.377848 27.074995 
L 196.422266 19.692545 
L 196.444474 17.680765 
L 196.492593 25.769539 
L 196.618442 26.862384 
L 196.814619 27.232733 
L 196.829425 27.212719 
L 196.844231 26.785405 
L 196.907155 18.538033 
L 196.955274 26.129212 
L 197.088526 26.939908 
L 197.310613 27.275317 
L 197.340225 27.131675 
L 197.403149 19.688535 
L 197.458671 26.413102 
L 197.628938 27.096398 
L 197.836219 27.29933 
L 197.83992 27.295941 
L 197.862129 27.193825 
L 197.906546 21.882879 
L 197.925053 20.525436 
L 197.980575 26.496224 
L 198.161946 27.149449 
L 198.384033 27.333169 
L 198.432152 27.241693 
L 198.469166 23.901243 
L 198.495076 21.578454 
L 198.561702 26.659253 
L 198.802297 27.277294 
L 199.028085 27.341546 
L 199.031786 27.337408 
L 199.050294 27.197351 
L 199.109517 22.603714 
L 199.16874 26.714851 
L 199.401931 27.289566 
L 199.568496 27.338872 
L 199.579601 27.318222 
L 199.594406 26.863572 
L 199.649928 21.814572 
L 199.70545 26.630661 
L 199.920134 27.256391 
L 200.168131 27.388415 
L 200.823287 27.479921 
L 203.014544 27.527956 
L 223.431731 27.527883 
L 223.431731 27.527883 
" style="fill:none;stroke:#666666;stroke-linecap:square;stroke-width:0.6;"/>
   </g>
   <g id="line2d_14">
    <path clip-path="url(#pd326141097)" d="M 134.600682 47.854714 
L 141.788894 47.749111 
L 141.844415 44.654862 
L 141.918444 47.339665 
L 142.147934 47.703908 
L 142.210859 47.711977 
L 142.225665 47.631077 
L 142.262679 43.010534 
L 142.281186 41.120195 
L 142.347812 47.081887 
L 142.573601 47.615403 
L 142.714256 47.701191 
L 142.729062 47.658674 
L 142.754972 46.070788 
L 142.788285 40.983884 
L 142.858612 47.165942 
L 143.091803 47.639854 
L 143.269473 47.723142 
L 143.284279 47.677399 
L 143.310189 46.225857 
L 143.343502 41.442438 
L 143.413829 47.257234 
L 143.654424 47.672745 
L 143.887615 47.752031 
L 143.898719 47.727151 
L 143.924629 47.010214 
L 143.961644 42.064025 
L 144.031971 47.339997 
L 144.272565 47.698107 
L 144.587188 47.78033 
L 144.613099 47.681972 
L 144.66862 43.019428 
L 144.731545 47.405012 
L 144.97584 47.719726 
L 145.338582 47.80626 
L 145.416313 47.701927 
L 145.468133 43.825556 
L 145.534759 47.470261 
L 145.786458 47.741706 
L 146.186214 47.813623 
L 146.282452 47.739083 
L 146.315765 46.056959 
L 146.337973 44.353542 
L 146.415704 47.534175 
L 146.682208 47.764354 
L 147.159695 47.824267 
L 147.37808 47.720809 
L 147.426199 45.150858 
L 147.496526 47.566661 
L 147.766732 47.774513 
L 148.277532 47.825971 
L 148.507022 47.737475 
L 148.551439 45.439279 
L 148.558842 45.33058 
L 148.584752 47.411939 
L 148.710601 47.677331 
L 149.032627 47.809235 
L 150.094943 47.853059 
L 165.226462 47.854719 
L 174.021103 47.752195 
L 174.06552 44.972558 
L 174.076624 44.696916 
L 174.128445 47.268843 
L 174.34683 47.68209 
L 174.446769 47.714103 
L 174.457873 47.6699 
L 174.483784 46.004134 
L 174.517097 41.033256 
L 174.587424 47.106009 
L 174.816914 47.626314 
L 174.957569 47.706516 
L 174.976076 47.635753 
L 175.005688 44.793163 
L 175.035299 41.102123 
L 175.105627 47.18989 
L 175.342519 47.650084 
L 175.52389 47.727835 
L 175.534995 47.697019 
L 175.560905 46.621845 
L 175.597919 41.61088 
L 175.664545 47.263961 
L 175.901438 47.672084 
L 176.145734 47.754855 
L 176.153137 47.742752 
L 176.167942 47.567098 
L 176.219763 42.246008 
L 176.278986 47.317405 
L 176.512177 47.687713 
L 176.841606 47.789093 
L 176.87862 47.706711 
L 176.911933 45.195362 
L 176.934142 42.968803 
L 177.008171 47.428892 
L 177.256168 47.728123 
L 177.626313 47.806465 
L 177.685536 47.698674 
L 177.737356 43.785294 
L 177.803982 47.471057 
L 178.055681 47.742234 
L 178.466542 47.818341 
L 178.622002 47.750619 
L 178.655315 46.26125 
L 178.677524 44.592939 
L 178.755254 47.547257 
L 179.021759 47.767692 
L 179.491843 47.817767 
L 179.554767 47.706994 
L 179.606587 44.561635 
L 179.669512 47.530668 
L 179.932315 47.764287 
L 180.409802 47.829137 
L 180.953915 47.746421 
L 180.990929 46.103875 
L 181.005735 45.45351 
L 181.083465 47.607475 
L 181.368477 47.790205 
L 182.001424 47.846116 
L 185.451174 47.855168 
L 207.726488 47.725522 
L 207.778308 44.631762 
L 207.848635 47.316394 
L 208.074424 47.695908 
L 208.148453 47.707867 
L 208.159557 47.654732 
L 208.185467 45.827325 
L 208.21878 41.089238 
L 208.289108 47.099218 
L 208.518597 47.622371 
L 208.65185 47.694782 
L 208.666655 47.620911 
L 208.699968 43.807537 
L 208.725879 41.022116 
L 208.792505 47.157889 
L 209.025696 47.636518 
L 209.203365 47.717898 
L 209.21447 47.683896 
L 209.229275 46.865584 
L 209.236678 46.971657 
L 209.277394 41.618858 
L 209.34402 47.2532 
L 209.584614 47.670111 
L 209.799298 47.739589 
L 209.806701 47.719689 
L 209.832611 46.995101 
L 209.869626 41.967233 
L 209.939953 47.327021 
L 210.180548 47.693352 
L 210.484066 47.77002 
L 210.506275 47.645291 
L 210.558095 42.950304 
L 210.62102 47.389493 
L 210.865315 47.714954 
L 211.220654 47.799424 
L 211.265072 47.712557 
L 211.305788 44.258871 
L 211.320594 43.448463 
L 211.383518 47.445871 
L 211.631515 47.733536 
L 212.020167 47.815198 
L 212.153419 47.745393 
L 212.186732 46.157264 
L 212.208941 44.358172 
L 212.286671 47.532079 
L 212.549474 47.762164 
L 213.004752 47.817905 
L 213.093587 47.739757 
L 213.130602 45.66544 
L 213.145407 44.742063 
L 213.223138 47.556913 
L 213.493343 47.771784 
L 213.993039 47.824296 
L 214.126291 47.743944 
L 214.163306 45.836418 
L 214.178111 44.976838 
L 214.255842 47.577661 
L 214.529749 47.779137 
L 215.088668 47.832519 
L 223.409523 47.855134 
L 223.431731 47.855132 
L 223.431731 47.855132 
" style="fill:none;stroke:#666666;stroke-linecap:square;stroke-width:0.6;"/>
   </g>
   <g id="line2d_15">
    <path clip-path="url(#pd326141097)" d="M 134.600682 68.182426 
L 149.184387 68.078506 
L 149.199193 68.080211 
L 149.221401 64.255086 
L 149.258416 56.259992 
L 149.328743 64.70146 
L 149.476801 67.152334 
L 149.487905 66.984596 
L 149.536024 58.656286 
L 149.606352 65.685632 
L 149.739604 67.270004 
L 149.758111 66.590927 
L 149.802529 57.915874 
L 149.869155 65.719499 
L 150.020914 67.362666 
L 150.03572 67.090117 
L 150.08754 56.334331 
L 150.150465 65.718765 
L 150.328134 67.479976 
L 150.339239 67.386662 
L 150.36885 59.716977 
L 150.398462 54.61253 
L 150.461386 65.760566 
L 150.664966 67.587651 
L 150.672369 67.560738 
L 150.687175 66.136733 
L 150.738995 53.295169 
L 150.798218 65.759513 
L 151.001798 67.616445 
L 151.035111 67.692069 
L 151.049917 67.595904 
L 151.079528 60.18858 
L 151.112841 52.973513 
L 151.172064 65.876968 
L 151.368241 67.604926 
L 151.431166 67.770559 
L 151.449673 67.623208 
L 151.512598 52.91625 
L 151.575522 66.07596 
L 151.793908 67.714226 
L 151.856832 67.832997 
L 151.871638 67.745909 
L 151.897548 62.793809 
L 151.938264 53.242667 
L 151.997487 66.151228 
L 152.204768 67.688862 
L 152.297304 67.884091 
L 152.319513 67.729028 
L 152.382438 53.613106 
L 152.441661 66.221245 
L 152.641539 67.675775 
L 152.763687 67.920138 
L 152.782194 67.854267 
L 152.804403 65.109268 
L 152.84882 54.174066 
L 152.908043 66.318769 
L 153.115324 67.721166 
L 153.241174 67.942239 
L 153.259681 67.846957 
L 153.289293 62.339978 
L 153.326307 54.240415 
L 153.389232 66.424653 
L 153.618721 67.804008 
L 153.740869 67.970811 
L 153.759376 67.889703 
L 153.785287 64.175519 
L 153.826002 54.912807 
L 153.888927 66.488941 
L 154.122118 67.828235 
L 154.236863 67.979543 
L 154.259072 67.913677 
L 154.281281 65.7069 
L 154.325698 54.926995 
L 154.388623 66.487471 
L 154.614411 67.809857 
L 154.758767 67.995924 
L 154.777275 67.92133 
L 154.803185 64.651378 
L 154.843901 55.345373 
L 154.906825 66.536608 
L 155.140017 67.840304 
L 155.280672 68.003681 
L 155.299179 67.942643 
L 155.321387 65.968107 
L 155.365805 55.600491 
L 155.428729 66.552045 
L 155.658219 67.836958 
L 155.806277 68.012194 
L 155.824784 67.957173 
L 155.846993 66.230089 
L 155.89141 55.666774 
L 155.954335 66.548238 
L 156.183825 67.837551 
L 156.346689 68.023746 
L 156.365196 67.983475 
L 156.387404 66.6621 
L 156.435523 56.170056 
L 156.498448 66.611699 
L 156.735341 67.870737 
L 156.883398 68.021953 
L 156.901906 67.97518 
L 156.924114 66.493878 
L 156.972233 56.259913 
L 157.031456 66.588388 
L 157.260946 67.851956 
L 157.42381 68.031872 
L 157.442317 68.000055 
L 157.453421 67.656991 
L 157.512645 56.322147 
L 157.568166 66.516983 
L 157.768045 67.762478 
L 157.964221 68.035525 
L 157.975326 68.028928 
L 157.993833 67.919833 
L 158.030847 60.854923 
L 158.056757 56.474139 
L 158.119682 66.613157 
L 158.352873 67.869167 
L 158.519438 68.041513 
L 158.537946 68.007605 
L 158.54905 67.682171 
L 158.608273 56.611459 
L 158.663795 66.538605 
L 158.867375 67.783005 
L 159.067253 68.038861 
L 159.074656 68.034053 
L 159.093163 67.901026 
L 159.156088 56.638934 
L 159.219012 66.633892 
L 159.452203 67.876516 
L 159.629873 68.052342 
L 159.64838 68.031357 
L 159.663186 67.661044 
L 159.722409 57.203384 
L 159.777931 66.596049 
L 159.988913 67.806531 
L 160.211 68.076328 
L 160.69589 68.165027 
L 162.080231 68.18264 
L 181.364775 68.09629 
L 181.379581 68.101885 
L 181.398088 65.759383 
L 181.442506 56.238397 
L 181.509132 64.647393 
L 181.660891 67.162084 
L 181.671995 66.998656 
L 181.720114 58.628508 
L 181.790442 65.672415 
L 181.927395 67.264051 
L 181.942201 66.731297 
L 181.99032 57.831218 
L 182.053245 65.689289 
L 182.208705 67.365655 
L 182.223511 66.892306 
L 182.275331 56.286624 
L 182.338256 65.732774 
L 182.515926 67.472284 
L 182.52703 67.317101 
L 182.582552 54.536136 
L 182.649178 65.773925 
L 182.852757 67.586367 
L 182.86016 67.561208 
L 182.874966 66.138033 
L 182.926786 53.430439 
L 182.986009 65.760817 
L 183.189589 67.614602 
L 183.219201 67.684698 
L 183.237708 67.498453 
L 183.296931 52.986223 
L 183.356154 65.838923 
L 183.544928 67.565914 
L 183.618957 67.770245 
L 183.637464 67.498866 
L 183.696687 53.020438 
L 183.752209 65.860863 
L 183.911371 67.428473 
L 184.037221 67.826999 
L 184.055728 67.672935 
L 184.118653 53.177813 
L 184.181577 66.180751 
L 184.399963 67.729039 
L 184.481394 67.875466 
L 184.499902 67.725334 
L 184.562826 53.705324 
L 184.625751 66.285974 
L 184.847838 67.758553 
L 184.940374 67.916066 
L 184.962583 67.768756 
L 185.025507 54.050839 
L 185.088432 66.356027 
L 185.31422 67.781307 
L 185.417861 67.94399 
L 185.440069 67.828086 
L 185.473382 60.670359 
L 185.502994 54.39114 
L 185.565919 66.397984 
L 185.788006 67.779706 
L 185.910153 67.960604 
L 185.928661 67.88395 
L 185.954571 64.143373 
L 185.995287 54.70251 
L 186.058211 66.471401 
L 186.287701 67.814211 
L 186.409849 67.97903 
L 186.432058 67.885981 
L 186.457968 64.168795 
L 186.498684 55.052444 
L 186.561608 66.517956 
L 186.794799 67.834034 
L 186.920649 67.987791 
L 186.939156 67.916716 
L 186.965066 64.579743 
L 187.005782 55.100479 
L 187.068707 66.519361 
L 187.298196 67.826034 
L 187.438851 68.000601 
L 187.457359 67.946611 
L 187.479567 66.125471 
L 187.527686 55.348353 
L 187.586909 66.523472 
L 187.812698 67.820049 
L 187.968158 68.013047 
L 187.986666 67.983958 
L 187.99777 67.701087 
L 188.056993 55.842452 
L 188.112515 66.465309 
L 188.301289 67.707042 
L 188.497465 68.017188 
L 188.50857 68.008402 
L 188.527077 67.674678 
L 188.5863 55.808146 
L 188.641822 66.46707 
L 188.830596 67.708812 
L 189.041578 68.026747 
L 189.063787 67.931814 
L 189.093399 63.436702 
L 189.130413 56.17693 
L 189.193338 66.623553 
L 189.43023 67.873897 
L 189.578288 68.021812 
L 189.593094 67.975313 
L 189.615303 66.523265 
L 189.663422 56.074769 
L 189.722645 66.574409 
L 189.948433 67.840023 
L 190.1187 68.029863 
L 190.133505 68.004553 
L 190.14461 67.782878 
L 190.203833 56.304415 
L 190.259355 66.496778 
L 190.45183 67.736066 
L 190.659111 68.037512 
L 190.662813 68.036128 
L 190.688723 67.968559 
L 190.714633 65.294961 
L 190.755349 56.620667 
L 190.818273 66.639459 
L 191.051465 67.875115 
L 191.210627 68.0379 
L 191.229134 68.010262 
L 191.240238 67.769625 
L 191.299462 56.518196 
L 191.354983 66.516777 
L 191.55116 67.756491 
L 191.762143 68.042196 
L 191.788053 67.931182 
L 191.825067 60.959844 
L 191.850977 56.67508 
L 191.913902 66.630131 
L 192.147093 67.876166 
L 192.321061 68.044252 
L 192.335867 68.020868 
L 192.346971 67.841847 
L 192.409896 56.893698 
L 192.465418 66.588155 
L 192.683803 67.836322 
L 192.87998 68.051715 
L 192.887383 68.045742 
L 192.90589 67.918573 
L 192.968815 56.955734 
L 193.035441 66.689956 
L 193.268632 67.878018 
L 193.501823 68.094592 
L 194.023727 68.170526 
L 195.892958 68.182682 
L 215.177502 68.057956 
L 215.188607 68.071699 
L 215.22192 61.231565 
L 215.251531 56.231295 
L 215.321859 64.740467 
L 215.469917 67.168773 
L 215.484722 66.93735 
L 215.532841 58.626637 
L 215.603169 65.685389 
L 215.740122 67.268563 
L 215.754928 66.923736 
L 215.803047 57.883405 
L 215.869673 65.740292 
L 216.021432 67.366821 
L 216.036238 67.113098 
L 216.088059 56.321387 
L 216.150983 65.696763 
L 216.328653 67.475486 
L 216.343458 67.308824 
L 216.39898 54.691342 
L 216.465606 65.789143 
L 216.665484 67.577047 
L 216.676589 67.532282 
L 216.695096 64.695265 
L 216.739513 53.461126 
L 216.802438 65.806815 
L 217.017122 67.653576 
L 217.035629 67.682843 
L 217.050435 67.538961 
L 217.11336 53.091494 
L 217.176284 65.972041 
L 217.398371 67.706218 
L 217.431684 67.760491 
L 217.44649 67.615078 
L 217.509415 53.093973 
L 217.572339 66.083959 
L 217.794426 67.725811 
L 217.849948 67.821216 
L 217.864754 67.687788 
L 217.912872 54.691166 
L 217.927678 53.236302 
L 217.968394 63.379711 
L 218.08684 67.116857 
L 218.283017 67.86872 
L 218.297823 67.833257 
L 218.31633 66.453142 
L 218.36815 53.5053 
L 218.427374 66.222482 
L 218.630953 67.686572 
L 218.741997 67.908076 
L 218.764205 67.75458 
L 218.82713 53.930548 
L 218.886353 66.292476 
L 219.089933 67.701011 
L 219.215782 67.942083 
L 219.237991 67.866464 
L 219.260199 65.196762 
L 219.304617 54.293717 
L 219.36384 66.359691 
L 219.571121 67.727482 
L 219.711776 67.958946 
L 219.726582 67.908426 
L 219.745089 66.598385 
L 219.793208 54.746802 
L 219.856133 66.449013 
L 220.078219 67.790173 
L 220.20777 67.973425 
L 220.226277 67.896422 
L 220.252187 64.265082 
L 220.292903 54.80654 
L 220.355828 66.493603 
L 220.585318 67.818437 
L 220.722271 67.992585 
L 220.740779 67.925217 
L 220.762987 65.777602 
L 220.807405 55.318532 
L 220.870329 66.53117 
L 221.099819 67.829212 
L 221.247877 68.008023 
L 221.266384 67.937285 
L 221.292294 64.850324 
L 221.33301 55.674915 
L 221.395935 66.564646 
L 221.629126 67.847636 
L 221.762378 68.004155 
L 221.780885 67.950762 
L 221.803094 66.146125 
L 221.851213 55.455618 
L 221.910436 66.535341 
L 222.136224 67.823978 
L 222.291685 68.013127 
L 222.310193 67.96077 
L 222.332401 66.18398 
L 222.376819 55.570469 
L 222.439743 66.546969 
L 222.669233 67.837072 
L 222.824694 68.022618 
L 222.843201 67.987266 
L 222.854305 67.617788 
L 222.913529 55.833871 
L 222.96905 66.481239 
L 223.161526 67.724533 
L 223.365105 68.025999 
L 223.368807 68.024082 
L 223.391015 67.870463 
L 223.431731 59.06386 
L 223.431731 59.06386 
" style="fill:none;stroke:#666666;stroke-linecap:square;stroke-width:0.6;"/>
   </g>
   <g id="line2d_16">
    <path clip-path="url(#pd326141097)" d="M 226.39289 65.72 
L 226.39289 59.56 
" style="fill:none;stroke:#000000;stroke-linecap:square;stroke-width:1.5;"/>
   </g>
   <g id="patch_6">
    <path d="M 130.011071 68.184 
L 130.011071 7.2 
" style="fill:none;stroke:#000000;stroke-linecap:square;stroke-linejoin:miter;stroke-width:1.5;"/>
   </g>
   <g id="patch_7">
    <path d="M 130.011071 68.184 
L 230.9825 68.184 
" style="fill:none;stroke:#000000;stroke-linecap:square;stroke-linejoin:miter;stroke-width:1.5;"/>
   </g>
  </g>
 </g>
 <defs>
  <clipPath id="p7573cdc7b3">
   <rect height="60.984" width="100.971429" x="18.9425" y="7.2"/>
  </clipPath>
  <clipPath id="pd326141097">
   <rect height="60.984" width="100.971429" x="130.011071" y="7.2"/>
  </clipPath>
 </defs>
</svg>
