<?xml version="1.0" encoding="utf-8" standalone="no"?>
<!DOCTYPE svg PUBLIC "-//W3C//DTD SVG 1.1//EN"
  "http://www.w3.org/Graphics/SVG/1.1/DTD/svg11.dtd">
<!-- Created with matplotlib (https://matplotlib.org/) -->
<svg height="119.588125pt" version="1.1" viewBox="0 0 275.93375 119.588125" width="275.93375pt" xmlns="http://www.w3.org/2000/svg" xmlns:xlink="http://www.w3.org/1999/xlink">
 <defs>
  <style type="text/css">
*{stroke-linecap:butt;stroke-linejoin:round;}
  </style>
 </defs>
 <g id="figure_1">
  <g id="patch_1">
   <path d="M 0 119.588125 
L 275.93375 119.588125 
L 275.93375 0 
L 0 0 
z
" style="fill:none;"/>
  </g>
  <g id="axes_1">
   <g id="patch_2">
    <path d="M 45.53375 64.040625 
L 268.73375 64.040625 
L 268.73375 8.600625 
L 45.53375 8.600625 
z
" style="fill:none;"/>
   </g>
   <g id="patch_3">
    <path clip-path="url(#p3a4fb89c5f)" d="M 47.002171 64.040625 
L 49.939013 64.040625 
L 49.939013 58.693901 
L 47.002171 58.693901 
z
" style="fill:#2b8cbe;"/>
   </g>
   <g id="patch_4">
    <path clip-path="url(#p3a4fb89c5f)" d="M 61.686382 64.040625 
L 64.623224 64.040625 
L 64.623224 62.253593 
L 61.686382 62.253593 
z
" style="fill:#2b8cbe;"/>
   </g>
   <g id="patch_5">
    <path clip-path="url(#p3a4fb89c5f)" d="M 76.370592 64.040625 
L 79.307434 64.040625 
L 79.307434 60.093346 
L 76.370592 60.093346 
z
" style="fill:#2b8cbe;"/>
   </g>
   <g id="patch_6">
    <path clip-path="url(#p3a4fb89c5f)" d="M 91.054803 64.040625 
L 93.991645 64.040625 
L 93.991645 44.238479 
L 91.054803 44.238479 
z
" style="fill:#2b8cbe;"/>
   </g>
   <g id="patch_7">
    <path clip-path="url(#p3a4fb89c5f)" d="M 105.739013 64.040625 
L 108.675855 64.040625 
L 108.675855 59.812712 
L 105.739013 59.812712 
z
" style="fill:#2b8cbe;"/>
   </g>
   <g id="patch_8">
    <path clip-path="url(#p3a4fb89c5f)" d="M 120.423224 64.040625 
L 123.360066 64.040625 
L 123.360066 60.267541 
L 120.423224 60.267541 
z
" style="fill:#2b8cbe;"/>
   </g>
   <g id="patch_9">
    <path clip-path="url(#p3a4fb89c5f)" d="M 135.107434 64.040625 
L 138.044276 64.040625 
L 138.044276 61.62769 
L 135.107434 61.62769 
z
" style="fill:#2b8cbe;"/>
   </g>
   <g id="patch_10">
    <path clip-path="url(#p3a4fb89c5f)" d="M 149.791645 64.040625 
L 152.728487 64.040625 
L 152.728487 61.616185 
L 149.791645 61.616185 
z
" style="fill:#2b8cbe;"/>
   </g>
   <g id="patch_11">
    <path clip-path="url(#p3a4fb89c5f)" d="M 164.475855 64.040625 
L 167.412697 64.040625 
L 167.412697 56.428597 
L 164.475855 56.428597 
z
" style="fill:#2b8cbe;"/>
   </g>
   <g id="patch_12">
    <path clip-path="url(#p3a4fb89c5f)" d="M 179.160066 64.040625 
L 182.096908 64.040625 
L 182.096908 52.839012 
L 179.160066 52.839012 
z
" style="fill:#2b8cbe;"/>
   </g>
   <g id="patch_13">
    <path clip-path="url(#p3a4fb89c5f)" d="M 193.844276 64.040625 
L 196.781118 64.040625 
L 196.781118 30.768969 
L 193.844276 30.768969 
z
" style="fill:#2b8cbe;"/>
   </g>
   <g id="patch_14">
    <path clip-path="url(#p3a4fb89c5f)" d="M 208.528487 64.040625 
L 211.465329 64.040625 
L 211.465329 31.430289 
L 208.528487 31.430289 
z
" style="fill:#2b8cbe;"/>
   </g>
   <g id="patch_15">
    <path clip-path="url(#p3a4fb89c5f)" d="M 223.212697 64.040625 
L 226.149539 64.040625 
L 226.149539 51.983637 
L 223.212697 51.983637 
z
" style="fill:#2b8cbe;"/>
   </g>
   <g id="patch_16">
    <path clip-path="url(#p3a4fb89c5f)" d="M 237.896908 64.040625 
L 240.83375 64.040625 
L 240.83375 18.40293 
L 237.896908 18.40293 
z
" style="fill:#2b8cbe;"/>
   </g>
   <g id="patch_17">
    <path clip-path="url(#p3a4fb89c5f)" d="M 252.581118 64.040625 
L 255.517961 64.040625 
L 255.517961 12.584026 
L 252.581118 12.584026 
z
" style="fill:#2b8cbe;"/>
   </g>
   <g id="patch_18">
    <path clip-path="url(#p3a4fb89c5f)" d="M 51.407434 64.040625 
L 54.344276 64.040625 
L 54.344276 59.367834 
L 51.407434 59.367834 
z
" style="fill:#e34a33;"/>
   </g>
   <g id="patch_19">
    <path clip-path="url(#p3a4fb89c5f)" d="M 66.091645 64.040625 
L 69.028487 64.040625 
L 69.028487 62.770811 
L 66.091645 62.770811 
z
" style="fill:#e34a33;"/>
   </g>
   <g id="patch_20">
    <path clip-path="url(#p3a4fb89c5f)" d="M 80.775855 64.040625 
L 83.712697 64.040625 
L 83.712697 61.761268 
L 80.775855 61.761268 
z
" style="fill:#e34a33;"/>
   </g>
   <g id="patch_21">
    <path clip-path="url(#p3a4fb89c5f)" d="M 95.460066 64.040625 
L 98.396908 64.040625 
L 98.396908 46.223553 
L 95.460066 46.223553 
z
" style="fill:#e34a33;"/>
   </g>
   <g id="patch_22">
    <path clip-path="url(#p3a4fb89c5f)" d="M 110.144276 64.040625 
L 113.081118 64.040625 
L 113.081118 61.590117 
L 110.144276 61.590117 
z
" style="fill:#e34a33;"/>
   </g>
   <g id="patch_23">
    <path clip-path="url(#p3a4fb89c5f)" d="M 124.828487 64.040625 
L 127.765329 64.040625 
L 127.765329 61.774641 
L 124.828487 61.774641 
z
" style="fill:#e34a33;"/>
   </g>
   <g id="patch_24">
    <path clip-path="url(#p3a4fb89c5f)" d="M 139.512697 64.040625 
L 142.449539 64.040625 
L 142.449539 62.615155 
L 139.512697 62.615155 
z
" style="fill:#e34a33;"/>
   </g>
   <g id="patch_25">
    <path clip-path="url(#p3a4fb89c5f)" d="M 154.196908 64.040625 
L 157.13375 64.040625 
L 157.13375 62.171516 
L 154.196908 62.171516 
z
" style="fill:#e34a33;"/>
   </g>
   <g id="patch_26">
    <path clip-path="url(#p3a4fb89c5f)" d="M 168.881118 64.040625 
L 171.817961 64.040625 
L 171.817961 58.332825 
L 168.881118 58.332825 
z
" style="fill:#e34a33;"/>
   </g>
   <g id="patch_27">
    <path clip-path="url(#p3a4fb89c5f)" d="M 183.565329 64.040625 
L 186.502171 64.040625 
L 186.502171 57.962645 
L 183.565329 57.962645 
z
" style="fill:#e34a33;"/>
   </g>
   <g id="patch_28">
    <path clip-path="url(#p3a4fb89c5f)" d="M 198.249539 64.040625 
L 201.186382 64.040625 
L 201.186382 33.023616 
L 198.249539 33.023616 
z
" style="fill:#e34a33;"/>
   </g>
   <g id="patch_29">
    <path clip-path="url(#p3a4fb89c5f)" d="M 212.93375 64.040625 
L 215.870592 64.040625 
L 215.870592 42.781606 
L 212.93375 42.781606 
z
" style="fill:#e34a33;"/>
   </g>
   <g id="patch_30">
    <path clip-path="url(#p3a4fb89c5f)" d="M 227.617961 64.040625 
L 230.554803 64.040625 
L 230.554803 55.769788 
L 227.617961 55.769788 
z
" style="fill:#e34a33;"/>
   </g>
   <g id="patch_31">
    <path clip-path="url(#p3a4fb89c5f)" d="M 242.302171 64.040625 
L 245.239013 64.040625 
L 245.239013 31.747795 
L 242.302171 31.747795 
z
" style="fill:#e34a33;"/>
   </g>
   <g id="patch_32">
    <path clip-path="url(#p3a4fb89c5f)" d="M 256.986382 64.040625 
L 259.923224 64.040625 
L 259.923224 22.962952 
L 256.986382 22.962952 
z
" style="fill:#e34a33;"/>
   </g>
   <g id="matplotlib.axis_1">
    <g id="xtick_1">
     <g id="line2d_1">
      <defs>
       <path d="M 0 0 
L 0 3.5 
" id="mad99fd6368" style="stroke:#000000;stroke-width:1.5;"/>
      </defs>
      <g>
       <use style="stroke:#000000;stroke-width:1.5;" x="52.875855" xlink:href="#mad99fd6368" y="64.040625"/>
      </g>
     </g>
     <g id="text_1">
      <!-- $T$ -->
      <g transform="translate(54.94398 76.000625)rotate(-90)">
       <text>
        <tspan style="font-family:Arial;font-size:8px;font-style:regular;font-weight:regular;" x="0" y="-0.265625">T</tspan>
       </text>
      </g>
     </g>
    </g>
    <g id="xtick_2">
     <g id="line2d_2">
      <g>
       <use style="stroke:#000000;stroke-width:1.5;" x="67.560066" xlink:href="#mad99fd6368" y="64.040625"/>
      </g>
     </g>
     <g id="text_2">
      <!-- $d^{\mathdefault{b}}_{\mathdefault{AB}}$ -->
      <g transform="translate(70.360066 83.520625)rotate(-90)">
       <text>
        <tspan style="font-family:Arial;font-size:8px;font-style:regular;font-weight:regular;" x="0" y="-0.41043750000000045">d</tspan>
        <tspan style="font-family:Arial;font-size:5.6px;font-style:regular;font-weight:regular;" x="4.588606 4.588606 8.323763" y="-5.9859375 3.5720624999999995 3.5720624999999995">bAB</tspan>
       </text>
      </g>
     </g>
    </g>
    <g id="xtick_3">
     <g id="line2d_3">
      <g>
       <use style="stroke:#000000;stroke-width:1.5;" x="82.244276" xlink:href="#mad99fd6368" y="64.040625"/>
      </g>
     </g>
     <g id="text_3">
      <!-- $d^{\mathdefault{b}}_{\mathdefault{LP}}$ -->
      <g transform="translate(85.044276 82.880625)rotate(-90)">
       <text>
        <tspan style="font-family:Arial;font-size:8px;font-style:regular;font-weight:regular;" x="0" y="-0.41043750000000045">d</tspan>
        <tspan style="font-family:Arial;font-size:5.6px;font-style:regular;font-weight:regular;" x="4.588606 4.588606 7.703059" y="-5.9859375 3.5720624999999995 3.5720624999999995">bLP</tspan>
       </text>
      </g>
     </g>
    </g>
    <g id="xtick_4">
     <g id="line2d_4">
      <g>
       <use style="stroke:#000000;stroke-width:1.5;" x="96.928487" xlink:href="#mad99fd6368" y="64.040625"/>
      </g>
     </g>
     <g id="text_4">
      <!-- $d^{\mathdefault{b}}_{\mathdefault{PY}}$ -->
      <g transform="translate(99.728487 83.520625)rotate(-90)">
       <text>
        <tspan style="font-family:Arial;font-size:8px;font-style:regular;font-weight:regular;" x="0" y="-0.41043750000000045">d</tspan>
        <tspan style="font-family:Arial;font-size:5.6px;font-style:regular;font-weight:regular;" x="4.588606 4.588606 8.323762" y="-5.9859375 3.5720624999999995 3.5720624999999995">bPY</tspan>
       </text>
      </g>
     </g>
    </g>
    <g id="xtick_5">
     <g id="line2d_5">
      <g>
       <use style="stroke:#000000;stroke-width:1.5;" x="111.612697" xlink:href="#mad99fd6368" y="64.040625"/>
      </g>
     </g>
     <g id="text_5">
      <!-- $\Delta t^{\mathdefault{es}}_{\mathdefault{AB-LP}}$ -->
      <g transform="translate(113.892697 98.640625)rotate(-90)">
       <text>
        <tspan style="font-family:Arial;font-size:8px;font-style:regular;font-weight:regular;" x="0 5.34375" y="-0.44950000000000045">Δt</tspan>
        <tspan style="font-family:Arial;font-size:5.6px;font-style:regular;font-weight:regular;" x="7.705794 7.705794 10.820247 11.44095 16.109075 20.312356 23.426809" y="-6.025 3.5329999999999995 -6.025 3.5329999999999995 3.5329999999999995 3.5329999999999995 3.5329999999999995">eAsB−LP</tspan>
       </text>
      </g>
     </g>
    </g>
    <g id="xtick_6">
     <g id="line2d_6">
      <g>
       <use style="stroke:#000000;stroke-width:1.5;" x="126.296908" xlink:href="#mad99fd6368" y="64.040625"/>
      </g>
     </g>
     <g id="text_6">
      <!-- $\Delta t^{\mathdefault{es}}_{\mathdefault{LP-PY}}$ -->
      <g transform="translate(128.576908 98.640625)rotate(-90)">
       <text>
        <tspan style="font-family:Arial;font-size:8px;font-style:regular;font-weight:regular;" x="0 5.34375" y="-0.44950000000000045">Δt</tspan>
        <tspan style="font-family:Arial;font-size:5.6px;font-style:regular;font-weight:regular;" x="7.705794 7.705794 10.820247 10.820247 15.488372 19.691653 23.426809" y="-6.025 3.5329999999999995 -6.025 3.5329999999999995 3.5329999999999995 3.5329999999999995 3.5329999999999995">eLsP−PY</tspan>
       </text>
      </g>
     </g>
    </g>
    <g id="xtick_7">
     <g id="line2d_7">
      <g>
       <use style="stroke:#000000;stroke-width:1.5;" x="140.981118" xlink:href="#mad99fd6368" y="64.040625"/>
      </g>
     </g>
     <g id="text_7">
      <!-- $\Delta t^{\mathdefault{ss}}_{\mathdefault{AB-LP}}$ -->
      <g transform="translate(143.261118 98.640625)rotate(-90)">
       <text>
        <tspan style="font-family:Arial;font-size:8px;font-style:regular;font-weight:regular;" x="0 5.34375" y="-0.44950000000000045">Δt</tspan>
        <tspan style="font-family:Arial;font-size:5.6px;font-style:regular;font-weight:regular;" x="7.705794 7.705794 10.505794 11.44095 16.109075 20.312356 23.426809" y="-6.025 3.5329999999999995 -6.025 3.5329999999999995 3.5329999999999995 3.5329999999999995 3.5329999999999995">sAsB−LP</tspan>
       </text>
      </g>
     </g>
    </g>
    <g id="xtick_8">
     <g id="line2d_8">
      <g>
       <use style="stroke:#000000;stroke-width:1.5;" x="155.665329" xlink:href="#mad99fd6368" y="64.040625"/>
      </g>
     </g>
     <g id="text_8">
      <!-- $\Delta t^{\mathdefault{ss}}_{\mathdefault{LP-PY}}$ -->
      <g transform="translate(157.945329 98.640625)rotate(-90)">
       <text>
        <tspan style="font-family:Arial;font-size:8px;font-style:regular;font-weight:regular;" x="0 5.34375" y="-0.44950000000000045">Δt</tspan>
        <tspan style="font-family:Arial;font-size:5.6px;font-style:regular;font-weight:regular;" x="7.705794 7.705794 10.505794 10.820247 15.488372 19.691653 23.426809" y="-6.025 3.5329999999999995 -6.025 3.5329999999999995 3.5329999999999995 3.5329999999999995 3.5329999999999995">sLsP−PY</tspan>
       </text>
      </g>
     </g>
    </g>
    <g id="xtick_9">
     <g id="line2d_9">
      <g>
       <use style="stroke:#000000;stroke-width:1.5;" x="170.349539" xlink:href="#mad99fd6368" y="64.040625"/>
      </g>
     </g>
     <g id="text_9">
      <!-- $d_{\mathdefault{AB}}$ -->
      <g transform="translate(172.029539 83.520625)rotate(-90)">
       <text>
        <tspan style="font-family:Arial;font-size:8px;font-style:regular;font-weight:regular;" x="0" y="-0.265625">d</tspan>
        <tspan style="font-family:Arial;font-size:5.6px;font-style:regular;font-weight:regular;" x="4.588606 8.323763" y="2.123875">AB</tspan>
       </text>
      </g>
     </g>
    </g>
    <g id="xtick_10">
     <g id="line2d_10">
      <g>
       <use style="stroke:#000000;stroke-width:1.5;" x="185.03375" xlink:href="#mad99fd6368" y="64.040625"/>
      </g>
     </g>
     <g id="text_10">
      <!-- $d_{\mathdefault{LP}}$ -->
      <g transform="translate(186.71375 82.880625)rotate(-90)">
       <text>
        <tspan style="font-family:Arial;font-size:8px;font-style:regular;font-weight:regular;" x="0" y="-0.265625">d</tspan>
        <tspan style="font-family:Arial;font-size:5.6px;font-style:regular;font-weight:regular;" x="4.588606 7.703059" y="2.123875">LP</tspan>
       </text>
      </g>
     </g>
    </g>
    <g id="xtick_11">
     <g id="line2d_11">
      <g>
       <use style="stroke:#000000;stroke-width:1.5;" x="199.717961" xlink:href="#mad99fd6368" y="64.040625"/>
      </g>
     </g>
     <g id="text_11">
      <!-- $d_{\mathdefault{PY}}$ -->
      <g transform="translate(201.397961 83.520625)rotate(-90)">
       <text>
        <tspan style="font-family:Arial;font-size:8px;font-style:regular;font-weight:regular;" x="0" y="-0.265625">d</tspan>
        <tspan style="font-family:Arial;font-size:5.6px;font-style:regular;font-weight:regular;" x="4.588606 8.323762" y="2.123875">PY</tspan>
       </text>
      </g>
     </g>
    </g>
    <g id="xtick_12">
     <g id="line2d_12">
      <g>
       <use style="stroke:#000000;stroke-width:1.5;" x="214.402171" xlink:href="#mad99fd6368" y="64.040625"/>
      </g>
     </g>
     <g id="text_12">
      <!-- $\Delta\phi_{\mathdefault{AB-LP}}$ -->
      <g transform="translate(216.082171 100.880625)rotate(-90)">
       <text>
        <tspan style="font-family:Arial;font-size:8px;font-style:regular;font-weight:regular;" x="0 5.34375" y="-0.265625">Δϕ</tspan>
        <tspan style="font-family:Arial;font-size:5.6px;font-style:regular;font-weight:regular;" x="9.963606 13.698763 18.366888 22.570169 25.684622" y="2.123875">AB−LP</tspan>
       </text>
      </g>
     </g>
    </g>
    <g id="xtick_13">
     <g id="line2d_13">
      <g>
       <use style="stroke:#000000;stroke-width:1.5;" x="229.086382" xlink:href="#mad99fd6368" y="64.040625"/>
      </g>
     </g>
     <g id="text_13">
      <!-- $\Delta\phi_{\mathdefault{LP-PY}}$ -->
      <g transform="translate(230.766382 100.880625)rotate(-90)">
       <text>
        <tspan style="font-family:Arial;font-size:8px;font-style:regular;font-weight:regular;" x="0 5.34375" y="-0.265625">Δϕ</tspan>
        <tspan style="font-family:Arial;font-size:5.6px;font-style:regular;font-weight:regular;" x="9.963606 13.078059 17.746184 21.949466 25.684622" y="2.123875">LP−PY</tspan>
       </text>
      </g>
     </g>
    </g>
    <g id="xtick_14">
     <g id="line2d_14">
      <g>
       <use style="stroke:#000000;stroke-width:1.5;" x="243.770592" xlink:href="#mad99fd6368" y="64.040625"/>
      </g>
     </g>
     <g id="text_14">
      <!-- $\phi_{\mathdefault{LP}}$ -->
      <g transform="translate(245.450592 82.960625)rotate(-90)">
       <text>
        <tspan style="font-family:Arial;font-size:8px;font-style:regular;font-weight:regular;" x="0" y="-0.265625">ϕ</tspan>
        <tspan style="font-family:Arial;font-size:5.6px;font-style:regular;font-weight:regular;" x="4.619856 7.734309" y="2.123875">LP</tspan>
       </text>
      </g>
     </g>
    </g>
    <g id="xtick_15">
     <g id="line2d_15">
      <g>
       <use style="stroke:#000000;stroke-width:1.5;" x="258.454803" xlink:href="#mad99fd6368" y="64.040625"/>
      </g>
     </g>
     <g id="text_15">
      <!-- $\phi_{\mathdefault{PY}}$ -->
      <g transform="translate(260.134803 83.600625)rotate(-90)">
       <text>
        <tspan style="font-family:Arial;font-size:8px;font-style:regular;font-weight:regular;" x="0" y="-0.265625">ϕ</tspan>
        <tspan style="font-family:Arial;font-size:5.6px;font-style:regular;font-weight:regular;" x="4.619856 8.355012" y="2.123875">PY</tspan>
       </text>
      </g>
     </g>
    </g>
    <g id="text_16">
     <text style="font-family:Arial;font-size:8px;font-style:normal;font-weight:normal;text-anchor:middle;" transform="rotate(-0, 157.13375, 110.704375)" x="157.13375" y="110.704375">Summary statistics</text>
    </g>
   </g>
   <g id="matplotlib.axis_2">
    <g id="ytick_1">
     <g id="line2d_16">
      <defs>
       <path d="M 0 0 
L -3.5 0 
" id="mdaa8371e66" style="stroke:#000000;stroke-width:1.5;"/>
      </defs>
      <g>
       <use style="stroke:#000000;stroke-width:1.5;" x="45.53375" xlink:href="#mdaa8371e66" y="64.040625"/>
      </g>
     </g>
     <g id="text_17">
      <text style="font-family:Arial;font-size:8px;font-style:normal;font-weight:normal;text-anchor:end;" transform="rotate(-0, 38.53375, 66.90375)" x="38.53375" y="66.90375">0.000</text>
     </g>
    </g>
    <g id="ytick_2">
     <g id="line2d_17">
      <g>
       <use style="stroke:#000000;stroke-width:1.5;" x="45.53375" xlink:href="#mdaa8371e66" y="29.390625"/>
      </g>
     </g>
     <g id="text_18">
      <text style="font-family:Arial;font-size:8px;font-style:normal;font-weight:normal;text-anchor:end;" transform="rotate(-0, 38.53375, 32.25375)" x="38.53375" y="32.25375">0.005</text>
     </g>
    </g>
    <g id="text_19">
     <text style="font-family:Arial;font-size:8px;font-style:normal;font-weight:normal;text-anchor:middle;" transform="rotate(-90, 12.92625, 36.320625)" x="12.92625" y="36.320625">Median sq. error</text>
    </g>
   </g>
   <g id="patch_33">
    <path d="M 45.53375 64.040625 
L 45.53375 8.600625 
" style="fill:none;stroke:#000000;stroke-linecap:square;stroke-linejoin:miter;stroke-width:1.5;"/>
   </g>
   <g id="patch_34">
    <path d="M 45.53375 64.040625 
L 268.73375 64.040625 
" style="fill:none;stroke:#000000;stroke-linecap:square;stroke-linejoin:miter;stroke-width:1.5;"/>
   </g>
   <g id="legend_1">
    <g id="patch_35">
     <path d="M 52.73375 21.526875 
L 68.73375 21.526875 
L 68.73375 15.926875 
L 52.73375 15.926875 
z
" style="fill:#2b8cbe;"/>
    </g>
    <g id="text_20">
     <text style="font-family:Arial;font-size:8px;font-style:normal;font-weight:normal;text-anchor:start;" transform="rotate(-0, 75.13375, 21.526875)" x="75.13375" y="21.526875">previous</text>
    </g>
    <g id="patch_36">
     <path d="M 52.73375 32.843125 
L 68.73375 32.843125 
L 68.73375 27.243125 
L 52.73375 27.243125 
z
" style="fill:#e34a33;"/>
    </g>
    <g id="text_21">
     <text style="font-family:Arial;font-size:8px;font-style:normal;font-weight:normal;text-anchor:start;" transform="rotate(-0, 75.13375, 32.843125)" x="75.13375" y="32.843125">classifier</text>
    </g>
   </g>
  </g>
 </g>
 <defs>
  <clipPath id="p3a4fb89c5f">
   <rect height="55.44" width="223.2" x="45.53375" y="8.600625"/>
  </clipPath>
 </defs>
</svg>
