<?xml version='1.0' encoding='ASCII' standalone='yes'?>
<svg xmlns="http://www.w3.org/2000/svg" xmlns:xlink="http://www.w3.org/1999/xlink" version="1.1" width="20.3cm" viewBox="0 0 20.3cm 3.2cm" height="3.2cm">
  <g>
    <g transform="translate(0.0, 0.0) scale(1) ">
      <g transform="translate(0, 0.0) scale(1) translate(0, 0) scale(1.25) "><metadata>
  <rdf:RDF xmlns:cc="http://creativecommons.org/ns#" xmlns:dc="http://purl.org/dc/elements/1.1/" xmlns:rdf="http://www.w3.org/1999/02/22-rdf-syntax-ns#">
   <cc:Work>
    <dc:type rdf:resource="http://purl.org/dc/dcmitype/StillImage"/>
    <dc:date>2020-12-15T16:46:09.457947</dc:date>
    <dc:format>image/svg+xml</dc:format>
    <dc:creator>
     <cc:Agent>
      <dc:title>Matplotlib v3.3.2, https://matplotlib.org/</dc:title>
     </cc:Agent>
    </dc:creator>
   </cc:Work>
  </rdf:RDF>
 </metadata>
 <defs>
  <style type="text/css">*{stroke-linecap:butt;stroke-linejoin:round;}</style>
 </defs>
 <g id="figure_1">
  <g id="patch_1">
   <path d="M 0 99.925  L 161.62625 99.925  L 161.62625 0  L 0 0  z " style="fill:none;"/>
  </g>
  <g id="axes_1">
   <g id="patch_2">
    <path d="M 42.82625 66.24  L 154.42625 66.24  L 154.42625 10.8  L 42.82625 10.8  z " style="fill:#ffffff;"/>
   </g>
   <g id="patch_3">
    <path clip-path="url(#p76beedaca1)" d="M 47.898977 32.473052  L 49.888282 32.473052  L 49.888282 13.32  L 47.898977 13.32  z "/>
   </g>
   <g id="patch_4">
    <path clip-path="url(#p76beedaca1)" d="M 51.877587 32.473052  L 53.866892 32.473052  L 53.866892 29.188287  L 51.877587 29.188287  z "/>
   </g>
   <g id="patch_5">
    <path clip-path="url(#p76beedaca1)" d="M 55.856197 32.473052  L 57.845501 32.473052  L 57.845501 32.112553  L 55.856197 32.112553  z "/>
   </g>
   <g id="patch_6">
    <path clip-path="url(#p76beedaca1)" d="M 59.834806 32.473052  L 61.824111 32.473052  L 61.824111 33.327529  L 59.834806 33.327529  z "/>
   </g>
   <g id="patch_7">
    <path clip-path="url(#p76beedaca1)" d="M 63.813416 32.473052  L 65.802721 32.473052  L 65.802721 33.869279  L 63.813416 33.869279  z "/>
   </g>
   <g id="patch_8">
    <path clip-path="url(#p76beedaca1)" d="M 67.792025 32.473052  L 69.78133 32.473052  L 69.78133 34.71564  L 67.792025 34.71564  z "/>
   </g>
   <g id="patch_9">
    <path clip-path="url(#p76beedaca1)" d="M 71.770635 32.473052  L 73.75994 32.473052  L 73.75994 35.269493  L 71.770635 35.269493  z "/>
   </g>
   <g id="patch_10">
    <path clip-path="url(#p76beedaca1)" d="M 75.749245 32.473052  L 77.738549 32.473052  L 77.738549 35.550532  L 75.749245 35.550532  z "/>
   </g>
   <g id="patch_11">
    <path clip-path="url(#p76beedaca1)" d="M 79.727854 32.473052  L 81.717159 32.473052  L 81.717159 36.271761  L 79.727854 36.271761  z "/>
   </g>
   <g id="patch_12">
    <path clip-path="url(#p76beedaca1)" d="M 83.706464 32.473052  L 85.695769 32.473052  L 85.695769 36.958125  L 83.706464 36.958125  z "/>
   </g>
   <g id="patch_13">
    <path clip-path="url(#p76beedaca1)" d="M 87.685074 32.473052  L 89.674378 32.473052  L 89.674378 37.463777  L 87.685074 37.463777  z "/>
   </g>
   <g id="patch_14">
    <path clip-path="url(#p76beedaca1)" d="M 91.663683 32.473052  L 93.652988 32.473052  L 93.652988 38.10332  L 91.663683 38.10332  z "/>
   </g>
   <g id="patch_15">
    <path clip-path="url(#p76beedaca1)" d="M 95.642293 32.473052  L 97.631598 32.473052  L 97.631598 38.834819  L 95.642293 38.834819  z "/>
   </g>
   <g id="patch_16">
    <path clip-path="url(#p76beedaca1)" d="M 99.620902 32.473052  L 101.610207 32.473052  L 101.610207 39.065015  L 99.620902 39.065015  z "/>
   </g>
   <g id="patch_17">
    <path clip-path="url(#p76beedaca1)" d="M 103.599512 32.473052  L 105.588817 32.473052  L 105.588817 39.667506  L 103.599512 39.667506  z "/>
   </g>
   <g id="patch_18">
    <path clip-path="url(#p76beedaca1)" d="M 107.578122 32.473052  L 109.567426 32.473052  L 109.567426 41.000048  L 107.578122 41.000048  z "/>
   </g>
   <g id="patch_19">
    <path clip-path="url(#p76beedaca1)" d="M 111.556731 32.473052  L 113.546036 32.473052  L 113.546036 42.493407  L 111.556731 42.493407  z "/>
   </g>
   <g id="patch_20">
    <path clip-path="url(#p76beedaca1)" d="M 115.535341 32.473052  L 117.524646 32.473052  L 117.524646 42.670379  L 115.535341 42.670379  z "/>
   </g>
   <g id="patch_21">
    <path clip-path="url(#p76beedaca1)" d="M 119.513951 32.473052  L 121.503255 32.473052  L 121.503255 42.723948  L 119.513951 42.723948  z "/>
   </g>
   <g id="patch_22">
    <path clip-path="url(#p76beedaca1)" d="M 123.49256 32.473052  L 125.481865 32.473052  L 125.481865 45.863308  L 123.49256 45.863308  z "/>
   </g>
   <g id="patch_23">
    <path clip-path="url(#p76beedaca1)" d="M 127.47117 32.473052  L 129.460475 32.473052  L 129.460475 53.363279  L 127.47117 53.363279  z "/>
   </g>
   <g id="patch_24">
    <path clip-path="url(#p76beedaca1)" d="M 131.449779 32.473052  L 133.439084 32.473052  L 133.439084 54.478955  L 131.449779 54.478955  z "/>
   </g>
   <g id="patch_25">
    <path clip-path="url(#p76beedaca1)" d="M 135.428389 32.473052  L 137.417694 32.473052  L 137.417694 54.960975  L 135.428389 54.960975  z "/>
   </g>
   <g id="patch_26">
    <path clip-path="url(#p76beedaca1)" d="M 139.406999 32.473052  L 141.396303 32.473052  L 141.396303 57.457935  L 139.406999 57.457935  z "/>
   </g>
   <g id="patch_27">
    <path clip-path="url(#p76beedaca1)" d="M 143.385608 32.473052  L 145.374913 32.473052  L 145.374913 59.588528  L 143.385608 59.588528  z "/>
   </g>
   <g id="patch_28">
    <path clip-path="url(#p76beedaca1)" d="M 147.364218 32.473052  L 149.353523 32.473052  L 149.353523 63.72  L 147.364218 63.72  z "/>
   </g>
   <g id="patch_29">
    <path clip-path="url(#p76beedaca1)" d="M 0 0  z "/>
   </g>
   <g id="patch_30">
    <path clip-path="url(#p76beedaca1)" d="M 0 0  z "/>
   </g>
   <g id="patch_31">
    <path clip-path="url(#p76beedaca1)" d="M 0 0  z "/>
   </g>
   <g id="patch_32">
    <path clip-path="url(#p76beedaca1)" d="M 0 0  z "/>
   </g>
   <g id="patch_33">
    <path clip-path="url(#p76beedaca1)" d="M 0 0  z "/>
   </g>
   <g id="matplotlib.axis_1">
    <g id="xtick_1">
     <g id="line2d_1">
      <defs>
       <path d="M 0 0  L 0 3.5  " id="m096b396b25" style="stroke:#000000;stroke-width:1.5;"/>
      </defs>
      <g>
       <use style="stroke:#000000;stroke-width:1.5;" x="48.89363" xlink:href="#m096b396b25" y="66.24"/>
      </g>
     </g>
     <g id="text_1">
      <text style="font-family:DejaVu Sans;font-size:8px;font-stretch:normal;font-style:normal;font-weight:normal;text-anchor:middle;" transform="rotate(-0, 48.89363, 79.31875)" x="48.89363" y="79.31875">0</text>
     </g>
    </g>
    <g id="xtick_2">
     <g id="line2d_2">
      <g>
       <use style="stroke:#000000;stroke-width:1.5;" x="88.679726" xlink:href="#m096b396b25" y="66.24"/>
      </g>
     </g>
     <g id="text_2">
      <text style="font-family:DejaVu Sans;font-size:8px;font-stretch:normal;font-style:normal;font-weight:normal;text-anchor:middle;" transform="rotate(-0, 88.679726, 79.31875)" x="88.679726" y="79.31875">10</text>
     </g>
    </g>
    <g id="xtick_3">
     <g id="line2d_3">
      <g>
       <use style="stroke:#000000;stroke-width:1.5;" x="128.465822" xlink:href="#m096b396b25" y="66.24"/>
      </g>
     </g>
     <g id="text_3">
      <text style="font-family:DejaVu Sans;font-size:8px;font-stretch:normal;font-style:normal;font-weight:normal;text-anchor:middle;" transform="rotate(-0, 128.465822, 79.31875)" x="128.465822" y="79.31875">20</text>
     </g>
    </g>
    <g id="text_4">
     <text style="font-family:DejaVu Sans;font-size:8px;font-stretch:normal;font-style:normal;font-weight:normal;text-anchor:middle;" transform="rotate(-0, 98.62625, 91.06125)" x="98.62625" y="91.06125">Dimension</text>
    </g>
   </g>
   <g id="matplotlib.axis_2">
    <g id="ytick_1">
     <g id="line2d_4">
      <defs>
       <path d="M 0 0  L -3.5 0  " id="m82f4292126" style="stroke:#000000;stroke-width:1.5;"/>
      </defs>
      <g>
       <use style="stroke:#000000;stroke-width:1.5;" x="42.82625" xlink:href="#m82f4292126" y="56.640596"/>
      </g>
     </g>
     <g id="text_5">
      <text style="font-family:DejaVu Sans;font-size:8px;font-stretch:normal;font-style:normal;font-weight:normal;text-anchor:end;" transform="rotate(-0, 35.82625, 59.679971)" x="35.82625" y="59.679971">&#8722;10</text>
     </g>
    </g>
    <g id="ytick_2">
     <g id="line2d_5">
      <g>
       <use style="stroke:#000000;stroke-width:1.5;" x="42.82625" xlink:href="#m82f4292126" y="32.473052"/>
      </g>
     </g>
     <g id="text_6">
      <text style="font-family:DejaVu Sans;font-size:8px;font-stretch:normal;font-style:normal;font-weight:normal;text-anchor:end;" transform="rotate(-0, 35.82625, 35.512427)" x="35.82625" y="35.512427">0</text>
     </g>
    </g>
    <g id="text_7">
     <text style="font-family:DejaVu Sans;font-size:8px;font-stretch:normal;font-style:normal;font-weight:normal;text-anchor:middle;" transform="rotate(-90, 13.27875, 38.52)" x="13.27875" y="38.52">log(Eigenvalue)</text>
    </g>
   </g>
   <g id="patch_34">
    <path d="M 42.82625 66.24  L 42.82625 10.8  " style="fill:none;stroke:#000000;stroke-linecap:square;stroke-linejoin:miter;stroke-width:1.5;"/>
   </g>
   <g id="patch_35">
    <path d="M 42.82625 66.24  L 154.42625 66.24  " style="fill:none;stroke:#000000;stroke-linecap:square;stroke-linejoin:miter;stroke-width:1.5;"/>
   </g>
  </g>
 </g>
 <defs>
  <clipPath id="p76beedaca1">
   <rect height="55.44" width="111.6" x="42.82625" y="10.8"/>
  </clipPath>
 </defs>
</g>
    </g>
  </g>
</svg>
