<?xml version='1.0' encoding='ASCII' standalone='yes'?>
<svg xmlns="http://www.w3.org/2000/svg" xmlns:xlink="http://www.w3.org/1999/xlink" version="1.1" width="20.3cm" viewBox="0 0 20.3cm 3.7cm" height="3.7cm">
  <g>
    <g transform="translate(0.0, 11.55) scale(1) ">
      <g transform="translate(0, 0.0) scale(1) translate(0, 0) scale(1.25) "><metadata>
  <rdf:RDF xmlns:cc="http://creativecommons.org/ns#" xmlns:dc="http://purl.org/dc/elements/1.1/" xmlns:rdf="http://www.w3.org/1999/02/22-rdf-syntax-ns#">
   <cc:Work>
    <dc:type rdf:resource="http://purl.org/dc/dcmitype/StillImage"/>
    <dc:date>2021-07-15T17:26:02.801023</dc:date>
    <dc:format>image/svg+xml</dc:format>
    <dc:creator>
     <cc:Agent>
      <dc:title>Matplotlib v3.4.2, https://matplotlib.org/</dc:title>
     </cc:Agent>
    </dc:creator>
   </cc:Work>
  </rdf:RDF>
 </metadata>
 <defs>
  <style type="text/css">*{stroke-linecap:butt;stroke-linejoin:round;}</style>
 </defs>
 <g id="figure_1">
  <g id="patch_1">
   <path d="M 0 108.40375  L 165.1025 108.40375  L 165.1025 0  L 0 0  z " style="fill:none;"/>
  </g>
  <g id="axes_1">
   <g id="patch_2">
    <path d="M 46.3025 74.71875  L 157.9025 74.71875  L 157.9025 19.27875  L 46.3025 19.27875  z " style="fill:#ffffff;"/>
   </g>
   <g id="patch_3">
    <path clip-path="url(#p8585acdc34)" d="M 51.375227 74.71875  L 53.038417 74.71875  L 53.038417 21.91875  L 51.375227 21.91875  z "/>
   </g>
   <g id="patch_4">
    <path clip-path="url(#p8585acdc34)" d="M 54.701606 74.71875  L 56.364795 74.71875  L 56.364795 72.495594  L 54.701606 72.495594  z "/>
   </g>
   <g id="patch_5">
    <path clip-path="url(#p8585acdc34)" d="M 58.027984 74.71875  L 59.691174 74.71875  L 59.691174 73.341136  L 58.027984 73.341136  z "/>
   </g>
   <g id="patch_6">
    <path clip-path="url(#p8585acdc34)" d="M 61.354363 74.71875  L 63.017552 74.71875  L 63.017552 74.350765  L 61.354363 74.350765  z "/>
   </g>
   <g id="patch_7">
    <path clip-path="url(#p8585acdc34)" d="M 64.680741 74.71875  L 66.343931 74.71875  L 66.343931 74.436307  L 64.680741 74.436307  z "/>
   </g>
   <g id="patch_8">
    <path clip-path="url(#p8585acdc34)" d="M 68.00712 74.71875  L 69.670309 74.71875  L 69.670309 74.538816  L 68.00712 74.538816  z "/>
   </g>
   <g id="patch_9">
    <path clip-path="url(#p8585acdc34)" d="M 71.333499 74.71875  L 72.996688 74.71875  L 72.996688 74.552691  L 71.333499 74.552691  z "/>
   </g>
   <g id="patch_10">
    <path clip-path="url(#p8585acdc34)" d="M 74.659877 74.71875  L 76.323066 74.71875  L 76.323066 74.575881  L 74.659877 74.575881  z "/>
   </g>
   <g id="patch_11">
    <path clip-path="url(#p8585acdc34)" d="M 77.986256 74.71875  L 79.649445 74.71875  L 79.649445 74.63447  L 77.986256 74.63447  z "/>
   </g>
   <g id="patch_12">
    <path clip-path="url(#p8585acdc34)" d="M 81.312634 74.71875  L 82.975823 74.71875  L 82.975823 74.657019  L 81.312634 74.657019  z "/>
   </g>
   <g id="patch_13">
    <path clip-path="url(#p8585acdc34)" d="M 84.639013 74.71875  L 86.302202 74.71875  L 86.302202 74.679492  L 84.639013 74.679492  z "/>
   </g>
   <g id="patch_14">
    <path clip-path="url(#p8585acdc34)" d="M 87.965391 74.71875  L 89.62858 74.71875  L 89.62858 74.691032  L 87.965391 74.691032  z "/>
   </g>
   <g id="patch_15">
    <path clip-path="url(#p8585acdc34)" d="M 91.29177 74.71875  L 92.954959 74.71875  L 92.954959 74.692181  L 91.29177 74.692181  z "/>
   </g>
   <g id="patch_16">
    <path clip-path="url(#p8585acdc34)" d="M 94.618148 74.71875  L 96.281338 74.71875  L 96.281338 74.703129  L 94.618148 74.703129  z "/>
   </g>
   <g id="patch_17">
    <path clip-path="url(#p8585acdc34)" d="M 97.944527 74.71875  L 99.607716 74.71875  L 99.607716 74.709454  L 97.944527 74.709454  z "/>
   </g>
   <g id="patch_18">
    <path clip-path="url(#p8585acdc34)" d="M 101.270905 74.71875  L 102.934095 74.71875  L 102.934095 74.712823  L 101.270905 74.712823  z "/>
   </g>
   <g id="patch_19">
    <path clip-path="url(#p8585acdc34)" d="M 104.597284 74.71875  L 106.260473 74.71875  L 106.260473 74.713147  L 104.597284 74.713147  z "/>
   </g>
   <g id="patch_20">
    <path clip-path="url(#p8585acdc34)" d="M 107.923662 74.71875  L 109.586852 74.71875  L 109.586852 74.71653  L 107.923662 74.71653  z "/>
   </g>
   <g id="patch_21">
    <path clip-path="url(#p8585acdc34)" d="M 111.250041 74.71875  L 112.91323 74.71875  L 112.91323 74.717051  L 111.250041 74.717051  z "/>
   </g>
   <g id="patch_22">
    <path clip-path="url(#p8585acdc34)" d="M 114.57642 74.71875  L 116.239609 74.71875  L 116.239609 74.717693  L 114.57642 74.717693  z "/>
   </g>
   <g id="patch_23">
    <path clip-path="url(#p8585acdc34)" d="M 117.902798 74.71875  L 119.565987 74.71875  L 119.565987 74.71875  L 117.902798 74.71875  z "/>
   </g>
   <g id="patch_24">
    <path clip-path="url(#p8585acdc34)" d="M 121.229177 74.71875  L 122.892366 74.71875  L 122.892366 74.71875  L 121.229177 74.71875  z "/>
   </g>
   <g id="patch_25">
    <path clip-path="url(#p8585acdc34)" d="M 124.555555 74.71875  L 126.218744 74.71875  L 126.218744 74.71875  L 124.555555 74.71875  z "/>
   </g>
   <g id="patch_26">
    <path clip-path="url(#p8585acdc34)" d="M 127.881934 74.71875  L 129.545123 74.71875  L 129.545123 74.71875  L 127.881934 74.71875  z "/>
   </g>
   <g id="patch_27">
    <path clip-path="url(#p8585acdc34)" d="M 131.208312 74.71875  L 132.871501 74.71875  L 132.871501 74.71875  L 131.208312 74.71875  z "/>
   </g>
   <g id="patch_28">
    <path clip-path="url(#p8585acdc34)" d="M 134.534691 74.71875  L 136.19788 74.71875  L 136.19788 74.71875  L 134.534691 74.71875  z "/>
   </g>
   <g id="patch_29">
    <path clip-path="url(#p8585acdc34)" d="M 137.861069 74.71875  L 139.524259 74.71875  L 139.524259 74.71875  L 137.861069 74.71875  z "/>
   </g>
   <g id="patch_30">
    <path clip-path="url(#p8585acdc34)" d="M 141.187448 74.71875  L 142.850637 74.71875  L 142.850637 74.71875  L 141.187448 74.71875  z "/>
   </g>
   <g id="patch_31">
    <path clip-path="url(#p8585acdc34)" d="M 144.513826 74.71875  L 146.177016 74.71875  L 146.177016 74.71875  L 144.513826 74.71875  z "/>
   </g>
   <g id="patch_32">
    <path clip-path="url(#p8585acdc34)" d="M 147.840205 74.71875  L 149.503394 74.71875  L 149.503394 74.718749  L 147.840205 74.718749  z "/>
   </g>
   <g id="patch_33">
    <path clip-path="url(#p8585acdc34)" d="M 151.166583 74.71875  L 152.829773 74.71875  L 152.829773 74.718749  L 151.166583 74.718749  z "/>
   </g>
   <g id="matplotlib.axis_1">
    <g id="xtick_1">
     <g id="line2d_1">
      <defs>
       <path d="M 0 0  L 0 3.5  " id="m9f70bac47b" style="stroke:#000000;stroke-width:1.5;"/>
      </defs>
      <g>
       <use style="stroke:#000000;stroke-width:1.5;" x="52.206822" xlink:href="#m9f70bac47b" y="74.71875"/>
      </g>
     </g>
     <g id="text_1">
      <text style="font-family:DejaVu Sans;font-size:8px;font-stretch:normal;font-style:normal;font-weight:normal;text-anchor:middle;" transform="rotate(-0, 52.206822, 87.7975)" x="52.206822" y="87.7975">0</text>
     </g>
    </g>
    <g id="xtick_2">
     <g id="line2d_2">
      <g>
       <use style="stroke:#000000;stroke-width:1.5;" x="85.470607" xlink:href="#m9f70bac47b" y="74.71875"/>
      </g>
     </g>
     <g id="text_2">
      <text style="font-family:DejaVu Sans;font-size:8px;font-stretch:normal;font-style:normal;font-weight:normal;text-anchor:middle;" transform="rotate(-0, 85.470607, 87.7975)" x="85.470607" y="87.7975">10</text>
     </g>
    </g>
    <g id="xtick_3">
     <g id="line2d_3">
      <g>
       <use style="stroke:#000000;stroke-width:1.5;" x="118.734393" xlink:href="#m9f70bac47b" y="74.71875"/>
      </g>
     </g>
     <g id="text_3">
      <text style="font-family:DejaVu Sans;font-size:8px;font-stretch:normal;font-style:normal;font-weight:normal;text-anchor:middle;" transform="rotate(-0, 118.734393, 87.7975)" x="118.734393" y="87.7975">20</text>
     </g>
    </g>
    <g id="xtick_4">
     <g id="line2d_4">
      <g>
       <use style="stroke:#000000;stroke-width:1.5;" x="151.998178" xlink:href="#m9f70bac47b" y="74.71875"/>
      </g>
     </g>
     <g id="text_4">
      <text style="font-family:DejaVu Sans;font-size:8px;font-stretch:normal;font-style:normal;font-weight:normal;text-anchor:middle;" transform="rotate(-0, 151.998178, 87.7975)" x="151.998178" y="87.7975">30</text>
     </g>
    </g>
    <g id="text_5">
     <text style="font-family:DejaVu Sans;font-size:8px;font-stretch:normal;font-style:normal;font-weight:normal;text-anchor:middle;" transform="rotate(-0, 102.1025, 99.54)" x="102.1025" y="99.54">Dimension</text>
    </g>
   </g>
   <g id="matplotlib.axis_2">
    <g id="ytick_1">
     <g id="line2d_5">
      <defs>
       <path d="M 0 0  L -3.5 0  " id="mb33c7b1337" style="stroke:#000000;stroke-width:1.5;"/>
      </defs>
      <g>
       <use style="stroke:#000000;stroke-width:1.5;" x="46.3025" xlink:href="#mb33c7b1337" y="74.71875"/>
      </g>
     </g>
     <g id="text_6">
      <text style="font-family:DejaVu Sans;font-size:8px;font-stretch:normal;font-style:normal;font-weight:normal;text-anchor:end;" transform="rotate(-0, 39.3025, 77.758125)" x="39.3025" y="77.758125">0</text>
     </g>
    </g>
    <g id="ytick_2">
     <g id="line2d_6">
      <g>
       <use style="stroke:#000000;stroke-width:1.5;" x="46.3025" xlink:href="#mb33c7b1337" y="55.451499"/>
      </g>
     </g>
     <g id="text_7">
      <text style="font-family:DejaVu Sans;font-size:8px;font-stretch:normal;font-style:normal;font-weight:normal;text-anchor:end;" transform="rotate(-0, 39.3025, 58.490874)" x="39.3025" y="58.490874">1000</text>
     </g>
    </g>
    <g id="ytick_3">
     <g id="line2d_7">
      <g>
       <use style="stroke:#000000;stroke-width:1.5;" x="46.3025" xlink:href="#mb33c7b1337" y="36.184249"/>
      </g>
     </g>
     <g id="text_8">
      <text style="font-family:DejaVu Sans;font-size:8px;font-stretch:normal;font-style:normal;font-weight:normal;text-anchor:end;" transform="rotate(-0, 39.3025, 39.223624)" x="39.3025" y="39.223624">2000</text>
     </g>
    </g>
    <g id="text_9">
     <text style="font-family:DejaVu Sans;font-size:8px;font-stretch:normal;font-style:normal;font-weight:normal;text-anchor:middle;" transform="rotate(-90, 13.27875, 46.99875)" x="13.27875" y="46.99875">log(E.-value)</text>
    </g>
   </g>
   <g id="patch_34">
    <path d="M 46.3025 74.71875  L 46.3025 19.27875  " style="fill:none;stroke:#000000;stroke-linecap:square;stroke-linejoin:miter;stroke-width:1.5;"/>
   </g>
   <g id="patch_35">
    <path d="M 46.3025 74.71875  L 157.9025 74.71875  " style="fill:none;stroke:#000000;stroke-linecap:square;stroke-linejoin:miter;stroke-width:1.5;"/>
   </g>
   <g id="text_10">
    <text style="font-family:DejaVu Sans;font-size:8px;font-stretch:normal;font-style:normal;font-weight:normal;text-anchor:middle;" transform="rotate(-0, 102.1025, 13.27875)" x="102.1025" y="13.27875">Total energy</text>
   </g>
  </g>
 </g>
 <defs>
  <clipPath id="p8585acdc34">
   <rect height="55.44" width="111.6" x="46.3025" y="19.27875"/>
  </clipPath>
 </defs>
</g>
    </g>
    <g transform="translate(220.0, 0.0) scale(1) ">
      <g transform="translate(0, 0.0) scale(1) translate(0, 0) scale(1.25) "><metadata>
  <rdf:RDF xmlns:cc="http://creativecommons.org/ns#" xmlns:dc="http://purl.org/dc/elements/1.1/" xmlns:rdf="http://www.w3.org/1999/02/22-rdf-syntax-ns#">
   <cc:Work>
    <dc:type rdf:resource="http://purl.org/dc/dcmitype/StillImage"/>
    <dc:date>2021-07-15T17:46:09.450813</dc:date>
    <dc:format>image/svg+xml</dc:format>
    <dc:creator>
     <cc:Agent>
      <dc:title>Matplotlib v3.4.2, https://matplotlib.org/</dc:title>
     </cc:Agent>
    </dc:creator>
   </cc:Work>
  </rdf:RDF>
 </metadata>
 <defs>
  <style type="text/css">*{stroke-linecap:butt;stroke-linejoin:round;}</style>
 </defs>
 <g id="figure_1">
  <g id="patch_1">
   <path d="M 0 117.362  L 151.395 117.362  L 151.395 0  L 0 0  z " style="fill:none;"/>
  </g>
  <g id="axes_1">
   <g id="patch_2">
    <path d="M 43.755 83.677  L 144.195 83.677  L 144.195 28.237  L 43.755 28.237  z " style="fill:#ffffff;"/>
   </g>
   <g id="patch_3">
    <path clip-path="url(#p8ff095d583)" d="M 48.320455 83.677  L 49.817325 83.677  L 49.817325 30.877  L 48.320455 30.877  z "/>
   </g>
   <g id="patch_4">
    <path clip-path="url(#p8ff095d583)" d="M 51.314195 83.677  L 52.811066 83.677  L 52.811066 82.039749  L 51.314195 82.039749  z "/>
   </g>
   <g id="patch_5">
    <path clip-path="url(#p8ff095d583)" d="M 54.307936 83.677  L 55.804806 83.677  L 55.804806 83.362277  L 54.307936 83.362277  z "/>
   </g>
   <g id="patch_6">
    <path clip-path="url(#p8ff095d583)" d="M 57.301677 83.677  L 58.798547 83.677  L 58.798547 83.512749  L 57.301677 83.512749  z "/>
   </g>
   <g id="patch_7">
    <path clip-path="url(#p8ff095d583)" d="M 60.295417 83.677  L 61.792288 83.677  L 61.792288 83.615441  L 60.295417 83.615441  z "/>
   </g>
   <g id="patch_8">
    <path clip-path="url(#p8ff095d583)" d="M 63.289158 83.677  L 64.786028 83.677  L 64.786028 83.660968  L 63.289158 83.660968  z "/>
   </g>
   <g id="patch_9">
    <path clip-path="url(#p8ff095d583)" d="M 66.282899 83.677  L 67.779769 83.677  L 67.779769 83.671816  L 66.282899 83.671816  z "/>
   </g>
   <g id="patch_10">
    <path clip-path="url(#p8ff095d583)" d="M 69.276639 83.677  L 70.77351 83.677  L 70.77351 83.675299  L 69.276639 83.675299  z "/>
   </g>
   <g id="patch_11">
    <path clip-path="url(#p8ff095d583)" d="M 72.27038 83.677  L 73.76725 83.677  L 73.76725 83.675944  L 72.27038 83.675944  z "/>
   </g>
   <g id="patch_12">
    <path clip-path="url(#p8ff095d583)" d="M 75.264121 83.677  L 76.760991 83.677  L 76.760991 83.676263  L 75.264121 83.676263  z "/>
   </g>
   <g id="patch_13">
    <path clip-path="url(#p8ff095d583)" d="M 78.257861 83.677  L 79.754732 83.677  L 79.754732 83.676353  L 78.257861 83.676353  z "/>
   </g>
   <g id="patch_14">
    <path clip-path="url(#p8ff095d583)" d="M 81.251602 83.677  L 82.748472 83.677  L 82.748472 83.676569  L 81.251602 83.676569  z "/>
   </g>
   <g id="patch_15">
    <path clip-path="url(#p8ff095d583)" d="M 84.245343 83.677  L 85.742213 83.677  L 85.742213 83.676714  L 84.245343 83.676714  z "/>
   </g>
   <g id="patch_16">
    <path clip-path="url(#p8ff095d583)" d="M 87.239083 83.677  L 88.735954 83.677  L 88.735954 83.676777  L 87.239083 83.676777  z "/>
   </g>
   <g id="patch_17">
    <path clip-path="url(#p8ff095d583)" d="M 90.232824 83.677  L 91.729694 83.677  L 91.729694 83.676813  L 90.232824 83.676813  z "/>
   </g>
   <g id="patch_18">
    <path clip-path="url(#p8ff095d583)" d="M 93.226565 83.677  L 94.723435 83.677  L 94.723435 83.676906  L 93.226565 83.676906  z "/>
   </g>
   <g id="patch_19">
    <path clip-path="url(#p8ff095d583)" d="M 96.220306 83.677  L 97.717176 83.677  L 97.717176 83.676946  L 96.220306 83.676946  z "/>
   </g>
   <g id="patch_20">
    <path clip-path="url(#p8ff095d583)" d="M 99.214046 83.677  L 100.710917 83.677  L 100.710917 83.676956  L 99.214046 83.676956  z "/>
   </g>
   <g id="patch_21">
    <path clip-path="url(#p8ff095d583)" d="M 102.207787 83.677  L 103.704657 83.677  L 103.704657 83.676962  L 102.207787 83.676962  z "/>
   </g>
   <g id="patch_22">
    <path clip-path="url(#p8ff095d583)" d="M 105.201528 83.677  L 106.698398 83.677  L 106.698398 83.67698  L 105.201528 83.67698  z "/>
   </g>
   <g id="patch_23">
    <path clip-path="url(#p8ff095d583)" d="M 108.195268 83.677  L 109.692139 83.677  L 109.692139 83.676995  L 108.195268 83.676995  z "/>
   </g>
   <g id="patch_24">
    <path clip-path="url(#p8ff095d583)" d="M 111.189009 83.677  L 112.685879 83.677  L 112.685879 83.676998  L 111.189009 83.676998  z "/>
   </g>
   <g id="patch_25">
    <path clip-path="url(#p8ff095d583)" d="M 114.18275 83.677  L 115.67962 83.677  L 115.67962 83.677  L 114.18275 83.677  z "/>
   </g>
   <g id="patch_26">
    <path clip-path="url(#p8ff095d583)" d="M 117.17649 83.677  L 118.673361 83.677  L 118.673361 83.677  L 117.17649 83.677  z "/>
   </g>
   <g id="patch_27">
    <path clip-path="url(#p8ff095d583)" d="M 120.170231 83.677  L 121.667101 83.677  L 121.667101 83.677  L 120.170231 83.677  z "/>
   </g>
   <g id="patch_28">
    <path clip-path="url(#p8ff095d583)" d="M 123.163972 83.677  L 124.660842 83.677  L 124.660842 83.677  L 123.163972 83.677  z "/>
   </g>
   <g id="patch_29">
    <path clip-path="url(#p8ff095d583)" d="M 126.157712 83.677  L 127.654583 83.677  L 127.654583 83.677  L 126.157712 83.677  z "/>
   </g>
   <g id="patch_30">
    <path clip-path="url(#p8ff095d583)" d="M 129.151453 83.677  L 130.648323 83.677  L 130.648323 83.677  L 129.151453 83.677  z "/>
   </g>
   <g id="patch_31">
    <path clip-path="url(#p8ff095d583)" d="M 132.145194 83.677  L 133.642064 83.677  L 133.642064 83.677  L 132.145194 83.677  z "/>
   </g>
   <g id="patch_32">
    <path clip-path="url(#p8ff095d583)" d="M 135.138934 83.677  L 136.635805 83.677  L 136.635805 83.677  L 135.138934 83.677  z "/>
   </g>
   <g id="patch_33">
    <path clip-path="url(#p8ff095d583)" d="M 138.132675 83.677  L 139.629545 83.677  L 139.629545 83.677  L 138.132675 83.677  z "/>
   </g>
   <g id="matplotlib.axis_1">
    <g id="xtick_1">
     <g id="line2d_1">
      <defs>
       <path d="M 0 0  L 0 3.5  " id="m8ab3ec5738" style="stroke:#000000;stroke-width:1.5;"/>
      </defs>
      <g>
       <use style="stroke:#000000;stroke-width:1.5;" x="49.06889" xlink:href="#m8ab3ec5738" y="83.677"/>
      </g>
     </g>
     <g id="text_1">
      <text style="font-family:DejaVu Sans;font-size:8px;font-stretch:normal;font-style:normal;font-weight:normal;text-anchor:middle;" transform="rotate(-0, 49.06889, 96.75575)" x="49.06889" y="96.75575">0</text>
     </g>
    </g>
    <g id="xtick_2">
     <g id="line2d_2">
      <g>
       <use style="stroke:#000000;stroke-width:1.5;" x="79.006297" xlink:href="#m8ab3ec5738" y="83.677"/>
      </g>
     </g>
     <g id="text_2">
      <text style="font-family:DejaVu Sans;font-size:8px;font-stretch:normal;font-style:normal;font-weight:normal;text-anchor:middle;" transform="rotate(-0, 79.006297, 96.75575)" x="79.006297" y="96.75575">10</text>
     </g>
    </g>
    <g id="xtick_3">
     <g id="line2d_3">
      <g>
       <use style="stroke:#000000;stroke-width:1.5;" x="108.943703" xlink:href="#m8ab3ec5738" y="83.677"/>
      </g>
     </g>
     <g id="text_3">
      <text style="font-family:DejaVu Sans;font-size:8px;font-stretch:normal;font-style:normal;font-weight:normal;text-anchor:middle;" transform="rotate(-0, 108.943703, 96.75575)" x="108.943703" y="96.75575">20</text>
     </g>
    </g>
    <g id="xtick_4">
     <g id="line2d_4">
      <g>
       <use style="stroke:#000000;stroke-width:1.5;" x="138.88111" xlink:href="#m8ab3ec5738" y="83.677"/>
      </g>
     </g>
     <g id="text_4">
      <text style="font-family:DejaVu Sans;font-size:8px;font-stretch:normal;font-style:normal;font-weight:normal;text-anchor:middle;" transform="rotate(-0, 138.88111, 96.75575)" x="138.88111" y="96.75575">30</text>
     </g>
    </g>
    <g id="text_5">
     <text style="font-family:DejaVu Sans;font-size:8px;font-stretch:normal;font-style:normal;font-weight:normal;text-anchor:middle;" transform="rotate(-0, 93.975, 108.49825)" x="93.975" y="108.49825">Dimension</text>
    </g>
   </g>
   <g id="matplotlib.axis_2">
    <g id="ytick_1">
     <g id="line2d_5">
      <defs>
       <path d="M 0 0  L -3.5 0  " id="m4047a83e03" style="stroke:#000000;stroke-width:1.5;"/>
      </defs>
      <g>
       <use style="stroke:#000000;stroke-width:1.5;" x="43.755" xlink:href="#m4047a83e03" y="83.677"/>
      </g>
     </g>
     <g id="text_6">
      <text style="font-family:DejaVu Sans;font-size:8px;font-stretch:normal;font-style:normal;font-weight:normal;text-anchor:end;" transform="rotate(-0, 36.755, 86.716375)" x="36.755" y="86.716375">0.00</text>
     </g>
    </g>
    <g id="ytick_2">
     <g id="line2d_6">
      <g>
       <use style="stroke:#000000;stroke-width:1.5;" x="43.755" xlink:href="#m4047a83e03" y="58.930781"/>
      </g>
     </g>
     <g id="text_7">
      <text style="font-family:DejaVu Sans;font-size:8px;font-stretch:normal;font-style:normal;font-weight:normal;text-anchor:end;" transform="rotate(-0, 36.755, 61.970156)" x="36.755" y="61.970156">0.02</text>
     </g>
    </g>
    <g id="ytick_3">
     <g id="line2d_7">
      <g>
       <use style="stroke:#000000;stroke-width:1.5;" x="43.755" xlink:href="#m4047a83e03" y="34.184562"/>
      </g>
     </g>
     <g id="text_8">
      <text style="font-family:DejaVu Sans;font-size:8px;font-stretch:normal;font-style:normal;font-weight:normal;text-anchor:end;" transform="rotate(-0, 36.755, 37.223937)" x="36.755" y="37.223937">0.04</text>
     </g>
    </g>
    <g id="text_9">
     <text style="font-family:DejaVu Sans;font-size:8px;font-stretch:normal;font-style:normal;font-weight:normal;text-anchor:middle;" transform="rotate(-90, 13.27875, 55.957)" x="13.27875" y="55.957">log(E.-value)</text>
    </g>
   </g>
   <g id="patch_34">
    <path d="M 43.755 83.677  L 43.755 28.237  " style="fill:none;stroke:#000000;stroke-linecap:square;stroke-linejoin:miter;stroke-width:1.5;"/>
   </g>
   <g id="patch_35">
    <path d="M 43.755 83.677  L 144.195 83.677  " style="fill:none;stroke:#000000;stroke-linecap:square;stroke-linejoin:miter;stroke-width:1.5;"/>
   </g>
   <g id="text_10">
    <text style="font-family:DejaVu Sans;font-size:8px;font-stretch:normal;font-style:normal;font-weight:normal;" transform="translate(77.190625 13.27875)">E / spike</text>
    <text style="font-family:DejaVu Sans;font-size:8px;font-stretch:normal;font-style:normal;font-weight:normal;" transform="translate(86.08875 22.237)">(PY)</text>
   </g>
  </g>
 </g>
 <defs>
  <clipPath id="p8ff095d583">
   <rect height="55.44" width="100.44" x="43.755" y="28.237"/>
  </clipPath>
 </defs>
</g>
    </g>
    <g transform="translate(440.0, 0.0) scale(1) ">
      <g transform="translate(0, 0.0) scale(1) translate(0, 0) scale(1.25) "><metadata>
  <rdf:RDF xmlns:cc="http://creativecommons.org/ns#" xmlns:dc="http://purl.org/dc/elements/1.1/" xmlns:rdf="http://www.w3.org/1999/02/22-rdf-syntax-ns#">
   <cc:Work>
    <dc:type rdf:resource="http://purl.org/dc/dcmitype/StillImage"/>
    <dc:date>2021-07-15T17:49:42.992404</dc:date>
    <dc:format>image/svg+xml</dc:format>
    <dc:creator>
     <cc:Agent>
      <dc:title>Matplotlib v3.4.2, https://matplotlib.org/</dc:title>
     </cc:Agent>
    </dc:creator>
   </cc:Work>
  </rdf:RDF>
 </metadata>
 <defs>
  <style type="text/css">*{stroke-linecap:butt;stroke-linejoin:round;}</style>
 </defs>
 <g id="figure_1">
  <g id="patch_1">
   <path d="M -0 117.362  L 166.665 117.362  L 166.665 0  L -0 0  z " style="fill:none;"/>
  </g>
  <g id="axes_1">
   <g id="patch_2">
    <path d="M 59.025 83.677  L 159.465 83.677  L 159.465 28.237  L 59.025 28.237  z " style="fill:#ffffff;"/>
   </g>
   <g id="patch_3">
    <path clip-path="url(#pc4fce9b03b)" d="M 63.590455 83.677  L 65.087325 83.677  L 65.087325 30.877  L 63.590455 30.877  z "/>
   </g>
   <g id="patch_4">
    <path clip-path="url(#pc4fce9b03b)" d="M 66.584195 83.677  L 68.081066 83.677  L 68.081066 82.095565  L 66.584195 82.095565  z "/>
   </g>
   <g id="patch_5">
    <path clip-path="url(#pc4fce9b03b)" d="M 69.577936 83.677  L 71.074806 83.677  L 71.074806 83.241255  L 69.577936 83.241255  z "/>
   </g>
   <g id="patch_6">
    <path clip-path="url(#pc4fce9b03b)" d="M 72.571677 83.677  L 74.068547 83.677  L 74.068547 83.452687  L 72.571677 83.452687  z "/>
   </g>
   <g id="patch_7">
    <path clip-path="url(#pc4fce9b03b)" d="M 75.565417 83.677  L 77.062288 83.677  L 77.062288 83.53112  L 75.565417 83.53112  z "/>
   </g>
   <g id="patch_8">
    <path clip-path="url(#pc4fce9b03b)" d="M 78.559158 83.677  L 80.056028 83.677  L 80.056028 83.654771  L 78.559158 83.654771  z "/>
   </g>
   <g id="patch_9">
    <path clip-path="url(#pc4fce9b03b)" d="M 81.552899 83.677  L 83.049769 83.677  L 83.049769 83.662536  L 81.552899 83.662536  z "/>
   </g>
   <g id="patch_10">
    <path clip-path="url(#pc4fce9b03b)" d="M 84.546639 83.677  L 86.04351 83.677  L 86.04351 83.665465  L 84.546639 83.665465  z "/>
   </g>
   <g id="patch_11">
    <path clip-path="url(#pc4fce9b03b)" d="M 87.54038 83.677  L 89.03725 83.677  L 89.03725 83.672716  L 87.54038 83.672716  z "/>
   </g>
   <g id="patch_12">
    <path clip-path="url(#pc4fce9b03b)" d="M 90.534121 83.677  L 92.030991 83.677  L 92.030991 83.674539  L 90.534121 83.674539  z "/>
   </g>
   <g id="patch_13">
    <path clip-path="url(#pc4fce9b03b)" d="M 93.527861 83.677  L 95.024732 83.677  L 95.024732 83.675662  L 93.527861 83.675662  z "/>
   </g>
   <g id="patch_14">
    <path clip-path="url(#pc4fce9b03b)" d="M 96.521602 83.677  L 98.018472 83.677  L 98.018472 83.675724  L 96.521602 83.675724  z "/>
   </g>
   <g id="patch_15">
    <path clip-path="url(#pc4fce9b03b)" d="M 99.515343 83.677  L 101.012213 83.677  L 101.012213 83.676309  L 99.515343 83.676309  z "/>
   </g>
   <g id="patch_16">
    <path clip-path="url(#pc4fce9b03b)" d="M 102.509083 83.677  L 104.005954 83.677  L 104.005954 83.676612  L 102.509083 83.676612  z "/>
   </g>
   <g id="patch_17">
    <path clip-path="url(#pc4fce9b03b)" d="M 105.502824 83.677  L 106.999694 83.677  L 106.999694 83.676724  L 105.502824 83.676724  z "/>
   </g>
   <g id="patch_18">
    <path clip-path="url(#pc4fce9b03b)" d="M 108.496565 83.677  L 109.993435 83.677  L 109.993435 83.676802  L 108.496565 83.676802  z "/>
   </g>
   <g id="patch_19">
    <path clip-path="url(#pc4fce9b03b)" d="M 111.490306 83.677  L 112.987176 83.677  L 112.987176 83.676865  L 111.490306 83.676865  z "/>
   </g>
   <g id="patch_20">
    <path clip-path="url(#pc4fce9b03b)" d="M 114.484046 83.677  L 115.980917 83.677  L 115.980917 83.676873  L 114.484046 83.676873  z "/>
   </g>
   <g id="patch_21">
    <path clip-path="url(#pc4fce9b03b)" d="M 117.477787 83.677  L 118.974657 83.677  L 118.974657 83.67691  L 117.477787 83.67691  z "/>
   </g>
   <g id="patch_22">
    <path clip-path="url(#pc4fce9b03b)" d="M 120.471528 83.677  L 121.968398 83.677  L 121.968398 83.676978  L 120.471528 83.676978  z "/>
   </g>
   <g id="patch_23">
    <path clip-path="url(#pc4fce9b03b)" d="M 123.465268 83.677  L 124.962139 83.677  L 124.962139 83.677  L 123.465268 83.677  z "/>
   </g>
   <g id="patch_24">
    <path clip-path="url(#pc4fce9b03b)" d="M 126.459009 83.677  L 127.955879 83.677  L 127.955879 83.677  L 126.459009 83.677  z "/>
   </g>
   <g id="patch_25">
    <path clip-path="url(#pc4fce9b03b)" d="M 129.45275 83.677  L 130.94962 83.677  L 130.94962 83.677  L 129.45275 83.677  z "/>
   </g>
   <g id="patch_26">
    <path clip-path="url(#pc4fce9b03b)" d="M 132.44649 83.677  L 133.943361 83.677  L 133.943361 83.677  L 132.44649 83.677  z "/>
   </g>
   <g id="patch_27">
    <path clip-path="url(#pc4fce9b03b)" d="M 135.440231 83.677  L 136.937101 83.677  L 136.937101 83.677  L 135.440231 83.677  z "/>
   </g>
   <g id="patch_28">
    <path clip-path="url(#pc4fce9b03b)" d="M 138.433972 83.677  L 139.930842 83.677  L 139.930842 83.677  L 138.433972 83.677  z "/>
   </g>
   <g id="patch_29">
    <path clip-path="url(#pc4fce9b03b)" d="M 141.427712 83.677  L 142.924583 83.677  L 142.924583 83.677  L 141.427712 83.677  z "/>
   </g>
   <g id="patch_30">
    <path clip-path="url(#pc4fce9b03b)" d="M 144.421453 83.677  L 145.918323 83.677  L 145.918323 83.677  L 144.421453 83.677  z "/>
   </g>
   <g id="patch_31">
    <path clip-path="url(#pc4fce9b03b)" d="M 147.415194 83.677  L 148.912064 83.677  L 148.912064 83.677  L 147.415194 83.677  z "/>
   </g>
   <g id="patch_32">
    <path clip-path="url(#pc4fce9b03b)" d="M 150.408934 83.677  L 151.905805 83.677  L 151.905805 83.677  L 150.408934 83.677  z "/>
   </g>
   <g id="patch_33">
    <path clip-path="url(#pc4fce9b03b)" d="M 153.402675 83.677  L 154.899545 83.677  L 154.899545 83.676998  L 153.402675 83.676998  z "/>
   </g>
   <g id="matplotlib.axis_1">
    <g id="xtick_1">
     <g id="line2d_1">
      <defs>
       <path d="M 0 0  L 0 3.5  " id="m2c4d8f6617" style="stroke:#000000;stroke-width:1.5;"/>
      </defs>
      <g>
       <use style="stroke:#000000;stroke-width:1.5;" x="64.33889" xlink:href="#m2c4d8f6617" y="83.677"/>
      </g>
     </g>
     <g id="text_1">
      <text style="font-family:DejaVu Sans;font-size:8px;font-stretch:normal;font-style:normal;font-weight:normal;text-anchor:middle;" transform="rotate(-0, 64.33889, 96.75575)" x="64.33889" y="96.75575">0</text>
     </g>
    </g>
    <g id="xtick_2">
     <g id="line2d_2">
      <g>
       <use style="stroke:#000000;stroke-width:1.5;" x="94.276297" xlink:href="#m2c4d8f6617" y="83.677"/>
      </g>
     </g>
     <g id="text_2">
      <text style="font-family:DejaVu Sans;font-size:8px;font-stretch:normal;font-style:normal;font-weight:normal;text-anchor:middle;" transform="rotate(-0, 94.276297, 96.75575)" x="94.276297" y="96.75575">10</text>
     </g>
    </g>
    <g id="xtick_3">
     <g id="line2d_3">
      <g>
       <use style="stroke:#000000;stroke-width:1.5;" x="124.213703" xlink:href="#m2c4d8f6617" y="83.677"/>
      </g>
     </g>
     <g id="text_3">
      <text style="font-family:DejaVu Sans;font-size:8px;font-stretch:normal;font-style:normal;font-weight:normal;text-anchor:middle;" transform="rotate(-0, 124.213703, 96.75575)" x="124.213703" y="96.75575">20</text>
     </g>
    </g>
    <g id="xtick_4">
     <g id="line2d_4">
      <g>
       <use style="stroke:#000000;stroke-width:1.5;" x="154.15111" xlink:href="#m2c4d8f6617" y="83.677"/>
      </g>
     </g>
     <g id="text_4">
      <text style="font-family:DejaVu Sans;font-size:8px;font-stretch:normal;font-style:normal;font-weight:normal;text-anchor:middle;" transform="rotate(-0, 154.15111, 96.75575)" x="154.15111" y="96.75575">30</text>
     </g>
    </g>
    <g id="text_5">
     <text style="font-family:DejaVu Sans;font-size:8px;font-stretch:normal;font-style:normal;font-weight:normal;text-anchor:middle;" transform="rotate(-0, 109.245, 108.49825)" x="109.245" y="108.49825">Dimension</text>
    </g>
   </g>
   <g id="matplotlib.axis_2">
    <g id="ytick_1">
     <g id="line2d_5">
      <defs>
       <path d="M 0 0  L -3.5 0  " id="m9d5d4633eb" style="stroke:#000000;stroke-width:1.5;"/>
      </defs>
      <g>
       <use style="stroke:#000000;stroke-width:1.5;" x="59.025" xlink:href="#m9d5d4633eb" y="83.677"/>
      </g>
     </g>
     <g id="text_6">
      <text style="font-family:DejaVu Sans;font-size:8px;font-stretch:normal;font-style:normal;font-weight:normal;text-anchor:end;" transform="rotate(-0, 52.025, 86.716375)" x="52.025" y="86.716375">0.00000</text>
     </g>
    </g>
    <g id="ytick_2">
     <g id="line2d_6">
      <g>
       <use style="stroke:#000000;stroke-width:1.5;" x="59.025" xlink:href="#m9d5d4633eb" y="56.344396"/>
      </g>
     </g>
     <g id="text_7">
      <text style="font-family:DejaVu Sans;font-size:8px;font-stretch:normal;font-style:normal;font-weight:normal;text-anchor:end;" transform="rotate(-0, 52.025, 59.383771)" x="52.025" y="59.383771">0.00005</text>
     </g>
    </g>
    <g id="ytick_3">
     <g id="line2d_7">
      <g>
       <use style="stroke:#000000;stroke-width:1.5;" x="59.025" xlink:href="#m9d5d4633eb" y="29.011793"/>
      </g>
     </g>
     <g id="text_8">
      <text style="font-family:DejaVu Sans;font-size:8px;font-stretch:normal;font-style:normal;font-weight:normal;text-anchor:end;" transform="rotate(-0, 52.025, 32.051168)" x="52.025" y="32.051168">0.00010</text>
     </g>
    </g>
    <g id="text_9">
     <text style="font-family:DejaVu Sans;font-size:8px;font-stretch:normal;font-style:normal;font-weight:normal;text-anchor:middle;" transform="rotate(-90, 13.27875, 55.957)" x="13.27875" y="55.957">log(E.-value)</text>
    </g>
   </g>
   <g id="patch_34">
    <path d="M 59.025 83.677  L 59.025 28.237  " style="fill:none;stroke:#000000;stroke-linecap:square;stroke-linejoin:miter;stroke-width:1.5;"/>
   </g>
   <g id="patch_35">
    <path d="M 59.025 83.677  L 159.465 83.677  " style="fill:none;stroke:#000000;stroke-linecap:square;stroke-linejoin:miter;stroke-width:1.5;"/>
   </g>
   <g id="text_10">
    <text style="font-family:DejaVu Sans;font-size:8px;font-stretch:normal;font-style:normal;font-weight:normal;" transform="translate(76.780625 13.27875)">Spikes per burst</text>
    <text style="font-family:DejaVu Sans;font-size:8px;font-stretch:normal;font-style:normal;font-weight:normal;" transform="translate(101.35875 22.237)">(PY)</text>
   </g>
  </g>
 </g>
 <defs>
  <clipPath id="pc4fce9b03b">
   <rect height="55.44" width="100.44" x="59.025" y="28.237"/>
  </clipPath>
 </defs>
</g>
    </g>
  </g>
</svg>
