<?xml version='1.0' encoding='ASCII' standalone='yes'?>
<svg xmlns="http://www.w3.org/2000/svg" xmlns:xlink="http://www.w3.org/1999/xlink" version="1.1" width="20.3cm" viewBox="0 0 20.3cm 3.0cm" height="3.0cm">
  <g>
    <g transform="translate(0.0, 11.55) scale(1) ">
      <g transform="translate(0, 0.0) scale(1) translate(0, 0) scale(1.25) "><metadata>
  <rdf:RDF xmlns:cc="http://creativecommons.org/ns#" xmlns:dc="http://purl.org/dc/elements/1.1/" xmlns:rdf="http://www.w3.org/1999/02/22-rdf-syntax-ns#">
   <cc:Work>
    <dc:type rdf:resource="http://purl.org/dc/dcmitype/StillImage"/>
    <dc:date>2021-02-04T13:57:50.181440</dc:date>
    <dc:format>image/svg+xml</dc:format>
    <dc:creator>
     <cc:Agent>
      <dc:title>Matplotlib v3.3.2, https://matplotlib.org/</dc:title>
     </cc:Agent>
    </dc:creator>
   </cc:Work>
  </rdf:RDF>
 </metadata>
 <defs>
  <style type="text/css">*{stroke-linecap:butt;stroke-linejoin:round;}</style>
 </defs>
 <g id="figure_1">
  <g id="patch_1">
   <path d="M 0 82.077875  L 210.54375 82.077875  L 210.54375 0  L 0 0  z " style="fill:none;"/>
  </g>
  <g id="axes_1">
   <g id="patch_2">
    <path d="M 25.99375 60.135375  L 165.49375 60.135375  L 165.49375 10.239375  L 25.99375 10.239375  z " style="fill:#ffffff;"/>
   </g>
   <g id="patch_3">
    <path clip-path="url(#p1f3c2c0e4e)" d="M 29.83 35.187375  L 32.62 35.187375  L 32.62 25.979383  L 29.83 25.979383  z " style="fill:#3182bd;"/>
   </g>
   <g id="patch_4">
    <path clip-path="url(#p1f3c2c0e4e)" d="M 47.2675 35.187375  L 50.0575 35.187375  L 50.0575 28.831771  L 47.2675 28.831771  z " style="fill:#3182bd;"/>
   </g>
   <g id="patch_5">
    <path clip-path="url(#p1f3c2c0e4e)" d="M 64.705 35.187375  L 67.495 35.187375  L 67.495 31.74691  L 64.705 31.74691  z " style="fill:#3182bd;"/>
   </g>
   <g id="patch_6">
    <path clip-path="url(#p1f3c2c0e4e)" d="M 82.1425 35.187375  L 84.9325 35.187375  L 84.9325 37.166016  L 82.1425 37.166016  z " style="fill:#3182bd;"/>
   </g>
   <g id="patch_7">
    <path clip-path="url(#p1f3c2c0e4e)" d="M 99.58 35.187375  L 102.37 35.187375  L 102.37 30.598204  L 99.58 30.598204  z " style="fill:#3182bd;"/>
   </g>
   <g id="patch_8">
    <path clip-path="url(#p1f3c2c0e4e)" d="M 117.0175 35.187375  L 119.8075 35.187375  L 119.8075 36.979573  L 117.0175 36.979573  z " style="fill:#3182bd;"/>
   </g>
   <g id="patch_9">
    <path clip-path="url(#p1f3c2c0e4e)" d="M 134.455 35.187375  L 137.245 35.187375  L 137.245 37.785771  L 134.455 37.785771  z " style="fill:#3182bd;"/>
   </g>
   <g id="patch_10">
    <path clip-path="url(#p1f3c2c0e4e)" d="M 151.8925 35.187375  L 154.6825 35.187375  L 154.6825 36.818561  L 151.8925 36.818561  z " style="fill:#3182bd;"/>
   </g>
   <g id="patch_11">
    <path clip-path="url(#p1f3c2c0e4e)" d="M 33.3175 35.187375  L 36.1075 35.187375  L 36.1075 31.531529  L 33.3175 31.531529  z " style="fill:#fc8d59;"/>
   </g>
   <g id="patch_12">
    <path clip-path="url(#p1f3c2c0e4e)" d="M 50.755 35.187375  L 53.545 35.187375  L 53.545 35.935815  L 50.755 35.935815  z " style="fill:#fc8d59;"/>
   </g>
   <g id="patch_13">
    <path clip-path="url(#p1f3c2c0e4e)" d="M 68.1925 35.187375  L 70.9825 35.187375  L 70.9825 32.295735  L 68.1925 32.295735  z " style="fill:#fc8d59;"/>
   </g>
   <g id="patch_14">
    <path clip-path="url(#p1f3c2c0e4e)" d="M 85.63 35.187375  L 88.42 35.187375  L 88.42 33.042074  L 85.63 33.042074  z " style="fill:#fc8d59;"/>
   </g>
   <g id="patch_15">
    <path clip-path="url(#p1f3c2c0e4e)" d="M 103.0675 35.187375  L 105.8575 35.187375  L 105.8575 32.748539  L 103.0675 32.748539  z " style="fill:#fc8d59;"/>
   </g>
   <g id="patch_16">
    <path clip-path="url(#p1f3c2c0e4e)" d="M 120.505 35.187375  L 123.295 35.187375  L 123.295 37.779561  L 120.505 37.779561  z " style="fill:#fc8d59;"/>
   </g>
   <g id="patch_17">
    <path clip-path="url(#p1f3c2c0e4e)" d="M 137.9425 35.187375  L 140.7325 35.187375  L 140.7325 34.438935  L 137.9425 34.438935  z " style="fill:#fc8d59;"/>
   </g>
   <g id="patch_18">
    <path clip-path="url(#p1f3c2c0e4e)" d="M 155.38 35.187375  L 158.17 35.187375  L 158.17 34.438935  L 155.38 34.438935  z " style="fill:#fc8d59;"/>
   </g>
   <g id="patch_19">
    <path clip-path="url(#p1f3c2c0e4e)" d="M 36.805 35.187375  L 39.595 35.187375  L 39.595 20.948066  L 36.805 20.948066  z " style="fill:#2ca25f;"/>
   </g>
   <g id="patch_20">
    <path clip-path="url(#p1f3c2c0e4e)" d="M 54.2425 35.187375  L 57.0325 35.187375  L 57.0325 22.584565  L 54.2425 22.584565  z " style="fill:#2ca25f;"/>
   </g>
   <g id="patch_21">
    <path clip-path="url(#p1f3c2c0e4e)" d="M 71.68 35.187375  L 74.47 35.187375  L 74.47 34.375853  L 71.68 34.375853  z " style="fill:#2ca25f;"/>
   </g>
   <g id="patch_22">
    <path clip-path="url(#p1f3c2c0e4e)" d="M 89.1175 35.187375  L 91.9075 35.187375  L 91.9075 38.034542  L 89.1175 38.034542  z " style="fill:#2ca25f;"/>
   </g>
   <g id="patch_23">
    <path clip-path="url(#p1f3c2c0e4e)" d="M 106.555 35.187375  L 109.345 35.187375  L 109.345 35.935815  L 106.555 35.935815  z " style="fill:#2ca25f;"/>
   </g>
   <g id="patch_24">
    <path clip-path="url(#p1f3c2c0e4e)" d="M 123.9925 35.187375  L 126.7825 35.187375  L 126.7825 36.327526  L 123.9925 36.327526  z " style="fill:#2ca25f;"/>
   </g>
   <g id="patch_25">
    <path clip-path="url(#p1f3c2c0e4e)" d="M 141.43 35.187375  L 144.22 35.187375  L 144.22 34.438935  L 141.43 34.438935  z " style="fill:#2ca25f;"/>
   </g>
   <g id="patch_26">
    <path clip-path="url(#p1f3c2c0e4e)" d="M 158.8675 35.187375  L 161.6575 35.187375  L 161.6575 34.127457  L 158.8675 34.127457  z " style="fill:#2ca25f;"/>
   </g>
   <g id="matplotlib.axis_1">
    <g id="xtick_1">
     <g id="line2d_1">
      <defs>
       <path d="M 0 0  L 0 3.5  " id="m350690d1f5" style="stroke:#000000;stroke-width:1.5;"/>
      </defs>
      <g>
       <use style="stroke:#000000;stroke-width:1.5;" x="34.7125" xlink:href="#m350690d1f5" y="60.135375"/>
      </g>
     </g>
     <g id="text_1">
      <text style="font-family:DejaVu Sans;font-size:8px;font-stretch:normal;font-style:normal;font-weight:normal;text-anchor:middle;" transform="rotate(-0, 34.7125, 73.214125)" x="34.7125" y="73.214125">Na</text>
     </g>
    </g>
    <g id="xtick_2">
     <g id="line2d_2">
      <g>
       <use style="stroke:#000000;stroke-width:1.5;" x="52.15" xlink:href="#m350690d1f5" y="60.135375"/>
      </g>
     </g>
     <g id="text_2">
      <text style="font-family:DejaVu Sans;font-size:8px;font-stretch:normal;font-style:normal;font-weight:normal;text-anchor:middle;" transform="rotate(-0, 52.15, 73.214125)" x="52.15" y="73.214125">CaT</text>
     </g>
    </g>
    <g id="xtick_3">
     <g id="line2d_3">
      <g>
       <use style="stroke:#000000;stroke-width:1.5;" x="69.5875" xlink:href="#m350690d1f5" y="60.135375"/>
      </g>
     </g>
     <g id="text_3">
      <text style="font-family:DejaVu Sans;font-size:8px;font-stretch:normal;font-style:normal;font-weight:normal;text-anchor:middle;" transform="rotate(-0, 69.5875, 73.214125)" x="69.5875" y="73.214125">CaS</text>
     </g>
    </g>
    <g id="xtick_4">
     <g id="line2d_4">
      <g>
       <use style="stroke:#000000;stroke-width:1.5;" x="87.025" xlink:href="#m350690d1f5" y="60.135375"/>
      </g>
     </g>
     <g id="text_4">
      <text style="font-family:DejaVu Sans;font-size:8px;font-stretch:normal;font-style:normal;font-weight:normal;text-anchor:middle;" transform="rotate(-0, 87.025, 73.214125)" x="87.025" y="73.214125">A</text>
     </g>
    </g>
    <g id="xtick_5">
     <g id="line2d_5">
      <g>
       <use style="stroke:#000000;stroke-width:1.5;" x="104.4625" xlink:href="#m350690d1f5" y="60.135375"/>
      </g>
     </g>
     <g id="text_5">
      <text style="font-family:DejaVu Sans;font-size:8px;font-stretch:normal;font-style:normal;font-weight:normal;text-anchor:middle;" transform="rotate(-0, 104.4625, 73.214125)" x="104.4625" y="73.214125">KCa</text>
     </g>
    </g>
    <g id="xtick_6">
     <g id="line2d_6">
      <g>
       <use style="stroke:#000000;stroke-width:1.5;" x="121.9" xlink:href="#m350690d1f5" y="60.135375"/>
      </g>
     </g>
     <g id="text_6">
      <text style="font-family:DejaVu Sans;font-size:8px;font-stretch:normal;font-style:normal;font-weight:normal;text-anchor:middle;" transform="rotate(-0, 121.9, 73.214125)" x="121.9" y="73.214125">Kd</text>
     </g>
    </g>
    <g id="xtick_7">
     <g id="line2d_7">
      <g>
       <use style="stroke:#000000;stroke-width:1.5;" x="139.3375" xlink:href="#m350690d1f5" y="60.135375"/>
      </g>
     </g>
     <g id="text_7">
      <text style="font-family:DejaVu Sans;font-size:8px;font-stretch:normal;font-style:normal;font-weight:normal;text-anchor:middle;" transform="rotate(-0, 139.3375, 73.214125)" x="139.3375" y="73.214125">H</text>
     </g>
    </g>
    <g id="xtick_8">
     <g id="line2d_8">
      <g>
       <use style="stroke:#000000;stroke-width:1.5;" x="156.775" xlink:href="#m350690d1f5" y="60.135375"/>
      </g>
     </g>
     <g id="text_8">
      <text style="font-family:DejaVu Sans;font-size:8px;font-stretch:normal;font-style:normal;font-weight:normal;text-anchor:middle;" transform="rotate(-0, 156.775, 73.214125)" x="156.775" y="73.214125">leak</text>
     </g>
    </g>
   </g>
   <g id="matplotlib.axis_2">
    <g id="ytick_1">
     <g id="line2d_9">
      <defs>
       <path d="M 0 0  L -3.5 0  " id="m8f82fceffb" style="stroke:#000000;stroke-width:1.5;"/>
      </defs>
      <g>
       <use style="stroke:#000000;stroke-width:1.5;" x="25.99375" xlink:href="#m8f82fceffb" y="60.135375"/>
      </g>
     </g>
     <g id="text_9">
      <text style="font-family:DejaVu Sans;font-size:8px;font-stretch:normal;font-style:normal;font-weight:normal;text-anchor:end;" transform="rotate(-0, 18.99375, 63.17475)" x="18.99375" y="63.17475">&#8722;1</text>
     </g>
    </g>
    <g id="ytick_2">
     <g id="line2d_10">
      <g>
       <use style="stroke:#000000;stroke-width:1.5;" x="25.99375" xlink:href="#m8f82fceffb" y="35.187375"/>
      </g>
     </g>
     <g id="text_10">
      <text style="font-family:DejaVu Sans;font-size:8px;font-stretch:normal;font-style:normal;font-weight:normal;text-anchor:end;" transform="rotate(-0, 18.99375, 38.22675)" x="18.99375" y="38.22675">0</text>
     </g>
    </g>
    <g id="ytick_3">
     <g id="line2d_11">
      <g>
       <use style="stroke:#000000;stroke-width:1.5;" x="25.99375" xlink:href="#m8f82fceffb" y="10.239375"/>
      </g>
     </g>
     <g id="text_11">
      <text style="font-family:DejaVu Sans;font-size:8px;font-stretch:normal;font-style:normal;font-weight:normal;text-anchor:end;" transform="rotate(-0, 18.99375, 13.27875)" x="18.99375" y="13.27875">1</text>
     </g>
    </g>
   </g>
   <g id="patch_27">
    <path d="M 25.99375 60.135375  L 25.99375 10.239375  " style="fill:none;stroke:#000000;stroke-linecap:square;stroke-linejoin:miter;stroke-width:1.5;"/>
   </g>
   <g id="patch_28">
    <path d="M 25.99375 60.135375  L 165.49375 60.135375  " style="fill:none;stroke:#000000;stroke-linecap:square;stroke-linejoin:miter;stroke-width:1.5;"/>
   </g>
   <g id="text_12">
    <text style="font-family:DejaVu Sans;font-size:8px;font-stretch:normal;font-style:normal;font-weight:normal;text-anchor:start;" transform="rotate(-0, 57.38125, 15.228975)" x="57.38125" y="15.228975">Mean-shift of marginal</text>
   </g>
   <g id="legend_1">
    <g id="patch_29">
     <path d="M 170.30375 33.497325  L 172.70375 33.497325  L 172.70375 27.897325  L 170.30375 27.897325  z " style="fill:#3182bd;"/>
    </g>
    <g id="text_13">
     <text style="font-family:DejaVu Sans;font-size:8px;font-stretch:normal;font-style:normal;font-weight:normal;text-anchor:start;" transform="rotate(-0, 175.50375, 33.497325)" x="175.50375" y="33.497325">AB/PD</text>
    </g>
    <g id="patch_30">
     <path d="M 170.30375 45.239825  L 172.70375 45.239825  L 172.70375 39.639825  L 170.30375 39.639825  z " style="fill:#fc8d59;"/>
    </g>
    <g id="text_14">
     <text style="font-family:DejaVu Sans;font-size:8px;font-stretch:normal;font-style:normal;font-weight:normal;text-anchor:start;" transform="rotate(-0, 175.50375, 45.239825)" x="175.50375" y="45.239825">LP</text>
    </g>
    <g id="patch_31">
     <path d="M 170.30375 56.982325  L 172.70375 56.982325  L 172.70375 51.382325  L 170.30375 51.382325  z " style="fill:#2ca25f;"/>
    </g>
    <g id="text_15">
     <text style="font-family:DejaVu Sans;font-size:8px;font-stretch:normal;font-style:normal;font-weight:normal;text-anchor:start;" transform="rotate(-0, 175.50375, 56.982325)" x="175.50375" y="56.982325">PY</text>
    </g>
   </g>
  </g>
 </g>
 <defs>
  <clipPath id="p1f3c2c0e4e">
   <rect height="49.896" width="139.5" x="25.99375" y="10.239375"/>
  </clipPath>
 </defs>
</g>
    </g>
  </g>
</svg>
