<?xml version='1.0' encoding='ASCII' standalone='yes'?>
<svg xmlns="http://www.w3.org/2000/svg" xmlns:xlink="http://www.w3.org/1999/xlink" version="1.1" width="20.3cm" viewBox="0 0 20.3cm 4.9cm" height="4.9cm">
  <g>
    <g transform="translate(0.0, -7.699999999999999) scale(1) ">
      <g transform="translate(0, 0.0) scale(1) translate(0, 0) scale(1.25) "><metadata>
  <rdf:RDF xmlns:cc="http://creativecommons.org/ns#" xmlns:dc="http://purl.org/dc/elements/1.1/" xmlns:rdf="http://www.w3.org/1999/02/22-rdf-syntax-ns#">
   <cc:Work>
    <dc:type rdf:resource="http://purl.org/dc/dcmitype/StillImage"/>
    <dc:date>2022-03-17T12:15:48.932913</dc:date>
    <dc:format>image/svg+xml</dc:format>
    <dc:creator>
     <cc:Agent>
      <dc:title>Matplotlib v3.4.2, https://matplotlib.org/</dc:title>
     </cc:Agent>
    </dc:creator>
   </cc:Work>
  </rdf:RDF>
 </metadata>
 <defs>
  <style type="text/css">*{stroke-linecap:butt;stroke-linejoin:round;}</style>
 </defs>
 <g id="figure_1">
  <g id="patch_1">
   <path d="M 0 128.317  L 359.42625 128.317  L 359.42625 0  L 0 0  z " style="fill:none;"/>
  </g>
  <g id="axes_1">
   <g id="patch_2">
    <path d="M 45.32625 94.632  L 352.22625 94.632  L 352.22625 22.56  L 45.32625 22.56  z " style="fill:none;"/>
   </g>
   <g id="matplotlib.axis_1">
    <g id="xtick_1">
     <g id="line2d_1">
      <defs>
       <path d="M 0 0  L 0 3.5  " id="m0e6f4b4268" style="stroke:#000000;stroke-width:1.5;"/>
      </defs>
      <g>
       <use style="stroke:#000000;stroke-width:1.5;" x="59.27625" xlink:href="#m0e6f4b4268" y="94.632"/>
      </g>
     </g>
     <g id="text_1">
      <text style="font-family:DejaVu Sans;font-size:8px;font-stretch:normal;font-style:normal;font-weight:normal;text-anchor:middle;" transform="rotate(-0, 59.27625, 107.71075)" x="59.27625" y="107.71075">0</text>
     </g>
    </g>
    <g id="xtick_2">
     <g id="line2d_2">
      <g>
       <use style="stroke:#000000;stroke-width:1.5;" x="141.945979" xlink:href="#m0e6f4b4268" y="94.632"/>
      </g>
     </g>
     <g id="text_2">
      <text style="font-family:DejaVu Sans;font-size:8px;font-stretch:normal;font-style:normal;font-weight:normal;text-anchor:middle;" transform="rotate(-0, 141.945979, 107.71075)" x="141.945979" y="107.71075">200</text>
     </g>
    </g>
    <g id="xtick_3">
     <g id="line2d_3">
      <g>
       <use style="stroke:#000000;stroke-width:1.5;" x="224.615707" xlink:href="#m0e6f4b4268" y="94.632"/>
      </g>
     </g>
     <g id="text_3">
      <text style="font-family:DejaVu Sans;font-size:8px;font-stretch:normal;font-style:normal;font-weight:normal;text-anchor:middle;" transform="rotate(-0, 224.615707, 107.71075)" x="224.615707" y="107.71075">400</text>
     </g>
    </g>
    <g id="xtick_4">
     <g id="line2d_4">
      <g>
       <use style="stroke:#000000;stroke-width:1.5;" x="307.285436" xlink:href="#m0e6f4b4268" y="94.632"/>
      </g>
     </g>
     <g id="text_4">
      <text style="font-family:DejaVu Sans;font-size:8px;font-stretch:normal;font-style:normal;font-weight:normal;text-anchor:middle;" transform="rotate(-0, 307.285436, 107.71075)" x="307.285436" y="107.71075">600</text>
     </g>
    </g>
    <g id="text_5">
     <text style="font-family:DejaVu Sans;font-size:8px;font-stretch:normal;font-style:normal;font-weight:normal;text-anchor:middle;" transform="rotate(-0, 198.77625, 119.45325)" x="198.77625" y="119.45325">Time (ms)</text>
    </g>
   </g>
   <g id="matplotlib.axis_2">
    <g id="ytick_1">
     <g id="line2d_5">
      <defs>
       <path d="M 0 0  L -3.5 0  " id="mf168cf518e" style="stroke:#000000;stroke-width:1.5;"/>
      </defs>
      <g>
       <use style="stroke:#000000;stroke-width:1.5;" x="45.32625" xlink:href="#mf168cf518e" y="77.847737"/>
      </g>
     </g>
     <g id="text_6">
      <text style="font-family:DejaVu Sans;font-size:8px;font-stretch:normal;font-style:normal;font-weight:normal;text-anchor:end;" transform="rotate(-0, 38.32625, 80.887112)" x="38.32625" y="80.887112">&#8722;50</text>
     </g>
    </g>
    <g id="ytick_2">
     <g id="line2d_6">
      <g>
       <use style="stroke:#000000;stroke-width:1.5;" x="45.32625" xlink:href="#mf168cf518e" y="50.530935"/>
      </g>
     </g>
     <g id="text_7">
      <text style="font-family:DejaVu Sans;font-size:8px;font-stretch:normal;font-style:normal;font-weight:normal;text-anchor:end;" transform="rotate(-0, 38.32625, 53.57031)" x="38.32625" y="53.57031">0</text>
     </g>
    </g>
    <g id="ytick_3">
     <g id="line2d_7">
      <g>
       <use style="stroke:#000000;stroke-width:1.5;" x="45.32625" xlink:href="#mf168cf518e" y="23.214132"/>
      </g>
     </g>
     <g id="text_8">
      <text style="font-family:DejaVu Sans;font-size:8px;font-stretch:normal;font-style:normal;font-weight:normal;text-anchor:end;" transform="rotate(-0, 38.32625, 26.253507)" x="38.32625" y="26.253507">50</text>
     </g>
    </g>
    <g id="text_9">
     <text style="font-family:DejaVu Sans;font-size:8px;font-stretch:normal;font-style:normal;font-weight:normal;text-anchor:middle;" transform="rotate(-90, 13.27875, 58.596)" x="13.27875" y="58.596">Voltage PY (mV)</text>
    </g>
   </g>
   <g id="line2d_8">
    <path clip-path="url(#pcb597b9555)" d="M 59.27625 76.274807  L 59.472591 76.180068  L 59.503592 76.222488  L 59.586261 76.190921  L 59.668931 76.114421  L 59.730934 76.069022  L 59.761935 76.147303  L 59.896273 76.258695  L 60.195951 76.163805  L 60.226952 76.073294  L 60.299288 76.174542  L 60.350956 76.222997  L 60.402625 76.148577  L 60.578298 76.022239  L 60.88831 75.939525  L 61.229322 75.74799  L 61.24999 75.802444  L 61.404996 75.922542  L 61.508333 75.81936  L 61.529 75.840116  L 61.591002 75.780496  L 61.632337 75.863696  L 61.673672 75.835637  L 61.746008 75.869407  L 61.787343 75.862146  L 61.818344 75.931731  L 61.97335 76.027293  L 62.118022 75.911337  L 62.138689 75.974166  L 62.149023 76.024691  L 62.16969 75.952395  L 62.242027 75.976633  L 62.304029 75.993279  L 62.33503 76.041937  L 62.4177 75.966264  L 62.448701 76.038429  L 62.552038 75.971734  L 62.583039 75.998575  L 62.634708 75.921339  L 62.789713 75.899569  L 62.913718 75.932593  L 62.944719 75.897956  L 63.42007 75.636473  L 63.492406 75.662238  L 63.50274 75.681572  L 63.647412 75.790315  L 63.730082 75.769388  L 63.761083 75.797273  L 63.78175 75.859738  L 63.843753 75.734427  L 63.94709 75.642341  L 63.978091 75.679955  L 64.443108 75.837438  L 64.536111 75.9104  L 64.567113 75.89731  L 64.618781 75.946746  L 64.67045 75.8682  L 64.711785 75.819073  L 64.763453 75.92293  L 64.980461 75.97917  L 65.042464 76.031546  L 65.073465 75.971325  L 65.083798 75.931481  L 65.135467 76.030957  L 65.166468 76.003715  L 65.321474 76.213444  L 65.331808 76.236544  L 65.383476 76.146433  L 65.404144 76.142068  L 65.466146 76.053409  L 65.517815 76.120358  L 65.600484 76.18834  L 65.631485 76.153283  L 65.900162 76.275646  L 65.962164 76.310756  L 65.993165 76.244566  L 66.241175 75.962229  L 66.251508 75.990952  L 66.334178 75.904708  L 66.592521 75.759941  L 66.664857 75.660473  L 66.726859 75.7169  L 66.912866 75.777414  L 67.016203 75.695823  L 67.026537 75.737098  L 67.129874 75.755993  L 67.191877 75.660234  L 67.243545 75.74817  L 67.28488 75.67621  L 67.336549 75.708834  L 67.460553 75.58318  L 67.470887 75.587221  L 67.615559 75.572456  L 67.625893 75.546915  L 67.749897 75.466944  L 67.760231 75.488889  L 67.842901 75.508163  L 67.853234 75.545096  L 67.904903 75.473748  L 68.028908 75.709049  L 68.483591 75.636533  L 68.524926 75.655058  L 68.566261 75.594941  L 68.576594 75.604903  L 68.586928 75.56073  L 68.617929 75.634486  L 68.679932 75.63433  L 68.907273 75.687138  L 68.948608 75.70748  L 68.927941 75.653413  L 69.010611 75.651195  L 69.041612 75.679498  L 69.124281 75.657863  L 69.279287 75.730884  L 69.496295 75.660684  L 69.506629 75.719411  L 69.516963 75.77227  L 69.599632 75.682037  L 69.671968 75.650146  L 69.713303 75.693268  L 69.795973 75.838307  L 69.857975 75.781866  L 69.992314 75.662827  L 70.012981 75.69427  L 70.074983 75.593513  L 70.188654 75.551058  L 70.198988 75.558038  L 70.209322 75.584537  L 70.250656 75.479663  L 70.291991 75.490897  L 70.436663 75.478611  L 70.446997 75.492089  L 70.591669 75.46689  L 70.695006 75.400864  L 70.70534 75.424815  L 70.798343 75.515743  L 70.829345 75.447255  L 70.994684 75.451218  L 71.005018 75.41462  L 71.470035 75.120834  L 71.480369 75.1357  L 71.697377 75.160798  L 71.831715 75.191982  L 71.945386 75.275214  L 71.852382 75.171013  L 71.976387 75.233982  L 71.986721 75.203033  L 72.06939 75.299124  L 72.203729 75.230273  L 72.224396 75.261483  L 72.276065 75.26152  L 72.296732 75.216619  L 72.462072 74.879137  L 72.472405 74.886568  L 72.648079 74.917683  L 72.865087 74.766588  L 72.896088 74.830438  L 72.978758 74.90712  L 72.916755 74.811884  L 73.020092 74.88387  L 73.340438 74.693559  L 73.350771 74.704132  L 73.536778 74.688401  L 73.547112 74.70734  L 73.68145 74.736853  L 73.691784 74.719405  L 73.815789 74.728665  L 73.826122 74.744359  L 73.950127 74.773268  L 74.001795 74.840121  L 74.053464 74.777676  L 74.167135 74.675717  L 74.187802 74.690966  L 74.518481 74.677677  L 74.714822 74.861156  L 74.838826 74.735132  L 74.84916 74.742158  L 75.117837 74.623085  L 75.252175 74.663479  L 75.438182 74.533124  L 75.531185 74.518873  L 75.469183 74.469633  L 75.541519 74.48372  L 75.851531 74.161108  L 75.903199 74.246964  L 76.161542 74.292982  L 76.29588 74.175289  L 76.357883 74.097849  L 76.46122 73.957042  L 76.481887 74.007163  L 76.512888 73.953593  L 76.667894 74.01019  L 77.401588 73.501081  L 77.484258 73.514486  L 77.504925 73.452251  L 77.597929 73.410411  L 77.525593 73.465771  L 77.62893 73.444256  L 78.124948 73.126776  L 78.176617 73.183533  L 78.248953 73.041642  L 78.310955 73.095785  L 78.362624 73.015095  L 78.517629 72.851186  L 78.527963 72.863446  L 79.395995 71.883751  L 79.406329 71.915435  L 79.530333 71.766538  L 79.840345 71.048773  L 79.861012 71.080441  L 79.902347 70.968343  L 79.912681 70.969561  L 80.52237 69.119725  L 80.636041 68.326016  L 80.822048 63.823064  L 80.904718 51.731406  L 81.070057 25.836  L 81.101058 26.425139  L 81.235397 34.578539  L 81.597077 55.814987  L 81.834752 66.664392  L 82.062094 76.735148  L 82.124096 77.015584  L 82.206766 76.999251  L 82.2171 77.008986  L 82.258435 76.912098  L 82.403107 76.552591  L 82.516777 76.344324  L 82.547779 76.385146  L 82.609781 76.224425  L 82.826789 75.690051  L 83.477813 74.381331  L 83.66382 73.926112  L 83.674154 73.934127  L 83.777491 73.670588  L 83.963498 73.240644  L 84.697192 71.846536  L 84.717859 71.797523  L 84.852197 71.448273  L 84.862531 71.469052  L 84.872865 71.489415  L 84.924533 71.359984  L 84.955534 71.299507  L 85.224211 70.342046  L 85.523889 69.065149  L 85.813233 65.103198  L 85.895903 57.804641  L 86.040575 31.224546  L 86.123244 34.643858  L 86.608929 58.715551  L 86.753601 67.915062  L 86.960275 78.921089  L 87.073946 79.14748  L 87.094614 79.057178  L 87.776639 77.115915  L 87.869642 76.907421  L 88.179654 75.886774  L 89.130356 73.337223  L 89.409366 72.408448  L 90.349734 68.772774  L 90.546075 65.191581  L 90.628745 56.299306  L 90.752749 30.390677  L 90.825085 32.671948  L 91.786121 80.700521  L 91.817122 80.654368  L 91.899792 80.484914  L 93.026167 77.11035  L 93.243175 76.40562  L 93.780528 74.816021  L 94.245545 73.389177  L 94.338549 73.100127  L 94.720896 71.946246  L 94.772565 71.809844  L 95.37192 69.26042  L 95.557927 67.133193  L 95.650931 63.476586  L 95.723267 49.256715  L 95.826604 29.575881  L 95.878272 31.048289  L 96.570631 64.998476  L 96.828974 81.670583  L 96.921978 81.794657  L 96.942645 81.731302  L 97.283658 80.731192  L 97.479998 80.202795  L 97.769342 79.245425  L 97.779676 79.263963  L 97.821011 79.115176  L 97.924348 78.944053  L 98.06902 78.430392  L 98.079354 78.440734  L 98.51337 77.042107  L 99.474405 74.205061  L 99.639745 73.770719  L 99.856753 73.113704  L 100.952127 68.83665  L 101.107133 66.349972  L 101.189802 60.862622  L 101.334474 29.037036  L 101.458479 33.901446  L 101.975165 58.157126  L 102.109503 67.44288  L 102.316177 82.202997  L 102.419515 82.517336  L 102.460849 82.422182  L 103.111874 80.602533  L 103.122207 80.631703  L 103.18421 80.492722  L 103.46322 79.62314  L 103.597558 79.225008  L 104.145245 77.655336  L 104.258916 77.426024  L 104.641264 76.293795  L 104.754934 75.876918  L 105.839975 73.111547  L 105.974313 72.822185  L 106.201655 72.089744  L 106.935348 69.24682  L 107.16269 66.033558  L 107.24536 59.609339  L 107.390032 28.625867  L 107.493369 32.566588  L 108.444071 82.924254  L 108.464738 82.875588  L 108.49574 82.936022  L 108.526741 82.830243  L 108.702414 82.408999  L 108.754083 82.323004  L 109.2191 81.028881  L 109.405107 80.622816  L 109.684117 79.826561  L 109.921792 79.068557  L 110.097466 78.708672  L 110.469479 77.727889  L 110.531482 77.652215  L 110.986165 76.316476  L 111.099836 76.006369  L 111.285843 75.618048  L 111.296177 75.625833  L 112.029871 73.859469  L 112.27788 73.290894  L 112.515555 72.594636  L 112.773898 72.02435  L 113.383587 70.073813  L 113.672931 68.196542  L 113.786602 66.030073  L 113.869272 59.64653  L 114.013944 28.387022  L 114.117281 32.090792  L 115.067983 83.165882  L 115.109318 83.144231  L 115.119652 83.092473  L 115.305658 82.691145  L 115.315992 82.710111  L 116.50437 79.603599  L 116.514703 79.610374  L 116.545704 79.529306  L 116.566372 79.530705  L 116.78338 78.964471  L 116.855716 78.841832  L 117.031389 78.427659  L 117.041723 78.431886  L 117.258731 77.877693  L 117.537741 77.06022  L 117.703081 76.738463  L 117.971757 76.016411  L 117.982091 76.030954  L 118.03376 75.924256  L 118.044093 75.935803  L 118.250768 75.414887  L 118.271435 75.439638  L 119.263472 73.386978  L 119.39781 73.196612  L 119.56315 72.931266  L 119.697488 72.521162  L 119.862827 72.111494  L 119.873161 72.142372  L 119.935163 72.032036  L 120.12117 71.695185  L 120.358846 71.080452  L 120.823863 69.335565  L 120.999536 67.815765  L 121.123541 64.484524  L 121.195877 55.175531  L 121.330215 28.34435  L 121.392217 30.149393  L 122.084576 71.49145  L 122.270583 82.794045  L 122.384254 83.164537  L 122.415255 83.119992  L 124.027315 79.27238  L 124.037649 79.293459  L 124.089317 79.176223  L 125.381032 76.359649  L 125.401699 76.354467  L 125.422367 76.273018  L 125.825381 75.602455  L 125.980387 75.298548  L 126.042389 75.261885  L 126.063057 75.227098  L 126.714081 73.675056  L 126.745082 73.724066  L 126.786417 73.55521  L 127.003425 73.207911  L 127.055094 73.27332  L 127.096429 73.157921  L 127.48911 72.463948  L 127.664783 72.146386  L 127.819789 71.944838  L 128.098799 71.232978  L 128.264138 70.87896  L 128.801492 68.392242  L 128.946164 65.955511  L 129.028833 60.408608  L 129.194173 28.237702  L 129.307844 32.998747  L 130.196543 83.135699  L 130.268879 83.15768  L 130.227544 83.109795  L 130.310214 83.100526  L 132.376957 78.392877  L 132.459627 78.1915  L 132.71797 77.662  L 133.379328 76.456807  L 133.544667 75.984986  L 133.658338 75.876838  L 133.937349 75.440054  L 134.071687 75.097876  L 134.082021 75.107114  L 134.113022 75.050482  L 134.278361 74.677616  L 134.52637 74.200155  L 134.547038 74.228509  L 134.588373 74.135166  L 134.629708 74.158913  L 134.898384 73.726779  L 134.981054 73.576154  L 135.022389 73.661384  L 135.373735 73.082802  L 135.580409 72.712257  L 135.611411 72.765189  L 135.683747 72.67012  L 135.69408 72.728116  L 135.745749 72.685353  L 135.756083 72.639845  L 136.13843 71.903002  L 136.365772 71.447838  L 136.438108 71.365783  L 136.768787 70.47653  L 137.30614 67.990967  L 137.419811 65.863265  L 137.502481 60.602051  L 137.678154 28.335301  L 137.802158 34.099968  L 138.618522 82.823977  L 138.742527 83.034654  L 138.75286 83.006286  L 138.980202 82.525464  L 139.786232 80.662471  L 139.961905 80.282317  L 140.220248 79.76884  L 140.437256 79.232082  L 142.907014 74.833971  L 142.989684 74.811688  L 143.000018 74.75139  L 143.14469 74.532444  L 143.175691 74.549502  L 143.206692 74.46069  L 143.413366 74.113462  L 143.609707 74.001249  L 143.795714 73.608942  L 143.816381 73.620801  L 143.857716 73.518759  L 143.930052 73.498671  L 143.878383 73.438203  L 143.940386 73.438629  L 144.116059 73.164884  L 144.281398 72.884235  L 144.353734 72.71568  L 144.601744 72.335613  L 144.612077 72.34802  L 144.653412 72.228081  L 144.663746 72.244646  L 145.573113 71.073603  L 145.717785 70.77346  L 145.728119 70.77873  L 145.748786 70.691695  L 146.327474 68.584907  L 146.544482 65.233877  L 146.627152 58.55412  L 146.792491 28.667168  L 146.885495 32.204941  L 147.722526 82.623832  L 147.805196 82.871562  L 147.856864 82.783008  L 150.863975 76.481169  L 150.874309 76.487878  L 150.884643 76.515068  L 150.936311 76.403922  L 151.111985 76.126427  L 151.959349 74.947234  L 152.000684 74.949889  L 152.031685 74.894449  L 152.15569 74.756086  L 152.176357 74.80955  L 152.290028 74.67331  L 152.548371 74.261176  L 152.579372 74.17352  L 152.755046 73.841619  L 152.786047 73.871291  L 152.982387 73.583868  L 153.40607 73.05871  L 153.416403 73.083091  L 153.426737 73.098216  L 153.457738 73.012329  L 153.488739 73.01138  L 154.511777 71.729724  L 154.584113 71.6313  L 154.635782 71.613746  L 154.666783 71.693551  L 154.677117 71.635927  L 154.759786 71.695081  L 154.790788 71.6699  L 155.317807 70.779648  L 155.338475 70.784673  L 155.359142 70.689392  L 155.896495 68.690424  L 156.134171 64.904656  L 156.21684 57.397568  L 156.38218 28.556318  L 156.454516 31.076961  L 157.374217 82.689884  L 157.394884 82.677021  L 157.477554 82.650989  L 157.704896 82.09391  L 157.932237 81.594142  L 158.097577 81.185893  L 158.10791 81.219593  L 158.159579 81.05489  L 158.55226 80.065696  L 158.562594 80.074039  L 158.63493 79.991416  L 158.924274 79.333292  L 158.934608 79.336932  L 158.955275 79.262757  L 159.213618 78.661715  L 160.743008 76.071943  L 160.763675 76.085459  L 160.815344 76.024764  L 160.949682 75.769526  L 160.960016 75.78563  L 160.97035 75.806384  L 160.980683 75.756616  L 161.05302 75.751686  L 161.228693 75.479116  L 161.33203 75.471279  L 161.342364 75.450914  L 161.497369 75.150998  L 161.538704 75.073519  L 161.569705 75.081895  L 161.786713 74.669104  L 161.807381 74.678552  L 161.890051 74.631606  L 162.024389 74.445369  L 162.49974 73.890834  L 162.510073 73.947376  L 162.541075 73.97359  L 162.603077 73.939765  L 162.758083 73.754193  L 162.820085 73.64947  L 163.047427 73.41077  L 163.078428 73.442869  L 163.171431 73.429139  L 163.181765 73.41031  L 163.378106 73.001892  L 163.388439 73.007107  L 163.481443 72.904346  L 163.512444 72.919685  L 163.605447 72.874483  L 163.615781 72.886394  L 163.657116 72.780463  L 163.843123 72.599796  L 163.894791 72.672524  L 163.94646 72.560917  L 164.576817 71.911414  L 164.83516 71.401072  L 164.855827 71.419995  L 164.94883 71.294584  L 165.093502 71.035326  L 165.176172 70.854126  L 165.713525 69.123549  L 165.940867 66.704161  L 166.054538 61.29816  L 166.168209 34.482494  L 166.240545 28.169836  L 166.302547 29.757374  L 166.509222 44.934426  L 166.850234 61.650965  L 167.28425 82.7662  L 168.689636 79.735573  L 168.699969 79.758476  L 168.823974 79.435229  L 168.999647 79.031189  L 169.009981 79.044911  L 169.051316 78.931193  L 169.505999 78.020288  L 169.516333 78.029248  L 169.526667 78.044736  L 169.578335 77.923737  L 169.857346 77.391533  L 169.929682 77.274839  L 170.198358 76.795013  L 170.260361 76.791259  L 170.239693 76.757097  L 170.281028 76.740918  L 170.446367 76.502042  L 170.50837 76.431141  L 170.560038 76.477575  L 170.622041 76.349301  L 171.004388 75.627893  L 171.107725 75.512492  L 171.262731 75.285466  L 172.079095 74.385586  L 172.2341 74.179846  L 172.265101 74.231673  L 173.091799 73.517584  L 173.298473 73.299188  L 173.360475 73.334023  L 173.40181 73.25596  L 173.525815 73.095287  L 173.649819 72.848687  L 173.670487 72.870452  L 173.908162 72.570955  L 174.052834 72.362223  L 174.073502 72.418023  L 174.197506 72.329677  L 174.37318 72.059455  L 174.383513 72.075008  L 174.424848 72.116856  L 174.476517 72.05131  L 174.631522 71.722523  L 175.09654 71.053827  L 175.117207 71.087852  L 175.137875 71.00953  L 175.199877 71.016092  L 175.282547 70.835531  L 175.416885 70.549993  L 175.427219 70.566514  L 175.447886 70.597932  L 175.489221 70.489633  L 175.499555 70.496318  L 175.716563 70.131434  L 175.788899 69.919494  L 176.243582 66.778817  L 176.346919 63.054814  L 176.429589 49.742316  L 176.563927 28.595338  L 176.605262 29.40389  L 176.749934 39.53941  L 177.059946 57.30076  L 177.225285 68.153718  L 177.452627 82.040516  L 177.576631 82.521523  L 177.607633 82.496237  L 179.333363 78.710332  L 179.343697 78.750057  L 179.416033 78.600103  L 180.087724 77.377563  L 180.377069 76.952892  L 180.542408 76.71786  L 180.552742 76.722864  L 180.563075 76.658059  L 180.583743 76.652896  L 180.718081 76.512219  L 180.728415 76.538447  L 181.203766 75.88181  L 181.224433 75.903079  L 181.348438 75.725864  L 181.472442 75.574797  L 181.482776 75.600819  L 182.061464 74.783012  L 182.164801 74.585097  L 182.278472 74.530496  L 182.309473 74.55774  L 182.433478 74.499451  L 182.567816 74.414705  L 182.908829 74.047129  L 182.93983 74.081223  L 182.970831 74.086004  L 182.991499 73.993164  L 183.001832 73.9952  L 183.280843 73.650316  L 183.446182 73.35351  L 183.456516 73.366403  L 184.458886 72.485822  L 184.541556 72.39436  L 184.810233 72.096083  L 184.820566 72.101743  L 184.91357 72.111926  L 185.058242 71.831673  L 185.068576 71.835618  L 185.182247 71.73631  L 185.337252 71.591744  L 185.35792 71.623232  L 185.368253 71.655443  L 185.430256 71.522672  L 186.215618 70.252449  L 186.752971 68.305362  L 186.969979 64.276952  L 187.052649 55.271002  L 187.207655 28.714892  L 187.269657 30.304003  L 187.858679 67.320014  L 188.096354 81.861635  L 188.25136 82.416461  L 188.261694 82.378422  L 190.721118 77.174721  L 190.731452 77.183044  L 190.783121 77.099632  L 190.958794 76.836311  L 190.989795 76.865267  L 191.000129 76.879655  L 191.041464 76.780993  L 191.051797 76.787484  L 191.31014 76.345223  L 191.382476 76.237986  L 191.537482 76.016349  L 191.795825 75.721493  L 191.992165 75.309468  L 192.064501 75.352257  L 192.074835 75.364242  L 192.126504 75.261858  L 192.147171 75.280201  L 192.250508 75.254817  L 192.271176 75.256457  L 192.302177 75.186963  L 192.322844 75.171326  L 192.488184 74.925402  L 193.211544 74.166919  L 193.232211 74.20949  L 193.294214 74.235843  L 193.335548 74.168838  L 193.345882 74.181047  L 193.407885 74.093676  L 193.418218 74.113554  L 193.573224 73.949367  L 193.666227 73.91453  L 193.717896 73.77442  L 193.779898 73.895392  L 193.996906 73.464048  L 194.038241 73.496379  L 194.141578 73.384247  L 194.203581 73.324871  L 194.255249 73.366542  L 194.358586 73.256665  L 194.523926 72.995742  L 194.53426 73.012133  L 194.575594 73.052573  L 194.637597 72.994554  L 194.802936 72.812424  L 194.823604 72.836056  L 194.844271 72.900943  L 194.916607 72.813379  L 194.937274 72.869519  L 195.712303 72.088987  L 195.722637 72.127268  L 195.805307 72.108518  L 195.81564 72.072386  L 195.949979 71.88531  L 195.970646 71.904056  L 196.032648 71.779504  L 196.104984 71.814966  L 196.115318 71.817892  L 196.135986 71.725067  L 196.332326 71.417067  L 196.34266 71.436907  L 196.373661 71.334215  L 196.394328 71.332605  L 196.580335 71.168582  L 196.62167 71.178842  L 196.652671 71.11483  L 197.531037 68.563593  L 197.70671 66.370828  L 197.810048 61.656202  L 197.903051 41.972686  L 198.016722 28.457372  L 198.058057 29.440792  L 198.202729 39.841434  L 198.523074 58.075849  L 198.688413 69.96589  L 198.895088 81.754568  L 199.060427 82.364626  L 200.507147 79.120473  L 200.672487 78.805458  L 200.682821 78.83002  L 200.76549 78.776287  L 201.075502 78.125135  L 201.085836 78.141456  L 201.189173 77.942762  L 201.437182 77.322841  L 201.457849 77.331363  L 201.602521 77.223945  L 201.974535 76.548794  L 202.708229 75.719727  L 202.749564 75.75944  L 202.801232 75.663463  L 202.976906 75.439219  L 202.987239 75.472308  L 203.46259 74.950328  L 203.493591 75.010667  L 203.503925 75.030559  L 203.555594 74.912022  L 203.565927 74.923892  L 203.669265 74.860362  L 203.813937 74.77004  L 203.834604 74.790898  L 203.875939 74.699315  L 203.886273 74.709543  L 204.082613 74.373391  L 204.144615 74.278602  L 204.35129 74.095321  L 204.371957 74.169017  L 204.454627 74.099514  L 204.816307 73.5184  L 204.950645 73.589769  L 205.808344 72.888257  L 205.860012 72.830855  L 205.922015 72.873778  L 206.108022 72.619351  L 205.942682 72.880941  L 206.118355 72.630692  L 206.314696 72.587859  L 206.469702 72.424371  L 206.490369 72.448749  L 206.924385 72.208221  L 206.934719 72.230092  L 207.007055 72.134752  L 207.182728 72.023276  L 207.678746 71.605673  L 207.720081 71.662041  L 207.85442 71.485547  L 208.030093 71.265556  L 208.071428 71.330414  L 208.102429 71.367053  L 208.143764 71.277598  L 208.154097 71.319863  L 208.288436 71.101538  L 208.329771 71.025177  L 208.402107 71.040833  L 208.443441 71.003151  L 208.464109 70.948892  L 208.77412 70.420488  L 208.85679 70.319872  L 209.104799 69.474641  L 209.115133 69.488509  L 209.156468 69.372089  L 209.538815 66.253082  L 209.652486 60.595021  L 209.848827 28.771121  L 209.972831 34.624732  L 210.38618 59.971331  L 210.520518 70.918532  L 210.716859 81.388012  L 210.851197 82.027495  L 210.882198 81.954824  L 211.006203 81.846823  L 211.347216 81.005034  L 213.486295 76.842956  L 213.589632 76.725312  L 213.734304 76.502425  L 213.744638 76.529627  L 213.80664 76.422227  L 213.816974 76.420449  L 214.013314 76.109368  L 214.312992 75.704672  L 214.509333 75.399761  L 214.519666 75.409929  L 214.540334 75.421939  L 214.581669 75.324223  L 214.757342 75.116503  L 215.108688 74.871552  L 215.305029 74.517658  L 215.449701 74.316901  L 215.491036 74.342898  L 215.501369 74.376533  L 215.553038 74.23396  L 215.563372 74.235025  L 215.728711 74.115774  L 215.894051 74.061151  L 216.162727 73.868593  L 216.307399 73.734597  L 216.524407 73.414882  L 216.545075 73.44822  L 216.58641 73.328939  L 216.731082 73.287707  L 216.751749 73.325051  L 216.824085 73.257634  L 217.123763 73.014571  L 217.134097 73.028564  L 217.154764 72.956535  L 217.196099 72.926549  L 217.320103 72.864348  L 217.361438 72.92055  L 217.423441 72.829228  L 217.526778 72.695281  L 217.661116 72.613879  L 217.67145 72.627135  L 217.712785 72.634949  L 217.75412 72.572435  L 217.960794 72.45031  L 217.971128 72.47811  L 217.981461 72.484762  L 218.022796 72.392611  L 218.03313 72.39143  L 218.208803 72.256865  L 218.219137 72.275604  L 218.260472 72.174628  L 218.281139 72.168018  L 218.529148 71.85426  L 218.539482 71.864255  L 218.580817 71.883561  L 218.622152 71.800798  L 218.642819 71.839728  L 218.963164 71.508415  L 219.014833 71.511459  L 219.0355 71.451945  L 219.159505 71.263436  L 219.180172 71.316433  L 219.211174 71.366676  L 219.252508 71.262337  L 219.490184 70.852128  L 219.831196 70.344105  L 220.120541 69.743499  L 220.28588 69.123421  L 220.544223 66.872874  L 220.657894 63.055184  L 220.740563 50.487674  L 220.885236 28.636205  L 220.92657 29.563112  L 221.102244 42.823895  L 221.412255 59.330207  L 221.577594 73.183127  L 221.763601 81.616428  L 221.918607 82.128371  L 221.980609 82.041875  L 222.145949 81.668101  L 222.156283 81.686614  L 222.187284 81.609653  L 222.238952 81.621083  L 223.541001 78.608633  L 223.561668 78.642197  L 223.613337 78.552535  L 223.820011 78.093047  L 223.840678 78.141797  L 223.902681 78.02368  L 224.037019 77.830034  L 224.243693 77.352837  L 224.254027 77.387399  L 224.316029 77.258109  L 224.326363 77.259296  L 225.370068 75.848373  L 226.2381 75.025541  L 226.248434 75.045635  L 226.279435 75.090468  L 226.351771 75.009057  L 226.444775 74.931947  L 226.630782 74.683576  L 226.651449 74.632604  L 226.754786 74.618372  L 226.930459 74.48004  L 227.04413 74.377309  L 227.064798 74.412199  L 227.095799 74.448378  L 227.1268 74.356323  L 227.137134 74.358424  L 227.374809 74.013382  L 227.48848 74.108164  L 227.509148 74.082904  L 227.602151 74.086231  L 227.560816 74.049769  L 227.612485 74.044754  L 227.746823 74.002132  L 227.912162 73.761192  L 227.93283 73.817004  L 228.0155 73.747739  L 228.160172 73.569706  L 228.346179 73.393058  L 228.387513 73.468929  L 228.511518 73.376245  L 228.73886 72.976366  L 228.800862 72.887269  L 228.997203 72.681319  L 229.10054 72.635832  L 229.338215 72.39965  L 229.348549 72.433913  L 229.37955 72.328039  L 229.431219 72.372039  L 229.555223 72.265195  L 229.668894 72.310334  L 229.679228 72.280535  L 229.803232 72.106438  L 230.009907 71.845599  L 230.051242 71.803872  L 230.061575 71.778364  L 230.18558 71.65576  L 230.195914 71.659664  L 230.505925 71.429084  L 230.516259 71.466036  L 230.557594 71.48236  L 230.598929 71.391907  L 230.753934 71.218394  L 231.136282 70.689897  L 231.425626 70.121074  L 231.725304 69.563931  L 232.055983 67.99577  L 232.210988 65.519522  L 232.303992 59.543175  L 232.489999 28.727454  L 232.593336 32.906272  L 233.32703 80.804847  L 233.471702 81.96696  L 233.502703 81.93284  L 233.554371 81.930224  L 233.595706 81.872379  L 233.802381 81.505128  L 233.978054 80.913599  L 234.443071 79.93273  L 234.618744 79.483329  L 234.629078 79.502371  L 234.670413 79.347175  L 234.701414 79.272391  L 234.763416 79.30121  L 235.032093 78.690971  L 235.063094 78.693391  L 235.073428 78.636763  L 235.094095 78.649468  L 235.269768 78.297576  L 235.290436 78.370459  L 235.362772 78.188103  L 235.610781 77.714069  L 235.631448 77.733531  L 236.561483 76.329488  L 238.493888 74.321503  L 238.597225 74.356716  L 238.607559 74.27742  L 238.814233 74.045756  L 238.824567 74.063097  L 238.938237 74.182452  L 238.865901 74.042438  L 238.948571 74.154552  L 239.093243 74.062161  L 239.103577 74.075342  L 239.134578 73.965876  L 239.165579 74.00138  L 239.351586 73.810701  L 239.36192 73.818981  L 239.465257 73.725008  L 239.599595 73.663678  L 239.609929 73.695998  L 239.671931 73.722591  L 239.692599 73.61288  L 239.80627 73.570274  L 239.961275 73.444166  L 240.00261 73.430954  L 240.043945 73.378171  L 240.126615 73.242845  L 240.209285 73.127008  L 240.271287 73.146434  L 240.384958 73.127254  L 240.539963 72.947694  L 240.560631 72.96226  L 240.632967 73.000981  L 240.674302 72.929854  L 240.860309 72.621987  L 240.911977 72.674125  L 240.963646 72.589099  L 241.077317 72.55373  L 241.08765 72.512226  L 241.211655 72.515981  L 241.221989 72.540606  L 241.33566 72.673999  L 241.366661 72.654253  L 241.469998 72.526839  L 241.500999 72.59668  L 241.594003 72.628873  L 241.563001 72.572192  L 241.61467 72.609612  L 242.028019 72.367771  L 242.172691 72.158355  L 242.78238 71.649004  L 242.803047 71.689938  L 242.823715 71.685312  L 242.854716 71.599893  L 243.030389 71.42254  L 243.216396 71.193046  L 243.371402 71.011838  L 243.516074 70.833292  L 243.547075 70.849695  L 243.557409 70.861745  L 243.578076 70.794714  L 243.640078 70.788491  L 244.074094 70.238388  L 244.177432 70.223084  L 244.187765 70.18566  L 244.322104 69.816004  L 244.859457 66.351313  L 244.962794 62.210155  L 245.055797 45.674191  L 245.190136 28.812496  L 245.221137 29.484549  L 245.345141 38.186866  L 245.67582 58.444554  L 245.830826 69.217329  L 246.047834 81.161897  L 246.161505 81.74395  L 246.192506 81.717514  L 247.360216 79.159727  L 247.494554 78.854189  L 247.504888 78.886643  L 247.680561 78.595315  L 247.742564 78.510672  L 248.000906 77.94641  L 248.083576 77.747434  L 248.259249 77.507488  L 248.269583 77.520003  L 248.414255 77.340624  L 248.693265 76.795606  L 248.703599 76.837178  L 248.775935 76.690969  L 248.837937 76.56792  L 249.137615 76.084878  L 249.147949 76.119091  L 249.17895 76.068481  L 249.230619 76.054217  L 249.385624 75.973748  L 249.509629 75.669666  L 249.602632 75.463108  L 249.643967 75.497758  L 249.716303 75.54692  L 249.757638 75.517128  L 250.284658 74.870888  L 250.305325 74.899344  L 250.325993 74.907376  L 250.336326 74.838667  L 250.377661 74.826943  L 250.501666 74.713623  L 250.511999 74.722559  L 250.615337 74.63327  L 250.739341 74.457619  L 250.749675 74.486687  L 250.811677 74.528533  L 250.863346 74.476048  L 251.34903 74.130356  L 251.359364 74.151109  L 251.586706 73.989058  L 251.690043 73.830229  L 251.710711 73.878812  L 252.206729 73.424685  L 252.289399 73.355392  L 252.3204 73.416873  L 252.413403 73.507179  L 252.444404 73.431974  L 252.609744 73.206484  L 252.640745 73.233328  L 253.04376 72.983601  L 253.054094 73.000796  L 253.064427 73.054946  L 253.136763 72.926302  L 253.147097 72.924775  L 253.291769 72.790482  L 253.415774 72.719957  L 253.508777 72.619663  L 253.622448 72.51094  L 253.632782 72.518048  L 253.653449 72.541087  L 253.694784 72.447084  L 253.725785 72.480208  L 253.839456 72.286982  L 253.880791 72.336016  L 253.891125 72.367695  L 253.932459 72.282328  L 253.973794 72.298218  L 254.180469 72.227288  L 254.221804 72.179657  L 254.29414 72.215172  L 254.542149 72.005109  L 254.707488 71.88879  L 254.717822 71.928618  L 254.779824 71.821745  L 254.800492 71.833322  L 254.924496 71.657699  L 254.93483 71.681505  L 255.120837 71.474063  L 256.216211 69.765481  L 256.443552 68.934763  L 256.54689 68.360305  L 256.732897 65.790752  L 256.8259 60.739658  L 257.032574 28.53842  L 257.146245 34.237733  L 257.569928 60.175393  L 257.704266 71.294272  L 257.900606 81.283712  L 258.024611 81.857252  L 258.045278 81.836984  L 258.334623 81.399547  L 258.510296 80.92072  L 258.582632 80.787247  L 258.820307 80.210733  L 258.882309 80.103398  L 258.99598 79.775938  L 259.305992 79.070993  L 259.326659 79.098362  L 259.378328 79.001584  L 259.388662 79.016251  L 260.783713 76.458648  L 260.814714 76.516778  L 260.866383 76.420296  L 261.011055 76.218516  L 261.186728 75.988237  L 261.403736 75.787623  L 261.424404 75.812572  L 261.465738 75.805356  L 261.49674 75.745558  L 262.30277 74.876826  L 262.406107 74.907465  L 262.561112 74.742172  L 262.571446 74.763097  L 262.623115 74.68972  L 262.654116 74.702587  L 262.757453 74.657313  L 262.767787 74.66361  L 262.77812 74.676647  L 262.819455 74.578128  L 262.840123 74.586613  L 262.953794 74.402552  L 262.995128 74.446052  L 263.284473 74.201272  L 263.398143 74.123563  L 263.573817 74.071942  L 263.58415 74.086471  L 263.677154 74.167894  L 263.718489 74.144477  L 263.811492 74.106971  L 263.74949 74.170913  L 263.842493 74.141379  L 263.863161 74.168395  L 263.914829 74.086533  L 264.018166 73.92151  L 264.069835 73.953498  L 264.152505 74.0767  L 264.19384 73.993259  L 264.400514 73.694364  L 264.410848 73.713331  L 264.462516 73.767488  L 264.534852 73.709742  L 264.782861 73.601697  L 264.906866 73.536605  L 265.929904 73.114841  L 266.022907 73.038865  L 266.043575 73.051024  L 266.053908 73.075051  L 266.115911 72.963389  L 266.136578 72.998964  L 266.260583 72.931092  L 266.549927 72.674146  L 266.570594 72.691946  L 266.828937 72.913564  L 266.859938 72.819115  L 266.994277 72.634341  L 267.00461 72.651466  L 267.407625 72.548947  L 267.655634 72.234365  L 267.665968 72.249457  L 267.738304 72.285263  L 267.717637 72.209882  L 267.769305 72.233408  L 267.820974 72.219149  L 267.862309 72.251882  L 267.872642 72.278919  L 267.934645 72.21654  L 267.944978 72.232956  L 268.068983 72.113978  L 268.296325 72.022544  L 268.523667 71.674021  L 268.534 71.704467  L 268.596003 71.58273  L 268.606336 71.580997  L 268.792343 71.392843  L 268.802677 71.405222  L 268.885347 71.460818  L 268.906014 71.378371  L 269.019685 71.239841  L 269.030019 71.264537  L 269.25736 71.174659  L 269.309029 71.1417  L 269.464035 70.845055  L 269.722378 70.403478  L 269.918718 70.032457  L 269.991054 69.790591  L 270.518074 66.691535  L 270.621411 63.510881  L 270.704081 52.840553  L 270.859086 28.332703  L 270.900421 29.000205  L 271.03476 38.580717  L 271.355105 58.044469  L 271.530778 70.466303  L 271.737452 81.116907  L 271.861457 81.759448  L 271.933793 81.712186  L 271.944127 81.719616  L 271.964794 81.60039  L 272.223137 81.002032  L 272.347142 80.691568  L 272.667487 79.891166  L 272.688154 79.907072  L 272.729489 79.809004  L 272.956831 79.366983  L 274.65156 76.326128  L 274.744564 76.255306  L 274.847901 76.141483  L 274.868568 76.197599  L 274.930571 76.232378  L 274.971905 76.156421  L 275.137245 75.838917  L 275.147579 75.857056  L 275.199247 75.723834  L 275.230248 75.743012  L 275.416255 75.431905  L 275.488591 75.457179  L 275.509259 75.375409  L 275.715933 75.07427  L 275.726267 75.085611  L 275.767602 75.133208  L 275.81927 75.020412  L 276.325622 74.473764  L 276.501295 74.20366  L 276.676969 74.065443  L 276.70797 74.121416  L 276.780306 74.049139  L 276.90431 74.048589  L 276.98698 73.924307  L 277.028315 73.978047  L 277.048982 74.010749  L 277.06965 73.93311  L 277.131652 73.953346  L 277.576002 73.899023  L 277.607003 73.907289  L 277.648338 73.8448  L 277.669005 73.850023  L 277.824011 73.727955  L 277.834345 73.756178  L 277.844678 73.784424  L 277.87568 73.716702  L 277.937682 73.715734  L 278.030685 73.621034  L 278.061686 73.690992  L 278.123689 73.652196  L 278.15469 73.744269  L 278.258027 73.691228  L 278.371698 73.603661  L 278.547371 73.377895  L 278.619707 73.394995  L 278.588706 73.311458  L 278.650708 73.349511  L 278.702377 73.300239  L 278.764379 73.352614  L 278.847049 73.443996  L 278.888384 73.327899  L 278.981387 73.23361  L 279.012388 73.29265  L 279.312066 72.927116  L 279.3224 72.933221  L 279.529074 72.876027  L 279.549742 72.91474  L 279.560075 72.947014  L 279.622078 72.80351  L 279.704747 72.742639  L 279.839086 72.629538  L 279.849419 72.650913  L 279.880421 72.67608  L 279.921755 72.580314  L 279.932089 72.579339  L 280.12843 72.584502  L 280.169765 72.625448  L 280.221433 72.53606  L 280.283435 72.627456  L 280.335104 72.715237  L 280.397106 72.59534  L 280.40744 72.553262  L 280.500443 72.615224  L 280.521111 72.637046  L 280.562446 72.485268  L 280.76912 72.207615  L 280.893125 72.109292  L 280.924126 72.165964  L 281.058464 72.19472  L 281.068798 72.159481  L 281.192802 72.074924  L 281.21347 72.095157  L 281.244471 72.099501  L 281.275472 72.018256  L 281.285806 72.020092  L 281.347808 72.082748  L 281.399477 72.019419  L 281.544149 72.137441  L 281.750823 72.010543  L 281.874828 72.01508  L 281.885161 71.951607  L 281.967831 71.80174  L 282.009166 71.822236  L 282.029833 71.846462  L 282.060835 71.775991  L 282.102169 71.79148  L 282.21584 71.697216  L 282.236508 71.743691  L 282.288176 71.80318  L 282.339845 71.726719  L 282.484517 71.514894  L 282.494851 71.518771  L 282.711859 71.549158  L 282.82553 71.61162  L 282.846197 71.588343  L 283.032204 71.425849  L 283.042538 71.440052  L 283.156209 71.412757  L 283.166542 71.375236  L 283.259546 71.40279  L 283.321548 71.475446  L 283.352549 71.365909  L 283.373217 71.408681  L 283.652227 71.290786  L 283.672894 71.384325  L 283.807233 71.451391  L 283.941571 71.213832  L 283.951905 71.250913  L 284.127578 71.182962  L 284.230915 71.048989  L 284.385921 70.890639  L 284.396254 70.906911  L 284.520259 70.896071  L 284.675265 70.66661  L 284.695932 70.680267  L 284.757935 70.578053  L 284.892273 70.465072  L 284.964609 70.384719  L 285.543297 68.896138  L 285.677635 68.156607  L 285.894643 64.687268  L 285.987647 56.632722  L 286.173654 28.908649  L 286.225322 30.442468  L 286.44233 48.126083  L 287.000351 80.22602  L 287.176024 81.142339  L 287.465368 80.624412  L 287.599706 80.37962  L 287.858049 79.650849  L 287.868383 79.658014  L 287.930385 79.552827  L 288.147393 79.038423  L 288.467739 78.455998  L 288.901755 77.529901  L 288.912088 77.560297  L 289.563112 76.452067  L 289.58378 76.473624  L 289.614781 76.536621  L 289.676783 76.454382  L 289.821455 76.254648  L 290.090132 75.941997  L 290.100466 76.002945  L 290.162468 75.821222  L 290.172802 75.825722  L 290.338141 75.678998  L 290.472479 75.521536  L 290.482813 75.541406  L 291.257842 74.662834  L 291.268176 74.687374  L 291.443849 74.652928  L 291.619522 74.508044  L 291.743527 74.467802  L 291.939867 74.258877  L 292.063872 74.146192  L 292.415218 73.777141  L 292.456553 73.81796  L 292.508222 73.744711  L 292.694228 73.523531  L 292.72523 73.588539  L 292.890569 73.586655  L 292.900903 73.62549  L 293.014574 73.760346  L 293.024907 73.749968  L 293.128245 73.742735  L 293.076576 73.7808  L 293.138578 73.761407  L 293.210914 73.811893  L 293.221248 73.834399  L 293.262583 73.861533  L 293.293584 73.788248  L 293.314251 73.822292  L 293.438256 73.709126  L 293.44859 73.716263  L 293.696599 73.512322  L 293.799936 73.337978  L 293.851605 73.401399  L 293.872272 73.428615  L 294.182284 73.112447  L 294.295954 73.130939  L 294.223618 73.069674  L 294.306288 73.12417  L 294.843641 72.887707  L 294.853975 72.850633  L 294.89531 72.919091  L 294.946979 72.903022  L 294.957312 72.912597  L 294.988313 72.796827  L 295.515333 72.696157  L 295.660005 72.577283  L 295.908014 72.719805  L 296.083687 72.553552  L 296.125022 72.562182  L 296.156023 72.490431  L 296.311029 72.357484  L 296.321363 72.386036  L 296.435034 72.340712  L 296.982721 72.069009  L 296.993054 72.106093  L 297.024055 72.037714  L 297.086058 72.0556  L 297.344401 71.809886  L 297.499406 71.65479  L 297.530408 71.701916  L 297.685413 71.589545  L 297.809418 71.625491  L 297.840419 71.67362  L 297.974757 71.503903  L 298.047093 71.560916  L 298.078095 71.512865  L 298.264101 71.359168  L 298.357105 71.345643  L 298.522444 71.164902  L 299.276806 70.609754  L 299.462812 70.330887  L 299.669487 69.818382  L 300.010499 68.770986  L 300.165505 67.548769  L 300.28951 65.335638  L 300.382513 59.535277  L 300.589188 28.536053  L 300.682191 32.897325  L 301.384884 80.216441  L 301.550223 81.59524  L 301.570891 81.583573  L 301.715563 81.41004  L 301.901569 81.18641  L 301.942904 81.133106  L 302.128911 80.572197  L 303.513629 78.320781  L 303.647967 78.234219  L 303.792639 78.012957  L 304.123318 77.725024  L 304.278324 77.478373  L 304.402329 77.553449  L 304.422996 77.542755  L 304.898347 77.633558  L 304.908681 77.603604  L 304.970683 77.689024  L 305.001684 77.667596  L 305.208359 77.562997  L 305.23936 77.620111  L 305.322029 77.594198  L 305.270361 77.588477  L 305.342697 77.571566  L 305.714711 77.548291  L 305.725044 77.51791  L 305.79738 77.612269  L 305.869716 77.632845  L 305.900718 77.577768  L 305.921385 77.553943  L 305.96272 77.678748  L 306.086724 77.725973  L 305.983387 77.64687  L 306.097058 77.691976  L 306.272731 77.7788  L 306.438071 77.931855  L 306.593077 78.148662  L 306.644745 78.134674  L 306.68608 78.204717  L 307.223433 78.451286  L 307.347438 78.52135  L 307.388773 78.519538  L 307.419774 78.612419  L 307.543778 78.749644  L 307.564446 78.72876  L 307.977795 79.260954  L 308.101799 79.316771  L 308.287806 79.479988  L 308.29814 79.456614  L 308.360142 79.56267  L 308.370476 79.548229  L 308.597817 79.806096  L 308.628819 79.769707  L 308.690821 79.791846  L 308.65982 79.805964  L 308.701155 79.836002  L 308.825159 80.122693  L 308.969831 80.264157  L 309.011166 80.229144  L 309.052501 80.316006  L 309.062835 80.305714  L 309.228174 80.378529  L 309.238508 80.366396  L 309.259175 80.335118  L 309.321178 80.434188  L 309.46585 80.531129  L 309.589854 80.480524  L 309.600188 80.495558  L 309.74486 80.630782  L 309.765527 80.593894  L 309.868865 80.731972  L 310.085873 80.931649  L 310.199543 80.973323  L 310.437219 81.180829  L 310.447553 81.173054  L 310.488888 81.27049  L 310.643893 81.4116  L 310.540556 81.220436  L 310.654227 81.377879  L 311.19158 82.048597  L 311.201914 82.027965  L 311.243249 82.093782  L 311.284584 82.1085  L 312.286954 83.170261  L 312.369624 83.134186  L 312.328289 83.185243  L 312.390291 83.172543  L 312.576298 83.53527  L 312.88631 83.785035  L 312.596966 83.512259  L 312.896643 83.761564  L 313.072317 83.79106  L 313.330659 84.124078  L 313.44433 84.2075  L 313.537334 84.330866  L 313.568335 84.296056  L 313.578669 84.278915  L 313.640671 84.384839  L 313.754342 84.489009  L 313.775009 84.447449  L 313.785343 84.408829  L 313.847345 84.561755  L 313.857679 84.556335  L 314.188358 84.939848  L 314.219359 84.916437  L 314.25036 84.99253  L 314.271028 84.988374  L 314.457034 85.303818  L 314.467368 85.284418  L 314.488036 85.35328  L 314.52937 85.367644  L 314.643041 85.43083  L 314.653375 85.404111  L 314.860049 85.519682  L 315.004721 85.735865  L 315.325067 86.117779  L 315.635078 86.519194  L 315.77975 86.497139  L 315.790084 86.512922  L 316.017426 86.726026  L 316.120763 86.781386  L 316.193099 86.898519  L 316.348105 86.982016  L 316.358438 86.961064  L 316.565113 87.008245  L 316.792454 87.021763  L 317.040463 87.360378  L 317.061131 87.350642  L 317.1128 87.357628  L 317.133467 87.403649  L 317.143801 87.407432  L 317.288473 87.545556  L 317.30914 87.527803  L 317.319474 87.508898  L 317.371142 87.578858  L 317.381476 87.569527  L 317.495147 87.59847  L 317.505481 87.58052  L 317.546816 87.66302  L 317.577817 87.670486  L 317.867161 87.777246  L 318.0325 88.061393  L 318.053168 88.020489  L 318.11517 88.120285  L 318.146171 88.076781  L 318.662857 88.651224  L 318.797195 88.765592  L 318.817863 88.846905  L 318.890199 88.724006  L 318.900532 88.710209  L 318.962535 88.810219  L 319.065872 88.917721  L 319.158875 88.98565  L 319.179543 88.947448  L 319.28288 88.930046  L 319.251879 88.984347  L 319.293214 88.944326  L 319.313881 88.906876  L 319.696229 89.189799  L 319.809899 89.062295  L 319.830567 89.106827  L 319.92357 89.212162  L 320.130245 89.541787  L 320.171579 89.526723  L 320.212914 89.61531  L 320.719266 89.770158  L 320.853605 89.912339  L 321.132615 90.247827  L 321.204951 90.142988  L 321.308288 90.029411  L 321.339289 90.091302  L 321.442627 90.189662  L 321.45296 90.149653  L 321.463294 90.145554  L 321.494295 90.232368  L 321.669968 90.422557  L 321.680302 90.412784  L 321.886976 90.531196  L 321.907644 90.483599  L 321.97998 90.415729  L 322.021315 90.467044  L 322.124652 90.384716  L 322.269324 90.333611  L 322.506999 90.378519  L 322.600003 90.399476  L 322.589669 90.431758  L 322.610336 90.418165  L 322.641338 90.453721  L 322.672339 90.360433  L 322.713674 90.399225  L 322.724007 90.362868  L 322.765342 90.480784  L 322.796343 90.487299  L 322.992684 90.644233  L 323.013351 90.573806  L 324.15006 90.652264  L 324.191395 90.646209  L 324.243064 90.710694  L 324.542741 90.752053  L 324.708081 90.751222  L 324.832085 90.861312  L 324.863087 90.805703  L 324.914755 90.888928  L 324.935423 90.878261  L 325.297103 90.838951  L 325.390106 90.723379  L 325.410774 90.773568  L 325.514111 90.840257  L 325.534778 90.818927  L 325.658783 90.684436  L 325.669116 90.692703  L 325.824122 90.775442  L 325.834456 90.754197  L 325.896458 90.843066  L 326.082465 90.955593  L 326.154801 90.885302  L 326.185802 90.955609  L 326.247805 90.966089  L 326.278806 90.901645  L 326.454479 90.769116  L 326.981498 91.070092  L 327.012499 90.988024  L 327.053834 91.021946  L 327.136504 90.966532  L 327.260509 91.021476  L 327.270842 90.993011  L 327.384513 90.903061  L 327.405181 90.933921  L 327.591188 91.168315  L 327.601521 91.1533  L 327.921867 91.256997  L 328.01487 91.313508  L 328.035537 91.246702  L 328.428219 91.091183  L 328.490221 91.143273  L 328.541889 91.114214  L 328.696895 91.222445  L 328.872568 91.050473  L 328.996573 91.079521  L 329.110244 90.919163  L 329.141245 90.930044  L 329.213581 90.865747  L 329.244582 90.921314  L 329.399588 91.159298  L 329.513259 91.085233  L 329.523592 91.108523  L 329.554594 91.139078  L 329.606262 91.031916  L 329.730267 90.910995  L 329.874939 90.813736  L 329.916274 90.873894  L 329.98861 90.931464  L 330.029945 90.857541  L 330.081613 90.805232  L 330.143615 90.855187  L 330.153949 90.866419  L 330.195284 90.796849  L 330.205618 90.794823  L 330.329622 90.734308  L 330.339956 90.753466  L 330.381291 90.667982  L 330.422626 90.707586  L 330.556964 90.672113  L 330.649968 90.718403  L 330.670635 90.687776  L 330.763638 90.800651  L 330.928978 90.923505  L 330.959979 90.878355  L 331.207988 90.747607  L 331.342327 90.739289  L 331.507666 90.853113  L 331.704007 90.774751  L 331.71434 90.818888  L 331.79701 90.899302  L 331.828011 90.852226  L 331.838345 90.832994  L 331.900347 90.945454  L 331.910681 90.931117  L 331.993351 90.91099  L 332.003684 90.858592  L 332.200025 90.751973  L 332.4377 90.873041  L 332.52037 90.767771  L 332.551371 90.866251  L 332.60304 90.922321  L 332.654708 90.847705  L 332.851049 90.692435  L 332.861383 90.710512  L 332.871716 90.731775  L 332.933719 90.670641  L 332.954386 90.66702  L 333.119726 90.467513  L 333.140393 90.508262  L 333.264398 90.582544  L 333.274731 90.552437  L 333.347067 90.421505  L 333.398736 90.461431  L 333.522741 90.527217  L 333.440071 90.410435  L 333.543408 90.512964  L 333.553742 90.488254  L 333.595077 90.569209  L 333.636411 90.551826  L 333.85342 90.82062  L 333.874087 90.796154  L 333.998092 90.747704  L 334.008425 90.775456  L 334.101429 90.810596  L 334.122096 90.744158  L 334.153097 90.679676  L 334.235767 90.7221  L 334.277102 90.627849  L 334.349438 90.703265  L 334.49411 90.742472  L 334.525111 90.677838  L 334.587113 90.570454  L 334.659449 90.634442  L 334.783454 90.713184  L 334.793788 90.708821  L 334.959127 90.590478  L 334.969461 90.617092  L 335.1348 90.656031  L 335.145134 90.644207  L 335.269139 90.603968  L 335.289806 90.625834  L 335.372476 90.60389  L 335.403477 90.703814  L 335.548149 90.823715  L 335.599818 90.75496  L 335.66182 90.742322  L 335.692821 90.822851  L 335.94083 90.825573  L 336.075168 90.98311  L 336.085502 90.967078  L 336.240508 91.027643  L 336.323178 91.077263  L 336.343845 90.993144  L 336.436849 91.045809  L 336.550519 91.139675  L 336.560853 91.129972  L 336.653857 91.058165  L 336.695191 91.098285  L 336.715859 91.11369  L 336.757194 91.034122  L 336.777861 91.027156  L 336.922533 90.830634  L 336.932867 90.858108  L 337.046538 90.984034  L 337.077539 90.947001  L 337.656227 91.303062  L 337.676894 91.262562  L 337.945571 90.928805  L 337.966239 90.952828  L 338.121244 91.079486  L 338.203914 91.059079  L 338.214248 91.014099  L 338.224581 90.993755  L 338.27625 91.086488  L 338.27625 91.086488  " style="fill:none;stroke:#000000;stroke-linecap:square;stroke-width:1.5;"/>
   </g>
   <g id="line2d_9">
    <path clip-path="url(#pcb597b9555)" d="M 59.27625 76.920914  L 59.348586 76.982116  L 59.400255 76.933227  L 59.410588 76.868754  L 59.493258 76.986543  L 59.596595 77.008214  L 59.55526 76.941556  L 59.606929 76.979693  L 59.823937 76.819998  L 59.865272 76.847782  L 59.896273 76.743377  L 60.020278 76.614264  L 60.071946 76.690286  L 60.185617 76.678358  L 60.195951 76.660232  L 60.237286 76.701062  L 60.340623 76.533645  L 60.454294 76.508413  L 60.474961 76.537285  L 60.609299 76.590421  L 60.929645 76.406639  L 60.950312 76.442978  L 61.053649 76.509276  L 61.063983 76.496035  L 61.208655 76.463243  L 61.301658 76.515494  L 61.332659 76.49151  L 61.404996 76.354028  L 61.466998 76.436761  L 61.642671 76.450169  L 61.787343 76.571619  L 61.880346 76.537258  L 62.004351 76.442527  L 62.035352 76.37728  L 62.221359 76.512892  L 62.355697 76.483863  L 62.4177 76.526423  L 62.459035 76.486765  L 62.510703 76.428062  L 62.583039 76.46644  L 62.955053 76.548001  L 62.965387 76.517706  L 63.05839 76.575306  L 63.151394 76.60391  L 63.172061 76.577377  L 63.461405 76.744221  L 63.203062 76.536289  L 63.471739 76.669213  L 63.606077 76.606765  L 63.616411 76.613912  L 63.761083 76.561911  L 63.833419 76.445193  L 63.905755 76.522457  L 64.536111 76.190303  L 64.67045 76.092317  L 64.742786 76.123931  L 64.773787 76.091466  L 64.887458 76.033355  L 64.897792 76.049509  L 65.063131 76.045216  L 65.187136 75.943244  L 65.362809 75.885268  L 65.373142 75.914916  L 65.507481 76.020007  L 65.548816 75.982106  L 65.703821 75.861911  L 65.714155 75.882944  L 65.786491 75.966231  L 65.827826 75.902913  L 66.044834 75.942806  L 66.055168 75.967912  L 66.086169 75.900438  L 66.137837 75.916591  L 66.19984 75.954974  L 66.272176 75.841428  L 66.303177 75.90005  L 66.385847 75.831055  L 66.551186 75.878008  L 66.571854 75.84791  L 66.716526 75.819829  L 66.75786 75.850451  L 66.799195 75.767069  L 66.985202 75.457232  L 67.00587 75.41849  L 67.067872 75.51723  L 67.078206 75.487553  L 67.243545 75.624606  L 67.295214 75.64584  L 67.264213 75.610489  L 67.346882 75.583918  L 68.028908 75.826188  L 68.039241 75.847409  L 68.09091 75.747448  L 68.121911 75.792986  L 68.194247 75.824582  L 68.256249 75.709664  L 68.36992 75.737389  L 68.493925 75.652444  L 68.555927 75.688097  L 68.597262 75.626697  L 68.617929 75.598827  L 68.64893 75.710724  L 68.700599 75.803585  L 68.762601 75.718749  L 68.803936 75.78899  L 68.834937 75.764886  L 68.938275 75.870513  L 68.958942 75.831235  L 69.010611 75.784177  L 68.989943 75.851736  L 69.072613 75.808142  L 69.165616 75.835386  L 69.113948 75.777556  L 69.17595 75.786684  L 69.25862 75.733858  L 69.289621 75.783388  L 69.330956 75.815526  L 69.382624 75.726766  L 69.568631 75.546871  L 69.578965 75.562925  L 69.81664 75.451596  L 69.909644 75.413107  L 69.847642 75.478916  L 69.930311 75.47201  L 70.529667 75.613169  L 70.612337 75.561407  L 70.643338 75.58848  L 70.757009 75.62241  L 70.767342 75.582237  L 70.78801 75.670875  L 70.860346 75.6648  L 71.015351 75.597637  L 71.025685 75.567261  L 71.087687 75.671853  L 71.098021 75.661074  L 71.108355 75.690627  L 71.180691 75.606361  L 71.191025 75.607587  L 71.242693 75.571604  L 71.304695 75.638838  L 71.449368 75.764149  L 71.470035 75.74977  L 71.59404 75.721127  L 71.666376 75.816169  L 71.718044 75.747417  L 71.769713 75.681269  L 71.811048 75.693281  L 72.007388 75.499323  L 72.017722 75.507714  L 72.028056 75.554474  L 72.079724 75.436885  L 72.121059 75.466713  L 72.172728 75.383986  L 72.245064 75.456189  L 72.400069 75.249646  L 72.544741 75.158525  L 72.555075 75.216938  L 72.565409 75.247994  L 72.648079 75.145135  L 73.371439 75.240188  L 73.474776 75.125117  L 73.505777 75.158403  L 73.650449 75.214831  L 73.857123 75.087686  L 73.908792 75.138223  L 73.970794 75.090407  L 74.04313 74.951042  L 74.094799 75.004943  L 74.136134 75.047059  L 74.198136 74.949441  L 74.725156 74.794637  L 74.787158 74.832669  L 74.807825 74.767919  L 74.942164 74.569312  L 74.952497 74.61005  L 74.962831 74.643535  L 75.035167 74.533634  L 75.045501 74.53645  L 75.21084 74.66344  L 75.334845 74.462248  L 75.345178 74.485053  L 75.57252 74.330712  L 75.593188 74.368474  L 75.665524 74.372637  L 75.613855 74.350299  L 75.696525 74.346588  L 75.903199 74.36868  L 75.9342 74.310454  L 75.996203 74.415524  L 76.192543 74.291394  L 76.254545 74.149466  L 76.316548 74.193097  L 76.37855 74.116859  L 77.225915 73.898014  L 77.287917 73.822009  L 77.329252 73.924299  L 77.360253 73.944633  L 77.411922 73.857778  L 77.422255 73.892163  L 77.608262 73.719203  L 77.62893 73.753829  L 77.639263 73.766509  L 77.680598 73.686943  L 77.701266 73.679945  L 77.804603 73.580303  L 77.90794 73.517575  L 77.918274 73.52555  L 77.969942 73.673373  L 78.042278 73.613274  L 78.062946 73.649141  L 78.124948 73.583925  L 78.290288 73.386127  L 79.644004 72.47167  L 79.685339 72.499113  L 79.747342 72.430772  L 79.809344 72.376997  L 79.840345 72.468899  L 79.954016 72.532135  L 79.974683 72.497989  L 80.129689 72.382676  L 80.284695 72.15156  L 80.295028 72.160141  L 80.32603 72.210623  L 80.388032 72.101262  L 80.563705 71.924694  L 80.718711 71.81844  L 80.729045 71.847651  L 80.791047 71.746276  L 81.018389 71.422155  L 81.462738 70.505146  L 81.824418 68.769246  L 82.041426 65.172868  L 82.124096 58.223574  L 82.310103 26.053219  L 82.382439 28.131916  L 82.640782 47.334449  L 82.971461 60.472995  L 83.38481 76.394056  L 83.436478 76.384715  L 83.736156 75.789802  L 83.963498 75.092531  L 83.973831 75.111602  L 84.035834 75.022172  L 84.046167 75.019555  L 85.317214 71.719114  L 85.544556 71.105401  L 85.740897 70.521349  L 86.061242 69.291692  L 86.143912 68.736528  L 86.371254 65.573629  L 86.453923 60.524234  L 86.619263 33.058655  L 86.7226 38.107396  L 87.104947 56.52147  L 87.311622 66.960325  L 87.52863 77.81265  L 87.580298 77.95321  L 87.642301 77.808386  L 87.714637 77.663236  L 88.003981 76.716377  L 88.16932 76.108868  L 88.396662 75.389104  L 88.489665 75.089851  L 88.675672 74.543775  L 88.903014 73.755144  L 89.151023 72.914382  L 89.347364 72.184343  L 89.657375 70.954989  L 89.709044 70.875076  L 90.081058 69.119941  L 90.298066 66.494475  L 90.391069 62.209391  L 90.484073 41.404984  L 90.556409 32.896497  L 90.618411 34.799013  L 91.517444 79.078317  L 91.527778 79.02708  L 91.548445 79.078607  L 91.620781 78.943409  L 93.821863 70.667361  L 94.235211 67.405267  L 94.338549 64.310129  L 94.410885 54.520989  L 94.524555 32.115278  L 94.586558 34.016578  L 95.53726 80.226959  L 95.630263 80.038732  L 96.715303 76.048126  L 96.942645 75.182852  L 97.076983 74.610583  L 98.389365 68.349125  L 98.544371 64.778956  L 98.616707 55.813221  L 98.730378 31.278242  L 98.802714 33.374101  L 99.743082 81.245963  L 99.856753 81.053573  L 100.32177 79.528557  L 100.580113 78.610764  L 101.21047 76.265864  L 101.458479 75.359203  L 101.603151 74.680367  L 101.964831 73.277407  L 102.109503 72.777607  L 102.843197 68.772428  L 102.956868 67.256831  L 103.049871 63.600508  L 103.122207 48.602342  L 103.215211 30.359166  L 103.266879 31.571922  L 104.010907 68.382413  L 104.207247 81.99623  L 104.258916 82.160787  L 104.331252 82.075179  L 104.82727 80.560823  L 104.878939 80.419134  L 105.385291 78.700076  L 106.07765 76.121879  L 106.418663 74.814933  L 106.532334 74.442251  L 106.863012 73.212844  L 106.956016 72.958503  L 107.152357 72.194757  L 107.875717 67.429137  L 107.979054 63.32439  L 108.05139 46.759295  L 108.144393 29.630797  L 108.196062 31.000481  L 108.940089 68.144875  L 109.146764 82.636795  L 109.198432 82.765593  L 109.291436 82.725291  L 110.655486 78.447842  L 110.851827 77.842415  L 111.099836 76.918383  L 111.461516 75.659486  L 113.094243 69.210777  L 113.269916 66.518242  L 113.352586 61.242811  L 113.497258 29.106294  L 113.631596 34.413252  L 114.096614 55.967595  L 114.261953 64.133949  L 114.561631 83.18335  L 114.664968 83.111055  L 115.202321 81.583951  L 115.481332 80.758138  L 115.512333 80.753717  L 115.533 80.666423  L 118.777787 70.12986  L 119.087799 66.961699  L 119.180802 62.129009  L 119.263472 38.550606  L 119.335808 28.811567  L 119.39781 30.39545  L 120.100503 65.318692  L 120.358846 83.358103  L 120.400181 83.476921  L 120.48285 83.385362  L 122.849271 76.81978  L 122.859605 76.832159  L 122.890606 76.731727  L 123.09728 76.029119  L 123.107614 76.034638  L 123.479628 74.934452  L 123.717303 74.267531  L 124.306325 72.505889  L 124.523333 71.808685  L 124.533667 71.836502  L 124.564668 71.722347  L 125.288028 68.186053  L 125.412033 65.218388  L 125.484369 57.197044  L 125.618707 28.603945  L 125.691043 30.95488  L 126.435071 75.831645  L 126.60041 83.328318  L 126.693414 83.599263  L 126.734748 83.528027  L 126.817418 83.373893  L 127.416774 81.86417  L 127.623448 81.277829  L 128.016129 80.28377  L 128.811825 78.158251  L 129.039167 77.485631  L 129.225174 76.983867  L 129.411181 76.462833  L 130.010536 74.887483  L 130.196543 74.387042  L 130.217211 74.403142  L 131.198914 71.86409  L 131.581261 70.815487  L 131.612262 70.727409  L 132.066946 68.103904  L 132.170283 66.152353  L 132.252953 60.406282  L 132.407959 28.540642  L 132.521629 33.170226  L 133.451664 83.524201  L 133.503332 83.567128  L 133.544667 83.494399  L 133.772009 82.844459  L 133.854679 82.690615  L 134.102688 82.100761  L 134.381698 81.277542  L 134.454034 81.11602  L 135.683747 77.982462  L 135.69408 77.987566  L 135.725081 77.938499  L 135.735415 77.892301  L 135.828419 77.532381  L 136.128096 76.74544  L 136.159098 76.755079  L 136.94446 74.899334  L 136.965127 74.923473  L 137.058131 74.654599  L 137.254471 74.175316  L 137.771157 72.900915  L 138.132837 71.963136  L 138.215507 71.873354  L 138.680524 70.569951  L 139.042204 68.587181  L 139.19721 65.926398  L 139.27988 59.366432  L 139.434886 28.448553  L 139.527889 32.042058  L 140.499258 83.680616  L 140.540593 83.624415  L 140.953942 82.582337  L 140.964275 82.587377  L 140.974609 82.605817  L 141.015944 82.498124  L 141.284621 81.747779  L 141.801306 80.542467  L 142.007981 80.008564  L 142.131985 79.75347  L 142.545334 78.597638  L 144.457072 74.090971  L 144.632745 73.739825  L 144.663746 73.778322  L 144.777417 73.464731  L 144.932422 73.276654  L 144.942756 73.298952  L 145.004758 73.170943  L 145.015092 73.175929  L 145.046093 73.089023  L 145.914125 71.260502  L 146.193136 70.296677  L 146.265472 70.094513  L 146.596151 68.052671  L 146.730489 65.142601  L 146.802825 58.374433  L 146.947497 28.56212  L 147.030167 31.187293  L 147.701858 72.475634  L 147.887865 83.144151  L 147.970535 83.507618  L 148.022204 83.420091  L 148.063538 83.320296  L 148.073872 83.332301  L 148.342549 82.779773  L 148.352882 82.788609  L 148.383884 82.71399  L 148.621559 82.039916  L 148.662894 81.950727  L 148.838567 81.538462  L 148.941904 81.281785  L 150.574631 77.404816  L 150.729637 76.986778  L 151.029315 76.298443  L 151.049982 76.303142  L 151.091317 76.215036  L 151.421996 75.410175  L 151.442664 75.460255  L 151.504666 75.29989  L 151.701006 74.943343  L 151.71134 74.957627  L 151.742341 74.822292  L 152.951386 72.338216  L 153.023722 72.280098  L 153.189062 72.044879  L 153.40607 71.652163  L 153.416403 71.666815  L 153.468072 71.556456  L 154.212099 68.673936  L 154.387773 65.73956  L 154.470442 59.508802  L 154.625448 28.471598  L 154.728785 32.40296  L 155.65882 83.527225  L 155.669153 83.525235  L 155.834493 83.183352  L 155.865494 83.135497  L 156.030834 82.746458  L 156.041167 82.77494  L 156.10317 82.628882  L 156.361512 81.914125  L 157.343215 79.548516  L 157.560223 79.012732  L 157.663561 78.879844  L 158.097577 77.808736  L 158.138912 77.725828  L 159.048279 75.7875  L 159.203284 75.427005  L 159.223952 75.437958  L 159.244619 75.464353  L 159.27562 75.349695  L 159.316955 75.380564  L 159.492628 75.052777  L 159.657968 74.735237  L 160.898014 72.440011  L 160.918681 72.453805  L 161.115022 72.244803  L 161.259694 71.980717  L 161.404366 71.655132  L 161.683376 71.097841  L 161.766046 71.034005  L 162.003721 70.447169  L 162.014055 70.452646  L 162.034723 70.364789  L 162.582409 67.522434  L 162.706414 63.888655  L 162.77875 53.946192  L 162.913088 28.924285  L 162.964757 30.035655  L 163.58478 65.770351  L 163.843123 82.85082  L 163.956794 83.136775  L 163.987795 83.117115  L 164.256471 82.467874  L 164.39081 82.206804  L 164.566483 81.706804  L 164.597484 81.653449  L 164.762824 81.326169  L 165.289843 79.94576  L 165.310511 79.959971  L 165.403514 79.755737  L 165.83753 78.52438  L 165.858197 78.552774  L 165.899532 78.470051  L 165.930533 78.469155  L 166.106207 78.142907  L 166.498888 77.186736  L 166.715896 76.67024  L 166.92257 76.202266  L 166.932904 76.222612  L 166.953571 76.245688  L 166.984573 76.163682  L 167.00524 76.155173  L 167.718266 74.970973  L 167.842271 74.637382  L 167.873272 74.647625  L 168.947979 72.608314  L 169.102984 72.401107  L 169.154653 72.445916  L 169.195988 72.380001  L 169.361327 72.08176  L 170.281028 69.604099  L 170.601373 65.787792  L 170.684043 59.958835  L 170.849382 28.330128  L 170.952719 32.535759  L 171.831085 83.377838  L 171.882754 83.506216  L 171.944756 83.38654  L 172.296103 82.566955  L 175.478887 75.751986  L 175.499555 75.786327  L 175.540889 75.692614  L 175.799232 75.129972  L 178.475665 70.394435  L 178.87868 68.094642  L 179.023352 65.265107  L 179.106021 57.696721  L 179.261027 28.374468  L 179.333363 30.835282  L 180.015388 75.585826  L 180.191062 83.01045  L 180.284065 83.313235  L 180.346067 83.236724  L 180.96609 81.903558  L 181.141764 81.494846  L 181.379439 80.934489  L 181.668783 80.227012  L 181.679117 80.233719  L 181.741119 80.098727  L 181.885791 79.76574  L 181.896125 79.76736  L 182.092465 79.263794  L 182.278472 78.876337  L 182.29914 78.881432  L 183.539186 76.274603  L 183.559853 76.29484  L 183.601188 76.193013  L 183.931867 75.807483  L 183.942201 75.819621  L 183.993869 75.729841  L 184.138541 75.395289  L 185.016907 73.875623  L 185.19258 73.622373  L 185.202914 73.645115  L 185.244249 73.741023  L 185.285584 73.634517  L 185.430256 73.373932  L 185.512925 73.190886  L 185.729933 72.642522  L 185.843604 72.550098  L 186.318955 71.677237  L 186.329289 71.696265  L 186.349956 71.631881  L 186.484295 71.285305  L 186.494628 71.294363  L 186.546297 71.295327  L 186.566964 71.244021  L 187.269657 68.756905  L 187.486665 65.120209  L 187.569335 56.976153  L 187.724341 28.30178  L 187.786343 30.372731  L 188.447701 72.19033  L 188.633708 82.895818  L 188.77838 83.33797  L 189.098725 82.71731  L 189.109059 82.726425  L 189.129726 82.623038  L 189.14006 82.623688  L 189.3364 82.101198  L 189.357068 82.10904  L 189.398403 82.059739  L 189.625744 81.44202  L 189.69808 81.25962  L 189.884087 80.833933  L 189.894421 80.845707  L 189.925422 80.77463  L 189.94609 80.770083  L 190.163098 80.267953  L 191.062131 78.39363  L 192.374513 75.731389  L 192.384847 75.759449  L 192.415848 75.627413  L 192.436515 75.640686  L 192.715526 75.081756  L 192.9222 74.86938  L 192.984202 74.80038  L 193.066872 74.679264  L 193.108207 74.729506  L 193.221878 74.430452  L 193.438886 73.984803  L 193.449219 73.996086  L 193.469887 74.06073  L 193.542223 73.972811  L 193.686895 73.830783  L 193.697229 73.850229  L 193.790232 73.731154  L 194.027907 73.309702  L 194.100243 73.244264  L 194.255249 72.96225  L 194.275917 72.995397  L 194.699599 72.271704  L 194.854605 71.964129  L 194.89594 71.962695  L 194.916607 71.907565  L 194.926941 71.902449  L 195.298955 71.101894  L 195.309288 71.111894  L 195.329956 71.02323  L 195.340289 71.020492  L 195.970646 68.78701  L 196.146319 66.719635  L 196.249656 62.051295  L 196.332326 43.295558  L 196.435663 28.371617  L 196.487332 29.568234  L 196.745675 47.204086  L 197.458701 83.372474  L 197.469035 83.363822  L 198.295732 81.457308  L 198.51274 80.950161  L 198.585076 80.828409  L 198.802084 80.427352  L 201.085836 75.904281  L 201.116837 75.838641  L 201.251175 75.633926  L 201.674857 74.921995  L 201.685191 74.935349  L 201.726526 74.820489  L 202.119207 74.101994  L 202.284547 73.899844  L 202.29488 73.903826  L 202.305214 73.937988  L 202.356883 73.743863  L 203.152579 72.726144  L 203.173246 72.800218  L 203.245582 72.686381  L 203.255916 72.707633  L 203.452257 72.347218  L 203.638263 71.985773  L 203.658931 72.00964  L 203.751934 72.047821  L 203.700266 71.982624  L 203.772602 72.018238  L 203.958609 71.651931  L 204.041278 71.549717  L 204.247953 71.335721  L 204.26862 71.326494  L 204.278954 71.274835  L 204.464961 70.883502  L 204.495962 70.927102  L 204.537297 70.839976  L 204.733637 70.456568  L 204.929978 70.066492  L 205.394995 67.1644  L 205.519 63.039628  L 205.601669 48.82863  L 205.725674 28.974959  L 205.767009 29.802624  L 205.932348 41.223854  L 206.24236 57.765556  L 206.397366 68.664681  L 206.614374 82.298599  L 206.748712 82.88224  L 206.779713 82.827496  L 206.945053 82.444673  L 206.955386 82.459508  L 207.193062 81.859156  L 207.337734 81.500711  L 207.565076 80.999388  L 207.647745 80.861405  L 208.484776 79.016604  L 208.49511 79.0334  L 208.567446 78.938932  L 209.001462 78.018298  L 209.125467 77.699538  L 209.342475 77.224723  L 211.264546 74.065052  L 211.27488 74.091508  L 211.347216 74.077815  L 211.305881 74.028809  L 211.367883 74.045368  L 211.450553 73.880113  L 211.584891 73.657832  L 211.615892 73.724316  L 211.688228 73.628293  L 211.863901 73.447123  L 211.874235 73.472999  L 211.936237 73.357223  L 212.266916 72.717286  L 212.27725 72.721792  L 212.339252 72.629885  L 212.432256 72.470751  L 212.63893 72.129557  L 212.649264 72.148479  L 212.659598 72.164963  L 212.690599 72.090582  L 212.731934 72.074224  L 213.434626 70.628759  L 213.661968 70.102279  L 213.858309 69.276388  L 214.16832 65.705579  L 214.25099 60.14037  L 214.426663 28.399681  L 214.53 32.754044  L 215.346364 82.817211  L 215.480702 83.141878  L 215.501369 83.065898  L 215.511703 83.112026  L 215.584039 82.971558  L 216.886087 80.025902  L 216.896421 80.041045  L 216.927422 79.928929  L 217.351105 79.0133  L 217.423441 78.918337  L 218.39481 76.883765  L 218.405144 76.911592  L 218.415477 76.928787  L 218.446479 76.863274  L 218.487813 76.863138  L 218.704821 76.540058  L 218.715155 76.579372  L 218.777157 76.38803  L 218.911496 76.209525  L 219.025167 75.90495  L 219.056168 75.953853  L 219.407514 75.359489  L 219.655523 74.846965  L 219.665857 74.859304  L 219.707192 74.784388  L 219.9242 74.40963  L 220.068872 74.204147  L 220.254879 74.031285  L 220.275546 74.063439  L 220.316881 74.083793  L 220.347882 74.001432  L 220.492554 73.745482  L 220.502888 73.7483  L 220.523555 73.782679  L 220.554557 73.711208  L 220.595891 73.705944  L 220.709562 73.569169  L 220.988573 73.172531  L 221.040241 73.182643  L 221.081576 73.148286  L 221.246916 72.818496  L 221.308918 72.73188  L 221.45359 72.533666  L 221.474257 72.543295  L 221.587928 72.446971  L 221.877272 71.900761  L 221.918607 71.913201  L 221.89794 71.884954  L 221.959942 71.867321  L 222.114948 71.588109  L 222.197617 71.442911  L 223.024315 69.839047  L 223.189654 69.211867  L 223.468665 66.195388  L 223.572002 60.02978  L 223.747675 28.666292  L 223.851012 32.899691  L 224.667376 82.613706  L 224.801714 82.883711  L 225.101392 82.2357  L 225.525074 81.258384  L 225.618077 81.125793  L 225.773083 80.673979  L 226.031426 80.081284  L 226.093428 79.96626  L 226.496443 79.081389  L 226.517111 79.113463  L 226.630782 78.817187  L 226.889125 78.190757  L 226.899458 78.195855  L 226.951127 78.094884  L 227.178469 77.756927  L 227.219803 77.678244  L 227.509148 77.055571  L 228.335845 75.709888  L 228.346179 75.731906  L 229.37955 74.17092  L 229.420885 74.213065  L 229.431219 74.231983  L 229.482887 74.13899  L 229.493221 74.136242  L 229.885902 73.565434  L 229.916903 73.651177  L 229.937571 73.674232  L 229.999573 73.594759  L 230.164913 73.138935  L 230.195914 73.152225  L 230.26825 73.070439  L 230.433589 72.932548  L 230.495591 72.840351  L 230.836604 72.372057  L 230.888273 72.312452  L 230.970942 72.145609  L 231.043278 72.173733  L 231.787306 71.060129  L 231.828641 70.958853  L 232.024981 70.553039  L 232.190321 70.173006  L 232.614003 68.221042  L 232.758675 66.120258  L 232.851679 61.142031  L 232.96535 34.53182  L 233.037686 28.612824  L 233.099688 30.419199  L 233.730045 70.660873  L 233.926385 82.263605  L 234.091725 82.827453  L 234.122726 82.816799  L 234.13306 82.790664  L 234.277732 82.46244  L 234.288065 82.467799  L 234.629078 81.656496  L 234.639412 81.687236  L 234.69108 81.513922  L 234.77375 81.231459  L 234.918422 80.930204  L 234.928756 80.948836  L 235.001092 80.810339  L 235.156097 80.424956  L 236.902495 76.945678  L 236.923163 76.959104  L 237.005833 76.798263  L 237.202173 76.43011  L 237.925533 75.132187  L 238.039204 74.992549  L 238.049538 74.997647  L 238.11154 74.871699  L 238.287213 74.609486  L 238.297547 74.614029  L 238.421552 74.584144  L 238.566224 74.210353  L 238.669561 74.132055  L 238.690228 74.165426  L 238.752231 74.157544  L 238.772898 74.112593  L 238.938237 73.991052  L 239.19658 73.604244  L 239.206914 73.616648  L 239.36192 73.334413  L 239.372254 73.351177  L 239.630596 73.0946  L 239.651264 73.125821  L 239.671931 73.166114  L 239.7236 73.036903  L 239.733934 73.046607  L 239.837271 72.961646  L 239.981943 72.840427  L 240.00261 72.856818  L 240.043945 72.756072  L 240.054279 72.763936  L 240.260953 72.369228  L 241.500999 70.087992  L 241.69734 69.400139  L 241.997017 66.596027  L 242.090021 62.975884  L 242.172691 47.932841  L 242.296695 28.445442  L 242.33803 29.323075  L 242.50337 40.811506  L 242.834048 58.259676  L 242.97872 68.846015  L 243.185395 82.312972  L 243.330067 82.92786  L 243.340401 82.91245  L 243.464405 82.743588  L 243.660746 82.252012  L 243.846753 81.810921  L 243.857086 81.840681  L 244.518444 80.271508  L 244.528778 80.294482  L 244.539112 80.303535  L 244.570113 80.207756  L 244.580446 80.197684  L 244.95246 79.328242  L 244.962794 79.332679  L 244.993795 79.230011  L 246.833197 75.903336  L 246.853864 75.918167  L 246.905533 75.815761  L 247.081206 75.530725  L 247.639226 74.628713  L 247.680561 74.647686  L 247.711562 74.548767  L 247.887236 74.411976  L 248.124911 73.985183  L 248.155912 73.997918  L 248.17658 73.901682  L 248.186913 73.911496  L 248.414255 73.626224  L 248.558927 73.520925  L 248.744934 73.234428  L 248.765601 73.255696  L 248.879272 73.225961  L 249.90231 72.08404  L 249.912644 72.11386  L 249.974646 72.020611  L 249.98498 72.021049  L 250.181321 71.729516  L 250.325993 71.450044  L 250.822011 70.579259  L 250.997684 70.107643  L 251.059686 69.951921  L 251.297362 69.034244  L 251.421366 68.100238  L 251.576372 65.142589  L 251.659042 58.271782  L 251.824381 28.519759  L 251.907051 31.355297  L 252.816418 82.79483  L 252.950756 82.727711  L 253.395106 81.646053  L 253.529445 81.435612  L 253.787787 80.754991  L 253.798121 80.764838  L 253.829122 80.648824  L 253.891125 80.54223  L 254.263138 79.662051  L 254.397477 79.435847  L 254.697154 78.69664  L 254.779824 78.599458  L 254.965831 78.265451  L 255.327511 77.51466  L 255.358512 77.554715  L 255.37918 77.578031  L 255.420515 77.435929  L 255.647856 76.948804  L 255.802862 76.760682  L 255.968202 76.51239  L 255.978535 76.543242  L 256.030204 76.35418  L 256.050871 76.357559  L 256.092206 76.280641  L 257.673265 74.050204  L 257.724933 74.056281  L 257.693932 74.023153  L 257.776602 74.000703  L 257.786936 74.006407  L 257.807603 73.937331  L 257.817937 73.925946  L 257.962609 73.786733  L 257.972942 73.791703  L 258.148616 73.59597  L 258.293288 73.378807  L 258.35529 73.333205  L 258.396625 73.409303  L 258.43796 73.445504  L 258.479295 73.382992  L 258.499962 73.381018  L 258.510296 73.389425  L 258.530963 73.311531  L 258.572298 73.302598  L 258.6343 73.139912  L 258.851308 72.892607  L 258.892643 72.902365  L 258.933978 72.839642  L 260.794047 70.520448  L 261.341734 68.501453  L 261.517407 66.328005  L 261.620744 61.320004  L 261.724081 38.082986  L 261.817085 28.76713  L 261.868753 30.173714  L 262.075428 45.600535  L 262.685117 81.892923  L 262.809122 82.509963  L 262.840123 82.499561  L 262.94346 82.448466  L 263.418811 81.274498  L 263.491147 81.076542  L 263.635819 80.819276  L 263.646153 80.835758  L 263.656486 80.854511  L 263.697821 80.744475  L 264.173172 79.601959  L 264.204173 79.490174  L 264.493517 78.867644  L 265.092873 77.631816  L 265.103207 77.649921  L 265.144541 77.510236  L 265.206544 77.436937  L 265.382217 77.125559  L 265.55789 76.83405  L 265.568224 76.866641  L 265.578557 76.877245  L 265.609559 76.77552  L 265.630226 76.796306  L 265.909236 76.382534  L 265.971239 76.206294  L 266.208914 75.767829  L 266.952942 74.857418  L 267.045945 74.709613  L 267.08728 74.746411  L 267.097614 74.761394  L 267.149282 74.674188  L 267.469628 74.122755  L 267.479961 74.131382  L 267.490295 74.156347  L 267.541964 74.033331  L 267.655634 73.895291  L 267.665968 73.909415  L 267.676302 73.932062  L 267.738304 73.832476  L 267.748638 73.828455  L 267.996647 73.725559  L 268.130985 73.672285  L 268.203321 73.549696  L 268.761342 72.652343  L 268.802677 72.591836  L 268.823344 72.597787  L 268.957683 72.436552  L 268.968016 72.44425  L 268.97835 72.498199  L 269.040352 72.363584  L 269.071354 72.393484  L 269.185024 72.234881  L 269.4227 72.047167  L 269.453701 71.988621  L 269.598373 71.810524  L 269.61904 71.83579  L 269.949719 71.465221  L 269.970387 71.483782  L 269.980721 71.405111  L 270.042723 71.422257  L 270.156394 71.092901  L 270.311399 70.920411  L 270.95209 68.83816  L 271.200099 65.475394  L 271.282769 59.997587  L 271.468776 28.627828  L 271.572113 33.243985  L 272.336808 81.91833  L 272.491814 82.611379  L 272.584817 82.544599  L 272.92583 81.761992  L 273.194506 81.1372  L 274.09354 79.081494  L 274.103873 79.088005  L 274.114207 79.027395  L 274.134874 78.999276  L 274.682561 77.965313  L 274.713562 77.958027  L 274.754897 77.885143  L 274.806566 77.689553  L 275.033908 77.289414  L 275.054575 77.32067  L 275.075243 77.351991  L 275.137245 77.215707  L 275.343919 76.840036  L 275.571261 76.478723  L 275.726267 76.150629  L 275.7366 76.199229  L 275.81927 76.102393  L 275.829604 76.125435  L 275.932941 75.926628  L 276.09828 75.677378  L 276.490962 75.038119  L 276.501295 75.060829  L 276.573631 74.96053  L 276.70797 74.740929  L 276.718303 74.759827  L 277.34866 73.97951  L 277.503666 74.073969  L 277.545001 74.009082  L 277.917014 73.692078  L 280.552112 69.873202  L 281.037797 66.087132  L 281.141134 60.236298  L 281.327141 28.825456  L 281.440812 33.975723  L 281.916163 62.06865  L 282.308844 82.533103  L 282.329511 82.516674  L 282.515518 82.262934  L 282.556853 82.272978  L 282.567187 82.186243  L 282.835863 81.444688  L 282.846197 81.479092  L 282.908199 81.353091  L 284.427256 78.033934  L 284.437589 78.043961  L 284.592595 77.79143  L 284.974943 77.031274  L 286.08065 75.365099  L 286.101318 75.392427  L 286.142652 75.277719  L 287.310362 73.73759  L 287.33103 73.778103  L 287.475702 73.687694  L 287.940719 73.1193  L 288.157727 72.830983  L 288.457405 72.45065  L 288.581409 72.539567  L 289.676783 70.923135  L 289.831789 70.63464  L 290.22447 69.589796  L 290.575817 67.255617  L 290.689488 64.155335  L 290.772157 54.008571  L 290.927163 28.582646  L 290.968498 29.701131  L 291.123504 40.897557  L 291.443849 58.117569  L 291.598855 69.373992  L 291.805529 82.104285  L 291.939867 82.650861  L 291.950201 82.61697  L 292.032871 82.498917  L 292.28088 81.99462  L 292.384217 81.771266  L 292.55989 81.309021  L 292.570224 81.318516  L 292.601225 81.2024  L 292.611559 81.209643  L 292.673561 81.139327  L 292.859568 80.60524  L 293.035241 80.150808  L 293.376254 79.55967  L 293.458923 79.405431  L 293.665598 78.927404  L 294.481961 77.46983  L 294.492295 77.482512  L 294.512962 77.367484  L 294.709303 77.022234  L 294.864309 76.746402  L 295.070983 76.491027  L 295.143319 76.344331  L 295.318992 75.967075  L 295.515333 75.721609  L 295.639338 75.657581  L 296.135356 74.88892  L 296.166357 74.89411  L 296.197358 74.788443  L 296.486702 74.397448  L 296.497036 74.43757  L 296.569372 74.39996  L 296.579706 74.353311  L 296.848382 73.865183  L 296.858716 73.87395  L 296.941386 73.818921  L 296.993054 73.855059  L 297.075724 73.744991  L 297.086058 73.768212  L 297.137726 73.650986  L 297.323733 73.436452  L 297.334067 73.44106  L 297.365068 73.393499  L 297.42707 73.408579  L 297.571742 73.239679  L 297.633745 73.266962  L 297.67508 73.200525  L 297.892088 72.954678  L 298.295103 72.41351  L 298.346771 72.442077  L 298.388106 72.390054  L 298.501777 72.267388  L 298.522444 72.286003  L 298.615448 72.130575  L 298.656783 72.156661  L 298.76012 72.045449  L 298.770453 72.06681  L 298.832456 71.983267  L 298.84279 72.007891  L 299.018463 71.816144  L 299.028796 71.848038  L 299.090799 71.707127  L 299.235471 71.487844  L 299.266472 71.509788  L 299.896829 70.840575  L 299.907162 70.860732  L 299.969165 70.774322  L 300.186173 70.369575  L 300.217174 70.389492  L 300.237841 70.338651  L 300.28951 70.340826  L 300.320511 70.352973  L 300.950868 67.56941  L 301.105873 63.926166  L 301.198877 51.888199  L 301.343549 29.257628  L 301.384884 30.11766  L 301.539889 41.445989  L 301.849901 58.63229  L 301.994573 69.16649  L 302.211581 81.630821  L 302.325252 82.160604  L 302.356253 82.135387  L 302.407922 82.14124  L 302.428589 82.073897  L 304.26799 78.14032  L 304.278324 78.155109  L 304.309325 78.063611  L 304.516 77.658925  L 304.764009 77.067274  L 304.950016 76.811282  L 304.981017 76.822883  L 305.136023 76.545664  L 305.146356 76.562341  L 305.187691 76.492884  L 305.229026 76.504147  L 305.425367 76.292607  L 305.477035 76.223141  L 305.632041 75.857724  L 305.911051 75.369154  L 305.952386 75.601075  L 306.655079 77.1743  L 306.665413 77.154646  L 306.706747 77.193666  L 306.717081 77.246174  L 306.810085 77.323131  L 306.830752 77.273403  L 306.944423 77.233726  L 306.954757 77.259071  L 307.120096 77.28557  L 307.233767 77.227939  L 307.171765 77.299447  L 307.244101 77.234308  L 307.306103 77.274614  L 307.450775 77.087558  L 307.585113 77.103845  L 307.709118 77.194877  L 307.957127 77.225993  L 308.112133 77.469104  L 308.1328 77.395942  L 308.256805 77.311882  L 308.267139 77.354961  L 308.329141 77.414293  L 308.391143 77.373087  L 308.411811 77.323312  L 308.504814 77.370595  L 308.597817 77.286865  L 308.628819 77.363263  L 309.0215 77.369292  L 309.155838 77.523877  L 309.238508 77.477617  L 309.197173 77.445487  L 309.248842 77.457613  L 309.310844 77.369481  L 309.372846 77.496477  L 309.496851 77.619483  L 309.517518 77.603708  L 309.527852 77.593569  L 309.548519 77.674992  L 309.57952 77.689049  L 309.703525 77.853133  L 309.724193 77.834667  L 309.920533 77.91176  L 309.941201 77.960662  L 309.982535 77.878666  L 310.02387 77.888883  L 310.964238 78.405411  L 311.160579 78.711287  L 311.284584 78.688065  L 311.398255 78.752745  L 311.408588 78.744417  L 311.511925 78.660923  L 311.532593 78.726601  L 311.656597 78.859498  L 311.708266 78.803736  L 311.801269 78.774964  L 311.821937 78.830255  L 312.007944 78.907722  L 312.049279 78.865019  L 312.08028 78.954802  L 312.121615 78.904636  L 312.224952 79.04225  L 312.255953 79.02004  L 312.44196 79.039095  L 312.452294 79.016976  L 312.617633 78.899424  L 312.648634 78.951744  L 312.906977 79.183355  L 312.968979 79.264099  L 312.979313 79.253579  L 313.464998 79.784762  L 313.537334 79.879113  L 313.682006 80.045554  L 314.632708 80.814235  L 314.643041 80.796663  L 314.767046 80.798719  L 314.922052 81.064751  L 314.932385 81.037191  L 314.994388 81.182355  L 315.552408 81.344475  L 315.676413 81.558245  L 315.686747 81.539856  L 315.69708 81.536153  L 315.707414 81.60463  L 315.717748 81.604686  L 315.728082 81.651811  L 315.821085 81.569151  L 316.048427 81.842927  L 316.05876 81.836962  L 316.172431 81.934709  L 316.379106 82.195819  L 316.420441 82.273476  L 316.606447 82.540345  L 316.66845 82.642696  L 316.689117 82.690926  L 316.740786 82.573489  L 316.782121 82.65085  L 317.071465 82.702398  L 317.22647 82.984378  L 317.236804 82.963298  L 317.288473 82.941943  L 317.329808 83.015343  L 317.484813 83.196793  L 317.567483 83.27629  L 317.743156 83.584374  L 317.75349 83.575502  L 317.918829 83.715172  L 318.042834 83.87207  L 318.073835 83.756903  L 318.084169 83.724901  L 318.156505 83.837266  L 318.290843 83.924662  L 318.456183 84.200857  L 318.466516 84.171904  L 318.714525 84.298251  L 318.9212 84.675445  L 318.931534 84.669087  L 318.941867 84.72055  L 318.983202 84.763179  L 319.138208 84.97046  L 319.20021 84.927015  L 319.231211 85.01997  L 319.334548 85.074496  L 319.613559 85.499624  L 319.623893 85.481251  L 319.778898 85.630558  L 320.026907 86.061901  L 320.099243 85.990114  L 320.140578 86.047683  L 320.254249 86.144891  L 320.326585 86.244165  L 320.378254 86.233442  L 320.502258 86.325116  L 320.739934 86.526004  L 321.948979 87.409877  L 322.103984 87.56609  L 322.196988 87.494859  L 322.217655 87.554358  L 322.227989 87.559766  L 322.25899 87.461998  L 322.279658 87.424597  L 322.310659 87.499241  L 322.351994 87.483601  L 322.496666 87.669699  L 322.527667 87.618479  L 322.62067 87.619077  L 322.641338 87.646086  L 322.744675 87.663926  L 322.755008 87.642046  L 322.765342 87.622947  L 322.827344 87.72692  L 322.848012 87.686186  L 323.50937 87.985814  L 323.612707 88.041798  L 323.78838 88.275261  L 323.798714 88.254187  L 323.902051 88.11879  L 323.922718 88.171734  L 324.046723 88.286661  L 324.212062 88.36697  L 324.243064 88.34457  L 324.346401 88.432895  L 324.387736 88.395523  L 324.42907 88.471215  L 324.439404 88.469493  L 324.635745 88.739305  L 324.832085 88.879763  L 324.966424 88.952284  L 325.090428 89.028231  L 325.2351 89.174182  L 325.245434 89.156136  L 325.286769 89.239547  L 325.31777 89.238768  L 325.472776 89.32597  L 325.555446 89.379018  L 325.627782 89.41061  L 325.669116 89.372468  L 325.731119 89.402266  L 325.700118 89.434281  L 325.741452 89.431713  L 325.937793 89.703061  L 325.95846 89.698506  L 326.010129 89.786381  L 326.258138 89.957801  L 326.268472 90.038561  L 326.371809 90.000459  L 326.702488 90.212925  L 326.805825 90.166778  L 326.826493 90.218982  L 326.84716 90.27748  L 326.888495 90.193563  L 326.940163 90.23221  L 327.012499 90.163011  L 327.053834 90.222725  L 327.146838 90.352434  L 327.188173 90.282345  L 327.301844 90.296255  L 327.508518 90.470155  L 327.518852 90.461888  L 327.57052 90.559988  L 327.84953 90.636473  L 327.973535 90.662263  L 327.994203 90.630899  L 328.056205 90.724935  L 328.107873 90.639032  L 328.345549 90.692657  L 328.614225 90.535877  L 328.696895 90.517811  L 328.727896 90.580737  L 328.862235 90.449089  L 328.882902 90.496739  L 329.01724 90.652745  L 329.027574 90.631832  L 329.058575 90.636455  L 329.068909 90.681764  L 329.18258 90.891258  L 329.203247 90.873023  L 329.296251 90.944642  L 329.482258 91.137269  L 329.564927 91.068037  L 329.606262 91.093293  L 329.740601 91.117307  L 329.750934 91.096137  L 329.947275 90.926577  L 330.050612 91.035414  L 329.967942 90.906453  L 330.081613 90.936198  L 330.143615 90.971897  L 330.195284 90.948626  L 330.215951 90.968147  L 330.246953 90.890313  L 330.277954 90.874544  L 330.391625 90.840658  L 330.412292 90.863788  L 330.505296 90.960725  L 330.525963 90.894088  L 330.732637 91.039711  L 330.742971 91.024078  L 330.79464 90.966194  L 330.866976 91.015623  L 330.877309 91.025055  L 330.90831 90.947708  L 330.928978 90.951261  L 331.021981 90.90106  L 331.042649 90.948434  L 331.135652 90.994025  L 331.166653 90.907621  L 331.238989 90.909589  L 331.218322 90.973567  L 331.249323 90.918372  L 331.321659 91.027744  L 331.362994 90.983655  L 331.528333 91.033985  L 331.662672 91.058461  L 331.79701 91.061492  L 331.807344 91.005695  L 331.828011 90.982071  L 331.900347 91.060174  L 332.293028 91.156441  L 332.386032 90.995649  L 332.4377 91.040203  L 332.510036 91.117601  L 332.582372 91.055839  L 332.789047 91.058831  L 332.871716 90.996536  L 332.902718 91.04262  L 333.471072 91.000482  L 333.615744 90.874802  L 333.636411 90.889139  L 333.729415 90.961491  L 333.760416 90.937813  L 334.008425 91.117903  L 334.029093 91.088648  L 334.142764 91.026441  L 334.184098 91.070518  L 334.2151 91.126197  L 334.266768 91.022145  L 334.277102 91.024308  L 334.690451 91.025922  L 335.021129 91.164804  L 335.083132 91.195643  L 335.114133 91.143446  L 335.155468 91.188901  L 335.227804 91.141361  L 336.116503 90.998017  L 336.240508 91.068849  L 336.374846 90.981434  L 336.974202 91.029934  L 337.005203 90.912603  L 337.087873 91.017598  L 337.118874 90.959892  L 337.201544 91.025023  L 337.304881 90.987097  L 337.315214 90.958711  L 337.397884 91.054959  L 337.63556 90.83861  L 337.666561 90.909217  L 337.718229 90.942012  L 337.769898 90.891902  L 337.91457 90.767608  L 337.924904 90.78016  L 338.110911 91.121185  L 338.162579 91.063134  L 338.224581 91.095179  L 338.27625 91.049721  L 338.27625 91.049721  " style="fill:none;stroke:#d7301f;stroke-linecap:square;stroke-opacity:0.8;stroke-width:1.5;"/>
   </g>
   <g id="patch_3">
    <path d="M 45.32625 94.632  L 45.32625 22.56  " style="fill:none;stroke:#000000;stroke-linecap:square;stroke-linejoin:miter;stroke-width:1.5;"/>
   </g>
   <g id="patch_4">
    <path d="M 45.32625 94.632  L 352.22625 94.632  " style="fill:none;stroke:#000000;stroke-linecap:square;stroke-linejoin:miter;stroke-width:1.5;"/>
   </g>
   <g id="legend_1">
    <g id="line2d_10">
     <path d="M 79.21625 14.88  L 95.21625 14.88  " style="fill:none;stroke:#000000;stroke-linecap:square;stroke-width:1.5;"/>
    </g>
    <g id="line2d_11"/>
    <g id="text_10">
     <!-- $\overline{g}_{\mathrm{CaS}}$ = 3 mS / $\mathrm{cm}^2$ -->
     <g transform="translate(101.61625 17.68)">
      <text>
       <tspan style="font-family:DejaVu Sans;font-size:8px;font-style:book;font-weight:book;" x="0 16.269922 18.812891 25.516016 28.058984 33.148828 35.691797 43.484766 48.562891 51.105859 53.801172 56.344141 60.742578" y="-1.2612500000000004 -0.78125 -0.78125 -0.78125 -0.78125 -0.78125 -0.78125 -0.78125 -0.78125 -0.78125 -0.78125 -0.78125 -0.78125">g&#160;=&#160;3&#160;mS&#160;/&#160;cm</tspan>
       <tspan style="font-family:DejaVu Sans;font-size:5.6px;font-style:book;font-weight:book;" x="5.154687 9.064844 12.496484 68.612109" y="0.53125 0.53125 0.53125 -3.84375">CaS2</tspan>
      </text>
      <rect height="0.5" width="5.078125" x="0" y="-7.245625"/>
     </g>
    </g>
    <g id="line2d_12">
     <path d="M 190.01625 14.88  L 206.01625 14.88  " style="fill:none;stroke:#d7301f;stroke-linecap:square;stroke-opacity:0.8;stroke-width:1.5;"/>
    </g>
    <g id="line2d_13"/>
    <g id="text_11">
     <!-- $\overline{g}_{\mathrm{CaS}}$ = 5 mS / $\mathrm{cm}^2$ -->
     <g transform="translate(212.41625 17.68)">
      <text>
       <tspan style="font-family:DejaVu Sans;font-size:8px;font-style:book;font-weight:book;" x="0 16.269922 18.812891 25.516016 28.058984 33.148828 35.691797 43.484766 48.562891 51.105859 53.801172 56.344141 60.742578" y="-1.2612500000000004 -0.78125 -0.78125 -0.78125 -0.78125 -0.78125 -0.78125 -0.78125 -0.78125 -0.78125 -0.78125 -0.78125 -0.78125">g&#160;=&#160;5&#160;mS&#160;/&#160;cm</tspan>
       <tspan style="font-family:DejaVu Sans;font-size:5.6px;font-style:book;font-weight:book;" x="5.154687 9.064844 12.496484 68.612109" y="0.53125 0.53125 0.53125 -3.84375">CaS2</tspan>
      </text>
      <rect height="0.5" width="5.078125" x="0" y="-7.245625"/>
     </g>
    </g>
   </g>
  </g>
 </g>
 <defs>
  <clipPath id="pcb597b9555">
   <rect height="72.072" width="306.9" x="45.32625" y="22.56"/>
  </clipPath>
 </defs>
</g>
    </g>
    <g transform="translate(467.5, 11.0) scale(1) ">
      <g transform="translate(0, 0.0) scale(1) translate(0, 0) scale(1.25) "><metadata>
  <rdf:RDF xmlns:cc="http://creativecommons.org/ns#" xmlns:dc="http://purl.org/dc/elements/1.1/" xmlns:rdf="http://www.w3.org/1999/02/22-rdf-syntax-ns#">
   <cc:Work>
    <dc:type rdf:resource="http://purl.org/dc/dcmitype/StillImage"/>
    <dc:date>2022-03-17T12:16:16.052436</dc:date>
    <dc:format>image/svg+xml</dc:format>
    <dc:creator>
     <cc:Agent>
      <dc:title>Matplotlib v3.4.2, https://matplotlib.org/</dc:title>
     </cc:Agent>
    </dc:creator>
   </cc:Work>
  </rdf:RDF>
 </metadata>
 <defs>
  <style type="text/css">*{stroke-linecap:butt;stroke-linejoin:round;}</style>
 </defs>
 <g id="figure_1">
  <g id="patch_1">
   <path d="M 0 137.872  L 76.8025 137.872  L 76.8025 0  L 0 0  z " style="fill:none;"/>
  </g>
  <g id="axes_1">
   <g id="patch_2">
    <path d="M 36.1225 79.272  L 69.6025 79.272  L 69.6025 7.2  L 36.1225 7.2  z " style="fill:none;"/>
   </g>
   <g id="patch_3">
    <path clip-path="url(#paacfd842d7)" d="M 40.687955 79.272  L 49.818864 79.272  L 49.818864 29.407964  L 40.687955 29.407964  z "/>
   </g>
   <g id="patch_4">
    <path clip-path="url(#paacfd842d7)" d="M 55.906136 79.272  L 65.037045 79.272  L 65.037045 10.632  L 55.906136 10.632  z " style="fill:#d7301f;"/>
   </g>
   <g id="matplotlib.axis_1">
    <g id="xtick_1">
     <g id="line2d_1">
      <defs>
       <path d="M 0 0  L 0 3.5  " id="m3f81ce04f1" style="stroke:#000000;stroke-width:1.5;"/>
      </defs>
      <g>
       <use style="stroke:#000000;stroke-width:1.5;" x="45.253409" xlink:href="#m3f81ce04f1" y="79.272"/>
      </g>
     </g>
     <g id="text_1">
      <!-- 3 mS / $\mathrm{cm}^2$ -->
      <g transform="translate(47.629659 130.672)rotate(-90)">
       <text>
        <tspan style="font-family:DejaVu Sans;font-size:8px;font-style:book;font-weight:book;" x="0 5.089844 7.632812 15.425781 20.503906 23.046875 25.742188 28.285156 32.683594" y="-0.78125">3&#160;mS&#160;/&#160;cm</tspan>
        <tspan style="font-family:DejaVu Sans;font-size:5.6px;font-style:book;font-weight:book;" x="40.553125" y="-3.84375">2</tspan>
       </text>
      </g>
     </g>
    </g>
    <g id="xtick_2">
     <g id="line2d_2">
      <g>
       <use style="stroke:#000000;stroke-width:1.5;" x="60.471591" xlink:href="#m3f81ce04f1" y="79.272"/>
      </g>
     </g>
     <g id="text_2">
      <!-- 5 mS / $\mathrm{cm}^2$ -->
      <g transform="translate(62.847841 130.672)rotate(-90)">
       <text>
        <tspan style="font-family:DejaVu Sans;font-size:8px;font-style:book;font-weight:book;" x="0 5.089844 7.632812 15.425781 20.503906 23.046875 25.742188 28.285156 32.683594" y="-0.78125">5&#160;mS&#160;/&#160;cm</tspan>
        <tspan style="font-family:DejaVu Sans;font-size:5.6px;font-style:book;font-weight:book;" x="40.553125" y="-3.84375">2</tspan>
       </text>
      </g>
     </g>
    </g>
   </g>
   <g id="matplotlib.axis_2">
    <g id="ytick_1">
     <g id="line2d_3">
      <defs>
       <path d="M 0 0  L -3.5 0  " id="mcf4e0addb4" style="stroke:#000000;stroke-width:1.5;"/>
      </defs>
      <g>
       <use style="stroke:#000000;stroke-width:1.5;" x="36.1225" xlink:href="#mcf4e0addb4" y="79.272"/>
      </g>
     </g>
     <g id="text_3">
      <text style="font-family:DejaVu Sans;font-size:8px;font-stretch:normal;font-style:normal;font-weight:normal;text-anchor:end;" transform="rotate(-0, 29.1225, 82.311375)" x="29.1225" y="82.311375">0</text>
     </g>
    </g>
    <g id="ytick_2">
     <g id="line2d_4">
      <g>
       <use style="stroke:#000000;stroke-width:1.5;" x="36.1225" xlink:href="#mcf4e0addb4" y="54.647785"/>
      </g>
     </g>
     <g id="text_4">
      <text style="font-family:DejaVu Sans;font-size:8px;font-stretch:normal;font-style:normal;font-weight:normal;text-anchor:end;" transform="rotate(-0, 29.1225, 57.68716)" x="29.1225" y="57.68716">10</text>
     </g>
    </g>
    <g id="ytick_3">
     <g id="line2d_5">
      <g>
       <use style="stroke:#000000;stroke-width:1.5;" x="36.1225" xlink:href="#mcf4e0addb4" y="30.02357"/>
      </g>
     </g>
     <g id="text_5">
      <text style="font-family:DejaVu Sans;font-size:8px;font-stretch:normal;font-style:normal;font-weight:normal;text-anchor:end;" transform="rotate(-0, 29.1225, 33.062945)" x="29.1225" y="33.062945">20</text>
     </g>
    </g>
    <g id="text_6">
     <text style="font-family:DejaVu Sans;font-size:8px;font-stretch:normal;font-style:normal;font-weight:normal;text-anchor:middle;" transform="rotate(-90, 13.27875, 43.236)" x="13.27875" y="43.236">#spikes / burst</text>
    </g>
   </g>
   <g id="patch_5">
    <path d="M 36.1225 79.272  L 36.1225 7.2  " style="fill:none;stroke:#000000;stroke-linecap:square;stroke-linejoin:miter;stroke-width:1.5;"/>
   </g>
   <g id="patch_6">
    <path d="M 36.1225 79.272  L 69.6025 79.272  " style="fill:none;stroke:#000000;stroke-linecap:square;stroke-linejoin:miter;stroke-width:1.5;"/>
   </g>
  </g>
 </g>
 <defs>
  <clipPath id="paacfd842d7">
   <rect height="72.072" width="33.48" x="36.1225" y="7.2"/>
  </clipPath>
 </defs>
</g>
    </g>
  </g>
</svg>
