<?xml version='1.0' encoding='ASCII' standalone='yes'?>
<svg xmlns="http://www.w3.org/2000/svg" xmlns:xlink="http://www.w3.org/1999/xlink" version="1.1" width="20.3cm" viewBox="0 0 20.3cm 4.9cm" height="4.9cm">
  <g>
    <g transform="translate(0.0, -7.699999999999999) scale(1) ">
      <g transform="translate(0, 0.0) scale(1) translate(0, 0) scale(1.25) "><metadata>
  <rdf:RDF xmlns:cc="http://creativecommons.org/ns#" xmlns:dc="http://purl.org/dc/elements/1.1/" xmlns:rdf="http://www.w3.org/1999/02/22-rdf-syntax-ns#">
   <cc:Work>
    <dc:type rdf:resource="http://purl.org/dc/dcmitype/StillImage"/>
    <dc:date>2022-06-30T17:08:48.451163</dc:date>
    <dc:format>image/svg+xml</dc:format>
    <dc:creator>
     <cc:Agent>
      <dc:title>Matplotlib v3.4.2, https://matplotlib.org/</dc:title>
     </cc:Agent>
    </dc:creator>
   </cc:Work>
  </rdf:RDF>
 </metadata>
 <defs>
  <style type="text/css">*{stroke-linecap:butt;stroke-linejoin:round;}</style>
 </defs>
 <g id="figure_1">
  <g id="patch_1">
   <path d="M 0 130.85575  L 355.8775 130.85575  L 355.8775 0  L 0 0  z " style="fill:none;"/>
  </g>
  <g id="axes_1">
   <g id="patch_2">
    <path d="M 41.7775 97.832  L 348.6775 97.832  L 348.6775 25.76  L 41.7775 25.76  z " style="fill:none;"/>
   </g>
   <g id="matplotlib.axis_1">
    <g id="xtick_1">
     <g id="line2d_1">
      <defs>
       <path d="M 0 0  L 0 3.5  " id="m3ece53c94f" style="stroke:#000000;stroke-width:1.5;"/>
      </defs>
      <g>
       <use style="stroke:#000000;stroke-width:1.5;" x="55.7275" xlink:href="#m3ece53c94f" y="97.832"/>
      </g>
     </g>
     <g id="text_1">
      <text style="font-family:Arial;font-size:8px;font-stretch:normal;font-style:normal;font-weight:normal;text-anchor:middle;" transform="rotate(-0, 55.7275, 110.55825)" x="55.7275" y="110.55825">0</text>
     </g>
    </g>
    <g id="xtick_2">
     <g id="line2d_2">
      <g>
       <use style="stroke:#000000;stroke-width:1.5;" x="138.397229" xlink:href="#m3ece53c94f" y="97.832"/>
      </g>
     </g>
     <g id="text_2">
      <text style="font-family:Arial;font-size:8px;font-stretch:normal;font-style:normal;font-weight:normal;text-anchor:middle;" transform="rotate(-0, 138.397229, 110.55825)" x="138.397229" y="110.55825">200</text>
     </g>
    </g>
    <g id="xtick_3">
     <g id="line2d_3">
      <g>
       <use style="stroke:#000000;stroke-width:1.5;" x="221.066957" xlink:href="#m3ece53c94f" y="97.832"/>
      </g>
     </g>
     <g id="text_3">
      <text style="font-family:Arial;font-size:8px;font-stretch:normal;font-style:normal;font-weight:normal;text-anchor:middle;" transform="rotate(-0, 221.066957, 110.55825)" x="221.066957" y="110.55825">400</text>
     </g>
    </g>
    <g id="xtick_4">
     <g id="line2d_4">
      <g>
       <use style="stroke:#000000;stroke-width:1.5;" x="303.736686" xlink:href="#m3ece53c94f" y="97.832"/>
      </g>
     </g>
     <g id="text_4">
      <text style="font-family:Arial;font-size:8px;font-stretch:normal;font-style:normal;font-weight:normal;text-anchor:middle;" transform="rotate(-0, 303.736686, 110.55825)" x="303.736686" y="110.55825">600</text>
     </g>
    </g>
    <g id="text_5">
     <text style="font-family:Arial;font-size:8px;font-stretch:normal;font-style:normal;font-weight:normal;text-anchor:middle;" transform="rotate(-0, 195.2275, 121.972)" x="195.2275" y="121.972">Time (ms)</text>
    </g>
   </g>
   <g id="matplotlib.axis_2">
    <g id="ytick_1">
     <g id="line2d_5">
      <defs>
       <path d="M 0 0  L -3.5 0  " id="m4e84249848" style="stroke:#000000;stroke-width:1.5;"/>
      </defs>
      <g>
       <use style="stroke:#000000;stroke-width:1.5;" x="41.7775" xlink:href="#m4e84249848" y="81.047737"/>
      </g>
     </g>
     <g id="text_6">
      <text style="font-family:Arial;font-size:8px;font-stretch:normal;font-style:normal;font-weight:normal;text-anchor:end;" transform="rotate(-0, 34.7775, 83.910862)" x="34.7775" y="83.910862">&#8722;50</text>
     </g>
    </g>
    <g id="ytick_2">
     <g id="line2d_6">
      <g>
       <use style="stroke:#000000;stroke-width:1.5;" x="41.7775" xlink:href="#m4e84249848" y="53.730935"/>
      </g>
     </g>
     <g id="text_7">
      <text style="font-family:Arial;font-size:8px;font-stretch:normal;font-style:normal;font-weight:normal;text-anchor:end;" transform="rotate(-0, 34.7775, 56.59406)" x="34.7775" y="56.59406">0</text>
     </g>
    </g>
    <g id="ytick_3">
     <g id="line2d_7">
      <g>
       <use style="stroke:#000000;stroke-width:1.5;" x="41.7775" xlink:href="#m4e84249848" y="26.414132"/>
      </g>
     </g>
     <g id="text_8">
      <text style="font-family:Arial;font-size:8px;font-stretch:normal;font-style:normal;font-weight:normal;text-anchor:end;" transform="rotate(-0, 34.7775, 29.277257)" x="34.7775" y="29.277257">50</text>
     </g>
    </g>
    <g id="text_9">
     <text style="font-family:Arial;font-size:8px;font-stretch:normal;font-style:normal;font-weight:normal;text-anchor:middle;" transform="rotate(-90, 13.02375, 61.796)" x="13.02375" y="61.796">Voltage PY (mV)</text>
    </g>
   </g>
   <g id="line2d_8">
    <path clip-path="url(#p33c4d136e2)" d="M 55.7275 79.474807  L 55.923841 79.380068  L 55.954842 79.422488  L 56.037511 79.390921  L 56.120181 79.314421  L 56.182184 79.269022  L 56.213185 79.347303  L 56.347523 79.458695  L 56.647201 79.363805  L 56.678202 79.273294  L 56.750538 79.374542  L 56.802206 79.422997  L 56.853875 79.348577  L 57.029548 79.222239  L 57.33956 79.139525  L 57.680572 78.94799  L 57.70124 79.002444  L 57.856246 79.122542  L 57.959583 79.01936  L 57.98025 79.040116  L 58.042252 78.980496  L 58.083587 79.063696  L 58.124922 79.035637  L 58.197258 79.069407  L 58.238593 79.062146  L 58.269594 79.131731  L 58.4246 79.227293  L 58.569272 79.111337  L 58.589939 79.174166  L 58.600273 79.224691  L 58.62094 79.152395  L 58.693277 79.176633  L 58.755279 79.193279  L 58.78628 79.241937  L 58.86895 79.166264  L 58.899951 79.238429  L 59.003288 79.171734  L 59.034289 79.198575  L 59.085958 79.121339  L 59.240963 79.099569  L 59.364968 79.132593  L 59.395969 79.097956  L 59.87132 78.836473  L 59.943656 78.862238  L 59.95399 78.881572  L 60.098662 78.990315  L 60.181332 78.969388  L 60.212333 78.997273  L 60.233 79.059738  L 60.295003 78.934427  L 60.39834 78.842341  L 60.429341 78.879955  L 60.894358 79.037438  L 60.987361 79.1104  L 61.018363 79.09731  L 61.070031 79.146746  L 61.1217 79.0682  L 61.163035 79.019073  L 61.214703 79.12293  L 61.431711 79.17917  L 61.493714 79.231546  L 61.524715 79.171325  L 61.535048 79.131481  L 61.586717 79.230957  L 61.617718 79.203715  L 61.772724 79.413444  L 61.783058 79.436544  L 61.834726 79.346433  L 61.855394 79.342068  L 61.917396 79.253409  L 61.969065 79.320358  L 62.051734 79.38834  L 62.082735 79.353283  L 62.351412 79.475646  L 62.413414 79.510756  L 62.444415 79.444566  L 62.692425 79.162229  L 62.702758 79.190952  L 62.785428 79.104708  L 63.043771 78.959941  L 63.116107 78.860473  L 63.178109 78.9169  L 63.364116 78.977414  L 63.467453 78.895823  L 63.477787 78.937098  L 63.581124 78.955993  L 63.643127 78.860234  L 63.694795 78.94817  L 63.73613 78.87621  L 63.787799 78.908834  L 63.911803 78.78318  L 63.922137 78.787221  L 64.066809 78.772456  L 64.077143 78.746915  L 64.201147 78.666944  L 64.211481 78.688889  L 64.294151 78.708163  L 64.304484 78.745096  L 64.356153 78.673748  L 64.480158 78.909049  L 64.934841 78.836533  L 64.976176 78.855058  L 65.017511 78.794941  L 65.027844 78.804903  L 65.038178 78.76073  L 65.069179 78.834486  L 65.131182 78.83433  L 65.358523 78.887138  L 65.399858 78.90748  L 65.379191 78.853413  L 65.461861 78.851195  L 65.492862 78.879498  L 65.575531 78.857863  L 65.730537 78.930884  L 65.947545 78.860684  L 65.957879 78.919411  L 65.968213 78.97227  L 66.050882 78.882037  L 66.123218 78.850146  L 66.164553 78.893268  L 66.247223 79.038307  L 66.309225 78.981866  L 66.443564 78.862827  L 66.464231 78.89427  L 66.526233 78.793513  L 66.639904 78.751058  L 66.650238 78.758038  L 66.660572 78.784537  L 66.701906 78.679663  L 66.743241 78.690897  L 66.887913 78.678611  L 66.898247 78.692089  L 67.042919 78.66689  L 67.146256 78.600864  L 67.15659 78.624815  L 67.249593 78.715743  L 67.280595 78.647255  L 67.445934 78.651218  L 67.456268 78.61462  L 67.921285 78.320834  L 67.931619 78.3357  L 68.148627 78.360798  L 68.282965 78.391982  L 68.396636 78.475214  L 68.303632 78.371013  L 68.427637 78.433982  L 68.437971 78.403033  L 68.52064 78.499124  L 68.654979 78.430273  L 68.675646 78.461483  L 68.727315 78.46152  L 68.747982 78.416619  L 68.913322 78.079137  L 68.923655 78.086568  L 69.099329 78.117683  L 69.316337 77.966588  L 69.347338 78.030438  L 69.430008 78.10712  L 69.368005 78.011884  L 69.471342 78.08387  L 69.791688 77.893559  L 69.802021 77.904132  L 69.988028 77.888401  L 69.998362 77.90734  L 70.1327 77.936853  L 70.143034 77.919405  L 70.267039 77.928665  L 70.277372 77.944359  L 70.401377 77.973268  L 70.453045 78.040121  L 70.504714 77.977676  L 70.618385 77.875717  L 70.639052 77.890966  L 70.969731 77.877677  L 71.166072 78.061156  L 71.290076 77.935132  L 71.30041 77.942158  L 71.569087 77.823085  L 71.703425 77.863479  L 71.889432 77.733124  L 71.982435 77.718873  L 71.920433 77.669633  L 71.992769 77.68372  L 72.302781 77.361108  L 72.354449 77.446964  L 72.612792 77.492982  L 72.74713 77.375289  L 72.809133 77.297849  L 72.91247 77.157042  L 72.933137 77.207163  L 72.964138 77.153593  L 73.119144 77.21019  L 73.852838 76.701081  L 73.935508 76.714486  L 73.956175 76.652251  L 74.049179 76.610411  L 73.976843 76.665771  L 74.08018 76.644256  L 74.576198 76.326776  L 74.627867 76.383533  L 74.700203 76.241642  L 74.762205 76.295785  L 74.813874 76.215095  L 74.968879 76.051186  L 74.979213 76.063446  L 75.847245 75.083751  L 75.857579 75.115435  L 75.981583 74.966538  L 76.291595 74.248773  L 76.312262 74.280441  L 76.353597 74.168343  L 76.363931 74.169561  L 76.97362 72.319725  L 77.087291 71.526016  L 77.273298 67.023064  L 77.355968 54.931406  L 77.521307 29.036  L 77.552308 29.625139  L 77.686647 37.778539  L 78.048327 59.014987  L 78.286002 69.864392  L 78.513344 79.935148  L 78.575346 80.215584  L 78.658016 80.199251  L 78.66835 80.208986  L 78.709685 80.112098  L 78.854357 79.752591  L 78.968027 79.544324  L 78.999029 79.585146  L 79.061031 79.424425  L 79.278039 78.890051  L 79.929063 77.581331  L 80.11507 77.126112  L 80.125404 77.134127  L 80.228741 76.870588  L 80.414748 76.440644  L 81.148442 75.046536  L 81.169109 74.997523  L 81.303447 74.648273  L 81.313781 74.669052  L 81.324115 74.689415  L 81.375783 74.559984  L 81.406784 74.499507  L 81.675461 73.542046  L 81.975139 72.265149  L 82.264483 68.303198  L 82.347153 61.004641  L 82.491825 34.424546  L 82.574494 37.843858  L 83.060179 61.915551  L 83.204851 71.115062  L 83.411525 82.121089  L 83.525196 82.34748  L 83.545864 82.257178  L 84.227889 80.315915  L 84.320892 80.107421  L 84.630904 79.086774  L 85.581606 76.537223  L 85.860616 75.608448  L 86.800984 71.972774  L 86.997325 68.391581  L 87.079995 59.499306  L 87.203999 33.590677  L 87.276335 35.871948  L 88.237371 83.900521  L 88.268372 83.854368  L 88.351042 83.684914  L 89.477417 80.31035  L 89.694425 79.60562  L 90.231778 78.016021  L 90.696795 76.589177  L 90.789799 76.300127  L 91.172146 75.146246  L 91.223815 75.009844  L 91.82317 72.46042  L 92.009177 70.333193  L 92.102181 66.676586  L 92.174517 52.456715  L 92.277854 32.775881  L 92.329522 34.248289  L 93.021881 68.198476  L 93.280224 84.870583  L 93.373228 84.994657  L 93.393895 84.931302  L 93.734908 83.931192  L 93.931248 83.402795  L 94.220592 82.445425  L 94.230926 82.463963  L 94.272261 82.315176  L 94.375598 82.144053  L 94.52027 81.630392  L 94.530604 81.640734  L 94.96462 80.242107  L 95.925655 77.405061  L 96.090995 76.970719  L 96.308003 76.313704  L 97.403377 72.03665  L 97.558383 69.549972  L 97.641052 64.062622  L 97.785724 32.237036  L 97.909729 37.101446  L 98.426415 61.357126  L 98.560753 70.64288  L 98.767427 85.402997  L 98.870765 85.717336  L 98.912099 85.622182  L 99.563124 83.802533  L 99.573457 83.831703  L 99.63546 83.692722  L 99.91447 82.82314  L 100.048808 82.425008  L 100.596495 80.855336  L 100.710166 80.626024  L 101.092514 79.493795  L 101.206184 79.076918  L 102.291225 76.311547  L 102.425563 76.022185  L 102.652905 75.289744  L 103.386598 72.44682  L 103.61394 69.233558  L 103.69661 62.809339  L 103.841282 31.825867  L 103.944619 35.766588  L 104.895321 86.124254  L 104.915988 86.075588  L 104.94699 86.136022  L 104.977991 86.030243  L 105.153664 85.608999  L 105.205333 85.523004  L 105.67035 84.228881  L 105.856357 83.822816  L 106.135367 83.026561  L 106.373042 82.268557  L 106.548716 81.908672  L 106.920729 80.927889  L 106.982732 80.852215  L 107.437415 79.516476  L 107.551086 79.206369  L 107.737093 78.818048  L 107.747427 78.825833  L 108.481121 77.059469  L 108.72913 76.490894  L 108.966805 75.794636  L 109.225148 75.22435  L 109.834837 73.273813  L 110.124181 71.396542  L 110.237852 69.230073  L 110.320522 62.84653  L 110.465194 31.587022  L 110.568531 35.290792  L 111.519233 86.365882  L 111.560568 86.344231  L 111.570902 86.292473  L 111.756908 85.891145  L 111.767242 85.910111  L 112.95562 82.803599  L 112.965953 82.810374  L 112.996954 82.729306  L 113.017622 82.730705  L 113.23463 82.164471  L 113.306966 82.041832  L 113.482639 81.627659  L 113.492973 81.631886  L 113.709981 81.077693  L 113.988991 80.26022  L 114.154331 79.938463  L 114.423007 79.216411  L 114.433341 79.230954  L 114.48501 79.124256  L 114.495343 79.135803  L 114.702018 78.614887  L 114.722685 78.639638  L 115.714722 76.586978  L 115.84906 76.396612  L 116.0144 76.131266  L 116.148738 75.721162  L 116.314077 75.311494  L 116.324411 75.342372  L 116.386413 75.232036  L 116.57242 74.895185  L 116.810096 74.280452  L 117.275113 72.535565  L 117.450786 71.015765  L 117.574791 67.684524  L 117.647127 58.375531  L 117.781465 31.54435  L 117.843467 33.349393  L 118.535826 74.69145  L 118.721833 85.994045  L 118.835504 86.364537  L 118.866505 86.319992  L 120.478565 82.47238  L 120.488899 82.493459  L 120.540567 82.376223  L 121.832282 79.559649  L 121.852949 79.554467  L 121.873617 79.473018  L 122.276631 78.802455  L 122.431637 78.498548  L 122.493639 78.461885  L 122.514307 78.427098  L 123.165331 76.875056  L 123.196332 76.924066  L 123.237667 76.75521  L 123.454675 76.407911  L 123.506344 76.47332  L 123.547679 76.357921  L 123.94036 75.663948  L 124.116033 75.346386  L 124.271039 75.144838  L 124.550049 74.432978  L 124.715388 74.07896  L 125.252742 71.592242  L 125.397414 69.155511  L 125.480083 63.608608  L 125.645423 31.437702  L 125.759094 36.198747  L 126.647793 86.335699  L 126.720129 86.35768  L 126.678794 86.309795  L 126.761464 86.300526  L 128.828207 81.592877  L 128.910877 81.3915  L 129.16922 80.862  L 129.830578 79.656807  L 129.995917 79.184986  L 130.109588 79.076838  L 130.388599 78.640054  L 130.522937 78.297876  L 130.533271 78.307114  L 130.564272 78.250482  L 130.729611 77.877616  L 130.97762 77.400155  L 130.998288 77.428509  L 131.039623 77.335166  L 131.080958 77.358913  L 131.349634 76.926779  L 131.432304 76.776154  L 131.473639 76.861384  L 131.824985 76.282802  L 132.031659 75.912257  L 132.062661 75.965189  L 132.134997 75.87012  L 132.14533 75.928116  L 132.196999 75.885353  L 132.207333 75.839845  L 132.58968 75.103002  L 132.817022 74.647838  L 132.889358 74.565783  L 133.220037 73.67653  L 133.75739 71.190967  L 133.871061 69.063265  L 133.953731 63.802051  L 134.129404 31.535301  L 134.253408 37.299968  L 135.069772 86.023977  L 135.193777 86.234654  L 135.20411 86.206286  L 135.431452 85.725464  L 136.237482 83.862471  L 136.413155 83.482317  L 136.671498 82.96884  L 136.888506 82.432082  L 139.358264 78.033971  L 139.440934 78.011688  L 139.451268 77.95139  L 139.59594 77.732444  L 139.626941 77.749502  L 139.657942 77.66069  L 139.864616 77.313462  L 140.060957 77.201249  L 140.246964 76.808942  L 140.267631 76.820801  L 140.308966 76.718759  L 140.381302 76.698671  L 140.329633 76.638203  L 140.391636 76.638629  L 140.567309 76.364884  L 140.732648 76.084235  L 140.804984 75.91568  L 141.052994 75.535613  L 141.063327 75.54802  L 141.104662 75.428081  L 141.114996 75.444646  L 142.024363 74.273603  L 142.169035 73.97346  L 142.179369 73.97873  L 142.200036 73.891695  L 142.778724 71.784907  L 142.995732 68.433877  L 143.078402 61.75412  L 143.243741 31.867168  L 143.336745 35.404941  L 144.173776 85.823832  L 144.256446 86.071562  L 144.308114 85.983008  L 147.315225 79.681169  L 147.325559 79.687878  L 147.335893 79.715068  L 147.387561 79.603922  L 147.563235 79.326427  L 148.410599 78.147234  L 148.451934 78.149889  L 148.482935 78.094449  L 148.60694 77.956086  L 148.627607 78.00955  L 148.741278 77.87331  L 148.999621 77.461176  L 149.030622 77.37352  L 149.206296 77.041619  L 149.237297 77.071291  L 149.433637 76.783868  L 149.85732 76.25871  L 149.867653 76.283091  L 149.877987 76.298216  L 149.908988 76.212329  L 149.939989 76.21138  L 150.963027 74.929724  L 151.035363 74.8313  L 151.087032 74.813746  L 151.118033 74.893551  L 151.128367 74.835927  L 151.211036 74.895081  L 151.242038 74.8699  L 151.769057 73.979648  L 151.789725 73.984673  L 151.810392 73.889392  L 152.347745 71.890424  L 152.585421 68.104656  L 152.66809 60.597568  L 152.83343 31.756318  L 152.905766 34.276961  L 153.825467 85.889884  L 153.846134 85.877021  L 153.928804 85.850989  L 154.156146 85.29391  L 154.383487 84.794142  L 154.548827 84.385893  L 154.55916 84.419593  L 154.610829 84.25489  L 155.00351 83.265696  L 155.013844 83.274039  L 155.08618 83.191416  L 155.375524 82.533292  L 155.385858 82.536932  L 155.406525 82.462757  L 155.664868 81.861715  L 157.194258 79.271943  L 157.214925 79.285459  L 157.266594 79.224764  L 157.400932 78.969526  L 157.411266 78.98563  L 157.4216 79.006384  L 157.431933 78.956616  L 157.50427 78.951686  L 157.679943 78.679116  L 157.78328 78.671279  L 157.793614 78.650914  L 157.948619 78.350998  L 157.989954 78.273519  L 158.020955 78.281895  L 158.237963 77.869104  L 158.258631 77.878552  L 158.341301 77.831606  L 158.475639 77.645369  L 158.95099 77.090834  L 158.961323 77.147376  L 158.992325 77.17359  L 159.054327 77.139765  L 159.209333 76.954193  L 159.271335 76.84947  L 159.498677 76.61077  L 159.529678 76.642869  L 159.622681 76.629139  L 159.633015 76.61031  L 159.829356 76.201892  L 159.839689 76.207107  L 159.932693 76.104346  L 159.963694 76.119685  L 160.056697 76.074483  L 160.067031 76.086394  L 160.108366 75.980463  L 160.294373 75.799796  L 160.346041 75.872524  L 160.39771 75.760917  L 161.028067 75.111414  L 161.28641 74.601072  L 161.307077 74.619995  L 161.40008 74.494584  L 161.544752 74.235326  L 161.627422 74.054126  L 162.164775 72.323549  L 162.392117 69.904161  L 162.505788 64.49816  L 162.619459 37.682494  L 162.691795 31.369836  L 162.753797 32.957374  L 162.960472 48.134426  L 163.301484 64.850965  L 163.7355 85.9662  L 165.140886 82.935573  L 165.151219 82.958476  L 165.275224 82.635229  L 165.450897 82.231189  L 165.461231 82.244911  L 165.502566 82.131193  L 165.957249 81.220288  L 165.967583 81.229248  L 165.977917 81.244736  L 166.029585 81.123737  L 166.308596 80.591533  L 166.380932 80.474839  L 166.649608 79.995013  L 166.711611 79.991259  L 166.690943 79.957097  L 166.732278 79.940918  L 166.897617 79.702042  L 166.95962 79.631141  L 167.011288 79.677575  L 167.073291 79.549301  L 167.455638 78.827893  L 167.558975 78.712492  L 167.713981 78.485466  L 168.530345 77.585586  L 168.68535 77.379846  L 168.716351 77.431673  L 169.543049 76.717584  L 169.749723 76.499188  L 169.811725 76.534023  L 169.85306 76.45596  L 169.977065 76.295287  L 170.101069 76.048687  L 170.121737 76.070452  L 170.359412 75.770955  L 170.504084 75.562223  L 170.524752 75.618023  L 170.648756 75.529677  L 170.82443 75.259455  L 170.834763 75.275008  L 170.876098 75.316856  L 170.927767 75.25131  L 171.082772 74.922523  L 171.54779 74.253827  L 171.568457 74.287852  L 171.589125 74.20953  L 171.651127 74.216092  L 171.733797 74.035531  L 171.868135 73.749993  L 171.878469 73.766514  L 171.899136 73.797932  L 171.940471 73.689633  L 171.950805 73.696318  L 172.167813 73.331434  L 172.240149 73.119494  L 172.694832 69.978817  L 172.798169 66.254814  L 172.880839 52.942316  L 173.015177 31.795338  L 173.056512 32.60389  L 173.201184 42.73941  L 173.511196 60.50076  L 173.676535 71.353718  L 173.903877 85.240516  L 174.027881 85.721523  L 174.058883 85.696237  L 175.784613 81.910332  L 175.794947 81.950057  L 175.867283 81.800103  L 176.538974 80.577563  L 176.828319 80.152892  L 176.993658 79.91786  L 177.003992 79.922864  L 177.014325 79.858059  L 177.034993 79.852896  L 177.169331 79.712219  L 177.179665 79.738447  L 177.655016 79.08181  L 177.675683 79.103079  L 177.799688 78.925864  L 177.923692 78.774797  L 177.934026 78.800819  L 178.512714 77.983012  L 178.616051 77.785097  L 178.729722 77.730496  L 178.760723 77.75774  L 178.884728 77.699451  L 179.019066 77.614705  L 179.360079 77.247129  L 179.39108 77.281223  L 179.422081 77.286004  L 179.442749 77.193164  L 179.453082 77.1952  L 179.732093 76.850316  L 179.897432 76.55351  L 179.907766 76.566403  L 180.910136 75.685822  L 180.992806 75.59436  L 181.261483 75.296083  L 181.271816 75.301743  L 181.36482 75.311926  L 181.509492 75.031673  L 181.519826 75.035618  L 181.633497 74.93631  L 181.788502 74.791744  L 181.80917 74.823232  L 181.819503 74.855443  L 181.881506 74.722672  L 182.666868 73.452449  L 183.204221 71.505362  L 183.421229 67.476952  L 183.503899 58.471002  L 183.658905 31.914892  L 183.720907 33.504003  L 184.309929 70.520014  L 184.547604 85.061635  L 184.70261 85.616461  L 184.712944 85.578422  L 187.172368 80.374721  L 187.182702 80.383044  L 187.234371 80.299632  L 187.410044 80.036311  L 187.441045 80.065267  L 187.451379 80.079655  L 187.492714 79.980993  L 187.503047 79.987484  L 187.76139 79.545223  L 187.833726 79.437986  L 187.988732 79.216349  L 188.247075 78.921493  L 188.443415 78.509468  L 188.515751 78.552257  L 188.526085 78.564242  L 188.577754 78.461858  L 188.598421 78.480201  L 188.701758 78.454817  L 188.722426 78.456457  L 188.753427 78.386963  L 188.774094 78.371326  L 188.939434 78.125402  L 189.662794 77.366919  L 189.683461 77.40949  L 189.745464 77.435843  L 189.786798 77.368838  L 189.797132 77.381047  L 189.859135 77.293676  L 189.869468 77.313554  L 190.024474 77.149367  L 190.117477 77.11453  L 190.169146 76.97442  L 190.231148 77.095392  L 190.448156 76.664048  L 190.489491 76.696379  L 190.592828 76.584247  L 190.654831 76.524871  L 190.706499 76.566542  L 190.809836 76.456665  L 190.975176 76.195742  L 190.98551 76.212133  L 191.026844 76.252573  L 191.088847 76.194554  L 191.254186 76.012424  L 191.274854 76.036056  L 191.295521 76.100943  L 191.367857 76.013379  L 191.388524 76.069519  L 192.163553 75.288987  L 192.173887 75.327268  L 192.256557 75.308518  L 192.26689 75.272386  L 192.401229 75.08531  L 192.421896 75.104056  L 192.483898 74.979504  L 192.556234 75.014966  L 192.566568 75.017892  L 192.587236 74.925067  L 192.783576 74.617067  L 192.79391 74.636907  L 192.824911 74.534215  L 192.845578 74.532605  L 193.031585 74.368582  L 193.07292 74.378842  L 193.103921 74.31483  L 193.982287 71.763593  L 194.15796 69.570828  L 194.261298 64.856202  L 194.354301 45.172686  L 194.467972 31.657372  L 194.509307 32.640792  L 194.653979 43.041434  L 194.974324 61.275849  L 195.139663 73.16589  L 195.346338 84.954568  L 195.511677 85.564626  L 196.958397 82.320473  L 197.123737 82.005458  L 197.134071 82.03002  L 197.21674 81.976287  L 197.526752 81.325135  L 197.537086 81.341456  L 197.640423 81.142762  L 197.888432 80.522841  L 197.909099 80.531363  L 198.053771 80.423945  L 198.425785 79.748794  L 199.159479 78.919727  L 199.200814 78.95944  L 199.252482 78.863463  L 199.428156 78.639219  L 199.438489 78.672308  L 199.91384 78.150328  L 199.944841 78.210667  L 199.955175 78.230559  L 200.006844 78.112022  L 200.017177 78.123892  L 200.120515 78.060362  L 200.265187 77.97004  L 200.285854 77.990898  L 200.327189 77.899315  L 200.337523 77.909543  L 200.533863 77.573391  L 200.595865 77.478602  L 200.80254 77.295321  L 200.823207 77.369017  L 200.905877 77.299514  L 201.267557 76.7184  L 201.401895 76.789769  L 202.259594 76.088257  L 202.311262 76.030855  L 202.373265 76.073778  L 202.559272 75.819351  L 202.393932 76.080941  L 202.569605 75.830692  L 202.765946 75.787859  L 202.920952 75.624371  L 202.941619 75.648749  L 203.375635 75.408221  L 203.385969 75.430092  L 203.458305 75.334752  L 203.633978 75.223276  L 204.129996 74.805673  L 204.171331 74.862041  L 204.30567 74.685547  L 204.481343 74.465556  L 204.522678 74.530414  L 204.553679 74.567053  L 204.595014 74.477598  L 204.605347 74.519863  L 204.739686 74.301538  L 204.781021 74.225177  L 204.853357 74.240833  L 204.894691 74.203151  L 204.915359 74.148892  L 205.22537 73.620488  L 205.30804 73.519872  L 205.556049 72.674641  L 205.566383 72.688509  L 205.607718 72.572089  L 205.990065 69.453082  L 206.103736 63.795021  L 206.300077 31.971121  L 206.424081 37.824732  L 206.83743 63.171331  L 206.971768 74.118532  L 207.168109 84.588012  L 207.302447 85.227495  L 207.333448 85.154824  L 207.457453 85.046823  L 207.798466 84.205034  L 209.937545 80.042956  L 210.040882 79.925312  L 210.185554 79.702425  L 210.195888 79.729627  L 210.25789 79.622227  L 210.268224 79.620449  L 210.464564 79.309368  L 210.764242 78.904672  L 210.960583 78.599761  L 210.970916 78.609929  L 210.991584 78.621939  L 211.032919 78.524223  L 211.208592 78.316503  L 211.559938 78.071552  L 211.756279 77.717658  L 211.900951 77.516901  L 211.942286 77.542898  L 211.952619 77.576533  L 212.004288 77.43396  L 212.014622 77.435025  L 212.179961 77.315774  L 212.345301 77.261151  L 212.613977 77.068593  L 212.758649 76.934597  L 212.975657 76.614882  L 212.996325 76.64822  L 213.03766 76.528939  L 213.182332 76.487707  L 213.202999 76.525051  L 213.275335 76.457634  L 213.575013 76.214571  L 213.585347 76.228564  L 213.606014 76.156535  L 213.647349 76.126549  L 213.771353 76.064348  L 213.812688 76.12055  L 213.874691 76.029228  L 213.978028 75.895281  L 214.112366 75.813879  L 214.1227 75.827135  L 214.164035 75.834949  L 214.20537 75.772435  L 214.412044 75.65031  L 214.422378 75.67811  L 214.432711 75.684762  L 214.474046 75.592611  L 214.48438 75.59143  L 214.660053 75.456865  L 214.670387 75.475604  L 214.711722 75.374628  L 214.732389 75.368018  L 214.980398 75.05426  L 214.990732 75.064255  L 215.032067 75.083561  L 215.073402 75.000798  L 215.094069 75.039728  L 215.414414 74.708415  L 215.466083 74.711459  L 215.48675 74.651945  L 215.610755 74.463436  L 215.631422 74.516433  L 215.662424 74.566676  L 215.703758 74.462337  L 215.941434 74.052128  L 216.282446 73.544105  L 216.571791 72.943499  L 216.73713 72.323421  L 216.995473 70.072874  L 217.109144 66.255184  L 217.191813 53.687674  L 217.336486 31.836205  L 217.37782 32.763112  L 217.553494 46.023895  L 217.863505 62.530207  L 218.028844 76.383127  L 218.214851 84.816428  L 218.369857 85.328371  L 218.431859 85.241875  L 218.597199 84.868101  L 218.607533 84.886614  L 218.638534 84.809653  L 218.690202 84.821083  L 219.992251 81.808633  L 220.012918 81.842197  L 220.064587 81.752535  L 220.271261 81.293047  L 220.291928 81.341797  L 220.353931 81.22368  L 220.488269 81.030034  L 220.694943 80.552837  L 220.705277 80.587399  L 220.767279 80.458109  L 220.777613 80.459296  L 221.821318 79.048373  L 222.68935 78.225541  L 222.699684 78.245635  L 222.730685 78.290468  L 222.803021 78.209057  L 222.896025 78.131947  L 223.082032 77.883576  L 223.102699 77.832604  L 223.206036 77.818372  L 223.381709 77.68004  L 223.49538 77.577309  L 223.516048 77.612199  L 223.547049 77.648378  L 223.57805 77.556323  L 223.588384 77.558424  L 223.826059 77.213382  L 223.93973 77.308164  L 223.960398 77.282904  L 224.053401 77.286231  L 224.012066 77.249769  L 224.063735 77.244754  L 224.198073 77.202132  L 224.363412 76.961192  L 224.38408 77.017004  L 224.46675 76.947739  L 224.611422 76.769706  L 224.797429 76.593058  L 224.838763 76.668929  L 224.962768 76.576245  L 225.19011 76.176366  L 225.252112 76.087269  L 225.448453 75.881319  L 225.55179 75.835832  L 225.789465 75.59965  L 225.799799 75.633913  L 225.8308 75.528039  L 225.882469 75.572039  L 226.006473 75.465195  L 226.120144 75.510334  L 226.130478 75.480535  L 226.254482 75.306438  L 226.461157 75.045599  L 226.502492 75.003872  L 226.512825 74.978364  L 226.63683 74.85576  L 226.647164 74.859664  L 226.957175 74.629084  L 226.967509 74.666036  L 227.008844 74.68236  L 227.050179 74.591907  L 227.205184 74.418394  L 227.587532 73.889897  L 227.876876 73.321074  L 228.176554 72.763931  L 228.507233 71.19577  L 228.662238 68.719522  L 228.755242 62.743175  L 228.941249 31.927454  L 229.044586 36.106272  L 229.77828 84.004847  L 229.922952 85.16696  L 229.953953 85.13284  L 230.005621 85.130224  L 230.046956 85.072379  L 230.253631 84.705128  L 230.429304 84.113599  L 230.894321 83.13273  L 231.069994 82.683329  L 231.080328 82.702371  L 231.121663 82.547175  L 231.152664 82.472391  L 231.214666 82.50121  L 231.483343 81.890971  L 231.514344 81.893391  L 231.524678 81.836763  L 231.545345 81.849468  L 231.721018 81.497576  L 231.741686 81.570459  L 231.814022 81.388103  L 232.062031 80.914069  L 232.082698 80.933531  L 233.012733 79.529488  L 234.945138 77.521503  L 235.048475 77.556716  L 235.058809 77.47742  L 235.265483 77.245756  L 235.275817 77.263097  L 235.389487 77.382452  L 235.317151 77.242438  L 235.399821 77.354552  L 235.544493 77.262161  L 235.554827 77.275342  L 235.585828 77.165876  L 235.616829 77.20138  L 235.802836 77.010701  L 235.81317 77.018981  L 235.916507 76.925008  L 236.050845 76.863678  L 236.061179 76.895998  L 236.123181 76.922591  L 236.143849 76.81288  L 236.25752 76.770274  L 236.412525 76.644166  L 236.45386 76.630954  L 236.495195 76.578171  L 236.577865 76.442845  L 236.660535 76.327008  L 236.722537 76.346434  L 236.836208 76.327254  L 236.991213 76.147694  L 237.011881 76.16226  L 237.084217 76.200981  L 237.125552 76.129854  L 237.311559 75.821987  L 237.363227 75.874125  L 237.414896 75.789099  L 237.528567 75.75373  L 237.5389 75.712226  L 237.662905 75.715981  L 237.673239 75.740606  L 237.78691 75.873999  L 237.817911 75.854253  L 237.921248 75.726839  L 237.952249 75.79668  L 238.045253 75.828873  L 238.014251 75.772192  L 238.06592 75.809612  L 238.479269 75.567771  L 238.623941 75.358355  L 239.23363 74.849004  L 239.254297 74.889938  L 239.274965 74.885312  L 239.305966 74.799893  L 239.481639 74.62254  L 239.667646 74.393046  L 239.822652 74.211838  L 239.967324 74.033292  L 239.998325 74.049695  L 240.008659 74.061745  L 240.029326 73.994714  L 240.091328 73.988491  L 240.525344 73.438388  L 240.628682 73.423084  L 240.639015 73.38566  L 240.773354 73.016004  L 241.310707 69.551313  L 241.414044 65.410155  L 241.507047 48.874191  L 241.641386 32.012496  L 241.672387 32.684549  L 241.796391 41.386866  L 242.12707 61.644554  L 242.282076 72.417329  L 242.499084 84.361897  L 242.612755 84.94395  L 242.643756 84.917514  L 243.811466 82.359727  L 243.945804 82.054189  L 243.956138 82.086643  L 244.131811 81.795315  L 244.193814 81.710672  L 244.452156 81.14641  L 244.534826 80.947434  L 244.710499 80.707488  L 244.720833 80.720003  L 244.865505 80.540624  L 245.144515 79.995606  L 245.154849 80.037178  L 245.227185 79.890969  L 245.289187 79.76792  L 245.588865 79.284878  L 245.599199 79.319091  L 245.6302 79.268481  L 245.681869 79.254217  L 245.836874 79.173748  L 245.960879 78.869666  L 246.053882 78.663108  L 246.095217 78.697758  L 246.167553 78.74692  L 246.208888 78.717128  L 246.735908 78.070888  L 246.756575 78.099344  L 246.777243 78.107376  L 246.787576 78.038667  L 246.828911 78.026943  L 246.952916 77.913623  L 246.963249 77.922559  L 247.066587 77.83327  L 247.190591 77.657619  L 247.200925 77.686687  L 247.262927 77.728533  L 247.314596 77.676048  L 247.80028 77.330356  L 247.810614 77.351109  L 248.037956 77.189058  L 248.141293 77.030229  L 248.161961 77.078812  L 248.657979 76.624685  L 248.740649 76.555392  L 248.77165 76.616873  L 248.864653 76.707179  L 248.895654 76.631974  L 249.060994 76.406484  L 249.091995 76.433328  L 249.49501 76.183601  L 249.505344 76.200796  L 249.515677 76.254946  L 249.588013 76.126302  L 249.598347 76.124775  L 249.743019 75.990482  L 249.867024 75.919957  L 249.960027 75.819663  L 250.073698 75.71094  L 250.084032 75.718048  L 250.104699 75.741087  L 250.146034 75.647084  L 250.177035 75.680208  L 250.290706 75.486982  L 250.332041 75.536016  L 250.342375 75.567695  L 250.383709 75.482328  L 250.425044 75.498218  L 250.631719 75.427288  L 250.673054 75.379657  L 250.74539 75.415172  L 250.993399 75.205109  L 251.158738 75.08879  L 251.169072 75.128618  L 251.231074 75.021745  L 251.251742 75.033322  L 251.375746 74.857699  L 251.38608 74.881505  L 251.572087 74.674063  L 252.667461 72.965481  L 252.894802 72.134763  L 252.99814 71.560305  L 253.184147 68.990752  L 253.27715 63.939658  L 253.483824 31.73842  L 253.597495 37.437733  L 254.021178 63.375393  L 254.155516 74.494272  L 254.351856 84.483712  L 254.475861 85.057252  L 254.496528 85.036984  L 254.785873 84.599547  L 254.961546 84.12072  L 255.033882 83.987247  L 255.271557 83.410733  L 255.333559 83.303398  L 255.44723 82.975938  L 255.757242 82.270993  L 255.777909 82.298362  L 255.829578 82.201584  L 255.839912 82.216251  L 257.234963 79.658648  L 257.265964 79.716778  L 257.317633 79.620296  L 257.462305 79.418516  L 257.637978 79.188237  L 257.854986 78.987623  L 257.875654 79.012572  L 257.916988 79.005356  L 257.94799 78.945558  L 258.75402 78.076826  L 258.857357 78.107465  L 259.012362 77.942172  L 259.022696 77.963097  L 259.074365 77.88972  L 259.105366 77.902587  L 259.208703 77.857313  L 259.219037 77.86361  L 259.22937 77.876647  L 259.270705 77.778128  L 259.291373 77.786613  L 259.405044 77.602552  L 259.446378 77.646052  L 259.735723 77.401272  L 259.849393 77.323563  L 260.025067 77.271942  L 260.0354 77.286471  L 260.128404 77.367894  L 260.169739 77.344477  L 260.262742 77.306971  L 260.20074 77.370913  L 260.293743 77.341379  L 260.314411 77.368395  L 260.366079 77.286533  L 260.469416 77.12151  L 260.521085 77.153498  L 260.603755 77.2767  L 260.64509 77.193259  L 260.851764 76.894364  L 260.862098 76.913331  L 260.913766 76.967488  L 260.986102 76.909742  L 261.234111 76.801697  L 261.358116 76.736605  L 262.381154 76.314841  L 262.474157 76.238865  L 262.494825 76.251024  L 262.505158 76.275051  L 262.567161 76.163389  L 262.587828 76.198964  L 262.711833 76.131092  L 263.001177 75.874146  L 263.021844 75.891946  L 263.280187 76.113564  L 263.311188 76.019115  L 263.445527 75.834341  L 263.45586 75.851466  L 263.858875 75.748947  L 264.106884 75.434365  L 264.117218 75.449457  L 264.189554 75.485263  L 264.168887 75.409882  L 264.220555 75.433408  L 264.272224 75.419149  L 264.313559 75.451882  L 264.323892 75.478919  L 264.385895 75.41654  L 264.396228 75.432956  L 264.520233 75.313978  L 264.747575 75.222544  L 264.974917 74.874021  L 264.98525 74.904467  L 265.047253 74.78273  L 265.057586 74.780997  L 265.243593 74.592843  L 265.253927 74.605222  L 265.336597 74.660818  L 265.357264 74.578371  L 265.470935 74.439841  L 265.481269 74.464537  L 265.70861 74.374659  L 265.760279 74.3417  L 265.915285 74.045055  L 266.173628 73.603478  L 266.369968 73.232457  L 266.442304 72.990591  L 266.969324 69.891535  L 267.072661 66.710881  L 267.155331 56.040553  L 267.310336 31.532703  L 267.351671 32.200205  L 267.48601 41.780717  L 267.806355 61.244469  L 267.982028 73.666303  L 268.188702 84.316907  L 268.312707 84.959448  L 268.385043 84.912186  L 268.395377 84.919616  L 268.416044 84.80039  L 268.674387 84.202032  L 268.798392 83.891568  L 269.118737 83.091166  L 269.139404 83.107072  L 269.180739 83.009004  L 269.408081 82.566983  L 271.10281 79.526128  L 271.195814 79.455306  L 271.299151 79.341483  L 271.319818 79.397599  L 271.381821 79.432378  L 271.423155 79.356421  L 271.588495 79.038917  L 271.598829 79.057056  L 271.650497 78.923834  L 271.681498 78.943012  L 271.867505 78.631905  L 271.939841 78.657179  L 271.960509 78.575409  L 272.167183 78.27427  L 272.177517 78.285611  L 272.218852 78.333208  L 272.27052 78.220412  L 272.776872 77.673764  L 272.952545 77.40366  L 273.128219 77.265443  L 273.15922 77.321416  L 273.231556 77.249139  L 273.35556 77.248589  L 273.43823 77.124307  L 273.479565 77.178047  L 273.500232 77.210749  L 273.5209 77.13311  L 273.582902 77.153346  L 274.027252 77.099023  L 274.058253 77.107289  L 274.099588 77.0448  L 274.120255 77.050023  L 274.275261 76.927955  L 274.285595 76.956178  L 274.295928 76.984424  L 274.32693 76.916702  L 274.388932 76.915734  L 274.481935 76.821034  L 274.512936 76.890992  L 274.574939 76.852196  L 274.60594 76.944269  L 274.709277 76.891228  L 274.822948 76.803661  L 274.998621 76.577895  L 275.070957 76.594995  L 275.039956 76.511458  L 275.101958 76.549511  L 275.153627 76.500239  L 275.215629 76.552614  L 275.298299 76.643996  L 275.339634 76.527899  L 275.432637 76.43361  L 275.463638 76.49265  L 275.763316 76.127116  L 275.77365 76.133221  L 275.980324 76.076027  L 276.000992 76.11474  L 276.011325 76.147014  L 276.073328 76.00351  L 276.155997 75.942639  L 276.290336 75.829538  L 276.300669 75.850913  L 276.331671 75.87608  L 276.373005 75.780314  L 276.383339 75.779339  L 276.57968 75.784502  L 276.621015 75.825448  L 276.672683 75.73606  L 276.734685 75.827456  L 276.786354 75.915237  L 276.848356 75.79534  L 276.85869 75.753262  L 276.951693 75.815224  L 276.972361 75.837046  L 277.013696 75.685268  L 277.22037 75.407615  L 277.344375 75.309292  L 277.375376 75.365964  L 277.509714 75.39472  L 277.520048 75.359481  L 277.644052 75.274924  L 277.66472 75.295157  L 277.695721 75.299501  L 277.726722 75.218256  L 277.737056 75.220092  L 277.799058 75.282748  L 277.850727 75.219419  L 277.995399 75.337441  L 278.202073 75.210543  L 278.326078 75.21508  L 278.336411 75.151607  L 278.419081 75.00174  L 278.460416 75.022236  L 278.481083 75.046462  L 278.512085 74.975991  L 278.553419 74.99148  L 278.66709 74.897216  L 278.687758 74.943691  L 278.739426 75.00318  L 278.791095 74.926719  L 278.935767 74.714894  L 278.946101 74.718771  L 279.163109 74.749158  L 279.27678 74.81162  L 279.297447 74.788343  L 279.483454 74.625849  L 279.493788 74.640052  L 279.607459 74.612757  L 279.617792 74.575236  L 279.710796 74.60279  L 279.772798 74.675446  L 279.803799 74.565909  L 279.824467 74.608681  L 280.103477 74.490786  L 280.124144 74.584325  L 280.258483 74.651391  L 280.392821 74.413832  L 280.403155 74.450913  L 280.578828 74.382962  L 280.682165 74.248989  L 280.837171 74.090639  L 280.847504 74.106911  L 280.971509 74.096071  L 281.126515 73.86661  L 281.147182 73.880267  L 281.209185 73.778053  L 281.343523 73.665072  L 281.415859 73.584719  L 281.994547 72.096138  L 282.128885 71.356607  L 282.345893 67.887268  L 282.438897 59.832722  L 282.624904 32.108649  L 282.676572 33.642468  L 282.89358 51.326083  L 283.451601 83.42602  L 283.627274 84.342339  L 283.916618 83.824412  L 284.050956 83.57962  L 284.309299 82.850849  L 284.319633 82.858014  L 284.381635 82.752827  L 284.598643 82.238423  L 284.918989 81.655998  L 285.353005 80.729901  L 285.363338 80.760297  L 286.014362 79.652067  L 286.03503 79.673624  L 286.066031 79.736621  L 286.128033 79.654382  L 286.272705 79.454648  L 286.541382 79.141997  L 286.551716 79.202945  L 286.613718 79.021222  L 286.624052 79.025722  L 286.789391 78.878998  L 286.923729 78.721536  L 286.934063 78.741406  L 287.709092 77.862834  L 287.719426 77.887374  L 287.895099 77.852928  L 288.070772 77.708044  L 288.194777 77.667802  L 288.391117 77.458877  L 288.515122 77.346192  L 288.866468 76.977141  L 288.907803 77.01796  L 288.959472 76.944711  L 289.145478 76.723531  L 289.17648 76.788539  L 289.341819 76.786655  L 289.352153 76.82549  L 289.465824 76.960346  L 289.476157 76.949968  L 289.579495 76.942735  L 289.527826 76.9808  L 289.589828 76.961407  L 289.662164 77.011893  L 289.672498 77.034399  L 289.713833 77.061533  L 289.744834 76.988248  L 289.765501 77.022292  L 289.889506 76.909126  L 289.89984 76.916263  L 290.147849 76.712322  L 290.251186 76.537978  L 290.302855 76.601399  L 290.323522 76.628615  L 290.633534 76.312447  L 290.747204 76.330939  L 290.674868 76.269674  L 290.757538 76.32417  L 291.294891 76.087707  L 291.305225 76.050633  L 291.34656 76.119091  L 291.398229 76.103022  L 291.408562 76.112597  L 291.439563 75.996827  L 291.966583 75.896157  L 292.111255 75.777283  L 292.359264 75.919805  L 292.534937 75.753552  L 292.576272 75.762182  L 292.607273 75.690431  L 292.762279 75.557484  L 292.772613 75.586036  L 292.886284 75.540712  L 293.433971 75.269009  L 293.444304 75.306093  L 293.475305 75.237714  L 293.537308 75.2556  L 293.795651 75.009886  L 293.950656 74.85479  L 293.981658 74.901916  L 294.136663 74.789545  L 294.260668 74.825491  L 294.291669 74.87362  L 294.426007 74.703903  L 294.498343 74.760916  L 294.529345 74.712865  L 294.715351 74.559168  L 294.808355 74.545643  L 294.973694 74.364902  L 295.728056 73.809754  L 295.914062 73.530887  L 296.120737 73.018382  L 296.461749 71.970986  L 296.616755 70.748769  L 296.74076 68.535638  L 296.833763 62.735277  L 297.040438 31.736053  L 297.133441 36.097325  L 297.836134 83.416441  L 298.001473 84.79524  L 298.022141 84.783573  L 298.166813 84.61004  L 298.352819 84.38641  L 298.394154 84.333106  L 298.580161 83.772197  L 299.964879 81.520781  L 300.099217 81.434219  L 300.243889 81.212957  L 300.574568 80.925024  L 300.729574 80.678373  L 300.853579 80.753449  L 300.874246 80.742755  L 301.349597 80.833558  L 301.359931 80.803604  L 301.421933 80.889024  L 301.452934 80.867596  L 301.659609 80.762997  L 301.69061 80.820111  L 301.773279 80.794198  L 301.721611 80.788477  L 301.793947 80.771566  L 302.165961 80.748291  L 302.176294 80.71791  L 302.24863 80.812269  L 302.320966 80.832845  L 302.351968 80.777768  L 302.372635 80.753943  L 302.41397 80.878748  L 302.537974 80.925973  L 302.434637 80.84687  L 302.548308 80.891976  L 302.723981 80.9788  L 302.889321 81.131855  L 303.044327 81.348662  L 303.095995 81.334674  L 303.13733 81.404717  L 303.674683 81.651286  L 303.798688 81.72135  L 303.840023 81.719538  L 303.871024 81.812419  L 303.995028 81.949644  L 304.015696 81.92876  L 304.429045 82.460954  L 304.553049 82.516771  L 304.739056 82.679988  L 304.74939 82.656614  L 304.811392 82.76267  L 304.821726 82.748229  L 305.049067 83.006096  L 305.080069 82.969707  L 305.142071 82.991846  L 305.11107 83.005964  L 305.152405 83.036002  L 305.276409 83.322693  L 305.421081 83.464157  L 305.462416 83.429144  L 305.503751 83.516006  L 305.514085 83.505714  L 305.679424 83.578529  L 305.689758 83.566396  L 305.710425 83.535118  L 305.772428 83.634188  L 305.9171 83.731129  L 306.041104 83.680524  L 306.051438 83.695558  L 306.19611 83.830782  L 306.216777 83.793894  L 306.320115 83.931972  L 306.537123 84.131649  L 306.650793 84.173323  L 306.888469 84.380829  L 306.898803 84.373054  L 306.940138 84.47049  L 307.095143 84.6116  L 306.991806 84.420436  L 307.105477 84.577879  L 307.64283 85.248597  L 307.653164 85.227965  L 307.694499 85.293782  L 307.735834 85.3085  L 308.738204 86.370261  L 308.820874 86.334186  L 308.779539 86.385243  L 308.841541 86.372543  L 309.027548 86.73527  L 309.33756 86.985035  L 309.048216 86.712259  L 309.347893 86.961564  L 309.523567 86.99106  L 309.781909 87.324078  L 309.89558 87.4075  L 309.988584 87.530866  L 310.019585 87.496056  L 310.029919 87.478915  L 310.091921 87.584839  L 310.205592 87.689009  L 310.226259 87.647449  L 310.236593 87.608829  L 310.298595 87.761755  L 310.308929 87.756335  L 310.639608 88.139848  L 310.670609 88.116437  L 310.70161 88.19253  L 310.722278 88.188374  L 310.908284 88.503818  L 310.918618 88.484418  L 310.939286 88.55328  L 310.98062 88.567644  L 311.094291 88.63083  L 311.104625 88.604111  L 311.311299 88.719682  L 311.455971 88.935865  L 311.776317 89.317779  L 312.086328 89.719194  L 312.231 89.697139  L 312.241334 89.712922  L 312.468676 89.926026  L 312.572013 89.981386  L 312.644349 90.098519  L 312.799355 90.182016  L 312.809688 90.161064  L 313.016363 90.208245  L 313.243704 90.221763  L 313.491713 90.560378  L 313.512381 90.550642  L 313.56405 90.557628  L 313.584717 90.603649  L 313.595051 90.607432  L 313.739723 90.745556  L 313.76039 90.727803  L 313.770724 90.708898  L 313.822392 90.778858  L 313.832726 90.769527  L 313.946397 90.79847  L 313.956731 90.78052  L 313.998066 90.86302  L 314.029067 90.870486  L 314.318411 90.977246  L 314.48375 91.261393  L 314.504418 91.220489  L 314.56642 91.320285  L 314.597421 91.276781  L 315.114107 91.851224  L 315.248445 91.965592  L 315.269113 92.046905  L 315.341449 91.924006  L 315.351782 91.910209  L 315.413785 92.010219  L 315.517122 92.117721  L 315.610125 92.18565  L 315.630793 92.147448  L 315.73413 92.130046  L 315.703129 92.184347  L 315.744464 92.144326  L 315.765131 92.106876  L 316.147479 92.389799  L 316.261149 92.262295  L 316.281817 92.306827  L 316.37482 92.412162  L 316.581495 92.741787  L 316.622829 92.726723  L 316.664164 92.81531  L 317.170516 92.970158  L 317.304855 93.112339  L 317.583865 93.447827  L 317.656201 93.342988  L 317.759538 93.229411  L 317.790539 93.291302  L 317.893877 93.389662  L 317.90421 93.349653  L 317.914544 93.345554  L 317.945545 93.432368  L 318.121218 93.622557  L 318.131552 93.612784  L 318.338226 93.731196  L 318.358894 93.683599  L 318.43123 93.615729  L 318.472565 93.667044  L 318.575902 93.584716  L 318.720574 93.533611  L 318.958249 93.578519  L 319.051253 93.599476  L 319.040919 93.631758  L 319.061586 93.618165  L 319.092588 93.653721  L 319.123589 93.560433  L 319.164924 93.599225  L 319.175257 93.562868  L 319.216592 93.680784  L 319.247593 93.687299  L 319.443934 93.844233  L 319.464601 93.773806  L 320.60131 93.852264  L 320.642645 93.846209  L 320.694314 93.910694  L 320.993991 93.952053  L 321.159331 93.951222  L 321.283335 94.061312  L 321.314337 94.005703  L 321.366005 94.088928  L 321.386673 94.078261  L 321.748353 94.038951  L 321.841356 93.923379  L 321.862024 93.973568  L 321.965361 94.040257  L 321.986028 94.018927  L 322.110033 93.884436  L 322.120366 93.892703  L 322.275372 93.975442  L 322.285706 93.954197  L 322.347708 94.043066  L 322.533715 94.155593  L 322.606051 94.085302  L 322.637052 94.155609  L 322.699055 94.166089  L 322.730056 94.101645  L 322.905729 93.969116  L 323.432748 94.270092  L 323.463749 94.188024  L 323.505084 94.221946  L 323.587754 94.166532  L 323.711759 94.221476  L 323.722092 94.193011  L 323.835763 94.103061  L 323.856431 94.133921  L 324.042438 94.368315  L 324.052771 94.3533  L 324.373117 94.456997  L 324.46612 94.513508  L 324.486787 94.446702  L 324.879469 94.291183  L 324.941471 94.343273  L 324.993139 94.314214  L 325.148145 94.422445  L 325.323818 94.250473  L 325.447823 94.279521  L 325.561494 94.119163  L 325.592495 94.130044  L 325.664831 94.065747  L 325.695832 94.121314  L 325.850838 94.359298  L 325.964509 94.285233  L 325.974842 94.308523  L 326.005844 94.339078  L 326.057512 94.231916  L 326.181517 94.110995  L 326.326189 94.013736  L 326.367524 94.073894  L 326.43986 94.131464  L 326.481195 94.057541  L 326.532863 94.005232  L 326.594865 94.055187  L 326.605199 94.066419  L 326.646534 93.996849  L 326.656868 93.994823  L 326.780872 93.934308  L 326.791206 93.953466  L 326.832541 93.867982  L 326.873876 93.907586  L 327.008214 93.872113  L 327.101218 93.918403  L 327.121885 93.887776  L 327.214888 94.000651  L 327.380228 94.123505  L 327.411229 94.078355  L 327.659238 93.947607  L 327.793577 93.939289  L 327.958916 94.053113  L 328.155257 93.974751  L 328.16559 94.018888  L 328.24826 94.099302  L 328.279261 94.052226  L 328.289595 94.032994  L 328.351597 94.145454  L 328.361931 94.131117  L 328.444601 94.11099  L 328.454934 94.058592  L 328.651275 93.951973  L 328.88895 94.073041  L 328.97162 93.967771  L 329.002621 94.066251  L 329.05429 94.122321  L 329.105958 94.047705  L 329.302299 93.892435  L 329.312633 93.910512  L 329.322966 93.931775  L 329.384969 93.870641  L 329.405636 93.86702  L 329.570976 93.667513  L 329.591643 93.708262  L 329.715648 93.782544  L 329.725981 93.752437  L 329.798317 93.621505  L 329.849986 93.661431  L 329.973991 93.727217  L 329.891321 93.610435  L 329.994658 93.712964  L 330.004992 93.688254  L 330.046327 93.769209  L 330.087661 93.751826  L 330.30467 94.02062  L 330.325337 93.996154  L 330.449342 93.947704  L 330.459675 93.975456  L 330.552679 94.010596  L 330.573346 93.944158  L 330.604347 93.879676  L 330.687017 93.9221  L 330.728352 93.827849  L 330.800688 93.903265  L 330.94536 93.942472  L 330.976361 93.877838  L 331.038363 93.770454  L 331.110699 93.834442  L 331.234704 93.913184  L 331.245038 93.908821  L 331.410377 93.790478  L 331.420711 93.817092  L 331.58605 93.856031  L 331.596384 93.844207  L 331.720389 93.803968  L 331.741056 93.825834  L 331.823726 93.80389  L 331.854727 93.903814  L 331.999399 94.023715  L 332.051068 93.95496  L 332.11307 93.942322  L 332.144071 94.022851  L 332.39208 94.025573  L 332.526418 94.18311  L 332.536752 94.167078  L 332.691758 94.227643  L 332.774428 94.277263  L 332.795095 94.193144  L 332.888099 94.245809  L 333.001769 94.339675  L 333.012103 94.329972  L 333.105107 94.258165  L 333.146441 94.298285  L 333.167109 94.31369  L 333.208444 94.234122  L 333.229111 94.227156  L 333.373783 94.030634  L 333.384117 94.058108  L 333.497788 94.184034  L 333.528789 94.147001  L 334.107477 94.503062  L 334.128144 94.462562  L 334.396821 94.128805  L 334.417489 94.152828  L 334.572494 94.279486  L 334.655164 94.259079  L 334.665498 94.214099  L 334.675831 94.193755  L 334.7275 94.286488  L 334.7275 94.286488  " style="fill:none;stroke:#000000;stroke-linecap:square;stroke-width:1.5;"/>
   </g>
   <g id="line2d_9">
    <path clip-path="url(#p33c4d136e2)" d="M 55.7275 80.120914  L 55.799836 80.182116  L 55.851505 80.133227  L 55.861838 80.068754  L 55.944508 80.186543  L 56.047845 80.208214  L 56.00651 80.141556  L 56.058179 80.179693  L 56.275187 80.019998  L 56.316522 80.047782  L 56.347523 79.943377  L 56.471528 79.814264  L 56.523196 79.890286  L 56.636867 79.878358  L 56.647201 79.860232  L 56.688536 79.901062  L 56.791873 79.733645  L 56.905544 79.708413  L 56.926211 79.737285  L 57.060549 79.790421  L 57.380895 79.606639  L 57.401562 79.642978  L 57.504899 79.709276  L 57.515233 79.696035  L 57.659905 79.663243  L 57.752908 79.715494  L 57.783909 79.69151  L 57.856246 79.554028  L 57.918248 79.636761  L 58.093921 79.650169  L 58.238593 79.771619  L 58.331596 79.737258  L 58.455601 79.642527  L 58.486602 79.57728  L 58.672609 79.712892  L 58.806947 79.683863  L 58.86895 79.726423  L 58.910285 79.686765  L 58.961953 79.628062  L 59.034289 79.66644  L 59.406303 79.748001  L 59.416637 79.717706  L 59.50964 79.775306  L 59.602644 79.80391  L 59.623311 79.777377  L 59.912655 79.944221  L 59.654312 79.736289  L 59.922989 79.869213  L 60.057327 79.806765  L 60.067661 79.813912  L 60.212333 79.761911  L 60.284669 79.645193  L 60.357005 79.722457  L 60.987361 79.390303  L 61.1217 79.292317  L 61.194036 79.323931  L 61.225037 79.291466  L 61.338708 79.233355  L 61.349042 79.249509  L 61.514381 79.245216  L 61.638386 79.143244  L 61.814059 79.085268  L 61.824392 79.114916  L 61.958731 79.220007  L 62.000066 79.182106  L 62.155071 79.061911  L 62.165405 79.082944  L 62.237741 79.166231  L 62.279076 79.102913  L 62.496084 79.142806  L 62.506418 79.167912  L 62.537419 79.100438  L 62.589087 79.116591  L 62.65109 79.154974  L 62.723426 79.041428  L 62.754427 79.10005  L 62.837097 79.031055  L 63.002436 79.078008  L 63.023104 79.04791  L 63.167776 79.019829  L 63.20911 79.050451  L 63.250445 78.967069  L 63.436452 78.657232  L 63.45712 78.61849  L 63.519122 78.71723  L 63.529456 78.687553  L 63.694795 78.824606  L 63.746464 78.84584  L 63.715463 78.810489  L 63.798132 78.783918  L 64.480158 79.026188  L 64.490491 79.047409  L 64.54216 78.947448  L 64.573161 78.992986  L 64.645497 79.024582  L 64.707499 78.909664  L 64.82117 78.937389  L 64.945175 78.852444  L 65.007177 78.888097  L 65.048512 78.826697  L 65.069179 78.798827  L 65.10018 78.910724  L 65.151849 79.003585  L 65.213851 78.918749  L 65.255186 78.98899  L 65.286187 78.964886  L 65.389525 79.070513  L 65.410192 79.031235  L 65.461861 78.984177  L 65.441193 79.051736  L 65.523863 79.008142  L 65.616866 79.035386  L 65.565198 78.977556  L 65.6272 78.986684  L 65.70987 78.933858  L 65.740871 78.983388  L 65.782206 79.015526  L 65.833874 78.926766  L 66.019881 78.746871  L 66.030215 78.762925  L 66.26789 78.651596  L 66.360894 78.613107  L 66.298892 78.678916  L 66.381561 78.67201  L 66.980917 78.813169  L 67.063587 78.761407  L 67.094588 78.78848  L 67.208259 78.82241  L 67.218592 78.782237  L 67.23926 78.870875  L 67.311596 78.8648  L 67.466601 78.797637  L 67.476935 78.767261  L 67.538937 78.871853  L 67.549271 78.861074  L 67.559605 78.890627  L 67.631941 78.806361  L 67.642275 78.807587  L 67.693943 78.771604  L 67.755945 78.838838  L 67.900618 78.964149  L 67.921285 78.94977  L 68.04529 78.921127  L 68.117626 79.016169  L 68.169294 78.947417  L 68.220963 78.881269  L 68.262298 78.893281  L 68.458638 78.699323  L 68.468972 78.707714  L 68.479306 78.754474  L 68.530974 78.636885  L 68.572309 78.666713  L 68.623978 78.583986  L 68.696314 78.656189  L 68.851319 78.449646  L 68.995991 78.358525  L 69.006325 78.416938  L 69.016659 78.447994  L 69.099329 78.345135  L 69.822689 78.440188  L 69.926026 78.325117  L 69.957027 78.358403  L 70.101699 78.414831  L 70.308373 78.287686  L 70.360042 78.338223  L 70.422044 78.290407  L 70.49438 78.151042  L 70.546049 78.204943  L 70.587384 78.247059  L 70.649386 78.149441  L 71.176406 77.994637  L 71.238408 78.032669  L 71.259075 77.967919  L 71.393414 77.769312  L 71.403747 77.81005  L 71.414081 77.843535  L 71.486417 77.733634  L 71.496751 77.73645  L 71.66209 77.86344  L 71.786095 77.662248  L 71.796428 77.685053  L 72.02377 77.530712  L 72.044438 77.568474  L 72.116774 77.572637  L 72.065105 77.550299  L 72.147775 77.546588  L 72.354449 77.56868  L 72.38545 77.510454  L 72.447453 77.615524  L 72.643793 77.491394  L 72.705795 77.349466  L 72.767798 77.393097  L 72.8298 77.316859  L 73.677165 77.098014  L 73.739167 77.022009  L 73.780502 77.124299  L 73.811503 77.144633  L 73.863172 77.057778  L 73.873505 77.092163  L 74.059512 76.919203  L 74.08018 76.953829  L 74.090513 76.966509  L 74.131848 76.886943  L 74.152516 76.879945  L 74.255853 76.780303  L 74.35919 76.717575  L 74.369524 76.72555  L 74.421192 76.873373  L 74.493528 76.813274  L 74.514196 76.849141  L 74.576198 76.783925  L 74.741538 76.586127  L 76.095254 75.67167  L 76.136589 75.699113  L 76.198592 75.630772  L 76.260594 75.576997  L 76.291595 75.668899  L 76.405266 75.732135  L 76.425933 75.697989  L 76.580939 75.582676  L 76.735945 75.35156  L 76.746278 75.360141  L 76.77728 75.410623  L 76.839282 75.301262  L 77.014955 75.124694  L 77.169961 75.01844  L 77.180295 75.047651  L 77.242297 74.946276  L 77.469639 74.622155  L 77.913988 73.705146  L 78.275668 71.969246  L 78.492676 68.372868  L 78.575346 61.423574  L 78.761353 29.253219  L 78.833689 31.331916  L 79.092032 50.534449  L 79.422711 63.672995  L 79.83606 79.594056  L 79.887728 79.584715  L 80.187406 78.989802  L 80.414748 78.292531  L 80.425081 78.311602  L 80.487084 78.222172  L 80.497417 78.219555  L 81.768464 74.919114  L 81.995806 74.305401  L 82.192147 73.721349  L 82.512492 72.491692  L 82.595162 71.936528  L 82.822504 68.773629  L 82.905173 63.724234  L 83.070513 36.258655  L 83.17385 41.307396  L 83.556197 59.72147  L 83.762872 70.160325  L 83.97988 81.01265  L 84.031548 81.15321  L 84.093551 81.008386  L 84.165887 80.863236  L 84.455231 79.916377  L 84.62057 79.308868  L 84.847912 78.589104  L 84.940915 78.289851  L 85.126922 77.743775  L 85.354264 76.955144  L 85.602273 76.114382  L 85.798614 75.384343  L 86.108625 74.154989  L 86.160294 74.075076  L 86.532308 72.319941  L 86.749316 69.694475  L 86.842319 65.409391  L 86.935323 44.604984  L 87.007659 36.096497  L 87.069661 37.999013  L 87.968694 82.278317  L 87.979028 82.22708  L 87.999695 82.278607  L 88.072031 82.143409  L 90.273113 73.867361  L 90.686461 70.605267  L 90.789799 67.510129  L 90.862135 57.720989  L 90.975805 35.315278  L 91.037808 37.216578  L 91.98851 83.426959  L 92.081513 83.238732  L 93.166553 79.248126  L 93.393895 78.382852  L 93.528233 77.810583  L 94.840615 71.549125  L 94.995621 67.978956  L 95.067957 59.013221  L 95.181628 34.478242  L 95.253964 36.574101  L 96.194332 84.445963  L 96.308003 84.253573  L 96.77302 82.728557  L 97.031363 81.810764  L 97.66172 79.465864  L 97.909729 78.559203  L 98.054401 77.880367  L 98.416081 76.477407  L 98.560753 75.977607  L 99.294447 71.972428  L 99.408118 70.456831  L 99.501121 66.800508  L 99.573457 51.802342  L 99.666461 33.559166  L 99.718129 34.771922  L 100.462157 71.582413  L 100.658497 85.19623  L 100.710166 85.360787  L 100.782502 85.275179  L 101.27852 83.760823  L 101.330189 83.619134  L 101.836541 81.900076  L 102.5289 79.321879  L 102.869913 78.014933  L 102.983584 77.642251  L 103.314262 76.412844  L 103.407266 76.158503  L 103.603607 75.394757  L 104.326967 70.629137  L 104.430304 66.52439  L 104.50264 49.959295  L 104.595643 32.830797  L 104.647312 34.200481  L 105.391339 71.344875  L 105.598014 85.836795  L 105.649682 85.965593  L 105.742686 85.925291  L 107.106736 81.647842  L 107.303077 81.042415  L 107.551086 80.118383  L 107.912766 78.859486  L 109.545493 72.410777  L 109.721166 69.718242  L 109.803836 64.442811  L 109.948508 32.306294  L 110.082846 37.613252  L 110.547864 59.167595  L 110.713203 67.333949  L 111.012881 86.38335  L 111.116218 86.311055  L 111.653571 84.783951  L 111.932582 83.958138  L 111.963583 83.953717  L 111.98425 83.866423  L 115.229037 73.32986  L 115.539049 70.161699  L 115.632052 65.329009  L 115.714722 41.750606  L 115.787058 32.011567  L 115.84906 33.59545  L 116.551753 68.518692  L 116.810096 86.558103  L 116.851431 86.676921  L 116.9341 86.585362  L 119.300521 80.01978  L 119.310855 80.032159  L 119.341856 79.931727  L 119.54853 79.229119  L 119.558864 79.234638  L 119.930878 78.134452  L 120.168553 77.467531  L 120.757575 75.705889  L 120.974583 75.008685  L 120.984917 75.036502  L 121.015918 74.922347  L 121.739278 71.386053  L 121.863283 68.418388  L 121.935619 60.397044  L 122.069957 31.803945  L 122.142293 34.15488  L 122.886321 79.031645  L 123.05166 86.528318  L 123.144664 86.799263  L 123.185998 86.728027  L 123.268668 86.573893  L 123.868024 85.06417  L 124.074698 84.477829  L 124.467379 83.48377  L 125.263075 81.358251  L 125.490417 80.685631  L 125.676424 80.183867  L 125.862431 79.662833  L 126.461786 78.087483  L 126.647793 77.587042  L 126.668461 77.603142  L 127.650164 75.06409  L 128.032511 74.015487  L 128.063512 73.927409  L 128.518196 71.303904  L 128.621533 69.352353  L 128.704203 63.606282  L 128.859209 31.740642  L 128.972879 36.370226  L 129.902914 86.724201  L 129.954582 86.767128  L 129.995917 86.694399  L 130.223259 86.044459  L 130.305929 85.890615  L 130.553938 85.300761  L 130.832948 84.477542  L 130.905284 84.31602  L 132.134997 81.182462  L 132.14533 81.187566  L 132.176331 81.138499  L 132.186665 81.092301  L 132.279669 80.732381  L 132.579346 79.94544  L 132.610348 79.955079  L 133.39571 78.099334  L 133.416377 78.123473  L 133.509381 77.854599  L 133.705721 77.375316  L 134.222407 76.100915  L 134.584087 75.163136  L 134.666757 75.073354  L 135.131774 73.769951  L 135.493454 71.787181  L 135.64846 69.126398  L 135.73113 62.566432  L 135.886136 31.648553  L 135.979139 35.242058  L 136.950508 86.880616  L 136.991843 86.824415  L 137.405192 85.782337  L 137.415525 85.787377  L 137.425859 85.805817  L 137.467194 85.698124  L 137.735871 84.947779  L 138.252556 83.742467  L 138.459231 83.208564  L 138.583235 82.95347  L 138.996584 81.797638  L 140.908322 77.290971  L 141.083995 76.939825  L 141.114996 76.978322  L 141.228667 76.664731  L 141.383672 76.476654  L 141.394006 76.498952  L 141.456008 76.370943  L 141.466342 76.375929  L 141.497343 76.289023  L 142.365375 74.460502  L 142.644386 73.496677  L 142.716722 73.294513  L 143.047401 71.252671  L 143.181739 68.342601  L 143.254075 61.574433  L 143.398747 31.76212  L 143.481417 34.387293  L 144.153108 75.675634  L 144.339115 86.344151  L 144.421785 86.707618  L 144.473454 86.620091  L 144.514788 86.520296  L 144.525122 86.532301  L 144.793799 85.979773  L 144.804132 85.988609  L 144.835134 85.91399  L 145.072809 85.239916  L 145.114144 85.150727  L 145.289817 84.738462  L 145.393154 84.481785  L 147.025881 80.604816  L 147.180887 80.186778  L 147.480565 79.498443  L 147.501232 79.503142  L 147.542567 79.415036  L 147.873246 78.610175  L 147.893914 78.660255  L 147.955916 78.49989  L 148.152256 78.143343  L 148.16259 78.157627  L 148.193591 78.022292  L 149.402636 75.538216  L 149.474972 75.480098  L 149.640312 75.244879  L 149.85732 74.852163  L 149.867653 74.866815  L 149.919322 74.756456  L 150.663349 71.873936  L 150.839023 68.93956  L 150.921692 62.708802  L 151.076698 31.671598  L 151.180035 35.60296  L 152.11007 86.727225  L 152.120403 86.725235  L 152.285743 86.383352  L 152.316744 86.335497  L 152.482084 85.946458  L 152.492417 85.97494  L 152.55442 85.828882  L 152.812762 85.114125  L 153.794465 82.748516  L 154.011473 82.212732  L 154.114811 82.079844  L 154.548827 81.008736  L 154.590162 80.925828  L 155.499529 78.9875  L 155.654534 78.627005  L 155.675202 78.637958  L 155.695869 78.664353  L 155.72687 78.549695  L 155.768205 78.580564  L 155.943878 78.252777  L 156.109218 77.935237  L 157.349264 75.640011  L 157.369931 75.653805  L 157.566272 75.444803  L 157.710944 75.180717  L 157.855616 74.855132  L 158.134626 74.297841  L 158.217296 74.234005  L 158.454971 73.647169  L 158.465305 73.652646  L 158.485973 73.564789  L 159.033659 70.722434  L 159.157664 67.088655  L 159.23 57.146192  L 159.364338 32.124285  L 159.416007 33.235655  L 160.03603 68.970351  L 160.294373 86.05082  L 160.408044 86.336775  L 160.439045 86.317115  L 160.707721 85.667874  L 160.84206 85.406804  L 161.017733 84.906804  L 161.048734 84.853449  L 161.214074 84.526169  L 161.741093 83.14576  L 161.761761 83.159971  L 161.854764 82.955737  L 162.28878 81.72438  L 162.309447 81.752774  L 162.350782 81.670051  L 162.381783 81.669155  L 162.557457 81.342907  L 162.950138 80.386736  L 163.167146 79.87024  L 163.37382 79.402266  L 163.384154 79.422612  L 163.404821 79.445688  L 163.435823 79.363682  L 163.45649 79.355173  L 164.169516 78.170973  L 164.293521 77.837382  L 164.324522 77.847625  L 165.399229 75.808314  L 165.554234 75.601107  L 165.605903 75.645916  L 165.647238 75.580001  L 165.812577 75.28176  L 166.732278 72.804099  L 167.052623 68.987792  L 167.135293 63.158835  L 167.300632 31.530128  L 167.403969 35.735759  L 168.282335 86.577838  L 168.334004 86.706216  L 168.396006 86.58654  L 168.747353 85.766955  L 171.930137 78.951986  L 171.950805 78.986327  L 171.992139 78.892614  L 172.250482 78.329972  L 174.926915 73.594435  L 175.32993 71.294642  L 175.474602 68.465107  L 175.557271 60.896721  L 175.712277 31.574468  L 175.784613 34.035282  L 176.466638 78.785826  L 176.642312 86.21045  L 176.735315 86.513235  L 176.797317 86.436724  L 177.41734 85.103558  L 177.593014 84.694846  L 177.830689 84.134489  L 178.120033 83.427012  L 178.130367 83.433719  L 178.192369 83.298727  L 178.337041 82.96574  L 178.347375 82.96736  L 178.543715 82.463794  L 178.729722 82.076337  L 178.75039 82.081432  L 179.990436 79.474603  L 180.011103 79.49484  L 180.052438 79.393013  L 180.383117 79.007483  L 180.393451 79.019621  L 180.445119 78.929841  L 180.589791 78.595289  L 181.468157 77.075623  L 181.64383 76.822373  L 181.654164 76.845115  L 181.695499 76.941023  L 181.736834 76.834517  L 181.881506 76.573932  L 181.964175 76.390886  L 182.181183 75.842522  L 182.294854 75.750098  L 182.770205 74.877237  L 182.780539 74.896265  L 182.801206 74.831881  L 182.935545 74.485305  L 182.945878 74.494363  L 182.997547 74.495327  L 183.018214 74.444021  L 183.720907 71.956905  L 183.937915 68.320209  L 184.020585 60.176153  L 184.175591 31.50178  L 184.237593 33.572731  L 184.898951 75.39033  L 185.084958 86.095818  L 185.22963 86.53797  L 185.549975 85.91731  L 185.560309 85.926425  L 185.580976 85.823038  L 185.59131 85.823688  L 185.78765 85.301198  L 185.808318 85.30904  L 185.849653 85.259739  L 186.076994 84.64202  L 186.14933 84.45962  L 186.335337 84.033933  L 186.345671 84.045707  L 186.376672 83.97463  L 186.39734 83.970083  L 186.614348 83.467953  L 187.513381 81.59363  L 188.825763 78.931389  L 188.836097 78.959449  L 188.867098 78.827413  L 188.887765 78.840686  L 189.166776 78.281756  L 189.37345 78.06938  L 189.435452 78.00038  L 189.518122 77.879264  L 189.559457 77.929506  L 189.673128 77.630452  L 189.890136 77.184803  L 189.900469 77.196086  L 189.921137 77.26073  L 189.993473 77.172811  L 190.138145 77.030783  L 190.148479 77.050229  L 190.241482 76.931154  L 190.479157 76.509702  L 190.551493 76.444264  L 190.706499 76.16225  L 190.727167 76.195397  L 191.150849 75.471704  L 191.305855 75.164129  L 191.34719 75.162695  L 191.367857 75.107565  L 191.378191 75.102449  L 191.750205 74.301894  L 191.760538 74.311894  L 191.781206 74.22323  L 191.791539 74.220492  L 192.421896 71.98701  L 192.597569 69.919635  L 192.700906 65.251295  L 192.783576 46.495558  L 192.886913 31.571617  L 192.938582 32.768234  L 193.196925 50.404086  L 193.909951 86.572474  L 193.920285 86.563822  L 194.746982 84.657308  L 194.96399 84.150161  L 195.036326 84.028409  L 195.253334 83.627352  L 197.537086 79.104281  L 197.568087 79.038641  L 197.702425 78.833926  L 198.126107 78.121995  L 198.136441 78.135349  L 198.177776 78.020489  L 198.570457 77.301994  L 198.735797 77.099844  L 198.74613 77.103826  L 198.756464 77.137988  L 198.808133 76.943863  L 199.603829 75.926144  L 199.624496 76.000218  L 199.696832 75.886381  L 199.707166 75.907633  L 199.903507 75.547218  L 200.089513 75.185773  L 200.110181 75.20964  L 200.203184 75.247821  L 200.151516 75.182624  L 200.223852 75.218238  L 200.409859 74.851931  L 200.492528 74.749717  L 200.699203 74.535721  L 200.71987 74.526494  L 200.730204 74.474835  L 200.916211 74.083502  L 200.947212 74.127102  L 200.988547 74.039976  L 201.184887 73.656568  L 201.381228 73.266492  L 201.846245 70.3644  L 201.97025 66.239628  L 202.052919 52.02863  L 202.176924 32.174959  L 202.218259 33.002624  L 202.383598 44.423854  L 202.69361 60.965556  L 202.848616 71.864681  L 203.065624 85.498599  L 203.199962 86.08224  L 203.230963 86.027496  L 203.396303 85.644673  L 203.406636 85.659508  L 203.644312 85.059156  L 203.788984 84.700711  L 204.016326 84.199388  L 204.098995 84.061405  L 204.936026 82.216604  L 204.94636 82.2334  L 205.018696 82.138932  L 205.452712 81.218298  L 205.576717 80.899538  L 205.793725 80.424723  L 207.715796 77.265052  L 207.72613 77.291508  L 207.798466 77.277815  L 207.757131 77.228809  L 207.819133 77.245368  L 207.901803 77.080113  L 208.036141 76.857832  L 208.067142 76.924316  L 208.139478 76.828293  L 208.315151 76.647123  L 208.325485 76.672999  L 208.387487 76.557223  L 208.718166 75.917286  L 208.7285 75.921792  L 208.790502 75.829885  L 208.883506 75.670751  L 209.09018 75.329557  L 209.100514 75.348479  L 209.110848 75.364963  L 209.141849 75.290582  L 209.183184 75.274224  L 209.885876 73.828759  L 210.113218 73.302279  L 210.309559 72.476388  L 210.61957 68.905579  L 210.70224 63.34037  L 210.877913 31.599681  L 210.98125 35.954044  L 211.797614 86.017211  L 211.931952 86.341878  L 211.952619 86.265898  L 211.962953 86.312026  L 212.035289 86.171558  L 213.337337 83.225902  L 213.347671 83.241045  L 213.378672 83.128929  L 213.802355 82.2133  L 213.874691 82.118337  L 214.84606 80.083765  L 214.856394 80.111592  L 214.866727 80.128787  L 214.897729 80.063274  L 214.939063 80.063138  L 215.156071 79.740058  L 215.166405 79.779372  L 215.228407 79.58803  L 215.362746 79.409525  L 215.476417 79.10495  L 215.507418 79.153853  L 215.858764 78.559489  L 216.106773 78.046965  L 216.117107 78.059304  L 216.158442 77.984388  L 216.37545 77.60963  L 216.520122 77.404147  L 216.706129 77.231285  L 216.726796 77.263439  L 216.768131 77.283793  L 216.799132 77.201432  L 216.943804 76.945482  L 216.954138 76.9483  L 216.974805 76.982679  L 217.005807 76.911208  L 217.047141 76.905944  L 217.160812 76.769169  L 217.439823 76.372531  L 217.491491 76.382643  L 217.532826 76.348286  L 217.698166 76.018496  L 217.760168 75.93188  L 217.90484 75.733666  L 217.925507 75.743295  L 218.039178 75.646971  L 218.328522 75.100761  L 218.369857 75.113201  L 218.34919 75.084954  L 218.411192 75.067321  L 218.566198 74.788109  L 218.648867 74.642911  L 219.475565 73.039047  L 219.640904 72.411867  L 219.919915 69.395388  L 220.023252 63.22978  L 220.198925 31.866292  L 220.302262 36.099691  L 221.118626 85.813706  L 221.252964 86.083711  L 221.552642 85.4357  L 221.976324 84.458384  L 222.069327 84.325793  L 222.224333 83.873979  L 222.482676 83.281284  L 222.544678 83.16626  L 222.947693 82.281389  L 222.968361 82.313463  L 223.082032 82.017187  L 223.340375 81.390757  L 223.350708 81.395855  L 223.402377 81.294884  L 223.629719 80.956927  L 223.671053 80.878244  L 223.960398 80.255571  L 224.787095 78.909888  L 224.797429 78.931906  L 225.8308 77.37092  L 225.872135 77.413065  L 225.882469 77.431983  L 225.934137 77.33899  L 225.944471 77.336242  L 226.337152 76.765434  L 226.368153 76.851177  L 226.388821 76.874232  L 226.450823 76.794759  L 226.616163 76.338935  L 226.647164 76.352225  L 226.7195 76.270439  L 226.884839 76.132548  L 226.946841 76.040351  L 227.287854 75.572057  L 227.339523 75.512452  L 227.422192 75.345609  L 227.494528 75.373733  L 228.238556 74.260129  L 228.279891 74.158853  L 228.476231 73.753039  L 228.641571 73.373006  L 229.065253 71.421042  L 229.209925 69.320258  L 229.302929 64.342031  L 229.4166 37.73182  L 229.488936 31.812824  L 229.550938 33.619199  L 230.181295 73.860873  L 230.377635 85.463605  L 230.542975 86.027453  L 230.573976 86.016799  L 230.58431 85.990664  L 230.728982 85.66244  L 230.739315 85.667799  L 231.080328 84.856496  L 231.090662 84.887236  L 231.14233 84.713922  L 231.225 84.431459  L 231.369672 84.130204  L 231.380006 84.148836  L 231.452342 84.010339  L 231.607347 83.624956  L 233.353745 80.145678  L 233.374413 80.159104  L 233.457083 79.998263  L 233.653423 79.63011  L 234.376783 78.332187  L 234.490454 78.192549  L 234.500788 78.197647  L 234.56279 78.071699  L 234.738463 77.809486  L 234.748797 77.814029  L 234.872802 77.784144  L 235.017474 77.410353  L 235.120811 77.332055  L 235.141478 77.365426  L 235.203481 77.357544  L 235.224148 77.312593  L 235.389487 77.191052  L 235.64783 76.804244  L 235.658164 76.816648  L 235.81317 76.534413  L 235.823504 76.551177  L 236.081846 76.2946  L 236.102514 76.325821  L 236.123181 76.366114  L 236.17485 76.236903  L 236.185184 76.246607  L 236.288521 76.161646  L 236.433193 76.040427  L 236.45386 76.056818  L 236.495195 75.956072  L 236.505529 75.963936  L 236.712203 75.569228  L 237.952249 73.287992  L 238.14859 72.600139  L 238.448267 69.796027  L 238.541271 66.175884  L 238.623941 51.132841  L 238.747945 31.645442  L 238.78928 32.523075  L 238.95462 44.011506  L 239.285298 61.459676  L 239.42997 72.046015  L 239.636645 85.512972  L 239.781317 86.12786  L 239.791651 86.11245  L 239.915655 85.943588  L 240.111996 85.452012  L 240.298003 85.010921  L 240.308336 85.040681  L 240.969694 83.471508  L 240.980028 83.494482  L 240.990362 83.503535  L 241.021363 83.407756  L 241.031696 83.397684  L 241.40371 82.528242  L 241.414044 82.532679  L 241.445045 82.430011  L 243.284447 79.103336  L 243.305114 79.118167  L 243.356783 79.015761  L 243.532456 78.730725  L 244.090476 77.828713  L 244.131811 77.847686  L 244.162812 77.748767  L 244.338486 77.611976  L 244.576161 77.185183  L 244.607162 77.197918  L 244.62783 77.101682  L 244.638163 77.111496  L 244.865505 76.826224  L 245.010177 76.720925  L 245.196184 76.434428  L 245.216851 76.455696  L 245.330522 76.425961  L 246.35356 75.28404  L 246.363894 75.31386  L 246.425896 75.220611  L 246.43623 75.221049  L 246.632571 74.929516  L 246.777243 74.650044  L 247.273261 73.779259  L 247.448934 73.307643  L 247.510936 73.151921  L 247.748612 72.234244  L 247.872616 71.300238  L 248.027622 68.342589  L 248.110292 61.471782  L 248.275631 31.719759  L 248.358301 34.555297  L 249.267668 85.99483  L 249.402006 85.927711  L 249.846356 84.846053  L 249.980695 84.635612  L 250.239037 83.954991  L 250.249371 83.964838  L 250.280372 83.848824  L 250.342375 83.74223  L 250.714388 82.862051  L 250.848727 82.635847  L 251.148404 81.89664  L 251.231074 81.799458  L 251.417081 81.465451  L 251.778761 80.71466  L 251.809762 80.754715  L 251.83043 80.778031  L 251.871765 80.635929  L 252.099106 80.148804  L 252.254112 79.960682  L 252.419452 79.71239  L 252.429785 79.743242  L 252.481454 79.55418  L 252.502121 79.557559  L 252.543456 79.480641  L 254.124515 77.250204  L 254.176183 77.256281  L 254.145182 77.223153  L 254.227852 77.200703  L 254.238186 77.206407  L 254.258853 77.137331  L 254.269187 77.125946  L 254.413859 76.986733  L 254.424192 76.991703  L 254.599866 76.79597  L 254.744538 76.578807  L 254.80654 76.533205  L 254.847875 76.609303  L 254.88921 76.645504  L 254.930545 76.582992  L 254.951212 76.581018  L 254.961546 76.589425  L 254.982213 76.511531  L 255.023548 76.502598  L 255.08555 76.339912  L 255.302558 76.092607  L 255.343893 76.102365  L 255.385228 76.039642  L 257.245297 73.720448  L 257.792984 71.701453  L 257.968657 69.528005  L 258.071994 64.520004  L 258.175331 41.282986  L 258.268335 31.96713  L 258.320003 33.373714  L 258.526678 48.800535  L 259.136367 85.092923  L 259.260372 85.709963  L 259.291373 85.699561  L 259.39471 85.648466  L 259.870061 84.474498  L 259.942397 84.276542  L 260.087069 84.019276  L 260.097403 84.035758  L 260.107736 84.054511  L 260.149071 83.944475  L 260.624422 82.801959  L 260.655423 82.690174  L 260.944767 82.067644  L 261.544123 80.831816  L 261.554457 80.849921  L 261.595791 80.710236  L 261.657794 80.636937  L 261.833467 80.325559  L 262.00914 80.03405  L 262.019474 80.066641  L 262.029807 80.077245  L 262.060809 79.97552  L 262.081476 79.996306  L 262.360486 79.582534  L 262.422489 79.406294  L 262.660164 78.967829  L 263.404192 78.057418  L 263.497195 77.909613  L 263.53853 77.946411  L 263.548864 77.961394  L 263.600532 77.874188  L 263.920878 77.322755  L 263.931211 77.331382  L 263.941545 77.356347  L 263.993214 77.233331  L 264.106884 77.095291  L 264.117218 77.109415  L 264.127552 77.132062  L 264.189554 77.032476  L 264.199888 77.028455  L 264.447897 76.925559  L 264.582235 76.872285  L 264.654571 76.749696  L 265.212592 75.852343  L 265.253927 75.791836  L 265.274594 75.797787  L 265.408933 75.636552  L 265.419266 75.64425  L 265.4296 75.698199  L 265.491602 75.563584  L 265.522604 75.593484  L 265.636274 75.434881  L 265.87395 75.247167  L 265.904951 75.188621  L 266.049623 75.010524  L 266.07029 75.03579  L 266.400969 74.665221  L 266.421637 74.683782  L 266.431971 74.605111  L 266.493973 74.622257  L 266.607644 74.292901  L 266.762649 74.120411  L 267.40334 72.03816  L 267.651349 68.675394  L 267.734019 63.197587  L 267.920026 31.827828  L 268.023363 36.443985  L 268.788058 85.11833  L 268.943064 85.811379  L 269.036067 85.744599  L 269.37708 84.961992  L 269.645756 84.3372  L 270.54479 82.281494  L 270.555123 82.288005  L 270.565457 82.227395  L 270.586124 82.199276  L 271.133811 81.165313  L 271.164812 81.158027  L 271.206147 81.085143  L 271.257816 80.889553  L 271.485158 80.489414  L 271.505825 80.52067  L 271.526493 80.551991  L 271.588495 80.415707  L 271.795169 80.040036  L 272.022511 79.678723  L 272.177517 79.350629  L 272.18785 79.399229  L 272.27052 79.302393  L 272.280854 79.325435  L 272.384191 79.126628  L 272.54953 78.877378  L 272.942212 78.238119  L 272.952545 78.260829  L 273.024881 78.16053  L 273.15922 77.940929  L 273.169553 77.959827  L 273.79991 77.17951  L 273.954916 77.273969  L 273.996251 77.209082  L 274.368264 76.892078  L 277.003362 73.073202  L 277.489047 69.287132  L 277.592384 63.436298  L 277.778391 32.025456  L 277.892062 37.175723  L 278.367413 65.26865  L 278.760094 85.733103  L 278.780761 85.716674  L 278.966768 85.462934  L 279.008103 85.472978  L 279.018437 85.386243  L 279.287113 84.644688  L 279.297447 84.679092  L 279.359449 84.553091  L 280.878506 81.233934  L 280.888839 81.243961  L 281.043845 80.99143  L 281.426193 80.231274  L 282.5319 78.565099  L 282.552568 78.592427  L 282.593902 78.477719  L 283.761612 76.93759  L 283.78228 76.978103  L 283.926952 76.887694  L 284.391969 76.3193  L 284.608977 76.030983  L 284.908655 75.65065  L 285.032659 75.739567  L 286.128033 74.123135  L 286.283039 73.83464  L 286.67572 72.789796  L 287.027067 70.455617  L 287.140738 67.355335  L 287.223407 57.208571  L 287.378413 31.782646  L 287.419748 32.901131  L 287.574754 44.097557  L 287.895099 61.317569  L 288.050105 72.573992  L 288.256779 85.304285  L 288.391117 85.850861  L 288.401451 85.81697  L 288.484121 85.698917  L 288.73213 85.19462  L 288.835467 84.971266  L 289.01114 84.509021  L 289.021474 84.518516  L 289.052475 84.4024  L 289.062809 84.409643  L 289.124811 84.339327  L 289.310818 83.80524  L 289.486491 83.350808  L 289.827504 82.75967  L 289.910173 82.605431  L 290.116848 82.127404  L 290.933211 80.66983  L 290.943545 80.682512  L 290.964212 80.567484  L 291.160553 80.222234  L 291.315559 79.946402  L 291.522233 79.691027  L 291.594569 79.544331  L 291.770242 79.167075  L 291.966583 78.921609  L 292.090588 78.857581  L 292.586606 78.08892  L 292.617607 78.09411  L 292.648608 77.988443  L 292.937952 77.597448  L 292.948286 77.63757  L 293.020622 77.59996  L 293.030956 77.553311  L 293.299632 77.065183  L 293.309966 77.07395  L 293.392636 77.018921  L 293.444304 77.055059  L 293.526974 76.944991  L 293.537308 76.968212  L 293.588976 76.850986  L 293.774983 76.636452  L 293.785317 76.64106  L 293.816318 76.593499  L 293.87832 76.608579  L 294.022992 76.439679  L 294.084995 76.466962  L 294.12633 76.400525  L 294.343338 76.154678  L 294.746353 75.61351  L 294.798021 75.642077  L 294.839356 75.590054  L 294.953027 75.467388  L 294.973694 75.486003  L 295.066698 75.330575  L 295.108033 75.356661  L 295.21137 75.245449  L 295.221703 75.26681  L 295.283706 75.183267  L 295.29404 75.207891  L 295.469713 75.016144  L 295.480046 75.048038  L 295.542049 74.907127  L 295.686721 74.687844  L 295.717722 74.709788  L 296.348079 74.040575  L 296.358412 74.060732  L 296.420415 73.974322  L 296.637423 73.569575  L 296.668424 73.589492  L 296.689091 73.538651  L 296.74076 73.540826  L 296.771761 73.552973  L 297.402118 70.76941  L 297.557123 67.126166  L 297.650127 55.088199  L 297.794799 32.457628  L 297.836134 33.31766  L 297.991139 44.645989  L 298.301151 61.83229  L 298.445823 72.36649  L 298.662831 84.830821  L 298.776502 85.360604  L 298.807503 85.335387  L 298.859172 85.34124  L 298.879839 85.273897  L 300.71924 81.34032  L 300.729574 81.355109  L 300.760575 81.263611  L 300.96725 80.858925  L 301.215259 80.267274  L 301.401266 80.011282  L 301.432267 80.022883  L 301.587273 79.745664  L 301.597606 79.762341  L 301.638941 79.692884  L 301.680276 79.704147  L 301.876617 79.492607  L 301.928285 79.423141  L 302.083291 79.057724  L 302.362301 78.569154  L 302.403636 78.801075  L 303.106329 80.3743  L 303.116663 80.354646  L 303.157997 80.393666  L 303.168331 80.446174  L 303.261335 80.523131  L 303.282002 80.473403  L 303.395673 80.433726  L 303.406007 80.459071  L 303.571346 80.48557  L 303.685017 80.427939  L 303.623015 80.499447  L 303.695351 80.434308  L 303.757353 80.474614  L 303.902025 80.287558  L 304.036363 80.303845  L 304.160368 80.394877  L 304.408377 80.425993  L 304.563383 80.669104  L 304.58405 80.595942  L 304.708055 80.511882  L 304.718389 80.554961  L 304.780391 80.614293  L 304.842393 80.573087  L 304.863061 80.523312  L 304.956064 80.570595  L 305.049067 80.486865  L 305.080069 80.563263  L 305.47275 80.569292  L 305.607088 80.723877  L 305.689758 80.677617  L 305.648423 80.645487  L 305.700092 80.657613  L 305.762094 80.569481  L 305.824096 80.696477  L 305.948101 80.819483  L 305.968768 80.803708  L 305.979102 80.793569  L 305.999769 80.874992  L 306.03077 80.889049  L 306.154775 81.053133  L 306.175443 81.034667  L 306.371783 81.11176  L 306.392451 81.160662  L 306.433785 81.078666  L 306.47512 81.088883  L 307.415488 81.605411  L 307.611829 81.911287  L 307.735834 81.888065  L 307.849505 81.952745  L 307.859838 81.944417  L 307.963175 81.860923  L 307.983843 81.926601  L 308.107847 82.059498  L 308.159516 82.003736  L 308.252519 81.974964  L 308.273187 82.030255  L 308.459194 82.107722  L 308.500529 82.065019  L 308.53153 82.154802  L 308.572865 82.104636  L 308.676202 82.24225  L 308.707203 82.22004  L 308.89321 82.239095  L 308.903544 82.216976  L 309.068883 82.099424  L 309.099884 82.151744  L 309.358227 82.383355  L 309.420229 82.464099  L 309.430563 82.453579  L 309.916248 82.984762  L 309.988584 83.079113  L 310.133256 83.245554  L 311.083958 84.014235  L 311.094291 83.996663  L 311.218296 83.998719  L 311.373302 84.264751  L 311.383635 84.237191  L 311.445638 84.382355  L 312.003658 84.544475  L 312.127663 84.758245  L 312.137997 84.739856  L 312.14833 84.736153  L 312.158664 84.80463  L 312.168998 84.804686  L 312.179332 84.851811  L 312.272335 84.769151  L 312.499677 85.042927  L 312.51001 85.036962  L 312.623681 85.134709  L 312.830356 85.395819  L 312.871691 85.473476  L 313.057697 85.740345  L 313.1197 85.842696  L 313.140367 85.890926  L 313.192036 85.773489  L 313.233371 85.85085  L 313.522715 85.902398  L 313.67772 86.184378  L 313.688054 86.163298  L 313.739723 86.141943  L 313.781058 86.215343  L 313.936063 86.396793  L 314.018733 86.47629  L 314.194406 86.784374  L 314.20474 86.775502  L 314.370079 86.915172  L 314.494084 87.07207  L 314.525085 86.956903  L 314.535419 86.924901  L 314.607755 87.037266  L 314.742093 87.124662  L 314.907433 87.400857  L 314.917766 87.371904  L 315.165775 87.498251  L 315.37245 87.875445  L 315.382784 87.869087  L 315.393117 87.92055  L 315.434452 87.963179  L 315.589458 88.17046  L 315.65146 88.127015  L 315.682461 88.21997  L 315.785798 88.274496  L 316.064809 88.699624  L 316.075143 88.681251  L 316.230148 88.830558  L 316.478157 89.261901  L 316.550493 89.190114  L 316.591828 89.247683  L 316.705499 89.344891  L 316.777835 89.444165  L 316.829504 89.433442  L 316.953508 89.525116  L 317.191184 89.726004  L 318.400229 90.609877  L 318.555234 90.76609  L 318.648238 90.694859  L 318.668905 90.754358  L 318.679239 90.759766  L 318.71024 90.661998  L 318.730908 90.624597  L 318.761909 90.699241  L 318.803244 90.683601  L 318.947916 90.869699  L 318.978917 90.818479  L 319.07192 90.819077  L 319.092588 90.846086  L 319.195925 90.863926  L 319.206258 90.842046  L 319.216592 90.822947  L 319.278594 90.92692  L 319.299262 90.886186  L 319.96062 91.185814  L 320.063957 91.241798  L 320.23963 91.475261  L 320.249964 91.454187  L 320.353301 91.31879  L 320.373968 91.371734  L 320.497973 91.486661  L 320.663312 91.56697  L 320.694314 91.54457  L 320.797651 91.632895  L 320.838986 91.595523  L 320.88032 91.671215  L 320.890654 91.669493  L 321.086995 91.939305  L 321.283335 92.079763  L 321.417674 92.152284  L 321.541678 92.228231  L 321.68635 92.374182  L 321.696684 92.356136  L 321.738019 92.439547  L 321.76902 92.438768  L 321.924026 92.52597  L 322.006696 92.579018  L 322.079032 92.61061  L 322.120366 92.572468  L 322.182369 92.602266  L 322.151368 92.634281  L 322.192702 92.631713  L 322.389043 92.903061  L 322.40971 92.898506  L 322.461379 92.986381  L 322.709388 93.157801  L 322.719722 93.238561  L 322.823059 93.200459  L 323.153738 93.412925  L 323.257075 93.366778  L 323.277743 93.418982  L 323.29841 93.47748  L 323.339745 93.393563  L 323.391413 93.43221  L 323.463749 93.363011  L 323.505084 93.422725  L 323.598088 93.552434  L 323.639423 93.482345  L 323.753094 93.496255  L 323.959768 93.670155  L 323.970102 93.661888  L 324.02177 93.759988  L 324.30078 93.836473  L 324.424785 93.862263  L 324.445453 93.830899  L 324.507455 93.924935  L 324.559123 93.839032  L 324.796799 93.892657  L 325.065475 93.735877  L 325.148145 93.717811  L 325.179146 93.780737  L 325.313485 93.649089  L 325.334152 93.696739  L 325.46849 93.852745  L 325.478824 93.831832  L 325.509825 93.836455  L 325.520159 93.881764  L 325.63383 94.091258  L 325.654497 94.073023  L 325.747501 94.144642  L 325.933508 94.337269  L 326.016177 94.268037  L 326.057512 94.293293  L 326.191851 94.317307  L 326.202184 94.296137  L 326.398525 94.126577  L 326.501862 94.235414  L 326.419192 94.106453  L 326.532863 94.136198  L 326.594865 94.171897  L 326.646534 94.148626  L 326.667201 94.168147  L 326.698203 94.090313  L 326.729204 94.074544  L 326.842875 94.040658  L 326.863542 94.063788  L 326.956546 94.160725  L 326.977213 94.094088  L 327.183887 94.239711  L 327.194221 94.224078  L 327.24589 94.166194  L 327.318226 94.215623  L 327.328559 94.225055  L 327.35956 94.147708  L 327.380228 94.151261  L 327.473231 94.10106  L 327.493899 94.148434  L 327.586902 94.194025  L 327.617903 94.107621  L 327.690239 94.109589  L 327.669572 94.173567  L 327.700573 94.118372  L 327.772909 94.227744  L 327.814244 94.183655  L 327.979583 94.233985  L 328.113922 94.258461  L 328.24826 94.261492  L 328.258594 94.205695  L 328.279261 94.182071  L 328.351597 94.260174  L 328.744278 94.356441  L 328.837282 94.195649  L 328.88895 94.240203  L 328.961286 94.317601  L 329.033622 94.255839  L 329.240297 94.258831  L 329.322966 94.196536  L 329.353968 94.24262  L 329.922322 94.200482  L 330.066994 94.074802  L 330.087661 94.089139  L 330.180665 94.161491  L 330.211666 94.137813  L 330.459675 94.317903  L 330.480343 94.288648  L 330.594014 94.226441  L 330.635348 94.270518  L 330.66635 94.326197  L 330.718018 94.222145  L 330.728352 94.224308  L 331.141701 94.225922  L 331.472379 94.364804  L 331.534382 94.395643  L 331.565383 94.343446  L 331.606718 94.388901  L 331.679054 94.341361  L 332.567753 94.198017  L 332.691758 94.268849  L 332.826096 94.181434  L 333.425452 94.229934  L 333.456453 94.112603  L 333.539123 94.217598  L 333.570124 94.159892  L 333.652794 94.225023  L 333.756131 94.187097  L 333.766464 94.158711  L 333.849134 94.254959  L 334.08681 94.03861  L 334.117811 94.109217  L 334.169479 94.142012  L 334.221148 94.091902  L 334.36582 93.967608  L 334.376154 93.98016  L 334.562161 94.321185  L 334.613829 94.263134  L 334.675831 94.295179  L 334.7275 94.249721  L 334.7275 94.249721  " style="fill:none;stroke:#d7301f;stroke-linecap:square;stroke-opacity:0.8;stroke-width:1.5;"/>
   </g>
   <g id="patch_3">
    <path d="M 41.7775 97.832  L 41.7775 25.76  " style="fill:none;stroke:#000000;stroke-linecap:square;stroke-linejoin:miter;stroke-width:1.5;"/>
   </g>
   <g id="patch_4">
    <path d="M 41.7775 97.832  L 348.6775 97.832  " style="fill:none;stroke:#000000;stroke-linecap:square;stroke-linejoin:miter;stroke-width:1.5;"/>
   </g>
   <g id="legend_1">
    <g id="line2d_10">
     <path d="M 75.6675 17.28  L 91.6675 17.28  " style="fill:none;stroke:#000000;stroke-linecap:square;stroke-width:1.5;"/>
    </g>
    <g id="line2d_11"/>
    <g id="text_10">
     <!-- $\overline{g}_{\mathrm{CaS}}$ = 3 mS / $\mathrm{cm}^2$ -->
     <g transform="translate(98.0675 20.08)">
      <text>
       <tspan style="font-family:Arial;font-size:8px;font-style:regular;font-weight:regular;" x="0 15.883341 18.105997 22.777872 25.000528 29.449747 31.672403 38.336466 43.672403 45.895059 48.117716" y="-0.8795000000000002 -0.39949999999999974 -0.39949999999999974 -0.39949999999999974 -0.39949999999999974 -0.39949999999999974 -0.39949999999999974 -0.39949999999999974 -0.39949999999999974 -0.39949999999999974 -0.39949999999999974">g&#160;=&#160;3&#160;mS&#160;/&#160;</tspan>
       <tspan style="font-family:DejaVu Sans;font-size:5.6px;font-style:book;font-weight:book;" x="4.588606 8.498762 11.930403" y="1.9900000000000002">CaS</tspan>
       <tspan style="font-family:DejaVu Sans;font-size:8px;font-style:book;font-weight:book;" x="50.340372 54.738809" y="-0.39949999999999974">cm</tspan>
       <tspan style="font-family:Arial;font-size:5.6px;font-style:regular;font-weight:regular;" x="62.671166" y="-5.975">2</tspan>
      </text>
      <rect height="0.5" width="4.449219" x="0" y="-6.6295"/>
     </g>
    </g>
    <g id="line2d_12">
     <path d="M 180.3075 17.28  L 196.3075 17.28  " style="fill:none;stroke:#d7301f;stroke-linecap:square;stroke-opacity:0.8;stroke-width:1.5;"/>
    </g>
    <g id="line2d_13"/>
    <g id="text_11">
     <!-- $\overline{g}_{\mathrm{CaS}}$ = 5 mS / $\mathrm{cm}^2$ -->
     <g transform="translate(202.7075 20.08)">
      <text>
       <tspan style="font-family:Arial;font-size:8px;font-style:regular;font-weight:regular;" x="0 15.883341 18.105997 22.777872 25.000528 29.449747 31.672403 38.336466 43.672403 45.895059 48.117716" y="-0.8795000000000002 -0.39949999999999974 -0.39949999999999974 -0.39949999999999974 -0.39949999999999974 -0.39949999999999974 -0.39949999999999974 -0.39949999999999974 -0.39949999999999974 -0.39949999999999974 -0.39949999999999974">g&#160;=&#160;5&#160;mS&#160;/&#160;</tspan>
       <tspan style="font-family:DejaVu Sans;font-size:5.6px;font-style:book;font-weight:book;" x="4.588606 8.498762 11.930403" y="1.9900000000000002">CaS</tspan>
       <tspan style="font-family:DejaVu Sans;font-size:8px;font-style:book;font-weight:book;" x="50.340372 54.738809" y="-0.39949999999999974">cm</tspan>
       <tspan style="font-family:Arial;font-size:5.6px;font-style:regular;font-weight:regular;" x="62.671166" y="-5.975">2</tspan>
      </text>
      <rect height="0.5" width="4.449219" x="0" y="-6.6295"/>
     </g>
    </g>
   </g>
  </g>
 </g>
 <defs>
  <clipPath id="p33c4d136e2">
   <rect height="72.072" width="306.9" x="41.7775" y="25.76"/>
  </clipPath>
 </defs>
</g>
    </g>
    <g transform="translate(467.5, 15.399999999999999) scale(1) ">
      <g transform="translate(0, 0.0) scale(1) translate(0, 0) scale(1.25) "><metadata>
  <rdf:RDF xmlns:cc="http://creativecommons.org/ns#" xmlns:dc="http://purl.org/dc/elements/1.1/" xmlns:rdf="http://www.w3.org/1999/02/22-rdf-syntax-ns#">
   <cc:Work>
    <dc:type rdf:resource="http://purl.org/dc/dcmitype/StillImage"/>
    <dc:date>2022-06-30T17:08:48.940793</dc:date>
    <dc:format>image/svg+xml</dc:format>
    <dc:creator>
     <cc:Agent>
      <dc:title>Matplotlib v3.4.2, https://matplotlib.org/</dc:title>
     </cc:Agent>
    </dc:creator>
   </cc:Work>
  </rdf:RDF>
 </metadata>
 <defs>
  <style type="text/css">*{stroke-linecap:butt;stroke-linejoin:round;}</style>
 </defs>
 <g id="figure_1">
  <g id="patch_1">
   <path d="M -0 134.672  L 75.19125 134.672  L 75.19125 0  L -0 0  z " style="fill:none;"/>
  </g>
  <g id="axes_1">
   <g id="patch_2">
    <path d="M 34.51125 79.272  L 67.99125 79.272  L 67.99125 7.2  L 34.51125 7.2  z " style="fill:none;"/>
   </g>
   <g id="patch_3">
    <path clip-path="url(#p5983c9d2e1)" d="M 39.076705 79.272  L 48.207614 79.272  L 48.207614 29.407964  L 39.076705 29.407964  z "/>
   </g>
   <g id="patch_4">
    <path clip-path="url(#p5983c9d2e1)" d="M 54.294886 79.272  L 63.425795 79.272  L 63.425795 10.632  L 54.294886 10.632  z " style="fill:#d7301f;"/>
   </g>
   <g id="matplotlib.axis_1">
    <g id="xtick_1">
     <g id="line2d_1">
      <defs>
       <path d="M 0 0  L 0 3.5  " id="mb33d4d7add" style="stroke:#000000;stroke-width:1.5;"/>
      </defs>
      <g>
       <use style="stroke:#000000;stroke-width:1.5;" x="43.642159" xlink:href="#mb33d4d7add" y="79.272"/>
      </g>
     </g>
     <g id="text_1">
      <!-- 3 mS / $\mathrm{cm}^2$ -->
      <g transform="translate(46.972159 127.472)rotate(-90)">
       <text>
        <tspan style="font-family:Arial;font-size:8px;font-style:regular;font-weight:regular;" x="0 4.449219 6.671875 13.335938 18.671875 20.894531 23.117188" y="-0.39949999999999974">3&#160;mS&#160;/&#160;</tspan>
        <tspan style="font-family:DejaVu Sans;font-size:8px;font-style:book;font-weight:book;" x="25.339844 29.738281" y="-0.39949999999999974">cm</tspan>
        <tspan style="font-family:Arial;font-size:5.6px;font-style:regular;font-weight:regular;" x="37.670637" y="-5.975">2</tspan>
       </text>
      </g>
     </g>
    </g>
    <g id="xtick_2">
     <g id="line2d_2">
      <g>
       <use style="stroke:#000000;stroke-width:1.5;" x="58.860341" xlink:href="#mb33d4d7add" y="79.272"/>
      </g>
     </g>
     <g id="text_2">
      <!-- 5 mS / $\mathrm{cm}^2$ -->
      <g transform="translate(62.190341 127.472)rotate(-90)">
       <text>
        <tspan style="font-family:Arial;font-size:8px;font-style:regular;font-weight:regular;" x="0 4.449219 6.671875 13.335938 18.671875 20.894531 23.117188" y="-0.39949999999999974">5&#160;mS&#160;/&#160;</tspan>
        <tspan style="font-family:DejaVu Sans;font-size:8px;font-style:book;font-weight:book;" x="25.339844 29.738281" y="-0.39949999999999974">cm</tspan>
        <tspan style="font-family:Arial;font-size:5.6px;font-style:regular;font-weight:regular;" x="37.670637" y="-5.975">2</tspan>
       </text>
      </g>
     </g>
    </g>
   </g>
   <g id="matplotlib.axis_2">
    <g id="ytick_1">
     <g id="line2d_3">
      <defs>
       <path d="M 0 0  L -3.5 0  " id="m2dc405851e" style="stroke:#000000;stroke-width:1.5;"/>
      </defs>
      <g>
       <use style="stroke:#000000;stroke-width:1.5;" x="34.51125" xlink:href="#m2dc405851e" y="79.272"/>
      </g>
     </g>
     <g id="text_3">
      <text style="font-family:Arial;font-size:8px;font-stretch:normal;font-style:normal;font-weight:normal;text-anchor:end;" transform="rotate(-0, 27.51125, 82.135125)" x="27.51125" y="82.135125">0</text>
     </g>
    </g>
    <g id="ytick_2">
     <g id="line2d_4">
      <g>
       <use style="stroke:#000000;stroke-width:1.5;" x="34.51125" xlink:href="#m2dc405851e" y="54.647785"/>
      </g>
     </g>
     <g id="text_4">
      <text style="font-family:Arial;font-size:8px;font-stretch:normal;font-style:normal;font-weight:normal;text-anchor:end;" transform="rotate(-0, 27.51125, 57.51091)" x="27.51125" y="57.51091">10</text>
     </g>
    </g>
    <g id="ytick_3">
     <g id="line2d_5">
      <g>
       <use style="stroke:#000000;stroke-width:1.5;" x="34.51125" xlink:href="#m2dc405851e" y="30.02357"/>
      </g>
     </g>
     <g id="text_5">
      <text style="font-family:Arial;font-size:8px;font-stretch:normal;font-style:normal;font-weight:normal;text-anchor:end;" transform="rotate(-0, 27.51125, 32.886695)" x="27.51125" y="32.886695">20</text>
     </g>
    </g>
    <g id="text_6">
     <text style="font-family:Arial;font-size:8px;font-stretch:normal;font-style:normal;font-weight:normal;text-anchor:middle;" transform="rotate(-90, 13.02375, 43.236)" x="13.02375" y="43.236">#spikes / burst</text>
    </g>
   </g>
   <g id="patch_5">
    <path d="M 34.51125 79.272  L 34.51125 7.2  " style="fill:none;stroke:#000000;stroke-linecap:square;stroke-linejoin:miter;stroke-width:1.5;"/>
   </g>
   <g id="patch_6">
    <path d="M 34.51125 79.272  L 67.99125 79.272  " style="fill:none;stroke:#000000;stroke-linecap:square;stroke-linejoin:miter;stroke-width:1.5;"/>
   </g>
  </g>
 </g>
 <defs>
  <clipPath id="p5983c9d2e1">
   <rect height="72.072" width="33.48" x="34.51125" y="7.2"/>
  </clipPath>
 </defs>
</g>
    </g>
  </g>
</svg>
