<?xml version="1.0" encoding="utf-8" standalone="no"?>
<!DOCTYPE svg PUBLIC "-//W3C//DTD SVG 1.1//EN"
  "http://www.w3.org/Graphics/SVG/1.1/DTD/svg11.dtd">
<!-- Created with matplotlib (https://matplotlib.org/) -->
<svg height="87.467375pt" version="1.1" viewBox="0 0 211.84625 87.467375" width="211.84625pt" xmlns="http://www.w3.org/2000/svg" xmlns:xlink="http://www.w3.org/1999/xlink">
 <metadata>
  <rdf:RDF xmlns:cc="http://creativecommons.org/ns#" xmlns:dc="http://purl.org/dc/elements/1.1/" xmlns:rdf="http://www.w3.org/1999/02/22-rdf-syntax-ns#">
   <cc:Work>
    <dc:type rdf:resource="http://purl.org/dc/dcmitype/StillImage"/>
    <dc:date>2020-12-17T15:10:49.690001</dc:date>
    <dc:format>image/svg+xml</dc:format>
    <dc:creator>
     <cc:Agent>
      <dc:title>Matplotlib v3.3.2, https://matplotlib.org/</dc:title>
     </cc:Agent>
    </dc:creator>
   </cc:Work>
  </rdf:RDF>
 </metadata>
 <defs>
  <style type="text/css">*{stroke-linecap:butt;stroke-linejoin:round;}</style>
 </defs>
 <g id="figure_1">
  <g id="patch_1">
   <path d="M 0 87.467375 
L 211.84625 87.467375 
L 211.84625 0 
L 0 0 
z
" style="fill:none;"/>
  </g>
  <g id="axes_1">
   <g id="patch_2">
    <path d="M 42.82625 76.767375 
L 113.182772 76.767375 
L 113.182772 10.239375 
L 42.82625 10.239375 
z
" style="fill:none;"/>
   </g>
   <g id="matplotlib.axis_1"/>
   <g id="matplotlib.axis_2">
    <g id="ytick_1">
     <g id="line2d_1">
      <defs>
       <path d="M 0 0 
L -3.5 0 
" id="ma049e4850b" style="stroke:#000000;stroke-width:1.5;"/>
      </defs>
      <g>
       <use style="stroke:#000000;stroke-width:1.5;" x="42.82625" xlink:href="#ma049e4850b" y="68.08981"/>
      </g>
     </g>
     <g id="text_1">
      <text style="font-family:DejaVu Sans;font-size:8px;font-stretch:normal;font-style:normal;font-weight:normal;text-anchor:end;" transform="rotate(-0, 35.82625, 71.129185)" x="35.82625" y="71.129185">−50</text>
     </g>
    </g>
    <g id="ytick_2">
     <g id="line2d_2">
      <g>
       <use style="stroke:#000000;stroke-width:1.5;" x="42.82625" xlink:href="#ma049e4850b" y="39.164592"/>
      </g>
     </g>
     <g id="text_2">
      <text style="font-family:DejaVu Sans;font-size:8px;font-stretch:normal;font-style:normal;font-weight:normal;text-anchor:end;" transform="rotate(-0, 35.82625, 42.203967)" x="35.82625" y="42.203967">0</text>
     </g>
    </g>
    <g id="ytick_3">
     <g id="line2d_3">
      <g>
       <use style="stroke:#000000;stroke-width:1.5;" x="42.82625" xlink:href="#ma049e4850b" y="10.239375"/>
      </g>
     </g>
     <g id="text_3">
      <text style="font-family:DejaVu Sans;font-size:8px;font-stretch:normal;font-style:normal;font-weight:normal;text-anchor:end;" transform="rotate(-0, 35.82625, 13.27875)" x="35.82625" y="13.27875">50</text>
     </g>
    </g>
    <g id="text_4">
     <text style="font-family:DejaVu Sans;font-size:8px;font-stretch:normal;font-style:normal;font-weight:normal;text-anchor:middle;" transform="rotate(-90, 13.27875, 43.503375)" x="13.27875" y="43.503375">Voltage PY (mV)</text>
    </g>
   </g>
   <g id="line2d_4">
    <path clip-path="url(#pe2f0d09cdf)" d="M 46.024274 65.05934 
L 46.380599 64.9158 
L 47.093251 64.454233 
L 48.340391 63.818554 
L 48.518554 63.820871 
L 48.87488 63.525716 
L 49.409368 63.236146 
L 49.765694 63.005675 
L 50.12202 62.779751 
L 50.478346 62.594541 
L 51.190997 62.139672 
L 51.547323 62.055735 
L 52.259975 61.616199 
L 52.972626 61.174866 
L 53.685278 60.698951 
L 53.86344 60.635899 
L 54.219766 60.389294 
L 54.397929 60.28626 
L 54.932418 59.732642 
L 55.110581 59.646091 
L 55.466906 59.289303 
L 57.070372 57.023977 
L 57.426698 56.080958 
L 57.783024 54.360789 
L 57.961187 52.810081 
L 58.13935 50.091379 
L 58.495675 37.493821 
L 58.852001 24.954055 
L 59.030164 22.773875 
L 59.208327 22.979561 
L 59.564653 28.363124 
L 60.277304 43.079968 
L 61.168119 57.610787 
L 61.702607 67.291592 
L 62.058933 69.917587 
L 62.415259 71.229486 
L 62.771585 71.765672 
L 63.12791 71.898514 
L 63.484236 71.847872 
L 63.662399 71.900312 
L 64.37505 71.538501 
L 64.909539 71.175724 
L 65.978516 70.63306 
L 67.938308 69.1188 
L 68.472797 68.901268 
L 69.8981 68.213506 
L 70.254426 67.923633 
L 70.610751 67.784168 
L 72.926869 66.136583 
L 73.105032 66.139252 
L 74.352172 65.206713 
L 75.064823 64.906577 
L 76.133801 64.27772 
L 76.311963 64.349788 
L 77.559104 63.873699 
L 78.271755 63.413236 
L 80.053384 62.460282 
L 80.766036 61.969091 
L 80.944198 61.902004 
L 81.122361 61.711357 
L 81.65685 61.539077 
L 84.329293 59.874558 
L 85.754596 59.066099 
L 86.289085 58.522269 
L 87.536225 56.961983 
L 88.070714 55.433522 
L 88.427039 53.552136 
L 88.605202 51.773915 
L 88.783365 48.683256 
L 89.67418 24.420195 
L 89.852342 24.609854 
L 90.030505 26.468642 
L 92.524786 68.712857 
L 92.881111 70.362695 
L 93.237437 71.196621 
L 93.593763 71.453399 
L 93.950089 71.59334 
L 94.66274 71.404192 
L 96.266206 70.497007 
L 97.513346 69.637289 
L 97.869672 69.558379 
L 98.225998 69.383177 
L 98.582324 69.066748 
L 99.473138 68.534526 
L 99.829464 68.181051 
L 101.254767 67.554955 
L 101.43293 67.612281 
L 101.789255 67.234143 
L 103.570884 66.359141 
L 104.461699 66.192409 
L 104.996187 65.808178 
L 105.17435 65.758527 
L 105.887002 65.112122 
L 109.093934 63.745662 
L 109.628422 63.330463 
L 109.806585 63.364709 
L 109.984748 63.25117 
L 109.984748 63.25117 
" style="fill:none;stroke:#000000;stroke-linecap:square;stroke-width:1.6;"/>
   </g>
   <g id="patch_3">
    <path d="M 42.82625 76.767375 
L 42.82625 10.239375 
" style="fill:none;stroke:#000000;stroke-linecap:square;stroke-linejoin:miter;stroke-width:1.5;"/>
   </g>
   <g id="patch_4">
    <path d="M 42.82625 76.767375 
L 113.182772 76.767375 
" style="fill:none;stroke:#000000;stroke-linecap:square;stroke-linejoin:miter;stroke-width:1.5;"/>
   </g>
  </g>
  <g id="axes_2">
   <g id="patch_5">
    <path d="M 134.289728 76.767375 
L 204.64625 76.767375 
L 204.64625 10.239375 
L 134.289728 10.239375 
z
" style="fill:none;"/>
   </g>
   <g id="matplotlib.axis_3"/>
   <g id="matplotlib.axis_4"/>
   <g id="line2d_5">
    <path clip-path="url(#pd4b866c4e9)" d="M 137.487752 72.661241 
L 139.091218 71.225472 
L 140.160195 70.31785 
L 140.338358 70.279638 
L 140.872847 69.691656 
L 141.229172 69.408361 
L 141.585498 69.125831 
L 141.763661 69.108057 
L 142.476313 68.39291 
L 145.683245 66.044526 
L 146.395896 65.553834 
L 146.752222 65.254731 
L 147.821199 64.527925 
L 148.177525 64.252602 
L 148.355688 64.224479 
L 149.068339 63.732749 
L 149.959154 63.148103 
L 151.740782 61.469591 
L 152.453434 60.144323 
L 152.80976 58.574757 
L 152.987923 56.930031 
L 153.166086 51.97196 
L 153.522411 11.886272 
L 153.700574 12.104835 
L 154.0569 13.974406 
L 154.591389 19.19977 
L 156.194854 37.786077 
L 157.441995 48.168854 
L 157.620158 51.129941 
L 158.332809 74.18696 
L 158.510972 75.002482 
L 158.867298 75.383182 
L 159.223623 75.263842 
L 160.827089 73.89167 
L 161.183415 73.540905 
L 165.281161 70.033067 
L 165.637487 69.747116 
L 166.171976 69.30646 
L 166.528302 69.050102 
L 166.884627 68.832451 
L 167.240953 68.478232 
L 168.844419 67.218834 
L 169.378908 66.830562 
L 171.338699 65.499251 
L 171.516862 65.483142 
L 172.764002 64.691798 
L 173.120328 64.571645 
L 173.83298 63.983243 
L 174.367468 63.666754 
L 174.901957 63.202712 
L 175.436446 62.730544 
L 176.32726 61.979479 
L 176.683586 61.594397 
L 177.218074 60.698743 
L 177.5744 59.697606 
L 177.930726 57.349253 
L 178.108889 53.49193 
L 178.465215 11.967293 
L 178.643378 11.932664 
L 178.999703 13.653471 
L 179.356029 16.707321 
L 180.246843 27.653038 
L 181.137658 37.361133 
L 182.562961 50.154606 
L 182.741124 55.414896 
L 183.09745 72.120557 
L 183.453775 74.872964 
L 183.631938 75.294356 
L 183.988264 75.406532 
L 184.166427 75.35952 
L 184.522753 75.089555 
L 184.700915 74.995986 
L 185.235404 74.476022 
L 186.126219 73.755631 
L 187.017033 72.957643 
L 187.373359 72.664963 
L 188.264173 71.907767 
L 189.33315 70.933964 
L 190.223965 70.185609 
L 190.758453 69.741321 
L 191.292942 69.405244 
L 194.678037 66.7524 
L 195.034363 66.544736 
L 195.390688 66.178913 
L 195.568851 66.158237 
L 196.459666 65.541484 
L 196.994154 65.401177 
L 198.063132 64.601472 
L 200.557412 63.018384 
L 201.448226 62.093508 
L 201.448226 62.093508 
" style="fill:none;stroke:#000000;stroke-linecap:square;stroke-width:1.6;"/>
   </g>
   <g id="patch_6">
    <path d="M 134.289728 76.767375 
L 204.64625 76.767375 
" style="fill:none;stroke:#000000;stroke-linecap:square;stroke-linejoin:miter;stroke-width:1.5;"/>
   </g>
  </g>
 </g>
 <defs>
  <clipPath id="pe2f0d09cdf">
   <rect height="66.528" width="70.356522" x="42.82625" y="10.239375"/>
  </clipPath>
  <clipPath id="pd4b866c4e9">
   <rect height="66.528" width="70.356522" x="134.289728" y="10.239375"/>
  </clipPath>
 </defs>
</svg>
