<?xml version="1.0" encoding="utf-8" standalone="no"?>
<!DOCTYPE svg PUBLIC "-//W3C//DTD SVG 1.1//EN"
  "http://www.w3.org/Graphics/SVG/1.1/DTD/svg11.dtd">
<!-- Created with matplotlib (https://matplotlib.org/) -->
<svg height="101.869pt" version="1.1" viewBox="0 0 238.1825 101.869" width="238.1825pt" xmlns="http://www.w3.org/2000/svg" xmlns:xlink="http://www.w3.org/1999/xlink">
 <metadata>
  <rdf:RDF xmlns:cc="http://creativecommons.org/ns#" xmlns:dc="http://purl.org/dc/elements/1.1/" xmlns:rdf="http://www.w3.org/1999/02/22-rdf-syntax-ns#">
   <cc:Work>
    <dc:type rdf:resource="http://purl.org/dc/dcmitype/StillImage"/>
    <dc:date>2020-12-17T15:12:07.062163</dc:date>
    <dc:format>image/svg+xml</dc:format>
    <dc:creator>
     <cc:Agent>
      <dc:title>Matplotlib v3.3.2, https://matplotlib.org/</dc:title>
     </cc:Agent>
    </dc:creator>
   </cc:Work>
  </rdf:RDF>
 </metadata>
 <defs>
  <style type="text/css">*{stroke-linecap:butt;stroke-linejoin:round;}</style>
 </defs>
 <g id="figure_1">
  <g id="patch_1">
   <path d="M 0 101.869 
L 238.1825 101.869 
L 238.1825 0 
L 0 0 
z
" style="fill:none;"/>
  </g>
  <g id="axes_1">
   <g id="patch_2">
    <path d="M 18.9425 68.184 
L 119.913929 68.184 
L 119.913929 7.2 
L 18.9425 7.2 
z
" style="fill:none;"/>
   </g>
   <g id="matplotlib.axis_1">
    <g id="xtick_1">
     <g id="line2d_1">
      <defs>
       <path d="M 0 0 
L 0 3.5 
" id="m9da4351bd7" style="stroke:#000000;stroke-width:1.5;"/>
      </defs>
      <g>
       <use style="stroke:#000000;stroke-width:1.5;" x="23.53211" xlink:href="#m9da4351bd7" y="68.184"/>
      </g>
     </g>
     <g id="text_1">
      <text style="font-family:DejaVu Sans;font-size:8px;font-stretch:normal;font-style:normal;font-weight:normal;text-anchor:middle;" transform="rotate(-0, 23.53211, 81.26275)" x="23.53211" y="81.26275">0</text>
     </g>
    </g>
    <g id="xtick_2">
     <g id="line2d_2">
      <g>
       <use style="stroke:#000000;stroke-width:1.5;" x="53.143694" xlink:href="#m9da4351bd7" y="68.184"/>
      </g>
     </g>
     <g id="text_2">
      <text style="font-family:DejaVu Sans;font-size:8px;font-stretch:normal;font-style:normal;font-weight:normal;text-anchor:middle;" transform="rotate(-0, 53.143694, 81.26275)" x="53.143694" y="81.26275">1</text>
     </g>
    </g>
    <g id="xtick_3">
     <g id="line2d_3">
      <g>
       <use style="stroke:#000000;stroke-width:1.5;" x="82.755278" xlink:href="#m9da4351bd7" y="68.184"/>
      </g>
     </g>
     <g id="text_3">
      <text style="font-family:DejaVu Sans;font-size:8px;font-stretch:normal;font-style:normal;font-weight:normal;text-anchor:middle;" transform="rotate(-0, 82.755278, 81.26275)" x="82.755278" y="81.26275">2</text>
     </g>
    </g>
    <g id="xtick_4">
     <g id="line2d_4">
      <g>
       <use style="stroke:#000000;stroke-width:1.5;" x="112.366861" xlink:href="#m9da4351bd7" y="68.184"/>
      </g>
     </g>
     <g id="text_4">
      <text style="font-family:DejaVu Sans;font-size:8px;font-stretch:normal;font-style:normal;font-weight:normal;text-anchor:middle;" transform="rotate(-0, 112.366861, 81.26275)" x="112.366861" y="81.26275">3</text>
     </g>
    </g>
    <g id="text_5">
     <text style="font-family:DejaVu Sans;font-size:8px;font-stretch:normal;font-style:normal;font-weight:normal;text-anchor:middle;" transform="rotate(-0, 69.428214, 93.00525)" x="69.428214" y="93.00525">Time (seconds)</text>
    </g>
   </g>
   <g id="matplotlib.axis_2">
    <g id="text_6">
     <text style="font-family:DejaVu Sans;font-size:8px;font-stretch:normal;font-style:normal;font-weight:normal;text-anchor:middle;" transform="rotate(-90, 13.27875, 37.692)" x="13.27875" y="37.692">Energy</text>
    </g>
   </g>
   <g id="line2d_5">
    <path clip-path="url(#p4d5568c944)" d="M 23.53211 27.526326 
L 52.540358 27.503994 
L 52.581074 27.384213 
L 52.629193 25.293434 
L 52.710625 26.838311 
L 52.884593 27.291649 
L 52.895697 27.28454 
L 52.917906 27.110625 
L 52.95492 25.760637 
L 53.032651 26.931989 
L 53.169604 27.249888 
L 53.191813 27.192101 
L 53.23623 25.786547 
L 53.317662 26.982226 
L 53.443511 27.248561 
L 53.469421 27.139591 
L 53.506436 25.752049 
L 53.584166 26.981435 
L 53.717418 27.261431 
L 53.739627 27.200611 
L 53.780343 25.600847 
L 53.861775 27.006653 
L 54.00243 27.286809 
L 54.024639 27.197442 
L 54.065355 25.305095 
L 54.143085 26.991358 
L 54.305949 27.311969 
L 54.328157 27.27028 
L 54.354067 26.291317 
L 54.372575 25.054002 
L 54.457708 27.010978 
L 54.650183 27.345788 
L 54.664989 27.332424 
L 54.683496 27.0573 
L 54.716809 25.017854 
L 54.79454 27.004546 
L 55.020328 27.375418 
L 55.053641 27.308722 
L 55.098059 25.08816 
L 55.17949 27.055365 
L 55.40898 27.394629 
L 55.449696 27.356993 
L 55.453398 27.331966 
L 55.486711 25.536336 
L 55.497815 25.116522 
L 55.571844 27.049258 
L 55.808737 27.407545 
L 55.904974 27.402422 
L 55.916079 27.355962 
L 55.949392 25.941205 
L 55.960496 25.514425 
L 56.041928 27.124684 
L 56.275119 27.4214 
L 56.393565 27.406427 
L 56.400968 27.376028 
L 56.434281 26.210825 
L 56.445386 25.714716 
L 56.530519 27.158728 
L 56.76371 27.429422 
L 56.926574 27.413529 
L 56.933977 27.378353 
L 56.978394 25.955112 
L 57.063527 27.192284 
L 57.296719 27.438651 
L 57.511403 27.426103 
L 57.518805 27.397121 
L 57.55582 26.434441 
L 57.566924 26.156793 
L 57.648356 27.211421 
L 57.881547 27.44344 
L 58.166559 27.424758 
L 58.199872 27.068206 
L 58.222081 26.356352 
L 58.303512 27.236203 
L 58.536704 27.449074 
L 59.091921 27.497053 
L 62.282569 27.52783 
L 90.254411 27.431342 
L 90.291426 25.93741 
L 90.306231 25.287863 
L 90.391365 26.850957 
L 90.561631 27.28599 
L 90.572736 27.276156 
L 90.594944 27.039868 
L 90.628257 25.742098 
L 90.705988 26.912719 
L 90.842941 27.240103 
L 90.86515 27.172181 
L 90.905866 25.784619 
L 90.990999 26.975262 
L 91.105744 27.226732 
L 91.131654 27.114712 
L 91.168669 25.759841 
L 91.246399 26.971332 
L 91.372248 27.242457 
L 91.394457 27.144697 
L 91.431472 25.66433 
L 91.509202 26.98414 
L 91.642454 27.259311 
L 91.664663 27.165672 
L 91.701677 25.441711 
L 91.779408 26.984223 
L 91.927466 27.287622 
L 91.949674 27.223801 
L 91.99039 25.127651 
L 92.075524 27.003769 
L 92.253193 27.325417 
L 92.2717 27.28953 
L 92.29761 26.397189 
L 92.319819 24.995688 
L 92.401251 27.015497 
L 92.601129 27.352177 
L 92.612234 27.342734 
L 92.630741 27.192189 
L 92.667755 24.881834 
L 92.745486 27.005004 
L 92.974975 27.382775 
L 93.01199 27.362061 
L 93.019393 27.326069 
L 93.049004 25.873465 
L 93.06381 25.072465 
L 93.145242 27.060801 
L 93.378433 27.401423 
L 93.437656 27.377497 
L 93.445059 27.339596 
L 93.478372 25.713966 
L 93.489477 25.293268 
L 93.567207 27.08654 
L 93.800398 27.410245 
L 93.896636 27.400942 
L 93.90774 27.347507 
L 93.952158 25.555684 
L 94.03359 27.136667 
L 94.266781 27.422482 
L 94.385227 27.401155 
L 94.39263 27.363559 
L 94.437047 25.730264 
L 94.518479 27.159342 
L 94.755372 27.430841 
L 94.933041 27.412389 
L 94.936743 27.39679 
L 94.970056 26.619388 
L 94.984862 26.027632 
L 95.069995 27.203159 
L 95.303186 27.438209 
L 95.554885 27.416669 
L 95.558586 27.402722 
L 95.599302 26.453168 
L 95.606705 26.317277 
L 95.680734 27.212073 
L 95.913925 27.443033 
L 96.33589 27.459215 
L 96.372905 27.312703 
L 96.413621 26.525945 
L 96.48765 27.239596 
L 96.717139 27.449745 
L 97.242745 27.49558 
L 99.526538 27.527483 
L 112.36316 27.527848 
L 112.36316 27.527848 
" style="fill:none;stroke:#666666;stroke-linecap:square;stroke-width:0.6;"/>
   </g>
   <g id="line2d_6">
    <path clip-path="url(#p4d5568c944)" d="M 23.53211 47.855514 
L 28.97694 47.770304 
L 29.010253 46.248325 
L 29.032462 44.17105 
L 29.113894 47.364634 
L 29.335981 47.674379 
L 29.51365 47.714998 
L 29.524755 47.66762 
L 29.550665 46.032246 
L 29.583978 40.585194 
L 29.654305 47.055752 
L 29.872691 47.573598 
L 30.124389 47.696821 
L 30.131792 47.6866 
L 30.150299 47.387019 
L 30.20212 40.906982 
L 30.261343 47.089972 
L 30.48343 47.589079 
L 30.779545 47.728294 
L 30.812859 47.609192 
L 30.86838 41.308633 
L 30.931305 47.206544 
L 31.160795 47.642463 
L 31.497626 47.776926 
L 31.638281 47.726347 
L 31.641983 47.695045 
L 31.675296 44.891302 
L 31.697505 42.492389 
L 31.771534 47.378418 
L 32.008426 47.70647 
L 32.393377 47.810987 
L 32.778327 47.748705 
L 32.807939 46.524931 
L 32.833849 43.918984 
L 32.91158 47.518439 
L 33.159577 47.757565 
L 33.637063 47.836087 
L 36.146645 47.847164 
L 65.958107 47.757884 
L 65.99142 46.012859 
L 66.013629 44.167912 
L 66.091359 47.346566 
L 66.309744 47.665268 
L 66.487414 47.713062 
L 66.50222 47.657561 
L 66.52813 45.927274 
L 66.561443 40.787064 
L 66.63177 47.055366 
L 66.853857 47.570053 
L 67.075944 47.682248 
L 67.087048 47.661904 
L 67.101854 47.30228 
L 67.153675 40.863013 
L 67.212898 47.067406 
L 67.434985 47.574454 
L 67.70519 47.701132 
L 67.708892 47.69592 
L 67.727399 47.574311 
L 67.782921 41.254166 
L 67.845845 47.179192 
L 68.075335 47.625065 
L 68.401062 47.757559 
L 68.456584 47.660957 
L 68.489897 44.378986 
L 68.512106 41.872208 
L 68.586135 47.322846 
L 68.819326 47.68418 
L 69.182068 47.799031 
L 69.433766 47.7465 
L 69.463378 46.520492 
L 69.49299 43.323751 
L 69.567019 47.467629 
L 69.811314 47.740676 
L 70.248085 47.829252 
L 71.865618 47.830323 
L 72.109913 47.718385 
L 72.158032 45.155943 
L 72.224658 47.585054 
L 72.48376 47.774737 
L 73.057484 47.836575 
L 73.657119 47.753345 
L 73.690432 46.173228 
L 73.708939 44.885465 
L 73.790371 47.623124 
L 74.053174 47.795074 
L 74.68242 47.850707 
L 80.830525 47.855739 
L 104.001589 47.776505 
L 104.0312 46.958038 
L 104.057111 44.361092 
L 104.138542 47.361583 
L 104.360629 47.669182 
L 104.512389 47.705179 
L 104.523493 47.667536 
L 104.549403 46.156485 
L 104.586418 40.460518 
L 104.653044 47.014922 
L 104.871429 47.555664 
L 105.097217 47.68108 
L 105.108322 47.664098 
L 105.123128 47.470174 
L 105.174948 40.718748 
L 105.234171 47.04182 
L 105.456258 47.566736 
L 105.726464 47.700731 
L 105.730165 47.697165 
L 105.752374 47.469579 
L 105.804194 41.176062 
L 105.863417 47.148932 
L 106.089206 47.61234 
L 106.403829 47.750884 
L 106.45935 47.639236 
L 106.500066 42.710153 
L 106.514872 41.732672 
L 106.574095 47.260799 
L 106.803585 47.665661 
L 107.144118 47.791314 
L 107.432831 47.739557 
L 107.462443 46.346773 
L 107.488353 43.295009 
L 107.566083 47.463233 
L 107.810379 47.73773 
L 108.239747 47.826336 
L 109.020752 47.772378 
L 109.050364 47.072757 
L 109.076274 44.925462 
L 109.154004 47.592988 
L 109.416807 47.782123 
L 110.005337 47.844165 
L 112.36316 47.853498 
L 112.36316 47.853498 
" style="fill:none;stroke:#666666;stroke-linecap:square;stroke-width:0.6;"/>
   </g>
   <g id="line2d_7">
    <path clip-path="url(#p4d5568c944)" d="M 23.53211 68.183138 
L 35.572921 68.089672 
L 35.628442 66.977662 
L 35.717277 67.798111 
L 35.909752 68.032549 
L 35.913454 68.030636 
L 35.939364 67.869018 
L 35.983781 66.782064 
L 36.054109 67.736373 
L 36.23548 68.001012 
L 36.250286 67.984127 
L 36.279897 67.550826 
L 36.305807 66.5978 
L 36.383538 67.7479 
L 36.557506 68.00205 
L 36.579714 67.969681 
L 36.613027 67.069819 
L 36.631535 66.401002 
L 36.712967 67.759144 
L 36.912845 68.017643 
L 36.927651 68.002013 
L 36.946158 67.682113 
L 36.986874 66.280014 
L 37.0535 67.744378 
L 37.294094 68.048823 
L 37.331108 68.004879 
L 37.33481 67.975229 
L 37.382929 66.288102 
L 37.453256 67.7797 
L 37.704955 68.067958 
L 37.775282 68.054348 
L 37.786386 67.993395 
L 37.834505 66.460959 
L 37.904833 67.821627 
L 38.163934 68.082432 
L 38.274978 68.067254 
L 38.28238 68.033497 
L 38.334201 66.577546 
L 38.40823 67.861583 
L 38.671033 68.09453 
L 38.848702 68.083981 
L 38.856105 68.054758 
L 38.900522 66.937045 
L 38.907925 66.827711 
L 38.967148 67.872816 
L 39.229951 68.099032 
L 39.496455 68.095295 
L 39.500157 68.081672 
L 39.544574 67.18391 
L 39.555679 66.99607 
L 39.629708 67.923361 
L 39.899913 68.113618 
L 40.192328 68.094468 
L 40.196029 68.078804 
L 40.251551 67.067078 
L 40.32558 67.938201 
L 40.603188 68.120337 
L 40.91411 68.082987 
L 40.969632 67.114426 
L 41.047362 67.950981 
L 41.324971 68.12405 
L 41.750637 68.108258 
L 41.795055 67.619813 
L 41.80986 67.27433 
L 41.894994 67.974376 
L 42.172602 68.130321 
L 42.60197 68.111589 
L 42.646388 67.644961 
L 42.664895 67.289055 
L 42.746327 67.976543 
L 43.023935 68.132177 
L 43.59766 68.132973 
L 43.630973 67.946201 
L 43.671689 67.425427 
L 43.738315 67.967738 
L 44.001118 68.129898 
L 44.526723 68.132736 
L 44.560036 67.921831 
L 44.600752 67.367704 
L 44.663677 67.959409 
L 44.922778 68.128728 
L 45.481697 68.147936 
L 45.522413 68.026397 
L 45.570532 67.300248 
L 45.637158 67.961542 
L 45.903662 68.13186 
L 46.521804 68.15926 
L 46.632847 68.058217 
L 46.684667 67.432231 
L 46.751293 67.97386 
L 47.010395 68.134011 
L 47.639641 68.159621 
L 47.735879 68.055797 
L 47.787699 67.411549 
L 47.854325 67.971961 
L 48.113426 68.134812 
L 48.775985 68.16713 
L 49.012878 68.065232 
L 49.064698 67.424295 
L 49.131324 67.970246 
L 49.386724 68.135345 
L 50.038179 68.170655 
L 51.059779 68.082878 
L 51.115301 67.450977 
L 51.181927 67.969944 
L 51.429924 68.137332 
L 52.081378 68.173925 
L 62.882204 68.183355 
L 73.871803 68.080147 
L 73.927324 67.013578 
L 74.012458 67.791816 
L 74.208634 68.0414 
L 74.212336 68.039906 
L 74.245649 67.950958 
L 74.293768 66.860327 
L 74.367797 67.75795 
L 74.545466 68.003463 
L 74.560272 67.983299 
L 74.589883 67.546979 
L 74.615794 66.646652 
L 74.693524 67.757079 
L 74.874895 68.004861 
L 74.893402 67.97439 
L 74.926715 67.093525 
L 74.945222 66.438133 
L 75.026654 67.766526 
L 75.226533 68.021902 
L 75.241338 68.003176 
L 75.27095 67.500931 
L 75.29686 66.260412 
L 75.37459 67.765149 
L 75.615185 68.052196 
L 75.6559 67.949568 
L 75.704019 66.273568 
L 75.770645 67.777427 
L 76.022344 68.069073 
L 76.11488 68.057018 
L 76.122283 68.024287 
L 76.174103 66.496626 
L 76.248132 67.838641 
L 76.507233 68.087229 
L 76.633083 68.070959 
L 76.640486 68.031504 
L 76.692306 66.627061 
L 76.762633 67.863826 
L 77.025436 68.095972 
L 77.24012 68.08838 
L 77.247523 68.059662 
L 77.299343 66.917424 
L 77.377074 67.91278 
L 77.647279 68.110218 
L 77.891575 68.080011 
L 77.935992 67.203872 
L 77.947097 67.008007 
L 78.021126 67.925228 
L 78.295033 68.11566 
L 78.605954 68.097108 
L 78.609656 68.081791 
L 78.665178 67.123104 
L 78.739207 67.944018 
L 79.013114 68.121113 
L 79.383259 68.098402 
L 79.427676 67.44778 
L 79.442482 67.198198 
L 79.520212 67.9597 
L 79.797821 68.126658 
L 80.212383 68.108092 
L 80.2568 67.594276 
L 80.271606 67.277473 
L 80.356739 67.975406 
L 80.634348 68.131174 
L 81.063716 68.112045 
L 81.108133 67.699915 
L 81.126641 67.331523 
L 81.208072 67.979652 
L 81.485681 68.133228 
L 81.944661 68.112083 
L 81.989078 67.752264 
L 82.007585 67.396862 
L 82.089017 67.98568 
L 82.362924 68.134857 
L 82.818202 68.107603 
L 82.86262 67.585584 
L 82.877425 67.29662 
L 82.958857 67.979343 
L 83.236466 68.135726 
L 83.880518 68.146202 
L 83.924935 68.027296 
L 83.973054 67.418842 
L 84.03968 67.972097 
L 84.302483 68.133691 
L 84.924326 68.157323 
L 84.998355 68.050127 
L 85.046474 67.378164 
L 85.1131 67.965903 
L 85.372201 68.133078 
L 86.005149 68.166122 
L 86.275355 68.078383 
L 86.330876 67.469861 
L 86.397502 67.976913 
L 86.652902 68.136055 
L 87.31176 68.166541 
L 87.581966 68.055487 
L 87.633786 67.447756 
L 87.700412 67.972737 
L 87.955812 68.136544 
L 88.622073 68.172309 
L 111.497021 68.166005 
L 111.604363 68.048786 
L 111.656183 66.9889 
L 111.730212 67.74824 
L 111.926389 68.031799 
L 111.959702 67.944721 
L 112.007821 66.804857 
L 112.08185 67.745451 
L 112.252116 67.996215 
L 112.270624 67.965763 
L 112.303937 67.213294 
L 112.322444 66.574947 
L 112.36316 67.616208 
L 112.36316 67.616208 
" style="fill:none;stroke:#666666;stroke-linecap:square;stroke-width:0.6;"/>
   </g>
   <g id="line2d_8">
    <path clip-path="url(#p4d5568c944)" d="M 115.324318 65.72 
L 115.324318 59.56 
" style="fill:none;stroke:#000000;stroke-linecap:square;stroke-width:1.5;"/>
   </g>
   <g id="patch_3">
    <path d="M 18.9425 68.184 
L 18.9425 7.2 
" style="fill:none;stroke:#000000;stroke-linecap:square;stroke-linejoin:miter;stroke-width:1.5;"/>
   </g>
   <g id="patch_4">
    <path d="M 18.9425 68.184 
L 119.913929 68.184 
" style="fill:none;stroke:#000000;stroke-linecap:square;stroke-linejoin:miter;stroke-width:1.5;"/>
   </g>
  </g>
  <g id="axes_2">
   <g id="patch_5">
    <path d="M 130.011071 68.184 
L 230.9825 68.184 
L 230.9825 7.2 
L 130.011071 7.2 
z
" style="fill:none;"/>
   </g>
   <g id="matplotlib.axis_3">
    <g id="xtick_5">
     <g id="line2d_9">
      <g>
       <use style="stroke:#000000;stroke-width:1.5;" x="134.600682" xlink:href="#m9da4351bd7" y="68.184"/>
      </g>
     </g>
     <g id="text_7">
      <text style="font-family:DejaVu Sans;font-size:8px;font-stretch:normal;font-style:normal;font-weight:normal;text-anchor:middle;" transform="rotate(-0, 134.600682, 81.26275)" x="134.600682" y="81.26275">0</text>
     </g>
    </g>
    <g id="xtick_6">
     <g id="line2d_10">
      <g>
       <use style="stroke:#000000;stroke-width:1.5;" x="164.212265" xlink:href="#m9da4351bd7" y="68.184"/>
      </g>
     </g>
     <g id="text_8">
      <text style="font-family:DejaVu Sans;font-size:8px;font-stretch:normal;font-style:normal;font-weight:normal;text-anchor:middle;" transform="rotate(-0, 164.212265, 81.26275)" x="164.212265" y="81.26275">1</text>
     </g>
    </g>
    <g id="xtick_7">
     <g id="line2d_11">
      <g>
       <use style="stroke:#000000;stroke-width:1.5;" x="193.823849" xlink:href="#m9da4351bd7" y="68.184"/>
      </g>
     </g>
     <g id="text_9">
      <text style="font-family:DejaVu Sans;font-size:8px;font-stretch:normal;font-style:normal;font-weight:normal;text-anchor:middle;" transform="rotate(-0, 193.823849, 81.26275)" x="193.823849" y="81.26275">2</text>
     </g>
    </g>
    <g id="xtick_8">
     <g id="line2d_12">
      <g>
       <use style="stroke:#000000;stroke-width:1.5;" x="223.435433" xlink:href="#m9da4351bd7" y="68.184"/>
      </g>
     </g>
     <g id="text_10">
      <text style="font-family:DejaVu Sans;font-size:8px;font-stretch:normal;font-style:normal;font-weight:normal;text-anchor:middle;" transform="rotate(-0, 223.435433, 81.26275)" x="223.435433" y="81.26275">3</text>
     </g>
    </g>
    <g id="text_11">
     <text style="font-family:DejaVu Sans;font-size:8px;font-stretch:normal;font-style:normal;font-weight:normal;text-anchor:middle;" transform="rotate(-0, 180.496786, 93.00525)" x="180.496786" y="93.00525">Time (seconds)</text>
    </g>
   </g>
   <g id="matplotlib.axis_4"/>
   <g id="line2d_13">
    <path clip-path="url(#pba67e9d695)" d="M 134.600682 27.527891 
L 146.319466 27.423212 
L 146.334272 27.438548 
L 146.356481 23.737536 
L 146.397196 15.298917 
L 146.463823 24.656022 
L 146.645193 26.801726 
L 146.652596 26.789515 
L 146.663701 26.111883 
L 146.719222 13.513138 
L 146.778446 24.742593 
L 146.974622 26.799268 
L 146.985727 26.812204 
L 146.996831 26.64921 
L 147.059756 11.728163 
L 147.118979 24.916936 
L 147.304051 26.768085 
L 147.344767 26.897755 
L 147.359573 26.722103 
L 147.422498 10.766051 
L 147.481721 25.022037 
L 147.637182 26.630393 
L 147.737121 27.009218 
L 147.755628 26.713798 
L 147.818552 10.702034 
L 147.870373 24.64543 
L 147.996222 26.470151 
L 148.162787 27.106974 
L 148.181294 26.97823 
L 148.22201 15.765579 
L 148.24792 11.207021 
L 148.303442 25.307749 
L 148.440396 26.638013 
L 148.621767 27.189414 
L 148.640274 27.112953 
L 148.662483 24.097337 
L 148.710601 11.832071 
L 148.766123 25.547261 
L 148.91048 26.737798 
L 149.128865 27.258418 
L 149.132566 27.256034 
L 149.151074 27.164801 
L 149.180685 22.21978 
L 149.221401 13.307233 
L 149.280624 25.897605 
L 149.469398 26.988049 
L 149.684082 27.313948 
L 149.687784 27.312584 
L 149.713694 27.189733 
L 149.75441 18.951478 
L 149.78032 14.99361 
L 149.839543 26.040683 
L 150.039421 27.063773 
L 150.26521 27.347774 
L 150.320731 27.250925 
L 150.350343 23.631658 
L 150.387357 16.496638 
L 150.450282 26.195289 
L 150.683473 27.181755 
L 150.916664 27.383733 
L 151.046215 27.366787 
L 151.053618 27.326527 
L 151.079528 25.830519 
L 151.120244 18.964516 
L 151.18687 26.382763 
L 151.427464 27.247926 
L 151.668058 27.399981 
L 151.786505 27.347813 
L 151.790206 27.311233 
L 151.823519 23.963467 
L 151.853131 19.373976 
L 151.923458 26.423414 
L 152.164052 27.262793 
L 152.415751 27.412746 
L 153.115324 27.490849 
L 155.772964 27.527817 
L 180.642993 27.455539 
L 180.672604 26.400546 
L 180.720723 15.636547 
L 180.791051 24.583685 
L 180.939109 26.562464 
L 180.953915 26.30036 
L 181.009436 14.068628 
L 181.068659 24.577821 
L 181.231523 26.508181 
L 181.242627 26.301635 
L 181.301851 12.211681 
L 181.361074 24.706563 
L 181.538743 26.598612 
L 181.546146 26.576503 
L 181.560952 24.589322 
L 181.612772 10.858196 
L 181.668294 24.588557 
L 181.808949 26.409466 
L 181.879277 26.746984 
L 181.894082 26.301763 
L 181.953305 10.284314 
L 182.008827 24.67074 
L 182.142079 26.41291 
L 182.24572 26.884345 
L 182.260526 26.714813 
L 182.327152 10.201809 
L 182.382673 25.104855 
L 182.523328 26.548297 
L 182.645476 27.006186 
L 182.663983 26.85693 
L 182.73061 10.784159 
L 182.786131 25.276578 
L 182.926786 26.615316 
L 183.082247 27.106475 
L 183.100754 27.023715 
L 183.122963 23.524076 
L 183.171082 11.619724 
L 183.226604 25.538131 
L 183.374661 26.721501 
L 183.563435 27.189478 
L 183.578241 27.148024 
L 183.596748 25.855988 
L 183.65227 12.951951 
L 183.707792 25.755545 
L 183.866954 26.832712 
L 184.081638 27.251461 
L 184.08534 27.249876 
L 184.107548 27.151293 
L 184.13716 22.478961 
L 184.174174 14.387711 
L 184.237099 26.004951 
L 184.448081 27.059847 
L 184.666467 27.309801 
L 184.69978 27.225078 
L 184.72569 24.658975 
L 184.766406 16.627312 
L 184.829331 26.180287 
L 185.062522 27.159513 
L 185.28831 27.340142 
L 185.325325 27.256328 
L 185.351235 25.090842 
L 185.391951 17.845338 
L 185.454875 26.278965 
L 185.691768 27.196545 
L 185.924959 27.362683 
L 186.013794 27.334228 
L 186.021197 27.276565 
L 186.050808 24.58091 
L 186.084121 19.297385 
L 186.150747 26.397537 
L 186.391342 27.237945 
L 186.620831 27.362149 
L 186.657846 27.293223 
L 186.683756 25.582309 
L 186.724472 18.86963 
L 186.787397 26.358405 
L 187.027991 27.233852 
L 187.272286 27.3904 
L 187.953353 27.482039 
L 190.355592 27.527813 
L 213.271257 27.436692 
L 213.286062 27.466528 
L 213.30457 25.191368 
L 213.348987 15.36542 
L 213.415613 24.475409 
L 213.571074 26.547107 
L 213.582178 26.325061 
L 213.6377 13.92578 
L 213.700625 24.607545 
L 213.856085 26.473474 
L 213.870891 26.180776 
L 213.926413 12.220336 
L 213.985636 24.592804 
L 214.163306 26.559529 
L 214.17441 26.436281 
L 214.237335 10.971653 
L 214.300259 24.929296 
L 214.492734 26.698172 
L 214.500137 26.680549 
L 214.511242 25.852169 
L 214.570465 10.285462 
L 214.625987 24.796042 
L 214.766642 26.454145 
L 214.855476 26.844409 
L 214.870282 26.612978 
L 214.933207 10.213647 
L 214.988728 24.915598 
L 215.121981 26.470567 
L 215.244128 26.965601 
L 215.262636 26.755101 
L 215.329262 10.499839 
L 215.381082 25.023448 
L 215.510633 26.513784 
L 215.673496 27.072717 
L 215.688302 27.005181 
L 215.710511 23.552593 
L 215.75863 11.432924 
L 215.814151 25.470258 
L 215.958508 26.682764 
L 216.136177 27.158527 
L 216.154685 27.109365 
L 216.173192 25.485532 
L 216.225012 12.656174 
L 216.280534 25.622194 
L 216.42489 26.742172 
L 216.643276 27.226835 
L 216.646977 27.225506 
L 216.669186 27.130722 
L 216.698797 22.26629 
L 216.735812 14.147588 
L 216.798737 25.97644 
L 217.006018 27.038487 
L 217.202194 27.280943 
L 217.213299 27.272805 
L 217.231806 27.168775 
L 217.265119 21.82031 
L 217.298432 16.033776 
L 217.361357 26.146092 
L 217.594548 27.144953 
L 217.798127 27.314514 
L 217.80553 27.308579 
L 217.827739 27.152251 
L 217.890664 17.024296 
L 217.949887 26.185911 
L 218.168272 27.133799 
L 218.397762 27.345789 
L 218.490298 27.331131 
L 218.501403 27.267482 
L 218.531014 24.547824 
L 218.564327 19.141736 
L 218.630953 26.383576 
L 218.871547 27.228471 
L 219.101037 27.353033 
L 219.13435 27.260092 
L 219.163962 24.342029 
L 219.197275 18.87923 
L 219.263901 26.373262 
L 219.504495 27.231663 
L 219.745089 27.376112 
L 223.17263 27.527811 
L 223.431731 27.527811 
L 223.431731 27.527811 
" style="fill:none;stroke:#666666;stroke-linecap:square;stroke-width:0.6;"/>
   </g>
   <g id="line2d_14">
    <path clip-path="url(#pba67e9d695)" d="M 134.600682 47.855581 
L 159.389279 47.757852 
L 159.422592 46.401732 
L 159.4448 44.619555 
L 159.526232 47.051848 
L 159.681693 47.460736 
L 159.7002 47.404429 
L 159.726111 44.885605 
L 159.752021 41.902246 
L 159.82605 46.593849 
L 159.988913 47.240778 
L 160.007421 47.083631 
L 160.055539 41.170788 
L 160.125867 46.510795 
L 160.285029 47.170175 
L 160.303536 46.986837 
L 160.347954 41.162248 
L 160.418281 46.545188 
L 160.577444 47.180772 
L 160.595951 47.054549 
L 160.64407 41.231004 
L 160.710696 46.616349 
L 160.880962 47.234345 
L 160.895768 47.137687 
L 160.943887 41.267844 
L 161.014214 46.70949 
L 161.195585 47.300724 
L 161.210391 47.227794 
L 161.236301 43.878337 
L 161.262211 41.250748 
L 161.328837 46.780294 
L 161.532417 47.373245 
L 161.547223 47.320943 
L 161.569432 45.175557 
L 161.599043 41.276745 
L 161.669371 46.8689 
L 161.89886 47.449741 
L 161.909965 47.438845 
L 161.924771 47.23298 
L 161.972889 41.522144 
L 162.035814 46.937557 
L 162.283811 47.513526 
L 162.309721 47.512931 
L 162.324527 47.444709 
L 162.350437 44.910292 
L 162.376347 41.795736 
L 162.450376 47.056317 
L 162.702075 47.561472 
L 162.761298 47.582447 
L 162.779805 47.506308 
L 162.809417 44.578759 
L 162.831625 42.342273 
L 162.905654 47.146566 
L 163.157353 47.594266 
L 163.268396 47.631169 
L 163.283202 47.588308 
L 163.305411 46.664392 
L 163.338724 42.964721 
L 163.409051 47.219066 
L 163.664451 47.623833 
L 163.838419 47.668245 
L 163.849524 47.640302 
L 163.864329 47.220553 
L 163.908747 43.796749 
L 163.971671 47.289112 
L 164.227071 47.648377 
L 164.463964 47.690079 
L 164.467665 47.683264 
L 164.486173 47.468295 
L 164.53059 44.511918 
L 164.597216 47.364839 
L 164.856317 47.674986 
L 165.115419 47.703029 
L 165.133926 47.494056 
L 165.178343 44.770522 
L 165.244969 47.399542 
L 165.507772 47.690177 
L 165.803888 47.721099 
L 165.826097 47.597776 
L 165.870514 45.116875 
L 165.940842 47.440905 
L 166.211047 47.707975 
L 166.610804 47.766663 
L 176.201255 47.855251 
L 194.752913 47.799902 
L 194.77142 47.498859 
L 194.819539 44.560615 
L 194.782524 47.586118 
L 194.886165 47.002813 
L 195.060133 47.477654 
L 195.07864 47.422444 
L 195.100849 45.684165 
L 195.134162 41.747794 
L 195.204489 46.597452 
L 195.374756 47.263871 
L 195.393263 47.150117 
L 195.441382 41.10468 
L 195.515411 46.543845 
L 195.678274 47.201375 
L 195.696782 47.081989 
L 195.744901 41.148967 
L 195.815228 46.58083 
L 195.981793 47.210423 
L 195.996599 47.113258 
L 196.044718 41.194928 
L 196.115045 46.650396 
L 196.289013 47.263508 
L 196.307521 47.147515 
L 196.355639 41.269158 
L 196.425967 46.736475 
L 196.614741 47.328417 
L 196.633248 47.228006 
L 196.681367 41.302648 
L 196.751694 46.813327 
L 196.966378 47.401373 
L 196.977483 47.378041 
L 196.992289 46.726705 
L 197.036706 41.426053 
L 197.099631 46.879024 
L 197.343926 47.475493 
L 197.369836 47.37676 
L 197.403149 43.069164 
L 197.421656 41.719386 
L 197.484581 46.969236 
L 197.732578 47.526873 
L 197.776995 47.543073 
L 197.795503 47.467381 
L 197.821413 45.080137 
L 197.847323 42.212677 
L 197.921352 47.098634 
L 198.17305 47.574656 
L 198.247079 47.597384 
L 198.265587 47.517629 
L 198.295198 44.756727 
L 198.317407 42.710124 
L 198.391436 47.181063 
L 198.646836 47.607858 
L 198.772685 47.643252 
L 198.787491 47.600253 
L 198.809699 46.794153 
L 198.843012 43.363656 
L 198.91334 47.251175 
L 199.16874 47.633375 
L 199.350111 47.680728 
L 199.364917 47.647198 
L 199.379722 47.258315 
L 199.42414 43.976558 
L 199.487064 47.306516 
L 199.742464 47.654129 
L 199.994163 47.692975 
L 200.016371 47.324975 
L 200.057087 44.619601 
L 200.123713 47.374972 
L 200.386516 47.681001 
L 200.682632 47.720664 
L 200.712244 47.511632 
L 200.75296 45.23729 
L 200.823287 47.43682 
L 201.093493 47.703657 
L 201.471041 47.749079 
L 204.89488 47.855327 
L 223.431731 47.855476 
L 223.431731 47.855476 
" style="fill:none;stroke:#666666;stroke-linecap:square;stroke-width:0.6;"/>
   </g>
   <g id="line2d_15">
    <path clip-path="url(#pba67e9d695)" d="M 134.600682 68.181751 
L 136.173797 68.091574 
L 136.188603 68.092768 
L 136.20711 65.126025 
L 136.251528 53.614661 
L 136.318154 64.534951 
L 136.506928 67.499451 
L 136.525435 67.545405 
L 136.540241 67.239316 
L 136.595762 54.654255 
L 136.654985 65.243607 
L 136.862267 67.638768 
L 136.891878 67.702455 
L 136.906684 67.541798 
L 136.965907 53.073828 
L 137.032533 65.559435 
L 137.250919 67.707019 
L 137.295336 67.800181 
L 137.313843 67.622172 
L 137.376768 52.240486 
L 137.435991 65.634228 
L 137.650675 67.683355 
L 137.735808 67.874967 
L 137.754315 67.725755 
L 137.81724 52.135467 
L 137.880165 65.858421 
L 138.102252 67.733036 
L 138.205892 67.937094 
L 138.224399 67.863024 
L 138.246608 64.912479 
L 138.291025 52.642732 
L 138.35395 66.037675 
L 138.579738 67.767426 
L 138.698185 67.968921 
L 138.716692 67.908552 
L 138.738901 65.413413 
L 138.783318 53.0734 
L 138.846243 66.15144 
L 139.072031 67.780882 
L 139.208985 67.994571 
L 139.227492 67.937391 
L 139.2497 65.704575 
L 139.294118 53.274499 
L 139.357042 66.223108 
L 139.579129 67.777495 
L 139.73459 68.013216 
L 139.753097 67.966068 
L 139.775306 66.176544 
L 139.823425 53.451115 
L 139.882648 66.263644 
L 140.101033 67.770129 
L 140.275002 68.025295 
L 140.289807 67.999254 
L 140.300912 67.797378 
L 140.363836 53.770875 
L 140.419358 66.254959 
L 140.615535 67.694238 
L 140.826517 68.038966 
L 140.852427 67.929871 
L 140.88574 61.257904 
L 140.919053 54.053238 
L 140.981978 66.417306 
L 141.218871 67.848221 
L 141.389137 68.042487 
L 141.403943 68.021676 
L 141.418749 67.642965 
L 141.477972 54.393317 
L 141.533494 66.311711 
L 141.722268 67.682429 
L 141.936952 68.046819 
L 141.966563 68.025228 
L 141.973966 67.974391 
L 141.999876 64.908128 
L 142.040592 54.363246 
L 142.103517 66.442181 
L 142.336708 67.842982 
L 142.52178 68.052943 
L 142.532885 68.04269 
L 142.547691 67.917823 
L 142.592108 57.258141 
L 142.610615 54.551258 
L 142.666137 66.341744 
L 142.854911 67.689936 
L 143.069595 68.052885 
L 143.110311 68.006891 
L 143.114012 67.966769 
L 143.139922 64.720603 
L 143.180638 54.465088 
L 143.243563 66.472654 
L 143.476754 67.848708 
L 143.654424 68.049107 
L 143.669229 68.028886 
L 143.684035 67.571536 
L 143.743258 54.189053 
L 143.802481 66.396351 
L 144.013464 67.770453 
L 144.228148 68.066792 
L 144.268864 68.048999 
L 144.276267 68.008099 
L 144.298475 66.431855 
L 144.342893 55.162453 
L 144.405817 66.508262 
L 144.639009 67.85871 
L 144.82038 68.057432 
L 144.835185 68.041616 
L 144.849991 67.8413 
L 144.912916 54.579424 
L 144.968438 66.394311 
L 145.172017 67.751349 
L 145.386701 68.065748 
L 145.427417 68.038158 
L 145.43482 67.967895 
L 145.464432 63.335014 
L 145.501446 54.808766 
L 145.564371 66.514404 
L 145.801263 67.867526 
L 145.993739 68.061473 
L 146.001142 68.054357 
L 146.019649 67.855273 
L 146.082573 54.931522 
L 146.138095 66.426989 
L 146.345376 67.76739 
L 146.574866 68.075267 
L 146.967219 68.158485 
L 148.462604 68.182123 
L 167.632403 68.110557 
L 167.662015 66.854563 
L 167.710134 54.228316 
L 167.780461 64.459255 
L 167.935922 67.161895 
L 167.950728 66.840827 
L 167.998847 55.41537 
L 168.065473 65.150477 
L 168.224635 67.267973 
L 168.239441 66.992262 
L 168.291261 53.647905 
L 168.354186 65.196892 
L 168.539258 67.388277 
L 168.550362 67.284655 
L 168.583675 56.53177 
L 168.609586 51.704865 
L 168.668809 65.243508 
L 168.872388 67.497003 
L 168.879791 67.507461 
L 168.894597 67.30992 
L 168.95382 50.218388 
L 169.016745 65.439112 
L 169.224026 67.552377 
L 169.253638 67.629252 
L 169.268443 67.497209 
L 169.305458 55.074494 
L 169.331368 49.784819 
L 169.38689 65.394512 
L 169.546052 67.291919 
L 169.653394 67.71505 
L 169.6682 67.575419 
L 169.708916 53.873558 
L 169.731124 49.664077 
L 169.782945 65.232484 
L 169.916197 67.11939 
L 170.071658 67.786147 
L 170.090165 67.636615 
L 170.138284 51.787156 
L 170.153089 49.75947 
L 170.197507 63.543706 
L 170.315953 66.992125 
L 170.519533 67.847768 
L 170.530637 67.818945 
L 170.545443 66.728145 
L 170.600965 50.367492 
L 170.660188 65.964465 
L 170.837857 67.506608 
L 170.982214 67.889548 
L 171.000721 67.789817 
L 171.026631 62.447978 
L 171.067347 50.85217 
L 171.12657 66.106766 
L 171.319046 67.601804 
L 171.455999 67.916115 
L 171.478208 67.793318 
L 171.511521 59.085089 
L 171.544834 51.021698 
L 171.604057 66.182201 
L 171.800234 67.631191 
L 171.951993 67.943358 
L 171.9705 67.853407 
L 171.99641 63.133366 
L 172.037126 51.415119 
L 172.09635 66.221391 
L 172.288825 67.627625 
L 172.451689 67.963231 
L 172.473897 67.904244 
L 172.492405 66.430065 
L 172.544225 51.776526 
L 172.603448 66.292939 
L 172.807028 67.684995 
L 172.96619 67.97141 
L 172.984697 67.913592 
L 173.003204 66.460407 
L 173.055025 51.962988 
L 173.114248 66.326501 
L 173.321529 67.705449 
L 173.495497 67.992553 
L 173.510303 67.964472 
L 173.521407 67.694203 
L 173.584332 52.725445 
L 173.636152 66.219183 
L 173.791613 67.491007 
L 174.009998 67.996132 
L 174.035908 67.975858 
L 174.043311 67.914267 
L 174.069221 64.038283 
L 174.109937 52.724222 
L 174.172862 66.421924 
L 174.39865 67.787077 
L 174.557812 68.0064 
L 174.57632 67.949811 
L 174.598528 65.791519 
L 174.646647 52.907004 
L 174.70587 66.415951 
L 174.924256 67.766875 
L 175.094522 68.009767 
L 175.109328 67.983719 
L 175.120433 67.736402 
L 175.183357 52.947876 
L 175.235177 66.24376 
L 175.390638 67.503816 
L 175.612725 68.012442 
L 175.646038 67.995 
L 175.653441 67.95297 
L 175.67565 65.82098 
L 175.723769 52.989219 
L 175.782992 66.427631 
L 176.001377 67.771933 
L 176.175345 68.018127 
L 176.190151 67.992448 
L 176.201255 67.740654 
L 176.26418 52.945464 
L 176.316 66.241571 
L 176.471461 67.506268 
L 176.693548 68.016137 
L 176.734264 68.016846 
L 176.745368 67.967205 
L 176.767577 66.066189 
L 176.815696 53.271107 
L 176.874919 66.442235 
L 177.093304 67.778502 
L 177.278377 68.027069 
L 177.289481 68.0107 
L 177.304287 67.622574 
L 177.367211 53.269585 
L 177.419032 66.309748 
L 177.585597 67.572648 
L 177.803982 68.025925 
L 177.844698 68.018531 
L 177.855803 67.948258 
L 177.881713 64.444155 
L 177.922429 53.670598 
L 177.985353 66.495072 
L 178.214843 67.823579 
L 178.381408 68.031603 
L 178.399915 68.003733 
L 178.41102 67.760907 
L 178.473944 53.317236 
L 178.525765 66.276226 
L 178.684927 67.537552 
L 178.907014 68.027088 
L 178.958834 68.028108 
L 178.969938 67.981335 
L 178.992147 66.243538 
L 179.040266 54.030028 
L 179.099489 66.490709 
L 179.325277 67.816684 
L 179.51035 68.03861 
L 179.521454 68.024629 
L 179.53626 67.760933 
L 179.599185 53.924959 
L 179.651005 66.344886 
L 179.821271 67.606492 
L 180.039657 68.036784 
L 180.084074 68.03832 
L 180.09888 67.951532 
L 180.128492 63.173919 
L 180.165506 54.073747 
L 180.228431 66.517917 
L 180.461622 67.843341 
L 180.683709 68.085001 
L 181.372178 68.176192 
L 186.039704 68.181849 
L 202.333478 68.06403 
L 202.370492 63.397913 
L 202.407507 54.293747 
L 202.477834 64.48594 
L 202.633295 67.14545 
L 202.6444 66.930669 
L 202.69622 55.49652 
L 202.762846 65.231291 
L 202.918307 67.253498 
L 202.929411 67.086982 
L 202.984933 53.647165 
L 203.051559 65.327696 
L 203.229228 67.373399 
L 203.240333 67.229586 
L 203.299556 51.700843 
L 203.366182 65.424385 
L 203.569762 67.500668 
L 203.577164 67.467442 
L 203.59197 65.58843 
L 203.64379 50.279905 
L 203.703014 65.395351 
L 203.902892 67.51429 
L 203.939906 67.614126 
L 203.954712 67.400385 
L 204.017637 49.663276 
L 204.073158 65.452269 
L 204.239724 67.34333 
L 204.335961 67.709135 
L 204.354468 67.36119 
L 204.417393 49.628495 
L 204.469213 65.452834 
L 204.61357 67.216041 
L 204.757926 67.788417 
L 204.772732 67.699539 
L 204.798642 61.719256 
L 204.839358 49.839663 
L 204.898581 65.859639 
L 205.083654 67.516537 
L 205.198399 67.840986 
L 205.216906 67.753456 
L 205.242816 62.107094 
L 205.283532 50.296855 
L 205.342755 65.990363 
L 205.527827 67.54404 
L 205.66108 67.883469 
L 205.679587 67.73872 
L 205.727706 52.745216 
L 205.746213 50.562819 
L 205.786929 64.246523 
L 205.909077 67.113311 
L 206.134865 67.913702 
L 206.157074 67.806316 
L 206.186685 60.944683 
L 206.2237 51.007231 
L 206.282923 66.172033 
L 206.475398 67.614406 
L 206.630859 67.943436 
L 206.649366 67.879654 
L 206.671575 65.026211 
L 206.719694 51.438389 
L 206.778917 66.26115 
L 206.986198 67.688496 
L 207.134256 67.958501 
L 207.152763 67.885827 
L 207.174972 64.992238 
L 207.219389 51.69471 
L 207.278612 66.243949 
L 207.463685 67.605741 
L 207.648757 67.974237 
L 207.663563 67.941132 
L 207.68207 66.953459 
L 207.73389 52.120518 
L 207.793114 66.291848 
L 207.981887 67.634256 
L 208.170661 67.985944 
L 208.181766 67.968262 
L 208.196571 67.399401 
L 208.255795 52.433874 
L 208.315018 66.329616 
L 208.507493 67.65934 
L 208.692565 67.996104 
L 208.707371 67.981077 
L 208.722177 67.682817 
L 208.785102 52.657457 
L 208.836922 66.222061 
L 208.992383 67.492267 
L 209.21447 68.001993 
L 209.24038 67.962637 
L 209.244081 67.925417 
L 209.26629 65.418216 
L 209.314409 52.418694 
L 209.373632 66.396676 
L 209.592017 67.759294 
L 209.769687 68.015785 
L 209.784493 67.996341 
L 209.799298 67.43165 
L 209.858522 53.134126 
L 209.917745 66.39675 
L 210.121324 67.719938 
L 210.310098 68.013584 
L 210.321203 67.99837 
L 210.336008 67.793734 
L 210.398933 53.08813 
L 210.454455 66.344125 
L 210.635826 67.632634 
L 210.846808 68.015184 
L 210.85051 68.01411 
L 210.872718 67.90496 
L 210.90233 62.319635 
L 210.939344 53.004771 
L 211.002269 66.468156 
L 211.23546 67.820447 
L 211.394623 68.024328 
L 211.41313 67.994438 
L 211.424234 67.743405 
L 211.487159 53.103753 
L 211.538979 66.26286 
L 211.69444 67.512393 
L 211.916527 68.018715 
L 211.953541 68.013602 
L 211.964645 67.96621 
L 211.986854 65.995892 
L 212.034973 53.040617 
L 212.094196 66.42824 
L 212.30888 67.763804 
L 212.508758 68.031178 
L 212.51246 68.027064 
L 212.530967 67.875508 
L 212.593892 53.572612 
L 212.656816 66.476866 
L 212.882605 67.808786 
L 213.078781 68.044396 
L 213.086184 68.039196 
L 213.104691 67.925369 
L 213.141706 59.816897 
L 213.171318 54.381059 
L 213.234242 66.557923 
L 213.471135 67.841195 
L 213.704326 68.08442 
L 214.178111 68.165999 
L 216.01403 68.182119 
L 223.431731 68.182202 
L 223.431731 68.182202 
" style="fill:none;stroke:#666666;stroke-linecap:square;stroke-width:0.6;"/>
   </g>
   <g id="line2d_16">
    <path clip-path="url(#pba67e9d695)" d="M 226.39289 65.72 
L 226.39289 59.56 
" style="fill:none;stroke:#000000;stroke-linecap:square;stroke-width:1.5;"/>
   </g>
   <g id="patch_6">
    <path d="M 130.011071 68.184 
L 130.011071 7.2 
" style="fill:none;stroke:#000000;stroke-linecap:square;stroke-linejoin:miter;stroke-width:1.5;"/>
   </g>
   <g id="patch_7">
    <path d="M 130.011071 68.184 
L 230.9825 68.184 
" style="fill:none;stroke:#000000;stroke-linecap:square;stroke-linejoin:miter;stroke-width:1.5;"/>
   </g>
  </g>
 </g>
 <defs>
  <clipPath id="p4d5568c944">
   <rect height="60.984" width="100.971429" x="18.9425" y="7.2"/>
  </clipPath>
  <clipPath id="pba67e9d695">
   <rect height="60.984" width="100.971429" x="130.011071" y="7.2"/>
  </clipPath>
 </defs>
</svg>
