<?xml version="1.0" encoding="utf-8" standalone="no"?>
<!DOCTYPE svg PUBLIC "-//W3C//DTD SVG 1.1//EN"
  "http://www.w3.org/Graphics/SVG/1.1/DTD/svg11.dtd">
<!-- Created with matplotlib (https://matplotlib.org/) -->
<svg height="30.708pt" version="1.1" viewBox="0 0 181.8 30.708" width="181.8pt" xmlns="http://www.w3.org/2000/svg" xmlns:xlink="http://www.w3.org/1999/xlink">
 <defs>
  <style type="text/css">
*{stroke-linecap:butt;stroke-linejoin:round;}
  </style>
 </defs>
 <g id="figure_1">
  <g id="patch_1">
   <path d="M 0 30.708 
L 181.8 30.708 
L 181.8 0 
L 0 0 
z
" style="fill:none;"/>
  </g>
  <g id="axes_1">
   <g id="patch_2">
    <path d="M 7.2 23.508 
L 174.6 23.508 
L 174.6 7.2 
L 7.2 7.2 
z
" style="fill:none;"/>
   </g>
   <g id="matplotlib.axis_1"/>
   <g id="matplotlib.axis_2"/>
   <g id="line2d_1">
    <path clip-path="url(#pf14b64293a)" d="M 14.809091 18.638355 
L 16.204285 18.211038 
L 16.880742 17.794101 
L 17.197832 17.343276 
L 17.345807 16.687649 
L 17.409225 15.289344 
L 17.514921 8.010352 
L 17.5572 9.619194 
L 17.810871 18.480069 
L 17.895429 18.859863 
L 17.937707 18.81409 
L 18.402772 17.850349 
L 18.698722 16.94504 
L 18.783279 16.024601 
L 18.888976 10.22994 
L 18.952394 12.641598 
L 19.227205 18.857499 
L 19.248344 18.835202 
L 19.565433 18.036122 
L 19.924801 16.779247 
L 20.009359 15.335356 
L 20.093916 10.829047 
L 20.136194 12.218012 
L 20.411005 18.696905 
L 20.432145 18.685069 
L 20.664677 18.060565 
L 21.045184 16.637468 
L 21.129742 14.896717 
L 21.193159 11.325535 
L 21.256577 12.837845 
L 21.510249 18.458194 
L 21.552527 18.420846 
L 21.911896 17.339558 
L 22.102149 16.397711 
L 22.165567 15.137276 
L 22.250124 11.960344 
L 22.292403 12.963337 
L 22.567214 18.169266 
L 22.588353 18.139102 
L 22.905443 17.190481 
L 23.095696 16.177651 
L 23.180254 13.875378 
L 23.222532 12.567274 
L 23.28595 13.469238 
L 23.539622 17.829549 
L 23.5819 17.78854 
L 23.87785 16.913331 
L 24.046965 15.872237 
L 24.173801 13.244739 
L 24.237219 14.006984 
L 24.49089 17.410846 
L 24.533169 17.376762 
L 24.765701 16.749434 
L 24.934815 15.862346 
L 25.082791 14.08632 
L 25.146208 14.464463 
L 25.421019 16.886602 
L 25.442159 16.880898 
L 25.590134 16.604323 
L 25.822666 15.703047 
L 25.970641 15.064657 
L 26.01292 15.110456 
L 26.372288 16.26083 
L 26.456845 16.179955 
L 26.90077 15.72589 
L 27.365835 15.929195 
L 27.936596 15.91352 
L 29.247233 16.023275 
L 32.819774 16.421176 
L 34.574336 16.810222 
L 36.26548 17.442378 
L 41.212076 19.383656 
L 43.981324 20.527577 
L 47.955513 22.275189 
L 49.435264 22.569324 
L 51.464637 22.725237 
L 55.185153 22.753699 
L 62.795301 22.563313 
L 74.125966 22.048427 
L 123.274837 19.351783 
L 127.143329 18.886441 
L 129.130423 18.447468 
L 130.123971 18.027055 
L 130.589035 17.620206 
L 130.821567 17.111102 
L 130.927264 16.217268 
L 130.990682 11.916047 
L 131.0541 7.941273 
L 131.096378 9.206472 
L 131.35005 18.303617 
L 131.434607 18.826942 
L 131.476886 18.790421 
L 131.878532 17.966352 
L 132.216761 16.98495 
L 132.301318 16.211512 
L 132.364736 12.47149 
L 132.407015 10.204583 
L 132.470433 12.348479 
L 132.745244 18.779101 
L 132.766383 18.766736 
L 132.998915 18.198122 
L 133.421701 16.762733 
L 133.506258 15.390096 
L 133.590816 10.985168 
L 133.654234 12.978111 
L 133.907905 18.550068 
L 133.950184 18.501105 
L 134.35183 17.304654 
L 134.520945 16.435713 
L 134.584363 15.113616 
L 134.647781 11.74207 
L 134.711199 12.865364 
L 134.986009 18.205417 
L 135.007149 18.176095 
L 135.324238 17.224556 
L 135.514492 16.230329 
L 135.599049 13.99217 
L 135.641328 12.539435 
L 135.704746 13.376749 
L 135.958417 17.74924 
L 136.000696 17.715712 
L 136.275507 16.894837 
L 136.444621 15.873333 
L 136.571457 13.466251 
L 136.656014 14.397391 
L 136.909686 17.137391 
L 136.930825 17.116947 
L 137.121079 16.617762 
L 137.311332 15.616491 
L 137.459307 14.650614 
L 137.501586 14.816545 
L 137.797536 16.338968 
L 137.818676 16.3293 
L 137.98779 16.028191 
L 138.28374 15.571531 
L 138.89678 15.77049 
L 139.446402 15.79334 
L 145.513381 16.326814 
L 147.627311 16.715541 
L 149.191619 17.241302 
L 158.260378 20.925848 
L 160.92393 22.136358 
L 162.319124 22.491781 
L 164.073686 22.691177 
L 166.990909 22.766727 
L 166.990909 22.766727 
" style="fill:none;stroke:#e31a1c;stroke-linecap:square;"/>
   </g>
  </g>
 </g>
 <defs>
  <clipPath id="pf14b64293a">
   <rect height="16.308" width="167.4" x="7.2" y="7.2"/>
  </clipPath>
 </defs>
</svg>
