<?xml version="1.0" encoding="utf-8" standalone="no"?>
<!DOCTYPE svg PUBLIC "-//W3C//DTD SVG 1.1//EN"
  "http://www.w3.org/Graphics/SVG/1.1/DTD/svg11.dtd">
<!-- Created with matplotlib (https://matplotlib.org/) -->
<svg height="30.708pt" version="1.1" viewBox="0 0 181.8 30.708" width="181.8pt" xmlns="http://www.w3.org/2000/svg" xmlns:xlink="http://www.w3.org/1999/xlink">
 <defs>
  <style type="text/css">
*{stroke-linecap:butt;stroke-linejoin:round;}
  </style>
 </defs>
 <g id="figure_1">
  <g id="patch_1">
   <path d="M 0 30.708 
L 181.8 30.708 
L 181.8 0 
L 0 0 
z
" style="fill:none;"/>
  </g>
  <g id="axes_1">
   <g id="patch_2">
    <path d="M 7.2 23.508 
L 174.6 23.508 
L 174.6 7.2 
L 7.2 7.2 
z
" style="fill:none;"/>
   </g>
   <g id="matplotlib.axis_1"/>
   <g id="matplotlib.axis_2"/>
   <g id="line2d_1">
    <path clip-path="url(#p2f436a1b62)" d="M 14.809091 20.576374 
L 16.979493 18.617338 
L 17.120428 18.025065 
L 17.176802 16.759389 
L 17.261363 7.969405 
L 17.317737 8.343379 
L 17.48686 11.57787 
L 18.0506 22.766727 
L 18.106974 22.752699 
L 18.81165 22.322915 
L 20.108254 21.27069 
L 23.124267 18.523873 
L 23.237015 17.933484 
L 23.293389 16.030423 
L 23.349763 7.950611 
L 23.434325 8.443055 
L 23.659821 12.924828 
L 23.913504 18.428805 
L 24.054439 22.627102 
L 24.195375 22.759575 
L 24.759115 22.432643 
L 25.942971 21.506193 
L 29.212667 18.573186 
L 29.325415 18.103513 
L 29.38179 17.195453 
L 29.466351 7.944624 
L 29.579099 8.972096 
L 30.001904 17.042038 
L 30.171027 22.660339 
L 30.311962 22.756304 
L 30.960264 22.36884 
L 32.200493 21.376531 
L 35.329255 18.548214 
L 35.442003 18.022472 
L 35.498377 16.742177 
L 35.582938 7.970434 
L 35.639312 8.346389 
L 35.808434 11.584217 
L 36.372175 22.766688 
L 36.428549 22.752557 
L 37.133225 22.322715 
L 38.429829 21.270433 
L 41.445842 18.521007 
L 41.55859 17.922109 
L 41.614964 15.918271 
L 41.671338 7.946823 
L 41.755899 8.454982 
L 41.981396 12.943548 
L 42.235079 18.528083 
L 42.376014 22.630963 
L 42.516949 22.759217 
L 43.108877 22.413055 
L 44.292733 21.481094 
L 47.534242 18.568964 
L 47.64699 18.090381 
L 47.703364 17.131498 
L 47.787925 7.947833 
L 47.872486 8.579953 
L 48.295292 16.102078 
L 48.577162 22.766461 
L 48.859033 22.636998 
L 49.901953 21.898773 
L 53.481707 18.853815 
L 53.707203 18.35344 
L 53.791764 17.621331 
L 53.848139 11.697365 
L 53.904513 7.978645 
L 53.960887 8.370329 
L 54.130009 11.635605 
L 54.69375 22.76658 
L 54.750124 22.751604 
L 55.4548 22.321091 
L 56.751403 21.268429 
L 59.767417 18.512906 
L 59.880165 17.889215 
L 59.936539 15.564911 
L 59.992913 7.941444 
L 60.077474 8.488595 
L 60.472092 15.437085 
L 60.556654 18.814311 
L 60.697589 22.641369 
L 60.838524 22.75825 
L 61.430452 22.411132 
L 62.614307 21.478647 
L 65.855817 18.560501 
L 65.968565 18.063392 
L 66.024939 16.98938 
L 66.1095 7.955968 
L 66.194061 8.624199 
L 66.616867 16.186598 
L 66.87055 22.759354 
L 67.067859 22.698836 
L 68.054406 22.0313 
L 71.493224 19.18065 
L 71.91603 18.663701 
L 72.056965 18.188927 
L 72.113339 17.543127 
L 72.169713 10.727691 
L 72.1979 7.968249 
L 72.282461 8.411186 
L 72.479771 12.321387 
L 72.761641 18.158515 
L 72.902576 22.615631 
L 73.043511 22.760413 
L 73.607252 22.434535 
L 74.791108 21.508653 
L 78.060804 18.5768 
L 78.173552 18.114342 
L 78.229926 17.245463 
L 78.314488 7.942661 
L 78.427236 8.948582 
L 78.850041 16.967191 
L 79.019163 22.65561 
L 79.160099 22.756775 
L 79.780214 22.389163 
L 80.992256 21.426472 
L 84.177391 18.548684 
L 84.29014 18.023919 
L 84.346514 16.751289 
L 84.431075 7.969984 
L 84.487449 8.344907 
L 84.656571 11.58055 
L 85.220312 22.766641 
L 85.276686 22.752578 
L 85.981362 22.32283 
L 87.277966 21.270558 
L 90.293979 18.518237 
L 90.406727 17.910877 
L 90.463101 15.802104 
L 90.519475 7.944201 
L 90.604036 8.46668 
L 90.857719 13.447093 
L 91.083216 18.624732 
L 91.224151 22.634574 
L 91.365086 22.758851 
L 91.957014 22.412381 
L 93.14087 21.480247 
L 96.382379 18.563865 
L 96.495127 18.074156 
L 96.551501 17.047737 
L 96.636062 7.952572 
L 96.720623 8.606775 
L 97.143429 16.152387 
L 97.397112 22.758614 
L 97.594422 22.699535 
L 98.580968 22.032336 
L 101.991599 19.206577 
L 102.442592 18.665359 
L 102.583527 18.194021 
L 102.639901 17.560765 
L 102.696275 10.927225 
L 102.724462 7.975707 
L 102.809024 8.402299 
L 103.006333 12.304614 
L 103.288203 18.084794 
L 103.429138 22.61223 
L 103.570074 22.760642 
L 104.105627 22.453741 
L 105.261296 21.557651 
L 108.587366 18.577725 
L 108.700114 18.117077 
L 108.756489 17.257762 
L 108.84105 7.94227 
L 108.953798 8.942608 
L 109.376603 16.94855 
L 109.545726 22.654368 
L 109.686661 22.756891 
L 110.306776 22.389414 
L 111.518818 21.426791 
L 114.703954 18.548608 
L 114.816702 18.023607 
L 114.873076 16.749131 
L 114.957637 7.97013 
L 115.014011 8.345303 
L 115.183133 11.581289 
L 115.746874 22.766624 
L 115.803248 22.752551 
L 116.507924 22.322807 
L 117.804528 21.270524 
L 120.820541 18.517118 
L 120.933289 17.906307 
L 120.989663 15.75339 
L 121.046037 7.9434 
L 121.130598 8.471394 
L 121.384282 13.453502 
L 121.581591 16.711484 
L 121.7789 22.713199 
L 121.919835 22.747744 
L 122.680885 22.274418 
L 124.06205 21.138288 
L 126.908941 18.562027 
L 127.021689 18.06822 
L 127.078063 17.015723 
L 127.162624 7.95446 
L 127.247186 8.616484 
L 127.669991 16.170912 
L 127.923674 22.758999 
L 128.120984 22.699131 
L 129.10753 22.031771 
L 132.546349 19.180568 
L 132.969154 18.663319 
L 133.110089 18.187634 
L 133.166463 17.538488 
L 133.222838 10.676115 
L 133.251025 7.966505 
L 133.335586 8.413571 
L 133.532895 12.325537 
L 133.814765 18.175977 
L 133.955701 22.616403 
L 134.096636 22.760321 
L 134.660377 22.434393 
L 135.844232 21.508481 
L 139.113929 18.574552 
L 139.226677 18.107445 
L 139.283051 17.213547 
L 139.367612 7.943934 
L 139.48036 8.963804 
L 139.903166 17.013081 
L 140.072288 22.658524 
L 140.213223 22.756418 
L 140.833338 22.388533 
L 142.04538 21.425679 
L 145.230516 18.544559 
L 145.343264 18.009533 
L 145.399638 16.654061 
L 145.484199 7.97548 
L 145.540573 8.361078 
L 145.709695 11.615461 
L 146.273436 22.766568 
L 146.32981 22.751926 
L 147.034486 22.321728 
L 148.33109 21.269195 
L 151.347103 18.512116 
L 151.459851 17.885737 
L 151.516225 15.52419 
L 151.572599 7.941273 
L 151.65716 8.492202 
L 152.079966 15.940751 
L 152.390023 22.76539 
L 152.41821 22.75811 
L 153.010138 22.410933 
L 154.193994 21.478406 
L 157.435503 18.557036 
L 157.548251 18.051928 
L 157.604625 16.923953 
L 157.689187 7.959914 
L 157.773748 8.642771 
L 158.196553 16.222416 
L 158.450237 22.760003 
L 158.647546 22.698064 
L 159.634092 22.030246 
L 163.072911 19.17868 
L 163.495716 18.659033 
L 163.636652 18.174057 
L 163.693026 17.489616 
L 163.777587 7.95298 
L 163.946709 9.862006 
L 164.595011 22.766022 
L 164.623198 22.759653 
L 165.186939 22.432979 
L 166.370794 21.506662 
L 166.990909 20.970011 
L 166.990909 20.970011 
" style="fill:none;stroke:#e31a1c;stroke-linecap:square;"/>
   </g>
  </g>
 </g>
 <defs>
  <clipPath id="p2f436a1b62">
   <rect height="16.308" width="167.4" x="7.2" y="7.2"/>
  </clipPath>
 </defs>
</svg>
