<?xml version="1.0" encoding="utf-8" standalone="no"?>
<!DOCTYPE svg PUBLIC "-//W3C//DTD SVG 1.1//EN"
  "http://www.w3.org/Graphics/SVG/1.1/DTD/svg11.dtd">
<!-- Created with matplotlib (https://matplotlib.org/) -->
<svg height="30.708pt" version="1.1" viewBox="0 0 181.8 30.708" width="181.8pt" xmlns="http://www.w3.org/2000/svg" xmlns:xlink="http://www.w3.org/1999/xlink">
 <defs>
  <style type="text/css">
*{stroke-linecap:butt;stroke-linejoin:round;}
  </style>
 </defs>
 <g id="figure_1">
  <g id="patch_1">
   <path d="M 0 30.708 
L 181.8 30.708 
L 181.8 0 
L 0 0 
z
" style="fill:none;"/>
  </g>
  <g id="axes_1">
   <g id="patch_2">
    <path d="M 7.2 23.508 
L 174.6 23.508 
L 174.6 7.2 
L 7.2 7.2 
z
" style="fill:none;"/>
   </g>
   <g id="matplotlib.axis_1"/>
   <g id="matplotlib.axis_2"/>
   <g id="line2d_1">
    <path clip-path="url(#p16762d05a0)" d="M 14.809091 13.405225 
L 15.062774 19.477833 
L 15.203709 22.737393 
L 15.316458 22.715961 
L 16.331191 21.422128 
L 17.204989 20.519871 
L 17.966039 20.050473 
L 19.121708 19.63965 
L 19.77001 19.32502 
L 19.967319 19.021472 
L 20.080067 18.379651 
L 20.136441 16.048864 
L 20.192815 7.996136 
L 20.277376 8.717259 
L 20.728369 19.890738 
L 20.869304 22.745188 
L 20.982052 22.710685 
L 23.349763 20.19241 
L 24.279936 19.798789 
L 25.435604 19.320758 
L 25.632914 19.008795 
L 25.745662 18.317851 
L 25.802036 15.40165 
L 25.85841 7.954795 
L 25.942971 8.799726 
L 26.393964 20.264374 
L 26.534899 22.751226 
L 26.647647 22.705614 
L 28.958984 20.222171 
L 29.860969 19.825382 
L 31.129386 19.288378 
L 31.326695 18.901533 
L 31.411256 18.252476 
L 31.46763 14.634787 
L 31.524004 7.941749 
L 31.580379 8.411814 
L 32.003184 16.996601 
L 32.22868 22.766438 
L 32.42599 22.564651 
L 34.201773 20.508744 
L 34.962823 20.044024 
L 36.146679 19.626003 
L 36.766794 19.312739 
L 36.964103 18.984139 
L 37.048664 18.544394 
L 37.105038 17.31071 
L 37.189599 7.944301 
L 37.27416 8.960939 
L 37.894275 22.765685 
L 37.978836 22.696099 
L 40.205612 20.267994 
L 41.07941 19.861366 
L 42.460575 19.279763 
L 42.629697 18.972161 
L 42.714259 18.507414 
L 42.770633 17.083183 
L 42.855194 7.955615 
L 42.911568 8.529157 
L 43.334373 17.274405 
L 43.531683 22.761932 
L 43.644431 22.69165 
L 45.84302 20.283162 
L 46.688631 19.88013 
L 48.154357 19.242201 
L 48.323479 18.853566 
L 48.40804 18.031158 
L 48.464414 12.020458 
L 48.520788 7.971991 
L 48.577162 8.587128 
L 48.999968 17.423343 
L 49.16909 22.731714 
L 49.253651 22.745255 
L 49.281838 22.718485 
L 50.212011 21.530469 
L 51.113996 20.567815 
L 51.875046 20.078374 
L 52.946153 19.685444 
L 53.73539 19.328749 
L 53.9327 19.032653 
L 54.045448 18.430994 
L 54.101822 16.514861 
L 54.186383 7.991384 
L 54.242757 8.644347 
L 54.665563 17.579454 
L 54.834685 22.738087 
L 54.947433 22.714776 
L 55.990353 21.386183 
L 56.864152 20.496676 
L 57.653389 20.024302 
L 58.921805 19.582178 
L 59.429172 19.298524 
L 59.626481 18.937609 
L 59.711042 18.39149 
L 59.767417 16.163392 
L 59.823791 8.009755 
L 59.908352 8.700652 
L 60.359344 19.813917 
L 60.50028 22.743397 
L 60.613028 22.711207 
L 63.008926 20.176936 
L 63.939098 19.789881 
L 65.06658 19.32286 
L 65.263889 19.015401 
L 65.376637 18.351074 
L 65.433011 15.762242 
L 65.489385 7.972231 
L 65.573946 8.755916 
L 66.024939 20.073851 
L 66.165874 22.747817 
L 66.278622 22.707777 
L 68.618146 20.206957 
L 69.520132 19.816688 
L 70.760361 19.292221 
L 70.957671 18.915698 
L 71.042232 18.309706 
L 71.098606 15.311626 
L 71.15498 7.951986 
L 71.239541 8.810042 
L 71.690534 20.310742 
L 71.831469 22.751489 
L 71.944217 22.704483 
L 74.255554 20.221573 
L 75.157539 19.825148 
L 76.425956 19.289249 
L 76.623265 18.905069 
L 76.707826 18.267342 
L 76.7642 14.816364 
L 76.820575 7.943 
L 76.876949 8.398567 
L 77.299754 16.968254 
L 77.52525 22.766103 
L 77.72256 22.565329 
L 79.498343 20.509137 
L 80.259393 20.044286 
L 81.415062 19.635736 
L 82.063364 19.314868 
L 82.260673 18.991111 
L 82.373421 18.223932 
L 82.429795 14.286136 
L 82.486169 7.941398 
L 82.542543 8.436345 
L 82.965349 17.053847 
L 83.190845 22.76573 
L 83.388154 22.561933 
L 85.163938 20.506984 
L 85.924988 20.043038 
L 87.108843 19.625625 
L 87.728958 19.312406 
L 87.926267 18.983412 
L 88.010829 18.542418 
L 88.067203 17.29984 
L 88.151764 7.94468 
L 88.236325 8.964992 
L 88.85644 22.765197 
L 88.941001 22.695377 
L 91.167777 20.267592 
L 92.041575 19.861224 
L 93.42274 19.280981 
L 93.591862 18.975901 
L 93.676423 18.519352 
L 93.732797 17.160384 
L 93.817358 7.951228 
L 93.873733 8.510242 
L 94.296538 17.229163 
L 94.493847 22.760791 
L 94.606595 22.692583 
L 96.805184 20.283671 
L 97.650796 19.880496 
L 99.116522 19.245313 
L 99.285644 18.86459 
L 99.370205 18.086869 
L 99.426579 12.628017 
L 99.482953 7.959981 
L 99.539327 8.546271 
L 99.962133 17.319056 
L 100.159442 22.762153 
L 100.27219 22.6899 
L 102.470779 20.282185 
L 103.31639 19.879649 
L 104.782116 19.242509 
L 104.951238 18.854948 
L 105.0358 18.03869 
L 105.092174 12.100965 
L 105.148548 7.970236 
L 105.204922 8.581647 
L 105.627727 17.410519 
L 105.79685 22.730721 
L 105.881411 22.74509 
L 105.909598 22.71838 
L 106.83977 21.530376 
L 107.741755 20.567736 
L 108.502805 20.078355 
L 109.573913 19.685637 
L 110.36315 19.330136 
L 110.560459 19.036916 
L 110.673207 18.449952 
L 110.729581 16.670042 
L 110.814142 7.981522 
L 110.870516 8.616353 
L 111.293322 17.503575 
L 111.462444 22.734776 
L 111.547005 22.74328 
L 111.575192 22.716122 
L 112.561739 21.457232 
L 113.435537 20.542752 
L 114.196587 20.063836 
L 115.295881 19.667293 
L 116.028744 19.328292 
L 116.226054 19.031607 
L 116.338802 18.42672 
L 116.395176 16.47972 
L 116.479737 7.993518 
L 116.536111 8.650381 
L 116.958917 17.598232 
L 117.128039 22.738372 
L 117.240787 22.713939 
L 118.283707 21.38524 
L 119.157506 20.496059 
L 119.946743 20.023986 
L 121.215159 19.582294 
L 121.722526 19.299397 
L 121.919835 18.940896 
L 122.004396 18.40342 
L 122.060771 16.27483 
L 122.145332 8.006001 
L 122.201706 8.68373 
L 122.652698 19.733836 
L 122.793634 22.741565 
L 122.906382 22.711827 
L 124.06205 21.247392 
L 124.879474 20.451278 
L 125.668711 19.9984 
L 127.529056 19.089822 
L 127.641804 18.650893 
L 127.698178 17.831487 
L 127.782739 7.997034 
L 127.923674 9.964495 
L 128.487415 22.765574 
L 128.62835 22.644409 
L 130.573256 20.428897 
L 131.362493 19.985579 
L 133.166463 19.142324 
L 133.307399 18.637558 
L 133.363773 17.775606 
L 133.448334 7.976269 
L 133.561082 9.322518 
L 134.15301 22.765788 
L 134.209384 22.736395 
L 134.829499 21.9537 
L 135.95698 20.656229 
L 136.71803 20.129916 
L 137.704577 19.744111 
L 138.691123 19.321512 
L 138.888432 19.011642 
L 139.00118 18.332976 
L 139.057554 15.570979 
L 139.113929 7.961716 
L 139.19849 8.779771 
L 139.649482 20.18283 
L 139.790417 22.749186 
L 139.903166 22.705895 
L 142.24269 20.205972 
L 143.144675 19.816215 
L 144.384905 19.292082 
L 144.582214 18.915515 
L 144.666775 18.309262 
L 144.723149 15.30792 
L 144.779523 7.951913 
L 144.864084 8.810494 
L 145.315077 20.314769 
L 145.456012 22.751195 
L 145.56876 22.704041 
L 147.880097 20.22134 
L 148.782083 19.825103 
L 150.050499 19.290389 
L 150.247809 18.909474 
L 150.33237 18.285401 
L 150.388744 15.032355 
L 150.445118 7.945759 
L 150.529679 8.840601 
L 150.980672 20.438014 
L 151.121607 22.752988 
L 151.234355 22.702243 
L 153.517505 20.237043 
L 154.391303 19.843762 
L 155.716094 19.288743 
L 155.913403 18.90354 
L 155.997964 18.261372 
L 156.054338 14.745932 
L 156.110712 7.942422 
L 156.167086 8.403729 
L 156.589892 16.980908 
L 156.815388 22.765708 
L 157.012698 22.564436 
L 158.788481 20.508539 
L 159.549531 20.043967 
L 160.7052 19.635749 
L 161.353501 19.315525 
L 161.550811 18.993401 
L 161.663559 18.237152 
L 161.719933 14.450658 
L 161.776307 7.941273 
L 161.832681 8.42488 
L 162.255487 17.028718 
L 162.480983 22.765513 
L 162.678292 22.562538 
L 164.454076 20.507336 
L 165.215126 20.043269 
L 166.398981 19.626029 
L 166.990909 19.339768 
L 166.990909 19.339768 
" style="fill:none;stroke:#e31a1c;stroke-linecap:square;"/>
   </g>
  </g>
 </g>
 <defs>
  <clipPath id="p16762d05a0">
   <rect height="16.308" width="167.4" x="7.2" y="7.2"/>
  </clipPath>
 </defs>
</svg>
