<?xml version="1.0" encoding="utf-8" standalone="no"?>
<!DOCTYPE svg PUBLIC "-//W3C//DTD SVG 1.1//EN"
  "http://www.w3.org/Graphics/SVG/1.1/DTD/svg11.dtd">
<!-- Created with matplotlib (https://matplotlib.org/) -->
<svg height="151.765pt" version="1.1" viewBox="0 0 210.7225 151.765" width="210.7225pt" xmlns="http://www.w3.org/2000/svg" xmlns:xlink="http://www.w3.org/1999/xlink">
 <metadata>
  <rdf:RDF xmlns:cc="http://creativecommons.org/ns#" xmlns:dc="http://purl.org/dc/elements/1.1/" xmlns:rdf="http://www.w3.org/1999/02/22-rdf-syntax-ns#">
   <cc:Work>
    <dc:type rdf:resource="http://purl.org/dc/dcmitype/StillImage"/>
    <dc:date>2020-10-06T13:06:37.360307</dc:date>
    <dc:format>image/svg+xml</dc:format>
    <dc:creator>
     <cc:Agent>
      <dc:title>Matplotlib v3.3.2, https://matplotlib.org/</dc:title>
     </cc:Agent>
    </dc:creator>
   </cc:Work>
  </rdf:RDF>
 </metadata>
 <defs>
  <style type="text/css">*{stroke-linecap:butt;stroke-linejoin:round;}</style>
 </defs>
 <g id="figure_1">
  <g id="patch_1">
   <path d="M 0 151.765 
L 210.7225 151.765 
L 210.7225 0 
L 0 0 
z
" style="fill:none;"/>
  </g>
  <g id="axes_1">
   <g id="patch_2">
    <path d="M 36.1225 118.08 
L 203.5225 118.08 
L 203.5225 7.2 
L 36.1225 7.2 
z
" style="fill:none;"/>
   </g>
   <g id="patch_3">
    <path clip-path="url(#p39e7fcb150)" d="M 43.731591 118.08 
L 45.253409 118.08 
L 45.253409 118.08 
L 43.731591 118.08 
z
" style="fill:#ffffff;"/>
   </g>
   <g id="patch_4">
    <path clip-path="url(#p39e7fcb150)" d="M 45.253409 118.08 
L 46.775227 118.08 
L 46.775227 118.08 
L 45.253409 118.08 
z
" style="fill:#ffffff;"/>
   </g>
   <g id="patch_5">
    <path clip-path="url(#p39e7fcb150)" d="M 46.775227 118.08 
L 48.297045 118.08 
L 48.297045 118.08 
L 46.775227 118.08 
z
" style="fill:#ffffff;"/>
   </g>
   <g id="patch_6">
    <path clip-path="url(#p39e7fcb150)" d="M 48.297045 118.08 
L 49.818864 118.08 
L 49.818864 118.08 
L 48.297045 118.08 
z
" style="fill:#ffffff;"/>
   </g>
   <g id="patch_7">
    <path clip-path="url(#p39e7fcb150)" d="M 49.818864 118.08 
L 51.340682 118.08 
L 51.340682 118.08 
L 49.818864 118.08 
z
" style="fill:#ffffff;"/>
   </g>
   <g id="patch_8">
    <path clip-path="url(#p39e7fcb150)" d="M 51.340682 118.08 
L 52.8625 118.08 
L 52.8625 118.08 
L 51.340682 118.08 
z
" style="fill:#ffffff;"/>
   </g>
   <g id="patch_9">
    <path clip-path="url(#p39e7fcb150)" d="M 52.8625 118.08 
L 54.384318 118.08 
L 54.384318 118.08 
L 52.8625 118.08 
z
" style="fill:#ffffff;"/>
   </g>
   <g id="patch_10">
    <path clip-path="url(#p39e7fcb150)" d="M 54.384318 118.08 
L 55.906136 118.08 
L 55.906136 118.08 
L 54.384318 118.08 
z
" style="fill:#ffffff;"/>
   </g>
   <g id="patch_11">
    <path clip-path="url(#p39e7fcb150)" d="M 55.906136 118.08 
L 57.427955 118.08 
L 57.427955 118.08 
L 55.906136 118.08 
z
" style="fill:#ffffff;"/>
   </g>
   <g id="patch_12">
    <path clip-path="url(#p39e7fcb150)" d="M 57.427955 118.08 
L 58.949773 118.08 
L 58.949773 118.08 
L 57.427955 118.08 
z
" style="fill:#ffffff;"/>
   </g>
   <g id="patch_13">
    <path clip-path="url(#p39e7fcb150)" d="M 58.949773 118.08 
L 60.471591 118.08 
L 60.471591 118.08 
L 58.949773 118.08 
z
" style="fill:#ffffff;"/>
   </g>
   <g id="patch_14">
    <path clip-path="url(#p39e7fcb150)" d="M 60.471591 118.08 
L 61.993409 118.08 
L 61.993409 118.08 
L 60.471591 118.08 
z
" style="fill:#ffffff;"/>
   </g>
   <g id="patch_15">
    <path clip-path="url(#p39e7fcb150)" d="M 61.993409 118.08 
L 63.515227 118.08 
L 63.515227 118.08 
L 61.993409 118.08 
z
" style="fill:#ffffff;"/>
   </g>
   <g id="patch_16">
    <path clip-path="url(#p39e7fcb150)" d="M 63.515227 118.08 
L 65.037045 118.08 
L 65.037045 115.733333 
L 63.515227 115.733333 
z
" style="fill:#ffffff;"/>
   </g>
   <g id="patch_17">
    <path clip-path="url(#p39e7fcb150)" d="M 65.037045 118.08 
L 66.558864 118.08 
L 66.558864 116.906667 
L 65.037045 116.906667 
z
" style="fill:#ffffff;"/>
   </g>
   <g id="patch_18">
    <path clip-path="url(#p39e7fcb150)" d="M 66.558864 118.08 
L 68.080682 118.08 
L 68.080682 116.906667 
L 66.558864 116.906667 
z
" style="fill:#ffffff;"/>
   </g>
   <g id="patch_19">
    <path clip-path="url(#p39e7fcb150)" d="M 68.080682 118.08 
L 69.6025 118.08 
L 69.6025 115.733333 
L 68.080682 115.733333 
z
" style="fill:#ffffff;"/>
   </g>
   <g id="patch_20">
    <path clip-path="url(#p39e7fcb150)" d="M 69.6025 118.08 
L 71.124318 118.08 
L 71.124318 114.56 
L 69.6025 114.56 
z
" style="fill:#ffffff;"/>
   </g>
   <g id="patch_21">
    <path clip-path="url(#p39e7fcb150)" d="M 71.124318 118.08 
L 72.646136 118.08 
L 72.646136 115.733333 
L 71.124318 115.733333 
z
" style="fill:#ffffff;"/>
   </g>
   <g id="patch_22">
    <path clip-path="url(#p39e7fcb150)" d="M 72.646136 118.08 
L 74.167955 118.08 
L 74.167955 113.386667 
L 72.646136 113.386667 
z
" style="fill:#ffffff;"/>
   </g>
   <g id="patch_23">
    <path clip-path="url(#p39e7fcb150)" d="M 74.167955 118.08 
L 75.689773 118.08 
L 75.689773 113.386667 
L 74.167955 113.386667 
z
" style="fill:#ffffff;"/>
   </g>
   <g id="patch_24">
    <path clip-path="url(#p39e7fcb150)" d="M 75.689773 118.08 
L 77.211591 118.08 
L 77.211591 114.56 
L 75.689773 114.56 
z
" style="fill:#ffffff;"/>
   </g>
   <g id="patch_25">
    <path clip-path="url(#p39e7fcb150)" d="M 77.211591 118.08 
L 78.733409 118.08 
L 78.733409 109.866667 
L 77.211591 109.866667 
z
" style="fill:#ffffff;"/>
   </g>
   <g id="patch_26">
    <path clip-path="url(#p39e7fcb150)" d="M 78.733409 118.08 
L 80.255227 118.08 
L 80.255227 112.213333 
L 78.733409 112.213333 
z
" style="fill:#ffffff;"/>
   </g>
   <g id="patch_27">
    <path clip-path="url(#p39e7fcb150)" d="M 80.255227 118.08 
L 81.777045 118.08 
L 81.777045 107.52 
L 80.255227 107.52 
z
" style="fill:#ffffff;"/>
   </g>
   <g id="patch_28">
    <path clip-path="url(#p39e7fcb150)" d="M 81.777045 118.08 
L 83.298864 118.08 
L 83.298864 108.693333 
L 81.777045 108.693333 
z
" style="fill:#ffffff;"/>
   </g>
   <g id="patch_29">
    <path clip-path="url(#p39e7fcb150)" d="M 83.298864 118.08 
L 84.820682 118.08 
L 84.820682 104 
L 83.298864 104 
z
" style="fill:#ffffff;"/>
   </g>
   <g id="patch_30">
    <path clip-path="url(#p39e7fcb150)" d="M 84.820682 118.08 
L 86.3425 118.08 
L 86.3425 102.826667 
L 84.820682 102.826667 
z
" style="fill:#ffffff;"/>
   </g>
   <g id="patch_31">
    <path clip-path="url(#p39e7fcb150)" d="M 86.3425 118.08 
L 87.864318 118.08 
L 87.864318 100.48 
L 86.3425 100.48 
z
" style="fill:#ffffff;"/>
   </g>
   <g id="patch_32">
    <path clip-path="url(#p39e7fcb150)" d="M 87.864318 118.08 
L 89.386136 118.08 
L 89.386136 87.573333 
L 87.864318 87.573333 
z
" style="fill:#ffffff;"/>
   </g>
   <g id="patch_33">
    <path clip-path="url(#p39e7fcb150)" d="M 89.386136 118.08 
L 90.907955 118.08 
L 90.907955 91.093333 
L 89.386136 91.093333 
z
" style="fill:#ffffff;"/>
   </g>
   <g id="patch_34">
    <path clip-path="url(#p39e7fcb150)" d="M 90.907955 118.08 
L 92.429773 118.08 
L 92.429773 96.96 
L 90.907955 96.96 
z
" style="fill:#ffffff;"/>
   </g>
   <g id="patch_35">
    <path clip-path="url(#p39e7fcb150)" d="M 92.429773 118.08 
L 93.951591 118.08 
L 93.951591 85.226667 
L 92.429773 85.226667 
z
" style="fill:#ffffff;"/>
   </g>
   <g id="patch_36">
    <path clip-path="url(#p39e7fcb150)" d="M 93.951591 118.08 
L 95.473409 118.08 
L 95.473409 87.573333 
L 93.951591 87.573333 
z
" style="fill:#ffffff;"/>
   </g>
   <g id="patch_37">
    <path clip-path="url(#p39e7fcb150)" d="M 95.473409 118.08 
L 96.995227 118.08 
L 96.995227 69.973333 
L 95.473409 69.973333 
z
" style="fill:#ffffff;"/>
   </g>
   <g id="patch_38">
    <path clip-path="url(#p39e7fcb150)" d="M 96.995227 118.08 
L 98.517045 118.08 
L 98.517045 82.88 
L 96.995227 82.88 
z
" style="fill:#ffffff;"/>
   </g>
   <g id="patch_39">
    <path clip-path="url(#p39e7fcb150)" d="M 98.517045 118.08 
L 100.038864 118.08 
L 100.038864 82.88 
L 98.517045 82.88 
z
" style="fill:#ffffff;"/>
   </g>
   <g id="patch_40">
    <path clip-path="url(#p39e7fcb150)" d="M 100.038864 118.08 
L 101.560682 118.08 
L 101.560682 64.106667 
L 100.038864 64.106667 
z
" style="fill:#ffffff;"/>
   </g>
   <g id="patch_41">
    <path clip-path="url(#p39e7fcb150)" d="M 101.560682 118.08 
L 103.0825 118.08 
L 103.0825 61.76 
L 101.560682 61.76 
z
" style="fill:#ffffff;"/>
   </g>
   <g id="patch_42">
    <path clip-path="url(#p39e7fcb150)" d="M 103.0825 118.08 
L 104.604318 118.08 
L 104.604318 65.28 
L 103.0825 65.28 
z
" style="fill:#ffffff;"/>
   </g>
   <g id="patch_43">
    <path clip-path="url(#p39e7fcb150)" d="M 104.604318 118.08 
L 106.126136 118.08 
L 106.126136 35.946667 
L 104.604318 35.946667 
z
" style="fill:#ffffff;"/>
   </g>
   <g id="patch_44">
    <path clip-path="url(#p39e7fcb150)" d="M 106.126136 118.08 
L 107.647955 118.08 
L 107.647955 71.146667 
L 106.126136 71.146667 
z
" style="fill:#ffffff;"/>
   </g>
   <g id="patch_45">
    <path clip-path="url(#p39e7fcb150)" d="M 107.647955 118.08 
L 109.169773 118.08 
L 109.169773 45.333333 
L 107.647955 45.333333 
z
" style="fill:#ffffff;"/>
   </g>
   <g id="patch_46">
    <path clip-path="url(#p39e7fcb150)" d="M 109.169773 118.08 
L 110.691591 118.08 
L 110.691591 37.12 
L 109.169773 37.12 
z
" style="fill:#ffffff;"/>
   </g>
   <g id="patch_47">
    <path clip-path="url(#p39e7fcb150)" d="M 110.691591 118.08 
L 112.213409 118.08 
L 112.213409 66.453333 
L 110.691591 66.453333 
z
" style="fill:#ffffff;"/>
   </g>
   <g id="patch_48">
    <path clip-path="url(#p39e7fcb150)" d="M 112.213409 118.08 
L 113.735227 118.08 
L 113.735227 18.346667 
L 112.213409 18.346667 
z
" style="fill:#ffffff;"/>
   </g>
   <g id="patch_49">
    <path clip-path="url(#p39e7fcb150)" d="M 113.735227 118.08 
L 115.257045 118.08 
L 115.257045 67.626667 
L 113.735227 67.626667 
z
" style="fill:#ffffff;"/>
   </g>
   <g id="patch_50">
    <path clip-path="url(#p39e7fcb150)" d="M 115.257045 118.08 
L 116.778864 118.08 
L 116.778864 38.293333 
L 115.257045 38.293333 
z
" style="fill:#ffffff;"/>
   </g>
   <g id="patch_51">
    <path clip-path="url(#p39e7fcb150)" d="M 116.778864 118.08 
L 118.300682 118.08 
L 118.300682 39.466667 
L 116.778864 39.466667 
z
" style="fill:#ffffff;"/>
   </g>
   <g id="patch_52">
    <path clip-path="url(#p39e7fcb150)" d="M 118.300682 118.08 
L 119.8225 118.08 
L 119.8225 42.986667 
L 118.300682 42.986667 
z
" style="fill:#ffffff;"/>
   </g>
   <g id="patch_53">
    <path clip-path="url(#p39e7fcb150)" d="M 119.8225 118.08 
L 121.344318 118.08 
L 121.344318 24.213333 
L 119.8225 24.213333 
z
" style="fill:#ffffff;"/>
   </g>
   <g id="patch_54">
    <path clip-path="url(#p39e7fcb150)" d="M 121.344318 118.08 
L 122.866136 118.08 
L 122.866136 59.413333 
L 121.344318 59.413333 
z
" style="fill:#ffffff;"/>
   </g>
   <g id="patch_55">
    <path clip-path="url(#p39e7fcb150)" d="M 122.866136 118.08 
L 124.387955 118.08 
L 124.387955 16 
L 122.866136 16 
z
" style="fill:#ffffff;"/>
   </g>
   <g id="patch_56">
    <path clip-path="url(#p39e7fcb150)" d="M 124.387955 118.08 
L 125.909773 118.08 
L 125.909773 26.56 
L 124.387955 26.56 
z
" style="fill:#ffffff;"/>
   </g>
   <g id="patch_57">
    <path clip-path="url(#p39e7fcb150)" d="M 125.909773 118.08 
L 127.431591 118.08 
L 127.431591 39.466667 
L 125.909773 39.466667 
z
" style="fill:#ffffff;"/>
   </g>
   <g id="patch_58">
    <path clip-path="url(#p39e7fcb150)" d="M 127.431591 118.08 
L 128.953409 118.08 
L 128.953409 13.653333 
L 127.431591 13.653333 
z
" style="fill:#ffffff;"/>
   </g>
   <g id="patch_59">
    <path clip-path="url(#p39e7fcb150)" d="M 128.953409 118.08 
L 130.475227 118.08 
L 130.475227 47.68 
L 128.953409 47.68 
z
" style="fill:#ffffff;"/>
   </g>
   <g id="patch_60">
    <path clip-path="url(#p39e7fcb150)" d="M 130.475227 118.08 
L 131.997045 118.08 
L 131.997045 33.6 
L 130.475227 33.6 
z
" style="fill:#ffffff;"/>
   </g>
   <g id="patch_61">
    <path clip-path="url(#p39e7fcb150)" d="M 131.997045 118.08 
L 133.518864 118.08 
L 133.518864 46.506667 
L 131.997045 46.506667 
z
" style="fill:#ffffff;"/>
   </g>
   <g id="patch_62">
    <path clip-path="url(#p39e7fcb150)" d="M 133.518864 118.08 
L 135.040682 118.08 
L 135.040682 55.893333 
L 133.518864 55.893333 
z
" style="fill:#ffffff;"/>
   </g>
   <g id="patch_63">
    <path clip-path="url(#p39e7fcb150)" d="M 135.040682 118.08 
L 136.5625 118.08 
L 136.5625 20.693333 
L 135.040682 20.693333 
z
" style="fill:#ffffff;"/>
   </g>
   <g id="patch_64">
    <path clip-path="url(#p39e7fcb150)" d="M 136.5625 118.08 
L 138.084318 118.08 
L 138.084318 62.933333 
L 136.5625 62.933333 
z
" style="fill:#ffffff;"/>
   </g>
   <g id="patch_65">
    <path clip-path="url(#p39e7fcb150)" d="M 138.084318 118.08 
L 139.606136 118.08 
L 139.606136 61.76 
L 138.084318 61.76 
z
" style="fill:#ffffff;"/>
   </g>
   <g id="patch_66">
    <path clip-path="url(#p39e7fcb150)" d="M 139.606136 118.08 
L 141.127955 118.08 
L 141.127955 34.773333 
L 139.606136 34.773333 
z
" style="fill:#ffffff;"/>
   </g>
   <g id="patch_67">
    <path clip-path="url(#p39e7fcb150)" d="M 141.127955 118.08 
L 142.649773 118.08 
L 142.649773 50.026667 
L 141.127955 50.026667 
z
" style="fill:#ffffff;"/>
   </g>
   <g id="patch_68">
    <path clip-path="url(#p39e7fcb150)" d="M 142.649773 118.08 
L 144.171591 118.08 
L 144.171591 65.28 
L 142.649773 65.28 
z
" style="fill:#ffffff;"/>
   </g>
   <g id="patch_69">
    <path clip-path="url(#p39e7fcb150)" d="M 144.171591 118.08 
L 145.693409 118.08 
L 145.693409 82.88 
L 144.171591 82.88 
z
" style="fill:#ffffff;"/>
   </g>
   <g id="patch_70">
    <path clip-path="url(#p39e7fcb150)" d="M 145.693409 118.08 
L 147.215227 118.08 
L 147.215227 71.146667 
L 145.693409 71.146667 
z
" style="fill:#ffffff;"/>
   </g>
   <g id="patch_71">
    <path clip-path="url(#p39e7fcb150)" d="M 147.215227 118.08 
L 148.737045 118.08 
L 148.737045 65.28 
L 147.215227 65.28 
z
" style="fill:#ffffff;"/>
   </g>
   <g id="patch_72">
    <path clip-path="url(#p39e7fcb150)" d="M 148.737045 118.08 
L 150.258864 118.08 
L 150.258864 79.36 
L 148.737045 79.36 
z
" style="fill:#ffffff;"/>
   </g>
   <g id="patch_73">
    <path clip-path="url(#p39e7fcb150)" d="M 150.258864 118.08 
L 151.780682 118.08 
L 151.780682 62.933333 
L 150.258864 62.933333 
z
" style="fill:#ffffff;"/>
   </g>
   <g id="patch_74">
    <path clip-path="url(#p39e7fcb150)" d="M 151.780682 118.08 
L 153.3025 118.08 
L 153.3025 77.013333 
L 151.780682 77.013333 
z
" style="fill:#ffffff;"/>
   </g>
   <g id="patch_75">
    <path clip-path="url(#p39e7fcb150)" d="M 153.3025 118.08 
L 154.824318 118.08 
L 154.824318 81.706667 
L 153.3025 81.706667 
z
" style="fill:#ffffff;"/>
   </g>
   <g id="patch_76">
    <path clip-path="url(#p39e7fcb150)" d="M 154.824318 118.08 
L 156.346136 118.08 
L 156.346136 80.533333 
L 154.824318 80.533333 
z
" style="fill:#ffffff;"/>
   </g>
   <g id="patch_77">
    <path clip-path="url(#p39e7fcb150)" d="M 156.346136 118.08 
L 157.867955 118.08 
L 157.867955 91.093333 
L 156.346136 91.093333 
z
" style="fill:#ffffff;"/>
   </g>
   <g id="patch_78">
    <path clip-path="url(#p39e7fcb150)" d="M 157.867955 118.08 
L 159.389773 118.08 
L 159.389773 86.4 
L 157.867955 86.4 
z
" style="fill:#ffffff;"/>
   </g>
   <g id="patch_79">
    <path clip-path="url(#p39e7fcb150)" d="M 159.389773 118.08 
L 160.911591 118.08 
L 160.911591 96.96 
L 159.389773 96.96 
z
" style="fill:#ffffff;"/>
   </g>
   <g id="patch_80">
    <path clip-path="url(#p39e7fcb150)" d="M 160.911591 118.08 
L 162.433409 118.08 
L 162.433409 100.48 
L 160.911591 100.48 
z
" style="fill:#ffffff;"/>
   </g>
   <g id="patch_81">
    <path clip-path="url(#p39e7fcb150)" d="M 162.433409 118.08 
L 163.955227 118.08 
L 163.955227 104 
L 162.433409 104 
z
" style="fill:#ffffff;"/>
   </g>
   <g id="patch_82">
    <path clip-path="url(#p39e7fcb150)" d="M 163.955227 118.08 
L 165.477045 118.08 
L 165.477045 104 
L 163.955227 104 
z
" style="fill:#ffffff;"/>
   </g>
   <g id="patch_83">
    <path clip-path="url(#p39e7fcb150)" d="M 165.477045 118.08 
L 166.998864 118.08 
L 166.998864 107.52 
L 165.477045 107.52 
z
" style="fill:#ffffff;"/>
   </g>
   <g id="patch_84">
    <path clip-path="url(#p39e7fcb150)" d="M 166.998864 118.08 
L 168.520682 118.08 
L 168.520682 106.346667 
L 166.998864 106.346667 
z
" style="fill:#ffffff;"/>
   </g>
   <g id="patch_85">
    <path clip-path="url(#p39e7fcb150)" d="M 168.520682 118.08 
L 170.0425 118.08 
L 170.0425 109.866667 
L 168.520682 109.866667 
z
" style="fill:#ffffff;"/>
   </g>
   <g id="patch_86">
    <path clip-path="url(#p39e7fcb150)" d="M 170.0425 118.08 
L 171.564318 118.08 
L 171.564318 112.213333 
L 170.0425 112.213333 
z
" style="fill:#ffffff;"/>
   </g>
   <g id="patch_87">
    <path clip-path="url(#p39e7fcb150)" d="M 171.564318 118.08 
L 173.086136 118.08 
L 173.086136 114.56 
L 171.564318 114.56 
z
" style="fill:#ffffff;"/>
   </g>
   <g id="patch_88">
    <path clip-path="url(#p39e7fcb150)" d="M 173.086136 118.08 
L 174.607955 118.08 
L 174.607955 108.693333 
L 173.086136 108.693333 
z
" style="fill:#ffffff;"/>
   </g>
   <g id="patch_89">
    <path clip-path="url(#p39e7fcb150)" d="M 174.607955 118.08 
L 176.129773 118.08 
L 176.129773 118.08 
L 174.607955 118.08 
z
" style="fill:#ffffff;"/>
   </g>
   <g id="patch_90">
    <path clip-path="url(#p39e7fcb150)" d="M 176.129773 118.08 
L 177.651591 118.08 
L 177.651591 116.906667 
L 176.129773 116.906667 
z
" style="fill:#ffffff;"/>
   </g>
   <g id="patch_91">
    <path clip-path="url(#p39e7fcb150)" d="M 177.651591 118.08 
L 179.173409 118.08 
L 179.173409 113.386667 
L 177.651591 113.386667 
z
" style="fill:#ffffff;"/>
   </g>
   <g id="patch_92">
    <path clip-path="url(#p39e7fcb150)" d="M 179.173409 118.08 
L 180.695227 118.08 
L 180.695227 114.56 
L 179.173409 114.56 
z
" style="fill:#ffffff;"/>
   </g>
   <g id="patch_93">
    <path clip-path="url(#p39e7fcb150)" d="M 180.695227 118.08 
L 182.217045 118.08 
L 182.217045 116.906667 
L 180.695227 116.906667 
z
" style="fill:#ffffff;"/>
   </g>
   <g id="patch_94">
    <path clip-path="url(#p39e7fcb150)" d="M 182.217045 118.08 
L 183.738864 118.08 
L 183.738864 114.56 
L 182.217045 114.56 
z
" style="fill:#ffffff;"/>
   </g>
   <g id="patch_95">
    <path clip-path="url(#p39e7fcb150)" d="M 183.738864 118.08 
L 185.260682 118.08 
L 185.260682 116.906667 
L 183.738864 116.906667 
z
" style="fill:#ffffff;"/>
   </g>
   <g id="patch_96">
    <path clip-path="url(#p39e7fcb150)" d="M 185.260682 118.08 
L 186.7825 118.08 
L 186.7825 118.08 
L 185.260682 118.08 
z
" style="fill:#ffffff;"/>
   </g>
   <g id="patch_97">
    <path clip-path="url(#p39e7fcb150)" d="M 186.7825 118.08 
L 188.304318 118.08 
L 188.304318 116.906667 
L 186.7825 116.906667 
z
" style="fill:#ffffff;"/>
   </g>
   <g id="patch_98">
    <path clip-path="url(#p39e7fcb150)" d="M 188.304318 118.08 
L 189.826136 118.08 
L 189.826136 118.08 
L 188.304318 118.08 
z
" style="fill:#ffffff;"/>
   </g>
   <g id="patch_99">
    <path clip-path="url(#p39e7fcb150)" d="M 189.826136 118.08 
L 191.347955 118.08 
L 191.347955 118.08 
L 189.826136 118.08 
z
" style="fill:#ffffff;"/>
   </g>
   <g id="patch_100">
    <path clip-path="url(#p39e7fcb150)" d="M 191.347955 118.08 
L 192.869773 118.08 
L 192.869773 118.08 
L 191.347955 118.08 
z
" style="fill:#ffffff;"/>
   </g>
   <g id="patch_101">
    <path clip-path="url(#p39e7fcb150)" d="M 192.869773 118.08 
L 194.391591 118.08 
L 194.391591 118.08 
L 192.869773 118.08 
z
" style="fill:#ffffff;"/>
   </g>
   <g id="patch_102">
    <path clip-path="url(#p39e7fcb150)" d="M 194.391591 118.08 
L 195.913409 118.08 
L 195.913409 118.08 
L 194.391591 118.08 
z
" style="fill:#ffffff;"/>
   </g>
   <g id="patch_103">
    <path clip-path="url(#p39e7fcb150)" d="M 43.731591 118.08 
L 45.253409 118.08 
L 45.253409 118.08 
L 43.731591 118.08 
z
" style="fill:#ffffff;"/>
   </g>
   <g id="patch_104">
    <path clip-path="url(#p39e7fcb150)" d="M 45.253409 118.08 
L 46.775227 118.08 
L 46.775227 118.08 
L 45.253409 118.08 
z
" style="fill:#ffffff;"/>
   </g>
   <g id="patch_105">
    <path clip-path="url(#p39e7fcb150)" d="M 46.775227 118.08 
L 48.297045 118.08 
L 48.297045 118.08 
L 46.775227 118.08 
z
" style="fill:#ffffff;"/>
   </g>
   <g id="patch_106">
    <path clip-path="url(#p39e7fcb150)" d="M 48.297045 118.08 
L 49.818864 118.08 
L 49.818864 118.08 
L 48.297045 118.08 
z
" style="fill:#ffffff;"/>
   </g>
   <g id="patch_107">
    <path clip-path="url(#p39e7fcb150)" d="M 49.818864 118.08 
L 51.340682 118.08 
L 51.340682 118.08 
L 49.818864 118.08 
z
" style="fill:#ffffff;"/>
   </g>
   <g id="patch_108">
    <path clip-path="url(#p39e7fcb150)" d="M 51.340682 118.08 
L 52.8625 118.08 
L 52.8625 116.906667 
L 51.340682 116.906667 
z
" style="fill:#ffffff;"/>
   </g>
   <g id="patch_109">
    <path clip-path="url(#p39e7fcb150)" d="M 52.8625 118.08 
L 54.384318 118.08 
L 54.384318 116.906667 
L 52.8625 116.906667 
z
" style="fill:#ffffff;"/>
   </g>
   <g id="patch_110">
    <path clip-path="url(#p39e7fcb150)" d="M 54.384318 118.08 
L 55.906136 118.08 
L 55.906136 116.906667 
L 54.384318 116.906667 
z
" style="fill:#ffffff;"/>
   </g>
   <g id="patch_111">
    <path clip-path="url(#p39e7fcb150)" d="M 55.906136 118.08 
L 57.427955 118.08 
L 57.427955 118.08 
L 55.906136 118.08 
z
" style="fill:#ffffff;"/>
   </g>
   <g id="patch_112">
    <path clip-path="url(#p39e7fcb150)" d="M 57.427955 118.08 
L 58.949773 118.08 
L 58.949773 118.08 
L 57.427955 118.08 
z
" style="fill:#ffffff;"/>
   </g>
   <g id="patch_113">
    <path clip-path="url(#p39e7fcb150)" d="M 58.949773 118.08 
L 60.471591 118.08 
L 60.471591 118.08 
L 58.949773 118.08 
z
" style="fill:#ffffff;"/>
   </g>
   <g id="patch_114">
    <path clip-path="url(#p39e7fcb150)" d="M 60.471591 118.08 
L 61.993409 118.08 
L 61.993409 118.08 
L 60.471591 118.08 
z
" style="fill:#ffffff;"/>
   </g>
   <g id="patch_115">
    <path clip-path="url(#p39e7fcb150)" d="M 61.993409 118.08 
L 63.515227 118.08 
L 63.515227 115.733333 
L 61.993409 115.733333 
z
" style="fill:#ffffff;"/>
   </g>
   <g id="patch_116">
    <path clip-path="url(#p39e7fcb150)" d="M 63.515227 118.08 
L 65.037045 118.08 
L 65.037045 114.56 
L 63.515227 114.56 
z
" style="fill:#ffffff;"/>
   </g>
   <g id="patch_117">
    <path clip-path="url(#p39e7fcb150)" d="M 65.037045 118.08 
L 66.558864 118.08 
L 66.558864 116.906667 
L 65.037045 116.906667 
z
" style="fill:#ffffff;"/>
   </g>
   <g id="patch_118">
    <path clip-path="url(#p39e7fcb150)" d="M 66.558864 118.08 
L 68.080682 118.08 
L 68.080682 114.56 
L 66.558864 114.56 
z
" style="fill:#ffffff;"/>
   </g>
   <g id="patch_119">
    <path clip-path="url(#p39e7fcb150)" d="M 68.080682 118.08 
L 69.6025 118.08 
L 69.6025 115.733333 
L 68.080682 115.733333 
z
" style="fill:#ffffff;"/>
   </g>
   <g id="patch_120">
    <path clip-path="url(#p39e7fcb150)" d="M 69.6025 118.08 
L 71.124318 118.08 
L 71.124318 113.386667 
L 69.6025 113.386667 
z
" style="fill:#ffffff;"/>
   </g>
   <g id="patch_121">
    <path clip-path="url(#p39e7fcb150)" d="M 71.124318 118.08 
L 72.646136 118.08 
L 72.646136 114.56 
L 71.124318 114.56 
z
" style="fill:#ffffff;"/>
   </g>
   <g id="patch_122">
    <path clip-path="url(#p39e7fcb150)" d="M 72.646136 118.08 
L 74.167955 118.08 
L 74.167955 115.733333 
L 72.646136 115.733333 
z
" style="fill:#ffffff;"/>
   </g>
   <g id="patch_123">
    <path clip-path="url(#p39e7fcb150)" d="M 74.167955 118.08 
L 75.689773 118.08 
L 75.689773 111.04 
L 74.167955 111.04 
z
" style="fill:#ffffff;"/>
   </g>
   <g id="patch_124">
    <path clip-path="url(#p39e7fcb150)" d="M 75.689773 118.08 
L 77.211591 118.08 
L 77.211591 106.346667 
L 75.689773 106.346667 
z
" style="fill:#ffffff;"/>
   </g>
   <g id="patch_125">
    <path clip-path="url(#p39e7fcb150)" d="M 77.211591 118.08 
L 78.733409 118.08 
L 78.733409 105.173333 
L 77.211591 105.173333 
z
" style="fill:#ffffff;"/>
   </g>
   <g id="patch_126">
    <path clip-path="url(#p39e7fcb150)" d="M 78.733409 118.08 
L 80.255227 118.08 
L 80.255227 109.866667 
L 78.733409 109.866667 
z
" style="fill:#ffffff;"/>
   </g>
   <g id="patch_127">
    <path clip-path="url(#p39e7fcb150)" d="M 80.255227 118.08 
L 81.777045 118.08 
L 81.777045 105.173333 
L 80.255227 105.173333 
z
" style="fill:#ffffff;"/>
   </g>
   <g id="patch_128">
    <path clip-path="url(#p39e7fcb150)" d="M 81.777045 118.08 
L 83.298864 118.08 
L 83.298864 107.52 
L 81.777045 107.52 
z
" style="fill:#ffffff;"/>
   </g>
   <g id="patch_129">
    <path clip-path="url(#p39e7fcb150)" d="M 83.298864 118.08 
L 84.820682 118.08 
L 84.820682 108.693333 
L 83.298864 108.693333 
z
" style="fill:#ffffff;"/>
   </g>
   <g id="patch_130">
    <path clip-path="url(#p39e7fcb150)" d="M 84.820682 118.08 
L 86.3425 118.08 
L 86.3425 95.786667 
L 84.820682 95.786667 
z
" style="fill:#ffffff;"/>
   </g>
   <g id="patch_131">
    <path clip-path="url(#p39e7fcb150)" d="M 86.3425 118.08 
L 87.864318 118.08 
L 87.864318 106.346667 
L 86.3425 106.346667 
z
" style="fill:#ffffff;"/>
   </g>
   <g id="patch_132">
    <path clip-path="url(#p39e7fcb150)" d="M 87.864318 118.08 
L 89.386136 118.08 
L 89.386136 88.746667 
L 87.864318 88.746667 
z
" style="fill:#ffffff;"/>
   </g>
   <g id="patch_133">
    <path clip-path="url(#p39e7fcb150)" d="M 89.386136 118.08 
L 90.907955 118.08 
L 90.907955 94.613333 
L 89.386136 94.613333 
z
" style="fill:#ffffff;"/>
   </g>
   <g id="patch_134">
    <path clip-path="url(#p39e7fcb150)" d="M 90.907955 118.08 
L 92.429773 118.08 
L 92.429773 79.36 
L 90.907955 79.36 
z
" style="fill:#ffffff;"/>
   </g>
   <g id="patch_135">
    <path clip-path="url(#p39e7fcb150)" d="M 92.429773 118.08 
L 93.951591 118.08 
L 93.951591 79.36 
L 92.429773 79.36 
z
" style="fill:#ffffff;"/>
   </g>
   <g id="patch_136">
    <path clip-path="url(#p39e7fcb150)" d="M 93.951591 118.08 
L 95.473409 118.08 
L 95.473409 68.8 
L 93.951591 68.8 
z
" style="fill:#ffffff;"/>
   </g>
   <g id="patch_137">
    <path clip-path="url(#p39e7fcb150)" d="M 95.473409 118.08 
L 96.995227 118.08 
L 96.995227 74.666667 
L 95.473409 74.666667 
z
" style="fill:#ffffff;"/>
   </g>
   <g id="patch_138">
    <path clip-path="url(#p39e7fcb150)" d="M 96.995227 118.08 
L 98.517045 118.08 
L 98.517045 66.453333 
L 96.995227 66.453333 
z
" style="fill:#ffffff;"/>
   </g>
   <g id="patch_139">
    <path clip-path="url(#p39e7fcb150)" d="M 98.517045 118.08 
L 100.038864 118.08 
L 100.038864 72.32 
L 98.517045 72.32 
z
" style="fill:#ffffff;"/>
   </g>
   <g id="patch_140">
    <path clip-path="url(#p39e7fcb150)" d="M 100.038864 118.08 
L 101.560682 118.08 
L 101.560682 65.28 
L 100.038864 65.28 
z
" style="fill:#ffffff;"/>
   </g>
   <g id="patch_141">
    <path clip-path="url(#p39e7fcb150)" d="M 101.560682 118.08 
L 103.0825 118.08 
L 103.0825 51.2 
L 101.560682 51.2 
z
" style="fill:#ffffff;"/>
   </g>
   <g id="patch_142">
    <path clip-path="url(#p39e7fcb150)" d="M 103.0825 118.08 
L 104.604318 118.08 
L 104.604318 54.72 
L 103.0825 54.72 
z
" style="fill:#ffffff;"/>
   </g>
   <g id="patch_143">
    <path clip-path="url(#p39e7fcb150)" d="M 104.604318 118.08 
L 106.126136 118.08 
L 106.126136 40.64 
L 104.604318 40.64 
z
" style="fill:#ffffff;"/>
   </g>
   <g id="patch_144">
    <path clip-path="url(#p39e7fcb150)" d="M 106.126136 118.08 
L 107.647955 118.08 
L 107.647955 78.186667 
L 106.126136 78.186667 
z
" style="fill:#ffffff;"/>
   </g>
   <g id="patch_145">
    <path clip-path="url(#p39e7fcb150)" d="M 107.647955 118.08 
L 109.169773 118.08 
L 109.169773 50.026667 
L 107.647955 50.026667 
z
" style="fill:#ffffff;"/>
   </g>
   <g id="patch_146">
    <path clip-path="url(#p39e7fcb150)" d="M 109.169773 118.08 
L 110.691591 118.08 
L 110.691591 57.066667 
L 109.169773 57.066667 
z
" style="fill:#ffffff;"/>
   </g>
   <g id="patch_147">
    <path clip-path="url(#p39e7fcb150)" d="M 110.691591 118.08 
L 112.213409 118.08 
L 112.213409 59.413333 
L 110.691591 59.413333 
z
" style="fill:#ffffff;"/>
   </g>
   <g id="patch_148">
    <path clip-path="url(#p39e7fcb150)" d="M 112.213409 118.08 
L 113.735227 118.08 
L 113.735227 12.48 
L 112.213409 12.48 
z
" style="fill:#ffffff;"/>
   </g>
   <g id="patch_149">
    <path clip-path="url(#p39e7fcb150)" d="M 113.735227 118.08 
L 115.257045 118.08 
L 115.257045 54.72 
L 113.735227 54.72 
z
" style="fill:#ffffff;"/>
   </g>
   <g id="patch_150">
    <path clip-path="url(#p39e7fcb150)" d="M 115.257045 118.08 
L 116.778864 118.08 
L 116.778864 30.08 
L 115.257045 30.08 
z
" style="fill:#ffffff;"/>
   </g>
   <g id="patch_151">
    <path clip-path="url(#p39e7fcb150)" d="M 116.778864 118.08 
L 118.300682 118.08 
L 118.300682 32.426667 
L 116.778864 32.426667 
z
" style="fill:#ffffff;"/>
   </g>
   <g id="patch_152">
    <path clip-path="url(#p39e7fcb150)" d="M 118.300682 118.08 
L 119.8225 118.08 
L 119.8225 37.12 
L 118.300682 37.12 
z
" style="fill:#ffffff;"/>
   </g>
   <g id="patch_153">
    <path clip-path="url(#p39e7fcb150)" d="M 119.8225 118.08 
L 121.344318 118.08 
L 121.344318 13.653333 
L 119.8225 13.653333 
z
" style="fill:#ffffff;"/>
   </g>
   <g id="patch_154">
    <path clip-path="url(#p39e7fcb150)" d="M 121.344318 118.08 
L 122.866136 118.08 
L 122.866136 53.546667 
L 121.344318 53.546667 
z
" style="fill:#ffffff;"/>
   </g>
   <g id="patch_155">
    <path clip-path="url(#p39e7fcb150)" d="M 122.866136 118.08 
L 124.387955 118.08 
L 124.387955 34.773333 
L 122.866136 34.773333 
z
" style="fill:#ffffff;"/>
   </g>
   <g id="patch_156">
    <path clip-path="url(#p39e7fcb150)" d="M 124.387955 118.08 
L 125.909773 118.08 
L 125.909773 19.52 
L 124.387955 19.52 
z
" style="fill:#ffffff;"/>
   </g>
   <g id="patch_157">
    <path clip-path="url(#p39e7fcb150)" d="M 125.909773 118.08 
L 127.431591 118.08 
L 127.431591 35.946667 
L 125.909773 35.946667 
z
" style="fill:#ffffff;"/>
   </g>
   <g id="patch_158">
    <path clip-path="url(#p39e7fcb150)" d="M 127.431591 118.08 
L 128.953409 118.08 
L 128.953409 21.866667 
L 127.431591 21.866667 
z
" style="fill:#ffffff;"/>
   </g>
   <g id="patch_159">
    <path clip-path="url(#p39e7fcb150)" d="M 128.953409 118.08 
L 130.475227 118.08 
L 130.475227 54.72 
L 128.953409 54.72 
z
" style="fill:#ffffff;"/>
   </g>
   <g id="patch_160">
    <path clip-path="url(#p39e7fcb150)" d="M 130.475227 118.08 
L 131.997045 118.08 
L 131.997045 33.6 
L 130.475227 33.6 
z
" style="fill:#ffffff;"/>
   </g>
   <g id="patch_161">
    <path clip-path="url(#p39e7fcb150)" d="M 131.997045 118.08 
L 133.518864 118.08 
L 133.518864 44.16 
L 131.997045 44.16 
z
" style="fill:#ffffff;"/>
   </g>
   <g id="patch_162">
    <path clip-path="url(#p39e7fcb150)" d="M 133.518864 118.08 
L 135.040682 118.08 
L 135.040682 32.426667 
L 133.518864 32.426667 
z
" style="fill:#ffffff;"/>
   </g>
   <g id="patch_163">
    <path clip-path="url(#p39e7fcb150)" d="M 135.040682 118.08 
L 136.5625 118.08 
L 136.5625 32.426667 
L 135.040682 32.426667 
z
" style="fill:#ffffff;"/>
   </g>
   <g id="patch_164">
    <path clip-path="url(#p39e7fcb150)" d="M 136.5625 118.08 
L 138.084318 118.08 
L 138.084318 60.586667 
L 136.5625 60.586667 
z
" style="fill:#ffffff;"/>
   </g>
   <g id="patch_165">
    <path clip-path="url(#p39e7fcb150)" d="M 138.084318 118.08 
L 139.606136 118.08 
L 139.606136 47.68 
L 138.084318 47.68 
z
" style="fill:#ffffff;"/>
   </g>
   <g id="patch_166">
    <path clip-path="url(#p39e7fcb150)" d="M 139.606136 118.08 
L 141.127955 118.08 
L 141.127955 59.413333 
L 139.606136 59.413333 
z
" style="fill:#ffffff;"/>
   </g>
   <g id="patch_167">
    <path clip-path="url(#p39e7fcb150)" d="M 141.127955 118.08 
L 142.649773 118.08 
L 142.649773 68.8 
L 141.127955 68.8 
z
" style="fill:#ffffff;"/>
   </g>
   <g id="patch_168">
    <path clip-path="url(#p39e7fcb150)" d="M 142.649773 118.08 
L 144.171591 118.08 
L 144.171591 47.68 
L 142.649773 47.68 
z
" style="fill:#ffffff;"/>
   </g>
   <g id="patch_169">
    <path clip-path="url(#p39e7fcb150)" d="M 144.171591 118.08 
L 145.693409 118.08 
L 145.693409 75.84 
L 144.171591 75.84 
z
" style="fill:#ffffff;"/>
   </g>
   <g id="patch_170">
    <path clip-path="url(#p39e7fcb150)" d="M 145.693409 118.08 
L 147.215227 118.08 
L 147.215227 80.533333 
L 145.693409 80.533333 
z
" style="fill:#ffffff;"/>
   </g>
   <g id="patch_171">
    <path clip-path="url(#p39e7fcb150)" d="M 147.215227 118.08 
L 148.737045 118.08 
L 148.737045 72.32 
L 147.215227 72.32 
z
" style="fill:#ffffff;"/>
   </g>
   <g id="patch_172">
    <path clip-path="url(#p39e7fcb150)" d="M 148.737045 118.08 
L 150.258864 118.08 
L 150.258864 89.92 
L 148.737045 89.92 
z
" style="fill:#ffffff;"/>
   </g>
   <g id="patch_173">
    <path clip-path="url(#p39e7fcb150)" d="M 150.258864 118.08 
L 151.780682 118.08 
L 151.780682 79.36 
L 150.258864 79.36 
z
" style="fill:#ffffff;"/>
   </g>
   <g id="patch_174">
    <path clip-path="url(#p39e7fcb150)" d="M 151.780682 118.08 
L 153.3025 118.08 
L 153.3025 88.746667 
L 151.780682 88.746667 
z
" style="fill:#ffffff;"/>
   </g>
   <g id="patch_175">
    <path clip-path="url(#p39e7fcb150)" d="M 153.3025 118.08 
L 154.824318 118.08 
L 154.824318 86.4 
L 153.3025 86.4 
z
" style="fill:#ffffff;"/>
   </g>
   <g id="patch_176">
    <path clip-path="url(#p39e7fcb150)" d="M 154.824318 118.08 
L 156.346136 118.08 
L 156.346136 91.093333 
L 154.824318 91.093333 
z
" style="fill:#ffffff;"/>
   </g>
   <g id="patch_177">
    <path clip-path="url(#p39e7fcb150)" d="M 156.346136 118.08 
L 157.867955 118.08 
L 157.867955 100.48 
L 156.346136 100.48 
z
" style="fill:#ffffff;"/>
   </g>
   <g id="patch_178">
    <path clip-path="url(#p39e7fcb150)" d="M 157.867955 118.08 
L 159.389773 118.08 
L 159.389773 92.266667 
L 157.867955 92.266667 
z
" style="fill:#ffffff;"/>
   </g>
   <g id="patch_179">
    <path clip-path="url(#p39e7fcb150)" d="M 159.389773 118.08 
L 160.911591 118.08 
L 160.911591 106.346667 
L 159.389773 106.346667 
z
" style="fill:#ffffff;"/>
   </g>
   <g id="patch_180">
    <path clip-path="url(#p39e7fcb150)" d="M 160.911591 118.08 
L 162.433409 118.08 
L 162.433409 107.52 
L 160.911591 107.52 
z
" style="fill:#ffffff;"/>
   </g>
   <g id="patch_181">
    <path clip-path="url(#p39e7fcb150)" d="M 162.433409 118.08 
L 163.955227 118.08 
L 163.955227 101.653333 
L 162.433409 101.653333 
z
" style="fill:#ffffff;"/>
   </g>
   <g id="patch_182">
    <path clip-path="url(#p39e7fcb150)" d="M 163.955227 118.08 
L 165.477045 118.08 
L 165.477045 105.173333 
L 163.955227 105.173333 
z
" style="fill:#ffffff;"/>
   </g>
   <g id="patch_183">
    <path clip-path="url(#p39e7fcb150)" d="M 165.477045 118.08 
L 166.998864 118.08 
L 166.998864 107.52 
L 165.477045 107.52 
z
" style="fill:#ffffff;"/>
   </g>
   <g id="patch_184">
    <path clip-path="url(#p39e7fcb150)" d="M 166.998864 118.08 
L 168.520682 118.08 
L 168.520682 111.04 
L 166.998864 111.04 
z
" style="fill:#ffffff;"/>
   </g>
   <g id="patch_185">
    <path clip-path="url(#p39e7fcb150)" d="M 168.520682 118.08 
L 170.0425 118.08 
L 170.0425 115.733333 
L 168.520682 115.733333 
z
" style="fill:#ffffff;"/>
   </g>
   <g id="patch_186">
    <path clip-path="url(#p39e7fcb150)" d="M 170.0425 118.08 
L 171.564318 118.08 
L 171.564318 112.213333 
L 170.0425 112.213333 
z
" style="fill:#ffffff;"/>
   </g>
   <g id="patch_187">
    <path clip-path="url(#p39e7fcb150)" d="M 171.564318 118.08 
L 173.086136 118.08 
L 173.086136 109.866667 
L 171.564318 109.866667 
z
" style="fill:#ffffff;"/>
   </g>
   <g id="patch_188">
    <path clip-path="url(#p39e7fcb150)" d="M 173.086136 118.08 
L 174.607955 118.08 
L 174.607955 116.906667 
L 173.086136 116.906667 
z
" style="fill:#ffffff;"/>
   </g>
   <g id="patch_189">
    <path clip-path="url(#p39e7fcb150)" d="M 174.607955 118.08 
L 176.129773 118.08 
L 176.129773 114.56 
L 174.607955 114.56 
z
" style="fill:#ffffff;"/>
   </g>
   <g id="patch_190">
    <path clip-path="url(#p39e7fcb150)" d="M 176.129773 118.08 
L 177.651591 118.08 
L 177.651591 118.08 
L 176.129773 118.08 
z
" style="fill:#ffffff;"/>
   </g>
   <g id="patch_191">
    <path clip-path="url(#p39e7fcb150)" d="M 177.651591 118.08 
L 179.173409 118.08 
L 179.173409 116.906667 
L 177.651591 116.906667 
z
" style="fill:#ffffff;"/>
   </g>
   <g id="patch_192">
    <path clip-path="url(#p39e7fcb150)" d="M 179.173409 118.08 
L 180.695227 118.08 
L 180.695227 115.733333 
L 179.173409 115.733333 
z
" style="fill:#ffffff;"/>
   </g>
   <g id="patch_193">
    <path clip-path="url(#p39e7fcb150)" d="M 180.695227 118.08 
L 182.217045 118.08 
L 182.217045 118.08 
L 180.695227 118.08 
z
" style="fill:#ffffff;"/>
   </g>
   <g id="patch_194">
    <path clip-path="url(#p39e7fcb150)" d="M 182.217045 118.08 
L 183.738864 118.08 
L 183.738864 118.08 
L 182.217045 118.08 
z
" style="fill:#ffffff;"/>
   </g>
   <g id="patch_195">
    <path clip-path="url(#p39e7fcb150)" d="M 183.738864 118.08 
L 185.260682 118.08 
L 185.260682 118.08 
L 183.738864 118.08 
z
" style="fill:#ffffff;"/>
   </g>
   <g id="patch_196">
    <path clip-path="url(#p39e7fcb150)" d="M 185.260682 118.08 
L 186.7825 118.08 
L 186.7825 118.08 
L 185.260682 118.08 
z
" style="fill:#ffffff;"/>
   </g>
   <g id="patch_197">
    <path clip-path="url(#p39e7fcb150)" d="M 186.7825 118.08 
L 188.304318 118.08 
L 188.304318 116.906667 
L 186.7825 116.906667 
z
" style="fill:#ffffff;"/>
   </g>
   <g id="patch_198">
    <path clip-path="url(#p39e7fcb150)" d="M 188.304318 118.08 
L 189.826136 118.08 
L 189.826136 118.08 
L 188.304318 118.08 
z
" style="fill:#ffffff;"/>
   </g>
   <g id="patch_199">
    <path clip-path="url(#p39e7fcb150)" d="M 189.826136 118.08 
L 191.347955 118.08 
L 191.347955 118.08 
L 189.826136 118.08 
z
" style="fill:#ffffff;"/>
   </g>
   <g id="patch_200">
    <path clip-path="url(#p39e7fcb150)" d="M 191.347955 118.08 
L 192.869773 118.08 
L 192.869773 118.08 
L 191.347955 118.08 
z
" style="fill:#ffffff;"/>
   </g>
   <g id="patch_201">
    <path clip-path="url(#p39e7fcb150)" d="M 192.869773 118.08 
L 194.391591 118.08 
L 194.391591 116.906667 
L 192.869773 116.906667 
z
" style="fill:#ffffff;"/>
   </g>
   <g id="patch_202">
    <path clip-path="url(#p39e7fcb150)" d="M 194.391591 118.08 
L 195.913409 118.08 
L 195.913409 118.08 
L 194.391591 118.08 
z
" style="fill:#ffffff;"/>
   </g>
   <g id="matplotlib.axis_1">
    <g id="xtick_1">
     <g id="line2d_1">
      <defs>
       <path d="M 0 0 
L 0 3.5 
" id="mfda16e97f9" style="stroke:#000000;stroke-width:1.5;"/>
      </defs>
      <g>
       <use style="stroke:#000000;stroke-width:1.5;" x="43.731591" xlink:href="#mfda16e97f9" y="118.08"/>
      </g>
     </g>
     <g id="text_1">
      <text style="font-family:DejaVu Sans;font-size:8px;font-stretch:normal;font-style:normal;font-weight:normal;text-anchor:middle;" transform="rotate(-0, 43.731591, 131.15875)" x="43.731591" y="131.15875">20</text>
     </g>
    </g>
    <g id="xtick_2">
     <g id="line2d_2">
      <g>
       <use style="stroke:#000000;stroke-width:1.5;" x="81.777045" xlink:href="#mfda16e97f9" y="118.08"/>
      </g>
     </g>
     <g id="text_2">
      <text style="font-family:DejaVu Sans;font-size:8px;font-stretch:normal;font-style:normal;font-weight:normal;text-anchor:middle;" transform="rotate(-0, 81.777045, 131.15875)" x="81.777045" y="131.15875">30</text>
     </g>
    </g>
    <g id="xtick_3">
     <g id="line2d_3">
      <g>
       <use style="stroke:#000000;stroke-width:1.5;" x="119.8225" xlink:href="#mfda16e97f9" y="118.08"/>
      </g>
     </g>
     <g id="text_3">
      <text style="font-family:DejaVu Sans;font-size:8px;font-stretch:normal;font-style:normal;font-weight:normal;text-anchor:middle;" transform="rotate(-0, 119.8225, 131.15875)" x="119.8225" y="131.15875">40</text>
     </g>
    </g>
    <g id="xtick_4">
     <g id="line2d_4">
      <g>
       <use style="stroke:#000000;stroke-width:1.5;" x="157.867955" xlink:href="#mfda16e97f9" y="118.08"/>
      </g>
     </g>
     <g id="text_4">
      <text style="font-family:DejaVu Sans;font-size:8px;font-stretch:normal;font-style:normal;font-weight:normal;text-anchor:middle;" transform="rotate(-0, 157.867955, 131.15875)" x="157.867955" y="131.15875">50</text>
     </g>
    </g>
    <g id="xtick_5">
     <g id="line2d_5">
      <g>
       <use style="stroke:#000000;stroke-width:1.5;" x="195.913409" xlink:href="#mfda16e97f9" y="118.08"/>
      </g>
     </g>
     <g id="text_5">
      <text style="font-family:DejaVu Sans;font-size:8px;font-stretch:normal;font-style:normal;font-weight:normal;text-anchor:middle;" transform="rotate(-0, 195.913409, 131.15875)" x="195.913409" y="131.15875">60</text>
     </g>
    </g>
    <g id="text_6">
     <text style="font-family:DejaVu Sans;font-size:8px;font-stretch:normal;font-style:normal;font-weight:normal;text-anchor:middle;" transform="rotate(-0, 119.8225, 142.90125)" x="119.8225" y="142.90125">Number of spikes / second</text>
    </g>
   </g>
   <g id="matplotlib.axis_2">
    <g id="ytick_1">
     <g id="line2d_6">
      <defs>
       <path d="M 0 0 
L -3.5 0 
" id="m39db95e3b7" style="stroke:#000000;stroke-width:1.5;"/>
      </defs>
      <g>
       <use style="stroke:#000000;stroke-width:1.5;" x="36.1225" xlink:href="#m39db95e3b7" y="118.08"/>
      </g>
     </g>
     <g id="text_7">
      <text style="font-family:DejaVu Sans;font-size:8px;font-stretch:normal;font-style:normal;font-weight:normal;text-anchor:end;" transform="rotate(-0, 29.1225, 121.119375)" x="29.1225" y="121.119375">0</text>
     </g>
    </g>
    <g id="ytick_2">
     <g id="line2d_7">
      <g>
       <use style="stroke:#000000;stroke-width:1.5;" x="36.1225" xlink:href="#m39db95e3b7" y="94.613333"/>
      </g>
     </g>
     <g id="text_8">
      <text style="font-family:DejaVu Sans;font-size:8px;font-stretch:normal;font-style:normal;font-weight:normal;text-anchor:end;" transform="rotate(-0, 29.1225, 97.652708)" x="29.1225" y="97.652708">20</text>
     </g>
    </g>
    <g id="ytick_3">
     <g id="line2d_8">
      <g>
       <use style="stroke:#000000;stroke-width:1.5;" x="36.1225" xlink:href="#m39db95e3b7" y="71.146667"/>
      </g>
     </g>
     <g id="text_9">
      <text style="font-family:DejaVu Sans;font-size:8px;font-stretch:normal;font-style:normal;font-weight:normal;text-anchor:end;" transform="rotate(-0, 29.1225, 74.186042)" x="29.1225" y="74.186042">40</text>
     </g>
    </g>
    <g id="ytick_4">
     <g id="line2d_9">
      <g>
       <use style="stroke:#000000;stroke-width:1.5;" x="36.1225" xlink:href="#m39db95e3b7" y="47.68"/>
      </g>
     </g>
     <g id="text_10">
      <text style="font-family:DejaVu Sans;font-size:8px;font-stretch:normal;font-style:normal;font-weight:normal;text-anchor:end;" transform="rotate(-0, 29.1225, 50.719375)" x="29.1225" y="50.719375">60</text>
     </g>
    </g>
    <g id="ytick_5">
     <g id="line2d_10">
      <g>
       <use style="stroke:#000000;stroke-width:1.5;" x="36.1225" xlink:href="#m39db95e3b7" y="24.213333"/>
      </g>
     </g>
     <g id="text_11">
      <text style="font-family:DejaVu Sans;font-size:8px;font-stretch:normal;font-style:normal;font-weight:normal;text-anchor:end;" transform="rotate(-0, 29.1225, 27.252708)" x="29.1225" y="27.252708">80</text>
     </g>
    </g>
    <g id="text_12">
     <text style="font-family:DejaVu Sans;font-size:8px;font-stretch:normal;font-style:normal;font-weight:normal;text-anchor:middle;" transform="rotate(-90, 13.27875, 62.64)" x="13.27875" y="62.64">Count</text>
    </g>
   </g>
   <g id="line2d_11">
    <path clip-path="url(#p39e7fcb150)" d="M 44.4925 118.08 
L 46.014318 118.08 
L 47.536136 118.08 
L 49.057955 118.08 
L 50.579773 118.08 
L 52.101591 118.08 
L 53.623409 118.08 
L 55.145227 118.08 
L 56.667045 118.08 
L 58.188864 118.08 
L 59.710682 118.08 
L 61.2325 118.08 
L 62.754318 118.08 
L 64.276136 115.733333 
L 65.797955 116.906667 
L 67.319773 116.906667 
L 68.841591 115.733333 
L 70.363409 114.56 
L 71.885227 115.733333 
L 73.407045 113.386667 
L 74.928864 113.386667 
L 76.450682 114.56 
L 77.9725 109.866667 
L 79.494318 112.213333 
L 81.016136 107.52 
L 82.537955 108.693333 
L 84.059773 104 
L 85.581591 102.826667 
L 87.103409 100.48 
L 88.625227 87.573333 
L 90.147045 91.093333 
L 91.668864 96.96 
L 93.190682 85.226667 
L 94.7125 87.573333 
L 96.234318 69.973333 
L 97.756136 82.88 
L 99.277955 82.88 
L 100.799773 64.106667 
L 102.321591 61.76 
L 103.843409 65.28 
L 105.365227 35.946667 
L 106.887045 71.146667 
L 108.408864 45.333333 
L 109.930682 37.12 
L 111.4525 66.453333 
L 112.974318 18.346667 
L 114.496136 67.626667 
L 116.017955 38.293333 
L 117.539773 39.466667 
L 119.061591 42.986667 
L 120.583409 24.213333 
L 122.105227 59.413333 
L 123.627045 16 
L 125.148864 26.56 
L 126.670682 39.466667 
L 128.1925 13.653333 
L 129.714318 47.68 
L 131.236136 33.6 
L 132.757955 46.506667 
L 134.279773 55.893333 
L 135.801591 20.693333 
L 137.323409 62.933333 
L 138.845227 61.76 
L 140.367045 34.773333 
L 141.888864 50.026667 
L 143.410682 65.28 
L 144.9325 82.88 
L 146.454318 71.146667 
L 147.976136 65.28 
L 149.497955 79.36 
L 151.019773 62.933333 
L 152.541591 77.013333 
L 154.063409 81.706667 
L 155.585227 80.533333 
L 157.107045 91.093333 
L 158.628864 86.4 
L 160.150682 96.96 
L 161.6725 100.48 
L 163.194318 104 
L 164.716136 104 
L 166.237955 107.52 
L 167.759773 106.346667 
L 169.281591 109.866667 
L 170.803409 112.213333 
L 172.325227 114.56 
L 173.847045 108.693333 
L 175.368864 118.08 
L 176.890682 116.906667 
L 178.4125 113.386667 
L 179.934318 114.56 
L 181.456136 116.906667 
L 182.977955 114.56 
L 184.499773 116.906667 
L 186.021591 118.08 
L 187.543409 116.906667 
L 189.065227 118.08 
L 190.587045 118.08 
L 192.108864 118.08 
L 193.630682 118.08 
L 195.1525 118.08 
" style="fill:none;stroke:#1f77b4;stroke-linecap:square;stroke-width:1.5;"/>
   </g>
   <g id="line2d_12">
    <path clip-path="url(#p39e7fcb150)" d="M 44.4925 118.08 
L 46.014318 118.08 
L 47.536136 118.08 
L 49.057955 118.08 
L 50.579773 118.08 
L 52.101591 116.906667 
L 53.623409 116.906667 
L 55.145227 116.906667 
L 56.667045 118.08 
L 58.188864 118.08 
L 59.710682 118.08 
L 61.2325 118.08 
L 62.754318 115.733333 
L 64.276136 114.56 
L 65.797955 116.906667 
L 67.319773 114.56 
L 68.841591 115.733333 
L 70.363409 113.386667 
L 71.885227 114.56 
L 73.407045 115.733333 
L 74.928864 111.04 
L 76.450682 106.346667 
L 77.9725 105.173333 
L 79.494318 109.866667 
L 81.016136 105.173333 
L 82.537955 107.52 
L 84.059773 108.693333 
L 85.581591 95.786667 
L 87.103409 106.346667 
L 88.625227 88.746667 
L 90.147045 94.613333 
L 91.668864 79.36 
L 93.190682 79.36 
L 94.7125 68.8 
L 96.234318 74.666667 
L 97.756136 66.453333 
L 99.277955 72.32 
L 100.799773 65.28 
L 102.321591 51.2 
L 103.843409 54.72 
L 105.365227 40.64 
L 106.887045 78.186667 
L 108.408864 50.026667 
L 109.930682 57.066667 
L 111.4525 59.413333 
L 112.974318 12.48 
L 114.496136 54.72 
L 116.017955 30.08 
L 117.539773 32.426667 
L 119.061591 37.12 
L 120.583409 13.653333 
L 122.105227 53.546667 
L 123.627045 34.773333 
L 125.148864 19.52 
L 126.670682 35.946667 
L 128.1925 21.866667 
L 129.714318 54.72 
L 131.236136 33.6 
L 132.757955 44.16 
L 134.279773 32.426667 
L 135.801591 32.426667 
L 137.323409 60.586667 
L 138.845227 47.68 
L 140.367045 59.413333 
L 141.888864 68.8 
L 143.410682 47.68 
L 144.9325 75.84 
L 146.454318 80.533333 
L 147.976136 72.32 
L 149.497955 89.92 
L 151.019773 79.36 
L 152.541591 88.746667 
L 154.063409 86.4 
L 155.585227 91.093333 
L 157.107045 100.48 
L 158.628864 92.266667 
L 160.150682 106.346667 
L 161.6725 107.52 
L 163.194318 101.653333 
L 164.716136 105.173333 
L 166.237955 107.52 
L 167.759773 111.04 
L 169.281591 115.733333 
L 170.803409 112.213333 
L 172.325227 109.866667 
L 173.847045 116.906667 
L 175.368864 114.56 
L 176.890682 118.08 
L 178.4125 116.906667 
L 179.934318 115.733333 
L 181.456136 118.08 
L 182.977955 118.08 
L 184.499773 118.08 
L 186.021591 118.08 
L 187.543409 116.906667 
L 189.065227 118.08 
L 190.587045 118.08 
L 192.108864 118.08 
L 193.630682 116.906667 
L 195.1525 118.08 
" style="fill:none;stroke:#ff7f0e;stroke-linecap:square;stroke-width:1.5;"/>
   </g>
   <g id="patch_203">
    <path d="M 36.1225 118.08 
L 36.1225 7.2 
" style="fill:none;stroke:#000000;stroke-linecap:square;stroke-linejoin:miter;stroke-width:1.5;"/>
   </g>
   <g id="patch_204">
    <path d="M 36.1225 118.08 
L 203.5225 118.08 
" style="fill:none;stroke:#000000;stroke-linecap:square;stroke-linejoin:miter;stroke-width:1.5;"/>
   </g>
   <g id="legend_1">
    <g id="line2d_13">
     <path d="M 146.12 17.67875 
L 162.12 17.67875 
" style="fill:none;stroke:#1f77b4;stroke-linecap:square;stroke-width:1.5;"/>
    </g>
    <g id="line2d_14"/>
    <g id="text_13">
     <text style="font-family:DejaVu Sans;font-size:8px;font-stretch:normal;font-style:normal;font-weight:normal;text-anchor:start;" transform="rotate(-0, 168.52, 20.47875)" x="168.52" y="20.47875">11 deg</text>
    </g>
    <g id="line2d_15">
     <path d="M 146.12 29.42125 
L 162.12 29.42125 
" style="fill:none;stroke:#ff7f0e;stroke-linecap:square;stroke-width:1.5;"/>
    </g>
    <g id="line2d_16"/>
    <g id="text_14">
     <text style="font-family:DejaVu Sans;font-size:8px;font-stretch:normal;font-style:normal;font-weight:normal;text-anchor:start;" transform="rotate(-0, 168.52, 32.22125)" x="168.52" y="32.22125">27 deg</text>
    </g>
   </g>
  </g>
 </g>
 <defs>
  <clipPath id="p39e7fcb150">
   <rect height="110.88" width="167.4" x="36.1225" y="7.2"/>
  </clipPath>
 </defs>
</svg>
