<?xml version="1.0" encoding="utf-8" standalone="no"?>
<!DOCTYPE svg PUBLIC "-//W3C//DTD SVG 1.1//EN"
  "http://www.w3.org/Graphics/SVG/1.1/DTD/svg11.dtd">
<!-- Created with matplotlib (https://matplotlib.org/) -->
<svg height="73.34pt" version="1.1" viewBox="0 0 419.66 73.34" width="419.66pt" xmlns="http://www.w3.org/2000/svg" xmlns:xlink="http://www.w3.org/1999/xlink">
 <metadata>
  <rdf:RDF xmlns:cc="http://creativecommons.org/ns#" xmlns:dc="http://purl.org/dc/elements/1.1/" xmlns:rdf="http://www.w3.org/1999/02/22-rdf-syntax-ns#">
   <cc:Work>
    <dc:type rdf:resource="http://purl.org/dc/dcmitype/StillImage"/>
    <dc:date>2020-10-27T17:16:30.186355</dc:date>
    <dc:format>image/svg+xml</dc:format>
    <dc:creator>
     <cc:Agent>
      <dc:title>Matplotlib v3.3.2, https://matplotlib.org/</dc:title>
     </cc:Agent>
    </dc:creator>
   </cc:Work>
  </rdf:RDF>
 </metadata>
 <defs>
  <style type="text/css">*{stroke-linecap:butt;stroke-linejoin:round;}</style>
 </defs>
 <g id="figure_1">
  <g id="patch_1">
   <path d="M 0 73.34 
L 419.66 73.34 
L 419.66 0 
L 0 0 
z
" style="fill:none;"/>
  </g>
  <g id="axes_1">
   <g id="patch_2">
    <path d="M 10.7 62.64 
L 53.440426 62.64 
L 53.440426 7.2 
L 10.7 7.2 
z
" style="fill:none;"/>
   </g>
   <g id="matplotlib.axis_1"/>
   <g id="matplotlib.axis_2"/>
   <g id="line2d_1">
    <path clip-path="url(#paa52ba2267)" d="M 12.642747 60.12 
L 13.982572 60.12 
L 15.322397 52.431864 
L 16.662222 48.587797 
L 18.002048 43.889492 
L 19.341873 37.482712 
L 20.681698 30.648814 
L 22.021523 29.794576 
L 23.361349 25.950508 
L 24.701174 22.960678 
L 26.040999 17.408136 
L 27.380824 16.553898 
L 28.72065 19.11661 
L 30.060475 28.086102 
L 31.4003 18.689492 
L 32.740125 23.387797 
L 34.079951 16.12678 
L 35.419776 18.262373 
L 36.759601 27.658983 
L 38.099426 22.106441 
L 39.439252 25.950508 
L 40.779077 20.825085 
L 42.118902 26.377627 
L 43.458727 31.503051 
L 44.798553 30.221695 
L 46.138378 34.065763 
L 47.478203 41.753898 
L 48.818028 41.753898 
L 50.157854 34.92 
L 51.497679 30.221695 
" style="fill:none;stroke:#1f77b4;stroke-linecap:square;stroke-width:1.5;"/>
   </g>
   <g id="line2d_2">
    <path clip-path="url(#paa52ba2267)" d="M 12.642747 60.12 
L 13.982572 60.12 
L 15.322397 55.421695 
L 16.662222 48.587797 
L 18.002048 40.045424 
L 19.341873 33.211525 
L 20.681698 33.638644 
L 22.021523 25.52339 
L 23.361349 11.855593 
L 24.701174 21.252203 
L 26.040999 18.262373 
L 27.380824 9.72 
L 28.72065 10.574237 
L 30.060475 20.397966 
L 31.4003 20.397966 
L 32.740125 16.12678 
L 34.079951 28.086102 
L 35.419776 19.11661 
L 36.759601 31.075932 
L 38.099426 28.51322 
L 39.439252 28.51322 
L 40.779077 29.367458 
L 42.118902 29.367458 
L 43.458727 26.804746 
L 44.798553 31.503051 
L 46.138378 40.045424 
L 47.478203 40.472542 
L 48.818028 35.774237 
L 50.157854 43.035254 
L 51.497679 40.045424 
" style="fill:none;stroke:#ff0000;stroke-linecap:square;stroke-width:1.5;"/>
   </g>
   <g id="patch_3">
    <path d="M 10.7 62.64 
L 10.7 7.2 
" style="fill:none;stroke:#000000;stroke-linecap:square;stroke-linejoin:miter;stroke-width:1.5;"/>
   </g>
   <g id="patch_4">
    <path d="M 10.7 62.64 
L 53.440426 62.64 
" style="fill:none;stroke:#000000;stroke-linecap:square;stroke-linejoin:miter;stroke-width:1.5;"/>
   </g>
  </g>
  <g id="axes_2">
   <g id="patch_5">
    <path d="M 61.988511 62.64 
L 104.728936 62.64 
L 104.728936 7.2 
L 61.988511 7.2 
z
" style="fill:none;"/>
   </g>
   <g id="matplotlib.axis_3"/>
   <g id="matplotlib.axis_4"/>
   <g id="line2d_3">
    <path clip-path="url(#pec6515ca2c)" d="M 63.931257 60.12 
L 65.271083 45.136216 
L 66.610908 45.817297 
L 67.950733 45.817297 
L 69.290558 33.557838 
L 70.630384 29.471351 
L 71.970209 9.72 
L 73.310034 19.936216 
L 74.649859 19.255135 
L 75.989685 21.979459 
L 77.32951 28.79027 
L 78.669335 13.125405 
L 80.00916 35.601081 
L 81.348986 15.168649 
L 82.688811 26.065946 
L 84.028636 17.892973 
L 85.368461 13.806486 
L 86.708287 29.471351 
L 88.048112 23.341622 
L 89.387937 33.557838 
L 90.727762 26.065946 
L 92.067588 35.601081 
L 93.407413 35.601081 
L 94.747238 29.471351 
L 96.087063 33.557838 
L 97.426889 40.368649 
L 98.766714 32.195676 
L 100.106539 33.557838 
L 101.446364 48.541622 
L 102.78619 50.584865 
" style="fill:none;stroke:#1f77b4;stroke-linecap:square;stroke-width:1.5;"/>
   </g>
   <g id="line2d_4">
    <path clip-path="url(#pec6515ca2c)" d="M 63.931257 57.395676 
L 65.271083 41.04973 
L 66.610908 44.455135 
L 67.950733 43.092973 
L 69.290558 30.152432 
L 70.630384 37.644324 
L 71.970209 15.84973 
L 73.310034 26.747027 
L 74.649859 23.341622 
L 75.989685 21.298378 
L 77.32951 19.936216 
L 78.669335 12.444324 
L 80.00916 23.341622 
L 81.348986 28.109189 
L 82.688811 21.979459 
L 84.028636 24.703784 
L 85.368461 30.152432 
L 86.708287 30.152432 
L 88.048112 26.747027 
L 89.387937 20.617297 
L 90.727762 28.109189 
L 92.067588 21.979459 
L 93.407413 31.514595 
L 94.747238 36.282162 
L 96.087063 34.92 
L 97.426889 46.498378 
L 98.766714 26.747027 
L 100.106539 32.195676 
L 101.446364 53.309189 
L 102.78619 41.730811 
" style="fill:none;stroke:#ff0000;stroke-linecap:square;stroke-width:1.5;"/>
   </g>
   <g id="patch_6">
    <path d="M 61.988511 62.64 
L 61.988511 7.2 
" style="fill:none;stroke:#000000;stroke-linecap:square;stroke-linejoin:miter;stroke-width:1.5;"/>
   </g>
   <g id="patch_7">
    <path d="M 61.988511 62.64 
L 104.728936 62.64 
" style="fill:none;stroke:#000000;stroke-linecap:square;stroke-linejoin:miter;stroke-width:1.5;"/>
   </g>
  </g>
  <g id="axes_3">
   <g id="patch_8">
    <path d="M 113.277021 62.64 
L 156.017447 62.64 
L 156.017447 7.2 
L 113.277021 7.2 
z
" style="fill:none;"/>
   </g>
   <g id="matplotlib.axis_5"/>
   <g id="matplotlib.axis_6"/>
   <g id="line2d_5">
    <path clip-path="url(#pf0420eca0e)" d="M 115.219768 59.749412 
L 116.559593 59.378824 
L 117.899418 57.525882 
L 119.239244 50.855294 
L 120.579069 51.225882 
L 121.918894 51.225882 
L 123.258719 42.702353 
L 124.598545 43.443529 
L 125.93837 28.62 
L 127.278195 31.584706 
L 128.61802 30.843529 
L 129.957846 23.431765 
L 131.297671 30.472941 
L 132.637496 23.061176 
L 133.977321 9.72 
L 135.317147 16.761176 
L 136.656972 14.537647 
L 137.996797 14.537647 
L 139.336622 12.684706 
L 140.676448 19.725882 
L 142.016273 25.284706 
L 143.356098 28.249412 
L 144.695923 26.767059 
L 146.035749 34.549412 
L 147.375574 37.514118 
L 148.715399 40.478824 
L 150.055224 42.702353 
L 151.39505 47.890588 
L 152.734875 46.408235 
L 154.0747 49.743529 
" style="fill:none;stroke:#1f77b4;stroke-linecap:square;stroke-width:1.5;"/>
   </g>
   <g id="line2d_6">
    <path clip-path="url(#pf0420eca0e)" d="M 115.219768 60.12 
L 116.559593 59.749412 
L 117.899418 59.008235 
L 119.239244 55.672941 
L 120.579069 55.302353 
L 121.918894 49.002353 
L 123.258719 43.072941 
L 124.598545 37.514118 
L 125.93837 35.290588 
L 127.278195 27.508235 
L 128.61802 21.578824 
L 129.957846 24.543529 
L 131.297671 24.914118 
L 132.637496 18.243529 
L 133.977321 19.725882 
L 135.317147 13.796471 
L 136.656972 15.278824 
L 137.996797 18.984706 
L 139.336622 21.208235 
L 140.676448 23.431765 
L 142.016273 19.355294 
L 143.356098 21.949412 
L 144.695923 30.472941 
L 146.035749 29.361176 
L 147.375574 36.031765 
L 148.715399 42.702353 
L 150.055224 41.590588 
L 151.39505 47.52 
L 152.734875 47.52 
L 154.0747 51.225882 
" style="fill:none;stroke:#ff0000;stroke-linecap:square;stroke-width:1.5;"/>
   </g>
   <g id="patch_9">
    <path d="M 113.277021 62.64 
L 113.277021 7.2 
" style="fill:none;stroke:#000000;stroke-linecap:square;stroke-linejoin:miter;stroke-width:1.5;"/>
   </g>
   <g id="patch_10">
    <path d="M 113.277021 62.64 
L 156.017447 62.64 
" style="fill:none;stroke:#000000;stroke-linecap:square;stroke-linejoin:miter;stroke-width:1.5;"/>
   </g>
  </g>
  <g id="axes_4">
   <g id="patch_11">
    <path d="M 164.565532 62.64 
L 207.305957 62.64 
L 207.305957 7.2 
L 164.565532 7.2 
z
" style="fill:none;"/>
   </g>
   <g id="matplotlib.axis_7"/>
   <g id="matplotlib.axis_8"/>
   <g id="line2d_7">
    <path clip-path="url(#pd412e618f2)" d="M 166.508279 46.900328 
L 167.848104 36.985574 
L 169.187929 42.76918 
L 170.527754 43.59541 
L 171.86758 37.811803 
L 173.207405 46.074098 
L 174.54723 23.765902 
L 175.887055 32.028197 
L 177.226881 36.159344 
L 178.566706 13.024918 
L 179.906531 20.460984 
L 181.246356 33.680656 
L 182.586182 27.07082 
L 183.926007 16.329836 
L 185.265832 9.72 
L 186.605657 22.113443 
L 187.945483 22.113443 
L 189.285308 34.506885 
L 190.625133 12.198689 
L 191.964958 10.54623 
L 193.304784 34.506885 
L 194.644609 24.592131 
L 195.984434 22.939672 
L 197.324259 17.982295 
L 198.664085 17.156066 
L 200.00391 31.201967 
L 201.343735 35.333115 
L 202.68356 22.939672 
L 204.023386 28.723279 
L 205.363211 42.76918 
" style="fill:none;stroke:#1f77b4;stroke-linecap:square;stroke-width:1.5;"/>
   </g>
   <g id="line2d_8">
    <path clip-path="url(#pd412e618f2)" d="M 166.508279 60.12 
L 167.848104 52.683934 
L 169.187929 49.379016 
L 170.527754 38.638033 
L 171.86758 41.942951 
L 173.207405 29.549508 
L 174.54723 32.028197 
L 175.887055 25.418361 
L 177.226881 30.375738 
L 178.566706 27.07082 
L 179.906531 22.113443 
L 181.246356 19.634754 
L 182.586182 29.549508 
L 183.926007 34.506885 
L 185.265832 23.765902 
L 186.605657 24.592131 
L 187.945483 20.460984 
L 189.285308 16.329836 
L 190.625133 29.549508 
L 191.964958 18.808525 
L 193.304784 28.723279 
L 194.644609 11.372459 
L 195.984434 13.851148 
L 197.324259 22.939672 
L 198.664085 15.503607 
L 200.00391 27.897049 
L 201.343735 20.460984 
L 202.68356 10.54623 
L 204.023386 24.592131 
L 205.363211 43.59541 
" style="fill:none;stroke:#ff0000;stroke-linecap:square;stroke-width:1.5;"/>
   </g>
   <g id="patch_12">
    <path d="M 164.565532 62.64 
L 164.565532 7.2 
" style="fill:none;stroke:#000000;stroke-linecap:square;stroke-linejoin:miter;stroke-width:1.5;"/>
   </g>
   <g id="patch_13">
    <path d="M 164.565532 62.64 
L 207.305957 62.64 
" style="fill:none;stroke:#000000;stroke-linecap:square;stroke-linejoin:miter;stroke-width:1.5;"/>
   </g>
  </g>
  <g id="axes_5">
   <g id="patch_14">
    <path d="M 215.854043 62.64 
L 258.594468 62.64 
L 258.594468 7.2 
L 215.854043 7.2 
z
" style="fill:none;"/>
   </g>
   <g id="matplotlib.axis_9"/>
   <g id="matplotlib.axis_10"/>
   <g id="line2d_9">
    <path clip-path="url(#p7eff38f221)" d="M 217.796789 60.12 
L 219.136614 59.32 
L 220.47644 60.12 
L 221.816265 58.92 
L 223.15609 57.32 
L 224.495915 54.52 
L 225.835741 52.12 
L 227.175566 46.52 
L 228.515391 41.72 
L 229.855216 38.92 
L 231.195042 39.72 
L 232.534867 34.52 
L 233.874692 28.92 
L 235.214517 30.12 
L 236.554343 26.92 
L 237.894168 23.72 
L 239.233993 16.92 
L 240.573818 25.32 
L 241.913644 21.72 
L 243.253469 14.52 
L 244.593294 12.52 
L 245.933119 15.32 
L 247.272945 13.72 
L 248.61277 10.92 
L 249.952595 20.52 
L 251.29242 16.92 
L 252.632246 25.72 
L 253.972071 21.72 
L 255.311896 34.92 
L 256.651721 28.12 
" style="fill:none;stroke:#1f77b4;stroke-linecap:square;stroke-width:1.5;"/>
   </g>
   <g id="line2d_10">
    <path clip-path="url(#p7eff38f221)" d="M 217.796789 60.12 
L 219.136614 60.12 
L 220.47644 59.72 
L 221.816265 59.32 
L 223.15609 59.72 
L 224.495915 58.12 
L 225.835741 54.12 
L 227.175566 50.52 
L 228.515391 44.52 
L 229.855216 38.12 
L 231.195042 33.72 
L 232.534867 26.52 
L 233.874692 27.72 
L 235.214517 26.12 
L 236.554343 26.52 
L 237.894168 24.52 
L 239.233993 14.12 
L 240.573818 26.52 
L 241.913644 9.72 
L 243.253469 15.32 
L 244.593294 10.52 
L 245.933119 20.12 
L 247.272945 11.72 
L 248.61277 23.72 
L 249.952595 16.92 
L 251.29242 14.52 
L 252.632246 27.72 
L 253.972071 24.12 
L 255.311896 34.92 
L 256.651721 32.92 
" style="fill:none;stroke:#ff0000;stroke-linecap:square;stroke-width:1.5;"/>
   </g>
   <g id="patch_15">
    <path d="M 215.854043 62.64 
L 215.854043 7.2 
" style="fill:none;stroke:#000000;stroke-linecap:square;stroke-linejoin:miter;stroke-width:1.5;"/>
   </g>
   <g id="patch_16">
    <path d="M 215.854043 62.64 
L 258.594468 62.64 
" style="fill:none;stroke:#000000;stroke-linecap:square;stroke-linejoin:miter;stroke-width:1.5;"/>
   </g>
  </g>
  <g id="axes_6">
   <g id="patch_17">
    <path d="M 267.142553 62.64 
L 309.882979 62.64 
L 309.882979 7.2 
L 267.142553 7.2 
z
" style="fill:none;"/>
   </g>
   <g id="matplotlib.axis_11"/>
   <g id="matplotlib.axis_12"/>
   <g id="line2d_11">
    <path clip-path="url(#p53194f0aab)" d="M 269.0853 56.822804 
L 270.425125 58.706916 
L 271.76495 55.40972 
L 273.104776 52.583551 
L 274.444601 44.105047 
L 275.784426 46.460187 
L 277.124251 48.815327 
L 278.464077 40.80785 
L 279.803902 33.74243 
L 281.143727 37.981682 
L 282.483552 25.263925 
L 283.823378 36.09757 
L 285.163203 28.090093 
L 286.503028 23.379813 
L 287.842853 18.198505 
L 289.182679 24.792897 
L 290.522504 23.850841 
L 291.862329 10.191028 
L 293.202154 20.553645 
L 294.54198 25.263925 
L 295.881805 27.619065 
L 297.22163 10.662056 
L 298.561455 17.727477 
L 299.901281 20.553645 
L 301.241106 11.133084 
L 302.580931 21.966729 
L 303.920756 21.966729 
L 305.260582 25.263925 
L 306.600407 24.792897 
L 307.940232 26.205981 
" style="fill:none;stroke:#1f77b4;stroke-linecap:square;stroke-width:1.5;"/>
   </g>
   <g id="line2d_12">
    <path clip-path="url(#p53194f0aab)" d="M 269.0853 60.12 
L 270.425125 58.706916 
L 271.76495 57.293832 
L 273.104776 52.112523 
L 274.444601 45.989159 
L 275.784426 45.518131 
L 277.124251 43.634019 
L 278.464077 36.09757 
L 279.803902 39.865794 
L 281.143727 40.80785 
L 282.483552 29.503178 
L 283.823378 38.45271 
L 285.163203 27.148037 
L 286.503028 26.205981 
L 287.842853 20.082617 
L 289.182679 23.850841 
L 290.522504 21.966729 
L 291.862329 18.198505 
L 293.202154 26.677009 
L 294.54198 12.546168 
L 295.881805 9.72 
L 297.22163 19.140561 
L 298.561455 15.843364 
L 299.901281 22.908785 
L 301.241106 15.843364 
L 302.580931 14.43028 
L 303.920756 21.966729 
L 305.260582 23.850841 
L 306.600407 24.792897 
L 307.940232 25.263925 
" style="fill:none;stroke:#ff0000;stroke-linecap:square;stroke-width:1.5;"/>
   </g>
   <g id="patch_18">
    <path d="M 267.142553 62.64 
L 267.142553 7.2 
" style="fill:none;stroke:#000000;stroke-linecap:square;stroke-linejoin:miter;stroke-width:1.5;"/>
   </g>
   <g id="patch_19">
    <path d="M 267.142553 62.64 
L 309.882979 62.64 
" style="fill:none;stroke:#000000;stroke-linecap:square;stroke-linejoin:miter;stroke-width:1.5;"/>
   </g>
  </g>
  <g id="axes_7">
   <g id="patch_20">
    <path d="M 318.431064 62.64 
L 361.171489 62.64 
L 361.171489 7.2 
L 318.431064 7.2 
z
" style="fill:none;"/>
   </g>
   <g id="matplotlib.axis_13"/>
   <g id="matplotlib.axis_14"/>
   <g id="line2d_13">
    <path clip-path="url(#p9c99118580)" d="M 320.37381 39.264828 
L 321.713636 34.92 
L 323.053461 34.051034 
L 324.393286 10.588966 
L 325.733111 34.051034 
L 327.072937 25.361379 
L 328.412762 26.230345 
L 329.752587 21.885517 
L 331.092412 29.706207 
L 332.432238 12.326897 
L 333.772063 11.457931 
L 335.111888 19.278621 
L 336.451713 27.09931 
L 337.791539 19.278621 
L 339.131364 15.802759 
L 340.471189 16.671724 
L 341.811014 27.968276 
L 343.15084 28.837241 
L 344.490665 27.968276 
L 345.83049 36.657931 
L 347.170315 25.361379 
L 348.510141 33.182069 
L 349.849966 38.395862 
L 351.189791 46.216552 
L 352.529616 52.29931 
L 353.869442 56.644138 
L 355.209267 42.74069 
L 356.549092 54.037241 
L 357.888917 55.775172 
L 359.228743 49.692414 
" style="fill:none;stroke:#1f77b4;stroke-linecap:square;stroke-width:1.5;"/>
   </g>
   <g id="line2d_14">
    <path clip-path="url(#p9c99118580)" d="M 320.37381 42.74069 
L 321.713636 29.706207 
L 323.053461 19.278621 
L 324.393286 25.361379 
L 325.733111 34.051034 
L 327.072937 20.147586 
L 328.412762 20.147586 
L 329.752587 36.657931 
L 331.092412 26.230345 
L 332.432238 21.885517 
L 333.772063 12.326897 
L 335.111888 24.492414 
L 336.451713 9.72 
L 337.791539 23.623448 
L 339.131364 16.671724 
L 340.471189 21.016552 
L 341.811014 23.623448 
L 343.15084 22.754483 
L 344.490665 28.837241 
L 345.83049 29.706207 
L 347.170315 40.133793 
L 348.510141 44.478621 
L 349.849966 47.085517 
L 351.189791 36.657931 
L 352.529616 41.002759 
L 353.869442 45.347586 
L 355.209267 47.954483 
L 356.549092 55.775172 
L 357.888917 47.085517 
L 359.228743 60.12 
" style="fill:none;stroke:#ff0000;stroke-linecap:square;stroke-width:1.5;"/>
   </g>
   <g id="patch_21">
    <path d="M 318.431064 62.64 
L 318.431064 7.2 
" style="fill:none;stroke:#000000;stroke-linecap:square;stroke-linejoin:miter;stroke-width:1.5;"/>
   </g>
   <g id="patch_22">
    <path d="M 318.431064 62.64 
L 361.171489 62.64 
" style="fill:none;stroke:#000000;stroke-linecap:square;stroke-linejoin:miter;stroke-width:1.5;"/>
   </g>
  </g>
  <g id="axes_8">
   <g id="patch_23">
    <path d="M 369.719574 62.64 
L 412.46 62.64 
L 412.46 7.2 
L 369.719574 7.2 
z
" style="fill:none;"/>
   </g>
   <g id="matplotlib.axis_15"/>
   <g id="matplotlib.axis_16"/>
   <g id="line2d_15">
    <path clip-path="url(#p1a825390b2)" d="M 371.662321 33.938182 
L 373.002146 20.192727 
L 374.341972 10.374545 
L 375.681797 16.265455 
L 377.021622 9.72 
L 378.361447 10.374545 
L 379.701273 13.647273 
L 381.041098 15.610909 
L 382.380923 19.538182 
L 383.720748 35.247273 
L 385.060574 11.683636 
L 386.400399 36.556364 
L 387.740224 16.92 
L 389.080049 27.392727 
L 390.419875 33.938182 
L 391.7597 39.174545 
L 393.099525 31.32 
L 394.43935 33.283636 
L 395.779176 34.592727 
L 397.119001 41.138182 
L 398.458826 45.72 
L 399.798651 44.410909 
L 401.138477 39.174545 
L 402.478302 35.901818 
L 403.818127 47.683636 
L 405.157952 47.029091 
L 406.497778 50.301818 
L 407.837603 50.301818 
L 409.177428 56.192727 
L 410.517253 60.12 
" style="fill:none;stroke:#1f77b4;stroke-linecap:square;stroke-width:1.5;"/>
   </g>
   <g id="line2d_16">
    <path clip-path="url(#p1a825390b2)" d="M 371.662321 27.392727 
L 373.002146 32.629091 
L 374.341972 29.356364 
L 375.681797 19.538182 
L 377.021622 15.610909 
L 378.361447 15.610909 
L 379.701273 21.501818 
L 381.041098 32.629091 
L 382.380923 10.374545 
L 383.720748 28.047273 
L 385.060574 22.810909 
L 386.400399 23.465455 
L 387.740224 22.810909 
L 389.080049 12.992727 
L 390.419875 24.12 
L 391.7597 23.465455 
L 393.099525 26.083636 
L 394.43935 39.829091 
L 395.779176 33.283636 
L 397.119001 40.483636 
L 398.458826 37.210909 
L 399.798651 41.138182 
L 401.138477 48.992727 
L 402.478302 45.065455 
L 403.818127 48.338182 
L 405.157952 41.138182 
L 406.497778 40.483636 
L 407.837603 55.538182 
L 409.177428 53.574545 
L 410.517253 54.229091 
" style="fill:none;stroke:#ff0000;stroke-linecap:square;stroke-width:1.5;"/>
   </g>
   <g id="patch_24">
    <path d="M 369.719574 62.64 
L 369.719574 7.2 
" style="fill:none;stroke:#000000;stroke-linecap:square;stroke-linejoin:miter;stroke-width:1.5;"/>
   </g>
   <g id="patch_25">
    <path d="M 369.719574 62.64 
L 412.46 62.64 
" style="fill:none;stroke:#000000;stroke-linecap:square;stroke-linejoin:miter;stroke-width:1.5;"/>
   </g>
  </g>
 </g>
 <defs>
  <clipPath id="paa52ba2267">
   <rect height="55.44" width="42.740426" x="10.7" y="7.2"/>
  </clipPath>
  <clipPath id="pec6515ca2c">
   <rect height="55.44" width="42.740426" x="61.988511" y="7.2"/>
  </clipPath>
  <clipPath id="pf0420eca0e">
   <rect height="55.44" width="42.740426" x="113.277021" y="7.2"/>
  </clipPath>
  <clipPath id="pd412e618f2">
   <rect height="55.44" width="42.740426" x="164.565532" y="7.2"/>
  </clipPath>
  <clipPath id="p7eff38f221">
   <rect height="55.44" width="42.740426" x="215.854043" y="7.2"/>
  </clipPath>
  <clipPath id="p53194f0aab">
   <rect height="55.44" width="42.740426" x="267.142553" y="7.2"/>
  </clipPath>
  <clipPath id="p9c99118580">
   <rect height="55.44" width="42.740426" x="318.431064" y="7.2"/>
  </clipPath>
  <clipPath id="p1a825390b2">
   <rect height="55.44" width="42.740426" x="369.719574" y="7.2"/>
  </clipPath>
 </defs>
</svg>
