<?xml version="1.0" encoding="utf-8" standalone="no"?>
<!DOCTYPE svg PUBLIC "-//W3C//DTD SVG 1.1//EN"
  "http://www.w3.org/Graphics/SVG/1.1/DTD/svg11.dtd">
<!-- Created with matplotlib (https://matplotlib.org/) -->
<svg height="207.205pt" version="1.1" viewBox="0 0 210.7225 207.205" width="210.7225pt" xmlns="http://www.w3.org/2000/svg" xmlns:xlink="http://www.w3.org/1999/xlink">
 <metadata>
  <rdf:RDF xmlns:cc="http://creativecommons.org/ns#" xmlns:dc="http://purl.org/dc/elements/1.1/" xmlns:rdf="http://www.w3.org/1999/02/22-rdf-syntax-ns#">
   <cc:Work>
    <dc:type rdf:resource="http://purl.org/dc/dcmitype/StillImage"/>
    <dc:date>2020-10-02T15:07:18.316977</dc:date>
    <dc:format>image/svg+xml</dc:format>
    <dc:creator>
     <cc:Agent>
      <dc:title>Matplotlib v3.3.2, https://matplotlib.org/</dc:title>
     </cc:Agent>
    </dc:creator>
   </cc:Work>
  </rdf:RDF>
 </metadata>
 <defs>
  <style type="text/css">*{stroke-linecap:butt;stroke-linejoin:round;}</style>
 </defs>
 <g id="figure_1">
  <g id="patch_1">
   <path d="M 0 207.205 
L 210.7225 207.205 
L 210.7225 0 
L 0 0 
z
" style="fill:none;"/>
  </g>
  <g id="axes_1">
   <g id="patch_2">
    <path d="M 36.1225 173.52 
L 203.5225 173.52 
L 203.5225 7.2 
L 36.1225 7.2 
z
" style="fill:none;"/>
   </g>
   <g id="patch_3">
    <path clip-path="url(#p08d0918bca)" d="M 43.731591 173.52 
L 45.253409 173.52 
L 45.253409 159.12 
L 43.731591 159.12 
z
" style="fill:#ffffff;"/>
   </g>
   <g id="patch_4">
    <path clip-path="url(#p08d0918bca)" d="M 45.253409 173.52 
L 46.775227 173.52 
L 46.775227 166.32 
L 45.253409 166.32 
z
" style="fill:#ffffff;"/>
   </g>
   <g id="patch_5">
    <path clip-path="url(#p08d0918bca)" d="M 46.775227 173.52 
L 48.297045 173.52 
L 48.297045 173.52 
L 46.775227 173.52 
z
" style="fill:#ffffff;"/>
   </g>
   <g id="patch_6">
    <path clip-path="url(#p08d0918bca)" d="M 48.297045 173.52 
L 49.818864 173.52 
L 49.818864 166.32 
L 48.297045 166.32 
z
" style="fill:#ffffff;"/>
   </g>
   <g id="patch_7">
    <path clip-path="url(#p08d0918bca)" d="M 49.818864 173.52 
L 51.340682 173.52 
L 51.340682 166.32 
L 49.818864 166.32 
z
" style="fill:#ffffff;"/>
   </g>
   <g id="patch_8">
    <path clip-path="url(#p08d0918bca)" d="M 51.340682 173.52 
L 52.8625 173.52 
L 52.8625 166.32 
L 51.340682 166.32 
z
" style="fill:#ffffff;"/>
   </g>
   <g id="patch_9">
    <path clip-path="url(#p08d0918bca)" d="M 52.8625 173.52 
L 54.384318 173.52 
L 54.384318 173.52 
L 52.8625 173.52 
z
" style="fill:#ffffff;"/>
   </g>
   <g id="patch_10">
    <path clip-path="url(#p08d0918bca)" d="M 54.384318 173.52 
L 55.906136 173.52 
L 55.906136 173.52 
L 54.384318 173.52 
z
" style="fill:#ffffff;"/>
   </g>
   <g id="patch_11">
    <path clip-path="url(#p08d0918bca)" d="M 55.906136 173.52 
L 57.427955 173.52 
L 57.427955 173.52 
L 55.906136 173.52 
z
" style="fill:#ffffff;"/>
   </g>
   <g id="patch_12">
    <path clip-path="url(#p08d0918bca)" d="M 57.427955 173.52 
L 58.949773 173.52 
L 58.949773 159.12 
L 57.427955 159.12 
z
" style="fill:#ffffff;"/>
   </g>
   <g id="patch_13">
    <path clip-path="url(#p08d0918bca)" d="M 58.949773 173.52 
L 60.471591 173.52 
L 60.471591 151.92 
L 58.949773 151.92 
z
" style="fill:#ffffff;"/>
   </g>
   <g id="patch_14">
    <path clip-path="url(#p08d0918bca)" d="M 60.471591 173.52 
L 61.993409 173.52 
L 61.993409 166.32 
L 60.471591 166.32 
z
" style="fill:#ffffff;"/>
   </g>
   <g id="patch_15">
    <path clip-path="url(#p08d0918bca)" d="M 61.993409 173.52 
L 63.515227 173.52 
L 63.515227 166.32 
L 61.993409 166.32 
z
" style="fill:#ffffff;"/>
   </g>
   <g id="patch_16">
    <path clip-path="url(#p08d0918bca)" d="M 63.515227 173.52 
L 65.037045 173.52 
L 65.037045 144.72 
L 63.515227 144.72 
z
" style="fill:#ffffff;"/>
   </g>
   <g id="patch_17">
    <path clip-path="url(#p08d0918bca)" d="M 65.037045 173.52 
L 66.558864 173.52 
L 66.558864 159.12 
L 65.037045 159.12 
z
" style="fill:#ffffff;"/>
   </g>
   <g id="patch_18">
    <path clip-path="url(#p08d0918bca)" d="M 66.558864 173.52 
L 68.080682 173.52 
L 68.080682 101.52 
L 66.558864 101.52 
z
" style="fill:#ffffff;"/>
   </g>
   <g id="patch_19">
    <path clip-path="url(#p08d0918bca)" d="M 68.080682 173.52 
L 69.6025 173.52 
L 69.6025 123.12 
L 68.080682 123.12 
z
" style="fill:#ffffff;"/>
   </g>
   <g id="patch_20">
    <path clip-path="url(#p08d0918bca)" d="M 69.6025 173.52 
L 71.124318 173.52 
L 71.124318 159.12 
L 69.6025 159.12 
z
" style="fill:#ffffff;"/>
   </g>
   <g id="patch_21">
    <path clip-path="url(#p08d0918bca)" d="M 71.124318 173.52 
L 72.646136 173.52 
L 72.646136 137.52 
L 71.124318 137.52 
z
" style="fill:#ffffff;"/>
   </g>
   <g id="patch_22">
    <path clip-path="url(#p08d0918bca)" d="M 72.646136 173.52 
L 74.167955 173.52 
L 74.167955 144.72 
L 72.646136 144.72 
z
" style="fill:#ffffff;"/>
   </g>
   <g id="patch_23">
    <path clip-path="url(#p08d0918bca)" d="M 74.167955 173.52 
L 75.689773 173.52 
L 75.689773 130.32 
L 74.167955 130.32 
z
" style="fill:#ffffff;"/>
   </g>
   <g id="patch_24">
    <path clip-path="url(#p08d0918bca)" d="M 75.689773 173.52 
L 77.211591 173.52 
L 77.211591 137.52 
L 75.689773 137.52 
z
" style="fill:#ffffff;"/>
   </g>
   <g id="patch_25">
    <path clip-path="url(#p08d0918bca)" d="M 77.211591 173.52 
L 78.733409 173.52 
L 78.733409 130.32 
L 77.211591 130.32 
z
" style="fill:#ffffff;"/>
   </g>
   <g id="patch_26">
    <path clip-path="url(#p08d0918bca)" d="M 78.733409 173.52 
L 80.255227 173.52 
L 80.255227 137.52 
L 78.733409 137.52 
z
" style="fill:#ffffff;"/>
   </g>
   <g id="patch_27">
    <path clip-path="url(#p08d0918bca)" d="M 80.255227 173.52 
L 81.777045 173.52 
L 81.777045 87.12 
L 80.255227 87.12 
z
" style="fill:#ffffff;"/>
   </g>
   <g id="patch_28">
    <path clip-path="url(#p08d0918bca)" d="M 81.777045 173.52 
L 83.298864 173.52 
L 83.298864 137.52 
L 81.777045 137.52 
z
" style="fill:#ffffff;"/>
   </g>
   <g id="patch_29">
    <path clip-path="url(#p08d0918bca)" d="M 83.298864 173.52 
L 84.820682 173.52 
L 84.820682 87.12 
L 83.298864 87.12 
z
" style="fill:#ffffff;"/>
   </g>
   <g id="patch_30">
    <path clip-path="url(#p08d0918bca)" d="M 84.820682 173.52 
L 86.3425 173.52 
L 86.3425 101.52 
L 84.820682 101.52 
z
" style="fill:#ffffff;"/>
   </g>
   <g id="patch_31">
    <path clip-path="url(#p08d0918bca)" d="M 86.3425 173.52 
L 87.864318 173.52 
L 87.864318 94.32 
L 86.3425 94.32 
z
" style="fill:#ffffff;"/>
   </g>
   <g id="patch_32">
    <path clip-path="url(#p08d0918bca)" d="M 87.864318 173.52 
L 89.386136 173.52 
L 89.386136 108.72 
L 87.864318 108.72 
z
" style="fill:#ffffff;"/>
   </g>
   <g id="patch_33">
    <path clip-path="url(#p08d0918bca)" d="M 89.386136 173.52 
L 90.907955 173.52 
L 90.907955 87.12 
L 89.386136 87.12 
z
" style="fill:#ffffff;"/>
   </g>
   <g id="patch_34">
    <path clip-path="url(#p08d0918bca)" d="M 90.907955 173.52 
L 92.429773 173.52 
L 92.429773 130.32 
L 90.907955 130.32 
z
" style="fill:#ffffff;"/>
   </g>
   <g id="patch_35">
    <path clip-path="url(#p08d0918bca)" d="M 92.429773 173.52 
L 93.951591 173.52 
L 93.951591 123.12 
L 92.429773 123.12 
z
" style="fill:#ffffff;"/>
   </g>
   <g id="patch_36">
    <path clip-path="url(#p08d0918bca)" d="M 93.951591 173.52 
L 95.473409 173.52 
L 95.473409 130.32 
L 93.951591 130.32 
z
" style="fill:#ffffff;"/>
   </g>
   <g id="patch_37">
    <path clip-path="url(#p08d0918bca)" d="M 95.473409 173.52 
L 96.995227 173.52 
L 96.995227 101.52 
L 95.473409 101.52 
z
" style="fill:#ffffff;"/>
   </g>
   <g id="patch_38">
    <path clip-path="url(#p08d0918bca)" d="M 96.995227 173.52 
L 98.517045 173.52 
L 98.517045 58.32 
L 96.995227 58.32 
z
" style="fill:#ffffff;"/>
   </g>
   <g id="patch_39">
    <path clip-path="url(#p08d0918bca)" d="M 98.517045 173.52 
L 100.038864 173.52 
L 100.038864 101.52 
L 98.517045 101.52 
z
" style="fill:#ffffff;"/>
   </g>
   <g id="patch_40">
    <path clip-path="url(#p08d0918bca)" d="M 100.038864 173.52 
L 101.560682 173.52 
L 101.560682 101.52 
L 100.038864 101.52 
z
" style="fill:#ffffff;"/>
   </g>
   <g id="patch_41">
    <path clip-path="url(#p08d0918bca)" d="M 101.560682 173.52 
L 103.0825 173.52 
L 103.0825 130.32 
L 101.560682 130.32 
z
" style="fill:#ffffff;"/>
   </g>
   <g id="patch_42">
    <path clip-path="url(#p08d0918bca)" d="M 103.0825 173.52 
L 104.604318 173.52 
L 104.604318 108.72 
L 103.0825 108.72 
z
" style="fill:#ffffff;"/>
   </g>
   <g id="patch_43">
    <path clip-path="url(#p08d0918bca)" d="M 104.604318 173.52 
L 106.126136 173.52 
L 106.126136 94.32 
L 104.604318 94.32 
z
" style="fill:#ffffff;"/>
   </g>
   <g id="patch_44">
    <path clip-path="url(#p08d0918bca)" d="M 106.126136 173.52 
L 107.647955 173.52 
L 107.647955 108.72 
L 106.126136 108.72 
z
" style="fill:#ffffff;"/>
   </g>
   <g id="patch_45">
    <path clip-path="url(#p08d0918bca)" d="M 107.647955 173.52 
L 109.169773 173.52 
L 109.169773 94.32 
L 107.647955 94.32 
z
" style="fill:#ffffff;"/>
   </g>
   <g id="patch_46">
    <path clip-path="url(#p08d0918bca)" d="M 109.169773 173.52 
L 110.691591 173.52 
L 110.691591 94.32 
L 109.169773 94.32 
z
" style="fill:#ffffff;"/>
   </g>
   <g id="patch_47">
    <path clip-path="url(#p08d0918bca)" d="M 110.691591 173.52 
L 112.213409 173.52 
L 112.213409 65.52 
L 110.691591 65.52 
z
" style="fill:#ffffff;"/>
   </g>
   <g id="patch_48">
    <path clip-path="url(#p08d0918bca)" d="M 112.213409 173.52 
L 113.735227 173.52 
L 113.735227 94.32 
L 112.213409 94.32 
z
" style="fill:#ffffff;"/>
   </g>
   <g id="patch_49">
    <path clip-path="url(#p08d0918bca)" d="M 113.735227 173.52 
L 115.257045 173.52 
L 115.257045 123.12 
L 113.735227 123.12 
z
" style="fill:#ffffff;"/>
   </g>
   <g id="patch_50">
    <path clip-path="url(#p08d0918bca)" d="M 115.257045 173.52 
L 116.778864 173.52 
L 116.778864 108.72 
L 115.257045 108.72 
z
" style="fill:#ffffff;"/>
   </g>
   <g id="patch_51">
    <path clip-path="url(#p08d0918bca)" d="M 116.778864 173.52 
L 118.300682 173.52 
L 118.300682 36.72 
L 116.778864 36.72 
z
" style="fill:#ffffff;"/>
   </g>
   <g id="patch_52">
    <path clip-path="url(#p08d0918bca)" d="M 118.300682 173.52 
L 119.8225 173.52 
L 119.8225 65.52 
L 118.300682 65.52 
z
" style="fill:#ffffff;"/>
   </g>
   <g id="patch_53">
    <path clip-path="url(#p08d0918bca)" d="M 119.8225 173.52 
L 121.344318 173.52 
L 121.344318 94.32 
L 119.8225 94.32 
z
" style="fill:#ffffff;"/>
   </g>
   <g id="patch_54">
    <path clip-path="url(#p08d0918bca)" d="M 121.344318 173.52 
L 122.866136 173.52 
L 122.866136 123.12 
L 121.344318 123.12 
z
" style="fill:#ffffff;"/>
   </g>
   <g id="patch_55">
    <path clip-path="url(#p08d0918bca)" d="M 122.866136 173.52 
L 124.387955 173.52 
L 124.387955 108.72 
L 122.866136 108.72 
z
" style="fill:#ffffff;"/>
   </g>
   <g id="patch_56">
    <path clip-path="url(#p08d0918bca)" d="M 124.387955 173.52 
L 125.909773 173.52 
L 125.909773 72.72 
L 124.387955 72.72 
z
" style="fill:#ffffff;"/>
   </g>
   <g id="patch_57">
    <path clip-path="url(#p08d0918bca)" d="M 125.909773 173.52 
L 127.431591 173.52 
L 127.431591 130.32 
L 125.909773 130.32 
z
" style="fill:#ffffff;"/>
   </g>
   <g id="patch_58">
    <path clip-path="url(#p08d0918bca)" d="M 127.431591 173.52 
L 128.953409 173.52 
L 128.953409 79.92 
L 127.431591 79.92 
z
" style="fill:#ffffff;"/>
   </g>
   <g id="patch_59">
    <path clip-path="url(#p08d0918bca)" d="M 128.953409 173.52 
L 130.475227 173.52 
L 130.475227 87.12 
L 128.953409 87.12 
z
" style="fill:#ffffff;"/>
   </g>
   <g id="patch_60">
    <path clip-path="url(#p08d0918bca)" d="M 130.475227 173.52 
L 131.997045 173.52 
L 131.997045 137.52 
L 130.475227 137.52 
z
" style="fill:#ffffff;"/>
   </g>
   <g id="patch_61">
    <path clip-path="url(#p08d0918bca)" d="M 131.997045 173.52 
L 133.518864 173.52 
L 133.518864 130.32 
L 131.997045 130.32 
z
" style="fill:#ffffff;"/>
   </g>
   <g id="patch_62">
    <path clip-path="url(#p08d0918bca)" d="M 133.518864 173.52 
L 135.040682 173.52 
L 135.040682 94.32 
L 133.518864 94.32 
z
" style="fill:#ffffff;"/>
   </g>
   <g id="patch_63">
    <path clip-path="url(#p08d0918bca)" d="M 135.040682 173.52 
L 136.5625 173.52 
L 136.5625 87.12 
L 135.040682 87.12 
z
" style="fill:#ffffff;"/>
   </g>
   <g id="patch_64">
    <path clip-path="url(#p08d0918bca)" d="M 136.5625 173.52 
L 138.084318 173.52 
L 138.084318 130.32 
L 136.5625 130.32 
z
" style="fill:#ffffff;"/>
   </g>
   <g id="patch_65">
    <path clip-path="url(#p08d0918bca)" d="M 138.084318 173.52 
L 139.606136 173.52 
L 139.606136 123.12 
L 138.084318 123.12 
z
" style="fill:#ffffff;"/>
   </g>
   <g id="patch_66">
    <path clip-path="url(#p08d0918bca)" d="M 139.606136 173.52 
L 141.127955 173.52 
L 141.127955 151.92 
L 139.606136 151.92 
z
" style="fill:#ffffff;"/>
   </g>
   <g id="patch_67">
    <path clip-path="url(#p08d0918bca)" d="M 141.127955 173.52 
L 142.649773 173.52 
L 142.649773 130.32 
L 141.127955 130.32 
z
" style="fill:#ffffff;"/>
   </g>
   <g id="patch_68">
    <path clip-path="url(#p08d0918bca)" d="M 142.649773 173.52 
L 144.171591 173.52 
L 144.171591 151.92 
L 142.649773 151.92 
z
" style="fill:#ffffff;"/>
   </g>
   <g id="patch_69">
    <path clip-path="url(#p08d0918bca)" d="M 144.171591 173.52 
L 145.693409 173.52 
L 145.693409 130.32 
L 144.171591 130.32 
z
" style="fill:#ffffff;"/>
   </g>
   <g id="patch_70">
    <path clip-path="url(#p08d0918bca)" d="M 145.693409 173.52 
L 147.215227 173.52 
L 147.215227 151.92 
L 145.693409 151.92 
z
" style="fill:#ffffff;"/>
   </g>
   <g id="patch_71">
    <path clip-path="url(#p08d0918bca)" d="M 147.215227 173.52 
L 148.737045 173.52 
L 148.737045 130.32 
L 147.215227 130.32 
z
" style="fill:#ffffff;"/>
   </g>
   <g id="patch_72">
    <path clip-path="url(#p08d0918bca)" d="M 148.737045 173.52 
L 150.258864 173.52 
L 150.258864 151.92 
L 148.737045 151.92 
z
" style="fill:#ffffff;"/>
   </g>
   <g id="patch_73">
    <path clip-path="url(#p08d0918bca)" d="M 150.258864 173.52 
L 151.780682 173.52 
L 151.780682 130.32 
L 150.258864 130.32 
z
" style="fill:#ffffff;"/>
   </g>
   <g id="patch_74">
    <path clip-path="url(#p08d0918bca)" d="M 151.780682 173.52 
L 153.3025 173.52 
L 153.3025 130.32 
L 151.780682 130.32 
z
" style="fill:#ffffff;"/>
   </g>
   <g id="patch_75">
    <path clip-path="url(#p08d0918bca)" d="M 153.3025 173.52 
L 154.824318 173.52 
L 154.824318 137.52 
L 153.3025 137.52 
z
" style="fill:#ffffff;"/>
   </g>
   <g id="patch_76">
    <path clip-path="url(#p08d0918bca)" d="M 154.824318 173.52 
L 156.346136 173.52 
L 156.346136 123.12 
L 154.824318 123.12 
z
" style="fill:#ffffff;"/>
   </g>
   <g id="patch_77">
    <path clip-path="url(#p08d0918bca)" d="M 156.346136 173.52 
L 157.867955 173.52 
L 157.867955 137.52 
L 156.346136 137.52 
z
" style="fill:#ffffff;"/>
   </g>
   <g id="patch_78">
    <path clip-path="url(#p08d0918bca)" d="M 157.867955 173.52 
L 159.389773 173.52 
L 159.389773 144.72 
L 157.867955 144.72 
z
" style="fill:#ffffff;"/>
   </g>
   <g id="patch_79">
    <path clip-path="url(#p08d0918bca)" d="M 159.389773 173.52 
L 160.911591 173.52 
L 160.911591 144.72 
L 159.389773 144.72 
z
" style="fill:#ffffff;"/>
   </g>
   <g id="patch_80">
    <path clip-path="url(#p08d0918bca)" d="M 160.911591 173.52 
L 162.433409 173.52 
L 162.433409 137.52 
L 160.911591 137.52 
z
" style="fill:#ffffff;"/>
   </g>
   <g id="patch_81">
    <path clip-path="url(#p08d0918bca)" d="M 162.433409 173.52 
L 163.955227 173.52 
L 163.955227 159.12 
L 162.433409 159.12 
z
" style="fill:#ffffff;"/>
   </g>
   <g id="patch_82">
    <path clip-path="url(#p08d0918bca)" d="M 163.955227 173.52 
L 165.477045 173.52 
L 165.477045 173.52 
L 163.955227 173.52 
z
" style="fill:#ffffff;"/>
   </g>
   <g id="patch_83">
    <path clip-path="url(#p08d0918bca)" d="M 165.477045 173.52 
L 166.998864 173.52 
L 166.998864 159.12 
L 165.477045 159.12 
z
" style="fill:#ffffff;"/>
   </g>
   <g id="patch_84">
    <path clip-path="url(#p08d0918bca)" d="M 166.998864 173.52 
L 168.520682 173.52 
L 168.520682 173.52 
L 166.998864 173.52 
z
" style="fill:#ffffff;"/>
   </g>
   <g id="patch_85">
    <path clip-path="url(#p08d0918bca)" d="M 168.520682 173.52 
L 170.0425 173.52 
L 170.0425 166.32 
L 168.520682 166.32 
z
" style="fill:#ffffff;"/>
   </g>
   <g id="patch_86">
    <path clip-path="url(#p08d0918bca)" d="M 170.0425 173.52 
L 171.564318 173.52 
L 171.564318 159.12 
L 170.0425 159.12 
z
" style="fill:#ffffff;"/>
   </g>
   <g id="patch_87">
    <path clip-path="url(#p08d0918bca)" d="M 171.564318 173.52 
L 173.086136 173.52 
L 173.086136 166.32 
L 171.564318 166.32 
z
" style="fill:#ffffff;"/>
   </g>
   <g id="patch_88">
    <path clip-path="url(#p08d0918bca)" d="M 173.086136 173.52 
L 174.607955 173.52 
L 174.607955 159.12 
L 173.086136 159.12 
z
" style="fill:#ffffff;"/>
   </g>
   <g id="patch_89">
    <path clip-path="url(#p08d0918bca)" d="M 174.607955 173.52 
L 176.129773 173.52 
L 176.129773 173.52 
L 174.607955 173.52 
z
" style="fill:#ffffff;"/>
   </g>
   <g id="patch_90">
    <path clip-path="url(#p08d0918bca)" d="M 176.129773 173.52 
L 177.651591 173.52 
L 177.651591 151.92 
L 176.129773 151.92 
z
" style="fill:#ffffff;"/>
   </g>
   <g id="patch_91">
    <path clip-path="url(#p08d0918bca)" d="M 177.651591 173.52 
L 179.173409 173.52 
L 179.173409 173.52 
L 177.651591 173.52 
z
" style="fill:#ffffff;"/>
   </g>
   <g id="patch_92">
    <path clip-path="url(#p08d0918bca)" d="M 179.173409 173.52 
L 180.695227 173.52 
L 180.695227 173.52 
L 179.173409 173.52 
z
" style="fill:#ffffff;"/>
   </g>
   <g id="patch_93">
    <path clip-path="url(#p08d0918bca)" d="M 180.695227 173.52 
L 182.217045 173.52 
L 182.217045 173.52 
L 180.695227 173.52 
z
" style="fill:#ffffff;"/>
   </g>
   <g id="patch_94">
    <path clip-path="url(#p08d0918bca)" d="M 182.217045 173.52 
L 183.738864 173.52 
L 183.738864 173.52 
L 182.217045 173.52 
z
" style="fill:#ffffff;"/>
   </g>
   <g id="patch_95">
    <path clip-path="url(#p08d0918bca)" d="M 183.738864 173.52 
L 185.260682 173.52 
L 185.260682 173.52 
L 183.738864 173.52 
z
" style="fill:#ffffff;"/>
   </g>
   <g id="patch_96">
    <path clip-path="url(#p08d0918bca)" d="M 185.260682 173.52 
L 186.7825 173.52 
L 186.7825 173.52 
L 185.260682 173.52 
z
" style="fill:#ffffff;"/>
   </g>
   <g id="patch_97">
    <path clip-path="url(#p08d0918bca)" d="M 186.7825 173.52 
L 188.304318 173.52 
L 188.304318 173.52 
L 186.7825 173.52 
z
" style="fill:#ffffff;"/>
   </g>
   <g id="patch_98">
    <path clip-path="url(#p08d0918bca)" d="M 188.304318 173.52 
L 189.826136 173.52 
L 189.826136 173.52 
L 188.304318 173.52 
z
" style="fill:#ffffff;"/>
   </g>
   <g id="patch_99">
    <path clip-path="url(#p08d0918bca)" d="M 189.826136 173.52 
L 191.347955 173.52 
L 191.347955 173.52 
L 189.826136 173.52 
z
" style="fill:#ffffff;"/>
   </g>
   <g id="patch_100">
    <path clip-path="url(#p08d0918bca)" d="M 191.347955 173.52 
L 192.869773 173.52 
L 192.869773 173.52 
L 191.347955 173.52 
z
" style="fill:#ffffff;"/>
   </g>
   <g id="patch_101">
    <path clip-path="url(#p08d0918bca)" d="M 192.869773 173.52 
L 194.391591 173.52 
L 194.391591 173.52 
L 192.869773 173.52 
z
" style="fill:#ffffff;"/>
   </g>
   <g id="patch_102">
    <path clip-path="url(#p08d0918bca)" d="M 194.391591 173.52 
L 195.913409 173.52 
L 195.913409 166.32 
L 194.391591 166.32 
z
" style="fill:#ffffff;"/>
   </g>
   <g id="patch_103">
    <path clip-path="url(#p08d0918bca)" d="M 47.47297 173.52 
L 48.781883 173.52 
L 48.781883 159.12 
L 47.47297 159.12 
z
" style="fill:#ffffff;"/>
   </g>
   <g id="patch_104">
    <path clip-path="url(#p08d0918bca)" d="M 48.781883 173.52 
L 50.090796 173.52 
L 50.090796 173.52 
L 48.781883 173.52 
z
" style="fill:#ffffff;"/>
   </g>
   <g id="patch_105">
    <path clip-path="url(#p08d0918bca)" d="M 50.090796 173.52 
L 51.39971 173.52 
L 51.39971 173.52 
L 50.090796 173.52 
z
" style="fill:#ffffff;"/>
   </g>
   <g id="patch_106">
    <path clip-path="url(#p08d0918bca)" d="M 51.39971 173.52 
L 52.708623 173.52 
L 52.708623 166.32 
L 51.39971 166.32 
z
" style="fill:#ffffff;"/>
   </g>
   <g id="patch_107">
    <path clip-path="url(#p08d0918bca)" d="M 52.708623 173.52 
L 54.017537 173.52 
L 54.017537 166.32 
L 52.708623 166.32 
z
" style="fill:#ffffff;"/>
   </g>
   <g id="patch_108">
    <path clip-path="url(#p08d0918bca)" d="M 54.017537 173.52 
L 55.32645 173.52 
L 55.32645 159.12 
L 54.017537 159.12 
z
" style="fill:#ffffff;"/>
   </g>
   <g id="patch_109">
    <path clip-path="url(#p08d0918bca)" d="M 55.32645 173.52 
L 56.635363 173.52 
L 56.635363 159.12 
L 55.32645 159.12 
z
" style="fill:#ffffff;"/>
   </g>
   <g id="patch_110">
    <path clip-path="url(#p08d0918bca)" d="M 56.635363 173.52 
L 57.944277 173.52 
L 57.944277 166.32 
L 56.635363 166.32 
z
" style="fill:#ffffff;"/>
   </g>
   <g id="patch_111">
    <path clip-path="url(#p08d0918bca)" d="M 57.944277 173.52 
L 59.25319 173.52 
L 59.25319 166.32 
L 57.944277 166.32 
z
" style="fill:#ffffff;"/>
   </g>
   <g id="patch_112">
    <path clip-path="url(#p08d0918bca)" d="M 59.25319 173.52 
L 60.562104 173.52 
L 60.562104 151.92 
L 59.25319 151.92 
z
" style="fill:#ffffff;"/>
   </g>
   <g id="patch_113">
    <path clip-path="url(#p08d0918bca)" d="M 60.562104 173.52 
L 61.871017 173.52 
L 61.871017 173.52 
L 60.562104 173.52 
z
" style="fill:#ffffff;"/>
   </g>
   <g id="patch_114">
    <path clip-path="url(#p08d0918bca)" d="M 61.871017 173.52 
L 63.17993 173.52 
L 63.17993 166.32 
L 61.871017 166.32 
z
" style="fill:#ffffff;"/>
   </g>
   <g id="patch_115">
    <path clip-path="url(#p08d0918bca)" d="M 63.17993 173.52 
L 64.488844 173.52 
L 64.488844 159.12 
L 63.17993 159.12 
z
" style="fill:#ffffff;"/>
   </g>
   <g id="patch_116">
    <path clip-path="url(#p08d0918bca)" d="M 64.488844 173.52 
L 65.797757 173.52 
L 65.797757 159.12 
L 64.488844 159.12 
z
" style="fill:#ffffff;"/>
   </g>
   <g id="patch_117">
    <path clip-path="url(#p08d0918bca)" d="M 65.797757 173.52 
L 67.106671 173.52 
L 67.106671 166.32 
L 65.797757 166.32 
z
" style="fill:#ffffff;"/>
   </g>
   <g id="patch_118">
    <path clip-path="url(#p08d0918bca)" d="M 67.106671 173.52 
L 68.415584 173.52 
L 68.415584 144.72 
L 67.106671 144.72 
z
" style="fill:#ffffff;"/>
   </g>
   <g id="patch_119">
    <path clip-path="url(#p08d0918bca)" d="M 68.415584 173.52 
L 69.724497 173.52 
L 69.724497 137.52 
L 68.415584 137.52 
z
" style="fill:#ffffff;"/>
   </g>
   <g id="patch_120">
    <path clip-path="url(#p08d0918bca)" d="M 69.724497 173.52 
L 71.033411 173.52 
L 71.033411 151.92 
L 69.724497 151.92 
z
" style="fill:#ffffff;"/>
   </g>
   <g id="patch_121">
    <path clip-path="url(#p08d0918bca)" d="M 71.033411 173.52 
L 72.342324 173.52 
L 72.342324 151.92 
L 71.033411 151.92 
z
" style="fill:#ffffff;"/>
   </g>
   <g id="patch_122">
    <path clip-path="url(#p08d0918bca)" d="M 72.342324 173.52 
L 73.651237 173.52 
L 73.651237 159.12 
L 72.342324 159.12 
z
" style="fill:#ffffff;"/>
   </g>
   <g id="patch_123">
    <path clip-path="url(#p08d0918bca)" d="M 73.651237 173.52 
L 74.960151 173.52 
L 74.960151 123.12 
L 73.651237 123.12 
z
" style="fill:#ffffff;"/>
   </g>
   <g id="patch_124">
    <path clip-path="url(#p08d0918bca)" d="M 74.960151 173.52 
L 76.269064 173.52 
L 76.269064 123.12 
L 74.960151 123.12 
z
" style="fill:#ffffff;"/>
   </g>
   <g id="patch_125">
    <path clip-path="url(#p08d0918bca)" d="M 76.269064 173.52 
L 77.577978 173.52 
L 77.577978 130.32 
L 76.269064 130.32 
z
" style="fill:#ffffff;"/>
   </g>
   <g id="patch_126">
    <path clip-path="url(#p08d0918bca)" d="M 77.577978 173.52 
L 78.886891 173.52 
L 78.886891 123.12 
L 77.577978 123.12 
z
" style="fill:#ffffff;"/>
   </g>
   <g id="patch_127">
    <path clip-path="url(#p08d0918bca)" d="M 78.886891 173.52 
L 80.195804 173.52 
L 80.195804 101.52 
L 78.886891 101.52 
z
" style="fill:#ffffff;"/>
   </g>
   <g id="patch_128">
    <path clip-path="url(#p08d0918bca)" d="M 80.195804 173.52 
L 81.504718 173.52 
L 81.504718 123.12 
L 80.195804 123.12 
z
" style="fill:#ffffff;"/>
   </g>
   <g id="patch_129">
    <path clip-path="url(#p08d0918bca)" d="M 81.504718 173.52 
L 82.813631 173.52 
L 82.813631 123.12 
L 81.504718 123.12 
z
" style="fill:#ffffff;"/>
   </g>
   <g id="patch_130">
    <path clip-path="url(#p08d0918bca)" d="M 82.813631 173.52 
L 84.122545 173.52 
L 84.122545 123.12 
L 82.813631 123.12 
z
" style="fill:#ffffff;"/>
   </g>
   <g id="patch_131">
    <path clip-path="url(#p08d0918bca)" d="M 84.122545 173.52 
L 85.431458 173.52 
L 85.431458 94.32 
L 84.122545 94.32 
z
" style="fill:#ffffff;"/>
   </g>
   <g id="patch_132">
    <path clip-path="url(#p08d0918bca)" d="M 85.431458 173.52 
L 86.740371 173.52 
L 86.740371 94.32 
L 85.431458 94.32 
z
" style="fill:#ffffff;"/>
   </g>
   <g id="patch_133">
    <path clip-path="url(#p08d0918bca)" d="M 86.740371 173.52 
L 88.049285 173.52 
L 88.049285 130.32 
L 86.740371 130.32 
z
" style="fill:#ffffff;"/>
   </g>
   <g id="patch_134">
    <path clip-path="url(#p08d0918bca)" d="M 88.049285 173.52 
L 89.358198 173.52 
L 89.358198 159.12 
L 88.049285 159.12 
z
" style="fill:#ffffff;"/>
   </g>
   <g id="patch_135">
    <path clip-path="url(#p08d0918bca)" d="M 89.358198 173.52 
L 90.667112 173.52 
L 90.667112 123.12 
L 89.358198 123.12 
z
" style="fill:#ffffff;"/>
   </g>
   <g id="patch_136">
    <path clip-path="url(#p08d0918bca)" d="M 90.667112 173.52 
L 91.976025 173.52 
L 91.976025 108.72 
L 90.667112 108.72 
z
" style="fill:#ffffff;"/>
   </g>
   <g id="patch_137">
    <path clip-path="url(#p08d0918bca)" d="M 91.976025 173.52 
L 93.284938 173.52 
L 93.284938 51.12 
L 91.976025 51.12 
z
" style="fill:#ffffff;"/>
   </g>
   <g id="patch_138">
    <path clip-path="url(#p08d0918bca)" d="M 93.284938 173.52 
L 94.593852 173.52 
L 94.593852 94.32 
L 93.284938 94.32 
z
" style="fill:#ffffff;"/>
   </g>
   <g id="patch_139">
    <path clip-path="url(#p08d0918bca)" d="M 94.593852 173.52 
L 95.902765 173.52 
L 95.902765 115.92 
L 94.593852 115.92 
z
" style="fill:#ffffff;"/>
   </g>
   <g id="patch_140">
    <path clip-path="url(#p08d0918bca)" d="M 95.902765 173.52 
L 97.211679 173.52 
L 97.211679 94.32 
L 95.902765 94.32 
z
" style="fill:#ffffff;"/>
   </g>
   <g id="patch_141">
    <path clip-path="url(#p08d0918bca)" d="M 97.211679 173.52 
L 98.520592 173.52 
L 98.520592 115.92 
L 97.211679 115.92 
z
" style="fill:#ffffff;"/>
   </g>
   <g id="patch_142">
    <path clip-path="url(#p08d0918bca)" d="M 98.520592 173.52 
L 99.829505 173.52 
L 99.829505 79.92 
L 98.520592 79.92 
z
" style="fill:#ffffff;"/>
   </g>
   <g id="patch_143">
    <path clip-path="url(#p08d0918bca)" d="M 99.829505 173.52 
L 101.138419 173.52 
L 101.138419 58.32 
L 99.829505 58.32 
z
" style="fill:#ffffff;"/>
   </g>
   <g id="patch_144">
    <path clip-path="url(#p08d0918bca)" d="M 101.138419 173.52 
L 102.447332 173.52 
L 102.447332 108.72 
L 101.138419 108.72 
z
" style="fill:#ffffff;"/>
   </g>
   <g id="patch_145">
    <path clip-path="url(#p08d0918bca)" d="M 102.447332 173.52 
L 103.756246 173.52 
L 103.756246 94.32 
L 102.447332 94.32 
z
" style="fill:#ffffff;"/>
   </g>
   <g id="patch_146">
    <path clip-path="url(#p08d0918bca)" d="M 103.756246 173.52 
L 105.065159 173.52 
L 105.065159 115.92 
L 103.756246 115.92 
z
" style="fill:#ffffff;"/>
   </g>
   <g id="patch_147">
    <path clip-path="url(#p08d0918bca)" d="M 105.065159 173.52 
L 106.374072 173.52 
L 106.374072 79.92 
L 105.065159 79.92 
z
" style="fill:#ffffff;"/>
   </g>
   <g id="patch_148">
    <path clip-path="url(#p08d0918bca)" d="M 106.374072 173.52 
L 107.682986 173.52 
L 107.682986 65.52 
L 106.374072 65.52 
z
" style="fill:#ffffff;"/>
   </g>
   <g id="patch_149">
    <path clip-path="url(#p08d0918bca)" d="M 107.682986 173.52 
L 108.991899 173.52 
L 108.991899 58.32 
L 107.682986 58.32 
z
" style="fill:#ffffff;"/>
   </g>
   <g id="patch_150">
    <path clip-path="url(#p08d0918bca)" d="M 108.991899 173.52 
L 110.300813 173.52 
L 110.300813 15.12 
L 108.991899 15.12 
z
" style="fill:#ffffff;"/>
   </g>
   <g id="patch_151">
    <path clip-path="url(#p08d0918bca)" d="M 110.300813 173.52 
L 111.609726 173.52 
L 111.609726 115.92 
L 110.300813 115.92 
z
" style="fill:#ffffff;"/>
   </g>
   <g id="patch_152">
    <path clip-path="url(#p08d0918bca)" d="M 111.609726 173.52 
L 112.918639 173.52 
L 112.918639 123.12 
L 111.609726 123.12 
z
" style="fill:#ffffff;"/>
   </g>
   <g id="patch_153">
    <path clip-path="url(#p08d0918bca)" d="M 112.918639 173.52 
L 114.227553 173.52 
L 114.227553 79.92 
L 112.918639 79.92 
z
" style="fill:#ffffff;"/>
   </g>
   <g id="patch_154">
    <path clip-path="url(#p08d0918bca)" d="M 114.227553 173.52 
L 115.536466 173.52 
L 115.536466 108.72 
L 114.227553 108.72 
z
" style="fill:#ffffff;"/>
   </g>
   <g id="patch_155">
    <path clip-path="url(#p08d0918bca)" d="M 115.536466 173.52 
L 116.84538 173.52 
L 116.84538 51.12 
L 115.536466 51.12 
z
" style="fill:#ffffff;"/>
   </g>
   <g id="patch_156">
    <path clip-path="url(#p08d0918bca)" d="M 116.84538 173.52 
L 118.154293 173.52 
L 118.154293 137.52 
L 116.84538 137.52 
z
" style="fill:#ffffff;"/>
   </g>
   <g id="patch_157">
    <path clip-path="url(#p08d0918bca)" d="M 118.154293 173.52 
L 119.463206 173.52 
L 119.463206 79.92 
L 118.154293 79.92 
z
" style="fill:#ffffff;"/>
   </g>
   <g id="patch_158">
    <path clip-path="url(#p08d0918bca)" d="M 119.463206 173.52 
L 120.77212 173.52 
L 120.77212 43.92 
L 119.463206 43.92 
z
" style="fill:#ffffff;"/>
   </g>
   <g id="patch_159">
    <path clip-path="url(#p08d0918bca)" d="M 120.77212 173.52 
L 122.081033 173.52 
L 122.081033 94.32 
L 120.77212 94.32 
z
" style="fill:#ffffff;"/>
   </g>
   <g id="patch_160">
    <path clip-path="url(#p08d0918bca)" d="M 122.081033 173.52 
L 123.389947 173.52 
L 123.389947 94.32 
L 122.081033 94.32 
z
" style="fill:#ffffff;"/>
   </g>
   <g id="patch_161">
    <path clip-path="url(#p08d0918bca)" d="M 123.389947 173.52 
L 124.69886 173.52 
L 124.69886 123.12 
L 123.389947 123.12 
z
" style="fill:#ffffff;"/>
   </g>
   <g id="patch_162">
    <path clip-path="url(#p08d0918bca)" d="M 124.69886 173.52 
L 126.007773 173.52 
L 126.007773 115.92 
L 124.69886 115.92 
z
" style="fill:#ffffff;"/>
   </g>
   <g id="patch_163">
    <path clip-path="url(#p08d0918bca)" d="M 126.007773 173.52 
L 127.316687 173.52 
L 127.316687 130.32 
L 126.007773 130.32 
z
" style="fill:#ffffff;"/>
   </g>
   <g id="patch_164">
    <path clip-path="url(#p08d0918bca)" d="M 127.316687 173.52 
L 128.6256 173.52 
L 128.6256 123.12 
L 127.316687 123.12 
z
" style="fill:#ffffff;"/>
   </g>
   <g id="patch_165">
    <path clip-path="url(#p08d0918bca)" d="M 128.6256 173.52 
L 129.934514 173.52 
L 129.934514 137.52 
L 128.6256 137.52 
z
" style="fill:#ffffff;"/>
   </g>
   <g id="patch_166">
    <path clip-path="url(#p08d0918bca)" d="M 129.934514 173.52 
L 131.243427 173.52 
L 131.243427 130.32 
L 129.934514 130.32 
z
" style="fill:#ffffff;"/>
   </g>
   <g id="patch_167">
    <path clip-path="url(#p08d0918bca)" d="M 131.243427 173.52 
L 132.55234 173.52 
L 132.55234 108.72 
L 131.243427 108.72 
z
" style="fill:#ffffff;"/>
   </g>
   <g id="patch_168">
    <path clip-path="url(#p08d0918bca)" d="M 132.55234 173.52 
L 133.861254 173.52 
L 133.861254 123.12 
L 132.55234 123.12 
z
" style="fill:#ffffff;"/>
   </g>
   <g id="patch_169">
    <path clip-path="url(#p08d0918bca)" d="M 133.861254 173.52 
L 135.170167 173.52 
L 135.170167 137.52 
L 133.861254 137.52 
z
" style="fill:#ffffff;"/>
   </g>
   <g id="patch_170">
    <path clip-path="url(#p08d0918bca)" d="M 135.170167 173.52 
L 136.479081 173.52 
L 136.479081 101.52 
L 135.170167 101.52 
z
" style="fill:#ffffff;"/>
   </g>
   <g id="patch_171">
    <path clip-path="url(#p08d0918bca)" d="M 136.479081 173.52 
L 137.787994 173.52 
L 137.787994 144.72 
L 136.479081 144.72 
z
" style="fill:#ffffff;"/>
   </g>
   <g id="patch_172">
    <path clip-path="url(#p08d0918bca)" d="M 137.787994 173.52 
L 139.096907 173.52 
L 139.096907 151.92 
L 137.787994 151.92 
z
" style="fill:#ffffff;"/>
   </g>
   <g id="patch_173">
    <path clip-path="url(#p08d0918bca)" d="M 139.096907 173.52 
L 140.405821 173.52 
L 140.405821 151.92 
L 139.096907 151.92 
z
" style="fill:#ffffff;"/>
   </g>
   <g id="patch_174">
    <path clip-path="url(#p08d0918bca)" d="M 140.405821 173.52 
L 141.714734 173.52 
L 141.714734 137.52 
L 140.405821 137.52 
z
" style="fill:#ffffff;"/>
   </g>
   <g id="patch_175">
    <path clip-path="url(#p08d0918bca)" d="M 141.714734 173.52 
L 143.023648 173.52 
L 143.023648 137.52 
L 141.714734 137.52 
z
" style="fill:#ffffff;"/>
   </g>
   <g id="patch_176">
    <path clip-path="url(#p08d0918bca)" d="M 143.023648 173.52 
L 144.332561 173.52 
L 144.332561 144.72 
L 143.023648 144.72 
z
" style="fill:#ffffff;"/>
   </g>
   <g id="patch_177">
    <path clip-path="url(#p08d0918bca)" d="M 144.332561 173.52 
L 145.641474 173.52 
L 145.641474 159.12 
L 144.332561 159.12 
z
" style="fill:#ffffff;"/>
   </g>
   <g id="patch_178">
    <path clip-path="url(#p08d0918bca)" d="M 145.641474 173.52 
L 146.950388 173.52 
L 146.950388 130.32 
L 145.641474 130.32 
z
" style="fill:#ffffff;"/>
   </g>
   <g id="patch_179">
    <path clip-path="url(#p08d0918bca)" d="M 146.950388 173.52 
L 148.259301 173.52 
L 148.259301 173.52 
L 146.950388 173.52 
z
" style="fill:#ffffff;"/>
   </g>
   <g id="patch_180">
    <path clip-path="url(#p08d0918bca)" d="M 148.259301 173.52 
L 149.568215 173.52 
L 149.568215 173.52 
L 148.259301 173.52 
z
" style="fill:#ffffff;"/>
   </g>
   <g id="patch_181">
    <path clip-path="url(#p08d0918bca)" d="M 149.568215 173.52 
L 150.877128 173.52 
L 150.877128 159.12 
L 149.568215 159.12 
z
" style="fill:#ffffff;"/>
   </g>
   <g id="patch_182">
    <path clip-path="url(#p08d0918bca)" d="M 150.877128 173.52 
L 152.186041 173.52 
L 152.186041 144.72 
L 150.877128 144.72 
z
" style="fill:#ffffff;"/>
   </g>
   <g id="patch_183">
    <path clip-path="url(#p08d0918bca)" d="M 152.186041 173.52 
L 153.494955 173.52 
L 153.494955 151.92 
L 152.186041 151.92 
z
" style="fill:#ffffff;"/>
   </g>
   <g id="patch_184">
    <path clip-path="url(#p08d0918bca)" d="M 153.494955 173.52 
L 154.803868 173.52 
L 154.803868 144.72 
L 153.494955 144.72 
z
" style="fill:#ffffff;"/>
   </g>
   <g id="patch_185">
    <path clip-path="url(#p08d0918bca)" d="M 154.803868 173.52 
L 156.112782 173.52 
L 156.112782 166.32 
L 154.803868 166.32 
z
" style="fill:#ffffff;"/>
   </g>
   <g id="patch_186">
    <path clip-path="url(#p08d0918bca)" d="M 156.112782 173.52 
L 157.421695 173.52 
L 157.421695 173.52 
L 156.112782 173.52 
z
" style="fill:#ffffff;"/>
   </g>
   <g id="patch_187">
    <path clip-path="url(#p08d0918bca)" d="M 157.421695 173.52 
L 158.730608 173.52 
L 158.730608 159.12 
L 157.421695 159.12 
z
" style="fill:#ffffff;"/>
   </g>
   <g id="patch_188">
    <path clip-path="url(#p08d0918bca)" d="M 158.730608 173.52 
L 160.039522 173.52 
L 160.039522 173.52 
L 158.730608 173.52 
z
" style="fill:#ffffff;"/>
   </g>
   <g id="patch_189">
    <path clip-path="url(#p08d0918bca)" d="M 160.039522 173.52 
L 161.348435 173.52 
L 161.348435 159.12 
L 160.039522 159.12 
z
" style="fill:#ffffff;"/>
   </g>
   <g id="patch_190">
    <path clip-path="url(#p08d0918bca)" d="M 161.348435 173.52 
L 162.657349 173.52 
L 162.657349 166.32 
L 161.348435 166.32 
z
" style="fill:#ffffff;"/>
   </g>
   <g id="patch_191">
    <path clip-path="url(#p08d0918bca)" d="M 162.657349 173.52 
L 163.966262 173.52 
L 163.966262 159.12 
L 162.657349 159.12 
z
" style="fill:#ffffff;"/>
   </g>
   <g id="patch_192">
    <path clip-path="url(#p08d0918bca)" d="M 163.966262 173.52 
L 165.275175 173.52 
L 165.275175 173.52 
L 163.966262 173.52 
z
" style="fill:#ffffff;"/>
   </g>
   <g id="patch_193">
    <path clip-path="url(#p08d0918bca)" d="M 165.275175 173.52 
L 166.584089 173.52 
L 166.584089 166.32 
L 165.275175 166.32 
z
" style="fill:#ffffff;"/>
   </g>
   <g id="patch_194">
    <path clip-path="url(#p08d0918bca)" d="M 166.584089 173.52 
L 167.893002 173.52 
L 167.893002 173.52 
L 166.584089 173.52 
z
" style="fill:#ffffff;"/>
   </g>
   <g id="patch_195">
    <path clip-path="url(#p08d0918bca)" d="M 167.893002 173.52 
L 169.201916 173.52 
L 169.201916 166.32 
L 167.893002 166.32 
z
" style="fill:#ffffff;"/>
   </g>
   <g id="patch_196">
    <path clip-path="url(#p08d0918bca)" d="M 169.201916 173.52 
L 170.510829 173.52 
L 170.510829 173.52 
L 169.201916 173.52 
z
" style="fill:#ffffff;"/>
   </g>
   <g id="patch_197">
    <path clip-path="url(#p08d0918bca)" d="M 170.510829 173.52 
L 171.819742 173.52 
L 171.819742 173.52 
L 170.510829 173.52 
z
" style="fill:#ffffff;"/>
   </g>
   <g id="patch_198">
    <path clip-path="url(#p08d0918bca)" d="M 171.819742 173.52 
L 173.128656 173.52 
L 173.128656 173.52 
L 171.819742 173.52 
z
" style="fill:#ffffff;"/>
   </g>
   <g id="patch_199">
    <path clip-path="url(#p08d0918bca)" d="M 173.128656 173.52 
L 174.437569 173.52 
L 174.437569 173.52 
L 173.128656 173.52 
z
" style="fill:#ffffff;"/>
   </g>
   <g id="patch_200">
    <path clip-path="url(#p08d0918bca)" d="M 174.437569 173.52 
L 175.746483 173.52 
L 175.746483 173.52 
L 174.437569 173.52 
z
" style="fill:#ffffff;"/>
   </g>
   <g id="patch_201">
    <path clip-path="url(#p08d0918bca)" d="M 175.746483 173.52 
L 177.055396 173.52 
L 177.055396 173.52 
L 175.746483 173.52 
z
" style="fill:#ffffff;"/>
   </g>
   <g id="patch_202">
    <path clip-path="url(#p08d0918bca)" d="M 177.055396 173.52 
L 178.364309 173.52 
L 178.364309 166.32 
L 177.055396 166.32 
z
" style="fill:#ffffff;"/>
   </g>
   <g id="matplotlib.axis_1">
    <g id="xtick_1">
     <g id="line2d_1">
      <defs>
       <path d="M 0 0 
L 0 3.5 
" id="m763dbbb169" style="stroke:#000000;stroke-width:1.5;"/>
      </defs>
      <g>
       <use style="stroke:#000000;stroke-width:1.5;" x="60.530282" xlink:href="#m763dbbb169" y="173.52"/>
      </g>
     </g>
     <g id="text_1">
      <text style="font-family:DejaVu Sans;font-size:8px;font-stretch:normal;font-style:normal;font-weight:normal;text-anchor:middle;" transform="rotate(-0, 60.530282, 186.59875)" x="60.530282" y="186.59875">50</text>
     </g>
    </g>
    <g id="xtick_2">
     <g id="line2d_2">
      <g>
       <use style="stroke:#000000;stroke-width:1.5;" x="89.530787" xlink:href="#m763dbbb169" y="173.52"/>
      </g>
     </g>
     <g id="text_2">
      <text style="font-family:DejaVu Sans;font-size:8px;font-stretch:normal;font-style:normal;font-weight:normal;text-anchor:middle;" transform="rotate(-0, 89.530787, 186.59875)" x="89.530787" y="186.59875">75</text>
     </g>
    </g>
    <g id="xtick_3">
     <g id="line2d_3">
      <g>
       <use style="stroke:#000000;stroke-width:1.5;" x="118.531293" xlink:href="#m763dbbb169" y="173.52"/>
      </g>
     </g>
     <g id="text_3">
      <text style="font-family:DejaVu Sans;font-size:8px;font-stretch:normal;font-style:normal;font-weight:normal;text-anchor:middle;" transform="rotate(-0, 118.531293, 186.59875)" x="118.531293" y="186.59875">100</text>
     </g>
    </g>
    <g id="xtick_4">
     <g id="line2d_4">
      <g>
       <use style="stroke:#000000;stroke-width:1.5;" x="147.531798" xlink:href="#m763dbbb169" y="173.52"/>
      </g>
     </g>
     <g id="text_4">
      <text style="font-family:DejaVu Sans;font-size:8px;font-stretch:normal;font-style:normal;font-weight:normal;text-anchor:middle;" transform="rotate(-0, 147.531798, 186.59875)" x="147.531798" y="186.59875">125</text>
     </g>
    </g>
    <g id="xtick_5">
     <g id="line2d_5">
      <g>
       <use style="stroke:#000000;stroke-width:1.5;" x="176.532304" xlink:href="#m763dbbb169" y="173.52"/>
      </g>
     </g>
     <g id="text_5">
      <text style="font-family:DejaVu Sans;font-size:8px;font-stretch:normal;font-style:normal;font-weight:normal;text-anchor:middle;" transform="rotate(-0, 176.532304, 186.59875)" x="176.532304" y="186.59875">150</text>
     </g>
    </g>
    <g id="text_6">
     <!-- $Energy  \mu J/s$ -->
     <g transform="translate(98.5825 198.325)">
      <text>
       <tspan style="font-family:DejaVu Sans;font-size:8px;font-style:book;font-weight:book;" x="0 5.054688 10.125 15.046875 18.335938 23.414062 28.148438 33.238281 35.597656 38.292969" y="-0.171875">EnergyμJ/s</tspan>
      </text>
     </g>
    </g>
   </g>
   <g id="matplotlib.axis_2">
    <g id="ytick_1">
     <g id="line2d_6">
      <defs>
       <path d="M 0 0 
L -3.5 0 
" id="m0cad2569a0" style="stroke:#000000;stroke-width:1.5;"/>
      </defs>
      <g>
       <use style="stroke:#000000;stroke-width:1.5;" x="36.1225" xlink:href="#m0cad2569a0" y="173.52"/>
      </g>
     </g>
     <g id="text_7">
      <text style="font-family:DejaVu Sans;font-size:8px;font-stretch:normal;font-style:normal;font-weight:normal;text-anchor:end;" transform="rotate(-0, 29.1225, 176.559375)" x="29.1225" y="176.559375">0</text>
     </g>
    </g>
    <g id="ytick_2">
     <g id="line2d_7">
      <g>
       <use style="stroke:#000000;stroke-width:1.5;" x="36.1225" xlink:href="#m0cad2569a0" y="137.52"/>
      </g>
     </g>
     <g id="text_8">
      <text style="font-family:DejaVu Sans;font-size:8px;font-stretch:normal;font-style:normal;font-weight:normal;text-anchor:end;" transform="rotate(-0, 29.1225, 140.559375)" x="29.1225" y="140.559375">5</text>
     </g>
    </g>
    <g id="ytick_3">
     <g id="line2d_8">
      <g>
       <use style="stroke:#000000;stroke-width:1.5;" x="36.1225" xlink:href="#m0cad2569a0" y="101.52"/>
      </g>
     </g>
     <g id="text_9">
      <text style="font-family:DejaVu Sans;font-size:8px;font-stretch:normal;font-style:normal;font-weight:normal;text-anchor:end;" transform="rotate(-0, 29.1225, 104.559375)" x="29.1225" y="104.559375">10</text>
     </g>
    </g>
    <g id="ytick_4">
     <g id="line2d_9">
      <g>
       <use style="stroke:#000000;stroke-width:1.5;" x="36.1225" xlink:href="#m0cad2569a0" y="65.52"/>
      </g>
     </g>
     <g id="text_10">
      <text style="font-family:DejaVu Sans;font-size:8px;font-stretch:normal;font-style:normal;font-weight:normal;text-anchor:end;" transform="rotate(-0, 29.1225, 68.559375)" x="29.1225" y="68.559375">15</text>
     </g>
    </g>
    <g id="ytick_5">
     <g id="line2d_10">
      <g>
       <use style="stroke:#000000;stroke-width:1.5;" x="36.1225" xlink:href="#m0cad2569a0" y="29.52"/>
      </g>
     </g>
     <g id="text_11">
      <text style="font-family:DejaVu Sans;font-size:8px;font-stretch:normal;font-style:normal;font-weight:normal;text-anchor:end;" transform="rotate(-0, 29.1225, 32.559375)" x="29.1225" y="32.559375">20</text>
     </g>
    </g>
    <g id="text_12">
     <text style="font-family:DejaVu Sans;font-size:8px;font-stretch:normal;font-style:normal;font-weight:normal;text-anchor:middle;" transform="rotate(-90, 13.27875, 90.36)" x="13.27875" y="90.36">Count</text>
    </g>
   </g>
   <g id="line2d_11">
    <path clip-path="url(#p08d0918bca)" d="M 44.4925 159.12 
L 46.014318 166.32 
L 47.536136 173.52 
L 49.057955 166.32 
L 50.579773 166.32 
L 52.101591 166.32 
L 53.623409 173.52 
L 55.145227 173.52 
L 56.667045 173.52 
L 58.188864 159.12 
L 59.710682 151.92 
L 61.2325 166.32 
L 62.754318 166.32 
L 64.276136 144.72 
L 65.797955 159.12 
L 67.319773 101.52 
L 68.841591 123.12 
L 70.363409 159.12 
L 71.885227 137.52 
L 73.407045 144.72 
L 74.928864 130.32 
L 76.450682 137.52 
L 77.9725 130.32 
L 79.494318 137.52 
L 81.016136 87.12 
L 82.537955 137.52 
L 84.059773 87.12 
L 85.581591 101.52 
L 87.103409 94.32 
L 88.625227 108.72 
L 90.147045 87.12 
L 91.668864 130.32 
L 93.190682 123.12 
L 94.7125 130.32 
L 96.234318 101.52 
L 97.756136 58.32 
L 99.277955 101.52 
L 100.799773 101.52 
L 102.321591 130.32 
L 103.843409 108.72 
L 105.365227 94.32 
L 106.887045 108.72 
L 108.408864 94.32 
L 109.930682 94.32 
L 111.4525 65.52 
L 112.974318 94.32 
L 114.496136 123.12 
L 116.017955 108.72 
L 117.539773 36.72 
L 119.061591 65.52 
L 120.583409 94.32 
L 122.105227 123.12 
L 123.627045 108.72 
L 125.148864 72.72 
L 126.670682 130.32 
L 128.1925 79.92 
L 129.714318 87.12 
L 131.236136 137.52 
L 132.757955 130.32 
L 134.279773 94.32 
L 135.801591 87.12 
L 137.323409 130.32 
L 138.845227 123.12 
L 140.367045 151.92 
L 141.888864 130.32 
L 143.410682 151.92 
L 144.9325 130.32 
L 146.454318 151.92 
L 147.976136 130.32 
L 149.497955 151.92 
L 151.019773 130.32 
L 152.541591 130.32 
L 154.063409 137.52 
L 155.585227 123.12 
L 157.107045 137.52 
L 158.628864 144.72 
L 160.150682 144.72 
L 161.6725 137.52 
L 163.194318 159.12 
L 164.716136 173.52 
L 166.237955 159.12 
L 167.759773 173.52 
L 169.281591 166.32 
L 170.803409 159.12 
L 172.325227 166.32 
L 173.847045 159.12 
L 175.368864 173.52 
L 176.890682 151.92 
L 178.4125 173.52 
L 179.934318 173.52 
L 181.456136 173.52 
L 182.977955 173.52 
L 184.499773 173.52 
L 186.021591 173.52 
L 187.543409 173.52 
L 189.065227 173.52 
L 190.587045 173.52 
L 192.108864 173.52 
L 193.630682 173.52 
L 195.1525 166.32 
" style="fill:none;stroke:#1f77b4;stroke-linecap:square;stroke-width:1.5;"/>
   </g>
   <g id="line2d_12">
    <path clip-path="url(#p08d0918bca)" d="M 48.233879 159.12 
L 49.542792 173.52 
L 50.851705 173.52 
L 52.160619 166.32 
L 53.469532 166.32 
L 54.778446 159.12 
L 56.087359 159.12 
L 57.396272 166.32 
L 58.705186 166.32 
L 60.014099 151.92 
L 61.323013 173.52 
L 62.631926 166.32 
L 63.940839 159.12 
L 65.249753 159.12 
L 66.558666 166.32 
L 67.86758 144.72 
L 69.176493 137.52 
L 70.485406 151.92 
L 71.79432 151.92 
L 73.103233 159.12 
L 74.412147 123.12 
L 75.72106 123.12 
L 77.029973 130.32 
L 78.338887 123.12 
L 79.6478 101.52 
L 80.956714 123.12 
L 82.265627 123.12 
L 83.57454 123.12 
L 84.883454 94.32 
L 86.192367 94.32 
L 87.501281 130.32 
L 88.810194 159.12 
L 90.119107 123.12 
L 91.428021 108.72 
L 92.736934 51.12 
L 94.045848 94.32 
L 95.354761 115.92 
L 96.663674 94.32 
L 97.972588 115.92 
L 99.281501 79.92 
L 100.590415 58.32 
L 101.899328 108.72 
L 103.208241 94.32 
L 104.517155 115.92 
L 105.826068 79.92 
L 107.134982 65.52 
L 108.443895 58.32 
L 109.752808 15.12 
L 111.061722 115.92 
L 112.370635 123.12 
L 113.679549 79.92 
L 114.988462 108.72 
L 116.297375 51.12 
L 117.606289 137.52 
L 118.915202 79.92 
L 120.224116 43.92 
L 121.533029 94.32 
L 122.841942 94.32 
L 124.150856 123.12 
L 125.459769 115.92 
L 126.768683 130.32 
L 128.077596 123.12 
L 129.386509 137.52 
L 130.695423 130.32 
L 132.004336 108.72 
L 133.31325 123.12 
L 134.622163 137.52 
L 135.931076 101.52 
L 137.23999 144.72 
L 138.548903 151.92 
L 139.857817 151.92 
L 141.16673 137.52 
L 142.475643 137.52 
L 143.784557 144.72 
L 145.09347 159.12 
L 146.402384 130.32 
L 147.711297 173.52 
L 149.02021 173.52 
L 150.329124 159.12 
L 151.638037 144.72 
L 152.946951 151.92 
L 154.255864 144.72 
L 155.564777 166.32 
L 156.873691 173.52 
L 158.182604 159.12 
L 159.491518 173.52 
L 160.800431 159.12 
L 162.109344 166.32 
L 163.418258 159.12 
L 164.727171 173.52 
L 166.036085 166.32 
L 167.344998 173.52 
L 168.653911 166.32 
L 169.962825 173.52 
L 171.271738 173.52 
L 172.580652 173.52 
L 173.889565 173.52 
L 175.198478 173.52 
L 176.507392 173.52 
L 177.816305 166.32 
" style="fill:none;stroke:#ff7f0e;stroke-linecap:square;stroke-width:1.5;"/>
   </g>
   <g id="patch_203">
    <path d="M 36.1225 173.52 
L 36.1225 7.2 
" style="fill:none;stroke:#000000;stroke-linecap:square;stroke-linejoin:miter;stroke-width:1.5;"/>
   </g>
   <g id="patch_204">
    <path d="M 36.1225 173.52 
L 203.5225 173.52 
" style="fill:none;stroke:#000000;stroke-linecap:square;stroke-linejoin:miter;stroke-width:1.5;"/>
   </g>
   <g id="legend_1">
    <g id="line2d_13">
     <path d="M 146.12 17.67875 
L 162.12 17.67875 
" style="fill:none;stroke:#1f77b4;stroke-linecap:square;stroke-width:1.5;"/>
    </g>
    <g id="line2d_14"/>
    <g id="text_13">
     <text style="font-family:DejaVu Sans;font-size:8px;font-stretch:normal;font-style:normal;font-weight:normal;text-anchor:start;" transform="rotate(-0, 168.52, 20.47875)" x="168.52" y="20.47875">11 deg</text>
    </g>
    <g id="line2d_15">
     <path d="M 146.12 29.42125 
L 162.12 29.42125 
" style="fill:none;stroke:#ff7f0e;stroke-linecap:square;stroke-width:1.5;"/>
    </g>
    <g id="line2d_16"/>
    <g id="text_14">
     <text style="font-family:DejaVu Sans;font-size:8px;font-stretch:normal;font-style:normal;font-weight:normal;text-anchor:start;" transform="rotate(-0, 168.52, 32.22125)" x="168.52" y="32.22125">27 deg</text>
    </g>
   </g>
  </g>
 </g>
 <defs>
  <clipPath id="p08d0918bca">
   <rect height="166.32" width="167.4" x="36.1225" y="7.2"/>
  </clipPath>
 </defs>
</svg>
