<?xml version="1.0" encoding="utf-8" standalone="no"?>
<!DOCTYPE svg PUBLIC "-//W3C//DTD SVG 1.1//EN"
  "http://www.w3.org/Graphics/SVG/1.1/DTD/svg11.dtd">
<!-- Created with matplotlib (https://matplotlib.org/) -->
<svg height="151.7825pt" version="1.1" viewBox="0 0 220.9025 151.7825" width="220.9025pt" xmlns="http://www.w3.org/2000/svg" xmlns:xlink="http://www.w3.org/1999/xlink">
 <metadata>
  <rdf:RDF xmlns:cc="http://creativecommons.org/ns#" xmlns:dc="http://purl.org/dc/elements/1.1/" xmlns:rdf="http://www.w3.org/1999/02/22-rdf-syntax-ns#">
   <cc:Work>
    <dc:type rdf:resource="http://purl.org/dc/dcmitype/StillImage"/>
    <dc:date>2020-10-20T18:00:40.450493</dc:date>
    <dc:format>image/svg+xml</dc:format>
    <dc:creator>
     <cc:Agent>
      <dc:title>Matplotlib v3.3.2, https://matplotlib.org/</dc:title>
     </cc:Agent>
    </dc:creator>
   </cc:Work>
  </rdf:RDF>
 </metadata>
 <defs>
  <style type="text/css">*{stroke-linecap:butt;stroke-linejoin:round;}</style>
 </defs>
 <g id="figure_1">
  <g id="patch_1">
   <path d="M 0 151.7825 
L 220.9025 151.7825 
L 220.9025 0 
L 0 0 
z
" style="fill:none;"/>
  </g>
  <g id="axes_1">
   <g id="patch_2">
    <path d="M 46.3025 118.08 
L 213.7025 118.08 
L 213.7025 7.2 
L 46.3025 7.2 
z
" style="fill:none;"/>
   </g>
   <g id="patch_3">
    <path clip-path="url(#pd6894afd52)" d="M 53.911591 118.08 
L 55.433409 118.08 
L 55.433409 116.250031 
L 53.911591 116.250031 
z
" style="fill:#ffffff;"/>
   </g>
   <g id="patch_4">
    <path clip-path="url(#pd6894afd52)" d="M 55.433409 118.08 
L 56.955227 118.08 
L 56.955227 114.420061 
L 55.433409 114.420061 
z
" style="fill:#ffffff;"/>
   </g>
   <g id="patch_5">
    <path clip-path="url(#pd6894afd52)" d="M 56.955227 118.08 
L 58.477045 118.08 
L 58.477045 110.975413 
L 56.955227 110.975413 
z
" style="fill:#ffffff;"/>
   </g>
   <g id="patch_6">
    <path clip-path="url(#pd6894afd52)" d="M 58.477045 118.08 
L 59.998864 118.08 
L 59.998864 106.346667 
L 58.477045 106.346667 
z
" style="fill:#ffffff;"/>
   </g>
   <g id="patch_7">
    <path clip-path="url(#pd6894afd52)" d="M 59.998864 118.08 
L 61.520682 118.08 
L 61.520682 100.964404 
L 59.998864 100.964404 
z
" style="fill:#ffffff;"/>
   </g>
   <g id="patch_8">
    <path clip-path="url(#pd6894afd52)" d="M 61.520682 118.08 
L 63.0425 118.08 
L 63.0425 96.873884 
L 61.520682 96.873884 
z
" style="fill:#ffffff;"/>
   </g>
   <g id="patch_9">
    <path clip-path="url(#pd6894afd52)" d="M 63.0425 118.08 
L 64.564318 118.08 
L 64.564318 94.828624 
L 63.0425 94.828624 
z
" style="fill:#ffffff;"/>
   </g>
   <g id="patch_10">
    <path clip-path="url(#pd6894afd52)" d="M 64.564318 118.08 
L 66.086136 118.08 
L 66.086136 89.338716 
L 64.564318 89.338716 
z
" style="fill:#ffffff;"/>
   </g>
   <g id="patch_11">
    <path clip-path="url(#pd6894afd52)" d="M 66.086136 118.08 
L 67.607955 118.08 
L 67.607955 86.324648 
L 66.086136 86.324648 
z
" style="fill:#ffffff;"/>
   </g>
   <g id="patch_12">
    <path clip-path="url(#pd6894afd52)" d="M 67.607955 118.08 
L 69.129773 118.08 
L 69.129773 76.52893 
L 67.607955 76.52893 
z
" style="fill:#ffffff;"/>
   </g>
   <g id="patch_13">
    <path clip-path="url(#pd6894afd52)" d="M 69.129773 118.08 
L 70.651591 118.08 
L 70.651591 71.254312 
L 69.129773 71.254312 
z
" style="fill:#ffffff;"/>
   </g>
   <g id="patch_14">
    <path clip-path="url(#pd6894afd52)" d="M 70.651591 118.08 
L 72.173409 118.08 
L 72.173409 69.962569 
L 70.651591 69.962569 
z
" style="fill:#ffffff;"/>
   </g>
   <g id="patch_15">
    <path clip-path="url(#pd6894afd52)" d="M 72.173409 118.08 
L 73.695227 118.08 
L 73.695227 63.934434 
L 72.173409 63.934434 
z
" style="fill:#ffffff;"/>
   </g>
   <g id="patch_16">
    <path clip-path="url(#pd6894afd52)" d="M 73.695227 118.08 
L 75.217045 118.08 
L 75.217045 60.16685 
L 73.695227 60.16685 
z
" style="fill:#ffffff;"/>
   </g>
   <g id="patch_17">
    <path clip-path="url(#pd6894afd52)" d="M 75.217045 118.08 
L 76.738864 118.08 
L 76.738864 56.722202 
L 75.217045 56.722202 
z
" style="fill:#ffffff;"/>
   </g>
   <g id="patch_18">
    <path clip-path="url(#pd6894afd52)" d="M 76.738864 118.08 
L 78.260682 118.08 
L 78.260682 48.110581 
L 76.738864 48.110581 
z
" style="fill:#ffffff;"/>
   </g>
   <g id="patch_19">
    <path clip-path="url(#pd6894afd52)" d="M 78.260682 118.08 
L 79.7825 118.08 
L 79.7825 50.371131 
L 78.260682 50.371131 
z
" style="fill:#ffffff;"/>
   </g>
   <g id="patch_20">
    <path clip-path="url(#pd6894afd52)" d="M 79.7825 118.08 
L 81.304318 118.08 
L 81.304318 46.388257 
L 79.7825 46.388257 
z
" style="fill:#ffffff;"/>
   </g>
   <g id="patch_21">
    <path clip-path="url(#pd6894afd52)" d="M 81.304318 118.08 
L 82.826136 118.08 
L 82.826136 42.513028 
L 81.304318 42.513028 
z
" style="fill:#ffffff;"/>
   </g>
   <g id="patch_22">
    <path clip-path="url(#pd6894afd52)" d="M 82.826136 118.08 
L 84.347955 118.08 
L 84.347955 38.422508 
L 82.826136 38.422508 
z
" style="fill:#ffffff;"/>
   </g>
   <g id="patch_23">
    <path clip-path="url(#pd6894afd52)" d="M 84.347955 118.08 
L 85.869773 118.08 
L 85.869773 35.839021 
L 84.347955 35.839021 
z
" style="fill:#ffffff;"/>
   </g>
   <g id="patch_24">
    <path clip-path="url(#pd6894afd52)" d="M 85.869773 118.08 
L 87.391591 118.08 
L 87.391591 35.40844 
L 85.869773 35.40844 
z
" style="fill:#ffffff;"/>
   </g>
   <g id="patch_25">
    <path clip-path="url(#pd6894afd52)" d="M 87.391591 118.08 
L 88.913409 118.08 
L 88.913409 29.487951 
L 87.391591 29.487951 
z
" style="fill:#ffffff;"/>
   </g>
   <g id="patch_26">
    <path clip-path="url(#pd6894afd52)" d="M 88.913409 118.08 
L 90.435227 118.08 
L 90.435227 24.643914 
L 88.913409 24.643914 
z
" style="fill:#ffffff;"/>
   </g>
   <g id="patch_27">
    <path clip-path="url(#pd6894afd52)" d="M 90.435227 118.08 
L 91.957045 118.08 
L 91.957045 29.272661 
L 90.435227 29.272661 
z
" style="fill:#ffffff;"/>
   </g>
   <g id="patch_28">
    <path clip-path="url(#pd6894afd52)" d="M 91.957045 118.08 
L 93.478864 118.08 
L 93.478864 25.935657 
L 91.957045 25.935657 
z
" style="fill:#ffffff;"/>
   </g>
   <g id="patch_29">
    <path clip-path="url(#pd6894afd52)" d="M 93.478864 118.08 
L 95.000682 118.08 
L 95.000682 29.595596 
L 93.478864 29.595596 
z
" style="fill:#ffffff;"/>
   </g>
   <g id="patch_30">
    <path clip-path="url(#pd6894afd52)" d="M 95.000682 118.08 
L 96.5225 118.08 
L 96.5225 22.92159 
L 95.000682 22.92159 
z
" style="fill:#ffffff;"/>
   </g>
   <g id="patch_31">
    <path clip-path="url(#pd6894afd52)" d="M 96.5225 118.08 
L 98.044318 118.08 
L 98.044318 26.258593 
L 96.5225 26.258593 
z
" style="fill:#ffffff;"/>
   </g>
   <g id="patch_32">
    <path clip-path="url(#pd6894afd52)" d="M 98.044318 118.08 
L 99.566136 118.08 
L 99.566136 17.539327 
L 98.044318 17.539327 
z
" style="fill:#ffffff;"/>
   </g>
   <g id="patch_33">
    <path clip-path="url(#pd6894afd52)" d="M 99.566136 118.08 
L 101.087955 118.08 
L 101.087955 23.567462 
L 99.566136 23.567462 
z
" style="fill:#ffffff;"/>
   </g>
   <g id="patch_34">
    <path clip-path="url(#pd6894afd52)" d="M 101.087955 118.08 
L 102.609773 118.08 
L 102.609773 18.83107 
L 101.087955 18.83107 
z
" style="fill:#ffffff;"/>
   </g>
   <g id="patch_35">
    <path clip-path="url(#pd6894afd52)" d="M 102.609773 118.08 
L 104.131591 118.08 
L 104.131591 23.567462 
L 102.609773 23.567462 
z
" style="fill:#ffffff;"/>
   </g>
   <g id="patch_36">
    <path clip-path="url(#pd6894afd52)" d="M 104.131591 118.08 
L 105.653409 118.08 
L 105.653409 22.060428 
L 104.131591 22.060428 
z
" style="fill:#ffffff;"/>
   </g>
   <g id="patch_37">
    <path clip-path="url(#pd6894afd52)" d="M 105.653409 118.08 
L 107.175227 118.08 
L 107.175227 19.046361 
L 105.653409 19.046361 
z
" style="fill:#ffffff;"/>
   </g>
   <g id="patch_38">
    <path clip-path="url(#pd6894afd52)" d="M 107.175227 118.08 
L 108.697045 118.08 
L 108.697045 22.598654 
L 107.175227 22.598654 
z
" style="fill:#ffffff;"/>
   </g>
   <g id="patch_39">
    <path clip-path="url(#pd6894afd52)" d="M 108.697045 118.08 
L 110.218864 118.08 
L 110.218864 22.491009 
L 108.697045 22.491009 
z
" style="fill:#ffffff;"/>
   </g>
   <g id="patch_40">
    <path clip-path="url(#pd6894afd52)" d="M 110.218864 118.08 
L 111.740682 118.08 
L 111.740682 16.247584 
L 110.218864 16.247584 
z
" style="fill:#ffffff;"/>
   </g>
   <g id="patch_41">
    <path clip-path="url(#pd6894afd52)" d="M 111.740682 118.08 
L 113.2625 118.08 
L 113.2625 20.230459 
L 111.740682 20.230459 
z
" style="fill:#ffffff;"/>
   </g>
   <g id="patch_42">
    <path clip-path="url(#pd6894afd52)" d="M 113.2625 118.08 
L 114.784318 118.08 
L 114.784318 29.380306 
L 113.2625 29.380306 
z
" style="fill:#ffffff;"/>
   </g>
   <g id="patch_43">
    <path clip-path="url(#pd6894afd52)" d="M 114.784318 118.08 
L 116.306136 118.08 
L 116.306136 23.890398 
L 114.784318 23.890398 
z
" style="fill:#ffffff;"/>
   </g>
   <g id="patch_44">
    <path clip-path="url(#pd6894afd52)" d="M 116.306136 118.08 
L 117.827955 118.08 
L 117.827955 24.96685 
L 116.306136 24.96685 
z
" style="fill:#ffffff;"/>
   </g>
   <g id="patch_45">
    <path clip-path="url(#pd6894afd52)" d="M 117.827955 118.08 
L 119.349773 118.08 
L 119.349773 28.088563 
L 117.827955 28.088563 
z
" style="fill:#ffffff;"/>
   </g>
   <g id="patch_46">
    <path clip-path="url(#pd6894afd52)" d="M 119.349773 118.08 
L 120.871591 118.08 
L 120.871591 25.935657 
L 119.349773 25.935657 
z
" style="fill:#ffffff;"/>
   </g>
   <g id="patch_47">
    <path clip-path="url(#pd6894afd52)" d="M 120.871591 118.08 
L 122.393409 118.08 
L 122.393409 24.320979 
L 120.871591 24.320979 
z
" style="fill:#ffffff;"/>
   </g>
   <g id="patch_48">
    <path clip-path="url(#pd6894afd52)" d="M 122.393409 118.08 
L 123.915227 118.08 
L 123.915227 26.258593 
L 122.393409 26.258593 
z
" style="fill:#ffffff;"/>
   </g>
   <g id="patch_49">
    <path clip-path="url(#pd6894afd52)" d="M 123.915227 118.08 
L 125.437045 118.08 
L 125.437045 29.380306 
L 123.915227 29.380306 
z
" style="fill:#ffffff;"/>
   </g>
   <g id="patch_50">
    <path clip-path="url(#pd6894afd52)" d="M 125.437045 118.08 
L 126.958864 118.08 
L 126.958864 24.643914 
L 125.437045 24.643914 
z
" style="fill:#ffffff;"/>
   </g>
   <g id="patch_51">
    <path clip-path="url(#pd6894afd52)" d="M 126.958864 118.08 
L 128.480682 118.08 
L 128.480682 30.994985 
L 126.958864 30.994985 
z
" style="fill:#ffffff;"/>
   </g>
   <g id="patch_52">
    <path clip-path="url(#pd6894afd52)" d="M 128.480682 118.08 
L 130.0025 118.08 
L 130.0025 30.349113 
L 128.480682 30.349113 
z
" style="fill:#ffffff;"/>
   </g>
   <g id="patch_53">
    <path clip-path="url(#pd6894afd52)" d="M 130.0025 118.08 
L 131.524318 118.08 
L 131.524318 32.824954 
L 130.0025 32.824954 
z
" style="fill:#ffffff;"/>
   </g>
   <g id="patch_54">
    <path clip-path="url(#pd6894afd52)" d="M 131.524318 118.08 
L 133.046136 118.08 
L 133.046136 35.40844 
L 131.524318 35.40844 
z
" style="fill:#ffffff;"/>
   </g>
   <g id="patch_55">
    <path clip-path="url(#pd6894afd52)" d="M 133.046136 118.08 
L 134.567955 118.08 
L 134.567955 36.700183 
L 133.046136 36.700183 
z
" style="fill:#ffffff;"/>
   </g>
   <g id="patch_56">
    <path clip-path="url(#pd6894afd52)" d="M 134.567955 118.08 
L 136.089773 118.08 
L 136.089773 36.269602 
L 134.567955 36.269602 
z
" style="fill:#ffffff;"/>
   </g>
   <g id="patch_57">
    <path clip-path="url(#pd6894afd52)" d="M 136.089773 118.08 
L 137.611591 118.08 
L 137.611591 39.606606 
L 136.089773 39.606606 
z
" style="fill:#ffffff;"/>
   </g>
   <g id="patch_58">
    <path clip-path="url(#pd6894afd52)" d="M 137.611591 118.08 
L 139.133409 118.08 
L 139.133409 43.58948 
L 137.611591 43.58948 
z
" style="fill:#ffffff;"/>
   </g>
   <g id="patch_59">
    <path clip-path="url(#pd6894afd52)" d="M 139.133409 118.08 
L 140.655227 118.08 
L 140.655227 36.161957 
L 139.133409 36.161957 
z
" style="fill:#ffffff;"/>
   </g>
   <g id="patch_60">
    <path clip-path="url(#pd6894afd52)" d="M 140.655227 118.08 
L 142.177045 118.08 
L 142.177045 38.637798 
L 140.655227 38.637798 
z
" style="fill:#ffffff;"/>
   </g>
   <g id="patch_61">
    <path clip-path="url(#pd6894afd52)" d="M 142.177045 118.08 
L 143.698864 118.08 
L 143.698864 47.249419 
L 142.177045 47.249419 
z
" style="fill:#ffffff;"/>
   </g>
   <g id="patch_62">
    <path clip-path="url(#pd6894afd52)" d="M 143.698864 118.08 
L 145.220682 118.08 
L 145.220682 45.096514 
L 143.698864 45.096514 
z
" style="fill:#ffffff;"/>
   </g>
   <g id="patch_63">
    <path clip-path="url(#pd6894afd52)" d="M 145.220682 118.08 
L 146.7425 118.08 
L 146.7425 43.697125 
L 145.220682 43.697125 
z
" style="fill:#ffffff;"/>
   </g>
   <g id="patch_64">
    <path clip-path="url(#pd6894afd52)" d="M 146.7425 118.08 
L 148.264318 118.08 
L 148.264318 47.249419 
L 146.7425 47.249419 
z
" style="fill:#ffffff;"/>
   </g>
   <g id="patch_65">
    <path clip-path="url(#pd6894afd52)" d="M 148.264318 118.08 
L 149.786136 118.08 
L 149.786136 50.694067 
L 148.264318 50.694067 
z
" style="fill:#ffffff;"/>
   </g>
   <g id="patch_66">
    <path clip-path="url(#pd6894afd52)" d="M 149.786136 118.08 
L 151.307955 118.08 
L 151.307955 53.277554 
L 149.786136 53.277554 
z
" style="fill:#ffffff;"/>
   </g>
   <g id="patch_67">
    <path clip-path="url(#pd6894afd52)" d="M 151.307955 118.08 
L 152.829773 118.08 
L 152.829773 54.03107 
L 151.307955 54.03107 
z
" style="fill:#ffffff;"/>
   </g>
   <g id="patch_68">
    <path clip-path="url(#pd6894afd52)" d="M 152.829773 118.08 
L 154.351591 118.08 
L 154.351591 57.583364 
L 152.829773 57.583364 
z
" style="fill:#ffffff;"/>
   </g>
   <g id="patch_69">
    <path clip-path="url(#pd6894afd52)" d="M 154.351591 118.08 
L 155.873409 118.08 
L 155.873409 58.013945 
L 154.351591 58.013945 
z
" style="fill:#ffffff;"/>
   </g>
   <g id="patch_70">
    <path clip-path="url(#pd6894afd52)" d="M 155.873409 118.08 
L 157.395227 118.08 
L 157.395227 64.580306 
L 155.873409 64.580306 
z
" style="fill:#ffffff;"/>
   </g>
   <g id="patch_71">
    <path clip-path="url(#pd6894afd52)" d="M 157.395227 118.08 
L 158.917045 118.08 
L 158.917045 64.580306 
L 157.395227 64.580306 
z
" style="fill:#ffffff;"/>
   </g>
   <g id="patch_72">
    <path clip-path="url(#pd6894afd52)" d="M 158.917045 118.08 
L 160.438864 118.08 
L 160.438864 70.285505 
L 158.917045 70.285505 
z
" style="fill:#ffffff;"/>
   </g>
   <g id="patch_73">
    <path clip-path="url(#pd6894afd52)" d="M 160.438864 118.08 
L 161.960682 118.08 
L 161.960682 69.209052 
L 160.438864 69.209052 
z
" style="fill:#ffffff;"/>
   </g>
   <g id="patch_74">
    <path clip-path="url(#pd6894afd52)" d="M 161.960682 118.08 
L 163.4825 118.08 
L 163.4825 74.160734 
L 161.960682 74.160734 
z
" style="fill:#ffffff;"/>
   </g>
   <g id="patch_75">
    <path clip-path="url(#pd6894afd52)" d="M 163.4825 118.08 
L 165.004318 118.08 
L 165.004318 77.820673 
L 163.4825 77.820673 
z
" style="fill:#ffffff;"/>
   </g>
   <g id="patch_76">
    <path clip-path="url(#pd6894afd52)" d="M 165.004318 118.08 
L 166.526136 118.08 
L 166.526136 80.511804 
L 165.004318 80.511804 
z
" style="fill:#ffffff;"/>
   </g>
   <g id="patch_77">
    <path clip-path="url(#pd6894afd52)" d="M 166.526136 118.08 
L 168.047955 118.08 
L 168.047955 85.678777 
L 166.526136 85.678777 
z
" style="fill:#ffffff;"/>
   </g>
   <g id="patch_78">
    <path clip-path="url(#pd6894afd52)" d="M 168.047955 118.08 
L 169.569773 118.08 
L 169.569773 84.92526 
L 168.047955 84.92526 
z
" style="fill:#ffffff;"/>
   </g>
   <g id="patch_79">
    <path clip-path="url(#pd6894afd52)" d="M 169.569773 118.08 
L 171.091591 118.08 
L 171.091591 87.401101 
L 169.569773 87.401101 
z
" style="fill:#ffffff;"/>
   </g>
   <g id="patch_80">
    <path clip-path="url(#pd6894afd52)" d="M 171.091591 118.08 
L 172.613409 118.08 
L 172.613409 90.415168 
L 171.091591 90.415168 
z
" style="fill:#ffffff;"/>
   </g>
   <g id="patch_81">
    <path clip-path="url(#pd6894afd52)" d="M 172.613409 118.08 
L 174.135227 118.08 
L 174.135227 91.922202 
L 172.613409 91.922202 
z
" style="fill:#ffffff;"/>
   </g>
   <g id="patch_82">
    <path clip-path="url(#pd6894afd52)" d="M 174.135227 118.08 
L 175.657045 118.08 
L 175.657045 95.797431 
L 174.135227 95.797431 
z
" style="fill:#ffffff;"/>
   </g>
   <g id="patch_83">
    <path clip-path="url(#pd6894afd52)" d="M 175.657045 118.08 
L 177.178864 118.08 
L 177.178864 97.627401 
L 175.657045 97.627401 
z
" style="fill:#ffffff;"/>
   </g>
   <g id="patch_84">
    <path clip-path="url(#pd6894afd52)" d="M 177.178864 118.08 
L 178.700682 118.08 
L 178.700682 97.519755 
L 177.178864 97.519755 
z
" style="fill:#ffffff;"/>
   </g>
   <g id="patch_85">
    <path clip-path="url(#pd6894afd52)" d="M 178.700682 118.08 
L 180.2225 118.08 
L 180.2225 103.117309 
L 178.700682 103.117309 
z
" style="fill:#ffffff;"/>
   </g>
   <g id="patch_86">
    <path clip-path="url(#pd6894afd52)" d="M 180.2225 118.08 
L 181.744318 118.08 
L 181.744318 106.992538 
L 180.2225 106.992538 
z
" style="fill:#ffffff;"/>
   </g>
   <g id="patch_87">
    <path clip-path="url(#pd6894afd52)" d="M 181.744318 118.08 
L 183.266136 118.08 
L 183.266136 107.8537 
L 181.744318 107.8537 
z
" style="fill:#ffffff;"/>
   </g>
   <g id="patch_88">
    <path clip-path="url(#pd6894afd52)" d="M 183.266136 118.08 
L 184.787955 118.08 
L 184.787955 108.714862 
L 183.266136 108.714862 
z
" style="fill:#ffffff;"/>
   </g>
   <g id="patch_89">
    <path clip-path="url(#pd6894afd52)" d="M 184.787955 118.08 
L 186.309773 118.08 
L 186.309773 110.437187 
L 184.787955 110.437187 
z
" style="fill:#ffffff;"/>
   </g>
   <g id="patch_90">
    <path clip-path="url(#pd6894afd52)" d="M 186.309773 118.08 
L 187.831591 118.08 
L 187.831591 112.913028 
L 186.309773 112.913028 
z
" style="fill:#ffffff;"/>
   </g>
   <g id="patch_91">
    <path clip-path="url(#pd6894afd52)" d="M 187.831591 118.08 
L 189.353409 118.08 
L 189.353409 114.204771 
L 187.831591 114.204771 
z
" style="fill:#ffffff;"/>
   </g>
   <g id="patch_92">
    <path clip-path="url(#pd6894afd52)" d="M 189.353409 118.08 
L 190.875227 118.08 
L 190.875227 115.173578 
L 189.353409 115.173578 
z
" style="fill:#ffffff;"/>
   </g>
   <g id="patch_93">
    <path clip-path="url(#pd6894afd52)" d="M 190.875227 118.08 
L 192.397045 118.08 
L 192.397045 116.03474 
L 190.875227 116.03474 
z
" style="fill:#ffffff;"/>
   </g>
   <g id="patch_94">
    <path clip-path="url(#pd6894afd52)" d="M 192.397045 118.08 
L 193.918864 118.08 
L 193.918864 116.357676 
L 192.397045 116.357676 
z
" style="fill:#ffffff;"/>
   </g>
   <g id="patch_95">
    <path clip-path="url(#pd6894afd52)" d="M 193.918864 118.08 
L 195.440682 118.08 
L 195.440682 117.111193 
L 193.918864 117.111193 
z
" style="fill:#ffffff;"/>
   </g>
   <g id="patch_96">
    <path clip-path="url(#pd6894afd52)" d="M 195.440682 118.08 
L 196.9625 118.08 
L 196.9625 116.357676 
L 195.440682 116.357676 
z
" style="fill:#ffffff;"/>
   </g>
   <g id="patch_97">
    <path clip-path="url(#pd6894afd52)" d="M 196.9625 118.08 
L 198.484318 118.08 
L 198.484318 117.003547 
L 196.9625 117.003547 
z
" style="fill:#ffffff;"/>
   </g>
   <g id="patch_98">
    <path clip-path="url(#pd6894afd52)" d="M 198.484318 118.08 
L 200.006136 118.08 
L 200.006136 117.218838 
L 198.484318 117.218838 
z
" style="fill:#ffffff;"/>
   </g>
   <g id="patch_99">
    <path clip-path="url(#pd6894afd52)" d="M 200.006136 118.08 
L 201.527955 118.08 
L 201.527955 117.972355 
L 200.006136 117.972355 
z
" style="fill:#ffffff;"/>
   </g>
   <g id="patch_100">
    <path clip-path="url(#pd6894afd52)" d="M 201.527955 118.08 
L 203.049773 118.08 
L 203.049773 117.972355 
L 201.527955 117.972355 
z
" style="fill:#ffffff;"/>
   </g>
   <g id="patch_101">
    <path clip-path="url(#pd6894afd52)" d="M 203.049773 118.08 
L 204.571591 118.08 
L 204.571591 117.972355 
L 203.049773 117.972355 
z
" style="fill:#ffffff;"/>
   </g>
   <g id="patch_102">
    <path clip-path="url(#pd6894afd52)" d="M 204.571591 118.08 
L 206.093409 118.08 
L 206.093409 117.972355 
L 204.571591 117.972355 
z
" style="fill:#ffffff;"/>
   </g>
   <g id="patch_103">
    <path clip-path="url(#pd6894afd52)" d="M 53.95784 118.08 
L 55.474366 118.08 
L 55.474366 117.864709 
L 53.95784 117.864709 
z
" style="fill:#ffffff;"/>
   </g>
   <g id="patch_104">
    <path clip-path="url(#pd6894afd52)" d="M 55.474366 118.08 
L 56.990891 118.08 
L 56.990891 117.111193 
L 55.474366 117.111193 
z
" style="fill:#ffffff;"/>
   </g>
   <g id="patch_105">
    <path clip-path="url(#pd6894afd52)" d="M 56.990891 118.08 
L 58.507416 118.08 
L 58.507416 116.572966 
L 56.990891 116.572966 
z
" style="fill:#ffffff;"/>
   </g>
   <g id="patch_106">
    <path clip-path="url(#pd6894afd52)" d="M 58.507416 118.08 
L 60.023942 118.08 
L 60.023942 115.281223 
L 58.507416 115.281223 
z
" style="fill:#ffffff;"/>
   </g>
   <g id="patch_107">
    <path clip-path="url(#pd6894afd52)" d="M 60.023942 118.08 
L 61.540467 118.08 
L 61.540467 112.159511 
L 60.023942 112.159511 
z
" style="fill:#ffffff;"/>
   </g>
   <g id="patch_108">
    <path clip-path="url(#pd6894afd52)" d="M 61.540467 118.08 
L 63.056993 118.08 
L 63.056993 108.930153 
L 61.540467 108.930153 
z
" style="fill:#ffffff;"/>
   </g>
   <g id="patch_109">
    <path clip-path="url(#pd6894afd52)" d="M 63.056993 118.08 
L 64.573518 118.08 
L 64.573518 104.947278 
L 63.056993 104.947278 
z
" style="fill:#ffffff;"/>
   </g>
   <g id="patch_110">
    <path clip-path="url(#pd6894afd52)" d="M 64.573518 118.08 
L 66.090043 118.08 
L 66.090043 101.825566 
L 64.573518 101.825566 
z
" style="fill:#ffffff;"/>
   </g>
   <g id="patch_111">
    <path clip-path="url(#pd6894afd52)" d="M 66.090043 118.08 
L 67.606569 118.08 
L 67.606569 94.290398 
L 66.090043 94.290398 
z
" style="fill:#ffffff;"/>
   </g>
   <g id="patch_112">
    <path clip-path="url(#pd6894afd52)" d="M 67.606569 118.08 
L 69.123094 118.08 
L 69.123094 90.953394 
L 67.606569 90.953394 
z
" style="fill:#ffffff;"/>
   </g>
   <g id="patch_113">
    <path clip-path="url(#pd6894afd52)" d="M 69.123094 118.08 
L 70.639619 118.08 
L 70.639619 84.709969 
L 69.123094 84.709969 
z
" style="fill:#ffffff;"/>
   </g>
   <g id="patch_114">
    <path clip-path="url(#pd6894afd52)" d="M 70.639619 118.08 
L 72.156145 118.08 
L 72.156145 77.174801 
L 70.639619 77.174801 
z
" style="fill:#ffffff;"/>
   </g>
   <g id="patch_115">
    <path clip-path="url(#pd6894afd52)" d="M 72.156145 118.08 
L 73.67267 118.08 
L 73.67267 76.851865 
L 72.156145 76.851865 
z
" style="fill:#ffffff;"/>
   </g>
   <g id="patch_116">
    <path clip-path="url(#pd6894afd52)" d="M 73.67267 118.08 
L 75.189196 118.08 
L 75.189196 72.546055 
L 73.67267 72.546055 
z
" style="fill:#ffffff;"/>
   </g>
   <g id="patch_117">
    <path clip-path="url(#pd6894afd52)" d="M 75.189196 118.08 
L 76.705721 118.08 
L 76.705721 58.659817 
L 75.189196 58.659817 
z
" style="fill:#ffffff;"/>
   </g>
   <g id="patch_118">
    <path clip-path="url(#pd6894afd52)" d="M 76.705721 118.08 
L 78.222246 118.08 
L 78.222246 60.274495 
L 76.705721 60.274495 
z
" style="fill:#ffffff;"/>
   </g>
   <g id="patch_119">
    <path clip-path="url(#pd6894afd52)" d="M 78.222246 118.08 
L 79.738772 118.08 
L 79.738772 53.923425 
L 78.222246 53.923425 
z
" style="fill:#ffffff;"/>
   </g>
   <g id="patch_120">
    <path clip-path="url(#pd6894afd52)" d="M 79.738772 118.08 
L 81.255297 118.08 
L 81.255297 51.878165 
L 79.738772 51.878165 
z
" style="fill:#ffffff;"/>
   </g>
   <g id="patch_121">
    <path clip-path="url(#pd6894afd52)" d="M 81.255297 118.08 
L 82.771822 118.08 
L 82.771822 48.756453 
L 81.255297 48.756453 
z
" style="fill:#ffffff;"/>
   </g>
   <g id="patch_122">
    <path clip-path="url(#pd6894afd52)" d="M 82.771822 118.08 
L 84.288348 118.08 
L 84.288348 41.759511 
L 82.771822 41.759511 
z
" style="fill:#ffffff;"/>
   </g>
   <g id="patch_123">
    <path clip-path="url(#pd6894afd52)" d="M 84.288348 118.08 
L 85.804873 118.08 
L 85.804873 39.821896 
L 84.288348 39.821896 
z
" style="fill:#ffffff;"/>
   </g>
   <g id="patch_124">
    <path clip-path="url(#pd6894afd52)" d="M 85.804873 118.08 
L 87.321399 118.08 
L 87.321399 32.609664 
L 85.804873 32.609664 
z
" style="fill:#ffffff;"/>
   </g>
   <g id="patch_125">
    <path clip-path="url(#pd6894afd52)" d="M 87.321399 118.08 
L 88.837924 118.08 
L 88.837924 24.320979 
L 87.321399 24.320979 
z
" style="fill:#ffffff;"/>
   </g>
   <g id="patch_126">
    <path clip-path="url(#pd6894afd52)" d="M 88.837924 118.08 
L 90.354449 118.08 
L 90.354449 32.394373 
L 88.837924 32.394373 
z
" style="fill:#ffffff;"/>
   </g>
   <g id="patch_127">
    <path clip-path="url(#pd6894afd52)" d="M 90.354449 118.08 
L 91.870975 118.08 
L 91.870975 28.949725 
L 90.354449 28.949725 
z
" style="fill:#ffffff;"/>
   </g>
   <g id="patch_128">
    <path clip-path="url(#pd6894afd52)" d="M 91.870975 118.08 
L 93.3875 118.08 
L 93.3875 33.686116 
L 91.870975 33.686116 
z
" style="fill:#ffffff;"/>
   </g>
   <g id="patch_129">
    <path clip-path="url(#pd6894afd52)" d="M 93.3875 118.08 
L 94.904025 118.08 
L 94.904025 25.720367 
L 93.3875 25.720367 
z
" style="fill:#ffffff;"/>
   </g>
   <g id="patch_130">
    <path clip-path="url(#pd6894afd52)" d="M 94.904025 118.08 
L 96.420551 118.08 
L 96.420551 24.320979 
L 94.904025 24.320979 
z
" style="fill:#ffffff;"/>
   </g>
   <g id="patch_131">
    <path clip-path="url(#pd6894afd52)" d="M 96.420551 118.08 
L 97.937076 118.08 
L 97.937076 17.216391 
L 96.420551 17.216391 
z
" style="fill:#ffffff;"/>
   </g>
   <g id="patch_132">
    <path clip-path="url(#pd6894afd52)" d="M 97.937076 118.08 
L 99.453602 118.08 
L 99.453602 16.78581 
L 97.937076 16.78581 
z
" style="fill:#ffffff;"/>
   </g>
   <g id="patch_133">
    <path clip-path="url(#pd6894afd52)" d="M 99.453602 118.08 
L 100.970127 118.08 
L 100.970127 18.83107 
L 99.453602 18.83107 
z
" style="fill:#ffffff;"/>
   </g>
   <g id="patch_134">
    <path clip-path="url(#pd6894afd52)" d="M 100.970127 118.08 
L 102.486652 118.08 
L 102.486652 18.292844 
L 100.970127 18.292844 
z
" style="fill:#ffffff;"/>
   </g>
   <g id="patch_135">
    <path clip-path="url(#pd6894afd52)" d="M 102.486652 118.08 
L 104.003178 118.08 
L 104.003178 18.938716 
L 102.486652 18.938716 
z
" style="fill:#ffffff;"/>
   </g>
   <g id="patch_136">
    <path clip-path="url(#pd6894afd52)" d="M 104.003178 118.08 
L 105.519703 118.08 
L 105.519703 13.018226 
L 104.003178 13.018226 
z
" style="fill:#ffffff;"/>
   </g>
   <g id="patch_137">
    <path clip-path="url(#pd6894afd52)" d="M 105.519703 118.08 
L 107.036228 118.08 
L 107.036228 18.508135 
L 105.519703 18.508135 
z
" style="fill:#ffffff;"/>
   </g>
   <g id="patch_138">
    <path clip-path="url(#pd6894afd52)" d="M 107.036228 118.08 
L 108.552754 118.08 
L 108.552754 12.48 
L 107.036228 12.48 
z
" style="fill:#ffffff;"/>
   </g>
   <g id="patch_139">
    <path clip-path="url(#pd6894afd52)" d="M 108.552754 118.08 
L 110.069279 118.08 
L 110.069279 21.199266 
L 108.552754 21.199266 
z
" style="fill:#ffffff;"/>
   </g>
   <g id="patch_140">
    <path clip-path="url(#pd6894afd52)" d="M 110.069279 118.08 
L 111.585805 118.08 
L 111.585805 24.105688 
L 110.069279 24.105688 
z
" style="fill:#ffffff;"/>
   </g>
   <g id="patch_141">
    <path clip-path="url(#pd6894afd52)" d="M 111.585805 118.08 
L 113.10233 118.08 
L 113.10233 16.893456 
L 111.585805 16.893456 
z
" style="fill:#ffffff;"/>
   </g>
   <g id="patch_142">
    <path clip-path="url(#pd6894afd52)" d="M 113.10233 118.08 
L 114.618855 118.08 
L 114.618855 22.813945 
L 113.10233 22.813945 
z
" style="fill:#ffffff;"/>
   </g>
   <g id="patch_143">
    <path clip-path="url(#pd6894afd52)" d="M 114.618855 118.08 
L 116.135381 118.08 
L 116.135381 20.87633 
L 114.618855 20.87633 
z
" style="fill:#ffffff;"/>
   </g>
   <g id="patch_144">
    <path clip-path="url(#pd6894afd52)" d="M 116.135381 118.08 
L 117.651906 118.08 
L 117.651906 27.765627 
L 116.135381 27.765627 
z
" style="fill:#ffffff;"/>
   </g>
   <g id="patch_145">
    <path clip-path="url(#pd6894afd52)" d="M 117.651906 118.08 
L 119.168431 118.08 
L 119.168431 21.414557 
L 117.651906 21.414557 
z
" style="fill:#ffffff;"/>
   </g>
   <g id="patch_146">
    <path clip-path="url(#pd6894afd52)" d="M 119.168431 118.08 
L 120.684957 118.08 
L 120.684957 24.320979 
L 119.168431 24.320979 
z
" style="fill:#ffffff;"/>
   </g>
   <g id="patch_147">
    <path clip-path="url(#pd6894afd52)" d="M 120.684957 118.08 
L 122.201482 118.08 
L 122.201482 24.75156 
L 120.684957 24.75156 
z
" style="fill:#ffffff;"/>
   </g>
   <g id="patch_148">
    <path clip-path="url(#pd6894afd52)" d="M 122.201482 118.08 
L 123.718008 118.08 
L 123.718008 27.657982 
L 122.201482 27.657982 
z
" style="fill:#ffffff;"/>
   </g>
   <g id="patch_149">
    <path clip-path="url(#pd6894afd52)" d="M 123.718008 118.08 
L 125.234533 118.08 
L 125.234533 27.01211 
L 123.718008 27.01211 
z
" style="fill:#ffffff;"/>
   </g>
   <g id="patch_150">
    <path clip-path="url(#pd6894afd52)" d="M 125.234533 118.08 
L 126.751058 118.08 
L 126.751058 22.92159 
L 125.234533 22.92159 
z
" style="fill:#ffffff;"/>
   </g>
   <g id="patch_151">
    <path clip-path="url(#pd6894afd52)" d="M 126.751058 118.08 
L 128.267584 118.08 
L 128.267584 35.623731 
L 126.751058 35.623731 
z
" style="fill:#ffffff;"/>
   </g>
   <g id="patch_152">
    <path clip-path="url(#pd6894afd52)" d="M 128.267584 118.08 
L 129.784109 118.08 
L 129.784109 26.258593 
L 128.267584 26.258593 
z
" style="fill:#ffffff;"/>
   </g>
   <g id="patch_153">
    <path clip-path="url(#pd6894afd52)" d="M 129.784109 118.08 
L 131.300634 118.08 
L 131.300634 27.119755 
L 129.784109 27.119755 
z
" style="fill:#ffffff;"/>
   </g>
   <g id="patch_154">
    <path clip-path="url(#pd6894afd52)" d="M 131.300634 118.08 
L 132.81716 118.08 
L 132.81716 30.026177 
L 131.300634 30.026177 
z
" style="fill:#ffffff;"/>
   </g>
   <g id="patch_155">
    <path clip-path="url(#pd6894afd52)" d="M 132.81716 118.08 
L 134.333685 118.08 
L 134.333685 33.040245 
L 132.81716 33.040245 
z
" style="fill:#ffffff;"/>
   </g>
   <g id="patch_156">
    <path clip-path="url(#pd6894afd52)" d="M 134.333685 118.08 
L 135.850211 118.08 
L 135.850211 37.023119 
L 134.333685 37.023119 
z
" style="fill:#ffffff;"/>
   </g>
   <g id="patch_157">
    <path clip-path="url(#pd6894afd52)" d="M 135.850211 118.08 
L 137.366736 118.08 
L 137.366736 32.932599 
L 135.850211 32.932599 
z
" style="fill:#ffffff;"/>
   </g>
   <g id="patch_158">
    <path clip-path="url(#pd6894afd52)" d="M 137.366736 118.08 
L 138.883261 118.08 
L 138.883261 36.377248 
L 137.366736 36.377248 
z
" style="fill:#ffffff;"/>
   </g>
   <g id="patch_159">
    <path clip-path="url(#pd6894afd52)" d="M 138.883261 118.08 
L 140.399787 118.08 
L 140.399787 42.943609 
L 138.883261 42.943609 
z
" style="fill:#ffffff;"/>
   </g>
   <g id="patch_160">
    <path clip-path="url(#pd6894afd52)" d="M 140.399787 118.08 
L 141.916312 118.08 
L 141.916312 38.853089 
L 140.399787 38.853089 
z
" style="fill:#ffffff;"/>
   </g>
   <g id="patch_161">
    <path clip-path="url(#pd6894afd52)" d="M 141.916312 118.08 
L 143.432837 118.08 
L 143.432837 37.23841 
L 141.916312 37.23841 
z
" style="fill:#ffffff;"/>
   </g>
   <g id="patch_162">
    <path clip-path="url(#pd6894afd52)" d="M 143.432837 118.08 
L 144.949363 118.08 
L 144.949363 39.606606 
L 143.432837 39.606606 
z
" style="fill:#ffffff;"/>
   </g>
   <g id="patch_163">
    <path clip-path="url(#pd6894afd52)" d="M 144.949363 118.08 
L 146.465888 118.08 
L 146.465888 40.575413 
L 144.949363 40.575413 
z
" style="fill:#ffffff;"/>
   </g>
   <g id="patch_164">
    <path clip-path="url(#pd6894afd52)" d="M 146.465888 118.08 
L 147.982414 118.08 
L 147.982414 43.804771 
L 146.465888 43.804771 
z
" style="fill:#ffffff;"/>
   </g>
   <g id="patch_165">
    <path clip-path="url(#pd6894afd52)" d="M 147.982414 118.08 
L 149.498939 118.08 
L 149.498939 44.558287 
L 147.982414 44.558287 
z
" style="fill:#ffffff;"/>
   </g>
   <g id="patch_166">
    <path clip-path="url(#pd6894afd52)" d="M 149.498939 118.08 
L 151.015464 118.08 
L 151.015464 46.280612 
L 149.498939 46.280612 
z
" style="fill:#ffffff;"/>
   </g>
   <g id="patch_167">
    <path clip-path="url(#pd6894afd52)" d="M 151.015464 118.08 
L 152.53199 118.08 
L 152.53199 51.124648 
L 151.015464 51.124648 
z
" style="fill:#ffffff;"/>
   </g>
   <g id="patch_168">
    <path clip-path="url(#pd6894afd52)" d="M 152.53199 118.08 
L 154.048515 118.08 
L 154.048515 56.399266 
L 152.53199 56.399266 
z
" style="fill:#ffffff;"/>
   </g>
   <g id="patch_169">
    <path clip-path="url(#pd6894afd52)" d="M 154.048515 118.08 
L 155.56504 118.08 
L 155.56504 54.354006 
L 154.048515 54.354006 
z
" style="fill:#ffffff;"/>
   </g>
   <g id="patch_170">
    <path clip-path="url(#pd6894afd52)" d="M 155.56504 118.08 
L 157.081566 118.08 
L 157.081566 57.260428 
L 155.56504 57.260428 
z
" style="fill:#ffffff;"/>
   </g>
   <g id="patch_171">
    <path clip-path="url(#pd6894afd52)" d="M 157.081566 118.08 
L 158.598091 118.08 
L 158.598091 63.719144 
L 157.081566 63.719144 
z
" style="fill:#ffffff;"/>
   </g>
   <g id="patch_172">
    <path clip-path="url(#pd6894afd52)" d="M 158.598091 118.08 
L 160.114617 118.08 
L 160.114617 64.149725 
L 158.598091 64.149725 
z
" style="fill:#ffffff;"/>
   </g>
   <g id="patch_173">
    <path clip-path="url(#pd6894afd52)" d="M 160.114617 118.08 
L 161.631142 118.08 
L 161.631142 63.719144 
L 160.114617 63.719144 
z
" style="fill:#ffffff;"/>
   </g>
   <g id="patch_174">
    <path clip-path="url(#pd6894afd52)" d="M 161.631142 118.08 
L 163.147667 118.08 
L 163.147667 70.177859 
L 161.631142 70.177859 
z
" style="fill:#ffffff;"/>
   </g>
   <g id="patch_175">
    <path clip-path="url(#pd6894afd52)" d="M 163.147667 118.08 
L 164.664193 118.08 
L 164.664193 70.070214 
L 163.147667 70.070214 
z
" style="fill:#ffffff;"/>
   </g>
   <g id="patch_176">
    <path clip-path="url(#pd6894afd52)" d="M 164.664193 118.08 
L 166.180718 118.08 
L 166.180718 73.837798 
L 164.664193 73.837798 
z
" style="fill:#ffffff;"/>
   </g>
   <g id="patch_177">
    <path clip-path="url(#pd6894afd52)" d="M 166.180718 118.08 
L 167.697243 118.08 
L 167.697243 79.220061 
L 166.180718 79.220061 
z
" style="fill:#ffffff;"/>
   </g>
   <g id="patch_178">
    <path clip-path="url(#pd6894afd52)" d="M 167.697243 118.08 
L 169.213769 118.08 
L 169.213769 80.83474 
L 167.697243 80.83474 
z
" style="fill:#ffffff;"/>
   </g>
   <g id="patch_179">
    <path clip-path="url(#pd6894afd52)" d="M 169.213769 118.08 
L 170.730294 118.08 
L 170.730294 88.477554 
L 169.213769 88.477554 
z
" style="fill:#ffffff;"/>
   </g>
   <g id="patch_180">
    <path clip-path="url(#pd6894afd52)" d="M 170.730294 118.08 
L 172.24682 118.08 
L 172.24682 88.585199 
L 170.730294 88.585199 
z
" style="fill:#ffffff;"/>
   </g>
   <g id="patch_181">
    <path clip-path="url(#pd6894afd52)" d="M 172.24682 118.08 
L 173.763345 118.08 
L 173.763345 91.706911 
L 172.24682 91.706911 
z
" style="fill:#ffffff;"/>
   </g>
   <g id="patch_182">
    <path clip-path="url(#pd6894afd52)" d="M 173.763345 118.08 
L 175.27987 118.08 
L 175.27987 94.828624 
L 173.763345 94.828624 
z
" style="fill:#ffffff;"/>
   </g>
   <g id="patch_183">
    <path clip-path="url(#pd6894afd52)" d="M 175.27987 118.08 
L 176.796396 118.08 
L 176.796396 95.36685 
L 175.27987 95.36685 
z
" style="fill:#ffffff;"/>
   </g>
   <g id="patch_184">
    <path clip-path="url(#pd6894afd52)" d="M 176.796396 118.08 
L 178.312921 118.08 
L 178.312921 99.565015 
L 176.796396 99.565015 
z
" style="fill:#ffffff;"/>
   </g>
   <g id="patch_185">
    <path clip-path="url(#pd6894afd52)" d="M 178.312921 118.08 
L 179.829446 118.08 
L 179.829446 102.471437 
L 178.312921 102.471437 
z
" style="fill:#ffffff;"/>
   </g>
   <g id="patch_186">
    <path clip-path="url(#pd6894afd52)" d="M 179.829446 118.08 
L 181.345972 118.08 
L 181.345972 104.624343 
L 179.829446 104.624343 
z
" style="fill:#ffffff;"/>
   </g>
   <g id="patch_187">
    <path clip-path="url(#pd6894afd52)" d="M 181.345972 118.08 
L 182.862497 118.08 
L 182.862497 108.176636 
L 181.345972 108.176636 
z
" style="fill:#ffffff;"/>
   </g>
   <g id="patch_188">
    <path clip-path="url(#pd6894afd52)" d="M 182.862497 118.08 
L 184.379023 118.08 
L 184.379023 109.145443 
L 182.862497 109.145443 
z
" style="fill:#ffffff;"/>
   </g>
   <g id="patch_189">
    <path clip-path="url(#pd6894afd52)" d="M 184.379023 118.08 
L 185.895548 118.08 
L 185.895548 110.760122 
L 184.379023 110.760122 
z
" style="fill:#ffffff;"/>
   </g>
   <g id="patch_190">
    <path clip-path="url(#pd6894afd52)" d="M 185.895548 118.08 
L 187.412073 118.08 
L 187.412073 112.697737 
L 185.895548 112.697737 
z
" style="fill:#ffffff;"/>
   </g>
   <g id="patch_191">
    <path clip-path="url(#pd6894afd52)" d="M 187.412073 118.08 
L 188.928599 118.08 
L 188.928599 111.621284 
L 187.412073 111.621284 
z
" style="fill:#ffffff;"/>
   </g>
   <g id="patch_192">
    <path clip-path="url(#pd6894afd52)" d="M 188.928599 118.08 
L 190.445124 118.08 
L 190.445124 113.451254 
L 188.928599 113.451254 
z
" style="fill:#ffffff;"/>
   </g>
   <g id="patch_193">
    <path clip-path="url(#pd6894afd52)" d="M 190.445124 118.08 
L 191.961649 118.08 
L 191.961649 115.281223 
L 190.445124 115.281223 
z
" style="fill:#ffffff;"/>
   </g>
   <g id="patch_194">
    <path clip-path="url(#pd6894afd52)" d="M 191.961649 118.08 
L 193.478175 118.08 
L 193.478175 115.711804 
L 191.961649 115.711804 
z
" style="fill:#ffffff;"/>
   </g>
   <g id="patch_195">
    <path clip-path="url(#pd6894afd52)" d="M 193.478175 118.08 
L 194.9947 118.08 
L 194.9947 115.81945 
L 193.478175 115.81945 
z
" style="fill:#ffffff;"/>
   </g>
   <g id="patch_196">
    <path clip-path="url(#pd6894afd52)" d="M 194.9947 118.08 
L 196.511226 118.08 
L 196.511226 117.218838 
L 194.9947 117.218838 
z
" style="fill:#ffffff;"/>
   </g>
   <g id="patch_197">
    <path clip-path="url(#pd6894afd52)" d="M 196.511226 118.08 
L 198.027751 118.08 
L 198.027751 117.649419 
L 196.511226 117.649419 
z
" style="fill:#ffffff;"/>
   </g>
   <g id="patch_198">
    <path clip-path="url(#pd6894afd52)" d="M 198.027751 118.08 
L 199.544276 118.08 
L 199.544276 118.08 
L 198.027751 118.08 
z
" style="fill:#ffffff;"/>
   </g>
   <g id="patch_199">
    <path clip-path="url(#pd6894afd52)" d="M 199.544276 118.08 
L 201.060802 118.08 
L 201.060802 117.864709 
L 199.544276 117.864709 
z
" style="fill:#ffffff;"/>
   </g>
   <g id="patch_200">
    <path clip-path="url(#pd6894afd52)" d="M 201.060802 118.08 
L 202.577327 118.08 
L 202.577327 117.972355 
L 201.060802 117.972355 
z
" style="fill:#ffffff;"/>
   </g>
   <g id="patch_201">
    <path clip-path="url(#pd6894afd52)" d="M 202.577327 118.08 
L 204.093853 118.08 
L 204.093853 118.08 
L 202.577327 118.08 
z
" style="fill:#ffffff;"/>
   </g>
   <g id="patch_202">
    <path clip-path="url(#pd6894afd52)" d="M 204.093853 118.08 
L 205.610378 118.08 
L 205.610378 117.972355 
L 204.093853 117.972355 
z
" style="fill:#ffffff;"/>
   </g>
   <g id="matplotlib.axis_1">
    <g id="xtick_1">
     <g id="line2d_1">
      <defs>
       <path d="M 0 0 
L 0 3.5 
" id="mfe253bd712" style="stroke:#000000;stroke-width:1.5;"/>
      </defs>
      <g>
       <use style="stroke:#000000;stroke-width:1.5;" x="76.81942" xlink:href="#mfe253bd712" y="118.08"/>
      </g>
     </g>
     <g id="text_1">
      <text style="font-family:DejaVu Sans;font-size:8px;font-stretch:normal;font-style:normal;font-weight:normal;text-anchor:middle;" transform="rotate(-0, 76.81942, 131.15875)" x="76.81942" y="131.15875">1</text>
     </g>
    </g>
    <g id="xtick_2">
     <g id="line2d_2">
      <g>
       <use style="stroke:#000000;stroke-width:1.5;" x="107.654178" xlink:href="#mfe253bd712" y="118.08"/>
      </g>
     </g>
     <g id="text_2">
      <text style="font-family:DejaVu Sans;font-size:8px;font-stretch:normal;font-style:normal;font-weight:normal;text-anchor:middle;" transform="rotate(-0, 107.654178, 131.15875)" x="107.654178" y="131.15875">2</text>
     </g>
    </g>
    <g id="xtick_3">
     <g id="line2d_3">
      <g>
       <use style="stroke:#000000;stroke-width:1.5;" x="138.488936" xlink:href="#mfe253bd712" y="118.08"/>
      </g>
     </g>
     <g id="text_3">
      <text style="font-family:DejaVu Sans;font-size:8px;font-stretch:normal;font-style:normal;font-weight:normal;text-anchor:middle;" transform="rotate(-0, 138.488936, 131.15875)" x="138.488936" y="131.15875">3</text>
     </g>
    </g>
    <g id="xtick_4">
     <g id="line2d_4">
      <g>
       <use style="stroke:#000000;stroke-width:1.5;" x="169.323694" xlink:href="#mfe253bd712" y="118.08"/>
      </g>
     </g>
     <g id="text_4">
      <text style="font-family:DejaVu Sans;font-size:8px;font-stretch:normal;font-style:normal;font-weight:normal;text-anchor:middle;" transform="rotate(-0, 169.323694, 131.15875)" x="169.323694" y="131.15875">4</text>
     </g>
    </g>
    <g id="xtick_5">
     <g id="line2d_5">
      <g>
       <use style="stroke:#000000;stroke-width:1.5;" x="200.158452" xlink:href="#mfe253bd712" y="118.08"/>
      </g>
     </g>
     <g id="text_5">
      <text style="font-family:DejaVu Sans;font-size:8px;font-stretch:normal;font-style:normal;font-weight:normal;text-anchor:middle;" transform="rotate(-0, 200.158452, 131.15875)" x="200.158452" y="131.15875">5</text>
     </g>
    </g>
    <g id="text_6">
     <!-- Energy / spike  $\mu J$ -->
     <g transform="translate(95.2425 142.9025)">
      <text>
       <tspan style="font-family:DejaVu Sans;font-size:8px;font-style:book;font-weight:book;" x="0 5.054688 10.125 15.046875 18.335938 23.414062 28.148438 30.691406 33.386719 35.929688 40.097656 45.175781 47.398438 52.03125 56.953125 59.496094 62.039062 67.128906" y="-0.921875">Energy / spike  μJ</tspan>
      </text>
     </g>
    </g>
   </g>
   <g id="matplotlib.axis_2">
    <g id="ytick_1">
     <g id="line2d_6">
      <defs>
       <path d="M 0 0 
L -3.5 0 
" id="mdb47004349" style="stroke:#000000;stroke-width:1.5;"/>
      </defs>
      <g>
       <use style="stroke:#000000;stroke-width:1.5;" x="46.3025" xlink:href="#mdb47004349" y="118.08"/>
      </g>
     </g>
     <g id="text_7">
      <text style="font-family:DejaVu Sans;font-size:8px;font-stretch:normal;font-style:normal;font-weight:normal;text-anchor:end;" transform="rotate(-0, 39.3025, 121.119375)" x="39.3025" y="121.119375">0</text>
     </g>
    </g>
    <g id="ytick_2">
     <g id="line2d_7">
      <g>
       <use style="stroke:#000000;stroke-width:1.5;" x="46.3025" xlink:href="#mdb47004349" y="96.550948"/>
      </g>
     </g>
     <g id="text_8">
      <text style="font-family:DejaVu Sans;font-size:8px;font-stretch:normal;font-style:normal;font-weight:normal;text-anchor:end;" transform="rotate(-0, 39.3025, 99.590323)" x="39.3025" y="99.590323">200</text>
     </g>
    </g>
    <g id="ytick_3">
     <g id="line2d_8">
      <g>
       <use style="stroke:#000000;stroke-width:1.5;" x="46.3025" xlink:href="#mdb47004349" y="75.021896"/>
      </g>
     </g>
     <g id="text_9">
      <text style="font-family:DejaVu Sans;font-size:8px;font-stretch:normal;font-style:normal;font-weight:normal;text-anchor:end;" transform="rotate(-0, 39.3025, 78.061271)" x="39.3025" y="78.061271">400</text>
     </g>
    </g>
    <g id="ytick_4">
     <g id="line2d_9">
      <g>
       <use style="stroke:#000000;stroke-width:1.5;" x="46.3025" xlink:href="#mdb47004349" y="53.492844"/>
      </g>
     </g>
     <g id="text_10">
      <text style="font-family:DejaVu Sans;font-size:8px;font-stretch:normal;font-style:normal;font-weight:normal;text-anchor:end;" transform="rotate(-0, 39.3025, 56.532219)" x="39.3025" y="56.532219">600</text>
     </g>
    </g>
    <g id="ytick_5">
     <g id="line2d_10">
      <g>
       <use style="stroke:#000000;stroke-width:1.5;" x="46.3025" xlink:href="#mdb47004349" y="31.963792"/>
      </g>
     </g>
     <g id="text_11">
      <text style="font-family:DejaVu Sans;font-size:8px;font-stretch:normal;font-style:normal;font-weight:normal;text-anchor:end;" transform="rotate(-0, 39.3025, 35.003167)" x="39.3025" y="35.003167">800</text>
     </g>
    </g>
    <g id="ytick_6">
     <g id="line2d_11">
      <g>
       <use style="stroke:#000000;stroke-width:1.5;" x="46.3025" xlink:href="#mdb47004349" y="10.43474"/>
      </g>
     </g>
     <g id="text_12">
      <text style="font-family:DejaVu Sans;font-size:8px;font-stretch:normal;font-style:normal;font-weight:normal;text-anchor:end;" transform="rotate(-0, 39.3025, 13.474115)" x="39.3025" y="13.474115">1000</text>
     </g>
    </g>
    <g id="text_13">
     <text style="font-family:DejaVu Sans;font-size:8px;font-stretch:normal;font-style:normal;font-weight:normal;text-anchor:middle;" transform="rotate(-90, 13.27875, 62.64)" x="13.27875" y="62.64">Count</text>
    </g>
   </g>
   <g id="line2d_12">
    <path clip-path="url(#pd6894afd52)" d="M 54.6725 116.250031 
L 56.194318 114.420061 
L 57.716136 110.975413 
L 59.237955 106.346667 
L 60.759773 100.964404 
L 62.281591 96.873884 
L 63.803409 94.828624 
L 65.325227 89.338716 
L 66.847045 86.324648 
L 68.368864 76.52893 
L 69.890682 71.254312 
L 71.4125 69.962569 
L 72.934318 63.934434 
L 74.456136 60.16685 
L 75.977955 56.722202 
L 77.499773 48.110581 
L 79.021591 50.371131 
L 80.543409 46.388257 
L 82.065227 42.513028 
L 83.587045 38.422508 
L 85.108864 35.839021 
L 86.630682 35.40844 
L 88.1525 29.487951 
L 89.674318 24.643914 
L 91.196136 29.272661 
L 92.717955 25.935657 
L 94.239773 29.595596 
L 95.761591 22.92159 
L 97.283409 26.258593 
L 98.805227 17.539327 
L 100.327045 23.567462 
L 101.848864 18.83107 
L 103.370682 23.567462 
L 104.8925 22.060428 
L 106.414318 19.046361 
L 107.936136 22.598654 
L 109.457955 22.491009 
L 110.979773 16.247584 
L 112.501591 20.230459 
L 114.023409 29.380306 
L 115.545227 23.890398 
L 117.067045 24.96685 
L 118.588864 28.088563 
L 120.110682 25.935657 
L 121.6325 24.320979 
L 123.154318 26.258593 
L 124.676136 29.380306 
L 126.197955 24.643914 
L 127.719773 30.994985 
L 129.241591 30.349113 
L 130.763409 32.824954 
L 132.285227 35.40844 
L 133.807045 36.700183 
L 135.328864 36.269602 
L 136.850682 39.606606 
L 138.3725 43.58948 
L 139.894318 36.161957 
L 141.416136 38.637798 
L 142.937955 47.249419 
L 144.459773 45.096514 
L 145.981591 43.697125 
L 147.503409 47.249419 
L 149.025227 50.694067 
L 150.547045 53.277554 
L 152.068864 54.03107 
L 153.590682 57.583364 
L 155.1125 58.013945 
L 156.634318 64.580306 
L 158.156136 64.580306 
L 159.677955 70.285505 
L 161.199773 69.209052 
L 162.721591 74.160734 
L 164.243409 77.820673 
L 165.765227 80.511804 
L 167.287045 85.678777 
L 168.808864 84.92526 
L 170.330682 87.401101 
L 171.8525 90.415168 
L 173.374318 91.922202 
L 174.896136 95.797431 
L 176.417955 97.627401 
L 177.939773 97.519755 
L 179.461591 103.117309 
L 180.983409 106.992538 
L 182.505227 107.8537 
L 184.027045 108.714862 
L 185.548864 110.437187 
L 187.070682 112.913028 
L 188.5925 114.204771 
L 190.114318 115.173578 
L 191.636136 116.03474 
L 193.157955 116.357676 
L 194.679773 117.111193 
L 196.201591 116.357676 
L 197.723409 117.003547 
L 199.245227 117.218838 
L 200.767045 117.972355 
L 202.288864 117.972355 
L 203.810682 117.972355 
L 205.3325 117.972355 
" style="fill:none;stroke:#1f77b4;stroke-linecap:square;stroke-width:1.5;"/>
   </g>
   <g id="line2d_13">
    <path clip-path="url(#pd6894afd52)" d="M 54.718749 117.864709 
L 56.235275 117.111193 
L 57.7518 116.572966 
L 59.268325 115.281223 
L 60.784851 112.159511 
L 62.301376 108.930153 
L 63.817902 104.947278 
L 65.334427 101.825566 
L 66.850952 94.290398 
L 68.367478 90.953394 
L 69.884003 84.709969 
L 71.400528 77.174801 
L 72.917054 76.851865 
L 74.433579 72.546055 
L 75.950105 58.659817 
L 77.46663 60.274495 
L 78.983155 53.923425 
L 80.499681 51.878165 
L 82.016206 48.756453 
L 83.532731 41.759511 
L 85.049257 39.821896 
L 86.565782 32.609664 
L 88.082308 24.320979 
L 89.598833 32.394373 
L 91.115358 28.949725 
L 92.631884 33.686116 
L 94.148409 25.720367 
L 95.664934 24.320979 
L 97.18146 17.216391 
L 98.697985 16.78581 
L 100.214511 18.83107 
L 101.731036 18.292844 
L 103.247561 18.938716 
L 104.764087 13.018226 
L 106.280612 18.508135 
L 107.797138 12.48 
L 109.313663 21.199266 
L 110.830188 24.105688 
L 112.346714 16.893456 
L 113.863239 22.813945 
L 115.379764 20.87633 
L 116.89629 27.765627 
L 118.412815 21.414557 
L 119.929341 24.320979 
L 121.445866 24.75156 
L 122.962391 27.657982 
L 124.478917 27.01211 
L 125.995442 22.92159 
L 127.511967 35.623731 
L 129.028493 26.258593 
L 130.545018 27.119755 
L 132.061544 30.026177 
L 133.578069 33.040245 
L 135.094594 37.023119 
L 136.61112 32.932599 
L 138.127645 36.377248 
L 139.64417 42.943609 
L 141.160696 38.853089 
L 142.677221 37.23841 
L 144.193747 39.606606 
L 145.710272 40.575413 
L 147.226797 43.804771 
L 148.743323 44.558287 
L 150.259848 46.280612 
L 151.776373 51.124648 
L 153.292899 56.399266 
L 154.809424 54.354006 
L 156.32595 57.260428 
L 157.842475 63.719144 
L 159.359 64.149725 
L 160.875526 63.719144 
L 162.392051 70.177859 
L 163.908576 70.070214 
L 165.425102 73.837798 
L 166.941627 79.220061 
L 168.458153 80.83474 
L 169.974678 88.477554 
L 171.491203 88.585199 
L 173.007729 91.706911 
L 174.524254 94.828624 
L 176.040779 95.36685 
L 177.557305 99.565015 
L 179.07383 102.471437 
L 180.590356 104.624343 
L 182.106881 108.176636 
L 183.623406 109.145443 
L 185.139932 110.760122 
L 186.656457 112.697737 
L 188.172982 111.621284 
L 189.689508 113.451254 
L 191.206033 115.281223 
L 192.722559 115.711804 
L 194.239084 115.81945 
L 195.755609 117.218838 
L 197.272135 117.649419 
L 198.78866 118.08 
L 200.305185 117.864709 
L 201.821711 117.972355 
L 203.338236 118.08 
L 204.854762 117.972355 
" style="fill:none;stroke:#ff7f0e;stroke-linecap:square;stroke-width:1.5;"/>
   </g>
   <g id="patch_203">
    <path d="M 46.3025 118.08 
L 46.3025 7.2 
" style="fill:none;stroke:#000000;stroke-linecap:square;stroke-linejoin:miter;stroke-width:1.5;"/>
   </g>
   <g id="patch_204">
    <path d="M 46.3025 118.08 
L 213.7025 118.08 
" style="fill:none;stroke:#000000;stroke-linecap:square;stroke-linejoin:miter;stroke-width:1.5;"/>
   </g>
   <g id="legend_1">
    <g id="line2d_14">
     <path d="M 156.3 17.67875 
L 172.3 17.67875 
" style="fill:none;stroke:#1f77b4;stroke-linecap:square;stroke-width:1.5;"/>
    </g>
    <g id="line2d_15"/>
    <g id="text_14">
     <text style="font-family:DejaVu Sans;font-size:8px;font-stretch:normal;font-style:normal;font-weight:normal;text-anchor:start;" transform="rotate(-0, 178.7, 20.47875)" x="178.7" y="20.47875">11 deg</text>
    </g>
    <g id="line2d_16">
     <path d="M 156.3 29.42125 
L 172.3 29.42125 
" style="fill:none;stroke:#ff7f0e;stroke-linecap:square;stroke-width:1.5;"/>
    </g>
    <g id="line2d_17"/>
    <g id="text_15">
     <text style="font-family:DejaVu Sans;font-size:8px;font-stretch:normal;font-style:normal;font-weight:normal;text-anchor:start;" transform="rotate(-0, 178.7, 32.22125)" x="178.7" y="32.22125">27 deg</text>
    </g>
   </g>
  </g>
 </g>
 <defs>
  <clipPath id="pd6894afd52">
   <rect height="110.88" width="167.4" x="46.3025" y="7.2"/>
  </clipPath>
 </defs>
</svg>
