<?xml version="1.0" encoding="utf-8" standalone="no"?>
<!DOCTYPE svg PUBLIC "-//W3C//DTD SVG 1.1//EN"
  "http://www.w3.org/Graphics/SVG/1.1/DTD/svg11.dtd">
<!-- Created with matplotlib (https://matplotlib.org/) -->
<svg height="151.7825pt" version="1.1" viewBox="0 0 210.7225 151.7825" width="210.7225pt" xmlns="http://www.w3.org/2000/svg" xmlns:xlink="http://www.w3.org/1999/xlink">
 <metadata>
  <rdf:RDF xmlns:cc="http://creativecommons.org/ns#" xmlns:dc="http://purl.org/dc/elements/1.1/" xmlns:rdf="http://www.w3.org/1999/02/22-rdf-syntax-ns#">
   <cc:Work>
    <dc:type rdf:resource="http://purl.org/dc/dcmitype/StillImage"/>
    <dc:date>2020-10-06T13:06:41.103431</dc:date>
    <dc:format>image/svg+xml</dc:format>
    <dc:creator>
     <cc:Agent>
      <dc:title>Matplotlib v3.3.2, https://matplotlib.org/</dc:title>
     </cc:Agent>
    </dc:creator>
   </cc:Work>
  </rdf:RDF>
 </metadata>
 <defs>
  <style type="text/css">*{stroke-linecap:butt;stroke-linejoin:round;}</style>
 </defs>
 <g id="figure_1">
  <g id="patch_1">
   <path d="M 0 151.7825 
L 210.7225 151.7825 
L 210.7225 0 
L 0 0 
z
" style="fill:none;"/>
  </g>
  <g id="axes_1">
   <g id="patch_2">
    <path d="M 36.1225 118.08 
L 203.5225 118.08 
L 203.5225 7.2 
L 36.1225 7.2 
z
" style="fill:none;"/>
   </g>
   <g id="patch_3">
    <path clip-path="url(#p88f5c44990)" d="M 43.731591 118.08 
L 45.253409 118.08 
L 45.253409 114.168889 
L 43.731591 114.168889 
z
" style="fill:#ffffff;"/>
   </g>
   <g id="patch_4">
    <path clip-path="url(#p88f5c44990)" d="M 45.253409 118.08 
L 46.775227 118.08 
L 46.775227 116.124444 
L 45.253409 116.124444 
z
" style="fill:#ffffff;"/>
   </g>
   <g id="patch_5">
    <path clip-path="url(#p88f5c44990)" d="M 46.775227 118.08 
L 48.297045 118.08 
L 48.297045 116.124444 
L 46.775227 116.124444 
z
" style="fill:#ffffff;"/>
   </g>
   <g id="patch_6">
    <path clip-path="url(#p88f5c44990)" d="M 48.297045 118.08 
L 49.818864 118.08 
L 49.818864 110.257778 
L 48.297045 110.257778 
z
" style="fill:#ffffff;"/>
   </g>
   <g id="patch_7">
    <path clip-path="url(#p88f5c44990)" d="M 49.818864 118.08 
L 51.340682 118.08 
L 51.340682 96.568889 
L 49.818864 96.568889 
z
" style="fill:#ffffff;"/>
   </g>
   <g id="patch_8">
    <path clip-path="url(#p88f5c44990)" d="M 51.340682 118.08 
L 52.8625 118.08 
L 52.8625 88.746667 
L 51.340682 88.746667 
z
" style="fill:#ffffff;"/>
   </g>
   <g id="patch_9">
    <path clip-path="url(#p88f5c44990)" d="M 52.8625 118.08 
L 54.384318 118.08 
L 54.384318 98.524444 
L 52.8625 98.524444 
z
" style="fill:#ffffff;"/>
   </g>
   <g id="patch_10">
    <path clip-path="url(#p88f5c44990)" d="M 54.384318 118.08 
L 55.906136 118.08 
L 55.906136 100.48 
L 54.384318 100.48 
z
" style="fill:#ffffff;"/>
   </g>
   <g id="patch_11">
    <path clip-path="url(#p88f5c44990)" d="M 55.906136 118.08 
L 57.427955 118.08 
L 57.427955 106.346667 
L 55.906136 106.346667 
z
" style="fill:#ffffff;"/>
   </g>
   <g id="patch_12">
    <path clip-path="url(#p88f5c44990)" d="M 57.427955 118.08 
L 58.949773 118.08 
L 58.949773 94.613333 
L 57.427955 94.613333 
z
" style="fill:#ffffff;"/>
   </g>
   <g id="patch_13">
    <path clip-path="url(#p88f5c44990)" d="M 58.949773 118.08 
L 60.471591 118.08 
L 60.471591 78.968889 
L 58.949773 78.968889 
z
" style="fill:#ffffff;"/>
   </g>
   <g id="patch_14">
    <path clip-path="url(#p88f5c44990)" d="M 60.471591 118.08 
L 61.993409 118.08 
L 61.993409 84.835556 
L 60.471591 84.835556 
z
" style="fill:#ffffff;"/>
   </g>
   <g id="patch_15">
    <path clip-path="url(#p88f5c44990)" d="M 61.993409 118.08 
L 63.515227 118.08 
L 63.515227 69.191111 
L 61.993409 69.191111 
z
" style="fill:#ffffff;"/>
   </g>
   <g id="patch_16">
    <path clip-path="url(#p88f5c44990)" d="M 63.515227 118.08 
L 65.037045 118.08 
L 65.037045 80.924444 
L 63.515227 80.924444 
z
" style="fill:#ffffff;"/>
   </g>
   <g id="patch_17">
    <path clip-path="url(#p88f5c44990)" d="M 65.037045 118.08 
L 66.558864 118.08 
L 66.558864 59.413333 
L 65.037045 59.413333 
z
" style="fill:#ffffff;"/>
   </g>
   <g id="patch_18">
    <path clip-path="url(#p88f5c44990)" d="M 66.558864 118.08 
L 68.080682 118.08 
L 68.080682 43.768889 
L 66.558864 43.768889 
z
" style="fill:#ffffff;"/>
   </g>
   <g id="patch_19">
    <path clip-path="url(#p88f5c44990)" d="M 68.080682 118.08 
L 69.6025 118.08 
L 69.6025 65.28 
L 68.080682 65.28 
z
" style="fill:#ffffff;"/>
   </g>
   <g id="patch_20">
    <path clip-path="url(#p88f5c44990)" d="M 69.6025 118.08 
L 71.124318 118.08 
L 71.124318 53.546667 
L 69.6025 53.546667 
z
" style="fill:#ffffff;"/>
   </g>
   <g id="patch_21">
    <path clip-path="url(#p88f5c44990)" d="M 71.124318 118.08 
L 72.646136 118.08 
L 72.646136 77.013333 
L 71.124318 77.013333 
z
" style="fill:#ffffff;"/>
   </g>
   <g id="patch_22">
    <path clip-path="url(#p88f5c44990)" d="M 72.646136 118.08 
L 74.167955 118.08 
L 74.167955 67.235556 
L 72.646136 67.235556 
z
" style="fill:#ffffff;"/>
   </g>
   <g id="patch_23">
    <path clip-path="url(#p88f5c44990)" d="M 74.167955 118.08 
L 75.689773 118.08 
L 75.689773 37.902222 
L 74.167955 37.902222 
z
" style="fill:#ffffff;"/>
   </g>
   <g id="patch_24">
    <path clip-path="url(#p88f5c44990)" d="M 75.689773 118.08 
L 77.211591 118.08 
L 77.211591 49.635556 
L 75.689773 49.635556 
z
" style="fill:#ffffff;"/>
   </g>
   <g id="patch_25">
    <path clip-path="url(#p88f5c44990)" d="M 77.211591 118.08 
L 78.733409 118.08 
L 78.733409 33.991111 
L 77.211591 33.991111 
z
" style="fill:#ffffff;"/>
   </g>
   <g id="patch_26">
    <path clip-path="url(#p88f5c44990)" d="M 78.733409 118.08 
L 80.255227 118.08 
L 80.255227 35.946667 
L 78.733409 35.946667 
z
" style="fill:#ffffff;"/>
   </g>
   <g id="patch_27">
    <path clip-path="url(#p88f5c44990)" d="M 80.255227 118.08 
L 81.777045 118.08 
L 81.777045 24.213333 
L 80.255227 24.213333 
z
" style="fill:#ffffff;"/>
   </g>
   <g id="patch_28">
    <path clip-path="url(#p88f5c44990)" d="M 81.777045 118.08 
L 83.298864 118.08 
L 83.298864 67.235556 
L 81.777045 67.235556 
z
" style="fill:#ffffff;"/>
   </g>
   <g id="patch_29">
    <path clip-path="url(#p88f5c44990)" d="M 83.298864 118.08 
L 84.820682 118.08 
L 84.820682 33.991111 
L 83.298864 33.991111 
z
" style="fill:#ffffff;"/>
   </g>
   <g id="patch_30">
    <path clip-path="url(#p88f5c44990)" d="M 84.820682 118.08 
L 86.3425 118.08 
L 86.3425 33.991111 
L 84.820682 33.991111 
z
" style="fill:#ffffff;"/>
   </g>
   <g id="patch_31">
    <path clip-path="url(#p88f5c44990)" d="M 86.3425 118.08 
L 87.864318 118.08 
L 87.864318 57.457778 
L 86.3425 57.457778 
z
" style="fill:#ffffff;"/>
   </g>
   <g id="patch_32">
    <path clip-path="url(#p88f5c44990)" d="M 87.864318 118.08 
L 89.386136 118.08 
L 89.386136 59.413333 
L 87.864318 59.413333 
z
" style="fill:#ffffff;"/>
   </g>
   <g id="patch_33">
    <path clip-path="url(#p88f5c44990)" d="M 89.386136 118.08 
L 90.907955 118.08 
L 90.907955 18.346667 
L 89.386136 18.346667 
z
" style="fill:#ffffff;"/>
   </g>
   <g id="patch_34">
    <path clip-path="url(#p88f5c44990)" d="M 90.907955 118.08 
L 92.429773 118.08 
L 92.429773 32.035556 
L 90.907955 32.035556 
z
" style="fill:#ffffff;"/>
   </g>
   <g id="patch_35">
    <path clip-path="url(#p88f5c44990)" d="M 92.429773 118.08 
L 93.951591 118.08 
L 93.951591 18.346667 
L 92.429773 18.346667 
z
" style="fill:#ffffff;"/>
   </g>
   <g id="patch_36">
    <path clip-path="url(#p88f5c44990)" d="M 93.951591 118.08 
L 95.473409 118.08 
L 95.473409 26.168889 
L 93.951591 26.168889 
z
" style="fill:#ffffff;"/>
   </g>
   <g id="patch_37">
    <path clip-path="url(#p88f5c44990)" d="M 95.473409 118.08 
L 96.995227 118.08 
L 96.995227 32.035556 
L 95.473409 32.035556 
z
" style="fill:#ffffff;"/>
   </g>
   <g id="patch_38">
    <path clip-path="url(#p88f5c44990)" d="M 96.995227 118.08 
L 98.517045 118.08 
L 98.517045 20.302222 
L 96.995227 20.302222 
z
" style="fill:#ffffff;"/>
   </g>
   <g id="patch_39">
    <path clip-path="url(#p88f5c44990)" d="M 98.517045 118.08 
L 100.038864 118.08 
L 100.038864 41.813333 
L 98.517045 41.813333 
z
" style="fill:#ffffff;"/>
   </g>
   <g id="patch_40">
    <path clip-path="url(#p88f5c44990)" d="M 100.038864 118.08 
L 101.560682 118.08 
L 101.560682 49.635556 
L 100.038864 49.635556 
z
" style="fill:#ffffff;"/>
   </g>
   <g id="patch_41">
    <path clip-path="url(#p88f5c44990)" d="M 101.560682 118.08 
L 103.0825 118.08 
L 103.0825 22.257778 
L 101.560682 22.257778 
z
" style="fill:#ffffff;"/>
   </g>
   <g id="patch_42">
    <path clip-path="url(#p88f5c44990)" d="M 103.0825 118.08 
L 104.604318 118.08 
L 104.604318 24.213333 
L 103.0825 24.213333 
z
" style="fill:#ffffff;"/>
   </g>
   <g id="patch_43">
    <path clip-path="url(#p88f5c44990)" d="M 104.604318 118.08 
L 106.126136 118.08 
L 106.126136 20.302222 
L 104.604318 20.302222 
z
" style="fill:#ffffff;"/>
   </g>
   <g id="patch_44">
    <path clip-path="url(#p88f5c44990)" d="M 106.126136 118.08 
L 107.647955 118.08 
L 107.647955 37.902222 
L 106.126136 37.902222 
z
" style="fill:#ffffff;"/>
   </g>
   <g id="patch_45">
    <path clip-path="url(#p88f5c44990)" d="M 107.647955 118.08 
L 109.169773 118.08 
L 109.169773 39.857778 
L 107.647955 39.857778 
z
" style="fill:#ffffff;"/>
   </g>
   <g id="patch_46">
    <path clip-path="url(#p88f5c44990)" d="M 109.169773 118.08 
L 110.691591 118.08 
L 110.691591 24.213333 
L 109.169773 24.213333 
z
" style="fill:#ffffff;"/>
   </g>
   <g id="patch_47">
    <path clip-path="url(#p88f5c44990)" d="M 110.691591 118.08 
L 112.213409 118.08 
L 112.213409 51.591111 
L 110.691591 51.591111 
z
" style="fill:#ffffff;"/>
   </g>
   <g id="patch_48">
    <path clip-path="url(#p88f5c44990)" d="M 112.213409 118.08 
L 113.735227 118.08 
L 113.735227 35.946667 
L 112.213409 35.946667 
z
" style="fill:#ffffff;"/>
   </g>
   <g id="patch_49">
    <path clip-path="url(#p88f5c44990)" d="M 113.735227 118.08 
L 115.257045 118.08 
L 115.257045 43.768889 
L 113.735227 43.768889 
z
" style="fill:#ffffff;"/>
   </g>
   <g id="patch_50">
    <path clip-path="url(#p88f5c44990)" d="M 115.257045 118.08 
L 116.778864 118.08 
L 116.778864 43.768889 
L 115.257045 43.768889 
z
" style="fill:#ffffff;"/>
   </g>
   <g id="patch_51">
    <path clip-path="url(#p88f5c44990)" d="M 116.778864 118.08 
L 118.300682 118.08 
L 118.300682 20.302222 
L 116.778864 20.302222 
z
" style="fill:#ffffff;"/>
   </g>
   <g id="patch_52">
    <path clip-path="url(#p88f5c44990)" d="M 118.300682 118.08 
L 119.8225 118.08 
L 119.8225 22.257778 
L 118.300682 22.257778 
z
" style="fill:#ffffff;"/>
   </g>
   <g id="patch_53">
    <path clip-path="url(#p88f5c44990)" d="M 119.8225 118.08 
L 121.344318 118.08 
L 121.344318 39.857778 
L 119.8225 39.857778 
z
" style="fill:#ffffff;"/>
   </g>
   <g id="patch_54">
    <path clip-path="url(#p88f5c44990)" d="M 121.344318 118.08 
L 122.866136 118.08 
L 122.866136 47.68 
L 121.344318 47.68 
z
" style="fill:#ffffff;"/>
   </g>
   <g id="patch_55">
    <path clip-path="url(#p88f5c44990)" d="M 122.866136 118.08 
L 124.387955 118.08 
L 124.387955 47.68 
L 122.866136 47.68 
z
" style="fill:#ffffff;"/>
   </g>
   <g id="patch_56">
    <path clip-path="url(#p88f5c44990)" d="M 124.387955 118.08 
L 125.909773 118.08 
L 125.909773 35.946667 
L 124.387955 35.946667 
z
" style="fill:#ffffff;"/>
   </g>
   <g id="patch_57">
    <path clip-path="url(#p88f5c44990)" d="M 125.909773 118.08 
L 127.431591 118.08 
L 127.431591 35.946667 
L 125.909773 35.946667 
z
" style="fill:#ffffff;"/>
   </g>
   <g id="patch_58">
    <path clip-path="url(#p88f5c44990)" d="M 127.431591 118.08 
L 128.953409 118.08 
L 128.953409 37.902222 
L 127.431591 37.902222 
z
" style="fill:#ffffff;"/>
   </g>
   <g id="patch_59">
    <path clip-path="url(#p88f5c44990)" d="M 128.953409 118.08 
L 130.475227 118.08 
L 130.475227 65.28 
L 128.953409 65.28 
z
" style="fill:#ffffff;"/>
   </g>
   <g id="patch_60">
    <path clip-path="url(#p88f5c44990)" d="M 130.475227 118.08 
L 131.997045 118.08 
L 131.997045 45.724444 
L 130.475227 45.724444 
z
" style="fill:#ffffff;"/>
   </g>
   <g id="patch_61">
    <path clip-path="url(#p88f5c44990)" d="M 131.997045 118.08 
L 133.518864 118.08 
L 133.518864 57.457778 
L 131.997045 57.457778 
z
" style="fill:#ffffff;"/>
   </g>
   <g id="patch_62">
    <path clip-path="url(#p88f5c44990)" d="M 133.518864 118.08 
L 135.040682 118.08 
L 135.040682 47.68 
L 133.518864 47.68 
z
" style="fill:#ffffff;"/>
   </g>
   <g id="patch_63">
    <path clip-path="url(#p88f5c44990)" d="M 135.040682 118.08 
L 136.5625 118.08 
L 136.5625 57.457778 
L 135.040682 57.457778 
z
" style="fill:#ffffff;"/>
   </g>
   <g id="patch_64">
    <path clip-path="url(#p88f5c44990)" d="M 136.5625 118.08 
L 138.084318 118.08 
L 138.084318 28.124444 
L 136.5625 28.124444 
z
" style="fill:#ffffff;"/>
   </g>
   <g id="patch_65">
    <path clip-path="url(#p88f5c44990)" d="M 138.084318 118.08 
L 139.606136 118.08 
L 139.606136 47.68 
L 138.084318 47.68 
z
" style="fill:#ffffff;"/>
   </g>
   <g id="patch_66">
    <path clip-path="url(#p88f5c44990)" d="M 139.606136 118.08 
L 141.127955 118.08 
L 141.127955 67.235556 
L 139.606136 67.235556 
z
" style="fill:#ffffff;"/>
   </g>
   <g id="patch_67">
    <path clip-path="url(#p88f5c44990)" d="M 141.127955 118.08 
L 142.649773 118.08 
L 142.649773 67.235556 
L 141.127955 67.235556 
z
" style="fill:#ffffff;"/>
   </g>
   <g id="patch_68">
    <path clip-path="url(#p88f5c44990)" d="M 142.649773 118.08 
L 144.171591 118.08 
L 144.171591 53.546667 
L 142.649773 53.546667 
z
" style="fill:#ffffff;"/>
   </g>
   <g id="patch_69">
    <path clip-path="url(#p88f5c44990)" d="M 144.171591 118.08 
L 145.693409 118.08 
L 145.693409 80.924444 
L 144.171591 80.924444 
z
" style="fill:#ffffff;"/>
   </g>
   <g id="patch_70">
    <path clip-path="url(#p88f5c44990)" d="M 145.693409 118.08 
L 147.215227 118.08 
L 147.215227 53.546667 
L 145.693409 53.546667 
z
" style="fill:#ffffff;"/>
   </g>
   <g id="patch_71">
    <path clip-path="url(#p88f5c44990)" d="M 147.215227 118.08 
L 148.737045 118.08 
L 148.737045 78.968889 
L 147.215227 78.968889 
z
" style="fill:#ffffff;"/>
   </g>
   <g id="patch_72">
    <path clip-path="url(#p88f5c44990)" d="M 148.737045 118.08 
L 150.258864 118.08 
L 150.258864 77.013333 
L 148.737045 77.013333 
z
" style="fill:#ffffff;"/>
   </g>
   <g id="patch_73">
    <path clip-path="url(#p88f5c44990)" d="M 150.258864 118.08 
L 151.780682 118.08 
L 151.780682 53.546667 
L 150.258864 53.546667 
z
" style="fill:#ffffff;"/>
   </g>
   <g id="patch_74">
    <path clip-path="url(#p88f5c44990)" d="M 151.780682 118.08 
L 153.3025 118.08 
L 153.3025 67.235556 
L 151.780682 67.235556 
z
" style="fill:#ffffff;"/>
   </g>
   <g id="patch_75">
    <path clip-path="url(#p88f5c44990)" d="M 153.3025 118.08 
L 154.824318 118.08 
L 154.824318 67.235556 
L 153.3025 67.235556 
z
" style="fill:#ffffff;"/>
   </g>
   <g id="patch_76">
    <path clip-path="url(#p88f5c44990)" d="M 154.824318 118.08 
L 156.346136 118.08 
L 156.346136 65.28 
L 154.824318 65.28 
z
" style="fill:#ffffff;"/>
   </g>
   <g id="patch_77">
    <path clip-path="url(#p88f5c44990)" d="M 156.346136 118.08 
L 157.867955 118.08 
L 157.867955 73.102222 
L 156.346136 73.102222 
z
" style="fill:#ffffff;"/>
   </g>
   <g id="patch_78">
    <path clip-path="url(#p88f5c44990)" d="M 157.867955 118.08 
L 159.389773 118.08 
L 159.389773 75.057778 
L 157.867955 75.057778 
z
" style="fill:#ffffff;"/>
   </g>
   <g id="patch_79">
    <path clip-path="url(#p88f5c44990)" d="M 159.389773 118.08 
L 160.911591 118.08 
L 160.911591 78.968889 
L 159.389773 78.968889 
z
" style="fill:#ffffff;"/>
   </g>
   <g id="patch_80">
    <path clip-path="url(#p88f5c44990)" d="M 160.911591 118.08 
L 162.433409 118.08 
L 162.433409 92.657778 
L 160.911591 92.657778 
z
" style="fill:#ffffff;"/>
   </g>
   <g id="patch_81">
    <path clip-path="url(#p88f5c44990)" d="M 162.433409 118.08 
L 163.955227 118.08 
L 163.955227 96.568889 
L 162.433409 96.568889 
z
" style="fill:#ffffff;"/>
   </g>
   <g id="patch_82">
    <path clip-path="url(#p88f5c44990)" d="M 163.955227 118.08 
L 165.477045 118.08 
L 165.477045 80.924444 
L 163.955227 80.924444 
z
" style="fill:#ffffff;"/>
   </g>
   <g id="patch_83">
    <path clip-path="url(#p88f5c44990)" d="M 165.477045 118.08 
L 166.998864 118.08 
L 166.998864 104.391111 
L 165.477045 104.391111 
z
" style="fill:#ffffff;"/>
   </g>
   <g id="patch_84">
    <path clip-path="url(#p88f5c44990)" d="M 166.998864 118.08 
L 168.520682 118.08 
L 168.520682 100.48 
L 166.998864 100.48 
z
" style="fill:#ffffff;"/>
   </g>
   <g id="patch_85">
    <path clip-path="url(#p88f5c44990)" d="M 168.520682 118.08 
L 170.0425 118.08 
L 170.0425 80.924444 
L 168.520682 80.924444 
z
" style="fill:#ffffff;"/>
   </g>
   <g id="patch_86">
    <path clip-path="url(#p88f5c44990)" d="M 170.0425 118.08 
L 171.564318 118.08 
L 171.564318 102.435556 
L 170.0425 102.435556 
z
" style="fill:#ffffff;"/>
   </g>
   <g id="patch_87">
    <path clip-path="url(#p88f5c44990)" d="M 171.564318 118.08 
L 173.086136 118.08 
L 173.086136 98.524444 
L 171.564318 98.524444 
z
" style="fill:#ffffff;"/>
   </g>
   <g id="patch_88">
    <path clip-path="url(#p88f5c44990)" d="M 173.086136 118.08 
L 174.607955 118.08 
L 174.607955 104.391111 
L 173.086136 104.391111 
z
" style="fill:#ffffff;"/>
   </g>
   <g id="patch_89">
    <path clip-path="url(#p88f5c44990)" d="M 174.607955 118.08 
L 176.129773 118.08 
L 176.129773 108.302222 
L 174.607955 108.302222 
z
" style="fill:#ffffff;"/>
   </g>
   <g id="patch_90">
    <path clip-path="url(#p88f5c44990)" d="M 176.129773 118.08 
L 177.651591 118.08 
L 177.651591 110.257778 
L 176.129773 110.257778 
z
" style="fill:#ffffff;"/>
   </g>
   <g id="patch_91">
    <path clip-path="url(#p88f5c44990)" d="M 177.651591 118.08 
L 179.173409 118.08 
L 179.173409 110.257778 
L 177.651591 110.257778 
z
" style="fill:#ffffff;"/>
   </g>
   <g id="patch_92">
    <path clip-path="url(#p88f5c44990)" d="M 179.173409 118.08 
L 180.695227 118.08 
L 180.695227 110.257778 
L 179.173409 110.257778 
z
" style="fill:#ffffff;"/>
   </g>
   <g id="patch_93">
    <path clip-path="url(#p88f5c44990)" d="M 180.695227 118.08 
L 182.217045 118.08 
L 182.217045 110.257778 
L 180.695227 110.257778 
z
" style="fill:#ffffff;"/>
   </g>
   <g id="patch_94">
    <path clip-path="url(#p88f5c44990)" d="M 182.217045 118.08 
L 183.738864 118.08 
L 183.738864 110.257778 
L 182.217045 110.257778 
z
" style="fill:#ffffff;"/>
   </g>
   <g id="patch_95">
    <path clip-path="url(#p88f5c44990)" d="M 183.738864 118.08 
L 185.260682 118.08 
L 185.260682 114.168889 
L 183.738864 114.168889 
z
" style="fill:#ffffff;"/>
   </g>
   <g id="patch_96">
    <path clip-path="url(#p88f5c44990)" d="M 185.260682 118.08 
L 186.7825 118.08 
L 186.7825 112.213333 
L 185.260682 112.213333 
z
" style="fill:#ffffff;"/>
   </g>
   <g id="patch_97">
    <path clip-path="url(#p88f5c44990)" d="M 186.7825 118.08 
L 188.304318 118.08 
L 188.304318 118.08 
L 186.7825 118.08 
z
" style="fill:#ffffff;"/>
   </g>
   <g id="patch_98">
    <path clip-path="url(#p88f5c44990)" d="M 188.304318 118.08 
L 189.826136 118.08 
L 189.826136 118.08 
L 188.304318 118.08 
z
" style="fill:#ffffff;"/>
   </g>
   <g id="patch_99">
    <path clip-path="url(#p88f5c44990)" d="M 189.826136 118.08 
L 191.347955 118.08 
L 191.347955 118.08 
L 189.826136 118.08 
z
" style="fill:#ffffff;"/>
   </g>
   <g id="patch_100">
    <path clip-path="url(#p88f5c44990)" d="M 191.347955 118.08 
L 192.869773 118.08 
L 192.869773 118.08 
L 191.347955 118.08 
z
" style="fill:#ffffff;"/>
   </g>
   <g id="patch_101">
    <path clip-path="url(#p88f5c44990)" d="M 192.869773 118.08 
L 194.391591 118.08 
L 194.391591 116.124444 
L 192.869773 116.124444 
z
" style="fill:#ffffff;"/>
   </g>
   <g id="patch_102">
    <path clip-path="url(#p88f5c44990)" d="M 194.391591 118.08 
L 195.913409 118.08 
L 195.913409 114.168889 
L 194.391591 114.168889 
z
" style="fill:#ffffff;"/>
   </g>
   <g id="patch_103">
    <path clip-path="url(#p88f5c44990)" d="M 48.369074 118.08 
L 49.781968 118.08 
L 49.781968 108.302222 
L 48.369074 108.302222 
z
" style="fill:#ffffff;"/>
   </g>
   <g id="patch_104">
    <path clip-path="url(#p88f5c44990)" d="M 49.781968 118.08 
L 51.194861 118.08 
L 51.194861 112.213333 
L 49.781968 112.213333 
z
" style="fill:#ffffff;"/>
   </g>
   <g id="patch_105">
    <path clip-path="url(#p88f5c44990)" d="M 51.194861 118.08 
L 52.607755 118.08 
L 52.607755 114.168889 
L 51.194861 114.168889 
z
" style="fill:#ffffff;"/>
   </g>
   <g id="patch_106">
    <path clip-path="url(#p88f5c44990)" d="M 52.607755 118.08 
L 54.020649 118.08 
L 54.020649 104.391111 
L 52.607755 104.391111 
z
" style="fill:#ffffff;"/>
   </g>
   <g id="patch_107">
    <path clip-path="url(#p88f5c44990)" d="M 54.020649 118.08 
L 55.433542 118.08 
L 55.433542 112.213333 
L 54.020649 112.213333 
z
" style="fill:#ffffff;"/>
   </g>
   <g id="patch_108">
    <path clip-path="url(#p88f5c44990)" d="M 55.433542 118.08 
L 56.846436 118.08 
L 56.846436 100.48 
L 55.433542 100.48 
z
" style="fill:#ffffff;"/>
   </g>
   <g id="patch_109">
    <path clip-path="url(#p88f5c44990)" d="M 56.846436 118.08 
L 58.25933 118.08 
L 58.25933 100.48 
L 56.846436 100.48 
z
" style="fill:#ffffff;"/>
   </g>
   <g id="patch_110">
    <path clip-path="url(#p88f5c44990)" d="M 58.25933 118.08 
L 59.672223 118.08 
L 59.672223 88.746667 
L 58.25933 88.746667 
z
" style="fill:#ffffff;"/>
   </g>
   <g id="patch_111">
    <path clip-path="url(#p88f5c44990)" d="M 59.672223 118.08 
L 61.085117 118.08 
L 61.085117 77.013333 
L 59.672223 77.013333 
z
" style="fill:#ffffff;"/>
   </g>
   <g id="patch_112">
    <path clip-path="url(#p88f5c44990)" d="M 61.085117 118.08 
L 62.498011 118.08 
L 62.498011 86.791111 
L 61.085117 86.791111 
z
" style="fill:#ffffff;"/>
   </g>
   <g id="patch_113">
    <path clip-path="url(#p88f5c44990)" d="M 62.498011 118.08 
L 63.910904 118.08 
L 63.910904 96.568889 
L 62.498011 96.568889 
z
" style="fill:#ffffff;"/>
   </g>
   <g id="patch_114">
    <path clip-path="url(#p88f5c44990)" d="M 63.910904 118.08 
L 65.323798 118.08 
L 65.323798 80.924444 
L 63.910904 80.924444 
z
" style="fill:#ffffff;"/>
   </g>
   <g id="patch_115">
    <path clip-path="url(#p88f5c44990)" d="M 65.323798 118.08 
L 66.736692 118.08 
L 66.736692 71.146667 
L 65.323798 71.146667 
z
" style="fill:#ffffff;"/>
   </g>
   <g id="patch_116">
    <path clip-path="url(#p88f5c44990)" d="M 66.736692 118.08 
L 68.149585 118.08 
L 68.149585 84.835556 
L 66.736692 84.835556 
z
" style="fill:#ffffff;"/>
   </g>
   <g id="patch_117">
    <path clip-path="url(#p88f5c44990)" d="M 68.149585 118.08 
L 69.562479 118.08 
L 69.562479 61.368889 
L 68.149585 61.368889 
z
" style="fill:#ffffff;"/>
   </g>
   <g id="patch_118">
    <path clip-path="url(#p88f5c44990)" d="M 69.562479 118.08 
L 70.975373 118.08 
L 70.975373 57.457778 
L 69.562479 57.457778 
z
" style="fill:#ffffff;"/>
   </g>
   <g id="patch_119">
    <path clip-path="url(#p88f5c44990)" d="M 70.975373 118.08 
L 72.388266 118.08 
L 72.388266 80.924444 
L 70.975373 80.924444 
z
" style="fill:#ffffff;"/>
   </g>
   <g id="patch_120">
    <path clip-path="url(#p88f5c44990)" d="M 72.388266 118.08 
L 73.80116 118.08 
L 73.80116 57.457778 
L 72.388266 57.457778 
z
" style="fill:#ffffff;"/>
   </g>
   <g id="patch_121">
    <path clip-path="url(#p88f5c44990)" d="M 73.80116 118.08 
L 75.214054 118.08 
L 75.214054 53.546667 
L 73.80116 53.546667 
z
" style="fill:#ffffff;"/>
   </g>
   <g id="patch_122">
    <path clip-path="url(#p88f5c44990)" d="M 75.214054 118.08 
L 76.626947 118.08 
L 76.626947 67.235556 
L 75.214054 67.235556 
z
" style="fill:#ffffff;"/>
   </g>
   <g id="patch_123">
    <path clip-path="url(#p88f5c44990)" d="M 76.626947 118.08 
L 78.039841 118.08 
L 78.039841 69.191111 
L 76.626947 69.191111 
z
" style="fill:#ffffff;"/>
   </g>
   <g id="patch_124">
    <path clip-path="url(#p88f5c44990)" d="M 78.039841 118.08 
L 79.452734 118.08 
L 79.452734 67.235556 
L 78.039841 67.235556 
z
" style="fill:#ffffff;"/>
   </g>
   <g id="patch_125">
    <path clip-path="url(#p88f5c44990)" d="M 79.452734 118.08 
L 80.865628 118.08 
L 80.865628 59.413333 
L 79.452734 59.413333 
z
" style="fill:#ffffff;"/>
   </g>
   <g id="patch_126">
    <path clip-path="url(#p88f5c44990)" d="M 80.865628 118.08 
L 82.278522 118.08 
L 82.278522 55.502222 
L 80.865628 55.502222 
z
" style="fill:#ffffff;"/>
   </g>
   <g id="patch_127">
    <path clip-path="url(#p88f5c44990)" d="M 82.278522 118.08 
L 83.691415 118.08 
L 83.691415 45.724444 
L 82.278522 45.724444 
z
" style="fill:#ffffff;"/>
   </g>
   <g id="patch_128">
    <path clip-path="url(#p88f5c44990)" d="M 83.691415 118.08 
L 85.104309 118.08 
L 85.104309 49.635556 
L 83.691415 49.635556 
z
" style="fill:#ffffff;"/>
   </g>
   <g id="patch_129">
    <path clip-path="url(#p88f5c44990)" d="M 85.104309 118.08 
L 86.517203 118.08 
L 86.517203 45.724444 
L 85.104309 45.724444 
z
" style="fill:#ffffff;"/>
   </g>
   <g id="patch_130">
    <path clip-path="url(#p88f5c44990)" d="M 86.517203 118.08 
L 87.930096 118.08 
L 87.930096 30.08 
L 86.517203 30.08 
z
" style="fill:#ffffff;"/>
   </g>
   <g id="patch_131">
    <path clip-path="url(#p88f5c44990)" d="M 87.930096 118.08 
L 89.34299 118.08 
L 89.34299 47.68 
L 87.930096 47.68 
z
" style="fill:#ffffff;"/>
   </g>
   <g id="patch_132">
    <path clip-path="url(#p88f5c44990)" d="M 89.34299 118.08 
L 90.755884 118.08 
L 90.755884 32.035556 
L 89.34299 32.035556 
z
" style="fill:#ffffff;"/>
   </g>
   <g id="patch_133">
    <path clip-path="url(#p88f5c44990)" d="M 90.755884 118.08 
L 92.168777 118.08 
L 92.168777 28.124444 
L 90.755884 28.124444 
z
" style="fill:#ffffff;"/>
   </g>
   <g id="patch_134">
    <path clip-path="url(#p88f5c44990)" d="M 92.168777 118.08 
L 93.581671 118.08 
L 93.581671 45.724444 
L 92.168777 45.724444 
z
" style="fill:#ffffff;"/>
   </g>
   <g id="patch_135">
    <path clip-path="url(#p88f5c44990)" d="M 93.581671 118.08 
L 94.994565 118.08 
L 94.994565 49.635556 
L 93.581671 49.635556 
z
" style="fill:#ffffff;"/>
   </g>
   <g id="patch_136">
    <path clip-path="url(#p88f5c44990)" d="M 94.994565 118.08 
L 96.407458 118.08 
L 96.407458 33.991111 
L 94.994565 33.991111 
z
" style="fill:#ffffff;"/>
   </g>
   <g id="patch_137">
    <path clip-path="url(#p88f5c44990)" d="M 96.407458 118.08 
L 97.820352 118.08 
L 97.820352 18.346667 
L 96.407458 18.346667 
z
" style="fill:#ffffff;"/>
   </g>
   <g id="patch_138">
    <path clip-path="url(#p88f5c44990)" d="M 97.820352 118.08 
L 99.233246 118.08 
L 99.233246 37.902222 
L 97.820352 37.902222 
z
" style="fill:#ffffff;"/>
   </g>
   <g id="patch_139">
    <path clip-path="url(#p88f5c44990)" d="M 99.233246 118.08 
L 100.646139 118.08 
L 100.646139 28.124444 
L 99.233246 28.124444 
z
" style="fill:#ffffff;"/>
   </g>
   <g id="patch_140">
    <path clip-path="url(#p88f5c44990)" d="M 100.646139 118.08 
L 102.059033 118.08 
L 102.059033 47.68 
L 100.646139 47.68 
z
" style="fill:#ffffff;"/>
   </g>
   <g id="patch_141">
    <path clip-path="url(#p88f5c44990)" d="M 102.059033 118.08 
L 103.471927 118.08 
L 103.471927 24.213333 
L 102.059033 24.213333 
z
" style="fill:#ffffff;"/>
   </g>
   <g id="patch_142">
    <path clip-path="url(#p88f5c44990)" d="M 103.471927 118.08 
L 104.88482 118.08 
L 104.88482 18.346667 
L 103.471927 18.346667 
z
" style="fill:#ffffff;"/>
   </g>
   <g id="patch_143">
    <path clip-path="url(#p88f5c44990)" d="M 104.88482 118.08 
L 106.297714 118.08 
L 106.297714 18.346667 
L 104.88482 18.346667 
z
" style="fill:#ffffff;"/>
   </g>
   <g id="patch_144">
    <path clip-path="url(#p88f5c44990)" d="M 106.297714 118.08 
L 107.710608 118.08 
L 107.710608 33.991111 
L 106.297714 33.991111 
z
" style="fill:#ffffff;"/>
   </g>
   <g id="patch_145">
    <path clip-path="url(#p88f5c44990)" d="M 107.710608 118.08 
L 109.123501 118.08 
L 109.123501 37.902222 
L 107.710608 37.902222 
z
" style="fill:#ffffff;"/>
   </g>
   <g id="patch_146">
    <path clip-path="url(#p88f5c44990)" d="M 109.123501 118.08 
L 110.536395 118.08 
L 110.536395 49.635556 
L 109.123501 49.635556 
z
" style="fill:#ffffff;"/>
   </g>
   <g id="patch_147">
    <path clip-path="url(#p88f5c44990)" d="M 110.536395 118.08 
L 111.949289 118.08 
L 111.949289 12.48 
L 110.536395 12.48 
z
" style="fill:#ffffff;"/>
   </g>
   <g id="patch_148">
    <path clip-path="url(#p88f5c44990)" d="M 111.949289 118.08 
L 113.362182 118.08 
L 113.362182 49.635556 
L 111.949289 49.635556 
z
" style="fill:#ffffff;"/>
   </g>
   <g id="patch_149">
    <path clip-path="url(#p88f5c44990)" d="M 113.362182 118.08 
L 114.775076 118.08 
L 114.775076 37.902222 
L 113.362182 37.902222 
z
" style="fill:#ffffff;"/>
   </g>
   <g id="patch_150">
    <path clip-path="url(#p88f5c44990)" d="M 114.775076 118.08 
L 116.18797 118.08 
L 116.18797 45.724444 
L 114.775076 45.724444 
z
" style="fill:#ffffff;"/>
   </g>
   <g id="patch_151">
    <path clip-path="url(#p88f5c44990)" d="M 116.18797 118.08 
L 117.600863 118.08 
L 117.600863 61.368889 
L 116.18797 61.368889 
z
" style="fill:#ffffff;"/>
   </g>
   <g id="patch_152">
    <path clip-path="url(#p88f5c44990)" d="M 117.600863 118.08 
L 119.013757 118.08 
L 119.013757 37.902222 
L 117.600863 37.902222 
z
" style="fill:#ffffff;"/>
   </g>
   <g id="patch_153">
    <path clip-path="url(#p88f5c44990)" d="M 119.013757 118.08 
L 120.426651 118.08 
L 120.426651 37.902222 
L 119.013757 37.902222 
z
" style="fill:#ffffff;"/>
   </g>
   <g id="patch_154">
    <path clip-path="url(#p88f5c44990)" d="M 120.426651 118.08 
L 121.839544 118.08 
L 121.839544 57.457778 
L 120.426651 57.457778 
z
" style="fill:#ffffff;"/>
   </g>
   <g id="patch_155">
    <path clip-path="url(#p88f5c44990)" d="M 121.839544 118.08 
L 123.252438 118.08 
L 123.252438 41.813333 
L 121.839544 41.813333 
z
" style="fill:#ffffff;"/>
   </g>
   <g id="patch_156">
    <path clip-path="url(#p88f5c44990)" d="M 123.252438 118.08 
L 124.665332 118.08 
L 124.665332 41.813333 
L 123.252438 41.813333 
z
" style="fill:#ffffff;"/>
   </g>
   <g id="patch_157">
    <path clip-path="url(#p88f5c44990)" d="M 124.665332 118.08 
L 126.078225 118.08 
L 126.078225 41.813333 
L 124.665332 41.813333 
z
" style="fill:#ffffff;"/>
   </g>
   <g id="patch_158">
    <path clip-path="url(#p88f5c44990)" d="M 126.078225 118.08 
L 127.491119 118.08 
L 127.491119 41.813333 
L 126.078225 41.813333 
z
" style="fill:#ffffff;"/>
   </g>
   <g id="patch_159">
    <path clip-path="url(#p88f5c44990)" d="M 127.491119 118.08 
L 128.904013 118.08 
L 128.904013 51.591111 
L 127.491119 51.591111 
z
" style="fill:#ffffff;"/>
   </g>
   <g id="patch_160">
    <path clip-path="url(#p88f5c44990)" d="M 128.904013 118.08 
L 130.316906 118.08 
L 130.316906 55.502222 
L 128.904013 55.502222 
z
" style="fill:#ffffff;"/>
   </g>
   <g id="patch_161">
    <path clip-path="url(#p88f5c44990)" d="M 130.316906 118.08 
L 131.7298 118.08 
L 131.7298 45.724444 
L 130.316906 45.724444 
z
" style="fill:#ffffff;"/>
   </g>
   <g id="patch_162">
    <path clip-path="url(#p88f5c44990)" d="M 131.7298 118.08 
L 133.142694 118.08 
L 133.142694 30.08 
L 131.7298 30.08 
z
" style="fill:#ffffff;"/>
   </g>
   <g id="patch_163">
    <path clip-path="url(#p88f5c44990)" d="M 133.142694 118.08 
L 134.555587 118.08 
L 134.555587 33.991111 
L 133.142694 33.991111 
z
" style="fill:#ffffff;"/>
   </g>
   <g id="patch_164">
    <path clip-path="url(#p88f5c44990)" d="M 134.555587 118.08 
L 135.968481 118.08 
L 135.968481 49.635556 
L 134.555587 49.635556 
z
" style="fill:#ffffff;"/>
   </g>
   <g id="patch_165">
    <path clip-path="url(#p88f5c44990)" d="M 135.968481 118.08 
L 137.381374 118.08 
L 137.381374 55.502222 
L 135.968481 55.502222 
z
" style="fill:#ffffff;"/>
   </g>
   <g id="patch_166">
    <path clip-path="url(#p88f5c44990)" d="M 137.381374 118.08 
L 138.794268 118.08 
L 138.794268 41.813333 
L 137.381374 41.813333 
z
" style="fill:#ffffff;"/>
   </g>
   <g id="patch_167">
    <path clip-path="url(#p88f5c44990)" d="M 138.794268 118.08 
L 140.207162 118.08 
L 140.207162 65.28 
L 138.794268 65.28 
z
" style="fill:#ffffff;"/>
   </g>
   <g id="patch_168">
    <path clip-path="url(#p88f5c44990)" d="M 140.207162 118.08 
L 141.620055 118.08 
L 141.620055 43.768889 
L 140.207162 43.768889 
z
" style="fill:#ffffff;"/>
   </g>
   <g id="patch_169">
    <path clip-path="url(#p88f5c44990)" d="M 141.620055 118.08 
L 143.032949 118.08 
L 143.032949 61.368889 
L 141.620055 61.368889 
z
" style="fill:#ffffff;"/>
   </g>
   <g id="patch_170">
    <path clip-path="url(#p88f5c44990)" d="M 143.032949 118.08 
L 144.445843 118.08 
L 144.445843 63.324444 
L 143.032949 63.324444 
z
" style="fill:#ffffff;"/>
   </g>
   <g id="patch_171">
    <path clip-path="url(#p88f5c44990)" d="M 144.445843 118.08 
L 145.858736 118.08 
L 145.858736 49.635556 
L 144.445843 49.635556 
z
" style="fill:#ffffff;"/>
   </g>
   <g id="patch_172">
    <path clip-path="url(#p88f5c44990)" d="M 145.858736 118.08 
L 147.27163 118.08 
L 147.27163 65.28 
L 145.858736 65.28 
z
" style="fill:#ffffff;"/>
   </g>
   <g id="patch_173">
    <path clip-path="url(#p88f5c44990)" d="M 147.27163 118.08 
L 148.684524 118.08 
L 148.684524 63.324444 
L 147.27163 63.324444 
z
" style="fill:#ffffff;"/>
   </g>
   <g id="patch_174">
    <path clip-path="url(#p88f5c44990)" d="M 148.684524 118.08 
L 150.097417 118.08 
L 150.097417 75.057778 
L 148.684524 75.057778 
z
" style="fill:#ffffff;"/>
   </g>
   <g id="patch_175">
    <path clip-path="url(#p88f5c44990)" d="M 150.097417 118.08 
L 151.510311 118.08 
L 151.510311 63.324444 
L 150.097417 63.324444 
z
" style="fill:#ffffff;"/>
   </g>
   <g id="patch_176">
    <path clip-path="url(#p88f5c44990)" d="M 151.510311 118.08 
L 152.923205 118.08 
L 152.923205 84.835556 
L 151.510311 84.835556 
z
" style="fill:#ffffff;"/>
   </g>
   <g id="patch_177">
    <path clip-path="url(#p88f5c44990)" d="M 152.923205 118.08 
L 154.336098 118.08 
L 154.336098 84.835556 
L 152.923205 84.835556 
z
" style="fill:#ffffff;"/>
   </g>
   <g id="patch_178">
    <path clip-path="url(#p88f5c44990)" d="M 154.336098 118.08 
L 155.748992 118.08 
L 155.748992 78.968889 
L 154.336098 78.968889 
z
" style="fill:#ffffff;"/>
   </g>
   <g id="patch_179">
    <path clip-path="url(#p88f5c44990)" d="M 155.748992 118.08 
L 157.161886 118.08 
L 157.161886 69.191111 
L 155.748992 69.191111 
z
" style="fill:#ffffff;"/>
   </g>
   <g id="patch_180">
    <path clip-path="url(#p88f5c44990)" d="M 157.161886 118.08 
L 158.574779 118.08 
L 158.574779 88.746667 
L 157.161886 88.746667 
z
" style="fill:#ffffff;"/>
   </g>
   <g id="patch_181">
    <path clip-path="url(#p88f5c44990)" d="M 158.574779 118.08 
L 159.987673 118.08 
L 159.987673 86.791111 
L 158.574779 86.791111 
z
" style="fill:#ffffff;"/>
   </g>
   <g id="patch_182">
    <path clip-path="url(#p88f5c44990)" d="M 159.987673 118.08 
L 161.400567 118.08 
L 161.400567 78.968889 
L 159.987673 78.968889 
z
" style="fill:#ffffff;"/>
   </g>
   <g id="patch_183">
    <path clip-path="url(#p88f5c44990)" d="M 161.400567 118.08 
L 162.81346 118.08 
L 162.81346 90.702222 
L 161.400567 90.702222 
z
" style="fill:#ffffff;"/>
   </g>
   <g id="patch_184">
    <path clip-path="url(#p88f5c44990)" d="M 162.81346 118.08 
L 164.226354 118.08 
L 164.226354 84.835556 
L 162.81346 84.835556 
z
" style="fill:#ffffff;"/>
   </g>
   <g id="patch_185">
    <path clip-path="url(#p88f5c44990)" d="M 164.226354 118.08 
L 165.639248 118.08 
L 165.639248 94.613333 
L 164.226354 94.613333 
z
" style="fill:#ffffff;"/>
   </g>
   <g id="patch_186">
    <path clip-path="url(#p88f5c44990)" d="M 165.639248 118.08 
L 167.052141 118.08 
L 167.052141 96.568889 
L 165.639248 96.568889 
z
" style="fill:#ffffff;"/>
   </g>
   <g id="patch_187">
    <path clip-path="url(#p88f5c44990)" d="M 167.052141 118.08 
L 168.465035 118.08 
L 168.465035 96.568889 
L 167.052141 96.568889 
z
" style="fill:#ffffff;"/>
   </g>
   <g id="patch_188">
    <path clip-path="url(#p88f5c44990)" d="M 168.465035 118.08 
L 169.877929 118.08 
L 169.877929 94.613333 
L 168.465035 94.613333 
z
" style="fill:#ffffff;"/>
   </g>
   <g id="patch_189">
    <path clip-path="url(#p88f5c44990)" d="M 169.877929 118.08 
L 171.290822 118.08 
L 171.290822 112.213333 
L 169.877929 112.213333 
z
" style="fill:#ffffff;"/>
   </g>
   <g id="patch_190">
    <path clip-path="url(#p88f5c44990)" d="M 171.290822 118.08 
L 172.703716 118.08 
L 172.703716 90.702222 
L 171.290822 90.702222 
z
" style="fill:#ffffff;"/>
   </g>
   <g id="patch_191">
    <path clip-path="url(#p88f5c44990)" d="M 172.703716 118.08 
L 174.11661 118.08 
L 174.11661 100.48 
L 172.703716 100.48 
z
" style="fill:#ffffff;"/>
   </g>
   <g id="patch_192">
    <path clip-path="url(#p88f5c44990)" d="M 174.11661 118.08 
L 175.529503 118.08 
L 175.529503 110.257778 
L 174.11661 110.257778 
z
" style="fill:#ffffff;"/>
   </g>
   <g id="patch_193">
    <path clip-path="url(#p88f5c44990)" d="M 175.529503 118.08 
L 176.942397 118.08 
L 176.942397 110.257778 
L 175.529503 110.257778 
z
" style="fill:#ffffff;"/>
   </g>
   <g id="patch_194">
    <path clip-path="url(#p88f5c44990)" d="M 176.942397 118.08 
L 178.355291 118.08 
L 178.355291 110.257778 
L 176.942397 110.257778 
z
" style="fill:#ffffff;"/>
   </g>
   <g id="patch_195">
    <path clip-path="url(#p88f5c44990)" d="M 178.355291 118.08 
L 179.768184 118.08 
L 179.768184 104.391111 
L 178.355291 104.391111 
z
" style="fill:#ffffff;"/>
   </g>
   <g id="patch_196">
    <path clip-path="url(#p88f5c44990)" d="M 179.768184 118.08 
L 181.181078 118.08 
L 181.181078 116.124444 
L 179.768184 116.124444 
z
" style="fill:#ffffff;"/>
   </g>
   <g id="patch_197">
    <path clip-path="url(#p88f5c44990)" d="M 181.181078 118.08 
L 182.593972 118.08 
L 182.593972 112.213333 
L 181.181078 112.213333 
z
" style="fill:#ffffff;"/>
   </g>
   <g id="patch_198">
    <path clip-path="url(#p88f5c44990)" d="M 182.593972 118.08 
L 184.006865 118.08 
L 184.006865 114.168889 
L 182.593972 114.168889 
z
" style="fill:#ffffff;"/>
   </g>
   <g id="patch_199">
    <path clip-path="url(#p88f5c44990)" d="M 184.006865 118.08 
L 185.419759 118.08 
L 185.419759 116.124444 
L 184.006865 116.124444 
z
" style="fill:#ffffff;"/>
   </g>
   <g id="patch_200">
    <path clip-path="url(#p88f5c44990)" d="M 185.419759 118.08 
L 186.832653 118.08 
L 186.832653 114.168889 
L 185.419759 114.168889 
z
" style="fill:#ffffff;"/>
   </g>
   <g id="patch_201">
    <path clip-path="url(#p88f5c44990)" d="M 186.832653 118.08 
L 188.245546 118.08 
L 188.245546 114.168889 
L 186.832653 114.168889 
z
" style="fill:#ffffff;"/>
   </g>
   <g id="patch_202">
    <path clip-path="url(#p88f5c44990)" d="M 188.245546 118.08 
L 189.65844 118.08 
L 189.65844 116.124444 
L 188.245546 116.124444 
z
" style="fill:#ffffff;"/>
   </g>
   <g id="matplotlib.axis_1">
    <g id="xtick_1">
     <g id="line2d_1">
      <defs>
       <path d="M 0 0 
L 0 3.5 
" id="mbbc50c49ae" style="stroke:#000000;stroke-width:1.5;"/>
      </defs>
      <g>
       <use style="stroke:#000000;stroke-width:1.5;" x="67.61472" xlink:href="#mbbc50c49ae" y="118.08"/>
      </g>
     </g>
     <g id="text_1">
      <text style="font-family:DejaVu Sans;font-size:8px;font-stretch:normal;font-style:normal;font-weight:normal;text-anchor:middle;" transform="rotate(-0, 67.61472, 131.15875)" x="67.61472" y="131.15875">1</text>
     </g>
    </g>
    <g id="xtick_2">
     <g id="line2d_2">
      <g>
       <use style="stroke:#000000;stroke-width:1.5;" x="99.762267" xlink:href="#mbbc50c49ae" y="118.08"/>
      </g>
     </g>
     <g id="text_2">
      <text style="font-family:DejaVu Sans;font-size:8px;font-stretch:normal;font-style:normal;font-weight:normal;text-anchor:middle;" transform="rotate(-0, 99.762267, 131.15875)" x="99.762267" y="131.15875">2</text>
     </g>
    </g>
    <g id="xtick_3">
     <g id="line2d_3">
      <g>
       <use style="stroke:#000000;stroke-width:1.5;" x="131.909813" xlink:href="#mbbc50c49ae" y="118.08"/>
      </g>
     </g>
     <g id="text_3">
      <text style="font-family:DejaVu Sans;font-size:8px;font-stretch:normal;font-style:normal;font-weight:normal;text-anchor:middle;" transform="rotate(-0, 131.909813, 131.15875)" x="131.909813" y="131.15875">3</text>
     </g>
    </g>
    <g id="xtick_4">
     <g id="line2d_4">
      <g>
       <use style="stroke:#000000;stroke-width:1.5;" x="164.057359" xlink:href="#mbbc50c49ae" y="118.08"/>
      </g>
     </g>
     <g id="text_4">
      <text style="font-family:DejaVu Sans;font-size:8px;font-stretch:normal;font-style:normal;font-weight:normal;text-anchor:middle;" transform="rotate(-0, 164.057359, 131.15875)" x="164.057359" y="131.15875">4</text>
     </g>
    </g>
    <g id="xtick_5">
     <g id="line2d_5">
      <g>
       <use style="stroke:#000000;stroke-width:1.5;" x="196.204906" xlink:href="#mbbc50c49ae" y="118.08"/>
      </g>
     </g>
     <g id="text_5">
      <text style="font-family:DejaVu Sans;font-size:8px;font-stretch:normal;font-style:normal;font-weight:normal;text-anchor:middle;" transform="rotate(-0, 196.204906, 131.15875)" x="196.204906" y="131.15875">5</text>
     </g>
    </g>
    <g id="text_6">
     <!-- Energy / spike  $\mu J$ -->
     <g transform="translate(85.0625 142.9025)">
      <text>
       <tspan style="font-family:DejaVu Sans;font-size:8px;font-style:book;font-weight:book;" x="0 5.054688 10.125 15.046875 18.335938 23.414062 28.148438 30.691406 33.386719 35.929688 40.097656 45.175781 47.398438 52.03125 56.953125 59.496094 62.039062 67.128906" y="-0.921875">Energy / spike  μJ</tspan>
      </text>
     </g>
    </g>
   </g>
   <g id="matplotlib.axis_2">
    <g id="ytick_1">
     <g id="line2d_6">
      <defs>
       <path d="M 0 0 
L -3.5 0 
" id="m804130a134" style="stroke:#000000;stroke-width:1.5;"/>
      </defs>
      <g>
       <use style="stroke:#000000;stroke-width:1.5;" x="36.1225" xlink:href="#m804130a134" y="118.08"/>
      </g>
     </g>
     <g id="text_7">
      <text style="font-family:DejaVu Sans;font-size:8px;font-stretch:normal;font-style:normal;font-weight:normal;text-anchor:end;" transform="rotate(-0, 29.1225, 121.119375)" x="29.1225" y="121.119375">0</text>
     </g>
    </g>
    <g id="ytick_2">
     <g id="line2d_7">
      <g>
       <use style="stroke:#000000;stroke-width:1.5;" x="36.1225" xlink:href="#m804130a134" y="98.524444"/>
      </g>
     </g>
     <g id="text_8">
      <text style="font-family:DejaVu Sans;font-size:8px;font-stretch:normal;font-style:normal;font-weight:normal;text-anchor:end;" transform="rotate(-0, 29.1225, 101.563819)" x="29.1225" y="101.563819">10</text>
     </g>
    </g>
    <g id="ytick_3">
     <g id="line2d_8">
      <g>
       <use style="stroke:#000000;stroke-width:1.5;" x="36.1225" xlink:href="#m804130a134" y="78.968889"/>
      </g>
     </g>
     <g id="text_9">
      <text style="font-family:DejaVu Sans;font-size:8px;font-stretch:normal;font-style:normal;font-weight:normal;text-anchor:end;" transform="rotate(-0, 29.1225, 82.008264)" x="29.1225" y="82.008264">20</text>
     </g>
    </g>
    <g id="ytick_4">
     <g id="line2d_9">
      <g>
       <use style="stroke:#000000;stroke-width:1.5;" x="36.1225" xlink:href="#m804130a134" y="59.413333"/>
      </g>
     </g>
     <g id="text_10">
      <text style="font-family:DejaVu Sans;font-size:8px;font-stretch:normal;font-style:normal;font-weight:normal;text-anchor:end;" transform="rotate(-0, 29.1225, 62.452708)" x="29.1225" y="62.452708">30</text>
     </g>
    </g>
    <g id="ytick_5">
     <g id="line2d_10">
      <g>
       <use style="stroke:#000000;stroke-width:1.5;" x="36.1225" xlink:href="#m804130a134" y="39.857778"/>
      </g>
     </g>
     <g id="text_11">
      <text style="font-family:DejaVu Sans;font-size:8px;font-stretch:normal;font-style:normal;font-weight:normal;text-anchor:end;" transform="rotate(-0, 29.1225, 42.897153)" x="29.1225" y="42.897153">40</text>
     </g>
    </g>
    <g id="ytick_6">
     <g id="line2d_11">
      <g>
       <use style="stroke:#000000;stroke-width:1.5;" x="36.1225" xlink:href="#m804130a134" y="20.302222"/>
      </g>
     </g>
     <g id="text_12">
      <text style="font-family:DejaVu Sans;font-size:8px;font-stretch:normal;font-style:normal;font-weight:normal;text-anchor:end;" transform="rotate(-0, 29.1225, 23.341597)" x="29.1225" y="23.341597">50</text>
     </g>
    </g>
    <g id="text_13">
     <text style="font-family:DejaVu Sans;font-size:8px;font-stretch:normal;font-style:normal;font-weight:normal;text-anchor:middle;" transform="rotate(-90, 13.27875, 62.64)" x="13.27875" y="62.64">Count</text>
    </g>
   </g>
   <g id="line2d_12">
    <path clip-path="url(#p88f5c44990)" d="M 44.4925 114.168889 
L 46.014318 116.124444 
L 47.536136 116.124444 
L 49.057955 110.257778 
L 50.579773 96.568889 
L 52.101591 88.746667 
L 53.623409 98.524444 
L 55.145227 100.48 
L 56.667045 106.346667 
L 58.188864 94.613333 
L 59.710682 78.968889 
L 61.2325 84.835556 
L 62.754318 69.191111 
L 64.276136 80.924444 
L 65.797955 59.413333 
L 67.319773 43.768889 
L 68.841591 65.28 
L 70.363409 53.546667 
L 71.885227 77.013333 
L 73.407045 67.235556 
L 74.928864 37.902222 
L 76.450682 49.635556 
L 77.9725 33.991111 
L 79.494318 35.946667 
L 81.016136 24.213333 
L 82.537955 67.235556 
L 84.059773 33.991111 
L 85.581591 33.991111 
L 87.103409 57.457778 
L 88.625227 59.413333 
L 90.147045 18.346667 
L 91.668864 32.035556 
L 93.190682 18.346667 
L 94.7125 26.168889 
L 96.234318 32.035556 
L 97.756136 20.302222 
L 99.277955 41.813333 
L 100.799773 49.635556 
L 102.321591 22.257778 
L 103.843409 24.213333 
L 105.365227 20.302222 
L 106.887045 37.902222 
L 108.408864 39.857778 
L 109.930682 24.213333 
L 111.4525 51.591111 
L 112.974318 35.946667 
L 114.496136 43.768889 
L 116.017955 43.768889 
L 117.539773 20.302222 
L 119.061591 22.257778 
L 120.583409 39.857778 
L 122.105227 47.68 
L 123.627045 47.68 
L 125.148864 35.946667 
L 126.670682 35.946667 
L 128.1925 37.902222 
L 129.714318 65.28 
L 131.236136 45.724444 
L 132.757955 57.457778 
L 134.279773 47.68 
L 135.801591 57.457778 
L 137.323409 28.124444 
L 138.845227 47.68 
L 140.367045 67.235556 
L 141.888864 67.235556 
L 143.410682 53.546667 
L 144.9325 80.924444 
L 146.454318 53.546667 
L 147.976136 78.968889 
L 149.497955 77.013333 
L 151.019773 53.546667 
L 152.541591 67.235556 
L 154.063409 67.235556 
L 155.585227 65.28 
L 157.107045 73.102222 
L 158.628864 75.057778 
L 160.150682 78.968889 
L 161.6725 92.657778 
L 163.194318 96.568889 
L 164.716136 80.924444 
L 166.237955 104.391111 
L 167.759773 100.48 
L 169.281591 80.924444 
L 170.803409 102.435556 
L 172.325227 98.524444 
L 173.847045 104.391111 
L 175.368864 108.302222 
L 176.890682 110.257778 
L 178.4125 110.257778 
L 179.934318 110.257778 
L 181.456136 110.257778 
L 182.977955 110.257778 
L 184.499773 114.168889 
L 186.021591 112.213333 
L 187.543409 118.08 
L 189.065227 118.08 
L 190.587045 118.08 
L 192.108864 118.08 
L 193.630682 116.124444 
L 195.1525 114.168889 
" style="fill:none;stroke:#1f77b4;stroke-linecap:square;stroke-width:1.5;"/>
   </g>
   <g id="line2d_13">
    <path clip-path="url(#p88f5c44990)" d="M 49.129983 108.302222 
L 50.542877 112.213333 
L 51.95577 114.168889 
L 53.368664 104.391111 
L 54.781558 112.213333 
L 56.194451 100.48 
L 57.607345 100.48 
L 59.020239 88.746667 
L 60.433132 77.013333 
L 61.846026 86.791111 
L 63.25892 96.568889 
L 64.671813 80.924444 
L 66.084707 71.146667 
L 67.497601 84.835556 
L 68.910494 61.368889 
L 70.323388 57.457778 
L 71.736282 80.924444 
L 73.149175 57.457778 
L 74.562069 53.546667 
L 75.974963 67.235556 
L 77.387856 69.191111 
L 78.80075 67.235556 
L 80.213644 59.413333 
L 81.626537 55.502222 
L 83.039431 45.724444 
L 84.452325 49.635556 
L 85.865218 45.724444 
L 87.278112 30.08 
L 88.691006 47.68 
L 90.103899 32.035556 
L 91.516793 28.124444 
L 92.929687 45.724444 
L 94.34258 49.635556 
L 95.755474 33.991111 
L 97.168367 18.346667 
L 98.581261 37.902222 
L 99.994155 28.124444 
L 101.407048 47.68 
L 102.819942 24.213333 
L 104.232836 18.346667 
L 105.645729 18.346667 
L 107.058623 33.991111 
L 108.471517 37.902222 
L 109.88441 49.635556 
L 111.297304 12.48 
L 112.710198 49.635556 
L 114.123091 37.902222 
L 115.535985 45.724444 
L 116.948879 61.368889 
L 118.361772 37.902222 
L 119.774666 37.902222 
L 121.18756 57.457778 
L 122.600453 41.813333 
L 124.013347 41.813333 
L 125.426241 41.813333 
L 126.839134 41.813333 
L 128.252028 51.591111 
L 129.664922 55.502222 
L 131.077815 45.724444 
L 132.490709 30.08 
L 133.903603 33.991111 
L 135.316496 49.635556 
L 136.72939 55.502222 
L 138.142284 41.813333 
L 139.555177 65.28 
L 140.968071 43.768889 
L 142.380965 61.368889 
L 143.793858 63.324444 
L 145.206752 49.635556 
L 146.619646 65.28 
L 148.032539 63.324444 
L 149.445433 75.057778 
L 150.858327 63.324444 
L 152.27122 84.835556 
L 153.684114 84.835556 
L 155.097007 78.968889 
L 156.509901 69.191111 
L 157.922795 88.746667 
L 159.335688 86.791111 
L 160.748582 78.968889 
L 162.161476 90.702222 
L 163.574369 84.835556 
L 164.987263 94.613333 
L 166.400157 96.568889 
L 167.81305 96.568889 
L 169.225944 94.613333 
L 170.638838 112.213333 
L 172.051731 90.702222 
L 173.464625 100.48 
L 174.877519 110.257778 
L 176.290412 110.257778 
L 177.703306 110.257778 
L 179.1162 104.391111 
L 180.529093 116.124444 
L 181.941987 112.213333 
L 183.354881 114.168889 
L 184.767774 116.124444 
L 186.180668 114.168889 
L 187.593562 114.168889 
L 189.006455 116.124444 
" style="fill:none;stroke:#ff7f0e;stroke-linecap:square;stroke-width:1.5;"/>
   </g>
   <g id="patch_203">
    <path d="M 36.1225 118.08 
L 36.1225 7.2 
" style="fill:none;stroke:#000000;stroke-linecap:square;stroke-linejoin:miter;stroke-width:1.5;"/>
   </g>
   <g id="patch_204">
    <path d="M 36.1225 118.08 
L 203.5225 118.08 
" style="fill:none;stroke:#000000;stroke-linecap:square;stroke-linejoin:miter;stroke-width:1.5;"/>
   </g>
   <g id="legend_1">
    <g id="line2d_14">
     <path d="M 146.12 17.67875 
L 162.12 17.67875 
" style="fill:none;stroke:#1f77b4;stroke-linecap:square;stroke-width:1.5;"/>
    </g>
    <g id="line2d_15"/>
    <g id="text_14">
     <text style="font-family:DejaVu Sans;font-size:8px;font-stretch:normal;font-style:normal;font-weight:normal;text-anchor:start;" transform="rotate(-0, 168.52, 20.47875)" x="168.52" y="20.47875">11 deg</text>
    </g>
    <g id="line2d_16">
     <path d="M 146.12 29.42125 
L 162.12 29.42125 
" style="fill:none;stroke:#ff7f0e;stroke-linecap:square;stroke-width:1.5;"/>
    </g>
    <g id="line2d_17"/>
    <g id="text_15">
     <text style="font-family:DejaVu Sans;font-size:8px;font-stretch:normal;font-style:normal;font-weight:normal;text-anchor:start;" transform="rotate(-0, 168.52, 32.22125)" x="168.52" y="32.22125">27 deg</text>
    </g>
   </g>
  </g>
 </g>
 <defs>
  <clipPath id="p88f5c44990">
   <rect height="110.88" width="167.4" x="36.1225" y="7.2"/>
  </clipPath>
 </defs>
</svg>
