<?xml version="1.0" encoding="utf-8" standalone="no"?>
<!DOCTYPE svg PUBLIC "-//W3C//DTD SVG 1.1//EN"
  "http://www.w3.org/Graphics/SVG/1.1/DTD/svg11.dtd">
<!-- Created with matplotlib (https://matplotlib.org/) -->
<svg height="151.7825pt" version="1.1" viewBox="0 0 215.8125 151.7825" width="215.8125pt" xmlns="http://www.w3.org/2000/svg" xmlns:xlink="http://www.w3.org/1999/xlink">
 <metadata>
  <rdf:RDF xmlns:cc="http://creativecommons.org/ns#" xmlns:dc="http://purl.org/dc/elements/1.1/" xmlns:rdf="http://www.w3.org/1999/02/22-rdf-syntax-ns#">
   <cc:Work>
    <dc:type rdf:resource="http://purl.org/dc/dcmitype/StillImage"/>
    <dc:date>2020-10-05T14:04:54.396682</dc:date>
    <dc:format>image/svg+xml</dc:format>
    <dc:creator>
     <cc:Agent>
      <dc:title>Matplotlib v3.3.2, https://matplotlib.org/</dc:title>
     </cc:Agent>
    </dc:creator>
   </cc:Work>
  </rdf:RDF>
 </metadata>
 <defs>
  <style type="text/css">*{stroke-linecap:butt;stroke-linejoin:round;}</style>
 </defs>
 <g id="figure_1">
  <g id="patch_1">
   <path d="M -0 151.7825 
L 215.8125 151.7825 
L 215.8125 0 
L -0 0 
z
" style="fill:none;"/>
  </g>
  <g id="axes_1">
   <g id="patch_2">
    <path d="M 41.2125 118.08 
L 208.6125 118.08 
L 208.6125 7.2 
L 41.2125 7.2 
z
" style="fill:none;"/>
   </g>
   <g id="patch_3">
    <path clip-path="url(#p6c0da565db)" d="M 48.821591 118.08 
L 50.343409 118.08 
L 50.343409 115.488589 
L 48.821591 115.488589 
z
" style="fill:#ffffff;"/>
   </g>
   <g id="patch_4">
    <path clip-path="url(#p6c0da565db)" d="M 50.343409 118.08 
L 51.865227 118.08 
L 51.865227 114.51681 
L 50.343409 114.51681 
z
" style="fill:#ffffff;"/>
   </g>
   <g id="patch_5">
    <path clip-path="url(#p6c0da565db)" d="M 51.865227 118.08 
L 53.387045 118.08 
L 53.387045 115.164663 
L 51.865227 115.164663 
z
" style="fill:#ffffff;"/>
   </g>
   <g id="patch_6">
    <path clip-path="url(#p6c0da565db)" d="M 53.387045 118.08 
L 54.908864 118.08 
L 54.908864 109.657914 
L 53.387045 109.657914 
z
" style="fill:#ffffff;"/>
   </g>
   <g id="patch_7">
    <path clip-path="url(#p6c0da565db)" d="M 54.908864 118.08 
L 56.430682 118.08 
L 56.430682 102.85546 
L 54.908864 102.85546 
z
" style="fill:#ffffff;"/>
   </g>
   <g id="patch_8">
    <path clip-path="url(#p6c0da565db)" d="M 56.430682 118.08 
L 57.9525 118.08 
L 57.9525 96.376933 
L 56.430682 96.376933 
z
" style="fill:#ffffff;"/>
   </g>
   <g id="patch_9">
    <path clip-path="url(#p6c0da565db)" d="M 57.9525 118.08 
L 59.474318 118.08 
L 59.474318 93.785521 
L 57.9525 93.785521 
z
" style="fill:#ffffff;"/>
   </g>
   <g id="patch_10">
    <path clip-path="url(#p6c0da565db)" d="M 59.474318 118.08 
L 60.996136 118.08 
L 60.996136 91.19411 
L 59.474318 91.19411 
z
" style="fill:#ffffff;"/>
   </g>
   <g id="patch_11">
    <path clip-path="url(#p6c0da565db)" d="M 60.996136 118.08 
L 62.517955 118.08 
L 62.517955 86.335215 
L 60.996136 86.335215 
z
" style="fill:#ffffff;"/>
   </g>
   <g id="patch_12">
    <path clip-path="url(#p6c0da565db)" d="M 62.517955 118.08 
L 64.039773 118.08 
L 64.039773 83.743804 
L 62.517955 83.743804 
z
" style="fill:#ffffff;"/>
   </g>
   <g id="patch_13">
    <path clip-path="url(#p6c0da565db)" d="M 64.039773 118.08 
L 65.561591 118.08 
L 65.561591 74.349939 
L 64.039773 74.349939 
z
" style="fill:#ffffff;"/>
   </g>
   <g id="patch_14">
    <path clip-path="url(#p6c0da565db)" d="M 65.561591 118.08 
L 67.083409 118.08 
L 67.083409 72.40638 
L 65.561591 72.40638 
z
" style="fill:#ffffff;"/>
   </g>
   <g id="patch_15">
    <path clip-path="url(#p6c0da565db)" d="M 67.083409 118.08 
L 68.605227 118.08 
L 68.605227 69.814969 
L 67.083409 69.814969 
z
" style="fill:#ffffff;"/>
   </g>
   <g id="patch_16">
    <path clip-path="url(#p6c0da565db)" d="M 68.605227 118.08 
L 70.127045 118.08 
L 70.127045 64.956074 
L 68.605227 64.956074 
z
" style="fill:#ffffff;"/>
   </g>
   <g id="patch_17">
    <path clip-path="url(#p6c0da565db)" d="M 70.127045 118.08 
L 71.648864 118.08 
L 71.648864 60.097178 
L 70.127045 60.097178 
z
" style="fill:#ffffff;"/>
   </g>
   <g id="patch_18">
    <path clip-path="url(#p6c0da565db)" d="M 71.648864 118.08 
L 73.170682 118.08 
L 73.170682 52.322945 
L 71.648864 52.322945 
z
" style="fill:#ffffff;"/>
   </g>
   <g id="patch_19">
    <path clip-path="url(#p6c0da565db)" d="M 73.170682 118.08 
L 74.6925 118.08 
L 74.6925 49.731534 
L 73.170682 49.731534 
z
" style="fill:#ffffff;"/>
   </g>
   <g id="patch_20">
    <path clip-path="url(#p6c0da565db)" d="M 74.6925 118.08 
L 76.214318 118.08 
L 76.214318 55.886135 
L 74.6925 55.886135 
z
" style="fill:#ffffff;"/>
   </g>
   <g id="patch_21">
    <path clip-path="url(#p6c0da565db)" d="M 76.214318 118.08 
L 77.736136 118.08 
L 77.736136 51.999018 
L 76.214318 51.999018 
z
" style="fill:#ffffff;"/>
   </g>
   <g id="patch_22">
    <path clip-path="url(#p6c0da565db)" d="M 77.736136 118.08 
L 79.257955 118.08 
L 79.257955 52.322945 
L 77.736136 52.322945 
z
" style="fill:#ffffff;"/>
   </g>
   <g id="patch_23">
    <path clip-path="url(#p6c0da565db)" d="M 79.257955 118.08 
L 80.779773 118.08 
L 80.779773 41.957301 
L 79.257955 41.957301 
z
" style="fill:#ffffff;"/>
   </g>
   <g id="patch_24">
    <path clip-path="url(#p6c0da565db)" d="M 80.779773 118.08 
L 82.301591 118.08 
L 82.301591 41.957301 
L 80.779773 41.957301 
z
" style="fill:#ffffff;"/>
   </g>
   <g id="patch_25">
    <path clip-path="url(#p6c0da565db)" d="M 82.301591 118.08 
L 83.823409 118.08 
L 83.823409 33.535215 
L 82.301591 33.535215 
z
" style="fill:#ffffff;"/>
   </g>
   <g id="patch_26">
    <path clip-path="url(#p6c0da565db)" d="M 83.823409 118.08 
L 85.345227 118.08 
L 85.345227 36.774479 
L 83.823409 36.774479 
z
" style="fill:#ffffff;"/>
   </g>
   <g id="patch_27">
    <path clip-path="url(#p6c0da565db)" d="M 85.345227 118.08 
L 86.867045 118.08 
L 86.867045 31.591656 
L 85.345227 31.591656 
z
" style="fill:#ffffff;"/>
   </g>
   <g id="patch_28">
    <path clip-path="url(#p6c0da565db)" d="M 86.867045 118.08 
L 88.388864 118.08 
L 88.388864 36.774479 
L 86.867045 36.774479 
z
" style="fill:#ffffff;"/>
   </g>
   <g id="patch_29">
    <path clip-path="url(#p6c0da565db)" d="M 88.388864 118.08 
L 89.910682 118.08 
L 89.910682 32.563436 
L 88.388864 32.563436 
z
" style="fill:#ffffff;"/>
   </g>
   <g id="patch_30">
    <path clip-path="url(#p6c0da565db)" d="M 89.910682 118.08 
L 91.4325 118.08 
L 91.4325 30.619877 
L 89.910682 30.619877 
z
" style="fill:#ffffff;"/>
   </g>
   <g id="patch_31">
    <path clip-path="url(#p6c0da565db)" d="M 91.4325 118.08 
L 92.954318 118.08 
L 92.954318 31.915583 
L 91.4325 31.915583 
z
" style="fill:#ffffff;"/>
   </g>
   <g id="patch_32">
    <path clip-path="url(#p6c0da565db)" d="M 92.954318 118.08 
L 94.476136 118.08 
L 94.476136 31.26773 
L 92.954318 31.26773 
z
" style="fill:#ffffff;"/>
   </g>
   <g id="patch_33">
    <path clip-path="url(#p6c0da565db)" d="M 94.476136 118.08 
L 95.997955 118.08 
L 95.997955 32.563436 
L 94.476136 32.563436 
z
" style="fill:#ffffff;"/>
   </g>
   <g id="patch_34">
    <path clip-path="url(#p6c0da565db)" d="M 95.997955 118.08 
L 97.519773 118.08 
L 97.519773 23.169571 
L 95.997955 23.169571 
z
" style="fill:#ffffff;"/>
   </g>
   <g id="patch_35">
    <path clip-path="url(#p6c0da565db)" d="M 97.519773 118.08 
L 99.041591 118.08 
L 99.041591 26.732761 
L 97.519773 26.732761 
z
" style="fill:#ffffff;"/>
   </g>
   <g id="patch_36">
    <path clip-path="url(#p6c0da565db)" d="M 99.041591 118.08 
L 100.563409 118.08 
L 100.563409 32.239509 
L 99.041591 32.239509 
z
" style="fill:#ffffff;"/>
   </g>
   <g id="patch_37">
    <path clip-path="url(#p6c0da565db)" d="M 100.563409 118.08 
L 102.085227 118.08 
L 102.085227 29.000245 
L 100.563409 29.000245 
z
" style="fill:#ffffff;"/>
   </g>
   <g id="patch_38">
    <path clip-path="url(#p6c0da565db)" d="M 102.085227 118.08 
L 103.607045 118.08 
L 103.607045 22.845644 
L 102.085227 22.845644 
z
" style="fill:#ffffff;"/>
   </g>
   <g id="patch_39">
    <path clip-path="url(#p6c0da565db)" d="M 103.607045 118.08 
L 105.128864 118.08 
L 105.128864 28.676319 
L 103.607045 28.676319 
z
" style="fill:#ffffff;"/>
   </g>
   <g id="patch_40">
    <path clip-path="url(#p6c0da565db)" d="M 105.128864 118.08 
L 106.650682 118.08 
L 106.650682 24.789202 
L 105.128864 24.789202 
z
" style="fill:#ffffff;"/>
   </g>
   <g id="patch_41">
    <path clip-path="url(#p6c0da565db)" d="M 106.650682 118.08 
L 108.1725 118.08 
L 108.1725 26.084908 
L 106.650682 26.084908 
z
" style="fill:#ffffff;"/>
   </g>
   <g id="patch_42">
    <path clip-path="url(#p6c0da565db)" d="M 108.1725 118.08 
L 109.694318 118.08 
L 109.694318 28.676319 
L 108.1725 28.676319 
z
" style="fill:#ffffff;"/>
   </g>
   <g id="patch_43">
    <path clip-path="url(#p6c0da565db)" d="M 109.694318 118.08 
L 111.216136 118.08 
L 111.216136 30.295951 
L 109.694318 30.295951 
z
" style="fill:#ffffff;"/>
   </g>
   <g id="patch_44">
    <path clip-path="url(#p6c0da565db)" d="M 111.216136 118.08 
L 112.737955 118.08 
L 112.737955 26.084908 
L 111.216136 26.084908 
z
" style="fill:#ffffff;"/>
   </g>
   <g id="patch_45">
    <path clip-path="url(#p6c0da565db)" d="M 112.737955 118.08 
L 114.259773 118.08 
L 114.259773 31.26773 
L 112.737955 31.26773 
z
" style="fill:#ffffff;"/>
   </g>
   <g id="patch_46">
    <path clip-path="url(#p6c0da565db)" d="M 114.259773 118.08 
L 115.781591 118.08 
L 115.781591 29.648098 
L 114.259773 29.648098 
z
" style="fill:#ffffff;"/>
   </g>
   <g id="patch_47">
    <path clip-path="url(#p6c0da565db)" d="M 115.781591 118.08 
L 117.303409 118.08 
L 117.303409 27.70454 
L 115.781591 27.70454 
z
" style="fill:#ffffff;"/>
   </g>
   <g id="patch_48">
    <path clip-path="url(#p6c0da565db)" d="M 117.303409 118.08 
L 118.825227 118.08 
L 118.825227 30.295951 
L 117.303409 30.295951 
z
" style="fill:#ffffff;"/>
   </g>
   <g id="patch_49">
    <path clip-path="url(#p6c0da565db)" d="M 118.825227 118.08 
L 120.347045 118.08 
L 120.347045 34.506994 
L 118.825227 34.506994 
z
" style="fill:#ffffff;"/>
   </g>
   <g id="patch_50">
    <path clip-path="url(#p6c0da565db)" d="M 120.347045 118.08 
L 121.868864 118.08 
L 121.868864 26.408834 
L 120.347045 26.408834 
z
" style="fill:#ffffff;"/>
   </g>
   <g id="patch_51">
    <path clip-path="url(#p6c0da565db)" d="M 121.868864 118.08 
L 123.390682 118.08 
L 123.390682 30.295951 
L 121.868864 30.295951 
z
" style="fill:#ffffff;"/>
   </g>
   <g id="patch_52">
    <path clip-path="url(#p6c0da565db)" d="M 123.390682 118.08 
L 124.9125 118.08 
L 124.9125 31.591656 
L 123.390682 31.591656 
z
" style="fill:#ffffff;"/>
   </g>
   <g id="patch_53">
    <path clip-path="url(#p6c0da565db)" d="M 124.9125 118.08 
L 126.434318 118.08 
L 126.434318 36.126626 
L 124.9125 36.126626 
z
" style="fill:#ffffff;"/>
   </g>
   <g id="patch_54">
    <path clip-path="url(#p6c0da565db)" d="M 126.434318 118.08 
L 127.956136 118.08 
L 127.956136 39.041963 
L 126.434318 39.041963 
z
" style="fill:#ffffff;"/>
   </g>
   <g id="patch_55">
    <path clip-path="url(#p6c0da565db)" d="M 127.956136 118.08 
L 129.477955 118.08 
L 129.477955 41.309448 
L 127.956136 41.309448 
z
" style="fill:#ffffff;"/>
   </g>
   <g id="patch_56">
    <path clip-path="url(#p6c0da565db)" d="M 129.477955 118.08 
L 130.999773 118.08 
L 130.999773 40.661595 
L 129.477955 40.661595 
z
" style="fill:#ffffff;"/>
   </g>
   <g id="patch_57">
    <path clip-path="url(#p6c0da565db)" d="M 130.999773 118.08 
L 132.521591 118.08 
L 132.521591 38.718037 
L 130.999773 38.718037 
z
" style="fill:#ffffff;"/>
   </g>
   <g id="patch_58">
    <path clip-path="url(#p6c0da565db)" d="M 132.521591 118.08 
L 134.043409 118.08 
L 134.043409 46.49227 
L 132.521591 46.49227 
z
" style="fill:#ffffff;"/>
   </g>
   <g id="patch_59">
    <path clip-path="url(#p6c0da565db)" d="M 134.043409 118.08 
L 135.565227 118.08 
L 135.565227 43.253006 
L 134.043409 43.253006 
z
" style="fill:#ffffff;"/>
   </g>
   <g id="patch_60">
    <path clip-path="url(#p6c0da565db)" d="M 135.565227 118.08 
L 137.087045 118.08 
L 137.087045 44.224785 
L 135.565227 44.224785 
z
" style="fill:#ffffff;"/>
   </g>
   <g id="patch_61">
    <path clip-path="url(#p6c0da565db)" d="M 137.087045 118.08 
L 138.608864 118.08 
L 138.608864 45.196564 
L 137.087045 45.196564 
z
" style="fill:#ffffff;"/>
   </g>
   <g id="patch_62">
    <path clip-path="url(#p6c0da565db)" d="M 138.608864 118.08 
L 140.130682 118.08 
L 140.130682 52.646871 
L 138.608864 52.646871 
z
" style="fill:#ffffff;"/>
   </g>
   <g id="patch_63">
    <path clip-path="url(#p6c0da565db)" d="M 140.130682 118.08 
L 141.6525 118.08 
L 141.6525 45.844417 
L 140.130682 45.844417 
z
" style="fill:#ffffff;"/>
   </g>
   <g id="patch_64">
    <path clip-path="url(#p6c0da565db)" d="M 141.6525 118.08 
L 143.174318 118.08 
L 143.174318 50.703313 
L 141.6525 50.703313 
z
" style="fill:#ffffff;"/>
   </g>
   <g id="patch_65">
    <path clip-path="url(#p6c0da565db)" d="M 143.174318 118.08 
L 144.696136 118.08 
L 144.696136 49.731534 
L 143.174318 49.731534 
z
" style="fill:#ffffff;"/>
   </g>
   <g id="patch_66">
    <path clip-path="url(#p6c0da565db)" d="M 144.696136 118.08 
L 146.217955 118.08 
L 146.217955 62.364663 
L 144.696136 62.364663 
z
" style="fill:#ffffff;"/>
   </g>
   <g id="patch_67">
    <path clip-path="url(#p6c0da565db)" d="M 146.217955 118.08 
L 147.739773 118.08 
L 147.739773 62.364663 
L 146.217955 62.364663 
z
" style="fill:#ffffff;"/>
   </g>
   <g id="patch_68">
    <path clip-path="url(#p6c0da565db)" d="M 147.739773 118.08 
L 149.261591 118.08 
L 149.261591 63.012515 
L 147.739773 63.012515 
z
" style="fill:#ffffff;"/>
   </g>
   <g id="patch_69">
    <path clip-path="url(#p6c0da565db)" d="M 149.261591 118.08 
L 150.783409 118.08 
L 150.783409 54.914356 
L 149.261591 54.914356 
z
" style="fill:#ffffff;"/>
   </g>
   <g id="patch_70">
    <path clip-path="url(#p6c0da565db)" d="M 150.783409 118.08 
L 152.305227 118.08 
L 152.305227 59.449325 
L 150.783409 59.449325 
z
" style="fill:#ffffff;"/>
   </g>
   <g id="patch_71">
    <path clip-path="url(#p6c0da565db)" d="M 152.305227 118.08 
L 153.827045 118.08 
L 153.827045 64.632147 
L 152.305227 64.632147 
z
" style="fill:#ffffff;"/>
   </g>
   <g id="patch_72">
    <path clip-path="url(#p6c0da565db)" d="M 153.827045 118.08 
L 155.348864 118.08 
L 155.348864 62.364663 
L 153.827045 62.364663 
z
" style="fill:#ffffff;"/>
   </g>
   <g id="patch_73">
    <path clip-path="url(#p6c0da565db)" d="M 155.348864 118.08 
L 156.870682 118.08 
L 156.870682 66.575706 
L 155.348864 66.575706 
z
" style="fill:#ffffff;"/>
   </g>
   <g id="patch_74">
    <path clip-path="url(#p6c0da565db)" d="M 156.870682 118.08 
L 158.3925 118.08 
L 158.3925 72.40638 
L 156.870682 72.40638 
z
" style="fill:#ffffff;"/>
   </g>
   <g id="patch_75">
    <path clip-path="url(#p6c0da565db)" d="M 158.3925 118.08 
L 159.914318 118.08 
L 159.914318 70.138896 
L 158.3925 70.138896 
z
" style="fill:#ffffff;"/>
   </g>
   <g id="patch_76">
    <path clip-path="url(#p6c0da565db)" d="M 159.914318 118.08 
L 161.436136 118.08 
L 161.436136 78.884908 
L 159.914318 78.884908 
z
" style="fill:#ffffff;"/>
   </g>
   <g id="patch_77">
    <path clip-path="url(#p6c0da565db)" d="M 161.436136 118.08 
L 162.957955 118.08 
L 162.957955 74.997791 
L 161.436136 74.997791 
z
" style="fill:#ffffff;"/>
   </g>
   <g id="patch_78">
    <path clip-path="url(#p6c0da565db)" d="M 162.957955 118.08 
L 164.479773 118.08 
L 164.479773 78.884908 
L 162.957955 78.884908 
z
" style="fill:#ffffff;"/>
   </g>
   <g id="patch_79">
    <path clip-path="url(#p6c0da565db)" d="M 164.479773 118.08 
L 166.001591 118.08 
L 166.001591 89.898405 
L 164.479773 89.898405 
z
" style="fill:#ffffff;"/>
   </g>
   <g id="patch_80">
    <path clip-path="url(#p6c0da565db)" d="M 166.001591 118.08 
L 167.523409 118.08 
L 167.523409 89.574479 
L 166.001591 89.574479 
z
" style="fill:#ffffff;"/>
   </g>
   <g id="patch_81">
    <path clip-path="url(#p6c0da565db)" d="M 167.523409 118.08 
L 169.045227 118.08 
L 169.045227 91.19411 
L 167.523409 91.19411 
z
" style="fill:#ffffff;"/>
   </g>
   <g id="patch_82">
    <path clip-path="url(#p6c0da565db)" d="M 169.045227 118.08 
L 170.567045 118.08 
L 170.567045 98.968344 
L 169.045227 98.968344 
z
" style="fill:#ffffff;"/>
   </g>
   <g id="patch_83">
    <path clip-path="url(#p6c0da565db)" d="M 170.567045 118.08 
L 172.088864 118.08 
L 172.088864 92.813742 
L 170.567045 92.813742 
z
" style="fill:#ffffff;"/>
   </g>
   <g id="patch_84">
    <path clip-path="url(#p6c0da565db)" d="M 172.088864 118.08 
L 173.610682 118.08 
L 173.610682 93.461595 
L 172.088864 93.461595 
z
" style="fill:#ffffff;"/>
   </g>
   <g id="patch_85">
    <path clip-path="url(#p6c0da565db)" d="M 173.610682 118.08 
L 175.1325 118.08 
L 175.1325 96.376933 
L 173.610682 96.376933 
z
" style="fill:#ffffff;"/>
   </g>
   <g id="patch_86">
    <path clip-path="url(#p6c0da565db)" d="M 175.1325 118.08 
L 176.654318 118.08 
L 176.654318 99.29227 
L 175.1325 99.29227 
z
" style="fill:#ffffff;"/>
   </g>
   <g id="patch_87">
    <path clip-path="url(#p6c0da565db)" d="M 176.654318 118.08 
L 178.176136 118.08 
L 178.176136 100.911902 
L 176.654318 100.911902 
z
" style="fill:#ffffff;"/>
   </g>
   <g id="patch_88">
    <path clip-path="url(#p6c0da565db)" d="M 178.176136 118.08 
L 179.697955 118.08 
L 179.697955 104.475092 
L 178.176136 104.475092 
z
" style="fill:#ffffff;"/>
   </g>
   <g id="patch_89">
    <path clip-path="url(#p6c0da565db)" d="M 179.697955 118.08 
L 181.219773 118.08 
L 181.219773 108.038282 
L 179.697955 108.038282 
z
" style="fill:#ffffff;"/>
   </g>
   <g id="patch_90">
    <path clip-path="url(#p6c0da565db)" d="M 181.219773 118.08 
L 182.741591 118.08 
L 182.741591 109.657914 
L 181.219773 109.657914 
z
" style="fill:#ffffff;"/>
   </g>
   <g id="patch_91">
    <path clip-path="url(#p6c0da565db)" d="M 182.741591 118.08 
L 184.263409 118.08 
L 184.263409 106.742577 
L 182.741591 106.742577 
z
" style="fill:#ffffff;"/>
   </g>
   <g id="patch_92">
    <path clip-path="url(#p6c0da565db)" d="M 184.263409 118.08 
L 185.785227 118.08 
L 185.785227 114.51681 
L 184.263409 114.51681 
z
" style="fill:#ffffff;"/>
   </g>
   <g id="patch_93">
    <path clip-path="url(#p6c0da565db)" d="M 185.785227 118.08 
L 187.307045 118.08 
L 187.307045 111.925399 
L 185.785227 111.925399 
z
" style="fill:#ffffff;"/>
   </g>
   <g id="patch_94">
    <path clip-path="url(#p6c0da565db)" d="M 187.307045 118.08 
L 188.828864 118.08 
L 188.828864 116.136442 
L 187.307045 116.136442 
z
" style="fill:#ffffff;"/>
   </g>
   <g id="patch_95">
    <path clip-path="url(#p6c0da565db)" d="M 188.828864 118.08 
L 190.350682 118.08 
L 190.350682 115.812515 
L 188.828864 115.812515 
z
" style="fill:#ffffff;"/>
   </g>
   <g id="patch_96">
    <path clip-path="url(#p6c0da565db)" d="M 190.350682 118.08 
L 191.8725 118.08 
L 191.8725 116.784294 
L 190.350682 116.784294 
z
" style="fill:#ffffff;"/>
   </g>
   <g id="patch_97">
    <path clip-path="url(#p6c0da565db)" d="M 191.8725 118.08 
L 193.394318 118.08 
L 193.394318 116.460368 
L 191.8725 116.460368 
z
" style="fill:#ffffff;"/>
   </g>
   <g id="patch_98">
    <path clip-path="url(#p6c0da565db)" d="M 193.394318 118.08 
L 194.916136 118.08 
L 194.916136 117.756074 
L 193.394318 117.756074 
z
" style="fill:#ffffff;"/>
   </g>
   <g id="patch_99">
    <path clip-path="url(#p6c0da565db)" d="M 194.916136 118.08 
L 196.437955 118.08 
L 196.437955 117.108221 
L 194.916136 117.108221 
z
" style="fill:#ffffff;"/>
   </g>
   <g id="patch_100">
    <path clip-path="url(#p6c0da565db)" d="M 196.437955 118.08 
L 197.959773 118.08 
L 197.959773 116.460368 
L 196.437955 116.460368 
z
" style="fill:#ffffff;"/>
   </g>
   <g id="patch_101">
    <path clip-path="url(#p6c0da565db)" d="M 197.959773 118.08 
L 199.481591 118.08 
L 199.481591 117.432147 
L 197.959773 117.432147 
z
" style="fill:#ffffff;"/>
   </g>
   <g id="patch_102">
    <path clip-path="url(#p6c0da565db)" d="M 199.481591 118.08 
L 201.003409 118.08 
L 201.003409 117.756074 
L 199.481591 117.756074 
z
" style="fill:#ffffff;"/>
   </g>
   <g id="patch_103">
    <path clip-path="url(#p6c0da565db)" d="M 53.28176 118.08 
L 54.756837 118.08 
L 54.756837 116.784294 
L 53.28176 116.784294 
z
" style="fill:#ffffff;"/>
   </g>
   <g id="patch_104">
    <path clip-path="url(#p6c0da565db)" d="M 54.756837 118.08 
L 56.231914 118.08 
L 56.231914 114.840736 
L 54.756837 114.840736 
z
" style="fill:#ffffff;"/>
   </g>
   <g id="patch_105">
    <path clip-path="url(#p6c0da565db)" d="M 56.231914 118.08 
L 57.706991 118.08 
L 57.706991 115.164663 
L 56.231914 115.164663 
z
" style="fill:#ffffff;"/>
   </g>
   <g id="patch_106">
    <path clip-path="url(#p6c0da565db)" d="M 57.706991 118.08 
L 59.182068 118.08 
L 59.182068 110.629693 
L 57.706991 110.629693 
z
" style="fill:#ffffff;"/>
   </g>
   <g id="patch_107">
    <path clip-path="url(#p6c0da565db)" d="M 59.182068 118.08 
L 60.657145 118.08 
L 60.657145 110.305767 
L 59.182068 110.305767 
z
" style="fill:#ffffff;"/>
   </g>
   <g id="patch_108">
    <path clip-path="url(#p6c0da565db)" d="M 60.657145 118.08 
L 62.132222 118.08 
L 62.132222 105.770798 
L 60.657145 105.770798 
z
" style="fill:#ffffff;"/>
   </g>
   <g id="patch_109">
    <path clip-path="url(#p6c0da565db)" d="M 62.132222 118.08 
L 63.607299 118.08 
L 63.607299 100.264049 
L 62.132222 100.264049 
z
" style="fill:#ffffff;"/>
   </g>
   <g id="patch_110">
    <path clip-path="url(#p6c0da565db)" d="M 63.607299 118.08 
L 65.082376 118.08 
L 65.082376 98.320491 
L 63.607299 98.320491 
z
" style="fill:#ffffff;"/>
   </g>
   <g id="patch_111">
    <path clip-path="url(#p6c0da565db)" d="M 65.082376 118.08 
L 66.557453 118.08 
L 66.557453 90.222331 
L 65.082376 90.222331 
z
" style="fill:#ffffff;"/>
   </g>
   <g id="patch_112">
    <path clip-path="url(#p6c0da565db)" d="M 66.557453 118.08 
L 68.03253 118.08 
L 68.03253 78.560982 
L 66.557453 78.560982 
z
" style="fill:#ffffff;"/>
   </g>
   <g id="patch_113">
    <path clip-path="url(#p6c0da565db)" d="M 68.03253 118.08 
L 69.507607 118.08 
L 69.507607 72.40638 
L 68.03253 72.40638 
z
" style="fill:#ffffff;"/>
   </g>
   <g id="patch_114">
    <path clip-path="url(#p6c0da565db)" d="M 69.507607 118.08 
L 70.982684 118.08 
L 70.982684 73.054233 
L 69.507607 73.054233 
z
" style="fill:#ffffff;"/>
   </g>
   <g id="patch_115">
    <path clip-path="url(#p6c0da565db)" d="M 70.982684 118.08 
L 72.457761 118.08 
L 72.457761 65.927853 
L 70.982684 65.927853 
z
" style="fill:#ffffff;"/>
   </g>
   <g id="patch_116">
    <path clip-path="url(#p6c0da565db)" d="M 72.457761 118.08 
L 73.932838 118.08 
L 73.932838 65.28 
L 72.457761 65.28 
z
" style="fill:#ffffff;"/>
   </g>
   <g id="patch_117">
    <path clip-path="url(#p6c0da565db)" d="M 73.932838 118.08 
L 75.407915 118.08 
L 75.407915 55.562209 
L 73.932838 55.562209 
z
" style="fill:#ffffff;"/>
   </g>
   <g id="patch_118">
    <path clip-path="url(#p6c0da565db)" d="M 75.407915 118.08 
L 76.882992 118.08 
L 76.882992 52.646871 
L 75.407915 52.646871 
z
" style="fill:#ffffff;"/>
   </g>
   <g id="patch_119">
    <path clip-path="url(#p6c0da565db)" d="M 76.882992 118.08 
L 78.358069 118.08 
L 78.358069 38.718037 
L 76.882992 38.718037 
z
" style="fill:#ffffff;"/>
   </g>
   <g id="patch_120">
    <path clip-path="url(#p6c0da565db)" d="M 78.358069 118.08 
L 79.833146 118.08 
L 79.833146 43.576933 
L 78.358069 43.576933 
z
" style="fill:#ffffff;"/>
   </g>
   <g id="patch_121">
    <path clip-path="url(#p6c0da565db)" d="M 79.833146 118.08 
L 81.308224 118.08 
L 81.308224 37.746258 
L 79.833146 37.746258 
z
" style="fill:#ffffff;"/>
   </g>
   <g id="patch_122">
    <path clip-path="url(#p6c0da565db)" d="M 81.308224 118.08 
L 82.783301 118.08 
L 82.783301 39.041963 
L 81.308224 39.041963 
z
" style="fill:#ffffff;"/>
   </g>
   <g id="patch_123">
    <path clip-path="url(#p6c0da565db)" d="M 82.783301 118.08 
L 84.258378 118.08 
L 84.258378 28.676319 
L 82.783301 28.676319 
z
" style="fill:#ffffff;"/>
   </g>
   <g id="patch_124">
    <path clip-path="url(#p6c0da565db)" d="M 84.258378 118.08 
L 85.733455 118.08 
L 85.733455 19.282454 
L 84.258378 19.282454 
z
" style="fill:#ffffff;"/>
   </g>
   <g id="patch_125">
    <path clip-path="url(#p6c0da565db)" d="M 85.733455 118.08 
L 87.208532 118.08 
L 87.208532 24.465276 
L 85.733455 24.465276 
z
" style="fill:#ffffff;"/>
   </g>
   <g id="patch_126">
    <path clip-path="url(#p6c0da565db)" d="M 87.208532 118.08 
L 88.683609 118.08 
L 88.683609 24.465276 
L 87.208532 24.465276 
z
" style="fill:#ffffff;"/>
   </g>
   <g id="patch_127">
    <path clip-path="url(#p6c0da565db)" d="M 88.683609 118.08 
L 90.158686 118.08 
L 90.158686 20.902086 
L 88.683609 20.902086 
z
" style="fill:#ffffff;"/>
   </g>
   <g id="patch_128">
    <path clip-path="url(#p6c0da565db)" d="M 90.158686 118.08 
L 91.633763 118.08 
L 91.633763 22.521718 
L 90.158686 22.521718 
z
" style="fill:#ffffff;"/>
   </g>
   <g id="patch_129">
    <path clip-path="url(#p6c0da565db)" d="M 91.633763 118.08 
L 93.10884 118.08 
L 93.10884 23.493497 
L 91.633763 23.493497 
z
" style="fill:#ffffff;"/>
   </g>
   <g id="patch_130">
    <path clip-path="url(#p6c0da565db)" d="M 93.10884 118.08 
L 94.583917 118.08 
L 94.583917 24.14135 
L 93.10884 24.14135 
z
" style="fill:#ffffff;"/>
   </g>
   <g id="patch_131">
    <path clip-path="url(#p6c0da565db)" d="M 94.583917 118.08 
L 96.058994 118.08 
L 96.058994 24.465276 
L 94.583917 24.465276 
z
" style="fill:#ffffff;"/>
   </g>
   <g id="patch_132">
    <path clip-path="url(#p6c0da565db)" d="M 96.058994 118.08 
L 97.534071 118.08 
L 97.534071 12.803926 
L 96.058994 12.803926 
z
" style="fill:#ffffff;"/>
   </g>
   <g id="patch_133">
    <path clip-path="url(#p6c0da565db)" d="M 97.534071 118.08 
L 99.009148 118.08 
L 99.009148 21.549939 
L 97.534071 21.549939 
z
" style="fill:#ffffff;"/>
   </g>
   <g id="patch_134">
    <path clip-path="url(#p6c0da565db)" d="M 99.009148 118.08 
L 100.484225 118.08 
L 100.484225 16.691043 
L 99.009148 16.691043 
z
" style="fill:#ffffff;"/>
   </g>
   <g id="patch_135">
    <path clip-path="url(#p6c0da565db)" d="M 100.484225 118.08 
L 101.959302 118.08 
L 101.959302 22.197791 
L 100.484225 22.197791 
z
" style="fill:#ffffff;"/>
   </g>
   <g id="patch_136">
    <path clip-path="url(#p6c0da565db)" d="M 101.959302 118.08 
L 103.434379 118.08 
L 103.434379 26.084908 
L 101.959302 26.084908 
z
" style="fill:#ffffff;"/>
   </g>
   <g id="patch_137">
    <path clip-path="url(#p6c0da565db)" d="M 103.434379 118.08 
L 104.909456 118.08 
L 104.909456 27.380613 
L 103.434379 27.380613 
z
" style="fill:#ffffff;"/>
   </g>
   <g id="patch_138">
    <path clip-path="url(#p6c0da565db)" d="M 104.909456 118.08 
L 106.384533 118.08 
L 106.384533 12.48 
L 104.909456 12.48 
z
" style="fill:#ffffff;"/>
   </g>
   <g id="patch_139">
    <path clip-path="url(#p6c0da565db)" d="M 106.384533 118.08 
L 107.85961 118.08 
L 107.85961 27.380613 
L 106.384533 27.380613 
z
" style="fill:#ffffff;"/>
   </g>
   <g id="patch_140">
    <path clip-path="url(#p6c0da565db)" d="M 107.85961 118.08 
L 109.334687 118.08 
L 109.334687 30.619877 
L 107.85961 30.619877 
z
" style="fill:#ffffff;"/>
   </g>
   <g id="patch_141">
    <path clip-path="url(#p6c0da565db)" d="M 109.334687 118.08 
L 110.809764 118.08 
L 110.809764 25.437055 
L 109.334687 25.437055 
z
" style="fill:#ffffff;"/>
   </g>
   <g id="patch_142">
    <path clip-path="url(#p6c0da565db)" d="M 110.809764 118.08 
L 112.284841 118.08 
L 112.284841 29.000245 
L 110.809764 29.000245 
z
" style="fill:#ffffff;"/>
   </g>
   <g id="patch_143">
    <path clip-path="url(#p6c0da565db)" d="M 112.284841 118.08 
L 113.759918 118.08 
L 113.759918 14.423558 
L 112.284841 14.423558 
z
" style="fill:#ffffff;"/>
   </g>
   <g id="patch_144">
    <path clip-path="url(#p6c0da565db)" d="M 113.759918 118.08 
L 115.234995 118.08 
L 115.234995 29.324172 
L 113.759918 29.324172 
z
" style="fill:#ffffff;"/>
   </g>
   <g id="patch_145">
    <path clip-path="url(#p6c0da565db)" d="M 115.234995 118.08 
L 116.710072 118.08 
L 116.710072 30.295951 
L 115.234995 30.295951 
z
" style="fill:#ffffff;"/>
   </g>
   <g id="patch_146">
    <path clip-path="url(#p6c0da565db)" d="M 116.710072 118.08 
L 118.185149 118.08 
L 118.185149 20.57816 
L 116.710072 20.57816 
z
" style="fill:#ffffff;"/>
   </g>
   <g id="patch_147">
    <path clip-path="url(#p6c0da565db)" d="M 118.185149 118.08 
L 119.660226 118.08 
L 119.660226 38.39411 
L 118.185149 38.39411 
z
" style="fill:#ffffff;"/>
   </g>
   <g id="patch_148">
    <path clip-path="url(#p6c0da565db)" d="M 119.660226 118.08 
L 121.135303 118.08 
L 121.135303 26.408834 
L 119.660226 26.408834 
z
" style="fill:#ffffff;"/>
   </g>
   <g id="patch_149">
    <path clip-path="url(#p6c0da565db)" d="M 121.135303 118.08 
L 122.61038 118.08 
L 122.61038 30.943804 
L 121.135303 30.943804 
z
" style="fill:#ffffff;"/>
   </g>
   <g id="patch_150">
    <path clip-path="url(#p6c0da565db)" d="M 122.61038 118.08 
L 124.085457 118.08 
L 124.085457 24.789202 
L 122.61038 24.789202 
z
" style="fill:#ffffff;"/>
   </g>
   <g id="patch_151">
    <path clip-path="url(#p6c0da565db)" d="M 124.085457 118.08 
L 125.560534 118.08 
L 125.560534 36.126626 
L 124.085457 36.126626 
z
" style="fill:#ffffff;"/>
   </g>
   <g id="patch_152">
    <path clip-path="url(#p6c0da565db)" d="M 125.560534 118.08 
L 127.035611 118.08 
L 127.035611 41.309448 
L 125.560534 41.309448 
z
" style="fill:#ffffff;"/>
   </g>
   <g id="patch_153">
    <path clip-path="url(#p6c0da565db)" d="M 127.035611 118.08 
L 128.510688 118.08 
L 128.510688 41.309448 
L 127.035611 41.309448 
z
" style="fill:#ffffff;"/>
   </g>
   <g id="patch_154">
    <path clip-path="url(#p6c0da565db)" d="M 128.510688 118.08 
L 129.985765 118.08 
L 129.985765 44.224785 
L 128.510688 44.224785 
z
" style="fill:#ffffff;"/>
   </g>
   <g id="patch_155">
    <path clip-path="url(#p6c0da565db)" d="M 129.985765 118.08 
L 131.460842 118.08 
L 131.460842 41.309448 
L 129.985765 41.309448 
z
" style="fill:#ffffff;"/>
   </g>
   <g id="patch_156">
    <path clip-path="url(#p6c0da565db)" d="M 131.460842 118.08 
L 132.935919 118.08 
L 132.935919 40.985521 
L 131.460842 40.985521 
z
" style="fill:#ffffff;"/>
   </g>
   <g id="patch_157">
    <path clip-path="url(#p6c0da565db)" d="M 132.935919 118.08 
L 134.410996 118.08 
L 134.410996 51.027239 
L 132.935919 51.027239 
z
" style="fill:#ffffff;"/>
   </g>
   <g id="patch_158">
    <path clip-path="url(#p6c0da565db)" d="M 134.410996 118.08 
L 135.886073 118.08 
L 135.886073 46.168344 
L 134.410996 46.168344 
z
" style="fill:#ffffff;"/>
   </g>
   <g id="patch_159">
    <path clip-path="url(#p6c0da565db)" d="M 135.886073 118.08 
L 137.36115 118.08 
L 137.36115 41.309448 
L 135.886073 41.309448 
z
" style="fill:#ffffff;"/>
   </g>
   <g id="patch_160">
    <path clip-path="url(#p6c0da565db)" d="M 137.36115 118.08 
L 138.836227 118.08 
L 138.836227 54.266503 
L 137.36115 54.266503 
z
" style="fill:#ffffff;"/>
   </g>
   <g id="patch_161">
    <path clip-path="url(#p6c0da565db)" d="M 138.836227 118.08 
L 140.311304 118.08 
L 140.311304 56.533988 
L 138.836227 56.533988 
z
" style="fill:#ffffff;"/>
   </g>
   <g id="patch_162">
    <path clip-path="url(#p6c0da565db)" d="M 140.311304 118.08 
L 141.786381 118.08 
L 141.786381 46.816196 
L 140.311304 46.816196 
z
" style="fill:#ffffff;"/>
   </g>
   <g id="patch_163">
    <path clip-path="url(#p6c0da565db)" d="M 141.786381 118.08 
L 143.261458 118.08 
L 143.261458 51.999018 
L 141.786381 51.999018 
z
" style="fill:#ffffff;"/>
   </g>
   <g id="patch_164">
    <path clip-path="url(#p6c0da565db)" d="M 143.261458 118.08 
L 144.736535 118.08 
L 144.736535 60.097178 
L 143.261458 60.097178 
z
" style="fill:#ffffff;"/>
   </g>
   <g id="patch_165">
    <path clip-path="url(#p6c0da565db)" d="M 144.736535 118.08 
L 146.211612 118.08 
L 146.211612 57.18184 
L 144.736535 57.18184 
z
" style="fill:#ffffff;"/>
   </g>
   <g id="patch_166">
    <path clip-path="url(#p6c0da565db)" d="M 146.211612 118.08 
L 147.686689 118.08 
L 147.686689 57.18184 
L 146.211612 57.18184 
z
" style="fill:#ffffff;"/>
   </g>
   <g id="patch_167">
    <path clip-path="url(#p6c0da565db)" d="M 147.686689 118.08 
L 149.161766 118.08 
L 149.161766 67.547485 
L 147.686689 67.547485 
z
" style="fill:#ffffff;"/>
   </g>
   <g id="patch_168">
    <path clip-path="url(#p6c0da565db)" d="M 149.161766 118.08 
L 150.636843 118.08 
L 150.636843 64.632147 
L 149.161766 64.632147 
z
" style="fill:#ffffff;"/>
   </g>
   <g id="patch_169">
    <path clip-path="url(#p6c0da565db)" d="M 150.636843 118.08 
L 152.11192 118.08 
L 152.11192 61.068957 
L 150.636843 61.068957 
z
" style="fill:#ffffff;"/>
   </g>
   <g id="patch_170">
    <path clip-path="url(#p6c0da565db)" d="M 152.11192 118.08 
L 153.586997 118.08 
L 153.586997 68.195337 
L 152.11192 68.195337 
z
" style="fill:#ffffff;"/>
   </g>
   <g id="patch_171">
    <path clip-path="url(#p6c0da565db)" d="M 153.586997 118.08 
L 155.062074 118.08 
L 155.062074 70.462822 
L 153.586997 70.462822 
z
" style="fill:#ffffff;"/>
   </g>
   <g id="patch_172">
    <path clip-path="url(#p6c0da565db)" d="M 155.062074 118.08 
L 156.537151 118.08 
L 156.537151 74.349939 
L 155.062074 74.349939 
z
" style="fill:#ffffff;"/>
   </g>
   <g id="patch_173">
    <path clip-path="url(#p6c0da565db)" d="M 156.537151 118.08 
L 158.012228 118.08 
L 158.012228 74.997791 
L 156.537151 74.997791 
z
" style="fill:#ffffff;"/>
   </g>
   <g id="patch_174">
    <path clip-path="url(#p6c0da565db)" d="M 158.012228 118.08 
L 159.487305 118.08 
L 159.487305 85.363436 
L 158.012228 85.363436 
z
" style="fill:#ffffff;"/>
   </g>
   <g id="patch_175">
    <path clip-path="url(#p6c0da565db)" d="M 159.487305 118.08 
L 160.962382 118.08 
L 160.962382 82.448098 
L 159.487305 82.448098 
z
" style="fill:#ffffff;"/>
   </g>
   <g id="patch_176">
    <path clip-path="url(#p6c0da565db)" d="M 160.962382 118.08 
L 162.437459 118.08 
L 162.437459 84.391656 
L 160.962382 84.391656 
z
" style="fill:#ffffff;"/>
   </g>
   <g id="patch_177">
    <path clip-path="url(#p6c0da565db)" d="M 162.437459 118.08 
L 163.912536 118.08 
L 163.912536 86.659141 
L 162.437459 86.659141 
z
" style="fill:#ffffff;"/>
   </g>
   <g id="patch_178">
    <path clip-path="url(#p6c0da565db)" d="M 163.912536 118.08 
L 165.387613 118.08 
L 165.387613 89.898405 
L 163.912536 89.898405 
z
" style="fill:#ffffff;"/>
   </g>
   <g id="patch_179">
    <path clip-path="url(#p6c0da565db)" d="M 165.387613 118.08 
L 166.86269 118.08 
L 166.86269 91.841963 
L 165.387613 91.841963 
z
" style="fill:#ffffff;"/>
   </g>
   <g id="patch_180">
    <path clip-path="url(#p6c0da565db)" d="M 166.86269 118.08 
L 168.337767 118.08 
L 168.337767 91.19411 
L 166.86269 91.19411 
z
" style="fill:#ffffff;"/>
   </g>
   <g id="patch_181">
    <path clip-path="url(#p6c0da565db)" d="M 168.337767 118.08 
L 169.812844 118.08 
L 169.812844 98.968344 
L 168.337767 98.968344 
z
" style="fill:#ffffff;"/>
   </g>
   <g id="patch_182">
    <path clip-path="url(#p6c0da565db)" d="M 169.812844 118.08 
L 171.287921 118.08 
L 171.287921 92.16589 
L 169.812844 92.16589 
z
" style="fill:#ffffff;"/>
   </g>
   <g id="patch_183">
    <path clip-path="url(#p6c0da565db)" d="M 171.287921 118.08 
L 172.762998 118.08 
L 172.762998 97.348712 
L 171.287921 97.348712 
z
" style="fill:#ffffff;"/>
   </g>
   <g id="patch_184">
    <path clip-path="url(#p6c0da565db)" d="M 172.762998 118.08 
L 174.238075 118.08 
L 174.238075 101.883681 
L 172.762998 101.883681 
z
" style="fill:#ffffff;"/>
   </g>
   <g id="patch_185">
    <path clip-path="url(#p6c0da565db)" d="M 174.238075 118.08 
L 175.713152 118.08 
L 175.713152 104.151166 
L 174.238075 104.151166 
z
" style="fill:#ffffff;"/>
   </g>
   <g id="patch_186">
    <path clip-path="url(#p6c0da565db)" d="M 175.713152 118.08 
L 177.188229 118.08 
L 177.188229 104.799018 
L 175.713152 104.799018 
z
" style="fill:#ffffff;"/>
   </g>
   <g id="patch_187">
    <path clip-path="url(#p6c0da565db)" d="M 177.188229 118.08 
L 178.663306 118.08 
L 178.663306 108.686135 
L 177.188229 108.686135 
z
" style="fill:#ffffff;"/>
   </g>
   <g id="patch_188">
    <path clip-path="url(#p6c0da565db)" d="M 178.663306 118.08 
L 180.138383 118.08 
L 180.138383 107.390429 
L 178.663306 107.390429 
z
" style="fill:#ffffff;"/>
   </g>
   <g id="patch_189">
    <path clip-path="url(#p6c0da565db)" d="M 180.138383 118.08 
L 181.61346 118.08 
L 181.61346 108.362209 
L 180.138383 108.362209 
z
" style="fill:#ffffff;"/>
   </g>
   <g id="patch_190">
    <path clip-path="url(#p6c0da565db)" d="M 181.61346 118.08 
L 183.088537 118.08 
L 183.088537 109.333988 
L 181.61346 109.333988 
z
" style="fill:#ffffff;"/>
   </g>
   <g id="patch_191">
    <path clip-path="url(#p6c0da565db)" d="M 183.088537 118.08 
L 184.563614 118.08 
L 184.563614 107.714356 
L 183.088537 107.714356 
z
" style="fill:#ffffff;"/>
   </g>
   <g id="patch_192">
    <path clip-path="url(#p6c0da565db)" d="M 184.563614 118.08 
L 186.038691 118.08 
L 186.038691 113.221104 
L 184.563614 113.221104 
z
" style="fill:#ffffff;"/>
   </g>
   <g id="patch_193">
    <path clip-path="url(#p6c0da565db)" d="M 186.038691 118.08 
L 187.513768 118.08 
L 187.513768 111.601472 
L 186.038691 111.601472 
z
" style="fill:#ffffff;"/>
   </g>
   <g id="patch_194">
    <path clip-path="url(#p6c0da565db)" d="M 187.513768 118.08 
L 188.988845 118.08 
L 188.988845 114.840736 
L 187.513768 114.840736 
z
" style="fill:#ffffff;"/>
   </g>
   <g id="patch_195">
    <path clip-path="url(#p6c0da565db)" d="M 188.988845 118.08 
L 190.463922 118.08 
L 190.463922 115.488589 
L 188.988845 115.488589 
z
" style="fill:#ffffff;"/>
   </g>
   <g id="patch_196">
    <path clip-path="url(#p6c0da565db)" d="M 190.463922 118.08 
L 191.938999 118.08 
L 191.938999 115.812515 
L 190.463922 115.812515 
z
" style="fill:#ffffff;"/>
   </g>
   <g id="patch_197">
    <path clip-path="url(#p6c0da565db)" d="M 191.938999 118.08 
L 193.414076 118.08 
L 193.414076 115.488589 
L 191.938999 115.488589 
z
" style="fill:#ffffff;"/>
   </g>
   <g id="patch_198">
    <path clip-path="url(#p6c0da565db)" d="M 193.414076 118.08 
L 194.889153 118.08 
L 194.889153 116.460368 
L 193.414076 116.460368 
z
" style="fill:#ffffff;"/>
   </g>
   <g id="patch_199">
    <path clip-path="url(#p6c0da565db)" d="M 194.889153 118.08 
L 196.36423 118.08 
L 196.36423 117.432147 
L 194.889153 117.432147 
z
" style="fill:#ffffff;"/>
   </g>
   <g id="patch_200">
    <path clip-path="url(#p6c0da565db)" d="M 196.36423 118.08 
L 197.839307 118.08 
L 197.839307 117.756074 
L 196.36423 117.756074 
z
" style="fill:#ffffff;"/>
   </g>
   <g id="patch_201">
    <path clip-path="url(#p6c0da565db)" d="M 197.839307 118.08 
L 199.314384 118.08 
L 199.314384 117.756074 
L 197.839307 117.756074 
z
" style="fill:#ffffff;"/>
   </g>
   <g id="patch_202">
    <path clip-path="url(#p6c0da565db)" d="M 199.314384 118.08 
L 200.789461 118.08 
L 200.789461 117.756074 
L 199.314384 117.756074 
z
" style="fill:#ffffff;"/>
   </g>
   <g id="matplotlib.axis_1">
    <g id="xtick_1">
     <g id="line2d_1">
      <defs>
       <path d="M 0 0 
L 0 3.5 
" id="m805f5b6949" style="stroke:#000000;stroke-width:1.5;"/>
      </defs>
      <g>
       <use style="stroke:#000000;stroke-width:1.5;" x="72.364808" xlink:href="#m805f5b6949" y="118.08"/>
      </g>
     </g>
     <g id="text_1">
      <text style="font-family:DejaVu Sans;font-size:8px;font-stretch:normal;font-style:normal;font-weight:normal;text-anchor:middle;" transform="rotate(-0, 72.364808, 131.15875)" x="72.364808" y="131.15875">1</text>
     </g>
    </g>
    <g id="xtick_2">
     <g id="line2d_2">
      <g>
       <use style="stroke:#000000;stroke-width:1.5;" x="104.05482" xlink:href="#m805f5b6949" y="118.08"/>
      </g>
     </g>
     <g id="text_2">
      <text style="font-family:DejaVu Sans;font-size:8px;font-stretch:normal;font-style:normal;font-weight:normal;text-anchor:middle;" transform="rotate(-0, 104.05482, 131.15875)" x="104.05482" y="131.15875">2</text>
     </g>
    </g>
    <g id="xtick_3">
     <g id="line2d_3">
      <g>
       <use style="stroke:#000000;stroke-width:1.5;" x="135.744833" xlink:href="#m805f5b6949" y="118.08"/>
      </g>
     </g>
     <g id="text_3">
      <text style="font-family:DejaVu Sans;font-size:8px;font-stretch:normal;font-style:normal;font-weight:normal;text-anchor:middle;" transform="rotate(-0, 135.744833, 131.15875)" x="135.744833" y="131.15875">3</text>
     </g>
    </g>
    <g id="xtick_4">
     <g id="line2d_4">
      <g>
       <use style="stroke:#000000;stroke-width:1.5;" x="167.434845" xlink:href="#m805f5b6949" y="118.08"/>
      </g>
     </g>
     <g id="text_4">
      <text style="font-family:DejaVu Sans;font-size:8px;font-stretch:normal;font-style:normal;font-weight:normal;text-anchor:middle;" transform="rotate(-0, 167.434845, 131.15875)" x="167.434845" y="131.15875">4</text>
     </g>
    </g>
    <g id="xtick_5">
     <g id="line2d_5">
      <g>
       <use style="stroke:#000000;stroke-width:1.5;" x="199.124858" xlink:href="#m805f5b6949" y="118.08"/>
      </g>
     </g>
     <g id="text_5">
      <text style="font-family:DejaVu Sans;font-size:8px;font-stretch:normal;font-style:normal;font-weight:normal;text-anchor:middle;" transform="rotate(-0, 199.124858, 131.15875)" x="199.124858" y="131.15875">5</text>
     </g>
    </g>
    <g id="text_6">
     <!-- Energy / spike  $\mu J$ -->
     <g transform="translate(90.1525 142.9025)">
      <text>
       <tspan style="font-family:DejaVu Sans;font-size:8px;font-style:book;font-weight:book;" x="0 5.054688 10.125 15.046875 18.335938 23.414062 28.148438 30.691406 33.386719 35.929688 40.097656 45.175781 47.398438 52.03125 56.953125 59.496094 62.039062 67.128906" y="-0.921875">Energy / spike  μJ</tspan>
      </text>
     </g>
    </g>
   </g>
   <g id="matplotlib.axis_2">
    <g id="ytick_1">
     <g id="line2d_6">
      <defs>
       <path d="M 0 0 
L -3.5 0 
" id="m243bc732c1" style="stroke:#000000;stroke-width:1.5;"/>
      </defs>
      <g>
       <use style="stroke:#000000;stroke-width:1.5;" x="41.2125" xlink:href="#m243bc732c1" y="118.08"/>
      </g>
     </g>
     <g id="text_7">
      <text style="font-family:DejaVu Sans;font-size:8px;font-stretch:normal;font-style:normal;font-weight:normal;text-anchor:end;" transform="rotate(-0, 34.2125, 121.119375)" x="34.2125" y="121.119375">0</text>
     </g>
    </g>
    <g id="ytick_2">
     <g id="line2d_7">
      <g>
       <use style="stroke:#000000;stroke-width:1.5;" x="41.2125" xlink:href="#m243bc732c1" y="85.687362"/>
      </g>
     </g>
     <g id="text_8">
      <text style="font-family:DejaVu Sans;font-size:8px;font-stretch:normal;font-style:normal;font-weight:normal;text-anchor:end;" transform="rotate(-0, 34.2125, 88.726737)" x="34.2125" y="88.726737">100</text>
     </g>
    </g>
    <g id="ytick_3">
     <g id="line2d_8">
      <g>
       <use style="stroke:#000000;stroke-width:1.5;" x="41.2125" xlink:href="#m243bc732c1" y="53.294724"/>
      </g>
     </g>
     <g id="text_9">
      <text style="font-family:DejaVu Sans;font-size:8px;font-stretch:normal;font-style:normal;font-weight:normal;text-anchor:end;" transform="rotate(-0, 34.2125, 56.334099)" x="34.2125" y="56.334099">200</text>
     </g>
    </g>
    <g id="ytick_4">
     <g id="line2d_9">
      <g>
       <use style="stroke:#000000;stroke-width:1.5;" x="41.2125" xlink:href="#m243bc732c1" y="20.902086"/>
      </g>
     </g>
     <g id="text_10">
      <text style="font-family:DejaVu Sans;font-size:8px;font-stretch:normal;font-style:normal;font-weight:normal;text-anchor:end;" transform="rotate(-0, 34.2125, 23.941461)" x="34.2125" y="23.941461">300</text>
     </g>
    </g>
    <g id="text_11">
     <text style="font-family:DejaVu Sans;font-size:8px;font-stretch:normal;font-style:normal;font-weight:normal;text-anchor:middle;" transform="rotate(-90, 13.27875, 62.64)" x="13.27875" y="62.64">Count</text>
    </g>
   </g>
   <g id="line2d_10">
    <path clip-path="url(#p6c0da565db)" d="M 49.5825 115.488589 
L 51.104318 114.51681 
L 52.626136 115.164663 
L 54.147955 109.657914 
L 55.669773 102.85546 
L 57.191591 96.376933 
L 58.713409 93.785521 
L 60.235227 91.19411 
L 61.757045 86.335215 
L 63.278864 83.743804 
L 64.800682 74.349939 
L 66.3225 72.40638 
L 67.844318 69.814969 
L 69.366136 64.956074 
L 70.887955 60.097178 
L 72.409773 52.322945 
L 73.931591 49.731534 
L 75.453409 55.886135 
L 76.975227 51.999018 
L 78.497045 52.322945 
L 80.018864 41.957301 
L 81.540682 41.957301 
L 83.0625 33.535215 
L 84.584318 36.774479 
L 86.106136 31.591656 
L 87.627955 36.774479 
L 89.149773 32.563436 
L 90.671591 30.619877 
L 92.193409 31.915583 
L 93.715227 31.26773 
L 95.237045 32.563436 
L 96.758864 23.169571 
L 98.280682 26.732761 
L 99.8025 32.239509 
L 101.324318 29.000245 
L 102.846136 22.845644 
L 104.367955 28.676319 
L 105.889773 24.789202 
L 107.411591 26.084908 
L 108.933409 28.676319 
L 110.455227 30.295951 
L 111.977045 26.084908 
L 113.498864 31.26773 
L 115.020682 29.648098 
L 116.5425 27.70454 
L 118.064318 30.295951 
L 119.586136 34.506994 
L 121.107955 26.408834 
L 122.629773 30.295951 
L 124.151591 31.591656 
L 125.673409 36.126626 
L 127.195227 39.041963 
L 128.717045 41.309448 
L 130.238864 40.661595 
L 131.760682 38.718037 
L 133.2825 46.49227 
L 134.804318 43.253006 
L 136.326136 44.224785 
L 137.847955 45.196564 
L 139.369773 52.646871 
L 140.891591 45.844417 
L 142.413409 50.703313 
L 143.935227 49.731534 
L 145.457045 62.364663 
L 146.978864 62.364663 
L 148.500682 63.012515 
L 150.0225 54.914356 
L 151.544318 59.449325 
L 153.066136 64.632147 
L 154.587955 62.364663 
L 156.109773 66.575706 
L 157.631591 72.40638 
L 159.153409 70.138896 
L 160.675227 78.884908 
L 162.197045 74.997791 
L 163.718864 78.884908 
L 165.240682 89.898405 
L 166.7625 89.574479 
L 168.284318 91.19411 
L 169.806136 98.968344 
L 171.327955 92.813742 
L 172.849773 93.461595 
L 174.371591 96.376933 
L 175.893409 99.29227 
L 177.415227 100.911902 
L 178.937045 104.475092 
L 180.458864 108.038282 
L 181.980682 109.657914 
L 183.5025 106.742577 
L 185.024318 114.51681 
L 186.546136 111.925399 
L 188.067955 116.136442 
L 189.589773 115.812515 
L 191.111591 116.784294 
L 192.633409 116.460368 
L 194.155227 117.756074 
L 195.677045 117.108221 
L 197.198864 116.460368 
L 198.720682 117.432147 
L 200.2425 117.756074 
" style="fill:none;stroke:#1f77b4;stroke-linecap:square;stroke-width:1.5;"/>
   </g>
   <g id="line2d_11">
    <path clip-path="url(#p6c0da565db)" d="M 54.042669 116.784294 
L 55.517746 114.840736 
L 56.992823 115.164663 
L 58.4679 110.629693 
L 59.942977 110.305767 
L 61.418054 105.770798 
L 62.893131 100.264049 
L 64.368209 98.320491 
L 65.843286 90.222331 
L 67.318363 78.560982 
L 68.79344 72.40638 
L 70.268517 73.054233 
L 71.743594 65.927853 
L 73.218671 65.28 
L 74.693748 55.562209 
L 76.168825 52.646871 
L 77.643902 38.718037 
L 79.118979 43.576933 
L 80.594056 37.746258 
L 82.069133 39.041963 
L 83.54421 28.676319 
L 85.019287 19.282454 
L 86.494364 24.465276 
L 87.969441 24.465276 
L 89.444518 20.902086 
L 90.919595 22.521718 
L 92.394672 23.493497 
L 93.869749 24.14135 
L 95.344826 24.465276 
L 96.819903 12.803926 
L 98.29498 21.549939 
L 99.770057 16.691043 
L 101.245134 22.197791 
L 102.720211 26.084908 
L 104.195288 27.380613 
L 105.670365 12.48 
L 107.145442 27.380613 
L 108.620519 30.619877 
L 110.095596 25.437055 
L 111.570673 29.000245 
L 113.04575 14.423558 
L 114.520827 29.324172 
L 115.995904 30.295951 
L 117.470981 20.57816 
L 118.946058 38.39411 
L 120.421135 26.408834 
L 121.896212 30.943804 
L 123.371289 24.789202 
L 124.846366 36.126626 
L 126.321443 41.309448 
L 127.79652 41.309448 
L 129.271597 44.224785 
L 130.746674 41.309448 
L 132.221751 40.985521 
L 133.696828 51.027239 
L 135.171905 46.168344 
L 136.646982 41.309448 
L 138.122059 54.266503 
L 139.597136 56.533988 
L 141.072213 46.816196 
L 142.54729 51.999018 
L 144.022367 60.097178 
L 145.497444 57.18184 
L 146.972521 57.18184 
L 148.447598 67.547485 
L 149.922675 64.632147 
L 151.397752 61.068957 
L 152.872829 68.195337 
L 154.347906 70.462822 
L 155.822983 74.349939 
L 157.29806 74.997791 
L 158.773137 85.363436 
L 160.248214 82.448098 
L 161.723291 84.391656 
L 163.198368 86.659141 
L 164.673445 89.898405 
L 166.148522 91.841963 
L 167.623599 91.19411 
L 169.098676 98.968344 
L 170.573753 92.16589 
L 172.04883 97.348712 
L 173.523907 101.883681 
L 174.998984 104.151166 
L 176.474061 104.799018 
L 177.949138 108.686135 
L 179.424215 107.390429 
L 180.899292 108.362209 
L 182.374369 109.333988 
L 183.849446 107.714356 
L 185.324523 113.221104 
L 186.7996 111.601472 
L 188.274677 114.840736 
L 189.749754 115.488589 
L 191.224831 115.812515 
L 192.699908 115.488589 
L 194.174985 116.460368 
L 195.650062 117.432147 
L 197.125139 117.756074 
L 198.600216 117.756074 
L 200.075293 117.756074 
" style="fill:none;stroke:#ff7f0e;stroke-linecap:square;stroke-width:1.5;"/>
   </g>
   <g id="patch_203">
    <path d="M 41.2125 118.08 
L 41.2125 7.2 
" style="fill:none;stroke:#000000;stroke-linecap:square;stroke-linejoin:miter;stroke-width:1.5;"/>
   </g>
   <g id="patch_204">
    <path d="M 41.2125 118.08 
L 208.6125 118.08 
" style="fill:none;stroke:#000000;stroke-linecap:square;stroke-linejoin:miter;stroke-width:1.5;"/>
   </g>
   <g id="legend_1">
    <g id="line2d_12">
     <path d="M 151.21 17.67875 
L 167.21 17.67875 
" style="fill:none;stroke:#1f77b4;stroke-linecap:square;stroke-width:1.5;"/>
    </g>
    <g id="line2d_13"/>
    <g id="text_12">
     <text style="font-family:DejaVu Sans;font-size:8px;font-stretch:normal;font-style:normal;font-weight:normal;text-anchor:start;" transform="rotate(-0, 173.61, 20.47875)" x="173.61" y="20.47875">11 deg</text>
    </g>
    <g id="line2d_14">
     <path d="M 151.21 29.42125 
L 167.21 29.42125 
" style="fill:none;stroke:#ff7f0e;stroke-linecap:square;stroke-width:1.5;"/>
    </g>
    <g id="line2d_15"/>
    <g id="text_13">
     <text style="font-family:DejaVu Sans;font-size:8px;font-stretch:normal;font-style:normal;font-weight:normal;text-anchor:start;" transform="rotate(-0, 173.61, 32.22125)" x="173.61" y="32.22125">27 deg</text>
    </g>
   </g>
  </g>
 </g>
 <defs>
  <clipPath id="p6c0da565db">
   <rect height="110.88" width="167.4" x="41.2125" y="7.2"/>
  </clipPath>
 </defs>
</svg>
