<?xml version="1.0" encoding="utf-8" standalone="no"?>
<!DOCTYPE svg PUBLIC "-//W3C//DTD SVG 1.1//EN"
  "http://www.w3.org/Graphics/SVG/1.1/DTD/svg11.dtd">
<!-- Created with matplotlib (https://matplotlib.org/) -->
<svg height="151.765pt" version="1.1" viewBox="0 0 215.8125 151.765" width="215.8125pt" xmlns="http://www.w3.org/2000/svg" xmlns:xlink="http://www.w3.org/1999/xlink">
 <metadata>
  <rdf:RDF xmlns:cc="http://creativecommons.org/ns#" xmlns:dc="http://purl.org/dc/elements/1.1/" xmlns:rdf="http://www.w3.org/1999/02/22-rdf-syntax-ns#">
   <cc:Work>
    <dc:type rdf:resource="http://purl.org/dc/dcmitype/StillImage"/>
    <dc:date>2020-10-05T14:04:53.642719</dc:date>
    <dc:format>image/svg+xml</dc:format>
    <dc:creator>
     <cc:Agent>
      <dc:title>Matplotlib v3.3.2, https://matplotlib.org/</dc:title>
     </cc:Agent>
    </dc:creator>
   </cc:Work>
  </rdf:RDF>
 </metadata>
 <defs>
  <style type="text/css">*{stroke-linecap:butt;stroke-linejoin:round;}</style>
 </defs>
 <g id="figure_1">
  <g id="patch_1">
   <path d="M -0 151.765 
L 215.8125 151.765 
L 215.8125 0 
L -0 0 
z
" style="fill:none;"/>
  </g>
  <g id="axes_1">
   <g id="patch_2">
    <path d="M 41.2125 118.08 
L 208.6125 118.08 
L 208.6125 7.2 
L 41.2125 7.2 
z
" style="fill:none;"/>
   </g>
   <g id="patch_3">
    <path clip-path="url(#p43e71b1a9b)" d="M 48.821591 118.08 
L 50.343409 118.08 
L 50.343409 118.08 
L 48.821591 118.08 
z
" style="fill:#ffffff;"/>
   </g>
   <g id="patch_4">
    <path clip-path="url(#p43e71b1a9b)" d="M 50.343409 118.08 
L 51.865227 118.08 
L 51.865227 118.08 
L 50.343409 118.08 
z
" style="fill:#ffffff;"/>
   </g>
   <g id="patch_5">
    <path clip-path="url(#p43e71b1a9b)" d="M 51.865227 118.08 
L 53.387045 118.08 
L 53.387045 118.08 
L 51.865227 118.08 
z
" style="fill:#ffffff;"/>
   </g>
   <g id="patch_6">
    <path clip-path="url(#p43e71b1a9b)" d="M 53.387045 118.08 
L 54.908864 118.08 
L 54.908864 117.935342 
L 53.387045 117.935342 
z
" style="fill:#ffffff;"/>
   </g>
   <g id="patch_7">
    <path clip-path="url(#p43e71b1a9b)" d="M 54.908864 118.08 
L 56.430682 118.08 
L 56.430682 117.935342 
L 54.908864 117.935342 
z
" style="fill:#ffffff;"/>
   </g>
   <g id="patch_8">
    <path clip-path="url(#p43e71b1a9b)" d="M 56.430682 118.08 
L 57.9525 118.08 
L 57.9525 118.08 
L 56.430682 118.08 
z
" style="fill:#ffffff;"/>
   </g>
   <g id="patch_9">
    <path clip-path="url(#p43e71b1a9b)" d="M 57.9525 118.08 
L 59.474318 118.08 
L 59.474318 117.790685 
L 57.9525 117.790685 
z
" style="fill:#ffffff;"/>
   </g>
   <g id="patch_10">
    <path clip-path="url(#p43e71b1a9b)" d="M 59.474318 118.08 
L 60.996136 118.08 
L 60.996136 118.08 
L 59.474318 118.08 
z
" style="fill:#ffffff;"/>
   </g>
   <g id="patch_11">
    <path clip-path="url(#p43e71b1a9b)" d="M 60.996136 118.08 
L 62.517955 118.08 
L 62.517955 117.935342 
L 60.996136 117.935342 
z
" style="fill:#ffffff;"/>
   </g>
   <g id="patch_12">
    <path clip-path="url(#p43e71b1a9b)" d="M 62.517955 118.08 
L 64.039773 118.08 
L 64.039773 117.790685 
L 62.517955 117.790685 
z
" style="fill:#ffffff;"/>
   </g>
   <g id="patch_13">
    <path clip-path="url(#p43e71b1a9b)" d="M 64.039773 118.08 
L 65.561591 118.08 
L 65.561591 117.50137 
L 64.039773 117.50137 
z
" style="fill:#ffffff;"/>
   </g>
   <g id="patch_14">
    <path clip-path="url(#p43e71b1a9b)" d="M 65.561591 118.08 
L 67.083409 118.08 
L 67.083409 117.935342 
L 65.561591 117.935342 
z
" style="fill:#ffffff;"/>
   </g>
   <g id="patch_15">
    <path clip-path="url(#p43e71b1a9b)" d="M 67.083409 118.08 
L 68.605227 118.08 
L 68.605227 117.935342 
L 67.083409 117.935342 
z
" style="fill:#ffffff;"/>
   </g>
   <g id="patch_16">
    <path clip-path="url(#p43e71b1a9b)" d="M 68.605227 118.08 
L 70.127045 118.08 
L 70.127045 116.778082 
L 68.605227 116.778082 
z
" style="fill:#ffffff;"/>
   </g>
   <g id="patch_17">
    <path clip-path="url(#p43e71b1a9b)" d="M 70.127045 118.08 
L 71.648864 118.08 
L 71.648864 116.199452 
L 70.127045 116.199452 
z
" style="fill:#ffffff;"/>
   </g>
   <g id="patch_18">
    <path clip-path="url(#p43e71b1a9b)" d="M 71.648864 118.08 
L 73.170682 118.08 
L 73.170682 116.778082 
L 71.648864 116.778082 
z
" style="fill:#ffffff;"/>
   </g>
   <g id="patch_19">
    <path clip-path="url(#p43e71b1a9b)" d="M 73.170682 118.08 
L 74.6925 118.08 
L 74.6925 115.042192 
L 73.170682 115.042192 
z
" style="fill:#ffffff;"/>
   </g>
   <g id="patch_20">
    <path clip-path="url(#p43e71b1a9b)" d="M 74.6925 118.08 
L 76.214318 118.08 
L 76.214318 115.331507 
L 74.6925 115.331507 
z
" style="fill:#ffffff;"/>
   </g>
   <g id="patch_21">
    <path clip-path="url(#p43e71b1a9b)" d="M 76.214318 118.08 
L 77.736136 118.08 
L 77.736136 116.199452 
L 76.214318 116.199452 
z
" style="fill:#ffffff;"/>
   </g>
   <g id="patch_22">
    <path clip-path="url(#p43e71b1a9b)" d="M 77.736136 118.08 
L 79.257955 118.08 
L 79.257955 115.331507 
L 77.736136 115.331507 
z
" style="fill:#ffffff;"/>
   </g>
   <g id="patch_23">
    <path clip-path="url(#p43e71b1a9b)" d="M 79.257955 118.08 
L 80.779773 118.08 
L 80.779773 113.740274 
L 79.257955 113.740274 
z
" style="fill:#ffffff;"/>
   </g>
   <g id="patch_24">
    <path clip-path="url(#p43e71b1a9b)" d="M 80.779773 118.08 
L 82.301591 118.08 
L 82.301591 112.872329 
L 80.779773 112.872329 
z
" style="fill:#ffffff;"/>
   </g>
   <g id="patch_25">
    <path clip-path="url(#p43e71b1a9b)" d="M 82.301591 118.08 
L 83.823409 118.08 
L 83.823409 110.123836 
L 82.301591 110.123836 
z
" style="fill:#ffffff;"/>
   </g>
   <g id="patch_26">
    <path clip-path="url(#p43e71b1a9b)" d="M 83.823409 118.08 
L 85.345227 118.08 
L 85.345227 114.029589 
L 83.823409 114.029589 
z
" style="fill:#ffffff;"/>
   </g>
   <g id="patch_27">
    <path clip-path="url(#p43e71b1a9b)" d="M 85.345227 118.08 
L 86.867045 118.08 
L 86.867045 109.979178 
L 85.345227 109.979178 
z
" style="fill:#ffffff;"/>
   </g>
   <g id="patch_28">
    <path clip-path="url(#p43e71b1a9b)" d="M 86.867045 118.08 
L 88.388864 118.08 
L 88.388864 107.664658 
L 86.867045 107.664658 
z
" style="fill:#ffffff;"/>
   </g>
   <g id="patch_29">
    <path clip-path="url(#p43e71b1a9b)" d="M 88.388864 118.08 
L 89.910682 118.08 
L 89.910682 106.652055 
L 88.388864 106.652055 
z
" style="fill:#ffffff;"/>
   </g>
   <g id="patch_30">
    <path clip-path="url(#p43e71b1a9b)" d="M 89.910682 118.08 
L 91.4325 118.08 
L 91.4325 101.733699 
L 89.910682 101.733699 
z
" style="fill:#ffffff;"/>
   </g>
   <g id="patch_31">
    <path clip-path="url(#p43e71b1a9b)" d="M 91.4325 118.08 
L 92.954318 118.08 
L 92.954318 106.507397 
L 91.4325 106.507397 
z
" style="fill:#ffffff;"/>
   </g>
   <g id="patch_32">
    <path clip-path="url(#p43e71b1a9b)" d="M 92.954318 118.08 
L 94.476136 118.08 
L 94.476136 102.023014 
L 92.954318 102.023014 
z
" style="fill:#ffffff;"/>
   </g>
   <g id="patch_33">
    <path clip-path="url(#p43e71b1a9b)" d="M 94.476136 118.08 
L 95.997955 118.08 
L 95.997955 98.985205 
L 94.476136 98.985205 
z
" style="fill:#ffffff;"/>
   </g>
   <g id="patch_34">
    <path clip-path="url(#p43e71b1a9b)" d="M 95.997955 118.08 
L 97.519773 118.08 
L 97.519773 98.551233 
L 95.997955 98.551233 
z
" style="fill:#ffffff;"/>
   </g>
   <g id="patch_35">
    <path clip-path="url(#p43e71b1a9b)" d="M 97.519773 118.08 
L 99.041591 118.08 
L 99.041591 94.934795 
L 97.519773 94.934795 
z
" style="fill:#ffffff;"/>
   </g>
   <g id="patch_36">
    <path clip-path="url(#p43e71b1a9b)" d="M 99.041591 118.08 
L 100.563409 118.08 
L 100.563409 92.620274 
L 99.041591 92.620274 
z
" style="fill:#ffffff;"/>
   </g>
   <g id="patch_37">
    <path clip-path="url(#p43e71b1a9b)" d="M 100.563409 118.08 
L 102.085227 118.08 
L 102.085227 87.846575 
L 100.563409 87.846575 
z
" style="fill:#ffffff;"/>
   </g>
   <g id="patch_38">
    <path clip-path="url(#p43e71b1a9b)" d="M 102.085227 118.08 
L 103.607045 118.08 
L 103.607045 87.991233 
L 102.085227 87.991233 
z
" style="fill:#ffffff;"/>
   </g>
   <g id="patch_39">
    <path clip-path="url(#p43e71b1a9b)" d="M 103.607045 118.08 
L 105.128864 118.08 
L 105.128864 89.003836 
L 103.607045 89.003836 
z
" style="fill:#ffffff;"/>
   </g>
   <g id="patch_40">
    <path clip-path="url(#p43e71b1a9b)" d="M 105.128864 118.08 
L 106.650682 118.08 
L 106.650682 80.758356 
L 105.128864 80.758356 
z
" style="fill:#ffffff;"/>
   </g>
   <g id="patch_41">
    <path clip-path="url(#p43e71b1a9b)" d="M 106.650682 118.08 
L 108.1725 118.08 
L 108.1725 78.733151 
L 106.650682 78.733151 
z
" style="fill:#ffffff;"/>
   </g>
   <g id="patch_42">
    <path clip-path="url(#p43e71b1a9b)" d="M 108.1725 118.08 
L 109.694318 118.08 
L 109.694318 79.311781 
L 108.1725 79.311781 
z
" style="fill:#ffffff;"/>
   </g>
   <g id="patch_43">
    <path clip-path="url(#p43e71b1a9b)" d="M 109.694318 118.08 
L 111.216136 118.08 
L 111.216136 61.808219 
L 109.694318 61.808219 
z
" style="fill:#ffffff;"/>
   </g>
   <g id="patch_44">
    <path clip-path="url(#p43e71b1a9b)" d="M 111.216136 118.08 
L 112.737955 118.08 
L 112.737955 82.494247 
L 111.216136 82.494247 
z
" style="fill:#ffffff;"/>
   </g>
   <g id="patch_45">
    <path clip-path="url(#p43e71b1a9b)" d="M 112.737955 118.08 
L 114.259773 118.08 
L 114.259773 67.449863 
L 112.737955 67.449863 
z
" style="fill:#ffffff;"/>
   </g>
   <g id="patch_46">
    <path clip-path="url(#p43e71b1a9b)" d="M 114.259773 118.08 
L 115.781591 118.08 
L 115.781591 67.739178 
L 114.259773 67.739178 
z
" style="fill:#ffffff;"/>
   </g>
   <g id="patch_47">
    <path clip-path="url(#p43e71b1a9b)" d="M 115.781591 118.08 
L 117.303409 118.08 
L 117.303409 70.198356 
L 115.781591 70.198356 
z
" style="fill:#ffffff;"/>
   </g>
   <g id="patch_48">
    <path clip-path="url(#p43e71b1a9b)" d="M 117.303409 118.08 
L 118.825227 118.08 
L 118.825227 48.644384 
L 117.303409 48.644384 
z
" style="fill:#ffffff;"/>
   </g>
   <g id="patch_49">
    <path clip-path="url(#p43e71b1a9b)" d="M 118.825227 118.08 
L 120.347045 118.08 
L 120.347045 74.393425 
L 118.825227 74.393425 
z
" style="fill:#ffffff;"/>
   </g>
   <g id="patch_50">
    <path clip-path="url(#p43e71b1a9b)" d="M 120.347045 118.08 
L 121.868864 118.08 
L 121.868864 52.260822 
L 120.347045 52.260822 
z
" style="fill:#ffffff;"/>
   </g>
   <g id="patch_51">
    <path clip-path="url(#p43e71b1a9b)" d="M 121.868864 118.08 
L 123.390682 118.08 
L 123.390682 56.745205 
L 121.868864 56.745205 
z
" style="fill:#ffffff;"/>
   </g>
   <g id="patch_52">
    <path clip-path="url(#p43e71b1a9b)" d="M 123.390682 118.08 
L 124.9125 118.08 
L 124.9125 53.852055 
L 123.390682 53.852055 
z
" style="fill:#ffffff;"/>
   </g>
   <g id="patch_53">
    <path clip-path="url(#p43e71b1a9b)" d="M 124.9125 118.08 
L 126.434318 118.08 
L 126.434318 40.398904 
L 124.9125 40.398904 
z
" style="fill:#ffffff;"/>
   </g>
   <g id="patch_54">
    <path clip-path="url(#p43e71b1a9b)" d="M 126.434318 118.08 
L 127.956136 118.08 
L 127.956136 72.223562 
L 126.434318 72.223562 
z
" style="fill:#ffffff;"/>
   </g>
   <g id="patch_55">
    <path clip-path="url(#p43e71b1a9b)" d="M 127.956136 118.08 
L 129.477955 118.08 
L 129.477955 50.380274 
L 127.956136 50.380274 
z
" style="fill:#ffffff;"/>
   </g>
   <g id="patch_56">
    <path clip-path="url(#p43e71b1a9b)" d="M 129.477955 118.08 
L 130.999773 118.08 
L 130.999773 47.921096 
L 129.477955 47.921096 
z
" style="fill:#ffffff;"/>
   </g>
   <g id="patch_57">
    <path clip-path="url(#p43e71b1a9b)" d="M 130.999773 118.08 
L 132.521591 118.08 
L 132.521591 52.260822 
L 130.999773 52.260822 
z
" style="fill:#ffffff;"/>
   </g>
   <g id="patch_58">
    <path clip-path="url(#p43e71b1a9b)" d="M 132.521591 118.08 
L 134.043409 118.08 
L 134.043409 35.191233 
L 132.521591 35.191233 
z
" style="fill:#ffffff;"/>
   </g>
   <g id="patch_59">
    <path clip-path="url(#p43e71b1a9b)" d="M 134.043409 118.08 
L 135.565227 118.08 
L 135.565227 68.607123 
L 134.043409 68.607123 
z
" style="fill:#ffffff;"/>
   </g>
   <g id="patch_60">
    <path clip-path="url(#p43e71b1a9b)" d="M 135.565227 118.08 
L 137.087045 118.08 
L 137.087045 58.047123 
L 135.565227 58.047123 
z
" style="fill:#ffffff;"/>
   </g>
   <g id="patch_61">
    <path clip-path="url(#p43e71b1a9b)" d="M 137.087045 118.08 
L 138.608864 118.08 
L 138.608864 52.550137 
L 137.087045 52.550137 
z
" style="fill:#ffffff;"/>
   </g>
   <g id="patch_62">
    <path clip-path="url(#p43e71b1a9b)" d="M 138.608864 118.08 
L 140.130682 118.08 
L 140.130682 54.14137 
L 138.608864 54.14137 
z
" style="fill:#ffffff;"/>
   </g>
   <g id="patch_63">
    <path clip-path="url(#p43e71b1a9b)" d="M 140.130682 118.08 
L 141.6525 118.08 
L 141.6525 41.411507 
L 140.130682 41.411507 
z
" style="fill:#ffffff;"/>
   </g>
   <g id="patch_64">
    <path clip-path="url(#p43e71b1a9b)" d="M 141.6525 118.08 
L 143.174318 118.08 
L 143.174318 76.129315 
L 141.6525 76.129315 
z
" style="fill:#ffffff;"/>
   </g>
   <g id="patch_65">
    <path clip-path="url(#p43e71b1a9b)" d="M 143.174318 118.08 
L 144.696136 118.08 
L 144.696136 60.795616 
L 143.174318 60.795616 
z
" style="fill:#ffffff;"/>
   </g>
   <g id="patch_66">
    <path clip-path="url(#p43e71b1a9b)" d="M 144.696136 118.08 
L 146.217955 118.08 
L 146.217955 62.820822 
L 144.696136 62.820822 
z
" style="fill:#ffffff;"/>
   </g>
   <g id="patch_67">
    <path clip-path="url(#p43e71b1a9b)" d="M 146.217955 118.08 
L 147.739773 118.08 
L 147.739773 68.607123 
L 146.217955 68.607123 
z
" style="fill:#ffffff;"/>
   </g>
   <g id="patch_68">
    <path clip-path="url(#p43e71b1a9b)" d="M 147.739773 118.08 
L 149.261591 118.08 
L 149.261591 61.229589 
L 147.739773 61.229589 
z
" style="fill:#ffffff;"/>
   </g>
   <g id="patch_69">
    <path clip-path="url(#p43e71b1a9b)" d="M 149.261591 118.08 
L 150.783409 118.08 
L 150.783409 89.148493 
L 149.261591 89.148493 
z
" style="fill:#ffffff;"/>
   </g>
   <g id="patch_70">
    <path clip-path="url(#p43e71b1a9b)" d="M 150.783409 118.08 
L 152.305227 118.08 
L 152.305227 74.827397 
L 150.783409 74.827397 
z
" style="fill:#ffffff;"/>
   </g>
   <g id="patch_71">
    <path clip-path="url(#p43e71b1a9b)" d="M 152.305227 118.08 
L 153.827045 118.08 
L 153.827045 77.720548 
L 152.305227 77.720548 
z
" style="fill:#ffffff;"/>
   </g>
   <g id="patch_72">
    <path clip-path="url(#p43e71b1a9b)" d="M 153.827045 118.08 
L 155.348864 118.08 
L 155.348864 81.915616 
L 153.827045 81.915616 
z
" style="fill:#ffffff;"/>
   </g>
   <g id="patch_73">
    <path clip-path="url(#p43e71b1a9b)" d="M 155.348864 118.08 
L 156.870682 118.08 
L 156.870682 75.984658 
L 155.348864 75.984658 
z
" style="fill:#ffffff;"/>
   </g>
   <g id="patch_74">
    <path clip-path="url(#p43e71b1a9b)" d="M 156.870682 118.08 
L 158.3925 118.08 
L 158.3925 93.198904 
L 156.870682 93.198904 
z
" style="fill:#ffffff;"/>
   </g>
   <g id="patch_75">
    <path clip-path="url(#p43e71b1a9b)" d="M 158.3925 118.08 
L 159.914318 118.08 
L 159.914318 93.198904 
L 158.3925 93.198904 
z
" style="fill:#ffffff;"/>
   </g>
   <g id="patch_76">
    <path clip-path="url(#p43e71b1a9b)" d="M 159.914318 118.08 
L 161.436136 118.08 
L 161.436136 95.658082 
L 159.914318 95.658082 
z
" style="fill:#ffffff;"/>
   </g>
   <g id="patch_77">
    <path clip-path="url(#p43e71b1a9b)" d="M 161.436136 118.08 
L 162.957955 118.08 
L 162.957955 96.38137 
L 161.436136 96.38137 
z
" style="fill:#ffffff;"/>
   </g>
   <g id="patch_78">
    <path clip-path="url(#p43e71b1a9b)" d="M 162.957955 118.08 
L 164.479773 118.08 
L 164.479773 95.079452 
L 162.957955 95.079452 
z
" style="fill:#ffffff;"/>
   </g>
   <g id="patch_79">
    <path clip-path="url(#p43e71b1a9b)" d="M 164.479773 118.08 
L 166.001591 118.08 
L 166.001591 104.192877 
L 164.479773 104.192877 
z
" style="fill:#ffffff;"/>
   </g>
   <g id="patch_80">
    <path clip-path="url(#p43e71b1a9b)" d="M 166.001591 118.08 
L 167.523409 118.08 
L 167.523409 102.746301 
L 166.001591 102.746301 
z
" style="fill:#ffffff;"/>
   </g>
   <g id="patch_81">
    <path clip-path="url(#p43e71b1a9b)" d="M 167.523409 118.08 
L 169.045227 118.08 
L 169.045227 104.626849 
L 167.523409 104.626849 
z
" style="fill:#ffffff;"/>
   </g>
   <g id="patch_82">
    <path clip-path="url(#p43e71b1a9b)" d="M 169.045227 118.08 
L 170.567045 118.08 
L 170.567045 106.507397 
L 169.045227 106.507397 
z
" style="fill:#ffffff;"/>
   </g>
   <g id="patch_83">
    <path clip-path="url(#p43e71b1a9b)" d="M 170.567045 118.08 
L 172.088864 118.08 
L 172.088864 108.532603 
L 170.567045 108.532603 
z
" style="fill:#ffffff;"/>
   </g>
   <g id="patch_84">
    <path clip-path="url(#p43e71b1a9b)" d="M 172.088864 118.08 
L 173.610682 118.08 
L 173.610682 107.230685 
L 172.088864 107.230685 
z
" style="fill:#ffffff;"/>
   </g>
   <g id="patch_85">
    <path clip-path="url(#p43e71b1a9b)" d="M 173.610682 118.08 
L 175.1325 118.08 
L 175.1325 114.174247 
L 173.610682 114.174247 
z
" style="fill:#ffffff;"/>
   </g>
   <g id="patch_86">
    <path clip-path="url(#p43e71b1a9b)" d="M 175.1325 118.08 
L 176.654318 118.08 
L 176.654318 111.570411 
L 175.1325 111.570411 
z
" style="fill:#ffffff;"/>
   </g>
   <g id="patch_87">
    <path clip-path="url(#p43e71b1a9b)" d="M 176.654318 118.08 
L 178.176136 118.08 
L 178.176136 112.149041 
L 176.654318 112.149041 
z
" style="fill:#ffffff;"/>
   </g>
   <g id="patch_88">
    <path clip-path="url(#p43e71b1a9b)" d="M 178.176136 118.08 
L 179.697955 118.08 
L 179.697955 112.727671 
L 178.176136 112.727671 
z
" style="fill:#ffffff;"/>
   </g>
   <g id="patch_89">
    <path clip-path="url(#p43e71b1a9b)" d="M 179.697955 118.08 
L 181.219773 118.08 
L 181.219773 115.186849 
L 179.697955 115.186849 
z
" style="fill:#ffffff;"/>
   </g>
   <g id="patch_90">
    <path clip-path="url(#p43e71b1a9b)" d="M 181.219773 118.08 
L 182.741591 118.08 
L 182.741591 116.34411 
L 181.219773 116.34411 
z
" style="fill:#ffffff;"/>
   </g>
   <g id="patch_91">
    <path clip-path="url(#p43e71b1a9b)" d="M 182.741591 118.08 
L 184.263409 118.08 
L 184.263409 115.765479 
L 182.741591 115.765479 
z
" style="fill:#ffffff;"/>
   </g>
   <g id="patch_92">
    <path clip-path="url(#p43e71b1a9b)" d="M 184.263409 118.08 
L 185.785227 118.08 
L 185.785227 116.92274 
L 184.263409 116.92274 
z
" style="fill:#ffffff;"/>
   </g>
   <g id="patch_93">
    <path clip-path="url(#p43e71b1a9b)" d="M 185.785227 118.08 
L 187.307045 118.08 
L 187.307045 116.778082 
L 185.785227 116.778082 
z
" style="fill:#ffffff;"/>
   </g>
   <g id="patch_94">
    <path clip-path="url(#p43e71b1a9b)" d="M 187.307045 118.08 
L 188.828864 118.08 
L 188.828864 116.92274 
L 187.307045 116.92274 
z
" style="fill:#ffffff;"/>
   </g>
   <g id="patch_95">
    <path clip-path="url(#p43e71b1a9b)" d="M 188.828864 118.08 
L 190.350682 118.08 
L 190.350682 117.935342 
L 188.828864 117.935342 
z
" style="fill:#ffffff;"/>
   </g>
   <g id="patch_96">
    <path clip-path="url(#p43e71b1a9b)" d="M 190.350682 118.08 
L 191.8725 118.08 
L 191.8725 117.067397 
L 190.350682 117.067397 
z
" style="fill:#ffffff;"/>
   </g>
   <g id="patch_97">
    <path clip-path="url(#p43e71b1a9b)" d="M 191.8725 118.08 
L 193.394318 118.08 
L 193.394318 117.790685 
L 191.8725 117.790685 
z
" style="fill:#ffffff;"/>
   </g>
   <g id="patch_98">
    <path clip-path="url(#p43e71b1a9b)" d="M 193.394318 118.08 
L 194.916136 118.08 
L 194.916136 117.790685 
L 193.394318 117.790685 
z
" style="fill:#ffffff;"/>
   </g>
   <g id="patch_99">
    <path clip-path="url(#p43e71b1a9b)" d="M 194.916136 118.08 
L 196.437955 118.08 
L 196.437955 117.935342 
L 194.916136 117.935342 
z
" style="fill:#ffffff;"/>
   </g>
   <g id="patch_100">
    <path clip-path="url(#p43e71b1a9b)" d="M 196.437955 118.08 
L 197.959773 118.08 
L 197.959773 117.790685 
L 196.437955 117.790685 
z
" style="fill:#ffffff;"/>
   </g>
   <g id="patch_101">
    <path clip-path="url(#p43e71b1a9b)" d="M 197.959773 118.08 
L 199.481591 118.08 
L 199.481591 118.08 
L 197.959773 118.08 
z
" style="fill:#ffffff;"/>
   </g>
   <g id="patch_102">
    <path clip-path="url(#p43e71b1a9b)" d="M 199.481591 118.08 
L 201.003409 118.08 
L 201.003409 118.08 
L 199.481591 118.08 
z
" style="fill:#ffffff;"/>
   </g>
   <g id="patch_103">
    <path clip-path="url(#p43e71b1a9b)" d="M 48.821591 118.08 
L 50.343409 118.08 
L 50.343409 118.08 
L 48.821591 118.08 
z
" style="fill:#ffffff;"/>
   </g>
   <g id="patch_104">
    <path clip-path="url(#p43e71b1a9b)" d="M 50.343409 118.08 
L 51.865227 118.08 
L 51.865227 118.08 
L 50.343409 118.08 
z
" style="fill:#ffffff;"/>
   </g>
   <g id="patch_105">
    <path clip-path="url(#p43e71b1a9b)" d="M 51.865227 118.08 
L 53.387045 118.08 
L 53.387045 117.935342 
L 51.865227 117.935342 
z
" style="fill:#ffffff;"/>
   </g>
   <g id="patch_106">
    <path clip-path="url(#p43e71b1a9b)" d="M 53.387045 118.08 
L 54.908864 118.08 
L 54.908864 118.08 
L 53.387045 118.08 
z
" style="fill:#ffffff;"/>
   </g>
   <g id="patch_107">
    <path clip-path="url(#p43e71b1a9b)" d="M 54.908864 118.08 
L 56.430682 118.08 
L 56.430682 118.08 
L 54.908864 118.08 
z
" style="fill:#ffffff;"/>
   </g>
   <g id="patch_108">
    <path clip-path="url(#p43e71b1a9b)" d="M 56.430682 118.08 
L 57.9525 118.08 
L 57.9525 118.08 
L 56.430682 118.08 
z
" style="fill:#ffffff;"/>
   </g>
   <g id="patch_109">
    <path clip-path="url(#p43e71b1a9b)" d="M 57.9525 118.08 
L 59.474318 118.08 
L 59.474318 117.646027 
L 57.9525 117.646027 
z
" style="fill:#ffffff;"/>
   </g>
   <g id="patch_110">
    <path clip-path="url(#p43e71b1a9b)" d="M 59.474318 118.08 
L 60.996136 118.08 
L 60.996136 117.50137 
L 59.474318 117.50137 
z
" style="fill:#ffffff;"/>
   </g>
   <g id="patch_111">
    <path clip-path="url(#p43e71b1a9b)" d="M 60.996136 118.08 
L 62.517955 118.08 
L 62.517955 117.646027 
L 60.996136 117.646027 
z
" style="fill:#ffffff;"/>
   </g>
   <g id="patch_112">
    <path clip-path="url(#p43e71b1a9b)" d="M 62.517955 118.08 
L 64.039773 118.08 
L 64.039773 117.790685 
L 62.517955 117.790685 
z
" style="fill:#ffffff;"/>
   </g>
   <g id="patch_113">
    <path clip-path="url(#p43e71b1a9b)" d="M 64.039773 118.08 
L 65.561591 118.08 
L 65.561591 117.212055 
L 64.039773 117.212055 
z
" style="fill:#ffffff;"/>
   </g>
   <g id="patch_114">
    <path clip-path="url(#p43e71b1a9b)" d="M 65.561591 118.08 
L 67.083409 118.08 
L 67.083409 117.50137 
L 65.561591 117.50137 
z
" style="fill:#ffffff;"/>
   </g>
   <g id="patch_115">
    <path clip-path="url(#p43e71b1a9b)" d="M 67.083409 118.08 
L 68.605227 118.08 
L 68.605227 115.910137 
L 67.083409 115.910137 
z
" style="fill:#ffffff;"/>
   </g>
   <g id="patch_116">
    <path clip-path="url(#p43e71b1a9b)" d="M 68.605227 118.08 
L 70.127045 118.08 
L 70.127045 116.92274 
L 68.605227 116.92274 
z
" style="fill:#ffffff;"/>
   </g>
   <g id="patch_117">
    <path clip-path="url(#p43e71b1a9b)" d="M 70.127045 118.08 
L 71.648864 118.08 
L 71.648864 114.318904 
L 70.127045 114.318904 
z
" style="fill:#ffffff;"/>
   </g>
   <g id="patch_118">
    <path clip-path="url(#p43e71b1a9b)" d="M 71.648864 118.08 
L 73.170682 118.08 
L 73.170682 115.620822 
L 71.648864 115.620822 
z
" style="fill:#ffffff;"/>
   </g>
   <g id="patch_119">
    <path clip-path="url(#p43e71b1a9b)" d="M 73.170682 118.08 
L 74.6925 118.08 
L 74.6925 114.174247 
L 73.170682 114.174247 
z
" style="fill:#ffffff;"/>
   </g>
   <g id="patch_120">
    <path clip-path="url(#p43e71b1a9b)" d="M 74.6925 118.08 
L 76.214318 118.08 
L 76.214318 113.450959 
L 74.6925 113.450959 
z
" style="fill:#ffffff;"/>
   </g>
   <g id="patch_121">
    <path clip-path="url(#p43e71b1a9b)" d="M 76.214318 118.08 
L 77.736136 118.08 
L 77.736136 111.715068 
L 76.214318 111.715068 
z
" style="fill:#ffffff;"/>
   </g>
   <g id="patch_122">
    <path clip-path="url(#p43e71b1a9b)" d="M 77.736136 118.08 
L 79.257955 118.08 
L 79.257955 109.400548 
L 77.736136 109.400548 
z
" style="fill:#ffffff;"/>
   </g>
   <g id="patch_123">
    <path clip-path="url(#p43e71b1a9b)" d="M 79.257955 118.08 
L 80.779773 118.08 
L 80.779773 110.702466 
L 79.257955 110.702466 
z
" style="fill:#ffffff;"/>
   </g>
   <g id="patch_124">
    <path clip-path="url(#p43e71b1a9b)" d="M 80.779773 118.08 
L 82.301591 118.08 
L 82.301591 108.243288 
L 80.779773 108.243288 
z
" style="fill:#ffffff;"/>
   </g>
   <g id="patch_125">
    <path clip-path="url(#p43e71b1a9b)" d="M 82.301591 118.08 
L 83.823409 118.08 
L 83.823409 98.406575 
L 82.301591 98.406575 
z
" style="fill:#ffffff;"/>
   </g>
   <g id="patch_126">
    <path clip-path="url(#p43e71b1a9b)" d="M 83.823409 118.08 
L 85.345227 118.08 
L 85.345227 104.916164 
L 83.823409 104.916164 
z
" style="fill:#ffffff;"/>
   </g>
   <g id="patch_127">
    <path clip-path="url(#p43e71b1a9b)" d="M 85.345227 118.08 
L 86.867045 118.08 
L 86.867045 99.853151 
L 85.345227 99.853151 
z
" style="fill:#ffffff;"/>
   </g>
   <g id="patch_128">
    <path clip-path="url(#p43e71b1a9b)" d="M 86.867045 118.08 
L 88.388864 118.08 
L 88.388864 94.356164 
L 86.867045 94.356164 
z
" style="fill:#ffffff;"/>
   </g>
   <g id="patch_129">
    <path clip-path="url(#p43e71b1a9b)" d="M 88.388864 118.08 
L 89.910682 118.08 
L 89.910682 93.054247 
L 88.388864 93.054247 
z
" style="fill:#ffffff;"/>
   </g>
   <g id="patch_130">
    <path clip-path="url(#p43e71b1a9b)" d="M 89.910682 118.08 
L 91.4325 118.08 
L 91.4325 82.494247 
L 89.910682 82.494247 
z
" style="fill:#ffffff;"/>
   </g>
   <g id="patch_131">
    <path clip-path="url(#p43e71b1a9b)" d="M 91.4325 118.08 
L 92.954318 118.08 
L 92.954318 94.066849 
L 91.4325 94.066849 
z
" style="fill:#ffffff;"/>
   </g>
   <g id="patch_132">
    <path clip-path="url(#p43e71b1a9b)" d="M 92.954318 118.08 
L 94.476136 118.08 
L 94.476136 83.217534 
L 92.954318 83.217534 
z
" style="fill:#ffffff;"/>
   </g>
   <g id="patch_133">
    <path clip-path="url(#p43e71b1a9b)" d="M 94.476136 118.08 
L 95.997955 118.08 
L 95.997955 73.959452 
L 94.476136 73.959452 
z
" style="fill:#ffffff;"/>
   </g>
   <g id="patch_134">
    <path clip-path="url(#p43e71b1a9b)" d="M 95.997955 118.08 
L 97.519773 118.08 
L 97.519773 72.512877 
L 95.997955 72.512877 
z
" style="fill:#ffffff;"/>
   </g>
   <g id="patch_135">
    <path clip-path="url(#p43e71b1a9b)" d="M 97.519773 118.08 
L 99.041591 118.08 
L 99.041591 65.424658 
L 97.519773 65.424658 
z
" style="fill:#ffffff;"/>
   </g>
   <g id="patch_136">
    <path clip-path="url(#p43e71b1a9b)" d="M 99.041591 118.08 
L 100.563409 118.08 
L 100.563409 62.965479 
L 99.041591 62.965479 
z
" style="fill:#ffffff;"/>
   </g>
   <g id="patch_137">
    <path clip-path="url(#p43e71b1a9b)" d="M 100.563409 118.08 
L 102.085227 118.08 
L 102.085227 63.978082 
L 100.563409 63.978082 
z
" style="fill:#ffffff;"/>
   </g>
   <g id="patch_138">
    <path clip-path="url(#p43e71b1a9b)" d="M 102.085227 118.08 
L 103.607045 118.08 
L 103.607045 53.56274 
L 102.085227 53.56274 
z
" style="fill:#ffffff;"/>
   </g>
   <g id="patch_139">
    <path clip-path="url(#p43e71b1a9b)" d="M 103.607045 118.08 
L 105.128864 118.08 
L 105.128864 50.235616 
L 103.607045 50.235616 
z
" style="fill:#ffffff;"/>
   </g>
   <g id="patch_140">
    <path clip-path="url(#p43e71b1a9b)" d="M 105.128864 118.08 
L 106.650682 118.08 
L 106.650682 48.499726 
L 105.128864 48.499726 
z
" style="fill:#ffffff;"/>
   </g>
   <g id="patch_141">
    <path clip-path="url(#p43e71b1a9b)" d="M 106.650682 118.08 
L 108.1725 118.08 
L 108.1725 41.122192 
L 106.650682 41.122192 
z
" style="fill:#ffffff;"/>
   </g>
   <g id="patch_142">
    <path clip-path="url(#p43e71b1a9b)" d="M 108.1725 118.08 
L 109.694318 118.08 
L 109.694318 37.650411 
L 108.1725 37.650411 
z
" style="fill:#ffffff;"/>
   </g>
   <g id="patch_143">
    <path clip-path="url(#p43e71b1a9b)" d="M 109.694318 118.08 
L 111.216136 118.08 
L 111.216136 19.278904 
L 109.694318 19.278904 
z
" style="fill:#ffffff;"/>
   </g>
   <g id="patch_144">
    <path clip-path="url(#p43e71b1a9b)" d="M 111.216136 118.08 
L 112.737955 118.08 
L 112.737955 53.852055 
L 111.216136 53.852055 
z
" style="fill:#ffffff;"/>
   </g>
   <g id="patch_145">
    <path clip-path="url(#p43e71b1a9b)" d="M 112.737955 118.08 
L 114.259773 118.08 
L 114.259773 38.807671 
L 112.737955 38.807671 
z
" style="fill:#ffffff;"/>
   </g>
   <g id="patch_146">
    <path clip-path="url(#p43e71b1a9b)" d="M 114.259773 118.08 
L 115.781591 118.08 
L 115.781591 33.310685 
L 114.259773 33.310685 
z
" style="fill:#ffffff;"/>
   </g>
   <g id="patch_147">
    <path clip-path="url(#p43e71b1a9b)" d="M 115.781591 118.08 
L 117.303409 118.08 
L 117.303409 39.386301 
L 115.781591 39.386301 
z
" style="fill:#ffffff;"/>
   </g>
   <g id="patch_148">
    <path clip-path="url(#p43e71b1a9b)" d="M 117.303409 118.08 
L 118.825227 118.08 
L 118.825227 12.48 
L 117.303409 12.48 
z
" style="fill:#ffffff;"/>
   </g>
   <g id="patch_149">
    <path clip-path="url(#p43e71b1a9b)" d="M 118.825227 118.08 
L 120.347045 118.08 
L 120.347045 60.795616 
L 118.825227 60.795616 
z
" style="fill:#ffffff;"/>
   </g>
   <g id="patch_150">
    <path clip-path="url(#p43e71b1a9b)" d="M 120.347045 118.08 
L 121.868864 118.08 
L 121.868864 37.216438 
L 120.347045 37.216438 
z
" style="fill:#ffffff;"/>
   </g>
   <g id="patch_151">
    <path clip-path="url(#p43e71b1a9b)" d="M 121.868864 118.08 
L 123.390682 118.08 
L 123.390682 48.210411 
L 121.868864 48.210411 
z
" style="fill:#ffffff;"/>
   </g>
   <g id="patch_152">
    <path clip-path="url(#p43e71b1a9b)" d="M 123.390682 118.08 
L 124.9125 118.08 
L 124.9125 42.134795 
L 123.390682 42.134795 
z
" style="fill:#ffffff;"/>
   </g>
   <g id="patch_153">
    <path clip-path="url(#p43e71b1a9b)" d="M 124.9125 118.08 
L 126.434318 118.08 
L 126.434318 28.103014 
L 124.9125 28.103014 
z
" style="fill:#ffffff;"/>
   </g>
   <g id="patch_154">
    <path clip-path="url(#p43e71b1a9b)" d="M 126.434318 118.08 
L 127.956136 118.08 
L 127.956136 71.066301 
L 126.434318 71.066301 
z
" style="fill:#ffffff;"/>
   </g>
   <g id="patch_155">
    <path clip-path="url(#p43e71b1a9b)" d="M 127.956136 118.08 
L 129.477955 118.08 
L 129.477955 55.443288 
L 127.956136 55.443288 
z
" style="fill:#ffffff;"/>
   </g>
   <g id="patch_156">
    <path clip-path="url(#p43e71b1a9b)" d="M 129.477955 118.08 
L 130.999773 118.08 
L 130.999773 63.833425 
L 129.477955 63.833425 
z
" style="fill:#ffffff;"/>
   </g>
   <g id="patch_157">
    <path clip-path="url(#p43e71b1a9b)" d="M 130.999773 118.08 
L 132.521591 118.08 
L 132.521591 63.399452 
L 130.999773 63.399452 
z
" style="fill:#ffffff;"/>
   </g>
   <g id="patch_158">
    <path clip-path="url(#p43e71b1a9b)" d="M 132.521591 118.08 
L 134.043409 118.08 
L 134.043409 58.625753 
L 132.521591 58.625753 
z
" style="fill:#ffffff;"/>
   </g>
   <g id="patch_159">
    <path clip-path="url(#p43e71b1a9b)" d="M 134.043409 118.08 
L 135.565227 118.08 
L 135.565227 85.098082 
L 134.043409 85.098082 
z
" style="fill:#ffffff;"/>
   </g>
   <g id="patch_160">
    <path clip-path="url(#p43e71b1a9b)" d="M 135.565227 118.08 
L 137.087045 118.08 
L 137.087045 78.588493 
L 135.565227 78.588493 
z
" style="fill:#ffffff;"/>
   </g>
   <g id="patch_161">
    <path clip-path="url(#p43e71b1a9b)" d="M 137.087045 118.08 
L 138.608864 118.08 
L 138.608864 82.783562 
L 137.087045 82.783562 
z
" style="fill:#ffffff;"/>
   </g>
   <g id="patch_162">
    <path clip-path="url(#p43e71b1a9b)" d="M 138.608864 118.08 
L 140.130682 118.08 
L 140.130682 86.255342 
L 138.608864 86.255342 
z
" style="fill:#ffffff;"/>
   </g>
   <g id="patch_163">
    <path clip-path="url(#p43e71b1a9b)" d="M 140.130682 118.08 
L 141.6525 118.08 
L 141.6525 82.928219 
L 140.130682 82.928219 
z
" style="fill:#ffffff;"/>
   </g>
   <g id="patch_164">
    <path clip-path="url(#p43e71b1a9b)" d="M 141.6525 118.08 
L 143.174318 118.08 
L 143.174318 98.69589 
L 141.6525 98.69589 
z
" style="fill:#ffffff;"/>
   </g>
   <g id="patch_165">
    <path clip-path="url(#p43e71b1a9b)" d="M 143.174318 118.08 
L 144.696136 118.08 
L 144.696136 97.683288 
L 143.174318 97.683288 
z
" style="fill:#ffffff;"/>
   </g>
   <g id="patch_166">
    <path clip-path="url(#p43e71b1a9b)" d="M 144.696136 118.08 
L 146.217955 118.08 
L 146.217955 99.274521 
L 144.696136 99.274521 
z
" style="fill:#ffffff;"/>
   </g>
   <g id="patch_167">
    <path clip-path="url(#p43e71b1a9b)" d="M 146.217955 118.08 
L 147.739773 118.08 
L 147.739773 101.589041 
L 146.217955 101.589041 
z
" style="fill:#ffffff;"/>
   </g>
   <g id="patch_168">
    <path clip-path="url(#p43e71b1a9b)" d="M 147.739773 118.08 
L 149.261591 118.08 
L 149.261591 103.903562 
L 147.739773 103.903562 
z
" style="fill:#ffffff;"/>
   </g>
   <g id="patch_169">
    <path clip-path="url(#p43e71b1a9b)" d="M 149.261591 118.08 
L 150.783409 118.08 
L 150.783409 108.532603 
L 149.261591 108.532603 
z
" style="fill:#ffffff;"/>
   </g>
   <g id="patch_170">
    <path clip-path="url(#p43e71b1a9b)" d="M 150.783409 118.08 
L 152.305227 118.08 
L 152.305227 107.230685 
L 150.783409 107.230685 
z
" style="fill:#ffffff;"/>
   </g>
   <g id="patch_171">
    <path clip-path="url(#p43e71b1a9b)" d="M 152.305227 118.08 
L 153.827045 118.08 
L 153.827045 106.94137 
L 152.305227 106.94137 
z
" style="fill:#ffffff;"/>
   </g>
   <g id="patch_172">
    <path clip-path="url(#p43e71b1a9b)" d="M 153.827045 118.08 
L 155.348864 118.08 
L 155.348864 110.557808 
L 153.827045 110.557808 
z
" style="fill:#ffffff;"/>
   </g>
   <g id="patch_173">
    <path clip-path="url(#p43e71b1a9b)" d="M 155.348864 118.08 
L 156.870682 118.08 
L 156.870682 111.425753 
L 155.348864 111.425753 
z
" style="fill:#ffffff;"/>
   </g>
   <g id="patch_174">
    <path clip-path="url(#p43e71b1a9b)" d="M 156.870682 118.08 
L 158.3925 118.08 
L 158.3925 113.884932 
L 156.870682 113.884932 
z
" style="fill:#ffffff;"/>
   </g>
   <g id="patch_175">
    <path clip-path="url(#p43e71b1a9b)" d="M 158.3925 118.08 
L 159.914318 118.08 
L 159.914318 114.463562 
L 158.3925 114.463562 
z
" style="fill:#ffffff;"/>
   </g>
   <g id="patch_176">
    <path clip-path="url(#p43e71b1a9b)" d="M 159.914318 118.08 
L 161.436136 118.08 
L 161.436136 114.897534 
L 159.914318 114.897534 
z
" style="fill:#ffffff;"/>
   </g>
   <g id="patch_177">
    <path clip-path="url(#p43e71b1a9b)" d="M 161.436136 118.08 
L 162.957955 118.08 
L 162.957955 115.910137 
L 161.436136 115.910137 
z
" style="fill:#ffffff;"/>
   </g>
   <g id="patch_178">
    <path clip-path="url(#p43e71b1a9b)" d="M 162.957955 118.08 
L 164.479773 118.08 
L 164.479773 115.910137 
L 162.957955 115.910137 
z
" style="fill:#ffffff;"/>
   </g>
   <g id="patch_179">
    <path clip-path="url(#p43e71b1a9b)" d="M 164.479773 118.08 
L 166.001591 118.08 
L 166.001591 116.778082 
L 164.479773 116.778082 
z
" style="fill:#ffffff;"/>
   </g>
   <g id="patch_180">
    <path clip-path="url(#p43e71b1a9b)" d="M 166.001591 118.08 
L 167.523409 118.08 
L 167.523409 116.778082 
L 166.001591 116.778082 
z
" style="fill:#ffffff;"/>
   </g>
   <g id="patch_181">
    <path clip-path="url(#p43e71b1a9b)" d="M 167.523409 118.08 
L 169.045227 118.08 
L 169.045227 117.50137 
L 167.523409 117.50137 
z
" style="fill:#ffffff;"/>
   </g>
   <g id="patch_182">
    <path clip-path="url(#p43e71b1a9b)" d="M 169.045227 118.08 
L 170.567045 118.08 
L 170.567045 117.212055 
L 169.045227 117.212055 
z
" style="fill:#ffffff;"/>
   </g>
   <g id="patch_183">
    <path clip-path="url(#p43e71b1a9b)" d="M 170.567045 118.08 
L 172.088864 118.08 
L 172.088864 117.646027 
L 170.567045 117.646027 
z
" style="fill:#ffffff;"/>
   </g>
   <g id="patch_184">
    <path clip-path="url(#p43e71b1a9b)" d="M 172.088864 118.08 
L 173.610682 118.08 
L 173.610682 117.790685 
L 172.088864 117.790685 
z
" style="fill:#ffffff;"/>
   </g>
   <g id="patch_185">
    <path clip-path="url(#p43e71b1a9b)" d="M 173.610682 118.08 
L 175.1325 118.08 
L 175.1325 117.935342 
L 173.610682 117.935342 
z
" style="fill:#ffffff;"/>
   </g>
   <g id="patch_186">
    <path clip-path="url(#p43e71b1a9b)" d="M 175.1325 118.08 
L 176.654318 118.08 
L 176.654318 117.935342 
L 175.1325 117.935342 
z
" style="fill:#ffffff;"/>
   </g>
   <g id="patch_187">
    <path clip-path="url(#p43e71b1a9b)" d="M 176.654318 118.08 
L 178.176136 118.08 
L 178.176136 117.935342 
L 176.654318 117.935342 
z
" style="fill:#ffffff;"/>
   </g>
   <g id="patch_188">
    <path clip-path="url(#p43e71b1a9b)" d="M 178.176136 118.08 
L 179.697955 118.08 
L 179.697955 117.935342 
L 178.176136 117.935342 
z
" style="fill:#ffffff;"/>
   </g>
   <g id="patch_189">
    <path clip-path="url(#p43e71b1a9b)" d="M 179.697955 118.08 
L 181.219773 118.08 
L 181.219773 118.08 
L 179.697955 118.08 
z
" style="fill:#ffffff;"/>
   </g>
   <g id="patch_190">
    <path clip-path="url(#p43e71b1a9b)" d="M 181.219773 118.08 
L 182.741591 118.08 
L 182.741591 118.08 
L 181.219773 118.08 
z
" style="fill:#ffffff;"/>
   </g>
   <g id="patch_191">
    <path clip-path="url(#p43e71b1a9b)" d="M 182.741591 118.08 
L 184.263409 118.08 
L 184.263409 117.935342 
L 182.741591 117.935342 
z
" style="fill:#ffffff;"/>
   </g>
   <g id="patch_192">
    <path clip-path="url(#p43e71b1a9b)" d="M 184.263409 118.08 
L 185.785227 118.08 
L 185.785227 117.935342 
L 184.263409 117.935342 
z
" style="fill:#ffffff;"/>
   </g>
   <g id="patch_193">
    <path clip-path="url(#p43e71b1a9b)" d="M 185.785227 118.08 
L 187.307045 118.08 
L 187.307045 118.08 
L 185.785227 118.08 
z
" style="fill:#ffffff;"/>
   </g>
   <g id="patch_194">
    <path clip-path="url(#p43e71b1a9b)" d="M 187.307045 118.08 
L 188.828864 118.08 
L 188.828864 118.08 
L 187.307045 118.08 
z
" style="fill:#ffffff;"/>
   </g>
   <g id="patch_195">
    <path clip-path="url(#p43e71b1a9b)" d="M 188.828864 118.08 
L 190.350682 118.08 
L 190.350682 118.08 
L 188.828864 118.08 
z
" style="fill:#ffffff;"/>
   </g>
   <g id="patch_196">
    <path clip-path="url(#p43e71b1a9b)" d="M 190.350682 118.08 
L 191.8725 118.08 
L 191.8725 118.08 
L 190.350682 118.08 
z
" style="fill:#ffffff;"/>
   </g>
   <g id="patch_197">
    <path clip-path="url(#p43e71b1a9b)" d="M 191.8725 118.08 
L 193.394318 118.08 
L 193.394318 118.08 
L 191.8725 118.08 
z
" style="fill:#ffffff;"/>
   </g>
   <g id="patch_198">
    <path clip-path="url(#p43e71b1a9b)" d="M 193.394318 118.08 
L 194.916136 118.08 
L 194.916136 118.08 
L 193.394318 118.08 
z
" style="fill:#ffffff;"/>
   </g>
   <g id="patch_199">
    <path clip-path="url(#p43e71b1a9b)" d="M 194.916136 118.08 
L 196.437955 118.08 
L 196.437955 118.08 
L 194.916136 118.08 
z
" style="fill:#ffffff;"/>
   </g>
   <g id="patch_200">
    <path clip-path="url(#p43e71b1a9b)" d="M 196.437955 118.08 
L 197.959773 118.08 
L 197.959773 118.08 
L 196.437955 118.08 
z
" style="fill:#ffffff;"/>
   </g>
   <g id="patch_201">
    <path clip-path="url(#p43e71b1a9b)" d="M 197.959773 118.08 
L 199.481591 118.08 
L 199.481591 118.08 
L 197.959773 118.08 
z
" style="fill:#ffffff;"/>
   </g>
   <g id="patch_202">
    <path clip-path="url(#p43e71b1a9b)" d="M 199.481591 118.08 
L 201.003409 118.08 
L 201.003409 118.08 
L 199.481591 118.08 
z
" style="fill:#ffffff;"/>
   </g>
   <g id="matplotlib.axis_1">
    <g id="xtick_1">
     <g id="line2d_1">
      <defs>
       <path d="M 0 0 
L 0 3.5 
" id="m415d5d3716" style="stroke:#000000;stroke-width:1.5;"/>
      </defs>
      <g>
       <use style="stroke:#000000;stroke-width:1.5;" x="48.821591" xlink:href="#m415d5d3716" y="118.08"/>
      </g>
     </g>
     <g id="text_1">
      <text style="font-family:DejaVu Sans;font-size:8px;font-stretch:normal;font-style:normal;font-weight:normal;text-anchor:middle;" transform="rotate(-0, 48.821591, 131.15875)" x="48.821591" y="131.15875">20</text>
     </g>
    </g>
    <g id="xtick_2">
     <g id="line2d_2">
      <g>
       <use style="stroke:#000000;stroke-width:1.5;" x="86.867045" xlink:href="#m415d5d3716" y="118.08"/>
      </g>
     </g>
     <g id="text_2">
      <text style="font-family:DejaVu Sans;font-size:8px;font-stretch:normal;font-style:normal;font-weight:normal;text-anchor:middle;" transform="rotate(-0, 86.867045, 131.15875)" x="86.867045" y="131.15875">30</text>
     </g>
    </g>
    <g id="xtick_3">
     <g id="line2d_3">
      <g>
       <use style="stroke:#000000;stroke-width:1.5;" x="124.9125" xlink:href="#m415d5d3716" y="118.08"/>
      </g>
     </g>
     <g id="text_3">
      <text style="font-family:DejaVu Sans;font-size:8px;font-stretch:normal;font-style:normal;font-weight:normal;text-anchor:middle;" transform="rotate(-0, 124.9125, 131.15875)" x="124.9125" y="131.15875">40</text>
     </g>
    </g>
    <g id="xtick_4">
     <g id="line2d_4">
      <g>
       <use style="stroke:#000000;stroke-width:1.5;" x="162.957955" xlink:href="#m415d5d3716" y="118.08"/>
      </g>
     </g>
     <g id="text_4">
      <text style="font-family:DejaVu Sans;font-size:8px;font-stretch:normal;font-style:normal;font-weight:normal;text-anchor:middle;" transform="rotate(-0, 162.957955, 131.15875)" x="162.957955" y="131.15875">50</text>
     </g>
    </g>
    <g id="xtick_5">
     <g id="line2d_5">
      <g>
       <use style="stroke:#000000;stroke-width:1.5;" x="201.003409" xlink:href="#m415d5d3716" y="118.08"/>
      </g>
     </g>
     <g id="text_5">
      <text style="font-family:DejaVu Sans;font-size:8px;font-stretch:normal;font-style:normal;font-weight:normal;text-anchor:middle;" transform="rotate(-0, 201.003409, 131.15875)" x="201.003409" y="131.15875">60</text>
     </g>
    </g>
    <g id="text_6">
     <text style="font-family:DejaVu Sans;font-size:8px;font-stretch:normal;font-style:normal;font-weight:normal;text-anchor:middle;" transform="rotate(-0, 124.9125, 142.90125)" x="124.9125" y="142.90125">Number of spikes / second</text>
    </g>
   </g>
   <g id="matplotlib.axis_2">
    <g id="ytick_1">
     <g id="line2d_6">
      <defs>
       <path d="M 0 0 
L -3.5 0 
" id="m346d8dca35" style="stroke:#000000;stroke-width:1.5;"/>
      </defs>
      <g>
       <use style="stroke:#000000;stroke-width:1.5;" x="41.2125" xlink:href="#m346d8dca35" y="118.08"/>
      </g>
     </g>
     <g id="text_7">
      <text style="font-family:DejaVu Sans;font-size:8px;font-stretch:normal;font-style:normal;font-weight:normal;text-anchor:end;" transform="rotate(-0, 34.2125, 121.119375)" x="34.2125" y="121.119375">0</text>
     </g>
    </g>
    <g id="ytick_2">
     <g id="line2d_7">
      <g>
       <use style="stroke:#000000;stroke-width:1.5;" x="41.2125" xlink:href="#m346d8dca35" y="89.148493"/>
      </g>
     </g>
     <g id="text_8">
      <text style="font-family:DejaVu Sans;font-size:8px;font-stretch:normal;font-style:normal;font-weight:normal;text-anchor:end;" transform="rotate(-0, 34.2125, 92.187868)" x="34.2125" y="92.187868">200</text>
     </g>
    </g>
    <g id="ytick_3">
     <g id="line2d_8">
      <g>
       <use style="stroke:#000000;stroke-width:1.5;" x="41.2125" xlink:href="#m346d8dca35" y="60.216986"/>
      </g>
     </g>
     <g id="text_9">
      <text style="font-family:DejaVu Sans;font-size:8px;font-stretch:normal;font-style:normal;font-weight:normal;text-anchor:end;" transform="rotate(-0, 34.2125, 63.256361)" x="34.2125" y="63.256361">400</text>
     </g>
    </g>
    <g id="ytick_4">
     <g id="line2d_9">
      <g>
       <use style="stroke:#000000;stroke-width:1.5;" x="41.2125" xlink:href="#m346d8dca35" y="31.285479"/>
      </g>
     </g>
     <g id="text_10">
      <text style="font-family:DejaVu Sans;font-size:8px;font-stretch:normal;font-style:normal;font-weight:normal;text-anchor:end;" transform="rotate(-0, 34.2125, 34.324854)" x="34.2125" y="34.324854">600</text>
     </g>
    </g>
    <g id="text_11">
     <text style="font-family:DejaVu Sans;font-size:8px;font-stretch:normal;font-style:normal;font-weight:normal;text-anchor:middle;" transform="rotate(-90, 13.27875, 62.64)" x="13.27875" y="62.64">Count</text>
    </g>
   </g>
   <g id="line2d_10">
    <path clip-path="url(#p43e71b1a9b)" d="M 49.5825 118.08 
L 51.104318 118.08 
L 52.626136 118.08 
L 54.147955 117.935342 
L 55.669773 117.935342 
L 57.191591 118.08 
L 58.713409 117.790685 
L 60.235227 118.08 
L 61.757045 117.935342 
L 63.278864 117.790685 
L 64.800682 117.50137 
L 66.3225 117.935342 
L 67.844318 117.935342 
L 69.366136 116.778082 
L 70.887955 116.199452 
L 72.409773 116.778082 
L 73.931591 115.042192 
L 75.453409 115.331507 
L 76.975227 116.199452 
L 78.497045 115.331507 
L 80.018864 113.740274 
L 81.540682 112.872329 
L 83.0625 110.123836 
L 84.584318 114.029589 
L 86.106136 109.979178 
L 87.627955 107.664658 
L 89.149773 106.652055 
L 90.671591 101.733699 
L 92.193409 106.507397 
L 93.715227 102.023014 
L 95.237045 98.985205 
L 96.758864 98.551233 
L 98.280682 94.934795 
L 99.8025 92.620274 
L 101.324318 87.846575 
L 102.846136 87.991233 
L 104.367955 89.003836 
L 105.889773 80.758356 
L 107.411591 78.733151 
L 108.933409 79.311781 
L 110.455227 61.808219 
L 111.977045 82.494247 
L 113.498864 67.449863 
L 115.020682 67.739178 
L 116.5425 70.198356 
L 118.064318 48.644384 
L 119.586136 74.393425 
L 121.107955 52.260822 
L 122.629773 56.745205 
L 124.151591 53.852055 
L 125.673409 40.398904 
L 127.195227 72.223562 
L 128.717045 50.380274 
L 130.238864 47.921096 
L 131.760682 52.260822 
L 133.2825 35.191233 
L 134.804318 68.607123 
L 136.326136 58.047123 
L 137.847955 52.550137 
L 139.369773 54.14137 
L 140.891591 41.411507 
L 142.413409 76.129315 
L 143.935227 60.795616 
L 145.457045 62.820822 
L 146.978864 68.607123 
L 148.500682 61.229589 
L 150.0225 89.148493 
L 151.544318 74.827397 
L 153.066136 77.720548 
L 154.587955 81.915616 
L 156.109773 75.984658 
L 157.631591 93.198904 
L 159.153409 93.198904 
L 160.675227 95.658082 
L 162.197045 96.38137 
L 163.718864 95.079452 
L 165.240682 104.192877 
L 166.7625 102.746301 
L 168.284318 104.626849 
L 169.806136 106.507397 
L 171.327955 108.532603 
L 172.849773 107.230685 
L 174.371591 114.174247 
L 175.893409 111.570411 
L 177.415227 112.149041 
L 178.937045 112.727671 
L 180.458864 115.186849 
L 181.980682 116.34411 
L 183.5025 115.765479 
L 185.024318 116.92274 
L 186.546136 116.778082 
L 188.067955 116.92274 
L 189.589773 117.935342 
L 191.111591 117.067397 
L 192.633409 117.790685 
L 194.155227 117.790685 
L 195.677045 117.935342 
L 197.198864 117.790685 
L 198.720682 118.08 
L 200.2425 118.08 
" style="fill:none;stroke:#1f77b4;stroke-linecap:square;stroke-width:1.5;"/>
   </g>
   <g id="line2d_11">
    <path clip-path="url(#p43e71b1a9b)" d="M 49.5825 118.08 
L 51.104318 118.08 
L 52.626136 117.935342 
L 54.147955 118.08 
L 55.669773 118.08 
L 57.191591 118.08 
L 58.713409 117.646027 
L 60.235227 117.50137 
L 61.757045 117.646027 
L 63.278864 117.790685 
L 64.800682 117.212055 
L 66.3225 117.50137 
L 67.844318 115.910137 
L 69.366136 116.92274 
L 70.887955 114.318904 
L 72.409773 115.620822 
L 73.931591 114.174247 
L 75.453409 113.450959 
L 76.975227 111.715068 
L 78.497045 109.400548 
L 80.018864 110.702466 
L 81.540682 108.243288 
L 83.0625 98.406575 
L 84.584318 104.916164 
L 86.106136 99.853151 
L 87.627955 94.356164 
L 89.149773 93.054247 
L 90.671591 82.494247 
L 92.193409 94.066849 
L 93.715227 83.217534 
L 95.237045 73.959452 
L 96.758864 72.512877 
L 98.280682 65.424658 
L 99.8025 62.965479 
L 101.324318 63.978082 
L 102.846136 53.56274 
L 104.367955 50.235616 
L 105.889773 48.499726 
L 107.411591 41.122192 
L 108.933409 37.650411 
L 110.455227 19.278904 
L 111.977045 53.852055 
L 113.498864 38.807671 
L 115.020682 33.310685 
L 116.5425 39.386301 
L 118.064318 12.48 
L 119.586136 60.795616 
L 121.107955 37.216438 
L 122.629773 48.210411 
L 124.151591 42.134795 
L 125.673409 28.103014 
L 127.195227 71.066301 
L 128.717045 55.443288 
L 130.238864 63.833425 
L 131.760682 63.399452 
L 133.2825 58.625753 
L 134.804318 85.098082 
L 136.326136 78.588493 
L 137.847955 82.783562 
L 139.369773 86.255342 
L 140.891591 82.928219 
L 142.413409 98.69589 
L 143.935227 97.683288 
L 145.457045 99.274521 
L 146.978864 101.589041 
L 148.500682 103.903562 
L 150.0225 108.532603 
L 151.544318 107.230685 
L 153.066136 106.94137 
L 154.587955 110.557808 
L 156.109773 111.425753 
L 157.631591 113.884932 
L 159.153409 114.463562 
L 160.675227 114.897534 
L 162.197045 115.910137 
L 163.718864 115.910137 
L 165.240682 116.778082 
L 166.7625 116.778082 
L 168.284318 117.50137 
L 169.806136 117.212055 
L 171.327955 117.646027 
L 172.849773 117.790685 
L 174.371591 117.935342 
L 175.893409 117.935342 
L 177.415227 117.935342 
L 178.937045 117.935342 
L 180.458864 118.08 
L 181.980682 118.08 
L 183.5025 117.935342 
L 185.024318 117.935342 
L 186.546136 118.08 
L 188.067955 118.08 
L 189.589773 118.08 
L 191.111591 118.08 
L 192.633409 118.08 
L 194.155227 118.08 
L 195.677045 118.08 
L 197.198864 118.08 
L 198.720682 118.08 
L 200.2425 118.08 
" style="fill:none;stroke:#ff7f0e;stroke-linecap:square;stroke-width:1.5;"/>
   </g>
   <g id="patch_203">
    <path d="M 41.2125 118.08 
L 41.2125 7.2 
" style="fill:none;stroke:#000000;stroke-linecap:square;stroke-linejoin:miter;stroke-width:1.5;"/>
   </g>
   <g id="patch_204">
    <path d="M 41.2125 118.08 
L 208.6125 118.08 
" style="fill:none;stroke:#000000;stroke-linecap:square;stroke-linejoin:miter;stroke-width:1.5;"/>
   </g>
   <g id="legend_1">
    <g id="line2d_12">
     <path d="M 151.21 17.67875 
L 167.21 17.67875 
" style="fill:none;stroke:#1f77b4;stroke-linecap:square;stroke-width:1.5;"/>
    </g>
    <g id="line2d_13"/>
    <g id="text_12">
     <text style="font-family:DejaVu Sans;font-size:8px;font-stretch:normal;font-style:normal;font-weight:normal;text-anchor:start;" transform="rotate(-0, 173.61, 20.47875)" x="173.61" y="20.47875">11 deg</text>
    </g>
    <g id="line2d_14">
     <path d="M 151.21 29.42125 
L 167.21 29.42125 
" style="fill:none;stroke:#ff7f0e;stroke-linecap:square;stroke-width:1.5;"/>
    </g>
    <g id="line2d_15"/>
    <g id="text_13">
     <text style="font-family:DejaVu Sans;font-size:8px;font-stretch:normal;font-style:normal;font-weight:normal;text-anchor:start;" transform="rotate(-0, 173.61, 32.22125)" x="173.61" y="32.22125">27 deg</text>
    </g>
   </g>
  </g>
 </g>
 <defs>
  <clipPath id="p43e71b1a9b">
   <rect height="110.88" width="167.4" x="41.2125" y="7.2"/>
  </clipPath>
 </defs>
</svg>
