<?xml version="1.0" encoding="utf-8" standalone="no"?>
<!DOCTYPE svg PUBLIC "-//W3C//DTD SVG 1.1//EN"
  "http://www.w3.org/Graphics/SVG/1.1/DTD/svg11.dtd">
<!-- Created with matplotlib (https://matplotlib.org/) -->
<svg height="66.4945pt" version="1.1" viewBox="0 0 169.95075 66.4945" width="169.95075pt" xmlns="http://www.w3.org/2000/svg" xmlns:xlink="http://www.w3.org/1999/xlink">
 <metadata>
  <rdf:RDF xmlns:cc="http://creativecommons.org/ns#" xmlns:dc="http://purl.org/dc/elements/1.1/" xmlns:rdf="http://www.w3.org/1999/02/22-rdf-syntax-ns#">
   <cc:Work>
    <dc:type rdf:resource="http://purl.org/dc/dcmitype/StillImage"/>
    <dc:date>2020-10-27T16:27:05.649912</dc:date>
    <dc:format>image/svg+xml</dc:format>
    <dc:creator>
     <cc:Agent>
      <dc:title>Matplotlib v3.3.2, https://matplotlib.org/</dc:title>
     </cc:Agent>
    </dc:creator>
   </cc:Work>
  </rdf:RDF>
 </metadata>
 <defs>
  <style type="text/css">*{stroke-linecap:butt;stroke-linejoin:round;}</style>
 </defs>
 <g id="figure_1">
  <g id="patch_1">
   <path d="M 0 66.4945 
L 169.95075 66.4945 
L 169.95075 0 
L 0 0 
z
" style="fill:none;"/>
  </g>
  <g id="axes_1">
   <g id="patch_2">
    <path d="M 39.99075 54.591375 
L 162.75075 54.591375 
L 162.75075 10.239375 
L 39.99075 10.239375 
z
" style="fill:none;"/>
   </g>
   <g id="PolyCollection_1">
    <defs>
     <path d="M 155.529574 -34.593623 
L 155.529574 -25.723223 
L 162.75075 -25.723223 
L 162.75075 -34.593623 
L 162.75075 -34.593623 
L 155.529574 -34.593623 
z
" id="me8c3d55c6d" style="stroke:#b30000;stroke-opacity:0.4;"/>
    </defs>
    <g clip-path="url(#p0c52e7ffba)">
     <use style="fill:#b30000;fill-opacity:0.4;stroke:#b30000;stroke-opacity:0.4;" x="0" xlink:href="#me8c3d55c6d" y="66.4945"/>
    </g>
   </g>
   <g id="matplotlib.axis_1"/>
   <g id="matplotlib.axis_2">
    <g id="ytick_1">
     <g id="line2d_1">
      <defs>
       <path d="M 0 0 
L -3.5 0 
" id="m4f5b88c902" style="stroke:#000000;stroke-width:1.5;"/>
      </defs>
      <g>
       <use style="stroke:#000000;stroke-width:1.5;" x="39.99075" xlink:href="#m4f5b88c902" y="54.591375"/>
      </g>
     </g>
     <g id="text_1">
      <text style="font-family:DejaVu Sans;font-size:8px;font-stretch:normal;font-style:normal;font-weight:normal;text-anchor:end;" transform="rotate(-0, 32.99075, 57.63075)" x="32.99075" y="57.63075">0</text>
     </g>
    </g>
    <g id="ytick_2">
     <g id="line2d_2">
      <g>
       <use style="stroke:#000000;stroke-width:1.5;" x="39.99075" xlink:href="#m4f5b88c902" y="10.239375"/>
      </g>
     </g>
     <g id="text_2">
      <text style="font-family:DejaVu Sans;font-size:8px;font-stretch:normal;font-style:normal;font-weight:normal;text-anchor:end;" transform="rotate(-0, 32.99075, 13.27875)" x="32.99075" y="13.27875">1</text>
     </g>
    </g>
    <g id="text_3">
     <text style="font-family:DejaVu Sans;font-size:8px;font-stretch:normal;font-style:normal;font-weight:normal;" transform="translate(13.27875 50.270375)rotate(-90)">Phase LP</text>
     <text style="font-family:DejaVu Sans;font-size:8px;font-stretch:normal;font-style:normal;font-weight:normal;" transform="translate(22.237 56.074125)rotate(-90)">(% of cycle)</text>
    </g>
   </g>
   <g id="line2d_3">
    <path clip-path="url(#p0c52e7ffba)" d="M 43.601338 34.037674 
L 50.822515 33.544505 
L 58.043691 35.664695 
L 65.264868 35.853402 
L 72.486044 36.881054 
L 79.707221 36.692929 
L 86.928397 36.635269 
L 94.149574 37.087406 
L 101.37075 37.256625 
L 108.591926 37.443148 
L 115.813103 38.274094 
L 123.034279 37.351942 
L 130.255456 37.880157 
L 137.476632 38.054247 
L 144.697809 37.958195 
L 151.918985 37.90306 
L 159.140162 37.556243 
" style="fill:none;stroke:#000000;stroke-linecap:square;stroke-width:1.5;"/>
   </g>
   <g id="line2d_4">
    <path clip-path="url(#p0c52e7ffba)" d="M 43.601338 36.933915 
L 50.822515 37.055979 
L 58.043691 37.262565 
L 65.264868 36.585317 
L 72.486044 36.824056 
L 79.707221 36.033897 
L 86.928397 37.139659 
L 94.149574 36.527832 
L 101.37075 36.988492 
L 108.591926 36.665958 
L 115.813103 37.15794 
L 123.034279 37.246525 
L 130.255456 37.113449 
L 137.476632 37.059211 
L 144.697809 36.953953 
L 151.918985 37.156686 
L 159.140162 37.537841 
" style="fill:none;stroke:#000000;stroke-linecap:square;stroke-width:1.5;"/>
   </g>
   <g id="line2d_5">
    <path clip-path="url(#p0c52e7ffba)" d="M 43.601338 35.966067 
L 50.822515 36.483583 
L 58.043691 36.630041 
L 65.264868 36.7292 
L 72.486044 36.425939 
L 79.707221 36.694122 
L 86.928397 36.988615 
L 94.149574 36.450348 
L 101.37075 37.350165 
L 108.591926 37.199057 
L 115.813103 37.134858 
L 123.034279 37.146519 
L 130.255456 37.248702 
L 137.476632 37.234723 
L 144.697809 37.158965 
L 151.918985 37.136131 
L 159.140162 37.262116 
" style="fill:none;stroke:#000000;stroke-linecap:square;stroke-width:1.5;"/>
   </g>
   <g id="line2d_6">
    <path clip-path="url(#p0c52e7ffba)" d="M 43.601338 36.440203 
L 50.822515 36.119326 
L 58.043691 36.55333 
L 65.264868 36.200375 
L 72.486044 35.750245 
L 79.707221 35.412419 
L 86.928397 35.180516 
L 94.149574 35.413452 
L 101.37075 35.729724 
L 108.591926 35.740688 
L 115.813103 36.48727 
L 123.034279 36.287687 
L 130.255456 36.686882 
L 137.476632 36.392107 
L 144.697809 36.900722 
L 151.918985 37.170512 
L 159.140162 37.434072 
" style="fill:none;stroke:#000000;stroke-linecap:square;stroke-width:1.5;"/>
   </g>
   <g id="line2d_7">
    <path clip-path="url(#p0c52e7ffba)" d="M 43.601338 36.003221 
L 50.822515 36.180278 
L 58.043691 36.535299 
L 65.264868 35.844392 
L 72.486044 36.326003 
L 79.707221 35.984365 
L 86.928397 36.454622 
L 94.149574 36.081177 
L 101.37075 36.129041 
L 108.591926 35.572567 
L 115.813103 36.174255 
L 123.034279 36.11708 
L 130.255456 35.859721 
L 137.476632 35.924003 
L 144.697809 36.667974 
L 151.918985 36.66327 
L 159.140162 36.317924 
" style="fill:none;stroke:#000000;stroke-linecap:square;stroke-width:1.5;"/>
   </g>
   <g id="patch_3">
    <path d="M 39.99075 54.591375 
L 39.99075 10.239375 
" style="fill:none;stroke:#000000;stroke-linecap:square;stroke-linejoin:miter;stroke-width:1.5;"/>
   </g>
   <g id="patch_4">
    <path d="M 39.99075 54.591375 
L 162.75075 54.591375 
" style="fill:none;stroke:#000000;stroke-linecap:square;stroke-linejoin:miter;stroke-width:1.5;"/>
   </g>
   <g id="PathCollection_1">
    <defs>
     <path d="M 0 1.581139 
C 0.419323 1.581139 0.821528 1.41454 1.118034 1.118034 
C 1.41454 0.821528 1.581139 0.419323 1.581139 0 
C 1.581139 -0.419323 1.41454 -0.821528 1.118034 -1.118034 
C 0.821528 -1.41454 0.419323 -1.581139 0 -1.581139 
C -0.419323 -1.581139 -0.821528 -1.41454 -1.118034 -1.118034 
C -1.41454 -0.821528 -1.581139 -0.419323 -1.581139 0 
C -1.581139 0.419323 -1.41454 0.821528 -1.118034 1.118034 
C -0.821528 1.41454 -0.419323 1.581139 0 1.581139 
z
" id="m8b10f42e5d" style="stroke:#800080;"/>
    </defs>
    <g clip-path="url(#p0c52e7ffba)">
     <use style="fill:#800080;stroke:#800080;" x="43.601338" xlink:href="#m8b10f42e5d" y="34.037674"/>
     <use style="fill:#800080;stroke:#800080;" x="50.822515" xlink:href="#m8b10f42e5d" y="33.544505"/>
     <use style="fill:#800080;stroke:#800080;" x="58.043691" xlink:href="#m8b10f42e5d" y="35.664695"/>
     <use style="fill:#800080;stroke:#800080;" x="65.264868" xlink:href="#m8b10f42e5d" y="35.853402"/>
     <use style="fill:#800080;stroke:#800080;" x="72.486044" xlink:href="#m8b10f42e5d" y="36.881054"/>
     <use style="fill:#800080;stroke:#800080;" x="79.707221" xlink:href="#m8b10f42e5d" y="36.692929"/>
     <use style="fill:#800080;stroke:#800080;" x="86.928397" xlink:href="#m8b10f42e5d" y="36.635269"/>
     <use style="fill:#800080;stroke:#800080;" x="94.149574" xlink:href="#m8b10f42e5d" y="37.087406"/>
     <use style="fill:#800080;stroke:#800080;" x="101.37075" xlink:href="#m8b10f42e5d" y="37.256625"/>
     <use style="fill:#800080;stroke:#800080;" x="108.591926" xlink:href="#m8b10f42e5d" y="37.443148"/>
     <use style="fill:#800080;stroke:#800080;" x="115.813103" xlink:href="#m8b10f42e5d" y="38.274094"/>
     <use style="fill:#800080;stroke:#800080;" x="123.034279" xlink:href="#m8b10f42e5d" y="37.351942"/>
     <use style="fill:#800080;stroke:#800080;" x="130.255456" xlink:href="#m8b10f42e5d" y="37.880157"/>
     <use style="fill:#800080;stroke:#800080;" x="137.476632" xlink:href="#m8b10f42e5d" y="38.054247"/>
     <use style="fill:#800080;stroke:#800080;" x="144.697809" xlink:href="#m8b10f42e5d" y="37.958195"/>
     <use style="fill:#800080;stroke:#800080;" x="151.918985" xlink:href="#m8b10f42e5d" y="37.90306"/>
     <use style="fill:#800080;stroke:#800080;" x="159.140162" xlink:href="#m8b10f42e5d" y="37.556243"/>
    </g>
   </g>
   <g id="PathCollection_2">
    <g clip-path="url(#p0c52e7ffba)">
     <use style="fill:#800080;stroke:#800080;" x="43.601338" xlink:href="#m8b10f42e5d" y="36.933915"/>
     <use style="fill:#800080;stroke:#800080;" x="50.822515" xlink:href="#m8b10f42e5d" y="37.055979"/>
     <use style="fill:#800080;stroke:#800080;" x="58.043691" xlink:href="#m8b10f42e5d" y="37.262565"/>
     <use style="fill:#800080;stroke:#800080;" x="65.264868" xlink:href="#m8b10f42e5d" y="36.585317"/>
     <use style="fill:#800080;stroke:#800080;" x="72.486044" xlink:href="#m8b10f42e5d" y="36.824056"/>
     <use style="fill:#800080;stroke:#800080;" x="79.707221" xlink:href="#m8b10f42e5d" y="36.033897"/>
     <use style="fill:#800080;stroke:#800080;" x="86.928397" xlink:href="#m8b10f42e5d" y="37.139659"/>
     <use style="fill:#800080;stroke:#800080;" x="94.149574" xlink:href="#m8b10f42e5d" y="36.527832"/>
     <use style="fill:#800080;stroke:#800080;" x="101.37075" xlink:href="#m8b10f42e5d" y="36.988492"/>
     <use style="fill:#800080;stroke:#800080;" x="108.591926" xlink:href="#m8b10f42e5d" y="36.665958"/>
     <use style="fill:#800080;stroke:#800080;" x="115.813103" xlink:href="#m8b10f42e5d" y="37.15794"/>
     <use style="fill:#800080;stroke:#800080;" x="123.034279" xlink:href="#m8b10f42e5d" y="37.246525"/>
     <use style="fill:#800080;stroke:#800080;" x="130.255456" xlink:href="#m8b10f42e5d" y="37.113449"/>
     <use style="fill:#800080;stroke:#800080;" x="137.476632" xlink:href="#m8b10f42e5d" y="37.059211"/>
     <use style="fill:#800080;stroke:#800080;" x="144.697809" xlink:href="#m8b10f42e5d" y="36.953953"/>
     <use style="fill:#800080;stroke:#800080;" x="151.918985" xlink:href="#m8b10f42e5d" y="37.156686"/>
     <use style="fill:#800080;stroke:#800080;" x="159.140162" xlink:href="#m8b10f42e5d" y="37.537841"/>
    </g>
   </g>
   <g id="PathCollection_3">
    <g clip-path="url(#p0c52e7ffba)">
     <use style="fill:#800080;stroke:#800080;" x="43.601338" xlink:href="#m8b10f42e5d" y="35.966067"/>
     <use style="fill:#800080;stroke:#800080;" x="50.822515" xlink:href="#m8b10f42e5d" y="36.483583"/>
     <use style="fill:#800080;stroke:#800080;" x="58.043691" xlink:href="#m8b10f42e5d" y="36.630041"/>
     <use style="fill:#800080;stroke:#800080;" x="65.264868" xlink:href="#m8b10f42e5d" y="36.7292"/>
     <use style="fill:#800080;stroke:#800080;" x="72.486044" xlink:href="#m8b10f42e5d" y="36.425939"/>
     <use style="fill:#800080;stroke:#800080;" x="79.707221" xlink:href="#m8b10f42e5d" y="36.694122"/>
     <use style="fill:#800080;stroke:#800080;" x="86.928397" xlink:href="#m8b10f42e5d" y="36.988615"/>
     <use style="fill:#800080;stroke:#800080;" x="94.149574" xlink:href="#m8b10f42e5d" y="36.450348"/>
     <use style="fill:#800080;stroke:#800080;" x="101.37075" xlink:href="#m8b10f42e5d" y="37.350165"/>
     <use style="fill:#800080;stroke:#800080;" x="108.591926" xlink:href="#m8b10f42e5d" y="37.199057"/>
     <use style="fill:#800080;stroke:#800080;" x="115.813103" xlink:href="#m8b10f42e5d" y="37.134858"/>
     <use style="fill:#800080;stroke:#800080;" x="123.034279" xlink:href="#m8b10f42e5d" y="37.146519"/>
     <use style="fill:#800080;stroke:#800080;" x="130.255456" xlink:href="#m8b10f42e5d" y="37.248702"/>
     <use style="fill:#800080;stroke:#800080;" x="137.476632" xlink:href="#m8b10f42e5d" y="37.234723"/>
     <use style="fill:#800080;stroke:#800080;" x="144.697809" xlink:href="#m8b10f42e5d" y="37.158965"/>
     <use style="fill:#800080;stroke:#800080;" x="151.918985" xlink:href="#m8b10f42e5d" y="37.136131"/>
     <use style="fill:#800080;stroke:#800080;" x="159.140162" xlink:href="#m8b10f42e5d" y="37.262116"/>
    </g>
   </g>
   <g id="PathCollection_4">
    <g clip-path="url(#p0c52e7ffba)">
     <use style="fill:#800080;stroke:#800080;" x="43.601338" xlink:href="#m8b10f42e5d" y="36.440203"/>
     <use style="fill:#800080;stroke:#800080;" x="50.822515" xlink:href="#m8b10f42e5d" y="36.119326"/>
     <use style="fill:#800080;stroke:#800080;" x="58.043691" xlink:href="#m8b10f42e5d" y="36.55333"/>
     <use style="fill:#800080;stroke:#800080;" x="65.264868" xlink:href="#m8b10f42e5d" y="36.200375"/>
     <use style="fill:#800080;stroke:#800080;" x="72.486044" xlink:href="#m8b10f42e5d" y="35.750245"/>
     <use style="fill:#800080;stroke:#800080;" x="79.707221" xlink:href="#m8b10f42e5d" y="35.412419"/>
     <use style="fill:#800080;stroke:#800080;" x="86.928397" xlink:href="#m8b10f42e5d" y="35.180516"/>
     <use style="fill:#800080;stroke:#800080;" x="94.149574" xlink:href="#m8b10f42e5d" y="35.413452"/>
     <use style="fill:#800080;stroke:#800080;" x="101.37075" xlink:href="#m8b10f42e5d" y="35.729724"/>
     <use style="fill:#800080;stroke:#800080;" x="108.591926" xlink:href="#m8b10f42e5d" y="35.740688"/>
     <use style="fill:#800080;stroke:#800080;" x="115.813103" xlink:href="#m8b10f42e5d" y="36.48727"/>
     <use style="fill:#800080;stroke:#800080;" x="123.034279" xlink:href="#m8b10f42e5d" y="36.287687"/>
     <use style="fill:#800080;stroke:#800080;" x="130.255456" xlink:href="#m8b10f42e5d" y="36.686882"/>
     <use style="fill:#800080;stroke:#800080;" x="137.476632" xlink:href="#m8b10f42e5d" y="36.392107"/>
     <use style="fill:#800080;stroke:#800080;" x="144.697809" xlink:href="#m8b10f42e5d" y="36.900722"/>
     <use style="fill:#800080;stroke:#800080;" x="151.918985" xlink:href="#m8b10f42e5d" y="37.170512"/>
     <use style="fill:#800080;stroke:#800080;" x="159.140162" xlink:href="#m8b10f42e5d" y="37.434072"/>
    </g>
   </g>
   <g id="PathCollection_5">
    <g clip-path="url(#p0c52e7ffba)">
     <use style="fill:#800080;stroke:#800080;" x="43.601338" xlink:href="#m8b10f42e5d" y="36.003221"/>
     <use style="fill:#800080;stroke:#800080;" x="50.822515" xlink:href="#m8b10f42e5d" y="36.180278"/>
     <use style="fill:#800080;stroke:#800080;" x="58.043691" xlink:href="#m8b10f42e5d" y="36.535299"/>
     <use style="fill:#800080;stroke:#800080;" x="65.264868" xlink:href="#m8b10f42e5d" y="35.844392"/>
     <use style="fill:#800080;stroke:#800080;" x="72.486044" xlink:href="#m8b10f42e5d" y="36.326003"/>
     <use style="fill:#800080;stroke:#800080;" x="79.707221" xlink:href="#m8b10f42e5d" y="35.984365"/>
     <use style="fill:#800080;stroke:#800080;" x="86.928397" xlink:href="#m8b10f42e5d" y="36.454622"/>
     <use style="fill:#800080;stroke:#800080;" x="94.149574" xlink:href="#m8b10f42e5d" y="36.081177"/>
     <use style="fill:#800080;stroke:#800080;" x="101.37075" xlink:href="#m8b10f42e5d" y="36.129041"/>
     <use style="fill:#800080;stroke:#800080;" x="108.591926" xlink:href="#m8b10f42e5d" y="35.572567"/>
     <use style="fill:#800080;stroke:#800080;" x="115.813103" xlink:href="#m8b10f42e5d" y="36.174255"/>
     <use style="fill:#800080;stroke:#800080;" x="123.034279" xlink:href="#m8b10f42e5d" y="36.11708"/>
     <use style="fill:#800080;stroke:#800080;" x="130.255456" xlink:href="#m8b10f42e5d" y="35.859721"/>
     <use style="fill:#800080;stroke:#800080;" x="137.476632" xlink:href="#m8b10f42e5d" y="35.924003"/>
     <use style="fill:#800080;stroke:#800080;" x="144.697809" xlink:href="#m8b10f42e5d" y="36.667974"/>
     <use style="fill:#800080;stroke:#800080;" x="151.918985" xlink:href="#m8b10f42e5d" y="36.66327"/>
     <use style="fill:#800080;stroke:#800080;" x="159.140162" xlink:href="#m8b10f42e5d" y="36.317924"/>
    </g>
   </g>
  </g>
 </g>
 <defs>
  <clipPath id="p0c52e7ffba">
   <rect height="44.352" width="122.76" x="39.99075" y="10.239375"/>
  </clipPath>
 </defs>
</svg>
