<?xml version="1.0" encoding="utf-8" standalone="no"?>
<!DOCTYPE svg PUBLIC "-//W3C//DTD SVG 1.1//EN"
  "http://www.w3.org/Graphics/SVG/1.1/DTD/svg11.dtd">
<!-- Created with matplotlib (https://matplotlib.org/) -->
<svg height="151.765pt" version="1.1" viewBox="0 0 220.9025 151.765" width="220.9025pt" xmlns="http://www.w3.org/2000/svg" xmlns:xlink="http://www.w3.org/1999/xlink">
 <metadata>
  <rdf:RDF xmlns:cc="http://creativecommons.org/ns#" xmlns:dc="http://purl.org/dc/elements/1.1/" xmlns:rdf="http://www.w3.org/1999/02/22-rdf-syntax-ns#">
   <cc:Work>
    <dc:type rdf:resource="http://purl.org/dc/dcmitype/StillImage"/>
    <dc:date>2020-10-15T11:21:26.697253</dc:date>
    <dc:format>image/svg+xml</dc:format>
    <dc:creator>
     <cc:Agent>
      <dc:title>Matplotlib v3.3.2, https://matplotlib.org/</dc:title>
     </cc:Agent>
    </dc:creator>
   </cc:Work>
  </rdf:RDF>
 </metadata>
 <defs>
  <style type="text/css">*{stroke-linecap:butt;stroke-linejoin:round;}</style>
 </defs>
 <g id="figure_1">
  <g id="patch_1">
   <path d="M 0 151.765 
L 220.9025 151.765 
L 220.9025 0 
L 0 0 
z
" style="fill:none;"/>
  </g>
  <g id="axes_1">
   <g id="patch_2">
    <path d="M 46.3025 118.08 
L 213.7025 118.08 
L 213.7025 7.2 
L 46.3025 7.2 
z
" style="fill:none;"/>
   </g>
   <g id="patch_3">
    <path clip-path="url(#p9e96b63886)" d="M 53.911591 118.08 
L 55.433409 118.08 
L 55.433409 118.08 
L 53.911591 118.08 
z
" style="fill:#ffffff;"/>
   </g>
   <g id="patch_4">
    <path clip-path="url(#p9e96b63886)" d="M 55.433409 118.08 
L 56.955227 118.08 
L 56.955227 118.08 
L 55.433409 118.08 
z
" style="fill:#ffffff;"/>
   </g>
   <g id="patch_5">
    <path clip-path="url(#p9e96b63886)" d="M 56.955227 118.08 
L 58.477045 118.08 
L 58.477045 118.08 
L 56.955227 118.08 
z
" style="fill:#ffffff;"/>
   </g>
   <g id="patch_6">
    <path clip-path="url(#p9e96b63886)" d="M 58.477045 118.08 
L 59.998864 118.08 
L 59.998864 118.02044 
L 58.477045 118.02044 
z
" style="fill:#ffffff;"/>
   </g>
   <g id="patch_7">
    <path clip-path="url(#p9e96b63886)" d="M 59.998864 118.08 
L 61.520682 118.08 
L 61.520682 117.90132 
L 59.998864 117.90132 
z
" style="fill:#ffffff;"/>
   </g>
   <g id="patch_8">
    <path clip-path="url(#p9e96b63886)" d="M 61.520682 118.08 
L 63.0425 118.08 
L 63.0425 117.84176 
L 61.520682 117.84176 
z
" style="fill:#ffffff;"/>
   </g>
   <g id="patch_9">
    <path clip-path="url(#p9e96b63886)" d="M 63.0425 118.08 
L 64.564318 118.08 
L 64.564318 117.90132 
L 63.0425 117.90132 
z
" style="fill:#ffffff;"/>
   </g>
   <g id="patch_10">
    <path clip-path="url(#p9e96b63886)" d="M 64.564318 118.08 
L 66.086136 118.08 
L 66.086136 117.7822 
L 64.564318 117.7822 
z
" style="fill:#ffffff;"/>
   </g>
   <g id="patch_11">
    <path clip-path="url(#p9e96b63886)" d="M 66.086136 118.08 
L 67.607955 118.08 
L 67.607955 117.7822 
L 66.086136 117.7822 
z
" style="fill:#ffffff;"/>
   </g>
   <g id="patch_12">
    <path clip-path="url(#p9e96b63886)" d="M 67.607955 118.08 
L 69.129773 118.08 
L 69.129773 117.72264 
L 67.607955 117.72264 
z
" style="fill:#ffffff;"/>
   </g>
   <g id="patch_13">
    <path clip-path="url(#p9e96b63886)" d="M 69.129773 118.08 
L 70.651591 118.08 
L 70.651591 117.543959 
L 69.129773 117.543959 
z
" style="fill:#ffffff;"/>
   </g>
   <g id="patch_14">
    <path clip-path="url(#p9e96b63886)" d="M 70.651591 118.08 
L 72.173409 118.08 
L 72.173409 117.66308 
L 70.651591 117.66308 
z
" style="fill:#ffffff;"/>
   </g>
   <g id="patch_15">
    <path clip-path="url(#p9e96b63886)" d="M 72.173409 118.08 
L 73.695227 118.08 
L 73.695227 117.305719 
L 72.173409 117.305719 
z
" style="fill:#ffffff;"/>
   </g>
   <g id="patch_16">
    <path clip-path="url(#p9e96b63886)" d="M 73.695227 118.08 
L 75.217045 118.08 
L 75.217045 116.412318 
L 73.695227 116.412318 
z
" style="fill:#ffffff;"/>
   </g>
   <g id="patch_17">
    <path clip-path="url(#p9e96b63886)" d="M 75.217045 118.08 
L 76.738864 118.08 
L 76.738864 115.876277 
L 75.217045 115.876277 
z
" style="fill:#ffffff;"/>
   </g>
   <g id="patch_18">
    <path clip-path="url(#p9e96b63886)" d="M 76.738864 118.08 
L 78.260682 118.08 
L 78.260682 116.293198 
L 76.738864 116.293198 
z
" style="fill:#ffffff;"/>
   </g>
   <g id="patch_19">
    <path clip-path="url(#p9e96b63886)" d="M 78.260682 118.08 
L 79.7825 118.08 
L 79.7825 115.340237 
L 78.260682 115.340237 
z
" style="fill:#ffffff;"/>
   </g>
   <g id="patch_20">
    <path clip-path="url(#p9e96b63886)" d="M 79.7825 118.08 
L 81.304318 118.08 
L 81.304318 114.446836 
L 79.7825 114.446836 
z
" style="fill:#ffffff;"/>
   </g>
   <g id="patch_21">
    <path clip-path="url(#p9e96b63886)" d="M 81.304318 118.08 
L 82.826136 118.08 
L 82.826136 114.268156 
L 81.304318 114.268156 
z
" style="fill:#ffffff;"/>
   </g>
   <g id="patch_22">
    <path clip-path="url(#p9e96b63886)" d="M 82.826136 118.08 
L 84.347955 118.08 
L 84.347955 113.315195 
L 82.826136 113.315195 
z
" style="fill:#ffffff;"/>
   </g>
   <g id="patch_23">
    <path clip-path="url(#p9e96b63886)" d="M 84.347955 118.08 
L 85.869773 118.08 
L 85.869773 112.123993 
L 84.347955 112.123993 
z
" style="fill:#ffffff;"/>
   </g>
   <g id="patch_24">
    <path clip-path="url(#p9e96b63886)" d="M 85.869773 118.08 
L 87.391591 118.08 
L 87.391591 110.813672 
L 85.869773 110.813672 
z
" style="fill:#ffffff;"/>
   </g>
   <g id="patch_25">
    <path clip-path="url(#p9e96b63886)" d="M 87.391591 118.08 
L 88.913409 118.08 
L 88.913409 108.788629 
L 87.391591 108.788629 
z
" style="fill:#ffffff;"/>
   </g>
   <g id="patch_26">
    <path clip-path="url(#p9e96b63886)" d="M 88.913409 118.08 
L 90.435227 118.08 
L 90.435227 112.123993 
L 88.913409 112.123993 
z
" style="fill:#ffffff;"/>
   </g>
   <g id="patch_27">
    <path clip-path="url(#p9e96b63886)" d="M 90.435227 118.08 
L 91.957045 118.08 
L 91.957045 107.240068 
L 90.435227 107.240068 
z
" style="fill:#ffffff;"/>
   </g>
   <g id="patch_28">
    <path clip-path="url(#p9e96b63886)" d="M 91.957045 118.08 
L 93.478864 118.08 
L 93.478864 105.989306 
L 91.957045 105.989306 
z
" style="fill:#ffffff;"/>
   </g>
   <g id="patch_29">
    <path clip-path="url(#p9e96b63886)" d="M 93.478864 118.08 
L 95.000682 118.08 
L 95.000682 101.700981 
L 93.478864 101.700981 
z
" style="fill:#ffffff;"/>
   </g>
   <g id="patch_30">
    <path clip-path="url(#p9e96b63886)" d="M 95.000682 118.08 
L 96.5225 118.08 
L 96.5225 97.114856 
L 95.000682 97.114856 
z
" style="fill:#ffffff;"/>
   </g>
   <g id="patch_31">
    <path clip-path="url(#p9e96b63886)" d="M 96.5225 118.08 
L 98.044318 118.08 
L 98.044318 103.964264 
L 96.5225 103.964264 
z
" style="fill:#ffffff;"/>
   </g>
   <g id="patch_32">
    <path clip-path="url(#p9e96b63886)" d="M 98.044318 118.08 
L 99.566136 118.08 
L 99.566136 96.400135 
L 98.044318 96.400135 
z
" style="fill:#ffffff;"/>
   </g>
   <g id="patch_33">
    <path clip-path="url(#p9e96b63886)" d="M 99.566136 118.08 
L 101.087955 118.08 
L 101.087955 93.719932 
L 99.566136 93.719932 
z
" style="fill:#ffffff;"/>
   </g>
   <g id="patch_34">
    <path clip-path="url(#p9e96b63886)" d="M 101.087955 118.08 
L 102.609773 118.08 
L 102.609773 92.588291 
L 101.087955 92.588291 
z
" style="fill:#ffffff;"/>
   </g>
   <g id="patch_35">
    <path clip-path="url(#p9e96b63886)" d="M 102.609773 118.08 
L 104.131591 118.08 
L 104.131591 88.240406 
L 102.609773 88.240406 
z
" style="fill:#ffffff;"/>
   </g>
   <g id="patch_36">
    <path clip-path="url(#p9e96b63886)" d="M 104.131591 118.08 
L 105.653409 118.08 
L 105.653409 86.334484 
L 104.131591 86.334484 
z
" style="fill:#ffffff;"/>
   </g>
   <g id="patch_37">
    <path clip-path="url(#p9e96b63886)" d="M 105.653409 118.08 
L 107.175227 118.08 
L 107.175227 80.795398 
L 105.653409 80.795398 
z
" style="fill:#ffffff;"/>
   </g>
   <g id="patch_38">
    <path clip-path="url(#p9e96b63886)" d="M 107.175227 118.08 
L 108.697045 118.08 
L 108.697045 80.140237 
L 107.175227 80.140237 
z
" style="fill:#ffffff;"/>
   </g>
   <g id="patch_39">
    <path clip-path="url(#p9e96b63886)" d="M 108.697045 118.08 
L 110.218864 118.08 
L 110.218864 78.412995 
L 108.697045 78.412995 
z
" style="fill:#ffffff;"/>
   </g>
   <g id="patch_40">
    <path clip-path="url(#p9e96b63886)" d="M 110.218864 118.08 
L 111.740682 118.08 
L 111.740682 72.218748 
L 110.218864 72.218748 
z
" style="fill:#ffffff;"/>
   </g>
   <g id="patch_41">
    <path clip-path="url(#p9e96b63886)" d="M 111.740682 118.08 
L 113.2625 118.08 
L 113.2625 68.049543 
L 111.740682 68.049543 
z
" style="fill:#ffffff;"/>
   </g>
   <g id="patch_42">
    <path clip-path="url(#p9e96b63886)" d="M 113.2625 118.08 
L 114.784318 118.08 
L 114.784318 65.07154 
L 113.2625 65.07154 
z
" style="fill:#ffffff;"/>
   </g>
   <g id="patch_43">
    <path clip-path="url(#p9e96b63886)" d="M 114.784318 118.08 
L 116.306136 118.08 
L 116.306136 46.846159 
L 114.784318 46.846159 
z
" style="fill:#ffffff;"/>
   </g>
   <g id="patch_44">
    <path clip-path="url(#p9e96b63886)" d="M 116.306136 118.08 
L 117.827955 118.08 
L 117.827955 73.350389 
L 116.306136 73.350389 
z
" style="fill:#ffffff;"/>
   </g>
   <g id="patch_45">
    <path clip-path="url(#p9e96b63886)" d="M 117.827955 118.08 
L 119.349773 118.08 
L 119.349773 52.980846 
L 117.827955 52.980846 
z
" style="fill:#ffffff;"/>
   </g>
   <g id="patch_46">
    <path clip-path="url(#p9e96b63886)" d="M 119.349773 118.08 
L 120.871591 118.08 
L 120.871591 51.849205 
L 119.349773 51.849205 
z
" style="fill:#ffffff;"/>
   </g>
   <g id="patch_47">
    <path clip-path="url(#p9e96b63886)" d="M 120.871591 118.08 
L 122.393409 118.08 
L 122.393409 53.695567 
L 120.871591 53.695567 
z
" style="fill:#ffffff;"/>
   </g>
   <g id="patch_48">
    <path clip-path="url(#p9e96b63886)" d="M 122.393409 118.08 
L 123.915227 118.08 
L 123.915227 26.297936 
L 122.393409 26.297936 
z
" style="fill:#ffffff;"/>
   </g>
   <g id="patch_49">
    <path clip-path="url(#p9e96b63886)" d="M 123.915227 118.08 
L 125.437045 118.08 
L 125.437045 61.259695 
L 123.915227 61.259695 
z
" style="fill:#ffffff;"/>
   </g>
   <g id="patch_50">
    <path clip-path="url(#p9e96b63886)" d="M 125.437045 118.08 
L 126.958864 118.08 
L 126.958864 37.733469 
L 125.437045 37.733469 
z
" style="fill:#ffffff;"/>
   </g>
   <g id="patch_51">
    <path clip-path="url(#p9e96b63886)" d="M 126.958864 118.08 
L 128.480682 118.08 
L 128.480682 40.830592 
L 126.958864 40.830592 
z
" style="fill:#ffffff;"/>
   </g>
   <g id="patch_52">
    <path clip-path="url(#p9e96b63886)" d="M 128.480682 118.08 
L 130.0025 118.08 
L 130.0025 36.482707 
L 128.480682 36.482707 
z
" style="fill:#ffffff;"/>
   </g>
   <g id="patch_53">
    <path clip-path="url(#p9e96b63886)" d="M 130.0025 118.08 
L 131.524318 118.08 
L 131.524318 14.564602 
L 130.0025 14.564602 
z
" style="fill:#ffffff;"/>
   </g>
   <g id="patch_54">
    <path clip-path="url(#p9e96b63886)" d="M 131.524318 118.08 
L 133.046136 118.08 
L 133.046136 54.886768 
L 131.524318 54.886768 
z
" style="fill:#ffffff;"/>
   </g>
   <g id="patch_55">
    <path clip-path="url(#p9e96b63886)" d="M 133.046136 118.08 
L 134.567955 118.08 
L 134.567955 30.943621 
L 133.046136 30.943621 
z
" style="fill:#ffffff;"/>
   </g>
   <g id="patch_56">
    <path clip-path="url(#p9e96b63886)" d="M 134.567955 118.08 
L 136.089773 118.08 
L 136.089773 30.526701 
L 134.567955 30.526701 
z
" style="fill:#ffffff;"/>
   </g>
   <g id="patch_57">
    <path clip-path="url(#p9e96b63886)" d="M 136.089773 118.08 
L 137.611591 118.08 
L 137.611591 34.755465 
L 136.089773 34.755465 
z
" style="fill:#ffffff;"/>
   </g>
   <g id="patch_58">
    <path clip-path="url(#p9e96b63886)" d="M 137.611591 118.08 
L 139.133409 118.08 
L 139.133409 13.313841 
L 137.611591 13.313841 
z
" style="fill:#ffffff;"/>
   </g>
   <g id="patch_59">
    <path clip-path="url(#p9e96b63886)" d="M 139.133409 118.08 
L 140.655227 118.08 
L 140.655227 53.933807 
L 139.133409 53.933807 
z
" style="fill:#ffffff;"/>
   </g>
   <g id="patch_60">
    <path clip-path="url(#p9e96b63886)" d="M 140.655227 118.08 
L 142.177045 118.08 
L 142.177045 36.482707 
L 140.655227 36.482707 
z
" style="fill:#ffffff;"/>
   </g>
   <g id="patch_61">
    <path clip-path="url(#p9e96b63886)" d="M 142.177045 118.08 
L 143.698864 118.08 
L 143.698864 33.802504 
L 142.177045 33.802504 
z
" style="fill:#ffffff;"/>
   </g>
   <g id="patch_62">
    <path clip-path="url(#p9e96b63886)" d="M 143.698864 118.08 
L 145.220682 118.08 
L 145.220682 38.92467 
L 143.698864 38.92467 
z
" style="fill:#ffffff;"/>
   </g>
   <g id="patch_63">
    <path clip-path="url(#p9e96b63886)" d="M 145.220682 118.08 
L 146.7425 118.08 
L 146.7425 24.272893 
L 145.220682 24.272893 
z
" style="fill:#ffffff;"/>
   </g>
   <g id="patch_64">
    <path clip-path="url(#p9e96b63886)" d="M 146.7425 118.08 
L 148.264318 118.08 
L 148.264318 61.319255 
L 146.7425 61.319255 
z
" style="fill:#ffffff;"/>
   </g>
   <g id="patch_65">
    <path clip-path="url(#p9e96b63886)" d="M 148.264318 118.08 
L 149.786136 118.08 
L 149.786136 46.667479 
L 148.264318 46.667479 
z
" style="fill:#ffffff;"/>
   </g>
   <g id="patch_66">
    <path clip-path="url(#p9e96b63886)" d="M 149.786136 118.08 
L 151.307955 118.08 
L 151.307955 51.134484 
L 149.786136 51.134484 
z
" style="fill:#ffffff;"/>
   </g>
   <g id="patch_67">
    <path clip-path="url(#p9e96b63886)" d="M 151.307955 118.08 
L 152.829773 118.08 
L 152.829773 54.052927 
L 151.307955 54.052927 
z
" style="fill:#ffffff;"/>
   </g>
   <g id="patch_68">
    <path clip-path="url(#p9e96b63886)" d="M 152.829773 118.08 
L 154.351591 118.08 
L 154.351591 44.106396 
L 152.829773 44.106396 
z
" style="fill:#ffffff;"/>
   </g>
   <g id="patch_69">
    <path clip-path="url(#p9e96b63886)" d="M 154.351591 118.08 
L 155.873409 118.08 
L 155.873409 77.876954 
L 154.351591 77.876954 
z
" style="fill:#ffffff;"/>
   </g>
   <g id="patch_70">
    <path clip-path="url(#p9e96b63886)" d="M 155.873409 118.08 
L 157.395227 118.08 
L 157.395227 63.225178 
L 155.873409 63.225178 
z
" style="fill:#ffffff;"/>
   </g>
   <g id="patch_71">
    <path clip-path="url(#p9e96b63886)" d="M 157.395227 118.08 
L 158.917045 118.08 
L 158.917045 67.811303 
L 157.395227 67.811303 
z
" style="fill:#ffffff;"/>
   </g>
   <g id="patch_72">
    <path clip-path="url(#p9e96b63886)" d="M 158.917045 118.08 
L 160.438864 118.08 
L 160.438864 72.754788 
L 158.917045 72.754788 
z
" style="fill:#ffffff;"/>
   </g>
   <g id="patch_73">
    <path clip-path="url(#p9e96b63886)" d="M 160.438864 118.08 
L 161.960682 118.08 
L 161.960682 66.500981 
L 160.438864 66.500981 
z
" style="fill:#ffffff;"/>
   </g>
   <g id="patch_74">
    <path clip-path="url(#p9e96b63886)" d="M 161.960682 118.08 
L 163.4825 118.08 
L 163.4825 88.597766 
L 161.960682 88.597766 
z
" style="fill:#ffffff;"/>
   </g>
   <g id="patch_75">
    <path clip-path="url(#p9e96b63886)" d="M 163.4825 118.08 
L 165.004318 118.08 
L 165.004318 82.343959 
L 163.4825 82.343959 
z
" style="fill:#ffffff;"/>
   </g>
   <g id="patch_76">
    <path clip-path="url(#p9e96b63886)" d="M 165.004318 118.08 
L 166.526136 118.08 
L 166.526136 88.002166 
L 165.004318 88.002166 
z
" style="fill:#ffffff;"/>
   </g>
   <g id="patch_77">
    <path clip-path="url(#p9e96b63886)" d="M 166.526136 118.08 
L 168.047955 118.08 
L 168.047955 87.763926 
L 166.526136 87.763926 
z
" style="fill:#ffffff;"/>
   </g>
   <g id="patch_78">
    <path clip-path="url(#p9e96b63886)" d="M 168.047955 118.08 
L 169.569773 118.08 
L 169.569773 87.466125 
L 168.047955 87.466125 
z
" style="fill:#ffffff;"/>
   </g>
   <g id="patch_79">
    <path clip-path="url(#p9e96b63886)" d="M 169.569773 118.08 
L 171.091591 118.08 
L 171.091591 100.033299 
L 169.569773 100.033299 
z
" style="fill:#ffffff;"/>
   </g>
   <g id="patch_80">
    <path clip-path="url(#p9e96b63886)" d="M 171.091591 118.08 
L 172.613409 118.08 
L 172.613409 98.842098 
L 171.091591 98.842098 
z
" style="fill:#ffffff;"/>
   </g>
   <g id="patch_81">
    <path clip-path="url(#p9e96b63886)" d="M 172.613409 118.08 
L 174.135227 118.08 
L 174.135227 100.80758 
L 172.613409 100.80758 
z
" style="fill:#ffffff;"/>
   </g>
   <g id="patch_82">
    <path clip-path="url(#p9e96b63886)" d="M 174.135227 118.08 
L 175.657045 118.08 
L 175.657045 104.142944 
L 174.135227 104.142944 
z
" style="fill:#ffffff;"/>
   </g>
   <g id="patch_83">
    <path clip-path="url(#p9e96b63886)" d="M 175.657045 118.08 
L 177.178864 118.08 
L 177.178864 105.870186 
L 175.657045 105.870186 
z
" style="fill:#ffffff;"/>
   </g>
   <g id="patch_84">
    <path clip-path="url(#p9e96b63886)" d="M 177.178864 118.08 
L 178.700682 118.08 
L 178.700682 105.036345 
L 177.178864 105.036345 
z
" style="fill:#ffffff;"/>
   </g>
   <g id="patch_85">
    <path clip-path="url(#p9e96b63886)" d="M 178.700682 118.08 
L 180.2225 118.08 
L 180.2225 112.243113 
L 178.700682 112.243113 
z
" style="fill:#ffffff;"/>
   </g>
   <g id="patch_86">
    <path clip-path="url(#p9e96b63886)" d="M 180.2225 118.08 
L 181.744318 118.08 
L 181.744318 110.694552 
L 180.2225 110.694552 
z
" style="fill:#ffffff;"/>
   </g>
   <g id="patch_87">
    <path clip-path="url(#p9e96b63886)" d="M 181.744318 118.08 
L 183.266136 118.08 
L 183.266136 111.528393 
L 181.744318 111.528393 
z
" style="fill:#ffffff;"/>
   </g>
   <g id="patch_88">
    <path clip-path="url(#p9e96b63886)" d="M 183.266136 118.08 
L 184.787955 118.08 
L 184.787955 112.123993 
L 183.266136 112.123993 
z
" style="fill:#ffffff;"/>
   </g>
   <g id="patch_89">
    <path clip-path="url(#p9e96b63886)" d="M 184.787955 118.08 
L 186.309773 118.08 
L 186.309773 113.851235 
L 184.787955 113.851235 
z
" style="fill:#ffffff;"/>
   </g>
   <g id="patch_90">
    <path clip-path="url(#p9e96b63886)" d="M 186.309773 118.08 
L 187.831591 118.08 
L 187.831591 115.757157 
L 186.309773 115.757157 
z
" style="fill:#ffffff;"/>
   </g>
   <g id="patch_91">
    <path clip-path="url(#p9e96b63886)" d="M 187.831591 118.08 
L 189.353409 118.08 
L 189.353409 116.114518 
L 187.831591 116.114518 
z
" style="fill:#ffffff;"/>
   </g>
   <g id="patch_92">
    <path clip-path="url(#p9e96b63886)" d="M 189.353409 118.08 
L 190.875227 118.08 
L 190.875227 116.114518 
L 189.353409 116.114518 
z
" style="fill:#ffffff;"/>
   </g>
   <g id="patch_93">
    <path clip-path="url(#p9e96b63886)" d="M 190.875227 118.08 
L 192.397045 118.08 
L 192.397045 116.650558 
L 190.875227 116.650558 
z
" style="fill:#ffffff;"/>
   </g>
   <g id="patch_94">
    <path clip-path="url(#p9e96b63886)" d="M 192.397045 118.08 
L 193.918864 118.08 
L 193.918864 116.710118 
L 192.397045 116.710118 
z
" style="fill:#ffffff;"/>
   </g>
   <g id="patch_95">
    <path clip-path="url(#p9e96b63886)" d="M 193.918864 118.08 
L 195.440682 118.08 
L 195.440682 117.72264 
L 193.918864 117.72264 
z
" style="fill:#ffffff;"/>
   </g>
   <g id="patch_96">
    <path clip-path="url(#p9e96b63886)" d="M 195.440682 118.08 
L 196.9625 118.08 
L 196.9625 117.305719 
L 195.440682 117.305719 
z
" style="fill:#ffffff;"/>
   </g>
   <g id="patch_97">
    <path clip-path="url(#p9e96b63886)" d="M 196.9625 118.08 
L 198.484318 118.08 
L 198.484318 117.484399 
L 196.9625 117.484399 
z
" style="fill:#ffffff;"/>
   </g>
   <g id="patch_98">
    <path clip-path="url(#p9e96b63886)" d="M 198.484318 118.08 
L 200.006136 118.08 
L 200.006136 117.543959 
L 198.484318 117.543959 
z
" style="fill:#ffffff;"/>
   </g>
   <g id="patch_99">
    <path clip-path="url(#p9e96b63886)" d="M 200.006136 118.08 
L 201.527955 118.08 
L 201.527955 117.72264 
L 200.006136 117.72264 
z
" style="fill:#ffffff;"/>
   </g>
   <g id="patch_100">
    <path clip-path="url(#p9e96b63886)" d="M 201.527955 118.08 
L 203.049773 118.08 
L 203.049773 117.96088 
L 201.527955 117.96088 
z
" style="fill:#ffffff;"/>
   </g>
   <g id="patch_101">
    <path clip-path="url(#p9e96b63886)" d="M 203.049773 118.08 
L 204.571591 118.08 
L 204.571591 118.02044 
L 203.049773 118.02044 
z
" style="fill:#ffffff;"/>
   </g>
   <g id="patch_102">
    <path clip-path="url(#p9e96b63886)" d="M 204.571591 118.08 
L 206.093409 118.08 
L 206.093409 118.02044 
L 204.571591 118.02044 
z
" style="fill:#ffffff;"/>
   </g>
   <g id="patch_103">
    <path clip-path="url(#p9e96b63886)" d="M 53.911591 118.08 
L 55.433409 118.08 
L 55.433409 118.02044 
L 53.911591 118.02044 
z
" style="fill:#ffffff;"/>
   </g>
   <g id="patch_104">
    <path clip-path="url(#p9e96b63886)" d="M 55.433409 118.08 
L 56.955227 118.08 
L 56.955227 118.02044 
L 55.433409 118.02044 
z
" style="fill:#ffffff;"/>
   </g>
   <g id="patch_105">
    <path clip-path="url(#p9e96b63886)" d="M 56.955227 118.08 
L 58.477045 118.08 
L 58.477045 118.02044 
L 56.955227 118.02044 
z
" style="fill:#ffffff;"/>
   </g>
   <g id="patch_106">
    <path clip-path="url(#p9e96b63886)" d="M 58.477045 118.08 
L 59.998864 118.08 
L 59.998864 117.90132 
L 58.477045 117.90132 
z
" style="fill:#ffffff;"/>
   </g>
   <g id="patch_107">
    <path clip-path="url(#p9e96b63886)" d="M 59.998864 118.08 
L 61.520682 118.08 
L 61.520682 117.90132 
L 59.998864 117.90132 
z
" style="fill:#ffffff;"/>
   </g>
   <g id="patch_108">
    <path clip-path="url(#p9e96b63886)" d="M 61.520682 118.08 
L 63.0425 118.08 
L 63.0425 117.603519 
L 61.520682 117.603519 
z
" style="fill:#ffffff;"/>
   </g>
   <g id="patch_109">
    <path clip-path="url(#p9e96b63886)" d="M 63.0425 118.08 
L 64.564318 118.08 
L 64.564318 117.7822 
L 63.0425 117.7822 
z
" style="fill:#ffffff;"/>
   </g>
   <g id="patch_110">
    <path clip-path="url(#p9e96b63886)" d="M 64.564318 118.08 
L 66.086136 118.08 
L 66.086136 117.96088 
L 64.564318 117.96088 
z
" style="fill:#ffffff;"/>
   </g>
   <g id="patch_111">
    <path clip-path="url(#p9e96b63886)" d="M 66.086136 118.08 
L 67.607955 118.08 
L 67.607955 117.90132 
L 66.086136 117.90132 
z
" style="fill:#ffffff;"/>
   </g>
   <g id="patch_112">
    <path clip-path="url(#p9e96b63886)" d="M 67.607955 118.08 
L 69.129773 118.08 
L 69.129773 117.305719 
L 67.607955 117.305719 
z
" style="fill:#ffffff;"/>
   </g>
   <g id="patch_113">
    <path clip-path="url(#p9e96b63886)" d="M 69.129773 118.08 
L 70.651591 118.08 
L 70.651591 117.186599 
L 69.129773 117.186599 
z
" style="fill:#ffffff;"/>
   </g>
   <g id="patch_114">
    <path clip-path="url(#p9e96b63886)" d="M 70.651591 118.08 
L 72.173409 118.08 
L 72.173409 117.186599 
L 70.651591 117.186599 
z
" style="fill:#ffffff;"/>
   </g>
   <g id="patch_115">
    <path clip-path="url(#p9e96b63886)" d="M 72.173409 118.08 
L 73.695227 118.08 
L 73.695227 117.246159 
L 72.173409 117.246159 
z
" style="fill:#ffffff;"/>
   </g>
   <g id="patch_116">
    <path clip-path="url(#p9e96b63886)" d="M 73.695227 118.08 
L 75.217045 118.08 
L 75.217045 116.352758 
L 73.695227 116.352758 
z
" style="fill:#ffffff;"/>
   </g>
   <g id="patch_117">
    <path clip-path="url(#p9e96b63886)" d="M 75.217045 118.08 
L 76.738864 118.08 
L 76.738864 116.650558 
L 75.217045 116.650558 
z
" style="fill:#ffffff;"/>
   </g>
   <g id="patch_118">
    <path clip-path="url(#p9e96b63886)" d="M 76.738864 118.08 
L 78.260682 118.08 
L 78.260682 115.638037 
L 76.738864 115.638037 
z
" style="fill:#ffffff;"/>
   </g>
   <g id="patch_119">
    <path clip-path="url(#p9e96b63886)" d="M 78.260682 118.08 
L 79.7825 118.08 
L 79.7825 114.863756 
L 78.260682 114.863756 
z
" style="fill:#ffffff;"/>
   </g>
   <g id="patch_120">
    <path clip-path="url(#p9e96b63886)" d="M 79.7825 118.08 
L 81.304318 118.08 
L 81.304318 114.506396 
L 79.7825 114.506396 
z
" style="fill:#ffffff;"/>
   </g>
   <g id="patch_121">
    <path clip-path="url(#p9e96b63886)" d="M 81.304318 118.08 
L 82.826136 118.08 
L 82.826136 112.957834 
L 81.304318 112.957834 
z
" style="fill:#ffffff;"/>
   </g>
   <g id="patch_122">
    <path clip-path="url(#p9e96b63886)" d="M 82.826136 118.08 
L 84.347955 118.08 
L 84.347955 112.481354 
L 82.826136 112.481354 
z
" style="fill:#ffffff;"/>
   </g>
   <g id="patch_123">
    <path clip-path="url(#p9e96b63886)" d="M 84.347955 118.08 
L 85.869773 118.08 
L 85.869773 109.920271 
L 84.347955 109.920271 
z
" style="fill:#ffffff;"/>
   </g>
   <g id="patch_124">
    <path clip-path="url(#p9e96b63886)" d="M 85.869773 118.08 
L 87.391591 118.08 
L 87.391591 108.729069 
L 85.869773 108.729069 
z
" style="fill:#ffffff;"/>
   </g>
   <g id="patch_125">
    <path clip-path="url(#p9e96b63886)" d="M 87.391591 118.08 
L 88.913409 118.08 
L 88.913409 105.453266 
L 87.391591 105.453266 
z
" style="fill:#ffffff;"/>
   </g>
   <g id="patch_126">
    <path clip-path="url(#p9e96b63886)" d="M 88.913409 118.08 
L 90.435227 118.08 
L 90.435227 108.431269 
L 88.913409 108.431269 
z
" style="fill:#ffffff;"/>
   </g>
   <g id="patch_127">
    <path clip-path="url(#p9e96b63886)" d="M 90.435227 118.08 
L 91.957045 118.08 
L 91.957045 104.798105 
L 90.435227 104.798105 
z
" style="fill:#ffffff;"/>
   </g>
   <g id="patch_128">
    <path clip-path="url(#p9e96b63886)" d="M 91.957045 118.08 
L 93.478864 118.08 
L 93.478864 102.117902 
L 91.957045 102.117902 
z
" style="fill:#ffffff;"/>
   </g>
   <g id="patch_129">
    <path clip-path="url(#p9e96b63886)" d="M 93.478864 118.08 
L 95.000682 118.08 
L 95.000682 100.6289 
L 93.478864 100.6289 
z
" style="fill:#ffffff;"/>
   </g>
   <g id="patch_130">
    <path clip-path="url(#p9e96b63886)" d="M 95.000682 118.08 
L 96.5225 118.08 
L 96.5225 93.362572 
L 95.000682 93.362572 
z
" style="fill:#ffffff;"/>
   </g>
   <g id="patch_131">
    <path clip-path="url(#p9e96b63886)" d="M 96.5225 118.08 
L 98.044318 118.08 
L 98.044318 100.6289 
L 96.5225 100.6289 
z
" style="fill:#ffffff;"/>
   </g>
   <g id="patch_132">
    <path clip-path="url(#p9e96b63886)" d="M 98.044318 118.08 
L 99.566136 118.08 
L 99.566136 92.886091 
L 98.044318 92.886091 
z
" style="fill:#ffffff;"/>
   </g>
   <g id="patch_133">
    <path clip-path="url(#p9e96b63886)" d="M 99.566136 118.08 
L 101.087955 118.08 
L 101.087955 88.776447 
L 99.566136 88.776447 
z
" style="fill:#ffffff;"/>
   </g>
   <g id="patch_134">
    <path clip-path="url(#p9e96b63886)" d="M 101.087955 118.08 
L 102.609773 118.08 
L 102.609773 88.061726 
L 101.087955 88.061726 
z
" style="fill:#ffffff;"/>
   </g>
   <g id="patch_135">
    <path clip-path="url(#p9e96b63886)" d="M 102.609773 118.08 
L 104.131591 118.08 
L 104.131591 85.798443 
L 102.609773 85.798443 
z
" style="fill:#ffffff;"/>
   </g>
   <g id="patch_136">
    <path clip-path="url(#p9e96b63886)" d="M 104.131591 118.08 
L 105.653409 118.08 
L 105.653409 80.438037 
L 104.131591 80.438037 
z
" style="fill:#ffffff;"/>
   </g>
   <g id="patch_137">
    <path clip-path="url(#p9e96b63886)" d="M 105.653409 118.08 
L 107.175227 118.08 
L 107.175227 78.115195 
L 105.653409 78.115195 
z
" style="fill:#ffffff;"/>
   </g>
   <g id="patch_138">
    <path clip-path="url(#p9e96b63886)" d="M 107.175227 118.08 
L 108.697045 118.08 
L 108.697045 75.256311 
L 107.175227 75.256311 
z
" style="fill:#ffffff;"/>
   </g>
   <g id="patch_139">
    <path clip-path="url(#p9e96b63886)" d="M 108.697045 118.08 
L 110.218864 118.08 
L 110.218864 70.074585 
L 108.697045 70.074585 
z
" style="fill:#ffffff;"/>
   </g>
   <g id="patch_140">
    <path clip-path="url(#p9e96b63886)" d="M 110.218864 118.08 
L 111.740682 118.08 
L 111.740682 66.500981 
L 110.218864 66.500981 
z
" style="fill:#ffffff;"/>
   </g>
   <g id="patch_141">
    <path clip-path="url(#p9e96b63886)" d="M 111.740682 118.08 
L 113.2625 118.08 
L 113.2625 63.106058 
L 111.740682 63.106058 
z
" style="fill:#ffffff;"/>
   </g>
   <g id="patch_142">
    <path clip-path="url(#p9e96b63886)" d="M 113.2625 118.08 
L 114.784318 118.08 
L 114.784318 56.73313 
L 113.2625 56.73313 
z
" style="fill:#ffffff;"/>
   </g>
   <g id="patch_143">
    <path clip-path="url(#p9e96b63886)" d="M 114.784318 118.08 
L 116.306136 118.08 
L 116.306136 34.159865 
L 114.784318 34.159865 
z
" style="fill:#ffffff;"/>
   </g>
   <g id="patch_144">
    <path clip-path="url(#p9e96b63886)" d="M 116.306136 118.08 
L 117.827955 118.08 
L 117.827955 71.027547 
L 116.306136 71.027547 
z
" style="fill:#ffffff;"/>
   </g>
   <g id="patch_145">
    <path clip-path="url(#p9e96b63886)" d="M 117.827955 118.08 
L 119.349773 118.08 
L 119.349773 47.44176 
L 117.827955 47.44176 
z
" style="fill:#ffffff;"/>
   </g>
   <g id="patch_146">
    <path clip-path="url(#p9e96b63886)" d="M 119.349773 118.08 
L 120.871591 118.08 
L 120.871591 44.761557 
L 119.349773 44.761557 
z
" style="fill:#ffffff;"/>
   </g>
   <g id="patch_147">
    <path clip-path="url(#p9e96b63886)" d="M 120.871591 118.08 
L 122.393409 118.08 
L 122.393409 46.846159 
L 120.871591 46.846159 
z
" style="fill:#ffffff;"/>
   </g>
   <g id="patch_148">
    <path clip-path="url(#p9e96b63886)" d="M 122.393409 118.08 
L 123.915227 118.08 
L 123.915227 24.213333 
L 122.393409 24.213333 
z
" style="fill:#ffffff;"/>
   </g>
   <g id="patch_149">
    <path clip-path="url(#p9e96b63886)" d="M 123.915227 118.08 
L 125.437045 118.08 
L 125.437045 58.103012 
L 123.915227 58.103012 
z
" style="fill:#ffffff;"/>
   </g>
   <g id="patch_150">
    <path clip-path="url(#p9e96b63886)" d="M 125.437045 118.08 
L 126.958864 118.08 
L 126.958864 35.291506 
L 125.437045 35.291506 
z
" style="fill:#ffffff;"/>
   </g>
   <g id="patch_151">
    <path clip-path="url(#p9e96b63886)" d="M 126.958864 118.08 
L 128.480682 118.08 
L 128.480682 34.159865 
L 126.958864 34.159865 
z
" style="fill:#ffffff;"/>
   </g>
   <g id="patch_152">
    <path clip-path="url(#p9e96b63886)" d="M 128.480682 118.08 
L 130.0025 118.08 
L 130.0025 31.956142 
L 128.480682 31.956142 
z
" style="fill:#ffffff;"/>
   </g>
   <g id="patch_153">
    <path clip-path="url(#p9e96b63886)" d="M 130.0025 118.08 
L 131.524318 118.08 
L 131.524318 12.48 
L 130.0025 12.48 
z
" style="fill:#ffffff;"/>
   </g>
   <g id="patch_154">
    <path clip-path="url(#p9e96b63886)" d="M 131.524318 118.08 
L 133.046136 118.08 
L 133.046136 53.695567 
L 131.524318 53.695567 
z
" style="fill:#ffffff;"/>
   </g>
   <g id="patch_155">
    <path clip-path="url(#p9e96b63886)" d="M 133.046136 118.08 
L 134.567955 118.08 
L 134.567955 28.382538 
L 133.046136 28.382538 
z
" style="fill:#ffffff;"/>
   </g>
   <g id="patch_156">
    <path clip-path="url(#p9e96b63886)" d="M 134.567955 118.08 
L 136.089773 118.08 
L 136.089773 34.517225 
L 134.567955 34.517225 
z
" style="fill:#ffffff;"/>
   </g>
   <g id="patch_157">
    <path clip-path="url(#p9e96b63886)" d="M 136.089773 118.08 
L 137.611591 118.08 
L 137.611591 34.100305 
L 136.089773 34.100305 
z
" style="fill:#ffffff;"/>
   </g>
   <g id="patch_158">
    <path clip-path="url(#p9e96b63886)" d="M 137.611591 118.08 
L 139.133409 118.08 
L 139.133409 15.636684 
L 137.611591 15.636684 
z
" style="fill:#ffffff;"/>
   </g>
   <g id="patch_159">
    <path clip-path="url(#p9e96b63886)" d="M 139.133409 118.08 
L 140.655227 118.08 
L 140.655227 56.13753 
L 139.133409 56.13753 
z
" style="fill:#ffffff;"/>
   </g>
   <g id="patch_160">
    <path clip-path="url(#p9e96b63886)" d="M 140.655227 118.08 
L 142.177045 118.08 
L 142.177045 36.244467 
L 140.655227 36.244467 
z
" style="fill:#ffffff;"/>
   </g>
   <g id="patch_161">
    <path clip-path="url(#p9e96b63886)" d="M 142.177045 118.08 
L 143.698864 118.08 
L 143.698864 42.200474 
L 142.177045 42.200474 
z
" style="fill:#ffffff;"/>
   </g>
   <g id="patch_162">
    <path clip-path="url(#p9e96b63886)" d="M 143.698864 118.08 
L 145.220682 118.08 
L 145.220682 47.3822 
L 143.698864 47.3822 
z
" style="fill:#ffffff;"/>
   </g>
   <g id="patch_163">
    <path clip-path="url(#p9e96b63886)" d="M 145.220682 118.08 
L 146.7425 118.08 
L 146.7425 30.05022 
L 145.220682 30.05022 
z
" style="fill:#ffffff;"/>
   </g>
   <g id="patch_164">
    <path clip-path="url(#p9e96b63886)" d="M 146.7425 118.08 
L 148.264318 118.08 
L 148.264318 67.573063 
L 146.7425 67.573063 
z
" style="fill:#ffffff;"/>
   </g>
   <g id="patch_165">
    <path clip-path="url(#p9e96b63886)" d="M 148.264318 118.08 
L 149.786136 118.08 
L 149.786136 49.824162 
L 148.264318 49.824162 
z
" style="fill:#ffffff;"/>
   </g>
   <g id="patch_166">
    <path clip-path="url(#p9e96b63886)" d="M 149.786136 118.08 
L 151.307955 118.08 
L 151.307955 57.090491 
L 149.786136 57.090491 
z
" style="fill:#ffffff;"/>
   </g>
   <g id="patch_167">
    <path clip-path="url(#p9e96b63886)" d="M 151.307955 118.08 
L 152.829773 118.08 
L 152.829773 56.73313 
L 151.307955 56.73313 
z
" style="fill:#ffffff;"/>
   </g>
   <g id="patch_168">
    <path clip-path="url(#p9e96b63886)" d="M 152.829773 118.08 
L 154.351591 118.08 
L 154.351591 51.908765 
L 152.829773 51.908765 
z
" style="fill:#ffffff;"/>
   </g>
   <g id="patch_169">
    <path clip-path="url(#p9e96b63886)" d="M 154.351591 118.08 
L 155.873409 118.08 
L 155.873409 79.127716 
L 154.351591 79.127716 
z
" style="fill:#ffffff;"/>
   </g>
   <g id="patch_170">
    <path clip-path="url(#p9e96b63886)" d="M 155.873409 118.08 
L 157.395227 118.08 
L 157.395227 74.958511 
L 155.873409 74.958511 
z
" style="fill:#ffffff;"/>
   </g>
   <g id="patch_171">
    <path clip-path="url(#p9e96b63886)" d="M 157.395227 118.08 
L 158.917045 118.08 
L 158.917045 71.027547 
L 157.395227 71.027547 
z
" style="fill:#ffffff;"/>
   </g>
   <g id="patch_172">
    <path clip-path="url(#p9e96b63886)" d="M 158.917045 118.08 
L 160.438864 118.08 
L 160.438864 76.745313 
L 158.917045 76.745313 
z
" style="fill:#ffffff;"/>
   </g>
   <g id="patch_173">
    <path clip-path="url(#p9e96b63886)" d="M 160.438864 118.08 
L 161.960682 118.08 
L 161.960682 73.290829 
L 160.438864 73.290829 
z
" style="fill:#ffffff;"/>
   </g>
   <g id="patch_174">
    <path clip-path="url(#p9e96b63886)" d="M 161.960682 118.08 
L 163.4825 118.08 
L 163.4825 95.387614 
L 161.960682 95.387614 
z
" style="fill:#ffffff;"/>
   </g>
   <g id="patch_175">
    <path clip-path="url(#p9e96b63886)" d="M 163.4825 118.08 
L 165.004318 118.08 
L 165.004318 88.597766 
L 163.4825 88.597766 
z
" style="fill:#ffffff;"/>
   </g>
   <g id="patch_176">
    <path clip-path="url(#p9e96b63886)" d="M 165.004318 118.08 
L 166.526136 118.08 
L 166.526136 92.290491 
L 165.004318 92.290491 
z
" style="fill:#ffffff;"/>
   </g>
   <g id="patch_177">
    <path clip-path="url(#p9e96b63886)" d="M 166.526136 118.08 
L 168.047955 118.08 
L 168.047955 97.353096 
L 166.526136 97.353096 
z
" style="fill:#ffffff;"/>
   </g>
   <g id="patch_178">
    <path clip-path="url(#p9e96b63886)" d="M 168.047955 118.08 
L 169.569773 118.08 
L 169.569773 91.45665 
L 168.047955 91.45665 
z
" style="fill:#ffffff;"/>
   </g>
   <g id="patch_179">
    <path clip-path="url(#p9e96b63886)" d="M 169.569773 118.08 
L 171.091591 118.08 
L 171.091591 105.036345 
L 169.569773 105.036345 
z
" style="fill:#ffffff;"/>
   </g>
   <g id="patch_180">
    <path clip-path="url(#p9e96b63886)" d="M 171.091591 118.08 
L 172.613409 118.08 
L 172.613409 101.700981 
L 171.091591 101.700981 
z
" style="fill:#ffffff;"/>
   </g>
   <g id="patch_181">
    <path clip-path="url(#p9e96b63886)" d="M 172.613409 118.08 
L 174.135227 118.08 
L 174.135227 104.738545 
L 172.613409 104.738545 
z
" style="fill:#ffffff;"/>
   </g>
   <g id="patch_182">
    <path clip-path="url(#p9e96b63886)" d="M 174.135227 118.08 
L 175.657045 118.08 
L 175.657045 106.108426 
L 174.135227 106.108426 
z
" style="fill:#ffffff;"/>
   </g>
   <g id="patch_183">
    <path clip-path="url(#p9e96b63886)" d="M 175.657045 118.08 
L 177.178864 118.08 
L 177.178864 108.490829 
L 175.657045 108.490829 
z
" style="fill:#ffffff;"/>
   </g>
   <g id="patch_184">
    <path clip-path="url(#p9e96b63886)" d="M 177.178864 118.08 
L 178.700682 118.08 
L 178.700682 107.895228 
L 177.178864 107.895228 
z
" style="fill:#ffffff;"/>
   </g>
   <g id="patch_185">
    <path clip-path="url(#p9e96b63886)" d="M 178.700682 118.08 
L 180.2225 118.08 
L 180.2225 112.898274 
L 178.700682 112.898274 
z
" style="fill:#ffffff;"/>
   </g>
   <g id="patch_186">
    <path clip-path="url(#p9e96b63886)" d="M 180.2225 118.08 
L 181.744318 118.08 
L 181.744318 113.732115 
L 180.2225 113.732115 
z
" style="fill:#ffffff;"/>
   </g>
   <g id="patch_187">
    <path clip-path="url(#p9e96b63886)" d="M 181.744318 118.08 
L 183.266136 118.08 
L 183.266136 113.255635 
L 181.744318 113.255635 
z
" style="fill:#ffffff;"/>
   </g>
   <g id="patch_188">
    <path clip-path="url(#p9e96b63886)" d="M 183.266136 118.08 
L 184.787955 118.08 
L 184.787955 114.625516 
L 183.266136 114.625516 
z
" style="fill:#ffffff;"/>
   </g>
   <g id="patch_189">
    <path clip-path="url(#p9e96b63886)" d="M 184.787955 118.08 
L 186.309773 118.08 
L 186.309773 115.221117 
L 184.787955 115.221117 
z
" style="fill:#ffffff;"/>
   </g>
   <g id="patch_190">
    <path clip-path="url(#p9e96b63886)" d="M 186.309773 118.08 
L 187.831591 118.08 
L 187.831591 116.948359 
L 186.309773 116.948359 
z
" style="fill:#ffffff;"/>
   </g>
   <g id="patch_191">
    <path clip-path="url(#p9e96b63886)" d="M 187.831591 118.08 
L 189.353409 118.08 
L 189.353409 116.471878 
L 187.831591 116.471878 
z
" style="fill:#ffffff;"/>
   </g>
   <g id="patch_192">
    <path clip-path="url(#p9e96b63886)" d="M 189.353409 118.08 
L 190.875227 118.08 
L 190.875227 116.293198 
L 189.353409 116.293198 
z
" style="fill:#ffffff;"/>
   </g>
   <g id="patch_193">
    <path clip-path="url(#p9e96b63886)" d="M 190.875227 118.08 
L 192.397045 118.08 
L 192.397045 117.186599 
L 190.875227 117.186599 
z
" style="fill:#ffffff;"/>
   </g>
   <g id="patch_194">
    <path clip-path="url(#p9e96b63886)" d="M 192.397045 118.08 
L 193.918864 118.08 
L 193.918864 116.710118 
L 192.397045 116.710118 
z
" style="fill:#ffffff;"/>
   </g>
   <g id="patch_195">
    <path clip-path="url(#p9e96b63886)" d="M 193.918864 118.08 
L 195.440682 118.08 
L 195.440682 117.246159 
L 193.918864 117.246159 
z
" style="fill:#ffffff;"/>
   </g>
   <g id="patch_196">
    <path clip-path="url(#p9e96b63886)" d="M 195.440682 118.08 
L 196.9625 118.08 
L 196.9625 117.96088 
L 195.440682 117.96088 
z
" style="fill:#ffffff;"/>
   </g>
   <g id="patch_197">
    <path clip-path="url(#p9e96b63886)" d="M 196.9625 118.08 
L 198.484318 118.08 
L 198.484318 117.66308 
L 196.9625 117.66308 
z
" style="fill:#ffffff;"/>
   </g>
   <g id="patch_198">
    <path clip-path="url(#p9e96b63886)" d="M 198.484318 118.08 
L 200.006136 118.08 
L 200.006136 117.72264 
L 198.484318 117.72264 
z
" style="fill:#ffffff;"/>
   </g>
   <g id="patch_199">
    <path clip-path="url(#p9e96b63886)" d="M 200.006136 118.08 
L 201.527955 118.08 
L 201.527955 117.66308 
L 200.006136 117.66308 
z
" style="fill:#ffffff;"/>
   </g>
   <g id="patch_200">
    <path clip-path="url(#p9e96b63886)" d="M 201.527955 118.08 
L 203.049773 118.08 
L 203.049773 118.08 
L 201.527955 118.08 
z
" style="fill:#ffffff;"/>
   </g>
   <g id="patch_201">
    <path clip-path="url(#p9e96b63886)" d="M 203.049773 118.08 
L 204.571591 118.08 
L 204.571591 118.02044 
L 203.049773 118.02044 
z
" style="fill:#ffffff;"/>
   </g>
   <g id="patch_202">
    <path clip-path="url(#p9e96b63886)" d="M 204.571591 118.08 
L 206.093409 118.08 
L 206.093409 117.96088 
L 204.571591 117.96088 
z
" style="fill:#ffffff;"/>
   </g>
   <g id="matplotlib.axis_1">
    <g id="xtick_1">
     <g id="line2d_1">
      <defs>
       <path d="M 0 0 
L 0 3.5 
" id="mb38cc9b064" style="stroke:#000000;stroke-width:1.5;"/>
      </defs>
      <g>
       <use style="stroke:#000000;stroke-width:1.5;" x="53.911591" xlink:href="#mb38cc9b064" y="118.08"/>
      </g>
     </g>
     <g id="text_1">
      <text style="font-family:DejaVu Sans;font-size:8px;font-stretch:normal;font-style:normal;font-weight:normal;text-anchor:middle;" transform="rotate(-0, 53.911591, 131.15875)" x="53.911591" y="131.15875">20</text>
     </g>
    </g>
    <g id="xtick_2">
     <g id="line2d_2">
      <g>
       <use style="stroke:#000000;stroke-width:1.5;" x="91.957045" xlink:href="#mb38cc9b064" y="118.08"/>
      </g>
     </g>
     <g id="text_2">
      <text style="font-family:DejaVu Sans;font-size:8px;font-stretch:normal;font-style:normal;font-weight:normal;text-anchor:middle;" transform="rotate(-0, 91.957045, 131.15875)" x="91.957045" y="131.15875">30</text>
     </g>
    </g>
    <g id="xtick_3">
     <g id="line2d_3">
      <g>
       <use style="stroke:#000000;stroke-width:1.5;" x="130.0025" xlink:href="#mb38cc9b064" y="118.08"/>
      </g>
     </g>
     <g id="text_3">
      <text style="font-family:DejaVu Sans;font-size:8px;font-stretch:normal;font-style:normal;font-weight:normal;text-anchor:middle;" transform="rotate(-0, 130.0025, 131.15875)" x="130.0025" y="131.15875">40</text>
     </g>
    </g>
    <g id="xtick_4">
     <g id="line2d_4">
      <g>
       <use style="stroke:#000000;stroke-width:1.5;" x="168.047955" xlink:href="#mb38cc9b064" y="118.08"/>
      </g>
     </g>
     <g id="text_4">
      <text style="font-family:DejaVu Sans;font-size:8px;font-stretch:normal;font-style:normal;font-weight:normal;text-anchor:middle;" transform="rotate(-0, 168.047955, 131.15875)" x="168.047955" y="131.15875">50</text>
     </g>
    </g>
    <g id="xtick_5">
     <g id="line2d_5">
      <g>
       <use style="stroke:#000000;stroke-width:1.5;" x="206.093409" xlink:href="#mb38cc9b064" y="118.08"/>
      </g>
     </g>
     <g id="text_5">
      <text style="font-family:DejaVu Sans;font-size:8px;font-stretch:normal;font-style:normal;font-weight:normal;text-anchor:middle;" transform="rotate(-0, 206.093409, 131.15875)" x="206.093409" y="131.15875">60</text>
     </g>
    </g>
    <g id="text_6">
     <text style="font-family:DejaVu Sans;font-size:8px;font-stretch:normal;font-style:normal;font-weight:normal;text-anchor:middle;" transform="rotate(-0, 130.0025, 142.90125)" x="130.0025" y="142.90125">Number of spikes / second</text>
    </g>
   </g>
   <g id="matplotlib.axis_2">
    <g id="ytick_1">
     <g id="line2d_6">
      <defs>
       <path d="M 0 0 
L -3.5 0 
" id="mef3ad02530" style="stroke:#000000;stroke-width:1.5;"/>
      </defs>
      <g>
       <use style="stroke:#000000;stroke-width:1.5;" x="46.3025" xlink:href="#mef3ad02530" y="118.08"/>
      </g>
     </g>
     <g id="text_7">
      <text style="font-family:DejaVu Sans;font-size:8px;font-stretch:normal;font-style:normal;font-weight:normal;text-anchor:end;" transform="rotate(-0, 39.3025, 121.119375)" x="39.3025" y="121.119375">0</text>
     </g>
    </g>
    <g id="ytick_2">
     <g id="line2d_7">
      <g>
       <use style="stroke:#000000;stroke-width:1.5;" x="46.3025" xlink:href="#mef3ad02530" y="88.299966"/>
      </g>
     </g>
     <g id="text_8">
      <text style="font-family:DejaVu Sans;font-size:8px;font-stretch:normal;font-style:normal;font-weight:normal;text-anchor:end;" transform="rotate(-0, 39.3025, 91.339341)" x="39.3025" y="91.339341">500</text>
     </g>
    </g>
    <g id="ytick_3">
     <g id="line2d_8">
      <g>
       <use style="stroke:#000000;stroke-width:1.5;" x="46.3025" xlink:href="#mef3ad02530" y="58.519932"/>
      </g>
     </g>
     <g id="text_9">
      <text style="font-family:DejaVu Sans;font-size:8px;font-stretch:normal;font-style:normal;font-weight:normal;text-anchor:end;" transform="rotate(-0, 39.3025, 61.559307)" x="39.3025" y="61.559307">1000</text>
     </g>
    </g>
    <g id="ytick_4">
     <g id="line2d_9">
      <g>
       <use style="stroke:#000000;stroke-width:1.5;" x="46.3025" xlink:href="#mef3ad02530" y="28.739898"/>
      </g>
     </g>
     <g id="text_10">
      <text style="font-family:DejaVu Sans;font-size:8px;font-stretch:normal;font-style:normal;font-weight:normal;text-anchor:end;" transform="rotate(-0, 39.3025, 31.779273)" x="39.3025" y="31.779273">1500</text>
     </g>
    </g>
    <g id="text_11">
     <text style="font-family:DejaVu Sans;font-size:8px;font-stretch:normal;font-style:normal;font-weight:normal;text-anchor:middle;" transform="rotate(-90, 13.27875, 62.64)" x="13.27875" y="62.64">Count</text>
    </g>
   </g>
   <g id="line2d_10">
    <path clip-path="url(#p9e96b63886)" d="M 54.6725 118.08 
L 56.194318 118.08 
L 57.716136 118.08 
L 59.237955 118.02044 
L 60.759773 117.90132 
L 62.281591 117.84176 
L 63.803409 117.90132 
L 65.325227 117.7822 
L 66.847045 117.7822 
L 68.368864 117.72264 
L 69.890682 117.543959 
L 71.4125 117.66308 
L 72.934318 117.305719 
L 74.456136 116.412318 
L 75.977955 115.876277 
L 77.499773 116.293198 
L 79.021591 115.340237 
L 80.543409 114.446836 
L 82.065227 114.268156 
L 83.587045 113.315195 
L 85.108864 112.123993 
L 86.630682 110.813672 
L 88.1525 108.788629 
L 89.674318 112.123993 
L 91.196136 107.240068 
L 92.717955 105.989306 
L 94.239773 101.700981 
L 95.761591 97.114856 
L 97.283409 103.964264 
L 98.805227 96.400135 
L 100.327045 93.719932 
L 101.848864 92.588291 
L 103.370682 88.240406 
L 104.8925 86.334484 
L 106.414318 80.795398 
L 107.936136 80.140237 
L 109.457955 78.412995 
L 110.979773 72.218748 
L 112.501591 68.049543 
L 114.023409 65.07154 
L 115.545227 46.846159 
L 117.067045 73.350389 
L 118.588864 52.980846 
L 120.110682 51.849205 
L 121.6325 53.695567 
L 123.154318 26.297936 
L 124.676136 61.259695 
L 126.197955 37.733469 
L 127.719773 40.830592 
L 129.241591 36.482707 
L 130.763409 14.564602 
L 132.285227 54.886768 
L 133.807045 30.943621 
L 135.328864 30.526701 
L 136.850682 34.755465 
L 138.3725 13.313841 
L 139.894318 53.933807 
L 141.416136 36.482707 
L 142.937955 33.802504 
L 144.459773 38.92467 
L 145.981591 24.272893 
L 147.503409 61.319255 
L 149.025227 46.667479 
L 150.547045 51.134484 
L 152.068864 54.052927 
L 153.590682 44.106396 
L 155.1125 77.876954 
L 156.634318 63.225178 
L 158.156136 67.811303 
L 159.677955 72.754788 
L 161.199773 66.500981 
L 162.721591 88.597766 
L 164.243409 82.343959 
L 165.765227 88.002166 
L 167.287045 87.763926 
L 168.808864 87.466125 
L 170.330682 100.033299 
L 171.8525 98.842098 
L 173.374318 100.80758 
L 174.896136 104.142944 
L 176.417955 105.870186 
L 177.939773 105.036345 
L 179.461591 112.243113 
L 180.983409 110.694552 
L 182.505227 111.528393 
L 184.027045 112.123993 
L 185.548864 113.851235 
L 187.070682 115.757157 
L 188.5925 116.114518 
L 190.114318 116.114518 
L 191.636136 116.650558 
L 193.157955 116.710118 
L 194.679773 117.72264 
L 196.201591 117.305719 
L 197.723409 117.484399 
L 199.245227 117.543959 
L 200.767045 117.72264 
L 202.288864 117.96088 
L 203.810682 118.02044 
L 205.3325 118.02044 
" style="fill:none;stroke:#1f77b4;stroke-linecap:square;stroke-width:1.5;"/>
   </g>
   <g id="line2d_11">
    <path clip-path="url(#p9e96b63886)" d="M 54.6725 118.02044 
L 56.194318 118.02044 
L 57.716136 118.02044 
L 59.237955 117.90132 
L 60.759773 117.90132 
L 62.281591 117.603519 
L 63.803409 117.7822 
L 65.325227 117.96088 
L 66.847045 117.90132 
L 68.368864 117.305719 
L 69.890682 117.186599 
L 71.4125 117.186599 
L 72.934318 117.246159 
L 74.456136 116.352758 
L 75.977955 116.650558 
L 77.499773 115.638037 
L 79.021591 114.863756 
L 80.543409 114.506396 
L 82.065227 112.957834 
L 83.587045 112.481354 
L 85.108864 109.920271 
L 86.630682 108.729069 
L 88.1525 105.453266 
L 89.674318 108.431269 
L 91.196136 104.798105 
L 92.717955 102.117902 
L 94.239773 100.6289 
L 95.761591 93.362572 
L 97.283409 100.6289 
L 98.805227 92.886091 
L 100.327045 88.776447 
L 101.848864 88.061726 
L 103.370682 85.798443 
L 104.8925 80.438037 
L 106.414318 78.115195 
L 107.936136 75.256311 
L 109.457955 70.074585 
L 110.979773 66.500981 
L 112.501591 63.106058 
L 114.023409 56.73313 
L 115.545227 34.159865 
L 117.067045 71.027547 
L 118.588864 47.44176 
L 120.110682 44.761557 
L 121.6325 46.846159 
L 123.154318 24.213333 
L 124.676136 58.103012 
L 126.197955 35.291506 
L 127.719773 34.159865 
L 129.241591 31.956142 
L 130.763409 12.48 
L 132.285227 53.695567 
L 133.807045 28.382538 
L 135.328864 34.517225 
L 136.850682 34.100305 
L 138.3725 15.636684 
L 139.894318 56.13753 
L 141.416136 36.244467 
L 142.937955 42.200474 
L 144.459773 47.3822 
L 145.981591 30.05022 
L 147.503409 67.573063 
L 149.025227 49.824162 
L 150.547045 57.090491 
L 152.068864 56.73313 
L 153.590682 51.908765 
L 155.1125 79.127716 
L 156.634318 74.958511 
L 158.156136 71.027547 
L 159.677955 76.745313 
L 161.199773 73.290829 
L 162.721591 95.387614 
L 164.243409 88.597766 
L 165.765227 92.290491 
L 167.287045 97.353096 
L 168.808864 91.45665 
L 170.330682 105.036345 
L 171.8525 101.700981 
L 173.374318 104.738545 
L 174.896136 106.108426 
L 176.417955 108.490829 
L 177.939773 107.895228 
L 179.461591 112.898274 
L 180.983409 113.732115 
L 182.505227 113.255635 
L 184.027045 114.625516 
L 185.548864 115.221117 
L 187.070682 116.948359 
L 188.5925 116.471878 
L 190.114318 116.293198 
L 191.636136 117.186599 
L 193.157955 116.710118 
L 194.679773 117.246159 
L 196.201591 117.96088 
L 197.723409 117.66308 
L 199.245227 117.72264 
L 200.767045 117.66308 
L 202.288864 118.08 
L 203.810682 118.02044 
L 205.3325 117.96088 
" style="fill:none;stroke:#ff7f0e;stroke-linecap:square;stroke-width:1.5;"/>
   </g>
   <g id="patch_203">
    <path d="M 46.3025 118.08 
L 46.3025 7.2 
" style="fill:none;stroke:#000000;stroke-linecap:square;stroke-linejoin:miter;stroke-width:1.5;"/>
   </g>
   <g id="patch_204">
    <path d="M 46.3025 118.08 
L 213.7025 118.08 
" style="fill:none;stroke:#000000;stroke-linecap:square;stroke-linejoin:miter;stroke-width:1.5;"/>
   </g>
   <g id="legend_1">
    <g id="line2d_12">
     <path d="M 156.3 17.67875 
L 172.3 17.67875 
" style="fill:none;stroke:#1f77b4;stroke-linecap:square;stroke-width:1.5;"/>
    </g>
    <g id="line2d_13"/>
    <g id="text_12">
     <text style="font-family:DejaVu Sans;font-size:8px;font-stretch:normal;font-style:normal;font-weight:normal;text-anchor:start;" transform="rotate(-0, 178.7, 20.47875)" x="178.7" y="20.47875">11 deg</text>
    </g>
    <g id="line2d_14">
     <path d="M 156.3 29.42125 
L 172.3 29.42125 
" style="fill:none;stroke:#ff7f0e;stroke-linecap:square;stroke-width:1.5;"/>
    </g>
    <g id="line2d_15"/>
    <g id="text_13">
     <text style="font-family:DejaVu Sans;font-size:8px;font-stretch:normal;font-style:normal;font-weight:normal;text-anchor:start;" transform="rotate(-0, 178.7, 32.22125)" x="178.7" y="32.22125">27 deg</text>
    </g>
   </g>
  </g>
 </g>
 <defs>
  <clipPath id="p9e96b63886">
   <rect height="110.88" width="167.4" x="46.3025" y="7.2"/>
  </clipPath>
 </defs>
</svg>
