<?xml version="1.0" encoding="utf-8" standalone="no"?>
<!DOCTYPE svg PUBLIC "-//W3C//DTD SVG 1.1//EN"
  "http://www.w3.org/Graphics/SVG/1.1/DTD/svg11.dtd">
<!-- Created with matplotlib (https://matplotlib.org/) -->
<svg height="73.34pt" version="1.1" viewBox="0 0 419.66 73.34" width="419.66pt" xmlns="http://www.w3.org/2000/svg" xmlns:xlink="http://www.w3.org/1999/xlink">
 <metadata>
  <rdf:RDF xmlns:cc="http://creativecommons.org/ns#" xmlns:dc="http://purl.org/dc/elements/1.1/" xmlns:rdf="http://www.w3.org/1999/02/22-rdf-syntax-ns#">
   <cc:Work>
    <dc:type rdf:resource="http://purl.org/dc/dcmitype/StillImage"/>
    <dc:date>2020-10-27T17:16:32.840343</dc:date>
    <dc:format>image/svg+xml</dc:format>
    <dc:creator>
     <cc:Agent>
      <dc:title>Matplotlib v3.3.2, https://matplotlib.org/</dc:title>
     </cc:Agent>
    </dc:creator>
   </cc:Work>
  </rdf:RDF>
 </metadata>
 <defs>
  <style type="text/css">*{stroke-linecap:butt;stroke-linejoin:round;}</style>
 </defs>
 <g id="figure_1">
  <g id="patch_1">
   <path d="M 0 73.34 
L 419.66 73.34 
L 419.66 0 
L 0 0 
z
" style="fill:none;"/>
  </g>
  <g id="axes_1">
   <g id="patch_2">
    <path d="M 10.7 62.64 
L 53.440426 62.64 
L 53.440426 7.2 
L 10.7 7.2 
z
" style="fill:none;"/>
   </g>
   <g id="matplotlib.axis_1"/>
   <g id="matplotlib.axis_2"/>
   <g id="line2d_1">
    <path clip-path="url(#p96f1cd4abe)" d="M 12.642747 60.12 
L 13.982572 60.12 
L 15.322397 60.12 
L 16.662222 60.12 
L 18.002048 59.45245 
L 19.341873 55.113377 
L 20.681698 55.780927 
L 22.021523 49.77298 
L 23.361349 50.774305 
L 24.701174 42.429934 
L 26.040999 36.088212 
L 27.380824 34.419338 
L 28.72065 34.753113 
L 30.060475 31.415364 
L 31.4003 26.408742 
L 32.740125 35.754437 
L 34.079951 28.745166 
L 35.419776 28.411391 
L 36.759601 26.742517 
L 38.099426 28.077616 
L 39.439252 29.07894 
L 40.779077 22.069669 
L 42.118902 23.738543 
L 43.458727 30.747815 
L 44.798553 26.408742 
L 46.138378 32.082914 
L 47.478203 25.073642 
L 48.818028 18.731921 
L 50.157854 30.080265 
L 51.497679 24.406093 
" style="fill:none;stroke:#1f77b4;stroke-linecap:square;stroke-width:1.5;"/>
   </g>
   <g id="line2d_2">
    <path clip-path="url(#p96f1cd4abe)" d="M 12.642747 60.12 
L 13.982572 60.12 
L 15.322397 60.12 
L 16.662222 59.786225 
L 18.002048 59.786225 
L 19.341873 59.786225 
L 20.681698 58.117351 
L 22.021523 56.114702 
L 23.361349 52.109404 
L 24.701174 51.441854 
L 26.040999 47.436556 
L 27.380824 45.100132 
L 28.72065 41.094834 
L 30.060475 32.082914 
L 31.4003 36.421987 
L 32.740125 26.408742 
L 34.079951 28.411391 
L 35.419776 27.743841 
L 36.759601 24.406093 
L 38.099426 24.739868 
L 39.439252 27.743841 
L 40.779077 30.41404 
L 42.118902 26.742517 
L 43.458727 23.070993 
L 44.798553 24.406093 
L 46.138378 23.404768 
L 47.478203 15.060397 
L 48.818028 9.72 
L 50.157854 20.400795 
L 51.497679 14.392848 
" style="fill:none;stroke:#ff0000;stroke-linecap:square;stroke-width:1.5;"/>
   </g>
   <g id="patch_3">
    <path d="M 10.7 62.64 
L 10.7 7.2 
" style="fill:none;stroke:#000000;stroke-linecap:square;stroke-linejoin:miter;stroke-width:1.5;"/>
   </g>
   <g id="patch_4">
    <path d="M 10.7 62.64 
L 53.440426 62.64 
" style="fill:none;stroke:#000000;stroke-linecap:square;stroke-linejoin:miter;stroke-width:1.5;"/>
   </g>
  </g>
  <g id="axes_2">
   <g id="patch_5">
    <path d="M 61.988511 62.64 
L 104.728936 62.64 
L 104.728936 7.2 
L 61.988511 7.2 
z
" style="fill:none;"/>
   </g>
   <g id="matplotlib.axis_3"/>
   <g id="matplotlib.axis_4"/>
   <g id="line2d_3">
    <path clip-path="url(#pc3ce3ac582)" d="M 63.931257 13.277647 
L 65.271083 14.463529 
L 66.610908 16.242353 
L 67.950733 26.322353 
L 69.290558 13.870588 
L 70.630384 9.72 
L 71.970209 22.171765 
L 73.310034 25.136471 
L 74.649859 20.985882 
L 75.989685 29.287059 
L 77.32951 30.472941 
L 78.669335 39.367059 
L 80.00916 30.472941 
L 81.348986 32.251765 
L 82.688811 32.251765 
L 84.028636 31.065882 
L 85.368461 39.367059 
L 86.708287 48.261176 
L 88.048112 36.995294 
L 89.387937 47.075294 
L 90.727762 43.517647 
L 92.067588 48.854118 
L 93.407413 46.482353 
L 94.747238 44.703529 
L 96.087063 41.738824 
L 97.426889 40.552941 
L 98.766714 51.225882 
L 100.106539 48.261176 
L 101.446364 51.225882 
L 102.78619 54.190588 
" style="fill:none;stroke:#1f77b4;stroke-linecap:square;stroke-width:1.5;"/>
   </g>
   <g id="line2d_4">
    <path clip-path="url(#pc3ce3ac582)" d="M 63.931257 22.171765 
L 65.271083 16.242353 
L 66.610908 19.8 
L 67.950733 12.091765 
L 69.290558 21.578824 
L 70.630384 10.312941 
L 71.970209 22.764706 
L 73.310034 27.508235 
L 74.649859 21.578824 
L 75.989685 29.88 
L 77.32951 25.729412 
L 78.669335 22.171765 
L 80.00916 28.101176 
L 81.348986 22.764706 
L 82.688811 39.367059 
L 84.028636 34.623529 
L 85.368461 33.437647 
L 86.708287 39.96 
L 88.048112 43.517647 
L 89.387937 48.854118 
L 90.727762 48.261176 
L 92.067588 48.854118 
L 93.407413 45.889412 
L 94.747238 46.482353 
L 96.087063 46.482353 
L 97.426889 49.447059 
L 98.766714 43.517647 
L 100.106539 48.854118 
L 101.446364 47.668235 
L 102.78619 60.12 
" style="fill:none;stroke:#ff0000;stroke-linecap:square;stroke-width:1.5;"/>
   </g>
   <g id="patch_6">
    <path d="M 61.988511 62.64 
L 61.988511 7.2 
" style="fill:none;stroke:#000000;stroke-linecap:square;stroke-linejoin:miter;stroke-width:1.5;"/>
   </g>
   <g id="patch_7">
    <path d="M 61.988511 62.64 
L 104.728936 62.64 
" style="fill:none;stroke:#000000;stroke-linecap:square;stroke-linejoin:miter;stroke-width:1.5;"/>
   </g>
  </g>
  <g id="axes_3">
   <g id="patch_8">
    <path d="M 113.277021 62.64 
L 156.017447 62.64 
L 156.017447 7.2 
L 113.277021 7.2 
z
" style="fill:none;"/>
   </g>
   <g id="matplotlib.axis_5"/>
   <g id="matplotlib.axis_6"/>
   <g id="line2d_5">
    <path clip-path="url(#p9c1bbfe8ac)" d="M 115.219768 53.016644 
L 116.559593 48.957584 
L 117.899418 38.471678 
L 119.239244 31.368322 
L 120.579069 20.205906 
L 121.918894 25.617987 
L 123.258719 22.573691 
L 124.598545 15.470336 
L 125.93837 16.485101 
L 127.278195 9.72 
L 128.61802 14.117315 
L 129.957846 13.77906 
L 131.297671 10.734765 
L 132.637496 21.558926 
L 133.977321 30.015302 
L 135.317147 24.941477 
L 136.656972 34.750872 
L 137.996797 30.353557 
L 139.336622 44.898523 
L 140.676448 44.898523 
L 142.016273 46.589799 
L 143.356098 52.001879 
L 144.695923 55.722685 
L 146.035749 56.06094 
L 147.375574 58.428725 
L 148.715399 57.752215 
L 150.055224 58.428725 
L 151.39505 60.12 
L 152.734875 60.12 
L 154.0747 60.12 
" style="fill:none;stroke:#1f77b4;stroke-linecap:square;stroke-width:1.5;"/>
   </g>
   <g id="line2d_6">
    <path clip-path="url(#p9c1bbfe8ac)" d="M 115.219768 54.707919 
L 116.559593 47.942819 
L 117.899418 38.133423 
L 119.239244 31.368322 
L 120.579069 26.632752 
L 121.918894 19.867651 
L 123.258719 18.514631 
L 124.598545 17.838121 
L 125.93837 18.176376 
L 127.278195 10.734765 
L 128.61802 20.544161 
L 129.957846 11.74953 
L 131.297671 11.411275 
L 132.637496 23.926711 
L 133.977321 23.926711 
L 135.317147 31.030067 
L 136.656972 29.677047 
L 137.996797 36.103893 
L 139.336622 42.868993 
L 140.676448 44.222013 
L 142.016273 47.604564 
L 143.356098 52.678389 
L 144.695923 51.663624 
L 146.035749 53.016644 
L 147.375574 57.41396 
L 148.715399 57.41396 
L 150.055224 59.105235 
L 151.39505 59.781745 
L 152.734875 59.44349 
L 154.0747 59.781745 
" style="fill:none;stroke:#ff0000;stroke-linecap:square;stroke-width:1.5;"/>
   </g>
   <g id="patch_9">
    <path d="M 113.277021 62.64 
L 113.277021 7.2 
" style="fill:none;stroke:#000000;stroke-linecap:square;stroke-linejoin:miter;stroke-width:1.5;"/>
   </g>
   <g id="patch_10">
    <path d="M 113.277021 62.64 
L 156.017447 62.64 
" style="fill:none;stroke:#000000;stroke-linecap:square;stroke-linejoin:miter;stroke-width:1.5;"/>
   </g>
  </g>
  <g id="axes_4">
   <g id="patch_11">
    <path d="M 164.565532 62.64 
L 207.305957 62.64 
L 207.305957 7.2 
L 164.565532 7.2 
z
" style="fill:none;"/>
   </g>
   <g id="matplotlib.axis_7"/>
   <g id="matplotlib.axis_8"/>
   <g id="line2d_7">
    <path clip-path="url(#p0be813c5a8)" d="M 166.508279 48.6 
L 167.848104 45 
L 169.187929 49.32 
L 170.527754 45.72 
L 171.86758 42.84 
L 173.207405 40.68 
L 174.54723 31.32 
L 175.887055 34.2 
L 177.226881 36.36 
L 178.566706 37.8 
L 179.906531 29.16 
L 181.246356 21.24 
L 182.586182 53.64 
L 183.926007 33.48 
L 185.265832 23.4 
L 186.605657 24.84 
L 187.945483 32.76 
L 189.285308 34.92 
L 190.625133 38.52 
L 191.964958 36.36 
L 193.304784 26.28 
L 194.644609 19.08 
L 195.984434 21.96 
L 197.324259 32.04 
L 198.664085 20.52 
L 200.00391 33.48 
L 201.343735 32.76 
L 202.68356 29.88 
L 204.023386 39.96 
L 205.363211 16.92 
" style="fill:none;stroke:#1f77b4;stroke-linecap:square;stroke-width:1.5;"/>
   </g>
   <g id="line2d_8">
    <path clip-path="url(#p0be813c5a8)" d="M 166.508279 50.76 
L 167.848104 60.12 
L 169.187929 47.16 
L 170.527754 42.84 
L 171.86758 38.52 
L 173.207405 35.64 
L 174.54723 43.56 
L 175.887055 39.96 
L 177.226881 37.08 
L 178.566706 38.52 
L 179.906531 34.92 
L 181.246356 30.6 
L 182.586182 41.4 
L 183.926007 26.28 
L 185.265832 23.4 
L 186.605657 27 
L 187.945483 32.04 
L 189.285308 39.96 
L 190.625133 37.08 
L 191.964958 30.6 
L 193.304784 27 
L 194.644609 27.72 
L 195.984434 27.72 
L 197.324259 22.68 
L 198.664085 38.52 
L 200.00391 21.96 
L 201.343735 28.44 
L 202.68356 27.72 
L 204.023386 23.4 
L 205.363211 9.72 
" style="fill:none;stroke:#ff0000;stroke-linecap:square;stroke-width:1.5;"/>
   </g>
   <g id="patch_12">
    <path d="M 164.565532 62.64 
L 164.565532 7.2 
" style="fill:none;stroke:#000000;stroke-linecap:square;stroke-linejoin:miter;stroke-width:1.5;"/>
   </g>
   <g id="patch_13">
    <path d="M 164.565532 62.64 
L 207.305957 62.64 
" style="fill:none;stroke:#000000;stroke-linecap:square;stroke-linejoin:miter;stroke-width:1.5;"/>
   </g>
  </g>
  <g id="axes_5">
   <g id="patch_14">
    <path d="M 215.854043 62.64 
L 258.594468 62.64 
L 258.594468 7.2 
L 215.854043 7.2 
z
" style="fill:none;"/>
   </g>
   <g id="matplotlib.axis_9"/>
   <g id="matplotlib.axis_10"/>
   <g id="line2d_9">
    <path clip-path="url(#pf37f4b7fa4)" d="M 217.796789 55.758462 
L 219.136614 56.727692 
L 220.47644 59.635385 
L 221.816265 56.727692 
L 223.15609 56.727692 
L 224.495915 56.243077 
L 225.835741 47.52 
L 227.175566 54.304615 
L 228.515391 52.366154 
L 229.855216 45.096923 
L 231.195042 48.004615 
L 232.534867 45.096923 
L 233.874692 42.673846 
L 235.214517 38.796923 
L 236.554343 32.496923 
L 237.894168 29.104615 
L 239.233993 39.281538 
L 240.573818 24.258462 
L 241.913644 20.866154 
L 243.253469 21.350769 
L 244.593294 25.712308 
L 245.933119 32.496923 
L 247.272945 29.589231 
L 248.61277 21.835385 
L 249.952595 18.443077 
L 251.29242 19.896923 
L 252.632246 24.258462 
L 253.972071 19.412308 
L 255.311896 29.104615 
L 256.651721 22.32 
" style="fill:none;stroke:#1f77b4;stroke-linecap:square;stroke-width:1.5;"/>
   </g>
   <g id="line2d_10">
    <path clip-path="url(#pf37f4b7fa4)" d="M 217.796789 60.12 
L 219.136614 47.52 
L 220.47644 60.12 
L 221.816265 57.696923 
L 223.15609 55.758462 
L 224.495915 49.943077 
L 225.835741 48.004615 
L 227.175566 48.973846 
L 228.515391 48.973846 
L 229.855216 44.127692 
L 231.195042 43.643077 
L 232.534867 52.366154 
L 233.874692 40.250769 
L 235.214517 40.250769 
L 236.554343 45.581538 
L 237.894168 38.796923 
L 239.233993 28.62 
L 240.573818 35.404615 
L 241.913644 21.350769 
L 243.253469 25.712308 
L 244.593294 30.558462 
L 245.933119 32.981538 
L 247.272945 23.289231 
L 248.61277 26.681538 
L 249.952595 22.804615 
L 251.29242 24.258462 
L 252.632246 19.896923 
L 253.972071 20.866154 
L 255.311896 9.72 
L 256.651721 21.350769 
" style="fill:none;stroke:#ff0000;stroke-linecap:square;stroke-width:1.5;"/>
   </g>
   <g id="patch_15">
    <path d="M 215.854043 62.64 
L 215.854043 7.2 
" style="fill:none;stroke:#000000;stroke-linecap:square;stroke-linejoin:miter;stroke-width:1.5;"/>
   </g>
   <g id="patch_16">
    <path d="M 215.854043 62.64 
L 258.594468 62.64 
" style="fill:none;stroke:#000000;stroke-linecap:square;stroke-linejoin:miter;stroke-width:1.5;"/>
   </g>
  </g>
  <g id="axes_6">
   <g id="patch_17">
    <path d="M 267.142553 62.64 
L 309.882979 62.64 
L 309.882979 7.2 
L 267.142553 7.2 
z
" style="fill:none;"/>
   </g>
   <g id="matplotlib.axis_11"/>
   <g id="matplotlib.axis_12"/>
   <g id="line2d_11">
    <path clip-path="url(#p4dacfd784b)" d="M 269.0853 60.12 
L 270.425125 60.12 
L 271.76495 60.12 
L 273.104776 59.72625 
L 274.444601 58.93875 
L 275.784426 54.21375 
L 277.124251 53.82 
L 278.464077 46.33875 
L 279.803902 43.5825 
L 281.143727 38.07 
L 282.483552 38.46375 
L 283.823378 24.6825 
L 285.163203 27.43875 
L 286.503028 28.22625 
L 287.842853 30.195 
L 289.182679 27.8325 
L 290.522504 31.77 
L 291.862329 20.745 
L 293.202154 18.77625 
L 294.54198 28.62 
L 295.881805 21.92625 
L 297.22163 16.02 
L 298.561455 20.35125 
L 299.901281 23.50125 
L 301.241106 21.13875 
L 302.580931 27.8325 
L 303.920756 14.83875 
L 305.260582 13.6575 
L 306.600407 13.26375 
L 307.940232 21.13875 
" style="fill:none;stroke:#1f77b4;stroke-linecap:square;stroke-width:1.5;"/>
   </g>
   <g id="line2d_12">
    <path clip-path="url(#p4dacfd784b)" d="M 269.0853 60.12 
L 270.425125 60.12 
L 271.76495 59.3325 
L 273.104776 58.93875 
L 274.444601 57.36375 
L 275.784426 55.00125 
L 277.124251 53.0325 
L 278.464077 50.27625 
L 279.803902 40.82625 
L 281.143727 45.1575 
L 282.483552 40.03875 
L 283.823378 38.8575 
L 285.163203 23.1075 
L 286.503028 25.47 
L 287.842853 29.01375 
L 289.182679 22.32 
L 290.522504 25.86375 
L 291.862329 20.745 
L 293.202154 19.9575 
L 294.54198 16.02 
L 295.881805 9.72 
L 297.22163 19.56375 
L 298.561455 25.47 
L 299.901281 25.86375 
L 301.241106 26.65125 
L 302.580931 16.8075 
L 303.920756 17.595 
L 305.260582 16.41375 
L 306.600407 21.5325 
L 307.940232 23.895 
" style="fill:none;stroke:#ff0000;stroke-linecap:square;stroke-width:1.5;"/>
   </g>
   <g id="patch_18">
    <path d="M 267.142553 62.64 
L 267.142553 7.2 
" style="fill:none;stroke:#000000;stroke-linecap:square;stroke-linejoin:miter;stroke-width:1.5;"/>
   </g>
   <g id="patch_19">
    <path d="M 267.142553 62.64 
L 309.882979 62.64 
" style="fill:none;stroke:#000000;stroke-linecap:square;stroke-linejoin:miter;stroke-width:1.5;"/>
   </g>
  </g>
  <g id="axes_7">
   <g id="patch_20">
    <path d="M 318.431064 62.64 
L 361.171489 62.64 
L 361.171489 7.2 
L 318.431064 7.2 
z
" style="fill:none;"/>
   </g>
   <g id="matplotlib.axis_13"/>
   <g id="matplotlib.axis_14"/>
   <g id="line2d_13">
    <path clip-path="url(#p421c5c43f5)" d="M 320.37381 51.645664 
L 321.713636 51.645664 
L 323.053461 60.12 
L 324.393286 52.983717 
L 325.733111 50.753628 
L 327.072937 50.753628 
L 328.412762 45.847434 
L 329.752587 48.52354 
L 331.092412 44.955398 
L 332.432238 48.52354 
L 333.772063 44.063363 
L 335.111888 52.091681 
L 336.451713 46.739469 
L 337.791539 40.495221 
L 339.131364 47.631504 
L 340.471189 39.603186 
L 341.811014 41.387257 
L 343.15084 36.481062 
L 344.490665 45.401416 
L 345.83049 41.833274 
L 347.170315 42.72531 
L 348.510141 41.387257 
L 349.849966 39.603186 
L 351.189791 42.72531 
L 352.529616 33.358938 
L 353.869442 36.481062 
L 355.209267 29.344779 
L 356.549092 29.790796 
L 357.888917 28.452743 
L 359.228743 9.72 
" style="fill:none;stroke:#1f77b4;stroke-linecap:square;stroke-width:1.5;"/>
   </g>
   <g id="line2d_14">
    <path clip-path="url(#p421c5c43f5)" d="M 320.37381 54.767788 
L 321.713636 55.213805 
L 323.053461 53.429735 
L 324.393286 46.293451 
L 325.733111 51.645664 
L 327.072937 47.631504 
L 328.412762 46.293451 
L 329.752587 44.509381 
L 331.092412 46.739469 
L 332.432238 48.52354 
L 333.772063 52.537699 
L 335.111888 56.105841 
L 336.451713 46.293451 
L 337.791539 44.063363 
L 339.131364 48.969558 
L 340.471189 40.049204 
L 341.811014 38.265133 
L 343.15084 37.819115 
L 344.490665 44.509381 
L 345.83049 40.941239 
L 347.170315 43.617345 
L 348.510141 33.804956 
L 349.849966 37.373097 
L 351.189791 32.020885 
L 352.529616 29.790796 
L 353.869442 35.589027 
L 355.209267 31.574867 
L 356.549092 29.344779 
L 357.888917 35.589027 
L 359.228743 20.870442 
" style="fill:none;stroke:#ff0000;stroke-linecap:square;stroke-width:1.5;"/>
   </g>
   <g id="patch_21">
    <path d="M 318.431064 62.64 
L 318.431064 7.2 
" style="fill:none;stroke:#000000;stroke-linecap:square;stroke-linejoin:miter;stroke-width:1.5;"/>
   </g>
   <g id="patch_22">
    <path d="M 318.431064 62.64 
L 361.171489 62.64 
" style="fill:none;stroke:#000000;stroke-linecap:square;stroke-linejoin:miter;stroke-width:1.5;"/>
   </g>
  </g>
  <g id="axes_8">
   <g id="patch_23">
    <path d="M 369.719574 62.64 
L 412.46 62.64 
L 412.46 7.2 
L 369.719574 7.2 
z
" style="fill:none;"/>
   </g>
   <g id="matplotlib.axis_15"/>
   <g id="matplotlib.axis_16"/>
   <g id="line2d_15">
    <path clip-path="url(#p295f0feee1)" d="M 371.662321 60.12 
L 373.002146 60.12 
L 374.341972 57.928696 
L 375.681797 53.546087 
L 377.021622 43.685217 
L 378.361447 37.111304 
L 379.701273 39.302609 
L 381.041098 55.737391 
L 382.380923 34.92 
L 383.720748 32.728696 
L 385.060574 22.867826 
L 386.400399 42.589565 
L 387.740224 22.867826 
L 389.080049 30.537391 
L 390.419875 32.728696 
L 391.7597 9.72 
L 393.099525 23.963478 
L 394.43935 43.685217 
L 395.779176 42.589565 
L 397.119001 32.728696 
L 398.458826 36.015652 
L 399.798651 42.589565 
L 401.138477 38.206957 
L 402.478302 44.78087 
L 403.818127 32.728696 
L 405.157952 22.867826 
L 406.497778 42.589565 
L 407.837603 49.163478 
L 409.177428 29.441739 
L 410.517253 41.493913 
" style="fill:none;stroke:#1f77b4;stroke-linecap:square;stroke-width:1.5;"/>
   </g>
   <g id="line2d_16">
    <path clip-path="url(#p295f0feee1)" d="M 371.662321 17.389565 
L 373.002146 54.641739 
L 374.341972 42.589565 
L 375.681797 40.398261 
L 377.021622 51.354783 
L 378.361447 39.302609 
L 379.701273 50.25913 
L 381.041098 37.111304 
L 382.380923 39.302609 
L 383.720748 14.102609 
L 385.060574 17.389565 
L 386.400399 40.398261 
L 387.740224 23.963478 
L 389.080049 44.78087 
L 390.419875 17.389565 
L 391.7597 34.92 
L 393.099525 34.92 
L 394.43935 42.589565 
L 395.779176 41.493913 
L 397.119001 38.206957 
L 398.458826 39.302609 
L 399.798651 27.250435 
L 401.138477 43.685217 
L 402.478302 42.589565 
L 403.818127 55.737391 
L 405.157952 27.250435 
L 406.497778 51.354783 
L 407.837603 51.354783 
L 409.177428 59.024348 
L 410.517253 39.302609 
" style="fill:none;stroke:#ff0000;stroke-linecap:square;stroke-width:1.5;"/>
   </g>
   <g id="patch_24">
    <path d="M 369.719574 62.64 
L 369.719574 7.2 
" style="fill:none;stroke:#000000;stroke-linecap:square;stroke-linejoin:miter;stroke-width:1.5;"/>
   </g>
   <g id="patch_25">
    <path d="M 369.719574 62.64 
L 412.46 62.64 
" style="fill:none;stroke:#000000;stroke-linecap:square;stroke-linejoin:miter;stroke-width:1.5;"/>
   </g>
  </g>
 </g>
 <defs>
  <clipPath id="p96f1cd4abe">
   <rect height="55.44" width="42.740426" x="10.7" y="7.2"/>
  </clipPath>
  <clipPath id="pc3ce3ac582">
   <rect height="55.44" width="42.740426" x="61.988511" y="7.2"/>
  </clipPath>
  <clipPath id="p9c1bbfe8ac">
   <rect height="55.44" width="42.740426" x="113.277021" y="7.2"/>
  </clipPath>
  <clipPath id="p0be813c5a8">
   <rect height="55.44" width="42.740426" x="164.565532" y="7.2"/>
  </clipPath>
  <clipPath id="pf37f4b7fa4">
   <rect height="55.44" width="42.740426" x="215.854043" y="7.2"/>
  </clipPath>
  <clipPath id="p4dacfd784b">
   <rect height="55.44" width="42.740426" x="267.142553" y="7.2"/>
  </clipPath>
  <clipPath id="p421c5c43f5">
   <rect height="55.44" width="42.740426" x="318.431064" y="7.2"/>
  </clipPath>
  <clipPath id="p295f0feee1">
   <rect height="55.44" width="42.740426" x="369.719574" y="7.2"/>
  </clipPath>
 </defs>
</svg>
