<?xml version="1.0" encoding="utf-8" standalone="no"?>
<!DOCTYPE svg PUBLIC "-//W3C//DTD SVG 1.1//EN"
  "http://www.w3.org/Graphics/SVG/1.1/DTD/svg11.dtd">
<!-- Created with matplotlib (https://matplotlib.org/) -->
<svg height="88.276375pt" version="1.1" viewBox="0 0 193.093691 88.276375" width="193.093691pt" xmlns="http://www.w3.org/2000/svg" xmlns:xlink="http://www.w3.org/1999/xlink">
 <metadata>
  <rdf:RDF xmlns:cc="http://creativecommons.org/ns#" xmlns:dc="http://purl.org/dc/elements/1.1/" xmlns:rdf="http://www.w3.org/1999/02/22-rdf-syntax-ns#">
   <cc:Work>
    <dc:type rdf:resource="http://purl.org/dc/dcmitype/StillImage"/>
    <dc:date>2021-01-26T17:42:02.043311</dc:date>
    <dc:format>image/svg+xml</dc:format>
    <dc:creator>
     <cc:Agent>
      <dc:title>Matplotlib v3.3.2, https://matplotlib.org/</dc:title>
     </cc:Agent>
    </dc:creator>
   </cc:Work>
  </rdf:RDF>
 </metadata>
 <defs>
  <style type="text/css">*{stroke-linecap:butt;stroke-linejoin:round;}</style>
 </defs>
 <g id="figure_1">
  <g id="patch_1">
   <path d="M 0 88.276375 
L 193.093691 88.276375 
L 193.093691 0 
L 0 0 
z
" style="fill:none;"/>
  </g>
  <g id="axes_1">
   <g id="patch_2">
    <path d="M 39.99075 54.591375 
L 185.07075 54.591375 
L 185.07075 10.239375 
L 39.99075 10.239375 
z
" style="fill:none;"/>
   </g>
   <g id="matplotlib.axis_1">
    <g id="xtick_1">
     <g id="line2d_1">
      <defs>
       <path d="M 0 0 
L 0 3.5 
" id="m1c9e53992c" style="stroke:#000000;stroke-width:1.5;"/>
      </defs>
      <g>
       <use style="stroke:#000000;stroke-width:1.5;" x="44.257809" xlink:href="#m1c9e53992c" y="54.591375"/>
      </g>
     </g>
     <g id="text_1">
      <text style="font-family:DejaVu Sans;font-size:8px;font-stretch:normal;font-style:normal;font-weight:normal;text-anchor:middle;" transform="rotate(-0, 44.257809, 67.670125)" x="44.257809" y="67.670125">11</text>
     </g>
    </g>
    <g id="xtick_2">
     <g id="line2d_2">
      <g>
       <use style="stroke:#000000;stroke-width:1.5;" x="78.394279" xlink:href="#m1c9e53992c" y="54.591375"/>
      </g>
     </g>
     <g id="text_2">
      <text style="font-family:DejaVu Sans;font-size:8px;font-stretch:normal;font-style:normal;font-weight:normal;text-anchor:middle;" transform="rotate(-0, 78.394279, 67.670125)" x="78.394279" y="67.670125">15</text>
     </g>
    </g>
    <g id="xtick_3">
     <g id="line2d_3">
      <g>
       <use style="stroke:#000000;stroke-width:1.5;" x="112.53075" xlink:href="#m1c9e53992c" y="54.591375"/>
      </g>
     </g>
     <g id="text_3">
      <text style="font-family:DejaVu Sans;font-size:8px;font-stretch:normal;font-style:normal;font-weight:normal;text-anchor:middle;" transform="rotate(-0, 112.53075, 67.670125)" x="112.53075" y="67.670125">19</text>
     </g>
    </g>
    <g id="xtick_4">
     <g id="line2d_4">
      <g>
       <use style="stroke:#000000;stroke-width:1.5;" x="146.667221" xlink:href="#m1c9e53992c" y="54.591375"/>
      </g>
     </g>
     <g id="text_4">
      <text style="font-family:DejaVu Sans;font-size:8px;font-stretch:normal;font-style:normal;font-weight:normal;text-anchor:middle;" transform="rotate(-0, 146.667221, 67.670125)" x="146.667221" y="67.670125">23</text>
     </g>
    </g>
    <g id="xtick_5">
     <g id="line2d_5">
      <g>
       <use style="stroke:#000000;stroke-width:1.5;" x="180.803691" xlink:href="#m1c9e53992c" y="54.591375"/>
      </g>
     </g>
     <g id="text_5">
      <text style="font-family:DejaVu Sans;font-size:8px;font-stretch:normal;font-style:normal;font-weight:normal;text-anchor:middle;" transform="rotate(-0, 180.803691, 67.670125)" x="180.803691" y="67.670125">27</text>
     </g>
    </g>
    <g id="text_6">
     <text style="font-family:DejaVu Sans;font-size:8px;font-stretch:normal;font-style:normal;font-weight:normal;text-anchor:middle;" transform="rotate(-0, 112.53075, 79.412625)" x="112.53075" y="79.412625">Temperature (°C)</text>
    </g>
   </g>
   <g id="matplotlib.axis_2">
    <g id="ytick_1">
     <g id="line2d_6">
      <defs>
       <path d="M 0 0 
L -3.5 0 
" id="me4bdee54d7" style="stroke:#000000;stroke-width:1.5;"/>
      </defs>
      <g>
       <use style="stroke:#000000;stroke-width:1.5;" x="39.99075" xlink:href="#me4bdee54d7" y="48.806332"/>
      </g>
     </g>
     <g id="text_7">
      <text style="font-family:DejaVu Sans;font-size:8px;font-stretch:normal;font-style:normal;font-weight:normal;text-anchor:end;" transform="rotate(-0, 32.99075, 51.845707)" x="32.99075" y="51.845707">1</text>
     </g>
    </g>
    <g id="ytick_2">
     <g id="line2d_7">
      <g>
       <use style="stroke:#000000;stroke-width:1.5;" x="39.99075" xlink:href="#me4bdee54d7" y="29.522853"/>
      </g>
     </g>
     <g id="text_8">
      <text style="font-family:DejaVu Sans;font-size:8px;font-stretch:normal;font-style:normal;font-weight:normal;text-anchor:end;" transform="rotate(-0, 32.99075, 32.562228)" x="32.99075" y="32.562228">2</text>
     </g>
    </g>
    <g id="ytick_3">
     <g id="line2d_8">
      <g>
       <use style="stroke:#000000;stroke-width:1.5;" x="39.99075" xlink:href="#me4bdee54d7" y="10.239375"/>
      </g>
     </g>
     <g id="text_9">
      <text style="font-family:DejaVu Sans;font-size:8px;font-stretch:normal;font-style:normal;font-weight:normal;text-anchor:end;" transform="rotate(-0, 32.99075, 13.27875)" x="32.99075" y="13.27875">3</text>
     </g>
    </g>
    <g id="text_10">
     <text style="font-family:DejaVu Sans;font-size:8px;font-stretch:normal;font-style:normal;font-weight:normal;" transform="translate(13.27875 53.8535)rotate(-90)">Cycle freq.</text>
     <text style="font-family:DejaVu Sans;font-size:8px;font-stretch:normal;font-style:normal;font-weight:normal;" transform="translate(22.237 40.644125)rotate(-90)">(Hz)</text>
    </g>
   </g>
   <g id="line2d_9">
    <path clip-path="url(#p4730fb1a36)" d="M 44.257809 51.225054 
L 52.791926 50.920611 
L 61.326044 49.704992 
L 69.860162 47.887638 
L 78.394279 46.9721 
L 86.928397 45.337584 
L 95.462515 43.607658 
L 103.996632 43.316784 
L 112.53075 40.934468 
L 121.064868 39.502484 
L 129.598985 37.600249 
L 138.133103 35.633469 
L 146.667221 34.128857 
L 155.201338 31.483526 
L 163.735456 29.27795 
L 172.269574 27.689698 
L 180.803691 25.318539 
" style="fill:none;stroke:#000000;stroke-linecap:square;stroke-width:1.5;"/>
   </g>
   <g id="patch_3">
    <path d="M 39.99075 54.591375 
L 39.99075 10.239375 
" style="fill:none;stroke:#000000;stroke-linecap:square;stroke-linejoin:miter;stroke-width:1.5;"/>
   </g>
   <g id="patch_4">
    <path d="M 39.99075 54.591375 
L 185.07075 54.591375 
" style="fill:none;stroke:#000000;stroke-linecap:square;stroke-linejoin:miter;stroke-width:1.5;"/>
   </g>
   <g id="PathCollection_1">
    <defs>
     <path d="M 0 1.581139 
C 0.419323 1.581139 0.821528 1.41454 1.118034 1.118034 
C 1.41454 0.821528 1.581139 0.419323 1.581139 0 
C 1.581139 -0.419323 1.41454 -0.821528 1.118034 -1.118034 
C 0.821528 -1.41454 0.419323 -1.581139 0 -1.581139 
C -0.419323 -1.581139 -0.821528 -1.41454 -1.118034 -1.118034 
C -1.41454 -0.821528 -1.581139 -0.419323 -1.581139 0 
C -1.581139 0.419323 -1.41454 0.821528 -1.118034 1.118034 
C -0.821528 1.41454 -0.419323 1.581139 0 1.581139 
z
" id="m43c022bc3a" style="stroke:#000000;"/>
    </defs>
    <g clip-path="url(#p4730fb1a36)">
     <use style="stroke:#000000;" x="44.257809" xlink:href="#m43c022bc3a" y="51.225054"/>
     <use style="stroke:#000000;" x="52.791926" xlink:href="#m43c022bc3a" y="50.920611"/>
     <use style="stroke:#000000;" x="61.326044" xlink:href="#m43c022bc3a" y="49.704992"/>
     <use style="stroke:#000000;" x="69.860162" xlink:href="#m43c022bc3a" y="47.887638"/>
     <use style="stroke:#000000;" x="78.394279" xlink:href="#m43c022bc3a" y="46.9721"/>
     <use style="stroke:#000000;" x="86.928397" xlink:href="#m43c022bc3a" y="45.337584"/>
     <use style="stroke:#000000;" x="95.462515" xlink:href="#m43c022bc3a" y="43.607658"/>
     <use style="stroke:#000000;" x="103.996632" xlink:href="#m43c022bc3a" y="43.316784"/>
     <use style="stroke:#000000;" x="112.53075" xlink:href="#m43c022bc3a" y="40.934468"/>
     <use style="stroke:#000000;" x="121.064868" xlink:href="#m43c022bc3a" y="39.502484"/>
     <use style="stroke:#000000;" x="129.598985" xlink:href="#m43c022bc3a" y="37.600249"/>
     <use style="stroke:#000000;" x="138.133103" xlink:href="#m43c022bc3a" y="35.633469"/>
     <use style="stroke:#000000;" x="146.667221" xlink:href="#m43c022bc3a" y="34.128857"/>
     <use style="stroke:#000000;" x="155.201338" xlink:href="#m43c022bc3a" y="31.483526"/>
     <use style="stroke:#000000;" x="163.735456" xlink:href="#m43c022bc3a" y="29.27795"/>
     <use style="stroke:#000000;" x="172.269574" xlink:href="#m43c022bc3a" y="27.689698"/>
     <use style="stroke:#000000;" x="180.803691" xlink:href="#m43c022bc3a" y="25.318539"/>
    </g>
   </g>
   <g id="PathCollection_2">
    <defs>
     <path d="M 0 2.738613 
C 0.726289 2.738613 1.422928 2.450055 1.936492 1.936492 
C 2.450055 1.422928 2.738613 0.726289 2.738613 0 
C 2.738613 -0.726289 2.450055 -1.422928 1.936492 -1.936492 
C 1.422928 -2.450055 0.726289 -2.738613 0 -2.738613 
C -0.726289 -2.738613 -1.422928 -2.450055 -1.936492 -1.936492 
C -2.450055 -1.422928 -2.738613 -0.726289 -2.738613 0 
C -2.738613 0.726289 -2.450055 1.422928 -1.936492 1.936492 
C -1.422928 2.450055 -0.726289 2.738613 0 2.738613 
z
" id="m7bc1aa7898" style="stroke:#008000;"/>
    </defs>
    <g clip-path="url(#p4730fb1a36)">
     <use style="fill:#008000;stroke:#008000;" x="44.257809" xlink:href="#m7bc1aa7898" y="51.62029"/>
    </g>
   </g>
   <g id="PathCollection_3">
    <g clip-path="url(#p4730fb1a36)">
     <use style="fill:#008000;stroke:#008000;" x="180.803691" xlink:href="#m7bc1aa7898" y="25.902653"/>
    </g>
   </g>
  </g>
 </g>
 <defs>
  <clipPath id="p4730fb1a36">
   <rect height="44.352" width="145.08" x="39.99075" y="10.239375"/>
  </clipPath>
 </defs>
</svg>
