<?xml version="1.0" encoding="utf-8" standalone="no"?>
<!DOCTYPE svg PUBLIC "-//W3C//DTD SVG 1.1//EN"
  "http://www.w3.org/Graphics/SVG/1.1/DTD/svg11.dtd">
<!-- Created with matplotlib (https://matplotlib.org/) -->
<svg height="98.709875pt" version="1.1" viewBox="0 0 229.91875 98.709875" width="229.91875pt" xmlns="http://www.w3.org/2000/svg" xmlns:xlink="http://www.w3.org/1999/xlink">
 <metadata>
  <rdf:RDF xmlns:cc="http://creativecommons.org/ns#" xmlns:dc="http://purl.org/dc/elements/1.1/" xmlns:rdf="http://www.w3.org/1999/02/22-rdf-syntax-ns#">
   <cc:Work>
    <dc:type rdf:resource="http://purl.org/dc/dcmitype/StillImage"/>
    <dc:date>2021-01-07T11:40:17.875659</dc:date>
    <dc:format>image/svg+xml</dc:format>
    <dc:creator>
     <cc:Agent>
      <dc:title>Matplotlib v3.3.2, https://matplotlib.org/</dc:title>
     </cc:Agent>
    </dc:creator>
   </cc:Work>
  </rdf:RDF>
 </metadata>
 <defs>
  <style type="text/css">*{stroke-linecap:butt;stroke-linejoin:round;}</style>
 </defs>
 <g id="figure_1">
  <g id="patch_1">
   <path d="M 0 98.709875 
L 229.91875 98.709875 
L 229.91875 -0 
L 0 -0 
z
" style="fill:none;"/>
  </g>
  <g id="axes_1">
   <g id="patch_2">
    <path d="M 45.36875 76.767375 
L 184.86875 76.767375 
L 184.86875 10.239375 
L 45.36875 10.239375 
z
" style="fill:none;"/>
   </g>
   <g id="patch_3">
    <path clip-path="url(#p40381fbab4)" d="M 47.984375 43.503375 
L 50.774375 43.503375 
L 50.774375 39.118428 
L 47.984375 39.118428 
z
" style="fill:#3182bd;"/>
   </g>
   <g id="patch_4">
    <path clip-path="url(#p40381fbab4)" d="M 65.421875 43.503375 
L 68.211875 43.503375 
L 68.211875 35.493446 
L 65.421875 35.493446 
z
" style="fill:#3182bd;"/>
   </g>
   <g id="patch_5">
    <path clip-path="url(#p40381fbab4)" d="M 82.859375 43.503375 
L 85.649375 43.503375 
L 85.649375 32.813503 
L 82.859375 32.813503 
z
" style="fill:#3182bd;"/>
   </g>
   <g id="patch_6">
    <path clip-path="url(#p40381fbab4)" d="M 100.296875 43.503375 
L 103.086875 43.503375 
L 103.086875 48.428604 
L 100.296875 48.428604 
z
" style="fill:#3182bd;"/>
   </g>
   <g id="patch_7">
    <path clip-path="url(#p40381fbab4)" d="M 117.734375 43.503375 
L 120.524375 43.503375 
L 120.524375 44.068241 
L 117.734375 44.068241 
z
" style="fill:#3182bd;"/>
   </g>
   <g id="patch_8">
    <path clip-path="url(#p40381fbab4)" d="M 135.171875 43.503375 
L 137.961875 43.503375 
L 137.961875 46.143837 
L 135.171875 46.143837 
z
" style="fill:#3182bd;"/>
   </g>
   <g id="patch_9">
    <path clip-path="url(#p40381fbab4)" d="M 152.609375 43.503375 
L 155.399375 43.503375 
L 155.399375 42.25237 
L 152.609375 42.25237 
z
" style="fill:#3182bd;"/>
   </g>
   <g id="patch_10">
    <path clip-path="url(#p40381fbab4)" d="M 170.046875 43.503375 
L 172.836875 43.503375 
L 172.836875 42.948244 
L 170.046875 42.948244 
z
" style="fill:#3182bd;"/>
   </g>
   <g id="patch_11">
    <path clip-path="url(#p40381fbab4)" d="M 51.123125 43.503375 
L 53.913125 43.503375 
L 53.913125 43.268351 
L 51.123125 43.268351 
z
" style="fill:#fc8d59;"/>
   </g>
   <g id="patch_12">
    <path clip-path="url(#p40381fbab4)" d="M 68.560625 43.503375 
L 71.350625 43.503375 
L 71.350625 42.130461 
L 68.560625 42.130461 
z
" style="fill:#fc8d59;"/>
   </g>
   <g id="patch_13">
    <path clip-path="url(#p40381fbab4)" d="M 85.998125 43.503375 
L 88.788125 43.503375 
L 88.788125 37.3068 
L 85.998125 37.3068 
z
" style="fill:#fc8d59;"/>
   </g>
   <g id="patch_14">
    <path clip-path="url(#p40381fbab4)" d="M 103.435625 43.503375 
L 106.225625 43.503375 
L 106.225625 44.372385 
L 103.435625 44.372385 
z
" style="fill:#fc8d59;"/>
   </g>
   <g id="patch_15">
    <path clip-path="url(#p40381fbab4)" d="M 120.873125 43.503375 
L 123.663125 43.503375 
L 123.663125 42.636311 
L 120.873125 42.636311 
z
" style="fill:#fc8d59;"/>
   </g>
   <g id="patch_16">
    <path clip-path="url(#p40381fbab4)" d="M 138.310625 43.503375 
L 141.100625 43.503375 
L 141.100625 45.038773 
L 138.310625 45.038773 
z
" style="fill:#fc8d59;"/>
   </g>
   <g id="patch_17">
    <path clip-path="url(#p40381fbab4)" d="M 155.748125 43.503375 
L 158.538125 43.503375 
L 158.538125 43.583755 
L 155.748125 43.583755 
z
" style="fill:#fc8d59;"/>
   </g>
   <g id="patch_18">
    <path clip-path="url(#p40381fbab4)" d="M 173.185625 43.503375 
L 175.975625 43.503375 
L 175.975625 43.880147 
L 173.185625 43.880147 
z
" style="fill:#fc8d59;"/>
   </g>
   <g id="patch_19">
    <path clip-path="url(#p40381fbab4)" d="M 54.261875 43.503375 
L 57.051875 43.503375 
L 57.051875 34.114471 
L 54.261875 34.114471 
z
" style="fill:#2ca25f;"/>
   </g>
   <g id="patch_20">
    <path clip-path="url(#p40381fbab4)" d="M 71.699375 43.503375 
L 74.489375 43.503375 
L 74.489375 29.493461 
L 71.699375 29.493461 
z
" style="fill:#2ca25f;"/>
   </g>
   <g id="patch_21">
    <path clip-path="url(#p40381fbab4)" d="M 89.136875 43.503375 
L 91.926875 43.503375 
L 91.926875 35.954394 
L 89.136875 35.954394 
z
" style="fill:#2ca25f;"/>
   </g>
   <g id="patch_22">
    <path clip-path="url(#p40381fbab4)" d="M 106.574375 43.503375 
L 109.364375 43.503375 
L 109.364375 46.153464 
L 106.574375 46.153464 
z
" style="fill:#2ca25f;"/>
   </g>
   <g id="patch_23">
    <path clip-path="url(#p40381fbab4)" d="M 124.011875 43.503375 
L 126.801875 43.503375 
L 126.801875 44.307545 
L 124.011875 44.307545 
z
" style="fill:#2ca25f;"/>
   </g>
   <g id="patch_24">
    <path clip-path="url(#p40381fbab4)" d="M 141.449375 43.503375 
L 144.239375 43.503375 
L 144.239375 46.563077 
L 141.449375 46.563077 
z
" style="fill:#2ca25f;"/>
   </g>
   <g id="patch_25">
    <path clip-path="url(#p40381fbab4)" d="M 158.886875 43.503375 
L 161.676875 43.503375 
L 161.676875 42.797617 
L 158.886875 42.797617 
z
" style="fill:#2ca25f;"/>
   </g>
   <g id="patch_26">
    <path clip-path="url(#p40381fbab4)" d="M 176.324375 43.503375 
L 179.114375 43.503375 
L 179.114375 44.381636 
L 176.324375 44.381636 
z
" style="fill:#2ca25f;"/>
   </g>
   <g id="patch_27">
    <path clip-path="url(#p40381fbab4)" d="M 57.400625 43.503375 
L 60.190625 43.503375 
L 60.190625 35.976706 
L 57.400625 35.976706 
z
"/>
   </g>
   <g id="patch_28">
    <path clip-path="url(#p40381fbab4)" d="M 74.838125 43.503375 
L 77.628125 43.503375 
L 77.628125 30.260617 
L 74.838125 30.260617 
z
"/>
   </g>
   <g id="patch_29">
    <path clip-path="url(#p40381fbab4)" d="M 92.275625 43.503375 
L 95.065625 43.503375 
L 95.065625 32.86619 
L 92.275625 32.86619 
z
"/>
   </g>
   <g id="patch_30">
    <path clip-path="url(#p40381fbab4)" d="M 109.713125 43.503375 
L 112.503125 43.503375 
L 112.503125 51.554508 
L 109.713125 51.554508 
z
"/>
   </g>
   <g id="patch_31">
    <path clip-path="url(#p40381fbab4)" d="M 127.150625 43.503375 
L 129.940625 43.503375 
L 129.940625 42.342691 
L 127.150625 42.342691 
z
"/>
   </g>
   <g id="patch_32">
    <path clip-path="url(#p40381fbab4)" d="M 144.588125 43.503375 
L 147.378125 43.503375 
L 147.378125 49.741423 
L 144.588125 49.741423 
z
"/>
   </g>
   <g id="patch_33">
    <path clip-path="url(#p40381fbab4)" d="M 162.025625 43.503375 
L 164.815625 43.503375 
L 164.815625 42.406453 
L 162.025625 42.406453 
z
"/>
   </g>
   <g id="patch_34">
    <path clip-path="url(#p40381fbab4)" d="M 179.463125 43.503375 
L 182.253125 43.503375 
L 182.253125 43.997689 
L 179.463125 43.997689 
z
"/>
   </g>
   <g id="matplotlib.axis_1">
    <g id="xtick_1">
     <g id="line2d_1">
      <defs>
       <path d="M 0 0 
L 0 3.5 
" id="m19a5251982" style="stroke:#000000;stroke-width:1.5;"/>
      </defs>
      <g>
       <use style="stroke:#000000;stroke-width:1.5;" x="54.0875" xlink:href="#m19a5251982" y="76.767375"/>
      </g>
     </g>
     <g id="text_1">
      <text style="font-family:DejaVu Sans;font-size:8px;font-stretch:normal;font-style:normal;font-weight:normal;text-anchor:middle;" transform="rotate(-0, 54.0875, 89.846125)" x="54.0875" y="89.846125">Na</text>
     </g>
    </g>
    <g id="xtick_2">
     <g id="line2d_2">
      <g>
       <use style="stroke:#000000;stroke-width:1.5;" x="71.525" xlink:href="#m19a5251982" y="76.767375"/>
      </g>
     </g>
     <g id="text_2">
      <text style="font-family:DejaVu Sans;font-size:8px;font-stretch:normal;font-style:normal;font-weight:normal;text-anchor:middle;" transform="rotate(-0, 71.525, 89.846125)" x="71.525" y="89.846125">CaT</text>
     </g>
    </g>
    <g id="xtick_3">
     <g id="line2d_3">
      <g>
       <use style="stroke:#000000;stroke-width:1.5;" x="88.9625" xlink:href="#m19a5251982" y="76.767375"/>
      </g>
     </g>
     <g id="text_3">
      <text style="font-family:DejaVu Sans;font-size:8px;font-stretch:normal;font-style:normal;font-weight:normal;text-anchor:middle;" transform="rotate(-0, 88.9625, 89.846125)" x="88.9625" y="89.846125">CaS</text>
     </g>
    </g>
    <g id="xtick_4">
     <g id="line2d_4">
      <g>
       <use style="stroke:#000000;stroke-width:1.5;" x="106.4" xlink:href="#m19a5251982" y="76.767375"/>
      </g>
     </g>
     <g id="text_4">
      <text style="font-family:DejaVu Sans;font-size:8px;font-stretch:normal;font-style:normal;font-weight:normal;text-anchor:middle;" transform="rotate(-0, 106.4, 89.846125)" x="106.4" y="89.846125">A</text>
     </g>
    </g>
    <g id="xtick_5">
     <g id="line2d_5">
      <g>
       <use style="stroke:#000000;stroke-width:1.5;" x="123.8375" xlink:href="#m19a5251982" y="76.767375"/>
      </g>
     </g>
     <g id="text_5">
      <text style="font-family:DejaVu Sans;font-size:8px;font-stretch:normal;font-style:normal;font-weight:normal;text-anchor:middle;" transform="rotate(-0, 123.8375, 89.846125)" x="123.8375" y="89.846125">KCa</text>
     </g>
    </g>
    <g id="xtick_6">
     <g id="line2d_6">
      <g>
       <use style="stroke:#000000;stroke-width:1.5;" x="141.275" xlink:href="#m19a5251982" y="76.767375"/>
      </g>
     </g>
     <g id="text_6">
      <text style="font-family:DejaVu Sans;font-size:8px;font-stretch:normal;font-style:normal;font-weight:normal;text-anchor:middle;" transform="rotate(-0, 141.275, 89.846125)" x="141.275" y="89.846125">Kd</text>
     </g>
    </g>
    <g id="xtick_7">
     <g id="line2d_7">
      <g>
       <use style="stroke:#000000;stroke-width:1.5;" x="158.7125" xlink:href="#m19a5251982" y="76.767375"/>
      </g>
     </g>
     <g id="text_7">
      <text style="font-family:DejaVu Sans;font-size:8px;font-stretch:normal;font-style:normal;font-weight:normal;text-anchor:middle;" transform="rotate(-0, 158.7125, 89.846125)" x="158.7125" y="89.846125">H</text>
     </g>
    </g>
    <g id="xtick_8">
     <g id="line2d_8">
      <g>
       <use style="stroke:#000000;stroke-width:1.5;" x="176.15" xlink:href="#m19a5251982" y="76.767375"/>
      </g>
     </g>
     <g id="text_8">
      <text style="font-family:DejaVu Sans;font-size:8px;font-stretch:normal;font-style:normal;font-weight:normal;text-anchor:middle;" transform="rotate(-0, 176.15, 89.846125)" x="176.15" y="89.846125">leak</text>
     </g>
    </g>
   </g>
   <g id="matplotlib.axis_2">
    <g id="ytick_1">
     <g id="line2d_9">
      <defs>
       <path d="M 0 0 
L -3.5 0 
" id="m73f4df7b86" style="stroke:#000000;stroke-width:1.5;"/>
      </defs>
      <g>
       <use style="stroke:#000000;stroke-width:1.5;" x="45.36875" xlink:href="#m73f4df7b86" y="76.767375"/>
      </g>
     </g>
     <g id="text_9">
      <text style="font-family:DejaVu Sans;font-size:8px;font-stretch:normal;font-style:normal;font-weight:normal;text-anchor:end;" transform="rotate(-0, 38.36875, 79.80675)" x="38.36875" y="79.80675">−1.0</text>
     </g>
    </g>
    <g id="ytick_2">
     <g id="line2d_10">
      <g>
       <use style="stroke:#000000;stroke-width:1.5;" x="45.36875" xlink:href="#m73f4df7b86" y="60.135375"/>
      </g>
     </g>
     <g id="text_10">
      <text style="font-family:DejaVu Sans;font-size:8px;font-stretch:normal;font-style:normal;font-weight:normal;text-anchor:end;" transform="rotate(-0, 38.36875, 63.17475)" x="38.36875" y="63.17475">−0.5</text>
     </g>
    </g>
    <g id="ytick_3">
     <g id="line2d_11">
      <g>
       <use style="stroke:#000000;stroke-width:1.5;" x="45.36875" xlink:href="#m73f4df7b86" y="43.503375"/>
      </g>
     </g>
     <g id="text_11">
      <text style="font-family:DejaVu Sans;font-size:8px;font-stretch:normal;font-style:normal;font-weight:normal;text-anchor:end;" transform="rotate(-0, 38.36875, 46.54275)" x="38.36875" y="46.54275">0.0</text>
     </g>
    </g>
    <g id="ytick_4">
     <g id="line2d_12">
      <g>
       <use style="stroke:#000000;stroke-width:1.5;" x="45.36875" xlink:href="#m73f4df7b86" y="26.871375"/>
      </g>
     </g>
     <g id="text_12">
      <text style="font-family:DejaVu Sans;font-size:8px;font-stretch:normal;font-style:normal;font-weight:normal;text-anchor:end;" transform="rotate(-0, 38.36875, 29.91075)" x="38.36875" y="29.91075">0.5</text>
     </g>
    </g>
    <g id="ytick_5">
     <g id="line2d_13">
      <g>
       <use style="stroke:#000000;stroke-width:1.5;" x="45.36875" xlink:href="#m73f4df7b86" y="10.239375"/>
      </g>
     </g>
     <g id="text_13">
      <text style="font-family:DejaVu Sans;font-size:8px;font-stretch:normal;font-style:normal;font-weight:normal;text-anchor:end;" transform="rotate(-0, 38.36875, 13.27875)" x="38.36875" y="13.27875">1.0</text>
     </g>
    </g>
    <g id="text_14">
     <text style="font-family:DejaVu Sans;font-size:8px;font-stretch:normal;font-style:normal;font-weight:normal;text-anchor:middle;" transform="rotate(-90, 13.27875, 43.503375)" x="13.27875" y="43.503375">Active dim.</text>
    </g>
   </g>
   <g id="patch_35">
    <path d="M 45.36875 76.767375 
L 45.36875 10.239375 
" style="fill:none;stroke:#000000;stroke-linecap:square;stroke-linejoin:miter;stroke-width:1.5;"/>
   </g>
   <g id="patch_36">
    <path d="M 45.36875 76.767375 
L 184.86875 76.767375 
" style="fill:none;stroke:#000000;stroke-linecap:square;stroke-linejoin:miter;stroke-width:1.5;"/>
   </g>
   <g id="legend_1">
    <g id="patch_37">
     <path d="M 189.67875 30.170925 
L 192.07875 30.170925 
L 192.07875 24.570925 
L 189.67875 24.570925 
z
" style="fill:#3182bd;"/>
    </g>
    <g id="text_15">
     <text style="font-family:DejaVu Sans;font-size:8px;font-stretch:normal;font-style:normal;font-weight:normal;text-anchor:start;" transform="rotate(-0, 194.87875, 30.170925)" x="194.87875" y="30.170925">AB/PD</text>
    </g>
    <g id="patch_38">
     <path d="M 189.67875 41.913425 
L 192.07875 41.913425 
L 192.07875 36.313425 
L 189.67875 36.313425 
z
" style="fill:#fc8d59;"/>
    </g>
    <g id="text_16">
     <text style="font-family:DejaVu Sans;font-size:8px;font-stretch:normal;font-style:normal;font-weight:normal;text-anchor:start;" transform="rotate(-0, 194.87875, 41.913425)" x="194.87875" y="41.913425">LP</text>
    </g>
    <g id="patch_39">
     <path d="M 189.67875 53.655925 
L 192.07875 53.655925 
L 192.07875 48.055925 
L 189.67875 48.055925 
z
" style="fill:#2ca25f;"/>
    </g>
    <g id="text_17">
     <text style="font-family:DejaVu Sans;font-size:8px;font-stretch:normal;font-style:normal;font-weight:normal;text-anchor:start;" transform="rotate(-0, 194.87875, 53.655925)" x="194.87875" y="53.655925">PY</text>
    </g>
    <g id="patch_40">
     <path d="M 189.67875 65.398425 
L 192.07875 65.398425 
L 192.07875 59.798425 
L 189.67875 59.798425 
z
"/>
    </g>
    <g id="text_18">
     <!-- $Q_{10}$ -->
     <g transform="translate(194.87875 65.398425)">
      <text>
       <tspan style="font-family:DejaVu Sans;font-size:8px;font-style:book;font-weight:book;" x="0" y="-0.0625">Q</tspan>
       <tspan style="font-family:DejaVu Sans;font-size:5.6px;font-style:book;font-weight:book;" x="6.373437 9.936328" y="1.25">10</tspan>
      </text>
     </g>
    </g>
   </g>
  </g>
 </g>
 <defs>
  <clipPath id="p40381fbab4">
   <rect height="66.528" width="139.5" x="45.36875" y="10.239375"/>
  </clipPath>
 </defs>
</svg>
