<?xml version="1.0" encoding="utf-8" standalone="no"?>
<!DOCTYPE svg PUBLIC "-//W3C//DTD SVG 1.1//EN"
  "http://www.w3.org/Graphics/SVG/1.1/DTD/svg11.dtd">
<!-- Created with matplotlib (https://matplotlib.org/) -->
<svg height="73.34pt" version="1.1" viewBox="0 0 419.66 73.34" width="419.66pt" xmlns="http://www.w3.org/2000/svg" xmlns:xlink="http://www.w3.org/1999/xlink">
 <metadata>
  <rdf:RDF xmlns:cc="http://creativecommons.org/ns#" xmlns:dc="http://purl.org/dc/elements/1.1/" xmlns:rdf="http://www.w3.org/1999/02/22-rdf-syntax-ns#">
   <cc:Work>
    <dc:type rdf:resource="http://purl.org/dc/dcmitype/StillImage"/>
    <dc:date>2020-12-21T19:35:28.482193</dc:date>
    <dc:format>image/svg+xml</dc:format>
    <dc:creator>
     <cc:Agent>
      <dc:title>Matplotlib v3.3.2, https://matplotlib.org/</dc:title>
     </cc:Agent>
    </dc:creator>
   </cc:Work>
  </rdf:RDF>
 </metadata>
 <defs>
  <style type="text/css">*{stroke-linecap:butt;stroke-linejoin:round;}</style>
 </defs>
 <g id="figure_1">
  <g id="patch_1">
   <path d="M 0 73.34 
L 419.66 73.34 
L 419.66 0 
L 0 0 
z
" style="fill:none;"/>
  </g>
  <g id="axes_1">
   <g id="patch_2">
    <path d="M 10.7 62.64 
L 53.440426 62.64 
L 53.440426 7.2 
L 10.7 7.2 
z
" style="fill:none;"/>
   </g>
   <g id="matplotlib.axis_1"/>
   <g id="matplotlib.axis_2"/>
   <g id="line2d_1">
    <path clip-path="url(#pf2cad343b4)" d="M 12.642747 51.72 
L 13.982572 51.72 
L 15.322397 43.32 
L 16.662222 36.786667 
L 18.002048 37.72 
L 19.341873 30.253333 
L 20.681698 38.653333 
L 22.021523 23.72 
L 23.361349 20.92 
L 24.701174 16.253333 
L 26.040999 29.32 
L 27.380824 20.92 
L 28.72065 22.786667 
L 30.060475 32.12 
L 31.4003 31.186667 
L 32.740125 23.72 
L 34.079951 34.92 
L 35.419776 26.52 
L 36.759601 35.853333 
L 38.099426 29.32 
L 39.439252 33.053333 
L 40.779077 32.12 
L 42.118902 35.853333 
L 43.458727 42.386667 
L 44.798553 47.053333 
L 46.138378 42.386667 
L 47.478203 48.92 
L 48.818028 38.653333 
L 50.157854 45.186667 
L 51.497679 44.253333 
" style="fill:none;stroke:#1f77b4;stroke-linecap:square;stroke-width:1.5;"/>
   </g>
   <g id="line2d_2">
    <path clip-path="url(#pf2cad343b4)" d="M 12.642747 59.186667 
L 13.982572 60.12 
L 15.322397 56.386667 
L 16.662222 52.653333 
L 18.002048 55.453333 
L 19.341873 47.986667 
L 20.681698 44.253333 
L 22.021523 40.52 
L 23.361349 47.053333 
L 24.701174 30.253333 
L 26.040999 42.386667 
L 27.380824 35.853333 
L 28.72065 41.453333 
L 30.060475 26.52 
L 31.4003 31.186667 
L 32.740125 24.653333 
L 34.079951 24.653333 
L 35.419776 28.386667 
L 36.759601 25.586667 
L 38.099426 16.253333 
L 39.439252 24.653333 
L 40.779077 25.586667 
L 42.118902 17.186667 
L 43.458727 34.92 
L 44.798553 22.786667 
L 46.138378 29.32 
L 47.478203 31.186667 
L 48.818028 28.386667 
L 50.157854 33.053333 
L 51.497679 9.72 
" style="fill:none;stroke:#ff0000;stroke-linecap:square;stroke-width:1.5;"/>
   </g>
   <g id="patch_3">
    <path d="M 10.7 62.64 
L 10.7 7.2 
" style="fill:none;stroke:#000000;stroke-linecap:square;stroke-linejoin:miter;stroke-width:1.5;"/>
   </g>
   <g id="patch_4">
    <path d="M 10.7 62.64 
L 53.440426 62.64 
" style="fill:none;stroke:#000000;stroke-linecap:square;stroke-linejoin:miter;stroke-width:1.5;"/>
   </g>
  </g>
  <g id="axes_2">
   <g id="patch_5">
    <path d="M 61.988511 62.64 
L 104.728936 62.64 
L 104.728936 7.2 
L 61.988511 7.2 
z
" style="fill:none;"/>
   </g>
   <g id="matplotlib.axis_3"/>
   <g id="matplotlib.axis_4"/>
   <g id="line2d_3">
    <path clip-path="url(#p3d292e3605)" d="M 63.931257 60.12 
L 65.271083 51.430345 
L 66.610908 53.168276 
L 67.950733 47.085517 
L 69.290558 39.264828 
L 70.630384 37.526897 
L 71.970209 28.837241 
L 73.310034 34.051034 
L 74.649859 30.575172 
L 75.989685 32.313103 
L 77.32951 34.92 
L 78.669335 32.313103 
L 80.00916 26.230345 
L 81.348986 41.871724 
L 82.688811 41.002759 
L 84.028636 32.313103 
L 85.368461 33.182069 
L 86.708287 52.29931 
L 88.048112 25.361379 
L 89.387937 36.657931 
L 90.727762 46.216552 
L 92.067588 37.526897 
L 93.407413 45.347586 
L 94.747238 33.182069 
L 96.087063 34.051034 
L 97.426889 41.002759 
L 98.766714 47.954483 
L 100.106539 47.085517 
L 101.446364 52.29931 
L 102.78619 48.823448 
" style="fill:none;stroke:#1f77b4;stroke-linecap:square;stroke-width:1.5;"/>
   </g>
   <g id="line2d_4">
    <path clip-path="url(#p3d292e3605)" d="M 63.931257 48.823448 
L 65.271083 38.395862 
L 66.610908 35.788966 
L 67.950733 28.837241 
L 69.290558 22.754483 
L 70.630384 32.313103 
L 71.970209 34.92 
L 73.310034 9.72 
L 74.649859 37.526897 
L 75.989685 28.837241 
L 77.32951 35.788966 
L 78.669335 38.395862 
L 80.00916 30.575172 
L 81.348986 37.526897 
L 82.688811 37.526897 
L 84.028636 37.526897 
L 85.368461 38.395862 
L 86.708287 41.002759 
L 88.048112 38.395862 
L 89.387937 39.264828 
L 90.727762 45.347586 
L 92.067588 51.430345 
L 93.407413 44.478621 
L 94.747238 45.347586 
L 96.087063 53.168276 
L 97.426889 48.823448 
L 98.766714 54.906207 
L 100.106539 59.251034 
L 101.446364 53.168276 
L 102.78619 55.775172 
" style="fill:none;stroke:#ff0000;stroke-linecap:square;stroke-width:1.5;"/>
   </g>
   <g id="patch_6">
    <path d="M 61.988511 62.64 
L 61.988511 7.2 
" style="fill:none;stroke:#000000;stroke-linecap:square;stroke-linejoin:miter;stroke-width:1.5;"/>
   </g>
   <g id="patch_7">
    <path d="M 61.988511 62.64 
L 104.728936 62.64 
" style="fill:none;stroke:#000000;stroke-linecap:square;stroke-linejoin:miter;stroke-width:1.5;"/>
   </g>
  </g>
  <g id="axes_3">
   <g id="patch_8">
    <path d="M 113.277021 62.64 
L 156.017447 62.64 
L 156.017447 7.2 
L 113.277021 7.2 
z
" style="fill:none;"/>
   </g>
   <g id="matplotlib.axis_5"/>
   <g id="matplotlib.axis_6"/>
   <g id="line2d_5">
    <path clip-path="url(#pfc4baf3c8c)" d="M 115.219768 59.3325 
L 116.559593 60.12 
L 117.899418 58.545 
L 119.239244 55.395 
L 120.579069 51.4575 
L 121.918894 44.37 
L 123.258719 43.5825 
L 124.598545 42.795 
L 125.93837 40.4325 
L 127.278195 38.07 
L 128.61802 23.1075 
L 129.957846 23.895 
L 131.297671 22.32 
L 132.637496 9.72 
L 133.977321 24.6825 
L 135.317147 24.6825 
L 136.656972 18.3825 
L 137.996797 19.17 
L 139.336622 27.8325 
L 140.676448 20.745 
L 142.016273 25.47 
L 143.356098 23.895 
L 144.695923 39.645 
L 146.035749 40.4325 
L 147.375574 36.495 
L 148.715399 45.1575 
L 150.055224 44.37 
L 151.39505 49.095 
L 152.734875 53.0325 
L 154.0747 52.245 
" style="fill:none;stroke:#1f77b4;stroke-linecap:square;stroke-width:1.5;"/>
   </g>
   <g id="line2d_6">
    <path clip-path="url(#pfc4baf3c8c)" d="M 115.219768 56.97 
L 116.559593 53.0325 
L 117.899418 53.82 
L 119.239244 53.82 
L 120.579069 50.67 
L 121.918894 41.22 
L 123.258719 34.1325 
L 124.598545 29.4075 
L 125.93837 30.9825 
L 127.278195 30.9825 
L 128.61802 23.895 
L 129.957846 19.17 
L 131.297671 17.595 
L 132.637496 19.17 
L 133.977321 25.47 
L 135.317147 18.3825 
L 136.656972 19.9575 
L 137.996797 25.47 
L 139.336622 26.2575 
L 140.676448 38.07 
L 142.016273 28.62 
L 143.356098 35.7075 
L 144.695923 38.07 
L 146.035749 42.0075 
L 147.375574 44.37 
L 148.715399 42.0075 
L 150.055224 52.245 
L 151.39505 56.97 
L 152.734875 55.395 
L 154.0747 54.6075 
" style="fill:none;stroke:#ff0000;stroke-linecap:square;stroke-width:1.5;"/>
   </g>
   <g id="patch_9">
    <path d="M 113.277021 62.64 
L 113.277021 7.2 
" style="fill:none;stroke:#000000;stroke-linecap:square;stroke-linejoin:miter;stroke-width:1.5;"/>
   </g>
   <g id="patch_10">
    <path d="M 113.277021 62.64 
L 156.017447 62.64 
" style="fill:none;stroke:#000000;stroke-linecap:square;stroke-linejoin:miter;stroke-width:1.5;"/>
   </g>
  </g>
  <g id="axes_4">
   <g id="patch_11">
    <path d="M 164.565532 62.64 
L 207.305957 62.64 
L 207.305957 7.2 
L 164.565532 7.2 
z
" style="fill:none;"/>
   </g>
   <g id="matplotlib.axis_7"/>
   <g id="matplotlib.axis_8"/>
   <g id="line2d_7">
    <path clip-path="url(#p3494fbf8b7)" d="M 166.508279 60.12 
L 167.848104 57.395676 
L 169.187929 47.860541 
L 170.527754 51.947027 
L 171.86758 32.876757 
L 173.207405 50.584865 
L 174.54723 38.325405 
L 175.887055 32.876757 
L 177.226881 45.136216 
L 178.566706 32.876757 
L 179.906531 35.601081 
L 181.246356 46.498378 
L 182.586182 36.963243 
L 183.926007 34.238919 
L 185.265832 39.687568 
L 186.605657 30.152432 
L 187.945483 39.687568 
L 189.285308 17.892973 
L 190.625133 30.152432 
L 191.964958 39.687568 
L 193.304784 49.222703 
L 194.644609 20.617297 
L 195.984434 28.79027 
L 197.324259 12.444324 
L 198.664085 15.168649 
L 200.00391 42.411892 
L 201.343735 9.72 
L 202.68356 31.514595 
L 204.023386 38.325405 
L 205.363211 19.255135 
" style="fill:none;stroke:#1f77b4;stroke-linecap:square;stroke-width:1.5;"/>
   </g>
   <g id="line2d_8">
    <path clip-path="url(#p3494fbf8b7)" d="M 166.508279 43.774054 
L 167.848104 50.584865 
L 169.187929 31.514595 
L 170.527754 49.222703 
L 171.86758 34.238919 
L 173.207405 36.963243 
L 174.54723 43.774054 
L 175.887055 23.341622 
L 177.226881 27.428108 
L 178.566706 34.238919 
L 179.906531 13.806486 
L 181.246356 23.341622 
L 182.586182 38.325405 
L 183.926007 31.514595 
L 185.265832 35.601081 
L 186.605657 42.411892 
L 187.945483 30.152432 
L 189.285308 24.703784 
L 190.625133 31.514595 
L 191.964958 32.876757 
L 193.304784 24.703784 
L 194.644609 27.428108 
L 195.984434 26.065946 
L 197.324259 43.774054 
L 198.664085 35.601081 
L 200.00391 47.860541 
L 201.343735 46.498378 
L 202.68356 47.860541 
L 204.023386 51.947027 
L 205.363211 36.963243 
" style="fill:none;stroke:#ff0000;stroke-linecap:square;stroke-width:1.5;"/>
   </g>
   <g id="patch_12">
    <path d="M 164.565532 62.64 
L 164.565532 7.2 
" style="fill:none;stroke:#000000;stroke-linecap:square;stroke-linejoin:miter;stroke-width:1.5;"/>
   </g>
   <g id="patch_13">
    <path d="M 164.565532 62.64 
L 207.305957 62.64 
" style="fill:none;stroke:#000000;stroke-linecap:square;stroke-linejoin:miter;stroke-width:1.5;"/>
   </g>
  </g>
  <g id="axes_5">
   <g id="patch_14">
    <path d="M 215.854043 62.64 
L 258.594468 62.64 
L 258.594468 7.2 
L 215.854043 7.2 
z
" style="fill:none;"/>
   </g>
   <g id="matplotlib.axis_9"/>
   <g id="matplotlib.axis_10"/>
   <g id="line2d_9">
    <path clip-path="url(#p83f31fbb52)" d="M 217.796789 59.169057 
L 219.136614 58.218113 
L 220.47644 55.365283 
L 221.816265 49.659623 
L 223.15609 45.855849 
L 224.495915 46.806792 
L 225.835741 38.248302 
L 227.175566 36.346415 
L 228.515391 29.689811 
L 229.855216 26.836981 
L 231.195042 31.591698 
L 232.534867 20.180377 
L 233.874692 27.787925 
L 235.214517 24.935094 
L 236.554343 17.327547 
L 237.894168 18.278491 
L 239.233993 20.180377 
L 240.573818 15.42566 
L 241.913644 15.42566 
L 243.253469 18.278491 
L 244.593294 23.984151 
L 245.933119 29.689811 
L 247.272945 21.131321 
L 248.61277 25.886038 
L 249.952595 14.474717 
L 251.29242 30.640755 
L 252.632246 30.640755 
L 253.972071 34.444528 
L 255.311896 43.953962 
L 256.651721 37.297358 
" style="fill:none;stroke:#1f77b4;stroke-linecap:square;stroke-width:1.5;"/>
   </g>
   <g id="line2d_10">
    <path clip-path="url(#p83f31fbb52)" d="M 217.796789 59.169057 
L 219.136614 60.12 
L 220.47644 58.218113 
L 221.816265 47.757736 
L 223.15609 54.41434 
L 224.495915 50.610566 
L 225.835741 44.904906 
L 227.175566 36.346415 
L 228.515391 33.493585 
L 229.855216 37.297358 
L 231.195042 32.542642 
L 232.534867 20.180377 
L 233.874692 23.033208 
L 235.214517 35.395472 
L 236.554343 21.131321 
L 237.894168 20.180377 
L 239.233993 17.327547 
L 240.573818 9.72 
L 241.913644 16.376604 
L 243.253469 17.327547 
L 244.593294 21.131321 
L 245.933119 22.082264 
L 247.272945 17.327547 
L 248.61277 25.886038 
L 249.952595 12.57283 
L 251.29242 24.935094 
L 252.632246 14.474717 
L 253.972071 35.395472 
L 255.311896 40.150189 
L 256.651721 38.248302 
" style="fill:none;stroke:#ff0000;stroke-linecap:square;stroke-width:1.5;"/>
   </g>
   <g id="patch_15">
    <path d="M 215.854043 62.64 
L 215.854043 7.2 
" style="fill:none;stroke:#000000;stroke-linecap:square;stroke-linejoin:miter;stroke-width:1.5;"/>
   </g>
   <g id="patch_16">
    <path d="M 215.854043 62.64 
L 258.594468 62.64 
" style="fill:none;stroke:#000000;stroke-linecap:square;stroke-linejoin:miter;stroke-width:1.5;"/>
   </g>
  </g>
  <g id="axes_6">
   <g id="patch_17">
    <path d="M 267.142553 62.64 
L 309.882979 62.64 
L 309.882979 7.2 
L 267.142553 7.2 
z
" style="fill:none;"/>
   </g>
   <g id="matplotlib.axis_11"/>
   <g id="matplotlib.axis_12"/>
   <g id="line2d_11">
    <path clip-path="url(#pdc52780b28)" d="M 269.0853 54.621818 
L 270.425125 52.789091 
L 271.76495 57.370909 
L 273.104776 54.621818 
L 274.444601 53.705455 
L 275.784426 47.290909 
L 277.124251 42.709091 
L 278.464077 50.956364 
L 279.803902 45.458182 
L 281.143727 37.210909 
L 282.483552 43.625455 
L 283.823378 30.796364 
L 285.163203 34.461818 
L 286.503028 36.294545 
L 287.842853 28.963636 
L 289.182679 36.294545 
L 290.522504 22.549091 
L 291.862329 21.632727 
L 293.202154 36.294545 
L 294.54198 33.545455 
L 295.881805 26.214545 
L 297.22163 33.545455 
L 298.561455 20.716364 
L 299.901281 22.549091 
L 301.241106 27.130909 
L 302.580931 29.88 
L 303.920756 36.294545 
L 305.260582 14.301818 
L 306.600407 19.8 
L 307.940232 9.72 
" style="fill:none;stroke:#1f77b4;stroke-linecap:square;stroke-width:1.5;"/>
   </g>
   <g id="line2d_12">
    <path clip-path="url(#pdc52780b28)" d="M 269.0853 60.12 
L 270.425125 53.705455 
L 271.76495 54.621818 
L 273.104776 51.872727 
L 274.444601 44.541818 
L 275.784426 49.123636 
L 277.124251 42.709091 
L 278.464077 38.127273 
L 279.803902 45.458182 
L 281.143727 35.378182 
L 282.483552 44.541818 
L 283.823378 27.130909 
L 285.163203 18.883636 
L 286.503028 24.381818 
L 287.842853 22.549091 
L 289.182679 33.545455 
L 290.522504 32.629091 
L 291.862329 26.214545 
L 293.202154 31.712727 
L 294.54198 29.88 
L 295.881805 28.963636 
L 297.22163 25.298182 
L 298.561455 27.130909 
L 299.901281 39.96 
L 301.241106 28.963636 
L 302.580931 23.465455 
L 303.920756 28.047273 
L 305.260582 39.043636 
L 306.600407 29.88 
L 307.940232 23.465455 
" style="fill:none;stroke:#ff0000;stroke-linecap:square;stroke-width:1.5;"/>
   </g>
   <g id="patch_18">
    <path d="M 267.142553 62.64 
L 267.142553 7.2 
" style="fill:none;stroke:#000000;stroke-linecap:square;stroke-linejoin:miter;stroke-width:1.5;"/>
   </g>
   <g id="patch_19">
    <path d="M 267.142553 62.64 
L 309.882979 62.64 
" style="fill:none;stroke:#000000;stroke-linecap:square;stroke-linejoin:miter;stroke-width:1.5;"/>
   </g>
  </g>
  <g id="axes_7">
   <g id="patch_20">
    <path d="M 318.431064 62.64 
L 361.171489 62.64 
L 361.171489 7.2 
L 318.431064 7.2 
z
" style="fill:none;"/>
   </g>
   <g id="matplotlib.axis_13"/>
   <g id="matplotlib.axis_14"/>
   <g id="line2d_13">
    <path clip-path="url(#pbff2da99bd)" d="M 320.37381 17.738182 
L 321.713636 42.938182 
L 323.053461 21.174545 
L 324.393286 29.192727 
L 325.733111 18.883636 
L 327.072937 22.32 
L 328.412762 21.174545 
L 329.752587 17.738182 
L 331.092412 24.610909 
L 332.432238 28.047273 
L 333.772063 13.156364 
L 335.111888 23.465455 
L 336.451713 17.738182 
L 337.791539 26.901818 
L 339.131364 15.447273 
L 340.471189 13.156364 
L 341.811014 28.047273 
L 343.15084 36.065455 
L 344.490665 30.338182 
L 345.83049 40.647273 
L 347.170315 33.774545 
L 348.510141 28.047273 
L 349.849966 38.356364 
L 351.189791 37.210909 
L 352.529616 45.229091 
L 353.869442 47.52 
L 355.209267 41.792727 
L 356.549092 47.52 
L 357.888917 49.810909 
L 359.228743 52.101818 
" style="fill:none;stroke:#1f77b4;stroke-linecap:square;stroke-width:1.5;"/>
   </g>
   <g id="line2d_14">
    <path clip-path="url(#pbff2da99bd)" d="M 320.37381 13.156364 
L 321.713636 24.610909 
L 323.053461 29.192727 
L 324.393286 28.047273 
L 325.733111 23.465455 
L 327.072937 38.356364 
L 328.412762 37.210909 
L 329.752587 13.156364 
L 331.092412 9.72 
L 332.432238 18.883636 
L 333.772063 33.774545 
L 335.111888 29.192727 
L 336.451713 17.738182 
L 337.791539 20.029091 
L 339.131364 9.72 
L 340.471189 16.592727 
L 341.811014 22.32 
L 343.15084 28.047273 
L 344.490665 22.32 
L 345.83049 33.774545 
L 347.170315 36.065455 
L 348.510141 29.192727 
L 349.849966 26.901818 
L 351.189791 45.229091 
L 352.529616 41.792727 
L 353.869442 42.938182 
L 355.209267 47.52 
L 356.549092 56.683636 
L 357.888917 60.12 
L 359.228743 54.392727 
" style="fill:none;stroke:#ff0000;stroke-linecap:square;stroke-width:1.5;"/>
   </g>
   <g id="patch_21">
    <path d="M 318.431064 62.64 
L 318.431064 7.2 
" style="fill:none;stroke:#000000;stroke-linecap:square;stroke-linejoin:miter;stroke-width:1.5;"/>
   </g>
   <g id="patch_22">
    <path d="M 318.431064 62.64 
L 361.171489 62.64 
" style="fill:none;stroke:#000000;stroke-linecap:square;stroke-linejoin:miter;stroke-width:1.5;"/>
   </g>
  </g>
  <g id="axes_8">
   <g id="patch_23">
    <path d="M 369.719574 62.64 
L 412.46 62.64 
L 412.46 7.2 
L 369.719574 7.2 
z
" style="fill:none;"/>
   </g>
   <g id="matplotlib.axis_15"/>
   <g id="matplotlib.axis_16"/>
   <g id="line2d_15">
    <path clip-path="url(#p7f3962ab87)" d="M 371.662321 27.603871 
L 373.002146 38.984516 
L 374.341972 30.042581 
L 375.681797 26.790968 
L 377.021622 20.287742 
L 378.361447 21.913548 
L 379.701273 26.790968 
L 381.041098 33.294194 
L 382.380923 29.229677 
L 383.720748 24.352258 
L 385.060574 30.855484 
L 386.400399 28.416774 
L 387.740224 34.107097 
L 389.080049 34.107097 
L 390.419875 35.732903 
L 391.7597 28.416774 
L 393.099525 47.113548 
L 394.43935 37.35871 
L 395.779176 43.861935 
L 397.119001 43.049032 
L 398.458826 46.300645 
L 399.798651 51.178065 
L 401.138477 46.300645 
L 402.478302 48.739355 
L 403.818127 52.803871 
L 405.157952 47.926452 
L 406.497778 52.803871 
L 407.837603 55.242581 
L 409.177428 48.739355 
L 410.517253 52.803871 
" style="fill:none;stroke:#1f77b4;stroke-linecap:square;stroke-width:1.5;"/>
   </g>
   <g id="line2d_16">
    <path clip-path="url(#p7f3962ab87)" d="M 371.662321 17.036129 
L 373.002146 27.603871 
L 374.341972 16.223226 
L 375.681797 16.223226 
L 377.021622 16.223226 
L 378.361447 26.790968 
L 379.701273 30.855484 
L 381.041098 9.72 
L 382.380923 25.978065 
L 383.720748 27.603871 
L 385.060574 29.229677 
L 386.400399 25.978065 
L 387.740224 30.855484 
L 389.080049 34.107097 
L 390.419875 35.732903 
L 391.7597 38.984516 
L 393.099525 43.861935 
L 394.43935 47.113548 
L 395.779176 46.300645 
L 397.119001 45.487742 
L 398.458826 47.113548 
L 399.798651 51.990968 
L 401.138477 51.178065 
L 402.478302 54.429677 
L 403.818127 59.307097 
L 405.157952 56.868387 
L 406.497778 58.494194 
L 407.837603 60.12 
L 409.177428 58.494194 
L 410.517253 55.242581 
" style="fill:none;stroke:#ff0000;stroke-linecap:square;stroke-width:1.5;"/>
   </g>
   <g id="patch_24">
    <path d="M 369.719574 62.64 
L 369.719574 7.2 
" style="fill:none;stroke:#000000;stroke-linecap:square;stroke-linejoin:miter;stroke-width:1.5;"/>
   </g>
   <g id="patch_25">
    <path d="M 369.719574 62.64 
L 412.46 62.64 
" style="fill:none;stroke:#000000;stroke-linecap:square;stroke-linejoin:miter;stroke-width:1.5;"/>
   </g>
  </g>
 </g>
 <defs>
  <clipPath id="pf2cad343b4">
   <rect height="55.44" width="42.740426" x="10.7" y="7.2"/>
  </clipPath>
  <clipPath id="p3d292e3605">
   <rect height="55.44" width="42.740426" x="61.988511" y="7.2"/>
  </clipPath>
  <clipPath id="pfc4baf3c8c">
   <rect height="55.44" width="42.740426" x="113.277021" y="7.2"/>
  </clipPath>
  <clipPath id="p3494fbf8b7">
   <rect height="55.44" width="42.740426" x="164.565532" y="7.2"/>
  </clipPath>
  <clipPath id="p83f31fbb52">
   <rect height="55.44" width="42.740426" x="215.854043" y="7.2"/>
  </clipPath>
  <clipPath id="pdc52780b28">
   <rect height="55.44" width="42.740426" x="267.142553" y="7.2"/>
  </clipPath>
  <clipPath id="pbff2da99bd">
   <rect height="55.44" width="42.740426" x="318.431064" y="7.2"/>
  </clipPath>
  <clipPath id="p7f3962ab87">
   <rect height="55.44" width="42.740426" x="369.719574" y="7.2"/>
  </clipPath>
 </defs>
</svg>
