<?xml version="1.0" encoding="utf-8" standalone="no"?>
<!DOCTYPE svg PUBLIC "-//W3C//DTD SVG 1.1//EN"
  "http://www.w3.org/Graphics/SVG/1.1/DTD/svg11.dtd">
<!-- Created with matplotlib (https://matplotlib.org/) -->
<svg height="78.156pt" version="1.1" viewBox="0 0 126 78.156" width="126pt" xmlns="http://www.w3.org/2000/svg" xmlns:xlink="http://www.w3.org/1999/xlink">
 <metadata>
  <rdf:RDF xmlns:cc="http://creativecommons.org/ns#" xmlns:dc="http://purl.org/dc/elements/1.1/" xmlns:rdf="http://www.w3.org/1999/02/22-rdf-syntax-ns#">
   <cc:Work>
    <dc:type rdf:resource="http://purl.org/dc/dcmitype/StillImage"/>
    <dc:date>2021-01-07T11:39:59.819679</dc:date>
    <dc:format>image/svg+xml</dc:format>
    <dc:creator>
     <cc:Agent>
      <dc:title>Matplotlib v3.3.2, https://matplotlib.org/</dc:title>
     </cc:Agent>
    </dc:creator>
   </cc:Work>
  </rdf:RDF>
 </metadata>
 <defs>
  <style type="text/css">*{stroke-linecap:butt;stroke-linejoin:round;}</style>
 </defs>
 <g id="figure_1">
  <g id="patch_1">
   <path d="M 0 78.156 
L 126 78.156 
L 126 0 
L 0 0 
z
" style="fill:none;"/>
  </g>
  <g id="axes_1">
   <g id="patch_2">
    <path d="M 7.2 70.956 
L 118.8 70.956 
L 118.8 7.2 
L 7.2 7.2 
z
" style="fill:none;"/>
   </g>
   <g id="matplotlib.axis_1"/>
   <g id="matplotlib.axis_2"/>
   <g id="line2d_1">
    <path clip-path="url(#p678551dd5e)" d="M 12.272727 24.012914 
L 12.502889 23.943909 
L 12.526375 23.893407 
L 12.606228 24.001581 
L 12.775326 23.895321 
L 12.855178 23.90541 
L 12.784721 23.88497 
L 12.873967 23.864383 
L 13.033672 23.59218 
L 13.108827 23.532225 
L 13.113524 23.503372 
L 13.132313 23.526456 
L 13.677186 22.214506 
L 13.724158 20.936473 
L 13.73825 9.464177 
L 13.785222 24.086705 
L 13.818102 23.521475 
L 13.907348 19.762427 
L 13.916743 10.113979 
L 13.95432 24.667035 
L 14.015384 23.382361 
L 14.085842 20.56044 
L 14.095236 10.233931 
L 14.137511 24.895846 
L 14.18918 23.867591 
L 14.283123 20.287241 
L 14.292518 10.127212 
L 14.334792 25.032373 
L 14.386461 24.044854 
L 14.494497 20.548109 
L 14.503891 10.468195 
L 14.546166 25.135602 
L 14.597835 24.312093 
L 14.734053 20.033711 
L 14.743448 10.078411 
L 14.785722 25.244964 
L 14.837391 24.472932 
L 15.001793 20.510445 
L 15.015885 10.535933 
L 15.058159 25.27842 
L 15.100434 24.716681 
L 15.311807 20.32216 
L 15.321202 10.354303 
L 15.368174 25.314115 
L 15.415145 24.714127 
L 15.664096 20.664384 
L 15.678188 9.987298 
L 15.720463 25.311405 
L 15.75804 24.910985 
L 16.05866 19.95084 
L 16.068054 10.094073 
L 16.110329 25.294732 
L 16.161998 24.737309 
L 16.237153 23.968902 
L 16.500196 21.149473 
L 16.514287 15.415191 
L 16.518984 10.089599 
L 16.565956 25.276135 
L 16.612928 24.744742 
L 16.847788 22.723347 
L 17.049767 20.8201 
L 17.063858 10.343504 
L 17.11083 25.222544 
L 17.134316 24.997122 
L 17.406753 22.829955 
L 17.52888 22.419133 
L 17.552366 22.457474 
L 17.651007 22.517744 
L 17.585246 22.423786 
L 17.674493 22.50934 
L 17.71207 22.488903 
L 17.74495 22.589488 
L 17.749648 22.590941 
L 17.791922 22.676599 
L 17.961021 23.172718 
L 17.989204 23.272506 
L 18.397859 24.531409 
L 18.454226 24.639416 
L 18.674993 25.201134 
L 18.787726 25.501893 
L 19.233959 26.339067 
L 19.257445 26.3223 
L 19.327902 26.334824 
L 19.341994 26.395318 
L 19.511093 26.52978 
L 19.51579 26.523462 
L 19.534579 26.50606 
L 19.567459 26.593746 
L 19.600339 26.603387 
L 19.73186 26.698309 
L 19.760044 26.670986 
L 19.825804 26.749012 
L 19.830501 26.742164 
L 20.281431 26.675577 
L 20.375375 26.625406 
L 20.337798 26.730585 
L 20.394164 26.660182 
L 20.408255 26.625703 
L 20.459924 26.730698 
L 20.497502 26.774806 
L 20.563263 26.721808 
L 20.63372 26.674292 
L 20.586749 26.738838 
L 20.675995 26.709019 
L 20.939038 26.6782 
L 20.943735 26.697558 
L 21.065862 26.720536 
L 20.962524 26.640184 
L 21.079953 26.6909 
L 21.230263 26.605938 
L 21.239658 26.611251 
L 21.380573 26.716213 
L 21.549672 26.615973 
L 21.563763 26.638398 
L 21.629524 26.673545 
L 21.676496 26.66079 
L 21.8362 26.602001 
L 21.845595 26.635198 
L 21.958327 26.677268 
L 21.873778 26.602736 
L 21.967722 26.668109 
L 22.052271 26.716122 
L 22.094546 26.679277 
L 22.108637 26.646408 
L 22.122729 26.703754 
L 22.202581 26.680171 
L 22.310616 26.663854 
L 22.263644 26.635182 
L 22.315313 26.654776 
L 22.73806 26.732647 
L 22.780335 26.802115 
L 22.832004 26.660754 
L 22.841398 26.638143 
L 22.902462 26.700261 
L 22.935342 26.699341 
L 22.982314 26.582389 
L 23.080955 26.574424 
L 22.991708 26.596064 
L 23.095046 26.596305 
L 23.18899 26.621632 
L 23.193687 26.629046 
L 23.203082 26.657454 
L 23.287631 26.551582 
L 23.292328 26.568923 
L 25.279239 26.016361 
L 25.283936 26.034504 
L 25.382577 26.04475 
L 25.321513 25.973295 
L 25.387274 26.021756 
L 25.500006 25.937828 
L 25.509401 25.948688 
L 25.565767 25.879319 
L 25.570464 25.867667 
L 25.716077 25.773691 
L 25.720774 25.779564 
L 26.477021 25.261758 
L 26.49581 25.296184 
L 26.580359 25.347552 
L 26.608542 25.317872 
L 26.679 25.356122 
L 26.749458 25.21915 
L 26.772944 25.241556 
L 26.824613 25.133103 
L 26.838705 25.14357 
L 26.852796 25.086352 
L 26.956134 25.113852 
L 26.993712 25.097018 
L 27.021895 25.027188 
L 27.148719 24.900795 
L 27.040684 25.0564 
L 27.153416 24.902522 
L 27.322515 24.781512 
L 27.472825 24.652414 
L 27.482219 24.678973 
L 27.529191 24.712884 
L 27.571466 24.621338 
L 27.58086 24.630105 
L 27.721776 24.489918 
L 27.825114 24.498647 
L 27.801628 24.448116 
L 27.834508 24.478783 
L 27.886177 24.49189 
L 27.919058 24.412177 
L 27.923755 24.415652 
L 28.130431 24.17868 
L 28.135128 24.190829 
L 28.872587 23.902052 
L 29.102749 23.743652 
L 29.107446 23.750346 
L 29.159115 23.756957 
L 29.130932 23.708831 
L 29.210784 23.718305 
L 29.56777 22.951746 
L 29.774447 21.281863 
L 29.788538 14.987436 
L 29.793235 9.352955 
L 29.840207 24.014944 
L 29.891876 22.945809 
L 29.95294 19.183177 
L 29.962334 10.462589 
L 29.999912 24.58552 
L 30.060975 23.135092 
L 30.122038 19.862693 
L 30.131433 10.308583 
L 30.16901 24.753016 
L 30.230074 23.375902 
L 30.300532 18.478821 
L 30.305229 10.539757 
L 30.347503 24.917613 
L 30.408567 23.598974 
L 30.488419 20.135158 
L 30.497813 10.178104 
L 30.540088 25.063868 
L 30.591757 24.086798 
L 30.70449 19.515733 
L 30.713884 10.35607 
L 30.751462 25.168772 
L 30.812525 24.192018 
L 30.944046 20.058764 
L 30.953441 10.152795 
L 30.995715 25.224184 
L 31.047384 24.44876 
L 31.211786 20.743985 
L 31.225877 10.170037 
L 31.268152 25.293006 
L 31.30573 24.783424 
L 31.5218 20.741828 
L 31.535892 10.079951 
L 31.578166 25.289335 
L 31.615744 24.836798 
L 31.878786 20.682763 
L 31.892878 10.025817 
L 31.935153 25.29037 
L 31.97273 24.895535 
L 32.296836 20.601772 
L 32.310928 9.98427 
L 32.353202 25.297231 
L 32.39078 24.888611 
L 32.719583 22.124578 
L 32.766555 21.658746 
L 32.794738 19.059781 
L 32.804132 9.970135 
L 32.846407 25.233094 
L 32.898076 24.686176 
L 33.156421 22.700368 
L 33.179907 22.598754 
L 33.367795 20.689711 
L 33.381886 10.100062 
L 33.428858 25.214072 
L 33.457041 24.924408 
L 33.696598 23.116841 
L 33.95964 22.455653 
L 33.997218 22.522835 
L 34.274352 23.359548 
L 34.532697 24.073434 
L 34.546789 24.065048 
L 34.565578 24.173862 
L 34.936655 25.255027 
L 35.180909 25.686309 
L 35.829121 26.331793 
L 35.843212 26.304863 
L 35.941853 26.263657 
L 35.960642 26.284539 
L 36.110952 26.363952 
L 36.120346 26.343928 
L 36.190804 26.44626 
L 36.350509 26.730717 
L 36.458544 26.658783 
L 36.477333 26.668778 
L 36.566579 26.731876 
L 36.590065 26.676613 
L 36.613551 26.624013 
L 36.688706 26.700391 
L 36.698101 26.676716 
L 36.777953 26.754683 
L 36.810833 26.736263 
L 36.947051 26.634123 
L 37.059784 26.688439 
L 37.064481 26.685115 
L 37.167819 26.664399 
L 37.073875 26.695224 
L 37.172516 26.679384 
L 37.196002 26.718686 
L 37.214791 26.652645 
L 37.280552 26.665161 
L 37.412073 26.727576 
L 37.322826 26.635271 
L 37.41677 26.724106 
L 37.529503 26.622225 
L 37.538897 26.650425 
L 37.628144 26.651784 
L 37.646932 26.710924 
L 37.75027 26.744425 
L 37.675115 26.688631 
L 37.759665 26.725372 
L 37.891186 26.683035 
L 37.952249 26.738398 
L 37.905278 26.675449 
L 38.013313 26.715003 
L 38.064982 26.697263 
L 38.093165 26.64305 
L 38.097862 26.61758 
L 38.149531 26.678127 
L 38.2012 26.664793 
L 38.295144 26.66467 
L 38.238778 26.687162 
L 38.309236 26.681009 
L 38.450151 26.636886 
L 38.473637 26.655074 
L 38.567581 26.613558 
L 38.675616 26.705281 
L 38.699102 26.684574 
L 38.722588 26.731037 
L 38.76956 26.611036 
L 38.793046 26.636924 
L 38.858807 26.650683 
L 38.840018 26.690862 
L 38.882293 26.690409 
L 38.924567 26.749199 
L 39.004419 26.700402 
L 39.018511 26.740021 
L 39.309737 26.633424 
L 39.347314 26.709226 
L 39.413075 26.611776 
L 39.507018 26.574082 
L 39.474138 26.624808 
L 39.52111 26.59895 
L 39.582173 26.663666 
L 39.633842 26.621534 
L 39.666723 26.558128 
L 39.732483 26.668048 
L 39.741878 26.644971 
L 40.427667 26.514905 
L 40.465245 26.528267 
L 40.545097 26.443656 
L 40.620252 26.474497 
L 40.582674 26.404463 
L 40.653132 26.417704 
L 40.751773 26.422762 
L 40.75647 26.44515 
L 40.761167 26.471728 
L 40.826928 26.314326 
L 40.850414 26.347922 
L 40.953752 26.356098 
L 40.963146 26.321243 
L 41.085273 26.298665 
L 40.99133 26.351546 
L 41.104062 26.328823 
L 41.2074 26.374812 
L 41.230886 26.32911 
L 41.456351 26.149392 
L 41.461048 26.156493 
L 41.512717 26.198194 
L 41.554992 26.111377 
L 41.564386 26.125074 
L 41.771063 26.017498 
L 41.803943 26.080447 
L 41.80864 26.114965 
L 41.860309 26.019981 
L 41.902584 26.025133 
L 42.029408 25.939673 
L 42.29245 25.75442 
L 42.306542 25.773123 
L 42.311239 25.801064 
L 42.395789 25.670419 
L 42.400486 25.674998 
L 42.405183 25.684175 
L 42.470944 25.576345 
L 42.611859 25.386032 
L 42.621254 25.414857 
L 42.813838 25.405995 
L 42.818535 25.394338 
L 42.945359 25.294094 
L 42.959451 25.309205 
L 42.997028 25.350066 
L 43.109761 25.238414 
L 43.227191 25.314742 
L 43.231888 25.305714 
L 43.513719 25.14859 
L 43.649937 24.950185 
L 43.678121 24.98557 
L 43.711001 24.963705 
L 43.800247 24.983007 
L 43.851917 24.861586 
L 43.922374 24.918288 
L 44.049198 24.820933 
L 43.969346 24.936013 
L 44.053896 24.835189 
L 44.100867 24.86801 
L 44.138445 24.764285 
L 44.152537 24.778644 
L 44.279361 24.781893 
L 44.288755 24.772415 
L 44.387396 24.704185 
L 44.406185 24.730043 
L 44.504826 24.798459 
L 44.518917 24.764994 
L 44.758474 24.566895 
L 44.857115 24.493112 
L 44.880601 24.535462 
L 45.181221 24.524472 
L 45.185918 24.505392 
L 45.434869 24.178852 
L 45.444263 24.205093 
L 45.477143 24.220482 
L 45.510024 24.116998 
L 45.519418 24.126754 
L 45.74958 24.048644 
L 45.862313 24.001494 
L 45.86701 24.047991 
L 45.951559 24.050436 
L 45.975045 24.008931 
L 46.289757 23.964511 
L 46.308545 24.007549 
L 46.374306 23.911914 
L 46.491736 23.723 
L 46.510524 23.727603 
L 46.519919 23.716832 
L 46.623257 23.704646 
L 46.778264 23.477797 
L 46.872208 23.388961 
L 46.895694 23.448788 
L 46.942666 23.416905 
L 46.95206 23.368472 
L 46.966152 23.37125 
L 47.294955 22.635093 
L 47.398293 21.395395 
L 47.412384 18.026683 
L 47.421779 9.248816 
L 47.464053 24.091422 
L 47.52042 23.022857 
L 47.58618 20.149549 
L 47.595575 9.967397 
L 47.633152 24.67089 
L 47.694216 23.422664 
L 47.769371 19.509653 
L 47.778765 10.363612 
L 47.816343 24.902072 
L 47.877406 23.657766 
L 47.961955 20.178221 
L 47.97135 10.077522 
L 48.013624 25.056105 
L 48.065293 24.081003 
L 48.173329 20.7978 
L 48.18742 10.348375 
L 48.224998 25.140668 
L 48.267272 24.51193 
L 48.412885 20.29741 
L 48.42228 10.140679 
L 48.464554 25.245246 
L 48.516223 24.501834 
L 48.680625 20.508169 
L 48.694717 10.540608 
L 48.736991 25.281104 
L 48.779266 24.692834 
L 48.976548 21.369325 
L 48.990639 18.831132 
L 49.000034 10.276851 
L 49.042308 25.276989 
L 49.093977 24.623846 
L 49.258379 22.416151 
L 49.333534 20.148563 
L 49.342928 10.312628 
L 49.3899 25.287442 
L 49.436872 24.700124 
L 49.7234 20.914112 
L 49.742189 10.457292 
L 49.784464 25.284349 
L 49.803253 25.082968 
L 50.183725 19.102893 
L 50.193119 9.906071 
L 50.235394 25.29376 
L 50.287063 24.723624 
L 50.737993 20.107506 
L 50.752084 10.248185 
L 50.794359 25.222351 
L 50.841331 24.7097 
L 51.184226 22.490438 
L 51.367416 22.168912 
L 51.419085 22.140879 
L 51.386205 22.11843 
L 51.437874 22.095631 
L 51.672733 21.198375 
L 51.686825 18.185289 
L 51.696219 9.949557 
L 51.738494 25.216344 
L 51.790163 24.69878 
L 51.992142 23.562856 
L 52.029719 23.485013 
L 52.137755 23.405922 
L 52.147149 23.420185 
L 52.250487 23.340713 
L 52.273973 23.415817 
L 52.795361 24.501408 
L 52.87991 24.672973 
L 53.044312 25.074182 
L 53.072495 25.175579 
L 53.41539 25.908275 
L 53.420087 25.90134 
L 53.457664 26.014132 
L 53.476453 26.005049 
L 53.979052 26.73546 
L 53.983749 26.721492 
L 54.072996 26.743737 
L 54.091785 26.704197 
L 54.171637 26.715048 
L 54.138756 26.692687 
L 54.19982 26.698279 
L 54.213911 26.653546 
L 54.279672 26.73228 
L 54.307855 26.704368 
L 54.387707 26.747091 
L 54.420588 26.709662 
L 54.542715 26.641963 
L 54.580292 26.708024 
L 54.584989 26.732193 
L 54.65075 26.641263 
L 54.68363 26.673915 
L 54.796363 26.657639 
L 54.80106 26.680612 
L 54.885609 26.702613 
L 54.824546 26.659991 
L 54.909095 26.671884 
L 55.223807 26.660057 
L 55.270779 26.748382 
L 55.336539 26.67471 
L 56.15385 26.686239 
L 56.200822 26.727759 
L 56.257188 26.63922 
L 56.510836 26.665469 
L 56.515533 26.65138 
L 56.557808 26.675567 
L 56.642357 26.585864 
L 56.726907 26.568437 
L 56.745695 26.616054 
L 56.78797 26.627994 
L 56.82085 26.552906 
L 56.834942 26.563221 
L 56.947674 26.493136 
L 56.97116 26.510327 
L 57.069801 26.601531 
L 57.112076 26.566192 
L 57.135562 26.539931 
L 57.290569 26.605217 
L 57.375118 26.525349 
L 57.417393 26.536567 
L 57.473759 26.542392 
L 57.497245 26.602502 
L 57.516034 26.577572 
L 57.642858 26.660161 
L 57.647555 26.651128 
L 57.844837 26.452417 
L 57.929386 26.521369 
L 57.854231 26.443999 
L 57.976358 26.477799 
L 58.103182 26.370971 
L 58.201823 26.413403 
L 58.220612 26.388865 
L 58.244098 26.343114 
L 58.286373 26.417594 
L 58.328647 26.409176 
L 58.460169 26.248009 
L 58.483655 26.276392 
L 58.493049 26.297884 
L 58.568204 26.190511 
L 58.572901 26.204194 
L 58.699725 26.179826 
L 58.793669 26.064079 
L 58.821852 26.082244 
L 58.882915 25.991223 
L 59.047317 26.155268 
L 59.178838 26.076327 
L 59.197627 26.094576 
L 59.34324 26.170916 
L 59.455972 26.067141 
L 59.470064 26.083114 
L 59.498247 26.180094 
L 59.578099 26.085921 
L 59.803564 25.970685 
L 59.916297 25.919789 
L 59.939783 25.964216 
L 60.104184 25.822835 
L 60.108881 25.844841 
L 60.16055 25.714501 
L 60.193431 25.728417 
L 60.339043 25.559381 
L 60.357832 25.574076 
L 60.470565 25.701144 
L 60.489353 25.658887 
L 60.559811 25.530042 
L 60.616178 25.574278 
L 60.667847 25.533039 
L 60.72891 25.565977 
L 60.686635 25.522821 
L 60.771185 25.531888 
L 60.832248 25.573984 
L 60.883917 25.499681 
L 60.935586 25.513686 
L 60.963769 25.43761 
L 61.090593 25.252054 
L 61.095291 25.269551 
L 61.433488 25.043838 
L 61.109382 25.295442 
L 61.456974 25.135214 
L 61.461671 25.159058 
L 61.550918 25.052002 
L 61.555615 25.071338 
L 61.611981 24.966808 
L 61.691833 24.898109 
L 61.720016 24.944934 
L 61.81396 25.009462 
L 61.842143 24.975164 
L 61.954876 24.931437 
L 62.044122 24.869873 
L 62.067608 24.893408 
L 62.288376 24.979341 
L 62.307165 25.016658 
L 62.34944 24.907666 
L 62.387017 24.926293 
L 62.391714 24.93717 
L 62.452778 24.838713 
L 62.476264 24.860616 
L 62.588996 24.863206 
L 62.518538 24.905273 
L 62.593693 24.874444 
L 62.635968 24.920227 
L 62.687637 24.785801 
L 62.917799 24.710161 
L 63.044623 24.618292 
L 63.04932 24.640482 
L 63.082201 24.601049 
L 63.10099 24.555482 
L 63.213722 24.413257 
L 63.227814 24.425377 
L 63.368729 24.26849 
L 63.378124 24.274158 
L 63.504948 24.326292 
L 63.589497 24.256148 
L 63.641166 24.297173 
L 63.683441 24.310584 
L 63.674046 24.276257 
L 63.739807 24.253936 
L 63.880723 24.124041 
L 63.88542 24.137701 
L 63.932392 24.18564 
L 63.894814 24.107051 
L 64.002849 24.127455 
L 64.012244 24.13339 
L 64.153159 24.058921 
L 64.2518 24.02786 
L 64.265892 23.994127 
L 64.472568 23.79036 
L 64.63697 23.602089 
L 64.791977 23.411147 
L 64.810766 23.445074 
L 64.895315 23.360188 
L 64.998653 23.133985 
L 65.186541 22.292985 
L 65.242907 21.377366 
L 65.256998 17.99669 
L 65.266393 9.271264 
L 65.308667 24.029399 
L 65.365034 22.943463 
L 65.426097 20.348537 
L 65.435492 10.013356 
L 65.477766 24.608171 
L 65.529435 23.440364 
L 65.599893 20.554333 
L 65.609287 10.2707 
L 65.651562 24.80844 
L 65.703231 23.683003 
L 65.783083 20.58011 
L 65.792478 10.330187 
L 65.834752 24.985203 
L 65.886422 23.966874 
L 65.985062 20.357355 
L 65.994457 10.143804 
L 66.036731 25.102396 
L 66.088401 24.207167 
L 66.20583 20.888383 
L 66.219922 10.172415 
L 66.262196 25.197715 
L 66.299774 24.61527 
L 66.459478 20.622869 
L 66.47357 10.448033 
L 66.515845 25.258379 
L 66.558119 24.665827 
L 66.750704 19.668772 
L 66.760098 10.086281 
L 66.802373 25.300484 
L 66.854042 24.635833 
L 67.070113 20.619524 
L 67.084204 10.14902 
L 67.126479 25.305577 
L 67.164056 24.861805 
L 67.450585 20.346914 
L 67.464676 10.330021 
L 67.506951 25.280783 
L 67.549226 24.794657 
L 67.882726 19.724162 
L 67.89212 10.024704 
L 67.939092 25.273288 
L 67.986064 24.731599 
L 68.366536 20.463089 
L 68.380628 9.964706 
L 68.422903 25.260847 
L 68.465177 24.828828 
L 68.784586 22.434067 
L 68.939593 21.692089 
L 68.967776 20.405065 
L 68.981868 9.932988 
L 69.02884 25.229749 
L 69.066417 24.825381 
L 69.287185 23.140932 
L 69.51265 22.544744 
L 69.522044 22.562243 
L 69.573713 22.578703 
L 69.597199 22.624956 
L 69.733418 22.793219 
L 69.738115 22.791912 
L 69.752207 22.879501 
L 69.756904 22.88642 
L 69.935397 23.38554 
L 70.710433 25.489882 
L 70.724524 25.473941 
L 70.780891 25.585398 
L 70.921806 25.777289 
L 71.04863 25.95596 
L 71.062722 25.912157 
L 71.49956 26.296312 
L 71.504257 26.291172 
L 71.58411 26.285543 
L 71.607595 26.328058 
L 71.715631 26.383368 
L 71.743814 26.333256 
L 71.753208 26.315293 
L 71.814272 26.411245 
L 71.83306 26.403756 
L 71.91761 26.426219 
L 71.875335 26.37816 
L 71.936399 26.378832 
L 72.030342 26.425008 
L 72.03504 26.446492 
L 72.185349 26.694167 
L 72.213533 26.682051 
L 72.279293 26.644099 
L 72.232321 26.716802 
L 72.326265 26.661813 
L 72.377934 26.707698 
L 72.443695 26.669052 
L 72.476575 26.604273 
L 72.561124 26.654361 
L 74.125288 26.704857 
L 74.191048 26.760023 
L 74.158168 26.692493 
L 74.228626 26.695023 
L 74.242717 26.648587 
L 74.289689 26.745594 
L 74.341358 26.697786 
L 74.62319 26.651763 
L 74.740619 26.623852 
L 74.778197 26.663826 
L 74.80638 26.568658 
L 74.843957 26.586306 
L 75.121091 26.65629 
L 75.130486 26.636491 
L 75.238521 26.587091 
L 75.182155 26.657384 
L 75.247916 26.604794 
L 75.933705 26.458901 
L 75.957191 26.421391 
L 76.00886 26.512368 
L 76.027649 26.496723 
L 76.04174 26.518118 
L 76.098106 26.348249 
L 76.206142 26.314243 
L 76.130987 26.359041 
L 76.215536 26.334044 
L 76.365846 26.466522 
L 76.530248 26.329775 
L 76.633586 26.381044 
L 76.657072 26.3201 
L 76.769804 26.259304 
L 76.666466 26.325998 
L 76.774501 26.277322 
L 76.779199 26.284601 
L 76.82617 26.160521 
L 76.877839 26.121487 
L 76.924811 26.219578 
L 76.995269 26.233147 
L 76.957692 26.168127 
L 77.028149 26.202432 
L 77.12679 26.032063 
L 77.169065 26.063971 
L 77.2771 25.957921 
L 77.39453 25.872073 
L 77.399227 25.882268 
L 77.530748 25.787005 
L 77.671664 25.690133 
L 77.732728 25.780845 
L 77.798488 25.756996 
L 77.826671 25.787881 
L 77.925312 25.703253 
L 77.967587 25.68911 
L 78.047439 25.751914 
L 78.174263 25.542359 
L 78.183657 25.549963 
L 78.249418 25.590324 
L 78.29639 25.560234 
L 78.427911 25.428418 
L 78.315179 25.586445 
L 78.437306 25.445632 
L 78.507763 25.530057 
L 78.550038 25.455061 
L 79.029151 25.168599 
L 79.062031 25.220591 
L 79.109003 25.314822 
L 79.174764 25.232141 
L 79.249919 25.251273 
L 79.207644 25.284414 
L 79.268708 25.293512 
L 79.287496 25.291932 
L 79.320377 25.191031 
L 79.470687 25.051712 
L 79.489476 25.080327 
L 79.49887 25.101251 
L 79.550539 24.990512 
L 79.578722 25.003501 
L 79.635088 25.068003 
L 79.700849 24.992667 
L 79.747821 25.020176 
L 79.804187 24.969449 
L 80.663772 24.24394 
L 80.785899 24.323585 
L 80.795294 24.284566 
L 80.870449 24.292744 
L 80.903329 24.247424 
L 81.128794 23.984954 
L 80.91742 24.27828 
L 81.138188 23.993809 
L 81.363653 23.805903 
L 81.438808 23.839972 
L 81.476386 23.788744 
L 81.584421 23.805482 
L 81.537449 23.739045 
L 81.589118 23.792194 
L 81.748823 23.6435 
L 81.772308 23.626682 
L 81.805189 23.555604 
L 81.974288 23.227741 
L 81.983682 23.239774 
L 82.035351 23.122744 
L 82.298393 21.906246 
L 82.326577 20.165514 
L 82.340668 9.463608 
L 82.382943 24.012324 
L 82.429915 23.084483 
L 82.495675 20.122494 
L 82.50507 10.069037 
L 82.542647 24.557298 
L 82.603711 23.184088 
L 82.664774 20.084224 
L 82.674168 10.203686 
L 82.711746 24.785922 
L 82.772809 23.423131 
L 82.843267 19.801678 
L 82.852662 10.355578 
L 82.890239 24.94157 
L 82.951302 23.693866 
L 83.035852 20.42278 
L 83.045246 10.216703 
L 83.087521 25.075797 
L 83.13919 24.091628 
L 83.251922 20.262143 
L 83.261317 10.150625 
L 83.303591 25.175745 
L 83.355261 24.327677 
L 83.496176 20.358153 
L 83.505571 10.330345 
L 83.547845 25.214277 
L 83.599514 24.485129 
L 83.768613 20.651274 
L 83.782705 10.278166 
L 83.824979 25.280655 
L 83.867254 24.710517 
L 84.059839 21.816722 
L 84.088022 19.851909 
L 84.097416 10.076174 
L 84.139691 25.300306 
L 84.19136 24.693776 
L 84.449705 20.742101 
L 84.463797 10.014134 
L 84.510769 25.292459 
L 84.543649 24.868788 
L 84.872452 20.221374 
L 84.886544 10.391063 
L 84.928818 25.285881 
L 84.97579 24.745285 
L 85.24353 22.437818 
L 85.281107 22.234328 
L 85.360959 21.254344 
L 85.375051 18.532037 
L 85.384445 10.049402 
L 85.42672 25.246866 
L 85.478389 24.718142 
L 85.774312 22.599744 
L 85.779009 22.615367 
L 85.835375 22.42246 
L 85.840073 22.429714 
L 85.891742 22.305204 
L 85.957502 22.254942 
L 85.962199 22.224298 
L 86.037354 22.17636 
L 86.074932 22.224619 
L 86.32858 23.185049 
L 86.492982 23.829442 
L 86.502376 23.827492 
L 86.525862 23.905124 
L 86.539953 23.917952 
L 86.713749 24.392625 
L 87.221046 25.965841 
L 87.225743 25.960996 
L 87.23044 25.944302 
L 87.291503 26.136572 
L 87.333778 26.099653 
L 87.469997 26.403306 
L 87.592123 26.483637 
L 87.728342 26.609629 
L 87.733039 26.602639 
L 87.780011 26.642751 
L 87.850469 26.594626 
L 87.911532 26.70985 
L 87.986687 26.671265 
L 88.127603 26.635131 
L 88.019567 26.701932 
L 88.136997 26.66003 
L 88.146391 26.678246 
L 88.226244 26.583752 
L 88.240335 26.632982 
L 88.31549 26.634486 
L 88.296701 26.669509 
L 88.329582 26.668516 
L 88.428223 26.741811 
L 88.447011 26.727742 
L 88.526864 26.746852 
L 88.55035 26.701945 
L 88.602019 26.704172 
L 88.634899 26.773925 
L 88.644293 26.757797 
L 88.64899 26.771312 
L 88.724145 26.681132 
L 88.738237 26.699362 
L 88.808695 26.658844 
L 88.865061 26.691725 
L 88.879153 26.733309 
L 88.963702 26.64636 
L 88.968399 26.647925 
L 89.137498 26.724036 
L 88.982491 26.602524 
L 89.15159 26.679788 
L 89.273716 26.685556 
L 89.165681 26.651385 
L 89.283111 26.651243 
L 89.358266 26.654975 
L 89.320688 26.701319 
L 89.381752 26.703158 
L 89.640097 26.656089 
L 89.654189 26.691247 
L 89.752829 26.75774 
L 89.724646 26.662873 
L 89.771618 26.727045 
L 89.907837 26.641888 
L 90.029964 26.630792 
L 89.921928 26.662671 
L 90.044055 26.665987 
L 90.081633 26.692084 
L 90.053449 26.655321 
L 90.15209 26.653408 
L 90.250731 26.628397 
L 90.194365 26.665484 
L 90.264823 26.647893 
L 90.368161 26.662273 
L 90.335281 26.604752 
L 90.372858 26.646231 
L 90.767422 26.555759 
L 90.776816 26.598161 
L 90.894246 26.697856 
L 90.917732 26.687511 
L 90.955309 26.643969 
L 91.02107 26.72621 
L 91.039859 26.751234 
L 91.091528 26.637045 
L 91.115014 26.671849 
L 91.293507 26.588898 
L 91.387451 26.684547 
L 91.415634 26.637761 
L 91.547155 26.556851 
L 91.551852 26.564622 
L 91.683373 26.699535 
L 91.575338 26.55095 
L 91.688071 26.690131 
L 91.819592 26.601871 
L 91.871261 26.698433 
L 91.932324 26.61384 
L 92.007479 26.556776 
L 92.054451 26.595648 
L 92.068543 26.644052 
L 92.115515 26.557307 
L 92.162486 26.580451 
L 92.185972 26.602597 
L 92.359768 26.461268 
L 92.449015 26.551746 
L 92.37386 26.45631 
L 92.481895 26.500897 
L 92.716755 26.32422 
L 92.500684 26.517496 
L 92.721452 26.342326 
L 93.139501 26.165165 
L 93.144199 26.172766 
L 93.172382 26.185009 
L 93.228748 26.092224 
L 93.233445 26.091314 
L 93.360269 26.059001 
L 93.364966 26.066552 
L 93.496488 26.173761 
L 93.39315 26.057149 
L 93.501185 26.16307 
L 93.628009 26.081984 
L 93.834685 26.154075 
L 93.848777 26.115168 
L 93.919234 26.023858 
L 93.989692 26.054876 
L 94.036664 26.106685 
L 94.069544 26.025649 
L 94.102425 26.046335 
L 94.572143 25.539779 
L 94.647298 25.644127 
L 94.689573 25.560077 
L 94.868066 25.452217 
L 94.698968 25.576316 
L 94.872763 25.455502 
L 94.966707 25.515533 
L 94.999588 25.45335 
L 95.71356 25.124924 
L 95.718257 25.139254 
L 95.755835 25.212439 
L 95.826292 25.130583 
L 96.394652 24.792711 
L 96.404046 24.806633 
L 96.46511 24.912026 
L 96.521476 24.853253 
L 96.591934 24.89881 
L 96.601328 24.93209 
L 96.652997 24.941076 
L 96.699969 24.881095 
L 96.986498 24.724056 
L 97.056955 24.804677 
L 97.108625 24.76472 
L 97.43273 24.444911 
L 97.437428 24.456422 
L 97.479702 24.34827 
L 97.51728 24.377483 
L 97.639407 24.266552 
L 97.644104 24.272009 
L 97.742745 24.233594 
L 97.761534 24.276073 
L 98.574147 23.869206 
L 98.682182 23.884897 
L 98.644605 23.79447 
L 98.691577 23.865058 
L 98.75264 23.801931 
L 98.757337 23.780942 
L 98.827795 23.740057 
L 98.776126 23.790444 
L 98.87007 23.786493 
L 99.010985 23.674984 
L 99.015683 23.676851 
L 99.034471 23.68749 
L 99.090838 23.585618 
L 99.133112 23.598616 
L 99.23645 23.365822 
L 99.626317 21.456731 
L 99.640408 19.503979 
L 99.649803 9.217636 
L 99.696775 24.059184 
L 99.748444 23.033364 
L 99.814204 19.928691 
L 99.823599 10.068452 
L 99.861176 24.645429 
L 99.92224 23.355139 
L 99.992697 20.451446 
L 100.002092 10.131135 
L 100.044367 24.852497 
L 100.096036 23.756708 
L 100.185282 19.537152 
L 100.194677 10.376647 
L 100.232254 25.038008 
L 100.293317 23.904147 
L 100.391958 20.684296 
L 100.40605 10.591286 
L 100.443627 25.130858 
L 100.490599 24.375449 
L 100.622121 20.95008 
L 100.636212 10.105255 
L 100.678487 25.218649 
L 100.711367 24.747031 
L 100.885163 20.885041 
L 100.899255 10.017638 
L 100.941529 25.301962 
L 100.97441 24.898506 
L 101.19048 20.119376 
L 101.199875 10.071632 
L 101.242149 25.303438 
L 101.293818 24.708533 
L 101.533375 19.339777 
L 101.542769 10.077576 
L 101.585044 25.283488 
L 101.636713 24.68017 
L 101.880967 21.851638 
L 101.913847 19.79324 
L 101.923241 10.040784 
L 101.970213 25.309296 
L 102.017185 24.741581 
L 102.289622 22.138377 
L 102.341291 21.324413 
L 102.355383 19.376836 
L 102.364777 9.952101 
L 102.411749 25.279599 
L 102.458721 24.733567 
L 102.796918 22.14206 
L 102.853284 21.559224 
L 102.87677 18.15862 
L 102.886165 9.997084 
L 102.928439 25.250676 
L 102.980109 24.693243 
L 103.47801 20.948107 
L 103.496799 9.981233 
L 103.539074 25.203946 
L 103.553165 25.125285 
L 103.877271 22.876254 
L 103.881968 22.892588 
L 103.943032 22.704996 
L 103.947729 22.711936 
L 103.980609 22.594981 
L 104.01349 22.61268 
L 104.300018 22.912128 
L 105.28173 25.496314 
L 105.286427 25.473715 
L 105.352188 25.692179 
L 105.540076 25.968053 
L 105.54947 25.959025 
L 105.558864 25.952294 
L 105.601139 26.075181 
L 105.793724 26.3367 
L 105.81721 26.319374 
L 105.91585 26.263863 
L 105.944034 26.284713 
L 105.981611 26.26131 
L 106.009794 26.34518 
L 106.028583 26.342325 
L 106.155407 26.417974 
L 106.06616 26.282673 
L 106.169499 26.375016 
L 106.394964 26.383839 
L 106.648612 26.726164 
L 106.695584 26.661739 
L 106.808316 26.637396 
L 106.813013 26.65094 
L 106.878774 26.733774 
L 106.925746 26.66531 
L 106.963323 26.659439 
L 107.010295 26.731205 
L 107.029084 26.693759 
L 107.141816 26.732285 
L 107.160605 26.715963 
L 107.292126 26.669523 
L 107.301521 26.702454 
L 107.339098 26.676795 
L 107.433042 26.719136 
L 107.498803 26.623726 
L 107.550472 26.695424 
L 107.559866 26.728654 
L 107.606838 26.653365 
L 107.663204 26.696451 
L 107.747753 26.705646 
L 107.691387 26.65073 
L 107.775937 26.691981 
L 107.827606 26.651496 
L 107.883972 26.691131 
L 107.949733 26.686814 
L 107.968521 26.63068 
L 107.973218 26.631711 
L 108.010796 26.588535 
L 108.034282 26.651395 
L 108.085951 26.635806 
L 108.203381 26.727173 
L 108.147014 26.615551 
L 108.222169 26.715367 
L 108.40536 26.655652 
L 108.414754 26.681168 
L 108.522789 26.706899 
L 108.489909 26.658594 
L 108.527487 26.690741 
L 108.574458 26.655891 
L 108.630825 26.720964 
L 109.246156 26.672802 
L 109.297825 26.755096 
L 109.363586 26.714223 
L 109.401163 26.743164 
L 109.37298 26.707713 
L 109.45753 26.684219 
L 109.565565 26.61776 
L 109.574959 26.640977 
L 109.729966 26.651851 
L 109.734664 26.640344 
L 109.79103 26.553556 
L 109.847396 26.59273 
L 109.931946 26.597136 
L 109.899065 26.537784 
L 109.946037 26.56686 
L 110.049375 26.446527 
L 110.086953 26.472989 
L 110.227868 26.615395 
L 110.251354 26.590129 
L 110.317115 26.577669 
L 110.27484 26.608655 
L 110.349995 26.6345 
L 110.838503 26.442864 
L 110.927749 26.456342 
L 110.951235 26.439392 
L 111.073362 26.388902 
L 111.082756 26.408931 
L 111.148517 26.276465 
L 111.289433 26.267187 
L 111.157911 26.25714 
L 111.298827 26.249059 
L 111.303524 26.233483 
L 111.392771 26.322202 
L 111.482017 26.266336 
L 111.486714 26.24726 
L 111.524292 26.19363 
L 111.575961 26.307082 
L 111.590053 26.291513 
L 111.646419 26.26949 
L 111.608841 26.253895 
L 111.665208 26.221415 
L 111.773243 26.125712 
L 111.688694 26.23138 
L 111.787334 26.185672 
L 111.806123 26.252363 
L 111.890673 26.139269 
L 111.89537 26.146093 
L 111.932947 26.038747 
L 111.96113 26.058512 
L 112.064468 25.957335 
L 112.087954 26.045674 
L 112.327511 25.840591 
L 112.106743 26.064199 
L 112.341603 25.852181 
L 112.350997 25.873977 
L 112.421455 25.812811 
L 112.440243 25.808374 
L 112.595251 25.677999 
L 112.604645 25.687486 
L 112.707983 25.680173 
L 112.651617 25.650766 
L 112.71268 25.675169 
L 112.853596 25.48987 
L 112.858293 25.508587 
L 112.994512 25.436571 
L 113.219977 25.16676 
L 113.224674 25.17555 
L 113.370287 25.303929 
L 113.374984 25.301206 
L 113.609843 25.032315 
L 113.619237 25.044919 
L 113.727273 25.179158 
L 113.727273 25.179158 
" style="fill:none;stroke:#000000;stroke-linecap:square;stroke-width:0.3;"/>
   </g>
   <g id="line2d_2">
    <path clip-path="url(#p678551dd5e)" d="M 12.272727 47.043087 
L 12.399551 47.094371 
L 12.516981 47.026373 
L 13.174587 46.632652 
L 13.188679 46.66086 
L 13.226256 46.716674 
L 13.282623 46.600671 
L 13.47051 46.513697 
L 13.545665 46.536448 
L 13.522179 46.499338 
L 13.578545 46.516903 
L 13.686581 46.388055 
L 13.719461 46.39732 
L 13.799313 46.45818 
L 13.832193 46.413633 
L 13.841588 46.371903 
L 13.916743 46.456827 
L 13.940229 46.439063 
L 14.057658 46.52722 
L 14.10463 46.463068 
L 14.391159 46.410225 
L 14.503891 46.332165 
L 14.517983 46.346075 
L 14.616624 46.319875 
L 14.621321 46.308311 
L 14.64011 46.31439 
L 14.743448 46.212356 
L 14.832694 46.196757 
L 14.846786 46.16313 
L 14.860877 46.13081 
L 14.889061 46.198497 
L 14.954821 46.181458 
L 15.081645 46.146237 
L 15.105131 46.201254 
L 15.1568 46.076767 
L 15.194378 46.143784 
L 15.776829 45.97523 
L 15.781526 45.999721 
L 15.823801 46.027405 
L 15.861378 45.930044 
L 15.87547 45.926888 
L 15.894259 45.951045 
L 16.157301 45.708773 
L 16.232456 45.712252 
L 16.204273 45.670192 
L 16.260639 45.669131 
L 16.354583 45.592065 
L 16.39216 45.63319 
L 16.481407 45.675307 
L 16.490801 45.698765 
L 16.518984 45.655978 
L 16.636414 45.694338 
L 16.641111 45.685657 
L 16.69278 45.78253 
L 16.711569 45.7701 
L 16.81021 45.815111 
L 16.735055 45.763598 
L 16.824302 45.80443 
L 16.941731 45.736692 
L 16.871274 45.842986 
L 16.946428 45.743474 
L 17.07795 45.800535 
L 17.190682 45.742472 
L 17.204774 45.756205 
L 17.810711 45.420243 
L 17.928141 45.353503 
L 18.186486 45.154693 
L 17.97981 45.427251 
L 18.19588 45.185707 
L 18.200577 45.196851 
L 18.256944 45.062524 
L 18.440134 44.87397 
L 18.505895 44.789345 
L 18.642113 44.617313 
L 18.534078 44.800875 
L 18.651507 44.627778 
L 18.895761 44.594372 
L 18.900458 44.567806 
L 18.909853 44.577338 
L 19.125923 44.397666 
L 19.313811 44.144046 
L 19.520487 43.735416 
L 19.553367 43.634333 
L 19.656705 42.814586 
L 19.684889 39.696086 
L 19.694283 30.25845 
L 19.745952 45.502216 
L 19.788227 44.884876 
L 19.891565 40.764001 
L 19.900959 30.805191 
L 19.947931 45.77292 
L 19.9996 44.927858 
L 20.093544 42.030924 
L 20.107635 31.046567 
L 20.154607 45.876363 
L 20.18279 45.543277 
L 20.314312 42.243229 
L 20.3331 31.258152 
L 20.380072 46.01591 
L 20.384769 45.97533 
L 20.502199 44.124219 
L 20.577354 41.010367 
L 20.586749 31.204684 
L 20.63372 46.199471 
L 20.680692 45.764197 
L 20.793425 44.217081 
L 20.882671 40.808129 
L 20.892066 31.060765 
L 20.943735 46.434862 
L 20.986009 46.178888 
L 21.103439 45.286326 
L 21.291327 41.891931 
L 21.305418 31.136665 
L 21.357087 46.687064 
L 21.371179 46.655167 
L 21.826806 43.775706 
L 21.95363 41.274178 
L 21.967722 30.9747 
L 22.024088 46.870469 
L 22.052271 46.769391 
L 22.240158 46.505058 
L 22.296525 46.505129 
L 22.310616 46.404442 
L 22.484412 45.918289 
L 22.620631 45.641401 
L 22.634722 45.663614 
L 22.88837 45.316368 
L 22.902462 45.344232 
L 22.921251 45.360145 
L 22.982314 45.286572 
L 22.996406 45.288414 
L 23.095046 45.307947 
L 23.043377 45.337522 
L 23.104441 45.318611 
L 23.254751 45.463819 
L 23.362786 45.973226 
L 23.517793 47.428339 
L 23.522491 47.419232 
L 23.63992 47.499626 
L 23.649315 47.479433 
L 23.752653 47.504289 
L 23.677498 47.531084 
L 23.762047 47.51561 
L 23.884174 47.605713 
L 23.912357 47.573123 
L 24.048575 47.499553 
L 24.05797 47.506134 
L 24.12373 47.581043 
L 24.180097 47.544202 
L 24.264646 47.524047 
L 24.222371 47.601318 
L 24.288132 47.569296 
L 24.386773 47.587742 
L 24.400865 47.575347 
L 24.457231 47.55061 
L 24.419653 47.592942 
L 24.518294 47.589355 
L 24.546477 47.63272 
L 24.593449 47.556516 
L 24.62633 47.573962 
L 24.771942 47.522661 
L 24.851794 47.44499 
L 24.889372 47.458498 
L 24.978619 47.349983 
L 25.011499 47.478486 
L 25.100745 47.607375 
L 25.138323 47.557926 
L 25.246358 47.470859 
L 25.288633 47.533658 
L 25.307422 47.516015 
L 25.471823 47.602319 
L 25.655013 47.371251 
L 25.810021 47.424216 
L 25.673802 47.333567 
L 25.819415 47.37601 
L 26.002605 47.277685 
L 26.012 47.323802 
L 26.04488 47.432574 
L 26.134127 47.560758 
L 26.223373 47.566402 
L 26.16231 47.520322 
L 26.232768 47.52543 
L 26.260951 47.534138 
L 26.354894 47.445336 
L 26.500507 47.43623 
L 26.514599 47.397616 
L 26.617937 47.340821 
L 26.636726 47.364302 
L 26.660212 47.347037 
L 26.749458 47.342787 
L 26.862191 47.27907 
L 26.876282 47.302118 
L 26.965529 47.387085 
L 26.993712 47.31704 
L 27.026592 47.332121 
L 27.073564 47.232481 
L 27.153416 47.18388 
L 27.209782 47.237393 
L 27.21448 47.246312 
L 27.233268 47.197378 
L 27.294332 47.178821 
L 27.299029 47.162798 
L 27.350698 47.350237 
L 27.463431 47.505545 
L 27.482219 47.500065 
L 27.623135 47.594872 
L 27.651318 47.535952 
L 27.792234 47.466932 
L 27.796931 47.480896 
L 27.857994 47.490292 
L 27.876783 47.44986 
L 27.895572 47.458225 
L 27.980121 47.433712 
L 27.942544 47.480441 
L 27.99891 47.489503 
L 28.003607 47.502282 
L 28.074065 47.404485 
L 28.088156 47.413859 
L 28.33241 47.145192 
L 28.393474 47.167656 
L 28.431051 47.104108 
L 28.435748 47.103618 
L 28.581361 47.066193 
L 28.60015 47.118112 
L 28.623636 47.167456 
L 28.694094 47.095288 
L 28.712882 47.146125 
L 28.844404 46.9907 
L 28.947742 46.973778 
L 28.877284 46.942723 
L 28.952439 46.966155 
L 28.994714 47.073621 
L 29.149721 47.498429 
L 29.159115 47.488348 
L 29.713383 47.330836 
L 29.816721 47.231136 
L 29.840207 47.278189 
L 29.976426 47.312387 
L 30.093855 47.213041 
L 30.117341 47.240755 
L 30.187799 47.306413 
L 30.244165 47.273137 
L 30.305229 47.327644 
L 30.375687 47.208239 
L 30.488419 47.224303 
L 30.502511 47.286727 
L 30.507208 47.293759 
L 30.55418 47.172901 
L 30.732673 47.018144 
L 30.73737 47.026144 
L 30.784342 46.922987 
L 30.807828 46.944648 
L 30.845405 46.907977 
L 30.868891 46.983793 
L 30.897074 46.990829 
L 30.991018 47.027141 
L 30.929955 46.922012 
L 31.009807 46.990978 
L 31.460737 46.638949 
L 31.5218 46.530557 
L 31.578166 46.575876 
L 31.676807 46.502055 
L 31.704991 46.565615 
L 31.733174 46.594345 
L 31.794237 46.50949 
L 31.817723 46.564823 
L 31.953941 46.446602 
L 31.958639 46.465516 
L 32.066674 46.498612 
L 32.033794 46.441655 
L 32.076068 46.489904 
L 32.245167 46.341764 
L 32.259259 46.393945 
L 32.315625 46.301912 
L 32.353202 46.3317 
L 32.451843 46.307354 
L 32.433055 46.371025 
L 32.461238 46.347346 
L 32.465935 46.35193 
L 32.512907 46.270903 
L 32.531695 46.272815 
L 32.743069 46.039542 
L 32.766555 46.09209 
L 32.822921 45.987773 
L 32.855801 46.051679 
L 32.865196 46.003359 
L 32.921562 46.065257 
L 32.968534 46.025545 
L 32.996717 45.976626 
L 33.076569 46.013698 
L 33.189302 45.936066 
L 33.203393 45.940396 
L 33.302034 45.9923 
L 33.311429 45.940919 
L 33.391281 45.863085 
L 33.353703 45.948725 
L 33.428858 45.901505 
L 33.438253 45.916372 
L 33.471133 45.85469 
L 33.518105 45.833183 
L 33.630837 45.72554 
L 33.536894 45.877489 
L 33.682506 45.768367 
L 33.77645 45.705349 
L 33.912669 45.545199 
L 33.973732 45.470814 
L 34.114648 45.586999 
L 34.246169 45.521523 
L 34.161619 45.653516 
L 34.255563 45.533774 
L 34.26026 45.552114 
L 34.311929 45.484188 
L 34.354204 45.498023 
L 34.49512 45.416834 
L 34.368296 45.515118 
L 34.504514 45.436828 
L 34.513908 45.455194 
L 34.579669 45.350491 
L 34.593761 45.374288 
L 34.64543 45.407978 
L 34.758162 45.236694 
L 34.805134 45.20312 
L 34.79574 45.150472 
L 34.82862 45.172578 
L 34.936655 45.061778 
L 34.955444 45.074588 
L 35.199698 44.914441 
L 35.284247 45.00412 
L 35.31243 44.923004 
L 35.556684 44.66332 
L 35.702297 44.466302 
L 35.791543 44.413299 
L 35.796241 44.385969 
L 35.988825 44.056425 
L 35.993522 44.06234 
L 36.026403 43.929762 
L 36.040494 43.946759 
L 36.082769 43.844228 
L 36.270656 42.099938 
L 36.289445 30.292948 
L 36.341114 45.357056 
L 36.350509 45.251209 
L 36.463241 42.002382 
L 36.477333 30.819239 
L 36.524305 45.596563 
L 36.557185 44.997345 
L 36.651129 41.046081 
L 36.660523 31.171717 
L 36.702798 45.652781 
L 36.759164 44.586999 
L 36.834319 41.68688 
L 36.84841 31.627812 
L 36.890685 45.789122 
L 36.93296 45.144046 
L 37.040995 41.57906 
L 37.055087 31.739267 
L 37.097361 45.941846 
L 37.139636 45.439563 
L 37.275855 42.01059 
L 37.289946 31.43049 
L 37.336918 46.121003 
L 37.360404 45.921969 
L 37.435559 45.021259 
L 37.56708 41.729982 
L 37.581172 31.203394 
L 37.628144 46.381635 
L 37.661024 46.180561 
L 37.891186 43.623719 
L 37.961644 41.43648 
L 37.975735 31.235361 
L 38.027404 46.629949 
L 38.060285 46.5013 
L 38.572278 42.691858 
L 38.595764 41.309381 
L 38.609856 31.015517 
L 38.666222 46.85639 
L 38.694405 46.755295 
L 39.361406 45.565905 
L 39.427166 45.449605 
L 39.539899 45.328699 
L 39.563385 45.358426 
L 39.793547 45.655693 
L 39.572779 45.348834 
L 39.798244 45.634929 
L 39.849913 45.623969 
L 39.882793 45.714389 
L 39.920371 45.84845 
L 40.08947 47.489089 
L 40.188111 47.573065 
L 40.225688 47.651457 
L 40.300843 47.603426 
L 40.343118 47.5099 
L 40.432364 47.567428 
L 40.531005 47.585067 
L 40.535702 47.599226 
L 40.60616 47.643359 
L 40.577977 47.589636 
L 40.648435 47.611627 
L 40.742379 47.559631 
L 40.667224 47.6193 
L 40.765865 47.570957 
L 40.775259 47.604273 
L 40.808139 47.535317 
L 40.8739 47.560497 
L 41.052393 47.550972 
L 41.165125 47.592283 
L 41.169823 47.58793 
L 41.216795 47.617076 
L 41.244978 47.551585 
L 41.277858 47.562878 
L 41.47514 47.382765 
L 41.517415 47.416458 
L 41.644239 47.492552 
L 41.648936 47.46984 
L 41.705302 47.438041 
L 41.74288 47.523659 
L 41.860309 47.590795 
L 41.865006 47.559586 
L 41.921373 47.527574 
L 41.95895 47.604461 
L 41.968344 47.595576 
L 41.973042 47.610715 
L 42.015316 47.531573 
L 42.07638 47.57485 
L 42.193809 47.460888 
L 42.203204 47.484507 
L 42.339422 47.435004 
L 42.353514 47.469195 
L 42.423972 47.505129 
L 42.372303 47.45185 
L 42.461549 47.462184 
L 42.780958 47.29448 
L 43.006423 47.548591 
L 43.105064 47.555271 
L 43.119155 47.516726 
L 43.123853 47.494616 
L 43.19431 47.576531 
L 43.217796 47.579822 
L 43.302346 47.492499 
L 43.231888 47.592052 
L 43.354015 47.564951 
L 43.386895 47.596069 
L 43.433867 47.493264 
L 43.452656 47.511761 
L 43.565388 47.462112 
L 43.49493 47.541062 
L 43.57948 47.480127 
L 43.687515 47.405876 
L 43.711001 47.424267 
L 43.903586 47.244516 
L 43.908283 47.27124 
L 43.969346 47.144901 
L 44.002227 47.190486 
L 44.025712 47.176629 
L 44.058593 47.254492 
L 44.100867 47.243225 
L 44.222994 47.190968 
L 44.227692 47.180477 
L 44.302847 47.250285 
L 44.429671 47.556554 
L 44.439065 47.544495 
L 44.796051 47.416236 
L 44.941664 47.325694 
L 44.951058 47.349762 
L 45.021516 47.449685 
L 45.073185 47.393994 
L 45.251678 47.248066 
L 45.256376 47.251363 
L 45.355016 47.274729 
L 45.293953 47.203089 
L 45.369108 47.240399 
L 45.458355 47.175335 
L 45.48184 47.227642 
L 45.514721 47.232114 
L 45.552298 47.137711 
L 45.707305 46.977932 
L 45.712003 46.985741 
L 45.7167 46.995272 
L 45.78246 46.902069 
L 45.810644 46.790749 
L 45.89989 46.856581 
L 46.007925 46.919156 
L 45.918679 46.819991 
L 46.031411 46.879981 
L 46.299151 46.877069 
L 46.505827 47.541049 
L 46.53401 47.574258 
L 46.698412 47.499856 
L 46.745384 47.56639 
L 46.797053 47.413968 
L 46.914483 47.347562 
L 46.91918 47.349555 
L 46.928574 47.328108 
L 47.06949 47.350066 
L 47.548603 47.037801 
L 47.5533 47.060098 
L 47.590878 46.990103 
L 47.656638 47.033769 
L 47.947864 46.92216 
L 47.666033 47.054838 
L 47.957258 46.952756 
L 48.018322 46.993393 
L 48.060596 46.917168 
L 48.126357 46.916335 
L 48.135751 46.85449 
L 48.281364 46.753271 
L 48.290758 46.779565 
L 48.323639 46.704157 
L 48.394097 46.75098 
L 48.403491 46.781424 
L 48.459857 46.656417 
L 48.497435 46.707484 
L 48.647745 46.754855 
L 48.675928 46.654456 
L 48.708808 46.688379 
L 48.807449 46.63002 
L 48.816843 46.671126 
L 48.891998 46.531755 
L 48.901393 46.539317 
L 49.079886 46.337112 
L 49.084583 46.351061 
L 49.286562 46.447708 
L 49.291259 46.405312 
L 50.019323 46.099489 
L 50.028718 46.130636 
L 50.070992 46.16138 
L 50.103873 46.037932 
L 50.14145 46.064588 
L 50.221302 46.013894 
L 50.29176 46.036841 
L 50.263577 45.994088 
L 50.32464 45.982856 
L 50.456162 45.922778 
L 50.611169 45.930157 
L 50.620563 45.877284 
L 50.747387 45.725176 
L 50.817845 45.693186 
L 50.855423 45.743125 
L 51.071493 45.763712 
L 51.07619 45.741513 
L 51.19362 45.667684 
L 51.203014 45.697384 
L 51.362719 45.479219 
L 51.381508 45.512981 
L 51.574092 45.337165 
L 51.682128 45.179732 
L 51.710311 45.210087 
L 51.76198 45.270753 
L 51.823043 45.199134 
L 52.42898 45.080602 
L 52.682628 44.808313 
L 52.438375 45.09527 
L 52.701417 44.846845 
L 52.804755 44.901035 
L 52.823544 44.849885 
L 52.870516 44.752577 
L 53.091284 44.440113 
L 53.11477 44.464857 
L 53.18053 44.385105 
L 53.185227 44.392569 
L 53.321446 44.1795 
L 53.326143 44.182553 
L 53.354326 44.088303 
L 53.561002 43.536222 
L 53.5657 43.556263 
L 53.626763 43.352181 
L 53.654946 43.23218 
L 53.71601 41.682981 
L 53.730101 30.337063 
L 53.78177 45.405765 
L 53.814651 44.943568 
L 53.913291 41.684931 
L 53.927383 31.116919 
L 53.969658 45.686821 
L 54.011932 45.031643 
L 54.110573 41.464524 
L 54.119968 31.248097 
L 54.16694 45.795769 
L 54.213911 45.06718 
L 54.31725 41.54727 
L 54.326644 31.646077 
L 54.373616 45.947436 
L 54.420588 45.357448 
L 54.547412 41.918033 
L 54.561503 31.198599 
L 54.608475 46.162153 
L 54.636658 45.89858 
L 54.758785 44.092421 
L 54.838637 40.706302 
L 54.848032 31.15693 
L 54.895004 46.331676 
L 54.941975 46.050408 
L 55.096983 44.337447 
L 55.200321 41.504837 
L 55.214412 31.225837 
L 55.266081 46.605504 
L 55.298962 46.476275 
L 55.571399 44.632954 
L 55.749892 41.623677 
L 55.763983 30.922398 
L 55.815652 46.828201 
L 55.839138 46.755574 
L 56.041117 46.373382 
L 56.088089 46.268448 
L 56.322948 45.404478 
L 56.327646 45.423329 
L 56.384012 45.195233 
L 56.440378 45.07489 
L 56.877217 44.303161 
L 56.896005 44.31435 
L 57.041618 44.439047 
L 57.065104 44.406097 
L 57.069801 44.398757 
L 57.12147 44.491897 
L 57.135562 44.497741 
L 57.243597 44.585894 
L 57.257689 44.568592 
L 57.544217 45.53693 
L 57.713316 47.408753 
L 57.741499 47.49129 
L 57.802562 47.480563 
L 57.882415 47.596873 
L 57.919992 47.538045 
L 58.018633 47.516264 
L 58.046816 47.544252 
L 58.150154 47.647301 
L 58.17364 47.632271 
L 58.230006 47.559449 
L 58.25819 47.667967 
L 58.286373 47.631144 
L 58.460169 47.525668 
L 58.62457 47.660291 
L 58.633965 47.648055 
L 58.770183 47.52411 
L 58.784275 47.546777 
L 58.943979 47.47724 
L 58.817155 47.588979 
L 58.953373 47.500042 
L 58.962768 47.526644 
L 59.028528 47.459174 
L 59.061409 47.476022 
L 59.113078 47.424843 
L 59.131866 47.527224 
L 59.169444 47.485396 
L 59.268085 47.586453 
L 59.291571 47.5613 
L 59.52643 47.518625 
L 59.634465 47.389426 
L 59.549916 47.533385 
L 59.662649 47.39738 
L 59.704923 47.384023 
L 59.775381 47.468441 
L 59.897508 47.266052 
L 59.911599 47.323822 
L 60.16055 47.230299 
L 60.174642 47.3149 
L 60.292072 47.470807 
L 60.301466 47.464445 
L 60.418896 47.606464 
L 60.475262 47.545687 
L 60.602086 47.456303 
L 60.484656 47.55799 
L 60.61148 47.469477 
L 60.724213 47.484223 
L 60.686635 47.395643 
L 60.733607 47.470238 
L 60.789973 47.361647 
L 60.855734 47.278242 
L 60.9121 47.322 
L 61.006044 47.366544 
L 60.940283 47.295713 
L 61.02953 47.324828 
L 61.175143 47.207039 
L 61.071805 47.346003 
L 61.193932 47.219791 
L 61.208023 47.233968 
L 61.278481 47.123897 
L 61.283178 47.134056 
L 61.424094 47.171766 
L 61.358333 47.079475 
L 61.428791 47.168674 
L 61.536826 47.148716 
L 61.546221 47.177922 
L 61.677742 47.517721 
L 61.691833 47.511898 
L 61.743502 47.459314 
L 61.809263 47.47904 
L 61.818657 47.507932 
L 61.875024 47.447119 
L 61.912601 47.45042 
L 61.992453 47.467583 
L 61.936087 47.507185 
L 62.015939 47.491604 
L 62.067608 47.535353 
L 62.109883 47.451737 
L 62.156855 47.467802 
L 62.23201 47.419824 
L 62.278982 47.501383 
L 62.241404 47.410953 
L 62.358834 47.422531 
L 62.527933 47.218752 
L 62.53263 47.227654 
L 62.584299 47.147573 
L 62.612482 47.162441 
L 62.720517 47.122527 
L 62.631271 47.195101 
L 62.729912 47.142677 
L 62.908405 47.043064 
L 62.913102 47.017759 
L 63.002349 47.130668 
L 63.180842 47.069728 
L 63.2513 47.048312 
L 63.265391 47.114224 
L 63.415701 47.49005 
L 64.378624 47.140727 
L 64.524237 46.994851 
L 64.528934 47.008417 
L 64.608787 46.898982 
L 64.768491 46.829624 
L 64.777885 46.869616 
L 64.848343 46.797979 
L 64.876526 46.816615 
L 64.895315 46.858112 
L 64.951681 46.751618 
L 64.989259 46.82366 
L 65.097294 46.79509 
L 65.008048 46.859675 
L 65.106688 46.83216 
L 65.181843 46.850834 
L 65.134872 46.808573 
L 65.214724 46.795816 
L 65.27109 46.790397 
L 65.299273 46.844202 
L 65.313365 46.847139 
L 65.38852 46.799431 
L 65.350942 46.768024 
L 65.393217 46.785715 
L 65.487161 46.801675 
L 65.473069 46.828369 
L 65.496555 46.813035 
L 65.581104 46.889172 
L 65.510647 46.803915 
L 65.609287 46.833023 
L 65.707928 46.812589 
L 65.731414 46.844759 
L 65.745506 46.879125 
L 65.825358 46.801914 
L 65.900513 46.710981 
L 65.834752 46.810478 
L 65.947485 46.750269 
L 65.952182 46.780767 
L 65.994457 46.734922 
L 66.050823 46.72756 
L 66.187041 46.540878 
L 66.196436 46.550679 
L 66.248105 46.625671 
L 66.29038 46.518296 
L 66.295077 46.517645 
L 66.365535 46.418653 
L 66.435992 46.455689 
L 66.637971 46.482281 
L 66.647366 46.434871 
L 66.802373 46.365969 
L 66.670852 46.473439 
L 66.80707 46.395425 
L 66.877528 46.36094 
L 66.839951 46.34756 
L 66.886922 46.338702 
L 67.023141 46.234879 
L 67.027838 46.245752 
L 67.093599 46.275821 
L 67.121782 46.193403 
L 67.253303 46.133765 
L 67.337852 46.104025 
L 67.300275 46.048613 
L 67.347247 46.083281 
L 67.455282 46.070152 
L 67.459979 46.093196 
L 67.610289 46.165024 
L 67.619684 46.149691 
L 67.882726 46.003414 
L 67.901515 46.037126 
L 67.906212 46.054933 
L 67.986064 45.986378 
L 68.00955 46.01579 
L 68.131677 45.918976 
L 68.145769 45.932055 
L 68.281987 46.035262 
L 68.361839 45.893684 
L 68.418205 45.946981 
L 68.507452 45.963244 
L 68.451086 45.858761 
L 68.521544 45.929235 
L 68.526241 45.90116 
L 68.568515 45.953444 
L 68.629579 45.943568 
L 69.06172 45.824871 
L 69.113389 45.755039 
L 69.174453 45.823238 
L 69.273093 45.763569 
L 69.296579 45.816732 
L 69.32946 45.762606 
L 69.404615 45.790212 
L 69.428101 45.785821 
L 69.446889 45.711479 
L 69.465678 45.706826 
L 69.564319 45.670319 
L 69.507953 45.763122 
L 69.587805 45.699114 
L 69.700537 45.735606 
L 69.81327 45.613615 
L 69.827362 45.629112 
L 69.836756 45.658267 
L 69.902517 45.552616 
L 69.9307 45.597341 
L 70.099798 45.442564 
L 70.132679 45.500955 
L 70.198439 45.462453 
L 70.160862 45.434007 
L 70.212531 45.424842 
L 70.268897 45.317676 
L 70.560123 45.125226 
L 70.56482 45.147087 
L 70.569517 45.160175 
L 70.607095 45.067715 
L 70.658764 45.083605 
L 70.672855 45.125087 
L 70.738616 45.028752 
L 70.762102 45.043529 
L 71.776694 44.144854 
L 71.941096 43.730154 
L 72.039737 43.158285 
L 72.091406 41.706534 
L 72.105497 30.365088 
L 72.157166 45.47009 
L 72.190047 45.001674 
L 72.298082 41.32424 
L 72.307476 30.81213 
L 72.354448 45.740524 
L 72.40142 44.977561 
L 72.500061 41.240158 
L 72.509455 31.098986 
L 72.556427 45.804242 
L 72.603399 45.068274 
L 72.706737 42.009064 
L 72.720829 31.237496 
L 72.767801 45.923221 
L 72.795984 45.599729 
L 72.946294 41.228299 
L 72.955688 31.214213 
L 73.00266 46.145231 
L 73.049632 45.708321 
L 73.214033 42.728756 
L 73.232822 41.256428 
L 73.242217 31.265492 
L 73.289188 46.355488 
L 73.33616 46.063873 
L 73.514653 44.024092 
L 73.6039 40.939553 
L 73.613294 31.010471 
L 73.664963 46.606014 
L 73.707238 46.428449 
L 73.974978 44.613687 
L 74.153471 41.633802 
L 74.167562 30.905265 
L 74.219232 46.818757 
L 74.247415 46.716969 
L 74.346056 46.561067 
L 74.519852 46.141331 
L 74.524549 46.143168 
L 74.815774 45.256129 
L 74.820471 45.265997 
L 74.867443 45.126025 
L 74.872141 45.124129 
L 74.928507 45.112279 
L 75.088211 47.143451 
L 75.337162 47.443825 
L 75.412317 47.493718 
L 75.370042 47.500765 
L 75.426409 47.516887 
L 75.567324 47.643479 
L 75.618993 47.599003 
L 75.59081 47.654895 
L 75.680057 47.645238 
L 75.811578 47.59803 
L 75.816275 47.614292 
L 75.835064 47.637126 
L 75.89143 47.548838 
L 75.914916 47.553217 
L 75.919613 47.547478 
L 75.966585 47.656972 
L 76.022951 47.665479 
L 76.032346 47.606677 
L 76.065226 47.608444 
L 76.417515 47.521282 
L 76.64298 47.321394 
L 76.67586 47.412575 
L 76.821473 47.634916 
L 76.685255 47.406435 
L 76.849656 47.542206 
L 76.901325 47.513595 
L 76.934206 47.557191 
L 76.957692 47.560584 
L 76.967086 47.567204 
L 76.985875 47.510494 
L 77.042241 47.489273 
L 77.150276 47.401762 
L 77.173762 47.42084 
L 77.737425 47.390084 
L 77.840763 47.551328 
L 77.87834 47.50866 
L 77.901826 47.445726 
L 77.972284 47.551996 
L 77.976981 47.552222 
L 78.052136 47.538836 
L 78.033348 47.477911 
L 78.070925 47.500049 
L 78.089714 47.521384 
L 78.240024 47.419758 
L 78.333967 47.468057 
L 78.352756 47.435741 
L 78.470186 47.372683 
L 78.587616 47.36607 
L 78.526552 47.405201 
L 78.592313 47.368757 
L 78.606404 47.393653 
L 78.672165 47.29786 
L 78.690954 47.326865 
L 78.911722 47.301774 
L 78.921116 47.326691 
L 79.000968 47.218431 
L 79.005665 47.231456 
L 79.024454 47.252974 
L 79.132489 47.186983 
L 79.207644 47.095891 
L 79.146581 47.219245 
L 79.226433 47.214618 
L 79.362651 47.542112 
L 79.376743 47.537614 
L 79.400229 47.55815 
L 79.503567 47.492158 
L 79.527053 47.482815 
L 79.625694 47.509103 
L 79.667969 47.438738 
L 79.743124 47.506543 
L 79.747821 47.519301 
L 79.827673 47.416736 
L 79.935708 47.3487 
L 79.945103 47.37698 
L 79.992075 47.344825 
L 80.024955 47.396275 
L 80.053138 47.385029 
L 80.123596 47.394971 
L 80.071927 47.349182 
L 80.142385 47.314671 
L 80.194054 47.22773 
L 80.259814 47.289138 
L 80.2833 47.314327 
L 80.330272 47.261453 
L 80.363152 47.259233 
L 80.607406 47.119308 
L 80.621498 47.144612 
L 80.879843 47.54006 
L 80.903329 47.520875 
L 81.227435 47.36473 
L 81.250921 47.42878 
L 81.344864 47.428234 
L 81.274407 47.401279 
L 81.354259 47.411368 
L 81.457597 47.248434 
L 81.504569 47.280133 
L 81.777006 46.961225 
L 81.528055 47.314378 
L 81.800492 46.987699 
L 81.917921 47.053018 
L 81.922618 47.037836 
L 81.955499 46.982812 
L 81.988379 47.064496 
L 82.040048 47.015795 
L 82.157478 46.935467 
L 82.176267 46.961917 
L 82.481584 46.947703 
L 82.486281 46.975371 
L 82.57083 46.847211 
L 82.575527 46.848375 
L 82.786901 46.724258 
L 83.453901 46.565225 
L 83.463296 46.59389 
L 83.547845 46.623164 
L 83.576028 46.591918 
L 83.716944 46.487485 
L 84.069233 46.322348 
L 84.07393 46.34219 
L 84.186663 46.265214 
L 84.468494 46.022279 
L 84.473191 46.035506 
L 84.477888 46.058826 
L 84.567135 45.943159 
L 84.670473 45.902967 
L 84.595318 45.965006 
L 84.684565 45.917865 
L 84.778508 45.813307 
L 84.787903 45.783794 
L 84.844269 45.886736 
L 84.872452 45.867863 
L 84.980487 45.899145 
L 84.928818 45.827668 
L 84.989882 45.885144 
L 85.112009 45.809986 
L 85.135494 45.839284 
L 85.205952 45.746708 
L 85.210649 45.753195 
L 85.332776 45.692503 
L 85.365657 45.78538 
L 85.422023 45.804503 
L 85.473692 45.758528 
L 85.548847 45.706964 
L 85.506572 45.696114 
L 85.553544 45.69263 
L 85.656882 45.696526 
L 85.600516 45.730121 
L 85.661579 45.72008 
L 85.802495 45.795564 
L 85.816587 45.745956 
L 85.943411 45.609276 
L 85.948108 45.629056 
L 85.971594 45.662572 
L 86.032657 45.584041 
L 86.056143 45.621109 
L 86.103115 45.557384 
L 86.173573 45.610967 
L 86.17827 45.624026 
L 86.244031 45.53492 
L 86.276911 45.583414 
L 86.314488 45.629137 
L 86.464798 45.484821 
L 86.948609 45.117514 
L 86.474193 45.503002 
L 86.953306 45.144117 
L 86.976792 45.17202 
L 87.014369 45.053716 
L 87.037855 45.06393 
L 87.188165 44.795014 
L 87.291503 44.813574 
L 87.235137 44.748687 
L 87.305595 44.780506 
L 87.399539 44.712112 
L 87.446511 44.779558 
L 87.460602 44.802226 
L 87.516968 44.681342 
L 87.521666 44.684183 
L 87.676673 44.499559 
L 87.68137 44.507449 
L 87.686067 44.523239 
L 87.751828 44.384624 
L 87.958504 43.987524 
L 87.963201 43.990588 
L 88.000779 43.885047 
L 88.198061 42.640073 
L 88.216849 41.409526 
L 88.230941 30.319518 
L 88.277913 45.414499 
L 88.320187 44.773905 
L 88.409434 41.822117 
L 88.423525 30.956252 
L 88.4658 45.614343 
L 88.508075 44.923295 
L 88.602019 39.714315 
L 88.611413 31.561689 
L 88.653688 45.69052 
L 88.710054 44.642986 
L 88.789906 41.678106 
L 88.803998 31.604615 
L 88.846272 45.805935 
L 88.888547 45.193746 
L 89.00128 41.575543 
L 89.015371 31.711123 
L 89.057646 45.993074 
L 89.09992 45.522111 
L 89.222047 43.033036 
L 89.25023 40.976551 
L 89.259625 31.187261 
L 89.306597 46.229272 
L 89.353569 45.847582 
L 89.48509 44.0517 
L 89.564942 41.524858 
L 89.579034 31.328099 
L 89.626005 46.454952 
L 89.663583 46.254314 
L 89.837379 44.805739 
L 89.992386 41.976488 
L 90.011175 31.293997 
L 90.058147 46.711426 
L 90.067541 46.703905 
L 90.532563 44.179174 
L 90.748633 41.678039 
L 90.762725 30.794236 
L 90.819091 46.883857 
L 90.83788 46.810023 
L 90.842577 46.815694 
L 90.884852 46.701581 
L 90.889549 46.706424 
L 91.05395 46.542383 
L 91.115014 46.517552 
L 91.124408 46.457891 
L 91.472 46.135069 
L 91.481394 46.150133 
L 91.880655 46.384405 
L 92.026268 47.472242 
L 92.030965 47.468866 
L 92.181275 47.578476 
L 92.19067 47.538983 
L 92.284613 47.511867 
L 92.22355 47.560527 
L 92.298705 47.533996 
L 92.430226 47.641336 
L 92.434923 47.630404 
L 92.585233 47.576395 
L 92.70736 47.545515 
L 92.594628 47.553487 
L 92.712057 47.529668 
L 92.726149 47.49512 
L 92.810698 47.562173 
L 92.820093 47.554313 
L 92.904642 47.624016 
L 92.94222 47.606542 
L 93.022072 47.59489 
L 92.951614 47.596931 
L 93.04086 47.566066 
L 93.144199 47.509873 
L 93.069044 47.589221 
L 93.162987 47.532222 
L 93.317995 47.435219 
L 93.383755 47.489227 
L 93.449516 47.391325 
L 93.637403 47.599708 
L 93.651495 47.576117 
L 94.309101 47.442884 
L 94.445319 47.312405 
L 94.558052 47.581202 
L 94.595629 47.541764 
L 94.623813 47.576777 
L 94.717756 47.522318 
L 94.868066 47.57661 
L 94.980799 47.540494 
L 94.933827 47.616124 
L 94.990193 47.554407 
L 95.163989 47.388968 
L 95.196869 47.412684 
L 95.248538 47.495592 
L 95.365968 47.351375 
L 95.384757 47.359469 
L 95.427032 47.306583 
L 95.450517 47.300936 
L 95.492792 47.309789 
L 95.582039 47.181133 
L 95.652497 47.228981 
L 95.68068 47.146823 
L 95.821595 47.064993 
L 95.83099 47.087696 
L 95.901447 47.002447 
L 95.920236 47.011822 
L 96.004786 46.972385 
L 96.032969 47.040475 
L 96.098729 46.962524 
L 96.112821 47.079068 
L 96.230251 47.44875 
L 96.272525 47.440813 
L 96.455716 47.510419 
L 96.479201 47.563081 
L 96.49799 47.488661 
L 96.573145 47.514138 
L 96.878462 47.367045 
L 96.887857 47.330144 
L 96.925434 47.415422 
L 96.981801 47.394799 
L 96.986498 47.397445 
L 97.005286 47.32292 
L 97.03347 47.299439 
L 97.193174 47.077072 
L 97.207265 47.049991 
L 97.315301 47.061294 
L 97.404547 47.044038 
L 97.423336 47.062064 
L 97.437428 47.097261 
L 97.512583 46.994587 
L 97.526674 47.004295 
L 97.568949 46.901291 
L 97.587738 47.075338 
L 97.78502 47.573204 
L 97.794414 47.569986 
L 98.170189 47.356611 
L 98.188978 47.410526 
L 98.207766 47.445199 
L 98.217161 47.383141 
L 98.287619 47.370635 
L 99.38676 46.607546 
L 99.508887 46.524396 
L 99.513584 46.528041 
L 99.602831 46.495093 
L 99.546465 46.486154 
L 99.612225 46.485518 
L 99.616923 46.464691 
L 99.710866 46.551061 
L 99.814204 46.585362 
L 99.926937 46.644064 
L 99.936331 46.629879 
L 100.034972 46.563624 
L 99.988 46.668866 
L 100.049064 46.615795 
L 100.077247 46.69423 
L 100.152402 46.573989 
L 100.260437 46.573199 
L 100.180585 46.614878 
L 100.265134 46.57868 
L 100.307409 46.5925 
L 100.293317 46.546256 
L 100.368472 46.543738 
L 100.499994 46.459386 
L 100.55636 46.502102 
L 100.612726 46.435321 
L 100.720761 46.375647 
L 100.833494 46.322387 
L 100.748945 46.399543 
L 100.842888 46.3377 
L 100.932135 46.349014 
L 100.866374 46.319775 
L 100.941529 46.321525 
L 101.04017 46.234577 
L 100.960318 46.328373 
L 101.058959 46.250103 
L 101.134114 46.306566 
L 101.077748 46.240458 
L 101.176389 46.261521 
L 101.509889 46.198262 
L 101.514586 46.209678 
L 101.580347 46.279497 
L 101.632016 46.224802 
L 101.829298 46.154504 
L 101.843389 46.175358 
L 101.946727 46.12138 
L 102.289622 45.904297 
L 102.303714 45.855291 
L 102.383566 45.954038 
L 102.39296 45.952148 
L 102.42584 45.936544 
L 102.468115 45.988618 
L 102.500995 45.980023 
L 102.679489 45.9231 
L 102.515087 46.001617 
L 102.684186 45.945686 
L 102.84389 46.122762 
L 102.853284 46.098098 
L 103.14451 45.909606 
L 103.205573 45.936963 
L 103.257243 45.882112 
L 103.365278 45.841167 
L 103.271334 45.897773 
L 103.388764 45.861633 
L 103.426341 45.940904 
L 103.501496 45.866691 
L 103.609532 45.779166 
L 103.62832 45.8291 
L 103.661201 45.896529 
L 103.708173 45.75121 
L 103.726961 45.777772 
L 104.375173 45.670541 
L 104.520786 45.565851 
L 104.736857 45.342894 
L 104.750948 45.403191 
L 104.835497 45.304246 
L 104.840195 45.310698 
L 104.971716 45.196255 
L 104.976413 45.206285 
L 105.056265 45.188634 
L 105.028082 45.165607 
L 105.075054 45.155847 
L 105.183089 45.110814 
L 105.187786 45.119746 
L 105.201878 45.157408 
L 105.286427 45.068694 
L 105.291125 45.078517 
L 105.328702 45.073722 
L 105.305216 45.052006 
L 105.375674 45.013745 
L 105.436737 45.045726 
L 105.502498 44.982658 
L 105.507195 44.992714 
L 105.563561 44.905956 
L 105.572956 44.902944 
L 105.605836 44.915012 
L 105.69978 44.803277 
L 105.713871 44.805986 
L 105.751449 44.727035 
L 105.770238 44.713439 
L 105.906456 44.503732 
L 105.911153 44.514859 
L 105.953428 44.392693 
L 106.0004 44.462984 
L 106.11783 44.364555 
L 106.122527 44.395248 
L 106.127224 44.404313 
L 106.174196 44.259819 
L 106.207076 44.283042 
L 106.549971 43.034314 
L 106.587548 41.703025 
L 106.60164 30.320059 
L 106.653309 45.492391 
L 106.686189 45.050274 
L 106.798922 40.279259 
L 106.808316 30.94927 
L 106.850591 45.736559 
L 106.906957 44.86456 
L 107.000901 41.257573 
L 107.010295 31.121424 
L 107.05257 45.803738 
L 107.104239 45.091211 
L 107.212274 41.261907 
L 107.221669 31.245904 
L 107.26864 45.951111 
L 107.315612 45.350581 
L 107.447133 41.758766 
L 107.461225 31.314667 
L 107.508197 46.128638 
L 107.541077 45.84577 
L 107.728965 42.21228 
L 107.747753 31.15126 
L 107.790028 46.296207 
L 107.794725 46.352893 
L 107.865183 45.879609 
L 108.015493 44.013004 
L 108.109437 40.837303 
L 108.118831 31.083741 
L 108.1705 46.586033 
L 108.212775 46.383266 
L 108.475817 44.411994 
L 108.630825 40.751382 
L 108.640219 30.90544 
L 108.696585 46.818826 
L 108.734163 46.71639 
L 108.823409 46.54416 
L 109.556171 44.651881 
L 109.734664 44.495136 
L 109.584354 44.703042 
L 109.739361 44.498519 
L 109.875579 45.305955 
L 110.039981 47.270646 
L 110.500305 47.627902 
L 110.514397 47.594428 
L 110.589552 47.496026 
L 110.631826 47.565506 
L 110.641221 47.595635 
L 110.669404 47.492934 
L 110.735165 47.527067 
L 110.861989 47.545302 
L 110.87608 47.534555 
L 110.99351 47.532598 
L 110.90896 47.610155 
L 111.007601 47.560852 
L 111.073362 47.587698 
L 111.049876 47.521408 
L 111.115637 47.566681 
L 111.157911 47.462768 
L 111.237764 47.516074 
L 111.350496 47.544561 
L 111.322313 47.463224 
L 111.35989 47.532553 
L 111.566567 47.325119 
L 111.575961 47.338084 
L 111.721574 47.547578 
L 111.843701 47.571396 
L 111.857792 47.540104 
L 112.022194 47.511515 
L 112.07856 47.429875 
L 112.134926 47.483594 
L 112.219476 47.493016 
L 112.172504 47.455493 
L 112.242962 47.470188 
L 112.336905 47.432963 
L 112.266448 47.493419 
L 112.360391 47.441294 
L 112.491913 47.44605 
L 112.37918 47.411856 
L 112.501307 47.41782 
L 112.651617 47.263039 
L 112.820716 47.546613 
L 112.86299 47.540455 
L 112.900568 47.468847 
L 112.909962 47.488273 
L 113.0133 47.481521 
L 112.994512 47.589694 
L 113.017997 47.485003 
L 113.088455 47.560618 
L 113.032089 47.457223 
L 113.144822 47.517837 
L 113.309223 47.379976 
L 113.393772 47.30788 
L 113.417258 47.376829 
L 113.483019 47.534069 
L 113.544082 47.462382 
L 113.703787 47.269467 
L 113.727273 47.303774 
" style="fill:none;stroke:#000000;stroke-linecap:square;stroke-width:0.3;"/>
   </g>
   <g id="line2d_3">
    <path clip-path="url(#p678551dd5e)" d="M 12.272727 65.737381 
L 12.352579 65.777586 
L 12.380763 65.733508 
L 12.545164 65.594295 
L 12.714263 65.591265 
L 12.71896 65.567284 
L 12.808207 65.512659 
L 12.83639 65.550185 
L 12.967911 65.651254 
L 12.972608 65.629236 
L 13.080643 65.73835 
L 13.108827 65.710543 
L 13.174587 65.650076 
L 13.151101 65.720987 
L 13.221559 65.691704 
L 13.306108 65.739352 
L 13.315503 65.756692 
L 13.362475 65.815775 
L 13.418841 65.715263 
L 13.733552 65.796429 
L 13.940229 66.882855 
L 14.320701 68.252565 
L 14.494497 68.611524 
L 14.626018 68.676923 
L 14.752842 68.737621 
L 14.85618 68.815861 
L 14.964216 69.009077 
L 14.992399 68.954503 
L 15.180286 69.118056 
L 15.025279 68.930495 
L 15.184983 69.111715 
L 15.386962 69.033608 
L 15.194378 69.126394 
L 15.396357 69.069273 
L 15.485603 69.118212 
L 15.509089 69.084977 
L 15.560758 69.137438 
L 15.537272 69.054533 
L 15.626519 69.113357 
L 15.748646 68.958737 
L 15.772132 69.009932 
L 15.833195 69.043241 
L 15.889561 69.017253 
L 15.898956 69.00269 
L 16.02578 69.076365 
L 16.086843 69.106732 
L 16.152604 68.992506 
L 16.307611 68.869223 
L 16.321703 68.900268 
L 16.331097 68.88427 
L 16.47671 68.960625 
L 16.608231 68.853204 
L 16.622323 68.896601 
L 17.059161 68.735657 
L 17.171893 68.846379 
L 17.181288 68.817088 
L 17.214168 68.788223 
L 17.265837 68.884511 
L 17.270534 68.875965 
L 17.340992 68.923178 
L 17.369175 68.833335 
L 17.406753 68.819172 
L 17.430239 68.857474 
L 17.477211 68.850868 
L 17.56176 68.894393 
L 17.589943 68.863113 
L 17.740253 68.703442 
L 17.74495 68.719813 
L 17.815408 68.794696 
L 17.852986 68.706322 
L 17.975112 68.678137 
L 18.144211 68.718258 
L 18.167697 68.771561 
L 18.247549 68.680997 
L 18.350887 68.579153 
L 18.299218 68.693269 
L 18.369676 68.617866 
L 18.383768 68.646981 
L 18.46362 68.588604 
L 18.482409 68.613178 
L 18.571655 68.582688 
L 18.590444 68.614675 
L 18.595141 68.626433 
L 18.656205 68.529464 
L 18.660902 68.529522 
L 18.736057 68.45488 
L 18.778331 68.471115 
L 18.867578 68.396657 
L 18.895761 68.440514 
L 18.909853 68.473289 
L 19.464121 68.027135 
L 19.609734 67.848889 
L 19.614431 67.857884 
L 19.81641 67.7003 
L 19.821107 67.71017 
L 19.825804 67.727299 
L 19.900959 67.599663 
L 19.971417 67.629999 
L 20.023086 67.538267 
L 20.102938 67.575137 
L 20.140516 67.551725 
L 20.262643 67.449803 
L 20.164002 67.56276 
L 20.26734 67.464123 
L 20.370678 67.540899 
L 20.403558 67.513703 
L 20.45053 67.468282 
L 20.516291 67.522531 
L 20.671298 67.388414 
L 20.779333 67.417634 
L 20.708875 67.368073 
L 20.78403 67.386866 
L 20.957826 67.116025 
L 21.089348 66.972271 
L 21.098742 67.011555 
L 21.108136 67.033941 
L 21.187989 66.916229 
L 21.479214 66.774001 
L 21.512094 66.783991 
L 21.554369 66.695674 
L 21.563763 66.699147 
L 21.582552 66.730484 
L 21.709376 66.602534 
L 21.8362 66.474893 
L 21.864383 66.498968 
L 21.869081 66.519201 
L 21.939538 66.372476 
L 21.95363 66.395842 
L 22.28713 66.037061 
L 21.977116 66.420997 
L 22.310616 66.111122 
L 22.362285 66.10199 
L 22.385771 66.034624 
L 22.395166 66.060769 
L 22.52199 65.957552 
L 22.409257 66.070546 
L 22.536081 65.965696 
L 22.540778 65.973104 
L 22.58775 65.879122 
L 22.592447 65.879262 
L 22.653511 65.905599 
L 22.719272 65.767556 
L 23.259448 64.70661 
L 23.334603 63.848896 
L 23.348695 62.209101 
L 23.358089 50.825969 
L 23.405061 68.100554 
L 23.45673 67.540695 
L 23.743258 63.285701 
L 23.75735 51.035004 
L 23.804322 68.411134 
L 23.832505 68.146025 
L 24.264646 62.451246 
L 24.27404 50.922776 
L 24.321012 68.533305 
L 24.367984 68.114382 
L 24.635724 66.390556 
L 24.969224 63.38488 
L 24.983316 50.835217 
L 25.030288 68.605215 
L 25.044379 68.525933 
L 25.368485 66.625911 
L 25.415457 66.489752 
L 25.659711 65.56938 
L 25.77714 65.267259 
L 25.791232 65.276142 
L 25.932148 64.627883 
L 25.997908 63.266292 
L 26.012 50.853152 
L 26.058972 68.614202 
L 26.082458 68.430483 
L 26.289134 66.895058 
L 26.303225 66.896089 
L 26.46293 66.441467 
L 26.467627 66.445908 
L 26.632028 65.9959 
L 27.261451 64.309253 
L 27.294332 62.931519 
L 27.303726 50.828494 
L 27.355395 68.626074 
L 27.392973 68.253006 
L 27.674804 66.643981 
L 27.942544 66.097438 
L 27.947241 66.104929 
L 27.96603 66.099986 
L 27.994213 66.018684 
L 28.219678 65.634909 
L 28.224375 65.643989 
L 28.308924 65.605368 
L 28.276044 65.572966 
L 28.318319 65.583203 
L 28.407565 65.482432 
L 28.581361 65.243732 
L 28.675305 65.109319 
L 28.835009 64.874006 
L 28.839706 64.889208 
L 28.886678 64.694993 
L 28.96653 63.767644 
L 28.980622 60.931174 
L 28.985319 50.949274 
L 29.036988 68.591732 
L 29.08396 68.129712 
L 29.337608 66.718581 
L 29.548982 66.330901 
L 29.558376 66.355763 
L 29.633531 66.223771 
L 29.774447 66.041444 
L 29.642925 66.228412 
L 29.793235 66.068349 
L 30.023398 66.898331 
L 30.032792 66.896275 
L 30.803131 68.533573 
L 30.807828 68.524875 
L 30.868891 68.561297 
L 30.821919 68.542137 
L 30.88768 68.599461 
L 31.15542 68.741231 
L 31.164814 68.725052 
L 31.681505 69.158882 
L 31.714385 69.14369 
L 31.728476 69.186634 
L 31.784843 69.186198 
L 31.831815 69.264654 
L 31.902272 69.184721 
L 31.97273 69.138651 
L 32.010308 69.199131 
L 32.015005 69.22837 
L 32.104251 69.122624 
L 32.113646 69.142044 
L 32.231076 69.202309 
L 32.235773 69.200949 
L 32.42366 69.007115 
L 32.433055 69.036171 
L 32.475329 68.917504 
L 32.484724 68.915242 
L 32.503512 68.938449 
L 32.620942 68.87489 
L 32.635034 68.914539 
L 32.696097 68.820431 
L 32.72428 68.83091 
L 32.794738 68.916006 
L 32.846407 68.83189 
L 32.930956 68.821361 
L 32.940351 68.873101 
L 33.034295 68.937286 
L 33.053083 68.906741 
L 33.193999 68.989474 
L 33.203393 69.022364 
L 33.278548 68.93995 
L 33.297337 68.967697 
L 33.334914 68.988287 
L 33.424161 68.923448 
L 33.438253 68.963022 
L 33.522802 68.867101 
L 33.527499 68.881699 
L 33.607351 68.894277 
L 33.550985 68.86222 
L 33.640232 68.854838 
L 33.771753 68.752491 
L 33.781147 68.773633 
L 33.799936 68.786285 
L 33.828119 68.678127 
L 33.851605 68.688369 
L 33.95964 68.657839 
L 33.912669 68.729751 
L 33.964338 68.675013 
L 33.969035 68.696969 
L 34.053584 68.566528 
L 34.114648 68.461268 
L 34.180408 68.499606 
L 34.288443 68.471217 
L 34.293141 68.450407 
L 34.349507 68.402789 
L 34.326021 68.460414 
L 34.405873 68.448901 
L 34.650127 68.34377 
L 34.668916 68.382681 
L 34.67831 68.405658 
L 34.748768 68.295944 
L 34.852106 68.270469 
L 34.814528 68.317107 
L 34.866198 68.281066 
L 34.908472 68.30327 
L 34.988324 68.254947 
L 35.227881 68.102781 
L 35.293642 67.996308 
L 35.350008 68.046781 
L 35.566078 68.137356 
L 35.364099 67.999832 
L 35.575473 68.126971 
L 35.683508 67.945537 
L 35.702297 67.996607 
L 35.796241 68.009214 
L 35.739874 68.074491 
L 35.805635 68.040331 
L 35.833818 68.077419 
L 35.899579 68.018212 
L 35.91367 68.031226 
L 36.21429 67.536826 
L 36.251868 67.576034 
L 36.33172 67.612117 
L 36.270656 67.542133 
L 36.3646 67.59727 
L 36.566579 67.2914 
L 36.622946 67.313343 
L 36.594762 67.247387 
L 36.674615 67.283353 
L 36.81553 67.105109 
L 36.937657 67.032743 
L 37.078573 66.84543 
L 37.247671 66.853479 
L 37.252369 66.881978 
L 37.327524 66.854098 
L 37.280552 66.840278 
L 37.35101 66.828546 
L 37.473136 66.790298 
L 37.712693 66.822415 
L 37.71739 66.799608 
L 37.773756 66.827772 
L 37.830123 66.802986 
L 37.90058 66.833505 
L 37.844214 66.788709 
L 37.938158 66.794483 
L 38.064982 66.621512 
L 38.069679 66.624077 
L 38.266961 66.353725 
L 38.276355 66.379771 
L 38.365602 66.3504 
L 38.299841 66.338663 
L 38.379694 66.33689 
L 38.774257 65.838648 
L 38.431363 66.376739 
L 38.793046 65.861628 
L 38.882293 65.944337 
L 38.924567 65.90412 
L 39.079574 65.745694 
L 39.178215 65.763321 
L 39.168821 65.718941 
L 39.18761 65.730877 
L 39.276856 65.62273 
L 39.333222 65.645841 
L 39.544596 65.383839 
L 39.901582 63.846932 
L 39.915674 62.217507 
L 39.925068 50.821742 
L 39.97204 68.156389 
L 40.023709 67.585856 
L 40.352512 62.010958 
L 40.361906 51.038469 
L 40.408878 68.420463 
L 40.460547 67.912272 
L 40.812836 65.198544 
L 40.883294 64.446014 
L 40.920872 62.841914 
L 40.930266 50.840787 
L 40.977238 68.552206 
L 41.02421 68.172502 
L 41.428168 65.932349 
L 41.620753 64.88744 
L 41.709999 63.2602 
L 41.724091 50.880884 
L 41.771063 68.628067 
L 41.794549 68.44896 
L 42.043499 66.825267 
L 42.245479 66.198384 
L 42.250176 66.219843 
L 42.306542 65.981939 
L 42.362908 65.810495 
L 42.823233 63.954779 
L 42.842021 61.423935 
L 42.851416 50.965084 
L 42.898388 68.631141 
L 42.950057 68.116991 
L 43.175522 66.819431 
L 43.772064 65.480778 
L 43.776762 65.504565 
L 43.842522 65.418839 
L 43.875402 65.433353 
L 44.24648 64.384327 
L 44.288755 63.370682 
L 44.302847 50.800436 
L 44.349818 68.578569 
L 44.36391 68.4961 
L 44.683319 66.683573 
L 44.734988 66.54166 
L 44.899389 66.206757 
L 44.908784 66.21403 
L 45.331531 65.501503 
L 45.336228 65.509186 
L 45.796552 65.205094 
L 45.923376 65.158952 
L 46.247482 64.379419 
L 46.289757 62.823121 
L 46.299151 50.793122 
L 46.35082 68.575186 
L 46.393095 68.132233 
L 46.65144 66.653936 
L 46.656137 66.658368 
L 46.703109 66.682759 
L 46.740687 66.594755 
L 46.966152 66.238712 
L 46.98494 66.261363 
L 46.989638 66.286107 
L 47.06949 66.13135 
L 47.313743 65.908686 
L 47.337229 65.935728 
L 47.365413 65.889335 
L 47.487539 66.226013 
L 47.858617 67.545453 
L 47.863314 67.538482 
L 47.905589 67.670123 
L 47.924378 67.646491 
L 48.135751 68.096931 
L 48.140448 68.085212 
L 48.849724 69.081511 
L 48.877907 69.028946 
L 48.948365 69.134746 
L 49.122161 69.058227 
L 49.126858 69.066942 
L 49.258379 69.132933 
L 49.136252 69.056079 
L 49.263076 69.123208 
L 49.385203 69.182527 
L 49.272471 69.099094 
L 49.399295 69.140932 
L 49.615365 69.062234 
L 49.62476 69.097069 
L 49.638851 69.085359 
L 49.737492 69.078783 
L 49.822041 69.052102 
L 49.84083 69.117513 
L 49.986443 69.183357 
L 49.99114 69.166282 
L 50.216605 69.007181 
L 50.226 69.014635 
L 50.282366 69.069883 
L 50.334035 68.998157 
L 50.498436 68.768596 
L 50.77557 68.893243 
L 50.808451 68.96147 
L 50.846028 68.866197 
L 50.888303 68.90677 
L 50.968155 68.865969 
L 51.015127 68.899104 
L 51.033916 68.912893 
L 51.07619 68.839543 
L 51.113768 68.865809 
L 51.2265 68.804822 
L 51.231198 68.824727 
L 51.296958 68.735235 
L 51.372113 68.814945 
L 51.480148 68.91987 
L 51.381508 68.808339 
L 51.513029 68.861063 
L 51.663339 68.667374 
L 51.682128 68.710934 
L 51.898198 68.740598 
L 51.902895 68.719457 
L 51.931078 68.67159 
L 52.015628 68.697409 
L 52.086086 68.791279 
L 52.133058 68.721028 
L 52.339734 68.601868 
L 52.367917 68.674345 
L 52.372614 68.692531 
L 52.382008 68.623154 
L 52.471255 68.631972 
L 52.7296 68.588328 
L 52.842333 68.521417 
L 52.851727 68.534009 
L 52.861122 68.541613 
L 52.903396 68.446508 
L 52.931579 68.45625 
L 53.011432 68.420967 
L 53.049009 68.455153 
L 53.302657 68.348826 
L 53.405995 68.339039 
L 53.359023 68.375218 
L 53.410692 68.369653 
L 53.561002 68.275248 
L 53.570397 68.282092 
L 53.74889 68.225981 
L 53.758284 68.240522 
L 53.838136 68.35736 
L 53.8992 68.339128 
L 53.988446 68.21231 
L 54.026024 68.233727 
L 54.157545 68.107335 
L 54.162242 68.117942 
L 54.213911 67.966193 
L 54.599081 67.476691 
L 54.61787 67.494767 
L 54.68363 67.399774 
L 54.782271 67.229988 
L 54.819849 67.246628 
L 54.852729 67.306704 
L 54.923187 67.212048 
L 55.76868 66.665273 
L 55.796863 66.748986 
L 55.810955 66.778696 
L 55.872018 66.645159 
L 55.88611 66.671235 
L 56.027026 66.516614 
L 56.102181 66.552818 
L 56.0693 66.497895 
L 56.130364 66.476109 
L 56.144455 66.489671 
L 56.182033 66.399215 
L 56.308857 66.272574 
L 56.327646 66.259112 
L 56.355829 66.182675 
L 56.365223 66.185849 
L 56.52023 66.050875 
L 56.590688 66.100441 
L 56.529625 66.042561 
L 56.63766 66.058106 
L 56.849033 65.890645 
L 56.858428 65.903711 
L 56.863125 65.915874 
L 56.924188 65.828628 
L 56.952372 65.846289 
L 57.50664 64.126652 
L 57.530126 62.562288 
L 57.53952 50.789688 
L 57.586492 68.092393 
L 57.633464 67.589704 
L 57.929386 62.598875 
L 57.938781 50.941795 
L 57.985753 68.384624 
L 58.032725 67.920326 
L 58.431985 62.263593 
L 58.44138 50.971812 
L 58.488352 68.517765 
L 58.540021 68.042677 
L 58.854732 65.996328 
L 59.00974 65.011545 
L 59.10838 62.877853 
L 59.117775 50.838878 
L 59.169444 68.593216 
L 59.207021 68.253542 
L 59.564008 66.408691 
L 59.568705 66.419114 
L 59.573402 66.431387 
L 59.620374 66.259192 
L 59.70962 65.892077 
L 60.137064 64.105002 
L 60.16055 62.281211 
L 60.169945 50.852572 
L 60.216917 68.605283 
L 60.263888 68.196272 
L 60.479959 66.878107 
L 60.747699 66.108459 
L 60.757093 66.12565 
L 60.813459 65.960452 
L 61.240903 65.21779 
L 61.245601 65.224657 
L 61.287875 65.115546 
L 61.536826 63.202544 
L 61.550918 50.879316 
L 61.59789 68.599507 
L 61.626073 68.333348 
L 62.152158 66.134998 
L 62.283679 65.9858 
L 62.443383 65.651286 
L 62.452778 65.670722 
L 62.509144 65.650635 
L 62.495052 65.631556 
L 62.537327 65.611391 
L 62.739306 65.303992 
L 62.758095 65.318669 
L 62.819158 65.207951 
L 62.852039 65.221949 
L 62.941285 65.144166 
L 62.95068 65.162498 
L 63.025835 65.059331 
L 63.209025 64.32251 
L 63.246602 63.277603 
L 63.260694 50.829981 
L 63.307666 68.596619 
L 63.331152 68.385602 
L 63.664652 66.591865 
L 63.706927 66.489647 
L 63.721018 66.517628 
L 63.838448 66.286107 
L 63.861934 66.318212 
L 63.871328 66.326712 
L 63.932392 66.231026 
L 64.012244 66.114427 
L 64.200131 65.945339 
L 64.209526 65.984217 
L 64.298772 65.85449 
L 64.434991 65.766363 
L 64.439688 65.773264 
L 64.528934 65.674078 
L 64.651061 65.525697 
L 64.660456 65.531651 
L 64.85304 65.404349 
L 64.867132 65.424978 
L 64.871829 65.441898 
L 64.93759 65.287773 
L 65.00335 65.221438 
L 65.055019 65.243396 
L 65.101991 65.301016 
L 65.144266 65.225141 
L 65.163055 65.235316 
L 65.266393 65.346207 
L 65.552921 66.834622 
L 65.980365 68.233529 
L 65.985062 68.220545 
L 65.98976 68.21216 
L 66.046126 68.314256 
L 66.069612 68.296121 
L 66.266894 68.738275 
L 66.29038 68.714781 
L 66.35614 68.629874 
L 66.403112 68.717427 
L 66.454781 68.813341 
L 66.600394 68.935983 
L 66.727218 68.977224 
L 66.764796 69.0623 
L 66.80707 68.946845 
L 66.839951 68.985006 
L 66.89162 68.985557 
L 66.9245 69.050145 
L 67.023141 69.103003 
L 66.95738 69.04035 
L 67.04193 69.071699 
L 67.262697 68.913369 
L 67.267395 68.93381 
L 67.52574 69.030974 
L 67.605592 68.936477 
L 67.638472 68.992625 
L 67.704233 69.052554 
L 67.746508 69.003423 
L 67.882726 68.868196 
L 68.258501 68.92833 
L 68.319564 68.938512 
L 68.357142 68.891835 
L 68.432297 68.849234 
L 68.474572 68.862993 
L 68.559121 68.844136 
L 68.596699 68.927542 
L 68.690642 68.812822 
L 68.723523 68.82306 
L 68.831558 68.879231 
L 68.751706 68.782785 
L 68.836255 68.846838 
L 68.948988 68.777156 
L 68.967776 68.815015 
L 69.005354 68.827253 
L 69.042931 68.732864 
L 69.103995 68.794517 
L 69.066417 68.780513 
L 69.113389 68.812222 
L 69.122783 68.777987 
L 69.310671 68.857656 
L 69.376432 68.817548 
L 69.338854 68.880829 
L 69.423403 68.86837 
L 69.428101 68.882936 
L 69.507953 68.778854 
L 70.019946 68.343205 
L 70.024643 68.34989 
L 70.142073 68.438657 
L 70.057524 68.325427 
L 70.14677 68.433267 
L 70.320566 68.265903 
L 70.334658 68.311415 
L 70.391024 68.339204 
L 70.437996 68.293052 
L 70.607095 68.04273 
L 70.729221 67.969598 
L 70.762102 67.990666 
L 70.903017 67.984844 
L 70.907715 67.975778 
L 71.001658 67.859375 
L 71.194243 67.697364 
L 71.058025 67.901095 
L 71.203637 67.702391 
L 71.513652 67.512036 
L 71.729722 67.270889 
L 71.73442 67.283807 
L 71.776694 67.218491 
L 71.828363 67.219498 
L 71.931701 67.154001 
L 71.95049 67.212866 
L 71.955187 67.233677 
L 72.03504 67.128968 
L 72.044434 67.13974 
L 72.190047 67.070066 
L 72.194744 67.083818 
L 72.21823 67.002824 
L 72.279293 67.001307 
L 72.481272 66.881461 
L 72.51885 66.905695 
L 72.570519 66.816979 
L 72.899322 66.599462 
L 72.589308 66.841014 
L 72.932202 66.652274 
L 73.030843 66.687017 
L 72.950991 66.643843 
L 73.044935 66.655311 
L 73.232822 66.509414 
L 73.246914 66.54715 
L 73.312674 66.416999 
L 73.542837 66.219818 
L 73.331463 66.440026 
L 73.547534 66.228783 
L 73.575717 66.256205 
L 73.646175 66.163724 
L 73.75421 65.94114 
L 73.801182 65.956345 
L 73.87164 66.011027 
L 73.909217 65.944043 
L 73.932703 65.871562 
L 74.031344 65.907013 
L 74.040738 65.920773 
L 74.308478 65.736807 
L 74.566823 65.500195 
L 74.717133 65.214992 
L 74.721831 65.221173 
L 74.759408 65.097606 
L 74.890929 64.285364 
L 74.92381 62.396928 
L 74.933204 50.800342 
L 74.980176 68.157068 
L 75.027148 67.632281 
L 75.355951 62.713155 
L 75.365345 50.890407 
L 75.412317 68.426371 
L 75.459289 67.96641 
L 75.910219 63.11317 
L 75.92431 51.077919 
L 75.971282 68.549312 
L 76.004163 68.260392 
L 76.332966 66.118091 
L 76.337663 66.123103 
L 76.365846 65.995095 
L 76.638283 63.104822 
L 76.652374 51.000846 
L 76.699346 68.623836 
L 76.732227 68.35228 
L 76.957692 66.929774 
L 77.079819 66.501505 
L 77.699847 64.038428 
L 77.718636 62.906104 
L 77.72803 50.829952 
L 77.779699 68.620488 
L 77.817277 68.257374 
L 78.131988 66.606422 
L 78.14608 66.618977 
L 78.150777 66.628495 
L 78.207143 66.506906 
L 78.550038 65.752521 
L 78.554735 65.759701 
L 78.559432 65.773152 
L 78.611102 65.622292 
L 78.620496 65.62695 
L 78.831869 65.330317 
L 79.038546 64.896738 
L 79.04794 64.91873 
L 79.109003 64.720114 
L 79.193553 63.779145 
L 79.207644 60.963117 
L 79.212341 50.947594 
L 79.264011 68.6049 
L 79.310982 68.121668 
L 79.6163 66.574624 
L 79.912222 66.061462 
L 79.996772 65.907786 
L 80.179962 65.507224 
L 80.184659 65.520743 
L 80.245723 65.384898 
L 80.438307 65.054249 
L 80.447702 65.079227 
L 80.508765 64.905317 
L 80.654378 63.763024 
L 80.668469 61.171364 
L 80.677864 50.983634 
L 80.724836 68.586978 
L 80.771808 68.118815 
L 81.095914 66.599026 
L 81.387139 66.138143 
L 81.415322 66.166963 
L 81.443505 66.06799 
L 81.490477 66.108569 
L 81.513963 66.048289 
L 81.542146 66.037943 
L 81.659576 65.95397 
L 81.664273 65.961993 
L 81.762914 65.987767 
L 81.772308 65.912586 
L 82.162175 65.76851 
L 82.392337 66.231916 
L 82.847964 67.752919 
L 82.899633 67.848076 
L 83.176767 68.391342 
L 83.186162 68.353705 
L 83.383444 68.667809 
L 83.510268 68.801701 
L 83.514965 68.799286 
L 83.524359 68.765169 
L 83.585423 68.850226 
L 83.618303 68.848546 
L 83.782705 69.024425 
L 83.796796 68.982783 
L 83.867254 69.08739 
L 83.871951 69.073112 
L 83.933015 69.064378 
L 83.989381 69.138067 
L 84.088022 69.185899 
L 84.012867 69.096971 
L 84.111508 69.146891 
L 84.205451 69.091617 
L 84.233635 69.10548 
L 84.243029 69.130457 
L 84.304092 68.985254 
L 84.322881 69.007387 
L 85.046248 68.786767 
L 85.074431 68.762847 
L 85.130797 68.8548 
L 85.154283 68.804148 
L 85.257621 68.824764 
L 85.267016 68.839184 
L 85.360959 68.891058 
L 85.379748 68.832892 
L 85.384445 68.836786 
L 85.42672 68.743136 
L 85.440812 68.747273 
L 85.558241 68.722872 
L 85.473692 68.766659 
L 85.572333 68.736669 
L 85.60991 68.810452 
L 85.689763 68.739236 
L 85.69446 68.722138 
L 85.732037 68.799187 
L 85.783706 68.786382 
L 85.854164 68.854255 
L 85.793101 68.776351 
L 85.896439 68.784998 
L 85.915228 68.803778 
L 86.018566 68.709231 
L 86.032657 68.698586 
L 86.159481 68.788511 
L 86.492982 68.780932 
L 86.676172 68.647926 
L 86.680869 68.657939 
L 86.774813 68.720828 
L 86.821785 68.658851 
L 86.826482 68.632459 
L 86.901637 68.714333 
L 86.92982 68.662723 
L 86.943912 68.677226 
L 86.958003 68.61445 
L 87.000278 68.577436 
L 87.221046 68.368649 
L 87.23044 68.404378 
L 87.314989 68.278277 
L 87.446511 68.215952 
L 87.526363 68.149541 
L 87.639095 68.038868 
L 87.657884 68.069933 
L 87.723645 67.999015 
L 87.68137 67.998602 
L 87.728342 67.98372 
L 87.892743 67.724884 
L 88.038356 67.741898 
L 88.061842 67.789361 
L 88.118208 67.635624 
L 88.136997 67.681453 
L 88.226244 67.59474 
L 88.263821 67.63844 
L 88.287307 67.623716 
L 88.310793 67.5483 
L 88.31549 67.547964 
L 88.423525 67.509075 
L 88.353068 67.570047 
L 88.428223 67.515371 
L 88.43292 67.53079 
L 88.503378 67.408492 
L 88.634899 67.295716 
L 88.639596 67.302466 
L 88.76642 67.377879 
L 88.672476 67.269227 
L 88.771117 67.363858 
L 88.803998 67.2757 
L 88.888547 67.304882 
L 88.991885 67.325786 
L 89.00128 67.285019 
L 89.024765 67.30235 
L 89.118709 67.285875 
L 89.146892 67.32927 
L 89.207956 67.246051 
L 89.231442 67.295088 
L 89.480393 67.092164 
L 89.254928 67.320568 
L 89.489787 67.103458 
L 89.536759 67.123864 
L 89.560245 67.058196 
L 89.597822 67.084528 
L 89.677674 66.947077 
L 89.762224 67.009702 
L 89.766921 67.035804 
L 89.860865 66.950501 
L 90.278914 66.660201 
L 90.448013 66.391947 
L 90.60302 66.302017 
L 90.706358 66.22367 
L 90.725147 66.244708 
L 90.856668 66.226914 
L 90.983493 66.07806 
L 90.98819 66.082188 
L 91.152591 65.690412 
L 91.232443 65.730395 
L 91.237141 65.760244 
L 91.331084 65.654324 
L 91.425028 65.621928 
L 91.340479 65.615431 
L 91.434422 65.585417 
L 91.65519 65.228034 
L 91.659887 65.235419 
L 91.711557 65.122149 
L 91.861867 63.814447 
L 91.875958 61.094698 
L 91.880655 50.949001 
L 91.932324 68.129877 
L 91.983993 67.538126 
L 92.284613 62.726048 
L 92.294008 50.90761 
L 92.34098 68.396683 
L 92.387951 67.946007 
L 92.801304 63.087732 
L 92.810698 51.012942 
L 92.862367 68.556205 
L 92.895248 68.25966 
L 93.162987 66.498802 
L 93.186473 66.389303 
L 93.519974 63.399387 
L 93.534065 50.823935 
L 93.585734 68.608824 
L 93.595129 68.527074 
L 93.961509 66.468599 
L 94.036664 66.125766 
L 94.238643 65.28023 
L 94.431228 63.791425 
L 94.445319 61.314454 
L 94.454714 50.999988 
L 94.501686 68.633952 
L 94.548658 68.215717 
L 94.816397 66.745749 
L 94.821094 66.74979 
L 94.825792 66.752171 
L 94.853975 66.679738 
L 94.863369 66.666509 
L 95.070045 66.227434 
L 95.074743 66.236 
L 95.140503 66.125284 
L 95.347179 65.640878 
L 95.351877 65.652194 
L 95.506884 65.478142 
L 95.511581 65.485778 
L 95.558553 65.394509 
L 95.572644 65.387401 
L 95.741743 65.154122 
L 95.74644 65.159473 
L 95.788715 65.082548 
L 95.807504 65.072744 
L 95.995391 64.664852 
L 96.004786 64.678635 
L 96.028272 64.560562 
L 96.089335 63.399928 
L 96.103427 50.785199 
L 96.155096 68.580725 
L 96.16449 68.512118 
L 96.389955 66.775049 
L 96.460413 66.581077 
L 96.596631 66.29978 
L 96.601328 66.310213 
L 96.606026 66.324576 
L 96.681181 66.197274 
L 96.685878 66.20107 
L 96.728152 66.103253 
L 96.920737 65.777799 
L 96.934829 65.787719 
L 96.939526 65.802431 
L 96.995892 65.646051 
L 97.155596 65.384117 
L 97.197871 65.332513 
L 97.207265 65.293123 
L 97.381061 64.982743 
L 97.395153 64.965498 
L 97.404547 64.915204 
L 97.413942 64.898313 
L 97.564252 62.642096 
L 97.573646 50.797611 
L 97.620618 68.598431 
L 97.66759 68.163747 
L 97.893055 66.781819 
L 97.907146 66.813004 
L 98.123217 66.417631 
L 98.127914 66.438751 
L 98.212464 66.312598 
L 98.217161 66.322775 
L 98.259435 66.175717 
L 98.264133 66.176273 
L 98.358076 66.056568 
L 98.409745 66.116324 
L 99.142507 65.80766 
L 98.41914 66.156178 
L 99.147204 65.824098 
L 99.180084 65.880879 
L 99.250542 65.810657 
L 99.391458 65.695973 
L 99.565253 65.919398 
L 99.640408 65.861457 
L 99.598134 65.960671 
L 99.6545 65.957424 
L 99.908148 67.083884 
L 99.941028 67.156134 
L 100.143007 67.899605 
L 100.692578 68.769473 
L 100.701973 68.760099 
L 100.767733 68.736089 
L 100.734853 68.804129 
L 100.814705 68.776749 
L 100.997896 68.959515 
L 101.016684 68.929352 
L 101.030776 68.91471 
L 101.091839 69.025873 
L 101.096536 69.039765 
L 101.176389 68.944711 
L 101.270332 68.882684 
L 101.218663 68.97813 
L 101.289121 68.925074 
L 101.326699 68.931898 
L 101.364276 68.858628 
L 101.434734 68.790387 
L 101.37367 68.86266 
L 101.4911 68.812943 
L 101.664896 68.992965 
L 101.67429 68.98694 
L 101.678988 68.970701 
L 101.740051 69.058875 
L 101.777629 69.02351 
L 101.904453 69.146036 
L 101.94203 69.071545 
L 102.054763 69.035588 
L 102.068854 69.082561 
L 102.082946 69.05215 
L 102.190981 69.041453 
L 102.228559 68.97911 
L 102.294319 69.050326 
L 102.322502 69.112456 
L 102.397657 69.013176 
L 102.435235 68.996018 
L 102.482207 69.084335 
L 102.500995 69.042324 
L 102.505693 69.051113 
L 102.552664 68.944973 
L 102.585545 68.973802 
L 103.233757 68.748913 
L 103.26194 68.837467 
L 103.351186 68.877705 
L 103.374672 68.834873 
L 103.421644 68.844612 
L 103.47801 68.798531 
L 103.614229 68.847014 
L 103.708173 68.854199 
L 103.722264 68.824946 
L 103.853785 68.654856 
L 103.858483 68.669864 
L 103.86318 68.650611 
L 103.924243 68.724601 
L 103.961821 68.711581 
L 104.243652 68.561399 
L 104.253046 68.591732 
L 104.257743 68.602878 
L 104.31411 68.477267 
L 104.328201 68.502365 
L 104.393962 68.54637 
L 104.450328 68.467286 
L 104.666399 68.419052 
L 104.708673 68.476561 
L 104.755645 68.369904 
L 104.769737 68.383307 
L 104.779131 68.356795 
L 104.868378 68.339997 
L 104.990505 68.219996 
L 104.995202 68.238846 
L 105.107934 68.1777 
L 105.230061 68.096325 
L 105.239456 68.113799 
L 105.244153 68.144143 
L 105.338096 68.047054 
L 105.488406 68.040045 
L 105.493104 68.049484 
L 105.554167 68.083795 
L 105.58235 68.033983 
L 105.601139 68.035646 
L 106.014491 67.885929 
L 106.023886 67.907114 
L 106.052069 67.924234 
L 106.11783 67.82226 
L 106.202379 67.774432 
L 106.230562 67.825846 
L 106.235259 67.855843 
L 106.315111 67.693501 
L 106.465421 67.529186 
L 106.639217 67.452862 
L 106.653309 67.466953 
L 106.714372 67.396219 
L 106.747253 67.409894 
L 106.874077 67.297455 
L 106.878774 67.298447 
L 107.024387 67.178517 
L 107.057267 67.210352 
L 107.245154 67.189867 
L 107.315612 67.164824 
L 107.367281 67.238034 
L 107.41895 67.269574 
L 107.489408 67.155439 
L 108.179895 66.374337 
L 108.217472 66.41475 
L 108.222169 66.438643 
L 108.283233 66.337327 
L 108.32081 66.387116 
L 108.457029 66.286293 
L 108.583853 66.225812 
L 108.602642 66.26801 
L 108.682494 66.268777 
L 108.701282 66.202578 
L 108.799923 65.995535 
L 108.832804 66.023382 
L 108.85629 66.055404 
L 108.88917 65.976223 
L 108.931445 65.980882 
L 109.124029 65.797769 
L 109.260248 65.597308 
L 109.279036 65.61939 
L 109.45753 65.435136 
L 109.462227 65.438913 
L 109.485713 65.459497 
L 109.542079 65.31978 
L 109.847396 63.691819 
L 109.861488 56.655191 
L 109.866185 50.780191 
L 109.913157 68.116591 
L 109.960129 67.627405 
L 110.270143 63.159289 
L 110.284235 51.13722 
L 110.331206 68.403646 
L 110.364087 68.080223 
L 110.805622 63.116439 
L 110.819714 51.085281 
L 110.866686 68.530385 
L 110.899566 68.257041 
L 111.157911 66.56623 
L 111.265947 66.045759 
L 111.552475 64.237395 
L 111.580658 62.740511 
L 111.590053 50.815374 
L 111.641722 68.614567 
L 111.683996 68.216891 
L 111.904764 66.810947 
L 111.909461 66.819548 
L 111.947039 66.698376 
L 112.149018 66.026165 
L 112.482518 64.940024 
L 112.628131 63.964505 
L 112.64692 61.956743 
L 112.656314 50.905531 
L 112.703286 68.618123 
L 112.754955 68.13304 
L 112.994512 66.737369 
L 113.257554 66.027748 
L 113.262251 66.046324 
L 113.309223 65.969459 
L 113.290434 65.986764 
L 113.31392 65.95085 
L 113.633329 65.118671 
L 113.638026 65.126526 
L 113.689695 65.003403 
L 113.694392 65.007242 
L 113.727273 64.896001 
L 113.727273 64.896001 
" style="fill:none;stroke:#000000;stroke-linecap:square;stroke-width:0.3;"/>
   </g>
  </g>
 </g>
 <defs>
  <clipPath id="p678551dd5e">
   <rect height="63.756" width="111.6" x="7.2" y="7.2"/>
  </clipPath>
 </defs>
</svg>
