<?xml version="1.0" encoding="utf-8" standalone="no"?>
<!DOCTYPE svg PUBLIC "-//W3C//DTD SVG 1.1//EN"
  "http://www.w3.org/Graphics/SVG/1.1/DTD/svg11.dtd">
<!-- Created with matplotlib (https://matplotlib.org/) -->
<svg height="73.34pt" version="1.1" viewBox="0 0 419.66 73.34" width="419.66pt" xmlns="http://www.w3.org/2000/svg" xmlns:xlink="http://www.w3.org/1999/xlink">
 <metadata>
  <rdf:RDF xmlns:cc="http://creativecommons.org/ns#" xmlns:dc="http://purl.org/dc/elements/1.1/" xmlns:rdf="http://www.w3.org/1999/02/22-rdf-syntax-ns#">
   <cc:Work>
    <dc:type rdf:resource="http://purl.org/dc/dcmitype/StillImage"/>
    <dc:date>2020-12-21T19:36:00.783209</dc:date>
    <dc:format>image/svg+xml</dc:format>
    <dc:creator>
     <cc:Agent>
      <dc:title>Matplotlib v3.3.2, https://matplotlib.org/</dc:title>
     </cc:Agent>
    </dc:creator>
   </cc:Work>
  </rdf:RDF>
 </metadata>
 <defs>
  <style type="text/css">*{stroke-linecap:butt;stroke-linejoin:round;}</style>
 </defs>
 <g id="figure_1">
  <g id="patch_1">
   <path d="M 0 73.34 
L 419.66 73.34 
L 419.66 0 
L 0 0 
z
" style="fill:none;"/>
  </g>
  <g id="axes_1">
   <g id="patch_2">
    <path d="M 10.7 62.64 
L 53.440426 62.64 
L 53.440426 7.2 
L 10.7 7.2 
z
" style="fill:none;"/>
   </g>
   <g id="matplotlib.axis_1"/>
   <g id="matplotlib.axis_2"/>
   <g id="line2d_1">
    <path clip-path="url(#p2489d2c349)" d="M 12.642747 60.12 
L 13.982572 51.048 
L 15.322397 50.04 
L 16.662222 48.024 
L 18.002048 43.992 
L 19.341873 48.024 
L 20.681698 41.976 
L 22.021523 41.976 
L 23.361349 35.928 
L 24.701174 30.888 
L 26.040999 27.864 
L 27.380824 25.848 
L 28.72065 23.832 
L 30.060475 34.92 
L 31.4003 28.872 
L 32.740125 34.92 
L 34.079951 17.784 
L 35.419776 13.752 
L 36.759601 27.864 
L 38.099426 26.856 
L 39.439252 19.8 
L 40.779077 30.888 
L 42.118902 31.896 
L 43.458727 23.832 
L 44.798553 29.88 
L 46.138378 23.832 
L 47.478203 29.88 
L 48.818028 29.88 
L 50.157854 30.888 
L 51.497679 21.816 
" style="fill:none;stroke:#1f77b4;stroke-linecap:square;stroke-width:1.5;"/>
   </g>
   <g id="line2d_2">
    <path clip-path="url(#p2489d2c349)" d="M 12.642747 60.12 
L 13.982572 54.072 
L 15.322397 39.96 
L 16.662222 40.968 
L 18.002048 18.792 
L 19.341873 12.744 
L 20.681698 17.784 
L 22.021523 9.72 
L 23.361349 24.84 
L 24.701174 25.848 
L 26.040999 23.832 
L 27.380824 23.832 
L 28.72065 23.832 
L 30.060475 14.76 
L 31.4003 24.84 
L 32.740125 16.776 
L 34.079951 35.928 
L 35.419776 33.912 
L 36.759601 29.88 
L 38.099426 32.904 
L 39.439252 36.936 
L 40.779077 36.936 
L 42.118902 38.952 
L 43.458727 40.968 
L 44.798553 45 
L 46.138378 40.968 
L 47.478203 43.992 
L 48.818028 49.032 
L 50.157854 47.016 
L 51.497679 41.976 
" style="fill:none;stroke:#ff0000;stroke-linecap:square;stroke-width:1.5;"/>
   </g>
   <g id="patch_3">
    <path d="M 10.7 62.64 
L 10.7 7.2 
" style="fill:none;stroke:#000000;stroke-linecap:square;stroke-linejoin:miter;stroke-width:1.5;"/>
   </g>
   <g id="patch_4">
    <path d="M 10.7 62.64 
L 53.440426 62.64 
" style="fill:none;stroke:#000000;stroke-linecap:square;stroke-linejoin:miter;stroke-width:1.5;"/>
   </g>
  </g>
  <g id="axes_2">
   <g id="patch_5">
    <path d="M 61.988511 62.64 
L 104.728936 62.64 
L 104.728936 7.2 
L 61.988511 7.2 
z
" style="fill:none;"/>
   </g>
   <g id="matplotlib.axis_3"/>
   <g id="matplotlib.axis_4"/>
   <g id="line2d_3">
    <path clip-path="url(#pda777b92d9)" d="M 63.931257 19.8 
L 65.271083 33.756923 
L 66.610908 26.778462 
L 67.950733 35.307692 
L 69.290558 37.633846 
L 70.630384 42.286154 
L 71.970209 39.96 
L 73.310034 39.184615 
L 74.649859 36.083077 
L 75.989685 34.532308 
L 77.32951 49.264615 
L 78.669335 48.489231 
L 80.00916 45.387692 
L 81.348986 48.489231 
L 82.688811 41.510769 
L 84.028636 46.163077 
L 85.368461 45.387692 
L 86.708287 46.938462 
L 88.048112 46.938462 
L 89.387937 44.612308 
L 90.727762 48.489231 
L 92.067588 51.590769 
L 93.407413 56.243077 
L 94.747238 48.489231 
L 96.087063 47.713846 
L 97.426889 51.590769 
L 98.766714 60.12 
L 100.106539 54.692308 
L 101.446364 57.018462 
L 102.78619 53.916923 
" style="fill:none;stroke:#1f77b4;stroke-linecap:square;stroke-width:1.5;"/>
   </g>
   <g id="line2d_4">
    <path clip-path="url(#pda777b92d9)" d="M 63.931257 56.243077 
L 65.271083 59.344615 
L 66.610908 59.344615 
L 67.950733 57.018462 
L 69.290558 57.018462 
L 70.630384 52.366154 
L 71.970209 55.467692 
L 73.310034 55.467692 
L 74.649859 50.815385 
L 75.989685 47.713846 
L 77.32951 48.489231 
L 78.669335 46.938462 
L 80.00916 39.96 
L 81.348986 41.510769 
L 82.688811 38.409231 
L 84.028636 41.510769 
L 85.368461 36.858462 
L 86.708287 36.083077 
L 88.048112 41.510769 
L 89.387937 36.083077 
L 90.727762 42.286154 
L 92.067588 36.858462 
L 93.407413 48.489231 
L 94.747238 43.836923 
L 96.087063 46.163077 
L 97.426889 30.655385 
L 98.766714 48.489231 
L 100.106539 30.655385 
L 101.446364 43.061538 
L 102.78619 9.72 
" style="fill:none;stroke:#ff0000;stroke-linecap:square;stroke-width:1.5;"/>
   </g>
   <g id="patch_6">
    <path d="M 61.988511 62.64 
L 61.988511 7.2 
" style="fill:none;stroke:#000000;stroke-linecap:square;stroke-linejoin:miter;stroke-width:1.5;"/>
   </g>
   <g id="patch_7">
    <path d="M 61.988511 62.64 
L 104.728936 62.64 
" style="fill:none;stroke:#000000;stroke-linecap:square;stroke-linejoin:miter;stroke-width:1.5;"/>
   </g>
  </g>
  <g id="axes_3">
   <g id="patch_8">
    <path d="M 113.277021 62.64 
L 156.017447 62.64 
L 156.017447 7.2 
L 113.277021 7.2 
z
" style="fill:none;"/>
   </g>
   <g id="matplotlib.axis_5"/>
   <g id="matplotlib.axis_6"/>
   <g id="line2d_5">
    <path clip-path="url(#pef8271c602)" d="M 115.219768 53.21589 
L 116.559593 47.692603 
L 117.899418 45.62137 
L 119.239244 39.407671 
L 120.579069 31.813151 
L 121.918894 31.12274 
L 123.258719 18.004932 
L 124.598545 19.385753 
L 125.93837 17.314521 
L 127.278195 20.076164 
L 128.61802 24.21863 
L 129.957846 22.837808 
L 131.297671 24.21863 
L 132.637496 26.980274 
L 133.977321 30.432329 
L 135.317147 30.432329 
L 136.656972 29.741918 
L 137.996797 44.240548 
L 139.336622 44.240548 
L 140.676448 40.788493 
L 142.016273 49.763836 
L 143.356098 47.002192 
L 144.695923 48.383014 
L 146.035749 53.21589 
L 147.375574 55.287123 
L 148.715399 53.21589 
L 150.055224 57.358356 
L 151.39505 58.048767 
L 152.734875 59.429589 
L 154.0747 58.739178 
" style="fill:none;stroke:#1f77b4;stroke-linecap:square;stroke-width:1.5;"/>
   </g>
   <g id="line2d_6">
    <path clip-path="url(#pef8271c602)" d="M 115.219768 53.21589 
L 116.559593 53.21589 
L 117.899418 38.026849 
L 119.239244 33.193973 
L 120.579069 35.955616 
L 121.918894 21.456986 
L 123.258719 29.051507 
L 124.598545 12.481644 
L 125.93837 18.004932 
L 127.278195 23.528219 
L 128.61802 22.147397 
L 129.957846 9.72 
L 131.297671 24.21863 
L 132.637496 22.837808 
L 133.977321 32.503562 
L 135.317147 38.71726 
L 136.656972 34.574795 
L 137.996797 33.884384 
L 139.336622 43.550137 
L 140.676448 47.002192 
L 142.016273 47.692603 
L 143.356098 47.002192 
L 144.695923 52.525479 
L 146.035749 54.596712 
L 147.375574 58.048767 
L 148.715399 58.739178 
L 150.055224 58.739178 
L 151.39505 58.048767 
L 152.734875 60.12 
L 154.0747 59.429589 
" style="fill:none;stroke:#ff0000;stroke-linecap:square;stroke-width:1.5;"/>
   </g>
   <g id="patch_9">
    <path d="M 113.277021 62.64 
L 113.277021 7.2 
" style="fill:none;stroke:#000000;stroke-linecap:square;stroke-linejoin:miter;stroke-width:1.5;"/>
   </g>
   <g id="patch_10">
    <path d="M 113.277021 62.64 
L 156.017447 62.64 
" style="fill:none;stroke:#000000;stroke-linecap:square;stroke-linejoin:miter;stroke-width:1.5;"/>
   </g>
  </g>
  <g id="axes_4">
   <g id="patch_11">
    <path d="M 164.565532 62.64 
L 207.305957 62.64 
L 207.305957 7.2 
L 164.565532 7.2 
z
" style="fill:none;"/>
   </g>
   <g id="matplotlib.axis_7"/>
   <g id="matplotlib.axis_8"/>
   <g id="line2d_7">
    <path clip-path="url(#p6cc6263efd)" d="M 166.508279 55.6848 
L 167.848104 56.8944 
L 169.187929 50.4432 
L 170.527754 54.4752 
L 171.86758 54.8784 
L 173.207405 54.8784 
L 174.54723 54.4752 
L 175.887055 52.8624 
L 177.226881 47.2176 
L 178.566706 48.8304 
L 179.906531 48.024 
L 181.246356 49.2336 
L 182.586182 43.992 
L 183.926007 44.7984 
L 185.265832 49.6368 
L 186.605657 50.8464 
L 187.945483 47.6208 
L 189.285308 46.8144 
L 190.625133 48.4272 
L 191.964958 52.056 
L 193.304784 46.8144 
L 194.644609 50.04 
L 195.984434 46.8144 
L 197.324259 48.4272 
L 198.664085 42.3792 
L 200.00391 50.8464 
L 201.343735 46.4112 
L 202.68356 47.2176 
L 204.023386 41.5728 
L 205.363211 44.3952 
" style="fill:none;stroke:#1f77b4;stroke-linecap:square;stroke-width:1.5;"/>
   </g>
   <g id="line2d_8">
    <path clip-path="url(#p6cc6263efd)" d="M 166.508279 59.3136 
L 167.848104 57.2976 
L 169.187929 60.12 
L 170.527754 60.12 
L 171.86758 57.7008 
L 173.207405 56.8944 
L 174.54723 56.088 
L 175.887055 54.4752 
L 177.226881 53.6688 
L 178.566706 52.056 
L 179.906531 54.072 
L 181.246356 55.6848 
L 182.586182 50.4432 
L 183.926007 50.04 
L 185.265832 53.2656 
L 186.605657 52.4592 
L 187.945483 49.2336 
L 189.285308 48.024 
L 190.625133 47.6208 
L 191.964958 49.6368 
L 193.304784 47.2176 
L 194.644609 44.7984 
L 195.984434 45.6048 
L 197.324259 45.6048 
L 198.664085 48.4272 
L 200.00391 39.1536 
L 201.343735 39.96 
L 202.68356 42.7824 
L 204.023386 35.5248 
L 205.363211 9.72 
" style="fill:none;stroke:#ff0000;stroke-linecap:square;stroke-width:1.5;"/>
   </g>
   <g id="patch_12">
    <path d="M 164.565532 62.64 
L 164.565532 7.2 
" style="fill:none;stroke:#000000;stroke-linecap:square;stroke-linejoin:miter;stroke-width:1.5;"/>
   </g>
   <g id="patch_13">
    <path d="M 164.565532 62.64 
L 207.305957 62.64 
" style="fill:none;stroke:#000000;stroke-linecap:square;stroke-linejoin:miter;stroke-width:1.5;"/>
   </g>
  </g>
  <g id="axes_5">
   <g id="patch_14">
    <path d="M 215.854043 62.64 
L 258.594468 62.64 
L 258.594468 7.2 
L 215.854043 7.2 
z
" style="fill:none;"/>
   </g>
   <g id="matplotlib.axis_9"/>
   <g id="matplotlib.axis_10"/>
   <g id="line2d_9">
    <path clip-path="url(#pf02fd65dcf)" d="M 217.796789 54.758298 
L 219.136614 56.902979 
L 220.47644 57.975319 
L 221.816265 44.034894 
L 223.15609 52.613617 
L 224.495915 45.107234 
L 225.835741 44.034894 
L 227.175566 46.179574 
L 228.515391 47.251915 
L 229.855216 42.962553 
L 231.195042 36.528511 
L 232.534867 31.166809 
L 233.874692 38.673191 
L 235.214517 31.166809 
L 236.554343 32.239149 
L 237.894168 27.949787 
L 239.233993 24.732766 
L 240.573818 35.45617 
L 241.913644 23.660426 
L 243.253469 30.094468 
L 244.593294 20.443404 
L 245.933119 11.864681 
L 247.272945 24.732766 
L 248.61277 31.166809 
L 249.952595 18.298723 
L 251.29242 33.311489 
L 252.632246 17.226383 
L 253.972071 32.239149 
L 255.311896 29.022128 
L 256.651721 9.72 
" style="fill:none;stroke:#1f77b4;stroke-linecap:square;stroke-width:1.5;"/>
   </g>
   <g id="line2d_10">
    <path clip-path="url(#pf02fd65dcf)" d="M 217.796789 55.830638 
L 219.136614 54.758298 
L 220.47644 60.12 
L 221.816265 45.107234 
L 223.15609 51.541277 
L 224.495915 40.817872 
L 225.835741 40.817872 
L 227.175566 29.022128 
L 228.515391 33.311489 
L 229.855216 26.877447 
L 231.195042 15.081702 
L 232.534867 21.515745 
L 233.874692 25.805106 
L 235.214517 26.877447 
L 236.554343 25.805106 
L 237.894168 24.732766 
L 239.233993 23.660426 
L 240.573818 32.239149 
L 241.913644 11.864681 
L 243.253469 17.226383 
L 244.593294 30.094468 
L 245.933119 21.515745 
L 247.272945 18.298723 
L 248.61277 34.38383 
L 249.952595 41.890213 
L 251.29242 30.094468 
L 252.632246 50.468936 
L 253.972071 50.468936 
L 255.311896 48.324255 
L 256.651721 42.962553 
" style="fill:none;stroke:#ff0000;stroke-linecap:square;stroke-width:1.5;"/>
   </g>
   <g id="patch_15">
    <path d="M 215.854043 62.64 
L 215.854043 7.2 
" style="fill:none;stroke:#000000;stroke-linecap:square;stroke-linejoin:miter;stroke-width:1.5;"/>
   </g>
   <g id="patch_16">
    <path d="M 215.854043 62.64 
L 258.594468 62.64 
" style="fill:none;stroke:#000000;stroke-linecap:square;stroke-linejoin:miter;stroke-width:1.5;"/>
   </g>
  </g>
  <g id="axes_6">
   <g id="patch_17">
    <path d="M 267.142553 62.64 
L 309.882979 62.64 
L 309.882979 7.2 
L 267.142553 7.2 
z
" style="fill:none;"/>
   </g>
   <g id="matplotlib.axis_11"/>
   <g id="matplotlib.axis_12"/>
   <g id="line2d_11">
    <path clip-path="url(#pc727b66033)" d="M 269.0853 59.112 
L 270.425125 58.104 
L 271.76495 60.12 
L 273.104776 60.12 
L 274.444601 48.024 
L 275.784426 48.024 
L 277.124251 50.04 
L 278.464077 38.952 
L 279.803902 41.976 
L 281.143727 43.992 
L 282.483552 32.904 
L 283.823378 32.904 
L 285.163203 29.88 
L 286.503028 26.856 
L 287.842853 36.936 
L 289.182679 19.8 
L 290.522504 26.856 
L 291.862329 11.736 
L 293.202154 25.848 
L 294.54198 19.8 
L 295.881805 22.824 
L 297.22163 27.864 
L 298.561455 30.888 
L 299.901281 19.8 
L 301.241106 32.904 
L 302.580931 17.784 
L 303.920756 17.784 
L 305.260582 13.752 
L 306.600407 21.816 
L 307.940232 9.72 
" style="fill:none;stroke:#1f77b4;stroke-linecap:square;stroke-width:1.5;"/>
   </g>
   <g id="line2d_12">
    <path clip-path="url(#pc727b66033)" d="M 269.0853 56.088 
L 270.425125 60.12 
L 271.76495 54.072 
L 273.104776 59.112 
L 274.444601 46.008 
L 275.784426 52.056 
L 277.124251 33.912 
L 278.464077 40.968 
L 279.803902 32.904 
L 281.143727 42.984 
L 282.483552 31.896 
L 283.823378 21.816 
L 285.163203 38.952 
L 286.503028 24.84 
L 287.842853 35.928 
L 289.182679 28.872 
L 290.522504 26.856 
L 291.862329 23.832 
L 293.202154 27.864 
L 294.54198 26.856 
L 295.881805 23.832 
L 297.22163 24.84 
L 298.561455 13.752 
L 299.901281 18.792 
L 301.241106 15.768 
L 302.580931 25.848 
L 303.920756 25.848 
L 305.260582 26.856 
L 306.600407 24.84 
L 307.940232 20.808 
" style="fill:none;stroke:#ff0000;stroke-linecap:square;stroke-width:1.5;"/>
   </g>
   <g id="patch_18">
    <path d="M 267.142553 62.64 
L 267.142553 7.2 
" style="fill:none;stroke:#000000;stroke-linecap:square;stroke-linejoin:miter;stroke-width:1.5;"/>
   </g>
   <g id="patch_19">
    <path d="M 267.142553 62.64 
L 309.882979 62.64 
" style="fill:none;stroke:#000000;stroke-linecap:square;stroke-linejoin:miter;stroke-width:1.5;"/>
   </g>
  </g>
  <g id="axes_7">
   <g id="patch_20">
    <path d="M 318.431064 62.64 
L 361.171489 62.64 
L 361.171489 7.2 
L 318.431064 7.2 
z
" style="fill:none;"/>
   </g>
   <g id="matplotlib.axis_13"/>
   <g id="matplotlib.axis_14"/>
   <g id="line2d_13">
    <path clip-path="url(#p974083b265)" d="M 320.37381 40.92 
L 321.713636 34.92 
L 323.053461 36.12 
L 324.393286 45.72 
L 325.733111 39.72 
L 327.072937 38.52 
L 328.412762 45.72 
L 329.752587 44.52 
L 331.092412 43.32 
L 332.432238 34.92 
L 333.772063 39.72 
L 335.111888 24.12 
L 336.451713 21.72 
L 337.791539 44.52 
L 339.131364 38.52 
L 340.471189 25.32 
L 341.811014 38.52 
L 343.15084 31.32 
L 344.490665 33.72 
L 345.83049 42.12 
L 347.170315 37.32 
L 348.510141 36.12 
L 349.849966 36.12 
L 351.189791 21.72 
L 352.529616 38.52 
L 353.869442 32.52 
L 355.209267 25.32 
L 356.549092 31.32 
L 357.888917 19.32 
L 359.228743 25.32 
" style="fill:none;stroke:#1f77b4;stroke-linecap:square;stroke-width:1.5;"/>
   </g>
   <g id="line2d_14">
    <path clip-path="url(#p974083b265)" d="M 320.37381 40.92 
L 321.713636 52.92 
L 323.053461 60.12 
L 324.393286 49.32 
L 325.733111 48.12 
L 327.072937 48.12 
L 328.412762 45.72 
L 329.752587 43.32 
L 331.092412 30.12 
L 332.432238 44.52 
L 333.772063 32.52 
L 335.111888 38.52 
L 336.451713 39.72 
L 337.791539 20.52 
L 339.131364 31.32 
L 340.471189 32.52 
L 341.811014 24.12 
L 343.15084 20.52 
L 344.490665 27.72 
L 345.83049 36.12 
L 347.170315 24.12 
L 348.510141 9.72 
L 349.849966 30.12 
L 351.189791 25.32 
L 352.529616 25.32 
L 353.869442 28.92 
L 355.209267 34.92 
L 356.549092 31.32 
L 357.888917 32.52 
L 359.228743 38.52 
" style="fill:none;stroke:#ff0000;stroke-linecap:square;stroke-width:1.5;"/>
   </g>
   <g id="patch_21">
    <path d="M 318.431064 62.64 
L 318.431064 7.2 
" style="fill:none;stroke:#000000;stroke-linecap:square;stroke-linejoin:miter;stroke-width:1.5;"/>
   </g>
   <g id="patch_22">
    <path d="M 318.431064 62.64 
L 361.171489 62.64 
" style="fill:none;stroke:#000000;stroke-linecap:square;stroke-linejoin:miter;stroke-width:1.5;"/>
   </g>
  </g>
  <g id="axes_8">
   <g id="patch_23">
    <path d="M 369.719574 62.64 
L 412.46 62.64 
L 412.46 7.2 
L 369.719574 7.2 
z
" style="fill:none;"/>
   </g>
   <g id="matplotlib.axis_15"/>
   <g id="matplotlib.axis_16"/>
   <g id="line2d_15">
    <path clip-path="url(#p4946a55bab)" d="M 371.662321 49.32 
L 373.002146 47.16 
L 374.341972 51.48 
L 375.681797 49.32 
L 377.021622 45.72 
L 378.361447 50.76 
L 379.701273 39.96 
L 381.041098 44.28 
L 382.380923 43.56 
L 383.720748 45.72 
L 385.060574 46.44 
L 386.400399 48.6 
L 387.740224 47.88 
L 389.080049 36.36 
L 390.419875 37.8 
L 391.7597 49.32 
L 393.099525 53.64 
L 394.43935 42.84 
L 395.779176 47.16 
L 397.119001 42.12 
L 398.458826 48.6 
L 399.798651 52.2 
L 401.138477 39.24 
L 402.478302 46.44 
L 403.818127 42.12 
L 405.157952 48.6 
L 406.497778 46.44 
L 407.837603 53.64 
L 409.177428 36.36 
L 410.517253 38.52 
" style="fill:none;stroke:#1f77b4;stroke-linecap:square;stroke-width:1.5;"/>
   </g>
   <g id="line2d_16">
    <path clip-path="url(#p4946a55bab)" d="M 371.662321 9.72 
L 373.002146 19.8 
L 374.341972 38.52 
L 375.681797 21.24 
L 377.021622 17.64 
L 378.361447 29.88 
L 379.701273 39.24 
L 381.041098 46.44 
L 382.380923 43.56 
L 383.720748 43.56 
L 385.060574 40.68 
L 386.400399 41.4 
L 387.740224 45.72 
L 389.080049 43.56 
L 390.419875 43.56 
L 391.7597 48.6 
L 393.099525 51.48 
L 394.43935 57.24 
L 395.779176 52.2 
L 397.119001 57.24 
L 398.458826 58.68 
L 399.798651 57.96 
L 401.138477 57.96 
L 402.478302 59.4 
L 403.818127 57.24 
L 405.157952 58.68 
L 406.497778 57.24 
L 407.837603 60.12 
L 409.177428 57.24 
L 410.517253 55.8 
" style="fill:none;stroke:#ff0000;stroke-linecap:square;stroke-width:1.5;"/>
   </g>
   <g id="patch_24">
    <path d="M 369.719574 62.64 
L 369.719574 7.2 
" style="fill:none;stroke:#000000;stroke-linecap:square;stroke-linejoin:miter;stroke-width:1.5;"/>
   </g>
   <g id="patch_25">
    <path d="M 369.719574 62.64 
L 412.46 62.64 
" style="fill:none;stroke:#000000;stroke-linecap:square;stroke-linejoin:miter;stroke-width:1.5;"/>
   </g>
  </g>
 </g>
 <defs>
  <clipPath id="p2489d2c349">
   <rect height="55.44" width="42.740426" x="10.7" y="7.2"/>
  </clipPath>
  <clipPath id="pda777b92d9">
   <rect height="55.44" width="42.740426" x="61.988511" y="7.2"/>
  </clipPath>
  <clipPath id="pef8271c602">
   <rect height="55.44" width="42.740426" x="113.277021" y="7.2"/>
  </clipPath>
  <clipPath id="p6cc6263efd">
   <rect height="55.44" width="42.740426" x="164.565532" y="7.2"/>
  </clipPath>
  <clipPath id="pf02fd65dcf">
   <rect height="55.44" width="42.740426" x="215.854043" y="7.2"/>
  </clipPath>
  <clipPath id="pc727b66033">
   <rect height="55.44" width="42.740426" x="267.142553" y="7.2"/>
  </clipPath>
  <clipPath id="p974083b265">
   <rect height="55.44" width="42.740426" x="318.431064" y="7.2"/>
  </clipPath>
  <clipPath id="p4946a55bab">
   <rect height="55.44" width="42.740426" x="369.719574" y="7.2"/>
  </clipPath>
 </defs>
</svg>
