<?xml version="1.0" encoding="utf-8" standalone="no"?>
<!DOCTYPE svg PUBLIC "-//W3C//DTD SVG 1.1//EN"
  "http://www.w3.org/Graphics/SVG/1.1/DTD/svg11.dtd">
<!-- Created with matplotlib (https://matplotlib.org/) -->
<svg height="78.156pt" version="1.1" viewBox="0 0 126 78.156" width="126pt" xmlns="http://www.w3.org/2000/svg" xmlns:xlink="http://www.w3.org/1999/xlink">
 <metadata>
  <rdf:RDF xmlns:cc="http://creativecommons.org/ns#" xmlns:dc="http://purl.org/dc/elements/1.1/" xmlns:rdf="http://www.w3.org/1999/02/22-rdf-syntax-ns#">
   <cc:Work>
    <dc:type rdf:resource="http://purl.org/dc/dcmitype/StillImage"/>
    <dc:date>2021-01-07T11:39:58.790975</dc:date>
    <dc:format>image/svg+xml</dc:format>
    <dc:creator>
     <cc:Agent>
      <dc:title>Matplotlib v3.3.2, https://matplotlib.org/</dc:title>
     </cc:Agent>
    </dc:creator>
   </cc:Work>
  </rdf:RDF>
 </metadata>
 <defs>
  <style type="text/css">*{stroke-linecap:butt;stroke-linejoin:round;}</style>
 </defs>
 <g id="figure_1">
  <g id="patch_1">
   <path d="M 0 78.156 
L 126 78.156 
L 126 0 
L 0 0 
z
" style="fill:none;"/>
  </g>
  <g id="axes_1">
   <g id="patch_2">
    <path d="M 7.2 70.956 
L 118.8 70.956 
L 118.8 7.2 
L 7.2 7.2 
z
" style="fill:none;"/>
   </g>
   <g id="matplotlib.axis_1"/>
   <g id="matplotlib.axis_2"/>
   <g id="line2d_1">
    <path clip-path="url(#p32f7e6e64a)" d="M 12.272727 26.698036 
L 12.310305 26.662964 
L 12.38546 26.685823 
L 12.437129 26.645892 
L 12.408946 26.6973 
L 12.493495 26.707413 
L 13.996595 26.714968 
L 14.010687 26.739367 
L 14.057658 26.67068 
L 14.10463 26.704437 
L 14.240849 26.675248 
L 14.424039 26.603992 
L 14.259637 26.706429 
L 14.442828 26.635231 
L 14.508588 26.717888 
L 14.546166 26.62407 
L 14.583743 26.565408 
L 14.644807 26.661508 
L 14.658898 26.628345 
L 14.832694 26.737699 
L 14.837391 26.723643 
L 14.968913 26.658711 
L 15.100434 26.71828 
L 14.978307 26.642876 
L 15.114526 26.682374 
L 15.161497 26.627575 
L 15.236652 26.6638 
L 15.246047 26.691593 
L 15.302413 26.584337 
L 15.33999 26.640302 
L 15.344688 26.60971 
L 15.396357 26.742832 
L 15.443329 26.694891 
L 15.462117 26.738444 
L 15.537272 26.661036 
L 15.54197 26.665248 
L 15.593639 26.586499 
L 15.654702 26.647334 
L 16.608231 26.622771 
L 16.631717 26.584117 
L 16.706872 26.677365 
L 16.894759 26.603102 
L 16.922943 26.687283 
L 16.974612 26.719088 
L 16.9934 26.641357 
L 17.026281 26.657104 
L 17.129619 26.630018 
L 17.063858 26.69137 
L 17.139013 26.675796 
L 17.200077 26.679862 
L 17.22826 26.622356 
L 17.284626 26.527472 
L 17.336295 26.610747 
L 17.406753 26.645831 
L 17.350387 26.603941 
L 17.449028 26.620326 
L 17.486605 26.592134 
L 17.538274 26.704789 
L 17.542971 26.698407 
L 17.693281 26.740883 
L 17.697978 26.731411 
L 17.838894 26.590193 
L 17.740253 26.744077 
L 17.843591 26.591889 
L 17.937535 26.566361 
L 17.956324 26.603453 
L 17.965718 26.627542 
L 18.017387 26.539648 
L 18.059662 26.557625 
L 18.440134 26.484355 
L 18.726662 26.325734 
L 18.844092 26.40387 
L 18.740754 26.306866 
L 18.853486 26.384883 
L 18.966219 26.359165 
L 18.989705 26.399926 
L 19.008494 26.376712 
L 19.219867 26.509764 
L 19.224564 26.490599 
L 19.252747 26.561846 
L 19.327902 26.523311 
L 19.393663 26.572236 
L 19.426543 26.489548 
L 19.539276 26.454847 
L 19.543973 26.461692 
L 19.877473 26.391978 
L 19.96672 26.472105 
L 19.9996 26.428651 
L 20.004297 26.424658 
L 20.027783 26.505239 
L 20.060664 26.504682 
L 20.093544 26.45614 
L 20.178093 26.527238 
L 20.398861 26.31895 
L 20.431741 26.349239 
L 20.478713 26.366418 
L 20.520988 26.285167 
L 20.63372 26.298061 
L 20.647812 26.261223 
L 20.807516 26.287806 
L 20.812214 26.302835 
L 20.962524 26.402224 
L 20.971918 26.395132 
L 21.089348 26.336406 
L 21.20208 26.304467 
L 21.136319 26.35186 
L 21.206777 26.306179 
L 21.272538 26.278011 
L 21.225566 26.247756 
L 21.296024 26.242484 
L 21.342996 26.250506 
L 21.418151 26.185447 
L 21.629524 25.9823 
L 21.681193 26.000799 
L 21.728165 25.948247 
L 21.742257 25.987268 
L 21.746954 25.970622 
L 21.80332 26.054028 
L 21.840898 26.031705 
L 22.019391 26.012732 
L 22.165003 25.893002 
L 22.179095 25.916046 
L 22.197884 25.991875 
L 22.268342 25.852555 
L 22.282433 25.870911 
L 22.423349 25.909391 
L 22.352891 25.8184 
L 22.428046 25.905229 
L 22.531384 25.874498 
L 22.545476 25.882308 
L 22.620631 25.920935 
L 22.648814 25.860746 
L 22.658208 25.891616 
L 22.747455 25.918706 
L 22.700483 25.825231 
L 22.766243 25.866542 
L 22.780335 25.853459 
L 22.808518 25.929025 
L 22.860187 25.910064 
L 22.921251 25.887083 
L 22.996406 25.972149 
L 23.099744 25.815137 
L 23.137321 25.870073 
L 23.250054 25.885222 
L 23.217173 25.840289 
L 23.254751 25.875598 
L 24.250555 25.799053 
L 24.344498 25.826259 
L 24.297526 25.777073 
L 24.367984 25.801153 
L 24.522991 25.843264 
L 24.527689 25.820447 
L 24.588752 25.792928 
L 24.565266 25.853215 
L 24.640421 25.824725 
L 25.072562 25.717453 
L 25.213478 25.61893 
L 25.349696 25.689229 
L 25.246358 25.565855 
L 25.363788 25.655239 
L 25.429549 25.602518 
L 25.387274 25.681125 
L 25.467126 25.666369 
L 25.584556 25.782003 
L 25.598647 25.768981 
L 25.725471 25.831342 
L 25.763049 25.907089 
L 25.800626 25.782721 
L 25.838204 25.864414 
L 25.941542 25.864445 
L 25.950936 25.868524 
L 25.965028 25.901994 
L 26.04488 25.817909 
L 26.115338 25.769763 
L 26.16231 25.811274 
L 26.317317 25.705935 
L 26.331408 25.734418 
L 26.37838 25.789477 
L 26.430049 25.68947 
L 26.439444 25.736392 
L 26.575662 25.632143 
L 26.735367 25.497318 
L 26.787036 25.40915 
L 26.852796 25.425292 
L 26.993712 25.588156 
L 27.012501 25.532099 
L 27.092353 25.641543 
L 27.148719 25.696599 
L 27.209782 25.651592 
L 27.289635 25.571134 
L 27.341304 25.60445 
L 27.346001 25.63285 
L 27.435247 25.524287 
L 27.439945 25.524546 
L 27.557374 25.363457 
L 27.576163 25.384486 
L 27.604346 25.444571 
L 27.632529 25.370643 
L 27.688896 25.388844 
L 27.825114 25.27959 
L 27.909663 25.402168 
L 28.013001 25.36289 
L 28.027093 25.422982 
L 28.03179 25.437756 
L 28.106945 25.341459 
L 28.135128 25.400946 
L 28.191495 25.364449 
L 28.224375 25.470908 
L 28.294833 25.450885 
L 28.257255 25.42565 
L 28.308924 25.406761 
L 28.496812 25.246774 
L 28.5156 25.277793 
L 28.590755 25.181323 
L 28.595453 25.183588 
L 28.604847 25.196649 
L 28.675305 25.112717 
L 28.684699 25.126418 
L 28.877284 24.932222 
L 28.881981 24.945514 
L 29.088657 24.83327 
L 28.910164 24.97747 
L 29.093354 24.844957 
L 29.182601 24.766676 
L 29.285939 24.645647 
L 29.318819 24.670922 
L 29.398672 24.681016 
L 29.342305 24.63661 
L 29.41746 24.631242 
L 29.422158 24.628467 
L 29.436249 24.700727 
L 29.459735 24.718703 
L 29.506707 24.802538 
L 29.577165 24.740975 
L 29.760355 24.616905 
L 29.774447 24.628405 
L 29.854299 24.698398 
L 29.891876 24.650924 
L 30.056278 24.485262 
L 30.065672 24.49738 
L 30.183102 24.629804 
L 30.197193 24.615472 
L 30.28644 24.558742 
L 30.324018 24.611401 
L 30.338109 24.666246 
L 30.408567 24.571305 
L 30.427356 24.601482 
L 30.474328 24.536715 
L 30.530694 24.617745 
L 30.624638 24.592932 
L 30.582363 24.54951 
L 30.629335 24.575383 
L 30.652821 24.600119 
L 30.826617 24.46248 
L 30.925257 24.551936 
L 30.840708 24.4565 
L 30.953441 24.500857 
L 31.07087 24.51352 
L 31.084962 24.473769 
L 31.225877 24.32941 
L 31.324518 24.326074 
L 31.244666 24.279219 
L 31.33861 24.284393 
L 31.451342 24.199737 
L 31.465434 24.206257 
L 31.535892 24.144491 
L 31.573469 24.195011 
L 31.766054 24.059673 
L 31.775448 24.08729 
L 32.348505 24.204689 
L 32.353202 24.175745 
L 32.3579 24.151685 
L 32.442449 24.240951 
L 32.45654 24.205 
L 32.503512 24.267611 
L 32.578667 24.222928 
L 32.588062 24.237961 
L 32.743069 24.073488 
L 32.818224 23.940353 
L 32.893379 23.865239 
L 32.860499 23.955786 
L 32.930956 23.899903 
L 32.987323 23.869479 
L 32.95914 23.836215 
L 33.015506 23.837777 
L 33.038992 23.803975 
L 33.114147 23.920114 
L 33.161119 23.835579 
L 33.226879 23.885712 
L 33.231576 23.902196 
L 33.316126 23.798373 
L 33.414767 23.800406 
L 33.424161 23.81502 
L 33.428858 23.837805 
L 33.513408 23.72944 
L 33.583865 23.780887 
L 33.630837 23.700147 
L 33.65902 23.638771 
L 33.738873 23.642503 
L 33.856302 23.540231 
L 33.865697 23.552585 
L 33.936154 23.61633 
L 33.903274 23.526873 
L 33.978429 23.559328 
L 34.091162 23.477371 
L 34.034795 23.585191 
L 34.100556 23.486614 
L 34.222683 23.550304 
L 34.114648 23.474075 
L 34.22738 23.539428 
L 34.363598 23.40302 
L 34.626641 23.226895 
L 34.767557 23.030009 
L 34.814528 23.003069 
L 34.833317 22.952681 
L 34.838014 22.955131 
L 34.950747 22.929832 
L 34.917867 23.01414 
L 34.964838 22.937289 
L 35.119846 22.879145 
L 35.270156 22.508803 
L 35.378191 22.095141 
L 35.472135 20.102753 
L 35.490923 8.983639 
L 35.58017 19.374416 
L 35.61305 23.504394 
L 35.706994 22.796996 
L 35.857304 20.241784 
L 35.876093 10.547158 
L 35.960642 21.154775 
L 35.984128 24.022465 
L 36.073375 23.089916 
L 36.209593 21.018589 
L 36.228382 15.271566 
L 36.237776 10.505895 
L 36.327023 21.71353 
L 36.345811 24.368539 
L 36.439755 23.372573 
L 36.590065 20.81922 
L 36.613551 10.348925 
L 36.702798 20.570266 
L 36.726284 24.681809 
L 36.820227 23.701569 
L 36.979932 21.466312 
L 37.003418 19.607904 
L 37.017509 10.118475 
L 37.111453 21.041882 
L 37.134939 24.973233 
L 37.228883 24.0257 
L 37.41677 21.592457 
L 37.444953 19.495889 
L 37.459045 9.941727 
L 37.552989 20.628577 
L 37.576475 25.178597 
L 37.670418 24.339467 
L 37.914672 21.157274 
L 37.933461 14.401902 
L 37.942855 9.842679 
L 38.036799 20.978085 
L 38.064982 25.335421 
L 38.154229 24.564275 
L 38.459546 20.114258 
L 38.473637 9.771492 
L 38.567581 20.366931 
L 38.595764 25.410551 
L 38.685011 24.71343 
L 39.041997 20.615669 
L 39.060786 9.655396 
L 39.150032 19.819949 
L 39.182913 25.449102 
L 39.272159 24.764983 
L 39.690209 19.764375 
L 39.7043 9.65179 
L 39.793547 20.688456 
L 39.826427 25.420065 
L 39.910977 24.775245 
L 40.075378 23.503914 
L 40.385392 20.82591 
L 40.404181 11.256841 
L 40.408878 9.707807 
L 40.488731 19.210682 
L 40.526308 25.336834 
L 40.620252 24.632923 
L 40.765865 23.573906 
L 41.183914 20.32487 
L 41.2074 9.869585 
L 41.282555 20.462895 
L 41.315435 25.150564 
L 41.399985 24.515977 
L 41.977739 20.338787 
L 42.001225 9.875207 
L 42.07638 20.793501 
L 42.10926 25.0886 
L 42.193809 24.492696 
L 42.588373 22.313545 
L 42.780958 21.536928 
L 42.832627 20.283572 
L 42.856113 9.912948 
L 42.931268 21.367725 
L 42.968845 25.003675 
L 43.048698 24.403929 
L 43.527811 22.051209 
L 43.546599 22.057913 
L 43.598268 21.952365 
L 43.682818 21.620215 
L 43.753276 20.51804 
L 43.781459 9.97421 
L 43.851917 20.602546 
L 43.889494 24.901923 
L 43.969346 24.320001 
L 44.415579 22.206295 
L 44.734988 21.88731 
L 44.749079 21.926448 
L 44.777262 21.893086 
L 44.941664 22.241731 
L 45.11546 22.771417 
L 45.120157 22.746598 
L 45.181221 22.727434 
L 45.138946 22.755655 
L 45.23289 22.75861 
L 45.331531 22.954143 
L 45.48184 23.247206 
L 45.773066 23.751385 
L 45.89989 23.990676 
L 45.928073 23.942788 
L 46.022017 24.11816 
L 46.195813 24.393302 
L 46.876905 25.458779 
L 47.139948 25.995726 
L 47.398293 26.378099 
L 47.431173 26.347338 
L 47.614363 26.376707 
L 47.868012 26.881495 
L 47.877406 26.861311 
L 47.966652 26.863652 
L 47.905589 26.901838 
L 47.976047 26.901312 
L 48.116962 27.037911 
L 48.145146 27.012789 
L 48.267272 26.98308 
L 48.196815 27.055032 
L 48.27197 26.996221 
L 48.398794 27.062791 
L 48.42228 27.015834 
L 48.57259 26.955917 
L 48.586681 27.013633 
L 48.694717 27.136467 
L 48.718202 27.121373 
L 48.783963 27.136235 
L 48.807449 27.191731 
L 48.840329 27.213908 
L 48.854421 27.16144 
L 48.891998 27.157484 
L 48.995336 27.105444 
L 48.943667 27.174663 
L 49.004731 27.110168 
L 49.065794 27.080113 
L 49.145646 27.176945 
L 49.281865 27.109515 
L 49.295956 27.14767 
L 49.549605 27.166444 
L 49.554302 27.144942 
L 49.671731 27.032414 
L 49.676429 27.045843 
L 49.897196 27.168192 
L 49.906591 27.14393 
L 49.99114 27.037291 
L 50.019323 27.108228 
L 50.179028 27.068868 
L 50.240091 27.016734 
L 50.268274 27.122455 
L 50.272971 27.14942 
L 50.366915 27.044409 
L 50.531317 26.904251 
L 50.540711 26.941167 
L 50.573591 27.019237 
L 50.648746 26.934189 
L 50.794359 26.839218 
L 50.70981 26.96973 
L 50.799056 26.843765 
L 50.841331 26.872703 
L 50.907092 26.831592 
L 51.019824 26.714222 
L 50.92588 26.842748 
L 51.062099 26.738082 
L 51.174831 26.767624 
L 51.179529 26.763727 
L 51.320444 26.615634 
L 51.423782 26.656741 
L 51.339233 26.594434 
L 51.437874 26.636331 
L 51.513029 26.496174 
L 51.578789 26.55882 
L 51.583487 26.568207 
L 51.630458 26.464948 
L 51.64455 26.465007 
L 51.67743 26.405136 
L 51.733797 26.547037 
L 51.738494 26.530691 
L 51.931078 26.462679 
L 52.039114 26.439338 
L 51.963959 26.495119 
L 52.048508 26.45082 
L 52.21291 26.603299 
L 52.076691 26.417371 
L 52.236396 26.566871 
L 52.382008 26.475182 
L 52.27867 26.604202 
L 52.386706 26.487274 
L 52.466558 26.56293 
L 52.522924 26.511558 
L 52.551107 26.473521 
L 52.57929 26.555915 
L 52.630959 26.515988 
L 52.7296 26.526342 
L 52.668537 26.484299 
L 52.738995 26.495225 
L 52.955065 26.375637 
L 52.959762 26.397286 
L 53.124164 26.61794 
L 53.128861 26.608123 
L 53.260382 26.567996 
L 53.382509 26.732425 
L 53.396601 26.705622 
L 53.532819 26.725257 
L 53.443573 26.640354 
L 53.542214 26.692586 
L 53.561002 26.703912 
L 53.701918 26.603308 
L 53.786467 26.720701 
L 53.838136 26.669593 
L 54.054207 26.724163 
L 53.852228 26.635154 
L 54.072996 26.694484 
L 54.185728 26.632917 
L 54.190425 26.644277 
L 54.31725 26.709228 
L 54.209214 26.630315 
L 54.326644 26.699226 
L 54.462862 26.579405 
L 54.655447 26.643738 
L 54.664841 26.633129 
L 54.772877 26.606479 
L 54.725905 26.658303 
L 54.782271 26.624295 
L 54.829243 26.67694 
L 54.86682 26.602443 
L 54.895004 26.622873 
L 55.026525 26.638112 
L 55.045314 26.68719 
L 55.10168 26.685444 
L 55.106377 26.724743 
L 55.143954 26.604735 
L 55.205018 26.620327 
L 55.397603 26.715202 
L 55.533821 26.647944 
L 55.406997 26.720771 
L 55.538518 26.653662 
L 55.608976 26.706739 
L 55.651251 26.647878 
L 55.717011 26.606581 
L 55.684131 26.68176 
L 55.763983 26.643231 
L 55.881413 26.642561 
L 55.909596 26.699308 
L 55.956568 26.623481 
L 55.994145 26.661244 
L 56.149153 26.63303 
L 56.163244 26.667806 
L 56.238399 26.672848 
L 56.172638 26.64583 
L 56.261885 26.61346 
L 56.266582 26.601759 
L 56.313554 26.675987 
L 56.355829 26.662782 
L 56.412195 26.721222 
L 56.379315 26.656997 
L 56.463864 26.670433 
L 56.48735 26.659597 
L 56.534322 26.766014 
L 56.595385 26.756837 
L 56.553111 26.72652 
L 56.628266 26.726445 
L 56.679935 26.626199 
L 56.745695 26.687703 
L 56.900702 26.772612 
L 56.910097 26.760982 
L 56.924188 26.795034 
L 57.065104 26.657774 
L 57.083893 26.695437 
L 57.112076 26.619052 
L 57.177837 26.648372 
L 57.243597 26.608834 
L 57.281175 26.674567 
L 58.103182 26.581644 
L 58.112577 26.562492 
L 58.178337 26.641235 
L 58.206521 26.615291 
L 58.417894 26.752163 
L 58.422591 26.734355 
L 58.554112 26.647268 
L 59.390212 26.638923 
L 59.418395 26.628332 
L 59.446578 26.694082 
L 59.474761 26.708728 
L 59.625071 26.646499 
L 59.747198 26.589025 
L 59.939783 26.721468 
L 59.949177 26.704723 
L 60.076001 26.609734 
L 59.972663 26.714833 
L 60.090093 26.626998 
L 60.202825 26.669091 
L 60.155853 26.581081 
L 60.207522 26.660876 
L 60.221614 26.627172 
L 60.263888 26.706141 
L 60.31086 26.699288 
L 60.315558 26.705538 
L 60.343741 26.639692 
L 60.376621 26.633236 
L 60.447079 26.660185 
L 60.489353 26.610775 
L 60.592692 26.575166 
L 60.517537 26.633904 
L 60.606783 26.616459 
L 60.658452 26.605308 
L 60.724213 26.663433 
L 60.733607 26.639112 
L 60.808762 26.709195 
L 60.827551 26.711541 
L 60.898009 26.65269 
L 60.954375 26.692518 
L 60.99665 26.71191 
L 61.034227 26.62386 
L 61.053016 26.637398 
L 61.095291 26.636765 
L 61.118777 26.553556 
L 61.128171 26.552263 
L 61.132868 26.533523 
L 61.17984 26.601635 
L 61.231509 26.585668 
L 61.386516 26.564355 
L 61.546221 26.717243 
L 61.410002 26.52513 
L 61.574404 26.677183 
L 61.682439 26.569665 
L 61.701228 26.576794 
L 61.790474 26.705803 
L 61.823355 26.658361 
L 62.039425 26.584571 
L 62.044122 26.592009 
L 62.161552 26.657595 
L 62.067608 26.56845 
L 62.180341 26.641349 
L 62.23201 26.615954 
L 62.246101 26.658154 
L 62.288376 26.65484 
L 62.490355 26.617034 
L 62.504447 26.649152 
L 62.621876 26.702342 
L 62.53263 26.618336 
L 62.631271 26.683025 
L 62.823855 26.675247 
L 62.842644 26.732292 
L 62.927194 26.670492 
L 62.969468 26.622832 
L 63.025835 26.699667 
L 63.035229 26.687926 
L 63.044623 26.707118 
L 63.091595 26.568482 
L 63.115081 26.567123 
L 63.138567 26.56189 
L 63.185539 26.653298 
L 63.194933 26.644049 
L 63.209025 26.677625 
L 63.293574 26.594729 
L 63.335849 26.647361 
L 63.387518 26.636362 
L 63.396912 26.674894 
L 63.495553 26.624959 
L 63.608286 26.673069 
L 63.725715 26.71932 
L 63.730413 26.70632 
L 63.843145 26.590332 
L 63.871328 26.570155 
L 63.927694 26.679107 
L 63.993455 26.624259 
L 64.049821 26.700809 
L 64.195434 26.61684 
L 64.059216 26.711968 
L 64.214223 26.646483 
L 64.350441 26.721884 
L 64.359836 26.708925 
L 64.416202 26.663115 
L 64.378624 26.717246 
L 64.472568 26.701318 
L 64.580603 26.703279 
L 64.496054 26.671116 
L 64.585301 26.696742 
L 64.594695 26.651649 
L 64.683942 26.724697 
L 64.688639 26.712741 
L 64.70273 26.749541 
L 64.777885 26.676278 
L 64.796674 26.71144 
L 64.885921 26.589767 
L 64.923498 26.642228 
L 65.069111 26.719719 
L 64.93759 26.628215 
L 65.078505 26.704154 
L 65.144266 26.597976 
L 65.219421 26.687486 
L 65.336851 26.772992 
L 65.360337 26.723682 
L 65.440189 26.691203 
L 65.45428 26.657559 
L 65.557618 26.519171 
L 65.590499 26.574157 
L 65.693837 26.624889 
L 65.703231 26.589833 
L 65.862936 26.717422 
L 65.891119 26.664201 
L 65.98976 26.682191 
L 65.947485 26.711237 
L 65.994457 26.701215 
L 66.013246 26.746567 
L 66.079006 26.63882 
L 66.093098 26.645432 
L 66.182344 26.656725 
L 66.144767 26.691201 
L 66.196436 26.691201 
L 66.299774 26.755537 
L 66.20583 26.685027 
L 66.318563 26.72253 
L 66.722521 26.522136 
L 66.788281 26.580402 
L 66.839951 26.520862 
L 67.229817 26.490101 
L 67.295578 26.510248 
L 67.272092 26.586521 
L 67.319064 26.545557 
L 67.337852 26.572322 
L 67.366035 26.502922 
L 67.417705 26.498689 
L 67.699536 26.2898 
L 67.704233 26.315089 
L 67.755902 26.368058 
L 67.812268 26.297471 
L 67.845149 26.228772 
L 67.920304 26.318212 
L 68.000156 26.358004 
L 68.033036 26.303737 
L 68.108191 26.218517 
L 68.145769 26.27649 
L 68.249107 26.361755 
L 68.272593 26.353338 
L 68.573213 26.307517 
L 68.690642 26.295813 
L 68.648368 26.352789 
L 68.695339 26.305973 
L 68.756403 26.342086 
L 68.808072 26.254443 
L 68.864438 26.11331 
L 68.948988 26.172632 
L 69.047628 26.185441 
L 68.991262 26.143927 
L 69.066417 26.167025 
L 69.207333 26.094612 
L 69.089903 26.201748 
L 69.216727 26.135253 
L 69.334157 26.173347 
L 69.348248 26.161801 
L 69.503256 26.01028 
L 69.51265 26.036787 
L 69.583108 25.962841 
L 69.611291 25.985024 
L 69.634777 26.005054 
L 69.69584 25.915346 
L 69.719326 25.957537 
L 69.827362 25.94055 
L 69.84615 25.988145 
L 69.907214 26.029044 
L 69.958883 25.990251 
L 70.254806 25.841334 
L 70.259503 25.84796 
L 70.287686 25.886207 
L 70.344052 25.795484 
L 70.367538 25.822714 
L 71.086208 25.805422 
L 71.156666 25.745438 
L 71.104996 25.764308 
L 71.161363 25.734261 
L 71.255306 25.651349 
L 71.28349 25.701213 
L 71.419708 25.830885 
L 71.438497 25.776693 
L 71.58411 25.866509 
L 71.602898 25.799392 
L 71.668659 25.763692 
L 71.710934 25.829497 
L 71.941096 26.039135 
L 71.955187 26.025757 
L 72.082011 25.928489 
L 72.110194 25.979357 
L 72.175955 25.990489 
L 72.274596 25.998527 
L 72.246413 25.950224 
L 72.28399 25.967034 
L 72.424906 25.78765 
L 72.429603 25.790309 
L 72.542336 25.684306 
L 72.594005 25.750154 
L 72.678554 25.649615 
L 72.758406 25.819782 
L 72.810075 25.748521 
L 72.871139 25.733868 
L 72.889928 25.701171 
L 72.936899 25.625503 
L 72.997963 25.692638 
L 73.00266 25.705367 
L 73.063723 25.584518 
L 73.073118 25.586912 
L 73.383132 25.508281 
L 73.425407 25.417932 
L 73.500562 25.472046 
L 74.519852 24.918886 
L 74.585612 24.843626 
L 74.637281 24.903336 
L 74.792288 24.895211 
L 74.905021 24.852035 
L 74.825169 24.918262 
L 74.914415 24.866494 
L 74.937901 24.892439 
L 74.980176 24.800076 
L 75.013056 24.823452 
L 75.215035 24.625121 
L 75.323071 24.655234 
L 75.233824 24.599851 
L 75.327768 24.640175 
L 75.431106 24.518959 
L 75.478078 24.558406 
L 75.595507 24.622568 
L 75.609599 24.609676 
L 75.755212 24.469858 
L 75.933705 24.480354 
L 76.055832 24.436619 
L 76.065226 24.470563 
L 76.098106 24.384038 
L 76.163867 24.421559 
L 76.248416 24.457021 
L 76.253114 24.494927 
L 76.347057 24.358551 
L 76.356452 24.372382 
L 76.403424 24.275332 
L 76.436304 24.288478 
L 76.863748 24.131639 
L 76.91072 24.078322 
L 76.962389 24.194178 
L 77.225431 24.114857 
L 77.333467 24.138777 
L 77.352255 24.116634 
L 77.540143 24.031657 
L 77.371044 24.155293 
L 77.549537 24.065752 
L 77.573023 24.113858 
L 77.666967 24.115996 
L 77.671664 24.118791 
L 77.709242 24.025913 
L 77.723333 24.029304 
L 77.840763 23.978723 
L 77.850157 23.987345 
L 78.131988 24.011223 
L 78.235327 23.899023 
L 78.258812 23.926781 
L 78.376242 23.951949 
L 78.390334 23.928258 
L 78.958693 23.448065 
L 78.404425 23.943228 
L 78.963391 23.454881 
L 79.066729 23.34303 
L 79.090215 23.304745 
L 79.155975 23.380967 
L 79.170067 23.367626 
L 79.226433 23.292029 
L 79.254616 23.316269 
L 79.376743 23.278019 
L 79.489476 23.319534 
L 79.517659 23.299745 
L 79.902828 22.830917 
L 79.91692 22.840154 
L 79.931011 22.857594 
L 79.977983 22.70895 
L 79.98268 22.710325 
L 80.179962 21.854351 
L 80.226934 20.449858 
L 80.25042 8.908898 
L 80.339666 19.447035 
L 80.36785 23.600775 
L 80.46649 22.86712 
L 80.621498 20.06432 
L 80.640286 10.595659 
L 80.724836 21.351072 
L 80.748322 24.000379 
L 80.837568 23.04321 
L 80.983181 19.587667 
L 80.997273 10.578515 
L 81.086519 21.448781 
L 81.105308 24.287724 
L 81.199252 23.275736 
L 81.344864 20.450917 
L 81.363653 10.456871 
L 81.4529 20.649315 
L 81.476386 24.583428 
L 81.570329 23.538731 
L 81.725337 21.092406 
L 81.744125 14.271231 
L 81.75352 10.304521 
L 81.842766 20.25267 
L 81.870949 24.840431 
L 81.960196 23.897841 
L 82.152781 20.416189 
L 82.171569 10.084072 
L 82.260816 19.586569 
L 82.288999 25.079524 
L 82.382943 24.166347 
L 82.599013 21.227037 
L 82.617802 16.607659 
L 82.627197 9.886053 
L 82.72114 20.246981 
L 82.749323 25.272276 
L 82.83857 24.473556 
L 83.111007 20.662818 
L 83.129796 9.77926 
L 83.223739 20.362425 
L 83.251922 25.368409 
L 83.341169 24.617944 
L 83.533754 22.76541 
L 83.665275 20.235074 
L 83.684064 9.774462 
L 83.77331 20.355283 
L 83.801493 25.425956 
L 83.89074 24.734625 
L 84.261818 21.004284 
L 84.275909 18.044507 
L 84.290001 9.767802 
L 84.379247 21.921624 
L 84.40743 25.412628 
L 84.496677 24.74121 
L 84.839572 22.113345 
L 84.933515 20.604802 
L 84.957001 9.76567 
L 85.036854 19.750018 
L 85.069734 25.353318 
L 85.15898 24.697196 
L 85.647488 20.165186 
L 85.666277 9.744268 
L 85.750826 21.881429 
L 85.779009 25.27244 
L 85.868256 24.633089 
L 85.948108 24.009379 
L 86.422524 20.276279 
L 86.44601 9.916727 
L 86.521165 20.651389 
L 86.554045 25.141199 
L 86.638594 24.538748 
L 87.014369 22.335182 
L 87.164679 21.67064 
L 87.221046 20.579719 
L 87.244532 9.846549 
L 87.319687 19.925934 
L 87.352567 25.095725 
L 87.441813 24.468387 
L 87.845771 22.259388 
L 87.850469 22.26329 
L 87.869257 22.14746 
L 88.094722 20.208256 
L 88.118208 9.963021 
L 88.193363 21.711258 
L 88.226244 24.999391 
L 88.310793 24.341054 
L 88.893244 21.961015 
L 89.245533 21.684334 
L 89.287808 21.826544 
L 89.358266 22.062474 
L 89.522667 22.593204 
L 89.564942 22.69415 
L 89.70116 22.943674 
L 89.710555 22.936651 
L 89.837379 23.077805 
L 89.978294 23.379788 
L 90.072238 23.49986 
L 90.344675 23.979159 
L 90.349372 23.967866 
L 90.354069 23.955262 
L 90.433922 24.045987 
L 90.617112 24.366484 
L 90.635901 24.344234 
L 90.786211 24.721826 
L 90.90364 24.840352 
L 91.152591 25.206258 
L 91.157288 25.175888 
L 91.265324 25.396001 
L 91.448514 25.782691 
L 91.453211 25.768458 
L 91.518972 25.910656 
L 91.523669 25.903274 
L 91.528366 25.899426 
L 91.547155 25.998329 
L 91.688071 26.249942 
L 91.692768 26.245073 
L 91.730345 26.276105 
L 91.73974 26.341686 
L 91.744437 26.323792 
L 91.908838 26.597274 
L 91.913536 26.576607 
L 92.068543 26.789428 
L 92.10612 26.846569 
L 92.143698 26.778261 
L 92.181275 26.817318 
L 92.67448 26.925573 
L 92.749635 26.896644 
L 92.702663 26.944736 
L 92.777818 26.952484 
L 92.810698 26.969199 
L 92.85767 26.848428 
L 92.904642 26.814711 
L 92.932825 26.874258 
L 92.970403 26.845535 
L 92.989191 26.803809 
L 93.031466 26.897309 
L 93.059649 26.897471 
L 93.195868 27.045714 
L 93.379058 27.053363 
L 93.383755 27.03616 
L 93.421333 26.982641 
L 93.473002 27.082493 
L 93.487093 27.073595 
L 93.740741 26.979765 
L 93.745439 26.954167 
L 93.834685 27.078326 
L 93.947418 27.154494 
L 93.970904 27.132737 
L 93.975601 27.122614 
L 93.999087 27.195399 
L 94.069544 27.171361 
L 94.163488 27.224229 
L 94.140002 27.135947 
L 94.182277 27.190848 
L 94.295009 27.149524 
L 94.388953 27.056741 
L 94.351376 27.160787 
L 94.412439 27.110184 
L 94.562749 27.029343 
L 94.623813 27.026819 
L 94.581538 27.061368 
L 94.666087 27.054041 
L 94.877461 27.102492 
L 94.69427 27.020826 
L 94.882158 27.096926 
L 95.215658 26.86494 
L 95.243841 26.829403 
L 95.328391 26.875896 
L 95.661891 26.936375 
L 95.666588 26.924733 
L 95.793412 26.834571 
L 95.802807 26.817906 
L 95.845081 26.921816 
L 95.882659 26.979433 
L 95.934328 26.863706 
L 95.939025 26.838049 
L 96.004786 26.911055 
L 96.037666 26.906783 
L 96.479201 26.559058 
L 96.483899 26.536174 
L 96.568448 26.613628 
L 96.591934 26.560641 
L 96.737547 26.573187 
L 96.742244 26.565911 
L 97.4844 26.346208 
L 97.63471 26.528963 
L 97.719259 26.407281 
L 97.756836 26.455929 
L 97.836689 26.65781 
L 97.88366 26.570419 
L 98.010484 26.654814 
L 98.024576 26.64868 
L 98.221858 26.707654 
L 98.226555 26.693674 
L 98.240647 26.653158 
L 98.282921 26.742691 
L 98.33459 26.705448 
L 98.588239 26.656996 
L 98.691577 26.639854 
L 98.639908 26.681836 
L 98.700971 26.643948 
L 98.757337 26.617854 
L 98.827795 26.724571 
L 98.893556 26.661591 
L 98.940528 26.710856 
L 99.034471 26.658022 
L 98.949922 26.716209 
L 99.062654 26.695825 
L 99.151901 26.663265 
L 99.180084 26.727971 
L 99.330394 26.706195 
L 99.227056 26.79226 
L 99.335091 26.727487 
L 99.508887 26.688995 
L 99.62162 26.659961 
L 99.584042 26.726071 
L 99.626317 26.673262 
L 99.729655 26.711594 
L 99.640408 26.662397 
L 99.743747 26.702857 
L 99.917542 26.603433 
L 99.926937 26.633076 
L 99.945726 26.685879 
L 100.006789 26.613467 
L 100.039669 26.659199 
L 100.143007 26.605503 
L 100.053761 26.688214 
L 100.185282 26.663563 
L 100.302712 26.740969 
L 100.316803 26.725818 
L 100.678487 26.643508 
L 100.730156 26.649103 
L 100.748945 26.589177 
L 100.786522 26.617413 
L 101.152903 26.655795 
L 101.209269 26.684087 
L 101.251544 26.613544 
L 101.270332 26.57669 
L 101.312607 26.686863 
L 101.331396 26.689667 
L 101.368973 26.632569 
L 101.430037 26.66734 
L 101.434734 26.639357 
L 101.467614 26.714545 
L 101.538072 26.691063 
L 101.678988 26.762034 
L 101.688382 26.737104 
L 101.843389 26.579938 
L 101.848086 26.600678 
L 101.970213 26.651034 
L 102.003094 26.632517 
L 102.064157 26.704872 
L 103.214968 26.632366 
L 103.219665 26.614753 
L 103.290123 26.713707 
L 103.308912 26.707691 
L 103.586046 26.548381 
L 103.618926 26.609124 
L 103.675292 26.709715 
L 103.74575 26.683224 
L 103.792722 26.578687 
L 103.872574 26.629829 
L 103.947729 26.608648 
L 103.910152 26.676906 
L 103.971215 26.675018 
L 103.975912 26.687075 
L 104.01349 26.573135 
L 104.065159 26.612047 
L 104.126222 26.535941 
L 104.173194 26.615215 
L 104.187286 26.661896 
L 104.234257 26.568384 
L 104.281229 26.598894 
L 104.285927 26.591833 
L 104.342293 26.680649 
L 104.34699 26.683692 
L 104.473814 26.754977 
L 104.858983 26.571896 
L 104.868378 26.598645 
L 104.990505 26.714955 
L 104.999899 26.691195 
L 105.084448 26.624386 
L 105.122026 26.642818 
L 105.183089 26.68955 
L 105.230061 26.619771 
L 105.342794 26.708947 
L 105.408554 26.665033 
L 105.460223 26.730134 
L 105.587047 26.73865 
L 105.601139 26.694119 
L 105.610533 26.653864 
L 105.685688 26.713504 
L 105.709174 26.700859 
L 105.85009 26.696327 
L 105.73266 26.657325 
L 105.859484 26.681653 
L 105.986308 26.496902 
L 106.005097 26.524369 
L 106.056766 26.568477 
L 106.080252 26.508288 
L 106.11783 26.551715 
L 106.197682 26.474126 
L 106.230562 26.536295 
L 106.498302 26.577979 
L 106.587548 26.562974 
L 106.60164 26.527229 
L 106.803619 26.442926 
L 106.813013 26.464735 
L 106.827105 26.444181 
L 106.972718 26.489047 
L 107.329704 26.594871 
L 107.339098 26.555794 
L 107.461225 26.483331 
L 107.480014 26.499462 
L 107.494105 26.427304 
L 107.545774 26.423488 
L 107.555169 26.386891 
L 107.625627 26.480995 
L 107.639718 26.47667 
L 107.775937 26.596784 
L 107.649113 26.471892 
L 107.80412 26.56038 
L 108.043676 26.537114 
L 108.057768 26.572097 
L 108.156409 26.572562 
L 108.175198 26.530634 
L 108.311416 26.437458 
L 108.316113 26.451452 
L 108.391268 26.342346 
L 108.395965 26.347189 
L 108.583853 26.418497 
L 108.58855 26.408468 
L 108.781135 26.334162 
L 108.828107 26.294943 
L 108.88917 26.346187 
L 109.077057 26.272397 
L 109.138121 26.196673 
L 109.086452 26.29665 
L 109.194487 26.278942 
L 109.255551 26.342656 
L 109.311917 26.300549 
L 109.368283 26.222667 
L 109.424649 26.266836 
L 109.551473 26.381283 
L 109.598445 26.335646 
L 109.617234 26.267414 
L 109.664206 26.377237 
L 109.706481 26.339182 
L 109.814516 26.284827 
L 109.856791 26.255586 
L 109.913157 26.345734 
L 110.490911 25.895835 
L 109.922551 26.362699 
L 110.500305 25.927724 
L 110.551974 25.984167 
L 110.5097 25.919084 
L 110.60834 25.915822 
L 111.547778 25.523521 
L 111.637024 25.425058 
L 111.679299 25.44086 
L 111.721574 25.498516 
L 111.693391 25.432792 
L 111.787334 25.443195 
L 111.900067 25.371541 
L 111.829609 25.454291 
L 111.904764 25.373947 
L 111.923553 25.402429 
L 111.970525 25.294063 
L 111.979919 25.290347 
L 112.059771 25.249526 
L 112.097349 25.27074 
L 112.102046 25.288052 
L 112.172504 25.209438 
L 112.200687 25.237365 
L 112.210081 25.210419 
L 112.266448 25.317958 
L 112.294631 25.295327 
L 112.698589 25.310736 
L 112.848899 25.227791 
L 112.975723 25.12308 
L 112.895871 25.253896 
L 112.989814 25.146328 
L 113.102547 25.154023 
L 113.079061 25.082474 
L 113.107244 25.1371 
L 113.111941 25.146582 
L 113.154216 25.066936 
L 113.191793 25.075297 
L 113.234068 25.037769 
L 113.252857 25.096826 
L 113.304526 25.062161 
L 113.342103 25.098468 
L 113.389075 25.035148 
L 113.412561 25.043013 
L 113.54878 25.087868 
L 113.553477 25.109503 
L 113.670906 25.194399 
L 113.727273 25.150686 
L 113.727273 25.150686 
" style="fill:none;stroke:#000000;stroke-linecap:square;stroke-width:0.3;"/>
   </g>
   <g id="line2d_2">
    <path clip-path="url(#p32f7e6e64a)" d="M 12.272727 45.560332 
L 12.521678 42.118304 
L 12.540467 34.555874 
L 12.549861 30.927906 
L 12.643805 39.356211 
L 12.68608 46.18051 
L 12.798812 45.228786 
L 13.033672 40.973909 
L 13.047763 30.846725 
L 13.146404 39.55681 
L 13.183982 46.363421 
L 13.296714 45.547446 
L 13.583242 40.708391 
L 13.597334 30.699461 
L 13.691278 39.185696 
L 13.73825 46.528672 
L 13.855679 45.752229 
L 14.076447 43.771297 
L 14.198574 41.844251 
L 14.22206 30.598039 
L 14.320701 40.316891 
L 14.362976 46.686998 
L 14.447525 46.230417 
L 14.813906 43.515758 
L 14.926638 41.024757 
L 14.945427 30.527284 
L 15.039371 40.239106 
L 15.081645 46.819023 
L 15.170892 46.399248 
L 15.260138 45.995977 
L 15.494998 44.605276 
L 15.800315 42.145992 
L 15.819104 39.088808 
L 15.833195 30.521153 
L 15.922442 40.992097 
L 15.969414 46.829922 
L 16.044569 46.524475 
L 16.133815 46.202212 
L 16.415646 45.316547 
L 16.453224 45.219728 
L 16.533076 44.983794 
L 16.584745 45.043273 
L 16.69278 44.959908 
L 16.824302 44.852031 
L 16.838393 44.860979 
L 17.059161 44.761489 
L 17.171893 44.78811 
L 17.11083 44.712421 
L 17.176591 44.784 
L 17.397358 45.286876 
L 17.566457 45.804472 
L 17.697978 45.96489 
L 17.867077 46.295659 
L 17.871774 46.286473 
L 18.120725 46.64191 
L 18.13012 46.628156 
L 18.134817 46.614487 
L 18.19588 46.772009 
L 18.383768 47.160986 
L 18.388465 47.150241 
L 18.454226 47.276966 
L 18.458923 47.265197 
L 18.590444 47.481242 
L 18.642113 47.414689 
L 18.867578 47.564955 
L 18.660902 47.389959 
L 18.872275 47.558278 
L 18.909853 47.51492 
L 18.94743 47.583549 
L 18.980311 47.545698 
L 19.111832 47.605009 
L 19.116529 47.591144 
L 19.224564 47.528209 
L 19.158804 47.638645 
L 19.238656 47.552487 
L 19.309114 47.444135 
L 19.388966 47.5507 
L 20.14991 47.470066 
L 20.243854 47.337606 
L 20.290826 47.416655 
L 20.384769 47.498884 
L 20.323706 47.403179 
L 20.41765 47.483021 
L 20.422347 47.444335 
L 20.455227 47.53845 
L 20.525685 47.480953 
L 20.652509 47.582907 
L 20.563263 47.462119 
L 20.657206 47.575538 
L 20.774636 47.542016 
L 20.713573 47.624425 
L 20.793425 47.562424 
L 20.962524 47.628927 
L 20.976615 47.604709 
L 21.079953 47.471195 
L 21.103439 47.476644 
L 21.126925 47.512665 
L 21.263143 47.444522 
L 21.35239 47.466118 
L 21.296024 47.421299 
L 21.375876 47.443644 
L 21.934841 47.568311 
L 22.014693 47.614074 
L 22.047574 47.574353 
L 22.13682 47.53447 
L 22.165003 47.568606 
L 22.169701 47.583392 
L 22.22137 47.476302 
L 22.249553 47.472583 
L 22.296525 47.562911 
L 22.37168 47.464066 
L 22.399863 47.430581 
L 22.446835 47.534808 
L 22.573659 47.625256 
L 22.578356 47.60298 
L 22.747455 47.435601 
L 22.817912 47.473234 
L 22.770941 47.41816 
L 22.869582 47.446057 
L 22.991708 47.367026 
L 22.897765 47.451657 
L 22.996406 47.374481 
L 23.42385 47.436643 
L 23.541279 47.557626 
L 23.550674 47.541731 
L 23.672801 47.470796 
L 23.682195 47.480062 
L 23.691589 47.468329 
L 23.851294 47.599625 
L 23.992209 47.448307 
L 23.996906 47.455636 
L 24.170702 47.602025 
L 24.1754 47.61086 
L 24.222371 47.543388 
L 24.269343 47.558492 
L 24.410259 47.414468 
L 24.522991 47.458493 
L 24.527689 47.449197 
L 24.569963 47.408296 
L 24.621632 47.507518 
L 25.105443 47.465463 
L 25.255753 47.539907 
L 25.26045 47.531022 
L 25.373182 47.460058 
L 25.382577 47.46667 
L 25.44364 47.551032 
L 25.485915 47.443868 
L 25.495309 47.463882 
L 25.504704 47.489253 
L 25.551675 47.405042 
L 25.584556 47.394213 
L 25.701985 47.383637 
L 25.838204 47.469313 
L 25.847598 47.447694 
L 25.903964 47.566058 
L 26.533387 47.259548 
L 26.561571 47.331039 
L 26.688395 47.482038 
L 26.575662 47.317409 
L 26.730669 47.427413 
L 26.735367 47.413161 
L 26.810522 47.521176 
L 26.834007 47.463808 
L 27.031289 47.445096 
L 27.035987 47.452431 
L 27.172205 47.617729 
L 27.289635 47.547825 
L 27.294332 47.557377 
L 27.299029 47.568135 
L 27.346001 47.485744 
L 27.383578 47.495192 
L 27.5151 47.36124 
L 27.538586 47.381613 
L 27.604346 47.493498 
L 27.66541 47.476285 
L 27.717079 47.367915 
L 27.801628 47.416925 
L 27.820417 47.406578 
L 27.947241 47.468601 
L 28.121037 47.438326 
L 28.247861 47.366734 
L 28.360593 47.424637 
L 28.36529 47.394936 
L 28.369988 47.373819 
L 28.426354 47.486541 
L 28.459234 47.475 
L 28.539086 47.548965 
L 28.576664 47.507338 
L 28.694094 47.520193 
L 28.604847 47.461475 
L 28.698791 47.498385 
L 28.78334 47.429538 
L 28.731671 47.538759 
L 28.835009 47.480823 
L 29.361094 47.299311 
L 29.370489 47.273745 
L 29.398672 47.344638 
L 29.469129 47.314775 
L 29.511404 47.27687 
L 29.581862 47.310028 
L 29.619439 47.247386 
L 29.680503 47.367407 
L 29.750961 47.385909 
L 29.694594 47.357606 
L 29.783841 47.327855 
L 30.004609 47.547806 
L 30.10325 47.63736 
L 30.122038 47.619157 
L 30.248863 47.521419 
L 30.281743 47.560963 
L 30.375687 47.574725 
L 30.333412 47.532326 
L 30.385081 47.529815 
L 30.516602 47.486981 
L 30.422658 47.571178 
L 30.521299 47.491836 
L 30.530694 47.508604 
L 30.840708 47.369458 
L 30.967532 47.475592 
L 30.972229 47.469376 
L 31.207089 47.342603 
L 30.991018 47.491681 
L 31.211786 47.347684 
L 31.329216 47.40666 
L 31.333913 47.39105 
L 31.470131 47.345649 
L 31.352702 47.421013 
L 31.479526 47.359627 
L 31.535892 47.369915 
L 31.517103 47.320818 
L 31.582864 47.332813 
L 31.719082 47.240052 
L 32.282745 47.588713 
L 32.292139 47.55512 
L 32.386083 47.452288 
L 32.418963 47.474032 
L 32.578667 47.626742 
L 32.437752 47.436135 
L 32.620942 47.576805 
L 32.75716 47.497524 
L 32.667914 47.59414 
L 32.761858 47.505974 
L 32.822921 47.49832 
L 32.790041 47.45052 
L 32.846407 47.439169 
L 33.701295 47.569406 
L 33.720084 47.60572 
L 33.795239 47.508748 
L 33.799936 47.520659 
L 34.490423 47.402176 
L 34.499817 47.449547 
L 34.589063 47.352935 
L 34.593761 47.358214 
L 34.71119 47.30289 
L 34.847409 47.219157 
L 35.09636 47.377112 
L 35.101057 47.367706 
L 35.199698 47.349524 
L 35.148029 47.397006 
L 35.213789 47.372296 
L 35.335916 47.450658 
L 35.340613 47.440316 
L 35.354705 47.409007 
L 35.392282 47.534103 
L 35.415768 47.521095 
L 35.509712 47.50055 
L 35.523804 47.472502 
L 35.622445 47.438095 
L 35.537895 47.477997 
L 35.636536 47.44543 
L 35.749269 47.498164 
L 35.753966 47.490139 
L 36.012311 47.515999 
L 36.035797 47.433328 
L 36.078072 47.528993 
L 36.125044 47.507622 
L 36.18141 47.492475 
L 36.223685 47.560763 
L 36.29884 47.643542 
L 36.341114 47.56104 
L 36.453847 47.445595 
L 36.378692 47.575694 
L 36.463241 47.472306 
L 36.571276 47.508947 
L 36.529002 47.457047 
L 36.575974 47.47764 
L 36.637037 47.451697 
L 36.669917 47.543736 
L 36.684009 47.497652 
L 36.787347 47.554423 
L 36.937657 47.477663 
L 37.05039 47.518204 
L 37.064481 47.486291 
L 37.219488 47.381487 
L 37.078573 47.515598 
L 37.224185 47.388401 
L 37.308735 47.421559 
L 37.261763 47.360035 
L 37.332221 47.377337 
L 37.444953 47.351138 
L 37.468439 47.401544 
L 37.609355 47.445109 
L 37.623446 47.407601 
L 37.689207 47.469503 
L 37.787848 47.270462 
L 37.797242 47.289571 
L 37.858306 47.212491 
L 37.891186 47.228454 
L 38.036799 47.215762 
L 38.083771 47.202513 
L 38.107257 47.263929 
L 38.140137 47.257876 
L 38.266961 47.252081 
L 38.393785 47.285248 
L 38.403179 47.269765 
L 38.50182 47.197358 
L 38.454848 47.304196 
L 38.515912 47.249665 
L 38.544095 47.329253 
L 38.61925 47.216781 
L 38.727285 47.227692 
L 38.647433 47.262068 
L 38.731983 47.233731 
L 38.774257 47.25349 
L 38.760166 47.205089 
L 38.835321 47.215916 
L 38.966842 47.150587 
L 39.098363 47.179592 
L 39.192307 47.10648 
L 39.239279 47.136288 
L 39.262765 47.171749 
L 39.300342 47.096185 
L 39.347314 47.121249 
L 39.455349 47.068844 
L 39.361406 47.151881 
L 39.474138 47.079039 
L 39.600962 47.14324 
L 39.507018 47.050458 
L 39.610357 47.117941 
L 39.751272 46.962977 
L 39.755969 46.967076 
L 39.85461 47.007419 
L 39.812336 46.947592 
L 39.868702 46.971672 
L 39.976737 47.123023 
L 40.047195 47.214227 
L 40.108258 47.176046 
L 40.164625 47.159044 
L 40.202202 47.221306 
L 40.23978 47.232021 
L 40.286751 47.141386 
L 40.413576 47.100194 
L 40.75647 46.931454 
L 40.770562 46.88519 
L 40.850414 46.992265 
L 40.859808 46.989307 
L 40.892689 46.970547 
L 40.934963 47.019983 
L 40.972541 47.005497 
L 40.981935 47.031629 
L 41.014816 46.967347 
L 41.075879 46.975642 
L 41.118154 46.937457 
L 41.165125 47.007352 
L 41.179217 46.998363 
L 41.310738 47.195046 
L 41.334224 47.13704 
L 41.437562 47.088118 
L 41.451654 47.102315 
L 41.526809 47.080566 
L 41.5409 47.028908 
L 41.65833 46.966819 
L 41.667725 46.995391 
L 41.672422 47.014157 
L 41.728788 46.95517 
L 41.771063 46.961833 
L 41.855612 46.955576 
L 41.780457 46.991871 
L 41.879098 47.011432 
L 41.893189 47.039775 
L 41.949556 46.936864 
L 41.977739 46.952602 
L 42.07638 46.869029 
L 42.090471 46.920599 
L 42.419274 46.845026 
L 42.10926 46.983341 
L 42.423972 46.859759 
L 42.503824 46.971912 
L 42.555493 46.902892 
L 42.733986 46.866475 
L 42.851416 46.824133 
L 42.809141 46.897872 
L 42.856113 46.828767 
L 42.97824 46.81255 
L 42.982937 46.802844 
L 43.067486 46.714482 
L 43.175522 46.681253 
L 43.100367 46.734151 
L 43.189613 46.6879 
L 43.250677 46.728498 
L 43.203705 46.665882 
L 43.302346 46.666807 
L 43.396289 46.657863 
L 43.31174 46.65718 
L 43.405684 46.642054 
L 43.49493 46.607942 
L 43.513719 46.640426 
L 44.208903 46.674858 
L 44.312241 46.59944 
L 44.326332 46.609195 
L 44.420276 46.459601 
L 44.471945 46.557757 
L 44.594072 46.649956 
L 44.504826 46.540881 
L 44.598769 46.644155 
L 44.786657 46.509513 
L 44.800748 46.530802 
L 44.833629 46.548576 
L 44.889995 46.464773 
L 45.340925 46.162074 
L 45.378502 46.231297 
L 45.495932 46.372547 
L 45.510024 46.342075 
L 45.603967 46.301466 
L 45.519418 46.346088 
L 45.618059 46.327433 
L 45.622756 46.361689 
L 45.712003 46.238066 
L 45.7167 46.243347 
L 45.805946 46.134666 
L 45.946862 45.991007 
L 45.951559 45.992256 
L 46.031411 45.999045 
L 45.993834 45.96208 
L 46.059595 45.988539 
L 46.073686 45.948332 
L 46.139447 46.069227 
L 46.148841 46.07005 
L 46.247482 46.100809 
L 46.158235 46.062272 
L 46.261574 46.062036 
L 46.393095 45.964661 
L 47.224497 45.578373 
L 47.233891 45.59511 
L 47.374807 45.726126 
L 47.52042 45.665025 
L 47.637849 45.512321 
L 47.656638 45.530909 
L 47.689518 45.558476 
L 47.713004 45.516451 
L 47.764673 45.507255 
L 47.839828 45.434645 
L 47.8868 45.517969 
L 48.168632 45.37027 
L 48.30485 45.30774 
L 48.309547 45.316154 
L 48.356519 45.258545 
L 48.42228 45.323456 
L 48.502132 45.27304 
L 48.469252 45.236526 
L 48.511526 45.25966 
L 48.60547 45.300013 
L 48.558498 45.35019 
L 48.610167 45.308482 
L 48.732294 45.338482 
L 48.643047 45.270184 
L 48.741688 45.331763 
L 48.75578 45.297883 
L 48.835632 45.3933 
L 48.929576 45.439897 
L 48.882604 45.366606 
L 48.948365 45.426112 
L 49.014125 45.388053 
L 49.018822 45.372018 
L 49.145646 45.233436 
L 49.295956 45.270447 
L 49.314745 45.227491 
L 49.441569 45.101925 
L 49.54021 45.136523 
L 49.554302 45.086838 
L 49.685823 44.989674 
L 49.563696 45.117208 
L 49.699915 45.018989 
L 49.789161 44.954976 
L 49.714006 45.032838 
L 49.831436 45.021535 
L 49.878408 45.041498 
L 49.850225 45.0043 
L 49.92538 44.968788 
L 50.019323 44.852195 
L 50.136753 44.774799 
L 50.160239 44.793396 
L 50.287063 44.769584 
L 50.230697 44.858596 
L 50.296457 44.785417 
L 50.489042 44.741914 
L 50.545408 44.64191 
L 50.606472 44.706883 
L 50.864817 44.667494 
L 50.874211 44.691404 
L 50.902394 44.753212 
L 50.986944 44.685972 
L 50.991641 44.698981 
L 51.066796 44.592986 
L 51.085585 44.633236 
L 51.165437 44.500891 
L 51.207712 44.571463 
L 51.381508 44.370833 
L 51.437874 44.442056 
L 51.46136 44.480954 
L 51.498937 44.337791 
L 51.555303 44.418128 
L 51.606973 44.378932 
L 51.719705 44.372911 
L 51.733797 44.341 
L 51.860621 44.112956 
L 51.870015 44.129747 
L 51.926381 44.257521 
L 51.987445 44.323094 
L 52.043811 44.256392 
L 52.048508 44.263323 
L 52.086086 44.18747 
L 52.114269 44.170978 
L 52.494741 43.786835 
L 52.499438 43.790057 
L 52.527621 43.823839 
L 52.565199 43.705779 
L 52.771875 43.361469 
L 52.781269 43.372584 
L 52.804755 43.276997 
L 52.81415 43.265206 
L 52.922185 42.520352 
L 52.955065 40.567478 
L 52.973854 30.020075 
L 53.063101 40.200582 
L 53.100678 45.372381 
L 53.194622 44.603563 
L 53.377812 41.733841 
L 53.401298 30.822006 
L 53.495242 39.752308 
L 53.532819 45.760243 
L 53.636157 44.722749 
L 53.814651 41.020748 
L 53.828742 31.046897 
L 53.927383 39.623326 
L 53.960263 45.896586 
L 54.072996 44.810613 
L 54.256186 41.243758 
L 54.274975 31.044171 
L 54.368919 39.473684 
L 54.406496 46.056291 
L 54.519229 44.999868 
L 54.707116 42.216891 
L 54.725905 37.780052 
L 54.735299 30.90094 
L 54.83394 39.527909 
L 54.871518 46.268286 
L 54.98425 45.366436 
L 55.228504 41.002311 
L 55.242595 30.800724 
L 55.341236 39.440253 
L 55.378814 46.445858 
L 55.496244 45.653429 
L 55.731103 43.235359 
L 55.801561 41.369619 
L 55.820349 30.674704 
L 55.914293 39.40534 
L 55.956568 46.616354 
L 56.0693 45.963464 
L 56.45447 41.900033 
L 56.477956 30.565372 
L 56.576597 40.437285 
L 56.614174 46.741236 
L 56.703421 46.297293 
L 56.740998 46.117671 
L 57.196625 42.74215 
L 57.2389 40.821806 
L 57.257689 30.549639 
L 57.346935 40.130252 
L 57.393907 46.808437 
L 57.478456 46.411731 
L 57.577097 45.937547 
L 57.882415 44.189381 
L 58.074999 42.868991 
L 58.121971 41.91166 
L 58.14076 32.360349 
L 58.150154 30.445207 
L 58.230006 39.146614 
L 58.281675 46.924324 
L 58.399105 46.475067 
L 58.431985 46.344403 
L 59.127169 43.189667 
L 59.244599 41.535451 
L 59.268085 30.413834 
L 59.352634 40.763574 
L 59.394909 46.917068 
L 59.479458 46.599562 
L 60.512839 41.860314 
L 60.531628 34.924312 
L 60.541023 30.46314 
L 60.630269 43.636936 
L 60.672544 46.911391 
L 60.747699 46.637963 
L 60.789973 46.506718 
L 61.015438 45.734032 
L 61.109382 45.530085 
L 61.377122 44.535204 
L 62.025334 42.051158 
L 62.04882 37.128207 
L 62.062911 30.552948 
L 62.147461 44.221184 
L 62.180341 46.818414 
L 62.26489 46.512561 
L 62.823855 44.641207 
L 62.945982 44.259564 
L 63.119778 43.709678 
L 63.162053 43.630978 
L 63.138567 43.6613 
L 63.16675 43.613356 
L 63.387518 42.588491 
L 63.429793 41.262394 
L 63.453279 30.349804 
L 63.533131 40.777474 
L 63.580103 46.941983 
L 63.659955 46.645063 
L 63.692835 46.541565 
L 63.847842 46.071584 
L 64.651061 43.975456 
L 64.665153 44.135151 
L 64.857738 45.940114 
L 64.909407 46.057269 
L 65.064414 46.340525 
L 65.073808 46.338339 
L 65.289879 46.604123 
L 65.487161 47.008707 
L 65.491858 47.001576 
L 65.53883 47.128532 
L 65.675048 47.262177 
L 65.717323 47.254795 
L 65.759597 47.338462 
L 65.768992 47.32666 
L 65.815964 47.31327 
L 65.867633 47.373704 
L 66.013246 47.474027 
L 66.130675 47.540693 
L 66.234013 47.569684 
L 66.248105 47.549081 
L 66.280985 47.643163 
L 66.332654 47.612091 
L 66.417204 47.630921 
L 66.374929 47.57998 
L 66.435992 47.57439 
L 66.558119 47.463368 
L 66.614486 47.527836 
L 66.675549 47.584793 
L 66.736612 47.536625 
L 66.797676 47.535679 
L 66.825859 47.601708 
L 66.830556 47.630233 
L 66.9245 47.547171 
L 66.929197 47.54735 
L 67.29088 47.526725 
L 67.295578 47.548162 
L 67.380127 47.641298 
L 67.323761 47.530976 
L 67.417705 47.620526 
L 67.990761 47.550977 
L 68.037733 47.611231 
L 68.103494 47.531773 
L 68.122283 47.547287 
L 68.225621 47.526961 
L 68.366536 47.630525 
L 68.375931 47.592614 
L 68.49336 47.581696 
L 68.498058 47.58796 
L 68.502755 47.608898 
L 68.573213 47.541274 
L 68.606093 47.565792 
L 68.648368 47.562005 
L 68.676551 47.513815 
L 68.704734 47.515691 
L 68.709431 47.495347 
L 68.732917 47.551466 
L 68.808072 47.559704 
L 68.822163 47.604695 
L 68.91141 47.509232 
L 69.024143 47.538098 
L 68.930199 47.494717 
L 69.02884 47.52714 
L 69.042931 47.56652 
L 69.54553 47.387229 
L 69.554925 47.430501 
L 69.615988 47.347446 
L 69.653566 47.364027 
L 69.681749 47.330242 
L 69.747509 47.415128 
L 69.84615 47.524771 
L 69.869636 47.493112 
L 70.034038 47.52645 
L 70.11389 47.60556 
L 70.151467 47.564062 
L 70.282989 47.478219 
L 70.376932 47.482059 
L 70.386327 47.456379 
L 70.395721 47.424762 
L 70.419207 47.499057 
L 70.489665 47.482985 
L 70.593003 47.551743 
L 70.607095 47.535999 
L 70.654066 47.590097 
L 70.701038 47.496713 
L 70.71513 47.528871 
L 70.884229 47.439969 
L 70.888926 47.448144 
L 71.029841 47.415401 
L 71.109694 47.316518 
L 71.142574 47.413387 
L 71.151968 47.380789 
L 71.208335 47.5061 
L 71.68275 47.537498 
L 71.776694 47.523972 
L 71.748511 47.601317 
L 71.795483 47.545422 
L 71.959885 47.420573 
L 71.978673 47.490336 
L 72.077314 47.524094 
L 72.002159 47.463181 
L 72.096103 47.490505 
L 72.222927 47.387547 
L 72.227624 47.404441 
L 72.471878 47.356837 
L 72.476575 47.371052 
L 72.608096 47.417543 
L 72.612794 47.396386 
L 72.678554 47.37622 
L 72.655068 47.432357 
L 72.716132 47.434745 
L 72.88523 47.526884 
L 72.936899 47.509228 
L 72.993266 47.573233 
L 73.021449 47.627801 
L 73.110695 47.547055 
L 73.209336 47.470913 
L 73.232822 47.476657 
L 73.265703 47.498989 
L 73.284491 47.448655 
L 73.33616 47.439841 
L 73.660266 47.599452 
L 73.683752 47.642916 
L 73.735421 47.506564 
L 73.805879 47.321552 
L 73.876337 47.344398 
L 74.064224 47.474197 
L 73.895126 47.325157 
L 74.073619 47.46679 
L 74.191048 47.319823 
L 74.106499 47.479079 
L 74.200443 47.347971 
L 74.289689 47.388689 
L 74.223929 47.284629 
L 74.313175 47.367117 
L 74.350753 47.334615 
L 74.393027 47.421321 
L 74.439999 47.538779 
L 74.519852 47.502629 
L 74.641978 47.62034 
L 74.670161 47.597366 
L 74.811077 47.498638 
L 74.919112 47.51717 
L 74.83926 47.535233 
L 74.933204 47.535596 
L 75.055331 47.559594 
L 75.121091 47.440689 
L 75.177458 47.527085 
L 75.182155 47.541069 
L 75.200944 47.452673 
L 75.276099 47.48333 
L 75.351254 47.520442 
L 75.355951 47.542735 
L 75.360648 47.570466 
L 75.426409 47.476223 
L 75.463986 47.526675 
L 75.642479 47.390547 
L 75.651874 47.40196 
L 75.689451 47.426711 
L 75.717634 47.327602 
L 75.745817 47.339421 
L 75.783395 47.380594 
L 75.971282 47.252561 
L 76.206142 47.490581 
L 75.985374 47.244567 
L 76.210839 47.460819 
L 77.131488 47.323392 
L 77.140882 47.302064 
L 77.197248 47.400683 
L 77.225431 47.381956 
L 77.39453 47.446413 
L 77.530748 47.381826 
L 77.418016 47.476759 
L 77.54484 47.409508 
L 77.713939 47.496941 
L 77.72803 47.536589 
L 77.789094 47.428946 
L 77.81258 47.455435 
L 77.817277 47.427857 
L 77.826671 47.47973 
L 77.920615 47.460886 
L 78.056833 47.517566 
L 78.061531 47.511371 
L 78.085017 47.530833 
L 78.202446 47.415453 
L 78.221235 47.3858 
L 78.395031 47.49498 
L 78.592313 47.477707 
L 78.700348 47.46614 
L 78.681559 47.423517 
L 78.709742 47.460535 
L 78.841264 47.46092 
L 78.888236 47.480598 
L 78.958693 47.405122 
L 79.024454 47.458603 
L 79.071426 47.40037 
L 79.212341 47.222889 
L 79.226433 47.250727 
L 79.259313 47.168375 
L 79.362651 47.340822 
L 79.442504 47.364531 
L 79.456595 47.285742 
L 79.606905 47.368174 
L 79.761912 47.481905 
L 79.76661 47.475767 
L 79.813581 47.432069 
L 79.860553 47.534637 
L 79.874645 47.495459 
L 79.9498 47.433351 
L 79.987377 47.499893 
L 80.010863 47.542017 
L 80.048441 47.486707 
L 80.095413 47.511301 
L 80.128293 47.553218 
L 80.222237 47.473474 
L 80.2833 47.444603 
L 80.245723 47.498834 
L 80.325575 47.509291 
L 80.630892 47.645399 
L 80.339666 47.485219 
L 80.644984 47.615888 
L 80.865751 47.485613 
L 80.870449 47.495821 
L 80.973787 47.601975 
L 80.91742 47.461663 
L 81.00197 47.561261 
L 81.081822 47.539777 
L 81.110005 47.580319 
L 81.166371 47.583166 
L 81.199252 47.519465 
L 81.203949 47.52799 
L 81.288498 47.471169 
L 81.260315 47.545358 
L 81.316681 47.514565 
L 81.476386 47.526102 
L 81.490477 47.455947 
L 81.556238 47.557349 
L 81.589118 47.503634 
L 81.664273 47.588312 
L 81.715942 47.540663 
L 81.75352 47.455837 
L 81.833372 47.494024 
L 81.894435 47.450104 
L 81.974288 47.521867 
L 82.063534 47.385172 
L 82.091717 47.449669 
L 82.148083 47.490855 
L 82.199753 47.444201 
L 82.256119 47.358332 
L 82.331274 47.388548 
L 82.467492 47.303039 
L 82.490978 47.271417 
L 82.57083 47.325774 
L 82.580225 47.29802 
L 82.744626 47.24569 
L 82.754021 47.264703 
L 82.791598 47.301238 
L 82.852662 47.236214 
L 82.862056 47.240291 
L 82.866753 47.250501 
L 82.946605 47.173419 
L 82.956 47.183011 
L 82.960697 47.171768 
L 82.98888 47.268418 
L 83.054641 47.231729 
L 83.162676 47.228572 
L 83.17207 47.187726 
L 83.247225 47.080501 
L 83.312986 47.150473 
L 83.402232 47.010714 
L 83.519662 46.944163 
L 83.529056 46.962386 
L 83.627697 46.963339 
L 83.576028 47.002222 
L 83.632395 46.990306 
L 83.782705 47.214197 
L 83.810888 47.145768 
L 83.876648 47.131305 
L 83.834374 47.157908 
L 83.92362 47.153848 
L 83.933015 47.149622 
L 84.050444 47.231357 
L 84.15848 47.149859 
L 84.285304 47.066225 
L 84.440311 47.098958 
L 84.294698 47.050294 
L 84.449705 47.072617 
L 84.454402 47.048053 
L 84.534255 47.104421 
L 84.55774 47.069989 
L 84.618804 47.117093 
L 84.670473 47.058922 
L 84.806691 46.8801 
L 84.820783 46.905589 
L 85.046248 46.894941 
L 85.1261 46.821666 
L 85.15898 46.879816 
L 85.342171 46.808938 
L 85.346868 46.827785 
L 85.360959 46.815915 
L 85.478389 46.911113 
L 85.689763 46.996401 
L 85.741432 47.032555 
L 85.699157 46.990654 
L 85.807192 47.014846 
L 85.901136 47.036016 
L 85.887044 47.071546 
L 85.91053 47.03998 
L 86.074932 47.151778 
L 86.084326 47.12703 
L 86.206453 46.953303 
L 86.229939 46.980757 
L 86.258122 46.9725 
L 86.305094 47.028161 
L 86.323883 47.022659 
L 86.356763 47.0769 
L 86.413129 46.955613 
L 86.488284 46.977909 
L 86.525862 46.925756 
L 86.610411 46.991893 
L 86.643292 46.972262 
L 87.216348 46.758799 
L 87.225743 46.788515 
L 87.286806 46.806519 
L 87.249229 46.717762 
L 87.319687 46.747478 
L 87.390144 46.656256 
L 87.437116 46.733672 
L 87.559243 46.786586 
L 87.460602 46.687697 
L 87.582729 46.759873 
L 87.709553 46.685314 
L 87.883349 46.770833 
L 87.892743 46.724126 
L 88.005476 46.606323 
L 88.01487 46.61975 
L 88.1323 46.718017 
L 88.146391 46.710337 
L 88.879153 46.582251 
L 88.926125 46.480189 
L 88.996582 46.53067 
L 89.085829 46.475726 
L 89.114012 46.557508 
L 89.132801 46.59319 
L 89.189167 46.517402 
L 89.222047 46.560569 
L 89.353569 46.479509 
L 89.358266 46.500795 
L 89.372357 46.536705 
L 89.433421 46.439928 
L 89.442815 46.436334 
L 89.560245 46.412682 
L 89.456907 46.44769 
L 89.574336 46.440991 
L 89.6354 46.456774 
L 89.649491 46.391168 
L 89.654189 46.360418 
L 89.724646 46.456639 
L 89.752829 46.447508 
L 89.879654 46.430175 
L 89.884351 46.439447 
L 89.926625 46.357113 
L 89.959506 46.357831 
L 90.105119 46.216729 
L 90.109816 46.225796 
L 90.955309 46.140428 
L 90.964704 46.153954 
L 91.011676 46.046351 
L 91.030464 46.060502 
L 91.251232 46.042285 
L 91.32169 45.994663 
L 91.35457 46.07143 
L 91.359267 46.055374 
L 91.819592 45.829601 
L 91.824289 45.841801 
L 91.866564 45.880149 
L 91.913536 45.779071 
L 91.918233 45.792745 
L 92.045057 45.67793 
L 92.049754 45.696054 
L 92.294008 45.446537 
L 92.317494 45.53271 
L 92.336282 45.502098 
L 92.430226 45.525031 
L 92.571142 45.361331 
L 92.585233 45.40409 
L 92.594628 45.419827 
L 92.608719 45.35443 
L 92.679177 45.350869 
L 92.693269 45.366713 
L 92.979797 45.214165 
L 93.139501 45.299994 
L 93.219354 45.218466 
L 93.228748 45.192829 
L 93.256931 45.261369 
L 93.317995 45.276631 
L 93.322692 45.295136 
L 93.388452 45.133516 
L 93.449516 45.082516 
L 93.411938 45.156362 
L 93.49179 45.167041 
L 93.656192 45.100762 
L 93.501185 45.177545 
L 93.665586 45.11883 
L 93.731347 45.232791 
L 93.801805 45.206269 
L 93.94272 45.094709 
L 93.947418 45.102321 
L 93.966206 45.158297 
L 94.407742 44.904881 
L 94.431228 44.950132 
L 94.506383 44.833794 
L 94.670784 44.910483 
L 94.792911 44.861247 
L 94.797608 44.866343 
L 94.891552 44.938055 
L 94.915038 44.900402 
L 95.140503 44.724674 
L 95.149898 44.73618 
L 95.192172 44.84757 
L 95.267327 44.776451 
L 95.29551 44.779938 
L 95.318996 44.699547 
L 95.351877 44.704649 
L 95.549158 44.747879 
L 95.553856 44.72256 
L 95.694771 44.63028 
L 95.71356 44.647476 
L 95.760532 44.680641 
L 95.802807 44.582504 
L 95.816898 44.605071 
L 95.929631 44.526215 
L 95.939025 44.546573 
L 96.032969 44.588384 
L 96.04706 44.552697 
L 96.070546 44.497768 
L 96.159793 44.553011 
L 96.239645 44.533925 
L 96.206765 44.480157 
L 96.249039 44.490197 
L 96.338286 44.408403 
L 96.455716 44.298404 
L 96.46511 44.315374 
L 96.610723 44.251409 
L 96.676483 44.13883 
L 96.723455 44.227527 
L 96.831491 44.23901 
L 96.751638 44.278744 
L 96.836188 44.262296 
L 97.005286 44.149127 
L 97.160294 43.899184 
L 97.291815 43.728623 
L 97.456216 43.447663 
L 97.611224 43.079773 
L 97.714562 41.629793 
L 97.742745 30.063515 
L 97.831991 40.862501 
L 97.864872 45.357089 
L 97.954118 44.68295 
L 98.1514 41.382082 
L 98.170189 30.74547 
L 98.264133 39.57983 
L 98.306407 45.800389 
L 98.409745 44.752347 
L 98.574147 42.379369 
L 98.597633 38.473169 
L 98.607027 30.975135 
L 98.705668 39.622157 
L 98.743246 45.959659 
L 98.851281 44.920102 
L 99.039168 41.62915 
L 99.057957 30.955224 
L 99.156598 39.593039 
L 99.194176 46.128454 
L 99.302211 45.182423 
L 99.527676 40.550932 
L 99.541768 30.848308 
L 99.635711 39.168852 
L 99.682683 46.30683 
L 99.800113 45.358886 
L 100.049064 41.761882 
L 100.067852 30.782102 
L 100.171191 40.050982 
L 100.208768 46.517043 
L 100.302712 45.903781 
L 100.481205 44.340321 
L 100.655001 41.062824 
L 100.67379 30.666453 
L 100.767733 39.664751 
L 100.810008 46.651777 
L 100.913346 46.104504 
L 101.34079 42.341447 
L 101.364276 37.914176 
L 101.37367 30.559599 
L 101.472311 40.492136 
L 101.509889 46.772904 
L 101.599135 46.366084 
L 102.144009 42.566048 
L 102.17689 40.660891 
L 102.190981 30.507643 
L 102.284925 40.400493 
L 102.322502 46.850852 
L 102.411749 46.502969 
L 103.022383 43.288491 
L 103.036475 43.246225 
L 103.045869 43.188578 
L 103.153904 41.697821 
L 103.17739 30.460721 
L 103.266637 41.117649 
L 103.313609 46.875618 
L 103.388764 46.559237 
L 104.31411 41.482358 
L 104.337596 30.491397 
L 104.417448 40.701499 
L 104.46442 46.897196 
L 104.544272 46.658447 
L 104.835497 45.985851 
L 104.910652 45.874046 
L 105.06566 45.66988 
L 105.084448 45.639581 
L 105.112631 45.77265 
L 105.258244 45.967128 
L 105.272336 45.91959 
L 105.277033 45.911722 
L 105.342794 46.005521 
L 105.347491 46.00219 
L 105.709174 46.347965 
L 105.864181 46.604736 
L 106.559365 47.44877 
L 106.662703 47.408952 
L 106.625126 47.499896 
L 106.6674 47.425862 
L 106.681492 47.507148 
L 106.780133 47.428851 
L 106.944534 47.654037 
L 107.08545 47.571497 
L 107.494105 47.516928 
L 107.545774 47.52978 
L 107.573958 47.57889 
L 107.588049 47.594057 
L 107.625627 47.534292 
L 107.667901 47.539716 
L 107.738359 47.481149 
L 107.780634 47.547967 
L 108.278536 47.511948 
L 108.306719 47.445518 
L 108.386571 47.533156 
L 108.550972 47.513403 
L 108.55567 47.536877 
L 108.630825 47.466707 
L 108.649613 47.468452 
L 108.677797 47.431497 
L 108.729466 47.516875 
L 108.743557 47.499012 
L 108.828107 47.572554 
L 108.767043 47.493273 
L 108.860987 47.543624 
L 109.011297 47.54844 
L 109.015994 47.559974 
L 109.034783 47.622609 
L 109.100543 47.548897 
L 109.128726 47.577244 
L 109.241459 47.517578 
L 109.260248 47.534557 
L 109.603142 47.51099 
L 109.776938 47.593541 
L 109.983615 47.630254 
L 109.988312 47.622124 
L 110.021192 47.522066 
L 110.110439 47.561487 
L 110.129227 47.583431 
L 110.199685 47.468823 
L 110.448636 47.40208 
L 110.631826 47.547738 
L 110.641221 47.527193 
L 110.69289 47.477466 
L 110.749256 47.544019 
L 110.87608 47.613929 
L 110.885474 47.57264 
L 111.002904 47.578444 
L 111.007601 47.585785 
L 111.110939 47.644464 
L 111.021693 47.570053 
L 111.125031 47.61228 
L 111.383376 47.437107 
L 111.388074 47.456254 
L 111.472623 47.453764 
L 111.500806 47.418561 
L 111.533686 47.385117 
L 111.580658 47.502665 
L 111.590053 47.497947 
L 111.693391 47.550965 
L 111.622933 47.459754 
L 111.712179 47.53264 
L 111.848398 47.404047 
L 111.74506 47.543662 
L 111.862489 47.411082 
L 111.876581 47.39367 
L 112.106743 47.49611 
L 112.130229 47.455406 
L 112.186595 47.554345 
L 112.200687 47.543709 
L 112.285236 47.577011 
L 112.318117 47.564815 
L 112.510701 47.3873 
L 112.355694 47.587169 
L 112.515398 47.394422 
L 112.548279 47.488053 
L 112.628131 47.41735 
L 112.750258 47.36997 
L 112.956934 47.285375 
L 112.989814 47.187669 
L 113.064969 47.306318 
L 113.116638 47.277258 
L 113.079061 47.318634 
L 113.16361 47.343532 
L 113.219977 47.399442 
L 113.271646 47.319361 
L 113.642723 47.435403 
L 113.722576 47.508811 
L 113.727273 47.495306 
" style="fill:none;stroke:#000000;stroke-linecap:square;stroke-width:0.3;"/>
   </g>
   <g id="line2d_3">
    <path clip-path="url(#p32f7e6e64a)" d="M 12.272727 66.115139 
L 12.399551 66.076966 
L 12.319699 66.176099 
L 12.404249 66.091601 
L 12.507587 66.190698 
L 12.531073 66.163699 
L 12.723657 66.202486 
L 12.761235 66.170457 
L 12.906848 66.300601 
L 13.090038 66.1255 
L 12.925636 66.321156 
L 13.094735 66.127695 
L 13.13701 66.171021 
L 13.16989 66.08159 
L 13.198073 66.101574 
L 13.357778 65.881362 
L 13.451721 65.866501 
L 13.428235 65.801644 
L 13.456418 65.832117 
L 13.602031 65.79487 
L 13.625517 65.838782 
L 13.705369 65.774374 
L 13.714764 65.815116 
L 13.944926 65.794348 
L 14.156299 65.625277 
L 14.160997 65.636343 
L 14.22206 65.505102 
L 14.226757 65.515717 
L 14.236152 65.503158 
L 14.292518 65.598008 
L 14.311306 65.580957 
L 14.409947 65.701093 
L 14.433433 65.661625 
L 14.564955 65.72886 
L 14.442828 65.647324 
L 14.588441 65.686212 
L 14.799814 65.454923 
L 14.804511 65.479223 
L 14.8233 65.505549 
L 14.893758 65.409058 
L 15.133314 65.175415 
L 15.302413 64.99953 
L 15.321202 65.02195 
L 15.429237 65.047187 
L 15.443329 64.995193 
L 15.588941 64.740307 
L 15.593639 64.747503 
L 15.72516 64.401469 
L 15.823801 62.900879 
L 15.84259 50.767185 
L 15.94123 61.552087 
L 15.983505 67.829003 
L 16.063357 67.300865 
L 16.518984 63.261222 
L 16.533076 55.227619 
L 16.537773 50.99916 
L 16.636414 60.17647 
L 16.683386 68.304087 
L 16.805513 67.59232 
L 17.322203 63.362339 
L 17.336295 58.644111 
L 17.345689 50.976437 
L 17.44433 60.510813 
L 17.491302 68.469393 
L 17.59464 67.924379 
L 18.261641 63.463792 
L 18.275732 61.644802 
L 18.289824 50.955612 
L 18.383768 60.563446 
L 18.43074 68.538426 
L 18.529381 68.031904 
L 18.674993 67.189186 
L 18.858184 66.248091 
L 19.318508 63.168473 
L 19.337297 50.90662 
L 19.435938 60.84303 
L 19.48291 68.607302 
L 19.572156 68.154445 
L 20.549171 63.21053 
L 20.563263 56.767156 
L 20.572657 50.872423 
L 20.666601 61.116576 
L 20.708875 68.613794 
L 20.798122 68.187037 
L 21.20208 66.219464 
L 21.206777 66.222141 
L 21.239658 66.138675 
L 21.446334 65.449577 
L 21.906658 63.613141 
L 21.925447 62.226724 
L 21.939538 50.838679 
L 22.033482 61.160293 
L 22.075757 68.594781 
L 22.160306 68.205932 
L 22.794427 65.579126 
L 22.799124 65.588665 
L 22.846096 65.461299 
L 22.85549 65.458851 
L 23.109138 64.900892 
L 23.118532 64.913563 
L 23.268842 64.411108 
L 23.358089 63.398026 
L 23.372181 61.231509 
L 23.386272 50.85468 
L 23.480216 61.492532 
L 23.527188 68.628294 
L 23.602343 68.241089 
L 24.100245 66.056233 
L 24.109639 66.047421 
L 24.119033 65.979408 
L 24.137822 65.95705 
L 24.302224 65.641169 
L 24.306921 65.646616 
L 24.316315 65.656116 
L 24.35859 65.501363 
L 24.936344 64.298624 
L 25.011499 62.801333 
L 25.030288 50.822794 
L 25.124231 61.490118 
L 25.171203 68.59235 
L 25.246358 68.195003 
L 25.551675 66.542699 
L 25.842901 65.744122 
L 26.458232 64.183363 
L 26.52869 62.909928 
L 26.547479 50.830069 
L 26.641423 61.610415 
L 26.683697 68.5757 
L 26.76355 68.187602 
L 27.040684 66.716043 
L 27.068867 66.599312 
L 27.233268 66.138937 
L 27.407064 65.751841 
L 27.425853 65.74534 
L 27.444642 65.679362 
L 27.458733 65.675364 
L 27.585557 65.458912 
L 27.599649 65.467701 
L 28.186797 63.670831 
L 28.210283 61.8191 
L 28.224375 50.819582 
L 28.318319 61.622583 
L 28.369988 68.578912 
L 28.440445 68.189677 
L 29.191995 65.557241 
L 29.262453 65.47205 
L 29.624137 64.524085 
L 29.642925 64.556156 
L 29.736869 64.303412 
L 29.812024 63.569843 
L 29.830813 62.033357 
L 29.844904 50.821744 
L 29.938848 61.691808 
L 29.981123 68.581847 
L 30.060975 68.160859 
L 30.178405 67.507663 
L 30.413264 66.395062 
L 30.760856 65.630368 
L 30.77025 65.651996 
L 30.845405 65.55721 
L 31.023898 65.347574 
L 31.178906 65.071568 
L 31.183603 65.088516 
L 31.254061 64.952821 
L 31.376187 64.807186 
L 31.380885 64.820729 
L 31.394976 64.8304 
L 31.446645 64.719807 
L 31.611047 64.365399 
L 31.686202 63.934756 
L 31.723779 62.52772 
L 31.742568 50.840445 
L 31.831815 61.17061 
L 31.874089 68.540045 
L 31.958639 68.097196 
L 32.043188 67.610191 
L 32.278047 66.407252 
L 33.137633 64.773053 
L 33.179907 64.843037 
L 33.231576 64.744271 
L 33.245668 64.753333 
L 33.250365 64.756427 
L 33.264457 64.675635 
L 33.29264 64.658825 
L 33.494619 64.021658 
L 33.541591 62.750327 
L 33.560379 50.81878 
L 33.654323 62.315833 
L 33.701295 68.522212 
L 33.771753 68.128015 
L 34.41057 65.632285 
L 34.823923 65.018919 
L 35.002416 64.648696 
L 35.124543 64.408264 
L 35.223184 63.981386 
L 35.270156 61.283982 
L 35.284247 50.842256 
L 35.378191 62.813691 
L 35.415768 68.541571 
L 35.495621 68.149887 
L 35.965339 66.223983 
L 35.970036 66.246129 
L 36.289445 66.03667 
L 36.312931 66.097919 
L 36.552488 66.411809 
L 36.327023 66.091304 
L 36.557185 66.386698 
L 36.580671 66.368171 
L 36.63234 66.475256 
L 37.247671 67.475653 
L 37.257066 67.460579 
L 37.26646 67.443186 
L 37.322826 67.551332 
L 37.327524 67.549628 
L 37.581172 68.052754 
L 37.585869 68.045913 
L 37.933461 68.512705 
L 38.064982 68.783955 
L 38.074376 68.760521 
L 38.107257 68.710692 
L 38.144834 68.787906 
L 38.177714 68.771628 
L 38.323327 68.975767 
L 38.398482 68.875119 
L 38.431363 68.97548 
L 38.520609 69.178929 
L 38.572278 69.123925 
L 38.576975 69.111142 
L 38.633342 69.211225 
L 38.661525 69.18939 
L 39.629145 69.471335 
L 39.737181 69.348417 
L 39.755969 69.387131 
L 39.793547 69.387514 
L 39.831124 69.308451 
L 39.901582 69.230861 
L 39.957948 69.248779 
L 40.131744 69.419513 
L 40.141139 69.413537 
L 40.145836 69.397296 
L 40.206899 69.487552 
L 40.244477 69.454171 
L 40.371301 69.587147 
L 40.418273 69.521491 
L 40.521611 69.485647 
L 40.531005 69.529411 
L 40.549794 69.503897 
L 40.657829 69.501566 
L 40.695407 69.44239 
L 40.761167 69.520498 
L 40.789351 69.586307 
L 40.836322 69.500429 
L 40.864506 69.496532 
L 40.902083 69.482877 
L 40.925569 69.544169 
L 40.944358 69.551044 
L 40.949055 69.577215 
L 41.019513 69.446287 
L 41.042999 69.484182 
L 41.08997 69.546462 
L 41.155731 69.491159 
L 41.193309 69.547676 
L 41.221492 69.451316 
L 41.259069 69.451806 
L 41.428168 69.309218 
L 41.437562 69.319556 
L 41.498626 69.334905 
L 41.465745 69.293475 
L 41.5409 69.299123 
L 41.667725 69.251234 
L 41.672422 69.256231 
L 41.818035 69.446644 
L 41.832126 69.425523 
L 41.987133 69.391833 
L 41.996528 69.42701 
L 42.160929 69.456558 
L 42.330028 69.26861 
L 42.513218 69.345379 
L 42.668225 69.228042 
L 42.536704 69.371133 
L 42.672923 69.25105 
L 42.832627 69.233926 
L 42.846718 69.265109 
L 42.950057 69.252505 
L 42.884296 69.232869 
L 42.964148 69.238202 
L 43.053395 69.176976 
L 43.020514 69.263192 
L 43.072183 69.21925 
L 43.175522 69.342516 
L 43.199008 69.292982 
L 43.31174 69.24079 
L 43.316437 69.253943 
L 43.372803 69.266885 
L 43.349318 69.222549 
L 43.42917 69.222394 
L 43.513719 69.224327 
L 43.452656 69.241682 
L 43.537205 69.247826 
L 44.486037 69.465017 
L 44.570586 69.48096 
L 44.589375 69.427261 
L 44.669227 69.43523 
L 44.608164 69.441228 
L 44.683319 69.473886 
L 44.702107 69.534012 
L 44.786657 69.399134 
L 44.880601 69.398594 
L 44.894692 69.350837 
L 44.974544 69.323908 
L 44.918178 69.358737 
L 45.002727 69.368586 
L 45.016819 69.320705 
L 45.162432 69.388474 
L 45.303347 69.307179 
L 45.308045 69.311301 
L 45.326833 69.370613 
L 45.406685 69.246703 
L 45.411383 69.212728 
L 45.505326 69.338015 
L 45.913982 69.568543 
L 45.960954 69.478833 
L 46.064292 69.39169 
L 45.98444 69.498258 
L 46.08308 69.418483 
L 46.125355 69.379695 
L 46.106566 69.35859 
L 46.144144 69.336247 
L 46.341426 69.203623 
L 46.35082 69.227819 
L 46.407186 69.109452 
L 46.430672 69.105701 
L 46.557496 68.981567 
L 46.571588 69.022296 
L 46.689018 69.126816 
L 46.595074 69.002795 
L 46.745384 69.069414 
L 46.76887 69.123862 
L 46.848722 69.063319 
L 46.881602 69.164704 
L 46.966152 69.134055 
L 47.10237 69.128214 
L 47.111764 69.149742 
L 47.139948 69.212327 
L 47.201011 69.074604 
L 47.266772 68.991132 
L 47.2198 69.101494 
L 47.313743 69.076857 
L 47.529814 69.080368 
L 47.675427 68.951971 
L 47.727096 68.920101 
L 47.778765 68.986789 
L 47.788159 69.017588 
L 47.82104 68.972971 
L 47.891498 68.987105 
L 48.027716 68.894096 
L 47.905589 69.003263 
L 48.069991 68.950304 
L 48.126357 68.998622 
L 48.15454 68.919366 
L 48.178026 68.959489 
L 48.206209 68.952321 
L 48.257878 69.018793 
L 48.27197 69.018016 
L 48.727597 68.802165 
L 48.765174 68.818612 
L 48.812146 68.732715 
L 48.816843 68.751712 
L 48.929576 68.662279 
L 48.859118 68.764575 
L 48.943667 68.681198 
L 48.990639 68.783294 
L 49.0564 68.683488 
L 49.140949 68.620658 
L 49.103372 68.69279 
L 49.17383 68.654023 
L 49.32414 68.71291 
L 49.352323 68.675194 
L 49.413386 68.586096 
L 49.47445 68.609738 
L 49.742189 68.717502 
L 49.746886 68.693511 
L 49.756281 68.658328 
L 49.84083 68.76036 
L 49.972351 68.788877 
L 49.859619 68.712128 
L 49.981746 68.763582 
L 50.150845 68.815326 
L 50.160239 68.794757 
L 50.25888 68.704477 
L 50.287063 68.737961 
L 50.822542 68.547641 
L 50.841331 68.593827 
L 50.907092 68.451058 
L 50.911789 68.460053 
L 50.916486 68.445422 
L 50.968155 68.537523 
L 51.005733 68.526763 
L 51.170134 68.605115 
L 52.175332 68.04405 
L 52.180029 68.053108 
L 52.24579 67.963917 
L 52.269276 67.985292 
L 52.410192 67.823479 
L 52.457163 67.938894 
L 52.541713 67.899947 
L 52.532318 67.866417 
L 52.54641 67.880008 
L 52.640354 67.763842 
L 52.66384 67.844443 
L 52.692023 67.864263 
L 52.7296 67.738739 
L 52.738995 67.746408 
L 52.87991 67.648446 
L 52.983248 67.736135 
L 52.99734 67.697497 
L 53.091284 67.629759 
L 53.138256 67.677398 
L 53.166439 67.714535 
L 53.218108 67.633556 
L 53.241594 67.637198 
L 53.359023 67.716729 
L 53.382509 67.67515 
L 53.528122 67.504777 
L 53.537516 67.524553 
L 53.575094 67.545762 
L 53.622066 67.476216 
L 53.640855 67.488181 
L 53.838136 67.513555 
L 53.917989 67.532995 
L 53.960263 67.462079 
L 54.011932 67.58695 
L 54.08239 67.531347 
L 54.303158 67.375147 
L 54.091785 67.539554 
L 54.307855 67.378705 
L 54.326644 67.433366 
L 54.401799 67.339295 
L 54.481651 67.266541 
L 54.420588 67.372423 
L 54.523926 67.305217 
L 54.622567 67.233867 
L 54.815151 67.01485 
L 54.862123 67.089281 
L 54.95137 67.090006 
L 54.965461 67.069552 
L 55.040616 67.002381 
L 55.082891 67.081789 
L 55.223807 67.064131 
L 55.327145 66.918803 
L 55.374117 66.977838 
L 55.378814 66.986468 
L 55.411694 66.865069 
L 55.439877 66.866268 
L 55.58549 66.806031 
L 55.477455 66.901588 
L 55.590187 66.816344 
L 55.670039 66.860934 
L 55.61837 66.804592 
L 55.70292 66.816246 
L 55.843835 66.763793 
L 55.975357 66.703589 
L 56.322948 66.603139 
L 56.379315 66.539502 
L 56.346434 66.608834 
L 56.440378 66.579358 
L 56.534322 66.647467 
L 56.553111 66.60651 
L 57.107379 66.547953 
L 57.163745 66.485288 
L 57.215414 66.579058 
L 57.703921 66.627711 
L 57.783774 66.708942 
L 57.849534 66.624923 
L 57.966964 66.569298 
L 57.929386 66.686537 
L 57.976358 66.579136 
L 57.995147 66.567372 
L 58.145457 66.659853 
L 58.234704 66.634817 
L 58.183035 66.674989 
L 58.25819 66.664275 
L 58.375619 66.773442 
L 58.44138 66.684617 
L 58.572901 66.60358 
L 58.59169 66.623263 
L 59.019134 66.413146 
L 59.160049 66.313484 
L 59.324451 66.411198 
L 59.333845 66.405572 
L 59.437184 66.265637 
L 59.479458 66.312702 
L 59.540522 66.407772 
L 59.596888 66.341209 
L 59.653254 66.323074 
L 59.67674 66.400714 
L 59.690832 66.384856 
L 59.742501 66.362929 
L 59.817656 66.459221 
L 59.920994 66.453463 
L 59.855233 66.484577 
L 59.930388 66.468455 
L 60.043121 66.561295 
L 60.066607 66.497882 
L 60.226311 66.336617 
L 60.320255 66.283502 
L 60.324952 66.269542 
L 60.498748 66.041604 
L 60.508142 66.053256 
L 60.531628 66.025676 
L 60.620875 66.053512 
L 60.639663 66.017413 
L 60.677241 66.11905 
L 60.705424 66.122381 
L 60.710121 66.141551 
L 60.771185 66.043956 
L 60.808762 66.092252 
L 60.836945 66.045023 
L 60.916797 66.104385 
L 61.339544 66.00219 
L 61.358333 66.070903 
L 61.400608 66.142123 
L 61.475763 66.088743 
L 61.579101 66.034996 
L 61.616678 66.116003 
L 61.687136 66.166468 
L 61.743502 66.121083 
L 61.89851 66.012521 
L 61.912601 66.029364 
L 61.983059 66.035048 
L 62.015939 65.988468 
L 62.509144 65.844464 
L 62.631271 65.702232 
L 62.645362 65.717658 
L 62.776884 65.573767 
L 62.790975 65.581261 
L 62.964771 65.614656 
L 62.98356 65.627486 
L 63.115081 65.533507 
L 63.227814 65.557848 
L 63.246602 65.524746 
L 63.331152 65.411774 
L 63.387518 65.436146 
L 63.523736 65.341609 
L 63.411004 65.451295 
L 63.533131 65.361153 
L 64.181343 64.938239 
L 64.200131 64.955604 
L 64.312864 64.825783 
L 64.326955 64.86915 
L 64.406808 64.757681 
L 64.411505 64.759692 
L 64.458477 64.756195 
L 64.477265 64.666692 
L 64.481963 64.669711 
L 64.510146 64.577405 
L 64.632273 63.648352 
L 64.655758 59.354082 
L 64.665153 50.754016 
L 64.763794 61.163847 
L 64.801371 67.862915 
L 64.890618 67.311269 
L 65.30397 64.129408 
L 65.346245 62.748888 
L 65.360337 50.966383 
L 65.463675 60.734024 
L 65.505949 68.364206 
L 65.60459 67.787763 
L 65.68914 67.244523 
L 66.196436 62.857294 
L 66.215225 50.975335 
L 66.313866 60.910163 
L 66.35614 68.481695 
L 66.450084 67.995769 
L 67.164056 63.153387 
L 67.182845 50.895365 
L 67.286183 61.639645 
L 67.328458 68.570449 
L 67.40831 68.183346 
L 68.27729 63.850136 
L 68.305473 62.280498 
L 68.319564 50.855821 
L 68.413508 60.467117 
L 68.46048 68.61452 
L 68.563818 68.119588 
L 69.019445 66.037618 
L 69.343551 65.09355 
L 69.517347 64.591845 
L 69.611291 64.126115 
L 69.658263 62.936514 
L 69.677052 50.835665 
L 69.770995 60.975569 
L 69.817967 68.606368 
L 69.902517 68.184061 
L 70.282989 66.358016 
L 70.452087 65.92234 
L 70.644672 65.418542 
L 70.654066 65.423171 
L 71.034539 64.232673 
L 71.095602 62.96182 
L 71.114391 50.819941 
L 71.213032 61.983653 
L 71.255306 68.637068 
L 71.330461 68.287109 
L 71.725025 66.387451 
L 72.006856 65.646703 
L 72.011554 65.652745 
L 72.020948 65.653069 
L 72.025645 65.611801 
L 72.072617 65.573688 
L 72.316871 65.045346 
L 72.335659 65.055351 
L 72.382631 64.924061 
L 72.655068 63.345476 
L 72.66916 60.874892 
L 72.678554 50.846322 
L 72.777195 62.326797 
L 72.81947 68.59963 
L 72.894625 68.224109 
L 73.298583 66.280216 
L 73.401921 65.972426 
L 73.613294 65.53218 
L 73.617992 65.534725 
L 73.984372 64.900494 
L 74.20514 64.380647 
L 74.270901 63.995072 
L 74.308478 62.396922 
L 74.32257 50.815746 
L 74.416513 61.012376 
L 74.463485 68.594866 
L 74.548035 68.162576 
L 74.768802 66.933381 
L 74.876838 66.438939 
L 75.045936 65.989624 
L 75.050634 65.995864 
L 75.083514 65.86214 
L 75.088211 65.863527 
L 75.280796 65.476053 
L 75.299585 65.491347 
L 75.332465 65.397089 
L 75.337162 65.4067 
L 75.473381 65.145193 
L 75.478078 65.166045 
L 75.604902 64.980218 
L 75.618993 64.997066 
L 75.62369 65.00486 
L 75.67536 64.906334 
L 75.680057 64.909721 
L 75.971282 63.357894 
L 75.985374 61.214461 
L 75.999465 50.838516 
L 76.093409 62.199933 
L 76.130987 68.56705 
L 76.210839 68.213114 
L 76.999966 65.456108 
L 77.004664 65.460592 
L 77.042241 65.372965 
L 77.051635 65.367439 
L 77.253614 65.03884 
L 77.258312 65.056589 
L 77.263009 65.066629 
L 77.324072 64.965345 
L 77.57772 63.319601 
L 77.591812 60.513735 
L 77.601206 50.817507 
L 77.699847 61.97319 
L 77.742122 68.615737 
L 77.817277 68.214784 
L 77.859552 67.994157 
L 78.230629 66.274111 
L 78.423214 65.92576 
L 78.442003 65.962212 
L 78.507763 65.848047 
L 78.521855 65.862848 
L 78.813081 65.304137 
L 78.822475 65.33307 
L 78.902327 65.222391 
L 79.184158 64.841515 
L 79.221736 64.872071 
L 79.268708 64.730161 
L 79.409623 64.511016 
L 79.527053 63.989749 
L 79.569328 62.932775 
L 79.588116 50.810403 
L 79.68206 61.684458 
L 79.719638 68.528276 
L 79.804187 68.105966 
L 80.039046 66.787862 
L 80.226934 66.079375 
L 80.306786 66.1427 
L 80.236328 66.065374 
L 80.349061 66.0798 
L 80.46649 66.017029 
L 80.494674 66.055289 
L 80.499371 66.068652 
L 80.569829 65.978916 
L 80.58392 65.981426 
L 80.630892 66.035508 
L 80.682561 66.022118 
L 80.795294 66.192824 
L 80.823477 66.159767 
L 80.828174 66.139709 
L 80.903329 66.279347 
L 80.908026 66.277128 
L 81.053639 66.307826 
L 81.255618 66.664321 
L 81.443505 66.815731 
L 81.593815 67.094476 
L 83.002972 69.067413 
L 83.02176 69.031849 
L 83.078127 68.982278 
L 83.134493 69.060154 
L 83.275408 69.298758 
L 83.312986 69.26962 
L 83.336472 69.233309 
L 83.364655 69.318991 
L 83.416324 69.30872 
L 83.519662 69.338211 
L 83.444507 69.281624 
L 83.538451 69.322993 
L 83.543148 69.306846 
L 83.627697 69.408964 
L 83.886043 69.530193 
L 83.89074 69.521838 
L 83.914226 69.455832 
L 83.975289 69.594549 
L 83.989381 69.580941 
L 84.139691 69.409598 
L 84.15848 69.435164 
L 84.219543 69.581055 
L 84.271212 69.432085 
L 84.534255 69.443361 
L 84.651684 69.453115 
L 84.755022 69.396869 
L 84.689262 69.462568 
L 84.773811 69.406028 
L 84.801994 69.424447 
L 84.891241 69.400443 
L 84.924121 69.35965 
L 84.999276 69.400153 
L 85.112009 69.345233 
L 85.121403 69.352105 
L 85.267016 69.291538 
L 85.135494 69.364032 
L 85.285804 69.311584 
L 85.313988 69.269172 
L 85.398537 69.305531 
L 85.539453 69.230731 
L 85.417326 69.327541 
L 85.553544 69.251162 
L 85.656882 69.353749 
L 85.675671 69.329214 
L 85.746129 69.291184 
L 85.69446 69.348814 
L 85.779009 69.357512 
L 85.835375 69.367683 
L 85.882347 69.309746 
L 85.901136 69.327104 
L 86.037354 69.299729 
L 86.337974 69.327157 
L 86.342672 69.314751 
L 86.44601 69.175247 
L 86.469496 69.213026 
L 86.530559 69.29202 
L 86.591623 69.239402 
L 86.610411 69.196844 
L 86.760721 69.366529 
L 86.765418 69.346638 
L 86.849968 69.424769 
L 86.859362 69.41403 
L 86.939214 69.450906 
L 86.967397 69.384003 
L 87.08013 69.344122 
L 87.009672 69.466795 
L 87.089524 69.362981 
L 87.202257 69.438636 
L 87.225743 69.416528 
L 87.296201 69.390651 
L 87.324384 69.47343 
L 87.399539 69.43035 
L 87.437116 69.481073 
L 87.479391 69.511439 
L 87.53106 69.432209 
L 87.657884 69.353154 
L 87.554546 69.450123 
L 87.662581 69.366189 
L 87.794102 69.421259 
L 87.841074 69.573554 
L 87.930321 69.524087 
L 88.038356 69.432669 
L 87.963201 69.540485 
L 88.047751 69.437863 
L 88.104117 69.48643 
L 88.080631 69.409928 
L 88.136997 69.391971 
L 88.198061 69.312136 
L 88.151089 69.4129 
L 88.254427 69.357285 
L 88.338976 69.36159 
L 88.357765 69.317173 
L 88.503378 69.165539 
L 88.517469 69.189929 
L 88.64899 69.215392 
L 88.653688 69.204859 
L 88.73354 69.224023 
L 88.710054 69.280191 
L 88.742934 69.257212 
L 88.813392 69.211749 
L 88.874455 69.299374 
L 88.954308 69.249067 
L 88.996582 69.297457 
L 89.259625 69.332063 
L 89.269019 69.301908 
L 89.414632 69.270468 
L 89.541456 69.314323 
L 89.762224 69.223872 
L 89.55085 69.333992 
L 89.766921 69.230638 
L 89.884351 69.271932 
L 89.992386 69.177625 
L 89.903139 69.290356 
L 90.015872 69.19961 
L 90.45271 69.367682 
L 90.457408 69.359991 
L 91.152591 69.127552 
L 91.161986 69.167723 
L 91.279415 69.217085 
L 91.28881 69.199712 
L 91.387451 69.172956 
L 91.363965 69.242063 
L 91.401542 69.190321 
L 91.406239 69.199247 
L 91.472 69.094578 
L 91.702162 69.144043 
L 91.796106 69.239891 
L 91.814895 69.201298 
L 91.89005 69.257165 
L 91.937021 69.153916 
L 92.04036 69.205961 
L 92.049754 69.163931 
L 92.115515 69.136032 
L 92.157789 69.195704 
L 92.279916 69.239637 
L 92.284613 69.225442 
L 92.294008 69.164679 
L 92.34098 69.243431 
L 92.392649 69.216206 
L 92.580536 69.37626 
L 92.622811 69.313334 
L 92.697966 69.332904 
L 92.702663 69.355654 
L 92.759029 69.242465 
L 92.806001 69.321185 
L 92.876459 69.199407 
L 93.177079 68.913028 
L 93.24284 68.949388 
L 93.261628 68.881538 
L 93.280417 68.887522 
L 93.613917 68.63687 
L 93.299206 68.920467 
L 93.618614 68.658034 
L 93.684375 68.685699 
L 93.703164 68.612354 
L 93.72665 68.636307 
L 93.938023 68.701081 
L 93.956812 68.634647 
L 94.050756 68.574412 
L 94.074242 68.64528 
L 94.083636 68.674002 
L 94.163488 68.549699 
L 94.168185 68.551992 
L 94.271524 68.451973 
L 94.182277 68.584175 
L 94.313798 68.547129 
L 94.346679 68.517364 
L 94.435925 68.557504 
L 94.567446 68.414429 
L 94.581538 68.425678 
L 94.656693 68.289475 
L 94.66139 68.266534 
L 94.760031 68.337675 
L 94.835186 68.304991 
L 94.783517 68.298637 
L 94.84458 68.27412 
L 95.07944 68.137245 
L 95.131109 68.082398 
L 95.182778 68.097426 
L 95.304905 67.989665 
L 95.314299 67.995759 
L 95.408243 68.039458 
L 95.333088 67.976255 
L 95.431729 68.001136 
L 95.586736 68.007692 
L 95.591433 68.020736 
L 95.624313 68.042962 
L 95.671285 67.99257 
L 95.694771 67.99741 
L 95.877962 67.828542 
L 95.948419 67.796784 
L 96.009483 67.87525 
L 96.042363 67.81497 
L 96.098729 67.968988 
L 96.112821 67.925598 
L 96.178581 67.936511 
L 96.216159 67.891636 
L 96.34768 67.740082 
L 96.361772 67.743435 
L 96.427532 67.809152 
L 96.479201 67.742528 
L 96.606026 67.548266 
L 96.629511 67.569933 
L 96.850279 67.413069 
L 96.869068 67.483643 
L 96.958315 67.406872 
L 97.606526 67.162988 
L 97.686379 67.030281 
L 97.738048 67.052867 
L 97.831991 67.059348 
L 97.813203 66.982244 
L 97.85078 67.044562 
L 98.250041 66.774958 
L 98.254738 66.796746 
L 98.325196 66.875966 
L 98.273527 66.773767 
L 98.376865 66.831449 
L 98.884161 66.616672 
L 98.898253 66.665667 
L 98.93583 66.655793 
L 99.025077 66.765715 
L 99.339788 66.799664 
L 99.410246 66.725241 
L 99.452521 66.776522 
L 99.461915 66.787637 
L 99.612225 66.720965 
L 99.62162 66.738742 
L 99.677986 66.644318 
L 99.706169 66.667433 
L 99.83769 66.593206 
L 99.847085 66.654343 
L 99.917542 66.537623 
L 99.941028 66.563207 
L 100.368472 66.290939 
L 100.377867 66.312836 
L 100.485902 66.348666 
L 100.495296 66.32837 
L 100.645606 66.237993 
L 100.650304 66.243091 
L 100.692578 66.278112 
L 100.744247 66.208588 
L 100.758339 66.233441 
L 100.847586 66.202818 
L 100.795916 66.180008 
L 100.85698 66.180938 
L 100.955621 66.099689 
L 100.988501 66.121815 
L 101.171691 66.012636 
L 101.176389 66.032882 
L 101.289121 66.161968 
L 101.317304 66.140847 
L 101.387762 66.078731 
L 101.430037 66.13267 
L 101.439431 66.120444 
L 101.566255 66.12907 
L 101.683685 65.999817 
L 101.707171 66.03789 
L 101.75884 66.06819 
L 101.801115 65.978877 
L 101.810509 66.014937 
L 101.871572 66.128064 
L 101.932636 66.001836 
L 101.993699 66.123085 
L 102.050065 66.080966 
L 102.17689 65.983276 
L 102.078249 66.097746 
L 102.195678 65.993016 
L 102.214467 65.963236 
L 102.313108 65.987634 
L 102.421143 65.861526 
L 102.444629 65.926995 
L 102.69358 65.843018 
L 102.712369 65.90948 
L 102.778129 65.960182 
L 102.721763 65.901634 
L 102.825101 65.890288 
L 102.96132 65.752667 
L 103.116327 65.655623 
L 103.247848 65.707534 
L 103.149207 65.611218 
L 103.26194 65.694651 
L 103.323003 65.550846 
L 103.571954 65.286672 
L 103.576651 65.290185 
L 103.600137 65.302103 
L 103.637715 65.220217 
L 103.661201 65.231649 
L 103.806813 65.093893 
L 103.811511 65.109293 
L 103.834997 65.05308 
L 103.877271 65.042543 
L 104.004095 64.879032 
L 104.008792 64.892116 
L 104.22956 64.553581 
L 104.351687 63.780429 
L 104.37987 61.48922 
L 104.393962 50.778259 
L 104.487906 60.912213 
L 104.53018 67.860157 
L 104.624124 67.249149 
L 105.079751 62.758886 
L 105.093843 50.983155 
L 105.197181 60.784336 
L 105.239456 68.32471 
L 105.333399 67.786112 
L 105.897062 63.221639 
L 105.91585 50.961596 
L 106.019189 60.93254 
L 106.06616 68.472775 
L 106.15071 68.019899 
L 106.456027 66.142014 
L 106.845894 62.88386 
L 106.864682 50.943919 
L 106.963323 61.255136 
L 107.005598 68.545845 
L 107.090147 68.120558 
L 107.522288 65.831013 
L 107.743056 64.877405 
L 107.851092 64.38448 
L 107.926247 63.105539 
L 107.945035 50.873932 
L 108.043676 61.141266 
L 108.085951 68.590527 
L 108.1705 68.19896 
L 108.461726 66.646418 
L 108.522789 66.345552 
L 109.133424 63.780691 
L 109.15691 62.529352 
L 109.171001 50.859854 
L 109.269642 61.521253 
L 109.311917 68.612779 
L 109.391769 68.23126 
L 109.499804 67.644105 
L 109.725269 66.530693 
L 110.495608 63.513531 
L 110.514397 60.293026 
L 110.523791 50.828796 
L 110.622432 62.174126 
L 110.66001 68.615202 
L 110.739862 68.245898 
L 111.1767 66.181425 
L 111.181397 66.190882 
L 111.186094 66.192765 
L 111.20958 66.096305 
L 111.406862 65.643804 
L 111.416257 65.652973 
L 111.613539 65.141537 
L 111.801426 64.46865 
L 111.890673 63.822575 
L 111.918856 62.353354 
L 111.932947 50.817771 
L 112.026891 60.821497 
L 112.073863 68.632922 
L 112.163109 68.214002 
L 112.510701 66.499893 
L 112.520096 66.507148 
L 112.698589 65.964063 
L 112.867687 65.60337 
L 112.872385 65.60893 
L 112.924054 65.502831 
L 113.079061 65.207474 
L 113.088455 65.213175 
L 113.215279 64.90101 
L 113.370287 64.578067 
L 113.506505 63.77559 
L 113.534688 61.722804 
L 113.54878 50.835164 
L 113.642723 61.647261 
L 113.684998 68.606841 
L 113.727273 68.41944 
" style="fill:none;stroke:#000000;stroke-linecap:square;stroke-width:0.3;"/>
   </g>
  </g>
 </g>
 <defs>
  <clipPath id="p32f7e6e64a">
   <rect height="63.756" width="111.6" x="7.2" y="7.2"/>
  </clipPath>
 </defs>
</svg>
