<?xml version="1.0" encoding="utf-8" standalone="no"?>
<!DOCTYPE svg PUBLIC "-//W3C//DTD SVG 1.1//EN"
  "http://www.w3.org/Graphics/SVG/1.1/DTD/svg11.dtd">
<!-- Created with matplotlib (https://matplotlib.org/) -->
<svg height="78.156pt" version="1.1" viewBox="0 0 126 78.156" width="126pt" xmlns="http://www.w3.org/2000/svg" xmlns:xlink="http://www.w3.org/1999/xlink">
 <metadata>
  <rdf:RDF xmlns:cc="http://creativecommons.org/ns#" xmlns:dc="http://purl.org/dc/elements/1.1/" xmlns:rdf="http://www.w3.org/1999/02/22-rdf-syntax-ns#">
   <cc:Work>
    <dc:type rdf:resource="http://purl.org/dc/dcmitype/StillImage"/>
    <dc:date>2021-01-26T17:40:58.957463</dc:date>
    <dc:format>image/svg+xml</dc:format>
    <dc:creator>
     <cc:Agent>
      <dc:title>Matplotlib v3.3.2, https://matplotlib.org/</dc:title>
     </cc:Agent>
    </dc:creator>
   </cc:Work>
  </rdf:RDF>
 </metadata>
 <defs>
  <style type="text/css">*{stroke-linecap:butt;stroke-linejoin:round;}</style>
 </defs>
 <g id="figure_1">
  <g id="patch_1">
   <path d="M 0 78.156 
L 126 78.156 
L 126 0 
L 0 0 
z
" style="fill:none;"/>
  </g>
  <g id="axes_1">
   <g id="patch_2">
    <path d="M 7.2 70.956 
L 118.8 70.956 
L 118.8 7.2 
L 7.2 7.2 
z
" style="fill:none;"/>
   </g>
   <g id="matplotlib.axis_1"/>
   <g id="matplotlib.axis_2"/>
   <g id="line2d_1">
    <path clip-path="url(#p9dbfcea99a)" d="M 12.272727 26.138113 
L 12.277424 26.156384 
L 12.343185 26.096044 
L 12.376065 26.09665 
L 12.582742 26.205525 
L 12.592136 26.184088 
L 12.610925 26.214415 
L 13.108827 25.918135 
L 13.254439 25.997326 
L 13.259137 25.99024 
L 13.367172 25.984427 
L 13.306108 26.065847 
L 13.381263 25.997147 
L 13.475207 25.966349 
L 13.456418 25.941024 
L 13.484602 25.955367 
L 13.630214 26.024398 
L 13.658397 25.972658 
L 13.785222 25.816247 
L 13.799313 25.86082 
L 13.841588 25.895096 
L 13.874468 25.844612 
L 13.907348 25.857304 
L 13.944926 25.820024 
L 14.020081 25.865227 
L 14.099933 25.88798 
L 14.076447 25.838426 
L 14.128116 25.871005 
L 14.273729 25.730023 
L 14.278426 25.731869 
L 14.40525 25.830424 
L 14.508588 25.827907 
L 14.52268 25.848202 
L 14.630715 25.88366 
L 14.644807 25.8681 
L 14.663596 25.883235 
L 14.804511 25.780741 
L 14.907849 25.901607 
L 14.931335 25.862801 
L 15.058159 25.828028 
L 15.114526 25.86572 
L 15.161497 25.802474 
L 15.302413 25.718763 
L 15.39166 25.716144 
L 15.410448 25.667833 
L 15.494998 25.652788 
L 15.452723 25.720515 
L 15.527878 25.697414 
L 15.711068 25.815025 
L 15.960019 25.687907 
L 15.729857 25.838101 
L 15.964716 25.694857 
L 16.05866 25.685805 
L 15.997597 25.64704 
L 16.068054 25.670498 
L 16.171393 25.584258 
L 16.190181 25.613518 
L 16.199576 25.638216 
L 16.274731 25.511342 
L 16.387463 25.578356 
L 16.396858 25.532094 
L 16.462618 25.456359 
L 16.533076 25.518606 
L 16.6599 25.642928 
L 16.683386 25.631875 
L 16.763238 25.549027 
L 16.824302 25.586642 
L 16.838393 25.60273 
L 16.857182 25.520387 
L 16.932337 25.559227 
L 17.021583 25.672816 
L 17.312809 25.746674 
L 17.317506 25.735561 
L 17.472513 25.630557 
L 17.481908 25.643607 
L 17.52888 25.624349 
L 17.505394 25.598422 
L 17.547668 25.572958 
L 17.599338 25.538263 
L 17.660401 25.578335 
L 17.796619 25.629809 
L 18.050267 25.603485 
L 18.200577 25.967057 
L 18.205275 25.966118 
L 18.214669 26.046041 
L 18.219366 26.065838 
L 18.510592 26.497885 
L 18.524683 26.458196 
L 18.548169 26.443659 
L 18.61393 26.516558 
L 18.736057 26.550713 
L 18.88167 26.665563 
L 18.825303 26.507358 
L 18.886367 26.653543 
L 18.966219 26.60166 
L 18.999099 26.645423 
L 19.102437 26.635564 
L 19.017888 26.623928 
L 19.111832 26.62674 
L 19.177592 26.695164 
L 19.243353 26.578922 
L 19.266839 26.606417 
L 19.346691 26.541692 
L 19.440635 26.603115 
L 19.520487 26.580683 
L 19.539276 26.555035 
L 19.562762 26.523463 
L 19.623825 26.59533 
L 19.642614 26.597139 
L 19.84929 26.578403 
L 19.872776 26.545732 
L 19.990206 26.697424 
L 20.088847 26.630344 
L 20.11703 26.663939 
L 20.257945 26.535635 
L 20.304917 26.619313 
L 20.375375 26.585672 
L 20.427044 26.669994 
L 21.141017 26.6262 
L 21.206777 26.639141 
L 21.183291 26.600295 
L 21.239658 26.587501 
L 21.446334 26.464221 
L 21.253749 26.606123 
L 21.474517 26.498455 
L 21.596644 26.570266 
L 21.68589 26.538205 
L 21.709376 26.60807 
L 21.840898 26.689728 
L 21.897264 26.690236 
L 21.864383 26.659492 
L 21.934841 26.630222 
L 22.038179 26.65441 
L 21.95363 26.677739 
L 22.042877 26.674196 
L 22.108637 26.704187 
L 22.146215 26.660927 
L 22.263644 26.59272 
L 22.268342 26.599424 
L 22.273039 26.586645 
L 22.296525 26.647497 
L 22.366982 26.635406 
L 22.442137 26.633715 
L 22.418652 26.592888 
L 22.460926 26.583167 
L 22.484412 26.522841 
L 22.52199 26.606363 
L 22.568962 26.606385 
L 22.611236 26.586297 
L 22.70518 26.675834 
L 22.770941 26.631269 
L 22.799124 26.699812 
L 22.813215 26.692343 
L 23.010497 26.535451 
L 22.827307 26.703627 
L 23.015194 26.55127 
L 23.104441 26.577771 
L 23.132624 26.549994 
L 23.217173 26.507144 
L 23.245356 26.566955 
L 23.311117 26.612421 
L 23.343997 26.546888 
L 23.353392 26.561037 
L 23.428547 26.482895 
L 23.484913 26.4252 
L 23.531885 26.501838 
L 23.541279 26.477507 
L 23.545976 26.468503 
L 23.60704 26.570201 
L 23.630526 26.536047 
L 23.75735 26.604187 
L 23.766744 26.579435 
L 23.771441 26.570614 
L 23.832505 26.66597 
L 23.837202 26.662518 
L 23.855991 26.722194 
L 23.945237 26.641739 
L 24.114336 26.487385 
L 24.119033 26.495278 
L 24.20828 26.499666 
L 24.227069 26.472665 
L 24.344498 26.379459 
L 24.349195 26.412794 
L 24.39147 26.361123 
L 24.494808 26.567911 
L 24.598146 26.518687 
L 24.513597 26.622641 
L 24.612238 26.530998 
L 24.635724 26.578526 
L 24.701484 26.481208 
L 24.715576 26.505708 
L 24.757851 26.562617 
L 24.837703 26.497136 
L 24.879978 26.499313 
L 24.926949 26.447146 
L 25.034985 26.375104 
L 25.044379 26.37975 
L 25.166506 26.473512 
L 25.180598 26.455815 
L 25.185295 26.441365 
L 25.269844 26.536433 
L 25.41076 26.439466 
L 25.302724 26.58633 
L 25.438943 26.48705 
L 25.551675 26.655567 
L 25.589253 26.620713 
L 25.598647 26.582181 
L 25.640922 26.650545 
L 25.697288 26.63507 
L 25.74426 26.610136 
L 25.725471 26.581131 
L 25.763049 26.549805 
L 25.875781 26.542571 
L 25.810021 26.616073 
L 25.885176 26.54775 
L 26.07776 26.412167 
L 25.913359 26.599808 
L 26.087155 26.463949 
L 26.444141 26.48535 
L 26.477021 26.425945 
L 26.556873 26.479688 
L 26.693092 26.586291 
L 26.711881 26.543621 
L 26.866888 26.513555 
L 26.885677 26.592031 
L 26.927951 26.647566 
L 26.951437 26.577948 
L 26.998409 26.598075 
L 27.087656 26.58946 
L 27.111142 26.552511 
L 27.228571 26.516613 
L 27.242663 26.548693 
L 27.355395 26.591501 
L 27.313121 26.508147 
L 27.360092 26.58248 
L 27.43055 26.661095 
L 27.374184 26.574032 
L 27.482219 26.607548 
L 27.646621 26.636877 
L 27.651318 26.650254 
L 27.674804 26.704527 
L 27.749959 26.598994 
L 27.754656 26.607103 
L 27.764051 26.592337 
L 27.914361 26.634377 
L 28.102248 26.468378 
L 28.172706 26.493511 
L 28.130431 26.503217 
L 28.186797 26.520328 
L 28.304227 26.556509 
L 28.323016 26.512462 
L 28.388776 26.60725 
L 28.407565 26.586247 
L 28.506206 26.586412 
L 28.520298 26.558228 
L 28.543784 26.590314 
L 28.642425 26.52963 
L 28.755157 26.573642 
L 28.759854 26.586204 
L 28.769249 26.615003 
L 28.825615 26.497381 
L 28.863192 26.546402 
L 29.004108 26.477328 
L 29.145024 26.394092 
L 29.23427 26.327432 
L 29.257756 26.37766 
L 29.379883 26.461579 
L 29.285939 26.369903 
L 29.38458 26.45699 
L 29.610045 26.466068 
L 29.713383 26.479986 
L 29.675806 26.41001 
L 29.722778 26.458468 
L 29.80263 26.509027 
L 29.736869 26.450242 
L 29.83551 26.441541 
L 29.858996 26.424812 
L 29.849602 26.460406 
L 29.929454 26.489364 
L 29.938848 26.478791 
L 30.084461 26.579997 
L 30.192496 26.517407 
L 30.206588 26.543092 
L 30.338109 26.6438 
L 30.525997 26.457134 
L 30.530694 26.464206 
L 30.582363 26.347886 
L 30.596454 26.373761 
L 30.821919 26.271997 
L 30.859497 26.222952 
L 30.934652 26.278441 
L 31.042687 26.155265 
L 31.056779 26.179584 
L 31.089659 26.217924 
L 31.131934 26.12676 
L 31.141328 26.126311 
L 31.258758 26.057555 
L 31.268152 26.06276 
L 31.437251 25.952979 
L 31.460737 26.025067 
L 31.587561 26.122568 
L 31.620441 26.082734 
L 31.723779 25.960522 
L 31.742568 25.968804 
L 31.888181 25.849882 
L 31.986822 25.710419 
L 32.029096 25.726796 
L 32.076068 25.765918 
L 32.151223 25.716415 
L 32.268653 25.752994 
L 32.301533 25.680059 
L 32.325019 25.627172 
L 32.376688 25.701946 
L 32.409569 25.694298 
L 32.531695 25.675009 
L 32.42366 25.7068 
L 32.54109 25.708105 
L 32.65852 25.793288 
L 32.559879 25.697656 
L 32.672611 25.777207 
L 32.738372 25.730489 
L 32.710189 25.813793 
L 32.780646 25.784239 
L 32.799435 25.82181 
L 32.865196 25.709319 
L 32.883985 25.757856 
L 33.034295 25.695277 
L 33.067175 25.679927 
L 33.161119 25.735017 
L 33.278548 25.710564 
L 33.29264 25.74197 
L 33.452344 25.752634 
L 33.612049 25.646719 
L 33.616746 25.666312 
L 33.677809 25.732165 
L 33.724781 25.660424 
L 33.771753 25.630358 
L 33.804633 25.717567 
L 33.828119 25.689029 
L 33.865697 25.729903 
L 33.912669 25.649247 
L 33.945549 25.69176 
L 34.124042 25.577921 
L 34.128739 25.59932 
L 34.147528 25.620929 
L 34.180408 25.541279 
L 34.222683 25.536913 
L 34.316627 25.396814 
L 34.34481 25.473415 
L 34.687704 25.306283 
L 34.692402 25.317457 
L 34.800437 25.426989 
L 34.819226 25.417638 
L 34.908472 25.361606 
L 34.913169 25.337914 
L 35.030599 25.157141 
L 35.049388 25.180485 
L 35.082268 25.208008 
L 35.12924 25.137031 
L 35.152726 25.151032 
L 35.608353 24.747669 
L 35.796241 24.747354 
L 35.805635 24.719998 
L 35.885487 24.681994 
L 35.824424 24.732331 
L 35.923065 24.717373 
L 36.035797 24.709759 
L 35.970036 24.666693 
L 36.040494 24.704903 
L 36.327023 24.789475 
L 36.33172 24.772308 
L 36.453847 24.707024 
L 36.373995 24.808173 
L 36.458544 24.717764 
L 36.557185 24.721935 
L 36.580671 24.685283 
L 36.63234 24.718125 
L 36.726284 24.640474 
L 37.23358 24.667627 
L 37.318129 24.743835 
L 37.355707 24.702034 
L 37.365101 24.663711 
L 37.454348 24.755331 
L 37.562383 24.794945 
L 37.581172 24.780621 
L 37.693904 24.657018 
L 37.703299 24.677571 
L 37.956947 24.603781 
L 38.079074 24.575669 
L 38.755468 24.6636 
L 38.778954 24.673918 
L 38.868201 24.632825 
L 38.891687 24.677939 
L 38.915173 24.613243 
L 38.980933 24.631986 
L 39.168821 24.700576 
L 39.234582 24.634975 
L 39.276856 24.697181 
L 39.417772 24.595023 
L 39.427166 24.606225 
L 39.441258 24.654788 
L 39.507018 24.557448 
L 39.525807 24.557488 
L 39.694906 24.338039 
L 39.699603 24.352326 
L 39.868702 24.43803 
L 39.718392 24.331816 
L 39.873399 24.406767 
L 40.108258 24.3347 
L 40.282054 24.401416 
L 40.164625 24.290341 
L 40.286751 24.392786 
L 40.5404 24.28574 
L 40.700104 24.250683 
L 40.57328 24.328842 
L 40.704801 24.262392 
L 40.709498 24.276715 
L 40.751773 24.162666 
L 40.789351 24.196294 
L 40.911477 24.104538 
L 40.916175 24.127124 
L 41.033604 24.298862 
L 41.052393 24.263843 
L 41.061787 24.277396 
L 41.108759 24.1947 
L 41.151034 24.21848 
L 41.226189 24.192616 
L 41.254372 24.256165 
L 41.381196 24.23562 
L 41.268464 24.274059 
L 41.39059 24.255102 
L 41.489231 24.25602 
L 41.512717 24.219052 
L 41.522112 24.197565 
L 41.597267 24.288768 
L 41.611358 24.257279 
L 41.620753 24.289167 
L 41.677119 24.21527 
L 41.714696 24.221722 
L 41.893189 24.278509 
L 41.897887 24.267103 
L 42.339422 24.129431 
L 42.414577 24.09668 
L 42.452155 24.148457 
L 42.499127 24.200158 
L 42.555493 24.107088 
L 42.658831 24.111577 
L 42.621254 24.155304 
L 42.668225 24.118884 
L 42.809141 24.144311 
L 42.813838 24.129832 
L 42.837324 24.176721 
L 42.907782 24.195198 
L 43.086275 24.092699 
L 42.959451 24.229471 
L 43.090972 24.107516 
L 43.095669 24.12244 
L 43.170824 24.027542 
L 43.19431 24.080539 
L 43.292951 24.040832 
L 43.321134 24.064404 
L 43.358712 24.108066 
L 43.386895 24.023963 
L 43.438564 24.04825 
L 43.668726 24.083485 
L 43.696909 24.089344 
L 43.76267 24.027996 
L 43.983438 23.921672 
L 44.152537 23.878754 
L 44.157234 23.901641 
L 44.176022 23.838064 
L 44.260572 23.859919 
L 44.594072 23.746075 
L 44.603466 23.764918 
L 44.678621 23.723989 
L 44.683319 23.707043 
L 44.805446 23.50928 
L 44.81484 23.512485 
L 44.885298 23.479082 
L 44.927572 23.524358 
L 45.589876 23.107043 
L 45.636848 23.065048 
L 45.702608 23.112144 
L 45.895193 23.094186 
L 46.031411 22.993713 
L 46.557496 22.309808 
L 46.68432 20.62727 
L 46.707806 8.791277 
L 46.806447 18.324337 
L 46.853419 24.633475 
L 46.966152 23.644827 
L 47.172828 20.346634 
L 47.186919 9.223544 
L 47.290258 17.686763 
L 47.341927 25.536373 
L 47.487539 24.21721 
L 47.713004 21.347401 
L 47.727096 19.362791 
L 47.741188 9.114536 
L 47.839828 17.156241 
L 47.900892 25.883491 
L 48.060596 24.55121 
L 48.342427 20.328371 
L 48.356519 9.047955 
L 48.459857 17.292783 
L 48.516223 26.069674 
L 48.680625 24.817044 
L 48.990639 21.996708 
L 49.032914 20.011903 
L 49.047006 8.99766 
L 49.145646 17.232776 
L 49.20671 26.15979 
L 49.366414 25.013328 
L 49.793858 20.263381 
L 49.812647 9.016847 
L 49.906591 17.426791 
L 49.962957 26.169317 
L 50.117964 25.124572 
L 50.672232 20.812403 
L 50.695718 9.006997 
L 50.794359 18.5396 
L 50.841331 26.055554 
L 50.949366 25.328032 
L 51.428479 22.583505 
L 51.621064 21.494517 
L 51.649247 18.252577 
L 51.663339 8.999665 
L 51.757283 18.401935 
L 51.808952 26.02395 
L 51.916987 25.255429 
L 52.560502 22.219522 
L 52.692023 21.362568 
L 52.715509 19.38252 
L 52.734297 9.072535 
L 52.823544 18.75237 
L 52.870516 25.878702 
L 52.973854 25.185146 
L 53.424784 22.804659 
L 53.452967 22.792566 
L 53.471756 22.720435 
L 53.476453 22.714212 
L 53.809953 22.129318 
L 53.852228 22.1626 
L 53.861622 22.16961 
L 53.8992 22.067766 
L 54.002538 21.552969 
L 54.040115 19.50091 
L 54.058904 9.049806 
L 54.148151 19.177027 
L 54.190425 25.726158 
L 54.284369 25.094097 
L 54.693025 22.821163 
L 54.697722 22.822817 
L 54.739996 22.748907 
L 54.913792 22.315411 
L 55.158046 21.666385 
L 55.205018 20.680297 
L 55.233201 9.105932 
L 55.322448 19.454061 
L 55.364722 25.744093 
L 55.453969 25.148987 
L 55.815652 23.066872 
L 56.008237 22.663656 
L 56.017631 22.669847 
L 56.120969 22.577833 
L 56.078695 22.701274 
L 56.15385 22.614341 
L 56.191427 22.665772 
L 56.247793 22.584355 
L 56.261885 22.617809 
L 56.360526 22.55722 
L 56.280674 22.646336 
L 56.398103 22.609075 
L 56.806759 22.92916 
L 56.97116 23.18513 
L 57.445576 23.840969 
L 57.638161 24.12263 
L 57.642858 24.115177 
L 57.891809 24.403016 
L 57.65695 24.104674 
L 57.901203 24.379841 
L 58.154851 24.556697 
L 58.328647 24.948295 
L 58.427288 24.95873 
L 58.370922 24.905644 
L 58.446077 24.933572 
L 58.455471 24.923629 
L 58.493049 25.032947 
L 58.525929 25.012881 
L 58.976859 25.149125 
L 58.986254 25.112588 
L 59.070803 25.245714 
L 59.263388 25.361547 
L 59.371423 25.233761 
L 59.385514 25.248972 
L 59.432486 25.270605 
L 59.465367 25.208594 
L 59.49355 25.225042 
L 59.517036 25.178557 
L 59.592191 25.297592 
L 59.747198 25.412803 
L 59.784775 25.37374 
L 59.841142 25.442382 
L 59.892811 25.406513 
L 60.019635 25.459614 
L 59.906902 25.394426 
L 60.043121 25.432976 
L 60.104184 25.39069 
L 60.16055 25.434055 
L 60.282677 25.540106 
L 60.42829 25.531921 
L 60.329649 25.625765 
L 60.432987 25.53651 
L 60.475262 25.517662 
L 60.54572 25.567462 
L 60.649058 25.453043 
L 60.686635 25.483899 
L 60.785276 25.445864 
L 60.808762 25.491394 
L 60.921495 25.602698 
L 60.944981 25.592774 
L 61.06241 25.540832 
L 60.973164 25.613798 
L 61.076502 25.562232 
L 61.156354 25.658181 
L 61.208023 25.625002 
L 61.320756 25.620181 
L 61.250298 25.650347 
L 61.33015 25.62683 
L 61.466368 25.659166 
L 61.593192 25.787667 
L 61.602587 25.779331 
L 61.762291 25.837302 
L 61.870326 25.700425 
L 61.926693 25.775991 
L 62.091094 25.821067 
L 62.105186 25.788537 
L 62.222616 25.611275 
L 62.236707 25.636802 
L 62.391714 25.704705 
L 62.495052 25.656599 
L 62.405806 25.708739 
L 62.509144 25.667418 
L 62.56551 25.672937 
L 62.53263 25.643942 
L 62.617179 25.623973 
L 62.753398 25.533252 
L 62.790975 25.630463 
L 62.861433 25.680457 
L 62.837947 25.604263 
L 62.89901 25.627915 
L 62.960074 25.58306 
L 62.913102 25.640831 
L 63.011743 25.634342 
L 63.420398 25.61607 
L 63.730413 25.597476 
L 63.73511 25.629835 
L 63.796173 25.687455 
L 63.838448 25.622394 
L 63.861934 25.588302 
L 63.904209 25.649293 
L 63.946483 25.627177 
L 64.124976 25.759057 
L 64.134371 25.734432 
L 64.204829 25.835596 
L 64.261195 25.992646 
L 64.331653 25.898989 
L 64.679244 25.856723 
L 64.810766 25.799126 
L 64.829554 25.817186 
L 64.965773 26.053427 
L 65.097294 26.377345 
L 65.111386 26.357324 
L 65.144266 26.451899 
L 65.224118 26.5624 
L 65.261696 26.545144 
L 65.308667 26.54556 
L 65.346245 26.61659 
L 65.350942 26.613083 
L 65.529435 26.64231 
L 65.642168 26.572641 
L 65.651562 26.609581 
L 65.684442 26.590161 
L 65.815964 26.694114 
L 65.970971 26.483207 
L 65.985062 26.525694 
L 66.111886 26.518812 
L 66.116584 26.538403 
L 66.219922 26.62905 
L 66.238711 26.61737 
L 66.332654 26.550954 
L 66.360837 26.579534 
L 66.412506 26.61822 
L 66.47357 26.581361 
L 66.652063 26.542176 
L 66.77419 26.603287 
L 66.868134 26.517829 
L 66.89162 26.577207 
L 66.999655 26.635233 
L 67.004352 26.627664 
L 67.145268 26.557479 
L 67.22512 26.625882 
L 67.258 26.561172 
L 67.568015 26.632261 
L 67.624381 26.68003 
L 67.657261 26.595095 
L 67.671353 26.618325 
L 67.793479 26.533282 
L 67.685444 26.628368 
L 67.798177 26.54693 
L 67.821663 26.560136 
L 67.887423 26.472945 
L 67.915606 26.48525 
L 67.929698 26.55754 
L 67.934395 26.557625 
L 68.056522 26.623933 
L 68.136374 26.609724 
L 68.164557 26.651723 
L 68.183346 26.689509 
L 68.239712 26.624775 
L 68.267895 26.643096 
L 68.380628 26.546159 
L 68.399417 26.563443 
L 68.418205 26.612652 
L 68.559121 26.576762 
L 68.685945 26.667204 
L 68.742311 26.57791 
L 68.817466 26.56056 
L 68.808072 26.605457 
L 68.850347 26.59096 
L 68.91141 26.510529 
L 68.958382 26.579997 
L 69.019445 26.552311 
L 69.052326 26.64072 
L 69.06172 26.625013 
L 69.197938 26.686024 
L 69.099298 26.597341 
L 69.21203 26.664882 
L 69.39522 26.51429 
L 69.399918 26.518393 
L 69.503256 26.577936 
L 69.564319 26.58643 
L 69.597199 26.524848 
L 69.606594 26.536611 
L 69.615988 26.512551 
L 69.686446 26.640494 
L 69.700537 26.602325 
L 69.742812 26.650431 
L 69.808573 26.573589 
L 69.991763 26.493285 
L 70.001157 26.515547 
L 70.099798 26.528724 
L 70.076312 26.476351 
L 70.109193 26.50219 
L 70.137376 26.451349 
L 70.203137 26.548816 
L 70.217228 26.506419 
L 70.315869 26.491639 
L 70.226622 26.488414 
L 70.325263 26.456966 
L 70.358144 26.396851 
L 70.433299 26.486426 
L 70.522545 26.556775 
L 70.560123 26.529749 
L 70.5977 26.518625 
L 70.630581 26.594612 
L 70.658764 26.578419 
L 70.668158 26.587376 
L 70.705736 26.49727 
L 70.738616 26.521313 
L 70.794982 26.457872 
L 70.827862 26.559728 
L 70.837257 26.559882 
L 70.884229 26.640393 
L 70.940595 26.539942 
L 71.025144 26.446492 
L 71.058025 26.509629 
L 71.142574 26.557843 
L 71.175454 26.509065 
L 71.189546 26.458847 
L 71.28349 26.508207 
L 71.386828 26.571212 
L 71.400919 26.540387 
L 71.410314 26.511343 
L 71.4338 26.577411 
L 71.504257 26.574416 
L 71.570018 26.649437 
L 71.61699 26.570643 
L 71.771997 26.570855 
L 71.776694 26.583851 
L 71.847152 26.644011 
L 71.889427 26.601583 
L 72.025645 26.481204 
L 72.044434 26.522899 
L 72.13368 26.468909 
L 72.157166 26.552736 
L 72.241716 26.550451 
L 72.171258 26.521435 
L 72.265202 26.504927 
L 72.443695 26.548253 
L 72.504758 26.687243 
L 72.575216 26.640163 
L 72.711434 26.604303 
L 72.594005 26.671569 
L 72.720829 26.636184 
L 72.847653 26.723081 
L 72.880533 26.617158 
L 73.124787 26.460617 
L 72.904019 26.64691 
L 73.129484 26.48014 
L 73.30328 26.586991 
L 73.326766 26.618589 
L 73.359646 26.527879 
L 73.401921 26.525067 
L 73.430104 26.552803 
L 73.509956 26.544396 
L 73.632083 26.623075 
L 73.63678 26.604423 
L 73.641478 26.580476 
L 73.72133 26.681272 
L 73.740118 26.646849 
L 74.026647 26.511843 
L 74.167562 26.616893 
L 74.397725 26.459687 
L 74.421211 26.487619 
L 74.439999 26.534953 
L 74.482274 26.459138 
L 74.533943 26.504956 
L 74.660767 26.442373 
L 74.665464 26.461841 
L 75.229127 26.304023 
L 75.252613 26.404167 
L 75.299585 26.453666 
L 75.327768 26.332894 
L 75.346556 26.335111 
L 75.417014 26.309432 
L 75.384134 26.375425 
L 75.4405 26.375662 
L 75.572021 26.451095 
L 75.576719 26.440272 
L 75.933705 26.322665 
L 76.032346 26.370894 
L 76.065226 26.328236 
L 76.356452 26.244407 
L 76.361149 26.23608 
L 76.417515 26.33396 
L 76.426909 26.339078 
L 77.032847 26.369449 
L 77.117396 26.463764 
L 77.150276 26.394676 
L 77.253614 26.344802 
L 77.197248 26.41852 
L 77.267706 26.369256 
L 77.286495 26.403538 
L 77.356953 26.290963 
L 77.36165 26.297501 
L 77.455593 26.277238 
L 77.403924 26.246576 
L 77.460291 26.253587 
L 77.469685 26.241871 
L 77.516657 26.337294 
L 77.549537 26.317311 
L 77.690453 26.385415 
L 77.840763 26.251228 
L 77.915918 26.302237 
L 77.948798 26.230767 
L 78.047439 26.16259 
L 77.958193 26.2471 
L 78.070925 26.205136 
L 78.615799 25.791273 
L 78.080319 26.231679 
L 78.62989 25.838054 
L 78.653376 25.819826 
L 78.7802 25.94131 
L 79.057334 25.745311 
L 79.104306 25.687903 
L 79.16537 25.773057 
L 79.202947 25.791116 
L 79.240525 25.711015 
L 79.278102 25.772199 
L 79.31568 25.687651 
L 79.390835 25.746538 
L 79.395532 25.770178 
L 79.475384 25.629442 
L 79.480081 25.641238 
L 79.644483 25.54813 
L 79.757215 25.436421 
L 79.771307 25.462661 
L 79.79949 25.49916 
L 79.837067 25.404462 
L 79.851159 25.416883 
L 79.912222 25.357677 
L 79.963891 25.393972 
L 80.231631 25.196942 
L 80.236328 25.212551 
L 80.259814 25.271808 
L 80.339666 25.19641 
L 80.344364 25.206813 
L 80.471188 25.247595 
L 80.475885 25.223768 
L 80.6168 25.043672 
L 80.630892 25.080873 
L 80.696653 25.128729 
L 80.738927 25.081104 
L 80.781202 25.110819 
L 80.865751 25.033115 
L 80.987878 24.995099 
L 81.091216 24.835425 
L 81.114702 24.891926 
L 82.148083 24.791126 
L 82.195055 24.671429 
L 82.27021 24.698111 
L 82.274908 24.719823 
L 82.359457 24.614219 
L 82.411126 24.558481 
L 82.481584 24.616918 
L 82.641288 24.544204 
L 82.650682 24.564019 
L 82.683563 24.545418 
L 82.768112 24.667548 
L 83.186162 24.527286 
L 83.2895 24.590802 
L 83.331775 24.529638 
L 83.425718 24.492984 
L 83.449204 24.515818 
L 83.641789 24.603687 
L 83.463296 24.501824 
L 83.646486 24.595892 
L 84.036353 24.470809 
L 84.139691 24.402569 
L 84.088022 24.495175 
L 84.153782 24.433035 
L 84.252423 24.432917 
L 84.186663 24.371076 
L 84.266515 24.389047 
L 84.271212 24.366436 
L 84.34167 24.441852 
L 84.37455 24.413375 
L 84.454402 24.368528 
L 84.487283 24.41653 
L 84.632895 24.435564 
L 84.651684 24.456118 
L 84.703353 24.394725 
L 84.736234 24.41025 
L 84.881846 24.221153 
L 84.91003 24.248061 
L 84.952304 24.282654 
L 85.013368 24.219497 
L 85.1261 24.15673 
L 85.135494 24.203054 
L 85.389143 24.029844 
L 85.520664 23.941567 
L 85.600516 23.990697 
L 85.530058 23.971152 
L 85.605213 24.009537 
L 85.717946 24.13368 
L 85.732037 24.08641 
L 85.985685 24.022512 
L 85.741432 24.11766 
L 85.990383 24.044396 
L 86.107812 24.031702 
L 86.117207 24.011781 
L 86.164178 24.008747 
L 86.192362 24.06884 
L 86.206453 24.058441 
L 86.21115 24.07787 
L 86.276911 23.933163 
L 86.2957 23.957441 
L 86.765418 24.192623 
L 86.770116 24.17515 
L 86.887545 24.116835 
L 86.793602 24.221169 
L 86.89694 24.140563 
L 87.089524 24.257695 
L 87.211651 24.284509 
L 87.235137 24.229804 
L 87.333778 24.219993 
L 87.272715 24.287288 
L 87.338475 24.244392 
L 87.469997 24.363392 
L 87.549849 24.183351 
L 87.601518 24.21779 
L 88.58323 23.772195 
L 88.719448 23.687097 
L 88.592624 23.783009 
L 88.742934 23.714811 
L 88.780512 23.778154 
L 88.832181 23.697154 
L 88.855667 23.725827 
L 88.982491 23.788945 
L 88.869758 23.70806 
L 88.991885 23.783068 
L 89.095223 23.722266 
L 89.104618 23.759131 
L 89.203259 23.774935 
L 89.15159 23.724731 
L 89.212653 23.765498 
L 89.339477 23.688576 
L 89.489787 23.71188 
L 89.630703 23.569899 
L 89.513273 23.728113 
L 89.644794 23.586757 
L 89.649491 23.598757 
L 89.691766 23.507154 
L 89.734041 23.52815 
L 89.795104 23.44841 
L 89.748132 23.545339 
L 89.846773 23.529169 
L 89.982992 23.557574 
L 90.100421 23.48184 
L 90.109816 23.506739 
L 90.156788 23.43132 
L 90.208457 23.455495 
L 90.26952 23.516506 
L 90.297703 23.409969 
L 90.448013 23.184744 
L 90.457408 23.19788 
L 90.767422 23.083066 
L 90.90364 22.928499 
L 90.908338 22.93379 
L 90.997584 22.953588 
L 91.011676 22.983729 
L 91.030464 23.005516 
L 91.044556 22.953386 
L 91.100922 22.926418 
L 91.227746 22.842256 
L 91.279415 22.90686 
L 91.32169 22.798374 
L 91.331084 22.803393 
L 91.420331 22.68793 
L 91.598824 22.307458 
L 91.683373 21.88392 
L 91.730345 20.234709 
L 91.749134 8.787056 
L 91.847775 18.080982 
L 91.899444 24.678803 
L 92.021571 23.596447 
L 92.214156 20.410392 
L 92.232944 9.215871 
L 92.331585 17.578061 
L 92.383254 25.598067 
L 92.533564 24.240571 
L 92.768424 20.803343 
L 92.787212 9.083016 
L 92.895248 17.676746 
L 92.951614 25.89982 
L 93.097227 24.694777 
L 93.374361 21.782477 
L 93.402544 19.680416 
L 93.416635 9.044549 
L 93.515276 17.174463 
L 93.571643 26.07292 
L 93.740741 24.82552 
L 94.107122 18.867041 
L 94.121214 9.022537 
L 94.215157 17.14004 
L 94.276221 26.152692 
L 94.440622 24.954468 
L 94.802306 22.283561 
L 94.84458 21.936904 
L 94.886855 20.228475 
L 94.905644 9.016962 
L 94.999588 17.591166 
L 95.055954 26.134809 
L 95.201567 25.127747 
L 95.488095 23.147922 
L 95.582039 22.645601 
L 95.760532 20.863214 
L 95.784018 9.002273 
L 95.882659 18.481929 
L 95.929631 26.077344 
L 96.042363 25.320924 
L 96.389955 23.122287 
L 96.394652 23.124171 
L 96.413441 23.035386 
L 96.418138 23.024268 
L 96.629511 22.38988 
L 96.634209 22.394392 
L 96.667089 22.292042 
L 96.789216 21.380721 
L 96.812702 19.08188 
L 96.826793 9.035073 
L 96.920737 18.559684 
L 96.967709 25.933723 
L 97.075744 25.191421 
L 97.43273 23.093503 
L 97.907146 21.076877 
L 97.925935 16.10627 
L 97.940027 9.036231 
L 98.03397 19.426672 
L 98.080942 25.865142 
L 98.165492 25.250309 
L 98.527175 23.076537 
L 98.968711 22.112957 
L 98.973408 22.131575 
L 99.029774 21.922718 
L 99.119021 20.462301 
L 99.142507 9.044656 
L 99.231753 18.985237 
L 99.278725 25.767391 
L 99.372669 25.107543 
L 99.753141 22.961138 
L 99.790718 22.850742 
L 100.067852 22.381664 
L 100.07255 22.392922 
L 100.189979 22.473792 
L 100.081944 22.370789 
L 100.218162 22.455726 
L 100.485902 22.602661 
L 100.687881 22.817496 
L 100.70667 22.80423 
L 100.711367 22.787505 
L 100.781825 22.922175 
L 101.00729 23.341409 
L 101.181086 23.481024 
L 101.303213 23.572957 
L 101.444128 23.803131 
L 101.603833 24.201781 
L 101.60853 24.194274 
L 101.664896 24.215985 
L 101.683685 24.256311 
L 101.819903 24.392381 
L 102.02658 24.498822 
L 102.439932 25.1113 
L 102.444629 25.104318 
L 102.482207 25.050863 
L 102.538573 25.16331 
L 102.604334 25.294174 
L 102.670094 25.241974 
L 102.745249 25.207179 
L 102.702974 25.254018 
L 102.778129 25.255068 
L 103.003594 25.475922 
L 103.008292 25.468661 
L 103.031778 25.443858 
L 103.064658 25.540075 
L 103.088144 25.519681 
L 103.167996 25.608292 
L 103.210271 25.569306 
L 103.257243 25.630435 
L 103.308912 25.541977 
L 103.369975 25.508312 
L 103.421644 25.541504 
L 103.501496 25.575302 
L 103.534377 25.540426 
L 103.600137 25.541846 
L 103.614229 25.609319 
L 103.722264 25.767564 
L 103.750447 25.699304 
L 103.858483 25.670308 
L 103.797419 25.773741 
L 103.867877 25.677419 
L 103.985307 25.752391 
L 103.881968 25.669662 
L 104.004095 25.712071 
L 104.018187 25.676398 
L 104.098039 25.761116 
L 104.102736 25.758278 
L 104.159102 25.83428 
L 104.215469 25.722715 
L 104.356384 25.69625 
L 104.455025 25.603157 
L 104.473814 25.62029 
L 104.478511 25.630788 
L 104.539575 25.532553 
L 104.563061 25.554645 
L 104.572455 25.523571 
L 104.657004 25.613721 
L 104.694582 25.64426 
L 104.727462 25.560649 
L 104.746251 25.571342 
L 104.840195 25.484559 
L 104.868378 25.499902 
L 104.976413 25.559241 
L 104.920047 25.483067 
L 104.985807 25.539014 
L 105.220667 25.620308 
L 105.234758 25.599051 
L 105.36628 25.548885 
L 105.262941 25.655145 
L 105.375674 25.588888 
L 105.483709 25.625799 
L 105.422646 25.548913 
L 105.488406 25.622209 
L 105.591745 25.534842 
L 105.615231 25.59759 
L 105.657505 25.626155 
L 105.690385 25.551718 
L 105.713871 25.561852 
L 105.925245 25.425816 
L 106.056766 25.541199 
L 106.061463 25.523677 
L 106.108435 25.547988 
L 106.178893 25.505603 
L 106.239956 25.551955 
L 106.207076 25.485846 
L 106.286928 25.49651 
L 106.465421 25.431251 
L 106.470119 25.437982 
L 106.474816 25.462951 
L 106.549971 25.397094 
L 106.578154 25.421065 
L 106.639217 25.349438 
L 106.700281 25.437479 
L 107.104239 25.153897 
L 107.132422 25.212291 
L 107.273338 25.382788 
L 107.362584 25.306361 
L 107.390767 25.343809 
L 107.620929 25.365934 
L 107.625627 25.337452 
L 107.658507 25.310863 
L 107.71957 25.387545 
L 107.80412 25.507805 
L 107.837 25.468046 
L 107.982613 25.479161 
L 107.98731 25.490086 
L 108.114134 25.533557 
L 108.123528 25.499143 
L 108.325507 25.498287 
L 108.433543 25.525139 
L 108.358388 25.461482 
L 108.43824 25.520357 
L 108.475817 25.452827 
L 108.447634 25.525866 
L 108.536881 25.546497 
L 108.626127 25.607728 
L 108.569761 25.53777 
L 108.654311 25.57983 
L 108.776437 25.543514 
L 108.781135 25.552337 
L 108.936142 25.712331 
L 108.964325 25.680171 
L 108.992508 25.660253 
L 109.044177 25.770698 
L 109.288431 26.341577 
L 109.297825 26.336552 
L 109.30722 26.315488 
L 109.363586 26.448833 
L 109.382375 26.424587 
L 109.570262 26.581844 
L 109.579656 26.554323 
L 109.584354 26.53954 
L 109.650114 26.640224 
L 109.687692 26.579882 
L 109.856791 26.56536 
L 109.884974 26.480856 
L 109.950734 26.595569 
L 109.964826 26.588939 
L 110.086953 26.426549 
L 110.110439 26.462847 
L 110.162108 26.451525 
L 110.237263 26.568342 
L 110.298326 26.665411 
L 110.42515 26.72653 
L 110.312418 26.658606 
L 110.429847 26.717457 
L 110.603643 26.620652 
L 110.613038 26.647293 
L 110.706981 26.701458 
L 110.622432 26.642885 
L 110.730467 26.646817 
L 110.880777 26.56945 
L 110.998207 26.668501 
L 111.012299 26.646483 
L 111.148517 26.570905 
L 111.157911 26.589605 
L 111.270644 26.718315 
L 111.181397 26.574948 
L 111.303524 26.683752 
L 111.416257 26.643623 
L 111.322313 26.700009 
L 111.425651 26.678128 
L 111.561869 26.703192 
L 111.453834 26.645971 
L 111.566567 26.692409 
L 111.698088 26.631726 
L 111.59475 26.73523 
L 111.702785 26.637797 
L 111.871884 26.599311 
L 111.914158 26.490341 
L 111.984616 26.539246 
L 112.069166 26.485288 
L 112.092652 26.52802 
L 112.205384 26.557552 
L 112.313419 26.587895 
L 112.257053 26.528068 
L 112.318117 26.575358 
L 112.388574 26.645731 
L 112.449638 26.564005 
L 112.557673 26.635637 
L 112.515398 26.507761 
L 112.576462 26.623554 
L 112.604645 26.638571 
L 112.637525 26.555766 
L 112.6798 26.585953 
L 112.825413 26.584091 
L 112.952237 26.565363 
L 112.961631 26.572433 
L 113.032089 26.609776 
L 112.971026 26.565573 
L 113.069667 26.549075 
L 113.304526 26.529673 
L 113.328012 26.498597 
L 113.389075 26.549541 
L 113.407864 26.54514 
L 113.468927 26.567033 
L 113.436047 26.526159 
L 113.511202 26.526138 
L 113.539385 26.495471 
L 113.609843 26.577722 
L 113.684998 26.62787 
L 113.694392 26.662521 
L 113.727273 26.738846 
L 113.727273 26.738846 
" style="fill:none;stroke:#000000;stroke-linecap:square;stroke-width:0.3;"/>
   </g>
   <g id="line2d_2">
    <path clip-path="url(#p9dbfcea99a)" d="M 12.272727 46.025587 
L 12.53577 45.798331 
L 12.545164 45.836559 
L 12.554559 45.867463 
L 12.639108 45.758684 
L 12.714263 45.603439 
L 12.780023 45.671574 
L 12.883362 45.640156 
L 12.831693 45.592181 
L 12.888059 45.62549 
L 13.090038 45.454937 
L 13.094735 45.462801 
L 13.13701 45.504774 
L 13.165193 45.407473 
L 13.20277 45.443814 
L 14.10463 45.241402 
L 14.193877 45.149876 
L 14.231454 45.19299 
L 14.334792 45.129349 
L 14.480405 45.000241 
L 14.4898 45.012737 
L 14.635412 45.007173 
L 14.738751 45.087342 
L 14.766934 45.076837 
L 14.85618 45.086366 
L 14.879666 45.051216 
L 15.039371 44.932869 
L 14.889061 45.05844 
L 15.067554 44.981879 
L 15.09104 45.024919 
L 15.147406 44.935152 
L 15.166195 44.936802 
L 15.39166 44.817059 
L 15.410448 44.84659 
L 15.504392 44.817105 
L 15.443329 44.78307 
L 15.509089 44.797158 
L 16.115026 44.51612 
L 16.129118 44.537354 
L 16.204273 44.435386 
L 16.218364 44.491721 
L 16.349886 44.323344 
L 16.378069 44.355896 
L 16.500196 44.298759 
L 16.504893 44.276801 
L 16.608231 44.264886 
L 16.589442 44.322793 
L 16.617625 44.286527 
L 17.012189 43.97702 
L 17.030978 43.961086 
L 17.134316 44.014617 
L 17.298718 43.727302 
L 17.303415 43.728796 
L 17.547668 43.462395 
L 17.604035 43.547863 
L 17.665098 43.531227 
L 17.71207 43.529906 
L 17.730859 43.440425 
L 17.735556 43.442941 
L 18.101937 41.955629 
L 18.13012 39.15354 
L 18.148908 31.523427 
L 18.228761 45.356336 
L 18.252247 45.640906 
L 18.322704 45.013412 
L 18.473014 43.193392 
L 18.538775 41.804729 
L 18.566958 31.259081 
L 18.637416 41.100057 
L 18.670296 46.140589 
L 18.759543 45.305221 
L 18.876972 43.787834 
L 18.989705 40.664285 
L 19.008494 31.706798 
L 19.088346 44.830781 
L 19.107135 46.121514 
L 19.201078 45.23404 
L 19.421846 41.493747 
L 19.445332 31.880365 
L 19.51579 41.468822 
L 19.54867 46.097627 
L 19.63322 45.24648 
L 19.84929 41.969125 
L 19.868079 38.524687 
L 19.88217 31.964156 
L 19.96672 45.858608 
L 19.980811 46.18743 
L 20.065361 45.436349 
L 20.314312 41.649405 
L 20.337798 31.863202 
L 20.408255 40.977406 
L 20.441136 46.298582 
L 20.530382 45.545321 
L 20.812214 41.238363 
L 20.831002 31.839117 
L 20.906157 42.976726 
L 20.93434 46.399806 
L 21.023587 45.758182 
L 21.338298 42.02581 
L 21.357087 39.789433 
L 21.371179 31.666048 
L 21.455728 46.069725 
L 21.474517 46.546232 
L 21.563763 45.979978 
L 21.948933 42.028482 
L 21.972419 37.752055 
L 21.98651 31.712949 
L 22.07106 46.383577 
L 22.085151 46.615408 
L 22.169701 46.139091 
L 22.240158 45.67693 
L 22.517292 43.284123 
L 22.583053 42.789891 
L 22.658208 41.277063 
L 22.681694 31.773686 
L 22.747455 42.649594 
L 22.785032 46.633517 
L 22.864884 46.215677 
L 23.18899 43.937326 
L 23.447336 41.3241 
L 23.475519 32.018584 
L 23.536582 43.158113 
L 23.569462 46.607603 
L 23.654012 46.237346 
L 24.119033 43.297644 
L 24.32571 41.967361 
L 24.35859 39.230428 
L 24.377379 32.452541 
L 24.452534 46.144511 
L 24.471322 46.493939 
L 24.560569 46.119994 
L 25.340302 41.137729 
L 25.373182 33.049635 
L 25.424851 42.923067 
L 25.471823 46.35865 
L 25.546978 46.010741 
L 26.167007 42.76467 
L 26.364289 42.124227 
L 26.467627 40.718573 
L 26.500507 34.482994 
L 26.552176 43.551672 
L 26.594451 45.901708 
L 26.674303 45.556207 
L 27.284937 40.889517 
L 27.313121 32.361 
L 27.369487 43.432451 
L 27.411761 46.650507 
L 27.486916 46.34611 
L 28.11634 43.822941 
L 28.539086 43.274585 
L 28.548481 43.303446 
L 28.590755 43.382946 
L 28.661213 43.313499 
L 28.78334 43.38221 
L 28.788037 43.376399 
L 28.792735 43.366979 
L 28.853798 43.476477 
L 28.872587 43.445891 
L 29.05108 43.583386 
L 29.055777 43.571926 
L 29.069869 43.570491 
L 29.098052 43.657973 
L 29.112143 43.660022 
L 29.257756 43.86898 
L 29.403369 44.003132 
L 29.408066 43.995331 
L 29.638228 44.235663 
L 29.647623 44.223298 
L 29.703989 44.183958 
L 29.657017 44.234714 
L 29.741566 44.26797 
L 29.882482 44.396267 
L 29.905968 44.379997 
L 29.915362 44.36563 
L 29.962334 44.468132 
L 29.981123 44.47131 
L 30.370989 45.06062 
L 30.479025 45.034251 
L 30.483722 45.048077 
L 30.572968 45.193846 
L 30.746764 45.42383 
L 30.756159 45.410984 
L 30.784342 45.470778 
L 30.836011 45.491017 
L 30.981624 45.70559 
L 31.075567 45.753334 
L 31.056779 45.666976 
L 31.094356 45.714266 
L 31.108448 45.689661 
L 31.178906 45.820085 
L 31.183603 45.81195 
L 31.301032 46.0131 
L 31.460737 46.305207 
L 31.465434 46.296291 
L 31.512406 46.26889 
L 31.554681 46.370447 
L 31.658019 46.411802 
L 31.564075 46.357913 
L 31.686202 46.370827 
L 31.690899 46.362012 
L 31.733174 46.459895 
L 31.775448 46.42735 
L 31.916364 46.575427 
L 31.921061 46.56783 
L 31.930456 46.560093 
L 31.97273 46.678001 
L 31.982125 46.674068 
L 32.348505 46.995191 
L 32.3579 46.957415 
L 32.362597 46.939871 
L 32.437752 47.048697 
L 32.442449 47.047266 
L 32.550484 47.062917 
L 32.494118 46.993722 
L 32.555181 47.05505 
L 32.644428 46.948615 
L 32.700794 47.018686 
L 32.837013 47.12772 
L 33.104752 47.050634 
L 33.132935 47.131956 
L 33.179907 47.191381 
L 33.245668 47.169246 
L 33.250365 47.158988 
L 33.316126 47.252667 
L 33.339612 47.216394 
L 33.395978 47.241487 
L 33.447647 47.192996 
L 33.532196 47.221033 
L 33.504013 47.248164 
L 33.536894 47.230844 
L 33.644929 47.330853 
L 33.569774 47.206194 
L 33.654323 47.284449 
L 33.757661 47.314734 
L 33.781147 47.297304 
L 33.922063 47.179382 
L 34.448148 47.003405 
L 34.499817 47.062152 
L 34.471634 46.994453 
L 34.556183 47.020453 
L 34.673613 46.973583 
L 34.687704 46.95421 
L 34.786345 46.9569 
L 34.819226 47.006596 
L 34.941353 46.80716 
L 35.082268 46.785536 
L 35.086965 46.756128 
L 35.241972 46.704566 
L 35.101057 46.772003 
L 35.24667 46.714055 
L 35.321825 46.760964 
L 35.27955 46.705279 
L 35.359402 46.736612 
L 35.453346 46.633272 
L 35.486226 46.677545 
L 35.566078 46.65057 
L 35.537895 46.596923 
L 35.584867 46.624315 
L 35.702297 46.625925 
L 35.598959 46.657894 
L 35.706994 46.644008 
L 35.721086 46.664972 
L 35.735177 46.622489 
L 35.810332 46.613749 
L 35.815029 46.601971 
L 35.871396 46.760146 
L 36.06398 46.721187 
L 36.068677 46.733954 
L 36.073375 46.752446 
L 36.157924 46.638422 
L 36.162621 46.664133 
L 36.218987 46.604996 
L 36.289445 46.641808 
L 36.416269 46.703014 
L 36.547791 46.822196 
L 36.566579 46.786274 
L 36.655826 46.824243 
L 36.669917 46.838352 
L 36.787347 46.818882 
L 36.937657 46.880446 
L 36.947051 46.851851 
L 36.994023 46.889396 
L 37.064481 46.825135 
L 37.158425 46.852353 
L 37.097361 46.791607 
L 37.181911 46.821331 
L 37.327524 46.752089 
L 37.336918 46.758953 
L 37.440256 46.90043 
L 37.35101 46.742895 
L 37.491925 46.862174 
L 37.548291 46.822143 
L 37.590566 46.883394 
L 37.604658 46.843577 
L 37.703299 46.918835 
L 37.642235 46.826324 
L 37.726784 46.88163 
L 37.811334 46.796208 
L 37.816031 46.786039 
L 37.877094 46.870378 
L 37.90058 46.860534 
L 37.905278 46.868919 
L 37.928764 46.796174 
L 37.971038 46.773807 
L 38.107257 46.641565 
L 38.229384 46.801564 
L 38.257567 46.760647 
L 38.46894 46.646467 
L 38.473637 46.651676 
L 38.623947 46.738582 
L 38.811835 46.548049 
L 38.816532 46.562482 
L 39.309737 46.676015 
L 39.431863 46.819005 
L 39.530504 46.787901 
L 39.492927 46.759754 
L 39.535202 46.771542 
L 39.624448 46.608932 
L 39.67142 46.629557 
L 39.760667 46.596001 
L 39.774758 46.555982 
L 39.802941 46.504651 
L 39.859307 46.590406 
L 39.868702 46.58914 
L 39.892188 46.62027 
L 39.943857 46.513769 
L 39.97204 46.542554 
L 39.976737 46.553429 
L 40.042498 46.433971 
L 40.047195 46.443569 
L 40.178716 46.379982 
L 40.188111 46.390323 
L 40.286751 46.480933 
L 40.30554 46.448489 
L 40.45585 46.402711 
L 40.559188 46.462812 
L 40.577977 46.438409 
L 40.653132 46.520661 
L 40.72359 46.406858 
L 40.779956 46.375454 
L 40.742379 46.414892 
L 40.831625 46.411907 
L 41.033604 46.371888 
L 41.108759 46.429191 
L 41.146337 46.357938 
L 41.287252 46.513444 
L 41.296647 46.472661 
L 41.446957 46.336906 
L 41.451654 46.344055 
L 41.630147 46.545006 
L 42.273662 46.526282 
L 42.353514 46.515878 
L 42.301845 46.583132 
L 42.372303 46.559524 
L 42.456852 46.653862 
L 42.489732 46.584255 
L 42.550796 46.642964 
L 42.607162 46.578352 
L 42.635345 46.467705 
L 42.724592 46.528097 
L 43.46205 46.457184 
L 43.49493 46.555607 
L 43.57948 46.469045 
L 43.776762 46.549421 
L 43.894191 46.425848 
L 43.903586 46.443199 
L 44.152537 46.373115 
L 44.161931 46.403407 
L 44.176022 46.437243 
L 44.265269 46.366966 
L 44.786657 46.241896 
L 44.899389 46.366562 
L 44.908784 46.343622 
L 44.955756 46.36322 
L 44.983939 46.424224 
L 45.054396 46.432736 
L 45.035608 46.388317 
L 45.08258 46.392745 
L 45.190615 46.38571 
L 45.096671 46.402717 
L 45.195312 46.406757 
L 45.317439 46.479345 
L 45.477143 46.508375 
L 45.500629 46.570129 
L 45.589876 46.538791 
L 45.758975 46.600788 
L 45.862313 46.726948 
L 45.881101 46.701387 
L 45.970348 46.697129 
L 45.979742 46.647262 
L 46.059595 46.618485 
L 46.087778 46.673273 
L 46.16763 46.677756 
L 46.125355 46.712066 
L 46.191116 46.703407 
L 46.299151 46.801737 
L 46.209904 46.676556 
L 46.322637 46.786333 
L 46.416581 46.71193 
L 46.449461 46.739236 
L 46.557496 46.836959 
L 46.46825 46.701974 
L 46.576285 46.809873 
L 46.693715 46.762442 
L 46.698412 46.78846 
L 46.881602 47.41068 
L 47.078884 47.462982 
L 46.900391 47.378628 
L 47.083581 47.452676 
L 47.149342 47.379321 
L 47.201011 47.41138 
L 47.351321 47.3667 
L 47.360715 47.386786 
L 47.52042 47.364535 
L 47.525117 47.37909 
L 47.548603 47.425056 
L 47.623758 47.343315 
L 47.633152 47.365602 
L 47.778765 47.416368 
L 47.783462 47.405443 
L 47.839828 47.366001 
L 47.882103 47.450822 
L 47.957258 47.474871 
L 47.980744 47.423528 
L 48.023019 47.362952 
L 48.074688 47.472543 
L 48.084082 47.46762 
L 48.18742 47.448657 
L 48.116962 47.5092 
L 48.201512 47.475735 
L 48.239089 47.550563 
L 48.295456 47.444199 
L 48.323639 47.51233 
L 48.736991 47.48678 
L 48.760477 47.463629 
L 48.807449 47.539985 
L 48.845026 47.506412 
L 49.051703 47.292105 
L 49.08928 47.359189 
L 49.469752 47.527315 
L 49.488541 47.470895 
L 49.596576 47.377305 
L 49.610668 47.411396 
L 49.812647 47.367549 
L 49.930077 47.305372 
L 49.934774 47.309267 
L 50.014626 47.308709 
L 49.953563 47.324719 
L 50.033415 47.354702 
L 50.606472 47.272449 
L 50.737993 47.22476 
L 50.780268 47.258313 
L 50.794359 47.31557 
L 50.813148 47.306465 
L 50.822542 47.330877 
L 51.001035 47.312414 
L 51.113768 47.349921 
L 51.057402 47.301298 
L 51.118465 47.341704 
L 51.235895 47.439369 
L 51.264078 47.41326 
L 51.339233 47.360674 
L 51.381508 47.387197 
L 51.395599 47.399697 
L 51.451965 47.316872 
L 51.475451 47.337712 
L 51.597578 47.347774 
L 51.602275 47.364075 
L 51.729099 47.458564 
L 51.846529 47.443837 
L 51.879409 47.481713 
L 51.982748 47.446309 
L 52.053205 47.452947 
L 52.029719 47.417096 
L 52.090783 47.42656 
L 52.250487 47.365594 
L 52.259882 47.377216 
L 52.382008 47.473601 
L 52.386706 47.457387 
L 52.743692 47.10991 
L 52.804755 47.265607 
L 52.870516 47.34983 
L 52.926882 47.309935 
L 53.049009 47.256737 
L 52.983248 47.3777 
L 53.058403 47.278542 
L 53.095981 47.302488 
L 53.152347 47.251113 
L 53.166439 47.259797 
L 53.382509 47.29259 
L 53.387206 47.250474 
L 53.48115 47.357821 
L 53.485847 47.351074 
L 53.711312 47.209832 
L 53.734798 47.241534 
L 53.842834 47.198299 
L 53.894503 47.18219 
L 53.960263 47.264492 
L 54.08239 47.218491 
L 53.974355 47.27841 
L 54.105876 47.259284 
L 54.406496 47.359807 
L 54.411193 47.334042 
L 54.425285 47.284411 
L 54.481651 47.35754 
L 54.519229 47.342937 
L 54.538017 47.409227 
L 54.613172 47.285643 
L 54.693025 47.265415 
L 54.669539 47.3148 
L 54.721208 47.289428 
L 54.739996 47.272898 
L 54.829243 47.274534 
L 54.946673 47.207099 
L 54.838637 47.287491 
L 54.960764 47.238785 
L 55.148652 47.304062 
L 55.228504 47.210112 
L 55.266081 47.261063 
L 55.280173 47.228582 
L 55.449272 47.353554 
L 55.46806 47.384605 
L 55.829744 47.225301 
L 55.942476 47.240795 
L 55.956568 47.22531 
L 55.984751 47.210173 
L 56.041117 47.299852 
L 56.059906 47.24629 
L 56.149153 47.306589 
L 56.177336 47.244623 
L 56.275977 47.216772 
L 56.285371 47.241991 
L 56.332343 47.351506 
L 56.393406 47.233157 
L 56.600082 47.099782 
L 56.402801 47.243553 
L 56.609477 47.120673 
L 56.618871 47.104614 
L 56.853731 47.141686 
L 57.257689 46.930444 
L 57.295266 47.012189 
L 57.403301 47.073352 
L 57.314055 46.992008 
L 57.417393 47.062519 
L 57.567703 46.872694 
L 57.624069 46.929209 
L 57.581795 46.865506 
L 57.675738 46.855053 
L 57.811957 46.768959 
L 57.830746 46.800715 
L 57.934084 46.800453 
L 57.938781 46.812067 
L 57.981056 46.902594 
L 58.051513 46.825243 
L 58.206521 46.632051 
L 58.074999 46.846374 
L 58.211218 46.635243 
L 58.272281 46.616457 
L 58.328647 46.657269 
L 58.488352 46.570862 
L 58.55881 46.517981 
L 58.563507 46.507692 
L 58.695028 46.356492 
L 58.770183 46.357615 
L 58.737303 46.389951 
L 58.793669 46.394839 
L 58.906401 46.490672 
L 58.92519 46.430728 
L 59.197627 46.147824 
L 59.268085 46.262297 
L 59.352634 46.269113 
L 59.371423 46.217181 
L 59.502944 46.223282 
L 59.507641 46.199139 
L 59.629768 46.10336 
L 59.573402 46.228302 
L 59.634465 46.115286 
L 60.292072 45.769212 
L 60.306163 45.811561 
L 60.348438 45.818002 
L 60.324952 45.78843 
L 60.371924 45.752123 
L 60.475262 45.554805 
L 60.508142 45.566009 
L 60.54572 45.586533 
L 60.639663 45.511432 
L 60.757093 45.547321 
L 60.681938 45.450208 
L 60.76179 45.529545 
L 61.048319 45.356927 
L 61.057713 45.370149 
L 61.081199 45.30575 
L 61.137565 45.295382 
L 61.175143 45.254783 
L 61.198629 45.330849 
L 61.245601 45.307302 
L 61.269087 45.351977 
L 61.334847 45.256975 
L 61.348939 45.263212 
L 61.471066 45.172213 
L 61.48046 45.204919 
L 61.565009 45.094488 
L 61.569707 45.098502 
L 61.729411 45.121945 
L 61.734108 45.11033 
L 61.856235 44.988154 
L 61.860932 44.993632 
L 62.142763 44.827563 
L 62.255496 44.880901 
L 62.203827 44.785711 
L 62.26489 44.856976 
L 62.377623 44.829607 
L 62.274285 44.836204 
L 62.38232 44.815368 
L 62.410503 44.835101 
L 62.518538 44.74114 
L 62.546721 44.796199 
L 62.631271 44.746126 
L 62.664151 44.800281 
L 62.772186 44.658639 
L 62.776884 44.674942 
L 62.852039 44.555127 
L 62.856736 44.54954 
L 62.894313 44.665237 
L 62.927194 44.726958 
L 62.997651 44.608988 
L 63.143264 44.44469 
L 63.171447 44.531978 
L 63.255997 44.419817 
L 63.411004 44.267763 
L 63.519039 44.329192 
L 63.462673 44.238777 
L 63.537828 44.28652 
L 63.716321 44.105928 
L 63.730413 44.046919 
L 63.829054 44.084033 
L 63.941786 44.028676 
L 63.946483 44.008807 
L 64.063913 43.842071 
L 64.082702 43.872626 
L 64.087399 43.889002 
L 64.157857 43.76041 
L 64.167251 43.76768 
L 64.566512 43.352865 
L 64.885921 41.506628 
L 64.918801 31.517737 
L 64.979864 42.476877 
L 65.017442 45.611946 
L 65.097294 44.929846 
L 65.313365 41.721739 
L 65.341548 31.418736 
L 65.412006 41.755267 
L 65.440189 45.983766 
L 65.529435 45.101723 
L 65.68914 42.883448 
L 65.740809 41.050092 
L 65.759597 31.794225 
L 65.83945 44.50894 
L 65.858238 45.922588 
L 65.952182 44.963968 
L 66.149464 40.723003 
L 66.168253 32.166086 
L 66.248105 45.152356 
L 66.262196 45.880589 
L 66.35614 44.877091 
L 66.544028 41.378779 
L 66.567514 32.240254 
L 66.637971 42.294446 
L 66.661457 45.940703 
L 66.755401 44.93924 
L 66.952683 41.202408 
L 66.971472 32.122708 
L 67.046627 42.968847 
L 67.07481 46.052194 
L 67.159359 45.189728 
L 67.361338 42.258963 
L 67.389521 38.709222 
L 67.403613 32.033418 
L 67.488162 45.908359 
L 67.502254 46.197442 
L 67.586803 45.436418 
L 67.666655 44.517257 
L 67.849846 40.578816 
L 67.868634 31.937719 
L 67.948487 45.558985 
L 67.967275 46.34061 
L 68.056522 45.640481 
L 68.352445 41.598577 
L 68.375931 31.761525 
L 68.446389 41.471859 
L 68.479269 46.481298 
L 68.563818 45.889741 
L 68.803375 43.524041 
L 68.939593 41.093645 
L 68.958382 31.801636 
L 69.033537 44.218599 
L 69.057023 46.550774 
L 69.150967 46.006537 
L 69.287185 44.889396 
L 69.592502 41.14746 
L 69.615988 31.779278 
L 69.681749 42.852523 
L 69.714629 46.581065 
L 69.799178 46.138155 
L 70.334658 41.336526 
L 70.362841 31.950858 
L 70.423904 42.747734 
L 70.456785 46.596028 
L 70.541334 46.205447 
L 71.194243 40.74257 
L 71.217729 32.278853 
L 71.28349 44.914658 
L 71.321067 46.529388 
L 71.400919 46.113216 
L 71.588807 45.033178 
L 71.908215 43.106627 
L 71.912913 43.110998 
L 71.936399 42.993686 
L 72.049131 42.548535 
L 72.175955 41.629975 
L 72.204138 38.19399 
L 72.222927 33.389419 
L 72.298082 45.975127 
L 72.321568 46.205582 
L 72.396723 45.818098 
L 73.063723 41.580507 
L 73.087209 36.780677 
L 73.101301 32.593818 
L 73.176456 46.101614 
L 73.204639 46.518764 
L 73.284491 46.148216 
L 73.763604 43.585837 
L 74.073619 42.680238 
L 74.120591 42.742168 
L 74.449394 43.106184 
L 74.463485 43.087518 
L 74.53864 43.011243 
L 74.580915 43.05724 
L 74.745316 43.227105 
L 74.764105 43.21748 
L 74.895626 43.133573 
L 74.900324 43.15742 
L 75.013056 43.241069 
L 74.933204 43.104344 
L 75.017753 43.226313 
L 75.102303 43.169549 
L 75.130486 43.208936 
L 75.135183 43.205941 
L 75.158669 43.307963 
L 75.323071 43.734981 
L 75.445197 43.82246 
L 75.59081 43.92877 
L 75.764606 44.154683 
L 75.816275 44.071715 
L 75.872641 44.188818 
L 76.051135 44.433885 
L 76.145078 44.399293 
L 76.065226 44.446933 
L 76.15917 44.444484 
L 76.328269 44.689624 
L 76.356452 44.667003 
L 76.605403 44.926478 
L 76.6101 44.923929 
L 76.619494 44.91769 
L 76.657072 45.022976 
L 76.661769 45.021761 
L 76.807382 45.178459 
L 77.197248 45.808435 
L 77.342861 46.024943 
L 77.347558 46.020942 
L 78.056833 46.636884 
L 78.061531 46.626031 
L 78.108502 46.573074 
L 78.155474 46.668615 
L 78.249418 46.763164 
L 78.272904 46.71784 
L 78.728531 46.847164 
L 78.892933 47.008739 
L 78.761412 46.823091 
L 78.902327 46.97626 
L 78.949299 46.929004 
L 79.01506 46.953296 
L 79.151278 47.024265 
L 79.029151 46.934051 
L 79.184158 46.987213 
L 79.19825 46.966145 
L 79.249919 47.066398 
L 79.254616 47.065951 
L 79.475384 47.156038 
L 79.625694 46.986789 
L 79.635088 46.999609 
L 79.771307 46.989324 
L 79.776004 47.003014 
L 79.926314 47.194197 
L 80.048441 47.075507 
L 80.053138 47.08902 
L 80.179962 46.990032 
L 80.198751 46.969859 
L 80.241025 47.052911 
L 80.269209 47.057448 
L 80.330272 47.109566 
L 80.381941 47.047125 
L 80.508765 46.972971 
L 80.414821 47.083881 
L 80.51816 47.00713 
L 80.640286 47.030018 
L 80.663772 46.980389 
L 80.724836 47.091637 
L 80.776505 47.125783 
L 80.837568 47.088766 
L 80.983181 47.021525 
L 81.110005 46.893972 
L 81.114702 46.913168 
L 81.227435 46.87202 
L 81.171069 46.925942 
L 81.232132 46.885475 
L 81.344864 46.775149 
L 81.377745 46.78856 
L 81.391836 46.788436 
L 81.434111 46.891924 
L 81.509266 46.936797 
L 81.556238 46.900133 
L 81.631393 46.885762 
L 81.654879 46.949764 
L 81.659576 46.937394 
L 81.711245 46.974699 
L 81.75352 46.873908 
L 81.795794 46.89926 
L 81.90383 46.825088 
L 81.983682 46.868381 
L 81.917921 46.814102 
L 82.016562 46.817154 
L 82.143386 46.734534 
L 82.030654 46.828928 
L 82.152781 46.757381 
L 82.223238 46.767939 
L 82.171569 46.727907 
L 82.256119 46.719268 
L 82.359457 46.670146 
L 82.397034 46.713147 
L 82.523858 46.738354 
L 82.42052 46.685728 
L 82.528556 46.722982 
L 82.758718 46.63643 
L 82.768112 46.646605 
L 82.800992 46.745384 
L 82.833873 46.595682 
L 82.876147 46.628634 
L 83.096915 46.521146 
L 83.157979 46.509235 
L 83.228437 46.634046 
L 83.251922 46.609958 
L 83.312986 46.700929 
L 83.43981 46.741518 
L 83.374049 46.6473 
L 83.444507 46.733918 
L 83.637092 46.675429 
L 83.641789 46.692249 
L 83.716944 46.761431 
L 83.759219 46.713092 
L 83.914226 46.615729 
L 83.77331 46.724025 
L 83.918923 46.623336 
L 84.092719 46.586549 
L 84.106811 46.622668 
L 84.214846 46.706776 
L 84.243029 46.691494 
L 84.369853 46.746426 
L 84.440311 46.846612 
L 84.49198 46.794771 
L 84.604712 46.682484 
L 84.632895 46.750674 
L 85.065037 46.752245 
L 85.220044 46.72135 
L 85.271713 46.655585 
L 85.304593 46.752034 
L 85.332776 46.723285 
L 85.581727 46.63111 
L 85.586424 46.659354 
L 85.722643 46.763593 
L 85.816587 46.593624 
L 85.872953 46.61103 
L 86.013868 46.634904 
L 86.023263 46.605377 
L 86.135995 46.559441 
L 86.140693 46.569645 
L 86.248728 46.685189 
L 86.262819 46.659874 
L 86.291003 46.611319 
L 86.36146 46.703504 
L 86.474193 46.763276 
L 86.44601 46.682597 
L 86.47889 46.745655 
L 86.568137 46.678321 
L 86.586925 46.750287 
L 86.713749 46.811397 
L 86.723144 46.77294 
L 86.89694 46.623573 
L 86.934517 46.697786 
L 87.009672 46.627138 
L 87.141193 46.569527 
L 87.145891 46.591589 
L 87.282109 46.602539 
L 88.075934 46.690866 
L 88.188666 46.80402 
L 88.198061 46.791629 
L 88.301399 46.658789 
L 88.207455 46.799017 
L 88.343673 46.727799 
L 88.353068 46.759766 
L 88.414131 46.689016 
L 88.447011 46.703503 
L 88.545652 46.720528 
L 88.559744 46.758242 
L 88.705357 46.670183 
L 88.747631 46.642949 
L 88.794603 46.72671 
L 88.921427 46.764848 
L 89.095223 46.662657 
L 89.118709 46.638551 
L 89.231442 46.762255 
L 89.240836 46.718839 
L 89.278414 46.812296 
L 89.33478 46.804016 
L 89.626005 46.485883 
L 89.630703 46.49992 
L 89.757527 46.579154 
L 89.771618 46.51027 
L 89.856168 46.649205 
L 89.9689 46.588008 
L 90.00178 46.635202 
L 90.095724 46.626461 
L 90.034661 46.591749 
L 90.105119 46.601342 
L 90.217851 46.57496 
L 90.222548 46.581511 
L 90.325886 46.625065 
L 90.339978 46.588711 
L 90.438619 46.624046 
L 90.448013 46.65782 
L 91.086831 46.497983 
L 91.147894 46.596282 
L 91.20426 46.535405 
L 91.312296 46.571187 
L 91.223049 46.51852 
L 91.316993 46.569426 
L 91.378056 46.449188 
L 91.434422 46.532928 
L 91.448514 46.556409 
L 91.547155 46.558574 
L 91.636402 46.597918 
L 91.664585 46.568864 
L 91.73974 46.527107 
L 91.763226 46.629128 
L 92.030965 47.362364 
L 92.063846 47.331241 
L 92.209458 47.294486 
L 92.345677 47.451544 
L 92.589931 47.392073 
L 92.594628 47.407912 
L 92.6416 47.469316 
L 92.70736 47.431731 
L 92.815395 47.404177 
L 92.820093 47.42012 
L 92.82479 47.43758 
L 92.848276 47.347391 
L 92.928128 47.396232 
L 93.139501 47.444211 
L 93.144199 47.427531 
L 93.238142 47.317825 
L 93.27572 47.333012 
L 93.299206 47.433427 
L 93.39315 47.380928 
L 93.487093 47.46189 
L 93.411938 47.361823 
L 93.519974 47.447927 
L 93.628009 47.44759 
L 93.566945 47.384627 
L 93.637403 47.43902 
L 93.750136 47.409988 
L 93.75953 47.438243 
L 93.872263 47.507939 
L 93.895749 47.481196 
L 93.999087 47.412089 
L 94.013178 47.42319 
L 94.097728 47.479599 
L 94.064847 47.39637 
L 94.130608 47.458896 
L 94.135305 47.434666 
L 94.205763 47.529333 
L 94.229249 47.50591 
L 94.313798 47.529819 
L 94.271524 47.466953 
L 94.341981 47.510674 
L 94.464108 47.443174 
L 94.4782 47.464271 
L 94.482897 47.476527 
L 94.492291 47.419902 
L 94.572143 47.408684 
L 94.839883 47.273732 
L 94.985496 47.371486 
L 94.896249 47.212397 
L 94.990193 47.364791 
L 95.126412 47.252326 
L 95.013679 47.380513 
L 95.131109 47.264333 
L 95.192172 47.370101 
L 95.26263 47.319124 
L 95.290813 47.246097 
L 95.384757 47.30551 
L 95.422334 47.276495 
L 95.436426 47.344261 
L 95.469306 47.337964 
L 95.558553 47.449503 
L 95.582039 47.361933 
L 95.633708 47.390441 
L 95.708863 47.33217 
L 95.86387 47.43297 
L 95.732349 47.293308 
L 95.873264 47.400688 
L 95.89675 47.346464 
L 95.948419 47.463789 
L 95.976602 47.444221 
L 96.04706 47.517027 
L 96.094032 47.460074 
L 96.352377 47.294364 
L 96.117518 47.503625 
L 96.361772 47.307072 
L 96.479201 47.406315 
L 96.502687 47.394412 
L 96.6483 47.365814 
L 96.652997 47.370319 
L 96.657695 47.387806 
L 96.728152 47.292423 
L 96.746941 47.306679 
L 96.817399 47.283837 
L 96.831491 47.337715 
L 96.854976 47.322177 
L 96.991195 47.459786 
L 96.995892 47.443288 
L 97.122716 47.369154 
L 97.13211 47.374585 
L 97.197871 47.438573 
L 97.244843 47.402368 
L 97.296512 47.371735 
L 97.263632 47.410925 
L 97.352878 47.409573 
L 97.512583 47.384641 
L 97.662893 47.226894 
L 97.766231 47.307152 
L 97.780322 47.232441 
L 97.855477 47.213006 
L 97.874266 47.277191 
L 97.878963 47.275106 
L 97.986999 47.284797 
L 97.935329 47.223396 
L 98.005787 47.26411 
L 98.132611 47.383097 
L 98.259435 47.375669 
L 98.264133 47.335253 
L 98.437929 47.194026 
L 98.273527 47.342366 
L 98.442626 47.2229 
L 98.560055 47.320459 
L 98.466112 47.197905 
L 98.56945 47.3049 
L 98.644605 47.263789 
L 98.583541 47.313824 
L 98.682182 47.290572 
L 98.691577 47.327037 
L 98.710365 47.251173 
L 98.78552 47.262644 
L 99.025077 47.275308 
L 99.029774 47.296035 
L 99.100232 47.231889 
L 99.137809 47.275363 
L 99.255239 47.30578 
L 99.400852 47.303685 
L 99.47131 47.214988 
L 99.513584 47.293756 
L 99.616923 47.287068 
L 99.560556 47.245516 
L 99.62162 47.272265 
L 99.640408 47.259874 
L 99.682683 47.31093 
L 99.724958 47.305134 
L 99.847085 47.422103 
L 99.856479 47.403102 
L 99.950423 47.281704 
L 99.978606 47.32308 
L 99.983303 47.333254 
L 100.020881 47.251021 
L 100.067852 47.258738 
L 100.204071 47.227492 
L 100.077247 47.2746 
L 100.208768 47.231658 
L 100.213465 47.251892 
L 100.279226 47.164757 
L 100.307409 47.168263 
L 100.382564 47.164935 
L 100.410747 47.19815 
L 100.467113 47.248766 
L 100.514085 47.163209 
L 100.734853 47.07903 
L 100.800614 47.132489 
L 100.833494 47.029048 
L 100.965015 47.008795 
L 101.002593 47.025997 
L 100.983804 46.995666 
L 101.068353 46.9697 
L 101.152903 46.909821 
L 101.110628 46.907625 
L 101.1576 46.902759 
L 101.30791 46.801566 
L 101.336093 46.838699 
L 101.350185 46.875009 
L 101.420642 46.786894 
L 101.439431 46.794494 
L 101.542769 46.84515 
L 101.462917 46.774871 
L 101.561558 46.821042 
L 101.566255 46.802402 
L 101.655502 46.871171 
L 101.660199 46.863881 
L 101.801115 46.968005 
L 101.960819 46.797531 
L 102.082946 46.732897 
L 101.97491 46.807334 
L 102.087643 46.755948 
L 102.284925 46.593442 
L 102.120523 46.782117 
L 102.308411 46.63881 
L 102.444629 46.512668 
L 102.468115 46.543087 
L 102.599636 46.39769 
L 102.72646 46.447743 
L 102.623122 46.342113 
L 102.745249 46.384054 
L 102.890862 46.280595 
L 102.759341 46.399272 
L 102.895559 46.290065 
L 102.951925 46.359359 
L 103.008292 46.319557 
L 103.167996 46.310785 
L 103.182088 46.342088 
L 103.210271 46.344047 
L 103.238454 46.252075 
L 103.276031 46.279726 
L 103.308912 46.197033 
L 103.398158 46.115194 
L 103.426341 46.16118 
L 103.440433 46.201335 
L 103.506193 46.091598 
L 103.539074 46.117171 
L 103.62832 46.045845 
L 103.74575 46.099917 
L 103.647109 46.006125 
L 103.755144 46.064516 
L 103.891363 45.978347 
L 103.764539 46.080288 
L 103.905454 46.011027 
L 103.910152 46.02389 
L 103.947729 45.935063 
L 104.004095 45.9771 
L 104.07925 45.875731 
L 104.126222 45.947695 
L 104.548969 45.548761 
L 104.591244 45.460945 
L 104.675793 45.481233 
L 104.94823 45.410142 
L 105.009293 45.482107 
L 105.06566 45.439367 
L 105.150209 45.358197 
L 105.187786 45.403372 
L 105.727963 45.325105 
L 105.920548 45.032682 
L 106.047372 44.935826 
L 106.197682 44.830522 
L 106.06616 44.965884 
L 106.221168 44.863784 
L 106.352689 44.98355 
L 106.272837 44.835712 
L 106.362083 44.973051 
L 106.512393 44.841453 
L 106.549971 44.88619 
L 106.592245 44.795804 
L 106.606337 44.801425 
L 106.737858 44.70357 
L 106.742555 44.724746 
L 106.813013 44.638404 
L 106.845894 44.682377 
L 107.019689 44.610916 
L 107.024387 44.619557 
L 107.061964 44.508939 
L 107.104239 44.542441 
L 107.188788 44.430846 
L 107.226366 44.469764 
L 107.339098 44.430011 
L 107.343795 44.44507 
L 107.710176 44.342384 
L 107.841697 44.241824 
L 107.851092 44.249095 
L 107.959127 44.161187 
L 108.071859 43.930011 
L 108.109437 43.973137 
L 108.114134 43.990744 
L 108.179895 43.855995 
L 108.198683 43.878434 
L 108.536881 43.47325 
L 108.701282 43.197121 
L 108.715374 43.223847 
L 108.804621 43.019171 
L 109.001902 41.345605 
L 109.034783 31.661708 
L 109.091149 42.054236 
L 109.133424 45.573102 
L 109.208579 44.949165 
L 109.434044 41.149499 
L 109.452832 31.374155 
L 109.527987 42.42373 
L 109.556171 45.986242 
L 109.645417 45.107983 
L 109.800424 43.039853 
L 109.861488 40.912977 
L 109.880276 31.784022 
L 109.960129 44.728469 
L 109.978917 45.968965 
L 110.068164 45.062418 
L 110.27484 40.198404 
L 110.288932 32.040928 
L 110.373481 45.393871 
L 110.387573 45.949759 
L 110.476819 45.047763 
L 110.683495 40.378405 
L 110.697587 32.162081 
L 110.782136 45.457678 
L 110.800925 45.979284 
L 110.885474 45.110732 
L 111.063968 42.511678 
L 111.101545 40.148949 
L 111.115637 32.045111 
L 111.200186 45.595791 
L 111.218975 46.118847 
L 111.303524 45.298464 
L 111.533686 41.714329 
L 111.561869 31.999078 
L 111.632327 42.286019 
L 111.66051 46.260897 
L 111.749757 45.496496 
L 112.017497 41.486948 
L 112.040983 31.805517 
L 112.11144 41.814444 
L 112.139623 46.385206 
L 112.22887 45.74881 
L 112.548279 41.707578 
L 112.567067 34.712122 
L 112.576462 31.769228 
L 112.656314 45.706358 
L 112.675103 46.471782 
L 112.764349 45.886463 
L 112.994512 43.735337 
L 113.149519 40.564574 
L 113.168307 31.671254 
L 113.243462 45.083057 
L 113.276343 46.603949 
L 113.356195 46.080734 
L 113.379681 45.942018 
L 113.727273 43.006275 
L 113.727273 43.006275 
" style="fill:none;stroke:#000000;stroke-linecap:square;stroke-width:0.3;"/>
   </g>
   <g id="line2d_3">
    <path clip-path="url(#p9dbfcea99a)" d="M 12.272727 68.630647 
L 12.413643 68.70972 
L 12.545164 68.622844 
L 12.559256 68.648869 
L 12.634411 68.716491 
L 12.667291 68.652539 
L 12.841087 68.415725 
L 12.859876 68.43403 
L 13.310806 68.352882 
L 13.367172 68.281817 
L 13.418841 68.380243 
L 13.47051 68.373952 
L 13.493996 68.306869 
L 13.58794 68.291958 
L 13.555059 68.354621 
L 13.592637 68.323114 
L 13.606728 68.355165 
L 13.677186 68.220553 
L 13.695975 68.28661 
L 13.827496 68.188007 
L 13.860377 68.21308 
L 14.137511 68.093515 
L 14.259637 68.01041 
L 14.301912 68.050615 
L 14.362976 67.978929 
L 14.37237 68.00911 
L 14.70587 67.993554 
L 14.8233 67.944326 
L 14.903152 68.030276 
L 14.950124 67.967052 
L 15.039371 67.916301 
L 14.987701 67.979613 
L 15.062856 67.946265 
L 15.18968 67.975439 
L 15.208469 67.986108 
L 15.311807 67.889124 
L 15.42454 67.916438 
L 15.377568 67.845156 
L 15.429237 67.900796 
L 15.69228 67.522466 
L 15.701674 67.537191 
L 15.743949 67.5868 
L 15.720463 67.524737 
L 15.79092 67.487437 
L 15.903653 67.443193 
L 15.90835 67.460368 
L 16.086843 67.356176 
L 16.100935 67.377971 
L 16.194879 67.499346 
L 16.237153 67.4666 
L 16.354583 67.390426 
L 16.363977 67.416429 
L 16.382766 67.461755 
L 16.467315 67.390083 
L 16.547168 67.342537 
L 16.504893 67.444194 
L 16.580048 67.401045 
L 16.69278 67.391685 
L 16.617625 67.439873 
L 16.697478 67.402433 
L 16.852485 67.429846 
L 16.857182 67.420659 
L 17.021583 67.239623 
L 17.298718 67.181672 
L 17.430239 67.057556 
L 17.491302 67.104731 
L 17.439633 67.040222 
L 17.533577 67.016572 
L 17.641612 67.023978 
L 17.557063 67.06047 
L 17.646309 67.028976 
L 17.89526 67.068362 
L 18.031479 66.917913 
L 18.148908 67.002246 
L 18.209972 67.116971 
L 18.261641 67.024847 
L 18.28043 67.054637 
L 18.327402 66.92588 
L 18.501197 66.929626 
L 18.505895 66.948205 
L 18.510592 66.970468 
L 18.595141 66.85074 
L 18.703176 66.80648 
L 18.717268 66.834572 
L 18.952127 66.694231 
L 18.970916 66.718846 
L 19.003796 66.730123 
L 19.041374 66.635027 
L 19.144712 66.648988 
L 19.074254 66.676283 
L 19.149409 66.65954 
L 19.412452 66.529149 
L 19.473515 66.432033 
L 19.534579 66.478307 
L 19.652008 66.507961 
L 19.661403 66.481529 
L 19.727163 66.479248 
L 19.764741 66.513787 
L 19.807015 66.447716 
L 19.877473 66.52049 
L 20.037178 66.406908 
L 20.126424 66.550641 
L 20.164002 66.501207 
L 20.304917 66.547528 
L 20.342495 66.522447 
L 20.459924 66.613308 
L 20.722967 66.335721 
L 20.741756 66.38723 
L 20.915552 66.636652 
L 20.755847 66.381111 
L 20.943735 66.610792 
L 21.159805 66.360357 
L 21.272538 66.427373 
L 21.277235 66.416094 
L 21.310115 66.45074 
L 21.413453 66.388652 
L 21.418151 66.417905 
L 21.5027 66.293132 
L 21.512094 66.307531 
L 21.629524 66.306324 
L 21.638918 66.334491 
L 21.648313 66.370577 
L 21.695285 66.273024 
L 21.732862 66.290545 
L 21.887869 66.141108 
L 22.183792 66.190168 
L 22.202581 66.133572 
L 22.277736 66.202566 
L 22.296525 66.180328 
L 22.305919 66.157246 
L 22.357588 66.3213 
L 22.37168 66.290575 
L 22.381074 66.314137 
L 22.413954 66.198633 
L 22.456229 66.217769 
L 22.583053 66.101396 
L 22.592447 66.135324 
L 22.606539 66.078861 
L 22.700483 66.100727 
L 22.780335 65.954023 
L 22.850793 65.991227 
L 22.97292 66.05446 
L 22.991708 66.042738 
L 23.104441 65.976046 
L 23.109138 65.983321 
L 23.691589 65.918101 
L 23.799625 65.843694 
L 23.813716 65.859582 
L 23.992209 65.902171 
L 23.996906 65.886261 
L 24.142519 65.619419 
L 24.170702 65.684573 
L 24.344498 65.85365 
L 24.377379 65.784158 
L 24.47602 65.737044 
L 24.433745 65.805056 
L 24.490111 65.775981 
L 24.527689 65.858138 
L 24.607541 65.802321 
L 24.631027 65.846188 
L 24.790731 65.753245 
L 24.795428 65.778121 
L 24.870583 65.665376 
L 24.894069 65.72065 
L 25.044379 65.481236 
L 25.049076 65.482141 
L 25.204084 65.54243 
L 25.307422 65.541691 
L 25.265147 65.445791 
L 25.312119 65.523868 
L 25.415457 65.489892 
L 25.429549 65.511994 
L 25.532887 65.575543 
L 25.542281 65.531875 
L 25.617436 65.372349 
L 25.551675 65.545155 
L 25.697288 65.428592 
L 25.753654 65.384342 
L 25.805323 65.41569 
L 25.913359 65.431563 
L 25.922753 65.45456 
L 25.936845 65.481193 
L 26.012 65.347795 
L 26.082458 65.358402 
L 26.096549 65.419443 
L 26.101246 65.400361 
L 26.181098 65.447356 
L 26.115338 65.387841 
L 26.218676 65.402766 
L 26.458232 65.348353 
L 26.744761 65.11144 
L 26.838705 65.242441 
L 26.866888 65.198481 
L 27.007803 65.148288 
L 26.885677 65.215153 
L 27.017198 65.155304 
L 27.021895 65.16391 
L 27.092353 65.073722 
L 27.09705 65.073317 
L 27.5151 64.727555 
L 27.829811 63.932589 
L 27.886177 62.777124 
L 27.909663 50.885616 
L 27.99891 62.188813 
L 28.027093 65.728711 
L 28.11634 65.122648 
L 28.224375 64.349196 
L 28.323016 63.28185 
L 28.341805 61.316223 
L 28.355896 52.043559 
L 28.445143 65.675038 
L 28.463931 66.488689 
L 28.553178 65.708165 
L 28.797432 62.667921 
L 28.81622 51.750076 
L 28.90077 61.785135 
L 28.928953 66.958052 
L 29.018199 66.203074 
L 29.318819 61.806462 
L 29.332911 51.61068 
L 29.422158 62.993671 
L 29.445644 67.195581 
L 29.539587 66.46644 
L 29.877785 62.788292 
L 29.896573 51.49055 
L 29.98582 62.690018 
L 30.014003 67.356441 
L 30.10325 66.663843 
L 30.389778 64.419629 
L 30.488419 63.021086 
L 30.511905 51.443996 
L 30.596454 61.850218 
L 30.629335 67.458619 
L 30.713884 66.788912 
L 31.019201 64.555216 
L 31.066173 64.315086 
L 31.150722 63.368019 
L 31.169511 61.02696 
L 31.183603 51.430969 
L 31.272849 65.442992 
L 31.296335 67.461889 
L 31.385582 66.795628 
L 31.855301 63.436541 
L 31.878786 60.446053 
L 31.888181 51.40932 
L 31.982125 66.141191 
L 32.005611 67.495651 
L 32.094857 66.819764 
L 32.259259 65.609744 
L 32.480026 64.472862 
L 32.536393 64.22487 
L 32.630336 63.174013 
L 32.649125 57.889571 
L 32.65852 51.315679 
L 32.752463 66.891965 
L 32.771252 67.445015 
L 32.860499 66.767672 
L 33.132935 64.997711 
L 33.414767 63.340239 
L 33.433555 61.470039 
L 33.447647 51.289446 
L 33.536894 66.121563 
L 33.560379 67.458204 
L 33.649626 66.788356 
L 34.100556 64.399879 
L 34.105253 64.405109 
L 34.138133 64.281593 
L 34.26026 62.973397 
L 34.279049 53.111929 
L 34.283746 51.315858 
L 34.363598 62.162985 
L 34.396479 67.400768 
L 34.481028 66.770042 
L 34.809831 64.873693 
L 34.814528 64.875987 
L 35.101057 63.181016 
L 35.119846 58.735513 
L 35.12924 51.294304 
L 35.223184 66.909064 
L 35.24667 67.394183 
L 35.331219 66.728316 
L 35.838515 64.306916 
L 35.843212 64.312965 
L 35.885487 64.191807 
L 35.99822 63.177799 
L 36.017008 59.728527 
L 36.0311 51.370693 
L 36.120346 66.849179 
L 36.134438 67.330426 
L 36.228382 66.673758 
L 36.491424 65.049086 
L 36.500819 65.063134 
L 36.547791 64.857373 
L 36.773255 64.256268 
L 36.777953 64.258561 
L 36.796741 64.188762 
L 36.806136 64.187828 
L 36.947051 62.561095 
L 36.96584 51.383841 
L 37.045692 62.894747 
L 37.078573 67.272704 
L 37.163122 66.616283 
L 37.618749 64.444492 
L 37.881792 62.371525 
L 37.90058 51.311722 
L 37.980433 63.815458 
L 38.013313 67.246633 
L 38.097862 66.570788 
L 38.356208 65.013743 
L 38.670919 64.181181 
L 38.680313 64.193966 
L 38.774257 63.684575 
L 38.811835 62.678166 
L 38.835321 51.302197 
L 38.910476 62.345298 
L 38.938659 67.264983 
L 39.027905 66.623491 
L 39.713695 63.949767 
L 39.723089 63.957137 
L 39.751272 63.79639 
L 39.802941 62.710457 
L 39.826427 51.267577 
L 39.901582 62.303644 
L 39.934462 67.195725 
L 40.019012 66.563962 
L 40.253871 65.103355 
L 40.300843 64.935727 
L 40.465245 64.53957 
L 40.775259 63.97757 
L 40.855111 62.703226 
L 40.878597 51.253622 
L 40.953752 62.304809 
L 40.986632 67.156955 
L 41.071182 66.508259 
L 41.263766 65.29761 
L 41.287252 65.216521 
L 41.451654 64.625336 
L 41.456351 64.634003 
L 41.461048 64.642566 
L 41.512717 64.546938 
L 41.517415 64.552587 
L 41.700605 64.053997 
L 41.766365 63.564274 
L 41.799246 61.25128 
L 41.813337 51.2283 
L 41.902584 66.421651 
L 41.921373 67.261821 
L 42.010619 66.594482 
L 42.433366 64.637298 
L 42.438063 64.646193 
L 42.856113 63.476652 
L 42.884296 61.932497 
L 42.903085 51.25768 
L 42.982937 64.716199 
L 43.006423 67.129983 
L 43.095669 66.483258 
L 43.372803 64.936614 
L 43.584177 64.492224 
L 43.593571 64.504694 
L 43.649937 64.414761 
L 43.654635 64.41486 
L 43.861311 63.915197 
L 43.922374 63.204798 
L 43.941163 60.903322 
L 43.955255 51.232924 
L 44.044501 66.575612 
L 44.058593 67.128653 
L 44.152537 66.442855 
L 44.457854 64.828062 
L 44.462551 64.84396 
L 44.523614 64.67362 
L 44.650438 64.460082 
L 44.796051 64.356768 
L 44.800748 64.369662 
L 44.875903 64.270017 
L 45.087277 63.23245 
L 45.110763 57.964629 
L 45.120157 51.268972 
L 45.209404 66.37819 
L 45.228192 67.04294 
L 45.317439 66.36894 
L 45.397291 65.784345 
L 45.660334 64.750974 
L 45.665031 64.761406 
L 45.721397 64.632642 
L 45.871707 64.478794 
L 46.125355 64.134444 
L 46.130052 64.154259 
L 46.191116 63.942769 
L 46.223996 63.818328 
L 46.289757 61.784579 
L 46.308545 51.255214 
L 46.388398 64.926168 
L 46.416581 67.02727 
L 46.50113 66.34821 
L 46.693715 65.175801 
L 46.717201 65.431576 
L 46.848722 65.729098 
L 47.158736 66.797221 
L 47.741188 68.82614 
L 48.163934 69.551508 
L 48.314244 69.450472 
L 48.347125 69.490059 
L 48.483343 69.661744 
L 48.497435 69.655353 
L 48.63835 69.69953 
L 48.661836 69.654554 
L 48.741688 69.571819 
L 48.779266 69.617392 
L 48.929576 69.581934 
L 49.018822 69.597281 
L 48.957759 69.553295 
L 49.037611 69.573975 
L 49.108069 69.639729 
L 49.145646 69.604335 
L 49.253682 69.707277 
L 49.291259 69.684666 
L 49.432175 69.597568 
L 49.436872 69.599699 
L 49.770372 69.561637 
L 49.784464 69.534645 
L 49.831436 69.649593 
L 49.854922 69.624879 
L 50.042809 69.73503 
L 50.047506 69.728757 
L 50.197816 69.676914 
L 50.202514 69.697356 
L 50.287063 69.623479 
L 50.305852 69.65666 
L 50.423281 69.592915 
L 50.427979 69.598125 
L 50.644049 69.516566 
L 50.653444 69.535146 
L 50.766176 69.630791 
L 50.789662 69.588203 
L 50.850725 69.498752 
L 50.92588 69.544896 
L 51.090282 69.500993 
L 51.104374 69.574958 
L 51.109071 69.590363 
L 51.174831 69.504224 
L 51.198317 69.524228 
L 51.240592 69.517285 
L 51.278169 69.581101 
L 51.292261 69.581054 
L 51.301655 69.558406 
L 51.541212 69.634491 
L 51.635156 69.550386 
L 51.658642 69.581182 
L 51.733797 69.650559 
L 51.780768 69.618994 
L 51.841832 69.578457 
L 51.799557 69.658161 
L 51.888804 69.642077 
L 51.94517 69.668312 
L 51.982748 69.588008 
L 51.992142 69.606948 
L 51.996839 69.585982 
L 52.043811 69.659865 
L 52.09548 69.646789 
L 52.142452 69.507558 
L 52.236396 69.603756 
L 52.701417 69.481673 
L 52.715509 69.467652 
L 52.781269 69.580843 
L 52.800058 69.537551 
L 53.100678 69.665679 
L 53.110072 69.628196 
L 53.18053 69.70222 
L 53.208713 69.673078 
L 53.532819 69.579538 
L 53.537516 69.601877 
L 53.617369 69.589844 
L 53.5657 69.538978 
L 53.63146 69.562464 
L 53.654946 69.602751 
L 53.762981 69.465 
L 53.814651 69.414473 
L 53.889806 69.510071 
L 53.917989 69.53052 
L 54.002538 69.498632 
L 54.007235 69.517682 
L 54.077693 69.423333 
L 54.105876 69.470198 
L 54.181031 69.556816 
L 54.303158 69.633144 
L 54.307855 69.617998 
L 54.453468 69.641197 
L 54.575595 69.50737 
L 54.495743 69.669261 
L 54.589686 69.520816 
L 54.777574 69.495392 
L 54.782271 69.50708 
L 54.890306 69.557279 
L 54.810454 69.497678 
L 54.909095 69.544748 
L 55.050011 69.603404 
L 55.059405 69.571764 
L 55.073497 69.60608 
L 55.200321 69.476768 
L 55.70292 69.643752 
L 55.721708 69.568027 
L 55.815652 69.442588 
L 55.85323 69.477079 
L 55.994145 69.451539 
L 55.998843 69.461089 
L 56.008237 69.443033 
L 56.120969 69.498853 
L 56.351132 69.48588 
L 56.449773 69.436817 
L 56.463864 69.465011 
L 56.642357 69.409913 
L 56.726907 69.381099 
L 56.665843 69.43922 
L 56.750392 69.42028 
L 56.867822 69.457896 
L 56.872519 69.452195 
L 56.881914 69.463172 
L 56.985252 69.462429 
L 57.051012 69.439049 
L 57.069801 69.396152 
L 57.248294 69.310134 
L 57.252992 69.32901 
L 57.337541 69.418441 
L 57.365724 69.352047 
L 57.483154 69.297783 
L 57.487851 69.308153 
L 57.520731 69.2726 
L 57.563006 69.389734 
L 57.5724 69.427534 
L 57.609978 69.335468 
L 57.671041 69.389542 
L 57.732105 69.3107 
L 57.797865 69.330946 
L 57.887112 69.312502 
L 57.896506 69.260836 
L 58.131366 69.061823 
L 58.14076 69.071849 
L 58.342739 69.071875 
L 58.403802 69.011322 
L 58.455471 69.059988 
L 58.704422 68.974001 
L 58.478957 69.10228 
L 58.70912 68.9807 
L 58.770183 69.062934 
L 58.826549 69.014493 
L 59.005042 69.049199 
L 58.840641 68.996702 
L 59.00974 69.043593 
L 59.113078 68.926912 
L 59.141261 68.968004 
L 59.352634 68.815479 
L 59.409 68.769801 
L 59.423092 68.839098 
L 59.465367 68.818187 
L 59.507641 68.844724 
L 59.545219 68.755294 
L 59.564008 68.788818 
L 59.690832 68.654672 
L 59.714318 68.667979 
L 59.723712 68.693007 
L 59.775381 68.629006 
L 59.817656 68.625246 
L 59.958571 68.49044 
L 59.97736 68.498491 
L 60.076001 68.466544 
L 60.080698 68.443226 
L 60.240403 68.356486 
L 60.2451 68.378424 
L 60.353135 68.482983 
L 60.371924 68.446383 
L 60.587994 68.417481 
L 60.752396 68.513081 
L 60.76179 68.503192 
L 60.883917 68.464057 
L 61.015438 68.428723 
L 60.893312 68.469156 
L 61.020136 68.432307 
L 61.114079 68.395925 
L 61.057713 68.353525 
L 61.123474 68.374 
L 61.165748 68.317536 
L 61.217417 68.412778 
L 61.231509 68.38989 
L 61.583798 68.302583 
L 61.640164 68.256002 
L 61.677742 68.343475 
L 61.687136 68.339727 
L 61.851538 68.226058 
L 61.7482 68.397774 
L 61.870326 68.245937 
L 61.875024 68.251988 
L 61.917298 68.159708 
L 61.954876 68.188005 
L 62.142763 67.915537 
L 62.269587 68.012241 
L 62.372926 67.927708 
L 62.387017 67.952088 
L 62.391714 67.969603 
L 62.433989 67.879843 
L 62.485658 67.8944 
L 62.588996 67.842025 
L 62.495052 67.901644 
L 62.617179 67.878741 
L 62.7487 67.962425 
L 62.753398 67.960385 
L 62.790975 67.973958 
L 62.828553 67.859865 
L 62.945982 67.774282 
L 62.955377 67.793652 
L 62.960074 67.802609 
L 63.002349 67.719044 
L 63.04932 67.738022 
L 63.058715 67.718469 
L 63.091595 67.775424 
L 63.147961 67.779771 
L 63.180842 67.857457 
L 63.237208 67.763769 
L 63.260694 67.783011 
L 63.364032 67.723592 
L 63.387518 67.749862 
L 63.490856 67.757867 
L 63.43449 67.710027 
L 63.50025 67.750816 
L 63.683441 67.661511 
L 63.514342 67.771381 
L 63.692835 67.682623 
L 63.730413 67.740212 
L 63.763293 67.614856 
L 63.796173 67.632978 
L 63.894814 67.591652 
L 63.857237 67.672853 
L 63.927694 67.619386 
L 63.937089 67.632401 
L 64.016941 67.548196 
L 64.181343 67.533534 
L 64.317561 67.379778 
L 64.345744 67.452811 
L 64.416202 67.352493 
L 64.524237 67.285548 
L 64.543026 67.309026 
L 64.740308 67.189522 
L 64.773188 67.225986 
L 64.881223 67.230601 
L 64.810766 67.203655 
L 64.885921 67.215386 
L 65.059717 67.273593 
L 65.191238 67.292428 
L 65.078505 67.23157 
L 65.214724 67.230407 
L 65.242907 67.239174 
L 65.350942 67.149865 
L 65.656259 67.234005 
L 65.360337 67.129629 
L 65.660957 67.199131 
L 65.759597 67.143182 
L 65.783083 67.17275 
L 65.900513 67.195437 
L 65.999154 67.134837 
L 66.013246 67.206687 
L 66.017943 67.223075 
L 66.083703 67.072493 
L 66.093098 67.094128 
L 66.234013 67.048117 
L 66.252802 67.081975 
L 66.332654 66.99254 
L 66.337351 67.009491 
L 66.365535 67.021295 
L 66.501753 66.849114 
L 66.567514 66.783551 
L 66.619183 66.849307 
L 66.628577 66.866341 
L 66.675549 66.75663 
L 66.689641 66.769999 
L 66.750704 66.730817 
L 66.797676 66.792836 
L 66.95738 66.709511 
L 66.99026 66.693514 
L 67.018444 66.762176 
L 67.051324 66.766419 
L 67.126479 66.695494 
L 67.182845 66.61786 
L 67.239211 66.665946 
L 67.243909 66.671364 
L 67.29088 66.561402 
L 67.300275 66.572509 
L 67.572712 66.349581 
L 67.577409 66.356791 
L 67.600895 66.405169 
L 67.685444 66.348027 
L 67.760599 66.310108 
L 67.769994 66.270045 
L 67.901515 66.201656 
L 67.779388 66.276896 
L 67.906212 66.219635 
L 67.957881 66.307125 
L 68.023642 66.265379 
L 68.197438 66.34646 
L 68.202135 66.335957 
L 68.357142 66.296823 
L 68.4276 66.396822 
L 68.479269 66.342935 
L 68.634276 66.272384 
L 68.49336 66.361742 
L 68.648368 66.317852 
L 68.737614 66.360415 
L 68.681248 66.302847 
L 68.7611 66.33467 
L 68.869135 66.357073 
L 68.79398 66.295056 
L 68.873833 66.346792 
L 68.906713 66.272434 
L 68.963079 66.414131 
L 69.103995 66.338727 
L 69.132178 66.387968 
L 69.160361 66.413699 
L 69.207333 66.317201 
L 69.221424 66.329158 
L 69.357643 66.15361 
L 69.517347 66.2193 
L 69.522044 66.20413 
L 69.540833 66.200929 
L 69.578411 66.290359 
L 69.597199 66.275743 
L 69.63008 66.321134 
L 69.677052 66.240162 
L 69.705235 66.271486 
L 69.756904 66.195602 
L 69.832059 66.241235 
L 69.940094 66.292548 
L 69.949488 66.254923 
L 70.104496 66.192301 
L 70.278292 66.048778 
L 70.287686 66.072662 
L 70.41451 66.092055 
L 70.419207 66.072212 
L 70.569517 65.970977 
L 70.583609 65.980442 
L 70.668158 66.077595 
L 70.724524 65.9954 
L 70.996961 65.909696 
L 70.733919 66.008663 
L 71.001658 65.916935 
L 71.04863 65.937345 
L 71.062722 65.870655 
L 71.104996 65.889198 
L 71.264701 65.697139 
L 71.396222 65.706034 
L 71.405616 65.666815 
L 71.429102 65.615549 
L 71.518349 65.660463 
L 71.64987 65.694185 
L 71.527743 65.651385 
L 71.654567 65.674892 
L 71.659265 65.653086 
L 71.748511 65.762021 
L 71.865941 65.77102 
L 71.781391 65.804226 
L 71.870638 65.77945 
L 71.936399 65.768036 
L 71.88473 65.80772 
L 71.969279 65.836134 
L 72.002159 65.912368 
L 72.077314 65.830211 
L 72.232321 65.760062 
L 72.237019 65.769393 
L 72.246413 65.784884 
L 72.274596 65.667717 
L 72.316871 65.696462 
L 72.453089 65.521475 
L 72.481272 65.537381 
L 72.687949 65.52661 
L 72.800681 65.469937 
L 72.810075 65.481769 
L 72.871139 65.574334 
L 72.913413 65.515627 
L 73.040238 65.574738 
L 73.044935 65.55038 
L 73.18585 65.42416 
L 73.242217 65.362828 
L 73.30328 65.421464 
L 73.547534 65.296935 
L 73.556928 65.31352 
L 73.683752 65.345314 
L 73.580414 65.28907 
L 73.688449 65.336531 
L 73.824668 65.252175 
L 73.702541 65.358277 
L 73.838759 65.281019 
L 74.078316 65.099637 
L 74.162865 65.003017 
L 74.191048 65.077779 
L 74.247415 65.126245 
L 74.299084 65.069956 
L 74.421211 65.056272 
L 74.425908 65.067734 
L 74.47288 65.108557 
L 74.515154 65.018941 
L 74.679556 64.834596 
L 74.759408 64.865066 
L 74.721831 64.804119 
L 74.782894 64.794415 
L 74.900324 64.550212 
L 75.121091 61.86401 
L 75.13988 50.89881 
L 75.229127 62.39505 
L 75.25731 65.741191 
L 75.346556 65.142694 
L 75.572021 61.932064 
L 75.586113 51.993779 
L 75.67536 65.181286 
L 75.694148 66.477902 
L 75.788092 65.670551 
L 76.027649 62.919964 
L 76.051135 51.839605 
L 76.135684 62.380718 
L 76.163867 66.934482 
L 76.253114 66.15863 
L 76.539642 62.805416 
L 76.558431 51.598589 
L 76.647677 62.384438 
L 76.67586 67.207651 
L 76.765107 66.463911 
L 77.103304 62.439492 
L 77.117396 51.596125 
L 77.206643 62.009956 
L 77.234826 67.356668 
L 77.324072 66.638095 
L 77.479079 65.354165 
L 77.709242 62.886332 
L 77.72803 51.471931 
L 77.817277 62.679529 
L 77.84546 67.458116 
L 77.934707 66.746657 
L 78.033348 65.917361 
L 78.282298 64.200079 
L 78.362151 62.44832 
L 78.380939 51.443871 
L 78.465489 62.695691 
L 78.498369 67.484394 
L 78.582918 66.838072 
L 78.972785 64.302797 
L 79.066729 63.344516 
L 79.085517 61.019911 
L 79.099609 51.3899 
L 79.188856 66.062327 
L 79.212341 67.459944 
L 79.301588 66.777315 
L 79.588116 64.854657 
L 79.804187 63.177837 
L 79.822976 56.416003 
L 79.83237 51.336522 
L 79.921617 65.976206 
L 79.945103 67.509 
L 80.034349 66.8214 
L 80.287997 65.122784 
L 80.593315 62.796257 
L 80.6168 51.366122 
L 80.696653 62.467246 
L 80.729533 67.495724 
L 80.814082 66.874626 
L 81.203949 64.662412 
L 81.208646 64.669864 
L 81.405928 63.881981 
L 81.466991 62.211115 
L 81.48578 51.334286 
L 81.565632 63.571879 
L 81.593815 67.381885 
L 81.683062 66.726525 
L 81.950802 65.037451 
L 81.978985 64.939281 
L 82.307788 63.19215 
L 82.326577 58.728942 
L 82.335971 51.301251 
L 82.429915 66.907808 
L 82.448703 67.377648 
L 82.533253 66.749196 
L 83.064035 64.192594 
L 83.068732 64.194369 
L 83.087521 64.093673 
L 83.153282 63.593493 
L 83.186162 61.675158 
L 83.200253 51.273943 
L 83.2895 66.221783 
L 83.312986 67.385057 
L 83.402232 66.709102 
L 83.843768 64.545575 
L 84.092719 63.759949 
L 84.139691 62.333387 
L 84.15848 51.282913 
L 84.238332 63.724439 
L 84.261818 67.248409 
L 84.355761 66.600486 
L 84.834875 64.382666 
L 84.839572 64.385397 
L 84.85836 64.302652 
L 84.863058 64.30682 
L 85.00867 62.675169 
L 85.032156 51.337133 
L 85.107311 61.999382 
L 85.140192 67.361071 
L 85.229438 66.704663 
L 85.497178 65.066763 
L 85.525361 65.038988 
L 85.539453 64.972496 
L 85.54415 64.971558 
L 85.661579 64.610046 
L 85.957502 62.402224 
L 85.976291 51.324127 
L 86.056143 63.757841 
L 86.084326 67.236591 
L 86.173573 66.584863 
L 86.394341 65.219716 
L 86.44601 65.024119 
L 86.657383 64.523783 
L 86.66208 64.528425 
L 86.666778 64.540944 
L 86.723144 64.403347 
L 86.948609 63.248608 
L 86.967397 61.237812 
L 86.981489 51.255884 
L 87.070736 66.534331 
L 87.089524 67.216327 
L 87.178771 66.53543 
L 87.953807 62.934705 
L 87.972596 53.950292 
L 87.98199 51.34807 
L 88.061842 65.111068 
L 88.085328 67.174693 
L 88.174575 66.497901 
L 88.517469 64.766279 
L 88.606716 64.475253 
L 88.935519 63.542575 
L 88.963702 62.230902 
L 88.982491 51.25454 
L 89.062343 64.009859 
L 89.085829 67.187045 
L 89.179773 66.510396 
L 89.438118 65.016324 
L 89.442815 65.021718 
L 89.475695 64.902404 
L 89.480393 64.905658 
L 89.762224 64.176425 
L 89.921928 63.563939 
L 89.954809 62.363204 
L 89.973597 51.327672 
L 90.053449 63.927005 
L 90.076935 67.148088 
L 90.170879 66.483261 
L 90.504379 64.778102 
L 91.035162 63.394178 
L 91.063345 60.58239 
L 91.077436 51.275456 
L 91.166683 66.667862 
L 91.180774 67.068108 
L 91.270021 66.427755 
L 91.50488 65.081153 
L 91.73974 64.593107 
L 91.749134 64.840215 
L 91.941719 66.749295 
L 92.19067 67.723979 
L 92.195367 67.712853 
L 92.237641 67.881618 
L 92.444318 68.628196 
L 93.054952 69.592119 
L 93.059649 69.556227 
L 93.097227 69.527585 
L 93.148896 69.611205 
L 93.228748 69.705244 
L 93.294509 69.651589 
L 93.332086 69.728762 
L 93.477699 69.576947 
L 93.599826 69.723026 
L 93.628009 69.671482 
L 93.736044 69.617395 
L 93.745439 69.647152 
L 93.848777 69.697472 
L 93.862868 69.677763 
L 93.891051 69.689199 
L 93.980298 69.655824 
L 93.989692 69.677582 
L 94.017875 69.557023 
L 94.074242 69.57607 
L 94.196369 69.631202 
L 94.201066 69.620374 
L 95.431729 69.5078 
L 95.497489 69.470038 
L 95.441123 69.524603 
L 95.553856 69.502195 
L 95.699468 69.568223 
L 95.71356 69.549382 
L 95.765229 69.527985 
L 95.812201 69.603953 
L 95.953117 69.701342 
L 95.971905 69.68013 
L 96.277222 69.643277 
L 96.338286 69.686847 
L 96.441624 69.549365 
L 96.559054 69.586706 
L 96.58254 69.596699 
L 96.671786 69.566523 
L 96.76573 69.601126 
L 96.784519 69.581605 
L 96.845582 69.54863 
L 96.793913 69.588597 
L 96.897251 69.590967 
L 96.995892 69.577868 
L 97.009984 69.556675 
L 97.047561 69.515523 
L 97.028772 69.578391 
L 97.113322 69.587611 
L 97.188477 69.616814 
L 97.21666 69.547718 
L 97.235449 69.518317 
L 97.273026 69.589518 
L 97.315301 69.591197 
L 97.413942 69.584537 
L 97.381061 69.528188 
L 97.418639 69.573504 
L 97.531371 69.531551 
L 97.536069 69.538789 
L 97.606526 69.579894 
L 97.653498 69.510111 
L 97.747442 69.552548 
L 97.756836 69.578927 
L 97.761534 69.589598 
L 97.8179 69.501585 
L 97.841386 69.506347 
L 97.963513 69.476788 
L 97.977604 69.507826 
L 98.038668 69.544042 
L 98.090337 69.498563 
L 98.113823 69.474793 
L 98.160794 69.566014 
L 98.235949 69.622082 
L 98.26883 69.561811 
L 98.287619 69.591428 
L 98.513084 69.523704 
L 98.583541 69.592643 
L 98.639908 69.550764 
L 98.658696 69.597525 
L 98.733851 69.506028 
L 98.837189 69.499298 
L 98.794915 69.563794 
L 98.846584 69.51438 
L 98.982802 69.490826 
L 98.87007 69.539789 
L 98.992197 69.504279 
L 99.02038 69.55829 
L 99.067352 69.468211 
L 99.095535 69.464789 
L 99.222359 69.456129 
L 99.227056 69.43721 
L 99.274028 69.581618 
L 99.302211 69.583671 
L 99.372669 69.572698 
L 99.396155 69.523737 
L 99.457218 69.450993 
L 99.50419 69.520767 
L 99.626317 69.5776 
L 99.532373 69.501292 
L 99.631014 69.564032 
L 99.659197 69.492345 
L 99.743747 69.52406 
L 99.823599 69.574596 
L 99.856479 69.509174 
L 99.879965 69.453225 
L 99.973909 69.492539 
L 100.119522 69.608479 
L 100.128916 69.588517 
L 100.349684 69.46305 
L 100.415444 69.510109 
L 100.471811 69.454253 
L 100.561057 69.366348 
L 100.58924 69.319958 
L 100.659698 69.397294 
L 100.711367 69.455341 
L 100.767733 69.391295 
L 100.899255 69.334288 
L 100.903952 69.341422 
L 101.016684 69.344204 
L 100.936832 69.270379 
L 101.021381 69.335511 
L 101.143508 69.323782 
L 101.270332 69.379326 
L 101.279727 69.365456 
L 101.664896 69.23403 
L 101.669593 69.270899 
L 101.730657 69.301184 
L 101.768234 69.217415 
L 101.796417 69.162592 
L 101.848086 69.277817 
L 101.87627 69.236963 
L 101.984305 69.296186 
L 102.007791 69.28814 
L 102.139312 69.22089 
L 102.181587 69.320393 
L 102.261439 69.289655 
L 102.355383 69.226288 
L 102.388263 69.240636 
L 102.39296 69.249069 
L 102.421143 69.153625 
L 102.463418 69.153877 
L 102.966017 68.967032 
L 102.970714 68.980364 
L 103.055264 68.958524 
L 103.017686 68.918724 
L 103.069355 68.930455 
L 103.074052 68.893238 
L 103.130418 68.987909 
L 103.17739 68.955986 
L 103.276031 68.88285 
L 103.304214 68.894916 
L 103.435736 68.880252 
L 103.44513 68.833517 
L 103.506193 68.790279 
L 103.557863 68.803045 
L 103.614229 68.825236 
L 103.651806 68.768099 
L 103.769236 68.682048 
L 103.783328 68.711685 
L 103.853785 68.645567 
L 103.881968 68.676477 
L 103.905454 68.697839 
L 103.938335 68.624784 
L 103.990004 68.643036 
L 104.093342 68.589647 
L 104.107433 68.634901 
L 104.140314 68.658273 
L 104.168497 68.559761 
L 104.182588 68.549924 
L 104.328201 68.47385 
L 104.191983 68.564792 
L 104.337596 68.48529 
L 104.365779 68.526121 
L 104.426842 68.413263 
L 104.445631 68.466331 
L 104.586547 68.526374 
L 104.4973 68.409682 
L 104.595941 68.514221 
L 104.666399 68.554159 
L 104.718068 68.454923 
L 104.76504 68.512727 
L 104.826103 68.455206 
L 104.863681 68.491243 
L 104.971716 68.416018 
L 105.112631 68.482493 
L 104.995202 68.3991 
L 105.122026 68.461153 
L 105.253547 68.328587 
L 105.140815 68.468244 
L 105.267639 68.342016 
L 105.328702 68.386761 
L 105.385068 68.336263 
L 105.535378 68.316929 
L 105.652808 68.237585 
L 105.657505 68.24953 
L 105.6669 68.272285 
L 105.704477 68.215648 
L 105.756146 68.206925 
L 105.934639 68.059463 
L 105.939336 68.084267 
L 106.052069 68.223949 
L 106.06616 68.221472 
L 106.164801 68.135797 
L 106.357386 67.949945 
L 106.390266 68.002409 
L 106.474816 67.974545 
L 106.568759 67.947068 
L 106.573457 67.917495 
L 106.686189 67.803855 
L 106.704978 67.832419 
L 106.766041 67.76458 
L 106.822408 67.863974 
L 106.949232 67.836934 
L 107.043175 67.810825 
L 106.96802 67.880199 
L 107.057267 67.846428 
L 107.071359 67.918384 
L 107.165302 67.85054 
L 107.282732 67.818201 
L 107.310915 67.907417 
L 107.395464 67.842328 
L 107.423648 67.908445 
L 107.508197 67.840112 
L 107.625627 67.805695 
L 107.724268 67.837572 
L 107.644415 67.795469 
L 107.743056 67.818658 
L 107.902761 67.538592 
L 107.916852 67.549718 
L 107.930944 67.486544 
L 107.963824 67.462753 
L 108.062465 67.44731 
L 108.029585 67.495914 
L 108.076557 67.471449 
L 108.250352 67.446842 
L 108.25505 67.435747 
L 108.447634 67.331647 
L 108.452332 67.342737 
L 108.55567 67.40786 
L 108.58855 67.330775 
L 108.612036 67.306548 
L 108.654311 67.387565 
L 108.687191 67.389831 
L 108.818712 67.474363 
L 108.846895 67.413737 
L 108.973719 67.266071 
L 108.978417 67.275275 
L 109.03948 67.393234 
L 109.100543 67.275856 
L 109.246156 67.140907 
L 109.264945 67.195084 
L 109.3401 67.224343 
L 109.368283 67.148076 
L 109.391769 67.126315 
L 109.452832 67.217026 
L 109.471621 67.179606 
L 109.650114 67.180801 
L 109.654811 67.168594 
L 109.659509 67.140716 
L 109.739361 67.232434 
L 109.762847 67.193221 
L 109.767544 67.209997 
L 109.819213 67.104542 
L 109.852093 67.119911 
L 109.964826 67.058695 
L 109.983615 67.103722 
L 110.35939 66.982971 
L 110.448636 66.980849 
L 110.382875 66.952826 
L 110.45803 66.958026 
L 110.495608 66.867542 
L 110.556671 67.006539 
L 110.622432 66.935431 
L 110.580157 66.954994 
L 110.627129 66.925098 
L 110.735165 66.901182 
L 110.655312 66.966879 
L 110.744559 66.914813 
L 110.8432 66.947764 
L 110.782136 66.891575 
L 110.857291 66.919956 
L 110.988813 66.818805 
L 110.99351 66.824789 
L 111.031087 66.713604 
L 111.054573 66.742445 
L 111.063968 66.714682 
L 111.148517 66.802772 
L 111.162609 66.757599 
L 111.256552 66.808922 
L 111.280038 66.722682 
L 111.453834 66.736416 
L 111.289433 66.702111 
L 111.458531 66.730533 
L 111.557172 66.702487 
L 111.47732 66.767213 
L 111.590053 66.750284 
L 111.599447 66.763135 
L 111.665208 66.652553 
L 111.702785 66.564283 
L 111.74506 66.502995 
L 111.81082 66.5557 
L 111.839003 66.609081 
L 111.900067 66.507649 
L 111.914158 66.516383 
L 112.026891 66.5576 
L 112.031588 66.587656 
L 112.036285 66.599354 
L 112.073863 66.489653 
L 112.106743 66.494841 
L 112.120835 66.461672 
L 112.19599 66.539687 
L 112.200687 66.529849 
L 112.26175 66.581331 
L 112.242962 66.508312 
L 112.304025 66.499854 
L 112.350997 66.46086 
L 112.374483 66.540657 
L 112.416758 66.500016 
L 112.567067 66.368056 
L 112.571765 66.400077 
L 112.6798 66.484075 
L 112.689194 66.468223 
L 112.834807 66.430225 
L 112.726772 66.497621 
L 112.839504 66.439081 
L 113.459533 66.180656 
L 113.468927 66.226837 
L 113.539385 66.289234 
L 113.58166 66.227213 
L 113.689695 66.184265 
L 113.609843 66.261358 
L 113.703787 66.209608 
L 113.717878 66.256281 
L 113.727273 66.244856 
" style="fill:none;stroke:#000000;stroke-linecap:square;stroke-width:0.3;"/>
   </g>
  </g>
 </g>
 <defs>
  <clipPath id="p9dbfcea99a">
   <rect height="63.756" width="111.6" x="7.2" y="7.2"/>
  </clipPath>
 </defs>
</svg>
