<?xml version="1.0" encoding="utf-8" standalone="no"?>
<!DOCTYPE svg PUBLIC "-//W3C//DTD SVG 1.1//EN"
  "http://www.w3.org/Graphics/SVG/1.1/DTD/svg11.dtd">
<!-- Created with matplotlib (https://matplotlib.org/) -->
<svg height="73.34pt" version="1.1" viewBox="0 0 419.66 73.34" width="419.66pt" xmlns="http://www.w3.org/2000/svg" xmlns:xlink="http://www.w3.org/1999/xlink">
 <metadata>
  <rdf:RDF xmlns:cc="http://creativecommons.org/ns#" xmlns:dc="http://purl.org/dc/elements/1.1/" xmlns:rdf="http://www.w3.org/1999/02/22-rdf-syntax-ns#">
   <cc:Work>
    <dc:type rdf:resource="http://purl.org/dc/dcmitype/StillImage"/>
    <dc:date>2020-12-21T19:38:06.105592</dc:date>
    <dc:format>image/svg+xml</dc:format>
    <dc:creator>
     <cc:Agent>
      <dc:title>Matplotlib v3.3.2, https://matplotlib.org/</dc:title>
     </cc:Agent>
    </dc:creator>
   </cc:Work>
  </rdf:RDF>
 </metadata>
 <defs>
  <style type="text/css">*{stroke-linecap:butt;stroke-linejoin:round;}</style>
 </defs>
 <g id="figure_1">
  <g id="patch_1">
   <path d="M 0 73.34 
L 419.66 73.34 
L 419.66 0 
L 0 0 
z
" style="fill:none;"/>
  </g>
  <g id="axes_1">
   <g id="patch_2">
    <path d="M 10.7 62.64 
L 59.695122 62.64 
L 59.695122 7.2 
L 10.7 7.2 
z
" style="fill:none;"/>
   </g>
   <g id="matplotlib.axis_1"/>
   <g id="matplotlib.axis_2"/>
   <g id="line2d_1">
    <path clip-path="url(#p8a9c381c94)" d="M 12.927051 53.890787 
L 14.462948 58.421124 
L 15.998845 55.589663 
L 17.534743 52.758202 
L 19.07064 55.023371 
L 20.606537 54.457079 
L 22.142434 56.155955 
L 23.678332 58.421124 
L 25.214229 55.589663 
L 26.750126 56.155955 
L 28.286023 57.854831 
L 29.821921 53.890787 
L 31.357818 55.589663 
L 32.893715 51.625618 
L 34.429612 53.890787 
L 35.96551 53.324494 
L 37.501407 51.059326 
L 39.037304 50.493034 
L 40.573201 51.059326 
L 42.109099 44.26382 
L 43.644996 44.830112 
L 45.180893 32.371685 
L 46.71679 29.540225 
L 48.252688 15.949213 
L 49.788585 9.72 
L 51.324482 10.852584 
L 52.860379 23.311011 
L 54.396276 34.070562 
L 55.932174 40.866067 
L 57.468071 57.854831 
" style="fill:none;stroke:#1f77b4;stroke-linecap:square;stroke-width:1.5;"/>
   </g>
   <g id="line2d_2">
    <path clip-path="url(#p8a9c381c94)" d="M 12.927051 32.937978 
L 14.462948 44.26382 
L 15.998845 50.493034 
L 17.534743 43.697528 
L 19.07064 40.299775 
L 20.606537 43.697528 
L 22.142434 46.528989 
L 23.678332 48.227865 
L 25.214229 48.227865 
L 26.750126 49.926742 
L 28.286023 50.493034 
L 29.821921 39.167191 
L 31.357818 45.396404 
L 32.893715 40.866067 
L 34.429612 43.697528 
L 35.96551 40.866067 
L 37.501407 40.866067 
L 39.037304 41.43236 
L 40.573201 38.034607 
L 42.109099 42.564944 
L 43.644996 40.866067 
L 45.180893 38.600899 
L 46.71679 45.962697 
L 48.252688 48.227865 
L 49.788585 47.095281 
L 51.324482 52.758202 
L 52.860379 56.155955 
L 54.396276 58.987416 
L 55.932174 58.421124 
L 57.468071 60.12 
" style="fill:none;stroke:#ff0000;stroke-linecap:square;stroke-width:1.5;"/>
   </g>
   <g id="patch_3">
    <path d="M 10.7 62.64 
L 10.7 7.2 
" style="fill:none;stroke:#000000;stroke-linecap:square;stroke-linejoin:miter;stroke-width:1.5;"/>
   </g>
   <g id="patch_4">
    <path d="M 10.7 62.64 
L 59.695122 62.64 
" style="fill:none;stroke:#000000;stroke-linecap:square;stroke-linejoin:miter;stroke-width:1.5;"/>
   </g>
  </g>
  <g id="axes_2">
   <g id="patch_5">
    <path d="M 69.494146 62.64 
L 118.489268 62.64 
L 118.489268 7.2 
L 69.494146 7.2 
z
" style="fill:none;"/>
   </g>
   <g id="matplotlib.axis_3"/>
   <g id="matplotlib.axis_4"/>
   <g id="line2d_3">
    <path clip-path="url(#pd54396aa98)" d="M 71.721197 52.180274 
L 73.257095 52.525479 
L 74.792992 54.596712 
L 76.328889 50.799452 
L 77.864786 53.561096 
L 79.400684 53.906301 
L 80.936581 51.835068 
L 82.472478 52.180274 
L 84.008375 50.799452 
L 85.544272 52.870685 
L 87.08017 51.489863 
L 88.616067 54.596712 
L 90.151964 49.763836 
L 91.687861 53.561096 
L 93.223759 53.906301 
L 94.759656 52.525479 
L 96.295553 52.180274 
L 97.83145 48.728219 
L 99.367348 54.251507 
L 100.903245 47.347397 
L 102.439142 48.728219 
L 103.975039 46.656986 
L 105.510937 39.062466 
L 107.046834 39.752877 
L 108.582731 36.991233 
L 110.118628 35.955616 
L 111.654526 47.692603 
L 113.190423 50.109041 
L 114.72632 55.632329 
L 116.262217 59.084384 
" style="fill:none;stroke:#1f77b4;stroke-linecap:square;stroke-width:1.5;"/>
   </g>
   <g id="line2d_4">
    <path clip-path="url(#pd54396aa98)" d="M 71.721197 58.048767 
L 73.257095 57.703562 
L 74.792992 59.084384 
L 76.328889 60.12 
L 77.864786 58.393973 
L 79.400684 60.12 
L 80.936581 59.774795 
L 82.472478 58.739178 
L 84.008375 58.739178 
L 85.544272 60.12 
L 87.08017 59.774795 
L 88.616067 59.084384 
L 90.151964 59.429589 
L 91.687861 59.774795 
L 93.223759 59.774795 
L 94.759656 58.739178 
L 96.295553 58.739178 
L 97.83145 58.739178 
L 99.367348 57.013151 
L 100.903245 54.596712 
L 102.439142 47.692603 
L 103.975039 40.098082 
L 105.510937 35.265205 
L 107.046834 19.040548 
L 108.582731 11.791233 
L 110.118628 9.72 
L 111.654526 20.42137 
L 113.190423 34.574795 
L 114.72632 49.073425 
L 116.262217 59.084384 
" style="fill:none;stroke:#ff0000;stroke-linecap:square;stroke-width:1.5;"/>
   </g>
   <g id="patch_6">
    <path d="M 69.494146 62.64 
L 69.494146 7.2 
" style="fill:none;stroke:#000000;stroke-linecap:square;stroke-linejoin:miter;stroke-width:1.5;"/>
   </g>
   <g id="patch_7">
    <path d="M 69.494146 62.64 
L 118.489268 62.64 
" style="fill:none;stroke:#000000;stroke-linecap:square;stroke-linejoin:miter;stroke-width:1.5;"/>
   </g>
  </g>
  <g id="axes_3">
   <g id="patch_8">
    <path d="M 128.288293 62.64 
L 177.283415 62.64 
L 177.283415 7.2 
L 128.288293 7.2 
z
" style="fill:none;"/>
   </g>
   <g id="matplotlib.axis_5"/>
   <g id="matplotlib.axis_6"/>
   <g id="line2d_5">
    <path clip-path="url(#p0b002bed46)" d="M 130.515344 50.04 
L 132.051241 48.665455 
L 133.587138 53.247273 
L 135.123035 48.665455 
L 136.658933 51.414545 
L 138.19483 50.956364 
L 139.730727 50.956364 
L 141.266624 46.832727 
L 142.802522 48.665455 
L 144.338419 49.123636 
L 145.874316 49.581818 
L 147.410213 50.498182 
L 148.946111 52.330909 
L 150.482008 46.374545 
L 152.017905 48.207273 
L 153.553802 47.749091 
L 155.0897 46.832727 
L 156.625597 49.581818 
L 158.161494 47.749091 
L 159.697391 51.414545 
L 161.233288 48.207273 
L 162.769186 43.625455 
L 164.305083 46.374545 
L 165.84098 49.581818 
L 167.376877 45 
L 168.912775 46.832727 
L 170.448672 50.04 
L 171.984569 52.789091 
L 173.520466 55.996364 
L 175.056364 60.12 
" style="fill:none;stroke:#1f77b4;stroke-linecap:square;stroke-width:1.5;"/>
   </g>
   <g id="line2d_6">
    <path clip-path="url(#p0b002bed46)" d="M 130.515344 44.541818 
L 132.051241 55.538182 
L 133.587138 53.247273 
L 135.123035 55.996364 
L 136.658933 57.370909 
L 138.19483 56.454545 
L 139.730727 58.745455 
L 141.266624 56.912727 
L 142.802522 56.454545 
L 144.338419 55.996364 
L 145.874316 58.745455 
L 147.410213 57.829091 
L 148.946111 59.203636 
L 150.482008 57.829091 
L 152.017905 59.203636 
L 153.553802 55.996364 
L 155.0897 57.829091 
L 156.625597 55.08 
L 158.161494 54.163636 
L 159.697391 55.538182 
L 161.233288 49.581818 
L 162.769186 49.581818 
L 164.305083 50.498182 
L 165.84098 50.04 
L 167.376877 45.458182 
L 168.912775 39.501818 
L 170.448672 27.589091 
L 171.984569 15.218182 
L 173.520466 9.72 
L 175.056364 27.589091 
" style="fill:none;stroke:#ff0000;stroke-linecap:square;stroke-width:1.5;"/>
   </g>
   <g id="patch_9">
    <path d="M 128.288293 62.64 
L 128.288293 7.2 
" style="fill:none;stroke:#000000;stroke-linecap:square;stroke-linejoin:miter;stroke-width:1.5;"/>
   </g>
   <g id="patch_10">
    <path d="M 128.288293 62.64 
L 177.283415 62.64 
" style="fill:none;stroke:#000000;stroke-linecap:square;stroke-linejoin:miter;stroke-width:1.5;"/>
   </g>
  </g>
  <g id="axes_4">
   <g id="patch_11">
    <path d="M 187.082439 62.64 
L 236.077561 62.64 
L 236.077561 7.2 
L 187.082439 7.2 
z
" style="fill:none;"/>
   </g>
   <g id="matplotlib.axis_7"/>
   <g id="matplotlib.axis_8"/>
   <g id="line2d_7">
    <path clip-path="url(#pa1a7c51308)" d="M 189.30949 59.803019 
L 190.845387 59.486038 
L 192.381285 59.486038 
L 193.917182 60.12 
L 195.453079 59.169057 
L 196.988976 59.803019 
L 198.524873 59.486038 
L 200.060771 59.169057 
L 201.596668 59.803019 
L 203.132565 60.12 
L 204.668462 58.852075 
L 206.20436 59.486038 
L 207.740257 59.486038 
L 209.276154 58.535094 
L 210.812051 58.535094 
L 212.347949 58.852075 
L 213.883846 58.852075 
L 215.419743 57.901132 
L 216.95564 55.365283 
L 218.491538 54.731321 
L 220.027435 54.097358 
L 221.563332 44.587925 
L 223.099229 37.297358 
L 224.635127 36.029434 
L 226.171024 25.252075 
L 227.706921 18.912453 
L 229.242818 9.72 
L 230.778715 22.399245 
L 232.314613 39.199245 
L 233.85051 53.780377 
" style="fill:none;stroke:#1f77b4;stroke-linecap:square;stroke-width:1.5;"/>
   </g>
   <g id="line2d_8">
    <path clip-path="url(#pa1a7c51308)" d="M 189.30949 51.244528 
L 190.845387 49.659623 
L 192.381285 54.731321 
L 193.917182 52.829434 
L 195.453079 54.41434 
L 196.988976 55.048302 
L 198.524873 55.682264 
L 200.060771 56.633208 
L 201.596668 57.26717 
L 203.132565 56.950189 
L 204.668462 55.999245 
L 206.20436 56.950189 
L 207.740257 56.316226 
L 209.276154 58.535094 
L 210.812051 56.316226 
L 212.347949 56.316226 
L 213.883846 57.901132 
L 215.419743 56.633208 
L 216.95564 55.999245 
L 218.491538 53.146415 
L 220.027435 53.780377 
L 221.563332 52.829434 
L 223.099229 48.074717 
L 224.635127 43.636981 
L 226.171024 30.323774 
L 227.706921 26.52 
L 229.242818 21.765283 
L 230.778715 32.542642 
L 232.314613 45.221887 
L 233.85051 55.048302 
" style="fill:none;stroke:#ff0000;stroke-linecap:square;stroke-width:1.5;"/>
   </g>
   <g id="patch_12">
    <path d="M 187.082439 62.64 
L 187.082439 7.2 
" style="fill:none;stroke:#000000;stroke-linecap:square;stroke-linejoin:miter;stroke-width:1.5;"/>
   </g>
   <g id="patch_13">
    <path d="M 187.082439 62.64 
L 236.077561 62.64 
" style="fill:none;stroke:#000000;stroke-linecap:square;stroke-linejoin:miter;stroke-width:1.5;"/>
   </g>
  </g>
  <g id="axes_5">
   <g id="patch_14">
    <path d="M 245.876585 62.64 
L 294.871707 62.64 
L 294.871707 7.2 
L 245.876585 7.2 
z
" style="fill:none;"/>
   </g>
   <g id="matplotlib.axis_9"/>
   <g id="matplotlib.axis_10"/>
   <g id="line2d_9">
    <path clip-path="url(#p2141d7ffc3)" d="M 248.103636 58.062857 
L 249.639534 59.605714 
L 251.175431 59.091429 
L 252.711328 58.062857 
L 254.247225 59.091429 
L 255.783123 59.605714 
L 257.31902 58.062857 
L 258.854917 59.605714 
L 260.390814 59.091429 
L 261.926712 59.605714 
L 263.462609 57.548571 
L 264.998506 57.034286 
L 266.534403 56.52 
L 268.0703 56.005714 
L 269.606198 56.005714 
L 271.142095 53.434286 
L 272.677992 50.862857 
L 274.213889 49.834286 
L 275.749787 42.634286 
L 277.285684 39.034286 
L 278.821581 35.434286 
L 280.357478 29.262857 
L 281.893376 32.348571 
L 283.429273 28.234286 
L 284.96517 23.605714 
L 286.501067 17.434286 
L 288.036965 15.377143 
L 289.572862 17.948571 
L 291.108759 10.748571 
L 292.644656 21.548571 
" style="fill:none;stroke:#1f77b4;stroke-linecap:square;stroke-width:1.5;"/>
   </g>
   <g id="line2d_10">
    <path clip-path="url(#p2141d7ffc3)" d="M 248.103636 58.062857 
L 249.639534 60.12 
L 251.175431 59.605714 
L 252.711328 59.091429 
L 254.247225 59.605714 
L 255.783123 59.091429 
L 257.31902 59.091429 
L 258.854917 60.12 
L 260.390814 59.091429 
L 261.926712 59.091429 
L 263.462609 59.605714 
L 264.998506 59.091429 
L 266.534403 59.091429 
L 268.0703 58.577143 
L 269.606198 57.034286 
L 271.142095 54.977143 
L 272.677992 48.805714 
L 274.213889 49.834286 
L 275.749787 45.205714 
L 277.285684 34.92 
L 278.821581 33.377143 
L 280.357478 31.834286 
L 281.893376 26.691429 
L 283.429273 15.377143 
L 284.96517 25.662857 
L 286.501067 14.348571 
L 288.036965 13.32 
L 289.572862 9.72 
L 291.108759 26.177143 
L 292.644656 24.12 
" style="fill:none;stroke:#ff0000;stroke-linecap:square;stroke-width:1.5;"/>
   </g>
   <g id="patch_15">
    <path d="M 245.876585 62.64 
L 245.876585 7.2 
" style="fill:none;stroke:#000000;stroke-linecap:square;stroke-linejoin:miter;stroke-width:1.5;"/>
   </g>
   <g id="patch_16">
    <path d="M 245.876585 62.64 
L 294.871707 62.64 
" style="fill:none;stroke:#000000;stroke-linecap:square;stroke-linejoin:miter;stroke-width:1.5;"/>
   </g>
  </g>
  <g id="axes_6">
   <g id="patch_17">
    <path d="M 304.670732 62.64 
L 353.665854 62.64 
L 353.665854 7.2 
L 304.670732 7.2 
z
" style="fill:none;"/>
   </g>
   <g id="matplotlib.axis_11"/>
   <g id="matplotlib.axis_12"/>
   <g id="line2d_11">
    <path clip-path="url(#pa22fc4c37d)" d="M 306.897783 38.952 
L 308.43368 40.968 
L 309.969577 29.88 
L 311.505474 27.864 
L 313.041372 36.936 
L 314.577269 34.92 
L 316.113166 36.936 
L 317.649063 27.864 
L 319.184961 27.864 
L 320.720858 30.888 
L 322.256755 29.88 
L 323.792652 31.896 
L 325.32855 34.92 
L 326.864447 21.816 
L 328.400344 28.872 
L 329.936241 35.928 
L 331.472139 23.832 
L 333.008036 35.928 
L 334.543933 35.928 
L 336.07983 19.8 
L 337.615728 30.888 
L 339.151625 21.816 
L 340.687522 25.848 
L 342.223419 24.84 
L 343.759316 40.968 
L 345.295214 31.896 
L 346.831111 36.936 
L 348.367008 34.92 
L 349.902905 56.088 
L 351.438803 51.048 
" style="fill:none;stroke:#1f77b4;stroke-linecap:square;stroke-width:1.5;"/>
   </g>
   <g id="line2d_12">
    <path clip-path="url(#pa22fc4c37d)" d="M 306.897783 41.976 
L 308.43368 33.912 
L 309.969577 38.952 
L 311.505474 48.024 
L 313.041372 30.888 
L 314.577269 35.928 
L 316.113166 28.872 
L 317.649063 40.968 
L 319.184961 37.944 
L 320.720858 40.968 
L 322.256755 30.888 
L 323.792652 22.824 
L 325.32855 36.936 
L 326.864447 31.896 
L 328.400344 22.824 
L 329.936241 28.872 
L 331.472139 38.952 
L 333.008036 34.92 
L 334.543933 23.832 
L 336.07983 9.72 
L 337.615728 17.784 
L 339.151625 9.72 
L 340.687522 20.808 
L 342.223419 26.856 
L 343.759316 16.776 
L 345.295214 38.952 
L 346.831111 35.928 
L 348.367008 45 
L 349.902905 55.08 
L 351.438803 60.12 
" style="fill:none;stroke:#ff0000;stroke-linecap:square;stroke-width:1.5;"/>
   </g>
   <g id="patch_18">
    <path d="M 304.670732 62.64 
L 304.670732 7.2 
" style="fill:none;stroke:#000000;stroke-linecap:square;stroke-linejoin:miter;stroke-width:1.5;"/>
   </g>
   <g id="patch_19">
    <path d="M 304.670732 62.64 
L 353.665854 62.64 
" style="fill:none;stroke:#000000;stroke-linecap:square;stroke-linejoin:miter;stroke-width:1.5;"/>
   </g>
  </g>
  <g id="axes_7">
   <g id="patch_20">
    <path d="M 363.464878 62.64 
L 412.46 62.64 
L 412.46 7.2 
L 363.464878 7.2 
z
" style="fill:none;"/>
   </g>
   <g id="matplotlib.axis_13"/>
   <g id="matplotlib.axis_14"/>
   <g id="line2d_13">
    <path clip-path="url(#pdeec90183e)" d="M 365.691929 57.975319 
L 367.227826 59.04766 
L 368.763724 58.511489 
L 370.299621 59.04766 
L 371.835518 56.902979 
L 373.371415 59.58383 
L 374.907312 57.439149 
L 376.44321 59.04766 
L 377.979107 57.439149 
L 379.515004 59.04766 
L 381.050901 57.439149 
L 382.586799 59.58383 
L 384.122696 55.294468 
L 385.658593 59.04766 
L 387.19449 54.222128 
L 388.730388 52.077447 
L 390.266285 45.643404 
L 391.802182 43.498723 
L 393.338079 39.745532 
L 394.873977 33.84766 
L 396.409874 31.702979 
L 397.945771 27.949787 
L 399.481668 12.937021 
L 401.017566 21.515745 
L 402.553463 12.937021 
L 404.08936 19.907234 
L 405.625257 16.690213 
L 407.161155 26.341277 
L 408.697052 25.268936 
L 410.232949 41.354043 
" style="fill:none;stroke:#1f77b4;stroke-linecap:square;stroke-width:1.5;"/>
   </g>
   <g id="line2d_14">
    <path clip-path="url(#pdeec90183e)" d="M 365.691929 59.58383 
L 367.227826 60.12 
L 368.763724 60.12 
L 370.299621 60.12 
L 371.835518 59.04766 
L 373.371415 59.04766 
L 374.907312 59.04766 
L 376.44321 58.511489 
L 377.979107 57.439149 
L 379.515004 54.222128 
L 381.050901 52.077447 
L 382.586799 46.715745 
L 384.122696 45.643404 
L 385.658593 45.643404 
L 387.19449 49.396596 
L 388.730388 44.571064 
L 390.266285 41.354043 
L 391.802182 41.890213 
L 393.338079 42.426383 
L 394.873977 33.84766 
L 396.409874 29.558298 
L 397.945771 23.124255 
L 399.481668 33.84766 
L 401.017566 20.443404 
L 402.553463 24.196596 
L 404.08936 9.72 
L 405.625257 30.630638 
L 407.161155 38.673191 
L 408.697052 38.137021 
L 410.232949 41.890213 
" style="fill:none;stroke:#ff0000;stroke-linecap:square;stroke-width:1.5;"/>
   </g>
   <g id="patch_21">
    <path d="M 363.464878 62.64 
L 363.464878 7.2 
" style="fill:none;stroke:#000000;stroke-linecap:square;stroke-linejoin:miter;stroke-width:1.5;"/>
   </g>
   <g id="patch_22">
    <path d="M 363.464878 62.64 
L 412.46 62.64 
" style="fill:none;stroke:#000000;stroke-linecap:square;stroke-linejoin:miter;stroke-width:1.5;"/>
   </g>
  </g>
 </g>
 <defs>
  <clipPath id="p8a9c381c94">
   <rect height="55.44" width="48.995122" x="10.7" y="7.2"/>
  </clipPath>
  <clipPath id="pd54396aa98">
   <rect height="55.44" width="48.995122" x="69.494146" y="7.2"/>
  </clipPath>
  <clipPath id="p0b002bed46">
   <rect height="55.44" width="48.995122" x="128.288293" y="7.2"/>
  </clipPath>
  <clipPath id="pa1a7c51308">
   <rect height="55.44" width="48.995122" x="187.082439" y="7.2"/>
  </clipPath>
  <clipPath id="p2141d7ffc3">
   <rect height="55.44" width="48.995122" x="245.876585" y="7.2"/>
  </clipPath>
  <clipPath id="pa22fc4c37d">
   <rect height="55.44" width="48.995122" x="304.670732" y="7.2"/>
  </clipPath>
  <clipPath id="pdeec90183e">
   <rect height="55.44" width="48.995122" x="363.464878" y="7.2"/>
  </clipPath>
 </defs>
</svg>
