<?xml version="1.0" encoding="utf-8" standalone="no"?>
<!DOCTYPE svg PUBLIC "-//W3C//DTD SVG 1.1//EN"
  "http://www.w3.org/Graphics/SVG/1.1/DTD/svg11.dtd">
<!-- Created with matplotlib (https://matplotlib.org/) -->
<svg height="116.7361pt" version="1.1" viewBox="0 0 132.6025 116.7361" width="132.6025pt" xmlns="http://www.w3.org/2000/svg" xmlns:xlink="http://www.w3.org/1999/xlink">
 <metadata>
  <rdf:RDF xmlns:cc="http://creativecommons.org/ns#" xmlns:dc="http://purl.org/dc/elements/1.1/" xmlns:rdf="http://www.w3.org/1999/02/22-rdf-syntax-ns#">
   <cc:Work>
    <dc:type rdf:resource="http://purl.org/dc/dcmitype/StillImage"/>
    <dc:date>2021-01-08T16:30:04.784284</dc:date>
    <dc:format>image/svg+xml</dc:format>
    <dc:creator>
     <cc:Agent>
      <dc:title>Matplotlib v3.3.2, https://matplotlib.org/</dc:title>
     </cc:Agent>
    </dc:creator>
   </cc:Work>
  </rdf:RDF>
 </metadata>
 <defs>
  <style type="text/css">*{stroke-linecap:butt;stroke-linejoin:round;}</style>
 </defs>
 <g id="figure_1">
  <g id="patch_1">
   <path d="M -0 116.7361 
L 132.6025 116.7361 
L 132.6025 -0 
L -0 -0 
z
" style="fill:none;"/>
  </g>
  <g id="axes_1">
   <g id="patch_2">
    <path d="M 36.1225 83.0336 
L 125.4025 83.0336 
L 125.4025 33.1376 
L 36.1225 33.1376 
z
" style="fill:none;"/>
   </g>
   <g id="patch_3">
    <path clip-path="url(#p84fbd9463b)" d="M 40.180682 83.0336 
L 40.992318 83.0336 
L 40.992318 83.0336 
L 40.180682 83.0336 
z
" style="fill:#ffffff;"/>
   </g>
   <g id="patch_4">
    <path clip-path="url(#p84fbd9463b)" d="M 40.992318 83.0336 
L 41.803955 83.0336 
L 41.803955 83.0336 
L 40.992318 83.0336 
z
" style="fill:#ffffff;"/>
   </g>
   <g id="patch_5">
    <path clip-path="url(#p84fbd9463b)" d="M 41.803955 83.0336 
L 42.615591 83.0336 
L 42.615591 83.0336 
L 41.803955 83.0336 
z
" style="fill:#ffffff;"/>
   </g>
   <g id="patch_6">
    <path clip-path="url(#p84fbd9463b)" d="M 42.615591 83.0336 
L 43.427227 83.0336 
L 43.427227 83.0336 
L 42.615591 83.0336 
z
" style="fill:#ffffff;"/>
   </g>
   <g id="patch_7">
    <path clip-path="url(#p84fbd9463b)" d="M 43.427227 83.0336 
L 44.238864 83.0336 
L 44.238864 83.0336 
L 43.427227 83.0336 
z
" style="fill:#ffffff;"/>
   </g>
   <g id="patch_8">
    <path clip-path="url(#p84fbd9463b)" d="M 44.238864 83.0336 
L 45.0505 83.0336 
L 45.0505 83.0336 
L 44.238864 83.0336 
z
" style="fill:#ffffff;"/>
   </g>
   <g id="patch_9">
    <path clip-path="url(#p84fbd9463b)" d="M 45.0505 83.0336 
L 45.862136 83.0336 
L 45.862136 83.0336 
L 45.0505 83.0336 
z
" style="fill:#ffffff;"/>
   </g>
   <g id="patch_10">
    <path clip-path="url(#p84fbd9463b)" d="M 45.862136 83.0336 
L 46.673773 83.0336 
L 46.673773 83.0336 
L 45.862136 83.0336 
z
" style="fill:#ffffff;"/>
   </g>
   <g id="patch_11">
    <path clip-path="url(#p84fbd9463b)" d="M 46.673773 83.0336 
L 47.485409 83.0336 
L 47.485409 83.0336 
L 46.673773 83.0336 
z
" style="fill:#ffffff;"/>
   </g>
   <g id="patch_12">
    <path clip-path="url(#p84fbd9463b)" d="M 47.485409 83.0336 
L 48.297045 83.0336 
L 48.297045 83.0336 
L 47.485409 83.0336 
z
" style="fill:#ffffff;"/>
   </g>
   <g id="patch_13">
    <path clip-path="url(#p84fbd9463b)" d="M 48.297045 83.0336 
L 49.108682 83.0336 
L 49.108682 83.0336 
L 48.297045 83.0336 
z
" style="fill:#ffffff;"/>
   </g>
   <g id="patch_14">
    <path clip-path="url(#p84fbd9463b)" d="M 49.108682 83.0336 
L 49.920318 83.0336 
L 49.920318 83.0336 
L 49.108682 83.0336 
z
" style="fill:#ffffff;"/>
   </g>
   <g id="patch_15">
    <path clip-path="url(#p84fbd9463b)" d="M 49.920318 83.0336 
L 50.731955 83.0336 
L 50.731955 83.0336 
L 49.920318 83.0336 
z
" style="fill:#ffffff;"/>
   </g>
   <g id="patch_16">
    <path clip-path="url(#p84fbd9463b)" d="M 50.731955 83.0336 
L 51.543591 83.0336 
L 51.543591 83.0336 
L 50.731955 83.0336 
z
" style="fill:#ffffff;"/>
   </g>
   <g id="patch_17">
    <path clip-path="url(#p84fbd9463b)" d="M 51.543591 83.0336 
L 52.355227 83.0336 
L 52.355227 83.0336 
L 51.543591 83.0336 
z
" style="fill:#ffffff;"/>
   </g>
   <g id="patch_18">
    <path clip-path="url(#p84fbd9463b)" d="M 52.355227 83.0336 
L 53.166864 83.0336 
L 53.166864 83.0336 
L 52.355227 83.0336 
z
" style="fill:#ffffff;"/>
   </g>
   <g id="patch_19">
    <path clip-path="url(#p84fbd9463b)" d="M 53.166864 83.0336 
L 53.9785 83.0336 
L 53.9785 82.074062 
L 53.166864 82.074062 
z
" style="fill:#ffffff;"/>
   </g>
   <g id="patch_20">
    <path clip-path="url(#p84fbd9463b)" d="M 53.9785 83.0336 
L 54.790136 83.0336 
L 54.790136 83.0336 
L 53.9785 83.0336 
z
" style="fill:#ffffff;"/>
   </g>
   <g id="patch_21">
    <path clip-path="url(#p84fbd9463b)" d="M 54.790136 83.0336 
L 55.601773 83.0336 
L 55.601773 83.0336 
L 54.790136 83.0336 
z
" style="fill:#ffffff;"/>
   </g>
   <g id="patch_22">
    <path clip-path="url(#p84fbd9463b)" d="M 55.601773 83.0336 
L 56.413409 83.0336 
L 56.413409 83.0336 
L 55.601773 83.0336 
z
" style="fill:#ffffff;"/>
   </g>
   <g id="patch_23">
    <path clip-path="url(#p84fbd9463b)" d="M 56.413409 83.0336 
L 57.225045 83.0336 
L 57.225045 82.074062 
L 56.413409 82.074062 
z
" style="fill:#ffffff;"/>
   </g>
   <g id="patch_24">
    <path clip-path="url(#p84fbd9463b)" d="M 57.225045 83.0336 
L 58.036682 83.0336 
L 58.036682 82.074062 
L 57.225045 82.074062 
z
" style="fill:#ffffff;"/>
   </g>
   <g id="patch_25">
    <path clip-path="url(#p84fbd9463b)" d="M 58.036682 83.0336 
L 58.848318 83.0336 
L 58.848318 81.114523 
L 58.036682 81.114523 
z
" style="fill:#ffffff;"/>
   </g>
   <g id="patch_26">
    <path clip-path="url(#p84fbd9463b)" d="M 58.848318 83.0336 
L 59.659955 83.0336 
L 59.659955 77.276369 
L 58.848318 77.276369 
z
" style="fill:#ffffff;"/>
   </g>
   <g id="patch_27">
    <path clip-path="url(#p84fbd9463b)" d="M 59.659955 83.0336 
L 60.471591 83.0336 
L 60.471591 80.154985 
L 59.659955 80.154985 
z
" style="fill:#ffffff;"/>
   </g>
   <g id="patch_28">
    <path clip-path="url(#p84fbd9463b)" d="M 60.471591 83.0336 
L 61.283227 83.0336 
L 61.283227 77.276369 
L 60.471591 77.276369 
z
" style="fill:#ffffff;"/>
   </g>
   <g id="patch_29">
    <path clip-path="url(#p84fbd9463b)" d="M 61.283227 83.0336 
L 62.094864 83.0336 
L 62.094864 77.276369 
L 61.283227 77.276369 
z
" style="fill:#ffffff;"/>
   </g>
   <g id="patch_30">
    <path clip-path="url(#p84fbd9463b)" d="M 62.094864 83.0336 
L 62.9065 83.0336 
L 62.9065 76.316831 
L 62.094864 76.316831 
z
" style="fill:#ffffff;"/>
   </g>
   <g id="patch_31">
    <path clip-path="url(#p84fbd9463b)" d="M 62.9065 83.0336 
L 63.718136 83.0336 
L 63.718136 69.600062 
L 62.9065 69.600062 
z
" style="fill:#ffffff;"/>
   </g>
   <g id="patch_32">
    <path clip-path="url(#p84fbd9463b)" d="M 63.718136 83.0336 
L 64.529773 83.0336 
L 64.529773 70.5596 
L 63.718136 70.5596 
z
" style="fill:#ffffff;"/>
   </g>
   <g id="patch_33">
    <path clip-path="url(#p84fbd9463b)" d="M 64.529773 83.0336 
L 65.341409 83.0336 
L 65.341409 74.397754 
L 64.529773 74.397754 
z
" style="fill:#ffffff;"/>
   </g>
   <g id="patch_34">
    <path clip-path="url(#p84fbd9463b)" d="M 65.341409 83.0336 
L 66.153045 83.0336 
L 66.153045 72.478677 
L 65.341409 72.478677 
z
" style="fill:#ffffff;"/>
   </g>
   <g id="patch_35">
    <path clip-path="url(#p84fbd9463b)" d="M 66.153045 83.0336 
L 66.964682 83.0336 
L 66.964682 70.5596 
L 66.153045 70.5596 
z
" style="fill:#ffffff;"/>
   </g>
   <g id="patch_36">
    <path clip-path="url(#p84fbd9463b)" d="M 66.964682 83.0336 
L 67.776318 83.0336 
L 67.776318 61.923754 
L 66.964682 61.923754 
z
" style="fill:#ffffff;"/>
   </g>
   <g id="patch_37">
    <path clip-path="url(#p84fbd9463b)" d="M 67.776318 83.0336 
L 68.587955 83.0336 
L 68.587955 64.802369 
L 67.776318 64.802369 
z
" style="fill:#ffffff;"/>
   </g>
   <g id="patch_38">
    <path clip-path="url(#p84fbd9463b)" d="M 68.587955 83.0336 
L 69.399591 83.0336 
L 69.399591 63.842831 
L 68.587955 63.842831 
z
" style="fill:#ffffff;"/>
   </g>
   <g id="patch_39">
    <path clip-path="url(#p84fbd9463b)" d="M 69.399591 83.0336 
L 70.211227 83.0336 
L 70.211227 63.842831 
L 69.399591 63.842831 
z
" style="fill:#ffffff;"/>
   </g>
   <g id="patch_40">
    <path clip-path="url(#p84fbd9463b)" d="M 70.211227 83.0336 
L 71.022864 83.0336 
L 71.022864 67.680985 
L 70.211227 67.680985 
z
" style="fill:#ffffff;"/>
   </g>
   <g id="patch_41">
    <path clip-path="url(#p84fbd9463b)" d="M 71.022864 83.0336 
L 71.8345 83.0336 
L 71.8345 60.964215 
L 71.022864 60.964215 
z
" style="fill:#ffffff;"/>
   </g>
   <g id="patch_42">
    <path clip-path="url(#p84fbd9463b)" d="M 71.8345 83.0336 
L 72.646136 83.0336 
L 72.646136 58.0856 
L 71.8345 58.0856 
z
" style="fill:#ffffff;"/>
   </g>
   <g id="patch_43">
    <path clip-path="url(#p84fbd9463b)" d="M 72.646136 83.0336 
L 73.457773 83.0336 
L 73.457773 60.004677 
L 72.646136 60.004677 
z
" style="fill:#ffffff;"/>
   </g>
   <g id="patch_44">
    <path clip-path="url(#p84fbd9463b)" d="M 73.457773 83.0336 
L 74.269409 83.0336 
L 74.269409 59.045138 
L 73.457773 59.045138 
z
" style="fill:#ffffff;"/>
   </g>
   <g id="patch_45">
    <path clip-path="url(#p84fbd9463b)" d="M 74.269409 83.0336 
L 75.081045 83.0336 
L 75.081045 56.166523 
L 74.269409 56.166523 
z
" style="fill:#ffffff;"/>
   </g>
   <g id="patch_46">
    <path clip-path="url(#p84fbd9463b)" d="M 75.081045 83.0336 
L 75.892682 83.0336 
L 75.892682 56.166523 
L 75.081045 56.166523 
z
" style="fill:#ffffff;"/>
   </g>
   <g id="patch_47">
    <path clip-path="url(#p84fbd9463b)" d="M 75.892682 83.0336 
L 76.704318 83.0336 
L 76.704318 60.004677 
L 75.892682 60.004677 
z
" style="fill:#ffffff;"/>
   </g>
   <g id="patch_48">
    <path clip-path="url(#p84fbd9463b)" d="M 76.704318 83.0336 
L 77.515955 83.0336 
L 77.515955 49.449754 
L 76.704318 49.449754 
z
" style="fill:#ffffff;"/>
   </g>
   <g id="patch_49">
    <path clip-path="url(#p84fbd9463b)" d="M 77.515955 83.0336 
L 78.327591 83.0336 
L 78.327591 48.490215 
L 77.515955 48.490215 
z
" style="fill:#ffffff;"/>
   </g>
   <g id="patch_50">
    <path clip-path="url(#p84fbd9463b)" d="M 78.327591 83.0336 
L 79.139227 83.0336 
L 79.139227 64.802369 
L 78.327591 64.802369 
z
" style="fill:#ffffff;"/>
   </g>
   <g id="patch_51">
    <path clip-path="url(#p84fbd9463b)" d="M 79.139227 83.0336 
L 79.950864 83.0336 
L 79.950864 52.328369 
L 79.139227 52.328369 
z
" style="fill:#ffffff;"/>
   </g>
   <g id="patch_52">
    <path clip-path="url(#p84fbd9463b)" d="M 79.950864 83.0336 
L 80.7625 83.0336 
L 80.7625 56.166523 
L 79.950864 56.166523 
z
" style="fill:#ffffff;"/>
   </g>
   <g id="patch_53">
    <path clip-path="url(#p84fbd9463b)" d="M 80.7625 83.0336 
L 81.574136 83.0336 
L 81.574136 60.964215 
L 80.7625 60.964215 
z
" style="fill:#ffffff;"/>
   </g>
   <g id="patch_54">
    <path clip-path="url(#p84fbd9463b)" d="M 81.574136 83.0336 
L 82.385773 83.0336 
L 82.385773 58.0856 
L 81.574136 58.0856 
z
" style="fill:#ffffff;"/>
   </g>
   <g id="patch_55">
    <path clip-path="url(#p84fbd9463b)" d="M 82.385773 83.0336 
L 83.197409 83.0336 
L 83.197409 60.004677 
L 82.385773 60.004677 
z
" style="fill:#ffffff;"/>
   </g>
   <g id="patch_56">
    <path clip-path="url(#p84fbd9463b)" d="M 83.197409 83.0336 
L 84.009045 83.0336 
L 84.009045 64.802369 
L 83.197409 64.802369 
z
" style="fill:#ffffff;"/>
   </g>
   <g id="patch_57">
    <path clip-path="url(#p84fbd9463b)" d="M 84.009045 83.0336 
L 84.820682 83.0336 
L 84.820682 60.964215 
L 84.009045 60.964215 
z
" style="fill:#ffffff;"/>
   </g>
   <g id="patch_58">
    <path clip-path="url(#p84fbd9463b)" d="M 84.820682 83.0336 
L 85.632318 83.0336 
L 85.632318 59.045138 
L 84.820682 59.045138 
z
" style="fill:#ffffff;"/>
   </g>
   <g id="patch_59">
    <path clip-path="url(#p84fbd9463b)" d="M 85.632318 83.0336 
L 86.443955 83.0336 
L 86.443955 57.126062 
L 85.632318 57.126062 
z
" style="fill:#ffffff;"/>
   </g>
   <g id="patch_60">
    <path clip-path="url(#p84fbd9463b)" d="M 86.443955 83.0336 
L 87.255591 83.0336 
L 87.255591 59.045138 
L 86.443955 59.045138 
z
" style="fill:#ffffff;"/>
   </g>
   <g id="patch_61">
    <path clip-path="url(#p84fbd9463b)" d="M 87.255591 83.0336 
L 88.067227 83.0336 
L 88.067227 61.923754 
L 87.255591 61.923754 
z
" style="fill:#ffffff;"/>
   </g>
   <g id="patch_62">
    <path clip-path="url(#p84fbd9463b)" d="M 88.067227 83.0336 
L 88.878864 83.0336 
L 88.878864 69.600062 
L 88.067227 69.600062 
z
" style="fill:#ffffff;"/>
   </g>
   <g id="patch_63">
    <path clip-path="url(#p84fbd9463b)" d="M 88.878864 83.0336 
L 89.6905 83.0336 
L 89.6905 63.842831 
L 88.878864 63.842831 
z
" style="fill:#ffffff;"/>
   </g>
   <g id="patch_64">
    <path clip-path="url(#p84fbd9463b)" d="M 89.6905 83.0336 
L 90.502136 83.0336 
L 90.502136 71.519138 
L 89.6905 71.519138 
z
" style="fill:#ffffff;"/>
   </g>
   <g id="patch_65">
    <path clip-path="url(#p84fbd9463b)" d="M 90.502136 83.0336 
L 91.313773 83.0336 
L 91.313773 71.519138 
L 90.502136 71.519138 
z
" style="fill:#ffffff;"/>
   </g>
   <g id="patch_66">
    <path clip-path="url(#p84fbd9463b)" d="M 91.313773 83.0336 
L 92.125409 83.0336 
L 92.125409 69.600062 
L 91.313773 69.600062 
z
" style="fill:#ffffff;"/>
   </g>
   <g id="patch_67">
    <path clip-path="url(#p84fbd9463b)" d="M 92.125409 83.0336 
L 92.937045 83.0336 
L 92.937045 76.316831 
L 92.125409 76.316831 
z
" style="fill:#ffffff;"/>
   </g>
   <g id="patch_68">
    <path clip-path="url(#p84fbd9463b)" d="M 92.937045 83.0336 
L 93.748682 83.0336 
L 93.748682 64.802369 
L 92.937045 64.802369 
z
" style="fill:#ffffff;"/>
   </g>
   <g id="patch_69">
    <path clip-path="url(#p84fbd9463b)" d="M 93.748682 83.0336 
L 94.560318 83.0336 
L 94.560318 75.357292 
L 93.748682 75.357292 
z
" style="fill:#ffffff;"/>
   </g>
   <g id="patch_70">
    <path clip-path="url(#p84fbd9463b)" d="M 94.560318 83.0336 
L 95.371955 83.0336 
L 95.371955 76.316831 
L 94.560318 76.316831 
z
" style="fill:#ffffff;"/>
   </g>
   <g id="patch_71">
    <path clip-path="url(#p84fbd9463b)" d="M 95.371955 83.0336 
L 96.183591 83.0336 
L 96.183591 73.438215 
L 95.371955 73.438215 
z
" style="fill:#ffffff;"/>
   </g>
   <g id="patch_72">
    <path clip-path="url(#p84fbd9463b)" d="M 96.183591 83.0336 
L 96.995227 83.0336 
L 96.995227 75.357292 
L 96.183591 75.357292 
z
" style="fill:#ffffff;"/>
   </g>
   <g id="patch_73">
    <path clip-path="url(#p84fbd9463b)" d="M 96.995227 83.0336 
L 97.806864 83.0336 
L 97.806864 77.276369 
L 96.995227 77.276369 
z
" style="fill:#ffffff;"/>
   </g>
   <g id="patch_74">
    <path clip-path="url(#p84fbd9463b)" d="M 97.806864 83.0336 
L 98.6185 83.0336 
L 98.6185 80.154985 
L 97.806864 80.154985 
z
" style="fill:#ffffff;"/>
   </g>
   <g id="patch_75">
    <path clip-path="url(#p84fbd9463b)" d="M 98.6185 83.0336 
L 99.430136 83.0336 
L 99.430136 80.154985 
L 98.6185 80.154985 
z
" style="fill:#ffffff;"/>
   </g>
   <g id="patch_76">
    <path clip-path="url(#p84fbd9463b)" d="M 99.430136 83.0336 
L 100.241773 83.0336 
L 100.241773 77.276369 
L 99.430136 77.276369 
z
" style="fill:#ffffff;"/>
   </g>
   <g id="patch_77">
    <path clip-path="url(#p84fbd9463b)" d="M 100.241773 83.0336 
L 101.053409 83.0336 
L 101.053409 77.276369 
L 100.241773 77.276369 
z
" style="fill:#ffffff;"/>
   </g>
   <g id="patch_78">
    <path clip-path="url(#p84fbd9463b)" d="M 101.053409 83.0336 
L 101.865045 83.0336 
L 101.865045 82.074062 
L 101.053409 82.074062 
z
" style="fill:#ffffff;"/>
   </g>
   <g id="patch_79">
    <path clip-path="url(#p84fbd9463b)" d="M 101.865045 83.0336 
L 102.676682 83.0336 
L 102.676682 80.154985 
L 101.865045 80.154985 
z
" style="fill:#ffffff;"/>
   </g>
   <g id="patch_80">
    <path clip-path="url(#p84fbd9463b)" d="M 102.676682 83.0336 
L 103.488318 83.0336 
L 103.488318 81.114523 
L 102.676682 81.114523 
z
" style="fill:#ffffff;"/>
   </g>
   <g id="patch_81">
    <path clip-path="url(#p84fbd9463b)" d="M 103.488318 83.0336 
L 104.299955 83.0336 
L 104.299955 82.074062 
L 103.488318 82.074062 
z
" style="fill:#ffffff;"/>
   </g>
   <g id="patch_82">
    <path clip-path="url(#p84fbd9463b)" d="M 104.299955 83.0336 
L 105.111591 83.0336 
L 105.111591 79.195446 
L 104.299955 79.195446 
z
" style="fill:#ffffff;"/>
   </g>
   <g id="patch_83">
    <path clip-path="url(#p84fbd9463b)" d="M 105.111591 83.0336 
L 105.923227 83.0336 
L 105.923227 83.0336 
L 105.111591 83.0336 
z
" style="fill:#ffffff;"/>
   </g>
   <g id="patch_84">
    <path clip-path="url(#p84fbd9463b)" d="M 105.923227 83.0336 
L 106.734864 83.0336 
L 106.734864 83.0336 
L 105.923227 83.0336 
z
" style="fill:#ffffff;"/>
   </g>
   <g id="patch_85">
    <path clip-path="url(#p84fbd9463b)" d="M 106.734864 83.0336 
L 107.5465 83.0336 
L 107.5465 83.0336 
L 106.734864 83.0336 
z
" style="fill:#ffffff;"/>
   </g>
   <g id="patch_86">
    <path clip-path="url(#p84fbd9463b)" d="M 107.5465 83.0336 
L 108.358136 83.0336 
L 108.358136 82.074062 
L 107.5465 82.074062 
z
" style="fill:#ffffff;"/>
   </g>
   <g id="patch_87">
    <path clip-path="url(#p84fbd9463b)" d="M 108.358136 83.0336 
L 109.169773 83.0336 
L 109.169773 83.0336 
L 108.358136 83.0336 
z
" style="fill:#ffffff;"/>
   </g>
   <g id="patch_88">
    <path clip-path="url(#p84fbd9463b)" d="M 109.169773 83.0336 
L 109.981409 83.0336 
L 109.981409 83.0336 
L 109.169773 83.0336 
z
" style="fill:#ffffff;"/>
   </g>
   <g id="patch_89">
    <path clip-path="url(#p84fbd9463b)" d="M 109.981409 83.0336 
L 110.793045 83.0336 
L 110.793045 82.074062 
L 109.981409 82.074062 
z
" style="fill:#ffffff;"/>
   </g>
   <g id="patch_90">
    <path clip-path="url(#p84fbd9463b)" d="M 110.793045 83.0336 
L 111.604682 83.0336 
L 111.604682 83.0336 
L 110.793045 83.0336 
z
" style="fill:#ffffff;"/>
   </g>
   <g id="patch_91">
    <path clip-path="url(#p84fbd9463b)" d="M 111.604682 83.0336 
L 112.416318 83.0336 
L 112.416318 83.0336 
L 111.604682 83.0336 
z
" style="fill:#ffffff;"/>
   </g>
   <g id="patch_92">
    <path clip-path="url(#p84fbd9463b)" d="M 112.416318 83.0336 
L 113.227955 83.0336 
L 113.227955 83.0336 
L 112.416318 83.0336 
z
" style="fill:#ffffff;"/>
   </g>
   <g id="patch_93">
    <path clip-path="url(#p84fbd9463b)" d="M 113.227955 83.0336 
L 114.039591 83.0336 
L 114.039591 83.0336 
L 113.227955 83.0336 
z
" style="fill:#ffffff;"/>
   </g>
   <g id="patch_94">
    <path clip-path="url(#p84fbd9463b)" d="M 114.039591 83.0336 
L 114.851227 83.0336 
L 114.851227 83.0336 
L 114.039591 83.0336 
z
" style="fill:#ffffff;"/>
   </g>
   <g id="patch_95">
    <path clip-path="url(#p84fbd9463b)" d="M 114.851227 83.0336 
L 115.662864 83.0336 
L 115.662864 83.0336 
L 114.851227 83.0336 
z
" style="fill:#ffffff;"/>
   </g>
   <g id="patch_96">
    <path clip-path="url(#p84fbd9463b)" d="M 115.662864 83.0336 
L 116.4745 83.0336 
L 116.4745 83.0336 
L 115.662864 83.0336 
z
" style="fill:#ffffff;"/>
   </g>
   <g id="patch_97">
    <path clip-path="url(#p84fbd9463b)" d="M 116.4745 83.0336 
L 117.286136 83.0336 
L 117.286136 83.0336 
L 116.4745 83.0336 
z
" style="fill:#ffffff;"/>
   </g>
   <g id="patch_98">
    <path clip-path="url(#p84fbd9463b)" d="M 117.286136 83.0336 
L 118.097773 83.0336 
L 118.097773 83.0336 
L 117.286136 83.0336 
z
" style="fill:#ffffff;"/>
   </g>
   <g id="patch_99">
    <path clip-path="url(#p84fbd9463b)" d="M 118.097773 83.0336 
L 118.909409 83.0336 
L 118.909409 83.0336 
L 118.097773 83.0336 
z
" style="fill:#ffffff;"/>
   </g>
   <g id="patch_100">
    <path clip-path="url(#p84fbd9463b)" d="M 118.909409 83.0336 
L 119.721045 83.0336 
L 119.721045 83.0336 
L 118.909409 83.0336 
z
" style="fill:#ffffff;"/>
   </g>
   <g id="patch_101">
    <path clip-path="url(#p84fbd9463b)" d="M 119.721045 83.0336 
L 120.532682 83.0336 
L 120.532682 83.0336 
L 119.721045 83.0336 
z
" style="fill:#ffffff;"/>
   </g>
   <g id="patch_102">
    <path clip-path="url(#p84fbd9463b)" d="M 120.532682 83.0336 
L 121.344318 83.0336 
L 121.344318 83.0336 
L 120.532682 83.0336 
z
" style="fill:#ffffff;"/>
   </g>
   <g id="patch_103">
    <path clip-path="url(#p84fbd9463b)" d="M 40.180682 83.0336 
L 40.992318 83.0336 
L 40.992318 83.0336 
L 40.180682 83.0336 
z
" style="fill:#ffffff;"/>
   </g>
   <g id="patch_104">
    <path clip-path="url(#p84fbd9463b)" d="M 40.992318 83.0336 
L 41.803955 83.0336 
L 41.803955 83.0336 
L 40.992318 83.0336 
z
" style="fill:#ffffff;"/>
   </g>
   <g id="patch_105">
    <path clip-path="url(#p84fbd9463b)" d="M 41.803955 83.0336 
L 42.615591 83.0336 
L 42.615591 83.0336 
L 41.803955 83.0336 
z
" style="fill:#ffffff;"/>
   </g>
   <g id="patch_106">
    <path clip-path="url(#p84fbd9463b)" d="M 42.615591 83.0336 
L 43.427227 83.0336 
L 43.427227 83.0336 
L 42.615591 83.0336 
z
" style="fill:#ffffff;"/>
   </g>
   <g id="patch_107">
    <path clip-path="url(#p84fbd9463b)" d="M 43.427227 83.0336 
L 44.238864 83.0336 
L 44.238864 83.0336 
L 43.427227 83.0336 
z
" style="fill:#ffffff;"/>
   </g>
   <g id="patch_108">
    <path clip-path="url(#p84fbd9463b)" d="M 44.238864 83.0336 
L 45.0505 83.0336 
L 45.0505 83.0336 
L 44.238864 83.0336 
z
" style="fill:#ffffff;"/>
   </g>
   <g id="patch_109">
    <path clip-path="url(#p84fbd9463b)" d="M 45.0505 83.0336 
L 45.862136 83.0336 
L 45.862136 83.0336 
L 45.0505 83.0336 
z
" style="fill:#ffffff;"/>
   </g>
   <g id="patch_110">
    <path clip-path="url(#p84fbd9463b)" d="M 45.862136 83.0336 
L 46.673773 83.0336 
L 46.673773 83.0336 
L 45.862136 83.0336 
z
" style="fill:#ffffff;"/>
   </g>
   <g id="patch_111">
    <path clip-path="url(#p84fbd9463b)" d="M 46.673773 83.0336 
L 47.485409 83.0336 
L 47.485409 83.0336 
L 46.673773 83.0336 
z
" style="fill:#ffffff;"/>
   </g>
   <g id="patch_112">
    <path clip-path="url(#p84fbd9463b)" d="M 47.485409 83.0336 
L 48.297045 83.0336 
L 48.297045 83.0336 
L 47.485409 83.0336 
z
" style="fill:#ffffff;"/>
   </g>
   <g id="patch_113">
    <path clip-path="url(#p84fbd9463b)" d="M 48.297045 83.0336 
L 49.108682 83.0336 
L 49.108682 83.0336 
L 48.297045 83.0336 
z
" style="fill:#ffffff;"/>
   </g>
   <g id="patch_114">
    <path clip-path="url(#p84fbd9463b)" d="M 49.108682 83.0336 
L 49.920318 83.0336 
L 49.920318 83.0336 
L 49.108682 83.0336 
z
" style="fill:#ffffff;"/>
   </g>
   <g id="patch_115">
    <path clip-path="url(#p84fbd9463b)" d="M 49.920318 83.0336 
L 50.731955 83.0336 
L 50.731955 83.0336 
L 49.920318 83.0336 
z
" style="fill:#ffffff;"/>
   </g>
   <g id="patch_116">
    <path clip-path="url(#p84fbd9463b)" d="M 50.731955 83.0336 
L 51.543591 83.0336 
L 51.543591 83.0336 
L 50.731955 83.0336 
z
" style="fill:#ffffff;"/>
   </g>
   <g id="patch_117">
    <path clip-path="url(#p84fbd9463b)" d="M 51.543591 83.0336 
L 52.355227 83.0336 
L 52.355227 83.0336 
L 51.543591 83.0336 
z
" style="fill:#ffffff;"/>
   </g>
   <g id="patch_118">
    <path clip-path="url(#p84fbd9463b)" d="M 52.355227 83.0336 
L 53.166864 83.0336 
L 53.166864 83.0336 
L 52.355227 83.0336 
z
" style="fill:#ffffff;"/>
   </g>
   <g id="patch_119">
    <path clip-path="url(#p84fbd9463b)" d="M 53.166864 83.0336 
L 53.9785 83.0336 
L 53.9785 82.074062 
L 53.166864 82.074062 
z
" style="fill:#ffffff;"/>
   </g>
   <g id="patch_120">
    <path clip-path="url(#p84fbd9463b)" d="M 53.9785 83.0336 
L 54.790136 83.0336 
L 54.790136 83.0336 
L 53.9785 83.0336 
z
" style="fill:#ffffff;"/>
   </g>
   <g id="patch_121">
    <path clip-path="url(#p84fbd9463b)" d="M 54.790136 83.0336 
L 55.601773 83.0336 
L 55.601773 83.0336 
L 54.790136 83.0336 
z
" style="fill:#ffffff;"/>
   </g>
   <g id="patch_122">
    <path clip-path="url(#p84fbd9463b)" d="M 55.601773 83.0336 
L 56.413409 83.0336 
L 56.413409 81.114523 
L 55.601773 81.114523 
z
" style="fill:#ffffff;"/>
   </g>
   <g id="patch_123">
    <path clip-path="url(#p84fbd9463b)" d="M 56.413409 83.0336 
L 57.225045 83.0336 
L 57.225045 83.0336 
L 56.413409 83.0336 
z
" style="fill:#ffffff;"/>
   </g>
   <g id="patch_124">
    <path clip-path="url(#p84fbd9463b)" d="M 57.225045 83.0336 
L 58.036682 83.0336 
L 58.036682 82.074062 
L 57.225045 82.074062 
z
" style="fill:#ffffff;"/>
   </g>
   <g id="patch_125">
    <path clip-path="url(#p84fbd9463b)" d="M 58.036682 83.0336 
L 58.848318 83.0336 
L 58.848318 80.154985 
L 58.036682 80.154985 
z
" style="fill:#ffffff;"/>
   </g>
   <g id="patch_126">
    <path clip-path="url(#p84fbd9463b)" d="M 58.848318 83.0336 
L 59.659955 83.0336 
L 59.659955 82.074062 
L 58.848318 82.074062 
z
" style="fill:#ffffff;"/>
   </g>
   <g id="patch_127">
    <path clip-path="url(#p84fbd9463b)" d="M 59.659955 83.0336 
L 60.471591 83.0336 
L 60.471591 79.195446 
L 59.659955 79.195446 
z
" style="fill:#ffffff;"/>
   </g>
   <g id="patch_128">
    <path clip-path="url(#p84fbd9463b)" d="M 60.471591 83.0336 
L 61.283227 83.0336 
L 61.283227 78.235908 
L 60.471591 78.235908 
z
" style="fill:#ffffff;"/>
   </g>
   <g id="patch_129">
    <path clip-path="url(#p84fbd9463b)" d="M 61.283227 83.0336 
L 62.094864 83.0336 
L 62.094864 77.276369 
L 61.283227 77.276369 
z
" style="fill:#ffffff;"/>
   </g>
   <g id="patch_130">
    <path clip-path="url(#p84fbd9463b)" d="M 62.094864 83.0336 
L 62.9065 83.0336 
L 62.9065 75.357292 
L 62.094864 75.357292 
z
" style="fill:#ffffff;"/>
   </g>
   <g id="patch_131">
    <path clip-path="url(#p84fbd9463b)" d="M 62.9065 83.0336 
L 63.718136 83.0336 
L 63.718136 76.316831 
L 62.9065 76.316831 
z
" style="fill:#ffffff;"/>
   </g>
   <g id="patch_132">
    <path clip-path="url(#p84fbd9463b)" d="M 63.718136 83.0336 
L 64.529773 83.0336 
L 64.529773 76.316831 
L 63.718136 76.316831 
z
" style="fill:#ffffff;"/>
   </g>
   <g id="patch_133">
    <path clip-path="url(#p84fbd9463b)" d="M 64.529773 83.0336 
L 65.341409 83.0336 
L 65.341409 72.478677 
L 64.529773 72.478677 
z
" style="fill:#ffffff;"/>
   </g>
   <g id="patch_134">
    <path clip-path="url(#p84fbd9463b)" d="M 65.341409 83.0336 
L 66.153045 83.0336 
L 66.153045 66.721446 
L 65.341409 66.721446 
z
" style="fill:#ffffff;"/>
   </g>
   <g id="patch_135">
    <path clip-path="url(#p84fbd9463b)" d="M 66.153045 83.0336 
L 66.964682 83.0336 
L 66.964682 65.761908 
L 66.153045 65.761908 
z
" style="fill:#ffffff;"/>
   </g>
   <g id="patch_136">
    <path clip-path="url(#p84fbd9463b)" d="M 66.964682 83.0336 
L 67.776318 83.0336 
L 67.776318 68.640523 
L 66.964682 68.640523 
z
" style="fill:#ffffff;"/>
   </g>
   <g id="patch_137">
    <path clip-path="url(#p84fbd9463b)" d="M 67.776318 83.0336 
L 68.587955 83.0336 
L 68.587955 67.680985 
L 67.776318 67.680985 
z
" style="fill:#ffffff;"/>
   </g>
   <g id="patch_138">
    <path clip-path="url(#p84fbd9463b)" d="M 68.587955 83.0336 
L 69.399591 83.0336 
L 69.399591 67.680985 
L 68.587955 67.680985 
z
" style="fill:#ffffff;"/>
   </g>
   <g id="patch_139">
    <path clip-path="url(#p84fbd9463b)" d="M 69.399591 83.0336 
L 70.211227 83.0336 
L 70.211227 68.640523 
L 69.399591 68.640523 
z
" style="fill:#ffffff;"/>
   </g>
   <g id="patch_140">
    <path clip-path="url(#p84fbd9463b)" d="M 70.211227 83.0336 
L 71.022864 83.0336 
L 71.022864 62.883292 
L 70.211227 62.883292 
z
" style="fill:#ffffff;"/>
   </g>
   <g id="patch_141">
    <path clip-path="url(#p84fbd9463b)" d="M 71.022864 83.0336 
L 71.8345 83.0336 
L 71.8345 61.923754 
L 71.022864 61.923754 
z
" style="fill:#ffffff;"/>
   </g>
   <g id="patch_142">
    <path clip-path="url(#p84fbd9463b)" d="M 71.8345 83.0336 
L 72.646136 83.0336 
L 72.646136 62.883292 
L 71.8345 62.883292 
z
" style="fill:#ffffff;"/>
   </g>
   <g id="patch_143">
    <path clip-path="url(#p84fbd9463b)" d="M 72.646136 83.0336 
L 73.457773 83.0336 
L 73.457773 69.600062 
L 72.646136 69.600062 
z
" style="fill:#ffffff;"/>
   </g>
   <g id="patch_144">
    <path clip-path="url(#p84fbd9463b)" d="M 73.457773 83.0336 
L 74.269409 83.0336 
L 74.269409 60.964215 
L 73.457773 60.964215 
z
" style="fill:#ffffff;"/>
   </g>
   <g id="patch_145">
    <path clip-path="url(#p84fbd9463b)" d="M 74.269409 83.0336 
L 75.081045 83.0336 
L 75.081045 62.883292 
L 74.269409 62.883292 
z
" style="fill:#ffffff;"/>
   </g>
   <g id="patch_146">
    <path clip-path="url(#p84fbd9463b)" d="M 75.081045 83.0336 
L 75.892682 83.0336 
L 75.892682 56.166523 
L 75.081045 56.166523 
z
" style="fill:#ffffff;"/>
   </g>
   <g id="patch_147">
    <path clip-path="url(#p84fbd9463b)" d="M 75.892682 83.0336 
L 76.704318 83.0336 
L 76.704318 60.004677 
L 75.892682 60.004677 
z
" style="fill:#ffffff;"/>
   </g>
   <g id="patch_148">
    <path clip-path="url(#p84fbd9463b)" d="M 76.704318 83.0336 
L 77.515955 83.0336 
L 77.515955 48.490215 
L 76.704318 48.490215 
z
" style="fill:#ffffff;"/>
   </g>
   <g id="patch_149">
    <path clip-path="url(#p84fbd9463b)" d="M 77.515955 83.0336 
L 78.327591 83.0336 
L 78.327591 56.166523 
L 77.515955 56.166523 
z
" style="fill:#ffffff;"/>
   </g>
   <g id="patch_150">
    <path clip-path="url(#p84fbd9463b)" d="M 78.327591 83.0336 
L 79.139227 83.0336 
L 79.139227 64.802369 
L 78.327591 64.802369 
z
" style="fill:#ffffff;"/>
   </g>
   <g id="patch_151">
    <path clip-path="url(#p84fbd9463b)" d="M 79.139227 83.0336 
L 79.950864 83.0336 
L 79.950864 47.530677 
L 79.139227 47.530677 
z
" style="fill:#ffffff;"/>
   </g>
   <g id="patch_152">
    <path clip-path="url(#p84fbd9463b)" d="M 79.950864 83.0336 
L 80.7625 83.0336 
L 80.7625 50.409292 
L 79.950864 50.409292 
z
" style="fill:#ffffff;"/>
   </g>
   <g id="patch_153">
    <path clip-path="url(#p84fbd9463b)" d="M 80.7625 83.0336 
L 81.574136 83.0336 
L 81.574136 59.045138 
L 80.7625 59.045138 
z
" style="fill:#ffffff;"/>
   </g>
   <g id="patch_154">
    <path clip-path="url(#p84fbd9463b)" d="M 81.574136 83.0336 
L 82.385773 83.0336 
L 82.385773 52.328369 
L 81.574136 52.328369 
z
" style="fill:#ffffff;"/>
   </g>
   <g id="patch_155">
    <path clip-path="url(#p84fbd9463b)" d="M 82.385773 83.0336 
L 83.197409 83.0336 
L 83.197409 64.802369 
L 82.385773 64.802369 
z
" style="fill:#ffffff;"/>
   </g>
   <g id="patch_156">
    <path clip-path="url(#p84fbd9463b)" d="M 83.197409 83.0336 
L 84.009045 83.0336 
L 84.009045 55.206985 
L 83.197409 55.206985 
z
" style="fill:#ffffff;"/>
   </g>
   <g id="patch_157">
    <path clip-path="url(#p84fbd9463b)" d="M 84.009045 83.0336 
L 84.820682 83.0336 
L 84.820682 53.287908 
L 84.009045 53.287908 
z
" style="fill:#ffffff;"/>
   </g>
   <g id="patch_158">
    <path clip-path="url(#p84fbd9463b)" d="M 84.820682 83.0336 
L 85.632318 83.0336 
L 85.632318 59.045138 
L 84.820682 59.045138 
z
" style="fill:#ffffff;"/>
   </g>
   <g id="patch_159">
    <path clip-path="url(#p84fbd9463b)" d="M 85.632318 83.0336 
L 86.443955 83.0336 
L 86.443955 65.761908 
L 85.632318 65.761908 
z
" style="fill:#ffffff;"/>
   </g>
   <g id="patch_160">
    <path clip-path="url(#p84fbd9463b)" d="M 86.443955 83.0336 
L 87.255591 83.0336 
L 87.255591 62.883292 
L 86.443955 62.883292 
z
" style="fill:#ffffff;"/>
   </g>
   <g id="patch_161">
    <path clip-path="url(#p84fbd9463b)" d="M 87.255591 83.0336 
L 88.067227 83.0336 
L 88.067227 64.802369 
L 87.255591 64.802369 
z
" style="fill:#ffffff;"/>
   </g>
   <g id="patch_162">
    <path clip-path="url(#p84fbd9463b)" d="M 88.067227 83.0336 
L 88.878864 83.0336 
L 88.878864 71.519138 
L 88.067227 71.519138 
z
" style="fill:#ffffff;"/>
   </g>
   <g id="patch_163">
    <path clip-path="url(#p84fbd9463b)" d="M 88.878864 83.0336 
L 89.6905 83.0336 
L 89.6905 66.721446 
L 88.878864 66.721446 
z
" style="fill:#ffffff;"/>
   </g>
   <g id="patch_164">
    <path clip-path="url(#p84fbd9463b)" d="M 89.6905 83.0336 
L 90.502136 83.0336 
L 90.502136 66.721446 
L 89.6905 66.721446 
z
" style="fill:#ffffff;"/>
   </g>
   <g id="patch_165">
    <path clip-path="url(#p84fbd9463b)" d="M 90.502136 83.0336 
L 91.313773 83.0336 
L 91.313773 65.761908 
L 90.502136 65.761908 
z
" style="fill:#ffffff;"/>
   </g>
   <g id="patch_166">
    <path clip-path="url(#p84fbd9463b)" d="M 91.313773 83.0336 
L 92.125409 83.0336 
L 92.125409 70.5596 
L 91.313773 70.5596 
z
" style="fill:#ffffff;"/>
   </g>
   <g id="patch_167">
    <path clip-path="url(#p84fbd9463b)" d="M 92.125409 83.0336 
L 92.937045 83.0336 
L 92.937045 67.680985 
L 92.125409 67.680985 
z
" style="fill:#ffffff;"/>
   </g>
   <g id="patch_168">
    <path clip-path="url(#p84fbd9463b)" d="M 92.937045 83.0336 
L 93.748682 83.0336 
L 93.748682 73.438215 
L 92.937045 73.438215 
z
" style="fill:#ffffff;"/>
   </g>
   <g id="patch_169">
    <path clip-path="url(#p84fbd9463b)" d="M 93.748682 83.0336 
L 94.560318 83.0336 
L 94.560318 70.5596 
L 93.748682 70.5596 
z
" style="fill:#ffffff;"/>
   </g>
   <g id="patch_170">
    <path clip-path="url(#p84fbd9463b)" d="M 94.560318 83.0336 
L 95.371955 83.0336 
L 95.371955 73.438215 
L 94.560318 73.438215 
z
" style="fill:#ffffff;"/>
   </g>
   <g id="patch_171">
    <path clip-path="url(#p84fbd9463b)" d="M 95.371955 83.0336 
L 96.183591 83.0336 
L 96.183591 72.478677 
L 95.371955 72.478677 
z
" style="fill:#ffffff;"/>
   </g>
   <g id="patch_172">
    <path clip-path="url(#p84fbd9463b)" d="M 96.183591 83.0336 
L 96.995227 83.0336 
L 96.995227 71.519138 
L 96.183591 71.519138 
z
" style="fill:#ffffff;"/>
   </g>
   <g id="patch_173">
    <path clip-path="url(#p84fbd9463b)" d="M 96.995227 83.0336 
L 97.806864 83.0336 
L 97.806864 75.357292 
L 96.995227 75.357292 
z
" style="fill:#ffffff;"/>
   </g>
   <g id="patch_174">
    <path clip-path="url(#p84fbd9463b)" d="M 97.806864 83.0336 
L 98.6185 83.0336 
L 98.6185 80.154985 
L 97.806864 80.154985 
z
" style="fill:#ffffff;"/>
   </g>
   <g id="patch_175">
    <path clip-path="url(#p84fbd9463b)" d="M 98.6185 83.0336 
L 99.430136 83.0336 
L 99.430136 73.438215 
L 98.6185 73.438215 
z
" style="fill:#ffffff;"/>
   </g>
   <g id="patch_176">
    <path clip-path="url(#p84fbd9463b)" d="M 99.430136 83.0336 
L 100.241773 83.0336 
L 100.241773 78.235908 
L 99.430136 78.235908 
z
" style="fill:#ffffff;"/>
   </g>
   <g id="patch_177">
    <path clip-path="url(#p84fbd9463b)" d="M 100.241773 83.0336 
L 101.053409 83.0336 
L 101.053409 79.195446 
L 100.241773 79.195446 
z
" style="fill:#ffffff;"/>
   </g>
   <g id="patch_178">
    <path clip-path="url(#p84fbd9463b)" d="M 101.053409 83.0336 
L 101.865045 83.0336 
L 101.865045 80.154985 
L 101.053409 80.154985 
z
" style="fill:#ffffff;"/>
   </g>
   <g id="patch_179">
    <path clip-path="url(#p84fbd9463b)" d="M 101.865045 83.0336 
L 102.676682 83.0336 
L 102.676682 79.195446 
L 101.865045 79.195446 
z
" style="fill:#ffffff;"/>
   </g>
   <g id="patch_180">
    <path clip-path="url(#p84fbd9463b)" d="M 102.676682 83.0336 
L 103.488318 83.0336 
L 103.488318 81.114523 
L 102.676682 81.114523 
z
" style="fill:#ffffff;"/>
   </g>
   <g id="patch_181">
    <path clip-path="url(#p84fbd9463b)" d="M 103.488318 83.0336 
L 104.299955 83.0336 
L 104.299955 82.074062 
L 103.488318 82.074062 
z
" style="fill:#ffffff;"/>
   </g>
   <g id="patch_182">
    <path clip-path="url(#p84fbd9463b)" d="M 104.299955 83.0336 
L 105.111591 83.0336 
L 105.111591 80.154985 
L 104.299955 80.154985 
z
" style="fill:#ffffff;"/>
   </g>
   <g id="patch_183">
    <path clip-path="url(#p84fbd9463b)" d="M 105.111591 83.0336 
L 105.923227 83.0336 
L 105.923227 82.074062 
L 105.111591 82.074062 
z
" style="fill:#ffffff;"/>
   </g>
   <g id="patch_184">
    <path clip-path="url(#p84fbd9463b)" d="M 105.923227 83.0336 
L 106.734864 83.0336 
L 106.734864 81.114523 
L 105.923227 81.114523 
z
" style="fill:#ffffff;"/>
   </g>
   <g id="patch_185">
    <path clip-path="url(#p84fbd9463b)" d="M 106.734864 83.0336 
L 107.5465 83.0336 
L 107.5465 82.074062 
L 106.734864 82.074062 
z
" style="fill:#ffffff;"/>
   </g>
   <g id="patch_186">
    <path clip-path="url(#p84fbd9463b)" d="M 107.5465 83.0336 
L 108.358136 83.0336 
L 108.358136 83.0336 
L 107.5465 83.0336 
z
" style="fill:#ffffff;"/>
   </g>
   <g id="patch_187">
    <path clip-path="url(#p84fbd9463b)" d="M 108.358136 83.0336 
L 109.169773 83.0336 
L 109.169773 83.0336 
L 108.358136 83.0336 
z
" style="fill:#ffffff;"/>
   </g>
   <g id="patch_188">
    <path clip-path="url(#p84fbd9463b)" d="M 109.169773 83.0336 
L 109.981409 83.0336 
L 109.981409 83.0336 
L 109.169773 83.0336 
z
" style="fill:#ffffff;"/>
   </g>
   <g id="patch_189">
    <path clip-path="url(#p84fbd9463b)" d="M 109.981409 83.0336 
L 110.793045 83.0336 
L 110.793045 80.154985 
L 109.981409 80.154985 
z
" style="fill:#ffffff;"/>
   </g>
   <g id="patch_190">
    <path clip-path="url(#p84fbd9463b)" d="M 110.793045 83.0336 
L 111.604682 83.0336 
L 111.604682 83.0336 
L 110.793045 83.0336 
z
" style="fill:#ffffff;"/>
   </g>
   <g id="patch_191">
    <path clip-path="url(#p84fbd9463b)" d="M 111.604682 83.0336 
L 112.416318 83.0336 
L 112.416318 83.0336 
L 111.604682 83.0336 
z
" style="fill:#ffffff;"/>
   </g>
   <g id="patch_192">
    <path clip-path="url(#p84fbd9463b)" d="M 112.416318 83.0336 
L 113.227955 83.0336 
L 113.227955 82.074062 
L 112.416318 82.074062 
z
" style="fill:#ffffff;"/>
   </g>
   <g id="patch_193">
    <path clip-path="url(#p84fbd9463b)" d="M 113.227955 83.0336 
L 114.039591 83.0336 
L 114.039591 83.0336 
L 113.227955 83.0336 
z
" style="fill:#ffffff;"/>
   </g>
   <g id="patch_194">
    <path clip-path="url(#p84fbd9463b)" d="M 114.039591 83.0336 
L 114.851227 83.0336 
L 114.851227 83.0336 
L 114.039591 83.0336 
z
" style="fill:#ffffff;"/>
   </g>
   <g id="patch_195">
    <path clip-path="url(#p84fbd9463b)" d="M 114.851227 83.0336 
L 115.662864 83.0336 
L 115.662864 83.0336 
L 114.851227 83.0336 
z
" style="fill:#ffffff;"/>
   </g>
   <g id="patch_196">
    <path clip-path="url(#p84fbd9463b)" d="M 115.662864 83.0336 
L 116.4745 83.0336 
L 116.4745 83.0336 
L 115.662864 83.0336 
z
" style="fill:#ffffff;"/>
   </g>
   <g id="patch_197">
    <path clip-path="url(#p84fbd9463b)" d="M 116.4745 83.0336 
L 117.286136 83.0336 
L 117.286136 83.0336 
L 116.4745 83.0336 
z
" style="fill:#ffffff;"/>
   </g>
   <g id="patch_198">
    <path clip-path="url(#p84fbd9463b)" d="M 117.286136 83.0336 
L 118.097773 83.0336 
L 118.097773 83.0336 
L 117.286136 83.0336 
z
" style="fill:#ffffff;"/>
   </g>
   <g id="patch_199">
    <path clip-path="url(#p84fbd9463b)" d="M 118.097773 83.0336 
L 118.909409 83.0336 
L 118.909409 83.0336 
L 118.097773 83.0336 
z
" style="fill:#ffffff;"/>
   </g>
   <g id="patch_200">
    <path clip-path="url(#p84fbd9463b)" d="M 118.909409 83.0336 
L 119.721045 83.0336 
L 119.721045 83.0336 
L 118.909409 83.0336 
z
" style="fill:#ffffff;"/>
   </g>
   <g id="patch_201">
    <path clip-path="url(#p84fbd9463b)" d="M 119.721045 83.0336 
L 120.532682 83.0336 
L 120.532682 83.0336 
L 119.721045 83.0336 
z
" style="fill:#ffffff;"/>
   </g>
   <g id="patch_202">
    <path clip-path="url(#p84fbd9463b)" d="M 120.532682 83.0336 
L 121.344318 83.0336 
L 121.344318 83.0336 
L 120.532682 83.0336 
z
" style="fill:#ffffff;"/>
   </g>
   <g id="matplotlib.axis_1">
    <g id="xtick_1">
     <g id="line2d_1">
      <defs>
       <path d="M 0 0 
L 0 3.5 
" id="m29bbff8ec9" style="stroke:#000000;stroke-width:1.5;"/>
      </defs>
      <g>
       <use style="stroke:#000000;stroke-width:1.5;" x="40.180682" xlink:href="#m29bbff8ec9" y="83.0336"/>
      </g>
     </g>
     <g id="text_1">
      <text style="font-family:DejaVu Sans;font-size:8px;font-stretch:normal;font-style:normal;font-weight:normal;text-anchor:middle;" transform="rotate(-0, 40.180682, 96.11235)" x="40.180682" y="96.11235">0</text>
     </g>
    </g>
    <g id="xtick_2">
     <g id="line2d_2">
      <g>
       <use style="stroke:#000000;stroke-width:1.5;" x="94.289773" xlink:href="#m29bbff8ec9" y="83.0336"/>
      </g>
     </g>
     <g id="text_2">
      <text style="font-family:DejaVu Sans;font-size:8px;font-stretch:normal;font-style:normal;font-weight:normal;text-anchor:middle;" transform="rotate(-0, 94.289773, 96.11235)" x="94.289773" y="96.11235">20</text>
     </g>
    </g>
    <g id="text_3">
     <!-- Energy at 11°C ($\mu J/s$) -->
     <g transform="translate(38.6825 107.8561)">
      <text>
       <tspan style="font-family:DejaVu Sans;font-size:8px;font-style:book;font-weight:book;" x="0 5.054688 10.125 15.046875 18.335938 23.414062 28.148438 30.691406 35.59375 38.730469 41.273438 46.363281 51.453125 55.453125 61.039062 63.582031 66.703125 71.792969 74.152344 76.847656 81.015625" y="-0.921875">Energy at 11°C (μJ/s)</tspan>
      </text>
     </g>
    </g>
   </g>
   <g id="matplotlib.axis_2">
    <g id="ytick_1">
     <g id="line2d_3">
      <defs>
       <path d="M 0 0 
L -3.5 0 
" id="md78613e3f5" style="stroke:#000000;stroke-width:1.5;"/>
      </defs>
      <g>
       <use style="stroke:#000000;stroke-width:1.5;" x="36.1225" xlink:href="#md78613e3f5" y="83.0336"/>
      </g>
     </g>
     <g id="text_4">
      <text style="font-family:DejaVu Sans;font-size:8px;font-stretch:normal;font-style:normal;font-weight:normal;text-anchor:end;" transform="rotate(-0, 29.1225, 86.072975)" x="29.1225" y="86.072975">0</text>
     </g>
    </g>
    <g id="ytick_2">
     <g id="line2d_4">
      <g>
       <use style="stroke:#000000;stroke-width:1.5;" x="36.1225" xlink:href="#md78613e3f5" y="63.842831"/>
      </g>
     </g>
     <g id="text_5">
      <text style="font-family:DejaVu Sans;font-size:8px;font-stretch:normal;font-style:normal;font-weight:normal;text-anchor:end;" transform="rotate(-0, 29.1225, 66.882206)" x="29.1225" y="66.882206">20</text>
     </g>
    </g>
    <g id="ytick_3">
     <g id="line2d_5">
      <g>
       <use style="stroke:#000000;stroke-width:1.5;" x="36.1225" xlink:href="#md78613e3f5" y="44.652062"/>
      </g>
     </g>
     <g id="text_6">
      <text style="font-family:DejaVu Sans;font-size:8px;font-stretch:normal;font-style:normal;font-weight:normal;text-anchor:end;" transform="rotate(-0, 29.1225, 47.691437)" x="29.1225" y="47.691437">40</text>
     </g>
    </g>
    <g id="text_7">
     <text style="font-family:DejaVu Sans;font-size:8px;font-stretch:normal;font-style:normal;font-weight:normal;text-anchor:middle;" transform="rotate(-90, 13.27875, 58.0856)" x="13.27875" y="58.0856">Count</text>
    </g>
   </g>
   <g id="line2d_6">
    <path clip-path="url(#p84fbd9463b)" d="M 40.5865 83.0336 
L 41.398136 83.0336 
L 42.209773 83.0336 
L 43.021409 83.0336 
L 43.833045 83.0336 
L 44.644682 83.0336 
L 45.456318 83.0336 
L 46.267955 83.0336 
L 47.079591 83.0336 
L 47.891227 83.0336 
L 48.702864 83.0336 
L 49.5145 83.0336 
L 50.326136 83.0336 
L 51.137773 83.0336 
L 51.949409 83.0336 
L 52.761045 83.0336 
L 53.572682 82.074062 
L 54.384318 83.0336 
L 55.195955 83.0336 
L 56.007591 83.0336 
L 56.819227 82.074062 
L 57.630864 82.074062 
L 58.4425 81.114523 
L 59.254136 77.276369 
L 60.065773 80.154985 
L 60.877409 77.276369 
L 61.689045 77.276369 
L 62.500682 76.316831 
L 63.312318 69.600062 
L 64.123955 70.5596 
L 64.935591 74.397754 
L 65.747227 72.478677 
L 66.558864 70.5596 
L 67.3705 61.923754 
L 68.182136 64.802369 
L 68.993773 63.842831 
L 69.805409 63.842831 
L 70.617045 67.680985 
L 71.428682 60.964215 
L 72.240318 58.0856 
L 73.051955 60.004677 
L 73.863591 59.045138 
L 74.675227 56.166523 
L 75.486864 56.166523 
L 76.2985 60.004677 
L 77.110136 49.449754 
L 77.921773 48.490215 
L 78.733409 64.802369 
L 79.545045 52.328369 
L 80.356682 56.166523 
L 81.168318 60.964215 
L 81.979955 58.0856 
L 82.791591 60.004677 
L 83.603227 64.802369 
L 84.414864 60.964215 
L 85.2265 59.045138 
L 86.038136 57.126062 
L 86.849773 59.045138 
L 87.661409 61.923754 
L 88.473045 69.600062 
L 89.284682 63.842831 
L 90.096318 71.519138 
L 90.907955 71.519138 
L 91.719591 69.600062 
L 92.531227 76.316831 
L 93.342864 64.802369 
L 94.1545 75.357292 
L 94.966136 76.316831 
L 95.777773 73.438215 
L 96.589409 75.357292 
L 97.401045 77.276369 
L 98.212682 80.154985 
L 99.024318 80.154985 
L 99.835955 77.276369 
L 100.647591 77.276369 
L 101.459227 82.074062 
L 102.270864 80.154985 
L 103.0825 81.114523 
L 103.894136 82.074062 
L 104.705773 79.195446 
L 105.517409 83.0336 
L 106.329045 83.0336 
L 107.140682 83.0336 
L 107.952318 82.074062 
L 108.763955 83.0336 
L 109.575591 83.0336 
L 110.387227 82.074062 
L 111.198864 83.0336 
L 112.0105 83.0336 
L 112.822136 83.0336 
L 113.633773 83.0336 
L 114.445409 83.0336 
L 115.257045 83.0336 
L 116.068682 83.0336 
L 116.880318 83.0336 
L 117.691955 83.0336 
L 118.503591 83.0336 
L 119.315227 83.0336 
L 120.126864 83.0336 
L 120.9385 83.0336 
" style="fill:none;stroke:#1b7837;stroke-linecap:square;stroke-width:1.5;"/>
   </g>
   <g id="line2d_7">
    <path clip-path="url(#p84fbd9463b)" d="M 40.5865 83.0336 
L 41.398136 83.0336 
L 42.209773 83.0336 
L 43.021409 83.0336 
L 43.833045 83.0336 
L 44.644682 83.0336 
L 45.456318 83.0336 
L 46.267955 83.0336 
L 47.079591 83.0336 
L 47.891227 83.0336 
L 48.702864 83.0336 
L 49.5145 83.0336 
L 50.326136 83.0336 
L 51.137773 83.0336 
L 51.949409 83.0336 
L 52.761045 83.0336 
L 53.572682 82.074062 
L 54.384318 83.0336 
L 55.195955 83.0336 
L 56.007591 81.114523 
L 56.819227 83.0336 
L 57.630864 82.074062 
L 58.4425 80.154985 
L 59.254136 82.074062 
L 60.065773 79.195446 
L 60.877409 78.235908 
L 61.689045 77.276369 
L 62.500682 75.357292 
L 63.312318 76.316831 
L 64.123955 76.316831 
L 64.935591 72.478677 
L 65.747227 66.721446 
L 66.558864 65.761908 
L 67.3705 68.640523 
L 68.182136 67.680985 
L 68.993773 67.680985 
L 69.805409 68.640523 
L 70.617045 62.883292 
L 71.428682 61.923754 
L 72.240318 62.883292 
L 73.051955 69.600062 
L 73.863591 60.964215 
L 74.675227 62.883292 
L 75.486864 56.166523 
L 76.2985 60.004677 
L 77.110136 48.490215 
L 77.921773 56.166523 
L 78.733409 64.802369 
L 79.545045 47.530677 
L 80.356682 50.409292 
L 81.168318 59.045138 
L 81.979955 52.328369 
L 82.791591 64.802369 
L 83.603227 55.206985 
L 84.414864 53.287908 
L 85.2265 59.045138 
L 86.038136 65.761908 
L 86.849773 62.883292 
L 87.661409 64.802369 
L 88.473045 71.519138 
L 89.284682 66.721446 
L 90.096318 66.721446 
L 90.907955 65.761908 
L 91.719591 70.5596 
L 92.531227 67.680985 
L 93.342864 73.438215 
L 94.1545 70.5596 
L 94.966136 73.438215 
L 95.777773 72.478677 
L 96.589409 71.519138 
L 97.401045 75.357292 
L 98.212682 80.154985 
L 99.024318 73.438215 
L 99.835955 78.235908 
L 100.647591 79.195446 
L 101.459227 80.154985 
L 102.270864 79.195446 
L 103.0825 81.114523 
L 103.894136 82.074062 
L 104.705773 80.154985 
L 105.517409 82.074062 
L 106.329045 81.114523 
L 107.140682 82.074062 
L 107.952318 83.0336 
L 108.763955 83.0336 
L 109.575591 83.0336 
L 110.387227 80.154985 
L 111.198864 83.0336 
L 112.0105 83.0336 
L 112.822136 82.074062 
L 113.633773 83.0336 
L 114.445409 83.0336 
L 115.257045 83.0336 
L 116.068682 83.0336 
L 116.880318 83.0336 
L 117.691955 83.0336 
L 118.503591 83.0336 
L 119.315227 83.0336 
L 120.126864 83.0336 
L 120.9385 83.0336 
" style="fill:none;stroke:#762a83;stroke-linecap:square;stroke-width:1.5;"/>
   </g>
   <g id="patch_203">
    <path d="M 36.1225 83.0336 
L 36.1225 33.1376 
" style="fill:none;stroke:#000000;stroke-linecap:square;stroke-linejoin:miter;stroke-width:1.5;"/>
   </g>
   <g id="patch_204">
    <path d="M 36.1225 83.0336 
L 125.4025 83.0336 
" style="fill:none;stroke:#000000;stroke-linecap:square;stroke-linejoin:miter;stroke-width:1.5;"/>
   </g>
   <g id="legend_1">
    <g id="line2d_8">
     <path d="M 42.67125 13.67875 
L 49.07125 13.67875 
" style="fill:none;stroke:#1b7837;stroke-linecap:square;stroke-width:1.5;"/>
    </g>
    <g id="line2d_9"/>
    <g id="text_8">
     <text style="font-family:DejaVu Sans;font-size:8px;font-stretch:normal;font-style:normal;font-weight:normal;text-anchor:start;" transform="rotate(-0, 51.47125, 16.47875)" x="51.47125" y="16.47875">Fitted at 11°C</text>
    </g>
    <g id="line2d_10">
     <path d="M 42.67125 30.73225 
L 49.07125 30.73225 
" style="fill:none;stroke:#762a83;stroke-linecap:square;stroke-width:1.5;"/>
    </g>
    <g id="line2d_11"/>
    <g id="text_9">
     <text style="font-family:DejaVu Sans;font-size:8px;font-stretch:normal;font-style:normal;font-weight:normal;" transform="translate(51.47125 28.22125)">Fitted at 11°C &amp; </text>
     <text style="font-family:DejaVu Sans;font-size:8px;font-stretch:normal;font-style:normal;font-weight:normal;" transform="translate(51.47125 37.1795)">robust at 27°C</text>
    </g>
   </g>
  </g>
 </g>
 <defs>
  <clipPath id="p84fbd9463b">
   <rect height="49.896" width="89.28" x="36.1225" y="33.1376"/>
  </clipPath>
 </defs>
</svg>
