<?xml version="1.0" encoding="utf-8" standalone="no"?>
<!DOCTYPE svg PUBLIC "-//W3C//DTD SVG 1.1//EN"
  "http://www.w3.org/Graphics/SVG/1.1/DTD/svg11.dtd">
<!-- Created with matplotlib (https://matplotlib.org/) -->
<svg height="78.156pt" version="1.1" viewBox="0 0 126 78.156" width="126pt" xmlns="http://www.w3.org/2000/svg" xmlns:xlink="http://www.w3.org/1999/xlink">
 <metadata>
  <rdf:RDF xmlns:cc="http://creativecommons.org/ns#" xmlns:dc="http://purl.org/dc/elements/1.1/" xmlns:rdf="http://www.w3.org/1999/02/22-rdf-syntax-ns#">
   <cc:Work>
    <dc:type rdf:resource="http://purl.org/dc/dcmitype/StillImage"/>
    <dc:date>2021-01-26T08:58:02.787467</dc:date>
    <dc:format>image/svg+xml</dc:format>
    <dc:creator>
     <cc:Agent>
      <dc:title>Matplotlib v3.3.2, https://matplotlib.org/</dc:title>
     </cc:Agent>
    </dc:creator>
   </cc:Work>
  </rdf:RDF>
 </metadata>
 <defs>
  <style type="text/css">*{stroke-linecap:butt;stroke-linejoin:round;}</style>
 </defs>
 <g id="figure_1">
  <g id="patch_1">
   <path d="M 0 78.156 
L 126 78.156 
L 126 0 
L 0 0 
z
" style="fill:none;"/>
  </g>
  <g id="axes_1">
   <g id="patch_2">
    <path d="M 7.2 70.956 
L 118.8 70.956 
L 118.8 7.2 
L 7.2 7.2 
z
" style="fill:none;"/>
   </g>
   <g id="matplotlib.axis_1"/>
   <g id="matplotlib.axis_2"/>
   <g id="line2d_1">
    <path clip-path="url(#p37ef4d4b7a)" d="M 12.272727 26.39248 
L 12.343185 26.272714 
L 12.399551 26.301881 
L 12.531073 26.261225 
L 12.629713 26.225006 
L 12.606228 26.283772 
L 12.643805 26.252838 
L 12.756538 26.227626 
L 12.761235 26.21034 
L 12.878664 26.035156 
L 12.897453 26.062707 
L 13.104129 26.175836 
L 13.193376 26.060701 
L 13.226256 26.10979 
L 13.259137 26.125883 
L 13.296714 26.027548 
L 13.456418 25.853036 
L 13.846285 25.70827 
L 13.893257 25.668882 
L 13.865074 25.726519 
L 13.959017 25.703536 
L 13.977806 25.744278 
L 14.043567 25.603276 
L 14.048264 25.612223 
L 14.301912 25.469038 
L 14.409947 25.323415 
L 14.428736 25.355778 
L 14.532074 25.390551 
L 14.456919 25.320103 
L 14.541469 25.375008 
L 14.776328 25.120286 
L 14.781025 25.124991 
L 15.025279 25.081496 
L 15.1568 24.951881 
L 15.161497 24.96591 
L 15.24135 25.015037 
L 15.278927 24.969387 
L 15.438631 24.844657 
L 15.462117 24.893609 
L 15.546667 24.894906 
L 15.570153 24.852181 
L 15.645308 24.83273 
L 15.612427 24.876181 
L 15.673491 24.87413 
L 15.79092 24.936309 
L 15.795618 24.93462 
L 16.998098 24.183448 
L 17.021583 24.226868 
L 17.054464 24.262403 
L 17.124922 24.197026 
L 17.251746 24.162427 
L 17.134316 24.213295 
L 17.265837 24.178727 
L 17.491302 24.15167 
L 17.495999 24.135637 
L 17.622823 24.057241 
L 17.627521 24.073515 
L 17.749648 24.059129 
L 17.782528 24.012367 
L 17.806014 24.072054 
L 17.86238 24.040043 
L 17.876472 24.081162 
L 17.951627 23.997507 
L 18.04557 23.860118 
L 18.078451 23.904345 
L 18.200577 23.798518 
L 18.416648 23.401784 
L 18.519986 23.456614 
L 18.440134 23.375896 
L 18.534078 23.429187 
L 18.58105 23.447176 
L 18.552867 23.48172 
L 18.623324 23.490119 
L 18.628021 23.511107 
L 18.707874 23.417686 
L 18.717268 23.416214 
L 18.76424 23.414344 
L 18.792423 23.333434 
L 18.801817 23.343536 
L 19.445332 22.538645 
L 19.58155 21.144233 
L 19.595642 13.792678 
L 19.600339 9.810062 
L 19.637917 25.184601 
L 19.694283 23.655193 
L 19.78353 20.208588 
L 19.792924 9.504155 
L 19.830501 25.749849 
L 19.891565 23.905013 
L 19.980811 18.165991 
L 19.985509 9.617514 
L 20.023086 25.972975 
L 20.08415 24.272561 
L 20.192185 18.355262 
L 20.196882 9.756865 
L 20.23446 26.045958 
L 20.295523 24.44656 
L 20.422347 17.835113 
L 20.427044 9.737625 
L 20.464622 26.120506 
L 20.525685 24.602651 
L 20.666601 20.532553 
L 20.675995 9.808108 
L 20.713573 26.12624 
L 20.769939 24.833826 
L 20.948432 19.644722 
L 20.957826 9.810067 
L 20.990707 26.085441 
L 21.05177 24.773752 
L 21.249052 19.130534 
L 21.258446 10.071922 
L 21.291327 26.074999 
L 21.35239 24.734584 
L 21.577855 18.290247 
L 21.587249 10.490081 
L 21.62013 26.007981 
L 21.681193 24.696202 
L 21.939538 19.48298 
L 21.948933 10.060757 
L 21.98651 25.99877 
L 22.042877 24.768645 
L 22.249553 22.532939 
L 22.366982 21.214797 
L 22.381074 17.114297 
L 22.385771 10.64576 
L 22.423349 25.950441 
L 22.484412 24.674385 
L 22.6723 22.845876 
L 22.88837 20.664572 
L 22.902462 10.225851 
L 22.940039 25.888486 
L 22.977617 25.115633 
L 23.184293 23.003795 
L 23.18899 23.005634 
L 23.198385 23.032575 
L 23.240659 22.91686 
L 23.348695 22.765913 
L 23.395666 22.800207 
L 23.480216 22.795582 
L 23.405061 22.80983 
L 23.508399 22.822396 
L 23.686892 23.081552 
L 23.691589 23.071052 
L 23.696286 23.043308 
L 23.75735 23.290112 
L 23.762047 23.286022 
L 24.480717 24.943278 
L 24.579358 24.986258 
L 24.499505 24.996564 
L 24.588752 25.019438 
L 24.720273 25.159175 
L 24.753154 25.127444 
L 24.814217 25.190712 
L 24.87528 25.29133 
L 24.936344 25.233072 
L 25.438943 25.317838 
L 25.453034 25.313846 
L 25.565767 25.429392 
L 25.570464 25.416774 
L 25.640922 25.54315 
L 25.77714 25.737569 
L 25.810021 25.927707 
L 26.021394 26.451514 
L 26.04488 26.479095 
L 26.148218 26.401777 
L 26.284437 26.550849 
L 26.171704 26.393471 
L 26.289134 26.539661 
L 26.491113 26.601625 
L 26.31262 26.51075 
L 26.500507 26.58831 
L 26.636726 26.549235 
L 27.068867 26.577811 
L 27.073564 26.550266 
L 27.144022 26.439747 
L 27.200388 26.535673 
L 27.317818 26.600753 
L 27.327212 26.592709 
L 27.585557 26.479699 
L 27.646621 26.556075 
L 27.702987 26.525224 
L 27.73117 26.550039 
L 27.839206 26.508608 
L 27.886177 26.561802 
L 27.961332 26.514969 
L 28.027093 26.452538 
L 28.078762 26.500463 
L 28.092854 26.532091 
L 28.135128 26.394318 
L 28.1821 26.449762 
L 28.524995 26.520901 
L 28.647122 26.617881 
L 28.651819 26.598488 
L 28.712882 26.500064 
L 28.773946 26.594898 
L 28.811523 26.603201 
L 28.839706 26.545666 
L 28.863192 26.536141 
L 28.985319 26.392974 
L 28.990016 26.407869 
L 29.098052 26.312119 
L 29.126235 26.32382 
L 29.140326 26.349111 
L 29.163812 26.250532 
L 29.220179 26.25241 
L 29.243664 26.184921 
L 29.285939 26.293161 
L 29.318819 26.282089 
L 29.426855 26.390902 
L 29.445644 26.379764 
L 29.65232 26.306077 
L 29.675806 26.383533 
L 29.769749 26.332881 
L 29.915362 26.181751 
L 29.934151 26.224969 
L 30.793736 25.660855 
L 30.798433 25.683324 
L 30.803131 25.690293 
L 30.8548 25.585225 
L 30.864194 25.589596 
L 30.981624 25.51761 
L 30.873588 25.593966 
L 30.995715 25.539211 
L 31.122539 25.622887 
L 31.230575 25.5551 
L 31.249363 25.573149 
L 31.437251 25.463333 
L 31.582864 25.233386 
L 31.723779 25.157452 
L 31.878786 24.975001 
L 32.033794 24.833345 
L 31.916364 24.995719 
L 32.043188 24.836703 
L 32.094857 24.835714 
L 32.104251 24.897162 
L 32.118343 24.908869 
L 32.226378 24.979305 
L 32.127737 24.898496 
L 32.249864 24.955434 
L 32.353202 24.839023 
L 32.376688 24.889955 
L 32.75716 24.873393 
L 32.822921 24.765163 
L 32.775949 24.879436 
L 32.893379 24.797409 
L 33.067175 24.580871 
L 33.081266 24.60109 
L 33.137633 24.515494 
L 33.161119 24.537033 
L 33.3584 24.184639 
L 33.405372 24.244524 
L 33.504013 24.352196 
L 33.424161 24.222883 
L 33.541591 24.315698 
L 33.616746 24.237957 
L 33.663718 24.276918 
L 33.677809 24.326657 
L 33.738873 24.208055 
L 33.771753 24.257514 
L 33.785844 24.269545 
L 33.903274 24.204539 
L 33.964338 24.279457 
L 34.025401 24.255226 
L 34.22738 24.11148 
L 34.232077 24.133716 
L 34.279049 24.137126 
L 34.297838 24.078295 
L 34.321324 24.066173 
L 34.401176 24.002906 
L 34.330718 24.079673 
L 34.443451 24.059147 
L 34.504514 24.093085 
L 34.452845 24.043378 
L 34.542092 24.018348 
L 34.565578 23.992218 
L 34.621944 24.083794 
L 34.697099 24.106494 
L 34.636035 24.047848 
L 34.725282 24.074083 
L 34.772254 24.055846 
L 34.786345 24.121937 
L 34.833317 24.087288 
L 34.852106 24.049984 
L 34.960141 24.153106 
L 35.105754 23.97797 
L 35.213789 23.920812 
L 35.227881 23.978487 
L 35.298339 23.97162 
L 35.27955 23.933143 
L 35.331219 23.950047 
L 35.472135 23.824732 
L 35.340613 23.957683 
L 35.490923 23.865904 
L 35.500318 23.889758 
L 35.575473 23.790506 
L 35.584867 23.83616 
L 35.73048 23.6327 
L 36.505516 22.336144 
L 36.585368 21.358982 
L 36.59946 19.283841 
L 36.608854 9.806253 
L 36.641734 25.189098 
L 36.707495 23.496695 
L 36.792044 20.450276 
L 36.801439 9.573859 
L 36.839016 25.69708 
L 36.895382 24.030495 
L 36.989326 17.632488 
L 36.994023 9.535318 
L 37.031601 25.934083 
L 37.092664 24.188665 
L 37.186608 20.000417 
L 37.196002 9.615904 
L 37.228883 26.092062 
L 37.294643 24.4276 
L 37.407376 20.394506 
L 37.41677 9.486987 
L 37.454348 26.116405 
L 37.510714 24.689113 
L 37.656327 18.596152 
L 37.661024 10.253969 
L 37.698601 26.095127 
L 37.759665 24.660296 
L 37.919369 19.763301 
L 37.928764 9.756707 
L 37.966341 26.093499 
L 38.022707 24.800092 
L 38.219989 19.928434 
L 38.229384 9.821683 
L 38.266961 26.053791 
L 38.323327 24.785817 
L 38.548792 18.071111 
L 38.558187 10.548557 
L 38.591067 26.015739 
L 38.65213 24.713901 
L 38.901081 18.537469 
L 38.910476 10.325963 
L 38.948053 26.028177 
L 39.004419 24.763831 
L 39.225187 22.391151 
L 39.305039 20.808678 
L 39.319131 9.982119 
L 39.356708 25.973862 
L 39.389589 25.348663 
L 39.676117 22.306102 
L 39.779455 21.053412 
L 39.798244 10.251455 
L 39.831124 25.911866 
L 39.835822 25.899193 
L 40.225688 22.468777 
L 40.230385 22.479959 
L 40.277357 22.309117 
L 40.408878 22.109309 
L 40.512216 20.846704 
L 40.526308 10.87195 
L 40.563886 25.82891 
L 40.587371 25.474137 
L 40.779956 23.433483 
L 40.887991 23.251575 
L 40.916175 23.292218 
L 40.949055 23.187001 
L 41.033604 23.298427 
L 41.179217 23.602413 
L 41.183914 23.59112 
L 41.343619 23.870171 
L 41.503323 24.279133 
L 41.50802 24.267799 
L 41.554992 24.43107 
L 41.69121 24.657019 
L 41.700605 24.644052 
L 42.118654 25.177344 
L 42.170324 25.236333 
L 42.231387 25.178887 
L 42.400486 25.291523 
L 42.405183 25.271709 
L 42.40988 25.261251 
L 42.433366 25.373227 
L 42.494429 25.321568 
L 42.517915 25.394565 
L 42.611859 25.338523 
L 42.635345 25.372381 
L 42.687014 25.260869 
L 42.724592 25.331999 
L 42.790352 25.264214 
L 42.842021 25.366947 
L 42.865507 25.397426 
L 42.921873 25.269517 
L 43.044 25.183198 
L 43.072183 25.270138 
L 43.175522 25.32693 
L 43.189613 25.302471 
L 43.199008 25.291515 
L 43.222493 25.385058 
L 43.231888 25.38743 
L 43.654635 26.527988 
L 43.748578 26.487615 
L 43.678121 26.550272 
L 43.76267 26.527139 
L 43.781459 26.593821 
L 43.8801 26.531855 
L 43.922374 26.592675 
L 44.044501 26.463875 
L 44.09617 26.518519 
L 44.147839 26.423066 
L 44.335727 26.591611 
L 44.382699 26.534215 
L 44.523614 26.443848 
L 44.617558 26.562903 
L 44.650438 26.492298 
L 45.951559 26.41996 
L 45.956256 26.404883 
L 46.003228 26.495634 
L 46.040806 26.500657 
L 46.806447 26.485547 
L 47.13525 26.26915 
L 47.154039 26.290647 
L 47.196314 26.363474 
L 47.262074 26.285868 
L 47.398293 26.157449 
L 47.52042 26.105718 
L 47.67073 25.972787 
L 48.116962 25.55149 
L 47.684821 25.998935 
L 48.12166 25.570357 
L 48.239089 25.463682 
L 48.281364 25.513223 
L 48.356519 25.4531 
L 48.436371 25.360781 
L 48.464554 25.391928 
L 48.586681 25.33772 
L 48.628956 25.384434 
L 48.652442 25.312044 
L 48.699414 25.350265 
L 48.816843 25.356588 
L 48.821541 25.361956 
L 48.868512 25.342838 
L 48.896696 25.28293 
L 49.84083 24.75422 
L 49.854922 24.792432 
L 49.859619 24.816063 
L 49.948865 24.703271 
L 50.042809 24.656873 
L 49.962957 24.682717 
L 50.047506 24.645118 
L 50.188422 24.520596 
L 50.371612 24.391567 
L 50.37631 24.398543 
L 50.489042 24.434247 
L 50.427979 24.38371 
L 50.498436 24.431204 
L 50.737993 24.343021 
L 50.756782 24.392951 
L 50.766176 24.431041 
L 50.813148 24.354222 
L 50.86012 24.35532 
L 51.005733 24.230365 
L 51.062099 24.110065 
L 51.203014 23.965342 
L 51.094979 24.143982 
L 51.212409 24.006873 
L 51.353324 24.088033 
L 51.987445 24.038148 
L 52.0626 24.080858 
L 52.09548 24.047898 
L 52.236396 23.884095 
L 52.241093 23.89364 
L 52.27867 23.852526 
L 52.372614 23.92099 
L 52.438375 23.977159 
L 52.485347 23.902816 
L 52.612171 23.729522 
L 52.51353 23.912643 
L 52.626262 23.756657 
L 52.757783 23.647061 
L 52.898699 23.457733 
L 52.969157 23.51757 
L 53.011432 23.455748 
L 53.119467 23.34697 
L 53.218108 23.277047 
L 53.246291 23.302969 
L 53.645552 22.861254 
L 53.255685 23.313454 
L 53.654946 22.878914 
L 53.664341 22.921733 
L 53.74889 22.747884 
L 53.93208 21.808138 
L 53.960263 20.484095 
L 53.974355 10.046756 
L 54.007235 25.227048 
L 54.058904 23.928664 
L 54.162242 20.18889 
L 54.171637 9.515011 
L 54.204517 25.742142 
L 54.26558 24.060763 
L 54.364221 19.274147 
L 54.373616 10.059961 
L 54.406496 25.97351 
L 54.472257 24.201358 
L 54.575595 20.48816 
L 54.584989 9.536648 
L 54.622567 26.052368 
L 54.678933 24.568552 
L 54.810454 18.284569 
L 54.815151 9.915002 
L 54.852729 26.118879 
L 54.913792 24.604737 
L 55.064102 19.875564 
L 55.073497 9.687901 
L 55.111074 26.103403 
L 55.16744 24.75226 
L 55.341236 20.527469 
L 55.350631 10.375473 
L 55.388208 26.090624 
L 55.439877 24.938503 
L 55.641856 19.93965 
L 55.651251 9.769745 
L 55.688828 26.081231 
L 55.745194 24.81139 
L 55.975357 18.52767 
L 55.984751 10.372469 
L 56.017631 26.027691 
L 56.078695 24.749082 
L 56.341737 19.608898 
L 56.351132 10.003148 
L 56.388709 25.998554 
L 56.445075 24.76026 
L 56.675237 22.28321 
L 56.703421 22.026834 
L 56.75509 20.920573 
L 56.769181 10.75376 
L 56.806759 25.936821 
L 56.830245 25.559482 
L 57.046315 22.801824 
L 57.243597 21.055356 
L 57.262386 10.199673 
L 57.299963 25.913863 
L 57.35633 24.723557 
L 57.53952 23.078682 
L 57.577097 22.980626 
L 57.727407 22.5781 
L 57.736802 22.589024 
L 57.797865 22.567445 
L 57.84014 22.604261 
L 57.99045 22.906157 
L 57.995147 22.897403 
L 58.347436 23.672315 
L 58.497746 24.005543 
L 58.530626 24.110132 
L 59.005042 24.843544 
L 59.014437 24.806608 
L 59.028528 24.795035 
L 59.080197 24.913047 
L 59.235204 25.176291 
L 59.639163 25.63144 
L 59.653254 25.612656 
L 59.878719 25.649499 
L 59.883416 25.634478 
L 60.029029 25.698673 
L 60.061909 25.601924 
L 60.151156 25.605237 
L 60.118276 25.649217 
L 60.174642 25.61925 
L 60.541023 26.338628 
L 60.592692 26.425767 
L 60.639663 26.361961 
L 60.775882 26.469371 
L 60.799368 26.450159 
L 60.832248 26.508057 
L 60.87922 26.498653 
L 60.935586 26.538312 
L 60.916797 26.460494 
L 60.982558 26.487845 
L 60.987255 26.454663 
L 61.067107 26.536008 
L 61.090593 26.51237 
L 61.358333 26.443332 
L 61.36303 26.468104 
L 61.682439 26.510511 
L 61.799869 26.603165 
L 61.804566 26.598692 
L 62.015939 26.624741 
L 62.020636 26.608986 
L 62.077003 26.645846 
L 62.147461 26.521596 
L 62.269587 26.411709 
L 62.161552 26.525657 
L 62.274285 26.420997 
L 62.387017 26.426566 
L 62.405806 26.44786 
L 62.884919 26.416891 
L 62.922496 26.430076 
L 62.960074 26.340677 
L 62.988257 26.373359 
L 63.190236 26.593601 
L 63.213722 26.576273 
L 63.425095 26.451289 
L 63.429793 26.477095 
L 63.43449 26.49774 
L 63.481462 26.436968 
L 63.537828 26.455973 
L 63.796173 26.376228 
L 63.88542 26.491927 
L 63.913603 26.447582 
L 64.388019 26.303039 
L 64.392716 26.329737 
L 64.505448 26.408282 
L 64.538329 26.339692 
L 64.655758 26.236962 
L 64.66985 26.242069 
L 64.740308 26.266142 
L 64.712125 26.213767 
L 64.773188 26.218642 
L 64.900012 26.151945 
L 64.909407 26.195145 
L 64.956378 26.034751 
L 64.993956 26.043091 
L 65.623379 25.49845 
L 65.632773 25.522426 
L 65.881724 25.373153 
L 65.999154 25.299788 
L 66.003851 25.314863 
L 66.008548 25.333149 
L 66.074309 25.20785 
L 66.088401 25.209067 
L 66.102492 25.164549 
L 66.238711 25.191282 
L 66.346746 25.059887 
L 66.398415 25.102257 
L 66.722521 24.976199 
L 66.746007 24.975708 
L 66.788281 24.895237 
L 66.792979 24.899754 
L 66.952683 24.747451 
L 66.811767 24.922052 
L 66.962077 24.771491 
L 67.098296 24.764995 
L 67.196937 24.639474 
L 67.234514 24.666364 
L 67.309669 24.711696 
L 67.267395 24.658118 
L 67.34255 24.672556 
L 67.539831 24.401663 
L 67.553923 24.421817 
L 67.600895 24.466952 
L 67.661958 24.405779 
L 68.4276 23.945979 
L 67.671353 24.434061 
L 68.474572 24.030614 
L 68.483966 24.035606 
L 68.521544 23.94436 
L 68.540332 23.937745 
L 68.653065 23.834043 
L 68.671853 23.849672 
L 68.72822 23.750329 
L 68.869135 23.58096 
L 68.892621 23.632017 
L 68.958382 23.510126 
L 69.240213 23.303184 
L 69.24491 23.315172 
L 69.287185 23.325119 
L 69.320065 23.255292 
L 69.338854 23.275581 
L 69.484467 23.145024 
L 69.564319 23.008566 
L 69.789784 22.381177 
L 69.874333 21.106706 
L 69.893122 9.827001 
L 69.926002 25.146741 
L 69.944791 24.805916 
L 70.066918 18.269642 
L 70.071615 9.711461 
L 70.109193 25.688467 
L 70.174953 23.630354 
L 70.245411 18.932747 
L 70.250108 9.749382 
L 70.287686 25.967492 
L 70.353446 24.027658 
L 70.437996 18.912437 
L 70.442693 9.786658 
L 70.480271 26.081842 
L 70.546031 24.245693 
L 70.649369 18.579721 
L 70.654066 9.841982 
L 70.691644 26.097843 
L 70.752707 24.495642 
L 70.879531 20.23076 
L 70.888926 9.539351 
L 70.921806 26.121853 
L 70.98287 24.698536 
L 71.137877 19.905416 
L 71.147271 9.692937 
L 71.184849 26.08685 
L 71.241215 24.71281 
L 71.410314 18.115704 
L 71.415011 10.23644 
L 71.452588 26.092563 
L 71.513652 24.685611 
L 71.706236 19.37691 
L 71.715631 9.988152 
L 71.748511 26.0541 
L 71.809575 24.772924 
L 72.030342 20.178607 
L 72.039737 10.100534 
L 72.077314 26.041967 
L 72.13368 24.822793 
L 72.349751 22.15625 
L 72.40142 20.96866 
L 72.420209 10.630317 
L 72.453089 25.970889 
L 72.471878 25.697811 
L 72.70204 22.686122 
L 72.706737 22.694607 
L 72.899322 21.188896 
L 72.913413 17.323387 
L 72.918111 10.805728 
L 72.955688 25.910873 
L 73.016752 24.646101 
L 73.232822 22.780146 
L 73.580414 21.469729 
L 73.6039 17.993099 
L 73.613294 10.742291 
L 73.646175 25.880633 
L 73.707238 24.671652 
L 73.895126 23.153463 
L 73.998464 23.112721 
L 74.02195 23.126154 
L 74.144077 23.199263 
L 74.036041 23.108218 
L 74.153471 23.18208 
L 74.195746 23.128723 
L 74.252112 23.236319 
L 74.256809 23.22835 
L 74.270901 23.221163 
L 74.402422 23.4177 
L 74.407119 23.398768 
L 74.468182 23.551838 
L 74.482274 23.545148 
L 74.858049 24.548049 
L 74.886232 24.517526 
L 74.951993 24.621521 
L 75.163366 24.961486 
L 75.266704 24.905116 
L 75.304282 24.933495 
L 75.468683 25.106723 
L 75.543838 25.194033 
L 75.802184 25.237155 
L 75.806881 25.219264 
L 75.896127 25.312112 
L 75.900825 25.303522 
L 75.938402 25.387018 
L 75.980677 25.38116 
L 76.098106 25.518012 
L 76.107501 25.492759 
L 76.112198 25.475154 
L 76.196747 25.549765 
L 76.206142 25.548945 
L 76.295388 25.54092 
L 76.314177 25.511483 
L 76.323571 25.503472 
L 76.384635 25.586885 
L 76.398726 25.553671 
L 76.558431 26.021854 
L 76.769804 26.419084 
L 76.774501 26.398707 
L 76.863748 26.402442 
L 76.802684 26.428516 
L 76.868445 26.425785 
L 76.990572 26.522737 
L 76.995269 26.516608 
L 77.136185 26.611168 
L 77.263009 26.62708 
L 77.356953 26.504469 
L 77.389833 26.510214 
L 77.418016 26.455064 
L 77.455593 26.550645 
L 77.507263 26.519763 
L 77.713939 26.468394 
L 77.732728 26.523224 
L 77.807883 26.415864 
L 77.817277 26.445314 
L 77.906523 26.478021 
L 77.826671 26.475501 
L 77.915918 26.504662 
L 77.920615 26.518001 
L 77.972284 26.409071 
L 78.019256 26.475762 
L 78.131988 26.543529 
L 78.183657 26.593379 
L 78.240024 26.517966 
L 78.348059 26.522374 
L 78.277601 26.479826 
L 78.352756 26.515538 
L 78.507763 26.463757 
L 78.517158 26.49342 
L 78.568827 26.615293 
L 78.634587 26.53607 
L 78.672165 26.509995 
L 78.794292 26.634117 
L 78.944602 26.463395 
L 79.062031 26.44238 
L 78.953996 26.437336 
L 79.071426 26.420165 
L 79.132489 26.376973 
L 79.179461 26.439171 
L 79.423715 26.465341 
L 79.188856 26.409024 
L 79.433109 26.421953 
L 79.64918 26.406249 
L 79.738426 26.384982 
L 79.771307 26.454127 
L 79.860553 26.430775 
L 79.785398 26.443502 
L 79.86525 26.408841 
L 79.888736 26.359506 
L 79.959194 26.461478 
L 79.98268 26.397807 
L 80.189356 26.290201 
L 80.203448 26.313705 
L 80.231631 26.252631 
L 80.311483 26.275048 
L 80.358455 26.184105 
L 80.414821 26.317896 
L 80.419519 26.305092 
L 80.499371 26.228759 
L 80.536948 26.270632 
L 80.673167 26.184641 
L 80.710744 26.246969 
L 80.837568 26.045679 
L 80.861054 26.006281 
L 80.978484 26.016931 
L 81.171069 25.86109 
L 81.175766 25.872918 
L 81.443505 25.705992 
L 81.448203 25.711071 
L 81.575027 25.788843 
L 81.701851 25.632584 
L 81.706548 25.634421 
L 81.711245 25.639584 
L 81.75352 25.52979 
L 81.772308 25.549129 
L 81.823978 25.596622 
L 81.885041 25.537133 
L 81.960196 25.576475 
L 81.908527 25.512815 
L 81.993076 25.521525 
L 82.166872 25.432261 
L 82.021259 25.539989 
L 82.171569 25.441371 
L 82.223238 25.476977 
L 82.251422 25.381397 
L 82.27021 25.378443 
L 82.42052 25.261877 
L 82.444006 25.32712 
L 82.458098 25.339801 
L 82.500372 25.229105 
L 82.617802 25.141688 
L 82.641288 25.160562 
L 82.68826 25.202262 
L 82.660077 25.148571 
L 82.749323 25.137272 
L 83.073429 24.781211 
L 83.129796 24.814665 
L 83.176767 24.745912 
L 83.181465 24.756698 
L 83.219042 24.729232 
L 83.266014 24.852078 
L 83.270711 24.848348 
L 83.397535 24.829432 
L 83.402232 24.839791 
L 83.486782 24.843839 
L 83.47269 24.7935 
L 83.510268 24.811211 
L 83.641789 24.862338 
L 83.651183 24.83087 
L 84.097416 24.650233 
L 84.106811 24.673805 
L 84.200754 24.703851 
L 84.144388 24.634972 
L 84.219543 24.676328 
L 84.435614 24.644693 
L 84.449705 24.658085 
L 84.595318 24.519909 
L 84.600015 24.546312 
L 84.679867 24.471706 
L 84.703353 24.499057 
L 84.745628 24.423045 
L 84.816086 24.492567 
L 84.844269 24.502095 
L 84.980487 24.284033 
L 85.088523 24.208607 
L 85.116706 24.236562 
L 85.224741 24.210786 
L 85.229438 24.205617 
L 85.234135 24.177011 
L 85.27641 24.244753 
L 85.332776 24.231979 
L 85.389143 24.349921 
L 85.4596 24.29012 
L 85.722643 24.024995 
L 85.72734 24.031961 
L 85.741432 24.042972 
L 85.779009 23.935828 
L 85.788404 23.942278 
L 85.966897 23.752194 
L 86.046749 23.91825 
L 86.093721 23.872217 
L 86.258122 23.684021 
L 86.375552 23.64312 
L 86.535256 23.412962 
L 86.624503 23.303371 
L 86.666778 23.324793 
L 86.882848 23.271075 
L 86.972095 23.053973 
L 87.04725 23.087377 
L 87.127102 22.984494 
L 87.150588 22.997444 
L 87.469997 21.703773 
L 87.493482 20.000776 
L 87.502877 9.869066 
L 87.540454 25.204858 
L 87.596821 23.624249 
L 87.690764 19.244729 
L 87.700159 10.062257 
L 87.733039 25.707558 
L 87.7988 23.79238 
L 87.883349 19.615952 
L 87.892743 9.895321 
L 87.925624 25.940724 
L 87.991384 24.070352 
L 88.090025 18.339067 
L 88.094722 9.725105 
L 88.1323 26.062233 
L 88.193363 24.466264 
L 88.31549 18.341191 
L 88.320187 9.871833 
L 88.357765 26.113404 
L 88.418828 24.645861 
L 88.564441 19.017173 
L 88.573835 10.140154 
L 88.606716 26.115437 
L 88.667779 24.692185 
L 88.836878 18.582768 
L 88.846272 10.309846 
L 88.879153 26.103683 
L 88.940216 24.766831 
L 89.128104 20.136042 
L 89.137498 9.862373 
L 89.175075 26.070057 
L 89.231442 24.791012 
L 89.461604 18.609849 
L 89.470998 10.326649 
L 89.503879 26.012794 
L 89.564942 24.718887 
L 89.823287 19.182429 
L 89.832682 10.119073 
L 89.870259 26.004833 
L 89.926625 24.790754 
L 90.114513 22.549714 
L 90.231943 21.049638 
L 90.250731 10.226288 
L 90.283612 25.943561 
L 90.293006 25.897451 
L 90.715753 19.273236 
L 90.725147 10.210025 
L 90.762725 25.927611 
L 90.819091 24.720846 
L 91.030464 22.899075 
L 91.035162 22.903798 
L 91.077436 22.802145 
L 91.208957 22.608743 
L 91.241838 22.655372 
L 91.382753 22.787343 
L 91.392148 22.766534 
L 91.453211 22.929193 
L 91.711557 23.660873 
L 91.8055 23.921748 
L 91.95581 24.261017 
L 92.148395 24.480773 
L 92.153092 24.472224 
L 92.181275 24.555106 
L 92.218853 24.572631 
L 92.237641 24.538257 
L 92.571142 24.903642 
L 92.575839 24.896093 
L 92.622811 25.009013 
L 92.6416 24.994997 
L 92.749635 25.039478 
L 92.679177 24.951546 
L 92.759029 25.028709 
L 92.82479 25.014816 
L 92.867065 25.058984 
L 93.144199 25.290433 
L 93.299206 25.220194 
L 93.322692 25.26818 
L 93.383755 25.280405 
L 93.416635 25.208286 
L 93.660889 25.404908 
L 93.94272 26.358711 
L 94.074242 26.489296 
L 94.191671 26.597572 
L 94.205763 26.580332 
L 94.271524 26.527569 
L 94.229249 26.609007 
L 94.313798 26.584058 
L 94.332587 26.6173 
L 94.398348 26.509564 
L 94.417136 26.562656 
L 94.562749 26.523798 
L 94.933827 26.582564 
L 95.051257 26.529907 
L 95.1452 26.500483 
L 95.074743 26.553886 
L 95.159292 26.548963 
L 95.210961 26.586392 
L 95.26263 26.507864 
L 95.38006 26.570422 
L 95.474003 26.565434 
L 95.431729 26.520558 
L 95.483398 26.551143 
L 95.535067 26.47952 
L 95.614919 26.515129 
L 95.769926 26.450889 
L 95.89675 26.497859 
L 95.802807 26.393686 
L 95.901447 26.487138 
L 96.084638 26.459652 
L 96.103427 26.519496 
L 96.19737 26.479356 
L 96.206765 26.456387 
L 96.244342 26.553851 
L 96.291314 26.540139 
L 96.43223 26.512209 
L 96.441624 26.515348 
L 96.563751 26.37171 
L 96.681181 26.443607 
L 96.685878 26.438604 
L 96.789216 26.325124 
L 96.845582 26.44568 
L 96.850279 26.463599 
L 96.925434 26.356084 
L 96.930131 26.354963 
L 97.009984 26.277803 
L 97.052258 26.290896 
L 97.094533 26.258819 
L 97.169688 26.290595 
L 97.211963 26.26902 
L 97.235449 26.3376 
L 97.277723 26.307055 
L 97.305906 26.325531 
L 97.371667 26.261368 
L 97.381061 26.280257 
L 97.503188 26.231453 
L 97.507885 26.247262 
L 97.639407 26.332107 
L 97.66759 26.309446 
L 97.723956 26.408471 
L 97.728653 26.404456 
L 98.057456 26.099222 
L 98.062154 26.104772 
L 98.066851 26.119208 
L 98.142006 26.018877 
L 98.1514 26.022713 
L 98.165492 26.055048 
L 98.18428 25.989466 
L 98.245344 25.964316 
L 98.710365 25.727036 
L 98.855978 25.798584 
L 98.888858 25.742528 
L 98.93583 25.687544 
L 98.992197 25.756688 
L 98.996894 25.74996 
L 99.090838 25.736125 
L 99.109626 25.717611 
L 99.264633 25.513741 
L 99.302211 25.550194 
L 99.339788 25.598405 
L 99.400852 25.483939 
L 99.480704 25.354566 
L 99.701472 25.192515 
L 99.818902 25.279528 
L 99.828296 25.273397 
L 100.020881 25.206822 
L 100.025578 25.238241 
L 100.058458 25.151711 
L 100.124219 25.164379 
L 100.279226 25.102073 
L 100.401353 25.005835 
L 100.415444 25.010263 
L 100.424839 25.042444 
L 100.448325 24.969413 
L 100.514085 24.965212 
L 100.697276 24.957527 
L 100.701973 24.969859 
L 100.711367 24.987411 
L 100.767733 24.882543 
L 100.791219 24.918088 
L 100.894557 24.856776 
L 100.810008 24.931242 
L 100.908649 24.884658 
L 101.105931 24.656746 
L 101.110628 24.667605 
L 101.166994 24.534485 
L 101.251544 24.444827 
L 101.289121 24.464482 
L 101.368973 24.463299 
L 101.303213 24.474907 
L 101.397156 24.493843 
L 101.401854 24.517101 
L 101.486403 24.429829 
L 101.495797 24.431737 
L 101.730657 24.304185 
L 101.740051 24.319969 
L 101.866875 24.413929 
L 101.871572 24.410832 
L 101.998396 24.280256 
L 102.012488 24.307045 
L 102.773432 24.024647 
L 102.778129 24.040625 
L 102.886165 24.068598 
L 102.900256 24.050988 
L 103.003594 23.9774 
L 102.942531 24.075104 
L 103.017686 24.022419 
L 103.369975 23.967131 
L 103.440433 23.972002 
L 103.463919 23.928549 
L 103.47801 23.94472 
L 103.684687 23.85766 
L 103.694081 23.893434 
L 103.759842 23.82889 
L 103.792722 23.851965 
L 103.947729 23.683279 
L 104.032278 23.768857 
L 104.065159 23.705637 
L 104.191983 23.644656 
L 104.201377 23.649807 
L 104.267138 23.677369 
L 104.31411 23.629898 
L 104.323504 23.604701 
L 104.370476 23.667871 
L 104.417448 23.654002 
L 104.492603 23.692444 
L 104.516089 23.621275 
L 104.619427 23.52945 
L 104.642913 23.545291 
L 105.093843 23.379955 
L 105.09854 23.399211 
L 105.122026 23.444527 
L 105.154906 23.377869 
L 105.211272 23.416008 
L 105.319308 23.309664 
L 105.352188 23.342021 
L 105.375674 23.398585 
L 105.43204 23.288042 
L 105.455526 23.306531 
L 105.648111 23.131389 
L 105.657505 23.145839 
L 105.662202 23.157914 
L 105.709174 23.068849 
L 105.751449 23.09777 
L 105.831301 23.034486 
L 105.868879 23.073819 
L 105.901759 23.09759 
L 105.944034 23.000323 
L 106.084949 22.896095 
L 106.488907 22.044717 
L 106.545274 20.506343 
L 106.559365 10.06884 
L 106.596943 25.3055 
L 106.643914 24.052034 
L 106.789527 19.922604 
L 106.798922 9.727685 
L 106.836499 25.704022 
L 106.892865 24.184224 
L 107.029084 18.990996 
L 107.038478 10.104544 
L 107.071359 25.911596 
L 107.137119 24.289123 
L 107.287429 19.153217 
L 107.296824 10.032797 
L 107.329704 25.994706 
L 107.390767 24.561509 
L 107.564563 19.560929 
L 107.573958 9.826212 
L 107.606838 26.034071 
L 107.667901 24.705884 
L 107.86988 20.150066 
L 107.879275 9.854107 
L 107.916852 26.030564 
L 107.973218 24.7823 
L 108.208078 18.540945 
L 108.217472 10.323694 
L 108.250352 26.021708 
L 108.311416 24.720779 
L 108.565064 18.832913 
L 108.574458 10.155916 
L 108.607339 26.01439 
L 108.668402 24.794678 
L 108.898564 22.403644 
L 108.992508 20.265544 
L 109.001902 10.603197 
L 109.044177 25.949373 
L 109.095846 24.802913 
L 109.283734 22.770369 
L 109.462227 21.146763 
L 109.476318 15.582984 
L 109.481016 10.298826 
L 109.518593 25.901763 
L 109.574959 24.749566 
L 109.767544 22.885664 
L 109.964826 22.329911 
L 109.969523 22.334523 
L 110.063467 22.107277 
L 110.148016 20.657465 
L 110.162108 10.261548 
L 110.199685 25.858356 
L 110.237263 25.081837 
L 110.420453 23.225561 
L 110.42515 23.22836 
L 110.462728 23.227136 
L 110.486214 23.115001 
L 110.495608 23.129931 
L 110.613038 22.995871 
L 110.631826 23.019703 
L 111.528989 24.301308 
L 111.533686 24.282097 
L 111.613539 24.366195 
L 111.62763 24.354379 
L 111.730968 24.396809 
L 111.735665 24.404195 
L 111.89537 24.553142 
L 111.989313 24.523318 
L 111.942342 24.571638 
L 112.003405 24.57505 
L 112.341603 24.861591 
L 112.365088 24.818883 
L 112.369786 24.812211 
L 112.430849 24.906518 
L 112.590553 25.057178 
L 112.623434 25.040925 
L 112.675103 25.11732 
L 112.689194 25.107673 
L 112.792532 25.19516 
L 112.83011 25.15457 
L 113.083758 25.767585 
L 113.342103 26.445275 
L 113.351498 26.44061 
L 113.360892 26.416059 
L 113.426653 26.508201 
L 113.450139 26.490808 
L 113.567568 26.501793 
L 113.572266 26.487579 
L 113.633329 26.416137 
L 113.675604 26.526428 
L 113.727273 26.515119 
L 113.727273 26.515119 
" style="fill:none;stroke:#000000;stroke-linecap:square;stroke-width:0.3;"/>
   </g>
   <g id="line2d_2">
    <path clip-path="url(#p37ef4d4b7a)" d="M 12.272727 43.208462 
L 12.493495 44.125108 
L 12.765932 45.33685 
L 13.381263 47.281085 
L 13.508087 47.30341 
L 13.512785 47.311139 
L 13.644306 47.413597 
L 13.649003 47.393594 
L 13.808707 47.343864 
L 14.231454 47.130985 
L 14.37237 46.967703 
L 14.391159 46.98027 
L 14.433433 47.012336 
L 14.480405 46.922376 
L 14.588441 46.737283 
L 14.611926 46.791086 
L 14.663596 46.834487 
L 14.719962 46.785862 
L 14.738751 46.79241 
L 14.851483 46.654059 
L 14.983004 46.468445 
L 15.001793 46.483373 
L 15.100434 46.508961 
L 15.114526 46.484558 
L 15.814406 45.877536 
L 15.833195 45.914828 
L 15.880167 45.840994 
L 15.94123 45.906914 
L 16.218364 45.78297 
L 16.223062 45.797875 
L 16.302914 45.878605 
L 16.345189 45.871701 
L 16.382766 45.912658 
L 16.481407 45.772198 
L 16.706872 45.816691 
L 16.716266 45.795997 
L 16.847788 45.785501 
L 16.753844 45.859685 
L 16.852485 45.806934 
L 17.021583 45.895967 
L 16.866576 45.789205 
L 17.035675 45.87533 
L 17.134316 45.871597 
L 17.054464 45.900751 
L 17.153105 45.896074 
L 17.275232 45.996098 
L 17.303415 45.952856 
L 17.599338 45.881937 
L 17.651007 45.940426 
L 17.702676 45.868359 
L 17.740253 45.897428 
L 17.824802 45.799422 
L 17.8295 45.815063 
L 17.89526 45.704122 
L 17.918746 45.728461 
L 18.299218 45.747089 
L 18.318007 45.769674 
L 18.374373 45.69563 
L 18.397859 45.715102 
L 18.402557 45.698627 
L 18.482409 45.822695 
L 19.36548 45.297475 
L 19.388966 45.344584 
L 19.412452 45.417123 
L 19.492304 45.329842 
L 19.501698 45.29044 
L 19.529881 45.397968 
L 19.590945 45.366865 
L 19.924445 46.889846 
L 19.96672 46.878371 
L 20.098241 46.96116 
L 20.187488 46.903952 
L 20.154607 46.974151 
L 20.210974 46.943462 
L 20.314312 47.060523 
L 20.229762 46.925898 
L 20.356586 47.016259 
L 20.361284 46.994241 
L 20.436439 47.103992 
L 20.445833 47.089025 
L 20.502199 47.174922 
L 20.553868 47.086066 
L 20.741756 47.073951 
L 20.788728 47.106899 
L 20.835699 47.047448 
L 20.86858 47.052906 
L 20.948432 46.992881 
L 21.05177 47.086209 
L 21.075256 47.062641 
L 21.216172 46.981954 
L 21.338298 47.039346 
L 21.427545 46.971024 
L 21.460425 46.981198 
L 21.507397 47.059329 
L 21.568461 46.978667 
L 21.591947 46.963775 
L 21.638918 47.082455 
L 21.657707 47.059837 
L 21.972419 47.019008 
L 21.977116 47.031948 
L 22.005299 47.04699 
L 22.038179 46.972688 
L 22.075757 46.985488 
L 22.118032 46.897831 
L 22.193187 46.955813 
L 22.742757 46.796693 
L 22.761546 46.830523 
L 22.841398 46.726104 
L 23.0058 46.845637 
L 23.113835 46.783439 
L 23.137321 46.80929 
L 23.235962 46.819093 
L 23.170201 46.721924 
L 23.250054 46.799557 
L 23.259448 46.824951 
L 23.428547 46.71097 
L 23.470821 46.739313 
L 23.513096 46.612998 
L 23.700984 46.327143 
L 23.743258 46.365026 
L 23.747956 46.384973 
L 23.813716 46.264663 
L 23.832505 46.280316 
L 24.053273 45.988054 
L 24.410259 45.63082 
L 24.673301 45.211975 
L 24.894069 45.011919 
L 24.898766 45.025526 
L 24.969224 44.891096 
L 24.973921 44.904416 
L 25.152414 44.506093 
L 25.157112 44.516181 
L 25.204084 44.405688 
L 25.227569 44.413747 
L 25.415457 43.970165 
L 25.420154 43.971739 
L 25.730168 42.28827 
L 25.763049 39.250247 
L 25.866387 33.755872 
L 25.800626 44.31046 
L 25.871084 36.333681 
L 25.979119 45.119832 
L 25.955633 34.208071 
L 25.988514 44.670343 
L 26.035486 35.570016 
L 26.120035 33.89696 
L 26.063669 45.055497 
L 26.129429 39.23897 
L 26.143521 44.99831 
L 26.199887 34.921928 
L 26.246859 43.74679 
L 26.284437 34.249077 
L 26.307923 45.056405 
L 26.37838 40.376625 
L 26.481718 45.410625 
L 26.453535 34.60301 
L 26.49581 44.756147 
L 26.547479 35.257648 
L 26.552176 34.137938 
L 26.575662 45.706632 
L 26.622634 43.209227 
L 26.650817 38.569246 
L 26.655514 33.498677 
L 26.683697 45.830127 
L 26.758852 41.793038 
L 26.772944 33.512976 
L 26.801127 45.971214 
L 26.857493 43.571573 
L 26.899768 36.247613 
L 26.904465 33.882451 
L 26.932648 46.075809 
L 26.993712 43.775207 
L 27.045381 36.38239 
L 27.050078 34.178718 
L 27.078261 46.129249 
L 27.139325 44.140726 
L 27.205085 40.238366 
L 27.21448 34.755036 
L 27.242663 45.988411 
L 27.308423 44.090694 
L 27.383578 39.910593 
L 27.392973 35.381648 
L 27.425853 45.853687 
L 27.486916 44.151643 
L 27.576163 38.234878 
L 27.58086 35.990821 
L 27.618438 45.625325 
L 27.674804 44.077883 
L 27.778142 36.927431 
L 27.796931 43.254265 
L 27.81572 45.289434 
L 27.904966 42.987253 
L 27.96603 39.762226 
L 27.975424 36.525979 
L 28.013001 45.333355 
L 28.064671 44.098511 
L 28.172706 39.583592 
L 28.1821 36.69099 
L 28.219678 45.306819 
L 28.271347 44.257138 
L 28.407565 38.761046 
L 28.412262 37.720792 
L 28.454537 44.861827 
L 28.492115 44.280189 
L 28.670608 38.561503 
L 28.684699 41.729507 
L 28.71758 44.453406 
L 28.802129 43.191898 
L 28.919559 42.393639 
L 28.96653 42.633792 
L 29.163812 43.710328 
L 29.882482 46.615026 
L 30.056278 47.087222 
L 30.234771 47.311853 
L 30.262954 47.300362 
L 30.314623 47.414938 
L 30.31932 47.406197 
L 30.493116 47.419641 
L 30.497813 47.407223 
L 30.58706 47.357652 
L 30.530694 47.440935 
L 30.615243 47.37228 
L 30.727976 47.420599 
L 30.751462 47.3977 
L 30.892377 47.223044 
L 30.901772 47.277068 
L 31.080265 47.123072 
L 31.089659 47.132695 
L 31.549983 46.688465 
L 31.658019 46.623966 
L 31.67211 46.627695 
L 31.803631 46.565362 
L 31.817723 46.580671 
L 31.850603 46.606372 
L 32.019702 46.467653 
L 32.038491 46.51934 
L 32.076068 46.429527 
L 32.127737 46.443411 
L 32.193498 46.370379 
L 32.146526 46.453302 
L 32.235773 46.444389 
L 32.259259 46.420072 
L 32.348505 46.429795 
L 32.39078 46.441223 
L 32.475329 46.269558 
L 32.489421 46.277345 
L 32.54109 46.17884 
L 32.545787 46.184375 
L 32.588062 46.221036 
L 32.667914 46.129777 
L 32.728977 46.170664 
L 32.747766 46.097317 
L 32.775949 46.104081 
L 32.84171 45.967957 
L 32.90747 45.981009 
L 32.982625 46.118765 
L 33.029597 46.019116 
L 33.283245 45.878305 
L 33.038992 46.036217 
L 33.297337 45.895708 
L 33.405372 45.944651 
L 33.320823 45.881439 
L 33.414767 45.937006 
L 33.74357 45.910279 
L 33.785844 45.875573 
L 33.860999 45.946559 
L 33.992521 45.75046 
L 34.025401 45.765017 
L 34.222683 45.605084 
L 34.04419 45.778322 
L 34.232077 45.625943 
L 34.481028 45.698512 
L 34.485725 45.685564 
L 34.490423 45.673951 
L 34.523303 45.754257 
L 34.574972 45.760721 
L 34.598458 45.726802 
L 34.650127 45.804428 
L 34.67831 45.799716 
L 34.866198 45.84935 
L 34.903775 45.884625 
L 35.007113 45.723256 
L 35.133937 45.718781 
L 35.016507 45.701572 
L 35.148029 45.691365 
L 35.303036 45.541665 
L 35.31243 45.599676 
L 35.439254 45.585833 
L 35.443952 45.574844 
L 35.448649 45.550732 
L 35.490923 45.655555 
L 35.542592 45.635612 
L 35.54729 45.658713 
L 35.594262 45.556144 
L 35.636536 45.55295 
L 35.749269 45.493409 
L 35.669417 45.563508 
L 35.753966 45.498531 
L 35.927762 45.565419 
L 35.772755 45.472442 
L 35.946551 45.542503 
L 36.0311 45.503774 
L 35.960642 45.575982 
L 36.073375 45.541569 
L 36.096861 45.578235 
L 36.153227 45.472707 
L 36.157924 45.479316 
L 36.270656 45.371542 
L 36.190804 45.492017 
L 36.289445 45.417871 
L 36.312931 45.463915 
L 36.383389 45.356419 
L 36.585368 45.20856 
L 36.702798 46.169202 
L 36.890685 46.805823 
L 37.05039 47.076028 
L 37.073875 47.024546 
L 37.205397 47.01729 
L 37.637538 47.109106 
L 37.740876 47.016464 
L 37.754968 47.054911 
L 37.816031 47.115763 
L 37.8677 47.057745 
L 38.069679 47.0197 
L 38.187109 46.965011 
L 38.666222 46.970409 
L 38.778954 47.010813 
L 38.783652 46.991671 
L 38.901081 46.962386 
L 38.840018 47.019519 
L 38.905778 46.980704 
L 39.023208 47.012912 
L 38.976236 46.942759 
L 39.027905 47.003466 
L 39.286251 46.881348 
L 39.314434 46.831947 
L 39.375497 46.930257 
L 39.389589 46.911536 
L 39.48823 46.977396 
L 39.502321 46.934723 
L 39.7043 46.706157 
L 39.708997 46.708515 
L 39.713695 46.722403 
L 39.793547 46.619711 
L 39.807638 46.66449 
L 39.901582 46.817668 
L 40.033103 46.920469 
L 40.164625 46.770429 
L 40.23978 46.787027 
L 40.192808 46.736289 
L 40.263266 46.751819 
L 40.39009 46.572425 
L 40.399484 46.583681 
L 40.484033 46.490694 
L 40.488731 46.482354 
L 40.549794 46.582298 
L 40.657829 46.775158 
L 40.681315 46.738117 
L 40.770562 46.684737 
L 40.732984 46.752818 
L 40.798745 46.706665 
L 40.826928 46.67359 
L 40.911477 46.726282 
L 41.014816 46.607229 
L 41.033604 46.611912 
L 41.113456 46.539257 
L 41.244978 46.419257 
L 41.254372 46.42404 
L 41.512717 46.128717 
L 41.663027 45.87979 
L 41.709999 45.929579 
L 41.752274 45.812198 
L 41.756971 45.832023 
L 41.968344 45.489602 
L 41.973042 45.499592 
L 42.268964 45.252334 
L 42.470944 44.810488 
L 42.475641 44.822989 
L 42.489732 44.796534 
L 42.588373 44.766374 
L 43.058092 43.597971 
L 43.255374 42.169822 
L 43.283557 39.462633 
L 43.386895 34.045694 
L 43.325832 44.172965 
L 43.391592 36.996526 
L 43.49493 45.032488 
L 43.471444 33.692649 
L 43.509022 44.299235 
L 43.551297 34.393684 
L 43.574783 44.950264 
L 43.64524 40.884513 
L 43.734487 44.863313 
L 43.711001 34.461537 
L 43.757973 43.517152 
L 43.790853 34.208432 
L 43.814339 44.955873 
L 43.884797 40.855977 
L 43.983438 45.37524 
L 43.959952 34.007904 
L 43.997529 44.741281 
L 44.044501 40.151415 
L 44.152537 33.514896 
L 44.077382 45.589487 
L 44.157234 35.564142 
L 44.18072 45.800771 
L 44.265269 33.677524 
L 44.293452 46.008682 
L 44.387396 40.393161 
L 44.39679 34.048861 
L 44.424973 46.073594 
L 44.495431 43.259409 
L 44.533009 39.516453 
L 44.537706 34.796211 
L 44.565889 46.06136 
L 44.636347 43.736211 
L 44.692713 40.413385 
L 44.702107 34.834411 
L 44.730291 45.911671 
L 44.796051 43.948241 
L 44.866509 38.110197 
L 44.871206 35.19918 
L 44.904086 45.901667 
L 44.96515 44.154168 
L 45.049699 39.65394 
L 45.059094 35.869452 
L 45.091974 45.700506 
L 45.153037 44.068611 
L 45.242284 40.344203 
L 45.251678 36.192453 
L 45.289256 45.581016 
L 45.340925 44.308313 
L 45.44896 38.820868 
L 45.453657 36.884776 
L 45.495932 45.339163 
L 45.542904 44.254421 
L 45.665031 37.795944 
L 45.669728 37.203387 
L 45.707305 45.066317 
L 45.7167 44.999955 
L 45.86701 41.47605 
L 45.890496 37.150897 
L 45.923376 44.985547 
L 45.93277 45.089766 
L 45.98444 44.030007 
L 46.158235 39.587445 
L 46.177024 41.429609 
L 46.214602 44.005181 
L 46.294454 43.162588 
L 46.411884 42.545028 
L 46.444764 42.66997 
L 46.703109 44.000772 
L 46.740687 44.131912 
L 46.970849 45.182882 
L 47.459356 46.960865 
L 47.468751 46.921411 
L 47.525117 47.129952 
L 47.529814 47.122987 
L 47.698913 47.419437 
L 47.70361 47.39423 
L 47.778765 47.49278 
L 47.802251 47.444526 
L 47.943167 47.589399 
L 47.816343 47.429963 
L 47.952561 47.574695 
L 48.069991 47.53019 
L 47.980744 47.606195 
L 48.074688 47.531396 
L 48.600773 47.107791 
L 48.084082 47.545183 
L 48.60547 47.126375 
L 48.610167 47.147535 
L 48.652442 47.06811 
L 48.713505 47.110639 
L 49.000034 46.693814 
L 49.018822 46.711497 
L 49.037611 46.671458 
L 49.112766 46.647421 
L 49.23959 46.53162 
L 49.263076 46.538993 
L 49.305351 46.448032 
L 49.502633 46.276305 
L 49.521421 46.319204 
L 49.544907 46.347443 
L 49.596576 46.279339 
L 49.620062 46.290531 
L 49.65764 46.230389 
L 49.732795 46.284316 
L 49.803253 46.331207 
L 49.836133 46.246679 
L 50.052204 46.094039 
L 49.850225 46.262091 
L 50.061598 46.117161 
L 50.099175 46.187454 
L 50.07569 46.106791 
L 50.183725 46.160436 
L 50.319943 46.107966 
L 50.329338 46.128356 
L 50.366915 46.179569 
L 50.418584 46.030165 
L 50.427979 46.041573 
L 50.517225 45.984658 
L 50.545408 46.00023 
L 50.611169 45.985532 
L 50.648746 46.054983 
L 50.766176 46.163247 
L 50.831937 46.095541 
L 50.986944 45.91211 
L 50.991641 45.915457 
L 51.052704 45.955754 
L 51.080888 45.881745 
L 51.104374 45.903838 
L 51.470754 45.782418 
L 51.475451 45.797271 
L 51.649247 45.752127 
L 51.837135 45.587381 
L 51.851226 45.601542 
L 51.996839 45.579429 
L 52.118966 45.542852 
L 52.048508 45.627249 
L 52.133058 45.574687 
L 52.137755 45.594131 
L 52.222304 45.492472 
L 52.297459 45.506807 
L 52.24579 45.529117 
L 52.325642 45.549318 
L 52.424283 45.617321 
L 52.443072 45.571792 
L 52.518227 45.652091 
L 52.57929 45.687449 
L 52.54641 45.644286 
L 52.626262 45.634838 
L 52.922185 45.388362 
L 52.645051 45.665088 
L 52.931579 45.436494 
L 52.983248 45.404425 
L 53.049009 45.486194 
L 53.138256 45.323405 
L 53.175833 45.380015 
L 53.344932 45.304222 
L 53.185227 45.40107 
L 53.349629 45.321424 
L 53.429481 45.43882 
L 53.48115 45.396391 
L 53.59858 45.409706 
L 53.617369 45.362535 
L 53.758284 45.225467 
L 53.809953 45.260891 
L 53.847531 45.22384 
L 53.922686 45.253492 
L 53.96496 45.279969 
L 53.969658 45.313222 
L 54.213911 46.72177 
L 54.46756 47.13126 
L 54.519229 47.039378 
L 54.584989 47.001009 
L 54.622567 47.081458 
L 54.627264 47.063749 
L 54.758785 47.102468 
L 54.763482 47.092156 
L 54.848032 47.080111 
L 54.871518 47.121131 
L 54.885609 47.136385 
L 54.927884 47.036375 
L 54.960764 47.071396 
L 55.054708 46.990026 
L 54.993644 47.104944 
L 55.082891 47.041613 
L 55.153349 47.146836 
L 55.195624 47.038207 
L 55.364722 46.923411 
L 55.397603 46.954123 
L 55.505638 47.020545 
L 55.421089 46.928856 
L 55.538518 46.992619 
L 55.627765 46.898609 
L 55.665342 46.923543 
L 55.717011 46.962269 
L 55.759286 46.887039 
L 55.76868 46.887237 
L 55.857927 46.935147 
L 55.895504 46.884142 
L 55.942476 46.837199 
L 56.012934 46.863987 
L 56.092786 47.000712 
L 56.022328 46.855912 
L 56.15385 46.910194 
L 56.252491 46.868829 
L 56.261885 46.843122 
L 56.351132 46.742157 
L 56.379315 46.809282 
L 56.515533 46.886423 
L 56.52023 46.875904 
L 56.684632 46.69313 
L 56.858428 46.959895 
L 56.698723 46.686117 
L 56.9054 46.921538 
L 56.961766 46.889535 
L 57.004041 46.966964 
L 57.022829 47.004445 
L 57.083893 46.905999 
L 57.093287 46.917038 
L 57.234203 46.696837 
L 57.2389 46.720907 
L 57.417393 46.856184 
L 57.793168 46.471691 
L 57.849534 46.566926 
L 57.854231 46.577196 
L 57.905901 46.461881 
L 57.924689 46.468531 
L 58.093788 46.390034 
L 58.098485 46.393113 
L 58.10788 46.401128 
L 58.136063 46.3083 
L 58.14076 46.312727 
L 58.253492 46.119881 
L 58.276978 46.15978 
L 58.493049 45.918444 
L 58.521232 45.946868 
L 58.586993 45.86324 
L 58.596387 45.879694 
L 58.906401 45.476976 
L 58.92519 45.51097 
L 58.953373 45.540538 
L 58.995648 45.457684 
L 59.019134 45.459462 
L 59.812959 44.186285 
L 60.118276 43.342822 
L 60.16055 43.08943 
L 60.263888 41.190418 
L 60.376621 33.875291 
L 60.31086 44.293296 
L 60.381318 36.946054 
L 60.489353 45.216131 
L 60.465868 34.278017 
L 60.498748 44.789924 
L 60.54572 38.573154 
L 60.550417 33.473776 
L 60.573903 45.205991 
L 60.649058 41.61715 
L 60.658452 45.178873 
L 60.719516 34.694344 
L 60.76179 44.390638 
L 60.804065 37.470616 
L 60.898009 33.588586 
L 60.832248 45.307682 
L 60.907403 39.421071 
L 61.020136 45.674921 
L 60.99665 34.31048 
L 61.024833 45.552056 
L 61.090593 40.961273 
L 61.099988 33.525193 
L 61.123474 45.827127 
L 61.198629 41.980699 
L 61.21272 33.968222 
L 61.240903 45.985935 
L 61.292572 43.790453 
L 61.334847 40.024245 
L 61.344242 34.437352 
L 61.367727 46.060189 
L 61.442882 43.161315 
L 61.48046 36.723118 
L 61.485157 34.111247 
L 61.51334 46.060882 
L 61.574404 43.972425 
L 61.635467 39.038537 
L 61.640164 34.966804 
L 61.673045 46.000846 
L 61.738805 43.91122 
L 61.809263 38.112632 
L 61.81396 35.245357 
L 61.846841 45.8658 
L 61.907904 44.06511 
L 61.987756 39.814681 
L 61.997151 35.740586 
L 62.030031 45.695315 
L 62.091094 44.049788 
L 62.175644 39.033444 
L 62.185038 36.174748 
L 62.217918 45.706053 
L 62.274285 44.300801 
L 62.372926 39.722317 
L 62.38232 36.151294 
L 62.4152 45.630016 
L 62.471566 44.42006 
L 62.603088 37.114864 
L 62.617179 42.230696 
L 62.640665 45.169331 
L 62.729912 43.135719 
L 62.814461 39.397467 
L 62.823855 37.391028 
L 62.86613 45.034659 
L 62.908405 44.199927 
L 63.058715 38.158851 
L 63.077504 42.016119 
L 63.105687 44.617084 
L 63.190236 43.151266 
L 63.321757 41.825592 
L 63.34994 41.946645 
L 63.636469 43.826527 
L 64.768491 47.424664 
L 64.773188 47.40352 
L 64.801371 47.395745 
L 64.843646 47.475356 
L 64.871829 47.508946 
L 64.885921 47.454361 
L 64.946984 47.439538 
L 65.449583 47.281773 
L 65.609287 47.073781 
L 65.613985 47.082279 
L 65.815964 46.981881 
L 65.970971 46.761607 
L 65.975668 46.776045 
L 66.05552 46.815169 
L 65.98976 46.759082 
L 66.079006 46.742613 
L 66.229316 46.646479 
L 66.234013 46.675238 
L 66.318563 46.5651 
L 66.327957 46.569952 
L 66.468873 46.410783 
L 66.47357 46.413266 
L 66.544028 46.373381 
L 66.529936 46.339819 
L 66.553422 46.33602 
L 66.675549 46.255477 
L 66.689641 46.27203 
L 66.727218 46.291544 
L 66.760098 46.222285 
L 66.797676 46.263577 
L 66.99026 46.122308 
L 66.994958 46.132532 
L 67.196937 45.969014 
L 67.328458 45.843282 
L 67.44119 45.879836 
L 67.445888 45.876231 
L 67.464676 45.891364 
L 67.506951 45.77363 
L 67.521043 45.79239 
L 67.638472 45.774538 
L 67.600895 45.841595 
L 67.647867 45.782848 
L 67.769994 45.837668 
L 67.920304 45.646148 
L 67.925001 45.652591 
L 68.150466 45.651574 
L 68.188043 45.745504 
L 68.249107 45.629507 
L 68.258501 45.632972 
L 68.31017 45.646073 
L 68.357142 45.581777 
L 68.441691 45.531016 
L 68.474572 45.547144 
L 68.512149 45.631079 
L 68.568515 45.520067 
L 68.57791 45.522287 
L 68.624882 45.521777 
L 68.667156 45.595204 
L 69.287185 45.646374 
L 69.291882 45.623373 
L 69.348248 45.524209 
L 69.418706 45.569498 
L 69.620685 45.685496 
L 69.634777 45.655579 
L 69.705235 45.601807 
L 69.733418 45.689407 
L 69.738115 45.685633 
L 69.893122 45.852519 
L 70.11389 46.899058 
L 70.757405 47.168615 
L 70.766799 47.138212 
L 70.771496 47.123024 
L 70.851348 47.205038 
L 70.874834 47.157471 
L 71.01575 47.096092 
L 70.893623 47.176295 
L 71.029841 47.120053 
L 71.039236 47.137107 
L 71.104996 47.041754 
L 71.123785 47.049462 
L 71.194243 47.081526 
L 71.142574 47.024573 
L 71.236518 47.025528 
L 71.368039 46.945091 
L 71.372736 46.964711 
L 71.494863 46.992434 
L 71.405616 46.933239 
L 71.49956 46.962062 
L 71.635779 46.769395 
L 71.659265 46.778855 
L 71.809575 47.01079 
L 71.955187 46.904413 
L 71.973976 46.941083 
L 72.096103 46.989281 
L 72.105497 46.983465 
L 72.119589 47.007946 
L 72.377934 46.749954 
L 72.575216 46.938135 
L 72.636279 47.005069 
L 72.692646 46.9388 
L 72.81947 46.745802 
L 72.880533 46.684866 
L 72.927505 46.750176 
L 73.016752 46.952 
L 73.059026 46.939003 
L 73.204639 46.845428 
L 73.209336 46.856555 
L 73.237519 46.887719 
L 73.284491 46.784793 
L 73.30328 46.785308 
L 73.307977 46.796102 
L 73.354949 46.644138 
L 73.430104 46.498749 
L 73.491168 46.519306 
L 73.608597 46.507865 
L 73.613294 46.521146 
L 73.796485 46.851223 
L 73.843457 46.783786 
L 73.989069 46.668705 
L 74.003161 46.705902 
L 74.012555 46.728507 
L 74.068922 46.59753 
L 74.092407 46.63477 
L 74.261506 46.355062 
L 74.270901 46.38629 
L 74.299084 46.415123 
L 74.360147 46.320378 
L 74.378936 46.351023 
L 74.501063 46.157984 
L 74.548035 46.107816 
L 74.510457 46.117544 
L 74.557429 46.073367 
L 74.721831 45.924914 
L 74.754711 45.938198 
L 74.811077 45.883066 
L 74.980176 45.613963 
L 74.984873 45.622406 
L 75.083514 45.525774 
L 75.205641 45.441303 
L 75.210338 45.454766 
L 75.22443 45.461558 
L 75.252613 45.394527 
L 75.285493 45.378703 
L 75.459289 45.174329 
L 75.482775 45.168099 
L 75.515655 45.078445 
L 75.999465 44.17371 
L 76.426909 42.537835 
L 76.473881 39.917726 
L 76.577219 34.219214 
L 76.516156 44.350687 
L 76.586614 38.785766 
L 76.689952 45.22834 
L 76.666466 33.332034 
L 76.704044 44.642963 
L 76.840262 34.48028 
L 76.779199 45.145797 
L 76.849656 40.57816 
L 76.948297 45.126734 
L 76.920114 34.839217 
L 76.962389 44.330978 
L 77.009361 34.244279 
L 77.032847 45.241169 
L 77.108002 40.872702 
L 77.216037 45.606248 
L 77.192551 34.483826 
L 77.220734 45.480697 
L 77.286495 39.242966 
L 77.291192 33.61521 
L 77.319375 45.77967 
L 77.39453 41.260475 
L 77.403924 33.597947 
L 77.432108 45.934466 
L 77.502565 42.653394 
L 77.526051 35.752916 
L 77.530748 33.972759 
L 77.554234 46.038111 
L 77.615298 43.747311 
L 77.66227 39.852306 
L 77.671664 34.681807 
L 77.69515 46.020317 
L 77.765608 43.585346 
L 77.817277 37.445437 
L 77.821974 34.420331 
L 77.850157 46.038126 
L 77.915918 44.006173 
L 77.986376 37.53199 
L 77.991073 34.980659 
L 78.023953 45.925685 
L 78.085017 44.120651 
L 78.164869 39.74941 
L 78.174263 35.620579 
L 78.207143 45.78385 
L 78.268207 44.106382 
L 78.362151 37.654605 
L 78.366848 36.081388 
L 78.399728 45.565411 
L 78.451397 44.338918 
L 78.554735 39.968764 
L 78.56413 36.375225 
L 78.601707 45.461087 
L 78.653376 44.236996 
L 78.761412 38.961684 
L 78.770806 36.869885 
L 78.808383 45.357608 
L 78.860052 44.191429 
L 78.982179 38.767601 
L 78.986876 37.362966 
L 79.029151 45.07784 
L 79.071426 44.310453 
L 79.240525 38.514291 
L 79.254616 41.765197 
L 79.287496 44.452483 
L 79.367349 43.072811 
L 79.508264 41.750074 
L 79.541145 42.063494 
L 79.729032 43.424569 
L 80.710744 47.067925 
L 80.781202 47.165864 
L 80.997273 47.45794 
L 81.222738 47.485204 
L 81.227435 47.499707 
L 81.326076 47.537476 
L 81.250921 47.47658 
L 81.344864 47.468737 
L 81.4529 47.377776 
L 81.593815 47.2076 
L 81.739428 47.129198 
L 81.913224 47.008315 
L 82.148083 46.729059 
L 82.23733 46.648584 
L 82.345365 46.570495 
L 82.359457 46.589336 
L 83.223739 46.148825 
L 83.237831 46.188555 
L 83.247225 46.213246 
L 83.280106 46.118056 
L 83.331775 46.114874 
L 83.641789 45.787125 
L 83.646486 45.790903 
L 83.768613 45.863352 
L 83.669972 45.776144 
L 83.77331 45.86147 
L 83.900134 45.750734 
L 83.904831 45.766719 
L 83.970592 45.641591 
L 83.989381 45.670139 
L 84.07393 45.595709 
L 84.078627 45.57836 
L 84.153782 45.648308 
L 84.172571 45.646374 
L 84.252423 45.699386 
L 84.25712 45.711436 
L 84.360459 45.739365 
L 84.379247 45.715015 
L 84.801994 45.723157 
L 84.938213 45.635451 
L 84.966396 45.670679 
L 85.097917 45.774297 
L 85.107311 45.751145 
L 85.656882 45.57353 
L 85.661579 45.593956 
L 85.793101 45.599871 
L 85.797798 45.594661 
L 85.825981 45.536997 
L 85.882347 45.620914 
L 85.915228 45.582195 
L 86.023263 45.55575 
L 86.032657 45.532545 
L 86.046749 45.552825 
L 86.220545 45.350288 
L 86.610411 45.59762 
L 86.615108 45.621571 
L 86.699658 45.535357 
L 86.704355 45.535678 
L 86.732538 45.582687 
L 86.81239 45.534015 
L 86.934517 45.637457 
L 87.084827 45.463813 
L 87.23044 45.482772 
L 87.239834 45.441098 
L 87.329081 45.376011 
L 87.258623 45.477373 
L 87.361961 45.408504 
L 87.385447 45.512415 
L 87.474694 45.428773 
L 87.484088 45.41664 
L 87.521666 45.66594 
L 87.704856 46.640034 
L 87.747131 46.809355 
L 87.878652 46.919971 
L 88.127603 47.134458 
L 88.141694 47.115398 
L 88.287307 47.079724 
L 89.386449 46.867842 
L 89.414632 46.824499 
L 89.48509 46.908283 
L 89.78571 46.960688 
L 89.795104 46.937587 
L 89.809196 46.904741 
L 89.865562 47.000682 
L 89.893745 46.989065 
L 89.9689 46.99774 
L 89.945414 46.964126 
L 90.00178 46.987647 
L 90.072238 46.874785 
L 90.128604 46.936024 
L 90.325886 46.851904 
L 90.330583 46.866619 
L 90.448013 46.888578 
L 90.462105 46.870618 
L 90.598323 46.708215 
L 90.748633 46.824162 
L 90.823788 46.95534 
L 90.87076 46.906752 
L 91.194866 46.748626 
L 91.307598 46.624018 
L 91.32169 46.652046 
L 91.523669 46.403052 
L 91.335782 46.670103 
L 91.528366 46.418149 
L 91.641099 46.331257 
L 91.824289 46.208229 
L 91.828986 46.218767 
L 91.838381 46.25231 
L 91.918233 46.129611 
L 91.92293 46.141467 
L 92.157789 45.747224 
L 92.185972 45.777502 
L 92.19067 45.785829 
L 92.247036 45.691727 
L 92.251733 45.691834 
L 92.430226 45.394218 
L 92.458409 45.416599 
L 92.486592 45.321901 
L 92.52417 45.347339 
L 93.205262 44.182015 
L 93.374361 43.72204 
L 93.482396 43.351249 
L 93.581037 42.84984 
L 93.646798 41.120259 
L 93.75953 33.938685 
L 93.693769 44.358216 
L 93.764227 37.431248 
L 93.872263 45.129931 
L 93.848777 34.285875 
L 93.881657 44.71212 
L 93.933326 34.030994 
L 93.956812 45.083774 
L 94.02727 41.279252 
L 94.121214 45.067587 
L 94.097728 33.926413 
L 94.140002 44.017229 
L 94.266826 33.766937 
L 94.205763 45.147754 
L 94.276221 39.537383 
L 94.384256 45.533597 
L 94.356073 34.266177 
L 94.39365 45.147871 
L 94.450017 40.193317 
L 94.459411 34.502377 
L 94.482897 45.747408 
L 94.562749 35.495658 
L 94.567446 33.931483 
L 94.590932 45.927117 
L 94.647298 43.407351 
L 94.680179 40.219543 
L 94.689573 34.251703 
L 94.713059 46.026556 
L 94.788214 42.899929 
L 94.816397 39.504976 
L 94.821094 34.514268 
L 94.849278 46.045094 
L 94.919735 43.481401 
L 94.966707 37.427497 
L 94.971404 34.220854 
L 94.999588 46.06627 
L 95.065348 43.974333 
L 95.131109 39.523822 
L 95.140503 35.352485 
L 95.168686 45.959545 
L 95.234447 44.006846 
L 95.309602 39.899424 
L 95.318996 35.52489 
L 95.351877 45.776734 
L 95.41294 44.076286 
L 95.497489 38.825816 
L 95.502187 36.120976 
L 95.539764 45.696756 
L 95.59613 44.238295 
L 95.704166 36.518211 
L 95.718257 43.061245 
L 95.741743 45.474249 
L 95.826292 43.225591 
L 95.901447 38.818485 
L 95.906145 37.068206 
L 95.948419 45.23727 
L 95.995391 44.18945 
L 96.112821 37.659747 
L 96.117518 36.790926 
L 96.155096 45.294168 
L 96.183279 44.842536 
L 96.352377 37.8901 
L 96.371166 42.372254 
L 96.399349 44.782235 
L 96.483899 43.180918 
L 96.61542 38.583796 
L 96.634209 42.345106 
L 96.662392 44.42788 
L 96.746941 43.242465 
L 96.840885 42.467999 
L 96.901948 42.571169 
L 96.977103 43.009042 
L 97.202568 44.070702 
L 97.235449 44.20276 
L 97.51728 45.574153 
L 97.977604 47.168259 
L 98.085639 47.462956 
L 98.11852 47.447827 
L 98.428534 47.652229 
L 98.433231 47.636472 
L 98.663394 47.409956 
L 98.668091 47.420911 
L 98.691577 47.441627 
L 98.747943 47.331213 
L 98.757337 47.35505 
L 98.884161 47.186169 
L 98.766732 47.371845 
L 98.945225 47.221756 
L 98.973408 47.277605 
L 99.043866 47.14519 
L 100.124219 46.265497 
L 100.13831 46.301497 
L 100.157099 46.315411 
L 100.208768 46.231046 
L 100.227557 46.231509 
L 100.664395 45.965872 
L 100.67379 46.0016 
L 100.701973 45.946162 
L 100.781825 45.953243 
L 100.838191 45.969051 
L 100.847586 46.027286 
L 100.880466 46.001198 
L 101.101234 45.89609 
L 101.218663 45.821971 
L 101.228058 45.825323 
L 101.260938 45.859246 
L 101.284424 45.789365 
L 101.326699 45.784656 
L 101.406551 45.830178 
L 101.453523 45.748695 
L 101.500495 45.735498 
L 101.528678 45.661487 
L 101.585044 45.559471 
L 101.702474 45.512102 
L 101.815206 45.601623 
L 101.819903 45.621777 
L 101.871572 45.517643 
L 101.913847 45.557198 
L 102.120523 45.530569 
L 102.186284 45.640277 
L 102.228559 45.558877 
L 102.313108 45.521443 
L 102.336594 45.541564 
L 102.345988 45.531868 
L 102.449326 45.553589 
L 102.57615 45.372514 
L 102.468115 45.600664 
L 102.590242 45.423576 
L 102.613728 45.410371 
L 102.721763 45.474592 
L 102.72646 45.457223 
L 102.806313 45.578102 
L 102.909651 45.465775 
L 102.980109 45.366522 
L 103.036475 45.39634 
L 103.14451 45.516558 
L 103.163299 45.513861 
L 103.369975 45.574202 
L 103.449827 45.667024 
L 103.496799 45.606391 
L 103.609532 45.573242 
L 103.56256 45.6568 
L 103.618926 45.58257 
L 103.675292 45.597619 
L 103.651806 45.556847 
L 103.722264 45.565316 
L 103.811511 45.400565 
L 103.867877 45.427386 
L 103.886666 45.385065 
L 103.943032 45.486723 
L 103.961821 45.473599 
L 103.975912 45.496844 
L 104.032278 45.403585 
L 104.060462 45.413838 
L 104.083947 45.451298 
L 104.121525 45.354778 
L 104.140314 45.369955 
L 104.168497 45.251867 
L 104.262441 45.285958 
L 104.34699 45.206326 
L 104.487906 45.042081 
L 104.492603 45.045396 
L 104.534877 45.077384 
L 104.567758 44.972769 
L 104.586547 44.996068 
L 105.004596 44.839309 
L 105.018688 44.878386 
L 105.028082 44.923433 
L 105.112631 44.79479 
L 105.277033 44.787857 
L 105.286427 44.771104 
L 105.309913 44.782535 
L 105.544773 44.46025 
L 105.577653 44.482709 
L 105.610533 44.390489 
L 105.629322 44.382921 
L 105.6669 44.422277 
L 105.756146 44.343741 
L 105.831301 44.333692 
L 105.807815 44.282743 
L 105.85009 44.290908 
L 106.023886 44.0982 
L 106.028583 44.10009 
L 106.080252 43.99797 
L 106.211773 43.846554 
L 106.221168 43.88201 
L 106.230562 43.9002 
L 106.277534 43.807508 
L 106.315111 43.823507 
L 106.512393 43.793821 
L 106.3339 43.882253 
L 106.51709 43.806007 
L 106.549971 43.788415 
L 106.573457 44.115411 
L 106.75195 45.52859 
L 106.996204 46.409733 
L 107.043175 46.545521 
L 107.231063 46.923127 
L 107.26864 46.900341 
L 107.296824 47.025207 
L 107.498803 47.150696 
L 107.508197 47.127925 
L 107.573958 47.072362 
L 107.616232 47.145852 
L 107.728965 47.214812 
L 107.738359 47.179329 
L 107.841697 47.188275 
L 107.790028 47.25939 
L 107.846394 47.191846 
L 107.916852 47.183851 
L 107.930944 47.125786 
L 107.935641 47.13395 
L 108.057768 47.114908 
L 108.067162 47.133797 
L 108.081254 47.185891 
L 108.161106 47.062026 
L 108.198683 47.02378 
L 108.250352 47.118695 
L 108.377177 47.208984 
L 108.527487 47.115555 
L 108.635522 47.067411 
L 108.546275 47.125833 
L 108.654311 47.090647 
L 108.785832 47.038231 
L 108.926747 46.863655 
L 109.034783 46.9253 
L 108.997205 46.830328 
L 109.044177 46.902587 
L 109.15691 46.915614 
L 109.081755 46.976113 
L 109.161607 46.926389 
L 109.199184 46.998837 
L 109.283734 46.961059 
L 109.391769 46.836148 
L 109.415255 46.889126 
L 109.495107 46.902258 
L 109.476318 46.835379 
L 109.52329 46.863981 
L 109.650114 47.034616 
L 109.706481 46.988656 
L 109.772241 47.050761 
L 109.828607 46.921137 
L 109.927248 47.014862 
L 109.946037 46.964764 
L 110.12453 46.727965 
L 110.129227 46.737517 
L 110.24196 46.972206 
L 110.288932 46.91104 
L 110.293629 46.897129 
L 110.340601 46.990602 
L 110.39227 46.950886 
L 110.937144 46.503155 
L 110.965327 46.558848 
L 110.974721 46.578292 
L 111.035784 46.42408 
L 111.251855 46.11999 
L 111.261249 46.129118 
L 111.322313 46.126129 
L 111.345799 46.048686 
L 111.500806 45.738157 
L 112.599948 44.115107 
L 112.764349 43.835137 
L 112.938145 43.048416 
L 113.027392 41.392068 
L 113.144822 34.269226 
L 113.079061 44.35759 
L 113.149519 37.961707 
L 113.257554 45.22412 
L 113.234068 34.230114 
L 113.266948 44.788182 
L 113.31392 38.85495 
L 113.318617 33.522741 
L 113.342103 45.185271 
L 113.417258 41.41287 
L 113.511202 45.145164 
L 113.487716 34.474659 
L 113.529991 44.343572 
L 113.666209 33.744313 
L 113.600449 45.282907 
L 113.675604 39.874697 
L 113.689695 45.451003 
L 113.727273 43.398921 
" style="fill:none;stroke:#000000;stroke-linecap:square;stroke-width:0.3;"/>
   </g>
   <g id="line2d_3">
    <path clip-path="url(#p37ef4d4b7a)" d="M 12.272727 65.053188 
L 12.470009 64.584551 
L 12.521678 64.409196 
L 12.596833 63.439466 
L 12.610925 61.685235 
L 12.620319 52.19606 
L 12.643805 66.514636 
L 12.71896 64.55107 
L 12.765932 62.205588 
L 12.775326 52.531515 
L 12.798812 67.156794 
L 12.873967 64.876459 
L 12.925636 62.356912 
L 12.935031 52.334047 
L 12.958517 67.438953 
L 13.033672 65.18052 
L 13.094735 62.593322 
L 13.104129 52.024728 
L 13.127615 67.560949 
L 13.198073 65.564792 
L 13.282623 61.786877 
L 13.292017 53.18867 
L 13.315503 67.640482 
L 13.390658 65.537197 
L 13.484602 61.108754 
L 13.489299 52.667541 
L 13.517482 67.699177 
L 13.592637 65.718046 
L 13.700672 61.811804 
L 13.710067 52.896249 
L 13.733552 67.759421 
L 13.808707 65.873638 
L 13.940229 61.914993 
L 13.949623 52.64268 
L 13.973109 67.724975 
L 14.048264 65.952847 
L 14.198574 62.709311 
L 14.207968 53.344453 
L 14.236152 67.702389 
L 14.297215 66.22475 
L 14.485102 62.06156 
L 14.494497 52.460912 
L 14.517983 67.649931 
L 14.588441 66.027039 
L 14.776328 62.64794 
L 14.785722 53.559003 
L 14.813906 67.643613 
L 14.874969 66.231467 
L 15.086342 62.189739 
L 15.095737 52.427335 
L 15.12392 67.619134 
L 15.18968 66.079788 
L 15.419843 62.122156 
L 15.429237 52.415725 
L 15.45742 67.590712 
L 15.523181 66.079286 
L 15.743949 63.80415 
L 15.772132 62.317523 
L 15.781526 52.47777 
L 15.809709 67.603029 
L 15.87547 66.063227 
L 16.124421 63.868189 
L 16.157301 63.034399 
L 16.171393 53.217704 
L 16.199576 67.570237 
L 16.232456 66.763787 
L 16.429738 64.561822 
L 16.570654 62.746994 
L 16.584745 52.774425 
L 16.608231 67.515707 
L 16.664597 66.232983 
L 16.857182 64.586298 
L 16.998098 63.024694 
L 17.012189 53.185318 
L 17.040372 67.504329 
L 17.073253 66.725543 
L 17.26114 64.754436 
L 17.491302 62.88952 
L 17.505394 52.643661 
L 17.533577 67.44609 
L 17.575852 66.42405 
L 17.768436 64.748262 
L 17.984507 64.176022 
L 18.069056 63.598032 
L 18.092542 62.106481 
L 18.101937 52.575713 
L 18.13012 67.390511 
L 18.19588 65.90281 
L 18.374373 64.807483 
L 18.440134 64.689564 
L 18.61393 64.383489 
L 18.628021 64.436567 
L 18.679691 64.470061 
L 18.651507 64.477395 
L 18.698479 64.515048 
L 18.928641 64.908703 
L 18.966219 65.001091 
L 19.468818 66.449256 
L 19.473515 66.446894 
L 19.487607 66.517742 
L 19.497001 66.531299 
L 19.689586 68.762069 
L 19.853987 69.537318 
L 19.952628 69.700577 
L 19.990206 69.62985 
L 20.098241 69.635293 
L 20.079452 69.691181 
L 20.102938 69.643425 
L 20.168699 69.600487 
L 20.196882 69.672699 
L 20.30022 69.707016 
L 20.243854 69.654101 
L 20.309615 69.692695 
L 20.530382 69.64225 
L 20.535079 69.666126 
L 20.539777 69.69128 
L 20.591446 69.607018 
L 20.643115 69.65413 
L 20.840397 69.604888 
L 20.845094 69.632164 
L 20.86858 69.551337 
L 20.948432 69.5858 
L 20.986009 69.613297 
L 21.089348 69.529982 
L 21.136319 69.570413 
L 21.197383 69.498457 
L 21.286629 69.463923 
L 21.310115 69.509909 
L 21.455728 69.602868 
L 21.460425 69.592247 
L 21.615433 69.455148 
L 21.62013 69.480224 
L 21.77044 69.606218 
L 21.775137 69.586376 
L 21.789228 69.602169 
L 21.944236 69.419048 
L 22.230764 69.492817 
L 22.324708 69.364216 
L 22.366982 69.392263 
L 22.512595 69.48588 
L 22.381074 69.361173 
L 22.531384 69.45585 
L 22.897765 69.259736 
L 22.954131 69.415914 
L 23.024589 69.365109 
L 23.419152 69.187902 
L 23.545976 69.126348 
L 23.898265 68.873611 
L 23.949935 68.79871 
L 24.010998 68.861727 
L 24.184794 68.755001 
L 24.034484 68.884523 
L 24.203583 68.770146 
L 24.264646 68.746269 
L 24.212977 68.73953 
L 24.283435 68.701563 
L 24.466625 68.597372 
L 24.480717 68.609961 
L 24.499505 68.623229 
L 24.5089 68.564087 
L 24.555872 68.535028 
L 24.87528 68.105713 
L 24.908161 68.134907 
L 24.912858 68.149587 
L 24.983316 68.043304 
L 25.006802 68.090068 
L 25.189992 67.92554 
L 25.283936 67.899751 
L 25.213478 67.946996 
L 25.302724 67.913249 
L 25.307422 67.923644 
L 25.363788 67.82941 
L 25.382577 67.832955 
L 25.617436 67.612475 
L 25.622133 67.631088 
L 25.730168 67.629855 
L 25.640922 67.592631 
L 25.734866 67.623506 
L 25.856993 67.505158 
L 25.866387 67.49169 
L 25.979119 67.480844 
L 26.270345 67.124471 
L 26.289134 67.135957 
L 26.303225 67.06672 
L 26.340803 67.051745 
L 26.458232 66.972042 
L 26.37838 67.087976 
L 26.477021 66.984566 
L 26.580359 66.983251 
L 26.514599 66.961711 
L 26.585057 66.966739 
L 26.716578 66.869697 
L 26.758852 66.881146 
L 26.787036 66.784592 
L 26.970226 66.643526 
L 26.993712 66.674818 
L 27.003106 66.693708 
L 27.068867 66.567267 
L 27.078261 66.588331 
L 27.21448 66.456198 
L 27.322515 66.419115 
L 27.327212 66.401096 
L 27.468128 66.208334 
L 27.472825 66.209817 
L 27.54798 66.135154 
L 27.599649 66.03745 
L 27.66541 66.106766 
L 27.679501 66.128171 
L 27.717079 66.075255 
L 27.759353 66.062952 
L 27.904966 65.915548 
L 27.951938 65.954282 
L 27.989516 65.878561 
L 28.013001 65.888948 
L 28.022396 65.899698 
L 28.055276 65.83043 
L 28.083459 65.835631 
L 28.106945 65.796392 
L 28.163311 65.883955 
L 28.186797 65.883965 
L 28.496812 65.464723 
L 28.548481 65.349965 
L 28.628333 65.390516 
L 28.680002 65.349355 
L 28.694094 65.312063 
L 28.844404 65.149454 
L 28.849101 65.162952 
L 29.05108 64.958275 
L 29.055777 64.974463 
L 29.112143 64.777726 
L 29.220179 64.447106 
L 29.309425 63.569145 
L 29.328214 60.902673 
L 29.337608 52.954442 
L 29.361094 66.511521 
L 29.436249 64.499866 
L 29.483221 62.032234 
L 29.492615 52.853436 
L 29.516101 67.137429 
L 29.591256 64.805966 
L 29.642925 60.641677 
L 29.647623 52.08769 
L 29.675806 67.422371 
L 29.750961 65.061636 
L 29.812024 60.461797 
L 29.816721 52.034628 
L 29.844904 67.568509 
L 29.920059 65.302155 
L 29.990517 62.435787 
L 29.999912 52.180491 
L 30.023398 67.635175 
L 30.093855 65.711939 
L 30.187799 62.447787 
L 30.197193 52.121225 
L 30.220679 67.696661 
L 30.291137 65.904312 
L 30.408567 62.130564 
L 30.417961 52.465375 
L 30.441447 67.704649 
L 30.511905 65.931941 
L 30.643426 62.179968 
L 30.652821 52.364279 
L 30.676307 67.689508 
L 30.746764 66.065797 
L 30.901772 61.514129 
L 30.911166 53.127094 
L 30.934652 67.72016 
L 31.009807 65.944853 
L 31.183603 61.843549 
L 31.192997 52.701975 
L 31.216483 67.644453 
L 31.286941 66.053324 
L 31.479526 61.528491 
L 31.48892 53.020798 
L 31.512406 67.653352 
L 31.587561 65.934807 
L 31.798934 62.026343 
L 31.808329 52.472396 
L 31.831815 67.617693 
L 31.902272 66.055636 
L 32.132435 61.85746 
L 32.141829 52.608536 
L 32.165315 67.598147 
L 32.235773 66.047831 
L 32.489421 62.262882 
L 32.498815 52.508157 
L 32.526998 67.573003 
L 32.592759 66.024619 
L 32.775949 64.315898 
L 32.860499 62.982239 
L 32.87459 52.762205 
L 32.902773 67.543473 
L 32.940351 66.629633 
L 33.189302 64.055855 
L 33.245668 63.094645 
L 33.264457 53.266181 
L 33.287943 67.530951 
L 33.316126 66.923672 
L 33.50871 64.565395 
L 33.677809 63.142473 
L 33.691901 56.473307 
L 33.696598 52.686667 
L 33.720084 67.476484 
L 33.790542 65.945658 
L 33.983126 64.605457 
L 34.161619 63.605365 
L 34.185105 62.262584 
L 34.1945 52.745257 
L 34.222683 67.443097 
L 34.288443 65.900642 
L 34.471634 64.425512 
L 34.579669 63.913295 
L 34.626641 62.935287 
L 34.640733 52.951345 
L 34.668916 67.430046 
L 34.706493 66.554312 
L 34.870895 64.917671 
L 35.082268 64.261562 
L 35.16212 63.911497 
L 35.213789 63.064585 
L 35.232578 53.276325 
L 35.256064 67.386038 
L 35.284247 66.754901 
L 35.458043 64.976084 
L 35.495621 64.869314 
L 35.650628 64.584433 
L 35.753966 64.568288 
L 35.76336 64.556041 
L 35.796241 64.537976 
L 35.833818 64.621015 
L 36.073375 65.238241 
L 36.092163 65.225504 
L 36.129741 65.349237 
L 36.139135 65.352287 
L 36.373995 65.957608 
L 36.378692 65.942574 
L 36.566579 66.30086 
L 36.580671 66.293828 
L 36.608854 66.626436 
L 36.792044 69.349903 
L 36.93296 69.692769 
L 36.942354 69.677574 
L 37.022206 69.752185 
L 37.055087 69.680869 
L 37.252369 69.660184 
L 37.341615 69.698214 
L 37.275855 69.647157 
L 37.365101 69.680021 
L 37.50132 69.586821 
L 37.407376 69.720746 
L 37.510714 69.617048 
L 37.759665 69.654519 
L 37.764362 69.643603 
L 37.905278 69.566228 
L 37.956947 69.61438 
L 38.01801 69.572428 
L 38.130743 69.531764 
L 38.144834 69.54841 
L 38.276355 69.585952 
L 38.281053 69.580578 
L 38.398482 69.52541 
L 38.295144 69.594871 
L 38.43606 69.562611 
L 38.478334 69.574856 
L 38.534701 69.50399 
L 38.670919 69.453922 
L 38.797743 69.467642 
L 38.807138 69.439233 
L 38.877595 69.381102 
L 38.933962 69.420127 
L 39.027905 69.540346 
L 39.107758 69.476216 
L 39.197004 69.42911 
L 39.229884 69.485627 
L 39.234582 69.49621 
L 39.290948 69.386368 
L 39.305039 69.383468 
L 39.366103 69.367968 
L 39.413075 69.446625 
L 39.52111 69.51031 
L 39.455349 69.408917 
L 39.535202 69.485753 
L 39.793547 69.346585 
L 39.802941 69.364825 
L 39.915674 69.39251 
L 39.812336 69.357865 
L 39.925068 69.371012 
L 40.061287 69.287242 
L 40.098864 69.320291 
L 40.108258 69.339259 
L 40.127047 69.265601 
L 40.202202 69.27824 
L 40.310237 69.184614 
L 40.277357 69.310236 
L 40.324329 69.219556 
L 40.408878 69.209382 
L 40.380695 69.170077 
L 40.42297 69.183456 
L 40.502822 69.106282 
L 40.549794 69.174571 
L 40.686012 69.327828 
L 40.704801 69.316278 
L 40.845717 69.21152 
L 40.855111 69.225879 
L 41.118154 69.143953 
L 41.244978 69.089547 
L 41.259069 69.122094 
L 41.273161 69.160428 
L 41.329527 69.059516 
L 41.35771 69.082238 
L 41.616055 68.87336 
L 41.620753 68.886366 
L 41.677119 68.782859 
L 41.827429 68.654436 
L 41.869704 68.662374 
L 41.916675 68.584378 
L 42.043499 68.487836 
L 42.273662 68.304946 
L 42.330028 68.292255 
L 42.358211 68.235402 
L 44.424973 66.595299 
L 44.443762 66.620564 
L 44.48134 66.687638 
L 44.5471 66.592166 
L 44.551797 66.59424 
L 44.744382 66.434309 
L 44.894692 66.23244 
L 44.899389 66.238769 
L 45.040305 66.245382 
L 45.049699 66.225812 
L 45.059094 66.246317 
L 45.29865 66.033608 
L 45.308045 66.051718 
L 45.373805 65.919358 
L 45.467749 65.862034 
L 45.406685 65.960312 
L 45.491235 65.920562 
L 45.542904 65.978725 
L 45.514721 65.894362 
L 45.608665 65.925355 
L 45.777763 65.688856 
L 45.791855 65.708021 
L 45.843524 65.749679 
L 45.871707 65.656745 
L 45.890496 65.664215 
L 46.430672 65.117966 
L 46.472947 65.134453 
L 46.50113 65.035263 
L 46.505827 65.040273 
L 46.665532 64.816199 
L 46.670229 64.835043 
L 46.735989 64.66716 
L 46.825236 64.255652 
L 46.890997 62.363367 
L 46.900391 52.1473 
L 46.928574 66.508983 
L 46.994335 64.713754 
L 47.046004 62.51704 
L 47.055398 52.121393 
L 47.078884 67.147699 
L 47.149342 65.046452 
L 47.205708 62.688715 
L 47.215103 52.007249 
L 47.243286 67.415224 
L 47.309046 65.324949 
L 47.379504 61.034786 
L 47.384201 52.285407 
L 47.412384 67.560722 
L 47.487539 65.316451 
L 47.562694 61.650212 
L 47.567392 53.308025 
L 47.595575 67.673895 
L 47.67073 65.577737 
L 47.764673 61.449602 
L 47.769371 53.087263 
L 47.797554 67.710711 
L 47.872709 65.747614 
L 47.985441 61.466991 
L 47.994836 53.419978 
L 48.018322 67.698837 
L 48.093477 65.815617 
L 48.224998 61.466674 
L 48.234392 53.277308 
L 48.257878 67.727681 
L 48.333033 65.912047 
L 48.478646 62.154089 
L 48.48804 52.329585 
L 48.516223 67.701605 
L 48.581984 66.080136 
L 48.760477 62.446047 
L 48.769872 52.539673 
L 48.798055 67.655536 
L 48.863815 66.091857 
L 49.065794 62.350693 
L 49.075189 52.448424 
L 49.103372 67.609688 
L 49.169132 66.065842 
L 49.3899 61.780476 
L 49.399295 52.691339 
L 49.422781 67.609338 
L 49.493238 66.030875 
L 49.728098 61.691289 
L 49.737492 52.743885 
L 49.760978 67.594761 
L 49.831436 66.016997 
L 50.085084 62.243943 
L 50.094478 52.460729 
L 50.122661 67.565394 
L 50.188422 66.037567 
L 50.423281 64.082349 
L 50.479648 62.800951 
L 50.493739 52.581384 
L 50.517225 67.528873 
L 50.573591 66.240281 
L 50.784965 64.38544 
L 50.869514 63.791201 
L 50.902394 61.450624 
L 50.911789 52.941185 
L 50.935275 67.516405 
L 51.005733 65.938528 
L 51.198317 64.528489 
L 51.264078 64.315945 
L 51.34393 63.649627 
L 51.367416 62.476586 
L 51.37681 53.144219 
L 51.404993 67.476326 
L 51.466057 66.069485 
L 51.64455 64.739475 
L 51.935776 63.144411 
L 51.949867 56.487298 
L 51.954564 52.588593 
L 51.982748 67.408858 
L 52.048508 65.825437 
L 52.236396 64.596047 
L 52.241093 64.616537 
L 52.452466 63.206154 
L 52.466558 59.555872 
L 52.471255 52.890702 
L 52.499438 67.387009 
L 52.569896 65.81774 
L 52.753086 64.809608 
L 52.898699 64.601425 
L 53.772376 66.223752 
L 53.983749 67.223166 
L 54.16694 69.436582 
L 54.293764 69.650295 
L 54.312552 69.638092 
L 54.373616 69.616883 
L 54.41589 69.681617 
L 54.439376 69.74244 
L 54.505137 69.652843 
L 54.528623 69.696498 
L 54.772877 69.623928 
L 54.909095 69.700901 
L 54.937278 69.632833 
L 54.988947 69.542164 
L 55.054708 69.561427 
L 55.16744 69.616867 
L 55.181532 69.584815 
L 55.214412 69.607044 
L 55.313053 69.568131 
L 55.726406 69.52029 
L 55.763983 69.486493 
L 55.810955 69.547388 
L 55.839138 69.51561 
L 55.975357 69.468125 
L 56.064603 69.497309 
L 56.092786 69.43881 
L 56.15385 69.492667 
L 56.205519 69.406277 
L 56.557808 69.480291 
L 56.712815 69.339688 
L 56.731604 69.351958 
L 56.933583 69.390647 
L 56.980555 69.437954 
L 57.036921 69.346142 
L 57.149653 69.382164 
L 57.126167 69.318109 
L 57.154351 69.35337 
L 57.304661 69.302856 
L 57.332844 69.364343 
L 57.426787 69.470576 
L 57.454971 69.41791 
L 57.595886 69.357308 
L 57.68983 69.336276 
L 57.694527 69.307561 
L 57.84014 69.149673 
L 57.868323 69.190921 
L 57.948175 69.166637 
L 57.95757 69.128772 
L 57.995147 69.161047 
L 58.065605 69.146585 
L 58.070302 69.163161 
L 58.145457 69.024834 
L 58.328647 68.902414 
L 58.460169 68.765629 
L 58.47426 68.794556 
L 59.174141 68.376333 
L 59.404303 68.179851 
L 59.413698 68.198513 
L 59.418395 68.21776 
L 59.488853 68.059736 
L 59.639163 67.912177 
L 59.502944 68.075101 
L 59.672043 67.939582 
L 59.686134 67.980669 
L 59.770684 67.893112 
L 59.784775 67.925055 
L 61.226812 66.749156 
L 61.264389 66.819413 
L 61.339544 66.757069 
L 61.51334 66.486847 
L 61.550918 66.518163 
L 61.569707 66.533178 
L 61.621376 66.456807 
L 61.644862 66.473824 
L 61.715319 66.373242 
L 61.790474 66.423237 
L 61.804566 66.436128 
L 61.832749 66.331169 
L 61.837446 66.331383 
L 61.968967 66.176733 
L 61.983059 66.192469 
L 61.987756 66.219801 
L 62.077003 66.111145 
L 62.335348 65.873148 
L 62.340045 65.885312 
L 62.410503 65.78023 
L 62.579602 65.658575 
L 62.584299 65.666349 
L 63.039926 65.235876 
L 63.171447 65.08383 
L 63.476764 63.993527 
L 63.514342 62.988702 
L 63.528434 52.191221 
L 63.556617 66.457615 
L 63.608286 65.034095 
L 63.674046 61.834376 
L 63.683441 53.239955 
L 63.706927 67.110009 
L 63.782082 64.769655 
L 63.829054 62.103097 
L 63.838448 52.84653 
L 63.861934 67.41052 
L 63.937089 65.029237 
L 63.993455 60.955239 
L 63.998152 52.125234 
L 64.026335 67.589723 
L 64.10149 65.277745 
L 64.171948 61.248058 
L 64.176645 52.531963 
L 64.204829 67.659007 
L 64.279984 65.499996 
L 64.364533 62.062295 
L 64.373927 52.678139 
L 64.397413 67.714303 
L 64.472568 65.68918 
L 64.575906 62.107584 
L 64.585301 52.515764 
L 64.608787 67.718547 
L 64.683942 65.826545 
L 64.801371 60.767162 
L 64.806068 52.474882 
L 64.834252 67.767676 
L 64.909407 65.896226 
L 65.055019 61.338905 
L 65.064414 53.432656 
L 65.0879 67.696176 
L 65.163055 65.903096 
L 65.322759 61.918566 
L 65.332153 52.608315 
L 65.355639 67.668083 
L 65.426097 66.078261 
L 65.60459 62.019335 
L 65.613985 52.487146 
L 65.637471 67.668614 
L 65.707928 66.117288 
L 65.90521 62.259716 
L 65.914605 52.454573 
L 65.942788 67.63551 
L 66.008548 66.092484 
L 66.224619 61.877784 
L 66.234013 52.575625 
L 66.257499 67.632889 
L 66.327957 66.074899 
L 66.572211 60.454984 
L 66.576908 53.128091 
L 66.605091 67.583993 
L 66.675549 65.977618 
L 66.9245 62.178299 
L 66.933894 52.54322 
L 66.962077 67.560373 
L 67.027838 66.037454 
L 67.258 64.125181 
L 67.319064 62.561804 
L 67.328458 53.515876 
L 67.356641 67.564526 
L 67.417705 66.136725 
L 67.624381 64.324568 
L 67.70893 63.323737 
L 67.723022 60.790779 
L 67.727719 53.469879 
L 67.755902 67.54068 
L 67.82636 65.988448 
L 68.018944 64.523525 
L 68.150466 62.827758 
L 68.164557 52.550907 
L 68.188043 67.479223 
L 68.239712 66.347427 
L 68.413508 64.764737 
L 68.634276 63.142193 
L 68.648368 56.585247 
L 68.653065 52.599975 
L 68.676551 67.447685 
L 68.747008 65.941994 
L 68.925502 64.737579 
L 69.014748 64.469659 
L 69.216727 62.386533 
L 69.226122 53.183196 
L 69.254305 67.392374 
L 69.320065 65.895811 
L 69.493861 64.751869 
L 69.667657 64.625106 
L 69.677052 64.640287 
L 69.803876 64.754508 
L 69.808573 64.743795 
L 69.860242 64.881031 
L 69.893122 65.256829 
L 70.076312 69.03968 
L 70.2642 69.690559 
L 70.268897 69.686122 
L 70.367538 69.687335 
L 70.329961 69.633954 
L 70.376932 69.670934 
L 70.480271 69.643141 
L 70.409813 69.703557 
L 70.499059 69.663769 
L 70.550728 69.677858 
L 70.574214 69.586211 
L 70.607095 69.630446 
L 70.668158 69.575265 
L 70.729221 69.617985 
L 70.780891 69.709232 
L 70.841954 69.606965 
L 70.856046 69.576467 
L 70.89832 69.660294 
L 70.945292 69.637929 
L 70.992264 69.683079 
L 71.053327 69.598564 
L 71.16606 69.560308 
L 71.175454 69.578447 
L 71.306975 69.649057 
L 71.410314 69.532965 
L 71.429102 69.56891 
L 71.748511 69.55561 
L 71.842455 69.605279 
L 71.7673 69.539957 
L 71.865941 69.563916 
L 73.026146 69.439793 
L 73.059026 69.476824 
L 73.124787 69.376805 
L 73.246914 69.30966 
L 73.162364 69.420976 
L 73.256308 69.346099 
L 73.293886 69.354964 
L 73.33616 69.288175 
L 73.369041 69.336759 
L 73.462984 69.229596 
L 73.542837 69.214238 
L 73.509956 69.161823 
L 73.561625 69.192009 
L 73.599203 69.120185 
L 73.650872 69.252371 
L 73.655569 69.229709 
L 73.801182 69.362235 
L 73.838759 69.403355 
L 73.923309 69.338038 
L 74.158168 69.251151 
L 74.162865 69.265567 
L 74.186351 69.176251 
L 74.209837 69.165161 
L 74.425908 68.993642 
L 74.496366 68.995352 
L 74.458788 68.96312 
L 74.519852 68.952517 
L 74.604401 68.87702 
L 74.646676 68.906817 
L 74.843957 68.754237 
L 74.975479 68.691813 
L 75.003662 68.707034 
L 75.045936 68.593094 
L 75.182155 68.56298 
L 75.186852 68.534922 
L 75.280796 68.389346 
L 75.332465 68.420204 
L 75.595507 68.161831 
L 75.609599 68.205432 
L 76.163867 67.766879 
L 76.168564 67.803932 
L 76.257811 67.662479 
L 76.384635 67.586281 
L 76.281297 67.698973 
L 76.394029 67.613545 
L 76.422212 67.646209 
L 76.473881 67.523382 
L 76.483276 67.541103 
L 76.572522 67.438685 
L 76.605403 67.460151 
L 76.863748 67.23577 
L 76.990572 67.146444 
L 76.882537 67.244504 
L 76.995269 67.148478 
L 77.009361 67.147292 
L 77.037544 67.045231 
L 77.042241 67.046938 
L 77.225431 66.728625 
L 77.239523 66.748325 
L 77.690453 66.490917 
L 77.704544 66.538334 
L 77.72803 66.556549 
L 77.779699 66.464124 
L 77.793791 66.469623 
L 77.948798 66.368464 
L 77.958193 66.387434 
L 78.009862 66.292421 
L 78.047439 66.34682 
L 78.080319 66.236587 
L 78.164869 66.290501 
L 78.310482 66.161264 
L 78.366848 66.205917 
L 78.409122 66.130692 
L 78.559432 65.925371 
L 78.432608 66.149043 
L 78.568827 65.95072 
L 78.582918 65.973584 
L 78.620496 65.910457 
L 78.672165 65.924793 
L 78.93051 65.620803 
L 78.939905 65.646842 
L 78.972785 65.582758 
L 79.033848 65.590753 
L 79.301588 65.378619 
L 79.329771 65.411135 
L 79.419018 65.398593 
L 79.428412 65.375296 
L 79.578722 65.112785 
L 79.691455 65.119361 
L 79.64918 65.050782 
L 79.696152 65.102028 
L 79.743124 65.118386 
L 80.048441 63.604802 
L 80.06723 61.771464 
L 80.076624 52.168812 
L 80.10011 66.496122 
L 80.175265 64.564874 
L 80.222237 62.614805 
L 80.231631 52.107379 
L 80.259814 67.127459 
L 80.325575 65.021335 
L 80.381941 62.688681 
L 80.391335 51.981836 
L 80.419519 67.420738 
L 80.485279 65.350402 
L 80.555737 61.733034 
L 80.560434 53.279185 
L 80.588617 67.599586 
L 80.663772 65.398867 
L 80.743624 61.656039 
L 80.753019 53.369115 
L 80.776505 67.639813 
L 80.85166 65.567272 
L 80.945604 61.303275 
L 80.950301 52.948931 
L 80.978484 67.69475 
L 81.053639 65.732495 
L 81.166371 62.167811 
L 81.175766 52.381705 
L 81.199252 67.691389 
L 81.269709 65.978337 
L 81.410625 61.888367 
L 81.420019 52.732833 
L 81.443505 67.680745 
L 81.51866 65.869182 
L 81.678365 61.54275 
L 81.687759 53.093977 
L 81.711245 67.642372 
L 81.7864 65.904915 
L 81.960196 61.093323 
L 81.964893 53.520195 
L 81.993076 67.672575 
L 82.068231 65.892925 
L 82.256119 62.035839 
L 82.265513 52.433014 
L 82.288999 67.640749 
L 82.359457 66.106592 
L 82.575527 62.042855 
L 82.584922 52.457987 
L 82.608408 67.613885 
L 82.678866 66.059653 
L 82.923119 62.003108 
L 82.932514 52.528929 
L 82.956 67.563987 
L 83.026457 66.036661 
L 83.280106 61.669942 
L 83.2895 52.761663 
L 83.312986 67.573247 
L 83.383444 66.008606 
L 83.665275 60.834691 
L 83.669972 53.623682 
L 83.698155 67.532966 
L 83.768613 65.975531 
L 83.979986 64.253714 
L 84.050444 63.332658 
L 84.064536 61.244671 
L 84.07393 53.187445 
L 84.097416 67.538839 
L 84.167874 65.960732 
L 84.37455 64.362988 
L 84.49198 62.757198 
L 84.506071 52.721635 
L 84.529557 67.46133 
L 84.585924 66.192703 
L 84.787903 64.558955 
L 84.7926 64.561477 
L 84.806691 64.484566 
L 84.830177 64.468415 
L 84.985184 62.312416 
L 84.994579 52.687421 
L 85.022762 67.479558 
L 85.088523 65.890119 
L 85.281107 64.618932 
L 85.323382 64.475634 
L 85.515967 62.208689 
L 85.525361 52.649425 
L 85.553544 67.405987 
L 85.619305 65.872801 
L 85.807192 64.842433 
L 85.811889 64.846681 
L 85.84477 64.750108 
L 85.849467 64.74845 
L 86.018566 64.334198 
L 86.06084 64.384908 
L 86.117207 64.285829 
L 86.305094 63.426577 
L 86.323883 60.575367 
L 86.32858 53.495969 
L 86.356763 67.349778 
L 86.427221 65.780645 
L 86.582228 64.803481 
L 86.713749 64.740533 
L 86.723144 64.755928 
L 86.840573 64.869084 
L 86.774813 64.727277 
L 86.845271 64.857336 
L 86.854665 64.837634 
L 86.920426 64.956717 
L 87.507574 66.769249 
L 87.704856 69.461266 
L 87.841074 69.705493 
L 87.873955 69.668464 
L 88.118208 69.608275 
L 88.122906 69.620883 
L 88.193363 69.655602 
L 88.1323 69.59189 
L 88.240335 69.626135 
L 88.254427 69.599795 
L 88.324885 69.701333 
L 88.827484 69.539696 
L 88.865061 69.513878 
L 88.888547 69.604456 
L 88.930822 69.569914 
L 88.959005 69.610849 
L 89.024765 69.534778 
L 89.029463 69.537044 
L 89.114012 69.459937 
L 89.142195 69.509965 
L 89.325385 69.516534 
L 89.391146 69.566464 
L 89.447512 69.489203 
L 89.541456 69.542424 
L 89.494484 69.456341 
L 89.564942 69.521481 
L 89.593125 69.555782 
L 89.710555 69.444686 
L 89.945414 69.449984 
L 89.978294 69.34958 
L 90.058147 69.420143 
L 90.189668 69.403006 
L 90.199062 69.42178 
L 90.241337 69.296964 
L 90.283612 69.339011 
L 90.654689 69.318228 
L 90.715753 69.276951 
L 90.75333 69.368135 
L 90.758028 69.36488 
L 90.908338 69.398083 
L 91.035162 69.235791 
L 91.039859 69.242925 
L 91.265324 69.226557 
L 91.382753 69.131168 
L 91.392148 69.159365 
L 91.406239 69.188177 
L 91.490789 69.088647 
L 91.500183 69.133534 
L 91.650493 69.011097 
L 91.688071 69.051202 
L 91.758528 69.000711 
L 91.861867 68.952618 
L 91.796106 69.04447 
L 91.880655 68.988525 
L 91.885352 69.00061 
L 91.951113 68.887611 
L 92.04036 68.748834 
L 92.077937 68.784014 
L 92.171881 68.706551 
L 92.214156 68.73575 
L 92.218853 68.750571 
L 92.294008 68.627262 
L 93.628009 67.563369 
L 93.637403 67.584818 
L 93.707861 67.43775 
L 93.900446 67.247191 
L 93.994389 67.192373 
L 94.107122 67.081299 
L 94.121214 67.087315 
L 94.266826 67.165173 
L 94.280918 67.148107 
L 94.741242 66.690681 
L 94.304404 67.17975 
L 94.755334 66.719514 
L 94.919735 66.586982 
L 95.055954 66.499875 
L 95.168686 66.401546 
L 95.22975 66.343967 
L 95.281419 66.388685 
L 95.290813 66.407825 
L 95.342482 66.28306 
L 95.403546 66.301386 
L 95.469306 66.18063 
L 95.474003 66.190853 
L 95.539764 66.105497 
L 95.553856 66.1139 
L 95.68068 66.025642 
L 95.779321 65.982642 
L 95.86387 65.924394 
L 95.83099 66.017161 
L 95.892053 65.970283 
L 96.079941 65.800885 
L 96.103427 65.828977 
L 96.16449 65.727006 
L 96.173884 65.752018 
L 96.338286 65.621623 
L 96.427532 65.59662 
L 96.441624 65.567458 
L 96.643603 65.285371 
L 96.770427 65.167785 
L 96.892554 65.047581 
L 96.826793 65.210561 
L 96.897251 65.052963 
L 97.127413 64.707893 
L 97.254237 63.741153 
L 97.277723 62.341891 
L 97.287118 52.133313 
L 97.315301 66.496295 
L 97.381061 64.720548 
L 97.437428 62.089875 
L 97.446822 52.731193 
L 97.470308 67.12561 
L 97.545463 64.805228 
L 97.597132 61.905535 
L 97.606526 53.121447 
L 97.630012 67.42486 
L 97.705167 65.106253 
L 97.766231 61.963504 
L 97.775625 53.005876 
L 97.799111 67.572052 
L 97.874266 65.335788 
L 97.949421 62.104926 
L 97.958815 52.651602 
L 97.982301 67.646088 
L 98.057456 65.566007 
L 98.146703 61.725379 
L 98.156097 53.176672 
L 98.179583 67.742144 
L 98.254738 65.73498 
L 98.367471 62.295818 
L 98.376865 52.259683 
L 98.400351 67.684956 
L 98.470809 65.986425 
L 98.607027 62.470065 
L 98.616422 52.334909 
L 98.644605 67.670224 
L 98.710365 66.057949 
L 98.860675 62.241928 
L 98.87007 52.285557 
L 98.898253 67.700151 
L 98.964013 66.094295 
L 99.137809 59.831072 
L 99.142507 52.481724 
L 99.17069 67.69458 
L 99.241148 66.014241 
L 99.438429 62.038937 
L 99.447824 52.46896 
L 99.47131 67.629964 
L 99.541768 66.068784 
L 99.753141 62.83512 
L 99.767232 52.577988 
L 99.790718 67.624652 
L 99.847085 66.340037 
L 100.091338 61.825636 
L 100.100733 52.626041 
L 100.124219 67.596669 
L 100.194677 66.045314 
L 100.429536 59.41585 
L 100.434233 52.59321 
L 100.462416 67.598284 
L 100.532874 66.004293 
L 100.791219 62.175328 
L 100.800614 52.512446 
L 100.828797 67.561308 
L 100.894557 66.01462 
L 101.195177 61.760165 
L 101.204572 52.647607 
L 101.228058 67.541712 
L 101.298516 65.973582 
L 101.538072 64.281468 
L 101.617924 63.423107 
L 101.636713 58.999445 
L 101.64141 52.533711 
L 101.669593 67.50784 
L 101.740051 65.894732 
L 101.923241 64.556429 
L 102.09234 63.069526 
L 102.111129 53.183844 
L 102.134615 67.470388 
L 102.162798 66.822889 
L 102.383566 64.595363 
L 102.566756 63.107385 
L 102.585545 52.863328 
L 102.609031 67.421431 
L 102.632517 66.947527 
L 102.81101 64.969267 
L 103.055264 64.298347 
L 103.153904 64.20055 
L 103.247848 62.918256 
L 103.26194 52.592228 
L 103.290123 67.400835 
L 103.332398 66.30773 
L 103.496799 64.911782 
L 103.506193 64.920732 
L 103.661201 64.723859 
L 103.665898 64.725828 
L 103.698778 64.742419 
L 103.750447 64.68967 
L 103.773933 64.717923 
L 103.806813 64.693649 
L 103.872574 64.767649 
L 104.032278 65.016722 
L 104.375173 65.670971 
L 104.384567 65.66415 
L 104.426842 65.795299 
L 104.943533 66.625811 
L 104.952927 66.601889 
L 104.976413 66.585966 
L 105.037476 66.682223 
L 105.178392 66.865461 
L 105.192484 66.8594 
L 105.375674 66.918281 
L 105.446132 66.913213 
L 105.474315 66.976866 
L 105.479012 66.956509 
L 105.530681 66.87362 
L 105.58235 66.992439 
L 106.554668 67.534017 
L 106.733161 69.414991 
L 106.869379 69.577623 
L 106.916351 69.633624 
L 106.96802 69.530973 
L 106.972718 69.540419 
L 107.26864 69.610762 
L 107.306218 69.572377 
L 107.35319 69.662941 
L 107.371979 69.627513 
L 107.390767 69.674298 
L 107.442436 69.601382 
L 107.484711 69.626304 
L 107.53638 69.532219 
L 107.602141 69.550406 
L 107.606838 69.5685 
L 107.696084 69.49377 
L 107.710176 69.528027 
L 107.780634 69.497511 
L 107.818211 69.53953 
L 108.161106 69.506651 
L 108.250352 69.486242 
L 108.179895 69.521773 
L 108.264444 69.538676 
L 108.457029 69.454468 
L 108.550972 69.386861 
L 108.579156 69.426933 
L 108.70598 69.541911 
L 108.884473 69.384945 
L 108.88917 69.401945 
L 108.893867 69.41581 
L 108.969022 69.296069 
L 109.03948 69.278078 
L 109.053572 69.34066 
L 109.062966 69.343011 
L 109.194487 69.487577 
L 109.326008 69.3655 
L 109.330706 69.378145 
L 109.37298 69.414444 
L 109.434044 69.355896 
L 109.49041 69.29625 
L 109.532685 69.376317 
L 109.626628 69.454449 
L 109.650114 69.446181 
L 109.997706 69.236818 
L 110.016495 69.279502 
L 110.096347 69.187599 
L 110.148016 69.187705 
L 110.171502 69.247824 
L 110.190291 69.238092 
L 110.326509 69.326372 
L 110.462728 69.262453 
L 110.519094 69.263615 
L 110.490911 69.223412 
L 110.561369 69.232235 
L 110.697587 69.148344 
L 110.87608 69.052603 
L 110.885474 69.065761 
L 110.890172 69.074333 
L 110.955932 68.981916 
L 111.101545 68.927854 
L 111.341102 68.736852 
L 111.35989 68.784274 
L 111.430348 68.814984 
L 111.388074 68.753332 
L 111.458531 68.745259 
L 111.618236 68.607906 
L 111.637024 68.65672 
L 111.641722 68.680459 
L 111.721574 68.554823 
L 111.726271 68.558651 
L 111.862489 68.392895 
L 111.871884 68.402486 
L 111.881278 68.415328 
L 111.904764 68.336161 
L 111.951736 68.326997 
L 112.11144 68.142749 
L 112.374483 67.912962 
L 112.510701 67.701058 
L 112.661011 67.697098 
L 112.675103 67.655982 
L 112.787835 67.56396 
L 112.806624 67.593782 
L 112.86299 67.586927 
L 112.820716 67.569903 
L 112.886476 67.53553 
L 112.961631 67.493452 
L 112.909962 67.554774 
L 112.994512 67.54382 
L 113.074364 67.501506 
L 113.083758 67.462679 
L 113.243462 67.336722 
L 113.266948 67.355189 
L 113.252857 67.31928 
L 113.31392 67.276136 
L 113.403167 67.171912 
L 113.332709 67.296968 
L 113.440744 67.194711 
L 113.680301 66.87544 
L 113.703787 66.88881 
L 113.717878 66.921407 
L 113.727273 66.903509 
" style="fill:none;stroke:#000000;stroke-linecap:square;stroke-width:0.3;"/>
   </g>
  </g>
 </g>
 <defs>
  <clipPath id="p37ef4d4b7a">
   <rect height="63.756" width="111.6" x="7.2" y="7.2"/>
  </clipPath>
 </defs>
</svg>
