<?xml version="1.0" encoding="utf-8" standalone="no"?>
<!DOCTYPE svg PUBLIC "-//W3C//DTD SVG 1.1//EN"
  "http://www.w3.org/Graphics/SVG/1.1/DTD/svg11.dtd">
<!-- Created with matplotlib (https://matplotlib.org/) -->
<svg height="116.7361pt" version="1.1" viewBox="0 0 112.108 116.7361" width="112.108pt" xmlns="http://www.w3.org/2000/svg" xmlns:xlink="http://www.w3.org/1999/xlink">
 <metadata>
  <rdf:RDF xmlns:cc="http://creativecommons.org/ns#" xmlns:dc="http://purl.org/dc/elements/1.1/" xmlns:rdf="http://www.w3.org/1999/02/22-rdf-syntax-ns#">
   <cc:Work>
    <dc:type rdf:resource="http://purl.org/dc/dcmitype/StillImage"/>
    <dc:date>2021-01-26T17:42:06.283233</dc:date>
    <dc:format>image/svg+xml</dc:format>
    <dc:creator>
     <cc:Agent>
      <dc:title>Matplotlib v3.3.2, https://matplotlib.org/</dc:title>
     </cc:Agent>
    </dc:creator>
   </cc:Work>
  </rdf:RDF>
 </metadata>
 <defs>
  <style type="text/css">*{stroke-linecap:butt;stroke-linejoin:round;}</style>
 </defs>
 <g id="figure_1">
  <g id="patch_1">
   <path d="M 0 116.7361 
L 112.108 116.7361 
L 112.108 -0 
L 0 -0 
z
" style="fill:none;"/>
  </g>
  <g id="axes_1">
   <g id="patch_2">
    <path d="M 10.7 83.0336 
L 99.98 83.0336 
L 99.98 33.1376 
L 10.7 33.1376 
z
" style="fill:none;"/>
   </g>
   <g id="patch_3">
    <path clip-path="url(#p0cc2b01573)" d="M 14.758182 83.0336 
L 15.569818 83.0336 
L 15.569818 83.0336 
L 14.758182 83.0336 
z
" style="fill:#ffffff;"/>
   </g>
   <g id="patch_4">
    <path clip-path="url(#p0cc2b01573)" d="M 15.569818 83.0336 
L 16.381455 83.0336 
L 16.381455 83.0336 
L 15.569818 83.0336 
z
" style="fill:#ffffff;"/>
   </g>
   <g id="patch_5">
    <path clip-path="url(#p0cc2b01573)" d="M 16.381455 83.0336 
L 17.193091 83.0336 
L 17.193091 83.0336 
L 16.381455 83.0336 
z
" style="fill:#ffffff;"/>
   </g>
   <g id="patch_6">
    <path clip-path="url(#p0cc2b01573)" d="M 17.193091 83.0336 
L 18.004727 83.0336 
L 18.004727 83.0336 
L 17.193091 83.0336 
z
" style="fill:#ffffff;"/>
   </g>
   <g id="patch_7">
    <path clip-path="url(#p0cc2b01573)" d="M 18.004727 83.0336 
L 18.816364 83.0336 
L 18.816364 83.0336 
L 18.004727 83.0336 
z
" style="fill:#ffffff;"/>
   </g>
   <g id="patch_8">
    <path clip-path="url(#p0cc2b01573)" d="M 18.816364 83.0336 
L 19.628 83.0336 
L 19.628 83.0336 
L 18.816364 83.0336 
z
" style="fill:#ffffff;"/>
   </g>
   <g id="patch_9">
    <path clip-path="url(#p0cc2b01573)" d="M 19.628 83.0336 
L 20.439636 83.0336 
L 20.439636 83.0336 
L 19.628 83.0336 
z
" style="fill:#ffffff;"/>
   </g>
   <g id="patch_10">
    <path clip-path="url(#p0cc2b01573)" d="M 20.439636 83.0336 
L 21.251273 83.0336 
L 21.251273 83.0336 
L 20.439636 83.0336 
z
" style="fill:#ffffff;"/>
   </g>
   <g id="patch_11">
    <path clip-path="url(#p0cc2b01573)" d="M 21.251273 83.0336 
L 22.062909 83.0336 
L 22.062909 83.0336 
L 21.251273 83.0336 
z
" style="fill:#ffffff;"/>
   </g>
   <g id="patch_12">
    <path clip-path="url(#p0cc2b01573)" d="M 22.062909 83.0336 
L 22.874545 83.0336 
L 22.874545 83.0336 
L 22.062909 83.0336 
z
" style="fill:#ffffff;"/>
   </g>
   <g id="patch_13">
    <path clip-path="url(#p0cc2b01573)" d="M 22.874545 83.0336 
L 23.686182 83.0336 
L 23.686182 83.0336 
L 22.874545 83.0336 
z
" style="fill:#ffffff;"/>
   </g>
   <g id="patch_14">
    <path clip-path="url(#p0cc2b01573)" d="M 23.686182 83.0336 
L 24.497818 83.0336 
L 24.497818 83.0336 
L 23.686182 83.0336 
z
" style="fill:#ffffff;"/>
   </g>
   <g id="patch_15">
    <path clip-path="url(#p0cc2b01573)" d="M 24.497818 83.0336 
L 25.309455 83.0336 
L 25.309455 83.0336 
L 24.497818 83.0336 
z
" style="fill:#ffffff;"/>
   </g>
   <g id="patch_16">
    <path clip-path="url(#p0cc2b01573)" d="M 25.309455 83.0336 
L 26.121091 83.0336 
L 26.121091 82.841692 
L 25.309455 82.841692 
z
" style="fill:#ffffff;"/>
   </g>
   <g id="patch_17">
    <path clip-path="url(#p0cc2b01573)" d="M 26.121091 83.0336 
L 26.932727 83.0336 
L 26.932727 83.0336 
L 26.121091 83.0336 
z
" style="fill:#ffffff;"/>
   </g>
   <g id="patch_18">
    <path clip-path="url(#p0cc2b01573)" d="M 26.932727 83.0336 
L 27.744364 83.0336 
L 27.744364 82.649785 
L 26.932727 82.649785 
z
" style="fill:#ffffff;"/>
   </g>
   <g id="patch_19">
    <path clip-path="url(#p0cc2b01573)" d="M 27.744364 83.0336 
L 28.556 83.0336 
L 28.556 82.649785 
L 27.744364 82.649785 
z
" style="fill:#ffffff;"/>
   </g>
   <g id="patch_20">
    <path clip-path="url(#p0cc2b01573)" d="M 28.556 83.0336 
L 29.367636 83.0336 
L 29.367636 82.457877 
L 28.556 82.457877 
z
" style="fill:#ffffff;"/>
   </g>
   <g id="patch_21">
    <path clip-path="url(#p0cc2b01573)" d="M 29.367636 83.0336 
L 30.179273 83.0336 
L 30.179273 82.265969 
L 29.367636 82.265969 
z
" style="fill:#ffffff;"/>
   </g>
   <g id="patch_22">
    <path clip-path="url(#p0cc2b01573)" d="M 30.179273 83.0336 
L 30.990909 83.0336 
L 30.990909 82.074062 
L 30.179273 82.074062 
z
" style="fill:#ffffff;"/>
   </g>
   <g id="patch_23">
    <path clip-path="url(#p0cc2b01573)" d="M 30.990909 83.0336 
L 31.802545 83.0336 
L 31.802545 80.730708 
L 30.990909 80.730708 
z
" style="fill:#ffffff;"/>
   </g>
   <g id="patch_24">
    <path clip-path="url(#p0cc2b01573)" d="M 31.802545 83.0336 
L 32.614182 83.0336 
L 32.614182 80.346892 
L 31.802545 80.346892 
z
" style="fill:#ffffff;"/>
   </g>
   <g id="patch_25">
    <path clip-path="url(#p0cc2b01573)" d="M 32.614182 83.0336 
L 33.425818 83.0336 
L 33.425818 79.771169 
L 32.614182 79.771169 
z
" style="fill:#ffffff;"/>
   </g>
   <g id="patch_26">
    <path clip-path="url(#p0cc2b01573)" d="M 33.425818 83.0336 
L 34.237455 83.0336 
L 34.237455 78.427815 
L 33.425818 78.427815 
z
" style="fill:#ffffff;"/>
   </g>
   <g id="patch_27">
    <path clip-path="url(#p0cc2b01573)" d="M 34.237455 83.0336 
L 35.049091 83.0336 
L 35.049091 77.084462 
L 34.237455 77.084462 
z
" style="fill:#ffffff;"/>
   </g>
   <g id="patch_28">
    <path clip-path="url(#p0cc2b01573)" d="M 35.049091 83.0336 
L 35.860727 83.0336 
L 35.860727 75.165385 
L 35.049091 75.165385 
z
" style="fill:#ffffff;"/>
   </g>
   <g id="patch_29">
    <path clip-path="url(#p0cc2b01573)" d="M 35.860727 83.0336 
L 36.672364 83.0336 
L 36.672364 73.0544 
L 35.860727 73.0544 
z
" style="fill:#ffffff;"/>
   </g>
   <g id="patch_30">
    <path clip-path="url(#p0cc2b01573)" d="M 36.672364 83.0336 
L 37.484 83.0336 
L 37.484 70.751508 
L 36.672364 70.751508 
z
" style="fill:#ffffff;"/>
   </g>
   <g id="patch_31">
    <path clip-path="url(#p0cc2b01573)" d="M 37.484 83.0336 
L 38.295636 83.0336 
L 38.295636 69.408154 
L 37.484 69.408154 
z
" style="fill:#ffffff;"/>
   </g>
   <g id="patch_32">
    <path clip-path="url(#p0cc2b01573)" d="M 38.295636 83.0336 
L 39.107273 83.0336 
L 39.107273 69.408154 
L 38.295636 69.408154 
z
" style="fill:#ffffff;"/>
   </g>
   <g id="patch_33">
    <path clip-path="url(#p0cc2b01573)" d="M 39.107273 83.0336 
L 39.918909 83.0336 
L 39.918909 65.57 
L 39.107273 65.57 
z
" style="fill:#ffffff;"/>
   </g>
   <g id="patch_34">
    <path clip-path="url(#p0cc2b01573)" d="M 39.918909 83.0336 
L 40.730545 83.0336 
L 40.730545 66.145723 
L 39.918909 66.145723 
z
" style="fill:#ffffff;"/>
   </g>
   <g id="patch_35">
    <path clip-path="url(#p0cc2b01573)" d="M 40.730545 83.0336 
L 41.542182 83.0336 
L 41.542182 63.459015 
L 40.730545 63.459015 
z
" style="fill:#ffffff;"/>
   </g>
   <g id="patch_36">
    <path clip-path="url(#p0cc2b01573)" d="M 41.542182 83.0336 
L 42.353818 83.0336 
L 42.353818 63.267108 
L 41.542182 63.267108 
z
" style="fill:#ffffff;"/>
   </g>
   <g id="patch_37">
    <path clip-path="url(#p0cc2b01573)" d="M 42.353818 83.0336 
L 43.165455 83.0336 
L 43.165455 58.469415 
L 42.353818 58.469415 
z
" style="fill:#ffffff;"/>
   </g>
   <g id="patch_38">
    <path clip-path="url(#p0cc2b01573)" d="M 43.165455 83.0336 
L 43.977091 83.0336 
L 43.977091 58.853231 
L 43.165455 58.853231 
z
" style="fill:#ffffff;"/>
   </g>
   <g id="patch_39">
    <path clip-path="url(#p0cc2b01573)" d="M 43.977091 83.0336 
L 44.788727 83.0336 
L 44.788727 57.701785 
L 43.977091 57.701785 
z
" style="fill:#ffffff;"/>
   </g>
   <g id="patch_40">
    <path clip-path="url(#p0cc2b01573)" d="M 44.788727 83.0336 
L 45.600364 83.0336 
L 45.600364 50.409292 
L 44.788727 50.409292 
z
" style="fill:#ffffff;"/>
   </g>
   <g id="patch_41">
    <path clip-path="url(#p0cc2b01573)" d="M 45.600364 83.0336 
L 46.412 83.0336 
L 46.412 54.055538 
L 45.600364 54.055538 
z
" style="fill:#ffffff;"/>
   </g>
   <g id="patch_42">
    <path clip-path="url(#p0cc2b01573)" d="M 46.412 83.0336 
L 47.223636 83.0336 
L 47.223636 51.368831 
L 46.412 51.368831 
z
" style="fill:#ffffff;"/>
   </g>
   <g id="patch_43">
    <path clip-path="url(#p0cc2b01573)" d="M 47.223636 83.0336 
L 48.035273 83.0336 
L 48.035273 53.863631 
L 47.223636 53.863631 
z
" style="fill:#ffffff;"/>
   </g>
   <g id="patch_44">
    <path clip-path="url(#p0cc2b01573)" d="M 48.035273 83.0336 
L 48.846909 83.0336 
L 48.846909 50.409292 
L 48.035273 50.409292 
z
" style="fill:#ffffff;"/>
   </g>
   <g id="patch_45">
    <path clip-path="url(#p0cc2b01573)" d="M 48.846909 83.0336 
L 49.658545 83.0336 
L 49.658545 48.874031 
L 48.846909 48.874031 
z
" style="fill:#ffffff;"/>
   </g>
   <g id="patch_46">
    <path clip-path="url(#p0cc2b01573)" d="M 49.658545 83.0336 
L 50.470182 83.0336 
L 50.470182 47.530677 
L 49.658545 47.530677 
z
" style="fill:#ffffff;"/>
   </g>
   <g id="patch_47">
    <path clip-path="url(#p0cc2b01573)" d="M 50.470182 83.0336 
L 51.281818 83.0336 
L 51.281818 47.530677 
L 50.470182 47.530677 
z
" style="fill:#ffffff;"/>
   </g>
   <g id="patch_48">
    <path clip-path="url(#p0cc2b01573)" d="M 51.281818 83.0336 
L 52.093455 83.0336 
L 52.093455 49.641662 
L 51.281818 49.641662 
z
" style="fill:#ffffff;"/>
   </g>
   <g id="patch_49">
    <path clip-path="url(#p0cc2b01573)" d="M 52.093455 83.0336 
L 52.905091 83.0336 
L 52.905091 45.227785 
L 52.093455 45.227785 
z
" style="fill:#ffffff;"/>
   </g>
   <g id="patch_50">
    <path clip-path="url(#p0cc2b01573)" d="M 52.905091 83.0336 
L 53.716727 83.0336 
L 53.716727 52.712185 
L 52.905091 52.712185 
z
" style="fill:#ffffff;"/>
   </g>
   <g id="patch_51">
    <path clip-path="url(#p0cc2b01573)" d="M 53.716727 83.0336 
L 54.528364 83.0336 
L 54.528364 44.460154 
L 53.716727 44.460154 
z
" style="fill:#ffffff;"/>
   </g>
   <g id="patch_52">
    <path clip-path="url(#p0cc2b01573)" d="M 54.528364 83.0336 
L 55.34 83.0336 
L 55.34 46.954954 
L 54.528364 46.954954 
z
" style="fill:#ffffff;"/>
   </g>
   <g id="patch_53">
    <path clip-path="url(#p0cc2b01573)" d="M 55.34 83.0336 
L 56.151636 83.0336 
L 56.151636 48.1064 
L 55.34 48.1064 
z
" style="fill:#ffffff;"/>
   </g>
   <g id="patch_54">
    <path clip-path="url(#p0cc2b01573)" d="M 56.151636 83.0336 
L 56.963273 83.0336 
L 56.963273 48.298308 
L 56.151636 48.298308 
z
" style="fill:#ffffff;"/>
   </g>
   <g id="patch_55">
    <path clip-path="url(#p0cc2b01573)" d="M 56.963273 83.0336 
L 57.774909 83.0336 
L 57.774909 51.944554 
L 56.963273 51.944554 
z
" style="fill:#ffffff;"/>
   </g>
   <g id="patch_56">
    <path clip-path="url(#p0cc2b01573)" d="M 57.774909 83.0336 
L 58.586545 83.0336 
L 58.586545 49.065938 
L 57.774909 49.065938 
z
" style="fill:#ffffff;"/>
   </g>
   <g id="patch_57">
    <path clip-path="url(#p0cc2b01573)" d="M 58.586545 83.0336 
L 59.398182 83.0336 
L 59.398182 49.065938 
L 58.586545 49.065938 
z
" style="fill:#ffffff;"/>
   </g>
   <g id="patch_58">
    <path clip-path="url(#p0cc2b01573)" d="M 59.398182 83.0336 
L 60.209818 83.0336 
L 60.209818 55.398892 
L 59.398182 55.398892 
z
" style="fill:#ffffff;"/>
   </g>
   <g id="patch_59">
    <path clip-path="url(#p0cc2b01573)" d="M 60.209818 83.0336 
L 61.021455 83.0336 
L 61.021455 51.176923 
L 60.209818 51.176923 
z
" style="fill:#ffffff;"/>
   </g>
   <g id="patch_60">
    <path clip-path="url(#p0cc2b01573)" d="M 61.021455 83.0336 
L 61.833091 83.0336 
L 61.833091 55.5908 
L 61.021455 55.5908 
z
" style="fill:#ffffff;"/>
   </g>
   <g id="patch_61">
    <path clip-path="url(#p0cc2b01573)" d="M 61.833091 83.0336 
L 62.644727 83.0336 
L 62.644727 60.388492 
L 61.833091 60.388492 
z
" style="fill:#ffffff;"/>
   </g>
   <g id="patch_62">
    <path clip-path="url(#p0cc2b01573)" d="M 62.644727 83.0336 
L 63.456364 83.0336 
L 63.456364 63.0752 
L 62.644727 63.0752 
z
" style="fill:#ffffff;"/>
   </g>
   <g id="patch_63">
    <path clip-path="url(#p0cc2b01573)" d="M 63.456364 83.0336 
L 64.268 83.0336 
L 64.268 59.045138 
L 63.456364 59.045138 
z
" style="fill:#ffffff;"/>
   </g>
   <g id="patch_64">
    <path clip-path="url(#p0cc2b01573)" d="M 64.268 83.0336 
L 65.079636 83.0336 
L 65.079636 64.994277 
L 64.268 64.994277 
z
" style="fill:#ffffff;"/>
   </g>
   <g id="patch_65">
    <path clip-path="url(#p0cc2b01573)" d="M 65.079636 83.0336 
L 65.891273 83.0336 
L 65.891273 64.994277 
L 65.079636 64.994277 
z
" style="fill:#ffffff;"/>
   </g>
   <g id="patch_66">
    <path clip-path="url(#p0cc2b01573)" d="M 65.891273 83.0336 
L 66.702909 83.0336 
L 66.702909 63.842831 
L 65.891273 63.842831 
z
" style="fill:#ffffff;"/>
   </g>
   <g id="patch_67">
    <path clip-path="url(#p0cc2b01573)" d="M 66.702909 83.0336 
L 67.514545 83.0336 
L 67.514545 68.256708 
L 66.702909 68.256708 
z
" style="fill:#ffffff;"/>
   </g>
   <g id="patch_68">
    <path clip-path="url(#p0cc2b01573)" d="M 67.514545 83.0336 
L 68.326182 83.0336 
L 68.326182 64.802369 
L 67.514545 64.802369 
z
" style="fill:#ffffff;"/>
   </g>
   <g id="patch_69">
    <path clip-path="url(#p0cc2b01573)" d="M 68.326182 83.0336 
L 69.137818 83.0336 
L 69.137818 70.367692 
L 68.326182 70.367692 
z
" style="fill:#ffffff;"/>
   </g>
   <g id="patch_70">
    <path clip-path="url(#p0cc2b01573)" d="M 69.137818 83.0336 
L 69.949455 83.0336 
L 69.949455 71.327231 
L 69.137818 71.327231 
z
" style="fill:#ffffff;"/>
   </g>
   <g id="patch_71">
    <path clip-path="url(#p0cc2b01573)" d="M 69.949455 83.0336 
L 70.761091 83.0336 
L 70.761091 70.943415 
L 69.949455 70.943415 
z
" style="fill:#ffffff;"/>
   </g>
   <g id="patch_72">
    <path clip-path="url(#p0cc2b01573)" d="M 70.761091 83.0336 
L 71.572727 83.0336 
L 71.572727 75.741108 
L 70.761091 75.741108 
z
" style="fill:#ffffff;"/>
   </g>
   <g id="patch_73">
    <path clip-path="url(#p0cc2b01573)" d="M 71.572727 83.0336 
L 72.384364 83.0336 
L 72.384364 76.316831 
L 71.572727 76.316831 
z
" style="fill:#ffffff;"/>
   </g>
   <g id="patch_74">
    <path clip-path="url(#p0cc2b01573)" d="M 72.384364 83.0336 
L 73.196 83.0336 
L 73.196 74.589662 
L 72.384364 74.589662 
z
" style="fill:#ffffff;"/>
   </g>
   <g id="patch_75">
    <path clip-path="url(#p0cc2b01573)" d="M 73.196 83.0336 
L 74.007636 83.0336 
L 74.007636 75.741108 
L 73.196 75.741108 
z
" style="fill:#ffffff;"/>
   </g>
   <g id="patch_76">
    <path clip-path="url(#p0cc2b01573)" d="M 74.007636 83.0336 
L 74.819273 83.0336 
L 74.819273 77.084462 
L 74.007636 77.084462 
z
" style="fill:#ffffff;"/>
   </g>
   <g id="patch_77">
    <path clip-path="url(#p0cc2b01573)" d="M 74.819273 83.0336 
L 75.630909 83.0336 
L 75.630909 77.276369 
L 74.819273 77.276369 
z
" style="fill:#ffffff;"/>
   </g>
   <g id="patch_78">
    <path clip-path="url(#p0cc2b01573)" d="M 75.630909 83.0336 
L 76.442545 83.0336 
L 76.442545 78.811631 
L 75.630909 78.811631 
z
" style="fill:#ffffff;"/>
   </g>
   <g id="patch_79">
    <path clip-path="url(#p0cc2b01573)" d="M 76.442545 83.0336 
L 77.254182 83.0336 
L 77.254182 79.579262 
L 76.442545 79.579262 
z
" style="fill:#ffffff;"/>
   </g>
   <g id="patch_80">
    <path clip-path="url(#p0cc2b01573)" d="M 77.254182 83.0336 
L 78.065818 83.0336 
L 78.065818 79.963077 
L 77.254182 79.963077 
z
" style="fill:#ffffff;"/>
   </g>
   <g id="patch_81">
    <path clip-path="url(#p0cc2b01573)" d="M 78.065818 83.0336 
L 78.877455 83.0336 
L 78.877455 81.306431 
L 78.065818 81.306431 
z
" style="fill:#ffffff;"/>
   </g>
   <g id="patch_82">
    <path clip-path="url(#p0cc2b01573)" d="M 78.877455 83.0336 
L 79.689091 83.0336 
L 79.689091 80.5388 
L 78.877455 80.5388 
z
" style="fill:#ffffff;"/>
   </g>
   <g id="patch_83">
    <path clip-path="url(#p0cc2b01573)" d="M 79.689091 83.0336 
L 80.500727 83.0336 
L 80.500727 81.114523 
L 79.689091 81.114523 
z
" style="fill:#ffffff;"/>
   </g>
   <g id="patch_84">
    <path clip-path="url(#p0cc2b01573)" d="M 80.500727 83.0336 
L 81.312364 83.0336 
L 81.312364 81.306431 
L 80.500727 81.306431 
z
" style="fill:#ffffff;"/>
   </g>
   <g id="patch_85">
    <path clip-path="url(#p0cc2b01573)" d="M 81.312364 83.0336 
L 82.124 83.0336 
L 82.124 81.498338 
L 81.312364 81.498338 
z
" style="fill:#ffffff;"/>
   </g>
   <g id="patch_86">
    <path clip-path="url(#p0cc2b01573)" d="M 82.124 83.0336 
L 82.935636 83.0336 
L 82.935636 81.882154 
L 82.124 81.882154 
z
" style="fill:#ffffff;"/>
   </g>
   <g id="patch_87">
    <path clip-path="url(#p0cc2b01573)" d="M 82.935636 83.0336 
L 83.747273 83.0336 
L 83.747273 82.841692 
L 82.935636 82.841692 
z
" style="fill:#ffffff;"/>
   </g>
   <g id="patch_88">
    <path clip-path="url(#p0cc2b01573)" d="M 83.747273 83.0336 
L 84.558909 83.0336 
L 84.558909 82.457877 
L 83.747273 82.457877 
z
" style="fill:#ffffff;"/>
   </g>
   <g id="patch_89">
    <path clip-path="url(#p0cc2b01573)" d="M 84.558909 83.0336 
L 85.370545 83.0336 
L 85.370545 82.074062 
L 84.558909 82.074062 
z
" style="fill:#ffffff;"/>
   </g>
   <g id="patch_90">
    <path clip-path="url(#p0cc2b01573)" d="M 85.370545 83.0336 
L 86.182182 83.0336 
L 86.182182 82.649785 
L 85.370545 82.649785 
z
" style="fill:#ffffff;"/>
   </g>
   <g id="patch_91">
    <path clip-path="url(#p0cc2b01573)" d="M 86.182182 83.0336 
L 86.993818 83.0336 
L 86.993818 82.649785 
L 86.182182 82.649785 
z
" style="fill:#ffffff;"/>
   </g>
   <g id="patch_92">
    <path clip-path="url(#p0cc2b01573)" d="M 86.993818 83.0336 
L 87.805455 83.0336 
L 87.805455 82.841692 
L 86.993818 82.841692 
z
" style="fill:#ffffff;"/>
   </g>
   <g id="patch_93">
    <path clip-path="url(#p0cc2b01573)" d="M 87.805455 83.0336 
L 88.617091 83.0336 
L 88.617091 82.841692 
L 87.805455 82.841692 
z
" style="fill:#ffffff;"/>
   </g>
   <g id="patch_94">
    <path clip-path="url(#p0cc2b01573)" d="M 88.617091 83.0336 
L 89.428727 83.0336 
L 89.428727 82.841692 
L 88.617091 82.841692 
z
" style="fill:#ffffff;"/>
   </g>
   <g id="patch_95">
    <path clip-path="url(#p0cc2b01573)" d="M 89.428727 83.0336 
L 90.240364 83.0336 
L 90.240364 83.0336 
L 89.428727 83.0336 
z
" style="fill:#ffffff;"/>
   </g>
   <g id="patch_96">
    <path clip-path="url(#p0cc2b01573)" d="M 90.240364 83.0336 
L 91.052 83.0336 
L 91.052 83.0336 
L 90.240364 83.0336 
z
" style="fill:#ffffff;"/>
   </g>
   <g id="patch_97">
    <path clip-path="url(#p0cc2b01573)" d="M 91.052 83.0336 
L 91.863636 83.0336 
L 91.863636 82.841692 
L 91.052 82.841692 
z
" style="fill:#ffffff;"/>
   </g>
   <g id="patch_98">
    <path clip-path="url(#p0cc2b01573)" d="M 91.863636 83.0336 
L 92.675273 83.0336 
L 92.675273 83.0336 
L 91.863636 83.0336 
z
" style="fill:#ffffff;"/>
   </g>
   <g id="patch_99">
    <path clip-path="url(#p0cc2b01573)" d="M 92.675273 83.0336 
L 93.486909 83.0336 
L 93.486909 83.0336 
L 92.675273 83.0336 
z
" style="fill:#ffffff;"/>
   </g>
   <g id="patch_100">
    <path clip-path="url(#p0cc2b01573)" d="M 93.486909 83.0336 
L 94.298545 83.0336 
L 94.298545 83.0336 
L 93.486909 83.0336 
z
" style="fill:#ffffff;"/>
   </g>
   <g id="patch_101">
    <path clip-path="url(#p0cc2b01573)" d="M 94.298545 83.0336 
L 95.110182 83.0336 
L 95.110182 83.0336 
L 94.298545 83.0336 
z
" style="fill:#ffffff;"/>
   </g>
   <g id="patch_102">
    <path clip-path="url(#p0cc2b01573)" d="M 95.110182 83.0336 
L 95.921818 83.0336 
L 95.921818 83.0336 
L 95.110182 83.0336 
z
" style="fill:#ffffff;"/>
   </g>
   <g id="patch_103">
    <path clip-path="url(#p0cc2b01573)" d="M 14.758182 83.0336 
L 15.569818 83.0336 
L 15.569818 83.0336 
L 14.758182 83.0336 
z
" style="fill:#ffffff;"/>
   </g>
   <g id="patch_104">
    <path clip-path="url(#p0cc2b01573)" d="M 15.569818 83.0336 
L 16.381455 83.0336 
L 16.381455 83.0336 
L 15.569818 83.0336 
z
" style="fill:#ffffff;"/>
   </g>
   <g id="patch_105">
    <path clip-path="url(#p0cc2b01573)" d="M 16.381455 83.0336 
L 17.193091 83.0336 
L 17.193091 83.0336 
L 16.381455 83.0336 
z
" style="fill:#ffffff;"/>
   </g>
   <g id="patch_106">
    <path clip-path="url(#p0cc2b01573)" d="M 17.193091 83.0336 
L 18.004727 83.0336 
L 18.004727 83.0336 
L 17.193091 83.0336 
z
" style="fill:#ffffff;"/>
   </g>
   <g id="patch_107">
    <path clip-path="url(#p0cc2b01573)" d="M 18.004727 83.0336 
L 18.816364 83.0336 
L 18.816364 83.0336 
L 18.004727 83.0336 
z
" style="fill:#ffffff;"/>
   </g>
   <g id="patch_108">
    <path clip-path="url(#p0cc2b01573)" d="M 18.816364 83.0336 
L 19.628 83.0336 
L 19.628 83.0336 
L 18.816364 83.0336 
z
" style="fill:#ffffff;"/>
   </g>
   <g id="patch_109">
    <path clip-path="url(#p0cc2b01573)" d="M 19.628 83.0336 
L 20.439636 83.0336 
L 20.439636 83.0336 
L 19.628 83.0336 
z
" style="fill:#ffffff;"/>
   </g>
   <g id="patch_110">
    <path clip-path="url(#p0cc2b01573)" d="M 20.439636 83.0336 
L 21.251273 83.0336 
L 21.251273 83.0336 
L 20.439636 83.0336 
z
" style="fill:#ffffff;"/>
   </g>
   <g id="patch_111">
    <path clip-path="url(#p0cc2b01573)" d="M 21.251273 83.0336 
L 22.062909 83.0336 
L 22.062909 83.0336 
L 21.251273 83.0336 
z
" style="fill:#ffffff;"/>
   </g>
   <g id="patch_112">
    <path clip-path="url(#p0cc2b01573)" d="M 22.062909 83.0336 
L 22.874545 83.0336 
L 22.874545 83.0336 
L 22.062909 83.0336 
z
" style="fill:#ffffff;"/>
   </g>
   <g id="patch_113">
    <path clip-path="url(#p0cc2b01573)" d="M 22.874545 83.0336 
L 23.686182 83.0336 
L 23.686182 83.0336 
L 22.874545 83.0336 
z
" style="fill:#ffffff;"/>
   </g>
   <g id="patch_114">
    <path clip-path="url(#p0cc2b01573)" d="M 23.686182 83.0336 
L 24.497818 83.0336 
L 24.497818 83.0336 
L 23.686182 83.0336 
z
" style="fill:#ffffff;"/>
   </g>
   <g id="patch_115">
    <path clip-path="url(#p0cc2b01573)" d="M 24.497818 83.0336 
L 25.309455 83.0336 
L 25.309455 83.0336 
L 24.497818 83.0336 
z
" style="fill:#ffffff;"/>
   </g>
   <g id="patch_116">
    <path clip-path="url(#p0cc2b01573)" d="M 25.309455 83.0336 
L 26.121091 83.0336 
L 26.121091 83.0336 
L 25.309455 83.0336 
z
" style="fill:#ffffff;"/>
   </g>
   <g id="patch_117">
    <path clip-path="url(#p0cc2b01573)" d="M 26.121091 83.0336 
L 26.932727 83.0336 
L 26.932727 83.0336 
L 26.121091 83.0336 
z
" style="fill:#ffffff;"/>
   </g>
   <g id="patch_118">
    <path clip-path="url(#p0cc2b01573)" d="M 26.932727 83.0336 
L 27.744364 83.0336 
L 27.744364 82.649785 
L 26.932727 82.649785 
z
" style="fill:#ffffff;"/>
   </g>
   <g id="patch_119">
    <path clip-path="url(#p0cc2b01573)" d="M 27.744364 83.0336 
L 28.556 83.0336 
L 28.556 83.0336 
L 27.744364 83.0336 
z
" style="fill:#ffffff;"/>
   </g>
   <g id="patch_120">
    <path clip-path="url(#p0cc2b01573)" d="M 28.556 83.0336 
L 29.367636 83.0336 
L 29.367636 82.649785 
L 28.556 82.649785 
z
" style="fill:#ffffff;"/>
   </g>
   <g id="patch_121">
    <path clip-path="url(#p0cc2b01573)" d="M 29.367636 83.0336 
L 30.179273 83.0336 
L 30.179273 82.074062 
L 29.367636 82.074062 
z
" style="fill:#ffffff;"/>
   </g>
   <g id="patch_122">
    <path clip-path="url(#p0cc2b01573)" d="M 30.179273 83.0336 
L 30.990909 83.0336 
L 30.990909 82.457877 
L 30.179273 82.457877 
z
" style="fill:#ffffff;"/>
   </g>
   <g id="patch_123">
    <path clip-path="url(#p0cc2b01573)" d="M 30.990909 83.0336 
L 31.802545 83.0336 
L 31.802545 80.346892 
L 30.990909 80.346892 
z
" style="fill:#ffffff;"/>
   </g>
   <g id="patch_124">
    <path clip-path="url(#p0cc2b01573)" d="M 31.802545 83.0336 
L 32.614182 83.0336 
L 32.614182 81.114523 
L 31.802545 81.114523 
z
" style="fill:#ffffff;"/>
   </g>
   <g id="patch_125">
    <path clip-path="url(#p0cc2b01573)" d="M 32.614182 83.0336 
L 33.425818 83.0336 
L 33.425818 76.316831 
L 32.614182 76.316831 
z
" style="fill:#ffffff;"/>
   </g>
   <g id="patch_126">
    <path clip-path="url(#p0cc2b01573)" d="M 33.425818 83.0336 
L 34.237455 83.0336 
L 34.237455 75.933015 
L 33.425818 75.933015 
z
" style="fill:#ffffff;"/>
   </g>
   <g id="patch_127">
    <path clip-path="url(#p0cc2b01573)" d="M 34.237455 83.0336 
L 35.049091 83.0336 
L 35.049091 74.973477 
L 34.237455 74.973477 
z
" style="fill:#ffffff;"/>
   </g>
   <g id="patch_128">
    <path clip-path="url(#p0cc2b01573)" d="M 35.049091 83.0336 
L 35.860727 83.0336 
L 35.860727 70.5596 
L 35.049091 70.5596 
z
" style="fill:#ffffff;"/>
   </g>
   <g id="patch_129">
    <path clip-path="url(#p0cc2b01573)" d="M 35.860727 83.0336 
L 36.672364 83.0336 
L 36.672364 71.519138 
L 35.860727 71.519138 
z
" style="fill:#ffffff;"/>
   </g>
   <g id="patch_130">
    <path clip-path="url(#p0cc2b01573)" d="M 36.672364 83.0336 
L 37.484 83.0336 
L 37.484 65.186185 
L 36.672364 65.186185 
z
" style="fill:#ffffff;"/>
   </g>
   <g id="patch_131">
    <path clip-path="url(#p0cc2b01573)" d="M 37.484 83.0336 
L 38.295636 83.0336 
L 38.295636 68.256708 
L 37.484 68.256708 
z
" style="fill:#ffffff;"/>
   </g>
   <g id="patch_132">
    <path clip-path="url(#p0cc2b01573)" d="M 38.295636 83.0336 
L 39.107273 83.0336 
L 39.107273 62.499477 
L 38.295636 62.499477 
z
" style="fill:#ffffff;"/>
   </g>
   <g id="patch_133">
    <path clip-path="url(#p0cc2b01573)" d="M 39.107273 83.0336 
L 39.918909 83.0336 
L 39.918909 59.237046 
L 39.107273 59.237046 
z
" style="fill:#ffffff;"/>
   </g>
   <g id="patch_134">
    <path clip-path="url(#p0cc2b01573)" d="M 39.918909 83.0336 
L 40.730545 83.0336 
L 40.730545 50.6012 
L 39.918909 50.6012 
z
" style="fill:#ffffff;"/>
   </g>
   <g id="patch_135">
    <path clip-path="url(#p0cc2b01573)" d="M 40.730545 83.0336 
L 41.542182 83.0336 
L 41.542182 54.823169 
L 40.730545 54.823169 
z
" style="fill:#ffffff;"/>
   </g>
   <g id="patch_136">
    <path clip-path="url(#p0cc2b01573)" d="M 41.542182 83.0336 
L 42.353818 83.0336 
L 42.353818 51.368831 
L 41.542182 51.368831 
z
" style="fill:#ffffff;"/>
   </g>
   <g id="patch_137">
    <path clip-path="url(#p0cc2b01573)" d="M 42.353818 83.0336 
L 43.165455 83.0336 
L 43.165455 44.843969 
L 42.353818 44.843969 
z
" style="fill:#ffffff;"/>
   </g>
   <g id="patch_138">
    <path clip-path="url(#p0cc2b01573)" d="M 43.165455 83.0336 
L 43.977091 83.0336 
L 43.977091 47.338769 
L 43.165455 47.338769 
z
" style="fill:#ffffff;"/>
   </g>
   <g id="patch_139">
    <path clip-path="url(#p0cc2b01573)" d="M 43.977091 83.0336 
L 44.788727 83.0336 
L 44.788727 41.581538 
L 43.977091 41.581538 
z
" style="fill:#ffffff;"/>
   </g>
   <g id="patch_140">
    <path clip-path="url(#p0cc2b01573)" d="M 44.788727 83.0336 
L 45.600364 83.0336 
L 45.600364 38.511015 
L 44.788727 38.511015 
z
" style="fill:#ffffff;"/>
   </g>
   <g id="patch_141">
    <path clip-path="url(#p0cc2b01573)" d="M 45.600364 83.0336 
L 46.412 83.0336 
L 46.412 45.803508 
L 45.600364 45.803508 
z
" style="fill:#ffffff;"/>
   </g>
   <g id="patch_142">
    <path clip-path="url(#p0cc2b01573)" d="M 46.412 83.0336 
L 47.223636 83.0336 
L 47.223636 42.924892 
L 46.412 42.924892 
z
" style="fill:#ffffff;"/>
   </g>
   <g id="patch_143">
    <path clip-path="url(#p0cc2b01573)" d="M 47.223636 83.0336 
L 48.035273 83.0336 
L 48.035273 39.278646 
L 47.223636 39.278646 
z
" style="fill:#ffffff;"/>
   </g>
   <g id="patch_144">
    <path clip-path="url(#p0cc2b01573)" d="M 48.035273 83.0336 
L 48.846909 83.0336 
L 48.846909 43.308708 
L 48.035273 43.308708 
z
" style="fill:#ffffff;"/>
   </g>
   <g id="patch_145">
    <path clip-path="url(#p0cc2b01573)" d="M 48.846909 83.0336 
L 49.658545 83.0336 
L 49.658545 40.622 
L 48.846909 40.622 
z
" style="fill:#ffffff;"/>
   </g>
   <g id="patch_146">
    <path clip-path="url(#p0cc2b01573)" d="M 49.658545 83.0336 
L 50.470182 83.0336 
L 50.470182 40.813908 
L 49.658545 40.813908 
z
" style="fill:#ffffff;"/>
   </g>
   <g id="patch_147">
    <path clip-path="url(#p0cc2b01573)" d="M 50.470182 83.0336 
L 51.281818 83.0336 
L 51.281818 42.349169 
L 50.470182 42.349169 
z
" style="fill:#ffffff;"/>
   </g>
   <g id="patch_148">
    <path clip-path="url(#p0cc2b01573)" d="M 51.281818 83.0336 
L 52.093455 83.0336 
L 52.093455 42.924892 
L 51.281818 42.924892 
z
" style="fill:#ffffff;"/>
   </g>
   <g id="patch_149">
    <path clip-path="url(#p0cc2b01573)" d="M 52.093455 83.0336 
L 52.905091 83.0336 
L 52.905091 41.965354 
L 52.093455 41.965354 
z
" style="fill:#ffffff;"/>
   </g>
   <g id="patch_150">
    <path clip-path="url(#p0cc2b01573)" d="M 52.905091 83.0336 
L 53.716727 83.0336 
L 53.716727 44.460154 
L 52.905091 44.460154 
z
" style="fill:#ffffff;"/>
   </g>
   <g id="patch_151">
    <path clip-path="url(#p0cc2b01573)" d="M 53.716727 83.0336 
L 54.528364 83.0336 
L 54.528364 45.035877 
L 53.716727 45.035877 
z
" style="fill:#ffffff;"/>
   </g>
   <g id="patch_152">
    <path clip-path="url(#p0cc2b01573)" d="M 54.528364 83.0336 
L 55.34 83.0336 
L 55.34 55.398892 
L 54.528364 55.398892 
z
" style="fill:#ffffff;"/>
   </g>
   <g id="patch_153">
    <path clip-path="url(#p0cc2b01573)" d="M 55.34 83.0336 
L 56.151636 83.0336 
L 56.151636 51.560738 
L 55.34 51.560738 
z
" style="fill:#ffffff;"/>
   </g>
   <g id="patch_154">
    <path clip-path="url(#p0cc2b01573)" d="M 56.151636 83.0336 
L 56.963273 83.0336 
L 56.963273 51.752646 
L 56.151636 51.752646 
z
" style="fill:#ffffff;"/>
   </g>
   <g id="patch_155">
    <path clip-path="url(#p0cc2b01573)" d="M 56.963273 83.0336 
L 57.774909 83.0336 
L 57.774909 51.368831 
L 56.963273 51.368831 
z
" style="fill:#ffffff;"/>
   </g>
   <g id="patch_156">
    <path clip-path="url(#p0cc2b01573)" d="M 57.774909 83.0336 
L 58.586545 83.0336 
L 58.586545 55.015077 
L 57.774909 55.015077 
z
" style="fill:#ffffff;"/>
   </g>
   <g id="patch_157">
    <path clip-path="url(#p0cc2b01573)" d="M 58.586545 83.0336 
L 59.398182 83.0336 
L 59.398182 62.115662 
L 58.586545 62.115662 
z
" style="fill:#ffffff;"/>
   </g>
   <g id="patch_158">
    <path clip-path="url(#p0cc2b01573)" d="M 59.398182 83.0336 
L 60.209818 83.0336 
L 60.209818 57.893692 
L 59.398182 57.893692 
z
" style="fill:#ffffff;"/>
   </g>
   <g id="patch_159">
    <path clip-path="url(#p0cc2b01573)" d="M 60.209818 83.0336 
L 61.021455 83.0336 
L 61.021455 61.348031 
L 60.209818 61.348031 
z
" style="fill:#ffffff;"/>
   </g>
   <g id="patch_160">
    <path clip-path="url(#p0cc2b01573)" d="M 61.021455 83.0336 
L 61.833091 83.0336 
L 61.833091 64.610462 
L 61.021455 64.610462 
z
" style="fill:#ffffff;"/>
   </g>
   <g id="patch_161">
    <path clip-path="url(#p0cc2b01573)" d="M 61.833091 83.0336 
L 62.644727 83.0336 
L 62.644727 72.094862 
L 61.833091 72.094862 
z
" style="fill:#ffffff;"/>
   </g>
   <g id="patch_162">
    <path clip-path="url(#p0cc2b01573)" d="M 62.644727 83.0336 
L 63.456364 83.0336 
L 63.456364 65.953815 
L 62.644727 65.953815 
z
" style="fill:#ffffff;"/>
   </g>
   <g id="patch_163">
    <path clip-path="url(#p0cc2b01573)" d="M 63.456364 83.0336 
L 64.268 83.0336 
L 64.268 67.105262 
L 63.456364 67.105262 
z
" style="fill:#ffffff;"/>
   </g>
   <g id="patch_164">
    <path clip-path="url(#p0cc2b01573)" d="M 64.268 83.0336 
L 65.079636 83.0336 
L 65.079636 71.519138 
L 64.268 71.519138 
z
" style="fill:#ffffff;"/>
   </g>
   <g id="patch_165">
    <path clip-path="url(#p0cc2b01573)" d="M 65.079636 83.0336 
L 65.891273 83.0336 
L 65.891273 72.862492 
L 65.079636 72.862492 
z
" style="fill:#ffffff;"/>
   </g>
   <g id="patch_166">
    <path clip-path="url(#p0cc2b01573)" d="M 65.891273 83.0336 
L 66.702909 83.0336 
L 66.702909 74.205846 
L 65.891273 74.205846 
z
" style="fill:#ffffff;"/>
   </g>
   <g id="patch_167">
    <path clip-path="url(#p0cc2b01573)" d="M 66.702909 83.0336 
L 67.514545 83.0336 
L 67.514545 77.852092 
L 66.702909 77.852092 
z
" style="fill:#ffffff;"/>
   </g>
   <g id="patch_168">
    <path clip-path="url(#p0cc2b01573)" d="M 67.514545 83.0336 
L 68.326182 83.0336 
L 68.326182 78.044 
L 67.514545 78.044 
z
" style="fill:#ffffff;"/>
   </g>
   <g id="patch_169">
    <path clip-path="url(#p0cc2b01573)" d="M 68.326182 83.0336 
L 69.137818 83.0336 
L 69.137818 78.044 
L 68.326182 78.044 
z
" style="fill:#ffffff;"/>
   </g>
   <g id="patch_170">
    <path clip-path="url(#p0cc2b01573)" d="M 69.137818 83.0336 
L 69.949455 83.0336 
L 69.949455 78.619723 
L 69.137818 78.619723 
z
" style="fill:#ffffff;"/>
   </g>
   <g id="patch_171">
    <path clip-path="url(#p0cc2b01573)" d="M 69.949455 83.0336 
L 70.761091 83.0336 
L 70.761091 79.387354 
L 69.949455 79.387354 
z
" style="fill:#ffffff;"/>
   </g>
   <g id="patch_172">
    <path clip-path="url(#p0cc2b01573)" d="M 70.761091 83.0336 
L 71.572727 83.0336 
L 71.572727 80.346892 
L 70.761091 80.346892 
z
" style="fill:#ffffff;"/>
   </g>
   <g id="patch_173">
    <path clip-path="url(#p0cc2b01573)" d="M 71.572727 83.0336 
L 72.384364 83.0336 
L 72.384364 79.771169 
L 71.572727 79.771169 
z
" style="fill:#ffffff;"/>
   </g>
   <g id="patch_174">
    <path clip-path="url(#p0cc2b01573)" d="M 72.384364 83.0336 
L 73.196 83.0336 
L 73.196 79.963077 
L 72.384364 79.963077 
z
" style="fill:#ffffff;"/>
   </g>
   <g id="patch_175">
    <path clip-path="url(#p0cc2b01573)" d="M 73.196 83.0336 
L 74.007636 83.0336 
L 74.007636 82.074062 
L 73.196 82.074062 
z
" style="fill:#ffffff;"/>
   </g>
   <g id="patch_176">
    <path clip-path="url(#p0cc2b01573)" d="M 74.007636 83.0336 
L 74.819273 83.0336 
L 74.819273 80.922615 
L 74.007636 80.922615 
z
" style="fill:#ffffff;"/>
   </g>
   <g id="patch_177">
    <path clip-path="url(#p0cc2b01573)" d="M 74.819273 83.0336 
L 75.630909 83.0336 
L 75.630909 82.074062 
L 74.819273 82.074062 
z
" style="fill:#ffffff;"/>
   </g>
   <g id="patch_178">
    <path clip-path="url(#p0cc2b01573)" d="M 75.630909 83.0336 
L 76.442545 83.0336 
L 76.442545 81.882154 
L 75.630909 81.882154 
z
" style="fill:#ffffff;"/>
   </g>
   <g id="patch_179">
    <path clip-path="url(#p0cc2b01573)" d="M 76.442545 83.0336 
L 77.254182 83.0336 
L 77.254182 82.457877 
L 76.442545 82.457877 
z
" style="fill:#ffffff;"/>
   </g>
   <g id="patch_180">
    <path clip-path="url(#p0cc2b01573)" d="M 77.254182 83.0336 
L 78.065818 83.0336 
L 78.065818 82.649785 
L 77.254182 82.649785 
z
" style="fill:#ffffff;"/>
   </g>
   <g id="patch_181">
    <path clip-path="url(#p0cc2b01573)" d="M 78.065818 83.0336 
L 78.877455 83.0336 
L 78.877455 82.265969 
L 78.065818 82.265969 
z
" style="fill:#ffffff;"/>
   </g>
   <g id="patch_182">
    <path clip-path="url(#p0cc2b01573)" d="M 78.877455 83.0336 
L 79.689091 83.0336 
L 79.689091 82.841692 
L 78.877455 82.841692 
z
" style="fill:#ffffff;"/>
   </g>
   <g id="patch_183">
    <path clip-path="url(#p0cc2b01573)" d="M 79.689091 83.0336 
L 80.500727 83.0336 
L 80.500727 83.0336 
L 79.689091 83.0336 
z
" style="fill:#ffffff;"/>
   </g>
   <g id="patch_184">
    <path clip-path="url(#p0cc2b01573)" d="M 80.500727 83.0336 
L 81.312364 83.0336 
L 81.312364 82.841692 
L 80.500727 82.841692 
z
" style="fill:#ffffff;"/>
   </g>
   <g id="patch_185">
    <path clip-path="url(#p0cc2b01573)" d="M 81.312364 83.0336 
L 82.124 83.0336 
L 82.124 82.841692 
L 81.312364 82.841692 
z
" style="fill:#ffffff;"/>
   </g>
   <g id="patch_186">
    <path clip-path="url(#p0cc2b01573)" d="M 82.124 83.0336 
L 82.935636 83.0336 
L 82.935636 83.0336 
L 82.124 83.0336 
z
" style="fill:#ffffff;"/>
   </g>
   <g id="patch_187">
    <path clip-path="url(#p0cc2b01573)" d="M 82.935636 83.0336 
L 83.747273 83.0336 
L 83.747273 83.0336 
L 82.935636 83.0336 
z
" style="fill:#ffffff;"/>
   </g>
   <g id="patch_188">
    <path clip-path="url(#p0cc2b01573)" d="M 83.747273 83.0336 
L 84.558909 83.0336 
L 84.558909 82.841692 
L 83.747273 82.841692 
z
" style="fill:#ffffff;"/>
   </g>
   <g id="patch_189">
    <path clip-path="url(#p0cc2b01573)" d="M 84.558909 83.0336 
L 85.370545 83.0336 
L 85.370545 83.0336 
L 84.558909 83.0336 
z
" style="fill:#ffffff;"/>
   </g>
   <g id="patch_190">
    <path clip-path="url(#p0cc2b01573)" d="M 85.370545 83.0336 
L 86.182182 83.0336 
L 86.182182 83.0336 
L 85.370545 83.0336 
z
" style="fill:#ffffff;"/>
   </g>
   <g id="patch_191">
    <path clip-path="url(#p0cc2b01573)" d="M 86.182182 83.0336 
L 86.993818 83.0336 
L 86.993818 83.0336 
L 86.182182 83.0336 
z
" style="fill:#ffffff;"/>
   </g>
   <g id="patch_192">
    <path clip-path="url(#p0cc2b01573)" d="M 86.993818 83.0336 
L 87.805455 83.0336 
L 87.805455 83.0336 
L 86.993818 83.0336 
z
" style="fill:#ffffff;"/>
   </g>
   <g id="patch_193">
    <path clip-path="url(#p0cc2b01573)" d="M 87.805455 83.0336 
L 88.617091 83.0336 
L 88.617091 83.0336 
L 87.805455 83.0336 
z
" style="fill:#ffffff;"/>
   </g>
   <g id="patch_194">
    <path clip-path="url(#p0cc2b01573)" d="M 88.617091 83.0336 
L 89.428727 83.0336 
L 89.428727 83.0336 
L 88.617091 83.0336 
z
" style="fill:#ffffff;"/>
   </g>
   <g id="patch_195">
    <path clip-path="url(#p0cc2b01573)" d="M 89.428727 83.0336 
L 90.240364 83.0336 
L 90.240364 83.0336 
L 89.428727 83.0336 
z
" style="fill:#ffffff;"/>
   </g>
   <g id="patch_196">
    <path clip-path="url(#p0cc2b01573)" d="M 90.240364 83.0336 
L 91.052 83.0336 
L 91.052 83.0336 
L 90.240364 83.0336 
z
" style="fill:#ffffff;"/>
   </g>
   <g id="patch_197">
    <path clip-path="url(#p0cc2b01573)" d="M 91.052 83.0336 
L 91.863636 83.0336 
L 91.863636 82.841692 
L 91.052 82.841692 
z
" style="fill:#ffffff;"/>
   </g>
   <g id="patch_198">
    <path clip-path="url(#p0cc2b01573)" d="M 91.863636 83.0336 
L 92.675273 83.0336 
L 92.675273 83.0336 
L 91.863636 83.0336 
z
" style="fill:#ffffff;"/>
   </g>
   <g id="patch_199">
    <path clip-path="url(#p0cc2b01573)" d="M 92.675273 83.0336 
L 93.486909 83.0336 
L 93.486909 83.0336 
L 92.675273 83.0336 
z
" style="fill:#ffffff;"/>
   </g>
   <g id="patch_200">
    <path clip-path="url(#p0cc2b01573)" d="M 93.486909 83.0336 
L 94.298545 83.0336 
L 94.298545 83.0336 
L 93.486909 83.0336 
z
" style="fill:#ffffff;"/>
   </g>
   <g id="patch_201">
    <path clip-path="url(#p0cc2b01573)" d="M 94.298545 83.0336 
L 95.110182 83.0336 
L 95.110182 83.0336 
L 94.298545 83.0336 
z
" style="fill:#ffffff;"/>
   </g>
   <g id="patch_202">
    <path clip-path="url(#p0cc2b01573)" d="M 95.110182 83.0336 
L 95.921818 83.0336 
L 95.921818 83.0336 
L 95.110182 83.0336 
z
" style="fill:#ffffff;"/>
   </g>
   <g id="matplotlib.axis_1">
    <g id="xtick_1">
     <g id="line2d_1">
      <defs>
       <path d="M 0 0 
L 0 3.5 
" id="mb85e6aa69a" style="stroke:#000000;stroke-width:1.5;"/>
      </defs>
      <g>
       <use style="stroke:#000000;stroke-width:1.5;" x="14.758182" xlink:href="#mb85e6aa69a" y="83.0336"/>
      </g>
     </g>
     <g id="text_1">
      <text style="font-family:DejaVu Sans;font-size:8px;font-stretch:normal;font-style:normal;font-weight:normal;text-anchor:middle;" transform="rotate(-0, 14.758182, 96.11235)" x="14.758182" y="96.11235">0</text>
     </g>
    </g>
    <g id="xtick_2">
     <g id="line2d_2">
      <g>
       <use style="stroke:#000000;stroke-width:1.5;" x="68.867273" xlink:href="#mb85e6aa69a" y="83.0336"/>
      </g>
     </g>
     <g id="text_2">
      <text style="font-family:DejaVu Sans;font-size:8px;font-stretch:normal;font-style:normal;font-weight:normal;text-anchor:middle;" transform="rotate(-0, 68.867273, 96.11235)" x="68.867273" y="96.11235">20</text>
     </g>
    </g>
    <g id="text_3">
     <!-- Energy at 11°C ($\mu J/s$) -->
     <g transform="translate(13.26 107.8561)">
      <text>
       <tspan style="font-family:DejaVu Sans;font-size:8px;font-style:book;font-weight:book;" x="0 5.054688 10.125 15.046875 18.335938 23.414062 28.148438 30.691406 35.59375 38.730469 41.273438 46.363281 51.453125 55.453125 61.039062 63.582031 66.703125 71.792969 74.152344 76.847656 81.015625" y="-0.921875">Energy at 11°C (μJ/s)</tspan>
      </text>
     </g>
    </g>
   </g>
   <g id="matplotlib.axis_2"/>
   <g id="line2d_3">
    <path clip-path="url(#p0cc2b01573)" d="M 15.164 83.0336 
L 15.975636 83.0336 
L 16.787273 83.0336 
L 17.598909 83.0336 
L 18.410545 83.0336 
L 19.222182 83.0336 
L 20.033818 83.0336 
L 20.845455 83.0336 
L 21.657091 83.0336 
L 22.468727 83.0336 
L 23.280364 83.0336 
L 24.092 83.0336 
L 24.903636 83.0336 
L 25.715273 82.841692 
L 26.526909 83.0336 
L 27.338545 82.649785 
L 28.150182 82.649785 
L 28.961818 82.457877 
L 29.773455 82.265969 
L 30.585091 82.074062 
L 31.396727 80.730708 
L 32.208364 80.346892 
L 33.02 79.771169 
L 33.831636 78.427815 
L 34.643273 77.084462 
L 35.454909 75.165385 
L 36.266545 73.0544 
L 37.078182 70.751508 
L 37.889818 69.408154 
L 38.701455 69.408154 
L 39.513091 65.57 
L 40.324727 66.145723 
L 41.136364 63.459015 
L 41.948 63.267108 
L 42.759636 58.469415 
L 43.571273 58.853231 
L 44.382909 57.701785 
L 45.194545 50.409292 
L 46.006182 54.055538 
L 46.817818 51.368831 
L 47.629455 53.863631 
L 48.441091 50.409292 
L 49.252727 48.874031 
L 50.064364 47.530677 
L 50.876 47.530677 
L 51.687636 49.641662 
L 52.499273 45.227785 
L 53.310909 52.712185 
L 54.122545 44.460154 
L 54.934182 46.954954 
L 55.745818 48.1064 
L 56.557455 48.298308 
L 57.369091 51.944554 
L 58.180727 49.065938 
L 58.992364 49.065938 
L 59.804 55.398892 
L 60.615636 51.176923 
L 61.427273 55.5908 
L 62.238909 60.388492 
L 63.050545 63.0752 
L 63.862182 59.045138 
L 64.673818 64.994277 
L 65.485455 64.994277 
L 66.297091 63.842831 
L 67.108727 68.256708 
L 67.920364 64.802369 
L 68.732 70.367692 
L 69.543636 71.327231 
L 70.355273 70.943415 
L 71.166909 75.741108 
L 71.978545 76.316831 
L 72.790182 74.589662 
L 73.601818 75.741108 
L 74.413455 77.084462 
L 75.225091 77.276369 
L 76.036727 78.811631 
L 76.848364 79.579262 
L 77.66 79.963077 
L 78.471636 81.306431 
L 79.283273 80.5388 
L 80.094909 81.114523 
L 80.906545 81.306431 
L 81.718182 81.498338 
L 82.529818 81.882154 
L 83.341455 82.841692 
L 84.153091 82.457877 
L 84.964727 82.074062 
L 85.776364 82.649785 
L 86.588 82.649785 
L 87.399636 82.841692 
L 88.211273 82.841692 
L 89.022909 82.841692 
L 89.834545 83.0336 
L 90.646182 83.0336 
L 91.457818 82.841692 
L 92.269455 83.0336 
L 93.081091 83.0336 
L 93.892727 83.0336 
L 94.704364 83.0336 
L 95.516 83.0336 
" style="fill:none;stroke:#1b7837;stroke-linecap:square;stroke-width:1.5;"/>
   </g>
   <g id="line2d_4">
    <path clip-path="url(#p0cc2b01573)" d="M 15.164 83.0336 
L 15.975636 83.0336 
L 16.787273 83.0336 
L 17.598909 83.0336 
L 18.410545 83.0336 
L 19.222182 83.0336 
L 20.033818 83.0336 
L 20.845455 83.0336 
L 21.657091 83.0336 
L 22.468727 83.0336 
L 23.280364 83.0336 
L 24.092 83.0336 
L 24.903636 83.0336 
L 25.715273 83.0336 
L 26.526909 83.0336 
L 27.338545 82.649785 
L 28.150182 83.0336 
L 28.961818 82.649785 
L 29.773455 82.074062 
L 30.585091 82.457877 
L 31.396727 80.346892 
L 32.208364 81.114523 
L 33.02 76.316831 
L 33.831636 75.933015 
L 34.643273 74.973477 
L 35.454909 70.5596 
L 36.266545 71.519138 
L 37.078182 65.186185 
L 37.889818 68.256708 
L 38.701455 62.499477 
L 39.513091 59.237046 
L 40.324727 50.6012 
L 41.136364 54.823169 
L 41.948 51.368831 
L 42.759636 44.843969 
L 43.571273 47.338769 
L 44.382909 41.581538 
L 45.194545 38.511015 
L 46.006182 45.803508 
L 46.817818 42.924892 
L 47.629455 39.278646 
L 48.441091 43.308708 
L 49.252727 40.622 
L 50.064364 40.813908 
L 50.876 42.349169 
L 51.687636 42.924892 
L 52.499273 41.965354 
L 53.310909 44.460154 
L 54.122545 45.035877 
L 54.934182 55.398892 
L 55.745818 51.560738 
L 56.557455 51.752646 
L 57.369091 51.368831 
L 58.180727 55.015077 
L 58.992364 62.115662 
L 59.804 57.893692 
L 60.615636 61.348031 
L 61.427273 64.610462 
L 62.238909 72.094862 
L 63.050545 65.953815 
L 63.862182 67.105262 
L 64.673818 71.519138 
L 65.485455 72.862492 
L 66.297091 74.205846 
L 67.108727 77.852092 
L 67.920364 78.044 
L 68.732 78.044 
L 69.543636 78.619723 
L 70.355273 79.387354 
L 71.166909 80.346892 
L 71.978545 79.771169 
L 72.790182 79.963077 
L 73.601818 82.074062 
L 74.413455 80.922615 
L 75.225091 82.074062 
L 76.036727 81.882154 
L 76.848364 82.457877 
L 77.66 82.649785 
L 78.471636 82.265969 
L 79.283273 82.841692 
L 80.094909 83.0336 
L 80.906545 82.841692 
L 81.718182 82.841692 
L 82.529818 83.0336 
L 83.341455 83.0336 
L 84.153091 82.841692 
L 84.964727 83.0336 
L 85.776364 83.0336 
L 86.588 83.0336 
L 87.399636 83.0336 
L 88.211273 83.0336 
L 89.022909 83.0336 
L 89.834545 83.0336 
L 90.646182 83.0336 
L 91.457818 82.841692 
L 92.269455 83.0336 
L 93.081091 83.0336 
L 93.892727 83.0336 
L 94.704364 83.0336 
L 95.516 83.0336 
" style="fill:none;stroke:#c51b7d;stroke-linecap:square;stroke-width:1.5;"/>
   </g>
   <g id="patch_203">
    <path d="M 10.7 83.0336 
L 10.7 33.1376 
" style="fill:none;stroke:#000000;stroke-linecap:square;stroke-linejoin:miter;stroke-width:1.5;"/>
   </g>
   <g id="patch_204">
    <path d="M 10.7 83.0336 
L 99.98 83.0336 
" style="fill:none;stroke:#000000;stroke-linecap:square;stroke-linejoin:miter;stroke-width:1.5;"/>
   </g>
   <g id="legend_1">
    <g id="line2d_5">
     <path d="M 15.99675 13.67875 
L 22.39675 13.67875 
" style="fill:none;stroke:#1b7837;stroke-linecap:square;stroke-width:1.5;"/>
    </g>
    <g id="line2d_6"/>
    <g id="text_4">
     <text style="font-family:DejaVu Sans;font-size:8px;font-stretch:normal;font-style:normal;font-weight:normal;text-anchor:start;" transform="rotate(-0, 24.79675, 16.47875)" x="24.79675" y="16.47875">Fitted at 11°C</text>
    </g>
    <g id="line2d_7">
     <path d="M 15.99675 25.42125 
L 22.39675 25.42125 
" style="fill:none;stroke:#c51b7d;stroke-linecap:square;stroke-width:1.5;"/>
    </g>
    <g id="line2d_8"/>
    <g id="text_5">
     <text style="font-family:DejaVu Sans;font-size:8px;font-stretch:normal;font-style:normal;font-weight:normal;text-anchor:start;" transform="rotate(-0, 24.79675, 28.22125)" x="24.79675" y="28.22125">Fitted at 11 &amp; 27°C</text>
    </g>
   </g>
  </g>
 </g>
 <defs>
  <clipPath id="p0cc2b01573">
   <rect height="49.896" width="89.28" x="10.7" y="33.1376"/>
  </clipPath>
 </defs>
</svg>
