<?xml version="1.0" encoding="utf-8" standalone="no"?>
<!DOCTYPE svg PUBLIC "-//W3C//DTD SVG 1.1//EN"
  "http://www.w3.org/Graphics/SVG/1.1/DTD/svg11.dtd">
<!-- Created with matplotlib (https://matplotlib.org/) -->
<svg height="73.34pt" version="1.1" viewBox="0 0 419.66 73.34" width="419.66pt" xmlns="http://www.w3.org/2000/svg" xmlns:xlink="http://www.w3.org/1999/xlink">
 <metadata>
  <rdf:RDF xmlns:cc="http://creativecommons.org/ns#" xmlns:dc="http://purl.org/dc/elements/1.1/" xmlns:rdf="http://www.w3.org/1999/02/22-rdf-syntax-ns#">
   <cc:Work>
    <dc:type rdf:resource="http://purl.org/dc/dcmitype/StillImage"/>
    <dc:date>2020-12-21T19:38:05.275364</dc:date>
    <dc:format>image/svg+xml</dc:format>
    <dc:creator>
     <cc:Agent>
      <dc:title>Matplotlib v3.3.2, https://matplotlib.org/</dc:title>
     </cc:Agent>
    </dc:creator>
   </cc:Work>
  </rdf:RDF>
 </metadata>
 <defs>
  <style type="text/css">*{stroke-linecap:butt;stroke-linejoin:round;}</style>
 </defs>
 <g id="figure_1">
  <g id="patch_1">
   <path d="M 0 73.34 
L 419.66 73.34 
L 419.66 0 
L 0 0 
z
" style="fill:none;"/>
  </g>
  <g id="axes_1">
   <g id="patch_2">
    <path d="M 10.7 62.64 
L 53.440426 62.64 
L 53.440426 7.2 
L 10.7 7.2 
z
" style="fill:none;"/>
   </g>
   <g id="matplotlib.axis_1"/>
   <g id="matplotlib.axis_2"/>
   <g id="line2d_1">
    <path clip-path="url(#p1ca2a87ba0)" d="M 12.642747 60.12 
L 13.982572 57.26717 
L 15.322397 53.463396 
L 16.662222 51.561509 
L 18.002048 50.610566 
L 19.341873 51.561509 
L 20.681698 42.052075 
L 22.021523 47.757736 
L 23.361349 36.346415 
L 24.701174 27.787925 
L 26.040999 34.444528 
L 27.380824 33.493585 
L 28.72065 29.689811 
L 30.060475 26.836981 
L 31.4003 30.640755 
L 32.740125 34.444528 
L 34.079951 23.984151 
L 35.419776 28.738868 
L 36.759601 18.278491 
L 38.099426 24.935094 
L 39.439252 15.42566 
L 40.779077 17.327547 
L 42.118902 13.523774 
L 43.458727 31.591698 
L 44.798553 13.523774 
L 46.138378 21.131321 
L 47.478203 29.689811 
L 48.818028 28.738868 
L 50.157854 29.689811 
L 51.497679 40.150189 
" style="fill:none;stroke:#1f77b4;stroke-linecap:square;stroke-width:1.5;"/>
   </g>
   <g id="line2d_2">
    <path clip-path="url(#p1ca2a87ba0)" d="M 12.642747 58.218113 
L 13.982572 48.708679 
L 15.322397 52.512453 
L 16.662222 38.248302 
L 18.002048 25.886038 
L 19.341873 25.886038 
L 20.681698 14.474717 
L 22.021523 22.082264 
L 23.361349 13.523774 
L 24.701174 19.229434 
L 26.040999 13.523774 
L 27.380824 11.621887 
L 28.72065 9.72 
L 30.060475 34.444528 
L 31.4003 26.836981 
L 32.740125 40.150189 
L 34.079951 23.984151 
L 35.419776 26.836981 
L 36.759601 30.640755 
L 38.099426 23.033208 
L 39.439252 42.052075 
L 40.779077 39.199245 
L 42.118902 39.199245 
L 43.458727 42.052075 
L 44.798553 45.855849 
L 46.138378 43.953962 
L 47.478203 51.561509 
L 48.818028 44.904906 
L 50.157854 51.561509 
L 51.497679 44.904906 
" style="fill:none;stroke:#ff0000;stroke-linecap:square;stroke-width:1.5;"/>
   </g>
   <g id="patch_3">
    <path d="M 10.7 62.64 
L 10.7 7.2 
" style="fill:none;stroke:#000000;stroke-linecap:square;stroke-linejoin:miter;stroke-width:1.5;"/>
   </g>
   <g id="patch_4">
    <path d="M 10.7 62.64 
L 53.440426 62.64 
" style="fill:none;stroke:#000000;stroke-linecap:square;stroke-linejoin:miter;stroke-width:1.5;"/>
   </g>
  </g>
  <g id="axes_2">
   <g id="patch_5">
    <path d="M 61.988511 62.64 
L 104.728936 62.64 
L 104.728936 7.2 
L 61.988511 7.2 
z
" style="fill:none;"/>
   </g>
   <g id="matplotlib.axis_3"/>
   <g id="matplotlib.axis_4"/>
   <g id="line2d_3">
    <path clip-path="url(#p5004362b32)" d="M 63.931257 58.382069 
L 65.271083 55.775172 
L 66.610908 60.12 
L 67.950733 47.085517 
L 69.290558 41.002759 
L 70.630384 45.347586 
L 71.970209 38.395862 
L 73.310034 34.92 
L 74.649859 37.526897 
L 75.989685 30.575172 
L 77.32951 41.871724 
L 78.669335 32.313103 
L 80.00916 37.526897 
L 81.348986 34.051034 
L 82.688811 29.706207 
L 84.028636 25.361379 
L 85.368461 42.74069 
L 86.708287 26.230345 
L 88.048112 31.444138 
L 89.387937 30.575172 
L 90.727762 40.133793 
L 92.067588 39.264828 
L 93.407413 41.002759 
L 94.747238 34.051034 
L 96.087063 30.575172 
L 97.426889 46.216552 
L 98.766714 41.002759 
L 100.106539 29.706207 
L 101.446364 53.168276 
L 102.78619 41.871724 
" style="fill:none;stroke:#1f77b4;stroke-linecap:square;stroke-width:1.5;"/>
   </g>
   <g id="line2d_4">
    <path clip-path="url(#p5004362b32)" d="M 63.931257 56.644138 
L 65.271083 50.561379 
L 66.610908 30.575172 
L 67.950733 28.837241 
L 69.290558 34.92 
L 70.630384 14.064828 
L 71.970209 11.457931 
L 73.310034 12.326897 
L 74.649859 16.671724 
L 75.989685 9.72 
L 77.32951 22.754483 
L 78.669335 34.051034 
L 80.00916 38.395862 
L 81.348986 35.788966 
L 82.688811 40.133793 
L 84.028636 23.623448 
L 85.368461 32.313103 
L 86.708287 48.823448 
L 88.048112 43.609655 
L 89.387937 46.216552 
L 90.727762 50.561379 
L 92.067588 54.906207 
L 93.407413 53.168276 
L 94.747238 59.251034 
L 96.087063 47.954483 
L 97.426889 60.12 
L 98.766714 50.561379 
L 100.106539 60.12 
L 101.446364 58.382069 
L 102.78619 51.430345 
" style="fill:none;stroke:#ff0000;stroke-linecap:square;stroke-width:1.5;"/>
   </g>
   <g id="patch_6">
    <path d="M 61.988511 62.64 
L 61.988511 7.2 
" style="fill:none;stroke:#000000;stroke-linecap:square;stroke-linejoin:miter;stroke-width:1.5;"/>
   </g>
   <g id="patch_7">
    <path d="M 61.988511 62.64 
L 104.728936 62.64 
" style="fill:none;stroke:#000000;stroke-linecap:square;stroke-linejoin:miter;stroke-width:1.5;"/>
   </g>
  </g>
  <g id="axes_3">
   <g id="patch_8">
    <path d="M 113.277021 62.64 
L 156.017447 62.64 
L 156.017447 7.2 
L 113.277021 7.2 
z
" style="fill:none;"/>
   </g>
   <g id="matplotlib.axis_5"/>
   <g id="matplotlib.axis_6"/>
   <g id="line2d_5">
    <path clip-path="url(#p4177eb3573)" d="M 115.219768 59.438919 
L 116.559593 60.12 
L 117.899418 59.438919 
L 119.239244 59.438919 
L 120.579069 56.714595 
L 121.918894 53.309189 
L 123.258719 59.438919 
L 124.598545 52.628108 
L 125.93837 53.309189 
L 127.278195 51.265946 
L 128.61802 57.395676 
L 129.957846 51.947027 
L 131.297671 51.265946 
L 132.637496 46.498378 
L 133.977321 42.411892 
L 135.317147 41.730811 
L 136.656972 43.092973 
L 137.996797 41.730811 
L 139.336622 32.195676 
L 140.676448 28.109189 
L 142.016273 25.384865 
L 143.356098 30.833514 
L 144.695923 28.109189 
L 146.035749 25.384865 
L 147.375574 9.72 
L 148.715399 21.298378 
L 150.055224 13.125405 
L 151.39505 24.022703 
L 152.734875 18.574054 
L 154.0747 13.125405 
" style="fill:none;stroke:#1f77b4;stroke-linecap:square;stroke-width:1.5;"/>
   </g>
   <g id="line2d_6">
    <path clip-path="url(#p4177eb3573)" d="M 115.219768 60.12 
L 116.559593 59.438919 
L 117.899418 60.12 
L 119.239244 59.438919 
L 120.579069 59.438919 
L 121.918894 51.947027 
L 123.258719 55.352432 
L 124.598545 53.309189 
L 125.93837 49.222703 
L 127.278195 49.222703 
L 128.61802 50.584865 
L 129.957846 50.584865 
L 131.297671 43.774054 
L 132.637496 43.092973 
L 133.977321 45.136216 
L 135.317147 39.006486 
L 136.656972 32.876757 
L 137.996797 34.238919 
L 139.336622 22.660541 
L 140.676448 27.428108 
L 142.016273 31.514595 
L 143.356098 32.195676 
L 144.695923 26.747027 
L 146.035749 26.747027 
L 147.375574 17.892973 
L 148.715399 22.660541 
L 150.055224 30.833514 
L 151.39505 28.79027 
L 152.734875 28.79027 
L 154.0747 17.892973 
" style="fill:none;stroke:#ff0000;stroke-linecap:square;stroke-width:1.5;"/>
   </g>
   <g id="patch_9">
    <path d="M 113.277021 62.64 
L 113.277021 7.2 
" style="fill:none;stroke:#000000;stroke-linecap:square;stroke-linejoin:miter;stroke-width:1.5;"/>
   </g>
   <g id="patch_10">
    <path d="M 113.277021 62.64 
L 156.017447 62.64 
" style="fill:none;stroke:#000000;stroke-linecap:square;stroke-linejoin:miter;stroke-width:1.5;"/>
   </g>
  </g>
  <g id="axes_4">
   <g id="patch_11">
    <path d="M 164.565532 62.64 
L 207.305957 62.64 
L 207.305957 7.2 
L 164.565532 7.2 
z
" style="fill:none;"/>
   </g>
   <g id="matplotlib.axis_7"/>
   <g id="matplotlib.axis_8"/>
   <g id="line2d_7">
    <path clip-path="url(#pb43ef838fa)" d="M 166.508279 26.065946 
L 167.848104 26.065946 
L 169.187929 26.065946 
L 170.527754 24.703784 
L 171.86758 35.601081 
L 173.207405 11.082162 
L 174.54723 36.963243 
L 175.887055 19.255135 
L 177.226881 34.238919 
L 178.566706 28.79027 
L 179.906531 36.963243 
L 181.246356 30.152432 
L 182.586182 39.687568 
L 183.926007 32.876757 
L 185.265832 41.04973 
L 186.605657 38.325405 
L 187.945483 34.238919 
L 189.285308 34.238919 
L 190.625133 58.757838 
L 191.964958 41.04973 
L 193.304784 46.498378 
L 194.644609 43.774054 
L 195.984434 49.222703 
L 197.324259 47.860541 
L 198.664085 46.498378 
L 200.00391 53.309189 
L 201.343735 45.136216 
L 202.68356 60.12 
L 204.023386 51.947027 
L 205.363211 49.222703 
" style="fill:none;stroke:#1f77b4;stroke-linecap:square;stroke-width:1.5;"/>
   </g>
   <g id="line2d_8">
    <path clip-path="url(#pb43ef838fa)" d="M 166.508279 38.325405 
L 167.848104 56.033514 
L 169.187929 46.498378 
L 170.527754 38.325405 
L 171.86758 46.498378 
L 173.207405 58.757838 
L 174.54723 47.860541 
L 175.887055 42.411892 
L 177.226881 39.687568 
L 178.566706 41.04973 
L 179.906531 41.04973 
L 181.246356 31.514595 
L 182.586182 41.04973 
L 183.926007 41.04973 
L 185.265832 45.136216 
L 186.605657 38.325405 
L 187.945483 36.963243 
L 189.285308 32.876757 
L 190.625133 26.065946 
L 191.964958 41.04973 
L 193.304784 34.238919 
L 194.644609 24.703784 
L 195.984434 34.238919 
L 197.324259 30.152432 
L 198.664085 47.860541 
L 200.00391 34.238919 
L 201.343735 43.774054 
L 202.68356 39.687568 
L 204.023386 20.617297 
L 205.363211 9.72 
" style="fill:none;stroke:#ff0000;stroke-linecap:square;stroke-width:1.5;"/>
   </g>
   <g id="patch_12">
    <path d="M 164.565532 62.64 
L 164.565532 7.2 
" style="fill:none;stroke:#000000;stroke-linecap:square;stroke-linejoin:miter;stroke-width:1.5;"/>
   </g>
   <g id="patch_13">
    <path d="M 164.565532 62.64 
L 207.305957 62.64 
" style="fill:none;stroke:#000000;stroke-linecap:square;stroke-linejoin:miter;stroke-width:1.5;"/>
   </g>
  </g>
  <g id="axes_5">
   <g id="patch_14">
    <path d="M 215.854043 62.64 
L 258.594468 62.64 
L 258.594468 7.2 
L 215.854043 7.2 
z
" style="fill:none;"/>
   </g>
   <g id="matplotlib.axis_9"/>
   <g id="matplotlib.axis_10"/>
   <g id="line2d_9">
    <path clip-path="url(#pf9224615f7)" d="M 217.796789 13.195862 
L 219.136614 17.54069 
L 220.47644 17.54069 
L 221.816265 19.278621 
L 223.15609 21.016552 
L 224.495915 30.575172 
L 225.835741 11.457931 
L 227.175566 27.09931 
L 228.515391 9.72 
L 229.855216 19.278621 
L 231.195042 27.09931 
L 232.534867 29.706207 
L 233.874692 20.147586 
L 235.214517 30.575172 
L 236.554343 35.788966 
L 237.894168 39.264828 
L 239.233993 35.788966 
L 240.573818 38.395862 
L 241.913644 34.92 
L 243.253469 41.002759 
L 244.593294 47.085517 
L 245.933119 50.561379 
L 247.272945 51.430345 
L 248.61277 56.644138 
L 249.952595 54.037241 
L 251.29242 58.382069 
L 252.632246 55.775172 
L 253.972071 60.12 
L 255.311896 60.12 
L 256.651721 60.12 
" style="fill:none;stroke:#1f77b4;stroke-linecap:square;stroke-width:1.5;"/>
   </g>
   <g id="line2d_10">
    <path clip-path="url(#pf9224615f7)" d="M 217.796789 34.92 
L 219.136614 46.216552 
L 220.47644 33.182069 
L 221.816265 35.788966 
L 223.15609 41.002759 
L 224.495915 33.182069 
L 225.835741 41.002759 
L 227.175566 39.264828 
L 228.515391 34.92 
L 229.855216 24.492414 
L 231.195042 17.54069 
L 232.534867 19.278621 
L 233.874692 25.361379 
L 235.214517 21.885517 
L 236.554343 25.361379 
L 237.894168 35.788966 
L 239.233993 29.706207 
L 240.573818 29.706207 
L 241.913644 34.92 
L 243.253469 23.623448 
L 244.593294 33.182069 
L 245.933119 34.92 
L 247.272945 41.002759 
L 248.61277 43.609655 
L 249.952595 49.692414 
L 251.29242 44.478621 
L 252.632246 54.037241 
L 253.972071 54.906207 
L 255.311896 46.216552 
L 256.651721 44.478621 
" style="fill:none;stroke:#ff0000;stroke-linecap:square;stroke-width:1.5;"/>
   </g>
   <g id="patch_15">
    <path d="M 215.854043 62.64 
L 215.854043 7.2 
" style="fill:none;stroke:#000000;stroke-linecap:square;stroke-linejoin:miter;stroke-width:1.5;"/>
   </g>
   <g id="patch_16">
    <path d="M 215.854043 62.64 
L 258.594468 62.64 
" style="fill:none;stroke:#000000;stroke-linecap:square;stroke-linejoin:miter;stroke-width:1.5;"/>
   </g>
  </g>
  <g id="axes_6">
   <g id="patch_17">
    <path d="M 267.142553 62.64 
L 309.882979 62.64 
L 309.882979 7.2 
L 267.142553 7.2 
z
" style="fill:none;"/>
   </g>
   <g id="matplotlib.axis_11"/>
   <g id="matplotlib.axis_12"/>
   <g id="line2d_11">
    <path clip-path="url(#p30c6648314)" d="M 269.0853 49.32 
L 270.425125 44.82 
L 271.76495 54.72 
L 273.104776 51.12 
L 274.444601 49.32 
L 275.784426 50.22 
L 277.124251 43.92 
L 278.464077 40.32 
L 279.803902 38.52 
L 281.143727 39.42 
L 282.483552 43.92 
L 283.823378 40.32 
L 285.163203 49.32 
L 286.503028 40.32 
L 287.842853 37.62 
L 289.182679 38.52 
L 290.522504 43.02 
L 291.862329 37.62 
L 293.202154 33.12 
L 294.54198 34.92 
L 295.881805 38.52 
L 297.22163 34.92 
L 298.561455 24.12 
L 299.901281 32.22 
L 301.241106 41.22 
L 302.580931 43.92 
L 303.920756 41.22 
L 305.260582 35.82 
L 306.600407 43.92 
L 307.940232 40.32 
" style="fill:none;stroke:#1f77b4;stroke-linecap:square;stroke-width:1.5;"/>
   </g>
   <g id="line2d_12">
    <path clip-path="url(#p30c6648314)" d="M 269.0853 54.72 
L 270.425125 57.42 
L 271.76495 54.72 
L 273.104776 49.32 
L 274.444601 49.32 
L 275.784426 60.12 
L 277.124251 58.32 
L 278.464077 55.62 
L 279.803902 45.72 
L 281.143727 46.62 
L 282.483552 49.32 
L 283.823378 46.62 
L 285.163203 50.22 
L 286.503028 39.42 
L 287.842853 42.12 
L 289.182679 41.22 
L 290.522504 45.72 
L 291.862329 43.92 
L 293.202154 33.12 
L 294.54198 34.92 
L 295.881805 31.32 
L 297.22163 37.62 
L 298.561455 25.02 
L 299.901281 30.42 
L 301.241106 31.32 
L 302.580931 20.52 
L 303.920756 20.52 
L 305.260582 35.82 
L 306.600407 35.82 
L 307.940232 9.72 
" style="fill:none;stroke:#ff0000;stroke-linecap:square;stroke-width:1.5;"/>
   </g>
   <g id="patch_18">
    <path d="M 267.142553 62.64 
L 267.142553 7.2 
" style="fill:none;stroke:#000000;stroke-linecap:square;stroke-linejoin:miter;stroke-width:1.5;"/>
   </g>
   <g id="patch_19">
    <path d="M 267.142553 62.64 
L 309.882979 62.64 
" style="fill:none;stroke:#000000;stroke-linecap:square;stroke-linejoin:miter;stroke-width:1.5;"/>
   </g>
  </g>
  <g id="axes_7">
   <g id="patch_20">
    <path d="M 318.431064 62.64 
L 361.171489 62.64 
L 361.171489 7.2 
L 318.431064 7.2 
z
" style="fill:none;"/>
   </g>
   <g id="matplotlib.axis_13"/>
   <g id="matplotlib.axis_14"/>
   <g id="line2d_13">
    <path clip-path="url(#p4a8d990fe2)" d="M 320.37381 51.590769 
L 321.713636 50.04 
L 323.053461 50.04 
L 324.393286 53.916923 
L 325.733111 47.713846 
L 327.072937 48.489231 
L 328.412762 47.713846 
L 329.752587 43.836923 
L 331.092412 43.836923 
L 332.432238 43.061538 
L 333.772063 36.083077 
L 335.111888 29.88 
L 336.451713 38.409231 
L 337.791539 29.88 
L 339.131364 42.286154 
L 340.471189 29.104615 
L 341.811014 29.88 
L 343.15084 29.104615 
L 344.490665 29.88 
L 345.83049 32.981538 
L 347.170315 29.104615 
L 348.510141 18.249231 
L 349.849966 32.981538 
L 351.189791 32.981538 
L 352.529616 35.307692 
L 353.869442 36.858462 
L 355.209267 36.858462 
L 356.549092 27.553846 
L 357.888917 36.083077 
L 359.228743 35.307692 
" style="fill:none;stroke:#1f77b4;stroke-linecap:square;stroke-width:1.5;"/>
   </g>
   <g id="line2d_14">
    <path clip-path="url(#p4a8d990fe2)" d="M 320.37381 55.467692 
L 321.713636 60.12 
L 323.053461 53.916923 
L 324.393286 55.467692 
L 325.733111 50.815385 
L 327.072937 52.366154 
L 328.412762 55.467692 
L 329.752587 43.836923 
L 331.092412 49.264615 
L 332.432238 45.387692 
L 333.772063 43.836923 
L 335.111888 43.061538 
L 336.451713 39.96 
L 337.791539 37.633846 
L 339.131364 32.206154 
L 340.471189 36.083077 
L 341.811014 33.756923 
L 343.15084 33.756923 
L 344.490665 24.452308 
L 345.83049 25.227692 
L 347.170315 25.227692 
L 348.510141 30.655385 
L 349.849966 23.676923 
L 351.189791 22.901538 
L 352.529616 23.676923 
L 353.869442 24.452308 
L 355.209267 32.206154 
L 356.549092 28.329231 
L 357.888917 36.083077 
L 359.228743 9.72 
" style="fill:none;stroke:#ff0000;stroke-linecap:square;stroke-width:1.5;"/>
   </g>
   <g id="patch_21">
    <path d="M 318.431064 62.64 
L 318.431064 7.2 
" style="fill:none;stroke:#000000;stroke-linecap:square;stroke-linejoin:miter;stroke-width:1.5;"/>
   </g>
   <g id="patch_22">
    <path d="M 318.431064 62.64 
L 361.171489 62.64 
" style="fill:none;stroke:#000000;stroke-linecap:square;stroke-linejoin:miter;stroke-width:1.5;"/>
   </g>
  </g>
  <g id="axes_8">
   <g id="patch_23">
    <path d="M 369.719574 62.64 
L 412.46 62.64 
L 412.46 7.2 
L 369.719574 7.2 
z
" style="fill:none;"/>
   </g>
   <g id="matplotlib.axis_15"/>
   <g id="matplotlib.axis_16"/>
   <g id="line2d_15">
    <path clip-path="url(#pf5d6390139)" d="M 371.662321 44.083636 
L 373.002146 30.910909 
L 374.341972 40.647273 
L 375.681797 30.910909 
L 377.021622 41.792727 
L 378.361447 34.92 
L 379.701273 47.52 
L 381.041098 38.356364 
L 382.380923 38.356364 
L 383.720748 34.92 
L 385.060574 40.074545 
L 386.400399 41.22 
L 387.740224 42.938182 
L 389.080049 42.938182 
L 390.419875 42.938182 
L 391.7597 37.783636 
L 393.099525 50.383636 
L 394.43935 41.792727 
L 395.779176 48.665455 
L 397.119001 48.665455 
L 398.458826 50.956364 
L 399.798651 54.965455 
L 401.138477 44.083636 
L 402.478302 49.810909 
L 403.818127 48.665455 
L 405.157952 50.956364 
L 406.497778 45.229091 
L 407.837603 50.383636 
L 409.177428 45.801818 
L 410.517253 44.656364 
" style="fill:none;stroke:#1f77b4;stroke-linecap:square;stroke-width:1.5;"/>
   </g>
   <g id="line2d_16">
    <path clip-path="url(#pf5d6390139)" d="M 371.662321 9.72 
L 373.002146 24.610909 
L 374.341972 17.738182 
L 375.681797 26.329091 
L 377.021622 27.474545 
L 378.361447 16.592727 
L 379.701273 24.038182 
L 381.041098 30.338182 
L 382.380923 28.047273 
L 383.720748 36.065455 
L 385.060574 42.365455 
L 386.400399 41.792727 
L 387.740224 46.947273 
L 389.080049 46.947273 
L 390.419875 50.956364 
L 391.7597 46.947273 
L 393.099525 53.82 
L 394.43935 48.665455 
L 395.779176 53.247273 
L 397.119001 52.674545 
L 398.458826 54.965455 
L 399.798651 53.82 
L 401.138477 58.974545 
L 402.478302 59.547273 
L 403.818127 60.12 
L 405.157952 56.683636 
L 406.497778 59.547273 
L 407.837603 58.974545 
L 409.177428 57.829091 
L 410.517253 59.547273 
" style="fill:none;stroke:#ff0000;stroke-linecap:square;stroke-width:1.5;"/>
   </g>
   <g id="patch_24">
    <path d="M 369.719574 62.64 
L 369.719574 7.2 
" style="fill:none;stroke:#000000;stroke-linecap:square;stroke-linejoin:miter;stroke-width:1.5;"/>
   </g>
   <g id="patch_25">
    <path d="M 369.719574 62.64 
L 412.46 62.64 
" style="fill:none;stroke:#000000;stroke-linecap:square;stroke-linejoin:miter;stroke-width:1.5;"/>
   </g>
  </g>
 </g>
 <defs>
  <clipPath id="p1ca2a87ba0">
   <rect height="55.44" width="42.740426" x="10.7" y="7.2"/>
  </clipPath>
  <clipPath id="p5004362b32">
   <rect height="55.44" width="42.740426" x="61.988511" y="7.2"/>
  </clipPath>
  <clipPath id="p4177eb3573">
   <rect height="55.44" width="42.740426" x="113.277021" y="7.2"/>
  </clipPath>
  <clipPath id="pb43ef838fa">
   <rect height="55.44" width="42.740426" x="164.565532" y="7.2"/>
  </clipPath>
  <clipPath id="pf9224615f7">
   <rect height="55.44" width="42.740426" x="215.854043" y="7.2"/>
  </clipPath>
  <clipPath id="p30c6648314">
   <rect height="55.44" width="42.740426" x="267.142553" y="7.2"/>
  </clipPath>
  <clipPath id="p4a8d990fe2">
   <rect height="55.44" width="42.740426" x="318.431064" y="7.2"/>
  </clipPath>
  <clipPath id="pf5d6390139">
   <rect height="55.44" width="42.740426" x="369.719574" y="7.2"/>
  </clipPath>
 </defs>
</svg>
