<?xml version="1.0" encoding="utf-8" standalone="no"?>
<!DOCTYPE svg PUBLIC "-//W3C//DTD SVG 1.1//EN"
  "http://www.w3.org/Graphics/SVG/1.1/DTD/svg11.dtd">
<!-- Created with matplotlib (https://matplotlib.org/) -->
<svg height="88.276375pt" version="1.1" viewBox="0 0 193.093691 88.276375" width="193.093691pt" xmlns="http://www.w3.org/2000/svg" xmlns:xlink="http://www.w3.org/1999/xlink">
 <metadata>
  <rdf:RDF xmlns:cc="http://creativecommons.org/ns#" xmlns:dc="http://purl.org/dc/elements/1.1/" xmlns:rdf="http://www.w3.org/1999/02/22-rdf-syntax-ns#">
   <cc:Work>
    <dc:type rdf:resource="http://purl.org/dc/dcmitype/StillImage"/>
    <dc:date>2021-01-15T14:00:20.103063</dc:date>
    <dc:format>image/svg+xml</dc:format>
    <dc:creator>
     <cc:Agent>
      <dc:title>Matplotlib v3.3.2, https://matplotlib.org/</dc:title>
     </cc:Agent>
    </dc:creator>
   </cc:Work>
  </rdf:RDF>
 </metadata>
 <defs>
  <style type="text/css">*{stroke-linecap:butt;stroke-linejoin:round;}</style>
 </defs>
 <g id="figure_1">
  <g id="patch_1">
   <path d="M 0 88.276375 
L 193.093691 88.276375 
L 193.093691 0 
L 0 0 
z
" style="fill:none;"/>
  </g>
  <g id="axes_1">
   <g id="patch_2">
    <path d="M 39.99075 54.591375 
L 185.07075 54.591375 
L 185.07075 10.239375 
L 39.99075 10.239375 
z
" style="fill:none;"/>
   </g>
   <g id="matplotlib.axis_1">
    <g id="xtick_1">
     <g id="line2d_1">
      <defs>
       <path d="M 0 0 
L 0 3.5 
" id="m916e1cbbf4" style="stroke:#000000;stroke-width:1.5;"/>
      </defs>
      <g>
       <use style="stroke:#000000;stroke-width:1.5;" x="44.257809" xlink:href="#m916e1cbbf4" y="54.591375"/>
      </g>
     </g>
     <g id="text_1">
      <text style="font-family:DejaVu Sans;font-size:8px;font-stretch:normal;font-style:normal;font-weight:normal;text-anchor:middle;" transform="rotate(-0, 44.257809, 67.670125)" x="44.257809" y="67.670125">11</text>
     </g>
    </g>
    <g id="xtick_2">
     <g id="line2d_2">
      <g>
       <use style="stroke:#000000;stroke-width:1.5;" x="78.394279" xlink:href="#m916e1cbbf4" y="54.591375"/>
      </g>
     </g>
     <g id="text_2">
      <text style="font-family:DejaVu Sans;font-size:8px;font-stretch:normal;font-style:normal;font-weight:normal;text-anchor:middle;" transform="rotate(-0, 78.394279, 67.670125)" x="78.394279" y="67.670125">15</text>
     </g>
    </g>
    <g id="xtick_3">
     <g id="line2d_3">
      <g>
       <use style="stroke:#000000;stroke-width:1.5;" x="112.53075" xlink:href="#m916e1cbbf4" y="54.591375"/>
      </g>
     </g>
     <g id="text_3">
      <text style="font-family:DejaVu Sans;font-size:8px;font-stretch:normal;font-style:normal;font-weight:normal;text-anchor:middle;" transform="rotate(-0, 112.53075, 67.670125)" x="112.53075" y="67.670125">19</text>
     </g>
    </g>
    <g id="xtick_4">
     <g id="line2d_4">
      <g>
       <use style="stroke:#000000;stroke-width:1.5;" x="146.667221" xlink:href="#m916e1cbbf4" y="54.591375"/>
      </g>
     </g>
     <g id="text_4">
      <text style="font-family:DejaVu Sans;font-size:8px;font-stretch:normal;font-style:normal;font-weight:normal;text-anchor:middle;" transform="rotate(-0, 146.667221, 67.670125)" x="146.667221" y="67.670125">23</text>
     </g>
    </g>
    <g id="xtick_5">
     <g id="line2d_5">
      <g>
       <use style="stroke:#000000;stroke-width:1.5;" x="180.803691" xlink:href="#m916e1cbbf4" y="54.591375"/>
      </g>
     </g>
     <g id="text_5">
      <text style="font-family:DejaVu Sans;font-size:8px;font-stretch:normal;font-style:normal;font-weight:normal;text-anchor:middle;" transform="rotate(-0, 180.803691, 67.670125)" x="180.803691" y="67.670125">27</text>
     </g>
    </g>
    <g id="text_6">
     <text style="font-family:DejaVu Sans;font-size:8px;font-stretch:normal;font-style:normal;font-weight:normal;text-anchor:middle;" transform="rotate(-0, 112.53075, 79.412625)" x="112.53075" y="79.412625">Temperature (°C)</text>
    </g>
   </g>
   <g id="matplotlib.axis_2">
    <g id="ytick_1">
     <g id="line2d_6">
      <defs>
       <path d="M 0 0 
L -3.5 0 
" id="mdaa7b2e3e8" style="stroke:#000000;stroke-width:1.5;"/>
      </defs>
      <g>
       <use style="stroke:#000000;stroke-width:1.5;" x="39.99075" xlink:href="#mdaa7b2e3e8" y="54.591375"/>
      </g>
     </g>
     <g id="text_7">
      <text style="font-family:DejaVu Sans;font-size:8px;font-stretch:normal;font-style:normal;font-weight:normal;text-anchor:end;" transform="rotate(-0, 32.99075, 57.63075)" x="32.99075" y="57.63075">0</text>
     </g>
    </g>
    <g id="ytick_2">
     <g id="line2d_7">
      <g>
       <use style="stroke:#000000;stroke-width:1.5;" x="39.99075" xlink:href="#mdaa7b2e3e8" y="10.239375"/>
      </g>
     </g>
     <g id="text_8">
      <text style="font-family:DejaVu Sans;font-size:8px;font-stretch:normal;font-style:normal;font-weight:normal;text-anchor:end;" transform="rotate(-0, 32.99075, 13.27875)" x="32.99075" y="13.27875">1</text>
     </g>
    </g>
    <g id="text_9">
     <text style="font-family:DejaVu Sans;font-size:8px;font-stretch:normal;font-style:normal;font-weight:normal;" transform="translate(13.27875 50.39475)rotate(-90)">Phase PY</text>
     <text style="font-family:DejaVu Sans;font-size:8px;font-stretch:normal;font-style:normal;font-weight:normal;" transform="translate(22.237 56.074125)rotate(-90)">(% of cycle)</text>
    </g>
   </g>
   <g id="line2d_8">
    <path clip-path="url(#p8fdfa0b1e0)" d="M 44.257809 26.251181 
L 52.791926 27.112565 
L 61.326044 26.867649 
L 69.860162 26.339791 
L 78.394279 27.491134 
L 86.928397 26.526024 
L 95.462515 27.40223 
L 103.996632 27.212589 
L 112.53075 27.418541 
L 121.064868 27.547544 
L 129.598985 27.548974 
L 138.133103 27.994655 
L 146.667221 27.994165 
L 155.201338 28.164277 
L 163.735456 28.402042 
L 172.269574 28.027186 
L 180.803691 29.007024 
" style="fill:none;stroke:#000000;stroke-linecap:square;stroke-width:1.5;"/>
   </g>
   <g id="patch_3">
    <path d="M 39.99075 54.591375 
L 39.99075 10.239375 
" style="fill:none;stroke:#000000;stroke-linecap:square;stroke-linejoin:miter;stroke-width:1.5;"/>
   </g>
   <g id="patch_4">
    <path d="M 39.99075 54.591375 
L 185.07075 54.591375 
" style="fill:none;stroke:#000000;stroke-linecap:square;stroke-linejoin:miter;stroke-width:1.5;"/>
   </g>
   <g id="PathCollection_1">
    <defs>
     <path d="M 0 1.581139 
C 0.419323 1.581139 0.821528 1.41454 1.118034 1.118034 
C 1.41454 0.821528 1.581139 0.419323 1.581139 0 
C 1.581139 -0.419323 1.41454 -0.821528 1.118034 -1.118034 
C 0.821528 -1.41454 0.419323 -1.581139 0 -1.581139 
C -0.419323 -1.581139 -0.821528 -1.41454 -1.118034 -1.118034 
C -1.41454 -0.821528 -1.581139 -0.419323 -1.581139 0 
C -1.581139 0.419323 -1.41454 0.821528 -1.118034 1.118034 
C -0.821528 1.41454 -0.419323 1.581139 0 1.581139 
z
" id="m9beefd1986" style="stroke:#000000;"/>
    </defs>
    <g clip-path="url(#p8fdfa0b1e0)">
     <use style="stroke:#000000;" x="44.257809" xlink:href="#m9beefd1986" y="26.251181"/>
     <use style="stroke:#000000;" x="52.791926" xlink:href="#m9beefd1986" y="27.112565"/>
     <use style="stroke:#000000;" x="61.326044" xlink:href="#m9beefd1986" y="26.867649"/>
     <use style="stroke:#000000;" x="69.860162" xlink:href="#m9beefd1986" y="26.339791"/>
     <use style="stroke:#000000;" x="78.394279" xlink:href="#m9beefd1986" y="27.491134"/>
     <use style="stroke:#000000;" x="86.928397" xlink:href="#m9beefd1986" y="26.526024"/>
     <use style="stroke:#000000;" x="95.462515" xlink:href="#m9beefd1986" y="27.40223"/>
     <use style="stroke:#000000;" x="103.996632" xlink:href="#m9beefd1986" y="27.212589"/>
     <use style="stroke:#000000;" x="112.53075" xlink:href="#m9beefd1986" y="27.418541"/>
     <use style="stroke:#000000;" x="121.064868" xlink:href="#m9beefd1986" y="27.547544"/>
     <use style="stroke:#000000;" x="129.598985" xlink:href="#m9beefd1986" y="27.548974"/>
     <use style="stroke:#000000;" x="138.133103" xlink:href="#m9beefd1986" y="27.994655"/>
     <use style="stroke:#000000;" x="146.667221" xlink:href="#m9beefd1986" y="27.994165"/>
     <use style="stroke:#000000;" x="155.201338" xlink:href="#m9beefd1986" y="28.164277"/>
     <use style="stroke:#000000;" x="163.735456" xlink:href="#m9beefd1986" y="28.402042"/>
     <use style="stroke:#000000;" x="172.269574" xlink:href="#m9beefd1986" y="28.027186"/>
     <use style="stroke:#000000;" x="180.803691" xlink:href="#m9beefd1986" y="29.007024"/>
    </g>
   </g>
   <g id="PathCollection_2">
    <defs>
     <path d="M 0 2.738613 
C 0.726289 2.738613 1.422928 2.450055 1.936492 1.936492 
C 2.450055 1.422928 2.738613 0.726289 2.738613 0 
C 2.738613 -0.726289 2.450055 -1.422928 1.936492 -1.936492 
C 1.422928 -2.450055 0.726289 -2.738613 0 -2.738613 
C -0.726289 -2.738613 -1.422928 -2.450055 -1.936492 -1.936492 
C -2.450055 -1.422928 -2.738613 -0.726289 -2.738613 0 
C -2.738613 0.726289 -2.450055 1.422928 -1.936492 1.936492 
C -1.422928 2.450055 -0.726289 2.738613 0 2.738613 
z
" id="mb01a3f4b2f" style="stroke:#008000;"/>
    </defs>
    <g clip-path="url(#p8fdfa0b1e0)">
     <use style="fill:#008000;stroke:#008000;" x="44.257809" xlink:href="#mb01a3f4b2f" y="26.625448"/>
    </g>
   </g>
   <g id="PathCollection_3">
    <g clip-path="url(#p8fdfa0b1e0)">
     <use style="fill:#008000;stroke:#008000;" x="180.803691" xlink:href="#mb01a3f4b2f" y="28.897073"/>
    </g>
   </g>
  </g>
 </g>
 <defs>
  <clipPath id="p8fdfa0b1e0">
   <rect height="44.352" width="145.08" x="39.99075" y="10.239375"/>
  </clipPath>
 </defs>
</svg>
