<?xml version="1.0" encoding="utf-8" standalone="no"?>
<!DOCTYPE svg PUBLIC "-//W3C//DTD SVG 1.1//EN"
  "http://www.w3.org/Graphics/SVG/1.1/DTD/svg11.dtd">
<!-- Created with matplotlib (https://matplotlib.org/) -->
<svg height="116.7361pt" version="1.1" viewBox="0 0 137.6925 116.7361" width="137.6925pt" xmlns="http://www.w3.org/2000/svg" xmlns:xlink="http://www.w3.org/1999/xlink">
 <metadata>
  <rdf:RDF xmlns:cc="http://creativecommons.org/ns#" xmlns:dc="http://purl.org/dc/elements/1.1/" xmlns:rdf="http://www.w3.org/1999/02/22-rdf-syntax-ns#">
   <cc:Work>
    <dc:type rdf:resource="http://purl.org/dc/dcmitype/StillImage"/>
    <dc:date>2021-01-26T09:03:14.309931</dc:date>
    <dc:format>image/svg+xml</dc:format>
    <dc:creator>
     <cc:Agent>
      <dc:title>Matplotlib v3.3.2, https://matplotlib.org/</dc:title>
     </cc:Agent>
    </dc:creator>
   </cc:Work>
  </rdf:RDF>
 </metadata>
 <defs>
  <style type="text/css">*{stroke-linecap:butt;stroke-linejoin:round;}</style>
 </defs>
 <g id="figure_1">
  <g id="patch_1">
   <path d="M -0 116.7361 
L 137.6925 116.7361 
L 137.6925 -0 
L -0 -0 
z
" style="fill:none;"/>
  </g>
  <g id="axes_1">
   <g id="patch_2">
    <path d="M 41.2125 83.0336 
L 130.4925 83.0336 
L 130.4925 33.1376 
L 41.2125 33.1376 
z
" style="fill:none;"/>
   </g>
   <g id="patch_3">
    <path clip-path="url(#p01f1f819f2)" d="M 45.270682 83.0336 
L 46.082318 83.0336 
L 46.082318 83.0336 
L 45.270682 83.0336 
z
" style="fill:#ffffff;"/>
   </g>
   <g id="patch_4">
    <path clip-path="url(#p01f1f819f2)" d="M 46.082318 83.0336 
L 46.893955 83.0336 
L 46.893955 83.0336 
L 46.082318 83.0336 
z
" style="fill:#ffffff;"/>
   </g>
   <g id="patch_5">
    <path clip-path="url(#p01f1f819f2)" d="M 46.893955 83.0336 
L 47.705591 83.0336 
L 47.705591 83.0336 
L 46.893955 83.0336 
z
" style="fill:#ffffff;"/>
   </g>
   <g id="patch_6">
    <path clip-path="url(#p01f1f819f2)" d="M 47.705591 83.0336 
L 48.517227 83.0336 
L 48.517227 83.0336 
L 47.705591 83.0336 
z
" style="fill:#ffffff;"/>
   </g>
   <g id="patch_7">
    <path clip-path="url(#p01f1f819f2)" d="M 48.517227 83.0336 
L 49.328864 83.0336 
L 49.328864 83.0336 
L 48.517227 83.0336 
z
" style="fill:#ffffff;"/>
   </g>
   <g id="patch_8">
    <path clip-path="url(#p01f1f819f2)" d="M 49.328864 83.0336 
L 50.1405 83.0336 
L 50.1405 83.0336 
L 49.328864 83.0336 
z
" style="fill:#ffffff;"/>
   </g>
   <g id="patch_9">
    <path clip-path="url(#p01f1f819f2)" d="M 50.1405 83.0336 
L 50.952136 83.0336 
L 50.952136 83.0336 
L 50.1405 83.0336 
z
" style="fill:#ffffff;"/>
   </g>
   <g id="patch_10">
    <path clip-path="url(#p01f1f819f2)" d="M 50.952136 83.0336 
L 51.763773 83.0336 
L 51.763773 83.0336 
L 50.952136 83.0336 
z
" style="fill:#ffffff;"/>
   </g>
   <g id="patch_11">
    <path clip-path="url(#p01f1f819f2)" d="M 51.763773 83.0336 
L 52.575409 83.0336 
L 52.575409 83.0336 
L 51.763773 83.0336 
z
" style="fill:#ffffff;"/>
   </g>
   <g id="patch_12">
    <path clip-path="url(#p01f1f819f2)" d="M 52.575409 83.0336 
L 53.387045 83.0336 
L 53.387045 83.0336 
L 52.575409 83.0336 
z
" style="fill:#ffffff;"/>
   </g>
   <g id="patch_13">
    <path clip-path="url(#p01f1f819f2)" d="M 53.387045 83.0336 
L 54.198682 83.0336 
L 54.198682 83.0336 
L 53.387045 83.0336 
z
" style="fill:#ffffff;"/>
   </g>
   <g id="patch_14">
    <path clip-path="url(#p01f1f819f2)" d="M 54.198682 83.0336 
L 55.010318 83.0336 
L 55.010318 83.0336 
L 54.198682 83.0336 
z
" style="fill:#ffffff;"/>
   </g>
   <g id="patch_15">
    <path clip-path="url(#p01f1f819f2)" d="M 55.010318 83.0336 
L 55.821955 83.0336 
L 55.821955 83.0336 
L 55.010318 83.0336 
z
" style="fill:#ffffff;"/>
   </g>
   <g id="patch_16">
    <path clip-path="url(#p01f1f819f2)" d="M 55.821955 83.0336 
L 56.633591 83.0336 
L 56.633591 82.841692 
L 55.821955 82.841692 
z
" style="fill:#ffffff;"/>
   </g>
   <g id="patch_17">
    <path clip-path="url(#p01f1f819f2)" d="M 56.633591 83.0336 
L 57.445227 83.0336 
L 57.445227 83.0336 
L 56.633591 83.0336 
z
" style="fill:#ffffff;"/>
   </g>
   <g id="patch_18">
    <path clip-path="url(#p01f1f819f2)" d="M 57.445227 83.0336 
L 58.256864 83.0336 
L 58.256864 82.649785 
L 57.445227 82.649785 
z
" style="fill:#ffffff;"/>
   </g>
   <g id="patch_19">
    <path clip-path="url(#p01f1f819f2)" d="M 58.256864 83.0336 
L 59.0685 83.0336 
L 59.0685 82.649785 
L 58.256864 82.649785 
z
" style="fill:#ffffff;"/>
   </g>
   <g id="patch_20">
    <path clip-path="url(#p01f1f819f2)" d="M 59.0685 83.0336 
L 59.880136 83.0336 
L 59.880136 82.457877 
L 59.0685 82.457877 
z
" style="fill:#ffffff;"/>
   </g>
   <g id="patch_21">
    <path clip-path="url(#p01f1f819f2)" d="M 59.880136 83.0336 
L 60.691773 83.0336 
L 60.691773 82.265969 
L 59.880136 82.265969 
z
" style="fill:#ffffff;"/>
   </g>
   <g id="patch_22">
    <path clip-path="url(#p01f1f819f2)" d="M 60.691773 83.0336 
L 61.503409 83.0336 
L 61.503409 82.074062 
L 60.691773 82.074062 
z
" style="fill:#ffffff;"/>
   </g>
   <g id="patch_23">
    <path clip-path="url(#p01f1f819f2)" d="M 61.503409 83.0336 
L 62.315045 83.0336 
L 62.315045 80.730708 
L 61.503409 80.730708 
z
" style="fill:#ffffff;"/>
   </g>
   <g id="patch_24">
    <path clip-path="url(#p01f1f819f2)" d="M 62.315045 83.0336 
L 63.126682 83.0336 
L 63.126682 80.346892 
L 62.315045 80.346892 
z
" style="fill:#ffffff;"/>
   </g>
   <g id="patch_25">
    <path clip-path="url(#p01f1f819f2)" d="M 63.126682 83.0336 
L 63.938318 83.0336 
L 63.938318 79.771169 
L 63.126682 79.771169 
z
" style="fill:#ffffff;"/>
   </g>
   <g id="patch_26">
    <path clip-path="url(#p01f1f819f2)" d="M 63.938318 83.0336 
L 64.749955 83.0336 
L 64.749955 78.427815 
L 63.938318 78.427815 
z
" style="fill:#ffffff;"/>
   </g>
   <g id="patch_27">
    <path clip-path="url(#p01f1f819f2)" d="M 64.749955 83.0336 
L 65.561591 83.0336 
L 65.561591 77.084462 
L 64.749955 77.084462 
z
" style="fill:#ffffff;"/>
   </g>
   <g id="patch_28">
    <path clip-path="url(#p01f1f819f2)" d="M 65.561591 83.0336 
L 66.373227 83.0336 
L 66.373227 75.165385 
L 65.561591 75.165385 
z
" style="fill:#ffffff;"/>
   </g>
   <g id="patch_29">
    <path clip-path="url(#p01f1f819f2)" d="M 66.373227 83.0336 
L 67.184864 83.0336 
L 67.184864 73.0544 
L 66.373227 73.0544 
z
" style="fill:#ffffff;"/>
   </g>
   <g id="patch_30">
    <path clip-path="url(#p01f1f819f2)" d="M 67.184864 83.0336 
L 67.9965 83.0336 
L 67.9965 70.751508 
L 67.184864 70.751508 
z
" style="fill:#ffffff;"/>
   </g>
   <g id="patch_31">
    <path clip-path="url(#p01f1f819f2)" d="M 67.9965 83.0336 
L 68.808136 83.0336 
L 68.808136 69.408154 
L 67.9965 69.408154 
z
" style="fill:#ffffff;"/>
   </g>
   <g id="patch_32">
    <path clip-path="url(#p01f1f819f2)" d="M 68.808136 83.0336 
L 69.619773 83.0336 
L 69.619773 69.408154 
L 68.808136 69.408154 
z
" style="fill:#ffffff;"/>
   </g>
   <g id="patch_33">
    <path clip-path="url(#p01f1f819f2)" d="M 69.619773 83.0336 
L 70.431409 83.0336 
L 70.431409 65.57 
L 69.619773 65.57 
z
" style="fill:#ffffff;"/>
   </g>
   <g id="patch_34">
    <path clip-path="url(#p01f1f819f2)" d="M 70.431409 83.0336 
L 71.243045 83.0336 
L 71.243045 66.145723 
L 70.431409 66.145723 
z
" style="fill:#ffffff;"/>
   </g>
   <g id="patch_35">
    <path clip-path="url(#p01f1f819f2)" d="M 71.243045 83.0336 
L 72.054682 83.0336 
L 72.054682 63.459015 
L 71.243045 63.459015 
z
" style="fill:#ffffff;"/>
   </g>
   <g id="patch_36">
    <path clip-path="url(#p01f1f819f2)" d="M 72.054682 83.0336 
L 72.866318 83.0336 
L 72.866318 63.267108 
L 72.054682 63.267108 
z
" style="fill:#ffffff;"/>
   </g>
   <g id="patch_37">
    <path clip-path="url(#p01f1f819f2)" d="M 72.866318 83.0336 
L 73.677955 83.0336 
L 73.677955 58.469415 
L 72.866318 58.469415 
z
" style="fill:#ffffff;"/>
   </g>
   <g id="patch_38">
    <path clip-path="url(#p01f1f819f2)" d="M 73.677955 83.0336 
L 74.489591 83.0336 
L 74.489591 58.853231 
L 73.677955 58.853231 
z
" style="fill:#ffffff;"/>
   </g>
   <g id="patch_39">
    <path clip-path="url(#p01f1f819f2)" d="M 74.489591 83.0336 
L 75.301227 83.0336 
L 75.301227 57.701785 
L 74.489591 57.701785 
z
" style="fill:#ffffff;"/>
   </g>
   <g id="patch_40">
    <path clip-path="url(#p01f1f819f2)" d="M 75.301227 83.0336 
L 76.112864 83.0336 
L 76.112864 50.409292 
L 75.301227 50.409292 
z
" style="fill:#ffffff;"/>
   </g>
   <g id="patch_41">
    <path clip-path="url(#p01f1f819f2)" d="M 76.112864 83.0336 
L 76.9245 83.0336 
L 76.9245 54.055538 
L 76.112864 54.055538 
z
" style="fill:#ffffff;"/>
   </g>
   <g id="patch_42">
    <path clip-path="url(#p01f1f819f2)" d="M 76.9245 83.0336 
L 77.736136 83.0336 
L 77.736136 51.368831 
L 76.9245 51.368831 
z
" style="fill:#ffffff;"/>
   </g>
   <g id="patch_43">
    <path clip-path="url(#p01f1f819f2)" d="M 77.736136 83.0336 
L 78.547773 83.0336 
L 78.547773 53.863631 
L 77.736136 53.863631 
z
" style="fill:#ffffff;"/>
   </g>
   <g id="patch_44">
    <path clip-path="url(#p01f1f819f2)" d="M 78.547773 83.0336 
L 79.359409 83.0336 
L 79.359409 50.409292 
L 78.547773 50.409292 
z
" style="fill:#ffffff;"/>
   </g>
   <g id="patch_45">
    <path clip-path="url(#p01f1f819f2)" d="M 79.359409 83.0336 
L 80.171045 83.0336 
L 80.171045 48.874031 
L 79.359409 48.874031 
z
" style="fill:#ffffff;"/>
   </g>
   <g id="patch_46">
    <path clip-path="url(#p01f1f819f2)" d="M 80.171045 83.0336 
L 80.982682 83.0336 
L 80.982682 47.530677 
L 80.171045 47.530677 
z
" style="fill:#ffffff;"/>
   </g>
   <g id="patch_47">
    <path clip-path="url(#p01f1f819f2)" d="M 80.982682 83.0336 
L 81.794318 83.0336 
L 81.794318 47.530677 
L 80.982682 47.530677 
z
" style="fill:#ffffff;"/>
   </g>
   <g id="patch_48">
    <path clip-path="url(#p01f1f819f2)" d="M 81.794318 83.0336 
L 82.605955 83.0336 
L 82.605955 49.641662 
L 81.794318 49.641662 
z
" style="fill:#ffffff;"/>
   </g>
   <g id="patch_49">
    <path clip-path="url(#p01f1f819f2)" d="M 82.605955 83.0336 
L 83.417591 83.0336 
L 83.417591 45.227785 
L 82.605955 45.227785 
z
" style="fill:#ffffff;"/>
   </g>
   <g id="patch_50">
    <path clip-path="url(#p01f1f819f2)" d="M 83.417591 83.0336 
L 84.229227 83.0336 
L 84.229227 52.712185 
L 83.417591 52.712185 
z
" style="fill:#ffffff;"/>
   </g>
   <g id="patch_51">
    <path clip-path="url(#p01f1f819f2)" d="M 84.229227 83.0336 
L 85.040864 83.0336 
L 85.040864 44.460154 
L 84.229227 44.460154 
z
" style="fill:#ffffff;"/>
   </g>
   <g id="patch_52">
    <path clip-path="url(#p01f1f819f2)" d="M 85.040864 83.0336 
L 85.8525 83.0336 
L 85.8525 46.954954 
L 85.040864 46.954954 
z
" style="fill:#ffffff;"/>
   </g>
   <g id="patch_53">
    <path clip-path="url(#p01f1f819f2)" d="M 85.8525 83.0336 
L 86.664136 83.0336 
L 86.664136 48.1064 
L 85.8525 48.1064 
z
" style="fill:#ffffff;"/>
   </g>
   <g id="patch_54">
    <path clip-path="url(#p01f1f819f2)" d="M 86.664136 83.0336 
L 87.475773 83.0336 
L 87.475773 48.298308 
L 86.664136 48.298308 
z
" style="fill:#ffffff;"/>
   </g>
   <g id="patch_55">
    <path clip-path="url(#p01f1f819f2)" d="M 87.475773 83.0336 
L 88.287409 83.0336 
L 88.287409 51.944554 
L 87.475773 51.944554 
z
" style="fill:#ffffff;"/>
   </g>
   <g id="patch_56">
    <path clip-path="url(#p01f1f819f2)" d="M 88.287409 83.0336 
L 89.099045 83.0336 
L 89.099045 49.065938 
L 88.287409 49.065938 
z
" style="fill:#ffffff;"/>
   </g>
   <g id="patch_57">
    <path clip-path="url(#p01f1f819f2)" d="M 89.099045 83.0336 
L 89.910682 83.0336 
L 89.910682 49.065938 
L 89.099045 49.065938 
z
" style="fill:#ffffff;"/>
   </g>
   <g id="patch_58">
    <path clip-path="url(#p01f1f819f2)" d="M 89.910682 83.0336 
L 90.722318 83.0336 
L 90.722318 55.398892 
L 89.910682 55.398892 
z
" style="fill:#ffffff;"/>
   </g>
   <g id="patch_59">
    <path clip-path="url(#p01f1f819f2)" d="M 90.722318 83.0336 
L 91.533955 83.0336 
L 91.533955 51.176923 
L 90.722318 51.176923 
z
" style="fill:#ffffff;"/>
   </g>
   <g id="patch_60">
    <path clip-path="url(#p01f1f819f2)" d="M 91.533955 83.0336 
L 92.345591 83.0336 
L 92.345591 55.5908 
L 91.533955 55.5908 
z
" style="fill:#ffffff;"/>
   </g>
   <g id="patch_61">
    <path clip-path="url(#p01f1f819f2)" d="M 92.345591 83.0336 
L 93.157227 83.0336 
L 93.157227 60.388492 
L 92.345591 60.388492 
z
" style="fill:#ffffff;"/>
   </g>
   <g id="patch_62">
    <path clip-path="url(#p01f1f819f2)" d="M 93.157227 83.0336 
L 93.968864 83.0336 
L 93.968864 63.0752 
L 93.157227 63.0752 
z
" style="fill:#ffffff;"/>
   </g>
   <g id="patch_63">
    <path clip-path="url(#p01f1f819f2)" d="M 93.968864 83.0336 
L 94.7805 83.0336 
L 94.7805 59.045138 
L 93.968864 59.045138 
z
" style="fill:#ffffff;"/>
   </g>
   <g id="patch_64">
    <path clip-path="url(#p01f1f819f2)" d="M 94.7805 83.0336 
L 95.592136 83.0336 
L 95.592136 64.994277 
L 94.7805 64.994277 
z
" style="fill:#ffffff;"/>
   </g>
   <g id="patch_65">
    <path clip-path="url(#p01f1f819f2)" d="M 95.592136 83.0336 
L 96.403773 83.0336 
L 96.403773 64.994277 
L 95.592136 64.994277 
z
" style="fill:#ffffff;"/>
   </g>
   <g id="patch_66">
    <path clip-path="url(#p01f1f819f2)" d="M 96.403773 83.0336 
L 97.215409 83.0336 
L 97.215409 63.842831 
L 96.403773 63.842831 
z
" style="fill:#ffffff;"/>
   </g>
   <g id="patch_67">
    <path clip-path="url(#p01f1f819f2)" d="M 97.215409 83.0336 
L 98.027045 83.0336 
L 98.027045 68.256708 
L 97.215409 68.256708 
z
" style="fill:#ffffff;"/>
   </g>
   <g id="patch_68">
    <path clip-path="url(#p01f1f819f2)" d="M 98.027045 83.0336 
L 98.838682 83.0336 
L 98.838682 64.802369 
L 98.027045 64.802369 
z
" style="fill:#ffffff;"/>
   </g>
   <g id="patch_69">
    <path clip-path="url(#p01f1f819f2)" d="M 98.838682 83.0336 
L 99.650318 83.0336 
L 99.650318 70.367692 
L 98.838682 70.367692 
z
" style="fill:#ffffff;"/>
   </g>
   <g id="patch_70">
    <path clip-path="url(#p01f1f819f2)" d="M 99.650318 83.0336 
L 100.461955 83.0336 
L 100.461955 71.327231 
L 99.650318 71.327231 
z
" style="fill:#ffffff;"/>
   </g>
   <g id="patch_71">
    <path clip-path="url(#p01f1f819f2)" d="M 100.461955 83.0336 
L 101.273591 83.0336 
L 101.273591 70.943415 
L 100.461955 70.943415 
z
" style="fill:#ffffff;"/>
   </g>
   <g id="patch_72">
    <path clip-path="url(#p01f1f819f2)" d="M 101.273591 83.0336 
L 102.085227 83.0336 
L 102.085227 75.741108 
L 101.273591 75.741108 
z
" style="fill:#ffffff;"/>
   </g>
   <g id="patch_73">
    <path clip-path="url(#p01f1f819f2)" d="M 102.085227 83.0336 
L 102.896864 83.0336 
L 102.896864 76.316831 
L 102.085227 76.316831 
z
" style="fill:#ffffff;"/>
   </g>
   <g id="patch_74">
    <path clip-path="url(#p01f1f819f2)" d="M 102.896864 83.0336 
L 103.7085 83.0336 
L 103.7085 74.589662 
L 102.896864 74.589662 
z
" style="fill:#ffffff;"/>
   </g>
   <g id="patch_75">
    <path clip-path="url(#p01f1f819f2)" d="M 103.7085 83.0336 
L 104.520136 83.0336 
L 104.520136 75.741108 
L 103.7085 75.741108 
z
" style="fill:#ffffff;"/>
   </g>
   <g id="patch_76">
    <path clip-path="url(#p01f1f819f2)" d="M 104.520136 83.0336 
L 105.331773 83.0336 
L 105.331773 77.084462 
L 104.520136 77.084462 
z
" style="fill:#ffffff;"/>
   </g>
   <g id="patch_77">
    <path clip-path="url(#p01f1f819f2)" d="M 105.331773 83.0336 
L 106.143409 83.0336 
L 106.143409 77.276369 
L 105.331773 77.276369 
z
" style="fill:#ffffff;"/>
   </g>
   <g id="patch_78">
    <path clip-path="url(#p01f1f819f2)" d="M 106.143409 83.0336 
L 106.955045 83.0336 
L 106.955045 78.811631 
L 106.143409 78.811631 
z
" style="fill:#ffffff;"/>
   </g>
   <g id="patch_79">
    <path clip-path="url(#p01f1f819f2)" d="M 106.955045 83.0336 
L 107.766682 83.0336 
L 107.766682 79.579262 
L 106.955045 79.579262 
z
" style="fill:#ffffff;"/>
   </g>
   <g id="patch_80">
    <path clip-path="url(#p01f1f819f2)" d="M 107.766682 83.0336 
L 108.578318 83.0336 
L 108.578318 79.963077 
L 107.766682 79.963077 
z
" style="fill:#ffffff;"/>
   </g>
   <g id="patch_81">
    <path clip-path="url(#p01f1f819f2)" d="M 108.578318 83.0336 
L 109.389955 83.0336 
L 109.389955 81.306431 
L 108.578318 81.306431 
z
" style="fill:#ffffff;"/>
   </g>
   <g id="patch_82">
    <path clip-path="url(#p01f1f819f2)" d="M 109.389955 83.0336 
L 110.201591 83.0336 
L 110.201591 80.5388 
L 109.389955 80.5388 
z
" style="fill:#ffffff;"/>
   </g>
   <g id="patch_83">
    <path clip-path="url(#p01f1f819f2)" d="M 110.201591 83.0336 
L 111.013227 83.0336 
L 111.013227 81.114523 
L 110.201591 81.114523 
z
" style="fill:#ffffff;"/>
   </g>
   <g id="patch_84">
    <path clip-path="url(#p01f1f819f2)" d="M 111.013227 83.0336 
L 111.824864 83.0336 
L 111.824864 81.306431 
L 111.013227 81.306431 
z
" style="fill:#ffffff;"/>
   </g>
   <g id="patch_85">
    <path clip-path="url(#p01f1f819f2)" d="M 111.824864 83.0336 
L 112.6365 83.0336 
L 112.6365 81.498338 
L 111.824864 81.498338 
z
" style="fill:#ffffff;"/>
   </g>
   <g id="patch_86">
    <path clip-path="url(#p01f1f819f2)" d="M 112.6365 83.0336 
L 113.448136 83.0336 
L 113.448136 81.882154 
L 112.6365 81.882154 
z
" style="fill:#ffffff;"/>
   </g>
   <g id="patch_87">
    <path clip-path="url(#p01f1f819f2)" d="M 113.448136 83.0336 
L 114.259773 83.0336 
L 114.259773 82.841692 
L 113.448136 82.841692 
z
" style="fill:#ffffff;"/>
   </g>
   <g id="patch_88">
    <path clip-path="url(#p01f1f819f2)" d="M 114.259773 83.0336 
L 115.071409 83.0336 
L 115.071409 82.457877 
L 114.259773 82.457877 
z
" style="fill:#ffffff;"/>
   </g>
   <g id="patch_89">
    <path clip-path="url(#p01f1f819f2)" d="M 115.071409 83.0336 
L 115.883045 83.0336 
L 115.883045 82.074062 
L 115.071409 82.074062 
z
" style="fill:#ffffff;"/>
   </g>
   <g id="patch_90">
    <path clip-path="url(#p01f1f819f2)" d="M 115.883045 83.0336 
L 116.694682 83.0336 
L 116.694682 82.649785 
L 115.883045 82.649785 
z
" style="fill:#ffffff;"/>
   </g>
   <g id="patch_91">
    <path clip-path="url(#p01f1f819f2)" d="M 116.694682 83.0336 
L 117.506318 83.0336 
L 117.506318 82.649785 
L 116.694682 82.649785 
z
" style="fill:#ffffff;"/>
   </g>
   <g id="patch_92">
    <path clip-path="url(#p01f1f819f2)" d="M 117.506318 83.0336 
L 118.317955 83.0336 
L 118.317955 82.841692 
L 117.506318 82.841692 
z
" style="fill:#ffffff;"/>
   </g>
   <g id="patch_93">
    <path clip-path="url(#p01f1f819f2)" d="M 118.317955 83.0336 
L 119.129591 83.0336 
L 119.129591 82.841692 
L 118.317955 82.841692 
z
" style="fill:#ffffff;"/>
   </g>
   <g id="patch_94">
    <path clip-path="url(#p01f1f819f2)" d="M 119.129591 83.0336 
L 119.941227 83.0336 
L 119.941227 82.841692 
L 119.129591 82.841692 
z
" style="fill:#ffffff;"/>
   </g>
   <g id="patch_95">
    <path clip-path="url(#p01f1f819f2)" d="M 119.941227 83.0336 
L 120.752864 83.0336 
L 120.752864 83.0336 
L 119.941227 83.0336 
z
" style="fill:#ffffff;"/>
   </g>
   <g id="patch_96">
    <path clip-path="url(#p01f1f819f2)" d="M 120.752864 83.0336 
L 121.5645 83.0336 
L 121.5645 83.0336 
L 120.752864 83.0336 
z
" style="fill:#ffffff;"/>
   </g>
   <g id="patch_97">
    <path clip-path="url(#p01f1f819f2)" d="M 121.5645 83.0336 
L 122.376136 83.0336 
L 122.376136 82.841692 
L 121.5645 82.841692 
z
" style="fill:#ffffff;"/>
   </g>
   <g id="patch_98">
    <path clip-path="url(#p01f1f819f2)" d="M 122.376136 83.0336 
L 123.187773 83.0336 
L 123.187773 83.0336 
L 122.376136 83.0336 
z
" style="fill:#ffffff;"/>
   </g>
   <g id="patch_99">
    <path clip-path="url(#p01f1f819f2)" d="M 123.187773 83.0336 
L 123.999409 83.0336 
L 123.999409 83.0336 
L 123.187773 83.0336 
z
" style="fill:#ffffff;"/>
   </g>
   <g id="patch_100">
    <path clip-path="url(#p01f1f819f2)" d="M 123.999409 83.0336 
L 124.811045 83.0336 
L 124.811045 83.0336 
L 123.999409 83.0336 
z
" style="fill:#ffffff;"/>
   </g>
   <g id="patch_101">
    <path clip-path="url(#p01f1f819f2)" d="M 124.811045 83.0336 
L 125.622682 83.0336 
L 125.622682 83.0336 
L 124.811045 83.0336 
z
" style="fill:#ffffff;"/>
   </g>
   <g id="patch_102">
    <path clip-path="url(#p01f1f819f2)" d="M 125.622682 83.0336 
L 126.434318 83.0336 
L 126.434318 83.0336 
L 125.622682 83.0336 
z
" style="fill:#ffffff;"/>
   </g>
   <g id="patch_103">
    <path clip-path="url(#p01f1f819f2)" d="M 45.270682 83.0336 
L 46.082318 83.0336 
L 46.082318 83.0336 
L 45.270682 83.0336 
z
" style="fill:#ffffff;"/>
   </g>
   <g id="patch_104">
    <path clip-path="url(#p01f1f819f2)" d="M 46.082318 83.0336 
L 46.893955 83.0336 
L 46.893955 83.0336 
L 46.082318 83.0336 
z
" style="fill:#ffffff;"/>
   </g>
   <g id="patch_105">
    <path clip-path="url(#p01f1f819f2)" d="M 46.893955 83.0336 
L 47.705591 83.0336 
L 47.705591 83.0336 
L 46.893955 83.0336 
z
" style="fill:#ffffff;"/>
   </g>
   <g id="patch_106">
    <path clip-path="url(#p01f1f819f2)" d="M 47.705591 83.0336 
L 48.517227 83.0336 
L 48.517227 83.0336 
L 47.705591 83.0336 
z
" style="fill:#ffffff;"/>
   </g>
   <g id="patch_107">
    <path clip-path="url(#p01f1f819f2)" d="M 48.517227 83.0336 
L 49.328864 83.0336 
L 49.328864 83.0336 
L 48.517227 83.0336 
z
" style="fill:#ffffff;"/>
   </g>
   <g id="patch_108">
    <path clip-path="url(#p01f1f819f2)" d="M 49.328864 83.0336 
L 50.1405 83.0336 
L 50.1405 83.0336 
L 49.328864 83.0336 
z
" style="fill:#ffffff;"/>
   </g>
   <g id="patch_109">
    <path clip-path="url(#p01f1f819f2)" d="M 50.1405 83.0336 
L 50.952136 83.0336 
L 50.952136 83.0336 
L 50.1405 83.0336 
z
" style="fill:#ffffff;"/>
   </g>
   <g id="patch_110">
    <path clip-path="url(#p01f1f819f2)" d="M 50.952136 83.0336 
L 51.763773 83.0336 
L 51.763773 83.0336 
L 50.952136 83.0336 
z
" style="fill:#ffffff;"/>
   </g>
   <g id="patch_111">
    <path clip-path="url(#p01f1f819f2)" d="M 51.763773 83.0336 
L 52.575409 83.0336 
L 52.575409 83.0336 
L 51.763773 83.0336 
z
" style="fill:#ffffff;"/>
   </g>
   <g id="patch_112">
    <path clip-path="url(#p01f1f819f2)" d="M 52.575409 83.0336 
L 53.387045 83.0336 
L 53.387045 83.0336 
L 52.575409 83.0336 
z
" style="fill:#ffffff;"/>
   </g>
   <g id="patch_113">
    <path clip-path="url(#p01f1f819f2)" d="M 53.387045 83.0336 
L 54.198682 83.0336 
L 54.198682 83.0336 
L 53.387045 83.0336 
z
" style="fill:#ffffff;"/>
   </g>
   <g id="patch_114">
    <path clip-path="url(#p01f1f819f2)" d="M 54.198682 83.0336 
L 55.010318 83.0336 
L 55.010318 83.0336 
L 54.198682 83.0336 
z
" style="fill:#ffffff;"/>
   </g>
   <g id="patch_115">
    <path clip-path="url(#p01f1f819f2)" d="M 55.010318 83.0336 
L 55.821955 83.0336 
L 55.821955 83.0336 
L 55.010318 83.0336 
z
" style="fill:#ffffff;"/>
   </g>
   <g id="patch_116">
    <path clip-path="url(#p01f1f819f2)" d="M 55.821955 83.0336 
L 56.633591 83.0336 
L 56.633591 83.0336 
L 55.821955 83.0336 
z
" style="fill:#ffffff;"/>
   </g>
   <g id="patch_117">
    <path clip-path="url(#p01f1f819f2)" d="M 56.633591 83.0336 
L 57.445227 83.0336 
L 57.445227 83.0336 
L 56.633591 83.0336 
z
" style="fill:#ffffff;"/>
   </g>
   <g id="patch_118">
    <path clip-path="url(#p01f1f819f2)" d="M 57.445227 83.0336 
L 58.256864 83.0336 
L 58.256864 82.649785 
L 57.445227 82.649785 
z
" style="fill:#ffffff;"/>
   </g>
   <g id="patch_119">
    <path clip-path="url(#p01f1f819f2)" d="M 58.256864 83.0336 
L 59.0685 83.0336 
L 59.0685 83.0336 
L 58.256864 83.0336 
z
" style="fill:#ffffff;"/>
   </g>
   <g id="patch_120">
    <path clip-path="url(#p01f1f819f2)" d="M 59.0685 83.0336 
L 59.880136 83.0336 
L 59.880136 82.841692 
L 59.0685 82.841692 
z
" style="fill:#ffffff;"/>
   </g>
   <g id="patch_121">
    <path clip-path="url(#p01f1f819f2)" d="M 59.880136 83.0336 
L 60.691773 83.0336 
L 60.691773 81.882154 
L 59.880136 81.882154 
z
" style="fill:#ffffff;"/>
   </g>
   <g id="patch_122">
    <path clip-path="url(#p01f1f819f2)" d="M 60.691773 83.0336 
L 61.503409 83.0336 
L 61.503409 81.306431 
L 60.691773 81.306431 
z
" style="fill:#ffffff;"/>
   </g>
   <g id="patch_123">
    <path clip-path="url(#p01f1f819f2)" d="M 61.503409 83.0336 
L 62.315045 83.0336 
L 62.315045 81.306431 
L 61.503409 81.306431 
z
" style="fill:#ffffff;"/>
   </g>
   <g id="patch_124">
    <path clip-path="url(#p01f1f819f2)" d="M 62.315045 83.0336 
L 63.126682 83.0336 
L 63.126682 81.498338 
L 62.315045 81.498338 
z
" style="fill:#ffffff;"/>
   </g>
   <g id="patch_125">
    <path clip-path="url(#p01f1f819f2)" d="M 63.126682 83.0336 
L 63.938318 83.0336 
L 63.938318 79.387354 
L 63.126682 79.387354 
z
" style="fill:#ffffff;"/>
   </g>
   <g id="patch_126">
    <path clip-path="url(#p01f1f819f2)" d="M 63.938318 83.0336 
L 64.749955 83.0336 
L 64.749955 79.579262 
L 63.938318 79.579262 
z
" style="fill:#ffffff;"/>
   </g>
   <g id="patch_127">
    <path clip-path="url(#p01f1f819f2)" d="M 64.749955 83.0336 
L 65.561591 83.0336 
L 65.561591 77.468277 
L 64.749955 77.468277 
z
" style="fill:#ffffff;"/>
   </g>
   <g id="patch_128">
    <path clip-path="url(#p01f1f819f2)" d="M 65.561591 83.0336 
L 66.373227 83.0336 
L 66.373227 76.508738 
L 65.561591 76.508738 
z
" style="fill:#ffffff;"/>
   </g>
   <g id="patch_129">
    <path clip-path="url(#p01f1f819f2)" d="M 66.373227 83.0336 
L 67.184864 83.0336 
L 67.184864 75.5492 
L 66.373227 75.5492 
z
" style="fill:#ffffff;"/>
   </g>
   <g id="patch_130">
    <path clip-path="url(#p01f1f819f2)" d="M 67.184864 83.0336 
L 67.9965 83.0336 
L 67.9965 73.0544 
L 67.184864 73.0544 
z
" style="fill:#ffffff;"/>
   </g>
   <g id="patch_131">
    <path clip-path="url(#p01f1f819f2)" d="M 67.9965 83.0336 
L 68.808136 83.0336 
L 68.808136 71.327231 
L 67.9965 71.327231 
z
" style="fill:#ffffff;"/>
   </g>
   <g id="patch_132">
    <path clip-path="url(#p01f1f819f2)" d="M 68.808136 83.0336 
L 69.619773 83.0336 
L 69.619773 70.943415 
L 68.808136 70.943415 
z
" style="fill:#ffffff;"/>
   </g>
   <g id="patch_133">
    <path clip-path="url(#p01f1f819f2)" d="M 69.619773 83.0336 
L 70.431409 83.0336 
L 70.431409 67.105262 
L 69.619773 67.105262 
z
" style="fill:#ffffff;"/>
   </g>
   <g id="patch_134">
    <path clip-path="url(#p01f1f819f2)" d="M 70.431409 83.0336 
L 71.243045 83.0336 
L 71.243045 65.953815 
L 70.431409 65.953815 
z
" style="fill:#ffffff;"/>
   </g>
   <g id="patch_135">
    <path clip-path="url(#p01f1f819f2)" d="M 71.243045 83.0336 
L 72.054682 83.0336 
L 72.054682 64.994277 
L 71.243045 64.994277 
z
" style="fill:#ffffff;"/>
   </g>
   <g id="patch_136">
    <path clip-path="url(#p01f1f819f2)" d="M 72.054682 83.0336 
L 72.866318 83.0336 
L 72.866318 62.499477 
L 72.054682 62.499477 
z
" style="fill:#ffffff;"/>
   </g>
   <g id="patch_137">
    <path clip-path="url(#p01f1f819f2)" d="M 72.866318 83.0336 
L 73.677955 83.0336 
L 73.677955 59.428954 
L 72.866318 59.428954 
z
" style="fill:#ffffff;"/>
   </g>
   <g id="patch_138">
    <path clip-path="url(#p01f1f819f2)" d="M 73.677955 83.0336 
L 74.489591 83.0336 
L 74.489591 55.782708 
L 73.677955 55.782708 
z
" style="fill:#ffffff;"/>
   </g>
   <g id="patch_139">
    <path clip-path="url(#p01f1f819f2)" d="M 74.489591 83.0336 
L 75.301227 83.0336 
L 75.301227 61.731846 
L 74.489591 61.731846 
z
" style="fill:#ffffff;"/>
   </g>
   <g id="patch_140">
    <path clip-path="url(#p01f1f819f2)" d="M 75.301227 83.0336 
L 76.112864 83.0336 
L 76.112864 51.944554 
L 75.301227 51.944554 
z
" style="fill:#ffffff;"/>
   </g>
   <g id="patch_141">
    <path clip-path="url(#p01f1f819f2)" d="M 76.112864 83.0336 
L 76.9245 83.0336 
L 76.9245 56.358431 
L 76.112864 56.358431 
z
" style="fill:#ffffff;"/>
   </g>
   <g id="patch_142">
    <path clip-path="url(#p01f1f819f2)" d="M 76.9245 83.0336 
L 77.736136 83.0336 
L 77.736136 54.439354 
L 76.9245 54.439354 
z
" style="fill:#ffffff;"/>
   </g>
   <g id="patch_143">
    <path clip-path="url(#p01f1f819f2)" d="M 77.736136 83.0336 
L 78.547773 83.0336 
L 78.547773 53.479815 
L 77.736136 53.479815 
z
" style="fill:#ffffff;"/>
   </g>
   <g id="patch_144">
    <path clip-path="url(#p01f1f819f2)" d="M 78.547773 83.0336 
L 79.359409 83.0336 
L 79.359409 49.257846 
L 78.547773 49.257846 
z
" style="fill:#ffffff;"/>
   </g>
   <g id="patch_145">
    <path clip-path="url(#p01f1f819f2)" d="M 79.359409 83.0336 
L 80.171045 83.0336 
L 80.171045 51.944554 
L 79.359409 51.944554 
z
" style="fill:#ffffff;"/>
   </g>
   <g id="patch_146">
    <path clip-path="url(#p01f1f819f2)" d="M 80.171045 83.0336 
L 80.982682 83.0336 
L 80.982682 50.793108 
L 80.171045 50.793108 
z
" style="fill:#ffffff;"/>
   </g>
   <g id="patch_147">
    <path clip-path="url(#p01f1f819f2)" d="M 80.982682 83.0336 
L 81.794318 83.0336 
L 81.794318 47.338769 
L 80.982682 47.338769 
z
" style="fill:#ffffff;"/>
   </g>
   <g id="patch_148">
    <path clip-path="url(#p01f1f819f2)" d="M 81.794318 83.0336 
L 82.605955 83.0336 
L 82.605955 47.722585 
L 81.794318 47.722585 
z
" style="fill:#ffffff;"/>
   </g>
   <g id="patch_149">
    <path clip-path="url(#p01f1f819f2)" d="M 82.605955 83.0336 
L 83.417591 83.0336 
L 83.417591 43.308708 
L 82.605955 43.308708 
z
" style="fill:#ffffff;"/>
   </g>
   <g id="patch_150">
    <path clip-path="url(#p01f1f819f2)" d="M 83.417591 83.0336 
L 84.229227 83.0336 
L 84.229227 49.065938 
L 83.417591 49.065938 
z
" style="fill:#ffffff;"/>
   </g>
   <g id="patch_151">
    <path clip-path="url(#p01f1f819f2)" d="M 84.229227 83.0336 
L 85.040864 83.0336 
L 85.040864 46.954954 
L 84.229227 46.954954 
z
" style="fill:#ffffff;"/>
   </g>
   <g id="patch_152">
    <path clip-path="url(#p01f1f819f2)" d="M 85.040864 83.0336 
L 85.8525 83.0336 
L 85.8525 47.338769 
L 85.040864 47.338769 
z
" style="fill:#ffffff;"/>
   </g>
   <g id="patch_153">
    <path clip-path="url(#p01f1f819f2)" d="M 85.8525 83.0336 
L 86.664136 83.0336 
L 86.664136 47.722585 
L 85.8525 47.722585 
z
" style="fill:#ffffff;"/>
   </g>
   <g id="patch_154">
    <path clip-path="url(#p01f1f819f2)" d="M 86.664136 83.0336 
L 87.475773 83.0336 
L 87.475773 48.874031 
L 86.664136 48.874031 
z
" style="fill:#ffffff;"/>
   </g>
   <g id="patch_155">
    <path clip-path="url(#p01f1f819f2)" d="M 87.475773 83.0336 
L 88.287409 83.0336 
L 88.287409 50.217385 
L 87.475773 50.217385 
z
" style="fill:#ffffff;"/>
   </g>
   <g id="patch_156">
    <path clip-path="url(#p01f1f819f2)" d="M 88.287409 83.0336 
L 89.099045 83.0336 
L 89.099045 50.217385 
L 88.287409 50.217385 
z
" style="fill:#ffffff;"/>
   </g>
   <g id="patch_157">
    <path clip-path="url(#p01f1f819f2)" d="M 89.099045 83.0336 
L 89.910682 83.0336 
L 89.910682 49.065938 
L 89.099045 49.065938 
z
" style="fill:#ffffff;"/>
   </g>
   <g id="patch_158">
    <path clip-path="url(#p01f1f819f2)" d="M 89.910682 83.0336 
L 90.722318 83.0336 
L 90.722318 55.782708 
L 89.910682 55.782708 
z
" style="fill:#ffffff;"/>
   </g>
   <g id="patch_159">
    <path clip-path="url(#p01f1f819f2)" d="M 90.722318 83.0336 
L 91.533955 83.0336 
L 91.533955 48.682123 
L 90.722318 48.682123 
z
" style="fill:#ffffff;"/>
   </g>
   <g id="patch_160">
    <path clip-path="url(#p01f1f819f2)" d="M 91.533955 83.0336 
L 92.345591 83.0336 
L 92.345591 58.277508 
L 91.533955 58.277508 
z
" style="fill:#ffffff;"/>
   </g>
   <g id="patch_161">
    <path clip-path="url(#p01f1f819f2)" d="M 92.345591 83.0336 
L 93.157227 83.0336 
L 93.157227 60.388492 
L 92.345591 60.388492 
z
" style="fill:#ffffff;"/>
   </g>
   <g id="patch_162">
    <path clip-path="url(#p01f1f819f2)" d="M 93.157227 83.0336 
L 93.968864 83.0336 
L 93.968864 58.661323 
L 93.157227 58.661323 
z
" style="fill:#ffffff;"/>
   </g>
   <g id="patch_163">
    <path clip-path="url(#p01f1f819f2)" d="M 93.968864 83.0336 
L 94.7805 83.0336 
L 94.7805 56.358431 
L 93.968864 56.358431 
z
" style="fill:#ffffff;"/>
   </g>
   <g id="patch_164">
    <path clip-path="url(#p01f1f819f2)" d="M 94.7805 83.0336 
L 95.592136 83.0336 
L 95.592136 63.267108 
L 94.7805 63.267108 
z
" style="fill:#ffffff;"/>
   </g>
   <g id="patch_165">
    <path clip-path="url(#p01f1f819f2)" d="M 95.592136 83.0336 
L 96.403773 83.0336 
L 96.403773 62.115662 
L 95.592136 62.115662 
z
" style="fill:#ffffff;"/>
   </g>
   <g id="patch_166">
    <path clip-path="url(#p01f1f819f2)" d="M 96.403773 83.0336 
L 97.215409 83.0336 
L 97.215409 61.156123 
L 96.403773 61.156123 
z
" style="fill:#ffffff;"/>
   </g>
   <g id="patch_167">
    <path clip-path="url(#p01f1f819f2)" d="M 97.215409 83.0336 
L 98.027045 83.0336 
L 98.027045 66.337631 
L 97.215409 66.337631 
z
" style="fill:#ffffff;"/>
   </g>
   <g id="patch_168">
    <path clip-path="url(#p01f1f819f2)" d="M 98.027045 83.0336 
L 98.838682 83.0336 
L 98.838682 65.186185 
L 98.027045 65.186185 
z
" style="fill:#ffffff;"/>
   </g>
   <g id="patch_169">
    <path clip-path="url(#p01f1f819f2)" d="M 98.838682 83.0336 
L 99.650318 83.0336 
L 99.650318 68.0648 
L 98.838682 68.0648 
z
" style="fill:#ffffff;"/>
   </g>
   <g id="patch_170">
    <path clip-path="url(#p01f1f819f2)" d="M 99.650318 83.0336 
L 100.461955 83.0336 
L 100.461955 71.519138 
L 99.650318 71.519138 
z
" style="fill:#ffffff;"/>
   </g>
   <g id="patch_171">
    <path clip-path="url(#p01f1f819f2)" d="M 100.461955 83.0336 
L 101.273591 83.0336 
L 101.273591 71.902954 
L 100.461955 71.902954 
z
" style="fill:#ffffff;"/>
   </g>
   <g id="patch_172">
    <path clip-path="url(#p01f1f819f2)" d="M 101.273591 83.0336 
L 102.085227 83.0336 
L 102.085227 72.478677 
L 101.273591 72.478677 
z
" style="fill:#ffffff;"/>
   </g>
   <g id="patch_173">
    <path clip-path="url(#p01f1f819f2)" d="M 102.085227 83.0336 
L 102.896864 83.0336 
L 102.896864 75.357292 
L 102.085227 75.357292 
z
" style="fill:#ffffff;"/>
   </g>
   <g id="patch_174">
    <path clip-path="url(#p01f1f819f2)" d="M 102.896864 83.0336 
L 103.7085 83.0336 
L 103.7085 75.741108 
L 102.896864 75.741108 
z
" style="fill:#ffffff;"/>
   </g>
   <g id="patch_175">
    <path clip-path="url(#p01f1f819f2)" d="M 103.7085 83.0336 
L 104.520136 83.0336 
L 104.520136 74.205846 
L 103.7085 74.205846 
z
" style="fill:#ffffff;"/>
   </g>
   <g id="patch_176">
    <path clip-path="url(#p01f1f819f2)" d="M 104.520136 83.0336 
L 105.331773 83.0336 
L 105.331773 76.316831 
L 104.520136 76.316831 
z
" style="fill:#ffffff;"/>
   </g>
   <g id="patch_177">
    <path clip-path="url(#p01f1f819f2)" d="M 105.331773 83.0336 
L 106.143409 83.0336 
L 106.143409 77.852092 
L 105.331773 77.852092 
z
" style="fill:#ffffff;"/>
   </g>
   <g id="patch_178">
    <path clip-path="url(#p01f1f819f2)" d="M 106.143409 83.0336 
L 106.955045 83.0336 
L 106.955045 78.619723 
L 106.143409 78.619723 
z
" style="fill:#ffffff;"/>
   </g>
   <g id="patch_179">
    <path clip-path="url(#p01f1f819f2)" d="M 106.955045 83.0336 
L 107.766682 83.0336 
L 107.766682 79.003538 
L 106.955045 79.003538 
z
" style="fill:#ffffff;"/>
   </g>
   <g id="patch_180">
    <path clip-path="url(#p01f1f819f2)" d="M 107.766682 83.0336 
L 108.578318 83.0336 
L 108.578318 80.346892 
L 107.766682 80.346892 
z
" style="fill:#ffffff;"/>
   </g>
   <g id="patch_181">
    <path clip-path="url(#p01f1f819f2)" d="M 108.578318 83.0336 
L 109.389955 83.0336 
L 109.389955 81.690246 
L 108.578318 81.690246 
z
" style="fill:#ffffff;"/>
   </g>
   <g id="patch_182">
    <path clip-path="url(#p01f1f819f2)" d="M 109.389955 83.0336 
L 110.201591 83.0336 
L 110.201591 80.730708 
L 109.389955 80.730708 
z
" style="fill:#ffffff;"/>
   </g>
   <g id="patch_183">
    <path clip-path="url(#p01f1f819f2)" d="M 110.201591 83.0336 
L 111.013227 83.0336 
L 111.013227 80.5388 
L 110.201591 80.5388 
z
" style="fill:#ffffff;"/>
   </g>
   <g id="patch_184">
    <path clip-path="url(#p01f1f819f2)" d="M 111.013227 83.0336 
L 111.824864 83.0336 
L 111.824864 80.922615 
L 111.013227 80.922615 
z
" style="fill:#ffffff;"/>
   </g>
   <g id="patch_185">
    <path clip-path="url(#p01f1f819f2)" d="M 111.824864 83.0336 
L 112.6365 83.0336 
L 112.6365 81.690246 
L 111.824864 81.690246 
z
" style="fill:#ffffff;"/>
   </g>
   <g id="patch_186">
    <path clip-path="url(#p01f1f819f2)" d="M 112.6365 83.0336 
L 113.448136 83.0336 
L 113.448136 82.074062 
L 112.6365 82.074062 
z
" style="fill:#ffffff;"/>
   </g>
   <g id="patch_187">
    <path clip-path="url(#p01f1f819f2)" d="M 113.448136 83.0336 
L 114.259773 83.0336 
L 114.259773 82.841692 
L 113.448136 82.841692 
z
" style="fill:#ffffff;"/>
   </g>
   <g id="patch_188">
    <path clip-path="url(#p01f1f819f2)" d="M 114.259773 83.0336 
L 115.071409 83.0336 
L 115.071409 81.882154 
L 114.259773 81.882154 
z
" style="fill:#ffffff;"/>
   </g>
   <g id="patch_189">
    <path clip-path="url(#p01f1f819f2)" d="M 115.071409 83.0336 
L 115.883045 83.0336 
L 115.883045 82.074062 
L 115.071409 82.074062 
z
" style="fill:#ffffff;"/>
   </g>
   <g id="patch_190">
    <path clip-path="url(#p01f1f819f2)" d="M 115.883045 83.0336 
L 116.694682 83.0336 
L 116.694682 82.649785 
L 115.883045 82.649785 
z
" style="fill:#ffffff;"/>
   </g>
   <g id="patch_191">
    <path clip-path="url(#p01f1f819f2)" d="M 116.694682 83.0336 
L 117.506318 83.0336 
L 117.506318 82.649785 
L 116.694682 82.649785 
z
" style="fill:#ffffff;"/>
   </g>
   <g id="patch_192">
    <path clip-path="url(#p01f1f819f2)" d="M 117.506318 83.0336 
L 118.317955 83.0336 
L 118.317955 82.649785 
L 117.506318 82.649785 
z
" style="fill:#ffffff;"/>
   </g>
   <g id="patch_193">
    <path clip-path="url(#p01f1f819f2)" d="M 118.317955 83.0336 
L 119.129591 83.0336 
L 119.129591 82.649785 
L 118.317955 82.649785 
z
" style="fill:#ffffff;"/>
   </g>
   <g id="patch_194">
    <path clip-path="url(#p01f1f819f2)" d="M 119.129591 83.0336 
L 119.941227 83.0336 
L 119.941227 82.841692 
L 119.129591 82.841692 
z
" style="fill:#ffffff;"/>
   </g>
   <g id="patch_195">
    <path clip-path="url(#p01f1f819f2)" d="M 119.941227 83.0336 
L 120.752864 83.0336 
L 120.752864 83.0336 
L 119.941227 83.0336 
z
" style="fill:#ffffff;"/>
   </g>
   <g id="patch_196">
    <path clip-path="url(#p01f1f819f2)" d="M 120.752864 83.0336 
L 121.5645 83.0336 
L 121.5645 83.0336 
L 120.752864 83.0336 
z
" style="fill:#ffffff;"/>
   </g>
   <g id="patch_197">
    <path clip-path="url(#p01f1f819f2)" d="M 121.5645 83.0336 
L 122.376136 83.0336 
L 122.376136 82.649785 
L 121.5645 82.649785 
z
" style="fill:#ffffff;"/>
   </g>
   <g id="patch_198">
    <path clip-path="url(#p01f1f819f2)" d="M 122.376136 83.0336 
L 123.187773 83.0336 
L 123.187773 83.0336 
L 122.376136 83.0336 
z
" style="fill:#ffffff;"/>
   </g>
   <g id="patch_199">
    <path clip-path="url(#p01f1f819f2)" d="M 123.187773 83.0336 
L 123.999409 83.0336 
L 123.999409 83.0336 
L 123.187773 83.0336 
z
" style="fill:#ffffff;"/>
   </g>
   <g id="patch_200">
    <path clip-path="url(#p01f1f819f2)" d="M 123.999409 83.0336 
L 124.811045 83.0336 
L 124.811045 83.0336 
L 123.999409 83.0336 
z
" style="fill:#ffffff;"/>
   </g>
   <g id="patch_201">
    <path clip-path="url(#p01f1f819f2)" d="M 124.811045 83.0336 
L 125.622682 83.0336 
L 125.622682 83.0336 
L 124.811045 83.0336 
z
" style="fill:#ffffff;"/>
   </g>
   <g id="patch_202">
    <path clip-path="url(#p01f1f819f2)" d="M 125.622682 83.0336 
L 126.434318 83.0336 
L 126.434318 83.0336 
L 125.622682 83.0336 
z
" style="fill:#ffffff;"/>
   </g>
   <g id="matplotlib.axis_1">
    <g id="xtick_1">
     <g id="line2d_1">
      <defs>
       <path d="M 0 0 
L 0 3.5 
" id="m6f3674be07" style="stroke:#000000;stroke-width:1.5;"/>
      </defs>
      <g>
       <use style="stroke:#000000;stroke-width:1.5;" x="45.270682" xlink:href="#m6f3674be07" y="83.0336"/>
      </g>
     </g>
     <g id="text_1">
      <text style="font-family:DejaVu Sans;font-size:8px;font-stretch:normal;font-style:normal;font-weight:normal;text-anchor:middle;" transform="rotate(-0, 45.270682, 96.11235)" x="45.270682" y="96.11235">0</text>
     </g>
    </g>
    <g id="xtick_2">
     <g id="line2d_2">
      <g>
       <use style="stroke:#000000;stroke-width:1.5;" x="99.379773" xlink:href="#m6f3674be07" y="83.0336"/>
      </g>
     </g>
     <g id="text_2">
      <text style="font-family:DejaVu Sans;font-size:8px;font-stretch:normal;font-style:normal;font-weight:normal;text-anchor:middle;" transform="rotate(-0, 99.379773, 96.11235)" x="99.379773" y="96.11235">20</text>
     </g>
    </g>
    <g id="text_3">
     <!-- Energy at 11°C ($\mu J/s$) -->
     <g transform="translate(43.7725 107.8561)">
      <text>
       <tspan style="font-family:DejaVu Sans;font-size:8px;font-style:book;font-weight:book;" x="0 5.054688 10.125 15.046875 18.335938 23.414062 28.148438 30.691406 35.59375 38.730469 41.273438 46.363281 51.453125 55.453125 61.039062 63.582031 66.703125 71.792969 74.152344 76.847656 81.015625" y="-0.921875">Energy at 11°C (μJ/s)</tspan>
      </text>
     </g>
    </g>
   </g>
   <g id="matplotlib.axis_2">
    <g id="ytick_1">
     <g id="line2d_3">
      <defs>
       <path d="M 0 0 
L -3.5 0 
" id="mb0caf5d074" style="stroke:#000000;stroke-width:1.5;"/>
      </defs>
      <g>
       <use style="stroke:#000000;stroke-width:1.5;" x="41.2125" xlink:href="#mb0caf5d074" y="83.0336"/>
      </g>
     </g>
     <g id="text_4">
      <text style="font-family:DejaVu Sans;font-size:8px;font-stretch:normal;font-style:normal;font-weight:normal;text-anchor:end;" transform="rotate(-0, 34.2125, 86.072975)" x="34.2125" y="86.072975">0</text>
     </g>
    </g>
    <g id="ytick_2">
     <g id="line2d_4">
      <g>
       <use style="stroke:#000000;stroke-width:1.5;" x="41.2125" xlink:href="#mb0caf5d074" y="63.842831"/>
      </g>
     </g>
     <g id="text_5">
      <text style="font-family:DejaVu Sans;font-size:8px;font-stretch:normal;font-style:normal;font-weight:normal;text-anchor:end;" transform="rotate(-0, 34.2125, 66.882206)" x="34.2125" y="66.882206">100</text>
     </g>
    </g>
    <g id="ytick_3">
     <g id="line2d_5">
      <g>
       <use style="stroke:#000000;stroke-width:1.5;" x="41.2125" xlink:href="#mb0caf5d074" y="44.652062"/>
      </g>
     </g>
     <g id="text_6">
      <text style="font-family:DejaVu Sans;font-size:8px;font-stretch:normal;font-style:normal;font-weight:normal;text-anchor:end;" transform="rotate(-0, 34.2125, 47.691437)" x="34.2125" y="47.691437">200</text>
     </g>
    </g>
    <g id="text_7">
     <text style="font-family:DejaVu Sans;font-size:8px;font-stretch:normal;font-style:normal;font-weight:normal;text-anchor:middle;" transform="rotate(-90, 13.27875, 58.0856)" x="13.27875" y="58.0856">Count</text>
    </g>
   </g>
   <g id="line2d_6">
    <path clip-path="url(#p01f1f819f2)" d="M 45.6765 83.0336 
L 46.488136 83.0336 
L 47.299773 83.0336 
L 48.111409 83.0336 
L 48.923045 83.0336 
L 49.734682 83.0336 
L 50.546318 83.0336 
L 51.357955 83.0336 
L 52.169591 83.0336 
L 52.981227 83.0336 
L 53.792864 83.0336 
L 54.6045 83.0336 
L 55.416136 83.0336 
L 56.227773 82.841692 
L 57.039409 83.0336 
L 57.851045 82.649785 
L 58.662682 82.649785 
L 59.474318 82.457877 
L 60.285955 82.265969 
L 61.097591 82.074062 
L 61.909227 80.730708 
L 62.720864 80.346892 
L 63.5325 79.771169 
L 64.344136 78.427815 
L 65.155773 77.084462 
L 65.967409 75.165385 
L 66.779045 73.0544 
L 67.590682 70.751508 
L 68.402318 69.408154 
L 69.213955 69.408154 
L 70.025591 65.57 
L 70.837227 66.145723 
L 71.648864 63.459015 
L 72.4605 63.267108 
L 73.272136 58.469415 
L 74.083773 58.853231 
L 74.895409 57.701785 
L 75.707045 50.409292 
L 76.518682 54.055538 
L 77.330318 51.368831 
L 78.141955 53.863631 
L 78.953591 50.409292 
L 79.765227 48.874031 
L 80.576864 47.530677 
L 81.3885 47.530677 
L 82.200136 49.641662 
L 83.011773 45.227785 
L 83.823409 52.712185 
L 84.635045 44.460154 
L 85.446682 46.954954 
L 86.258318 48.1064 
L 87.069955 48.298308 
L 87.881591 51.944554 
L 88.693227 49.065938 
L 89.504864 49.065938 
L 90.3165 55.398892 
L 91.128136 51.176923 
L 91.939773 55.5908 
L 92.751409 60.388492 
L 93.563045 63.0752 
L 94.374682 59.045138 
L 95.186318 64.994277 
L 95.997955 64.994277 
L 96.809591 63.842831 
L 97.621227 68.256708 
L 98.432864 64.802369 
L 99.2445 70.367692 
L 100.056136 71.327231 
L 100.867773 70.943415 
L 101.679409 75.741108 
L 102.491045 76.316831 
L 103.302682 74.589662 
L 104.114318 75.741108 
L 104.925955 77.084462 
L 105.737591 77.276369 
L 106.549227 78.811631 
L 107.360864 79.579262 
L 108.1725 79.963077 
L 108.984136 81.306431 
L 109.795773 80.5388 
L 110.607409 81.114523 
L 111.419045 81.306431 
L 112.230682 81.498338 
L 113.042318 81.882154 
L 113.853955 82.841692 
L 114.665591 82.457877 
L 115.477227 82.074062 
L 116.288864 82.649785 
L 117.1005 82.649785 
L 117.912136 82.841692 
L 118.723773 82.841692 
L 119.535409 82.841692 
L 120.347045 83.0336 
L 121.158682 83.0336 
L 121.970318 82.841692 
L 122.781955 83.0336 
L 123.593591 83.0336 
L 124.405227 83.0336 
L 125.216864 83.0336 
L 126.0285 83.0336 
" style="fill:none;stroke:#1b7837;stroke-linecap:square;stroke-width:1.5;"/>
   </g>
   <g id="line2d_7">
    <path clip-path="url(#p01f1f819f2)" d="M 45.6765 83.0336 
L 46.488136 83.0336 
L 47.299773 83.0336 
L 48.111409 83.0336 
L 48.923045 83.0336 
L 49.734682 83.0336 
L 50.546318 83.0336 
L 51.357955 83.0336 
L 52.169591 83.0336 
L 52.981227 83.0336 
L 53.792864 83.0336 
L 54.6045 83.0336 
L 55.416136 83.0336 
L 56.227773 83.0336 
L 57.039409 83.0336 
L 57.851045 82.649785 
L 58.662682 83.0336 
L 59.474318 82.841692 
L 60.285955 81.882154 
L 61.097591 81.306431 
L 61.909227 81.306431 
L 62.720864 81.498338 
L 63.5325 79.387354 
L 64.344136 79.579262 
L 65.155773 77.468277 
L 65.967409 76.508738 
L 66.779045 75.5492 
L 67.590682 73.0544 
L 68.402318 71.327231 
L 69.213955 70.943415 
L 70.025591 67.105262 
L 70.837227 65.953815 
L 71.648864 64.994277 
L 72.4605 62.499477 
L 73.272136 59.428954 
L 74.083773 55.782708 
L 74.895409 61.731846 
L 75.707045 51.944554 
L 76.518682 56.358431 
L 77.330318 54.439354 
L 78.141955 53.479815 
L 78.953591 49.257846 
L 79.765227 51.944554 
L 80.576864 50.793108 
L 81.3885 47.338769 
L 82.200136 47.722585 
L 83.011773 43.308708 
L 83.823409 49.065938 
L 84.635045 46.954954 
L 85.446682 47.338769 
L 86.258318 47.722585 
L 87.069955 48.874031 
L 87.881591 50.217385 
L 88.693227 50.217385 
L 89.504864 49.065938 
L 90.3165 55.782708 
L 91.128136 48.682123 
L 91.939773 58.277508 
L 92.751409 60.388492 
L 93.563045 58.661323 
L 94.374682 56.358431 
L 95.186318 63.267108 
L 95.997955 62.115662 
L 96.809591 61.156123 
L 97.621227 66.337631 
L 98.432864 65.186185 
L 99.2445 68.0648 
L 100.056136 71.519138 
L 100.867773 71.902954 
L 101.679409 72.478677 
L 102.491045 75.357292 
L 103.302682 75.741108 
L 104.114318 74.205846 
L 104.925955 76.316831 
L 105.737591 77.852092 
L 106.549227 78.619723 
L 107.360864 79.003538 
L 108.1725 80.346892 
L 108.984136 81.690246 
L 109.795773 80.730708 
L 110.607409 80.5388 
L 111.419045 80.922615 
L 112.230682 81.690246 
L 113.042318 82.074062 
L 113.853955 82.841692 
L 114.665591 81.882154 
L 115.477227 82.074062 
L 116.288864 82.649785 
L 117.1005 82.649785 
L 117.912136 82.649785 
L 118.723773 82.649785 
L 119.535409 82.841692 
L 120.347045 83.0336 
L 121.158682 83.0336 
L 121.970318 82.649785 
L 122.781955 83.0336 
L 123.593591 83.0336 
L 124.405227 83.0336 
L 125.216864 83.0336 
L 126.0285 83.0336 
" style="fill:none;stroke:#762a83;stroke-linecap:square;stroke-width:1.5;"/>
   </g>
   <g id="patch_203">
    <path d="M 41.2125 83.0336 
L 41.2125 33.1376 
" style="fill:none;stroke:#000000;stroke-linecap:square;stroke-linejoin:miter;stroke-width:1.5;"/>
   </g>
   <g id="patch_204">
    <path d="M 41.2125 83.0336 
L 130.4925 83.0336 
" style="fill:none;stroke:#000000;stroke-linecap:square;stroke-linejoin:miter;stroke-width:1.5;"/>
   </g>
   <g id="legend_1">
    <g id="line2d_8">
     <path d="M 47.76125 13.67875 
L 54.16125 13.67875 
" style="fill:none;stroke:#1b7837;stroke-linecap:square;stroke-width:1.5;"/>
    </g>
    <g id="line2d_9"/>
    <g id="text_8">
     <text style="font-family:DejaVu Sans;font-size:8px;font-stretch:normal;font-style:normal;font-weight:normal;text-anchor:start;" transform="rotate(-0, 56.56125, 16.47875)" x="56.56125" y="16.47875">Fitted at 11°C</text>
    </g>
    <g id="line2d_10">
     <path d="M 47.76125 30.73225 
L 54.16125 30.73225 
" style="fill:none;stroke:#762a83;stroke-linecap:square;stroke-width:1.5;"/>
    </g>
    <g id="line2d_11"/>
    <g id="text_9">
     <text style="font-family:DejaVu Sans;font-size:8px;font-stretch:normal;font-style:normal;font-weight:normal;" transform="translate(56.56125 28.22125)">Fitted at 11°C &amp; </text>
     <text style="font-family:DejaVu Sans;font-size:8px;font-stretch:normal;font-style:normal;font-weight:normal;" transform="translate(56.56125 37.1795)">robust at 27°C</text>
    </g>
   </g>
  </g>
 </g>
 <defs>
  <clipPath id="p01f1f819f2">
   <rect height="49.896" width="89.28" x="41.2125" y="33.1376"/>
  </clipPath>
 </defs>
</svg>
