<?xml version="1.0" encoding="utf-8" standalone="no"?>
<!DOCTYPE svg PUBLIC "-//W3C//DTD SVG 1.1//EN"
  "http://www.w3.org/Graphics/SVG/1.1/DTD/svg11.dtd">
<!-- Created with matplotlib (https://matplotlib.org/) -->
<svg height="87.467375pt" version="1.1" viewBox="0 0 278.80625 87.467375" width="278.80625pt" xmlns="http://www.w3.org/2000/svg" xmlns:xlink="http://www.w3.org/1999/xlink">
 <metadata>
  <rdf:RDF xmlns:cc="http://creativecommons.org/ns#" xmlns:dc="http://purl.org/dc/elements/1.1/" xmlns:rdf="http://www.w3.org/1999/02/22-rdf-syntax-ns#">
   <cc:Work>
    <dc:type rdf:resource="http://purl.org/dc/dcmitype/StillImage"/>
    <dc:date>2020-10-15T12:03:29.885021</dc:date>
    <dc:format>image/svg+xml</dc:format>
    <dc:creator>
     <cc:Agent>
      <dc:title>Matplotlib v3.3.2, https://matplotlib.org/</dc:title>
     </cc:Agent>
    </dc:creator>
   </cc:Work>
  </rdf:RDF>
 </metadata>
 <defs>
  <style type="text/css">*{stroke-linecap:butt;stroke-linejoin:round;}</style>
 </defs>
 <g id="figure_1">
  <g id="patch_1">
   <path d="M 0 87.467375 
L 278.80625 87.467375 
L 278.80625 0 
L 0 0 
z
" style="fill:none;"/>
  </g>
  <g id="axes_1">
   <g id="patch_2">
    <path d="M 42.82625 76.767375 
L 142.295815 76.767375 
L 142.295815 10.239375 
L 42.82625 10.239375 
z
" style="fill:none;"/>
   </g>
   <g id="matplotlib.axis_1"/>
   <g id="matplotlib.axis_2">
    <g id="ytick_1">
     <g id="line2d_1">
      <defs>
       <path d="M 0 0 
L -3.5 0 
" id="mc79e7a5f7b" style="stroke:#000000;stroke-width:1.5;"/>
      </defs>
      <g>
       <use style="stroke:#000000;stroke-width:1.5;" x="42.82625" xlink:href="#mc79e7a5f7b" y="68.08981"/>
      </g>
     </g>
     <g id="text_1">
      <text style="font-family:DejaVu Sans;font-size:8px;font-stretch:normal;font-style:normal;font-weight:normal;text-anchor:end;" transform="rotate(-0, 35.82625, 71.129185)" x="35.82625" y="71.129185">−50</text>
     </g>
    </g>
    <g id="ytick_2">
     <g id="line2d_2">
      <g>
       <use style="stroke:#000000;stroke-width:1.5;" x="42.82625" xlink:href="#mc79e7a5f7b" y="39.164592"/>
      </g>
     </g>
     <g id="text_2">
      <text style="font-family:DejaVu Sans;font-size:8px;font-stretch:normal;font-style:normal;font-weight:normal;text-anchor:end;" transform="rotate(-0, 35.82625, 42.203967)" x="35.82625" y="42.203967">0</text>
     </g>
    </g>
    <g id="ytick_3">
     <g id="line2d_3">
      <g>
       <use style="stroke:#000000;stroke-width:1.5;" x="42.82625" xlink:href="#mc79e7a5f7b" y="10.239375"/>
      </g>
     </g>
     <g id="text_3">
      <text style="font-family:DejaVu Sans;font-size:8px;font-stretch:normal;font-style:normal;font-weight:normal;text-anchor:end;" transform="rotate(-0, 35.82625, 13.27875)" x="35.82625" y="13.27875">50</text>
     </g>
    </g>
    <g id="text_4">
     <text style="font-family:DejaVu Sans;font-size:8px;font-stretch:normal;font-style:normal;font-weight:normal;text-anchor:middle;" transform="rotate(-90, 13.27875, 43.503375)" x="13.27875" y="43.503375">Voltage PY (mV)</text>
    </g>
   </g>
   <g id="line2d_4">
    <path clip-path="url(#pb181b49872)" d="M 47.347594 73.898508 
L 49.048413 72.97122 
L 50.465762 72.336014 
L 52.166581 71.499237 
L 52.450051 71.402195 
L 53.016991 71.004485 
L 53.58393 70.792907 
L 54.43434 70.298949 
L 55.001279 69.956152 
L 62.654965 66.052113 
L 63.221905 65.711055 
L 63.788844 65.444695 
L 64.355784 65.296848 
L 64.922724 65.050073 
L 65.206193 64.731999 
L 65.773133 64.474215 
L 66.623543 64.046983 
L 67.190482 63.754254 
L 68.891301 62.863694 
L 69.458241 62.525471 
L 72.00947 61.274544 
L 73.710289 59.783252 
L 74.277228 59.008363 
L 74.844168 57.950167 
L 75.127638 57.249275 
L 75.411108 55.880011 
L 75.694577 53.198462 
L 75.978047 45.12647 
L 76.261517 25.5866 
L 76.544987 15.519782 
L 76.828457 15.14161 
L 77.111927 16.91784 
L 77.678866 22.429702 
L 78.812746 34.717142 
L 79.663155 41.293629 
L 80.797034 48.77676 
L 81.080504 51.974727 
L 82.214384 72.884842 
L 82.497853 73.758431 
L 82.781323 74.089627 
L 83.064793 74.208042 
L 84.198672 73.834892 
L 92.135828 70.009551 
L 92.702768 69.76538 
L 100.639923 66.054083 
L 101.206863 65.952809 
L 102.907682 65.026359 
L 103.474621 64.726198 
L 106.02585 63.62336 
L 106.30932 63.43958 
L 106.876259 63.245278 
L 107.726669 62.819204 
L 108.293608 62.76897 
L 111.128307 61.405346 
L 111.695246 61.179213 
L 112.829126 60.665097 
L 114.529945 58.965468 
L 115.096885 57.924798 
L 115.380354 57.080527 
L 115.663824 55.769234 
L 115.947294 53.210806 
L 116.230764 45.898774 
L 116.797704 16.182411 
L 117.081173 14.888046 
L 117.364643 16.515216 
L 117.931583 22.165744 
L 119.065462 35.15055 
L 119.915872 41.884556 
L 120.766281 47.491744 
L 121.049751 50.069794 
L 121.333221 54.03164 
L 121.900161 68.002378 
L 122.18363 71.625785 
L 122.4671 73.158791 
L 122.75057 73.821206 
L 123.03404 74.134358 
L 123.31751 74.20132 
L 124.167919 73.935521 
L 125.868738 73.177314 
L 126.719148 72.79074 
L 128.703437 71.851827 
L 130.971195 70.834534 
L 135.223243 68.83985 
L 135.790182 68.637251 
L 136.357122 68.382975 
L 136.924062 68.203517 
L 137.774471 67.816239 
L 137.774471 67.816239 
" style="fill:none;stroke:#000000;stroke-linecap:square;stroke-width:1.6;"/>
   </g>
   <g id="patch_3">
    <path d="M 42.82625 76.767375 
L 42.82625 10.239375 
" style="fill:none;stroke:#000000;stroke-linecap:square;stroke-linejoin:miter;stroke-width:1.5;"/>
   </g>
   <g id="patch_4">
    <path d="M 42.82625 76.767375 
L 142.295815 76.767375 
" style="fill:none;stroke:#000000;stroke-linecap:square;stroke-linejoin:miter;stroke-width:1.5;"/>
   </g>
  </g>
  <g id="axes_2">
   <g id="patch_5">
    <path d="M 172.136685 76.767375 
L 271.60625 76.767375 
L 271.60625 10.239375 
L 172.136685 10.239375 
z
" style="fill:none;"/>
   </g>
   <g id="matplotlib.axis_3"/>
   <g id="matplotlib.axis_4"/>
   <g id="line2d_5">
    <path clip-path="url(#p6f45c537c7)" d="M 176.658029 73.963241 
L 178.075378 73.115701 
L 178.925787 72.700621 
L 179.776197 72.158884 
L 180.343137 71.86016 
L 181.477016 71.198825 
L 181.760486 71.151345 
L 182.610895 70.612343 
L 183.177835 70.288993 
L 184.028244 69.77102 
L 185.162124 69.252215 
L 186.012533 68.727549 
L 188.280292 67.576349 
L 188.847232 67.199446 
L 189.414171 67.064134 
L 189.981111 66.773699 
L 190.264581 66.603838 
L 190.548051 66.578212 
L 191.39846 66.170981 
L 192.532339 65.551654 
L 193.099279 65.377092 
L 194.516628 64.84273 
L 194.800098 64.776804 
L 195.367038 64.38647 
L 197.918266 63.234925 
L 198.485206 63.019321 
L 201.319904 61.211661 
L 201.886844 60.592242 
L 202.453784 59.626039 
L 202.737254 58.851229 
L 203.020723 57.393803 
L 203.304193 53.645911 
L 203.871133 12.290025 
L 204.154603 12.255056 
L 204.438073 12.983656 
L 205.005012 15.531861 
L 205.855422 21.462866 
L 207.556241 34.466606 
L 208.40665 39.362112 
L 210.107469 48.266098 
L 210.390939 51.332671 
L 210.674409 58.443649 
L 210.957879 69.052176 
L 211.241349 72.678077 
L 211.524818 74.046817 
L 211.808288 74.758257 
L 212.091758 75.074797 
L 212.658698 75.055204 
L 215.776866 73.460018 
L 218.328094 72.057573 
L 222.580142 69.711562 
L 223.147082 69.467127 
L 224.847901 68.578981 
L 225.69831 68.161551 
L 226.83219 67.559057 
L 229.950358 66.191571 
L 231.651177 65.50191 
L 234.485875 64.213515 
L 234.769345 64.265837 
L 235.903224 63.879643 
L 236.753634 63.522137 
L 237.037104 63.469899 
L 237.604043 63.150408 
L 239.871802 62.173372 
L 241.572621 61.150092 
L 242.139561 60.47319 
L 242.7065 59.443788 
L 242.98997 58.455831 
L 243.27344 56.548811 
L 243.55691 50.438044 
L 243.84038 20.120769 
L 244.123849 11.991582 
L 244.407319 12.331766 
L 244.690789 13.181218 
L 245.257729 16.02065 
L 246.108138 22.324441 
L 247.525487 33.569179 
L 248.375897 38.751988 
L 250.076716 47.630992 
L 250.360186 50.252008 
L 250.643656 55.658946 
L 250.927126 66.543387 
L 251.210595 71.987682 
L 251.494065 73.648813 
L 251.777535 74.514842 
L 252.061005 74.897814 
L 252.344475 75.022608 
L 253.478354 74.667262 
L 254.328764 74.193521 
L 254.895703 73.92279 
L 255.179173 73.718025 
L 255.462643 73.652224 
L 256.313052 73.131751 
L 257.446932 72.572403 
L 258.013871 72.251894 
L 258.580811 71.875577 
L 267.084906 67.494993 
L 267.084906 67.494993 
" style="fill:none;stroke:#000000;stroke-linecap:square;stroke-width:1.6;"/>
   </g>
   <g id="patch_6">
    <path d="M 172.136685 76.767375 
L 271.60625 76.767375 
" style="fill:none;stroke:#000000;stroke-linecap:square;stroke-linejoin:miter;stroke-width:1.5;"/>
   </g>
  </g>
 </g>
 <defs>
  <clipPath id="pb181b49872">
   <rect height="66.528" width="99.469565" x="42.82625" y="10.239375"/>
  </clipPath>
  <clipPath id="p6f45c537c7">
   <rect height="66.528" width="99.469565" x="172.136685" y="10.239375"/>
  </clipPath>
 </defs>
</svg>
