<?xml version="1.0" encoding="utf-8" standalone="no"?>
<!DOCTYPE svg PUBLIC "-//W3C//DTD SVG 1.1//EN"
  "http://www.w3.org/Graphics/SVG/1.1/DTD/svg11.dtd">
<!-- Created with matplotlib (https://matplotlib.org/) -->
<svg height="87.467375pt" version="1.1" viewBox="0 0 278.80625 87.467375" width="278.80625pt" xmlns="http://www.w3.org/2000/svg" xmlns:xlink="http://www.w3.org/1999/xlink">
 <metadata>
  <rdf:RDF xmlns:cc="http://creativecommons.org/ns#" xmlns:dc="http://purl.org/dc/elements/1.1/" xmlns:rdf="http://www.w3.org/1999/02/22-rdf-syntax-ns#">
   <cc:Work>
    <dc:type rdf:resource="http://purl.org/dc/dcmitype/StillImage"/>
    <dc:date>2020-12-15T15:22:34.791915</dc:date>
    <dc:format>image/svg+xml</dc:format>
    <dc:creator>
     <cc:Agent>
      <dc:title>Matplotlib v3.3.2, https://matplotlib.org/</dc:title>
     </cc:Agent>
    </dc:creator>
   </cc:Work>
  </rdf:RDF>
 </metadata>
 <defs>
  <style type="text/css">*{stroke-linecap:butt;stroke-linejoin:round;}</style>
 </defs>
 <g id="figure_1">
  <g id="patch_1">
   <path d="M 0 87.467375 
L 278.80625 87.467375 
L 278.80625 0 
L 0 0 
z
" style="fill:none;"/>
  </g>
  <g id="axes_1">
   <g id="patch_2">
    <path d="M 42.82625 76.767375 
L 142.295815 76.767375 
L 142.295815 10.239375 
L 42.82625 10.239375 
z
" style="fill:none;"/>
   </g>
   <g id="matplotlib.axis_1"/>
   <g id="matplotlib.axis_2">
    <g id="ytick_1">
     <g id="line2d_1">
      <defs>
       <path d="M 0 0 
L -3.5 0 
" id="m3d1d81669c" style="stroke:#000000;stroke-width:1.5;"/>
      </defs>
      <g>
       <use style="stroke:#000000;stroke-width:1.5;" x="42.82625" xlink:href="#m3d1d81669c" y="68.08981"/>
      </g>
     </g>
     <g id="text_1">
      <text style="font-family:DejaVu Sans;font-size:8px;font-stretch:normal;font-style:normal;font-weight:normal;text-anchor:end;" transform="rotate(-0, 35.82625, 71.129185)" x="35.82625" y="71.129185">−50</text>
     </g>
    </g>
    <g id="ytick_2">
     <g id="line2d_2">
      <g>
       <use style="stroke:#000000;stroke-width:1.5;" x="42.82625" xlink:href="#m3d1d81669c" y="39.164592"/>
      </g>
     </g>
     <g id="text_2">
      <text style="font-family:DejaVu Sans;font-size:8px;font-stretch:normal;font-style:normal;font-weight:normal;text-anchor:end;" transform="rotate(-0, 35.82625, 42.203967)" x="35.82625" y="42.203967">0</text>
     </g>
    </g>
    <g id="ytick_3">
     <g id="line2d_3">
      <g>
       <use style="stroke:#000000;stroke-width:1.5;" x="42.82625" xlink:href="#m3d1d81669c" y="10.239375"/>
      </g>
     </g>
     <g id="text_3">
      <text style="font-family:DejaVu Sans;font-size:8px;font-stretch:normal;font-style:normal;font-weight:normal;text-anchor:end;" transform="rotate(-0, 35.82625, 13.27875)" x="35.82625" y="13.27875">50</text>
     </g>
    </g>
    <g id="text_4">
     <text style="font-family:DejaVu Sans;font-size:8px;font-stretch:normal;font-style:normal;font-weight:normal;text-anchor:middle;" transform="rotate(-90, 13.27875, 43.503375)" x="13.27875" y="43.503375">Voltage PY (mV)</text>
    </g>
   </g>
   <g id="line2d_4">
    <path clip-path="url(#p2d59c10012)" d="M 47.347594 65.05934 
L 47.851365 64.9158 
L 48.858907 64.454233 
L 50.622105 63.818554 
L 50.87399 63.820871 
L 51.377761 63.525716 
L 52.133417 63.236146 
L 52.385303 63.038482 
L 52.637188 63.005675 
L 53.140959 62.779751 
L 53.64473 62.594541 
L 54.652272 62.139672 
L 55.156043 62.055735 
L 56.163585 61.616199 
L 57.171127 61.174866 
L 57.926783 60.818722 
L 59.689981 59.939736 
L 60.445637 59.378953 
L 60.697523 59.289303 
L 61.453179 58.664741 
L 61.95695 58.16624 
L 62.460721 57.681073 
L 63.216377 56.576699 
L 63.720148 55.37954 
L 63.972034 54.360789 
L 64.223919 52.810081 
L 64.475805 50.091379 
L 64.72769 45.070394 
L 65.483346 24.954055 
L 65.735232 22.773875 
L 65.987117 22.979561 
L 66.239003 25.029969 
L 66.994659 36.434209 
L 67.750316 45.701104 
L 68.505972 53.765252 
L 69.261628 64.905928 
L 69.765399 68.880988 
L 70.26917 70.692554 
L 70.772941 71.556957 
L 71.276712 71.859711 
L 71.780483 71.859578 
L 72.788025 71.769011 
L 76.566306 70.164949 
L 78.077619 69.221646 
L 79.337046 68.823176 
L 82.359672 67.646899 
L 83.870984 66.794544 
L 84.12287 66.747159 
L 84.878526 66.365592 
L 85.382297 66.136583 
L 85.634183 66.139252 
L 87.397381 65.206713 
L 88.404923 64.906577 
L 89.916235 64.27772 
L 90.168121 64.349788 
L 91.931319 63.873699 
L 92.938861 63.413236 
L 95.457715 62.460282 
L 96.465257 61.969091 
L 96.717143 61.902004 
L 96.969028 61.711357 
L 97.724684 61.539077 
L 100.243539 60.444688 
L 100.999195 60.097756 
L 102.006737 59.681443 
L 102.510508 59.561684 
L 103.014279 59.309307 
L 103.769935 58.918156 
L 104.525592 58.32175 
L 106.036904 56.961983 
L 106.792561 55.433522 
L 107.296332 53.552136 
L 107.548217 51.773915 
L 107.800102 48.683256 
L 108.303873 36.694555 
L 108.807644 26.299708 
L 109.05953 24.420195 
L 109.311415 24.609854 
L 109.563301 26.468642 
L 110.067072 33.427924 
L 110.822728 44.014684 
L 111.83027 55.309801 
L 112.585926 65.195863 
L 113.089697 68.712857 
L 113.593468 70.362695 
L 114.097239 71.196621 
L 114.60101 71.453399 
L 115.104781 71.59334 
L 116.112322 71.404192 
L 118.379291 70.497007 
L 120.14249 69.637289 
L 120.646261 69.558379 
L 121.150031 69.383177 
L 121.653802 69.066748 
L 122.91323 68.534526 
L 123.417001 68.181051 
L 125.432084 67.554955 
L 125.68397 67.612281 
L 126.187741 67.234143 
L 128.706595 66.359141 
L 129.966022 66.192409 
L 130.217908 66.019484 
L 130.469793 65.989734 
L 131.22545 65.561114 
L 132.736762 64.805386 
L 132.988648 64.821021 
L 133.492419 64.638943 
L 133.99619 64.421947 
L 135.003731 64.154573 
L 136.011273 63.996616 
L 136.263159 63.787927 
L 136.515044 63.745662 
L 137.018815 63.439911 
L 137.2707 63.330463 
L 137.522586 63.364709 
L 137.774471 63.25117 
L 137.774471 63.25117 
" style="fill:none;stroke:#000000;stroke-linecap:square;stroke-width:1.6;"/>
   </g>
   <g id="patch_3">
    <path d="M 42.82625 76.767375 
L 42.82625 10.239375 
" style="fill:none;stroke:#000000;stroke-linecap:square;stroke-linejoin:miter;stroke-width:1.5;"/>
   </g>
   <g id="patch_4">
    <path d="M 42.82625 76.767375 
L 142.295815 76.767375 
" style="fill:none;stroke:#000000;stroke-linecap:square;stroke-linejoin:miter;stroke-width:1.5;"/>
   </g>
  </g>
  <g id="axes_2">
   <g id="patch_5">
    <path d="M 172.136685 76.767375 
L 271.60625 76.767375 
L 271.60625 10.239375 
L 172.136685 10.239375 
z
" style="fill:none;"/>
   </g>
   <g id="matplotlib.axis_3"/>
   <g id="matplotlib.axis_4"/>
   <g id="line2d_5">
    <path clip-path="url(#p012a153397)" d="M 176.658029 72.661241 
L 178.924998 71.225472 
L 180.184425 70.458921 
L 184.466478 67.944754 
L 185.222134 67.490142 
L 186.481561 66.809149 
L 186.733447 66.760619 
L 186.985332 66.523061 
L 188.244759 66.044526 
L 189.252301 65.553834 
L 189.756072 65.254731 
L 190.763614 64.81433 
L 191.015499 64.594428 
L 191.51927 64.371998 
L 195.549438 62.369619 
L 196.808865 61.469591 
L 197.816407 60.144323 
L 198.320178 58.574757 
L 198.572063 56.930031 
L 198.823948 51.97196 
L 199.075834 24.82261 
L 199.327719 11.886272 
L 199.579605 12.104835 
L 199.83149 12.84673 
L 200.335261 15.451985 
L 201.090918 21.374332 
L 202.60223 34.406524 
L 203.357887 39.30184 
L 204.869199 48.168854 
L 205.121085 51.129941 
L 205.37297 57.861519 
L 205.624856 68.660353 
L 205.876741 72.725541 
L 206.380512 75.002482 
L 206.632398 75.29014 
L 206.884283 75.383182 
L 207.388054 75.263842 
L 209.151252 74.214775 
L 217.715357 69.050102 
L 218.219128 68.832451 
L 218.722899 68.478232 
L 220.989868 67.218834 
L 221.745525 66.830562 
L 224.516265 65.499251 
L 224.76815 65.483142 
L 226.531348 64.691798 
L 227.035119 64.571645 
L 228.042661 63.983243 
L 228.798317 63.666754 
L 229.553974 63.202712 
L 230.30963 62.730544 
L 231.065286 62.289136 
L 231.820943 61.837736 
L 232.576599 61.044085 
L 233.08037 60.20071 
L 233.332255 59.697606 
L 233.584141 58.802336 
L 233.836026 57.349253 
L 234.087912 53.49193 
L 234.591683 11.967293 
L 234.843568 11.932664 
L 235.095454 12.624935 
L 235.599225 15.016401 
L 236.354881 20.792338 
L 238.118079 35.709491 
L 239.125621 41.685722 
L 240.133163 47.601759 
L 240.385048 50.154606 
L 240.636934 55.414896 
L 240.888819 66.285713 
L 241.140705 72.120557 
L 241.39259 73.972454 
L 241.644475 74.872964 
L 241.896361 75.294356 
L 242.400132 75.406532 
L 242.652017 75.35952 
L 243.155788 75.089555 
L 243.407674 74.995986 
L 243.911444 74.66077 
L 244.918986 74.026726 
L 245.926528 73.471219 
L 246.682184 72.957643 
L 246.93407 72.870724 
L 247.689726 72.352977 
L 251.468008 70.012476 
L 251.971779 69.741321 
L 252.727435 69.405244 
L 257.513259 66.7524 
L 258.01703 66.544736 
L 258.520801 66.178913 
L 258.772686 66.158237 
L 260.032113 65.541484 
L 260.78777 65.401177 
L 262.047197 64.685514 
L 263.054739 64.296556 
L 263.55851 64.047343 
L 265.825479 63.018384 
L 267.084906 62.093508 
L 267.084906 62.093508 
" style="fill:none;stroke:#000000;stroke-linecap:square;stroke-width:1.6;"/>
   </g>
   <g id="patch_6">
    <path d="M 172.136685 76.767375 
L 271.60625 76.767375 
" style="fill:none;stroke:#000000;stroke-linecap:square;stroke-linejoin:miter;stroke-width:1.5;"/>
   </g>
  </g>
 </g>
 <defs>
  <clipPath id="p2d59c10012">
   <rect height="66.528" width="99.469565" x="42.82625" y="10.239375"/>
  </clipPath>
  <clipPath id="p012a153397">
   <rect height="66.528" width="99.469565" x="172.136685" y="10.239375"/>
  </clipPath>
 </defs>
</svg>
