<?xml version="1.0" encoding="utf-8" standalone="no"?>
<!DOCTYPE svg PUBLIC "-//W3C//DTD SVG 1.1//EN"
  "http://www.w3.org/Graphics/SVG/1.1/DTD/svg11.dtd">
<!-- Created with matplotlib (https://matplotlib.org/) -->
<svg height="113.9315pt" version="1.1" viewBox="0 0 299.5625 113.9315" width="299.5625pt" xmlns="http://www.w3.org/2000/svg" xmlns:xlink="http://www.w3.org/1999/xlink">
 <metadata>
  <rdf:RDF xmlns:cc="http://creativecommons.org/ns#" xmlns:dc="http://purl.org/dc/elements/1.1/" xmlns:rdf="http://www.w3.org/1999/02/22-rdf-syntax-ns#">
   <cc:Work>
    <dc:type rdf:resource="http://purl.org/dc/dcmitype/StillImage"/>
    <dc:date>2020-12-15T15:14:23.170255</dc:date>
    <dc:format>image/svg+xml</dc:format>
    <dc:creator>
     <cc:Agent>
      <dc:title>Matplotlib v3.3.2, https://matplotlib.org/</dc:title>
     </cc:Agent>
    </dc:creator>
   </cc:Work>
  </rdf:RDF>
 </metadata>
 <defs>
  <style type="text/css">*{stroke-linecap:butt;stroke-linejoin:round;}</style>
 </defs>
 <g id="figure_1">
  <g id="patch_1">
   <path d="M 0 113.9315 
L 299.5625 113.9315 
L 299.5625 0 
L 0 0 
z
" style="fill:none;"/>
  </g>
  <g id="axes_1">
   <g id="patch_2">
    <path d="M 18.9425 80.2465 
L 149.1425 80.2465 
L 149.1425 19.2625 
L 18.9425 19.2625 
z
" style="fill:none;"/>
   </g>
   <g id="matplotlib.axis_1">
    <g id="xtick_1">
     <g id="line2d_1">
      <defs>
       <path d="M 0 0 
L 0 3.5 
" id="mc63c78fcde" style="stroke:#000000;stroke-width:1.5;"/>
      </defs>
      <g>
       <use style="stroke:#000000;stroke-width:1.5;" x="24.860682" xlink:href="#mc63c78fcde" y="80.2465"/>
      </g>
     </g>
     <g id="text_1">
      <text style="font-family:DejaVu Sans;font-size:8px;font-stretch:normal;font-style:normal;font-weight:normal;text-anchor:middle;" transform="rotate(-0, 24.860682, 93.32525)" x="24.860682" y="93.32525">0</text>
     </g>
    </g>
    <g id="xtick_2">
     <g id="line2d_2">
      <g>
       <use style="stroke:#000000;stroke-width:1.5;" x="63.04404" xlink:href="#mc63c78fcde" y="80.2465"/>
      </g>
     </g>
     <g id="text_2">
      <text style="font-family:DejaVu Sans;font-size:8px;font-stretch:normal;font-style:normal;font-weight:normal;text-anchor:middle;" transform="rotate(-0, 63.04404, 93.32525)" x="63.04404" y="93.32525">1</text>
     </g>
    </g>
    <g id="xtick_3">
     <g id="line2d_3">
      <g>
       <use style="stroke:#000000;stroke-width:1.5;" x="101.227397" xlink:href="#mc63c78fcde" y="80.2465"/>
      </g>
     </g>
     <g id="text_3">
      <text style="font-family:DejaVu Sans;font-size:8px;font-stretch:normal;font-style:normal;font-weight:normal;text-anchor:middle;" transform="rotate(-0, 101.227397, 93.32525)" x="101.227397" y="93.32525">2</text>
     </g>
    </g>
    <g id="xtick_4">
     <g id="line2d_4">
      <g>
       <use style="stroke:#000000;stroke-width:1.5;" x="139.410755" xlink:href="#mc63c78fcde" y="80.2465"/>
      </g>
     </g>
     <g id="text_4">
      <text style="font-family:DejaVu Sans;font-size:8px;font-stretch:normal;font-style:normal;font-weight:normal;text-anchor:middle;" transform="rotate(-0, 139.410755, 93.32525)" x="139.410755" y="93.32525">3</text>
     </g>
    </g>
    <g id="text_5">
     <text style="font-family:DejaVu Sans;font-size:8px;font-stretch:normal;font-style:normal;font-weight:normal;text-anchor:middle;" transform="rotate(-0, 84.0425, 105.06775)" x="84.0425" y="105.06775">Time (seconds)</text>
    </g>
   </g>
   <g id="matplotlib.axis_2">
    <g id="text_6">
     <text style="font-family:DejaVu Sans;font-size:8px;font-stretch:normal;font-style:normal;font-weight:normal;text-anchor:middle;" transform="rotate(-90, 13.27875, 49.7545)" x="13.27875" y="49.7545">Energy</text>
    </g>
   </g>
   <g id="line2d_5">
    <path clip-path="url(#pd1bd09b954)" d="M 24.860682 39.588826 
L 62.266054 39.566494 
L 62.318556 39.446713 
L 62.380604 37.355934 
L 62.461743 38.771698 
L 62.666979 39.334236 
L 62.724254 39.34704 
L 62.743346 39.292977 
L 62.791075 37.921706 
L 62.800621 37.823137 
L 62.84835 38.758152 
L 63.058358 39.306956 
L 63.096542 39.29331 
L 63.110861 39.211398 
L 63.163363 37.849047 
L 63.234956 38.926209 
L 63.430646 39.311061 
L 63.444965 39.301343 
L 63.46883 39.111453 
L 63.511786 37.814549 
L 63.58338 38.94657 
L 63.788615 39.322847 
L 63.798161 39.315881 
L 63.822026 39.10781 
L 63.864982 37.663347 
L 63.936576 38.963324 
L 64.151357 39.349309 
L 64.160903 39.343071 
L 64.184767 39.174539 
L 64.232497 37.367595 
L 64.299318 38.949414 
L 64.537964 39.374944 
L 64.576147 39.298116 
L 64.628649 37.116502 
L 64.705016 38.976618 
L 64.95798 39.402423 
L 65.010483 39.385384 
L 65.020028 39.334428 
L 65.067758 37.157339 
L 65.072531 37.080354 
L 65.096395 37.953601 
L 65.215718 39.169703 
L 65.46391 39.437918 
L 65.506866 39.371222 
L 65.54505 37.811202 
L 65.564141 37.15066 
L 65.635735 39.032981 
L 65.898246 39.431712 
L 66.008023 39.442437 
L 66.022342 39.394466 
L 66.060525 37.956557 
L 66.079617 37.179022 
L 66.155983 39.064964 
L 66.423267 39.443936 
L 66.604638 39.464922 
L 66.614184 39.442459 
L 66.652367 38.694285 
L 66.676232 37.576925 
L 66.757371 39.136701 
L 67.024655 39.461683 
L 67.234663 39.468927 
L 67.239436 39.456905 
L 67.277619 38.891458 
L 67.301484 37.777216 
L 67.382624 39.164794 
L 67.649907 39.469698 
L 67.921964 39.476029 
L 67.960147 39.09833 
L 67.988784 38.017612 
L 68.065151 39.193125 
L 68.332435 39.478168 
L 68.666539 39.502156 
L 68.69995 39.3025 
L 68.747679 38.219293 
L 68.8145 39.205631 
L 69.07701 39.480716 
L 69.463617 39.524919 
L 69.53521 39.424236 
L 69.592486 38.418852 
L 69.659306 39.233889 
L 69.921817 39.489251 
L 70.394336 39.547873 
L 72.914438 39.588177 
L 105.771217 39.589994 
L 110.897333 39.493842 
L 110.940289 38.425903 
L 110.964154 37.350363 
L 111.045293 38.760205 
L 111.250529 39.328493 
L 111.307804 39.338656 
L 111.326896 39.267286 
L 111.379398 37.804598 
L 111.46531 38.918831 
L 111.656227 39.302603 
L 111.670546 39.289966 
L 111.69441 39.0952 
L 111.737367 37.847119 
L 111.808961 38.899981 
L 111.999877 39.28824 
L 112.014196 39.269682 
L 112.042834 38.822854 
L 112.076244 37.822341 
L 112.143065 38.917243 
L 112.338755 39.304957 
L 112.353073 39.289673 
L 112.376938 38.981471 
L 112.415121 37.72683 
L 112.486715 38.953436 
L 112.687178 39.321811 
L 112.701497 39.307894 
L 112.725361 38.9687 
L 112.763544 37.504211 
L 112.835138 38.956894 
L 113.059465 39.348873 
L 113.064238 39.345733 
L 113.088103 39.232923 
L 113.135832 37.190151 
L 113.207426 38.952257 
L 113.455618 39.386662 
L 113.493801 39.367278 
L 113.503347 39.324837 
L 113.54153 37.638098 
L 113.560622 37.058188 
L 113.627443 38.970038 
L 113.885181 39.406512 
L 113.942456 39.398421 
L 113.956774 39.332211 
L 114.009277 36.944334 
L 114.085643 39.002895 
L 114.348154 39.420855 
L 114.448385 39.433201 
L 114.462704 39.388569 
L 114.496114 38.36045 
L 114.519979 37.134965 
L 114.596346 39.053414 
L 114.863629 39.437968 
L 115.002044 39.439997 
L 115.01159 39.402096 
L 115.049773 38.124104 
L 115.068865 37.355768 
L 115.145231 39.094716 
L 115.412515 39.449038 
L 115.593886 39.463442 
L 115.603432 39.437386 
L 115.641615 38.596943 
L 115.66548 37.618184 
L 115.741846 39.14028 
L 116.00913 39.461329 
L 116.223911 39.463655 
L 116.228684 39.44859 
L 116.266868 38.77996 
L 116.290732 37.792764 
L 116.371872 39.175997 
L 116.643928 39.473421 
L 116.930303 39.474889 
L 116.968487 39.091253 
L 116.997124 38.090132 
L 117.073491 39.206367 
L 117.340774 39.479785 
L 117.708289 39.508203 
L 117.751246 39.335761 
L 117.798975 38.379777 
L 117.865796 39.223964 
L 118.128306 39.484431 
L 118.572188 39.538004 
L 118.777423 39.455928 
L 118.839471 38.588445 
L 118.915838 39.271036 
L 119.178349 39.497547 
L 119.712916 39.551877 
L 124.629023 39.590374 
L 139.405982 39.590348 
L 139.405982 39.590348 
" style="fill:none;stroke:#666666;stroke-linecap:square;stroke-width:0.6;"/>
   </g>
   <g id="line2d_6">
    <path clip-path="url(#pd1bd09b954)" d="M 24.860682 59.918014 
L 31.881647 59.832804 
L 31.91983 58.869596 
L 31.953241 56.23355 
L 32.024834 59.336893 
L 32.253934 59.683896 
L 32.57372 59.777498 
L 32.597585 59.520779 
L 32.664406 52.647694 
L 32.712135 58.799436 
L 32.855322 59.399341 
L 33.127379 59.696757 
L 33.375571 59.740938 
L 33.380344 59.725862 
L 33.394662 59.449519 
L 33.461483 52.969482 
L 33.509212 58.963593 
L 33.657173 59.452947 
L 33.938775 59.721913 
L 34.234696 59.76344 
L 34.239469 59.749508 
L 34.253788 59.517469 
L 34.320609 53.371133 
L 34.368338 59.087797 
L 34.516298 59.518262 
L 34.802674 59.760019 
L 35.275193 59.838633 
L 35.318149 59.757545 
L 35.356332 57.687353 
L 35.389743 54.554889 
L 35.451791 59.356301 
L 35.671345 59.693855 
L 36.029314 59.841427 
L 36.754798 59.865657 
L 36.788208 59.770699 
L 36.835937 56.864591 
L 36.855029 55.981484 
L 36.912304 59.501826 
L 37.127086 59.752254 
L 37.528011 59.872263 
L 38.735559 59.910163 
L 79.567888 59.820384 
L 79.606071 58.658582 
L 79.639482 56.230412 
L 79.711075 59.32976 
L 79.940175 59.678848 
L 80.255188 59.769337 
L 80.27428 59.662611 
L 80.345874 52.849564 
L 80.403149 58.956598 
L 80.589293 59.48598 
L 80.885214 59.726736 
L 81.023628 59.724404 
L 81.033174 59.675317 
L 81.066585 57.627836 
L 81.109541 52.925513 
L 81.166816 59.043715 
L 81.362506 59.523603 
L 81.667972 59.744328 
L 81.835025 59.741875 
L 81.84457 59.700184 
L 81.877981 57.908821 
L 81.920937 53.316666 
L 81.978212 59.150933 
L 82.173902 59.575679 
L 82.488915 59.77618 
L 82.780063 59.780295 
L 82.784836 59.761772 
L 82.818246 58.605597 
L 82.861202 53.934708 
L 82.92325 59.289416 
L 83.133259 59.657281 
L 83.472136 59.823099 
L 84.035341 59.844121 
L 84.059205 59.701415 
L 84.126026 55.386251 
L 84.173755 59.40607 
L 84.336035 59.679573 
L 84.670139 59.842554 
L 85.457671 59.90306 
L 87.490935 59.83496 
L 87.510026 59.49244 
L 87.562528 57.218443 
L 87.61503 59.598626 
L 87.825039 59.783179 
L 88.288012 59.880817 
L 89.476469 59.866672 
L 89.505107 59.647757 
L 89.562382 56.947965 
L 89.614884 59.6127 
L 89.810573 59.791985 
L 90.249682 59.891241 
L 91.867702 59.917912 
L 128.623957 59.839005 
L 128.66214 59.020538 
L 128.695551 56.423592 
L 128.767144 59.33449 
L 128.996244 59.678445 
L 129.28262 59.767679 
L 129.287393 59.760499 
L 129.306484 59.580324 
L 129.378078 52.523018 
L 129.425807 58.823412 
L 129.578541 59.400162 
L 129.850597 59.690006 
L 130.05106 59.726598 
L 130.060606 59.692932 
L 130.089243 58.648266 
L 130.136972 52.781248 
L 130.194247 59.005533 
L 130.375618 59.492166 
L 130.671539 59.730539 
L 130.862456 59.745408 
L 130.872002 59.708915 
L 130.900639 58.696334 
L 130.948369 53.238562 
L 131.005644 59.13022 
L 131.191788 59.555515 
L 131.497254 59.765674 
L 131.78363 59.768968 
L 131.788403 59.746916 
L 131.821813 58.382541 
L 131.864769 53.795172 
L 131.922044 59.254329 
L 132.112961 59.626215 
L 132.432747 59.809261 
L 133.019816 59.854217 
L 133.053226 59.761082 
L 133.100955 56.503178 
L 133.120047 55.357509 
L 133.182095 59.44594 
L 133.401649 59.730706 
L 133.783483 59.860621 
L 134.809661 59.899218 
L 135.100809 59.810749 
L 135.138992 58.696557 
L 135.16763 56.987962 
L 135.239223 59.619509 
L 135.525599 59.821779 
L 136.103122 59.898939 
L 139.076651 59.915453 
L 139.405982 59.915998 
L 139.405982 59.915998 
" style="fill:none;stroke:#666666;stroke-linecap:square;stroke-width:0.6;"/>
   </g>
   <g id="line2d_7">
    <path clip-path="url(#pd1bd09b954)" d="M 24.860682 80.245638 
L 40.38699 80.152172 
L 40.458583 79.040162 
L 40.549269 79.800354 
L 40.773596 80.092296 
L 40.84519 80.061397 
L 40.849963 80.039825 
L 40.916784 78.844564 
L 40.993151 79.763548 
L 41.227024 80.064798 
L 41.274753 79.971021 
L 41.332028 78.6603 
L 41.398849 79.732557 
L 41.647041 80.063178 
L 41.685224 80.032181 
L 41.69477 79.965558 
L 41.752045 78.463502 
L 41.814093 79.72781 
L 42.067057 80.069857 
L 42.133878 80.064513 
L 42.148197 79.993436 
L 42.210245 78.342514 
L 42.272293 79.757472 
L 42.544349 80.089207 
L 42.644581 80.094746 
L 42.658899 80.037729 
L 42.720947 78.350602 
L 42.787768 79.798368 
L 43.069371 80.104951 
L 43.226877 80.116848 
L 43.236423 80.087017 
L 43.279379 79.207406 
L 43.303244 78.523459 
L 43.374837 79.853772 
L 43.665986 80.123906 
L 43.871221 80.129754 
L 43.880767 80.095997 
L 43.933269 78.833875 
L 43.947588 78.640046 
L 44.00009 79.857059 
L 44.238736 80.100274 
L 44.587159 80.16943 
L 44.630115 80.035826 
L 44.68739 78.890211 
L 44.744665 79.907098 
L 45.002403 80.126682 
L 45.408101 80.185236 
L 45.460603 80.087165 
L 45.522651 79.05857 
L 45.579926 79.938274 
L 45.84721 80.142017 
L 46.300637 80.194397 
L 46.357912 80.073814 
L 46.41996 79.129578 
L 46.472462 79.947762 
L 46.715881 80.137603 
L 47.174082 80.204239 
L 47.279086 80.123097 
L 47.345907 79.176926 
L 47.407955 79.971138 
L 47.69433 80.160199 
L 48.23367 80.21126 
L 48.367311 80.115827 
L 48.429359 79.33683 
L 48.491407 79.985448 
L 48.758691 80.161274 
L 49.302804 80.215554 
L 49.465083 80.120223 
L 49.531904 79.351555 
L 49.589179 79.987242 
L 49.856462 80.163408 
L 50.410121 80.220014 
L 50.763317 80.137808 
L 50.830138 79.487927 
L 50.892186 80.001908 
L 51.145151 80.166518 
L 51.694037 80.220428 
L 51.96132 80.131494 
L 52.028141 79.430204 
L 52.090189 79.99878 
L 52.352699 80.169352 
L 52.915904 80.224351 
L 53.211825 80.130233 
L 53.278646 79.362748 
L 53.335921 79.989229 
L 53.588886 80.164404 
L 54.128226 80.224618 
L 54.648474 80.120717 
L 54.715295 79.494731 
L 54.77257 80.000989 
L 55.015989 80.167496 
L 55.560102 80.226572 
L 56.066031 80.146499 
L 56.137625 79.474049 
L 56.199673 80.00608 
L 56.462183 80.175483 
L 57.04448 80.229411 
L 57.712688 80.152967 
L 57.784282 79.486795 
L 57.851103 80.009686 
L 58.113614 80.178152 
L 58.705456 80.230224 
L 60.352113 80.166627 
L 60.42848 79.513477 
L 60.500073 80.014884 
L 60.77213 80.186258 
L 61.397382 80.233415 
L 69.411115 80.245521 
L 89.777163 80.10608 
L 89.843984 79.076078 
L 89.915578 79.74774 
L 90.135132 80.083974 
L 90.240136 80.079253 
L 90.249682 80.047477 
L 90.316503 78.922827 
L 90.397643 79.786827 
L 90.631516 80.067124 
L 90.674472 79.963542 
L 90.731747 78.709152 
L 90.793795 79.730565 
L 91.037214 80.065049 
L 91.089716 80.03689 
L 91.099262 79.968663 
L 91.156537 78.500633 
L 91.218585 79.736544 
L 91.476322 80.07609 
L 91.53837 80.065676 
L 91.547916 80.028132 
L 91.609964 78.322912 
L 91.681558 79.771257 
L 91.958387 80.095905 
L 92.058619 80.092268 
L 92.068165 80.056235 
L 92.115894 78.68335 
L 92.134985 78.336068 
L 92.19226 79.785337 
L 92.454771 80.091715 
L 92.664779 80.119518 
L 92.669552 80.10758 
L 92.707736 79.626897 
L 92.741146 78.559126 
L 92.81274 79.864616 
L 93.103888 80.127261 
L 93.332988 80.133459 
L 93.337761 80.118463 
L 93.380717 79.452043 
L 93.409355 78.689561 
L 93.480949 79.89976 
L 93.781643 80.14068 
L 94.115747 80.15088 
L 94.149158 79.814655 
L 94.158703 79.842214 
L 94.192114 78.979924 
L 94.263708 79.940353 
L 94.564402 80.152707 
L 94.946235 80.163619 
L 94.974873 79.931991 
L 95.027375 79.070507 
L 95.08465 79.939915 
L 95.342387 80.139493 
L 95.800588 80.200573 
L 95.8865 80.12021 
L 95.953321 79.185604 
L 96.015369 79.968396 
L 96.296971 80.157579 
L 96.812447 80.205609 
L 96.888813 80.120216 
L 96.955634 79.260698 
L 97.012909 79.973749 
L 97.27542 80.15512 
L 97.795668 80.214245 
L 97.96272 80.107978 
L 98.024768 79.339973 
L 98.082043 79.979387 
L 98.330235 80.15439 
L 98.836165 80.215634 
L 99.060492 80.126232 
L 99.127313 79.394023 
L 99.184588 79.98959 
L 99.442326 80.162304 
L 99.986438 80.217104 
L 100.196447 80.127872 
L 100.263268 79.459362 
L 100.325316 80.002237 
L 100.587826 80.168848 
L 101.146258 80.218532 
L 101.318083 80.134031 
L 101.384904 79.35912 
L 101.446952 79.995051 
L 101.714235 80.168836 
L 102.27744 80.223491 
L 102.730867 80.127318 
L 102.797688 79.481342 
L 102.854963 79.999613 
L 103.103155 80.167696 
L 103.656814 80.226207 
L 104.115014 80.143574 
L 104.181835 79.440664 
L 104.248656 80.005697 
L 104.520712 80.177152 
L 105.117327 80.228854 
L 105.766444 80.140883 
L 105.838038 79.532361 
L 105.895313 80.003517 
L 106.138732 80.171147 
L 106.678072 80.228011 
L 107.446512 80.147239 
L 107.518106 79.510256 
L 107.580154 80.005639 
L 107.833118 80.17556 
L 108.39155 80.230154 
L 113.808814 80.245703 
L 138.413215 80.181101 
L 138.465717 79.784283 
L 138.494355 79.0514 
L 138.575494 79.769618 
L 138.795049 80.083806 
L 138.871415 80.072422 
L 138.885734 80.007221 
L 138.947782 78.867357 
L 139.014603 79.735721 
L 139.248476 80.058584 
L 139.291432 80.008571 
L 139.296205 79.970278 
L 139.35348 78.637447 
L 139.405982 79.678708 
" style="fill:none;stroke:#666666;stroke-linecap:square;stroke-width:0.6;"/>
   </g>
   <g id="line2d_8">
    <path clip-path="url(#pd1bd09b954)" d="M 143.224318 77.7825 
L 143.224318 71.6225 
" style="fill:none;stroke:#000000;stroke-linecap:square;stroke-width:1.5;"/>
   </g>
   <g id="patch_3">
    <path d="M 18.9425 80.2465 
L 18.9425 19.2625 
" style="fill:none;stroke:#000000;stroke-linecap:square;stroke-linejoin:miter;stroke-width:1.5;"/>
   </g>
   <g id="patch_4">
    <path d="M 18.9425 80.2465 
L 149.1425 80.2465 
" style="fill:none;stroke:#000000;stroke-linecap:square;stroke-linejoin:miter;stroke-width:1.5;"/>
   </g>
   <g id="text_7">
    <!-- Average Energy: 3.7 $\mu$J/s -->
    <g transform="translate(34.9225 13.2625)">
     <text>
      <tspan style="font-family:DejaVu Sans;font-size:8px;font-style:book;font-weight:book;" x="0 5.472656 10.207031 15.128906 18.417969 23.320312 28.398438 33.320312 35.863281 40.917969 45.988281 50.910156 54.199219 59.277344 64.011719 66.707031 69.25 74.339844 76.257812 81.347656 83.890625 88.980469 91.339844 94.035156" y="-0.0625">Average Energy: 3.7 μJ/s</tspan>
     </text>
    </g>
   </g>
  </g>
  <g id="axes_2">
   <g id="patch_5">
    <path d="M 162.1625 80.2465 
L 292.3625 80.2465 
L 292.3625 19.2625 
L 162.1625 19.2625 
z
" style="fill:none;"/>
   </g>
   <g id="matplotlib.axis_3">
    <g id="xtick_5">
     <g id="line2d_9">
      <g>
       <use style="stroke:#000000;stroke-width:1.5;" x="168.080682" xlink:href="#mc63c78fcde" y="80.2465"/>
      </g>
     </g>
     <g id="text_8">
      <text style="font-family:DejaVu Sans;font-size:8px;font-stretch:normal;font-style:normal;font-weight:normal;text-anchor:middle;" transform="rotate(-0, 168.080682, 93.32525)" x="168.080682" y="93.32525">0</text>
     </g>
    </g>
    <g id="xtick_6">
     <g id="line2d_10">
      <g>
       <use style="stroke:#000000;stroke-width:1.5;" x="206.26404" xlink:href="#mc63c78fcde" y="80.2465"/>
      </g>
     </g>
     <g id="text_9">
      <text style="font-family:DejaVu Sans;font-size:8px;font-stretch:normal;font-style:normal;font-weight:normal;text-anchor:middle;" transform="rotate(-0, 206.26404, 93.32525)" x="206.26404" y="93.32525">1</text>
     </g>
    </g>
    <g id="xtick_7">
     <g id="line2d_11">
      <g>
       <use style="stroke:#000000;stroke-width:1.5;" x="244.447397" xlink:href="#mc63c78fcde" y="80.2465"/>
      </g>
     </g>
     <g id="text_10">
      <text style="font-family:DejaVu Sans;font-size:8px;font-stretch:normal;font-style:normal;font-weight:normal;text-anchor:middle;" transform="rotate(-0, 244.447397, 93.32525)" x="244.447397" y="93.32525">2</text>
     </g>
    </g>
    <g id="xtick_8">
     <g id="line2d_12">
      <g>
       <use style="stroke:#000000;stroke-width:1.5;" x="282.630755" xlink:href="#mc63c78fcde" y="80.2465"/>
      </g>
     </g>
     <g id="text_11">
      <text style="font-family:DejaVu Sans;font-size:8px;font-stretch:normal;font-style:normal;font-weight:normal;text-anchor:middle;" transform="rotate(-0, 282.630755, 93.32525)" x="282.630755" y="93.32525">3</text>
     </g>
    </g>
    <g id="text_12">
     <text style="font-family:DejaVu Sans;font-size:8px;font-stretch:normal;font-style:normal;font-weight:normal;text-anchor:middle;" transform="rotate(-0, 227.2625, 105.06775)" x="227.2625" y="105.06775">Time (seconds)</text>
    </g>
   </g>
   <g id="matplotlib.axis_4"/>
   <g id="line2d_13">
    <path clip-path="url(#p27f1d90b76)" d="M 168.080682 39.590391 
L 183.191746 39.485712 
L 183.210837 39.501048 
L 183.234702 36.890751 
L 183.291977 27.361417 
L 183.349252 35.768335 
L 183.501985 38.320193 
L 183.611763 38.864226 
L 183.630854 38.694378 
L 183.707221 25.575638 
L 183.764496 35.608367 
L 183.893365 38.081866 
L 184.050871 38.874704 
L 184.06519 38.71171 
L 184.14633 23.790663 
L 184.203605 35.094681 
L 184.327701 38.080155 
L 184.513844 38.960255 
L 184.528163 38.901708 
L 184.552028 35.849419 
L 184.614076 22.828551 
L 184.671351 32.372903 
L 184.790674 38.115542 
L 185.019774 39.071718 
L 185.02932 39.059756 
L 185.043639 38.776298 
L 185.124778 22.764534 
L 185.17728 29.521243 
L 185.296603 38.20388 
L 185.559114 39.166943 
L 185.578206 39.162263 
L 185.587751 39.117843 
L 185.611616 37.009954 
L 185.678437 23.269521 
L 185.730939 30.928367 
L 185.850262 38.323647 
L 186.117545 39.214809 
L 186.165275 39.249567 
L 186.184366 39.175453 
L 186.213004 36.159837 
L 186.275052 23.894571 
L 186.327554 33.224928 
L 186.446877 38.423496 
L 186.718933 39.245887 
L 186.823938 39.315437 
L 186.843029 39.227301 
L 186.87644 35.493221 
L 186.933715 25.369733 
L 186.981444 33.671151 
L 187.100767 38.512994 
L 187.372823 39.267628 
L 187.544648 39.370433 
L 187.558967 39.34279 
L 187.573286 39.041532 
L 187.654426 27.05611 
L 187.702155 35.531896 
L 187.821478 38.603229 
L 188.093534 39.292202 
L 188.327407 39.4013 
L 188.33218 39.39645 
L 188.356045 39.197614 
L 188.437184 28.559138 
L 188.484914 36.878342 
L 188.60901 38.700959 
L 188.876293 39.315251 
L 189.162668 39.453444 
L 189.29631 39.389027 
L 189.32972 37.893019 
L 189.382223 31.027016 
L 189.434725 38.01308 
L 189.568366 38.869075 
L 189.826104 39.356319 
L 190.136344 39.468224 
L 190.246121 39.373733 
L 190.284304 36.899473 
L 190.327261 31.436476 
L 190.384536 38.170049 
L 190.527723 38.931469 
L 190.785461 39.375524 
L 191.14343 39.489261 
L 192.904637 39.581322 
L 198.913743 39.590352 
L 227.45103 39.518039 
L 227.489214 38.463046 
L 227.551262 27.699047 
L 227.61331 35.743323 
L 227.770816 38.30634 
L 227.832864 38.624964 
L 227.851956 38.36286 
L 227.923549 26.131128 
L 227.976051 33.899918 
L 228.095374 37.861717 
L 228.209925 38.570681 
L 228.224243 38.364135 
L 228.30061 24.274181 
L 228.353112 32.213646 
L 228.472435 37.87179 
L 228.606077 38.661112 
L 228.625169 38.380494 
L 228.701535 22.920696 
L 228.75881 32.369242 
L 228.878133 37.961421 
L 229.045186 38.809484 
L 229.059504 38.689486 
L 229.102461 28.477817 
L 229.140644 22.346814 
L 229.197919 30.991221 
L 229.317242 38.061584 
L 229.517705 38.946845 
L 229.532023 38.886333 
L 229.551115 36.791649 
L 229.622709 22.264309 
L 229.675211 30.766181 
L 229.794534 38.170543 
L 230.03318 39.068686 
L 230.042726 39.059098 
L 230.057045 38.91943 
L 230.109547 27.052827 
L 230.142957 22.846659 
L 230.195459 31.011219 
L 230.314782 38.279772 
L 230.577293 39.156418 
L 230.60593 39.163501 
L 230.620249 39.086215 
L 230.648887 35.586576 
L 230.710935 23.682224 
L 230.763437 33.970526 
L 230.88276 38.389584 
L 231.150043 39.200994 
L 231.221637 39.249573 
L 231.240729 39.167794 
L 231.269366 36.310044 
L 231.331414 25.014451 
L 231.379143 32.684041 
L 231.493693 38.445663 
L 231.76575 39.224956 
L 231.894619 39.309293 
L 231.91371 39.261981 
L 231.937575 38.11874 
L 232.004396 26.450211 
L 232.056898 36.25997 
L 232.176221 38.567712 
L 232.443504 39.254316 
L 232.658286 39.367287 
L 232.667832 39.35501 
L 232.686923 39.199568 
L 232.768063 28.689812 
L 232.820565 37.477348 
L 232.949434 38.722075 
L 233.216717 39.300453 
L 233.469682 39.388461 
L 233.493547 39.241738 
L 233.574686 29.907838 
L 233.627188 37.846415 
L 233.76083 38.806927 
L 234.023341 39.323904 
L 234.319262 39.430582 
L 234.386083 39.339065 
L 234.424266 36.64341 
L 234.467222 31.359885 
L 234.524497 38.189868 
L 234.672458 38.934531 
L 234.930196 39.357934 
L 235.187933 39.411677 
L 235.211798 39.296976 
L 235.259527 34.134313 
L 235.292937 30.93213 
L 235.34544 38.035489 
L 235.479081 38.866256 
L 235.736819 39.346525 
L 236.061378 39.465131 
L 237.665079 39.574724 
L 242.14685 39.590317 
L 269.524318 39.499192 
L 269.543409 39.529028 
L 269.567274 37.253868 
L 269.624549 27.42792 
L 269.681824 35.410196 
L 269.825012 38.132158 
L 269.910924 38.609607 
L 269.925243 38.387561 
L 269.996837 25.98828 
L 270.054112 35.410033 
L 270.182981 37.952957 
L 270.278439 38.535974 
L 270.297531 38.243276 
L 270.369125 24.282836 
L 270.4264 33.313164 
L 270.545723 37.857579 
L 270.674591 38.622029 
L 270.68891 38.498781 
L 270.731866 28.038923 
L 270.77005 23.034153 
L 270.822552 30.744882 
L 270.941875 37.918188 
L 271.099381 38.760672 
L 271.118473 38.562379 
L 271.199613 22.347962 
L 271.256888 33.196866 
L 271.376211 38.051028 
L 271.567127 38.906909 
L 271.581446 38.832898 
L 271.605311 35.26164 
L 271.667359 22.276147 
L 271.724634 32.36474 
L 271.843957 38.156664 
L 272.068284 39.028101 
L 272.082603 38.999902 
L 272.096921 38.161077 
L 272.178061 22.562339 
L 272.230563 31.84852 
L 272.345113 38.226604 
L 272.607624 39.131821 
L 272.631488 39.124351 
L 272.641034 39.067681 
L 272.664899 36.654181 
L 272.73172 23.495424 
L 272.784222 32.939339 
L 272.898772 38.334387 
L 273.166055 39.179726 
L 273.228103 39.216396 
L 273.247195 39.114839 
L 273.280606 34.567623 
L 273.333108 24.718674 
L 273.38561 33.554589 
L 273.504933 38.450589 
L 273.772216 39.214263 
L 273.886766 39.281091 
L 273.901085 39.240578 
L 273.92495 38.012396 
L 273.991771 26.210088 
L 274.044273 36.076276 
L 274.163596 38.547587 
L 274.430879 39.243767 
L 274.607477 39.335305 
L 274.621796 39.31021 
L 274.636115 39.087028 
L 274.717254 28.096276 
L 274.760211 34.397599 
L 274.879534 38.619036 
L 275.146817 39.268368 
L 275.371144 39.371079 
L 275.38069 39.35902 
L 275.399782 39.214751 
L 275.480922 29.086796 
L 275.533424 37.60642 
L 275.662293 38.746727 
L 275.924803 39.30252 
L 276.206405 39.415138 
L 276.268453 39.329982 
L 276.301864 37.393712 
L 276.349593 31.204236 
L 276.406868 38.157609 
L 276.550056 38.907555 
L 276.807793 39.34546 
L 277.065531 39.401582 
L 277.070304 39.39381 
L 277.089396 39.229002 
L 277.165762 30.94173 
L 277.213491 37.642778 
L 277.34236 38.824352 
L 277.604871 39.335386 
L 277.915111 39.448281 
L 279.089249 39.556744 
L 282.606891 39.590311 
L 282.625982 39.590311 
L 282.625982 39.590311 
" style="fill:none;stroke:#666666;stroke-linecap:square;stroke-width:0.6;"/>
   </g>
   <g id="line2d_14">
    <path clip-path="url(#p27f1d90b76)" d="M 168.080682 59.918081 
L 200.044925 59.820352 
L 200.083109 58.951458 
L 200.116519 56.682055 
L 200.192886 58.992177 
L 200.417213 59.522606 
L 200.445851 59.466929 
L 200.474488 57.671875 
L 200.512671 53.964746 
L 200.579492 58.494204 
L 200.818138 59.303278 
L 200.822911 59.301208 
L 200.842003 59.146131 
L 200.904051 53.233288 
L 200.961326 58.380388 
L 201.195199 59.231685 
L 201.214291 59.205363 
L 201.219063 59.162715 
L 201.247701 56.374611 
L 201.281111 53.224748 
L 201.343159 58.455398 
L 201.577032 59.243272 
L 201.581805 59.242037 
L 201.600897 59.117049 
L 201.662945 53.293504 
L 201.72022 58.534608 
L 201.954093 59.290305 
L 201.973185 59.292201 
L 201.987504 59.200187 
L 202.025687 54.888621 
L 202.049552 53.330344 
L 202.102054 58.565853 
L 202.278652 59.205517 
L 202.37411 59.363224 
L 202.393202 59.290294 
L 202.421839 56.695314 
L 202.460023 53.313248 
L 202.517298 58.715657 
L 202.741625 59.360475 
L 202.813219 59.433078 
L 202.83231 59.318223 
L 202.894358 53.339245 
L 202.956406 58.8152 
L 203.185506 59.410209 
L 203.285738 59.510867 
L 203.309602 59.416779 
L 203.343013 56.292759 
L 203.376423 53.584644 
L 203.433698 58.904875 
L 203.64848 59.430104 
L 203.810759 59.575431 
L 203.829851 59.507209 
L 203.858488 57.659052 
L 203.896671 53.858236 
L 203.958719 59.006865 
L 204.183047 59.490265 
L 204.393055 59.644947 
L 204.407374 59.621311 
L 204.426466 59.261637 
L 204.483741 54.404773 
L 204.536243 59.058404 
L 204.708068 59.45829 
L 205.013535 59.704206 
L 205.07081 59.61463 
L 205.10422 57.688352 
L 205.137631 55.027221 
L 205.199679 59.2076 
L 205.443097 59.60054 
L 205.762883 59.742933 
L 205.805839 59.64097 
L 205.848796 56.884598 
L 205.87266 55.859249 
L 205.929935 59.297609 
L 206.1829 59.64619 
L 206.531323 59.776446 
L 206.60769 59.694247 
L 206.6411 58.566329 
L 206.674511 56.574418 
L 206.741332 59.392515 
L 207.027707 59.7036 
L 207.395222 59.78841 
L 207.447724 59.667787 
L 207.509772 56.833022 
L 207.567047 59.411253 
L 207.83433 59.70298 
L 208.22571 59.806811 
L 208.34026 59.714894 
L 208.383216 57.960411 
L 208.402308 57.179375 
L 208.469129 59.466509 
L 208.76505 59.738993 
L 209.208931 59.825214 
L 216.07239 59.917847 
L 245.654946 59.835527 
L 245.69313 59.111851 
L 245.731313 56.623115 
L 245.802907 59.003133 
L 246.032007 59.538631 
L 246.055871 59.526475 
L 246.065417 59.484944 
L 246.094055 57.746665 
L 246.137011 53.810294 
L 246.199059 58.497854 
L 246.442478 59.325368 
L 246.46157 59.30684 
L 246.466343 59.278341 
L 246.490207 57.738265 
L 246.533163 53.16718 
L 246.595211 58.421389 
L 246.833857 59.261493 
L 246.848176 59.25758 
L 246.857722 59.213899 
L 246.881587 57.522473 
L 246.924543 53.211467 
L 246.981818 58.465191 
L 247.210918 59.26048 
L 247.23001 59.272923 
L 247.249101 59.175758 
L 247.292058 54.227987 
L 247.311149 53.257428 
L 247.354106 58.258478 
L 247.487747 59.025093 
L 247.630935 59.325032 
L 247.650027 59.210015 
L 247.712075 53.331658 
L 247.774123 58.672758 
L 248.022314 59.374002 
L 248.050952 59.389235 
L 248.070044 59.290506 
L 248.113 54.468054 
L 248.132092 53.365148 
L 248.179821 58.589543 
L 248.323008 59.177129 
L 248.499606 59.463873 
L 248.518698 59.417354 
L 248.542563 58.148328 
L 248.590292 53.488553 
L 248.647567 58.842859 
L 248.867121 59.407425 
L 248.99599 59.535998 
L 249.015082 59.489943 
L 249.038946 58.389914 
L 249.086675 53.781886 
L 249.14395 58.940272 
L 249.358732 59.445918 
L 249.544876 59.605573 
L 249.563967 59.565839 
L 249.583059 58.635515 
L 249.587832 58.698033 
L 249.635561 54.275177 
L 249.692836 59.035657 
L 249.898072 59.480669 
L 250.151037 59.659884 
L 250.160582 59.647914 
L 250.179674 59.497278 
L 250.241722 54.772624 
L 250.294224 59.108603 
L 250.480368 59.4986 
L 250.790608 59.717487 
L 250.852656 59.631972 
L 250.886066 57.917336 
L 250.919477 55.426156 
L 250.981525 59.244991 
L 251.234489 59.623022 
L 251.554275 59.75239 
L 251.602004 59.651288 
L 251.64496 57.044733 
L 251.668825 56.039058 
L 251.7261 59.317053 
L 251.983838 59.65776 
L 252.337034 59.779981 
L 252.422946 59.673544 
L 252.470676 57.129895 
L 252.484994 56.682101 
L 252.537496 59.370128 
L 252.761824 59.65808 
L 253.134111 59.79901 
L 253.320255 59.718974 
L 253.358439 58.500595 
L 253.382303 57.29979 
L 253.453897 59.470403 
L 253.754591 59.73929 
L 254.179381 59.815484 
L 255.157829 59.868646 
L 259.45823 59.917842 
L 282.625982 59.917976 
L 282.625982 59.917976 
" style="fill:none;stroke:#666666;stroke-linecap:square;stroke-width:0.6;"/>
   </g>
   <g id="line2d_15">
    <path clip-path="url(#p27f1d90b76)" d="M 168.080682 80.244251 
L 170.109173 80.154074 
L 170.128264 80.155268 
L 170.147356 78.266292 
L 170.209404 65.677161 
L 170.266679 75.239851 
L 170.41464 78.746231 
L 170.5626 79.607905 
L 170.576919 79.520295 
L 170.610329 73.251128 
L 170.653286 66.716755 
L 170.705788 76.265553 
L 170.844202 78.848915 
L 171.035119 79.764955 
L 171.049438 79.709268 
L 171.073302 77.105941 
L 171.130578 65.136328 
L 171.18308 75.422282 
L 171.307176 78.71684 
L 171.541049 79.853029 
L 171.56014 79.860477 
L 171.574459 79.796905 
L 171.598324 77.340959 
L 171.660372 64.302986 
L 171.712874 76.174203 
L 171.83697 78.79819 
L 172.080389 79.898183 
L 172.128118 79.934682 
L 172.142437 79.879555 
L 172.166301 77.875255 
L 172.228349 64.197967 
L 172.280851 75.628639 
L 172.400174 78.822 
L 172.648366 79.909416 
L 172.734279 79.998317 
L 172.75337 79.925524 
L 172.782008 76.974979 
L 172.839283 64.705232 
L 172.891785 76.408734 
L 173.015881 78.951262 
L 173.264073 79.934379 
L 173.364304 80.031421 
L 173.388169 79.971052 
L 173.412033 78.440885 
L 173.474081 65.1359 
L 173.526583 76.521658 
L 173.650679 79.010186 
L 173.903644 79.952466 
L 174.02774 80.054663 
L 174.046831 79.999891 
L 174.070696 78.662472 
L 174.132744 65.336999 
L 174.185246 76.521322 
L 174.309342 79.046792 
L 174.562307 79.958041 
L 174.705494 80.073857 
L 174.724586 80.028568 
L 174.748451 79.010252 
L 174.815272 65.513615 
L 174.867774 77.253124 
L 174.996643 79.126331 
L 175.249607 79.975275 
L 175.402341 80.085229 
L 175.421432 80.040083 
L 175.445297 79.137454 
L 175.512118 65.833375 
L 175.56462 77.35776 
L 175.693489 79.155194 
L 175.946454 79.980961 
L 176.118279 80.096964 
L 176.132597 80.071802 
L 176.146916 79.812956 
L 176.228056 66.115738 
L 176.271012 74.051209 
L 176.390335 79.072235 
L 176.648073 79.966756 
L 176.83899 80.102791 
L 176.853308 80.084176 
L 176.8724 79.705465 
L 176.948767 66.455817 
L 176.996496 75.851819 
L 177.115819 79.10759 
L 177.373557 79.975056 
L 177.569246 80.10382 
L 177.578792 80.087728 
L 177.593111 79.953448 
L 177.67425 66.425746 
L 177.731526 77.883777 
L 177.865167 79.250795 
L 178.118132 80.002652 
L 178.304276 80.110048 
L 178.318595 80.083131 
L 178.332913 79.72321 
L 178.40928 66.613758 
L 178.457009 75.966767 
L 178.576332 79.125194 
L 178.83407 79.97887 
L 179.034533 80.111198 
L 179.044078 80.100534 
L 179.06317 79.920088 
L 179.14431 66.527588 
L 179.192039 76.750776 
L 179.316135 79.163857 
L 179.573873 79.987986 
L 179.764789 80.106384 
L 179.774335 80.091386 
L 179.788654 79.959409 
L 179.845929 68.954479 
L 179.869794 66.251553 
L 179.917523 75.716904 
L 180.036846 79.117124 
L 180.294583 79.975859 
L 180.533229 80.12936 
L 180.561867 80.009129 
L 180.604823 73.703369 
L 180.643007 67.224953 
L 180.700282 78.004251 
L 180.833923 79.293326 
L 181.086888 80.013806 
L 181.268259 80.114926 
L 181.282578 80.091526 
L 181.296897 79.9038 
L 181.378036 66.641924 
L 181.425765 76.959359 
L 181.549861 79.177802 
L 181.807599 79.991591 
L 182.027153 80.12391 
L 182.036699 80.111874 
L 182.055791 79.883016 
L 182.13693 66.871266 
L 182.179887 75.065784 
L 182.29921 79.138536 
L 182.556947 79.982666 
L 182.776502 80.121501 
L 182.781275 80.116857 
L 182.805139 79.917773 
L 182.886279 66.994022 
L 182.934008 77.2002 
L 183.058104 79.198286 
L 183.311069 79.978127 
L 183.587898 80.159879 
L 184.361111 80.236931 
L 188.222403 80.244554 
L 210.674217 80.173057 
L 210.688536 79.413359 
L 210.707628 79.537037 
L 210.774449 66.290816 
L 210.846043 75.874308 
L 211.036959 79.104814 
L 211.065597 79.224395 
L 211.084689 78.903327 
L 211.146737 67.47787 
L 211.204012 76.156637 
L 211.347199 78.796873 
L 211.437885 79.330473 
L 211.456976 79.054762 
L 211.523797 65.710405 
L 211.581072 76.112461 
L 211.714714 78.706177 
L 211.843583 79.450777 
L 211.862674 79.071131 
L 211.934268 63.767365 
L 211.98677 73.9882 
L 212.106093 78.537486 
L 212.282691 79.569961 
L 212.301783 79.37242 
L 212.37815 62.280888 
L 212.435425 75.202911 
L 212.554748 78.606215 
L 212.764756 79.691752 
L 212.779075 79.64221 
L 212.798167 77.860271 
L 212.864988 61.847319 
L 212.91749 72.026876 
L 213.036813 78.656361 
L 213.280232 79.77755 
L 213.299323 79.637919 
L 213.34228 69.045074 
L 213.380463 61.726577 
L 213.432965 71.413895 
L 213.552288 78.729395 
L 213.805253 79.837335 
L 213.824345 79.847554 
L 213.838663 79.78981 
L 213.862528 77.244718 
L 213.924576 61.82197 
L 213.977078 71.288986 
L 214.096401 78.796782 
L 214.354139 79.868476 
L 214.397095 79.910268 
L 214.416187 79.842284 
L 214.440051 77.415133 
L 214.502099 62.429992 
L 214.554601 73.473678 
L 214.673924 78.880391 
L 214.936435 79.898384 
L 214.998483 79.950442 
L 215.017574 79.852317 
L 215.050985 74.510478 
L 215.103487 62.91467 
L 215.155989 75.869219 
L 215.275312 78.951229 
L 215.537823 79.915604 
L 215.609416 79.977676 
L 215.628508 79.924963 
L 215.652373 78.176843 
L 215.719194 63.084198 
L 215.771696 76.40773 
L 215.895792 79.020409 
L 216.158302 79.932366 
L 216.248988 80.00411 
L 216.268079 79.915907 
L 216.296717 76.563226 
L 216.353992 63.477619 
L 216.406494 76.167601 
L 216.525817 79.017841 
L 216.788328 79.931814 
L 216.898105 80.022575 
L 216.917196 79.966744 
L 216.941061 78.492565 
L 217.007882 63.839026 
L 217.060384 76.86445 
L 217.18448 79.083776 
L 217.446991 79.949095 
L 217.556768 80.031231 
L 217.575859 79.976092 
L 217.599724 78.522907 
L 217.666545 64.025488 
L 217.714274 74.960326 
L 217.833597 79.048053 
L 218.100881 79.947309 
L 218.239295 80.053229 
L 218.258387 80.001898 
L 218.282252 78.768675 
L 218.349072 64.787945 
L 218.401575 77.282837 
L 218.52567 79.139939 
L 218.788181 79.965437 
L 218.921823 80.055624 
L 218.936142 80.02023 
L 218.960006 79.042637 
L 219.026827 64.786722 
L 219.079329 76.959495 
L 219.203425 79.133874 
L 219.465936 79.964897 
L 219.609123 80.066415 
L 219.628215 80.012311 
L 219.652079 78.713825 
L 219.7189 64.969504 
L 219.76663 76.469077 
L 219.885953 79.106456 
L 220.148463 79.959236 
L 220.301197 80.070208 
L 220.320288 80.022472 
L 220.344153 78.910863 
L 220.410974 65.010376 
L 220.463476 77.310656 
L 220.587572 79.157484 
L 220.850082 79.973228 
L 220.998043 80.072352 
L 221.017135 80.01547 
L 221.040999 78.737308 
L 221.10782 65.051719 
L 221.155549 76.542364 
L 221.279645 79.141791 
L 221.542156 79.970306 
L 221.694889 80.078185 
L 221.713981 80.029664 
L 221.7283 78.945273 
L 221.737845 78.947141 
L 221.804666 65.007964 
L 221.857168 77.275474 
L 221.981264 79.160286 
L 222.243775 79.975597 
L 222.406054 80.083625 
L 222.420373 80.056307 
L 222.434692 79.770288 
L 222.515831 65.333607 
L 222.558788 72.969297 
L 222.678111 79.100086 
L 222.940621 79.961688 
L 223.117219 80.086861 
L 223.131538 80.058493 
L 223.145857 79.685074 
L 223.226996 65.332085 
L 223.269953 73.584524 
L 223.389276 79.104145 
L 223.651786 79.963801 
L 223.833157 80.091347 
L 223.847476 80.07039 
L 223.861795 79.900542 
L 223.942934 65.733098 
L 223.995436 77.397475 
L 224.119532 79.187761 
L 224.382043 79.986231 
L 224.544322 80.089341 
L 224.563414 80.041076 
L 224.577733 78.994908 
L 224.587278 79.043434 
L 224.654099 65.379736 
L 224.706601 77.400701 
L 224.830697 79.1777 
L 225.093208 79.983755 
L 225.274579 80.095224 
L 225.288898 80.070029 
L 225.303216 79.801716 
L 225.384356 66.092528 
L 225.427312 74.640586 
L 225.546635 79.136543 
L 225.809146 79.975496 
L 225.99529 80.098695 
L 226.009609 80.073602 
L 226.023927 79.823433 
L 226.105067 65.987459 
L 226.148023 74.036118 
L 226.267346 79.128418 
L 226.529857 79.974435 
L 226.725547 80.104925 
L 226.739865 80.081373 
L 226.754184 79.887545 
L 226.835324 66.136247 
L 226.883053 76.673622 
L 227.007149 79.18114 
L 227.264886 79.981903 
L 227.527397 80.151985 
L 228.353112 80.237789 
L 233.517411 80.244473 
L 255.415567 80.171012 
L 255.45375 78.836847 
L 255.515798 66.356247 
L 255.577846 75.353593 
L 255.735353 78.777641 
L 255.806946 79.20795 
L 255.821265 78.993169 
L 255.888086 67.55902 
L 255.945361 76.497768 
L 256.10764 78.988774 
L 256.174461 79.315998 
L 256.18878 79.149482 
L 256.260374 65.709665 
L 256.322422 76.809424 
L 256.489474 79.042239 
L 256.575387 79.435899 
L 256.589705 79.292086 
L 256.666072 63.763343 
L 256.72812 76.806108 
L 256.87608 78.886265 
L 257.014495 79.563168 
L 257.028814 79.458474 
L 257.062224 71.851091 
L 257.109954 62.342405 
L 257.162456 73.663534 
L 257.281779 78.586135 
L 257.491787 79.676626 
L 257.501333 79.653255 
L 257.515652 78.737098 
L 257.592018 61.725776 
L 257.649293 76.274334 
L 257.773389 78.744004 
L 258.00249 79.771635 
L 258.012035 79.757749 
L 258.026354 79.42369 
L 258.107494 61.690995 
L 258.155223 70.293072 
L 258.274546 78.7165 
L 258.527511 79.835705 
L 258.551375 79.847596 
L 258.565694 79.762039 
L 258.594332 75.338574 
L 258.651607 61.902163 
L 258.704109 73.93934 
L 258.823432 78.816799 
L 259.081169 79.871803 
L 259.119353 79.902029 
L 259.138444 79.815956 
L 259.167082 75.677845 
L 259.224357 62.359355 
L 259.276859 74.886959 
L 259.396182 78.887552 
L 259.658693 79.899236 
L 259.711195 79.945969 
L 259.730286 79.885302 
L 259.754151 77.800138 
L 259.820972 62.625319 
L 259.868701 72.768973 
L 259.988024 78.917922 
L 260.250535 79.906851 
L 260.331674 79.97309 
L 260.350766 79.868816 
L 260.384176 74.598234 
L 260.436679 63.069731 
L 260.489181 76.185181 
L 260.613277 79.015949 
L 260.875787 79.930751 
L 260.966473 80.004618 
L 260.985564 79.942154 
L 261.009429 78.128431 
L 261.07625 63.500889 
L 261.123979 74.911748 
L 261.243302 79.005781 
L 261.505813 79.928124 
L 261.61559 80.019688 
L 261.634681 79.948327 
L 261.663319 77.054738 
L 261.720594 63.75721 
L 261.773096 75.794425 
L 261.892419 79.035427 
L 262.15493 79.936112 
L 262.279026 80.033987 
L 262.298117 79.969155 
L 262.326755 77.276309 
L 262.38403 64.183018 
L 262.436532 76.222114 
L 262.555855 79.063268 
L 262.818366 79.944185 
L 262.947234 80.048444 
L 262.971099 79.977421 
L 262.999736 77.369032 
L 263.057012 64.496374 
L 263.109514 76.571812 
L 263.23361 79.112307 
L 263.49612 79.957825 
L 263.629762 80.054902 
L 263.648854 80.005274 
L 263.672718 78.751165 
L 263.739539 64.719957 
L 263.792041 77.274621 
L 263.916137 79.142513 
L 264.178648 79.96645 
L 264.307516 80.06265 
L 264.331381 79.987917 
L 264.360019 77.480716 
L 264.422067 64.481194 
L 264.469796 76.402302 
L 264.589119 79.09138 
L 264.851629 79.954148 
L 265.018682 80.073584 
L 265.033 80.040742 
L 265.052092 79.152295 
L 265.056865 79.214418 
L 265.123686 65.196626 
L 265.176188 77.027444 
L 265.300284 79.153852 
L 265.562794 79.971897 
L 265.710755 80.073195 
L 265.729847 80.029753 
L 265.753711 79.056307 
L 265.820532 65.15063 
L 265.873034 77.239435 
L 265.99713 79.161241 
L 266.259641 79.974936 
L 266.407601 80.075267 
L 266.426693 80.025443 
L 266.441012 78.886471 
L 266.450557 78.908576 
L 266.517378 65.067271 
L 266.56988 77.35934 
L 266.693976 79.164781 
L 266.956487 79.976244 
L 267.113993 80.082039 
L 267.133085 80.031925 
L 267.147404 78.92537 
L 267.15695 78.965993 
L 267.22377 65.166253 
L 267.276273 77.357331 
L 267.400368 79.168734 
L 267.662879 79.978467 
L 267.820385 80.080626 
L 267.834704 80.056003 
L 267.849023 79.746552 
L 267.930163 65.103117 
L 267.973119 72.485993 
L 268.092442 79.090639 
L 268.354952 79.959339 
L 268.541096 80.093678 
L 268.555415 80.072977 
L 268.574507 79.597437 
L 268.650873 65.635112 
L 268.703376 77.141237 
L 268.827471 79.175884 
L 269.089982 79.982526 
L 269.285672 80.101696 
L 269.295218 80.088538 
L 269.314309 79.775427 
L 269.395449 66.443559 
L 269.438405 75.701609 
L 269.557728 79.152168 
L 269.820239 79.962745 
L 270.097068 80.151167 
L 270.813006 80.23418 
L 273.877221 80.244609 
L 282.625982 80.244702 
L 282.625982 80.244702 
" style="fill:none;stroke:#666666;stroke-linecap:square;stroke-width:0.6;"/>
   </g>
   <g id="line2d_16">
    <path clip-path="url(#p27f1d90b76)" d="M 286.444318 77.7825 
L 286.444318 71.6225 
" style="fill:none;stroke:#000000;stroke-linecap:square;stroke-width:1.5;"/>
   </g>
   <g id="patch_6">
    <path d="M 162.1625 80.2465 
L 162.1625 19.2625 
" style="fill:none;stroke:#000000;stroke-linecap:square;stroke-linejoin:miter;stroke-width:1.5;"/>
   </g>
   <g id="patch_7">
    <path d="M 162.1625 80.2465 
L 292.3625 80.2465 
" style="fill:none;stroke:#000000;stroke-linecap:square;stroke-linejoin:miter;stroke-width:1.5;"/>
   </g>
   <g id="text_13">
    <!-- Average Energy: 29.4 $\mu$J/s -->
    <g transform="translate(175.3425 13.2625)">
     <text>
      <tspan style="font-family:DejaVu Sans;font-size:8px;font-style:book;font-weight:book;" x="0 5.472656 10.207031 15.128906 18.417969 23.320312 28.398438 33.320312 35.863281 40.917969 45.988281 50.910156 54.199219 59.277344 64.011719 66.707031 69.25 74.214844 79.304688 81.847656 86.9375 89.480469 94.570312 96.929688 99.625" y="-0.0625">Average Energy: 29.4 μJ/s</tspan>
     </text>
    </g>
   </g>
  </g>
 </g>
 <defs>
  <clipPath id="pd1bd09b954">
   <rect height="60.984" width="130.2" x="18.9425" y="19.2625"/>
  </clipPath>
  <clipPath id="p27f1d90b76">
   <rect height="60.984" width="130.2" x="162.1625" y="19.2625"/>
  </clipPath>
 </defs>
</svg>
