<?xml version="1.0" encoding="utf-8" standalone="no"?>
<!DOCTYPE svg PUBLIC "-//W3C//DTD SVG 1.1//EN"
  "http://www.w3.org/Graphics/SVG/1.1/DTD/svg11.dtd">
<!-- Created with matplotlib (https://matplotlib.org/) -->
<svg height="113.9315pt" version="1.1" viewBox="0 0 299.5625 113.9315" width="299.5625pt" xmlns="http://www.w3.org/2000/svg" xmlns:xlink="http://www.w3.org/1999/xlink">
 <metadata>
  <rdf:RDF xmlns:cc="http://creativecommons.org/ns#" xmlns:dc="http://purl.org/dc/elements/1.1/" xmlns:rdf="http://www.w3.org/1999/02/22-rdf-syntax-ns#">
   <cc:Work>
    <dc:type rdf:resource="http://purl.org/dc/dcmitype/StillImage"/>
    <dc:date>2020-10-15T12:03:26.485790</dc:date>
    <dc:format>image/svg+xml</dc:format>
    <dc:creator>
     <cc:Agent>
      <dc:title>Matplotlib v3.3.2, https://matplotlib.org/</dc:title>
     </cc:Agent>
    </dc:creator>
   </cc:Work>
  </rdf:RDF>
 </metadata>
 <defs>
  <style type="text/css">*{stroke-linecap:butt;stroke-linejoin:round;}</style>
 </defs>
 <g id="figure_1">
  <g id="patch_1">
   <path d="M 0 113.9315 
L 299.5625 113.9315 
L 299.5625 0 
L 0 0 
z
" style="fill:none;"/>
  </g>
  <g id="axes_1">
   <g id="patch_2">
    <path d="M 18.9425 80.2465 
L 149.1425 80.2465 
L 149.1425 19.2625 
L 18.9425 19.2625 
z
" style="fill:none;"/>
   </g>
   <g id="matplotlib.axis_1">
    <g id="xtick_1">
     <g id="line2d_1">
      <defs>
       <path d="M 0 0 
L 0 3.5 
" id="mbe157f16e1" style="stroke:#000000;stroke-width:1.5;"/>
      </defs>
      <g>
       <use style="stroke:#000000;stroke-width:1.5;" x="24.860682" xlink:href="#mbe157f16e1" y="80.2465"/>
      </g>
     </g>
     <g id="text_1">
      <text style="font-family:DejaVu Sans;font-size:8px;font-stretch:normal;font-style:normal;font-weight:normal;text-anchor:middle;" transform="rotate(-0, 24.860682, 93.32525)" x="24.860682" y="93.32525">0</text>
     </g>
    </g>
    <g id="xtick_2">
     <g id="line2d_2">
      <g>
       <use style="stroke:#000000;stroke-width:1.5;" x="63.04404" xlink:href="#mbe157f16e1" y="80.2465"/>
      </g>
     </g>
     <g id="text_2">
      <text style="font-family:DejaVu Sans;font-size:8px;font-stretch:normal;font-style:normal;font-weight:normal;text-anchor:middle;" transform="rotate(-0, 63.04404, 93.32525)" x="63.04404" y="93.32525">1</text>
     </g>
    </g>
    <g id="xtick_3">
     <g id="line2d_3">
      <g>
       <use style="stroke:#000000;stroke-width:1.5;" x="101.227397" xlink:href="#mbe157f16e1" y="80.2465"/>
      </g>
     </g>
     <g id="text_3">
      <text style="font-family:DejaVu Sans;font-size:8px;font-stretch:normal;font-style:normal;font-weight:normal;text-anchor:middle;" transform="rotate(-0, 101.227397, 93.32525)" x="101.227397" y="93.32525">2</text>
     </g>
    </g>
    <g id="xtick_4">
     <g id="line2d_4">
      <g>
       <use style="stroke:#000000;stroke-width:1.5;" x="139.410755" xlink:href="#mbe157f16e1" y="80.2465"/>
      </g>
     </g>
     <g id="text_4">
      <text style="font-family:DejaVu Sans;font-size:8px;font-stretch:normal;font-style:normal;font-weight:normal;text-anchor:middle;" transform="rotate(-0, 139.410755, 93.32525)" x="139.410755" y="93.32525">3</text>
     </g>
    </g>
    <g id="text_5">
     <text style="font-family:DejaVu Sans;font-size:8px;font-stretch:normal;font-style:normal;font-weight:normal;text-anchor:middle;" transform="rotate(-0, 84.0425, 105.06775)" x="84.0425" y="105.06775">Time (seconds)</text>
    </g>
   </g>
   <g id="matplotlib.axis_2">
    <g id="text_6">
     <text style="font-family:DejaVu Sans;font-size:8px;font-stretch:normal;font-style:normal;font-weight:normal;text-anchor:middle;" transform="rotate(-90, 13.27875, 49.7545)" x="13.27875" y="49.7545">Energy</text>
    </g>
   </g>
   <g id="line2d_5">
    <path clip-path="url(#p1f2a1c74fa)" d="M 24.860682 39.590363 
L 48.801647 39.517779 
L 48.839831 38.51048 
L 48.88756 33.314254 
L 48.949608 38.217062 
L 49.159616 39.163936 
L 49.37917 39.409746 
L 49.383943 39.406583 
L 49.403035 39.315396 
L 49.441218 35.398342 
L 49.484175 30.31168 
L 49.536677 37.993504 
L 49.679864 38.855917 
L 49.947148 39.369019 
L 50.08079 39.419867 
L 50.095108 39.37132 
L 50.109427 37.954169 
L 50.123746 37.956121 
L 50.176248 30.359343 
L 50.22875 38.0283 
L 50.362392 38.889826 
L 50.639221 39.377314 
L 50.873094 39.458285 
L 50.88264 39.439529 
L 50.896959 39.221291 
L 50.973326 31.256919 
L 51.011509 37.442949 
L 51.130832 38.917559 
L 51.412434 39.385618 
L 51.73222 39.505749 
L 51.789495 39.398596 
L 51.837224 34.862852 
L 51.865862 32.098187 
L 51.923137 38.593429 
L 52.071097 39.097655 
L 52.362245 39.442337 
L 52.739306 39.527384 
L 52.791808 39.442118 
L 52.829991 37.273607 
L 52.872948 32.635431 
L 52.930223 38.730778 
L 53.097275 39.180715 
L 53.393196 39.467951 
L 53.84185 39.549157 
L 54.061405 39.47425 
L 54.099588 37.895642 
L 54.137771 33.906041 
L 54.199819 38.858192 
L 54.395509 39.27679 
L 54.700976 39.498942 
L 55.259408 39.558702 
L 55.483735 39.469984 
L 55.526691 37.214978 
L 55.560102 34.338494 
L 55.622149 38.907874 
L 55.841704 39.327053 
L 56.151944 39.514415 
L 56.810606 39.564931 
L 57.373811 39.476737 
L 57.416767 37.434789 
L 57.450178 34.882266 
L 57.512226 38.948355 
L 57.750872 39.367927 
L 58.070657 39.528506 
L 58.886827 39.572999 
L 64.514099 39.590367 
L 94.698043 39.51154 
L 94.736227 38.414334 
L 94.783956 33.168788 
L 94.846004 38.200413 
L 95.056012 39.156028 
L 95.289885 39.417086 
L 95.318523 39.296287 
L 95.39489 30.48719 
L 95.452165 38.067163 
L 95.604898 38.897156 
L 95.872182 39.378127 
L 95.991505 39.415587 
L 96.005823 39.368509 
L 96.034461 37.965976 
L 96.086963 30.417814 
L 96.139465 38.042571 
L 96.273107 38.887938 
L 96.549936 39.375746 
L 96.774263 39.453647 
L 96.783809 39.433841 
L 96.798128 39.13978 
L 96.869722 31.126249 
L 96.912678 37.55397 
L 97.036774 38.924458 
L 97.318376 39.386767 
L 97.638162 39.502214 
L 97.681118 39.388265 
L 97.73362 33.842507 
L 97.757485 31.882342 
L 97.809987 38.462779 
L 97.943629 39.046513 
L 98.230004 39.424574 
L 98.597519 39.529253 
L 98.692977 39.457167 
L 98.73116 37.521206 
L 98.774117 32.661157 
L 98.831392 38.714302 
L 98.993671 39.169162 
L 99.289592 39.464641 
L 99.728701 39.545781 
L 99.881434 39.477407 
L 99.919617 37.987582 
L 99.962574 33.648292 
L 100.024622 38.855836 
L 100.23463 39.291055 
L 100.540097 39.501357 
L 101.098529 39.55639 
L 101.303764 39.487567 
L 101.341948 38.131934 
L 101.380131 34.444673 
L 101.446952 38.929521 
L 101.690371 39.358772 
L 102.010156 39.522781 
L 102.769051 39.56604 
L 103.236797 39.488196 
L 103.279753 37.58046 
L 103.313163 34.800887 
L 103.379984 38.953782 
L 103.637722 39.38747 
L 103.96228 39.532997 
L 104.835725 39.567099 
L 105.308244 39.445168 
L 105.379838 35.1196 
L 105.43234 38.900599 
L 105.599392 39.276904 
L 105.895313 39.505821 
L 106.444199 39.566544 
L 111.603725 39.590338 
L 139.405982 39.589249 
L 139.405982 39.589249 
" style="fill:none;stroke:#666666;stroke-linecap:square;stroke-width:0.6;"/>
   </g>
   <g id="line2d_6">
    <path clip-path="url(#p1f2a1c74fa)" d="M 24.860682 59.758945 
L 24.903638 59.669946 
L 24.965686 57.057608 
L 25.022961 59.447003 
L 25.280699 59.718141 
L 25.528891 59.7687 
L 25.538436 59.74552 
L 25.571847 59.108429 
L 25.605257 57.418305 
L 25.672078 59.519048 
L 25.963226 59.761109 
L 26.23051 59.784372 
L 26.235283 59.77285 
L 26.254374 59.435336 
L 26.306876 57.675785 
L 26.359379 59.545201 
L 26.617116 59.75957 
L 27.013269 59.81794 
L 27.046679 59.731582 
L 27.103954 58.18607 
L 27.166002 59.61035 
L 27.476242 59.800433 
L 27.862848 59.803873 
L 27.886713 59.569953 
L 27.934442 58.402113 
L 27.991717 59.631424 
L 28.287638 59.803749 
L 28.760157 59.823872 
L 28.793568 59.698128 
L 28.84607 58.697055 
L 28.903345 59.661225 
L 29.213585 59.816509 
L 29.69565 59.820464 
L 29.724287 59.619575 
L 29.772016 58.775555 
L 29.829291 59.672711 
L 30.139531 59.821243 
L 30.779102 59.860179 
L 34.287198 59.917328 
L 67.34444 59.874475 
L 67.373078 59.732673 
L 67.430353 58.530984 
L 67.492401 59.488971 
L 67.740593 59.750536 
L 67.793095 59.733287 
L 67.802641 59.691128 
L 67.840824 58.060675 
L 67.869461 56.877914 
L 67.936282 59.282085 
L 68.198793 59.670718 
L 68.251295 59.677828 
L 68.265614 59.622912 
L 68.303797 57.664595 
L 68.327662 56.473859 
L 68.394483 59.250825 
L 68.661766 59.653494 
L 68.723814 59.666978 
L 68.738133 59.617364 
L 68.771543 58.195913 
L 68.804954 56.477037 
L 68.867002 59.286603 
L 69.139058 59.665488 
L 69.220198 59.676363 
L 69.229744 59.640679 
L 69.263154 58.374724 
L 69.296564 56.622942 
L 69.363385 59.349757 
L 69.644988 59.692662 
L 69.745219 59.707236 
L 69.759538 59.64486 
L 69.807267 57.195891 
L 69.821586 56.83844 
L 69.864542 59.313888 
L 70.012502 59.584138 
L 70.298878 59.743 
L 70.303651 59.737911 
L 70.327515 59.528303 
L 70.38479 57.006355 
L 70.437292 59.427051 
L 70.671165 59.695778 
L 70.933676 59.75943 
L 70.938449 59.748908 
L 70.957541 59.500256 
L 71.010043 57.452059 
L 71.067318 59.499402 
L 71.334601 59.742815 
L 71.606658 59.77603 
L 71.611431 59.763816 
L 71.630522 59.408137 
L 71.683024 57.646088 
L 71.735526 59.535642 
L 71.993264 59.754345 
L 72.351233 59.80515 
L 72.379871 59.64138 
L 72.432373 58.011745 
L 72.489648 59.585646 
L 72.77125 59.782912 
L 73.210359 59.825045 
L 73.248542 59.645361 
L 73.301044 58.529753 
L 73.358319 59.639628 
L 73.673332 59.809567 
L 74.050393 59.805339 
L 74.074257 59.532917 
L 74.121986 58.495264 
L 74.179261 59.644679 
L 74.489501 59.811873 
L 74.981112 59.828878 
L 75.019295 59.647671 
L 75.071797 58.813922 
L 75.129072 59.676912 
L 75.458404 59.825562 
L 75.997744 59.827002 
L 76.031154 59.689865 
L 76.083656 58.996904 
L 76.140931 59.693471 
L 76.446398 59.825708 
L 76.895053 59.812306 
L 76.942782 59.386849 
L 76.966647 58.776832 
L 77.043013 59.702252 
L 77.420074 59.844442 
L 78.441479 59.894814 
L 85.777456 59.918121 
L 115.326602 59.834961 
L 115.374332 59.080778 
L 115.393423 58.539761 
L 115.474563 59.521961 
L 115.727528 59.753843 
L 115.770484 59.67593 
L 115.832532 56.989346 
L 115.904126 59.291212 
L 116.166636 59.670421 
L 116.209593 59.66191 
L 116.219138 59.622453 
L 116.252549 58.197972 
L 116.285959 56.478028 
L 116.35278 59.252564 
L 116.624837 59.654702 
L 116.672566 59.651534 
L 116.682112 59.61198 
L 116.715522 58.185159 
L 116.748932 56.449976 
L 116.81098 59.274575 
L 117.078264 59.657223 
L 117.154631 59.67268 
L 117.168949 59.613355 
L 117.211906 57.257483 
L 117.230997 56.554702 
L 117.288272 59.307306 
L 117.531691 59.651096 
L 117.670106 59.703855 
L 117.684425 59.658613 
L 117.717835 58.417091 
L 117.751246 56.731478 
L 117.818066 59.394511 
L 118.099669 59.708802 
L 118.238083 59.723783 
L 118.247629 59.68749 
L 118.285813 58.226507 
L 118.31445 57.051402 
L 118.381271 59.45507 
L 118.672419 59.735906 
L 118.849017 59.752388 
L 118.858563 59.714201 
L 118.896746 58.401715 
L 118.920611 57.313106 
L 118.992205 59.505895 
L 119.288126 59.757222 
L 119.517226 59.767424 
L 119.521999 59.749909 
L 119.560182 58.807642 
L 119.58882 57.551395 
L 119.660413 59.552756 
L 119.96588 59.778722 
L 120.27612 59.784064 
L 120.314303 59.250259 
L 120.347714 57.980738 
L 120.414535 59.599357 
L 120.73432 59.799374 
L 121.116154 59.804908 
L 121.140019 59.598352 
L 121.192521 58.398445 
L 121.249796 59.631639 
L 121.564808 59.808068 
L 121.97528 59.808691 
L 122.003917 59.485025 
L 122.051646 58.587437 
L 122.104148 59.647174 
L 122.395296 59.807016 
L 122.867816 59.829008 
L 122.901226 59.705414 
L 122.953728 58.705833 
L 123.011003 59.665082 
L 123.31647 59.817499 
L 123.927404 59.855071 
L 124.944036 59.887487 
L 131.134513 59.918117 
L 139.405982 59.918069 
L 139.405982 59.918069 
" style="fill:none;stroke:#666666;stroke-linecap:square;stroke-width:0.6;"/>
   </g>
   <g id="line2d_7">
    <path clip-path="url(#p1f2a1c74fa)" d="M 24.860682 80.245837 
L 31.824372 80.13719 
L 31.876874 77.55331 
L 31.900738 76.750365 
L 31.962786 79.027422 
L 32.177568 79.901556 
L 32.277799 79.988164 
L 32.301664 79.906648 
L 32.349393 76.654078 
L 32.368485 76.185266 
L 32.411441 78.912033 
L 32.588039 79.74238 
L 32.726454 79.933754 
L 32.745545 79.857442 
L 32.783729 76.990216 
L 32.812366 75.407909 
L 32.874414 79.064767 
L 33.117833 79.881513 
L 33.189427 79.937749 
L 33.208518 79.863462 
L 33.246702 76.793175 
L 33.275339 74.919687 
L 33.337387 79.099776 
L 33.580806 79.880328 
L 33.700129 79.980237 
L 33.719221 79.903834 
L 33.757404 76.918532 
L 33.786042 74.928289 
L 33.84809 79.188527 
L 34.086736 79.891961 
L 34.249015 80.028819 
L 34.268107 79.973121 
L 34.296744 78.682999 
L 34.3397 74.945144 
L 34.401748 79.273381 
L 34.645167 79.919398 
L 34.855176 80.066881 
L 34.864722 80.053013 
L 34.883813 79.826455 
L 34.945861 75.231925 
L 34.998363 79.28879 
L 35.174961 79.822138 
L 35.447018 80.098512 
L 35.547249 80.079393 
L 35.552022 80.057088 
L 35.585432 78.74984 
L 35.623616 75.775249 
L 35.685664 79.451298 
L 35.933856 79.979032 
L 36.220231 80.134646 
L 36.272733 80.045117 
L 36.320462 76.918927 
L 36.344327 75.982647 
L 36.396829 79.472417 
L 36.61161 79.947892 
L 36.902758 80.143373 
L 37.0364 80.097325 
L 37.06981 79.125647 
L 37.107994 76.217151 
L 37.174815 79.555884 
L 37.442098 80.031339 
L 37.757111 80.167796 
L 37.871661 80.073406 
L 37.924163 76.953207 
L 37.938482 76.484905 
L 37.986211 79.504065 
L 38.153263 79.907267 
L 38.444411 80.142221 
L 38.735559 80.144779 
L 38.740332 80.129203 
L 38.759424 79.406001 
L 38.773743 79.497248 
L 38.816699 76.728502 
L 38.878747 79.621253 
L 39.150803 80.058914 
L 39.489681 80.183646 
L 39.628095 80.115152 
L 39.666279 78.733864 
L 39.699689 76.612439 
L 39.76651 79.62469 
L 40.043339 80.064784 
L 40.382217 80.188273 
L 40.558815 80.124178 
L 40.596998 78.829721 
L 40.630409 76.666284 
L 40.697229 79.631724 
L 40.969286 80.064512 
L 41.308163 80.190127 
L 41.58022 80.124507 
L 41.623176 78.430441 
L 41.651813 77.038741 
L 41.718634 79.671647 
L 41.995464 80.082878 
L 42.34866 80.195583 
L 42.587306 80.107692 
L 42.654127 77.081252 
L 42.720947 79.669128 
L 42.993004 80.080746 
L 43.341427 80.196538 
L 43.599165 80.131121 
L 43.642121 78.483288 
L 43.670758 77.031 
L 43.737579 79.667057 
L 44.014409 80.085103 
L 44.367605 80.199174 
L 44.673072 80.134787 
L 44.716028 78.605249 
L 44.744665 77.264656 
L 44.811486 79.689774 
L 45.088316 80.094013 
L 45.446285 80.201921 
L 45.751751 80.145635 
L 45.789935 79.197381 
L 45.823345 77.262432 
L 45.894939 79.695659 
L 46.171768 80.09746 
L 46.529737 80.20364 
L 46.859069 80.144909 
L 46.897252 79.188468 
L 46.930663 77.313037 
L 47.002256 79.700161 
L 47.279086 80.10031 
L 47.637055 80.204933 
L 48.052299 80.145239 
L 48.095255 78.78928 
L 48.123893 77.493224 
L 48.195486 79.717898 
L 48.467543 80.104882 
L 48.825512 80.207181 
L 50.491261 80.245685 
L 76.952328 80.160437 
L 76.995284 78.792453 
L 77.028694 76.554599 
L 77.100288 79.039545 
L 77.31507 79.899002 
L 77.424847 79.98725 
L 77.443938 79.913083 
L 77.486895 76.975041 
L 77.510759 76.09014 
L 77.568034 79.027966 
L 77.801907 79.873329 
L 77.868728 79.927636 
L 77.88782 79.867469 
L 77.92123 77.736411 
L 77.954641 75.381945 
L 78.021462 79.075841 
L 78.269654 79.887012 
L 78.336474 79.932726 
L 78.355566 79.8381 
L 78.422387 74.967041 
L 78.484435 79.107644 
L 78.732627 79.887334 
L 78.837631 79.972094 
L 78.856723 79.906028 
L 78.890133 77.632014 
L 78.923544 74.953997 
L 78.985592 79.180032 
L 79.224238 79.888009 
L 79.372198 80.017447 
L 79.39129 79.982236 
L 79.405608 79.57716 
L 79.467656 74.937998 
L 79.515386 79.156102 
L 79.677665 79.745372 
L 79.940175 80.06166 
L 79.983132 80.029362 
L 79.987905 80.003705 
L 80.021315 78.320683 
L 80.059498 75.170341 
L 80.121546 79.344877 
L 80.364965 79.938052 
L 80.61793 80.094071 
L 80.646568 79.916709 
L 80.713388 75.502333 
L 80.761118 79.344857 
L 80.92817 79.829419 
L 81.209772 80.108871 
L 81.338641 80.100056 
L 81.348187 80.052521 
L 81.38637 78.018903 
L 81.419781 75.794328 
L 81.481829 79.487241 
L 81.739566 79.998634 
L 82.035487 80.147964 
L 82.111854 80.047016 
L 82.178675 76.135254 
L 82.240723 79.532073 
L 82.493688 80.009139 
L 82.803927 80.161925 
L 82.937569 80.112258 
L 82.942342 80.073508 
L 83.009163 76.501423 
L 83.075984 79.597349 
L 83.34804 80.048646 
L 83.672599 80.174148 
L 83.787149 80.076068 
L 83.844424 76.789893 
L 83.85397 76.584489 
L 83.882607 78.124575 
L 84.00193 79.802785 
L 84.283532 80.113455 
L 84.651047 80.176754 
L 84.689231 80.058474 
L 84.756051 76.79491 
L 84.813327 79.616027 
L 85.066291 80.042632 
L 85.39085 80.180884 
L 85.615177 80.10741 
L 85.658133 78.168413 
L 85.686771 76.846625 
L 85.748819 79.64151 
L 86.020875 80.067666 
L 86.359753 80.188862 
L 86.564988 80.099386 
L 86.631809 76.969568 
L 86.69863 79.659259 
L 86.970686 80.074741 
L 87.314336 80.192138 
L 87.524345 80.127887 
L 87.562528 78.896992 
L 87.595939 76.906714 
L 87.66276 79.657516 
L 87.939589 80.078937 
L 88.288012 80.195218 
L 88.574387 80.125439 
L 88.617344 78.451867 
L 88.645981 77.156678 
L 88.712802 79.684227 
L 88.989631 80.089351 
L 89.342827 80.199109 
L 89.595792 80.144545 
L 89.633975 79.179577 
L 89.667386 77.042328 
L 89.73898 79.674702 
L 90.015809 80.088141 
L 90.369005 80.200167 
L 90.707882 80.144629 
L 90.746066 79.157428 
L 90.779476 77.292899 
L 90.85107 79.702789 
L 91.127899 80.098613 
L 91.485868 80.202599 
L 91.791335 80.132662 
L 91.834291 78.569864 
L 91.862929 77.248048 
L 91.92975 79.685987 
L 92.206579 80.095548 
L 92.559775 80.202733 
L 92.889107 80.131294 
L 92.932063 78.524618 
L 92.960701 77.217105 
L 93.027521 79.682179 
L 93.299578 80.092471 
L 93.648001 80.203435 
L 94.182568 80.165882 
L 94.220751 79.593 
L 94.254162 77.660761 
L 94.325756 79.724737 
L 94.597812 80.108487 
L 94.955781 80.204443 
L 96.401976 80.245543 
L 125.35928 80.171509 
L 125.378371 79.496281 
L 125.397463 79.500821 
L 125.440419 76.606122 
L 125.512013 79.065029 
L 125.726794 79.907645 
L 125.81748 79.973436 
L 125.836572 79.876094 
L 125.89862 76.183731 
L 125.970213 79.123557 
L 126.208859 79.903676 
L 126.251816 79.920072 
L 126.266134 79.869884 
L 126.294772 78.386745 
L 126.332955 75.406774 
L 126.399776 79.081182 
L 126.647968 79.893117 
L 126.705243 79.934983 
L 126.724335 79.874355 
L 126.757745 77.540671 
L 126.791156 74.922101 
L 126.853204 79.093139 
L 127.091849 79.872665 
L 127.201627 79.979308 
L 127.225491 79.899486 
L 127.263675 76.836722 
L 127.292312 74.80401 
L 127.35436 79.174558 
L 127.588233 79.880682 
L 127.755285 80.027091 
L 127.774377 79.982572 
L 127.803015 78.83362 
L 127.845971 74.971663 
L 127.908019 79.270077 
L 128.141892 79.905652 
L 128.361446 80.066103 
L 128.370992 80.055499 
L 128.390084 79.858197 
L 128.452132 75.2927 
L 128.504634 79.289072 
L 128.676459 79.815156 
L 128.948515 80.097132 
L 129.039201 80.078132 
L 129.048747 80.022657 
L 129.091703 77.145279 
L 129.12034 75.624883 
L 129.177615 79.429762 
L 129.416261 79.96078 
L 129.702637 80.134595 
L 129.77423 80.05037 
L 129.817187 77.487658 
L 129.845824 76.064554 
L 129.907872 79.520396 
L 130.175156 80.020016 
L 130.480623 80.15514 
L 130.547443 80.049204 
L 130.614264 76.234023 
L 130.676312 79.546271 
L 130.93405 80.020079 
L 131.249063 80.165362 
L 131.363613 80.089953 
L 131.401796 78.436055 
L 131.435206 76.451346 
L 131.502027 79.602791 
L 131.778857 80.054804 
L 132.112961 80.179346 
L 132.260922 80.118612 
L 132.299105 78.816151 
L 132.332515 76.777849 
L 132.399336 79.63643 
L 132.676166 80.067477 
L 133.015043 80.185208 
L 133.186868 80.105499 
L 133.229824 78.17607 
L 133.253689 76.90591 
L 133.32051 79.644873 
L 133.592566 80.068569 
L 133.931443 80.188315 
L 134.108041 80.128662 
L 134.146225 78.961176 
L 134.179635 76.872023 
L 134.246456 79.648507 
L 134.523286 80.074777 
L 134.866936 80.192025 
L 135.08649 80.135196 
L 135.124673 79.009561 
L 135.158084 76.986326 
L 135.224905 79.662136 
L 135.501734 80.080608 
L 135.850157 80.194698 
L 136.098349 80.14511 
L 136.136532 79.219347 
L 136.169943 77.188014 
L 136.241537 79.690751 
L 136.518366 80.090874 
L 136.871562 80.197751 
L 137.124527 80.137959 
L 137.16271 79.109451 
L 137.196121 77.226106 
L 137.262941 79.685119 
L 137.539771 80.091361 
L 137.892967 80.199935 
L 138.184115 80.122187 
L 138.231844 78.027009 
L 138.250936 77.278387 
L 138.317757 79.6828 
L 138.589813 80.089626 
L 138.938236 80.200853 
L 139.296205 80.157005 
L 139.334389 79.357776 
L 139.367799 77.239421 
L 139.405982 79.451792 
L 139.405982 79.451792 
" style="fill:none;stroke:#666666;stroke-linecap:square;stroke-width:0.6;"/>
   </g>
   <g id="line2d_8">
    <path clip-path="url(#p1f2a1c74fa)" d="M 143.224318 76.5505 
L 143.224318 67.3105 
" style="fill:none;stroke:#000000;stroke-linecap:square;stroke-width:1.5;"/>
   </g>
   <g id="patch_3">
    <path d="M 18.9425 80.2465 
L 18.9425 19.2625 
" style="fill:none;stroke:#000000;stroke-linecap:square;stroke-linejoin:miter;stroke-width:1.5;"/>
   </g>
   <g id="patch_4">
    <path d="M 18.9425 80.2465 
L 149.1425 80.2465 
" style="fill:none;stroke:#000000;stroke-linecap:square;stroke-linejoin:miter;stroke-width:1.5;"/>
   </g>
   <g id="text_7">
    <!-- Average Energy: 46.0 $\mu$J/s -->
    <g transform="translate(32.0825 13.2625)">
     <text>
      <tspan style="font-family:DejaVu Sans;font-size:8px;font-style:book;font-weight:book;" x="0 5.472656 10.207031 15.128906 18.417969 23.320312 28.398438 33.320312 35.863281 40.917969 45.988281 50.910156 54.199219 59.277344 64.011719 66.707031 69.25 74.339844 79.429688 81.972656 87.0625 89.605469 94.695312 97.054688 99.75" y="-0.0625">Average Energy: 46.0 μJ/s</tspan>
     </text>
    </g>
   </g>
  </g>
  <g id="axes_2">
   <g id="patch_5">
    <path d="M 162.1625 80.2465 
L 292.3625 80.2465 
L 292.3625 19.2625 
L 162.1625 19.2625 
z
" style="fill:none;"/>
   </g>
   <g id="matplotlib.axis_3">
    <g id="xtick_5">
     <g id="line2d_9">
      <g>
       <use style="stroke:#000000;stroke-width:1.5;" x="168.080682" xlink:href="#mbe157f16e1" y="80.2465"/>
      </g>
     </g>
     <g id="text_8">
      <text style="font-family:DejaVu Sans;font-size:8px;font-stretch:normal;font-style:normal;font-weight:normal;text-anchor:middle;" transform="rotate(-0, 168.080682, 93.32525)" x="168.080682" y="93.32525">0</text>
     </g>
    </g>
    <g id="xtick_6">
     <g id="line2d_10">
      <g>
       <use style="stroke:#000000;stroke-width:1.5;" x="206.26404" xlink:href="#mbe157f16e1" y="80.2465"/>
      </g>
     </g>
     <g id="text_9">
      <text style="font-family:DejaVu Sans;font-size:8px;font-stretch:normal;font-style:normal;font-weight:normal;text-anchor:middle;" transform="rotate(-0, 206.26404, 93.32525)" x="206.26404" y="93.32525">1</text>
     </g>
    </g>
    <g id="xtick_7">
     <g id="line2d_11">
      <g>
       <use style="stroke:#000000;stroke-width:1.5;" x="244.447397" xlink:href="#mbe157f16e1" y="80.2465"/>
      </g>
     </g>
     <g id="text_10">
      <text style="font-family:DejaVu Sans;font-size:8px;font-stretch:normal;font-style:normal;font-weight:normal;text-anchor:middle;" transform="rotate(-0, 244.447397, 93.32525)" x="244.447397" y="93.32525">2</text>
     </g>
    </g>
    <g id="xtick_8">
     <g id="line2d_12">
      <g>
       <use style="stroke:#000000;stroke-width:1.5;" x="282.630755" xlink:href="#mbe157f16e1" y="80.2465"/>
      </g>
     </g>
     <g id="text_11">
      <text style="font-family:DejaVu Sans;font-size:8px;font-stretch:normal;font-style:normal;font-weight:normal;text-anchor:middle;" transform="rotate(-0, 282.630755, 93.32525)" x="282.630755" y="93.32525">3</text>
     </g>
    </g>
    <g id="text_12">
     <text style="font-family:DejaVu Sans;font-size:8px;font-stretch:normal;font-style:normal;font-weight:normal;text-anchor:middle;" transform="rotate(-0, 227.2625, 105.06775)" x="227.2625" y="105.06775">Time (seconds)</text>
    </g>
   </g>
   <g id="matplotlib.axis_4"/>
   <g id="line2d_13">
    <path clip-path="url(#p9c93d70526)" d="M 168.080682 39.590403 
L 191.119565 39.507828 
L 191.167295 38.006975 
L 191.205478 35.731782 
L 191.272299 38.589001 
L 191.472761 39.136235 
L 191.482307 39.119258 
L 191.496626 38.686625 
L 191.56822 32.411387 
L 191.611176 35.667198 
L 191.730499 38.565798 
L 191.840276 38.883539 
L 191.859368 38.654058 
L 191.926189 31.91885 
L 191.978691 36.53401 
L 192.098014 38.549053 
L 192.193472 38.834301 
L 192.212564 38.690683 
L 192.284158 32.020533 
L 192.33666 37.618946 
L 192.460756 38.63288 
L 192.551441 38.872726 
L 192.570533 38.677091 
L 192.637354 32.080039 
L 192.689856 37.03297 
L 192.809179 38.668798 
L 192.918956 38.943998 
L 192.938048 38.840171 
L 193.009642 32.060977 
L 193.062144 37.421132 
L 193.181467 38.737084 
L 193.310336 39.022547 
L 193.329427 38.929646 
L 193.405794 31.959868 
L 193.458296 37.915552 
L 193.582392 38.818547 
L 193.735125 39.101011 
L 193.754217 39.031356 
L 193.787627 35.897065 
L 193.830584 32.045439 
L 193.883086 37.542862 
L 194.002409 38.864145 
L 194.202871 39.182788 
L 194.221963 39.117927 
L 194.255374 36.358485 
L 194.303103 32.33509 
L 194.350832 37.588288 
L 194.470155 38.92928 
L 194.713574 39.254883 
L 194.727893 39.238476 
L 194.746984 38.84905 
L 194.818578 32.779617 
L 194.861534 36.290289 
L 194.976084 38.973434 
L 195.26246 39.31557 
L 195.310189 39.294004 
L 195.319735 39.234488 
L 195.362691 35.958554 
L 195.396101 33.59481 
L 195.448604 38.531208 
L 195.577472 39.082961 
L 195.873393 39.359747 
L 195.944987 39.338004 
L 195.954533 39.291479 
L 195.992716 37.174436 
L 196.035673 34.287909 
L 196.088175 38.798148 
L 196.226589 39.157812 
L 196.532056 39.393651 
L 196.675244 39.36194 
L 196.680017 39.335117 
L 196.7182 37.750562 
L 196.756384 35.328912 
L 196.813659 38.953103 
L 196.971165 39.237248 
L 197.295723 39.424382 
L 197.477094 39.356501 
L 197.520051 37.6694 
L 197.553461 36.252644 
L 197.610736 39.069906 
L 197.820745 39.32806 
L 198.169168 39.443486 
L 198.245535 39.349512 
L 198.293264 37.170745 
L 198.317128 36.187657 
L 198.374403 39.067794 
L 198.551001 39.310094 
L 198.904197 39.458401 
L 200.121292 39.54353 
L 203.767803 39.59037 
L 235.426579 39.515014 
L 235.474308 38.120208 
L 235.512492 35.787249 
L 235.579313 38.568572 
L 235.765456 39.106959 
L 235.779775 39.081907 
L 235.798867 37.895584 
L 235.80364 37.991475 
L 235.860915 32.502511 
L 235.913417 37.544585 
L 236.037513 38.591957 
L 236.123425 38.838416 
L 236.142517 38.605953 
L 236.209338 32.027195 
L 236.26184 36.870987 
L 236.381163 38.527332 
L 236.467076 38.787719 
L 236.481394 38.686707 
L 236.552988 32.167626 
L 236.60549 37.584862 
L 236.729586 38.608077 
L 236.805953 38.82164 
L 236.825045 38.679463 
L 236.891866 32.273072 
L 236.944368 37.158482 
L 237.063691 38.644963 
L 237.159149 38.893476 
L 237.178241 38.703859 
L 237.245062 32.198381 
L 237.297564 37.2263 
L 237.416887 38.705975 
L 237.531437 38.973257 
L 237.550528 38.840349 
L 237.622122 32.106416 
L 237.674624 37.641775 
L 237.793947 38.771399 
L 237.937135 39.05447 
L 237.951454 38.978616 
L 237.989637 34.912978 
L 238.02782 32.067958 
L 238.07555 36.436997 
L 238.1901 38.810454 
L 238.376244 39.138703 
L 238.395335 39.044241 
L 238.447837 33.362491 
L 238.471702 32.243987 
L 238.519431 36.735537 
L 238.633981 38.878606 
L 238.858308 39.214165 
L 238.8774 39.178174 
L 238.891719 38.669995 
L 238.963313 32.64333 
L 239.006269 36.528316 
L 239.120819 38.942593 
L 239.397648 39.278672 
L 239.426286 39.137574 
L 239.502653 33.206968 
L 239.550382 38.221898 
L 239.669705 39.026256 
L 239.960853 39.334803 
L 240.022901 39.300104 
L 240.027674 39.274567 
L 240.061084 37.61333 
L 240.108813 34.04628 
L 240.161316 38.723617 
L 240.294957 39.122746 
L 240.595651 39.37504 
L 240.705428 39.339965 
L 240.710201 39.311467 
L 240.748385 37.523745 
L 240.786568 35.029714 
L 240.843843 38.907313 
L 240.996577 39.208437 
L 241.311589 39.40835 
L 241.440458 39.373584 
L 241.445231 39.35359 
L 241.464323 38.405908 
L 241.478641 38.437376 
L 241.526371 35.777538 
L 241.578873 38.997219 
L 241.745925 39.264767 
L 242.075256 39.43158 
L 242.270946 39.37075 
L 242.313902 37.901598 
L 242.347313 36.534851 
L 242.404588 39.099007 
L 242.624142 39.346805 
L 242.986884 39.451922 
L 243.087115 39.357061 
L 243.139617 37.153914 
L 243.158709 36.671537 
L 243.206438 39.075849 
L 243.354399 39.300482 
L 243.698049 39.455604 
L 245.07265 39.550672 
L 249.058038 39.590372 
L 282.625982 39.585364 
L 282.625982 39.585364 
" style="fill:none;stroke:#666666;stroke-linecap:square;stroke-width:0.6;"/>
   </g>
   <g id="line2d_14">
    <path clip-path="url(#p9c93d70526)" d="M 168.080682 59.030661 
L 168.17614 59.240021 
L 168.195232 59.155629 
L 168.25728 54.606095 
L 168.319328 58.726881 
L 168.515018 59.265908 
L 168.534109 59.155983 
L 168.591384 54.695534 
L 168.653432 58.779965 
L 168.858668 59.308648 
L 168.872986 59.255815 
L 168.901624 57.11673 
L 168.935034 54.678205 
L 168.997082 58.844677 
L 169.216637 59.364952 
L 169.226183 59.349818 
L 169.240501 59.137804 
L 169.297776 54.624988 
L 169.350278 58.869367 
L 169.550741 59.380045 
L 169.59847 59.425869 
L 169.617562 59.346895 
L 169.650972 56.493961 
L 169.67961 54.550555 
L 169.736885 58.948562 
L 169.946893 59.430223 
L 170.013714 59.490986 
L 170.032806 59.427182 
L 170.061444 57.445765 
L 170.099627 54.559112 
L 170.156902 59.032068 
L 170.376456 59.480522 
L 170.471915 59.55839 
L 170.491006 59.503952 
L 170.519644 57.89502 
L 170.557827 54.731934 
L 170.619875 59.120675 
L 170.853748 59.536951 
L 170.98739 59.615511 
L 171.001709 59.576711 
L 171.030346 58.347223 
L 171.073302 55.101742 
L 171.130578 59.19681 
L 171.350132 59.559679 
L 171.550594 59.667019 
L 171.564913 59.637472 
L 171.584005 58.904323 
L 171.636507 55.526744 
L 171.684236 59.207432 
L 171.83697 59.517785 
L 172.156755 59.72387 
L 172.204484 59.655382 
L 172.237895 58.282987 
L 172.271305 56.092619 
L 172.338126 59.372505 
L 172.60541 59.674838 
L 172.901331 59.732655 
L 172.925195 59.432646 
L 172.98247 56.763485 
L 173.034972 59.42277 
L 173.268846 59.67766 
L 173.63636 59.780608 
L 173.688862 59.68373 
L 173.75091 57.299056 
L 173.808185 59.48738 
L 174.075469 59.72203 
L 174.466848 59.792342 
L 174.514578 59.704216 
L 174.576626 57.720692 
L 174.633901 59.534054 
L 174.925049 59.749805 
L 175.354611 59.801693 
L 175.421432 59.683221 
L 175.478707 58.258553 
L 175.535982 59.581679 
L 175.855768 59.77468 
L 176.471475 59.838633 
L 178.934301 59.917483 
L 209.018014 59.850455 
L 209.041879 59.322362 
L 209.056198 59.505782 
L 209.094381 57.602888 
L 209.170748 59.284686 
L 209.375983 59.587629 
L 209.390302 59.572095 
L 209.409394 59.114805 
L 209.466669 54.680999 
L 209.519171 58.648753 
L 209.719634 59.306544 
L 209.76259 59.351546 
L 209.781681 59.225011 
L 209.843729 54.158574 
L 209.901004 58.596753 
L 210.120559 59.262985 
L 210.125332 59.259154 
L 210.144423 58.988878 
L 210.201698 54.360773 
L 210.254201 58.613257 
L 210.464209 59.251225 
L 210.483301 59.187171 
L 210.516711 56.229378 
L 210.545349 54.5654 
L 210.602624 58.705205 
L 210.807859 59.276416 
L 210.822178 59.238062 
L 210.846043 57.86127 
L 210.888999 54.656925 
L 210.946274 58.780976 
L 211.156282 59.323734 
L 211.170601 59.290651 
L 211.18492 58.805467 
L 211.237422 54.608219 
L 211.294697 58.835656 
L 211.523797 59.382954 
L 211.547662 59.286384 
L 211.60971 54.638298 
L 211.666985 58.910624 
L 211.900858 59.435154 
L 211.924722 59.43931 
L 211.939041 59.383453 
L 211.967679 57.369948 
L 212.005862 54.612546 
L 212.063137 58.982822 
L 212.29701 59.473206 
L 212.354285 59.508547 
L 212.373377 59.41241 
L 212.435425 54.73838 
L 212.4927 59.045629 
L 212.697935 59.468221 
L 212.822031 59.570862 
L 212.841123 59.515014 
L 212.869761 57.969897 
L 212.907944 54.952609 
L 212.969992 59.146021 
L 213.208638 59.550841 
L 213.347053 59.628108 
L 213.366144 59.563677 
L 213.399555 57.625634 
L 213.432965 55.323331 
L 213.495013 59.229147 
L 213.738432 59.592902 
L 213.924576 59.675313 
L 213.938895 59.643484 
L 213.957986 58.919985 
L 214.010488 55.718285 
L 214.058218 59.23585 
L 214.215724 59.533433 
L 214.53551 59.728026 
L 214.592785 59.644942 
L 214.630968 57.710678 
L 214.659605 56.292713 
L 214.721653 59.383486 
L 214.988937 59.678408 
L 215.294404 59.740923 
L 215.318268 59.610356 
L 215.375543 56.873866 
L 215.432818 59.434625 
L 215.671464 59.68534 
L 216.043752 59.782575 
L 216.096254 59.695226 
L 216.143983 57.715822 
L 216.158302 57.344465 
L 216.210804 59.483528 
L 216.439905 59.702468 
L 216.845603 59.802201 
L 216.950607 59.709738 
L 217.012655 57.872527 
L 217.074703 59.553852 
L 217.384943 59.762926 
L 217.828824 59.804701 
L 217.91951 59.71276 
L 217.976785 58.508742 
L 218.038833 59.604005 
L 218.37771 59.78478 
L 218.664085 59.743228 
L 218.702268 59.01258 
L 218.730906 57.893472 
L 218.8025 59.581681 
L 219.117512 59.76807 
L 219.819132 59.895453 
L 221.489654 59.917427 
L 253.544582 59.823267 
L 253.587539 58.765835 
L 253.611403 57.652852 
L 253.68777 59.266997 
L 253.888233 59.571919 
L 253.902551 59.548881 
L 253.91687 59.30637 
L 253.974145 54.845945 
L 254.03142 58.671335 
L 254.250975 59.329933 
L 254.270066 59.30161 
L 254.274839 59.260654 
L 254.30825 56.253373 
L 254.336887 54.19907 
L 254.398935 58.590583 
L 254.608944 59.2378 
L 254.618489 59.217054 
L 254.632808 58.849488 
L 254.68531 54.348319 
L 254.742585 58.605517 
L 254.943048 59.230316 
L 254.957367 59.202519 
L 254.971685 58.763842 
L 255.024188 54.558014 
L 255.081463 58.686672 
L 255.281925 59.25884 
L 255.296244 59.214619 
L 255.320109 57.747858 
L 255.358292 54.715506 
L 255.42034 58.775071 
L 255.625575 59.304272 
L 255.639894 59.252675 
L 255.668532 57.11127 
L 255.701942 54.750748 
L 255.76399 58.847281 
L 255.978772 59.357094 
L 255.99309 59.320567 
L 256.016955 58.002225 
L 256.059911 54.659701 
L 256.117186 58.893723 
L 256.351059 59.421982 
L 256.370151 59.406265 
L 256.379697 59.33382 
L 256.422653 55.381664 
L 256.441745 54.594254 
L 256.484701 58.755034 
L 256.61357 59.261085 
L 256.771076 59.490129 
L 256.794941 59.417681 
L 256.828351 56.776463 
L 256.861762 54.636199 
L 256.919037 59.037301 
L 257.148137 59.492588 
L 257.234049 59.550262 
L 257.253141 59.468176 
L 257.291324 56.344023 
L 257.319962 54.78798 
L 257.372464 59.089731 
L 257.558608 59.470394 
L 257.744752 59.615282 
L 257.759071 59.582432 
L 257.773389 59.257917 
L 257.830664 55.170722 
L 257.883167 59.169739 
L 258.064537 59.510703 
L 258.322275 59.662606 
L 258.327048 59.655584 
L 258.34614 59.460325 
L 258.403415 55.832094 
L 258.455917 59.261667 
L 258.637288 59.559137 
L 258.933209 59.703417 
L 258.957073 59.616163 
L 259.019121 56.141123 
L 259.076396 59.342377 
L 259.295951 59.631049 
L 259.630055 59.752318 
L 259.673011 59.640441 
L 259.735059 56.918771 
L 259.792334 59.4366 
L 260.054845 59.696775 
L 260.388949 59.754676 
L 260.417587 59.546714 
L 260.474862 57.25381 
L 260.527364 59.473883 
L 260.775556 59.706693 
L 261.171708 59.792834 
L 261.257621 59.689181 
L 261.314896 57.971645 
L 261.376944 59.551239 
L 261.691956 59.761128 
L 262.045153 59.76457 
L 262.069017 59.549319 
L 262.121519 57.968338 
L 262.178794 59.558704 
L 262.484261 59.763422 
L 262.994964 59.828866 
L 263.352933 59.876309 
L 264.717988 59.917163 
L 282.625982 59.917195 
L 282.625982 59.917195 
" style="fill:none;stroke:#666666;stroke-linecap:square;stroke-width:0.6;"/>
   </g>
   <g id="line2d_15">
    <path clip-path="url(#p9c93d70526)" d="M 168.080682 80.245862 
L 176.514431 80.151807 
L 176.552614 78.1167 
L 176.614662 64.868191 
L 176.671937 74.913108 
L 176.824671 78.617951 
L 176.924902 79.272409 
L 176.939221 79.0284 
L 177.006042 65.948319 
L 177.063317 76.147744 
L 177.211277 78.756008 
L 177.316281 79.351869 
L 177.3306 79.171214 
L 177.402194 64.051821 
L 177.459469 76.110138 
L 177.593111 78.61972 
L 177.736298 79.459618 
L 177.75539 79.120791 
L 177.826984 62.242083 
L 177.879486 72.166035 
L 177.998809 78.441002 
L 178.194499 79.592247 
L 178.21359 79.492218 
L 178.242228 73.466929 
L 178.29473 61.232561 
L 178.347232 73.255836 
L 178.466555 78.537304 
L 178.695655 79.707261 
L 178.705201 79.698641 
L 178.71952 79.447661 
L 178.80066 61.037159 
L 178.848389 70.731499 
L 178.967712 78.613296 
L 179.220676 79.794174 
L 179.239768 79.79985 
L 179.254087 79.720686 
L 179.282724 74.951643 
L 179.339999 61.317584 
L 179.392502 75.278751 
L 179.511825 78.74413 
L 179.764789 79.835043 
L 179.807746 79.873484 
L 179.826837 79.793941 
L 179.850702 76.935923 
L 179.91275 61.781176 
L 179.965252 75.447759 
L 180.084575 78.82266 
L 180.342313 79.864463 
L 180.418679 79.935079 
L 180.437771 79.826202 
L 180.471181 74.130362 
L 180.523684 62.636873 
L 180.571413 74.367486 
L 180.690736 78.885126 
L 180.953246 79.888091 
L 181.048705 79.977224 
L 181.067796 79.926745 
L 181.077342 79.673493 
L 181.158482 63.100948 
L 181.201438 70.387451 
L 181.320761 78.906754 
L 181.583272 79.892997 
L 181.721686 80.015404 
L 181.740778 79.962495 
L 181.750324 79.668181 
L 181.831464 64.145982 
L 181.87442 73.104391 
L 181.993743 78.982504 
L 182.256253 79.913211 
L 182.408987 80.035842 
L 182.428079 79.996253 
L 182.442397 79.230461 
L 182.518764 64.691011 
L 182.566493 76.170439 
L 182.685816 79.04028 
L 182.948327 79.929146 
L 183.124925 80.057442 
L 183.139244 80.033609 
L 183.153562 79.781529 
L 183.234702 65.232513 
L 183.277658 74.674573 
L 183.396981 79.055097 
L 183.659492 79.934889 
L 183.840863 80.066046 
L 183.859954 80.033412 
L 183.874273 79.718398 
L 183.95064 65.449415 
L 183.998369 75.708316 
L 184.117692 79.077727 
L 184.380203 79.942451 
L 184.594984 80.076819 
L 184.599757 80.071718 
L 184.618849 79.958022 
L 184.661805 72.988062 
L 184.699988 66.285521 
L 184.75249 77.593147 
L 184.881359 79.203541 
L 185.139097 79.969822 
L 185.33956 80.087348 
L 185.353878 80.065373 
L 185.368197 79.92595 
L 185.449337 66.305723 
L 185.501839 77.735917 
L 185.630708 79.2143 
L 185.888445 79.974563 
L 186.103227 80.094294 
L 186.112773 80.083493 
L 186.131864 79.864974 
L 186.213004 66.535637 
L 186.25596 76.266799 
L 186.375283 79.130191 
L 186.633021 79.956238 
L 186.871667 80.096938 
L 186.895531 79.991784 
L 186.933715 74.932711 
L 186.976671 66.624055 
L 187.033946 77.995538 
L 187.167588 79.268103 
L 187.420553 79.985575 
L 187.663971 80.105919 
L 187.687836 79.985359 
L 187.730792 73.532212 
L 187.768976 67.286074 
L 187.821478 77.880636 
L 187.950347 79.25689 
L 188.203311 79.985675 
L 188.441957 80.106212 
L 188.465822 80.005747 
L 188.504005 75.179793 
L 188.546962 67.144132 
L 188.604237 78.093212 
L 188.742651 79.316432 
L 188.995616 80.001055 
L 189.239035 80.114697 
L 189.2629 80.022455 
L 189.29631 76.77557 
L 189.344039 67.370652 
L 189.401314 78.089814 
L 189.539729 79.322851 
L 189.792694 80.004423 
L 190.036113 80.123079 
L 190.040885 80.118658 
L 190.06475 80.020202 
L 190.102933 75.395356 
L 190.14589 67.385885 
L 190.203165 78.112972 
L 190.341579 79.325358 
L 190.594544 80.006777 
L 190.857055 80.138863 
L 190.91433 80.042206 
L 190.94774 77.137831 
L 190.995469 68.306665 
L 191.052744 78.250844 
L 191.195932 79.382976 
L 191.444124 80.009089 
L 191.735272 80.164893 
L 192.618262 80.240671 
L 198.388722 80.245326 
L 219.060237 80.182819 
L 219.074556 79.364863 
L 219.093648 79.525768 
L 219.160469 65.241856 
L 219.232063 75.787611 
L 219.427752 79.104793 
L 219.475481 79.301498 
L 219.4898 79.121875 
L 219.556621 66.036422 
L 219.618669 76.450903 
L 219.785721 78.963167 
L 219.871634 79.380904 
L 219.885953 79.212774 
L 219.957546 64.093746 
L 220.019594 76.554723 
L 220.172328 78.841858 
L 220.296424 79.493988 
L 220.315515 79.307824 
L 220.391882 62.317789 
L 220.449157 76.118791 
L 220.578026 78.61912 
L 220.76417 79.614021 
L 220.778489 79.552322 
L 220.79758 77.188908 
L 220.859628 61.321881 
L 220.91213 70.978713 
L 221.031453 78.52936 
L 221.270099 79.729113 
L 221.274872 79.728587 
L 221.289191 79.633467 
L 221.317828 74.261026 
L 221.370331 61.202171 
L 221.422833 71.747433 
L 221.542156 78.635693 
L 221.79512 79.805316 
L 221.818985 79.81654 
L 221.833304 79.731195 
L 221.861941 75.028768 
L 221.919216 61.444945 
L 221.971718 75.411234 
L 222.091041 78.756691 
L 222.348779 79.849011 
L 222.401281 79.89238 
L 222.4156 79.822842 
L 222.439465 77.175849 
L 222.501513 62.164104 
L 222.554015 75.674867 
L 222.673338 78.842359 
L 222.931075 79.871413 
L 223.012215 79.941899 
L 223.026534 79.891216 
L 223.03608 79.552688 
L 223.117219 62.840137 
L 223.160175 70.660364 
L 223.279498 78.868892 
L 223.542009 79.885724 
L 223.651786 79.982584 
L 223.670878 79.910382 
L 223.699515 76.720059 
L 223.75679 63.448683 
L 223.809293 76.610969 
L 223.933388 79.003581 
L 224.191126 79.91157 
L 224.319995 80.014679 
L 224.339087 79.949693 
L 224.353405 77.97193 
L 224.362951 78.203845 
L 224.424999 63.946382 
L 224.477501 76.688293 
L 224.601597 79.041027 
L 224.864108 79.92876 
L 225.03116 80.049519 
L 225.045479 80.025543 
L 225.059798 79.74092 
L 225.136164 65.25418 
L 225.183893 75.166826 
L 225.303216 79.049341 
L 225.565727 79.933576 
L 225.747098 80.05762 
L 225.761417 80.022827 
L 225.775736 79.429014 
L 225.852102 65.442107 
L 225.895058 73.421562 
L 226.014381 79.053791 
L 226.276892 79.936404 
L 226.477355 80.076335 
L 226.491673 80.055016 
L 226.505992 79.919954 
L 226.587132 65.845522 
L 226.639634 77.568444 
L 226.768503 79.184138 
L 227.02624 79.964352 
L 227.236249 80.085123 
L 227.245795 80.069947 
L 227.264886 79.615148 
L 227.341253 66.394121 
L 227.384209 74.708217 
L 227.503532 79.106377 
L 227.76127 79.947863 
L 227.985597 80.084219 
L 228.009462 79.960431 
L 228.057191 71.550855 
L 228.090602 66.521792 
L 228.143104 77.699448 
L 228.271973 79.217711 
L 228.52971 79.976941 
L 228.754037 80.099867 
L 228.75881 80.095094 
L 228.782675 79.869034 
L 228.863815 66.688514 
L 228.906771 76.41441 
L 229.026094 79.135494 
L 229.283832 79.959501 
L 229.52725 80.110069 
L 229.555888 80.041512 
L 229.570207 78.232677 
L 229.584525 78.239728 
L 229.6418 66.897137 
L 229.694303 77.799195 
L 229.823171 79.237698 
L 230.076136 79.98035 
L 230.319555 80.113706 
L 230.348193 79.998593 
L 230.391149 73.611978 
L 230.429332 67.13971 
L 230.486607 78.12221 
L 230.625022 79.317744 
L 230.877987 80.001528 
L 231.116633 80.110088 
L 231.140497 80.025484 
L 231.173908 76.808956 
L 231.221637 67.420916 
L 231.278912 78.094359 
L 231.417327 79.323575 
L 231.670291 80.004453 
L 231.91371 80.117665 
L 231.942348 79.942195 
L 232.023487 67.490164 
L 232.071217 77.64042 
L 232.200085 79.248512 
L 232.45305 79.988563 
L 232.701242 80.119156 
L 232.72988 80.032235 
L 232.76329 76.963583 
L 232.811019 67.564838 
L 232.868294 78.095417 
L 233.006709 79.328757 
L 233.259674 80.008625 
L 233.522184 80.132056 
L 233.555595 80.061611 
L 233.569913 78.374209 
L 233.584232 78.450388 
L 233.641507 68.021683 
L 233.694009 78.087503 
L 233.827651 79.318738 
L 234.075843 80.002887 
L 234.338353 80.137596 
L 234.386083 80.042126 
L 234.419493 77.089432 
L 234.467222 68.10194 
L 234.524497 78.198209 
L 234.667685 79.376777 
L 234.915877 80.018208 
L 235.187933 80.148323 
L 235.259527 80.08949 
L 235.288165 78.932438 
L 235.34544 68.897172 
L 235.402715 78.360507 
L 235.555448 79.453687 
L 235.80364 80.03033 
L 236.104334 80.173458 
L 237.106647 80.242795 
L 248.595065 80.245322 
L 262.952007 80.174682 
L 262.961553 79.967576 
L 263.052239 65.242847 
L 262.975872 80.088094 
L 263.099968 71.216362 
L 263.224064 78.145834 
L 263.367251 79.306005 
L 263.38157 79.158373 
L 263.453164 65.994113 
L 263.515212 76.601658 
L 263.706129 79.139443 
L 263.763404 79.372068 
L 263.782495 79.034879 
L 263.854089 64.085325 
L 263.901818 73.18753 
L 264.021141 78.39972 
L 264.188193 79.4753 
L 264.207285 79.307915 
L 264.283652 62.276558 
L 264.340927 76.031257 
L 264.469796 78.603425 
L 264.65594 79.600879 
L 264.670258 79.516813 
L 264.694123 75.371166 
L 264.751398 61.315907 
L 264.8039 72.771895 
L 264.923223 78.536348 
L 265.157096 79.710778 
L 265.161869 79.707514 
L 265.176188 79.583027 
L 265.214371 70.165954 
L 265.257328 61.109654 
L 265.30983 73.12819 
L 265.429153 78.635689 
L 265.677344 79.79198 
L 265.701209 79.802977 
L 265.715528 79.693986 
L 265.748938 72.888529 
L 265.80144 61.314376 
L 265.84917 71.903446 
L 265.968493 78.715498 
L 266.22623 79.837047 
L 266.269186 79.87878 
L 266.288278 79.797152 
L 266.312143 76.994398 
L 266.374191 61.744023 
L 266.426693 75.265389 
L 266.546016 78.819019 
L 266.803753 79.863412 
L 266.88012 79.934489 
L 266.899212 79.850114 
L 266.927849 76.033749 
L 266.985124 62.601213 
L 267.037627 76.300286 
L 267.161722 78.938242 
L 267.41946 79.8928 
L 267.519691 79.978222 
L 267.538783 79.9005 
L 267.567421 76.603981 
L 267.624696 63.321788 
L 267.677198 76.596866 
L 267.801294 78.997181 
L 268.063804 79.915229 
L 268.1879 80.0144 
L 268.206992 79.963719 
L 268.216538 79.681343 
L 268.297677 64.184031 
L 268.340634 73.098413 
L 268.459957 78.98334 
L 268.722467 79.913276 
L 268.884746 80.035586 
L 268.899065 79.999401 
L 268.913384 79.238122 
L 268.989751 64.862959 
L 269.03748 76.366125 
L 269.161576 79.076047 
L 269.424086 79.938196 
L 269.586366 80.052017 
L 269.605457 80.003142 
L 269.619776 78.708211 
L 269.629322 78.841048 
L 269.696143 65.120868 
L 269.743872 76.918176 
L 269.867968 79.10512 
L 270.125706 79.940273 
L 270.307077 80.068566 
L 270.321395 80.046228 
L 270.335714 79.876284 
L 270.416854 65.260118 
L 270.464583 76.545582 
L 270.588679 79.10893 
L 270.846417 79.943107 
L 271.061198 80.081225 
L 271.065971 80.076 
L 271.085062 79.943832 
L 271.137565 69.854954 
L 271.166202 65.985555 
L 271.213931 76.667205 
L 271.338027 79.139223 
L 271.595765 79.953741 
L 271.820092 80.091261 
L 271.824865 80.08667 
L 271.84873 79.943904 
L 271.910778 68.081005 
L 271.929869 66.612309 
L 271.968053 71.766814 
L 272.087376 79.094879 
L 272.345113 79.945777 
L 272.583759 80.098888 
L 272.612397 79.977103 
L 272.655353 73.298666 
L 272.693536 66.72507 
L 272.746039 77.703712 
L 272.874907 79.226528 
L 273.132645 79.98024 
L 273.361745 80.101128 
L 273.366518 80.095802 
L 273.38561 79.972697 
L 273.433339 71.804548 
L 273.466749 66.865735 
L 273.519252 77.789693 
L 273.64812 79.236591 
L 273.901085 79.978668 
L 274.120639 80.100028 
L 274.125412 80.095222 
L 274.149277 79.891043 
L 274.230417 66.736426 
L 274.273373 76.313895 
L 274.392696 79.138915 
L 274.650434 79.962651 
L 274.903398 80.12409 
L 274.9559 80.024113 
L 274.989311 76.809445 
L 275.03704 67.623702 
L 275.094315 78.1617 
L 275.23273 79.336639 
L 275.485694 80.006561 
L 275.714795 80.114729 
L 275.72434 80.104523 
L 275.743432 79.926811 
L 275.824572 67.339191 
L 275.872301 77.634982 
L 276.00117 79.24436 
L 276.254135 79.986378 
L 276.502326 80.122617 
L 276.535737 80.010753 
L 276.57392 75.296824 
L 276.616876 67.444178 
L 276.674151 78.147004 
L 276.812566 79.330881 
L 277.065531 80.008033 
L 277.313723 80.118231 
L 277.337587 80.013072 
L 277.375771 75.325763 
L 277.418727 67.531698 
L 277.476002 78.160523 
L 277.614417 79.334896 
L 277.867381 80.010353 
L 278.115573 80.118683 
L 278.139438 79.987798 
L 278.19194 70.861248 
L 278.220577 67.336137 
L 278.27308 77.869127 
L 278.401948 79.257419 
L 278.654913 79.993225 
L 278.917424 80.138228 
L 278.965153 80.070636 
L 278.979472 78.455126 
L 278.99379 78.579292 
L 279.051066 68.059212 
L 279.103568 78.052874 
L 279.237209 79.318158 
L 279.485401 80.004073 
L 279.752685 80.145742 
L 279.829051 80.044448 
L 279.862462 77.225685 
L 279.910191 68.70612 
L 279.967466 78.316604 
L 280.115427 79.430595 
L 280.363618 80.031729 
L 280.630902 80.140966 
L 280.664312 80.070437 
L 280.678631 78.43179 
L 280.69295 78.561079 
L 280.750225 68.561729 
L 280.802727 78.183491 
L 280.941142 79.36651 
L 281.189334 80.018502 
L 281.447071 80.133105 
L 281.480482 80.056266 
L 281.513892 77.39157 
L 281.561621 68.466686 
L 281.618896 78.213741 
L 281.762084 79.389166 
L 282.010276 80.024379 
L 282.277559 80.143044 
L 282.320516 80.083067 
L 282.334834 78.724872 
L 282.349153 78.780616 
L 282.406428 68.653077 
L 282.45893 78.130316 
L 282.597345 79.36407 
L 282.625982 79.49442 
L 282.625982 79.49442 
" style="fill:none;stroke:#666666;stroke-linecap:square;stroke-width:0.6;"/>
   </g>
   <g id="line2d_16">
    <path clip-path="url(#p9c93d70526)" d="M 286.444318 76.5505 
L 286.444318 67.3105 
" style="fill:none;stroke:#000000;stroke-linecap:square;stroke-width:1.5;"/>
   </g>
   <g id="patch_6">
    <path d="M 162.1625 80.2465 
L 162.1625 19.2625 
" style="fill:none;stroke:#000000;stroke-linecap:square;stroke-linejoin:miter;stroke-width:1.5;"/>
   </g>
   <g id="patch_7">
    <path d="M 162.1625 80.2465 
L 292.3625 80.2465 
" style="fill:none;stroke:#000000;stroke-linecap:square;stroke-linejoin:miter;stroke-width:1.5;"/>
   </g>
   <g id="text_13">
    <!-- Average Energy: 153.0 $\mu$J/s -->
    <g transform="translate(172.7425 13.2625)">
     <text>
      <tspan style="font-family:DejaVu Sans;font-size:8px;font-style:book;font-weight:book;" x="0 5.472656 10.207031 15.128906 18.417969 23.320312 28.398438 33.320312 35.863281 40.917969 45.988281 50.910156 54.199219 59.277344 64.011719 66.707031 69.25 74.339844 79.429688 84.519531 87.0625 92.152344 94.695312 99.785156 102.144531 104.839844" y="-0.0625">Average Energy: 153.0 μJ/s</tspan>
     </text>
    </g>
   </g>
  </g>
 </g>
 <defs>
  <clipPath id="p1f2a1c74fa">
   <rect height="60.984" width="130.2" x="18.9425" y="19.2625"/>
  </clipPath>
  <clipPath id="p9c93d70526">
   <rect height="60.984" width="130.2" x="162.1625" y="19.2625"/>
  </clipPath>
 </defs>
</svg>
