<?xml version='1.0' encoding='ASCII' standalone='yes'?>
<svg xmlns="http://www.w3.org/2000/svg" xmlns:xlink="http://www.w3.org/1999/xlink" version="1.1" width="20.3cm" viewBox="0 0 20.3cm 8.4cm" height="8.4cm">
  <g>
    <g transform="translate(27.5, 11.0) scale(1) ">
      <g transform="translate(0.0, 0.0) scale(1) translate(0, 0) scale(1.25) "><metadata>
  <rdf:RDF xmlns:cc="http://creativecommons.org/ns#" xmlns:dc="http://purl.org/dc/elements/1.1/" xmlns:rdf="http://www.w3.org/1999/02/22-rdf-syntax-ns#">
   <cc:Work>
    <dc:type rdf:resource="http://purl.org/dc/dcmitype/StillImage"/>
    <dc:date>2022-07-11T17:34:28.250537</dc:date>
    <dc:format>image/svg+xml</dc:format>
    <dc:creator>
     <cc:Agent>
      <dc:title>Matplotlib v3.4.2, https://matplotlib.org/</dc:title>
     </cc:Agent>
    </dc:creator>
   </cc:Work>
  </rdf:RDF>
 </metadata>
 <defs>
  <style type="text/css">*{stroke-linecap:butt;stroke-linejoin:round;}</style>
 </defs>
 <g id="figure_1">
  <g id="patch_1">
   <path d="M 0 246.0875  L 387.34125 246.0875  L 387.34125 0  L 0 0  z " style="fill:#ffffff;"/>
  </g>
  <g id="axes_1">
   <g id="patch_2">
    <path d="M 40.8925 61.206359  L 193.074318 61.206359  L 193.074318 19.02375  L 40.8925 19.02375  z " style="fill:#ffffff;"/>
   </g>
   <g id="PathCollection_1">
    <defs>
     <path d="M 0 1.5  C 0.397805 1.5 0.77937 1.341951 1.06066 1.06066  C 1.341951 0.77937 1.5 0.397805 1.5 0  C 1.5 -0.397805 1.341951 -0.77937 1.06066 -1.06066  C 0.77937 -1.341951 0.397805 -1.5 0 -1.5  C -0.397805 -1.5 -0.77937 -1.341951 -1.06066 -1.06066  C -1.341951 -0.77937 -1.5 -0.397805 -1.5 0  C -1.5 0.397805 -1.341951 0.77937 -1.06066 1.06066  C -0.77937 1.341951 -0.397805 1.5 0 1.5  z " id="m30e2016df5" style="stroke:#d7301f;"/>
    </defs>
    <g clip-path="url(#p520a78ae86)">
     <use style="fill:#d7301f;stroke:#d7301f;" x="76.401591" xlink:href="#m30e2016df5" y="21.295121"/>
    </g>
   </g>
   <g id="matplotlib.axis_1">
    <g id="xtick_1">
     <g id="line2d_1">
      <defs>
       <path d="M 0 0  L 0 3.5  " id="m55491f536f" style="stroke:#000000;stroke-width:1.5;"/>
      </defs>
      <g>
       <use style="stroke:#000000;stroke-width:1.5;" x="40.8925" xlink:href="#m55491f536f" y="61.206359"/>
      </g>
     </g>
    </g>
    <g id="xtick_2">
     <g id="line2d_2">
      <g>
       <use style="stroke:#000000;stroke-width:1.5;" x="193.074318" xlink:href="#m55491f536f" y="61.206359"/>
      </g>
     </g>
    </g>
   </g>
   <g id="matplotlib.axis_2">
    <g id="ytick_1">
     <g id="line2d_3">
      <defs>
       <path d="M 0 0  L -3.5 0  " id="mfb57a588ba" style="stroke:#000000;stroke-width:1.5;"/>
      </defs>
      <g>
       <use style="stroke:#000000;stroke-width:1.5;" x="40.8925" xlink:href="#mfb57a588ba" y="51.471911"/>
      </g>
     </g>
     <g id="text_1">
      <text style="font-family:Arial;font-size:8px;font-stretch:normal;font-style:normal;font-weight:normal;text-anchor:end;" transform="rotate(-0, 33.8925, 54.335036)" x="33.8925" y="54.335036">&#8722;50</text>
     </g>
    </g>
    <g id="ytick_2">
     <g id="line2d_4">
      <g>
       <use style="stroke:#000000;stroke-width:1.5;" x="40.8925" xlink:href="#mfb57a588ba" y="35.24783"/>
      </g>
     </g>
     <g id="text_2">
      <text style="font-family:Arial;font-size:8px;font-stretch:normal;font-style:normal;font-weight:normal;text-anchor:end;" transform="rotate(-0, 33.8925, 38.110955)" x="33.8925" y="38.110955">0</text>
     </g>
    </g>
    <g id="ytick_3">
     <g id="line2d_5">
      <g>
       <use style="stroke:#000000;stroke-width:1.5;" x="40.8925" xlink:href="#mfb57a588ba" y="19.02375"/>
      </g>
     </g>
     <g id="text_3">
      <text style="font-family:Arial;font-size:8px;font-stretch:normal;font-style:normal;font-weight:normal;text-anchor:end;" transform="rotate(-0, 33.8925, 21.886875)" x="33.8925" y="21.886875">50</text>
     </g>
    </g>
    <g id="text_4">
     <text style="font-family:Arial;font-size:8px;font-stretch:normal;font-style:normal;font-weight:normal;text-anchor:middle;" transform="rotate(-90, 14.63875, 40.115054)" x="14.63875" y="40.115054">Voltage</text>
    </g>
   </g>
   <g id="line2d_6">
    <path clip-path="url(#p520a78ae86)" d="M 40.8925 49.123098  L 43.175227 48.816381  L 44.950682 48.605247  L 45.584773 48.541739  L 47.106591 48.454069  L 48.755227 48.203735  L 49.389318 48.169368  L 50.530682 47.961479  L 53.193864 47.660961  L 53.574318 47.669317  L 55.857045 47.431006  L 58.520227 46.797814  L 59.661591 46.388093  L 60.549318 45.858877  L 61.437045 44.876232  L 61.8175 44.031692  L 62.197955 42.419746  L 62.451591 40.291899  L 62.705227 36.352367  L 63.339318 23.204306  L 63.592955 21.364427  L 63.846591 20.839424  L 64.100227 20.81089  L 64.353864 20.934433  L 64.987955 21.590216  L 66.0025 23.294731  L 67.017045 25.535264  L 69.933864 32.397301  L 71.075227 34.512974  L 72.216591 36.290725  L 74.879773 40.380664  L 75.387045 41.657304  L 75.7675 43.091385  L 76.147955 45.328879  L 77.1625 52.503325  L 77.542955 53.604547  L 77.923409 54.189665  L 78.430682 54.610214  L 79.191591 54.900846  L 80.206136 54.991875  L 81.474318 54.878626  L 84.517955 54.576571  L 85.278864 54.501811  L 87.434773 54.206818  L 89.083409 54.051133  L 89.7175 53.950731  L 90.858864 53.894757  L 91.239318 53.846405  L 93.268409 53.576933  L 93.9025 53.520629  L 96.058409 53.281686  L 96.565682 53.195558  L 99.736136 52.862411  L 106.077045 52.166245  L 107.979318 51.992198  L 117.363864 51.045035  L 131.5675 49.797943  L 131.947955 49.776155  L 134.864773 49.523981  L 136.006136 49.451635  L 139.683864 49.070191  L 140.444773 49.06316  L 141.3325 49.037376  L 141.839773 49.016642  L 142.7275 48.890285  L 146.405227 48.672929  L 151.351136 48.140177  L 153.380227 47.92126  L 154.648409 47.766998  L 158.452955 47.325416  L 162.003864 46.618952  L 163.272045 46.058449  L 164.032955 45.567399  L 164.793864 44.503994  L 165.174318 43.45218  L 165.554773 41.300276  L 165.808409 38.320357  L 166.822955 21.439891  L 167.076591 20.8154  L 167.330227 20.736175  L 167.710682 20.968548  L 168.217955 21.541022  L 168.852045 22.538951  L 169.866591 24.694146  L 173.797955 34.013694  L 176.461136 38.178729  L 177.6025 40.025262  L 178.236591 41.511095  L 178.617045 42.859306  L 178.9975 44.917399  L 180.138864 52.558358  L 180.519318 53.561053  L 180.899773 54.133285  L 181.407045 54.568469  L 182.548409 54.903332  L 183.309318 54.922835  L 184.831136 54.778139  L 185.9725 54.675471  L 186.860227 54.573469  L 192.9475 53.864128  L 192.9475 53.864128  " style="fill:none;stroke:#000000;stroke-linecap:square;stroke-width:1.5;"/>
   </g>
   <g id="patch_3">
    <path d="M 40.8925 61.206359  L 40.8925 19.02375  " style="fill:none;stroke:#000000;stroke-linecap:square;stroke-linejoin:miter;stroke-width:1.5;"/>
   </g>
   <g id="patch_4">
    <path d="M 40.8925 61.206359  L 193.074318 61.206359  " style="fill:none;stroke:#000000;stroke-linecap:square;stroke-linejoin:miter;stroke-width:1.5;"/>
   </g>
   <g id="text_5">
    <text style="font-family:Arial;font-size:8px;font-stretch:normal;font-style:normal;font-weight:normal;text-anchor:middle;" transform="rotate(-0, 116.983409, 13.02375)" x="116.983409" y="13.02375">Configuration 1</text>
   </g>
  </g>
  <g id="axes_2">
   <g id="patch_5">
    <path d="M 223.510682 61.206359  L 375.6925 61.206359  L 375.6925 19.02375  L 223.510682 19.02375  z " style="fill:#ffffff;"/>
   </g>
   <g id="PathCollection_2">
    <defs>
     <path d="M 0 1.5  C 0.397805 1.5 0.77937 1.341951 1.06066 1.06066  C 1.341951 0.77937 1.5 0.397805 1.5 0  C 1.5 -0.397805 1.341951 -0.77937 1.06066 -1.06066  C 0.77937 -1.341951 0.397805 -1.5 0 -1.5  C -0.397805 -1.5 -0.77937 -1.341951 -1.06066 -1.06066  C -1.341951 -0.77937 -1.5 -0.397805 -1.5 0  C -1.5 0.397805 -1.341951 0.77937 -1.06066 1.06066  C -0.77937 1.341951 -0.397805 1.5 0 1.5  z " id="mc560b8e9a8" style="stroke:#0570b0;"/>
    </defs>
    <g clip-path="url(#pf6ef90b259)">
     <use style="fill:#0570b0;stroke:#0570b0;" x="259.019773" xlink:href="#mc560b8e9a8" y="21.295121"/>
    </g>
   </g>
   <g id="matplotlib.axis_3">
    <g id="xtick_3">
     <g id="line2d_7">
      <g>
       <use style="stroke:#000000;stroke-width:1.5;" x="223.510682" xlink:href="#m55491f536f" y="61.206359"/>
      </g>
     </g>
    </g>
    <g id="xtick_4">
     <g id="line2d_8">
      <g>
       <use style="stroke:#000000;stroke-width:1.5;" x="375.6925" xlink:href="#m55491f536f" y="61.206359"/>
      </g>
     </g>
    </g>
   </g>
   <g id="matplotlib.axis_4">
    <g id="ytick_4">
     <g id="line2d_9">
      <g>
       <use style="stroke:#000000;stroke-width:1.5;" x="223.510682" xlink:href="#mfb57a588ba" y="51.471911"/>
      </g>
     </g>
     <g id="text_6">
      <text style="font-family:Arial;font-size:8px;font-stretch:normal;font-style:normal;font-weight:normal;text-anchor:end;" transform="rotate(-0, 216.510682, 54.335036)" x="216.510682" y="54.335036">&#8722;50</text>
     </g>
    </g>
    <g id="ytick_5">
     <g id="line2d_10">
      <g>
       <use style="stroke:#000000;stroke-width:1.5;" x="223.510682" xlink:href="#mfb57a588ba" y="35.24783"/>
      </g>
     </g>
     <g id="text_7">
      <text style="font-family:Arial;font-size:8px;font-stretch:normal;font-style:normal;font-weight:normal;text-anchor:end;" transform="rotate(-0, 216.510682, 38.110955)" x="216.510682" y="38.110955">0</text>
     </g>
    </g>
    <g id="ytick_6">
     <g id="line2d_11">
      <g>
       <use style="stroke:#000000;stroke-width:1.5;" x="223.510682" xlink:href="#mfb57a588ba" y="19.02375"/>
      </g>
     </g>
     <g id="text_8">
      <text style="font-family:Arial;font-size:8px;font-stretch:normal;font-style:normal;font-weight:normal;text-anchor:end;" transform="rotate(-0, 216.510682, 21.886875)" x="216.510682" y="21.886875">50</text>
     </g>
    </g>
   </g>
   <g id="line2d_12">
    <path clip-path="url(#pf6ef90b259)" d="M 223.510682 35.227369  L 224.905682 36.817677  L 228.076136 40.093591  L 228.963864 41.41586  L 229.597955 42.856024  L 230.105227 44.59263  L 231.119773 48.569376  L 231.627045 49.551541  L 232.134318 49.951834  L 232.514773 50.059044  L 233.148864 50.081889  L 235.431591 49.674092  L 236.826591 49.348087  L 237.333864 49.226561  L 246.084318 46.894519  L 247.225682 46.487665  L 249.381591 45.153868  L 250.015682 44.280539  L 250.396136 43.312782  L 250.776591 41.421234  L 251.030227 38.983726  L 251.5375 30.533623  L 251.917955 26.019493  L 252.171591 24.885623  L 252.425227 24.597607  L 252.678864 24.664081  L 253.186136 25.285227  L 254.073864 26.925762  L 256.863864 32.367658  L 258.132045 34.286163  L 259.019773 35.44729  L 260.795227 37.406939  L 263.331591 40.144992  L 264.219318 41.638707  L 264.726591 42.999145  L 265.233864 45.066259  L 266.248409 49.587887  L 266.628864 50.345369  L 267.009318 50.756172  L 267.516591 50.940274  L 269.292045 50.83739  L 271.701591 50.262601  L 272.335682 50.153482  L 273.984318 49.735726  L 274.364773 49.669404  L 275.125682 49.445635  L 279.4375 48.357468  L 284.763864 46.750412  L 286.792955 45.533727  L 287.300227 44.929414  L 287.680682 44.215101  L 288.061136 42.947071  L 288.314773 41.347127  L 288.568409 38.409963  L 289.456136 24.084075  L 289.709773 23.385647  L 289.963409 23.295041  L 290.217045 23.413605  L 290.851136 24.151078  L 291.738864 25.705715  L 295.416591 32.470478  L 296.557955 34.11045  L 298.333409 36.245268  L 299.728409 37.673583  L 301.503864 39.595729  L 302.391591 40.90521  L 302.898864 42.069919  L 303.406136 43.918115  L 303.913409 46.869602  L 304.5475 50.324329  L 304.927955 51.328941  L 305.308409 51.830726  L 305.688864 52.085434  L 306.196136 52.234661  L 307.591136 52.141214  L 312.9175 50.9284  L 323.570227 48.275337  L 324.457955 48.008437  L 325.4725 47.729981  L 326.740682 47.332353  L 327.374773 47.089626  L 329.6575 45.630216  L 330.164773 44.901204  L 330.545227 43.975634  L 330.798864 42.850405  L 331.0525 40.746411  L 331.306136 36.547541  L 331.940227 23.4408  L 332.193864 22.28659  L 332.4475 22.039261  L 332.701136 22.067869  L 333.208409 22.445602  L 333.969318 23.40591  L 334.983864 25.008722  L 338.788409 31.592623  L 340.310227 33.724582  L 341.832045 35.520433  L 345.636591 39.498657  L 346.3975 40.630738  L 346.904773 41.785422  L 347.285227 43.106942  L 347.665682 45.161518  L 348.680227 51.668147  L 349.060682 52.590398  L 349.441136 53.072226  L 349.948409 53.364841  L 350.328864 53.461121  L 350.836136 53.486204  L 351.9775 53.331112  L 356.289318 52.519606  L 357.050227 52.320198  L 357.5575 52.247924  L 359.586591 51.783062  L 360.220682 51.655504  L 366.181136 50.219627  L 367.829773 49.803926  L 369.605227 49.401888  L 370.366136 49.157359  L 372.141591 48.7684  L 374.043864 48.23499  L 374.931591 47.964822  L 375.565682 47.762437  L 375.565682 47.762437  " style="fill:none;stroke:#000000;stroke-linecap:square;stroke-width:1.5;"/>
   </g>
   <g id="patch_6">
    <path d="M 223.510682 61.206359  L 223.510682 19.02375  " style="fill:none;stroke:#000000;stroke-linecap:square;stroke-linejoin:miter;stroke-width:1.5;"/>
   </g>
   <g id="patch_7">
    <path d="M 223.510682 61.206359  L 375.6925 61.206359  " style="fill:none;stroke:#000000;stroke-linecap:square;stroke-linejoin:miter;stroke-width:1.5;"/>
   </g>
   <g id="text_9">
    <text style="font-family:Arial;font-size:8px;font-stretch:normal;font-style:normal;font-weight:normal;text-anchor:middle;" transform="rotate(-0, 299.601591, 13.02375)" x="299.601591" y="13.02375">Configuration 2</text>
   </g>
  </g>
  <g id="axes_3">
   <g id="patch_8">
    <path d="M 40.8925 111.825489  L 193.074318 111.825489  L 193.074318 69.64288  L 40.8925 69.64288  z " style="fill:#ffffff;"/>
   </g>
   <g id="matplotlib.axis_5">
    <g id="xtick_5">
     <g id="line2d_13">
      <g>
       <use style="stroke:#000000;stroke-width:1.5;" x="40.8925" xlink:href="#m55491f536f" y="111.825489"/>
      </g>
     </g>
    </g>
    <g id="xtick_6">
     <g id="line2d_14">
      <g>
       <use style="stroke:#000000;stroke-width:1.5;" x="193.074318" xlink:href="#m55491f536f" y="111.825489"/>
      </g>
     </g>
    </g>
   </g>
   <g id="matplotlib.axis_6">
    <g id="ytick_7">
     <g id="line2d_15">
      <g>
       <use style="stroke:#000000;stroke-width:1.5;" x="40.8925" xlink:href="#mfb57a588ba" y="111.825489"/>
      </g>
     </g>
     <g id="text_10">
      <text style="font-family:Arial;font-size:8px;font-stretch:normal;font-style:normal;font-weight:normal;text-anchor:end;" transform="rotate(-0, 33.8925, 114.688614)" x="33.8925" y="114.688614">0</text>
     </g>
    </g>
    <g id="ytick_8">
     <g id="line2d_16">
      <g>
       <use style="stroke:#000000;stroke-width:1.5;" x="40.8925" xlink:href="#mfb57a588ba" y="69.64288"/>
      </g>
     </g>
     <g id="text_11">
      <text style="font-family:Arial;font-size:8px;font-stretch:normal;font-style:normal;font-weight:normal;text-anchor:end;" transform="rotate(-0, 33.8925, 72.506005)" x="33.8925" y="72.506005">55</text>
     </g>
    </g>
    <g id="text_12">
     <!-- $\overline{g}_{\mathrm{Na}}$ -->
     <g transform="translate(18.515 97.054185)rotate(-90)">
      <text>
       <tspan style="font-family:Arial;font-size:8px;font-style:regular;font-weight:regular;" x="0" y="-1.25">g</tspan>
       <tspan style="font-family:DejaVu Sans;font-size:5.6px;font-style:book;font-weight:book;" x="4.588606 8.777669" y="1.6195000000000004">Na</tspan>
      </text>
      <rect height="0.5" width="4.449219" x="0" y="-7"/>
     </g>
    </g>
   </g>
   <g id="line2d_17">
    <path clip-path="url(#peea1e63c4c)" d="M 40.8925 111.82185  L 60.042045 111.712945  L 61.310227 111.547516  L 61.8175 111.313245  L 62.071136 111.031506  L 62.324773 110.41738  L 62.578409 108.92129  L 62.832045 105.62866  L 63.719773 90.330046  L 64.100227 87.286028  L 64.480682 85.991965  L 64.734318 85.739213  L 64.987955 85.791811  L 65.368409 86.221068  L 66.0025 87.384941  L 69.299773 93.994923  L 71.328864 97.342563  L 74.245682 102.097583  L 75.006591 103.747469  L 75.513864 105.253104  L 76.021136 107.456282  L 76.655227 110.476877  L 77.035682 111.187962  L 77.542955 111.497952  L 78.430682 111.71078  L 79.9525 111.810999  L 86.420227 111.825486  L 163.018409 111.717449  L 164.540227 111.539689  L 165.0475 111.293142  L 165.301136 111.000323  L 165.554773 110.368645  L 165.808409 108.889506  L 166.062045 105.789991  L 166.949773 92.485665  L 167.330227 89.930035  L 167.710682 88.871035  L 167.964318 88.683337  L 168.217955 88.754112  L 168.598409 89.155881  L 169.359318 90.435672  L 172.149318 95.452823  L 174.051591 98.325796  L 177.095227 102.83021  L 177.856136 104.318119  L 178.490227 106.076125  L 178.9975 108.200388  L 179.631591 110.765787  L 180.012045 111.302794  L 180.519318 111.549032  L 181.533864 111.743131  L 183.436136 111.819695  L 192.9475 111.825487  L 192.9475 111.825487  " style="fill:none;stroke:#000000;stroke-linecap:square;stroke-width:1.5;"/>
   </g>
   <g id="patch_9">
    <path d="M 40.8925 111.825489  L 40.8925 69.64288  " style="fill:none;stroke:#000000;stroke-linecap:square;stroke-linejoin:miter;stroke-width:1.5;"/>
   </g>
   <g id="patch_10">
    <path d="M 40.8925 111.825489  L 193.074318 111.825489  " style="fill:none;stroke:#000000;stroke-linecap:square;stroke-linejoin:miter;stroke-width:1.5;"/>
   </g>
  </g>
  <g id="axes_4">
   <g id="patch_11">
    <path d="M 223.510682 111.825489  L 375.6925 111.825489  L 375.6925 69.64288  L 223.510682 69.64288  z " style="fill:#ffffff;"/>
   </g>
   <g id="matplotlib.axis_7">
    <g id="xtick_7">
     <g id="line2d_18">
      <g>
       <use style="stroke:#000000;stroke-width:1.5;" x="223.510682" xlink:href="#m55491f536f" y="111.825489"/>
      </g>
     </g>
    </g>
    <g id="xtick_8">
     <g id="line2d_19">
      <g>
       <use style="stroke:#000000;stroke-width:1.5;" x="375.6925" xlink:href="#m55491f536f" y="111.825489"/>
      </g>
     </g>
    </g>
   </g>
   <g id="matplotlib.axis_8">
    <g id="ytick_9">
     <g id="line2d_20">
      <g>
       <use style="stroke:#000000;stroke-width:1.5;" x="223.510682" xlink:href="#mfb57a588ba" y="111.825489"/>
      </g>
     </g>
     <g id="text_13">
      <text style="font-family:Arial;font-size:8px;font-stretch:normal;font-style:normal;font-weight:normal;text-anchor:end;" transform="rotate(-0, 216.510682, 114.688614)" x="216.510682" y="114.688614">0</text>
     </g>
    </g>
    <g id="ytick_10">
     <g id="line2d_21">
      <g>
       <use style="stroke:#000000;stroke-width:1.5;" x="223.510682" xlink:href="#mfb57a588ba" y="69.64288"/>
      </g>
     </g>
     <g id="text_14">
      <text style="font-family:Arial;font-size:8px;font-stretch:normal;font-style:normal;font-weight:normal;text-anchor:end;" transform="rotate(-0, 216.510682, 72.506005)" x="216.510682" y="72.506005">55</text>
     </g>
    </g>
   </g>
   <g id="line2d_22">
    <path clip-path="url(#p3098105a0e)" d="M 223.510682 99.744035  L 227.061591 104.218668  L 228.583409 106.341721  L 229.344318 107.732188  L 230.105227 109.602021  L 230.739318 111.027597  L 231.119773 111.446104  L 231.627045 111.674994  L 232.641591 111.797175  L 235.938864 111.824468  L 247.986591 111.721418  L 249.508409 111.532761  L 250.1425 111.247307  L 250.522955 110.800961  L 250.776591 110.135487  L 251.030227 108.716041  L 251.283864 105.935629  L 252.171591 93.623647  L 252.552045 91.14748  L 252.9325 90.089097  L 253.186136 89.882779  L 253.439773 89.928218  L 253.820227 90.287168  L 254.581136 91.48175  L 257.751591 96.880375  L 260.034318 100.187435  L 263.585227 105.313134  L 264.346136 106.843857  L 264.980227 108.599573  L 265.741136 110.837709  L 266.121591 111.367173  L 266.628864 111.639479  L 267.516591 111.780365  L 269.799318 111.823994  L 285.397955 111.739261  L 287.046591 111.550804  L 287.680682 111.264164  L 288.061136 110.773143  L 288.314773 109.983888  L 288.568409 108.116243  L 288.822045 104.176318  L 289.709773 87.078234  L 290.090227 83.763248  L 290.470682 82.369267  L 290.724318 82.109399  L 290.977955 82.185241  L 291.358409 82.685326  L 291.9925 84.015065  L 295.416591 91.816512  L 297.318864 95.387519  L 300.108864 100.087914  L 301.884318 103.250805  L 302.645227 104.991864  L 303.279318 107.059187  L 304.293864 110.903658  L 304.674318 111.38105  L 305.181591 111.621973  L 306.196136 111.78087  L 308.605682 111.824464  L 328.135682 111.745183  L 329.784318 111.548602  L 330.291591 111.325872  L 330.672045 110.899021  L 330.925682 110.187676  L 331.179318 108.340132  L 331.432955 103.621059  L 332.4475 75.692229  L 332.827955 71.417458  L 333.208409 69.721315  L 333.462045 69.473406  L 333.715682 69.66402  L 334.096136 70.450193  L 334.857045 72.824021  L 337.520227 81.603933  L 339.168864 86.158094  L 340.944318 90.411851  L 343.100227 94.985038  L 346.017045 101.121722  L 346.777955 103.292803  L 347.285227 105.365993  L 348.426591 110.86399  L 348.807045 111.31778  L 349.441136 111.609188  L 350.455682 111.773836  L 352.738409 111.824054  L 375.565682 111.799071  L 375.565682 111.799071  " style="fill:none;stroke:#000000;stroke-linecap:square;stroke-width:1.5;"/>
   </g>
   <g id="patch_12">
    <path d="M 223.510682 111.825489  L 223.510682 69.64288  " style="fill:none;stroke:#000000;stroke-linecap:square;stroke-linejoin:miter;stroke-width:1.5;"/>
   </g>
   <g id="patch_13">
    <path d="M 223.510682 111.825489  L 375.6925 111.825489  " style="fill:none;stroke:#000000;stroke-linecap:square;stroke-linejoin:miter;stroke-width:1.5;"/>
   </g>
  </g>
  <g id="axes_5">
   <g id="patch_14">
    <path d="M 40.8925 162.44462  L 193.074318 162.44462  L 193.074318 120.262011  L 40.8925 120.262011  z " style="fill:#ffffff;"/>
   </g>
   <g id="matplotlib.axis_9">
    <g id="xtick_9">
     <g id="line2d_23">
      <g>
       <use style="stroke:#000000;stroke-width:1.5;" x="40.8925" xlink:href="#m55491f536f" y="162.44462"/>
      </g>
     </g>
    </g>
    <g id="xtick_10">
     <g id="line2d_24">
      <g>
       <use style="stroke:#000000;stroke-width:1.5;" x="193.074318" xlink:href="#m55491f536f" y="162.44462"/>
      </g>
     </g>
    </g>
   </g>
   <g id="matplotlib.axis_10">
    <g id="ytick_11">
     <g id="line2d_25">
      <g>
       <use style="stroke:#000000;stroke-width:1.5;" x="40.8925" xlink:href="#mfb57a588ba" y="162.44462"/>
      </g>
     </g>
     <g id="text_15">
      <text style="font-family:Arial;font-size:8px;font-stretch:normal;font-style:normal;font-weight:normal;text-anchor:end;" transform="rotate(-0, 33.8925, 165.307745)" x="33.8925" y="165.307745">0</text>
     </g>
    </g>
    <g id="ytick_12">
     <g id="line2d_26">
      <g>
       <use style="stroke:#000000;stroke-width:1.5;" x="40.8925" xlink:href="#mfb57a588ba" y="120.262011"/>
      </g>
     </g>
     <g id="text_16">
      <text style="font-family:Arial;font-size:8px;font-stretch:normal;font-style:normal;font-weight:normal;text-anchor:end;" transform="rotate(-0, 33.8925, 123.125136)" x="33.8925" y="123.125136">12000</text>
     </g>
    </g>
   </g>
   <g id="line2d_27">
    <path clip-path="url(#p63f3e4d6c9)" d="M 40.8925 162.260428  L 51.545227 162.002607  L 60.042045 161.508906  L 60.929773 161.26315  L 61.437045 160.992204  L 61.8175 160.596443  L 62.071136 160.10228  L 62.324773 159.127692  L 62.578409 156.932789  L 62.832045 151.673855  L 63.466136 133.521131  L 63.719773 131.468117  L 63.973409 130.980897  L 64.353864 131.310375  L 64.861136 132.296272  L 65.622045 134.575255  L 66.509773 137.905311  L 68.919318 147.310497  L 69.933864 150.297219  L 70.821591 152.355549  L 71.962955 154.377595  L 73.611591 156.632145  L 74.626136 157.967022  L 75.387045 159.228606  L 75.894318 160.444871  L 76.655227 162.317101  L 76.908864 162.443394  L 77.416136 162.33089  L 78.5575 162.10233  L 80.459773 162.034734  L 112.291136 162.444619  L 133.342955 162.333906  L 141.205682 162.245862  L 146.658864 162.176176  L 150.717045 162.084521  L 154.014318 162.016257  L 156.170227 161.948966  L 159.340682 161.831865  L 162.511136 161.598474  L 164.286591 161.169809  L 164.793864 160.823639  L 165.174318 160.297325  L 165.427955 159.592529  L 165.681591 158.075378  L 165.935227 154.516662  L 166.315682 143.31108  L 166.696136 133.823502  L 166.949773 131.468074  L 167.203409 130.897772  L 167.457045 131.018179  L 167.8375 131.607935  L 168.725227 134.064643  L 169.612955 137.453292  L 172.783409 149.684107  L 173.797955 152.268745  L 175.319773 154.962372  L 176.841591 157.026387  L 177.982955 158.677848  L 178.617045 159.968104  L 179.631591 162.357552  L 179.885227 162.44461  L 180.646136 162.263176  L 182.167955 162.067862  L 185.211591 162.083748  L 188.001591 162.147951  L 192.9475 162.253558  L 192.9475 162.253558  " style="fill:none;stroke:#008000;stroke-linecap:square;stroke-width:1.5;"/>
   </g>
   <g id="line2d_28">
    <path clip-path="url(#p63f3e4d6c9)" d="M 40.8925 159.900073  L 43.175227 159.567796  L 44.950682 159.339067  L 45.457955 159.288954  L 46.726136 159.211993  L 47.233409 159.146469  L 53.193864 158.316091  L 53.574318 158.325143  L 55.349773 158.112085  L 58.900682 157.270767  L 59.915227 156.793886  L 60.929773 156.000148  L 61.310227 155.526816  L 61.690682 154.740831  L 62.071136 153.370573  L 62.324773 151.646601  L 62.578409 148.525107  L 62.958864 139.61732  L 63.339318 131.821381  L 63.592955 129.828179  L 63.846591 129.259426  L 64.100227 129.228515  L 64.353864 129.362353  L 64.987955 130.072783  L 66.0025 131.919342  L 67.017045 134.346585  L 69.933864 141.780459  L 71.075227 144.072439  L 72.216591 145.998336  L 74.879773 150.429102  L 75.387045 151.812129  L 75.7675 153.365717  L 76.147955 155.789669  L 76.908864 162.237042  L 77.1625 161.327254  L 77.542955 160.134263  L 77.923409 159.500385  L 78.430682 159.044791  L 79.191591 158.729939  L 80.206136 158.631325  L 81.220682 158.750546  L 82.869318 158.896543  L 84.1375 159.069806  L 85.025227 159.130466  L 87.307955 159.468034  L 96.312045 160.550561  L 96.946136 160.623952  L 97.833864 160.711111  L 98.467955 160.755824  L 110.515682 162.232287  L 111.657045 162.40129  L 112.291136 162.442718  L 113.305682 162.336707  L 114.066591 162.23804  L 114.700682 162.248524  L 116.476136 162.073257  L 116.983409 161.995188  L 119.266136 161.757074  L 120.914773 161.578672  L 121.8025 161.535015  L 134.991591 160.337646  L 136.767045 160.17783  L 137.527955 160.04356  L 140.317955 159.826585  L 141.586136 159.821176  L 143.868864 159.565377  L 144.629773 159.547482  L 146.151591 159.439694  L 150.209773 158.935155  L 158.833409 157.868535  L 162.2575 157.060031  L 163.018409 156.730563  L 164.032955 156.048066  L 164.793864 154.896043  L 165.174318 153.756578  L 165.554773 151.425349  L 165.808409 148.197103  L 166.822955 129.909932  L 167.076591 129.2334  L 167.330227 129.147573  L 167.710682 129.39931  L 168.217955 130.019491  L 168.852045 131.10058  L 169.866591 133.435375  L 173.797955 143.531552  L 176.461136 148.043672  L 177.6025 150.044083  L 178.236591 151.653736  L 178.617045 153.114298  L 178.9975 155.343899  L 179.885227 162.426565  L 180.265682 160.820216  L 180.646136 159.919121  L 181.407045 159.090015  L 182.421591 158.749002  L 183.309318 158.706118  L 184.831136 158.862873  L 185.845682 158.95583  L 191.172045 159.655259  L 191.5525 159.658074  L 192.9475 159.853051  L 192.9475 159.853051  " style="fill:none;stroke:#fc8d59;stroke-linecap:square;stroke-width:1.5;"/>
   </g>
   <g id="patch_15">
    <path d="M 40.8925 162.44462  L 40.8925 120.262011  " style="fill:none;stroke:#000000;stroke-linecap:square;stroke-linejoin:miter;stroke-width:1.5;"/>
   </g>
   <g id="patch_16">
    <path d="M 40.8925 162.44462  L 193.074318 162.44462  " style="fill:none;stroke:#000000;stroke-linecap:square;stroke-linejoin:miter;stroke-width:1.5;"/>
   </g>
   <g id="legend_1">
    <g id="line2d_29">
     <path d="M 88.463409 137.64462  L 94.063409 137.64462  " style="fill:none;stroke:#008000;stroke-linecap:square;stroke-width:1.5;"/>
    </g>
    <g id="line2d_30"/>
    <g id="text_17">
     <!-- $(V-E_{\mathrm{Na}})^2$ -->
     <g transform="translate(95.663409 140.44462)">
      <text>
       <tspan style="font-family:Arial;font-size:8px;font-style:regular;font-weight:regular;" x="0 2.664062 9.332812 15.3375 28.831778" y="-0.39949999999999974">(V&#8722;E)</tspan>
       <tspan style="font-family:DejaVu Sans;font-size:5.6px;font-style:book;font-weight:book;" x="20.812825 25.001887" y="1.9900000000000002">Na</tspan>
       <tspan style="font-family:Arial;font-size:5.6px;font-style:regular;font-weight:regular;" x="31.635228" y="-5.975">2</tspan>
      </text>
     </g>
    </g>
    <g id="line2d_31">
     <path d="M 88.463409 149.96462  L 94.063409 149.96462  " style="fill:none;stroke:#fc8d59;stroke-linecap:square;stroke-width:1.5;"/>
    </g>
    <g id="line2d_32"/>
    <g id="text_18">
     <!-- $100 \cdot (V-E_{\mathrm{Na}})$ -->
     <g transform="translate(95.663409 152.76462)">
      <text>
       <tspan style="font-family:Arial;font-size:8px;font-style:regular;font-weight:regular;" x="0 4.449219 8.898438 18.301276 20.965338 27.634088 33.638776 47.133054" y="-0.171875">100(V&#8722;E)</tspan>
       <tspan style="font-family:STIXGeneral;font-size:8px;font-style:regular;font-weight:regular;" x="14.680469" y="-0.171875">&#8901;</tspan>
       <tspan style="font-family:DejaVu Sans;font-size:5.6px;font-style:book;font-weight:book;" x="39.114101 43.303163" y="2.217625">Na</tspan>
      </text>
     </g>
    </g>
   </g>
  </g>
  <g id="axes_6">
   <g id="patch_17">
    <path d="M 223.510682 162.44462  L 375.6925 162.44462  L 375.6925 120.262011  L 223.510682 120.262011  z " style="fill:#ffffff;"/>
   </g>
   <g id="matplotlib.axis_11">
    <g id="xtick_11">
     <g id="line2d_33">
      <g>
       <use style="stroke:#000000;stroke-width:1.5;" x="223.510682" xlink:href="#m55491f536f" y="162.44462"/>
      </g>
     </g>
    </g>
    <g id="xtick_12">
     <g id="line2d_34">
      <g>
       <use style="stroke:#000000;stroke-width:1.5;" x="375.6925" xlink:href="#m55491f536f" y="162.44462"/>
      </g>
     </g>
    </g>
   </g>
   <g id="matplotlib.axis_12">
    <g id="ytick_13">
     <g id="line2d_35">
      <g>
       <use style="stroke:#000000;stroke-width:1.5;" x="223.510682" xlink:href="#mfb57a588ba" y="162.44462"/>
      </g>
     </g>
     <g id="text_19">
      <text style="font-family:Arial;font-size:8px;font-stretch:normal;font-style:normal;font-weight:normal;text-anchor:end;" transform="rotate(-0, 216.510682, 165.307745)" x="216.510682" y="165.307745">0</text>
     </g>
    </g>
    <g id="ytick_14">
     <g id="line2d_36">
      <g>
       <use style="stroke:#000000;stroke-width:1.5;" x="223.510682" xlink:href="#mfb57a588ba" y="120.262011"/>
      </g>
     </g>
     <g id="text_20">
      <text style="font-family:Arial;font-size:8px;font-stretch:normal;font-style:normal;font-weight:normal;text-anchor:end;" transform="rotate(-0, 216.510682, 123.125136)" x="216.510682" y="123.125136">12000</text>
     </g>
    </g>
   </g>
   <g id="line2d_37">
    <path clip-path="url(#p83439f983f)" d="M 223.510682 153.634396  L 224.652045 155.01522  L 225.920227 156.266776  L 228.076136 158.122186  L 229.2175 159.390523  L 229.851591 160.409855  L 230.866136 161.991466  L 231.373409 162.265047  L 232.134318 162.367475  L 234.163409 162.365505  L 243.801591 161.941901  L 248.620682 161.363068  L 249.508409 161.050278  L 250.015682 160.718005  L 250.396136 160.222029  L 250.649773 159.579528  L 250.903409 158.322759  L 251.157045 155.658321  L 251.5375 147.807542  L 251.917955 140.815935  L 252.171591 138.845955  L 252.425227 138.331886  L 252.552045 138.335018  L 252.805682 138.669182  L 253.186136 139.550021  L 254.200682 142.750435  L 255.976136 148.154834  L 257.244318 151.040975  L 258.385682 152.982236  L 259.527045 154.492353  L 260.541591 155.58842  L 261.556136 156.549753  L 263.331591 158.161151  L 264.472955 159.594745  L 265.360682 161.330159  L 265.867955 162.099923  L 266.248409 162.326112  L 267.009318 162.427516  L 270.687045 162.41214  L 277.027955 162.236495  L 283.876136 161.806417  L 286.666136 161.311223  L 287.427045 160.931908  L 287.8075 160.522045  L 288.061136 160.01832  L 288.314773 159.022119  L 288.568409 156.748385  L 288.822045 151.682031  L 289.329318 138.908224  L 289.582955 136.527852  L 289.836591 135.927359  L 290.090227 135.998915  L 290.470682 136.656439  L 290.851136 137.52394  L 291.865682 140.69155  L 293.894773 146.869245  L 295.289773 150.144078  L 296.557955 152.381224  L 297.826136 154.116765  L 299.347955 155.740671  L 301.7575 157.990582  L 302.518409 158.888546  L 303.279318 160.245564  L 304.167045 162.147298  L 304.5475 162.400651  L 305.181591 162.442747  L 310.888409 162.444505  L 318.117045 162.339922  L 328.008864 161.706358  L 329.6575 161.305289  L 330.291591 160.892913  L 330.672045 160.311263  L 330.925682 159.435681  L 331.179318 157.261223  L 331.432955 151.602359  L 331.940227 136.211338  L 332.193864 134.006495  L 332.4475 133.522458  L 332.701136 133.578654  L 333.081591 134.062147  L 333.8425 135.776292  L 337.900682 147.26903  L 338.915227 149.505549  L 339.929773 151.352268  L 341.578409 153.640041  L 342.719773 154.932177  L 346.524318 158.699093  L 347.158409 159.808619  L 348.299773 162.358589  L 348.680227 162.443334  L 351.597045 162.317931  L 363.391136 162.434702  L 372.395227 162.185949  L 375.565682 161.985214  L 375.565682 161.985214  " style="fill:none;stroke:#008000;stroke-linecap:square;stroke-width:1.5;"/>
   </g>
   <g id="line2d_38">
    <path clip-path="url(#p83439f983f)" d="M 223.510682 144.846366  L 224.905682 146.5692  L 228.076136 150.118107  L 228.963864 151.550565  L 229.597955 153.110742  L 230.105227 154.992066  L 231.119773 159.300207  L 231.627045 160.364219  L 232.134318 160.79787  L 232.514773 160.914014  L 233.022045 160.929184  L 233.656136 160.891809  L 236.446136 160.220207  L 237.714318 159.917471  L 239.109318 159.553381  L 239.616591 159.408428  L 241.392045 158.922336  L 246.972045 157.144316  L 249.001136 155.975079  L 249.762045 155.089592  L 250.1425 154.362409  L 250.522955 153.075185  L 250.776591 151.556386  L 251.030227 148.915753  L 251.5375 139.761474  L 251.917955 134.871167  L 252.171591 133.642808  L 252.425227 133.330791  L 252.678864 133.402804  L 253.186136 134.075712  L 254.073864 135.852959  L 256.863864 141.748346  L 258.005227 143.64263  L 259.9075 146.211785  L 261.936591 148.452404  L 263.331591 150.173791  L 264.219318 151.791982  L 264.726591 153.265791  L 265.233864 155.505164  L 266.248409 160.403594  L 266.628864 161.2242  L 267.009318 161.669236  L 267.516591 161.86868  L 269.292045 161.757222  L 271.701591 161.134534  L 272.208864 161.019507  L 272.589318 160.925085  L 273.350227 160.70611  L 274.618409 160.409262  L 275.125682 160.249488  L 279.183864 159.14783  L 280.071591 158.902216  L 282.354318 158.260153  L 282.988409 158.011511  L 284.383409 157.490142  L 285.905227 156.740029  L 287.300227 155.356915  L 287.680682 154.583076  L 288.061136 153.209377  L 288.314773 151.476104  L 288.568409 148.294176  L 289.456136 132.774465  L 289.709773 132.017834  L 289.963409 131.919677  L 290.217045 132.048122  L 290.851136 132.847051  L 291.738864 134.531241  L 295.416591 141.859734  L 296.557955 143.636371  L 298.206591 145.782134  L 299.221136 146.94326  L 302.137955 150.534284  L 302.645227 151.571952  L 303.1525 153.134703  L 303.532955 154.95096  L 304.674318 161.651782  L 304.927955 162.289736  L 305.054773 162.368619  L 305.435227 161.927582  L 306.069318 161.644637  L 306.703409 161.624539  L 308.605682 161.935768  L 310.254318 162.31839  L 310.761591 162.41567  L 314.439318 161.50953  L 315.200227 161.335764  L 323.570227 158.981665  L 324.457955 158.692523  L 325.345682 158.453368  L 326.233409 158.127788  L 326.994318 157.884481  L 328.135682 157.26559  L 329.023409 156.721462  L 329.530682 156.25149  L 330.037955 155.54974  L 330.418409 154.731845  L 330.672045 153.784821  L 330.925682 152.16013  L 331.179318 148.946188  L 332.067045 131.24193  L 332.320682 130.63407  L 332.574318 130.55258  L 332.954773 130.755112  L 333.462045 131.296827  L 334.476591 132.862103  L 335.871591 135.48809  L 338.281136 140.04619  L 340.056591 142.867656  L 341.451591 144.721441  L 342.592955 146.055098  L 345.763409 149.656281  L 346.524318 150.970151  L 347.031591 152.363198  L 347.412045 154.008954  L 347.7925 156.589005  L 348.553409 162.161687  L 348.680227 162.23203  L 349.060682 161.232924  L 349.441136 160.710944  L 349.948409 160.393945  L 350.328864 160.289641  L 350.709318 160.256275  L 351.850682 160.39329  L 352.738409 160.552697  L 354.894318 160.969144  L 356.035682 161.243784  L 360.3475 162.276405  L 361.362045 162.338987  L 363.644773 161.77492  L 366.307955 161.044197  L 367.068864 160.842693  L 368.463864 160.492918  L 375.565682 158.426023  L 375.565682 158.426023  " style="fill:none;stroke:#fc8d59;stroke-linecap:square;stroke-width:1.5;"/>
   </g>
   <g id="patch_18">
    <path d="M 223.510682 162.44462  L 223.510682 120.262011  " style="fill:none;stroke:#000000;stroke-linecap:square;stroke-linejoin:miter;stroke-width:1.5;"/>
   </g>
   <g id="patch_19">
    <path d="M 223.510682 162.44462  L 375.6925 162.44462  " style="fill:none;stroke:#000000;stroke-linecap:square;stroke-linejoin:miter;stroke-width:1.5;"/>
   </g>
  </g>
  <g id="axes_7">
   <g id="patch_20">
    <path d="M 40.8925 213.06375  L 193.074318 213.06375  L 193.074318 170.881141  L 40.8925 170.881141  z " style="fill:#ffffff;"/>
   </g>
   <g id="matplotlib.axis_13">
    <g id="xtick_13">
     <g id="line2d_39">
      <g>
       <use style="stroke:#000000;stroke-width:1.5;" x="40.8925" xlink:href="#m55491f536f" y="213.06375"/>
      </g>
     </g>
     <g id="text_21">
      <text style="font-family:Arial;font-size:8px;font-stretch:normal;font-style:normal;font-weight:normal;text-anchor:middle;" transform="rotate(-0, 40.8925, 225.79)" x="40.8925" y="225.79">0</text>
     </g>
    </g>
    <g id="xtick_14">
     <g id="line2d_40">
      <g>
       <use style="stroke:#000000;stroke-width:1.5;" x="193.074318" xlink:href="#m55491f536f" y="213.06375"/>
      </g>
     </g>
     <g id="text_22">
      <text style="font-family:Arial;font-size:8px;font-stretch:normal;font-style:normal;font-weight:normal;text-anchor:middle;" transform="rotate(-0, 193.074318, 225.79)" x="193.074318" y="225.79">30</text>
     </g>
    </g>
    <g id="text_23">
     <text style="font-family:Arial;font-size:8px;font-stretch:normal;font-style:normal;font-weight:normal;text-anchor:middle;" transform="rotate(-0, 116.983409, 237.20375)" x="116.983409" y="237.20375">Time (ms)</text>
    </g>
   </g>
   <g id="matplotlib.axis_14">
    <g id="ytick_15">
     <g id="line2d_41">
      <g>
       <use style="stroke:#000000;stroke-width:1.5;" x="40.8925" xlink:href="#mfb57a588ba" y="213.06375"/>
      </g>
     </g>
     <g id="text_24">
      <text style="font-family:Arial;font-size:8px;font-stretch:normal;font-style:normal;font-weight:normal;text-anchor:end;" transform="rotate(-0, 33.8925, 215.926875)" x="33.8925" y="215.926875">0</text>
     </g>
    </g>
    <g id="ytick_16">
     <g id="line2d_42">
      <g>
       <use style="stroke:#000000;stroke-width:1.5;" x="40.8925" xlink:href="#mfb57a588ba" y="170.881141"/>
      </g>
     </g>
     <g id="text_25">
      <text style="font-family:Arial;font-size:8px;font-stretch:normal;font-style:normal;font-weight:normal;text-anchor:end;" transform="rotate(-0, 33.8925, 173.744266)" x="33.8925" y="173.744266">500000</text>
     </g>
    </g>
   </g>
   <g id="line2d_43">
    <path clip-path="url(#pa112f5d316)" d="M 40.8925 213.063729  L 62.197955 212.974842  L 62.451591 212.804253  L 62.578409 212.562836  L 62.705227 212.039627  L 62.958864 209.108443  L 63.973409 189.669901  L 64.353864 188.173404  L 64.6075 188.097987  L 64.861136 188.4494  L 65.241591 189.607317  L 66.0025 192.790727  L 67.904773 201.010453  L 68.7925 203.927749  L 69.680227 206.166309  L 70.441136 207.639356  L 71.328864 208.934143  L 72.470227 210.159226  L 73.992045 211.365163  L 75.387045 212.359408  L 76.401591 213.022587  L 77.1625 213.063165  L 109.501136 213.06375  L 165.427955 212.967793  L 165.681591 212.7851  L 165.808409 212.533208  L 165.935227 212.006391  L 166.188864 209.270332  L 167.076591 193.03048  L 167.330227 191.453803  L 167.583864 190.81781  L 167.8375 190.785174  L 168.217955 191.47014  L 168.725227 193.094216  L 169.993409 198.28539  L 171.261591 202.997974  L 172.402955 206.11533  L 173.163864 207.642213  L 174.178409 209.144138  L 175.319773 210.323086  L 176.587955 211.29936  L 179.124318 212.9631  L 179.631591 213.060863  L 185.592045 213.063747  L 192.9475 213.06375  L 192.9475 213.06375  " style="fill:none;stroke:#008000;stroke-linecap:square;stroke-width:1.5;"/>
   </g>
   <g id="line2d_44">
    <path clip-path="url(#pa112f5d316)" d="M 40.8925 213.06346  L 61.690682 212.960622  L 62.197955 212.745053  L 62.451591 212.310601  L 62.705227 210.865872  L 62.958864 206.972901  L 63.719773 190.867521  L 64.100227 187.557052  L 64.353864 186.616053  L 64.6075 186.339349  L 64.861136 186.485113  L 65.241591 187.271903  L 65.875682 189.250698  L 68.412045 198.21503  L 69.426591 201.040471  L 70.567955 203.576475  L 71.709318 205.55947  L 73.104318 207.546002  L 75.260227 210.513127  L 76.021136 212.027366  L 76.528409 212.882465  L 76.908864 213.058585  L 79.318409 213.059598  L 101.765227 213.063749  L 164.920682 212.954484  L 165.301136 212.823949  L 165.554773 212.5614  L 165.808409 211.75477  L 166.062045 209.34882  L 166.569318 199.128494  L 166.949773 193.093404  L 167.330227 190.249816  L 167.583864 189.481946  L 167.8375 189.277297  L 168.091136 189.456826  L 168.471591 190.173273  L 169.105682 191.999488  L 172.149318 201.401645  L 173.290682 203.915698  L 174.305227 205.681481  L 175.953864 207.925898  L 178.363409 211.064238  L 179.504773 212.940908  L 179.885227 213.063387  L 181.280227 213.052247  L 192.693864 213.06375  L 192.9475 213.06375  L 192.9475 213.06375  " style="fill:none;stroke:#fc8d59;stroke-linecap:square;stroke-width:1.5;"/>
   </g>
   <g id="patch_21">
    <path d="M 40.8925 213.06375  L 40.8925 170.881141  " style="fill:none;stroke:#000000;stroke-linecap:square;stroke-linejoin:miter;stroke-width:1.5;"/>
   </g>
   <g id="patch_22">
    <path d="M 40.8925 213.06375  L 193.074318 213.06375  " style="fill:none;stroke:#000000;stroke-linecap:square;stroke-linejoin:miter;stroke-width:1.5;"/>
   </g>
   <g id="legend_2">
    <g id="line2d_45">
     <path d="M 82.143409 187.86375  L 87.743409 187.86375  " style="fill:none;stroke:#008000;stroke-linecap:square;stroke-width:1.5;"/>
    </g>
    <g id="line2d_46"/>
    <g id="text_26">
     <!-- $\overline{g}_{\mathrm{Na}} (V-E_{\mathrm{Na}})^2$ -->
     <g transform="translate(89.343409 190.66375)">
      <text>
       <tspan style="font-family:Arial;font-size:8px;font-style:regular;font-weight:regular;" x="0 12.607559 15.271622 21.940372 27.945059 41.439338" y="-0.8795000000000002 -0.39949999999999974 -0.39949999999999974 -0.39949999999999974 -0.39949999999999974 -0.39949999999999974">g(V&#8722;E)</tspan>
       <tspan style="font-family:DejaVu Sans;font-size:5.6px;font-style:book;font-weight:book;" x="4.588606 8.777669 33.420384 37.609447" y="1.9900000000000002">NaNa</tspan>
       <tspan style="font-family:Arial;font-size:5.6px;font-style:regular;font-weight:regular;" x="44.242787" y="-5.975">2</tspan>
      </text>
      <rect height="0.5" width="4.449219" x="0" y="-6.6295"/>
     </g>
    </g>
    <g id="line2d_47">
     <path d="M 82.143409 200.58375  L 87.743409 200.58375  " style="fill:none;stroke:#fc8d59;stroke-linecap:square;stroke-width:1.5;"/>
    </g>
    <g id="line2d_48"/>
    <g id="text_27">
     <!-- $100 \cdot \overline{g}_{\mathrm{Na}} (V-E_{\mathrm{Na}})$ -->
     <g transform="translate(89.343409 203.38375)">
      <text>
       <tspan style="font-family:Arial;font-size:8px;font-style:regular;font-weight:regular;" x="0 4.449219 8.898438 18.301276 30.908835 33.572898 40.241648 46.246335 59.740613" y="-0.7699999999999996 -0.7699999999999996 -0.7699999999999996 -1.25 -0.7699999999999996 -0.7699999999999996 -0.7699999999999996 -0.7699999999999996 -0.7699999999999996">100g(V&#8722;E)</tspan>
       <tspan style="font-family:STIXGeneral;font-size:8px;font-style:regular;font-weight:regular;" x="14.680469" y="-0.7699999999999996">&#8901;</tspan>
       <tspan style="font-family:DejaVu Sans;font-size:5.6px;font-style:book;font-weight:book;" x="22.889882 27.078944 51.72166 55.910723" y="1.6195000000000004">NaNa</tspan>
      </text>
      <rect height="0.5" width="4.449219" x="18.301276" y="-7"/>
     </g>
    </g>
   </g>
  </g>
  <g id="axes_8">
   <g id="patch_23">
    <path d="M 223.510682 213.06375  L 375.6925 213.06375  L 375.6925 170.881141  L 223.510682 170.881141  z " style="fill:#ffffff;"/>
   </g>
   <g id="matplotlib.axis_15">
    <g id="xtick_15">
     <g id="line2d_49">
      <g>
       <use style="stroke:#000000;stroke-width:1.5;" x="223.510682" xlink:href="#m55491f536f" y="213.06375"/>
      </g>
     </g>
     <g id="text_28">
      <text style="font-family:Arial;font-size:8px;font-stretch:normal;font-style:normal;font-weight:normal;text-anchor:middle;" transform="rotate(-0, 223.510682, 225.79)" x="223.510682" y="225.79">0</text>
     </g>
    </g>
    <g id="xtick_16">
     <g id="line2d_50">
      <g>
       <use style="stroke:#000000;stroke-width:1.5;" x="375.6925" xlink:href="#m55491f536f" y="213.06375"/>
      </g>
     </g>
     <g id="text_29">
      <text style="font-family:Arial;font-size:8px;font-stretch:normal;font-style:normal;font-weight:normal;text-anchor:middle;" transform="rotate(-0, 375.6925, 225.79)" x="375.6925" y="225.79">30</text>
     </g>
    </g>
    <g id="text_30">
     <text style="font-family:Arial;font-size:8px;font-stretch:normal;font-style:normal;font-weight:normal;text-anchor:middle;" transform="rotate(-0, 299.601591, 237.20375)" x="299.601591" y="237.20375">Time (ms)</text>
    </g>
   </g>
   <g id="matplotlib.axis_16">
    <g id="ytick_17">
     <g id="line2d_51">
      <g>
       <use style="stroke:#000000;stroke-width:1.5;" x="223.510682" xlink:href="#mfb57a588ba" y="213.06375"/>
      </g>
     </g>
     <g id="text_31">
      <text style="font-family:Arial;font-size:8px;font-stretch:normal;font-style:normal;font-weight:normal;text-anchor:end;" transform="rotate(-0, 216.510682, 215.926875)" x="216.510682" y="215.926875">0</text>
     </g>
    </g>
    <g id="ytick_18">
     <g id="line2d_52">
      <g>
       <use style="stroke:#000000;stroke-width:1.5;" x="223.510682" xlink:href="#mfb57a588ba" y="170.881141"/>
      </g>
     </g>
     <g id="text_32">
      <text style="font-family:Arial;font-size:8px;font-stretch:normal;font-style:normal;font-weight:normal;text-anchor:end;" transform="rotate(-0, 216.510682, 173.744266)" x="216.510682" y="173.744266">500000</text>
     </g>
    </g>
   </g>
   <g id="line2d_53">
    <path clip-path="url(#p9a414f64f7)" d="M 223.510682 209.732965  L 224.652045 210.595391  L 226.047045 211.374389  L 228.202955 212.267822  L 230.6125 213.040462  L 232.514773 213.063678  L 250.522955 212.983686  L 250.903409 212.771331  L 251.157045 212.148758  L 251.410682 210.225278  L 252.425227 197.940791  L 252.678864 197.178822  L 252.9325 197.056347  L 253.186136 197.343342  L 253.693409 198.54263  L 255.595682 204.188121  L 256.610227 206.367927  L 257.624773 208.011774  L 258.766136 209.322494  L 259.9075 210.292413  L 261.3025 211.167035  L 263.077955 212.023842  L 265.614318 213.03759  L 267.136136 213.063714  L 288.061136 212.983851  L 288.314773 212.866517  L 288.568409 212.402579  L 288.695227 211.745754  L 288.948864 208.415607  L 289.709773 192.668572  L 290.090227 189.840768  L 290.343864 189.295235  L 290.5975 189.374103  L 290.851136 189.893494  L 291.358409 191.744112  L 294.021591 202.094899  L 294.909318 204.435229  L 295.670227 206.010109  L 296.684773 207.633146  L 297.826136 209.010871  L 299.094318 210.143159  L 300.616136 211.173435  L 303.913409 213.018673  L 304.801136 213.063686  L 330.798864 212.970194  L 331.0525 212.783547  L 331.179318 212.49842  L 331.306136 211.812351  L 331.432955 210.280137  L 331.686591 203.099097  L 332.193864 185.300725  L 332.574318 178.724096  L 332.827955 176.725097  L 333.081591 175.982905  L 333.208409 176.002395  L 333.462045 176.485946  L 333.8425 178.054183  L 335.2375 186.413588  L 336.505682 193.416882  L 337.647045 198.339052  L 338.534773 201.327769  L 339.676136 204.263835  L 340.690682 206.218523  L 341.705227 207.722906  L 342.846591 209.048662  L 344.622045 210.590168  L 348.046136 213.037172  L 349.060682 213.063282  L 375.565682 213.06337  L 375.565682 213.06337  " style="fill:none;stroke:#008000;stroke-linecap:square;stroke-width:1.5;"/>
   </g>
   <g id="line2d_54">
    <path clip-path="url(#p9a414f64f7)" d="M 223.510682 206.41057  L 224.778864 207.825124  L 226.807955 209.640587  L 229.471136 211.90335  L 230.485682 212.838282  L 230.992955 213.01042  L 232.261136 213.061168  L 249.127955 213.019766  L 250.269318 212.882876  L 250.649773 212.656612  L 250.903409 212.209796  L 251.157045 210.98129  L 251.410682 208.136054  L 252.298409 195.603461  L 252.678864 193.836655  L 252.9325 193.500072  L 253.186136 193.584448  L 253.566591 194.174223  L 254.200682 195.784501  L 256.356591 201.407741  L 257.497955 203.661863  L 258.5125 205.265996  L 259.780682 206.911914  L 261.175682 208.400503  L 264.599773 211.755419  L 265.614318 212.872626  L 266.121591 213.028808  L 267.643409 213.063086  L 287.300227 212.98547  L 287.934318 212.837838  L 288.187955 212.637052  L 288.441591 212.069313  L 288.695227 210.267705  L 288.948864 205.793254  L 289.709773 189.501129  L 290.090227 186.28955  L 290.343864 185.456341  L 290.5975 185.273418  L 290.851136 185.545109  L 291.231591 186.510406  L 292.246136 190.173128  L 293.641136 195.216134  L 294.909318 198.929131  L 295.923864 201.322486  L 297.445682 204.13625  L 298.713864 205.998163  L 300.3625 208.025509  L 302.898864 211.117985  L 304.040227 212.861205  L 304.420682 213.023684  L 305.435227 213.061472  L 330.037955 212.985676  L 330.672045 212.812689  L 330.925682 212.536656  L 331.0525 212.216045  L 331.179318 211.591535  L 331.432955 208.05159  L 331.813409 194.762085  L 332.320682 179.31459  L 332.701136 173.855403  L 332.954773 172.209724  L 333.208409 171.633308  L 333.335227 171.641996  L 333.588864 172.067793  L 333.969318 173.402016  L 334.730227 177.114342  L 336.759318 187.345849  L 337.900682 192.024482  L 339.042045 195.892016  L 340.310227 199.305285  L 341.578409 202.043745  L 342.846591 204.307902  L 345.129318 207.63618  L 346.777955 210.164751  L 347.538864 211.834206  L 348.046136 212.811427  L 348.426591 213.035761  L 349.060682 213.050182  L 375.565682 213.060428  L 375.565682 213.060428  " style="fill:none;stroke:#fc8d59;stroke-linecap:square;stroke-width:1.5;"/>
   </g>
   <g id="patch_24">
    <path d="M 223.510682 213.06375  L 223.510682 170.881141  " style="fill:none;stroke:#000000;stroke-linecap:square;stroke-linejoin:miter;stroke-width:1.5;"/>
   </g>
   <g id="patch_25">
    <path d="M 223.510682 213.06375  L 375.6925 213.06375  " style="fill:none;stroke:#000000;stroke-linecap:square;stroke-linejoin:miter;stroke-width:1.5;"/>
   </g>
  </g>
 </g>
 <defs>
  <clipPath id="p520a78ae86">
   <rect height="42.182609" width="152.181818" x="40.8925" y="19.02375"/>
  </clipPath>
  <clipPath id="pf6ef90b259">
   <rect height="42.182609" width="152.181818" x="223.510682" y="19.02375"/>
  </clipPath>
  <clipPath id="peea1e63c4c">
   <rect height="42.182609" width="152.181818" x="40.8925" y="69.64288"/>
  </clipPath>
  <clipPath id="p3098105a0e">
   <rect height="42.182609" width="152.181818" x="223.510682" y="69.64288"/>
  </clipPath>
  <clipPath id="p63f3e4d6c9">
   <rect height="42.182609" width="152.181818" x="40.8925" y="120.262011"/>
  </clipPath>
  <clipPath id="p83439f983f">
   <rect height="42.182609" width="152.181818" x="223.510682" y="120.262011"/>
  </clipPath>
  <clipPath id="pa112f5d316">
   <rect height="42.182609" width="152.181818" x="40.8925" y="170.881141"/>
  </clipPath>
  <clipPath id="p9a414f64f7">
   <rect height="42.182609" width="152.181818" x="223.510682" y="170.881141"/>
  </clipPath>
 </defs>
</g>
      <text x="-27.5" y="3.3" font-size="12pt" font-family="Arial" font-weight="800" letter-spacing="0" text-anchor="start" fill="black">a</text>
    </g>
    <g transform="translate(550.0, 11.0) scale(1) ">
      <g transform="translate(0.0, 0.0) scale(1) translate(0, 0) scale(1.25) "><metadata>
  <rdf:RDF xmlns:cc="http://creativecommons.org/ns#" xmlns:dc="http://purl.org/dc/elements/1.1/" xmlns:rdf="http://www.w3.org/1999/02/22-rdf-syntax-ns#">
   <cc:Work>
    <dc:type rdf:resource="http://purl.org/dc/dcmitype/StillImage"/>
    <dc:date>2022-07-11T17:33:30.046676</dc:date>
    <dc:format>image/svg+xml</dc:format>
    <dc:creator>
     <cc:Agent>
      <dc:title>Matplotlib v3.4.2, https://matplotlib.org/</dc:title>
     </cc:Agent>
    </dc:creator>
   </cc:Work>
  </rdf:RDF>
 </metadata>
 <defs>
  <style type="text/css">*{stroke-linecap:butt;stroke-linejoin:round;}</style>
 </defs>
 <g id="figure_1">
  <g id="patch_1">
   <path d="M 0 169.6825  L 163.96 169.6825  L 163.96 0  L 0 0  z " style="fill:#ffffff;"/>
  </g>
  <g id="axes_1">
   <g id="patch_2">
    <path d="M 45.16 126.80625  L 156.76 126.80625  L 156.76 15.92625  L 45.16 15.92625  z " style="fill:#ffffff;"/>
   </g>
   <g id="PathCollection_1">
    <defs>
     <path d="M 0 1.5  C 0.397805 1.5 0.77937 1.341951 1.06066 1.06066  C 1.341951 0.77937 1.5 0.397805 1.5 0  C 1.5 -0.397805 1.341951 -0.77937 1.06066 -1.06066  C 0.77937 -1.341951 0.397805 -1.5 0 -1.5  C -0.397805 -1.5 -0.77937 -1.341951 -1.06066 -1.06066  C -1.341951 -0.77937 -1.5 -0.397805 -1.5 0  C -1.5 0.397805 -1.341951 0.77937 -1.06066 1.06066  C -0.77937 1.341951 -0.397805 1.5 0 1.5  z " id="mcd5fd86237" style="stroke:#000000;"/>
    </defs>
    <g clip-path="url(#pe69df2546f)">
     <use style="stroke:#000000;" x="91.78891" xlink:href="#mcd5fd86237" y="79.404979"/>
     <use style="stroke:#000000;" x="68.782127" xlink:href="#mcd5fd86237" y="103.497452"/>
     <use style="stroke:#000000;" x="151.687273" xlink:href="#mcd5fd86237" y="20.96625"/>
     <use style="stroke:#000000;" x="128.665003" xlink:href="#mcd5fd86237" y="47.047919"/>
     <use style="stroke:#000000;" x="146.336496" xlink:href="#mcd5fd86237" y="26.369365"/>
     <use style="stroke:#000000;" x="78.830582" xlink:href="#mcd5fd86237" y="91.817069"/>
     <use style="stroke:#000000;" x="123.692393" xlink:href="#mcd5fd86237" y="50.229676"/>
     <use style="stroke:#000000;" x="59.123289" xlink:href="#mcd5fd86237" y="111.881586"/>
     <use style="stroke:#000000;" x="71.175993" xlink:href="#mcd5fd86237" y="99.472866"/>
     <use style="stroke:#000000;" x="50.232727" xlink:href="#mcd5fd86237" y="121.76625"/>
     <use style="stroke:#000000;" x="56.008007" xlink:href="#mcd5fd86237" y="115.551205"/>
     <use style="stroke:#000000;" x="125.839264" xlink:href="#mcd5fd86237" y="47.058195"/>
     <use style="stroke:#000000;" x="117.895398" xlink:href="#mcd5fd86237" y="54.85024"/>
     <use style="stroke:#000000;" x="117.197062" xlink:href="#mcd5fd86237" y="54.906485"/>
     <use style="stroke:#000000;" x="90.135557" xlink:href="#mcd5fd86237" y="81.433912"/>
     <use style="stroke:#000000;" x="92.390384" xlink:href="#mcd5fd86237" y="80.455611"/>
     <use style="stroke:#000000;" x="65.807308" xlink:href="#mcd5fd86237" y="106.489193"/>
     <use style="stroke:#000000;" x="70.553145" xlink:href="#mcd5fd86237" y="100.601639"/>
     <use style="stroke:#000000;" x="68.462657" xlink:href="#mcd5fd86237" y="103.080251"/>
     <use style="stroke:#000000;" x="68.663131" xlink:href="#mcd5fd86237" y="101.201608"/>
    </g>
   </g>
   <g id="PathCollection_2">
    <defs>
     <path d="M 0 1.5  C 0.397805 1.5 0.77937 1.341951 1.06066 1.06066  C 1.341951 0.77937 1.5 0.397805 1.5 0  C 1.5 -0.397805 1.341951 -0.77937 1.06066 -1.06066  C 0.77937 -1.341951 0.397805 -1.5 0 -1.5  C -0.397805 -1.5 -0.77937 -1.341951 -1.06066 -1.06066  C -1.341951 -0.77937 -1.5 -0.397805 -1.5 0  C -1.5 0.397805 -1.341951 0.77937 -1.06066 1.06066  C -0.77937 1.341951 -0.397805 1.5 0 1.5  z " id="md42a5b9b28" style="stroke:#d7301f;"/>
    </defs>
    <g clip-path="url(#pe69df2546f)">
     <use style="fill:#d7301f;stroke:#d7301f;" x="91.78891" xlink:href="#md42a5b9b28" y="79.404979"/>
    </g>
   </g>
   <g id="PathCollection_3">
    <defs>
     <path d="M 0 1.5  C 0.397805 1.5 0.77937 1.341951 1.06066 1.06066  C 1.341951 0.77937 1.5 0.397805 1.5 0  C 1.5 -0.397805 1.341951 -0.77937 1.06066 -1.06066  C 0.77937 -1.341951 0.397805 -1.5 0 -1.5  C -0.397805 -1.5 -0.77937 -1.341951 -1.06066 -1.06066  C -1.341951 -0.77937 -1.5 -0.397805 -1.5 0  C -1.5 0.397805 -1.341951 0.77937 -1.06066 1.06066  C -0.77937 1.341951 -0.397805 1.5 0 1.5  z " id="me148ecfcfe" style="stroke:#0570b0;"/>
    </defs>
    <g clip-path="url(#pe69df2546f)">
     <use style="fill:#0570b0;stroke:#0570b0;" x="151.687273" xlink:href="#me148ecfcfe" y="20.96625"/>
    </g>
   </g>
   <g id="matplotlib.axis_1">
    <g id="xtick_1">
     <g id="line2d_1">
      <defs>
       <path d="M 0 0  L 0 3.5  " id="m23b9fd728f" style="stroke:#000000;stroke-width:1.5;"/>
      </defs>
      <g>
       <use style="stroke:#000000;stroke-width:1.5;" x="46.770748" xlink:href="#m23b9fd728f" y="126.80625"/>
      </g>
     </g>
     <g id="text_1">
      <text style="font-family:Arial;font-size:8px;font-stretch:normal;font-style:normal;font-weight:normal;text-anchor:middle;" transform="rotate(-0, 46.770748, 139.5325)" x="46.770748" y="139.5325">0</text>
     </g>
    </g>
    <g id="xtick_2">
     <g id="line2d_2">
      <g>
       <use style="stroke:#000000;stroke-width:1.5;" x="97.380114" xlink:href="#m23b9fd728f" y="126.80625"/>
      </g>
     </g>
     <g id="text_2">
      <text style="font-family:Arial;font-size:8px;font-stretch:normal;font-style:normal;font-weight:normal;text-anchor:middle;" transform="rotate(-0, 97.380114, 139.5325)" x="97.380114" y="139.5325">1</text>
     </g>
    </g>
    <g id="xtick_3">
     <g id="line2d_3">
      <g>
       <use style="stroke:#000000;stroke-width:1.5;" x="147.98948" xlink:href="#m23b9fd728f" y="126.80625"/>
      </g>
     </g>
     <g id="text_3">
      <text style="font-family:Arial;font-size:8px;font-stretch:normal;font-style:normal;font-weight:normal;text-anchor:middle;" transform="rotate(-0, 147.98948, 139.5325)" x="147.98948" y="139.5325">2</text>
     </g>
    </g>
    <g id="text_4">
     <!-- $\sum_t \overline{g} (V-E)^2$ -->
     <g transform="translate(81.6 154.8025)">
      <text>
       <tspan style="font-family:DejaVu Sans Display;font-size:8px;font-style:display;font-weight:display;" x="0" y="-0.39949999999999974">&#8721;</tspan>
       <tspan style="font-family:Arial;font-size:5.6px;font-style:regular;font-weight:regular;" x="3 35.176106" y="7.188000000000002 -5.975">t2</tspan>
       <tspan style="font-family:Arial;font-size:8px;font-style:regular;font-weight:regular;" x="7.25 11.699219 14.363281 21.032031 27.036719 32.372656" y="-0.8795000000000002 -0.39949999999999974 -0.39949999999999974 -0.39949999999999974 -0.39949999999999974 -0.39949999999999974">g(V&#8722;E)</tspan>
      </text>
      <rect height="0.5" width="4.449219" x="7.25" y="-6.6295"/>
     </g>
    </g>
    <g id="text_5">
     <text style="font-family:Arial;font-size:8px;font-stretch:normal;font-style:normal;font-weight:normal;text-anchor:end;" transform="rotate(-0, 156.76, 149.84875)" x="156.76" y="149.84875">1e9</text>
    </g>
   </g>
   <g id="matplotlib.axis_2">
    <g id="ytick_1">
     <g id="line2d_4">
      <defs>
       <path d="M 0 0  L -3.5 0  " id="mf2be006e8f" style="stroke:#000000;stroke-width:1.5;"/>
      </defs>
      <g>
       <use style="stroke:#000000;stroke-width:1.5;" x="45.16" xlink:href="#mf2be006e8f" y="125.918301"/>
      </g>
     </g>
     <g id="text_6">
      <text style="font-family:Arial;font-size:8px;font-stretch:normal;font-style:normal;font-weight:normal;text-anchor:end;" transform="rotate(-0, 38.16, 128.781426)" x="38.16" y="128.781426">0.0</text>
     </g>
    </g>
    <g id="ytick_2">
     <g id="line2d_5">
      <g>
       <use style="stroke:#000000;stroke-width:1.5;" x="45.16" xlink:href="#mf2be006e8f" y="106.652659"/>
      </g>
     </g>
     <g id="text_7">
      <text style="font-family:Arial;font-size:8px;font-stretch:normal;font-style:normal;font-weight:normal;text-anchor:end;" transform="rotate(-0, 38.16, 109.515784)" x="38.16" y="109.515784">0.5</text>
     </g>
    </g>
    <g id="ytick_3">
     <g id="line2d_6">
      <g>
       <use style="stroke:#000000;stroke-width:1.5;" x="45.16" xlink:href="#mf2be006e8f" y="87.387016"/>
      </g>
     </g>
     <g id="text_8">
      <text style="font-family:Arial;font-size:8px;font-stretch:normal;font-style:normal;font-weight:normal;text-anchor:end;" transform="rotate(-0, 38.16, 90.250141)" x="38.16" y="90.250141">1.0</text>
     </g>
    </g>
    <g id="ytick_4">
     <g id="line2d_7">
      <g>
       <use style="stroke:#000000;stroke-width:1.5;" x="45.16" xlink:href="#mf2be006e8f" y="68.121373"/>
      </g>
     </g>
     <g id="text_9">
      <text style="font-family:Arial;font-size:8px;font-stretch:normal;font-style:normal;font-weight:normal;text-anchor:end;" transform="rotate(-0, 38.16, 70.984498)" x="38.16" y="70.984498">1.5</text>
     </g>
    </g>
    <g id="ytick_5">
     <g id="line2d_8">
      <g>
       <use style="stroke:#000000;stroke-width:1.5;" x="45.16" xlink:href="#mf2be006e8f" y="48.855731"/>
      </g>
     </g>
     <g id="text_10">
      <text style="font-family:Arial;font-size:8px;font-stretch:normal;font-style:normal;font-weight:normal;text-anchor:end;" transform="rotate(-0, 38.16, 51.718856)" x="38.16" y="51.718856">2.0</text>
     </g>
    </g>
    <g id="ytick_6">
     <g id="line2d_9">
      <g>
       <use style="stroke:#000000;stroke-width:1.5;" x="45.16" xlink:href="#mf2be006e8f" y="29.590088"/>
      </g>
     </g>
     <g id="text_11">
      <text style="font-family:Arial;font-size:8px;font-stretch:normal;font-style:normal;font-weight:normal;text-anchor:end;" transform="rotate(-0, 38.16, 32.453213)" x="38.16" y="32.453213">2.5</text>
     </g>
    </g>
    <g id="text_12">
     <!-- $\sum_t 100 \cdot \overline{g} (V-E)$ -->
     <g transform="translate(15.36 98.04625)rotate(-90)">
      <text>
       <tspan style="font-family:DejaVu Sans Display;font-size:8px;font-style:display;font-weight:display;" x="0" y="-0.859375">&#8721;</tspan>
       <tspan style="font-family:Arial;font-size:5.6px;font-style:regular;font-weight:regular;" x="3" y="6.728125">t</tspan>
       <tspan style="font-family:Arial;font-size:8px;font-style:regular;font-weight:regular;" x="7.25 11.699219 16.148438 25.551276 30.000494 32.664557 39.333307 45.337994 50.673932" y="-0.859375 -0.859375 -0.859375 -1.3393750000000004 -0.859375 -0.859375 -0.859375 -0.859375 -0.859375">100g(V&#8722;E)</tspan>
       <tspan style="font-family:STIXGeneral;font-size:8px;font-style:regular;font-weight:regular;" x="21.930469" y="-0.859375">&#8901;</tspan>
      </text>
      <rect height="0.5" width="4.449219" x="25.551276" y="-7.089375"/>
     </g>
    </g>
    <g id="text_13">
     <text style="font-family:Arial;font-size:8px;font-stretch:normal;font-style:normal;font-weight:normal;text-anchor:start;" transform="rotate(-0, 45.16, 12.92625)" x="45.16" y="12.92625">1e9</text>
    </g>
   </g>
   <g id="patch_3">
    <path d="M 45.16 126.80625  L 45.16 15.92625  " style="fill:none;stroke:#000000;stroke-linecap:square;stroke-linejoin:miter;stroke-width:1.5;"/>
   </g>
   <g id="patch_4">
    <path d="M 45.16 126.80625  L 156.76 126.80625  " style="fill:none;stroke:#000000;stroke-linecap:square;stroke-linejoin:miter;stroke-width:1.5;"/>
   </g>
   <g id="text_14">
    <!-- $\rho = 0.9995$ -->
    <g transform="translate(51.831684 29.590088)">
     <text>
      <tspan style="font-family:Arial;font-size:8px;font-style:regular;font-weight:regular;" x="0 5.883594 11.888281 16.3375 18.560156 23.009375 27.458594 31.907812" y="-0.25">&#961;=0.9995</tspan>
     </text>
    </g>
   </g>
  </g>
 </g>
 <defs>
  <clipPath id="pe69df2546f">
   <rect height="110.88" width="111.6" x="45.16" y="15.92625"/>
  </clipPath>
 </defs>
</g>
      <text x="0.0" y="3.3" font-size="12pt" font-family="Arial" font-weight="800" letter-spacing="0" text-anchor="start" fill="black">b</text>
    </g>
  </g>
</svg>
