<?xml version='1.0' encoding='ASCII' standalone='yes'?>
<svg xmlns="http://www.w3.org/2000/svg" xmlns:xlink="http://www.w3.org/1999/xlink" version="1.1" width="20.3cm" viewBox="0 0 20.3cm 4.8cm" height="4.8cm">
  <g>
    <g transform="translate(0.0, 11.0) scale(1) ">
      <g transform="translate(0.0, 0.0) scale(1) translate(0, 0) scale(1.25) "><metadata>
  <rdf:RDF xmlns:cc="http://creativecommons.org/ns#" xmlns:dc="http://purl.org/dc/elements/1.1/" xmlns:rdf="http://www.w3.org/1999/02/22-rdf-syntax-ns#">
   <cc:Work>
    <dc:type rdf:resource="http://purl.org/dc/dcmitype/StillImage"/>
    <dc:date>2022-08-04T09:36:10.051892</dc:date>
    <dc:format>image/svg+xml</dc:format>
    <dc:creator>
     <cc:Agent>
      <dc:title>Matplotlib v3.4.2, https://matplotlib.org/</dc:title>
     </cc:Agent>
    </dc:creator>
   </cc:Work>
  </rdf:RDF>
 </metadata>
 <defs>
  <style type="text/css">*{stroke-linecap:butt;stroke-linejoin:round;}</style>
 </defs>
 <g id="figure_1">
  <g id="patch_1">
   <path d="M 0 142.971375  L 150.121875 142.971375  L 150.121875 0  L 0 0  z " style="fill:#ffffff;"/>
  </g>
  <g id="axes_1">
   <g id="patch_2">
    <path d="M 34.6975 109.855125  L 135.1375 109.855125  L 135.1375 10.063125  L 34.6975 10.063125  z " style="fill:#ffffff;"/>
   </g>
   <g id="PathCollection_1">
    <defs>
     <path d="M 0 1.5  C 0.397805 1.5 0.77937 1.341951 1.06066 1.06066  C 1.341951 0.77937 1.5 0.397805 1.5 0  C 1.5 -0.397805 1.341951 -0.77937 1.06066 -1.06066  C 0.77937 -1.341951 0.397805 -1.5 0 -1.5  C -0.397805 -1.5 -0.77937 -1.341951 -1.06066 -1.06066  C -1.341951 -0.77937 -1.5 -0.397805 -1.5 0  C -1.5 0.397805 -1.341951 0.77937 -1.06066 1.06066  C -0.77937 1.341951 -0.397805 1.5 0 1.5  z " id="mefaf062ac1" style="stroke:#000000;"/>
    </defs>
    <g clip-path="url(#p09689011fb)">
     <use style="stroke:#000000;" x="44.421606" xlink:href="#mefaf062ac1" y="65.655091"/>
     <use style="stroke:#000000;" x="39.811261" xlink:href="#mefaf062ac1" y="87.398766"/>
     <use style="stroke:#000000;" x="53.523514" xlink:href="#mefaf062ac1" y="20.097868"/>
     <use style="stroke:#000000;" x="47.246015" xlink:href="#mefaf062ac1" y="51.177379"/>
     <use style="stroke:#000000;" x="52.173407" xlink:href="#mefaf062ac1" y="25.527038"/>
     <use style="stroke:#000000;" x="43.091985" xlink:href="#mefaf062ac1" y="73.004546"/>
     <use style="stroke:#000000;" x="48.272773" xlink:href="#mefaf062ac1" y="47.613233"/>
     <use style="stroke:#000000;" x="38.995487" xlink:href="#mefaf062ac1" y="91.904372"/>
     <use style="stroke:#000000;" x="41.80613" xlink:href="#mefaf062ac1" y="79.116904"/>
     <use style="stroke:#000000;" x="36.313179" xlink:href="#mefaf062ac1" y="103.445443"/>
     <use style="stroke:#000000;" x="38.042793" xlink:href="#mefaf062ac1" y="95.951717"/>
     <use style="stroke:#000000;" x="48.375972" xlink:href="#mefaf062ac1" y="44.827086"/>
     <use style="stroke:#000000;" x="48.046777" xlink:href="#mefaf062ac1" y="47.926076"/>
     <use style="stroke:#000000;" x="46.629306" xlink:href="#mefaf062ac1" y="54.263484"/>
     <use style="stroke:#000000;" x="44.189278" xlink:href="#mefaf062ac1" y="65.186567"/>
     <use style="stroke:#000000;" x="42.584795" xlink:href="#mefaf062ac1" y="73.518467"/>
     <use style="stroke:#000000;" x="39.117733" xlink:href="#mefaf062ac1" y="90.711805"/>
     <use style="stroke:#000000;" x="41.413847" xlink:href="#mefaf062ac1" y="80.387459"/>
     <use style="stroke:#000000;" x="40.109019" xlink:href="#mefaf062ac1" y="86.097176"/>
     <use style="stroke:#000000;" x="42.054462" xlink:href="#mefaf062ac1" y="78.744267"/>
    </g>
   </g>
   <g id="matplotlib.axis_1">
    <g id="xtick_1">
     <g id="line2d_1">
      <defs>
       <path d="M 0 0  L 0 3.5  " id="m21cb60f21b" style="stroke:#000000;stroke-width:1.5;"/>
      </defs>
      <g>
       <use style="stroke:#000000;stroke-width:1.5;" x="34.6975" xlink:href="#m21cb60f21b" y="109.855125"/>
      </g>
     </g>
     <g id="text_1">
      <text style="font-family:Arial;font-size:8px;font-stretch:normal;font-style:normal;font-weight:normal;text-anchor:middle;" transform="rotate(-0, 34.6975, 122.581375)" x="34.6975" y="122.581375">0.0</text>
     </g>
    </g>
    <g id="xtick_2">
     <g id="line2d_2">
      <g>
       <use style="stroke:#000000;stroke-width:1.5;" x="59.8075" xlink:href="#m21cb60f21b" y="109.855125"/>
      </g>
     </g>
     <g id="text_2">
      <text style="font-family:Arial;font-size:8px;font-stretch:normal;font-style:normal;font-weight:normal;text-anchor:middle;" transform="rotate(-0, 59.8075, 122.581375)" x="59.8075" y="122.581375">2.5</text>
     </g>
    </g>
    <g id="xtick_3">
     <g id="line2d_3">
      <g>
       <use style="stroke:#000000;stroke-width:1.5;" x="84.9175" xlink:href="#m21cb60f21b" y="109.855125"/>
      </g>
     </g>
     <g id="text_3">
      <text style="font-family:Arial;font-size:8px;font-stretch:normal;font-style:normal;font-weight:normal;text-anchor:middle;" transform="rotate(-0, 84.9175, 122.581375)" x="84.9175" y="122.581375">5.0</text>
     </g>
    </g>
    <g id="xtick_4">
     <g id="line2d_4">
      <g>
       <use style="stroke:#000000;stroke-width:1.5;" x="110.0275" xlink:href="#m21cb60f21b" y="109.855125"/>
      </g>
     </g>
     <g id="text_4">
      <text style="font-family:Arial;font-size:8px;font-stretch:normal;font-style:normal;font-weight:normal;text-anchor:middle;" transform="rotate(-0, 110.0275, 122.581375)" x="110.0275" y="122.581375">7.5</text>
     </g>
    </g>
    <g id="xtick_5">
     <g id="line2d_5">
      <g>
       <use style="stroke:#000000;stroke-width:1.5;" x="135.1375" xlink:href="#m21cb60f21b" y="109.855125"/>
      </g>
     </g>
     <g id="text_5">
      <text style="font-family:Arial;font-size:8px;font-stretch:normal;font-style:normal;font-weight:normal;text-anchor:middle;" transform="rotate(-0, 135.1375, 122.581375)" x="135.1375" y="122.581375">10.0</text>
     </g>
    </g>
    <g id="text_6">
     <!-- Power-based Na $(\mu J/s)$ -->
     <g transform="translate(43.9175 134.011375)">
      <text>
       <tspan style="font-family:Arial;font-size:8px;font-style:regular;font-weight:regular;" x="0 5.335938 9.785156 15.5625 20.011719 22.675781 25.339844 29.789062 34.238281 38.238281 42.6875 47.136719 49.359375 55.136719 59.585938 61.808594 64.472656 69.082031 73.082031 75.304688 79.304688" y="-0.171875">Power-based&#160;Na&#160;(&#956;J/s)</tspan>
      </text>
     </g>
    </g>
   </g>
   <g id="matplotlib.axis_2">
    <g id="ytick_1">
     <g id="line2d_6">
      <defs>
       <path d="M 0 0  L -3.5 0  " id="mc1da81a27f" style="stroke:#000000;stroke-width:1.5;"/>
      </defs>
      <g>
       <use style="stroke:#000000;stroke-width:1.5;" x="34.6975" xlink:href="#mc1da81a27f" y="109.855125"/>
      </g>
     </g>
     <g id="text_7">
      <text style="font-family:Arial;font-size:8px;font-stretch:normal;font-style:normal;font-weight:normal;text-anchor:end;" transform="rotate(-0, 27.6975, 112.71825)" x="27.6975" y="112.71825">0</text>
     </g>
    </g>
    <g id="ytick_2">
     <g id="line2d_7">
      <g>
       <use style="stroke:#000000;stroke-width:1.5;" x="34.6975" xlink:href="#mc1da81a27f" y="89.896725"/>
      </g>
     </g>
     <g id="text_8">
      <text style="font-family:Arial;font-size:8px;font-stretch:normal;font-style:normal;font-weight:normal;text-anchor:end;" transform="rotate(-0, 27.6975, 92.75985)" x="27.6975" y="92.75985">2</text>
     </g>
    </g>
    <g id="ytick_3">
     <g id="line2d_8">
      <g>
       <use style="stroke:#000000;stroke-width:1.5;" x="34.6975" xlink:href="#mc1da81a27f" y="69.938325"/>
      </g>
     </g>
     <g id="text_9">
      <text style="font-family:Arial;font-size:8px;font-stretch:normal;font-style:normal;font-weight:normal;text-anchor:end;" transform="rotate(-0, 27.6975, 72.80145)" x="27.6975" y="72.80145">4</text>
     </g>
    </g>
    <g id="ytick_4">
     <g id="line2d_9">
      <g>
       <use style="stroke:#000000;stroke-width:1.5;" x="34.6975" xlink:href="#mc1da81a27f" y="49.979925"/>
      </g>
     </g>
     <g id="text_10">
      <text style="font-family:Arial;font-size:8px;font-stretch:normal;font-style:normal;font-weight:normal;text-anchor:end;" transform="rotate(-0, 27.6975, 52.84305)" x="27.6975" y="52.84305">6</text>
     </g>
    </g>
    <g id="ytick_5">
     <g id="line2d_10">
      <g>
       <use style="stroke:#000000;stroke-width:1.5;" x="34.6975" xlink:href="#mc1da81a27f" y="30.021525"/>
      </g>
     </g>
     <g id="text_11">
      <text style="font-family:Arial;font-size:8px;font-stretch:normal;font-style:normal;font-weight:normal;text-anchor:end;" transform="rotate(-0, 27.6975, 32.88465)" x="27.6975" y="32.88465">8</text>
     </g>
    </g>
    <g id="ytick_6">
     <g id="line2d_11">
      <g>
       <use style="stroke:#000000;stroke-width:1.5;" x="34.6975" xlink:href="#mc1da81a27f" y="10.063125"/>
      </g>
     </g>
     <g id="text_12">
      <text style="font-family:Arial;font-size:8px;font-stretch:normal;font-style:normal;font-weight:normal;text-anchor:end;" transform="rotate(-0, 27.6975, 12.92625)" x="27.6975" y="12.92625">10</text>
     </g>
    </g>
    <g id="text_13">
     <!-- Current-based Na $(\mu J/s)$ -->
     <g transform="translate(13.04 102.959125)rotate(-90)">
      <text>
       <tspan style="font-family:Arial;font-size:8px;font-style:regular;font-weight:regular;" x="0 5.777344 10.226562 12.890625 15.554688 20.003906 24.453125 26.675781 29.339844 33.789062 38.238281 42.238281 46.6875 51.136719 53.359375 59.136719 63.585938 65.808594 68.472656 73.082031 77.082031 79.304688 83.304688" y="-0.171875">Current-based&#160;Na&#160;(&#956;J/s)</tspan>
      </text>
     </g>
    </g>
   </g>
   <g id="line2d_12">
    <path clip-path="url(#p09689011fb)" d="M 34.6975 109.855125  L 135.1375 10.063125  " style="fill:none;stroke:#808080;stroke-linecap:square;stroke-width:1.5;"/>
   </g>
   <g id="patch_3">
    <path d="M 34.6975 109.855125  L 34.6975 10.063125  " style="fill:none;stroke:#000000;stroke-linecap:square;stroke-linejoin:miter;stroke-width:1.5;"/>
   </g>
   <g id="patch_4">
    <path d="M 34.6975 109.855125  L 135.1375 109.855125  " style="fill:none;stroke:#000000;stroke-linecap:square;stroke-linejoin:miter;stroke-width:1.5;"/>
   </g>
   <g id="text_14">
    <!-- $w$=4.9449 -->
    <g transform="translate(94.9615 89.896725)">
     <text>
      <tspan style="font-family:Arial;font-size:8px;font-style:regular;font-weight:regular;" x="0 5.777344 10.449219 14.898438 17.121094 21.570312 26.019531 30.46875" y="-0.25">w=4.9449</tspan>
     </text>
    </g>
   </g>
   <g id="text_15">
    <!-- $\rho$=0.9991 -->
    <g transform="translate(94.9615 101.871765)">
     <text>
      <tspan style="font-family:Arial;font-size:8px;font-style:regular;font-weight:regular;" x="0 4.550781 9.222656 13.671875 15.894531 20.34375 24.792969 29.242188" y="-0.25">&#961;=0.9991</tspan>
     </text>
    </g>
   </g>
  </g>
 </g>
 <defs>
  <clipPath id="p09689011fb">
   <rect height="99.792" width="100.44" x="34.6975" y="10.063125"/>
  </clipPath>
 </defs>
</g>
      <text x="0.0" y="3.3" font-size="12pt" font-family="Arial" font-weight="800" letter-spacing="0" text-anchor="start" fill="black">a</text>
    </g>
    <g transform="translate(192.5, 11.0) scale(1) ">
      <g transform="translate(0.0, 0.0) scale(1) translate(0, 0) scale(1.25) "><metadata>
  <rdf:RDF xmlns:cc="http://creativecommons.org/ns#" xmlns:dc="http://purl.org/dc/elements/1.1/" xmlns:rdf="http://www.w3.org/1999/02/22-rdf-syntax-ns#">
   <cc:Work>
    <dc:type rdf:resource="http://purl.org/dc/dcmitype/StillImage"/>
    <dc:date>2022-08-04T09:36:13.064933</dc:date>
    <dc:format>image/svg+xml</dc:format>
    <dc:creator>
     <cc:Agent>
      <dc:title>Matplotlib v3.4.2, https://matplotlib.org/</dc:title>
     </cc:Agent>
    </dc:creator>
   </cc:Work>
  </rdf:RDF>
 </metadata>
 <defs>
  <style type="text/css">*{stroke-linecap:butt;stroke-linejoin:round;}</style>
 </defs>
 <g id="figure_1">
  <g id="patch_1">
   <path d="M 0 142.971375  L 144.56 142.971375  L 144.56 0  L 0 0  z " style="fill:#ffffff;"/>
  </g>
  <g id="axes_1">
   <g id="patch_2">
    <path d="M 36.92 109.855125  L 137.36 109.855125  L 137.36 10.063125  L 36.92 10.063125  z " style="fill:#ffffff;"/>
   </g>
   <g id="PathCollection_1">
    <defs>
     <path d="M 0 1.5  C 0.397805 1.5 0.77937 1.341951 1.06066 1.06066  C 1.341951 0.77937 1.5 0.397805 1.5 0  C 1.5 -0.397805 1.341951 -0.77937 1.06066 -1.06066  C 0.77937 -1.341951 0.397805 -1.5 0 -1.5  C -0.397805 -1.5 -0.77937 -1.341951 -1.06066 -1.06066  C -1.341951 -0.77937 -1.5 -0.397805 -1.5 0  C -1.5 0.397805 -1.341951 0.77937 -1.06066 1.06066  C -0.77937 1.341951 -0.397805 1.5 0 1.5  z " id="mb14fee9e6d" style="stroke:#000000;"/>
    </defs>
    <g clip-path="url(#p0565b6aa5c)">
     <use style="stroke:#000000;" x="66.963737" xlink:href="#mb14fee9e6d" y="47.055761"/>
     <use style="stroke:#000000;" x="56.632845" xlink:href="#mb14fee9e6d" y="74.502858"/>
     <use style="stroke:#000000;" x="72.491406" xlink:href="#mb14fee9e6d" y="28.691475"/>
     <use style="stroke:#000000;" x="70.374967" xlink:href="#mb14fee9e6d" y="46.189208"/>
     <use style="stroke:#000000;" x="70.328098" xlink:href="#mb14fee9e6d" y="27.486589"/>
     <use style="stroke:#000000;" x="71.458855" xlink:href="#mb14fee9e6d" y="37.401253"/>
     <use style="stroke:#000000;" x="71.158079" xlink:href="#mb14fee9e6d" y="46.040987"/>
     <use style="stroke:#000000;" x="60.328287" xlink:href="#mb14fee9e6d" y="61.669516"/>
     <use style="stroke:#000000;" x="49.796627" xlink:href="#mb14fee9e6d" y="86.326287"/>
     <use style="stroke:#000000;" x="45.044926" xlink:href="#mb14fee9e6d" y="96.55544"/>
     <use style="stroke:#000000;" x="49.516705" xlink:href="#mb14fee9e6d" y="87.718113"/>
     <use style="stroke:#000000;" x="64.872017" xlink:href="#mb14fee9e6d" y="51.86014"/>
     <use style="stroke:#000000;" x="70.907023" xlink:href="#mb14fee9e6d" y="41.05685"/>
     <use style="stroke:#000000;" x="64.514726" xlink:href="#mb14fee9e6d" y="52.966797"/>
     <use style="stroke:#000000;" x="59.359008" xlink:href="#mb14fee9e6d" y="60.150378"/>
     <use style="stroke:#000000;" x="48.857144" xlink:href="#mb14fee9e6d" y="88.649646"/>
     <use style="stroke:#000000;" x="50.204199" xlink:href="#mb14fee9e6d" y="87.685462"/>
     <use style="stroke:#000000;" x="60.408375" xlink:href="#mb14fee9e6d" y="63.81773"/>
     <use style="stroke:#000000;" x="58.623375" xlink:href="#mb14fee9e6d" y="68.748503"/>
     <use style="stroke:#000000;" x="65.194526" xlink:href="#mb14fee9e6d" y="51.081539"/>
    </g>
   </g>
   <g id="matplotlib.axis_1">
    <g id="xtick_1">
     <g id="line2d_1">
      <defs>
       <path d="M 0 0  L 0 3.5  " id="md7b2f40501" style="stroke:#000000;stroke-width:1.5;"/>
      </defs>
      <g>
       <use style="stroke:#000000;stroke-width:1.5;" x="36.92" xlink:href="#md7b2f40501" y="109.855125"/>
      </g>
     </g>
     <g id="text_1">
      <text style="font-family:Arial;font-size:8px;font-stretch:normal;font-style:normal;font-weight:normal;text-anchor:middle;" transform="rotate(-0, 36.92, 122.581375)" x="36.92" y="122.581375">0</text>
     </g>
    </g>
    <g id="xtick_2">
     <g id="line2d_2">
      <g>
       <use style="stroke:#000000;stroke-width:1.5;" x="77.096" xlink:href="#md7b2f40501" y="109.855125"/>
      </g>
     </g>
     <g id="text_2">
      <text style="font-family:Arial;font-size:8px;font-stretch:normal;font-style:normal;font-weight:normal;text-anchor:middle;" transform="rotate(-0, 77.096, 122.581375)" x="77.096" y="122.581375">1</text>
     </g>
    </g>
    <g id="xtick_3">
     <g id="line2d_3">
      <g>
       <use style="stroke:#000000;stroke-width:1.5;" x="117.272" xlink:href="#md7b2f40501" y="109.855125"/>
      </g>
     </g>
     <g id="text_3">
      <text style="font-family:Arial;font-size:8px;font-stretch:normal;font-style:normal;font-weight:normal;text-anchor:middle;" transform="rotate(-0, 117.272, 122.581375)" x="117.272" y="122.581375">2</text>
     </g>
    </g>
    <g id="text_4">
     <!-- Power-based CaT $(\mu J/s)$ -->
     <g transform="translate(43.7 134.011375)">
      <text>
       <tspan style="font-family:Arial;font-size:8px;font-style:regular;font-weight:regular;" x="0 5.335938 9.785156 15.5625 20.011719 22.675781 25.339844 29.789062 34.238281 38.238281 42.6875 47.136719 49.359375 55.136719 59.585938 64.472656 66.695312 69.359375 73.96875 77.96875 80.191406 84.191406" y="-0.171875">Power-based&#160;CaT&#160;(&#956;J/s)</tspan>
      </text>
     </g>
    </g>
   </g>
   <g id="matplotlib.axis_2">
    <g id="ytick_1">
     <g id="line2d_4">
      <defs>
       <path d="M 0 0  L -3.5 0  " id="m938495d87c" style="stroke:#000000;stroke-width:1.5;"/>
      </defs>
      <g>
       <use style="stroke:#000000;stroke-width:1.5;" x="36.92" xlink:href="#m938495d87c" y="109.855125"/>
      </g>
     </g>
     <g id="text_5">
      <text style="font-family:Arial;font-size:8px;font-stretch:normal;font-style:normal;font-weight:normal;text-anchor:end;" transform="rotate(-0, 29.92, 112.71825)" x="29.92" y="112.71825">0.0</text>
     </g>
    </g>
    <g id="ytick_2">
     <g id="line2d_5">
      <g>
       <use style="stroke:#000000;stroke-width:1.5;" x="36.92" xlink:href="#m938495d87c" y="89.896725"/>
      </g>
     </g>
     <g id="text_6">
      <text style="font-family:Arial;font-size:8px;font-stretch:normal;font-style:normal;font-weight:normal;text-anchor:end;" transform="rotate(-0, 29.92, 92.75985)" x="29.92" y="92.75985">0.5</text>
     </g>
    </g>
    <g id="ytick_3">
     <g id="line2d_6">
      <g>
       <use style="stroke:#000000;stroke-width:1.5;" x="36.92" xlink:href="#m938495d87c" y="69.938325"/>
      </g>
     </g>
     <g id="text_7">
      <text style="font-family:Arial;font-size:8px;font-stretch:normal;font-style:normal;font-weight:normal;text-anchor:end;" transform="rotate(-0, 29.92, 72.80145)" x="29.92" y="72.80145">1.0</text>
     </g>
    </g>
    <g id="ytick_4">
     <g id="line2d_7">
      <g>
       <use style="stroke:#000000;stroke-width:1.5;" x="36.92" xlink:href="#m938495d87c" y="49.979925"/>
      </g>
     </g>
     <g id="text_8">
      <text style="font-family:Arial;font-size:8px;font-stretch:normal;font-style:normal;font-weight:normal;text-anchor:end;" transform="rotate(-0, 29.92, 52.84305)" x="29.92" y="52.84305">1.5</text>
     </g>
    </g>
    <g id="ytick_5">
     <g id="line2d_8">
      <g>
       <use style="stroke:#000000;stroke-width:1.5;" x="36.92" xlink:href="#m938495d87c" y="30.021525"/>
      </g>
     </g>
     <g id="text_9">
      <text style="font-family:Arial;font-size:8px;font-stretch:normal;font-style:normal;font-weight:normal;text-anchor:end;" transform="rotate(-0, 29.92, 32.88465)" x="29.92" y="32.88465">2.0</text>
     </g>
    </g>
    <g id="ytick_6">
     <g id="line2d_9">
      <g>
       <use style="stroke:#000000;stroke-width:1.5;" x="36.92" xlink:href="#m938495d87c" y="10.063125"/>
      </g>
     </g>
     <g id="text_10">
      <text style="font-family:Arial;font-size:8px;font-stretch:normal;font-style:normal;font-weight:normal;text-anchor:end;" transform="rotate(-0, 29.92, 12.92625)" x="29.92" y="12.92625">2.5</text>
     </g>
    </g>
    <g id="text_11">
     <!-- Current-based CaT $(\mu J/s)$ -->
     <g transform="translate(13.04 105.399125)rotate(-90)">
      <text>
       <tspan style="font-family:Arial;font-size:8px;font-style:regular;font-weight:regular;" x="0 5.777344 10.226562 12.890625 15.554688 20.003906 24.453125 26.675781 29.339844 33.789062 38.238281 42.238281 46.6875 51.136719 53.359375 59.136719 63.585938 68.472656 70.695312 73.359375 77.96875 81.96875 84.191406 88.191406" y="-0.171875">Current-based&#160;CaT&#160;(&#956;J/s)</tspan>
      </text>
     </g>
    </g>
   </g>
   <g id="line2d_10">
    <path clip-path="url(#p0565b6aa5c)" d="M 36.92 109.855125  L 137.36 10.063125  " style="fill:none;stroke:#808080;stroke-linecap:square;stroke-width:1.5;"/>
   </g>
   <g id="patch_3">
    <path d="M 36.92 109.855125  L 36.92 10.063125  " style="fill:none;stroke:#000000;stroke-linecap:square;stroke-linejoin:miter;stroke-width:1.5;"/>
   </g>
   <g id="patch_4">
    <path d="M 36.92 109.855125  L 137.36 109.855125  " style="fill:none;stroke:#000000;stroke-linecap:square;stroke-linejoin:miter;stroke-width:1.5;"/>
   </g>
   <g id="text_12">
    <!-- $w$=2.3233 -->
    <g transform="translate(97.184 89.896725)">
     <text>
      <tspan style="font-family:Arial;font-size:8px;font-style:regular;font-weight:regular;" x="0 5.777344 10.449219 14.898438 17.121094 21.570312 26.019531 30.46875" y="-0.25">w=2.3233</tspan>
     </text>
    </g>
   </g>
   <g id="text_13">
    <!-- $\rho$=0.9787 -->
    <g transform="translate(97.184 101.871765)">
     <text>
      <tspan style="font-family:Arial;font-size:8px;font-style:regular;font-weight:regular;" x="0 4.550781 9.222656 13.671875 15.894531 20.34375 24.792969 29.242188" y="-0.25">&#961;=0.9787</tspan>
     </text>
    </g>
   </g>
  </g>
 </g>
 <defs>
  <clipPath id="p0565b6aa5c">
   <rect height="99.792" width="100.44" x="36.92" y="10.063125"/>
  </clipPath>
 </defs>
</g>
      <text x="0.0" y="3.3" font-size="12pt" font-family="Arial" font-weight="800" letter-spacing="0" text-anchor="start" fill="black">b</text>
    </g>
    <g transform="translate(385.0, 11.0) scale(1) ">
      <g transform="translate(0.0, 0.0) scale(1) translate(0, 0) scale(1.25) "><metadata>
  <rdf:RDF xmlns:cc="http://creativecommons.org/ns#" xmlns:dc="http://purl.org/dc/elements/1.1/" xmlns:rdf="http://www.w3.org/1999/02/22-rdf-syntax-ns#">
   <cc:Work>
    <dc:type rdf:resource="http://purl.org/dc/dcmitype/StillImage"/>
    <dc:date>2022-08-04T09:36:14.756774</dc:date>
    <dc:format>image/svg+xml</dc:format>
    <dc:creator>
     <cc:Agent>
      <dc:title>Matplotlib v3.4.2, https://matplotlib.org/</dc:title>
     </cc:Agent>
    </dc:creator>
   </cc:Work>
  </rdf:RDF>
 </metadata>
 <defs>
  <style type="text/css">*{stroke-linecap:butt;stroke-linejoin:round;}</style>
 </defs>
 <g id="figure_1">
  <g id="patch_1">
   <path d="M 0 142.971375  L 150.12 142.971375  L 150.12 0  L 0 0  z " style="fill:#ffffff;"/>
  </g>
  <g id="axes_1">
   <g id="patch_2">
    <path d="M 36.92 109.855125  L 137.36 109.855125  L 137.36 10.063125  L 36.92 10.063125  z " style="fill:#ffffff;"/>
   </g>
   <g id="PathCollection_1">
    <defs>
     <path d="M 0 1.5  C 0.397805 1.5 0.77937 1.341951 1.06066 1.06066  C 1.341951 0.77937 1.5 0.397805 1.5 0  C 1.5 -0.397805 1.341951 -0.77937 1.06066 -1.06066  C 0.77937 -1.341951 0.397805 -1.5 0 -1.5  C -0.397805 -1.5 -0.77937 -1.341951 -1.06066 -1.06066  C -1.341951 -0.77937 -1.5 -0.397805 -1.5 0  C -1.5 0.397805 -1.341951 0.77937 -1.06066 1.06066  C -0.77937 1.341951 -0.397805 1.5 0 1.5  z " id="m38eb823e2f" style="stroke:#000000;"/>
    </defs>
    <g clip-path="url(#p67722562e4)">
     <use style="stroke:#000000;" x="65.12033" xlink:href="#m38eb823e2f" y="49.398544"/>
     <use style="stroke:#000000;" x="53.392659" xlink:href="#m38eb823e2f" y="79.223442"/>
     <use style="stroke:#000000;" x="64.903983" xlink:href="#m38eb823e2f" y="45.653574"/>
     <use style="stroke:#000000;" x="56.985273" xlink:href="#m38eb823e2f" y="70.562117"/>
     <use style="stroke:#000000;" x="73.834484" xlink:href="#m38eb823e2f" y="18.837371"/>
     <use style="stroke:#000000;" x="58.680341" xlink:href="#m38eb823e2f" y="62.863261"/>
     <use style="stroke:#000000;" x="55.031836" xlink:href="#m38eb823e2f" y="75.030442"/>
     <use style="stroke:#000000;" x="50.724949" xlink:href="#m38eb823e2f" y="80.760083"/>
     <use style="stroke:#000000;" x="72.880078" xlink:href="#m38eb823e2f" y="41.409114"/>
     <use style="stroke:#000000;" x="50.390591" xlink:href="#m38eb823e2f" y="86.760541"/>
     <use style="stroke:#000000;" x="58.74979" xlink:href="#m38eb823e2f" y="69.67778"/>
     <use style="stroke:#000000;" x="68.73118" xlink:href="#m38eb823e2f" y="42.491889"/>
     <use style="stroke:#000000;" x="68.127352" xlink:href="#m38eb823e2f" y="44.697354"/>
     <use style="stroke:#000000;" x="69.720171" xlink:href="#m38eb823e2f" y="40.358094"/>
     <use style="stroke:#000000;" x="64.394795" xlink:href="#m38eb823e2f" y="48.330875"/>
     <use style="stroke:#000000;" x="65.488011" xlink:href="#m38eb823e2f" y="57.45519"/>
     <use style="stroke:#000000;" x="57.439191" xlink:href="#m38eb823e2f" y="74.293324"/>
     <use style="stroke:#000000;" x="54.295059" xlink:href="#m38eb823e2f" y="74.849384"/>
     <use style="stroke:#000000;" x="56.404454" xlink:href="#m38eb823e2f" y="71.749506"/>
     <use style="stroke:#000000;" x="59.917592" xlink:href="#m38eb823e2f" y="60.670386"/>
    </g>
   </g>
   <g id="matplotlib.axis_1">
    <g id="xtick_1">
     <g id="line2d_1">
      <defs>
       <path d="M 0 0  L 0 3.5  " id="m06f5522701" style="stroke:#000000;stroke-width:1.5;"/>
      </defs>
      <g>
       <use style="stroke:#000000;stroke-width:1.5;" x="36.92" xlink:href="#m06f5522701" y="109.855125"/>
      </g>
     </g>
     <g id="text_1">
      <text style="font-family:Arial;font-size:8px;font-stretch:normal;font-style:normal;font-weight:normal;text-anchor:middle;" transform="rotate(-0, 36.92, 122.581375)" x="36.92" y="122.581375">0.0</text>
     </g>
    </g>
    <g id="xtick_2">
     <g id="line2d_2">
      <g>
       <use style="stroke:#000000;stroke-width:1.5;" x="62.03" xlink:href="#m06f5522701" y="109.855125"/>
      </g>
     </g>
     <g id="text_2">
      <text style="font-family:Arial;font-size:8px;font-stretch:normal;font-style:normal;font-weight:normal;text-anchor:middle;" transform="rotate(-0, 62.03, 122.581375)" x="62.03" y="122.581375">0.5</text>
     </g>
    </g>
    <g id="xtick_3">
     <g id="line2d_3">
      <g>
       <use style="stroke:#000000;stroke-width:1.5;" x="87.14" xlink:href="#m06f5522701" y="109.855125"/>
      </g>
     </g>
     <g id="text_3">
      <text style="font-family:Arial;font-size:8px;font-stretch:normal;font-style:normal;font-weight:normal;text-anchor:middle;" transform="rotate(-0, 87.14, 122.581375)" x="87.14" y="122.581375">1.0</text>
     </g>
    </g>
    <g id="xtick_4">
     <g id="line2d_4">
      <g>
       <use style="stroke:#000000;stroke-width:1.5;" x="112.25" xlink:href="#m06f5522701" y="109.855125"/>
      </g>
     </g>
     <g id="text_4">
      <text style="font-family:Arial;font-size:8px;font-stretch:normal;font-style:normal;font-weight:normal;text-anchor:middle;" transform="rotate(-0, 112.25, 122.581375)" x="112.25" y="122.581375">1.5</text>
     </g>
    </g>
    <g id="xtick_5">
     <g id="line2d_5">
      <g>
       <use style="stroke:#000000;stroke-width:1.5;" x="137.36" xlink:href="#m06f5522701" y="109.855125"/>
      </g>
     </g>
     <g id="text_5">
      <text style="font-family:Arial;font-size:8px;font-stretch:normal;font-style:normal;font-weight:normal;text-anchor:middle;" transform="rotate(-0, 137.36, 122.581375)" x="137.36" y="122.581375">2.0</text>
     </g>
    </g>
    <g id="text_6">
     <!-- Power-based CaS $(\mu J/s)$ -->
     <g transform="translate(43.46 134.011375)">
      <text>
       <tspan style="font-family:Arial;font-size:8px;font-style:regular;font-weight:regular;" x="0 5.335938 9.785156 15.5625 20.011719 22.675781 25.339844 29.789062 34.238281 38.238281 42.6875 47.136719 49.359375 55.136719 59.585938 64.921875 67.144531 69.808594 74.417969 78.417969 80.640625 84.640625" y="-0.171875">Power-based&#160;CaS&#160;(&#956;J/s)</tspan>
      </text>
     </g>
    </g>
   </g>
   <g id="matplotlib.axis_2">
    <g id="ytick_1">
     <g id="line2d_6">
      <defs>
       <path d="M 0 0  L -3.5 0  " id="mcf575f4d76" style="stroke:#000000;stroke-width:1.5;"/>
      </defs>
      <g>
       <use style="stroke:#000000;stroke-width:1.5;" x="36.92" xlink:href="#mcf575f4d76" y="109.855125"/>
      </g>
     </g>
     <g id="text_7">
      <text style="font-family:Arial;font-size:8px;font-stretch:normal;font-style:normal;font-weight:normal;text-anchor:end;" transform="rotate(-0, 29.92, 112.71825)" x="29.92" y="112.71825">0.0</text>
     </g>
    </g>
    <g id="ytick_2">
     <g id="line2d_7">
      <g>
       <use style="stroke:#000000;stroke-width:1.5;" x="36.92" xlink:href="#mcf575f4d76" y="84.907125"/>
      </g>
     </g>
     <g id="text_8">
      <text style="font-family:Arial;font-size:8px;font-stretch:normal;font-style:normal;font-weight:normal;text-anchor:end;" transform="rotate(-0, 29.92, 87.77025)" x="29.92" y="87.77025">0.5</text>
     </g>
    </g>
    <g id="ytick_3">
     <g id="line2d_8">
      <g>
       <use style="stroke:#000000;stroke-width:1.5;" x="36.92" xlink:href="#mcf575f4d76" y="59.959125"/>
      </g>
     </g>
     <g id="text_9">
      <text style="font-family:Arial;font-size:8px;font-stretch:normal;font-style:normal;font-weight:normal;text-anchor:end;" transform="rotate(-0, 29.92, 62.82225)" x="29.92" y="62.82225">1.0</text>
     </g>
    </g>
    <g id="ytick_4">
     <g id="line2d_9">
      <g>
       <use style="stroke:#000000;stroke-width:1.5;" x="36.92" xlink:href="#mcf575f4d76" y="35.011125"/>
      </g>
     </g>
     <g id="text_10">
      <text style="font-family:Arial;font-size:8px;font-stretch:normal;font-style:normal;font-weight:normal;text-anchor:end;" transform="rotate(-0, 29.92, 37.87425)" x="29.92" y="37.87425">1.5</text>
     </g>
    </g>
    <g id="ytick_5">
     <g id="line2d_10">
      <g>
       <use style="stroke:#000000;stroke-width:1.5;" x="36.92" xlink:href="#mcf575f4d76" y="10.063125"/>
      </g>
     </g>
     <g id="text_11">
      <text style="font-family:Arial;font-size:8px;font-stretch:normal;font-style:normal;font-weight:normal;text-anchor:end;" transform="rotate(-0, 29.92, 12.92625)" x="29.92" y="12.92625">2.0</text>
     </g>
    </g>
    <g id="text_12">
     <!-- Current-based CaS $(\mu J/s)$ -->
     <g transform="translate(13.04 105.639125)rotate(-90)">
      <text>
       <tspan style="font-family:Arial;font-size:8px;font-style:regular;font-weight:regular;" x="0 5.777344 10.226562 12.890625 15.554688 20.003906 24.453125 26.675781 29.339844 33.789062 38.238281 42.238281 46.6875 51.136719 53.359375 59.136719 63.585938 68.921875 71.144531 73.808594 78.417969 82.417969 84.640625 88.640625" y="-0.171875">Current-based&#160;CaS&#160;(&#956;J/s)</tspan>
      </text>
     </g>
    </g>
   </g>
   <g id="line2d_11">
    <path clip-path="url(#p67722562e4)" d="M 36.92 109.855125  L 137.36 10.063125  " style="fill:none;stroke:#808080;stroke-linecap:square;stroke-width:1.5;"/>
   </g>
   <g id="patch_3">
    <path d="M 36.92 109.855125  L 36.92 10.063125  " style="fill:none;stroke:#000000;stroke-linecap:square;stroke-linejoin:miter;stroke-width:1.5;"/>
   </g>
   <g id="patch_4">
    <path d="M 36.92 109.855125  L 137.36 109.855125  " style="fill:none;stroke:#000000;stroke-linecap:square;stroke-linejoin:miter;stroke-width:1.5;"/>
   </g>
   <g id="text_13">
    <!-- $w$=2.4032 -->
    <g transform="translate(97.184 89.896725)">
     <text>
      <tspan style="font-family:Arial;font-size:8px;font-style:regular;font-weight:regular;" x="0 5.777344 10.449219 14.898438 17.121094 21.570312 26.019531 30.46875" y="-0.25">w=2.4032</tspan>
     </text>
    </g>
   </g>
   <g id="text_14">
    <!-- $\rho$=0.9660 -->
    <g transform="translate(97.184 102.370725)">
     <text>
      <tspan style="font-family:Arial;font-size:8px;font-style:regular;font-weight:regular;" x="0 4.550781 9.222656 13.671875 15.894531 20.34375 24.792969 29.242188" y="-0.25">&#961;=0.9660</tspan>
     </text>
    </g>
   </g>
  </g>
 </g>
 <defs>
  <clipPath id="p67722562e4">
   <rect height="99.792" width="100.44" x="36.92" y="10.063125"/>
  </clipPath>
 </defs>
</g>
      <text x="0.0" y="3.3" font-size="12pt" font-family="Arial" font-weight="800" letter-spacing="0" text-anchor="start" fill="black">c</text>
    </g>
    <g transform="translate(577.5, 11.0) scale(1) ">
      <g transform="translate(0.0, 0.0) scale(1) translate(0, 0) scale(1.25) "><metadata>
  <rdf:RDF xmlns:cc="http://creativecommons.org/ns#" xmlns:dc="http://purl.org/dc/elements/1.1/" xmlns:rdf="http://www.w3.org/1999/02/22-rdf-syntax-ns#">
   <cc:Work>
    <dc:type rdf:resource="http://purl.org/dc/dcmitype/StillImage"/>
    <dc:date>2022-08-04T09:36:17.368387</dc:date>
    <dc:format>image/svg+xml</dc:format>
    <dc:creator>
     <cc:Agent>
      <dc:title>Matplotlib v3.4.2, https://matplotlib.org/</dc:title>
     </cc:Agent>
    </dc:creator>
   </cc:Work>
  </rdf:RDF>
 </metadata>
 <defs>
  <style type="text/css">*{stroke-linecap:butt;stroke-linejoin:round;}</style>
 </defs>
 <g id="figure_1">
  <g id="patch_1">
   <path d="M 0 142.971375  L 140.113125 142.971375  L 140.113125 0  L 0 0  z " style="fill:#ffffff;"/>
  </g>
  <g id="axes_1">
   <g id="patch_2">
    <path d="M 30.24875 109.855125  L 130.68875 109.855125  L 130.68875 10.063125  L 30.24875 10.063125  z " style="fill:#ffffff;"/>
   </g>
   <g id="PathCollection_1">
    <defs>
     <path d="M 0 1.5  C 0.397805 1.5 0.77937 1.341951 1.06066 1.06066  C 1.341951 0.77937 1.5 0.397805 1.5 0  C 1.5 -0.397805 1.341951 -0.77937 1.06066 -1.06066  C 0.77937 -1.341951 0.397805 -1.5 0 -1.5  C -0.397805 -1.5 -0.77937 -1.341951 -1.06066 -1.06066  C -1.341951 -0.77937 -1.5 -0.397805 -1.5 0  C -1.5 0.397805 -1.341951 0.77937 -1.06066 1.06066  C -0.77937 1.341951 -0.397805 1.5 0 1.5  z " id="m5a7b9951a4" style="stroke:#000000;"/>
    </defs>
    <g clip-path="url(#p6708025a88)">
     <use style="stroke:#000000;" x="37.41122" xlink:href="#m5a7b9951a4" y="70.243638"/>
     <use style="stroke:#000000;" x="32.621579" xlink:href="#m5a7b9951a4" y="95.305246"/>
     <use style="stroke:#000000;" x="41.765311" xlink:href="#m5a7b9951a4" y="55.023"/>
     <use style="stroke:#000000;" x="34.147581" xlink:href="#m5a7b9951a4" y="88.529719"/>
     <use style="stroke:#000000;" x="48.687536" xlink:href="#m5a7b9951a4" y="22.043914"/>
     <use style="stroke:#000000;" x="35.512154" xlink:href="#m5a7b9951a4" y="79.511069"/>
     <use style="stroke:#000000;" x="33.727179" xlink:href="#m5a7b9951a4" y="91.191124"/>
     <use style="stroke:#000000;" x="33.356944" xlink:href="#m5a7b9951a4" y="91.388163"/>
     <use style="stroke:#000000;" x="36.429599" xlink:href="#m5a7b9951a4" y="74.106834"/>
     <use style="stroke:#000000;" x="31.679833" xlink:href="#m5a7b9951a4" y="100.088275"/>
     <use style="stroke:#000000;" x="33.246242" xlink:href="#m5a7b9951a4" y="90.694114"/>
     <use style="stroke:#000000;" x="39.324118" xlink:href="#m5a7b9951a4" y="63.625691"/>
     <use style="stroke:#000000;" x="37.713236" xlink:href="#m5a7b9951a4" y="69.444116"/>
     <use style="stroke:#000000;" x="38.709199" xlink:href="#m5a7b9951a4" y="64.688229"/>
     <use style="stroke:#000000;" x="39.830544" xlink:href="#m5a7b9951a4" y="61.364617"/>
     <use style="stroke:#000000;" x="35.167407" xlink:href="#m5a7b9951a4" y="83.303253"/>
     <use style="stroke:#000000;" x="32.536401" xlink:href="#m5a7b9951a4" y="95.46146"/>
     <use style="stroke:#000000;" x="33.941511" xlink:href="#m5a7b9951a4" y="89.013495"/>
     <use style="stroke:#000000;" x="33.748921" xlink:href="#m5a7b9951a4" y="89.051493"/>
     <use style="stroke:#000000;" x="35.761982" xlink:href="#m5a7b9951a4" y="78.072767"/>
    </g>
   </g>
   <g id="matplotlib.axis_1">
    <g id="xtick_1">
     <g id="line2d_1">
      <defs>
       <path d="M 0 0  L 0 3.5  " id="ma7cb629cad" style="stroke:#000000;stroke-width:1.5;"/>
      </defs>
      <g>
       <use style="stroke:#000000;stroke-width:1.5;" x="30.24875" xlink:href="#ma7cb629cad" y="109.855125"/>
      </g>
     </g>
     <g id="text_1">
      <text style="font-family:Arial;font-size:8px;font-stretch:normal;font-style:normal;font-weight:normal;text-anchor:middle;" transform="rotate(-0, 30.24875, 122.581375)" x="30.24875" y="122.581375">0</text>
     </g>
    </g>
    <g id="xtick_2">
     <g id="line2d_2">
      <g>
       <use style="stroke:#000000;stroke-width:1.5;" x="55.35875" xlink:href="#ma7cb629cad" y="109.855125"/>
      </g>
     </g>
     <g id="text_2">
      <text style="font-family:Arial;font-size:8px;font-stretch:normal;font-style:normal;font-weight:normal;text-anchor:middle;" transform="rotate(-0, 55.35875, 122.581375)" x="55.35875" y="122.581375">1</text>
     </g>
    </g>
    <g id="xtick_3">
     <g id="line2d_3">
      <g>
       <use style="stroke:#000000;stroke-width:1.5;" x="80.46875" xlink:href="#ma7cb629cad" y="109.855125"/>
      </g>
     </g>
     <g id="text_3">
      <text style="font-family:Arial;font-size:8px;font-stretch:normal;font-style:normal;font-weight:normal;text-anchor:middle;" transform="rotate(-0, 80.46875, 122.581375)" x="80.46875" y="122.581375">2</text>
     </g>
    </g>
    <g id="xtick_4">
     <g id="line2d_4">
      <g>
       <use style="stroke:#000000;stroke-width:1.5;" x="105.57875" xlink:href="#ma7cb629cad" y="109.855125"/>
      </g>
     </g>
     <g id="text_4">
      <text style="font-family:Arial;font-size:8px;font-stretch:normal;font-style:normal;font-weight:normal;text-anchor:middle;" transform="rotate(-0, 105.57875, 122.581375)" x="105.57875" y="122.581375">3</text>
     </g>
    </g>
    <g id="xtick_5">
     <g id="line2d_5">
      <g>
       <use style="stroke:#000000;stroke-width:1.5;" x="130.68875" xlink:href="#ma7cb629cad" y="109.855125"/>
      </g>
     </g>
     <g id="text_5">
      <text style="font-family:Arial;font-size:8px;font-stretch:normal;font-style:normal;font-weight:normal;text-anchor:middle;" transform="rotate(-0, 130.68875, 122.581375)" x="130.68875" y="122.581375">4</text>
     </g>
    </g>
    <g id="text_6">
     <!-- Power-based Kd $(\mu J/s)$ -->
     <g transform="translate(39.66875 134.011375)">
      <text>
       <tspan style="font-family:Arial;font-size:8px;font-style:regular;font-weight:regular;" x="0 5.335938 9.785156 15.5625 20.011719 22.675781 25.339844 29.789062 34.238281 38.238281 42.6875 47.136719 49.359375 54.695312 59.144531 61.367188 64.03125 68.640625 72.640625 74.863281 78.863281" y="-0.171875">Power-based&#160;Kd&#160;(&#956;J/s)</tspan>
      </text>
     </g>
    </g>
   </g>
   <g id="matplotlib.axis_2">
    <g id="ytick_1">
     <g id="line2d_6">
      <defs>
       <path d="M 0 0  L -3.5 0  " id="m16217de85d" style="stroke:#000000;stroke-width:1.5;"/>
      </defs>
      <g>
       <use style="stroke:#000000;stroke-width:1.5;" x="30.24875" xlink:href="#m16217de85d" y="109.855125"/>
      </g>
     </g>
     <g id="text_7">
      <text style="font-family:Arial;font-size:8px;font-stretch:normal;font-style:normal;font-weight:normal;text-anchor:end;" transform="rotate(-0, 23.24875, 112.71825)" x="23.24875" y="112.71825">0</text>
     </g>
    </g>
    <g id="ytick_2">
     <g id="line2d_7">
      <g>
       <use style="stroke:#000000;stroke-width:1.5;" x="30.24875" xlink:href="#m16217de85d" y="84.907125"/>
      </g>
     </g>
     <g id="text_8">
      <text style="font-family:Arial;font-size:8px;font-stretch:normal;font-style:normal;font-weight:normal;text-anchor:end;" transform="rotate(-0, 23.24875, 87.77025)" x="23.24875" y="87.77025">1</text>
     </g>
    </g>
    <g id="ytick_3">
     <g id="line2d_8">
      <g>
       <use style="stroke:#000000;stroke-width:1.5;" x="30.24875" xlink:href="#m16217de85d" y="59.959125"/>
      </g>
     </g>
     <g id="text_9">
      <text style="font-family:Arial;font-size:8px;font-stretch:normal;font-style:normal;font-weight:normal;text-anchor:end;" transform="rotate(-0, 23.24875, 62.82225)" x="23.24875" y="62.82225">2</text>
     </g>
    </g>
    <g id="ytick_4">
     <g id="line2d_9">
      <g>
       <use style="stroke:#000000;stroke-width:1.5;" x="30.24875" xlink:href="#m16217de85d" y="35.011125"/>
      </g>
     </g>
     <g id="text_10">
      <text style="font-family:Arial;font-size:8px;font-stretch:normal;font-style:normal;font-weight:normal;text-anchor:end;" transform="rotate(-0, 23.24875, 37.87425)" x="23.24875" y="37.87425">3</text>
     </g>
    </g>
    <g id="ytick_5">
     <g id="line2d_10">
      <g>
       <use style="stroke:#000000;stroke-width:1.5;" x="30.24875" xlink:href="#m16217de85d" y="10.063125"/>
      </g>
     </g>
     <g id="text_11">
      <text style="font-family:Arial;font-size:8px;font-stretch:normal;font-style:normal;font-weight:normal;text-anchor:end;" transform="rotate(-0, 23.24875, 12.92625)" x="23.24875" y="12.92625">4</text>
     </g>
    </g>
    <g id="text_12">
     <!-- Current-based Kd $(\mu J/s)$ -->
     <g transform="translate(13.04 102.759125)rotate(-90)">
      <text>
       <tspan style="font-family:Arial;font-size:8px;font-style:regular;font-weight:regular;" x="0 5.777344 10.226562 12.890625 15.554688 20.003906 24.453125 26.675781 29.339844 33.789062 38.238281 42.238281 46.6875 51.136719 53.359375 58.695312 63.144531 65.367188 68.03125 72.640625 76.640625 78.863281 82.863281" y="-0.171875">Current-based&#160;Kd&#160;(&#956;J/s)</tspan>
      </text>
     </g>
    </g>
   </g>
   <g id="line2d_11">
    <path clip-path="url(#p6708025a88)" d="M 30.24875 109.855125  L 130.68875 10.063125  " style="fill:none;stroke:#808080;stroke-linecap:square;stroke-width:1.5;"/>
   </g>
   <g id="patch_3">
    <path d="M 30.24875 109.855125  L 30.24875 10.063125  " style="fill:none;stroke:#000000;stroke-linecap:square;stroke-linejoin:miter;stroke-width:1.5;"/>
   </g>
   <g id="patch_4">
    <path d="M 30.24875 109.855125  L 130.68875 109.855125  " style="fill:none;stroke:#000000;stroke-linecap:square;stroke-linejoin:miter;stroke-width:1.5;"/>
   </g>
   <g id="text_13">
    <!-- $w$=4.6041 -->
    <g transform="translate(93.02375 89.896725)">
     <text>
      <tspan style="font-family:Arial;font-size:8px;font-style:regular;font-weight:regular;" x="0 5.777344 10.449219 14.898438 17.121094 21.570312 26.019531 30.46875" y="-0.25">w=4.6041</tspan>
     </text>
    </g>
   </g>
   <g id="text_14">
    <!-- $\rho$=0.9967 -->
    <g transform="translate(93.02375 102.370725)">
     <text>
      <tspan style="font-family:Arial;font-size:8px;font-style:regular;font-weight:regular;" x="0 4.550781 9.222656 13.671875 15.894531 20.34375 24.792969 29.242188" y="-0.25">&#961;=0.9967</tspan>
     </text>
    </g>
   </g>
  </g>
 </g>
 <defs>
  <clipPath id="p6708025a88">
   <rect height="99.792" width="100.44" x="30.24875" y="10.063125"/>
  </clipPath>
 </defs>
</g>
      <text x="0.0" y="3.3" font-size="12pt" font-family="Arial" font-weight="800" letter-spacing="0" text-anchor="start" fill="black">d</text>
    </g>
  </g>
</svg>
