<?xml version="1.0" encoding="utf-8" standalone="no"?>
<!DOCTYPE svg PUBLIC "-//W3C//DTD SVG 1.1//EN"
  "http://www.w3.org/Graphics/SVG/1.1/DTD/svg11.dtd">
<!-- Created with matplotlib (https://matplotlib.org/) -->
<svg height="87.467375pt" version="1.1" viewBox="0 0 278.80625 87.467375" width="278.80625pt" xmlns="http://www.w3.org/2000/svg" xmlns:xlink="http://www.w3.org/1999/xlink">
 <metadata>
  <rdf:RDF xmlns:cc="http://creativecommons.org/ns#" xmlns:dc="http://purl.org/dc/elements/1.1/" xmlns:rdf="http://www.w3.org/1999/02/22-rdf-syntax-ns#">
   <cc:Work>
    <dc:type rdf:resource="http://purl.org/dc/dcmitype/StillImage"/>
    <dc:date>2020-10-15T12:03:13.610337</dc:date>
    <dc:format>image/svg+xml</dc:format>
    <dc:creator>
     <cc:Agent>
      <dc:title>Matplotlib v3.3.2, https://matplotlib.org/</dc:title>
     </cc:Agent>
    </dc:creator>
   </cc:Work>
  </rdf:RDF>
 </metadata>
 <defs>
  <style type="text/css">*{stroke-linecap:butt;stroke-linejoin:round;}</style>
 </defs>
 <g id="figure_1">
  <g id="patch_1">
   <path d="M 0 87.467375 
L 278.80625 87.467375 
L 278.80625 0 
L 0 0 
z
" style="fill:none;"/>
  </g>
  <g id="axes_1">
   <g id="patch_2">
    <path d="M 42.82625 76.767375 
L 142.295815 76.767375 
L 142.295815 10.239375 
L 42.82625 10.239375 
z
" style="fill:none;"/>
   </g>
   <g id="matplotlib.axis_1"/>
   <g id="matplotlib.axis_2">
    <g id="ytick_1">
     <g id="line2d_1">
      <defs>
       <path d="M 0 0 
L -3.5 0 
" id="m5d1f508d7a" style="stroke:#000000;stroke-width:1.5;"/>
      </defs>
      <g>
       <use style="stroke:#000000;stroke-width:1.5;" x="42.82625" xlink:href="#m5d1f508d7a" y="68.08981"/>
      </g>
     </g>
     <g id="text_1">
      <text style="font-family:DejaVu Sans;font-size:8px;font-stretch:normal;font-style:normal;font-weight:normal;text-anchor:end;" transform="rotate(-0, 35.82625, 71.129185)" x="35.82625" y="71.129185">−50</text>
     </g>
    </g>
    <g id="ytick_2">
     <g id="line2d_2">
      <g>
       <use style="stroke:#000000;stroke-width:1.5;" x="42.82625" xlink:href="#m5d1f508d7a" y="39.164592"/>
      </g>
     </g>
     <g id="text_2">
      <text style="font-family:DejaVu Sans;font-size:8px;font-stretch:normal;font-style:normal;font-weight:normal;text-anchor:end;" transform="rotate(-0, 35.82625, 42.203967)" x="35.82625" y="42.203967">0</text>
     </g>
    </g>
    <g id="ytick_3">
     <g id="line2d_3">
      <g>
       <use style="stroke:#000000;stroke-width:1.5;" x="42.82625" xlink:href="#m5d1f508d7a" y="10.239375"/>
      </g>
     </g>
     <g id="text_3">
      <text style="font-family:DejaVu Sans;font-size:8px;font-stretch:normal;font-style:normal;font-weight:normal;text-anchor:end;" transform="rotate(-0, 35.82625, 13.27875)" x="35.82625" y="13.27875">50</text>
     </g>
    </g>
    <g id="text_4">
     <text style="font-family:DejaVu Sans;font-size:8px;font-stretch:normal;font-style:normal;font-weight:normal;text-anchor:middle;" transform="rotate(-90, 13.27875, 43.503375)" x="13.27875" y="43.503375">Voltage PY (mV)</text>
    </g>
   </g>
   <g id="line2d_4">
    <path clip-path="url(#pe117d259c2)" d="M 47.347594 59.6788 
L 47.914534 59.565995 
L 51.316172 58.074899 
L 52.166581 57.248924 
L 52.733521 56.393187 
L 53.30046 55.160047 
L 53.58393 54.115268 
L 53.8674 52.498812 
L 54.15087 49.741446 
L 54.43434 44.850647 
L 55.284749 25.975497 
L 55.568219 24.103515 
L 55.851689 25.061123 
L 56.135159 28.198505 
L 57.269038 45.269294 
L 58.402917 57.699784 
L 58.969857 64.162723 
L 59.536797 67.250869 
L 59.820267 68.104357 
L 60.387206 68.823709 
L 60.954146 68.9848 
L 61.804555 68.928356 
L 62.654965 68.558465 
L 63.505374 68.244692 
L 64.072314 68.138375 
L 64.922724 67.741173 
L 66.056603 67.271915 
L 66.623543 67.04932 
L 67.757422 66.664089 
L 68.324362 66.539017 
L 69.174771 66.350877 
L 70.025181 65.937821 
L 75.411108 64.395201 
L 76.828457 64.226792 
L 80.513565 63.625183 
L 81.080504 63.439937 
L 81.930914 63.396211 
L 82.214384 63.398981 
L 82.497853 63.276044 
L 83.064793 63.316119 
L 83.631733 63.328507 
L 83.915203 63.393153 
L 84.482142 63.379971 
L 85.049082 63.279543 
L 86.749901 63.106082 
L 87.033371 63.006932 
L 87.316841 63.049726 
L 87.88378 62.857817 
L 88.73419 62.680902 
L 89.30113 62.686516 
L 89.868069 62.67451 
L 90.151539 62.567749 
L 90.435009 62.607114 
L 91.001949 62.462227 
L 91.285418 62.462928 
L 91.852358 62.225229 
L 92.419298 62.245746 
L 92.702768 62.135019 
L 94.120117 62.123165 
L 94.687056 61.894789 
L 96.387875 61.868664 
L 99.506044 61.683907 
L 100.072983 61.827689 
L 100.923393 61.743683 
L 101.490332 61.710844 
L 102.624212 61.325672 
L 103.191151 61.291438 
L 103.758091 61.216421 
L 104.325031 61.058904 
L 105.17544 60.87724 
L 106.876259 60.627369 
L 107.159729 60.432811 
L 107.726669 60.381174 
L 109.994427 59.954669 
L 110.844837 59.63616 
L 111.411777 59.426919 
L 112.262186 59.18262 
L 113.679535 58.511666 
L 114.529945 57.813245 
L 115.096885 57.329737 
L 115.947294 56.063127 
L 116.230764 55.38748 
L 116.514234 54.397872 
L 116.797704 52.944891 
L 117.081173 50.433206 
L 117.364643 45.904515 
L 118.215053 25.734654 
L 118.498523 23.407305 
L 118.781992 23.890175 
L 119.065462 26.738871 
L 120.199342 44.387794 
L 121.333221 56.604324 
L 121.900161 63.535107 
L 122.4671 67.291824 
L 122.75057 68.21649 
L 123.31751 69.036845 
L 123.884449 69.274143 
L 124.734859 69.145154 
L 125.301799 68.899552 
L 125.585268 68.741788 
L 125.868738 68.727441 
L 126.435678 68.420287 
L 127.853027 67.986905 
L 128.419967 67.67735 
L 129.837316 66.990404 
L 130.404256 66.79609 
L 131.821605 66.417251 
L 137.774471 64.678522 
L 137.774471 64.678522 
" style="fill:none;stroke:#000000;stroke-linecap:square;stroke-width:1.6;"/>
   </g>
   <g id="patch_3">
    <path d="M 42.82625 76.767375 
L 42.82625 10.239375 
" style="fill:none;stroke:#000000;stroke-linecap:square;stroke-linejoin:miter;stroke-width:1.5;"/>
   </g>
   <g id="patch_4">
    <path d="M 42.82625 76.767375 
L 142.295815 76.767375 
" style="fill:none;stroke:#000000;stroke-linecap:square;stroke-linejoin:miter;stroke-width:1.5;"/>
   </g>
  </g>
  <g id="axes_2">
   <g id="patch_5">
    <path d="M 172.136685 76.767375 
L 271.60625 76.767375 
L 271.60625 10.239375 
L 172.136685 10.239375 
z
" style="fill:none;"/>
   </g>
   <g id="matplotlib.axis_3"/>
   <g id="matplotlib.axis_4"/>
   <g id="line2d_5">
    <path clip-path="url(#peaae74fb90)" d="M 176.658029 44.535501 
L 177.224968 47.302222 
L 177.508438 49.312989 
L 177.791908 52.897282 
L 178.358848 69.046959 
L 178.642318 71.713025 
L 178.925787 72.835879 
L 179.209257 73.360602 
L 179.492727 73.589705 
L 179.776197 73.62219 
L 180.910076 73.083464 
L 181.477016 72.739782 
L 182.043956 72.523677 
L 182.610895 72.13996 
L 183.461305 71.730378 
L 184.311714 71.191171 
L 184.878654 70.935809 
L 187.146413 69.678718 
L 187.713352 69.399076 
L 188.563762 68.964806 
L 190.264581 68.095728 
L 190.83152 67.905024 
L 191.39846 67.554923 
L 191.9654 67.391809 
L 193.949689 66.479116 
L 199.619085 64.243096 
L 200.186025 64.110608 
L 202.737254 62.957171 
L 203.871133 62.369701 
L 204.154603 62.281602 
L 204.721542 61.837497 
L 205.288482 61.428478 
L 205.855422 60.867019 
L 206.705831 59.367152 
L 206.989301 58.282589 
L 207.272771 56.004586 
L 207.556241 47.283103 
L 207.839711 14.957306 
L 208.12318 11.641317 
L 208.40665 11.925566 
L 208.97359 13.40755 
L 209.54053 15.802369 
L 210.390939 20.66043 
L 212.658698 34.788178 
L 213.792577 40.06435 
L 215.493396 47.443666 
L 215.776866 49.595986 
L 216.060336 53.383913 
L 216.627275 69.421795 
L 216.910745 71.820603 
L 217.194215 72.897997 
L 217.477685 73.408438 
L 218.044625 73.573031 
L 219.461974 72.863879 
L 227.399129 68.609424 
L 229.383418 67.709939 
L 230.517297 67.137971 
L 230.800767 67.091365 
L 231.651177 66.6778 
L 232.218116 66.493555 
L 233.351996 65.953299 
L 233.635466 65.75183 
L 234.202405 65.652481 
L 235.619754 64.966366 
L 236.186694 64.967979 
L 237.037104 64.577964 
L 239.871802 63.486656 
L 240.155272 63.286556 
L 240.438742 63.268681 
L 240.722211 63.093695 
L 241.005681 63.066807 
L 242.42303 62.196095 
L 244.123849 60.78741 
L 244.690789 59.901048 
L 244.974259 59.14263 
L 245.257729 57.901427 
L 245.541199 55.084598 
L 245.824668 41.277422 
L 246.108138 12.546094 
L 246.391608 11.66315 
L 246.675078 12.049113 
L 246.958548 12.696811 
L 247.525487 14.751494 
L 248.375897 19.245588 
L 251.210595 36.450439 
L 252.344475 41.383513 
L 253.478354 46.132464 
L 253.761824 47.735525 
L 254.045294 50.046364 
L 254.328764 54.414974 
L 254.895703 70.090976 
L 255.179173 72.084043 
L 255.462643 73.037379 
L 255.746113 73.462139 
L 256.029583 73.611268 
L 256.313052 73.593671 
L 258.297341 72.600235 
L 258.864281 72.241926 
L 262.832859 70.089782 
L 263.683268 69.64384 
L 264.533678 69.214946 
L 265.100617 68.947699 
L 265.667557 68.68066 
L 265.951027 68.595744 
L 266.801436 68.03375 
L 267.084906 67.968869 
L 267.084906 67.968869 
" style="fill:none;stroke:#000000;stroke-linecap:square;stroke-width:1.6;"/>
   </g>
   <g id="patch_6">
    <path d="M 172.136685 76.767375 
L 271.60625 76.767375 
" style="fill:none;stroke:#000000;stroke-linecap:square;stroke-linejoin:miter;stroke-width:1.5;"/>
   </g>
  </g>
 </g>
 <defs>
  <clipPath id="pe117d259c2">
   <rect height="66.528" width="99.469565" x="42.82625" y="10.239375"/>
  </clipPath>
  <clipPath id="peaae74fb90">
   <rect height="66.528" width="99.469565" x="172.136685" y="10.239375"/>
  </clipPath>
 </defs>
</svg>
