<?xml version="1.0" encoding="utf-8" standalone="no"?>
<!DOCTYPE svg PUBLIC "-//W3C//DTD SVG 1.1//EN"
  "http://www.w3.org/Graphics/SVG/1.1/DTD/svg11.dtd">
<!-- Created with matplotlib (https://matplotlib.org/) -->
<svg height="108.42125pt" version="1.1" viewBox="0 0 279.7875 108.42125" width="279.7875pt" xmlns="http://www.w3.org/2000/svg" xmlns:xlink="http://www.w3.org/1999/xlink">
 <metadata>
  <rdf:RDF xmlns:cc="http://creativecommons.org/ns#" xmlns:dc="http://purl.org/dc/elements/1.1/" xmlns:rdf="http://www.w3.org/1999/02/22-rdf-syntax-ns#">
   <cc:Work>
    <dc:type rdf:resource="http://purl.org/dc/dcmitype/StillImage"/>
    <dc:date>2020-10-09T16:16:09.128681</dc:date>
    <dc:format>image/svg+xml</dc:format>
    <dc:creator>
     <cc:Agent>
      <dc:title>Matplotlib v3.3.2, https://matplotlib.org/</dc:title>
     </cc:Agent>
    </dc:creator>
   </cc:Work>
  </rdf:RDF>
 </metadata>
 <defs>
  <style type="text/css">*{stroke-linecap:butt;stroke-linejoin:round;}</style>
 </defs>
 <g id="figure_1">
  <g id="patch_1">
   <path d="M -0 108.42125 
L 279.7875 108.42125 
L 279.7875 0 
L -0 0 
z
" style="fill:none;"/>
  </g>
  <g id="axes_1">
   <g id="patch_2">
    <path d="M 18.9425 74.71875 
L 88.6925 74.71875 
L 88.6925 19.27875 
L 18.9425 19.27875 
z
" style="fill:none;"/>
   </g>
   <g id="patch_3">
    <path clip-path="url(#p87f7b0612a)" d="M 18.9425 74.71875 
L 19.64 74.71875 
L 19.64 74.71875 
L 18.9425 74.71875 
z
" style="fill:#3182bd;"/>
   </g>
   <g id="patch_4">
    <path clip-path="url(#p87f7b0612a)" d="M 19.64 74.71875 
L 20.3375 74.71875 
L 20.3375 74.71875 
L 19.64 74.71875 
z
" style="fill:#3182bd;"/>
   </g>
   <g id="patch_5">
    <path clip-path="url(#p87f7b0612a)" d="M 20.3375 74.71875 
L 21.035 74.71875 
L 21.035 74.71875 
L 20.3375 74.71875 
z
" style="fill:#3182bd;"/>
   </g>
   <g id="patch_6">
    <path clip-path="url(#p87f7b0612a)" d="M 21.035 74.71875 
L 21.7325 74.71875 
L 21.7325 74.71875 
L 21.035 74.71875 
z
" style="fill:#3182bd;"/>
   </g>
   <g id="patch_7">
    <path clip-path="url(#p87f7b0612a)" d="M 21.7325 74.71875 
L 22.43 74.71875 
L 22.43 74.129746 
L 21.7325 74.129746 
z
" style="fill:#3182bd;"/>
   </g>
   <g id="patch_8">
    <path clip-path="url(#p87f7b0612a)" d="M 22.43 74.71875 
L 23.1275 74.71875 
L 23.1275 72.741379 
L 22.43 72.741379 
z
" style="fill:#3182bd;"/>
   </g>
   <g id="patch_9">
    <path clip-path="url(#p87f7b0612a)" d="M 23.1275 74.71875 
L 23.825 74.71875 
L 23.825 70.890224 
L 23.1275 70.890224 
z
" style="fill:#3182bd;"/>
   </g>
   <g id="patch_10">
    <path clip-path="url(#p87f7b0612a)" d="M 23.825 74.71875 
L 24.5225 74.71875 
L 24.5225 67.314128 
L 23.825 67.314128 
z
" style="fill:#3182bd;"/>
   </g>
   <g id="patch_11">
    <path clip-path="url(#p87f7b0612a)" d="M 24.5225 74.71875 
L 25.22 74.71875 
L 25.22 64.789826 
L 24.5225 64.789826 
z
" style="fill:#3182bd;"/>
   </g>
   <g id="patch_12">
    <path clip-path="url(#p87f7b0612a)" d="M 25.22 74.71875 
L 25.9175 74.71875 
L 25.9175 62.854527 
L 25.22 62.854527 
z
" style="fill:#3182bd;"/>
   </g>
   <g id="patch_13">
    <path clip-path="url(#p87f7b0612a)" d="M 25.9175 74.71875 
L 26.615 74.71875 
L 26.615 59.74122 
L 25.9175 59.74122 
z
" style="fill:#3182bd;"/>
   </g>
   <g id="patch_14">
    <path clip-path="url(#p87f7b0612a)" d="M 26.615 74.71875 
L 27.3125 74.71875 
L 27.3125 57.469348 
L 26.615 57.469348 
z
" style="fill:#3182bd;"/>
   </g>
   <g id="patch_15">
    <path clip-path="url(#p87f7b0612a)" d="M 27.3125 74.71875 
L 28.01 74.71875 
L 28.01 50.864089 
L 27.3125 50.864089 
z
" style="fill:#3182bd;"/>
   </g>
   <g id="patch_16">
    <path clip-path="url(#p87f7b0612a)" d="M 28.01 74.71875 
L 28.7075 74.71875 
L 28.7075 50.569587 
L 28.01 50.569587 
z
" style="fill:#3182bd;"/>
   </g>
   <g id="patch_17">
    <path clip-path="url(#p87f7b0612a)" d="M 28.7075 74.71875 
L 29.405 74.71875 
L 29.405 47.161778 
L 28.7075 47.161778 
z
" style="fill:#3182bd;"/>
   </g>
   <g id="patch_18">
    <path clip-path="url(#p87f7b0612a)" d="M 29.405 74.71875 
L 30.1025 74.71875 
L 30.1025 44.090543 
L 29.405 44.090543 
z
" style="fill:#3182bd;"/>
   </g>
   <g id="patch_19">
    <path clip-path="url(#p87f7b0612a)" d="M 30.1025 74.71875 
L 30.8 74.71875 
L 30.8 40.598591 
L 30.1025 40.598591 
z
" style="fill:#3182bd;"/>
   </g>
   <g id="patch_20">
    <path clip-path="url(#p87f7b0612a)" d="M 30.8 74.71875 
L 31.4975 74.71875 
L 31.4975 40.304089 
L 30.8 40.304089 
z
" style="fill:#3182bd;"/>
   </g>
   <g id="patch_21">
    <path clip-path="url(#p87f7b0612a)" d="M 31.4975 74.71875 
L 32.195 74.71875 
L 32.195 38.410862 
L 31.4975 38.410862 
z
" style="fill:#3182bd;"/>
   </g>
   <g id="patch_22">
    <path clip-path="url(#p87f7b0612a)" d="M 32.195 74.71875 
L 32.8925 74.71875 
L 32.8925 36.012774 
L 32.195 36.012774 
z
" style="fill:#3182bd;"/>
   </g>
   <g id="patch_23">
    <path clip-path="url(#p87f7b0612a)" d="M 32.8925 74.71875 
L 33.59 74.71875 
L 33.59 33.025682 
L 32.8925 33.025682 
z
" style="fill:#3182bd;"/>
   </g>
   <g id="patch_24">
    <path clip-path="url(#p87f7b0612a)" d="M 33.59 74.71875 
L 34.2875 74.71875 
L 34.2875 33.320184 
L 33.59 33.320184 
z
" style="fill:#3182bd;"/>
   </g>
   <g id="patch_25">
    <path clip-path="url(#p87f7b0612a)" d="M 34.2875 74.71875 
L 34.985 74.71875 
L 34.985 29.449587 
L 34.2875 29.449587 
z
" style="fill:#3182bd;"/>
   </g>
   <g id="patch_26">
    <path clip-path="url(#p87f7b0612a)" d="M 34.985 74.71875 
L 35.6825 74.71875 
L 35.6825 27.219786 
L 34.985 27.219786 
z
" style="fill:#3182bd;"/>
   </g>
   <g id="patch_27">
    <path clip-path="url(#p87f7b0612a)" d="M 35.6825 74.71875 
L 36.38 74.71875 
L 36.38 29.070941 
L 35.6825 29.070941 
z
" style="fill:#3182bd;"/>
   </g>
   <g id="patch_28">
    <path clip-path="url(#p87f7b0612a)" d="M 36.38 74.71875 
L 37.0775 74.71875 
L 37.0775 28.650224 
L 36.38 28.650224 
z
" style="fill:#3182bd;"/>
   </g>
   <g id="patch_29">
    <path clip-path="url(#p87f7b0612a)" d="M 37.0775 74.71875 
L 37.775 74.71875 
L 37.775 27.135642 
L 37.0775 27.135642 
z
" style="fill:#3182bd;"/>
   </g>
   <g id="patch_30">
    <path clip-path="url(#p87f7b0612a)" d="M 37.775 74.71875 
L 38.4725 74.71875 
L 38.4725 26.58871 
L 37.775 26.58871 
z
" style="fill:#3182bd;"/>
   </g>
   <g id="patch_31">
    <path clip-path="url(#p87f7b0612a)" d="M 38.4725 74.71875 
L 39.17 74.71875 
L 39.17 25.158272 
L 38.4725 25.158272 
z
" style="fill:#3182bd;"/>
   </g>
   <g id="patch_32">
    <path clip-path="url(#p87f7b0612a)" d="M 39.17 74.71875 
L 39.8675 74.71875 
L 39.8675 24.737555 
L 39.17 24.737555 
z
" style="fill:#3182bd;"/>
   </g>
   <g id="patch_33">
    <path clip-path="url(#p87f7b0612a)" d="M 39.8675 74.71875 
L 40.565 74.71875 
L 40.565 25.705204 
L 39.8675 25.705204 
z
" style="fill:#3182bd;"/>
   </g>
   <g id="patch_34">
    <path clip-path="url(#p87f7b0612a)" d="M 40.565 74.71875 
L 41.2625 74.71875 
L 41.2625 25.536917 
L 40.565 25.536917 
z
" style="fill:#3182bd;"/>
   </g>
   <g id="patch_35">
    <path clip-path="url(#p87f7b0612a)" d="M 41.2625 74.71875 
L 41.96 74.71875 
L 41.96 22.928471 
L 41.2625 22.928471 
z
" style="fill:#3182bd;"/>
   </g>
   <g id="patch_36">
    <path clip-path="url(#p87f7b0612a)" d="M 41.96 74.71875 
L 42.6575 74.71875 
L 42.6575 24.653411 
L 41.96 24.653411 
z
" style="fill:#3182bd;"/>
   </g>
   <g id="patch_37">
    <path clip-path="url(#p87f7b0612a)" d="M 42.6575 74.71875 
L 43.355 74.71875 
L 43.355 24.653411 
L 42.6575 24.653411 
z
" style="fill:#3182bd;"/>
   </g>
   <g id="patch_38">
    <path clip-path="url(#p87f7b0612a)" d="M 43.355 74.71875 
L 44.0525 74.71875 
L 44.0525 21.91875 
L 43.355 21.91875 
z
" style="fill:#3182bd;"/>
   </g>
   <g id="patch_39">
    <path clip-path="url(#p87f7b0612a)" d="M 44.0525 74.71875 
L 44.75 74.71875 
L 44.75 27.598431 
L 44.0525 27.598431 
z
" style="fill:#3182bd;"/>
   </g>
   <g id="patch_40">
    <path clip-path="url(#p87f7b0612a)" d="M 44.75 74.71875 
L 45.4475 74.71875 
L 45.4475 27.177714 
L 44.75 27.177714 
z
" style="fill:#3182bd;"/>
   </g>
   <g id="patch_41">
    <path clip-path="url(#p87f7b0612a)" d="M 45.4475 74.71875 
L 46.145 74.71875 
L 46.145 27.388073 
L 45.4475 27.388073 
z
" style="fill:#3182bd;"/>
   </g>
   <g id="patch_42">
    <path clip-path="url(#p87f7b0612a)" d="M 46.145 74.71875 
L 46.8425 74.71875 
L 46.8425 27.346001 
L 46.145 27.346001 
z
" style="fill:#3182bd;"/>
   </g>
   <g id="patch_43">
    <path clip-path="url(#p87f7b0612a)" d="M 46.8425 74.71875 
L 47.54 74.71875 
L 47.54 25.284487 
L 46.8425 25.284487 
z
" style="fill:#3182bd;"/>
   </g>
   <g id="patch_44">
    <path clip-path="url(#p87f7b0612a)" d="M 47.54 74.71875 
L 48.2375 74.71875 
L 48.2375 28.31365 
L 47.54 28.31365 
z
" style="fill:#3182bd;"/>
   </g>
   <g id="patch_45">
    <path clip-path="url(#p87f7b0612a)" d="M 48.2375 74.71875 
L 48.935 74.71875 
L 48.935 28.608152 
L 48.2375 28.608152 
z
" style="fill:#3182bd;"/>
   </g>
   <g id="patch_46">
    <path clip-path="url(#p87f7b0612a)" d="M 48.935 74.71875 
L 49.6325 74.71875 
L 49.6325 27.135642 
L 48.935 27.135642 
z
" style="fill:#3182bd;"/>
   </g>
   <g id="patch_47">
    <path clip-path="url(#p87f7b0612a)" d="M 49.6325 74.71875 
L 50.33 74.71875 
L 50.33 29.744089 
L 49.6325 29.744089 
z
" style="fill:#3182bd;"/>
   </g>
   <g id="patch_48">
    <path clip-path="url(#p87f7b0612a)" d="M 50.33 74.71875 
L 51.0275 74.71875 
L 51.0275 31.00624 
L 50.33 31.00624 
z
" style="fill:#3182bd;"/>
   </g>
   <g id="patch_49">
    <path clip-path="url(#p87f7b0612a)" d="M 51.0275 74.71875 
L 51.725 74.71875 
L 51.725 31.384885 
L 51.0275 31.384885 
z
" style="fill:#3182bd;"/>
   </g>
   <g id="patch_50">
    <path clip-path="url(#p87f7b0612a)" d="M 51.725 74.71875 
L 52.4225 74.71875 
L 52.4225 33.993332 
L 51.725 33.993332 
z
" style="fill:#3182bd;"/>
   </g>
   <g id="patch_51">
    <path clip-path="url(#p87f7b0612a)" d="M 52.4225 74.71875 
L 53.12 74.71875 
L 53.12 32.352535 
L 52.4225 32.352535 
z
" style="fill:#3182bd;"/>
   </g>
   <g id="patch_52">
    <path clip-path="url(#p87f7b0612a)" d="M 53.12 74.71875 
L 53.8175 74.71875 
L 53.8175 34.371977 
L 53.12 34.371977 
z
" style="fill:#3182bd;"/>
   </g>
   <g id="patch_53">
    <path clip-path="url(#p87f7b0612a)" d="M 53.8175 74.71875 
L 54.515 74.71875 
L 54.515 33.782973 
L 53.8175 33.782973 
z
" style="fill:#3182bd;"/>
   </g>
   <g id="patch_54">
    <path clip-path="url(#p87f7b0612a)" d="M 54.515 74.71875 
L 55.2125 74.71875 
L 55.2125 34.456121 
L 54.515 34.456121 
z
" style="fill:#3182bd;"/>
   </g>
   <g id="patch_55">
    <path clip-path="url(#p87f7b0612a)" d="M 55.2125 74.71875 
L 55.91 74.71875 
L 55.91 37.695642 
L 55.2125 37.695642 
z
" style="fill:#3182bd;"/>
   </g>
   <g id="patch_56">
    <path clip-path="url(#p87f7b0612a)" d="M 55.91 74.71875 
L 56.6075 74.71875 
L 56.6075 36.181061 
L 55.91 36.181061 
z
" style="fill:#3182bd;"/>
   </g>
   <g id="patch_57">
    <path clip-path="url(#p87f7b0612a)" d="M 56.6075 74.71875 
L 57.305 74.71875 
L 57.305 37.569427 
L 56.6075 37.569427 
z
" style="fill:#3182bd;"/>
   </g>
   <g id="patch_58">
    <path clip-path="url(#p87f7b0612a)" d="M 57.305 74.71875 
L 58.0025 74.71875 
L 58.0025 39.883372 
L 57.305 39.883372 
z
" style="fill:#3182bd;"/>
   </g>
   <g id="patch_59">
    <path clip-path="url(#p87f7b0612a)" d="M 58.0025 74.71875 
L 58.7 74.71875 
L 58.7 41.860742 
L 58.0025 41.860742 
z
" style="fill:#3182bd;"/>
   </g>
   <g id="patch_60">
    <path clip-path="url(#p87f7b0612a)" d="M 58.7 74.71875 
L 59.3975 74.71875 
L 59.3975 42.281459 
L 58.7 42.281459 
z
" style="fill:#3182bd;"/>
   </g>
   <g id="patch_61">
    <path clip-path="url(#p87f7b0612a)" d="M 59.3975 74.71875 
L 60.095 74.71875 
L 60.095 42.744248 
L 59.3975 42.744248 
z
" style="fill:#3182bd;"/>
   </g>
   <g id="patch_62">
    <path clip-path="url(#p87f7b0612a)" d="M 60.095 74.71875 
L 60.7925 74.71875 
L 60.7925 46.025842 
L 60.095 46.025842 
z
" style="fill:#3182bd;"/>
   </g>
   <g id="patch_63">
    <path clip-path="url(#p87f7b0612a)" d="M 60.7925 74.71875 
L 61.49 74.71875 
L 61.49 47.035563 
L 60.7925 47.035563 
z
" style="fill:#3182bd;"/>
   </g>
   <g id="patch_64">
    <path clip-path="url(#p87f7b0612a)" d="M 61.49 74.71875 
L 62.1875 74.71875 
L 62.1875 49.728152 
L 61.49 49.728152 
z
" style="fill:#3182bd;"/>
   </g>
   <g id="patch_65">
    <path clip-path="url(#p87f7b0612a)" d="M 62.1875 74.71875 
L 62.885 74.71875 
L 62.885 51.495164 
L 62.1875 51.495164 
z
" style="fill:#3182bd;"/>
   </g>
   <g id="patch_66">
    <path clip-path="url(#p87f7b0612a)" d="M 62.885 74.71875 
L 63.5825 74.71875 
L 63.5825 51.032375 
L 62.885 51.032375 
z
" style="fill:#3182bd;"/>
   </g>
   <g id="patch_67">
    <path clip-path="url(#p87f7b0612a)" d="M 63.5825 74.71875 
L 64.28 74.71875 
L 64.28 54.81883 
L 63.5825 54.81883 
z
" style="fill:#3182bd;"/>
   </g>
   <g id="patch_68">
    <path clip-path="url(#p87f7b0612a)" d="M 64.28 74.71875 
L 64.9775 74.71875 
L 64.9775 58.563212 
L 64.28 58.563212 
z
" style="fill:#3182bd;"/>
   </g>
   <g id="patch_69">
    <path clip-path="url(#p87f7b0612a)" d="M 64.9775 74.71875 
L 65.675 74.71875 
L 65.675 57.595563 
L 64.9775 57.595563 
z
" style="fill:#3182bd;"/>
   </g>
   <g id="patch_70">
    <path clip-path="url(#p87f7b0612a)" d="M 65.675 74.71875 
L 66.3725 74.71875 
L 66.3725 59.404646 
L 65.675 59.404646 
z
" style="fill:#3182bd;"/>
   </g>
   <g id="patch_71">
    <path clip-path="url(#p87f7b0612a)" d="M 66.3725 74.71875 
L 67.07 74.71875 
L 67.07 61.634447 
L 66.3725 61.634447 
z
" style="fill:#3182bd;"/>
   </g>
   <g id="patch_72">
    <path clip-path="url(#p87f7b0612a)" d="M 67.07 74.71875 
L 67.7675 74.71875 
L 67.7675 62.055164 
L 67.07 62.055164 
z
" style="fill:#3182bd;"/>
   </g>
   <g id="patch_73">
    <path clip-path="url(#p87f7b0612a)" d="M 67.7675 74.71875 
L 68.465 74.71875 
L 68.465 64.41118 
L 67.7675 64.41118 
z
" style="fill:#3182bd;"/>
   </g>
   <g id="patch_74">
    <path clip-path="url(#p87f7b0612a)" d="M 68.465 74.71875 
L 69.1625 74.71875 
L 69.1625 64.327037 
L 68.465 64.327037 
z
" style="fill:#3182bd;"/>
   </g>
   <g id="patch_75">
    <path clip-path="url(#p87f7b0612a)" d="M 69.1625 74.71875 
L 69.86 74.71875 
L 69.86 68.365921 
L 69.1625 68.365921 
z
" style="fill:#3182bd;"/>
   </g>
   <g id="patch_76">
    <path clip-path="url(#p87f7b0612a)" d="M 69.86 74.71875 
L 70.5575 74.71875 
L 70.5575 69.165284 
L 69.86 69.165284 
z
" style="fill:#3182bd;"/>
   </g>
   <g id="patch_77">
    <path clip-path="url(#p87f7b0612a)" d="M 70.5575 74.71875 
L 71.255 74.71875 
L 71.255 70.132933 
L 70.5575 70.132933 
z
" style="fill:#3182bd;"/>
   </g>
   <g id="patch_78">
    <path clip-path="url(#p87f7b0612a)" d="M 71.255 74.71875 
L 71.9525 74.71875 
L 71.9525 70.721937 
L 71.255 70.721937 
z
" style="fill:#3182bd;"/>
   </g>
   <g id="patch_79">
    <path clip-path="url(#p87f7b0612a)" d="M 71.9525 74.71875 
L 72.65 74.71875 
L 72.65 72.236519 
L 71.9525 72.236519 
z
" style="fill:#3182bd;"/>
   </g>
   <g id="patch_80">
    <path clip-path="url(#p87f7b0612a)" d="M 72.65 74.71875 
L 73.3475 74.71875 
L 73.3475 73.035881 
L 72.65 73.035881 
z
" style="fill:#3182bd;"/>
   </g>
   <g id="patch_81">
    <path clip-path="url(#p87f7b0612a)" d="M 73.3475 74.71875 
L 74.045 74.71875 
L 74.045 73.330383 
L 73.3475 73.330383 
z
" style="fill:#3182bd;"/>
   </g>
   <g id="patch_82">
    <path clip-path="url(#p87f7b0612a)" d="M 74.045 74.71875 
L 74.7425 74.71875 
L 74.7425 73.919387 
L 74.045 73.919387 
z
" style="fill:#3182bd;"/>
   </g>
   <g id="patch_83">
    <path clip-path="url(#p87f7b0612a)" d="M 74.7425 74.71875 
L 75.44 74.71875 
L 75.44 74.213889 
L 74.7425 74.213889 
z
" style="fill:#3182bd;"/>
   </g>
   <g id="patch_84">
    <path clip-path="url(#p87f7b0612a)" d="M 75.44 74.71875 
L 76.1375 74.71875 
L 76.1375 73.877316 
L 75.44 73.877316 
z
" style="fill:#3182bd;"/>
   </g>
   <g id="patch_85">
    <path clip-path="url(#p87f7b0612a)" d="M 76.1375 74.71875 
L 76.835 74.71875 
L 76.835 74.382176 
L 76.1375 74.382176 
z
" style="fill:#3182bd;"/>
   </g>
   <g id="patch_86">
    <path clip-path="url(#p87f7b0612a)" d="M 76.835 74.71875 
L 77.5325 74.71875 
L 77.5325 74.508391 
L 76.835 74.508391 
z
" style="fill:#3182bd;"/>
   </g>
   <g id="patch_87">
    <path clip-path="url(#p87f7b0612a)" d="M 77.5325 74.71875 
L 78.23 74.71875 
L 78.23 74.676678 
L 77.5325 74.676678 
z
" style="fill:#3182bd;"/>
   </g>
   <g id="patch_88">
    <path clip-path="url(#p87f7b0612a)" d="M 78.23 74.71875 
L 78.9275 74.71875 
L 78.9275 74.676678 
L 78.23 74.676678 
z
" style="fill:#3182bd;"/>
   </g>
   <g id="patch_89">
    <path clip-path="url(#p87f7b0612a)" d="M 78.9275 74.71875 
L 79.625 74.71875 
L 79.625 74.676678 
L 78.9275 74.676678 
z
" style="fill:#3182bd;"/>
   </g>
   <g id="patch_90">
    <path clip-path="url(#p87f7b0612a)" d="M 79.625 74.71875 
L 80.3225 74.71875 
L 80.3225 74.71875 
L 79.625 74.71875 
z
" style="fill:#3182bd;"/>
   </g>
   <g id="patch_91">
    <path clip-path="url(#p87f7b0612a)" d="M 80.3225 74.71875 
L 81.02 74.71875 
L 81.02 74.71875 
L 80.3225 74.71875 
z
" style="fill:#3182bd;"/>
   </g>
   <g id="patch_92">
    <path clip-path="url(#p87f7b0612a)" d="M 81.02 74.71875 
L 81.7175 74.71875 
L 81.7175 74.71875 
L 81.02 74.71875 
z
" style="fill:#3182bd;"/>
   </g>
   <g id="patch_93">
    <path clip-path="url(#p87f7b0612a)" d="M 81.7175 74.71875 
L 82.415 74.71875 
L 82.415 74.71875 
L 81.7175 74.71875 
z
" style="fill:#3182bd;"/>
   </g>
   <g id="patch_94">
    <path clip-path="url(#p87f7b0612a)" d="M 82.415 74.71875 
L 83.1125 74.71875 
L 83.1125 74.71875 
L 82.415 74.71875 
z
" style="fill:#3182bd;"/>
   </g>
   <g id="patch_95">
    <path clip-path="url(#p87f7b0612a)" d="M 83.1125 74.71875 
L 83.81 74.71875 
L 83.81 74.71875 
L 83.1125 74.71875 
z
" style="fill:#3182bd;"/>
   </g>
   <g id="patch_96">
    <path clip-path="url(#p87f7b0612a)" d="M 83.81 74.71875 
L 84.5075 74.71875 
L 84.5075 74.71875 
L 83.81 74.71875 
z
" style="fill:#3182bd;"/>
   </g>
   <g id="patch_97">
    <path clip-path="url(#p87f7b0612a)" d="M 84.5075 74.71875 
L 85.205 74.71875 
L 85.205 74.71875 
L 84.5075 74.71875 
z
" style="fill:#3182bd;"/>
   </g>
   <g id="patch_98">
    <path clip-path="url(#p87f7b0612a)" d="M 85.205 74.71875 
L 85.9025 74.71875 
L 85.9025 74.71875 
L 85.205 74.71875 
z
" style="fill:#3182bd;"/>
   </g>
   <g id="patch_99">
    <path clip-path="url(#p87f7b0612a)" d="M 85.9025 74.71875 
L 86.6 74.71875 
L 86.6 74.71875 
L 85.9025 74.71875 
z
" style="fill:#3182bd;"/>
   </g>
   <g id="patch_100">
    <path clip-path="url(#p87f7b0612a)" d="M 86.6 74.71875 
L 87.2975 74.71875 
L 87.2975 74.71875 
L 86.6 74.71875 
z
" style="fill:#3182bd;"/>
   </g>
   <g id="patch_101">
    <path clip-path="url(#p87f7b0612a)" d="M 87.2975 74.71875 
L 87.995 74.71875 
L 87.995 74.71875 
L 87.2975 74.71875 
z
" style="fill:#3182bd;"/>
   </g>
   <g id="patch_102">
    <path clip-path="url(#p87f7b0612a)" d="M 87.995 74.71875 
L 88.6925 74.71875 
L 88.6925 74.71875 
L 87.995 74.71875 
z
" style="fill:#3182bd;"/>
   </g>
   <g id="matplotlib.axis_1">
    <g id="xtick_1">
     <g id="line2d_1">
      <defs>
       <path d="M 0 0 
L 0 3.5 
" id="mf386e009bc" style="stroke:#000000;stroke-width:1.5;"/>
      </defs>
      <g>
       <use style="stroke:#000000;stroke-width:1.5;" x="18.9425" xlink:href="#mf386e009bc" y="74.71875"/>
      </g>
     </g>
     <g id="text_1">
      <text style="font-family:DejaVu Sans;font-size:8px;font-stretch:normal;font-style:normal;font-weight:normal;text-anchor:middle;" transform="rotate(-0, 18.9425, 87.7975)" x="18.9425" y="87.7975">0</text>
     </g>
    </g>
    <g id="xtick_2">
     <g id="line2d_2">
      <g>
       <use style="stroke:#000000;stroke-width:1.5;" x="88.6925" xlink:href="#mf386e009bc" y="74.71875"/>
      </g>
     </g>
     <g id="text_2">
      <text style="font-family:DejaVu Sans;font-size:8px;font-stretch:normal;font-style:normal;font-weight:normal;text-anchor:middle;" transform="rotate(-0, 88.6925, 87.7975)" x="88.6925" y="87.7975">6</text>
     </g>
    </g>
    <g id="text_3">
     <!-- E/spike ($\mu$J) -->
     <g transform="translate(31.2975 99.54125)">
      <text>
       <tspan style="font-family:DejaVu Sans;font-size:8px;font-style:book;font-weight:book;" x="0 5.054688 7.75 11.917969 16.996094 19.21875 23.851562 28.773438 31.316406 34.4375 39.527344 41.886719" y="-0.921875">E/spike (μJ)</tspan>
      </text>
     </g>
    </g>
   </g>
   <g id="matplotlib.axis_2">
    <g id="text_4">
     <text style="font-family:DejaVu Sans;font-size:8px;font-stretch:normal;font-style:normal;font-weight:normal;text-anchor:middle;" transform="rotate(-90, 13.27875, 46.99875)" x="13.27875" y="46.99875">Count</text>
    </g>
   </g>
   <g id="patch_103">
    <path d="M 18.9425 74.71875 
L 88.6925 74.71875 
" style="fill:none;stroke:#000000;stroke-linecap:square;stroke-linejoin:miter;stroke-width:1.5;"/>
   </g>
   <g id="text_5">
    <text style="font-family:DejaVu Sans;font-size:8px;font-stretch:normal;font-style:normal;font-weight:normal;text-anchor:middle;" transform="rotate(-0, 53.8175, 13.27875)" x="53.8175" y="13.27875">AB/PD</text>
   </g>
  </g>
  <g id="axes_2">
   <g id="patch_104">
    <path d="M 109.6175 74.71875 
L 179.3675 74.71875 
L 179.3675 19.27875 
L 109.6175 19.27875 
z
" style="fill:none;"/>
   </g>
   <g id="patch_105">
    <path clip-path="url(#p2408f3325c)" d="M 109.6175 74.71875 
L 110.315 74.71875 
L 110.315 74.71875 
L 109.6175 74.71875 
z
" style="fill:#fc8d59;"/>
   </g>
   <g id="patch_106">
    <path clip-path="url(#p2408f3325c)" d="M 110.315 74.71875 
L 111.0125 74.71875 
L 111.0125 74.71875 
L 110.315 74.71875 
z
" style="fill:#fc8d59;"/>
   </g>
   <g id="patch_107">
    <path clip-path="url(#p2408f3325c)" d="M 111.0125 74.71875 
L 111.71 74.71875 
L 111.71 74.71875 
L 111.0125 74.71875 
z
" style="fill:#fc8d59;"/>
   </g>
   <g id="patch_108">
    <path clip-path="url(#p2408f3325c)" d="M 111.71 74.71875 
L 112.4075 74.71875 
L 112.4075 74.700772 
L 111.71 74.700772 
z
" style="fill:#fc8d59;"/>
   </g>
   <g id="patch_109">
    <path clip-path="url(#p2408f3325c)" d="M 112.4075 74.71875 
L 113.105 74.71875 
L 113.105 74.359199 
L 112.4075 74.359199 
z
" style="fill:#fc8d59;"/>
   </g>
   <g id="patch_110">
    <path clip-path="url(#p2408f3325c)" d="M 113.105 74.71875 
L 113.8025 74.71875 
L 113.8025 72.777177 
L 113.105 72.777177 
z
" style="fill:#fc8d59;"/>
   </g>
   <g id="patch_111">
    <path clip-path="url(#p2408f3325c)" d="M 113.8025 74.71875 
L 114.5 74.71875 
L 114.5 69.792907 
L 113.8025 69.792907 
z
" style="fill:#fc8d59;"/>
   </g>
   <g id="patch_112">
    <path clip-path="url(#p2408f3325c)" d="M 114.5 74.71875 
L 115.1975 74.71875 
L 115.1975 64.795154 
L 114.5 64.795154 
z
" style="fill:#fc8d59;"/>
   </g>
   <g id="patch_113">
    <path clip-path="url(#p2408f3325c)" d="M 115.1975 74.71875 
L 115.895 74.71875 
L 115.895 59.168188 
L 115.1975 59.168188 
z
" style="fill:#fc8d59;"/>
   </g>
   <g id="patch_114">
    <path clip-path="url(#p2408f3325c)" d="M 115.895 74.71875 
L 116.5925 74.71875 
L 116.5925 54.170435 
L 115.895 54.170435 
z
" style="fill:#fc8d59;"/>
   </g>
   <g id="patch_115">
    <path clip-path="url(#p2408f3325c)" d="M 116.5925 74.71875 
L 117.29 74.71875 
L 117.29 49.154705 
L 116.5925 49.154705 
z
" style="fill:#fc8d59;"/>
   </g>
   <g id="patch_116">
    <path clip-path="url(#p2408f3325c)" d="M 117.29 74.71875 
L 117.9875 74.71875 
L 117.9875 42.610885 
L 117.29 42.610885 
z
" style="fill:#fc8d59;"/>
   </g>
   <g id="patch_117">
    <path clip-path="url(#p2408f3325c)" d="M 117.9875 74.71875 
L 118.685 74.71875 
L 118.685 38.637851 
L 117.9875 38.637851 
z
" style="fill:#fc8d59;"/>
   </g>
   <g id="patch_118">
    <path clip-path="url(#p2408f3325c)" d="M 118.685 74.71875 
L 119.3825 74.71875 
L 119.3825 33.154705 
L 118.685 33.154705 
z
" style="fill:#fc8d59;"/>
   </g>
   <g id="patch_119">
    <path clip-path="url(#p2408f3325c)" d="M 119.3825 74.71875 
L 120.08 74.71875 
L 120.08 29.63111 
L 119.3825 29.63111 
z
" style="fill:#fc8d59;"/>
   </g>
   <g id="patch_120">
    <path clip-path="url(#p2408f3325c)" d="M 120.08 74.71875 
L 120.7775 74.71875 
L 120.7775 25.891784 
L 120.08 25.891784 
z
" style="fill:#fc8d59;"/>
   </g>
   <g id="patch_121">
    <path clip-path="url(#p2408f3325c)" d="M 120.7775 74.71875 
L 121.475 74.71875 
L 121.475 24.651334 
L 120.7775 24.651334 
z
" style="fill:#fc8d59;"/>
   </g>
   <g id="patch_122">
    <path clip-path="url(#p2408f3325c)" d="M 121.475 74.71875 
L 122.1725 74.71875 
L 122.1725 24.273806 
L 121.475 24.273806 
z
" style="fill:#fc8d59;"/>
   </g>
   <g id="patch_123">
    <path clip-path="url(#p2408f3325c)" d="M 122.1725 74.71875 
L 122.87 74.71875 
L 122.87 21.91875 
L 122.1725 21.91875 
z
" style="fill:#fc8d59;"/>
   </g>
   <g id="patch_124">
    <path clip-path="url(#p2408f3325c)" d="M 122.87 74.71875 
L 123.5675 74.71875 
L 123.5675 22.008638 
L 122.87 22.008638 
z
" style="fill:#fc8d59;"/>
   </g>
   <g id="patch_125">
    <path clip-path="url(#p2408f3325c)" d="M 123.5675 74.71875 
L 124.265 74.71875 
L 124.265 22.871559 
L 123.5675 22.871559 
z
" style="fill:#fc8d59;"/>
   </g>
   <g id="patch_126">
    <path clip-path="url(#p2408f3325c)" d="M 124.265 74.71875 
L 124.9625 74.71875 
L 124.9625 24.399649 
L 124.265 24.399649 
z
" style="fill:#fc8d59;"/>
   </g>
   <g id="patch_127">
    <path clip-path="url(#p2408f3325c)" d="M 124.9625 74.71875 
L 125.66 74.71875 
L 125.66 26.089537 
L 124.9625 26.089537 
z
" style="fill:#fc8d59;"/>
   </g>
   <g id="patch_128">
    <path clip-path="url(#p2408f3325c)" d="M 125.66 74.71875 
L 126.3575 74.71875 
L 126.3575 26.844593 
L 125.66 26.844593 
z
" style="fill:#fc8d59;"/>
   </g>
   <g id="patch_129">
    <path clip-path="url(#p2408f3325c)" d="M 126.3575 74.71875 
L 127.055 74.71875 
L 127.055 30.961447 
L 126.3575 30.961447 
z
" style="fill:#fc8d59;"/>
   </g>
   <g id="patch_130">
    <path clip-path="url(#p2408f3325c)" d="M 127.055 74.71875 
L 127.7525 74.71875 
L 127.7525 33.04684 
L 127.055 33.04684 
z
" style="fill:#fc8d59;"/>
   </g>
   <g id="patch_131">
    <path clip-path="url(#p2408f3325c)" d="M 127.7525 74.71875 
L 128.45 74.71875 
L 128.45 35.096278 
L 127.7525 35.096278 
z
" style="fill:#fc8d59;"/>
   </g>
   <g id="patch_132">
    <path clip-path="url(#p2408f3325c)" d="M 128.45 74.71875 
L 129.1475 74.71875 
L 129.1475 39.66257 
L 128.45 39.66257 
z
" style="fill:#fc8d59;"/>
   </g>
   <g id="patch_133">
    <path clip-path="url(#p2408f3325c)" d="M 129.1475 74.71875 
L 129.845 74.71875 
L 129.845 44.228862 
L 129.1475 44.228862 
z
" style="fill:#fc8d59;"/>
   </g>
   <g id="patch_134">
    <path clip-path="url(#p2408f3325c)" d="M 129.845 74.71875 
L 130.5425 74.71875 
L 130.5425 48.813132 
L 129.845 48.813132 
z
" style="fill:#fc8d59;"/>
   </g>
   <g id="patch_135">
    <path clip-path="url(#p2408f3325c)" d="M 130.5425 74.71875 
L 131.24 74.71875 
L 131.24 52.714256 
L 130.5425 52.714256 
z
" style="fill:#fc8d59;"/>
   </g>
   <g id="patch_136">
    <path clip-path="url(#p2408f3325c)" d="M 131.24 74.71875 
L 131.9375 74.71875 
L 131.9375 57.442346 
L 131.24 57.442346 
z
" style="fill:#fc8d59;"/>
   </g>
   <g id="patch_137">
    <path clip-path="url(#p2408f3325c)" d="M 131.9375 74.71875 
L 132.635 74.71875 
L 132.635 60.947963 
L 131.9375 60.947963 
z
" style="fill:#fc8d59;"/>
   </g>
   <g id="patch_138">
    <path clip-path="url(#p2408f3325c)" d="M 132.635 74.71875 
L 133.3325 74.71875 
L 133.3325 63.59066 
L 132.635 63.59066 
z
" style="fill:#fc8d59;"/>
   </g>
   <g id="patch_139">
    <path clip-path="url(#p2408f3325c)" d="M 133.3325 74.71875 
L 134.03 74.71875 
L 134.03 67.114256 
L 133.3325 67.114256 
z
" style="fill:#fc8d59;"/>
   </g>
   <g id="patch_140">
    <path clip-path="url(#p2408f3325c)" d="M 134.03 74.71875 
L 134.7275 74.71875 
L 134.7275 69.163694 
L 134.03 69.163694 
z
" style="fill:#fc8d59;"/>
   </g>
   <g id="patch_141">
    <path clip-path="url(#p2408f3325c)" d="M 134.7275 74.71875 
L 135.425 74.71875 
L 135.425 70.943469 
L 134.7275 70.943469 
z
" style="fill:#fc8d59;"/>
   </g>
   <g id="patch_142">
    <path clip-path="url(#p2408f3325c)" d="M 135.425 74.71875 
L 136.1225 74.71875 
L 136.1225 72.363694 
L 135.425 72.363694 
z
" style="fill:#fc8d59;"/>
   </g>
   <g id="patch_143">
    <path clip-path="url(#p2408f3325c)" d="M 136.1225 74.71875 
L 136.82 74.71875 
L 136.82 73.244593 
L 136.1225 73.244593 
z
" style="fill:#fc8d59;"/>
   </g>
   <g id="patch_144">
    <path clip-path="url(#p2408f3325c)" d="M 136.82 74.71875 
L 137.5175 74.71875 
L 137.5175 74.017626 
L 136.82 74.017626 
z
" style="fill:#fc8d59;"/>
   </g>
   <g id="patch_145">
    <path clip-path="url(#p2408f3325c)" d="M 137.5175 74.71875 
L 138.215 74.71875 
L 138.215 74.520997 
L 137.5175 74.520997 
z
" style="fill:#fc8d59;"/>
   </g>
   <g id="patch_146">
    <path clip-path="url(#p2408f3325c)" d="M 138.215 74.71875 
L 138.9125 74.71875 
L 138.9125 74.71875 
L 138.215 74.71875 
z
" style="fill:#fc8d59;"/>
   </g>
   <g id="patch_147">
    <path clip-path="url(#p2408f3325c)" d="M 138.9125 74.71875 
L 139.61 74.71875 
L 139.61 74.71875 
L 138.9125 74.71875 
z
" style="fill:#fc8d59;"/>
   </g>
   <g id="patch_148">
    <path clip-path="url(#p2408f3325c)" d="M 139.61 74.71875 
L 140.3075 74.71875 
L 140.3075 74.71875 
L 139.61 74.71875 
z
" style="fill:#fc8d59;"/>
   </g>
   <g id="patch_149">
    <path clip-path="url(#p2408f3325c)" d="M 140.3075 74.71875 
L 141.005 74.71875 
L 141.005 74.71875 
L 140.3075 74.71875 
z
" style="fill:#fc8d59;"/>
   </g>
   <g id="patch_150">
    <path clip-path="url(#p2408f3325c)" d="M 141.005 74.71875 
L 141.7025 74.71875 
L 141.7025 74.71875 
L 141.005 74.71875 
z
" style="fill:#fc8d59;"/>
   </g>
   <g id="patch_151">
    <path clip-path="url(#p2408f3325c)" d="M 141.7025 74.71875 
L 142.4 74.71875 
L 142.4 74.71875 
L 141.7025 74.71875 
z
" style="fill:#fc8d59;"/>
   </g>
   <g id="patch_152">
    <path clip-path="url(#p2408f3325c)" d="M 142.4 74.71875 
L 143.0975 74.71875 
L 143.0975 74.71875 
L 142.4 74.71875 
z
" style="fill:#fc8d59;"/>
   </g>
   <g id="patch_153">
    <path clip-path="url(#p2408f3325c)" d="M 143.0975 74.71875 
L 143.795 74.71875 
L 143.795 74.71875 
L 143.0975 74.71875 
z
" style="fill:#fc8d59;"/>
   </g>
   <g id="patch_154">
    <path clip-path="url(#p2408f3325c)" d="M 143.795 74.71875 
L 144.4925 74.71875 
L 144.4925 74.71875 
L 143.795 74.71875 
z
" style="fill:#fc8d59;"/>
   </g>
   <g id="patch_155">
    <path clip-path="url(#p2408f3325c)" d="M 144.4925 74.71875 
L 145.19 74.71875 
L 145.19 74.71875 
L 144.4925 74.71875 
z
" style="fill:#fc8d59;"/>
   </g>
   <g id="patch_156">
    <path clip-path="url(#p2408f3325c)" d="M 145.19 74.71875 
L 145.8875 74.71875 
L 145.8875 74.71875 
L 145.19 74.71875 
z
" style="fill:#fc8d59;"/>
   </g>
   <g id="patch_157">
    <path clip-path="url(#p2408f3325c)" d="M 145.8875 74.71875 
L 146.585 74.71875 
L 146.585 74.71875 
L 145.8875 74.71875 
z
" style="fill:#fc8d59;"/>
   </g>
   <g id="patch_158">
    <path clip-path="url(#p2408f3325c)" d="M 146.585 74.71875 
L 147.2825 74.71875 
L 147.2825 74.71875 
L 146.585 74.71875 
z
" style="fill:#fc8d59;"/>
   </g>
   <g id="patch_159">
    <path clip-path="url(#p2408f3325c)" d="M 147.2825 74.71875 
L 147.98 74.71875 
L 147.98 74.71875 
L 147.2825 74.71875 
z
" style="fill:#fc8d59;"/>
   </g>
   <g id="patch_160">
    <path clip-path="url(#p2408f3325c)" d="M 147.98 74.71875 
L 148.6775 74.71875 
L 148.6775 74.71875 
L 147.98 74.71875 
z
" style="fill:#fc8d59;"/>
   </g>
   <g id="patch_161">
    <path clip-path="url(#p2408f3325c)" d="M 148.6775 74.71875 
L 149.375 74.71875 
L 149.375 74.71875 
L 148.6775 74.71875 
z
" style="fill:#fc8d59;"/>
   </g>
   <g id="patch_162">
    <path clip-path="url(#p2408f3325c)" d="M 149.375 74.71875 
L 150.0725 74.71875 
L 150.0725 74.71875 
L 149.375 74.71875 
z
" style="fill:#fc8d59;"/>
   </g>
   <g id="patch_163">
    <path clip-path="url(#p2408f3325c)" d="M 150.0725 74.71875 
L 150.77 74.71875 
L 150.77 74.71875 
L 150.0725 74.71875 
z
" style="fill:#fc8d59;"/>
   </g>
   <g id="patch_164">
    <path clip-path="url(#p2408f3325c)" d="M 150.77 74.71875 
L 151.4675 74.71875 
L 151.4675 74.71875 
L 150.77 74.71875 
z
" style="fill:#fc8d59;"/>
   </g>
   <g id="patch_165">
    <path clip-path="url(#p2408f3325c)" d="M 151.4675 74.71875 
L 152.165 74.71875 
L 152.165 74.71875 
L 151.4675 74.71875 
z
" style="fill:#fc8d59;"/>
   </g>
   <g id="patch_166">
    <path clip-path="url(#p2408f3325c)" d="M 152.165 74.71875 
L 152.8625 74.71875 
L 152.8625 74.71875 
L 152.165 74.71875 
z
" style="fill:#fc8d59;"/>
   </g>
   <g id="patch_167">
    <path clip-path="url(#p2408f3325c)" d="M 152.8625 74.71875 
L 153.56 74.71875 
L 153.56 74.71875 
L 152.8625 74.71875 
z
" style="fill:#fc8d59;"/>
   </g>
   <g id="patch_168">
    <path clip-path="url(#p2408f3325c)" d="M 153.56 74.71875 
L 154.2575 74.71875 
L 154.2575 74.71875 
L 153.56 74.71875 
z
" style="fill:#fc8d59;"/>
   </g>
   <g id="patch_169">
    <path clip-path="url(#p2408f3325c)" d="M 154.2575 74.71875 
L 154.955 74.71875 
L 154.955 74.71875 
L 154.2575 74.71875 
z
" style="fill:#fc8d59;"/>
   </g>
   <g id="patch_170">
    <path clip-path="url(#p2408f3325c)" d="M 154.955 74.71875 
L 155.6525 74.71875 
L 155.6525 74.71875 
L 154.955 74.71875 
z
" style="fill:#fc8d59;"/>
   </g>
   <g id="patch_171">
    <path clip-path="url(#p2408f3325c)" d="M 155.6525 74.71875 
L 156.35 74.71875 
L 156.35 74.71875 
L 155.6525 74.71875 
z
" style="fill:#fc8d59;"/>
   </g>
   <g id="patch_172">
    <path clip-path="url(#p2408f3325c)" d="M 156.35 74.71875 
L 157.0475 74.71875 
L 157.0475 74.71875 
L 156.35 74.71875 
z
" style="fill:#fc8d59;"/>
   </g>
   <g id="patch_173">
    <path clip-path="url(#p2408f3325c)" d="M 157.0475 74.71875 
L 157.745 74.71875 
L 157.745 74.71875 
L 157.0475 74.71875 
z
" style="fill:#fc8d59;"/>
   </g>
   <g id="patch_174">
    <path clip-path="url(#p2408f3325c)" d="M 157.745 74.71875 
L 158.4425 74.71875 
L 158.4425 74.71875 
L 157.745 74.71875 
z
" style="fill:#fc8d59;"/>
   </g>
   <g id="patch_175">
    <path clip-path="url(#p2408f3325c)" d="M 158.4425 74.71875 
L 159.14 74.71875 
L 159.14 74.71875 
L 158.4425 74.71875 
z
" style="fill:#fc8d59;"/>
   </g>
   <g id="patch_176">
    <path clip-path="url(#p2408f3325c)" d="M 159.14 74.71875 
L 159.8375 74.71875 
L 159.8375 74.71875 
L 159.14 74.71875 
z
" style="fill:#fc8d59;"/>
   </g>
   <g id="patch_177">
    <path clip-path="url(#p2408f3325c)" d="M 159.8375 74.71875 
L 160.535 74.71875 
L 160.535 74.71875 
L 159.8375 74.71875 
z
" style="fill:#fc8d59;"/>
   </g>
   <g id="patch_178">
    <path clip-path="url(#p2408f3325c)" d="M 160.535 74.71875 
L 161.2325 74.71875 
L 161.2325 74.71875 
L 160.535 74.71875 
z
" style="fill:#fc8d59;"/>
   </g>
   <g id="patch_179">
    <path clip-path="url(#p2408f3325c)" d="M 161.2325 74.71875 
L 161.93 74.71875 
L 161.93 74.71875 
L 161.2325 74.71875 
z
" style="fill:#fc8d59;"/>
   </g>
   <g id="patch_180">
    <path clip-path="url(#p2408f3325c)" d="M 161.93 74.71875 
L 162.6275 74.71875 
L 162.6275 74.71875 
L 161.93 74.71875 
z
" style="fill:#fc8d59;"/>
   </g>
   <g id="patch_181">
    <path clip-path="url(#p2408f3325c)" d="M 162.6275 74.71875 
L 163.325 74.71875 
L 163.325 74.71875 
L 162.6275 74.71875 
z
" style="fill:#fc8d59;"/>
   </g>
   <g id="patch_182">
    <path clip-path="url(#p2408f3325c)" d="M 163.325 74.71875 
L 164.0225 74.71875 
L 164.0225 74.71875 
L 163.325 74.71875 
z
" style="fill:#fc8d59;"/>
   </g>
   <g id="patch_183">
    <path clip-path="url(#p2408f3325c)" d="M 164.0225 74.71875 
L 164.72 74.71875 
L 164.72 74.71875 
L 164.0225 74.71875 
z
" style="fill:#fc8d59;"/>
   </g>
   <g id="patch_184">
    <path clip-path="url(#p2408f3325c)" d="M 164.72 74.71875 
L 165.4175 74.71875 
L 165.4175 74.71875 
L 164.72 74.71875 
z
" style="fill:#fc8d59;"/>
   </g>
   <g id="patch_185">
    <path clip-path="url(#p2408f3325c)" d="M 165.4175 74.71875 
L 166.115 74.71875 
L 166.115 74.71875 
L 165.4175 74.71875 
z
" style="fill:#fc8d59;"/>
   </g>
   <g id="patch_186">
    <path clip-path="url(#p2408f3325c)" d="M 166.115 74.71875 
L 166.8125 74.71875 
L 166.8125 74.71875 
L 166.115 74.71875 
z
" style="fill:#fc8d59;"/>
   </g>
   <g id="patch_187">
    <path clip-path="url(#p2408f3325c)" d="M 166.8125 74.71875 
L 167.51 74.71875 
L 167.51 74.71875 
L 166.8125 74.71875 
z
" style="fill:#fc8d59;"/>
   </g>
   <g id="patch_188">
    <path clip-path="url(#p2408f3325c)" d="M 167.51 74.71875 
L 168.2075 74.71875 
L 168.2075 74.71875 
L 167.51 74.71875 
z
" style="fill:#fc8d59;"/>
   </g>
   <g id="patch_189">
    <path clip-path="url(#p2408f3325c)" d="M 168.2075 74.71875 
L 168.905 74.71875 
L 168.905 74.71875 
L 168.2075 74.71875 
z
" style="fill:#fc8d59;"/>
   </g>
   <g id="patch_190">
    <path clip-path="url(#p2408f3325c)" d="M 168.905 74.71875 
L 169.6025 74.71875 
L 169.6025 74.71875 
L 168.905 74.71875 
z
" style="fill:#fc8d59;"/>
   </g>
   <g id="patch_191">
    <path clip-path="url(#p2408f3325c)" d="M 169.6025 74.71875 
L 170.3 74.71875 
L 170.3 74.71875 
L 169.6025 74.71875 
z
" style="fill:#fc8d59;"/>
   </g>
   <g id="patch_192">
    <path clip-path="url(#p2408f3325c)" d="M 170.3 74.71875 
L 170.9975 74.71875 
L 170.9975 74.71875 
L 170.3 74.71875 
z
" style="fill:#fc8d59;"/>
   </g>
   <g id="patch_193">
    <path clip-path="url(#p2408f3325c)" d="M 170.9975 74.71875 
L 171.695 74.71875 
L 171.695 74.71875 
L 170.9975 74.71875 
z
" style="fill:#fc8d59;"/>
   </g>
   <g id="patch_194">
    <path clip-path="url(#p2408f3325c)" d="M 171.695 74.71875 
L 172.3925 74.71875 
L 172.3925 74.71875 
L 171.695 74.71875 
z
" style="fill:#fc8d59;"/>
   </g>
   <g id="patch_195">
    <path clip-path="url(#p2408f3325c)" d="M 172.3925 74.71875 
L 173.09 74.71875 
L 173.09 74.71875 
L 172.3925 74.71875 
z
" style="fill:#fc8d59;"/>
   </g>
   <g id="patch_196">
    <path clip-path="url(#p2408f3325c)" d="M 173.09 74.71875 
L 173.7875 74.71875 
L 173.7875 74.71875 
L 173.09 74.71875 
z
" style="fill:#fc8d59;"/>
   </g>
   <g id="patch_197">
    <path clip-path="url(#p2408f3325c)" d="M 173.7875 74.71875 
L 174.485 74.71875 
L 174.485 74.71875 
L 173.7875 74.71875 
z
" style="fill:#fc8d59;"/>
   </g>
   <g id="patch_198">
    <path clip-path="url(#p2408f3325c)" d="M 174.485 74.71875 
L 175.1825 74.71875 
L 175.1825 74.71875 
L 174.485 74.71875 
z
" style="fill:#fc8d59;"/>
   </g>
   <g id="patch_199">
    <path clip-path="url(#p2408f3325c)" d="M 175.1825 74.71875 
L 175.88 74.71875 
L 175.88 74.71875 
L 175.1825 74.71875 
z
" style="fill:#fc8d59;"/>
   </g>
   <g id="patch_200">
    <path clip-path="url(#p2408f3325c)" d="M 175.88 74.71875 
L 176.5775 74.71875 
L 176.5775 74.71875 
L 175.88 74.71875 
z
" style="fill:#fc8d59;"/>
   </g>
   <g id="patch_201">
    <path clip-path="url(#p2408f3325c)" d="M 176.5775 74.71875 
L 177.275 74.71875 
L 177.275 74.71875 
L 176.5775 74.71875 
z
" style="fill:#fc8d59;"/>
   </g>
   <g id="patch_202">
    <path clip-path="url(#p2408f3325c)" d="M 177.275 74.71875 
L 177.9725 74.71875 
L 177.9725 74.71875 
L 177.275 74.71875 
z
" style="fill:#fc8d59;"/>
   </g>
   <g id="patch_203">
    <path clip-path="url(#p2408f3325c)" d="M 177.9725 74.71875 
L 178.67 74.71875 
L 178.67 74.71875 
L 177.9725 74.71875 
z
" style="fill:#fc8d59;"/>
   </g>
   <g id="patch_204">
    <path clip-path="url(#p2408f3325c)" d="M 178.67 74.71875 
L 179.3675 74.71875 
L 179.3675 74.71875 
L 178.67 74.71875 
z
" style="fill:#fc8d59;"/>
   </g>
   <g id="matplotlib.axis_3">
    <g id="xtick_3">
     <g id="line2d_3">
      <g>
       <use style="stroke:#000000;stroke-width:1.5;" x="109.6175" xlink:href="#mf386e009bc" y="74.71875"/>
      </g>
     </g>
     <g id="text_6">
      <text style="font-family:DejaVu Sans;font-size:8px;font-stretch:normal;font-style:normal;font-weight:normal;text-anchor:middle;" transform="rotate(-0, 109.6175, 87.7975)" x="109.6175" y="87.7975">0</text>
     </g>
    </g>
    <g id="xtick_4">
     <g id="line2d_4">
      <g>
       <use style="stroke:#000000;stroke-width:1.5;" x="179.3675" xlink:href="#mf386e009bc" y="74.71875"/>
      </g>
     </g>
     <g id="text_7">
      <text style="font-family:DejaVu Sans;font-size:8px;font-stretch:normal;font-style:normal;font-weight:normal;text-anchor:middle;" transform="rotate(-0, 179.3675, 87.7975)" x="179.3675" y="87.7975">6</text>
     </g>
    </g>
    <g id="text_8">
     <!-- E/spike ($\mu$J) -->
     <g transform="translate(121.9725 99.54125)">
      <text>
       <tspan style="font-family:DejaVu Sans;font-size:8px;font-style:book;font-weight:book;" x="0 5.054688 7.75 11.917969 16.996094 19.21875 23.851562 28.773438 31.316406 34.4375 39.527344 41.886719" y="-0.921875">E/spike (μJ)</tspan>
      </text>
     </g>
    </g>
   </g>
   <g id="matplotlib.axis_4"/>
   <g id="patch_205">
    <path d="M 109.6175 74.71875 
L 179.3675 74.71875 
" style="fill:none;stroke:#000000;stroke-linecap:square;stroke-linejoin:miter;stroke-width:1.5;"/>
   </g>
   <g id="text_9">
    <text style="font-family:DejaVu Sans;font-size:8px;font-stretch:normal;font-style:normal;font-weight:normal;text-anchor:middle;" transform="rotate(-0, 144.4925, 13.27875)" x="144.4925" y="13.27875">LP</text>
   </g>
  </g>
  <g id="axes_3">
   <g id="patch_206">
    <path d="M 200.2925 74.71875 
L 270.0425 74.71875 
L 270.0425 19.27875 
L 200.2925 19.27875 
z
" style="fill:none;"/>
   </g>
   <g id="patch_207">
    <path clip-path="url(#pb73671df93)" d="M 200.2925 74.71875 
L 200.99 74.71875 
L 200.99 74.71875 
L 200.2925 74.71875 
z
" style="fill:#2ca25f;"/>
   </g>
   <g id="patch_208">
    <path clip-path="url(#pb73671df93)" d="M 200.99 74.71875 
L 201.6875 74.71875 
L 201.6875 74.71875 
L 200.99 74.71875 
z
" style="fill:#2ca25f;"/>
   </g>
   <g id="patch_209">
    <path clip-path="url(#pb73671df93)" d="M 201.6875 74.71875 
L 202.385 74.71875 
L 202.385 74.71875 
L 201.6875 74.71875 
z
" style="fill:#2ca25f;"/>
   </g>
   <g id="patch_210">
    <path clip-path="url(#pb73671df93)" d="M 202.385 74.71875 
L 203.0825 74.71875 
L 203.0825 74.71875 
L 202.385 74.71875 
z
" style="fill:#2ca25f;"/>
   </g>
   <g id="patch_211">
    <path clip-path="url(#pb73671df93)" d="M 203.0825 74.71875 
L 203.78 74.71875 
L 203.78 74.71875 
L 203.0825 74.71875 
z
" style="fill:#2ca25f;"/>
   </g>
   <g id="patch_212">
    <path clip-path="url(#pb73671df93)" d="M 203.78 74.71875 
L 204.4775 74.71875 
L 204.4775 74.600805 
L 203.78 74.600805 
z
" style="fill:#2ca25f;"/>
   </g>
   <g id="patch_213">
    <path clip-path="url(#pb73671df93)" d="M 204.4775 74.71875 
L 205.175 74.71875 
L 205.175 74.24697 
L 204.4775 74.24697 
z
" style="fill:#2ca25f;"/>
   </g>
   <g id="patch_214">
    <path clip-path="url(#pb73671df93)" d="M 205.175 74.71875 
L 205.8725 74.71875 
L 205.8725 73.696561 
L 205.175 73.696561 
z
" style="fill:#2ca25f;"/>
   </g>
   <g id="patch_215">
    <path clip-path="url(#pb73671df93)" d="M 205.8725 74.71875 
L 206.57 74.71875 
L 206.57 73.146151 
L 205.8725 73.146151 
z
" style="fill:#2ca25f;"/>
   </g>
   <g id="patch_216">
    <path clip-path="url(#pb73671df93)" d="M 206.57 74.71875 
L 207.2675 74.71875 
L 207.2675 72.123962 
L 206.57 72.123962 
z
" style="fill:#2ca25f;"/>
   </g>
   <g id="patch_217">
    <path clip-path="url(#pb73671df93)" d="M 207.2675 74.71875 
L 207.965 74.71875 
L 207.965 71.534238 
L 207.2675 71.534238 
z
" style="fill:#2ca25f;"/>
   </g>
   <g id="patch_218">
    <path clip-path="url(#pb73671df93)" d="M 207.965 74.71875 
L 208.6625 74.71875 
L 208.6625 69.922324 
L 207.965 69.922324 
z
" style="fill:#2ca25f;"/>
   </g>
   <g id="patch_219">
    <path clip-path="url(#pb73671df93)" d="M 208.6625 74.71875 
L 209.36 74.71875 
L 209.36 68.93945 
L 208.6625 68.93945 
z
" style="fill:#2ca25f;"/>
   </g>
   <g id="patch_220">
    <path clip-path="url(#pb73671df93)" d="M 209.36 74.71875 
L 210.0575 74.71875 
L 210.0575 68.506985 
L 209.36 68.506985 
z
" style="fill:#2ca25f;"/>
   </g>
   <g id="patch_221">
    <path clip-path="url(#pb73671df93)" d="M 210.0575 74.71875 
L 210.755 74.71875 
L 210.755 67.838631 
L 210.0575 67.838631 
z
" style="fill:#2ca25f;"/>
   </g>
   <g id="patch_222">
    <path clip-path="url(#pb73671df93)" d="M 210.755 74.71875 
L 211.4525 74.71875 
L 211.4525 64.536174 
L 210.755 64.536174 
z
" style="fill:#2ca25f;"/>
   </g>
   <g id="patch_223">
    <path clip-path="url(#pb73671df93)" d="M 211.4525 74.71875 
L 212.15 74.71875 
L 212.15 65.007953 
L 211.4525 65.007953 
z
" style="fill:#2ca25f;"/>
   </g>
   <g id="patch_224">
    <path clip-path="url(#pb73671df93)" d="M 212.15 74.71875 
L 212.8475 74.71875 
L 212.8475 63.985764 
L 212.15 63.985764 
z
" style="fill:#2ca25f;"/>
   </g>
   <g id="patch_225">
    <path clip-path="url(#pb73671df93)" d="M 212.8475 74.71875 
L 213.545 74.71875 
L 213.545 62.255906 
L 212.8475 62.255906 
z
" style="fill:#2ca25f;"/>
   </g>
   <g id="patch_226">
    <path clip-path="url(#pb73671df93)" d="M 213.545 74.71875 
L 214.2425 74.71875 
L 214.2425 60.408102 
L 213.545 60.408102 
z
" style="fill:#2ca25f;"/>
   </g>
   <g id="patch_227">
    <path clip-path="url(#pb73671df93)" d="M 214.2425 74.71875 
L 214.94 74.71875 
L 214.94 58.874819 
L 214.2425 58.874819 
z
" style="fill:#2ca25f;"/>
   </g>
   <g id="patch_228">
    <path clip-path="url(#pb73671df93)" d="M 214.94 74.71875 
L 215.6375 74.71875 
L 215.6375 60.054267 
L 214.94 60.054267 
z
" style="fill:#2ca25f;"/>
   </g>
   <g id="patch_229">
    <path clip-path="url(#pb73671df93)" d="M 215.6375 74.71875 
L 216.335 74.71875 
L 216.335 55.257842 
L 215.6375 55.257842 
z
" style="fill:#2ca25f;"/>
   </g>
   <g id="patch_230">
    <path clip-path="url(#pb73671df93)" d="M 216.335 74.71875 
L 217.0325 74.71875 
L 217.0325 55.808251 
L 216.335 55.808251 
z
" style="fill:#2ca25f;"/>
   </g>
   <g id="patch_231">
    <path clip-path="url(#pb73671df93)" d="M 217.0325 74.71875 
L 217.73 74.71875 
L 217.73 54.392912 
L 217.0325 54.392912 
z
" style="fill:#2ca25f;"/>
   </g>
   <g id="patch_232">
    <path clip-path="url(#pb73671df93)" d="M 217.73 74.71875 
L 218.4275 74.71875 
L 218.4275 52.702369 
L 217.73 52.702369 
z
" style="fill:#2ca25f;"/>
   </g>
   <g id="patch_233">
    <path clip-path="url(#pb73671df93)" d="M 218.4275 74.71875 
L 219.125 74.71875 
L 219.125 49.281967 
L 218.4275 49.281967 
z
" style="fill:#2ca25f;"/>
   </g>
   <g id="patch_234">
    <path clip-path="url(#pb73671df93)" d="M 219.125 74.71875 
L 219.8225 74.71875 
L 219.8225 47.748683 
L 219.125 47.748683 
z
" style="fill:#2ca25f;"/>
   </g>
   <g id="patch_235">
    <path clip-path="url(#pb73671df93)" d="M 219.8225 74.71875 
L 220.52 74.71875 
L 220.52 47.905943 
L 219.8225 47.905943 
z
" style="fill:#2ca25f;"/>
   </g>
   <g id="patch_236">
    <path clip-path="url(#pb73671df93)" d="M 220.52 74.71875 
L 221.2175 74.71875 
L 221.2175 45.782935 
L 220.52 45.782935 
z
" style="fill:#2ca25f;"/>
   </g>
   <g id="patch_237">
    <path clip-path="url(#pb73671df93)" d="M 221.2175 74.71875 
L 221.915 74.71875 
L 221.915 44.95732 
L 221.2175 44.95732 
z
" style="fill:#2ca25f;"/>
   </g>
   <g id="patch_238">
    <path clip-path="url(#pb73671df93)" d="M 221.915 74.71875 
L 222.6125 74.71875 
L 222.6125 41.969383 
L 221.915 41.969383 
z
" style="fill:#2ca25f;"/>
   </g>
   <g id="patch_239">
    <path clip-path="url(#pb73671df93)" d="M 222.6125 74.71875 
L 223.31 74.71875 
L 223.31 40.711304 
L 222.6125 40.711304 
z
" style="fill:#2ca25f;"/>
   </g>
   <g id="patch_240">
    <path clip-path="url(#pb73671df93)" d="M 223.31 74.71875 
L 224.0075 74.71875 
L 224.0075 40.357469 
L 223.31 40.357469 
z
" style="fill:#2ca25f;"/>
   </g>
   <g id="patch_241">
    <path clip-path="url(#pb73671df93)" d="M 224.0075 74.71875 
L 224.705 74.71875 
L 224.705 38.94213 
L 224.0075 38.94213 
z
" style="fill:#2ca25f;"/>
   </g>
   <g id="patch_242">
    <path clip-path="url(#pb73671df93)" d="M 224.705 74.71875 
L 225.4025 74.71875 
L 225.4025 38.863501 
L 224.705 38.863501 
z
" style="fill:#2ca25f;"/>
   </g>
   <g id="patch_243">
    <path clip-path="url(#pb73671df93)" d="M 225.4025 74.71875 
L 226.1 74.71875 
L 226.1 36.465288 
L 225.4025 36.465288 
z
" style="fill:#2ca25f;"/>
   </g>
   <g id="patch_244">
    <path clip-path="url(#pb73671df93)" d="M 226.1 74.71875 
L 226.7975 74.71875 
L 226.7975 34.696114 
L 226.1 34.696114 
z
" style="fill:#2ca25f;"/>
   </g>
   <g id="patch_245">
    <path clip-path="url(#pb73671df93)" d="M 226.7975 74.71875 
L 227.495 74.71875 
L 227.495 33.438035 
L 226.7975 33.438035 
z
" style="fill:#2ca25f;"/>
   </g>
   <g id="patch_246">
    <path clip-path="url(#pb73671df93)" d="M 227.495 74.71875 
L 228.1925 74.71875 
L 228.1925 34.420909 
L 227.495 34.420909 
z
" style="fill:#2ca25f;"/>
   </g>
   <g id="patch_247">
    <path clip-path="url(#pb73671df93)" d="M 228.1925 74.71875 
L 228.89 74.71875 
L 228.89 33.752555 
L 228.1925 33.752555 
z
" style="fill:#2ca25f;"/>
   </g>
   <g id="patch_248">
    <path clip-path="url(#pb73671df93)" d="M 228.89 74.71875 
L 229.5875 74.71875 
L 229.5875 29.349279 
L 228.89 29.349279 
z
" style="fill:#2ca25f;"/>
   </g>
   <g id="patch_249">
    <path clip-path="url(#pb73671df93)" d="M 229.5875 74.71875 
L 230.285 74.71875 
L 230.285 30.568043 
L 229.5875 30.568043 
z
" style="fill:#2ca25f;"/>
   </g>
   <g id="patch_250">
    <path clip-path="url(#pb73671df93)" d="M 230.285 74.71875 
L 230.9825 74.71875 
L 230.9825 30.568043 
L 230.285 30.568043 
z
" style="fill:#2ca25f;"/>
   </g>
   <g id="patch_251">
    <path clip-path="url(#pb73671df93)" d="M 230.9825 74.71875 
L 231.68 74.71875 
L 231.68 28.0912 
L 230.9825 28.0912 
z
" style="fill:#2ca25f;"/>
   </g>
   <g id="patch_252">
    <path clip-path="url(#pb73671df93)" d="M 231.68 74.71875 
L 232.3775 74.71875 
L 232.3775 28.01257 
L 231.68 28.01257 
z
" style="fill:#2ca25f;"/>
   </g>
   <g id="patch_253">
    <path clip-path="url(#pb73671df93)" d="M 232.3775 74.71875 
L 233.075 74.71875 
L 233.075 29.231334 
L 232.3775 29.231334 
z
" style="fill:#2ca25f;"/>
   </g>
   <g id="patch_254">
    <path clip-path="url(#pb73671df93)" d="M 233.075 74.71875 
L 233.7725 74.71875 
L 233.7725 27.85531 
L 233.075 27.85531 
z
" style="fill:#2ca25f;"/>
   </g>
   <g id="patch_255">
    <path clip-path="url(#pb73671df93)" d="M 233.7725 74.71875 
L 234.47 74.71875 
L 234.47 28.720239 
L 233.7725 28.720239 
z
" style="fill:#2ca25f;"/>
   </g>
   <g id="patch_256">
    <path clip-path="url(#pb73671df93)" d="M 234.47 74.71875 
L 235.1675 74.71875 
L 235.1675 24.985317 
L 234.47 24.985317 
z
" style="fill:#2ca25f;"/>
   </g>
   <g id="patch_257">
    <path clip-path="url(#pb73671df93)" d="M 235.1675 74.71875 
L 235.865 74.71875 
L 235.865 27.815995 
L 235.1675 27.815995 
z
" style="fill:#2ca25f;"/>
   </g>
   <g id="patch_258">
    <path clip-path="url(#pb73671df93)" d="M 235.865 74.71875 
L 236.5625 74.71875 
L 236.5625 27.54079 
L 235.865 27.54079 
z
" style="fill:#2ca25f;"/>
   </g>
   <g id="patch_259">
    <path clip-path="url(#pb73671df93)" d="M 236.5625 74.71875 
L 237.26 74.71875 
L 237.26 24.002443 
L 236.5625 24.002443 
z
" style="fill:#2ca25f;"/>
   </g>
   <g id="patch_260">
    <path clip-path="url(#pb73671df93)" d="M 237.26 74.71875 
L 237.9575 74.71875 
L 237.9575 24.120388 
L 237.26 24.120388 
z
" style="fill:#2ca25f;"/>
   </g>
   <g id="patch_261">
    <path clip-path="url(#pb73671df93)" d="M 237.9575 74.71875 
L 238.655 74.71875 
L 238.655 25.535727 
L 237.9575 25.535727 
z
" style="fill:#2ca25f;"/>
   </g>
   <g id="patch_262">
    <path clip-path="url(#pb73671df93)" d="M 238.655 74.71875 
L 239.3525 74.71875 
L 239.3525 26.204081 
L 238.655 26.204081 
z
" style="fill:#2ca25f;"/>
   </g>
   <g id="patch_263">
    <path clip-path="url(#pb73671df93)" d="M 239.3525 74.71875 
L 240.05 74.71875 
L 240.05 24.552853 
L 239.3525 24.552853 
z
" style="fill:#2ca25f;"/>
   </g>
   <g id="patch_264">
    <path clip-path="url(#pb73671df93)" d="M 240.05 74.71875 
L 240.7475 74.71875 
L 240.7475 25.968192 
L 240.05 25.968192 
z
" style="fill:#2ca25f;"/>
   </g>
   <g id="patch_265">
    <path clip-path="url(#pb73671df93)" d="M 240.7475 74.71875 
L 241.445 74.71875 
L 241.445 22.940939 
L 240.7475 22.940939 
z
" style="fill:#2ca25f;"/>
   </g>
   <g id="patch_266">
    <path clip-path="url(#pb73671df93)" d="M 241.445 74.71875 
L 242.1425 74.71875 
L 242.1425 21.91875 
L 241.445 21.91875 
z
" style="fill:#2ca25f;"/>
   </g>
   <g id="patch_267">
    <path clip-path="url(#pb73671df93)" d="M 242.1425 74.71875 
L 242.84 74.71875 
L 242.84 25.496412 
L 242.1425 25.496412 
z
" style="fill:#2ca25f;"/>
   </g>
   <g id="patch_268">
    <path clip-path="url(#pb73671df93)" d="M 242.84 74.71875 
L 243.5375 74.71875 
L 243.5375 25.457097 
L 242.84 25.457097 
z
" style="fill:#2ca25f;"/>
   </g>
   <g id="patch_269">
    <path clip-path="url(#pb73671df93)" d="M 243.5375 74.71875 
L 244.235 74.71875 
L 244.235 28.16983 
L 243.5375 28.16983 
z
" style="fill:#2ca25f;"/>
   </g>
   <g id="patch_270">
    <path clip-path="url(#pb73671df93)" d="M 244.235 74.71875 
L 244.9325 74.71875 
L 244.9325 27.265585 
L 244.235 27.265585 
z
" style="fill:#2ca25f;"/>
   </g>
   <g id="patch_271">
    <path clip-path="url(#pb73671df93)" d="M 244.9325 74.71875 
L 245.63 74.71875 
L 245.63 32.337216 
L 244.9325 32.337216 
z
" style="fill:#2ca25f;"/>
   </g>
   <g id="patch_272">
    <path clip-path="url(#pb73671df93)" d="M 245.63 74.71875 
L 246.3275 74.71875 
L 246.3275 33.24146 
L 245.63 33.24146 
z
" style="fill:#2ca25f;"/>
   </g>
   <g id="patch_273">
    <path clip-path="url(#pb73671df93)" d="M 246.3275 74.71875 
L 247.025 74.71875 
L 247.025 35.403784 
L 246.3275 35.403784 
z
" style="fill:#2ca25f;"/>
   </g>
   <g id="patch_274">
    <path clip-path="url(#pb73671df93)" d="M 247.025 74.71875 
L 247.7225 74.71875 
L 247.7225 39.72843 
L 247.025 39.72843 
z
" style="fill:#2ca25f;"/>
   </g>
   <g id="patch_275">
    <path clip-path="url(#pb73671df93)" d="M 247.7225 74.71875 
L 248.42 74.71875 
L 248.42 41.654863 
L 247.7225 41.654863 
z
" style="fill:#2ca25f;"/>
   </g>
   <g id="patch_276">
    <path clip-path="url(#pb73671df93)" d="M 248.42 74.71875 
L 249.1175 74.71875 
L 249.1175 46.176084 
L 248.42 46.176084 
z
" style="fill:#2ca25f;"/>
   </g>
   <g id="patch_277">
    <path clip-path="url(#pb73671df93)" d="M 249.1175 74.71875 
L 249.815 74.71875 
L 249.815 51.60155 
L 249.1175 51.60155 
z
" style="fill:#2ca25f;"/>
   </g>
   <g id="patch_278">
    <path clip-path="url(#pb73671df93)" d="M 249.815 74.71875 
L 250.5125 74.71875 
L 250.5125 53.410038 
L 249.815 53.410038 
z
" style="fill:#2ca25f;"/>
   </g>
   <g id="patch_279">
    <path clip-path="url(#pb73671df93)" d="M 250.5125 74.71875 
L 251.21 74.71875 
L 251.21 56.67318 
L 250.5125 56.67318 
z
" style="fill:#2ca25f;"/>
   </g>
   <g id="patch_280">
    <path clip-path="url(#pb73671df93)" d="M 251.21 74.71875 
L 251.9075 74.71875 
L 251.9075 59.857693 
L 251.21 59.857693 
z
" style="fill:#2ca25f;"/>
   </g>
   <g id="patch_281">
    <path clip-path="url(#pb73671df93)" d="M 251.9075 74.71875 
L 252.605 74.71875 
L 252.605 61.902071 
L 251.9075 61.902071 
z
" style="fill:#2ca25f;"/>
   </g>
   <g id="patch_282">
    <path clip-path="url(#pb73671df93)" d="M 252.605 74.71875 
L 253.3025 74.71875 
L 253.3025 65.361788 
L 252.605 65.361788 
z
" style="fill:#2ca25f;"/>
   </g>
   <g id="patch_283">
    <path clip-path="url(#pb73671df93)" d="M 253.3025 74.71875 
L 254 74.71875 
L 254 67.209591 
L 253.3025 67.209591 
z
" style="fill:#2ca25f;"/>
   </g>
   <g id="patch_284">
    <path clip-path="url(#pb73671df93)" d="M 254 74.71875 
L 254.6975 74.71875 
L 254.6975 68.506985 
L 254 68.506985 
z
" style="fill:#2ca25f;"/>
   </g>
   <g id="patch_285">
    <path clip-path="url(#pb73671df93)" d="M 254.6975 74.71875 
L 255.395 74.71875 
L 255.395 69.883009 
L 254.6975 69.883009 
z
" style="fill:#2ca25f;"/>
   </g>
   <g id="patch_286">
    <path clip-path="url(#pb73671df93)" d="M 255.395 74.71875 
L 256.0925 74.71875 
L 256.0925 71.848757 
L 255.395 71.848757 
z
" style="fill:#2ca25f;"/>
   </g>
   <g id="patch_287">
    <path clip-path="url(#pb73671df93)" d="M 256.0925 74.71875 
L 256.79 74.71875 
L 256.79 72.674372 
L 256.0925 72.674372 
z
" style="fill:#2ca25f;"/>
   </g>
   <g id="patch_288">
    <path clip-path="url(#pb73671df93)" d="M 256.79 74.71875 
L 257.4875 74.71875 
L 257.4875 72.910262 
L 256.79 72.910262 
z
" style="fill:#2ca25f;"/>
   </g>
   <g id="patch_289">
    <path clip-path="url(#pb73671df93)" d="M 257.4875 74.71875 
L 258.185 74.71875 
L 258.185 73.735876 
L 257.4875 73.735876 
z
" style="fill:#2ca25f;"/>
   </g>
   <g id="patch_290">
    <path clip-path="url(#pb73671df93)" d="M 258.185 74.71875 
L 258.8825 74.71875 
L 258.8825 73.971766 
L 258.185 73.971766 
z
" style="fill:#2ca25f;"/>
   </g>
   <g id="patch_291">
    <path clip-path="url(#pb73671df93)" d="M 258.8825 74.71875 
L 259.58 74.71875 
L 259.58 74.207655 
L 258.8825 74.207655 
z
" style="fill:#2ca25f;"/>
   </g>
   <g id="patch_292">
    <path clip-path="url(#pb73671df93)" d="M 259.58 74.71875 
L 260.2775 74.71875 
L 260.2775 74.56149 
L 259.58 74.56149 
z
" style="fill:#2ca25f;"/>
   </g>
   <g id="patch_293">
    <path clip-path="url(#pb73671df93)" d="M 260.2775 74.71875 
L 260.975 74.71875 
L 260.975 74.64012 
L 260.2775 74.64012 
z
" style="fill:#2ca25f;"/>
   </g>
   <g id="patch_294">
    <path clip-path="url(#pb73671df93)" d="M 260.975 74.71875 
L 261.6725 74.71875 
L 261.6725 74.64012 
L 260.975 74.64012 
z
" style="fill:#2ca25f;"/>
   </g>
   <g id="patch_295">
    <path clip-path="url(#pb73671df93)" d="M 261.6725 74.71875 
L 262.37 74.71875 
L 262.37 74.71875 
L 261.6725 74.71875 
z
" style="fill:#2ca25f;"/>
   </g>
   <g id="patch_296">
    <path clip-path="url(#pb73671df93)" d="M 262.37 74.71875 
L 263.0675 74.71875 
L 263.0675 74.71875 
L 262.37 74.71875 
z
" style="fill:#2ca25f;"/>
   </g>
   <g id="patch_297">
    <path clip-path="url(#pb73671df93)" d="M 263.0675 74.71875 
L 263.765 74.71875 
L 263.765 74.71875 
L 263.0675 74.71875 
z
" style="fill:#2ca25f;"/>
   </g>
   <g id="patch_298">
    <path clip-path="url(#pb73671df93)" d="M 263.765 74.71875 
L 264.4625 74.71875 
L 264.4625 74.71875 
L 263.765 74.71875 
z
" style="fill:#2ca25f;"/>
   </g>
   <g id="patch_299">
    <path clip-path="url(#pb73671df93)" d="M 264.4625 74.71875 
L 265.16 74.71875 
L 265.16 74.71875 
L 264.4625 74.71875 
z
" style="fill:#2ca25f;"/>
   </g>
   <g id="patch_300">
    <path clip-path="url(#pb73671df93)" d="M 265.16 74.71875 
L 265.8575 74.71875 
L 265.8575 74.71875 
L 265.16 74.71875 
z
" style="fill:#2ca25f;"/>
   </g>
   <g id="patch_301">
    <path clip-path="url(#pb73671df93)" d="M 265.8575 74.71875 
L 266.555 74.71875 
L 266.555 74.71875 
L 265.8575 74.71875 
z
" style="fill:#2ca25f;"/>
   </g>
   <g id="patch_302">
    <path clip-path="url(#pb73671df93)" d="M 266.555 74.71875 
L 267.2525 74.71875 
L 267.2525 74.71875 
L 266.555 74.71875 
z
" style="fill:#2ca25f;"/>
   </g>
   <g id="patch_303">
    <path clip-path="url(#pb73671df93)" d="M 267.2525 74.71875 
L 267.95 74.71875 
L 267.95 74.71875 
L 267.2525 74.71875 
z
" style="fill:#2ca25f;"/>
   </g>
   <g id="patch_304">
    <path clip-path="url(#pb73671df93)" d="M 267.95 74.71875 
L 268.6475 74.71875 
L 268.6475 74.71875 
L 267.95 74.71875 
z
" style="fill:#2ca25f;"/>
   </g>
   <g id="patch_305">
    <path clip-path="url(#pb73671df93)" d="M 268.6475 74.71875 
L 269.345 74.71875 
L 269.345 74.71875 
L 268.6475 74.71875 
z
" style="fill:#2ca25f;"/>
   </g>
   <g id="patch_306">
    <path clip-path="url(#pb73671df93)" d="M 269.345 74.71875 
L 270.0425 74.71875 
L 270.0425 74.71875 
L 269.345 74.71875 
z
" style="fill:#2ca25f;"/>
   </g>
   <g id="matplotlib.axis_5">
    <g id="xtick_5">
     <g id="line2d_5">
      <g>
       <use style="stroke:#000000;stroke-width:1.5;" x="200.2925" xlink:href="#mf386e009bc" y="74.71875"/>
      </g>
     </g>
     <g id="text_10">
      <text style="font-family:DejaVu Sans;font-size:8px;font-stretch:normal;font-style:normal;font-weight:normal;text-anchor:middle;" transform="rotate(-0, 200.2925, 87.7975)" x="200.2925" y="87.7975">0</text>
     </g>
    </g>
    <g id="xtick_6">
     <g id="line2d_6">
      <g>
       <use style="stroke:#000000;stroke-width:1.5;" x="270.0425" xlink:href="#mf386e009bc" y="74.71875"/>
      </g>
     </g>
     <g id="text_11">
      <text style="font-family:DejaVu Sans;font-size:8px;font-stretch:normal;font-style:normal;font-weight:normal;text-anchor:middle;" transform="rotate(-0, 270.0425, 87.7975)" x="270.0425" y="87.7975">6</text>
     </g>
    </g>
    <g id="text_12">
     <!-- E/spike ($\mu$J) -->
     <g transform="translate(212.6475 99.54125)">
      <text>
       <tspan style="font-family:DejaVu Sans;font-size:8px;font-style:book;font-weight:book;" x="0 5.054688 7.75 11.917969 16.996094 19.21875 23.851562 28.773438 31.316406 34.4375 39.527344 41.886719" y="-0.921875">E/spike (μJ)</tspan>
      </text>
     </g>
    </g>
   </g>
   <g id="matplotlib.axis_6"/>
   <g id="patch_307">
    <path d="M 200.2925 74.71875 
L 270.0425 74.71875 
" style="fill:none;stroke:#000000;stroke-linecap:square;stroke-linejoin:miter;stroke-width:1.5;"/>
   </g>
   <g id="text_13">
    <text style="font-family:DejaVu Sans;font-size:8px;font-stretch:normal;font-style:normal;font-weight:normal;text-anchor:middle;" transform="rotate(-0, 235.1675, 13.27875)" x="235.1675" y="13.27875">PY</text>
   </g>
  </g>
 </g>
 <defs>
  <clipPath id="p87f7b0612a">
   <rect height="55.44" width="69.75" x="18.9425" y="19.27875"/>
  </clipPath>
  <clipPath id="p2408f3325c">
   <rect height="55.44" width="69.75" x="109.6175" y="19.27875"/>
  </clipPath>
  <clipPath id="pb73671df93">
   <rect height="55.44" width="69.75" x="200.2925" y="19.27875"/>
  </clipPath>
 </defs>
</svg>
