<?xml version="1.0" encoding="utf-8" standalone="no"?>
<!DOCTYPE svg PUBLIC "-//W3C//DTD SVG 1.1//EN"
  "http://www.w3.org/Graphics/SVG/1.1/DTD/svg11.dtd">
<!-- Created with matplotlib (https://matplotlib.org/) -->
<svg height="107.2925pt" version="1.1" viewBox="0 0 257.967624 107.2925" width="257.967624pt" xmlns="http://www.w3.org/2000/svg" xmlns:xlink="http://www.w3.org/1999/xlink">
 <defs>
  <style type="text/css">
*{stroke-linecap:butt;stroke-linejoin:round;}
  </style>
 </defs>
 <g id="figure_1">
  <g id="patch_1">
   <path d="M 0 107.2925 
L 257.967624 107.2925 
L 257.967624 0 
L 0 0 
z
" style="fill:none;"/>
  </g>
  <g id="axes_1">
   <g id="patch_2">
    <path d="M 18.51625 74.36625 
L 64.06727 74.36625 
L 64.06727 18.92625 
L 18.51625 18.92625 
z
" style="fill:none;"/>
   </g>
   <g id="patch_3">
    <path clip-path="url(#pac6d79ae4e)" d="M 20.586751 74.36625 
L 21.000851 74.36625 
L 21.000851 74.36625 
L 20.586751 74.36625 
z
" style="fill:#0000ff;"/>
   </g>
   <g id="patch_4">
    <path clip-path="url(#pac6d79ae4e)" d="M 21.000851 74.36625 
L 21.414951 74.36625 
L 21.414951 74.36625 
L 21.000851 74.36625 
z
" style="fill:#0000ff;"/>
   </g>
   <g id="patch_5">
    <path clip-path="url(#pac6d79ae4e)" d="M 21.414951 74.36625 
L 21.829051 74.36625 
L 21.829051 72.732613 
L 21.414951 72.732613 
z
" style="fill:#0000ff;"/>
   </g>
   <g id="patch_6">
    <path clip-path="url(#pac6d79ae4e)" d="M 21.829051 74.36625 
L 22.243152 74.36625 
L 22.243152 67.685092 
L 21.829051 67.685092 
z
" style="fill:#0000ff;"/>
   </g>
   <g id="patch_7">
    <path clip-path="url(#pac6d79ae4e)" d="M 22.243152 74.36625 
L 22.657252 74.36625 
L 22.657252 62.344354 
L 22.243152 62.344354 
z
" style="fill:#0000ff;"/>
   </g>
   <g id="patch_8">
    <path clip-path="url(#pac6d79ae4e)" d="M 22.657252 74.36625 
L 23.071352 74.36625 
L 23.071352 55.265258 
L 22.657252 55.265258 
z
" style="fill:#0000ff;"/>
   </g>
   <g id="patch_9">
    <path clip-path="url(#pac6d79ae4e)" d="M 23.071352 74.36625 
L 23.485452 74.36625 
L 23.485452 47.872002 
L 23.071352 47.872002 
z
" style="fill:#0000ff;"/>
   </g>
   <g id="patch_10">
    <path clip-path="url(#pac6d79ae4e)" d="M 23.485452 74.36625 
L 23.899552 74.36625 
L 23.899552 43.07581 
L 23.485452 43.07581 
z
" style="fill:#0000ff;"/>
   </g>
   <g id="patch_11">
    <path clip-path="url(#pac6d79ae4e)" d="M 23.899552 74.36625 
L 24.313653 74.36625 
L 24.313653 37.483743 
L 23.899552 37.483743 
z
" style="fill:#0000ff;"/>
   </g>
   <g id="patch_12">
    <path clip-path="url(#pac6d79ae4e)" d="M 24.313653 74.36625 
L 24.727753 74.36625 
L 24.727753 33.001712 
L 24.313653 33.001712 
z
" style="fill:#0000ff;"/>
   </g>
   <g id="patch_13">
    <path clip-path="url(#pac6d79ae4e)" d="M 24.727753 74.36625 
L 25.141853 74.36625 
L 25.141853 29.629717 
L 24.727753 29.629717 
z
" style="fill:#0000ff;"/>
   </g>
   <g id="patch_14">
    <path clip-path="url(#pac6d79ae4e)" d="M 25.141853 74.36625 
L 25.555953 74.36625 
L 25.555953 26.215833 
L 25.141853 26.215833 
z
" style="fill:#0000ff;"/>
   </g>
   <g id="patch_15">
    <path clip-path="url(#pac6d79ae4e)" d="M 25.555953 74.36625 
L 25.970053 74.36625 
L 25.970053 25.83884 
L 25.555953 25.83884 
z
" style="fill:#0000ff;"/>
   </g>
   <g id="patch_16">
    <path clip-path="url(#pac6d79ae4e)" d="M 25.970053 74.36625 
L 26.384154 74.36625 
L 26.384154 23.053279 
L 25.970053 23.053279 
z
" style="fill:#0000ff;"/>
   </g>
   <g id="patch_17">
    <path clip-path="url(#pac6d79ae4e)" d="M 26.384154 74.36625 
L 26.798254 74.36625 
L 26.798254 23.723489 
L 26.384154 23.723489 
z
" style="fill:#0000ff;"/>
   </g>
   <g id="patch_18">
    <path clip-path="url(#pac6d79ae4e)" d="M 26.798254 74.36625 
L 27.212354 74.36625 
L 27.212354 21.56625 
L 26.798254 21.56625 
z
" style="fill:#0000ff;"/>
   </g>
   <g id="patch_19">
    <path clip-path="url(#pac6d79ae4e)" d="M 27.212354 74.36625 
L 27.626454 74.36625 
L 27.626454 21.838523 
L 27.212354 21.838523 
z
" style="fill:#0000ff;"/>
   </g>
   <g id="patch_20">
    <path clip-path="url(#pac6d79ae4e)" d="M 27.626454 74.36625 
L 28.040554 74.36625 
L 28.040554 23.953874 
L 27.626454 23.953874 
z
" style="fill:#0000ff;"/>
   </g>
   <g id="patch_21">
    <path clip-path="url(#pac6d79ae4e)" d="M 28.040554 74.36625 
L 28.454654 74.36625 
L 28.454654 24.938245 
L 28.040554 24.938245 
z
" style="fill:#0000ff;"/>
   </g>
   <g id="patch_22">
    <path clip-path="url(#pac6d79ae4e)" d="M 28.454654 74.36625 
L 28.868755 74.36625 
L 28.868755 25.06391 
L 28.454654 25.06391 
z
" style="fill:#0000ff;"/>
   </g>
   <g id="patch_23">
    <path clip-path="url(#pac6d79ae4e)" d="M 28.868755 74.36625 
L 29.282855 74.36625 
L 29.282855 25.650344 
L 28.868755 25.650344 
z
" style="fill:#0000ff;"/>
   </g>
   <g id="patch_24">
    <path clip-path="url(#pac6d79ae4e)" d="M 29.282855 74.36625 
L 29.696955 74.36625 
L 29.696955 28.121744 
L 29.282855 28.121744 
z
" style="fill:#0000ff;"/>
   </g>
   <g id="patch_25">
    <path clip-path="url(#pac6d79ae4e)" d="M 29.696955 74.36625 
L 30.111055 74.36625 
L 30.111055 30.195207 
L 29.696955 30.195207 
z
" style="fill:#0000ff;"/>
   </g>
   <g id="patch_26">
    <path clip-path="url(#pac6d79ae4e)" d="M 30.111055 74.36625 
L 30.525155 74.36625 
L 30.525155 31.724124 
L 30.111055 31.724124 
z
" style="fill:#0000ff;"/>
   </g>
   <g id="patch_27">
    <path clip-path="url(#pac6d79ae4e)" d="M 30.525155 74.36625 
L 30.939256 74.36625 
L 30.939256 32.457166 
L 30.525155 32.457166 
z
" style="fill:#0000ff;"/>
   </g>
   <g id="patch_28">
    <path clip-path="url(#pac6d79ae4e)" d="M 30.939256 74.36625 
L 31.353356 74.36625 
L 31.353356 35.033287 
L 30.939256 35.033287 
z
" style="fill:#0000ff;"/>
   </g>
   <g id="patch_29">
    <path clip-path="url(#pac6d79ae4e)" d="M 31.353356 74.36625 
L 31.767456 74.36625 
L 31.767456 37.420911 
L 31.353356 37.420911 
z
" style="fill:#0000ff;"/>
   </g>
   <g id="patch_30">
    <path clip-path="url(#pac6d79ae4e)" d="M 31.767456 74.36625 
L 32.181556 74.36625 
L 32.181556 41.148955 
L 31.767456 41.148955 
z
" style="fill:#0000ff;"/>
   </g>
   <g id="patch_31">
    <path clip-path="url(#pac6d79ae4e)" d="M 32.181556 74.36625 
L 32.595656 74.36625 
L 32.595656 42.950145 
L 32.181556 42.950145 
z
" style="fill:#0000ff;"/>
   </g>
   <g id="patch_32">
    <path clip-path="url(#pac6d79ae4e)" d="M 32.595656 74.36625 
L 33.009756 74.36625 
L 33.009756 48.437492 
L 32.595656 48.437492 
z
" style="fill:#0000ff;"/>
   </g>
   <g id="patch_33">
    <path clip-path="url(#pac6d79ae4e)" d="M 33.009756 74.36625 
L 33.423857 74.36625 
L 33.423857 51.390605 
L 33.009756 51.390605 
z
" style="fill:#0000ff;"/>
   </g>
   <g id="patch_34">
    <path clip-path="url(#pac6d79ae4e)" d="M 33.423857 74.36625 
L 33.837957 74.36625 
L 33.837957 56.019245 
L 33.423857 56.019245 
z
" style="fill:#0000ff;"/>
   </g>
   <g id="patch_35">
    <path clip-path="url(#pac6d79ae4e)" d="M 33.837957 74.36625 
L 34.252057 74.36625 
L 34.252057 59.265576 
L 33.837957 59.265576 
z
" style="fill:#0000ff;"/>
   </g>
   <g id="patch_36">
    <path clip-path="url(#pac6d79ae4e)" d="M 34.252057 74.36625 
L 34.666157 74.36625 
L 34.666157 62.072081 
L 34.252057 62.072081 
z
" style="fill:#0000ff;"/>
   </g>
   <g id="patch_37">
    <path clip-path="url(#pac6d79ae4e)" d="M 34.666157 74.36625 
L 35.080257 74.36625 
L 35.080257 65.569741 
L 34.666157 65.569741 
z
" style="fill:#0000ff;"/>
   </g>
   <g id="patch_38">
    <path clip-path="url(#pac6d79ae4e)" d="M 35.080257 74.36625 
L 35.494358 74.36625 
L 35.494358 69.046456 
L 35.080257 69.046456 
z
" style="fill:#0000ff;"/>
   </g>
   <g id="patch_39">
    <path clip-path="url(#pac6d79ae4e)" d="M 35.494358 74.36625 
L 35.908458 74.36625 
L 35.908458 71.078031 
L 35.494358 71.078031 
z
" style="fill:#0000ff;"/>
   </g>
   <g id="patch_40">
    <path clip-path="url(#pac6d79ae4e)" d="M 35.908458 74.36625 
L 36.322558 74.36625 
L 36.322558 72.858277 
L 35.908458 72.858277 
z
" style="fill:#0000ff;"/>
   </g>
   <g id="patch_41">
    <path clip-path="url(#pac6d79ae4e)" d="M 36.322558 74.36625 
L 36.736658 74.36625 
L 36.736658 73.549431 
L 36.322558 73.549431 
z
" style="fill:#0000ff;"/>
   </g>
   <g id="patch_42">
    <path clip-path="url(#pac6d79ae4e)" d="M 36.736658 74.36625 
L 37.150758 74.36625 
L 37.150758 73.884536 
L 36.736658 73.884536 
z
" style="fill:#0000ff;"/>
   </g>
   <g id="patch_43">
    <path clip-path="url(#pac6d79ae4e)" d="M 37.150758 74.36625 
L 37.564859 74.36625 
L 37.564859 74.324362 
L 37.150758 74.324362 
z
" style="fill:#0000ff;"/>
   </g>
   <g id="patch_44">
    <path clip-path="url(#pac6d79ae4e)" d="M 37.564859 74.36625 
L 37.978959 74.36625 
L 37.978959 74.345306 
L 37.564859 74.345306 
z
" style="fill:#0000ff;"/>
   </g>
   <g id="patch_45">
    <path clip-path="url(#pac6d79ae4e)" d="M 37.978959 74.36625 
L 38.393059 74.36625 
L 38.393059 74.36625 
L 37.978959 74.36625 
z
" style="fill:#0000ff;"/>
   </g>
   <g id="patch_46">
    <path clip-path="url(#pac6d79ae4e)" d="M 38.393059 74.36625 
L 38.807159 74.36625 
L 38.807159 74.36625 
L 38.393059 74.36625 
z
" style="fill:#0000ff;"/>
   </g>
   <g id="patch_47">
    <path clip-path="url(#pac6d79ae4e)" d="M 38.807159 74.36625 
L 39.221259 74.36625 
L 39.221259 74.36625 
L 38.807159 74.36625 
z
" style="fill:#0000ff;"/>
   </g>
   <g id="patch_48">
    <path clip-path="url(#pac6d79ae4e)" d="M 39.221259 74.36625 
L 39.635359 74.36625 
L 39.635359 74.36625 
L 39.221259 74.36625 
z
" style="fill:#0000ff;"/>
   </g>
   <g id="patch_49">
    <path clip-path="url(#pac6d79ae4e)" d="M 39.635359 74.36625 
L 40.04946 74.36625 
L 40.04946 74.36625 
L 39.635359 74.36625 
z
" style="fill:#0000ff;"/>
   </g>
   <g id="patch_50">
    <path clip-path="url(#pac6d79ae4e)" d="M 40.04946 74.36625 
L 40.46356 74.36625 
L 40.46356 74.36625 
L 40.04946 74.36625 
z
" style="fill:#0000ff;"/>
   </g>
   <g id="patch_51">
    <path clip-path="url(#pac6d79ae4e)" d="M 40.46356 74.36625 
L 40.87766 74.36625 
L 40.87766 74.36625 
L 40.46356 74.36625 
z
" style="fill:#0000ff;"/>
   </g>
   <g id="patch_52">
    <path clip-path="url(#pac6d79ae4e)" d="M 40.87766 74.36625 
L 41.29176 74.36625 
L 41.29176 74.36625 
L 40.87766 74.36625 
z
" style="fill:#0000ff;"/>
   </g>
   <g id="patch_53">
    <path clip-path="url(#pac6d79ae4e)" d="M 41.29176 74.36625 
L 41.70586 74.36625 
L 41.70586 74.36625 
L 41.29176 74.36625 
z
" style="fill:#0000ff;"/>
   </g>
   <g id="patch_54">
    <path clip-path="url(#pac6d79ae4e)" d="M 41.70586 74.36625 
L 42.119961 74.36625 
L 42.119961 74.36625 
L 41.70586 74.36625 
z
" style="fill:#0000ff;"/>
   </g>
   <g id="patch_55">
    <path clip-path="url(#pac6d79ae4e)" d="M 42.119961 74.36625 
L 42.534061 74.36625 
L 42.534061 74.36625 
L 42.119961 74.36625 
z
" style="fill:#0000ff;"/>
   </g>
   <g id="patch_56">
    <path clip-path="url(#pac6d79ae4e)" d="M 42.534061 74.36625 
L 42.948161 74.36625 
L 42.948161 74.36625 
L 42.534061 74.36625 
z
" style="fill:#0000ff;"/>
   </g>
   <g id="patch_57">
    <path clip-path="url(#pac6d79ae4e)" d="M 42.948161 74.36625 
L 43.362261 74.36625 
L 43.362261 74.36625 
L 42.948161 74.36625 
z
" style="fill:#0000ff;"/>
   </g>
   <g id="patch_58">
    <path clip-path="url(#pac6d79ae4e)" d="M 43.362261 74.36625 
L 43.776361 74.36625 
L 43.776361 74.36625 
L 43.362261 74.36625 
z
" style="fill:#0000ff;"/>
   </g>
   <g id="patch_59">
    <path clip-path="url(#pac6d79ae4e)" d="M 43.776361 74.36625 
L 44.190462 74.36625 
L 44.190462 74.36625 
L 43.776361 74.36625 
z
" style="fill:#0000ff;"/>
   </g>
   <g id="patch_60">
    <path clip-path="url(#pac6d79ae4e)" d="M 44.190462 74.36625 
L 44.604562 74.36625 
L 44.604562 74.36625 
L 44.190462 74.36625 
z
" style="fill:#0000ff;"/>
   </g>
   <g id="patch_61">
    <path clip-path="url(#pac6d79ae4e)" d="M 44.604562 74.36625 
L 45.018662 74.36625 
L 45.018662 74.36625 
L 44.604562 74.36625 
z
" style="fill:#0000ff;"/>
   </g>
   <g id="patch_62">
    <path clip-path="url(#pac6d79ae4e)" d="M 45.018662 74.36625 
L 45.432762 74.36625 
L 45.432762 74.36625 
L 45.018662 74.36625 
z
" style="fill:#0000ff;"/>
   </g>
   <g id="patch_63">
    <path clip-path="url(#pac6d79ae4e)" d="M 45.432762 74.36625 
L 45.846862 74.36625 
L 45.846862 74.36625 
L 45.432762 74.36625 
z
" style="fill:#0000ff;"/>
   </g>
   <g id="patch_64">
    <path clip-path="url(#pac6d79ae4e)" d="M 45.846862 74.36625 
L 46.260962 74.36625 
L 46.260962 74.36625 
L 45.846862 74.36625 
z
" style="fill:#0000ff;"/>
   </g>
   <g id="patch_65">
    <path clip-path="url(#pac6d79ae4e)" d="M 46.260962 74.36625 
L 46.675063 74.36625 
L 46.675063 74.36625 
L 46.260962 74.36625 
z
" style="fill:#0000ff;"/>
   </g>
   <g id="patch_66">
    <path clip-path="url(#pac6d79ae4e)" d="M 46.675063 74.36625 
L 47.089163 74.36625 
L 47.089163 74.36625 
L 46.675063 74.36625 
z
" style="fill:#0000ff;"/>
   </g>
   <g id="patch_67">
    <path clip-path="url(#pac6d79ae4e)" d="M 47.089163 74.36625 
L 47.503263 74.36625 
L 47.503263 74.36625 
L 47.089163 74.36625 
z
" style="fill:#0000ff;"/>
   </g>
   <g id="patch_68">
    <path clip-path="url(#pac6d79ae4e)" d="M 47.503263 74.36625 
L 47.917363 74.36625 
L 47.917363 74.36625 
L 47.503263 74.36625 
z
" style="fill:#0000ff;"/>
   </g>
   <g id="patch_69">
    <path clip-path="url(#pac6d79ae4e)" d="M 47.917363 74.36625 
L 48.331463 74.36625 
L 48.331463 74.36625 
L 47.917363 74.36625 
z
" style="fill:#0000ff;"/>
   </g>
   <g id="patch_70">
    <path clip-path="url(#pac6d79ae4e)" d="M 48.331463 74.36625 
L 48.745564 74.36625 
L 48.745564 74.36625 
L 48.331463 74.36625 
z
" style="fill:#0000ff;"/>
   </g>
   <g id="patch_71">
    <path clip-path="url(#pac6d79ae4e)" d="M 48.745564 74.36625 
L 49.159664 74.36625 
L 49.159664 74.36625 
L 48.745564 74.36625 
z
" style="fill:#0000ff;"/>
   </g>
   <g id="patch_72">
    <path clip-path="url(#pac6d79ae4e)" d="M 49.159664 74.36625 
L 49.573764 74.36625 
L 49.573764 74.36625 
L 49.159664 74.36625 
z
" style="fill:#0000ff;"/>
   </g>
   <g id="patch_73">
    <path clip-path="url(#pac6d79ae4e)" d="M 49.573764 74.36625 
L 49.987864 74.36625 
L 49.987864 74.36625 
L 49.573764 74.36625 
z
" style="fill:#0000ff;"/>
   </g>
   <g id="patch_74">
    <path clip-path="url(#pac6d79ae4e)" d="M 49.987864 74.36625 
L 50.401964 74.36625 
L 50.401964 74.36625 
L 49.987864 74.36625 
z
" style="fill:#0000ff;"/>
   </g>
   <g id="patch_75">
    <path clip-path="url(#pac6d79ae4e)" d="M 50.401964 74.36625 
L 50.816064 74.36625 
L 50.816064 74.36625 
L 50.401964 74.36625 
z
" style="fill:#0000ff;"/>
   </g>
   <g id="patch_76">
    <path clip-path="url(#pac6d79ae4e)" d="M 50.816064 74.36625 
L 51.230165 74.36625 
L 51.230165 74.36625 
L 50.816064 74.36625 
z
" style="fill:#0000ff;"/>
   </g>
   <g id="patch_77">
    <path clip-path="url(#pac6d79ae4e)" d="M 51.230165 74.36625 
L 51.644265 74.36625 
L 51.644265 74.36625 
L 51.230165 74.36625 
z
" style="fill:#0000ff;"/>
   </g>
   <g id="patch_78">
    <path clip-path="url(#pac6d79ae4e)" d="M 51.644265 74.36625 
L 52.058365 74.36625 
L 52.058365 74.36625 
L 51.644265 74.36625 
z
" style="fill:#0000ff;"/>
   </g>
   <g id="patch_79">
    <path clip-path="url(#pac6d79ae4e)" d="M 52.058365 74.36625 
L 52.472465 74.36625 
L 52.472465 74.36625 
L 52.058365 74.36625 
z
" style="fill:#0000ff;"/>
   </g>
   <g id="patch_80">
    <path clip-path="url(#pac6d79ae4e)" d="M 52.472465 74.36625 
L 52.886565 74.36625 
L 52.886565 74.36625 
L 52.472465 74.36625 
z
" style="fill:#0000ff;"/>
   </g>
   <g id="patch_81">
    <path clip-path="url(#pac6d79ae4e)" d="M 52.886565 74.36625 
L 53.300666 74.36625 
L 53.300666 74.36625 
L 52.886565 74.36625 
z
" style="fill:#0000ff;"/>
   </g>
   <g id="patch_82">
    <path clip-path="url(#pac6d79ae4e)" d="M 53.300666 74.36625 
L 53.714766 74.36625 
L 53.714766 74.36625 
L 53.300666 74.36625 
z
" style="fill:#0000ff;"/>
   </g>
   <g id="patch_83">
    <path clip-path="url(#pac6d79ae4e)" d="M 53.714766 74.36625 
L 54.128866 74.36625 
L 54.128866 74.36625 
L 53.714766 74.36625 
z
" style="fill:#0000ff;"/>
   </g>
   <g id="patch_84">
    <path clip-path="url(#pac6d79ae4e)" d="M 54.128866 74.36625 
L 54.542966 74.36625 
L 54.542966 74.36625 
L 54.128866 74.36625 
z
" style="fill:#0000ff;"/>
   </g>
   <g id="patch_85">
    <path clip-path="url(#pac6d79ae4e)" d="M 54.542966 74.36625 
L 54.957066 74.36625 
L 54.957066 74.36625 
L 54.542966 74.36625 
z
" style="fill:#0000ff;"/>
   </g>
   <g id="patch_86">
    <path clip-path="url(#pac6d79ae4e)" d="M 54.957066 74.36625 
L 55.371167 74.36625 
L 55.371167 74.36625 
L 54.957066 74.36625 
z
" style="fill:#0000ff;"/>
   </g>
   <g id="patch_87">
    <path clip-path="url(#pac6d79ae4e)" d="M 55.371167 74.36625 
L 55.785267 74.36625 
L 55.785267 74.36625 
L 55.371167 74.36625 
z
" style="fill:#0000ff;"/>
   </g>
   <g id="patch_88">
    <path clip-path="url(#pac6d79ae4e)" d="M 55.785267 74.36625 
L 56.199367 74.36625 
L 56.199367 74.36625 
L 55.785267 74.36625 
z
" style="fill:#0000ff;"/>
   </g>
   <g id="patch_89">
    <path clip-path="url(#pac6d79ae4e)" d="M 56.199367 74.36625 
L 56.613467 74.36625 
L 56.613467 74.36625 
L 56.199367 74.36625 
z
" style="fill:#0000ff;"/>
   </g>
   <g id="patch_90">
    <path clip-path="url(#pac6d79ae4e)" d="M 56.613467 74.36625 
L 57.027567 74.36625 
L 57.027567 74.36625 
L 56.613467 74.36625 
z
" style="fill:#0000ff;"/>
   </g>
   <g id="patch_91">
    <path clip-path="url(#pac6d79ae4e)" d="M 57.027567 74.36625 
L 57.441667 74.36625 
L 57.441667 74.36625 
L 57.027567 74.36625 
z
" style="fill:#0000ff;"/>
   </g>
   <g id="patch_92">
    <path clip-path="url(#pac6d79ae4e)" d="M 57.441667 74.36625 
L 57.855768 74.36625 
L 57.855768 74.36625 
L 57.441667 74.36625 
z
" style="fill:#0000ff;"/>
   </g>
   <g id="patch_93">
    <path clip-path="url(#pac6d79ae4e)" d="M 57.855768 74.36625 
L 58.269868 74.36625 
L 58.269868 74.36625 
L 57.855768 74.36625 
z
" style="fill:#0000ff;"/>
   </g>
   <g id="patch_94">
    <path clip-path="url(#pac6d79ae4e)" d="M 58.269868 74.36625 
L 58.683968 74.36625 
L 58.683968 74.36625 
L 58.269868 74.36625 
z
" style="fill:#0000ff;"/>
   </g>
   <g id="patch_95">
    <path clip-path="url(#pac6d79ae4e)" d="M 58.683968 74.36625 
L 59.098068 74.36625 
L 59.098068 74.36625 
L 58.683968 74.36625 
z
" style="fill:#0000ff;"/>
   </g>
   <g id="patch_96">
    <path clip-path="url(#pac6d79ae4e)" d="M 59.098068 74.36625 
L 59.512168 74.36625 
L 59.512168 74.36625 
L 59.098068 74.36625 
z
" style="fill:#0000ff;"/>
   </g>
   <g id="patch_97">
    <path clip-path="url(#pac6d79ae4e)" d="M 59.512168 74.36625 
L 59.926269 74.36625 
L 59.926269 74.36625 
L 59.512168 74.36625 
z
" style="fill:#0000ff;"/>
   </g>
   <g id="patch_98">
    <path clip-path="url(#pac6d79ae4e)" d="M 59.926269 74.36625 
L 60.340369 74.36625 
L 60.340369 74.36625 
L 59.926269 74.36625 
z
" style="fill:#0000ff;"/>
   </g>
   <g id="patch_99">
    <path clip-path="url(#pac6d79ae4e)" d="M 60.340369 74.36625 
L 60.754469 74.36625 
L 60.754469 74.36625 
L 60.340369 74.36625 
z
" style="fill:#0000ff;"/>
   </g>
   <g id="patch_100">
    <path clip-path="url(#pac6d79ae4e)" d="M 60.754469 74.36625 
L 61.168569 74.36625 
L 61.168569 74.36625 
L 60.754469 74.36625 
z
" style="fill:#0000ff;"/>
   </g>
   <g id="patch_101">
    <path clip-path="url(#pac6d79ae4e)" d="M 61.168569 74.36625 
L 61.582669 74.36625 
L 61.582669 74.36625 
L 61.168569 74.36625 
z
" style="fill:#0000ff;"/>
   </g>
   <g id="patch_102">
    <path clip-path="url(#pac6d79ae4e)" d="M 61.582669 74.36625 
L 61.996769 74.36625 
L 61.996769 74.36625 
L 61.582669 74.36625 
z
" style="fill:#0000ff;"/>
   </g>
   <g id="matplotlib.axis_1">
    <g id="xtick_1">
     <g id="line2d_1">
      <defs>
       <path d="M 0 0 
L 0 3.5 
" id="mbe718e1891" style="stroke:#000000;stroke-width:1.5;"/>
      </defs>
      <g>
       <use style="stroke:#000000;stroke-width:1.5;" x="20.586751" xlink:href="#mbe718e1891" y="74.36625"/>
      </g>
     </g>
     <g id="text_1">
      <text style="font-family:Arial;font-size:8px;font-style:normal;font-weight:normal;text-anchor:middle;" transform="rotate(-0, 20.586751, 87.0925)" x="20.586751" y="87.0925">0</text>
     </g>
    </g>
    <g id="xtick_2">
     <g id="line2d_2">
      <g>
       <use style="stroke:#000000;stroke-width:1.5;" x="61.996769" xlink:href="#mbe718e1891" y="74.36625"/>
      </g>
     </g>
     <g id="text_2">
      <text style="font-family:Arial;font-size:8px;font-style:normal;font-weight:normal;text-anchor:middle;" transform="rotate(-0, 61.996769, 87.0925)" x="61.996769" y="87.0925">50000</text>
     </g>
    </g>
    <g id="text_3">
     <text style="font-family:Arial;font-size:8px;font-style:normal;font-weight:normal;text-anchor:middle;" transform="rotate(-0, 41.29176, 98.40875)" x="41.29176" y="98.40875">Energy</text>
    </g>
   </g>
   <g id="matplotlib.axis_2">
    <g id="text_4">
     <text style="font-family:Arial;font-size:8px;font-style:normal;font-weight:normal;text-anchor:middle;" transform="rotate(-90, 12.92625, 46.64625)" x="12.92625" y="46.64625">Count</text>
    </g>
   </g>
   <g id="patch_103">
    <path d="M 18.51625 74.36625 
L 64.06727 74.36625 
" style="fill:none;stroke:#000000;stroke-linecap:square;stroke-linejoin:miter;stroke-width:1.5;"/>
   </g>
   <g id="text_5">
    <text style="font-family:Arial;font-size:8px;font-style:normal;font-weight:normal;text-anchor:middle;" transform="rotate(-0, 41.29176, 12.92625)" x="41.29176" y="12.92625">AB/PD</text>
   </g>
  </g>
  <g id="axes_2">
   <g id="patch_104">
    <path d="M 77.732577 74.36625 
L 123.283597 74.36625 
L 123.283597 18.92625 
L 77.732577 18.92625 
z
" style="fill:none;"/>
   </g>
   <g id="patch_105">
    <path clip-path="url(#p63aef68d2d)" d="M 79.803077 74.36625 
L 80.217178 74.36625 
L 80.217178 74.36625 
L 79.803077 74.36625 
z
" style="fill:#ffa500;"/>
   </g>
   <g id="patch_106">
    <path clip-path="url(#p63aef68d2d)" d="M 80.217178 74.36625 
L 80.631278 74.36625 
L 80.631278 74.348859 
L 80.217178 74.348859 
z
" style="fill:#ffa500;"/>
   </g>
   <g id="patch_107">
    <path clip-path="url(#p63aef68d2d)" d="M 80.631278 74.36625 
L 81.045378 74.36625 
L 81.045378 72.879293 
L 80.631278 72.879293 
z
" style="fill:#ffa500;"/>
   </g>
   <g id="patch_108">
    <path clip-path="url(#p63aef68d2d)" d="M 81.045378 74.36625 
L 81.459478 74.36625 
L 81.459478 65.253207 
L 81.045378 65.253207 
z
" style="fill:#ffa500;"/>
   </g>
   <g id="patch_109">
    <path clip-path="url(#p63aef68d2d)" d="M 81.459478 74.36625 
L 81.873578 74.36625 
L 81.873578 54.601033 
L 81.459478 54.601033 
z
" style="fill:#ffa500;"/>
   </g>
   <g id="patch_110">
    <path clip-path="url(#p63aef68d2d)" d="M 81.873578 74.36625 
L 82.287679 74.36625 
L 82.287679 42.635815 
L 81.873578 42.635815 
z
" style="fill:#ffa500;"/>
   </g>
   <g id="patch_111">
    <path clip-path="url(#p63aef68d2d)" d="M 82.287679 74.36625 
L 82.701779 74.36625 
L 82.701779 32.82712 
L 82.287679 32.82712 
z
" style="fill:#ffa500;"/>
   </g>
   <g id="patch_112">
    <path clip-path="url(#p63aef68d2d)" d="M 82.701779 74.36625 
L 83.115879 74.36625 
L 83.115879 25.470598 
L 82.701779 25.470598 
z
" style="fill:#ffa500;"/>
   </g>
   <g id="patch_113">
    <path clip-path="url(#p63aef68d2d)" d="M 83.115879 74.36625 
L 83.529979 74.36625 
L 83.529979 22.601033 
L 83.115879 22.601033 
z
" style="fill:#ffa500;"/>
   </g>
   <g id="patch_114">
    <path clip-path="url(#p63aef68d2d)" d="M 83.529979 74.36625 
L 83.944079 74.36625 
L 83.944079 21.56625 
L 83.529979 21.56625 
z
" style="fill:#ffa500;"/>
   </g>
   <g id="patch_115">
    <path clip-path="url(#p63aef68d2d)" d="M 83.944079 74.36625 
L 84.358179 74.36625 
L 84.358179 24.001033 
L 83.944079 24.001033 
z
" style="fill:#ffa500;"/>
   </g>
   <g id="patch_116">
    <path clip-path="url(#p63aef68d2d)" d="M 84.358179 74.36625 
L 84.77228 74.36625 
L 84.77228 28.287989 
L 84.358179 28.287989 
z
" style="fill:#ffa500;"/>
   </g>
   <g id="patch_117">
    <path clip-path="url(#p63aef68d2d)" d="M 84.77228 74.36625 
L 85.18638 74.36625 
L 85.18638 33.618424 
L 84.77228 33.618424 
z
" style="fill:#ffa500;"/>
   </g>
   <g id="patch_118">
    <path clip-path="url(#p63aef68d2d)" d="M 85.18638 74.36625 
L 85.60048 74.36625 
L 85.60048 41.757554 
L 85.18638 41.757554 
z
" style="fill:#ffa500;"/>
   </g>
   <g id="patch_119">
    <path clip-path="url(#p63aef68d2d)" d="M 85.60048 74.36625 
L 86.01458 74.36625 
L 86.01458 51.140163 
L 85.60048 51.140163 
z
" style="fill:#ffa500;"/>
   </g>
   <g id="patch_120">
    <path clip-path="url(#p63aef68d2d)" d="M 86.01458 74.36625 
L 86.42868 74.36625 
L 86.42868 59.774946 
L 86.01458 59.774946 
z
" style="fill:#ffa500;"/>
   </g>
   <g id="patch_121">
    <path clip-path="url(#p63aef68d2d)" d="M 86.42868 74.36625 
L 86.842781 74.36625 
L 86.842781 65.90538 
L 86.42868 65.90538 
z
" style="fill:#ffa500;"/>
   </g>
   <g id="patch_122">
    <path clip-path="url(#p63aef68d2d)" d="M 86.842781 74.36625 
L 87.256881 74.36625 
L 87.256881 70.574946 
L 86.842781 70.574946 
z
" style="fill:#ffa500;"/>
   </g>
   <g id="patch_123">
    <path clip-path="url(#p63aef68d2d)" d="M 87.256881 74.36625 
L 87.670981 74.36625 
L 87.670981 72.861902 
L 87.256881 72.861902 
z
" style="fill:#ffa500;"/>
   </g>
   <g id="patch_124">
    <path clip-path="url(#p63aef68d2d)" d="M 87.670981 74.36625 
L 88.085081 74.36625 
L 88.085081 74.218424 
L 87.670981 74.218424 
z
" style="fill:#ffa500;"/>
   </g>
   <g id="patch_125">
    <path clip-path="url(#p63aef68d2d)" d="M 88.085081 74.36625 
L 88.499181 74.36625 
L 88.499181 74.36625 
L 88.085081 74.36625 
z
" style="fill:#ffa500;"/>
   </g>
   <g id="patch_126">
    <path clip-path="url(#p63aef68d2d)" d="M 88.499181 74.36625 
L 88.913282 74.36625 
L 88.913282 74.36625 
L 88.499181 74.36625 
z
" style="fill:#ffa500;"/>
   </g>
   <g id="patch_127">
    <path clip-path="url(#p63aef68d2d)" d="M 88.913282 74.36625 
L 89.327382 74.36625 
L 89.327382 74.36625 
L 88.913282 74.36625 
z
" style="fill:#ffa500;"/>
   </g>
   <g id="patch_128">
    <path clip-path="url(#p63aef68d2d)" d="M 89.327382 74.36625 
L 89.741482 74.36625 
L 89.741482 74.36625 
L 89.327382 74.36625 
z
" style="fill:#ffa500;"/>
   </g>
   <g id="patch_129">
    <path clip-path="url(#p63aef68d2d)" d="M 89.741482 74.36625 
L 90.155582 74.36625 
L 90.155582 74.36625 
L 89.741482 74.36625 
z
" style="fill:#ffa500;"/>
   </g>
   <g id="patch_130">
    <path clip-path="url(#p63aef68d2d)" d="M 90.155582 74.36625 
L 90.569682 74.36625 
L 90.569682 74.36625 
L 90.155582 74.36625 
z
" style="fill:#ffa500;"/>
   </g>
   <g id="patch_131">
    <path clip-path="url(#p63aef68d2d)" d="M 90.569682 74.36625 
L 90.983782 74.36625 
L 90.983782 74.36625 
L 90.569682 74.36625 
z
" style="fill:#ffa500;"/>
   </g>
   <g id="patch_132">
    <path clip-path="url(#p63aef68d2d)" d="M 90.983782 74.36625 
L 91.397883 74.36625 
L 91.397883 74.36625 
L 90.983782 74.36625 
z
" style="fill:#ffa500;"/>
   </g>
   <g id="patch_133">
    <path clip-path="url(#p63aef68d2d)" d="M 91.397883 74.36625 
L 91.811983 74.36625 
L 91.811983 74.36625 
L 91.397883 74.36625 
z
" style="fill:#ffa500;"/>
   </g>
   <g id="patch_134">
    <path clip-path="url(#p63aef68d2d)" d="M 91.811983 74.36625 
L 92.226083 74.36625 
L 92.226083 74.36625 
L 91.811983 74.36625 
z
" style="fill:#ffa500;"/>
   </g>
   <g id="patch_135">
    <path clip-path="url(#p63aef68d2d)" d="M 92.226083 74.36625 
L 92.640183 74.36625 
L 92.640183 74.36625 
L 92.226083 74.36625 
z
" style="fill:#ffa500;"/>
   </g>
   <g id="patch_136">
    <path clip-path="url(#p63aef68d2d)" d="M 92.640183 74.36625 
L 93.054283 74.36625 
L 93.054283 74.36625 
L 92.640183 74.36625 
z
" style="fill:#ffa500;"/>
   </g>
   <g id="patch_137">
    <path clip-path="url(#p63aef68d2d)" d="M 93.054283 74.36625 
L 93.468384 74.36625 
L 93.468384 74.36625 
L 93.054283 74.36625 
z
" style="fill:#ffa500;"/>
   </g>
   <g id="patch_138">
    <path clip-path="url(#p63aef68d2d)" d="M 93.468384 74.36625 
L 93.882484 74.36625 
L 93.882484 74.36625 
L 93.468384 74.36625 
z
" style="fill:#ffa500;"/>
   </g>
   <g id="patch_139">
    <path clip-path="url(#p63aef68d2d)" d="M 93.882484 74.36625 
L 94.296584 74.36625 
L 94.296584 74.36625 
L 93.882484 74.36625 
z
" style="fill:#ffa500;"/>
   </g>
   <g id="patch_140">
    <path clip-path="url(#p63aef68d2d)" d="M 94.296584 74.36625 
L 94.710684 74.36625 
L 94.710684 74.36625 
L 94.296584 74.36625 
z
" style="fill:#ffa500;"/>
   </g>
   <g id="patch_141">
    <path clip-path="url(#p63aef68d2d)" d="M 94.710684 74.36625 
L 95.124784 74.36625 
L 95.124784 74.36625 
L 94.710684 74.36625 
z
" style="fill:#ffa500;"/>
   </g>
   <g id="patch_142">
    <path clip-path="url(#p63aef68d2d)" d="M 95.124784 74.36625 
L 95.538885 74.36625 
L 95.538885 74.36625 
L 95.124784 74.36625 
z
" style="fill:#ffa500;"/>
   </g>
   <g id="patch_143">
    <path clip-path="url(#p63aef68d2d)" d="M 95.538885 74.36625 
L 95.952985 74.36625 
L 95.952985 74.36625 
L 95.538885 74.36625 
z
" style="fill:#ffa500;"/>
   </g>
   <g id="patch_144">
    <path clip-path="url(#p63aef68d2d)" d="M 95.952985 74.36625 
L 96.367085 74.36625 
L 96.367085 74.36625 
L 95.952985 74.36625 
z
" style="fill:#ffa500;"/>
   </g>
   <g id="patch_145">
    <path clip-path="url(#p63aef68d2d)" d="M 96.367085 74.36625 
L 96.781185 74.36625 
L 96.781185 74.36625 
L 96.367085 74.36625 
z
" style="fill:#ffa500;"/>
   </g>
   <g id="patch_146">
    <path clip-path="url(#p63aef68d2d)" d="M 96.781185 74.36625 
L 97.195285 74.36625 
L 97.195285 74.36625 
L 96.781185 74.36625 
z
" style="fill:#ffa500;"/>
   </g>
   <g id="patch_147">
    <path clip-path="url(#p63aef68d2d)" d="M 97.195285 74.36625 
L 97.609385 74.36625 
L 97.609385 74.36625 
L 97.195285 74.36625 
z
" style="fill:#ffa500;"/>
   </g>
   <g id="patch_148">
    <path clip-path="url(#p63aef68d2d)" d="M 97.609385 74.36625 
L 98.023486 74.36625 
L 98.023486 74.36625 
L 97.609385 74.36625 
z
" style="fill:#ffa500;"/>
   </g>
   <g id="patch_149">
    <path clip-path="url(#p63aef68d2d)" d="M 98.023486 74.36625 
L 98.437586 74.36625 
L 98.437586 74.36625 
L 98.023486 74.36625 
z
" style="fill:#ffa500;"/>
   </g>
   <g id="patch_150">
    <path clip-path="url(#p63aef68d2d)" d="M 98.437586 74.36625 
L 98.851686 74.36625 
L 98.851686 74.36625 
L 98.437586 74.36625 
z
" style="fill:#ffa500;"/>
   </g>
   <g id="patch_151">
    <path clip-path="url(#p63aef68d2d)" d="M 98.851686 74.36625 
L 99.265786 74.36625 
L 99.265786 74.36625 
L 98.851686 74.36625 
z
" style="fill:#ffa500;"/>
   </g>
   <g id="patch_152">
    <path clip-path="url(#p63aef68d2d)" d="M 99.265786 74.36625 
L 99.679886 74.36625 
L 99.679886 74.36625 
L 99.265786 74.36625 
z
" style="fill:#ffa500;"/>
   </g>
   <g id="patch_153">
    <path clip-path="url(#p63aef68d2d)" d="M 99.679886 74.36625 
L 100.093987 74.36625 
L 100.093987 74.36625 
L 99.679886 74.36625 
z
" style="fill:#ffa500;"/>
   </g>
   <g id="patch_154">
    <path clip-path="url(#p63aef68d2d)" d="M 100.093987 74.36625 
L 100.508087 74.36625 
L 100.508087 74.36625 
L 100.093987 74.36625 
z
" style="fill:#ffa500;"/>
   </g>
   <g id="patch_155">
    <path clip-path="url(#p63aef68d2d)" d="M 100.508087 74.36625 
L 100.922187 74.36625 
L 100.922187 74.36625 
L 100.508087 74.36625 
z
" style="fill:#ffa500;"/>
   </g>
   <g id="patch_156">
    <path clip-path="url(#p63aef68d2d)" d="M 100.922187 74.36625 
L 101.336287 74.36625 
L 101.336287 74.36625 
L 100.922187 74.36625 
z
" style="fill:#ffa500;"/>
   </g>
   <g id="patch_157">
    <path clip-path="url(#p63aef68d2d)" d="M 101.336287 74.36625 
L 101.750387 74.36625 
L 101.750387 74.36625 
L 101.336287 74.36625 
z
" style="fill:#ffa500;"/>
   </g>
   <g id="patch_158">
    <path clip-path="url(#p63aef68d2d)" d="M 101.750387 74.36625 
L 102.164487 74.36625 
L 102.164487 74.36625 
L 101.750387 74.36625 
z
" style="fill:#ffa500;"/>
   </g>
   <g id="patch_159">
    <path clip-path="url(#p63aef68d2d)" d="M 102.164487 74.36625 
L 102.578588 74.36625 
L 102.578588 74.36625 
L 102.164487 74.36625 
z
" style="fill:#ffa500;"/>
   </g>
   <g id="patch_160">
    <path clip-path="url(#p63aef68d2d)" d="M 102.578588 74.36625 
L 102.992688 74.36625 
L 102.992688 74.36625 
L 102.578588 74.36625 
z
" style="fill:#ffa500;"/>
   </g>
   <g id="patch_161">
    <path clip-path="url(#p63aef68d2d)" d="M 102.992688 74.36625 
L 103.406788 74.36625 
L 103.406788 74.36625 
L 102.992688 74.36625 
z
" style="fill:#ffa500;"/>
   </g>
   <g id="patch_162">
    <path clip-path="url(#p63aef68d2d)" d="M 103.406788 74.36625 
L 103.820888 74.36625 
L 103.820888 74.36625 
L 103.406788 74.36625 
z
" style="fill:#ffa500;"/>
   </g>
   <g id="patch_163">
    <path clip-path="url(#p63aef68d2d)" d="M 103.820888 74.36625 
L 104.234988 74.36625 
L 104.234988 74.36625 
L 103.820888 74.36625 
z
" style="fill:#ffa500;"/>
   </g>
   <g id="patch_164">
    <path clip-path="url(#p63aef68d2d)" d="M 104.234988 74.36625 
L 104.649089 74.36625 
L 104.649089 74.36625 
L 104.234988 74.36625 
z
" style="fill:#ffa500;"/>
   </g>
   <g id="patch_165">
    <path clip-path="url(#p63aef68d2d)" d="M 104.649089 74.36625 
L 105.063189 74.36625 
L 105.063189 74.36625 
L 104.649089 74.36625 
z
" style="fill:#ffa500;"/>
   </g>
   <g id="patch_166">
    <path clip-path="url(#p63aef68d2d)" d="M 105.063189 74.36625 
L 105.477289 74.36625 
L 105.477289 74.36625 
L 105.063189 74.36625 
z
" style="fill:#ffa500;"/>
   </g>
   <g id="patch_167">
    <path clip-path="url(#p63aef68d2d)" d="M 105.477289 74.36625 
L 105.891389 74.36625 
L 105.891389 74.36625 
L 105.477289 74.36625 
z
" style="fill:#ffa500;"/>
   </g>
   <g id="patch_168">
    <path clip-path="url(#p63aef68d2d)" d="M 105.891389 74.36625 
L 106.305489 74.36625 
L 106.305489 74.36625 
L 105.891389 74.36625 
z
" style="fill:#ffa500;"/>
   </g>
   <g id="patch_169">
    <path clip-path="url(#p63aef68d2d)" d="M 106.305489 74.36625 
L 106.71959 74.36625 
L 106.71959 74.36625 
L 106.305489 74.36625 
z
" style="fill:#ffa500;"/>
   </g>
   <g id="patch_170">
    <path clip-path="url(#p63aef68d2d)" d="M 106.71959 74.36625 
L 107.13369 74.36625 
L 107.13369 74.36625 
L 106.71959 74.36625 
z
" style="fill:#ffa500;"/>
   </g>
   <g id="patch_171">
    <path clip-path="url(#p63aef68d2d)" d="M 107.13369 74.36625 
L 107.54779 74.36625 
L 107.54779 74.36625 
L 107.13369 74.36625 
z
" style="fill:#ffa500;"/>
   </g>
   <g id="patch_172">
    <path clip-path="url(#p63aef68d2d)" d="M 107.54779 74.36625 
L 107.96189 74.36625 
L 107.96189 74.36625 
L 107.54779 74.36625 
z
" style="fill:#ffa500;"/>
   </g>
   <g id="patch_173">
    <path clip-path="url(#p63aef68d2d)" d="M 107.96189 74.36625 
L 108.37599 74.36625 
L 108.37599 74.36625 
L 107.96189 74.36625 
z
" style="fill:#ffa500;"/>
   </g>
   <g id="patch_174">
    <path clip-path="url(#p63aef68d2d)" d="M 108.37599 74.36625 
L 108.79009 74.36625 
L 108.79009 74.36625 
L 108.37599 74.36625 
z
" style="fill:#ffa500;"/>
   </g>
   <g id="patch_175">
    <path clip-path="url(#p63aef68d2d)" d="M 108.79009 74.36625 
L 109.204191 74.36625 
L 109.204191 74.36625 
L 108.79009 74.36625 
z
" style="fill:#ffa500;"/>
   </g>
   <g id="patch_176">
    <path clip-path="url(#p63aef68d2d)" d="M 109.204191 74.36625 
L 109.618291 74.36625 
L 109.618291 74.36625 
L 109.204191 74.36625 
z
" style="fill:#ffa500;"/>
   </g>
   <g id="patch_177">
    <path clip-path="url(#p63aef68d2d)" d="M 109.618291 74.36625 
L 110.032391 74.36625 
L 110.032391 74.36625 
L 109.618291 74.36625 
z
" style="fill:#ffa500;"/>
   </g>
   <g id="patch_178">
    <path clip-path="url(#p63aef68d2d)" d="M 110.032391 74.36625 
L 110.446491 74.36625 
L 110.446491 74.36625 
L 110.032391 74.36625 
z
" style="fill:#ffa500;"/>
   </g>
   <g id="patch_179">
    <path clip-path="url(#p63aef68d2d)" d="M 110.446491 74.36625 
L 110.860591 74.36625 
L 110.860591 74.36625 
L 110.446491 74.36625 
z
" style="fill:#ffa500;"/>
   </g>
   <g id="patch_180">
    <path clip-path="url(#p63aef68d2d)" d="M 110.860591 74.36625 
L 111.274692 74.36625 
L 111.274692 74.36625 
L 110.860591 74.36625 
z
" style="fill:#ffa500;"/>
   </g>
   <g id="patch_181">
    <path clip-path="url(#p63aef68d2d)" d="M 111.274692 74.36625 
L 111.688792 74.36625 
L 111.688792 74.36625 
L 111.274692 74.36625 
z
" style="fill:#ffa500;"/>
   </g>
   <g id="patch_182">
    <path clip-path="url(#p63aef68d2d)" d="M 111.688792 74.36625 
L 112.102892 74.36625 
L 112.102892 74.36625 
L 111.688792 74.36625 
z
" style="fill:#ffa500;"/>
   </g>
   <g id="patch_183">
    <path clip-path="url(#p63aef68d2d)" d="M 112.102892 74.36625 
L 112.516992 74.36625 
L 112.516992 74.36625 
L 112.102892 74.36625 
z
" style="fill:#ffa500;"/>
   </g>
   <g id="patch_184">
    <path clip-path="url(#p63aef68d2d)" d="M 112.516992 74.36625 
L 112.931092 74.36625 
L 112.931092 74.36625 
L 112.516992 74.36625 
z
" style="fill:#ffa500;"/>
   </g>
   <g id="patch_185">
    <path clip-path="url(#p63aef68d2d)" d="M 112.931092 74.36625 
L 113.345192 74.36625 
L 113.345192 74.36625 
L 112.931092 74.36625 
z
" style="fill:#ffa500;"/>
   </g>
   <g id="patch_186">
    <path clip-path="url(#p63aef68d2d)" d="M 113.345192 74.36625 
L 113.759293 74.36625 
L 113.759293 74.36625 
L 113.345192 74.36625 
z
" style="fill:#ffa500;"/>
   </g>
   <g id="patch_187">
    <path clip-path="url(#p63aef68d2d)" d="M 113.759293 74.36625 
L 114.173393 74.36625 
L 114.173393 74.36625 
L 113.759293 74.36625 
z
" style="fill:#ffa500;"/>
   </g>
   <g id="patch_188">
    <path clip-path="url(#p63aef68d2d)" d="M 114.173393 74.36625 
L 114.587493 74.36625 
L 114.587493 74.36625 
L 114.173393 74.36625 
z
" style="fill:#ffa500;"/>
   </g>
   <g id="patch_189">
    <path clip-path="url(#p63aef68d2d)" d="M 114.587493 74.36625 
L 115.001593 74.36625 
L 115.001593 74.36625 
L 114.587493 74.36625 
z
" style="fill:#ffa500;"/>
   </g>
   <g id="patch_190">
    <path clip-path="url(#p63aef68d2d)" d="M 115.001593 74.36625 
L 115.415693 74.36625 
L 115.415693 74.36625 
L 115.001593 74.36625 
z
" style="fill:#ffa500;"/>
   </g>
   <g id="patch_191">
    <path clip-path="url(#p63aef68d2d)" d="M 115.415693 74.36625 
L 115.829794 74.36625 
L 115.829794 74.36625 
L 115.415693 74.36625 
z
" style="fill:#ffa500;"/>
   </g>
   <g id="patch_192">
    <path clip-path="url(#p63aef68d2d)" d="M 115.829794 74.36625 
L 116.243894 74.36625 
L 116.243894 74.36625 
L 115.829794 74.36625 
z
" style="fill:#ffa500;"/>
   </g>
   <g id="patch_193">
    <path clip-path="url(#p63aef68d2d)" d="M 116.243894 74.36625 
L 116.657994 74.36625 
L 116.657994 74.36625 
L 116.243894 74.36625 
z
" style="fill:#ffa500;"/>
   </g>
   <g id="patch_194">
    <path clip-path="url(#p63aef68d2d)" d="M 116.657994 74.36625 
L 117.072094 74.36625 
L 117.072094 74.36625 
L 116.657994 74.36625 
z
" style="fill:#ffa500;"/>
   </g>
   <g id="patch_195">
    <path clip-path="url(#p63aef68d2d)" d="M 117.072094 74.36625 
L 117.486194 74.36625 
L 117.486194 74.36625 
L 117.072094 74.36625 
z
" style="fill:#ffa500;"/>
   </g>
   <g id="patch_196">
    <path clip-path="url(#p63aef68d2d)" d="M 117.486194 74.36625 
L 117.900295 74.36625 
L 117.900295 74.36625 
L 117.486194 74.36625 
z
" style="fill:#ffa500;"/>
   </g>
   <g id="patch_197">
    <path clip-path="url(#p63aef68d2d)" d="M 117.900295 74.36625 
L 118.314395 74.36625 
L 118.314395 74.36625 
L 117.900295 74.36625 
z
" style="fill:#ffa500;"/>
   </g>
   <g id="patch_198">
    <path clip-path="url(#p63aef68d2d)" d="M 118.314395 74.36625 
L 118.728495 74.36625 
L 118.728495 74.36625 
L 118.314395 74.36625 
z
" style="fill:#ffa500;"/>
   </g>
   <g id="patch_199">
    <path clip-path="url(#p63aef68d2d)" d="M 118.728495 74.36625 
L 119.142595 74.36625 
L 119.142595 74.36625 
L 118.728495 74.36625 
z
" style="fill:#ffa500;"/>
   </g>
   <g id="patch_200">
    <path clip-path="url(#p63aef68d2d)" d="M 119.142595 74.36625 
L 119.556695 74.36625 
L 119.556695 74.36625 
L 119.142595 74.36625 
z
" style="fill:#ffa500;"/>
   </g>
   <g id="patch_201">
    <path clip-path="url(#p63aef68d2d)" d="M 119.556695 74.36625 
L 119.970795 74.36625 
L 119.970795 74.36625 
L 119.556695 74.36625 
z
" style="fill:#ffa500;"/>
   </g>
   <g id="patch_202">
    <path clip-path="url(#p63aef68d2d)" d="M 119.970795 74.36625 
L 120.384896 74.36625 
L 120.384896 74.36625 
L 119.970795 74.36625 
z
" style="fill:#ffa500;"/>
   </g>
   <g id="patch_203">
    <path clip-path="url(#p63aef68d2d)" d="M 120.384896 74.36625 
L 120.798996 74.36625 
L 120.798996 74.36625 
L 120.384896 74.36625 
z
" style="fill:#ffa500;"/>
   </g>
   <g id="patch_204">
    <path clip-path="url(#p63aef68d2d)" d="M 120.798996 74.36625 
L 121.213096 74.36625 
L 121.213096 74.36625 
L 120.798996 74.36625 
z
" style="fill:#ffa500;"/>
   </g>
   <g id="matplotlib.axis_3">
    <g id="xtick_3">
     <g id="line2d_3">
      <g>
       <use style="stroke:#000000;stroke-width:1.5;" x="79.803077" xlink:href="#mbe718e1891" y="74.36625"/>
      </g>
     </g>
     <g id="text_6">
      <text style="font-family:Arial;font-size:8px;font-style:normal;font-weight:normal;text-anchor:middle;" transform="rotate(-0, 79.803077, 87.0925)" x="79.803077" y="87.0925">0</text>
     </g>
    </g>
    <g id="xtick_4">
     <g id="line2d_4">
      <g>
       <use style="stroke:#000000;stroke-width:1.5;" x="121.213096" xlink:href="#mbe718e1891" y="74.36625"/>
      </g>
     </g>
     <g id="text_7">
      <text style="font-family:Arial;font-size:8px;font-style:normal;font-weight:normal;text-anchor:middle;" transform="rotate(-0, 121.213096, 87.0925)" x="121.213096" y="87.0925">50000</text>
     </g>
    </g>
    <g id="text_8">
     <text style="font-family:Arial;font-size:8px;font-style:normal;font-weight:normal;text-anchor:middle;" transform="rotate(-0, 100.508087, 98.40875)" x="100.508087" y="98.40875">Energy</text>
    </g>
   </g>
   <g id="matplotlib.axis_4"/>
   <g id="patch_205">
    <path d="M 77.732577 74.36625 
L 123.283597 74.36625 
" style="fill:none;stroke:#000000;stroke-linecap:square;stroke-linejoin:miter;stroke-width:1.5;"/>
   </g>
   <g id="text_9">
    <text style="font-family:Arial;font-size:8px;font-style:normal;font-weight:normal;text-anchor:middle;" transform="rotate(-0, 100.508087, 12.92625)" x="100.508087" y="12.92625">LP</text>
   </g>
  </g>
  <g id="axes_3">
   <g id="patch_206">
    <path d="M 136.948903 74.36625 
L 182.499923 74.36625 
L 182.499923 18.92625 
L 136.948903 18.92625 
z
" style="fill:none;"/>
   </g>
   <g id="patch_207">
    <path clip-path="url(#pf6cb3f407b)" d="M 139.019404 74.36625 
L 139.433504 74.36625 
L 139.433504 74.36625 
L 139.019404 74.36625 
z
" style="fill:#008000;"/>
   </g>
   <g id="patch_208">
    <path clip-path="url(#pf6cb3f407b)" d="M 139.433504 74.36625 
L 139.847604 74.36625 
L 139.847604 74.36625 
L 139.433504 74.36625 
z
" style="fill:#008000;"/>
   </g>
   <g id="patch_209">
    <path clip-path="url(#pf6cb3f407b)" d="M 139.847604 74.36625 
L 140.261705 74.36625 
L 140.261705 74.27084 
L 139.847604 74.27084 
z
" style="fill:#008000;"/>
   </g>
   <g id="patch_210">
    <path clip-path="url(#pf6cb3f407b)" d="M 140.261705 74.36625 
L 140.675805 74.36625 
L 140.675805 73.545722 
L 140.261705 73.545722 
z
" style="fill:#008000;"/>
   </g>
   <g id="patch_211">
    <path clip-path="url(#pf6cb3f407b)" d="M 140.675805 74.36625 
L 141.089905 74.36625 
L 141.089905 71.942831 
L 140.675805 71.942831 
z
" style="fill:#008000;"/>
   </g>
   <g id="patch_212">
    <path clip-path="url(#pf6cb3f407b)" d="M 141.089905 74.36625 
L 141.504005 74.36625 
L 141.504005 69.710233 
L 141.089905 69.710233 
z
" style="fill:#008000;"/>
   </g>
   <g id="patch_213">
    <path clip-path="url(#pf6cb3f407b)" d="M 141.504005 74.36625 
L 141.918105 74.36625 
L 141.918105 68.011931 
L 141.504005 68.011931 
z
" style="fill:#008000;"/>
   </g>
   <g id="patch_214">
    <path clip-path="url(#pf6cb3f407b)" d="M 141.918105 74.36625 
L 142.332205 74.36625 
L 142.332205 64.806149 
L 141.918105 64.806149 
z
" style="fill:#008000;"/>
   </g>
   <g id="patch_215">
    <path clip-path="url(#pf6cb3f407b)" d="M 142.332205 74.36625 
L 142.746306 74.36625 
L 142.746306 63.031519 
L 142.332205 63.031519 
z
" style="fill:#008000;"/>
   </g>
   <g id="patch_216">
    <path clip-path="url(#pf6cb3f407b)" d="M 142.746306 74.36625 
L 143.160406 74.36625 
L 143.160406 59.444096 
L 142.746306 59.444096 
z
" style="fill:#008000;"/>
   </g>
   <g id="patch_217">
    <path clip-path="url(#pf6cb3f407b)" d="M 143.160406 74.36625 
L 143.574506 74.36625 
L 143.574506 57.535892 
L 143.160406 57.535892 
z
" style="fill:#008000;"/>
   </g>
   <g id="patch_218">
    <path clip-path="url(#pf6cb3f407b)" d="M 143.574506 74.36625 
L 143.988606 74.36625 
L 143.988606 54.368274 
L 143.574506 54.368274 
z
" style="fill:#008000;"/>
   </g>
   <g id="patch_219">
    <path clip-path="url(#pf6cb3f407b)" d="M 143.988606 74.36625 
L 144.402706 74.36625 
L 144.402706 50.265636 
L 143.988606 50.265636 
z
" style="fill:#008000;"/>
   </g>
   <g id="patch_220">
    <path clip-path="url(#pf6cb3f407b)" d="M 144.402706 74.36625 
L 144.816807 74.36625 
L 144.816807 47.002607 
L 144.402706 47.002607 
z
" style="fill:#008000;"/>
   </g>
   <g id="patch_221">
    <path clip-path="url(#pf6cb3f407b)" d="M 144.816807 74.36625 
L 145.230907 74.36625 
L 145.230907 44.464696 
L 144.816807 44.464696 
z
" style="fill:#008000;"/>
   </g>
   <g id="patch_222">
    <path clip-path="url(#pf6cb3f407b)" d="M 145.230907 74.36625 
L 145.645007 74.36625 
L 145.645007 39.923171 
L 145.230907 39.923171 
z
" style="fill:#008000;"/>
   </g>
   <g id="patch_223">
    <path clip-path="url(#pf6cb3f407b)" d="M 145.645007 74.36625 
L 146.059107 74.36625 
L 146.059107 38.873659 
L 145.645007 38.873659 
z
" style="fill:#008000;"/>
   </g>
   <g id="patch_224">
    <path clip-path="url(#pf6cb3f407b)" d="M 146.059107 74.36625 
L 146.473207 74.36625 
L 146.473207 36.202173 
L 146.059107 36.202173 
z
" style="fill:#008000;"/>
   </g>
   <g id="patch_225">
    <path clip-path="url(#pf6cb3f407b)" d="M 146.473207 74.36625 
L 146.887308 74.36625 
L 146.887308 32.462094 
L 146.473207 32.462094 
z
" style="fill:#008000;"/>
   </g>
   <g id="patch_226">
    <path clip-path="url(#pf6cb3f407b)" d="M 146.887308 74.36625 
L 147.301408 74.36625 
L 147.301408 32.194945 
L 146.887308 32.194945 
z
" style="fill:#008000;"/>
   </g>
   <g id="patch_227">
    <path clip-path="url(#pf6cb3f407b)" d="M 147.301408 74.36625 
L 147.715508 74.36625 
L 147.715508 30.057757 
L 147.301408 30.057757 
z
" style="fill:#008000;"/>
   </g>
   <g id="patch_228">
    <path clip-path="url(#pf6cb3f407b)" d="M 147.715508 74.36625 
L 148.129608 74.36625 
L 148.129608 27.042795 
L 147.715508 27.042795 
z
" style="fill:#008000;"/>
   </g>
   <g id="patch_229">
    <path clip-path="url(#pf6cb3f407b)" d="M 148.129608 74.36625 
L 148.543708 74.36625 
L 148.543708 27.481682 
L 148.129608 27.481682 
z
" style="fill:#008000;"/>
   </g>
   <g id="patch_230">
    <path clip-path="url(#pf6cb3f407b)" d="M 148.543708 74.36625 
L 148.957808 74.36625 
L 148.957808 26.012365 
L 148.543708 26.012365 
z
" style="fill:#008000;"/>
   </g>
   <g id="patch_231">
    <path clip-path="url(#pf6cb3f407b)" d="M 148.957808 74.36625 
L 149.371909 74.36625 
L 149.371909 26.909221 
L 148.957808 26.909221 
z
" style="fill:#008000;"/>
   </g>
   <g id="patch_232">
    <path clip-path="url(#pf6cb3f407b)" d="M 149.371909 74.36625 
L 149.786009 74.36625 
L 149.786009 22.882911 
L 149.371909 22.882911 
z
" style="fill:#008000;"/>
   </g>
   <g id="patch_233">
    <path clip-path="url(#pf6cb3f407b)" d="M 149.786009 74.36625 
L 150.200109 74.36625 
L 150.200109 24.829279 
L 149.786009 24.829279 
z
" style="fill:#008000;"/>
   </g>
   <g id="patch_234">
    <path clip-path="url(#pf6cb3f407b)" d="M 150.200109 74.36625 
L 150.614209 74.36625 
L 150.614209 24.142325 
L 150.200109 24.142325 
z
" style="fill:#008000;"/>
   </g>
   <g id="patch_235">
    <path clip-path="url(#pf6cb3f407b)" d="M 150.614209 74.36625 
L 151.028309 74.36625 
L 151.028309 21.56625 
L 150.614209 21.56625 
z
" style="fill:#008000;"/>
   </g>
   <g id="patch_236">
    <path clip-path="url(#pf6cb3f407b)" d="M 151.028309 74.36625 
L 151.44241 74.36625 
L 151.44241 25.859709 
L 151.028309 25.859709 
z
" style="fill:#008000;"/>
   </g>
   <g id="patch_237">
    <path clip-path="url(#pf6cb3f407b)" d="M 151.44241 74.36625 
L 151.85651 74.36625 
L 151.85651 28.111389 
L 151.44241 28.111389 
z
" style="fill:#008000;"/>
   </g>
   <g id="patch_238">
    <path clip-path="url(#pf6cb3f407b)" d="M 151.85651 74.36625 
L 152.27061 74.36625 
L 152.27061 32.51934 
L 151.85651 32.51934 
z
" style="fill:#008000;"/>
   </g>
   <g id="patch_239">
    <path clip-path="url(#pf6cb3f407b)" d="M 152.27061 74.36625 
L 152.68471 74.36625 
L 152.68471 38.530182 
L 152.27061 38.530182 
z
" style="fill:#008000;"/>
   </g>
   <g id="patch_240">
    <path clip-path="url(#pf6cb3f407b)" d="M 152.68471 74.36625 
L 153.09881 74.36625 
L 153.09881 47.880381 
L 152.68471 47.880381 
z
" style="fill:#008000;"/>
   </g>
   <g id="patch_241">
    <path clip-path="url(#pf6cb3f407b)" d="M 153.09881 74.36625 
L 153.51291 74.36625 
L 153.51291 54.196536 
L 153.09881 54.196536 
z
" style="fill:#008000;"/>
   </g>
   <g id="patch_242">
    <path clip-path="url(#pf6cb3f407b)" d="M 153.51291 74.36625 
L 153.927011 74.36625 
L 153.927011 60.092885 
L 153.51291 60.092885 
z
" style="fill:#008000;"/>
   </g>
   <g id="patch_243">
    <path clip-path="url(#pf6cb3f407b)" d="M 153.927011 74.36625 
L 154.341111 74.36625 
L 154.341111 66.008317 
L 153.927011 66.008317 
z
" style="fill:#008000;"/>
   </g>
   <g id="patch_244">
    <path clip-path="url(#pf6cb3f407b)" d="M 154.341111 74.36625 
L 154.755211 74.36625 
L 154.755211 68.927869 
L 154.341111 68.927869 
z
" style="fill:#008000;"/>
   </g>
   <g id="patch_245">
    <path clip-path="url(#pf6cb3f407b)" d="M 154.755211 74.36625 
L 155.169311 74.36625 
L 155.169311 71.885585 
L 154.755211 71.885585 
z
" style="fill:#008000;"/>
   </g>
   <g id="patch_246">
    <path clip-path="url(#pf6cb3f407b)" d="M 155.169311 74.36625 
L 155.583411 74.36625 
L 155.583411 73.183164 
L 155.169311 73.183164 
z
" style="fill:#008000;"/>
   </g>
   <g id="patch_247">
    <path clip-path="url(#pf6cb3f407b)" d="M 155.583411 74.36625 
L 155.997512 74.36625 
L 155.997512 73.870117 
L 155.583411 73.870117 
z
" style="fill:#008000;"/>
   </g>
   <g id="patch_248">
    <path clip-path="url(#pf6cb3f407b)" d="M 155.997512 74.36625 
L 156.411612 74.36625 
L 156.411612 74.27084 
L 155.997512 74.27084 
z
" style="fill:#008000;"/>
   </g>
   <g id="patch_249">
    <path clip-path="url(#pf6cb3f407b)" d="M 156.411612 74.36625 
L 156.825712 74.36625 
L 156.825712 74.36625 
L 156.411612 74.36625 
z
" style="fill:#008000;"/>
   </g>
   <g id="patch_250">
    <path clip-path="url(#pf6cb3f407b)" d="M 156.825712 74.36625 
L 157.239812 74.36625 
L 157.239812 74.36625 
L 156.825712 74.36625 
z
" style="fill:#008000;"/>
   </g>
   <g id="patch_251">
    <path clip-path="url(#pf6cb3f407b)" d="M 157.239812 74.36625 
L 157.653912 74.36625 
L 157.653912 74.36625 
L 157.239812 74.36625 
z
" style="fill:#008000;"/>
   </g>
   <g id="patch_252">
    <path clip-path="url(#pf6cb3f407b)" d="M 157.653912 74.36625 
L 158.068013 74.36625 
L 158.068013 74.36625 
L 157.653912 74.36625 
z
" style="fill:#008000;"/>
   </g>
   <g id="patch_253">
    <path clip-path="url(#pf6cb3f407b)" d="M 158.068013 74.36625 
L 158.482113 74.36625 
L 158.482113 74.36625 
L 158.068013 74.36625 
z
" style="fill:#008000;"/>
   </g>
   <g id="patch_254">
    <path clip-path="url(#pf6cb3f407b)" d="M 158.482113 74.36625 
L 158.896213 74.36625 
L 158.896213 74.36625 
L 158.482113 74.36625 
z
" style="fill:#008000;"/>
   </g>
   <g id="patch_255">
    <path clip-path="url(#pf6cb3f407b)" d="M 158.896213 74.36625 
L 159.310313 74.36625 
L 159.310313 74.36625 
L 158.896213 74.36625 
z
" style="fill:#008000;"/>
   </g>
   <g id="patch_256">
    <path clip-path="url(#pf6cb3f407b)" d="M 159.310313 74.36625 
L 159.724413 74.36625 
L 159.724413 74.36625 
L 159.310313 74.36625 
z
" style="fill:#008000;"/>
   </g>
   <g id="patch_257">
    <path clip-path="url(#pf6cb3f407b)" d="M 159.724413 74.36625 
L 160.138513 74.36625 
L 160.138513 74.36625 
L 159.724413 74.36625 
z
" style="fill:#008000;"/>
   </g>
   <g id="patch_258">
    <path clip-path="url(#pf6cb3f407b)" d="M 160.138513 74.36625 
L 160.552614 74.36625 
L 160.552614 74.36625 
L 160.138513 74.36625 
z
" style="fill:#008000;"/>
   </g>
   <g id="patch_259">
    <path clip-path="url(#pf6cb3f407b)" d="M 160.552614 74.36625 
L 160.966714 74.36625 
L 160.966714 74.36625 
L 160.552614 74.36625 
z
" style="fill:#008000;"/>
   </g>
   <g id="patch_260">
    <path clip-path="url(#pf6cb3f407b)" d="M 160.966714 74.36625 
L 161.380814 74.36625 
L 161.380814 74.36625 
L 160.966714 74.36625 
z
" style="fill:#008000;"/>
   </g>
   <g id="patch_261">
    <path clip-path="url(#pf6cb3f407b)" d="M 161.380814 74.36625 
L 161.794914 74.36625 
L 161.794914 74.36625 
L 161.380814 74.36625 
z
" style="fill:#008000;"/>
   </g>
   <g id="patch_262">
    <path clip-path="url(#pf6cb3f407b)" d="M 161.794914 74.36625 
L 162.209014 74.36625 
L 162.209014 74.36625 
L 161.794914 74.36625 
z
" style="fill:#008000;"/>
   </g>
   <g id="patch_263">
    <path clip-path="url(#pf6cb3f407b)" d="M 162.209014 74.36625 
L 162.623115 74.36625 
L 162.623115 74.36625 
L 162.209014 74.36625 
z
" style="fill:#008000;"/>
   </g>
   <g id="patch_264">
    <path clip-path="url(#pf6cb3f407b)" d="M 162.623115 74.36625 
L 163.037215 74.36625 
L 163.037215 74.36625 
L 162.623115 74.36625 
z
" style="fill:#008000;"/>
   </g>
   <g id="patch_265">
    <path clip-path="url(#pf6cb3f407b)" d="M 163.037215 74.36625 
L 163.451315 74.36625 
L 163.451315 74.36625 
L 163.037215 74.36625 
z
" style="fill:#008000;"/>
   </g>
   <g id="patch_266">
    <path clip-path="url(#pf6cb3f407b)" d="M 163.451315 74.36625 
L 163.865415 74.36625 
L 163.865415 74.36625 
L 163.451315 74.36625 
z
" style="fill:#008000;"/>
   </g>
   <g id="patch_267">
    <path clip-path="url(#pf6cb3f407b)" d="M 163.865415 74.36625 
L 164.279515 74.36625 
L 164.279515 74.36625 
L 163.865415 74.36625 
z
" style="fill:#008000;"/>
   </g>
   <g id="patch_268">
    <path clip-path="url(#pf6cb3f407b)" d="M 164.279515 74.36625 
L 164.693615 74.36625 
L 164.693615 74.36625 
L 164.279515 74.36625 
z
" style="fill:#008000;"/>
   </g>
   <g id="patch_269">
    <path clip-path="url(#pf6cb3f407b)" d="M 164.693615 74.36625 
L 165.107716 74.36625 
L 165.107716 74.36625 
L 164.693615 74.36625 
z
" style="fill:#008000;"/>
   </g>
   <g id="patch_270">
    <path clip-path="url(#pf6cb3f407b)" d="M 165.107716 74.36625 
L 165.521816 74.36625 
L 165.521816 74.36625 
L 165.107716 74.36625 
z
" style="fill:#008000;"/>
   </g>
   <g id="patch_271">
    <path clip-path="url(#pf6cb3f407b)" d="M 165.521816 74.36625 
L 165.935916 74.36625 
L 165.935916 74.36625 
L 165.521816 74.36625 
z
" style="fill:#008000;"/>
   </g>
   <g id="patch_272">
    <path clip-path="url(#pf6cb3f407b)" d="M 165.935916 74.36625 
L 166.350016 74.36625 
L 166.350016 74.36625 
L 165.935916 74.36625 
z
" style="fill:#008000;"/>
   </g>
   <g id="patch_273">
    <path clip-path="url(#pf6cb3f407b)" d="M 166.350016 74.36625 
L 166.764116 74.36625 
L 166.764116 74.36625 
L 166.350016 74.36625 
z
" style="fill:#008000;"/>
   </g>
   <g id="patch_274">
    <path clip-path="url(#pf6cb3f407b)" d="M 166.764116 74.36625 
L 167.178217 74.36625 
L 167.178217 74.36625 
L 166.764116 74.36625 
z
" style="fill:#008000;"/>
   </g>
   <g id="patch_275">
    <path clip-path="url(#pf6cb3f407b)" d="M 167.178217 74.36625 
L 167.592317 74.36625 
L 167.592317 74.36625 
L 167.178217 74.36625 
z
" style="fill:#008000;"/>
   </g>
   <g id="patch_276">
    <path clip-path="url(#pf6cb3f407b)" d="M 167.592317 74.36625 
L 168.006417 74.36625 
L 168.006417 74.36625 
L 167.592317 74.36625 
z
" style="fill:#008000;"/>
   </g>
   <g id="patch_277">
    <path clip-path="url(#pf6cb3f407b)" d="M 168.006417 74.36625 
L 168.420517 74.36625 
L 168.420517 74.36625 
L 168.006417 74.36625 
z
" style="fill:#008000;"/>
   </g>
   <g id="patch_278">
    <path clip-path="url(#pf6cb3f407b)" d="M 168.420517 74.36625 
L 168.834617 74.36625 
L 168.834617 74.36625 
L 168.420517 74.36625 
z
" style="fill:#008000;"/>
   </g>
   <g id="patch_279">
    <path clip-path="url(#pf6cb3f407b)" d="M 168.834617 74.36625 
L 169.248718 74.36625 
L 169.248718 74.36625 
L 168.834617 74.36625 
z
" style="fill:#008000;"/>
   </g>
   <g id="patch_280">
    <path clip-path="url(#pf6cb3f407b)" d="M 169.248718 74.36625 
L 169.662818 74.36625 
L 169.662818 74.36625 
L 169.248718 74.36625 
z
" style="fill:#008000;"/>
   </g>
   <g id="patch_281">
    <path clip-path="url(#pf6cb3f407b)" d="M 169.662818 74.36625 
L 170.076918 74.36625 
L 170.076918 74.36625 
L 169.662818 74.36625 
z
" style="fill:#008000;"/>
   </g>
   <g id="patch_282">
    <path clip-path="url(#pf6cb3f407b)" d="M 170.076918 74.36625 
L 170.491018 74.36625 
L 170.491018 74.36625 
L 170.076918 74.36625 
z
" style="fill:#008000;"/>
   </g>
   <g id="patch_283">
    <path clip-path="url(#pf6cb3f407b)" d="M 170.491018 74.36625 
L 170.905118 74.36625 
L 170.905118 74.36625 
L 170.491018 74.36625 
z
" style="fill:#008000;"/>
   </g>
   <g id="patch_284">
    <path clip-path="url(#pf6cb3f407b)" d="M 170.905118 74.36625 
L 171.319218 74.36625 
L 171.319218 74.36625 
L 170.905118 74.36625 
z
" style="fill:#008000;"/>
   </g>
   <g id="patch_285">
    <path clip-path="url(#pf6cb3f407b)" d="M 171.319218 74.36625 
L 171.733319 74.36625 
L 171.733319 74.36625 
L 171.319218 74.36625 
z
" style="fill:#008000;"/>
   </g>
   <g id="patch_286">
    <path clip-path="url(#pf6cb3f407b)" d="M 171.733319 74.36625 
L 172.147419 74.36625 
L 172.147419 74.36625 
L 171.733319 74.36625 
z
" style="fill:#008000;"/>
   </g>
   <g id="patch_287">
    <path clip-path="url(#pf6cb3f407b)" d="M 172.147419 74.36625 
L 172.561519 74.36625 
L 172.561519 74.36625 
L 172.147419 74.36625 
z
" style="fill:#008000;"/>
   </g>
   <g id="patch_288">
    <path clip-path="url(#pf6cb3f407b)" d="M 172.561519 74.36625 
L 172.975619 74.36625 
L 172.975619 74.36625 
L 172.561519 74.36625 
z
" style="fill:#008000;"/>
   </g>
   <g id="patch_289">
    <path clip-path="url(#pf6cb3f407b)" d="M 172.975619 74.36625 
L 173.389719 74.36625 
L 173.389719 74.36625 
L 172.975619 74.36625 
z
" style="fill:#008000;"/>
   </g>
   <g id="patch_290">
    <path clip-path="url(#pf6cb3f407b)" d="M 173.389719 74.36625 
L 173.80382 74.36625 
L 173.80382 74.36625 
L 173.389719 74.36625 
z
" style="fill:#008000;"/>
   </g>
   <g id="patch_291">
    <path clip-path="url(#pf6cb3f407b)" d="M 173.80382 74.36625 
L 174.21792 74.36625 
L 174.21792 74.36625 
L 173.80382 74.36625 
z
" style="fill:#008000;"/>
   </g>
   <g id="patch_292">
    <path clip-path="url(#pf6cb3f407b)" d="M 174.21792 74.36625 
L 174.63202 74.36625 
L 174.63202 74.36625 
L 174.21792 74.36625 
z
" style="fill:#008000;"/>
   </g>
   <g id="patch_293">
    <path clip-path="url(#pf6cb3f407b)" d="M 174.63202 74.36625 
L 175.04612 74.36625 
L 175.04612 74.36625 
L 174.63202 74.36625 
z
" style="fill:#008000;"/>
   </g>
   <g id="patch_294">
    <path clip-path="url(#pf6cb3f407b)" d="M 175.04612 74.36625 
L 175.46022 74.36625 
L 175.46022 74.36625 
L 175.04612 74.36625 
z
" style="fill:#008000;"/>
   </g>
   <g id="patch_295">
    <path clip-path="url(#pf6cb3f407b)" d="M 175.46022 74.36625 
L 175.874321 74.36625 
L 175.874321 74.36625 
L 175.46022 74.36625 
z
" style="fill:#008000;"/>
   </g>
   <g id="patch_296">
    <path clip-path="url(#pf6cb3f407b)" d="M 175.874321 74.36625 
L 176.288421 74.36625 
L 176.288421 74.36625 
L 175.874321 74.36625 
z
" style="fill:#008000;"/>
   </g>
   <g id="patch_297">
    <path clip-path="url(#pf6cb3f407b)" d="M 176.288421 74.36625 
L 176.702521 74.36625 
L 176.702521 74.36625 
L 176.288421 74.36625 
z
" style="fill:#008000;"/>
   </g>
   <g id="patch_298">
    <path clip-path="url(#pf6cb3f407b)" d="M 176.702521 74.36625 
L 177.116621 74.36625 
L 177.116621 74.36625 
L 176.702521 74.36625 
z
" style="fill:#008000;"/>
   </g>
   <g id="patch_299">
    <path clip-path="url(#pf6cb3f407b)" d="M 177.116621 74.36625 
L 177.530721 74.36625 
L 177.530721 74.36625 
L 177.116621 74.36625 
z
" style="fill:#008000;"/>
   </g>
   <g id="patch_300">
    <path clip-path="url(#pf6cb3f407b)" d="M 177.530721 74.36625 
L 177.944821 74.36625 
L 177.944821 74.36625 
L 177.530721 74.36625 
z
" style="fill:#008000;"/>
   </g>
   <g id="patch_301">
    <path clip-path="url(#pf6cb3f407b)" d="M 177.944821 74.36625 
L 178.358922 74.36625 
L 178.358922 74.36625 
L 177.944821 74.36625 
z
" style="fill:#008000;"/>
   </g>
   <g id="patch_302">
    <path clip-path="url(#pf6cb3f407b)" d="M 178.358922 74.36625 
L 178.773022 74.36625 
L 178.773022 74.36625 
L 178.358922 74.36625 
z
" style="fill:#008000;"/>
   </g>
   <g id="patch_303">
    <path clip-path="url(#pf6cb3f407b)" d="M 178.773022 74.36625 
L 179.187122 74.36625 
L 179.187122 74.36625 
L 178.773022 74.36625 
z
" style="fill:#008000;"/>
   </g>
   <g id="patch_304">
    <path clip-path="url(#pf6cb3f407b)" d="M 179.187122 74.36625 
L 179.601222 74.36625 
L 179.601222 74.36625 
L 179.187122 74.36625 
z
" style="fill:#008000;"/>
   </g>
   <g id="patch_305">
    <path clip-path="url(#pf6cb3f407b)" d="M 179.601222 74.36625 
L 180.015322 74.36625 
L 180.015322 74.36625 
L 179.601222 74.36625 
z
" style="fill:#008000;"/>
   </g>
   <g id="patch_306">
    <path clip-path="url(#pf6cb3f407b)" d="M 180.015322 74.36625 
L 180.429423 74.36625 
L 180.429423 74.36625 
L 180.015322 74.36625 
z
" style="fill:#008000;"/>
   </g>
   <g id="matplotlib.axis_5">
    <g id="xtick_5">
     <g id="line2d_5">
      <g>
       <use style="stroke:#000000;stroke-width:1.5;" x="139.019404" xlink:href="#mbe718e1891" y="74.36625"/>
      </g>
     </g>
     <g id="text_10">
      <text style="font-family:Arial;font-size:8px;font-style:normal;font-weight:normal;text-anchor:middle;" transform="rotate(-0, 139.019404, 87.0925)" x="139.019404" y="87.0925">0</text>
     </g>
    </g>
    <g id="xtick_6">
     <g id="line2d_6">
      <g>
       <use style="stroke:#000000;stroke-width:1.5;" x="180.429423" xlink:href="#mbe718e1891" y="74.36625"/>
      </g>
     </g>
     <g id="text_11">
      <text style="font-family:Arial;font-size:8px;font-style:normal;font-weight:normal;text-anchor:middle;" transform="rotate(-0, 180.429423, 87.0925)" x="180.429423" y="87.0925">50000</text>
     </g>
    </g>
    <g id="text_12">
     <text style="font-family:Arial;font-size:8px;font-style:normal;font-weight:normal;text-anchor:middle;" transform="rotate(-0, 159.724413, 98.40875)" x="159.724413" y="98.40875">Energy</text>
    </g>
   </g>
   <g id="matplotlib.axis_6"/>
   <g id="patch_307">
    <path d="M 136.948903 74.36625 
L 182.499923 74.36625 
" style="fill:none;stroke:#000000;stroke-linecap:square;stroke-linejoin:miter;stroke-width:1.5;"/>
   </g>
   <g id="text_13">
    <text style="font-family:Arial;font-size:8px;font-style:normal;font-weight:normal;text-anchor:middle;" transform="rotate(-0, 159.724413, 12.92625)" x="159.724413" y="12.92625">PY</text>
   </g>
  </g>
  <g id="axes_4">
   <g id="patch_308">
    <path d="M 196.16523 74.36625 
L 241.71625 74.36625 
L 241.71625 18.92625 
L 196.16523 18.92625 
z
" style="fill:none;"/>
   </g>
   <g id="patch_309">
    <path clip-path="url(#p86221bfe16)" d="M 198.235731 74.36625 
L 198.649831 74.36625 
L 198.649831 74.36625 
L 198.235731 74.36625 
z
"/>
   </g>
   <g id="patch_310">
    <path clip-path="url(#p86221bfe16)" d="M 198.649831 74.36625 
L 199.063931 74.36625 
L 199.063931 74.36625 
L 198.649831 74.36625 
z
"/>
   </g>
   <g id="patch_311">
    <path clip-path="url(#p86221bfe16)" d="M 199.063931 74.36625 
L 199.478031 74.36625 
L 199.478031 74.36625 
L 199.063931 74.36625 
z
"/>
   </g>
   <g id="patch_312">
    <path clip-path="url(#p86221bfe16)" d="M 199.478031 74.36625 
L 199.892131 74.36625 
L 199.892131 74.36625 
L 199.478031 74.36625 
z
"/>
   </g>
   <g id="patch_313">
    <path clip-path="url(#p86221bfe16)" d="M 199.892131 74.36625 
L 200.306231 74.36625 
L 200.306231 74.36625 
L 199.892131 74.36625 
z
"/>
   </g>
   <g id="patch_314">
    <path clip-path="url(#p86221bfe16)" d="M 200.306231 74.36625 
L 200.720332 74.36625 
L 200.720332 74.36625 
L 200.306231 74.36625 
z
"/>
   </g>
   <g id="patch_315">
    <path clip-path="url(#p86221bfe16)" d="M 200.720332 74.36625 
L 201.134432 74.36625 
L 201.134432 74.36625 
L 200.720332 74.36625 
z
"/>
   </g>
   <g id="patch_316">
    <path clip-path="url(#p86221bfe16)" d="M 201.134432 74.36625 
L 201.548532 74.36625 
L 201.548532 74.36625 
L 201.134432 74.36625 
z
"/>
   </g>
   <g id="patch_317">
    <path clip-path="url(#p86221bfe16)" d="M 201.548532 74.36625 
L 201.962632 74.36625 
L 201.962632 74.36625 
L 201.548532 74.36625 
z
"/>
   </g>
   <g id="patch_318">
    <path clip-path="url(#p86221bfe16)" d="M 201.962632 74.36625 
L 202.376732 74.36625 
L 202.376732 74.36625 
L 201.962632 74.36625 
z
"/>
   </g>
   <g id="patch_319">
    <path clip-path="url(#p86221bfe16)" d="M 202.376732 74.36625 
L 202.790833 74.36625 
L 202.790833 74.36625 
L 202.376732 74.36625 
z
"/>
   </g>
   <g id="patch_320">
    <path clip-path="url(#p86221bfe16)" d="M 202.790833 74.36625 
L 203.204933 74.36625 
L 203.204933 74.36625 
L 202.790833 74.36625 
z
"/>
   </g>
   <g id="patch_321">
    <path clip-path="url(#p86221bfe16)" d="M 203.204933 74.36625 
L 203.619033 74.36625 
L 203.619033 74.36625 
L 203.204933 74.36625 
z
"/>
   </g>
   <g id="patch_322">
    <path clip-path="url(#p86221bfe16)" d="M 203.619033 74.36625 
L 204.033133 74.36625 
L 204.033133 74.339019 
L 203.619033 74.339019 
z
"/>
   </g>
   <g id="patch_323">
    <path clip-path="url(#p86221bfe16)" d="M 204.033133 74.36625 
L 204.447233 74.36625 
L 204.447233 74.36625 
L 204.033133 74.36625 
z
"/>
   </g>
   <g id="patch_324">
    <path clip-path="url(#p86221bfe16)" d="M 204.447233 74.36625 
L 204.861333 74.36625 
L 204.861333 74.311789 
L 204.447233 74.311789 
z
"/>
   </g>
   <g id="patch_325">
    <path clip-path="url(#p86221bfe16)" d="M 204.861333 74.36625 
L 205.275434 74.36625 
L 205.275434 74.230097 
L 204.861333 74.230097 
z
"/>
   </g>
   <g id="patch_326">
    <path clip-path="url(#p86221bfe16)" d="M 205.275434 74.36625 
L 205.689534 74.36625 
L 205.689534 74.202867 
L 205.275434 74.202867 
z
"/>
   </g>
   <g id="patch_327">
    <path clip-path="url(#p86221bfe16)" d="M 205.689534 74.36625 
L 206.103634 74.36625 
L 206.103634 73.8761 
L 205.689534 73.8761 
z
"/>
   </g>
   <g id="patch_328">
    <path clip-path="url(#p86221bfe16)" d="M 206.103634 74.36625 
L 206.517734 74.36625 
L 206.517734 73.440412 
L 206.103634 73.440412 
z
"/>
   </g>
   <g id="patch_329">
    <path clip-path="url(#p86221bfe16)" d="M 206.517734 74.36625 
L 206.931834 74.36625 
L 206.931834 73.549334 
L 206.517734 73.549334 
z
"/>
   </g>
   <g id="patch_330">
    <path clip-path="url(#p86221bfe16)" d="M 206.931834 74.36625 
L 207.345935 74.36625 
L 207.345935 73.494873 
L 206.931834 73.494873 
z
"/>
   </g>
   <g id="patch_331">
    <path clip-path="url(#p86221bfe16)" d="M 207.345935 74.36625 
L 207.760035 74.36625 
L 207.760035 72.596265 
L 207.345935 72.596265 
z
"/>
   </g>
   <g id="patch_332">
    <path clip-path="url(#p86221bfe16)" d="M 207.760035 74.36625 
L 208.174135 74.36625 
L 208.174135 72.215038 
L 207.760035 72.215038 
z
"/>
   </g>
   <g id="patch_333">
    <path clip-path="url(#p86221bfe16)" d="M 208.174135 74.36625 
L 208.588235 74.36625 
L 208.588235 70.989664 
L 208.174135 70.989664 
z
"/>
   </g>
   <g id="patch_334">
    <path clip-path="url(#p86221bfe16)" d="M 208.588235 74.36625 
L 209.002335 74.36625 
L 209.002335 70.227209 
L 208.588235 70.227209 
z
"/>
   </g>
   <g id="patch_335">
    <path clip-path="url(#p86221bfe16)" d="M 209.002335 74.36625 
L 209.416436 74.36625 
L 209.416436 69.76429 
L 209.002335 69.76429 
z
"/>
   </g>
   <g id="patch_336">
    <path clip-path="url(#p86221bfe16)" d="M 209.416436 74.36625 
L 209.830536 74.36625 
L 209.830536 68.375533 
L 209.416436 68.375533 
z
"/>
   </g>
   <g id="patch_337">
    <path clip-path="url(#p86221bfe16)" d="M 209.830536 74.36625 
L 210.244636 74.36625 
L 210.244636 66.496626 
L 209.830536 66.496626 
z
"/>
   </g>
   <g id="patch_338">
    <path clip-path="url(#p86221bfe16)" d="M 210.244636 74.36625 
L 210.658736 74.36625 
L 210.658736 65.244022 
L 210.244636 65.244022 
z
"/>
   </g>
   <g id="patch_339">
    <path clip-path="url(#p86221bfe16)" d="M 210.658736 74.36625 
L 211.072836 74.36625 
L 211.072836 63.256193 
L 210.658736 63.256193 
z
"/>
   </g>
   <g id="patch_340">
    <path clip-path="url(#p86221bfe16)" d="M 211.072836 74.36625 
L 211.486936 74.36625 
L 211.486936 60.750984 
L 211.072836 60.750984 
z
"/>
   </g>
   <g id="patch_341">
    <path clip-path="url(#p86221bfe16)" d="M 211.486936 74.36625 
L 211.901037 74.36625 
L 211.901037 60.070221 
L 211.486936 60.070221 
z
"/>
   </g>
   <g id="patch_342">
    <path clip-path="url(#p86221bfe16)" d="M 211.901037 74.36625 
L 212.315137 74.36625 
L 212.315137 58.681464 
L 211.901037 58.681464 
z
"/>
   </g>
   <g id="patch_343">
    <path clip-path="url(#p86221bfe16)" d="M 212.315137 74.36625 
L 212.729237 74.36625 
L 212.729237 56.094564 
L 212.315137 56.094564 
z
"/>
   </g>
   <g id="patch_344">
    <path clip-path="url(#p86221bfe16)" d="M 212.729237 74.36625 
L 213.143337 74.36625 
L 213.143337 53.34428 
L 212.729237 53.34428 
z
"/>
   </g>
   <g id="patch_345">
    <path clip-path="url(#p86221bfe16)" d="M 213.143337 74.36625 
L 213.557437 74.36625 
L 213.557437 49.640928 
L 213.143337 49.640928 
z
"/>
   </g>
   <g id="patch_346">
    <path clip-path="url(#p86221bfe16)" d="M 213.557437 74.36625 
L 213.971538 74.36625 
L 213.971538 48.007096 
L 213.557437 48.007096 
z
"/>
   </g>
   <g id="patch_347">
    <path clip-path="url(#p86221bfe16)" d="M 213.971538 74.36625 
L 214.385638 74.36625 
L 214.385638 44.984507 
L 213.971538 44.984507 
z
"/>
   </g>
   <g id="patch_348">
    <path clip-path="url(#p86221bfe16)" d="M 214.385638 74.36625 
L 214.799738 74.36625 
L 214.799738 44.712202 
L 214.385638 44.712202 
z
"/>
   </g>
   <g id="patch_349">
    <path clip-path="url(#p86221bfe16)" d="M 214.799738 74.36625 
L 215.213838 74.36625 
L 215.213838 39.810706 
L 214.799738 39.810706 
z
"/>
   </g>
   <g id="patch_350">
    <path clip-path="url(#p86221bfe16)" d="M 215.213838 74.36625 
L 215.627938 74.36625 
L 215.627938 39.238865 
L 215.213838 39.238865 
z
"/>
   </g>
   <g id="patch_351">
    <path clip-path="url(#p86221bfe16)" d="M 215.627938 74.36625 
L 216.042038 74.36625 
L 216.042038 34.88198 
L 215.627938 34.88198 
z
"/>
   </g>
   <g id="patch_352">
    <path clip-path="url(#p86221bfe16)" d="M 216.042038 74.36625 
L 216.456139 74.36625 
L 216.456139 33.547684 
L 216.042038 33.547684 
z
"/>
   </g>
   <g id="patch_353">
    <path clip-path="url(#p86221bfe16)" d="M 216.456139 74.36625 
L 216.870239 74.36625 
L 216.870239 28.482805 
L 216.456139 28.482805 
z
"/>
   </g>
   <g id="patch_354">
    <path clip-path="url(#p86221bfe16)" d="M 216.870239 74.36625 
L 217.284339 74.36625 
L 217.284339 28.183269 
L 216.870239 28.183269 
z
"/>
   </g>
   <g id="patch_355">
    <path clip-path="url(#p86221bfe16)" d="M 217.284339 74.36625 
L 217.698439 74.36625 
L 217.698439 27.094048 
L 217.284339 27.094048 
z
"/>
   </g>
   <g id="patch_356">
    <path clip-path="url(#p86221bfe16)" d="M 217.698439 74.36625 
L 218.112539 74.36625 
L 218.112539 26.331593 
L 217.698439 26.331593 
z
"/>
   </g>
   <g id="patch_357">
    <path clip-path="url(#p86221bfe16)" d="M 218.112539 74.36625 
L 218.52664 74.36625 
L 218.52664 26.086518 
L 218.112539 26.086518 
z
"/>
   </g>
   <g id="patch_358">
    <path clip-path="url(#p86221bfe16)" d="M 218.52664 74.36625 
L 218.94074 74.36625 
L 218.94074 24.534378 
L 218.52664 24.534378 
z
"/>
   </g>
   <g id="patch_359">
    <path clip-path="url(#p86221bfe16)" d="M 218.94074 74.36625 
L 219.35484 74.36625 
L 219.35484 24.616069 
L 218.94074 24.616069 
z
"/>
   </g>
   <g id="patch_360">
    <path clip-path="url(#p86221bfe16)" d="M 219.35484 74.36625 
L 219.76894 74.36625 
L 219.76894 21.56625 
L 219.35484 21.56625 
z
"/>
   </g>
   <g id="patch_361">
    <path clip-path="url(#p86221bfe16)" d="M 219.76894 74.36625 
L 220.18304 74.36625 
L 220.18304 22.791624 
L 219.76894 22.791624 
z
"/>
   </g>
   <g id="patch_362">
    <path clip-path="url(#p86221bfe16)" d="M 220.18304 74.36625 
L 220.597141 74.36625 
L 220.597141 25.078989 
L 220.18304 25.078989 
z
"/>
   </g>
   <g id="patch_363">
    <path clip-path="url(#p86221bfe16)" d="M 220.597141 74.36625 
L 221.011241 74.36625 
L 221.011241 24.12592 
L 220.597141 24.12592 
z
"/>
   </g>
   <g id="patch_364">
    <path clip-path="url(#p86221bfe16)" d="M 221.011241 74.36625 
L 221.425341 74.36625 
L 221.425341 27.066817 
L 221.011241 27.066817 
z
"/>
   </g>
   <g id="patch_365">
    <path clip-path="url(#p86221bfe16)" d="M 221.425341 74.36625 
L 221.839441 74.36625 
L 221.839441 26.032057 
L 221.425341 26.032057 
z
"/>
   </g>
   <g id="patch_366">
    <path clip-path="url(#p86221bfe16)" d="M 221.839441 74.36625 
L 222.253541 74.36625 
L 222.253541 29.27249 
L 221.839441 29.27249 
z
"/>
   </g>
   <g id="patch_367">
    <path clip-path="url(#p86221bfe16)" d="M 222.253541 74.36625 
L 222.667641 74.36625 
L 222.667641 29.190799 
L 222.253541 29.190799 
z
"/>
   </g>
   <g id="patch_368">
    <path clip-path="url(#p86221bfe16)" d="M 222.667641 74.36625 
L 223.081742 74.36625 
L 223.081742 33.520453 
L 222.667641 33.520453 
z
"/>
   </g>
   <g id="patch_369">
    <path clip-path="url(#p86221bfe16)" d="M 223.081742 74.36625 
L 223.495842 74.36625 
L 223.495842 37.768416 
L 223.081742 37.768416 
z
"/>
   </g>
   <g id="patch_370">
    <path clip-path="url(#p86221bfe16)" d="M 223.495842 74.36625 
L 223.909942 74.36625 
L 223.909942 38.721485 
L 223.495842 38.721485 
z
"/>
   </g>
   <g id="patch_371">
    <path clip-path="url(#p86221bfe16)" d="M 223.909942 74.36625 
L 224.324042 74.36625 
L 224.324042 40.273625 
L 223.909942 40.273625 
z
"/>
   </g>
   <g id="patch_372">
    <path clip-path="url(#p86221bfe16)" d="M 224.324042 74.36625 
L 224.738142 74.36625 
L 224.738142 43.323444 
L 224.324042 43.323444 
z
"/>
   </g>
   <g id="patch_373">
    <path clip-path="url(#p86221bfe16)" d="M 224.738142 74.36625 
L 225.152243 74.36625 
L 225.152243 47.489716 
L 224.738142 47.489716 
z
"/>
   </g>
   <g id="patch_374">
    <path clip-path="url(#p86221bfe16)" d="M 225.152243 74.36625 
L 225.566343 74.36625 
L 225.566343 49.041856 
L 225.152243 49.041856 
z
"/>
   </g>
   <g id="patch_375">
    <path clip-path="url(#p86221bfe16)" d="M 225.566343 74.36625 
L 225.980443 74.36625 
L 225.980443 52.227828 
L 225.566343 52.227828 
z
"/>
   </g>
   <g id="patch_376">
    <path clip-path="url(#p86221bfe16)" d="M 225.980443 74.36625 
L 226.394543 74.36625 
L 226.394543 54.86919 
L 225.980443 54.86919 
z
"/>
   </g>
   <g id="patch_377">
    <path clip-path="url(#p86221bfe16)" d="M 226.394543 74.36625 
L 226.808643 74.36625 
L 226.808643 55.005342 
L 226.394543 55.005342 
z
"/>
   </g>
   <g id="patch_378">
    <path clip-path="url(#p86221bfe16)" d="M 226.808643 74.36625 
L 227.222744 74.36625 
L 227.222744 58.926539 
L 226.808643 58.926539 
z
"/>
   </g>
   <g id="patch_379">
    <path clip-path="url(#p86221bfe16)" d="M 227.222744 74.36625 
L 227.636844 74.36625 
L 227.636844 61.731284 
L 227.222744 61.731284 
z
"/>
   </g>
   <g id="patch_380">
    <path clip-path="url(#p86221bfe16)" d="M 227.636844 74.36625 
L 228.050944 74.36625 
L 228.050944 63.419576 
L 227.636844 63.419576 
z
"/>
   </g>
   <g id="patch_381">
    <path clip-path="url(#p86221bfe16)" d="M 228.050944 74.36625 
L 228.465044 74.36625 
L 228.465044 64.290953 
L 228.050944 64.290953 
z
"/>
   </g>
   <g id="patch_382">
    <path clip-path="url(#p86221bfe16)" d="M 228.465044 74.36625 
L 228.879144 74.36625 
L 228.879144 66.14263 
L 228.465044 66.14263 
z
"/>
   </g>
   <g id="patch_383">
    <path clip-path="url(#p86221bfe16)" d="M 228.879144 74.36625 
L 229.293244 74.36625 
L 229.293244 66.796162 
L 228.879144 66.796162 
z
"/>
   </g>
   <g id="patch_384">
    <path clip-path="url(#p86221bfe16)" d="M 229.293244 74.36625 
L 229.707345 74.36625 
L 229.707345 68.457225 
L 229.293244 68.457225 
z
"/>
   </g>
   <g id="patch_385">
    <path clip-path="url(#p86221bfe16)" d="M 229.707345 74.36625 
L 230.121445 74.36625 
L 230.121445 70.553976 
L 229.707345 70.553976 
z
"/>
   </g>
   <g id="patch_386">
    <path clip-path="url(#p86221bfe16)" d="M 230.121445 74.36625 
L 230.535545 74.36625 
L 230.535545 71.343661 
L 230.121445 71.343661 
z
"/>
   </g>
   <g id="patch_387">
    <path clip-path="url(#p86221bfe16)" d="M 230.535545 74.36625 
L 230.949645 74.36625 
L 230.949645 71.697658 
L 230.535545 71.697658 
z
"/>
   </g>
   <g id="patch_388">
    <path clip-path="url(#p86221bfe16)" d="M 230.949645 74.36625 
L 231.363745 74.36625 
L 231.363745 72.650727 
L 230.949645 72.650727 
z
"/>
   </g>
   <g id="patch_389">
    <path clip-path="url(#p86221bfe16)" d="M 231.363745 74.36625 
L 231.777846 74.36625 
L 231.777846 73.249798 
L 231.363745 73.249798 
z
"/>
   </g>
   <g id="patch_390">
    <path clip-path="url(#p86221bfe16)" d="M 231.777846 74.36625 
L 232.191946 74.36625 
L 232.191946 73.603795 
L 231.777846 73.603795 
z
"/>
   </g>
   <g id="patch_391">
    <path clip-path="url(#p86221bfe16)" d="M 232.191946 74.36625 
L 232.606046 74.36625 
L 232.606046 73.658256 
L 232.191946 73.658256 
z
"/>
   </g>
   <g id="patch_392">
    <path clip-path="url(#p86221bfe16)" d="M 232.606046 74.36625 
L 233.020146 74.36625 
L 233.020146 74.039484 
L 232.606046 74.039484 
z
"/>
   </g>
   <g id="patch_393">
    <path clip-path="url(#p86221bfe16)" d="M 233.020146 74.36625 
L 233.434246 74.36625 
L 233.434246 74.175636 
L 233.020146 74.175636 
z
"/>
   </g>
   <g id="patch_394">
    <path clip-path="url(#p86221bfe16)" d="M 233.434246 74.36625 
L 233.848346 74.36625 
L 233.848346 73.930562 
L 233.434246 73.930562 
z
"/>
   </g>
   <g id="patch_395">
    <path clip-path="url(#p86221bfe16)" d="M 233.848346 74.36625 
L 234.262447 74.36625 
L 234.262447 74.284558 
L 233.848346 74.284558 
z
"/>
   </g>
   <g id="patch_396">
    <path clip-path="url(#p86221bfe16)" d="M 234.262447 74.36625 
L 234.676547 74.36625 
L 234.676547 74.230097 
L 234.262447 74.230097 
z
"/>
   </g>
   <g id="patch_397">
    <path clip-path="url(#p86221bfe16)" d="M 234.676547 74.36625 
L 235.090647 74.36625 
L 235.090647 74.36625 
L 234.676547 74.36625 
z
"/>
   </g>
   <g id="patch_398">
    <path clip-path="url(#p86221bfe16)" d="M 235.090647 74.36625 
L 235.504747 74.36625 
L 235.504747 74.36625 
L 235.090647 74.36625 
z
"/>
   </g>
   <g id="patch_399">
    <path clip-path="url(#p86221bfe16)" d="M 235.504747 74.36625 
L 235.918847 74.36625 
L 235.918847 74.36625 
L 235.504747 74.36625 
z
"/>
   </g>
   <g id="patch_400">
    <path clip-path="url(#p86221bfe16)" d="M 235.918847 74.36625 
L 236.332948 74.36625 
L 236.332948 74.36625 
L 235.918847 74.36625 
z
"/>
   </g>
   <g id="patch_401">
    <path clip-path="url(#p86221bfe16)" d="M 236.332948 74.36625 
L 236.747048 74.36625 
L 236.747048 74.36625 
L 236.332948 74.36625 
z
"/>
   </g>
   <g id="patch_402">
    <path clip-path="url(#p86221bfe16)" d="M 236.747048 74.36625 
L 237.161148 74.36625 
L 237.161148 74.36625 
L 236.747048 74.36625 
z
"/>
   </g>
   <g id="patch_403">
    <path clip-path="url(#p86221bfe16)" d="M 237.161148 74.36625 
L 237.575248 74.36625 
L 237.575248 74.36625 
L 237.161148 74.36625 
z
"/>
   </g>
   <g id="patch_404">
    <path clip-path="url(#p86221bfe16)" d="M 237.575248 74.36625 
L 237.989348 74.36625 
L 237.989348 74.36625 
L 237.575248 74.36625 
z
"/>
   </g>
   <g id="patch_405">
    <path clip-path="url(#p86221bfe16)" d="M 237.989348 74.36625 
L 238.403449 74.36625 
L 238.403449 74.36625 
L 237.989348 74.36625 
z
"/>
   </g>
   <g id="patch_406">
    <path clip-path="url(#p86221bfe16)" d="M 238.403449 74.36625 
L 238.817549 74.36625 
L 238.817549 74.36625 
L 238.403449 74.36625 
z
"/>
   </g>
   <g id="patch_407">
    <path clip-path="url(#p86221bfe16)" d="M 238.817549 74.36625 
L 239.231649 74.36625 
L 239.231649 74.36625 
L 238.817549 74.36625 
z
"/>
   </g>
   <g id="patch_408">
    <path clip-path="url(#p86221bfe16)" d="M 239.231649 74.36625 
L 239.645749 74.36625 
L 239.645749 74.36625 
L 239.231649 74.36625 
z
"/>
   </g>
   <g id="matplotlib.axis_7">
    <g id="xtick_7">
     <g id="line2d_7">
      <g>
       <use style="stroke:#000000;stroke-width:1.5;" x="198.235731" xlink:href="#mbe718e1891" y="74.36625"/>
      </g>
     </g>
     <g id="text_14">
      <text style="font-family:Arial;font-size:8px;font-style:normal;font-weight:normal;text-anchor:middle;" transform="rotate(-0, 198.235731, 87.0925)" x="198.235731" y="87.0925">0</text>
     </g>
    </g>
    <g id="xtick_8">
     <g id="line2d_8">
      <g>
       <use style="stroke:#000000;stroke-width:1.5;" x="239.645749" xlink:href="#mbe718e1891" y="74.36625"/>
      </g>
     </g>
     <g id="text_15">
      <text style="font-family:Arial;font-size:8px;font-style:normal;font-weight:normal;text-anchor:middle;" transform="rotate(-0, 239.645749, 87.0925)" x="239.645749" y="87.0925">50000</text>
     </g>
    </g>
    <g id="text_16">
     <text style="font-family:Arial;font-size:8px;font-style:normal;font-weight:normal;text-anchor:middle;" transform="rotate(-0, 218.94074, 98.40875)" x="218.94074" y="98.40875">Energy</text>
    </g>
   </g>
   <g id="matplotlib.axis_8"/>
   <g id="patch_409">
    <path d="M 196.16523 74.36625 
L 241.71625 74.36625 
" style="fill:none;stroke:#000000;stroke-linecap:square;stroke-linejoin:miter;stroke-width:1.5;"/>
   </g>
   <g id="text_17">
    <text style="font-family:Arial;font-size:8px;font-style:normal;font-weight:normal;text-anchor:middle;" transform="rotate(-0, 218.94074, 12.92625)" x="218.94074" y="12.92625">Total</text>
   </g>
  </g>
 </g>
 <defs>
  <clipPath id="pac6d79ae4e">
   <rect height="55.44" width="45.55102" x="18.51625" y="18.92625"/>
  </clipPath>
  <clipPath id="p63aef68d2d">
   <rect height="55.44" width="45.55102" x="77.732577" y="18.92625"/>
  </clipPath>
  <clipPath id="pf6cb3f407b">
   <rect height="55.44" width="45.55102" x="136.948903" y="18.92625"/>
  </clipPath>
  <clipPath id="p86221bfe16">
   <rect height="55.44" width="45.55102" x="196.16523" y="18.92625"/>
  </clipPath>
 </defs>
</svg>
