<?xml version="1.0" encoding="utf-8" standalone="no"?>
<!DOCTYPE svg PUBLIC "-//W3C//DTD SVG 1.1//EN"
  "http://www.w3.org/Graphics/SVG/1.1/DTD/svg11.dtd">
<!-- Created with matplotlib (https://matplotlib.org/) -->
<svg height="113.9315pt" version="1.1" viewBox="0 0 299.5625 113.9315" width="299.5625pt" xmlns="http://www.w3.org/2000/svg" xmlns:xlink="http://www.w3.org/1999/xlink">
 <metadata>
  <rdf:RDF xmlns:cc="http://creativecommons.org/ns#" xmlns:dc="http://purl.org/dc/elements/1.1/" xmlns:rdf="http://www.w3.org/1999/02/22-rdf-syntax-ns#">
   <cc:Work>
    <dc:type rdf:resource="http://purl.org/dc/dcmitype/StillImage"/>
    <dc:date>2020-10-09T16:51:06.678614</dc:date>
    <dc:format>image/svg+xml</dc:format>
    <dc:creator>
     <cc:Agent>
      <dc:title>Matplotlib v3.3.2, https://matplotlib.org/</dc:title>
     </cc:Agent>
    </dc:creator>
   </cc:Work>
  </rdf:RDF>
 </metadata>
 <defs>
  <style type="text/css">*{stroke-linecap:butt;stroke-linejoin:round;}</style>
 </defs>
 <g id="figure_1">
  <g id="patch_1">
   <path d="M 0 113.9315 
L 299.5625 113.9315 
L 299.5625 0 
L 0 0 
z
" style="fill:none;"/>
  </g>
  <g id="axes_1">
   <g id="patch_2">
    <path d="M 18.9425 80.2465 
L 149.1425 80.2465 
L 149.1425 19.2625 
L 18.9425 19.2625 
z
" style="fill:none;"/>
   </g>
   <g id="matplotlib.axis_1">
    <g id="xtick_1">
     <g id="line2d_1">
      <defs>
       <path d="M 0 0 
L 0 3.5 
" id="mb73c033dc3" style="stroke:#000000;stroke-width:1.5;"/>
      </defs>
      <g>
       <use style="stroke:#000000;stroke-width:1.5;" x="24.860682" xlink:href="#mb73c033dc3" y="80.2465"/>
      </g>
     </g>
     <g id="text_1">
      <text style="font-family:DejaVu Sans;font-size:8px;font-stretch:normal;font-style:normal;font-weight:normal;text-anchor:middle;" transform="rotate(-0, 24.860682, 93.32525)" x="24.860682" y="93.32525">0</text>
     </g>
    </g>
    <g id="xtick_2">
     <g id="line2d_2">
      <g>
       <use style="stroke:#000000;stroke-width:1.5;" x="63.04404" xlink:href="#mb73c033dc3" y="80.2465"/>
      </g>
     </g>
     <g id="text_2">
      <text style="font-family:DejaVu Sans;font-size:8px;font-stretch:normal;font-style:normal;font-weight:normal;text-anchor:middle;" transform="rotate(-0, 63.04404, 93.32525)" x="63.04404" y="93.32525">1</text>
     </g>
    </g>
    <g id="xtick_3">
     <g id="line2d_3">
      <g>
       <use style="stroke:#000000;stroke-width:1.5;" x="101.227397" xlink:href="#mb73c033dc3" y="80.2465"/>
      </g>
     </g>
     <g id="text_3">
      <text style="font-family:DejaVu Sans;font-size:8px;font-stretch:normal;font-style:normal;font-weight:normal;text-anchor:middle;" transform="rotate(-0, 101.227397, 93.32525)" x="101.227397" y="93.32525">2</text>
     </g>
    </g>
    <g id="xtick_4">
     <g id="line2d_4">
      <g>
       <use style="stroke:#000000;stroke-width:1.5;" x="139.410755" xlink:href="#mb73c033dc3" y="80.2465"/>
      </g>
     </g>
     <g id="text_4">
      <text style="font-family:DejaVu Sans;font-size:8px;font-stretch:normal;font-style:normal;font-weight:normal;text-anchor:middle;" transform="rotate(-0, 139.410755, 93.32525)" x="139.410755" y="93.32525">3</text>
     </g>
    </g>
    <g id="text_5">
     <text style="font-family:DejaVu Sans;font-size:8px;font-stretch:normal;font-style:normal;font-weight:normal;text-anchor:middle;" transform="rotate(-0, 84.0425, 105.06775)" x="84.0425" y="105.06775">Time (seconds)</text>
    </g>
   </g>
   <g id="matplotlib.axis_2">
    <g id="text_6">
     <text style="font-family:DejaVu Sans;font-size:8px;font-stretch:normal;font-style:normal;font-weight:normal;text-anchor:middle;" transform="rotate(-90, 13.27875, 49.7545)" x="13.27875" y="49.7545">Energy</text>
    </g>
   </g>
   <g id="line2d_5">
    <path clip-path="url(#p3e88302fc6)" d="M 24.860682 39.590387 
L 39.313083 39.501264 
L 39.384677 38.689995 
L 39.470589 39.284035 
L 39.728327 39.495141 
L 39.890606 39.468937 
L 39.895379 39.451525 
L 39.938335 38.645439 
L 39.957427 38.111373 
L 40.033794 39.22811 
L 40.320169 39.480679 
L 40.515859 39.468714 
L 40.520631 39.450544 
L 40.563588 38.505823 
L 40.582679 37.969541 
L 40.659046 39.247272 
L 40.95974 39.486044 
L 41.241342 39.471148 
L 41.284299 38.863343 
L 41.30339 38.18874 
L 41.38453 39.294007 
L 41.699543 39.500995 
L 42.028874 39.47856 
L 42.07183 38.932051 
L 42.090922 38.30677 
L 42.172062 39.323851 
L 42.501393 39.51212 
L 42.950048 39.514906 
L 42.988231 39.284423 
L 43.031187 38.674453 
L 43.088462 39.338968 
L 43.355746 39.499732 
L 43.861675 39.540382 
L 43.942815 39.415167 
L 44.00009 38.758444 
L 44.057365 39.359213 
L 44.34374 39.511433 
L 44.906945 39.543445 
L 44.99763 39.434186 
L 45.054905 38.902932 
L 45.11218 39.373485 
L 45.365145 39.50853 
L 45.956987 39.554203 
L 46.166995 39.433676 
L 46.229043 39.067549 
L 46.286318 39.395659 
L 46.53451 39.516763 
L 47.145444 39.549317 
L 47.293405 39.427852 
L 47.35068 39.041804 
L 47.407955 39.395588 
L 47.646601 39.515415 
L 48.252761 39.556225 
L 48.448451 39.455624 
L 48.510499 39.038011 
L 48.567774 39.399934 
L 48.801647 39.51619 
L 49.441218 39.567357 
L 59.469123 39.590375 
L 82.54619 39.489727 
L 82.613011 38.670447 
L 82.69415 39.28167 
L 82.951888 39.498081 
L 83.180988 39.471156 
L 83.223944 38.858923 
L 83.243036 38.210832 
L 83.324176 39.255517 
L 83.615324 39.491587 
L 83.839651 39.470572 
L 83.882607 38.770217 
L 83.901699 38.040442 
L 83.982839 39.268747 
L 84.288305 39.495321 
L 84.636729 39.500566 
L 84.665366 39.232637 
L 84.708322 38.368461 
L 84.77037 39.298004 
L 85.066291 39.498365 
L 85.500627 39.523444 
L 85.53881 39.397923 
L 85.591312 38.568693 
L 85.65336 39.332504 
L 85.949281 39.507418 
L 86.464757 39.534801 
L 86.517259 39.398137 
L 86.569761 38.709703 
L 86.631809 39.356517 
L 86.922957 39.513131 
L 87.50048 39.549121 
L 87.61503 39.440915 
L 87.677078 38.936592 
L 87.734353 39.379225 
L 87.996864 39.513941 
L 88.569614 39.541416 
L 88.631662 39.431282 
L 88.688937 38.794287 
L 88.746212 39.372883 
L 89.013496 39.513049 
L 89.629203 39.562853 
L 95.728994 39.589522 
L 123.903539 39.505102 
L 123.960814 38.830886 
L 123.975133 38.658721 
L 124.0515 39.264415 
L 124.299691 39.488326 
L 124.490608 39.468611 
L 124.495381 39.449645 
L 124.54311 38.34326 
L 124.552656 38.11169 
L 124.62425 39.214633 
L 124.905852 39.475684 
L 125.106315 39.478865 
L 125.115861 39.443411 
L 125.158817 38.396308 
L 125.173136 37.906895 
L 125.254275 39.243343 
L 125.554969 39.485218 
L 125.85089 39.484957 
L 125.893847 39.058562 
L 125.917711 38.222926 
L 125.998851 39.298199 
L 126.318637 39.503262 
L 126.671833 39.494302 
L 126.719562 39.003694 
L 126.738653 38.419717 
L 126.819793 39.33071 
L 127.149125 39.513513 
L 127.55005 39.503557 
L 127.597779 39.170649 
L 127.621644 38.562045 
L 127.69801 39.350745 
L 128.032115 39.519739 
L 128.604865 39.530935 
L 128.652594 39.382279 
L 128.705096 38.833078 
L 128.762371 39.36565 
L 129.029655 39.509232 
L 129.588087 39.543891 
L 129.673999 39.415665 
L 129.731274 38.870317 
L 129.788549 39.374307 
L 130.055833 39.512493 
L 130.633356 39.549457 
L 130.73836 39.447501 
L 130.800408 38.897601 
L 130.857683 39.383052 
L 131.115421 39.513791 
L 131.745446 39.559225 
L 132.027048 39.462909 
L 132.093869 39.078724 
L 132.151144 39.4004 
L 132.38979 39.517678 
L 133.019816 39.558666 
L 133.339601 39.444514 
L 133.401649 39.155646 
L 133.458924 39.409494 
L 133.683252 39.519748 
L 134.341915 39.564515 
L 139.405982 39.589511 
L 139.405982 39.589511 
" style="fill:none;stroke:#666666;stroke-linecap:square;stroke-width:0.6;"/>
   </g>
   <g id="line2d_6">
    <path clip-path="url(#p3e88302fc6)" d="M 24.860682 59.917852 
L 57.717461 59.854253 
L 57.73178 59.569027 
L 57.793828 55.537353 
L 57.746099 59.761518 
L 57.841557 59.323403 
L 57.989518 59.671264 
L 58.285439 59.833965 
L 58.538403 59.807633 
L 58.571814 58.762879 
L 58.619543 51.727495 
L 58.676818 59.13825 
L 58.820006 59.588921 
L 59.092062 59.805737 
L 59.516852 59.849879 
L 59.540717 59.621626 
L 59.61231 52.314594 
L 59.655267 58.953905 
L 59.784135 59.594631 
L 60.056192 59.813258 
L 60.581213 59.888559 
L 60.729174 59.821907 
L 60.767357 58.359392 
L 60.80554 53.617542 
L 60.867588 59.42967 
L 61.03464 59.713837 
L 61.359199 59.858518 
L 62.089456 59.882554 
L 62.118093 59.80181 
L 62.16105 57.335071 
L 62.189687 54.506603 
L 62.256508 59.52653 
L 62.456971 59.770587 
L 62.843577 59.880723 
L 63.822026 59.876858 
L 63.84589 59.646323 
L 63.912711 55.232689 
L 63.860209 59.726539 
L 63.955667 59.454598 
L 64.089309 59.728992 
L 64.418641 59.867869 
L 65.335041 59.910649 
L 86.851363 59.918309 
L 100.802608 59.81572 
L 100.845564 57.783651 
L 100.874201 55.411784 
L 100.941022 59.423377 
L 101.151031 59.738865 
L 101.513773 59.85876 
L 101.628323 59.772802 
L 101.666506 57.091768 
L 101.704689 51.702563 
L 101.766737 59.18726 
L 101.929017 59.616392 
L 102.210619 59.813566 
L 102.601998 59.836558 
L 102.62109 59.455439 
L 102.687911 52.464489 
L 102.630636 59.567861 
L 102.730867 58.8673 
L 102.859736 59.583923 
L 103.131792 59.807808 
L 103.632949 59.878061 
L 103.69977 59.810702 
L 103.737953 58.052522 
L 103.776137 53.314981 
L 103.838185 59.402364 
L 104.01001 59.705149 
L 104.329795 59.853284 
L 104.978912 59.869157 
L 105.002777 59.724448 
L 105.074371 54.283888 
L 105.117327 59.333655 
L 105.250969 59.68803 
L 105.551663 59.849248 
L 106.262828 59.902913 
L 106.563522 59.827424 
L 106.601705 58.600875 
L 106.639888 55.014727 
L 106.701936 59.560174 
L 106.902399 59.782809 
L 107.298551 59.884747 
L 108.510873 59.890705 
L 108.549056 59.760417 
L 108.615877 55.599035 
L 108.663606 59.525101 
L 108.802021 59.748523 
L 109.145671 59.87439 
L 110.167076 59.911764 
L 131.339748 59.918302 
L 139.405982 59.918086 
L 139.405982 59.918086 
" style="fill:none;stroke:#666666;stroke-linecap:square;stroke-width:0.6;"/>
   </g>
   <g id="line2d_7">
    <path clip-path="url(#p3e88302fc6)" d="M 24.860682 80.02018 
L 25.099328 80.116544 
L 25.123192 79.995918 
L 25.175695 77.788204 
L 25.247288 79.64771 
L 25.509799 80.081933 
L 25.757991 80.130993 
L 25.781855 79.995023 
L 25.834357 78.03768 
L 25.901178 79.689388 
L 26.163689 80.092941 
L 26.464383 80.159085 
L 26.502566 80.048024 
L 26.555068 78.289118 
L 26.626662 79.740927 
L 26.889173 80.107028 
L 27.218504 80.17381 
L 27.275779 80.097368 
L 27.333054 78.492044 
L 27.414194 79.800683 
L 27.676704 80.122893 
L 28.029901 80.176134 
L 28.072857 80.063944 
L 28.125359 78.512938 
L 28.196953 79.783879 
L 28.459463 80.120592 
L 28.807886 80.182098 
L 28.869934 80.090899 
L 28.927209 78.530217 
L 29.003576 79.806825 
L 29.266087 80.126889 
L 29.633602 80.190266 
L 29.719514 80.07941 
L 29.776789 78.600327 
L 29.848383 79.809722 
L 30.110894 80.129065 
L 30.502273 80.202231 
L 30.621596 80.123285 
L 30.669325 78.758553 
L 30.683644 78.497498 
L 30.750465 79.788398 
L 31.012975 80.125712 
L 31.385263 80.200686 
L 31.557088 80.113255 
L 31.614363 78.641577 
L 31.695503 79.831889 
L 31.958013 80.136855 
L 32.373257 80.208596 
L 32.578493 80.127013 
L 32.626222 78.961575 
L 32.640541 78.698954 
L 32.712135 79.822585 
L 32.969872 80.134342 
L 33.356479 80.203302 
L 33.504439 80.108472 
L 33.561714 78.689578 
L 33.638081 79.82613 
L 33.895819 80.135514 
L 34.287198 80.205297 
L 34.511526 80.115988 
L 34.568801 78.752293 
L 34.645167 79.833334 
L 34.902905 80.138262 
L 35.308603 80.211391 
L 35.571114 80.124678 
L 35.633162 78.705947 
L 35.709528 79.833329 
L 35.967266 80.139348 
L 36.363418 80.208245 
L 36.544789 80.11628 
L 36.602064 78.708899 
L 36.683204 79.835628 
L 36.940942 80.140037 
L 37.34664 80.212283 
L 37.65688 80.107029 
L 37.714155 78.760092 
L 37.785748 79.822607 
L 38.038713 80.136184 
L 38.434866 80.212136 
L 38.859655 80.147966 
L 38.907385 79.132686 
L 38.921703 78.742443 
L 39.002843 79.838012 
L 39.255808 80.140703 
L 39.671052 80.219892 
L 42.009782 80.244906 
L 65.339814 80.187842 
L 65.363679 79.885853 
L 65.416181 77.943961 
L 65.377997 79.932732 
L 65.492547 79.334863 
L 65.702556 79.983254 
L 65.821879 80.041546 
L 65.840971 80.001966 
L 65.879154 79.1886 
L 65.903019 78.282 
L 65.984158 79.528005 
L 66.203713 80.007961 
L 66.260988 80.006482 
L 66.275306 79.943957 
L 66.332581 78.143337 
L 66.413721 79.563995 
L 66.642821 80.019854 
L 66.695323 80.008239 
L 66.709642 79.939713 
L 66.762144 78.028114 
L 66.843284 79.574258 
L 67.077157 80.031115 
L 67.134432 80.030632 
L 67.148751 79.975774 
L 67.191707 78.134166 
L 67.206026 77.791148 
L 67.268074 79.516982 
L 67.511493 80.034026 
L 67.616497 80.057799 
L 67.630816 80.000671 
L 67.668999 78.421664 
L 67.688091 77.680576 
L 67.759684 79.576336 
L 68.012649 80.056411 
L 68.136745 80.0877 
L 68.155837 80.028129 
L 68.19402 78.482518 
L 68.213112 77.650767 
L 68.289478 79.618379 
L 68.547216 80.0702 
L 68.723814 80.113377 
L 68.738133 80.081999 
L 68.761997 79.495499 
L 68.771543 79.503772 
L 68.804954 77.848039 
L 68.876548 79.665339 
L 69.139058 80.085522 
L 69.358612 80.122382 
L 69.363385 80.113959 
L 69.38725 79.744852 
L 69.434979 77.994274 
L 69.497027 79.674797 
L 69.759538 80.088602 
L 70.055459 80.158346 
L 70.098415 80.026484 
L 70.150917 78.315556 
L 70.217738 79.738049 
L 70.480249 80.105702 
L 70.790488 80.160748 
L 70.828672 80.040174 
L 70.881174 78.377211 
L 70.952768 79.76385 
L 71.215278 80.113233 
L 71.558928 80.178485 
L 71.616203 80.066693 
L 71.673479 78.458902 
L 71.740299 79.775934 
L 72.00281 80.117919 
L 72.365552 80.190819 
L 72.475329 80.100316 
L 72.532604 78.618201 
L 72.608971 79.81554 
L 72.871481 80.129196 
L 73.248542 80.192058 
L 73.324909 80.073544 
L 73.382184 78.531617 
L 73.449005 79.792027 
L 73.711515 80.124951 
L 74.07903 80.195421 
L 74.19358 80.100354 
L 74.250855 78.591306 
L 74.327222 79.816719 
L 74.589732 80.131719 
L 74.976339 80.200807 
L 75.143391 80.097181 
L 75.200666 78.723115 
L 75.27226 79.82508 
L 75.529998 80.133132 
L 75.916604 80.202326 
L 76.078883 80.12042 
L 76.131386 78.776229 
L 76.140931 78.699733 
L 76.179115 79.730463 
L 76.370032 80.064271 
L 76.670725 80.191079 
L 77.014376 80.14546 
L 77.057332 79.473558 
L 77.081197 78.693463 
L 77.157563 79.835266 
L 77.415301 80.137057 
L 77.816226 80.206864 
L 78.021462 80.133253 
L 78.069191 79.000689 
L 78.08351 78.708688 
L 78.155104 79.824019 
L 78.412841 80.135998 
L 78.804221 80.207415 
L 79.04764 80.113843 
L 79.104915 78.742712 
L 79.181281 79.832872 
L 79.439019 80.139092 
L 79.830398 80.204931 
L 79.997451 80.108051 
L 80.054726 78.744811 
L 80.131092 79.83494 
L 80.38883 80.13959 
L 80.789755 80.211151 
L 81.176362 80.104583 
L 81.233637 78.751458 
L 81.305231 79.824464 
L 81.558195 80.136812 
L 81.959121 80.214975 
L 82.488915 80.153891 
L 82.531871 79.530311 
L 82.550963 78.799939 
L 82.636875 79.851547 
L 82.88984 80.144501 
L 83.309857 80.219853 
L 85.658133 80.244818 
L 111.064385 80.192744 
L 111.08825 80.013974 
L 111.145525 77.939452 
L 111.217118 79.308898 
L 111.427127 79.983519 
L 111.54645 80.038388 
L 111.565542 79.980535 
L 111.608498 78.608631 
L 111.622817 78.267404 
L 111.69441 79.488929 
L 111.913965 80.01087 
L 111.990331 80.030309 
L 112.009423 79.97578 
L 112.047607 78.824848 
L 112.066698 78.186276 
L 112.143065 79.553928 
L 112.372165 80.030505 
L 112.438986 80.036986 
L 112.458078 79.955281 
L 112.51058 77.984657 
L 112.586946 79.562783 
L 112.825592 80.043774 
L 112.916278 80.05592 
L 112.930597 80.010442 
L 112.96878 78.641802 
L 112.987872 77.865068 
L 113.064238 79.590632 
L 113.31243 80.060193 
L 113.422207 80.081088 
L 113.436526 80.039847 
L 113.469937 79.132645 
L 113.498574 77.715419 
L 113.574941 79.615118 
L 113.827906 80.070009 
L 113.985412 80.099013 
L 113.994958 80.074107 
L 114.028368 79.453125 
L 114.057006 77.825115 
L 114.133372 79.647535 
L 114.39111 80.081372 
L 114.610664 80.123913 
L 114.615437 80.114502 
L 114.639302 79.73333 
L 114.687031 77.986863 
L 114.749079 79.660987 
L 115.006817 80.085096 
L 115.297965 80.154517 
L 115.336148 80.039913 
L 115.38865 78.313784 
L 115.460244 79.738319 
L 115.722755 80.108009 
L 116.037767 80.162328 
L 116.071178 80.057371 
L 116.128453 78.395614 
L 116.195274 79.756682 
L 116.457784 80.113743 
L 116.782343 80.171376 
L 116.825299 80.028989 
L 116.877801 78.365037 
L 116.944622 79.754254 
L 117.207133 80.113917 
L 117.560329 80.1909 
L 117.66056 80.094793 
L 117.717835 78.508258 
L 117.794202 79.800614 
L 118.056712 80.126409 
L 118.429 80.194654 
L 118.529232 80.07968 
L 118.586507 78.561287 
L 118.6581 79.801701 
L 118.920611 80.12807 
L 119.302444 80.200873 
L 119.42654 80.098582 
L 119.483815 78.511005 
L 119.555409 79.794284 
L 119.81792 80.127575 
L 120.199753 80.202562 
L 120.376351 80.118171 
L 120.433626 78.684673 
L 120.514766 79.831611 
L 120.772504 80.135122 
L 121.173429 80.20681 
L 121.392983 80.116603 
L 121.450258 78.766159 
L 121.531398 79.842352 
L 121.789136 80.139198 
L 122.190061 80.206959 
L 122.361886 80.105259 
L 122.419161 78.664209 
L 122.495528 79.823175 
L 122.753265 80.135503 
L 123.154191 80.210785 
L 123.540797 80.127234 
L 123.602845 78.823028 
L 123.679212 79.844946 
L 123.93695 80.142767 
L 124.361739 80.218765 
L 126.953435 80.244915 
L 139.405982 80.246171 
L 139.405982 80.246171 
" style="fill:none;stroke:#666666;stroke-linecap:square;stroke-width:0.6;"/>
   </g>
   <g id="line2d_8">
    <path clip-path="url(#p3e88302fc6)" d="M 143.224318 76.1809 
L 143.224318 66.0169 
" style="fill:none;stroke:#000000;stroke-linecap:square;stroke-width:1.5;"/>
   </g>
   <g id="patch_3">
    <path d="M 18.9425 80.2465 
L 18.9425 19.2625 
" style="fill:none;stroke:#000000;stroke-linecap:square;stroke-linejoin:miter;stroke-width:1.5;"/>
   </g>
   <g id="patch_4">
    <path d="M 18.9425 80.2465 
L 149.1425 80.2465 
" style="fill:none;stroke:#000000;stroke-linecap:square;stroke-linejoin:miter;stroke-width:1.5;"/>
   </g>
   <g id="text_7">
    <!-- Average Energy: 21.2 $\mu$J/s -->
    <g transform="translate(32.2825 13.2625)">
     <text>
      <tspan style="font-family:DejaVu Sans;font-size:8px;font-style:book;font-weight:book;" x="0 5.472656 10.207031 15.128906 18.417969 23.320312 28.398438 33.320312 35.863281 40.917969 45.988281 50.910156 54.199219 59.277344 64.011719 66.707031 69.25 74.339844 79.429688 81.597656 86.6875 89.230469 94.320312 96.679688 99.375" y="-0.0625">Average Energy: 21.2 μJ/s</tspan>
     </text>
    </g>
   </g>
  </g>
  <g id="axes_2">
   <g id="patch_5">
    <path d="M 162.1625 80.2465 
L 292.3625 80.2465 
L 292.3625 19.2625 
L 162.1625 19.2625 
z
" style="fill:none;"/>
   </g>
   <g id="matplotlib.axis_3">
    <g id="xtick_5">
     <g id="line2d_9">
      <g>
       <use style="stroke:#000000;stroke-width:1.5;" x="168.080682" xlink:href="#mb73c033dc3" y="80.2465"/>
      </g>
     </g>
     <g id="text_8">
      <text style="font-family:DejaVu Sans;font-size:8px;font-stretch:normal;font-style:normal;font-weight:normal;text-anchor:middle;" transform="rotate(-0, 168.080682, 93.32525)" x="168.080682" y="93.32525">0</text>
     </g>
    </g>
    <g id="xtick_6">
     <g id="line2d_10">
      <g>
       <use style="stroke:#000000;stroke-width:1.5;" x="206.26404" xlink:href="#mb73c033dc3" y="80.2465"/>
      </g>
     </g>
     <g id="text_9">
      <text style="font-family:DejaVu Sans;font-size:8px;font-stretch:normal;font-style:normal;font-weight:normal;text-anchor:middle;" transform="rotate(-0, 206.26404, 93.32525)" x="206.26404" y="93.32525">1</text>
     </g>
    </g>
    <g id="xtick_7">
     <g id="line2d_11">
      <g>
       <use style="stroke:#000000;stroke-width:1.5;" x="244.447397" xlink:href="#mb73c033dc3" y="80.2465"/>
      </g>
     </g>
     <g id="text_10">
      <text style="font-family:DejaVu Sans;font-size:8px;font-stretch:normal;font-style:normal;font-weight:normal;text-anchor:middle;" transform="rotate(-0, 244.447397, 93.32525)" x="244.447397" y="93.32525">2</text>
     </g>
    </g>
    <g id="xtick_8">
     <g id="line2d_12">
      <g>
       <use style="stroke:#000000;stroke-width:1.5;" x="282.630755" xlink:href="#mb73c033dc3" y="80.2465"/>
      </g>
     </g>
     <g id="text_11">
      <text style="font-family:DejaVu Sans;font-size:8px;font-stretch:normal;font-style:normal;font-weight:normal;text-anchor:middle;" transform="rotate(-0, 282.630755, 93.32525)" x="282.630755" y="93.32525">3</text>
     </g>
    </g>
    <g id="text_12">
     <text style="font-family:DejaVu Sans;font-size:8px;font-stretch:normal;font-style:normal;font-weight:normal;text-anchor:middle;" transform="rotate(-0, 227.2625, 105.06775)" x="227.2625" y="105.06775">Time (seconds)</text>
    </g>
   </g>
   <g id="matplotlib.axis_4"/>
   <g id="line2d_13">
    <path clip-path="url(#p9e463c9a71)" d="M 168.080682 39.590187 
L 175.33552 39.516746 
L 175.349839 38.616754 
L 175.36893 38.80128 
L 175.430978 27.121398 
L 175.493026 36.279329 
L 175.67917 38.608131 
L 175.836676 39.129172 
L 175.855768 39.039274 
L 175.884406 35.049282 
L 175.936908 24.792356 
L 175.98941 36.028428 
L 176.123052 38.149817 
L 176.361698 39.141238 
L 176.376016 39.143087 
L 176.390335 39.065455 
L 176.418973 35.227198 
L 176.476248 23.235674 
L 176.523977 34.35982 
L 176.6433 38.070082 
L 176.901037 39.158142 
L 176.963085 39.219433 
L 176.982177 39.133451 
L 177.010815 35.488269 
L 177.06809 23.496449 
L 177.115819 35.043928 
L 177.235142 38.211693 
L 177.497652 39.195413 
L 177.60743 39.296688 
L 177.626521 39.231571 
L 177.64084 37.104136 
L 177.650386 37.533108 
L 177.712434 24.268116 
L 177.764936 36.443254 
L 177.889032 38.381364 
L 178.156315 39.241587 
L 178.318595 39.363383 
L 178.337686 39.312348 
L 178.352005 38.094725 
L 178.361551 38.224374 
L 178.428372 25.539921 
L 178.476101 36.751685 
L 178.600197 38.487796 
L 178.86748 39.26638 
L 179.096581 39.413444 
L 179.106126 39.403771 
L 179.129991 39.144533 
L 179.206358 26.939434 
L 179.249314 34.722752 
L 179.368637 38.524369 
L 179.640693 39.280983 
L 179.917523 39.45578 
L 180.017754 39.407579 
L 180.022527 39.375102 
L 180.055937 37.12731 
L 180.10844 28.695092 
L 180.160942 37.858992 
L 180.304129 38.780615 
L 180.56664 39.34154 
L 180.867334 39.480803 
L 181.039159 39.42509 
L 181.053478 38.808706 
L 181.125071 30.080233 
L 181.063023 38.99466 
L 181.168028 37.428848 
L 181.296897 38.753642 
L 181.559407 39.339552 
L 181.860101 39.487042 
L 182.876733 39.558694 
L 186.938488 39.590197 
L 218.053151 39.511897 
L 218.091335 38.069793 
L 218.14861 26.876773 
L 218.210658 35.963816 
L 218.396802 38.478479 
L 218.482714 38.809388 
L 218.497033 38.677165 
L 218.544762 27.303626 
L 218.5734 24.237446 
L 218.621129 34.023586 
L 218.740452 37.733721 
L 218.912277 38.748814 
L 218.931369 38.563361 
L 219.007735 22.2942 
L 219.06501 35.72223 
L 219.193879 37.9161 
L 219.37525 38.828914 
L 219.394342 38.634373 
L 219.470709 21.457263 
L 219.527984 35.311053 
L 219.652079 37.966499 
L 219.876407 38.959025 
L 219.890725 38.916597 
L 219.900271 38.608656 
L 219.976638 21.549643 
L 220.024367 29.283933 
L 220.14369 38.012061 
L 220.406201 39.073643 
L 220.425292 39.08414 
L 220.444384 38.959746 
L 220.482568 30.95069 
L 220.525524 22.213577 
L 220.578026 34.878076 
L 220.697349 38.183471 
L 220.964632 39.140059 
L 221.02668 39.18895 
L 221.045772 39.080754 
L 221.079182 33.730801 
L 221.131685 23.372328 
L 221.179414 35.693204 
L 221.298737 38.309275 
L 221.56602 39.177105 
L 221.675797 39.268571 
L 221.699662 39.18744 
L 221.7283 36.292417 
L 221.785575 24.551952 
L 221.833304 35.980702 
L 221.9574 38.432437 
L 222.229456 39.218882 
L 222.401281 39.335994 
L 222.420373 39.294549 
L 222.434692 38.853553 
L 222.511058 26.270202 
L 222.554015 35.57803 
L 222.673338 38.499637 
L 222.945394 39.240504 
L 223.198359 39.385886 
L 223.236542 39.258897 
L 223.274726 34.81799 
L 223.317682 28.207042 
L 223.370184 37.756681 
L 223.503826 38.707189 
L 223.771109 39.296576 
L 224.047939 39.418875 
L 224.090895 39.325553 
L 224.124305 36.861629 
L 224.172034 29.204789 
L 224.22931 38.017578 
L 224.382043 38.841916 
L 224.644554 39.332859 
L 224.954793 39.448281 
L 225.093208 39.399221 
L 225.097981 39.3685 
L 225.131391 37.622823 
L 225.179121 31.257753 
L 225.236396 38.258345 
L 225.417767 39.020978 
L 225.675504 39.380594 
L 225.99529 39.443722 
L 226.033473 39.333889 
L 226.076429 34.991594 
L 226.10984 30.884564 
L 226.171888 38.258613 
L 226.367578 39.055996 
L 226.625315 39.394305 
L 227.011922 39.487547 
L 228.429479 39.570911 
L 233.30263 39.590237 
L 264.737079 39.50709 
L 264.775263 37.988096 
L 264.832538 26.973264 
L 264.894586 36.038663 
L 265.080729 38.504314 
L 265.166642 38.8441 
L 265.185734 38.68925 
L 265.2621 24.287298 
L 265.319375 36.061409 
L 265.467336 38.101642 
L 265.610524 38.803323 
L 265.629615 38.582536 
L 265.705982 22.367539 
L 265.758484 34.608522 
L 265.877807 37.83501 
L 266.083043 38.883113 
L 266.097361 38.842166 
L 266.106907 38.501685 
L 266.183274 21.658813 
L 266.231003 30.190941 
L 266.350326 37.918207 
L 266.598518 39.008351 
L 266.603291 39.005897 
L 266.622383 38.726259 
L 266.698749 21.71495 
L 266.751251 33.048371 
L 266.870574 38.074035 
L 267.133085 39.105134 
L 267.166495 39.13172 
L 267.185587 39.038685 
L 267.214225 34.838207 
L 267.2715 22.531527 
L 267.319229 34.104147 
L 267.438552 38.211569 
L 267.705835 39.154863 
L 267.782202 39.227824 
L 267.806067 39.144164 
L 267.834704 35.823698 
L 267.891979 23.709901 
L 267.939708 35.200663 
L 268.059031 38.333707 
L 268.331088 39.195826 
L 268.46473 39.302268 
L 268.483821 39.259603 
L 268.49814 38.642518 
L 268.574507 25.062918 
L 268.617463 33.710061 
L 268.736786 38.421551 
L 269.008842 39.22068 
L 269.228397 39.363984 
L 269.237943 39.354156 
L 269.257034 39.246326 
L 269.295218 34.396906 
L 269.338174 27.065118 
L 269.390676 37.45144 
L 269.519545 38.621646 
L 269.786828 39.273467 
L 270.054112 39.411057 
L 270.106614 39.304045 
L 270.144797 35.453229 
L 270.187754 28.935289 
L 270.245029 37.996645 
L 270.397762 38.826997 
L 270.660273 39.328963 
L 270.946648 39.432053 
L 270.99915 39.304877 
L 271.042106 34.406296 
L 271.075517 29.817557 
L 271.132792 38.043756 
L 271.280752 38.848967 
L 271.543263 39.3402 
L 271.858275 39.461624 
L 272.206699 39.434195 
L 272.22579 38.868927 
L 272.292611 32.399261 
L 272.235336 38.97134 
L 272.34034 38.174797 
L 272.483528 38.940512 
L 272.741266 39.370927 
L 273.080143 39.47134 
L 273.380837 39.394309 
L 273.414247 37.96834 
L 273.457204 32.733443 
L 273.519252 38.407998 
L 273.738806 39.17984 
L 273.996544 39.429887 
L 274.46429 39.511324 
L 275.686157 39.572479 
L 280.8075 39.590236 
L 282.625982 39.59027 
L 282.625982 39.59027 
" style="fill:none;stroke:#666666;stroke-linecap:square;stroke-width:0.6;"/>
   </g>
   <g id="line2d_14">
    <path clip-path="url(#p9e463c9a71)" d="M 168.080682 59.91794 
L 190.379763 59.822952 
L 190.432265 58.245328 
L 190.460902 57.136571 
L 190.532496 58.948862 
L 190.747278 59.549045 
L 190.780688 59.550739 
L 190.795007 59.484428 
L 190.847509 56.522317 
L 190.866601 56.133568 
L 190.909557 58.405382 
L 191.038426 59.192838 
L 191.148203 59.400556 
L 191.167295 59.327501 
L 191.234115 55.720453 
L 191.300936 58.738485 
L 191.510945 59.36436 
L 191.520491 59.351505 
L 191.539582 58.801516 
L 191.596857 55.494342 
L 191.649359 58.601243 
L 191.787774 59.220981 
L 191.883233 59.393373 
L 191.907097 59.239916 
L 191.973918 55.369743 
L 192.02642 58.720129 
L 192.169608 59.269857 
L 192.279385 59.444591 
L 192.298477 59.344934 
L 192.37007 55.236836 
L 192.422572 58.804709 
L 192.570533 59.314923 
L 192.704175 59.505606 
L 192.723266 59.419275 
L 192.79486 55.117641 
L 192.852135 58.893221 
L 193.004869 59.360308 
L 193.176694 59.572835 
L 193.195785 59.516923 
L 193.229196 57.744687 
L 193.272152 55.162938 
L 193.324654 58.902296 
L 193.458296 59.358027 
L 193.716034 59.641159 
L 193.72558 59.631582 
L 193.744671 59.481259 
L 193.816265 55.456436 
L 193.863994 58.906948 
L 193.992863 59.396193 
L 194.288784 59.699002 
L 194.350832 59.671691 
L 194.360378 59.608697 
L 194.436745 55.893905 
L 194.489247 59.167082 
L 194.651526 59.510215 
L 194.966539 59.746731 
L 195.06677 59.69548 
L 195.071543 59.656885 
L 195.14791 56.435891 
L 195.200412 59.271904 
L 195.381783 59.580835 
L 195.715887 59.778853 
L 195.86862 59.732229 
L 195.873393 59.700971 
L 195.930668 57.257067 
L 195.94976 56.924749 
L 195.987943 59.183691 
L 196.112039 59.539457 
L 196.431825 59.770978 
L 196.722973 59.769522 
L 196.742065 59.532227 
L 196.808886 57.144242 
L 196.851842 59.327188 
L 196.990257 59.588248 
L 197.324361 59.793184 
L 197.758697 59.808396 
L 197.782561 59.685964 
L 197.849382 57.720128 
L 197.897111 59.438476 
L 198.064164 59.661551 
L 198.422133 59.821048 
L 198.851695 59.792866 
L 198.870787 59.558561 
L 198.932835 58.057877 
L 198.980564 59.491204 
L 199.176254 59.707328 
L 199.56286 59.837371 
L 199.882646 59.782099 
L 199.925602 58.978565 
L 199.959013 57.832236 
L 200.025834 59.507568 
L 200.321755 59.768179 
L 200.803819 59.857439 
L 201.223836 59.774447 
L 201.29543 58.380257 
L 201.357478 59.562303 
L 201.643853 59.785785 
L 202.159329 59.865801 
L 206.125625 59.917924 
L 236.60549 59.801338 
L 236.68663 57.204083 
L 236.762997 59.01452 
L 236.973005 59.546412 
L 236.977778 59.545464 
L 237.001643 59.432613 
L 237.068464 56.122843 
L 237.130512 58.742206 
L 237.345293 59.403962 
L 237.350066 59.400245 
L 237.369158 59.215121 
L 237.431205 55.684438 
L 237.483708 58.57954 
L 237.626895 59.231072 
L 237.708035 59.373264 
L 237.727127 59.269216 
L 237.793947 55.458314 
L 237.851222 58.726255 
L 238.02782 59.336234 
L 238.085095 59.408758 
L 238.104187 59.295039 
L 238.171008 55.316443 
L 238.228283 58.778009 
L 238.390562 59.329147 
L 238.486021 59.462936 
L 238.505112 59.357839 
L 238.576706 55.196635 
L 238.629208 58.797309 
L 238.767623 59.302433 
L 238.925129 59.531408 
L 238.944221 59.473515 
L 238.977631 57.601027 
L 239.020588 55.155903 
L 239.07309 58.868235 
L 239.211505 59.341581 
L 239.421513 59.600416 
L 239.440605 59.560366 
L 239.454923 59.129543 
L 239.521744 55.315992 
L 239.564701 58.37308 
L 239.684024 59.336455 
L 239.970399 59.66827 
L 240.013355 59.624158 
L 240.018128 59.587531 
L 240.065857 56.801438 
L 240.094495 55.687152 
L 240.142224 58.99871 
L 240.271093 59.421641 
L 240.571787 59.713232 
L 240.662472 59.696176 
L 240.672018 59.654833 
L 240.710201 58.156623 
L 240.748385 56.185061 
L 240.80566 59.229592 
L 240.991804 59.564109 
L 241.316362 59.765929 
L 241.426139 59.70564 
L 241.464323 58.566086 
L 241.502506 56.743731 
L 241.564554 59.337314 
L 241.812746 59.665976 
L 242.170715 59.802479 
L 242.294811 59.713614 
L 242.366404 57.297622 
L 242.428452 59.411894 
L 242.690963 59.707085 
L 243.082342 59.820226 
L 243.201665 59.718844 
L 243.273259 57.479656 
L 243.330534 59.436056 
L 243.573953 59.70807 
L 243.974878 59.831611 
L 244.323302 59.779019 
L 244.366258 59.127076 
L 244.399668 58.169196 
L 244.466489 59.534637 
L 244.771956 59.776551 
L 245.254021 59.843569 
L 245.359025 59.744595 
L 245.430619 58.032495 
L 245.487894 59.510285 
L 245.755177 59.755738 
L 246.203832 59.855854 
L 247.950721 59.917559 
L 282.625982 59.912088 
L 282.625982 59.912088 
" style="fill:none;stroke:#666666;stroke-linecap:square;stroke-width:0.6;"/>
   </g>
   <g id="line2d_15">
    <path clip-path="url(#p9e463c9a71)" d="M 168.080682 79.535575 
L 168.314555 80.039697 
L 168.352738 80.035837 
L 168.367057 79.946448 
L 168.40524 75.50776 
L 168.462515 66.268165 
L 168.51979 73.374106 
L 168.639113 79.050007 
L 168.887305 79.95652 
L 169.006628 80.050868 
L 169.02572 79.992544 
L 169.035266 79.613737 
L 169.125951 66.574042 
L 169.168908 70.206081 
L 169.326414 79.231176 
L 169.569833 79.990093 
L 169.655745 80.046207 
L 169.674837 79.995422 
L 169.684383 79.734216 
L 169.775068 66.336422 
L 169.822798 70.584914 
L 169.965985 79.161085 
L 170.214177 79.980722 
L 170.319181 80.053402 
L 170.338273 80.003111 
L 170.347819 79.737524 
L 170.438504 66.537436 
L 170.486233 70.833285 
L 170.624648 79.147726 
L 170.87284 79.978085 
L 170.982617 80.049244 
L 170.996936 80.010219 
L 171.011255 78.893616 
L 171.0208 79.075167 
L 171.097167 66.473787 
L 171.154442 73.648395 
L 171.273765 79.08193 
L 171.521957 79.96301 
L 171.646053 80.059731 
L 171.665145 80.005915 
L 171.67469 79.728142 
L 171.765376 66.520336 
L 171.813105 70.819242 
L 171.956293 79.182828 
L 172.204484 79.985487 
L 172.309489 80.056544 
L 172.32858 80.003042 
L 172.338126 79.701836 
L 172.428812 66.491617 
L 172.471768 69.998967 
L 172.634047 79.268506 
L 172.877466 79.997671 
L 172.977697 80.058197 
L 172.996789 80.003686 
L 173.006335 79.630226 
L 173.09702 66.724793 
L 173.139977 70.368585 
L 173.29271 79.233086 
L 173.540902 79.995872 
L 173.645906 80.060172 
L 173.664998 79.982643 
L 173.698408 76.971458 
L 173.760456 66.685543 
L 173.817731 73.75309 
L 173.937054 79.102278 
L 174.185246 79.967264 
L 174.309342 80.05757 
L 174.328434 79.98534 
L 174.361844 77.065159 
L 174.423892 66.651755 
L 174.481167 73.382788 
L 174.60049 79.099186 
L 174.848682 79.965962 
L 174.972778 80.061829 
L 174.99187 80.01166 
L 175.001415 79.763687 
L 175.092101 66.696539 
L 175.13983 71.008838 
L 175.278245 79.175523 
L 175.526437 79.983517 
L 175.798493 80.167795 
L 176.395108 80.227787 
L 179.297043 80.245564 
L 202.345473 80.183618 
L 202.359791 79.702342 
L 202.464796 66.433294 
L 202.369337 80.180485 
L 202.507752 69.063915 
L 202.693896 78.421277 
L 202.703442 78.288902 
L 202.760717 72.296213 
L 202.83231 76.7732 
L 202.937315 78.543772 
L 202.956406 78.012146 
L 203.004135 73.910117 
L 203.070956 77.331369 
L 203.166415 78.676382 
L 203.185506 77.853764 
L 203.228463 74.61626 
L 203.295284 77.767325 
L 203.385969 78.835495 
L 203.405061 78.276263 
L 203.45279 74.629525 
L 203.514838 77.923035 
L 203.619842 79.022959 
L 203.634161 78.765171 
L 203.686663 73.726207 
L 203.748711 77.853974 
L 203.882353 79.229873 
L 203.891899 79.199985 
L 203.91099 77.208423 
L 203.963492 71.355614 
L 204.020767 77.064814 
L 204.144863 79.133468 
L 204.206911 79.407981 
L 204.22123 79.281521 
L 204.297597 67.638442 
L 204.359645 75.308553 
L 204.478968 78.933293 
L 204.603064 79.553525 
L 204.617382 79.422575 
L 204.703295 64.434499 
L 204.770116 73.887104 
L 204.889439 78.849694 
L 205.061264 79.676962 
L 205.080356 79.489471 
L 205.171041 63.186422 
L 205.233089 70.705094 
L 205.357185 78.859767 
L 205.56242 79.760627 
L 205.576739 79.714929 
L 205.586285 79.323759 
L 205.676971 63.000002 
L 205.719927 66.791702 
L 205.906071 79.183919 
L 206.096987 79.828272 
L 206.111306 79.784146 
L 206.120852 79.425214 
L 206.211538 63.267995 
L 206.254494 66.914805 
L 206.445411 79.240159 
L 206.650646 79.869125 
L 206.664965 79.822168 
L 206.674511 79.486261 
L 206.765196 63.387956 
L 206.812925 67.655419 
L 206.984751 79.17972 
L 207.228169 79.913538 
L 207.247261 79.850234 
L 207.275899 76.935482 
L 207.347492 63.917428 
L 207.404767 70.851243 
L 207.528863 78.998233 
L 207.781828 79.911579 
L 207.824784 79.934597 
L 207.839103 79.867253 
L 207.867741 76.993474 
L 207.939334 64.067489 
L 207.99661 71.209801 
L 208.115933 78.988539 
L 208.37367 79.919232 
L 208.426172 79.95514 
L 208.445264 79.855086 
L 208.483447 74.51115 
L 208.540722 64.293486 
L 208.597997 70.384366 
L 208.726866 79.047895 
L 208.984604 79.934346 
L 209.041879 79.975023 
L 209.060971 79.898031 
L 209.094381 76.178705 
L 209.161202 64.632126 
L 209.218477 72.458856 
L 209.3378 79.032265 
L 209.595538 79.933363 
L 209.667131 79.984505 
L 209.686223 79.890432 
L 209.724406 74.884061 
L 209.781681 64.904579 
L 209.838957 71.252483 
L 209.963052 79.057326 
L 210.22079 79.940804 
L 210.292384 79.996151 
L 210.311476 79.943189 
L 210.321021 79.622831 
L 210.411707 65.084334 
L 210.459436 69.376686 
L 210.61217 79.188394 
L 210.865134 79.96545 
L 210.927182 79.997275 
L 210.941501 79.949629 
L 210.951047 79.654061 
L 211.041732 65.121248 
L 211.089461 69.362132 
L 211.242195 79.190771 
L 211.49516 79.967933 
L 211.566753 80.00574 
L 211.581072 79.957132 
L 211.590618 79.646686 
L 211.681304 65.412827 
L 211.729033 69.736533 
L 211.876993 79.181097 
L 212.129958 79.96845 
L 212.206325 80.012034 
L 212.220643 79.955121 
L 212.230189 79.589902 
L 212.320875 65.400664 
L 212.363831 68.960873 
L 212.530883 79.261867 
L 212.779075 79.981266 
L 212.845896 80.017187 
L 212.864988 79.946151 
L 212.893625 77.644835 
L 212.960446 65.618924 
L 213.017721 71.759409 
L 213.137044 79.063727 
L 213.390009 79.944543 
L 213.49024 80.019228 
L 213.504559 79.964112 
L 213.514105 79.596393 
L 213.60479 65.534621 
L 213.647746 69.110851 
L 213.814799 79.271096 
L 214.06299 79.986373 
L 214.134584 80.026213 
L 214.153676 79.969306 
L 214.163222 79.631716 
L 214.253907 65.766107 
L 214.296864 69.341689 
L 214.463916 79.282469 
L 214.712108 79.990322 
L 214.778928 80.024465 
L 214.79802 79.962594 
L 214.807566 79.538241 
L 214.898251 65.724059 
L 214.941208 69.394512 
L 215.103487 79.259716 
L 215.351679 79.986047 
L 215.428046 80.027827 
L 215.447137 79.944616 
L 215.480548 76.565741 
L 215.542596 65.811769 
L 215.599871 72.493979 
L 215.719194 79.08483 
L 215.972158 79.953846 
L 216.077163 80.036957 
L 216.096254 79.982715 
L 216.1058 79.672152 
L 216.196486 65.894351 
L 216.239442 69.412585 
L 216.406494 79.289472 
L 216.654686 79.993992 
L 216.731053 80.036958 
L 216.750144 79.974382 
L 216.764463 77.765119 
L 216.778782 77.894345 
L 216.850376 65.976063 
L 216.902878 71.961719 
L 217.022201 79.082757 
L 217.275165 79.955551 
L 217.384943 80.039506 
L 217.404034 79.987673 
L 217.41358 79.666151 
L 217.504266 66.13865 
L 217.547222 69.719555 
L 217.709501 79.278295 
L 217.957693 79.99447 
L 218.043606 80.041492 
L 218.057924 79.996291 
L 218.072243 78.534077 
L 218.081789 78.921325 
L 218.158156 66.12444 
L 218.215431 73.657837 
L 218.334754 79.107664 
L 218.587718 79.962503 
L 218.850229 80.151784 
L 219.499346 80.223668 
L 226.081202 80.245623 
L 245.936548 80.140616 
L 245.95564 80.168026 
L 245.984278 77.180238 
L 246.051099 65.958822 
L 246.117919 71.535466 
L 246.26588 78.326398 
L 246.284972 78.42534 
L 246.29929 77.791732 
L 246.351792 72.018829 
L 246.41384 75.670879 
L 246.533163 78.536571 
L 246.542709 78.452642 
L 246.599984 73.689982 
L 246.671578 77.575617 
L 246.762264 78.66441 
L 246.781355 77.809356 
L 246.824312 74.441588 
L 246.891132 77.695711 
L 246.981818 78.820075 
L 247.00091 78.459893 
L 247.048639 74.519766 
L 247.110687 77.773818 
L 247.210918 78.99034 
L 247.23001 78.731283 
L 247.282512 73.688163 
L 247.34456 77.834667 
L 247.473429 79.191606 
L 247.482974 79.163821 
L 247.497293 77.863397 
L 247.554568 71.486326 
L 247.611843 77.146953 
L 247.740712 79.161896 
L 247.788441 79.362996 
L 247.807533 79.006744 
L 247.879127 67.874138 
L 247.936402 73.534909 
L 248.055725 78.900651 
L 248.170275 79.509672 
L 248.189367 79.315826 
L 248.275279 64.552319 
L 248.337327 72.622293 
L 248.45665 78.826311 
L 248.618929 79.638594 
L 248.638021 79.511817 
L 248.690523 67.887451 
L 248.728706 63.13919 
L 248.790754 70.232696 
L 248.919623 78.875236 
L 249.11054 79.733918 
L 249.129632 79.617059 
L 249.172588 71.015523 
L 249.22509 62.765052 
L 249.282365 69.145221 
L 249.42078 78.95407 
L 249.630788 79.801164 
L 249.645107 79.78196 
L 249.659426 79.244132 
L 249.750111 62.893091 
L 249.793068 66.679511 
L 249.983984 79.225365 
L 250.179674 79.854446 
L 250.198766 79.800414 
L 250.208312 79.339826 
L 250.298997 63.201741 
L 250.341953 66.880434 
L 250.528097 79.226637 
L 250.752424 79.895574 
L 250.76197 79.884016 
L 250.776289 79.686131 
L 250.871747 63.591322 
L 250.929022 70.709411 
L 251.053118 78.986535 
L 251.306083 79.904043 
L 251.339494 79.922576 
L 251.358585 79.820156 
L 251.396769 74.114995 
L 251.454044 63.86864 
L 251.511319 69.94735 
L 251.64496 79.050928 
L 251.897925 79.920088 
L 251.940881 79.947526 
L 251.959973 79.844167 
L 251.998156 74.375746 
L 252.055432 64.299832 
L 252.112707 70.575862 
L 252.236802 79.022138 
L 252.49454 79.924607 
L 252.547042 79.960568 
L 252.566134 79.878597 
L 252.599544 75.947871 
L 252.661592 64.451646 
L 252.72364 72.506061 
L 252.842963 79.028238 
L 253.100701 79.928381 
L 253.162749 79.978441 
L 253.181841 79.92242 
L 253.191386 79.554088 
L 253.282072 64.704299 
L 253.325028 68.256212 
L 253.501626 79.273153 
L 253.749818 79.971183 
L 253.792774 79.984684 
L 253.807093 79.927181 
L 253.816639 79.484114 
L 253.907324 64.918845 
L 253.950281 68.557264 
L 254.122106 79.263282 
L 254.370298 79.973246 
L 254.418027 79.994096 
L 254.437118 79.908476 
L 254.470529 76.270465 
L 254.532577 64.95475 
L 254.589852 71.024522 
L 254.713948 79.060773 
L 254.971685 79.942893 
L 255.052825 80.003636 
L 255.071917 79.923652 
L 255.105327 76.386541 
L 255.167375 65.097986 
L 255.22465 71.149701 
L 255.348746 79.068179 
L 255.606484 79.946237 
L 255.687623 80.004987 
L 255.706715 79.932003 
L 255.735353 77.534422 
L 255.806946 65.241656 
L 255.864221 73.538524 
L 255.983544 79.073704 
L 256.241282 79.949139 
L 256.327195 80.016016 
L 256.346286 79.962291 
L 256.355832 79.649093 
L 256.446518 65.468691 
L 256.494247 69.791722 
L 256.642207 79.187118 
L 256.895172 79.969762 
L 256.976312 80.019219 
L 256.995403 79.927911 
L 257.033587 75.327886 
L 257.090862 65.767943 
L 257.148137 72.759587 
L 257.26746 79.083682 
L 257.520425 79.948921 
L 257.61111 80.018366 
L 257.630202 79.955715 
L 257.644521 77.664019 
L 257.658839 77.762174 
L 257.730433 65.507448 
L 257.787708 73.603032 
L 257.907031 79.085829 
L 258.159996 79.950157 
L 258.255454 80.021896 
L 258.274546 79.952718 
L 258.303183 77.698015 
L 258.374777 65.662534 
L 258.427279 71.713766 
L 258.551375 79.098245 
L 258.80434 79.95427 
L 258.899798 80.027549 
L 258.91889 79.971156 
L 258.928436 79.668353 
L 259.019121 65.753672 
L 259.066851 70.0973 
L 259.214811 79.205098 
L 259.463003 79.973201 
L 259.548916 80.029966 
L 259.568007 79.934474 
L 259.606191 75.312991 
L 259.663466 65.7071 
L 259.720741 72.539405 
L 259.840064 79.084187 
L 260.093028 79.953298 
L 260.202806 80.036064 
L 260.221897 79.963771 
L 260.250535 77.803842 
L 260.317356 65.997978 
L 260.374631 72.259011 
L 260.493954 79.088705 
L 260.746918 79.955506 
L 260.856696 80.041709 
L 260.875787 79.992045 
L 260.885333 79.726946 
L 260.976019 66.149431 
L 261.023748 70.486772 
L 261.166935 79.197447 
L 261.415127 79.975527 
L 261.510586 80.036053 
L 261.529677 79.945636 
L 261.567861 75.520872 
L 261.625136 66.076654 
L 261.682411 73.148311 
L 261.801734 79.102935 
L 262.054698 79.961278 
L 262.15493 80.035526 
L 262.174021 79.97764 
L 262.183567 79.678901 
L 262.274253 65.965006 
L 262.321982 70.334154 
L 262.465169 79.191624 
L 262.713361 79.975879 
L 262.818366 80.045771 
L 262.837457 79.959721 
L 262.875641 75.622382 
L 262.932916 66.160066 
L 262.990191 73.151078 
L 263.109514 79.106396 
L 263.362478 79.963709 
L 263.467483 80.043888 
L 263.491347 79.953256 
L 263.529531 75.577444 
L 263.586806 66.133514 
L 263.644081 73.162867 
L 263.763404 79.10617 
L 264.016368 79.964072 
L 264.121373 80.042123 
L 264.140464 79.970326 
L 264.154783 77.844038 
L 264.169102 77.871009 
L 264.240696 65.989739 
L 264.293198 72.019478 
L 264.412521 79.087617 
L 264.665485 79.960291 
L 264.937542 80.156327 
L 265.548476 80.223597 
L 269.099528 80.245552 
L 282.625982 80.246223 
L 282.625982 80.246223 
" style="fill:none;stroke:#666666;stroke-linecap:square;stroke-width:0.6;"/>
   </g>
   <g id="line2d_16">
    <path clip-path="url(#p9e463c9a71)" d="M 286.444318 76.1809 
L 286.444318 66.0169 
" style="fill:none;stroke:#000000;stroke-linecap:square;stroke-width:1.5;"/>
   </g>
   <g id="patch_6">
    <path d="M 162.1625 80.2465 
L 162.1625 19.2625 
" style="fill:none;stroke:#000000;stroke-linecap:square;stroke-linejoin:miter;stroke-width:1.5;"/>
   </g>
   <g id="patch_7">
    <path d="M 162.1625 80.2465 
L 292.3625 80.2465 
" style="fill:none;stroke:#000000;stroke-linecap:square;stroke-linejoin:miter;stroke-width:1.5;"/>
   </g>
   <g id="text_13">
    <!-- Average Energy: 188.6 $\mu$J/s -->
    <g transform="translate(172.7425 13.2625)">
     <text>
      <tspan style="font-family:DejaVu Sans;font-size:8px;font-style:book;font-weight:book;" x="0 5.472656 10.207031 15.128906 18.417969 23.320312 28.398438 33.320312 35.863281 40.917969 45.988281 50.910156 54.199219 59.277344 64.011719 66.707031 69.25 74.339844 79.429688 84.519531 87.0625 92.152344 94.695312 99.785156 102.144531 104.839844" y="-0.0625">Average Energy: 188.6 μJ/s</tspan>
     </text>
    </g>
   </g>
  </g>
 </g>
 <defs>
  <clipPath id="p3e88302fc6">
   <rect height="60.984" width="130.2" x="18.9425" y="19.2625"/>
  </clipPath>
  <clipPath id="p9e463c9a71">
   <rect height="60.984" width="130.2" x="162.1625" y="19.2625"/>
  </clipPath>
 </defs>
</svg>
