<?xml version="1.0" encoding="utf-8" standalone="no"?>
<!DOCTYPE svg PUBLIC "-//W3C//DTD SVG 1.1//EN"
  "http://www.w3.org/Graphics/SVG/1.1/DTD/svg11.dtd">
<!-- Created with matplotlib (https://matplotlib.org/) -->
<svg height="108.42125pt" version="1.1" viewBox="0 0 284.8775 108.42125" width="284.8775pt" xmlns="http://www.w3.org/2000/svg" xmlns:xlink="http://www.w3.org/1999/xlink">
 <metadata>
  <rdf:RDF xmlns:cc="http://creativecommons.org/ns#" xmlns:dc="http://purl.org/dc/elements/1.1/" xmlns:rdf="http://www.w3.org/1999/02/22-rdf-syntax-ns#">
   <cc:Work>
    <dc:type rdf:resource="http://purl.org/dc/dcmitype/StillImage"/>
    <dc:date>2020-09-28T17:37:58.912152</dc:date>
    <dc:format>image/svg+xml</dc:format>
    <dc:creator>
     <cc:Agent>
      <dc:title>Matplotlib v3.3.2, https://matplotlib.org/</dc:title>
     </cc:Agent>
    </dc:creator>
   </cc:Work>
  </rdf:RDF>
 </metadata>
 <defs>
  <style type="text/css">*{stroke-linecap:butt;stroke-linejoin:round;}</style>
 </defs>
 <g id="figure_1">
  <g id="patch_1">
   <path d="M -0 108.42125 
L 284.8775 108.42125 
L 284.8775 0 
L -0 0 
z
" style="fill:none;"/>
  </g>
  <g id="axes_1">
   <g id="patch_2">
    <path d="M 18.9425 74.71875 
L 70.187398 74.71875 
L 70.187398 19.27875 
L 18.9425 19.27875 
z
" style="fill:none;"/>
   </g>
   <g id="patch_3">
    <path clip-path="url(#p3b54a3f61a)" d="M 18.9425 74.71875 
L 19.454949 74.71875 
L 19.454949 74.6225 
L 18.9425 74.6225 
z
" style="fill:#3182bd;"/>
   </g>
   <g id="patch_4">
    <path clip-path="url(#p3b54a3f61a)" d="M 19.454949 74.71875 
L 19.967398 74.71875 
L 19.967398 72.40875 
L 19.454949 72.40875 
z
" style="fill:#3182bd;"/>
   </g>
   <g id="patch_5">
    <path clip-path="url(#p3b54a3f61a)" d="M 19.967398 74.71875 
L 20.479847 74.71875 
L 20.479847 66.63375 
L 19.967398 66.63375 
z
" style="fill:#3182bd;"/>
   </g>
   <g id="patch_6">
    <path clip-path="url(#p3b54a3f61a)" d="M 20.479847 74.71875 
L 20.992296 74.71875 
L 20.992296 59.085 
L 20.479847 59.085 
z
" style="fill:#3182bd;"/>
   </g>
   <g id="patch_7">
    <path clip-path="url(#p3b54a3f61a)" d="M 20.992296 74.71875 
L 21.504745 74.71875 
L 21.504745 50.285 
L 20.992296 50.285 
z
" style="fill:#3182bd;"/>
   </g>
   <g id="patch_8">
    <path clip-path="url(#p3b54a3f61a)" d="M 21.504745 74.71875 
L 22.017194 74.71875 
L 22.017194 41.6775 
L 21.504745 41.6775 
z
" style="fill:#3182bd;"/>
   </g>
   <g id="patch_9">
    <path clip-path="url(#p3b54a3f61a)" d="M 22.017194 74.71875 
L 22.529643 74.71875 
L 22.529643 33.84 
L 22.017194 33.84 
z
" style="fill:#3182bd;"/>
   </g>
   <g id="patch_10">
    <path clip-path="url(#p3b54a3f61a)" d="M 22.529643 74.71875 
L 23.042092 74.71875 
L 23.042092 27.28125 
L 22.529643 27.28125 
z
" style="fill:#3182bd;"/>
   </g>
   <g id="patch_11">
    <path clip-path="url(#p3b54a3f61a)" d="M 23.042092 74.71875 
L 23.554541 74.71875 
L 23.554541 24.20125 
L 23.042092 24.20125 
z
" style="fill:#3182bd;"/>
   </g>
   <g id="patch_12">
    <path clip-path="url(#p3b54a3f61a)" d="M 23.554541 74.71875 
L 24.06699 74.71875 
L 24.06699 23.72 
L 23.554541 23.72 
z
" style="fill:#3182bd;"/>
   </g>
   <g id="patch_13">
    <path clip-path="url(#p3b54a3f61a)" d="M 24.06699 74.71875 
L 24.579439 74.71875 
L 24.579439 21.96 
L 24.06699 21.96 
z
" style="fill:#3182bd;"/>
   </g>
   <g id="patch_14">
    <path clip-path="url(#p3b54a3f61a)" d="M 24.579439 74.71875 
L 25.091888 74.71875 
L 25.091888 21.91875 
L 24.579439 21.91875 
z
" style="fill:#3182bd;"/>
   </g>
   <g id="patch_15">
    <path clip-path="url(#p3b54a3f61a)" d="M 25.091888 74.71875 
L 25.604337 74.71875 
L 25.604337 24.7375 
L 25.091888 24.7375 
z
" style="fill:#3182bd;"/>
   </g>
   <g id="patch_16">
    <path clip-path="url(#p3b54a3f61a)" d="M 25.604337 74.71875 
L 26.116786 74.71875 
L 26.116786 27.7625 
L 25.604337 27.7625 
z
" style="fill:#3182bd;"/>
   </g>
   <g id="patch_17">
    <path clip-path="url(#p3b54a3f61a)" d="M 26.116786 74.71875 
L 26.629235 74.71875 
L 26.629235 32.28625 
L 26.116786 32.28625 
z
" style="fill:#3182bd;"/>
   </g>
   <g id="patch_18">
    <path clip-path="url(#p3b54a3f61a)" d="M 26.629235 74.71875 
L 27.141684 74.71875 
L 27.141684 36.26 
L 26.629235 36.26 
z
" style="fill:#3182bd;"/>
   </g>
   <g id="patch_19">
    <path clip-path="url(#p3b54a3f61a)" d="M 27.141684 74.71875 
L 27.654133 74.71875 
L 27.654133 39.93125 
L 27.141684 39.93125 
z
" style="fill:#3182bd;"/>
   </g>
   <g id="patch_20">
    <path clip-path="url(#p3b54a3f61a)" d="M 27.654133 74.71875 
L 28.166582 74.71875 
L 28.166582 43.56125 
L 27.654133 43.56125 
z
" style="fill:#3182bd;"/>
   </g>
   <g id="patch_21">
    <path clip-path="url(#p3b54a3f61a)" d="M 28.166582 74.71875 
L 28.679031 74.71875 
L 28.679031 47.6725 
L 28.166582 47.6725 
z
" style="fill:#3182bd;"/>
   </g>
   <g id="patch_22">
    <path clip-path="url(#p3b54a3f61a)" d="M 28.679031 74.71875 
L 29.19148 74.71875 
L 29.19148 52.66375 
L 28.679031 52.66375 
z
" style="fill:#3182bd;"/>
   </g>
   <g id="patch_23">
    <path clip-path="url(#p3b54a3f61a)" d="M 29.19148 74.71875 
L 29.703929 74.71875 
L 29.703929 55.73 
L 29.19148 55.73 
z
" style="fill:#3182bd;"/>
   </g>
   <g id="patch_24">
    <path clip-path="url(#p3b54a3f61a)" d="M 29.703929 74.71875 
L 30.216378 74.71875 
L 30.216378 59.085 
L 29.703929 59.085 
z
" style="fill:#3182bd;"/>
   </g>
   <g id="patch_25">
    <path clip-path="url(#p3b54a3f61a)" d="M 30.216378 74.71875 
L 30.728827 74.71875 
L 30.728827 62.385 
L 30.216378 62.385 
z
" style="fill:#3182bd;"/>
   </g>
   <g id="patch_26">
    <path clip-path="url(#p3b54a3f61a)" d="M 30.728827 74.71875 
L 31.241276 74.71875 
L 31.241276 64.585 
L 30.728827 64.585 
z
" style="fill:#3182bd;"/>
   </g>
   <g id="patch_27">
    <path clip-path="url(#p3b54a3f61a)" d="M 31.241276 74.71875 
L 31.753724 74.71875 
L 31.753724 66.00125 
L 31.241276 66.00125 
z
" style="fill:#3182bd;"/>
   </g>
   <g id="patch_28">
    <path clip-path="url(#p3b54a3f61a)" d="M 31.753724 74.71875 
L 32.266173 74.71875 
L 32.266173 68.75125 
L 31.753724 68.75125 
z
" style="fill:#3182bd;"/>
   </g>
   <g id="patch_29">
    <path clip-path="url(#p3b54a3f61a)" d="M 32.266173 74.71875 
L 32.778622 74.71875 
L 32.778622 69.92 
L 32.266173 69.92 
z
" style="fill:#3182bd;"/>
   </g>
   <g id="patch_30">
    <path clip-path="url(#p3b54a3f61a)" d="M 32.778622 74.71875 
L 33.291071 74.71875 
L 33.291071 71.94125 
L 32.778622 71.94125 
z
" style="fill:#3182bd;"/>
   </g>
   <g id="patch_31">
    <path clip-path="url(#p3b54a3f61a)" d="M 33.291071 74.71875 
L 33.80352 74.71875 
L 33.80352 72.4225 
L 33.291071 72.4225 
z
" style="fill:#3182bd;"/>
   </g>
   <g id="patch_32">
    <path clip-path="url(#p3b54a3f61a)" d="M 33.80352 74.71875 
L 34.315969 74.71875 
L 34.315969 73.37125 
L 33.80352 73.37125 
z
" style="fill:#3182bd;"/>
   </g>
   <g id="patch_33">
    <path clip-path="url(#p3b54a3f61a)" d="M 34.315969 74.71875 
L 34.828418 74.71875 
L 34.828418 73.94875 
L 34.315969 73.94875 
z
" style="fill:#3182bd;"/>
   </g>
   <g id="patch_34">
    <path clip-path="url(#p3b54a3f61a)" d="M 34.828418 74.71875 
L 35.340867 74.71875 
L 35.340867 74.155 
L 34.828418 74.155 
z
" style="fill:#3182bd;"/>
   </g>
   <g id="patch_35">
    <path clip-path="url(#p3b54a3f61a)" d="M 35.340867 74.71875 
L 35.853316 74.71875 
L 35.853316 74.27875 
L 35.340867 74.27875 
z
" style="fill:#3182bd;"/>
   </g>
   <g id="patch_36">
    <path clip-path="url(#p3b54a3f61a)" d="M 35.853316 74.71875 
L 36.365765 74.71875 
L 36.365765 74.595 
L 35.853316 74.595 
z
" style="fill:#3182bd;"/>
   </g>
   <g id="patch_37">
    <path clip-path="url(#p3b54a3f61a)" d="M 36.365765 74.71875 
L 36.878214 74.71875 
L 36.878214 74.66375 
L 36.365765 74.66375 
z
" style="fill:#3182bd;"/>
   </g>
   <g id="patch_38">
    <path clip-path="url(#p3b54a3f61a)" d="M 36.878214 74.71875 
L 37.390663 74.71875 
L 37.390663 74.69125 
L 36.878214 74.69125 
z
" style="fill:#3182bd;"/>
   </g>
   <g id="patch_39">
    <path clip-path="url(#p3b54a3f61a)" d="M 37.390663 74.71875 
L 37.903112 74.71875 
L 37.903112 74.71875 
L 37.390663 74.71875 
z
" style="fill:#3182bd;"/>
   </g>
   <g id="patch_40">
    <path clip-path="url(#p3b54a3f61a)" d="M 37.903112 74.71875 
L 38.415561 74.71875 
L 38.415561 74.71875 
L 37.903112 74.71875 
z
" style="fill:#3182bd;"/>
   </g>
   <g id="patch_41">
    <path clip-path="url(#p3b54a3f61a)" d="M 38.415561 74.71875 
L 38.92801 74.71875 
L 38.92801 74.71875 
L 38.415561 74.71875 
z
" style="fill:#3182bd;"/>
   </g>
   <g id="patch_42">
    <path clip-path="url(#p3b54a3f61a)" d="M 38.92801 74.71875 
L 39.440459 74.71875 
L 39.440459 74.71875 
L 38.92801 74.71875 
z
" style="fill:#3182bd;"/>
   </g>
   <g id="patch_43">
    <path clip-path="url(#p3b54a3f61a)" d="M 39.440459 74.71875 
L 39.952908 74.71875 
L 39.952908 74.71875 
L 39.440459 74.71875 
z
" style="fill:#3182bd;"/>
   </g>
   <g id="patch_44">
    <path clip-path="url(#p3b54a3f61a)" d="M 39.952908 74.71875 
L 40.465357 74.71875 
L 40.465357 74.71875 
L 39.952908 74.71875 
z
" style="fill:#3182bd;"/>
   </g>
   <g id="patch_45">
    <path clip-path="url(#p3b54a3f61a)" d="M 40.465357 74.71875 
L 40.977806 74.71875 
L 40.977806 74.71875 
L 40.465357 74.71875 
z
" style="fill:#3182bd;"/>
   </g>
   <g id="patch_46">
    <path clip-path="url(#p3b54a3f61a)" d="M 40.977806 74.71875 
L 41.490255 74.71875 
L 41.490255 74.71875 
L 40.977806 74.71875 
z
" style="fill:#3182bd;"/>
   </g>
   <g id="patch_47">
    <path clip-path="url(#p3b54a3f61a)" d="M 41.490255 74.71875 
L 42.002704 74.71875 
L 42.002704 74.71875 
L 41.490255 74.71875 
z
" style="fill:#3182bd;"/>
   </g>
   <g id="patch_48">
    <path clip-path="url(#p3b54a3f61a)" d="M 42.002704 74.71875 
L 42.515153 74.71875 
L 42.515153 74.71875 
L 42.002704 74.71875 
z
" style="fill:#3182bd;"/>
   </g>
   <g id="patch_49">
    <path clip-path="url(#p3b54a3f61a)" d="M 42.515153 74.71875 
L 43.027602 74.71875 
L 43.027602 74.71875 
L 42.515153 74.71875 
z
" style="fill:#3182bd;"/>
   </g>
   <g id="patch_50">
    <path clip-path="url(#p3b54a3f61a)" d="M 43.027602 74.71875 
L 43.540051 74.71875 
L 43.540051 74.71875 
L 43.027602 74.71875 
z
" style="fill:#3182bd;"/>
   </g>
   <g id="patch_51">
    <path clip-path="url(#p3b54a3f61a)" d="M 43.540051 74.71875 
L 44.0525 74.71875 
L 44.0525 74.71875 
L 43.540051 74.71875 
z
" style="fill:#3182bd;"/>
   </g>
   <g id="patch_52">
    <path clip-path="url(#p3b54a3f61a)" d="M 44.0525 74.71875 
L 44.564949 74.71875 
L 44.564949 74.71875 
L 44.0525 74.71875 
z
" style="fill:#3182bd;"/>
   </g>
   <g id="patch_53">
    <path clip-path="url(#p3b54a3f61a)" d="M 44.564949 74.71875 
L 45.077398 74.71875 
L 45.077398 74.71875 
L 44.564949 74.71875 
z
" style="fill:#3182bd;"/>
   </g>
   <g id="patch_54">
    <path clip-path="url(#p3b54a3f61a)" d="M 45.077398 74.71875 
L 45.589847 74.71875 
L 45.589847 74.71875 
L 45.077398 74.71875 
z
" style="fill:#3182bd;"/>
   </g>
   <g id="patch_55">
    <path clip-path="url(#p3b54a3f61a)" d="M 45.589847 74.71875 
L 46.102296 74.71875 
L 46.102296 74.71875 
L 45.589847 74.71875 
z
" style="fill:#3182bd;"/>
   </g>
   <g id="patch_56">
    <path clip-path="url(#p3b54a3f61a)" d="M 46.102296 74.71875 
L 46.614745 74.71875 
L 46.614745 74.71875 
L 46.102296 74.71875 
z
" style="fill:#3182bd;"/>
   </g>
   <g id="patch_57">
    <path clip-path="url(#p3b54a3f61a)" d="M 46.614745 74.71875 
L 47.127194 74.71875 
L 47.127194 74.71875 
L 46.614745 74.71875 
z
" style="fill:#3182bd;"/>
   </g>
   <g id="patch_58">
    <path clip-path="url(#p3b54a3f61a)" d="M 47.127194 74.71875 
L 47.639643 74.71875 
L 47.639643 74.71875 
L 47.127194 74.71875 
z
" style="fill:#3182bd;"/>
   </g>
   <g id="patch_59">
    <path clip-path="url(#p3b54a3f61a)" d="M 47.639643 74.71875 
L 48.152092 74.71875 
L 48.152092 74.71875 
L 47.639643 74.71875 
z
" style="fill:#3182bd;"/>
   </g>
   <g id="patch_60">
    <path clip-path="url(#p3b54a3f61a)" d="M 48.152092 74.71875 
L 48.664541 74.71875 
L 48.664541 74.71875 
L 48.152092 74.71875 
z
" style="fill:#3182bd;"/>
   </g>
   <g id="patch_61">
    <path clip-path="url(#p3b54a3f61a)" d="M 48.664541 74.71875 
L 49.17699 74.71875 
L 49.17699 74.71875 
L 48.664541 74.71875 
z
" style="fill:#3182bd;"/>
   </g>
   <g id="patch_62">
    <path clip-path="url(#p3b54a3f61a)" d="M 49.17699 74.71875 
L 49.689439 74.71875 
L 49.689439 74.71875 
L 49.17699 74.71875 
z
" style="fill:#3182bd;"/>
   </g>
   <g id="patch_63">
    <path clip-path="url(#p3b54a3f61a)" d="M 49.689439 74.71875 
L 50.201888 74.71875 
L 50.201888 74.71875 
L 49.689439 74.71875 
z
" style="fill:#3182bd;"/>
   </g>
   <g id="patch_64">
    <path clip-path="url(#p3b54a3f61a)" d="M 50.201888 74.71875 
L 50.714337 74.71875 
L 50.714337 74.71875 
L 50.201888 74.71875 
z
" style="fill:#3182bd;"/>
   </g>
   <g id="patch_65">
    <path clip-path="url(#p3b54a3f61a)" d="M 50.714337 74.71875 
L 51.226786 74.71875 
L 51.226786 74.71875 
L 50.714337 74.71875 
z
" style="fill:#3182bd;"/>
   </g>
   <g id="patch_66">
    <path clip-path="url(#p3b54a3f61a)" d="M 51.226786 74.71875 
L 51.739235 74.71875 
L 51.739235 74.71875 
L 51.226786 74.71875 
z
" style="fill:#3182bd;"/>
   </g>
   <g id="patch_67">
    <path clip-path="url(#p3b54a3f61a)" d="M 51.739235 74.71875 
L 52.251684 74.71875 
L 52.251684 74.71875 
L 51.739235 74.71875 
z
" style="fill:#3182bd;"/>
   </g>
   <g id="patch_68">
    <path clip-path="url(#p3b54a3f61a)" d="M 52.251684 74.71875 
L 52.764133 74.71875 
L 52.764133 74.71875 
L 52.251684 74.71875 
z
" style="fill:#3182bd;"/>
   </g>
   <g id="patch_69">
    <path clip-path="url(#p3b54a3f61a)" d="M 52.764133 74.71875 
L 53.276582 74.71875 
L 53.276582 74.71875 
L 52.764133 74.71875 
z
" style="fill:#3182bd;"/>
   </g>
   <g id="patch_70">
    <path clip-path="url(#p3b54a3f61a)" d="M 53.276582 74.71875 
L 53.789031 74.71875 
L 53.789031 74.71875 
L 53.276582 74.71875 
z
" style="fill:#3182bd;"/>
   </g>
   <g id="patch_71">
    <path clip-path="url(#p3b54a3f61a)" d="M 53.789031 74.71875 
L 54.30148 74.71875 
L 54.30148 74.71875 
L 53.789031 74.71875 
z
" style="fill:#3182bd;"/>
   </g>
   <g id="patch_72">
    <path clip-path="url(#p3b54a3f61a)" d="M 54.30148 74.71875 
L 54.813929 74.71875 
L 54.813929 74.71875 
L 54.30148 74.71875 
z
" style="fill:#3182bd;"/>
   </g>
   <g id="patch_73">
    <path clip-path="url(#p3b54a3f61a)" d="M 54.813929 74.71875 
L 55.326378 74.71875 
L 55.326378 74.71875 
L 54.813929 74.71875 
z
" style="fill:#3182bd;"/>
   </g>
   <g id="patch_74">
    <path clip-path="url(#p3b54a3f61a)" d="M 55.326378 74.71875 
L 55.838827 74.71875 
L 55.838827 74.71875 
L 55.326378 74.71875 
z
" style="fill:#3182bd;"/>
   </g>
   <g id="patch_75">
    <path clip-path="url(#p3b54a3f61a)" d="M 55.838827 74.71875 
L 56.351276 74.71875 
L 56.351276 74.71875 
L 55.838827 74.71875 
z
" style="fill:#3182bd;"/>
   </g>
   <g id="patch_76">
    <path clip-path="url(#p3b54a3f61a)" d="M 56.351276 74.71875 
L 56.863724 74.71875 
L 56.863724 74.71875 
L 56.351276 74.71875 
z
" style="fill:#3182bd;"/>
   </g>
   <g id="patch_77">
    <path clip-path="url(#p3b54a3f61a)" d="M 56.863724 74.71875 
L 57.376173 74.71875 
L 57.376173 74.71875 
L 56.863724 74.71875 
z
" style="fill:#3182bd;"/>
   </g>
   <g id="patch_78">
    <path clip-path="url(#p3b54a3f61a)" d="M 57.376173 74.71875 
L 57.888622 74.71875 
L 57.888622 74.71875 
L 57.376173 74.71875 
z
" style="fill:#3182bd;"/>
   </g>
   <g id="patch_79">
    <path clip-path="url(#p3b54a3f61a)" d="M 57.888622 74.71875 
L 58.401071 74.71875 
L 58.401071 74.71875 
L 57.888622 74.71875 
z
" style="fill:#3182bd;"/>
   </g>
   <g id="patch_80">
    <path clip-path="url(#p3b54a3f61a)" d="M 58.401071 74.71875 
L 58.91352 74.71875 
L 58.91352 74.71875 
L 58.401071 74.71875 
z
" style="fill:#3182bd;"/>
   </g>
   <g id="patch_81">
    <path clip-path="url(#p3b54a3f61a)" d="M 58.91352 74.71875 
L 59.425969 74.71875 
L 59.425969 74.71875 
L 58.91352 74.71875 
z
" style="fill:#3182bd;"/>
   </g>
   <g id="patch_82">
    <path clip-path="url(#p3b54a3f61a)" d="M 59.425969 74.71875 
L 59.938418 74.71875 
L 59.938418 74.71875 
L 59.425969 74.71875 
z
" style="fill:#3182bd;"/>
   </g>
   <g id="patch_83">
    <path clip-path="url(#p3b54a3f61a)" d="M 59.938418 74.71875 
L 60.450867 74.71875 
L 60.450867 74.71875 
L 59.938418 74.71875 
z
" style="fill:#3182bd;"/>
   </g>
   <g id="patch_84">
    <path clip-path="url(#p3b54a3f61a)" d="M 60.450867 74.71875 
L 60.963316 74.71875 
L 60.963316 74.71875 
L 60.450867 74.71875 
z
" style="fill:#3182bd;"/>
   </g>
   <g id="patch_85">
    <path clip-path="url(#p3b54a3f61a)" d="M 60.963316 74.71875 
L 61.475765 74.71875 
L 61.475765 74.71875 
L 60.963316 74.71875 
z
" style="fill:#3182bd;"/>
   </g>
   <g id="patch_86">
    <path clip-path="url(#p3b54a3f61a)" d="M 61.475765 74.71875 
L 61.988214 74.71875 
L 61.988214 74.71875 
L 61.475765 74.71875 
z
" style="fill:#3182bd;"/>
   </g>
   <g id="patch_87">
    <path clip-path="url(#p3b54a3f61a)" d="M 61.988214 74.71875 
L 62.500663 74.71875 
L 62.500663 74.71875 
L 61.988214 74.71875 
z
" style="fill:#3182bd;"/>
   </g>
   <g id="patch_88">
    <path clip-path="url(#p3b54a3f61a)" d="M 62.500663 74.71875 
L 63.013112 74.71875 
L 63.013112 74.71875 
L 62.500663 74.71875 
z
" style="fill:#3182bd;"/>
   </g>
   <g id="patch_89">
    <path clip-path="url(#p3b54a3f61a)" d="M 63.013112 74.71875 
L 63.525561 74.71875 
L 63.525561 74.71875 
L 63.013112 74.71875 
z
" style="fill:#3182bd;"/>
   </g>
   <g id="patch_90">
    <path clip-path="url(#p3b54a3f61a)" d="M 63.525561 74.71875 
L 64.03801 74.71875 
L 64.03801 74.71875 
L 63.525561 74.71875 
z
" style="fill:#3182bd;"/>
   </g>
   <g id="patch_91">
    <path clip-path="url(#p3b54a3f61a)" d="M 64.03801 74.71875 
L 64.550459 74.71875 
L 64.550459 74.71875 
L 64.03801 74.71875 
z
" style="fill:#3182bd;"/>
   </g>
   <g id="patch_92">
    <path clip-path="url(#p3b54a3f61a)" d="M 64.550459 74.71875 
L 65.062908 74.71875 
L 65.062908 74.71875 
L 64.550459 74.71875 
z
" style="fill:#3182bd;"/>
   </g>
   <g id="patch_93">
    <path clip-path="url(#p3b54a3f61a)" d="M 65.062908 74.71875 
L 65.575357 74.71875 
L 65.575357 74.71875 
L 65.062908 74.71875 
z
" style="fill:#3182bd;"/>
   </g>
   <g id="patch_94">
    <path clip-path="url(#p3b54a3f61a)" d="M 65.575357 74.71875 
L 66.087806 74.71875 
L 66.087806 74.71875 
L 65.575357 74.71875 
z
" style="fill:#3182bd;"/>
   </g>
   <g id="patch_95">
    <path clip-path="url(#p3b54a3f61a)" d="M 66.087806 74.71875 
L 66.600255 74.71875 
L 66.600255 74.71875 
L 66.087806 74.71875 
z
" style="fill:#3182bd;"/>
   </g>
   <g id="patch_96">
    <path clip-path="url(#p3b54a3f61a)" d="M 66.600255 74.71875 
L 67.112704 74.71875 
L 67.112704 74.71875 
L 66.600255 74.71875 
z
" style="fill:#3182bd;"/>
   </g>
   <g id="patch_97">
    <path clip-path="url(#p3b54a3f61a)" d="M 67.112704 74.71875 
L 67.625153 74.71875 
L 67.625153 74.71875 
L 67.112704 74.71875 
z
" style="fill:#3182bd;"/>
   </g>
   <g id="patch_98">
    <path clip-path="url(#p3b54a3f61a)" d="M 67.625153 74.71875 
L 68.137602 74.71875 
L 68.137602 74.71875 
L 67.625153 74.71875 
z
" style="fill:#3182bd;"/>
   </g>
   <g id="patch_99">
    <path clip-path="url(#p3b54a3f61a)" d="M 68.137602 74.71875 
L 68.650051 74.71875 
L 68.650051 74.71875 
L 68.137602 74.71875 
z
" style="fill:#3182bd;"/>
   </g>
   <g id="patch_100">
    <path clip-path="url(#p3b54a3f61a)" d="M 68.650051 74.71875 
L 69.1625 74.71875 
L 69.1625 74.71875 
L 68.650051 74.71875 
z
" style="fill:#3182bd;"/>
   </g>
   <g id="patch_101">
    <path clip-path="url(#p3b54a3f61a)" d="M 69.1625 74.71875 
L 69.674949 74.71875 
L 69.674949 74.71875 
L 69.1625 74.71875 
z
" style="fill:#3182bd;"/>
   </g>
   <g id="patch_102">
    <path clip-path="url(#p3b54a3f61a)" d="M 69.674949 74.71875 
L 70.187398 74.71875 
L 70.187398 74.71875 
L 69.674949 74.71875 
z
" style="fill:#3182bd;"/>
   </g>
   <g id="matplotlib.axis_1">
    <g id="xtick_1">
     <g id="line2d_1">
      <defs>
       <path d="M 0 0 
L 0 3.5 
" id="mc1fad0e066" style="stroke:#000000;stroke-width:1.5;"/>
      </defs>
      <g>
       <use style="stroke:#000000;stroke-width:1.5;" x="18.9425" xlink:href="#mc1fad0e066" y="74.71875"/>
      </g>
     </g>
     <g id="text_1">
      <text style="font-family:DejaVu Sans;font-size:8px;font-stretch:normal;font-style:normal;font-weight:normal;text-anchor:middle;" transform="rotate(-0, 18.9425, 87.7975)" x="18.9425" y="87.7975">0</text>
     </g>
    </g>
    <g id="xtick_2">
     <g id="line2d_2">
      <g>
       <use style="stroke:#000000;stroke-width:1.5;" x="70.187398" xlink:href="#mc1fad0e066" y="74.71875"/>
      </g>
     </g>
     <g id="text_2">
      <text style="font-family:DejaVu Sans;font-size:8px;font-stretch:normal;font-style:normal;font-weight:normal;text-anchor:middle;" transform="rotate(-0, 70.187398, 87.7975)" x="70.187398" y="87.7975">200</text>
     </g>
    </g>
    <g id="text_3">
     <!-- Energy ($\mu$J/s) -->
     <g transform="translate(18.924949 99.54125)">
      <text>
       <tspan style="font-family:DejaVu Sans;font-size:8px;font-style:book;font-weight:book;" x="0 5.054688 10.125 15.046875 18.335938 23.414062 28.148438 30.691406 33.8125 38.902344 41.261719 43.957031 48.125" y="-0.921875">Energy (μJ/s)</tspan>
      </text>
     </g>
    </g>
   </g>
   <g id="matplotlib.axis_2">
    <g id="text_4">
     <text style="font-family:DejaVu Sans;font-size:8px;font-stretch:normal;font-style:normal;font-weight:normal;text-anchor:middle;" transform="rotate(-90, 13.27875, 46.99875)" x="13.27875" y="46.99875">Count</text>
    </g>
   </g>
   <g id="patch_103">
    <path d="M 18.9425 74.71875 
L 70.187398 74.71875 
" style="fill:none;stroke:#000000;stroke-linecap:square;stroke-linejoin:miter;stroke-width:1.5;"/>
   </g>
   <g id="text_5">
    <text style="font-family:DejaVu Sans;font-size:8px;font-stretch:normal;font-style:normal;font-weight:normal;text-anchor:middle;" transform="rotate(-0, 44.564949, 13.27875)" x="44.564949" y="13.27875">AB/PD</text>
   </g>
  </g>
  <g id="axes_2">
   <g id="patch_104">
    <path d="M 85.560867 74.71875 
L 136.805765 74.71875 
L 136.805765 19.27875 
L 85.560867 19.27875 
z
" style="fill:none;"/>
   </g>
   <g id="patch_105">
    <path clip-path="url(#pee69eafc86)" d="M 85.560867 74.71875 
L 86.073316 74.71875 
L 86.073316 74.546246 
L 85.560867 74.546246 
z
" style="fill:#fc8d59;"/>
   </g>
   <g id="patch_106">
    <path clip-path="url(#pee69eafc86)" d="M 86.073316 74.71875 
L 86.585765 74.71875 
L 86.585765 69.288327 
L 86.073316 69.288327 
z
" style="fill:#fc8d59;"/>
   </g>
   <g id="patch_107">
    <path clip-path="url(#pee69eafc86)" d="M 86.585765 74.71875 
L 87.098214 74.71875 
L 87.098214 55.757119 
L 86.585765 55.757119 
z
" style="fill:#fc8d59;"/>
   </g>
   <g id="patch_108">
    <path clip-path="url(#pee69eafc86)" d="M 87.098214 74.71875 
L 87.610663 74.71875 
L 87.610663 39.396847 
L 87.098214 39.396847 
z
" style="fill:#fc8d59;"/>
   </g>
   <g id="patch_109">
    <path clip-path="url(#pee69eafc86)" d="M 87.610663 74.71875 
L 88.123112 74.71875 
L 88.123112 28.584301 
L 87.610663 28.584301 
z
" style="fill:#fc8d59;"/>
   </g>
   <g id="patch_110">
    <path clip-path="url(#pee69eafc86)" d="M 88.123112 74.71875 
L 88.635561 74.71875 
L 88.635561 21.91875 
L 88.123112 21.91875 
z
" style="fill:#fc8d59;"/>
   </g>
   <g id="patch_111">
    <path clip-path="url(#pee69eafc86)" d="M 88.635561 74.71875 
L 89.14801 74.71875 
L 89.14801 23.623089 
L 88.635561 23.623089 
z
" style="fill:#fc8d59;"/>
   </g>
   <g id="patch_112">
    <path clip-path="url(#pee69eafc86)" d="M 89.14801 74.71875 
L 89.660459 74.71875 
L 89.660459 28.791306 
L 89.14801 28.791306 
z
" style="fill:#fc8d59;"/>
   </g>
   <g id="patch_113">
    <path clip-path="url(#pee69eafc86)" d="M 89.660459 74.71875 
L 90.172908 74.71875 
L 90.172908 37.913314 
L 89.660459 37.913314 
z
" style="fill:#fc8d59;"/>
   </g>
   <g id="patch_114">
    <path clip-path="url(#pee69eafc86)" d="M 90.172908 74.71875 
L 90.685357 74.71875 
L 90.685357 45.68289 
L 90.172908 45.68289 
z
" style="fill:#fc8d59;"/>
   </g>
   <g id="patch_115">
    <path clip-path="url(#pee69eafc86)" d="M 90.685357 74.71875 
L 91.197806 74.71875 
L 91.197806 53.072958 
L 90.685357 53.072958 
z
" style="fill:#fc8d59;"/>
   </g>
   <g id="patch_116">
    <path clip-path="url(#pee69eafc86)" d="M 91.197806 74.71875 
L 91.710255 74.71875 
L 91.710255 59.538405 
L 91.197806 59.538405 
z
" style="fill:#fc8d59;"/>
   </g>
   <g id="patch_117">
    <path clip-path="url(#pee69eafc86)" d="M 91.710255 74.71875 
L 92.222704 74.71875 
L 92.222704 64.699722 
L 91.710255 64.699722 
z
" style="fill:#fc8d59;"/>
   </g>
   <g id="patch_118">
    <path clip-path="url(#pee69eafc86)" d="M 92.222704 74.71875 
L 92.735153 74.71875 
L 92.735153 68.681113 
L 92.222704 68.681113 
z
" style="fill:#fc8d59;"/>
   </g>
   <g id="patch_119">
    <path clip-path="url(#pee69eafc86)" d="M 92.735153 74.71875 
L 93.247602 74.71875 
L 93.247602 71.586079 
L 92.735153 71.586079 
z
" style="fill:#fc8d59;"/>
   </g>
   <g id="patch_120">
    <path clip-path="url(#pee69eafc86)" d="M 93.247602 74.71875 
L 93.760051 74.71875 
L 93.760051 73.290418 
L 93.247602 73.290418 
z
" style="fill:#fc8d59;"/>
   </g>
   <g id="patch_121">
    <path clip-path="url(#pee69eafc86)" d="M 93.760051 74.71875 
L 94.2725 74.71875 
L 94.2725 74.194338 
L 93.760051 74.194338 
z
" style="fill:#fc8d59;"/>
   </g>
   <g id="patch_122">
    <path clip-path="url(#pee69eafc86)" d="M 94.2725 74.71875 
L 94.784949 74.71875 
L 94.784949 74.601447 
L 94.2725 74.601447 
z
" style="fill:#fc8d59;"/>
   </g>
   <g id="patch_123">
    <path clip-path="url(#pee69eafc86)" d="M 94.784949 74.71875 
L 95.297398 74.71875 
L 95.297398 74.69805 
L 94.784949 74.69805 
z
" style="fill:#fc8d59;"/>
   </g>
   <g id="patch_124">
    <path clip-path="url(#pee69eafc86)" d="M 95.297398 74.71875 
L 95.809847 74.71875 
L 95.809847 74.70495 
L 95.297398 74.70495 
z
" style="fill:#fc8d59;"/>
   </g>
   <g id="patch_125">
    <path clip-path="url(#pee69eafc86)" d="M 95.809847 74.71875 
L 96.322296 74.71875 
L 96.322296 74.71875 
L 95.809847 74.71875 
z
" style="fill:#fc8d59;"/>
   </g>
   <g id="patch_126">
    <path clip-path="url(#pee69eafc86)" d="M 96.322296 74.71875 
L 96.834745 74.71875 
L 96.834745 74.71875 
L 96.322296 74.71875 
z
" style="fill:#fc8d59;"/>
   </g>
   <g id="patch_127">
    <path clip-path="url(#pee69eafc86)" d="M 96.834745 74.71875 
L 97.347194 74.71875 
L 97.347194 74.71875 
L 96.834745 74.71875 
z
" style="fill:#fc8d59;"/>
   </g>
   <g id="patch_128">
    <path clip-path="url(#pee69eafc86)" d="M 97.347194 74.71875 
L 97.859643 74.71875 
L 97.859643 74.71875 
L 97.347194 74.71875 
z
" style="fill:#fc8d59;"/>
   </g>
   <g id="patch_129">
    <path clip-path="url(#pee69eafc86)" d="M 97.859643 74.71875 
L 98.372092 74.71875 
L 98.372092 74.71875 
L 97.859643 74.71875 
z
" style="fill:#fc8d59;"/>
   </g>
   <g id="patch_130">
    <path clip-path="url(#pee69eafc86)" d="M 98.372092 74.71875 
L 98.884541 74.71875 
L 98.884541 74.71875 
L 98.372092 74.71875 
z
" style="fill:#fc8d59;"/>
   </g>
   <g id="patch_131">
    <path clip-path="url(#pee69eafc86)" d="M 98.884541 74.71875 
L 99.39699 74.71875 
L 99.39699 74.71875 
L 98.884541 74.71875 
z
" style="fill:#fc8d59;"/>
   </g>
   <g id="patch_132">
    <path clip-path="url(#pee69eafc86)" d="M 99.39699 74.71875 
L 99.909439 74.71875 
L 99.909439 74.71875 
L 99.39699 74.71875 
z
" style="fill:#fc8d59;"/>
   </g>
   <g id="patch_133">
    <path clip-path="url(#pee69eafc86)" d="M 99.909439 74.71875 
L 100.421888 74.71875 
L 100.421888 74.71875 
L 99.909439 74.71875 
z
" style="fill:#fc8d59;"/>
   </g>
   <g id="patch_134">
    <path clip-path="url(#pee69eafc86)" d="M 100.421888 74.71875 
L 100.934337 74.71875 
L 100.934337 74.71875 
L 100.421888 74.71875 
z
" style="fill:#fc8d59;"/>
   </g>
   <g id="patch_135">
    <path clip-path="url(#pee69eafc86)" d="M 100.934337 74.71875 
L 101.446786 74.71875 
L 101.446786 74.71875 
L 100.934337 74.71875 
z
" style="fill:#fc8d59;"/>
   </g>
   <g id="patch_136">
    <path clip-path="url(#pee69eafc86)" d="M 101.446786 74.71875 
L 101.959235 74.71875 
L 101.959235 74.71875 
L 101.446786 74.71875 
z
" style="fill:#fc8d59;"/>
   </g>
   <g id="patch_137">
    <path clip-path="url(#pee69eafc86)" d="M 101.959235 74.71875 
L 102.471684 74.71875 
L 102.471684 74.71875 
L 101.959235 74.71875 
z
" style="fill:#fc8d59;"/>
   </g>
   <g id="patch_138">
    <path clip-path="url(#pee69eafc86)" d="M 102.471684 74.71875 
L 102.984133 74.71875 
L 102.984133 74.71875 
L 102.471684 74.71875 
z
" style="fill:#fc8d59;"/>
   </g>
   <g id="patch_139">
    <path clip-path="url(#pee69eafc86)" d="M 102.984133 74.71875 
L 103.496582 74.71875 
L 103.496582 74.71875 
L 102.984133 74.71875 
z
" style="fill:#fc8d59;"/>
   </g>
   <g id="patch_140">
    <path clip-path="url(#pee69eafc86)" d="M 103.496582 74.71875 
L 104.009031 74.71875 
L 104.009031 74.71875 
L 103.496582 74.71875 
z
" style="fill:#fc8d59;"/>
   </g>
   <g id="patch_141">
    <path clip-path="url(#pee69eafc86)" d="M 104.009031 74.71875 
L 104.52148 74.71875 
L 104.52148 74.71875 
L 104.009031 74.71875 
z
" style="fill:#fc8d59;"/>
   </g>
   <g id="patch_142">
    <path clip-path="url(#pee69eafc86)" d="M 104.52148 74.71875 
L 105.033929 74.71875 
L 105.033929 74.71875 
L 104.52148 74.71875 
z
" style="fill:#fc8d59;"/>
   </g>
   <g id="patch_143">
    <path clip-path="url(#pee69eafc86)" d="M 105.033929 74.71875 
L 105.546378 74.71875 
L 105.546378 74.71875 
L 105.033929 74.71875 
z
" style="fill:#fc8d59;"/>
   </g>
   <g id="patch_144">
    <path clip-path="url(#pee69eafc86)" d="M 105.546378 74.71875 
L 106.058827 74.71875 
L 106.058827 74.71875 
L 105.546378 74.71875 
z
" style="fill:#fc8d59;"/>
   </g>
   <g id="patch_145">
    <path clip-path="url(#pee69eafc86)" d="M 106.058827 74.71875 
L 106.571276 74.71875 
L 106.571276 74.71875 
L 106.058827 74.71875 
z
" style="fill:#fc8d59;"/>
   </g>
   <g id="patch_146">
    <path clip-path="url(#pee69eafc86)" d="M 106.571276 74.71875 
L 107.083724 74.71875 
L 107.083724 74.71875 
L 106.571276 74.71875 
z
" style="fill:#fc8d59;"/>
   </g>
   <g id="patch_147">
    <path clip-path="url(#pee69eafc86)" d="M 107.083724 74.71875 
L 107.596173 74.71875 
L 107.596173 74.71875 
L 107.083724 74.71875 
z
" style="fill:#fc8d59;"/>
   </g>
   <g id="patch_148">
    <path clip-path="url(#pee69eafc86)" d="M 107.596173 74.71875 
L 108.108622 74.71875 
L 108.108622 74.71875 
L 107.596173 74.71875 
z
" style="fill:#fc8d59;"/>
   </g>
   <g id="patch_149">
    <path clip-path="url(#pee69eafc86)" d="M 108.108622 74.71875 
L 108.621071 74.71875 
L 108.621071 74.71875 
L 108.108622 74.71875 
z
" style="fill:#fc8d59;"/>
   </g>
   <g id="patch_150">
    <path clip-path="url(#pee69eafc86)" d="M 108.621071 74.71875 
L 109.13352 74.71875 
L 109.13352 74.71875 
L 108.621071 74.71875 
z
" style="fill:#fc8d59;"/>
   </g>
   <g id="patch_151">
    <path clip-path="url(#pee69eafc86)" d="M 109.13352 74.71875 
L 109.645969 74.71875 
L 109.645969 74.71875 
L 109.13352 74.71875 
z
" style="fill:#fc8d59;"/>
   </g>
   <g id="patch_152">
    <path clip-path="url(#pee69eafc86)" d="M 109.645969 74.71875 
L 110.158418 74.71875 
L 110.158418 74.71875 
L 109.645969 74.71875 
z
" style="fill:#fc8d59;"/>
   </g>
   <g id="patch_153">
    <path clip-path="url(#pee69eafc86)" d="M 110.158418 74.71875 
L 110.670867 74.71875 
L 110.670867 74.71875 
L 110.158418 74.71875 
z
" style="fill:#fc8d59;"/>
   </g>
   <g id="patch_154">
    <path clip-path="url(#pee69eafc86)" d="M 110.670867 74.71875 
L 111.183316 74.71875 
L 111.183316 74.71875 
L 110.670867 74.71875 
z
" style="fill:#fc8d59;"/>
   </g>
   <g id="patch_155">
    <path clip-path="url(#pee69eafc86)" d="M 111.183316 74.71875 
L 111.695765 74.71875 
L 111.695765 74.71875 
L 111.183316 74.71875 
z
" style="fill:#fc8d59;"/>
   </g>
   <g id="patch_156">
    <path clip-path="url(#pee69eafc86)" d="M 111.695765 74.71875 
L 112.208214 74.71875 
L 112.208214 74.71875 
L 111.695765 74.71875 
z
" style="fill:#fc8d59;"/>
   </g>
   <g id="patch_157">
    <path clip-path="url(#pee69eafc86)" d="M 112.208214 74.71875 
L 112.720663 74.71875 
L 112.720663 74.71875 
L 112.208214 74.71875 
z
" style="fill:#fc8d59;"/>
   </g>
   <g id="patch_158">
    <path clip-path="url(#pee69eafc86)" d="M 112.720663 74.71875 
L 113.233112 74.71875 
L 113.233112 74.71875 
L 112.720663 74.71875 
z
" style="fill:#fc8d59;"/>
   </g>
   <g id="patch_159">
    <path clip-path="url(#pee69eafc86)" d="M 113.233112 74.71875 
L 113.745561 74.71875 
L 113.745561 74.71875 
L 113.233112 74.71875 
z
" style="fill:#fc8d59;"/>
   </g>
   <g id="patch_160">
    <path clip-path="url(#pee69eafc86)" d="M 113.745561 74.71875 
L 114.25801 74.71875 
L 114.25801 74.71875 
L 113.745561 74.71875 
z
" style="fill:#fc8d59;"/>
   </g>
   <g id="patch_161">
    <path clip-path="url(#pee69eafc86)" d="M 114.25801 74.71875 
L 114.770459 74.71875 
L 114.770459 74.71875 
L 114.25801 74.71875 
z
" style="fill:#fc8d59;"/>
   </g>
   <g id="patch_162">
    <path clip-path="url(#pee69eafc86)" d="M 114.770459 74.71875 
L 115.282908 74.71875 
L 115.282908 74.71875 
L 114.770459 74.71875 
z
" style="fill:#fc8d59;"/>
   </g>
   <g id="patch_163">
    <path clip-path="url(#pee69eafc86)" d="M 115.282908 74.71875 
L 115.795357 74.71875 
L 115.795357 74.71875 
L 115.282908 74.71875 
z
" style="fill:#fc8d59;"/>
   </g>
   <g id="patch_164">
    <path clip-path="url(#pee69eafc86)" d="M 115.795357 74.71875 
L 116.307806 74.71875 
L 116.307806 74.71875 
L 115.795357 74.71875 
z
" style="fill:#fc8d59;"/>
   </g>
   <g id="patch_165">
    <path clip-path="url(#pee69eafc86)" d="M 116.307806 74.71875 
L 116.820255 74.71875 
L 116.820255 74.71875 
L 116.307806 74.71875 
z
" style="fill:#fc8d59;"/>
   </g>
   <g id="patch_166">
    <path clip-path="url(#pee69eafc86)" d="M 116.820255 74.71875 
L 117.332704 74.71875 
L 117.332704 74.71875 
L 116.820255 74.71875 
z
" style="fill:#fc8d59;"/>
   </g>
   <g id="patch_167">
    <path clip-path="url(#pee69eafc86)" d="M 117.332704 74.71875 
L 117.845153 74.71875 
L 117.845153 74.71875 
L 117.332704 74.71875 
z
" style="fill:#fc8d59;"/>
   </g>
   <g id="patch_168">
    <path clip-path="url(#pee69eafc86)" d="M 117.845153 74.71875 
L 118.357602 74.71875 
L 118.357602 74.71875 
L 117.845153 74.71875 
z
" style="fill:#fc8d59;"/>
   </g>
   <g id="patch_169">
    <path clip-path="url(#pee69eafc86)" d="M 118.357602 74.71875 
L 118.870051 74.71875 
L 118.870051 74.71875 
L 118.357602 74.71875 
z
" style="fill:#fc8d59;"/>
   </g>
   <g id="patch_170">
    <path clip-path="url(#pee69eafc86)" d="M 118.870051 74.71875 
L 119.3825 74.71875 
L 119.3825 74.71875 
L 118.870051 74.71875 
z
" style="fill:#fc8d59;"/>
   </g>
   <g id="patch_171">
    <path clip-path="url(#pee69eafc86)" d="M 119.3825 74.71875 
L 119.894949 74.71875 
L 119.894949 74.71875 
L 119.3825 74.71875 
z
" style="fill:#fc8d59;"/>
   </g>
   <g id="patch_172">
    <path clip-path="url(#pee69eafc86)" d="M 119.894949 74.71875 
L 120.407398 74.71875 
L 120.407398 74.71875 
L 119.894949 74.71875 
z
" style="fill:#fc8d59;"/>
   </g>
   <g id="patch_173">
    <path clip-path="url(#pee69eafc86)" d="M 120.407398 74.71875 
L 120.919847 74.71875 
L 120.919847 74.71875 
L 120.407398 74.71875 
z
" style="fill:#fc8d59;"/>
   </g>
   <g id="patch_174">
    <path clip-path="url(#pee69eafc86)" d="M 120.919847 74.71875 
L 121.432296 74.71875 
L 121.432296 74.71875 
L 120.919847 74.71875 
z
" style="fill:#fc8d59;"/>
   </g>
   <g id="patch_175">
    <path clip-path="url(#pee69eafc86)" d="M 121.432296 74.71875 
L 121.944745 74.71875 
L 121.944745 74.71875 
L 121.432296 74.71875 
z
" style="fill:#fc8d59;"/>
   </g>
   <g id="patch_176">
    <path clip-path="url(#pee69eafc86)" d="M 121.944745 74.71875 
L 122.457194 74.71875 
L 122.457194 74.71875 
L 121.944745 74.71875 
z
" style="fill:#fc8d59;"/>
   </g>
   <g id="patch_177">
    <path clip-path="url(#pee69eafc86)" d="M 122.457194 74.71875 
L 122.969643 74.71875 
L 122.969643 74.71875 
L 122.457194 74.71875 
z
" style="fill:#fc8d59;"/>
   </g>
   <g id="patch_178">
    <path clip-path="url(#pee69eafc86)" d="M 122.969643 74.71875 
L 123.482092 74.71875 
L 123.482092 74.71875 
L 122.969643 74.71875 
z
" style="fill:#fc8d59;"/>
   </g>
   <g id="patch_179">
    <path clip-path="url(#pee69eafc86)" d="M 123.482092 74.71875 
L 123.994541 74.71875 
L 123.994541 74.71875 
L 123.482092 74.71875 
z
" style="fill:#fc8d59;"/>
   </g>
   <g id="patch_180">
    <path clip-path="url(#pee69eafc86)" d="M 123.994541 74.71875 
L 124.50699 74.71875 
L 124.50699 74.71875 
L 123.994541 74.71875 
z
" style="fill:#fc8d59;"/>
   </g>
   <g id="patch_181">
    <path clip-path="url(#pee69eafc86)" d="M 124.50699 74.71875 
L 125.019439 74.71875 
L 125.019439 74.71875 
L 124.50699 74.71875 
z
" style="fill:#fc8d59;"/>
   </g>
   <g id="patch_182">
    <path clip-path="url(#pee69eafc86)" d="M 125.019439 74.71875 
L 125.531888 74.71875 
L 125.531888 74.71875 
L 125.019439 74.71875 
z
" style="fill:#fc8d59;"/>
   </g>
   <g id="patch_183">
    <path clip-path="url(#pee69eafc86)" d="M 125.531888 74.71875 
L 126.044337 74.71875 
L 126.044337 74.71875 
L 125.531888 74.71875 
z
" style="fill:#fc8d59;"/>
   </g>
   <g id="patch_184">
    <path clip-path="url(#pee69eafc86)" d="M 126.044337 74.71875 
L 126.556786 74.71875 
L 126.556786 74.71875 
L 126.044337 74.71875 
z
" style="fill:#fc8d59;"/>
   </g>
   <g id="patch_185">
    <path clip-path="url(#pee69eafc86)" d="M 126.556786 74.71875 
L 127.069235 74.71875 
L 127.069235 74.71875 
L 126.556786 74.71875 
z
" style="fill:#fc8d59;"/>
   </g>
   <g id="patch_186">
    <path clip-path="url(#pee69eafc86)" d="M 127.069235 74.71875 
L 127.581684 74.71875 
L 127.581684 74.71875 
L 127.069235 74.71875 
z
" style="fill:#fc8d59;"/>
   </g>
   <g id="patch_187">
    <path clip-path="url(#pee69eafc86)" d="M 127.581684 74.71875 
L 128.094133 74.71875 
L 128.094133 74.71875 
L 127.581684 74.71875 
z
" style="fill:#fc8d59;"/>
   </g>
   <g id="patch_188">
    <path clip-path="url(#pee69eafc86)" d="M 128.094133 74.71875 
L 128.606582 74.71875 
L 128.606582 74.71875 
L 128.094133 74.71875 
z
" style="fill:#fc8d59;"/>
   </g>
   <g id="patch_189">
    <path clip-path="url(#pee69eafc86)" d="M 128.606582 74.71875 
L 129.119031 74.71875 
L 129.119031 74.71875 
L 128.606582 74.71875 
z
" style="fill:#fc8d59;"/>
   </g>
   <g id="patch_190">
    <path clip-path="url(#pee69eafc86)" d="M 129.119031 74.71875 
L 129.63148 74.71875 
L 129.63148 74.71875 
L 129.119031 74.71875 
z
" style="fill:#fc8d59;"/>
   </g>
   <g id="patch_191">
    <path clip-path="url(#pee69eafc86)" d="M 129.63148 74.71875 
L 130.143929 74.71875 
L 130.143929 74.71875 
L 129.63148 74.71875 
z
" style="fill:#fc8d59;"/>
   </g>
   <g id="patch_192">
    <path clip-path="url(#pee69eafc86)" d="M 130.143929 74.71875 
L 130.656378 74.71875 
L 130.656378 74.71875 
L 130.143929 74.71875 
z
" style="fill:#fc8d59;"/>
   </g>
   <g id="patch_193">
    <path clip-path="url(#pee69eafc86)" d="M 130.656378 74.71875 
L 131.168827 74.71875 
L 131.168827 74.71875 
L 130.656378 74.71875 
z
" style="fill:#fc8d59;"/>
   </g>
   <g id="patch_194">
    <path clip-path="url(#pee69eafc86)" d="M 131.168827 74.71875 
L 131.681276 74.71875 
L 131.681276 74.71875 
L 131.168827 74.71875 
z
" style="fill:#fc8d59;"/>
   </g>
   <g id="patch_195">
    <path clip-path="url(#pee69eafc86)" d="M 131.681276 74.71875 
L 132.193724 74.71875 
L 132.193724 74.71875 
L 131.681276 74.71875 
z
" style="fill:#fc8d59;"/>
   </g>
   <g id="patch_196">
    <path clip-path="url(#pee69eafc86)" d="M 132.193724 74.71875 
L 132.706173 74.71875 
L 132.706173 74.71875 
L 132.193724 74.71875 
z
" style="fill:#fc8d59;"/>
   </g>
   <g id="patch_197">
    <path clip-path="url(#pee69eafc86)" d="M 132.706173 74.71875 
L 133.218622 74.71875 
L 133.218622 74.71875 
L 132.706173 74.71875 
z
" style="fill:#fc8d59;"/>
   </g>
   <g id="patch_198">
    <path clip-path="url(#pee69eafc86)" d="M 133.218622 74.71875 
L 133.731071 74.71875 
L 133.731071 74.71875 
L 133.218622 74.71875 
z
" style="fill:#fc8d59;"/>
   </g>
   <g id="patch_199">
    <path clip-path="url(#pee69eafc86)" d="M 133.731071 74.71875 
L 134.24352 74.71875 
L 134.24352 74.71875 
L 133.731071 74.71875 
z
" style="fill:#fc8d59;"/>
   </g>
   <g id="patch_200">
    <path clip-path="url(#pee69eafc86)" d="M 134.24352 74.71875 
L 134.755969 74.71875 
L 134.755969 74.71875 
L 134.24352 74.71875 
z
" style="fill:#fc8d59;"/>
   </g>
   <g id="patch_201">
    <path clip-path="url(#pee69eafc86)" d="M 134.755969 74.71875 
L 135.268418 74.71875 
L 135.268418 74.71875 
L 134.755969 74.71875 
z
" style="fill:#fc8d59;"/>
   </g>
   <g id="patch_202">
    <path clip-path="url(#pee69eafc86)" d="M 135.268418 74.71875 
L 135.780867 74.71875 
L 135.780867 74.71875 
L 135.268418 74.71875 
z
" style="fill:#fc8d59;"/>
   </g>
   <g id="patch_203">
    <path clip-path="url(#pee69eafc86)" d="M 135.780867 74.71875 
L 136.293316 74.71875 
L 136.293316 74.71875 
L 135.780867 74.71875 
z
" style="fill:#fc8d59;"/>
   </g>
   <g id="patch_204">
    <path clip-path="url(#pee69eafc86)" d="M 136.293316 74.71875 
L 136.805765 74.71875 
L 136.805765 74.71875 
L 136.293316 74.71875 
z
" style="fill:#fc8d59;"/>
   </g>
   <g id="matplotlib.axis_3">
    <g id="xtick_3">
     <g id="line2d_3">
      <g>
       <use style="stroke:#000000;stroke-width:1.5;" x="85.560867" xlink:href="#mc1fad0e066" y="74.71875"/>
      </g>
     </g>
     <g id="text_6">
      <text style="font-family:DejaVu Sans;font-size:8px;font-stretch:normal;font-style:normal;font-weight:normal;text-anchor:middle;" transform="rotate(-0, 85.560867, 87.7975)" x="85.560867" y="87.7975">0</text>
     </g>
    </g>
    <g id="xtick_4">
     <g id="line2d_4">
      <g>
       <use style="stroke:#000000;stroke-width:1.5;" x="136.805765" xlink:href="#mc1fad0e066" y="74.71875"/>
      </g>
     </g>
     <g id="text_7">
      <text style="font-family:DejaVu Sans;font-size:8px;font-stretch:normal;font-style:normal;font-weight:normal;text-anchor:middle;" transform="rotate(-0, 136.805765, 87.7975)" x="136.805765" y="87.7975">200</text>
     </g>
    </g>
    <g id="text_8">
     <!-- Energy ($\mu$J/s) -->
     <g transform="translate(85.543316 99.54125)">
      <text>
       <tspan style="font-family:DejaVu Sans;font-size:8px;font-style:book;font-weight:book;" x="0 5.054688 10.125 15.046875 18.335938 23.414062 28.148438 30.691406 33.8125 38.902344 41.261719 43.957031 48.125" y="-0.921875">Energy (μJ/s)</tspan>
      </text>
     </g>
    </g>
   </g>
   <g id="matplotlib.axis_4"/>
   <g id="patch_205">
    <path d="M 85.560867 74.71875 
L 136.805765 74.71875 
" style="fill:none;stroke:#000000;stroke-linecap:square;stroke-linejoin:miter;stroke-width:1.5;"/>
   </g>
   <g id="text_9">
    <text style="font-family:DejaVu Sans;font-size:8px;font-stretch:normal;font-style:normal;font-weight:normal;text-anchor:middle;" transform="rotate(-0, 111.183316, 13.27875)" x="111.183316" y="13.27875">LP</text>
   </g>
  </g>
  <g id="axes_3">
   <g id="patch_206">
    <path d="M 152.179235 74.71875 
L 203.424133 74.71875 
L 203.424133 19.27875 
L 152.179235 19.27875 
z
" style="fill:none;"/>
   </g>
   <g id="patch_207">
    <path clip-path="url(#pf84b045e73)" d="M 152.179235 74.71875 
L 152.691684 74.71875 
L 152.691684 74.71875 
L 152.179235 74.71875 
z
" style="fill:#2ca25f;"/>
   </g>
   <g id="patch_208">
    <path clip-path="url(#pf84b045e73)" d="M 152.691684 74.71875 
L 153.204133 74.71875 
L 153.204133 74.71875 
L 152.691684 74.71875 
z
" style="fill:#2ca25f;"/>
   </g>
   <g id="patch_209">
    <path clip-path="url(#pf84b045e73)" d="M 153.204133 74.71875 
L 153.716582 74.71875 
L 153.716582 74.614864 
L 153.204133 74.614864 
z
" style="fill:#2ca25f;"/>
   </g>
   <g id="patch_210">
    <path clip-path="url(#pf84b045e73)" d="M 153.716582 74.71875 
L 154.229031 74.71875 
L 154.229031 74.121406 
L 153.716582 74.121406 
z
" style="fill:#2ca25f;"/>
   </g>
   <g id="patch_211">
    <path clip-path="url(#pf84b045e73)" d="M 154.229031 74.71875 
L 154.74148 74.71875 
L 154.74148 72.667004 
L 154.229031 72.667004 
z
" style="fill:#2ca25f;"/>
   </g>
   <g id="patch_212">
    <path clip-path="url(#pf84b045e73)" d="M 154.74148 74.71875 
L 155.253929 74.71875 
L 155.253929 71.420373 
L 154.74148 71.420373 
z
" style="fill:#2ca25f;"/>
   </g>
   <g id="patch_213">
    <path clip-path="url(#pf84b045e73)" d="M 155.253929 74.71875 
L 155.766378 74.71875 
L 155.766378 68.53754 
L 155.253929 68.53754 
z
" style="fill:#2ca25f;"/>
   </g>
   <g id="patch_214">
    <path clip-path="url(#pf84b045e73)" d="M 155.766378 74.71875 
L 156.278827 74.71875 
L 156.278827 65.654707 
L 155.766378 65.654707 
z
" style="fill:#2ca25f;"/>
   </g>
   <g id="patch_215">
    <path clip-path="url(#pf84b045e73)" d="M 156.278827 74.71875 
L 156.791276 74.71875 
L 156.791276 62.590073 
L 156.278827 62.590073 
z
" style="fill:#2ca25f;"/>
   </g>
   <g id="patch_216">
    <path clip-path="url(#pf84b045e73)" d="M 156.791276 74.71875 
L 157.303724 74.71875 
L 157.303724 60.278612 
L 156.791276 60.278612 
z
" style="fill:#2ca25f;"/>
   </g>
   <g id="patch_217">
    <path clip-path="url(#pf84b045e73)" d="M 157.303724 74.71875 
L 157.816173 74.71875 
L 157.816173 56.201091 
L 157.303724 56.201091 
z
" style="fill:#2ca25f;"/>
   </g>
   <g id="patch_218">
    <path clip-path="url(#pf84b045e73)" d="M 157.816173 74.71875 
L 158.328622 74.71875 
L 158.328622 54.77266 
L 157.816173 54.77266 
z
" style="fill:#2ca25f;"/>
   </g>
   <g id="patch_219">
    <path clip-path="url(#pf84b045e73)" d="M 158.328622 74.71875 
L 158.841071 74.71875 
L 158.841071 52.305371 
L 158.328622 52.305371 
z
" style="fill:#2ca25f;"/>
   </g>
   <g id="patch_220">
    <path clip-path="url(#pf84b045e73)" d="M 158.841071 74.71875 
L 159.35352 74.71875 
L 159.35352 49.500452 
L 158.841071 49.500452 
z
" style="fill:#2ca25f;"/>
   </g>
   <g id="patch_221">
    <path clip-path="url(#pf84b045e73)" d="M 159.35352 74.71875 
L 159.865969 74.71875 
L 159.865969 45.656674 
L 159.35352 45.656674 
z
" style="fill:#2ca25f;"/>
   </g>
   <g id="patch_222">
    <path clip-path="url(#pf84b045e73)" d="M 159.865969 74.71875 
L 160.378418 74.71875 
L 160.378418 43.604928 
L 159.865969 43.604928 
z
" style="fill:#2ca25f;"/>
   </g>
   <g id="patch_223">
    <path clip-path="url(#pf84b045e73)" d="M 160.378418 74.71875 
L 160.890867 74.71875 
L 160.890867 39.76115 
L 160.378418 39.76115 
z
" style="fill:#2ca25f;"/>
   </g>
   <g id="patch_224">
    <path clip-path="url(#pf84b045e73)" d="M 160.890867 74.71875 
L 161.403316 74.71875 
L 161.403316 35.423915 
L 160.890867 35.423915 
z
" style="fill:#2ca25f;"/>
   </g>
   <g id="patch_225">
    <path clip-path="url(#pf84b045e73)" d="M 161.403316 74.71875 
L 161.915765 74.71875 
L 161.915765 34.930457 
L 161.403316 34.930457 
z
" style="fill:#2ca25f;"/>
   </g>
   <g id="patch_226">
    <path clip-path="url(#pf84b045e73)" d="M 161.915765 74.71875 
L 162.428214 74.71875 
L 162.428214 31.969709 
L 161.915765 31.969709 
z
" style="fill:#2ca25f;"/>
   </g>
   <g id="patch_227">
    <path clip-path="url(#pf84b045e73)" d="M 162.428214 74.71875 
L 162.940663 74.71875 
L 162.940663 30.645164 
L 162.428214 30.645164 
z
" style="fill:#2ca25f;"/>
   </g>
   <g id="patch_228">
    <path clip-path="url(#pf84b045e73)" d="M 162.940663 74.71875 
L 163.453112 74.71875 
L 163.453112 27.710388 
L 162.940663 27.710388 
z
" style="fill:#2ca25f;"/>
   </g>
   <g id="patch_229">
    <path clip-path="url(#pf84b045e73)" d="M 163.453112 74.71875 
L 163.965561 74.71875 
L 163.965561 25.606699 
L 163.453112 25.606699 
z
" style="fill:#2ca25f;"/>
   </g>
   <g id="patch_230">
    <path clip-path="url(#pf84b045e73)" d="M 163.965561 74.71875 
L 164.47801 74.71875 
L 164.47801 25.996271 
L 163.965561 25.996271 
z
" style="fill:#2ca25f;"/>
   </g>
   <g id="patch_231">
    <path clip-path="url(#pf84b045e73)" d="M 164.47801 74.71875 
L 164.990459 74.71875 
L 164.990459 22.490122 
L 164.47801 22.490122 
z
" style="fill:#2ca25f;"/>
   </g>
   <g id="patch_232">
    <path clip-path="url(#pf84b045e73)" d="M 164.990459 74.71875 
L 165.502908 74.71875 
L 165.502908 21.91875 
L 164.990459 21.91875 
z
" style="fill:#2ca25f;"/>
   </g>
   <g id="patch_233">
    <path clip-path="url(#pf84b045e73)" d="M 165.502908 74.71875 
L 166.015357 74.71875 
L 166.015357 24.619783 
L 165.502908 24.619783 
z
" style="fill:#2ca25f;"/>
   </g>
   <g id="patch_234">
    <path clip-path="url(#pf84b045e73)" d="M 166.015357 74.71875 
L 166.527806 74.71875 
L 166.527806 23.970496 
L 166.015357 23.970496 
z
" style="fill:#2ca25f;"/>
   </g>
   <g id="patch_235">
    <path clip-path="url(#pf84b045e73)" d="M 166.527806 74.71875 
L 167.040255 74.71875 
L 167.040255 22.879694 
L 166.527806 22.879694 
z
" style="fill:#2ca25f;"/>
   </g>
   <g id="patch_236">
    <path clip-path="url(#pf84b045e73)" d="M 167.040255 74.71875 
L 167.552704 74.71875 
L 167.552704 25.087269 
L 167.040255 25.087269 
z
" style="fill:#2ca25f;"/>
   </g>
   <g id="patch_237">
    <path clip-path="url(#pf84b045e73)" d="M 167.552704 74.71875 
L 168.065153 74.71875 
L 168.065153 25.684613 
L 167.552704 25.684613 
z
" style="fill:#2ca25f;"/>
   </g>
   <g id="patch_238">
    <path clip-path="url(#pf84b045e73)" d="M 168.065153 74.71875 
L 168.577602 74.71875 
L 168.577602 28.957019 
L 168.065153 28.957019 
z
" style="fill:#2ca25f;"/>
   </g>
   <g id="patch_239">
    <path clip-path="url(#pf84b045e73)" d="M 168.577602 74.71875 
L 169.090051 74.71875 
L 169.090051 28.931047 
L 168.577602 28.931047 
z
" style="fill:#2ca25f;"/>
   </g>
   <g id="patch_240">
    <path clip-path="url(#pf84b045e73)" d="M 169.090051 74.71875 
L 169.6025 74.71875 
L 169.6025 29.891992 
L 169.090051 29.891992 
z
" style="fill:#2ca25f;"/>
   </g>
   <g id="patch_241">
    <path clip-path="url(#pf84b045e73)" d="M 169.6025 74.71875 
L 170.114949 74.71875 
L 170.114949 31.63208 
L 169.6025 31.63208 
z
" style="fill:#2ca25f;"/>
   </g>
   <g id="patch_242">
    <path clip-path="url(#pf84b045e73)" d="M 170.114949 74.71875 
L 170.627398 74.71875 
L 170.627398 35.943344 
L 170.114949 35.943344 
z
" style="fill:#2ca25f;"/>
   </g>
   <g id="patch_243">
    <path clip-path="url(#pf84b045e73)" d="M 170.627398 74.71875 
L 171.139847 74.71875 
L 171.139847 36.93026 
L 170.627398 36.93026 
z
" style="fill:#2ca25f;"/>
   </g>
   <g id="patch_244">
    <path clip-path="url(#pf84b045e73)" d="M 171.139847 74.71875 
L 171.652296 74.71875 
L 171.652296 38.69632 
L 171.139847 38.69632 
z
" style="fill:#2ca25f;"/>
   </g>
   <g id="patch_245">
    <path clip-path="url(#pf84b045e73)" d="M 171.652296 74.71875 
L 172.164745 74.71875 
L 172.164745 41.241524 
L 171.652296 41.241524 
z
" style="fill:#2ca25f;"/>
   </g>
   <g id="patch_246">
    <path clip-path="url(#pf84b045e73)" d="M 172.164745 74.71875 
L 172.677194 74.71875 
L 172.677194 43.864643 
L 172.164745 43.864643 
z
" style="fill:#2ca25f;"/>
   </g>
   <g id="patch_247">
    <path clip-path="url(#pf84b045e73)" d="M 172.677194 74.71875 
L 173.189643 74.71875 
L 173.189643 47.188991 
L 172.677194 47.188991 
z
" style="fill:#2ca25f;"/>
   </g>
   <g id="patch_248">
    <path clip-path="url(#pf84b045e73)" d="M 173.189643 74.71875 
L 173.702092 74.71875 
L 173.702092 51.396369 
L 173.189643 51.396369 
z
" style="fill:#2ca25f;"/>
   </g>
   <g id="patch_249">
    <path clip-path="url(#pf84b045e73)" d="M 173.702092 74.71875 
L 174.214541 74.71875 
L 174.214541 53.474087 
L 173.702092 53.474087 
z
" style="fill:#2ca25f;"/>
   </g>
   <g id="patch_250">
    <path clip-path="url(#pf84b045e73)" d="M 174.214541 74.71875 
L 174.72699 74.71875 
L 174.72699 57.291893 
L 174.214541 57.291893 
z
" style="fill:#2ca25f;"/>
   </g>
   <g id="patch_251">
    <path clip-path="url(#pf84b045e73)" d="M 174.72699 74.71875 
L 175.239439 74.71875 
L 175.239439 58.278809 
L 174.72699 58.278809 
z
" style="fill:#2ca25f;"/>
   </g>
   <g id="patch_252">
    <path clip-path="url(#pf84b045e73)" d="M 175.239439 74.71875 
L 175.751888 74.71875 
L 175.751888 60.538327 
L 175.239439 60.538327 
z
" style="fill:#2ca25f;"/>
   </g>
   <g id="patch_253">
    <path clip-path="url(#pf84b045e73)" d="M 175.751888 74.71875 
L 176.264337 74.71875 
L 176.264337 62.875759 
L 175.751888 62.875759 
z
" style="fill:#2ca25f;"/>
   </g>
   <g id="patch_254">
    <path clip-path="url(#pf84b045e73)" d="M 176.264337 74.71875 
L 176.776786 74.71875 
L 176.776786 64.771677 
L 176.264337 64.771677 
z
" style="fill:#2ca25f;"/>
   </g>
   <g id="patch_255">
    <path clip-path="url(#pf84b045e73)" d="M 176.776786 74.71875 
L 177.289235 74.71875 
L 177.289235 66.875366 
L 176.776786 66.875366 
z
" style="fill:#2ca25f;"/>
   </g>
   <g id="patch_256">
    <path clip-path="url(#pf84b045e73)" d="M 177.289235 74.71875 
L 177.801684 74.71875 
L 177.801684 67.732424 
L 177.289235 67.732424 
z
" style="fill:#2ca25f;"/>
   </g>
   <g id="patch_257">
    <path clip-path="url(#pf84b045e73)" d="M 177.801684 74.71875 
L 178.314133 74.71875 
L 178.314133 69.836114 
L 177.801684 69.836114 
z
" style="fill:#2ca25f;"/>
   </g>
   <g id="patch_258">
    <path clip-path="url(#pf84b045e73)" d="M 178.314133 74.71875 
L 178.826582 74.71875 
L 178.826582 70.329571 
L 178.314133 70.329571 
z
" style="fill:#2ca25f;"/>
   </g>
   <g id="patch_259">
    <path clip-path="url(#pf84b045e73)" d="M 178.826582 74.71875 
L 179.339031 74.71875 
L 179.339031 72.043689 
L 178.826582 72.043689 
z
" style="fill:#2ca25f;"/>
   </g>
   <g id="patch_260">
    <path clip-path="url(#pf84b045e73)" d="M 179.339031 74.71875 
L 179.85148 74.71875 
L 179.85148 72.017717 
L 179.339031 72.017717 
z
" style="fill:#2ca25f;"/>
   </g>
   <g id="patch_261">
    <path clip-path="url(#pf84b045e73)" d="M 179.85148 74.71875 
L 180.363929 74.71875 
L 180.363929 73.290319 
L 179.85148 73.290319 
z
" style="fill:#2ca25f;"/>
   </g>
   <g id="patch_262">
    <path clip-path="url(#pf84b045e73)" d="M 180.363929 74.71875 
L 180.876378 74.71875 
L 180.876378 73.342262 
L 180.363929 73.342262 
z
" style="fill:#2ca25f;"/>
   </g>
   <g id="patch_263">
    <path clip-path="url(#pf84b045e73)" d="M 180.876378 74.71875 
L 181.388827 74.71875 
L 181.388827 73.861691 
L 180.876378 73.861691 
z
" style="fill:#2ca25f;"/>
   </g>
   <g id="patch_264">
    <path clip-path="url(#pf84b045e73)" d="M 181.388827 74.71875 
L 181.901276 74.71875 
L 181.901276 74.043492 
L 181.388827 74.043492 
z
" style="fill:#2ca25f;"/>
   </g>
   <g id="patch_265">
    <path clip-path="url(#pf84b045e73)" d="M 181.901276 74.71875 
L 182.413724 74.71875 
L 182.413724 74.303206 
L 181.901276 74.303206 
z
" style="fill:#2ca25f;"/>
   </g>
   <g id="patch_266">
    <path clip-path="url(#pf84b045e73)" d="M 182.413724 74.71875 
L 182.926173 74.71875 
L 182.926173 74.433064 
L 182.413724 74.433064 
z
" style="fill:#2ca25f;"/>
   </g>
   <g id="patch_267">
    <path clip-path="url(#pf84b045e73)" d="M 182.926173 74.71875 
L 183.438622 74.71875 
L 183.438622 74.485007 
L 182.926173 74.485007 
z
" style="fill:#2ca25f;"/>
   </g>
   <g id="patch_268">
    <path clip-path="url(#pf84b045e73)" d="M 183.438622 74.71875 
L 183.951071 74.71875 
L 183.951071 74.588893 
L 183.438622 74.588893 
z
" style="fill:#2ca25f;"/>
   </g>
   <g id="patch_269">
    <path clip-path="url(#pf84b045e73)" d="M 183.951071 74.71875 
L 184.46352 74.71875 
L 184.46352 74.692779 
L 183.951071 74.692779 
z
" style="fill:#2ca25f;"/>
   </g>
   <g id="patch_270">
    <path clip-path="url(#pf84b045e73)" d="M 184.46352 74.71875 
L 184.975969 74.71875 
L 184.975969 74.666807 
L 184.46352 74.666807 
z
" style="fill:#2ca25f;"/>
   </g>
   <g id="patch_271">
    <path clip-path="url(#pf84b045e73)" d="M 184.975969 74.71875 
L 185.488418 74.71875 
L 185.488418 74.666807 
L 184.975969 74.666807 
z
" style="fill:#2ca25f;"/>
   </g>
   <g id="patch_272">
    <path clip-path="url(#pf84b045e73)" d="M 185.488418 74.71875 
L 186.000867 74.71875 
L 186.000867 74.71875 
L 185.488418 74.71875 
z
" style="fill:#2ca25f;"/>
   </g>
   <g id="patch_273">
    <path clip-path="url(#pf84b045e73)" d="M 186.000867 74.71875 
L 186.513316 74.71875 
L 186.513316 74.71875 
L 186.000867 74.71875 
z
" style="fill:#2ca25f;"/>
   </g>
   <g id="patch_274">
    <path clip-path="url(#pf84b045e73)" d="M 186.513316 74.71875 
L 187.025765 74.71875 
L 187.025765 74.71875 
L 186.513316 74.71875 
z
" style="fill:#2ca25f;"/>
   </g>
   <g id="patch_275">
    <path clip-path="url(#pf84b045e73)" d="M 187.025765 74.71875 
L 187.538214 74.71875 
L 187.538214 74.71875 
L 187.025765 74.71875 
z
" style="fill:#2ca25f;"/>
   </g>
   <g id="patch_276">
    <path clip-path="url(#pf84b045e73)" d="M 187.538214 74.71875 
L 188.050663 74.71875 
L 188.050663 74.71875 
L 187.538214 74.71875 
z
" style="fill:#2ca25f;"/>
   </g>
   <g id="patch_277">
    <path clip-path="url(#pf84b045e73)" d="M 188.050663 74.71875 
L 188.563112 74.71875 
L 188.563112 74.71875 
L 188.050663 74.71875 
z
" style="fill:#2ca25f;"/>
   </g>
   <g id="patch_278">
    <path clip-path="url(#pf84b045e73)" d="M 188.563112 74.71875 
L 189.075561 74.71875 
L 189.075561 74.71875 
L 188.563112 74.71875 
z
" style="fill:#2ca25f;"/>
   </g>
   <g id="patch_279">
    <path clip-path="url(#pf84b045e73)" d="M 189.075561 74.71875 
L 189.58801 74.71875 
L 189.58801 74.71875 
L 189.075561 74.71875 
z
" style="fill:#2ca25f;"/>
   </g>
   <g id="patch_280">
    <path clip-path="url(#pf84b045e73)" d="M 189.58801 74.71875 
L 190.100459 74.71875 
L 190.100459 74.71875 
L 189.58801 74.71875 
z
" style="fill:#2ca25f;"/>
   </g>
   <g id="patch_281">
    <path clip-path="url(#pf84b045e73)" d="M 190.100459 74.71875 
L 190.612908 74.71875 
L 190.612908 74.71875 
L 190.100459 74.71875 
z
" style="fill:#2ca25f;"/>
   </g>
   <g id="patch_282">
    <path clip-path="url(#pf84b045e73)" d="M 190.612908 74.71875 
L 191.125357 74.71875 
L 191.125357 74.71875 
L 190.612908 74.71875 
z
" style="fill:#2ca25f;"/>
   </g>
   <g id="patch_283">
    <path clip-path="url(#pf84b045e73)" d="M 191.125357 74.71875 
L 191.637806 74.71875 
L 191.637806 74.71875 
L 191.125357 74.71875 
z
" style="fill:#2ca25f;"/>
   </g>
   <g id="patch_284">
    <path clip-path="url(#pf84b045e73)" d="M 191.637806 74.71875 
L 192.150255 74.71875 
L 192.150255 74.71875 
L 191.637806 74.71875 
z
" style="fill:#2ca25f;"/>
   </g>
   <g id="patch_285">
    <path clip-path="url(#pf84b045e73)" d="M 192.150255 74.71875 
L 192.662704 74.71875 
L 192.662704 74.71875 
L 192.150255 74.71875 
z
" style="fill:#2ca25f;"/>
   </g>
   <g id="patch_286">
    <path clip-path="url(#pf84b045e73)" d="M 192.662704 74.71875 
L 193.175153 74.71875 
L 193.175153 74.71875 
L 192.662704 74.71875 
z
" style="fill:#2ca25f;"/>
   </g>
   <g id="patch_287">
    <path clip-path="url(#pf84b045e73)" d="M 193.175153 74.71875 
L 193.687602 74.71875 
L 193.687602 74.71875 
L 193.175153 74.71875 
z
" style="fill:#2ca25f;"/>
   </g>
   <g id="patch_288">
    <path clip-path="url(#pf84b045e73)" d="M 193.687602 74.71875 
L 194.200051 74.71875 
L 194.200051 74.71875 
L 193.687602 74.71875 
z
" style="fill:#2ca25f;"/>
   </g>
   <g id="patch_289">
    <path clip-path="url(#pf84b045e73)" d="M 194.200051 74.71875 
L 194.7125 74.71875 
L 194.7125 74.71875 
L 194.200051 74.71875 
z
" style="fill:#2ca25f;"/>
   </g>
   <g id="patch_290">
    <path clip-path="url(#pf84b045e73)" d="M 194.7125 74.71875 
L 195.224949 74.71875 
L 195.224949 74.71875 
L 194.7125 74.71875 
z
" style="fill:#2ca25f;"/>
   </g>
   <g id="patch_291">
    <path clip-path="url(#pf84b045e73)" d="M 195.224949 74.71875 
L 195.737398 74.71875 
L 195.737398 74.71875 
L 195.224949 74.71875 
z
" style="fill:#2ca25f;"/>
   </g>
   <g id="patch_292">
    <path clip-path="url(#pf84b045e73)" d="M 195.737398 74.71875 
L 196.249847 74.71875 
L 196.249847 74.71875 
L 195.737398 74.71875 
z
" style="fill:#2ca25f;"/>
   </g>
   <g id="patch_293">
    <path clip-path="url(#pf84b045e73)" d="M 196.249847 74.71875 
L 196.762296 74.71875 
L 196.762296 74.71875 
L 196.249847 74.71875 
z
" style="fill:#2ca25f;"/>
   </g>
   <g id="patch_294">
    <path clip-path="url(#pf84b045e73)" d="M 196.762296 74.71875 
L 197.274745 74.71875 
L 197.274745 74.71875 
L 196.762296 74.71875 
z
" style="fill:#2ca25f;"/>
   </g>
   <g id="patch_295">
    <path clip-path="url(#pf84b045e73)" d="M 197.274745 74.71875 
L 197.787194 74.71875 
L 197.787194 74.71875 
L 197.274745 74.71875 
z
" style="fill:#2ca25f;"/>
   </g>
   <g id="patch_296">
    <path clip-path="url(#pf84b045e73)" d="M 197.787194 74.71875 
L 198.299643 74.71875 
L 198.299643 74.71875 
L 197.787194 74.71875 
z
" style="fill:#2ca25f;"/>
   </g>
   <g id="patch_297">
    <path clip-path="url(#pf84b045e73)" d="M 198.299643 74.71875 
L 198.812092 74.71875 
L 198.812092 74.71875 
L 198.299643 74.71875 
z
" style="fill:#2ca25f;"/>
   </g>
   <g id="patch_298">
    <path clip-path="url(#pf84b045e73)" d="M 198.812092 74.71875 
L 199.324541 74.71875 
L 199.324541 74.71875 
L 198.812092 74.71875 
z
" style="fill:#2ca25f;"/>
   </g>
   <g id="patch_299">
    <path clip-path="url(#pf84b045e73)" d="M 199.324541 74.71875 
L 199.83699 74.71875 
L 199.83699 74.71875 
L 199.324541 74.71875 
z
" style="fill:#2ca25f;"/>
   </g>
   <g id="patch_300">
    <path clip-path="url(#pf84b045e73)" d="M 199.83699 74.71875 
L 200.349439 74.71875 
L 200.349439 74.71875 
L 199.83699 74.71875 
z
" style="fill:#2ca25f;"/>
   </g>
   <g id="patch_301">
    <path clip-path="url(#pf84b045e73)" d="M 200.349439 74.71875 
L 200.861888 74.71875 
L 200.861888 74.71875 
L 200.349439 74.71875 
z
" style="fill:#2ca25f;"/>
   </g>
   <g id="patch_302">
    <path clip-path="url(#pf84b045e73)" d="M 200.861888 74.71875 
L 201.374337 74.71875 
L 201.374337 74.71875 
L 200.861888 74.71875 
z
" style="fill:#2ca25f;"/>
   </g>
   <g id="patch_303">
    <path clip-path="url(#pf84b045e73)" d="M 201.374337 74.71875 
L 201.886786 74.71875 
L 201.886786 74.71875 
L 201.374337 74.71875 
z
" style="fill:#2ca25f;"/>
   </g>
   <g id="patch_304">
    <path clip-path="url(#pf84b045e73)" d="M 201.886786 74.71875 
L 202.399235 74.71875 
L 202.399235 74.71875 
L 201.886786 74.71875 
z
" style="fill:#2ca25f;"/>
   </g>
   <g id="patch_305">
    <path clip-path="url(#pf84b045e73)" d="M 202.399235 74.71875 
L 202.911684 74.71875 
L 202.911684 74.71875 
L 202.399235 74.71875 
z
" style="fill:#2ca25f;"/>
   </g>
   <g id="patch_306">
    <path clip-path="url(#pf84b045e73)" d="M 202.911684 74.71875 
L 203.424133 74.71875 
L 203.424133 74.71875 
L 202.911684 74.71875 
z
" style="fill:#2ca25f;"/>
   </g>
   <g id="matplotlib.axis_5">
    <g id="xtick_5">
     <g id="line2d_5">
      <g>
       <use style="stroke:#000000;stroke-width:1.5;" x="152.179235" xlink:href="#mc1fad0e066" y="74.71875"/>
      </g>
     </g>
     <g id="text_10">
      <text style="font-family:DejaVu Sans;font-size:8px;font-stretch:normal;font-style:normal;font-weight:normal;text-anchor:middle;" transform="rotate(-0, 152.179235, 87.7975)" x="152.179235" y="87.7975">0</text>
     </g>
    </g>
    <g id="xtick_6">
     <g id="line2d_6">
      <g>
       <use style="stroke:#000000;stroke-width:1.5;" x="203.424133" xlink:href="#mc1fad0e066" y="74.71875"/>
      </g>
     </g>
     <g id="text_11">
      <text style="font-family:DejaVu Sans;font-size:8px;font-stretch:normal;font-style:normal;font-weight:normal;text-anchor:middle;" transform="rotate(-0, 203.424133, 87.7975)" x="203.424133" y="87.7975">200</text>
     </g>
    </g>
    <g id="text_12">
     <!-- Energy ($\mu$J/s) -->
     <g transform="translate(152.161684 99.54125)">
      <text>
       <tspan style="font-family:DejaVu Sans;font-size:8px;font-style:book;font-weight:book;" x="0 5.054688 10.125 15.046875 18.335938 23.414062 28.148438 30.691406 33.8125 38.902344 41.261719 43.957031 48.125" y="-0.921875">Energy (μJ/s)</tspan>
      </text>
     </g>
    </g>
   </g>
   <g id="matplotlib.axis_6"/>
   <g id="patch_307">
    <path d="M 152.179235 74.71875 
L 203.424133 74.71875 
" style="fill:none;stroke:#000000;stroke-linecap:square;stroke-linejoin:miter;stroke-width:1.5;"/>
   </g>
   <g id="text_13">
    <text style="font-family:DejaVu Sans;font-size:8px;font-stretch:normal;font-style:normal;font-weight:normal;text-anchor:middle;" transform="rotate(-0, 177.801684, 13.27875)" x="177.801684" y="13.27875">PY</text>
   </g>
  </g>
  <g id="axes_4">
   <g id="patch_308">
    <path d="M 218.797602 74.71875 
L 270.0425 74.71875 
L 270.0425 19.27875 
L 218.797602 19.27875 
z
" style="fill:none;"/>
   </g>
   <g id="patch_309">
    <path clip-path="url(#p748580899a)" d="M 218.797602 74.71875 
L 219.310051 74.71875 
L 219.310051 74.71875 
L 218.797602 74.71875 
z
"/>
   </g>
   <g id="patch_310">
    <path clip-path="url(#p748580899a)" d="M 219.310051 74.71875 
L 219.8225 74.71875 
L 219.8225 74.71875 
L 219.310051 74.71875 
z
"/>
   </g>
   <g id="patch_311">
    <path clip-path="url(#p748580899a)" d="M 219.8225 74.71875 
L 220.334949 74.71875 
L 220.334949 74.71875 
L 219.8225 74.71875 
z
"/>
   </g>
   <g id="patch_312">
    <path clip-path="url(#p748580899a)" d="M 220.334949 74.71875 
L 220.847398 74.71875 
L 220.847398 74.71875 
L 220.334949 74.71875 
z
"/>
   </g>
   <g id="patch_313">
    <path clip-path="url(#p748580899a)" d="M 220.847398 74.71875 
L 221.359847 74.71875 
L 221.359847 74.71875 
L 220.847398 74.71875 
z
"/>
   </g>
   <g id="patch_314">
    <path clip-path="url(#p748580899a)" d="M 221.359847 74.71875 
L 221.872296 74.71875 
L 221.872296 74.71875 
L 221.359847 74.71875 
z
"/>
   </g>
   <g id="patch_315">
    <path clip-path="url(#p748580899a)" d="M 221.872296 74.71875 
L 222.384745 74.71875 
L 222.384745 74.71875 
L 221.872296 74.71875 
z
"/>
   </g>
   <g id="patch_316">
    <path clip-path="url(#p748580899a)" d="M 222.384745 74.71875 
L 222.897194 74.71875 
L 222.897194 74.71875 
L 222.384745 74.71875 
z
"/>
   </g>
   <g id="patch_317">
    <path clip-path="url(#p748580899a)" d="M 222.897194 74.71875 
L 223.409643 74.71875 
L 223.409643 74.71875 
L 222.897194 74.71875 
z
"/>
   </g>
   <g id="patch_318">
    <path clip-path="url(#p748580899a)" d="M 223.409643 74.71875 
L 223.922092 74.71875 
L 223.922092 74.71875 
L 223.409643 74.71875 
z
"/>
   </g>
   <g id="patch_319">
    <path clip-path="url(#p748580899a)" d="M 223.922092 74.71875 
L 224.434541 74.71875 
L 224.434541 74.658818 
L 223.922092 74.658818 
z
"/>
   </g>
   <g id="patch_320">
    <path clip-path="url(#p748580899a)" d="M 224.434541 74.71875 
L 224.94699 74.71875 
L 224.94699 74.658818 
L 224.434541 74.658818 
z
"/>
   </g>
   <g id="patch_321">
    <path clip-path="url(#p748580899a)" d="M 224.94699 74.71875 
L 225.459439 74.71875 
L 225.459439 74.538954 
L 224.94699 74.538954 
z
"/>
   </g>
   <g id="patch_322">
    <path clip-path="url(#p748580899a)" d="M 225.459439 74.71875 
L 225.971888 74.71875 
L 225.971888 74.628852 
L 225.459439 74.628852 
z
"/>
   </g>
   <g id="patch_323">
    <path clip-path="url(#p748580899a)" d="M 225.971888 74.71875 
L 226.484337 74.71875 
L 226.484337 74.389125 
L 225.971888 74.389125 
z
"/>
   </g>
   <g id="patch_324">
    <path clip-path="url(#p748580899a)" d="M 226.484337 74.71875 
L 226.996786 74.71875 
L 226.996786 73.999567 
L 226.484337 73.999567 
z
"/>
   </g>
   <g id="patch_325">
    <path clip-path="url(#p748580899a)" d="M 226.996786 74.71875 
L 227.509235 74.71875 
L 227.509235 73.31035 
L 226.996786 73.31035 
z
"/>
   </g>
   <g id="patch_326">
    <path clip-path="url(#p748580899a)" d="M 227.509235 74.71875 
L 228.021684 74.71875 
L 228.021684 73.100589 
L 227.509235 73.100589 
z
"/>
   </g>
   <g id="patch_327">
    <path clip-path="url(#p748580899a)" d="M 228.021684 74.71875 
L 228.534133 74.71875 
L 228.534133 72.381406 
L 228.021684 72.381406 
z
"/>
   </g>
   <g id="patch_328">
    <path clip-path="url(#p748580899a)" d="M 228.534133 74.71875 
L 229.046582 74.71875 
L 229.046582 71.54236 
L 228.534133 71.54236 
z
"/>
   </g>
   <g id="patch_329">
    <path clip-path="url(#p748580899a)" d="M 229.046582 74.71875 
L 229.559031 74.71875 
L 229.559031 70.463585 
L 229.046582 70.463585 
z
"/>
   </g>
   <g id="patch_330">
    <path clip-path="url(#p748580899a)" d="M 229.559031 74.71875 
L 230.07148 74.71875 
L 230.07148 69.564607 
L 229.559031 69.564607 
z
"/>
   </g>
   <g id="patch_331">
    <path clip-path="url(#p748580899a)" d="M 230.07148 74.71875 
L 230.583929 74.71875 
L 230.583929 67.706718 
L 230.07148 67.706718 
z
"/>
   </g>
   <g id="patch_332">
    <path clip-path="url(#p748580899a)" d="M 230.583929 74.71875 
L 231.096378 74.71875 
L 231.096378 66.837706 
L 230.583929 66.837706 
z
"/>
   </g>
   <g id="patch_333">
    <path clip-path="url(#p748580899a)" d="M 231.096378 74.71875 
L 231.608827 74.71875 
L 231.608827 65.279476 
L 231.096378 65.279476 
z
"/>
   </g>
   <g id="patch_334">
    <path clip-path="url(#p748580899a)" d="M 231.608827 74.71875 
L 232.121276 74.71875 
L 232.121276 63.451554 
L 231.608827 63.451554 
z
"/>
   </g>
   <g id="patch_335">
    <path clip-path="url(#p748580899a)" d="M 232.121276 74.71875 
L 232.633724 74.71875 
L 232.633724 60.035436 
L 232.121276 60.035436 
z
"/>
   </g>
   <g id="patch_336">
    <path clip-path="url(#p748580899a)" d="M 232.633724 74.71875 
L 233.146173 74.71875 
L 233.146173 59.975504 
L 232.633724 59.975504 
z
"/>
   </g>
   <g id="patch_337">
    <path clip-path="url(#p748580899a)" d="M 233.146173 74.71875 
L 233.658622 74.71875 
L 233.658622 55.360748 
L 233.146173 55.360748 
z
"/>
   </g>
   <g id="patch_338">
    <path clip-path="url(#p748580899a)" d="M 233.658622 74.71875 
L 234.171071 74.71875 
L 234.171071 53.832484 
L 233.658622 53.832484 
z
"/>
   </g>
   <g id="patch_339">
    <path clip-path="url(#p748580899a)" d="M 234.171071 74.71875 
L 234.68352 74.71875 
L 234.68352 49.547354 
L 234.171071 49.547354 
z
"/>
   </g>
   <g id="patch_340">
    <path clip-path="url(#p748580899a)" d="M 234.68352 74.71875 
L 235.195969 74.71875 
L 235.195969 49.307626 
L 234.68352 49.307626 
z
"/>
   </g>
   <g id="patch_341">
    <path clip-path="url(#p748580899a)" d="M 235.195969 74.71875 
L 235.708418 74.71875 
L 235.708418 46.191168 
L 235.195969 46.191168 
z
"/>
   </g>
   <g id="patch_342">
    <path clip-path="url(#p748580899a)" d="M 235.708418 74.71875 
L 236.220867 74.71875 
L 236.220867 40.827263 
L 235.708418 40.827263 
z
"/>
   </g>
   <g id="patch_343">
    <path clip-path="url(#p748580899a)" d="M 236.220867 74.71875 
L 236.733316 74.71875 
L 236.733316 39.628625 
L 236.220867 39.628625 
z
"/>
   </g>
   <g id="patch_344">
    <path clip-path="url(#p748580899a)" d="M 236.733316 74.71875 
L 237.245765 74.71875 
L 237.245765 38.400021 
L 236.733316 38.400021 
z
"/>
   </g>
   <g id="patch_345">
    <path clip-path="url(#p748580899a)" d="M 237.245765 74.71875 
L 237.758214 74.71875 
L 237.758214 36.602064 
L 237.245765 36.602064 
z
"/>
   </g>
   <g id="patch_346">
    <path clip-path="url(#p748580899a)" d="M 237.758214 74.71875 
L 238.270663 74.71875 
L 238.270663 32.466764 
L 237.758214 32.466764 
z
"/>
   </g>
   <g id="patch_347">
    <path clip-path="url(#p748580899a)" d="M 238.270663 74.71875 
L 238.783112 74.71875 
L 238.783112 30.219318 
L 238.270663 30.219318 
z
"/>
   </g>
   <g id="patch_348">
    <path clip-path="url(#p748580899a)" d="M 238.783112 74.71875 
L 239.295561 74.71875 
L 239.295561 28.061769 
L 238.783112 28.061769 
z
"/>
   </g>
   <g id="patch_349">
    <path clip-path="url(#p748580899a)" d="M 239.295561 74.71875 
L 239.80801 74.71875 
L 239.80801 26.143949 
L 239.295561 26.143949 
z
"/>
   </g>
   <g id="patch_350">
    <path clip-path="url(#p748580899a)" d="M 239.80801 74.71875 
L 240.320459 74.71875 
L 240.320459 25.994119 
L 239.80801 25.994119 
z
"/>
   </g>
   <g id="patch_351">
    <path clip-path="url(#p748580899a)" d="M 240.320459 74.71875 
L 240.832908 74.71875 
L 240.832908 25.634528 
L 240.320459 25.634528 
z
"/>
   </g>
   <g id="patch_352">
    <path clip-path="url(#p748580899a)" d="M 240.832908 74.71875 
L 241.345357 74.71875 
L 241.345357 24.375958 
L 240.832908 24.375958 
z
"/>
   </g>
   <g id="patch_353">
    <path clip-path="url(#p748580899a)" d="M 241.345357 74.71875 
L 241.857806 74.71875 
L 241.857806 25.334868 
L 241.345357 25.334868 
z
"/>
   </g>
   <g id="patch_354">
    <path clip-path="url(#p748580899a)" d="M 241.857806 74.71875 
L 242.370255 74.71875 
L 242.370255 22.278341 
L 241.857806 22.278341 
z
"/>
   </g>
   <g id="patch_355">
    <path clip-path="url(#p748580899a)" d="M 242.370255 74.71875 
L 242.882704 74.71875 
L 242.882704 21.91875 
L 242.370255 21.91875 
z
"/>
   </g>
   <g id="patch_356">
    <path clip-path="url(#p748580899a)" d="M 242.882704 74.71875 
L 243.395153 74.71875 
L 243.395153 23.716707 
L 242.882704 23.716707 
z
"/>
   </g>
   <g id="patch_357">
    <path clip-path="url(#p748580899a)" d="M 243.395153 74.71875 
L 243.907602 74.71875 
L 243.907602 24.795481 
L 243.395153 24.795481 
z
"/>
   </g>
   <g id="patch_358">
    <path clip-path="url(#p748580899a)" d="M 243.907602 74.71875 
L 244.420051 74.71875 
L 244.420051 26.323744 
L 243.907602 26.323744 
z
"/>
   </g>
   <g id="patch_359">
    <path clip-path="url(#p748580899a)" d="M 244.420051 74.71875 
L 244.9325 74.71875 
L 244.9325 23.9864 
L 244.420051 23.9864 
z
"/>
   </g>
   <g id="patch_360">
    <path clip-path="url(#p748580899a)" d="M 244.9325 74.71875 
L 245.444949 74.71875 
L 245.444949 27.552348 
L 244.9325 27.552348 
z
"/>
   </g>
   <g id="patch_361">
    <path clip-path="url(#p748580899a)" d="M 245.444949 74.71875 
L 245.957398 74.71875 
L 245.957398 27.792076 
L 245.444949 27.792076 
z
"/>
   </g>
   <g id="patch_362">
    <path clip-path="url(#p748580899a)" d="M 245.957398 74.71875 
L 246.469847 74.71875 
L 246.469847 31.028398 
L 245.957398 31.028398 
z
"/>
   </g>
   <g id="patch_363">
    <path clip-path="url(#p748580899a)" d="M 246.469847 74.71875 
L 246.982296 74.71875 
L 246.982296 33.545538 
L 246.469847 33.545538 
z
"/>
   </g>
   <g id="patch_364">
    <path clip-path="url(#p748580899a)" d="M 246.982296 74.71875 
L 247.494745 74.71875 
L 247.494745 33.785265 
L 246.982296 33.785265 
z
"/>
   </g>
   <g id="patch_365">
    <path clip-path="url(#p748580899a)" d="M 247.494745 74.71875 
L 248.007194 74.71875 
L 248.007194 36.182541 
L 247.494745 36.182541 
z
"/>
   </g>
   <g id="patch_366">
    <path clip-path="url(#p748580899a)" d="M 248.007194 74.71875 
L 248.519643 74.71875 
L 248.519643 38.310123 
L 248.007194 38.310123 
z
"/>
   </g>
   <g id="patch_367">
    <path clip-path="url(#p748580899a)" d="M 248.519643 74.71875 
L 249.032092 74.71875 
L 249.032092 41.037025 
L 248.519643 41.037025 
z
"/>
   </g>
   <g id="patch_368">
    <path clip-path="url(#p748580899a)" d="M 249.032092 74.71875 
L 249.544541 74.71875 
L 249.544541 42.47539 
L 249.032092 42.47539 
z
"/>
   </g>
   <g id="patch_369">
    <path clip-path="url(#p748580899a)" d="M 249.544541 74.71875 
L 250.05699 74.71875 
L 250.05699 45.322155 
L 249.544541 45.322155 
z
"/>
   </g>
   <g id="patch_370">
    <path clip-path="url(#p748580899a)" d="M 250.05699 74.71875 
L 250.569439 74.71875 
L 250.569439 47.659499 
L 250.05699 47.659499 
z
"/>
   </g>
   <g id="patch_371">
    <path clip-path="url(#p748580899a)" d="M 250.569439 74.71875 
L 251.081888 74.71875 
L 251.081888 50.146673 
L 250.569439 50.146673 
z
"/>
   </g>
   <g id="patch_372">
    <path clip-path="url(#p748580899a)" d="M 251.081888 74.71875 
L 251.594337 74.71875 
L 251.594337 52.184357 
L 251.081888 52.184357 
z
"/>
   </g>
   <g id="patch_373">
    <path clip-path="url(#p748580899a)" d="M 251.594337 74.71875 
L 252.106786 74.71875 
L 252.106786 53.652689 
L 251.594337 53.652689 
z
"/>
   </g>
   <g id="patch_374">
    <path clip-path="url(#p748580899a)" d="M 252.106786 74.71875 
L 252.619235 74.71875 
L 252.619235 55.390714 
L 252.106786 55.390714 
z
"/>
   </g>
   <g id="patch_375">
    <path clip-path="url(#p748580899a)" d="M 252.619235 74.71875 
L 253.131684 74.71875 
L 253.131684 58.237479 
L 252.619235 58.237479 
z
"/>
   </g>
   <g id="patch_376">
    <path clip-path="url(#p748580899a)" d="M 253.131684 74.71875 
L 253.644133 74.71875 
L 253.644133 58.477206 
L 253.131684 58.477206 
z
"/>
   </g>
   <g id="patch_377">
    <path clip-path="url(#p748580899a)" d="M 253.644133 74.71875 
L 254.156582 74.71875 
L 254.156582 62.013188 
L 253.644133 62.013188 
z
"/>
   </g>
   <g id="patch_378">
    <path clip-path="url(#p748580899a)" d="M 254.156582 74.71875 
L 254.669031 74.71875 
L 254.669031 64.170736 
L 254.156582 64.170736 
z
"/>
   </g>
   <g id="patch_379">
    <path clip-path="url(#p748580899a)" d="M 254.669031 74.71875 
L 255.18148 74.71875 
L 255.18148 64.59026 
L 254.669031 64.59026 
z
"/>
   </g>
   <g id="patch_380">
    <path clip-path="url(#p748580899a)" d="M 255.18148 74.71875 
L 255.693929 74.71875 
L 255.693929 67.137365 
L 255.18148 67.137365 
z
"/>
   </g>
   <g id="patch_381">
    <path clip-path="url(#p748580899a)" d="M 255.693929 74.71875 
L 256.206378 74.71875 
L 256.206378 67.706718 
L 255.693929 67.706718 
z
"/>
   </g>
   <g id="patch_382">
    <path clip-path="url(#p748580899a)" d="M 256.206378 74.71875 
L 256.718827 74.71875 
L 256.718827 67.826582 
L 256.206378 67.826582 
z
"/>
   </g>
   <g id="patch_383">
    <path clip-path="url(#p748580899a)" d="M 256.718827 74.71875 
L 257.231276 74.71875 
L 257.231276 69.774369 
L 256.718827 69.774369 
z
"/>
   </g>
   <g id="patch_384">
    <path clip-path="url(#p748580899a)" d="M 257.231276 74.71875 
L 257.743724 74.71875 
L 257.743724 70.883109 
L 257.231276 70.883109 
z
"/>
   </g>
   <g id="patch_385">
    <path clip-path="url(#p748580899a)" d="M 257.743724 74.71875 
L 258.256173 74.71875 
L 258.256173 71.482428 
L 257.743724 71.482428 
z
"/>
   </g>
   <g id="patch_386">
    <path clip-path="url(#p748580899a)" d="M 258.256173 74.71875 
L 258.768622 74.71875 
L 258.768622 72.111713 
L 258.256173 72.111713 
z
"/>
   </g>
   <g id="patch_387">
    <path clip-path="url(#p748580899a)" d="M 258.768622 74.71875 
L 259.281071 74.71875 
L 259.281071 72.681066 
L 258.768622 72.681066 
z
"/>
   </g>
   <g id="patch_388">
    <path clip-path="url(#p748580899a)" d="M 259.281071 74.71875 
L 259.79352 74.71875 
L 259.79352 72.531236 
L 259.281071 72.531236 
z
"/>
   </g>
   <g id="patch_389">
    <path clip-path="url(#p748580899a)" d="M 259.79352 74.71875 
L 260.305969 74.71875 
L 260.305969 73.160521 
L 259.79352 73.160521 
z
"/>
   </g>
   <g id="patch_390">
    <path clip-path="url(#p748580899a)" d="M 260.305969 74.71875 
L 260.818418 74.71875 
L 260.818418 73.75984 
L 260.305969 73.75984 
z
"/>
   </g>
   <g id="patch_391">
    <path clip-path="url(#p748580899a)" d="M 260.818418 74.71875 
L 261.330867 74.71875 
L 261.330867 73.909669 
L 260.818418 73.909669 
z
"/>
   </g>
   <g id="patch_392">
    <path clip-path="url(#p748580899a)" d="M 261.330867 74.71875 
L 261.843316 74.71875 
L 261.843316 74.149397 
L 261.330867 74.149397 
z
"/>
   </g>
   <g id="patch_393">
    <path clip-path="url(#p748580899a)" d="M 261.843316 74.71875 
L 262.355765 74.71875 
L 262.355765 73.879703 
L 261.843316 73.879703 
z
"/>
   </g>
   <g id="patch_394">
    <path clip-path="url(#p748580899a)" d="M 262.355765 74.71875 
L 262.868214 74.71875 
L 262.868214 74.299227 
L 262.355765 74.299227 
z
"/>
   </g>
   <g id="patch_395">
    <path clip-path="url(#p748580899a)" d="M 262.868214 74.71875 
L 263.380663 74.71875 
L 263.380663 74.449056 
L 262.868214 74.449056 
z
"/>
   </g>
   <g id="patch_396">
    <path clip-path="url(#p748580899a)" d="M 263.380663 74.71875 
L 263.893112 74.71875 
L 263.893112 74.56892 
L 263.380663 74.56892 
z
"/>
   </g>
   <g id="patch_397">
    <path clip-path="url(#p748580899a)" d="M 263.893112 74.71875 
L 264.405561 74.71875 
L 264.405561 74.56892 
L 263.893112 74.56892 
z
"/>
   </g>
   <g id="patch_398">
    <path clip-path="url(#p748580899a)" d="M 264.405561 74.71875 
L 264.91801 74.71875 
L 264.91801 74.508988 
L 264.405561 74.508988 
z
"/>
   </g>
   <g id="patch_399">
    <path clip-path="url(#p748580899a)" d="M 264.91801 74.71875 
L 265.430459 74.71875 
L 265.430459 74.56892 
L 264.91801 74.56892 
z
"/>
   </g>
   <g id="patch_400">
    <path clip-path="url(#p748580899a)" d="M 265.430459 74.71875 
L 265.942908 74.71875 
L 265.942908 74.688784 
L 265.430459 74.688784 
z
"/>
   </g>
   <g id="patch_401">
    <path clip-path="url(#p748580899a)" d="M 265.942908 74.71875 
L 266.455357 74.71875 
L 266.455357 74.658818 
L 265.942908 74.658818 
z
"/>
   </g>
   <g id="patch_402">
    <path clip-path="url(#p748580899a)" d="M 266.455357 74.71875 
L 266.967806 74.71875 
L 266.967806 74.658818 
L 266.455357 74.658818 
z
"/>
   </g>
   <g id="patch_403">
    <path clip-path="url(#p748580899a)" d="M 266.967806 74.71875 
L 267.480255 74.71875 
L 267.480255 74.688784 
L 266.967806 74.688784 
z
"/>
   </g>
   <g id="patch_404">
    <path clip-path="url(#p748580899a)" d="M 267.480255 74.71875 
L 267.992704 74.71875 
L 267.992704 74.71875 
L 267.480255 74.71875 
z
"/>
   </g>
   <g id="patch_405">
    <path clip-path="url(#p748580899a)" d="M 267.992704 74.71875 
L 268.505153 74.71875 
L 268.505153 74.71875 
L 267.992704 74.71875 
z
"/>
   </g>
   <g id="patch_406">
    <path clip-path="url(#p748580899a)" d="M 268.505153 74.71875 
L 269.017602 74.71875 
L 269.017602 74.71875 
L 268.505153 74.71875 
z
"/>
   </g>
   <g id="patch_407">
    <path clip-path="url(#p748580899a)" d="M 269.017602 74.71875 
L 269.530051 74.71875 
L 269.530051 74.71875 
L 269.017602 74.71875 
z
"/>
   </g>
   <g id="patch_408">
    <path clip-path="url(#p748580899a)" d="M 269.530051 74.71875 
L 270.0425 74.71875 
L 270.0425 74.71875 
L 269.530051 74.71875 
z
"/>
   </g>
   <g id="matplotlib.axis_7">
    <g id="xtick_7">
     <g id="line2d_7">
      <g>
       <use style="stroke:#000000;stroke-width:1.5;" x="218.797602" xlink:href="#mc1fad0e066" y="74.71875"/>
      </g>
     </g>
     <g id="text_14">
      <text style="font-family:DejaVu Sans;font-size:8px;font-stretch:normal;font-style:normal;font-weight:normal;text-anchor:middle;" transform="rotate(-0, 218.797602, 87.7975)" x="218.797602" y="87.7975">0</text>
     </g>
    </g>
    <g id="xtick_8">
     <g id="line2d_8">
      <g>
       <use style="stroke:#000000;stroke-width:1.5;" x="270.0425" xlink:href="#mc1fad0e066" y="74.71875"/>
      </g>
     </g>
     <g id="text_15">
      <text style="font-family:DejaVu Sans;font-size:8px;font-stretch:normal;font-style:normal;font-weight:normal;text-anchor:middle;" transform="rotate(-0, 270.0425, 87.7975)" x="270.0425" y="87.7975">200</text>
     </g>
    </g>
    <g id="text_16">
     <!-- Energy ($\mu$J/s) -->
     <g transform="translate(218.780051 99.54125)">
      <text>
       <tspan style="font-family:DejaVu Sans;font-size:8px;font-style:book;font-weight:book;" x="0 5.054688 10.125 15.046875 18.335938 23.414062 28.148438 30.691406 33.8125 38.902344 41.261719 43.957031 48.125" y="-0.921875">Energy (μJ/s)</tspan>
      </text>
     </g>
    </g>
   </g>
   <g id="matplotlib.axis_8"/>
   <g id="patch_409">
    <path d="M 218.797602 74.71875 
L 270.0425 74.71875 
" style="fill:none;stroke:#000000;stroke-linecap:square;stroke-linejoin:miter;stroke-width:1.5;"/>
   </g>
   <g id="text_17">
    <text style="font-family:DejaVu Sans;font-size:8px;font-stretch:normal;font-style:normal;font-weight:normal;text-anchor:middle;" transform="rotate(-0, 244.420051, 13.27875)" x="244.420051" y="13.27875">Sum</text>
   </g>
  </g>
 </g>
 <defs>
  <clipPath id="p3b54a3f61a">
   <rect height="55.44" width="51.244898" x="18.9425" y="19.27875"/>
  </clipPath>
  <clipPath id="pee69eafc86">
   <rect height="55.44" width="51.244898" x="85.560867" y="19.27875"/>
  </clipPath>
  <clipPath id="pf84b045e73">
   <rect height="55.44" width="51.244898" x="152.179235" y="19.27875"/>
  </clipPath>
  <clipPath id="p748580899a">
   <rect height="55.44" width="51.244898" x="218.797602" y="19.27875"/>
  </clipPath>
 </defs>
</svg>
