<?xml version="1.0" encoding="utf-8" standalone="no"?>
<!DOCTYPE svg PUBLIC "-//W3C//DTD SVG 1.1//EN"
  "http://www.w3.org/Graphics/SVG/1.1/DTD/svg11.dtd">
<!-- Created with matplotlib (https://matplotlib.org/) -->
<svg height="98.5345pt" version="1.1" viewBox="0 0 287.82 98.5345" width="287.82pt" xmlns="http://www.w3.org/2000/svg" xmlns:xlink="http://www.w3.org/1999/xlink">
 <metadata>
  <rdf:RDF xmlns:cc="http://creativecommons.org/ns#" xmlns:dc="http://purl.org/dc/elements/1.1/" xmlns:rdf="http://www.w3.org/1999/02/22-rdf-syntax-ns#">
   <cc:Work>
    <dc:type rdf:resource="http://purl.org/dc/dcmitype/StillImage"/>
    <dc:date>2020-09-29T12:33:57.730381</dc:date>
    <dc:format>image/svg+xml</dc:format>
    <dc:creator>
     <cc:Agent>
      <dc:title>Matplotlib v3.3.2, https://matplotlib.org/</dc:title>
     </cc:Agent>
    </dc:creator>
   </cc:Work>
  </rdf:RDF>
 </metadata>
 <defs>
  <style type="text/css">*{stroke-linecap:butt;stroke-linejoin:round;}</style>
 </defs>
 <g id="figure_1">
  <g id="patch_1">
   <path d="M 0 98.5345 
L 287.82 98.5345 
L 287.82 0 
L 0 0 
z
" style="fill:none;"/>
  </g>
  <g id="axes_1">
   <g id="patch_2">
    <path d="M 7.2 91.3345 
L 137.4 91.3345 
L 137.4 19.2625 
L 7.2 19.2625 
z
" style="fill:none;"/>
   </g>
   <g id="matplotlib.axis_1"/>
   <g id="matplotlib.axis_2"/>
   <g id="line2d_1">
    <path clip-path="url(#pab3084a98b)" d="M 13.118182 43.286367 
L 27.570583 43.18104 
L 27.642177 42.222267 
L 27.728089 42.924314 
L 27.976281 43.170178 
L 28.143333 43.157576 
L 28.152879 43.122256 
L 28.195835 42.16961 
L 28.214927 41.538441 
L 28.291294 42.858221 
L 28.568123 43.152264 
L 28.768586 43.155968 
L 28.773359 43.142571 
L 28.811542 42.622428 
L 28.840179 41.370821 
L 28.916546 42.880867 
L 29.207694 43.158918 
L 29.489296 43.170378 
L 29.517934 42.84845 
L 29.56089 41.629875 
L 29.622938 42.907002 
L 29.909313 43.162149 
L 30.262509 43.201072 
L 30.29592 43.082355 
L 30.348422 41.769364 
L 30.41047 42.94548 
L 30.701618 43.17439 
L 31.150273 43.227152 
L 31.231412 43.117741 
L 31.288687 42.203899 
L 31.355508 43.002611 
L 31.656202 43.193558 
L 32.138267 43.222601 
L 32.200315 43.079288 
L 32.25759 42.303162 
L 32.314865 43.013161 
L 32.586921 43.188543 
L 33.102397 43.240103 
L 33.250357 43.133725 
L 33.312405 42.47392 
L 33.374453 43.036848 
L 33.64651 43.196962 
L 34.209714 43.243839 
L 34.419723 43.127954 
L 34.486543 42.668467 
L 34.543818 43.056233 
L 34.777692 43.195128 
L 35.326577 43.244854 
L 35.541359 43.147504 
L 35.60818 42.638041 
L 35.670228 43.06301 
L 35.913646 43.200598 
L 36.481624 43.247372 
L 36.701178 43.149318 
L 36.767999 42.633559 
L 36.830047 43.068396 
L 37.073466 43.202983 
L 37.674854 43.258802 
L 56.933585 43.286355 
L 70.798917 43.191304 
L 70.856192 42.438464 
L 70.870511 42.199165 
L 70.946877 42.911743 
L 71.195069 43.171332 
L 71.428942 43.172358 
L 71.433715 43.161047 
L 71.476671 42.664687 
L 71.500536 41.655983 
L 71.581676 42.890611 
L 71.863278 43.165609 
L 72.087605 43.172855 
L 72.097151 43.144767 
L 72.140107 42.317074 
L 72.159199 41.454614 
L 72.240339 42.906246 
L 72.53626 43.170161 
L 72.884683 43.195789 
L 72.918093 42.987943 
L 72.965822 41.842272 
L 73.02787 42.940823 
L 73.314245 43.173932 
L 73.734262 43.22008 
L 73.791537 43.112342 
L 73.848812 42.07891 
L 73.91086 42.981596 
L 74.197236 43.185048 
L 74.6793 43.234876 
L 74.769986 43.112035 
L 74.827261 42.245558 
L 74.889309 43.009974 
L 75.170911 43.192008 
L 75.681614 43.243086 
L 75.867757 43.138097 
L 75.934578 42.5137 
L 75.991853 43.036812 
L 76.244818 43.193024 
L 76.765066 43.242715 
L 76.884389 43.135056 
L 76.946437 42.345521 
L 77.008485 43.035755 
L 77.285315 43.19935 
L 77.867611 43.254098 
L 112.156266 43.201961 
L 112.208768 42.741069 
L 112.232633 42.185306 
L 112.313773 42.911275 
L 112.561964 43.167754 
L 112.743335 43.156293 
L 112.748108 43.142449 
L 112.791065 42.410882 
L 112.810156 41.538815 
L 112.891296 42.861143 
L 113.168125 43.153092 
L 113.363815 43.154568 
L 113.368588 43.139117 
L 113.406771 42.552567 
L 113.430636 41.296785 
L 113.511775 42.876224 
L 113.802924 43.157812 
L 114.098845 43.181985 
L 114.127482 42.982588 
L 114.175211 41.670276 
L 114.237259 42.912451 
L 114.523634 43.163618 
L 114.900695 43.210498 
L 114.943651 43.086005 
L 115.000926 41.903082 
L 115.058201 42.953954 
L 115.344577 43.175033 
L 115.769366 43.219712 
L 115.826641 43.079836 
L 115.879144 42.071053 
L 115.941192 42.985261 
L 116.227567 43.184259 
L 116.733496 43.241864 
L 116.900548 43.129164 
L 116.962596 42.391365 
L 117.024644 43.027341 
L 117.306247 43.196285 
L 117.831268 43.234557 
L 117.926726 43.119738 
L 117.988774 42.435374 
L 118.046049 43.031 
L 118.303787 43.191319 
L 118.828808 43.242588 
L 118.991087 43.146459 
L 119.057908 42.467619 
L 119.115183 43.041335 
L 119.358602 43.191275 
L 119.897942 43.251628 
L 120.279776 43.155763 
L 120.351369 42.681674 
L 120.413417 43.068606 
L 120.656836 43.203189 
L 121.239132 43.250032 
L 121.587556 43.151904 
L 121.659149 42.772581 
L 121.721197 43.079943 
L 121.95507 43.206877 
L 122.580323 43.255687 
L 127.663482 43.285331 
L 127.663482 43.285331 
" style="fill:none;stroke:#000000;stroke-linecap:square;stroke-width:0.6;"/>
   </g>
   <g id="line2d_2">
    <path clip-path="url(#pab3084a98b)" d="M 13.118182 67.309734 
L 45.970188 67.251523 
L 45.98928 66.897487 
L 46.051328 62.132781 
L 46.003599 67.124976 
L 46.099057 66.607204 
L 46.247018 67.018311 
L 46.533393 67.207741 
L 46.791131 67.201573 
L 46.795903 67.179476 
L 46.829314 65.944766 
L 46.877043 57.630221 
L 46.934318 66.388386 
L 47.077506 66.920998 
L 47.344789 67.17515 
L 47.764806 67.239929 
L 47.793444 67.126254 
L 47.841173 61.69903 
L 47.86981 58.324065 
L 47.927085 66.555971 
L 48.079819 66.990907 
L 48.361421 67.204998 
L 48.900761 67.273493 
L 48.986674 67.196345 
L 49.024857 65.467918 
L 49.06304 59.863914 
L 49.125088 66.732792 
L 49.29214 67.068625 
L 49.597607 67.235233 
L 50.280135 67.283787 
L 50.375593 67.172594 
L 50.41855 64.257357 
L 50.447187 60.914622 
L 50.514008 66.847263 
L 50.714471 67.135693 
L 51.07244 67.261986 
L 52.036569 67.284946 
L 52.093844 67.209793 
L 52.132028 65.87325 
L 52.170211 61.772724 
L 52.232259 66.90834 
L 52.437495 67.161123 
L 52.824101 67.272997 
L 54.174837 67.304094 
L 84.444694 67.309977 
L 89.055335 67.22906 
L 89.074426 66.171224 
L 89.093518 66.313997 
L 89.131701 61.984381 
L 89.198522 66.725355 
L 89.408531 67.098204 
L 89.747408 67.236701 
L 89.88105 67.182429 
L 89.91446 65.928013 
L 89.962189 57.600756 
L 90.019464 66.374653 
L 90.162652 66.91192 
L 90.425163 67.1684 
L 90.840407 67.239883 
L 90.869044 67.15788 
L 90.907228 64.619889 
L 90.945411 58.501215 
L 91.007459 66.578341 
L 91.169738 66.999969 
L 91.456113 67.205251 
L 91.933405 67.247589 
L 91.962043 67.1147 
L 92.033637 59.506342 
L 92.081366 66.490289 
L 92.215008 66.989994 
L 92.491837 67.20566 
L 93.03595 67.280928 
L 93.255504 67.177569 
L 93.29846 64.22113 
L 93.331871 60.651413 
L 93.393919 66.818524 
L 93.589608 67.121302 
L 93.928486 67.254506 
L 94.763747 67.281854 
L 94.821022 67.202864 
L 94.859205 65.753306 
L 94.897388 61.515132 
L 94.959436 66.887023 
L 95.159899 67.150138 
L 95.527414 67.267209 
L 96.658596 67.294415 
L 96.801783 67.195598 
L 96.84474 64.961024 
L 96.873377 62.205677 
L 96.940198 66.94712 
L 97.159752 67.18106 
L 97.579769 67.280015 
L 99.159606 67.303923 
L 127.663482 67.31001 
L 127.663482 67.31001 
" style="fill:none;stroke:#000000;stroke-linecap:square;stroke-width:0.6;"/>
   </g>
   <g id="line2d_3">
    <path clip-path="url(#pab3084a98b)" d="M 13.118182 91.067031 
L 13.352055 91.185964 
L 13.380692 91.038358 
L 13.433195 88.429242 
L 13.504788 90.626839 
L 13.762526 91.135975 
L 14.010718 91.204222 
L 14.039355 91.0373 
L 14.091857 88.724076 
L 14.158678 90.676095 
L 14.416416 91.149236 
L 14.702791 91.238953 
L 14.755293 91.15179 
L 14.79825 89.612994 
L 14.812568 89.02123 
L 14.888935 90.751259 
L 15.146673 91.169669 
L 15.456912 91.251432 
L 15.533279 91.158254 
L 15.590554 89.261052 
L 15.671694 90.807625 
L 15.929432 91.185497 
L 16.258763 91.259079 
L 16.325584 91.16746 
L 16.373313 89.547613 
L 16.382859 89.285745 
L 16.44968 90.774103 
L 16.707417 91.179391 
L 17.027203 91.262471 
L 17.127434 91.150608 
L 17.184709 89.306166 
L 17.261076 90.814884 
L 17.518814 91.190209 
L 17.857691 91.269939 
L 17.972241 91.18085 
L 18.015197 90.016102 
L 18.034289 89.389023 
L 18.110656 90.830985 
L 18.368394 91.195713 
L 18.731135 91.282034 
L 18.879096 91.188882 
L 18.926825 89.576017 
L 18.941144 89.267498 
L 19.007965 90.793106 
L 19.265702 91.188618 
L 19.60458 91.279627 
L 19.809815 91.208116 
L 19.852772 90.2931 
L 19.871863 89.437773 
L 19.953003 90.844505 
L 20.210741 91.202173 
L 20.578255 91.287604 
L 20.835993 91.193288 
L 20.883722 89.815953 
L 20.898041 89.505582 
L 20.969635 90.83351 
L 21.2226 91.199057 
L 21.571023 91.282208 
L 21.757167 91.203362 
L 21.800123 90.311462 
L 21.819214 89.494502 
L 21.900354 90.850292 
L 22.158092 91.206113 
L 22.525607 91.285204 
L 22.764253 91.210469 
L 22.807209 90.373763 
L 22.826301 89.568619 
L 22.90744 90.858715 
L 23.160405 91.206582 
L 23.532693 91.290603 
L 23.823841 91.219688 
L 23.866797 90.435998 
L 23.890662 89.513846 
L 23.971801 90.85875 
L 24.224766 91.207865 
L 24.587508 91.288 
L 24.797516 91.212178 
L 24.840473 90.371723 
L 24.859564 89.517335 
L 24.940704 90.848924 
L 25.193669 91.20594 
L 25.565956 91.292546 
L 25.909607 91.208251 
L 25.957336 89.983455 
L 25.971655 89.577836 
L 26.048021 90.846603 
L 26.300986 91.206979 
L 26.663728 91.292402 
L 27.117155 91.21805 
L 27.164885 90.018174 
L 27.179203 89.556978 
L 27.260343 90.851741 
L 27.513308 91.209467 
L 27.890368 91.300131 
L 29.570436 91.330327 
L 53.559131 91.300582 
L 53.611633 91.178589 
L 53.673681 88.613317 
L 53.764366 90.362672 
L 53.974375 91.041664 
L 54.079379 91.092281 
L 54.098471 91.045505 
L 54.136654 90.084255 
L 54.160519 89.012818 
L 54.241658 90.48537 
L 54.461213 91.052591 
L 54.513715 91.058874 
L 54.532806 90.976949 
L 54.590081 88.848944 
L 54.671221 90.527903 
L 54.895548 91.063532 
L 54.94805 91.063061 
L 54.962369 91.013929 
L 54.99578 90.024483 
L 55.019644 88.712771 
L 55.100784 90.540032 
L 55.334657 91.079954 
L 55.391932 91.079384 
L 55.406251 91.014551 
L 55.449207 88.838105 
L 55.463526 88.43272 
L 55.525574 90.472342 
L 55.768993 91.083394 
L 55.869224 91.11871 
L 55.888316 91.043975 
L 55.926499 89.177876 
L 55.945591 88.302045 
L 56.017184 90.542488 
L 56.270149 91.109849 
L 56.389472 91.152255 
L 56.408564 91.109384 
L 56.441974 90.235295 
L 56.470612 88.266815 
L 56.546978 90.592176 
L 56.804716 91.126146 
L 56.981314 91.177173 
L 56.99086 91.157862 
L 57.014725 90.673513 
L 57.062454 88.499955 
L 57.124502 90.613974 
L 57.382239 91.132323 
L 57.61134 91.194915 
L 57.616112 91.187815 
L 57.639977 90.976178 
L 57.692479 88.672779 
L 57.754527 90.658851 
L 58.012265 91.143958 
L 58.29864 91.236088 
L 58.351142 91.137672 
L 58.408417 89.052475 
L 58.489557 90.775743 
L 58.747294 91.174627 
L 59.038443 91.237748 
L 59.086172 91.09066 
L 59.138674 89.125341 
L 59.210268 90.764095 
L 59.468005 91.173758 
L 59.787791 91.25788 
L 59.868931 91.171425 
L 59.911887 89.807532 
L 59.930979 89.221884 
L 60.007345 90.804864 
L 60.265083 91.185633 
L 60.608733 91.269131 
L 60.732829 91.161737 
L 60.790104 89.410147 
L 60.866471 90.825184 
L 61.124208 91.19306 
L 61.477405 91.272116 
L 61.577636 91.180294 
L 61.625365 89.588135 
L 61.639684 89.30782 
L 61.706505 90.797395 
L 61.964242 91.187741 
L 62.298347 91.273624 
L 62.446307 91.197198 
L 62.489263 90.168243 
L 62.508355 89.378362 
L 62.589495 90.839077 
L 62.847232 91.19885 
L 63.205201 91.279876 
L 63.396118 91.195989 
L 63.439075 90.218607 
L 63.458166 89.534135 
L 63.539306 90.861149 
L 63.797044 91.206013 
L 64.164558 91.281934 
L 64.336383 91.185497 
L 64.388886 89.596907 
L 64.398431 89.506502 
L 64.436615 90.724638 
L 64.627532 91.119138 
L 64.913907 91.266539 
L 65.267103 91.232034 
L 65.310059 90.705462 
L 65.338697 89.499093 
L 65.415063 90.848496 
L 65.672801 91.205158 
L 66.040316 91.286421 
L 66.278962 91.200662 
L 66.326691 89.862177 
L 66.34101 89.517086 
L 66.412604 90.835204 
L 66.665568 91.200991 
L 67.013991 91.28609 
L 67.300367 91.212058 
L 67.343323 90.350794 
L 67.362415 89.557296 
L 67.443554 90.858206 
L 67.696519 91.207564 
L 68.054488 91.28549 
L 68.250178 91.205912 
L 68.293134 90.305019 
L 68.312226 89.559777 
L 68.393365 90.860695 
L 68.64633 91.208152 
L 69.013845 91.291101 
L 69.424316 91.232682 
L 69.467272 90.59866 
L 69.491137 89.567633 
L 69.572276 90.86145 
L 69.825241 91.210485 
L 70.202302 91.296314 
L 70.746415 91.225053 
L 70.789371 90.488095 
L 70.808463 89.624928 
L 70.894375 90.867738 
L 71.142567 91.211237 
L 71.519628 91.299566 
L 73.261743 91.330479 
L 99.002099 91.321762 
L 99.336204 91.215078 
L 99.37916 89.960747 
L 99.403025 88.607988 
L 99.484164 90.302063 
L 99.694173 91.035931 
L 99.799177 91.093312 
L 99.823042 91.020178 
L 99.865998 89.398836 
L 99.880317 88.995568 
L 99.95191 90.439189 
L 100.171465 91.056028 
L 100.243059 91.084298 
L 100.266923 91.014558 
L 100.305107 89.654366 
L 100.324198 88.89969 
L 100.400565 90.516006 
L 100.629665 91.079234 
L 100.691713 91.093241 
L 100.710805 91.036115 
L 100.744215 90.015031 
L 100.76808 88.661413 
L 100.849219 90.54803 
L 101.087865 91.098811 
L 101.169005 91.116968 
L 101.188097 91.055523 
L 101.22628 89.438039 
L 101.245372 88.52008 
L 101.321738 90.559383 
L 101.565157 91.110193 
L 101.674934 91.145958 
L 101.694026 91.090274 
L 101.727437 90.018126 
L 101.756074 88.343223 
L 101.832441 90.588321 
L 102.085406 91.12592 
L 102.238139 91.167593 
L 102.252458 91.130763 
L 102.285868 90.396875 
L 102.314506 88.472864 
L 102.390872 90.626633 
L 102.64861 91.139349 
L 102.863391 91.195598 
L 102.868164 91.189625 
L 102.892029 90.970847 
L 102.944531 88.66402 
L 103.006579 90.64253 
L 103.264317 91.143749 
L 103.541146 91.230976 
L 103.588875 91.146829 
L 103.636604 89.290097 
L 103.64615 89.050381 
L 103.708198 90.703605 
L 103.965936 91.160463 
L 104.261857 91.246881 
L 104.323905 91.160734 
L 104.366861 89.732606 
L 104.385953 89.147089 
L 104.457547 90.769677 
L 104.715284 91.177605 
L 105.025524 91.252406 
L 105.078026 91.14614 
L 105.135301 89.110953 
L 105.211668 90.780501 
L 105.469406 91.181083 
L 105.798737 91.269333 
L 105.913287 91.190112 
L 105.956243 90.082462 
L 105.975335 89.280214 
L 106.056475 90.820431 
L 106.314212 91.192574 
L 106.662636 91.274313 
L 106.781959 91.182441 
L 106.824915 89.994767 
L 106.844007 89.342885 
L 106.920373 90.821822 
L 107.178111 91.194537 
L 107.531307 91.280673 
L 107.679267 91.200096 
L 107.722224 90.069254 
L 107.741315 89.28346 
L 107.822455 90.826137 
L 108.080193 91.196914 
L 108.433389 91.282326 
L 108.633851 91.182839 
L 108.691126 89.488704 
L 108.772266 90.844176 
L 109.030004 91.202871 
L 109.397519 91.285786 
L 109.64571 91.211422 
L 109.688667 90.418812 
L 109.707758 89.585007 
L 109.788898 90.856871 
L 110.041863 91.204944 
L 110.404605 91.286209 
L 110.614613 91.205181 
L 110.657569 90.241435 
L 110.676661 89.46452 
L 110.757801 90.846895 
L 111.010765 91.203322 
L 111.37828 91.29072 
L 111.793524 91.22168 
L 111.836481 90.529625 
L 111.860345 89.652215 
L 111.941485 90.872321 
L 112.19445 91.211906 
L 112.585829 91.299416 
L 114.308853 91.329823 
L 127.663482 91.334112 
L 127.663482 91.334112 
" style="fill:none;stroke:#000000;stroke-linecap:square;stroke-width:0.6;"/>
   </g>
   <g id="line2d_4">
    <path clip-path="url(#pab3084a98b)" d="M 131.481818 88.9321 
L 131.481818 76.9201 
" style="fill:none;stroke:#000000;stroke-linecap:square;stroke-width:1.5;"/>
   </g>
   <g id="text_1">
    <!-- Average Energy: 21.2 $\mu$J/s -->
    <g transform="translate(20.54 13.2625)">
     <text>
      <tspan style="font-family:DejaVu Sans;font-size:8px;font-style:book;font-weight:book;" x="0 5.472656 10.207031 15.128906 18.417969 23.320312 28.398438 33.320312 35.863281 40.917969 45.988281 50.910156 54.199219 59.277344 64.011719 66.707031 69.25 74.339844 79.429688 81.597656 86.6875 89.230469 94.320312 96.679688 99.375" y="-0.0625">Average Energy: 21.2 μJ/s</tspan>
     </text>
    </g>
   </g>
  </g>
  <g id="axes_2">
   <g id="patch_3">
    <path d="M 150.42 91.3345 
L 280.62 91.3345 
L 280.62 19.2625 
L 150.42 19.2625 
z
" style="fill:none;"/>
   </g>
   <g id="matplotlib.axis_3"/>
   <g id="matplotlib.axis_4"/>
   <g id="line2d_5">
    <path clip-path="url(#pb4dac19a5d)" d="M 156.338182 43.28613 
L 163.59302 43.199336 
L 163.607339 42.135709 
L 163.62643 42.353786 
L 163.688478 28.550288 
L 163.750526 39.373298 
L 163.93667 42.125518 
L 164.094176 42.741294 
L 164.113268 42.635051 
L 164.141906 37.919606 
L 164.194408 25.797785 
L 164.24691 39.076778 
L 164.380552 41.583875 
L 164.619198 42.755554 
L 164.633516 42.757739 
L 164.647835 42.665992 
L 164.676473 38.129871 
L 164.733748 23.958069 
L 164.781477 37.104787 
L 164.9008 41.489643 
L 165.158537 42.775532 
L 165.220585 42.847967 
L 165.239677 42.746351 
L 165.268315 38.438409 
L 165.32559 24.266258 
L 165.373319 37.913278 
L 165.492642 41.657 
L 165.755152 42.81958 
L 165.860157 42.942028 
L 165.884021 42.862311 
L 165.89834 40.34807 
L 165.907886 40.855037 
L 165.969934 25.178228 
L 166.022436 39.567028 
L 166.146532 41.857521 
L 166.413815 42.874149 
L 166.576095 43.018089 
L 166.590413 42.987841 
L 166.604732 42.698607 
L 166.685872 26.68127 
L 166.728828 38.311453 
L 166.848151 41.925618 
L 167.115435 42.887522 
L 167.354081 43.077252 
L 167.382718 42.945484 
L 167.420901 37.509243 
L 167.463858 28.33524 
L 167.521133 40.953198 
L 167.659547 42.204036 
L 167.926831 42.961578 
L 168.194114 43.131498 
L 168.275254 43.070321 
L 168.289573 42.566924 
L 168.36594 30.410108 
L 168.404123 39.243518 
L 168.523446 42.145388 
L 168.790729 42.949472 
L 169.067559 43.144769 
L 169.291886 43.118499 
L 169.296659 43.091016 
L 169.310978 42.362561 
L 169.382571 32.047093 
L 169.320523 42.582325 
L 169.425528 40.731821 
L 169.554397 42.297486 
L 169.816907 42.989925 
L 170.103282 43.160346 
L 170.776264 43.230956 
L 173.124541 43.285184 
L 206.110189 43.277367 
L 206.310651 43.193605 
L 206.348835 41.489301 
L 206.40611 28.261186 
L 206.468158 39.000419 
L 206.654302 41.972294 
L 206.735441 42.364095 
L 206.754533 42.207105 
L 206.802262 28.765649 
L 206.8309 25.141982 
L 206.878629 36.70742 
L 206.997952 41.092125 
L 207.169777 42.29178 
L 207.188869 42.072609 
L 207.265235 22.845418 
L 207.32251 38.714908 
L 207.451379 41.307664 
L 207.63275 42.386444 
L 207.651842 42.156531 
L 207.728209 21.85631 
L 207.785484 38.228971 
L 207.909579 41.367226 
L 208.133907 42.540212 
L 208.148225 42.490069 
L 208.157771 42.126138 
L 208.234138 21.965487 
L 208.281867 31.106012 
L 208.40119 41.421072 
L 208.663701 42.675669 
L 208.682792 42.688075 
L 208.701884 42.541064 
L 208.740068 33.075816 
L 208.783024 22.750136 
L 208.835526 37.717271 
L 208.954849 41.623648 
L 209.222132 42.75416 
L 209.279407 42.8149 
L 209.303272 42.684073 
L 209.336682 36.361401 
L 209.389185 24.11957 
L 209.436914 38.680604 
L 209.556237 41.772325 
L 209.82352 42.797942 
L 209.928525 42.909483 
L 209.957162 42.810157 
L 209.9858 39.388765 
L 210.043075 25.513671 
L 210.090804 39.020375 
L 210.2149 41.91788 
L 210.482183 42.839597 
L 210.658781 42.98572 
L 210.6731 42.959247 
L 210.692192 42.415562 
L 210.768558 27.544329 
L 210.811515 38.54449 
L 210.930838 41.997298 
L 211.198121 42.865513 
L 211.446313 43.045394 
L 211.489269 42.964422 
L 211.517907 41.159581 
L 211.575182 29.833323 
L 211.627684 41.11926 
L 211.761326 42.242587 
L 212.028609 42.939135 
L 212.295893 43.085037 
L 212.348395 42.973381 
L 212.381805 40.061471 
L 212.429534 31.012478 
L 212.48681 41.427592 
L 212.639543 42.40181 
L 212.902054 42.982016 
L 213.193202 43.115431 
L 213.355481 43.024136 
L 213.388891 40.961064 
L 213.436621 33.438708 
L 213.493896 41.712135 
L 213.675267 42.613428 
L 213.933004 43.038429 
L 214.233698 43.120604 
L 214.2862 43.044351 
L 214.305292 41.813006 
L 214.314838 41.871232 
L 214.36734 32.997666 
L 214.424615 41.632734 
L 214.586894 42.533643 
L 214.844632 43.025503 
L 215.164417 43.148589 
L 217.75134 43.284327 
L 235.425462 43.286221 
L 252.994579 43.187924 
L 253.032763 41.392749 
L 253.090038 28.375221 
L 253.152086 39.088874 
L 253.338229 42.002825 
L 253.424142 42.404391 
L 253.443234 42.221386 
L 253.5196 25.200897 
L 253.576875 39.115757 
L 253.724836 41.52694 
L 253.868024 42.3562 
L 253.887115 42.09527 
L 253.963482 22.932092 
L 254.015984 37.398707 
L 254.135307 41.211831 
L 254.340543 42.450497 
L 254.354861 42.402105 
L 254.364407 41.999719 
L 254.440774 22.094506 
L 254.488503 32.177931 
L 254.607826 41.310153 
L 254.856018 42.598506 
L 254.860791 42.595606 
L 254.879883 42.265125 
L 254.956249 22.16085 
L 255.008751 35.554893 
L 255.128074 41.494314 
L 255.390585 42.712885 
L 255.423995 42.744306 
L 255.443087 42.634354 
L 255.471725 37.670154 
L 255.529 23.125896 
L 255.576729 36.802628 
L 255.696052 41.656855 
L 255.963335 42.771656 
L 256.039702 42.857883 
L 256.063567 42.759012 
L 256.092204 38.834825 
L 256.149479 24.518519 
L 256.197208 38.098511 
L 256.316531 41.801199 
L 256.583815 42.811692 
L 256.72223 42.945863 
L 256.741321 42.89544 
L 256.75564 42.166157 
L 256.832007 26.11754 
L 256.874963 36.33689 
L 256.994286 41.905014 
L 257.266342 42.849439 
L 257.485897 43.018799 
L 257.49067 43.013623 
L 257.514534 42.879749 
L 257.552718 37.148616 
L 257.595674 28.483775 
L 257.648176 40.75852 
L 257.777045 42.14149 
L 258.044328 42.911825 
L 258.302066 43.075278 
L 258.359341 43.00384 
L 258.37366 42.145128 
L 258.445254 30.693978 
L 258.48821 40.374423 
L 258.612306 42.194767 
L 258.879589 42.933555 
L 259.151646 43.100459 
L 259.251877 43.014171 
L 259.280515 41.588231 
L 259.333017 31.736659 
L 259.390292 41.45853 
L 259.538252 42.410143 
L 259.800763 42.99069 
L 260.096684 43.131365 
L 260.464199 43.101775 
L 260.478517 42.908059 
L 260.550111 34.787763 
L 260.59784 41.613396 
L 260.741028 42.518332 
L 260.993993 43.022926 
L 261.29946 43.140628 
L 261.638337 43.054638 
L 261.671747 41.369402 
L 261.714704 35.182705 
L 261.776752 41.888998 
L 261.996306 42.801174 
L 262.249271 43.09407 
L 262.64065 43.18189 
L 264.082072 43.269339 
L 268.826354 43.286199 
L 270.883482 43.286228 
L 270.883482 43.286228 
" style="fill:none;stroke:#000000;stroke-linecap:square;stroke-width:0.6;"/>
   </g>
   <g id="line2d_6">
    <path clip-path="url(#pb4dac19a5d)" d="M 156.338182 67.309839 
L 178.637263 67.19758 
L 178.689765 65.333115 
L 178.718402 64.022766 
L 178.789996 66.164564 
L 179.004778 66.873871 
L 179.033415 66.881607 
L 179.052507 66.797506 
L 179.105009 63.296829 
L 179.124101 62.837399 
L 179.167057 65.522269 
L 179.295926 66.4529 
L 179.405703 66.698384 
L 179.424795 66.612047 
L 179.491615 62.349171 
L 179.558436 65.915936 
L 179.768445 66.655607 
L 179.777991 66.640415 
L 179.797082 65.990428 
L 179.854357 62.081949 
L 179.906859 65.753742 
L 180.045274 66.486159 
L 180.140733 66.689895 
L 180.164597 66.508537 
L 180.231418 61.934697 
L 180.28392 65.894243 
L 180.427108 66.543921 
L 180.536885 66.750425 
L 180.555977 66.632649 
L 180.62757 61.777624 
L 180.680072 65.994202 
L 180.828033 66.597181 
L 180.956902 66.825014 
L 180.980766 66.720507 
L 181.05236 61.636757 
L 181.109635 66.098806 
L 181.262369 66.650818 
L 181.434194 66.901987 
L 181.453285 66.835909 
L 181.486696 64.741448 
L 181.529652 61.69029 
L 181.582154 66.109532 
L 181.715796 66.648123 
L 181.973534 66.982734 
L 181.978307 66.97883 
L 182.002171 66.793761 
L 182.073765 62.037152 
L 182.121494 66.11503 
L 182.250363 66.693228 
L 182.541511 67.049142 
L 182.603559 67.034745 
L 182.613105 66.994038 
L 182.646515 65.658761 
L 182.694245 62.554161 
L 182.746747 66.422461 
L 182.909026 66.827982 
L 183.214493 67.104373 
L 183.314724 67.084638 
L 183.32427 67.046931 
L 183.343362 65.962207 
L 183.35768 65.996153 
L 183.40541 63.194689 
L 183.457912 66.546341 
L 183.639283 66.911441 
L 183.959068 67.141381 
L 184.121348 67.111873 
L 184.12612 67.090362 
L 184.164304 65.973898 
L 184.20726 63.77243 
L 184.264535 66.658335 
L 184.503181 67.019306 
L 184.851604 67.180571 
L 184.985246 67.115293 
L 185.023429 66.192427 
L 185.066386 64.031832 
L 185.123661 66.702791 
L 185.36708 67.044684 
L 185.734594 67.200766 
L 186.030515 67.139101 
L 186.073472 66.113441 
L 186.106882 64.712424 
L 186.173703 66.801535 
L 186.464851 67.115897 
L 186.880095 67.220399 
L 187.113968 67.142984 
L 187.156925 66.242982 
L 187.190335 65.111581 
L 187.257156 66.849571 
L 187.553077 67.137046 
L 187.987413 67.227496 
L 188.144919 67.113947 
L 188.216513 64.844915 
L 188.273788 66.804319 
L 188.52198 67.09875 
L 188.913359 67.226589 
L 189.471791 67.183012 
L 189.495655 66.817477 
L 189.55293 65.492577 
L 189.605432 66.869223 
L 189.82976 67.114694 
L 190.225912 67.232656 
L 192.139853 67.309145 
L 224.347515 67.300243 
L 224.858217 67.21265 
L 224.905947 66.003068 
L 224.94413 64.102553 
L 225.010951 66.181046 
L 225.225732 66.869975 
L 225.249597 66.839818 
L 225.25437 66.80665 
L 225.28778 65.056766 
L 225.325964 62.824723 
L 225.388012 65.920334 
L 225.602793 66.70241 
L 225.607566 66.698016 
L 225.626658 66.479234 
L 225.688705 62.306609 
L 225.741208 65.728092 
L 225.884395 66.498085 
L 225.965535 66.66613 
L 225.984627 66.543164 
L 226.051447 62.039371 
L 226.108722 65.901483 
L 226.280548 66.610392 
L 226.342595 66.708077 
L 226.361687 66.573682 
L 226.428508 61.871705 
L 226.485783 65.962647 
L 226.643289 66.601522 
L 226.743521 66.772106 
L 226.762612 66.6479 
L 226.834206 61.730115 
L 226.886708 65.985457 
L 227.025123 66.582421 
L 227.182629 66.853027 
L 227.201721 66.784608 
L 227.235131 64.571669 
L 227.278088 61.681976 
L 227.33059 66.069277 
L 227.469005 66.628687 
L 227.679013 66.934583 
L 227.698105 66.887251 
L 227.712423 66.378096 
L 227.779244 61.871172 
L 227.822201 65.484095 
L 227.941524 66.622629 
L 228.227899 67.014774 
L 228.266082 66.984952 
L 228.275628 66.919355 
L 228.323357 63.626699 
L 228.351995 62.309816 
L 228.399724 66.223475 
L 228.528593 66.723302 
L 228.824514 67.065602 
L 228.915199 67.060282 
L 228.929518 66.998894 
L 228.967701 65.228282 
L 229.005885 62.898254 
L 229.06316 66.496336 
L 229.249304 66.891675 
L 229.564316 67.127692 
L 229.678866 67.085918 
L 229.683639 67.058938 
L 229.721823 65.712193 
L 229.760006 63.5585 
L 229.822054 66.623644 
L 230.065473 67.007716 
L 230.409123 67.171194 
L 230.547538 67.10514 
L 230.585721 66.152572 
L 230.623904 64.213099 
L 230.685952 66.711784 
L 230.94369 67.057053 
L 231.306432 67.19357 
L 231.454393 67.116598 
L 231.497349 65.877968 
L 231.530759 64.42823 
L 231.592807 66.752745 
L 231.864864 67.085662 
L 232.261016 67.210287 
L 232.580802 67.145659 
L 232.623758 66.375181 
L 232.657168 65.243141 
L 232.723989 66.856844 
L 233.01991 67.138266 
L 233.454246 67.222497 
L 233.611752 67.140543 
L 233.659481 65.955946 
L 233.688119 65.081585 
L 233.75494 66.84667 
L 234.046088 67.136347 
L 234.509061 67.24346 
L 235.812068 67.308449 
L 261.64311 67.310063 
L 270.883482 67.302922 
L 270.883482 67.302922 
" style="fill:none;stroke:#000000;stroke-linecap:square;stroke-width:0.6;"/>
   </g>
   <g id="line2d_7">
    <path clip-path="url(#pb4dac19a5d)" d="M 156.338182 90.494316 
L 156.572055 91.090097 
L 156.610238 91.085535 
L 156.619784 91.043348 
L 156.634103 89.484938 
L 156.643649 89.856115 
L 156.720015 74.81465 
L 156.77729 83.21258 
L 156.896613 89.920463 
L 157.144805 90.991796 
L 157.259355 91.106418 
L 157.28322 91.034371 
L 157.292766 90.58669 
L 157.383451 75.176141 
L 157.426408 79.46855 
L 157.583914 90.134571 
L 157.827333 91.031474 
L 157.913245 91.09779 
L 157.932337 91.037771 
L 157.941883 90.729074 
L 158.032568 74.895316 
L 158.080298 79.916261 
L 158.223485 90.051737 
L 158.471677 91.020399 
L 158.576681 91.106294 
L 158.595773 91.046858 
L 158.605319 90.732983 
L 158.696004 75.132879 
L 158.743733 80.209791 
L 158.882148 90.035949 
L 159.13034 91.017282 
L 159.235344 91.104709 
L 159.254436 91.055259 
L 159.268755 89.735638 
L 159.2783 89.950197 
L 159.354667 75.057657 
L 159.411942 83.536739 
L 159.531265 89.95819 
L 159.779457 90.999467 
L 159.903553 91.113773 
L 159.922645 91.050172 
L 159.93219 90.721896 
L 160.022876 75.11267 
L 160.070605 80.193195 
L 160.213793 90.077433 
L 160.461984 91.02603 
L 160.566989 91.110007 
L 160.58608 91.046777 
L 160.595626 90.690806 
L 160.686312 75.078729 
L 160.729268 79.223779 
L 160.891547 90.178689 
L 161.134966 91.040429 
L 161.235197 91.11196 
L 161.254289 91.047538 
L 161.263835 90.606176 
L 161.35452 75.354301 
L 161.397477 79.660601 
L 161.55021 90.136829 
L 161.793629 91.03129 
L 161.903406 91.114294 
L 161.917725 91.072081 
L 161.932044 90.080573 
L 162.017956 75.307914 
L 162.075231 83.66047 
L 162.194554 89.982237 
L 162.442746 91.004494 
L 162.566842 91.111219 
L 162.581161 91.073429 
L 162.59548 90.282754 
L 162.681392 75.267984 
L 162.733894 81.091253 
L 162.862763 90.013885 
L 163.110955 91.010985 
L 163.230278 91.116253 
L 163.24937 91.056962 
L 163.258915 90.763903 
L 163.349601 75.32091 
L 163.39733 80.417263 
L 163.535745 90.0688 
L 163.783937 91.023702 
L 164.046447 91.238095 
L 164.576241 91.30919 
L 167.659547 91.333421 
L 190.607745 91.223604 
L 190.626837 91.256482 
L 190.650702 89.003965 
L 190.722296 75.009802 
L 190.789116 81.469773 
L 190.937077 89.09877 
L 190.951396 89.177419 
L 190.965714 88.591054 
L 191.018217 81.938706 
L 191.080265 86.056849 
L 191.194815 89.322186 
L 191.209133 89.130022 
L 191.261635 83.846047 
L 191.328456 87.889345 
L 191.423915 89.478906 
L 191.443006 88.506721 
L 191.485963 84.68058 
L 191.552784 88.404566 
L 191.643469 89.666949 
L 191.662561 89.006038 
L 191.71029 84.696257 
L 191.772338 88.588586 
L 191.877342 89.888497 
L 191.891661 89.583839 
L 191.944163 83.628699 
L 192.006211 88.506969 
L 192.139853 90.133032 
L 192.149399 90.097709 
L 192.16849 87.744045 
L 192.220992 80.827089 
L 192.278267 87.574325 
L 192.402363 90.019098 
L 192.464411 90.343523 
L 192.47873 90.194071 
L 192.555097 76.434067 
L 192.617145 85.498745 
L 192.736468 89.782529 
L 192.860564 90.51553 
L 192.874882 90.36077 
L 192.960795 72.64759 
L 193.027616 83.818851 
L 193.146939 89.683729 
L 193.318764 90.661409 
L 193.337856 90.439829 
L 193.428541 71.17259 
L 193.490589 80.058293 
L 193.614685 89.695634 
L 193.81992 90.760286 
L 193.834239 90.706279 
L 193.843785 90.243988 
L 193.934471 70.952276 
L 193.977427 75.433375 
L 194.163571 90.078723 
L 194.354487 90.84023 
L 194.368806 90.788081 
L 194.378352 90.36389 
L 194.469038 71.268994 
L 194.511994 75.578861 
L 194.702911 90.145188 
L 194.903373 90.889553 
L 194.922465 90.833017 
L 194.932011 90.436035 
L 195.022696 71.410766 
L 195.070425 76.454132 
L 195.242251 90.07376 
L 195.485669 90.940999 
L 195.504761 90.866185 
L 195.533399 87.421479 
L 195.604992 72.036506 
L 195.662267 80.231014 
L 195.786363 89.859275 
L 196.039328 90.938685 
L 196.077511 90.969939 
L 196.096603 90.886299 
L 196.125241 87.490015 
L 196.196834 72.213851 
L 196.25411 80.654765 
L 196.373433 89.847818 
L 196.63117 90.947729 
L 196.678899 90.993829 
L 196.702764 90.87192 
L 196.740947 84.556359 
L 196.798222 72.480938 
L 196.855497 79.679251 
L 196.984366 89.917967 
L 197.242104 90.96559 
L 197.299379 91.013663 
L 197.318471 90.922673 
L 197.351881 86.527106 
L 197.418702 72.881148 
L 197.475977 82.13092 
L 197.5953 89.899495 
L 197.853038 90.964429 
L 197.919858 91.028369 
L 197.943723 90.913692 
L 197.981906 84.997072 
L 198.039181 73.203138 
L 198.096457 80.705207 
L 198.220552 89.929112 
L 198.47829 90.973223 
L 198.549884 91.038633 
L 198.568976 90.976041 
L 198.578521 90.597437 
L 198.669207 73.415577 
L 198.716936 78.488357 
L 198.86967 90.084011 
L 199.122634 91.00235 
L 199.179909 91.043522 
L 199.199001 90.983652 
L 199.208547 90.634345 
L 199.299232 73.459203 
L 199.346961 78.471156 
L 199.499695 90.086821 
L 199.75266 91.005284 
L 199.819481 91.054115 
L 199.838572 90.99252 
L 199.848118 90.625629 
L 199.938804 73.803795 
L 199.986533 78.91363 
L 200.134493 90.075387 
L 200.387458 91.005895 
L 200.459052 91.061508 
L 200.478143 90.990143 
L 200.487689 90.558521 
L 200.578375 73.789421 
L 200.621331 77.996941 
L 200.788383 90.170843 
L 201.036575 91.021042 
L 201.103396 91.063494 
L 201.122488 90.979542 
L 201.151125 88.259805 
L 201.217946 74.047365 
L 201.275221 81.304301 
L 201.394544 89.936677 
L 201.647509 90.977642 
L 201.742967 91.069238 
L 201.762059 91.000769 
L 201.771605 90.566192 
L 201.86229 73.947734 
L 201.905246 78.174188 
L 202.072299 90.181749 
L 202.32049 91.027077 
L 202.392084 91.074161 
L 202.411176 91.006907 
L 202.420722 90.607937 
L 202.511407 74.221309 
L 202.554364 78.446996 
L 202.721416 90.195191 
L 202.969608 91.031744 
L 203.036428 91.072095 
L 203.05552 90.998975 
L 203.065066 90.497467 
L 203.155751 74.171615 
L 203.198708 78.509423 
L 203.360987 90.1683 
L 203.609179 91.026692 
L 203.680773 91.079908 
L 203.704637 90.977729 
L 203.738048 86.984512 
L 203.800096 74.275272 
L 203.857371 82.17243 
L 203.976694 89.961618 
L 204.229658 90.988636 
L 204.334663 91.086859 
L 204.353754 91.022754 
L 204.3633 90.655725 
L 204.453986 74.37287 
L 204.496942 78.530782 
L 204.663994 90.203466 
L 204.912186 91.036082 
L 204.988553 91.086859 
L 205.007644 91.012906 
L 205.021963 88.401959 
L 205.036282 88.55468 
L 205.107876 74.469438 
L 205.160378 81.543396 
L 205.279701 89.959167 
L 205.532665 90.990651 
L 205.63767 91.09288 
L 205.661534 91.028613 
L 205.67108 90.648633 
L 205.761766 74.661586 
L 205.804722 78.893566 
L 205.967001 90.190257 
L 206.215193 91.036646 
L 206.296333 91.096319 
L 206.315424 91.038798 
L 206.329743 89.310728 
L 206.339289 89.768384 
L 206.415656 74.644793 
L 206.472931 83.547898 
L 206.592254 89.988603 
L 206.845218 90.998867 
L 207.102956 91.220904 
L 207.680479 91.304616 
L 210.682646 91.333437 
L 234.194048 91.209365 
L 234.21314 91.241758 
L 234.241778 87.710736 
L 234.308599 74.449062 
L 234.375419 81.039641 
L 234.52338 89.065289 
L 234.542472 89.18222 
L 234.55679 88.43341 
L 234.609292 81.610888 
L 234.67134 85.926948 
L 234.790663 89.313675 
L 234.800209 89.214486 
L 234.857484 83.585888 
L 234.929078 88.178001 
L 235.019764 89.464757 
L 235.038855 88.454239 
L 235.081812 84.47415 
L 235.148632 88.319931 
L 235.239318 89.648725 
L 235.25841 89.223056 
L 235.306139 84.566541 
L 235.368187 88.412239 
L 235.468418 89.849947 
L 235.48751 89.54379 
L 235.540012 83.583738 
L 235.60206 88.484152 
L 235.730929 90.087807 
L 235.740474 90.05497 
L 235.754793 88.518106 
L 235.812068 80.981567 
L 235.869343 87.671399 
L 235.998212 90.052695 
L 236.045941 90.290359 
L 236.065033 89.869334 
L 236.136627 76.712618 
L 236.193902 83.402619 
L 236.313225 89.743951 
L 236.427775 90.463704 
L 236.446867 90.234612 
L 236.532779 72.786832 
L 236.594827 82.324074 
L 236.71415 89.656094 
L 236.876429 90.616065 
L 236.895521 90.466238 
L 236.948023 76.728351 
L 236.986206 71.11677 
L 237.048254 79.500004 
L 237.177123 89.713915 
L 237.36804 90.728721 
L 237.387132 90.590615 
L 237.430088 80.425164 
L 237.48259 70.674607 
L 237.539865 78.214807 
L 237.67828 89.807082 
L 237.888288 90.808194 
L 237.902607 90.785499 
L 237.916926 90.149883 
L 238.007611 70.825925 
L 238.050568 75.300785 
L 238.241484 90.127704 
L 238.437174 90.871164 
L 238.456266 90.807307 
L 238.465812 90.262976 
L 238.556497 71.190694 
L 238.599453 75.538241 
L 238.785597 90.129207 
L 239.005152 90.920765 
L 239.01947 90.906109 
L 239.033789 90.672246 
L 239.129247 71.651107 
L 239.186522 80.063394 
L 239.310618 89.84545 
L 239.563583 90.929778 
L 239.596994 90.951681 
L 239.616085 90.830638 
L 239.654269 84.088176 
L 239.711544 71.978848 
L 239.768819 79.162777 
L 239.90246 89.921551 
L 240.155425 90.94874 
L 240.198381 90.981167 
L 240.217473 90.859015 
L 240.255656 84.396337 
L 240.312932 72.488438 
L 240.370207 79.905565 
L 240.494302 89.887526 
L 240.75204 90.954081 
L 240.804542 90.99658 
L 240.823634 90.899705 
L 240.857044 86.254303 
L 240.919092 72.667855 
L 240.98114 82.186709 
L 241.100463 89.894736 
L 241.358201 90.958541 
L 241.420249 91.017703 
L 241.439341 90.951496 
L 241.448886 90.516195 
L 241.539572 72.966444 
L 241.582528 77.164159 
L 241.759126 90.18418 
L 242.007318 91.009125 
L 242.045501 91.029519 
L 242.064593 90.957123 
L 242.074139 90.433498 
L 242.164824 73.219999 
L 242.207781 77.519949 
L 242.379606 90.172515 
L 242.627798 91.011563 
L 242.675527 91.036205 
L 242.694618 90.935017 
L 242.728029 86.63555 
L 242.790077 73.262431 
L 242.847352 80.435798 
L 242.971448 89.933186 
L 243.229185 90.975692 
L 243.310325 91.047478 
L 243.329417 90.952952 
L 243.362827 86.772731 
L 243.424875 73.43171 
L 243.48215 80.583737 
L 243.606246 89.941939 
L 243.859211 90.971611 
L 243.940351 91.05226 
L 243.964215 90.962822 
L 243.992853 88.129317 
L 244.064446 73.601503 
L 244.121721 83.406892 
L 244.241044 89.948468 
L 244.494009 90.975162 
L 244.584695 91.06211 
L 244.603786 90.998617 
L 244.613332 90.628473 
L 244.704018 73.869816 
L 244.751747 78.978853 
L 244.899707 90.082503 
L 245.152672 91.007446 
L 245.229039 91.070224 
L 245.252903 90.957985 
L 245.291087 85.521592 
L 245.348362 74.223478 
L 245.405637 82.48633 
L 245.52496 89.960261 
L 245.777925 90.982815 
L 245.863837 91.067982 
L 245.887702 90.990845 
L 245.902021 88.282477 
L 245.916339 88.398479 
L 245.987933 73.91562 
L 246.045208 83.483128 
L 246.164531 89.962797 
L 246.417496 90.984276 
L 246.512954 91.069058 
L 246.532046 90.987303 
L 246.560683 88.322655 
L 246.632277 74.098904 
L 246.684779 81.25036 
L 246.808875 89.977471 
L 247.06184 90.989137 
L 247.157298 91.07574 
L 247.17639 91.009093 
L 247.185936 90.651236 
L 247.276621 74.206612 
L 247.324351 79.339991 
L 247.472311 90.103752 
L 247.720503 91.011511 
L 247.806416 91.078596 
L 247.820734 91.027091 
L 247.835053 89.57078 
L 247.844599 89.724063 
L 247.920966 74.151573 
L 247.978241 82.226115 
L 248.097564 89.960857 
L 248.350528 90.987988 
L 248.455533 91.08881 
L 248.479397 91.000366 
L 248.508035 88.447723 
L 248.574856 74.495337 
L 248.632131 81.894741 
L 248.751454 89.966197 
L 249.004418 90.990598 
L 249.114196 91.092474 
L 249.133287 91.03378 
L 249.142833 90.720482 
L 249.233519 74.674328 
L 249.281248 79.800276 
L 249.424435 90.09471 
L 249.672627 91.01426 
L 249.763313 91.089776 
L 249.782404 91.037805 
L 249.796723 89.807379 
L 249.806269 89.840714 
L 249.882636 74.588319 
L 249.939911 82.945731 
L 250.059234 89.983015 
L 250.312198 90.99742 
L 250.41243 91.085167 
L 250.431521 91.016756 
L 250.441067 90.663702 
L 250.531753 74.456371 
L 250.579482 79.619909 
L 250.722669 90.087828 
L 250.970861 91.014675 
L 251.071093 91.101293 
L 251.090184 91.052304 
L 251.109276 89.802733 
L 251.114049 89.898575 
L 251.190416 74.686896 
L 251.247691 82.949001 
L 251.367014 89.987105 
L 251.619978 91.000292 
L 251.724983 91.09505 
L 251.744074 91.042117 
L 251.763166 89.790302 
L 251.767939 89.874828 
L 251.844306 74.655516 
L 251.901581 82.962933 
L 252.020904 89.986838 
L 252.273868 91.000721 
L 252.378873 91.092964 
L 252.397964 91.008113 
L 252.412283 88.495227 
L 252.426602 88.527102 
L 252.498196 74.485601 
L 252.550698 81.611655 
L 252.670021 89.964911 
L 252.922985 90.996253 
L 253.185496 91.224363 
L 253.653242 91.300123 
L 255.805829 91.333423 
L 270.883482 91.334172 
L 270.883482 91.334172 
" style="fill:none;stroke:#000000;stroke-linecap:square;stroke-width:0.6;"/>
   </g>
   <g id="line2d_8">
    <path clip-path="url(#pb4dac19a5d)" d="M 274.701818 88.9321 
L 274.701818 76.9201 
" style="fill:none;stroke:#000000;stroke-linecap:square;stroke-width:1.5;"/>
   </g>
   <g id="text_2">
    <!-- Average Energy: 188.6 $\mu$J/s -->
    <g transform="translate(161 13.2625)">
     <text>
      <tspan style="font-family:DejaVu Sans;font-size:8px;font-style:book;font-weight:book;" x="0 5.472656 10.207031 15.128906 18.417969 23.320312 28.398438 33.320312 35.863281 40.917969 45.988281 50.910156 54.199219 59.277344 64.011719 66.707031 69.25 74.339844 79.429688 84.519531 87.0625 92.152344 94.695312 99.785156 102.144531 104.839844" y="-0.0625">Average Energy: 188.6 μJ/s</tspan>
     </text>
    </g>
   </g>
  </g>
 </g>
 <defs>
  <clipPath id="pab3084a98b">
   <rect height="72.072" width="130.2" x="7.2" y="19.2625"/>
  </clipPath>
  <clipPath id="pb4dac19a5d">
   <rect height="72.072" width="130.2" x="150.42" y="19.2625"/>
  </clipPath>
 </defs>
</svg>
