<?xml version="1.0" encoding="utf-8" standalone="no"?>
<!DOCTYPE svg PUBLIC "-//W3C//DTD SVG 1.1//EN"
  "http://www.w3.org/Graphics/SVG/1.1/DTD/svg11.dtd">
<!-- Created with matplotlib (https://matplotlib.org/) -->
<svg height="79.632pt" version="1.1" viewBox="0 0 137.16 79.632" width="137.16pt" xmlns="http://www.w3.org/2000/svg" xmlns:xlink="http://www.w3.org/1999/xlink">
 <metadata>
  <rdf:RDF xmlns:cc="http://creativecommons.org/ns#" xmlns:dc="http://purl.org/dc/elements/1.1/" xmlns:rdf="http://www.w3.org/1999/02/22-rdf-syntax-ns#">
   <cc:Work>
    <dc:type rdf:resource="http://purl.org/dc/dcmitype/StillImage"/>
    <dc:date>2021-01-14T16:16:49.603602</dc:date>
    <dc:format>image/svg+xml</dc:format>
    <dc:creator>
     <cc:Agent>
      <dc:title>Matplotlib v3.3.2, https://matplotlib.org/</dc:title>
     </cc:Agent>
    </dc:creator>
   </cc:Work>
  </rdf:RDF>
 </metadata>
 <defs>
  <style type="text/css">*{stroke-linecap:butt;stroke-linejoin:round;}</style>
 </defs>
 <g id="figure_1">
  <g id="patch_1">
   <path d="M 0 79.632 
L 137.16 79.632 
L 137.16 0 
L 0 0 
z
" style="fill:none;"/>
  </g>
  <g id="axes_1">
   <g id="patch_2">
    <path d="M 7.2 72.432 
L 129.96 72.432 
L 129.96 7.2 
L 7.2 7.2 
z
" style="fill:none;"/>
   </g>
   <g id="matplotlib.axis_1"/>
   <g id="matplotlib.axis_2"/>
   <g id="line2d_1">
    <path clip-path="url(#p5b7c57bd8b)" d="M 12.78 24.540312 
L 12.821852 24.616459 
L 12.900905 24.5647 
L 13.398476 25.065999 
L 13.417077 25.035213 
L 13.472879 24.986963 
L 13.524031 25.03366 
L 13.644936 25.148059 
L 13.654236 25.120546 
L 13.691438 25.205354 
L 13.73794 25.198681 
L 13.854195 25.326235 
L 13.765841 25.154732 
L 13.882096 25.290608 
L 13.951849 25.394366 
L 14.054153 25.380676 
L 14.003001 25.362662 
L 14.058803 25.368477 
L 14.119256 25.42532 
L 14.123906 25.433584 
L 14.165758 25.52292 
L 14.240161 25.456083 
L 14.393617 25.676074 
L 14.45407 25.602734 
L 14.495921 25.728562 
L 14.612176 25.808454 
L 14.616827 25.807738 
L 15.128348 26.08497 
L 15.286454 26.215954 
L 15.309705 26.190967 
L 15.323656 26.135675 
L 15.42131 26.201165 
L 15.477112 26.239177 
L 15.523614 26.156714 
L 15.584067 26.226703 
L 15.639869 26.194056 
L 15.681721 26.19807 
L 15.704972 26.096536 
L 15.714272 26.115711 
L 15.839827 26.068559 
L 16.025835 26.293756 
L 16.039786 26.353854 
L 16.067687 26.367544 
L 16.156041 26.35016 
L 16.179292 26.427279 
L 16.244394 26.395027 
L 16.202543 26.47019 
L 16.290896 26.425016 
L 16.3839 26.515576 
L 16.486204 26.535251 
L 16.402501 26.503181 
L 16.504805 26.520217 
L 16.62571 26.401903 
L 16.518756 26.528608 
L 16.635011 26.430429 
L 16.709414 26.464338 
L 16.644311 26.423126 
L 16.741965 26.414354 
L 16.900072 26.321457 
L 16.751265 26.423591 
L 16.909372 26.332543 
L 16.918672 26.34437 
L 16.993076 26.247145 
L 17.420893 26.302882 
L 17.5697 26.356461 
L 17.634802 26.415297 
L 17.639452 26.444939 
L 17.723156 26.473587 
L 17.746407 26.423761 
L 17.788259 26.41032 
L 17.83011 26.493064 
L 17.960316 26.481907 
L 17.964966 26.466355 
L 18.150974 26.392081 
L 18.267229 26.423268 
L 18.276529 26.398375 
L 18.369533 26.259567 
L 18.402084 26.321211 
L 18.518339 26.383333 
L 18.53229 26.369712 
L 18.750849 26.291288 
L 18.815951 26.269598 
L 18.843853 26.325367 
L 18.853153 26.314054 
L 18.950807 26.397773 
L 18.978708 26.383632 
L 18.983358 26.360478 
L 19.039161 26.425879 
L 19.081013 26.419642 
L 19.243769 26.543624 
L 19.25307 26.522833 
L 19.313522 26.393865 
L 19.383275 26.466592 
L 19.50418 26.526798 
L 19.462328 26.442782 
L 19.50883 26.508632 
L 19.513481 26.492527 
L 19.587884 26.617845 
L 19.592534 26.632479 
L 19.625085 26.568941 
L 19.690188 26.573386 
L 19.787842 26.588321 
L 19.727389 26.639629 
L 19.801793 26.608152 
L 19.9878 26.524702 
L 20.048253 26.604678 
L 20.080804 26.572082 
L 20.201709 26.605057 
L 20.118006 26.531214 
L 20.206359 26.599661 
L 20.601626 26.641998 
L 20.736482 26.523816 
L 20.615576 26.646114 
L 20.741132 26.534229 
L 20.843436 26.564479 
L 20.866687 26.54721 
L 21.001543 26.557086 
L 20.889938 26.591814 
L 21.006193 26.569631 
L 21.127098 26.60781 
L 21.029444 26.537843 
L 21.141048 26.576408 
L 21.220102 26.560768 
L 21.234052 26.602756 
L 21.252653 26.574994 
L 21.308455 26.650416 
L 21.313106 26.666958 
L 21.42471 26.743927 
L 21.341007 26.641837 
L 21.443311 26.692899 
L 21.559566 26.585143 
L 21.685121 26.488432 
L 21.689771 26.495325 
L 21.759524 26.495582 
L 21.745574 26.437656 
L 21.787425 26.466407 
L 21.857178 26.406024 
L 21.88973 26.502684 
L 21.945532 26.592485 
L 22.005984 26.520198 
L 22.071087 26.511516 
L 22.094338 26.597439 
L 22.224544 26.677907 
L 22.238494 26.654799 
L 22.303597 26.674929 
L 22.37335 26.564521 
L 22.503555 26.629011 
L 22.526806 26.60384 
L 22.577958 26.555215 
L 22.62446 26.63283 
L 22.633761 26.625683 
L 22.796517 26.513268 
L 22.652361 26.637489 
L 22.805818 26.524909 
L 22.903472 26.718026 
L 22.949974 26.690577 
L 22.982525 26.649078 
L 23.038327 26.752659 
L 23.09413 26.81761 
L 23.154582 26.783459 
L 23.419643 26.951779 
L 23.517297 26.829754 
L 23.554499 26.853119 
L 23.596351 26.878467 
L 23.614951 26.939144 
L 23.726556 26.949743 
L 23.628902 26.907726 
L 23.735856 26.936583 
L 23.838161 26.915184 
L 23.800959 26.963251 
L 23.852111 26.937395 
L 24.126473 27.392554 
L 24.29853 27.369657 
L 24.30783 27.390853 
L 24.317131 27.411404 
L 24.340382 27.320251 
L 24.405484 27.361868 
L 24.507789 27.297232 
L 24.526389 27.317488 
L 24.628694 27.351767 
L 24.651945 27.312758 
L 25.563383 27.40884 
L 25.572683 27.427269 
L 25.614535 27.329266 
L 25.647086 27.334656 
L 25.665687 27.278806 
L 25.716839 27.388358 
L 25.74474 27.384997 
L 25.921448 27.378367 
L 25.926098 27.364301 
L 25.963299 27.305522 
L 26.005151 27.408501 
L 26.037702 27.370476 
L 26.177208 27.311475 
L 26.21441 27.358013 
L 35.272987 27.27401 
L 35.33809 27.248353 
L 35.324139 27.301308 
L 35.375291 27.295974 
L 35.477596 27.352005 
L 35.398542 27.245577 
L 35.491546 27.286276 
L 35.663603 27.286058 
L 35.728706 27.26036 
L 35.784509 27.352466 
L 36.086771 27.215645 
L 36.151874 27.354742 
L 36.240228 27.310517 
L 36.29138 27.1989 
L 36.361133 27.322607 
L 36.412285 27.43264 
L 36.477387 27.348997 
L 36.761049 27.162874 
L 36.765699 27.184861 
L 36.868004 27.242633 
L 36.905205 27.21011 
L 37.077262 27.19206 
L 36.914506 27.226224 
L 37.081913 27.209273 
L 37.193517 27.268123 
L 37.198167 27.253589 
L 37.235369 27.270467 
L 37.319072 27.246286 
L 37.467879 27.348534 
L 37.351624 27.217744 
L 37.472529 27.343222 
L 37.537632 27.371481 
L 37.598084 27.260666 
L 37.830594 27.018728 
L 37.616685 27.288625 
L 37.863145 27.042952 
L 37.942198 27.129853 
L 37.98405 27.0756 
L 38.091005 27.068381 
L 38.039852 27.119052 
L 38.095655 27.087283 
L 38.160758 27.191838 
L 38.21656 27.132587 
L 38.318864 27.080277 
L 38.239811 27.163498 
L 38.337465 27.116561 
L 38.342115 27.148554 
L 38.435119 27.01915 
L 38.500222 27.048557 
L 38.45372 27.006367 
L 38.542073 26.997673 
L 38.579275 26.988818 
L 38.630427 27.065282 
L 38.681579 27.027141 
L 38.751332 27.098435 
L 39.048945 27.03765 
L 39.127998 26.937403 
L 39.197751 26.971543 
L 39.42096 26.859656 
L 39.42561 26.8727 
L 39.527914 26.904847 
L 39.444211 26.849151 
L 39.546515 26.878956 
L 39.644169 26.895383 
L 39.676721 26.831841 
L 39.709272 26.822432 
L 39.751124 26.891316 
L 39.779025 26.871165 
L 39.797626 26.893759 
L 39.820877 26.831544 
L 39.881329 26.827788 
L 39.89993 26.865796 
L 39.965033 26.776689 
L 39.978983 26.775532 
L 40.123139 26.829447 
L 40.13709 26.796928 
L 40.15104 26.812287 
L 40.285896 26.787767 
L 40.313797 26.815847 
L 40.360299 26.743627 
L 40.3789 26.757528 
L 40.425402 26.668441 
L 40.499805 26.699145 
L 40.657912 26.535636 
L 40.671862 26.549937 
L 40.709064 26.580843 
L 40.736965 26.491804 
L 40.774166 26.516544 
L 40.881121 26.395056 
L 40.904372 26.449948 
L 41.020627 26.432831 
L 41.029927 26.446326 
L 41.034577 26.458263 
L 41.09968 26.369036 
L 41.118281 26.384215 
L 41.294988 26.183192 
L 41.299638 26.208978 
L 41.453095 26.171375 
L 41.355441 26.27483 
L 41.457745 26.176649 
L 41.471695 26.208394 
L 41.536798 26.109334 
L 41.546099 26.114696 
L 41.639102 26.078253 
L 41.597251 26.126317 
L 41.657703 26.099604 
L 41.662353 26.111659 
L 41.722806 25.969176 
L 41.727456 25.983006 
L 41.880913 25.903206 
L 41.885563 25.913574 
L 42.05762 26.058208 
L 42.350582 25.753586 
L 42.355232 25.760148 
L 42.364533 25.770507 
L 42.429635 25.667553 
L 42.438936 25.686093 
L 42.569141 25.543022 
L 42.573791 25.562967 
L 42.671445 25.564877 
L 42.680746 25.529707 
L 42.801651 25.406327 
L 42.815601 25.420519 
L 42.996959 25.275345 
L 43.001609 25.28834 
L 43.173666 25.329516 
L 43.285271 25.365651 
L 43.289921 25.35047 
L 43.401526 25.335588 
L 43.299222 25.365934 
L 43.415476 25.378599 
L 43.457328 25.400874 
L 43.50383 25.279089 
L 43.592184 25.156392 
L 43.634036 25.176767 
L 43.647986 25.204932 
L 43.680538 25.123547 
L 43.73169 25.129745 
L 43.880496 24.941244 
L 43.922348 25.000111 
L 43.926998 25.028942 
L 43.964199 24.969318 
L 44.029302 24.991669 
L 44.080454 24.9638 
L 44.131606 25.028581 
L 44.45247 24.978791 
L 44.545474 24.863328 
L 44.578025 24.925205 
L 44.773333 24.76899 
L 44.861687 24.755598 
L 44.884938 24.795417 
L 44.917489 24.815222 
L 44.903538 24.771982 
L 44.991892 24.784392 
L 45.112797 24.670724 
L 45.117447 24.674554 
L 45.238352 24.716893 
L 45.136048 24.660337 
L 45.243003 24.699454 
L 45.382508 24.476516 
L 45.42436 24.494829 
L 45.89868 24.219368 
L 45.991684 24.083215 
L 46.033536 24.10431 
L 46.038186 24.135577 
L 46.107939 23.999851 
L 46.13584 24.052246 
L 46.200943 23.982671 
L 46.205593 23.962952 
L 46.233494 23.973483 
L 46.373 23.746904 
L 46.410201 23.820818 
L 46.479954 23.72608 
L 46.549707 23.605569 
L 46.61946 23.630742 
L 46.62876 23.64001 
L 46.675262 23.497581 
L 47.010076 22.101565 
L 47.037977 20.230396 
L 47.056578 10.500987 
L 47.135631 26.233783 
L 47.168183 27.292634 
L 47.251886 26.950949 
L 47.316989 26.503103 
L 47.642503 22.231507 
L 47.661103 19.700022 
L 47.675054 10.194641 
L 47.763408 24.118393 
L 47.800609 27.554431 
L 47.879662 27.264188 
L 47.921514 27.09683 
L 48.316781 22.077065 
L 48.335381 15.437888 
L 48.344682 10.247412 
L 48.433036 23.406295 
L 48.470237 27.589988 
L 48.54929 27.349704 
L 48.693446 26.499403 
L 48.935256 23.61976 
L 49.01896 21.383491 
L 49.037561 10.22339 
L 49.121264 21.097953 
L 49.163116 27.638917 
L 49.242169 27.441015 
L 49.456078 26.184405 
L 49.586284 24.765505 
L 49.762991 21.237273 
L 49.781592 10.220918 
L 49.865295 21.887161 
L 49.907147 27.713422 
L 49.98155 27.546383 
L 50.539573 22.993694 
L 50.600026 21.109648 
L 50.618627 10.210859 
L 50.69768 21.561566 
L 50.744182 27.736482 
L 50.818585 27.552625 
L 51.032494 26.583638 
L 51.1906 25.445049 
L 51.595167 21.386209 
L 51.618418 10.288517 
L 51.692821 22.900347 
L 51.739323 27.678299 
L 51.809076 27.484791 
L 52.027635 26.536144 
L 52.701913 21.391366 
L 52.725164 10.443335 
L 52.794917 21.948339 
L 52.841419 27.658169 
L 52.915822 27.474572 
L 53.078579 26.809203 
L 53.455245 24.601832 
L 53.971416 22.676988 
L 54.05977 20.812413 
L 54.083021 10.645986 
L 54.148124 24.01208 
L 54.208576 27.563134 
L 54.269029 27.371643 
L 54.468987 26.525304 
L 54.868904 24.412476 
L 54.873554 24.414486 
L 54.892155 24.326536 
L 55.143265 23.623586 
L 55.147915 23.639689 
L 55.213018 23.480468 
L 55.412976 23.133578 
L 55.450178 23.161314 
L 55.454828 23.175311 
L 55.515281 23.031963 
L 55.519931 23.030749 
L 55.696638 22.821159 
L 55.715239 22.853887 
L 55.784992 22.84871 
L 55.771041 22.812884 
L 55.808243 22.819325 
L 55.952399 22.639045 
L 56.003551 22.525153 
L 56.082604 21.923395 
L 56.115156 18.689945 
L 56.133756 11.292236 
L 56.20816 26.838904 
L 56.240711 27.460001 
L 56.324414 27.239241 
L 56.626677 25.68956 
L 56.826635 24.745505 
L 56.831285 24.748583 
L 56.854536 24.648859 
L 57.100997 23.97633 
L 57.105647 23.998116 
L 57.380008 23.627495 
L 57.510214 23.70604 
L 57.403259 23.60826 
L 57.514864 23.696977 
L 57.640419 23.61236 
L 57.64972 23.636469 
L 57.682271 23.706375 
L 57.752024 23.564304 
L 57.89153 23.708881 
L 58.035686 23.696984 
L 57.90083 23.721207 
L 58.040336 23.728952 
L 58.249595 23.869377 
L 58.286796 23.813441 
L 58.296097 23.784859 
L 58.3798 23.871451 
L 58.38445 23.864332 
L 58.575108 24.069846 
L 58.709964 24.100861 
L 58.714614 24.132037 
L 58.835519 24.274443 
L 58.85412 24.269928 
L 58.993626 24.352211 
L 58.86807 24.260041 
L 58.998276 24.345193 
L 59.007576 24.336955 
L 59.044778 24.450269 
L 59.054078 24.441431 
L 59.32844 24.830459 
L 59.33309 24.805495 
L 59.412143 24.953655 
L 59.505147 24.997138 
L 59.533048 24.983494 
L 59.626052 24.893834 
L 59.663253 24.927396 
L 59.951565 25.132534 
L 60.06782 25.31994 
L 60.105022 25.300119 
L 60.109672 25.295867 
L 60.151524 25.399004 
L 60.30498 25.570726 
L 60.425885 25.678432 
L 60.332881 25.540915 
L 60.458437 25.635352 
L 60.570041 25.614134 
L 60.588642 25.657736 
L 60.704897 25.772648 
L 60.714197 25.756033 
L 60.853703 25.809434 
L 60.858353 25.835112 
L 61.01646 26.041605 
L 61.304772 26.325558 
L 61.314072 26.290358 
L 61.416377 26.255558 
L 61.430327 26.294247 
L 61.551232 26.352518 
L 61.658187 26.404271 
L 61.569833 26.340097 
L 61.681438 26.368177 
L 61.718639 26.307764 
L 61.802343 26.359545 
L 61.895346 26.4499 
L 61.941848 26.419652 
L 61.965099 26.382741 
L 62.006951 26.504829 
L 62.044153 26.455779 
L 62.146457 26.464042 
L 62.095305 26.379093 
L 62.155757 26.45558 
L 62.160408 26.435378 
L 62.244111 26.514046 
L 62.258062 26.493866 
L 62.355716 26.561823 
L 62.285963 26.468351 
L 62.402218 26.531902 
L 62.509172 26.451047 
L 62.532423 26.466138 
L 62.602176 26.484395 
L 62.644028 26.413676 
L 62.676579 26.362991 
L 62.727731 26.474802 
L 62.876537 26.603713 
L 63.378758 26.421037 
L 63.41596 26.38412 
L 63.462462 26.454483 
L 63.485713 26.444235 
L 63.718222 26.362538 
L 63.764724 26.333899 
L 63.806576 26.421114 
L 63.922831 26.422334 
L 63.871679 26.344453 
L 63.927481 26.412357 
L 63.997234 26.384852 
L 64.029785 26.434805 
L 64.034436 26.431372 
L 64.13674 26.579458 
L 64.183242 26.47059 
L 64.313447 26.460528 
L 64.322748 26.47407 
L 64.504105 26.538362 
L 64.513406 26.51319 
L 64.61106 26.359478 
L 64.680813 26.400583 
L 65.238836 26.509769 
L 65.35044 26.567164 
L 65.359741 26.563929 
L 65.396942 26.520498 
L 65.415543 26.582832 
L 65.475996 26.544578 
L 65.57365 26.619335 
L 65.494596 26.510425 
L 65.606201 26.581824 
L 65.778258 26.389661 
L 65.834061 26.432959 
L 65.792209 26.434856 
L 65.843361 26.476797 
L 65.941015 26.561589 
L 65.964266 26.508515 
L 66.085171 26.423595 
L 66.089821 26.436683 
L 66.373483 26.603496 
L 66.392084 26.573704 
L 66.471137 26.556267 
L 66.503688 26.580425 
L 66.666445 26.646088 
L 66.889655 26.530911 
L 66.950107 26.484879 
L 66.987309 26.551565 
L 67.001259 26.525535 
L 67.071012 26.544666 
L 67.103563 26.506849 
L 67.164016 26.441283 
L 67.122164 26.511248 
L 67.219818 26.4916 
L 67.350024 26.50031 
L 67.363974 26.479074 
L 67.484879 26.443598 
L 67.419777 26.507511 
L 67.48953 26.452284 
L 67.908047 26.345429 
L 68.024302 26.391704 
L 68.112656 26.268398 
L 68.154507 26.336847 
L 68.345165 26.391923 
L 68.433519 26.325642 
L 68.387017 26.421223 
L 68.45677 26.372981 
L 68.531173 26.415405 
L 68.498622 26.363718 
L 68.573025 26.405251 
L 68.759032 26.490021 
L 68.800884 26.47383 
L 68.852036 26.55493 
L 68.977592 26.486788 
L 69.075246 26.451153 
L 69.089196 26.464191 
L 69.210101 26.574391 
L 69.224052 26.564535 
L 69.340307 26.563726 
L 69.284504 26.633628 
L 69.344957 26.571657 
L 69.517014 26.666269 
L 69.735573 26.822737 
L 69.740223 26.817798 
L 69.772775 26.75151 
L 69.833227 26.85887 
L 69.842528 26.836502 
L 69.986684 27.040223 
L 70.005284 27.021919 
L 70.033186 27.003824 
L 70.075037 27.137373 
L 70.181992 27.408752 
L 70.205243 27.355548 
L 70.265695 27.310093 
L 70.312197 27.367287 
L 70.3773 27.362159 
L 70.405201 27.306682 
L 70.986475 27.307363 
L 71.10738 27.339446 
L 71.116681 27.369635 
L 71.195734 27.414028 
L 71.228285 27.377787 
L 71.325939 27.354311 
L 71.242236 27.411387 
L 71.34454 27.370884 
L 71.400343 27.410539 
L 71.386392 27.346236 
L 71.432894 27.333473 
L 71.437544 27.307217 
L 71.488696 27.423178 
L 71.539848 27.34277 
L 71.57705 27.395779 
L 71.614251 27.304051 
L 71.651453 27.337933 
L 71.660753 27.296384 
L 71.721206 27.391611 
L 71.763058 27.32214 
L 71.80956 27.371012 
L 71.846761 27.280334 
L 71.874662 27.304861 
L 72.29318 27.395033 
L 72.321081 27.420835 
L 72.372233 27.339276 
L 72.390834 27.347867 
L 72.409435 27.290883 
L 72.469887 27.368412 
L 72.497788 27.34861 
L 72.595442 27.348339 
L 72.53499 27.297162 
L 72.600093 27.339032 
L 72.627994 27.286265 
L 72.665195 27.374528 
L 72.707047 27.34321 
L 72.7861 27.386054 
L 72.809351 27.322679 
L 72.818652 27.338204 
L 72.837252 27.284592 
L 72.869804 27.35623 
L 72.930256 27.334914 
L 72.995359 27.422944 
L 73.060462 27.386667 
L 73.134865 27.338083 
L 73.176717 27.389676 
L 73.49758 27.277554 
L 73.516181 27.338866 
L 73.599884 27.43276 
L 73.539432 27.324912 
L 73.637086 27.393542 
L 73.664987 27.412661 
L 73.692888 27.356432 
L 73.73939 27.377053 
L 73.799842 27.332348 
L 73.757991 27.393638 
L 73.850995 27.366476 
L 73.934698 27.378146 
L 73.897497 27.301536 
L 73.962599 27.351495 
L 74.088155 27.293866 
L 74.092805 27.317555 
L 74.181158 27.404966 
L 74.20906 27.336475 
L 74.367166 27.426854 
L 74.376467 27.401198 
L 74.446219 27.273106 
L 74.497372 27.339026 
L 74.674079 27.398271 
L 74.734531 27.327457 
L 74.790334 27.341098 
L 74.897288 27.411038 
L 74.822885 27.323187 
L 74.911239 27.397155 
L 75.018193 27.322087 
L 75.032144 27.345103 
L 76.045886 27.327037 
L 76.050536 27.307455 
L 76.14354 27.380487 
L 76.450453 27.326788 
L 76.455103 27.343076 
L 76.510905 27.41347 
L 76.566708 27.369281 
L 76.664362 27.331708 
L 76.61786 27.391878 
L 76.678312 27.358791 
L 76.692263 27.342909 
L 76.743415 27.419741 
L 76.771316 27.413758 
L 76.85967 27.414639 
L 76.799217 27.377962 
L 76.873621 27.384295 
L 77.031727 27.290835 
L 77.041028 27.333361 
L 77.166583 27.344805 
L 77.175883 27.323867 
L 77.729256 27.325101 
L 77.752507 27.275968 
L 77.83156 27.378134 
L 77.873412 27.432819 
L 77.952466 27.367508 
L 78.087321 27.268781 
L 78.091971 27.30092 
L 78.166374 27.382312 
L 78.217527 27.333787 
L 78.361683 27.329481 
L 78.370983 27.345545 
L 78.440736 27.42048 
L 78.482588 27.34112 
L 78.54769 27.295425 
L 78.580242 27.383341 
L 78.589542 27.374579 
L 78.715097 27.345321 
L 78.640694 27.442013 
L 78.724398 27.35917 
L 78.859253 27.393658 
L 78.882504 27.330428 
L 78.915056 27.291139 
L 78.942957 27.374461 
L 78.989459 27.335823 
L 78.994109 27.369502 
L 79.091763 27.267742 
L 79.208018 27.353245 
L 79.212668 27.348849 
L 79.301022 27.302473 
L 79.328923 27.338192 
L 79.352174 27.313527 
L 79.426577 27.291672 
L 79.435877 27.269489 
L 79.463778 27.368692 
L 79.528881 27.328882 
L 79.640486 27.378547 
L 79.547482 27.387919 
L 79.645136 27.390733 
L 79.74279 27.395591 
L 79.663737 27.354686 
L 79.761391 27.368871 
L 79.770691 27.329658 
L 79.872996 27.369766 
L 79.97995 27.401916 
L 80.012501 27.342995 
L 80.091555 27.267483 
L 80.133406 27.29638 
L 80.249661 27.355253 
L 80.258962 27.344592 
L 80.375216 27.30824 
L 80.328715 27.368039 
L 80.379867 27.313478 
L 80.505422 27.324515 
L 80.510072 27.314986 
L 80.668179 27.339092 
L 80.803034 27.394237 
L 80.677479 27.329488 
L 80.807684 27.37393 
L 81.021593 27.305842 
L 81.026244 27.318869 
L 81.147149 27.355219 
L 81.072746 27.259317 
L 81.151799 27.339047 
L 81.165749 27.320282 
L 81.202951 27.416648 
L 81.226202 27.395385 
L 81.230852 27.424527 
L 81.319206 27.296493 
L 81.323856 27.31101 
L 81.351757 27.334597 
L 81.449411 27.308405 
L 81.537765 27.350667 
L 81.570316 27.295129 
L 81.584267 27.320856 
L 81.714472 27.247403 
L 81.774925 27.322273 
L 81.835377 27.268524 
L 81.867929 27.299462 
L 81.914431 27.207111 
L 81.965583 27.165497 
L 82.007434 27.252476 
L 82.016735 27.253351 
L 82.13299 27.205978 
L 82.026035 27.260266 
L 82.15159 27.219246 
L 82.421302 27.28899 
L 82.425952 27.274648 
L 82.514306 27.344831 
L 82.546857 27.254956 
L 82.62126 27.293402 
L 82.653811 27.217105 
L 82.835169 27.280206 
L 82.86772 27.226648 
L 82.932823 27.312686 
L 82.942123 27.301105 
L 83.058378 27.191538 
L 82.965374 27.31784 
L 83.086279 27.253716 
L 83.197884 27.2749 
L 83.179283 27.231356 
L 83.202534 27.263503 
L 83.300188 27.247009 
L 83.225785 27.289363 
L 83.314139 27.261757 
L 83.648953 26.977809 
L 83.653603 26.953556 
L 83.700105 27.039302 
L 83.755907 26.999183 
L 84.239527 27.115831 
L 84.248828 27.072654 
L 84.365083 26.971695 
L 84.383683 26.977459 
L 84.555741 27.020864 
L 84.565041 27.043336 
L 84.671995 27.01512 
L 84.839402 27.027076 
L 84.844053 27.040167 
L 84.848703 27.059702 
L 84.909155 26.914216 
L 84.927756 26.914052 
L 84.932406 26.877442 
L 85.034711 26.943447 
L 85.132365 26.937999 
L 85.150965 26.907409 
L 85.27187 26.858037 
L 85.323023 26.848665 
L 85.336973 26.801675 
L 85.364874 26.80511 
L 86.150757 26.537425 
L 86.248411 26.487534 
L 86.267012 26.506795 
L 86.350715 26.517048 
L 86.378617 26.485798 
L 86.490221 26.481919 
L 86.406518 26.508485 
L 86.494871 26.484472 
L 86.634377 26.433842 
L 86.718081 26.404697 
L 86.685529 26.462853 
L 86.745982 26.441507 
L 86.904089 26.310992 
L 86.987792 26.178697 
L 87.034294 26.210077 
L 87.043594 26.192987 
L 87.090096 26.282107 
L 87.131948 26.271587 
L 87.211001 26.261656 
L 87.141248 26.280142 
L 87.248203 26.284424 
L 87.355157 26.271296 
L 87.304005 26.204186 
L 87.359807 26.263321 
L 87.438861 26.168849 
L 87.485363 26.182132 
L 87.638819 26.149357 
L 87.643469 26.164565 
L 87.65742 26.184723 
L 87.745774 26.131663 
L 87.857378 26.041182 
L 87.778325 26.172007 
L 87.885279 26.070642 
L 88.13174 25.9232 
L 88.178242 25.832809 
L 88.243344 25.906809 
L 88.345649 25.999816 
L 88.359599 25.967569 
L 88.499105 25.859849 
L 88.62001 25.814171 
L 88.62466 25.791963 
L 88.764166 25.784484 
L 88.782767 25.836238 
L 88.806018 25.863241 
L 88.843219 25.768911 
L 88.86647 25.765657 
L 88.992026 25.705851 
L 88.996676 25.68835 
L 89.047828 25.744308 
L 89.09433 25.731863 
L 89.224535 25.753675 
L 89.233836 25.722809 
L 89.303588 25.655314 
L 89.35009 25.697088 
L 89.503547 25.757805 
L 92.530823 24.894668 
L 92.619177 24.921019 
L 92.572675 24.846645 
L 92.642428 24.885266 
L 92.740082 24.872442 
L 92.70288 24.92373 
L 92.749382 24.906034 
L 92.967941 24.885553 
L 92.972591 24.864628 
L 93.158599 24.64794 
L 93.372508 24.470216 
L 93.432961 24.35564 
L 93.484113 24.380945 
L 93.637569 24.158821 
L 93.65617 24.125196 
L 93.739873 24.127871 
L 93.772425 24.145464 
L 93.91193 23.925432 
L 94.004934 23.833853 
L 94.13979 23.698785 
L 94.153741 23.702553 
L 94.172341 23.629771 
L 94.190942 23.61582 
L 94.367649 23.377922 
L 94.3723 23.384501 
L 94.539707 23.007974 
L 94.683863 21.284557 
L 94.711764 10.446956 
L 94.772216 21.673042 
L 94.823368 27.320579 
L 94.893121 27.085189 
L 95.09308 25.479583 
L 95.33489 21.269044 
L 95.353491 10.165091 
L 95.437194 21.435539 
L 95.483696 27.595827 
L 95.558099 27.370505 
L 95.81851 25.428378 
L 96.027769 21.874282 
L 96.046369 11.414049 
L 96.05102 10.194682 
L 96.125423 19.025933 
L 96.181225 27.644521 
L 96.29748 27.247996 
L 96.478837 26.029622 
L 96.729948 22.745069 
L 96.767149 20.871054 
L 96.7811 10.241098 
L 96.869454 22.853196 
L 96.911305 27.704235 
L 96.985709 27.496642 
L 97.246119 25.95285 
L 97.562333 21.590547 
L 97.585584 10.244594 
L 97.664637 21.376175 
L 97.706489 27.708147 
L 97.785542 27.528483 
L 98.292413 23.862436 
L 98.441219 20.832137 
L 98.45982 10.212933 
L 98.538873 22.664718 
L 98.580725 27.759662 
L 98.655128 27.572664 
L 99.441011 22.650507 
L 99.492163 21.257116 
L 99.515414 10.314655 
L 99.585167 21.692256 
L 99.636319 27.707853 
L 99.706072 27.518904 
L 99.90603 26.701267 
L 100.715164 21.064793 
L 100.738415 10.458272 
L 100.808168 24.144121 
L 100.86862 27.654085 
L 100.929073 27.477256 
L 101.859112 23.542404 
L 101.863762 23.547055 
L 101.900963 23.440852 
L 102.161374 22.627754 
L 102.249728 21.792925 
L 102.272979 18.617243 
L 102.29158 10.879071 
L 102.370633 27.064983 
L 102.393884 27.555539 
L 102.486888 27.322984 
L 103.477379 23.416471 
L 103.482029 23.425972 
L 104.086554 22.601729 
L 104.202809 21.753482 
L 104.22606 19.299419 
L 104.244661 11.227119 
L 104.319064 26.77324 
L 104.365566 27.530637 
L 104.435319 27.319142 
L 104.811985 25.694768 
L 104.863137 25.486533 
L 105.086346 24.719587 
L 105.114247 24.653465 
L 105.118897 24.627945 
L 105.314206 24.336139 
L 105.318856 24.341865 
L 105.574616 24.37708 
L 105.579267 24.357104 
L 105.751324 24.306375 
L 105.825727 24.213569 
L 105.862928 24.276769 
L 105.937332 24.236159 
L 105.979183 24.282859 
L 106.109389 24.367002 
L 106.225644 24.328483 
L 106.234944 24.360167 
L 106.3884 24.523324 
L 106.704614 24.622509 
L 106.709264 24.600828 
L 106.783667 24.755576 
L 106.788317 24.751299 
L 106.811568 24.691411 
L 106.890621 24.766112 
L 107.006876 24.883484 
L 106.946424 24.736016 
L 107.020827 24.858991 
L 107.058028 24.816124 
L 107.081279 24.941015 
L 107.113831 24.927441 
L 107.746257 25.542312 
L 107.862512 25.658158 
L 107.871812 25.640611 
L 108.099672 25.782251 
L 108.220577 25.955703 
L 108.239177 25.906716 
L 108.834402 26.140147 
L 108.922756 26.135688 
L 108.890205 26.085211 
L 108.936707 26.115495 
L 108.959957 26.060721 
L 109.01576 26.160041 
L 109.039011 26.14549 
L 109.071562 26.130538 
L 109.159916 26.207162 
L 109.280821 26.155906 
L 109.331973 26.111509 
L 109.378475 26.189894 
L 109.401726 26.17515 
L 109.517981 26.269217 
L 109.615635 26.226233 
L 109.629585 26.26853 
L 109.722589 26.247863 
L 109.690038 26.305792 
L 109.74584 26.272752 
L 110.015551 26.398826 
L 110.113206 26.426697 
L 110.057403 26.453672 
L 110.117856 26.445162 
L 110.136457 26.484306 
L 110.196909 26.427393 
L 110.22481 26.434541 
L 110.271312 26.377052 
L 110.234111 26.440406 
L 110.327114 26.477864 
L 110.434069 26.514249 
L 110.44802 26.488714 
L 110.573575 26.48033 
L 110.587525 26.506867 
L 110.69913 26.551074 
L 110.70843 26.536733 
L 110.782833 26.499364 
L 110.824685 26.525789 
L 110.93164 26.564959 
L 110.843286 26.460655 
L 110.95024 26.548067 
L 111.099047 26.479124 
L 110.959541 26.559483 
L 111.103697 26.499729 
L 111.126948 26.453905 
L 111.247853 26.544414 
L 111.378058 26.436983 
L 111.568716 26.544289 
L 111.573366 26.539655 
L 111.66637 26.442432 
L 111.698922 26.465848 
L 111.870979 26.421834 
L 111.875629 26.436327 
L 111.880279 26.463033 
L 111.973283 26.402706 
L 111.982583 26.403871 
L 111.991884 26.385102 
L 112.056987 26.469058 
L 112.080238 26.439447 
L 112.13139 26.435004 
L 112.112789 26.394011 
L 112.173241 26.39846 
L 112.322048 26.153337 
L 112.326698 26.182397 
L 112.335998 26.164773 
L 112.401101 26.288381 
L 112.512706 26.339721 
L 112.433652 26.256131 
L 112.526656 26.320097 
L 112.717314 26.371064 
L 112.721964 26.354662 
L 112.805668 26.277992 
L 112.745215 26.378677 
L 112.838219 26.343872 
L 112.898672 26.436491 
L 112.949824 26.334738 
L 113.056778 26.237934 
L 113.075379 26.279909 
L 113.200934 26.29253 
L 113.428794 26.057691 
L 113.517147 26.047162 
L 113.531098 26.001327 
L 113.5683 25.950644 
L 113.628752 26.05496 
L 113.642703 26.01245 
L 113.833361 26.057594 
L 113.931015 25.986429 
L 113.949615 26.007178 
L 114.010068 26.057964 
L 113.982167 25.99706 
L 114.06587 26.026157 
L 114.53089 26.236279 
L 114.075171 26.010845 
L 114.54019 26.200702 
L 114.665745 26.212669 
L 114.582042 26.267011 
L 114.670395 26.222035 
L 114.707597 26.187596 
L 114.7913 26.281925 
L 114.861053 26.304819 
L 114.875004 26.23288 
L 114.930806 26.138986 
L 114.991259 26.200252 
L 115.26562 26.358144 
L 115.27027 26.346277 
L 115.405126 26.21934 
L 115.419077 26.231123 
L 115.628335 26.505478 
L 115.753891 26.470071 
L 115.763191 26.490494 
L 115.860845 26.535682 
L 116.079404 26.7039 
L 116.102655 26.659749 
L 116.284013 26.585425 
L 116.293313 26.604821 
L 116.418868 26.645367 
L 116.330515 26.579229 
L 116.423518 26.637732 
L 117.42796 26.863413 
L 117.725573 27.376582 
L 117.841828 27.303399 
L 117.972033 27.361612 
L 118.209193 27.345316 
L 118.246394 27.277877 
L 118.320798 27.341215 
L 119.492646 27.34699 
L 119.557749 27.374046 
L 119.604251 27.349583 
L 119.692605 27.408044 
L 119.636802 27.334425 
L 119.729806 27.377424 
L 119.864662 27.361579 
L 119.869312 27.369342 
L 119.976267 27.372481 
L 119.943715 27.304621 
L 119.985567 27.364052 
L 120.31108 27.343937 
L 120.427335 27.397848 
L 120.320381 27.338754 
L 120.436636 27.361581 
L 120.497088 27.39396 
L 120.562191 27.345217 
L 120.594742 27.412011 
L 120.631944 27.310804 
L 120.673796 27.365315 
L 120.915606 27.413255 
L 120.976058 27.396798 
L 120.948157 27.370569 
L 120.999309 27.355054 
L 121.110914 27.312206 
L 121.02721 27.384579 
L 121.115564 27.320681 
L 121.203918 27.382242 
L 121.231819 27.356381 
L 121.236469 27.308936 
L 121.273671 27.380358 
L 121.338773 27.373083 
L 121.450378 27.423487 
L 121.399226 27.350597 
L 121.459678 27.419086 
L 121.566633 27.30851 
L 121.580583 27.32963 
L 121.673587 27.405568 
L 121.696838 27.362636 
L 121.864245 27.386747 
L 121.715439 27.327465 
L 121.873546 27.363796 
L 122.068854 27.322263 
L 122.124656 27.314972 
L 122.152557 27.40511 
L 122.22231 27.420483 
L 122.175808 27.384533 
L 122.264162 27.406991 
L 122.375766 27.401171 
L 122.385067 27.374679 
L 122.598976 27.281817 
L 122.608276 27.313686 
L 122.840786 27.39177 
L 122.910539 27.420728 
L 122.957041 27.388028 
L 123.077946 27.370968 
L 122.966341 27.396719 
L 123.087246 27.3813 
L 123.18955 27.372186 
L 123.119797 27.353624 
L 123.194201 27.36278 
L 123.222102 27.395611 
L 123.324406 27.323067 
L 123.454611 27.360059 
L 123.547615 27.285308 
L 123.584817 27.327925 
L 124.035886 27.411124 
L 124.100988 27.382619 
L 124.119589 27.348582 
L 124.263745 27.263633 
L 124.305597 27.372901 
L 124.38 27.322005 
" style="fill:none;stroke:#000000;stroke-linecap:square;stroke-width:0.3;"/>
   </g>
   <g id="line2d_2">
    <path clip-path="url(#p5b7c57bd8b)" d="M 12.78 47.632359 
L 12.891605 47.610477 
L 12.933456 47.568801 
L 13.007859 47.599761 
L 13.142715 47.573644 
L 13.03111 47.624144 
L 13.147365 47.58946 
L 13.231069 47.536745 
L 13.26827 47.60358 
L 13.384525 47.482896 
L 13.407776 47.505467 
L 13.537982 47.581894 
L 13.798392 47.427393 
L 13.896047 47.335206 
L 13.835594 47.438883 
L 13.928598 47.35745 
L 14.254111 47.207533 
L 14.258762 47.232003 
L 14.337815 47.290052 
L 14.365716 47.214661 
L 14.472671 47.162365 
L 14.379667 47.247546 
L 14.519172 47.22714 
L 14.612176 47.204173 
L 14.542423 47.174201 
L 14.621477 47.181954 
L 14.733081 47.111713 
L 14.663328 47.201336 
L 14.742382 47.124242 
L 14.960941 47.035199 
L 14.979542 47.08783 
L 15.216702 47.303788 
L 15.235302 47.273228 
L 15.370158 47.156341 
L 15.463162 47.2035 
L 15.481763 47.158601 
L 15.64917 47.111629 
L 15.65382 47.123177 
L 15.65847 47.137693 
L 15.700322 47.05601 
L 15.746824 47.053832 
L 15.89563 47.007083 
L 15.90493 47.018019 
L 15.918881 46.976092 
L 15.970033 46.94106 
L 16.076987 46.868935 
L 16.100238 46.883592 
L 16.281596 46.772529 
L 16.686163 46.652022 
L 16.695463 46.671804 
L 16.793117 46.61706 
L 16.811718 46.584611 
L 16.84892 46.698528 
L 16.895421 46.738593 
L 16.946574 46.669185 
L 16.951224 46.673328 
L 16.988425 46.613341 
L 17.058178 46.683737 
L 17.10933 46.698947 
L 17.146532 46.620769 
L 17.155832 46.625314 
L 17.188384 46.601565 
L 17.206984 46.662853 
L 17.253486 46.668733 
L 17.262787 46.699739 
L 17.290688 46.602315 
L 17.34649 46.613004 
L 17.504597 46.455373 
L 17.518547 46.480712 
L 17.5883 46.377886 
L 17.597601 46.386839 
L 18.006818 46.343188 
L 18.127723 46.252875 
L 18.132373 46.267104 
L 18.248628 46.312662 
L 18.253278 46.296881 
L 18.323031 46.279935 
L 18.29978 46.323035 
L 18.364883 46.302935 
L 18.583442 46.013306 
L 18.392784 46.332328 
L 18.597392 46.077506 
L 18.681096 46.162144 
L 18.718297 46.107421 
L 19.118214 45.943625 
L 19.132165 45.974229 
L 19.211218 45.982887 
L 19.178667 45.936802 
L 19.234469 45.931335 
L 19.25307 45.952457 
L 19.350724 45.936574 
L 19.355374 45.949849 
L 19.401876 45.872559 
L 19.448378 45.891506 
L 19.592534 45.77526 
L 19.601834 45.799408 
L 19.699488 45.719955 
L 19.75064 45.822982 
L 19.922698 45.90751 
L 19.992451 45.832028 
L 20.052903 45.877879 
L 20.127306 45.892212 
L 20.159857 45.815955 
L 20.345865 45.65447 
L 20.569075 45.627642 
L 20.573725 45.638426 
L 20.680679 45.716465 
L 20.69463 45.672765 
L 20.741132 45.600997 
L 20.810885 45.643815 
L 20.834136 45.642813 
L 20.857387 45.566453 
L 20.894588 45.582303 
L 21.094546 45.424492 
L 21.099197 45.432239 
L 21.257303 45.502655 
L 21.261953 45.489561 
L 21.392159 45.379664 
L 21.396809 45.402425 
L 21.443311 45.324139 
L 21.508414 45.389029 
L 21.815326 45.161074 
L 21.857178 45.242146 
L 21.931581 45.187817 
L 22.029235 45.084625 
L 22.061787 45.117013 
L 22.108289 45.13663 
L 22.071087 45.100575 
L 22.14549 45.045889 
L 22.275696 44.950357 
L 22.280346 44.953573 
L 22.359399 45.003789 
L 22.396601 44.972792 
L 22.475654 44.969416 
L 22.438452 44.895596 
L 22.484954 44.917014 
L 22.62911 44.77256 
L 22.801168 44.684325 
L 22.936023 44.600449 
L 22.940673 44.60716 
L 23.033677 44.565294 
L 22.977875 44.550696 
L 23.038327 44.552935 
L 23.215035 44.357735 
L 23.219685 44.36687 
L 23.647503 43.815464 
L 23.903263 42.744237 
L 23.940465 40.110192 
L 23.959066 30.773577 
L 24.042769 43.247073 
L 24.07067 45.419198 
L 24.159024 44.587579 
L 24.252028 43.540121 
L 24.321781 42.018828 
L 24.345032 31.698015 
L 24.428735 41.45302 
L 24.456637 45.850264 
L 24.54499 44.888663 
L 24.703097 41.824607 
L 24.721698 31.949646 
L 24.810051 41.559164 
L 24.833302 45.969649 
L 24.926306 44.952012 
L 25.079762 42.235244 
L 25.098363 34.129912 
L 25.103013 32.067626 
L 25.191367 41.247114 
L 25.219268 46.100611 
L 25.312272 45.051854 
L 25.479679 41.583179 
L 25.49828 31.951094 
L 25.586634 42.08403 
L 25.614535 46.243968 
L 25.702888 45.2892 
L 25.888896 41.774684 
L 25.907497 31.793362 
L 25.995851 41.304311 
L 26.023752 46.434603 
L 26.116756 45.527226 
L 26.279512 43.343847 
L 26.335315 41.285885 
L 26.349265 31.69886 
L 26.442269 42.285139 
L 26.47017 46.590582 
L 26.558524 45.839573 
L 26.818935 41.646727 
L 26.837536 31.541065 
L 26.925889 41.612488 
L 26.953791 46.720232 
L 27.042144 46.050921 
L 27.339757 42.641203 
L 27.363008 40.155777 
L 27.376958 31.463711 
L 27.465312 42.510779 
L 27.493213 46.812789 
L 27.581567 46.216248 
L 27.944282 42.280363 
L 27.962883 35.355401 
L 27.972183 31.410741 
L 28.060537 43.528865 
L 28.088438 46.852642 
L 28.176792 46.305798 
L 28.567408 43.105291 
L 28.62321 41.7801 
L 28.646461 31.47163 
L 28.725514 41.829283 
L 28.758066 46.84379 
L 28.846419 46.283975 
L 28.976625 45.337221 
L 29.371891 41.214392 
L 29.390492 31.525638 
L 29.469545 43.029662 
L 29.497447 46.747302 
L 29.5858 46.257697 
L 29.981067 43.592573 
L 29.985717 43.599363 
L 30.022918 43.411421 
L 30.157774 42.284755 
L 30.176375 40.357686 
L 30.194976 31.651872 
L 30.278679 45.825821 
L 30.30193 46.689175 
L 30.390284 46.125046 
L 31.032011 41.165436 
L 31.055261 31.800476 
L 31.129665 44.521561 
L 31.157566 46.619173 
L 31.245919 46.106432 
L 31.664437 43.653112 
L 31.72954 43.420022 
L 31.920198 42.145236 
L 31.938798 39.716427 
L 31.957399 31.84604 
L 32.036452 45.691279 
L 32.064354 46.5739 
L 32.148057 46.06603 
L 32.715381 43.27553 
L 32.724681 43.278585 
L 33.054845 42.213106 
L 33.082746 40.097529 
L 33.101347 32.458031 
L 33.1804 45.642568 
L 33.203651 46.281206 
L 33.292005 45.700368 
L 34.054636 42.782384 
L 34.13369 42.530417 
L 34.180192 41.417174 
L 34.208093 32.414244 
L 34.273196 43.510623 
L 34.319697 46.280892 
L 34.394101 45.791234 
L 34.501055 45.084497 
L 34.714964 43.999797 
L 34.719614 44.003641 
L 34.914922 43.695279 
L 34.728915 44.012637 
L 34.919572 43.70911 
L 34.928873 43.725817 
L 34.942823 43.661356 
L 35.017227 43.659957 
L 35.128831 43.573859 
L 35.142782 43.588684 
L 35.296238 43.858446 
L 35.300888 43.847655 
L 35.477596 44.038483 
L 35.524098 44.122436 
L 35.496197 44.093414 
L 35.528748 44.136034 
L 35.682204 44.347315 
L 35.779858 44.380158 
L 35.793809 44.419293 
L 36.123973 45.045926 
L 36.133273 45.019295 
L 36.198376 45.139155 
L 36.216977 45.13491 
L 36.30068 45.216764 
L 36.463437 45.561937 
L 36.468087 45.557668 
L 36.681996 45.865433 
L 36.686646 45.860202 
L 36.728498 45.959485 
L 36.905205 46.228724 
L 36.942407 46.24007 
L 36.974958 46.310789 
L 36.984259 46.305402 
L 37.147015 46.610234 
L 37.472529 46.936923 
L 37.477179 46.92286 
L 37.537632 47.079533 
L 37.584134 47.157081 
L 37.658537 47.124611 
L 37.686438 47.123885 
L 37.72829 47.206428 
L 37.895696 47.369754 
L 37.918947 47.335216 
L 38.025902 47.308713 
L 37.932898 47.359766 
L 38.058453 47.363095 
L 38.170058 47.537154 
L 38.072404 47.348802 
L 38.21191 47.511947 
L 38.22121 47.465965 
L 38.300263 47.603579 
L 38.314214 47.571195 
L 38.44907 47.567517 
L 38.45372 47.549354 
L 38.574625 47.453683 
L 38.588575 47.468216 
L 38.718781 47.534604 
L 38.742032 47.51681 
L 38.746682 47.511493 
L 38.755982 47.544685 
L 38.807134 47.578474 
L 38.92804 47.647475 
L 39.016393 47.663902 
L 38.94664 47.620433 
L 39.034994 47.608078 
L 39.565116 47.407378 
L 39.681371 47.298335 
L 39.597667 47.417273 
L 39.704622 47.304082 
L 39.765074 47.354465 
L 39.820877 47.302109 
L 39.848778 47.2832 
L 39.89993 47.350664 
L 39.913881 47.341561 
L 40.025485 47.377289 
L 40.030135 47.361018 
L 40.127789 47.262555 
L 40.14174 47.202749 
L 40.183592 47.301151 
L 40.244044 47.235591 
L 40.457953 47.110243 
L 40.471904 47.124186 
L 40.602109 47.231261 
L 40.746265 47.16319 
L 40.87182 47.304653 
L 40.890421 47.268867 
L 40.918322 47.29749 
L 41.029927 47.198396 
L 41.313589 47.159724 
L 41.439144 47.268869 
L 41.453095 47.29319 
L 41.485646 47.210929 
L 41.513547 47.200732 
L 41.57865 47.132799 
L 41.625152 47.199325 
L 41.82046 47.213313 
L 41.82511 47.23638 
L 41.890213 47.331654 
L 41.946015 47.30676 
L 41.983217 47.326409 
L 42.029719 47.235012 
L 42.05762 47.19905 
L 42.127373 47.272835 
L 42.192476 47.330517 
L 42.136673 47.261509 
L 42.248278 47.294193 
L 42.313381 47.193109 
L 42.434286 47.126073 
L 42.741198 47.142033 
L 42.834202 47.187448 
L 42.852803 47.147682 
L 42.913256 47.084958 
L 42.959757 47.165714 
L 43.02021 47.256383 
L 43.089963 47.221397 
L 43.187617 47.128543 
L 43.26202 47.083976 
L 43.308522 47.137197 
L 43.313172 47.15955 
L 43.355024 47.069473 
L 43.406176 47.083857 
L 43.485229 47.09942 
L 43.443378 47.137379 
L 43.50383 47.144088 
L 43.568933 47.127537 
L 43.601484 47.094807 
L 43.685188 47.05167 
L 43.713089 47.098913 
L 43.847944 47.206667 
L 43.722389 47.095889 
L 43.852595 47.199145 
L 43.9735 47.138371 
L 43.97815 47.151243 
L 44.052553 47.211091 
L 44.094405 47.177891 
L 44.21066 47.114003 
L 44.22926 47.124062 
L 44.280413 47.225902 
L 44.345515 47.154794 
L 44.410618 47.127003 
L 44.447819 47.206112 
L 44.903538 47.146629 
L 45.033744 47.302208 
L 45.052345 47.267981 
L 45.233702 47.185745 
L 45.243003 47.193739 
L 45.326706 47.204833 
L 45.336007 47.246388 
L 45.345307 47.271035 
L 45.41506 47.189288 
L 45.442961 47.237909 
L 45.452261 47.202023 
L 45.540615 47.304996 
L 45.615018 47.189752 
L 45.67082 47.088505 
L 45.731273 47.175157 
L 45.852178 47.193782 
L 45.861478 47.213099 
L 45.875429 47.281365 
L 45.973083 47.248535 
L 46.089338 47.233558 
L 46.093988 47.240856 
L 46.159091 47.269993 
L 46.13119 47.20551 
L 46.196292 47.203495 
L 46.219543 47.191057 
L 46.252095 47.236873 
L 46.284646 47.24148 
L 46.345099 47.285254 
L 46.3916 47.21257 
L 46.521806 47.248506 
L 46.549707 47.297295 
L 46.633411 47.268474 
L 46.847319 47.489165 
L 46.85197 47.486171 
L 46.977525 47.363825 
L 46.991475 47.391621 
L 47.210035 47.796446 
L 47.223985 47.784101 
L 47.307689 47.771497 
L 47.256537 47.814731 
L 47.33559 47.801527 
L 47.475096 47.845655 
L 47.502997 47.775929 
L 47.558799 47.878066 
L 47.5867 47.808802 
L 47.670404 47.853416 
L 47.619252 47.758811 
L 47.716906 47.793984 
L 47.865712 47.763531 
L 47.879662 47.727564 
L 47.926164 47.797658 
L 47.972666 47.776489 
L 48.093571 47.796389 
L 48.098222 47.793978 
L 48.214476 47.701224 
L 48.112172 47.818291 
L 48.251678 47.796406 
L 48.284229 47.85246 
L 48.340032 47.772469 
L 48.358632 47.769906 
L 48.377233 47.76287 
L 48.484188 47.818185 
L 48.623693 47.771628 
L 48.739948 47.817197 
L 48.702747 47.745034 
L 48.744599 47.814521 
L 48.874804 47.820659 
L 48.879454 47.805557 
L 49.005009 47.741038 
L 49.00966 47.742399 
L 49.098013 47.735135 
L 49.042211 47.784331 
L 49.116614 47.757483 
L 49.237519 47.80557 
L 49.330523 47.744636 
L 49.25147 47.819915 
L 49.363074 47.78506 
L 49.576983 47.763203 
L 49.702538 47.76455 
L 49.707189 47.770399 
L 49.776942 47.699653 
L 49.837394 47.826312 
L 49.953649 47.750313 
L 49.958299 47.777001 
L 50.22801 47.791679 
L 50.232661 47.817663 
L 50.325664 47.709711 
L 50.46052 47.814367 
L 50.539573 47.761395 
L 50.544224 47.735301 
L 50.665129 47.778585 
L 50.669779 47.808796 
L 50.730231 47.852358 
L 50.683729 47.797034 
L 50.776733 47.790601 
L 50.911589 47.715218 
L 50.799984 47.800104 
L 50.916239 47.734365 
L 51.032494 47.819987 
L 50.94879 47.693124 
L 51.060395 47.784938 
L 51.144099 47.721096 
L 51.078996 47.793512 
L 51.167349 47.774438 
L 51.241753 47.840716 
L 51.283604 47.831698 
L 51.432411 47.726518 
L 51.451011 47.757563 
L 51.595167 47.802145 
L 51.609118 47.784667 
L 51.66027 47.778846 
L 51.66957 47.826127 
L 51.706772 47.830971 
L 51.841628 47.769589 
L 51.864879 47.755103 
L 51.89278 47.817966 
L 51.934631 47.803851 
L 51.957882 47.832195 
L 52.022985 47.72852 
L 52.032286 47.73193 
L 52.13924 47.78952 
L 52.074137 47.69346 
L 52.171791 47.761159 
L 52.395001 47.724228 
L 52.492655 47.794013 
L 52.404301 47.71554 
L 52.529856 47.745687 
L 52.632161 47.719996 
L 52.562408 47.779552 
L 52.641461 47.736719 
L 53.450595 47.756467 
L 53.501747 47.725333 
L 53.538948 47.800658 
L 53.548249 47.845608 
L 53.636602 47.718539 
L 53.641253 47.738534 
L 53.701705 47.786872 
L 53.659853 47.710071 
L 53.766808 47.755292 
L 53.878412 47.745566 
L 53.892363 47.788292 
L 53.901663 47.819868 
L 53.924914 47.729355 
L 53.976067 47.733458 
L 54.045819 47.66781 
L 54.087671 47.723546 
L 54.250428 47.794318 
L 54.264379 47.791274 
L 54.371333 47.837563 
L 54.524789 47.739967 
L 54.627094 47.723146 
L 54.53409 47.753227 
L 54.641044 47.728777 
L 54.822402 47.795833 
L 54.827052 47.786744 
L 54.915406 47.696307 
L 54.971208 47.781081 
L 55.096763 47.815234 
L 55.110714 47.799789 
L 55.240919 47.701857 
L 55.25022 47.717677 
L 55.468779 47.699683 
L 55.473429 47.679378 
L 55.552482 47.825086 
L 55.654786 47.702487 
L 55.701288 47.727511 
L 55.724539 47.771129 
L 55.794292 47.673778 
L 55.803593 47.698924 
L 55.859395 47.633965 
L 55.905897 47.711046 
L 55.924498 47.754343 
L 55.994251 47.643678 
L 56.008201 47.667221 
L 56.184909 47.767357 
L 56.277912 47.767225 
L 56.21281 47.739614 
L 56.287213 47.737746 
L 56.291863 47.727123 
L 56.310464 47.775904 
L 56.389517 47.773239 
L 56.728981 47.819263 
L 56.821985 47.748226 
L 56.845236 47.803212 
L 57.212601 47.809452 
L 57.217252 47.83211 
L 57.263753 47.747355 
L 57.314906 47.763055 
L 57.342807 47.678759 
L 57.43116 47.734636 
L 57.459062 47.768036 
L 57.514864 47.68596 
L 57.538115 47.708724 
L 57.621818 47.725132 
L 57.631119 47.758145 
L 57.66367 47.744878 
L 57.747374 47.784905 
L 57.877579 47.771711 
L 57.882229 47.7632 
L 57.979883 47.758038 
L 57.90083 47.787591 
L 57.993834 47.770562 
L 58.007784 47.789174 
L 58.068237 47.686153 
L 58.082188 47.697147 
L 58.114739 47.757296 
L 58.230994 47.701321 
L 58.286796 47.670017 
L 58.351899 47.738307 
L 58.421652 47.657425 
L 58.463503 47.711309 
L 58.565808 47.756422 
L 58.500705 47.669091 
L 58.575108 47.722044 
L 59.184284 47.584685 
L 59.477246 47.733535 
L 59.486546 47.703415 
L 59.635352 47.557117 
L 59.700455 47.676073 
L 59.765558 47.595809 
L 59.923664 47.461648 
L 59.942265 47.485714 
L 60.021318 47.440251 
L 60.06782 47.508891 
L 60.286379 47.554347 
L 60.435186 47.626982 
L 60.449136 47.616772 
L 60.556091 47.487087 
L 60.574691 47.505617 
L 60.658395 47.535821 
L 60.593292 47.484611 
L 60.690946 47.488268 
L 60.797901 47.356243 
L 60.821152 47.404259 
L 60.951357 47.295133 
L 61.076912 47.154757 
L 61.123414 47.249649 
L 61.193167 47.34316 
L 61.25827 47.263442 
L 61.365224 47.160092 
L 61.388475 47.180668 
L 61.49543 47.282839 
L 61.527981 47.240265 
L 61.690738 47.086798 
L 61.713989 47.104793 
L 61.820943 47.173983 
L 61.834894 47.152293 
L 61.876746 47.111367 
L 61.937198 47.195567 
L 62.909089 46.543982 
L 62.927689 46.58332 
L 62.992792 46.464521 
L 63.006743 46.481232 
L 63.155549 46.503344 
L 63.299705 46.416957 
L 63.1788 46.513163 
L 63.304355 46.421014 
L 63.388059 46.402821 
L 63.402009 46.481588 
L 63.574066 46.397507 
L 63.694971 46.345116 
L 63.704272 46.348972 
L 63.708922 46.368464 
L 63.787975 46.272059 
L 63.806576 46.310707 
L 63.89958 46.317778 
L 63.843778 46.351596 
L 63.90423 46.33349 
L 63.90888 46.355852 
L 63.946082 46.296838 
L 64.011185 46.313338 
L 64.14139 46.250003 
L 64.192542 46.264351 
L 64.225094 46.177749 
L 64.229744 46.176861 
L 64.285546 46.131476 
L 64.294846 46.207597 
L 64.341348 46.174084 
L 64.494805 46.170072 
L 64.508755 46.149516 
L 64.532006 46.236448 
L 64.573858 46.242403 
L 64.634311 46.294158 
L 64.685463 46.255426 
L 64.704064 46.266697 
L 64.885421 46.092505 
L 64.913322 46.094029 
L 64.936573 46.011144 
L 64.955174 46.02574 
L 65.10398 45.82398 
L 65.178383 45.77324 
L 65.215585 45.83167 
L 65.327189 45.719057 
L 65.35044 45.77065 
L 65.406243 45.770959 
L 65.438794 45.707189 
L 65.448095 45.72453 
L 65.555049 45.622992 
L 65.592251 45.679454 
L 65.666654 45.699002 
L 65.648053 45.654964 
L 65.694555 45.667339 
L 65.806159 45.617467 
L 65.717806 45.681139 
L 65.81081 45.620884 
L 65.927064 45.671753 
L 65.834061 45.605389 
L 65.941015 45.660125 
L 65.992167 45.639396 
L 66.029369 45.698176 
L 66.043319 45.684191 
L 66.182825 45.74649 
L 66.113072 45.64632 
L 66.187475 45.740393 
L 66.30373 45.574698 
L 66.336282 45.607015 
L 66.429285 45.696189 
L 66.466487 45.665651 
L 66.471137 45.674957 
L 66.526939 45.577382 
L 66.54089 45.579989 
L 66.661795 45.545364 
L 66.680396 45.563059 
L 66.689696 45.54388 
L 66.824552 45.582135 
L 66.968708 45.412679 
L 67.075662 45.408168 
L 67.098913 45.364937 
L 67.154716 45.23208 
L 67.215168 45.287779 
L 67.596484 45.149577 
L 67.666237 45.196382 
L 67.703438 45.159315 
L 67.722039 45.177183 
L 67.74994 45.11406 
L 67.810393 45.138046 
L 67.931298 45.172964 
L 67.833644 45.10901 
L 67.945249 45.155729 
L 68.089405 45.031196 
L 68.177758 45.084139 
L 68.201009 45.031189 
L 68.312614 44.874096 
L 68.242861 45.044408 
L 68.340515 44.881299 
L 68.410268 44.807281 
L 68.46607 44.894188 
L 68.582325 44.846645 
L 68.484671 44.905632 
L 68.600926 44.864947 
L 68.614876 44.886055 
L 68.69858 44.799446 
L 68.782283 44.80146 
L 68.726481 44.765459 
L 68.800884 44.760502 
L 68.94504 44.60537 
L 69.038044 44.555673 
L 69.042694 44.522734 
L 69.112447 44.451574 
L 69.163599 44.514127 
L 69.200801 44.454096 
L 69.205451 44.418484 
L 69.396109 44.151935 
L 69.433311 44.22313 
L 69.512364 44.179394 
L 69.703022 43.8555 
L 69.707672 43.866962 
L 69.768125 43.735132 
L 69.879729 43.483061 
L 70.033186 42.292475 
L 70.056437 36.505134 
L 70.070387 30.812501 
L 70.154091 43.437337 
L 70.181992 45.357368 
L 70.270345 44.508553 
L 70.409851 42.551591 
L 70.433102 38.996976 
L 70.442403 31.808419 
L 70.535406 44.025373 
L 70.554007 45.816398 
L 70.647011 44.802739 
L 70.800468 41.377391 
L 70.819068 32.019284 
L 70.902772 41.216658 
L 70.930673 45.967215 
L 71.023677 44.868945 
L 71.167833 42.327396 
L 71.186434 35.773353 
L 71.195734 32.020695 
L 71.284088 42.261697 
L 71.307339 46.102692 
L 71.400343 45.055935 
L 71.563099 41.914082 
L 71.5817 31.946388 
L 71.670054 41.040506 
L 71.697955 46.255479 
L 71.790959 45.293742 
L 71.976967 41.94801 
L 71.995567 31.818625 
L 72.083921 40.752909 
L 72.111822 46.448551 
L 72.209476 45.548134 
L 72.428035 41.947237 
L 72.446636 31.697085 
L 72.53499 40.827178 
L 72.567541 46.600179 
L 72.660545 45.799233 
L 72.920956 41.823552 
L 72.939557 31.533303 
L 73.02791 41.285938 
L 73.060462 46.711201 
L 73.148815 46.037836 
L 73.469679 41.269104 
L 73.48828 31.527922 
L 73.571983 41.401311 
L 73.599884 46.793322 
L 73.692888 46.177141 
L 73.967249 43.662788 
L 74.074204 41.72029 
L 74.092805 31.464865 
L 74.176508 41.345703 
L 74.21371 46.838628 
L 74.297413 46.27772 
L 74.618277 43.720597 
L 74.757782 41.434367 
L 74.776383 31.461405 
L 74.860087 43.337426 
L 74.887988 46.811163 
L 74.976342 46.276726 
L 75.497163 41.869104 
L 75.520414 31.517124 
L 75.599467 42.588678 
L 75.632019 46.778132 
L 75.715722 46.264016 
L 76.320248 42.036387 
L 76.338848 36.6282 
L 76.352799 31.81717 
L 76.436502 46.063703 
L 76.455103 46.632636 
L 76.543457 46.106765 
L 76.682963 45.117224 
L 77.180533 41.497166 
L 77.203784 31.807932 
L 77.273537 42.274445 
L 77.315389 46.580782 
L 77.394442 46.092973 
L 77.82691 43.635866 
L 77.83156 43.647689 
L 77.868762 43.477811 
L 78.096622 41.76202 
L 78.124523 31.915533 
L 78.189625 41.6121 
L 78.231477 46.526081 
L 78.31053 46.062598 
L 78.863903 43.296841 
L 78.873204 43.309241 
L 78.910405 43.202773 
L 79.147565 42.333683 
L 79.175466 40.859753 
L 79.198717 32.258748 
L 79.26847 44.558726 
L 79.301022 46.376579 
L 79.384725 45.837001 
L 79.798592 43.646936 
L 79.803243 43.657179 
L 79.840444 43.550015 
L 80.054353 42.978925 
L 80.059003 42.983992 
L 80.128756 42.745032 
L 80.207809 41.404335 
L 80.235711 32.146406 
L 80.300813 43.39373 
L 80.338015 46.450185 
L 80.421718 45.945045 
L 80.723981 44.186523 
L 80.989042 43.451651 
L 80.993692 43.468634 
L 80.998342 43.477351 
L 81.068095 43.390251 
L 81.072746 43.396155 
L 81.207601 43.33269 
L 81.100647 43.411189 
L 81.212251 43.338469 
L 81.295955 43.406502 
L 81.333156 43.34586 
L 81.463362 43.482672 
L 81.612168 43.721918 
L 81.779575 43.924627 
L 81.788875 43.898021 
L 81.793526 43.87898 
L 81.858628 44.051181 
L 81.867929 44.031307 
L 82.030685 44.21386 
L 82.035336 44.199859 
L 82.081838 44.309712 
L 82.114389 44.282917 
L 82.272496 44.532535 
L 82.286446 44.458143 
L 82.360849 44.734767 
L 82.570108 45.280423 
L 82.760766 45.603827 
L 82.914222 45.858613 
L 82.918872 45.849952 
L 82.965374 45.994165 
L 82.970025 45.988259 
L 83.365291 46.718214 
L 83.369941 46.710342 
L 83.435044 46.750813 
L 83.448995 46.780011 
L 83.616402 47.156749 
L 83.667554 47.129501 
L 83.672204 47.113408 
L 83.746607 47.227954 
L 83.751257 47.222609 
L 84.044219 47.617626 
L 84.04887 47.610385 
L 84.169775 47.574167 
L 84.262778 47.536541 
L 84.225577 47.603742 
L 84.281379 47.571577 
L 84.444136 47.775143 
L 84.467387 47.72456 
L 84.574341 47.79764 
L 84.690596 47.775203 
L 85.197467 47.790083 
L 85.341623 47.671323 
L 85.350924 47.678535 
L 85.374175 47.759704 
L 85.471829 47.725606 
L 85.49043 47.751913 
L 85.532281 47.653513 
L 85.541582 47.648098 
L 85.606684 47.580372 
L 85.657837 47.655998 
L 85.671787 47.676158 
L 85.722939 47.543217 
L 85.73224 47.553513 
L 86.22981 47.610592 
L 86.322814 47.548061 
L 86.341415 47.59706 
L 86.46697 47.704578 
L 86.485571 47.661811 
L 86.592526 47.565605 
L 86.611126 47.61575 
L 86.648328 47.652928 
L 86.70413 47.573028 
L 86.838986 47.351686 
L 86.871537 47.373074 
L 86.95059 47.451222 
L 86.885488 47.358786 
L 86.992442 47.407019 
L 87.113347 47.342644 
L 87.262153 47.167979 
L 87.350507 47.302903 
L 87.42956 47.233442 
L 87.434211 47.180099 
L 87.531865 47.24247 
L 87.541165 47.23101 
L 87.564416 47.242551 
L 87.596967 47.115112 
L 87.610918 47.121985 
L 87.694621 47.116009 
L 87.66207 47.164213 
L 87.717872 47.141838 
L 87.820177 47.212616 
L 87.852728 47.145259 
L 88.187542 46.994289 
L 87.866679 47.170843 
L 88.206143 47.027503 
L 88.503755 47.127306 
L 88.61071 47.127851 
L 88.527006 47.099236 
L 88.61536 47.119021 
L 88.62466 47.097884 
L 88.657212 47.16624 
L 88.708364 47.174486 
L 88.801368 47.184265 
L 88.740915 47.112768 
L 88.815318 47.158268 
L 88.926923 47.113355 
L 88.954824 47.137928 
L 89.057128 47.273227 
L 89.085029 47.215562 
L 89.215235 47.144141 
L 89.112931 47.248416 
L 89.233836 47.191081 
L 89.294288 47.261764 
L 89.33149 47.157812 
L 89.33614 47.16204 
L 89.405893 47.053531 
L 89.461695 47.129395 
L 89.638402 47.173336 
L 89.643053 47.1928 
L 89.661653 47.243669 
L 89.745357 47.148234 
L 89.750007 47.174204 
L 89.931365 46.99581 
L 90.06157 47.037378 
L 90.06622 47.017857 
L 90.126673 46.978722 
L 90.149924 47.073342 
L 90.224327 47.118956 
L 90.261528 47.094723 
L 90.368483 47.059438 
L 90.391734 47.06941 
L 90.447536 47.015393 
L 90.461487 46.987575 
L 90.475437 47.028648 
L 90.563791 47.033266 
L 90.573091 47.017596 
L 90.689346 47.065779 
L 90.856753 46.969919 
L 90.870704 47.000922 
L 90.907905 46.936499 
L 90.959057 46.949908 
L 90.977658 46.942272 
L 91.038111 47.011937 
L 91.056712 47.001764 
L 91.200868 47.165204 
L 91.205518 47.149712 
L 91.358974 47.019892 
L 91.368275 47.045805 
L 91.531031 47.200996 
L 91.624035 47.124254 
L 91.540332 47.21075 
L 91.656587 47.174878 
L 91.870495 47.281839 
L 91.875146 47.271805 
L 91.96815 47.225192 
L 91.996051 47.251391 
L 92.149507 47.248652 
L 92.163458 47.21411 
L 92.168108 47.197415 
L 92.21461 47.276934 
L 92.270412 47.243253 
L 92.340165 47.190002 
L 92.372716 47.22007 
L 92.512222 47.147462 
L 92.535473 47.127774 
L 92.716831 47.246006 
L 92.828435 47.163151 
L 92.735431 47.265576 
L 92.842386 47.20099 
L 92.977242 47.250157 
L 93.102797 47.206687 
L 93.121398 47.241495 
L 93.279504 47.397854 
L 93.353907 47.288168 
L 93.372508 47.222045 
L 93.460862 47.305564 
L 93.544565 47.33703 
L 93.488763 47.292215 
L 93.572466 47.313458 
L 93.618968 47.261484 
L 93.688721 47.319774 
L 93.786375 47.300986 
L 93.744524 47.250497 
L 93.795676 47.283742 
L 93.832877 47.269018 
L 93.818927 47.307151 
L 93.88868 47.333233 
L 93.995634 47.391055 
L 94.009585 47.348333 
L 94.116539 47.332638 
L 94.046786 47.387441 
L 94.13049 47.355944 
L 94.172341 47.255409 
L 94.232794 47.320571 
L 94.339748 47.290738 
L 94.349049 47.322799 
L 94.465304 47.385711 
L 94.474604 47.363513 
L 95.158182 47.826069 
L 95.246536 47.742899 
L 95.181433 47.834948 
L 95.288388 47.775551 
L 95.404643 47.821821 
L 95.33024 47.735694 
L 95.418593 47.813668 
L 95.469745 47.786131 
L 95.437194 47.821877 
L 95.530198 47.806903 
L 95.81386 47.821306 
L 95.846411 47.768808 
L 95.930115 47.820377 
L 96.218427 47.765394 
L 96.223077 47.778539 
L 96.29283 47.814455 
L 96.237027 47.761613 
L 96.334681 47.772232 
L 96.488138 47.858223 
L 96.348632 47.759113 
L 96.502088 47.831614 
L 96.604393 47.754134 
L 96.627644 47.79534 
L 96.650895 47.816235 
L 96.715997 47.698932 
L 96.720648 47.716194 
L 96.77645 47.719215 
L 96.804351 47.784869 
L 96.809001 47.783114 
L 96.925256 47.780801 
L 96.846203 47.71021 
L 96.929906 47.757544 
L 97.02291 47.719394 
L 97.050811 47.7421 
L 97.157766 47.820176 
L 97.181017 47.765582 
L 97.25077 47.713475 
L 97.301922 47.757096 
L 97.353074 47.776448 
L 97.385625 47.713602 
L 97.408876 47.742223 
L 97.808793 47.721956 
L 97.822743 47.71679 
L 97.845994 47.791516 
L 97.892496 47.788632 
L 97.962249 47.837186 
L 97.925048 47.741758 
L 97.994801 47.793547 
L 98.055253 47.72079 
L 98.106405 47.772806 
L 98.23196 47.74558 
L 98.348215 47.707319 
L 98.352866 47.720668 
L 98.404018 47.740528 
L 98.436569 47.680429 
L 98.441219 47.650485 
L 98.529573 47.788138 
L 98.683029 47.792547 
L 98.687679 47.76841 
L 98.813235 47.731422 
L 98.827185 47.750794 
L 98.873687 47.810025 
L 98.901588 47.727496 
L 98.92949 47.732785 
L 98.957391 47.768031 
L 99.050395 47.718199 
L 99.110847 47.75911 
L 99.059695 47.743375 
L 99.120148 47.791264 
L 99.124798 47.816694 
L 99.194551 47.722582 
L 99.217802 47.734162 
L 99.287554 47.724547 
L 99.245703 47.766896 
L 99.324756 47.752986 
L 99.464262 47.813132 
L 99.482863 47.780552 
L 99.492163 47.743682 
L 99.520064 47.81447 
L 99.589817 47.804624 
L 100.189692 47.760505 
L 100.198992 47.738141 
L 100.264095 47.841491 
L 100.278046 47.839921 
L 100.296647 47.871026 
L 100.347799 47.759418 
L 100.408251 47.79123 
L 100.468704 47.73283 
L 100.598909 47.768463 
L 100.60821 47.735378 
L 100.715164 47.740687 
L 100.687263 47.787815 
L 100.719814 47.747947 
L 100.826769 47.818357 
L 100.766316 47.735463 
L 100.836069 47.779816 
L 100.966274 47.764811 
L 100.975575 47.748966 
L 101.022077 47.783303 
L 101.082529 47.766915 
L 101.170883 47.814368 
L 101.142982 47.738995 
L 101.203434 47.790823 
L 101.259237 47.749985 
L 101.212735 47.805579 
L 101.315039 47.784894 
L 101.361541 47.797945 
L 101.384792 47.721065 
L 101.421993 47.766184 
L 101.510347 47.721331 
L 101.528948 47.779376 
L 101.58475 47.806559 
L 101.631252 47.739462 
L 101.635902 47.747606 
L 101.756807 47.777356 
L 101.663803 47.710238 
L 101.780058 47.727407 
L 101.928865 47.698506 
L 101.803309 47.779842 
L 101.938165 47.726221 
L 101.947465 47.712977 
L 102.119522 47.76313 
L 102.198576 47.649575 
L 102.142773 47.769938 
L 102.240428 47.718878 
L 102.361333 47.817439 
L 102.403184 47.790346 
L 102.482238 47.741212 
L 102.505489 47.822121 
L 102.510139 47.798089 
L 102.658945 47.819668 
L 102.677546 47.77155 
L 102.691496 47.795955 
L 102.7845 47.796829 
L 102.900755 47.7878 
L 102.803101 47.747503 
L 102.910055 47.76414 
L 103.01701 47.751567 
L 102.984459 47.806462 
L 103.02631 47.76484 
L 103.040261 47.810232 
L 103.133265 47.751638 
L 103.165816 47.707094 
L 103.207668 47.782645 
L 103.24952 47.739039 
L 103.356474 47.766579 
L 103.291371 47.724685 
L 103.361124 47.76498 
L 103.477379 47.700807 
L 103.482029 47.734293 
L 103.565733 47.802691 
L 103.626185 47.734389 
L 103.74244 47.693536 
L 103.649436 47.761241 
L 103.761041 47.715673 
L 103.877296 47.78973 
L 103.784292 47.686314 
L 103.886596 47.773611 
L 104.049353 47.76473 
L 104.054003 47.772504 
L 104.091205 47.709711 
L 104.156307 47.737909 
L 104.22606 47.69336 
L 104.263262 47.754542 
L 104.416718 47.816255 
L 104.286513 47.721268 
L 104.426019 47.784864 
L 104.551574 47.752736 
L 104.565524 47.761529 
L 104.802684 47.751386 
L 104.904989 47.800488 
L 104.830585 47.738289 
L 104.918939 47.760529 
L 105.039844 47.759026 
L 105.077046 47.796137 
L 105.109597 47.719298 
L 105.151449 47.745745 
L 105.704822 47.634894 
L 105.709472 47.61318 
L 105.746674 47.752895 
L 105.807126 47.66365 
L 105.937332 47.749236 
L 106.072187 47.704721 
L 106.076837 47.708827 
L 106.14659 47.732959 
L 106.183792 47.678473 
L 107.476546 47.496289 
L 107.518397 47.532009 
L 107.597451 47.438796 
L 107.695105 47.487608 
L 107.709055 47.462435 
L 107.741607 47.355057 
L 107.834611 47.384638 
L 107.936915 47.408302 
L 107.876462 47.350803 
L 107.950865 47.396225 
L 108.06712 47.303501 
L 108.090371 47.322134 
L 108.285679 47.289451 
L 108.387984 47.16756 
L 108.425185 47.205196 
L 108.499588 47.277311 
L 108.439136 47.199066 
L 108.55074 47.224354 
L 108.7786 47.195968 
L 108.78325 47.170303 
L 108.941357 47.202424 
L 108.946007 47.215436 
L 109.02506 47.263547 
L 109.057612 47.222895 
L 109.50868 47.034008 
L 109.578433 47.110356 
L 109.629585 47.054943 
L 109.815593 46.819587 
L 109.838844 46.84211 
L 109.917897 46.926052 
L 109.950449 46.856526 
L 110.099255 46.769767 
L 110.857237 46.602561 
L 110.899088 46.542401 
L 110.968841 46.594739 
L 111.089746 46.510889 
L 110.992092 46.606781 
L 111.103697 46.529834 
L 111.452461 46.572871 
L 111.647769 46.44939 
L 111.754724 46.465515 
L 111.759374 46.446344 
L 111.880279 46.363994 
L 111.88958 46.382446 
L 112.015135 46.371675 
L 111.940732 46.428167 
L 112.019785 46.378609 
L 112.024435 46.385367 
L 112.089538 46.302986 
L 112.103488 46.329905 
L 112.173241 46.245204 
L 112.219743 46.298935 
L 112.247644 46.346921 
L 112.308097 46.231112 
L 112.312747 46.236502 
L 112.424352 46.193038 
L 112.433652 46.213839 
L 112.494105 46.235888 
L 112.545257 46.21875 
L 112.903322 45.901062 
L 112.907972 45.916481 
L 112.945174 45.938426 
L 112.987025 45.855281 
L 113.000976 45.868804 
L 113.052128 45.839638 
L 113.09863 45.903014 
L 113.10328 45.903789 
L 113.512497 45.813732 
L 113.665954 45.621355 
L 113.679904 45.647537 
L 113.684554 45.670227 
L 113.772908 45.554502 
L 114.53554 45.204026 
L 114.647144 45.231318 
L 114.554141 45.18974 
L 114.665745 45.214058 
L 115.200518 44.928884 
L 115.205168 44.948133 
L 115.316772 44.942047 
L 115.25167 44.876978 
L 115.321423 44.938944 
L 115.335373 44.95368 
L 115.465579 44.862017 
L 115.581833 45.005347 
L 115.591134 44.972263 
L 115.716689 45.008183 
L 115.600434 44.990571 
L 115.721339 45.015783 
L 115.837594 45.060221 
L 115.870145 45.028659 
L 115.9864 44.846881 
L 116.032902 44.872439 
L 116.22356 44.956002 
L 116.265412 44.857534 
L 116.45607 44.688593 
L 116.46072 44.698957 
L 116.46537 44.708593 
L 116.511872 44.616125 
L 116.530473 44.611097 
L 116.656028 44.542687 
L 116.665329 44.555493 
L 116.674629 44.512771 
L 116.725781 44.467347 
L 117.42331 42.93159 
L 117.474462 41.06535 
L 117.497713 30.8233 
L 117.576767 42.34881 
L 117.604668 45.348602 
L 117.693021 44.562147 
L 117.855778 41.02241 
L 117.869729 31.781127 
L 117.958082 42.440546 
L 117.981333 45.795235 
L 118.074337 44.752457 
L 118.204543 42.666477 
L 118.227794 40.9502 
L 118.241744 31.993995 
L 118.330098 41.88659 
L 118.353349 45.926336 
L 118.446353 44.856595 
L 118.599809 41.100449 
L 118.61376 32.057138 
L 118.702113 41.565436 
L 118.725364 46.056219 
L 118.818368 45.005291 
L 118.981125 41.712597 
L 118.999726 31.969355 
L 119.08808 41.784983 
L 119.11133 46.207179 
L 119.204334 45.250248 
L 119.385692 41.754699 
L 119.404293 31.821733 
L 119.492646 41.375364 
L 119.520548 46.401492 
L 119.613551 45.48826 
L 119.82281 41.71549 
L 119.841411 31.676997 
L 119.929765 41.296227 
L 119.957666 46.573666 
L 120.05067 45.790603 
L 120.30178 42.009634 
L 120.325031 31.611582 
L 120.408735 40.667953 
L 120.445936 46.69706 
L 120.53429 45.977989 
L 120.841203 41.532564 
L 120.859803 31.492949 
L 120.948157 42.627702 
L 120.980708 46.778921 
L 121.064412 46.157406 
L 121.427127 42.157674 
L 121.445728 33.196308 
L 121.450378 31.478168 
L 121.534081 40.963011 
L 121.566633 46.846056 
L 121.659637 46.223311 
L 122.073504 42.642284 
L 122.101405 40.454774 
L 122.115356 31.448241 
L 122.203709 44.606921 
L 122.22696 46.811604 
L 122.319964 46.256101 
L 122.478071 45.060293 
L 122.840786 41.662188 
L 122.864037 31.603018 
L 122.93844 41.980056 
L 122.975641 46.704435 
L 123.059345 46.171409 
L 123.608068 40.996823 
L 123.626669 31.559722 
L 123.705722 43.947237 
L 123.738273 46.733126 
L 123.821977 46.227048 
L 124.105639 44.348569 
L 124.38 43.212524 
L 124.38 43.212524 
" style="fill:none;stroke:#000000;stroke-linecap:square;stroke-width:0.3;"/>
   </g>
   <g id="line2d_3">
    <path clip-path="url(#p5b7c57bd8b)" d="M 12.78 69.274095 
L 12.919506 69.386986 
L 12.928806 69.377751 
L 12.998559 69.299073 
L 13.049711 69.373141 
L 13.119464 69.399426 
L 13.091563 69.337956 
L 13.156666 69.34645 
L 13.26827 69.277814 
L 13.282221 69.290362 
L 13.305472 69.36555 
L 13.365924 69.249483 
L 13.393826 69.288785 
L 13.426377 69.274087 
L 13.519381 69.311631 
L 13.579833 69.256594 
L 13.630985 69.32364 
L 13.840244 69.309228 
L 13.956499 69.204073 
L 13.965799 69.224663 
L 14.091355 69.353519 
L 14.323864 69.188939 
L 14.356416 69.153248 
L 14.402918 69.285044 
L 14.416868 69.274136 
L 14.579625 69.201584 
L 14.607526 69.251827 
L 14.728431 69.327 
L 14.770283 69.225206 
L 14.835386 69.331248 
L 14.840036 69.338305 
L 14.891188 69.267732 
L 14.919089 69.268096 
L 15.026044 69.205409 
L 15.039994 69.222526 
L 15.128348 69.216011 
L 15.146949 69.25878 
L 15.198101 69.298708 
L 15.235302 69.195974 
L 15.239952 69.195086 
L 15.300405 69.143999 
L 15.360858 69.188693 
L 15.379458 69.274265 
L 15.472462 69.20254 
L 15.528265 69.204121 
L 15.500363 69.166459 
L 15.570116 69.158978 
L 15.709622 69.098576 
L 15.593367 69.17356 
L 15.718922 69.116903 
L 15.853778 69.185026 
L 15.932831 69.111257 
L 15.979333 69.139796 
L 16.063037 69.162459 
L 16.086288 69.113058 
L 16.239744 69.064543 
L 16.244394 69.080074 
L 16.267645 69.104287 
L 16.295546 69.007998 
L 16.342048 69.035718 
L 16.402501 69.032098 
L 16.430402 69.079429 
L 16.439702 69.072436 
L 16.560608 69.131092 
L 16.565258 69.122447 
L 16.662912 69.063058 
L 16.676862 69.098985 
L 16.955874 68.950174 
L 16.969825 68.989918 
L 17.09538 69.108179 
L 17.267437 69.079069 
L 17.309289 69.045245 
L 17.392992 69.103643 
L 17.634802 69.008479 
L 17.723156 68.973767 
L 17.732456 68.941368 
L 17.82546 68.739321 
L 17.876612 68.773142 
L 18.002168 68.857873 
L 18.095171 68.881415 
L 18.06727 68.830566 
L 18.118422 68.87078 
L 18.220727 68.681594 
L 18.262578 68.725737 
L 18.327681 68.810859 
L 18.383483 68.727795 
L 18.481138 68.75058 
L 18.439286 68.801448 
L 18.485788 68.756797 
L 18.648545 68.872462 
L 18.695046 68.82186 
L 18.764799 68.851174 
L 18.876404 68.806281 
L 18.881054 68.794528 
L 18.988009 68.751482 
L 18.997309 68.758622 
L 19.043811 68.776131 
L 19.090313 68.70231 
L 19.25772 68.571692 
L 19.285621 68.628948 
L 19.73204 68.562463 
L 19.73669 68.576392 
L 19.820393 68.560152 
L 19.773891 68.520824 
L 19.829694 68.518511 
L 19.955249 68.444087 
L 19.9878 68.468086 
L 20.080804 68.479233 
L 20.025002 68.427479 
L 20.094755 68.437082 
L 20.113356 68.444167 
L 20.145907 68.369135 
L 20.183108 68.372872 
L 20.564424 68.391412 
L 20.676029 68.28609 
L 20.68998 68.32941 
L 20.810885 68.278351 
L 20.820185 68.287561 
L 20.93644 68.262834 
L 20.94109 68.249501 
L 20.959691 68.286867 
L 21.103847 68.148983 
L 21.17825 68.198081 
L 21.215451 68.145035 
L 21.447961 67.971909 
L 21.559566 67.84039 
L 21.587467 67.863524 
L 21.615368 67.893217 
L 21.629319 67.845375 
L 21.694421 67.847455 
L 21.861828 67.832203 
L 21.717672 67.789073 
L 21.871129 67.810332 
L 21.996684 67.700736 
L 22.001334 67.711171 
L 22.029235 67.723787 
L 22.061787 67.61151 
L 22.173391 67.562095 
L 22.098988 67.655234 
L 22.182692 67.567684 
L 23.321989 67.29801 
L 23.377792 67.215596 
L 23.428944 67.299302 
L 23.503347 67.325322 
L 23.456845 67.288306 
L 23.535898 67.273595 
L 23.563799 67.226655 
L 23.633552 67.330464 
L 23.642853 67.301523 
L 23.689355 67.353471 
L 23.768408 67.337265 
L 24.224127 67.384424 
L 24.228777 67.362214 
L 24.321781 67.346881 
L 24.252028 67.38361 
L 24.349682 67.384439 
L 24.419435 67.322009 
L 24.461287 67.370453 
L 24.53104 67.408904 
L 24.563591 67.333664 
L 24.721698 67.145212 
L 24.726348 67.155812 
L 24.79145 67.18404 
L 24.77285 67.121042 
L 24.842603 67.163448 
L 24.847253 67.136178 
L 24.884454 67.2244 
L 24.954207 67.169533 
L 25.079762 67.145901 
L 25.368075 66.982044 
L 25.386675 67.004944 
L 25.530831 67.157452 
L 25.395976 66.985301 
L 25.558732 67.133825 
L 25.721489 66.919197 
L 25.726139 66.934197 
L 25.828444 66.949211 
L 25.772641 66.897764 
L 25.837744 66.91841 
L 25.97725 66.821916 
L 26.065604 66.839779 
L 26.093505 66.79635 
L 26.21906 66.749714 
L 26.414368 66.484327 
L 26.498072 66.547188 
L 26.530623 66.505788 
L 26.70733 66.445349 
L 26.71198 66.450711 
L 26.763133 66.512401 
L 26.823585 66.465219 
L 26.93519 66.380602 
L 26.874737 66.503667 
L 26.958441 66.414124 
L 27.009593 66.463618 
L 27.046794 66.337294 
L 27.056095 66.344336 
L 27.200251 66.253758 
L 27.083996 66.391053 
L 27.204901 66.262235 
L 27.442061 66.252903 
L 27.446711 66.267461 
L 27.497863 66.314085 
L 27.553666 66.247805 
L 27.609468 66.328514 
L 27.679221 66.216079 
L 27.860578 66.182817 
L 27.874529 66.202332 
L 27.976833 66.284975 
L 28.004734 66.250275 
L 28.176792 66.195039 
L 28.186092 66.20488 
L 28.227944 66.102465 
L 28.251195 66.103954 
L 28.353499 66.105811 
L 28.362799 66.155558 
L 28.367449 66.188487 
L 28.418602 66.129887 
L 28.474404 66.156145 
L 28.60926 66.035544 
L 28.730165 65.95005 
L 28.790617 65.886948 
L 28.837119 65.939636 
L 28.944074 65.888229 
L 28.85572 65.981337 
L 28.958024 65.898884 
L 29.130081 66.029653 
L 29.134731 66.023869 
L 29.176583 66.14125 
L 29.181233 66.131715 
L 29.237036 66.153895 
L 29.274237 66.083256 
L 29.283538 66.084069 
L 29.562549 66.200745 
L 29.5858 66.147157 
L 29.636952 66.030738 
L 29.702055 66.112208 
L 29.706705 66.141926 
L 29.795059 66.065762 
L 29.804359 66.079231 
L 30.274029 65.809147 
L 30.287979 65.84347 
L 30.30658 65.877294 
L 30.380983 65.790822 
L 30.399584 65.836447 
L 30.478637 65.791705 
L 30.487938 65.770462 
L 30.627444 65.696271 
L 30.636744 65.717708 
L 30.641394 65.739181 
L 30.729748 65.632366 
L 30.850653 65.590294 
L 30.743698 65.650756 
L 30.855303 65.59382 
L 30.957607 65.648763 
L 30.869254 65.588816 
L 30.971558 65.628221 
L 31.106414 65.545103 
L 31.26917 65.611501 
L 31.273821 65.60037 
L 31.50168 65.384858 
L 31.529581 65.436615 
L 31.571433 65.427806 
L 31.599334 65.370982 
L 31.608635 65.366552 
L 31.73419 65.255866 
L 31.636536 65.381434 
L 31.73884 65.276034 
L 31.878346 65.382162 
L 31.999251 65.282574 
L 32.055053 65.216055 
L 32.115506 65.274242 
L 32.143407 65.328377 
L 32.194559 65.208083 
L 32.21781 65.22964 
L 32.445669 65.299638 
L 32.603776 65.291112 
L 32.664229 65.185148 
L 32.724681 65.21335 
L 33.022293 64.938601 
L 33.1711 64.877769 
L 33.18505 64.898955 
L 33.222252 64.888523 
L 33.264104 64.819371 
L 33.454761 64.688867 
L 33.459412 64.701065 
L 33.580317 64.73497 
L 33.584967 64.730564 
L 33.631469 64.834753 
L 33.645419 64.803387 
L 33.752374 64.843106 
L 33.682621 64.795879 
L 33.761674 64.836057 
L 33.882579 64.711962 
L 33.789575 64.872546 
L 33.89653 64.734001 
L 33.947682 64.740001 
L 33.984884 64.670128 
L 34.12904 64.462176 
L 34.14764 64.503617 
L 34.361549 64.256535 
L 34.37085 64.28115 
L 34.422002 64.162463 
L 34.663812 63.192417 
L 34.705664 60.60755 
L 34.724264 51.715628 
L 34.807968 64.333602 
L 34.821918 64.452407 
L 34.905622 64.136393 
L 35.031177 63.545995 
L 35.142782 62.185599 
L 35.170683 54.406479 
L 35.231135 63.657517 
L 35.254386 64.664745 
L 35.34274 64.092104 
L 35.519447 62.010537 
L 35.542698 54.46568 
L 35.607801 64.393603 
L 35.626402 64.930715 
L 35.714756 64.23465 
L 35.886813 61.291353 
L 35.905414 54.253912 
L 35.984467 65.221272 
L 36.06352 64.549202 
L 36.249528 61.727948 
L 36.268129 53.839769 
L 36.342532 65.48405 
L 36.347182 65.56162 
L 36.416935 64.956331 
L 36.635494 61.14838 
L 36.649445 53.456427 
L 36.733148 65.903662 
L 36.7843 65.503839 
L 37.049361 62.057072 
L 37.067962 53.137956 
L 37.137715 65.141294 
L 37.156316 66.162942 
L 37.24932 65.345978 
L 37.50973 61.95081 
L 37.528331 52.841619 
L 37.598084 65.372211 
L 37.616685 66.329464 
L 37.709689 65.511014 
L 37.998001 62.456186 
L 38.021252 52.801918 
L 38.086354 63.464978 
L 38.114256 66.429889 
L 38.202609 65.682672 
L 38.481621 63.485012 
L 38.542073 61.951341 
L 38.560674 52.649026 
L 38.630427 65.491218 
L 38.649028 66.470661 
L 38.742032 65.741811 
L 39.118697 61.291907 
L 39.137298 52.703038 
L 39.216352 66.434037 
L 39.221002 66.465731 
L 39.272154 66.118617 
L 39.723223 61.723981 
L 39.741823 52.585179 
L 39.816227 66.227265 
L 39.830177 66.45053 
L 39.913881 65.849014 
L 40.183592 64.147601 
L 40.350999 62.768744 
L 40.37425 59.011192 
L 40.3882 52.595652 
L 40.476554 66.439306 
L 40.755566 64.609208 
L 41.043878 61.7454 
L 41.062478 52.729541 
L 41.132231 65.824924 
L 41.146182 66.37301 
L 41.239186 65.779628 
L 41.522848 64.109036 
L 41.550749 64.015993 
L 41.732106 62.63157 
L 41.750707 60.201014 
L 41.764658 52.680621 
L 41.848361 66.341115 
L 41.871612 66.220271 
L 42.434286 62.63493 
L 42.452886 60.217837 
L 42.466837 52.542448 
L 42.555191 66.408236 
L 42.745849 65.142749 
L 43.206218 62.273413 
L 43.234119 52.667172 
L 43.289921 63.360644 
L 43.317822 66.267365 
L 43.406176 65.689379 
L 43.694488 64.223971 
L 43.699138 64.224891 
L 43.875846 63.610147 
L 43.98745 62.373779 
L 44.010701 54.23341 
L 44.015351 52.821772 
L 44.080454 65.240533 
L 44.099055 66.214395 
L 44.192059 65.622553 
L 44.233911 65.351759 
L 44.503622 64.119734 
L 44.754732 62.85328 
L 44.782633 60.702615 
L 44.801234 52.722615 
L 44.880288 66.20594 
L 44.884938 66.2266 
L 44.926789 65.970847 
L 45.140698 64.748031 
L 45.368558 63.919713 
L 45.382508 63.92306 
L 45.41971 63.809622 
L 45.619668 62.44556 
L 45.642919 55.988154 
L 45.65222 52.892263 
L 45.731273 66.044931 
L 45.740573 66.060556 
L 45.763824 65.934318 
L 46.103288 64.278223 
L 46.707814 62.660956 
L 46.735715 59.882836 
L 46.754316 53.244785 
L 46.833369 65.761764 
L 46.838019 65.771897 
L 46.87057 65.592597 
L 47.042628 64.758163 
L 47.047278 64.968803 
L 47.182133 66.918044 
L 47.502997 68.162091 
L 48.06567 69.126779 
L 48.135423 69.138441 
L 48.102872 69.19005 
L 48.158674 69.176094 
L 48.344682 69.275386 
L 48.172625 69.154339 
L 48.349332 69.259075 
L 48.446986 69.236534 
L 48.395834 69.310694 
L 48.460937 69.260366 
L 48.577192 69.26178 
L 48.470237 69.268147 
L 48.581842 69.278569 
L 48.712047 69.34249 
L 48.860853 69.271629 
L 48.879454 69.326904 
L 48.981758 69.349352 
L 48.991059 69.329484 
L 49.149165 69.232606 
L 49.00966 69.340884 
L 49.153816 69.240141 
L 49.163116 69.236859 
L 49.200318 69.322623 
L 49.214268 69.332784 
L 49.232869 69.317719 
L 49.325873 69.318358 
L 49.525831 69.323321 
L 49.581633 69.302788 
L 49.558382 69.348079 
L 49.632786 69.336234 
L 49.651386 69.345273 
L 49.688588 69.256486 
L 49.73044 69.287437 
L 49.837394 69.257626 
L 49.762991 69.304484 
L 49.846694 69.271765 
L 50.139657 69.303356 
L 50.246611 69.293743 
L 50.22336 69.374828 
L 50.255911 69.302947 
L 50.395417 69.33769 
L 50.488421 69.32209 
L 50.507022 69.3387 
L 50.544224 69.380707 
L 50.586075 69.294802 
L 50.623277 69.333601 
L 50.758132 69.247669 
L 50.93949 69.346902 
L 50.958091 69.323456 
L 51.162699 69.265943 
L 51.232452 69.290222 
L 51.241753 69.341381 
L 51.251053 69.30451 
L 51.362658 69.382025 
L 51.371958 69.359939 
L 51.469612 69.320659 
L 51.390559 69.369779 
L 51.492863 69.340329 
L 51.581217 69.377541 
L 51.511464 69.326681 
L 51.595167 69.314221 
L 51.683521 69.27853 
L 51.627719 69.335609 
L 51.711422 69.300128 
L 52.553107 69.386794 
L 52.562408 69.4282 
L 52.585659 69.349641 
L 52.660062 69.353032 
L 52.692613 69.38472 
L 52.739115 69.303333 
L 52.771666 69.337537 
L 52.939073 69.216652 
L 52.785617 69.352326 
L 52.957674 69.243419 
L 53.087879 69.360548 
L 53.199484 69.295025 
L 53.213435 69.305654 
L 53.34364 69.372738 
L 53.34829 69.360413 
L 53.455245 69.323025 
L 53.469195 69.34818 
L 53.5715 69.381097 
L 53.487796 69.315333 
L 53.608701 69.349032 
L 56.059353 69.38932 
L 56.064004 69.410227 
L 56.143057 69.273985 
L 56.147707 69.285438 
L 56.250011 69.267675 
L 56.259312 69.244155 
L 56.268612 69.208338 
L 56.338365 69.298732 
L 56.366266 69.264834 
L 56.575525 69.322968 
L 56.584825 69.307954 
L 56.612726 69.253953 
L 56.69643 69.29694 
L 56.821985 69.340967 
L 56.849886 69.306345 
L 56.840586 69.357437 
L 56.924289 69.383686 
L 57.003343 69.400824 
L 56.93824 69.364775 
L 57.040544 69.358352 
L 57.231202 69.336319 
L 57.291655 69.390455 
L 57.333506 69.308107 
L 57.407909 69.328946 
L 57.342807 69.327468 
L 57.41721 69.36762 
L 57.42651 69.407438 
L 57.510214 69.337549 
L 57.524164 69.368795 
L 57.645069 69.328423 
L 57.64972 69.341637 
L 57.65437 69.373404 
L 57.752024 69.295576 
L 58.068237 69.361129 
L 58.072887 69.344108 
L 58.082188 69.310871 
L 58.14264 69.381492 
L 58.184492 69.346449 
L 58.254245 69.410561 
L 58.300747 69.352871 
L 58.421652 69.283119 
L 58.361199 69.422709 
L 58.435602 69.319572 
L 58.737865 69.329266 
L 58.84947 69.253749 
L 58.756466 69.34966 
L 58.877371 69.289562 
L 58.956424 69.350416 
L 58.895971 69.272548 
L 59.007576 69.318289 
L 59.10058 69.279354 
L 59.049428 69.357137 
L 59.137782 69.304948 
L 59.240086 69.383056 
L 59.258687 69.337502 
L 59.295888 69.278871 
L 59.374941 69.313756 
L 59.481896 69.380513 
L 59.416793 69.281011 
L 59.491196 69.370081 
L 59.635352 69.25466 
L 59.774858 69.369282 
L 59.81206 69.339778 
L 59.895763 69.291243 
L 59.82601 69.352876 
L 59.923664 69.340093 
L 59.951565 69.382021 
L 60.077121 69.233157 
L 60.151524 69.309861 
L 60.091071 69.217859 
L 60.198026 69.293002 
L 60.230577 69.294625 
L 60.267779 69.374166 
L 60.272429 69.374627 
L 60.370083 69.432655 
L 60.393334 69.366686 
L 60.658395 69.290628 
L 60.667695 69.309635 
L 60.77 69.386941 
L 60.686296 69.28378 
L 60.793251 69.343087 
L 60.937407 69.150611 
L 61.193167 69.201102 
L 61.318722 69.267237 
L 61.458228 69.118573 
L 61.462878 69.123506 
L 61.611685 69.104617 
L 61.481479 69.144969 
L 61.616335 69.110726 
L 61.834894 69.218127 
L 61.839544 69.194145 
L 61.9744 69.169899 
L 61.993001 69.174619 
L 62.044153 69.076989 
L 62.160408 69.095493 
L 62.053453 69.097524 
L 62.174358 69.124523 
L 62.21156 69.144115 
L 62.258062 69.045713 
L 62.360366 69.066893 
L 62.267362 69.075433 
L 62.369666 69.077287 
L 62.750982 69.029301 
L 62.755632 69.05162 
L 62.825385 68.980181 
L 62.857937 69.019315 
L 62.997442 68.936915 
L 62.867237 69.027984 
L 63.020693 68.96353 
L 63.071845 69.026657 
L 63.132298 68.945106 
L 63.569416 68.96381 
L 63.694971 68.917631 
L 63.713572 68.969271 
L 63.797276 68.888489 
L 63.871679 68.827223 
L 63.918181 68.882932 
L 64.718014 68.606852 
L 64.755216 68.560569 
L 64.829619 68.613065 
L 64.85287 68.647832 
L 64.959824 68.587767 
L 65.006326 68.528788 
L 64.987725 68.535199 
L 65.015626 68.498134 
L 65.136532 68.442876 
L 65.034227 68.515053 
L 65.155132 68.47369 
L 65.159782 68.490489 
L 65.238836 68.380641 
L 65.243486 68.382924 
L 65.33649 68.366349 
L 65.303938 68.309473 
L 65.34114 68.349506 
L 65.373691 68.281628 
L 65.429494 68.370318 
L 65.452745 68.348013 
L 65.517847 68.376248 
L 65.564349 68.322688 
L 65.662003 68.332411 
L 65.629452 68.375291 
L 65.671304 68.35143 
L 65.764308 68.441992 
L 65.81081 68.402436 
L 65.917764 68.37453 
L 65.927064 68.398193 
L 66.047969 68.196862 
L 66.085171 68.256538 
L 66.182825 68.31153 
L 66.215376 68.270898 
L 66.233977 68.251709 
L 66.275829 68.333658 
L 66.30838 68.324065 
L 66.401384 68.355896 
L 66.424635 68.311156 
L 66.447886 68.350508 
L 66.489738 68.257926 
L 66.503688 68.256209 
L 66.578092 68.113468 
L 66.624594 68.205114 
L 66.717597 68.254561 
L 66.643194 68.19544 
L 66.731548 68.199827 
L 66.76875 68.165408 
L 66.833852 68.23518 
L 67.25702 67.988922 
L 67.27097 68.029751 
L 67.377925 68.037241 
L 67.382575 68.008117 
L 67.517431 67.894547 
L 67.605784 67.914819 
L 67.540682 67.87466 
L 67.629035 67.901763 
L 67.74529 67.887876 
L 67.754591 67.907548 
L 67.940598 67.853672 
L 68.098705 67.93813 
L 68.303313 67.900073 
L 68.307964 67.92341 
L 68.670679 68.018369 
L 68.791584 67.946846 
L 68.847386 67.938285 
L 68.870637 67.857381 
L 68.903188 67.886767 
L 69.038044 67.748031 
L 69.103147 67.773615 
L 69.140348 67.720219 
L 69.391459 67.489402 
L 69.405409 67.498482 
L 69.689071 67.398297 
L 69.809976 67.218957 
L 69.823927 67.249119 
L 69.926231 67.173356 
L 70.084338 67.164837 
L 70.14479 67.288002 
L 70.219193 67.248061 
L 70.307547 67.237061 
L 70.247094 67.275827 
L 70.321498 67.289894 
L 70.39125 67.328456 
L 70.433102 67.247853 
L 70.558657 67.156339 
L 70.730715 67.303981 
L 70.735365 67.292949 
L 70.888821 67.14966 
L 70.912072 67.184235 
L 71.046928 67.21754 
L 71.121331 67.250586 
L 71.149232 67.198676 
L 71.33524 67.01169 
L 71.34454 67.062993 
L 71.395692 66.994474 
L 71.446844 67.039093 
L 71.688655 66.931427 
L 71.697955 66.962039 
L 71.753757 66.872681 
L 71.781658 66.882584 
L 71.795609 66.846784 
L 71.837461 66.910429 
L 71.883963 66.896402 
L 71.976967 66.959773 
L 71.902563 66.887564 
L 71.990917 66.924581 
L 72.037419 66.827489 
L 72.107172 66.855075 
L 72.251328 66.782694 
L 72.441986 66.663316 
L 72.446636 66.69381 
L 72.465237 66.624414 
L 72.54894 66.632385 
L 72.669845 66.660674 
L 72.674496 66.630598 
L 72.739598 66.616525 
L 72.767499 66.685317 
L 72.818652 66.752742 
L 72.879104 66.691863 
L 72.986059 66.621013 
L 73.00931 66.655536 
L 73.046511 66.722423 
L 73.097663 66.577882 
L 73.106964 66.603589 
L 73.376675 66.493912 
L 73.390625 66.539011 
L 73.395276 66.559559 
L 73.478979 66.448223 
L 73.618485 66.303907 
L 73.48828 66.453472 
L 73.623135 66.317551 
L 73.674287 66.395958 
L 73.73009 66.292818 
L 73.911447 66.40024 
L 73.74404 66.280373 
L 73.916097 66.369951 
L 73.957949 66.367986 
L 73.98585 66.448077 
L 74.018402 66.478109 
L 74.078854 66.387818 
L 74.083504 66.393214 
L 74.190459 66.353769 
L 74.120706 66.412501 
L 74.204409 66.371752 
L 74.264862 66.340587 
L 74.316014 66.363495 
L 74.381117 66.394617 
L 74.329965 66.338513 
L 74.413668 66.312388 
L 74.422968 66.290442 
L 74.506672 66.37188 
L 74.520623 66.340003 
L 74.664779 66.391447 
L 74.576425 66.273644 
L 74.674079 66.377576 
L 74.804284 66.295713 
L 74.818235 66.331293 
L 74.883338 66.195326 
L 74.999592 66.130273 
L 75.148399 65.952553 
L 75.269304 66.047826 
L 75.278604 66.03447 
L 75.334406 65.947089 
L 75.394859 65.995246 
L 75.432061 66.035411 
L 75.492513 65.9496 
L 75.604118 65.892651 
L 75.613418 65.916815 
L 75.632019 65.974606 
L 75.725023 65.91539 
L 75.841278 65.95711 
L 75.748274 65.905012 
L 75.850578 65.949296 
L 76.496955 65.673436 
L 76.501605 65.697065 
L 76.589959 65.74554 
L 76.548107 65.685022 
L 76.61786 65.723446 
L 76.669012 65.620266 
L 76.738765 65.72646 
L 76.901522 65.879419 
L 77.32934 65.618844 
L 76.948024 65.957169 
L 77.33864 65.629317 
L 77.389792 65.662853 
L 77.413043 65.594266 
L 77.445594 65.6039 
L 77.459545 65.623996 
L 77.510697 65.52117 
L 77.515347 65.520466 
L 77.613001 65.415712 
L 77.659503 65.484521 
L 77.766458 65.534981 
L 77.692055 65.438437 
L 77.789709 65.491354 
L 77.82691 65.442204 
L 77.873412 65.549067 
L 77.896663 65.522834 
L 78.045469 65.390919 
L 78.078021 65.434308 
L 78.161724 65.437007 
L 78.180325 65.401613 
L 78.30588 65.371459 
L 78.31053 65.381312 
L 78.412835 65.466154 
L 78.361683 65.366459 
L 78.431435 65.429938 
L 78.491888 65.395461 
L 78.468637 65.476829 
L 78.53839 65.458389 
L 78.7709 65.364846 
L 78.54769 65.475789 
L 78.77555 65.373289 
L 78.7802 65.398352 
L 78.868554 65.317083 
L 78.882504 65.357525 
L 79.328923 65.239598 
L 79.338223 65.260803 
L 79.375425 65.334506 
L 79.449828 65.254751 
L 79.584684 65.207331 
L 79.593984 65.222974 
L 79.719539 65.280878 
L 79.72884 65.272282 
L 79.817193 65.255297 
L 79.849745 65.315317 
L 79.886946 65.396892 
L 79.97065 65.355438 
L 80.040403 65.260284 
L 80.096205 65.226519 
L 80.128756 65.339949 
L 80.142707 65.305149 
L 80.268262 65.343779 
L 80.500772 65.197321 
L 80.505422 65.209222 
L 80.575175 65.175202 
L 80.533323 65.159324 
L 80.584475 65.141749 
L 80.751882 64.97678 
L 80.765833 65.015796 
L 80.830935 65.042732 
L 80.858837 64.955467 
L 80.868137 64.973195 
L 80.93789 64.95787 
L 80.886738 64.947108 
L 80.956491 64.912478 
L 81.035544 64.891992 
L 80.979742 64.925618 
L 81.068095 64.915074 
L 81.328506 64.803529 
L 81.361058 64.736121 
L 81.444761 64.769887 
L 81.951632 64.27195 
L 81.454061 64.784839 
L 81.956282 64.295962 
L 81.960933 64.309661 
L 82.026035 64.173581 
L 82.267845 63.001064 
L 82.295746 61.320911 
L 82.318997 51.755082 
L 82.398051 64.270599 
L 82.416652 64.483325 
L 82.500355 64.149876 
L 82.653811 63.311153 
L 82.728215 61.783822 
L 82.751465 54.350498 
L 82.816568 64.344826 
L 82.830519 64.743068 
L 82.923523 64.148484 
L 83.09093 62.606735 
L 83.114181 59.935943 
L 83.128131 54.332927 
L 83.207184 64.977078 
L 83.216485 64.934449 
L 83.430394 63.174189 
L 83.476896 61.451941 
L 83.495496 54.082673 
L 83.5699 65.266428 
L 83.57455 65.29947 
L 83.625702 64.886388 
L 83.848911 61.82337 
L 83.867512 53.752497 
L 83.937265 65.243238 
L 83.951215 65.630487 
L 84.039569 64.835692 
L 84.141873 63.919552 
L 84.248828 61.405793 
L 84.267429 53.403704 
L 84.346482 65.932643 
L 84.351132 65.939803 
L 84.369733 65.818801 
L 84.676646 61.854311 
L 84.695246 52.982553 
L 84.76965 65.956269 
L 84.77895 66.199238 
L 84.867304 65.461337 
L 85.146315 62.216724 
L 85.169566 52.844189 
L 85.234669 64.764985 
L 85.25327 66.329261 
L 85.346274 65.560634 
L 85.671787 60.286505 
L 85.685738 52.703867 
L 85.774091 66.376717 
L 85.862445 65.67176 
L 86.21586 61.09743 
L 86.22981 52.66953 
L 86.313514 66.421952 
L 86.318164 66.443437 
L 86.364666 66.140386 
L 86.811085 61.644069 
L 86.829685 52.65709 
L 86.904089 66.224895 
L 86.918039 66.4067 
L 86.997092 65.823692 
L 87.42956 62.005055 
L 87.452811 52.640451 
L 87.517914 65.459634 
L 87.541165 66.432888 
L 87.629519 65.768712 
L 88.080588 61.34362 
L 88.099188 52.557762 
L 88.178242 66.409167 
L 88.187542 66.451878 
L 88.238694 66.086644 
L 88.494455 64.483571 
L 88.792067 62.539528 
L 88.810668 59.383285 
L 88.824619 52.6952 
L 88.903672 66.297358 
L 88.908322 66.290084 
L 88.931573 66.185726 
L 89.257087 64.243221 
L 89.438444 63.20464 
L 89.480296 62.133313 
L 89.503547 52.565425 
L 89.563999 63.929701 
L 89.5919 66.391745 
L 89.680254 65.772526 
L 90.001118 64.165246 
L 90.005768 64.166873 
L 90.024369 64.063845 
L 90.201076 63.096446 
L 90.238277 61.556992 
L 90.256878 52.676913 
L 90.331281 66.128037 
L 90.340582 66.316073 
L 90.424285 65.747467 
L 90.959057 63.100385 
L 91.000909 61.19668 
L 91.01951 52.730311 
L 91.098563 66.204575 
L 91.103213 66.222116 
L 91.145065 65.967414 
L 91.721689 63.142188 
L 91.768191 61.563394 
L 91.786792 52.743598 
L 91.861195 66.052897 
L 91.879796 66.248542 
L 91.958849 65.717879 
L 92.158807 64.605499 
L 92.563374 62.543032 
L 92.586625 56.32307 
L 92.595926 52.573584 
L 92.679629 66.243096 
L 92.716831 66.036751 
L 92.977242 64.596378 
L 93.079546 64.259968 
L 93.446911 62.009188 
L 93.474812 52.887424 
L 93.530615 64.35253 
L 93.553866 66.100656 
L 93.646869 65.490429 
L 94.116539 63.876259 
L 94.121189 63.895784 
L 94.200243 63.765103 
L 94.274646 63.665663 
L 94.325798 63.687421 
L 94.395551 63.737987 
L 94.418802 63.658819 
L 94.442053 63.709113 
L 94.451353 63.704983 
L 94.483904 63.817462 
L 94.521106 63.789657 
L 94.693163 64.177626 
L 94.716414 65.938324 
L 94.86057 68.641227 
L 95.34884 69.300433 
L 95.390692 69.255619 
L 95.502297 69.274659 
L 95.423243 69.231321 
L 95.511597 69.233565 
L 95.58135 69.300637 
L 95.692955 69.34779 
L 95.59065 69.286645 
L 95.697605 69.336431 
L 95.81851 69.269961 
L 95.837111 69.279998 
L 96.013818 69.356049 
L 96.05567 69.362644 
L 96.092871 69.279414 
L 96.102172 69.294911 
L 96.153324 69.212263 
L 96.227727 69.302218 
L 96.334681 69.354274 
L 96.237027 69.289429 
L 96.353282 69.310296 
L 96.441636 69.273671 
L 96.367233 69.327627 
L 96.478837 69.291652 
L 96.599742 69.345997 
L 96.613693 69.316079 
L 96.720648 69.306361 
L 96.683446 69.353688 
L 96.725298 69.322517 
L 96.734598 69.368667 
L 96.809001 69.297901 
L 96.832252 69.312827 
L 96.976408 69.270758 
L 97.064762 69.313711 
L 97.088013 69.262026 
L 97.092663 69.243178 
L 97.139165 69.33337 
L 97.181017 69.340563 
L 97.287971 69.346337 
L 97.301922 69.331563 
L 97.371675 69.357301 
L 97.422827 69.297024 
L 97.580933 69.327844 
L 97.594884 69.306457 
L 98.115706 69.345289 
L 98.138957 69.367232 
L 98.21336 69.292628 
L 98.45517 69.39775 
L 98.46447 69.371039 
L 98.603976 69.270381 
L 98.608626 69.278434 
L 98.69233 69.322658 
L 98.724881 69.308016 
L 98.850436 69.265341 
L 98.855086 69.273144 
L 99.013193 69.321327 
L 99.138748 69.301149 
L 99.152699 69.31383 
L 99.264304 69.378561 
L 99.166649 69.301086 
L 99.292205 69.304475 
L 99.394509 69.279083 
L 99.42241 69.317891 
L 99.524714 69.370234 
L 99.538665 69.327741 
L 99.627019 69.286999 
L 99.566566 69.34157 
L 99.65957 69.303481 
L 99.757224 69.349694 
L 99.696772 69.261842 
L 99.775825 69.321056 
L 100.198992 69.369698 
L 100.203643 69.34676 
L 100.278046 69.343043 
L 100.301297 69.394849 
L 100.329198 69.40888 
L 100.361749 69.31392 
L 100.38035 69.318545 
L 100.478004 69.279263 
L 100.38965 69.332288 
L 100.491955 69.329554 
L 100.63146 69.358884 
L 100.645411 69.336007 
L 100.85002 69.228594 
L 100.86862 69.297088 
L 100.924423 69.252701 
L 100.984875 69.312336 
L 101.291788 69.36093 
L 101.296438 69.378715 
L 101.375491 69.309477 
L 101.398742 69.34721 
L 101.445244 69.264766 
L 101.519647 69.339608 
L 101.617302 69.380045 
L 101.635902 69.353459 
L 101.640553 69.32948 
L 101.701005 69.383313 
L 101.742857 69.372361 
L 101.789359 69.421795 
L 101.873062 69.361934 
L 101.910264 69.395462 
L 101.975366 69.328691 
L 101.980017 69.346774 
L 102.128823 69.310295 
L 102.147424 69.371673 
L 102.189275 69.433301 
L 102.259028 69.374196 
L 102.379933 69.354527 
L 102.389234 69.331622 
L 102.579892 69.31402 
L 102.663595 69.338432 
L 102.631044 69.285024 
L 102.691496 69.307957 
L 102.737998 69.296952 
L 102.7845 69.365979 
L 103.063512 69.303541 
L 102.793801 69.38657 
L 103.072812 69.333097 
L 103.161166 69.391902 
L 103.105364 69.294979 
L 103.193717 69.347755 
L 103.221618 69.362471 
L 103.319272 69.287064 
L 103.416927 69.390407 
L 103.351824 69.268333 
L 103.444828 69.370067 
L 103.523881 69.317171 
L 103.565733 69.346944 
L 103.705239 69.368697 
L 103.709889 69.353945 
L 103.714539 69.330516 
L 103.74244 69.390078 
L 103.816843 69.385439 
L 103.891246 69.402308 
L 103.914497 69.347079 
L 103.919147 69.351757 
L 103.98425 69.289365 
L 104.040053 69.320388 
L 105.011943 69.357344 
L 105.021243 69.375042 
L 105.063095 69.327357 
L 105.118897 69.335223 
L 105.17935 69.296912 
L 105.132848 69.353302 
L 105.216552 69.385456 
L 105.328156 69.434353 
L 105.249103 69.350477 
L 105.332806 69.430488 
L 105.41186 69.297018 
L 105.490913 69.336725 
L 105.66762 69.364375 
L 105.676921 69.343654 
L 105.760624 69.341178 
L 105.714122 69.387037 
L 105.783875 69.366899 
L 105.821077 69.422286 
L 105.872229 69.278413 
L 105.946632 69.289368 
L 105.89083 69.316698 
L 105.960583 69.336233 
L 106.109389 69.423127 
L 106.114039 69.408432 
L 106.160541 69.36545 
L 106.225644 69.397724 
L 106.253545 69.409633 
L 106.290746 69.320501 
L 106.304697 69.326615 
L 106.411651 69.253816 
L 106.434902 69.274093 
L 106.555807 69.419433 
L 106.462803 69.239439 
L 106.593009 69.366149 
L 106.727864 69.302798 
L 106.779017 69.291962 
L 106.820868 69.364823 
L 106.937123 69.411597 
L 106.839469 69.349806 
L 106.951074 69.393281 
L 107.044078 69.362786 
L 107.020827 69.42276 
L 107.062678 69.389484 
L 107.211485 69.466909 
L 107.09523 69.358652 
L 107.225435 69.452832 
L 107.411443 69.336585 
L 107.416093 69.345804 
L 107.560249 69.408518 
L 107.56955 69.369907 
L 107.699755 69.299647 
L 107.853211 69.277716 
L 107.955516 69.261857 
L 107.941565 69.21711 
L 107.960166 69.257953 
L 107.988067 69.192839 
L 108.076421 69.232261 
L 108.30428 69.181541 
L 108.53214 69.263446 
L 108.555391 69.325038 
L 108.597242 69.246523 
L 108.653045 69.298259 
L 108.764649 69.273979 
L 108.78325 69.28364 
L 108.894855 69.281789 
L 108.904155 69.259866 
L 109.108764 69.24243 
L 109.113414 69.267726 
L 109.211068 69.184447 
L 109.27152 69.236575 
L 109.304072 69.137835 
L 109.313372 69.140793 
L 109.452878 69.209964 
L 109.359874 69.109106 
L 109.462178 69.203266 
L 109.527281 69.198235 
L 109.541232 69.257802 
L 109.555182 69.257758 
L 109.699338 69.282728 
L 109.587734 69.200845 
L 109.713289 69.261912 
L 109.792342 69.196005 
L 109.829544 69.245701 
L 109.843494 69.264315 
L 109.98765 69.24561 
L 110.071354 69.248866 
L 110.034152 69.204831 
L 110.094605 69.227427 
L 110.438719 69.081147 
L 110.443369 69.089735 
L 110.513122 69.131586 
L 110.550324 69.075627 
L 110.652628 69.037462 
L 110.661928 69.062974 
L 110.685179 69.099717 
L 110.727031 68.978444 
L 110.754932 68.995837 
L 110.768883 68.944851 
L 110.852586 69.043147 
L 110.913039 69.111744 
L 110.964191 69.05497 
L 111.126948 69.097987 
L 111.136248 69.064057 
L 111.233902 68.969484 
L 111.285054 69.000968 
L 111.392009 68.970074 
L 111.299005 68.959035 
L 111.396659 68.956546 
L 111.433861 68.931871 
L 111.480363 69.011515 
L 111.489663 69.005075 
L 111.531515 69.005841 
L 111.554766 68.95833 
L 111.582667 68.957248 
L 111.745424 68.804544 
L 111.90353 68.90798 
L 111.936082 68.867166 
L 112.005834 68.820785 
L 112.052336 68.853425 
L 112.089538 68.927892 
L 112.168591 68.853972 
L 112.284846 68.81604 
L 112.3732 68.824619 
L 112.3918 68.78722 
L 112.498755 68.839519 
L 112.517356 68.804603 
L 112.62896 68.756453 
L 112.661512 68.799648 
L 112.745215 68.858731 
L 112.777767 68.779119 
L 112.982375 68.608102 
L 112.991675 68.628145 
L 113.10793 68.650887 
L 113.014926 68.611514 
L 113.112581 68.643435 
L 113.642703 68.340549 
L 113.647353 68.358163 
L 113.782208 68.193439 
L 113.786859 68.201022 
L 114.312331 68.235713 
L 114.442536 68.188564 
L 114.572741 68.280898 
L 114.586692 68.272619 
L 114.721548 68.203928 
L 114.730848 68.210318 
L 114.7913 68.155047 
L 114.847103 68.255256 
L 114.963358 68.18826 
L 114.870354 68.281292 
L 114.968008 68.191258 
L 115.070312 68.07388 
L 115.079612 68.084015 
L 115.205168 67.948262 
L 115.302822 67.939036 
L 115.237719 67.890462 
L 115.312122 67.930293 
L 115.316772 67.901636 
L 115.372575 68.024947 
L 115.423727 67.921893 
L 115.521381 67.897721 
L 115.553932 67.948542 
L 115.577183 68.010465 
L 115.665537 67.979735 
L 115.670187 67.953538 
L 115.712039 68.018887 
L 115.772491 68.011624 
L 115.879446 67.85909 
L 116.139857 67.688729 
L 116.144507 67.699483 
L 116.297963 67.734036 
L 116.372366 67.649347 
L 116.428169 67.700301 
L 116.563024 67.758608 
L 116.762983 67.60981 
L 116.883888 67.69618 
L 116.893188 67.681489 
L 116.916439 67.675878 
L 116.962941 67.790196 
L 117.088496 67.830191 
L 117.097797 67.825462 
L 117.102447 67.830636 
L 117.139648 67.708866 
L 117.1722 67.74292 
L 117.348907 67.623552 
L 117.437261 67.536014 
L 117.474462 67.558934 
L 117.488413 67.586064 
L 117.567466 67.500039 
L 117.702322 67.421392 
L 117.716272 67.439501 
L 117.795326 67.382854 
L 117.799976 67.368084 
L 117.925531 67.288444 
L 117.930181 67.301066 
L 117.953432 67.25625 
L 118.106889 67.286671 
L 118.120839 67.309641 
L 118.223143 67.294432 
L 118.241744 67.329861 
L 118.306847 67.206813 
L 118.311497 67.205939 
L 118.409151 67.153273 
L 118.427752 67.175063 
L 118.451003 67.196068 
L 118.520756 67.119119 
L 118.660262 66.960935 
L 118.664912 66.975743 
L 118.669562 66.979407 
L 118.683513 66.938545 
L 118.725364 66.896549 
L 118.776517 66.854374 
L 118.836969 66.894229 
L 118.948574 66.937273 
L 118.953224 66.918446 
L 119.069479 66.813735 
L 119.078779 66.819796 
L 119.204334 66.900221 
L 119.246186 66.858635 
L 119.367091 66.753856 
L 119.269437 66.869166 
L 119.390342 66.805579 
L 119.474046 66.782119 
L 119.450795 66.742454 
L 119.478696 66.762114 
L 119.515897 66.740615 
L 119.562399 66.814919 
L 119.58565 66.787003 
L 119.776308 66.833085 
L 119.897213 66.731864 
L 119.906514 66.754884 
L 120.06462 66.767773 
L 120.078571 66.710723 
L 120.115772 66.637936 
L 120.194826 66.714034 
L 120.283179 66.690847 
L 120.29248 66.660605 
L 120.31108 66.596929 
L 120.404084 66.675155 
L 120.497088 66.741394 
L 120.520339 66.708839 
L 120.715647 66.441644 
L 120.734248 66.468009 
L 121.887496 66.188496 
L 121.9712 66.151419 
L 122.003751 66.166128 
L 122.175808 66.273469 
L 122.185109 66.266656 
L 122.426919 66.117087 
L 122.45017 66.152218 
L 122.552474 66.282155 
L 122.608276 66.21504 
L 122.729181 66.16091 
L 122.850086 66.114119 
L 122.854736 66.094403 
L 123.017493 65.873192 
L 123.115147 65.996943 
L 123.166299 65.974286 
L 123.1756 65.982053 
L 123.217452 65.882031 
L 123.245353 65.891895 
L 123.254653 65.869776 
L 123.310455 65.815772 
L 123.361608 65.845498 
L 123.42206 65.812692 
L 123.552266 65.876294 
L 123.640619 65.826032 
L 123.673171 65.838957 
L 123.775475 65.878124 
L 123.780125 65.883531 
L 123.789425 65.916706 
L 123.873129 65.787218 
L 123.970783 65.830886 
L 123.887079 65.776577 
L 123.994034 65.823379 
L 124.110289 65.737807 
L 124.035886 65.846576 
L 124.114939 65.744399 
L 124.342798 65.664591 
L 124.38 65.638954 
L 124.38 65.638954 
" style="fill:none;stroke:#000000;stroke-linecap:square;stroke-width:0.3;"/>
   </g>
   <g id="line2d_4">
    <path clip-path="url(#p5b7c57bd8b)" d="M 94.158391 10.584212 
L 112.721964 10.584212 
" style="fill:none;stroke:#ffffff;stroke-linecap:square;"/>
   </g>
   <g id="line2d_5">
    <path clip-path="url(#p5b7c57bd8b)" d="M 113.224185 17.888936 
L 113.224185 10.730306 
" style="fill:none;stroke:#ffffff;stroke-linecap:square;"/>
   </g>
  </g>
 </g>
 <defs>
  <clipPath id="p5b7c57bd8b">
   <rect height="65.232" width="122.76" x="7.2" y="7.2"/>
  </clipPath>
 </defs>
</svg>
