<?xml version="1.0" encoding="utf-8" standalone="no"?>
<!DOCTYPE svg PUBLIC "-//W3C//DTD SVG 1.1//EN"
  "http://www.w3.org/Graphics/SVG/1.1/DTD/svg11.dtd">
<!-- Created with matplotlib (https://matplotlib.org/) -->
<svg height="99.925pt" version="1.1" viewBox="0 0 161.62625 99.925" width="161.62625pt" xmlns="http://www.w3.org/2000/svg" xmlns:xlink="http://www.w3.org/1999/xlink">
 <metadata>
  <rdf:RDF xmlns:cc="http://creativecommons.org/ns#" xmlns:dc="http://purl.org/dc/elements/1.1/" xmlns:rdf="http://www.w3.org/1999/02/22-rdf-syntax-ns#">
   <cc:Work>
    <dc:type rdf:resource="http://purl.org/dc/dcmitype/StillImage"/>
    <dc:date>2020-12-16T11:44:04.943514</dc:date>
    <dc:format>image/svg+xml</dc:format>
    <dc:creator>
     <cc:Agent>
      <dc:title>Matplotlib v3.3.2, https://matplotlib.org/</dc:title>
     </cc:Agent>
    </dc:creator>
   </cc:Work>
  </rdf:RDF>
 </metadata>
 <defs>
  <style type="text/css">*{stroke-linecap:butt;stroke-linejoin:round;}</style>
 </defs>
 <g id="figure_1">
  <g id="patch_1">
   <path d="M 0 99.925 
L 161.62625 99.925 
L 161.62625 0 
L 0 0 
z
" style="fill:none;"/>
  </g>
  <g id="axes_1">
   <g id="patch_2">
    <path d="M 42.82625 66.24 
L 154.42625 66.24 
L 154.42625 10.8 
L 42.82625 10.8 
z
" style="fill:#ffffff;"/>
   </g>
   <g id="patch_3">
    <path clip-path="url(#p83e42b3e31)" d="M 47.898977 31.556637 
L 49.562167 31.556637 
L 49.562167 13.32 
L 47.898977 13.32 
z
"/>
   </g>
   <g id="patch_4">
    <path clip-path="url(#p83e42b3e31)" d="M 51.225356 31.556637 
L 52.888545 31.556637 
L 52.888545 30.0678 
L 51.225356 30.0678 
z
"/>
   </g>
   <g id="patch_5">
    <path clip-path="url(#p83e42b3e31)" d="M 54.551734 31.556637 
L 56.214924 31.556637 
L 56.214924 31.479933 
L 54.551734 31.479933 
z
"/>
   </g>
   <g id="patch_6">
    <path clip-path="url(#p83e42b3e31)" d="M 57.878113 31.556637 
L 59.541302 31.556637 
L 59.541302 33.119618 
L 57.878113 33.119618 
z
"/>
   </g>
   <g id="patch_7">
    <path clip-path="url(#p83e42b3e31)" d="M 61.204491 31.556637 
L 62.867681 31.556637 
L 62.867681 33.791998 
L 61.204491 33.791998 
z
"/>
   </g>
   <g id="patch_8">
    <path clip-path="url(#p83e42b3e31)" d="M 64.53087 31.556637 
L 66.194059 31.556637 
L 66.194059 34.08285 
L 64.53087 34.08285 
z
"/>
   </g>
   <g id="patch_9">
    <path clip-path="url(#p83e42b3e31)" d="M 67.857249 31.556637 
L 69.520438 31.556637 
L 69.520438 35.08652 
L 67.857249 35.08652 
z
"/>
   </g>
   <g id="patch_10">
    <path clip-path="url(#p83e42b3e31)" d="M 71.183627 31.556637 
L 72.846816 31.556637 
L 72.846816 35.496001 
L 71.183627 35.496001 
z
"/>
   </g>
   <g id="patch_11">
    <path clip-path="url(#p83e42b3e31)" d="M 74.510006 31.556637 
L 76.173195 31.556637 
L 76.173195 36.617016 
L 74.510006 36.617016 
z
"/>
   </g>
   <g id="patch_12">
    <path clip-path="url(#p83e42b3e31)" d="M 77.836384 31.556637 
L 79.499573 31.556637 
L 79.499573 37.355811 
L 77.836384 37.355811 
z
"/>
   </g>
   <g id="patch_13">
    <path clip-path="url(#p83e42b3e31)" d="M 81.162763 31.556637 
L 82.825952 31.556637 
L 82.825952 37.959786 
L 81.162763 37.959786 
z
"/>
   </g>
   <g id="patch_14">
    <path clip-path="url(#p83e42b3e31)" d="M 84.489141 31.556637 
L 86.15233 31.556637 
L 86.15233 38.090552 
L 84.489141 38.090552 
z
"/>
   </g>
   <g id="patch_15">
    <path clip-path="url(#p83e42b3e31)" d="M 87.81552 31.556637 
L 89.478709 31.556637 
L 89.478709 38.578582 
L 87.81552 38.578582 
z
"/>
   </g>
   <g id="patch_16">
    <path clip-path="url(#p83e42b3e31)" d="M 91.141898 31.556637 
L 92.805088 31.556637 
L 92.805088 39.25213 
L 91.141898 39.25213 
z
"/>
   </g>
   <g id="patch_17">
    <path clip-path="url(#p83e42b3e31)" d="M 94.468277 31.556637 
L 96.131466 31.556637 
L 96.131466 39.564603 
L 94.468277 39.564603 
z
"/>
   </g>
   <g id="patch_18">
    <path clip-path="url(#p83e42b3e31)" d="M 97.794655 31.556637 
L 99.457845 31.556637 
L 99.457845 39.913118 
L 97.794655 39.913118 
z
"/>
   </g>
   <g id="patch_19">
    <path clip-path="url(#p83e42b3e31)" d="M 101.121034 31.556637 
L 102.784223 31.556637 
L 102.784223 40.611259 
L 101.121034 40.611259 
z
"/>
   </g>
   <g id="patch_20">
    <path clip-path="url(#p83e42b3e31)" d="M 104.447412 31.556637 
L 106.110602 31.556637 
L 106.110602 41.255908 
L 104.447412 41.255908 
z
"/>
   </g>
   <g id="patch_21">
    <path clip-path="url(#p83e42b3e31)" d="M 107.773791 31.556637 
L 109.43698 31.556637 
L 109.43698 42.821547 
L 107.773791 42.821547 
z
"/>
   </g>
   <g id="patch_22">
    <path clip-path="url(#p83e42b3e31)" d="M 111.10017 31.556637 
L 112.763359 31.556637 
L 112.763359 44.956339 
L 111.10017 44.956339 
z
"/>
   </g>
   <g id="patch_23">
    <path clip-path="url(#p83e42b3e31)" d="M 114.426548 31.556637 
L 116.089737 31.556637 
L 116.089737 51.320644 
L 114.426548 51.320644 
z
"/>
   </g>
   <g id="patch_24">
    <path clip-path="url(#p83e42b3e31)" d="M 117.752927 31.556637 
L 119.416116 31.556637 
L 119.416116 52.056675 
L 117.752927 52.056675 
z
"/>
   </g>
   <g id="patch_25">
    <path clip-path="url(#p83e42b3e31)" d="M 121.079305 31.556637 
L 122.742494 31.556637 
L 122.742494 54.509893 
L 121.079305 54.509893 
z
"/>
   </g>
   <g id="patch_26">
    <path clip-path="url(#p83e42b3e31)" d="M 124.405684 31.556637 
L 126.068873 31.556637 
L 126.068873 57.358272 
L 124.405684 57.358272 
z
"/>
   </g>
   <g id="patch_27">
    <path clip-path="url(#p83e42b3e31)" d="M 127.732062 31.556637 
L 129.395251 31.556637 
L 129.395251 62.991973 
L 127.732062 62.991973 
z
"/>
   </g>
   <g id="patch_28">
    <path clip-path="url(#p83e42b3e31)" d="M 131.058441 31.556637 
L 132.72163 31.556637 
L 132.72163 63.72 
L 131.058441 63.72 
z
"/>
   </g>
   <g id="patch_29">
    <path clip-path="url(#p83e42b3e31)" d="M 134.384819 31.556637 
L 136.048009 31.556637 
L 136.048009 57.018696 
L 134.384819 57.018696 
z
"/>
   </g>
   <g id="patch_30">
    <path clip-path="url(#p83e42b3e31)" d="M 137.711198 31.556637 
L 139.374387 31.556637 
L 139.374387 55.574892 
L 137.711198 55.574892 
z
"/>
   </g>
   <g id="patch_31">
    <path clip-path="url(#p83e42b3e31)" d="M 141.037576 31.556637 
L 142.700766 31.556637 
L 142.700766 54.501624 
L 141.037576 54.501624 
z
"/>
   </g>
   <g id="patch_32">
    <path clip-path="url(#p83e42b3e31)" d="M 144.363955 31.556637 
L 146.027144 31.556637 
L 146.027144 52.627276 
L 144.363955 52.627276 
z
"/>
   </g>
   <g id="patch_33">
    <path clip-path="url(#p83e42b3e31)" d="M 147.690333 31.556637 
L 149.353523 31.556637 
L 149.353523 51.647411 
L 147.690333 51.647411 
z
"/>
   </g>
   <g id="matplotlib.axis_1">
    <g id="xtick_1">
     <g id="line2d_1">
      <defs>
       <path d="M 0 0 
L 0 3.5 
" id="m4b3f5c754c" style="stroke:#000000;stroke-width:1.5;"/>
      </defs>
      <g>
       <use style="stroke:#000000;stroke-width:1.5;" x="48.730572" xlink:href="#m4b3f5c754c" y="66.24"/>
      </g>
     </g>
     <g id="text_1">
      <text style="font-family:DejaVu Sans;font-size:8px;font-stretch:normal;font-style:normal;font-weight:normal;text-anchor:middle;" transform="rotate(-0, 48.730572, 79.31875)" x="48.730572" y="79.31875">0</text>
     </g>
    </g>
    <g id="xtick_2">
     <g id="line2d_2">
      <g>
       <use style="stroke:#000000;stroke-width:1.5;" x="81.994357" xlink:href="#m4b3f5c754c" y="66.24"/>
      </g>
     </g>
     <g id="text_2">
      <text style="font-family:DejaVu Sans;font-size:8px;font-stretch:normal;font-style:normal;font-weight:normal;text-anchor:middle;" transform="rotate(-0, 81.994357, 79.31875)" x="81.994357" y="79.31875">10</text>
     </g>
    </g>
    <g id="xtick_3">
     <g id="line2d_3">
      <g>
       <use style="stroke:#000000;stroke-width:1.5;" x="115.258143" xlink:href="#m4b3f5c754c" y="66.24"/>
      </g>
     </g>
     <g id="text_3">
      <text style="font-family:DejaVu Sans;font-size:8px;font-stretch:normal;font-style:normal;font-weight:normal;text-anchor:middle;" transform="rotate(-0, 115.258143, 79.31875)" x="115.258143" y="79.31875">20</text>
     </g>
    </g>
    <g id="xtick_4">
     <g id="line2d_4">
      <g>
       <use style="stroke:#000000;stroke-width:1.5;" x="148.521928" xlink:href="#m4b3f5c754c" y="66.24"/>
      </g>
     </g>
     <g id="text_4">
      <text style="font-family:DejaVu Sans;font-size:8px;font-stretch:normal;font-style:normal;font-weight:normal;text-anchor:middle;" transform="rotate(-0, 148.521928, 79.31875)" x="148.521928" y="79.31875">30</text>
     </g>
    </g>
    <g id="text_5">
     <text style="font-family:DejaVu Sans;font-size:8px;font-stretch:normal;font-style:normal;font-weight:normal;text-anchor:middle;" transform="rotate(-0, 98.62625, 91.06125)" x="98.62625" y="91.06125">Dimension</text>
    </g>
   </g>
   <g id="matplotlib.axis_2">
    <g id="ytick_1">
     <g id="line2d_5">
      <defs>
       <path d="M 0 0 
L -3.5 0 
" id="m2eaa6815a7" style="stroke:#000000;stroke-width:1.5;"/>
      </defs>
      <g>
       <use style="stroke:#000000;stroke-width:1.5;" x="42.82625" xlink:href="#m2eaa6815a7" y="54.519318"/>
      </g>
     </g>
     <g id="text_6">
      <text style="font-family:DejaVu Sans;font-size:8px;font-stretch:normal;font-style:normal;font-weight:normal;text-anchor:end;" transform="rotate(-0, 35.82625, 57.558693)" x="35.82625" y="57.558693">−10</text>
     </g>
    </g>
    <g id="ytick_2">
     <g id="line2d_6">
      <g>
       <use style="stroke:#000000;stroke-width:1.5;" x="42.82625" xlink:href="#m2eaa6815a7" y="31.556637"/>
      </g>
     </g>
     <g id="text_7">
      <text style="font-family:DejaVu Sans;font-size:8px;font-stretch:normal;font-style:normal;font-weight:normal;text-anchor:end;" transform="rotate(-0, 35.82625, 34.596012)" x="35.82625" y="34.596012">0</text>
     </g>
    </g>
    <g id="text_8">
     <text style="font-family:DejaVu Sans;font-size:8px;font-stretch:normal;font-style:normal;font-weight:normal;text-anchor:middle;" transform="rotate(-90, 13.27875, 38.52)" x="13.27875" y="38.52">log(Eigenvalue)</text>
    </g>
   </g>
   <g id="patch_34">
    <path d="M 42.82625 66.24 
L 42.82625 10.8 
" style="fill:none;stroke:#000000;stroke-linecap:square;stroke-linejoin:miter;stroke-width:1.5;"/>
   </g>
   <g id="patch_35">
    <path d="M 42.82625 66.24 
L 154.42625 66.24 
" style="fill:none;stroke:#000000;stroke-linecap:square;stroke-linejoin:miter;stroke-width:1.5;"/>
   </g>
  </g>
 </g>
 <defs>
  <clipPath id="p83e42b3e31">
   <rect height="55.44" width="111.6" x="42.82625" y="10.8"/>
  </clipPath>
 </defs>
</svg>
