<?xml version="1.0" encoding="utf-8" standalone="no"?>
<!DOCTYPE svg PUBLIC "-//W3C//DTD SVG 1.1//EN"
  "http://www.w3.org/Graphics/SVG/1.1/DTD/svg11.dtd">
<!-- Created with matplotlib (https://matplotlib.org/) -->
<svg height="118.9765pt" version="1.1" viewBox="0 0 603.195213 118.9765" width="603.195213pt" xmlns="http://www.w3.org/2000/svg" xmlns:xlink="http://www.w3.org/1999/xlink">
 <defs>
  <style type="text/css">
*{stroke-linecap:butt;stroke-linejoin:round;}
  </style>
 </defs>
 <g id="figure_1">
  <g id="patch_1">
   <path d="M 0 118.9765 
L 603.195213 118.9765 
L 603.195213 -0 
L 0 -0 
z
" style="fill:none;"/>
  </g>
  <g id="axes_1">
   <g id="patch_2">
    <path d="M 17.24 81.144 
L 76.601702 81.144 
L 76.601702 7.2 
L 17.24 7.2 
z
" style="fill:none;"/>
   </g>
   <g id="matplotlib.axis_1">
    <g id="xtick_1">
     <g id="line2d_1">
      <defs>
       <path d="M 0 0 
L 0 3.5 
" id="md1dd4d2151" style="stroke:#000000;stroke-width:1.5;"/>
      </defs>
      <g>
       <use style="stroke:#000000;stroke-width:1.5;" x="17.24" xlink:href="#md1dd4d2151" y="86.144"/>
      </g>
     </g>
     <g id="text_1">
      <!-- $\mathdefault{0.00}$   -->
      <g transform="translate(7.2 98.87025)">
       <text>
        <tspan style="font-family:Arial;font-size:8px;font-style:regular;font-weight:regular;" x="0 4.449219 6.671875 11.121094 15.570312 17.792969" y="-0.25">0.00  </tspan>
       </text>
      </g>
     </g>
    </g>
    <g id="xtick_2">
     <g id="line2d_2">
      <g>
       <use style="stroke:#000000;stroke-width:1.5;" x="76.601702" xlink:href="#md1dd4d2151" y="86.144"/>
      </g>
     </g>
     <g id="text_2">
      <!-- $\mathdefault{2.50}\;\;\;$   -->
      <g transform="translate(63.801702 98.87025)">
       <text>
        <tspan style="font-family:Arial;font-size:8px;font-style:regular;font-weight:regular;" x="0 4.449219 6.671875 11.121094 21.123742 23.346399" y="-0.25">2.50  </tspan>
       </text>
      </g>
     </g>
    </g>
    <g id="text_3">
     <text style="font-family:Arial;font-size:8px;font-style:normal;font-weight:normal;text-anchor:middle;" transform="rotate(-0, 46.920851, 110.1865)" x="46.920851" y="110.1865">LP-CaT</text>
    </g>
   </g>
   <g id="matplotlib.axis_2">
    <g id="ytick_1"/>
    <g id="ytick_2"/>
   </g>
   <g id="line2d_3">
    <path clip-path="url(#p06ee5f14cf)" d="M 17.24 53.468797 
L 17.839613 49.254367 
L 18.439226 45.071546 
L 19.038839 41.006908 
L 19.638453 37.136656 
L 20.238066 33.522439 
L 20.837679 30.208811 
L 21.437292 27.222371 
L 22.036905 24.572416 
L 22.636518 22.25282 
L 23.236132 20.244794 
L 23.835745 18.5202 
L 24.435358 17.045161 
L 25.034971 15.783728 
L 25.634584 14.701384 
L 26.234197 13.768171 
L 26.83381 12.96119 
L 27.433424 12.266221 
L 28.033037 11.678292 
L 28.63265 11.201109 
L 29.232263 10.845401 
L 29.831876 10.626441 
L 30.431489 10.561091 
L 31.031103 10.664822 
L 31.630716 10.949144 
L 32.230329 11.419773 
L 32.829942 12.075739 
L 33.429555 12.909425 
L 34.029168 13.90739 
L 34.628781 15.051714 
L 35.228395 16.321529 
L 35.828008 17.694466 
L 36.427621 19.147768 
L 37.027234 20.658978 
L 37.626847 22.206208 
L 38.22646 23.768097 
L 38.826074 25.323665 
L 39.425687 26.85225 
L 40.0253 28.333755 
L 40.624913 29.749272 
L 41.224526 31.082118 
L 41.824139 32.319151 
L 42.423752 33.452136 
L 43.023366 34.478879 
L 43.622979 35.40385 
L 44.222592 36.238084 
L 44.822205 36.998294 
L 45.421818 37.705264 
L 46.021431 38.381764 
L 46.621044 39.050293 
L 47.220658 39.731007 
L 47.820271 40.440108 
L 48.419884 41.188854 
L 49.019497 41.983238 
L 49.61911 42.824204 
L 50.218723 43.708251 
L 50.818337 44.628209 
L 51.41795 45.574045 
L 52.017563 46.533636 
L 52.617176 47.493507 
L 53.216789 48.439628 
L 53.816402 49.358317 
L 54.416015 50.237306 
L 55.015629 51.066917 
L 55.615242 51.841208 
L 56.214855 52.558898 
L 56.814468 53.223845 
L 57.414081 53.844899 
L 58.013694 54.435027 
L 58.613308 55.009765 
L 59.212921 55.585151 
L 59.812534 56.175445 
L 60.412147 56.791001 
L 61.01176 57.436643 
L 61.611373 58.110871 
L 62.210986 58.806068 
L 62.8106 59.509729 
L 63.410213 60.206569 
L 64.009826 60.881173 
L 64.609439 61.520791 
L 65.209052 62.117791 
L 65.808665 62.67137 
L 66.408279 63.188209 
L 67.007892 63.681946 
L 67.607505 64.171565 
L 68.207118 64.678976 
L 68.806731 65.22619 
L 69.406344 65.832602 
L 70.005957 66.512781 
L 70.605571 67.275116 
L 71.205184 68.121417 
L 71.804797 69.047406 
L 72.40441 70.043862 
L 73.004023 71.098083 
L 73.603636 72.195326 
L 74.20325 73.319976 
L 74.802863 74.456309 
L 75.402476 75.588874 
L 76.002089 76.702615 
L 76.601702 77.782909 
" style="fill:none;stroke:#2e7fe8;stroke-linecap:square;stroke-width:1.5;"/>
   </g>
   <g id="patch_3">
    <path d="M 17.24 86.144 
L 76.601702 86.144 
" style="fill:none;stroke:#000000;stroke-linecap:square;stroke-linejoin:miter;stroke-width:1.5;"/>
   </g>
  </g>
  <g id="axes_2">
   <g id="patch_4">
    <path d="M 88.474043 81.144 
L 147.835745 81.144 
L 147.835745 7.2 
L 88.474043 7.2 
z
" style="fill:none;"/>
   </g>
   <g id="matplotlib.axis_3">
    <g id="xtick_3">
     <g id="line2d_4">
      <g>
       <use style="stroke:#000000;stroke-width:1.5;" x="88.474043" xlink:href="#md1dd4d2151" y="86.144"/>
      </g>
     </g>
     <g id="text_4">
      <!-- $\mathdefault{0.0}$   -->
      <g transform="translate(80.674043 98.87025)">
       <text>
        <tspan style="font-family:Arial;font-size:8px;font-style:regular;font-weight:regular;" x="0 4.449219 6.671875 11.121094 13.34375" y="-0.25">0.0  </tspan>
       </text>
      </g>
     </g>
    </g>
    <g id="xtick_4">
     <g id="line2d_5">
      <g>
       <use style="stroke:#000000;stroke-width:1.5;" x="147.835745" xlink:href="#md1dd4d2151" y="86.144"/>
      </g>
     </g>
     <g id="text_5">
      <!-- $\mathdefault{125.0}\;\;\;$   -->
      <g transform="translate(132.795745 98.87025)">
       <text>
        <tspan style="font-family:Arial;font-size:8px;font-style:regular;font-weight:regular;" x="0 4.449219 8.898438 13.347656 15.570312 25.572961 27.795617" y="-0.25">125.0  </tspan>
       </text>
      </g>
     </g>
    </g>
    <g id="text_6">
     <text style="font-family:Arial;font-size:8px;font-style:normal;font-weight:normal;text-anchor:middle;" transform="rotate(-0, 118.154894, 110.1865)" x="118.154894" y="110.1865">LP-Kd</text>
    </g>
   </g>
   <g id="matplotlib.axis_4">
    <g id="ytick_3"/>
    <g id="ytick_4"/>
    <g id="ytick_5"/>
   </g>
   <g id="line2d_6">
    <path clip-path="url(#pa8e35715c2)" d="M 88.474043 77.782909 
L 89.073656 77.759603 
L 89.673269 77.725496 
L 90.272882 77.67684 
L 90.872495 77.609008 
L 91.472108 77.516366 
L 92.071721 77.392117 
L 92.671335 77.22817 
L 93.270948 77.015065 
L 93.870561 76.742094 
L 94.470174 76.397712 
L 95.069787 75.970389 
L 95.6694 75.449939 
L 96.269014 74.829262 
L 96.868627 74.106256 
L 97.46824 73.285482 
L 98.067853 72.379069 
L 98.667466 71.406351 
L 99.267079 70.391947 
L 99.866692 69.362329 
L 100.466306 68.341358 
L 101.065919 67.345655 
L 101.665532 66.380877 
L 102.265145 65.439883 
L 102.864758 64.503423 
L 103.464371 63.543395 
L 104.063985 62.528114 
L 104.663598 61.428556 
L 105.263211 60.224319 
L 105.862824 58.90813 
L 106.462437 57.488072 
L 107.06205 55.987166 
L 107.661663 54.440439 
L 108.261277 52.890019 
L 108.86089 51.379087 
L 109.460503 49.945663 
L 110.060116 48.617236 
L 110.659729 47.407107 
L 111.259342 46.312994 
L 111.858956 45.318066 
L 112.458569 44.394042 
L 113.058182 43.505592 
L 113.657795 42.615059 
L 114.257408 41.686534 
L 114.857021 40.688695 
L 115.456634 39.596256 
L 116.056248 38.390368 
L 116.655861 37.058642 
L 117.255474 35.595446 
L 117.855087 34.002907 
L 118.4547 32.292623 
L 119.054313 30.487605 
L 119.653926 28.623677 
L 120.25354 26.749472 
L 120.853153 24.924372 
L 121.452766 23.21413 
L 122.052379 21.684474 
L 122.651992 20.393496 
L 123.251605 19.384 
L 123.851219 18.677125 
L 124.450832 18.268489 
L 125.050445 18.127732 
L 125.650058 18.201827 
L 126.249671 18.421907 
L 126.849284 18.712662 
L 127.448897 19.002805 
L 128.048511 19.234739 
L 128.648124 19.371542 
L 129.247737 19.399821 
L 129.84735 19.327797 
L 130.446963 19.179045 
L 131.046576 18.983381 
L 131.64619 18.767088 
L 132.245803 18.544851 
L 132.845416 18.315335 
L 133.445029 18.061378 
L 134.044642 17.754591 
L 134.644255 17.363059 
L 135.243868 16.860141 
L 135.843482 16.232251 
L 136.443095 15.483924 
L 137.042708 14.639327 
L 137.642321 13.74037 
L 138.241934 12.842398 
L 138.841547 12.008908 
L 139.441161 11.306705 
L 140.040774 10.802474 
L 140.640387 10.561091 
L 141.24 10.645294 
L 141.839613 11.115906 
L 142.439226 12.031573 
L 143.038839 13.447091 
L 143.638453 15.409744 
L 144.238066 17.953544 
L 144.837679 21.091868 
L 145.437292 24.809647 
L 146.036905 29.056738 
L 146.636518 33.744426 
L 147.236132 38.746748 
L 147.835745 43.907598 
" style="fill:none;stroke:#2e7fe8;stroke-linecap:square;stroke-width:1.5;"/>
   </g>
   <g id="patch_5">
    <path d="M 88.474043 86.144 
L 147.835745 86.144 
" style="fill:none;stroke:#000000;stroke-linecap:square;stroke-linejoin:miter;stroke-width:1.5;"/>
   </g>
  </g>
  <g id="axes_3">
   <g id="patch_6">
    <path d="M 159.708085 81.144 
L 219.069787 81.144 
L 219.069787 7.2 
L 159.708085 7.2 
z
" style="fill:none;"/>
   </g>
   <g id="matplotlib.axis_5">
    <g id="xtick_5">
     <g id="line2d_7">
      <g>
       <use style="stroke:#000000;stroke-width:1.5;" x="159.708085" xlink:href="#md1dd4d2151" y="86.144"/>
      </g>
     </g>
     <g id="text_7">
      <!-- $\mathdefault{0.00}$   -->
      <g transform="translate(149.668085 98.87025)">
       <text>
        <tspan style="font-family:Arial;font-size:8px;font-style:regular;font-weight:regular;" x="0 4.449219 6.671875 11.121094 15.570312 17.792969" y="-0.25">0.00  </tspan>
       </text>
      </g>
     </g>
    </g>
    <g id="xtick_6">
     <g id="line2d_8">
      <g>
       <use style="stroke:#000000;stroke-width:1.5;" x="219.069787" xlink:href="#md1dd4d2151" y="86.144"/>
      </g>
     </g>
     <g id="text_8">
      <!-- $\mathdefault{0.06}\;\;\;$   -->
      <g transform="translate(206.269787 98.87025)">
       <text>
        <tspan style="font-family:Arial;font-size:8px;font-style:regular;font-weight:regular;" x="0 4.449219 6.671875 11.121094 21.123742 23.346399" y="-0.25">0.06  </tspan>
       </text>
      </g>
     </g>
    </g>
    <g id="text_9">
     <text style="font-family:Arial;font-size:8px;font-style:normal;font-weight:normal;text-anchor:middle;" transform="rotate(-0, 189.388936, 110.1865)" x="189.388936" y="110.1865">LP-H</text>
    </g>
   </g>
   <g id="matplotlib.axis_6">
    <g id="ytick_6"/>
    <g id="ytick_7"/>
    <g id="ytick_8"/>
   </g>
   <g id="line2d_9">
    <path clip-path="url(#pb693c9fc10)" d="M 159.708085 77.782909 
L 160.307698 74.151273 
L 160.907311 70.58571 
L 161.506925 67.153481 
L 162.106538 63.913215 
L 162.706151 60.911512 
L 163.305764 58.180682 
L 163.905377 55.737806 
L 164.50499 53.585151 
L 165.104603 51.711777 
L 165.704217 50.096084 
L 166.30383 48.708914 
L 166.903443 47.516819 
L 167.503056 46.485148 
L 168.102669 45.58066 
L 168.702282 44.773499 
L 169.301896 44.038469 
L 169.901509 43.355654 
L 170.501122 42.710482 
L 171.100735 42.093394 
L 171.700348 41.499247 
L 172.299961 40.926573 
L 172.899574 40.376768 
L 173.499188 39.853257 
L 174.098801 39.360619 
L 174.698414 38.903679 
L 175.298027 38.486557 
L 175.89764 38.111685 
L 176.497253 37.778855 
L 177.096867 37.484372 
L 177.69648 37.220431 
L 178.296093 36.974837 
L 178.895706 36.731179 
L 179.495319 36.469531 
L 180.094932 36.1677 
L 180.694545 35.802961 
L 181.294159 35.354144 
L 181.893772 34.803857 
L 182.493385 34.140607 
L 183.092998 33.360535 
L 183.692611 32.468518 
L 184.292224 31.47848 
L 184.891838 30.412799 
L 185.491451 29.300862 
L 186.091064 28.176914 
L 186.690677 27.077416 
L 187.29029 26.038242 
L 187.889903 25.092007 
L 188.489516 24.265809 
L 189.08913 23.579608 
L 189.688743 23.045345 
L 190.288356 22.666828 
L 190.887969 22.440293 
L 191.487582 22.355498 
L 192.087195 22.39716 
L 192.686809 22.54653 
L 193.286422 22.78294 
L 193.886035 23.085186 
L 194.485648 23.432656 
L 195.085261 23.806165 
L 195.684874 24.188502 
L 196.284487 24.564703 
L 196.884101 24.922094 
L 197.483714 25.250146 
L 198.083327 25.540174 
L 198.68294 25.784943 
L 199.282553 25.978198 
L 199.882166 26.114185 
L 200.481779 26.187204 
L 201.081393 26.19124 
L 201.681006 26.11973 
L 202.280619 25.965485 
L 202.880232 25.7208 
L 203.479845 25.377748 
L 204.079458 24.928633 
L 204.679072 24.366604 
L 205.278685 23.686369 
L 205.878298 22.88502 
L 206.477911 21.962943 
L 207.077524 20.924832 
L 207.677137 19.780803 
L 208.27675 18.547625 
L 208.876364 17.250013 
L 209.475977 15.921931 
L 210.07559 14.607733 
L 210.675203 13.362943 
L 211.274816 12.254421 
L 211.874429 11.359609 
L 212.474043 10.764638 
L 213.073656 10.561091 
L 213.673269 10.841443 
L 214.272882 11.693305 
L 214.872495 13.19286 
L 215.472108 15.398057 
L 216.071721 18.342241 
L 216.671335 22.029004 
L 217.270948 26.42893 
L 217.870561 31.478806 
L 218.470174 37.083563 
L 219.069787 43.120941 
" style="fill:none;stroke:#2e7fe8;stroke-linecap:square;stroke-width:1.5;"/>
   </g>
   <g id="patch_7">
    <path d="M 159.708085 86.144 
L 219.069787 86.144 
" style="fill:none;stroke:#000000;stroke-linecap:square;stroke-linejoin:miter;stroke-width:1.5;"/>
   </g>
  </g>
  <g id="axes_4">
   <g id="patch_8">
    <path d="M 230.942128 81.144 
L 290.30383 81.144 
L 290.30383 7.2 
L 230.942128 7.2 
z
" style="fill:none;"/>
   </g>
   <g id="matplotlib.axis_7">
    <g id="xtick_7">
     <g id="line2d_10">
      <g>
       <use style="stroke:#000000;stroke-width:1.5;" x="230.942128" xlink:href="#md1dd4d2151" y="86.144"/>
      </g>
     </g>
     <g id="text_10">
      <!-- $\mathdefault{0.00}$   -->
      <g transform="translate(220.902128 98.87025)">
       <text>
        <tspan style="font-family:Arial;font-size:8px;font-style:regular;font-weight:regular;" x="0 4.449219 6.671875 11.121094 15.570312 17.792969" y="-0.25">0.00  </tspan>
       </text>
      </g>
     </g>
    </g>
    <g id="xtick_8">
     <g id="line2d_11">
      <g>
       <use style="stroke:#000000;stroke-width:1.5;" x="290.30383" xlink:href="#md1dd4d2151" y="86.144"/>
      </g>
     </g>
     <g id="text_11">
      <!-- $\mathdefault{5.00}\;\;\;$   -->
      <g transform="translate(277.50383 98.87025)">
       <text>
        <tspan style="font-family:Arial;font-size:8px;font-style:regular;font-weight:regular;" x="0 4.449219 6.671875 11.121094 21.123742 23.346399" y="-0.25">5.00  </tspan>
       </text>
      </g>
     </g>
    </g>
    <g id="text_12">
     <text style="font-family:Arial;font-size:8px;font-style:normal;font-weight:normal;text-anchor:middle;" transform="rotate(-0, 260.622979, 110.1865)" x="260.622979" y="110.1865">PY-KCa</text>
    </g>
   </g>
   <g id="matplotlib.axis_8">
    <g id="ytick_9"/>
    <g id="ytick_10"/>
    <g id="ytick_11"/>
   </g>
   <g id="line2d_12">
    <path clip-path="url(#p4140ae471b)" d="M 230.942128 45.851115 
L 231.541741 41.029108 
L 232.141354 36.557599 
L 232.740967 32.589849 
L 233.34058 29.205864 
L 233.940193 26.408031 
L 234.539807 24.132691 
L 235.13942 22.273634 
L 235.739033 20.710562 
L 236.338646 19.334982 
L 236.938259 18.067701 
L 237.537872 16.865387 
L 238.137485 15.717171 
L 238.737099 14.634854 
L 239.336712 13.641256 
L 239.936325 12.760539 
L 240.535938 12.012573 
L 241.135551 11.41134 
L 241.735164 10.965886 
L 242.334778 10.681727 
L 242.934391 10.561091 
L 243.534004 10.601438 
L 244.133617 10.792943 
L 244.73323 11.116453 
L 245.332843 11.54361 
L 245.932456 12.040169 
L 246.53207 12.572466 
L 247.131683 13.115665 
L 247.731296 13.661494 
L 248.330909 14.222918 
L 248.930522 14.833777 
L 249.530135 15.54275 
L 250.129749 16.402635 
L 250.729362 17.457415 
L 251.328975 18.730356 
L 251.928588 20.216233 
L 252.528201 21.879704 
L 253.127814 23.660233 
L 253.727427 25.482259 
L 254.327041 27.268127 
L 254.926654 28.950792 
L 255.526267 30.483673 
L 256.12588 31.845951 
L 256.725493 33.042791 
L 257.325106 34.101104 
L 257.92472 35.062289 
L 258.524333 35.973799 
L 259.123946 36.881312 
L 259.723559 37.822881 
L 260.323172 38.825771 
L 260.922785 39.905934 
L 261.522398 41.069487 
L 262.122012 42.315211 
L 262.721625 43.637065 
L 263.321238 45.026004 
L 263.920851 46.470807 
L 264.520464 47.958056 
L 265.120077 49.471729 
L 265.719691 50.992996 
L 266.319304 52.500744 
L 266.918917 53.973111 
L 267.51853 55.389949 
L 268.118143 56.735771 
L 268.717756 58.002428 
L 269.317369 59.190697 
L 269.916983 60.310111 
L 270.516596 61.376814 
L 271.116209 62.409735 
L 271.715822 63.425962 
L 272.315435 64.436429 
L 272.915048 65.443074 
L 273.514662 66.438236 
L 274.114275 67.406472 
L 274.713888 68.328331 
L 275.313501 69.185083 
L 275.913114 69.963182 
L 276.512727 70.657318 
L 277.11234 71.271355 
L 277.711954 71.81705 
L 278.311567 72.311038 
L 278.91118 72.771016 
L 279.510793 73.212169 
L 280.110406 73.644694 
L 280.710019 74.072849 
L 281.309632 74.495463 
L 281.909246 74.907481 
L 282.508859 75.301915 
L 283.108472 75.671651 
L 283.708085 76.010777 
L 284.307698 76.315333 
L 284.907311 76.583554 
L 285.506925 76.815782 
L 286.106538 77.014152 
L 286.706151 77.182155 
L 287.305764 77.324098 
L 287.905377 77.444526 
L 288.50499 77.547656 
L 289.104603 77.636948 
L 289.704217 77.71487 
L 290.30383 77.782909 
" style="fill:none;stroke:#2e7fe8;stroke-linecap:square;stroke-width:1.5;"/>
   </g>
   <g id="patch_9">
    <path d="M 230.942128 86.144 
L 290.30383 86.144 
" style="fill:none;stroke:#000000;stroke-linecap:square;stroke-linejoin:miter;stroke-width:1.5;"/>
   </g>
  </g>
  <g id="axes_5">
   <g id="patch_10">
    <path d="M 302.17617 81.144 
L 361.537872 81.144 
L 361.537872 7.2 
L 302.17617 7.2 
z
" style="fill:none;"/>
   </g>
   <g id="matplotlib.axis_9">
    <g id="xtick_9">
     <g id="line2d_13">
      <g>
       <use style="stroke:#000000;stroke-width:1.5;" x="302.17617" xlink:href="#md1dd4d2151" y="86.144"/>
      </g>
     </g>
     <g id="text_13">
      <!-- $\mathdefault{50.0}$   -->
      <g transform="translate(292.13617 98.87025)">
       <text>
        <tspan style="font-family:Arial;font-size:8px;font-style:regular;font-weight:regular;" x="0 4.449219 8.898438 11.121094 15.570312 17.792969" y="-0.25">50.0  </tspan>
       </text>
      </g>
     </g>
    </g>
    <g id="xtick_10">
     <g id="line2d_14">
      <g>
       <use style="stroke:#000000;stroke-width:1.5;" x="361.537872" xlink:href="#md1dd4d2151" y="86.144"/>
      </g>
     </g>
     <g id="text_14">
      <!-- $\mathdefault{150.0}\;\;\;$   -->
      <g transform="translate(346.497872 98.87025)">
       <text>
        <tspan style="font-family:Arial;font-size:8px;font-style:regular;font-weight:regular;" x="0 4.449219 8.898438 13.347656 15.570312 25.572961 27.795617" y="-0.25">150.0  </tspan>
       </text>
      </g>
     </g>
    </g>
    <g id="text_15">
     <text style="font-family:Arial;font-size:8px;font-style:normal;font-weight:normal;text-anchor:middle;" transform="rotate(-0, 331.857021, 110.1865)" x="331.857021" y="110.1865">PY-Kd</text>
    </g>
   </g>
   <g id="matplotlib.axis_10">
    <g id="ytick_12"/>
    <g id="ytick_13"/>
    <g id="ytick_14"/>
   </g>
   <g id="line2d_15">
    <path clip-path="url(#pe1463166f7)" d="M 302.17617 77.782909 
L 302.775783 74.660011 
L 303.375397 71.509136 
L 303.97501 68.379725 
L 304.574623 65.317803 
L 305.174236 62.363859 
L 305.773849 59.551369 
L 306.373462 56.906029 
L 306.973075 54.445695 
L 307.572689 52.180912 
L 308.172302 50.115887 
L 308.771915 48.249709 
L 309.371528 46.577649 
L 309.971141 45.092385 
L 310.570754 43.785067 
L 311.170368 42.646148 
L 311.769981 41.665973 
L 312.369594 40.835128 
L 312.969207 40.144576 
L 313.56882 39.585591 
L 314.168433 39.149526 
L 314.768046 38.827421 
L 315.36766 38.609501 
L 315.967273 38.48459 
L 316.566886 38.439524 
L 317.166499 38.458625 
L 317.766112 38.523353 
L 318.365725 38.612216 
L 318.965338 38.701028 
L 319.564952 38.763573 
L 320.164565 38.772672 
L 320.764178 38.701635 
L 321.363791 38.525969 
L 321.963404 38.225233 
L 322.563017 37.784828 
L 323.162631 37.197537 
L 323.762244 36.464624 
L 324.361857 35.596329 
L 324.96147 34.611653 
L 325.561083 33.537412 
L 326.160696 32.406588 
L 326.760309 31.256114 
L 327.359923 30.124269 
L 327.959536 29.047905 
L 328.559149 28.059747 
L 329.158762 27.186003 
L 329.758375 26.444478 
L 330.357988 25.843337 
L 330.957602 25.380636 
L 331.557215 25.044626 
L 332.156828 24.814834 
L 332.756441 24.663829 
L 333.356054 24.559552 
L 333.955667 24.468041 
L 334.55528 24.356335 
L 335.154894 24.195338 
L 335.754507 23.962375 
L 336.35412 23.643198 
L 336.953733 23.23321 
L 337.553346 22.737741 
L 338.152959 22.171282 
L 338.752573 21.555703 
L 339.352186 20.917584 
L 339.951799 20.284943 
L 340.551412 19.683717 
L 341.151025 19.134431 
L 341.750638 18.649508 
L 342.350251 18.231576 
L 342.949865 17.873068 
L 343.549478 17.557184 
L 344.149091 17.260142 
L 344.748704 16.954432 
L 345.348317 16.612656 
L 345.94793 16.211447 
L 346.547544 15.734966 
L 347.147157 15.177525 
L 347.74677 14.545049 
L 348.346383 13.855235 
L 348.945996 13.136503 
L 349.545609 12.425953 
L 350.145222 11.766712 
L 350.744836 11.205109 
L 351.344449 10.78807 
L 351.944062 10.561091 
L 352.543675 10.566971 
L 353.143288 10.845317 
L 353.742901 11.432663 
L 354.342515 12.362909 
L 354.942128 13.667656 
L 355.541741 15.376078 
L 356.141354 17.513984 
L 356.740967 20.101951 
L 357.34058 23.152577 
L 357.940193 26.667177 
L 358.539807 30.632396 
L 359.13942 35.017369 
L 359.739033 39.77203 
L 360.338646 44.827081 
L 360.938259 50.095901 
L 361.537872 55.478385 
" style="fill:none;stroke:#2e7fe8;stroke-linecap:square;stroke-width:1.5;"/>
   </g>
   <g id="patch_11">
    <path d="M 302.17617 86.144 
L 361.537872 86.144 
" style="fill:none;stroke:#000000;stroke-linecap:square;stroke-linejoin:miter;stroke-width:1.5;"/>
   </g>
  </g>
  <g id="axes_6">
   <g id="patch_12">
    <path d="M 373.410213 81.144 
L 432.771915 81.144 
L 432.771915 7.2 
L 373.410213 7.2 
z
" style="fill:none;"/>
   </g>
   <g id="matplotlib.axis_11">
    <g id="xtick_11">
     <g id="line2d_16">
      <g>
       <use style="stroke:#000000;stroke-width:1.5;" x="373.410213" xlink:href="#md1dd4d2151" y="86.144"/>
      </g>
     </g>
     <g id="text_16">
      <!-- $\mathdefault{0.00}$   -->
      <g transform="translate(363.370213 98.87025)">
       <text>
        <tspan style="font-family:Arial;font-size:8px;font-style:regular;font-weight:regular;" x="0 4.449219 6.671875 11.121094 15.570312 17.792969" y="-0.25">0.00  </tspan>
       </text>
      </g>
     </g>
    </g>
    <g id="xtick_12">
     <g id="line2d_17">
      <g>
       <use style="stroke:#000000;stroke-width:1.5;" x="432.771915" xlink:href="#md1dd4d2151" y="86.144"/>
      </g>
     </g>
     <g id="text_17">
      <!-- $\mathdefault{0.06}\;\;\;$   -->
      <g transform="translate(419.971915 98.87025)">
       <text>
        <tspan style="font-family:Arial;font-size:8px;font-style:regular;font-weight:regular;" x="0 4.449219 6.671875 11.121094 21.123742 23.346399" y="-0.25">0.06  </tspan>
       </text>
      </g>
     </g>
    </g>
    <g id="text_18">
     <text style="font-family:Arial;font-size:8px;font-style:normal;font-weight:normal;text-anchor:middle;" transform="rotate(-0, 403.091064, 110.1865)" x="403.091064" y="110.1865">PY-H</text>
    </g>
   </g>
   <g id="matplotlib.axis_12">
    <g id="ytick_15"/>
    <g id="ytick_16"/>
    <g id="ytick_17"/>
    <g id="ytick_18"/>
   </g>
   <g id="line2d_18">
    <path clip-path="url(#p5fd6bef656)" d="M 373.410213 77.782909 
L 374.009826 75.820701 
L 374.609439 73.846294 
L 375.209052 71.897707 
L 375.808665 70.008646 
L 376.408279 68.206039 
L 377.007892 66.508295 
L 377.607505 64.924471 
L 378.207118 63.454432 
L 378.806731 62.089942 
L 379.406344 60.816536 
L 380.005957 59.615912 
L 380.605571 58.468509 
L 381.205184 57.355931 
L 381.804797 56.262893 
L 382.40441 55.178438 
L 383.004023 54.096307 
L 383.603636 53.014497 
L 384.20325 51.934175 
L 384.802863 50.858276 
L 385.402476 49.790101 
L 386.002089 48.732267 
L 386.601702 47.686203 
L 387.201315 46.652247 
L 387.800928 45.630208 
L 388.400542 44.620147 
L 389.000155 43.623025 
L 389.599768 42.640948 
L 390.199381 41.676821 
L 390.798994 40.73341 
L 391.398607 39.811981 
L 391.998221 38.910828 
L 392.597834 38.024029 
L 393.197447 37.140771 
L 393.79706 36.245442 
L 394.396673 35.318554 
L 394.996286 34.338405 
L 395.595899 33.283251 
L 396.195513 32.133731 
L 396.795126 30.875216 
L 397.394739 29.49987 
L 397.994352 28.008195 
L 398.593965 26.409966 
L 399.193578 24.724465 
L 399.793191 22.980006 
L 400.392805 21.212724 
L 400.992418 19.464659 
L 401.592031 17.781174 
L 402.191644 16.207814 
L 402.791257 14.786804 
L 403.39087 13.553439 
L 403.990484 12.532769 
L 404.590097 11.737006 
L 405.18971 11.164078 
L 405.789323 10.797718 
L 406.388936 10.609261 
L 406.988549 10.561091 
L 407.588162 10.61142 
L 408.187776 10.719772 
L 408.787389 10.852402 
L 409.387002 10.986778 
L 409.986615 11.11441 
L 410.586228 11.241511 
L 411.185841 11.38738 
L 411.785455 11.580777 
L 412.385068 11.854929 
L 412.984681 12.242 
L 413.584294 12.767972 
L 414.183907 13.448701 
L 414.78352 14.287688 
L 415.383133 15.275737 
L 415.982747 16.392337 
L 416.58236 17.608309 
L 417.181973 18.889151 
L 417.781586 20.198495 
L 418.381199 21.50121 
L 418.980812 22.765907 
L 419.580426 23.966787 
L 420.180039 25.084957 
L 420.779652 26.109388 
L 421.379265 27.037691 
L 421.978878 27.876757 
L 422.578491 28.643212 
L 423.178104 29.363502 
L 423.777718 30.073401 
L 424.377331 30.816744 
L 424.976944 31.643328 
L 425.576557 32.606025 
L 426.17617 33.75733 
L 426.775783 35.145632 
L 427.375397 36.81155 
L 427.97501 38.784648 
L 428.574623 41.080765 
L 429.174236 43.700142 
L 429.773849 46.626456 
L 430.373462 49.826835 
L 430.973075 53.252907 
L 431.572689 56.8429 
L 432.172302 60.524773 
L 432.771915 64.22024 
" style="fill:none;stroke:#2e7fe8;stroke-linecap:square;stroke-width:1.5;"/>
   </g>
   <g id="patch_13">
    <path d="M 373.410213 86.144 
L 432.771915 86.144 
" style="fill:none;stroke:#000000;stroke-linecap:square;stroke-linejoin:miter;stroke-width:1.5;"/>
   </g>
  </g>
  <g id="axes_7">
   <g id="patch_14">
    <path d="M 444.644255 81.144 
L 504.005957 81.144 
L 504.005957 7.2 
L 444.644255 7.2 
z
" style="fill:none;"/>
   </g>
   <g id="matplotlib.axis_13">
    <g id="xtick_13">
     <g id="line2d_19">
      <g>
       <use style="stroke:#000000;stroke-width:1.5;" x="444.644255" xlink:href="#md1dd4d2151" y="86.144"/>
      </g>
     </g>
     <g id="text_19">
      <!-- $\mathdefault{0.01}$  -->
      <g transform="translate(435.724255 98.87025)">
       <text>
        <tspan style="font-family:Arial;font-size:8px;font-style:regular;font-weight:regular;" x="0 4.449219 6.671875 11.121094 15.570312" y="-0.25">0.01 </tspan>
       </text>
      </g>
     </g>
    </g>
    <g id="xtick_14">
     <g id="line2d_20">
      <g>
       <use style="stroke:#000000;stroke-width:1.5;" x="504.005957" xlink:href="#md1dd4d2151" y="86.144"/>
      </g>
     </g>
     <g id="text_20">
      <!-- $\mathdefault{1000}\;\;\;\;$  -->
      <g transform="translate(490.285957 98.87025)">
       <text>
        <tspan style="font-family:Arial;font-size:8px;font-style:regular;font-weight:regular;" x="0 4.449219 8.898438 13.347656 25.201448" y="-0.25">1000 </tspan>
       </text>
      </g>
     </g>
    </g>
    <g id="text_21">
     <!-- $\mathdefault{PD-LP}$ -->
     <g transform="translate(460.205106 110.1865)">
      <text>
       <tspan style="font-family:Arial;font-size:8px;font-style:regular;font-weight:regular;" x="0 5.335938 12.446094 18.450781 22.9" y="-0.265625">PD−LP</tspan>
      </text>
     </g>
    </g>
   </g>
   <g id="matplotlib.axis_14">
    <g id="ytick_19"/>
    <g id="ytick_20"/>
    <g id="ytick_21"/>
    <g id="ytick_22"/>
   </g>
   <g id="line2d_21">
    <path clip-path="url(#pba928ac485)" d="M 444.644255 63.187952 
L 445.243868 60.853263 
L 445.843482 58.612754 
L 446.443095 56.526376 
L 447.042708 54.627256 
L 447.642321 52.922719 
L 448.241934 51.40092 
L 448.841547 50.040567 
L 449.441161 48.82064 
L 450.040774 47.727552 
L 450.640387 46.758372 
L 451.24 45.920123 
L 451.839613 45.226128 
L 452.439226 44.69081 
L 453.038839 44.324257 
L 453.638453 44.127568 
L 454.238066 44.089652 
L 454.837679 44.185969 
L 455.437292 44.379544 
L 456.036905 44.624374 
L 456.636518 44.870981 
L 457.236132 45.073363 
L 457.835745 45.196054 
L 458.435358 45.219726 
L 459.034971 45.143811 
L 459.634584 44.985188 
L 460.234197 44.77294 
L 460.83381 44.540246 
L 461.433424 44.315357 
L 462.033037 44.113923 
L 462.63265 43.934669 
L 463.232263 43.7595 
L 463.831876 43.557975 
L 464.431489 43.294941 
L 465.031103 42.939385 
L 465.630716 42.472235 
L 466.230329 41.891148 
L 466.829942 41.210971 
L 467.429555 40.459525 
L 468.029168 39.669432 
L 468.628781 38.867676 
L 469.228395 38.065227 
L 469.828008 37.249304 
L 470.427621 36.380419 
L 471.027234 35.395434 
L 471.626847 34.216607 
L 472.22646 32.76533 
L 472.826074 30.978327 
L 473.425687 28.823716 
L 474.0253 26.314498 
L 474.624913 23.517522 
L 475.224526 20.556576 
L 475.824139 17.608713 
L 476.423752 14.893419 
L 477.023366 12.654777 
L 477.622979 11.137776 
L 478.222592 10.561091 
L 478.822205 11.089935 
L 479.421818 12.813289 
L 480.021431 15.729635 
L 480.621044 19.744079 
L 481.220658 24.677636 
L 481.820271 30.287145 
L 482.419884 36.292325 
L 483.019497 42.405431 
L 483.61911 48.35898 
L 484.218723 53.927911 
L 484.818337 58.943983 
L 485.41795 63.301769 
L 486.017563 66.956911 
L 486.617176 69.918269 
L 487.216789 72.236072 
L 487.816402 73.988307 
L 488.416015 75.267342 
L 489.015629 76.16836 
L 489.615242 76.780561 
L 490.214855 77.181516 
L 490.814468 77.434483 
L 491.414081 77.588133 
L 492.013694 77.677926 
L 492.613308 77.728388 
L 493.212921 77.755643 
L 493.812534 77.769786 
L 494.412147 77.776834 
L 495.01176 77.780205 
L 495.611373 77.781752 
L 496.210986 77.782434 
L 496.8106 77.782721 
L 497.410213 77.782838 
L 498.009826 77.782883 
L 498.609439 77.7829 
L 499.209052 77.782906 
L 499.808665 77.782908 
L 500.408279 77.782909 
L 501.007892 77.782909 
L 501.607505 77.782909 
L 502.207118 77.782909 
L 502.806731 77.782909 
L 503.406344 77.782909 
L 504.005957 77.782909 
" style="fill:none;stroke:#2e7fe8;stroke-linecap:square;stroke-width:1.5;"/>
   </g>
   <g id="patch_15">
    <path d="M 444.644255 86.144 
L 504.005957 86.144 
" style="fill:none;stroke:#000000;stroke-linecap:square;stroke-linejoin:miter;stroke-width:1.5;"/>
   </g>
  </g>
  <g id="axes_8">
   <g id="patch_16">
    <path d="M 515.878298 81.144 
L 575.24 81.144 
L 575.24 7.2 
L 515.878298 7.2 
z
" style="fill:none;"/>
   </g>
   <g id="matplotlib.axis_15">
    <g id="xtick_15">
     <g id="line2d_22">
      <g>
       <use style="stroke:#000000;stroke-width:1.5;" x="515.878298" xlink:href="#md1dd4d2151" y="86.144"/>
      </g>
     </g>
     <g id="text_22">
      <!-- $\mathdefault{0.01}$  -->
      <g transform="translate(506.958298 98.87025)">
       <text>
        <tspan style="font-family:Arial;font-size:8px;font-style:regular;font-weight:regular;" x="0 4.449219 6.671875 11.121094 15.570312" y="-0.25">0.01 </tspan>
       </text>
      </g>
     </g>
    </g>
    <g id="xtick_16">
     <g id="line2d_23">
      <g>
       <use style="stroke:#000000;stroke-width:1.5;" x="575.24" xlink:href="#md1dd4d2151" y="86.144"/>
      </g>
     </g>
     <g id="text_23">
      <!-- $\mathdefault{1000}\;\;\;\;$  -->
      <g transform="translate(561.52 98.87025)">
       <text>
        <tspan style="font-family:Arial;font-size:8px;font-style:regular;font-weight:regular;" x="0 4.449219 8.898438 13.347656 25.201448" y="-0.25">1000 </tspan>
       </text>
      </g>
     </g>
    </g>
    <g id="text_24">
     <!-- $\mathdefault{AB-PY}$ -->
     <g transform="translate(531.199149 110.1865)">
      <text>
       <tspan style="font-family:Arial;font-size:8px;font-style:regular;font-weight:regular;" x="0 5.335938 12.004687 18.009375 23.345312" y="-0.265625">AB−PY</tspan>
      </text>
     </g>
    </g>
   </g>
   <g id="matplotlib.axis_16">
    <g id="ytick_23"/>
    <g id="ytick_24"/>
   </g>
   <g id="line2d_24">
    <path clip-path="url(#p91c0ee6d14)" d="M 515.878298 56.648093 
L 516.477911 53.570984 
L 517.077524 50.600614 
L 517.677137 47.806579 
L 518.27675 45.243461 
L 518.876364 42.947073 
L 519.475977 40.932977 
L 520.07559 39.19734 
L 520.675203 37.719836 
L 521.274816 36.467995 
L 521.874429 35.402252 
L 522.474043 34.480897 
L 523.073656 33.664247 
L 523.673269 32.917596 
L 524.272882 32.212735 
L 524.872495 31.528125 
L 525.472108 30.848009 
L 526.071721 30.160903 
L 526.671335 29.457958 
L 527.270948 28.731655 
L 527.870561 27.975194 
L 528.470174 27.182759 
L 529.069787 26.350652 
L 529.6694 25.479092 
L 530.269014 24.574283 
L 530.868627 23.650253 
L 531.46824 22.729955 
L 532.067853 21.845186 
L 532.667466 21.035073 
L 533.267079 20.343138 
L 533.866692 19.813222 
L 534.466306 19.484784 
L 535.065919 19.388268 
L 535.665532 19.541212 
L 536.265145 19.945711 
L 536.864758 20.587565 
L 537.464371 21.437217 
L 538.063985 22.452232 
L 538.663598 23.580895 
L 539.263211 24.766348 
L 539.862824 25.950671 
L 540.462437 27.078431 
L 541.06205 28.099387 
L 541.661663 28.970231 
L 542.261277 29.655448 
L 542.86089 30.127495 
L 543.460503 30.366567 
L 544.060116 30.360212 
L 544.659729 30.102979 
L 545.259342 29.596204 
L 545.858956 28.847954 
L 546.458569 27.873044 
L 547.058182 26.693058 
L 547.657795 25.336224 
L 548.257408 23.837076 
L 548.857021 22.235799 
L 549.456634 20.577237 
L 550.056248 18.909518 
L 550.655861 17.282339 
L 551.255474 15.744934 
L 551.855087 14.343861 
L 552.4547 13.120728 
L 553.054313 12.110089 
L 553.653926 11.337753 
L 554.25354 10.819718 
L 554.853153 10.561951 
L 555.452766 10.561091 
L 556.052379 10.806035 
L 556.651992 11.280232 
L 557.251605 11.96438 
L 557.851219 12.839146 
L 558.450832 13.887539 
L 559.050445 15.096625 
L 559.650058 16.458389 
L 560.249671 17.969728 
L 560.849284 19.631672 
L 561.448897 21.448036 
L 562.048511 23.423773 
L 562.648124 25.563266 
L 563.247737 27.868734 
L 563.84735 30.338893 
L 564.446963 32.967905 
L 565.046576 35.74464 
L 565.64619 38.652244 
L 566.245803 41.668036 
L 566.845416 44.763758 
L 567.445029 47.90621 
L 568.044642 51.058302 
L 568.644255 54.180475 
L 569.243868 57.232441 
L 569.843482 60.175082 
L 570.443095 62.972353 
L 571.042708 65.592996 
L 571.642321 68.011904 
L 572.241934 70.211032 
L 572.841547 72.179789 
L 573.441161 73.914935 
L 574.040774 75.420039 
L 574.640387 76.704594 
L 575.24 77.782909 
" style="fill:none;stroke:#2e7fe8;stroke-linecap:square;stroke-width:1.5;"/>
   </g>
   <g id="patch_17">
    <path d="M 515.878298 86.144 
L 575.24 86.144 
" style="fill:none;stroke:#000000;stroke-linecap:square;stroke-linejoin:miter;stroke-width:1.5;"/>
   </g>
   <g id="text_25">
    <text style="font-family:Arial;font-size:16px;font-style:normal;font-weight:normal;text-anchor:start;" transform="rotate(-0, 582.660213, 44.172)" x="582.660213" y="44.172">...</text>
   </g>
  </g>
 </g>
 <defs>
  <clipPath id="p06ee5f14cf">
   <rect height="73.944" width="59.361702" x="17.24" y="7.2"/>
  </clipPath>
  <clipPath id="pa8e35715c2">
   <rect height="73.944" width="59.361702" x="88.474043" y="7.2"/>
  </clipPath>
  <clipPath id="pb693c9fc10">
   <rect height="73.944" width="59.361702" x="159.708085" y="7.2"/>
  </clipPath>
  <clipPath id="p4140ae471b">
   <rect height="73.944" width="59.361702" x="230.942128" y="7.2"/>
  </clipPath>
  <clipPath id="pe1463166f7">
   <rect height="73.944" width="59.361702" x="302.17617" y="7.2"/>
  </clipPath>
  <clipPath id="p5fd6bef656">
   <rect height="73.944" width="59.361702" x="373.410213" y="7.2"/>
  </clipPath>
  <clipPath id="pba928ac485">
   <rect height="73.944" width="59.361702" x="444.644255" y="7.2"/>
  </clipPath>
  <clipPath id="p91c0ee6d14">
   <rect height="73.944" width="59.361702" x="515.878298" y="7.2"/>
  </clipPath>
 </defs>
</svg>
