<?xml version="1.0" encoding="utf-8" standalone="no"?>
<!DOCTYPE svg PUBLIC "-//W3C//DTD SVG 1.1//EN"
  "http://www.w3.org/Graphics/SVG/1.1/DTD/svg11.dtd">
<!-- Created with matplotlib (https://matplotlib.org/) -->
<svg height="96.325pt" version="1.1" viewBox="0 0 132.1125 96.325" width="132.1125pt" xmlns="http://www.w3.org/2000/svg" xmlns:xlink="http://www.w3.org/1999/xlink">
 <metadata>
  <rdf:RDF xmlns:cc="http://creativecommons.org/ns#" xmlns:dc="http://purl.org/dc/elements/1.1/" xmlns:rdf="http://www.w3.org/1999/02/22-rdf-syntax-ns#">
   <cc:Work>
    <dc:type rdf:resource="http://purl.org/dc/dcmitype/StillImage"/>
    <dc:date>2020-12-15T18:18:05.189854</dc:date>
    <dc:format>image/svg+xml</dc:format>
    <dc:creator>
     <cc:Agent>
      <dc:title>Matplotlib v3.3.2, https://matplotlib.org/</dc:title>
     </cc:Agent>
    </dc:creator>
   </cc:Work>
  </rdf:RDF>
 </metadata>
 <defs>
  <style type="text/css">*{stroke-linecap:butt;stroke-linejoin:round;}</style>
 </defs>
 <g id="figure_1">
  <g id="patch_1">
   <path d="M 0 96.325 
L 132.1125 96.325 
L 132.1125 0 
L 0 0 
z
" style="fill:none;"/>
  </g>
  <g id="axes_1">
   <g id="patch_2">
    <path d="M 41.2125 62.64 
L 124.9125 62.64 
L 124.9125 7.2 
L 41.2125 7.2 
z
" style="fill:#ffffff;"/>
   </g>
   <g id="patch_3">
    <path clip-path="url(#p10bfc293ee)" d="M 49.193296 62.64 
L 50.631589 62.64 
L 50.631589 62.228304 
L 49.193296 62.228304 
z
"/>
   </g>
   <g id="patch_4">
    <path clip-path="url(#p10bfc293ee)" d="M 50.631589 62.64 
L 52.069883 62.64 
L 52.069883 62.331228 
L 50.631589 62.331228 
z
"/>
   </g>
   <g id="patch_5">
    <path clip-path="url(#p10bfc293ee)" d="M 52.069883 62.64 
L 53.508176 62.64 
L 53.508176 61.713684 
L 52.069883 61.713684 
z
"/>
   </g>
   <g id="patch_6">
    <path clip-path="url(#p10bfc293ee)" d="M 53.508176 62.64 
L 54.946469 62.64 
L 54.946469 61.713684 
L 53.508176 61.713684 
z
"/>
   </g>
   <g id="patch_7">
    <path clip-path="url(#p10bfc293ee)" d="M 54.946469 62.64 
L 56.384762 62.64 
L 56.384762 60.169825 
L 54.946469 60.169825 
z
"/>
   </g>
   <g id="patch_8">
    <path clip-path="url(#p10bfc293ee)" d="M 56.384762 62.64 
L 57.823055 62.64 
L 57.823055 59.140585 
L 56.384762 59.140585 
z
"/>
   </g>
   <g id="patch_9">
    <path clip-path="url(#p10bfc293ee)" d="M 57.823055 62.64 
L 59.261348 62.64 
L 59.261348 57.390877 
L 57.823055 57.390877 
z
"/>
   </g>
   <g id="patch_10">
    <path clip-path="url(#p10bfc293ee)" d="M 59.261349 62.64 
L 60.699642 62.64 
L 60.699642 55.12655 
L 59.261349 55.12655 
z
"/>
   </g>
   <g id="patch_11">
    <path clip-path="url(#p10bfc293ee)" d="M 60.699642 62.64 
L 62.137935 62.64 
L 62.137935 51.215439 
L 60.699642 51.215439 
z
"/>
   </g>
   <g id="patch_12">
    <path clip-path="url(#p10bfc293ee)" d="M 62.137935 62.64 
L 63.576228 62.64 
L 63.576228 51.832982 
L 62.137935 51.832982 
z
"/>
   </g>
   <g id="patch_13">
    <path clip-path="url(#p10bfc293ee)" d="M 63.576228 62.64 
L 65.014521 62.64 
L 65.014521 46.378012 
L 63.576228 46.378012 
z
"/>
   </g>
   <g id="patch_14">
    <path clip-path="url(#p10bfc293ee)" d="M 65.014521 62.64 
L 66.452814 62.64 
L 66.452814 39.996725 
L 65.014521 39.996725 
z
"/>
   </g>
   <g id="patch_15">
    <path clip-path="url(#p10bfc293ee)" d="M 66.452814 62.64 
L 67.891107 62.64 
L 67.891107 38.864561 
L 66.452814 38.864561 
z
"/>
   </g>
   <g id="patch_16">
    <path clip-path="url(#p10bfc293ee)" d="M 67.891107 62.64 
L 69.329401 62.64 
L 69.329401 40.202573 
L 67.891107 40.202573 
z
"/>
   </g>
   <g id="patch_17">
    <path clip-path="url(#p10bfc293ee)" d="M 69.329401 62.64 
L 70.767694 62.64 
L 70.767694 31.248187 
L 69.329401 31.248187 
z
"/>
   </g>
   <g id="patch_18">
    <path clip-path="url(#p10bfc293ee)" d="M 70.767694 62.64 
L 72.205987 62.64 
L 72.205987 29.601404 
L 70.767694 29.601404 
z
"/>
   </g>
   <g id="patch_19">
    <path clip-path="url(#p10bfc293ee)" d="M 72.205987 62.64 
L 73.64428 62.64 
L 73.64428 20.852865 
L 72.205987 20.852865 
z
"/>
   </g>
   <g id="patch_20">
    <path clip-path="url(#p10bfc293ee)" d="M 73.64428 62.64 
L 75.082573 62.64 
L 75.082573 20.749942 
L 73.64428 20.749942 
z
"/>
   </g>
   <g id="patch_21">
    <path clip-path="url(#p10bfc293ee)" d="M 75.082573 62.64 
L 76.520866 62.64 
L 76.520866 18.176842 
L 75.082573 18.176842 
z
"/>
   </g>
   <g id="patch_22">
    <path clip-path="url(#p10bfc293ee)" d="M 76.520867 62.64 
L 77.95916 62.64 
L 77.95916 10.972164 
L 76.520867 10.972164 
z
"/>
   </g>
   <g id="patch_23">
    <path clip-path="url(#p10bfc293ee)" d="M 77.95916 62.64 
L 79.397453 62.64 
L 79.397453 17.147602 
L 77.95916 17.147602 
z
"/>
   </g>
   <g id="patch_24">
    <path clip-path="url(#p10bfc293ee)" d="M 79.397453 62.64 
L 80.835746 62.64 
L 80.835746 12.001404 
L 79.397453 12.001404 
z
"/>
   </g>
   <g id="patch_25">
    <path clip-path="url(#p10bfc293ee)" d="M 80.835746 62.64 
L 82.274039 62.64 
L 82.274039 10.148772 
L 80.835746 10.148772 
z
"/>
   </g>
   <g id="patch_26">
    <path clip-path="url(#p10bfc293ee)" d="M 82.274039 62.64 
L 83.712332 62.64 
L 83.712332 9.84 
L 82.274039 9.84 
z
"/>
   </g>
   <g id="patch_27">
    <path clip-path="url(#p10bfc293ee)" d="M 83.712332 62.64 
L 85.150625 62.64 
L 85.150625 11.692632 
L 83.712332 11.692632 
z
"/>
   </g>
   <g id="patch_28">
    <path clip-path="url(#p10bfc293ee)" d="M 85.150625 62.64 
L 86.588919 62.64 
L 86.588919 15.603743 
L 85.150625 15.603743 
z
"/>
   </g>
   <g id="patch_29">
    <path clip-path="url(#p10bfc293ee)" d="M 86.588919 62.64 
L 88.027212 62.64 
L 88.027212 15.397895 
L 86.588919 15.397895 
z
"/>
   </g>
   <g id="patch_30">
    <path clip-path="url(#p10bfc293ee)" d="M 88.027212 62.64 
L 89.465505 62.64 
L 89.465505 17.456374 
L 88.027212 17.456374 
z
"/>
   </g>
   <g id="patch_31">
    <path clip-path="url(#p10bfc293ee)" d="M 89.465505 62.64 
L 90.903798 62.64 
L 90.903798 20.544094 
L 89.465505 20.544094 
z
"/>
   </g>
   <g id="patch_32">
    <path clip-path="url(#p10bfc293ee)" d="M 90.903798 62.64 
L 92.342091 62.64 
L 92.342091 24.866901 
L 90.903798 24.866901 
z
"/>
   </g>
   <g id="patch_33">
    <path clip-path="url(#p10bfc293ee)" d="M 92.342091 62.64 
L 93.780384 62.64 
L 93.780384 29.807251 
L 92.342091 29.807251 
z
"/>
   </g>
   <g id="patch_34">
    <path clip-path="url(#p10bfc293ee)" d="M 93.780384 62.64 
L 95.218677 62.64 
L 95.218677 34.95345 
L 93.780384 34.95345 
z
"/>
   </g>
   <g id="patch_35">
    <path clip-path="url(#p10bfc293ee)" d="M 95.218677 62.64 
L 96.65697 62.64 
L 96.65697 36.806082 
L 95.218677 36.806082 
z
"/>
   </g>
   <g id="patch_36">
    <path clip-path="url(#p10bfc293ee)" d="M 96.65697 62.64 
L 98.095263 62.64 
L 98.095263 40.408421 
L 96.65697 40.408421 
z
"/>
   </g>
   <g id="patch_37">
    <path clip-path="url(#p10bfc293ee)" d="M 98.095263 62.64 
L 99.533556 62.64 
L 99.533556 42.363977 
L 98.095263 42.363977 
z
"/>
   </g>
   <g id="patch_38">
    <path clip-path="url(#p10bfc293ee)" d="M 99.533556 62.64 
L 100.971849 62.64 
L 100.971849 49.054035 
L 99.533556 49.054035 
z
"/>
   </g>
   <g id="patch_39">
    <path clip-path="url(#p10bfc293ee)" d="M 100.971851 62.64 
L 102.410148 62.64 
L 102.410148 52.55345 
L 100.971851 52.55345 
z
"/>
   </g>
   <g id="patch_40">
    <path clip-path="url(#p10bfc293ee)" d="M 102.410144 62.64 
L 103.848437 62.64 
L 103.848437 54.406082 
L 102.410144 54.406082 
z
"/>
   </g>
   <g id="patch_41">
    <path clip-path="url(#p10bfc293ee)" d="M 103.848437 62.64 
L 105.286731 62.64 
L 105.286731 54.61193 
L 103.848437 54.61193 
z
"/>
   </g>
   <g id="patch_42">
    <path clip-path="url(#p10bfc293ee)" d="M 105.286731 62.64 
L 106.725024 62.64 
L 106.725024 56.773333 
L 105.286731 56.773333 
z
"/>
   </g>
   <g id="patch_43">
    <path clip-path="url(#p10bfc293ee)" d="M 106.725024 62.64 
L 108.163317 62.64 
L 108.163317 59.449357 
L 106.725024 59.449357 
z
"/>
   </g>
   <g id="patch_44">
    <path clip-path="url(#p10bfc293ee)" d="M 108.163317 62.64 
L 109.60161 62.64 
L 109.60161 60.890292 
L 108.163317 60.890292 
z
"/>
   </g>
   <g id="patch_45">
    <path clip-path="url(#p10bfc293ee)" d="M 109.60161 62.64 
L 111.039903 62.64 
L 111.039903 60.993216 
L 109.60161 60.993216 
z
"/>
   </g>
   <g id="patch_46">
    <path clip-path="url(#p10bfc293ee)" d="M 111.039903 62.64 
L 112.478196 62.64 
L 112.478196 60.787368 
L 111.039903 60.787368 
z
"/>
   </g>
   <g id="patch_47">
    <path clip-path="url(#p10bfc293ee)" d="M 112.478196 62.64 
L 113.916489 62.64 
L 113.916489 61.816608 
L 112.478196 61.816608 
z
"/>
   </g>
   <g id="patch_48">
    <path clip-path="url(#p10bfc293ee)" d="M 113.916489 62.64 
L 115.354782 62.64 
L 115.354782 62.331228 
L 113.916489 62.331228 
z
"/>
   </g>
   <g id="patch_49">
    <path clip-path="url(#p10bfc293ee)" d="M 115.354782 62.64 
L 116.793075 62.64 
L 116.793075 62.537076 
L 115.354782 62.537076 
z
"/>
   </g>
   <g id="patch_50">
    <path clip-path="url(#p10bfc293ee)" d="M 116.793075 62.64 
L 118.231368 62.64 
L 118.231368 62.537076 
L 116.793075 62.537076 
z
"/>
   </g>
   <g id="patch_51">
    <path clip-path="url(#p10bfc293ee)" d="M 118.231368 62.64 
L 119.669661 62.64 
L 119.669661 62.64 
L 118.231368 62.64 
z
"/>
   </g>
   <g id="patch_52">
    <path clip-path="url(#p10bfc293ee)" d="M 119.669661 62.64 
L 121.107955 62.64 
L 121.107955 62.434152 
L 119.669661 62.434152 
z
"/>
   </g>
   <g id="matplotlib.axis_1">
    <g id="xtick_1">
     <g id="line2d_1">
      <defs>
       <path d="M 0 0 
L 0 3.5 
" id="mdb87fb8a61" style="stroke:#000000;stroke-width:1.5;"/>
      </defs>
      <g>
       <use style="stroke:#000000;stroke-width:1.5;" x="69.96857" xlink:href="#mdb87fb8a61" y="62.64"/>
      </g>
     </g>
     <g id="text_1">
      <text style="font-family:DejaVu Sans;font-size:8px;font-stretch:normal;font-style:normal;font-weight:normal;text-anchor:middle;" transform="rotate(-0, 69.96857, 75.71875)" x="69.96857" y="75.71875">0</text>
     </g>
    </g>
    <g id="xtick_2">
     <g id="line2d_2">
      <g>
       <use style="stroke:#000000;stroke-width:1.5;" x="101.286128" xlink:href="#mdb87fb8a61" y="62.64"/>
      </g>
     </g>
     <g id="text_2">
      <text style="font-family:DejaVu Sans;font-size:8px;font-stretch:normal;font-style:normal;font-weight:normal;text-anchor:middle;" transform="rotate(-0, 101.286128, 75.71875)" x="101.286128" y="75.71875">2</text>
     </g>
    </g>
    <g id="text_3">
     <text style="font-family:DejaVu Sans;font-size:8px;font-stretch:normal;font-style:normal;font-weight:normal;text-anchor:middle;" transform="rotate(-0, 83.0625, 87.46125)" x="83.0625" y="87.46125">Projected samples</text>
    </g>
   </g>
   <g id="matplotlib.axis_2">
    <g id="ytick_1">
     <g id="line2d_3">
      <defs>
       <path d="M 0 0 
L -3.5 0 
" id="m5950a84e7a" style="stroke:#000000;stroke-width:1.5;"/>
      </defs>
      <g>
       <use style="stroke:#000000;stroke-width:1.5;" x="41.2125" xlink:href="#m5950a84e7a" y="62.64"/>
      </g>
     </g>
     <g id="text_4">
      <text style="font-family:DejaVu Sans;font-size:8px;font-stretch:normal;font-style:normal;font-weight:normal;text-anchor:end;" transform="rotate(-0, 34.2125, 65.679375)" x="34.2125" y="65.679375">0</text>
     </g>
    </g>
    <g id="ytick_2">
     <g id="line2d_4">
      <g>
       <use style="stroke:#000000;stroke-width:1.5;" x="41.2125" xlink:href="#m5950a84e7a" y="42.055205"/>
      </g>
     </g>
     <g id="text_5">
      <text style="font-family:DejaVu Sans;font-size:8px;font-stretch:normal;font-style:normal;font-weight:normal;text-anchor:end;" transform="rotate(-0, 34.2125, 45.09458)" x="34.2125" y="45.09458">200</text>
     </g>
    </g>
    <g id="ytick_3">
     <g id="line2d_5">
      <g>
       <use style="stroke:#000000;stroke-width:1.5;" x="41.2125" xlink:href="#m5950a84e7a" y="21.470409"/>
      </g>
     </g>
     <g id="text_6">
      <text style="font-family:DejaVu Sans;font-size:8px;font-stretch:normal;font-style:normal;font-weight:normal;text-anchor:end;" transform="rotate(-0, 34.2125, 24.509784)" x="34.2125" y="24.509784">400</text>
     </g>
    </g>
    <g id="text_7">
     <text style="font-family:DejaVu Sans;font-size:8px;font-stretch:normal;font-style:normal;font-weight:normal;text-anchor:middle;" transform="rotate(-90, 13.27875, 34.92)" x="13.27875" y="34.92">Count</text>
    </g>
   </g>
   <g id="line2d_6">
    <path clip-path="url(#p10bfc293ee)" d="M 45.017045 62.64 
L 45.017045 21.06 
" style="fill:none;stroke:#b30000;stroke-linecap:square;stroke-width:1.5;"/>
   </g>
   <g id="line2d_7">
    <path clip-path="url(#p10bfc293ee)" d="M 121.107955 62.64 
L 121.107955 21.06 
" style="fill:none;stroke:#b30000;stroke-linecap:square;stroke-width:1.5;"/>
   </g>
   <g id="patch_53">
    <path d="M 41.2125 62.64 
L 41.2125 7.2 
" style="fill:none;stroke:#000000;stroke-linecap:square;stroke-linejoin:miter;stroke-width:1.5;"/>
   </g>
   <g id="patch_54">
    <path d="M 41.2125 62.64 
L 124.9125 62.64 
" style="fill:none;stroke:#000000;stroke-linecap:square;stroke-linejoin:miter;stroke-width:1.5;"/>
   </g>
  </g>
 </g>
 <defs>
  <clipPath id="p10bfc293ee">
   <rect height="55.44" width="83.7" x="41.2125" y="7.2"/>
  </clipPath>
 </defs>
</svg>
