<?xml version="1.0" encoding="utf-8" standalone="no"?>
<!DOCTYPE svg PUBLIC "-//W3C//DTD SVG 1.1//EN"
  "http://www.w3.org/Graphics/SVG/1.1/DTD/svg11.dtd">
<!-- Created with matplotlib (https://matplotlib.org/) -->
<svg height="118.9765pt" version="1.1" viewBox="0 0 603.195213 118.9765" width="603.195213pt" xmlns="http://www.w3.org/2000/svg" xmlns:xlink="http://www.w3.org/1999/xlink">
 <defs>
  <style type="text/css">
*{stroke-linecap:butt;stroke-linejoin:round;}
  </style>
 </defs>
 <g id="figure_1">
  <g id="patch_1">
   <path d="M 0 118.9765 
L 603.195213 118.9765 
L 603.195213 -0 
L 0 -0 
z
" style="fill:none;"/>
  </g>
  <g id="axes_1">
   <g id="patch_2">
    <path d="M 17.24 81.144 
L 76.601702 81.144 
L 76.601702 7.2 
L 17.24 7.2 
z
" style="fill:none;"/>
   </g>
   <g id="matplotlib.axis_1">
    <g id="xtick_1">
     <g id="line2d_1">
      <defs>
       <path d="M 0 0 
L 0 3.5 
" id="m7a0ec309ea" style="stroke:#000000;stroke-width:1.5;"/>
      </defs>
      <g>
       <use style="stroke:#000000;stroke-width:1.5;" x="17.24" xlink:href="#m7a0ec309ea" y="86.144"/>
      </g>
     </g>
     <g id="text_1">
      <!-- $\mathdefault{0.00}$   -->
      <g transform="translate(7.2 98.87025)">
       <text>
        <tspan style="font-family:Arial;font-size:8px;font-style:regular;font-weight:regular;" x="0 4.449219 6.671875 11.121094 15.570312 17.792969" y="-0.25">0.00  </tspan>
       </text>
      </g>
     </g>
    </g>
    <g id="xtick_2">
     <g id="line2d_2">
      <g>
       <use style="stroke:#000000;stroke-width:1.5;" x="76.601702" xlink:href="#m7a0ec309ea" y="86.144"/>
      </g>
     </g>
     <g id="text_2">
      <!-- $\mathdefault{2.50}\;\;\;$   -->
      <g transform="translate(63.801702 98.87025)">
       <text>
        <tspan style="font-family:Arial;font-size:8px;font-style:regular;font-weight:regular;" x="0 4.449219 6.671875 11.121094 21.123742 23.346399" y="-0.25">2.50  </tspan>
       </text>
      </g>
     </g>
    </g>
    <g id="text_3">
     <text style="font-family:Arial;font-size:8px;font-style:normal;font-weight:normal;text-anchor:middle;" transform="rotate(-0, 46.920851, 110.1865)" x="46.920851" y="110.1865">LP-CaT</text>
    </g>
   </g>
   <g id="matplotlib.axis_2">
    <g id="ytick_1"/>
    <g id="ytick_2"/>
    <g id="ytick_3"/>
    <g id="ytick_4"/>
   </g>
   <g id="line2d_3">
    <path clip-path="url(#p7e27019381)" d="M 17.24 54.235666 
L 17.839613 48.93371 
L 18.439226 43.675019 
L 19.038839 38.563161 
L 19.638453 33.6964 
L 20.238066 29.163338 
L 20.837679 25.039477 
L 21.437292 21.384857 
L 22.036905 18.242808 
L 22.636518 15.639699 
L 23.236132 13.585517 
L 23.835745 12.075056 
L 24.435358 11.089512 
L 25.034971 10.598315 
L 25.634584 10.561091 
L 26.234197 10.929696 
L 26.83381 11.650292 
L 27.433424 12.665457 
L 28.033037 13.916302 
L 28.63265 15.34456 
L 29.232263 16.89456 
L 29.831876 18.515004 
L 30.431489 20.160457 
L 31.031103 21.792465 
L 31.630716 23.380255 
L 32.230329 24.901015 
L 32.829942 26.339765 
L 33.429555 27.688887 
L 34.029168 28.947386 
L 34.628781 30.119941 
L 35.228395 31.215829 
L 35.828008 32.247765 
L 36.427621 33.230691 
L 37.027234 34.180557 
L 37.626847 35.113104 
L 38.22646 36.042694 
L 38.826074 36.981227 
L 39.425687 37.937202 
L 40.0253 38.914993 
L 40.624913 39.914407 
L 41.224526 40.930583 
L 41.824139 41.954289 
L 42.423752 42.972615 
L 43.023366 43.970058 
L 43.622979 44.929907 
L 44.222592 45.835838 
L 44.822205 46.673559 
L 45.421818 47.432335 
L 46.021431 48.106229 
L 46.621044 48.694889 
L 47.220658 49.203792 
L 47.820271 49.643881 
L 48.419884 50.030636 
L 49.019497 50.382674 
L 49.61911 50.720045 
L 50.218723 51.062434 
L 50.818337 51.427474 
L 51.41795 51.829378 
L 52.017563 52.278 
L 52.617176 52.778432 
L 53.216789 53.331086 
L 53.816402 53.932207 
L 54.416015 54.574684 
L 55.015629 55.248986 
L 55.615242 55.944096 
L 56.214855 56.648308 
L 56.814468 57.349826 
L 57.414081 58.037136 
L 58.013694 58.699186 
L 58.613308 59.325435 
L 59.212921 59.905843 
L 59.812534 60.4309 
L 60.412147 60.891734 
L 61.01176 61.280364 
L 61.611373 61.590095 
L 62.210986 61.816051 
L 62.8106 61.955797 
L 63.410213 62.010003 
L 64.009826 61.983073 
L 64.609439 61.883669 
L 65.209052 61.725053 
L 65.808665 61.525182 
L 66.408279 61.306519 
L 67.007892 61.095524 
L 67.607505 60.921835 
L 68.207118 60.817179 
L 68.806731 60.814048 
L 69.406344 60.944234 
L 70.005957 61.237299 
L 70.605571 61.719052 
L 71.205184 62.410136 
L 71.804797 63.324774 
L 72.40441 64.469754 
L 73.004023 65.8437 
L 73.603636 67.436702 
L 74.20325 69.230329 
L 74.802863 71.198097 
L 75.402476 73.30638 
L 76.002089 75.515783 
L 76.601702 77.782909 
" style="fill:none;stroke:#2e7fe8;stroke-linecap:square;stroke-width:1.5;"/>
   </g>
   <g id="patch_3">
    <path d="M 17.24 86.144 
L 76.601702 86.144 
" style="fill:none;stroke:#000000;stroke-linecap:square;stroke-linejoin:miter;stroke-width:1.5;"/>
   </g>
  </g>
  <g id="axes_2">
   <g id="patch_4">
    <path d="M 88.474043 81.144 
L 147.835745 81.144 
L 147.835745 7.2 
L 88.474043 7.2 
z
" style="fill:none;"/>
   </g>
   <g id="matplotlib.axis_3">
    <g id="xtick_3">
     <g id="line2d_4">
      <g>
       <use style="stroke:#000000;stroke-width:1.5;" x="88.474043" xlink:href="#m7a0ec309ea" y="86.144"/>
      </g>
     </g>
     <g id="text_4">
      <!-- $\mathdefault{0.0}$   -->
      <g transform="translate(80.674043 98.87025)">
       <text>
        <tspan style="font-family:Arial;font-size:8px;font-style:regular;font-weight:regular;" x="0 4.449219 6.671875 11.121094 13.34375" y="-0.25">0.0  </tspan>
       </text>
      </g>
     </g>
    </g>
    <g id="xtick_4">
     <g id="line2d_5">
      <g>
       <use style="stroke:#000000;stroke-width:1.5;" x="147.835745" xlink:href="#m7a0ec309ea" y="86.144"/>
      </g>
     </g>
     <g id="text_5">
      <!-- $\mathdefault{125.0}\;\;\;$   -->
      <g transform="translate(132.795745 98.87025)">
       <text>
        <tspan style="font-family:Arial;font-size:8px;font-style:regular;font-weight:regular;" x="0 4.449219 8.898438 13.347656 15.570312 25.572961 27.795617" y="-0.25">125.0  </tspan>
       </text>
      </g>
     </g>
    </g>
    <g id="text_6">
     <text style="font-family:Arial;font-size:8px;font-style:normal;font-weight:normal;text-anchor:middle;" transform="rotate(-0, 118.154894, 110.1865)" x="118.154894" y="110.1865">LP-Kd</text>
    </g>
   </g>
   <g id="matplotlib.axis_4">
    <g id="ytick_5"/>
    <g id="ytick_6"/>
    <g id="ytick_7"/>
   </g>
   <g id="line2d_6">
    <path clip-path="url(#pa589805466)" d="M 88.474043 77.782909 
L 89.073656 77.706458 
L 89.673269 77.600399 
L 90.272882 77.456528 
L 90.872495 77.265683 
L 91.472108 77.018145 
L 92.071721 76.704231 
L 92.671335 76.315058 
L 93.270948 75.84339 
L 93.870561 75.284439 
L 94.470174 74.636455 
L 95.069787 73.900938 
L 95.6694 73.082325 
L 96.269014 72.187116 
L 96.868627 71.22247 
L 97.46824 70.194452 
L 98.067853 69.106199 
L 98.667466 67.956296 
L 99.267079 66.737695 
L 99.866692 65.437381 
L 100.466306 64.036941 
L 101.065919 62.513998 
L 101.665532 60.844391 
L 102.265145 59.004853 
L 102.864758 56.975897 
L 103.464371 54.744646 
L 104.063985 52.307339 
L 104.663598 49.671359 
L 105.263211 46.856642 
L 105.862824 43.896336 
L 106.462437 40.836557 
L 107.06205 37.73501 
L 107.661663 34.658275 
L 108.261277 31.677604 
L 108.86089 28.863349 
L 109.460503 26.27843 
L 110.060116 23.971657 
L 110.659729 21.972008 
L 111.259342 20.285029 
L 111.858956 18.892353 
L 112.458569 17.754838 
L 113.058182 16.819167 
L 113.657795 16.027018 
L 114.257408 15.325291 
L 114.857021 14.67558 
L 115.456634 14.061058 
L 116.056248 13.489359 
L 116.655861 12.990757 
L 117.255474 12.611807 
L 117.855087 12.405524 
L 118.4547 12.419924 
L 119.054313 12.687095 
L 119.653926 13.214949 
L 120.25354 13.983245 
L 120.853153 14.944619 
L 121.452766 16.030239 
L 122.052379 17.158793 
L 122.651992 18.246843 
L 123.251605 19.218426 
L 123.851219 20.012206 
L 124.450832 20.585202 
L 125.050445 20.913086 
L 125.650058 20.987869 
L 126.249671 20.814285 
L 126.849284 20.406254 
L 127.448897 19.784471 
L 128.048511 18.975537 
L 128.648124 18.012414 
L 129.247737 16.93543 
L 129.84735 15.792867 
L 130.446963 14.640209 
L 131.046576 13.537546 
L 131.64619 12.545124 
L 132.245803 11.717558 
L 132.845416 11.097626 
L 133.445029 10.710737 
L 134.044642 10.561091 
L 134.644255 10.630277 
L 135.243868 10.87865 
L 135.843482 11.249406 
L 136.443095 11.674878 
L 137.042708 12.084301 
L 137.642321 12.412186 
L 138.241934 12.6064 
L 138.841547 12.635178 
L 139.441161 12.492459 
L 140.040774 12.201116 
L 140.640387 11.813849 
L 141.24 11.411642 
L 141.839613 11.099762 
L 142.439226 11.001335 
L 143.038839 11.248618 
L 143.638453 11.972193 
L 144.238066 13.288636 
L 144.837679 15.287562 
L 145.437292 18.019434 
L 146.036905 21.485871 
L 146.636518 25.634282 
L 147.236132 30.358338 
L 147.835745 35.505009 
" style="fill:none;stroke:#2e7fe8;stroke-linecap:square;stroke-width:1.5;"/>
   </g>
   <g id="patch_5">
    <path d="M 88.474043 86.144 
L 147.835745 86.144 
" style="fill:none;stroke:#000000;stroke-linecap:square;stroke-linejoin:miter;stroke-width:1.5;"/>
   </g>
  </g>
  <g id="axes_3">
   <g id="patch_6">
    <path d="M 159.708085 81.144 
L 219.069787 81.144 
L 219.069787 7.2 
L 159.708085 7.2 
z
" style="fill:none;"/>
   </g>
   <g id="matplotlib.axis_5">
    <g id="xtick_5">
     <g id="line2d_7">
      <g>
       <use style="stroke:#000000;stroke-width:1.5;" x="159.708085" xlink:href="#m7a0ec309ea" y="86.144"/>
      </g>
     </g>
     <g id="text_7">
      <!-- $\mathdefault{0.00}$   -->
      <g transform="translate(149.668085 98.87025)">
       <text>
        <tspan style="font-family:Arial;font-size:8px;font-style:regular;font-weight:regular;" x="0 4.449219 6.671875 11.121094 15.570312 17.792969" y="-0.25">0.00  </tspan>
       </text>
      </g>
     </g>
    </g>
    <g id="xtick_6">
     <g id="line2d_8">
      <g>
       <use style="stroke:#000000;stroke-width:1.5;" x="219.069787" xlink:href="#m7a0ec309ea" y="86.144"/>
      </g>
     </g>
     <g id="text_8">
      <!-- $\mathdefault{0.06}\;\;\;$   -->
      <g transform="translate(206.269787 98.87025)">
       <text>
        <tspan style="font-family:Arial;font-size:8px;font-style:regular;font-weight:regular;" x="0 4.449219 6.671875 11.121094 21.123742 23.346399" y="-0.25">0.06  </tspan>
       </text>
      </g>
     </g>
    </g>
    <g id="text_9">
     <text style="font-family:Arial;font-size:8px;font-style:normal;font-weight:normal;text-anchor:middle;" transform="rotate(-0, 189.388936, 110.1865)" x="189.388936" y="110.1865">LP-H</text>
    </g>
   </g>
   <g id="matplotlib.axis_6">
    <g id="ytick_8"/>
    <g id="ytick_9"/>
    <g id="ytick_10"/>
   </g>
   <g id="line2d_9">
    <path clip-path="url(#p4074cd5ea3)" d="M 159.708085 77.782909 
L 160.307698 74.542279 
L 160.907311 71.373215 
L 161.506925 68.322903 
L 162.106538 65.429349 
L 162.706151 62.719898 
L 163.305764 60.210881 
L 163.905377 57.908348 
L 164.50499 55.809681 
L 165.104603 53.90578 
L 165.704217 52.183462 
L 166.30383 50.627698 
L 166.903443 49.223419 
L 167.503056 47.956694 
L 168.102669 46.81526 
L 168.702282 45.788457 
L 169.301896 44.866781 
L 169.901509 44.041268 
L 170.501122 43.302933 
L 171.100735 42.642476 
L 171.700348 42.050324 
L 172.299961 41.517028 
L 172.899574 41.033935 
L 173.499188 40.593966 
L 174.098801 40.192328 
L 174.698414 39.826972 
L 175.298027 39.49866 
L 175.89764 39.210571 
L 176.497253 38.967442 
L 177.096867 38.774344 
L 177.69648 38.63523 
L 178.296093 38.551457 
L 178.895706 38.520484 
L 179.495319 38.534951 
L 180.094932 38.582272 
L 180.694545 38.644851 
L 181.294159 38.70091 
L 181.893772 38.725874 
L 182.493385 38.694146 
L 183.092998 38.581097 
L 183.692611 38.365018 
L 184.292224 38.028822 
L 184.891838 37.5613 
L 185.491451 36.95781 
L 186.091064 36.220343 
L 186.690677 35.357014 
L 187.29029 34.381079 
L 187.889903 33.309659 
L 188.489516 32.162351 
L 189.08913 30.959914 
L 189.688743 29.723175 
L 190.288356 28.472241 
L 190.887969 27.226044 
L 191.487582 26.002183 
L 192.087195 24.816976 
L 192.686809 23.685628 
L 193.286422 22.622396 
L 193.886035 21.640669 
L 194.485648 20.752896 
L 195.085261 19.970338 
L 195.684874 19.302645 
L 196.284487 18.757297 
L 196.884101 18.338951 
L 197.483714 18.048756 
L 198.083327 17.883715 
L 198.68294 17.83616 
L 199.282553 17.893405 
L 199.882166 18.037657 
L 200.481779 18.246232 
L 201.081393 18.492134 
L 201.681006 18.745009 
L 202.280619 18.972466 
L 202.880232 19.141749 
L 203.479845 19.221645 
L 204.079458 19.184546 
L 204.679072 19.008503 
L 205.278685 18.679126 
L 205.878298 18.191149 
L 206.477911 17.549551 
L 207.077524 16.770108 
L 207.677137 15.879356 
L 208.27675 14.913989 
L 208.876364 13.91977 
L 209.475977 12.950109 
L 210.07559 12.06444 
L 210.675203 11.326546 
L 211.274816 10.80291 
L 211.874429 10.561091 
L 212.474043 10.668064 
L 213.073656 11.188383 
L 213.673269 12.182011 
L 214.272882 13.701697 
L 214.872495 15.789875 
L 215.472108 18.475196 
L 216.071721 21.768977 
L 216.671335 25.661961 
L 217.270948 30.121915 
L 217.870561 35.092553 
L 218.470174 40.494193 
L 219.069787 46.22637 
" style="fill:none;stroke:#2e7fe8;stroke-linecap:square;stroke-width:1.5;"/>
   </g>
   <g id="patch_7">
    <path d="M 159.708085 86.144 
L 219.069787 86.144 
" style="fill:none;stroke:#000000;stroke-linecap:square;stroke-linejoin:miter;stroke-width:1.5;"/>
   </g>
  </g>
  <g id="axes_4">
   <g id="patch_8">
    <path d="M 230.942128 81.144 
L 290.30383 81.144 
L 290.30383 7.2 
L 230.942128 7.2 
z
" style="fill:none;"/>
   </g>
   <g id="matplotlib.axis_7">
    <g id="xtick_7">
     <g id="line2d_10">
      <g>
       <use style="stroke:#000000;stroke-width:1.5;" x="230.942128" xlink:href="#m7a0ec309ea" y="86.144"/>
      </g>
     </g>
     <g id="text_10">
      <!-- $\mathdefault{0.00}$   -->
      <g transform="translate(220.902128 98.87025)">
       <text>
        <tspan style="font-family:Arial;font-size:8px;font-style:regular;font-weight:regular;" x="0 4.449219 6.671875 11.121094 15.570312 17.792969" y="-0.25">0.00  </tspan>
       </text>
      </g>
     </g>
    </g>
    <g id="xtick_8">
     <g id="line2d_11">
      <g>
       <use style="stroke:#000000;stroke-width:1.5;" x="290.30383" xlink:href="#m7a0ec309ea" y="86.144"/>
      </g>
     </g>
     <g id="text_11">
      <!-- $\mathdefault{5.00}\;\;\;$   -->
      <g transform="translate(277.50383 98.87025)">
       <text>
        <tspan style="font-family:Arial;font-size:8px;font-style:regular;font-weight:regular;" x="0 4.449219 6.671875 11.121094 21.123742 23.346399" y="-0.25">5.00  </tspan>
       </text>
      </g>
     </g>
    </g>
    <g id="text_12">
     <text style="font-family:Arial;font-size:8px;font-style:normal;font-weight:normal;text-anchor:middle;" transform="rotate(-0, 260.622979, 110.1865)" x="260.622979" y="110.1865">PY-KCa</text>
    </g>
   </g>
   <g id="matplotlib.axis_8">
    <g id="ytick_11"/>
    <g id="ytick_12"/>
    <g id="ytick_13"/>
   </g>
   <g id="line2d_12">
    <path clip-path="url(#p6e4333df35)" d="M 230.942128 47.059304 
L 231.541741 42.192569 
L 232.141354 37.466447 
L 232.740967 33.02383 
L 233.34058 28.97687 
L 233.940193 25.398262 
L 234.539807 22.319026 
L 235.13942 19.732591 
L 235.739033 17.603609 
L 236.338646 15.879098 
L 236.938259 14.499315 
L 237.537872 13.406307 
L 238.137485 12.549107 
L 238.737099 11.885676 
L 239.336712 11.382607 
L 239.936325 11.014003 
L 240.535938 10.760778 
L 241.135551 10.610999 
L 241.735164 10.561091 
L 242.334778 10.617086 
L 242.934391 10.794834 
L 243.534004 11.118305 
L 244.133617 11.615717 
L 244.73323 12.313978 
L 245.332843 13.232573 
L 245.932456 14.378307 
L 246.53207 15.742198 
L 247.131683 17.299247 
L 247.731296 19.01111 
L 248.330909 20.830979 
L 248.930522 22.709472 
L 249.530135 24.600276 
L 250.129749 26.464471 
L 250.729362 28.27298 
L 251.328975 30.007122 
L 251.928588 31.657698 
L 252.528201 33.223272 
L 253.127814 34.708243 
L 253.727427 36.121148 
L 254.327041 37.473283 
L 254.926654 38.777546 
L 255.526267 40.047291 
L 256.12588 41.295033 
L 256.725493 42.531005 
L 257.325106 43.761744 
L 257.92472 44.988981 
L 258.524333 46.209107 
L 259.123946 47.413378 
L 259.723559 48.588866 
L 260.323172 49.719987 
L 260.922785 50.790347 
L 261.522398 51.784622 
L 262.122012 52.690196 
L 262.721625 53.498404 
L 263.321238 54.205256 
L 263.920851 54.811652 
L 264.520464 55.323131 
L 265.120077 55.749269 
L 265.719691 56.102891 
L 266.319304 56.399255 
L 266.918917 56.655362 
L 267.51853 56.889452 
L 268.118143 57.120655 
L 268.717756 57.368666 
L 269.317369 57.653267 
L 269.916983 57.993537 
L 270.516596 58.40672 
L 271.116209 58.906846 
L 271.715822 59.503347 
L 272.315435 60.199969 
L 272.915048 60.994216 
L 273.514662 61.877475 
L 274.114275 62.83575 
L 274.713888 63.850858 
L 275.313501 64.901848 
L 275.913114 65.966449 
L 276.512727 67.022451 
L 277.11234 68.048957 
L 277.711954 69.027549 
L 278.311567 69.943294 
L 278.91118 70.785528 
L 279.510793 71.548263 
L 280.110406 72.230094 
L 280.710019 72.833581 
L 281.309632 73.364201 
L 281.909246 73.829138 
L 282.508859 74.236194 
L 283.108472 74.593093 
L 283.708085 74.907306 
L 284.307698 75.186303 
L 284.907311 75.438023 
L 285.506925 75.671217 
L 286.106538 75.895401 
L 286.706151 76.120282 
L 287.305764 76.354719 
L 287.905377 76.605465 
L 288.50499 76.876021 
L 289.104603 77.165947 
L 289.704217 77.47082 
L 290.30383 77.782909 
" style="fill:none;stroke:#2e7fe8;stroke-linecap:square;stroke-width:1.5;"/>
   </g>
   <g id="patch_9">
    <path d="M 230.942128 86.144 
L 290.30383 86.144 
" style="fill:none;stroke:#000000;stroke-linecap:square;stroke-linejoin:miter;stroke-width:1.5;"/>
   </g>
  </g>
  <g id="axes_5">
   <g id="patch_10">
    <path d="M 302.17617 81.144 
L 361.537872 81.144 
L 361.537872 7.2 
L 302.17617 7.2 
z
" style="fill:none;"/>
   </g>
   <g id="matplotlib.axis_9">
    <g id="xtick_9">
     <g id="line2d_13">
      <g>
       <use style="stroke:#000000;stroke-width:1.5;" x="302.17617" xlink:href="#m7a0ec309ea" y="86.144"/>
      </g>
     </g>
     <g id="text_13">
      <!-- $\mathdefault{50.0}$   -->
      <g transform="translate(292.13617 98.87025)">
       <text>
        <tspan style="font-family:Arial;font-size:8px;font-style:regular;font-weight:regular;" x="0 4.449219 8.898438 11.121094 15.570312 17.792969" y="-0.25">50.0  </tspan>
       </text>
      </g>
     </g>
    </g>
    <g id="xtick_10">
     <g id="line2d_14">
      <g>
       <use style="stroke:#000000;stroke-width:1.5;" x="361.537872" xlink:href="#m7a0ec309ea" y="86.144"/>
      </g>
     </g>
     <g id="text_14">
      <!-- $\mathdefault{150.0}\;\;\;$   -->
      <g transform="translate(346.497872 98.87025)">
       <text>
        <tspan style="font-family:Arial;font-size:8px;font-style:regular;font-weight:regular;" x="0 4.449219 8.898438 13.347656 15.570312 25.572961 27.795617" y="-0.25">150.0  </tspan>
       </text>
      </g>
     </g>
    </g>
    <g id="text_15">
     <text style="font-family:Arial;font-size:8px;font-style:normal;font-weight:normal;text-anchor:middle;" transform="rotate(-0, 331.857021, 110.1865)" x="331.857021" y="110.1865">PY-Kd</text>
    </g>
   </g>
   <g id="matplotlib.axis_10">
    <g id="ytick_14"/>
    <g id="ytick_15"/>
    <g id="ytick_16"/>
    <g id="ytick_17"/>
   </g>
   <g id="line2d_15">
    <path clip-path="url(#p1aa6240fdb)" d="M 302.17617 77.782909 
L 302.775783 76.288075 
L 303.375397 74.595445 
L 303.97501 72.711167 
L 304.574623 70.649153 
L 305.174236 68.431462 
L 305.773849 66.087962 
L 306.373462 63.655073 
L 306.973075 61.173427 
L 307.572689 58.684508 
L 308.172302 56.226535 
L 308.771915 53.830117 
L 309.371528 51.514342 
L 309.971141 49.284076 
L 310.570754 47.129105 
L 311.170368 45.025506 
L 311.769981 42.939274 
L 312.369594 40.831798 
L 312.969207 38.666419 
L 313.56882 36.415083 
L 314.168433 34.064032 
L 314.768046 31.617624 
L 315.36766 29.099656 
L 315.967273 26.551989 
L 316.566886 24.030639 
L 317.166499 21.599922 
L 317.766112 19.325462 
L 318.365725 17.267041 
L 318.965338 15.472229 
L 319.564952 13.971635 
L 320.164565 12.776321 
L 320.764178 11.877662 
L 321.363791 11.249557 
L 321.963404 10.852588 
L 322.563017 10.639489 
L 323.162631 10.561091 
L 323.762244 10.571941 
L 324.361857 10.634854 
L 324.96147 10.723868 
L 325.561083 10.825359 
L 326.160696 10.937349 
L 326.760309 11.067288 
L 327.359923 11.228802 
L 327.959536 11.437954 
L 328.559149 11.709614 
L 329.158762 12.054408 
L 329.758375 12.47662 
L 330.357988 12.973207 
L 330.957602 13.533958 
L 331.557215 14.142618 
L 332.156828 14.778707 
L 332.756441 15.419691 
L 333.356054 16.043148 
L 333.955667 16.628643 
L 334.55528 17.159113 
L 335.154894 17.621698 
L 335.754507 18.008059 
L 336.35412 18.314309 
L 336.953733 18.540715 
L 337.553346 18.691309 
L 338.152959 18.773504 
L 338.752573 18.797725 
L 339.352186 18.77705 
L 339.951799 18.726778 
L 340.551412 18.663882 
L 341.151025 18.606311 
L 341.750638 18.572179 
L 342.350251 18.578902 
L 342.949865 18.642377 
L 343.549478 18.776328 
L 344.149091 18.991892 
L 344.748704 19.29751 
L 345.348317 19.699099 
L 345.94793 20.200471 
L 346.547544 20.803882 
L 347.147157 21.510608 
L 347.74677 22.321416 
L 348.346383 23.236861 
L 348.945996 24.257322 
L 349.545609 25.382806 
L 350.145222 26.612551 
L 350.744836 27.944519 
L 351.344449 29.374912 
L 351.944062 30.897846 
L 352.543675 32.505352 
L 353.143288 34.187788 
L 353.742901 35.934755 
L 354.342515 37.73645 
L 354.942128 39.58529 
L 355.541741 41.477519 
L 356.141354 43.414398 
L 356.740967 45.402571 
L 357.34058 47.453286 
L 357.940193 49.580349 
L 358.539807 51.796955 
L 359.13942 54.111849 
L 359.739033 56.525504 
L 360.338646 59.027075 
L 360.938259 61.592864 
L 361.537872 64.186712 
" style="fill:none;stroke:#2e7fe8;stroke-linecap:square;stroke-width:1.5;"/>
   </g>
   <g id="patch_11">
    <path d="M 302.17617 86.144 
L 361.537872 86.144 
" style="fill:none;stroke:#000000;stroke-linecap:square;stroke-linejoin:miter;stroke-width:1.5;"/>
   </g>
  </g>
  <g id="axes_6">
   <g id="patch_12">
    <path d="M 373.410213 81.144 
L 432.771915 81.144 
L 432.771915 7.2 
L 373.410213 7.2 
z
" style="fill:none;"/>
   </g>
   <g id="matplotlib.axis_11">
    <g id="xtick_11">
     <g id="line2d_16">
      <g>
       <use style="stroke:#000000;stroke-width:1.5;" x="373.410213" xlink:href="#m7a0ec309ea" y="86.144"/>
      </g>
     </g>
     <g id="text_16">
      <!-- $\mathdefault{0.00}$   -->
      <g transform="translate(363.370213 98.87025)">
       <text>
        <tspan style="font-family:Arial;font-size:8px;font-style:regular;font-weight:regular;" x="0 4.449219 6.671875 11.121094 15.570312 17.792969" y="-0.25">0.00  </tspan>
       </text>
      </g>
     </g>
    </g>
    <g id="xtick_12">
     <g id="line2d_17">
      <g>
       <use style="stroke:#000000;stroke-width:1.5;" x="432.771915" xlink:href="#m7a0ec309ea" y="86.144"/>
      </g>
     </g>
     <g id="text_17">
      <!-- $\mathdefault{0.06}\;\;\;$   -->
      <g transform="translate(419.971915 98.87025)">
       <text>
        <tspan style="font-family:Arial;font-size:8px;font-style:regular;font-weight:regular;" x="0 4.449219 6.671875 11.121094 21.123742 23.346399" y="-0.25">0.06  </tspan>
       </text>
      </g>
     </g>
    </g>
    <g id="text_18">
     <text style="font-family:Arial;font-size:8px;font-style:normal;font-weight:normal;text-anchor:middle;" transform="rotate(-0, 403.091064, 110.1865)" x="403.091064" y="110.1865">PY-H</text>
    </g>
   </g>
   <g id="matplotlib.axis_12">
    <g id="ytick_18"/>
    <g id="ytick_19"/>
    <g id="ytick_20"/>
   </g>
   <g id="line2d_18">
    <path clip-path="url(#p8efce7c6d5)" d="M 373.410213 77.782909 
L 374.009826 75.414296 
L 374.609439 73.019546 
L 375.209052 70.643742 
L 375.808665 68.329825 
L 376.408279 66.115956 
L 377.007892 64.033291 
L 377.607505 62.104328 
L 378.207118 60.341974 
L 378.806731 58.749391 
L 379.406344 57.320603 
L 380.005957 56.041796 
L 380.605571 54.893185 
L 381.205184 53.851246 
L 381.804797 52.891088 
L 382.40441 51.988711 
L 383.004023 51.122876 
L 383.603636 50.276383 
L 384.20325 49.436603 
L 384.802863 48.595219 
L 385.402476 47.747294 
L 386.002089 46.889862 
L 386.601702 46.020393 
L 387.201315 45.135469 
L 387.800928 44.230005 
L 388.400542 43.297236 
L 389.000155 42.329517 
L 389.599768 41.319806 
L 390.199381 40.26352 
L 390.798994 39.160379 
L 391.398607 38.015777 
L 391.998221 36.841357 
L 392.597834 35.654567 
L 393.197447 34.4772 
L 393.79706 33.333121 
L 394.396673 32.245534 
L 394.996286 31.234239 
L 395.595899 30.313324 
L 396.195513 29.489656 
L 396.795126 28.762385 
L 397.394739 28.123513 
L 397.994352 27.559388 
L 398.593965 27.052894 
L 399.193578 26.585971 
L 399.793191 26.142135 
L 400.392805 25.708668 
L 400.992418 25.278216 
L 401.592031 24.849655 
L 402.191644 24.428149 
L 402.791257 24.024435 
L 403.39087 23.65344 
L 403.990484 23.332384 
L 404.590097 23.078561 
L 405.18971 22.907012 
L 405.789323 22.828305 
L 406.388936 22.846638 
L 406.988549 22.958459 
L 407.588162 23.151783 
L 408.187776 23.406322 
L 408.787389 23.694506 
L 409.387002 23.983354 
L 409.986615 24.237098 
L 410.586228 24.420295 
L 411.185841 24.501112 
L 411.785455 24.454381 
L 412.385068 24.263993 
L 412.984681 23.924291 
L 413.584294 23.440194 
L 414.183907 22.82602 
L 414.78352 22.103145 
L 415.383133 21.296867 
L 415.982747 20.43299 
L 416.58236 19.534713 
L 417.181973 18.620391 
L 417.781586 17.702559 
L 418.381199 16.788427 
L 418.980812 15.881755 
L 419.580426 14.985784 
L 420.180039 14.106698 
L 420.779652 13.256992 
L 421.379265 12.458153 
L 421.978878 11.742185 
L 422.578491 11.151695 
L 423.178104 10.738524 
L 423.777718 10.561091 
L 424.377331 10.680807 
L 424.976944 11.157999 
L 425.576557 12.047763 
L 426.17617 13.396136 
L 426.775783 15.236832 
L 427.375397 17.588699 
L 427.97501 20.453946 
L 428.574623 23.817135 
L 429.174236 27.64493 
L 429.773849 31.88661 
L 430.373462 36.475372 
L 430.973075 41.330483 
L 431.572689 46.360293 
L 432.172302 51.466082 
L 432.771915 56.54657 
" style="fill:none;stroke:#2e7fe8;stroke-linecap:square;stroke-width:1.5;"/>
   </g>
   <g id="patch_13">
    <path d="M 373.410213 86.144 
L 432.771915 86.144 
" style="fill:none;stroke:#000000;stroke-linecap:square;stroke-linejoin:miter;stroke-width:1.5;"/>
   </g>
  </g>
  <g id="axes_7">
   <g id="patch_14">
    <path d="M 444.644255 81.144 
L 504.005957 81.144 
L 504.005957 7.2 
L 444.644255 7.2 
z
" style="fill:none;"/>
   </g>
   <g id="matplotlib.axis_13">
    <g id="xtick_13">
     <g id="line2d_19">
      <g>
       <use style="stroke:#000000;stroke-width:1.5;" x="444.644255" xlink:href="#m7a0ec309ea" y="86.144"/>
      </g>
     </g>
     <g id="text_19">
      <!-- $\mathdefault{0.01}$  -->
      <g transform="translate(435.724255 98.87025)">
       <text>
        <tspan style="font-family:Arial;font-size:8px;font-style:regular;font-weight:regular;" x="0 4.449219 6.671875 11.121094 15.570312" y="-0.25">0.01 </tspan>
       </text>
      </g>
     </g>
    </g>
    <g id="xtick_14">
     <g id="line2d_20">
      <g>
       <use style="stroke:#000000;stroke-width:1.5;" x="504.005957" xlink:href="#m7a0ec309ea" y="86.144"/>
      </g>
     </g>
     <g id="text_20">
      <!-- $\mathdefault{1000}\;\;\;\;$  -->
      <g transform="translate(490.285957 98.87025)">
       <text>
        <tspan style="font-family:Arial;font-size:8px;font-style:regular;font-weight:regular;" x="0 4.449219 8.898438 13.347656 25.201448" y="-0.25">1000 </tspan>
       </text>
      </g>
     </g>
    </g>
    <g id="text_21">
     <!-- $\mathdefault{PD-LP}$ -->
     <g transform="translate(460.205106 110.1865)">
      <text>
       <tspan style="font-family:Arial;font-size:8px;font-style:regular;font-weight:regular;" x="0 5.335938 12.446094 18.450781 22.9" y="-0.265625">PD−LP</tspan>
      </text>
     </g>
    </g>
   </g>
   <g id="matplotlib.axis_14">
    <g id="ytick_21"/>
    <g id="ytick_22"/>
    <g id="ytick_23"/>
    <g id="ytick_24"/>
   </g>
   <g id="line2d_21">
    <path clip-path="url(#p7611752112)" d="M 444.644255 60.291338 
L 445.243868 57.586997 
L 445.843482 54.922691 
L 446.443095 52.376587 
L 447.042708 50.017173 
L 447.642321 47.900064 
L 448.241934 46.066955 
L 448.841547 44.546123 
L 449.441161 43.353598 
L 450.040774 42.494141 
L 450.640387 41.961577 
L 451.24 41.738556 
L 451.839613 41.796303 
L 452.439226 42.095104 
L 453.038839 42.586125 
L 453.638453 43.214725 
L 454.238066 43.92487 
L 454.837679 44.663807 
L 455.437292 45.386033 
L 456.036905 46.055819 
L 456.636518 46.647975 
L 457.236132 47.147111 
L 457.835745 47.546042 
L 458.435358 47.844059 
L 459.034971 48.045641 
L 459.634584 48.159762 
L 460.234197 48.199524 
L 460.83381 48.181604 
L 461.433424 48.124993 
L 462.033037 48.04876 
L 462.63265 47.969011 
L 463.232263 47.895604 
L 463.831876 47.829411 
L 464.431489 47.760898 
L 465.031103 47.670517 
L 465.630716 47.530935 
L 466.230329 47.310726 
L 466.829942 46.978764 
L 467.429555 46.508498 
L 468.029168 45.881331 
L 468.628781 45.088591 
L 469.228395 44.131886 
L 469.828008 43.0219 
L 470.427621 41.775898 
L 471.027234 40.414331 
L 471.626847 38.957027 
L 472.22646 37.419474 
L 472.826074 35.8098 
L 473.425687 34.127067 
L 474.0253 32.361494 
L 474.624913 30.497043 
L 475.224526 28.516472 
L 475.824139 26.408497 
L 476.423752 24.176086 
L 477.023366 21.844483 
L 477.622979 19.467294 
L 478.222592 17.129118 
L 478.822205 14.943719 
L 479.421818 13.047538 
L 480.021431 11.58918 
L 480.621044 10.716225 
L 481.220658 10.561091 
L 481.820271 11.227655 
L 482.419884 12.780105 
L 483.019497 15.235039 
L 483.61911 18.557441 
L 484.218723 22.660888 
L 484.818337 27.412073 
L 485.41795 32.639535 
L 486.017563 38.146105 
L 486.617176 43.724122 
L 487.216789 49.171928 
L 487.816402 54.309727 
L 488.416015 58.992789 
L 489.015629 63.120265 
L 489.615242 66.63858 
L 490.214855 69.539309 
L 490.814468 71.852385 
L 491.414081 73.636201 
L 492.013694 74.966492 
L 492.613308 75.925749 
L 493.212921 76.594515 
L 493.812534 77.045255 
L 494.412147 77.338924 
L 495.01176 77.523868 
L 495.611373 77.636445 
L 496.210986 77.702678 
L 496.8106 77.740339 
L 497.410213 77.761035 
L 498.009826 77.772026 
L 498.609439 77.777668 
L 499.209052 77.780466 
L 499.808665 77.781808 
L 500.408279 77.782429 
L 501.007892 77.782707 
L 501.607505 77.782828 
L 502.207118 77.782878 
L 502.806731 77.782898 
L 503.406344 77.782906 
L 504.005957 77.782909 
" style="fill:none;stroke:#2e7fe8;stroke-linecap:square;stroke-width:1.5;"/>
   </g>
   <g id="patch_15">
    <path d="M 444.644255 86.144 
L 504.005957 86.144 
" style="fill:none;stroke:#000000;stroke-linecap:square;stroke-linejoin:miter;stroke-width:1.5;"/>
   </g>
  </g>
  <g id="axes_8">
   <g id="patch_16">
    <path d="M 515.878298 81.144 
L 575.24 81.144 
L 575.24 7.2 
L 515.878298 7.2 
z
" style="fill:none;"/>
   </g>
   <g id="matplotlib.axis_15">
    <g id="xtick_15">
     <g id="line2d_22">
      <g>
       <use style="stroke:#000000;stroke-width:1.5;" x="515.878298" xlink:href="#m7a0ec309ea" y="86.144"/>
      </g>
     </g>
     <g id="text_22">
      <!-- $\mathdefault{0.01}$  -->
      <g transform="translate(506.958298 98.87025)">
       <text>
        <tspan style="font-family:Arial;font-size:8px;font-style:regular;font-weight:regular;" x="0 4.449219 6.671875 11.121094 15.570312" y="-0.25">0.01 </tspan>
       </text>
      </g>
     </g>
    </g>
    <g id="xtick_16">
     <g id="line2d_23">
      <g>
       <use style="stroke:#000000;stroke-width:1.5;" x="575.24" xlink:href="#m7a0ec309ea" y="86.144"/>
      </g>
     </g>
     <g id="text_23">
      <!-- $\mathdefault{1000}\;\;\;\;$  -->
      <g transform="translate(561.52 98.87025)">
       <text>
        <tspan style="font-family:Arial;font-size:8px;font-style:regular;font-weight:regular;" x="0 4.449219 8.898438 13.347656 25.201448" y="-0.25">1000 </tspan>
       </text>
      </g>
     </g>
    </g>
    <g id="text_24">
     <!-- $\mathdefault{AB-PY}$ -->
     <g transform="translate(531.199149 110.1865)">
      <text>
       <tspan style="font-family:Arial;font-size:8px;font-style:regular;font-weight:regular;" x="0 5.335938 12.004687 18.009375 23.345312" y="-0.265625">AB−PY</tspan>
      </text>
     </g>
    </g>
   </g>
   <g id="matplotlib.axis_16">
    <g id="ytick_25"/>
    <g id="ytick_26"/>
    <g id="ytick_27"/>
   </g>
   <g id="line2d_24">
    <path clip-path="url(#pc9d5cd823a)" d="M 515.878298 40.455297 
L 516.477911 34.993752 
L 517.077524 29.879606 
L 517.677137 25.239865 
L 518.27675 21.177352 
L 518.876364 17.764246 
L 519.475977 15.038161 
L 520.07559 13.001046 
L 520.675203 11.620899 
L 521.274816 10.835994 
L 521.874429 10.561091 
L 522.474043 10.694978 
L 523.073656 11.128591 
L 523.673269 11.753013 
L 524.272882 12.466724 
L 524.872495 13.181588 
L 525.472108 13.827229 
L 526.071721 14.353611 
L 526.671335 14.731785 
L 527.270948 14.952922 
L 527.870561 15.02587 
L 528.470174 14.973598 
L 529.069787 14.828911 
L 529.6694 14.62992 
L 530.269014 14.415666 
L 530.868627 14.222311 
L 531.46824 14.08017 
L 532.067853 14.011771 
L 532.667466 14.030972 
L 533.267079 14.14307 
L 533.866692 14.345702 
L 534.466306 14.630288 
L 535.065919 14.983742 
L 535.665532 15.390203 
L 536.265145 15.832592 
L 536.864758 16.293888 
L 537.464371 16.7581 
L 538.063985 17.210976 
L 538.663598 17.64053 
L 539.263211 18.037472 
L 539.862824 18.395597 
L 540.462437 18.712134 
L 541.06205 18.988013 
L 541.661663 19.227954 
L 542.261277 19.440263 
L 542.86089 19.636256 
L 543.460503 19.829273 
L 544.060116 20.033293 
L 544.659729 20.261303 
L 545.259342 20.523576 
L 545.858956 20.826112 
L 546.458569 21.169471 
L 547.058182 21.548206 
L 547.657795 21.951005 
L 548.257408 22.361595 
L 548.857021 22.760299 
L 549.456634 23.126085 
L 550.056248 23.438854 
L 550.655861 23.681678 
L 551.255474 23.842724 
L 551.855087 23.916644 
L 552.4547 23.905259 
L 553.054313 23.817516 
L 553.653926 23.668732 
L 554.25354 23.479257 
L 554.853153 23.272747 
L 555.452766 23.074258 
L 556.052379 22.908379 
L 556.651992 22.797612 
L 557.251605 22.761149 
L 557.851219 22.814131 
L 558.450832 22.967451 
L 559.050445 23.228053 
L 559.650058 23.599664 
L 560.249671 24.083846 
L 560.849284 24.681222 
L 561.448897 25.392707 
L 562.048511 26.220598 
L 562.648124 27.169378 
L 563.247737 28.246105 
L 563.84735 29.460338 
L 564.446963 30.823554 
L 565.046576 32.348142 
L 565.64619 34.046033 
L 566.245803 35.927151 
L 566.845416 37.997853 
L 567.445029 40.259545 
L 568.044642 42.707646 
L 568.644255 45.331015 
L 569.243868 48.111902 
L 569.843482 51.026417 
L 570.443095 54.045436 
L 571.042708 57.135833 
L 571.642321 60.261892 
L 572.241934 63.386755 
L 572.841547 66.473805 
L 573.441161 69.48788 
L 574.040774 72.396314 
L 574.640387 75.169771 
L 575.24 77.782909 
" style="fill:none;stroke:#2e7fe8;stroke-linecap:square;stroke-width:1.5;"/>
   </g>
   <g id="patch_17">
    <path d="M 515.878298 86.144 
L 575.24 86.144 
" style="fill:none;stroke:#000000;stroke-linecap:square;stroke-linejoin:miter;stroke-width:1.5;"/>
   </g>
   <g id="text_25">
    <text style="font-family:Arial;font-size:16px;font-style:normal;font-weight:normal;text-anchor:start;" transform="rotate(-0, 582.660213, 44.172)" x="582.660213" y="44.172">...</text>
   </g>
  </g>
 </g>
 <defs>
  <clipPath id="p7e27019381">
   <rect height="73.944" width="59.361702" x="17.24" y="7.2"/>
  </clipPath>
  <clipPath id="pa589805466">
   <rect height="73.944" width="59.361702" x="88.474043" y="7.2"/>
  </clipPath>
  <clipPath id="p4074cd5ea3">
   <rect height="73.944" width="59.361702" x="159.708085" y="7.2"/>
  </clipPath>
  <clipPath id="p6e4333df35">
   <rect height="73.944" width="59.361702" x="230.942128" y="7.2"/>
  </clipPath>
  <clipPath id="p1aa6240fdb">
   <rect height="73.944" width="59.361702" x="302.17617" y="7.2"/>
  </clipPath>
  <clipPath id="p8efce7c6d5">
   <rect height="73.944" width="59.361702" x="373.410213" y="7.2"/>
  </clipPath>
  <clipPath id="p7611752112">
   <rect height="73.944" width="59.361702" x="444.644255" y="7.2"/>
  </clipPath>
  <clipPath id="pc9d5cd823a">
   <rect height="73.944" width="59.361702" x="515.878298" y="7.2"/>
  </clipPath>
 </defs>
</svg>
