<?xml version="1.0" encoding="utf-8" standalone="no"?>
<!DOCTYPE svg PUBLIC "-//W3C//DTD SVG 1.1//EN"
  "http://www.w3.org/Graphics/SVG/1.1/DTD/svg11.dtd">
<!-- Created with matplotlib (https://matplotlib.org/) -->
<svg height="118.9765pt" version="1.1" viewBox="0 0 597.635213 118.9765" width="597.635213pt" xmlns="http://www.w3.org/2000/svg" xmlns:xlink="http://www.w3.org/1999/xlink">
 <defs>
  <style type="text/css">
*{stroke-linecap:butt;stroke-linejoin:round;}
  </style>
 </defs>
 <g id="figure_1">
  <g id="patch_1">
   <path d="M 0 118.9765 
L 597.635213 118.9765 
L 597.635213 -0 
L 0 -0 
z
" style="fill:none;"/>
  </g>
  <g id="axes_1">
   <g id="patch_2">
    <path d="M 11.68 81.144 
L 71.041702 81.144 
L 71.041702 7.2 
L 11.68 7.2 
z
" style="fill:none;"/>
   </g>
   <g id="matplotlib.axis_1">
    <g id="xtick_1">
     <g id="line2d_1">
      <defs>
       <path d="M 0 0 
L 0 3.5 
" id="ma78c98c75d" style="stroke:#000000;stroke-width:1.5;"/>
      </defs>
      <g>
       <use style="stroke:#000000;stroke-width:1.5;" x="11.68" xlink:href="#ma78c98c75d" y="86.144"/>
      </g>
     </g>
     <g id="text_1">
      <!-- $\mathdefault{0}$   -->
      <g transform="translate(7.2 98.87025)">
       <text>
        <tspan style="font-family:Arial;font-size:8px;font-style:regular;font-weight:regular;" x="0 4.449219 6.671875" y="-0.25">0  </tspan>
       </text>
      </g>
     </g>
    </g>
    <g id="xtick_2">
     <g id="line2d_2">
      <g>
       <use style="stroke:#000000;stroke-width:1.5;" x="71.041702" xlink:href="#ma78c98c75d" y="86.144"/>
      </g>
     </g>
     <g id="text_2">
      <!-- $\mathdefault{500}\;\;\;$   -->
      <g transform="translate(59.361702 98.87025)">
       <text>
        <tspan style="font-family:Arial;font-size:8px;font-style:regular;font-weight:regular;" x="0 4.449219 8.898438 18.901086 21.123742" y="-0.25">500  </tspan>
       </text>
      </g>
     </g>
    </g>
    <g id="text_3">
     <text style="font-family:Arial;font-size:8px;font-style:normal;font-weight:normal;text-anchor:middle;" transform="rotate(-0, 41.360851, 110.1865)" x="41.360851" y="110.1865">AB-Na</text>
    </g>
   </g>
   <g id="matplotlib.axis_2">
    <g id="ytick_1"/>
    <g id="ytick_2"/>
    <g id="ytick_3"/>
    <g id="ytick_4"/>
   </g>
   <g id="line2d_3">
    <path clip-path="url(#p1c72937f72)" d="M 11.68 77.782909 
L 12.279613 77.782702 
L 12.879226 77.782239 
L 13.478839 77.781255 
L 14.078453 77.779281 
L 14.678066 77.775532 
L 15.277679 77.768801 
L 15.877292 77.75736 
L 16.476905 77.738959 
L 17.076518 77.710933 
L 17.676132 77.670485 
L 18.275745 77.615115 
L 18.875358 77.543107 
L 19.474971 77.453936 
L 20.074584 77.34842 
L 20.674197 77.228496 
L 21.27381 77.096615 
L 21.873424 76.954871 
L 22.473037 76.804131 
L 23.07265 76.643433 
L 23.672263 76.469925 
L 24.271876 76.279415 
L 24.871489 76.06746 
L 25.471103 75.830664 
L 26.070716 75.567745 
L 26.670329 75.27987 
L 27.269942 74.970002 
L 27.869555 74.64133 
L 28.469168 74.295354 
L 29.068781 73.930455 
L 29.668395 73.541724 
L 30.268008 73.122339 
L 30.867621 72.666062 
L 31.467234 72.169819 
L 32.066847 71.635223 
L 32.66646 71.068322 
L 33.266074 70.477667 
L 33.865687 69.871486 
L 34.4653 69.255031 
L 35.064913 68.628856 
L 35.664526 67.988162 
L 36.264139 67.322864 
L 36.863752 66.617884 
L 37.463366 65.853523 
L 38.062979 65.006295 
L 38.662592 64.050925 
L 39.262205 62.964177 
L 39.861818 61.73057 
L 40.461431 60.349086 
L 41.061044 58.838961 
L 41.660658 57.242052 
L 42.260271 55.619592 
L 42.859884 54.042544 
L 43.459497 52.577021 
L 44.05911 51.268441 
L 44.658723 50.12929 
L 45.258337 49.134705 
L 45.85795 48.227759 
L 46.457563 47.333173 
L 47.057176 46.375573 
L 47.656789 45.297245 
L 48.256402 44.070901 
L 48.856015 42.704711 
L 49.455629 41.238892 
L 50.055242 39.735024 
L 50.654855 38.260658 
L 51.254468 36.872753 
L 51.854081 35.603968 
L 52.453694 34.455412 
L 53.053308 33.398042 
L 53.652921 32.382416 
L 54.252534 31.353831 
L 54.852147 30.26792 
L 55.45176 29.101608 
L 56.051373 27.856166 
L 56.650986 26.552312 
L 57.2506 25.220428 
L 57.850213 23.890629 
L 58.449826 22.586693 
L 59.049439 21.325319 
L 59.649052 20.119122 
L 60.248665 18.979977 
L 60.848279 17.919562 
L 61.447892 16.946096 
L 62.047505 16.058833 
L 62.647118 15.24367 
L 63.246731 14.473331 
L 63.846344 13.714343 
L 64.445957 12.941095 
L 65.045571 12.155284 
L 65.645184 11.407126 
L 66.244797 10.812806 
L 66.84441 10.561091 
L 67.444023 10.902018 
L 68.043636 12.113364 
L 68.64325 14.446885 
L 69.242863 18.0646 
L 69.842476 22.982345 
L 70.442089 29.039564 
L 71.041702 35.908605 
" style="fill:none;stroke:#2e7fe8;stroke-linecap:square;stroke-width:1.5;"/>
   </g>
   <g id="patch_3">
    <path d="M 11.68 86.144 
L 71.041702 86.144 
" style="fill:none;stroke:#000000;stroke-linecap:square;stroke-linejoin:miter;stroke-width:1.5;"/>
   </g>
  </g>
  <g id="axes_2">
   <g id="patch_4">
    <path d="M 82.914043 81.144 
L 142.275745 81.144 
L 142.275745 7.2 
L 82.914043 7.2 
z
" style="fill:none;"/>
   </g>
   <g id="matplotlib.axis_3">
    <g id="xtick_3">
     <g id="line2d_4">
      <g>
       <use style="stroke:#000000;stroke-width:1.5;" x="82.914043" xlink:href="#ma78c98c75d" y="86.144"/>
      </g>
     </g>
     <g id="text_4">
      <!-- $\mathdefault{0.00}$   -->
      <g transform="translate(72.874043 98.87025)">
       <text>
        <tspan style="font-family:Arial;font-size:8px;font-style:regular;font-weight:regular;" x="0 4.449219 6.671875 11.121094 15.570312 17.792969" y="-0.25">0.00  </tspan>
       </text>
      </g>
     </g>
    </g>
    <g id="xtick_4">
     <g id="line2d_5">
      <g>
       <use style="stroke:#000000;stroke-width:1.5;" x="142.275745" xlink:href="#ma78c98c75d" y="86.144"/>
      </g>
     </g>
     <g id="text_5">
      <!-- $\mathdefault{7.50}\;\;\;$   -->
      <g transform="translate(129.475745 98.87025)">
       <text>
        <tspan style="font-family:Arial;font-size:8px;font-style:regular;font-weight:regular;" x="0 4.449219 6.671875 11.121094 21.123742 23.346399" y="-0.25">7.50  </tspan>
       </text>
      </g>
     </g>
    </g>
    <g id="text_6">
     <text style="font-family:Arial;font-size:8px;font-style:normal;font-weight:normal;text-anchor:middle;" transform="rotate(-0, 112.594894, 110.1865)" x="112.594894" y="110.1865">AB-CaT</text>
    </g>
   </g>
   <g id="matplotlib.axis_4">
    <g id="ytick_5"/>
    <g id="ytick_6"/>
   </g>
   <g id="line2d_6">
    <path clip-path="url(#p83579c186c)" d="M 82.914043 77.782909 
L 83.513656 77.144641 
L 84.113269 76.491305 
L 84.712882 75.831233 
L 85.312495 75.169321 
L 85.912108 74.506099 
L 86.511721 73.83743 
L 87.111335 73.154953 
L 87.710948 72.447241 
L 88.310561 71.701531 
L 88.910174 70.905754 
L 89.509787 70.050557 
L 90.1094 69.130963 
L 90.709014 68.147437 
L 91.308627 67.106183 
L 91.90824 66.018678 
L 92.507853 64.900545 
L 93.107466 63.769965 
L 93.707079 62.645871 
L 94.306692 61.546124 
L 94.906306 60.485844 
L 95.505919 59.476015 
L 96.105532 58.522411 
L 96.705145 57.624933 
L 97.304758 56.777419 
L 97.904371 55.968032 
L 98.503985 55.180315 
L 99.103598 54.394938 
L 99.703211 53.592066 
L 100.302824 52.754079 
L 100.902437 51.868281 
L 101.50205 50.929094 
L 102.101663 49.939266 
L 102.701277 48.909742 
L 103.30089 47.858115 
L 103.900503 46.805848 
L 104.500116 45.774782 
L 105.099729 44.783596 
L 105.699342 43.844957 
L 106.298956 42.963912 
L 106.898569 42.137806 
L 107.498182 41.357659 
L 108.097795 40.610561 
L 108.697408 39.882475 
L 109.297021 39.160758 
L 109.896634 38.435856 
L 110.496248 37.701889 
L 111.095861 36.956148 
L 111.695474 36.197818 
L 112.295087 35.426399 
L 112.8947 34.640289 
L 113.494313 33.835928 
L 114.093926 33.007658 
L 114.69354 32.14826 
L 115.293153 31.249972 
L 115.892766 30.305734 
L 116.492379 29.310405 
L 117.091992 28.261809 
L 117.691605 27.161563 
L 118.291219 26.015681 
L 118.890832 24.834953 
L 119.490445 23.635055 
L 120.090058 22.436228 
L 120.689671 21.262369 
L 121.289284 20.139389 
L 121.888897 19.092835 
L 122.488511 18.144971 
L 123.088124 17.31174 
L 123.687737 16.600174 
L 124.28735 16.006831 
L 124.886963 15.517744 
L 125.486576 15.110047 
L 126.08619 14.755134 
L 126.685803 14.422847 
L 127.285416 14.085939 
L 127.885029 13.724029 
L 128.484642 13.326339 
L 129.084255 12.892849 
L 129.683868 12.433853 
L 130.283482 11.968297 
L 130.883095 11.521545 
L 131.482708 11.1233 
L 132.082321 10.80628 
L 132.681934 10.605935 
L 133.281547 10.561091 
L 133.881161 10.71502 
L 134.480774 11.116178 
L 135.080387 11.817829 
L 135.68 12.875933 
L 136.279613 14.345132 
L 136.879226 16.27306 
L 137.478839 18.693751 
L 138.078453 21.621144 
L 138.678066 25.043851 
L 139.277679 28.922165 
L 139.877292 33.18799 
L 140.476905 37.747883 
L 141.076518 42.488953 
L 141.676132 47.286922 
L 142.275745 52.015357 
" style="fill:none;stroke:#2e7fe8;stroke-linecap:square;stroke-width:1.5;"/>
   </g>
   <g id="patch_5">
    <path d="M 82.914043 86.144 
L 142.275745 86.144 
" style="fill:none;stroke:#000000;stroke-linecap:square;stroke-linejoin:miter;stroke-width:1.5;"/>
   </g>
  </g>
  <g id="axes_3">
   <g id="patch_6">
    <path d="M 154.148085 81.144 
L 213.509787 81.144 
L 213.509787 7.2 
L 154.148085 7.2 
z
" style="fill:none;"/>
   </g>
   <g id="matplotlib.axis_5">
    <g id="xtick_5">
     <g id="line2d_7">
      <g>
       <use style="stroke:#000000;stroke-width:1.5;" x="154.148085" xlink:href="#ma78c98c75d" y="86.144"/>
      </g>
     </g>
     <g id="text_7">
      <!-- $\mathdefault{0.00}$   -->
      <g transform="translate(144.108085 98.87025)">
       <text>
        <tspan style="font-family:Arial;font-size:8px;font-style:regular;font-weight:regular;" x="0 4.449219 6.671875 11.121094 15.570312 17.792969" y="-0.25">0.00  </tspan>
       </text>
      </g>
     </g>
    </g>
    <g id="xtick_6">
     <g id="line2d_8">
      <g>
       <use style="stroke:#000000;stroke-width:1.5;" x="213.509787" xlink:href="#ma78c98c75d" y="86.144"/>
      </g>
     </g>
     <g id="text_8">
      <!-- $\mathdefault{8.00}\;\;\;$   -->
      <g transform="translate(200.709787 98.87025)">
       <text>
        <tspan style="font-family:Arial;font-size:8px;font-style:regular;font-weight:regular;" x="0 4.449219 6.671875 11.121094 21.123742 23.346399" y="-0.25">8.00  </tspan>
       </text>
      </g>
     </g>
    </g>
    <g id="text_9">
     <text style="font-family:Arial;font-size:8px;font-style:normal;font-weight:normal;text-anchor:middle;" transform="rotate(-0, 183.828936, 110.1865)" x="183.828936" y="110.1865">AB-CaS</text>
    </g>
   </g>
   <g id="matplotlib.axis_6">
    <g id="ytick_7"/>
    <g id="ytick_8"/>
    <g id="ytick_9"/>
   </g>
   <g id="line2d_9">
    <path clip-path="url(#pcc7d80880e)" d="M 154.148085 77.782909 
L 154.747698 77.619312 
L 155.347311 77.436041 
L 155.946925 77.239421 
L 156.546538 77.037226 
L 157.146151 76.837353 
L 157.745764 76.646148 
L 158.345377 76.466717 
L 158.94499 76.297573 
L 159.544603 76.131981 
L 160.144217 75.958226 
L 160.74383 75.760852 
L 161.343443 75.522747 
L 161.943056 75.227737 
L 162.542669 74.863272 
L 163.142282 74.422672 
L 163.741896 73.906454 
L 164.341509 73.322313 
L 164.941122 72.683527 
L 165.540735 72.005878 
L 166.140348 71.303534 
L 166.739961 70.584754 
L 167.339574 69.848483 
L 167.939188 69.082924 
L 168.538801 68.266772 
L 169.138414 67.373171 
L 169.738027 66.375649 
L 170.33764 65.254672 
L 170.937253 64.003181 
L 171.536867 62.629689 
L 172.13648 61.158191 
L 172.736093 59.624986 
L 173.335706 58.073316 
L 173.935319 56.547166 
L 174.534932 55.085589 
L 175.134545 53.718521 
L 175.734159 52.464441 
L 176.333772 51.329682 
L 176.933385 50.308843 
L 177.532998 49.385691 
L 178.132611 48.534177 
L 178.732224 47.719527 
L 179.331838 46.899656 
L 179.931451 46.027365 
L 180.531064 45.05366 
L 181.130677 43.932302 
L 181.73029 42.625286 
L 182.329903 41.108493 
L 182.929516 39.376448 
L 183.52913 37.445009 
L 184.128743 35.351033 
L 184.728356 33.148621 
L 185.327969 30.902311 
L 185.927582 28.678442 
L 186.527195 26.536446 
L 187.126809 24.521964 
L 187.726422 22.663226 
L 188.326035 20.971269 
L 188.925648 19.443537 
L 189.525261 18.069556 
L 190.124874 16.836957 
L 190.724487 15.73622 
L 191.324101 14.763011 
L 191.923714 13.917784 
L 192.523327 13.203048 
L 193.12294 12.619346 
L 193.722553 12.161318 
L 194.322166 11.815193 
L 194.921779 11.558724 
L 195.521393 11.363897 
L 196.121006 11.202025 
L 196.720619 11.050116 
L 197.320232 10.896966 
L 197.919845 10.747368 
L 198.519458 10.623227 
L 199.119072 10.561091 
L 199.718685 10.606511 
L 200.318298 10.806504 
L 200.917911 11.201924 
L 201.517524 11.821544 
L 202.117137 12.679149 
L 202.71675 13.773959 
L 203.316364 15.093655 
L 203.915977 16.618517 
L 204.51559 18.325014 
L 205.115203 20.187781 
L 205.714816 22.179966 
L 206.314429 24.273054 
L 206.914043 26.437858 
L 207.513656 28.648 
L 208.113269 30.886002 
L 208.712882 33.150388 
L 209.312495 35.460867 
L 209.912108 37.858422 
L 210.511721 40.39828 
L 211.111335 43.136113 
L 211.710948 46.110478 
L 212.310561 49.32637 
L 212.910174 52.745054 
L 213.509787 56.283723 
" style="fill:none;stroke:#2e7fe8;stroke-linecap:square;stroke-width:1.5;"/>
   </g>
   <g id="patch_7">
    <path d="M 154.148085 86.144 
L 213.509787 86.144 
" style="fill:none;stroke:#000000;stroke-linecap:square;stroke-linejoin:miter;stroke-width:1.5;"/>
   </g>
  </g>
  <g id="axes_4">
   <g id="patch_8">
    <path d="M 225.382128 81.144 
L 284.74383 81.144 
L 284.74383 7.2 
L 225.382128 7.2 
z
" style="fill:none;"/>
   </g>
   <g id="matplotlib.axis_7">
    <g id="xtick_7">
     <g id="line2d_10">
      <g>
       <use style="stroke:#000000;stroke-width:1.5;" x="225.382128" xlink:href="#ma78c98c75d" y="86.144"/>
      </g>
     </g>
     <g id="text_10">
      <!-- $\mathdefault{0.00}$   -->
      <g transform="translate(215.342128 98.87025)">
       <text>
        <tspan style="font-family:Arial;font-size:8px;font-style:regular;font-weight:regular;" x="0 4.449219 6.671875 11.121094 15.570312 17.792969" y="-0.25">0.00  </tspan>
       </text>
      </g>
     </g>
    </g>
    <g id="xtick_8">
     <g id="line2d_11">
      <g>
       <use style="stroke:#000000;stroke-width:1.5;" x="284.74383" xlink:href="#ma78c98c75d" y="86.144"/>
      </g>
     </g>
     <g id="text_11">
      <!-- $\mathdefault{15.00}\;\;\;$   -->
      <g transform="translate(269.70383 98.87025)">
       <text>
        <tspan style="font-family:Arial;font-size:8px;font-style:regular;font-weight:regular;" x="0 4.449219 8.898438 11.121094 15.570312 25.572961 27.795617" y="-0.25">15.00  </tspan>
       </text>
      </g>
     </g>
    </g>
    <g id="text_12">
     <text style="font-family:Arial;font-size:8px;font-style:normal;font-weight:normal;text-anchor:middle;" transform="rotate(-0, 255.062979, 110.1865)" x="255.062979" y="110.1865">AB-KCa</text>
    </g>
   </g>
   <g id="matplotlib.axis_8">
    <g id="ytick_10"/>
    <g id="ytick_11"/>
    <g id="ytick_12"/>
    <g id="ytick_13"/>
   </g>
   <g id="line2d_12">
    <path clip-path="url(#p1e2f705cd0)" d="M 225.382128 77.782909 
L 225.981741 77.782565 
L 226.581354 77.781769 
L 227.180967 77.78003 
L 227.78058 77.776456 
L 228.380193 77.769543 
L 228.979807 77.756956 
L 229.57942 77.735399 
L 230.179033 77.700678 
L 230.778646 77.648119 
L 231.378259 77.573384 
L 231.977872 77.473626 
L 232.577485 77.348719 
L 233.177099 77.202113 
L 233.776712 77.040892 
L 234.376325 76.874785 
L 234.975938 76.714277 
L 235.575551 76.568396 
L 236.175164 76.442943 
L 236.774778 76.339858 
L 237.374391 76.257866 
L 237.974004 76.193987 
L 238.573617 76.144996 
L 239.17323 76.107913 
L 239.772843 76.079043 
L 240.372456 76.051828 
L 240.97207 76.014472 
L 241.571683 75.948606 
L 242.171296 75.830066 
L 242.770909 75.632171 
L 243.370522 75.330946 
L 243.970135 74.91093 
L 244.569749 74.369825 
L 245.169362 73.72044 
L 245.768975 72.989213 
L 246.368588 72.21164 
L 246.968201 71.425841 
L 247.567814 70.66585 
L 248.167427 69.955962 
L 248.767041 69.306761 
L 249.366654 68.712895 
L 249.966267 68.152401 
L 250.56588 67.587699 
L 251.165493 66.968807 
L 251.765106 66.23949 
L 252.36472 65.346593 
L 252.964333 64.251629 
L 253.563946 62.942371 
L 254.163559 61.441109 
L 254.763172 59.806331 
L 255.362785 58.125752 
L 255.962398 56.501002 
L 256.562012 55.026903 
L 257.161625 53.770362 
L 257.761238 52.754615 
L 258.360851 51.953449 
L 258.960464 51.297375 
L 259.560077 50.690304 
L 260.159691 50.032317 
L 260.759304 49.242525 
L 261.358917 48.276252 
L 261.95853 47.132583 
L 262.558143 45.850836 
L 263.157756 44.497102 
L 263.757369 43.144073 
L 264.356983 41.848912 
L 264.956596 40.634627 
L 265.556209 39.480027 
L 266.155822 38.321556 
L 266.755435 37.067262 
L 267.355048 35.619771 
L 267.954662 33.902597 
L 268.554275 31.883297 
L 269.153888 29.587849 
L 269.753501 27.102663 
L 270.353114 24.562992 
L 270.952727 22.129069 
L 271.55234 19.953989 
L 272.151954 18.150168 
L 272.751567 16.76318 
L 273.35118 15.761509 
L 273.950793 15.04724 
L 274.550406 14.486303 
L 275.150019 13.949606 
L 275.749632 13.351558 
L 276.349246 12.672728 
L 276.948859 11.959359 
L 277.548472 11.302064 
L 278.148085 10.805036 
L 278.747698 10.561091 
L 279.347311 10.644451 
L 279.946925 11.123489 
L 280.546538 12.084182 
L 281.146151 13.647585 
L 281.745764 15.965482 
L 282.345377 19.187874 
L 282.94499 23.409894 
L 283.544603 28.617404 
L 284.144217 34.654042 
L 284.74383 41.225702 
" style="fill:none;stroke:#2e7fe8;stroke-linecap:square;stroke-width:1.5;"/>
   </g>
   <g id="patch_9">
    <path d="M 225.382128 86.144 
L 284.74383 86.144 
" style="fill:none;stroke:#000000;stroke-linecap:square;stroke-linejoin:miter;stroke-width:1.5;"/>
   </g>
  </g>
  <g id="axes_5">
   <g id="patch_10">
    <path d="M 296.61617 81.144 
L 355.977872 81.144 
L 355.977872 7.2 
L 296.61617 7.2 
z
" style="fill:none;"/>
   </g>
   <g id="matplotlib.axis_9">
    <g id="xtick_9">
     <g id="line2d_13">
      <g>
       <use style="stroke:#000000;stroke-width:1.5;" x="296.61617" xlink:href="#ma78c98c75d" y="86.144"/>
      </g>
     </g>
     <g id="text_13">
      <!-- $\mathdefault{0}$   -->
      <g transform="translate(292.13617 98.87025)">
       <text>
        <tspan style="font-family:Arial;font-size:8px;font-style:regular;font-weight:regular;" x="0 4.449219 6.671875" y="-0.25">0  </tspan>
       </text>
      </g>
     </g>
    </g>
    <g id="xtick_10">
     <g id="line2d_14">
      <g>
       <use style="stroke:#000000;stroke-width:1.5;" x="355.977872" xlink:href="#ma78c98c75d" y="86.144"/>
      </g>
     </g>
     <g id="text_14">
      <!-- $\mathdefault{600}\;\;\;$   -->
      <g transform="translate(344.297872 98.87025)">
       <text>
        <tspan style="font-family:Arial;font-size:8px;font-style:regular;font-weight:regular;" x="0 4.449219 8.898438 18.901086 21.123742" y="-0.25">600  </tspan>
       </text>
      </g>
     </g>
    </g>
    <g id="text_15">
     <text style="font-family:Arial;font-size:8px;font-style:normal;font-weight:normal;text-anchor:middle;" transform="rotate(-0, 326.297021, 110.1865)" x="326.297021" y="110.1865">PY-Na</text>
    </g>
   </g>
   <g id="matplotlib.axis_10">
    <g id="ytick_14"/>
    <g id="ytick_15"/>
    <g id="ytick_16"/>
    <g id="ytick_17"/>
   </g>
   <g id="line2d_15">
    <path clip-path="url(#p882935c009)" d="M 296.61617 77.782909 
L 297.215783 77.782909 
L 297.815397 77.782909 
L 298.41501 77.782909 
L 299.014623 77.782909 
L 299.614236 77.782909 
L 300.213849 77.782909 
L 300.813462 77.782909 
L 301.413075 77.782909 
L 302.012689 77.782909 
L 302.612302 77.782909 
L 303.211915 77.782909 
L 303.811528 77.782909 
L 304.411141 77.782909 
L 305.010754 77.782909 
L 305.610368 77.782909 
L 306.209981 77.782909 
L 306.809594 77.782909 
L 307.409207 77.782909 
L 308.00882 77.782909 
L 308.608433 77.782909 
L 309.208046 77.782909 
L 309.80766 77.782909 
L 310.407273 77.782909 
L 311.006886 77.782909 
L 311.606499 77.782909 
L 312.206112 77.782909 
L 312.805725 77.782909 
L 313.405338 77.782909 
L 314.004952 77.782909 
L 314.604565 77.782909 
L 315.204178 77.782909 
L 315.803791 77.782909 
L 316.403404 77.782909 
L 317.003017 77.782909 
L 317.602631 77.782909 
L 318.202244 77.782909 
L 318.801857 77.782909 
L 319.40147 77.782909 
L 320.001083 77.782909 
L 320.600696 77.782909 
L 321.200309 77.782909 
L 321.799923 77.782909 
L 322.399536 77.782909 
L 322.999149 77.782909 
L 323.598762 77.782906 
L 324.198375 77.782877 
L 324.797988 77.782671 
L 325.397602 77.781509 
L 325.997215 77.776398 
L 326.596828 77.758869 
L 327.196441 77.712166 
L 327.796054 77.615753 
L 328.395667 77.461227 
L 328.99528 77.26524 
L 329.594894 77.05552 
L 330.194507 76.840739 
L 330.79412 76.612144 
L 331.393733 76.3834 
L 331.993346 76.205894 
L 332.592959 76.125158 
L 333.192573 76.128779 
L 333.792186 76.139251 
L 334.391799 76.043915 
L 334.991412 75.734707 
L 335.591025 75.152604 
L 336.190638 74.329244 
L 336.790251 73.388941 
L 337.389865 72.484528 
L 337.989478 71.700078 
L 338.589091 70.981484 
L 339.188704 70.143509 
L 339.788317 68.978775 
L 340.38793 67.410578 
L 340.987544 65.557111 
L 341.587157 63.63391 
L 342.18677 61.737403 
L 342.786383 59.661805 
L 343.385996 56.965305 
L 343.985609 53.335477 
L 344.585222 48.97801 
L 345.184836 44.636555 
L 345.784449 41.103075 
L 346.384062 38.564801 
L 346.983675 36.426744 
L 347.583288 33.857433 
L 348.182901 30.546625 
L 348.782515 26.937913 
L 349.382128 23.743999 
L 349.981741 21.297058 
L 350.581354 19.438974 
L 351.180967 17.919949 
L 351.78058 16.608055 
L 352.380193 15.268014 
L 352.979807 13.519107 
L 353.57942 11.470114 
L 354.179033 10.561091 
L 354.778646 13.428264 
L 355.378259 22.126911 
L 355.977872 35.93393 
" style="fill:none;stroke:#2e7fe8;stroke-linecap:square;stroke-width:1.5;"/>
   </g>
   <g id="patch_11">
    <path d="M 296.61617 86.144 
L 355.977872 86.144 
" style="fill:none;stroke:#000000;stroke-linecap:square;stroke-linejoin:miter;stroke-width:1.5;"/>
   </g>
  </g>
  <g id="axes_6">
   <g id="patch_12">
    <path d="M 367.850213 81.144 
L 427.211915 81.144 
L 427.211915 7.2 
L 367.850213 7.2 
z
" style="fill:none;"/>
   </g>
   <g id="matplotlib.axis_11">
    <g id="xtick_11">
     <g id="line2d_16">
      <g>
       <use style="stroke:#000000;stroke-width:1.5;" x="367.850213" xlink:href="#ma78c98c75d" y="86.144"/>
      </g>
     </g>
     <g id="text_16">
      <!-- $\mathdefault{0.00}$   -->
      <g transform="translate(357.810213 98.87025)">
       <text>
        <tspan style="font-family:Arial;font-size:8px;font-style:regular;font-weight:regular;" x="0 4.449219 6.671875 11.121094 15.570312 17.792969" y="-0.25">0.00  </tspan>
       </text>
      </g>
     </g>
    </g>
    <g id="xtick_12">
     <g id="line2d_17">
      <g>
       <use style="stroke:#000000;stroke-width:1.5;" x="427.211915" xlink:href="#ma78c98c75d" y="86.144"/>
      </g>
     </g>
     <g id="text_17">
      <!-- $\mathdefault{12.50}\;\;\;$   -->
      <g transform="translate(412.171915 98.87025)">
       <text>
        <tspan style="font-family:Arial;font-size:8px;font-style:regular;font-weight:regular;" x="0 4.449219 8.898438 11.121094 15.570312 25.572961 27.795617" y="-0.25">12.50  </tspan>
       </text>
      </g>
     </g>
    </g>
    <g id="text_18">
     <text style="font-family:Arial;font-size:8px;font-style:normal;font-weight:normal;text-anchor:middle;" transform="rotate(-0, 397.531064, 110.1865)" x="397.531064" y="110.1865">PY-CaT</text>
    </g>
   </g>
   <g id="matplotlib.axis_12">
    <g id="ytick_18"/>
    <g id="ytick_19"/>
    <g id="ytick_20"/>
   </g>
   <g id="line2d_18">
    <path clip-path="url(#p6f1b470244)" d="M 367.850213 77.782909 
L 368.449826 77.782909 
L 369.049439 77.782909 
L 369.649052 77.782909 
L 370.248665 77.782909 
L 370.848279 77.782909 
L 371.447892 77.782909 
L 372.047505 77.782909 
L 372.647118 77.782909 
L 373.246731 77.782909 
L 373.846344 77.782909 
L 374.445957 77.782909 
L 375.045571 77.782909 
L 375.645184 77.782909 
L 376.244797 77.782909 
L 376.84441 77.782909 
L 377.444023 77.782909 
L 378.043636 77.782909 
L 378.64325 77.782909 
L 379.242863 77.782909 
L 379.842476 77.782909 
L 380.442089 77.782909 
L 381.041702 77.782908 
L 381.641315 77.782902 
L 382.240928 77.782876 
L 382.840542 77.782768 
L 383.440155 77.782383 
L 384.039768 77.781179 
L 384.639381 77.777894 
L 385.238994 77.770074 
L 385.838607 77.753851 
L 386.438221 77.724493 
L 387.037834 77.677977 
L 387.637447 77.612795 
L 388.23706 77.53035 
L 388.836673 77.433141 
L 389.436286 77.322783 
L 390.035899 77.201546 
L 390.635513 77.078006 
L 391.235126 76.971175 
L 391.834739 76.905813 
L 392.434352 76.898896 
L 393.033965 76.946667 
L 393.633578 77.022209 
L 394.233191 77.08426 
L 394.832805 77.089976 
L 395.432418 77.005483 
L 396.032031 76.813484 
L 396.631644 76.517862 
L 397.231257 76.141787 
L 397.83087 75.716292 
L 398.430484 75.263635 
L 399.030097 74.786725 
L 399.62971 74.273212 
L 400.229323 73.710581 
L 400.828936 73.097822 
L 401.428549 72.441408 
L 402.028162 71.738066 
L 402.627776 70.960617 
L 403.227389 70.062358 
L 403.827002 69.000818 
L 404.426615 67.766491 
L 405.026228 66.397611 
L 405.625841 64.969344 
L 406.225455 63.560069 
L 406.825068 62.212193 
L 407.424681 60.911353 
L 408.024294 59.597507 
L 408.623907 58.198698 
L 409.22352 56.663089 
L 409.823133 54.973391 
L 410.422747 53.148887 
L 411.02236 51.244902 
L 411.621973 49.341638 
L 412.221586 47.50574 
L 412.821199 45.734217 
L 413.420812 43.925254 
L 414.020426 41.913848 
L 414.620039 39.558632 
L 415.219652 36.823416 
L 415.819265 33.805648 
L 416.418878 30.705109 
L 417.018491 27.754108 
L 417.618104 25.133988 
L 418.217718 22.904391 
L 418.817331 20.979626 
L 419.416944 19.178346 
L 420.016557 17.333593 
L 420.61617 15.404212 
L 421.215783 13.518499 
L 421.815397 11.922959 
L 422.41501 10.875148 
L 423.014623 10.561091 
L 423.614236 11.102128 
L 424.213849 12.647548 
L 424.813462 15.468465 
L 425.413075 19.934785 
L 426.012689 26.318875 
L 426.612302 34.512086 
L 427.211915 43.858138 
" style="fill:none;stroke:#2e7fe8;stroke-linecap:square;stroke-width:1.5;"/>
   </g>
   <g id="patch_13">
    <path d="M 367.850213 86.144 
L 427.211915 86.144 
" style="fill:none;stroke:#000000;stroke-linecap:square;stroke-linejoin:miter;stroke-width:1.5;"/>
   </g>
  </g>
  <g id="axes_7">
   <g id="patch_14">
    <path d="M 439.084255 81.144 
L 498.445957 81.144 
L 498.445957 7.2 
L 439.084255 7.2 
z
" style="fill:none;"/>
   </g>
   <g id="matplotlib.axis_13">
    <g id="xtick_13">
     <g id="line2d_19">
      <g>
       <use style="stroke:#000000;stroke-width:1.5;" x="439.084255" xlink:href="#ma78c98c75d" y="86.144"/>
      </g>
     </g>
     <g id="text_19">
      <!-- $\mathdefault{30.0}$   -->
      <g transform="translate(429.044255 98.87025)">
       <text>
        <tspan style="font-family:Arial;font-size:8px;font-style:regular;font-weight:regular;" x="0 4.449219 8.898438 11.121094 15.570312 17.792969" y="-0.25">30.0  </tspan>
       </text>
      </g>
     </g>
    </g>
    <g id="xtick_14">
     <g id="line2d_20">
      <g>
       <use style="stroke:#000000;stroke-width:1.5;" x="498.445957" xlink:href="#ma78c98c75d" y="86.144"/>
      </g>
     </g>
     <g id="text_20">
      <!-- $\mathdefault{60.0}\;\;\;$   -->
      <g transform="translate(485.645957 98.87025)">
       <text>
        <tspan style="font-family:Arial;font-size:8px;font-style:regular;font-weight:regular;" x="0 4.449219 8.898438 11.121094 21.123742 23.346399" y="-0.25">60.0  </tspan>
       </text>
      </g>
     </g>
    </g>
    <g id="text_21">
     <text style="font-family:Arial;font-size:8px;font-style:normal;font-weight:normal;text-anchor:middle;" transform="rotate(-0, 468.765106, 110.1865)" x="468.765106" y="110.1865">PY-A</text>
    </g>
   </g>
   <g id="matplotlib.axis_14">
    <g id="ytick_21"/>
    <g id="ytick_22"/>
    <g id="ytick_23"/>
    <g id="ytick_24"/>
   </g>
   <g id="line2d_21">
    <path clip-path="url(#pd4015387ce)" d="M 439.084255 39.873131 
L 439.683868 34.680533 
L 440.283482 29.768043 
L 440.883095 25.283563 
L 441.482708 21.340551 
L 442.082321 18.011454 
L 442.681934 15.327126 
L 443.281547 13.281669 
L 443.881161 11.841132 
L 444.480774 10.953971 
L 445.080387 10.561091 
L 445.68 10.603779 
L 446.279613 11.028567 
L 446.879226 11.788895 
L 447.478839 12.844187 
L 448.078453 14.157357 
L 448.678066 15.691912 
L 449.277679 17.409621 
L 449.877292 19.269386 
L 450.476905 21.227537 
L 451.076518 23.239381 
L 451.676132 25.261615 
L 452.275745 27.255069 
L 452.875358 29.187255 
L 453.474971 31.034261 
L 454.074584 32.781684 
L 454.674197 34.424411 
L 455.27381 35.96526 
L 455.873424 37.412665 
L 456.473037 38.777754 
L 457.07265 40.07133 
L 457.672263 41.301336 
L 458.271876 42.471316 
L 458.871489 43.580231 
L 459.471103 44.623694 
L 460.070716 45.596348 
L 460.670329 46.494807 
L 461.269942 47.320414 
L 461.869555 48.081062 
L 462.469168 48.791523 
L 463.068781 49.472102 
L 463.668395 50.145812 
L 464.268008 50.83467 
L 464.867621 51.555907 
L 465.467234 52.318937 
L 466.066847 53.123736 
L 466.66646 53.96095 
L 467.266074 54.813685 
L 467.865687 55.66055 
L 468.4653 56.479315 
L 469.064913 57.25044 
L 469.664526 57.959863 
L 470.264139 58.600592 
L 470.863752 59.172991 
L 471.463366 59.683856 
L 472.062979 60.144637 
L 472.662592 60.569239 
L 473.262205 60.971855 
L 473.861818 61.365175 
L 474.461431 61.759208 
L 475.061044 62.160752 
L 475.660658 62.573435 
L 476.260271 62.998158 
L 476.859884 63.433726 
L 477.459497 63.877509 
L 478.05911 64.325993 
L 478.658723 64.77521 
L 479.258337 65.221056 
L 479.85795 65.659596 
L 480.457563 66.087404 
L 481.057176 66.502006 
L 481.656789 66.902397 
L 482.256402 67.289554 
L 482.856015 67.666828 
L 483.455629 68.04006 
L 484.055242 68.417306 
L 484.654855 68.8081 
L 485.254468 69.222308 
L 485.854081 69.668683 
L 486.453694 70.153359 
L 487.053308 70.67854 
L 487.652921 71.241636 
L 488.252534 71.835029 
L 488.852147 72.446572 
L 489.45176 73.060748 
L 490.051373 73.660352 
L 490.650986 74.228435 
L 491.2506 74.750245 
L 491.850213 75.214878 
L 492.449826 75.616436 
L 493.049439 75.954556 
L 493.649052 76.234253 
L 494.248665 76.465124 
L 494.848279 76.660024 
L 495.447892 76.833394 
L 496.047505 76.999454 
L 496.647118 77.170507 
L 497.246731 77.355571 
L 497.846344 77.559534 
L 498.445957 77.782909 
" style="fill:none;stroke:#2e7fe8;stroke-linecap:square;stroke-width:1.5;"/>
   </g>
   <g id="patch_15">
    <path d="M 439.084255 86.144 
L 498.445957 86.144 
" style="fill:none;stroke:#000000;stroke-linecap:square;stroke-linejoin:miter;stroke-width:1.5;"/>
   </g>
  </g>
  <g id="axes_8">
   <g id="patch_16">
    <path d="M 510.318298 81.144 
L 569.68 81.144 
L 569.68 7.2 
L 510.318298 7.2 
z
" style="fill:none;"/>
   </g>
   <g id="matplotlib.axis_15">
    <g id="xtick_15">
     <g id="line2d_22">
      <g>
       <use style="stroke:#000000;stroke-width:1.5;" x="510.318298" xlink:href="#ma78c98c75d" y="86.144"/>
      </g>
     </g>
     <g id="text_22">
      <!-- $\mathdefault{0.01}$  -->
      <g transform="translate(501.398298 98.87025)">
       <text>
        <tspan style="font-family:Arial;font-size:8px;font-style:regular;font-weight:regular;" x="0 4.449219 6.671875 11.121094 15.570312" y="-0.25">0.01 </tspan>
       </text>
      </g>
     </g>
    </g>
    <g id="xtick_16">
     <g id="line2d_23">
      <g>
       <use style="stroke:#000000;stroke-width:1.5;" x="569.68" xlink:href="#ma78c98c75d" y="86.144"/>
      </g>
     </g>
     <g id="text_23">
      <!-- $\mathdefault{1000}\;\;\;\;$  -->
      <g transform="translate(555.96 98.87025)">
       <text>
        <tspan style="font-family:Arial;font-size:8px;font-style:regular;font-weight:regular;" x="0 4.449219 8.898438 13.347656 25.201448" y="-0.25">1000 </tspan>
       </text>
      </g>
     </g>
    </g>
    <g id="text_24">
     <!-- $\mathdefault{PD-PY}$ -->
     <g transform="translate(525.399149 110.1865)">
      <text>
       <tspan style="font-family:Arial;font-size:8px;font-style:regular;font-weight:regular;" x="0 5.335938 12.446094 18.450781 23.786719" y="-0.265625">PD−PY</tspan>
      </text>
     </g>
    </g>
   </g>
   <g id="matplotlib.axis_16">
    <g id="ytick_25"/>
    <g id="ytick_26"/>
    <g id="ytick_27"/>
   </g>
   <g id="line2d_24">
    <path clip-path="url(#pa10470ac6b)" d="M 510.318298 77.782909 
L 510.917911 77.782889 
L 511.517524 77.782732 
L 512.117137 77.781821 
L 512.71675 77.777802 
L 513.316364 77.764416 
L 513.915977 77.730888 
L 514.51559 77.668138 
L 515.115203 77.58156 
L 515.714816 77.497095 
L 516.314429 77.448944 
L 516.914043 77.458388 
L 517.513656 77.521159 
L 518.113269 77.609699 
L 518.712882 77.689117 
L 519.312495 77.736144 
L 519.912108 77.743983 
L 520.511721 77.71486 
L 521.111335 77.659383 
L 521.710948 77.603168 
L 522.310561 77.57635 
L 522.910174 77.581795 
L 523.509787 77.581755 
L 524.1094 77.534301 
L 524.709014 77.44778 
L 525.308627 77.38677 
L 525.90824 77.410621 
L 526.507853 77.512278 
L 527.107466 77.631109 
L 527.707079 77.714119 
L 528.306692 77.746216 
L 528.906306 77.73403 
L 529.505919 77.688312 
L 530.105532 77.628792 
L 530.705145 77.588811 
L 531.304758 77.5954 
L 531.904371 77.643532 
L 532.503985 77.700617 
L 533.103598 77.734775 
L 533.703211 77.731292 
L 534.302824 77.691492 
L 534.902437 77.633279 
L 535.50205 77.590434 
L 536.101663 77.592014 
L 536.701277 77.634668 
L 537.30089 77.68332 
L 537.900503 77.70072 
L 538.500116 77.673628 
L 539.099729 77.619156 
L 539.699342 77.571323 
L 540.298956 77.551609 
L 540.898569 77.55077 
L 541.498182 77.550282 
L 542.097795 77.554559 
L 542.697408 77.581971 
L 543.297021 77.6273 
L 543.896634 77.650027 
L 544.496248 77.59646 
L 545.095861 77.42514 
L 545.695474 77.127353 
L 546.295087 76.746357 
L 546.8947 76.371063 
L 547.494313 76.081559 
L 548.093926 75.884666 
L 548.69354 75.709755 
L 549.293153 75.475538 
L 549.892766 75.164479 
L 550.492379 74.826557 
L 551.091992 74.480791 
L 551.691605 73.989343 
L 552.291219 73.040431 
L 552.890832 71.28012 
L 553.490445 68.505545 
L 554.090058 64.793299 
L 554.689671 60.460652 
L 555.289284 55.88523 
L 555.888897 51.328296 
L 556.488511 46.837712 
L 557.088124 42.253414 
L 557.687737 37.385031 
L 558.28735 32.28474 
L 558.886963 27.330331 
L 559.486576 22.976324 
L 560.08619 19.372639 
L 560.685803 16.237961 
L 561.285416 13.285202 
L 561.885029 10.948432 
L 562.484642 10.561091 
L 563.084255 13.57387 
L 563.683868 20.550111 
L 564.283482 30.824459 
L 564.883095 42.811206 
L 565.482708 54.534517 
L 566.082321 64.241238 
L 566.681934 70.994895 
L 567.281547 74.898967 
L 567.881161 76.756397 
L 568.480774 77.479385 
L 569.080387 77.708861 
L 569.68 77.768107 
" style="fill:none;stroke:#2e7fe8;stroke-linecap:square;stroke-width:1.5;"/>
   </g>
   <g id="patch_17">
    <path d="M 510.318298 86.144 
L 569.68 86.144 
" style="fill:none;stroke:#000000;stroke-linecap:square;stroke-linejoin:miter;stroke-width:1.5;"/>
   </g>
   <g id="text_25">
    <text style="font-family:Arial;font-size:16px;font-style:normal;font-weight:normal;text-anchor:start;" transform="rotate(-0, 577.100213, 44.172)" x="577.100213" y="44.172">...</text>
   </g>
  </g>
 </g>
 <defs>
  <clipPath id="p1c72937f72">
   <rect height="73.944" width="59.361702" x="11.68" y="7.2"/>
  </clipPath>
  <clipPath id="p83579c186c">
   <rect height="73.944" width="59.361702" x="82.914043" y="7.2"/>
  </clipPath>
  <clipPath id="pcc7d80880e">
   <rect height="73.944" width="59.361702" x="154.148085" y="7.2"/>
  </clipPath>
  <clipPath id="p1e2f705cd0">
   <rect height="73.944" width="59.361702" x="225.382128" y="7.2"/>
  </clipPath>
  <clipPath id="p882935c009">
   <rect height="73.944" width="59.361702" x="296.61617" y="7.2"/>
  </clipPath>
  <clipPath id="p6f1b470244">
   <rect height="73.944" width="59.361702" x="367.850213" y="7.2"/>
  </clipPath>
  <clipPath id="pd4015387ce">
   <rect height="73.944" width="59.361702" x="439.084255" y="7.2"/>
  </clipPath>
  <clipPath id="pa10470ac6b">
   <rect height="73.944" width="59.361702" x="510.318298" y="7.2"/>
  </clipPath>
 </defs>
</svg>
