<?xml version="1.0" encoding="utf-8" standalone="no"?>
<!DOCTYPE svg PUBLIC "-//W3C//DTD SVG 1.1//EN"
  "http://www.w3.org/Graphics/SVG/1.1/DTD/svg11.dtd">
<!-- Created with matplotlib (https://matplotlib.org/) -->
<svg height="119.829pt" version="1.1" viewBox="0 0 606.555213 119.829" width="606.555213pt" xmlns="http://www.w3.org/2000/svg" xmlns:xlink="http://www.w3.org/1999/xlink">
 <metadata>
  <rdf:RDF xmlns:cc="http://creativecommons.org/ns#" xmlns:dc="http://purl.org/dc/elements/1.1/" xmlns:rdf="http://www.w3.org/1999/02/22-rdf-syntax-ns#">
   <cc:Work>
    <dc:type rdf:resource="http://purl.org/dc/dcmitype/StillImage"/>
    <dc:date>2020-09-22T15:18:13.514344</dc:date>
    <dc:format>image/svg+xml</dc:format>
    <dc:creator>
     <cc:Agent>
      <dc:title>Matplotlib v3.3.2, https://matplotlib.org/</dc:title>
     </cc:Agent>
    </dc:creator>
   </cc:Work>
  </rdf:RDF>
 </metadata>
 <defs>
  <style type="text/css">*{stroke-linecap:butt;stroke-linejoin:round;}</style>
 </defs>
 <g id="figure_1">
  <g id="patch_1">
   <path d="M 0 119.829 
L 606.555213 119.829 
L 606.555213 0 
L 0 0 
z
" style="fill:none;"/>
  </g>
  <g id="axes_1">
   <g id="patch_2">
    <path d="M 18.68 81.144 
L 78.041702 81.144 
L 78.041702 7.2 
L 18.68 7.2 
z
" style="fill:none;"/>
   </g>
   <g id="matplotlib.axis_1">
    <g id="xtick_1">
     <g id="line2d_1">
      <defs>
       <path d="M 0 0 
L 0 3.5 
" id="mcfd95c2e41" style="stroke:#000000;stroke-width:1.5;"/>
      </defs>
      <g>
       <use style="stroke:#000000;stroke-width:1.5;" x="18.68" xlink:href="#mcfd95c2e41" y="86.144"/>
      </g>
     </g>
     <g id="text_1">
      <!-- $\mathdefault{0.00}$   -->
      <g transform="translate(7.2 99.22275)">
       <text>
        <tspan style="font-family:DejaVu Sans;font-size:8px;font-style:book;font-weight:book;" x="0 5.089844 7.632812 12.722656 17.8125 20.355469" y="-0.0625">0.00  </tspan>
       </text>
      </g>
     </g>
    </g>
    <g id="xtick_2">
     <g id="line2d_2">
      <g>
       <use style="stroke:#000000;stroke-width:1.5;" x="78.041702" xlink:href="#mcfd95c2e41" y="86.144"/>
      </g>
     </g>
     <g id="text_2">
      <!-- $\mathdefault{2.50}\;\;\;$   -->
      <g transform="translate(63.321702 99.22275)">
       <text>
        <tspan style="font-family:DejaVu Sans;font-size:8px;font-style:book;font-weight:book;" x="0 5.089844 7.632812 12.722656 24.306693 26.849661" y="-0.0625">2.50  </tspan>
       </text>
      </g>
     </g>
    </g>
    <g id="text_3">
     <text style="font-family:DejaVu Sans;font-size:8px;font-stretch:normal;font-style:normal;font-weight:normal;text-anchor:middle;" transform="rotate(-0, 48.360851, 110.96525)" x="48.360851" y="110.96525">LP-CaT</text>
    </g>
   </g>
   <g id="matplotlib.axis_2">
    <g id="ytick_1"/>
    <g id="ytick_2"/>
   </g>
   <g id="line2d_3">
    <path clip-path="url(#pe110006bc0)" d="M 18.68 49.708611 
L 19.279613 45.479263 
L 19.879226 41.284427 
L 20.478839 37.20672 
L 21.078453 33.324525 
L 21.678066 29.708521 
L 22.277679 26.418934 
L 22.877292 23.503659 
L 23.476905 20.99726 
L 24.076518 18.920771 
L 24.676132 17.282158 
L 25.275745 16.07727 
L 25.875358 15.291106 
L 26.474971 14.89928 
L 27.074584 14.869586 
L 27.674197 15.163621 
L 28.27381 15.738438 
L 28.873424 16.54823 
L 29.473037 17.546024 
L 30.07265 18.68534 
L 30.672263 19.921768 
L 31.271876 21.214389 
L 31.871489 22.52696 
L 32.471103 23.828806 
L 33.070716 25.09538 
L 33.670329 26.308483 
L 34.269942 27.456168 
L 34.869555 28.532358 
L 35.469168 29.536257 
L 36.068781 30.471599 
L 36.668395 31.345784 
L 37.268008 32.168955 
L 37.867621 32.953031 
L 38.467234 33.710735 
L 39.066847 34.454624 
L 39.66646 35.196154 
L 40.266074 35.944818 
L 40.865687 36.707395 
L 41.4653 37.487375 
L 42.064913 38.284603 
L 42.664526 39.095203 
L 43.264139 39.911808 
L 43.863752 40.724123 
L 44.463366 41.519779 
L 45.062979 42.285447 
L 45.662592 43.008104 
L 46.262205 43.67635 
L 46.861818 44.281623 
L 47.461431 44.819185 
L 48.061044 45.288757 
L 48.660658 45.694706 
L 49.260271 46.045763 
L 49.859884 46.354277 
L 50.459497 46.635096 
L 51.05911 46.904215 
L 51.658723 47.177337 
L 52.258337 47.468529 
L 52.85795 47.789125 
L 53.457563 48.14699 
L 54.057176 48.546182 
L 54.656789 48.987031 
L 55.256402 49.466543 
L 55.856015 49.979044 
L 56.455629 50.516932 
L 57.055242 51.071419 
L 57.654855 51.633166 
L 58.254468 52.192764 
L 58.854081 52.741028 
L 59.453694 53.269143 
L 60.053308 53.768698 
L 60.652921 54.231688 
L 61.252534 54.650524 
L 61.852147 55.018129 
L 62.45176 55.328137 
L 63.051373 55.575208 
L 63.650986 55.755452 
L 64.2506 55.866927 
L 64.850213 55.910167 
L 65.449826 55.888685 
L 66.049439 55.809391 
L 66.649052 55.682864 
L 67.248665 55.523428 
L 67.848279 55.349001 
L 68.447892 55.180691 
L 69.047505 55.04214 
L 69.647118 54.958657 
L 70.246731 54.956159 
L 70.846344 55.060008 
L 71.445957 55.293784 
L 72.045571 55.678077 
L 72.645184 56.229352 
L 73.244797 56.958955 
L 73.84441 57.8723 
L 74.444023 58.968291 
L 75.043636 60.239022 
L 75.64325 61.669791 
L 76.242863 63.239471 
L 76.842476 64.92124 
L 77.442089 66.683671 
L 78.041702 68.492148 
" style="fill:none;stroke:#2e7fe8;stroke-linecap:square;stroke-width:1.5;"/>
   </g>
   <g id="line2d_4">
    <path clip-path="url(#pe110006bc0)" d="M 18.68 53.468797 
L 19.279613 49.254367 
L 19.879226 45.071546 
L 20.478839 41.006908 
L 21.078453 37.136656 
L 21.678066 33.522439 
L 22.277679 30.208811 
L 22.877292 27.222371 
L 23.476905 24.572416 
L 24.076518 22.25282 
L 24.676132 20.244794 
L 25.275745 18.5202 
L 25.875358 17.045161 
L 26.474971 15.783728 
L 27.074584 14.701384 
L 27.674197 13.768171 
L 28.27381 12.96119 
L 28.873424 12.266221 
L 29.473037 11.678292 
L 30.07265 11.201109 
L 30.672263 10.845401 
L 31.271876 10.626441 
L 31.871489 10.561091 
L 32.471103 10.664822 
L 33.070716 10.949144 
L 33.670329 11.419773 
L 34.269942 12.075739 
L 34.869555 12.909425 
L 35.469168 13.90739 
L 36.068781 15.051714 
L 36.668395 16.321529 
L 37.268008 17.694466 
L 37.867621 19.147768 
L 38.467234 20.658978 
L 39.066847 22.206208 
L 39.66646 23.768097 
L 40.266074 25.323665 
L 40.865687 26.85225 
L 41.4653 28.333755 
L 42.064913 29.749272 
L 42.664526 31.082118 
L 43.264139 32.319151 
L 43.863752 33.452136 
L 44.463366 34.478879 
L 45.062979 35.40385 
L 45.662592 36.238084 
L 46.262205 36.998294 
L 46.861818 37.705264 
L 47.461431 38.381764 
L 48.061044 39.050293 
L 48.660658 39.731007 
L 49.260271 40.440108 
L 49.859884 41.188854 
L 50.459497 41.983238 
L 51.05911 42.824204 
L 51.658723 43.708251 
L 52.258337 44.628209 
L 52.85795 45.574045 
L 53.457563 46.533636 
L 54.057176 47.493507 
L 54.656789 48.439628 
L 55.256402 49.358317 
L 55.856015 50.237306 
L 56.455629 51.066917 
L 57.055242 51.841208 
L 57.654855 52.558898 
L 58.254468 53.223845 
L 58.854081 53.844899 
L 59.453694 54.435027 
L 60.053308 55.009765 
L 60.652921 55.585151 
L 61.252534 56.175445 
L 61.852147 56.791001 
L 62.45176 57.436643 
L 63.051373 58.110871 
L 63.650986 58.806068 
L 64.2506 59.509729 
L 64.850213 60.206569 
L 65.449826 60.881173 
L 66.049439 61.520791 
L 66.649052 62.117791 
L 67.248665 62.67137 
L 67.848279 63.188209 
L 68.447892 63.681946 
L 69.047505 64.171565 
L 69.647118 64.678976 
L 70.246731 65.22619 
L 70.846344 65.832602 
L 71.445957 66.512781 
L 72.045571 67.275116 
L 72.645184 68.121417 
L 73.244797 69.047406 
L 73.84441 70.043862 
L 74.444023 71.098083 
L 75.043636 72.195326 
L 75.64325 73.319976 
L 76.242863 74.456309 
L 76.842476 75.588874 
L 77.442089 76.702615 
L 78.041702 77.782909 
" style="fill:none;stroke:#ff0000;stroke-linecap:square;stroke-width:1.5;"/>
   </g>
   <g id="patch_3">
    <path d="M 18.68 86.144 
L 78.041702 86.144 
" style="fill:none;stroke:#000000;stroke-linecap:square;stroke-linejoin:miter;stroke-width:1.5;"/>
   </g>
  </g>
  <g id="axes_2">
   <g id="patch_4">
    <path d="M 89.914043 81.144 
L 149.275745 81.144 
L 149.275745 7.2 
L 89.914043 7.2 
z
" style="fill:none;"/>
   </g>
   <g id="matplotlib.axis_3">
    <g id="xtick_3">
     <g id="line2d_5">
      <g>
       <use style="stroke:#000000;stroke-width:1.5;" x="89.914043" xlink:href="#mcfd95c2e41" y="86.144"/>
      </g>
     </g>
     <g id="text_4">
      <!-- $\mathdefault{0.0}$   -->
      <g transform="translate(80.994043 99.22275)">
       <text>
        <tspan style="font-family:DejaVu Sans;font-size:8px;font-style:book;font-weight:book;" x="0 5.089844 7.632812 12.722656 15.265625" y="-0.0625">0.0  </tspan>
       </text>
      </g>
     </g>
    </g>
    <g id="xtick_4">
     <g id="line2d_6">
      <g>
       <use style="stroke:#000000;stroke-width:1.5;" x="149.275745" xlink:href="#mcfd95c2e41" y="86.144"/>
      </g>
     </g>
     <g id="text_5">
      <!-- $\mathdefault{125.0}\;\;\;$   -->
      <g transform="translate(131.995745 99.22275)">
       <text>
        <tspan style="font-family:DejaVu Sans;font-size:8px;font-style:book;font-weight:book;" x="0 5.089844 10.179688 15.269531 17.8125 29.396536 31.939505" y="-0.0625">125.0  </tspan>
       </text>
      </g>
     </g>
    </g>
    <g id="text_6">
     <text style="font-family:DejaVu Sans;font-size:8px;font-stretch:normal;font-style:normal;font-weight:normal;text-anchor:middle;" transform="rotate(-0, 119.594894, 110.96525)" x="119.594894" y="110.96525">LP-Kd</text>
    </g>
   </g>
   <g id="matplotlib.axis_4">
    <g id="ytick_3"/>
    <g id="ytick_4"/>
    <g id="ytick_5"/>
   </g>
   <g id="line2d_7">
    <path clip-path="url(#p004944bc2c)" d="M 89.914043 77.693675 
L 90.513656 77.631266 
L 91.113269 77.544686 
L 91.712882 77.42724 
L 92.312495 77.271447 
L 92.912108 77.069373 
L 93.511721 76.813115 
L 94.111335 76.495421 
L 94.710948 76.110383 
L 95.310561 75.654093 
L 95.910174 75.125123 
L 96.509787 74.524696 
L 97.1094 73.856436 
L 97.709014 73.125648 
L 98.308627 72.338176 
L 98.90824 71.498972 
L 99.507853 70.610595 
L 100.107466 69.671892 
L 100.707079 68.677108 
L 101.306692 67.61562 
L 101.906306 66.472395 
L 102.505919 65.229167 
L 103.105532 63.866213 
L 103.705145 62.364538 
L 104.304758 60.708236 
L 104.904371 58.886793 
L 105.503985 56.897141 
L 106.103598 54.745304 
L 106.703211 52.447559 
L 107.302824 50.030966 
L 107.902437 47.533168 
L 108.50205 45.001275 
L 109.101663 42.489636 
L 109.701277 40.056417 
L 110.30089 37.75905 
L 110.900503 35.648896 
L 111.500116 33.765803 
L 112.099729 32.133424 
L 112.699342 30.756289 
L 113.298956 29.619402 
L 113.898569 28.690811 
L 114.498182 27.926993 
L 115.097795 27.280336 
L 115.697408 26.707493 
L 116.297021 26.177114 
L 116.896634 25.675459 
L 117.496248 25.208762 
L 118.095861 24.801738 
L 118.695474 24.492388 
L 119.295087 24.323993 
L 119.8947 24.335748 
L 120.494313 24.553849 
L 121.093926 24.984752 
L 121.69354 25.611938 
L 122.293153 26.396739 
L 122.892766 27.282965 
L 123.492379 28.204241 
L 124.091992 29.092451 
L 124.691605 29.885586 
L 125.291219 30.533574 
L 125.890832 31.001329 
L 126.490445 31.268992 
L 127.090058 31.33004 
L 127.689671 31.188338 
L 128.289284 30.855249 
L 128.888897 30.347667 
L 129.488511 29.687308 
L 130.088124 28.901079 
L 130.687737 28.021902 
L 131.28735 27.089191 
L 131.886963 26.148238 
L 132.486576 25.248099 
L 133.08619 24.437953 
L 133.685803 23.762384 
L 134.285416 23.256313 
L 134.885029 22.940483 
L 135.484642 22.818322 
L 136.084255 22.874801 
L 136.683868 23.077556 
L 137.283482 23.380216 
L 137.883095 23.727543 
L 138.482708 24.061768 
L 139.082321 24.329431 
L 139.681934 24.487974 
L 140.281547 24.511467 
L 140.881161 24.394961 
L 141.480774 24.157128 
L 142.080387 23.840989 
L 142.68 23.512655 
L 143.279613 23.258057 
L 143.879226 23.177708 
L 144.478839 23.379573 
L 145.078453 23.97025 
L 145.678066 25.044905 
L 146.277679 26.676694 
L 146.877292 28.90681 
L 147.476905 31.736575 
L 148.076518 35.123057 
L 148.676132 38.979458 
L 149.275745 43.180853 
" style="fill:none;stroke:#2e7fe8;stroke-linecap:square;stroke-width:1.5;"/>
   </g>
   <g id="line2d_8">
    <path clip-path="url(#p004944bc2c)" d="M 89.914043 77.782909 
L 90.513656 77.759603 
L 91.113269 77.725496 
L 91.712882 77.67684 
L 92.312495 77.609008 
L 92.912108 77.516366 
L 93.511721 77.392117 
L 94.111335 77.22817 
L 94.710948 77.015065 
L 95.310561 76.742094 
L 95.910174 76.397712 
L 96.509787 75.970389 
L 97.1094 75.449939 
L 97.709014 74.829262 
L 98.308627 74.106256 
L 98.90824 73.285482 
L 99.507853 72.379069 
L 100.107466 71.406351 
L 100.707079 70.391947 
L 101.306692 69.362329 
L 101.906306 68.341358 
L 102.505919 67.345655 
L 103.105532 66.380877 
L 103.705145 65.439883 
L 104.304758 64.503423 
L 104.904371 63.543395 
L 105.503985 62.528114 
L 106.103598 61.428556 
L 106.703211 60.224319 
L 107.302824 58.90813 
L 107.902437 57.488072 
L 108.50205 55.987166 
L 109.101663 54.440439 
L 109.701277 52.890019 
L 110.30089 51.379087 
L 110.900503 49.945663 
L 111.500116 48.617236 
L 112.099729 47.407107 
L 112.699342 46.312994 
L 113.298956 45.318066 
L 113.898569 44.394042 
L 114.498182 43.505592 
L 115.097795 42.615059 
L 115.697408 41.686534 
L 116.297021 40.688695 
L 116.896634 39.596256 
L 117.496248 38.390368 
L 118.095861 37.058642 
L 118.695474 35.595446 
L 119.295087 34.002907 
L 119.8947 32.292623 
L 120.494313 30.487605 
L 121.093926 28.623677 
L 121.69354 26.749472 
L 122.293153 24.924372 
L 122.892766 23.21413 
L 123.492379 21.684474 
L 124.091992 20.393496 
L 124.691605 19.384 
L 125.291219 18.677125 
L 125.890832 18.268489 
L 126.490445 18.127732 
L 127.090058 18.201827 
L 127.689671 18.421907 
L 128.289284 18.712662 
L 128.888897 19.002805 
L 129.488511 19.234739 
L 130.088124 19.371542 
L 130.687737 19.399821 
L 131.28735 19.327797 
L 131.886963 19.179045 
L 132.486576 18.983381 
L 133.08619 18.767088 
L 133.685803 18.544851 
L 134.285416 18.315335 
L 134.885029 18.061378 
L 135.484642 17.754591 
L 136.084255 17.363059 
L 136.683868 16.860141 
L 137.283482 16.232251 
L 137.883095 15.483924 
L 138.482708 14.639327 
L 139.082321 13.74037 
L 139.681934 12.842398 
L 140.281547 12.008908 
L 140.881161 11.306705 
L 141.480774 10.802474 
L 142.080387 10.561091 
L 142.68 10.645294 
L 143.279613 11.115906 
L 143.879226 12.031573 
L 144.478839 13.447091 
L 145.078453 15.409744 
L 145.678066 17.953544 
L 146.277679 21.091868 
L 146.877292 24.809647 
L 147.476905 29.056738 
L 148.076518 33.744426 
L 148.676132 38.746748 
L 149.275745 43.907598 
" style="fill:none;stroke:#ff0000;stroke-linecap:square;stroke-width:1.5;"/>
   </g>
   <g id="patch_5">
    <path d="M 89.914043 86.144 
L 149.275745 86.144 
" style="fill:none;stroke:#000000;stroke-linecap:square;stroke-linejoin:miter;stroke-width:1.5;"/>
   </g>
  </g>
  <g id="axes_3">
   <g id="patch_6">
    <path d="M 161.148085 81.144 
L 220.509787 81.144 
L 220.509787 7.2 
L 161.148085 7.2 
z
" style="fill:none;"/>
   </g>
   <g id="matplotlib.axis_5">
    <g id="xtick_5">
     <g id="line2d_9">
      <g>
       <use style="stroke:#000000;stroke-width:1.5;" x="161.148085" xlink:href="#mcfd95c2e41" y="86.144"/>
      </g>
     </g>
     <g id="text_7">
      <!-- $\mathdefault{0.00}$   -->
      <g transform="translate(149.668085 99.22275)">
       <text>
        <tspan style="font-family:DejaVu Sans;font-size:8px;font-style:book;font-weight:book;" x="0 5.089844 7.632812 12.722656 17.8125 20.355469" y="-0.0625">0.00  </tspan>
       </text>
      </g>
     </g>
    </g>
    <g id="xtick_6">
     <g id="line2d_10">
      <g>
       <use style="stroke:#000000;stroke-width:1.5;" x="220.509787" xlink:href="#mcfd95c2e41" y="86.144"/>
      </g>
     </g>
     <g id="text_8">
      <!-- $\mathdefault{0.06}\;\;\;$   -->
      <g transform="translate(205.789787 99.22275)">
       <text>
        <tspan style="font-family:DejaVu Sans;font-size:8px;font-style:book;font-weight:book;" x="0 5.089844 7.632812 12.722656 24.306693 26.849661" y="-0.0625">0.06  </tspan>
       </text>
      </g>
     </g>
    </g>
    <g id="text_9">
     <text style="font-family:DejaVu Sans;font-size:8px;font-stretch:normal;font-style:normal;font-weight:normal;text-anchor:middle;" transform="rotate(-0, 190.828936, 110.96525)" x="190.828936" y="110.96525">LP-H</text>
    </g>
   </g>
   <g id="matplotlib.axis_6">
    <g id="ytick_6"/>
    <g id="ytick_7"/>
    <g id="ytick_8"/>
   </g>
   <g id="line2d_11">
    <path clip-path="url(#p4cacf04432)" d="M 161.148085 77.782909 
L 161.747698 74.542279 
L 162.347311 71.373215 
L 162.946925 68.322903 
L 163.546538 65.429349 
L 164.146151 62.719898 
L 164.745764 60.210881 
L 165.345377 57.908348 
L 165.94499 55.809681 
L 166.544603 53.90578 
L 167.144217 52.183462 
L 167.74383 50.627698 
L 168.343443 49.223419 
L 168.943056 47.956694 
L 169.542669 46.81526 
L 170.142282 45.788457 
L 170.741896 44.866781 
L 171.341509 44.041268 
L 171.941122 43.302933 
L 172.540735 42.642476 
L 173.140348 42.050324 
L 173.739961 41.517028 
L 174.339574 41.033935 
L 174.939188 40.593966 
L 175.538801 40.192328 
L 176.138414 39.826972 
L 176.738027 39.49866 
L 177.33764 39.210571 
L 177.937253 38.967442 
L 178.536867 38.774344 
L 179.13648 38.63523 
L 179.736093 38.551457 
L 180.335706 38.520484 
L 180.935319 38.534951 
L 181.534932 38.582272 
L 182.134545 38.644851 
L 182.734159 38.70091 
L 183.333772 38.725874 
L 183.933385 38.694146 
L 184.532998 38.581097 
L 185.132611 38.365018 
L 185.732224 38.028822 
L 186.331838 37.5613 
L 186.931451 36.95781 
L 187.531064 36.220343 
L 188.130677 35.357014 
L 188.73029 34.381079 
L 189.329903 33.309659 
L 189.929516 32.162351 
L 190.52913 30.959914 
L 191.128743 29.723175 
L 191.728356 28.472241 
L 192.327969 27.226044 
L 192.927582 26.002183 
L 193.527195 24.816976 
L 194.126809 23.685628 
L 194.726422 22.622396 
L 195.326035 21.640669 
L 195.925648 20.752896 
L 196.525261 19.970338 
L 197.124874 19.302645 
L 197.724487 18.757297 
L 198.324101 18.338951 
L 198.923714 18.048756 
L 199.523327 17.883715 
L 200.12294 17.83616 
L 200.722553 17.893405 
L 201.322166 18.037657 
L 201.921779 18.246232 
L 202.521393 18.492134 
L 203.121006 18.745009 
L 203.720619 18.972466 
L 204.320232 19.141749 
L 204.919845 19.221645 
L 205.519458 19.184546 
L 206.119072 19.008503 
L 206.718685 18.679126 
L 207.318298 18.191149 
L 207.917911 17.549551 
L 208.517524 16.770108 
L 209.117137 15.879356 
L 209.71675 14.913989 
L 210.316364 13.91977 
L 210.915977 12.950109 
L 211.51559 12.06444 
L 212.115203 11.326546 
L 212.714816 10.80291 
L 213.314429 10.561091 
L 213.914043 10.668064 
L 214.513656 11.188383 
L 215.113269 12.182011 
L 215.712882 13.701697 
L 216.312495 15.789875 
L 216.912108 18.475196 
L 217.511721 21.768977 
L 218.111335 25.661961 
L 218.710948 30.121915 
L 219.310561 35.092553 
L 219.910174 40.494193 
L 220.509787 46.22637 
" style="fill:none;stroke:#2e7fe8;stroke-linecap:square;stroke-width:1.5;"/>
   </g>
   <g id="line2d_12">
    <path clip-path="url(#p4cacf04432)" d="M 161.148085 77.204373 
L 161.747698 73.657154 
L 162.347311 70.174473 
L 162.946925 66.822026 
L 163.546538 63.65708 
L 164.146151 60.725152 
L 164.745764 58.0578 
L 165.345377 55.671709 
L 165.94499 53.569092 
L 166.544603 51.739264 
L 167.144217 50.161129 
L 167.74383 48.806203 
L 168.343443 47.641818 
L 168.943056 46.634129 
L 169.542669 45.750666 
L 170.142282 44.962267 
L 170.741896 44.244323 
L 171.341509 43.57738 
L 171.941122 42.947205 
L 172.540735 42.344461 
L 173.140348 41.764126 
L 173.739961 41.204763 
L 174.339574 40.667738 
L 174.939188 40.156396 
L 175.538801 39.67521 
L 176.138414 39.228892 
L 176.738027 38.821466 
L 177.33764 38.455308 
L 177.937253 38.130214 
L 178.536867 37.842576 
L 179.13648 37.58477 
L 179.736093 37.344886 
L 180.335706 37.106892 
L 180.935319 36.851325 
L 181.534932 36.55651 
L 182.134545 36.20025 
L 182.734159 35.761865 
L 183.333772 35.224369 
L 183.933385 34.576537 
L 184.532998 33.814597 
L 185.132611 32.943316 
L 185.732224 31.976291 
L 186.331838 30.935382 
L 186.931451 29.849292 
L 187.531064 28.75147 
L 188.130677 27.67753 
L 188.73029 26.662512 
L 189.329903 25.738272 
L 189.929516 24.931279 
L 190.52913 24.261029 
L 191.128743 23.739185 
L 191.728356 23.369466 
L 192.327969 23.148197 
L 192.927582 23.065373 
L 193.527195 23.106067 
L 194.126809 23.251964 
L 194.726422 23.482879 
L 195.326035 23.778099 
L 195.925648 24.117492 
L 196.525261 24.482319 
L 197.124874 24.855769 
L 197.724487 25.223225 
L 198.324101 25.572309 
L 198.923714 25.892735 
L 199.523327 26.176021 
L 200.12294 26.415101 
L 200.722553 26.603863 
L 201.322166 26.73669 
L 201.921779 26.808011 
L 202.521393 26.811953 
L 203.121006 26.742105 
L 203.720619 26.591445 
L 204.320232 26.352449 
L 204.919845 26.01737 
L 205.519458 25.578696 
L 206.119072 25.029731 
L 206.718685 24.365308 
L 207.318298 23.582586 
L 207.917911 22.681943 
L 208.517524 21.667963 
L 209.117137 20.550527 
L 209.71675 19.346014 
L 210.316364 18.078565 
L 210.915977 16.781355 
L 211.51559 15.497705 
L 212.115203 14.28185 
L 212.714816 13.199095 
L 213.314429 12.325084 
L 213.914043 11.743942 
L 214.513656 11.545127 
L 215.113269 11.818963 
L 215.712882 12.651023 
L 216.312495 14.115721 
L 216.912108 16.269658 
L 217.511721 19.145405 
L 218.111335 22.746469 
L 218.710948 27.044118 
L 219.310561 31.976609 
L 219.910174 37.451084 
L 220.509787 43.348123 
" style="fill:none;stroke:#ff0000;stroke-linecap:square;stroke-width:1.5;"/>
   </g>
   <g id="patch_7">
    <path d="M 161.148085 86.144 
L 220.509787 86.144 
" style="fill:none;stroke:#000000;stroke-linecap:square;stroke-linejoin:miter;stroke-width:1.5;"/>
   </g>
  </g>
  <g id="axes_4">
   <g id="patch_8">
    <path d="M 232.382128 81.144 
L 291.74383 81.144 
L 291.74383 7.2 
L 232.382128 7.2 
z
" style="fill:none;"/>
   </g>
   <g id="matplotlib.axis_7">
    <g id="xtick_7">
     <g id="line2d_13">
      <g>
       <use style="stroke:#000000;stroke-width:1.5;" x="232.382128" xlink:href="#mcfd95c2e41" y="86.144"/>
      </g>
     </g>
     <g id="text_10">
      <!-- $\mathdefault{0.00}$   -->
      <g transform="translate(220.902128 99.22275)">
       <text>
        <tspan style="font-family:DejaVu Sans;font-size:8px;font-style:book;font-weight:book;" x="0 5.089844 7.632812 12.722656 17.8125 20.355469" y="-0.0625">0.00  </tspan>
       </text>
      </g>
     </g>
    </g>
    <g id="xtick_8">
     <g id="line2d_14">
      <g>
       <use style="stroke:#000000;stroke-width:1.5;" x="291.74383" xlink:href="#mcfd95c2e41" y="86.144"/>
      </g>
     </g>
     <g id="text_11">
      <!-- $\mathdefault{5.00}\;\;\;$   -->
      <g transform="translate(277.02383 99.22275)">
       <text>
        <tspan style="font-family:DejaVu Sans;font-size:8px;font-style:book;font-weight:book;" x="0 5.089844 7.632812 12.722656 24.306693 26.849661" y="-0.0625">5.00  </tspan>
       </text>
      </g>
     </g>
    </g>
    <g id="text_12">
     <text style="font-family:DejaVu Sans;font-size:8px;font-stretch:normal;font-style:normal;font-weight:normal;text-anchor:middle;" transform="rotate(-0, 262.062979, 110.96525)" x="262.062979" y="110.96525">PY-KCa</text>
    </g>
   </g>
   <g id="matplotlib.axis_8">
    <g id="ytick_9"/>
    <g id="ytick_10"/>
    <g id="ytick_11"/>
   </g>
   <g id="line2d_15">
    <path clip-path="url(#pb8c5034a6d)" d="M 232.382128 46.140605 
L 232.981741 41.396371 
L 233.581354 36.78921 
L 234.180967 32.458419 
L 234.78058 28.513325 
L 235.380193 25.024795 
L 235.979807 22.023067 
L 236.57942 19.501734 
L 237.179033 17.426341 
L 237.778646 15.745238 
L 238.378259 14.400186 
L 238.977872 13.33469 
L 239.577485 12.499066 
L 240.177099 11.852335 
L 240.776712 11.361929 
L 241.376325 11.002603 
L 241.975938 10.755752 
L 242.575551 10.609743 
L 243.175164 10.561091 
L 243.774778 10.615676 
L 244.374391 10.78895 
L 244.974004 11.104279 
L 245.573617 11.589171 
L 246.17323 12.269856 
L 246.772843 13.165328 
L 247.372456 14.282224 
L 247.97207 15.611784 
L 248.571683 17.12964 
L 249.171296 18.798414 
L 249.770909 20.572475 
L 250.370522 22.403684 
L 250.970135 24.246894 
L 251.569749 26.064166 
L 252.169362 27.827153 
L 252.768975 29.517644 
L 253.368588 31.126674 
L 253.968201 32.65284 
L 254.567814 34.100433 
L 255.167427 35.477774 
L 255.767041 36.795874 
L 256.366654 38.067307 
L 256.966267 39.305092 
L 257.56588 40.521427 
L 258.165493 41.726288 
L 258.765106 42.926047 
L 259.36472 44.122394 
L 259.964333 45.311808 
L 260.563946 46.485766 
L 261.163559 47.631666 
L 261.763172 48.734315 
L 262.362785 49.777733 
L 262.962398 50.746981 
L 263.562012 51.629761 
L 264.161625 52.417626 
L 264.761238 53.106686 
L 265.360851 53.697818 
L 265.960464 54.196422 
L 266.560077 54.611834 
L 267.159691 54.956555 
L 267.759304 55.245459 
L 268.358917 55.49512 
L 268.95853 55.723317 
L 269.558143 55.948701 
L 270.157756 56.190469 
L 270.757369 56.467906 
L 271.356983 56.799611 
L 271.956596 57.202394 
L 272.556209 57.689931 
L 273.155822 58.271418 
L 273.755435 58.950505 
L 274.355048 59.72476 
L 274.954662 60.585787 
L 275.554275 61.519941 
L 276.153888 62.509497 
L 276.753501 63.534032 
L 277.353114 64.571837 
L 277.952727 65.601257 
L 278.55234 66.601926 
L 279.151954 67.555885 
L 279.751567 68.44858 
L 280.35118 69.269614 
L 280.950793 70.01315 
L 281.550406 70.677819 
L 282.150019 71.266115 
L 282.749632 71.783379 
L 283.349246 72.236613 
L 283.948859 72.633423 
L 284.548472 72.981339 
L 285.148085 73.287642 
L 285.747698 73.559617 
L 286.347311 73.805001 
L 286.946925 74.032325 
L 287.546538 74.250866 
L 288.146151 74.470086 
L 288.745764 74.698622 
L 289.345377 74.943057 
L 289.94499 75.206803 
L 290.544603 75.489431 
L 291.144217 75.78663 
L 291.74383 76.090863 
" style="fill:none;stroke:#2e7fe8;stroke-linecap:square;stroke-width:1.5;"/>
   </g>
   <g id="line2d_16">
    <path clip-path="url(#pb8c5034a6d)" d="M 232.382128 46.815667 
L 232.981741 42.139318 
L 233.581354 37.802878 
L 234.180967 33.954981 
L 234.78058 30.673214 
L 235.380193 27.959894 
L 235.979807 25.753285 
L 236.57942 23.950383 
L 237.179033 22.434527 
L 237.778646 21.100498 
L 238.378259 19.871498 
L 238.977872 18.705502 
L 239.577485 17.59197 
L 240.177099 16.542346 
L 240.776712 15.578761 
L 241.376325 14.724648 
L 241.975938 13.999275 
L 242.575551 13.416203 
L 243.175164 12.984205 
L 243.774778 12.708629 
L 244.374391 12.591637 
L 244.974004 12.630766 
L 245.573617 12.816486 
L 246.17323 13.130224 
L 246.772843 13.544478 
L 247.372456 14.026037 
L 247.97207 14.542255 
L 248.571683 15.069046 
L 249.171296 15.598388 
L 249.770909 16.142853 
L 250.370522 16.73526 
L 250.970135 17.422817 
L 251.569749 18.256728 
L 252.169362 19.279647 
L 252.768975 20.514137 
L 253.368588 21.955129 
L 253.968201 23.568353 
L 254.567814 25.295098 
L 255.167427 27.062087 
L 255.767041 28.79401 
L 256.366654 30.425847 
L 256.966267 31.912425 
L 257.56588 33.233553 
L 258.165493 34.394241 
L 258.765106 35.420585 
L 259.36472 36.352736 
L 259.964333 37.236712 
L 260.563946 38.116812 
L 261.163559 39.02994 
L 261.763172 40.002536 
L 262.362785 41.05007 
L 262.962398 42.178476 
L 263.562012 43.386572 
L 264.161625 44.668497 
L 264.761238 46.015481 
L 265.360851 47.416641 
L 265.960464 48.858965 
L 266.560077 50.326915 
L 267.159691 51.80223 
L 267.759304 53.264434 
L 268.358917 54.692326 
L 268.95853 56.066366 
L 269.558143 57.371535 
L 270.157756 58.59993 
L 270.757369 59.752305 
L 271.356983 60.837906 
L 271.956596 61.872387 
L 272.556209 62.874107 
L 273.155822 63.859637 
L 273.755435 64.839581 
L 274.355048 65.815819 
L 274.954662 66.78092 
L 275.554275 67.71991 
L 276.153888 68.613922 
L 276.753501 69.444795 
L 277.353114 70.19939 
L 277.952727 70.872558 
L 278.55234 71.468047 
L 279.151954 71.997259 
L 279.751567 72.476325 
L 280.35118 72.922408 
L 280.950793 73.350235 
L 281.550406 73.769696 
L 282.150019 74.184917 
L 282.749632 74.594765 
L 283.349246 74.994338 
L 283.948859 75.376858 
L 284.548472 75.735425 
L 285.148085 76.064307 
L 285.747698 76.359663 
L 286.347311 76.619783 
L 286.946925 76.844996 
L 287.546538 77.037374 
L 288.146151 77.200301 
L 288.745764 77.337957 
L 289.345377 77.454747 
L 289.94499 77.554763 
L 290.544603 77.641357 
L 291.144217 77.716925 
L 291.74383 77.782909 
" style="fill:none;stroke:#ff0000;stroke-linecap:square;stroke-width:1.5;"/>
   </g>
   <g id="patch_9">
    <path d="M 232.382128 86.144 
L 291.74383 86.144 
" style="fill:none;stroke:#000000;stroke-linecap:square;stroke-linejoin:miter;stroke-width:1.5;"/>
   </g>
  </g>
  <g id="axes_5">
   <g id="patch_10">
    <path d="M 303.61617 81.144 
L 362.977872 81.144 
L 362.977872 7.2 
L 303.61617 7.2 
z
" style="fill:none;"/>
   </g>
   <g id="matplotlib.axis_9">
    <g id="xtick_9">
     <g id="line2d_17">
      <g>
       <use style="stroke:#000000;stroke-width:1.5;" x="303.61617" xlink:href="#mcfd95c2e41" y="86.144"/>
      </g>
     </g>
     <g id="text_13">
      <!-- $\mathdefault{50.0}$   -->
      <g transform="translate(292.13617 99.22275)">
       <text>
        <tspan style="font-family:DejaVu Sans;font-size:8px;font-style:book;font-weight:book;" x="0 5.089844 10.179688 12.722656 17.8125 20.355469" y="-0.0625">50.0  </tspan>
       </text>
      </g>
     </g>
    </g>
    <g id="xtick_10">
     <g id="line2d_18">
      <g>
       <use style="stroke:#000000;stroke-width:1.5;" x="362.977872" xlink:href="#mcfd95c2e41" y="86.144"/>
      </g>
     </g>
     <g id="text_14">
      <!-- $\mathdefault{150.0}\;\;\;$   -->
      <g transform="translate(345.697872 99.22275)">
       <text>
        <tspan style="font-family:DejaVu Sans;font-size:8px;font-style:book;font-weight:book;" x="0 5.089844 10.179688 15.269531 17.8125 29.396536 31.939505" y="-0.0625">150.0  </tspan>
       </text>
      </g>
     </g>
    </g>
    <g id="text_15">
     <text style="font-family:DejaVu Sans;font-size:8px;font-stretch:normal;font-style:normal;font-weight:normal;text-anchor:middle;" transform="rotate(-0, 333.297021, 110.96525)" x="333.297021" y="110.96525">PY-Kd</text>
    </g>
   </g>
   <g id="matplotlib.axis_10">
    <g id="ytick_12"/>
    <g id="ytick_13"/>
    <g id="ytick_14"/>
    <g id="ytick_15"/>
   </g>
   <g id="line2d_19">
    <path clip-path="url(#pe15266b5bd)" d="M 303.61617 77.782909 
L 304.215783 76.288075 
L 304.815397 74.595445 
L 305.41501 72.711167 
L 306.014623 70.649153 
L 306.614236 68.431462 
L 307.213849 66.087962 
L 307.813462 63.655073 
L 308.413075 61.173427 
L 309.012689 58.684508 
L 309.612302 56.226535 
L 310.211915 53.830117 
L 310.811528 51.514342 
L 311.411141 49.284076 
L 312.010754 47.129105 
L 312.610368 45.025506 
L 313.209981 42.939274 
L 313.809594 40.831798 
L 314.409207 38.666419 
L 315.00882 36.415083 
L 315.608433 34.064032 
L 316.208046 31.617624 
L 316.80766 29.099656 
L 317.407273 26.551989 
L 318.006886 24.030639 
L 318.606499 21.599922 
L 319.206112 19.325462 
L 319.805725 17.267041 
L 320.405338 15.472229 
L 321.004952 13.971635 
L 321.604565 12.776321 
L 322.204178 11.877662 
L 322.803791 11.249557 
L 323.403404 10.852588 
L 324.003017 10.639489 
L 324.602631 10.561091 
L 325.202244 10.571941 
L 325.801857 10.634854 
L 326.40147 10.723868 
L 327.001083 10.825359 
L 327.600696 10.937349 
L 328.200309 11.067288 
L 328.799923 11.228802 
L 329.399536 11.437954 
L 329.999149 11.709614 
L 330.598762 12.054408 
L 331.198375 12.47662 
L 331.797988 12.973207 
L 332.397602 13.533958 
L 332.997215 14.142618 
L 333.596828 14.778707 
L 334.196441 15.419691 
L 334.796054 16.043148 
L 335.395667 16.628643 
L 335.99528 17.159113 
L 336.594894 17.621698 
L 337.194507 18.008059 
L 337.79412 18.314309 
L 338.393733 18.540715 
L 338.993346 18.691309 
L 339.592959 18.773504 
L 340.192573 18.797725 
L 340.792186 18.77705 
L 341.391799 18.726778 
L 341.991412 18.663882 
L 342.591025 18.606311 
L 343.190638 18.572179 
L 343.790251 18.578902 
L 344.389865 18.642377 
L 344.989478 18.776328 
L 345.589091 18.991892 
L 346.188704 19.29751 
L 346.788317 19.699099 
L 347.38793 20.200471 
L 347.987544 20.803882 
L 348.587157 21.510608 
L 349.18677 22.321416 
L 349.786383 23.236861 
L 350.385996 24.257322 
L 350.985609 25.382806 
L 351.585222 26.612551 
L 352.184836 27.944519 
L 352.784449 29.374912 
L 353.384062 30.897846 
L 353.983675 32.505352 
L 354.583288 34.187788 
L 355.182901 35.934755 
L 355.782515 37.73645 
L 356.382128 39.58529 
L 356.981741 41.477519 
L 357.581354 43.414398 
L 358.180967 45.402571 
L 358.78058 47.453286 
L 359.380193 49.580349 
L 359.979807 51.796955 
L 360.57942 54.111849 
L 361.179033 56.525504 
L 361.778646 59.027075 
L 362.378259 61.592864 
L 362.977872 64.186712 
" style="fill:none;stroke:#2e7fe8;stroke-linecap:square;stroke-width:1.5;"/>
   </g>
   <g id="line2d_20">
    <path clip-path="url(#pe15266b5bd)" d="M 303.61617 66.066403 
L 304.215783 63.76754 
L 304.815397 61.448084 
L 305.41501 59.144427 
L 306.014623 56.890451 
L 306.614236 54.715961 
L 307.213849 52.6456 
L 307.813462 50.698283 
L 308.413075 48.887154 
L 309.012689 47.219977 
L 309.612302 45.699848 
L 310.211915 44.326097 
L 310.811528 43.095241 
L 311.411141 42.001892 
L 312.010754 41.039534 
L 312.610368 40.201141 
L 313.209981 39.479604 
L 313.809594 38.867993 
L 314.409207 38.359656 
L 315.00882 37.94817 
L 315.608433 37.627169 
L 316.208046 37.390057 
L 316.80766 37.229639 
L 317.407273 37.137689 
L 318.006886 37.104514 
L 318.606499 37.118575 
L 319.206112 37.166223 
L 319.805725 37.231638 
L 320.405338 37.297015 
L 321.004952 37.343056 
L 321.604565 37.349755 
L 322.204178 37.297462 
L 322.803791 37.168149 
L 323.403404 36.946768 
L 324.003017 36.622572 
L 324.602631 36.190249 
L 325.202244 35.650729 
L 325.801857 35.01155 
L 326.40147 34.286699 
L 327.001083 33.495917 
L 327.600696 32.663482 
L 328.200309 31.816583 
L 328.799923 30.983397 
L 329.399536 30.191051 
L 329.999149 29.463637 
L 330.598762 28.820448 
L 331.198375 28.274588 
L 331.797988 27.83207 
L 332.397602 27.491461 
L 332.997215 27.244113 
L 333.596828 27.074956 
L 334.196441 26.963797 
L 334.796054 26.887036 
L 335.395667 26.819671 
L 335.99528 26.737441 
L 336.594894 26.618926 
L 337.194507 26.447435 
L 337.79412 26.212479 
L 338.393733 25.910674 
L 338.993346 25.545944 
L 339.592959 25.128956 
L 340.192573 24.675809 
L 340.792186 24.206069 
L 341.391799 23.740363 
L 341.991412 23.297781 
L 342.591025 22.893435 
L 343.190638 22.536468 
L 343.790251 22.228816 
L 344.389865 21.964907 
L 344.989478 21.732374 
L 345.589091 21.513713 
L 346.188704 21.28867 
L 346.788317 21.037078 
L 347.38793 20.741736 
L 347.987544 20.390983 
L 348.587157 19.980634 
L 349.18677 19.515048 
L 349.786383 19.007255 
L 350.385996 18.478174 
L 350.985609 17.955116 
L 351.585222 17.469828 
L 352.184836 17.056415 
L 352.784449 16.749419 
L 353.384062 16.582333 
L 353.983675 16.586662 
L 354.583288 16.79156 
L 355.182901 17.223925 
L 355.782515 17.908707 
L 356.382128 18.869172 
L 356.981741 20.126795 
L 357.581354 21.700574 
L 358.180967 23.605657 
L 358.78058 25.851318 
L 359.380193 28.438524 
L 359.979807 31.357445 
L 360.57942 34.58536 
L 361.179033 38.085413 
L 361.778646 41.806594 
L 362.378259 45.685136 
L 362.977872 49.64735 
" style="fill:none;stroke:#ff0000;stroke-linecap:square;stroke-width:1.5;"/>
   </g>
   <g id="patch_11">
    <path d="M 303.61617 86.144 
L 362.977872 86.144 
" style="fill:none;stroke:#000000;stroke-linecap:square;stroke-linejoin:miter;stroke-width:1.5;"/>
   </g>
  </g>
  <g id="axes_6">
   <g id="patch_12">
    <path d="M 374.850213 81.144 
L 434.211915 81.144 
L 434.211915 7.2 
L 374.850213 7.2 
z
" style="fill:none;"/>
   </g>
   <g id="matplotlib.axis_11">
    <g id="xtick_11">
     <g id="line2d_21">
      <g>
       <use style="stroke:#000000;stroke-width:1.5;" x="374.850213" xlink:href="#mcfd95c2e41" y="86.144"/>
      </g>
     </g>
     <g id="text_16">
      <!-- $\mathdefault{0.00}$   -->
      <g transform="translate(363.370213 99.22275)">
       <text>
        <tspan style="font-family:DejaVu Sans;font-size:8px;font-style:book;font-weight:book;" x="0 5.089844 7.632812 12.722656 17.8125 20.355469" y="-0.0625">0.00  </tspan>
       </text>
      </g>
     </g>
    </g>
    <g id="xtick_12">
     <g id="line2d_22">
      <g>
       <use style="stroke:#000000;stroke-width:1.5;" x="434.211915" xlink:href="#mcfd95c2e41" y="86.144"/>
      </g>
     </g>
     <g id="text_17">
      <!-- $\mathdefault{0.06}\;\;\;$   -->
      <g transform="translate(419.491915 99.22275)">
       <text>
        <tspan style="font-family:DejaVu Sans;font-size:8px;font-style:book;font-weight:book;" x="0 5.089844 7.632812 12.722656 24.306693 26.849661" y="-0.0625">0.06  </tspan>
       </text>
      </g>
     </g>
    </g>
    <g id="text_18">
     <text style="font-family:DejaVu Sans;font-size:8px;font-stretch:normal;font-style:normal;font-weight:normal;text-anchor:middle;" transform="rotate(-0, 404.531064, 110.96525)" x="404.531064" y="110.96525">PY-H</text>
    </g>
   </g>
   <g id="matplotlib.axis_12">
    <g id="ytick_16"/>
    <g id="ytick_17"/>
    <g id="ytick_18"/>
    <g id="ytick_19"/>
   </g>
   <g id="line2d_23">
    <path clip-path="url(#p5807b0b6d2)" d="M 374.850213 76.002654 
L 375.449826 73.85119 
L 376.049439 71.675987 
L 376.649052 69.517992 
L 377.248665 67.41621 
L 377.848279 65.405305 
L 378.447892 63.513574 
L 379.047505 61.761455 
L 379.647118 60.16067 
L 380.246731 58.714092 
L 380.846344 57.416292 
L 381.445957 56.254724 
L 382.045571 55.211416 
L 382.645184 54.264999 
L 383.244797 53.392867 
L 383.84441 52.573218 
L 384.444023 51.786761 
L 385.043636 51.017873 
L 385.64325 50.255082 
L 386.242863 49.490835 
L 386.842476 48.720645 
L 387.442089 47.941821 
L 388.041702 47.152064 
L 388.641315 46.348268 
L 389.240928 45.525815 
L 389.840542 44.678561 
L 390.440155 43.799561 
L 391.039768 42.882417 
L 391.639381 41.92297 
L 392.238994 40.920962 
L 392.838607 39.881295 
L 393.438221 38.814544 
L 394.037834 37.736556 
L 394.637447 36.667128 
L 395.23706 35.627936 
L 395.836673 34.640058 
L 396.436286 33.721476 
L 397.035899 32.884989 
L 397.635513 32.136832 
L 398.235126 31.476236 
L 398.834739 30.895935 
L 399.434352 30.383528 
L 400.033965 29.923469 
L 400.633578 29.499352 
L 401.233191 29.096206 
L 401.832805 28.702478 
L 402.432418 28.311489 
L 403.032031 27.922218 
L 403.631644 27.539355 
L 404.231257 27.172652 
L 404.83087 26.83567 
L 405.430484 26.544047 
L 406.030097 26.313494 
L 406.62971 26.157672 
L 407.229323 26.086181 
L 407.828936 26.102833 
L 408.428549 26.204403 
L 409.028162 26.380003 
L 409.627776 26.611207 
L 410.227389 26.87297 
L 410.827002 27.135338 
L 411.426615 27.365819 
L 412.026228 27.53222 
L 412.625841 27.605629 
L 413.225455 27.563182 
L 413.825068 27.390248 
L 414.424681 27.081689 
L 415.024294 26.641973 
L 415.623907 26.084106 
L 416.22352 25.427503 
L 416.823133 24.695143 
L 417.422747 23.910464 
L 418.02236 23.094539 
L 418.621973 22.26404 
L 419.221586 21.430354 
L 419.821199 20.600027 
L 420.420812 19.776477 
L 421.020426 18.962647 
L 421.620039 18.164155 
L 422.219652 17.392348 
L 422.819265 16.666745 
L 423.418878 16.016415 
L 424.018491 15.480061 
L 424.618104 15.104768 
L 425.217718 14.943602 
L 425.817331 15.052343 
L 426.416944 15.485786 
L 427.016557 16.293978 
L 427.61617 17.518735 
L 428.215783 19.19068 
L 428.815397 21.326932 
L 429.41501 23.929499 
L 430.014623 26.984357 
L 430.614236 30.461228 
L 431.213849 34.314038 
L 431.813462 38.482112 
L 432.413075 42.892115 
L 433.012689 47.460803 
L 433.612302 52.098503 
L 434.211915 56.713222 
" style="fill:none;stroke:#2e7fe8;stroke-linecap:square;stroke-width:1.5;"/>
   </g>
   <g id="line2d_24">
    <path clip-path="url(#p5807b0b6d2)" d="M 374.850213 77.782909 
L 375.449826 75.820701 
L 376.049439 73.846294 
L 376.649052 71.897707 
L 377.248665 70.008646 
L 377.848279 68.206039 
L 378.447892 66.508295 
L 379.047505 64.924471 
L 379.647118 63.454432 
L 380.246731 62.089942 
L 380.846344 60.816536 
L 381.445957 59.615912 
L 382.045571 58.468509 
L 382.645184 57.355931 
L 383.244797 56.262893 
L 383.84441 55.178438 
L 384.444023 54.096307 
L 385.043636 53.014497 
L 385.64325 51.934175 
L 386.242863 50.858276 
L 386.842476 49.790101 
L 387.442089 48.732267 
L 388.041702 47.686203 
L 388.641315 46.652247 
L 389.240928 45.630208 
L 389.840542 44.620147 
L 390.440155 43.623025 
L 391.039768 42.640948 
L 391.639381 41.676821 
L 392.238994 40.73341 
L 392.838607 39.811981 
L 393.438221 38.910828 
L 394.037834 38.024029 
L 394.637447 37.140771 
L 395.23706 36.245442 
L 395.836673 35.318554 
L 396.436286 34.338405 
L 397.035899 33.283251 
L 397.635513 32.133731 
L 398.235126 30.875216 
L 398.834739 29.49987 
L 399.434352 28.008195 
L 400.033965 26.409966 
L 400.633578 24.724465 
L 401.233191 22.980006 
L 401.832805 21.212724 
L 402.432418 19.464659 
L 403.032031 17.781174 
L 403.631644 16.207814 
L 404.231257 14.786804 
L 404.83087 13.553439 
L 405.430484 12.532769 
L 406.030097 11.737006 
L 406.62971 11.164078 
L 407.229323 10.797718 
L 407.828936 10.609261 
L 408.428549 10.561091 
L 409.028162 10.61142 
L 409.627776 10.719772 
L 410.227389 10.852402 
L 410.827002 10.986778 
L 411.426615 11.11441 
L 412.026228 11.241511 
L 412.625841 11.38738 
L 413.225455 11.580777 
L 413.825068 11.854929 
L 414.424681 12.242 
L 415.024294 12.767972 
L 415.623907 13.448701 
L 416.22352 14.287688 
L 416.823133 15.275737 
L 417.422747 16.392337 
L 418.02236 17.608309 
L 418.621973 18.889151 
L 419.221586 20.198495 
L 419.821199 21.50121 
L 420.420812 22.765907 
L 421.020426 23.966787 
L 421.620039 25.084957 
L 422.219652 26.109388 
L 422.819265 27.037691 
L 423.418878 27.876757 
L 424.018491 28.643212 
L 424.618104 29.363502 
L 425.217718 30.073401 
L 425.817331 30.816744 
L 426.416944 31.643328 
L 427.016557 32.606025 
L 427.61617 33.75733 
L 428.215783 35.145632 
L 428.815397 36.81155 
L 429.41501 38.784648 
L 430.014623 41.080765 
L 430.614236 43.700142 
L 431.213849 46.626456 
L 431.813462 49.826835 
L 432.413075 53.252907 
L 433.012689 56.8429 
L 433.612302 60.524773 
L 434.211915 64.22024 
" style="fill:none;stroke:#ff0000;stroke-linecap:square;stroke-width:1.5;"/>
   </g>
   <g id="patch_13">
    <path d="M 374.850213 86.144 
L 434.211915 86.144 
" style="fill:none;stroke:#000000;stroke-linecap:square;stroke-linejoin:miter;stroke-width:1.5;"/>
   </g>
  </g>
  <g id="axes_7">
   <g id="patch_14">
    <path d="M 446.084255 81.144 
L 505.445957 81.144 
L 505.445957 7.2 
L 446.084255 7.2 
z
" style="fill:none;"/>
   </g>
   <g id="matplotlib.axis_13">
    <g id="xtick_13">
     <g id="line2d_25">
      <g>
       <use style="stroke:#000000;stroke-width:1.5;" x="446.084255" xlink:href="#mcfd95c2e41" y="86.144"/>
      </g>
     </g>
     <g id="text_19">
      <!-- $\mathdefault{0.01}$  -->
      <g transform="translate(435.884255 99.22275)">
       <text>
        <tspan style="font-family:DejaVu Sans;font-size:8px;font-style:book;font-weight:book;" x="0 5.089844 7.632812 12.722656 17.8125" y="-0.0625">0.01 </tspan>
       </text>
      </g>
     </g>
    </g>
    <g id="xtick_14">
     <g id="line2d_26">
      <g>
       <use style="stroke:#000000;stroke-width:1.5;" x="505.445957" xlink:href="#mcfd95c2e41" y="86.144"/>
      </g>
     </g>
     <g id="text_20">
      <!-- $\mathdefault{1000}\;\;\;\;$  -->
      <g transform="translate(489.645957 99.22275)">
       <text>
        <tspan style="font-family:DejaVu Sans;font-size:8px;font-style:book;font-weight:book;" x="0 5.089844 10.179688 15.269531 29.018298" y="-0.0625">1000 </tspan>
       </text>
      </g>
     </g>
    </g>
    <g id="text_21">
     <!-- $\mathdefault{PD-LP}$ -->
     <g transform="translate(460.685106 110.96525)">
      <text>
       <tspan style="font-family:DejaVu Sans;font-size:8px;font-style:book;font-weight:book;" x="0 4.824219 12.542969 20.804688 25.261719" y="-0.171875">PD−LP</tspan>
      </text>
     </g>
    </g>
   </g>
   <g id="matplotlib.axis_14">
    <g id="ytick_20"/>
    <g id="ytick_21"/>
    <g id="ytick_22"/>
    <g id="ytick_23"/>
   </g>
   <g id="line2d_27">
    <path clip-path="url(#p6f33ef3654)" d="M 446.084255 61.834368 
L 446.683868 59.368592 
L 447.283482 56.93932 
L 447.883095 54.617823 
L 448.482708 52.466546 
L 449.082321 50.536199 
L 449.681934 48.864799 
L 450.281547 47.478128 
L 450.881161 46.390803 
L 451.480774 45.607164 
L 452.080387 45.12158 
L 452.68 44.918233 
L 453.279613 44.970886 
L 453.879226 45.243328 
L 454.478839 45.691033 
L 455.078453 46.26418 
L 455.678066 46.91168 
L 456.277679 47.585431 
L 456.877292 48.243945 
L 457.476905 48.854646 
L 458.076518 49.394564 
L 458.676132 49.849668 
L 459.275745 50.213408 
L 459.875358 50.485134 
L 460.474971 50.668934 
L 461.074584 50.772988 
L 461.674197 50.809242 
L 462.27381 50.792903 
L 462.873424 50.741286 
L 463.473037 50.671777 
L 464.07265 50.599064 
L 464.672263 50.532133 
L 465.271876 50.471779 
L 465.871489 50.40931 
L 466.471103 50.326902 
L 467.070716 50.199633 
L 467.670329 49.99885 
L 468.269942 49.696172 
L 468.869555 49.267392 
L 469.469168 48.69555 
L 470.068781 47.972742 
L 470.668395 47.100434 
L 471.268008 46.088366 
L 471.867621 44.952281 
L 472.467234 43.710825 
L 473.066847 42.382079 
L 473.66646 40.980162 
L 474.266074 39.512486 
L 474.865687 37.978197 
L 475.4653 36.368376 
L 476.064913 34.668398 
L 476.664526 32.862545 
L 477.264139 30.940526 
L 477.863752 28.905049 
L 478.463366 26.77913 
L 479.062979 24.611647 
L 479.662592 22.479735 
L 480.262205 20.487122 
L 480.861818 18.758214 
L 481.461431 17.428506 
L 482.061044 16.63256 
L 482.660658 16.491111 
L 483.260271 17.098873 
L 483.859884 18.514373 
L 484.459497 20.752743 
L 485.05911 23.782057 
L 485.658723 27.523515 
L 486.258337 31.855571 
L 486.85795 36.621889 
L 487.457563 41.642693 
L 488.057176 46.728641 
L 488.656789 51.695865 
L 489.256402 56.380429 
L 489.856015 60.650371 
L 490.455629 64.413739 
L 491.055242 67.621684 
L 491.654855 70.266523 
L 492.254468 72.375549 
L 492.854081 74.002005 
L 493.453694 75.214942 
L 494.053308 76.089578 
L 494.652921 76.699349 
L 495.252534 77.110326 
L 495.852147 77.378089 
L 496.45176 77.546718 
L 497.051373 77.649364 
L 497.650986 77.709754 
L 498.2506 77.744093 
L 498.850213 77.762963 
L 499.449826 77.772985 
L 500.049439 77.778129 
L 500.649052 77.78068 
L 501.248665 77.781903 
L 501.848279 77.78247 
L 502.447892 77.782723 
L 503.047505 77.782833 
L 503.647118 77.782879 
L 504.246731 77.782898 
L 504.846344 77.782905 
L 505.445957 77.782908 
" style="fill:none;stroke:#2e7fe8;stroke-linecap:square;stroke-width:1.5;"/>
   </g>
   <g id="line2d_28">
    <path clip-path="url(#p6f33ef3654)" d="M 446.084255 63.187952 
L 446.683868 60.853263 
L 447.283482 58.612754 
L 447.883095 56.526376 
L 448.482708 54.627256 
L 449.082321 52.922719 
L 449.681934 51.40092 
L 450.281547 50.040567 
L 450.881161 48.82064 
L 451.480774 47.727552 
L 452.080387 46.758372 
L 452.68 45.920123 
L 453.279613 45.226128 
L 453.879226 44.69081 
L 454.478839 44.324257 
L 455.078453 44.127568 
L 455.678066 44.089652 
L 456.277679 44.185969 
L 456.877292 44.379544 
L 457.476905 44.624374 
L 458.076518 44.870981 
L 458.676132 45.073363 
L 459.275745 45.196054 
L 459.875358 45.219726 
L 460.474971 45.143811 
L 461.074584 44.985188 
L 461.674197 44.77294 
L 462.27381 44.540246 
L 462.873424 44.315357 
L 463.473037 44.113923 
L 464.07265 43.934669 
L 464.672263 43.7595 
L 465.271876 43.557975 
L 465.871489 43.294941 
L 466.471103 42.939385 
L 467.070716 42.472235 
L 467.670329 41.891148 
L 468.269942 41.210971 
L 468.869555 40.459525 
L 469.469168 39.669432 
L 470.068781 38.867676 
L 470.668395 38.065227 
L 471.268008 37.249304 
L 471.867621 36.380419 
L 472.467234 35.395434 
L 473.066847 34.216607 
L 473.66646 32.76533 
L 474.266074 30.978327 
L 474.865687 28.823716 
L 475.4653 26.314498 
L 476.064913 23.517522 
L 476.664526 20.556576 
L 477.264139 17.608713 
L 477.863752 14.893419 
L 478.463366 12.654777 
L 479.062979 11.137776 
L 479.662592 10.561091 
L 480.262205 11.089935 
L 480.861818 12.813289 
L 481.461431 15.729635 
L 482.061044 19.744079 
L 482.660658 24.677636 
L 483.260271 30.287145 
L 483.859884 36.292325 
L 484.459497 42.405431 
L 485.05911 48.35898 
L 485.658723 53.927911 
L 486.258337 58.943983 
L 486.85795 63.301769 
L 487.457563 66.956911 
L 488.057176 69.918269 
L 488.656789 72.236072 
L 489.256402 73.988307 
L 489.856015 75.267342 
L 490.455629 76.16836 
L 491.055242 76.780561 
L 491.654855 77.181516 
L 492.254468 77.434483 
L 492.854081 77.588133 
L 493.453694 77.677926 
L 494.053308 77.728388 
L 494.652921 77.755643 
L 495.252534 77.769786 
L 495.852147 77.776834 
L 496.45176 77.780205 
L 497.051373 77.781752 
L 497.650986 77.782434 
L 498.2506 77.782721 
L 498.850213 77.782838 
L 499.449826 77.782883 
L 500.049439 77.7829 
L 500.649052 77.782906 
L 501.248665 77.782908 
L 501.848279 77.782909 
L 502.447892 77.782909 
L 503.047505 77.782909 
L 503.647118 77.782909 
L 504.246731 77.782909 
L 504.846344 77.782909 
L 505.445957 77.782909 
" style="fill:none;stroke:#ff0000;stroke-linecap:square;stroke-width:1.5;"/>
   </g>
   <g id="patch_15">
    <path d="M 446.084255 86.144 
L 505.445957 86.144 
" style="fill:none;stroke:#000000;stroke-linecap:square;stroke-linejoin:miter;stroke-width:1.5;"/>
   </g>
  </g>
  <g id="axes_8">
   <g id="patch_16">
    <path d="M 517.318298 81.144 
L 576.68 81.144 
L 576.68 7.2 
L 517.318298 7.2 
z
" style="fill:none;"/>
   </g>
   <g id="matplotlib.axis_15">
    <g id="xtick_15">
     <g id="line2d_29">
      <g>
       <use style="stroke:#000000;stroke-width:1.5;" x="517.318298" xlink:href="#mcfd95c2e41" y="86.144"/>
      </g>
     </g>
     <g id="text_22">
      <!-- $\mathdefault{0.01}$  -->
      <g transform="translate(507.118298 99.22275)">
       <text>
        <tspan style="font-family:DejaVu Sans;font-size:8px;font-style:book;font-weight:book;" x="0 5.089844 7.632812 12.722656 17.8125" y="-0.0625">0.01 </tspan>
       </text>
      </g>
     </g>
    </g>
    <g id="xtick_16">
     <g id="line2d_30">
      <g>
       <use style="stroke:#000000;stroke-width:1.5;" x="576.68" xlink:href="#mcfd95c2e41" y="86.144"/>
      </g>
     </g>
     <g id="text_23">
      <!-- $\mathdefault{1000}\;\;\;\;$  -->
      <g transform="translate(560.88 99.22275)">
       <text>
        <tspan style="font-family:DejaVu Sans;font-size:8px;font-style:book;font-weight:book;" x="0 5.089844 10.179688 15.269531 29.018298" y="-0.0625">1000 </tspan>
       </text>
      </g>
     </g>
    </g>
    <g id="text_24">
     <!-- $\mathdefault{AB-PY}$ -->
     <g transform="translate(531.719149 110.96525)">
      <text>
       <tspan style="font-family:DejaVu Sans;font-size:8px;font-style:book;font-weight:book;" x="0 5.472656 12.519531 20.78125 25.605469" y="-0.171875">AB−PY</tspan>
      </text>
     </g>
    </g>
   </g>
   <g id="matplotlib.axis_16">
    <g id="ytick_24"/>
    <g id="ytick_25"/>
   </g>
   <g id="line2d_31">
    <path clip-path="url(#p1f6435364a)" d="M 517.318298 43.4601 
L 517.917911 39.646059 
L 518.517524 36.074622 
L 519.117137 32.834483 
L 519.71675 29.997449 
L 520.316364 27.613924 
L 520.915977 25.710177 
L 521.51559 24.287568 
L 522.115203 23.32375 
L 522.714816 22.775616 
L 523.314429 22.583639 
L 523.914043 22.677138 
L 524.513656 22.979949 
L 525.113269 23.416011 
L 525.712882 23.914428 
L 526.312495 24.413649 
L 526.912108 24.864529 
L 527.511721 25.232125 
L 528.111335 25.496221 
L 528.710948 25.65065 
L 529.310561 25.701594 
L 529.910174 25.665089 
L 530.509787 25.564048 
L 531.1094 25.425084 
L 531.709014 25.275461 
L 532.308627 25.140432 
L 532.90824 25.041169 
L 533.507853 24.993403 
L 534.107466 25.006812 
L 534.707079 25.085095 
L 535.306692 25.226602 
L 535.906306 25.425341 
L 536.505919 25.672174 
L 537.105532 25.956024 
L 537.705145 26.264964 
L 538.304758 26.587107 
L 538.904371 26.911288 
L 539.503985 27.227551 
L 540.103598 27.527528 
L 540.703211 27.80473 
L 541.302824 28.054825 
L 541.902437 28.275876 
L 542.50205 28.468536 
L 543.101663 28.636097 
L 543.701277 28.784361 
L 544.30089 28.921233 
L 544.900503 29.056025 
L 545.500116 29.198501 
L 546.099729 29.357731 
L 546.699342 29.540888 
L 547.298956 29.752162 
L 547.898569 29.991945 
L 548.498182 30.256433 
L 549.097795 30.537725 
L 549.697408 30.824459 
L 550.297021 31.102891 
L 550.896634 31.358336 
L 551.496248 31.576757 
L 552.095861 31.746331 
L 552.695474 31.858797 
L 553.295087 31.910419 
L 553.8947 31.902468 
L 554.494313 31.841194 
L 555.093926 31.737291 
L 555.69354 31.604972 
L 556.293153 31.460757 
L 556.892766 31.322143 
L 557.492379 31.206302 
L 558.091992 31.128949 
L 558.691605 31.103485 
L 559.291219 31.140485 
L 559.890832 31.247555 
L 560.490445 31.429545 
L 561.090058 31.689057 
L 561.689671 32.027184 
L 562.289284 32.444358 
L 562.888897 32.941219 
L 563.488511 33.519373 
L 564.088124 34.181948 
L 564.687737 34.933875 
L 565.28735 35.781828 
L 565.886963 36.733823 
L 566.486576 37.798511 
L 567.08619 38.984224 
L 567.685803 40.297893 
L 568.285416 41.743957 
L 568.885029 43.323398 
L 569.484642 45.033016 
L 570.084255 46.865032 
L 570.683868 48.80705 
L 571.283482 50.842386 
L 571.883095 52.950702 
L 572.482708 55.108864 
L 573.082321 57.291931 
L 573.681934 59.474163 
L 574.281547 61.629987 
L 574.881161 63.734851 
L 575.480774 65.765941 
L 576.080387 67.70277 
L 576.68 69.527641 
" style="fill:none;stroke:#2e7fe8;stroke-linecap:square;stroke-width:1.5;"/>
   </g>
   <g id="line2d_32">
    <path clip-path="url(#p1f6435364a)" d="M 517.318298 56.648093 
L 517.917911 53.570984 
L 518.517524 50.600614 
L 519.117137 47.806579 
L 519.71675 45.243461 
L 520.316364 42.947073 
L 520.915977 40.932977 
L 521.51559 39.19734 
L 522.115203 37.719836 
L 522.714816 36.467995 
L 523.314429 35.402252 
L 523.914043 34.480897 
L 524.513656 33.664247 
L 525.113269 32.917596 
L 525.712882 32.212735 
L 526.312495 31.528125 
L 526.912108 30.848009 
L 527.511721 30.160903 
L 528.111335 29.457958 
L 528.710948 28.731655 
L 529.310561 27.975194 
L 529.910174 27.182759 
L 530.509787 26.350652 
L 531.1094 25.479092 
L 531.709014 24.574283 
L 532.308627 23.650253 
L 532.90824 22.729955 
L 533.507853 21.845186 
L 534.107466 21.035073 
L 534.707079 20.343138 
L 535.306692 19.813222 
L 535.906306 19.484784 
L 536.505919 19.388268 
L 537.105532 19.541212 
L 537.705145 19.945711 
L 538.304758 20.587565 
L 538.904371 21.437217 
L 539.503985 22.452232 
L 540.103598 23.580895 
L 540.703211 24.766348 
L 541.302824 25.950671 
L 541.902437 27.078431 
L 542.50205 28.099387 
L 543.101663 28.970231 
L 543.701277 29.655448 
L 544.30089 30.127495 
L 544.900503 30.366567 
L 545.500116 30.360212 
L 546.099729 30.102979 
L 546.699342 29.596204 
L 547.298956 28.847954 
L 547.898569 27.873044 
L 548.498182 26.693058 
L 549.097795 25.336224 
L 549.697408 23.837076 
L 550.297021 22.235799 
L 550.896634 20.577237 
L 551.496248 18.909518 
L 552.095861 17.282339 
L 552.695474 15.744934 
L 553.295087 14.343861 
L 553.8947 13.120728 
L 554.494313 12.110089 
L 555.093926 11.337753 
L 555.69354 10.819718 
L 556.293153 10.561951 
L 556.892766 10.561091 
L 557.492379 10.806035 
L 558.091992 11.280232 
L 558.691605 11.96438 
L 559.291219 12.839146 
L 559.890832 13.887539 
L 560.490445 15.096625 
L 561.090058 16.458389 
L 561.689671 17.969728 
L 562.289284 19.631672 
L 562.888897 21.448036 
L 563.488511 23.423773 
L 564.088124 25.563266 
L 564.687737 27.868734 
L 565.28735 30.338893 
L 565.886963 32.967905 
L 566.486576 35.74464 
L 567.08619 38.652244 
L 567.685803 41.668036 
L 568.285416 44.763758 
L 568.885029 47.90621 
L 569.484642 51.058302 
L 570.084255 54.180475 
L 570.683868 57.232441 
L 571.283482 60.175082 
L 571.883095 62.972353 
L 572.482708 65.592996 
L 573.082321 68.011904 
L 573.681934 70.211032 
L 574.281547 72.179789 
L 574.881161 73.914935 
L 575.480774 75.420039 
L 576.080387 76.704594 
L 576.68 77.782909 
" style="fill:none;stroke:#ff0000;stroke-linecap:square;stroke-width:1.5;"/>
   </g>
   <g id="patch_17">
    <path d="M 517.318298 86.144 
L 576.68 86.144 
" style="fill:none;stroke:#000000;stroke-linecap:square;stroke-linejoin:miter;stroke-width:1.5;"/>
   </g>
   <g id="text_25">
    <text style="font-family:DejaVu Sans;font-size:16px;font-stretch:normal;font-style:normal;font-weight:normal;text-anchor:start;" transform="rotate(-0, 584.100213, 44.172)" x="584.100213" y="44.172">...</text>
   </g>
  </g>
 </g>
 <defs>
  <clipPath id="pe110006bc0">
   <rect height="73.944" width="59.361702" x="18.68" y="7.2"/>
  </clipPath>
  <clipPath id="p004944bc2c">
   <rect height="73.944" width="59.361702" x="89.914043" y="7.2"/>
  </clipPath>
  <clipPath id="p4cacf04432">
   <rect height="73.944" width="59.361702" x="161.148085" y="7.2"/>
  </clipPath>
  <clipPath id="pb8c5034a6d">
   <rect height="73.944" width="59.361702" x="232.382128" y="7.2"/>
  </clipPath>
  <clipPath id="pe15266b5bd">
   <rect height="73.944" width="59.361702" x="303.61617" y="7.2"/>
  </clipPath>
  <clipPath id="p5807b0b6d2">
   <rect height="73.944" width="59.361702" x="374.850213" y="7.2"/>
  </clipPath>
  <clipPath id="p6f33ef3654">
   <rect height="73.944" width="59.361702" x="446.084255" y="7.2"/>
  </clipPath>
  <clipPath id="p1f6435364a">
   <rect height="73.944" width="59.361702" x="517.318298" y="7.2"/>
  </clipPath>
 </defs>
</svg>
