<?xml version="1.0" encoding="utf-8" standalone="no"?>
<!DOCTYPE svg PUBLIC "-//W3C//DTD SVG 1.1//EN"
  "http://www.w3.org/Graphics/SVG/1.1/DTD/svg11.dtd">
<!-- Created with matplotlib (https://matplotlib.org/) -->
<svg height="118.9765pt" version="1.1" viewBox="0 0 603.195213 118.9765" width="603.195213pt" xmlns="http://www.w3.org/2000/svg" xmlns:xlink="http://www.w3.org/1999/xlink">
 <defs>
  <style type="text/css">
*{stroke-linecap:butt;stroke-linejoin:round;}
  </style>
 </defs>
 <g id="figure_1">
  <g id="patch_1">
   <path d="M 0 118.9765 
L 603.195213 118.9765 
L 603.195213 -0 
L 0 -0 
z
" style="fill:none;"/>
  </g>
  <g id="axes_1">
   <g id="patch_2">
    <path d="M 17.24 81.144 
L 76.601702 81.144 
L 76.601702 7.2 
L 17.24 7.2 
z
" style="fill:none;"/>
   </g>
   <g id="matplotlib.axis_1">
    <g id="xtick_1">
     <g id="line2d_1">
      <defs>
       <path d="M 0 0 
L 0 3.5 
" id="m9ed5cdf454" style="stroke:#000000;stroke-width:1.5;"/>
      </defs>
      <g>
       <use style="stroke:#000000;stroke-width:1.5;" x="17.24" xlink:href="#m9ed5cdf454" y="86.144"/>
      </g>
     </g>
     <g id="text_1">
      <!-- $\mathdefault{0.00}$   -->
      <g transform="translate(7.2 98.87025)">
       <text>
        <tspan style="font-family:Arial;font-size:8px;font-style:regular;font-weight:regular;" x="0 4.449219 6.671875 11.121094 15.570312 17.792969" y="-0.25">0.00  </tspan>
       </text>
      </g>
     </g>
    </g>
    <g id="xtick_2">
     <g id="line2d_2">
      <g>
       <use style="stroke:#000000;stroke-width:1.5;" x="76.601702" xlink:href="#m9ed5cdf454" y="86.144"/>
      </g>
     </g>
     <g id="text_2">
      <!-- $\mathdefault{2.50}\;\;\;$   -->
      <g transform="translate(63.801702 98.87025)">
       <text>
        <tspan style="font-family:Arial;font-size:8px;font-style:regular;font-weight:regular;" x="0 4.449219 6.671875 11.121094 21.123742 23.346399" y="-0.25">2.50  </tspan>
       </text>
      </g>
     </g>
    </g>
    <g id="text_3">
     <text style="font-family:Arial;font-size:8px;font-style:normal;font-weight:normal;text-anchor:middle;" transform="rotate(-0, 46.920851, 110.1865)" x="46.920851" y="110.1865">LP-CaT</text>
    </g>
   </g>
   <g id="matplotlib.axis_2">
    <g id="ytick_1"/>
    <g id="ytick_2"/>
   </g>
   <g id="line2d_3">
    <path clip-path="url(#p84773a3aee)" d="M 17.24 49.708611 
L 17.839613 45.479263 
L 18.439226 41.284427 
L 19.038839 37.20672 
L 19.638453 33.324525 
L 20.238066 29.708521 
L 20.837679 26.418934 
L 21.437292 23.503659 
L 22.036905 20.99726 
L 22.636518 18.920771 
L 23.236132 17.282158 
L 23.835745 16.07727 
L 24.435358 15.291106 
L 25.034971 14.89928 
L 25.634584 14.869586 
L 26.234197 15.163621 
L 26.83381 15.738438 
L 27.433424 16.54823 
L 28.033037 17.546024 
L 28.63265 18.68534 
L 29.232263 19.921768 
L 29.831876 21.214389 
L 30.431489 22.52696 
L 31.031103 23.828806 
L 31.630716 25.09538 
L 32.230329 26.308483 
L 32.829942 27.456168 
L 33.429555 28.532358 
L 34.029168 29.536257 
L 34.628781 30.471599 
L 35.228395 31.345784 
L 35.828008 32.168955 
L 36.427621 32.953031 
L 37.027234 33.710735 
L 37.626847 34.454624 
L 38.22646 35.196154 
L 38.826074 35.944818 
L 39.425687 36.707395 
L 40.0253 37.487375 
L 40.624913 38.284603 
L 41.224526 39.095203 
L 41.824139 39.911808 
L 42.423752 40.724123 
L 43.023366 41.519779 
L 43.622979 42.285447 
L 44.222592 43.008104 
L 44.822205 43.67635 
L 45.421818 44.281623 
L 46.021431 44.819185 
L 46.621044 45.288757 
L 47.220658 45.694706 
L 47.820271 46.045763 
L 48.419884 46.354277 
L 49.019497 46.635096 
L 49.61911 46.904215 
L 50.218723 47.177337 
L 50.818337 47.468529 
L 51.41795 47.789125 
L 52.017563 48.14699 
L 52.617176 48.546182 
L 53.216789 48.987031 
L 53.816402 49.466543 
L 54.416015 49.979044 
L 55.015629 50.516932 
L 55.615242 51.071419 
L 56.214855 51.633166 
L 56.814468 52.192764 
L 57.414081 52.741028 
L 58.013694 53.269143 
L 58.613308 53.768698 
L 59.212921 54.231688 
L 59.812534 54.650524 
L 60.412147 55.018129 
L 61.01176 55.328137 
L 61.611373 55.575208 
L 62.210986 55.755452 
L 62.8106 55.866927 
L 63.410213 55.910167 
L 64.009826 55.888685 
L 64.609439 55.809391 
L 65.209052 55.682864 
L 65.808665 55.523428 
L 66.408279 55.349001 
L 67.007892 55.180691 
L 67.607505 55.04214 
L 68.207118 54.958657 
L 68.806731 54.956159 
L 69.406344 55.060008 
L 70.005957 55.293784 
L 70.605571 55.678077 
L 71.205184 56.229352 
L 71.804797 56.958955 
L 72.40441 57.8723 
L 73.004023 58.968291 
L 73.603636 60.239022 
L 74.20325 61.669791 
L 74.802863 63.239471 
L 75.402476 64.92124 
L 76.002089 66.683671 
L 76.601702 68.492148 
" style="fill:none;stroke:#2e7fe8;stroke-linecap:square;stroke-width:1.5;"/>
   </g>
   <g id="line2d_4">
    <path clip-path="url(#p84773a3aee)" d="M 17.24 53.468797 
L 17.839613 49.254367 
L 18.439226 45.071546 
L 19.038839 41.006908 
L 19.638453 37.136656 
L 20.238066 33.522439 
L 20.837679 30.208811 
L 21.437292 27.222371 
L 22.036905 24.572416 
L 22.636518 22.25282 
L 23.236132 20.244794 
L 23.835745 18.5202 
L 24.435358 17.045161 
L 25.034971 15.783728 
L 25.634584 14.701384 
L 26.234197 13.768171 
L 26.83381 12.96119 
L 27.433424 12.266221 
L 28.033037 11.678292 
L 28.63265 11.201109 
L 29.232263 10.845401 
L 29.831876 10.626441 
L 30.431489 10.561091 
L 31.031103 10.664822 
L 31.630716 10.949144 
L 32.230329 11.419773 
L 32.829942 12.075739 
L 33.429555 12.909425 
L 34.029168 13.90739 
L 34.628781 15.051714 
L 35.228395 16.321529 
L 35.828008 17.694466 
L 36.427621 19.147768 
L 37.027234 20.658978 
L 37.626847 22.206208 
L 38.22646 23.768097 
L 38.826074 25.323665 
L 39.425687 26.85225 
L 40.0253 28.333755 
L 40.624913 29.749272 
L 41.224526 31.082118 
L 41.824139 32.319151 
L 42.423752 33.452136 
L 43.023366 34.478879 
L 43.622979 35.40385 
L 44.222592 36.238084 
L 44.822205 36.998294 
L 45.421818 37.705264 
L 46.021431 38.381764 
L 46.621044 39.050293 
L 47.220658 39.731007 
L 47.820271 40.440108 
L 48.419884 41.188854 
L 49.019497 41.983238 
L 49.61911 42.824204 
L 50.218723 43.708251 
L 50.818337 44.628209 
L 51.41795 45.574045 
L 52.017563 46.533636 
L 52.617176 47.493507 
L 53.216789 48.439628 
L 53.816402 49.358317 
L 54.416015 50.237306 
L 55.015629 51.066917 
L 55.615242 51.841208 
L 56.214855 52.558898 
L 56.814468 53.223845 
L 57.414081 53.844899 
L 58.013694 54.435027 
L 58.613308 55.009765 
L 59.212921 55.585151 
L 59.812534 56.175445 
L 60.412147 56.791001 
L 61.01176 57.436643 
L 61.611373 58.110871 
L 62.210986 58.806068 
L 62.8106 59.509729 
L 63.410213 60.206569 
L 64.009826 60.881173 
L 64.609439 61.520791 
L 65.209052 62.117791 
L 65.808665 62.67137 
L 66.408279 63.188209 
L 67.007892 63.681946 
L 67.607505 64.171565 
L 68.207118 64.678976 
L 68.806731 65.22619 
L 69.406344 65.832602 
L 70.005957 66.512781 
L 70.605571 67.275116 
L 71.205184 68.121417 
L 71.804797 69.047406 
L 72.40441 70.043862 
L 73.004023 71.098083 
L 73.603636 72.195326 
L 74.20325 73.319976 
L 74.802863 74.456309 
L 75.402476 75.588874 
L 76.002089 76.702615 
L 76.601702 77.782909 
" style="fill:none;stroke:#ff0000;stroke-linecap:square;stroke-width:1.5;"/>
   </g>
   <g id="patch_3">
    <path d="M 17.24 86.144 
L 76.601702 86.144 
" style="fill:none;stroke:#000000;stroke-linecap:square;stroke-linejoin:miter;stroke-width:1.5;"/>
   </g>
  </g>
  <g id="axes_2">
   <g id="patch_4">
    <path d="M 88.474043 81.144 
L 147.835745 81.144 
L 147.835745 7.2 
L 88.474043 7.2 
z
" style="fill:none;"/>
   </g>
   <g id="matplotlib.axis_3">
    <g id="xtick_3">
     <g id="line2d_5">
      <g>
       <use style="stroke:#000000;stroke-width:1.5;" x="88.474043" xlink:href="#m9ed5cdf454" y="86.144"/>
      </g>
     </g>
     <g id="text_4">
      <!-- $\mathdefault{0.0}$   -->
      <g transform="translate(80.674043 98.87025)">
       <text>
        <tspan style="font-family:Arial;font-size:8px;font-style:regular;font-weight:regular;" x="0 4.449219 6.671875 11.121094 13.34375" y="-0.25">0.0  </tspan>
       </text>
      </g>
     </g>
    </g>
    <g id="xtick_4">
     <g id="line2d_6">
      <g>
       <use style="stroke:#000000;stroke-width:1.5;" x="147.835745" xlink:href="#m9ed5cdf454" y="86.144"/>
      </g>
     </g>
     <g id="text_5">
      <!-- $\mathdefault{125.0}\;\;\;$   -->
      <g transform="translate(132.795745 98.87025)">
       <text>
        <tspan style="font-family:Arial;font-size:8px;font-style:regular;font-weight:regular;" x="0 4.449219 8.898438 13.347656 15.570312 25.572961 27.795617" y="-0.25">125.0  </tspan>
       </text>
      </g>
     </g>
    </g>
    <g id="text_6">
     <text style="font-family:Arial;font-size:8px;font-style:normal;font-weight:normal;text-anchor:middle;" transform="rotate(-0, 118.154894, 110.1865)" x="118.154894" y="110.1865">LP-Kd</text>
    </g>
   </g>
   <g id="matplotlib.axis_4">
    <g id="ytick_3"/>
    <g id="ytick_4"/>
    <g id="ytick_5"/>
   </g>
   <g id="line2d_7">
    <path clip-path="url(#p120ca91a97)" d="M 88.474043 77.693675 
L 89.073656 77.631266 
L 89.673269 77.544686 
L 90.272882 77.42724 
L 90.872495 77.271447 
L 91.472108 77.069373 
L 92.071721 76.813115 
L 92.671335 76.495421 
L 93.270948 76.110383 
L 93.870561 75.654093 
L 94.470174 75.125123 
L 95.069787 74.524696 
L 95.6694 73.856436 
L 96.269014 73.125648 
L 96.868627 72.338176 
L 97.46824 71.498972 
L 98.067853 70.610595 
L 98.667466 69.671892 
L 99.267079 68.677108 
L 99.866692 67.61562 
L 100.466306 66.472395 
L 101.065919 65.229167 
L 101.665532 63.866213 
L 102.265145 62.364538 
L 102.864758 60.708236 
L 103.464371 58.886793 
L 104.063985 56.897141 
L 104.663598 54.745304 
L 105.263211 52.447559 
L 105.862824 50.030966 
L 106.462437 47.533168 
L 107.06205 45.001275 
L 107.661663 42.489636 
L 108.261277 40.056417 
L 108.86089 37.75905 
L 109.460503 35.648896 
L 110.060116 33.765803 
L 110.659729 32.133424 
L 111.259342 30.756289 
L 111.858956 29.619402 
L 112.458569 28.690811 
L 113.058182 27.926993 
L 113.657795 27.280336 
L 114.257408 26.707493 
L 114.857021 26.177114 
L 115.456634 25.675459 
L 116.056248 25.208762 
L 116.655861 24.801738 
L 117.255474 24.492388 
L 117.855087 24.323993 
L 118.4547 24.335748 
L 119.054313 24.553849 
L 119.653926 24.984752 
L 120.25354 25.611938 
L 120.853153 26.396739 
L 121.452766 27.282965 
L 122.052379 28.204241 
L 122.651992 29.092451 
L 123.251605 29.885586 
L 123.851219 30.533574 
L 124.450832 31.001329 
L 125.050445 31.268992 
L 125.650058 31.33004 
L 126.249671 31.188338 
L 126.849284 30.855249 
L 127.448897 30.347667 
L 128.048511 29.687308 
L 128.648124 28.901079 
L 129.247737 28.021902 
L 129.84735 27.089191 
L 130.446963 26.148238 
L 131.046576 25.248099 
L 131.64619 24.437953 
L 132.245803 23.762384 
L 132.845416 23.256313 
L 133.445029 22.940483 
L 134.044642 22.818322 
L 134.644255 22.874801 
L 135.243868 23.077556 
L 135.843482 23.380216 
L 136.443095 23.727543 
L 137.042708 24.061768 
L 137.642321 24.329431 
L 138.241934 24.487974 
L 138.841547 24.511467 
L 139.441161 24.394961 
L 140.040774 24.157128 
L 140.640387 23.840989 
L 141.24 23.512655 
L 141.839613 23.258057 
L 142.439226 23.177708 
L 143.038839 23.379573 
L 143.638453 23.97025 
L 144.238066 25.044905 
L 144.837679 26.676694 
L 145.437292 28.90681 
L 146.036905 31.736575 
L 146.636518 35.123057 
L 147.236132 38.979458 
L 147.835745 43.180853 
" style="fill:none;stroke:#2e7fe8;stroke-linecap:square;stroke-width:1.5;"/>
   </g>
   <g id="line2d_8">
    <path clip-path="url(#p120ca91a97)" d="M 88.474043 77.782909 
L 89.073656 77.759603 
L 89.673269 77.725496 
L 90.272882 77.67684 
L 90.872495 77.609008 
L 91.472108 77.516366 
L 92.071721 77.392117 
L 92.671335 77.22817 
L 93.270948 77.015065 
L 93.870561 76.742094 
L 94.470174 76.397712 
L 95.069787 75.970389 
L 95.6694 75.449939 
L 96.269014 74.829262 
L 96.868627 74.106256 
L 97.46824 73.285482 
L 98.067853 72.379069 
L 98.667466 71.406351 
L 99.267079 70.391947 
L 99.866692 69.362329 
L 100.466306 68.341358 
L 101.065919 67.345655 
L 101.665532 66.380877 
L 102.265145 65.439883 
L 102.864758 64.503423 
L 103.464371 63.543395 
L 104.063985 62.528114 
L 104.663598 61.428556 
L 105.263211 60.224319 
L 105.862824 58.90813 
L 106.462437 57.488072 
L 107.06205 55.987166 
L 107.661663 54.440439 
L 108.261277 52.890019 
L 108.86089 51.379087 
L 109.460503 49.945663 
L 110.060116 48.617236 
L 110.659729 47.407107 
L 111.259342 46.312994 
L 111.858956 45.318066 
L 112.458569 44.394042 
L 113.058182 43.505592 
L 113.657795 42.615059 
L 114.257408 41.686534 
L 114.857021 40.688695 
L 115.456634 39.596256 
L 116.056248 38.390368 
L 116.655861 37.058642 
L 117.255474 35.595446 
L 117.855087 34.002907 
L 118.4547 32.292623 
L 119.054313 30.487605 
L 119.653926 28.623677 
L 120.25354 26.749472 
L 120.853153 24.924372 
L 121.452766 23.21413 
L 122.052379 21.684474 
L 122.651992 20.393496 
L 123.251605 19.384 
L 123.851219 18.677125 
L 124.450832 18.268489 
L 125.050445 18.127732 
L 125.650058 18.201827 
L 126.249671 18.421907 
L 126.849284 18.712662 
L 127.448897 19.002805 
L 128.048511 19.234739 
L 128.648124 19.371542 
L 129.247737 19.399821 
L 129.84735 19.327797 
L 130.446963 19.179045 
L 131.046576 18.983381 
L 131.64619 18.767088 
L 132.245803 18.544851 
L 132.845416 18.315335 
L 133.445029 18.061378 
L 134.044642 17.754591 
L 134.644255 17.363059 
L 135.243868 16.860141 
L 135.843482 16.232251 
L 136.443095 15.483924 
L 137.042708 14.639327 
L 137.642321 13.74037 
L 138.241934 12.842398 
L 138.841547 12.008908 
L 139.441161 11.306705 
L 140.040774 10.802474 
L 140.640387 10.561091 
L 141.24 10.645294 
L 141.839613 11.115906 
L 142.439226 12.031573 
L 143.038839 13.447091 
L 143.638453 15.409744 
L 144.238066 17.953544 
L 144.837679 21.091868 
L 145.437292 24.809647 
L 146.036905 29.056738 
L 146.636518 33.744426 
L 147.236132 38.746748 
L 147.835745 43.907598 
" style="fill:none;stroke:#ff0000;stroke-linecap:square;stroke-width:1.5;"/>
   </g>
   <g id="patch_5">
    <path d="M 88.474043 86.144 
L 147.835745 86.144 
" style="fill:none;stroke:#000000;stroke-linecap:square;stroke-linejoin:miter;stroke-width:1.5;"/>
   </g>
  </g>
  <g id="axes_3">
   <g id="patch_6">
    <path d="M 159.708085 81.144 
L 219.069787 81.144 
L 219.069787 7.2 
L 159.708085 7.2 
z
" style="fill:none;"/>
   </g>
   <g id="matplotlib.axis_5">
    <g id="xtick_5">
     <g id="line2d_9">
      <g>
       <use style="stroke:#000000;stroke-width:1.5;" x="159.708085" xlink:href="#m9ed5cdf454" y="86.144"/>
      </g>
     </g>
     <g id="text_7">
      <!-- $\mathdefault{0.00}$   -->
      <g transform="translate(149.668085 98.87025)">
       <text>
        <tspan style="font-family:Arial;font-size:8px;font-style:regular;font-weight:regular;" x="0 4.449219 6.671875 11.121094 15.570312 17.792969" y="-0.25">0.00  </tspan>
       </text>
      </g>
     </g>
    </g>
    <g id="xtick_6">
     <g id="line2d_10">
      <g>
       <use style="stroke:#000000;stroke-width:1.5;" x="219.069787" xlink:href="#m9ed5cdf454" y="86.144"/>
      </g>
     </g>
     <g id="text_8">
      <!-- $\mathdefault{0.06}\;\;\;$   -->
      <g transform="translate(206.269787 98.87025)">
       <text>
        <tspan style="font-family:Arial;font-size:8px;font-style:regular;font-weight:regular;" x="0 4.449219 6.671875 11.121094 21.123742 23.346399" y="-0.25">0.06  </tspan>
       </text>
      </g>
     </g>
    </g>
    <g id="text_9">
     <text style="font-family:Arial;font-size:8px;font-style:normal;font-weight:normal;text-anchor:middle;" transform="rotate(-0, 189.388936, 110.1865)" x="189.388936" y="110.1865">LP-H</text>
    </g>
   </g>
   <g id="matplotlib.axis_6">
    <g id="ytick_6"/>
    <g id="ytick_7"/>
    <g id="ytick_8"/>
   </g>
   <g id="line2d_11">
    <path clip-path="url(#pef1262eff6)" d="M 159.708085 77.782909 
L 160.307698 74.542279 
L 160.907311 71.373215 
L 161.506925 68.322903 
L 162.106538 65.429349 
L 162.706151 62.719898 
L 163.305764 60.210881 
L 163.905377 57.908348 
L 164.50499 55.809681 
L 165.104603 53.90578 
L 165.704217 52.183462 
L 166.30383 50.627698 
L 166.903443 49.223419 
L 167.503056 47.956694 
L 168.102669 46.81526 
L 168.702282 45.788457 
L 169.301896 44.866781 
L 169.901509 44.041268 
L 170.501122 43.302933 
L 171.100735 42.642476 
L 171.700348 42.050324 
L 172.299961 41.517028 
L 172.899574 41.033935 
L 173.499188 40.593966 
L 174.098801 40.192328 
L 174.698414 39.826972 
L 175.298027 39.49866 
L 175.89764 39.210571 
L 176.497253 38.967442 
L 177.096867 38.774344 
L 177.69648 38.63523 
L 178.296093 38.551457 
L 178.895706 38.520484 
L 179.495319 38.534951 
L 180.094932 38.582272 
L 180.694545 38.644851 
L 181.294159 38.70091 
L 181.893772 38.725874 
L 182.493385 38.694146 
L 183.092998 38.581097 
L 183.692611 38.365018 
L 184.292224 38.028822 
L 184.891838 37.5613 
L 185.491451 36.95781 
L 186.091064 36.220343 
L 186.690677 35.357014 
L 187.29029 34.381079 
L 187.889903 33.309659 
L 188.489516 32.162351 
L 189.08913 30.959914 
L 189.688743 29.723175 
L 190.288356 28.472241 
L 190.887969 27.226044 
L 191.487582 26.002183 
L 192.087195 24.816976 
L 192.686809 23.685628 
L 193.286422 22.622396 
L 193.886035 21.640669 
L 194.485648 20.752896 
L 195.085261 19.970338 
L 195.684874 19.302645 
L 196.284487 18.757297 
L 196.884101 18.338951 
L 197.483714 18.048756 
L 198.083327 17.883715 
L 198.68294 17.83616 
L 199.282553 17.893405 
L 199.882166 18.037657 
L 200.481779 18.246232 
L 201.081393 18.492134 
L 201.681006 18.745009 
L 202.280619 18.972466 
L 202.880232 19.141749 
L 203.479845 19.221645 
L 204.079458 19.184546 
L 204.679072 19.008503 
L 205.278685 18.679126 
L 205.878298 18.191149 
L 206.477911 17.549551 
L 207.077524 16.770108 
L 207.677137 15.879356 
L 208.27675 14.913989 
L 208.876364 13.91977 
L 209.475977 12.950109 
L 210.07559 12.06444 
L 210.675203 11.326546 
L 211.274816 10.80291 
L 211.874429 10.561091 
L 212.474043 10.668064 
L 213.073656 11.188383 
L 213.673269 12.182011 
L 214.272882 13.701697 
L 214.872495 15.789875 
L 215.472108 18.475196 
L 216.071721 21.768977 
L 216.671335 25.661961 
L 217.270948 30.121915 
L 217.870561 35.092553 
L 218.470174 40.494193 
L 219.069787 46.22637 
" style="fill:none;stroke:#2e7fe8;stroke-linecap:square;stroke-width:1.5;"/>
   </g>
   <g id="line2d_12">
    <path clip-path="url(#pef1262eff6)" d="M 159.708085 77.204373 
L 160.307698 73.657154 
L 160.907311 70.174473 
L 161.506925 66.822026 
L 162.106538 63.65708 
L 162.706151 60.725152 
L 163.305764 58.0578 
L 163.905377 55.671709 
L 164.50499 53.569092 
L 165.104603 51.739264 
L 165.704217 50.161129 
L 166.30383 48.806203 
L 166.903443 47.641818 
L 167.503056 46.634129 
L 168.102669 45.750666 
L 168.702282 44.962267 
L 169.301896 44.244323 
L 169.901509 43.57738 
L 170.501122 42.947205 
L 171.100735 42.344461 
L 171.700348 41.764126 
L 172.299961 41.204763 
L 172.899574 40.667738 
L 173.499188 40.156396 
L 174.098801 39.67521 
L 174.698414 39.228892 
L 175.298027 38.821466 
L 175.89764 38.455308 
L 176.497253 38.130214 
L 177.096867 37.842576 
L 177.69648 37.58477 
L 178.296093 37.344886 
L 178.895706 37.106892 
L 179.495319 36.851325 
L 180.094932 36.55651 
L 180.694545 36.20025 
L 181.294159 35.761865 
L 181.893772 35.224369 
L 182.493385 34.576537 
L 183.092998 33.814597 
L 183.692611 32.943316 
L 184.292224 31.976291 
L 184.891838 30.935382 
L 185.491451 29.849292 
L 186.091064 28.75147 
L 186.690677 27.67753 
L 187.29029 26.662512 
L 187.889903 25.738272 
L 188.489516 24.931279 
L 189.08913 24.261029 
L 189.688743 23.739185 
L 190.288356 23.369466 
L 190.887969 23.148197 
L 191.487582 23.065373 
L 192.087195 23.106067 
L 192.686809 23.251964 
L 193.286422 23.482879 
L 193.886035 23.778099 
L 194.485648 24.117492 
L 195.085261 24.482319 
L 195.684874 24.855769 
L 196.284487 25.223225 
L 196.884101 25.572309 
L 197.483714 25.892735 
L 198.083327 26.176021 
L 198.68294 26.415101 
L 199.282553 26.603863 
L 199.882166 26.73669 
L 200.481779 26.808011 
L 201.081393 26.811953 
L 201.681006 26.742105 
L 202.280619 26.591445 
L 202.880232 26.352449 
L 203.479845 26.01737 
L 204.079458 25.578696 
L 204.679072 25.029731 
L 205.278685 24.365308 
L 205.878298 23.582586 
L 206.477911 22.681943 
L 207.077524 21.667963 
L 207.677137 20.550527 
L 208.27675 19.346014 
L 208.876364 18.078565 
L 209.475977 16.781355 
L 210.07559 15.497705 
L 210.675203 14.28185 
L 211.274816 13.199095 
L 211.874429 12.325084 
L 212.474043 11.743942 
L 213.073656 11.545127 
L 213.673269 11.818963 
L 214.272882 12.651023 
L 214.872495 14.115721 
L 215.472108 16.269658 
L 216.071721 19.145405 
L 216.671335 22.746469 
L 217.270948 27.044118 
L 217.870561 31.976609 
L 218.470174 37.451084 
L 219.069787 43.348123 
" style="fill:none;stroke:#ff0000;stroke-linecap:square;stroke-width:1.5;"/>
   </g>
   <g id="patch_7">
    <path d="M 159.708085 86.144 
L 219.069787 86.144 
" style="fill:none;stroke:#000000;stroke-linecap:square;stroke-linejoin:miter;stroke-width:1.5;"/>
   </g>
  </g>
  <g id="axes_4">
   <g id="patch_8">
    <path d="M 230.942128 81.144 
L 290.30383 81.144 
L 290.30383 7.2 
L 230.942128 7.2 
z
" style="fill:none;"/>
   </g>
   <g id="matplotlib.axis_7">
    <g id="xtick_7">
     <g id="line2d_13">
      <g>
       <use style="stroke:#000000;stroke-width:1.5;" x="230.942128" xlink:href="#m9ed5cdf454" y="86.144"/>
      </g>
     </g>
     <g id="text_10">
      <!-- $\mathdefault{0.00}$   -->
      <g transform="translate(220.902128 98.87025)">
       <text>
        <tspan style="font-family:Arial;font-size:8px;font-style:regular;font-weight:regular;" x="0 4.449219 6.671875 11.121094 15.570312 17.792969" y="-0.25">0.00  </tspan>
       </text>
      </g>
     </g>
    </g>
    <g id="xtick_8">
     <g id="line2d_14">
      <g>
       <use style="stroke:#000000;stroke-width:1.5;" x="290.30383" xlink:href="#m9ed5cdf454" y="86.144"/>
      </g>
     </g>
     <g id="text_11">
      <!-- $\mathdefault{5.00}\;\;\;$   -->
      <g transform="translate(277.50383 98.87025)">
       <text>
        <tspan style="font-family:Arial;font-size:8px;font-style:regular;font-weight:regular;" x="0 4.449219 6.671875 11.121094 21.123742 23.346399" y="-0.25">5.00  </tspan>
       </text>
      </g>
     </g>
    </g>
    <g id="text_12">
     <text style="font-family:Arial;font-size:8px;font-style:normal;font-weight:normal;text-anchor:middle;" transform="rotate(-0, 260.622979, 110.1865)" x="260.622979" y="110.1865">PY-KCa</text>
    </g>
   </g>
   <g id="matplotlib.axis_8">
    <g id="ytick_9"/>
    <g id="ytick_10"/>
    <g id="ytick_11"/>
   </g>
   <g id="line2d_15">
    <path clip-path="url(#pee5e4d2352)" d="M 230.942128 46.140605 
L 231.541741 41.396371 
L 232.141354 36.78921 
L 232.740967 32.458419 
L 233.34058 28.513325 
L 233.940193 25.024795 
L 234.539807 22.023067 
L 235.13942 19.501734 
L 235.739033 17.426341 
L 236.338646 15.745238 
L 236.938259 14.400186 
L 237.537872 13.33469 
L 238.137485 12.499066 
L 238.737099 11.852335 
L 239.336712 11.361929 
L 239.936325 11.002603 
L 240.535938 10.755752 
L 241.135551 10.609743 
L 241.735164 10.561091 
L 242.334778 10.615676 
L 242.934391 10.78895 
L 243.534004 11.104279 
L 244.133617 11.589171 
L 244.73323 12.269856 
L 245.332843 13.165328 
L 245.932456 14.282224 
L 246.53207 15.611784 
L 247.131683 17.12964 
L 247.731296 18.798414 
L 248.330909 20.572475 
L 248.930522 22.403684 
L 249.530135 24.246894 
L 250.129749 26.064166 
L 250.729362 27.827153 
L 251.328975 29.517644 
L 251.928588 31.126674 
L 252.528201 32.65284 
L 253.127814 34.100433 
L 253.727427 35.477774 
L 254.327041 36.795874 
L 254.926654 38.067307 
L 255.526267 39.305092 
L 256.12588 40.521427 
L 256.725493 41.726288 
L 257.325106 42.926047 
L 257.92472 44.122394 
L 258.524333 45.311808 
L 259.123946 46.485766 
L 259.723559 47.631666 
L 260.323172 48.734315 
L 260.922785 49.777733 
L 261.522398 50.746981 
L 262.122012 51.629761 
L 262.721625 52.417626 
L 263.321238 53.106686 
L 263.920851 53.697818 
L 264.520464 54.196422 
L 265.120077 54.611834 
L 265.719691 54.956555 
L 266.319304 55.245459 
L 266.918917 55.49512 
L 267.51853 55.723317 
L 268.118143 55.948701 
L 268.717756 56.190469 
L 269.317369 56.467906 
L 269.916983 56.799611 
L 270.516596 57.202394 
L 271.116209 57.689931 
L 271.715822 58.271418 
L 272.315435 58.950505 
L 272.915048 59.72476 
L 273.514662 60.585787 
L 274.114275 61.519941 
L 274.713888 62.509497 
L 275.313501 63.534032 
L 275.913114 64.571837 
L 276.512727 65.601257 
L 277.11234 66.601926 
L 277.711954 67.555885 
L 278.311567 68.44858 
L 278.91118 69.269614 
L 279.510793 70.01315 
L 280.110406 70.677819 
L 280.710019 71.266115 
L 281.309632 71.783379 
L 281.909246 72.236613 
L 282.508859 72.633423 
L 283.108472 72.981339 
L 283.708085 73.287642 
L 284.307698 73.559617 
L 284.907311 73.805001 
L 285.506925 74.032325 
L 286.106538 74.250866 
L 286.706151 74.470086 
L 287.305764 74.698622 
L 287.905377 74.943057 
L 288.50499 75.206803 
L 289.104603 75.489431 
L 289.704217 75.78663 
L 290.30383 76.090863 
" style="fill:none;stroke:#2e7fe8;stroke-linecap:square;stroke-width:1.5;"/>
   </g>
   <g id="line2d_16">
    <path clip-path="url(#pee5e4d2352)" d="M 230.942128 46.815667 
L 231.541741 42.139318 
L 232.141354 37.802878 
L 232.740967 33.954981 
L 233.34058 30.673214 
L 233.940193 27.959894 
L 234.539807 25.753285 
L 235.13942 23.950383 
L 235.739033 22.434527 
L 236.338646 21.100498 
L 236.938259 19.871498 
L 237.537872 18.705502 
L 238.137485 17.59197 
L 238.737099 16.542346 
L 239.336712 15.578761 
L 239.936325 14.724648 
L 240.535938 13.999275 
L 241.135551 13.416203 
L 241.735164 12.984205 
L 242.334778 12.708629 
L 242.934391 12.591637 
L 243.534004 12.630766 
L 244.133617 12.816486 
L 244.73323 13.130224 
L 245.332843 13.544478 
L 245.932456 14.026037 
L 246.53207 14.542255 
L 247.131683 15.069046 
L 247.731296 15.598388 
L 248.330909 16.142853 
L 248.930522 16.73526 
L 249.530135 17.422817 
L 250.129749 18.256728 
L 250.729362 19.279647 
L 251.328975 20.514137 
L 251.928588 21.955129 
L 252.528201 23.568353 
L 253.127814 25.295098 
L 253.727427 27.062087 
L 254.327041 28.79401 
L 254.926654 30.425847 
L 255.526267 31.912425 
L 256.12588 33.233553 
L 256.725493 34.394241 
L 257.325106 35.420585 
L 257.92472 36.352736 
L 258.524333 37.236712 
L 259.123946 38.116812 
L 259.723559 39.02994 
L 260.323172 40.002536 
L 260.922785 41.05007 
L 261.522398 42.178476 
L 262.122012 43.386572 
L 262.721625 44.668497 
L 263.321238 46.015481 
L 263.920851 47.416641 
L 264.520464 48.858965 
L 265.120077 50.326915 
L 265.719691 51.80223 
L 266.319304 53.264434 
L 266.918917 54.692326 
L 267.51853 56.066366 
L 268.118143 57.371535 
L 268.717756 58.59993 
L 269.317369 59.752305 
L 269.916983 60.837906 
L 270.516596 61.872387 
L 271.116209 62.874107 
L 271.715822 63.859637 
L 272.315435 64.839581 
L 272.915048 65.815819 
L 273.514662 66.78092 
L 274.114275 67.71991 
L 274.713888 68.613922 
L 275.313501 69.444795 
L 275.913114 70.19939 
L 276.512727 70.872558 
L 277.11234 71.468047 
L 277.711954 71.997259 
L 278.311567 72.476325 
L 278.91118 72.922408 
L 279.510793 73.350235 
L 280.110406 73.769696 
L 280.710019 74.184917 
L 281.309632 74.594765 
L 281.909246 74.994338 
L 282.508859 75.376858 
L 283.108472 75.735425 
L 283.708085 76.064307 
L 284.307698 76.359663 
L 284.907311 76.619783 
L 285.506925 76.844996 
L 286.106538 77.037374 
L 286.706151 77.200301 
L 287.305764 77.337957 
L 287.905377 77.454747 
L 288.50499 77.554763 
L 289.104603 77.641357 
L 289.704217 77.716925 
L 290.30383 77.782909 
" style="fill:none;stroke:#ff0000;stroke-linecap:square;stroke-width:1.5;"/>
   </g>
   <g id="patch_9">
    <path d="M 230.942128 86.144 
L 290.30383 86.144 
" style="fill:none;stroke:#000000;stroke-linecap:square;stroke-linejoin:miter;stroke-width:1.5;"/>
   </g>
  </g>
  <g id="axes_5">
   <g id="patch_10">
    <path d="M 302.17617 81.144 
L 361.537872 81.144 
L 361.537872 7.2 
L 302.17617 7.2 
z
" style="fill:none;"/>
   </g>
   <g id="matplotlib.axis_9">
    <g id="xtick_9">
     <g id="line2d_17">
      <g>
       <use style="stroke:#000000;stroke-width:1.5;" x="302.17617" xlink:href="#m9ed5cdf454" y="86.144"/>
      </g>
     </g>
     <g id="text_13">
      <!-- $\mathdefault{50.0}$   -->
      <g transform="translate(292.13617 98.87025)">
       <text>
        <tspan style="font-family:Arial;font-size:8px;font-style:regular;font-weight:regular;" x="0 4.449219 8.898438 11.121094 15.570312 17.792969" y="-0.25">50.0  </tspan>
       </text>
      </g>
     </g>
    </g>
    <g id="xtick_10">
     <g id="line2d_18">
      <g>
       <use style="stroke:#000000;stroke-width:1.5;" x="361.537872" xlink:href="#m9ed5cdf454" y="86.144"/>
      </g>
     </g>
     <g id="text_14">
      <!-- $\mathdefault{150.0}\;\;\;$   -->
      <g transform="translate(346.497872 98.87025)">
       <text>
        <tspan style="font-family:Arial;font-size:8px;font-style:regular;font-weight:regular;" x="0 4.449219 8.898438 13.347656 15.570312 25.572961 27.795617" y="-0.25">150.0  </tspan>
       </text>
      </g>
     </g>
    </g>
    <g id="text_15">
     <text style="font-family:Arial;font-size:8px;font-style:normal;font-weight:normal;text-anchor:middle;" transform="rotate(-0, 331.857021, 110.1865)" x="331.857021" y="110.1865">PY-Kd</text>
    </g>
   </g>
   <g id="matplotlib.axis_10">
    <g id="ytick_12"/>
    <g id="ytick_13"/>
    <g id="ytick_14"/>
    <g id="ytick_15"/>
   </g>
   <g id="line2d_19">
    <path clip-path="url(#pcde1ae4c89)" d="M 302.17617 77.782909 
L 302.775783 76.288075 
L 303.375397 74.595445 
L 303.97501 72.711167 
L 304.574623 70.649153 
L 305.174236 68.431462 
L 305.773849 66.087962 
L 306.373462 63.655073 
L 306.973075 61.173427 
L 307.572689 58.684508 
L 308.172302 56.226535 
L 308.771915 53.830117 
L 309.371528 51.514342 
L 309.971141 49.284076 
L 310.570754 47.129105 
L 311.170368 45.025506 
L 311.769981 42.939274 
L 312.369594 40.831798 
L 312.969207 38.666419 
L 313.56882 36.415083 
L 314.168433 34.064032 
L 314.768046 31.617624 
L 315.36766 29.099656 
L 315.967273 26.551989 
L 316.566886 24.030639 
L 317.166499 21.599922 
L 317.766112 19.325462 
L 318.365725 17.267041 
L 318.965338 15.472229 
L 319.564952 13.971635 
L 320.164565 12.776321 
L 320.764178 11.877662 
L 321.363791 11.249557 
L 321.963404 10.852588 
L 322.563017 10.639489 
L 323.162631 10.561091 
L 323.762244 10.571941 
L 324.361857 10.634854 
L 324.96147 10.723868 
L 325.561083 10.825359 
L 326.160696 10.937349 
L 326.760309 11.067288 
L 327.359923 11.228802 
L 327.959536 11.437954 
L 328.559149 11.709614 
L 329.158762 12.054408 
L 329.758375 12.47662 
L 330.357988 12.973207 
L 330.957602 13.533958 
L 331.557215 14.142618 
L 332.156828 14.778707 
L 332.756441 15.419691 
L 333.356054 16.043148 
L 333.955667 16.628643 
L 334.55528 17.159113 
L 335.154894 17.621698 
L 335.754507 18.008059 
L 336.35412 18.314309 
L 336.953733 18.540715 
L 337.553346 18.691309 
L 338.152959 18.773504 
L 338.752573 18.797725 
L 339.352186 18.77705 
L 339.951799 18.726778 
L 340.551412 18.663882 
L 341.151025 18.606311 
L 341.750638 18.572179 
L 342.350251 18.578902 
L 342.949865 18.642377 
L 343.549478 18.776328 
L 344.149091 18.991892 
L 344.748704 19.29751 
L 345.348317 19.699099 
L 345.94793 20.200471 
L 346.547544 20.803882 
L 347.147157 21.510608 
L 347.74677 22.321416 
L 348.346383 23.236861 
L 348.945996 24.257322 
L 349.545609 25.382806 
L 350.145222 26.612551 
L 350.744836 27.944519 
L 351.344449 29.374912 
L 351.944062 30.897846 
L 352.543675 32.505352 
L 353.143288 34.187788 
L 353.742901 35.934755 
L 354.342515 37.73645 
L 354.942128 39.58529 
L 355.541741 41.477519 
L 356.141354 43.414398 
L 356.740967 45.402571 
L 357.34058 47.453286 
L 357.940193 49.580349 
L 358.539807 51.796955 
L 359.13942 54.111849 
L 359.739033 56.525504 
L 360.338646 59.027075 
L 360.938259 61.592864 
L 361.537872 64.186712 
" style="fill:none;stroke:#2e7fe8;stroke-linecap:square;stroke-width:1.5;"/>
   </g>
   <g id="line2d_20">
    <path clip-path="url(#pcde1ae4c89)" d="M 302.17617 66.066403 
L 302.775783 63.76754 
L 303.375397 61.448084 
L 303.97501 59.144427 
L 304.574623 56.890451 
L 305.174236 54.715961 
L 305.773849 52.6456 
L 306.373462 50.698283 
L 306.973075 48.887154 
L 307.572689 47.219977 
L 308.172302 45.699848 
L 308.771915 44.326097 
L 309.371528 43.095241 
L 309.971141 42.001892 
L 310.570754 41.039534 
L 311.170368 40.201141 
L 311.769981 39.479604 
L 312.369594 38.867993 
L 312.969207 38.359656 
L 313.56882 37.94817 
L 314.168433 37.627169 
L 314.768046 37.390057 
L 315.36766 37.229639 
L 315.967273 37.137689 
L 316.566886 37.104514 
L 317.166499 37.118575 
L 317.766112 37.166223 
L 318.365725 37.231638 
L 318.965338 37.297015 
L 319.564952 37.343056 
L 320.164565 37.349755 
L 320.764178 37.297462 
L 321.363791 37.168149 
L 321.963404 36.946768 
L 322.563017 36.622572 
L 323.162631 36.190249 
L 323.762244 35.650729 
L 324.361857 35.01155 
L 324.96147 34.286699 
L 325.561083 33.495917 
L 326.160696 32.663482 
L 326.760309 31.816583 
L 327.359923 30.983397 
L 327.959536 30.191051 
L 328.559149 29.463637 
L 329.158762 28.820448 
L 329.758375 28.274588 
L 330.357988 27.83207 
L 330.957602 27.491461 
L 331.557215 27.244113 
L 332.156828 27.074956 
L 332.756441 26.963797 
L 333.356054 26.887036 
L 333.955667 26.819671 
L 334.55528 26.737441 
L 335.154894 26.618926 
L 335.754507 26.447435 
L 336.35412 26.212479 
L 336.953733 25.910674 
L 337.553346 25.545944 
L 338.152959 25.128956 
L 338.752573 24.675809 
L 339.352186 24.206069 
L 339.951799 23.740363 
L 340.551412 23.297781 
L 341.151025 22.893435 
L 341.750638 22.536468 
L 342.350251 22.228816 
L 342.949865 21.964907 
L 343.549478 21.732374 
L 344.149091 21.513713 
L 344.748704 21.28867 
L 345.348317 21.037078 
L 345.94793 20.741736 
L 346.547544 20.390983 
L 347.147157 19.980634 
L 347.74677 19.515048 
L 348.346383 19.007255 
L 348.945996 18.478174 
L 349.545609 17.955116 
L 350.145222 17.469828 
L 350.744836 17.056415 
L 351.344449 16.749419 
L 351.944062 16.582333 
L 352.543675 16.586662 
L 353.143288 16.79156 
L 353.742901 17.223925 
L 354.342515 17.908707 
L 354.942128 18.869172 
L 355.541741 20.126795 
L 356.141354 21.700574 
L 356.740967 23.605657 
L 357.34058 25.851318 
L 357.940193 28.438524 
L 358.539807 31.357445 
L 359.13942 34.58536 
L 359.739033 38.085413 
L 360.338646 41.806594 
L 360.938259 45.685136 
L 361.537872 49.64735 
" style="fill:none;stroke:#ff0000;stroke-linecap:square;stroke-width:1.5;"/>
   </g>
   <g id="patch_11">
    <path d="M 302.17617 86.144 
L 361.537872 86.144 
" style="fill:none;stroke:#000000;stroke-linecap:square;stroke-linejoin:miter;stroke-width:1.5;"/>
   </g>
  </g>
  <g id="axes_6">
   <g id="patch_12">
    <path d="M 373.410213 81.144 
L 432.771915 81.144 
L 432.771915 7.2 
L 373.410213 7.2 
z
" style="fill:none;"/>
   </g>
   <g id="matplotlib.axis_11">
    <g id="xtick_11">
     <g id="line2d_21">
      <g>
       <use style="stroke:#000000;stroke-width:1.5;" x="373.410213" xlink:href="#m9ed5cdf454" y="86.144"/>
      </g>
     </g>
     <g id="text_16">
      <!-- $\mathdefault{0.00}$   -->
      <g transform="translate(363.370213 98.87025)">
       <text>
        <tspan style="font-family:Arial;font-size:8px;font-style:regular;font-weight:regular;" x="0 4.449219 6.671875 11.121094 15.570312 17.792969" y="-0.25">0.00  </tspan>
       </text>
      </g>
     </g>
    </g>
    <g id="xtick_12">
     <g id="line2d_22">
      <g>
       <use style="stroke:#000000;stroke-width:1.5;" x="432.771915" xlink:href="#m9ed5cdf454" y="86.144"/>
      </g>
     </g>
     <g id="text_17">
      <!-- $\mathdefault{0.06}\;\;\;$   -->
      <g transform="translate(419.971915 98.87025)">
       <text>
        <tspan style="font-family:Arial;font-size:8px;font-style:regular;font-weight:regular;" x="0 4.449219 6.671875 11.121094 21.123742 23.346399" y="-0.25">0.06  </tspan>
       </text>
      </g>
     </g>
    </g>
    <g id="text_18">
     <text style="font-family:Arial;font-size:8px;font-style:normal;font-weight:normal;text-anchor:middle;" transform="rotate(-0, 403.091064, 110.1865)" x="403.091064" y="110.1865">PY-H</text>
    </g>
   </g>
   <g id="matplotlib.axis_12">
    <g id="ytick_16"/>
    <g id="ytick_17"/>
    <g id="ytick_18"/>
    <g id="ytick_19"/>
   </g>
   <g id="line2d_23">
    <path clip-path="url(#p41549db2b2)" d="M 373.410213 76.002654 
L 374.009826 73.85119 
L 374.609439 71.675987 
L 375.209052 69.517992 
L 375.808665 67.41621 
L 376.408279 65.405305 
L 377.007892 63.513574 
L 377.607505 61.761455 
L 378.207118 60.16067 
L 378.806731 58.714092 
L 379.406344 57.416292 
L 380.005957 56.254724 
L 380.605571 55.211416 
L 381.205184 54.264999 
L 381.804797 53.392867 
L 382.40441 52.573218 
L 383.004023 51.786761 
L 383.603636 51.017873 
L 384.20325 50.255082 
L 384.802863 49.490835 
L 385.402476 48.720645 
L 386.002089 47.941821 
L 386.601702 47.152064 
L 387.201315 46.348268 
L 387.800928 45.525815 
L 388.400542 44.678561 
L 389.000155 43.799561 
L 389.599768 42.882417 
L 390.199381 41.92297 
L 390.798994 40.920962 
L 391.398607 39.881295 
L 391.998221 38.814544 
L 392.597834 37.736556 
L 393.197447 36.667128 
L 393.79706 35.627936 
L 394.396673 34.640058 
L 394.996286 33.721476 
L 395.595899 32.884989 
L 396.195513 32.136832 
L 396.795126 31.476236 
L 397.394739 30.895935 
L 397.994352 30.383528 
L 398.593965 29.923469 
L 399.193578 29.499352 
L 399.793191 29.096206 
L 400.392805 28.702478 
L 400.992418 28.311489 
L 401.592031 27.922218 
L 402.191644 27.539355 
L 402.791257 27.172652 
L 403.39087 26.83567 
L 403.990484 26.544047 
L 404.590097 26.313494 
L 405.18971 26.157672 
L 405.789323 26.086181 
L 406.388936 26.102833 
L 406.988549 26.204403 
L 407.588162 26.380003 
L 408.187776 26.611207 
L 408.787389 26.87297 
L 409.387002 27.135338 
L 409.986615 27.365819 
L 410.586228 27.53222 
L 411.185841 27.605629 
L 411.785455 27.563182 
L 412.385068 27.390248 
L 412.984681 27.081689 
L 413.584294 26.641973 
L 414.183907 26.084106 
L 414.78352 25.427503 
L 415.383133 24.695143 
L 415.982747 23.910464 
L 416.58236 23.094539 
L 417.181973 22.26404 
L 417.781586 21.430354 
L 418.381199 20.600027 
L 418.980812 19.776477 
L 419.580426 18.962647 
L 420.180039 18.164155 
L 420.779652 17.392348 
L 421.379265 16.666745 
L 421.978878 16.016415 
L 422.578491 15.480061 
L 423.178104 15.104768 
L 423.777718 14.943602 
L 424.377331 15.052343 
L 424.976944 15.485786 
L 425.576557 16.293978 
L 426.17617 17.518735 
L 426.775783 19.19068 
L 427.375397 21.326932 
L 427.97501 23.929499 
L 428.574623 26.984357 
L 429.174236 30.461228 
L 429.773849 34.314038 
L 430.373462 38.482112 
L 430.973075 42.892115 
L 431.572689 47.460803 
L 432.172302 52.098503 
L 432.771915 56.713222 
" style="fill:none;stroke:#2e7fe8;stroke-linecap:square;stroke-width:1.5;"/>
   </g>
   <g id="line2d_24">
    <path clip-path="url(#p41549db2b2)" d="M 373.410213 77.782909 
L 374.009826 75.820701 
L 374.609439 73.846294 
L 375.209052 71.897707 
L 375.808665 70.008646 
L 376.408279 68.206039 
L 377.007892 66.508295 
L 377.607505 64.924471 
L 378.207118 63.454432 
L 378.806731 62.089942 
L 379.406344 60.816536 
L 380.005957 59.615912 
L 380.605571 58.468509 
L 381.205184 57.355931 
L 381.804797 56.262893 
L 382.40441 55.178438 
L 383.004023 54.096307 
L 383.603636 53.014497 
L 384.20325 51.934175 
L 384.802863 50.858276 
L 385.402476 49.790101 
L 386.002089 48.732267 
L 386.601702 47.686203 
L 387.201315 46.652247 
L 387.800928 45.630208 
L 388.400542 44.620147 
L 389.000155 43.623025 
L 389.599768 42.640948 
L 390.199381 41.676821 
L 390.798994 40.73341 
L 391.398607 39.811981 
L 391.998221 38.910828 
L 392.597834 38.024029 
L 393.197447 37.140771 
L 393.79706 36.245442 
L 394.396673 35.318554 
L 394.996286 34.338405 
L 395.595899 33.283251 
L 396.195513 32.133731 
L 396.795126 30.875216 
L 397.394739 29.49987 
L 397.994352 28.008195 
L 398.593965 26.409966 
L 399.193578 24.724465 
L 399.793191 22.980006 
L 400.392805 21.212724 
L 400.992418 19.464659 
L 401.592031 17.781174 
L 402.191644 16.207814 
L 402.791257 14.786804 
L 403.39087 13.553439 
L 403.990484 12.532769 
L 404.590097 11.737006 
L 405.18971 11.164078 
L 405.789323 10.797718 
L 406.388936 10.609261 
L 406.988549 10.561091 
L 407.588162 10.61142 
L 408.187776 10.719772 
L 408.787389 10.852402 
L 409.387002 10.986778 
L 409.986615 11.11441 
L 410.586228 11.241511 
L 411.185841 11.38738 
L 411.785455 11.580777 
L 412.385068 11.854929 
L 412.984681 12.242 
L 413.584294 12.767972 
L 414.183907 13.448701 
L 414.78352 14.287688 
L 415.383133 15.275737 
L 415.982747 16.392337 
L 416.58236 17.608309 
L 417.181973 18.889151 
L 417.781586 20.198495 
L 418.381199 21.50121 
L 418.980812 22.765907 
L 419.580426 23.966787 
L 420.180039 25.084957 
L 420.779652 26.109388 
L 421.379265 27.037691 
L 421.978878 27.876757 
L 422.578491 28.643212 
L 423.178104 29.363502 
L 423.777718 30.073401 
L 424.377331 30.816744 
L 424.976944 31.643328 
L 425.576557 32.606025 
L 426.17617 33.75733 
L 426.775783 35.145632 
L 427.375397 36.81155 
L 427.97501 38.784648 
L 428.574623 41.080765 
L 429.174236 43.700142 
L 429.773849 46.626456 
L 430.373462 49.826835 
L 430.973075 53.252907 
L 431.572689 56.8429 
L 432.172302 60.524773 
L 432.771915 64.22024 
" style="fill:none;stroke:#ff0000;stroke-linecap:square;stroke-width:1.5;"/>
   </g>
   <g id="patch_13">
    <path d="M 373.410213 86.144 
L 432.771915 86.144 
" style="fill:none;stroke:#000000;stroke-linecap:square;stroke-linejoin:miter;stroke-width:1.5;"/>
   </g>
  </g>
  <g id="axes_7">
   <g id="patch_14">
    <path d="M 444.644255 81.144 
L 504.005957 81.144 
L 504.005957 7.2 
L 444.644255 7.2 
z
" style="fill:none;"/>
   </g>
   <g id="matplotlib.axis_13">
    <g id="xtick_13">
     <g id="line2d_25">
      <g>
       <use style="stroke:#000000;stroke-width:1.5;" x="444.644255" xlink:href="#m9ed5cdf454" y="86.144"/>
      </g>
     </g>
     <g id="text_19">
      <!-- $\mathdefault{0.01}$  -->
      <g transform="translate(435.724255 98.87025)">
       <text>
        <tspan style="font-family:Arial;font-size:8px;font-style:regular;font-weight:regular;" x="0 4.449219 6.671875 11.121094 15.570312" y="-0.25">0.01 </tspan>
       </text>
      </g>
     </g>
    </g>
    <g id="xtick_14">
     <g id="line2d_26">
      <g>
       <use style="stroke:#000000;stroke-width:1.5;" x="504.005957" xlink:href="#m9ed5cdf454" y="86.144"/>
      </g>
     </g>
     <g id="text_20">
      <!-- $\mathdefault{1000}\;\;\;\;$  -->
      <g transform="translate(490.285957 98.87025)">
       <text>
        <tspan style="font-family:Arial;font-size:8px;font-style:regular;font-weight:regular;" x="0 4.449219 8.898438 13.347656 25.201448" y="-0.25">1000 </tspan>
       </text>
      </g>
     </g>
    </g>
    <g id="text_21">
     <!-- $\mathdefault{PD-LP}$ -->
     <g transform="translate(460.205106 110.1865)">
      <text>
       <tspan style="font-family:Arial;font-size:8px;font-style:regular;font-weight:regular;" x="0 5.335938 12.446094 18.450781 22.9" y="-0.265625">PD−LP</tspan>
      </text>
     </g>
    </g>
   </g>
   <g id="matplotlib.axis_14">
    <g id="ytick_20"/>
    <g id="ytick_21"/>
    <g id="ytick_22"/>
    <g id="ytick_23"/>
   </g>
   <g id="line2d_27">
    <path clip-path="url(#p89c47ffa6c)" d="M 444.644255 61.834368 
L 445.243868 59.368592 
L 445.843482 56.93932 
L 446.443095 54.617823 
L 447.042708 52.466546 
L 447.642321 50.536199 
L 448.241934 48.864799 
L 448.841547 47.478128 
L 449.441161 46.390803 
L 450.040774 45.607164 
L 450.640387 45.12158 
L 451.24 44.918233 
L 451.839613 44.970886 
L 452.439226 45.243328 
L 453.038839 45.691033 
L 453.638453 46.26418 
L 454.238066 46.91168 
L 454.837679 47.585431 
L 455.437292 48.243945 
L 456.036905 48.854646 
L 456.636518 49.394564 
L 457.236132 49.849668 
L 457.835745 50.213408 
L 458.435358 50.485134 
L 459.034971 50.668934 
L 459.634584 50.772988 
L 460.234197 50.809242 
L 460.83381 50.792903 
L 461.433424 50.741286 
L 462.033037 50.671777 
L 462.63265 50.599064 
L 463.232263 50.532133 
L 463.831876 50.471779 
L 464.431489 50.40931 
L 465.031103 50.326902 
L 465.630716 50.199633 
L 466.230329 49.99885 
L 466.829942 49.696172 
L 467.429555 49.267392 
L 468.029168 48.69555 
L 468.628781 47.972742 
L 469.228395 47.100434 
L 469.828008 46.088366 
L 470.427621 44.952281 
L 471.027234 43.710825 
L 471.626847 42.382079 
L 472.22646 40.980162 
L 472.826074 39.512486 
L 473.425687 37.978197 
L 474.0253 36.368376 
L 474.624913 34.668398 
L 475.224526 32.862545 
L 475.824139 30.940526 
L 476.423752 28.905049 
L 477.023366 26.77913 
L 477.622979 24.611647 
L 478.222592 22.479735 
L 478.822205 20.487122 
L 479.421818 18.758214 
L 480.021431 17.428506 
L 480.621044 16.63256 
L 481.220658 16.491111 
L 481.820271 17.098873 
L 482.419884 18.514373 
L 483.019497 20.752743 
L 483.61911 23.782057 
L 484.218723 27.523515 
L 484.818337 31.855571 
L 485.41795 36.621889 
L 486.017563 41.642693 
L 486.617176 46.728641 
L 487.216789 51.695865 
L 487.816402 56.380429 
L 488.416015 60.650371 
L 489.015629 64.413739 
L 489.615242 67.621684 
L 490.214855 70.266523 
L 490.814468 72.375549 
L 491.414081 74.002005 
L 492.013694 75.214942 
L 492.613308 76.089578 
L 493.212921 76.699349 
L 493.812534 77.110326 
L 494.412147 77.378089 
L 495.01176 77.546718 
L 495.611373 77.649364 
L 496.210986 77.709754 
L 496.8106 77.744093 
L 497.410213 77.762963 
L 498.009826 77.772985 
L 498.609439 77.778129 
L 499.209052 77.78068 
L 499.808665 77.781903 
L 500.408279 77.78247 
L 501.007892 77.782723 
L 501.607505 77.782833 
L 502.207118 77.782879 
L 502.806731 77.782898 
L 503.406344 77.782905 
L 504.005957 77.782908 
" style="fill:none;stroke:#2e7fe8;stroke-linecap:square;stroke-width:1.5;"/>
   </g>
   <g id="line2d_28">
    <path clip-path="url(#p89c47ffa6c)" d="M 444.644255 63.187952 
L 445.243868 60.853263 
L 445.843482 58.612754 
L 446.443095 56.526376 
L 447.042708 54.627256 
L 447.642321 52.922719 
L 448.241934 51.40092 
L 448.841547 50.040567 
L 449.441161 48.82064 
L 450.040774 47.727552 
L 450.640387 46.758372 
L 451.24 45.920123 
L 451.839613 45.226128 
L 452.439226 44.69081 
L 453.038839 44.324257 
L 453.638453 44.127568 
L 454.238066 44.089652 
L 454.837679 44.185969 
L 455.437292 44.379544 
L 456.036905 44.624374 
L 456.636518 44.870981 
L 457.236132 45.073363 
L 457.835745 45.196054 
L 458.435358 45.219726 
L 459.034971 45.143811 
L 459.634584 44.985188 
L 460.234197 44.77294 
L 460.83381 44.540246 
L 461.433424 44.315357 
L 462.033037 44.113923 
L 462.63265 43.934669 
L 463.232263 43.7595 
L 463.831876 43.557975 
L 464.431489 43.294941 
L 465.031103 42.939385 
L 465.630716 42.472235 
L 466.230329 41.891148 
L 466.829942 41.210971 
L 467.429555 40.459525 
L 468.029168 39.669432 
L 468.628781 38.867676 
L 469.228395 38.065227 
L 469.828008 37.249304 
L 470.427621 36.380419 
L 471.027234 35.395434 
L 471.626847 34.216607 
L 472.22646 32.76533 
L 472.826074 30.978327 
L 473.425687 28.823716 
L 474.0253 26.314498 
L 474.624913 23.517522 
L 475.224526 20.556576 
L 475.824139 17.608713 
L 476.423752 14.893419 
L 477.023366 12.654777 
L 477.622979 11.137776 
L 478.222592 10.561091 
L 478.822205 11.089935 
L 479.421818 12.813289 
L 480.021431 15.729635 
L 480.621044 19.744079 
L 481.220658 24.677636 
L 481.820271 30.287145 
L 482.419884 36.292325 
L 483.019497 42.405431 
L 483.61911 48.35898 
L 484.218723 53.927911 
L 484.818337 58.943983 
L 485.41795 63.301769 
L 486.017563 66.956911 
L 486.617176 69.918269 
L 487.216789 72.236072 
L 487.816402 73.988307 
L 488.416015 75.267342 
L 489.015629 76.16836 
L 489.615242 76.780561 
L 490.214855 77.181516 
L 490.814468 77.434483 
L 491.414081 77.588133 
L 492.013694 77.677926 
L 492.613308 77.728388 
L 493.212921 77.755643 
L 493.812534 77.769786 
L 494.412147 77.776834 
L 495.01176 77.780205 
L 495.611373 77.781752 
L 496.210986 77.782434 
L 496.8106 77.782721 
L 497.410213 77.782838 
L 498.009826 77.782883 
L 498.609439 77.7829 
L 499.209052 77.782906 
L 499.808665 77.782908 
L 500.408279 77.782909 
L 501.007892 77.782909 
L 501.607505 77.782909 
L 502.207118 77.782909 
L 502.806731 77.782909 
L 503.406344 77.782909 
L 504.005957 77.782909 
" style="fill:none;stroke:#ff0000;stroke-linecap:square;stroke-width:1.5;"/>
   </g>
   <g id="patch_15">
    <path d="M 444.644255 86.144 
L 504.005957 86.144 
" style="fill:none;stroke:#000000;stroke-linecap:square;stroke-linejoin:miter;stroke-width:1.5;"/>
   </g>
  </g>
  <g id="axes_8">
   <g id="patch_16">
    <path d="M 515.878298 81.144 
L 575.24 81.144 
L 575.24 7.2 
L 515.878298 7.2 
z
" style="fill:none;"/>
   </g>
   <g id="matplotlib.axis_15">
    <g id="xtick_15">
     <g id="line2d_29">
      <g>
       <use style="stroke:#000000;stroke-width:1.5;" x="515.878298" xlink:href="#m9ed5cdf454" y="86.144"/>
      </g>
     </g>
     <g id="text_22">
      <!-- $\mathdefault{0.01}$  -->
      <g transform="translate(506.958298 98.87025)">
       <text>
        <tspan style="font-family:Arial;font-size:8px;font-style:regular;font-weight:regular;" x="0 4.449219 6.671875 11.121094 15.570312" y="-0.25">0.01 </tspan>
       </text>
      </g>
     </g>
    </g>
    <g id="xtick_16">
     <g id="line2d_30">
      <g>
       <use style="stroke:#000000;stroke-width:1.5;" x="575.24" xlink:href="#m9ed5cdf454" y="86.144"/>
      </g>
     </g>
     <g id="text_23">
      <!-- $\mathdefault{1000}\;\;\;\;$  -->
      <g transform="translate(561.52 98.87025)">
       <text>
        <tspan style="font-family:Arial;font-size:8px;font-style:regular;font-weight:regular;" x="0 4.449219 8.898438 13.347656 25.201448" y="-0.25">1000 </tspan>
       </text>
      </g>
     </g>
    </g>
    <g id="text_24">
     <!-- $\mathdefault{AB-PY}$ -->
     <g transform="translate(531.199149 110.1865)">
      <text>
       <tspan style="font-family:Arial;font-size:8px;font-style:regular;font-weight:regular;" x="0 5.335938 12.004687 18.009375 23.345312" y="-0.265625">AB−PY</tspan>
      </text>
     </g>
    </g>
   </g>
   <g id="matplotlib.axis_16">
    <g id="ytick_24"/>
    <g id="ytick_25"/>
   </g>
   <g id="line2d_31">
    <path clip-path="url(#p61ad01daaa)" d="M 515.878298 43.4601 
L 516.477911 39.646059 
L 517.077524 36.074622 
L 517.677137 32.834483 
L 518.27675 29.997449 
L 518.876364 27.613924 
L 519.475977 25.710177 
L 520.07559 24.287568 
L 520.675203 23.32375 
L 521.274816 22.775616 
L 521.874429 22.583639 
L 522.474043 22.677138 
L 523.073656 22.979949 
L 523.673269 23.416011 
L 524.272882 23.914428 
L 524.872495 24.413649 
L 525.472108 24.864529 
L 526.071721 25.232125 
L 526.671335 25.496221 
L 527.270948 25.65065 
L 527.870561 25.701594 
L 528.470174 25.665089 
L 529.069787 25.564048 
L 529.6694 25.425084 
L 530.269014 25.275461 
L 530.868627 25.140432 
L 531.46824 25.041169 
L 532.067853 24.993403 
L 532.667466 25.006812 
L 533.267079 25.085095 
L 533.866692 25.226602 
L 534.466306 25.425341 
L 535.065919 25.672174 
L 535.665532 25.956024 
L 536.265145 26.264964 
L 536.864758 26.587107 
L 537.464371 26.911288 
L 538.063985 27.227551 
L 538.663598 27.527528 
L 539.263211 27.80473 
L 539.862824 28.054825 
L 540.462437 28.275876 
L 541.06205 28.468536 
L 541.661663 28.636097 
L 542.261277 28.784361 
L 542.86089 28.921233 
L 543.460503 29.056025 
L 544.060116 29.198501 
L 544.659729 29.357731 
L 545.259342 29.540888 
L 545.858956 29.752162 
L 546.458569 29.991945 
L 547.058182 30.256433 
L 547.657795 30.537725 
L 548.257408 30.824459 
L 548.857021 31.102891 
L 549.456634 31.358336 
L 550.056248 31.576757 
L 550.655861 31.746331 
L 551.255474 31.858797 
L 551.855087 31.910419 
L 552.4547 31.902468 
L 553.054313 31.841194 
L 553.653926 31.737291 
L 554.25354 31.604972 
L 554.853153 31.460757 
L 555.452766 31.322143 
L 556.052379 31.206302 
L 556.651992 31.128949 
L 557.251605 31.103485 
L 557.851219 31.140485 
L 558.450832 31.247555 
L 559.050445 31.429545 
L 559.650058 31.689057 
L 560.249671 32.027184 
L 560.849284 32.444358 
L 561.448897 32.941219 
L 562.048511 33.519373 
L 562.648124 34.181948 
L 563.247737 34.933875 
L 563.84735 35.781828 
L 564.446963 36.733823 
L 565.046576 37.798511 
L 565.64619 38.984224 
L 566.245803 40.297893 
L 566.845416 41.743957 
L 567.445029 43.323398 
L 568.044642 45.033016 
L 568.644255 46.865032 
L 569.243868 48.80705 
L 569.843482 50.842386 
L 570.443095 52.950702 
L 571.042708 55.108864 
L 571.642321 57.291931 
L 572.241934 59.474163 
L 572.841547 61.629987 
L 573.441161 63.734851 
L 574.040774 65.765941 
L 574.640387 67.70277 
L 575.24 69.527641 
" style="fill:none;stroke:#2e7fe8;stroke-linecap:square;stroke-width:1.5;"/>
   </g>
   <g id="line2d_32">
    <path clip-path="url(#p61ad01daaa)" d="M 515.878298 56.648093 
L 516.477911 53.570984 
L 517.077524 50.600614 
L 517.677137 47.806579 
L 518.27675 45.243461 
L 518.876364 42.947073 
L 519.475977 40.932977 
L 520.07559 39.19734 
L 520.675203 37.719836 
L 521.274816 36.467995 
L 521.874429 35.402252 
L 522.474043 34.480897 
L 523.073656 33.664247 
L 523.673269 32.917596 
L 524.272882 32.212735 
L 524.872495 31.528125 
L 525.472108 30.848009 
L 526.071721 30.160903 
L 526.671335 29.457958 
L 527.270948 28.731655 
L 527.870561 27.975194 
L 528.470174 27.182759 
L 529.069787 26.350652 
L 529.6694 25.479092 
L 530.269014 24.574283 
L 530.868627 23.650253 
L 531.46824 22.729955 
L 532.067853 21.845186 
L 532.667466 21.035073 
L 533.267079 20.343138 
L 533.866692 19.813222 
L 534.466306 19.484784 
L 535.065919 19.388268 
L 535.665532 19.541212 
L 536.265145 19.945711 
L 536.864758 20.587565 
L 537.464371 21.437217 
L 538.063985 22.452232 
L 538.663598 23.580895 
L 539.263211 24.766348 
L 539.862824 25.950671 
L 540.462437 27.078431 
L 541.06205 28.099387 
L 541.661663 28.970231 
L 542.261277 29.655448 
L 542.86089 30.127495 
L 543.460503 30.366567 
L 544.060116 30.360212 
L 544.659729 30.102979 
L 545.259342 29.596204 
L 545.858956 28.847954 
L 546.458569 27.873044 
L 547.058182 26.693058 
L 547.657795 25.336224 
L 548.257408 23.837076 
L 548.857021 22.235799 
L 549.456634 20.577237 
L 550.056248 18.909518 
L 550.655861 17.282339 
L 551.255474 15.744934 
L 551.855087 14.343861 
L 552.4547 13.120728 
L 553.054313 12.110089 
L 553.653926 11.337753 
L 554.25354 10.819718 
L 554.853153 10.561951 
L 555.452766 10.561091 
L 556.052379 10.806035 
L 556.651992 11.280232 
L 557.251605 11.96438 
L 557.851219 12.839146 
L 558.450832 13.887539 
L 559.050445 15.096625 
L 559.650058 16.458389 
L 560.249671 17.969728 
L 560.849284 19.631672 
L 561.448897 21.448036 
L 562.048511 23.423773 
L 562.648124 25.563266 
L 563.247737 27.868734 
L 563.84735 30.338893 
L 564.446963 32.967905 
L 565.046576 35.74464 
L 565.64619 38.652244 
L 566.245803 41.668036 
L 566.845416 44.763758 
L 567.445029 47.90621 
L 568.044642 51.058302 
L 568.644255 54.180475 
L 569.243868 57.232441 
L 569.843482 60.175082 
L 570.443095 62.972353 
L 571.042708 65.592996 
L 571.642321 68.011904 
L 572.241934 70.211032 
L 572.841547 72.179789 
L 573.441161 73.914935 
L 574.040774 75.420039 
L 574.640387 76.704594 
L 575.24 77.782909 
" style="fill:none;stroke:#ff0000;stroke-linecap:square;stroke-width:1.5;"/>
   </g>
   <g id="patch_17">
    <path d="M 515.878298 86.144 
L 575.24 86.144 
" style="fill:none;stroke:#000000;stroke-linecap:square;stroke-linejoin:miter;stroke-width:1.5;"/>
   </g>
   <g id="text_25">
    <text style="font-family:Arial;font-size:16px;font-style:normal;font-weight:normal;text-anchor:start;" transform="rotate(-0, 582.660213, 44.172)" x="582.660213" y="44.172">...</text>
   </g>
  </g>
 </g>
 <defs>
  <clipPath id="p84773a3aee">
   <rect height="73.944" width="59.361702" x="17.24" y="7.2"/>
  </clipPath>
  <clipPath id="p120ca91a97">
   <rect height="73.944" width="59.361702" x="88.474043" y="7.2"/>
  </clipPath>
  <clipPath id="pef1262eff6">
   <rect height="73.944" width="59.361702" x="159.708085" y="7.2"/>
  </clipPath>
  <clipPath id="pee5e4d2352">
   <rect height="73.944" width="59.361702" x="230.942128" y="7.2"/>
  </clipPath>
  <clipPath id="pcde1ae4c89">
   <rect height="73.944" width="59.361702" x="302.17617" y="7.2"/>
  </clipPath>
  <clipPath id="p41549db2b2">
   <rect height="73.944" width="59.361702" x="373.410213" y="7.2"/>
  </clipPath>
  <clipPath id="p89c47ffa6c">
   <rect height="73.944" width="59.361702" x="444.644255" y="7.2"/>
  </clipPath>
  <clipPath id="p61ad01daaa">
   <rect height="73.944" width="59.361702" x="515.878298" y="7.2"/>
  </clipPath>
 </defs>
</svg>
