<?xml version="1.0" encoding="utf-8" standalone="no"?>
<!DOCTYPE svg PUBLIC "-//W3C//DTD SVG 1.1//EN"
  "http://www.w3.org/Graphics/SVG/1.1/DTD/svg11.dtd">
<!-- Created with matplotlib (https://matplotlib.org/) -->
<svg height="118.9765pt" version="1.1" viewBox="0 0 597.635213 118.9765" width="597.635213pt" xmlns="http://www.w3.org/2000/svg" xmlns:xlink="http://www.w3.org/1999/xlink">
 <defs>
  <style type="text/css">
*{stroke-linecap:butt;stroke-linejoin:round;}
  </style>
 </defs>
 <g id="figure_1">
  <g id="patch_1">
   <path d="M 0 118.9765 
L 597.635213 118.9765 
L 597.635213 -0 
L 0 -0 
z
" style="fill:none;"/>
  </g>
  <g id="axes_1">
   <g id="patch_2">
    <path d="M 11.68 81.144 
L 71.041702 81.144 
L 71.041702 7.2 
L 11.68 7.2 
z
" style="fill:none;"/>
   </g>
   <g id="matplotlib.axis_1">
    <g id="xtick_1">
     <g id="line2d_1">
      <defs>
       <path d="M 0 0 
L 0 3.5 
" id="m7f17175596" style="stroke:#000000;stroke-width:1.5;"/>
      </defs>
      <g>
       <use style="stroke:#000000;stroke-width:1.5;" x="11.68" xlink:href="#m7f17175596" y="86.144"/>
      </g>
     </g>
     <g id="text_1">
      <!-- $\mathdefault{0}$   -->
      <g transform="translate(7.2 98.87025)">
       <text>
        <tspan style="font-family:Arial;font-size:8px;font-style:regular;font-weight:regular;" x="0 4.449219 6.671875" y="-0.25">0  </tspan>
       </text>
      </g>
     </g>
    </g>
    <g id="xtick_2">
     <g id="line2d_2">
      <g>
       <use style="stroke:#000000;stroke-width:1.5;" x="71.041702" xlink:href="#m7f17175596" y="86.144"/>
      </g>
     </g>
     <g id="text_2">
      <!-- $\mathdefault{500}\;\;\;$   -->
      <g transform="translate(59.361702 98.87025)">
       <text>
        <tspan style="font-family:Arial;font-size:8px;font-style:regular;font-weight:regular;" x="0 4.449219 8.898438 18.901086 21.123742" y="-0.25">500  </tspan>
       </text>
      </g>
     </g>
    </g>
    <g id="text_3">
     <text style="font-family:Arial;font-size:8px;font-style:normal;font-weight:normal;text-anchor:middle;" transform="rotate(-0, 41.360851, 110.1865)" x="41.360851" y="110.1865">AB-Na</text>
    </g>
   </g>
   <g id="matplotlib.axis_2">
    <g id="ytick_1"/>
    <g id="ytick_2"/>
    <g id="ytick_3"/>
    <g id="ytick_4"/>
   </g>
   <g id="line2d_3">
    <path clip-path="url(#p06cb3f2d1c)" d="M 11.68 77.782909 
L 12.279613 77.782716 
L 12.879226 77.782282 
L 13.478839 77.781363 
L 14.078453 77.779517 
L 14.678066 77.776012 
L 15.277679 77.769719 
L 15.877292 77.759023 
L 16.476905 77.74182 
L 17.076518 77.715617 
L 17.676132 77.677802 
L 18.275745 77.626035 
L 18.875358 77.558713 
L 19.474971 77.475345 
L 20.074584 77.376696 
L 20.674197 77.264576 
L 21.27381 77.141278 
L 21.873424 77.008758 
L 22.473037 76.867828 
L 23.07265 76.717588 
L 23.672263 76.555372 
L 24.271876 76.37726 
L 24.871489 76.179098 
L 25.471103 75.957712 
L 26.070716 75.711903 
L 26.670329 75.442764 
L 27.269942 75.153061 
L 27.869555 74.845778 
L 28.469168 74.522318 
L 29.068781 74.181166 
L 29.668395 73.817732 
L 30.268008 73.42564 
L 30.867621 72.999057 
L 31.467234 72.535109 
L 32.066847 72.035303 
L 32.66646 71.505295 
L 33.266074 70.953079 
L 33.865687 70.386347 
L 34.4653 69.81001 
L 35.064913 69.224584 
L 35.664526 68.625585 
L 36.264139 68.003584 
L 36.863752 67.344482 
L 37.463366 66.629865 
L 38.062979 65.837773 
L 38.662592 64.944577 
L 39.262205 63.928552 
L 39.861818 62.775226 
L 40.461431 61.483646 
L 41.061044 60.071798 
L 41.660658 58.578813 
L 42.260271 57.061939 
L 42.859884 55.587523 
L 43.459497 54.217373 
L 44.05911 52.993953 
L 44.658723 51.928935 
L 45.258337 50.999077 
L 45.85795 50.151153 
L 46.457563 49.314785 
L 47.057176 48.419504 
L 47.656789 47.411351 
L 48.256402 46.264815 
L 48.856015 44.987534 
L 49.455629 43.617108 
L 50.055242 42.211109 
L 50.654855 40.832692 
L 51.254468 39.53511 
L 51.854081 38.348894 
L 52.453694 37.275084 
L 53.053308 36.286526 
L 53.652921 35.336995 
L 54.252534 34.375349 
L 54.852147 33.360107 
L 55.45176 32.269696 
L 56.051373 31.105305 
L 56.650986 29.886304 
L 57.2506 28.641096 
L 57.850213 27.397838 
L 58.449826 26.17876 
L 59.049439 24.999473 
L 59.649052 23.871774 
L 60.248665 22.806762 
L 60.848279 21.815357 
L 61.447892 20.905242 
L 62.047505 20.07572 
L 62.647118 19.313606 
L 63.246731 18.5934 
L 63.846344 17.883805 
L 64.445957 17.160878 
L 65.045571 16.426206 
L 65.645184 15.726738 
L 66.244797 15.171095 
L 66.84441 14.935761 
L 67.444023 15.254501 
L 68.043636 16.387015 
L 68.64325 18.568674 
L 69.242863 21.950956 
L 69.842476 26.548663 
L 70.442089 32.21169 
L 71.041702 38.633707 
" style="fill:none;stroke:#2e7fe8;stroke-linecap:square;stroke-width:1.5;"/>
   </g>
   <g id="line2d_4">
    <path clip-path="url(#p06cb3f2d1c)" d="M 11.68 76.306701 
L 12.279613 75.301451 
L 12.879226 73.808114 
L 13.478839 71.707666 
L 14.078453 68.908781 
L 14.678066 65.37315 
L 15.277679 61.135693 
L 15.877292 56.312534 
L 16.476905 51.092122 
L 17.076518 45.709694 
L 17.676132 40.410663 
L 18.275745 35.412427 
L 18.875358 30.874761 
L 19.474971 26.886109 
L 20.074584 23.467622 
L 20.674197 20.59095 
L 21.27381 18.201748 
L 21.873424 16.240233 
L 22.473037 14.6529 
L 23.07265 13.394437 
L 23.672263 12.423463 
L 24.271876 11.698053 
L 24.871489 11.175992 
L 25.471103 10.821279 
L 26.070716 10.614363 
L 26.670329 10.561091 
L 27.269942 10.695502 
L 27.869555 11.073978 
L 28.469168 11.761622 
L 29.068781 12.814474 
L 29.668395 14.262414 
L 30.268008 16.09724 
L 30.867621 18.268844 
L 31.467234 20.690318 
L 32.066847 23.250678 
L 32.66646 25.832284 
L 33.266074 28.329195 
L 33.865687 30.662873 
L 34.4653 32.792555 
L 35.064913 34.718707 
L 35.664526 36.478994 
L 36.264139 38.137108 
L 36.863752 39.766002 
L 37.463366 41.428725 
L 38.062979 43.161672 
L 38.662592 44.965452 
L 39.262205 46.806775 
L 39.861818 48.631016 
L 40.461431 50.380905 
L 41.061044 52.014359 
L 41.660658 53.515173 
L 42.260271 54.89374 
L 42.859884 56.179264 
L 43.459497 57.407871 
L 44.05911 58.611522 
L 44.658723 59.810931 
L 45.258337 61.013287 
L 45.85795 62.213692 
L 46.457563 63.398589 
L 47.057176 64.549692 
L 47.656789 65.647576 
L 48.256402 66.674576 
L 48.856015 67.616839 
L 49.455629 68.465426 
L 50.055242 69.21644 
L 50.654855 69.870386 
L 51.254468 70.431192 
L 51.854081 70.905434 
L 52.453694 71.302061 
L 53.053308 71.632529 
L 53.652921 71.910803 
L 54.252534 72.152637 
L 54.852147 72.373876 
L 55.45176 72.588178 
L 56.051373 72.804987 
L 56.650986 73.028675 
L 57.2506 73.259277 
L 57.850213 73.494499 
L 58.449826 73.732136 
L 59.049439 73.971828 
L 59.649052 74.215428 
L 60.248665 74.465887 
L 60.848279 74.725174 
L 61.447892 74.992161 
L 62.047505 75.261357 
L 62.647118 75.523083 
L 63.246731 75.765169 
L 63.846344 75.975784 
L 64.445957 76.146619 
L 65.045571 76.27553 
L 65.645184 76.36777 
L 66.244797 76.435292 
L 66.84441 76.49414 
L 67.444023 76.560555 
L 68.043636 76.646929 
L 68.64325 76.75888 
L 69.242863 76.894321 
L 69.842476 77.044745 
L 70.442089 77.198106 
L 71.041702 77.342229 
" style="fill:none;stroke:#ff0000;stroke-linecap:square;stroke-width:1.5;"/>
   </g>
   <g id="patch_3">
    <path d="M 11.68 86.144 
L 71.041702 86.144 
" style="fill:none;stroke:#000000;stroke-linecap:square;stroke-linejoin:miter;stroke-width:1.5;"/>
   </g>
  </g>
  <g id="axes_2">
   <g id="patch_4">
    <path d="M 82.914043 81.144 
L 142.275745 81.144 
L 142.275745 7.2 
L 82.914043 7.2 
z
" style="fill:none;"/>
   </g>
   <g id="matplotlib.axis_3">
    <g id="xtick_3">
     <g id="line2d_5">
      <g>
       <use style="stroke:#000000;stroke-width:1.5;" x="82.914043" xlink:href="#m7f17175596" y="86.144"/>
      </g>
     </g>
     <g id="text_4">
      <!-- $\mathdefault{0.00}$   -->
      <g transform="translate(72.874043 98.87025)">
       <text>
        <tspan style="font-family:Arial;font-size:8px;font-style:regular;font-weight:regular;" x="0 4.449219 6.671875 11.121094 15.570312 17.792969" y="-0.25">0.00  </tspan>
       </text>
      </g>
     </g>
    </g>
    <g id="xtick_4">
     <g id="line2d_6">
      <g>
       <use style="stroke:#000000;stroke-width:1.5;" x="142.275745" xlink:href="#m7f17175596" y="86.144"/>
      </g>
     </g>
     <g id="text_5">
      <!-- $\mathdefault{7.50}\;\;\;$   -->
      <g transform="translate(129.475745 98.87025)">
       <text>
        <tspan style="font-family:Arial;font-size:8px;font-style:regular;font-weight:regular;" x="0 4.449219 6.671875 11.121094 21.123742 23.346399" y="-0.25">7.50  </tspan>
       </text>
      </g>
     </g>
    </g>
    <g id="text_6">
     <text style="font-family:Arial;font-size:8px;font-style:normal;font-weight:normal;text-anchor:middle;" transform="rotate(-0, 112.594894, 110.1865)" x="112.594894" y="110.1865">AB-CaT</text>
    </g>
   </g>
   <g id="matplotlib.axis_4">
    <g id="ytick_5"/>
    <g id="ytick_6"/>
    <g id="ytick_7"/>
    <g id="ytick_8"/>
   </g>
   <g id="line2d_7">
    <path clip-path="url(#p61e5d8e69f)" d="M 82.914043 75.882498 
L 83.513656 75.41851 
L 84.113269 74.943568 
L 84.712882 74.46373 
L 85.312495 73.982555 
L 85.912108 73.500426 
L 86.511721 73.014338 
L 87.111335 72.518213 
L 87.710948 72.003743 
L 88.310561 71.46165 
L 88.910174 70.883161 
L 89.509787 70.261477 
L 90.1094 69.59298 
L 90.709014 68.878007 
L 91.308627 68.121069 
L 91.90824 67.330509 
L 92.507853 66.517684 
L 93.107466 65.695811 
L 93.707079 64.878653 
L 94.306692 64.079193 
L 94.906306 63.308425 
L 95.505919 62.574331 
L 96.105532 61.88111 
L 96.705145 61.22869 
L 97.304758 60.612591 
L 97.904371 60.024209 
L 98.503985 59.451579 
L 99.103598 58.880651 
L 99.703211 58.297004 
L 100.302824 57.68783 
L 100.902437 57.043901 
L 101.50205 56.361161 
L 102.101663 55.641607 
L 102.701277 54.893196 
L 103.30089 54.128717 
L 103.900503 53.363774 
L 104.500116 52.614242 
L 105.099729 51.893701 
L 105.699342 51.211359 
L 106.298956 50.570884 
L 106.898569 49.970348 
L 107.498182 49.403222 
L 108.097795 48.86012 
L 108.697408 48.330839 
L 109.297021 47.806188 
L 109.896634 47.279222 
L 110.496248 46.745666 
L 111.095861 46.20355 
L 111.695474 45.652284 
L 112.295087 45.091502 
L 112.8947 44.52004 
L 113.494313 43.935312 
L 114.093926 43.333202 
L 114.69354 42.708464 
L 115.293153 42.055455 
L 115.892766 41.369043 
L 116.492379 40.64549 
L 117.091992 39.883215 
L 117.691605 39.083393 
L 118.291219 38.250396 
L 118.890832 37.392068 
L 119.490445 36.519804 
L 120.090058 35.648318 
L 120.689671 34.794983 
L 121.289284 33.978635 
L 121.888897 33.217844 
L 122.488511 32.528796 
L 123.088124 31.92308 
L 123.687737 31.405808 
L 124.28735 30.974478 
L 124.886963 30.618937 
L 125.486576 30.322562 
L 126.08619 30.06456 
L 126.685803 29.823004 
L 127.285416 29.578089 
L 127.885029 29.314999 
L 128.484642 29.025899 
L 129.084255 28.710774 
L 129.683868 28.377108 
L 130.283482 28.038673 
L 130.883095 27.713907 
L 131.482708 27.424403 
L 132.082321 27.193946 
L 132.681934 27.048306 
L 133.281547 27.015707 
L 133.881161 27.127605 
L 134.480774 27.419227 
L 135.080387 27.92929 
L 135.68 28.698477 
L 136.279613 29.766509 
L 136.879226 31.168014 
L 137.478839 32.927731 
L 138.078453 35.055794 
L 138.678066 37.543925 
L 139.277679 40.36326 
L 139.877292 43.464294 
L 140.476905 46.779101 
L 141.076518 50.225614 
L 141.676132 53.71349 
L 142.275745 57.150818 
" style="fill:none;stroke:#2e7fe8;stroke-linecap:square;stroke-width:1.5;"/>
   </g>
   <g id="line2d_8">
    <path clip-path="url(#p61e5d8e69f)" d="M 82.914043 57.908565 
L 83.513656 53.833604 
L 84.113269 49.59196 
L 84.712882 45.302481 
L 85.312495 41.083368 
L 85.912108 37.040387 
L 86.511721 33.256922 
L 87.111335 29.787683 
L 87.710948 26.657234 
L 88.310561 23.863551 
L 88.910174 21.385747 
L 89.509787 19.194089 
L 90.1094 17.259974 
L 90.709014 15.563573 
L 91.308627 14.097647 
L 91.90824 12.867097 
L 92.507853 11.885025 
L 93.107466 11.166859 
L 93.707079 10.724364 
L 94.306692 10.561091 
L 94.906306 10.670132 
L 95.505919 11.034337 
L 96.105532 11.628566 
L 96.705145 12.423241 
L 97.304758 13.388339 
L 97.904371 14.497047 
L 98.503985 15.72836 
L 99.103598 17.068104 
L 99.703211 18.508125 
L 100.302824 20.043738 
L 100.902437 21.670037 
L 101.50205 23.377997 
L 102.101663 25.151513 
L 102.701277 26.966316 
L 103.30089 28.791238 
L 103.900503 30.591608 
L 104.500116 32.33397 
L 105.099729 33.990892 
L 105.699342 35.544704 
L 106.298956 36.989322 
L 106.898569 38.329932 
L 107.498182 39.58087 
L 108.097795 40.76247 
L 108.697408 41.89772 
L 109.297021 43.009417 
L 109.896634 44.118137 
L 110.496248 45.240949 
L 111.095861 46.390575 
L 111.695474 47.574657 
L 112.295087 48.794959 
L 112.8947 50.046598 
L 113.494313 51.317615 
L 114.093926 52.589284 
L 114.69354 53.83743 
L 115.293153 55.034786 
L 115.892766 56.154137 
L 116.492379 57.171769 
L 117.091992 58.070671 
L 117.691605 58.842993 
L 118.291219 59.491423 
L 118.890832 60.029289 
L 119.490445 60.479386 
L 120.090058 60.871637 
L 120.689671 61.239825 
L 121.289284 61.617768 
L 121.888897 62.035427 
L 122.488511 62.515502 
L 123.088124 63.07103 
L 123.687737 63.704345 
L 124.28735 64.407512 
L 124.886963 65.164026 
L 125.486576 65.951398 
L 126.08619 66.744112 
L 126.685803 67.516512 
L 127.285416 68.245329 
L 127.885029 68.911683 
L 128.484642 69.502546 
L 129.084255 70.011664 
L 129.683868 70.439892 
L 130.283482 70.794886 
L 130.883095 71.090085 
L 131.482708 71.34304 
L 132.082321 71.573252 
L 132.681934 71.799862 
L 133.281547 72.039561 
L 133.881161 72.305082 
L 134.480774 72.604444 
L 135.080387 72.940961 
L 135.68 73.313812 
L 136.279613 73.718918 
L 136.879226 74.149849 
L 137.478839 74.598612 
L 138.078453 75.056274 
L 138.678066 75.513462 
L 139.277679 75.960822 
L 139.877292 76.389496 
L 140.476905 76.791606 
L 141.076518 77.160691 
L 141.676132 77.49205 
L 142.275745 77.782909 
" style="fill:none;stroke:#ff0000;stroke-linecap:square;stroke-width:1.5;"/>
   </g>
   <g id="patch_5">
    <path d="M 82.914043 86.144 
L 142.275745 86.144 
" style="fill:none;stroke:#000000;stroke-linecap:square;stroke-linejoin:miter;stroke-width:1.5;"/>
   </g>
  </g>
  <g id="axes_3">
   <g id="patch_6">
    <path d="M 154.148085 81.144 
L 213.509787 81.144 
L 213.509787 7.2 
L 154.148085 7.2 
z
" style="fill:none;"/>
   </g>
   <g id="matplotlib.axis_5">
    <g id="xtick_5">
     <g id="line2d_9">
      <g>
       <use style="stroke:#000000;stroke-width:1.5;" x="154.148085" xlink:href="#m7f17175596" y="86.144"/>
      </g>
     </g>
     <g id="text_7">
      <!-- $\mathdefault{0.00}$   -->
      <g transform="translate(144.108085 98.87025)">
       <text>
        <tspan style="font-family:Arial;font-size:8px;font-style:regular;font-weight:regular;" x="0 4.449219 6.671875 11.121094 15.570312 17.792969" y="-0.25">0.00  </tspan>
       </text>
      </g>
     </g>
    </g>
    <g id="xtick_6">
     <g id="line2d_10">
      <g>
       <use style="stroke:#000000;stroke-width:1.5;" x="213.509787" xlink:href="#m7f17175596" y="86.144"/>
      </g>
     </g>
     <g id="text_8">
      <!-- $\mathdefault{8.00}\;\;\;$   -->
      <g transform="translate(200.709787 98.87025)">
       <text>
        <tspan style="font-family:Arial;font-size:8px;font-style:regular;font-weight:regular;" x="0 4.449219 6.671875 11.121094 21.123742 23.346399" y="-0.25">8.00  </tspan>
       </text>
      </g>
     </g>
    </g>
    <g id="text_9">
     <text style="font-family:Arial;font-size:8px;font-style:normal;font-weight:normal;text-anchor:middle;" transform="rotate(-0, 183.828936, 110.1865)" x="183.828936" y="110.1865">AB-CaS</text>
    </g>
   </g>
   <g id="matplotlib.axis_6">
    <g id="ytick_9"/>
    <g id="ytick_10"/>
    <g id="ytick_11"/>
    <g id="ytick_12"/>
   </g>
   <g id="line2d_11">
    <path clip-path="url(#pa37164ebcf)" d="M 154.148085 77.782909 
L 154.747698 77.634608 
L 155.347311 77.468472 
L 155.946925 77.290235 
L 156.546538 77.106945 
L 157.146151 76.925759 
L 157.745764 76.752432 
L 158.345377 76.589777 
L 158.94499 76.436447 
L 159.544603 76.286338 
L 160.144217 76.128828 
L 160.74383 75.949908 
L 161.343443 75.734065 
L 161.943056 75.466638 
L 162.542669 75.136249 
L 163.142282 74.736843 
L 163.741896 74.268891 
L 164.341509 73.739365 
L 164.941122 73.160304 
L 165.540735 72.546012 
L 166.140348 71.909335 
L 166.739961 71.257759 
L 167.339574 70.590327 
L 167.939188 69.896345 
L 168.538801 69.156501 
L 169.138414 68.346449 
L 169.738027 67.442192 
L 170.33764 66.426023 
L 170.937253 65.291543 
L 171.536867 64.046468 
L 172.13648 62.71255 
L 172.736093 61.322695 
L 173.335706 59.916102 
L 173.935319 58.532642 
L 174.534932 57.207718 
L 175.134545 55.968467 
L 175.734159 54.831639 
L 176.333772 53.802976 
L 176.933385 52.877583 
L 177.532998 52.040742 
L 178.132611 51.268843 
L 178.732224 50.530359 
L 179.331838 49.787144 
L 179.931451 48.99641 
L 180.531064 48.113743 
L 181.130677 47.097228 
L 181.73029 45.912414 
L 182.329903 44.537437 
L 182.929516 42.967333 
L 183.52913 41.216477 
L 184.128743 39.318282 
L 184.728356 37.321788 
L 185.327969 35.285501 
L 185.927582 33.269557 
L 186.527195 31.327831 
L 187.126809 29.501697 
L 187.726422 27.816745 
L 188.326035 26.28298 
L 188.925648 24.898087 
L 189.525261 23.652569 
L 190.124874 22.535215 
L 190.724487 21.537392 
L 191.324101 20.655175 
L 191.923714 19.888974 
L 192.523327 19.241064 
L 193.12294 18.711937 
L 193.722553 18.296732 
L 194.322166 17.98297 
L 194.921779 17.75048 
L 195.521393 17.573868 
L 196.121006 17.42713 
L 196.720619 17.289425 
L 197.320232 17.150594 
L 197.919845 17.014982 
L 198.519458 16.902448 
L 199.119072 16.846122 
L 199.718685 16.887295 
L 200.318298 17.06859 
L 200.917911 17.427039 
L 201.517524 17.988727 
L 202.117137 18.766149 
L 202.71675 19.758597 
L 203.316364 20.954906 
L 203.915977 22.337197 
L 204.51559 23.884142 
L 205.115203 25.572747 
L 205.714816 27.378668 
L 206.314429 29.27606 
L 206.914043 31.238461 
L 207.513656 33.241961 
L 208.113269 35.270717 
L 208.712882 37.32339 
L 209.312495 39.417846 
L 209.912108 41.591237 
L 210.511721 43.893626 
L 211.111335 46.375481 
L 211.710948 49.071752 
L 212.310561 51.986968 
L 212.910174 55.086016 
L 213.509787 58.29383 
" style="fill:none;stroke:#2e7fe8;stroke-linecap:square;stroke-width:1.5;"/>
   </g>
   <g id="line2d_12">
    <path clip-path="url(#pa37164ebcf)" d="M 154.148085 77.110527 
L 154.747698 76.759868 
L 155.347311 76.347077 
L 155.946925 75.866306 
L 156.546538 75.308122 
L 157.146151 74.658389 
L 157.745764 73.898308 
L 158.345377 73.005914 
L 158.94499 71.958883 
L 159.544603 70.737932 
L 160.144217 69.329863 
L 160.74383 67.72934 
L 161.343443 65.938989 
L 161.943056 63.968066 
L 162.542669 61.83049 
L 163.142282 59.543202 
L 163.741896 57.125537 
L 164.341509 54.599665 
L 164.941122 51.991579 
L 165.540735 49.331732 
L 166.140348 46.654508 
L 166.739961 43.996125 
L 167.339574 41.391119 
L 167.939188 38.868107 
L 168.538801 36.445812 
L 169.138414 34.130404 
L 169.738027 31.914991 
L 170.33764 29.781714 
L 170.937253 27.706365 
L 171.536867 25.664907 
L 172.13648 23.640749 
L 172.736093 21.631334 
L 173.335706 19.652519 
L 173.935319 17.739528 
L 174.534932 15.9439 
L 175.134545 14.326707 
L 175.734159 12.949232 
L 176.333772 11.862958 
L 176.933385 11.100929 
L 177.532998 10.672299 
L 178.132611 10.561091 
L 178.732224 10.729291 
L 179.331838 11.123471 
L 179.931451 11.68348 
L 180.531064 12.351552 
L 181.130677 13.080307 
L 181.73029 13.83859 
L 182.329903 14.614614 
L 182.929516 15.416252 
L 183.52913 16.26856 
L 184.128743 17.208701 
L 184.728356 18.278591 
L 185.327969 19.515956 
L 185.927582 20.945067 
L 186.527195 22.568951 
L 187.126809 24.365068 
L 187.726422 26.286013 
L 188.326035 28.265756 
L 188.925648 30.230479 
L 189.525261 32.111775 
L 190.124874 33.859189 
L 190.724487 35.449156 
L 191.324101 36.888272 
L 191.923714 38.210241 
L 192.523327 39.467357 
L 193.12294 40.718598 
L 193.722553 42.017051 
L 194.322166 43.399339 
L 194.921779 44.879146 
L 195.521393 46.44595 
L 196.121006 48.068939 
L 196.720619 49.705006 
L 197.320232 51.308921 
L 197.919845 52.843308 
L 198.519458 54.286155 
L 199.119072 55.634182 
L 199.718685 56.901414 
L 200.318298 58.11351 
L 200.917911 59.299478 
L 201.517524 60.483003 
L 202.117137 61.675634 
L 202.71675 62.873424 
L 203.316364 64.057642 
L 203.915977 65.1991 
L 204.51559 66.264822 
L 205.115203 67.225405 
L 205.714816 68.061441 
L 206.314429 68.767785 
L 206.914043 69.354939 
L 207.513656 69.847452 
L 208.113269 70.279709 
L 208.712882 70.689989 
L 209.312495 71.113959 
L 209.912108 71.578915 
L 210.511721 72.099889 
L 211.111335 72.67832 
L 211.710948 73.303326 
L 212.310561 73.955 
L 212.910174 74.608768 
L 213.509787 75.239718 
" style="fill:none;stroke:#ff0000;stroke-linecap:square;stroke-width:1.5;"/>
   </g>
   <g id="patch_7">
    <path d="M 154.148085 86.144 
L 213.509787 86.144 
" style="fill:none;stroke:#000000;stroke-linecap:square;stroke-linejoin:miter;stroke-width:1.5;"/>
   </g>
  </g>
  <g id="axes_4">
   <g id="patch_8">
    <path d="M 225.382128 81.144 
L 284.74383 81.144 
L 284.74383 7.2 
L 225.382128 7.2 
z
" style="fill:none;"/>
   </g>
   <g id="matplotlib.axis_7">
    <g id="xtick_7">
     <g id="line2d_13">
      <g>
       <use style="stroke:#000000;stroke-width:1.5;" x="225.382128" xlink:href="#m7f17175596" y="86.144"/>
      </g>
     </g>
     <g id="text_10">
      <!-- $\mathdefault{0.00}$   -->
      <g transform="translate(215.342128 98.87025)">
       <text>
        <tspan style="font-family:Arial;font-size:8px;font-style:regular;font-weight:regular;" x="0 4.449219 6.671875 11.121094 15.570312 17.792969" y="-0.25">0.00  </tspan>
       </text>
      </g>
     </g>
    </g>
    <g id="xtick_8">
     <g id="line2d_14">
      <g>
       <use style="stroke:#000000;stroke-width:1.5;" x="284.74383" xlink:href="#m7f17175596" y="86.144"/>
      </g>
     </g>
     <g id="text_11">
      <!-- $\mathdefault{15.00}\;\;\;$   -->
      <g transform="translate(269.70383 98.87025)">
       <text>
        <tspan style="font-family:Arial;font-size:8px;font-style:regular;font-weight:regular;" x="0 4.449219 8.898438 11.121094 15.570312 25.572961 27.795617" y="-0.25">15.00  </tspan>
       </text>
      </g>
     </g>
    </g>
    <g id="text_12">
     <text style="font-family:Arial;font-size:8px;font-style:normal;font-weight:normal;text-anchor:middle;" transform="rotate(-0, 255.062979, 110.1865)" x="255.062979" y="110.1865">AB-KCa</text>
    </g>
   </g>
   <g id="matplotlib.axis_8">
    <g id="ytick_13"/>
    <g id="ytick_14"/>
    <g id="ytick_15"/>
    <g id="ytick_16"/>
   </g>
   <g id="line2d_15">
    <path clip-path="url(#p35e2c47eea)" d="M 225.382128 77.782909 
L 225.981741 77.782565 
L 226.581354 77.781769 
L 227.180967 77.78003 
L 227.78058 77.776456 
L 228.380193 77.769543 
L 228.979807 77.756956 
L 229.57942 77.735399 
L 230.179033 77.700678 
L 230.778646 77.648119 
L 231.378259 77.573384 
L 231.977872 77.473626 
L 232.577485 77.348719 
L 233.177099 77.202113 
L 233.776712 77.040892 
L 234.376325 76.874785 
L 234.975938 76.714277 
L 235.575551 76.568396 
L 236.175164 76.442943 
L 236.774778 76.339858 
L 237.374391 76.257866 
L 237.974004 76.193987 
L 238.573617 76.144996 
L 239.17323 76.107913 
L 239.772843 76.079043 
L 240.372456 76.051828 
L 240.97207 76.014472 
L 241.571683 75.948606 
L 242.171296 75.830066 
L 242.770909 75.632171 
L 243.370522 75.330946 
L 243.970135 74.91093 
L 244.569749 74.369825 
L 245.169362 73.72044 
L 245.768975 72.989213 
L 246.368588 72.21164 
L 246.968201 71.425841 
L 247.567814 70.66585 
L 248.167427 69.955962 
L 248.767041 69.306761 
L 249.366654 68.712895 
L 249.966267 68.152401 
L 250.56588 67.587699 
L 251.165493 66.968807 
L 251.765106 66.23949 
L 252.36472 65.346593 
L 252.964333 64.251629 
L 253.563946 62.942371 
L 254.163559 61.441109 
L 254.763172 59.806331 
L 255.362785 58.125752 
L 255.962398 56.501002 
L 256.562012 55.026903 
L 257.161625 53.770362 
L 257.761238 52.754615 
L 258.360851 51.953449 
L 258.960464 51.297375 
L 259.560077 50.690304 
L 260.159691 50.032317 
L 260.759304 49.242525 
L 261.358917 48.276252 
L 261.95853 47.132583 
L 262.558143 45.850836 
L 263.157756 44.497102 
L 263.757369 43.144073 
L 264.356983 41.848912 
L 264.956596 40.634627 
L 265.556209 39.480027 
L 266.155822 38.321556 
L 266.755435 37.067262 
L 267.355048 35.619771 
L 267.954662 33.902597 
L 268.554275 31.883297 
L 269.153888 29.587849 
L 269.753501 27.102663 
L 270.353114 24.562992 
L 270.952727 22.129069 
L 271.55234 19.953989 
L 272.151954 18.150168 
L 272.751567 16.76318 
L 273.35118 15.761509 
L 273.950793 15.04724 
L 274.550406 14.486303 
L 275.150019 13.949606 
L 275.749632 13.351558 
L 276.349246 12.672728 
L 276.948859 11.959359 
L 277.548472 11.302064 
L 278.148085 10.805036 
L 278.747698 10.561091 
L 279.347311 10.644451 
L 279.946925 11.123489 
L 280.546538 12.084182 
L 281.146151 13.647585 
L 281.745764 15.965482 
L 282.345377 19.187874 
L 282.94499 23.409894 
L 283.544603 28.617404 
L 284.144217 34.654042 
L 284.74383 41.225702 
" style="fill:none;stroke:#2e7fe8;stroke-linecap:square;stroke-width:1.5;"/>
   </g>
   <g id="line2d_16">
    <path clip-path="url(#p35e2c47eea)" d="M 225.382128 77.749477 
L 225.981741 77.722777 
L 226.581354 77.678519 
L 227.180967 77.607737 
L 227.78058 77.498437 
L 228.380193 77.335331 
L 228.979807 77.099895 
L 229.57942 76.77085 
L 230.179033 76.325133 
L 230.778646 75.739386 
L 231.378259 74.99188 
L 231.977872 74.064759 
L 232.577485 72.946392 
L 233.177099 71.633548 
L 233.776712 70.133062 
L 234.376325 68.462583 
L 234.975938 66.650045 
L 235.575551 64.731631 
L 236.175164 62.748215 
L 236.774778 60.740703 
L 237.374391 58.74502 
L 237.974004 56.787806 
L 238.573617 54.883892 
L 239.17323 53.036295 
L 239.772843 51.238887 
L 240.372456 49.481106 
L 240.97207 47.753491 
L 241.571683 46.05253 
L 242.171296 44.383545 
L 242.770909 42.760976 
L 243.370522 41.206241 
L 243.970135 39.744077 
L 244.569749 38.398555 
L 245.169362 37.189847 
L 245.768975 36.132289 
L 246.368588 35.233683 
L 246.968201 34.495296 
L 247.567814 33.911939 
L 248.167427 33.471747 
L 248.767041 33.155791 
L 249.366654 32.938077 
L 249.966267 32.786696 
L 250.56588 32.666682 
L 251.165493 32.544552 
L 251.765106 32.393817 
L 252.36472 32.200194 
L 252.964333 31.96504 
L 253.563946 31.705911 
L 254.163559 31.453858 
L 254.763172 31.248037 
L 255.362785 31.128927 
L 255.962398 31.131809 
L 256.562012 31.28191 
L 257.161625 31.591988 
L 257.761238 32.062305 
L 258.360851 32.682266 
L 258.960464 33.43276 
L 259.560077 34.288393 
L 260.159691 35.219283 
L 260.759304 36.192632 
L 261.358917 37.174536 
L 261.95853 38.132468 
L 262.558143 39.038465 
L 263.157756 39.872544 
L 263.757369 40.625512 
L 264.356983 41.300308 
L 264.956596 41.911287 
L 265.556209 42.481475 
L 266.155822 43.038396 
L 266.755435 43.609512 
L 267.355048 44.21843 
L 267.954662 44.882743 
L 268.554275 45.613828 
L 269.153888 46.418304 
L 269.753501 47.300253 
L 270.353114 48.263125 
L 270.952727 49.310318 
L 271.55234 50.443983 
L 272.151954 51.662305 
L 272.751567 52.956228 
L 273.35118 54.306983 
L 273.950793 55.685715 
L 274.550406 57.055916 
L 275.150019 58.3785 
L 275.749632 59.618389 
L 276.349246 60.750919 
L 276.948859 61.766318 
L 277.548472 62.671027 
L 278.148085 63.485612 
L 278.747698 64.239976 
L 279.347311 64.967282 
L 279.946925 65.69817 
L 280.546538 66.456481 
L 281.146151 67.257034 
L 281.745764 68.105277 
L 282.345377 68.998187 
L 282.94499 69.925705 
L 283.544603 70.872242 
L 284.144217 71.818117 
L 284.74383 72.741093 
" style="fill:none;stroke:#ff0000;stroke-linecap:square;stroke-width:1.5;"/>
   </g>
   <g id="patch_9">
    <path d="M 225.382128 86.144 
L 284.74383 86.144 
" style="fill:none;stroke:#000000;stroke-linecap:square;stroke-linejoin:miter;stroke-width:1.5;"/>
   </g>
  </g>
  <g id="axes_5">
   <g id="patch_10">
    <path d="M 296.61617 81.144 
L 355.977872 81.144 
L 355.977872 7.2 
L 296.61617 7.2 
z
" style="fill:none;"/>
   </g>
   <g id="matplotlib.axis_9">
    <g id="xtick_9">
     <g id="line2d_17">
      <g>
       <use style="stroke:#000000;stroke-width:1.5;" x="296.61617" xlink:href="#m7f17175596" y="86.144"/>
      </g>
     </g>
     <g id="text_13">
      <!-- $\mathdefault{0}$   -->
      <g transform="translate(292.13617 98.87025)">
       <text>
        <tspan style="font-family:Arial;font-size:8px;font-style:regular;font-weight:regular;" x="0 4.449219 6.671875" y="-0.25">0  </tspan>
       </text>
      </g>
     </g>
    </g>
    <g id="xtick_10">
     <g id="line2d_18">
      <g>
       <use style="stroke:#000000;stroke-width:1.5;" x="355.977872" xlink:href="#m7f17175596" y="86.144"/>
      </g>
     </g>
     <g id="text_14">
      <!-- $\mathdefault{600}\;\;\;$   -->
      <g transform="translate(344.297872 98.87025)">
       <text>
        <tspan style="font-family:Arial;font-size:8px;font-style:regular;font-weight:regular;" x="0 4.449219 8.898438 18.901086 21.123742" y="-0.25">600  </tspan>
       </text>
      </g>
     </g>
    </g>
    <g id="text_15">
     <text style="font-family:Arial;font-size:8px;font-style:normal;font-weight:normal;text-anchor:middle;" transform="rotate(-0, 326.297021, 110.1865)" x="326.297021" y="110.1865">PY-Na</text>
    </g>
   </g>
   <g id="matplotlib.axis_10">
    <g id="ytick_17"/>
    <g id="ytick_18"/>
    <g id="ytick_19"/>
    <g id="ytick_20"/>
   </g>
   <g id="line2d_19">
    <path clip-path="url(#pcbbe472e74)" d="M 296.61617 77.782909 
L 297.215783 77.782909 
L 297.815397 77.782909 
L 298.41501 77.782909 
L 299.014623 77.782909 
L 299.614236 77.782909 
L 300.213849 77.782909 
L 300.813462 77.782909 
L 301.413075 77.782909 
L 302.012689 77.782909 
L 302.612302 77.782909 
L 303.211915 77.782909 
L 303.811528 77.782909 
L 304.411141 77.782909 
L 305.010754 77.782909 
L 305.610368 77.782909 
L 306.209981 77.782909 
L 306.809594 77.782909 
L 307.409207 77.782909 
L 308.00882 77.782909 
L 308.608433 77.782909 
L 309.208046 77.782909 
L 309.80766 77.782909 
L 310.407273 77.782909 
L 311.006886 77.782909 
L 311.606499 77.782909 
L 312.206112 77.782909 
L 312.805725 77.782909 
L 313.405338 77.782909 
L 314.004952 77.782909 
L 314.604565 77.782909 
L 315.204178 77.782909 
L 315.803791 77.782909 
L 316.403404 77.782909 
L 317.003017 77.782909 
L 317.602631 77.782909 
L 318.202244 77.782909 
L 318.801857 77.782909 
L 319.40147 77.782909 
L 320.001083 77.782909 
L 320.600696 77.782909 
L 321.200309 77.782909 
L 321.799923 77.782909 
L 322.399536 77.782909 
L 322.999149 77.782909 
L 323.598762 77.782906 
L 324.198375 77.782877 
L 324.797988 77.782671 
L 325.397602 77.781509 
L 325.997215 77.776398 
L 326.596828 77.758869 
L 327.196441 77.712166 
L 327.796054 77.615753 
L 328.395667 77.461227 
L 328.99528 77.26524 
L 329.594894 77.05552 
L 330.194507 76.840739 
L 330.79412 76.612144 
L 331.393733 76.3834 
L 331.993346 76.205894 
L 332.592959 76.125158 
L 333.192573 76.128779 
L 333.792186 76.139251 
L 334.391799 76.043915 
L 334.991412 75.734707 
L 335.591025 75.152604 
L 336.190638 74.329244 
L 336.790251 73.388941 
L 337.389865 72.484528 
L 337.989478 71.700078 
L 338.589091 70.981484 
L 339.188704 70.143509 
L 339.788317 68.978775 
L 340.38793 67.410578 
L 340.987544 65.557111 
L 341.587157 63.63391 
L 342.18677 61.737403 
L 342.786383 59.661805 
L 343.385996 56.965305 
L 343.985609 53.335477 
L 344.585222 48.97801 
L 345.184836 44.636555 
L 345.784449 41.103075 
L 346.384062 38.564801 
L 346.983675 36.426744 
L 347.583288 33.857433 
L 348.182901 30.546625 
L 348.782515 26.937913 
L 349.382128 23.743999 
L 349.981741 21.297058 
L 350.581354 19.438974 
L 351.180967 17.919949 
L 351.78058 16.608055 
L 352.380193 15.268014 
L 352.979807 13.519107 
L 353.57942 11.470114 
L 354.179033 10.561091 
L 354.778646 13.428264 
L 355.378259 22.126911 
L 355.977872 35.93393 
" style="fill:none;stroke:#2e7fe8;stroke-linecap:square;stroke-width:1.5;"/>
   </g>
   <g id="line2d_20">
    <path clip-path="url(#pcbbe472e74)" d="M 296.61617 77.590308 
L 297.215783 77.402606 
L 297.815397 77.076129 
L 298.41501 76.543659 
L 299.014623 75.727791 
L 299.614236 74.551185 
L 300.213849 72.951317 
L 300.813462 70.897143 
L 301.413075 68.403636 
L 302.012689 65.539722 
L 302.612302 62.425832 
L 303.211915 59.219025 
L 303.811528 56.086636 
L 304.411141 53.173327 
L 305.010754 50.570726 
L 305.610368 48.30117 
L 306.209981 46.324605 
L 306.809594 44.569204 
L 307.409207 42.974349 
L 308.00882 41.52616 
L 308.608433 40.267337 
L 309.208046 39.276034 
L 309.80766 38.626095 
L 310.407273 38.35169 
L 311.006886 38.43576 
L 311.606499 38.825697 
L 312.206112 39.462723 
L 312.805725 40.304873 
L 313.405338 41.330772 
L 314.004952 42.525895 
L 314.604565 43.864155 
L 315.204178 45.2989 
L 315.803791 46.769645 
L 316.403404 48.220254 
L 317.003017 49.617361 
L 317.602631 50.958074 
L 318.202244 52.262474 
L 318.801857 53.555159 
L 319.40147 54.846098 
L 320.001083 56.121109 
L 320.600696 57.346568 
L 321.200309 58.484996 
L 321.799923 59.512649 
L 322.399536 60.430083 
L 322.999149 61.261462 
L 323.598762 62.044808 
L 324.198375 62.819248 
L 324.797988 63.614856 
L 325.397602 64.447212 
L 325.997215 65.315852 
L 326.596828 66.205404 
L 327.196441 67.089758 
L 327.796054 67.940033 
L 328.395667 68.734963 
L 328.99528 69.46929 
L 329.594894 70.155225 
L 330.194507 70.815473 
L 330.79412 71.471422 
L 331.393733 72.132814 
L 331.993346 72.793578 
L 332.592959 73.434294 
L 333.192573 74.028459 
L 333.792186 74.549239 
L 334.391799 74.975071 
L 334.991412 75.294003 
L 335.591025 75.506798 
L 336.190638 75.628081 
L 336.790251 75.684411 
L 337.389865 75.708997 
L 337.989478 75.73433 
L 338.589091 75.785124 
L 339.188704 75.873947 
L 339.788317 76.000701 
L 340.38793 76.155654 
L 340.987544 76.324522 
L 341.587157 76.493682 
L 342.18677 76.653797 
L 342.786383 76.80092 
L 343.385996 76.935149 
L 343.985609 77.057962 
L 344.585222 77.169782 
L 345.184836 77.269028 
L 345.784449 77.352909 
L 346.384062 77.419171 
L 346.983675 77.467593 
L 347.583288 77.500386 
L 348.182901 77.521527 
L 348.782515 77.535654 
L 349.382128 77.547206 
L 349.981741 77.55995 
L 350.581354 77.57669 
L 351.180967 77.598885 
L 351.78058 77.626302 
L 352.380193 77.657025 
L 352.979807 77.688046 
L 353.57942 77.716266 
L 354.179033 77.739438 
L 354.778646 77.756653 
L 355.378259 77.768254 
L 355.977872 77.775359 
" style="fill:none;stroke:#ff0000;stroke-linecap:square;stroke-width:1.5;"/>
   </g>
   <g id="patch_11">
    <path d="M 296.61617 86.144 
L 355.977872 86.144 
" style="fill:none;stroke:#000000;stroke-linecap:square;stroke-linejoin:miter;stroke-width:1.5;"/>
   </g>
  </g>
  <g id="axes_6">
   <g id="patch_12">
    <path d="M 367.850213 81.144 
L 427.211915 81.144 
L 427.211915 7.2 
L 367.850213 7.2 
z
" style="fill:none;"/>
   </g>
   <g id="matplotlib.axis_11">
    <g id="xtick_11">
     <g id="line2d_21">
      <g>
       <use style="stroke:#000000;stroke-width:1.5;" x="367.850213" xlink:href="#m7f17175596" y="86.144"/>
      </g>
     </g>
     <g id="text_16">
      <!-- $\mathdefault{0.00}$   -->
      <g transform="translate(357.810213 98.87025)">
       <text>
        <tspan style="font-family:Arial;font-size:8px;font-style:regular;font-weight:regular;" x="0 4.449219 6.671875 11.121094 15.570312 17.792969" y="-0.25">0.00  </tspan>
       </text>
      </g>
     </g>
    </g>
    <g id="xtick_12">
     <g id="line2d_22">
      <g>
       <use style="stroke:#000000;stroke-width:1.5;" x="427.211915" xlink:href="#m7f17175596" y="86.144"/>
      </g>
     </g>
     <g id="text_17">
      <!-- $\mathdefault{12.50}\;\;\;$   -->
      <g transform="translate(412.171915 98.87025)">
       <text>
        <tspan style="font-family:Arial;font-size:8px;font-style:regular;font-weight:regular;" x="0 4.449219 8.898438 11.121094 15.570312 25.572961 27.795617" y="-0.25">12.50  </tspan>
       </text>
      </g>
     </g>
    </g>
    <g id="text_18">
     <text style="font-family:Arial;font-size:8px;font-style:normal;font-weight:normal;text-anchor:middle;" transform="rotate(-0, 397.531064, 110.1865)" x="397.531064" y="110.1865">PY-CaT</text>
    </g>
   </g>
   <g id="matplotlib.axis_12">
    <g id="ytick_21"/>
    <g id="ytick_22"/>
    <g id="ytick_23"/>
   </g>
   <g id="line2d_23">
    <path clip-path="url(#pa994be5b46)" d="M 367.850213 77.782909 
L 368.449826 77.782909 
L 369.049439 77.782909 
L 369.649052 77.782909 
L 370.248665 77.782909 
L 370.848279 77.782909 
L 371.447892 77.782909 
L 372.047505 77.782909 
L 372.647118 77.782909 
L 373.246731 77.782909 
L 373.846344 77.782909 
L 374.445957 77.782909 
L 375.045571 77.782909 
L 375.645184 77.782909 
L 376.244797 77.782909 
L 376.84441 77.782909 
L 377.444023 77.782909 
L 378.043636 77.782909 
L 378.64325 77.782909 
L 379.242863 77.782909 
L 379.842476 77.782909 
L 380.442089 77.782909 
L 381.041702 77.782908 
L 381.641315 77.782902 
L 382.240928 77.782876 
L 382.840542 77.782768 
L 383.440155 77.782383 
L 384.039768 77.781179 
L 384.639381 77.777894 
L 385.238994 77.770074 
L 385.838607 77.753851 
L 386.438221 77.724493 
L 387.037834 77.677977 
L 387.637447 77.612795 
L 388.23706 77.53035 
L 388.836673 77.433141 
L 389.436286 77.322783 
L 390.035899 77.201546 
L 390.635513 77.078006 
L 391.235126 76.971175 
L 391.834739 76.905813 
L 392.434352 76.898896 
L 393.033965 76.946667 
L 393.633578 77.022209 
L 394.233191 77.08426 
L 394.832805 77.089976 
L 395.432418 77.005483 
L 396.032031 76.813484 
L 396.631644 76.517862 
L 397.231257 76.141787 
L 397.83087 75.716292 
L 398.430484 75.263635 
L 399.030097 74.786725 
L 399.62971 74.273212 
L 400.229323 73.710581 
L 400.828936 73.097822 
L 401.428549 72.441408 
L 402.028162 71.738066 
L 402.627776 70.960617 
L 403.227389 70.062358 
L 403.827002 69.000818 
L 404.426615 67.766491 
L 405.026228 66.397611 
L 405.625841 64.969344 
L 406.225455 63.560069 
L 406.825068 62.212193 
L 407.424681 60.911353 
L 408.024294 59.597507 
L 408.623907 58.198698 
L 409.22352 56.663089 
L 409.823133 54.973391 
L 410.422747 53.148887 
L 411.02236 51.244902 
L 411.621973 49.341638 
L 412.221586 47.50574 
L 412.821199 45.734217 
L 413.420812 43.925254 
L 414.020426 41.913848 
L 414.620039 39.558632 
L 415.219652 36.823416 
L 415.819265 33.805648 
L 416.418878 30.705109 
L 417.018491 27.754108 
L 417.618104 25.133988 
L 418.217718 22.904391 
L 418.817331 20.979626 
L 419.416944 19.178346 
L 420.016557 17.333593 
L 420.61617 15.404212 
L 421.215783 13.518499 
L 421.815397 11.922959 
L 422.41501 10.875148 
L 423.014623 10.561091 
L 423.614236 11.102128 
L 424.213849 12.647548 
L 424.813462 15.468465 
L 425.413075 19.934785 
L 426.012689 26.318875 
L 426.612302 34.512086 
L 427.211915 43.858138 
" style="fill:none;stroke:#2e7fe8;stroke-linecap:square;stroke-width:1.5;"/>
   </g>
   <g id="line2d_24">
    <path clip-path="url(#pa994be5b46)" d="M 367.850213 77.699387 
L 368.449826 77.597952 
L 369.049439 77.407274 
L 369.649052 77.079861 
L 370.248665 76.56294 
L 370.848279 75.805664 
L 371.447892 74.763668 
L 372.047505 73.396836 
L 372.647118 71.660615 
L 373.246731 69.497574 
L 373.846344 66.83954 
L 374.445957 63.627647 
L 375.045571 59.848102 
L 375.645184 55.570092 
L 376.244797 50.965612 
L 376.84441 46.294463 
L 377.444023 41.851449 
L 378.043636 37.891561 
L 378.64325 34.562856 
L 379.242863 31.877027 
L 379.842476 29.731835 
L 380.442089 27.974935 
L 381.041702 26.477943 
L 381.641315 25.184607 
L 382.240928 24.111385 
L 382.840542 23.306158 
L 383.440155 22.795768 
L 384.039768 22.559098 
L 384.639381 22.543659 
L 385.238994 22.712273 
L 385.838607 23.084834 
L 386.438221 23.743816 
L 387.037834 24.79708 
L 387.637447 26.319345 
L 388.23706 28.306207 
L 388.836673 30.666097 
L 389.436286 33.25262 
L 390.035899 35.916187 
L 390.635513 38.544393 
L 391.235126 41.072373 
L 391.834739 43.469157 
L 392.434352 45.722903 
L 393.033965 47.841285 
L 393.633578 49.860518 
L 394.233191 51.842212 
L 394.832805 53.847313 
L 395.432418 55.899783 
L 396.032031 57.964872 
L 396.631644 59.956713 
L 397.231257 61.770082 
L 397.83087 63.320015 
L 398.430484 64.574522 
L 399.030097 65.570599 
L 399.62971 66.405916 
L 400.229323 67.203467 
L 400.828936 68.059862 
L 401.428549 69.00269 
L 402.028162 69.982761 
L 402.627776 70.907324 
L 403.227389 71.693975 
L 403.827002 72.312677 
L 404.426615 72.793794 
L 405.026228 73.203265 
L 405.625841 73.60467 
L 406.225455 74.031393 
L 406.825068 74.481442 
L 407.424681 74.931891 
L 408.024294 75.359128 
L 408.623907 75.751045 
L 409.22352 76.106324 
L 409.823133 76.426343 
L 410.422747 76.709011 
L 411.02236 76.94942 
L 411.621973 77.144929 
L 412.221586 77.298889 
L 412.821199 77.419604 
L 413.420812 77.515908 
L 414.020426 77.593221 
L 414.620039 77.65256 
L 415.219652 77.692128 
L 415.819265 77.709506 
L 416.418878 77.70314 
L 417.018491 77.673235 
L 417.618104 77.622676 
L 418.217718 77.558028 
L 418.817331 77.489756 
L 419.416944 77.43082 
L 420.016557 77.393654 
L 420.61617 77.386606 
L 421.215783 77.411334 
L 421.815397 77.462343 
L 422.41501 77.52887 
L 423.014623 77.598413 
L 423.614236 77.660439 
L 424.213849 77.708798 
L 424.813462 77.742128 
L 425.413075 77.762547 
L 426.012689 77.773701 
L 426.612302 77.779143 
L 427.211915 77.781518 
" style="fill:none;stroke:#ff0000;stroke-linecap:square;stroke-width:1.5;"/>
   </g>
   <g id="patch_13">
    <path d="M 367.850213 86.144 
L 427.211915 86.144 
" style="fill:none;stroke:#000000;stroke-linecap:square;stroke-linejoin:miter;stroke-width:1.5;"/>
   </g>
  </g>
  <g id="axes_7">
   <g id="patch_14">
    <path d="M 439.084255 81.144 
L 498.445957 81.144 
L 498.445957 7.2 
L 439.084255 7.2 
z
" style="fill:none;"/>
   </g>
   <g id="matplotlib.axis_13">
    <g id="xtick_13">
     <g id="line2d_25">
      <g>
       <use style="stroke:#000000;stroke-width:1.5;" x="439.084255" xlink:href="#m7f17175596" y="86.144"/>
      </g>
     </g>
     <g id="text_19">
      <!-- $\mathdefault{30.0}$   -->
      <g transform="translate(429.044255 98.87025)">
       <text>
        <tspan style="font-family:Arial;font-size:8px;font-style:regular;font-weight:regular;" x="0 4.449219 8.898438 11.121094 15.570312 17.792969" y="-0.25">30.0  </tspan>
       </text>
      </g>
     </g>
    </g>
    <g id="xtick_14">
     <g id="line2d_26">
      <g>
       <use style="stroke:#000000;stroke-width:1.5;" x="498.445957" xlink:href="#m7f17175596" y="86.144"/>
      </g>
     </g>
     <g id="text_20">
      <!-- $\mathdefault{60.0}\;\;\;$   -->
      <g transform="translate(485.645957 98.87025)">
       <text>
        <tspan style="font-family:Arial;font-size:8px;font-style:regular;font-weight:regular;" x="0 4.449219 8.898438 11.121094 21.123742 23.346399" y="-0.25">60.0  </tspan>
       </text>
      </g>
     </g>
    </g>
    <g id="text_21">
     <text style="font-family:Arial;font-size:8px;font-style:normal;font-weight:normal;text-anchor:middle;" transform="rotate(-0, 468.765106, 110.1865)" x="468.765106" y="110.1865">PY-A</text>
    </g>
   </g>
   <g id="matplotlib.axis_14">
    <g id="ytick_24"/>
    <g id="ytick_25"/>
    <g id="ytick_26"/>
    <g id="ytick_27"/>
   </g>
   <g id="line2d_27">
    <path clip-path="url(#pe522999cea)" d="M 439.084255 39.873131 
L 439.683868 34.680533 
L 440.283482 29.768043 
L 440.883095 25.283563 
L 441.482708 21.340551 
L 442.082321 18.011454 
L 442.681934 15.327126 
L 443.281547 13.281669 
L 443.881161 11.841132 
L 444.480774 10.953971 
L 445.080387 10.561091 
L 445.68 10.603779 
L 446.279613 11.028567 
L 446.879226 11.788895 
L 447.478839 12.844187 
L 448.078453 14.157357 
L 448.678066 15.691912 
L 449.277679 17.409621 
L 449.877292 19.269386 
L 450.476905 21.227537 
L 451.076518 23.239381 
L 451.676132 25.261615 
L 452.275745 27.255069 
L 452.875358 29.187255 
L 453.474971 31.034261 
L 454.074584 32.781684 
L 454.674197 34.424411 
L 455.27381 35.96526 
L 455.873424 37.412665 
L 456.473037 38.777754 
L 457.07265 40.07133 
L 457.672263 41.301336 
L 458.271876 42.471316 
L 458.871489 43.580231 
L 459.471103 44.623694 
L 460.070716 45.596348 
L 460.670329 46.494807 
L 461.269942 47.320414 
L 461.869555 48.081062 
L 462.469168 48.791523 
L 463.068781 49.472102 
L 463.668395 50.145812 
L 464.268008 50.83467 
L 464.867621 51.555907 
L 465.467234 52.318937 
L 466.066847 53.123736 
L 466.66646 53.96095 
L 467.266074 54.813685 
L 467.865687 55.66055 
L 468.4653 56.479315 
L 469.064913 57.25044 
L 469.664526 57.959863 
L 470.264139 58.600592 
L 470.863752 59.172991 
L 471.463366 59.683856 
L 472.062979 60.144637 
L 472.662592 60.569239 
L 473.262205 60.971855 
L 473.861818 61.365175 
L 474.461431 61.759208 
L 475.061044 62.160752 
L 475.660658 62.573435 
L 476.260271 62.998158 
L 476.859884 63.433726 
L 477.459497 63.877509 
L 478.05911 64.325993 
L 478.658723 64.77521 
L 479.258337 65.221056 
L 479.85795 65.659596 
L 480.457563 66.087404 
L 481.057176 66.502006 
L 481.656789 66.902397 
L 482.256402 67.289554 
L 482.856015 67.666828 
L 483.455629 68.04006 
L 484.055242 68.417306 
L 484.654855 68.8081 
L 485.254468 69.222308 
L 485.854081 69.668683 
L 486.453694 70.153359 
L 487.053308 70.67854 
L 487.652921 71.241636 
L 488.252534 71.835029 
L 488.852147 72.446572 
L 489.45176 73.060748 
L 490.051373 73.660352 
L 490.650986 74.228435 
L 491.2506 74.750245 
L 491.850213 75.214878 
L 492.449826 75.616436 
L 493.049439 75.954556 
L 493.649052 76.234253 
L 494.248665 76.465124 
L 494.848279 76.660024 
L 495.447892 76.833394 
L 496.047505 76.999454 
L 496.647118 77.170507 
L 497.246731 77.355571 
L 497.846344 77.559534 
L 498.445957 77.782909 
" style="fill:none;stroke:#2e7fe8;stroke-linecap:square;stroke-width:1.5;"/>
   </g>
   <g id="line2d_28">
    <path clip-path="url(#pe522999cea)" d="M 439.084255 63.740709 
L 439.683868 61.669596 
L 440.283482 59.605162 
L 440.883095 57.591066 
L 441.482708 55.668103 
L 442.082321 53.871649 
L 442.681934 52.22959 
L 443.281547 50.760964 
L 443.881161 49.475431 
L 444.480774 48.373597 
L 445.080387 47.448129 
L 445.68 46.685477 
L 446.279613 46.067961 
L 446.879226 45.575962 
L 447.478839 45.18992 
L 448.078453 44.89193 
L 448.678066 44.666762 
L 449.277679 44.502261 
L 449.877292 44.38914 
L 450.476905 44.320309 
L 451.076518 44.289921 
L 451.676132 44.292349 
L 452.275745 44.321297 
L 452.875358 44.369232 
L 453.474971 44.427211 
L 454.074584 44.48516 
L 454.674197 44.532519 
L 455.27381 44.559172 
L 455.873424 44.556482 
L 456.473037 44.518278 
L 457.07265 44.441639 
L 457.672263 44.327345 
L 458.271876 44.179948 
L 458.871489 44.007432 
L 459.471103 43.820531 
L 460.070716 43.631797 
L 460.670329 43.454546 
L 461.269942 43.301828 
L 461.869555 43.185552 
L 462.469168 43.115853 
L 463.068781 43.100752 
L 463.668395 43.146094 
L 464.268008 43.255711 
L 464.867621 43.431691 
L 465.467234 43.674659 
L 466.066847 43.983952 
L 466.66646 44.357633 
L 467.266074 44.79233 
L 467.865687 45.282951 
L 468.4653 45.82237 
L 469.064913 46.40121 
L 469.664526 47.007842 
L 470.264139 47.628692 
L 470.863752 48.248874 
L 471.463366 48.853111 
L 472.062979 49.426819 
L 472.662592 49.957202 
L 473.262205 50.434164 
L 473.861818 50.850895 
L 474.461431 51.204017 
L 475.061044 51.493283 
L 475.660658 51.720882 
L 476.260271 51.890506 
L 476.859884 52.006367 
L 477.459497 52.072355 
L 478.05911 52.091532 
L 478.658723 52.06604 
L 479.258337 51.997471 
L 479.85795 51.887612 
L 480.457563 51.739442 
L 481.057176 51.558176 
L 481.656789 51.352151 
L 482.256402 51.133359 
L 482.856015 50.917494 
L 483.455629 50.723435 
L 484.055242 50.572179 
L 484.654855 50.485326 
L 485.254468 50.483281 
L 485.854081 50.58341 
L 486.453694 50.798377 
L 487.053308 51.134911 
L 487.652921 51.593199 
L 488.252534 52.167001 
L 488.852147 52.844526 
L 489.45176 53.609957 
L 490.051373 54.445453 
L 490.650986 55.333339 
L 491.2506 56.258186 
L 491.850213 57.20848 
L 492.449826 58.177626 
L 493.049439 59.164136 
L 493.649052 60.170986 
L 494.248665 61.204238 
L 494.848279 62.271149 
L 495.447892 63.378066 
L 496.047505 64.52845 
L 496.647118 65.721308 
L 497.246731 66.950298 
L 497.846344 68.203602 
L 498.445957 69.464585 
" style="fill:none;stroke:#ff0000;stroke-linecap:square;stroke-width:1.5;"/>
   </g>
   <g id="patch_15">
    <path d="M 439.084255 86.144 
L 498.445957 86.144 
" style="fill:none;stroke:#000000;stroke-linecap:square;stroke-linejoin:miter;stroke-width:1.5;"/>
   </g>
  </g>
  <g id="axes_8">
   <g id="patch_16">
    <path d="M 510.318298 81.144 
L 569.68 81.144 
L 569.68 7.2 
L 510.318298 7.2 
z
" style="fill:none;"/>
   </g>
   <g id="matplotlib.axis_15">
    <g id="xtick_15">
     <g id="line2d_29">
      <g>
       <use style="stroke:#000000;stroke-width:1.5;" x="510.318298" xlink:href="#m7f17175596" y="86.144"/>
      </g>
     </g>
     <g id="text_22">
      <!-- $\mathdefault{0.01}$  -->
      <g transform="translate(501.398298 98.87025)">
       <text>
        <tspan style="font-family:Arial;font-size:8px;font-style:regular;font-weight:regular;" x="0 4.449219 6.671875 11.121094 15.570312" y="-0.25">0.01 </tspan>
       </text>
      </g>
     </g>
    </g>
    <g id="xtick_16">
     <g id="line2d_30">
      <g>
       <use style="stroke:#000000;stroke-width:1.5;" x="569.68" xlink:href="#m7f17175596" y="86.144"/>
      </g>
     </g>
     <g id="text_23">
      <!-- $\mathdefault{1000}\;\;\;\;$  -->
      <g transform="translate(555.96 98.87025)">
       <text>
        <tspan style="font-family:Arial;font-size:8px;font-style:regular;font-weight:regular;" x="0 4.449219 8.898438 13.347656 25.201448" y="-0.25">1000 </tspan>
       </text>
      </g>
     </g>
    </g>
    <g id="text_24">
     <!-- $\mathdefault{PD-PY}$ -->
     <g transform="translate(525.399149 110.1865)">
      <text>
       <tspan style="font-family:Arial;font-size:8px;font-style:regular;font-weight:regular;" x="0 5.335938 12.446094 18.450781 23.786719" y="-0.265625">PD−PY</tspan>
      </text>
     </g>
    </g>
   </g>
   <g id="matplotlib.axis_16">
    <g id="ytick_28"/>
    <g id="ytick_29"/>
    <g id="ytick_30"/>
   </g>
   <g id="line2d_31">
    <path clip-path="url(#p51f2b72bad)" d="M 510.318298 77.782909 
L 510.917911 77.782889 
L 511.517524 77.782732 
L 512.117137 77.781821 
L 512.71675 77.777802 
L 513.316364 77.764416 
L 513.915977 77.730888 
L 514.51559 77.668138 
L 515.115203 77.58156 
L 515.714816 77.497095 
L 516.314429 77.448944 
L 516.914043 77.458388 
L 517.513656 77.521159 
L 518.113269 77.609699 
L 518.712882 77.689117 
L 519.312495 77.736144 
L 519.912108 77.743983 
L 520.511721 77.71486 
L 521.111335 77.659383 
L 521.710948 77.603168 
L 522.310561 77.57635 
L 522.910174 77.581795 
L 523.509787 77.581755 
L 524.1094 77.534301 
L 524.709014 77.44778 
L 525.308627 77.38677 
L 525.90824 77.410621 
L 526.507853 77.512278 
L 527.107466 77.631109 
L 527.707079 77.714119 
L 528.306692 77.746216 
L 528.906306 77.73403 
L 529.505919 77.688312 
L 530.105532 77.628792 
L 530.705145 77.588811 
L 531.304758 77.5954 
L 531.904371 77.643532 
L 532.503985 77.700617 
L 533.103598 77.734775 
L 533.703211 77.731292 
L 534.302824 77.691492 
L 534.902437 77.633279 
L 535.50205 77.590434 
L 536.101663 77.592014 
L 536.701277 77.634668 
L 537.30089 77.68332 
L 537.900503 77.70072 
L 538.500116 77.673628 
L 539.099729 77.619156 
L 539.699342 77.571323 
L 540.298956 77.551609 
L 540.898569 77.55077 
L 541.498182 77.550282 
L 542.097795 77.554559 
L 542.697408 77.581971 
L 543.297021 77.6273 
L 543.896634 77.650027 
L 544.496248 77.59646 
L 545.095861 77.42514 
L 545.695474 77.127353 
L 546.295087 76.746357 
L 546.8947 76.371063 
L 547.494313 76.081559 
L 548.093926 75.884666 
L 548.69354 75.709755 
L 549.293153 75.475538 
L 549.892766 75.164479 
L 550.492379 74.826557 
L 551.091992 74.480791 
L 551.691605 73.989343 
L 552.291219 73.040431 
L 552.890832 71.28012 
L 553.490445 68.505545 
L 554.090058 64.793299 
L 554.689671 60.460652 
L 555.289284 55.88523 
L 555.888897 51.328296 
L 556.488511 46.837712 
L 557.088124 42.253414 
L 557.687737 37.385031 
L 558.28735 32.28474 
L 558.886963 27.330331 
L 559.486576 22.976324 
L 560.08619 19.372639 
L 560.685803 16.237961 
L 561.285416 13.285202 
L 561.885029 10.948432 
L 562.484642 10.561091 
L 563.084255 13.57387 
L 563.683868 20.550111 
L 564.283482 30.824459 
L 564.883095 42.811206 
L 565.482708 54.534517 
L 566.082321 64.241238 
L 566.681934 70.994895 
L 567.281547 74.898967 
L 567.881161 76.756397 
L 568.480774 77.479385 
L 569.080387 77.708861 
L 569.68 77.768107 
" style="fill:none;stroke:#2e7fe8;stroke-linecap:square;stroke-width:1.5;"/>
   </g>
   <g id="line2d_32">
    <path clip-path="url(#p51f2b72bad)" d="M 510.318298 77.097051 
L 510.917911 76.940016 
L 511.517524 76.776909 
L 512.117137 76.612574 
L 512.71675 76.450762 
L 513.316364 76.293847 
L 513.915977 76.143023 
L 514.51559 75.998851 
L 515.115203 75.861924 
L 515.714816 75.733379 
L 516.314429 75.61506 
L 516.914043 75.509265 
L 517.513656 75.418164 
L 518.113269 75.343088 
L 518.712882 75.283993 
L 519.312495 75.239335 
L 519.912108 75.206516 
L 520.511721 75.182795 
L 521.111335 75.16639 
L 521.710948 75.15732 
L 522.310561 75.157581 
L 522.910174 75.170444 
L 523.509787 75.199015 
L 524.1094 75.244478 
L 524.709014 75.304649 
L 525.308627 75.373348 
L 525.90824 75.440897 
L 526.507853 75.495636 
L 527.107466 75.526047 
L 527.707079 75.522933 
L 528.306692 75.481079 
L 528.906306 75.400026 
L 529.505919 75.283858 
L 530.105532 75.140151 
L 530.705145 74.978427 
L 531.304758 74.808531 
L 531.904371 74.639261 
L 532.503985 74.477465 
L 533.103598 74.327565 
L 533.703211 74.191371 
L 534.302824 74.067946 
L 534.902437 73.953358 
L 535.50205 73.840287 
L 536.101663 73.71758 
L 536.701277 73.570034 
L 537.30089 73.378678 
L 537.900503 73.121839 
L 538.500116 72.7771 
L 539.099729 72.324033 
L 539.699342 71.747275 
L 540.298956 71.039234 
L 540.898569 70.201589 
L 541.498182 69.244947 
L 542.097795 68.186469 
L 542.697408 67.045929 
L 543.297021 65.841249 
L 543.896634 64.584814 
L 544.496248 63.281717 
L 545.095861 61.930576 
L 545.695474 60.526815 
L 546.295087 59.067606 
L 546.8947 57.557126 
L 547.494313 56.010567 
L 548.093926 54.455568 
L 548.69354 52.930414 
L 549.293153 51.479321 
L 549.892766 50.146178 
L 550.492379 48.968707 
L 551.091992 47.974871 
L 551.691605 47.182471 
L 552.291219 46.601569 
L 552.890832 46.238295 
L 553.490445 46.098212 
L 554.090058 46.187961 
L 554.689671 46.51494 
L 555.289284 47.085786 
L 555.888897 47.904824 
L 556.488511 48.973259 
L 557.088124 50.289065 
L 557.687737 51.846726 
L 558.28735 53.63583 
L 558.886963 55.63805 
L 559.486576 57.823098 
L 560.08619 60.145224 
L 560.685803 62.542172 
L 561.285416 64.938027 
L 561.885029 67.25015 
L 562.484642 69.398926 
L 563.084255 71.317995 
L 563.683868 72.962386 
L 564.283482 74.312623 
L 564.883095 75.374144 
L 565.482708 76.172681 
L 566.082321 76.747232 
L 566.681934 77.142515 
L 567.281547 77.402505 
L 567.881161 77.565965 
L 568.480774 77.664193 
L 569.080387 77.720607 
L 569.68 77.751568 
" style="fill:none;stroke:#ff0000;stroke-linecap:square;stroke-width:1.5;"/>
   </g>
   <g id="patch_17">
    <path d="M 510.318298 86.144 
L 569.68 86.144 
" style="fill:none;stroke:#000000;stroke-linecap:square;stroke-linejoin:miter;stroke-width:1.5;"/>
   </g>
   <g id="text_25">
    <text style="font-family:Arial;font-size:16px;font-style:normal;font-weight:normal;text-anchor:start;" transform="rotate(-0, 577.100213, 44.172)" x="577.100213" y="44.172">...</text>
   </g>
  </g>
 </g>
 <defs>
  <clipPath id="p06cb3f2d1c">
   <rect height="73.944" width="59.361702" x="11.68" y="7.2"/>
  </clipPath>
  <clipPath id="p61e5d8e69f">
   <rect height="73.944" width="59.361702" x="82.914043" y="7.2"/>
  </clipPath>
  <clipPath id="pa37164ebcf">
   <rect height="73.944" width="59.361702" x="154.148085" y="7.2"/>
  </clipPath>
  <clipPath id="p35e2c47eea">
   <rect height="73.944" width="59.361702" x="225.382128" y="7.2"/>
  </clipPath>
  <clipPath id="pcbbe472e74">
   <rect height="73.944" width="59.361702" x="296.61617" y="7.2"/>
  </clipPath>
  <clipPath id="pa994be5b46">
   <rect height="73.944" width="59.361702" x="367.850213" y="7.2"/>
  </clipPath>
  <clipPath id="pe522999cea">
   <rect height="73.944" width="59.361702" x="439.084255" y="7.2"/>
  </clipPath>
  <clipPath id="p51f2b72bad">
   <rect height="73.944" width="59.361702" x="510.318298" y="7.2"/>
  </clipPath>
 </defs>
</svg>
