<?xml version="1.0" encoding="utf-8" standalone="no"?>
<!DOCTYPE svg PUBLIC "-//W3C//DTD SVG 1.1//EN"
  "http://www.w3.org/Graphics/SVG/1.1/DTD/svg11.dtd">
<!-- Created with matplotlib (https://matplotlib.org/) -->
<svg height="100.641pt" version="1.1" viewBox="0 0 141.8025 100.641" width="141.8025pt" xmlns="http://www.w3.org/2000/svg" xmlns:xlink="http://www.w3.org/1999/xlink">
 <metadata>
  <rdf:RDF xmlns:cc="http://creativecommons.org/ns#" xmlns:dc="http://purl.org/dc/elements/1.1/" xmlns:rdf="http://www.w3.org/1999/02/22-rdf-syntax-ns#">
   <cc:Work>
    <dc:type rdf:resource="http://purl.org/dc/dcmitype/StillImage"/>
    <dc:date>2020-10-20T16:29:50.923809</dc:date>
    <dc:format>image/svg+xml</dc:format>
    <dc:creator>
     <cc:Agent>
      <dc:title>Matplotlib v3.3.2, https://matplotlib.org/</dc:title>
     </cc:Agent>
    </dc:creator>
   </cc:Work>
  </rdf:RDF>
 </metadata>
 <defs>
  <style type="text/css">*{stroke-linecap:butt;stroke-linejoin:round;}</style>
 </defs>
 <g id="figure_1">
  <g id="patch_1">
   <path d="M 0 100.641 
L 141.8025 100.641 
L 141.8025 0 
L 0 0 
z
" style="fill:none;"/>
  </g>
  <g id="axes_1">
   <g id="patch_2">
    <path d="M 38.9225 66.956 
L 94.7225 66.956 
L 94.7225 11.516 
L 38.9225 11.516 
z
" style="fill:#ffffff;"/>
   </g>
   <g id="PathCollection_1">
    <defs>
     <path d="M 0 1.581139 
C 0.419323 1.581139 0.821528 1.41454 1.118034 1.118034 
C 1.41454 0.821528 1.581139 0.419323 1.581139 0 
C 1.581139 -0.419323 1.41454 -0.821528 1.118034 -1.118034 
C 0.821528 -1.41454 0.419323 -1.581139 0 -1.581139 
C -0.419323 -1.581139 -0.821528 -1.41454 -1.118034 -1.118034 
C -1.41454 -0.821528 -1.581139 -0.419323 -1.581139 0 
C -1.581139 0.419323 -1.41454 0.821528 -1.118034 1.118034 
C -0.821528 1.41454 -0.419323 1.581139 0 1.581139 
z
" id="m39281ee631" style="stroke:#1b9e77;"/>
    </defs>
    <g clip-path="url(#p0adb96822e)">
     <use style="fill:#1b9e77;stroke:#1b9e77;" x="50.527385" xlink:href="#m39281ee631" y="50.186066"/>
    </g>
   </g>
   <g id="PathCollection_2">
    <defs>
     <path d="M 0 1.581139 
C 0.419323 1.581139 0.821528 1.41454 1.118034 1.118034 
C 1.41454 0.821528 1.581139 0.419323 1.581139 0 
C 1.581139 -0.419323 1.41454 -0.821528 1.118034 -1.118034 
C 0.821528 -1.41454 0.419323 -1.581139 0 -1.581139 
C -0.419323 -1.581139 -0.821528 -1.41454 -1.118034 -1.118034 
C -1.41454 -0.821528 -1.581139 -0.419323 -1.581139 0 
C -1.581139 0.419323 -1.41454 0.821528 -1.118034 1.118034 
C -0.821528 1.41454 -0.419323 1.581139 0 1.581139 
z
" id="mc756e6991c" style="stroke:#d95f02;"/>
    </defs>
    <g clip-path="url(#p0adb96822e)">
     <use style="fill:#d95f02;stroke:#d95f02;" x="46.663708" xlink:href="#mc756e6991c" y="48.424637"/>
    </g>
   </g>
   <g id="PathCollection_3">
    <defs>
     <path d="M 0 1.581139 
C 0.419323 1.581139 0.821528 1.41454 1.118034 1.118034 
C 1.41454 0.821528 1.581139 0.419323 1.581139 0 
C 1.581139 -0.419323 1.41454 -0.821528 1.118034 -1.118034 
C 0.821528 -1.41454 0.419323 -1.581139 0 -1.581139 
C -0.419323 -1.581139 -0.821528 -1.41454 -1.118034 -1.118034 
C -1.41454 -0.821528 -1.581139 -0.419323 -1.581139 0 
C -1.581139 0.419323 -1.41454 0.821528 -1.118034 1.118034 
C -0.821528 1.41454 -0.419323 1.581139 0 1.581139 
z
" id="m4c23e2e9dc" style="stroke:#7570b3;"/>
    </defs>
    <g clip-path="url(#p0adb96822e)">
     <use style="fill:#7570b3;stroke:#7570b3;" x="44.887839" xlink:href="#m4c23e2e9dc" y="53.347834"/>
    </g>
   </g>
   <g id="PathCollection_4">
    <defs>
     <path d="M 0 1.581139 
C 0.419323 1.581139 0.821528 1.41454 1.118034 1.118034 
C 1.41454 0.821528 1.581139 0.419323 1.581139 0 
C 1.581139 -0.419323 1.41454 -0.821528 1.118034 -1.118034 
C 0.821528 -1.41454 0.419323 -1.581139 0 -1.581139 
C -0.419323 -1.581139 -0.821528 -1.41454 -1.118034 -1.118034 
C -1.41454 -0.821528 -1.581139 -0.419323 -1.581139 0 
C -1.581139 0.419323 -1.41454 0.821528 -1.118034 1.118034 
C -0.821528 1.41454 -0.419323 1.581139 0 1.581139 
z
" id="m0e31679aeb" style="stroke:#e7298a;"/>
    </defs>
    <g clip-path="url(#p0adb96822e)">
     <use style="fill:#e7298a;stroke:#e7298a;" x="42.835581" xlink:href="#m0e31679aeb" y="52.653215"/>
    </g>
   </g>
   <g id="PathCollection_5">
    <defs>
     <path d="M 0 1.581139 
C 0.419323 1.581139 0.821528 1.41454 1.118034 1.118034 
C 1.41454 0.821528 1.581139 0.419323 1.581139 0 
C 1.581139 -0.419323 1.41454 -0.821528 1.118034 -1.118034 
C 0.821528 -1.41454 0.419323 -1.581139 0 -1.581139 
C -0.419323 -1.581139 -0.821528 -1.41454 -1.118034 -1.118034 
C -1.41454 -0.821528 -1.581139 -0.419323 -1.581139 0 
C -1.581139 0.419323 -1.41454 0.821528 -1.118034 1.118034 
C -0.821528 1.41454 -0.419323 1.581139 0 1.581139 
z
" id="m9471feee01" style="stroke:#66a61e;"/>
    </defs>
    <g clip-path="url(#p0adb96822e)">
     <use style="fill:#66a61e;stroke:#66a61e;" x="39.74426" xlink:href="#m9471feee01" y="62.226173"/>
    </g>
   </g>
   <g id="PathCollection_6">
    <defs>
     <path d="M 0 1.581139 
C 0.419323 1.581139 0.821528 1.41454 1.118034 1.118034 
C 1.41454 0.821528 1.581139 0.419323 1.581139 0 
C 1.581139 -0.419323 1.41454 -0.821528 1.118034 -1.118034 
C 0.821528 -1.41454 0.419323 -1.581139 0 -1.581139 
C -0.419323 -1.581139 -0.821528 -1.41454 -1.118034 -1.118034 
C -1.41454 -0.821528 -1.581139 -0.419323 -1.581139 0 
C -1.581139 0.419323 -1.41454 0.821528 -1.118034 1.118034 
C -0.821528 1.41454 -0.419323 1.581139 0 1.581139 
z
" id="m5fd031bed9" style="stroke:#e6ab02;"/>
    </defs>
    <g clip-path="url(#p0adb96822e)">
     <use style="fill:#e6ab02;stroke:#e6ab02;" x="62.450486" xlink:href="#m5fd031bed9" y="60.400769"/>
    </g>
   </g>
   <g id="PathCollection_7">
    <defs>
     <path d="M 0 1.581139 
C 0.419323 1.581139 0.821528 1.41454 1.118034 1.118034 
C 1.41454 0.821528 1.581139 0.419323 1.581139 0 
C 1.581139 -0.419323 1.41454 -0.821528 1.118034 -1.118034 
C 0.821528 -1.41454 0.419323 -1.581139 0 -1.581139 
C -0.419323 -1.581139 -0.821528 -1.41454 -1.118034 -1.118034 
C -1.41454 -0.821528 -1.581139 -0.419323 -1.581139 0 
C -1.581139 0.419323 -1.41454 0.821528 -1.118034 1.118034 
C -0.821528 1.41454 -0.419323 1.581139 0 1.581139 
z
" id="m70eea57279" style="stroke:#a6761d;"/>
    </defs>
    <g clip-path="url(#p0adb96822e)">
     <use style="fill:#a6761d;stroke:#a6761d;" x="38.933024" xlink:href="#m70eea57279" y="66.932737"/>
    </g>
   </g>
   <g id="PathCollection_8">
    <defs>
     <path d="M 0 1.581139 
C 0.419323 1.581139 0.821528 1.41454 1.118034 1.118034 
C 1.41454 0.821528 1.581139 0.419323 1.581139 0 
C 1.581139 -0.419323 1.41454 -0.821528 1.118034 -1.118034 
C 0.821528 -1.41454 0.419323 -1.581139 0 -1.581139 
C -0.419323 -1.581139 -0.821528 -1.41454 -1.118034 -1.118034 
C -1.41454 -0.821528 -1.581139 -0.419323 -1.581139 0 
C -1.581139 0.419323 -1.41454 0.821528 -1.118034 1.118034 
C -0.821528 1.41454 -0.419323 1.581139 0 1.581139 
z
" id="m94b17688bd" style="stroke:#666666;"/>
    </defs>
    <g clip-path="url(#p0adb96822e)">
     <use style="fill:#666666;stroke:#666666;" x="38.940447" xlink:href="#m94b17688bd" y="66.457619"/>
    </g>
   </g>
   <g id="PathCollection_9">
    <defs>
     <path d="M 0 -1.581139 
L -1.581139 1.581139 
L 1.581139 1.581139 
z
" id="mfea11b5b71" style="stroke:#1b9e77;"/>
    </defs>
    <g clip-path="url(#p0adb96822e)">
     <use style="fill:#1b9e77;stroke:#1b9e77;" x="44.874752" xlink:href="#mfea11b5b71" y="62.685816"/>
    </g>
   </g>
   <g id="PathCollection_10">
    <defs>
     <path d="M 0 -1.581139 
L -1.581139 1.581139 
L 1.581139 1.581139 
z
" id="m78d6ebe311" style="stroke:#d95f02;"/>
    </defs>
    <g clip-path="url(#p0adb96822e)">
     <use style="fill:#d95f02;stroke:#d95f02;" x="41.265043" xlink:href="#m78d6ebe311" y="58.556768"/>
    </g>
   </g>
   <g id="PathCollection_11">
    <defs>
     <path d="M 0 -1.581139 
L -1.581139 1.581139 
L 1.581139 1.581139 
z
" id="me273f5c50c" style="stroke:#7570b3;"/>
    </defs>
    <g clip-path="url(#p0adb96822e)">
     <use style="fill:#7570b3;stroke:#7570b3;" x="45.982938" xlink:href="#me273f5c50c" y="50.617363"/>
    </g>
   </g>
   <g id="PathCollection_12">
    <defs>
     <path d="M 0 -1.581139 
L -1.581139 1.581139 
L 1.581139 1.581139 
z
" id="m9969560ebe" style="stroke:#e7298a;"/>
    </defs>
    <g clip-path="url(#p0adb96822e)">
     <use style="fill:#e7298a;stroke:#e7298a;" x="42.465358" xlink:href="#m9969560ebe" y="58.621344"/>
    </g>
   </g>
   <g id="PathCollection_13">
    <defs>
     <path d="M 0 -1.581139 
L -1.581139 1.581139 
L 1.581139 1.581139 
z
" id="m5cda4f797d" style="stroke:#66a61e;"/>
    </defs>
    <g clip-path="url(#p0adb96822e)">
     <use style="fill:#66a61e;stroke:#66a61e;" x="39.31011" xlink:href="#m5cda4f797d" y="66.572412"/>
    </g>
   </g>
   <g id="PathCollection_14">
    <defs>
     <path d="M 0 -1.581139 
L -1.581139 1.581139 
L 1.581139 1.581139 
z
" id="m8fb88dde74" style="stroke:#e6ab02;"/>
    </defs>
    <g clip-path="url(#p0adb96822e)">
     <use style="fill:#e6ab02;stroke:#e6ab02;" x="49.240881" xlink:href="#m8fb88dde74" y="61.339185"/>
    </g>
   </g>
   <g id="PathCollection_15">
    <defs>
     <path d="M 0 -1.581139 
L -1.581139 1.581139 
L 1.581139 1.581139 
z
" id="mf07c1dd684" style="stroke:#a6761d;"/>
    </defs>
    <g clip-path="url(#p0adb96822e)">
     <use style="fill:#a6761d;stroke:#a6761d;" x="38.950978" xlink:href="#mf07c1dd684" y="66.398581"/>
    </g>
   </g>
   <g id="PathCollection_16">
    <defs>
     <path d="M 0 -1.581139 
L -1.581139 1.581139 
L 1.581139 1.581139 
z
" id="mcb41898580" style="stroke:#666666;"/>
    </defs>
    <g clip-path="url(#p0adb96822e)">
     <use style="fill:#666666;stroke:#666666;" x="39.012716" xlink:href="#mcb41898580" y="64.651039"/>
    </g>
   </g>
   <g id="PathCollection_17">
    <defs>
     <path d="M -1.581139 1.581139 
L 1.581139 1.581139 
L 1.581139 -1.581139 
L -1.581139 -1.581139 
z
" id="m265a0caaa4" style="stroke:#1b9e77;"/>
    </defs>
    <g clip-path="url(#p0adb96822e)">
     <use style="fill:#1b9e77;stroke:#1b9e77;" x="64.422257" xlink:href="#m265a0caaa4" y="35.420842"/>
    </g>
   </g>
   <g id="PathCollection_18">
    <defs>
     <path d="M -1.581139 1.581139 
L 1.581139 1.581139 
L 1.581139 -1.581139 
L -1.581139 -1.581139 
z
" id="m586dc045bb" style="stroke:#d95f02;"/>
    </defs>
    <g clip-path="url(#p0adb96822e)">
     <use style="fill:#d95f02;stroke:#d95f02;" x="61.399339" xlink:href="#m586dc045bb" y="28.937983"/>
    </g>
   </g>
   <g id="PathCollection_19">
    <defs>
     <path d="M -1.581139 1.581139 
L 1.581139 1.581139 
L 1.581139 -1.581139 
L -1.581139 -1.581139 
z
" id="m318aa20721" style="stroke:#7570b3;"/>
    </defs>
    <g clip-path="url(#p0adb96822e)">
     <use style="fill:#7570b3;stroke:#7570b3;" x="43.684546" xlink:href="#m318aa20721" y="45.112318"/>
    </g>
   </g>
   <g id="PathCollection_20">
    <defs>
     <path d="M -1.581139 1.581139 
L 1.581139 1.581139 
L 1.581139 -1.581139 
L -1.581139 -1.581139 
z
" id="mafd6928497" style="stroke:#e7298a;"/>
    </defs>
    <g clip-path="url(#p0adb96822e)">
     <use style="fill:#e7298a;stroke:#e7298a;" x="47.600316" xlink:href="#mafd6928497" y="49.187626"/>
    </g>
   </g>
   <g id="PathCollection_21">
    <defs>
     <path d="M -1.581139 1.581139 
L 1.581139 1.581139 
L 1.581139 -1.581139 
L -1.581139 -1.581139 
z
" id="mec80e105b3" style="stroke:#66a61e;"/>
    </defs>
    <g clip-path="url(#p0adb96822e)">
     <use style="fill:#66a61e;stroke:#66a61e;" x="39.374732" xlink:href="#mec80e105b3" y="56.628928"/>
    </g>
   </g>
   <g id="PathCollection_22">
    <defs>
     <path d="M -1.581139 1.581139 
L 1.581139 1.581139 
L 1.581139 -1.581139 
L -1.581139 -1.581139 
z
" id="m10da80b47b" style="stroke:#e6ab02;"/>
    </defs>
    <g clip-path="url(#p0adb96822e)">
     <use style="fill:#e6ab02;stroke:#e6ab02;" x="92.349197" xlink:href="#m10da80b47b" y="60.058442"/>
    </g>
   </g>
   <g id="PathCollection_23">
    <defs>
     <path d="M -1.581139 1.581139 
L 1.581139 1.581139 
L 1.581139 -1.581139 
L -1.581139 -1.581139 
z
" id="m746d7a6269" style="stroke:#a6761d;"/>
    </defs>
    <g clip-path="url(#p0adb96822e)">
     <use style="fill:#a6761d;stroke:#a6761d;" x="38.960178" xlink:href="#m746d7a6269" y="65.19914"/>
    </g>
   </g>
   <g id="PathCollection_24">
    <defs>
     <path d="M -1.581139 1.581139 
L 1.581139 1.581139 
L 1.581139 -1.581139 
L -1.581139 -1.581139 
z
" id="m5dee722930" style="stroke:#666666;"/>
    </defs>
    <g clip-path="url(#p0adb96822e)">
     <use style="fill:#666666;stroke:#666666;" x="39.035444" xlink:href="#m5dee722930" y="61.402613"/>
    </g>
   </g>
   <g id="matplotlib.axis_1">
    <g id="xtick_1">
     <g id="line2d_1">
      <defs>
       <path d="M 0 0 
L 0 3.5 
" id="mfab63bd561" style="stroke:#000000;stroke-width:1.5;"/>
      </defs>
      <g>
       <use style="stroke:#000000;stroke-width:1.5;" x="38.9225" xlink:href="#mfab63bd561" y="66.956"/>
      </g>
     </g>
     <g id="text_1">
      <text style="font-family:DejaVu Sans;font-size:8px;font-stretch:normal;font-style:normal;font-weight:normal;text-anchor:middle;" transform="rotate(-0, 38.9225, 80.03475)" x="38.9225" y="80.03475">0.0</text>
     </g>
    </g>
    <g id="xtick_2">
     <g id="line2d_2">
      <g>
       <use style="stroke:#000000;stroke-width:1.5;" x="74.691731" xlink:href="#mfab63bd561" y="66.956"/>
      </g>
     </g>
     <g id="text_2">
      <text style="font-family:DejaVu Sans;font-size:8px;font-stretch:normal;font-style:normal;font-weight:normal;text-anchor:middle;" transform="rotate(-0, 74.691731, 80.03475)" x="74.691731" y="80.03475">0.5</text>
     </g>
    </g>
    <g id="text_3">
     <text style="font-family:DejaVu Sans;font-size:8px;font-stretch:normal;font-style:normal;font-weight:normal;text-anchor:middle;" transform="rotate(-0, 66.8225, 91.77725)" x="66.8225" y="91.77725">Consumed Energy</text>
    </g>
   </g>
   <g id="matplotlib.axis_2">
    <g id="ytick_1">
     <g id="line2d_3">
      <defs>
       <path d="M 0 0 
L -3.5 0 
" id="m85e06ebb76" style="stroke:#000000;stroke-width:1.5;"/>
      </defs>
      <g>
       <use style="stroke:#000000;stroke-width:1.5;" x="38.9225" xlink:href="#m85e06ebb76" y="66.956"/>
      </g>
     </g>
     <g id="text_4">
      <text style="font-family:DejaVu Sans;font-size:8px;font-stretch:normal;font-style:normal;font-weight:normal;text-anchor:end;" transform="rotate(-0, 31.9225, 69.995375)" x="31.9225" y="69.995375">0.0</text>
     </g>
    </g>
    <g id="ytick_2">
     <g id="line2d_4">
      <g>
       <use style="stroke:#000000;stroke-width:1.5;" x="38.9225" xlink:href="#m85e06ebb76" y="31.417538"/>
      </g>
     </g>
     <g id="text_5">
      <text style="font-family:DejaVu Sans;font-size:8px;font-stretch:normal;font-style:normal;font-weight:normal;text-anchor:end;" transform="rotate(-0, 31.9225, 34.456913)" x="31.9225" y="34.456913">0.5</text>
     </g>
    </g>
    <g id="text_6">
     <text style="font-family:DejaVu Sans;font-size:8px;font-stretch:normal;font-style:normal;font-weight:normal;text-anchor:middle;" transform="rotate(-90, 13.31375, 39.236)" x="13.31375" y="39.236">|active dim|</text>
    </g>
   </g>
   <g id="line2d_5">
    <path clip-path="url(#p0adb96822e)" d="M 38.9225 66.956 
L 88.999423 17.202154 
" style="fill:none;stroke:#808080;stroke-linecap:square;stroke-opacity:0.5;stroke-width:1.5;"/>
   </g>
   <g id="patch_3">
    <path d="M 38.9225 66.956 
L 38.9225 11.516 
" style="fill:none;stroke:#000000;stroke-linecap:square;stroke-linejoin:miter;stroke-width:1.5;"/>
   </g>
   <g id="patch_4">
    <path d="M 38.9225 66.956 
L 94.7225 66.956 
" style="fill:none;stroke:#000000;stroke-linecap:square;stroke-linejoin:miter;stroke-width:1.5;"/>
   </g>
   <g id="legend_1">
    <g id="text_7">
     <text style="font-family:DejaVu Sans;font-size:8px;font-stretch:normal;font-style:normal;font-weight:normal;text-anchor:start;" transform="rotate(-0, 107.715, 16.47875)" x="107.715" y="16.47875">Na</text>
    </g>
    <g id="PathCollection_25">
     <g>
      <use style="fill:#1b9e77;stroke:#1b9e77;" x="123.4025" xlink:href="#m39281ee631" y="14.37875"/>
     </g>
    </g>
    <g id="text_8">
     <text style="font-family:DejaVu Sans;font-size:8px;font-stretch:normal;font-style:normal;font-weight:normal;text-anchor:start;" transform="rotate(-0, 103.2275, 25.82125)" x="103.2275" y="25.82125">CaT</text>
    </g>
    <g id="PathCollection_26">
     <g>
      <use style="fill:#d95f02;stroke:#d95f02;" x="123.4025" xlink:href="#mc756e6991c" y="23.72125"/>
     </g>
    </g>
    <g id="text_9">
     <text style="font-family:DejaVu Sans;font-size:8px;font-stretch:normal;font-style:normal;font-weight:normal;text-anchor:start;" transform="rotate(-0, 103.035, 35.16375)" x="103.035" y="35.16375">CaS</text>
    </g>
    <g id="PathCollection_27">
     <g>
      <use style="fill:#7570b3;stroke:#7570b3;" x="123.4025" xlink:href="#m4c23e2e9dc" y="33.06375"/>
     </g>
    </g>
    <g id="text_10">
     <text style="font-family:DejaVu Sans;font-size:8px;font-stretch:normal;font-style:normal;font-weight:normal;text-anchor:start;" transform="rotate(-0, 113.13, 44.50625)" x="113.13" y="44.50625">A</text>
    </g>
    <g id="PathCollection_28">
     <g>
      <use style="fill:#e7298a;stroke:#e7298a;" x="123.4025" xlink:href="#m0e31679aeb" y="42.40625"/>
     </g>
    </g>
    <g id="text_11">
     <text style="font-family:DejaVu Sans;font-size:8px;font-stretch:normal;font-style:normal;font-weight:normal;text-anchor:start;" transform="rotate(-0, 103.3075, 53.84875)" x="103.3075" y="53.84875">KCa</text>
    </g>
    <g id="PathCollection_29">
     <g>
      <use style="fill:#66a61e;stroke:#66a61e;" x="123.4025" xlink:href="#m9471feee01" y="51.74875"/>
     </g>
    </g>
    <g id="text_12">
     <text style="font-family:DejaVu Sans;font-size:8px;font-stretch:normal;font-style:normal;font-weight:normal;text-anchor:start;" transform="rotate(-0, 108.2775, 63.19125)" x="108.2775" y="63.19125">Kd</text>
    </g>
    <g id="PathCollection_30">
     <g>
      <use style="fill:#e6ab02;stroke:#e6ab02;" x="123.4025" xlink:href="#m5fd031bed9" y="61.09125"/>
     </g>
    </g>
    <g id="text_13">
     <text style="font-family:DejaVu Sans;font-size:8px;font-stretch:normal;font-style:normal;font-weight:normal;text-anchor:start;" transform="rotate(-0, 112.58625, 72.53375)" x="112.58625" y="72.53375">H</text>
    </g>
    <g id="PathCollection_31">
     <g>
      <use style="fill:#a6761d;stroke:#a6761d;" x="123.4025" xlink:href="#m70eea57279" y="70.43375"/>
     </g>
    </g>
    <g id="text_14">
     <text style="font-family:DejaVu Sans;font-size:8px;font-stretch:normal;font-style:normal;font-weight:normal;text-anchor:start;" transform="rotate(-0, 101.9225, 81.87625)" x="101.9225" y="81.87625">leak</text>
    </g>
    <g id="PathCollection_32">
     <g>
      <use style="fill:#666666;stroke:#666666;" x="123.4025" xlink:href="#m94b17688bd" y="79.77625"/>
     </g>
    </g>
   </g>
  </g>
 </g>
 <defs>
  <clipPath id="p0adb96822e">
   <rect height="55.44" width="55.8" x="38.9225" y="11.516"/>
  </clipPath>
 </defs>
</svg>
