<?xml version="1.0" encoding="utf-8" standalone="no"?>
<!DOCTYPE svg PUBLIC "-//W3C//DTD SVG 1.1//EN"
  "http://www.w3.org/Graphics/SVG/1.1/DTD/svg11.dtd">
<!-- Created with matplotlib (https://matplotlib.org/) -->
<svg height="86.025625pt" version="1.1" viewBox="0 0 213.265 86.025625" width="213.265pt" xmlns="http://www.w3.org/2000/svg" xmlns:xlink="http://www.w3.org/1999/xlink">
 <metadata>
  <rdf:RDF xmlns:cc="http://creativecommons.org/ns#" xmlns:dc="http://purl.org/dc/elements/1.1/" xmlns:rdf="http://www.w3.org/1999/02/22-rdf-syntax-ns#">
   <cc:Work>
    <dc:type rdf:resource="http://purl.org/dc/dcmitype/StillImage"/>
    <dc:date>2020-09-24T19:10:27.041315</dc:date>
    <dc:format>image/svg+xml</dc:format>
    <dc:creator>
     <cc:Agent>
      <dc:title>Matplotlib v3.3.2, https://matplotlib.org/</dc:title>
     </cc:Agent>
    </dc:creator>
   </cc:Work>
  </rdf:RDF>
 </metadata>
 <defs>
  <style type="text/css">*{stroke-linecap:butt;stroke-linejoin:round;}</style>
 </defs>
 <g id="figure_1">
  <g id="patch_1">
   <path d="M 0 86.025625 
L 213.265 86.025625 
L 213.265 0 
L 0 0 
z
" style="fill:none;"/>
  </g>
  <g id="axes_1">
   <g id="patch_2">
    <path d="M 38.665 64.083125 
L 206.065 64.083125 
L 206.065 8.643125 
L 38.665 8.643125 
z
" style="fill:#ffffff;"/>
   </g>
   <g id="patch_3">
    <path clip-path="url(#pa182fd453e)" d="M 46.274091 45.603125 
L 47.780842 45.603125 
L 47.780842 31.069182 
L 46.274091 31.069182 
z
" style="fill:#3182bd;stroke:#3182bd;stroke-linejoin:miter;"/>
   </g>
   <g id="patch_4">
    <path clip-path="url(#pa182fd453e)" d="M 51.296593 45.603125 
L 52.803344 45.603125 
L 52.803344 29.542611 
L 51.296593 29.542611 
z
" style="fill:#3182bd;stroke:#3182bd;stroke-linejoin:miter;"/>
   </g>
   <g id="patch_5">
    <path clip-path="url(#pa182fd453e)" d="M 56.319095 45.603125 
L 57.825846 45.603125 
L 57.825846 33.809381 
L 56.319095 33.809381 
z
" style="fill:#3182bd;stroke:#3182bd;stroke-linejoin:miter;"/>
   </g>
   <g id="patch_6">
    <path clip-path="url(#pa182fd453e)" d="M 61.341598 45.603125 
L 62.848348 45.603125 
L 62.848348 57.998872 
L 61.341598 57.998872 
z
" style="fill:#3182bd;stroke:#3182bd;stroke-linejoin:miter;"/>
   </g>
   <g id="patch_7">
    <path clip-path="url(#pa182fd453e)" d="M 66.3641 45.603125 
L 67.870851 45.603125 
L 67.870851 41.503941 
L 66.3641 41.503941 
z
" style="fill:#3182bd;stroke:#3182bd;stroke-linejoin:miter;"/>
   </g>
   <g id="patch_8">
    <path clip-path="url(#pa182fd453e)" d="M 71.386602 45.603125 
L 72.893353 45.603125 
L 72.893353 51.284325 
L 71.386602 51.284325 
z
" style="fill:#3182bd;stroke:#3182bd;stroke-linejoin:miter;"/>
   </g>
   <g id="patch_9">
    <path clip-path="url(#pa182fd453e)" d="M 76.409104 45.603125 
L 77.915855 45.603125 
L 77.915855 45.582964 
L 76.409104 45.582964 
z
" style="fill:#3182bd;stroke:#3182bd;stroke-linejoin:miter;"/>
   </g>
   <g id="patch_10">
    <path clip-path="url(#pa182fd453e)" d="M 81.431607 45.603125 
L 82.938357 45.603125 
L 82.938357 46.035055 
L 81.431607 46.035055 
z
" style="fill:#3182bd;stroke:#3182bd;stroke-linejoin:miter;"/>
   </g>
   <g id="patch_11">
    <path clip-path="url(#pa182fd453e)" d="M 86.454109 45.603125 
L 87.96086 45.603125 
L 87.96086 41.902299 
L 86.454109 41.902299 
z
" style="fill:#fc8d59;stroke:#fc8d59;stroke-linejoin:miter;"/>
   </g>
   <g id="patch_12">
    <path clip-path="url(#pa182fd453e)" d="M 91.476611 45.603125 
L 92.983362 45.603125 
L 92.983362 38.323791 
L 91.476611 38.323791 
z
" style="fill:#fc8d59;stroke:#fc8d59;stroke-linejoin:miter;"/>
   </g>
   <g id="patch_13">
    <path clip-path="url(#pa182fd453e)" d="M 96.499113 45.603125 
L 98.005864 45.603125 
L 98.005864 31.442973 
L 96.499113 31.442973 
z
" style="fill:#fc8d59;stroke:#fc8d59;stroke-linejoin:miter;"/>
   </g>
   <g id="patch_14">
    <path clip-path="url(#pa182fd453e)" d="M 101.521616 45.603125 
L 103.028366 45.603125 
L 103.028366 52.826493 
L 101.521616 52.826493 
z
" style="fill:#fc8d59;stroke:#fc8d59;stroke-linejoin:miter;"/>
   </g>
   <g id="patch_15">
    <path clip-path="url(#pa182fd453e)" d="M 106.544118 45.603125 
L 108.050869 45.603125 
L 108.050869 45.270682 
L 106.544118 45.270682 
z
" style="fill:#fc8d59;stroke:#fc8d59;stroke-linejoin:miter;"/>
   </g>
   <g id="patch_16">
    <path clip-path="url(#pa182fd453e)" d="M 111.56662 45.603125 
L 113.073371 45.603125 
L 113.073371 50.471031 
L 111.56662 50.471031 
z
" style="fill:#fc8d59;stroke:#fc8d59;stroke-linejoin:miter;"/>
   </g>
   <g id="patch_17">
    <path clip-path="url(#pa182fd453e)" d="M 116.589122 45.603125 
L 118.095873 45.603125 
L 118.095873 45.120029 
L 116.589122 45.120029 
z
" style="fill:#fc8d59;stroke:#fc8d59;stroke-linejoin:miter;"/>
   </g>
   <g id="patch_18">
    <path clip-path="url(#pa182fd453e)" d="M 121.611625 45.603125 
L 123.118375 45.603125 
L 123.118375 47.600758 
L 121.611625 47.600758 
z
" style="fill:#fc8d59;stroke:#fc8d59;stroke-linejoin:miter;"/>
   </g>
   <g id="patch_19">
    <path clip-path="url(#pa182fd453e)" d="M 126.634127 45.603125 
L 128.140878 45.603125 
L 128.140878 18.272654 
L 126.634127 18.272654 
z
" style="fill:#2ca25f;stroke:#2ca25f;stroke-linejoin:miter;"/>
   </g>
   <g id="patch_20">
    <path clip-path="url(#pa182fd453e)" d="M 131.656629 45.603125 
L 133.16338 45.603125 
L 133.16338 12.654177 
L 131.656629 12.654177 
z
" style="fill:#2ca25f;stroke:#2ca25f;stroke-linejoin:miter;"/>
   </g>
   <g id="patch_21">
    <path clip-path="url(#pa182fd453e)" d="M 136.679131 45.603125 
L 138.185882 45.603125 
L 138.185882 26.671934 
L 136.679131 26.671934 
z
" style="fill:#2ca25f;stroke:#2ca25f;stroke-linejoin:miter;"/>
   </g>
   <g id="patch_22">
    <path clip-path="url(#pa182fd453e)" d="M 141.701634 45.603125 
L 143.208384 45.603125 
L 143.208384 61.002382 
L 141.701634 61.002382 
z
" style="fill:#2ca25f;stroke:#2ca25f;stroke-linejoin:miter;"/>
   </g>
   <g id="patch_23">
    <path clip-path="url(#pa182fd453e)" d="M 146.724136 45.603125 
L 148.230887 45.603125 
L 148.230887 54.553254 
L 146.724136 54.553254 
z
" style="fill:#2ca25f;stroke:#2ca25f;stroke-linejoin:miter;"/>
   </g>
   <g id="patch_24">
    <path clip-path="url(#pa182fd453e)" d="M 151.746638 45.603125 
L 153.253389 45.603125 
L 153.253389 51.581009 
L 151.746638 51.581009 
z
" style="fill:#2ca25f;stroke:#2ca25f;stroke-linejoin:miter;"/>
   </g>
   <g id="patch_25">
    <path clip-path="url(#pa182fd453e)" d="M 156.76914 45.603125 
L 158.275891 45.603125 
L 158.275891 44.080513 
L 156.76914 44.080513 
z
" style="fill:#2ca25f;stroke:#2ca25f;stroke-linejoin:miter;"/>
   </g>
   <g id="patch_26">
    <path clip-path="url(#pa182fd453e)" d="M 161.791643 45.603125 
L 163.298393 45.603125 
L 163.298393 50.41606 
L 161.791643 50.41606 
z
" style="fill:#2ca25f;stroke:#2ca25f;stroke-linejoin:miter;"/>
   </g>
   <g id="patch_27">
    <path clip-path="url(#pa182fd453e)" d="M 166.814145 45.603125 
L 168.320896 45.603125 
L 168.320896 40.484445 
L 166.814145 40.484445 
z
" style="stroke:#000000;stroke-linejoin:miter;"/>
   </g>
   <g id="patch_28">
    <path clip-path="url(#pa182fd453e)" d="M 171.836647 45.603125 
L 173.343398 45.603125 
L 173.343398 45.922138 
L 171.836647 45.922138 
z
" style="stroke:#000000;stroke-linejoin:miter;"/>
   </g>
   <g id="patch_29">
    <path clip-path="url(#pa182fd453e)" d="M 176.859149 45.603125 
L 178.3659 45.603125 
L 178.3659 47.073168 
L 176.859149 47.073168 
z
" style="stroke:#000000;stroke-linejoin:miter;"/>
   </g>
   <g id="patch_30">
    <path clip-path="url(#pa182fd453e)" d="M 181.881652 45.603125 
L 183.388402 45.603125 
L 183.388402 45.42915 
L 181.881652 45.42915 
z
" style="stroke:#000000;stroke-linejoin:miter;"/>
   </g>
   <g id="patch_31">
    <path clip-path="url(#pa182fd453e)" d="M 186.904154 45.603125 
L 188.410905 45.603125 
L 188.410905 44.654398 
L 186.904154 44.654398 
z
" style="stroke:#000000;stroke-linejoin:miter;"/>
   </g>
   <g id="patch_32">
    <path clip-path="url(#pa182fd453e)" d="M 191.926656 45.603125 
L 193.433407 45.603125 
L 193.433407 46.707266 
L 191.926656 46.707266 
z
" style="stroke:#000000;stroke-linejoin:miter;"/>
   </g>
   <g id="patch_33">
    <path clip-path="url(#pa182fd453e)" d="M 196.949158 45.603125 
L 198.455909 45.603125 
L 198.455909 39.610133 
L 196.949158 39.610133 
z
" style="stroke:#000000;stroke-linejoin:miter;"/>
   </g>
   <g id="matplotlib.axis_1">
    <g id="xtick_1">
     <g id="line2d_1">
      <defs>
       <path d="M 0 0 
L 0 3.5 
" id="m8cd7487799" style="stroke:#000000;stroke-width:1.5;"/>
      </defs>
      <g>
       <use style="stroke:#000000;stroke-width:1.5;" x="44.516215" xlink:href="#m8cd7487799" y="64.083125"/>
      </g>
     </g>
     <g id="text_1">
      <!-- $\;\;\;\;\;\;\;\;\;\;\;\;\;\;\mathdefault{AB/PD}$ -->
      <g transform="translate(17.036215 77.161875)">
       <text>
        <tspan style="font-family:DejaVu Sans;font-size:8px;font-style:book;font-weight:book;" x="30.306232 35.778888 41.26717 43.962482 48.786701" y="-0.171875">AB/PD</tspan>
       </text>
      </g>
     </g>
    </g>
    <g id="xtick_2">
     <g id="line2d_2">
      <g>
       <use style="stroke:#000000;stroke-width:1.5;" x="84.696233" xlink:href="#m8cd7487799" y="64.083125"/>
      </g>
     </g>
     <g id="text_2">
      <!-- $\;\;\;\;\;\;\;\;\;\;\;\;\;\;\;\mathdefault{LP}$ -->
      <g transform="translate(63.816233 77.161875)">
       <text>
        <tspan style="font-family:DejaVu Sans;font-size:8px;font-style:book;font-weight:book;" x="32.470963 36.927994" y="-0.171875">LP</tspan>
       </text>
      </g>
     </g>
    </g>
    <g id="xtick_3">
     <g id="line2d_3">
      <g>
       <use style="stroke:#000000;stroke-width:1.5;" x="124.876251" xlink:href="#m8cd7487799" y="64.083125"/>
      </g>
     </g>
     <g id="text_3">
      <!-- $\;\;\;\;\;\;\;\;\;\;\;\;\;\mathdefault{PY}$ -->
      <g transform="translate(105.916251 77.161875)">
       <text>
        <tspan style="font-family:DejaVu Sans;font-size:8px;font-style:book;font-weight:book;" x="28.141501 32.96572" y="-0.171875">PY</tspan>
       </text>
      </g>
     </g>
    </g>
    <g id="xtick_4">
     <g id="line2d_4">
      <g>
       <use style="stroke:#000000;stroke-width:1.5;" x="165.056269" xlink:href="#m8cd7487799" y="64.083125"/>
      </g>
     </g>
     <g id="text_4">
      <!-- $\;\;\;\;\;\;\;\;\;\;\;\;\;\;\;\mathdefault{Synapses}$ -->
      <g transform="translate(129.736269 77.145625)">
       <text>
        <tspan style="font-family:DejaVu Sans;font-size:8px;font-style:book;font-weight:book;" x="32.470963 37.549088 42.283463 47.353775 52.256119 57.334244 61.502213 66.424088" y="-0.0625">Synapses</tspan>
       </text>
      </g>
     </g>
    </g>
    <g id="xtick_5">
     <g id="line2d_5">
      <g>
       <use style="stroke:#000000;stroke-width:1.5;" x="200.213785" xlink:href="#m8cd7487799" y="64.083125"/>
      </g>
     </g>
    </g>
   </g>
   <g id="matplotlib.axis_2">
    <g id="ytick_1">
     <g id="line2d_6">
      <defs>
       <path d="M 0 0 
L -3.5 0 
" id="m8132da1cb6" style="stroke:#000000;stroke-width:1.5;"/>
      </defs>
      <g>
       <use style="stroke:#000000;stroke-width:1.5;" x="38.665" xlink:href="#m8132da1cb6" y="45.603125"/>
      </g>
     </g>
     <g id="text_5">
      <text style="font-family:DejaVu Sans;font-size:8px;font-stretch:normal;font-style:normal;font-weight:normal;text-anchor:end;" transform="rotate(-0, 31.665, 48.6425)" x="31.665" y="48.6425">0.0</text>
     </g>
    </g>
    <g id="ytick_2">
     <g id="line2d_7">
      <g>
       <use style="stroke:#000000;stroke-width:1.5;" x="38.665" xlink:href="#m8132da1cb6" y="14.803125"/>
      </g>
     </g>
     <g id="text_6">
      <text style="font-family:DejaVu Sans;font-size:8px;font-stretch:normal;font-style:normal;font-weight:normal;text-anchor:end;" transform="rotate(-0, 31.665, 17.8425)" x="31.665" y="17.8425">0.5</text>
     </g>
    </g>
    <g id="text_7">
     <text style="font-family:DejaVu Sans;font-size:8px;font-stretch:normal;font-style:normal;font-weight:normal;text-anchor:middle;" transform="rotate(-90, 13.27875, 36.363125)" x="13.27875" y="36.363125">First Eigenvec.</text>
    </g>
   </g>
   <g id="patch_34">
    <path d="M 38.665 64.083125 
L 38.665 8.643125 
" style="fill:none;stroke:#000000;stroke-linecap:square;stroke-linejoin:miter;stroke-width:1.5;"/>
   </g>
   <g id="patch_35">
    <path d="M 38.665 64.083125 
L 206.065 64.083125 
" style="fill:none;stroke:#000000;stroke-linecap:square;stroke-linejoin:miter;stroke-width:1.5;"/>
   </g>
  </g>
 </g>
 <defs>
  <clipPath id="pa182fd453e">
   <rect height="55.44" width="167.4" x="38.665" y="8.643125"/>
  </clipPath>
 </defs>
</svg>
