<?xml version="1.0" encoding="utf-8" standalone="no"?>
<!DOCTYPE svg PUBLIC "-//W3C//DTD SVG 1.1//EN"
  "http://www.w3.org/Graphics/SVG/1.1/DTD/svg11.dtd">
<!-- Created with matplotlib (https://matplotlib.org/) -->
<svg height="96.325pt" version="1.1" viewBox="0 0 132.1125 96.325" width="132.1125pt" xmlns="http://www.w3.org/2000/svg" xmlns:xlink="http://www.w3.org/1999/xlink">
 <metadata>
  <rdf:RDF xmlns:cc="http://creativecommons.org/ns#" xmlns:dc="http://purl.org/dc/elements/1.1/" xmlns:rdf="http://www.w3.org/1999/02/22-rdf-syntax-ns#">
   <cc:Work>
    <dc:type rdf:resource="http://purl.org/dc/dcmitype/StillImage"/>
    <dc:date>2020-09-28T16:01:46.674894</dc:date>
    <dc:format>image/svg+xml</dc:format>
    <dc:creator>
     <cc:Agent>
      <dc:title>Matplotlib v3.3.2, https://matplotlib.org/</dc:title>
     </cc:Agent>
    </dc:creator>
   </cc:Work>
  </rdf:RDF>
 </metadata>
 <defs>
  <style type="text/css">*{stroke-linecap:butt;stroke-linejoin:round;}</style>
 </defs>
 <g id="figure_1">
  <g id="patch_1">
   <path d="M 0 96.325 
L 132.1125 96.325 
L 132.1125 0 
L 0 0 
z
" style="fill:none;"/>
  </g>
  <g id="axes_1">
   <g id="patch_2">
    <path d="M 41.2125 62.64 
L 124.9125 62.64 
L 124.9125 7.2 
L 41.2125 7.2 
z
" style="fill:#ffffff;"/>
   </g>
   <g id="patch_3">
    <path clip-path="url(#pe7140241fe)" d="M 45.017045 62.64 
L 46.538863 62.64 
L 46.538863 62.538656 
L 45.017045 62.538656 
z
"/>
   </g>
   <g id="patch_4">
    <path clip-path="url(#pe7140241fe)" d="M 46.538863 62.64 
L 48.060683 62.64 
L 48.060683 62.64 
L 46.538863 62.64 
z
"/>
   </g>
   <g id="patch_5">
    <path clip-path="url(#pe7140241fe)" d="M 48.060683 62.64 
L 49.5825 62.64 
L 49.5825 62.64 
L 48.060683 62.64 
z
"/>
   </g>
   <g id="patch_6">
    <path clip-path="url(#pe7140241fe)" d="M 49.582502 62.64 
L 51.104322 62.64 
L 51.104322 62.437313 
L 49.582502 62.437313 
z
"/>
   </g>
   <g id="patch_7">
    <path clip-path="url(#pe7140241fe)" d="M 51.10432 62.64 
L 52.626137 62.64 
L 52.626137 61.829251 
L 51.10432 61.829251 
z
"/>
   </g>
   <g id="patch_8">
    <path clip-path="url(#pe7140241fe)" d="M 52.626137 62.64 
L 54.147954 62.64 
L 54.147954 61.423877 
L 52.626137 61.423877 
z
"/>
   </g>
   <g id="patch_9">
    <path clip-path="url(#pe7140241fe)" d="M 54.147954 62.64 
L 55.669774 62.64 
L 55.669774 61.22119 
L 54.147954 61.22119 
z
"/>
   </g>
   <g id="patch_10">
    <path clip-path="url(#pe7140241fe)" d="M 55.669774 62.64 
L 57.191591 62.64 
L 57.191591 60.410441 
L 55.669774 60.410441 
z
"/>
   </g>
   <g id="patch_11">
    <path clip-path="url(#pe7140241fe)" d="M 57.191591 62.64 
L 58.713408 62.64 
L 58.713408 58.484914 
L 57.191591 58.484914 
z
"/>
   </g>
   <g id="patch_12">
    <path clip-path="url(#pe7140241fe)" d="M 58.713411 62.64 
L 60.235231 62.64 
L 60.235231 58.282226 
L 58.713411 58.282226 
z
"/>
   </g>
   <g id="patch_13">
    <path clip-path="url(#pe7140241fe)" d="M 60.235228 62.64 
L 61.757045 62.64 
L 61.757045 55.647294 
L 60.235228 55.647294 
z
"/>
   </g>
   <g id="patch_14">
    <path clip-path="url(#pe7140241fe)" d="M 61.757045 62.64 
L 63.278862 62.64 
L 63.278862 53.519079 
L 61.757045 53.519079 
z
"/>
   </g>
   <g id="patch_15">
    <path clip-path="url(#pe7140241fe)" d="M 63.278865 62.64 
L 64.800682 62.64 
L 64.800682 50.782802 
L 63.278865 50.782802 
z
"/>
   </g>
   <g id="patch_16">
    <path clip-path="url(#pe7140241fe)" d="M 64.800682 62.64 
L 66.322499 62.64 
L 66.322499 48.755931 
L 64.800682 48.755931 
z
"/>
   </g>
   <g id="patch_17">
    <path clip-path="url(#pe7140241fe)" d="M 66.322501 62.64 
L 67.844318 62.64 
L 67.844318 47.438464 
L 66.322501 47.438464 
z
"/>
   </g>
   <g id="patch_18">
    <path clip-path="url(#pe7140241fe)" d="M 67.844319 62.64 
L 69.366136 62.64 
L 69.366136 42.979347 
L 67.844319 42.979347 
z
"/>
   </g>
   <g id="patch_19">
    <path clip-path="url(#pe7140241fe)" d="M 69.366136 62.64 
L 70.887953 62.64 
L 70.887953 37.709482 
L 69.366136 37.709482 
z
"/>
   </g>
   <g id="patch_20">
    <path clip-path="url(#pe7140241fe)" d="M 70.887956 62.64 
L 72.409773 62.64 
L 72.409773 32.743647 
L 70.887956 32.743647 
z
"/>
   </g>
   <g id="patch_21">
    <path clip-path="url(#pe7140241fe)" d="M 72.409773 62.64 
L 73.93159 62.64 
L 73.93159 28.892591 
L 72.409773 28.892591 
z
"/>
   </g>
   <g id="patch_22">
    <path clip-path="url(#pe7140241fe)" d="M 73.931592 62.64 
L 75.453409 62.64 
L 75.453409 28.993935 
L 73.931592 28.993935 
z
"/>
   </g>
   <g id="patch_23">
    <path clip-path="url(#pe7140241fe)" d="M 75.45341 62.64 
L 76.975227 62.64 
L 76.975227 24.636161 
L 75.45341 24.636161 
z
"/>
   </g>
   <g id="patch_24">
    <path clip-path="url(#pe7140241fe)" d="M 76.975227 62.64 
L 78.497044 62.64 
L 78.497044 17.846142 
L 76.975227 17.846142 
z
"/>
   </g>
   <g id="patch_25">
    <path clip-path="url(#pe7140241fe)" d="M 78.497046 62.64 
L 80.018863 62.64 
L 80.018863 15.717927 
L 78.497046 15.717927 
z
"/>
   </g>
   <g id="patch_26">
    <path clip-path="url(#pe7140241fe)" d="M 80.018864 62.64 
L 81.540681 62.64 
L 81.540681 14.603148 
L 80.018864 14.603148 
z
"/>
   </g>
   <g id="patch_27">
    <path clip-path="url(#pe7140241fe)" d="M 81.540682 62.64 
L 83.062499 62.64 
L 83.062499 17.440768 
L 81.540682 17.440768 
z
"/>
   </g>
   <g id="patch_28">
    <path clip-path="url(#pe7140241fe)" d="M 83.062501 62.64 
L 84.584318 62.64 
L 84.584318 10.752092 
L 83.062501 10.752092 
z
"/>
   </g>
   <g id="patch_29">
    <path clip-path="url(#pe7140241fe)" d="M 84.584319 62.64 
L 86.106136 62.64 
L 86.106136 9.84 
L 84.584319 9.84 
z
"/>
   </g>
   <g id="patch_30">
    <path clip-path="url(#pe7140241fe)" d="M 86.106137 62.64 
L 87.627954 62.64 
L 87.627954 10.853436 
L 86.106137 10.853436 
z
"/>
   </g>
   <g id="patch_31">
    <path clip-path="url(#pe7140241fe)" d="M 87.627955 62.64 
L 89.149772 62.64 
L 89.149772 15.109866 
L 87.627955 15.109866 
z
"/>
   </g>
   <g id="patch_32">
    <path clip-path="url(#pe7140241fe)" d="M 89.149773 62.64 
L 90.67159 62.64 
L 90.67159 13.995086 
L 89.149773 13.995086 
z
"/>
   </g>
   <g id="patch_33">
    <path clip-path="url(#pe7140241fe)" d="M 90.671591 62.64 
L 92.193408 62.64 
L 92.193408 18.454203 
L 90.671591 18.454203 
z
"/>
   </g>
   <g id="patch_34">
    <path clip-path="url(#pe7140241fe)" d="M 92.19341 62.64 
L 93.715227 62.64 
L 93.715227 21.798541 
L 92.19341 21.798541 
z
"/>
   </g>
   <g id="patch_35">
    <path clip-path="url(#pe7140241fe)" d="M 93.715228 62.64 
L 95.237045 62.64 
L 95.237045 23.926756 
L 93.715228 23.926756 
z
"/>
   </g>
   <g id="patch_36">
    <path clip-path="url(#pe7140241fe)" d="M 95.237046 62.64 
L 96.758863 62.64 
L 96.758863 27.16975 
L 95.237046 27.16975 
z
"/>
   </g>
   <g id="patch_37">
    <path clip-path="url(#pe7140241fe)" d="M 96.758864 62.64 
L 98.280681 62.64 
L 98.280681 32.236929 
L 96.758864 32.236929 
z
"/>
   </g>
   <g id="patch_38">
    <path clip-path="url(#pe7140241fe)" d="M 98.280682 62.64 
L 99.802499 62.64 
L 99.802499 35.581267 
L 98.280682 35.581267 
z
"/>
   </g>
   <g id="patch_39">
    <path clip-path="url(#pe7140241fe)" d="M 99.802501 62.64 
L 101.324318 62.64 
L 101.324318 38.013512 
L 99.802501 38.013512 
z
"/>
   </g>
   <g id="patch_40">
    <path clip-path="url(#pe7140241fe)" d="M 101.324318 62.64 
L 102.846135 62.64 
L 102.846135 42.979347 
L 101.324318 42.979347 
z
"/>
   </g>
   <g id="patch_41">
    <path clip-path="url(#pe7140241fe)" d="M 102.846138 62.64 
L 104.367955 62.64 
L 104.367955 47.134434 
L 102.846138 47.134434 
z
"/>
   </g>
   <g id="patch_42">
    <path clip-path="url(#pe7140241fe)" d="M 104.367955 62.64 
L 105.889772 62.64 
L 105.889772 50.377428 
L 104.367955 50.377428 
z
"/>
   </g>
   <g id="patch_43">
    <path clip-path="url(#pe7140241fe)" d="M 105.889772 62.64 
L 107.411589 62.64 
L 107.411589 51.998925 
L 105.889772 51.998925 
z
"/>
   </g>
   <g id="patch_44">
    <path clip-path="url(#pe7140241fe)" d="M 107.411592 62.64 
L 108.933409 62.64 
L 108.933409 54.836545 
L 107.411592 54.836545 
z
"/>
   </g>
   <g id="patch_45">
    <path clip-path="url(#pe7140241fe)" d="M 108.933409 62.64 
L 110.455226 62.64 
L 110.455226 56.660729 
L 108.933409 56.660729 
z
"/>
   </g>
   <g id="patch_46">
    <path clip-path="url(#pe7140241fe)" d="M 110.455226 62.64 
L 111.977046 62.64 
L 111.977046 57.978196 
L 110.455226 57.978196 
z
"/>
   </g>
   <g id="patch_47">
    <path clip-path="url(#pe7140241fe)" d="M 111.977046 62.64 
L 113.498863 62.64 
L 113.498863 59.599693 
L 111.977046 59.599693 
z
"/>
   </g>
   <g id="patch_48">
    <path clip-path="url(#pe7140241fe)" d="M 113.498863 62.64 
L 115.02068 62.64 
L 115.02068 61.22119 
L 113.498863 61.22119 
z
"/>
   </g>
   <g id="patch_49">
    <path clip-path="url(#pe7140241fe)" d="M 115.020683 62.64 
L 116.542503 62.64 
L 116.542503 61.525221 
L 115.020683 61.525221 
z
"/>
   </g>
   <g id="patch_50">
    <path clip-path="url(#pe7140241fe)" d="M 116.5425 62.64 
L 118.064317 62.64 
L 118.064317 62.437313 
L 116.5425 62.437313 
z
"/>
   </g>
   <g id="patch_51">
    <path clip-path="url(#pe7140241fe)" d="M 118.064317 62.64 
L 119.586137 62.64 
L 119.586137 62.234626 
L 118.064317 62.234626 
z
"/>
   </g>
   <g id="patch_52">
    <path clip-path="url(#pe7140241fe)" d="M 119.586137 62.64 
L 121.107955 62.64 
L 121.107955 62.234626 
L 119.586137 62.234626 
z
"/>
   </g>
   <g id="matplotlib.axis_1">
    <g id="xtick_1">
     <g id="line2d_1">
      <defs>
       <path d="M 0 0 
L 0 3.5 
" id="med37d25b6d" style="stroke:#000000;stroke-width:1.5;"/>
      </defs>
      <g>
       <use style="stroke:#000000;stroke-width:1.5;" x="54.890728" xlink:href="#med37d25b6d" y="62.64"/>
      </g>
     </g>
     <g id="text_1">
      <text style="font-family:DejaVu Sans;font-size:8px;font-stretch:normal;font-style:normal;font-weight:normal;text-anchor:middle;" transform="rotate(-0, 54.890728, 75.71875)" x="54.890728" y="75.71875">−2.5</text>
     </g>
    </g>
    <g id="xtick_2">
     <g id="line2d_2">
      <g>
       <use style="stroke:#000000;stroke-width:1.5;" x="84.920855" xlink:href="#med37d25b6d" y="62.64"/>
      </g>
     </g>
     <g id="text_2">
      <text style="font-family:DejaVu Sans;font-size:8px;font-stretch:normal;font-style:normal;font-weight:normal;text-anchor:middle;" transform="rotate(-0, 84.920855, 75.71875)" x="84.920855" y="75.71875">0.0</text>
     </g>
    </g>
    <g id="xtick_3">
     <g id="line2d_3">
      <g>
       <use style="stroke:#000000;stroke-width:1.5;" x="114.950982" xlink:href="#med37d25b6d" y="62.64"/>
      </g>
     </g>
     <g id="text_3">
      <text style="font-family:DejaVu Sans;font-size:8px;font-stretch:normal;font-style:normal;font-weight:normal;text-anchor:middle;" transform="rotate(-0, 114.950982, 75.71875)" x="114.950982" y="75.71875">2.5</text>
     </g>
    </g>
    <g id="text_4">
     <text style="font-family:DejaVu Sans;font-size:8px;font-stretch:normal;font-style:normal;font-weight:normal;text-anchor:middle;" transform="rotate(-0, 83.0625, 87.46125)" x="83.0625" y="87.46125">Projected samples</text>
    </g>
   </g>
   <g id="matplotlib.axis_2">
    <g id="ytick_1">
     <g id="line2d_4">
      <defs>
       <path d="M 0 0 
L -3.5 0 
" id="m1ea448c0f0" style="stroke:#000000;stroke-width:1.5;"/>
      </defs>
      <g>
       <use style="stroke:#000000;stroke-width:1.5;" x="41.2125" xlink:href="#m1ea448c0f0" y="62.64"/>
      </g>
     </g>
     <g id="text_5">
      <text style="font-family:DejaVu Sans;font-size:8px;font-stretch:normal;font-style:normal;font-weight:normal;text-anchor:end;" transform="rotate(-0, 34.2125, 65.679375)" x="34.2125" y="65.679375">0</text>
     </g>
    </g>
    <g id="ytick_2">
     <g id="line2d_5">
      <g>
       <use style="stroke:#000000;stroke-width:1.5;" x="41.2125" xlink:href="#m1ea448c0f0" y="42.371286"/>
      </g>
     </g>
     <g id="text_6">
      <text style="font-family:DejaVu Sans;font-size:8px;font-stretch:normal;font-style:normal;font-weight:normal;text-anchor:end;" transform="rotate(-0, 34.2125, 45.410661)" x="34.2125" y="45.410661">200</text>
     </g>
    </g>
    <g id="ytick_3">
     <g id="line2d_6">
      <g>
       <use style="stroke:#000000;stroke-width:1.5;" x="41.2125" xlink:href="#m1ea448c0f0" y="22.102572"/>
      </g>
     </g>
     <g id="text_7">
      <text style="font-family:DejaVu Sans;font-size:8px;font-stretch:normal;font-style:normal;font-weight:normal;text-anchor:end;" transform="rotate(-0, 34.2125, 25.141947)" x="34.2125" y="25.141947">400</text>
     </g>
    </g>
    <g id="text_8">
     <text style="font-family:DejaVu Sans;font-size:8px;font-stretch:normal;font-style:normal;font-weight:normal;text-anchor:middle;" transform="rotate(-90, 13.27875, 34.92)" x="13.27875" y="34.92">Count</text>
    </g>
   </g>
   <g id="line2d_7">
    <path clip-path="url(#pe7140241fe)" d="M 50.392249 62.64 
L 50.392249 21.06 
" style="fill:none;stroke:#b30000;stroke-linecap:square;stroke-width:1.5;"/>
   </g>
   <g id="line2d_8">
    <path clip-path="url(#pe7140241fe)" d="M 116.670634 62.64 
L 116.670634 21.06 
" style="fill:none;stroke:#b30000;stroke-linecap:square;stroke-width:1.5;"/>
   </g>
   <g id="patch_53">
    <path d="M 41.2125 62.64 
L 41.2125 7.2 
" style="fill:none;stroke:#000000;stroke-linecap:square;stroke-linejoin:miter;stroke-width:1.5;"/>
   </g>
   <g id="patch_54">
    <path d="M 41.2125 62.64 
L 124.9125 62.64 
" style="fill:none;stroke:#000000;stroke-linecap:square;stroke-linejoin:miter;stroke-width:1.5;"/>
   </g>
  </g>
 </g>
 <defs>
  <clipPath id="pe7140241fe">
   <rect height="55.44" width="83.7" x="41.2125" y="7.2"/>
  </clipPath>
 </defs>
</svg>
