<?xml version="1.0" encoding="utf-8" standalone="no"?>
<!DOCTYPE svg PUBLIC "-//W3C//DTD SVG 1.1//EN"
  "http://www.w3.org/Graphics/SVG/1.1/DTD/svg11.dtd">
<!-- Created with matplotlib (https://matplotlib.org/) -->
<svg height="73.34pt" version="1.1" viewBox="0 0 419.66 73.34" width="419.66pt" xmlns="http://www.w3.org/2000/svg" xmlns:xlink="http://www.w3.org/1999/xlink">
 <metadata>
  <rdf:RDF xmlns:cc="http://creativecommons.org/ns#" xmlns:dc="http://purl.org/dc/elements/1.1/" xmlns:rdf="http://www.w3.org/1999/02/22-rdf-syntax-ns#">
   <cc:Work>
    <dc:type rdf:resource="http://purl.org/dc/dcmitype/StillImage"/>
    <dc:date>2020-12-16T14:58:12.510233</dc:date>
    <dc:format>image/svg+xml</dc:format>
    <dc:creator>
     <cc:Agent>
      <dc:title>Matplotlib v3.3.2, https://matplotlib.org/</dc:title>
     </cc:Agent>
    </dc:creator>
   </cc:Work>
  </rdf:RDF>
 </metadata>
 <defs>
  <style type="text/css">*{stroke-linecap:butt;stroke-linejoin:round;}</style>
 </defs>
 <g id="figure_1">
  <g id="patch_1">
   <path d="M 0 73.34 
L 419.66 73.34 
L 419.66 0 
L 0 0 
z
" style="fill:none;"/>
  </g>
  <g id="axes_1">
   <g id="patch_2">
    <path d="M 10.7 62.64 
L 53.440426 62.64 
L 53.440426 7.2 
L 10.7 7.2 
z
" style="fill:none;"/>
   </g>
   <g id="matplotlib.axis_1"/>
   <g id="matplotlib.axis_2"/>
   <g id="line2d_1">
    <path clip-path="url(#p916224dded)" d="M 12.642747 59.790588 
L 13.982572 56.496471 
L 15.322397 56.825882 
L 16.662222 50.567059 
L 18.002048 48.92 
L 19.341873 46.943529 
L 20.681698 42.661176 
L 22.021523 42.002353 
L 23.361349 32.449412 
L 24.701174 31.790588 
L 26.040999 27.178824 
L 27.380824 28.167059 
L 28.72065 23.884706 
L 30.060475 21.249412 
L 31.4003 23.225882 
L 32.740125 24.214118 
L 34.079951 14.331765 
L 35.419776 13.014118 
L 36.759601 15.978824 
L 38.099426 17.955294 
L 39.439252 21.249412 
L 40.779077 9.72 
L 42.118902 16.967059 
L 43.458727 24.214118 
L 44.798553 13.014118 
L 46.138378 18.943529 
L 47.478203 17.625882 
L 48.818028 20.590588 
L 50.157854 22.237647 
L 51.497679 32.449412 
" style="fill:none;stroke:#1f77b4;stroke-linecap:square;stroke-width:1.5;"/>
   </g>
   <g id="line2d_2">
    <path clip-path="url(#p916224dded)" d="M 12.642747 60.12 
L 13.982572 51.225882 
L 15.322397 49.908235 
L 16.662222 45.625882 
L 18.002048 38.708235 
L 19.341873 33.767059 
L 20.681698 29.814118 
L 22.021523 28.496471 
L 23.361349 32.778824 
L 24.701174 27.508235 
L 26.040999 24.543529 
L 27.380824 29.155294 
L 28.72065 26.849412 
L 30.060475 21.578824 
L 31.4003 22.896471 
L 32.740125 24.543529 
L 34.079951 26.849412 
L 35.419776 22.896471 
L 36.759601 11.367059 
L 38.099426 24.214118 
L 39.439252 19.931765 
L 40.779077 20.92 
L 42.118902 18.614118 
L 43.458727 19.272941 
L 44.798553 26.52 
L 46.138378 26.52 
L 47.478203 24.214118 
L 48.818028 34.425882 
L 50.157854 27.508235 
L 51.497679 23.884706 
" style="fill:none;stroke:#ff0000;stroke-linecap:square;stroke-width:1.5;"/>
   </g>
   <g id="patch_3">
    <path d="M 10.7 62.64 
L 10.7 7.2 
" style="fill:none;stroke:#000000;stroke-linecap:square;stroke-linejoin:miter;stroke-width:1.5;"/>
   </g>
   <g id="patch_4">
    <path d="M 10.7 62.64 
L 53.440426 62.64 
" style="fill:none;stroke:#000000;stroke-linecap:square;stroke-linejoin:miter;stroke-width:1.5;"/>
   </g>
  </g>
  <g id="axes_2">
   <g id="patch_5">
    <path d="M 61.988511 62.64 
L 104.728936 62.64 
L 104.728936 7.2 
L 61.988511 7.2 
z
" style="fill:none;"/>
   </g>
   <g id="matplotlib.axis_3"/>
   <g id="matplotlib.axis_4"/>
   <g id="line2d_3">
    <path clip-path="url(#pcbcaee4843)" d="M 63.931257 60.12 
L 65.271083 59.603077 
L 66.610908 57.793846 
L 67.950733 54.433846 
L 69.290558 52.107692 
L 70.630384 46.421538 
L 71.970209 38.926154 
L 73.310034 32.723077 
L 74.649859 31.430769 
L 75.989685 31.689231 
L 77.32951 31.172308 
L 78.669335 30.138462 
L 80.00916 27.812308 
L 81.348986 27.295385 
L 82.688811 27.036923 
L 84.028636 23.676923 
L 85.368461 23.935385 
L 86.708287 26.003077 
L 88.048112 23.676923 
L 89.387937 26.261538 
L 90.727762 26.52 
L 92.067588 28.329231 
L 93.407413 33.24 
L 94.747238 28.329231 
L 96.087063 28.846154 
L 97.426889 28.329231 
L 98.766714 29.363077 
L 100.106539 34.015385 
L 101.446364 39.96 
L 102.78619 34.532308 
" style="fill:none;stroke:#1f77b4;stroke-linecap:square;stroke-width:1.5;"/>
   </g>
   <g id="line2d_4">
    <path clip-path="url(#pcbcaee4843)" d="M 63.931257 59.861538 
L 65.271083 57.276923 
L 66.610908 47.972308 
L 67.950733 43.578462 
L 69.290558 34.273846 
L 70.630384 27.295385 
L 71.970209 21.350769 
L 73.310034 12.563077 
L 74.649859 20.575385 
L 75.989685 9.72 
L 77.32951 13.596923 
L 78.669335 15.147692 
L 80.00916 19.024615 
L 81.348986 26.261538 
L 82.688811 26.778462 
L 84.028636 25.486154 
L 85.368461 30.396923 
L 86.708287 29.88 
L 88.048112 33.756923 
L 89.387937 36.6 
L 90.727762 37.892308 
L 92.067588 42.803077 
L 93.407413 41.252308 
L 94.747238 45.387692 
L 96.087063 45.904615 
L 97.426889 46.68 
L 98.766714 48.230769 
L 100.106539 48.489231 
L 101.446364 47.713846 
L 102.78619 47.972308 
" style="fill:none;stroke:#ff0000;stroke-linecap:square;stroke-width:1.5;"/>
   </g>
   <g id="patch_6">
    <path d="M 61.988511 62.64 
L 61.988511 7.2 
" style="fill:none;stroke:#000000;stroke-linecap:square;stroke-linejoin:miter;stroke-width:1.5;"/>
   </g>
   <g id="patch_7">
    <path d="M 61.988511 62.64 
L 104.728936 62.64 
" style="fill:none;stroke:#000000;stroke-linecap:square;stroke-linejoin:miter;stroke-width:1.5;"/>
   </g>
  </g>
  <g id="axes_3">
   <g id="patch_8">
    <path d="M 113.277021 62.64 
L 156.017447 62.64 
L 156.017447 7.2 
L 113.277021 7.2 
z
" style="fill:none;"/>
   </g>
   <g id="matplotlib.axis_5"/>
   <g id="matplotlib.axis_6"/>
   <g id="line2d_5">
    <path clip-path="url(#pdd25437915)" d="M 115.219768 59.061176 
L 116.559593 59.484706 
L 117.899418 59.061176 
L 119.239244 59.484706 
L 120.579069 57.155294 
L 121.918894 56.096471 
L 123.258719 56.731765 
L 124.598545 55.461176 
L 125.93837 53.767059 
L 127.278195 52.284706 
L 128.61802 52.072941 
L 129.957846 47.625882 
L 131.297671 49.108235 
L 132.637496 45.931765 
L 133.977321 42.543529 
L 135.317147 38.731765 
L 136.656972 38.096471 
L 137.996797 41.272941 
L 139.336622 32.802353 
L 140.676448 32.378824 
L 142.016273 25.178824 
L 143.356098 26.872941 
L 144.695923 24.755294 
L 146.035749 22.425882 
L 147.375574 17.555294 
L 148.715399 16.92 
L 150.055224 9.72 
L 151.39505 17.555294 
L 152.734875 13.531765 
L 154.0747 10.990588 
" style="fill:none;stroke:#1f77b4;stroke-linecap:square;stroke-width:1.5;"/>
   </g>
   <g id="line2d_6">
    <path clip-path="url(#pdd25437915)" d="M 115.219768 60.12 
L 116.559593 58.849412 
L 117.899418 58.849412 
L 119.239244 59.061176 
L 120.579069 59.272941 
L 121.918894 57.578824 
L 123.258719 55.884706 
L 124.598545 54.825882 
L 125.93837 53.978824 
L 127.278195 52.072941 
L 128.61802 51.014118 
L 129.957846 46.778824 
L 131.297671 43.814118 
L 132.637496 44.872941 
L 133.977321 37.884706 
L 135.317147 40.425882 
L 136.656972 29.625882 
L 137.996797 30.472941 
L 139.336622 28.355294 
L 140.676448 25.178824 
L 142.016273 26.661176 
L 143.356098 23.908235 
L 144.695923 23.061176 
L 146.035749 17.555294 
L 147.375574 22.637647 
L 148.715399 24.12 
L 150.055224 21.790588 
L 151.39505 29.202353 
L 152.734875 25.602353 
L 154.0747 11.202353 
" style="fill:none;stroke:#ff0000;stroke-linecap:square;stroke-width:1.5;"/>
   </g>
   <g id="patch_9">
    <path d="M 113.277021 62.64 
L 113.277021 7.2 
" style="fill:none;stroke:#000000;stroke-linecap:square;stroke-linejoin:miter;stroke-width:1.5;"/>
   </g>
   <g id="patch_10">
    <path d="M 113.277021 62.64 
L 156.017447 62.64 
" style="fill:none;stroke:#000000;stroke-linecap:square;stroke-linejoin:miter;stroke-width:1.5;"/>
   </g>
  </g>
  <g id="axes_4">
   <g id="patch_11">
    <path d="M 164.565532 62.64 
L 207.305957 62.64 
L 207.305957 7.2 
L 164.565532 7.2 
z
" style="fill:none;"/>
   </g>
   <g id="matplotlib.axis_7"/>
   <g id="matplotlib.axis_8"/>
   <g id="line2d_7">
    <path clip-path="url(#p60aa5fa3d3)" d="M 166.508279 20.330526 
L 167.848104 25.193684 
L 169.187929 22.983158 
L 170.527754 19.446316 
L 171.86758 23.867368 
L 173.207405 22.541053 
L 174.54723 32.267368 
L 175.887055 30.056842 
L 177.226881 38.898947 
L 178.566706 34.92 
L 179.906531 38.014737 
L 181.246356 29.614737 
L 182.586182 33.593684 
L 183.926007 35.362105 
L 185.265832 43.762105 
L 186.605657 40.225263 
L 187.945483 31.825263 
L 189.285308 42.435789 
L 190.625133 45.530526 
L 191.964958 41.109474 
L 193.304784 47.741053 
L 194.644609 44.646316 
L 195.984434 53.046316 
L 197.324259 48.183158 
L 198.664085 48.625263 
L 200.00391 59.677895 
L 201.343735 53.930526 
L 202.68356 57.909474 
L 204.023386 49.067368 
L 205.363211 52.162105 
" style="fill:none;stroke:#1f77b4;stroke-linecap:square;stroke-width:1.5;"/>
   </g>
   <g id="line2d_8">
    <path clip-path="url(#p60aa5fa3d3)" d="M 166.508279 9.72 
L 167.848104 23.425263 
L 169.187929 17.235789 
L 170.527754 23.425263 
L 171.86758 18.12 
L 173.207405 37.130526 
L 174.54723 21.214737 
L 175.887055 35.804211 
L 177.226881 35.804211 
L 178.566706 34.92 
L 179.906531 32.267368 
L 181.246356 33.151579 
L 182.586182 33.593684 
L 183.926007 31.825263 
L 185.265832 35.804211 
L 186.605657 43.762105 
L 187.945483 36.246316 
L 189.285308 44.646316 
L 190.625133 46.856842 
L 191.964958 49.509474 
L 193.304784 49.509474 
L 194.644609 42.877895 
L 195.984434 41.993684 
L 197.324259 50.835789 
L 198.664085 48.625263 
L 200.00391 57.467368 
L 201.343735 53.930526 
L 202.68356 58.793684 
L 204.023386 60.12 
L 205.363211 58.351579 
" style="fill:none;stroke:#ff0000;stroke-linecap:square;stroke-width:1.5;"/>
   </g>
   <g id="patch_12">
    <path d="M 164.565532 62.64 
L 164.565532 7.2 
" style="fill:none;stroke:#000000;stroke-linecap:square;stroke-linejoin:miter;stroke-width:1.5;"/>
   </g>
   <g id="patch_13">
    <path d="M 164.565532 62.64 
L 207.305957 62.64 
" style="fill:none;stroke:#000000;stroke-linecap:square;stroke-linejoin:miter;stroke-width:1.5;"/>
   </g>
  </g>
  <g id="axes_5">
   <g id="patch_14">
    <path d="M 215.854043 62.64 
L 258.594468 62.64 
L 258.594468 7.2 
L 215.854043 7.2 
z
" style="fill:none;"/>
   </g>
   <g id="matplotlib.axis_9"/>
   <g id="matplotlib.axis_10"/>
   <g id="line2d_9">
    <path clip-path="url(#pf124d30bd5)" d="M 217.796789 9.72 
L 219.136614 19.853333 
L 220.47644 13.453333 
L 221.816265 19.853333 
L 223.15609 15.853333 
L 224.495915 21.186667 
L 225.835741 18.786667 
L 227.175566 23.32 
L 228.515391 15.853333 
L 229.855216 19.053333 
L 231.195042 20.653333 
L 232.534867 26.253333 
L 233.874692 22.786667 
L 235.214517 31.053333 
L 236.554343 26.52 
L 237.894168 34.52 
L 239.233993 37.186667 
L 240.573818 36.653333 
L 241.913644 41.453333 
L 243.253469 43.853333 
L 244.593294 45.72 
L 245.933119 46.52 
L 247.272945 51.053333 
L 248.61277 55.853333 
L 249.952595 53.986667 
L 251.29242 57.986667 
L 252.632246 56.386667 
L 253.972071 58.786667 
L 255.311896 59.32 
L 256.651721 60.12 
" style="fill:none;stroke:#1f77b4;stroke-linecap:square;stroke-width:1.5;"/>
   </g>
   <g id="line2d_10">
    <path clip-path="url(#pf124d30bd5)" d="M 217.796789 24.12 
L 219.136614 34.786667 
L 220.47644 35.053333 
L 221.816265 30.52 
L 223.15609 27.053333 
L 224.495915 33.986667 
L 225.835741 24.92 
L 227.175566 25.186667 
L 228.515391 20.92 
L 229.855216 22.253333 
L 231.195042 26.253333 
L 232.534867 18.786667 
L 233.874692 22.52 
L 235.214517 25.986667 
L 236.554343 26.786667 
L 237.894168 26.52 
L 239.233993 31.32 
L 240.573818 37.453333 
L 241.913644 34.253333 
L 243.253469 36.653333 
L 244.593294 40.386667 
L 245.933119 42.52 
L 247.272945 41.72 
L 248.61277 41.72 
L 249.952595 49.186667 
L 251.29242 52.12 
L 252.632246 52.386667 
L 253.972071 50.52 
L 255.311896 54.253333 
L 256.651721 53.453333 
" style="fill:none;stroke:#ff0000;stroke-linecap:square;stroke-width:1.5;"/>
   </g>
   <g id="patch_15">
    <path d="M 215.854043 62.64 
L 215.854043 7.2 
" style="fill:none;stroke:#000000;stroke-linecap:square;stroke-linejoin:miter;stroke-width:1.5;"/>
   </g>
   <g id="patch_16">
    <path d="M 215.854043 62.64 
L 258.594468 62.64 
" style="fill:none;stroke:#000000;stroke-linecap:square;stroke-linejoin:miter;stroke-width:1.5;"/>
   </g>
  </g>
  <g id="axes_6">
   <g id="patch_17">
    <path d="M 267.142553 62.64 
L 309.882979 62.64 
L 309.882979 7.2 
L 267.142553 7.2 
z
" style="fill:none;"/>
   </g>
   <g id="matplotlib.axis_11"/>
   <g id="matplotlib.axis_12"/>
   <g id="line2d_11">
    <path clip-path="url(#pa13d717fb9)" d="M 269.0853 60.12 
L 270.425125 57.467368 
L 271.76495 53.223158 
L 273.104776 50.570526 
L 274.444601 51.631579 
L 275.784426 48.978947 
L 277.124251 38.368421 
L 278.464077 40.490526 
L 279.803902 28.288421 
L 281.143727 29.88 
L 282.483552 34.124211 
L 283.823378 37.837895 
L 285.163203 36.776842 
L 286.503028 33.593684 
L 287.842853 25.105263 
L 289.182679 36.776842 
L 290.522504 24.574737 
L 291.862329 22.983158 
L 293.202154 24.044211 
L 294.54198 25.105263 
L 295.881805 30.410526 
L 297.22163 23.513684 
L 298.561455 15.555789 
L 299.901281 9.72 
L 301.241106 27.227368 
L 302.580931 30.410526 
L 303.920756 34.124211 
L 305.260582 24.574737 
L 306.600407 37.307368 
L 307.940232 30.941053 
" style="fill:none;stroke:#1f77b4;stroke-linecap:square;stroke-width:1.5;"/>
   </g>
   <g id="line2d_12">
    <path clip-path="url(#pa13d717fb9)" d="M 269.0853 55.345263 
L 270.425125 48.448421 
L 271.76495 48.448421 
L 273.104776 46.326316 
L 274.444601 50.04 
L 275.784426 41.551579 
L 277.124251 46.856842 
L 278.464077 41.551579 
L 279.803902 33.593684 
L 281.143727 26.166316 
L 282.483552 33.063158 
L 283.823378 33.063158 
L 285.163203 36.776842 
L 286.503028 29.88 
L 287.842853 34.654737 
L 289.182679 39.96 
L 290.522504 34.654737 
L 291.862329 30.410526 
L 293.202154 36.776842 
L 294.54198 29.349474 
L 295.881805 39.429474 
L 297.22163 31.471579 
L 298.561455 10.250526 
L 299.901281 24.574737 
L 301.241106 19.269474 
L 302.580931 24.044211 
L 303.920756 24.574737 
L 305.260582 31.471579 
L 306.600407 20.861053 
L 307.940232 20.861053 
" style="fill:none;stroke:#ff0000;stroke-linecap:square;stroke-width:1.5;"/>
   </g>
   <g id="patch_18">
    <path d="M 267.142553 62.64 
L 267.142553 7.2 
" style="fill:none;stroke:#000000;stroke-linecap:square;stroke-linejoin:miter;stroke-width:1.5;"/>
   </g>
   <g id="patch_19">
    <path d="M 267.142553 62.64 
L 309.882979 62.64 
" style="fill:none;stroke:#000000;stroke-linecap:square;stroke-linejoin:miter;stroke-width:1.5;"/>
   </g>
  </g>
  <g id="axes_7">
   <g id="patch_20">
    <path d="M 318.431064 62.64 
L 361.171489 62.64 
L 361.171489 7.2 
L 318.431064 7.2 
z
" style="fill:none;"/>
   </g>
   <g id="matplotlib.axis_13"/>
   <g id="matplotlib.axis_14"/>
   <g id="line2d_13">
    <path clip-path="url(#pb28c38d839)" d="M 320.37381 60.12 
L 321.713636 57.696923 
L 323.053461 53.335385 
L 324.393286 56.243077 
L 325.733111 58.181538 
L 327.072937 51.881538 
L 328.412762 50.427692 
L 329.752587 47.035385 
L 331.092412 45.096923 
L 332.432238 39.766154 
L 333.772063 32.496923 
L 335.111888 34.435385 
L 336.451713 27.166154 
L 337.791539 17.958462 
L 339.131364 34.435385 
L 340.471189 17.473846 
L 341.811014 18.443077 
L 343.15084 15.050769 
L 344.490665 15.535385 
L 345.83049 19.412308 
L 347.170315 21.350769 
L 348.510141 9.72 
L 349.849966 24.258462 
L 351.189791 22.32 
L 352.529616 22.804615 
L 353.869442 32.981538 
L 355.209267 22.32 
L 356.549092 17.473846 
L 357.888917 32.981538 
L 359.228743 31.043077 
" style="fill:none;stroke:#1f77b4;stroke-linecap:square;stroke-width:1.5;"/>
   </g>
   <g id="line2d_14">
    <path clip-path="url(#pb28c38d839)" d="M 320.37381 44.127692 
L 321.713636 41.704615 
L 323.053461 44.612308 
L 324.393286 39.281538 
L 325.733111 43.643077 
L 327.072937 26.681538 
L 328.412762 36.858462 
L 329.752587 35.889231 
L 331.092412 33.950769 
L 332.432238 24.258462 
L 333.772063 20.866154 
L 335.111888 19.412308 
L 336.451713 10.689231 
L 337.791539 29.589231 
L 339.131364 13.112308 
L 340.471189 19.896923 
L 341.811014 16.504615 
L 343.15084 19.896923 
L 344.490665 17.958462 
L 345.83049 33.950769 
L 347.170315 28.62 
L 348.510141 38.796923 
L 349.849966 42.673846 
L 351.189791 35.889231 
L 352.529616 45.096923 
L 353.869442 40.250769 
L 355.209267 50.427692 
L 356.549092 45.096923 
L 357.888917 52.366154 
L 359.228743 37.343077 
" style="fill:none;stroke:#ff0000;stroke-linecap:square;stroke-width:1.5;"/>
   </g>
   <g id="patch_21">
    <path d="M 318.431064 62.64 
L 318.431064 7.2 
" style="fill:none;stroke:#000000;stroke-linecap:square;stroke-linejoin:miter;stroke-width:1.5;"/>
   </g>
   <g id="patch_22">
    <path d="M 318.431064 62.64 
L 361.171489 62.64 
" style="fill:none;stroke:#000000;stroke-linecap:square;stroke-linejoin:miter;stroke-width:1.5;"/>
   </g>
  </g>
  <g id="axes_8">
   <g id="patch_23">
    <path d="M 369.719574 62.64 
L 412.46 62.64 
L 412.46 7.2 
L 369.719574 7.2 
z
" style="fill:none;"/>
   </g>
   <g id="matplotlib.axis_15"/>
   <g id="matplotlib.axis_16"/>
   <g id="line2d_15">
    <path clip-path="url(#p6da99faad5)" d="M 371.662321 37.267826 
L 373.002146 30.693913 
L 374.341972 34.763478 
L 375.681797 22.241739 
L 377.021622 29.441739 
L 378.361447 31.32 
L 379.701273 33.511304 
L 381.041098 32.25913 
L 382.380923 30.38087 
L 383.720748 27.563478 
L 385.060574 31.946087 
L 386.400399 35.389565 
L 387.740224 36.328696 
L 389.080049 39.45913 
L 390.419875 29.754783 
L 391.7597 37.58087 
L 393.099525 41.650435 
L 394.43935 39.772174 
L 395.779176 40.398261 
L 397.119001 46.972174 
L 398.458826 51.667826 
L 399.798651 47.911304 
L 401.138477 45.093913 
L 402.478302 46.65913 
L 403.818127 48.850435 
L 405.157952 48.224348 
L 406.497778 48.224348 
L 407.837603 46.65913 
L 409.177428 47.285217 
L 410.517253 45.72 
" style="fill:none;stroke:#1f77b4;stroke-linecap:square;stroke-width:1.5;"/>
   </g>
   <g id="line2d_16">
    <path clip-path="url(#p6da99faad5)" d="M 371.662321 9.72 
L 373.002146 9.72 
L 374.341972 15.667826 
L 375.681797 10.972174 
L 377.021622 19.737391 
L 378.361447 19.737391 
L 379.701273 16.293913 
L 381.041098 24.12 
L 382.380923 27.876522 
L 383.720748 30.38087 
L 385.060574 32.25913 
L 386.400399 35.702609 
L 387.740224 41.024348 
L 389.080049 43.215652 
L 390.419875 40.085217 
L 391.7597 45.406957 
L 393.099525 43.528696 
L 394.43935 45.406957 
L 395.779176 44.154783 
L 397.119001 53.233043 
L 398.458826 49.163478 
L 399.798651 53.233043 
L 401.138477 53.546087 
L 402.478302 52.92 
L 403.818127 56.989565 
L 405.157952 60.12 
L 406.497778 55.111304 
L 407.837603 59.806957 
L 409.177428 57.615652 
L 410.517253 58.241739 
" style="fill:none;stroke:#ff0000;stroke-linecap:square;stroke-width:1.5;"/>
   </g>
   <g id="patch_24">
    <path d="M 369.719574 62.64 
L 369.719574 7.2 
" style="fill:none;stroke:#000000;stroke-linecap:square;stroke-linejoin:miter;stroke-width:1.5;"/>
   </g>
   <g id="patch_25">
    <path d="M 369.719574 62.64 
L 412.46 62.64 
" style="fill:none;stroke:#000000;stroke-linecap:square;stroke-linejoin:miter;stroke-width:1.5;"/>
   </g>
  </g>
 </g>
 <defs>
  <clipPath id="p916224dded">
   <rect height="55.44" width="42.740426" x="10.7" y="7.2"/>
  </clipPath>
  <clipPath id="pcbcaee4843">
   <rect height="55.44" width="42.740426" x="61.988511" y="7.2"/>
  </clipPath>
  <clipPath id="pdd25437915">
   <rect height="55.44" width="42.740426" x="113.277021" y="7.2"/>
  </clipPath>
  <clipPath id="p60aa5fa3d3">
   <rect height="55.44" width="42.740426" x="164.565532" y="7.2"/>
  </clipPath>
  <clipPath id="pf124d30bd5">
   <rect height="55.44" width="42.740426" x="215.854043" y="7.2"/>
  </clipPath>
  <clipPath id="pa13d717fb9">
   <rect height="55.44" width="42.740426" x="267.142553" y="7.2"/>
  </clipPath>
  <clipPath id="pb28c38d839">
   <rect height="55.44" width="42.740426" x="318.431064" y="7.2"/>
  </clipPath>
  <clipPath id="p6da99faad5">
   <rect height="55.44" width="42.740426" x="369.719574" y="7.2"/>
  </clipPath>
 </defs>
</svg>
