<?xml version="1.0" encoding="utf-8" standalone="no"?>
<!DOCTYPE svg PUBLIC "-//W3C//DTD SVG 1.1//EN"
  "http://www.w3.org/Graphics/SVG/1.1/DTD/svg11.dtd">
<!-- Created with matplotlib (https://matplotlib.org/) -->
<svg height="78.156pt" version="1.1" viewBox="0 0 126 78.156" width="126pt" xmlns="http://www.w3.org/2000/svg" xmlns:xlink="http://www.w3.org/1999/xlink">
 <metadata>
  <rdf:RDF xmlns:cc="http://creativecommons.org/ns#" xmlns:dc="http://purl.org/dc/elements/1.1/" xmlns:rdf="http://www.w3.org/1999/02/22-rdf-syntax-ns#">
   <cc:Work>
    <dc:type rdf:resource="http://purl.org/dc/dcmitype/StillImage"/>
    <dc:date>2020-12-16T15:51:17.249926</dc:date>
    <dc:format>image/svg+xml</dc:format>
    <dc:creator>
     <cc:Agent>
      <dc:title>Matplotlib v3.3.2, https://matplotlib.org/</dc:title>
     </cc:Agent>
    </dc:creator>
   </cc:Work>
  </rdf:RDF>
 </metadata>
 <defs>
  <style type="text/css">*{stroke-linecap:butt;stroke-linejoin:round;}</style>
 </defs>
 <g id="figure_1">
  <g id="patch_1">
   <path d="M 0 78.156 
L 126 78.156 
L 126 0 
L 0 0 
z
" style="fill:none;"/>
  </g>
  <g id="axes_1">
   <g id="patch_2">
    <path d="M 7.2 70.956 
L 118.8 70.956 
L 118.8 7.2 
L 7.2 7.2 
z
" style="fill:none;"/>
   </g>
   <g id="matplotlib.axis_1"/>
   <g id="matplotlib.axis_2"/>
   <g id="line2d_1">
    <path clip-path="url(#p58c8ad68dc)" d="M 12.272727 25.457295 
L 12.315002 25.520334 
L 12.390157 25.472458 
L 12.399551 25.480881 
L 12.455918 25.374366 
L 12.479404 25.407208 
L 12.521678 25.498804 
L 12.60153 25.642269 
L 12.653199 25.588041 
L 12.803509 25.527761 
L 12.86927 25.569469 
L 12.892756 25.49892 
L 12.920939 25.541558 
L 12.949122 25.631819 
L 12.972608 25.678196 
L 13.057158 25.623188 
L 13.151101 25.481534 
L 13.183982 25.528631 
L 13.268531 25.652694 
L 13.3202 25.628869 
L 13.348383 25.569931 
L 13.461116 25.66967 
L 13.583242 25.547365 
L 13.602031 25.558309 
L 13.616123 25.579862 
L 13.686581 25.483735 
L 13.695975 25.495022 
L 13.850982 25.350967 
L 13.710067 25.499787 
L 13.855679 25.357607 
L 14.109327 25.499125 
L 14.151602 25.589621 
L 14.226757 25.547387 
L 14.245546 25.521526 
L 14.292518 25.594095 
L 14.334792 25.55887 
L 14.461616 25.55971 
L 14.362976 25.517398 
L 14.466314 25.554262 
L 14.550863 25.500091 
L 14.513286 25.575912 
L 14.579046 25.554492 
L 14.70587 25.739705 
L 14.710567 25.736893 
L 14.926638 25.797275 
L 14.94073 25.760683 
L 15.180286 25.835504 
L 15.194378 25.830712 
L 15.297716 25.862376 
L 15.419843 25.793907 
L 15.433934 25.822351 
L 15.527878 25.859603 
L 15.471512 25.787621 
L 15.54197 25.819054 
L 15.57485 25.775899 
L 15.631216 25.877596 
L 15.743949 26.006821 
L 15.762737 25.989744 
L 15.800315 25.947216 
L 15.870773 25.999276 
L 16.049266 26.288648 
L 16.133815 26.167915 
L 16.05866 26.293634 
L 16.17609 26.227845 
L 16.3264 26.428472 
L 16.331097 26.409518 
L 16.429738 26.365177 
L 16.443829 26.389378 
L 16.504893 26.47676 
L 16.556562 26.402397 
L 16.702175 26.327741 
L 16.706872 26.341809 
L 16.847788 26.366097 
L 16.965217 26.399071 
L 17.096738 26.519906 
L 17.101436 26.513926 
L 17.345689 26.385879 
L 17.355084 26.423054 
L 17.467816 26.512466 
L 17.491302 26.474422 
L 17.538274 26.510131 
L 17.604035 26.470129 
L 17.683887 26.508806 
L 17.627521 26.438742 
L 17.721464 26.45644 
L 17.928141 26.334301 
L 17.937535 26.373879 
L 17.97981 26.316726 
L 18.059662 26.426014 
L 18.087845 26.395636 
L 18.153606 26.507028 
L 18.426042 26.601752 
L 18.435437 26.587781 
L 18.473014 26.525421 
L 18.548169 26.571648 
L 18.609233 26.601202 
L 18.642113 26.542747 
L 18.670296 26.487467 
L 18.740754 26.603997 
L 18.88167 26.666112 
L 18.985008 26.514999 
L 19.017888 26.532055 
L 19.107135 26.544651 
L 19.06486 26.492938 
L 19.125923 26.529281 
L 19.262142 26.469883 
L 19.266839 26.483723 
L 19.764741 26.615848 
L 19.886868 26.450483 
L 19.905656 26.480713 
L 19.938537 26.528521 
L 20.008995 26.435277 
L 20.093544 26.500626 
L 20.098241 26.530241 
L 20.192185 26.434876 
L 20.215671 26.396006 
L 20.30022 26.4538 
L 20.394164 26.476839 
L 20.361284 26.524835 
L 20.398861 26.489956 
L 20.591446 26.691099 
L 20.741756 26.5397 
L 20.877974 26.569615 
L 20.78403 26.501165 
L 20.882671 26.559533 
L 21.000101 26.510735 
L 21.037679 26.460814 
L 21.131622 26.607849 
L 21.220869 26.595657 
L 21.187989 26.662532 
L 21.23496 26.640297 
L 21.239658 26.651659 
L 21.267841 26.568863 
L 21.314813 26.575311 
L 21.328904 26.547079 
L 21.404059 26.64804 
L 21.408756 26.648815 
L 21.451031 26.595079 
L 21.530883 26.670108 
L 21.624827 26.636218 
L 21.648313 26.67105 
L 21.991208 26.274508 
L 21.995905 26.283914 
L 22.014693 26.319485 
L 22.075757 26.178466 
L 22.080454 26.188526 
L 22.202581 26.159069 
L 22.169701 26.231575 
L 22.207278 26.176079 
L 22.216672 26.158833 
L 22.366982 26.149111 
L 22.573659 26.010411 
L 22.58775 26.052918 
L 22.597145 26.082194 
L 22.676997 25.984218 
L 22.761546 25.990561 
L 22.691088 26.011756 
L 22.780335 26.026092 
L 22.850793 26.076558 
L 22.893067 26.024677 
L 23.019891 25.885567 
L 23.029286 25.90067 
L 23.066863 25.873684 
L 23.113835 25.964693 
L 23.12323 25.932816 
L 23.245356 26.055092 
L 23.250054 26.030249 
L 23.301723 25.98351 
L 23.358089 26.038949 
L 23.372181 26.090526 
L 23.42385 26.003673 
L 23.466124 26.03152 
L 23.776139 25.91763 
L 23.484913 26.059546 
L 23.780836 25.936718 
L 23.90766 25.995531 
L 23.921751 25.97072 
L 24.006301 25.982652 
L 23.978118 26.017104 
L 24.02509 26.00965 
L 24.133125 25.985466 
L 24.137822 25.968942 
L 24.194188 25.904652 
L 24.250555 25.958084 
L 24.255252 25.965419 
L 24.302224 25.846781 
L 24.321012 25.805004 
L 24.386773 25.935316 
L 24.396167 25.91196 
L 24.414956 25.940526 
L 24.490111 25.851905 
L 24.649815 25.643736 
L 24.682696 25.675759 
L 24.710879 25.560232 
L 24.715576 25.561715 
L 24.720273 25.546975 
L 24.795428 25.632461 
L 24.80952 25.627221 
L 25.128929 25.664175 
L 25.232267 25.570333 
L 25.255753 25.625157 
L 25.349696 25.629075 
L 25.29333 25.584607 
L 25.359091 25.586899 
L 25.387274 25.628128 
L 25.490612 25.61428 
L 25.725471 25.729865 
L 25.767746 25.78145 
L 25.805323 25.703274 
L 25.842901 25.739823 
L 26.134127 25.825993 
L 26.223373 25.877928 
L 26.246859 25.840698 
L 26.387775 25.727735 
L 26.415958 25.772097 
L 26.589754 25.716802 
L 26.608542 25.655473 
L 26.702486 25.700352 
L 26.782338 25.799087 
L 26.819916 25.732599 
L 26.876282 25.707051 
L 26.848099 25.752531 
L 26.927951 25.751793 
L 27.021895 25.851337 
L 26.937346 25.741746 
L 27.050078 25.789078 
L 27.120536 25.759287 
L 27.059472 25.801214 
L 27.148719 25.836148 
L 27.209782 25.829498 
L 27.162811 25.813516 
L 27.252057 25.793535 
L 27.360092 25.730145 
L 27.383578 25.776264 
L 27.5151 25.835546 
L 27.613741 25.866514 
L 27.632529 25.810383 
L 27.712381 25.743851 
L 27.660712 25.824573 
L 27.740565 25.818855 
L 28.172706 25.838745 
L 28.261952 25.863143 
L 28.219678 25.801455 
L 28.280741 25.828666 
L 28.41696 25.795556 
L 28.318319 25.857503 
L 28.421657 25.798841 
L 28.534389 25.822258 
L 28.435748 25.776405 
L 28.543784 25.813636 
L 28.661213 25.603921 
L 28.680002 25.648309 
L 28.689396 25.658622 
L 28.71758 25.61355 
L 28.769249 25.599588 
L 28.792735 25.614017 
L 28.952439 25.40756 
L 29.473827 25.228972 
L 29.478524 25.240593 
L 29.525496 25.279161 
L 29.548982 25.21449 
L 29.591256 25.250864 
L 29.600651 25.277348 
L 29.661714 25.176156 
L 29.71808 25.144508 
L 29.675806 25.189106 
L 29.755658 25.18061 
L 29.863693 25.315398 
L 29.877785 25.294729 
L 29.98582 25.271162 
L 29.990517 25.252121 
L 30.281743 25.186105 
L 30.347503 25.218868 
L 30.417961 25.055398 
L 30.596454 25.001986 
L 30.601152 25.025454 
L 30.676307 25.090936 
L 30.61994 25.008093 
L 30.713884 25.030206 
L 30.826617 25.097646 
L 30.73737 24.98764 
L 30.8548 25.084927 
L 30.873588 25.076165 
L 30.88768 25.140635 
L 30.944046 25.147173 
L 30.986321 25.144012 
L 30.962835 25.101962 
L 31.028596 25.081176 
L 31.066173 25.106815 
L 31.169511 24.985207 
L 31.183603 25.009069 
L 31.235272 24.919392 
L 31.277547 24.95929 
L 31.517103 25.025999 
L 31.5218 25.047101 
L 31.568772 24.962233 
L 31.615744 24.97418 
L 32.24047 24.549207 
L 32.259259 24.598556 
L 32.329716 24.649664 
L 32.371991 24.596955 
L 32.451843 24.621751 
L 32.470632 24.567718 
L 32.564576 24.521262 
L 32.50821 24.577859 
L 32.583365 24.559849 
L 32.672611 24.59201 
L 32.700794 24.556153 
L 32.743069 24.491519 
L 32.818224 24.54546 
L 32.930956 24.593402 
L 32.935654 24.56377 
L 33.123541 24.547936 
L 33.170513 24.443221 
L 33.25976 24.479252 
L 33.372492 24.539044 
L 33.381886 24.535087 
L 33.513408 24.449579 
L 33.522802 24.470577 
L 33.621443 24.477148 
L 33.640232 24.456486 
L 33.729478 24.369561 
L 33.668415 24.469423 
L 33.762359 24.404408 
L 33.95964 24.242838 
L 34.07707 24.174709 
L 34.081767 24.186296 
L 34.156922 24.249872 
L 34.189803 24.188406 
L 34.232077 24.192727 
L 34.255563 24.232726 
L 34.302535 24.284336 
L 34.363598 24.227735 
L 34.509211 24.044551 
L 34.603155 24.064265 
L 34.636035 24.038655 
L 34.772254 23.93593 
L 34.894381 23.904328 
L 34.960141 23.916512 
L 34.988324 23.846726 
L 35.152726 23.694982 
L 34.997719 23.852665 
L 35.16212 23.704798 
L 35.270156 23.735544 
L 35.274853 23.752894 
L 35.288944 23.786623 
L 35.354705 23.702748 
L 35.382888 23.750686 
L 36.510213 22.509637 
L 36.684009 20.976874 
L 36.702798 10.384603 
L 36.712192 8.808884 
L 36.792044 16.734079 
L 36.853108 23.790761 
L 36.979932 22.830058 
L 37.120847 19.988121 
L 37.134939 9.86727 
L 37.23358 18.264975 
L 37.275855 24.277564 
L 37.393284 23.044566 
L 37.524805 20.098262 
L 37.538897 9.894534 
L 37.637538 17.796323 
L 37.68451 24.597308 
L 37.816031 23.147224 
L 37.938158 20.999838 
L 37.961644 9.747438 
L 38.069679 18.303924 
L 38.111954 24.89636 
L 38.229384 23.662988 
L 38.393785 20.959329 
L 38.417271 9.635753 
L 38.525306 18.172951 
L 38.567581 25.126001 
L 38.694405 23.899788 
L 38.88699 21.15967 
L 38.901081 17.310783 
L 38.910476 9.473346 
L 39.009117 17.187003 
L 39.065483 25.336446 
L 39.22049 23.992517 
L 39.445955 20.467492 
L 39.464744 9.408476 
L 39.563385 17.412635 
L 39.619751 25.485699 
L 39.770061 24.315036 
L 40.070681 20.454987 
L 40.08947 9.346663 
L 40.188111 17.644641 
L 40.23978 25.548037 
L 40.385392 24.507943 
L 40.751773 21.606287 
L 40.779956 19.657718 
L 40.794048 9.283145 
L 40.892689 17.872957 
L 40.939661 25.556687 
L 41.075879 24.685125 
L 41.470443 22.323332 
L 41.489231 22.219547 
L 41.59257 20.392616 
L 41.611358 9.290702 
L 41.709999 18.615542 
L 41.752274 25.469403 
L 41.860309 24.783638 
L 41.996528 23.951411 
L 42.278359 22.553768 
L 42.480338 21.465177 
L 42.508521 19.881612 
L 42.52731 9.342937 
L 42.621254 19.007947 
L 42.663528 25.328653 
L 42.757472 24.723934 
L 43.466747 20.473137 
L 43.490233 9.365746 
L 43.57948 18.765646 
L 43.621754 25.276205 
L 43.725092 24.598627 
L 43.781459 24.259874 
L 44.053896 22.902008 
L 44.387396 22.042002 
L 44.528311 21.285004 
L 44.551797 19.798778 
L 44.570586 9.365679 
L 44.659833 19.176313 
L 44.702107 25.111436 
L 44.796051 24.522788 
L 45.124854 22.857347 
L 45.223495 22.566833 
L 45.392594 22.124497 
L 45.397291 22.126489 
L 45.59927 21.820676 
L 45.679122 21.264776 
L 45.702608 19.705681 
L 45.721397 9.374028 
L 45.810644 19.358422 
L 45.857615 25.018871 
L 45.942165 24.437592 
L 46.177024 23.111741 
L 46.524616 22.213487 
L 46.548102 22.225823 
L 46.552799 22.252712 
L 46.632651 22.106084 
L 46.637349 22.115578 
L 46.858116 21.842163 
L 46.876905 21.859103 
L 47.299652 22.69736 
L 47.473448 23.057011 
L 47.708307 23.496703 
L 47.713004 23.477813 
L 47.717702 23.471935 
L 47.750582 23.568373 
L 47.759976 23.575171 
L 47.924378 23.816957 
L 47.929075 23.813825 
L 48.243787 24.342646 
L 48.248484 24.327506 
L 49.793858 26.687363 
L 49.80795 26.654067 
L 49.831436 26.635403 
L 49.87371 26.732074 
L 50.014626 26.908685 
L 50.019323 26.886818 
L 50.150845 26.998182 
L 50.160239 26.965205 
L 50.193119 26.901181 
L 50.249485 27.00699 
L 50.268274 26.984944 
L 50.390401 27.095773 
L 50.399795 27.088624 
L 50.413887 27.101855 
L 50.597077 27.031168 
L 50.752084 27.157153 
L 50.761479 27.11932 
L 50.86012 27.113795 
L 50.784965 27.082064 
L 50.869514 27.090017 
L 51.386205 27.374041 
L 51.400296 27.327127 
L 51.569395 27.492039 
L 51.658642 27.53195 
L 51.672733 27.460889 
L 51.67743 27.486113 
L 51.987445 27.455884 
L 51.992142 27.482201 
L 52.100177 27.50008 
L 52.043811 27.421894 
L 52.109572 27.475155 
L 52.184727 27.481041 
L 52.137755 27.506399 
L 52.208213 27.523434 
L 52.227001 27.55817 
L 52.27867 27.442865 
L 52.302156 27.463838 
L 52.461861 27.316525 
L 52.471255 27.335705 
L 52.57929 27.414912 
L 52.480649 27.328353 
L 52.593382 27.386749 
L 52.757783 27.246895 
L 52.66384 27.439886 
L 52.762481 27.255435 
L 52.84703 27.228656 
L 52.861122 27.187234 
L 53.762981 27.193758 
L 53.767679 27.227436 
L 53.833439 27.154775 
L 53.871017 27.185845 
L 53.927383 27.19862 
L 53.908594 27.15595 
L 53.979052 27.155005 
L 54.105876 27.113334 
L 54.11527 27.143295 
L 54.256186 27.139942 
L 54.364221 27.131181 
L 54.368919 27.136573 
L 54.458165 27.184484 
L 54.476954 27.143852 
L 54.599081 27.066375 
L 54.838637 27.131493 
L 54.852729 27.069475 
L 54.979553 27.019513 
L 54.871518 27.082619 
L 54.98425 27.02165 
L 55.176835 26.983678 
L 55.181532 26.994507 
L 55.195624 27.043388 
L 55.261384 26.897039 
L 55.397603 26.65687 
L 55.4023 26.667456 
L 55.515032 26.765904 
L 55.449272 26.64318 
L 55.533821 26.725432 
L 55.660645 26.675251 
L 55.693525 26.66104 
L 55.778075 26.694396 
L 55.900202 26.698284 
L 55.904899 26.709698 
L 56.008237 26.787659 
L 56.031723 26.765361 
L 56.214913 26.648875 
L 56.229005 26.679991 
L 56.308857 26.759037 
L 56.33704 26.678236 
L 56.388709 26.644711 
L 56.445075 26.693873 
L 56.477956 26.728148 
L 56.52023 26.667638 
L 56.553111 26.68062 
L 56.684632 26.598322 
L 56.689329 26.611916 
L 56.82085 26.674006 
L 56.830245 26.668357 
L 57.454971 26.703829 
L 57.511337 26.615112 
L 57.5724 26.69837 
L 57.741499 26.682918 
L 57.746196 26.669744 
L 57.755591 26.642153 
L 57.811957 26.716779 
L 57.854231 26.679757 
L 58.074999 26.731921 
L 58.286373 26.633508 
L 58.295767 26.65976 
L 58.4085 26.614524 
L 58.413197 26.594305 
L 58.417894 26.563752 
L 58.478957 26.635289 
L 58.521232 26.619111 
L 58.62457 26.615744 
L 58.652753 26.672793 
L 58.732605 26.630682 
L 58.765486 26.688312 
L 59.019134 26.571121 
L 59.033225 26.595872 
L 59.131866 26.726565 
L 59.174141 26.665265 
L 59.178838 26.648964 
L 59.216416 26.734742 
L 59.282176 26.689275 
L 59.34324 26.672188 
L 59.329148 26.724789 
L 59.390212 26.710246 
L 59.404303 26.678661 
L 59.64386 26.753984 
L 59.761289 26.658623 
L 59.906902 26.730293 
L 59.916297 26.722675 
L 60.151156 26.650335 
L 59.925691 26.742257 
L 60.169945 26.694903 
L 60.498748 26.677071 
L 60.503445 26.650676 
L 60.592692 26.782452 
L 60.705424 26.709876 
L 60.710121 26.7033 
L 60.766488 26.804987 
L 60.785276 26.775465 
L 60.794671 26.794139 
L 60.874523 26.706922 
L 60.87922 26.722207 
L 60.987255 26.609425 
L 61.015438 26.655516 
L 61.104685 26.667557 
L 61.067107 26.620355 
L 61.123474 26.649805 
L 61.137565 26.615156 
L 61.203326 26.729502 
L 61.208023 26.73142 
L 61.372425 26.705159 
L 61.381819 26.726508 
L 61.461671 26.744255 
L 61.489854 26.695268 
L 61.705925 26.643837 
L 61.720016 26.695591 
L 61.771686 26.74786 
L 61.823355 26.672471 
L 61.936087 26.647306 
L 61.940784 26.6538 
L 62.058214 26.764865 
L 62.067608 26.741786 
L 62.387017 26.592321 
L 62.401109 26.645005 
L 62.419897 26.684704 
L 62.485658 26.588167 
L 62.509144 26.624983 
L 62.65006 26.662484 
L 62.664151 26.638325 
L 62.837947 26.716753 
L 62.852039 26.672475 
L 63.025835 26.606751 
L 63.110384 26.699945 
L 63.152659 26.663947 
L 63.204328 26.573559 
L 63.274785 26.628049 
L 63.523736 26.663871 
L 63.664652 26.618338 
L 63.76799 26.728503 
L 63.80087 26.697552 
L 63.979364 26.600438 
L 64.002849 26.544677 
L 64.040427 26.661185 
L 64.082702 26.639919 
L 64.115582 26.65602 
L 64.10149 26.600237 
L 64.181343 26.58936 
L 64.204829 26.596356 
L 64.228314 26.687069 
L 64.256498 26.715245 
L 64.303469 26.624339 
L 64.317561 26.63611 
L 64.397413 26.633804 
L 64.36923 26.658285 
L 64.420899 26.666709 
L 64.538329 26.725376 
L 64.500751 26.646824 
L 64.543026 26.709573 
L 64.632273 26.725145 
L 64.575906 26.690992 
L 64.660456 26.705963 
L 64.721519 26.655836 
L 64.777885 26.694573 
L 64.829554 26.769343 
L 64.876526 26.65312 
L 64.885921 26.672944 
L 64.97047 26.596472 
L 65.017442 26.651856 
L 65.069111 26.720353 
L 65.134872 26.66308 
L 65.247604 26.622118 
L 65.261696 26.633982 
L 65.299273 26.733666 
L 65.379125 26.661941 
L 65.440189 26.71121 
L 65.510647 26.580669 
L 65.599893 26.580171 
L 65.53883 26.547931 
L 65.613985 26.536696 
L 65.923999 26.698233 
L 65.952182 26.655739 
L 65.961577 26.618705 
L 65.994457 26.68285 
L 66.060217 26.668755 
L 66.234013 26.717001 
L 66.332654 26.581516 
L 66.360837 26.626014 
L 66.468873 26.686801 
L 66.421901 26.587284 
L 66.482964 26.67631 
L 66.595697 26.614348 
L 66.50645 26.729073 
L 66.628577 26.65861 
L 66.778887 26.751664 
L 66.642669 26.640953 
L 66.797676 26.706986 
L 67.22512 26.572776 
L 67.253303 26.640646 
L 67.309669 26.538269 
L 67.333155 26.581494 
L 67.351944 26.55361 
L 67.422402 26.641571 
L 67.464676 26.599025 
L 67.544529 26.673567 
L 67.685444 26.650878 
L 67.690141 26.640043 
L 67.840451 26.544677 
L 68.197438 26.597243 
L 68.206832 26.552571 
L 68.390022 26.528012 
L 68.399417 26.551488 
L 68.446389 26.58235 
L 68.422903 26.522626 
L 68.502755 26.533968 
L 68.64367 26.472604 
L 68.737614 26.396628 
L 68.826861 26.271029 
L 68.869135 26.305793 
L 69.038234 26.384912 
L 69.052326 26.361785 
L 69.197938 26.253775 
L 69.235516 26.322372 
L 69.277791 26.262812 
L 69.338854 26.309659 
L 69.470375 26.177471 
L 69.367037 26.318352 
L 69.475072 26.184561 
L 69.51265 26.232496 
L 69.601897 26.149128 
L 69.733418 26.239209 
L 69.756904 26.204981 
L 69.785087 26.152065 
L 69.822664 26.229176 
L 69.869636 26.20129 
L 69.874333 26.213994 
L 69.9307 26.079136 
L 69.940094 26.087799 
L 70.062221 26.020494 
L 70.071615 26.04138 
L 70.156165 26.13476 
L 70.184348 26.093018 
L 70.273594 26.053696 
L 70.320566 26.119428 
L 70.362841 26.148951 
L 70.376932 26.092684 
L 70.423904 26.085454 
L 70.437996 26.12283 
L 70.569517 26.083263 
L 70.710433 26.017433 
L 70.83256 25.99606 
L 70.851348 26.012994 
L 70.874834 25.91875 
L 70.89832 25.873608 
L 70.926503 25.941962 
L 70.98287 25.928794 
L 71.086208 25.922461 
L 71.058025 25.881681 
L 71.090905 25.908534 
L 71.151968 25.896287 
L 71.128482 25.943716 
L 71.180151 25.956612 
L 71.184849 25.983478 
L 71.222426 25.919426 
L 71.28349 25.911025 
L 71.391525 25.971996 
L 71.490166 25.99434 
L 71.438497 25.92068 
L 71.508955 25.968097 
L 71.513652 25.959758 
L 71.565321 26.030062 
L 71.602898 26.015073 
L 71.706236 26.00718 
L 71.673356 25.955471 
L 71.710934 25.989723 
L 71.739117 26.009271 
L 71.776694 25.915847 
L 71.804877 25.929812 
L 72.002159 25.690779 
L 72.06792 25.682325 
L 72.053828 25.602264 
L 72.1008 25.66177 
L 72.105497 25.64335 
L 72.161864 25.709535 
L 72.199441 25.715513 
L 72.213533 25.737767 
L 72.279293 25.680925 
L 72.302779 25.681864 
L 72.345054 25.61521 
L 72.373237 25.70144 
L 72.410814 25.676599 
L 72.481272 25.763942 
L 72.55173 25.72409 
L 73.439498 25.563525 
L 73.514653 25.511464 
L 73.45359 25.582763 
L 73.556928 25.543055 
L 73.768302 25.395377 
L 73.777696 25.418282 
L 73.810576 25.45686 
L 73.862245 25.335363 
L 73.90452 25.357243 
L 73.956189 25.267231 
L 74.17226 25.231198 
L 74.176957 25.253561 
L 74.519852 25.327045 
L 74.53864 25.271149 
L 74.613795 25.399311 
L 74.65607 25.43433 
L 74.717133 25.369006 
L 74.829866 25.326809 
L 74.745316 25.397149 
L 74.83926 25.362847 
L 74.928507 25.448644 
L 75.008359 25.52162 
L 75.045936 25.495037 
L 75.252613 25.27623 
L 75.29019 25.325742 
L 75.388831 25.444178 
L 75.417014 25.408427 
L 75.482775 25.484828 
L 75.600205 25.569616 
L 75.604902 25.564629 
L 75.694148 25.582887 
L 75.727029 25.563 
L 75.792789 25.547679 
L 75.820972 25.61294 
L 75.835064 25.587241 
L 75.985374 25.480471 
L 76.130987 25.548273 
L 76.257811 25.432935 
L 76.2766 25.486668 
L 76.332966 25.520291 
L 76.304783 25.452684 
L 76.370543 25.433725 
L 76.455093 25.395081 
L 76.483276 25.416847 
L 76.511459 25.458373 
L 76.581917 25.350879 
L 76.746318 25.343984 
L 76.840262 25.268794 
L 76.854354 25.24506 
L 76.924811 25.326987 
L 76.934206 25.314724 
L 76.971783 25.349587 
L 77.004664 25.219069 
L 77.018755 25.228059 
L 77.112699 25.186697 
L 77.046938 25.16213 
L 77.117396 25.180194 
L 77.21134 25.073794 
L 77.263009 25.098602 
L 77.2771 25.110882 
L 77.432108 24.985144 
L 77.469685 25.042744 
L 77.526051 24.916771 
L 77.554234 24.831345 
L 77.643481 24.909446 
L 77.66227 24.941625 
L 77.704544 24.871822 
L 77.756213 24.922716 
L 77.906523 24.725877 
L 77.911221 24.732009 
L 78.061531 24.824384 
L 78.066228 24.805822 
L 78.174263 24.677902 
L 78.099108 24.819986 
L 78.188355 24.693755 
L 78.423214 24.595782 
L 78.47958 24.636709 
L 78.531249 24.591766 
L 78.62989 24.572022 
L 78.643982 24.599368 
L 78.686257 24.62919 
L 78.71444 24.532539 
L 78.723834 24.547675 
L 78.836567 24.448635 
L 78.845961 24.468969 
L 78.860052 24.456448 
L 79.029151 24.541528 
L 79.076123 24.471113 
L 79.057334 24.549825 
L 79.146581 24.506884 
L 79.296891 24.316842 
L 79.301588 24.323455 
L 79.334468 24.263457 
L 79.386137 24.283902 
L 79.409623 24.254684 
L 79.480081 24.323513 
L 79.489476 24.320704 
L 79.658574 24.465424 
L 79.663271 24.449801 
L 79.776004 24.362987 
L 79.790096 24.330342 
L 79.846462 24.425573 
L 79.869948 24.399434 
L 79.893434 24.443745 
L 79.959194 24.342453 
L 79.977983 24.389774 
L 80.184659 24.366764 
L 80.194054 24.392769 
L 80.25042 24.457069 
L 80.306786 24.414017 
L 80.424216 24.447517 
L 80.358455 24.383434 
L 80.43361 24.434127 
L 80.569829 24.32134 
L 80.471188 24.456733 
L 80.58392 24.340986 
L 80.630892 24.363833 
L 80.677864 24.285308 
L 80.85166 24.116544 
L 80.706047 24.306768 
L 80.861054 24.124319 
L 80.969089 24.118247 
L 80.898632 24.087507 
L 80.973787 24.113488 
L 81.265012 23.807043 
L 81.274407 23.829039 
L 81.358956 23.899214 
L 81.293195 23.796159 
L 81.396534 23.83732 
L 81.48578 23.826054 
L 81.495174 23.855347 
L 81.542146 23.929131 
L 81.593815 23.810785 
L 81.612604 23.781748 
L 81.645484 23.846162 
L 81.701851 23.816685 
L 81.852161 23.770504 
L 81.946104 23.677455 
L 81.983682 23.692791 
L 82.011865 23.716144 
L 82.105809 23.651212 
L 82.1199 23.65961 
L 82.152781 23.748919 
L 82.265513 23.804726 
L 82.190358 23.726187 
L 82.274908 23.788587 
L 82.415823 23.681184 
L 82.288999 23.796455 
L 82.42052 23.701964 
L 82.885542 23.337002 
L 82.899633 23.369673 
L 82.998274 23.372844 
L 83.026457 23.32661 
L 83.186162 23.168724 
L 83.308289 23.038324 
L 83.345866 23.057994 
L 83.359958 23.060866 
L 83.378746 23.007774 
L 83.411627 22.984031 
L 83.425718 22.998526 
L 83.782705 21.559967 
L 83.806191 20.12563 
L 83.824979 8.788981 
L 83.918923 17.490102 
L 83.970592 23.638293 
L 84.097416 22.500559 
L 84.19136 20.993884 
L 84.210149 11.990249 
L 84.214846 10.090392 
L 84.304092 17.691657 
L 84.351064 24.047565 
L 84.482585 22.532013 
L 84.571832 19.282726 
L 84.585924 10.089927 
L 84.679867 17.811758 
L 84.726839 24.348112 
L 84.853663 22.794431 
L 84.947607 20.837353 
L 84.971093 9.995924 
L 85.074431 18.288884 
L 85.112009 24.643209 
L 85.234135 23.280026 
L 85.365657 20.275854 
L 85.379748 9.794746 
L 85.478389 17.346062 
L 85.534755 24.951091 
L 85.680368 23.324158 
L 85.816587 20.656479 
L 85.835375 9.600602 
L 85.938713 17.63175 
L 85.985685 25.171303 
L 86.131298 23.816956 
L 86.323883 20.595559 
L 86.342672 9.490285 
L 86.44601 17.648971 
L 86.492982 25.365933 
L 86.643292 24.124528 
L 86.887545 21.198995 
L 86.901637 18.599763 
L 86.915728 9.430871 
L 87.009672 17.235303 
L 87.066038 25.485297 
L 87.225743 24.293488 
L 87.56394 20.146758 
L 87.578032 9.381276 
L 87.676673 17.661277 
L 87.728342 25.473367 
L 87.869257 24.529139 
L 88.310793 20.385717 
L 88.329582 9.345479 
L 88.428223 18.371305 
L 88.470497 25.461169 
L 88.587927 24.70739 
L 89.18447 20.433911 
L 89.203259 9.396419 
L 89.297202 18.533491 
L 89.339477 25.305904 
L 89.452209 24.576133 
L 89.837379 22.5881 
L 89.842076 22.592851 
L 89.860865 22.47479 
L 90.114513 20.607737 
L 90.137999 9.43332 
L 90.231943 19.530935 
L 90.26952 25.165563 
L 90.358767 24.664369 
L 90.612415 23.121447 
L 90.90364 22.116958 
L 90.941218 22.080274 
L 90.950612 22.02433 
L 91.100922 21.603722 
L 91.147894 20.937442 
L 91.166683 16.044997 
L 91.180774 9.509274 
L 91.270021 19.995963 
L 91.302901 25.008967 
L 91.392148 24.455675 
L 92.030965 21.898834 
L 92.092029 21.761826 
L 92.181275 20.679954 
L 92.209458 9.514948 
L 92.294008 19.15746 
L 92.336282 24.995158 
L 92.430226 24.354038 
L 92.810698 22.527627 
L 93.083135 21.990213 
L 93.09253 22.007716 
L 93.397847 22.407186 
L 93.106621 22.000296 
L 93.402544 22.390502 
L 93.407241 22.365285 
L 93.473002 22.556445 
L 93.482396 22.555294 
L 93.712558 22.958245 
L 93.717255 22.948648 
L 93.783016 23.055186 
L 93.797108 23.018038 
L 94.017875 23.372626 
L 94.121214 23.416766 
L 94.02727 23.3996 
L 94.130608 23.447002 
L 94.252735 23.52288 
L 94.257432 23.49873 
L 94.332587 23.668278 
L 94.821094 24.583116 
L 94.853975 24.561142 
L 95.671285 26.038949 
L 95.807504 26.200925 
L 96.108124 26.60635 
L 96.831491 27.360732 
L 96.836188 27.342123 
L 96.963012 27.494894 
L 96.995892 27.564133 
L 97.075744 27.515286 
L 97.226054 27.663743 
L 97.230751 27.649428 
L 97.310604 27.534543 
L 97.352878 27.58769 
L 97.470308 27.68167 
L 97.695773 27.68471 
L 97.73335 27.749729 
L 97.775625 27.742617 
L 97.902449 27.81713 
L 97.907146 27.803661 
L 97.96821 27.727579 
L 98.043365 27.775646 
L 98.193675 27.678989 
L 98.052759 27.791647 
L 98.226555 27.722613 
L 98.329893 27.74465 
L 98.339288 27.774306 
L 98.414443 27.837951 
L 98.442626 27.758643 
L 98.503689 27.707762 
L 98.541267 27.780358 
L 98.550661 27.765684 
L 98.804309 27.612397 
L 98.841887 27.582271 
L 98.823098 27.620373 
L 98.912344 27.618779 
L 99.001591 27.688743 
L 99.025077 27.630795 
L 99.250542 27.613092 
L 99.311605 27.575333 
L 99.363274 27.627812 
L 99.513584 27.523892 
L 99.659197 27.586371 
L 99.663894 27.567198 
L 99.80481 27.471786 
L 99.809507 27.486297 
L 99.903451 27.446136 
L 99.875268 27.400861 
L 99.908148 27.437964 
L 99.992697 27.381678 
L 99.945726 27.360534 
L 99.997395 27.375626 
L 100.114824 27.329782 
L 100.128916 27.344259 
L 100.189979 27.377096 
L 100.166493 27.321773 
L 100.227557 27.305309 
L 100.316803 27.230171 
L 100.25574 27.314924 
L 100.349684 27.264378 
L 100.481205 27.212652 
L 100.509388 27.257635 
L 100.603332 27.183112 
L 100.640909 27.263792 
L 100.70667 27.135493 
L 100.795916 27.153327 
L 100.744247 27.095892 
L 100.819402 27.121637 
L 100.894557 27.048064 
L 100.936832 27.080824 
L 101.04017 27.138597 
L 100.946226 27.072493 
L 101.068353 27.107106 
L 101.120022 27.100258 
L 101.1576 27.180494 
L 101.162297 27.194732 
L 101.232755 27.063956 
L 101.378368 26.891621 
L 101.453523 26.976284 
L 101.505192 26.941425 
L 101.509889 26.933127 
L 101.533375 27.03397 
L 101.589741 26.999344 
L 101.716565 27.07731 
L 101.599135 26.988966 
L 101.72596 27.069798 
L 101.829298 26.999965 
L 101.852784 27.011586 
L 101.989002 26.923252 
L 102.012488 26.941908 
L 102.064157 27.009061 
L 102.12522 26.960577 
L 102.237953 26.797618 
L 102.36008 26.769211 
L 103.078749 26.744992 
L 103.167996 26.798079 
L 103.11163 26.707424 
L 103.196179 26.781885 
L 103.233757 26.800334 
L 103.257243 26.707331 
L 103.280728 26.732969 
L 103.369975 26.663275 
L 103.402855 26.67145 
L 103.506193 26.714058 
L 103.510891 26.689037 
L 103.567257 26.564355 
L 103.62832 26.632167 
L 103.736356 26.60206 
L 103.750447 26.631495 
L 103.783328 26.603725 
L 103.919546 26.67817 
L 104.055764 26.746952 
L 104.177891 26.723725 
L 104.187286 26.701112 
L 104.248349 26.639861 
L 104.281229 26.743112 
L 104.351687 26.791963 
L 104.393962 26.739945 
L 104.53018 26.682454 
L 104.422145 26.770355 
L 104.534877 26.699273 
L 104.61473 26.670149 
L 104.600638 26.632651 
L 104.624124 26.630697 
L 104.68049 26.608252 
L 104.713371 26.668966 
L 104.732159 26.653069 
L 104.788526 26.657737 
L 104.760342 26.627778 
L 104.8308 26.598949 
L 104.849589 26.564786 
L 104.905955 26.69209 
L 104.929441 26.667431 
L 104.938836 26.683141 
L 105.018688 26.616703 
L 105.032779 26.63469 
L 105.042174 26.61839 
L 105.103237 26.697317 
L 105.136117 26.658537 
L 105.258244 26.738054 
L 105.262941 26.716986 
L 105.361582 26.699703 
L 105.277033 26.731357 
L 105.370977 26.735699 
L 105.39916 26.685047 
L 105.51659 26.825762 
L 105.91585 26.644483 
L 106.047372 26.76631 
L 106.164801 26.706927 
L 106.169499 26.712892 
L 106.380872 26.692603 
L 106.385569 26.658302 
L 106.399661 26.643977 
L 106.441935 26.726452 
L 106.488907 26.698715 
L 106.615731 26.640333 
L 106.51709 26.735541 
L 106.63452 26.704391 
L 106.662703 26.740169 
L 106.704978 26.626545 
L 106.723767 26.630633 
L 106.737858 26.610624 
L 106.766041 26.714903 
L 106.822408 26.666661 
L 106.90226 26.706516 
L 106.850591 26.648733 
L 106.930443 26.646599 
L 107.273338 26.661891 
L 107.395464 26.690529 
L 107.489408 26.739611 
L 107.522288 26.709563 
L 107.644415 26.627723 
L 107.667901 26.646365 
L 107.733662 26.685256 
L 107.714873 26.623747 
L 107.771239 26.619269 
L 107.799423 26.613244 
L 107.790028 26.672839 
L 107.874578 26.65035 
L 107.893366 26.686481 
L 107.968521 26.598999 
L 108.090648 26.626772 
L 108.095345 26.647397 
L 108.193986 26.730858 
L 108.212775 26.681646 
L 108.264444 26.593688 
L 108.325507 26.685866 
L 108.428846 26.672682 
L 108.339599 26.707631 
L 108.43824 26.702935 
L 108.565064 26.654535 
L 108.569761 26.631825 
L 108.630825 26.604728 
L 108.659008 26.691173 
L 108.663705 26.681371 
L 108.785832 26.724726 
L 108.926747 26.652617 
L 110.086953 26.613821 
L 110.105741 26.562383 
L 110.185594 26.663637 
L 110.194988 26.635506 
L 110.317115 26.708816 
L 110.237263 26.581316 
L 110.326509 26.668722 
L 110.382875 26.614145 
L 110.434545 26.674527 
L 110.547277 26.723612 
L 110.556671 26.707587 
L 110.824411 26.489262 
L 110.838503 26.477461 
L 111.016996 26.555286 
L 111.223672 26.485382 
L 111.228369 26.491972 
L 111.256552 26.543828 
L 111.345799 26.511633 
L 111.571264 26.589867 
L 111.373982 26.474382 
L 111.580658 26.575549 
L 111.702785 26.411026 
L 111.604144 26.589391 
L 111.735665 26.460749 
L 111.792032 26.504705 
L 111.839003 26.420582 
L 112.036285 26.575441 
L 112.04568 26.565856 
L 112.064468 26.53925 
L 112.149018 26.520665 
L 112.247659 26.517836 
L 112.210081 26.572059 
L 112.252356 26.548037 
L 112.393272 26.635752 
L 112.402666 26.620259 
L 112.520096 26.72033 
L 112.618737 26.744443 
L 112.571765 26.705244 
L 112.632828 26.718212 
L 112.642222 26.702645 
L 112.759652 26.693205 
L 112.86299 26.666258 
L 112.872385 26.685291 
L 112.928751 26.638502 
L 112.919357 26.615676 
L 112.938145 26.617626 
L 113.041483 26.521861 
L 112.999209 26.629002 
L 113.055575 26.534838 
L 113.727273 26.560399 
L 113.727273 26.560399 
" style="fill:none;stroke:#000000;stroke-linecap:square;stroke-width:0.3;"/>
   </g>
   <g id="line2d_2">
    <path clip-path="url(#p58c8ad68dc)" d="M 12.272727 45.323484 
L 13.038369 45.103289 
L 13.179284 45.22519 
L 13.071249 45.074202 
L 13.216862 45.1955 
L 13.362475 45.182234 
L 13.442327 45.22019 
L 13.461116 45.168355 
L 13.58794 45.052192 
L 13.644306 45.010264 
L 13.705369 45.048954 
L 13.841588 45.17353 
L 13.977806 45.101057 
L 14.010687 45.175171 
L 14.076447 45.097982 
L 14.123419 45.171816 
L 14.212666 45.146113 
L 14.22206 45.200761 
L 14.231454 45.188162 
L 14.409947 45.12988 
L 14.250243 45.218343 
L 14.419342 45.148827 
L 14.424039 45.168526 
L 14.452222 45.09758 
L 14.52268 45.103679 
L 14.541469 45.074392 
L 14.602532 45.179112 
L 14.813906 45.24277 
L 14.818603 45.212472 
L 14.865575 45.157599 
L 14.889061 45.232285 
L 14.931335 45.210196 
L 15.231955 45.05189 
L 15.325899 45.079382 
L 15.30711 45.12382 
L 15.330596 45.090073 
L 15.429237 45.152828 
L 15.45742 45.120288 
L 15.4903 45.158674 
L 15.579547 45.130094 
L 15.687582 45.136257 
L 15.654702 45.08634 
L 15.69228 45.128071 
L 15.90835 44.943658 
L 15.922442 44.982258 
L 16.049266 45.104522 
L 16.053963 45.103471 
L 16.354583 45.176706 
L 16.368674 45.130037 
L 16.504893 45.073341 
L 16.523682 45.096942 
L 16.570654 45.128135 
L 16.631717 45.071712 
L 16.645809 45.029638 
L 16.720964 45.144386 
L 16.725661 45.127192 
L 16.871274 45.180136 
L 16.744449 45.107887 
L 16.880668 45.165943 
L 16.908851 45.140897 
L 16.955823 45.227143 
L 16.984006 45.199635 
L 16.998098 45.21508 
L 17.045069 45.115835 
L 17.054464 45.129941 
L 17.073253 45.096604 
L 17.101436 45.163739 
L 17.157802 45.163117 
L 17.279929 45.166748 
L 17.29402 45.195939 
L 17.416147 45.152309 
L 17.463119 45.126949 
L 17.514788 45.193611 
L 17.651007 45.401969 
L 17.707373 45.365898 
L 17.867077 45.293746 
L 17.726162 45.393033 
L 17.871774 45.331271 
L 17.876472 45.361616 
L 17.970415 45.304026 
L 17.975112 45.305664 
L 18.069056 45.268 
L 18.101937 45.299858 
L 18.233458 45.416178 
L 18.238155 45.392045 
L 18.341493 45.369332 
L 18.360282 45.40253 
L 18.468317 45.371911 
L 18.369676 45.376564 
L 18.477712 45.34132 
L 18.524683 45.307728 
L 18.571655 45.419927 
L 18.811212 45.323615 
L 18.900458 45.347231 
L 18.933339 45.274473 
L 19.069557 45.259963 
L 19.102437 45.269044 
L 19.196381 45.147341 
L 19.351388 45.318208 
L 19.224564 45.113623 
L 19.356086 45.309221 
L 19.388966 45.379033 
L 19.48291 45.295185 
L 19.760044 45.3457 
L 19.764741 45.324991 
L 19.825804 45.46424 
L 19.84929 45.441758 
L 19.863382 45.400691 
L 19.9996 45.414914 
L 20.004297 45.403156 
L 20.055966 45.56932 
L 20.065361 45.54571 
L 20.196882 45.597594 
L 20.276734 45.695683 
L 20.319009 45.649207 
L 20.408255 45.660074 
L 20.422347 45.720401 
L 20.492805 45.668121 
L 20.549171 45.780076 
L 20.553868 45.774782 
L 20.614932 45.859558 
L 20.619629 45.859244 
L 20.732361 45.925936 
L 20.75115 45.867729 
L 20.769939 45.845437 
L 20.845094 45.93988 
L 20.929643 46.037512 
L 21.277235 47.54307 
L 21.281932 47.521462 
L 22.399863 47.486339 
L 22.432743 47.523546 
L 22.517292 47.488908 
L 23.104441 47.523816 
L 23.198385 47.480174 
L 23.221871 47.517382 
L 23.27354 47.606403 
L 23.353392 47.520606 
L 23.484913 47.542724 
L 23.494307 47.519558 
L 23.654012 47.457096 
L 23.508399 47.553954 
L 23.663406 47.480379 
L 23.794927 47.530746 
L 24.076759 47.516703 
L 24.180097 47.506466 
L 24.100245 47.471995 
L 24.184794 47.498491 
L 24.302224 47.47717 
L 24.227069 47.535203 
L 24.306921 47.489597 
L 24.466625 47.52426 
L 24.47602 47.493952 
L 24.593449 47.395253 
L 24.621632 47.476061 
L 24.804823 47.524901 
L 24.997407 47.473554 
L 25.006802 47.49173 
L 25.058471 47.578108 
L 25.124231 47.535241 
L 25.166506 47.566368 
L 25.246358 47.455854 
L 25.47652 47.51593 
L 25.589253 47.568217 
L 25.617436 47.549291 
L 25.74426 47.479698 
L 25.847598 47.512377 
L 25.800626 47.462875 
L 25.86169 47.501387 
L 25.979119 47.455582 
L 26.035486 47.585818 
L 26.101246 47.552528 
L 26.199887 47.439972 
L 26.223373 47.476265 
L 26.22807 47.502172 
L 26.270345 47.411205 
L 26.331408 47.457233 
L 26.354894 47.500425 
L 26.523993 47.461631 
L 26.674303 47.606643 
L 26.787036 47.497749 
L 26.79643 47.52121 
L 26.838705 47.567593 
L 26.895071 47.470468 
L 26.984317 47.430844 
L 26.927951 47.494503 
L 27.012501 47.477828 
L 27.031289 47.526304 
L 27.106444 47.412245 
L 27.252057 47.533562 
L 27.303726 47.577005 
L 27.36479 47.544476 
L 27.477522 47.540615 
L 27.392973 47.48445 
L 27.486916 47.519585 
L 27.566769 47.471774 
L 27.609043 47.513749 
L 27.618438 47.512079 
L 27.632529 47.451083 
L 27.660712 47.41437 
L 27.749959 47.44604 
L 27.679501 47.441436 
L 27.754656 47.455776 
L 27.801628 47.544051 
L 27.872086 47.487842 
L 28.097551 47.432253 
L 28.205586 47.546204 
L 28.21498 47.52897 
L 28.33241 47.478337 
L 28.346502 47.513014 
L 28.56727 47.526284 
L 28.576664 47.491532 
L 28.694094 47.445484 
L 28.586058 47.495899 
L 28.698791 47.451262 
L 28.755157 47.504525 
L 28.806826 47.418722 
L 28.994714 47.537619 
L 29.013502 47.475844 
L 29.046383 47.446545 
L 29.102749 47.562874 
L 29.173207 47.571038 
L 29.149721 47.524703 
L 29.210784 47.528982 
L 29.337608 47.403413 
L 29.224876 47.551918 
L 29.398672 47.487288 
L 29.506707 47.584116 
L 29.525496 47.543879 
L 29.65232 47.462602 
L 29.661714 47.472138 
L 29.746264 47.551113 
L 29.788538 47.502728 
L 29.95294 47.471131 
L 29.957637 47.486208 
L 30.070369 47.572865 
L 29.98582 47.475089 
L 30.089158 47.531803 
L 30.206588 47.533135 
L 30.220679 47.494336 
L 30.324018 47.466145 
L 30.25356 47.520961 
L 30.328715 47.501738 
L 30.779645 47.494079 
L 30.784342 47.51578 
L 30.859497 47.418476 
L 30.878286 47.461108 
L 30.981624 47.375991 
L 31.009807 47.4028 
L 31.164814 47.571283 
L 31.211786 47.495488 
L 31.286941 47.550224 
L 31.291638 47.572564 
L 31.352702 47.468533 
L 31.376187 47.465178 
L 31.470131 47.431059 
L 31.404371 47.48725 
L 31.493617 47.438837 
L 31.596955 47.480029 
L 31.620441 47.460176 
L 31.808329 47.379202 
L 31.813026 47.391467 
L 32.113646 47.46001 
L 32.146526 47.541349 
L 32.226378 47.460146 
L 32.268653 47.511619 
L 32.348505 47.445535 
L 32.489421 47.565615 
L 32.625639 47.440004 
L 32.639731 47.459803 
L 32.771252 47.53962 
L 32.794738 47.510196 
L 32.930956 47.422658 
L 32.977928 47.472748 
L 33.081266 47.554118 
L 33.006111 47.460794 
L 33.100055 47.522446 
L 33.165816 47.456238 
L 33.198696 47.551776 
L 33.20809 47.545618 
L 33.349006 47.515971 
L 33.236274 47.615774 
L 33.3584 47.531749 
L 33.546288 47.468276 
L 33.565077 47.408435 
L 33.583865 47.478468 
L 33.663718 47.443714 
L 33.851605 47.402201 
L 33.860999 47.448421 
L 33.922063 47.500419 
L 33.95964 47.414971 
L 33.964338 47.420154 
L 34.156922 47.387877 
L 34.175711 47.453483 
L 34.22738 47.577278 
L 34.302535 47.541084 
L 35.039993 47.386026 
L 35.110451 47.344177 
L 35.152726 47.362434 
L 35.260761 47.359395 
L 35.195001 47.438492 
L 35.270156 47.401323 
L 35.31243 47.378656 
L 35.434557 47.561517 
L 35.683508 47.48343 
L 35.688205 47.491425 
L 35.791543 47.521377 
L 35.810332 47.511714 
L 35.960642 47.448206 
L 36.068677 47.467656 
L 35.993522 47.382537 
L 36.082769 47.453414 
L 36.233079 47.502438 
L 36.237776 47.493803 
L 36.378692 47.462566 
L 36.270656 47.527798 
L 36.388086 47.479079 
L 36.406875 47.491034 
L 36.458544 47.376627 
L 36.467938 47.385937 
L 36.698101 47.368231 
L 36.707495 47.402881 
L 36.806136 47.612027 
L 36.839016 47.593194 
L 36.881291 47.558881 
L 36.93296 47.633972 
L 36.951749 47.589583 
L 37.064481 47.60728 
L 37.120847 47.57074 
L 37.158425 47.66244 
L 37.163122 47.656793 
L 37.421467 47.630766 
L 37.459045 47.652349 
L 37.482531 47.5717 
L 37.520108 47.611687 
L 37.524805 47.588602 
L 37.609355 47.651161 
L 37.623446 47.642903 
L 37.712693 47.608607 
L 37.642235 47.612541 
L 37.722087 47.594294 
L 37.759665 47.578313 
L 37.797242 47.651197 
L 37.816031 47.648941 
L 37.90058 47.632382 
L 37.848911 47.583675 
L 37.914672 47.611002 
L 37.938158 47.554597 
L 38.032102 47.595011 
L 38.111954 47.599806 
L 38.088468 47.626086 
L 38.13544 47.630178 
L 38.398482 47.518546 
L 38.511215 47.580401 
L 38.515912 47.567206 
L 38.985631 47.625523 
L 38.990328 47.647036 
L 39.074877 47.562057 
L 39.084272 47.5655 
L 39.192307 47.608715 
L 39.093666 47.545809 
L 39.22049 47.582957 
L 39.243976 47.539317 
L 39.309737 47.613725 
L 39.333222 47.571578 
L 39.525807 47.563182 
L 39.530504 47.572672 
L 39.629145 47.581201 
L 39.563385 47.541202 
L 39.643237 47.564393 
L 39.760667 47.548208 
L 39.713695 47.626612 
L 39.765364 47.556697 
L 39.793547 47.630355 
L 39.868702 47.52894 
L 40.502822 47.509116 
L 40.596766 47.50392 
L 40.526308 47.557927 
L 40.610857 47.536169 
L 40.718893 47.553352 
L 40.72359 47.534053 
L 40.765865 47.619118 
L 40.84102 47.510673 
L 40.897386 47.602093 
L 40.953752 47.5636 
L 40.972541 47.505298 
L 41.010118 47.571909 
L 41.066485 47.541401 
L 41.169823 47.491669 
L 41.188611 47.539324 
L 41.461048 47.595983 
L 41.465745 47.619535 
L 41.550295 47.530629 
L 41.559689 47.539313 
L 42.052894 47.520263 
L 42.07638 47.59332 
L 42.118654 47.488265 
L 42.165626 47.533823 
L 42.297148 47.452471 
L 42.320634 47.553726 
L 42.40988 47.545604 
L 42.386394 47.480055 
L 42.419274 47.523469 
L 42.508521 47.50235 
L 42.466246 47.532888 
L 42.52731 47.509217 
L 42.658831 47.585769 
L 42.696409 47.584894 
L 42.672923 47.562172 
L 42.752775 47.531694 
L 42.888993 47.49866 
L 42.964148 47.597149 
L 42.903085 47.486271 
L 43.015817 47.583548 
L 43.166127 47.487279 
L 43.288254 47.564389 
L 43.297648 47.539818 
L 43.419775 47.355802 
L 43.42917 47.37767 
L 43.654635 47.581368 
L 43.72979 47.536471 
L 43.757973 47.606699 
L 43.76267 47.606565 
L 43.856614 47.606062 
L 43.776762 47.57569 
L 43.884797 47.572535 
L 43.927072 47.611405 
L 43.997529 47.553709 
L 44.077382 47.612319 
L 44.100867 47.527062 
L 44.157234 47.558013 
L 44.2136 47.497207 
L 44.345121 47.620503 
L 44.241783 47.469666 
L 44.349818 47.607561 
L 44.48134 47.448442 
L 44.603466 47.522082 
L 44.673924 47.602338 
L 44.716199 47.522744 
L 44.786657 47.585521 
L 44.84772 47.535214 
L 45.045002 47.563335 
L 45.059094 47.520072 
L 45.157735 47.444668 
L 45.176523 47.498314 
L 45.261073 47.585591 
L 45.209404 47.488369 
L 45.293953 47.54407 
L 45.411383 47.482001 
L 45.41608 47.499173 
L 45.552298 47.532106 
L 45.575784 47.476341 
L 45.679122 47.443488 
L 45.702608 47.454558 
L 45.918679 47.599763 
L 45.998531 47.525267 
L 46.031411 47.585344 
L 46.13475 47.580097 
L 46.0502 47.554697 
L 46.139447 47.56847 
L 46.275665 47.498899 
L 46.332031 47.546765 
L 46.374306 47.464727 
L 46.388398 47.491378 
L 46.595074 47.559278 
L 46.623257 47.496414 
L 46.665532 47.53001 
L 46.745384 47.466203 
L 46.750081 47.451553 
L 46.782961 47.498427 
L 46.848722 47.507225 
L 46.989638 47.513089 
L 47.107067 47.448824 
L 47.003729 47.536933 
L 47.125856 47.505379 
L 47.13525 47.537975 
L 47.186919 47.398771 
L 47.215103 47.412392 
L 47.313743 47.481602 
L 47.247983 47.352852 
L 47.337229 47.414051 
L 47.473448 47.341768 
L 47.562694 47.309573 
L 47.501631 47.390463 
L 47.581483 47.337788 
L 47.595575 47.37078 
L 47.628455 47.29678 
L 47.684821 47.297511 
L 47.717702 47.238626 
L 47.792857 47.312692 
L 47.929075 47.245978 
L 47.933772 47.281826 
L 47.97135 47.335215 
L 48.041807 47.267991 
L 48.206209 47.2197 
L 48.069991 47.294725 
L 48.220301 47.23634 
L 48.535012 47.192444 
L 48.647745 47.086373 
L 48.661836 47.11681 
L 48.821541 46.961734 
L 48.826238 46.973513 
L 48.882604 47.062052 
L 48.840329 46.968166 
L 48.943667 47.006136 
L 49.047006 47.017935 
L 48.981245 47.041013 
L 49.051703 47.019968 
L 49.155041 47.03534 
L 49.098675 46.983564 
L 49.159738 47.028337 
L 49.183224 46.990204 
L 49.220801 47.071177 
L 49.272471 47.024624 
L 49.338231 47.074025 
L 49.455661 46.862823 
L 49.54021 46.855038 
L 49.554302 46.804657 
L 49.789161 46.547723 
L 49.803253 46.557701 
L 49.95826 46.704851 
L 49.822041 46.540101 
L 49.962957 46.701156 
L 50.061598 46.608382 
L 50.085084 46.616082 
L 50.14145 46.634084 
L 50.179028 46.564705 
L 50.183725 46.570098 
L 50.319943 46.433198 
L 50.418584 46.442568 
L 50.432676 46.404172 
L 50.489042 46.468206 
L 50.545408 46.400033 
L 50.700415 46.540596 
L 50.578289 46.334227 
L 50.756782 46.445846 
L 50.831937 46.387945 
L 50.836634 46.358474 
L 50.930578 46.231939 
L 50.954064 46.295732 
L 51.273472 46.091187 
L 51.37681 46.001577 
L 51.282867 46.09363 
L 51.395599 46.018072 
L 51.475451 45.987144 
L 51.484846 45.952688 
L 51.635156 45.850622 
L 51.733797 45.913864 
L 51.668036 45.827337 
L 51.757283 45.863536 
L 51.893501 45.700977 
L 51.898198 45.712697 
L 51.954564 45.603127 
L 51.968656 45.603848 
L 52.170635 45.506715 
L 52.175332 45.529163 
L 52.194121 45.559835 
L 52.264579 45.4701 
L 52.42898 45.456471 
L 52.283367 45.49593 
L 52.433677 45.463491 
L 52.438375 45.487338 
L 52.51353 45.351715 
L 52.518227 45.352792 
L 52.532318 45.319115 
L 52.602776 45.408994 
L 52.621565 45.393727 
L 52.645051 45.420745 
L 52.692023 45.317173 
L 52.809452 45.228854 
L 52.823544 45.228714 
L 52.870516 45.132116 
L 52.875213 45.150024 
L 53.020826 45.019341 
L 53.025523 45.050048 
L 53.086587 45.094725 
L 53.138256 45.042704 
L 53.401298 44.860788 
L 53.405995 44.87339 
L 53.41539 44.894871 
L 53.443573 44.830041 
L 53.499939 44.836104 
L 53.5657 44.737312 
L 53.622066 44.766957 
L 53.777073 44.627908 
L 53.786467 44.636944 
L 53.885108 44.672066 
L 53.908594 44.625391 
L 54.058904 44.505953 
L 54.157545 44.39078 
L 54.181031 44.40583 
L 54.260883 44.431982 
L 54.298461 44.354032 
L 54.425285 44.17578 
L 54.429982 44.18448 
L 54.434679 44.191157 
L 54.46756 44.130368 
L 54.50044 44.112174 
L 54.636658 43.923555 
L 54.693025 43.828806 
L 54.71651 43.866465 
L 54.862123 43.573099 
L 55.021828 43.22601 
L 55.158046 42.31859 
L 55.186229 40.348954 
L 55.205018 30.376475 
L 55.28487 45.170438 
L 55.303659 46.064062 
L 55.392905 45.138962 
L 55.557307 42.008858 
L 55.576096 31.986343 
L 55.580793 30.856836 
L 55.655948 39.405535 
L 55.688828 46.200195 
L 55.801561 44.855566 
L 55.947173 40.563623 
L 55.961265 31.561084 
L 56.050512 44.766277 
L 56.0693 45.966665 
L 56.158547 44.720726 
L 56.290068 41.762237 
L 56.313554 32.034965 
L 56.393406 42.401833 
L 56.412195 45.808012 
L 56.506139 44.437559 
L 56.628266 41.162771 
L 56.647054 32.277093 
L 56.726907 43.593586 
L 56.745695 45.76487 
L 56.839639 44.331638 
L 56.957069 40.560431 
L 56.97116 32.216318 
L 57.05571 44.721405 
L 57.069801 45.820152 
L 57.163745 44.454543 
L 57.285872 41.23488 
L 57.304661 32.153426 
L 57.384513 43.360093 
L 57.403301 45.949817 
L 57.497245 44.65295 
L 57.628766 41.497434 
L 57.647555 31.956914 
L 57.727407 41.923095 
L 57.750893 46.133861 
L 57.84014 44.985206 
L 57.995147 41.405482 
L 58.013936 31.748538 
L 58.093788 41.766464 
L 58.117274 46.311348 
L 58.211218 45.255686 
L 58.389711 41.3772 
L 58.4085 31.564046 
L 58.488352 41.548021 
L 58.516535 46.511592 
L 58.605781 45.602021 
L 58.821852 40.751372 
L 58.835944 31.361697 
L 58.92519 45.212051 
L 58.943979 46.667112 
L 59.037923 45.871023 
L 59.282176 42.043029 
L 59.300965 34.550538 
L 59.310359 31.278631 
L 59.394909 44.497168 
L 59.418395 46.818224 
L 59.507641 46.114574 
L 59.79417 42.394972 
L 59.817656 40.100704 
L 59.831747 31.112324 
L 59.920994 46.050826 
L 59.939783 46.940491 
L 60.033726 46.313559 
L 60.39541 41.197635 
L 60.414198 31.059801 
L 60.494051 43.502208 
L 60.526931 46.995462 
L 60.61148 46.46569 
L 60.818157 44.583249 
L 61.015438 42.449215 
L 61.043622 41.308772 
L 61.06241 31.002187 
L 61.137565 41.805716 
L 61.170446 47.052392 
L 61.254995 46.58526 
L 61.762291 41.12245 
L 61.78108 30.996737 
L 61.856235 43.477469 
L 61.889115 47.107947 
L 61.973665 46.670565 
L 62.26489 44.44866 
L 62.570207 41.567876 
L 62.593693 31.183536 
L 62.664151 42.912039 
L 62.697031 47.045701 
L 62.781581 46.600639 
L 63.420398 41.84153 
L 63.439187 37.463785 
L 63.453279 31.187226 
L 63.537828 46.842629 
L 63.556617 47.078481 
L 63.641166 46.640961 
L 63.758596 45.941806 
L 64.153159 43.379799 
L 64.270589 42.852648 
L 64.275286 42.863453 
L 64.420899 40.730178 
L 64.444385 31.637214 
L 64.510146 45.206191 
L 64.543026 46.913631 
L 64.627575 46.490812 
L 65.134872 43.399305 
L 65.139569 43.422763 
L 65.280484 45.391244 
L 65.397914 45.530951 
L 66.257499 47.364228 
L 66.29038 47.344434 
L 66.600394 47.579958 
L 66.661457 47.63936 
L 66.62388 47.555352 
L 66.713126 47.568226 
L 67.300275 47.622804 
L 67.455282 47.576186 
L 67.459979 47.585726 
L 67.478768 47.636129 
L 67.55862 47.54481 
L 67.572712 47.59186 
L 67.582106 47.577647 
L 67.619684 47.642998 
L 67.671353 47.641758 
L 67.816965 47.565869 
L 67.694839 47.678355 
L 67.840451 47.614072 
L 67.929698 47.616161 
L 67.868634 47.572364 
L 67.953184 47.602931 
L 67.957881 47.590996 
L 67.97667 47.654341 
L 68.047128 47.638156 
L 68.051825 47.659251 
L 68.12698 47.544837 
L 68.136374 47.564383 
L 68.225621 47.432093 
L 68.258501 47.495414 
L 68.432297 47.648442 
L 68.441691 47.642675 
L 68.563818 47.533749 
L 68.568515 47.549982 
L 68.836255 47.493004 
L 68.840952 47.508999 
L 68.869135 47.489947 
L 68.981868 47.580457 
L 69.057023 47.523696 
L 69.099298 47.566226 
L 69.136875 47.615657 
L 69.240213 47.541479 
L 69.357643 47.593905 
L 69.709932 47.487994 
L 69.902517 47.60162 
L 69.916608 47.580275 
L 69.991763 47.517174 
L 69.968277 47.602686 
L 70.034038 47.525067 
L 70.076312 47.558848 
L 70.118587 47.49981 
L 70.137376 47.500766 
L 70.268897 47.483033 
L 70.466179 47.491017 
L 70.546031 47.464684 
L 70.499059 47.519179 
L 70.56482 47.525442 
L 70.630581 47.487516 
L 70.696341 47.555301 
L 70.780891 47.62493 
L 70.804376 47.572267 
L 71.086208 47.456537 
L 71.090905 47.480039 
L 71.217729 47.517258 
L 71.339856 47.429171 
L 71.344553 47.449328 
L 71.438497 47.515106 
L 71.476074 47.483348 
L 71.480771 47.458791 
L 71.504257 47.541256 
L 71.58411 47.505109 
L 71.696842 47.604249 
L 71.706236 47.576811 
L 71.856546 47.514252 
L 71.715631 47.588346 
L 71.861244 47.520194 
L 71.91761 47.437327 
L 71.978673 47.506585 
L 72.030342 47.439592 
L 72.082011 47.550223 
L 72.086709 47.525686 
L 72.631582 47.518146 
L 72.739618 47.56631 
L 72.683251 47.506297 
L 72.744315 47.549035 
L 72.889928 47.428441 
L 73.00266 47.483216 
L 72.96978 47.415513 
L 73.007357 47.469933 
L 73.054329 47.485767 
L 73.073118 47.428729 
L 73.115393 47.4385 
L 73.369041 47.57038 
L 73.378435 47.55236 
L 73.533442 47.494224 
L 73.899823 47.447686 
L 73.90452 47.413265 
L 73.951492 47.54319 
L 74.003161 47.50821 
L 74.111196 47.430028 
L 74.017252 47.543278 
L 74.139379 47.495442 
L 74.275598 47.564422 
L 74.378936 47.566812 
L 74.303781 47.54716 
L 74.38833 47.551649 
L 74.524549 47.484532 
L 74.533943 47.460939 
L 74.609098 47.557889 
L 74.62319 47.548052 
L 74.731225 47.470072 
L 74.759408 47.500958 
L 75.097606 47.404478 
L 75.102303 47.447378 
L 75.243218 47.510077 
L 75.25731 47.48752 
L 75.365345 47.491393 
L 75.304282 47.527117 
L 75.370042 47.500796 
L 75.496866 47.545442 
L 75.529747 47.512623 
L 75.647176 47.48079 
L 75.539141 47.522963 
L 75.651874 47.484248 
L 75.670662 47.511137 
L 75.70824 47.441282 
L 75.759909 47.45743 
L 75.778698 47.482947 
L 75.797486 47.419409 
L 75.863247 47.42705 
L 75.877339 47.45946 
L 75.999465 47.460348 
L 76.130987 47.584658 
L 76.257811 47.481885 
L 76.281297 47.546595 
L 76.37524 47.513486 
L 76.408121 47.450925 
L 76.483276 47.542756 
L 76.516156 47.485867 
L 76.581917 47.498105 
L 76.713438 47.462102 
L 76.802684 47.497302 
L 76.82617 47.485228 
L 76.938903 47.37602 
L 76.962389 47.459331 
L 77.108002 47.565341 
L 77.112699 47.556006 
L 77.154974 47.579235 
L 77.122093 47.532852 
L 77.21134 47.531072 
L 77.2771 47.56376 
L 77.338164 47.478829 
L 77.859552 47.477976 
L 77.864249 47.492289 
L 77.944101 47.397659 
L 77.948798 47.384241 
L 78.02865 47.489696 
L 78.103805 47.540456 
L 78.141383 47.50008 
L 78.14608 47.468467 
L 78.240024 47.56281 
L 78.244721 47.523771 
L 78.254115 47.547588 
L 78.310482 47.453073 
L 78.338665 47.464021 
L 78.432608 47.430912 
L 78.357453 47.477661 
L 78.451397 47.465044 
L 79.19825 47.561516 
L 79.207644 47.548504 
L 79.334468 47.600557 
L 79.470687 47.458381 
L 79.611602 47.518289 
L 79.752518 47.404358 
L 79.935708 47.416307 
L 79.940405 47.430031 
L 80.053138 47.460768 
L 79.987377 47.402225 
L 80.057835 47.454704 
L 80.095413 47.415081 
L 80.06723 47.466548 
L 80.147082 47.507042 
L 80.21754 47.50417 
L 80.236328 47.44352 
L 80.241025 47.452796 
L 80.349061 47.517185 
L 80.414821 47.531252 
L 80.447702 47.47163 
L 80.837568 47.472437 
L 80.950301 47.381792 
L 80.954998 47.386568 
L 81.025456 47.481635 
L 81.077125 47.438543 
L 81.142885 47.505042 
L 81.18516 47.54104 
L 81.274407 47.45705 
L 81.415322 47.582649 
L 81.420019 47.58009 
L 81.560935 47.439891 
L 81.673668 47.529407 
L 81.692456 47.483114 
L 81.7864 47.472779 
L 81.734731 47.509643 
L 81.805189 47.501597 
L 81.90383 47.53601 
L 81.917921 47.530708 
L 82.030654 47.409681 
L 82.044745 47.424119 
L 82.082323 47.444641 
L 82.1199 47.355696 
L 82.129295 47.351312 
L 82.133992 47.345815 
L 82.195055 47.432898 
L 82.284302 47.438042 
L 82.232633 47.396095 
L 82.303091 47.431259 
L 82.378246 47.419502 
L 82.401732 47.47393 
L 82.575527 47.557882 
L 82.584922 47.533582 
L 82.866753 47.434887 
L 82.87145 47.44577 
L 82.932514 47.516013 
L 82.98888 47.478663 
L 83.125098 47.377719 
L 83.017063 47.492223 
L 83.129796 47.394443 
L 83.237831 47.448852 
L 83.186162 47.366796 
L 83.251922 47.43278 
L 83.308289 47.354371 
L 83.355261 47.475824 
L 83.421021 47.443638 
L 83.458599 47.498279 
L 83.463296 47.509808 
L 83.524359 47.441565 
L 83.543148 47.4467 
L 83.571331 47.464898 
L 83.665275 47.38218 
L 83.721641 47.340514 
L 83.674669 47.386954 
L 83.77331 47.394253 
L 83.961198 47.64308 
L 83.965895 47.638663 
L 84.30879 47.538793 
L 84.40743 47.530843 
L 84.365156 47.614905 
L 84.416825 47.555613 
L 84.496677 47.600928 
L 84.534255 47.580235 
L 84.576529 47.541224 
L 84.64229 47.589654 
L 84.75972 47.63571 
L 84.764417 47.616448 
L 84.816086 47.555799 
L 84.834875 47.632893 
L 84.877149 47.587633 
L 84.980487 47.612255 
L 84.994579 47.56672 
L 85.050945 47.522524 
L 85.112009 47.553577 
L 85.196558 47.490382 
L 85.135494 47.582001 
L 85.24353 47.53408 
L 85.351565 47.582929 
L 85.365657 47.561896 
L 85.487784 47.539694 
L 85.375051 47.577241 
L 85.506572 47.569247 
L 85.530058 47.612295 
L 85.553544 47.545454 
L 85.614608 47.548162 
L 85.952805 47.617196 
L 85.957502 47.62641 
L 86.004474 47.534643 
L 86.042052 47.54988 
L 86.06084 47.528155 
L 86.140693 47.599103 
L 86.272214 47.578829 
L 86.347369 47.533349 
L 86.286305 47.595709 
L 86.384946 47.595346 
L 86.497679 47.645928 
L 86.507073 47.635572 
L 86.647989 47.489823 
L 86.718447 47.562107 
L 86.774813 47.537581 
L 86.887545 47.533602 
L 86.817087 47.621142 
L 86.892242 47.542351 
L 86.976792 47.61583 
L 87.023764 47.587939 
L 87.061341 47.519864 
L 87.145891 47.560254 
L 87.221046 47.612544 
L 87.26332 47.541927 
L 87.371356 47.542701 
L 87.305595 47.612626 
L 87.38075 47.558299 
L 87.399539 47.600272 
L 87.474694 47.512533 
L 87.479391 47.516969 
L 87.49818 47.465043 
L 87.573335 47.559397 
L 87.700159 47.62495 
L 87.592123 47.544514 
L 87.704856 47.617282 
L 87.859863 47.492828 
L 87.878652 47.50946 
L 88.01487 47.535187 
L 88.019567 47.549451 
L 88.057145 47.551772 
L 88.09942 47.47487 
L 88.104117 47.482368 
L 88.174575 47.471617 
L 88.113511 47.486831 
L 88.207455 47.498488 
L 88.301399 47.565301 
L 88.334279 47.535939 
L 88.418828 47.592771 
L 88.4658 47.564152 
L 88.484589 47.541183 
L 88.545652 47.625526 
L 88.573835 47.591487 
L 88.64899 47.581055 
L 88.672476 47.541406 
L 88.757026 47.500042 
L 88.681871 47.54697 
L 88.775815 47.552485 
L 88.785209 47.615512 
L 88.832181 47.535289 
L 88.88385 47.572306 
L 88.963702 47.493073 
L 88.996582 47.524025 
L 89.052949 47.590198 
L 89.109315 47.532171 
L 89.15159 47.501293 
L 89.160984 47.559144 
L 89.222047 47.533696 
L 89.358266 47.570317 
L 89.36766 47.554931 
L 89.475695 47.518277 
L 89.405238 47.59284 
L 89.494484 47.560385 
L 89.588428 47.580627 
L 89.541456 47.507202 
L 89.611914 47.537571 
L 89.621308 47.50841 
L 89.705858 47.583608 
L 89.724646 47.534435 
L 89.856168 47.618517 
L 89.987689 47.547917 
L 90.081633 47.528461 
L 90.095724 47.487854 
L 90.654689 47.54944 
L 90.696964 47.462767 
L 90.762725 47.550673 
L 90.790908 47.565702 
L 90.819091 47.50099 
L 90.861366 47.50586 
L 90.884852 47.44099 
L 90.969401 47.52184 
L 91.05395 47.548756 
L 90.98819 47.490566 
L 91.082133 47.508403 
L 91.1385 47.465145 
L 91.176077 47.55109 
L 91.185472 47.542304 
L 91.363965 47.58046 
L 91.392148 47.624512 
L 91.443817 47.512777 
L 91.472 47.557342 
L 91.580035 47.502616 
L 91.598824 47.525304 
L 91.711557 47.565778 
L 91.612916 47.506051 
L 91.725648 47.526887 
L 91.927627 47.442861 
L 92.016874 47.553553 
L 92.049754 47.506437 
L 92.153092 47.485121 
L 92.092029 47.548937 
L 92.162486 47.509398 
L 92.34098 47.587583 
L 92.181275 47.484802 
L 92.369163 47.552811 
L 92.49129 47.452015 
L 92.411437 47.605095 
L 92.528867 47.499597 
L 92.660388 47.591839 
L 92.669783 47.577712 
L 92.862367 47.533975 
L 92.951614 47.562925 
L 92.895248 47.50469 
L 92.970403 47.518415 
L 93.195868 47.434165 
L 93.209959 47.400526 
L 93.299206 47.480183 
L 93.440121 47.398124 
L 93.557551 47.488873 
L 93.454213 47.393 
L 93.571643 47.479736 
L 93.60922 47.497365 
L 93.660889 47.408278 
L 93.721953 47.439405 
L 93.768924 47.379301 
L 93.834685 47.352869 
L 93.79241 47.394857 
L 93.881657 47.398106 
L 94.32789 47.314165 
L 94.332587 47.330667 
L 94.337284 47.350321 
L 94.388953 47.279242 
L 94.431228 47.279006 
L 94.525172 47.212345 
L 94.445319 47.303642 
L 94.553355 47.259656 
L 94.562749 47.302777 
L 94.609721 47.225476 
L 94.66139 47.233934 
L 94.703665 47.277926 
L 94.774123 47.226092 
L 94.905644 47.135644 
L 94.933827 47.158192 
L 95.957814 46.794031 
L 95.962511 46.780003 
L 96.037666 46.889241 
L 96.042363 46.888631 
L 96.183279 46.837714 
L 96.319497 46.736989 
L 96.357075 46.777374 
L 96.333589 46.688444 
L 96.399349 46.678662 
L 96.512082 46.594811 
L 96.521476 46.627478 
L 96.685878 46.411387 
L 96.709364 46.444985 
L 96.718758 46.456469 
L 96.789216 46.352876 
L 96.79861 46.380753 
L 97.122716 46.202624 
L 97.127413 46.225182 
L 97.258935 46.310576 
L 97.263632 46.305416 
L 97.413942 46.190978 
L 98.480203 45.755828 
L 98.705668 45.487429 
L 98.823098 45.561378 
L 98.827795 45.552722 
L 98.945225 45.51553 
L 98.949922 45.532386 
L 99.025077 45.449494 
L 99.043866 45.463009 
L 99.109626 45.373473 
L 99.175387 45.445091 
L 99.696775 45.120675 
L 99.729655 45.132821 
L 99.767232 45.041338 
L 99.828296 44.987325 
L 99.790718 45.067457 
L 99.884662 45.009473 
L 100.006789 44.987333 
L 100.020881 45.018858 
L 100.175888 44.950433 
L 100.307409 44.8728 
L 101.871572 43.539354 
L 102.078249 42.893311 
L 102.144009 41.995004 
L 102.162798 39.651471 
L 102.181587 30.408878 
L 102.261439 45.393751 
L 102.280228 46.075383 
L 102.364777 45.177875 
L 102.533876 41.198932 
L 102.547967 30.90637 
L 102.637214 42.284994 
L 102.665397 46.246221 
L 102.749946 45.201561 
L 102.914348 41.101552 
L 102.928439 31.546919 
L 103.017686 43.654794 
L 103.036475 46.021849 
L 103.130418 44.773353 
L 103.271334 39.928782 
L 103.285426 31.960084 
L 103.374672 45.4388 
L 103.388764 45.903992 
L 103.473313 44.696454 
L 103.609532 40.2665 
L 103.623623 32.09569 
L 103.71287 45.49873 
L 103.726961 45.871426 
L 103.806813 44.705494 
L 103.943032 41.15412 
L 103.961821 32.165071 
L 104.041673 43.410089 
L 104.060462 45.921483 
L 104.154405 44.623527 
L 104.285927 41.203886 
L 104.304715 32.041427 
L 104.384567 43.087906 
L 104.408053 46.06705 
L 104.4973 44.860575 
L 104.64761 40.696218 
L 104.661702 31.81513 
L 104.746251 43.910394 
L 104.769737 46.232105 
L 104.858983 45.128994 
L 105.028082 41.288707 
L 105.046871 31.661923 
L 105.126723 41.955031 
L 105.150209 46.430361 
L 105.244153 45.44089 
L 105.441435 41.631267 
L 105.460223 31.470796 
L 105.544773 42.605352 
L 105.568259 46.586847 
L 105.657505 45.791403 
L 105.892365 41.819938 
L 105.91585 31.308857 
L 105.995703 41.484212 
L 106.023886 46.743914 
L 106.113132 46.037723 
L 106.390266 42.089433 
L 106.409055 36.400217 
L 106.41845 31.176786 
L 106.507696 45.890556 
L 106.531182 46.841918 
L 106.620429 46.202569 
L 106.775436 44.506386 
L 106.953929 41.11604 
L 106.972718 31.131856 
L 107.05257 43.285485 
L 107.080753 46.970723 
L 107.169999 46.375646 
L 107.306218 45.18411 
L 107.583352 41.012294 
L 107.602141 31.078017 
L 107.681993 44.803963 
L 107.710176 47.001109 
L 107.794725 46.512723 
L 108.053071 44.271914 
L 108.273838 41.331916 
L 108.292627 31.070426 
L 108.367782 42.328153 
L 108.400662 47.050866 
L 108.485212 46.5956 
L 108.734163 44.702816 
L 108.940839 43.230569 
L 108.945536 43.361668 
L 109.062966 44.710779 
L 109.081755 44.699761 
L 109.091149 44.710924 
L 109.213276 44.686323 
L 109.311917 44.774904 
L 109.335403 44.764983 
L 109.37298 44.747893 
L 109.387072 44.852989 
L 109.570262 45.490365 
L 109.589051 45.484512 
L 109.748755 45.727006 
L 109.993009 46.510865 
L 110.086953 46.708855 
L 110.227868 46.901615 
L 110.12453 46.689777 
L 110.232565 46.900674 
L 110.349995 47.200677 
L 110.462728 47.443087 
L 110.481516 47.421418 
L 110.683495 47.500059 
L 110.69289 47.486677 
L 110.833805 47.623361 
L 110.871383 47.581746 
L 110.913658 47.673423 
L 110.932446 47.650761 
L 110.974721 47.613091 
L 111.054573 47.705693 
L 111.157911 47.606935 
L 111.172003 47.647041 
L 111.265947 47.661635 
L 111.200186 47.597298 
L 111.280038 47.627107 
L 111.406862 47.545968 
L 111.289433 47.633174 
L 111.416257 47.574022 
L 111.571264 47.589404 
L 111.580658 47.546636 
L 111.669905 47.642552 
L 111.77794 47.622498 
L 111.740363 47.560808 
L 111.782637 47.618697 
L 111.885975 47.476706 
L 111.932947 47.519349 
L 112.149018 47.601859 
L 112.153715 47.587057 
L 112.285236 47.520416 
L 112.299328 47.53005 
L 112.3463 47.603613 
L 112.41206 47.529274 
L 112.416758 47.500501 
L 112.482518 47.573299 
L 112.520096 47.532381 
L 112.595251 47.599729 
L 112.637525 47.554817 
L 112.64692 47.525377 
L 112.717377 47.65005 
L 112.726772 47.6239 
L 112.750258 47.647414 
L 112.820716 47.588926 
L 112.83011 47.589862 
L 112.891173 47.527767 
L 112.966328 47.609665 
L 113.238765 47.505505 
L 113.266948 47.561091 
L 113.356195 47.601251 
L 113.389075 47.570477 
L 113.483019 47.519257 
L 113.520596 47.577346 
L 113.628632 47.601281 
L 113.539385 47.556406 
L 113.638026 47.57701 
L 113.722576 47.578519 
L 113.727273 47.568784 
" style="fill:none;stroke:#000000;stroke-linecap:square;stroke-width:0.3;"/>
   </g>
   <g id="line2d_3">
    <path clip-path="url(#p58c8ad68dc)" d="M 12.272727 67.151671 
L 12.390157 67.042699 
L 12.399551 67.069353 
L 12.488798 66.990093 
L 12.516981 67.013439 
L 12.639108 66.881325 
L 12.68608 66.819545 
L 12.761235 66.919321 
L 12.784721 66.876937 
L 12.9867 66.991045 
L 13.099432 66.858988 
L 13.108827 66.873781 
L 13.348383 66.982992 
L 13.362475 66.945804 
L 13.367172 66.903564 
L 13.418841 67.023112 
L 13.461116 67.02472 
L 14.081144 66.824476 
L 14.184482 66.672004 
L 14.207968 66.680053 
L 14.362976 66.759383 
L 14.377067 66.702895 
L 14.466314 66.677985 
L 14.40525 66.738587 
L 14.494497 66.699251 
L 14.762236 66.627756 
L 14.846786 66.58944 
L 14.785722 66.64867 
L 14.870272 66.617671 
L 14.893758 66.735965 
L 14.987701 66.682831 
L 15.114526 66.598547 
L 15.142709 66.653395 
L 15.166195 66.722646 
L 15.24135 66.617532 
L 15.250744 66.637617 
L 15.72516 66.730281 
L 15.833195 66.795632 
L 15.781526 66.706443 
L 15.847287 66.770183 
L 15.950625 66.774948 
L 15.913047 66.717896 
L 15.960019 66.745735 
L 16.321703 66.748862 
L 16.340491 66.771475 
L 16.406252 66.681086 
L 16.415646 66.688038 
L 16.481407 66.670241 
L 16.448527 66.714842 
L 16.518984 66.721784 
L 16.533076 66.737239 
L 16.575351 66.668674 
L 16.622323 66.686784 
L 16.974612 66.548984 
L 17.049767 66.437902 
L 17.092041 66.52123 
L 17.29402 66.356198 
L 17.308112 66.367832 
L 17.326901 66.393606 
L 17.406753 66.313869 
L 17.481908 66.258216 
L 17.486605 66.248333 
L 17.580549 66.165003 
L 17.599338 66.200324 
L 17.763739 66.295172 
L 17.773133 66.275517 
L 17.8295 66.229073 
L 17.876472 66.306499 
L 18.01269 66.314695 
L 18.13012 66.178366 
L 18.139514 66.209258 
L 18.28043 66.0464 
L 18.355585 66.033493 
L 18.369676 65.99749 
L 18.491803 65.922493 
L 18.548169 65.930124 
L 18.510592 65.899836 
L 18.599838 65.897963 
L 18.933339 65.773264 
L 19.022585 65.789755 
L 19.036677 65.815014 
L 19.107135 65.841147 
L 19.088346 65.787627 
L 19.149409 65.810804 
L 19.196381 65.874709 
L 19.280931 65.766803 
L 19.370177 65.75297 
L 19.299719 65.734855 
L 19.384269 65.718889 
L 19.468818 65.639378 
L 19.511093 65.6508 
L 19.684889 65.457229 
L 19.694283 65.496464 
L 19.877473 65.393615 
L 19.745952 65.578323 
L 19.88217 65.399981 
L 20.074755 65.52228 
L 20.549171 65.017787 
L 20.722967 64.72336 
L 20.727664 64.738022 
L 20.732361 64.748042 
L 20.779333 64.626644 
L 20.967221 62.917403 
L 20.986009 50.74768 
L 21.094045 60.0801 
L 21.136319 65.804463 
L 21.263143 65.075783 
L 21.314813 64.744318 
L 21.493306 62.569045 
L 21.512094 51.53661 
L 21.610735 60.610632 
L 21.648313 66.448993 
L 21.756348 65.609117 
L 21.967722 63.978173 
L 22.009996 62.153643 
L 22.024088 51.367671 
L 22.122729 59.772799 
L 22.169701 66.898142 
L 22.305919 65.820781 
L 22.564264 62.986047 
L 22.583053 51.253567 
L 22.691088 60.211776 
L 22.733363 67.186485 
L 22.85549 66.250164 
L 23.179596 63.127244 
L 23.198385 51.190893 
L 23.311117 60.508383 
L 23.348695 67.371493 
L 23.461427 66.536044 
L 23.762047 64.465145 
L 23.846596 63.390744 
L 23.860688 61.301741 
L 23.870082 51.138737 
L 23.968723 59.38283 
L 24.02509 67.475661 
L 24.170702 66.400324 
L 24.593449 63.016109 
L 24.612238 51.067596 
L 24.720273 60.501217 
L 24.762548 67.498797 
L 24.870583 66.71983 
L 25.011499 65.820472 
L 25.232267 64.752098 
L 25.236964 64.753509 
L 25.246358 64.671339 
L 25.251055 64.664475 
L 25.396668 63.143024 
L 25.41076 55.944628 
L 25.420154 51.050741 
L 25.514098 59.636262 
L 25.565767 67.485468 
L 25.706683 66.538328 
L 25.997908 64.992749 
L 26.260951 62.711394 
L 26.279739 51.033859 
L 26.37838 60.244038 
L 26.420655 67.44214 
L 26.542782 66.619326 
L 26.810522 65.176366 
L 27.09705 64.075896 
L 27.148719 62.991574 
L 27.167508 51.016725 
L 27.270846 60.458987 
L 27.313121 67.441441 
L 27.421156 66.728637 
L 27.679501 65.290588 
L 28.050579 63.588433 
L 28.074065 60.522306 
L 28.083459 51.005649 
L 28.1821 60.056529 
L 28.229072 67.42772 
L 28.355896 66.550549 
L 28.590755 65.30033 
L 28.722277 64.92612 
L 28.93365 64.257352 
L 28.938347 64.264513 
L 28.96653 64.130094 
L 29.032291 63.054349 
L 29.055777 51.007869 
L 29.159115 61.3232 
L 29.191995 67.357287 
L 29.285939 66.7472 
L 29.694594 64.86376 
L 29.699292 64.86887 
L 29.736869 64.747162 
L 29.981123 63.499567 
L 29.999912 61.849356 
L 30.014003 50.983117 
L 30.112644 60.431487 
L 30.154919 67.346233 
L 30.267651 66.591327 
L 30.535391 65.21488 
L 30.976927 63.702564 
L 31.00511 61.700122 
L 31.019201 50.96815 
L 31.113145 60.021245 
L 31.160117 67.323665 
L 31.286941 66.449614 
L 31.545286 65.15439 
L 31.916364 64.310228 
L 32.019702 63.575733 
L 32.043188 61.361367 
L 32.05728 50.981185 
L 32.151223 60.138803 
L 32.198195 67.26353 
L 32.320322 66.407666 
L 33.029597 63.506426 
L 33.048386 61.85874 
L 33.062478 50.964262 
L 33.161119 60.517531 
L 33.203393 67.275693 
L 33.311429 66.492054 
L 33.62614 65.026616 
L 34.128739 63.357994 
L 34.147528 59.759585 
L 34.156922 50.978587 
L 34.255563 60.522982 
L 34.302535 67.170765 
L 34.405873 66.394331 
L 34.814528 64.796447 
L 34.823923 64.799286 
L 34.856803 64.688125 
L 34.880289 64.71709 
L 35.016507 64.457692 
L 35.021205 64.489887 
L 35.105754 64.318141 
L 35.110451 64.324815 
L 35.171515 64.231526 
L 35.288944 63.487322 
L 35.31243 60.904681 
L 35.326522 50.982645 
L 35.420466 60.546389 
L 35.458043 67.072397 
L 35.570776 66.303814 
L 35.876093 64.941019 
L 35.904276 64.942083 
L 35.932459 64.853191 
L 35.941853 64.853458 
L 36.270656 64.625788 
L 36.284748 64.666471 
L 36.463241 65.000239 
L 36.651129 65.351223 
L 36.712192 66.505048 
L 36.853108 68.279514 
L 36.96584 68.461369 
L 37.097361 68.513001 
L 37.102059 68.496966 
L 37.177214 68.612919 
L 37.29934 68.669344 
L 37.210094 68.59871 
L 37.308735 68.652833 
L 37.346312 68.627774 
L 37.327524 68.666273 
L 37.41677 68.668765 
L 37.524805 68.768068 
L 37.557686 68.739382 
L 37.56708 68.683095 
L 37.670418 68.728821 
L 37.689207 68.707283 
L 37.792545 68.731434 
L 37.961644 68.684821 
L 38.182412 68.762827 
L 37.971038 68.668091 
L 38.196503 68.74085 
L 38.309236 68.71115 
L 38.281053 68.780966 
L 38.313933 68.743969 
L 38.323327 68.773974 
L 38.403179 68.658769 
L 38.506518 68.759457 
L 38.539398 68.722204 
L 38.642736 68.706613 
L 38.600461 68.747238 
L 38.65213 68.725033 
L 38.774257 68.700647 
L 38.896384 68.752075 
L 38.793046 68.668971 
L 38.901081 68.74991 
L 38.957448 68.693456 
L 38.91987 68.774827 
L 39.018511 68.728121 
L 39.027905 68.753844 
L 39.192307 68.692764 
L 39.290948 68.717413 
L 39.305039 68.667356 
L 39.422469 68.629401 
L 39.427166 68.644475 
L 39.52111 68.741759 
L 39.544596 68.706987 
L 39.605659 68.770454 
L 39.652631 68.683343 
L 39.868702 68.721311 
L 39.967343 68.724595 
L 39.995526 68.68139 
L 40.169322 68.654253 
L 40.033103 68.75541 
L 40.178716 68.676218 
L 40.366604 68.70383 
L 40.371301 68.688334 
L 40.498125 68.642324 
L 40.592069 68.702167 
L 40.610857 68.654174 
L 40.737681 68.715756 
L 40.826928 68.676089 
L 40.850414 68.689629 
L 42.654134 68.735305 
L 42.658831 68.767991 
L 42.696409 68.690565 
L 42.762169 68.706525 
L 42.898388 68.668878 
L 42.912479 68.692037 
L 42.917176 68.721362 
L 43.001726 68.63261 
L 43.015817 68.66619 
L 43.175522 68.704491 
L 43.27886 68.708485 
L 43.203705 68.666086 
L 43.288254 68.696346 
L 43.391592 68.615524 
L 43.42917 68.638368 
L 43.560691 68.684908 
L 43.457353 68.61769 
L 43.570085 68.66383 
L 43.682818 68.644147 
L 43.61236 68.710792 
L 43.687515 68.652347 
L 43.79555 68.725335 
L 43.804945 68.696057 
L 43.969346 68.738022 
L 43.837825 68.64689 
L 43.974043 68.728306 
L 44.222994 68.683377 
L 44.237086 68.71753 
L 44.279361 68.6236 
L 44.33103 68.66701 
L 44.429671 68.582261 
L 44.448459 68.604062 
L 44.828931 68.695346 
L 44.913481 68.63147 
L 44.941664 68.656267 
L 45.045002 68.703774 
L 45.059094 68.676038 
L 45.53351 68.664173 
L 45.542904 68.641617 
L 45.613362 68.742389 
L 45.641545 68.672378 
L 45.726094 68.742316 
L 45.754277 68.701728 
L 45.829432 68.632484 
L 45.86701 68.722523 
L 46.012623 68.668797 
L 46.026714 68.687161 
L 46.275665 68.709262 
L 46.280362 68.737881 
L 46.360214 68.714948 
L 46.299151 68.704781 
L 46.369609 68.690478 
L 46.388398 68.721541 
L 46.491736 68.645302 
L 46.580982 68.713523 
L 46.609165 68.689703 
L 46.707806 68.581349 
L 46.623257 68.70851 
L 46.735989 68.66459 
L 46.750081 68.725894 
L 46.83463 68.631615 
L 46.942666 68.632281 
L 46.881602 68.67776 
L 46.947363 68.634349 
L 46.98494 68.665651 
L 47.017821 68.609014 
L 47.060095 68.637634 
L 47.186919 68.719313 
L 47.205708 68.681516 
L 47.323138 68.602723 
L 47.337229 68.628234 
L 47.398293 68.643085 
L 47.351321 68.649483 
L 47.417082 68.684361 
L 47.421779 68.702003 
L 47.511025 68.629159 
L 47.52042 68.615819 
L 47.572089 68.723588 
L 47.581483 68.722643 
L 47.642547 68.742496 
L 47.604969 68.70013 
L 47.675427 68.677165 
L 47.778765 68.53407 
L 47.806948 68.573183 
L 47.896195 68.584202 
L 47.816343 68.587995 
L 47.919681 68.627633 
L 48.008927 68.712197 
L 48.041807 68.69198 
L 48.163934 68.576939 
L 48.30485 68.716823 
L 48.511526 68.623086 
L 48.614864 68.683513 
L 48.539709 68.557549 
L 48.633653 68.652477 
L 48.690019 68.631075 
L 48.643047 68.639363 
L 48.708808 68.572535 
L 48.75578 68.633987 
L 48.840329 68.58518 
L 48.953062 68.602877 
L 48.915484 68.544933 
L 48.957759 68.601008 
L 49.009428 68.533494 
L 48.990639 68.606262 
L 49.070491 68.592631 
L 49.164435 68.495378 
L 49.197316 68.51761 
L 49.662337 68.564989 
L 49.765675 68.47608 
L 49.784464 68.49676 
L 49.892499 68.470108 
L 49.906591 68.510054 
L 50.17433 68.382666 
L 50.202514 68.46183 
L 50.352824 68.383085 
L 50.362218 68.403528 
L 50.489042 68.339675 
L 50.498436 68.376158 
L 50.587683 68.271057 
L 50.629958 68.318946 
L 50.597077 68.263438 
L 50.691021 68.248652 
L 50.780268 68.182473 
L 50.813148 68.197671 
L 50.954064 68.159232 
L 51.052704 68.055428 
L 51.07619 68.07859 
L 51.085585 68.084811 
L 51.212409 68.004326 
L 51.362719 68.153516 
L 51.400296 68.100249 
L 51.545909 67.914054 
L 51.550606 67.925422 
L 51.663339 68.004993 
L 51.757283 68.045035 
L 51.705613 67.937138 
L 51.780768 68.021333 
L 52.104874 68.071154 
L 52.109572 68.044933 
L 52.161241 68.102781 
L 52.250487 67.976348 
L 52.302156 68.005917 
L 52.344431 67.926821 
L 52.438375 67.893396 
L 52.466558 67.940254 
L 52.518227 68.020882 
L 52.569896 67.917715 
L 52.574593 67.90943 
L 52.635657 67.986728 
L 52.649748 67.991312 
L 52.715509 68.012007 
L 52.673234 67.951716 
L 52.748389 67.954378 
L 52.84703 67.909161 
L 52.762481 67.959997 
L 52.870516 67.944432 
L 52.875213 67.949815 
L 52.917488 67.866577 
L 52.936277 67.87033 
L 53.086587 67.693595 
L 53.204016 67.562957 
L 53.227502 67.628067 
L 53.250988 67.641673 
L 53.26508 67.574168 
L 53.307354 67.565913 
L 53.373115 67.632418 
L 53.424784 67.546923 
L 53.523425 67.45573 
L 53.579791 67.422838 
L 53.63146 67.477887 
L 54.058904 67.309749 
L 54.068299 67.328283 
L 54.176334 67.349311 
L 54.129362 67.235412 
L 54.181031 67.316438 
L 54.237397 67.284707 
L 54.260883 67.354706 
L 54.279672 67.346572 
L 54.289066 67.367548 
L 54.359524 67.286848 
L 54.378313 67.310812 
L 54.491045 67.138299 
L 54.519229 67.241123 
L 54.599081 67.197875 
L 54.641355 67.250008 
L 54.829243 67.193848 
L 54.838637 67.205137 
L 54.927884 67.264124 
L 54.862123 67.180867 
L 54.956067 67.228202 
L 55.035919 67.227365 
L 55.059405 67.275384 
L 55.153349 67.413171 
L 55.181532 67.347927 
L 55.195624 67.373592 
L 55.327145 67.240011 
L 55.411694 67.229752 
L 55.345934 67.203355 
L 55.425786 67.201585 
L 55.674737 67.080494 
L 55.679434 67.088384 
L 55.731103 67.206174 
L 55.806258 67.107204 
L 55.923688 67.080057 
L 55.928385 67.090581 
L 56.200822 66.936267 
L 56.332343 66.938745 
L 56.412195 67.012786 
L 56.445075 66.94501 
L 56.82085 66.713469 
L 56.830245 66.732591 
L 56.942977 66.828057 
L 56.886611 66.691339 
L 56.952372 66.819211 
L 57.097984 66.711256 
L 57.281175 66.583996 
L 57.318752 66.68086 
L 57.440879 66.754439 
L 57.563006 66.620266 
L 57.779076 66.45685 
L 57.896506 66.521231 
L 57.910598 66.475959 
L 58.042119 66.480457 
L 58.051513 66.428526 
L 58.10788 66.384354 
L 58.065605 66.434355 
L 58.164246 66.412664 
L 58.262887 66.467565 
L 58.286373 66.443947 
L 58.361528 66.262001 
L 58.436683 66.312518 
L 58.540021 66.383706 
L 58.568204 66.369405 
L 58.577598 66.379485 
L 58.695028 66.359142 
L 58.831246 66.50588 
L 58.850035 66.489735 
L 58.995648 66.402209 
L 58.878218 66.519763 
L 59.000345 66.405079 
L 59.023831 66.358378 
L 59.113078 66.406035 
L 59.319754 66.216521 
L 59.324451 66.225833 
L 59.394909 66.250235 
L 59.418395 66.168613 
L 59.423092 66.17744 
L 59.582796 66.106599 
L 59.592191 66.116138 
L 59.751895 66.265673 
L 59.930388 66.093436 
L 60.080698 66.114762 
L 60.09479 66.085415 
L 60.165248 66.119386 
L 60.113578 66.127217 
L 60.179339 66.151869 
L 60.31086 66.199231 
L 60.371924 66.23588 
L 60.432987 66.148625 
L 60.87922 65.940892 
L 60.907403 65.89168 
L 60.949678 65.972412 
L 60.99665 65.921193 
L 61.006044 65.900164 
L 61.043622 65.955807 
L 61.099988 65.948821 
L 61.21272 65.953858 
L 61.231509 65.916568 
L 62.04882 65.825546 
L 62.152158 65.866842 
L 62.077003 65.793954 
L 62.166249 65.861219 
L 62.283679 65.872248 
L 62.180341 65.842441 
L 62.293073 65.849945 
L 62.391714 65.675424 
L 62.424595 65.723237 
L 62.53263 65.782831 
L 62.551419 65.736742 
L 63.16675 65.669252 
L 63.180842 65.658234 
L 63.354638 65.764216 
L 63.495553 65.617566 
L 63.50025 65.624723 
L 63.514342 65.653037 
L 63.5848 65.574995 
L 63.598891 65.611686 
L 63.612983 65.54502 
L 63.683441 65.638002 
L 63.706927 65.605123 
L 63.786779 65.61761 
L 63.739807 65.588459 
L 63.810265 65.572067 
L 63.979364 65.421658 
L 64.007547 65.482688 
L 64.063913 65.364311 
L 64.073307 65.368611 
L 64.181343 65.321821 
L 64.120279 65.40667 
L 64.195434 65.365683 
L 64.355138 65.285782 
L 64.430293 65.209638 
L 64.467871 65.281701 
L 64.524237 65.322584 
L 64.566512 65.23154 
L 64.70273 65.078931 
L 64.707428 65.08508 
L 64.768491 65.005767 
L 64.881223 64.787917 
L 64.900012 64.790842 
L 65.059717 64.256895 
L 65.130174 62.677627 
L 65.148963 50.754957 
L 65.252301 59.676727 
L 65.299273 65.584748 
L 65.435492 64.657964 
L 65.562316 62.925627 
L 65.581104 51.819778 
L 65.684442 60.775349 
L 65.717323 66.253859 
L 65.820661 65.367998 
L 65.994457 62.897662 
L 66.013246 51.600577 
L 66.116584 60.103401 
L 66.158858 66.745892 
L 66.285682 65.592749 
L 66.47357 62.828727 
L 66.492359 51.449551 
L 66.595697 59.838788 
L 66.642669 67.081286 
L 66.778887 65.896173 
L 67.004352 62.796917 
L 67.023141 51.336743 
L 67.126479 59.741536 
L 67.173451 67.312601 
L 67.319064 66.147949 
L 67.5915 63.108721 
L 67.610289 51.216901 
L 67.723022 60.326176 
L 67.765296 67.451148 
L 67.882726 66.538705 
L 68.225621 63.633399 
L 68.244409 62.08222 
L 68.258501 51.16554 
L 68.357142 59.509904 
L 68.408811 67.531543 
L 68.559121 66.43646 
L 68.948988 62.98505 
L 68.967776 51.107424 
L 69.075812 60.451922 
L 69.118086 67.560144 
L 69.230819 66.755796 
L 69.705235 63.462762 
L 69.724023 59.24889 
L 69.733418 51.067218 
L 69.832059 59.766359 
L 69.879031 67.559881 
L 70.019946 66.586843 
L 70.550728 62.718647 
L 70.569517 51.073865 
L 70.668158 60.232968 
L 70.71513 67.487158 
L 70.83256 66.655533 
L 71.114391 65.056059 
L 71.236518 64.589359 
L 71.386828 63.176994 
L 71.400919 57.847337 
L 71.410314 51.045246 
L 71.508955 60.154619 
L 71.551229 67.501579 
L 71.678053 66.650855 
L 72.063223 64.710906 
L 72.260504 63.87527 
L 72.298082 62.068502 
L 72.312174 51.0208 
L 72.410814 60.26148 
L 72.457786 67.440612 
L 72.570519 66.645273 
L 73.030843 64.495978 
L 73.110695 64.167681 
L 73.176456 62.790834 
L 73.195245 51.015092 
L 73.293886 60.219067 
L 73.33616 67.468196 
L 73.458287 66.633922 
L 73.702541 65.291849 
L 74.106499 63.004204 
L 74.129985 51.06194 
L 74.228626 60.738374 
L 74.266203 67.386813 
L 74.369542 66.677631 
L 74.801683 64.697188 
L 74.80638 64.703404 
L 75.060028 63.579851 
L 75.083514 61.302444 
L 75.097606 51.023097 
L 75.191549 60.18684 
L 75.233824 67.342621 
L 75.355951 66.49651 
L 75.994768 63.356616 
L 76.013557 58.653026 
L 76.022951 51.013163 
L 76.121592 60.541428 
L 76.163867 67.339117 
L 76.271902 66.589395 
L 76.487973 65.346841 
L 76.577219 64.962343 
L 76.901325 63.930914 
L 76.9436 62.954565 
L 76.962389 51.026462 
L 77.065727 60.791971 
L 77.103304 67.35032 
L 77.206643 66.61834 
L 77.258312 66.28966 
L 77.685756 64.638377 
L 77.901826 63.643413 
L 77.925312 62.45949 
L 77.944101 51.02996 
L 78.038045 60.256899 
L 78.085017 67.309883 
L 78.197749 66.518829 
L 78.380939 65.505976 
L 78.554735 64.932962 
L 78.672165 64.675245 
L 78.935207 62.766257 
L 78.953996 50.978879 
L 79.052637 60.502023 
L 79.090215 67.290726 
L 79.202947 66.537977 
L 79.456595 65.199233 
L 79.461292 65.204021 
L 79.470687 65.205125 
L 79.503567 65.118181 
L 79.705546 64.596815 
L 79.973286 64.006562 
L 80.034349 63.15979 
L 80.048441 60.141737 
L 80.057835 51.021508 
L 80.156476 60.601611 
L 80.194054 67.175849 
L 80.302089 66.437757 
L 80.536948 65.14653 
L 80.85166 64.45236 
L 81.077125 62.512597 
L 81.095914 50.99225 
L 81.189857 60.341009 
L 81.232132 67.187575 
L 81.349562 66.353989 
L 81.800492 64.699789 
L 81.932013 64.56971 
L 81.950802 64.575403 
L 82.105809 64.306865 
L 82.185661 64.273564 
L 82.195055 64.220707 
L 82.279605 63.931171 
L 82.331274 63.054626 
L 82.345365 57.871517 
L 82.35476 50.948495 
L 82.453401 60.908468 
L 82.490978 67.037366 
L 82.589619 66.320019 
L 82.923119 64.768615 
L 82.932514 64.775794 
L 82.951302 64.813094 
L 83.012366 64.70472 
L 83.228437 64.482082 
L 83.233134 64.488359 
L 83.421021 64.618285 
L 83.425718 64.5861 
L 83.505571 64.780112 
L 83.571331 64.921791 
L 83.820282 66.167557 
L 83.965895 68.32433 
L 84.120902 68.528841 
L 84.177268 68.50868 
L 84.130296 68.559241 
L 84.214846 68.584948 
L 84.271212 68.546242 
L 84.34167 68.654014 
L 84.40743 68.674318 
L 84.449705 68.651173 
L 84.463797 68.636588 
L 84.534255 68.731293 
L 84.543649 68.703758 
L 84.670473 68.717578 
L 84.731536 68.682644 
L 84.712748 68.734941 
L 84.778508 68.730958 
L 84.7926 68.754982 
L 84.97579 68.694232 
L 85.00867 68.751881 
L 85.09322 68.714411 
L 85.135494 68.75049 
L 85.107311 68.699702 
L 85.201255 68.688198 
L 85.746129 68.680138 
L 85.783706 68.668488 
L 85.835375 68.740873 
L 85.84477 68.723996 
L 85.901136 68.747905 
L 85.87765 68.701684 
L 85.962199 68.706746 
L 86.009171 68.70818 
L 86.032657 68.77385 
L 86.051446 68.76451 
L 86.093721 68.770225 
L 86.126601 68.70063 
L 86.14539 68.72003 
L 86.253425 68.70906 
L 86.168876 68.749391 
L 86.258122 68.719404 
L 86.272214 68.74819 
L 86.291003 68.682434 
L 86.36146 68.680141 
L 86.507073 68.69645 
L 86.563439 68.732653 
L 86.6292 68.688833 
L 86.643292 68.724585 
L 86.723144 68.658585 
L 86.737235 68.702409 
L 86.864059 68.66049 
L 86.751327 68.73102 
L 86.868757 68.669457 
L 87.000278 68.761431 
L 86.892242 68.641212 
L 87.004975 68.743171 
L 87.122405 68.627507 
L 87.136496 68.637753 
L 87.23044 68.727048 
L 87.253926 68.693495 
L 87.357264 68.648254 
L 87.268017 68.716281 
L 87.376053 68.710472 
L 87.390144 68.758256 
L 87.469997 68.665238 
L 87.479391 68.670873 
L 87.662581 68.717146 
L 87.493482 68.651674 
L 87.667278 68.696011 
L 87.68137 68.65777 
L 87.718947 68.772576 
L 87.765919 68.750002 
L 87.822286 68.728158 
L 87.841074 68.696114 
L 87.892743 68.623075 
L 87.855166 68.701984 
L 87.953807 68.648047 
L 88.075934 68.722357 
L 87.963201 68.64511 
L 88.085328 68.714284 
L 88.522166 68.675174 
L 88.564441 68.702695 
L 88.545652 68.664774 
L 88.630202 68.672523 
L 88.73354 68.64563 
L 88.667779 68.685986 
L 88.742934 68.674509 
L 88.912033 68.708779 
L 88.91673 68.680686 
L 89.029463 68.692167 
L 88.968399 68.729421 
L 89.03416 68.697653 
L 89.06704 68.667524 
L 89.160984 68.713581 
L 89.292505 68.681786 
L 89.297202 68.703436 
L 89.424026 68.717341 
L 89.33478 68.645587 
L 89.438118 68.679414 
L 89.494484 68.750514 
L 89.55085 68.690754 
L 92.923431 68.746639 
L 92.932825 68.78843 
L 92.961008 68.684702 
L 93.031466 68.722174 
L 93.106621 68.640129 
L 93.04086 68.727629 
L 93.162987 68.691071 
L 93.289811 68.754373 
L 93.228748 68.6492 
L 93.299206 68.739457 
L 93.411938 68.645122 
L 93.435424 68.683204 
L 93.515276 68.725893 
L 93.552854 68.682968 
L 93.660889 68.605536 
L 93.684375 68.648098 
L 93.834685 68.679898 
L 93.839382 68.67508 
L 93.881657 68.687783 
L 93.961509 68.619575 
L 94.074242 68.671371 
L 94.041361 68.588391 
L 94.078939 68.651805 
L 94.21046 68.555488 
L 94.215157 68.569485 
L 94.280918 68.59903 
L 94.248038 68.644849 
L 94.304404 68.633562 
L 94.318495 68.67256 
L 94.54396 68.641773 
L 94.581538 68.679864 
L 94.62851 68.620484 
L 94.656693 68.659981 
L 94.830489 68.566024 
L 94.835186 68.582057 
L 94.900947 68.546797 
L 94.96201 68.649489 
L 95.074743 68.59498 
L 95.098228 68.617115 
L 95.102926 68.641864 
L 95.187475 68.557436 
L 95.196869 68.556854 
L 95.318996 68.491903 
L 95.210961 68.573595 
L 95.337785 68.540951 
L 95.361271 68.57856 
L 95.41294 68.455264 
L 95.417637 68.453137 
L 95.44582 68.413664 
L 95.488095 68.49439 
L 95.497489 68.491789 
L 95.572644 68.594599 
L 95.614919 68.5547 
L 95.647799 68.603103 
L 95.727652 68.555475 
L 95.784018 68.514645 
L 95.821595 68.630494 
L 95.943722 68.66357 
L 95.86387 68.579683 
L 95.953117 68.649802 
L 96.075243 68.530051 
L 96.117518 68.581084 
L 96.145701 68.642203 
L 96.220856 68.552795 
L 96.249039 68.489618 
L 96.319497 68.578877 
L 96.328891 68.559558 
L 96.422835 68.454169 
L 96.342983 68.569746 
L 96.46511 68.495497 
L 96.526173 68.636821 
L 96.58254 68.532588 
L 96.808005 68.472204 
L 96.826793 68.447699 
L 96.953617 68.509867 
L 97.024075 68.409215 
L 97.06635 68.460827 
L 97.071047 68.474555 
L 97.146202 68.39329 
L 97.150899 68.40132 
L 97.174385 68.3237 
L 97.263632 68.382332 
L 97.376364 68.437422 
L 97.381061 68.414975 
L 97.390456 68.420067 
L 97.536069 68.308811 
L 97.625315 68.315104 
L 97.648801 68.271726 
L 97.766231 68.293894 
L 97.770928 68.298917 
L 98.104428 68.442032 
L 98.132611 68.392769 
L 98.235949 68.330405 
L 98.254738 68.335452 
L 98.409745 68.216433 
L 98.456717 68.273696 
L 98.531872 68.146077 
L 98.545964 68.129397 
L 98.588239 68.200787 
L 98.630513 68.168455 
L 98.658696 68.212428 
L 98.71976 68.07237 
L 98.724457 68.071951 
L 98.879464 68.049833 
L 99.001591 67.977849 
L 98.888858 68.068206 
L 99.02038 68.017519 
L 99.119021 68.090494 
L 99.137809 68.076133 
L 99.231753 67.978341 
L 99.264633 68.016703 
L 99.438429 67.94934 
L 99.457218 67.995269 
L 99.588739 67.899318 
L 99.715563 67.753613 
L 99.720261 67.75989 
L 99.724958 67.780992 
L 99.739049 67.725455 
L 99.823599 67.732493 
L 100.058458 67.675386 
L 100.119522 67.715522 
L 100.10543 67.656286 
L 100.166493 67.677984 
L 100.471811 67.588869 
L 100.58924 67.466563 
L 100.598635 67.478335 
L 100.622121 67.512627 
L 100.744247 67.455166 
L 100.833494 67.468115 
L 100.800614 67.430787 
L 100.85698 67.461118 
L 100.885163 67.480684 
L 101.054262 67.32164 
L 101.115325 67.352843 
L 101.073051 67.29459 
L 101.152903 67.273566 
L 101.37367 67.077661 
L 101.378368 67.083744 
L 101.397156 67.127496 
L 101.467614 66.959714 
L 101.848086 66.905991 
L 101.960819 66.840009 
L 101.918544 66.939866 
L 101.965516 66.849853 
L 102.148706 66.761062 
L 102.158101 66.796579 
L 102.228559 66.726143 
L 102.266136 66.634547 
L 102.341291 66.702014 
L 102.435235 66.715772 
L 102.388263 66.635972 
L 102.449326 66.705554 
L 102.580848 66.583151 
L 102.590242 66.60942 
L 102.627819 66.519557 
L 102.684186 66.560814 
L 102.754644 66.524228 
L 102.787524 66.568924 
L 102.886165 66.651968 
L 102.904954 66.617987 
L 102.928439 66.588557 
L 102.975411 66.666379 
L 103.003594 66.669491 
L 103.167996 66.658869 
L 103.182088 66.713866 
L 103.210271 66.603406 
L 103.271334 66.639199 
L 103.29482 66.629519 
L 103.308912 66.678959 
L 103.369975 66.688092 
L 103.553165 66.563393 
L 103.71287 66.315263 
L 103.820905 66.274926 
L 103.933638 66.211211 
L 103.938335 66.214976 
L 104.065159 66.279418 
L 104.069856 66.262365 
L 104.154405 66.257133 
L 104.107433 66.21769 
L 104.1638 66.220927 
L 104.215469 66.138972 
L 104.177891 66.229592 
L 104.290624 66.193879 
L 104.389265 66.18395 
L 104.323504 66.177951 
L 104.398659 66.178977 
L 104.408053 66.187554 
L 104.577152 66.126136 
L 104.591244 66.146022 
L 104.657004 66.037554 
L 104.840195 65.93165 
L 104.868378 65.886005 
L 104.934138 65.996712 
L 105.093843 65.946175 
L 105.154906 65.945455 
L 105.178392 66.021579 
L 105.187786 66.007659 
L 105.342794 66.101009 
L 105.201878 65.972432 
L 105.361582 66.041034 
L 105.422646 65.991218 
L 105.469618 66.050709 
L 105.530681 65.981678 
L 105.577653 66.010815 
L 105.652808 65.98789 
L 105.671597 66.056947 
L 105.751449 66.120593 
L 105.789026 66.082088 
L 105.96752 65.906033 
L 105.972217 65.924942 
L 106.070858 65.967521 
L 106.023886 65.904766 
L 106.084949 65.932592 
L 106.282231 65.826427 
L 106.305717 65.872733 
L 106.324506 65.901761 
L 106.352689 65.837478 
L 106.413752 65.871209 
L 106.582851 65.715822 
L 106.432541 65.896256 
L 106.606337 65.729625 
L 106.611034 65.748058 
L 106.686189 65.631275 
L 106.690886 65.630888 
L 106.813013 65.536154 
L 106.822408 65.561013 
L 106.90226 65.535501 
L 106.939837 65.585882 
L 107.080753 65.682716 
L 107.104239 65.625416 
L 107.207577 65.60266 
L 107.216971 65.628624 
L 107.23576 65.647276 
L 107.282732 65.535016 
L 107.301521 65.543915 
L 107.414253 65.431492 
L 107.433042 65.449592 
L 107.437739 65.459924 
L 107.517591 65.381789 
L 107.526986 65.407892 
L 107.644415 65.36443 
L 107.649113 65.37621 
L 107.747753 65.436533 
L 107.766542 65.417196 
L 107.902761 65.282896 
L 108.010796 65.288839 
L 107.977916 65.236202 
L 108.02019 65.268568 
L 108.10474 65.221317 
L 108.053071 65.281911 
L 108.128226 65.282961 
L 108.569761 64.86325 
L 108.593247 64.913684 
L 108.668402 64.867415 
L 108.607339 64.869367 
L 108.677797 64.84439 
L 108.917353 63.617718 
L 108.940839 59.917863 
L 108.950233 50.763779 
L 109.048874 59.219473 
L 109.105241 65.619388 
L 109.241459 64.629216 
L 109.368283 62.589842 
L 109.387072 51.845202 
L 109.485713 60.634086 
L 109.518593 66.239492 
L 109.626628 65.293585 
L 109.786333 63.320944 
L 109.800424 61.19707 
L 109.809819 51.680528 
L 109.90846 59.654785 
L 109.955431 66.704799 
L 110.096347 65.404706 
L 110.260749 63.086478 
L 110.279537 51.476578 
L 110.39227 60.404375 
L 110.429847 67.074054 
L 110.547277 66.033882 
L 110.768045 63.586717 
L 110.786834 61.216065 
L 110.796228 51.359411 
L 110.894869 59.159964 
L 110.951235 67.296632 
L 111.106242 65.990142 
L 111.345799 63.545139 
L 111.364588 60.556909 
L 111.373982 51.243337 
L 111.472623 59.246988 
L 111.528989 67.441403 
L 111.683996 66.213516 
L 111.975222 63.36327 
L 111.989313 60.529405 
L 111.998708 51.173965 
L 112.097349 59.291794 
L 112.153715 67.541776 
L 112.308722 66.377251 
L 112.651617 63.794377 
L 112.6798 61.733478 
L 112.693892 51.143073 
L 112.792532 59.670542 
L 112.839504 67.567621 
L 112.985117 66.543313 
L 113.39847 63.761021 
L 113.426653 61.703233 
L 113.440744 51.114109 
L 113.534688 59.489905 
L 113.586357 67.580422 
L 113.727273 66.61277 
" style="fill:none;stroke:#000000;stroke-linecap:square;stroke-width:0.3;"/>
   </g>
  </g>
 </g>
 <defs>
  <clipPath id="p58c8ad68dc">
   <rect height="63.756" width="111.6" x="7.2" y="7.2"/>
  </clipPath>
 </defs>
</svg>
