<?xml version="1.0" encoding="utf-8" standalone="no"?>
<!DOCTYPE svg PUBLIC "-//W3C//DTD SVG 1.1//EN"
  "http://www.w3.org/Graphics/SVG/1.1/DTD/svg11.dtd">
<!-- Created with matplotlib (https://matplotlib.org/) -->
<svg height="73.34pt" version="1.1" viewBox="0 0 419.66 73.34" width="419.66pt" xmlns="http://www.w3.org/2000/svg" xmlns:xlink="http://www.w3.org/1999/xlink">
 <metadata>
  <rdf:RDF xmlns:cc="http://creativecommons.org/ns#" xmlns:dc="http://purl.org/dc/elements/1.1/" xmlns:rdf="http://www.w3.org/1999/02/22-rdf-syntax-ns#">
   <cc:Work>
    <dc:type rdf:resource="http://purl.org/dc/dcmitype/StillImage"/>
    <dc:date>2020-12-16T14:58:26.429157</dc:date>
    <dc:format>image/svg+xml</dc:format>
    <dc:creator>
     <cc:Agent>
      <dc:title>Matplotlib v3.3.2, https://matplotlib.org/</dc:title>
     </cc:Agent>
    </dc:creator>
   </cc:Work>
  </rdf:RDF>
 </metadata>
 <defs>
  <style type="text/css">*{stroke-linecap:butt;stroke-linejoin:round;}</style>
 </defs>
 <g id="figure_1">
  <g id="patch_1">
   <path d="M 0 73.34 
L 419.66 73.34 
L 419.66 0 
L 0 0 
z
" style="fill:none;"/>
  </g>
  <g id="axes_1">
   <g id="patch_2">
    <path d="M 10.7 62.64 
L 59.695122 62.64 
L 59.695122 7.2 
L 10.7 7.2 
z
" style="fill:none;"/>
   </g>
   <g id="matplotlib.axis_1"/>
   <g id="matplotlib.axis_2"/>
   <g id="line2d_1">
    <path clip-path="url(#p9cd20b8fe4)" d="M 12.927051 53.908732 
L 14.462948 56.748169 
L 15.998845 55.505915 
L 17.534743 54.973521 
L 19.07064 55.150986 
L 20.606537 56.215775 
L 22.142434 54.973521 
L 23.678332 56.393239 
L 25.214229 57.280563 
L 26.750126 56.03831 
L 28.286023 58.345352 
L 29.821921 54.796056 
L 31.357818 56.215775 
L 32.893715 54.263662 
L 34.429612 56.03831 
L 35.96551 56.393239 
L 37.501407 53.908732 
L 39.037304 51.95662 
L 40.573201 47.87493 
L 42.109099 44.858028 
L 43.644996 38.114366 
L 45.180893 31.370704 
L 46.71679 24.981972 
L 48.252688 9.897465 
L 49.788585 9.72 
L 51.324482 10.07493 
L 52.860379 17.350986 
L 54.396276 36.517183 
L 55.932174 47.697465 
L 57.468071 60.12 
" style="fill:none;stroke:#1f77b4;stroke-linecap:square;stroke-width:1.5;"/>
   </g>
   <g id="line2d_2">
    <path clip-path="url(#p9cd20b8fe4)" d="M 12.927051 49.294648 
L 14.462948 53.553803 
L 15.998845 52.489014 
L 17.534743 53.553803 
L 19.07064 52.666479 
L 20.606537 54.441127 
L 22.142434 53.021408 
L 23.678332 55.505915 
L 25.214229 56.03831 
L 26.750126 54.263662 
L 28.286023 52.666479 
L 29.821921 50.891831 
L 31.357818 52.843944 
L 32.893715 52.843944 
L 34.429612 53.021408 
L 35.96551 52.311549 
L 37.501407 50.181972 
L 39.037304 48.762254 
L 40.573201 45.567887 
L 42.109099 47.342535 
L 43.644996 43.08338 
L 45.180893 42.196056 
L 46.71679 35.27493 
L 48.252688 24.272113 
L 49.788585 17.528451 
L 51.324482 26.579155 
L 52.860379 17.350986 
L 54.396276 27.289014 
L 55.932174 44.503099 
L 57.468071 58.345352 
" style="fill:none;stroke:#ff0000;stroke-linecap:square;stroke-width:1.5;"/>
   </g>
   <g id="patch_3">
    <path d="M 10.7 62.64 
L 10.7 7.2 
" style="fill:none;stroke:#000000;stroke-linecap:square;stroke-linejoin:miter;stroke-width:1.5;"/>
   </g>
   <g id="patch_4">
    <path d="M 10.7 62.64 
L 59.695122 62.64 
" style="fill:none;stroke:#000000;stroke-linecap:square;stroke-linejoin:miter;stroke-width:1.5;"/>
   </g>
  </g>
  <g id="axes_2">
   <g id="patch_5">
    <path d="M 69.494146 62.64 
L 118.489268 62.64 
L 118.489268 7.2 
L 69.494146 7.2 
z
" style="fill:none;"/>
   </g>
   <g id="matplotlib.axis_3"/>
   <g id="matplotlib.axis_4"/>
   <g id="line2d_3">
    <path clip-path="url(#p7e27d0dfb3)" d="M 71.721197 45.985683 
L 73.257095 47.845461 
L 74.792992 49.147306 
L 76.328889 47.473506 
L 77.864786 47.473506 
L 79.400684 48.403395 
L 80.936581 46.543616 
L 82.472478 48.775351 
L 84.008375 45.427749 
L 85.544272 45.799705 
L 87.08017 46.171661 
L 88.616067 49.891218 
L 90.151964 48.217417 
L 91.687861 47.473506 
L 93.223759 48.961328 
L 94.759656 45.985683 
L 96.295553 46.543616 
L 97.83145 43.010037 
L 99.367348 44.49786 
L 100.903245 38.546568 
L 102.439142 38.174613 
L 103.975039 31.293432 
L 105.510937 29.991587 
L 107.046834 23.110406 
L 108.582731 23.482362 
L 110.118628 23.854317 
L 111.654526 32.595277 
L 113.190423 36.872768 
L 114.72632 53.052841 
L 116.262217 60.12 
" style="fill:none;stroke:#1f77b4;stroke-linecap:square;stroke-width:1.5;"/>
   </g>
   <g id="line2d_4">
    <path clip-path="url(#p7e27d0dfb3)" d="M 71.721197 42.824059 
L 73.257095 48.961328 
L 74.792992 49.333284 
L 76.328889 48.589373 
L 77.864786 48.031439 
L 79.400684 48.589373 
L 80.936581 49.147306 
L 82.472478 48.217417 
L 84.008375 48.403395 
L 85.544272 50.635129 
L 87.08017 49.70524 
L 88.616067 50.821107 
L 90.151964 52.30893 
L 91.687861 49.519262 
L 93.223759 51.007085 
L 94.759656 50.077196 
L 96.295553 48.961328 
L 97.83145 46.171661 
L 99.367348 45.799705 
L 100.903245 43.381993 
L 102.439142 38.546568 
L 103.975039 32.223321 
L 105.510937 27.573875 
L 107.046834 24.784207 
L 108.582731 9.72 
L 110.118628 18.274982 
L 111.654526 19.948782 
L 113.190423 33.15321 
L 114.72632 50.635129 
L 116.262217 59.376089 
" style="fill:none;stroke:#ff0000;stroke-linecap:square;stroke-width:1.5;"/>
   </g>
   <g id="patch_6">
    <path d="M 69.494146 62.64 
L 69.494146 7.2 
" style="fill:none;stroke:#000000;stroke-linecap:square;stroke-linejoin:miter;stroke-width:1.5;"/>
   </g>
   <g id="patch_7">
    <path d="M 69.494146 62.64 
L 118.489268 62.64 
" style="fill:none;stroke:#000000;stroke-linecap:square;stroke-linejoin:miter;stroke-width:1.5;"/>
   </g>
  </g>
  <g id="axes_3">
   <g id="patch_8">
    <path d="M 128.288293 62.64 
L 177.283415 62.64 
L 177.283415 7.2 
L 128.288293 7.2 
z
" style="fill:none;"/>
   </g>
   <g id="matplotlib.axis_5"/>
   <g id="matplotlib.axis_6"/>
   <g id="line2d_5">
    <path clip-path="url(#p580e08a319)" d="M 130.515344 40.275 
L 132.051241 46.575 
L 133.587138 42.48 
L 135.123035 34.92 
L 136.658933 40.59 
L 138.19483 42.795 
L 139.730727 43.74 
L 141.266624 40.275 
L 142.802522 43.425 
L 144.338419 39.015 
L 145.874316 42.48 
L 147.410213 39.96 
L 148.946111 44.055 
L 150.482008 39.015 
L 152.017905 43.425 
L 153.553802 36.81 
L 155.0897 39.015 
L 156.625597 39.33 
L 158.161494 35.865 
L 159.697391 41.85 
L 161.233288 31.77 
L 162.769186 26.73 
L 164.305083 34.605 
L 165.84098 33.03 
L 167.376877 36.81 
L 168.912775 36.495 
L 170.448672 40.59 
L 171.984569 49.41 
L 173.520466 52.245 
L 175.056364 60.12 
" style="fill:none;stroke:#1f77b4;stroke-linecap:square;stroke-width:1.5;"/>
   </g>
   <g id="line2d_6">
    <path clip-path="url(#p580e08a319)" d="M 130.515344 45.315 
L 132.051241 54.765 
L 133.587138 53.82 
L 135.123035 53.505 
L 136.658933 55.395 
L 138.19483 52.56 
L 139.730727 54.765 
L 141.266624 52.56 
L 142.802522 54.765 
L 144.338419 53.82 
L 145.874316 52.56 
L 147.410213 53.19 
L 148.946111 53.19 
L 150.482008 53.505 
L 152.017905 54.765 
L 153.553802 50.355 
L 155.0897 44.37 
L 156.625597 45.63 
L 158.161494 45 
L 159.697391 39.015 
L 161.233288 37.755 
L 162.769186 29.565 
L 164.305083 22.635 
L 165.84098 19.485 
L 167.376877 15.075 
L 168.912775 9.72 
L 170.448672 18.54 
L 171.984569 13.5 
L 173.520466 12.24 
L 175.056364 16.335 
" style="fill:none;stroke:#ff0000;stroke-linecap:square;stroke-width:1.5;"/>
   </g>
   <g id="patch_9">
    <path d="M 128.288293 62.64 
L 128.288293 7.2 
" style="fill:none;stroke:#000000;stroke-linecap:square;stroke-linejoin:miter;stroke-width:1.5;"/>
   </g>
   <g id="patch_10">
    <path d="M 128.288293 62.64 
L 177.283415 62.64 
" style="fill:none;stroke:#000000;stroke-linecap:square;stroke-linejoin:miter;stroke-width:1.5;"/>
   </g>
  </g>
  <g id="axes_4">
   <g id="patch_11">
    <path d="M 187.082439 62.64 
L 236.077561 62.64 
L 236.077561 7.2 
L 187.082439 7.2 
z
" style="fill:none;"/>
   </g>
   <g id="matplotlib.axis_7"/>
   <g id="matplotlib.axis_8"/>
   <g id="line2d_7">
    <path clip-path="url(#pc31f59c59d)" d="M 189.30949 59.45434 
L 190.845387 59.644528 
L 192.381285 59.264151 
L 193.917182 59.45434 
L 195.453079 59.834717 
L 196.988976 59.359245 
L 198.524873 60.024906 
L 200.060771 59.834717 
L 201.596668 59.549434 
L 203.132565 60.12 
L 204.668462 59.929811 
L 206.20436 58.883774 
L 207.740257 59.834717 
L 209.276154 58.883774 
L 210.812051 59.169057 
L 212.347949 59.359245 
L 213.883846 59.073962 
L 215.419743 57.93283 
L 216.95564 56.506415 
L 218.491538 54.889811 
L 220.027435 53.558491 
L 221.563332 49.089057 
L 223.099229 43.098113 
L 224.635127 36.916981 
L 226.171024 25.125283 
L 227.706921 18.278491 
L 229.242818 9.72 
L 230.778715 15.710943 
L 232.314613 39.579623 
L 233.85051 54.794717 
" style="fill:none;stroke:#1f77b4;stroke-linecap:square;stroke-width:1.5;"/>
   </g>
   <g id="line2d_8">
    <path clip-path="url(#pc31f59c59d)" d="M 189.30949 56.601509 
L 190.845387 57.172075 
L 192.381285 57.457358 
L 193.917182 57.172075 
L 195.453079 57.362264 
L 196.988976 57.552453 
L 198.524873 58.123019 
L 200.060771 57.552453 
L 201.596668 57.172075 
L 203.132565 57.362264 
L 204.668462 57.172075 
L 206.20436 57.457358 
L 207.740257 56.316226 
L 209.276154 55.270189 
L 210.812051 55.935849 
L 212.347949 55.270189 
L 213.883846 55.365283 
L 215.419743 52.987925 
L 216.95564 49.564528 
L 218.491538 47.472453 
L 220.027435 43.003019 
L 221.563332 37.10717 
L 223.099229 38.628679 
L 224.635127 32.542642 
L 226.171024 36.061132 
L 227.706921 33.018113 
L 229.242818 36.916981 
L 230.778715 43.288302 
L 232.314613 51.656604 
L 233.85051 58.313208 
" style="fill:none;stroke:#ff0000;stroke-linecap:square;stroke-width:1.5;"/>
   </g>
   <g id="patch_12">
    <path d="M 187.082439 62.64 
L 187.082439 7.2 
" style="fill:none;stroke:#000000;stroke-linecap:square;stroke-linejoin:miter;stroke-width:1.5;"/>
   </g>
   <g id="patch_13">
    <path d="M 187.082439 62.64 
L 236.077561 62.64 
" style="fill:none;stroke:#000000;stroke-linecap:square;stroke-linejoin:miter;stroke-width:1.5;"/>
   </g>
  </g>
  <g id="axes_5">
   <g id="patch_14">
    <path d="M 245.876585 62.64 
L 294.871707 62.64 
L 294.871707 7.2 
L 245.876585 7.2 
z
" style="fill:none;"/>
   </g>
   <g id="matplotlib.axis_9"/>
   <g id="matplotlib.axis_10"/>
   <g id="line2d_9">
    <path clip-path="url(#p0bbf6bdaee)" d="M 248.103636 59.282791 
L 249.639534 59.450233 
L 251.175431 59.450233 
L 252.711328 59.115349 
L 254.247225 59.282791 
L 255.783123 60.12 
L 257.31902 58.27814 
L 258.854917 58.27814 
L 260.390814 59.115349 
L 261.926712 58.780465 
L 263.462609 58.27814 
L 264.998506 57.106047 
L 266.534403 57.44093 
L 268.0703 55.766512 
L 269.606198 55.264186 
L 271.142095 53.757209 
L 272.677992 50.24093 
L 274.213889 47.394419 
L 275.749787 41.868837 
L 277.285684 37.180465 
L 278.821581 37.515349 
L 280.357478 30.817674 
L 281.893376 29.980465 
L 283.429273 22.27814 
L 284.96517 15.915349 
L 286.501067 14.24093 
L 288.036965 11.56186 
L 289.572862 11.729302 
L 291.108759 13.738605 
L 292.644656 18.092093 
" style="fill:none;stroke:#1f77b4;stroke-linecap:square;stroke-width:1.5;"/>
   </g>
   <g id="line2d_10">
    <path clip-path="url(#p0bbf6bdaee)" d="M 248.103636 59.282791 
L 249.639534 59.115349 
L 251.175431 58.780465 
L 252.711328 59.450233 
L 254.247225 59.450233 
L 255.783123 59.115349 
L 257.31902 58.110698 
L 258.854917 59.617674 
L 260.390814 58.445581 
L 261.926712 58.947907 
L 263.462609 56.603721 
L 264.998506 56.101395 
L 266.534403 55.431628 
L 268.0703 55.431628 
L 269.606198 53.087442 
L 271.142095 51.580465 
L 272.677992 48.064186 
L 274.213889 42.203721 
L 275.749787 40.36186 
L 277.285684 37.347907 
L 278.821581 30.817674 
L 280.357478 31.822326 
L 281.893376 20.603721 
L 283.429273 17.924651 
L 284.96517 17.924651 
L 286.501067 9.72 
L 288.036965 17.087442 
L 289.572862 17.589767 
L 291.108759 26.296744 
L 292.644656 35.003721 
" style="fill:none;stroke:#ff0000;stroke-linecap:square;stroke-width:1.5;"/>
   </g>
   <g id="patch_15">
    <path d="M 245.876585 62.64 
L 245.876585 7.2 
" style="fill:none;stroke:#000000;stroke-linecap:square;stroke-linejoin:miter;stroke-width:1.5;"/>
   </g>
   <g id="patch_16">
    <path d="M 245.876585 62.64 
L 294.871707 62.64 
" style="fill:none;stroke:#000000;stroke-linecap:square;stroke-linejoin:miter;stroke-width:1.5;"/>
   </g>
  </g>
  <g id="axes_6">
   <g id="patch_17">
    <path d="M 304.670732 62.64 
L 353.665854 62.64 
L 353.665854 7.2 
L 304.670732 7.2 
z
" style="fill:none;"/>
   </g>
   <g id="matplotlib.axis_11"/>
   <g id="matplotlib.axis_12"/>
   <g id="line2d_11">
    <path clip-path="url(#p431c80e87d)" d="M 306.897783 32.044832 
L 308.43368 27.647517 
L 309.969577 23.588456 
L 311.505474 28.662282 
L 313.041372 28.324027 
L 314.577269 27.985772 
L 316.113166 27.309262 
L 317.649063 24.941477 
L 319.184961 17.838121 
L 320.720858 23.250201 
L 322.256755 22.911946 
L 323.792652 30.353557 
L 325.32855 17.838121 
L 326.864447 20.205906 
L 328.400344 18.514631 
L 329.936241 18.514631 
L 331.472139 24.264966 
L 333.008036 23.588456 
L 334.543933 14.117315 
L 336.07983 14.793826 
L 337.615728 16.823356 
L 339.151625 21.558926 
L 340.687522 15.470336 
L 342.223419 21.897181 
L 343.759316 27.309262 
L 345.295214 30.353557 
L 346.831111 40.839463 
L 348.367008 46.251544 
L 349.902905 52.678389 
L 351.438803 59.105235 
" style="fill:none;stroke:#1f77b4;stroke-linecap:square;stroke-width:1.5;"/>
   </g>
   <g id="line2d_12">
    <path clip-path="url(#p431c80e87d)" d="M 306.897783 20.544161 
L 308.43368 15.470336 
L 309.969577 21.897181 
L 311.505474 21.897181 
L 313.041372 17.838121 
L 314.577269 18.852886 
L 316.113166 26.971007 
L 317.649063 18.176376 
L 319.184961 11.07302 
L 320.720858 15.470336 
L 322.256755 15.132081 
L 323.792652 15.808591 
L 325.32855 15.470336 
L 326.864447 21.558926 
L 328.400344 21.897181 
L 329.936241 20.882416 
L 331.472139 21.558926 
L 333.008036 23.250201 
L 334.543933 17.838121 
L 336.07983 18.514631 
L 337.615728 9.72 
L 339.151625 19.529396 
L 340.687522 30.691812 
L 342.223419 32.721342 
L 343.759316 40.501208 
L 345.295214 49.634094 
L 346.831111 56.399195 
L 348.367008 59.44349 
L 349.902905 60.12 
L 351.438803 60.12 
" style="fill:none;stroke:#ff0000;stroke-linecap:square;stroke-width:1.5;"/>
   </g>
   <g id="patch_18">
    <path d="M 304.670732 62.64 
L 304.670732 7.2 
" style="fill:none;stroke:#000000;stroke-linecap:square;stroke-linejoin:miter;stroke-width:1.5;"/>
   </g>
   <g id="patch_19">
    <path d="M 304.670732 62.64 
L 353.665854 62.64 
" style="fill:none;stroke:#000000;stroke-linecap:square;stroke-linejoin:miter;stroke-width:1.5;"/>
   </g>
  </g>
  <g id="axes_7">
   <g id="patch_20">
    <path d="M 363.464878 62.64 
L 412.46 62.64 
L 412.46 7.2 
L 363.464878 7.2 
z
" style="fill:none;"/>
   </g>
   <g id="matplotlib.axis_13"/>
   <g id="matplotlib.axis_14"/>
   <g id="line2d_13">
    <path clip-path="url(#p58ba0749c1)" d="M 365.691929 58.666154 
L 367.227826 59.635385 
L 368.763724 58.989231 
L 370.299621 58.343077 
L 371.835518 58.504615 
L 373.371415 58.504615 
L 374.907312 58.989231 
L 376.44321 58.989231 
L 377.979107 58.181538 
L 379.515004 57.858462 
L 381.050901 58.827692 
L 382.586799 57.858462 
L 384.122696 57.858462 
L 385.658593 57.212308 
L 387.19449 55.92 
L 388.730388 51.235385 
L 390.266285 50.750769 
L 391.802182 46.066154 
L 393.338079 39.604615 
L 394.873977 36.535385 
L 396.409874 31.043077 
L 397.945771 22.158462 
L 399.481668 17.796923 
L 401.017566 17.796923 
L 402.553463 16.504615 
L 404.08936 18.766154 
L 405.625257 18.604615 
L 407.161155 25.066154 
L 408.697052 27.166154 
L 410.232949 40.089231 
" style="fill:none;stroke:#1f77b4;stroke-linecap:square;stroke-width:1.5;"/>
   </g>
   <g id="line2d_14">
    <path clip-path="url(#p58ba0749c1)" d="M 365.691929 59.150769 
L 367.227826 59.473846 
L 368.763724 59.958462 
L 370.299621 58.989231 
L 371.835518 59.958462 
L 373.371415 60.12 
L 374.907312 59.958462 
L 376.44321 58.504615 
L 377.979107 59.150769 
L 379.515004 58.827692 
L 381.050901 59.150769 
L 382.586799 59.473846 
L 384.122696 57.535385 
L 385.658593 56.889231 
L 387.19449 56.889231 
L 388.730388 52.527692 
L 390.266285 53.012308 
L 391.802182 46.227692 
L 393.338079 44.127692 
L 394.873977 39.12 
L 396.409874 36.696923 
L 397.945771 30.72 
L 399.481668 22.32 
L 401.017566 25.066154 
L 402.553463 12.950769 
L 404.08936 12.143077 
L 405.625257 9.72 
L 407.161155 12.950769 
L 408.697052 25.389231 
L 410.232949 26.52 
" style="fill:none;stroke:#ff0000;stroke-linecap:square;stroke-width:1.5;"/>
   </g>
   <g id="patch_21">
    <path d="M 363.464878 62.64 
L 363.464878 7.2 
" style="fill:none;stroke:#000000;stroke-linecap:square;stroke-linejoin:miter;stroke-width:1.5;"/>
   </g>
   <g id="patch_22">
    <path d="M 363.464878 62.64 
L 412.46 62.64 
" style="fill:none;stroke:#000000;stroke-linecap:square;stroke-linejoin:miter;stroke-width:1.5;"/>
   </g>
  </g>
 </g>
 <defs>
  <clipPath id="p9cd20b8fe4">
   <rect height="55.44" width="48.995122" x="10.7" y="7.2"/>
  </clipPath>
  <clipPath id="p7e27d0dfb3">
   <rect height="55.44" width="48.995122" x="69.494146" y="7.2"/>
  </clipPath>
  <clipPath id="p580e08a319">
   <rect height="55.44" width="48.995122" x="128.288293" y="7.2"/>
  </clipPath>
  <clipPath id="pc31f59c59d">
   <rect height="55.44" width="48.995122" x="187.082439" y="7.2"/>
  </clipPath>
  <clipPath id="p0bbf6bdaee">
   <rect height="55.44" width="48.995122" x="245.876585" y="7.2"/>
  </clipPath>
  <clipPath id="p431c80e87d">
   <rect height="55.44" width="48.995122" x="304.670732" y="7.2"/>
  </clipPath>
  <clipPath id="p58ba0749c1">
   <rect height="55.44" width="48.995122" x="363.464878" y="7.2"/>
  </clipPath>
 </defs>
</svg>
