<?xml version="1.0" encoding="utf-8" standalone="no"?>
<!DOCTYPE svg PUBLIC "-//W3C//DTD SVG 1.1//EN"
  "http://www.w3.org/Graphics/SVG/1.1/DTD/svg11.dtd">
<!-- Created with matplotlib (https://matplotlib.org/) -->
<svg height="78.156pt" version="1.1" viewBox="0 0 126 78.156" width="126pt" xmlns="http://www.w3.org/2000/svg" xmlns:xlink="http://www.w3.org/1999/xlink">
 <metadata>
  <rdf:RDF xmlns:cc="http://creativecommons.org/ns#" xmlns:dc="http://purl.org/dc/elements/1.1/" xmlns:rdf="http://www.w3.org/1999/02/22-rdf-syntax-ns#">
   <cc:Work>
    <dc:type rdf:resource="http://purl.org/dc/dcmitype/StillImage"/>
    <dc:date>2020-12-16T15:51:18.252782</dc:date>
    <dc:format>image/svg+xml</dc:format>
    <dc:creator>
     <cc:Agent>
      <dc:title>Matplotlib v3.3.2, https://matplotlib.org/</dc:title>
     </cc:Agent>
    </dc:creator>
   </cc:Work>
  </rdf:RDF>
 </metadata>
 <defs>
  <style type="text/css">*{stroke-linecap:butt;stroke-linejoin:round;}</style>
 </defs>
 <g id="figure_1">
  <g id="patch_1">
   <path d="M 0 78.156 
L 126 78.156 
L 126 0 
L 0 0 
z
" style="fill:none;"/>
  </g>
  <g id="axes_1">
   <g id="patch_2">
    <path d="M 7.2 70.956 
L 118.8 70.956 
L 118.8 7.2 
L 7.2 7.2 
z
" style="fill:none;"/>
   </g>
   <g id="matplotlib.axis_1"/>
   <g id="matplotlib.axis_2"/>
   <g id="line2d_1">
    <path clip-path="url(#p57b99775e0)" d="M 12.272727 26.588156 
L 12.455918 26.483519 
L 12.315002 26.647539 
L 12.460615 26.488954 
L 12.60153 26.703533 
L 12.629713 26.673619 
L 12.761235 26.535238 
L 12.765932 26.557495 
L 12.855178 26.482693 
L 12.86927 26.50996 
L 12.892756 26.428511 
L 12.958517 26.572831 
L 12.963214 26.554956 
L 12.972608 26.569356 
L 13.043066 26.478404 
L 13.05246 26.476971 
L 13.376566 26.26875 
L 13.385961 26.289887 
L 13.418841 26.336143 
L 13.489299 26.25451 
L 13.559757 26.196494 
L 13.564454 26.166891 
L 13.724158 25.953958 
L 13.733552 25.961651 
L 13.80401 25.875293 
L 13.95432 25.73133 
L 13.959017 25.767039 
L 14.043567 25.761434 
L 14.057658 25.723008 
L 14.081144 25.714038 
L 14.142208 25.804969 
L 14.151602 25.830447 
L 14.231454 25.729656 
L 14.362976 25.637821 
L 14.292518 25.75453 
L 14.37237 25.650278 
L 14.386461 25.66503 
L 14.414645 25.606851 
L 14.466314 25.615588 
L 14.550863 25.512978 
L 14.583743 25.588119 
L 14.734053 25.692637 
L 14.738751 25.67715 
L 14.860877 25.611144 
L 14.884363 25.64735 
L 14.945427 25.563333 
L 14.964216 25.579908 
L 15.415145 25.381118 
L 15.476209 25.325701 
L 15.438631 25.399049 
L 15.537272 25.342472 
L 15.57485 25.264022 
L 15.645308 25.356028 
L 15.743949 25.412948 
L 15.776829 25.373965 
L 15.866075 25.340332 
L 15.903653 25.384514 
L 16.05866 25.560371 
L 15.922442 25.350542 
L 16.072752 25.510129 
L 16.133815 25.404732 
L 16.20897 25.482494 
L 16.3264 25.594893 
L 16.354583 25.556436 
L 16.429738 25.49743 
L 16.47671 25.535351 
L 16.504893 25.585149 
L 16.565956 25.465676 
L 16.678689 25.401049 
L 16.683386 25.401898 
L 16.763238 25.409795 
L 16.702175 25.372614 
L 16.786724 25.378496 
L 16.899457 25.326353 
L 16.918245 25.341045 
L 17.026281 25.434996 
L 17.045069 25.407736 
L 18.134817 25.043029 
L 18.148908 25.080802 
L 18.191183 25.066148 
L 18.271035 25.132407 
L 18.369676 25.177775 
L 18.397859 25.133351 
L 18.4965 25.033336 
L 18.515289 25.078222 
L 18.524683 25.093866 
L 18.58105 25.041812 
L 18.618627 25.052609 
L 18.670296 24.937826 
L 18.740754 25.034629 
L 18.79712 25.053293 
L 18.844092 25.011374 
L 18.88167 25.059331 
L 18.975613 24.90666 
L 19.069557 24.836248 
L 18.994402 24.930228 
L 19.102437 24.870769 
L 19.107135 24.87623 
L 19.168198 24.780107 
L 19.313811 24.698932 
L 19.337297 24.738825 
L 19.586248 24.850721 
L 19.736558 24.738865 
L 19.755346 24.756962 
L 19.788227 24.661457 
L 19.807015 24.655946 
L 19.886868 24.537214 
L 19.947931 24.559534 
L 20.027783 24.478813 
L 20.14991 24.461571 
L 20.098241 24.537249 
L 20.154607 24.470898 
L 20.159305 24.491028 
L 20.215671 24.35389 
L 20.239157 24.360343 
L 20.647812 24.362365 
L 20.821608 24.143501 
L 20.835699 24.161608 
L 20.877974 24.193659 
L 20.93434 24.113104 
L 21.117531 24.034461 
L 21.187989 24.077774 
L 21.220869 23.986109 
L 21.239658 24.027635 
L 21.267841 23.922795 
L 21.305418 23.925513 
L 21.451031 23.78905 
L 21.479214 23.815012 
L 21.483911 23.822709 
L 21.5027 23.764315 
L 21.559066 23.742297 
L 21.756348 23.282228 
L 21.77044 23.316979 
L 21.822109 23.143823 
L 22.019391 21.740613 
L 22.038179 18.683447 
L 22.047574 9.544118 
L 22.080454 23.636922 
L 22.146215 21.495956 
L 22.165003 10.627718 
L 22.193187 24.345559 
L 22.240158 22.792364 
L 22.277736 18.342977 
L 22.282433 9.883695 
L 22.315313 24.715781 
L 22.385771 22.223307 
L 22.409257 18.73154 
L 22.413954 9.900474 
L 22.446835 24.927101 
L 22.517292 22.692102 
L 22.55487 18.571763 
L 22.559567 9.872079 
L 22.592447 25.078759 
L 22.662905 23.117706 
L 22.719272 19.035656 
L 22.723969 10.136567 
L 22.756849 25.122159 
L 22.827307 23.4407 
L 22.897765 20.786137 
L 22.907159 10.000904 
L 22.940039 25.188514 
L 23.001103 23.90114 
L 23.109138 19.766068 
L 23.118532 10.302247 
L 23.151413 25.14989 
L 23.217173 23.81391 
L 23.334603 20.637155 
L 23.343997 10.090858 
L 23.376878 25.139166 
L 23.437941 24.03057 
L 23.588251 20.204033 
L 23.597646 9.874888 
L 23.630526 25.123207 
L 23.691589 24.028002 
L 23.870082 20.093342 
L 23.879477 9.877492 
L 23.912357 25.073818 
L 23.97342 24.030996 
L 24.1754 19.568699 
L 24.184794 10.078872 
L 24.217674 25.064403 
L 24.283435 23.891863 
L 24.5089 20.743024 
L 24.522991 10.218376 
L 24.555872 25.038587 
L 24.607541 24.123326 
L 24.828309 22.21777 
L 24.889372 21.29203 
L 24.903464 14.355195 
L 24.908161 9.796392 
L 24.941041 24.991695 
L 25.002104 23.958453 
L 25.213478 22.323593 
L 25.316816 21.426033 
L 25.330908 19.263792 
L 25.340302 10.02514 
L 25.373182 24.953354 
L 25.438943 23.889262 
L 25.636225 22.604351 
L 25.655013 22.629913 
L 25.701985 22.524837 
L 25.734866 22.555994 
L 25.838204 22.619903 
L 25.842901 22.641171 
L 26.030788 23.285947 
L 26.035486 23.282199 
L 26.232768 24.118878 
L 26.237465 24.109671 
L 26.289134 24.232104 
L 26.307923 24.213001 
L 26.477021 24.744919 
L 26.481718 24.739809 
L 26.519296 24.857158 
L 26.523993 24.853194 
L 26.801127 25.43763 
L 26.824613 25.433267 
L 26.862191 25.52065 
L 26.880979 25.522693 
L 27.106444 25.895243 
L 27.167508 26.003068 
L 27.299029 26.052522 
L 27.303726 26.047654 
L 27.322515 26.041213 
L 27.374184 26.134322 
L 27.538586 26.378954 
L 27.637226 26.336241 
L 27.656015 26.365659 
L 27.759353 26.442739 
L 27.707684 26.338433 
L 27.782839 26.43002 
L 28.059973 26.683572 
L 28.092854 26.648323 
L 28.177403 26.743216 
L 28.285438 26.687648 
L 28.29953 26.710062 
L 28.379382 26.738135 
L 28.308924 26.692848 
L 28.426354 26.684075 
L 28.510903 26.654664 
L 28.478023 26.732145 
L 28.529692 26.699361 
L 28.534389 26.721366 
L 28.595453 26.612824 
L 28.623636 26.621082 
L 28.628333 26.6096 
L 28.670608 26.703944 
L 28.71758 26.671938 
L 28.891375 26.650468 
L 28.994714 26.686223 
L 29.008805 26.614658 
L 29.154418 26.697843 
L 29.304728 26.648561 
L 29.375186 26.741916 
L 29.431552 26.715601 
L 29.553679 26.66537 
L 29.577165 26.704456 
L 29.6852 26.642175 
L 29.71808 26.651548 
L 29.746264 26.712723 
L 29.755658 26.691581 
L 29.863693 26.767381 
L 29.797933 26.685618 
L 29.873088 26.751881 
L 29.971728 26.654887 
L 29.887179 26.763303 
L 29.999912 26.683005 
L 30.056278 26.736444 
L 30.112644 26.679245 
L 30.178405 26.722332 
L 30.234771 26.671896 
L 30.399173 26.598438 
L 30.479025 26.567004 
L 30.497813 26.619317 
L 30.605849 26.707238 
L 30.615243 26.691871 
L 30.676307 26.74095 
L 30.732673 26.656075 
L 30.73737 26.640062 
L 30.789039 26.727905 
L 30.821919 26.710084 
L 30.88768 26.760303 
L 30.845405 26.697187 
L 30.934652 26.737188 
L 31.019201 26.643696 
L 31.056779 26.688855 
L 31.075567 26.688646 
L 31.117842 26.606668 
L 31.146025 26.647483 
L 31.235272 26.586379 
L 31.357399 26.718233 
L 31.376187 26.679266 
L 31.441948 26.643413 
L 31.493617 26.67039 
L 31.611047 26.666576 
L 31.620441 26.649425 
L 31.686202 26.558122 
L 31.733174 26.63977 
L 31.761357 26.64216 
L 31.784843 26.556821 
L 31.813026 26.570743 
L 32.099554 26.409714 
L 32.108949 26.42258 
L 32.137132 26.498514 
L 32.20759 26.366673 
L 32.212287 26.384651 
L 32.24047 26.34652 
L 32.268653 26.429962 
L 32.310928 26.412214 
L 32.329716 26.443381 
L 32.367294 26.373812 
L 32.42366 26.41453 
L 32.564576 26.288082 
L 32.569273 26.298288 
L 32.65852 26.351207 
L 32.682005 26.331488 
L 32.743069 26.229797 
L 32.799435 26.279037 
L 32.930956 26.298721 
L 33.001414 26.266735 
L 32.973231 26.322887 
L 33.043689 26.292291 
L 33.654323 26.008412 
L 33.663718 26.025004 
L 33.677809 26.050291 
L 33.729478 25.941391 
L 33.762359 25.971528 
L 33.95964 25.783243 
L 34.07707 25.701306 
L 34.081767 25.712371 
L 34.156922 25.767556 
L 34.189803 25.70255 
L 34.232077 25.702496 
L 34.279049 25.771452 
L 34.326021 25.779806 
L 34.372993 25.70819 
L 34.546789 25.519984 
L 34.56088 25.543878 
L 34.64543 25.519437 
L 34.579669 25.507579 
L 34.654824 25.49601 
L 34.809831 25.379338 
L 34.870895 25.428202 
L 34.931958 25.34799 
L 34.960141 25.38429 
L 35.176212 25.158619 
L 35.195001 25.147423 
L 35.209092 25.207304 
L 35.251367 25.231661 
L 35.288944 25.264537 
L 35.270156 25.212426 
L 35.350008 25.199644 
L 35.486226 25.102101 
L 35.368797 25.236087 
L 35.490923 25.111305 
L 35.810332 24.98608 
L 35.955945 24.828144 
L 36.040494 24.84245 
L 35.970036 24.807862 
L 36.068677 24.801031 
L 36.195501 24.690929 
L 36.200199 24.699202 
L 36.402178 24.619104 
L 36.411572 24.6032 
L 36.538396 24.586723 
L 36.698101 24.482078 
L 36.707495 24.49784 
L 36.93296 24.316094 
L 37.055087 24.208651 
L 36.956446 24.328988 
L 37.059784 24.213612 
L 37.130242 24.276691 
L 37.163122 24.180863 
L 37.271157 24.131404 
L 37.23358 24.243031 
L 37.289946 24.166364 
L 37.318129 24.15915 
L 37.346312 24.083526 
L 37.5342 23.799879 
L 37.543594 23.817117 
L 37.576475 23.791772 
L 37.562383 23.746383 
L 37.595263 23.738862 
L 37.745573 23.577694 
L 38.2012 22.042859 
L 38.229384 20.692598 
L 38.243475 9.667399 
L 38.276355 23.508755 
L 38.337419 21.220984 
L 38.35151 10.252373 
L 38.379694 24.279966 
L 38.440757 22.005277 
L 38.459546 18.139605 
L 38.464243 9.944539 
L 38.497123 24.587299 
L 38.567581 21.851632 
L 38.581673 19.73734 
L 38.58637 10.585685 
L 38.61925 24.892123 
L 38.689708 22.470792 
L 38.717891 20.267571 
L 38.727285 10.35134 
L 38.755468 24.99931 
L 38.825926 22.980744 
L 38.872898 19.791195 
L 38.882293 10.67653 
L 38.910476 25.080443 
L 38.980933 23.283725 
L 39.046694 19.832467 
L 39.056088 10.47567 
L 39.084272 25.135401 
L 39.154729 23.577832 
L 39.243976 19.153686 
L 39.248673 10.520504 
L 39.281553 25.139332 
L 39.352011 23.749475 
L 39.464744 19.917085 
L 39.474138 10.147584 
L 39.507018 25.130826 
L 39.572779 23.845313 
L 39.718392 19.512814 
L 39.727786 10.311487 
L 39.760667 25.07362 
L 39.826427 23.831218 
L 39.986132 20.507386 
L 39.995526 10.100751 
L 40.028406 25.056705 
L 40.08947 24.002289 
L 40.296146 19.14313 
L 40.30554 10.339422 
L 40.338421 25.022616 
L 40.404181 23.879419 
L 40.629646 19.845265 
L 40.639041 9.901016 
L 40.671921 25.028164 
L 40.737681 23.901609 
L 41.047696 20.356438 
L 41.05709 9.960861 
L 41.08997 24.932836 
L 41.151034 23.984728 
L 41.362407 22.48768 
L 41.583175 21.542891 
L 41.601964 19.004401 
L 41.611358 10.078284 
L 41.644239 24.924057 
L 41.709999 23.830192 
L 41.902584 22.679401 
L 42.085774 22.858225 
L 42.438063 24.037179 
L 42.470944 24.126127 
L 42.611859 24.416387 
L 42.616556 24.394077 
L 42.935965 24.974312 
L 43.086275 25.24907 
L 43.109761 25.226005 
L 43.119155 25.206796 
L 43.292951 25.46544 
L 43.400987 25.565332 
L 43.415078 25.541338 
L 43.692212 25.852527 
L 43.725092 25.821964 
L 43.772064 25.909878 
L 43.804945 25.866303 
L 43.931769 25.91306 
L 44.049198 25.988579 
L 43.959952 25.88311 
L 44.058593 25.982981 
L 44.082079 25.949813 
L 44.143142 26.081925 
L 44.269966 26.214843 
L 44.274663 26.199334 
L 44.284058 26.174983 
L 44.36391 26.284457 
L 44.476642 26.382276 
L 44.486037 26.365719 
L 44.490734 26.359041 
L 44.542403 26.473599 
L 44.556495 26.435658 
L 44.66453 26.714328 
L 44.706805 26.688694 
L 44.810143 26.731447 
L 44.833629 26.696599 
L 44.93227 26.654587 
L 44.955756 26.682211 
L 45.059094 26.642783 
L 44.96515 26.7311 
L 45.087277 26.696799 
L 45.101368 26.689455 
L 45.218798 26.725848 
L 46.430672 26.710962 
L 46.515222 26.653398 
L 46.543405 26.736703 
L 46.656137 26.656772 
L 46.552799 26.74683 
L 46.670229 26.66549 
L 46.735989 26.687659 
L 46.707806 26.629448 
L 46.782961 26.658422 
L 47.309046 26.584132 
L 47.346624 26.557178 
L 47.412384 26.619004 
L 47.482842 26.702172 
L 47.529814 26.686682 
L 47.623758 26.730516 
L 47.647244 26.66785 
L 47.774068 26.70815 
L 47.67073 26.654406 
L 47.778765 26.702578 
L 47.914983 26.632871 
L 47.985441 26.559841 
L 47.924378 26.664724 
L 48.051202 26.641572 
L 48.140448 26.721692 
L 48.168632 26.688357 
L 48.384702 26.480874 
L 48.18742 26.760066 
L 48.398794 26.493665 
L 48.544407 26.632433 
L 48.558498 26.624553 
L 48.666533 26.581202 
L 48.675928 26.596006 
L 48.690019 26.599335 
L 48.746386 26.507073 
L 48.849724 26.331044 
L 48.887301 26.377784 
L 49.004731 26.512097 
L 49.018822 26.489044 
L 49.098675 26.443252 
L 49.0564 26.531082 
L 49.126858 26.468143 
L 49.197316 26.521653 
L 49.234893 26.48667 
L 49.366414 26.348118 
L 49.558999 26.195518 
L 49.69052 26.053583 
L 49.699915 26.077091 
L 49.793858 26.115842 
L 49.80795 26.061817 
L 49.831436 26.00849 
L 49.906591 26.099531 
L 49.930077 26.11792 
L 49.981746 26.036422 
L 50.005232 26.052484 
L 50.216605 25.822358 
L 50.235394 25.854429 
L 50.305852 25.921223 
L 50.268274 25.837115 
L 50.338732 25.846691 
L 50.348126 25.854754 
L 50.47495 25.742413 
L 50.489042 25.737296 
L 50.512528 25.665962 
L 50.531317 25.652296 
L 50.916486 25.448097 
L 50.935275 25.498383 
L 50.996338 25.505853 
L 50.963458 25.457019 
L 51.033916 25.453285 
L 51.137254 25.396561 
L 51.156043 25.410637 
L 51.235895 25.519163 
L 51.273472 25.483642 
L 51.334536 25.517308 
L 51.37681 25.441183 
L 51.545909 25.414004 
L 51.555303 25.440165 
L 51.574092 25.503691 
L 52.438375 25.073485 
L 52.461861 25.038699 
L 52.522924 25.114773 
L 52.541713 25.105638 
L 52.602776 25.026732 
L 52.659142 25.109866 
L 52.66384 25.112501 
L 52.692023 25.021467 
L 52.818847 24.853656 
L 53.44827 24.64534 
L 53.457664 24.650289 
L 53.504636 24.538488 
L 53.636157 24.478383 
L 53.664341 24.521222 
L 53.767679 24.580342 
L 53.809953 24.532137 
L 53.913291 24.462784 
L 53.936777 24.473068 
L 54.148151 24.350906 
L 54.152848 24.355837 
L 54.181031 24.387738 
L 54.218609 24.314589 
L 54.256186 24.331487 
L 54.364221 24.284032 
L 54.373616 24.29944 
L 54.458165 24.304436 
L 54.476954 24.257278 
L 54.603778 24.13188 
L 54.843334 24.094392 
L 55.026525 23.85998 
L 55.045314 23.88849 
L 55.050011 23.913888 
L 55.111074 23.78969 
L 55.143954 23.828985 
L 55.547913 23.334697 
L 55.85323 21.239618 
L 55.867321 9.61565 
L 55.904899 23.604831 
L 55.956568 22.038709 
L 55.980054 16.272629 
L 55.984751 10.085779 
L 56.012934 24.357121 
L 56.083392 21.869847 
L 56.097483 20.049468 
L 56.106878 10.648743 
L 56.135061 24.721119 
L 56.205519 22.297914 
L 56.229005 20.253233 
L 56.238399 10.350305 
L 56.266582 24.925858 
L 56.33704 22.777756 
L 56.374618 20.565847 
L 56.384012 9.957888 
L 56.416892 25.045669 
L 56.482653 23.235681 
L 56.539019 20.687 
L 56.548413 9.859752 
L 56.581294 25.11577 
L 56.642357 23.673231 
L 56.726907 20.077035 
L 56.736301 10.176211 
L 56.769181 25.128156 
L 56.834942 23.711778 
L 56.933583 20.739814 
L 56.942977 10.142943 
L 56.975857 25.161706 
L 57.036921 23.972431 
L 57.168442 20.82854 
L 57.182534 10.484597 
L 57.215414 25.124582 
L 57.267083 24.148103 
L 57.431485 20.267692 
L 57.440879 9.875463 
L 57.473759 25.092907 
L 57.534823 24.0271 
L 57.718013 20.556381 
L 57.727407 10.040307 
L 57.764985 25.074157 
L 57.821351 24.056407 
L 58.046816 19.995703 
L 58.056211 9.871739 
L 58.089091 25.008964 
L 58.154851 23.913782 
L 58.403802 19.80118 
L 58.413197 9.84501 
L 58.446077 24.998405 
L 58.511838 23.902843 
L 58.80776 20.104469 
L 58.817155 9.7832 
L 58.850035 24.952298 
L 58.911099 23.961342 
L 59.117775 22.533271 
L 59.169444 22.35773 
L 59.34324 21.275148 
L 59.357331 14.531858 
L 59.362029 9.729291 
L 59.394909 24.910168 
L 59.455972 23.913118 
L 59.657951 22.726849 
L 59.662649 22.745885 
L 59.751895 22.658058 
L 59.761289 22.635177 
L 59.817656 22.743612 
L 59.822353 22.743036 
L 60.498748 24.675608 
L 60.503445 24.658902 
L 60.902706 25.630727 
L 60.968467 25.603968 
L 60.977861 25.599469 
L 61.020136 25.69721 
L 61.038924 25.686034 
L 61.193932 25.861531 
L 61.301967 26.022992 
L 61.48046 26.203983 
L 61.503946 26.158296 
L 61.518037 26.151203 
L 61.536826 26.254608 
L 61.593192 26.2256 
L 61.705925 26.231547 
L 61.715319 26.274613 
L 61.785777 26.382259 
L 61.846841 26.326045 
L 62.217918 26.680304 
L 62.236707 26.651148 
L 62.255496 26.631165 
L 62.307165 26.696929 
L 62.335348 26.691795 
L 62.419897 26.720585 
L 62.387017 26.632869 
L 62.448081 26.684667 
L 62.603088 26.667898 
L 62.720517 26.691938 
L 62.837947 26.725764 
L 62.847341 26.694869 
L 62.974165 26.661491 
L 63.13387 26.709513 
L 62.992954 26.626573 
L 63.138567 26.70324 
L 63.204328 26.629788 
L 63.241905 26.714318 
L 63.246602 26.740592 
L 63.274785 26.668536 
L 63.345243 26.677256 
L 63.415701 26.645003 
L 63.354638 26.685773 
L 63.462673 26.692361 
L 63.481462 26.734482 
L 63.537828 26.66822 
L 63.566011 26.661633 
L 63.664652 26.641852 
L 63.608286 26.702518 
L 63.692835 26.67552 
L 63.76799 26.739074 
L 63.810265 26.691106 
L 64.900012 26.654131 
L 64.97047 26.606051 
L 65.012745 26.646449 
L 65.069111 26.720864 
L 65.130174 26.671948 
L 65.205329 26.642895 
L 65.247604 26.659806 
L 65.285182 26.761229 
L 65.369731 26.692228 
L 65.576407 26.549081 
L 65.599893 26.589168 
L 65.660957 26.505188 
L 65.684442 26.532619 
L 65.703231 26.504026 
L 65.731414 26.615205 
L 65.759597 26.628912 
L 66.158858 26.664269 
L 66.332654 26.52685 
L 66.360837 26.564187 
L 66.468873 26.599633 
L 66.426598 26.509611 
L 66.478267 26.584498 
L 66.567514 26.616323 
L 66.586302 26.540936 
L 66.595697 26.511624 
L 66.670852 26.572467 
L 66.694338 26.566289 
L 66.778887 26.621013 
L 66.811767 26.547464 
L 66.980866 26.380145 
L 67.112387 26.294965 
L 67.431796 26.311733 
L 67.436493 26.328821 
L 67.464676 26.235616 
L 67.535134 26.280964 
L 67.690141 26.225028 
L 67.849846 26.080231 
L 67.990761 26.133714 
L 68.145769 26.038317 
L 68.004853 26.14359 
L 68.155163 26.048659 
L 68.178649 26.078891 
L 68.216226 25.985193 
L 68.239712 25.989888 
L 68.352445 25.902953 
L 68.258501 26.027083 
L 68.380628 25.927201 
L 68.49336 25.923466 
L 68.507452 25.894433 
L 68.662459 25.779961 
L 68.667156 25.794663 
L 68.671853 25.802839 
L 68.737614 25.705566 
L 68.826861 25.549553 
L 68.87853 25.57277 
L 69.409312 25.352696 
L 69.489164 25.217501 
L 69.531439 25.244708 
L 69.625382 25.254426 
L 69.601897 25.185655 
L 69.639474 25.236743 
L 69.785087 25.134641 
L 69.789784 25.154524 
L 71.856546 24.060228 
L 71.992765 23.850339 
L 72.171258 23.666082 
L 72.208835 23.675694 
L 72.260504 23.583304 
L 72.302779 23.503482 
L 72.4343 23.32664 
L 72.55173 23.05644 
L 72.697343 22.293712 
L 72.739618 21.298788 
L 72.758406 9.506337 
L 72.791287 23.541071 
L 72.842956 21.87282 
L 72.861744 18.114567 
L 72.866442 10.06692 
L 72.899322 24.24512 
L 72.96978 20.910905 
L 72.979174 9.974972 
L 73.012054 24.629713 
L 73.077815 22.13887 
L 73.096604 20.263338 
L 73.105998 10.453854 
L 73.134181 24.86661 
L 73.204639 22.515587 
L 73.232822 20.555772 
L 73.242217 10.013827 
L 73.275097 25.007536 
L 73.340858 23.029727 
L 73.387829 20.267072 
L 73.397224 10.21326 
L 73.425407 25.09359 
L 73.495865 23.37152 
L 73.561625 20.598834 
L 73.57102 9.875806 
L 73.6039 25.146927 
L 73.664963 23.7102 
L 73.758907 20.236327 
L 73.768302 10.017935 
L 73.801182 25.147776 
L 73.866942 23.74023 
L 73.974978 20.589159 
L 73.984372 9.995728 
L 74.017252 25.145729 
L 74.078316 23.970967 
L 74.223929 20.486762 
L 74.233323 9.967905 
L 74.266203 25.089319 
L 74.327267 24.003997 
L 74.501063 20.227652 
L 74.510457 9.896829 
L 74.543337 25.083145 
L 74.604401 24.038876 
L 74.80638 20.473519 
L 74.815774 10.087431 
L 74.853352 25.039622 
L 74.909718 24.037464 
L 75.149275 18.892871 
L 75.158669 10.339388 
L 75.191549 25.023434 
L 75.25731 23.894189 
L 75.595507 20.679951 
L 75.609599 10.178985 
L 75.642479 24.926443 
L 75.694148 24.046699 
L 75.877339 22.570956 
L 76.084015 21.559475 
L 76.102804 18.735278 
L 76.112198 10.192877 
L 76.145078 24.906072 
L 76.210839 23.860409 
L 76.394029 22.676614 
L 76.469184 22.578168 
L 76.520853 22.613832 
L 76.534945 22.608448 
L 77.502565 25.127341 
L 77.554234 25.067035 
L 77.596509 25.24567 
L 77.793791 25.550262 
L 77.807883 25.491243 
L 77.81258 25.45421 
L 77.911221 25.540511 
L 78.103805 25.853833 
L 78.117897 25.827943 
L 78.399728 25.933609 
L 78.540644 26.072476 
L 78.545341 26.067694 
L 78.554735 26.048675 
L 78.606404 26.158087 
L 78.611102 26.146421 
L 78.756714 26.259373 
L 79.057334 26.719976 
L 79.179461 26.670192 
L 79.38144 26.687137 
L 79.555236 26.796808 
L 79.390835 26.667029 
L 79.559933 26.784912 
L 79.719638 26.663789 
L 79.729032 26.679782 
L 79.846462 26.737824 
L 79.785398 26.64834 
L 79.855856 26.724199 
L 80.137687 26.669212 
L 80.142385 26.682417 
L 80.25042 26.757085 
L 80.264511 26.71868 
L 80.358455 26.674598 
L 80.2833 26.723847 
L 80.372547 26.695058 
L 80.471188 26.729563 
L 80.480582 26.687274 
L 80.682561 26.647671 
L 80.70135 26.692893 
L 80.799991 26.70105 
L 80.738927 26.634401 
L 80.818779 26.652394 
L 80.898632 26.642354 
L 80.926815 26.67268 
L 81.175766 26.669154 
L 81.260315 26.63181 
L 81.236829 26.685911 
L 81.293195 26.642937 
L 81.358956 26.736891 
L 81.429414 26.67905 
L 81.434111 26.661198 
L 81.509266 26.765216 
L 81.523358 26.740452 
L 81.593815 26.648061 
L 81.598513 26.625666 
L 81.645484 26.723445 
L 81.692456 26.714218 
L 81.701851 26.692406 
L 81.823978 26.701915 
L 81.946104 26.625959 
L 81.950802 26.647916 
L 82.397034 26.694702 
L 82.415823 26.656614 
L 82.467492 26.728809 
L 82.50507 26.704458 
L 82.57083 26.71526 
L 82.547344 26.654029 
L 82.603711 26.663898 
L 82.763415 26.57633 
L 82.80569 26.626242 
L 82.885542 26.566158 
L 82.965394 26.677656 
L 83.007669 26.643475 
L 83.10631 26.558318 
L 83.143887 26.6132 
L 83.162676 26.631952 
L 83.219042 26.545739 
L 83.247225 26.570641 
L 83.308289 26.560254 
L 83.345866 26.613407 
L 83.425718 26.629253 
L 83.378746 26.592703 
L 83.453901 26.589651 
L 83.594817 26.415825 
L 83.599514 26.433553 
L 83.735733 26.517619 
L 84.055141 26.139534 
L 84.069233 26.166194 
L 84.097416 26.128163 
L 84.181965 26.159012 
L 84.275909 26.100754 
L 84.280606 26.071479 
L 84.449705 25.958235 
L 84.463797 25.990894 
L 84.473191 26.03004 
L 84.543649 25.907193 
L 84.55774 25.914244 
L 84.670473 25.962076 
L 84.689262 25.908728 
L 84.811389 25.830557 
L 85.220044 25.591795 
L 85.229438 25.614668 
L 85.27641 25.565815 
L 85.328079 25.565982 
L 85.351565 25.592119 
L 85.4596 25.531334 
L 85.548847 25.510994 
L 85.506572 25.444362 
L 85.558241 25.494307 
L 85.652185 25.464225 
L 85.670974 25.498941 
L 85.764918 25.521767 
L 85.779009 25.478047 
L 85.830678 25.547403 
L 85.891742 25.49523 
L 86.150087 25.385909 
L 86.154784 25.40838 
L 86.248728 25.337241 
L 86.253425 25.352045 
L 86.525862 25.245365 
L 86.530559 25.267733 
L 86.709052 25.231606 
L 86.713749 25.20222 
L 86.995581 24.985788 
L 87.000278 24.99283 
L 87.028461 24.929612 
L 87.127102 24.997294 
L 87.131799 24.976605 
L 87.164679 25.04469 
L 87.235137 25.020338 
L 87.305595 25.087543 
L 87.361961 25.020075 
L 87.437116 25.034819 
L 87.451208 25.079319 
L 87.53106 25.128019 
L 87.493482 25.066781 
L 87.56394 25.088942 
L 87.68137 24.904818 
L 87.700159 24.913288 
L 87.859863 24.70128 
L 87.892743 24.753332 
L 87.94911 24.795012 
L 87.98199 24.68117 
L 87.991384 24.708789 
L 88.540955 24.542952 
L 88.681871 24.366669 
L 88.771117 24.423887 
L 88.691265 24.354543 
L 88.7993 24.366747 
L 88.940216 24.210881 
L 89.081132 24.13698 
L 88.968399 24.237315 
L 89.090526 24.159203 
L 89.095223 24.172833 
L 89.156287 24.03541 
L 89.160984 24.034885 
L 89.320688 23.771371 
L 89.372357 23.710535 
L 89.405238 23.735098 
L 89.522667 23.551401 
L 89.536759 23.555964 
L 89.541456 23.560777 
L 89.583731 23.485275 
L 89.607217 23.482209 
L 89.790407 23.185069 
L 89.85147 23.089587 
L 90.015872 21.344863 
L 90.034661 9.279879 
L 90.067541 23.558766 
L 90.11921 21.967226 
L 90.137999 19.365516 
L 90.142696 10.450459 
L 90.175576 24.298864 
L 90.246034 21.320925 
L 90.260126 10.077887 
L 90.288309 24.640788 
L 90.344675 22.714341 
L 90.377555 20.078513 
L 90.38695 10.624834 
L 90.415133 24.884146 
L 90.485591 22.554897 
L 90.518471 18.071247 
L 90.523168 9.867232 
L 90.556048 25.012584 
L 90.626506 22.950613 
L 90.673478 19.601157 
L 90.678175 10.685803 
L 90.711056 25.121175 
L 90.781513 23.317029 
L 90.847274 20.030342 
L 90.856668 10.283162 
L 90.889549 25.157921 
L 90.955309 23.612232 
L 91.044556 19.940037 
L 91.05395 10.227259 
L 91.086831 25.164775 
L 91.152591 23.782234 
L 91.270021 18.581533 
L 91.274718 10.296521 
L 91.307598 25.109074 
L 91.378056 23.812184 
L 91.514275 20.339989 
L 91.523669 9.934927 
L 91.556549 25.086417 
L 91.617613 24.000899 
L 91.786712 18.959117 
L 91.796106 10.560245 
L 91.828986 25.065078 
L 91.894747 23.894273 
L 92.096726 19.103433 
L 92.10612 10.322989 
L 92.139001 25.050258 
L 92.204761 23.875376 
L 92.439621 19.99967 
L 92.449015 9.854632 
L 92.481895 25.01765 
L 92.547656 23.889681 
L 92.754332 22.200296 
L 92.801304 21.712064 
L 92.82479 19.715062 
L 92.834184 9.897798 
L 92.867065 24.970485 
L 92.932825 23.878374 
L 93.162987 22.478451 
L 93.261628 22.320268 
L 93.303903 22.377615 
L 93.322692 22.359411 
L 93.440121 22.724706 
L 94.201066 25.287405 
L 94.233946 25.244966 
L 94.299707 25.35561 
L 94.365467 25.420271 
L 94.370164 25.438666 
L 94.562749 25.813857 
L 94.609721 25.790372 
L 94.614418 25.786366 
L 94.670784 25.882721 
L 94.760031 25.966317 
L 94.821094 26.045374 
L 94.882158 26.006653 
L 95.093531 26.171446 
L 95.107623 26.138956 
L 95.192172 26.130308 
L 95.206264 26.171342 
L 95.225053 26.159137 
L 95.328391 26.202007 
L 95.478701 26.345706 
L 95.516278 26.319634 
L 95.59613 26.427641 
L 95.629011 26.417532 
L 95.675982 26.549521 
L 95.868567 26.701276 
L 95.901447 26.676299 
L 96.028272 26.662321 
L 96.117518 26.766399 
L 96.159793 26.744186 
L 96.305406 26.660799 
L 96.408744 26.767222 
L 96.43223 26.723232 
L 96.554356 26.702642 
L 96.559054 26.730489 
L 96.761033 26.722 
L 96.854976 26.723942 
L 96.803307 26.683413 
L 96.864371 26.690803 
L 98.78552 26.61835 
L 98.809006 26.582777 
L 98.865373 26.686871 
L 98.884161 26.678567 
L 98.940528 26.740859 
L 98.996894 26.711113 
L 99.001591 26.718979 
L 99.025077 26.660086 
L 99.08614 26.652488 
L 99.151901 26.59132 
L 99.194176 26.678298 
L 99.264633 26.720762 
L 99.302211 26.653327 
L 99.50419 26.63195 
L 99.574648 26.614182 
L 99.53707 26.653882 
L 99.602831 26.663025 
L 99.645106 26.641575 
L 99.724958 26.668264 
L 100.002092 26.534973 
L 100.298015 26.46176 
L 100.316803 26.429916 
L 100.396656 26.510822 
L 100.401353 26.524994 
L 100.467113 26.396365 
L 100.481205 26.413686 
L 100.509388 26.458414 
L 100.603332 26.381569 
L 100.640909 26.460991 
L 100.701973 26.339707 
L 100.828797 26.279472 
L 100.720761 26.354485 
L 100.838191 26.30477 
L 100.866374 26.261397 
L 100.97441 26.279467 
L 100.993198 26.252505 
L 101.04017 26.31518 
L 101.087142 26.27843 
L 101.162297 26.366306 
L 101.199875 26.275941 
L 101.279727 26.148732 
L 101.378368 26.047614 
L 101.406551 26.109909 
L 101.556861 26.169224 
L 101.566255 26.161694 
L 101.599135 26.127799 
L 101.67429 26.160882 
L 101.805812 26.20236 
L 101.895058 26.131714 
L 101.923241 26.147456 
L 102.585545 26.013816 
L 102.641911 25.977376 
L 102.698277 26.00119 
L 102.721763 26.057096 
L 102.820404 26.021625 
L 102.966017 25.893381 
L 102.862679 26.040982 
L 102.975411 25.896424 
L 102.989503 25.859525 
L 103.069355 25.956555 
L 103.11163 25.914854 
L 103.167996 26.022944 
L 103.290123 25.982383 
L 103.17739 26.004132 
L 103.29482 25.967806 
L 103.459222 25.879622 
L 103.47801 25.901683 
L 103.506193 25.909952 
L 103.548468 25.792315 
L 103.675292 25.65182 
L 103.679989 25.681716 
L 103.736356 25.570127 
L 103.769236 25.569967 
L 103.89606 25.478289 
L 103.905454 25.484043 
L 103.943032 25.548833 
L 104.018187 25.483095 
L 104.022884 25.47529 
L 104.04637 25.545931 
L 104.102736 25.55032 
L 104.177891 25.535396 
L 104.191983 25.494387 
L 104.257743 25.41245 
L 104.285927 25.523552 
L 104.295321 25.517865 
L 104.417448 25.581755 
L 104.450328 25.588189 
L 104.492603 25.523 
L 104.511392 25.537952 
L 104.671096 25.353611 
L 104.793223 25.283248 
L 105.164301 25.033182 
L 105.168998 25.049711 
L 105.258244 25.086287 
L 105.28173 25.066679 
L 105.305216 25.080794 
L 105.408554 25.023981 
L 105.540076 25.213283 
L 105.727963 25.021107 
L 105.73266 25.025394 
L 105.835998 25.003413 
L 105.760843 24.978046 
L 105.840695 25.001054 
L 106.009794 24.893291 
L 106.014491 24.898045 
L 106.136618 24.959914 
L 106.141315 24.956172 
L 106.192985 24.906298 
L 106.263442 24.961759 
L 106.371478 24.948417 
L 106.376175 24.929142 
L 106.48421 24.878342 
L 106.498302 24.891753 
L 106.51709 24.921694 
L 106.578154 24.834261 
L 106.662703 24.873049 
L 106.704978 24.73688 
L 106.803619 24.784626 
L 106.737858 24.692903 
L 106.81771 24.737913 
L 106.944534 24.626317 
L 106.953929 24.650982 
L 107.057267 24.531646 
L 107.212274 24.276468 
L 107.639718 24.054125 
L 107.841697 23.803611 
L 107.855789 23.812261 
L 107.893366 23.795089 
L 107.874578 23.781114 
L 107.916852 23.724995 
L 108.057768 23.320951 
L 108.100043 23.361079 
L 108.10474 23.367247 
L 108.151712 23.250945 
L 108.156409 23.253983 
L 108.414754 21.559661 
L 108.428846 18.62499 
L 108.43824 9.576433 
L 108.47112 23.531197 
L 108.536881 20.578428 
L 108.546275 10.116256 
L 108.574458 24.257184 
L 108.644916 21.390967 
L 108.659008 9.980551 
L 108.687191 24.591665 
L 108.743557 22.643603 
L 108.776437 17.92598 
L 108.781135 9.928048 
L 108.814015 24.824479 
L 108.884473 22.343088 
L 108.907959 20.476973 
L 108.917353 10.120485 
L 108.945536 25.00431 
L 109.015994 22.944394 
L 109.062966 18.000689 
L 109.067663 9.875362 
L 109.100543 25.097626 
L 109.171001 23.211403 
L 109.232065 19.368475 
L 109.236762 10.527191 
L 109.269642 25.141931 
L 109.3401 23.509446 
L 109.419952 20.620482 
L 109.429346 9.891509 
L 109.462227 25.164523 
L 109.52329 23.879038 
L 109.636023 20.232953 
L 109.645417 9.938683 
L 109.678297 25.151711 
L 109.744058 23.863111 
L 109.880276 19.255018 
L 109.889671 10.519672 
L 109.917854 25.105714 
L 109.988312 23.861253 
L 110.138622 20.383083 
L 110.148016 9.973485 
L 110.180896 25.08636 
L 110.24196 24.004993 
L 110.429847 20.8882 
L 110.443939 10.030648 
L 110.476819 25.066796 
L 110.523791 24.21072 
L 110.753953 20.787577 
L 110.768045 10.185456 
L 110.800925 25.039203 
L 110.852594 24.113405 
L 111.129728 20.112623 
L 111.139123 9.821291 
L 111.172003 24.965842 
L 111.233066 23.997163 
L 111.439743 22.417861 
L 111.585355 21.125988 
L 111.604144 10.415688 
L 111.637024 24.943412 
L 111.665208 24.427542 
L 111.871884 22.654083 
L 111.885975 22.672608 
L 111.909461 22.559606 
L 111.918856 22.553631 
L 111.979919 22.49082 
L 112.026891 22.563537 
L 113.111941 25.506908 
L 113.116638 25.492244 
L 113.149519 25.574771 
L 113.28104 25.733089 
L 113.332709 25.829082 
L 113.478322 26.04267 
L 113.483019 26.035096 
L 113.529991 26.170158 
L 113.534688 26.161919 
L 113.642723 26.156536 
L 113.562871 26.136016 
L 113.647421 26.147873 
L 113.727273 26.24236 
L 113.727273 26.24236 
" style="fill:none;stroke:#000000;stroke-linecap:square;stroke-width:0.3;"/>
   </g>
   <g id="line2d_2">
    <path clip-path="url(#p57b99775e0)" d="M 12.272727 46.651674 
L 12.460615 47.469402 
L 12.521678 47.413829 
L 12.559256 47.499551 
L 12.587439 47.599282 
L 12.676685 47.583628 
L 12.71896 47.516804 
L 12.75184 47.618311 
L 12.789418 47.575326 
L 13.456418 47.544661 
L 13.531573 47.451257 
L 13.569151 47.511211 
L 13.672489 47.574642 
L 13.686581 47.557558 
L 13.780524 47.515531 
L 13.80401 47.585577 
L 13.832193 47.623199 
L 13.907348 47.569322 
L 13.977806 47.484028 
L 14.024778 47.542584 
L 14.10463 47.602983 
L 14.146905 47.578082 
L 14.273729 47.514595 
L 14.278426 47.521548 
L 14.381764 47.562858 
L 14.395856 47.545903 
L 14.424039 47.568426 
L 14.452222 47.478196 
L 14.485102 47.487832 
L 14.513286 47.45655 
L 14.574349 47.599162 
L 14.687081 47.5829 
L 14.696476 47.556062 
L 14.766934 47.436158 
L 14.710567 47.568335 
L 14.837391 47.54703 
L 14.884363 47.59813 
L 14.85618 47.54 
L 14.950124 47.545294 
L 15.034673 47.452918 
L 15.062856 47.540743 
L 15.105131 47.594313 
L 15.152103 47.507084 
L 15.175589 47.53835 
L 15.236652 47.429952 
L 15.297716 47.479207 
L 15.358779 47.597749 
L 15.419843 47.564039 
L 15.57485 47.465169 
L 15.593639 47.521758 
L 15.687582 47.576439 
L 15.711068 47.550968 
L 15.837892 47.378029 
L 15.861378 47.456878 
L 16.049266 47.538374 
L 16.053963 47.530044 
L 16.129118 47.531408 
L 16.143209 47.583797 
L 16.161998 47.604415 
L 16.223062 47.52238 
L 16.246548 47.552704 
L 16.401555 47.388624 
L 16.406252 47.423001 
L 16.486104 47.575441 
L 16.533076 47.554389 
L 16.608231 47.486773 
L 16.645809 47.409361 
L 16.702175 47.54937 
L 16.706872 47.545219 
L 16.77733 47.600318 
L 16.805513 47.513605 
L 16.81021 47.521275 
L 16.922943 47.466854 
L 16.824302 47.55139 
L 16.932337 47.484021 
L 16.998098 47.570988 
L 17.054464 47.53286 
L 17.101436 47.563005 
L 17.190682 47.434663 
L 17.298718 47.58688 
L 17.326901 47.55847 
L 17.505394 47.454858 
L 17.538274 47.572357 
L 17.651007 47.60437 
L 17.665098 47.550899 
L 17.787225 47.463378 
L 17.791922 47.465238 
L 17.801317 47.44307 
L 17.876472 47.596585 
L 18.064359 47.406233 
L 18.078451 47.435657 
L 18.181789 47.599167 
L 18.233458 47.556113 
L 18.341493 47.42402 
L 18.360282 47.449071 
L 18.79712 47.495794 
L 18.933339 47.377875 
L 18.938036 47.419026 
L 18.980311 47.567685 
L 19.06486 47.512723 
L 19.102437 47.503866 
L 19.121226 47.439421 
L 19.149409 47.445234 
L 19.224564 47.322455 
L 19.252747 47.467294 
L 19.299719 47.598818 
L 19.370177 47.552412 
L 19.51579 47.374136 
L 19.384269 47.57427 
L 19.54867 47.519603 
L 19.614431 47.551364 
L 19.652008 47.478133 
L 19.764741 47.412409 
L 19.774135 47.426601 
L 19.853987 47.538077 
L 19.910354 47.512288 
L 20.055966 47.504977 
L 20.065361 47.462215 
L 20.11703 47.382049 
L 20.14991 47.525093 
L 20.173396 47.567553 
L 20.257945 47.523229 
L 20.328403 47.443988 
L 20.408255 47.396876 
L 20.436439 47.444342 
L 20.539777 47.581963 
L 20.56796 47.535869 
L 20.647812 47.506257 
L 20.596143 47.50857 
L 20.661904 47.474331 
L 20.727664 47.396169 
L 20.769939 47.490408 
L 20.816911 47.55053 
L 20.882671 47.530705 
L 21.004798 47.4569 
L 21.08465 47.355036 
L 21.112834 47.507818 
L 21.141017 47.574827 
L 21.206777 47.463025 
L 21.211474 47.462852 
L 21.244355 47.508289 
L 21.366482 47.393296 
L 21.483911 47.573231 
L 21.408756 47.373312 
L 21.516792 47.54394 
L 21.911355 47.267322 
L 22.160306 47.589132 
L 21.972419 47.226416 
L 22.165003 47.583204 
L 22.263644 47.564313 
L 22.188489 47.620802 
L 22.282433 47.579033 
L 22.780335 47.578212 
L 22.836701 47.624018 
L 22.874279 47.532661 
L 22.883673 47.553506 
L 23.151413 47.57915 
L 23.250054 47.618643 
L 23.278237 47.563443 
L 23.329906 47.473802 
L 23.372181 47.597967 
L 23.381575 47.593176 
L 23.588251 47.473064 
L 23.602343 47.519479 
L 23.658709 47.56552 
L 23.668103 47.590725 
L 23.75735 47.522507 
L 23.87478 47.512217 
L 23.898265 47.58626 
L 24.006301 47.521093 
L 24.020392 47.540079 
L 24.1754 47.41294 
L 24.227069 47.614475 
L 24.297526 47.553255 
L 24.42435 47.463912 
L 24.551175 47.553666 
L 24.65921 47.579631 
L 24.593449 47.518563 
L 24.663907 47.574178 
L 24.8424 47.349229 
L 24.851794 47.360963 
L 24.903464 47.405484 
L 24.908161 47.451226 
L 25.030288 47.587187 
L 25.138323 47.464684 
L 25.161809 47.496047 
L 25.166506 47.507913 
L 25.222872 47.39474 
L 25.232267 47.403908 
L 25.269844 47.350016 
L 25.335605 47.408928 
L 25.377879 47.586152 
L 25.457732 47.541911 
L 25.56107 47.48132 
L 25.979119 47.18761 
L 25.993211 47.204246 
L 26.035486 47.287917 
L 26.101246 47.212244 
L 26.242162 46.974182 
L 26.246859 46.985146 
L 26.293831 46.827343 
L 26.650817 46.285509 
L 26.674303 46.312333 
L 26.711881 46.205325 
L 26.721275 46.200233 
L 26.758852 46.173056 
L 26.782338 46.104753 
L 26.918557 45.833856 
L 26.923254 45.836121 
L 26.927951 45.84587 
L 26.974923 45.700862 
L 26.97962 45.700677 
L 26.998409 45.715938 
L 27.172205 45.359426 
L 27.186297 45.371955 
L 27.233268 45.253288 
L 27.242663 45.268582 
L 27.411761 44.953972 
L 27.843903 43.896561 
L 27.99891 42.049342 
L 28.017699 32.117514 
L 28.045882 45.831747 
L 28.088156 44.068408 
L 28.125734 37.817391 
L 28.130431 31.689086 
L 28.153917 46.04334 
L 28.238466 32.993052 
L 28.261952 45.82903 
L 28.337107 32.744656 
L 28.360593 45.730689 
L 28.426354 40.848797 
L 28.435748 33.939372 
L 28.454537 45.702617 
L 28.539086 38.29219 
L 28.656516 45.938693 
L 28.63303 32.874914 
L 28.661213 45.864044 
L 28.736368 40.486501 
L 28.741065 33.698005 
L 28.769249 46.051791 
L 28.844404 42.340809 
L 28.863192 33.551361 
L 28.886678 46.216812 
L 28.93365 44.399304 
L 28.985319 39.783234 
L 28.990016 33.092991 
L 29.018199 46.314097 
L 29.093354 43.490798 
L 29.130932 36.487719 
L 29.135629 32.940565 
L 29.159115 46.488175 
L 29.229573 44.336812 
L 29.290636 40.250807 
L 29.300031 33.825525 
L 29.323517 46.557242 
L 29.393974 44.695843 
L 29.478524 39.465772 
L 29.483221 33.762456 
L 29.511404 46.573553 
L 29.581862 44.92702 
L 29.6852 38.969835 
L 29.689897 33.743603 
L 29.71808 46.640446 
L 29.788538 45.201729 
L 29.920059 39.510179 
L 29.929454 34.269565 
L 29.957637 46.719601 
L 30.023398 45.513458 
L 30.187799 41.204109 
L 30.201891 34.384357 
L 30.234771 46.71969 
L 30.28644 45.83308 
L 30.502511 40.564031 
L 30.511905 33.845655 
L 30.544785 46.797232 
L 30.605849 45.898354 
L 30.88768 41.30473 
L 30.901772 34.054704 
L 30.934652 46.852776 
L 30.976927 46.361553 
L 31.230575 43.51979 
L 31.380885 43.272982 
L 31.418462 43.355709 
L 32.254561 47.3432 
L 32.386083 47.625409 
L 32.461238 47.605212 
L 32.414266 47.662689 
L 32.498815 47.632819 
L 32.846407 47.609581 
L 32.902773 47.529803 
L 32.949745 47.581633 
L 32.95914 47.561682 
L 32.982625 47.622995 
L 33.043689 47.628274 
L 33.081266 47.621589 
L 33.114147 47.538649 
L 33.161119 47.492491 
L 33.198696 47.628213 
L 33.212788 47.606227 
L 33.236274 47.658926 
L 33.306731 47.541017 
L 34.039493 47.459321 
L 34.053584 47.442598 
L 34.114648 47.590759 
L 34.119345 47.575063 
L 34.22738 47.600467 
L 34.138133 47.548382 
L 34.246169 47.564361 
L 34.283746 47.45262 
L 34.354204 47.57444 
L 34.37769 47.624166 
L 34.462239 47.561858 
L 34.668916 47.572082 
L 34.687704 47.58261 
L 34.739373 47.50538 
L 34.758162 47.516785 
L 34.819226 47.452811 
L 34.847409 47.552597 
L 34.852106 47.549896 
L 34.856803 47.580394 
L 34.950747 47.527986 
L 34.960141 47.546089 
L 35.068177 47.415304 
L 35.091662 47.471413 
L 35.195001 47.588545 
L 35.209092 47.550724 
L 35.354705 47.460373 
L 35.392282 47.575443 
L 35.443952 47.601053 
L 35.401677 47.572437 
L 35.505015 47.573346 
L 35.627142 47.433476 
L 35.650628 47.521915 
L 35.702297 47.604582 
L 35.768057 47.523403 
L 35.885487 47.423563 
L 35.791543 47.543506 
L 35.908973 47.469775 
L 36.129741 47.57178 
L 36.14853 47.514825 
L 36.167318 47.468073 
L 36.21429 47.576427 
L 36.242473 47.575448 
L 36.270656 47.607574 
L 36.336417 47.530023 
L 36.458544 47.394559 
L 36.3646 47.561333 
L 36.48203 47.425029 
L 36.491424 47.426688 
L 36.510213 47.517475 
L 36.547791 47.586277 
L 36.618248 47.515304 
L 36.63234 47.541697 
L 36.792044 47.444226 
L 36.918868 47.55659 
L 37.08327 47.426155 
L 37.087967 47.40627 
L 37.153728 47.597446 
L 37.158425 47.617763 
L 37.224185 47.518883 
L 37.247671 47.531192 
L 37.928764 47.319162 
L 38.046193 47.229 
L 38.064982 47.234672 
L 38.191806 47.176686 
L 38.219989 47.130045 
L 38.248172 47.408834 
L 38.328024 47.600727 
L 38.370299 47.563967 
L 38.487729 47.561257 
L 38.506518 47.601702 
L 38.600461 47.626726 
L 38.544095 47.554327 
L 38.633342 47.601404 
L 39.225187 47.517222 
L 39.243976 47.50368 
L 39.272159 47.606172 
L 39.290948 47.613967 
L 39.309737 47.62889 
L 39.347314 47.551617 
L 39.380194 47.545042 
L 39.464744 47.499481 
L 39.492927 47.576607 
L 39.544596 47.595615 
L 39.591568 47.544386 
L 39.676117 47.485626 
L 39.624448 47.555513 
L 39.7043 47.529119 
L 39.793547 47.644854 
L 39.718392 47.522302 
L 39.840519 47.565778 
L 40.75647 47.625118 
L 40.803442 47.539244 
L 40.925569 47.419751 
L 40.934963 47.428749 
L 40.949055 47.448423 
L 40.972541 47.3626 
L 41.038301 47.398688 
L 41.104062 47.546045 
L 41.183914 47.574018 
L 41.169823 47.522856 
L 41.212097 47.53229 
L 41.334224 47.435112 
L 41.268464 47.548006 
L 41.343619 47.439985 
L 41.578478 47.401712 
L 41.69121 47.608503 
L 41.597267 47.371433 
L 41.77576 47.530463 
L 42.005922 47.321528 
L 42.07638 47.376009 
L 42.029408 47.266594 
L 42.10926 47.318359 
L 42.198507 47.22166 
L 42.22669 47.246489 
L 42.621254 46.783109 
L 42.903085 46.199024 
L 42.917176 46.230155 
L 43.072183 46.065535 
L 43.231888 45.795852 
L 43.457353 45.297767 
L 43.480839 45.324424 
L 43.485536 45.33178 
L 43.551297 45.237732 
L 43.555994 45.243177 
L 43.739184 44.988061 
L 43.748578 45.002338 
L 43.856614 44.951658 
L 43.997529 44.748003 
L 44.077382 44.70747 
L 44.039804 44.690472 
L 44.082079 44.695769 
L 44.302847 44.10869 
L 44.345121 44.095647 
L 44.33103 44.054568 
L 44.359213 44.028435 
L 44.509523 43.023955 
L 44.551797 41.070519 
L 44.561192 32.551821 
L 44.589375 46.057763 
L 44.655136 43.397641 
L 44.678621 41.054892 
L 44.688016 32.185437 
L 44.711502 46.212692 
L 44.786657 42.446175 
L 44.913481 32.945602 
L 44.828931 46.037346 
L 44.918178 37.156068 
L 44.936967 46.000741 
L 45.021516 32.714094 
L 45.040305 45.796525 
L 45.045002 46.00012 
L 45.096671 43.528693 
L 45.124854 40.158983 
L 45.129551 33.032483 
L 45.153037 46.063919 
L 45.23289 42.187667 
L 45.246981 32.71168 
L 45.270467 46.151599 
L 45.331531 43.635173 
L 45.364411 40.577135 
L 45.373805 33.844901 
L 45.397291 46.301415 
L 45.472446 43.246827 
L 45.500629 39.853676 
L 45.505326 33.09897 
L 45.53351 46.417427 
L 45.608665 43.70859 
L 45.650939 39.227855 
L 45.655636 32.958484 
L 45.68382 46.507577 
L 45.754277 44.322482 
L 45.815341 40.256377 
L 45.824735 33.762935 
L 45.848221 46.626057 
L 45.918679 44.816256 
L 46.003228 40.724832 
L 46.012623 33.201459 
L 46.040806 46.641485 
L 46.106566 45.114867 
L 46.214602 40.514731 
L 46.223996 33.490539 
L 46.252179 46.65558 
L 46.31794 45.295549 
L 46.449461 40.731369 
L 46.458855 33.494182 
L 46.491736 46.686158 
L 46.552799 45.53699 
L 46.712504 41.198089 
L 46.721898 34.366163 
L 46.754778 46.779303 
L 46.811144 45.876068 
L 47.027215 41.351023 
L 47.041307 33.935994 
L 47.074187 46.784507 
L 47.116462 46.179291 
L 47.388898 41.178787 
L 47.40299 34.162446 
L 47.43587 46.895979 
L 47.482842 46.247629 
L 47.877406 42.840594 
L 48.046505 43.365038 
L 48.309547 44.337766 
L 48.314244 44.329737 
L 48.370611 44.530829 
L 49.126858 47.641376 
L 49.155041 47.632552 
L 49.281865 47.589038 
L 49.216104 47.664022 
L 49.286562 47.598061 
L 50.667535 47.654888 
L 50.672232 47.672115 
L 50.737993 47.49581 
L 50.897697 47.553906 
L 50.902394 47.548818 
L 51.578789 47.599956 
L 51.592881 47.613491 
L 51.635156 47.544371 
L 51.663339 47.547695 
L 51.705613 47.584351 
L 51.79486 47.415531 
L 51.855923 47.590872 
L 51.94517 47.509054 
L 52.0626 47.462107 
L 52.067297 47.448856 
L 52.118966 47.584064 
L 52.142452 47.566956 
L 52.339734 47.461797 
L 52.499438 47.521301 
L 52.518227 47.469653 
L 52.532318 47.448354 
L 52.602776 47.518807 
L 52.621565 47.494324 
L 52.743692 47.559972 
L 52.889305 47.363145 
L 52.903396 47.406122 
L 52.959762 47.583815 
L 53.03022 47.550225 
L 53.175833 47.391013 
L 53.208713 47.567091 
L 53.279171 47.584969 
L 53.321446 47.526703 
L 53.443573 47.414829 
L 53.457664 47.439812 
L 53.607974 47.556401 
L 53.471756 47.418468 
L 53.612671 47.549989 
L 53.744193 47.405609 
L 53.78177 47.471533 
L 53.861622 47.597524 
L 53.908594 47.52222 
L 54.035418 47.442174 
L 54.068299 47.364157 
L 54.124665 47.576438 
L 54.129362 47.567748 
L 54.38301 47.392236 
L 54.387707 47.40033 
L 54.481651 47.566442 
L 54.509834 47.495234 
L 54.678933 47.389745 
L 54.523926 47.520643 
L 54.68363 47.407355 
L 54.693025 47.379876 
L 54.909095 47.51707 
L 55.035919 47.369494 
L 55.045314 47.381645 
L 55.068799 47.477746 
L 55.106377 47.570455 
L 55.195624 47.524762 
L 55.242595 47.548854 
L 55.331842 47.412794 
L 55.599582 47.335478 
L 55.726406 47.228577 
L 55.731103 47.234625 
L 55.749892 47.174061 
L 55.820349 47.172237 
L 55.834441 47.157654 
L 55.867321 47.280004 
L 55.970659 47.635903 
L 55.994145 47.593975 
L 56.120969 47.58895 
L 56.130364 47.624243 
L 56.196124 47.625046 
L 56.15385 47.591605 
L 56.224308 47.584798 
L 56.318251 47.646094 
L 56.332343 47.574729 
L 56.346434 47.619111 
L 56.398103 47.561175 
L 56.440378 47.573785 
L 56.679935 47.543139 
L 56.694026 47.499585 
L 56.764484 47.626677 
L 56.778576 47.611274 
L 56.783273 47.625432 
L 56.867822 47.542599 
L 56.872519 47.567266 
L 56.957069 47.515141 
L 56.9054 47.581472 
L 56.985252 47.575743 
L 57.079196 47.586617 
L 57.093287 47.555467 
L 57.173139 47.505961 
L 57.201322 47.571902 
L 57.243597 47.621915 
L 57.309358 47.545722 
L 57.375118 47.537321 
L 57.332844 47.52258 
L 57.403301 47.504629 
L 57.412696 47.44291 
L 57.501942 47.61688 
L 57.72271 47.485401 
L 57.727407 47.529913 
L 57.755591 47.606026 
L 57.84014 47.556305 
L 58.051513 47.446373 
L 58.060908 47.511806 
L 58.150154 47.606051 
L 58.183035 47.541197 
L 58.197126 47.550319 
L 58.342739 47.43007 
L 58.35683 47.416906 
L 58.516535 47.613765 
L 58.680936 47.46647 
L 58.690331 47.486593 
L 58.803063 47.364515 
L 58.821852 47.491485 
L 58.873521 47.594941 
L 58.939282 47.536288 
L 59.005042 47.549703 
L 58.953373 47.522796 
L 59.047317 47.490287 
L 59.338543 47.387718 
L 59.362029 47.481294 
L 59.418395 47.601152 
L 59.484155 47.549956 
L 59.625071 47.459146 
L 59.629768 47.483846 
L 59.714318 47.355357 
L 59.737804 47.388094 
L 59.925691 47.197783 
L 59.949177 47.253604 
L 59.996149 47.114173 
L 60.024332 47.197341 
L 60.315558 46.794061 
L 60.470565 46.634058 
L 60.475262 46.641611 
L 60.522234 46.549609 
L 60.54572 46.552848 
L 60.747699 46.196773 
L 60.76179 46.207538 
L 60.766488 46.231412 
L 60.855734 46.115113 
L 61.006044 45.781318 
L 61.015438 45.791766 
L 61.034227 45.838254 
L 61.099988 45.702229 
L 61.104685 45.703434 
L 61.269087 45.372277 
L 61.273784 45.374839 
L 61.278481 45.389353 
L 61.334847 45.205144 
L 61.485157 45.038364 
L 61.348939 45.224103 
L 61.499249 45.044129 
L 61.518037 45.058736 
L 61.926693 44.117189 
L 62.156855 41.68123 
L 62.170946 32.247986 
L 62.19913 45.864384 
L 62.260193 43.114347 
L 62.278982 40.54711 
L 62.283679 32.740198 
L 62.311862 46.074923 
L 62.391714 35.837612 
L 62.396411 32.739337 
L 62.419897 45.878777 
L 62.49975 34.053614 
L 62.59839 33.337445 
L 62.621876 45.801566 
L 62.692334 40.24546 
L 62.720517 45.891115 
L 62.805067 32.890874 
L 62.828553 46.006705 
L 62.913102 38.502409 
L 62.917799 32.713606 
L 62.941285 46.159599 
L 63.01644 42.789406 
L 63.035229 39.124178 
L 63.039926 32.660666 
L 63.063412 46.288739 
L 63.143264 43.188666 
L 63.171447 39.138261 
L 63.176145 32.792205 
L 63.204328 46.409599 
L 63.274785 43.93117 
L 63.321757 39.823056 
L 63.326455 33.308019 
L 63.354638 46.55247 
L 63.425095 44.450725 
L 63.490856 41.187927 
L 63.50025 33.011634 
L 63.528434 46.587931 
L 63.594194 44.867752 
L 63.683441 40.426412 
L 63.692835 33.493258 
L 63.721018 46.657775 
L 63.786779 45.157798 
L 63.904209 40.205187 
L 63.913603 33.80333 
L 63.941786 46.634622 
L 64.007547 45.265536 
L 64.148462 38.660857 
L 64.153159 33.884775 
L 64.18604 46.718117 
L 64.2518 45.479033 
L 64.420899 40.884814 
L 64.430293 33.818144 
L 64.463174 46.771976 
L 64.51954 45.8912 
L 64.745005 40.902605 
L 64.754399 34.096458 
L 64.791977 46.841926 
L 64.843646 46.044271 
L 65.167752 39.796556 
L 65.177146 34.133347 
L 65.214724 46.910755 
L 65.27109 46.158765 
L 65.548224 43.434077 
L 65.599893 43.345913 
L 65.670351 43.42455 
L 65.806569 43.866286 
L 66.107189 44.953339 
L 66.187041 45.26726 
L 66.661457 47.644833 
L 66.666155 47.625001 
L 66.783584 47.573258 
L 66.938591 47.57542 
L 67.065415 47.599962 
L 67.243909 47.598524 
L 67.079507 47.56097 
L 67.253303 47.578309 
L 67.323761 47.534862 
L 67.272092 47.595728 
L 67.370733 47.572559 
L 67.478768 47.582208 
L 67.483465 47.561667 
L 67.530437 47.505767 
L 67.572712 47.596302 
L 67.586803 47.598962 
L 67.755902 47.530318 
L 67.610289 47.624776 
L 67.760599 47.545037 
L 67.845149 47.595962 
L 67.868634 47.530773 
L 68.028339 47.628124 
L 68.04243 47.612732 
L 68.202135 47.41717 
L 68.051825 47.618917 
L 68.211529 47.454127 
L 68.300776 47.606643 
L 68.361839 47.545338 
L 68.765797 47.52212 
L 68.789283 47.570025 
L 68.869135 47.487524 
L 68.972473 47.549345 
L 68.977171 47.57368 
L 69.080509 47.566161 
L 69.099298 47.535739 
L 69.193241 47.449709 
L 69.136875 47.557831 
L 69.226122 47.523571 
L 69.32946 47.575317 
L 69.348248 47.569773 
L 69.766298 47.463184 
L 69.785087 47.516411 
L 69.902517 47.567501 
L 69.916608 47.535044 
L 70.015249 47.42393 
L 70.034038 47.457656 
L 70.076312 47.573467 
L 70.14677 47.501876 
L 70.287686 47.446008 
L 70.29708 47.408593 
L 70.348749 47.568028 
L 70.38163 47.554445 
L 70.550728 47.44428 
L 70.668158 47.576092 
L 70.705736 47.54905 
L 70.846651 47.451077 
L 70.856046 47.436505 
L 70.926503 47.54893 
L 71.04863 47.465023 
L 71.175454 47.422481 
L 71.058025 47.475132 
L 71.180151 47.431956 
L 71.217729 47.567914 
L 71.297581 47.532866 
L 71.429102 47.41953 
L 71.53244 47.555103 
L 71.480771 47.356839 
L 71.560624 47.528013 
L 71.663962 47.489799 
L 71.607595 47.609565 
L 71.68275 47.517238 
L 71.748511 47.438922 
L 71.80018 47.54126 
L 71.91761 47.452668 
L 71.828363 47.580564 
L 71.936399 47.519435 
L 72.006856 47.4677 
L 71.945793 47.498097 
L 72.016251 47.439853 
L 72.152469 47.380188 
L 72.058525 47.478445 
L 72.161864 47.414094 
L 72.246413 47.590092 
L 72.28399 47.536427 
L 72.532941 47.366327 
L 72.636279 47.374276 
L 72.589308 47.283274 
L 72.645674 47.356411 
L 72.720829 47.306032 
L 72.753709 47.365593 
L 72.833561 47.620729 
L 72.880533 47.585834 
L 73.744816 47.527644 
L 73.749513 47.500447 
L 73.805879 47.641397 
L 73.843457 47.592299 
L 73.951492 47.59716 
L 73.90452 47.49577 
L 73.960886 47.575888 
L 73.974978 47.52911 
L 74.017252 47.640597 
L 74.068922 47.566251 
L 74.153471 47.564583 
L 74.111196 47.52647 
L 74.167562 47.513338 
L 74.341358 47.60452 
L 74.346056 47.58015 
L 74.491668 47.462785 
L 74.510457 47.516307 
L 74.599704 47.623309 
L 74.646676 47.572066 
L 74.7735 47.491519 
L 74.811077 47.439846 
L 74.848655 47.596079 
L 75.045936 47.484224 
L 75.144577 47.43741 
L 75.158669 47.470819 
L 75.243218 47.586061 
L 75.280796 47.552911 
L 75.534444 47.39896 
L 75.670662 47.595147 
L 75.581416 47.386491 
L 75.67536 47.580664 
L 75.919613 47.434468 
L 75.980677 47.398602 
L 76.018254 47.465076 
L 76.022951 47.459923 
L 76.229628 47.554262 
L 76.032346 47.445273 
L 76.234325 47.548956 
L 76.408121 47.386929 
L 76.469184 47.452477 
L 76.516156 47.362612 
L 76.628889 47.33408 
L 76.755713 47.24062 
L 76.901325 47.113355 
L 76.769804 47.251865 
L 76.906023 47.115688 
L 77.051635 46.90294 
L 77.178459 46.806466 
L 78.423214 44.697938 
L 78.89763 42.43432 
L 78.916419 39.811707 
L 78.925813 32.392771 
L 78.953996 45.842658 
L 79.024454 42.190602 
L 79.038546 31.748922 
L 79.062031 46.090085 
L 79.151278 35.293118 
L 79.170067 45.920941 
L 79.249919 32.549797 
L 79.273405 45.817853 
L 79.339166 41.794218 
L 79.451898 32.68256 
L 79.372046 45.826229 
L 79.456595 35.880063 
L 79.475384 45.911532 
L 79.559933 33.101419 
L 79.578722 45.890083 
L 79.583419 46.025349 
L 79.625694 44.163798 
L 79.667969 38.501717 
L 79.672666 32.654954 
L 79.696152 46.185131 
L 79.771307 42.898401 
L 79.790096 40.841836 
L 79.79949 33.418312 
L 79.822976 46.28463 
L 79.898131 43.27946 
L 79.926314 40.599838 
L 79.935708 33.642435 
L 79.959194 46.417845 
L 80.034349 43.82296 
L 80.081321 37.973691 
L 80.086018 32.795241 
L 80.114201 46.529817 
L 80.184659 44.370217 
L 80.25042 39.937462 
L 80.255117 33.852414 
L 80.2833 46.599294 
L 80.353758 44.879549 
L 80.447702 38.669401 
L 80.452399 33.341365 
L 80.480582 46.65895 
L 80.55104 45.129882 
L 80.668469 40.981498 
L 80.677864 33.655748 
L 80.706047 46.616168 
L 80.771808 45.339256 
L 80.912723 40.690238 
L 80.922118 33.674821 
L 80.954998 46.667365 
L 81.016061 45.56993 
L 81.194554 40.002312 
L 81.203949 33.990024 
L 81.236829 46.700034 
L 81.297893 45.674201 
L 81.513963 39.368235 
L 81.523358 34.321746 
L 81.556238 46.809576 
L 81.617301 45.916213 
L 81.880344 42.79411 
L 81.941407 42.170198 
L 81.960196 40.01277 
L 81.96959 34.105582 
L 82.002471 46.917449 
L 82.063534 46.208062 
L 82.378246 43.617526 
L 82.434612 43.670872 
L 82.674168 44.260387 
L 82.707049 44.364704 
L 82.970091 45.374704 
L 83.355261 47.647835 
L 83.364655 47.640037 
L 83.613606 47.596904 
L 83.646486 47.608124 
L 83.669972 47.554495 
L 83.712247 47.550951 
L 83.721641 47.522486 
L 83.796796 47.646963 
L 83.801493 47.627709 
L 83.806191 47.65232 
L 83.895437 47.553894 
L 83.904831 47.520751 
L 83.961198 47.622416 
L 83.994078 47.588013 
L 84.078627 47.59122 
L 84.092719 47.557626 
L 84.111508 47.49804 
L 84.177268 47.592636 
L 84.196057 47.597216 
L 84.313487 47.435423 
L 84.355761 47.573659 
L 84.365156 47.600064 
L 84.40743 47.51582 
L 84.4591 47.558989 
L 84.543649 47.481076 
L 84.576529 47.528299 
L 84.67517 47.589344 
L 84.693959 47.562176 
L 84.778508 47.481117 
L 84.816086 47.544018 
L 84.834875 47.62141 
L 84.905332 47.528422 
L 84.924121 47.548297 
L 85.1261 47.518406 
L 85.130797 47.545543 
L 85.135494 47.553343 
L 85.191861 47.452452 
L 85.210649 47.426234 
L 85.281107 47.549369 
L 85.337474 47.585527 
L 85.389143 47.536145 
L 85.487784 47.436034 
L 85.398537 47.561011 
L 85.530058 47.528676 
L 85.708551 47.542361 
L 85.713249 47.52643 
L 85.769615 47.47075 
L 85.811889 47.5835 
L 86.02796 47.40753 
L 86.06084 47.491204 
L 86.17827 47.595353 
L 86.182967 47.579206 
L 86.305094 47.43379 
L 86.314488 47.482117 
L 86.394341 47.59953 
L 86.436615 47.530904 
L 86.497679 47.563056 
L 86.450707 47.521439 
L 86.544651 47.504462 
L 86.582228 47.455202 
L 86.619806 47.546527 
L 86.652686 47.520343 
L 86.718447 47.545504 
L 86.751327 47.475981 
L 86.756024 47.481788 
L 86.976792 47.579267 
L 86.990883 47.550714 
L 87.127102 47.437821 
L 87.141193 47.49898 
L 87.211651 47.592636 
L 87.258623 47.507106 
L 87.408933 47.455789 
L 87.432419 47.529546 
L 87.49818 47.494527 
L 87.545152 47.552663 
L 87.667278 47.44192 
L 87.737736 47.583698 
L 87.794102 47.522522 
L 87.94911 47.410966 
L 87.953807 47.44047 
L 88.057145 47.56153 
L 88.094722 47.502805 
L 88.207455 47.439321 
L 88.212152 47.451325 
L 88.357765 47.584287 
L 88.221546 47.430737 
L 88.371856 47.538779 
L 88.559744 47.465813 
L 88.564441 47.474163 
L 88.592624 47.592536 
L 88.686568 47.515943 
L 88.832181 47.429546 
L 88.836878 47.452903 
L 88.865061 47.42101 
L 89.015371 47.573199 
L 89.137498 47.428686 
L 89.142195 47.449535 
L 89.198561 47.431577 
L 89.160984 47.474183 
L 89.222047 47.516495 
L 89.269019 47.571608 
L 89.339477 47.517708 
L 89.475695 47.392698 
L 89.588428 47.399947 
L 89.541456 47.34833 
L 89.593125 47.386918 
L 89.724646 47.288338 
L 89.78571 47.339168 
L 89.813893 47.238551 
L 89.846773 47.313128 
L 90.025266 47.241307 
L 90.029964 47.293373 
L 90.156788 47.618779 
L 90.26952 47.594234 
L 90.297703 47.623032 
L 90.401041 47.633976 
L 90.335281 47.573299 
L 90.410436 47.628303 
L 90.518471 47.546669 
L 90.527865 47.571042 
L 90.574837 47.636088 
L 90.621809 47.551926 
L 90.635901 47.579989 
L 90.790908 47.606737 
L 90.668781 47.514079 
L 90.814394 47.566937 
L 90.83788 47.520596 
L 90.908338 47.627543 
L 90.922429 47.588899 
L 91.025767 47.541696 
L 91.049253 47.578966 
L 91.17138 47.612583 
L 91.176077 47.603655 
L 91.270021 47.510918 
L 91.293507 47.577287 
L 91.392148 47.615726 
L 91.401542 47.558638 
L 91.490789 47.476909 
L 91.523669 47.514387 
L 91.551852 47.608243 
L 91.641099 47.57582 
L 91.763226 47.460511 
L 91.777317 47.489712 
L 91.819592 47.618846 
L 91.904141 47.552532 
L 92.077937 47.457302 
L 92.082634 47.480159 
L 92.171881 47.591883 
L 92.204761 47.567266 
L 92.378557 47.434203 
L 92.397346 47.457088 
L 92.430226 47.425405 
L 92.552353 47.608627 
L 92.82479 47.466607 
L 92.834184 47.508134 
L 92.951614 47.601909 
L 92.965705 47.576847 
L 93.09253 47.461842 
L 93.266325 47.341444 
L 93.111318 47.480976 
L 93.27572 47.353042 
L 93.379058 47.378939 
L 93.327389 47.311102 
L 93.39315 47.352708 
L 93.468305 47.247971 
L 93.524671 47.265157 
L 93.538762 47.284805 
L 94.017875 46.541054 
L 94.154094 46.32859 
L 94.539263 45.640223 
L 94.62851 45.530826 
L 94.769425 45.360486 
L 94.943221 45.052836 
L 94.952616 45.064064 
L 95.046559 44.870312 
L 95.192172 44.691424 
L 95.257933 44.583979 
L 95.323693 44.398516 
L 95.614919 43.246607 
L 95.675982 41.899616 
L 95.694771 32.762185 
L 95.718257 45.882308 
L 95.774623 43.538029 
L 95.802807 38.500829 
L 95.807504 31.608199 
L 95.83099 46.126379 
L 95.915539 35.899261 
L 95.943722 45.932831 
L 96.023574 32.515561 
L 96.150398 45.872205 
L 96.220856 41.387031 
L 96.253736 45.952311 
L 96.338286 32.666607 
L 96.361772 46.091624 
L 96.451018 38.059308 
L 96.455716 32.702209 
L 96.479201 46.219375 
L 96.554356 43.016381 
L 96.577842 38.468227 
L 96.58254 32.622999 
L 96.606026 46.346899 
L 96.681181 43.57416 
L 96.718758 39.815143 
L 96.723455 33.275876 
L 96.751638 46.416158 
L 96.826793 43.859818 
L 96.873765 38.938061 
L 96.878462 32.853588 
L 96.906646 46.561749 
L 96.977103 44.557544 
L 97.052258 38.906298 
L 97.056955 33.315779 
L 97.085139 46.56436 
L 97.155596 44.823312 
L 97.24954 37.608894 
L 97.254237 33.221318 
L 97.28242 46.641163 
L 97.348181 45.209646 
L 97.465611 41.243528 
L 97.475005 33.866839 
L 97.507885 46.712099 
L 97.564252 45.632309 
L 97.728653 39.952832 
L 97.738048 33.951458 
L 97.770928 46.70088 
L 97.831991 45.538775 
L 98.005787 41.092417 
L 98.015182 34.126632 
L 98.048062 46.824811 
L 98.104428 46.015004 
L 98.358076 40.291798 
L 98.367471 33.766099 
L 98.400351 46.891393 
L 98.461414 46.075832 
L 98.729154 42.847859 
L 98.799612 41.74002 
L 98.818401 34.121721 
L 98.855978 46.916545 
L 98.949922 45.748845 
L 99.194176 43.563321 
L 99.306908 43.273638 
L 99.363274 43.317355 
L 99.382063 43.307082 
L 99.786021 44.342574 
L 99.945726 44.906609 
L 99.950423 44.903667 
L 100.034972 45.15303 
L 100.326198 45.806057 
L 100.330895 45.785715 
L 100.401353 45.940872 
L 100.40605 45.920557 
L 100.593937 46.223674 
L 100.875769 46.585282 
L 100.894557 46.563446 
L 100.903952 46.519726 
L 100.988501 46.627409 
L 100.993198 46.623476 
L 101.251544 47.64041 
L 101.331396 47.58316 
L 101.434734 47.571573 
L 101.397156 47.658578 
L 101.444128 47.578178 
L 101.570952 47.623193 
L 101.486403 47.554925 
L 101.57565 47.618052 
L 101.683685 47.536266 
L 101.697776 47.591952 
L 101.852784 47.571029 
L 101.857481 47.552561 
L 101.87627 47.48997 
L 101.913847 47.599066 
L 101.965516 47.577262 
L 101.984305 47.59596 
L 102.045368 47.501407 
L 102.064157 47.530444 
L 102.068854 47.513284 
L 102.153404 47.603598 
L 102.167495 47.564035 
L 102.172192 47.589469 
L 102.261439 47.481198 
L 102.39296 47.559487 
L 102.477509 47.569881 
L 102.51039 47.522322 
L 102.651305 47.490432 
L 102.547967 47.59534 
L 102.656003 47.494151 
L 102.665397 47.512291 
L 102.801615 47.525237 
L 102.834496 47.590883 
L 102.904954 47.507468 
L 102.989503 47.452373 
L 103.008292 47.543853 
L 103.116327 47.537088 
L 103.125721 47.511955 
L 103.440433 47.488446 
L 103.492102 47.452379 
L 103.529679 47.568189 
L 103.539074 47.562938 
L 103.571954 47.593725 
L 103.609532 47.494768 
L 103.62832 47.507386 
L 103.741053 47.451534 
L 103.675292 47.517751 
L 103.74575 47.478344 
L 103.830299 47.555899 
L 103.86318 47.506229 
L 104.01349 47.485323 
L 104.112131 47.556146 
L 104.149708 47.536648 
L 104.318807 47.588233 
L 104.370476 47.601743 
L 104.403356 47.518758 
L 104.412751 47.523884 
L 104.835497 47.519317 
L 104.873075 47.553967 
L 104.94823 47.532176 
L 105.06566 47.4236 
L 105.084448 47.448089 
L 105.615231 47.451195 
L 105.634019 47.397434 
L 105.69978 47.554908 
L 105.713871 47.554908 
L 105.835998 47.534729 
L 105.845393 47.503016 
L 105.934639 47.433846 
L 105.953428 47.514612 
L 106.0004 47.60798 
L 106.075555 47.521247 
L 106.221168 47.423019 
L 106.338597 47.56214 
L 106.371478 47.54304 
L 106.502999 47.42615 
L 106.507696 47.429492 
L 106.629823 47.568372 
L 106.643914 47.527637 
L 106.704978 47.458615 
L 106.709675 47.440274 
L 106.780133 47.412587 
L 106.813013 47.48089 
L 106.841196 47.582205 
L 106.921049 47.461328 
L 106.996204 47.441265 
L 106.944534 47.514742 
L 107.033781 47.46574 
L 107.066661 47.417094 
L 107.207577 47.542906 
L 107.339098 47.439116 
L 107.404859 47.424412 
L 107.41895 47.507315 
L 107.494105 47.601462 
L 107.550472 47.561779 
L 107.667901 47.413297 
L 107.681993 47.433347 
L 107.813514 47.586458 
L 107.846394 47.548854 
L 107.949733 47.396045 
L 107.992007 47.465228 
L 108.428846 47.236805 
L 108.433543 47.315051 
L 108.489909 47.592737 
L 108.55567 47.558203 
L 108.560367 47.540557 
L 108.607339 47.623056 
L 108.663705 47.575302 
L 108.917353 47.546388 
L 108.926747 47.574239 
L 109.0066 47.637881 
L 109.034783 47.568817 
L 109.3401 47.553538 
L 109.466924 47.59251 
L 109.570262 47.596491 
L 109.542079 47.559051 
L 109.574959 47.57819 
L 109.64072 47.488965 
L 109.60784 47.589176 
L 109.692389 47.547267 
L 109.753452 47.592683 
L 109.795727 47.49159 
L 109.852093 47.451166 
L 109.894368 47.555281 
L 109.969523 47.628111 
L 110.011798 47.573994 
L 110.09165 47.555495 
L 110.068164 47.525536 
L 110.101044 47.520457 
L 110.129227 47.436916 
L 110.176199 47.588994 
L 110.194988 47.587795 
L 110.270143 47.59658 
L 110.218474 47.562359 
L 110.303023 47.579468 
L 110.411059 47.489785 
L 110.42515 47.519592 
L 110.514397 47.597787 
L 110.556671 47.553466 
L 110.683495 47.47876 
L 110.833805 47.60477 
L 110.721073 47.424985 
L 110.861989 47.574198 
L 110.974721 47.482268 
L 110.913658 47.594126 
L 110.988813 47.492749 
L 111.054573 47.521568 
L 111.082756 47.450641 
L 111.134425 47.424751 
L 111.162609 47.551477 
L 111.265947 47.586524 
L 111.275341 47.561689 
L 111.406862 47.386105 
L 111.420954 47.408221 
L 111.575961 47.333898 
L 111.580658 47.310635 
L 111.632327 47.570219 
L 111.637024 47.555528 
L 111.688694 47.604426 
L 111.735665 47.507672 
L 111.759151 47.541222 
L 111.947039 47.340031 
L 112.040983 47.378125 
L 112.064468 47.362235 
L 112.186595 47.189226 
L 112.214778 47.21313 
L 112.22887 47.22004 
L 112.285236 47.113136 
L 112.289933 47.124198 
L 112.313419 47.13476 
L 112.477821 46.954142 
L 112.482518 46.959312 
L 112.520096 46.872521 
L 112.552976 46.881762 
L 112.665708 46.698818 
L 112.707983 46.726927 
L 112.783138 46.630249 
L 112.975723 46.245267 
L 112.98042 46.257618 
L 113.647421 45.090699 
L 113.652118 45.095975 
L 113.694392 44.998562 
L 113.713181 45.002251 
L 113.727273 44.969249 
L 113.727273 44.969249 
" style="fill:none;stroke:#000000;stroke-linecap:square;stroke-width:0.3;"/>
   </g>
   <g id="line2d_3">
    <path clip-path="url(#p57b99775e0)" d="M 12.272727 64.226332 
L 12.282122 66.740368 
L 12.380763 63.576009 
L 12.394854 51.521984 
L 12.423037 66.959201 
L 12.470009 65.731768 
L 12.545164 62.676345 
L 12.554559 51.840548 
L 12.582742 67.096079 
L 12.653199 65.29679 
L 12.71896 62.78146 
L 12.728354 51.609692 
L 12.756538 67.13452 
L 12.826995 65.444534 
L 12.906848 62.592905 
L 12.916242 51.731296 
L 12.944425 67.193191 
L 13.014883 65.528969 
L 13.108827 62.075137 
L 13.118221 52.193331 
L 13.146404 67.186618 
L 13.216862 65.592691 
L 13.3202 63.11642 
L 13.329594 51.805856 
L 13.362475 67.14359 
L 13.418841 65.886108 
L 13.545665 62.737386 
L 13.555059 51.396226 
L 13.583242 67.138241 
L 13.649003 65.748281 
L 13.775827 62.661217 
L 13.785222 51.427751 
L 13.813405 67.135308 
L 13.883862 65.668813 
L 14.015384 61.958091 
L 14.024778 52.07297 
L 14.052961 67.114966 
L 14.123419 65.613794 
L 14.259637 62.891952 
L 14.269032 51.267331 
L 14.301912 67.071132 
L 14.362976 65.773354 
L 14.513286 62.001751 
L 14.52268 51.961216 
L 14.550863 67.093683 
L 14.621321 65.615048 
L 14.766934 63.006816 
L 14.776328 51.346213 
L 14.809208 67.081747 
L 14.870272 65.771329 
L 15.029976 62.889694 
L 15.039371 51.241402 
L 15.072251 67.037198 
L 15.133314 65.74697 
L 15.293019 62.335437 
L 15.302413 51.624557 
L 15.330596 67.058277 
L 15.401054 65.63782 
L 15.570153 62.647735 
L 15.579547 51.297752 
L 15.60773 67.022087 
L 15.678188 65.598208 
L 15.84259 62.966722 
L 15.851984 51.330174 
L 15.884864 67.01149 
L 15.945928 65.719074 
L 16.115026 63.072254 
L 16.124421 51.632082 
L 16.157301 67.037873 
L 16.213667 65.817605 
L 16.396858 62.81424 
L 16.406252 51.188174 
L 16.439132 67.014605 
L 16.500196 65.728786 
L 16.673992 62.809203 
L 16.683386 51.208334 
L 16.716266 67.0106 
L 16.77733 65.703536 
L 16.955823 61.797454 
L 16.965217 52.003865 
L 16.9934 67.013159 
L 17.063858 65.60223 
L 17.232957 62.368519 
L 17.242351 51.526916 
L 17.270534 67.037452 
L 17.340992 65.598893 
L 17.510091 62.026062 
L 17.519485 51.834224 
L 17.547668 67.019112 
L 17.618126 65.620139 
L 17.796619 61.760856 
L 17.801317 51.941325 
L 17.834197 67.010545 
L 17.904655 65.572497 
L 18.078451 62.790176 
L 18.087845 51.197704 
L 18.120725 66.998011 
L 18.181789 65.690469 
L 18.360282 62.504382 
L 18.369676 51.400711 
L 18.397859 66.997187 
L 18.468317 65.574844 
L 18.64681 62.505554 
L 18.656205 51.369528 
L 18.684388 67.002229 
L 18.754846 65.572075 
L 18.928641 62.454409 
L 18.938036 51.43612 
L 18.966219 67.009268 
L 19.036677 65.611841 
L 19.224564 63.034171 
L 19.233959 51.448092 
L 19.266839 67.005155 
L 19.327902 65.70136 
L 19.51579 62.663514 
L 19.525184 51.25614 
L 19.553367 66.969519 
L 19.623825 65.562684 
L 19.807015 63.039215 
L 19.81641 51.460897 
L 19.84929 66.98625 
L 19.910354 65.703323 
L 20.121727 59.959614 
L 20.126424 51.1714 
L 20.159305 66.949502 
L 20.229762 65.478255 
L 20.431741 61.190677 
L 20.436439 51.401517 
L 20.469319 66.924886 
L 20.539777 65.474598 
L 20.732361 62.222257 
L 20.741756 51.601055 
L 20.769939 66.939532 
L 20.840397 65.521946 
L 21.014193 64.366988 
L 21.065862 63.749591 
L 21.079953 62.27585 
L 21.089348 51.462455 
L 21.117531 66.87994 
L 21.187989 65.458452 
L 21.422848 61.817173 
L 21.432242 51.831748 
L 21.460425 66.85068 
L 21.530883 65.453174 
L 21.667102 64.702051 
L 21.68589 64.719996 
L 21.723468 64.727118 
L 21.756348 64.817199 
L 22.038179 67.251247 
L 22.146215 68.646831 
L 22.169701 68.624281 
L 22.324708 68.718644 
L 22.507898 68.667941 
L 22.625328 68.704201 
L 22.813215 68.689882 
L 22.911856 68.663211 
L 22.841398 68.707489 
L 22.921251 68.680398 
L 22.996406 68.720033 
L 22.940039 68.662935 
L 23.03868 68.687476 
L 23.090349 68.62262 
L 23.066863 68.700259 
L 23.146716 68.68702 
L 23.245356 68.710103 
L 23.15611 68.671873 
L 23.27354 68.694177 
L 23.390969 68.670638 
L 23.395666 68.6853 
L 23.827808 68.645012 
L 23.832505 68.630176 
L 23.912357 68.726534 
L 23.926449 68.69569 
L 24.114336 68.651171 
L 24.119033 68.682774 
L 24.166005 68.646354 
L 24.250555 68.718463 
L 24.335104 68.662605 
L 24.367984 68.703596 
L 24.504203 68.639031 
L 24.522991 68.67019 
L 24.584055 68.706785 
L 24.640421 68.678369 
L 24.879978 68.635207 
L 25.011499 68.700999 
L 25.016196 68.682938 
L 25.147717 68.671254 
L 25.279239 68.642176 
L 25.29333 68.667081 
L 25.462429 68.693135 
L 25.523492 68.620052 
L 25.579858 68.642546 
L 25.734866 68.708492 
L 25.608042 68.602614 
L 25.739563 68.689446 
L 25.767746 68.704786 
L 25.875781 68.625852 
L 25.92745 68.687752 
L 25.889873 68.612767 
L 25.997908 68.6385 
L 26.138824 68.561039 
L 26.542782 68.377728 
L 26.669606 68.270764 
L 26.716578 68.22329 
L 26.772944 68.249178 
L 26.890374 68.165154 
L 26.895071 68.171421 
L 26.899768 68.179785 
L 26.951437 68.102028 
L 26.97962 68.103719 
L 27.144022 67.959316 
L 27.153416 67.964498 
L 27.360092 67.783714 
L 27.383578 67.799905 
L 27.491614 67.763875 
L 27.411761 67.753741 
L 27.501008 67.746634 
L 27.623135 67.611829 
L 27.651318 67.620994 
L 27.660712 67.640349 
L 27.726473 67.544593 
L 27.745262 67.564592 
L 27.862691 67.553123 
L 27.81572 67.65958 
L 27.867389 67.556477 
L 27.961332 67.418802 
L 28.013001 67.360219 
L 28.074065 67.405045 
L 28.1821 67.388013 
L 28.106945 67.366539 
L 28.186797 67.378049 
L 28.252558 67.424095 
L 28.318319 67.308852 
L 28.388776 67.265895 
L 28.360593 67.24284 
L 28.398171 67.232451 
L 28.412262 67.24245 
L 28.529692 67.180645 
L 28.548481 67.225329 
L 28.628333 67.125353 
L 28.788037 66.99953 
L 28.919559 66.894658 
L 29.027594 66.847229 
L 28.943045 66.922463 
L 29.036988 66.860785 
L 29.145024 66.919038 
L 29.074566 66.839257 
L 29.159115 66.897199 
L 29.220179 66.808896 
L 29.318819 66.792969 
L 29.238967 66.821983 
L 29.332911 66.800013 
L 29.379883 66.858002 
L 29.431552 66.77892 
L 29.436249 66.781139 
L 29.539587 66.673249 
L 29.577165 66.693592 
L 29.71808 66.617284 
L 29.86839 66.454863 
L 29.873088 66.469634 
L 29.877785 66.48514 
L 29.943545 66.385028 
L 29.967031 66.416218 
L 29.976426 66.426048 
L 30.338109 66.162576 
L 30.432053 66.229105 
L 30.464933 66.212941 
L 30.643426 66.144847 
L 30.474328 66.228106 
L 30.652821 66.163249 
L 30.727976 66.145406 
L 30.681004 66.095076 
L 30.751462 66.125094 
L 30.901772 66.035652 
L 30.906469 66.041631 
L 30.948743 65.956783 
L 30.981624 65.962933 
L 30.991018 65.972359 
L 31.15542 65.867819 
L 31.286941 65.867593 
L 31.169511 65.813981 
L 31.291638 65.858382 
L 31.409068 65.752447 
L 31.413765 65.767341 
L 31.427857 65.804286 
L 32.015005 65.093651 
L 32.193498 64.064108 
L 32.216984 61.163769 
L 32.221681 51.041137 
L 32.254561 65.449798 
L 32.325019 63.553318 
L 32.334414 61.909239 
L 32.339111 52.34761 
L 32.367294 66.369341 
L 32.442449 64.234888 
L 32.465935 61.621671 
L 32.470632 51.687036 
L 32.498815 66.758055 
L 32.57397 64.705638 
L 32.611548 62.710181 
L 32.620942 51.8699 
L 32.649125 66.973025 
L 32.719583 65.093412 
L 32.775949 62.761856 
L 32.785344 51.674549 
L 32.813527 67.07735 
L 32.883985 65.343617 
L 32.954442 62.83424 
L 32.963837 51.500879 
L 32.99202 67.153657 
L 33.05778 65.60578 
L 33.151724 62.913295 
L 33.161119 51.364095 
L 33.189302 67.134895 
L 33.255062 65.695682 
L 33.363098 62.532822 
L 33.372492 51.663528 
L 33.400675 67.151985 
L 33.471133 65.618286 
L 33.588563 62.118585 
L 33.597957 52.00586 
L 33.62614 67.110666 
L 33.696598 65.570394 
L 33.818725 61.944226 
L 33.828119 52.113187 
L 33.856302 67.112617 
L 33.92676 65.619738 
L 34.058281 62.296555 
L 34.067676 51.742803 
L 34.095859 67.099385 
L 34.166317 65.607857 
L 34.302535 62.822142 
L 34.311929 51.265611 
L 34.340113 67.058782 
L 34.405873 65.721177 
L 34.556183 61.759549 
L 34.56088 51.871597 
L 34.593761 67.079775 
L 34.664218 65.61517 
L 34.814528 62.323522 
L 34.823923 51.650024 
L 34.852106 67.048198 
L 34.922564 65.592903 
L 35.077571 62.639671 
L 35.086965 51.322678 
L 35.115148 67.049715 
L 35.185606 65.613633 
L 35.350008 62.594862 
L 35.359402 51.348538 
L 35.387585 67.031829 
L 35.458043 65.62386 
L 35.622445 62.169083 
L 35.631839 51.731268 
L 35.660022 67.042403 
L 35.73048 65.611887 
L 35.908973 60.961182 
L 35.91367 51.336129 
L 35.946551 66.991006 
L 36.017008 65.528406 
L 36.186107 62.481588 
L 36.195501 51.426044 
L 36.223685 67.013547 
L 36.294142 65.585787 
L 36.48203 62.916858 
L 36.491424 51.260501 
L 36.524305 66.958472 
L 36.585368 65.679657 
L 36.787347 62.50188 
L 36.796741 51.358554 
L 36.824925 66.964952 
L 36.895382 65.537162 
L 37.08327 62.971304 
L 37.092664 51.348957 
L 37.125545 66.938521 
L 37.186608 65.66611 
L 37.402679 62.481767 
L 37.412073 51.352694 
L 37.440256 66.909458 
L 37.510714 65.531956 
L 37.689207 64.593178 
L 37.787848 64.784092 
L 38.036799 66.314218 
L 38.323327 68.714896 
L 38.379694 68.670083 
L 38.948053 68.691405 
L 38.999722 68.74714 
L 39.079574 68.668721 
L 39.201701 68.689426 
L 39.211096 68.681432 
L 40.009617 68.684365 
L 40.033103 68.738088 
L 40.108258 68.647344 
L 40.117653 68.669037 
L 40.249174 68.626723 
L 40.366604 68.695718 
L 40.282054 68.593582 
L 40.371301 68.67985 
L 40.498125 68.63247 
L 40.592069 68.676677 
L 40.559188 68.617182 
L 40.60616 68.623883 
L 40.84102 68.663073 
L 40.99133 68.643754 
L 41.005421 68.67665 
L 41.066485 68.729697 
L 41.094668 68.644733 
L 41.122851 68.688688 
L 41.428168 68.663366 
L 41.432865 68.680787 
L 41.437562 68.696896 
L 41.484534 68.654262 
L 41.5409 68.662505 
L 41.564386 68.619381 
L 41.62545 68.695417 
L 41.644239 68.69493 
L 41.663027 68.753211 
L 41.700605 68.657897 
L 41.752274 68.674084 
L 42.522613 68.488169 
L 42.574282 68.458319 
L 42.625951 68.518298 
L 42.658831 68.568428 
L 42.738683 68.492303 
L 42.86081 68.434524 
L 42.865507 68.416477 
L 43.048698 68.181358 
L 43.053395 68.183589 
L 43.208402 68.073098 
L 43.241282 68.101722 
L 43.307043 68.021532 
L 43.31174 68.038038 
L 43.424473 67.901102 
L 43.588874 67.717098 
L 43.61236 67.754248 
L 43.678121 67.640906 
L 43.776762 67.638817 
L 43.720395 67.67139 
L 43.786156 67.659257 
L 43.79555 67.667848 
L 43.837825 67.563634 
L 43.8801 67.612741 
L 43.936466 67.637475 
L 43.992832 67.597812 
L 44.053896 67.634435 
L 44.100867 67.571568 
L 44.279361 67.383183 
L 44.284058 67.403172 
L 44.406185 67.233617 
L 44.471945 67.104644 
L 44.528311 67.178269 
L 44.542403 67.202774 
L 44.575283 67.103819 
L 44.622255 67.118827 
L 44.725593 67.136495 
L 44.692713 67.163994 
L 44.730291 67.148496 
L 45.134249 66.875379 
L 45.138946 66.894286 
L 45.209404 66.809229 
L 45.23289 66.834925 
L 45.340925 66.839101 
L 45.44896 66.894193 
L 45.453657 66.88587 
L 45.585179 66.821492 
L 45.491235 66.920312 
L 45.603967 66.848954 
L 45.622756 66.880644 
L 45.679122 66.799752 
L 45.702608 66.800536 
L 45.815341 66.692977 
L 45.890496 66.723654 
L 45.956256 66.608103 
L 46.679623 66.495855 
L 46.717201 66.373217 
L 46.80175 66.436058 
L 46.970849 66.275371 
L 46.975546 66.288388 
L 47.318441 66.082349 
L 47.449962 66.092122 
L 47.454659 66.109055 
L 47.52042 66.003959 
L 47.5533 66.054764 
L 47.764673 65.916172 
L 47.896195 65.765087 
L 47.919681 65.790224 
L 48.008927 65.852593 
L 48.041807 65.825891 
L 48.163934 65.643605 
L 48.173329 65.651518 
L 48.30485 65.708877 
L 48.821541 64.826229 
L 48.910787 63.826511 
L 48.924879 61.979183 
L 48.934273 51.188835 
L 48.967153 65.45807 
L 49.032914 63.673866 
L 49.047006 58.625228 
L 49.051703 52.073239 
L 49.079886 66.392505 
L 49.150344 64.331233 
L 49.178527 60.198742 
L 49.183224 51.657793 
L 49.211407 66.779413 
L 49.286562 64.68361 
L 49.32414 62.404459 
L 49.333534 52.263024 
L 49.361717 66.98016 
L 49.432175 65.11763 
L 49.488541 62.838545 
L 49.497936 51.571542 
L 49.526119 67.06202 
L 49.591879 65.47316 
L 49.671731 62.400252 
L 49.681126 51.991874 
L 49.709309 67.145021 
L 49.779767 65.505139 
L 49.869013 62.720951 
L 49.878408 51.517629 
L 49.906591 67.151601 
L 49.977049 65.583967 
L 50.07569 63.282411 
L 50.089781 51.806987 
L 50.117964 67.149951 
L 50.169633 65.994434 
L 50.305852 61.51726 
L 50.310549 51.577051 
L 50.343429 67.119487 
L 50.413887 65.585693 
L 50.536014 62.648214 
L 50.545408 51.433322 
L 50.573591 67.105554 
L 50.644049 65.637621 
L 50.77557 62.751182 
L 50.784965 51.33405 
L 50.813148 67.084494 
L 50.878909 65.710672 
L 51.019824 62.707853 
L 51.029219 51.334885 
L 51.057402 67.091662 
L 51.123162 65.724981 
L 51.273472 63.10786 
L 51.282867 51.919971 
L 51.315747 67.064891 
L 51.372113 65.839498 
L 51.531818 62.198689 
L 51.541212 51.755184 
L 51.569395 67.069274 
L 51.639853 65.633013 
L 51.799557 62.734556 
L 51.808952 51.261298 
L 51.837135 67.030034 
L 51.902895 65.686782 
L 52.071994 61.738079 
L 52.076691 51.868547 
L 52.109572 67.027113 
L 52.180029 65.548867 
L 52.339734 62.807507 
L 52.349128 51.214774 
L 52.377311 67.027115 
L 52.443072 65.718905 
L 52.616868 62.428184 
L 52.626262 51.495227 
L 52.654445 67.01951 
L 52.724903 65.577824 
L 52.898699 61.872782 
L 52.908093 51.942823 
L 52.936277 67.006456 
L 53.006734 65.575155 
L 53.175833 62.589218 
L 53.185227 51.348642 
L 53.213411 67.005059 
L 53.283868 65.599529 
L 53.467059 62.749295 
L 53.476453 51.200178 
L 53.509333 66.979976 
L 53.570397 65.67709 
L 53.772376 62.347934 
L 53.78177 51.473642 
L 53.809953 66.978026 
L 53.880411 65.515882 
L 54.068299 62.967787 
L 54.077693 51.352738 
L 54.110573 66.950017 
L 54.171637 65.677137 
L 54.38301 61.221829 
L 54.387707 51.425836 
L 54.420588 66.915142 
L 54.491045 65.460899 
L 54.697722 63.326012 
L 54.711813 51.213094 
L 54.739996 66.879678 
L 54.786968 65.911705 
L 54.98425 64.348383 
L 55.040616 63.531526 
L 55.054708 54.795325 
L 55.059405 51.438683 
L 55.087588 66.85871 
L 55.148652 65.601183 
L 55.374117 64.39617 
L 55.613673 65.636439 
L 55.933082 68.656057 
L 55.961265 68.63641 
L 56.182033 68.704423 
L 56.191427 68.683378 
L 56.332343 68.686013 
L 56.33704 68.713848 
L 56.412195 68.727237 
L 56.355829 68.696773 
L 56.440378 68.688891 
L 56.524928 68.620144 
L 56.48735 68.704246 
L 56.553111 68.687847 
L 56.698723 68.698245 
L 56.722209 68.654199 
L 56.806759 68.698437 
L 60.409501 68.512138 
L 60.541023 68.367086 
L 60.54572 68.368847 
L 60.573903 68.412765 
L 60.630269 68.293155 
L 60.644361 68.317835 
L 60.827551 68.20367 
L 60.977861 68.038403 
L 60.982558 68.040914 
L 61.006044 68.009056 
L 61.095291 68.031697 
L 61.123474 68.040006 
L 61.231509 67.903831 
L 61.945481 67.460577 
L 61.954876 67.488164 
L 61.959573 67.500467 
L 61.983059 67.425897 
L 62.058214 67.456534 
L 62.180341 67.390672 
L 62.321256 67.255185 
L 62.4152 67.14323 
L 62.448081 67.178604 
L 62.645362 67.120225 
L 62.758095 66.99804 
L 62.790975 67.029876 
L 62.823855 67.026677 
L 62.861433 66.950219 
L 63.030532 66.900162 
L 63.176145 66.9684 
L 63.180842 66.938657 
L 63.227814 67.002752 
L 63.28418 66.989267 
L 63.326455 67.033211 
L 63.415701 66.90729 
L 63.514342 66.873609 
L 63.472067 66.842895 
L 63.519039 66.86003 
L 63.612983 66.755267 
L 63.664652 66.807456 
L 63.721018 66.841386 
L 63.739807 66.787084 
L 63.777384 66.809083 
L 63.9183 66.694135 
L 64.063913 66.55823 
L 64.162554 66.590722 
L 64.10149 66.541609 
L 64.171948 66.551038 
L 64.298772 66.50267 
L 64.209526 66.585359 
L 64.303469 66.505328 
L 64.388019 66.52932 
L 64.411505 66.465186 
L 64.698033 66.419577 
L 64.951681 66.21365 
L 64.716822 66.437424 
L 64.961076 66.242301 
L 65.012745 66.1905 
L 65.022139 66.173881 
L 65.031533 66.133667 
L 65.0879 66.236232 
L 65.125477 66.227121 
L 65.45428 65.866471 
L 65.458977 65.880517 
L 65.510647 65.85819 
L 65.57171 65.903054 
L 65.72202 65.764506 
L 65.726717 65.782702 
L 65.783083 65.680876 
L 65.98976 65.539952 
L 66.177647 65.127224 
L 66.32326 64.67164 
L 66.393718 63.419875 
L 66.407809 50.866461 
L 66.44069 65.441547 
L 66.497056 64.060239 
L 66.515845 62.615209 
L 66.525239 52.328553 
L 66.553422 66.369757 
L 66.62388 64.251801 
L 66.647366 61.551392 
L 66.652063 51.65519 
L 66.680246 66.767394 
L 66.755401 64.626568 
L 66.792979 60.97223 
L 66.797676 51.541007 
L 66.825859 66.950312 
L 66.901014 64.955744 
L 66.947986 62.959515 
L 66.95738 51.505222 
L 66.985563 67.065031 
L 67.051324 65.456684 
L 67.126479 62.409203 
L 67.135873 52.034538 
L 67.164056 67.143175 
L 67.234514 65.473669 
L 67.319064 62.726294 
L 67.328458 51.542569 
L 67.356641 67.123068 
L 67.427099 65.540709 
L 67.52574 62.86752 
L 67.535134 51.368147 
L 67.568015 67.111876 
L 67.629078 65.714427 
L 67.74181 62.041725 
L 67.751205 52.141367 
L 67.779388 67.148425 
L 67.849846 65.613864 
L 67.962578 63.051429 
L 67.971973 51.501328 
L 68.004853 67.129075 
L 68.065916 65.788019 
L 68.197438 62.848435 
L 68.206832 51.291249 
L 68.239712 67.104176 
L 68.300776 65.766987 
L 68.446389 62.400086 
L 68.455783 51.62974 
L 68.483966 67.088888 
L 68.554424 65.606491 
L 68.695339 62.377417 
L 68.704734 51.630063 
L 68.732917 67.087207 
L 68.803375 65.61247 
L 68.953685 61.985327 
L 68.963079 51.958106 
L 68.991262 67.063692 
L 69.06172 65.614134 
L 69.202636 62.906842 
L 69.21203 51.243761 
L 69.24491 67.063101 
L 69.305974 65.753192 
L 69.475072 62.471477 
L 69.484467 51.459437 
L 69.51265 67.046492 
L 69.583108 65.622042 
L 69.742812 62.952046 
L 69.752207 51.289425 
L 69.785087 67.024727 
L 69.84615 65.705096 
L 70.024643 62.380293 
L 70.034038 51.506075 
L 70.062221 67.029105 
L 70.132679 65.58604 
L 70.301777 62.837526 
L 70.311172 51.21307 
L 70.344052 66.998131 
L 70.405116 65.661426 
L 70.588306 62.904541 
L 70.5977 51.234121 
L 70.630581 66.984189 
L 70.691644 65.662894 
L 70.884229 61.949484 
L 70.893623 51.843829 
L 70.921806 66.989158 
L 70.992264 65.561363 
L 71.175454 62.391606 
L 71.184849 51.487605 
L 71.213032 66.963528 
L 71.28349 65.543165 
L 71.485469 62.641977 
L 71.494863 51.248069 
L 71.523046 66.932234 
L 71.593504 65.527904 
L 71.776694 61.864772 
L 71.786089 51.937898 
L 71.814272 66.94031 
L 71.88473 65.527211 
L 72.082011 64.269211 
L 72.143075 63.60768 
L 72.157166 60.363866 
L 72.161864 51.263656 
L 72.194744 66.804572 
L 72.265202 65.382008 
L 72.36854 64.798084 
L 72.415512 64.862278 
L 72.753709 67.577 
L 72.875836 68.676936 
L 72.880533 68.661044 
L 72.997963 68.715826 
L 73.012054 68.69639 
L 73.15297 68.666377 
L 73.157667 68.678525 
L 73.223428 68.733427 
L 73.275097 68.678843 
L 73.33616 68.709429 
L 73.387829 68.661078 
L 73.481773 68.684081 
L 73.406618 68.708955 
L 73.491168 68.705517 
L 73.589808 68.716095 
L 73.519351 68.660678 
L 73.6039 68.699489 
L 73.740118 68.684438 
L 73.749513 68.693194 
L 73.782393 68.731801 
L 73.834062 68.66223 
L 73.852851 68.679711 
L 73.932703 68.636839 
L 73.899823 68.700418 
L 73.965583 68.65716 
L 74.223929 68.676488 
L 74.228626 68.664787 
L 74.303781 68.666773 
L 74.275598 68.704745 
L 74.327267 68.714966 
L 74.867443 68.697864 
L 74.95669 68.74661 
L 74.886232 68.677435 
L 74.984873 68.70074 
L 75.797486 68.629442 
L 75.820972 68.590311 
L 75.896127 68.701706 
L 76.088712 68.660642 
L 76.098106 68.680314 
L 77.201945 68.397296 
L 77.2771 68.32097 
L 77.319375 68.333556 
L 77.347558 68.413167 
L 77.418016 68.296481 
L 77.497868 68.274532 
L 77.436805 68.303896 
L 77.521354 68.286265 
L 77.526051 68.325228 
L 77.619995 68.189731 
L 78.169566 67.678771 
L 78.305784 67.601465 
L 78.324573 67.613825 
L 78.376242 67.651466 
L 78.338665 67.569265 
L 78.418517 67.569398 
L 78.535947 67.481515 
L 78.540644 67.5107 
L 78.620496 67.509723 
L 78.568827 67.476307 
L 78.639285 67.480427 
L 78.761412 67.380182 
L 78.770806 67.397783 
L 78.822475 67.353597 
L 78.784897 67.354823 
L 78.836567 67.310601 
L 78.902327 67.229172 
L 78.953996 67.307235 
L 78.991574 67.345041 
L 79.024454 67.266628 
L 79.052637 67.265813 
L 79.217039 67.176161 
L 79.226433 67.207891 
L 79.273405 67.21394 
L 79.310982 67.13422 
L 79.456595 66.944504 
L 79.46599 66.975697 
L 79.503567 67.003807 
L 79.559933 66.913968 
L 79.606905 66.900026 
L 79.635088 66.837382 
L 79.785398 66.739905 
L 79.907525 66.756239 
L 79.804187 66.70108 
L 79.921617 66.742431 
L 80.034349 66.703538 
L 80.039046 66.721463 
L 80.062532 66.740787 
L 80.109504 66.66571 
L 80.13299 66.669152 
L 80.377244 66.552688 
L 80.405427 66.541587 
L 80.443005 66.476999 
L 80.457096 66.486153 
L 80.593315 66.352241 
L 80.644984 66.418738 
L 80.729533 66.501942 
L 80.757716 66.437839 
L 80.893934 66.363942 
L 80.898632 66.375719 
L 81.00197 66.37666 
L 81.006667 66.368847 
L 81.21804 66.178773 
L 81.222738 66.193288 
L 81.265012 66.25622 
L 81.344864 66.209553 
L 81.457597 66.184047 
L 81.462294 66.201013 
L 81.537449 66.20179 
L 81.481083 66.185487 
L 81.556238 66.152713 
L 81.617301 66.136521 
L 81.650182 66.246636 
L 81.842766 66.100794 
L 81.847463 66.138826 
L 81.941407 66.085777 
L 81.950802 66.123353 
L 82.08702 65.984293 
L 82.758718 65.515009 
L 82.974788 65.068291 
L 82.979486 65.07933 
L 83.031155 64.938051 
L 83.157979 63.819694 
L 83.17207 61.680128 
L 83.181465 51.328595 
L 83.209648 65.451624 
L 83.280106 63.646942 
L 83.294197 56.254837 
L 83.298894 52.383842 
L 83.327077 66.378779 
L 83.392838 64.450101 
L 83.421021 62.614593 
L 83.430416 52.136092 
L 83.458599 66.77857 
L 83.529056 64.770678 
L 83.571331 61.586964 
L 83.576028 51.595044 
L 83.608909 66.949717 
L 83.679366 65.048692 
L 83.735733 61.9544 
L 83.74043 51.964288 
L 83.77331 67.076384 
L 83.843768 65.291939 
L 83.914226 63.023178 
L 83.92362 51.420147 
L 83.951803 67.099082 
L 84.017564 65.616279 
L 84.111508 62.737065 
L 84.120902 51.516542 
L 84.149085 67.144389 
L 84.219543 65.59569 
L 84.322881 61.518074 
L 84.327578 51.568987 
L 84.360459 67.13189 
L 84.430916 65.574997 
L 84.543649 62.880091 
L 84.553043 51.305952 
L 84.581226 67.100776 
L 84.646987 65.739985 
L 84.773811 62.909915 
L 84.783205 51.289792 
L 84.816086 67.097037 
L 84.877149 65.762999 
L 85.013368 62.969252 
L 85.022762 51.330659 
L 85.055642 67.086765 
L 85.116706 65.742798 
L 85.257621 62.747489 
L 85.267016 51.313062 
L 85.295199 67.078524 
L 85.360959 65.726845 
L 85.515967 62.799293 
L 85.525361 51.248315 
L 85.553544 67.041642 
L 85.619305 65.726795 
L 85.769615 62.618594 
L 85.779009 51.379619 
L 85.807192 67.079345 
L 85.87765 65.630672 
L 86.032657 63.320462 
L 86.046749 51.366983 
L 86.074932 67.030418 
L 86.121904 66.035981 
L 86.305094 61.90858 
L 86.314488 51.964741 
L 86.342672 67.058426 
L 86.413129 65.569939 
L 86.577531 61.76568 
L 86.582228 51.962748 
L 86.615108 67.032358 
L 86.685566 65.57616 
L 86.849968 62.680817 
L 86.859362 51.276277 
L 86.887545 67.006299 
L 86.958003 65.644524 
L 87.122405 62.777121 
L 87.131799 51.213222 
L 87.159982 67.019111 
L 87.225743 65.736763 
L 87.408933 62.389296 
L 87.418327 51.511515 
L 87.446511 66.986796 
L 87.516968 65.571227 
L 87.690764 61.740293 
L 87.695461 51.856088 
L 87.728342 67.018738 
L 87.7988 65.565738 
L 87.967898 62.962325 
L 87.977293 51.31814 
L 88.010173 67.000758 
L 88.071236 65.715278 
L 88.263821 61.945271 
L 88.273216 51.845149 
L 88.301399 66.986661 
L 88.371856 65.577781 
L 88.559744 61.662043 
L 88.564441 51.810215 
L 88.597321 66.968528 
L 88.667779 65.541874 
L 88.869758 62.589943 
L 88.879153 51.274159 
L 88.907336 66.928524 
L 88.977794 65.548615 
L 89.193864 62.29948 
L 89.203259 51.499787 
L 89.231442 66.910166 
L 89.301899 65.507578 
L 89.452209 64.579377 
L 89.470998 64.58923 
L 89.687069 65.452892 
L 90.053449 68.514098 
L 90.100421 68.687471 
L 90.175576 68.675815 
L 90.278914 68.693219 
L 90.208457 68.707438 
L 90.283612 68.708325 
L 90.448013 68.661727 
L 90.45271 68.67433 
L 90.551351 68.719212 
L 90.490288 68.666434 
L 90.565443 68.701172 
L 90.579534 68.652714 
L 90.654689 68.742685 
L 90.673478 68.727748 
L 90.795605 68.647643 
L 90.804999 68.671798 
L 90.927126 68.706393 
L 90.931823 68.703628 
L 91.044556 68.66974 
L 90.997584 68.726536 
L 91.05395 68.676185 
L 91.100922 68.7147 
L 91.152591 68.639156 
L 91.166683 68.70043 
L 91.312296 68.664943 
L 91.326387 68.683982 
L 91.359267 68.664162 
L 91.43912 68.707864 
L 91.58943 68.713173 
L 91.472 68.650975 
L 91.594127 68.706535 
L 91.711557 68.659327 
L 91.716254 68.664964 
L 91.852472 68.715952 
L 91.725648 68.652425 
L 91.871261 68.673701 
L 91.932324 68.658477 
L 91.965205 68.721039 
L 91.969902 68.71848 
L 92.10612 68.707402 
L 92.185972 68.664267 
L 92.218853 68.702984 
L 92.37386 68.677148 
L 92.453712 68.69797 
L 92.416135 68.648871 
L 92.481895 68.671518 
L 92.589931 68.681025 
L 92.49129 68.677166 
L 92.594628 68.69351 
L 92.712057 68.707763 
L 92.636902 68.665359 
L 92.716755 68.696745 
L 92.82479 68.611626 
L 92.843579 68.662196 
L 93.078438 68.654901 
L 93.106621 68.624483 
L 93.172382 68.686072 
L 93.181776 68.669921 
L 93.289811 68.720274 
L 93.228748 68.620922 
L 93.299206 68.70361 
L 93.411938 68.606191 
L 93.435424 68.643626 
L 93.515276 68.678713 
L 93.552854 68.631419 
L 93.660889 68.527626 
L 93.698467 68.546081 
L 93.806502 68.587148 
L 93.839382 68.549305 
L 93.961509 68.441165 
L 93.966206 68.458945 
L 94.219854 68.179182 
L 94.224552 68.190463 
L 94.248038 68.239548 
L 94.280918 68.169681 
L 94.337284 68.214534 
L 94.440622 68.149658 
L 94.54396 68.080157 
L 94.558052 68.106099 
L 94.703665 67.957774 
L 94.708362 67.978044 
L 94.830489 67.823766 
L 94.839883 67.852769 
L 95.023073 67.737443 
L 94.858672 67.872843 
L 95.027771 67.748018 
L 95.046559 67.786027 
L 95.074743 67.712347 
L 95.135806 67.72284 
L 95.318996 67.446408 
L 95.361271 67.505242 
L 95.408243 67.348513 
L 95.44582 67.265211 
L 95.539764 67.332409 
L 95.779321 67.212784 
L 95.877962 67.248849 
L 95.83099 67.319453 
L 95.882659 67.253454 
L 96.009483 67.291384 
L 96.01418 67.28715 
L 96.202067 67.153234 
L 96.211462 67.167524 
L 96.249039 67.088399 
L 96.319497 67.157371 
L 96.441624 67.007225 
L 96.483899 67.055031 
L 96.526173 67.16179 
L 96.587237 67.046021 
L 96.718758 66.879358 
L 96.728152 66.88733 
L 96.854976 66.953107 
L 97.024075 66.836685 
L 97.03347 66.853345 
L 97.071047 66.894394 
L 97.136808 66.837663 
L 97.226054 66.725325 
L 97.258935 66.770617 
L 97.362273 66.785654 
L 97.287118 66.818773 
L 97.371667 66.804005 
L 97.418639 66.737806 
L 97.385759 66.76935 
L 97.423336 66.710114 
L 97.536069 66.653112 
L 97.470308 66.737621 
L 97.540766 66.657903 
L 97.55016 66.697675 
L 97.58304 66.62127 
L 97.639407 66.614979 
L 97.686379 66.558515 
L 97.752139 66.617584 
L 97.864872 66.729666 
L 97.921238 66.6918 
L 97.996393 66.74803 
L 98.174886 66.635505 
L 98.306407 66.619835 
L 98.315802 66.59901 
L 98.428534 66.459696 
L 98.348682 66.608943 
L 98.442626 66.531988 
L 98.705668 66.412885 
L 98.827795 66.324311 
L 98.832492 66.332299 
L 98.949922 66.34909 
L 98.926436 66.282668 
L 98.954619 66.338641 
L 99.001591 66.251708 
L 99.072049 66.32602 
L 99.133112 66.354858 
L 99.175387 66.296432 
L 99.297514 66.245192 
L 99.367972 66.28155 
L 99.405549 66.224524 
L 99.579345 66.147303 
L 99.715563 65.992788 
L 99.720261 65.998637 
L 99.724958 66.019307 
L 99.739049 65.962476 
L 99.823599 65.960195 
L 100.10543 65.837653 
L 100.114824 65.864175 
L 100.119522 65.893862 
L 100.213465 65.805525 
L 100.218162 65.814891 
L 100.312106 65.916033 
L 100.232254 65.787287 
L 100.340289 65.81222 
L 100.499994 65.57479 
L 100.509388 65.583175 
L 100.514085 65.594379 
L 100.58924 65.495704 
L 100.70667 65.423433 
L 100.847586 65.266512 
L 100.969712 64.971584 
L 101.087142 64.227757 
L 101.115325 62.952566 
L 101.12472 50.899967 
L 101.1576 65.464293 
L 101.223361 63.856035 
L 101.237452 62.377361 
L 101.246846 52.655528 
L 101.27503 66.383851 
L 101.345487 64.334075 
L 101.37367 60.992015 
L 101.378368 51.573369 
L 101.406551 66.784533 
L 101.481706 64.725403 
L 101.52398 62.174564 
L 101.533375 52.504796 
L 101.561558 66.958014 
L 101.632016 65.105894 
L 101.688382 62.852301 
L 101.697776 51.543374 
L 101.72596 67.09225 
L 101.79172 65.523584 
L 101.87627 61.837342 
L 101.880967 51.865445 
L 101.913847 67.119328 
L 101.984305 65.44636 
L 102.073551 62.449024 
L 102.082946 51.806117 
L 102.111129 67.160817 
L 102.181587 65.570432 
L 102.284925 62.930197 
L 102.294319 51.351186 
L 102.327199 67.104867 
L 102.388263 65.710886 
L 102.51039 62.479677 
L 102.519784 51.644294 
L 102.547967 67.122172 
L 102.618425 65.608853 
L 102.740552 63.09404 
L 102.749946 51.695213 
L 102.782827 67.107698 
L 102.839193 65.837382 
L 102.984806 63.014503 
L 102.9942 51.39192 
L 103.02708 67.085033 
L 103.088144 65.728215 
L 103.229059 62.784437 
L 103.238454 51.289287 
L 103.266637 67.088174 
L 103.332398 65.743233 
L 103.482708 62.386788 
L 103.492102 51.60554 
L 103.520285 67.082738 
L 103.590743 65.619647 
L 103.736356 62.411699 
L 103.74575 51.57774 
L 103.773933 67.066258 
L 103.844391 65.620939 
L 104.004095 62.367646 
L 104.01349 51.559797 
L 104.041673 67.059404 
L 104.112131 65.596103 
L 104.267138 62.612071 
L 104.276532 51.359932 
L 104.304715 67.040906 
L 104.375173 65.611461 
L 104.539575 61.918039 
L 104.548969 51.939664 
L 104.577152 67.031839 
L 104.64761 65.577479 
L 104.807314 62.884738 
L 104.816709 51.222446 
L 104.849589 67.02224 
L 104.910652 65.741452 
L 105.084448 62.934053 
L 105.093843 51.242173 
L 105.126723 67.017125 
L 105.187786 65.712026 
L 105.370977 62.942984 
L 105.380371 51.222094 
L 105.413251 67.007818 
L 105.474315 65.717665 
L 105.657505 61.473257 
L 105.662202 51.568671 
L 105.695083 66.998602 
L 105.76554 65.550274 
L 105.934639 62.185372 
L 105.944034 51.686007 
L 105.972217 67.025045 
L 106.042675 65.595435 
L 106.221168 61.829113 
L 106.230562 51.955811 
L 106.258745 67.00102 
L 106.329203 65.547652 
L 106.502999 62.989625 
L 106.512393 51.308766 
L 106.545274 66.999911 
L 106.606337 65.703695 
L 106.794224 62.291246 
L 106.803619 51.570601 
L 106.831802 66.993258 
L 106.90226 65.544199 
L 107.094844 63.048767 
L 107.104239 51.628187 
L 107.137119 66.961887 
L 107.193485 65.764225 
L 107.400162 62.532791 
L 107.409556 51.332907 
L 107.437739 66.947976 
L 107.508197 65.543977 
L 107.691387 64.246003 
L 107.733662 63.613325 
L 107.747753 59.502179 
L 107.752451 51.183256 
L 107.785331 66.863659 
L 107.851092 65.487909 
L 107.977916 64.614347 
L 108.02019 64.629453 
L 108.024888 64.6161 
L 108.085951 64.764736 
L 108.278536 66.035349 
L 108.593247 68.735665 
L 108.602642 68.715838 
L 108.710677 68.68646 
L 108.668402 68.732533 
L 108.715374 68.688263 
L 108.865684 68.655279 
L 108.879776 68.683913 
L 108.926747 68.724754 
L 108.997205 68.696811 
L 109.114635 68.681795 
L 109.213276 68.668205 
L 109.227367 68.70391 
L 109.495107 68.678666 
L 109.598445 68.664621 
L 109.513896 68.701482 
L 109.612537 68.681991 
L 109.729966 68.68212 
L 109.800424 68.665969 
L 109.762847 68.724071 
L 109.838002 68.70461 
L 109.997706 68.680006 
L 110.0071 68.722465 
L 110.011798 68.743829 
L 110.09165 68.662384 
L 110.105741 68.682011 
L 110.115136 68.638113 
L 110.148016 68.711034 
L 110.213777 68.682373 
L 110.312418 68.704363 
L 110.265446 68.665424 
L 110.331206 68.696388 
L 110.420453 68.603413 
L 110.354692 68.704213 
L 110.448636 68.662608 
L 110.570763 68.70015 
L 110.650615 68.596928 
L 110.688193 68.634438 
L 110.941841 68.687507 
L 110.970024 68.708019 
L 111.101545 68.640643 
L 111.942342 68.603111 
L 111.998708 68.60055 
L 112.031588 68.663614 
L 112.036285 68.662466 
L 112.11144 68.631395 
L 112.097349 68.596898 
L 112.130229 68.61087 
L 112.280539 68.591939 
L 112.294631 68.637415 
L 112.322814 68.540191 
L 112.388574 68.585972 
L 112.825413 68.312133 
L 112.83011 68.330471 
L 112.834807 68.337567 
L 112.877082 68.250218 
L 112.909962 68.25296 
L 113.717878 67.625924 
L 113.727273 67.643836 
" style="fill:none;stroke:#000000;stroke-linecap:square;stroke-width:0.3;"/>
   </g>
  </g>
 </g>
 <defs>
  <clipPath id="p57b99775e0">
   <rect height="63.756" width="111.6" x="7.2" y="7.2"/>
  </clipPath>
 </defs>
</svg>
