<?xml version="1.0" encoding="utf-8" standalone="no"?>
<!DOCTYPE svg PUBLIC "-//W3C//DTD SVG 1.1//EN"
  "http://www.w3.org/Graphics/SVG/1.1/DTD/svg11.dtd">
<!-- Created with matplotlib (https://matplotlib.org/) -->
<svg height="88.276375pt" version="1.1" viewBox="0 0 173.975162 88.276375" width="173.975162pt" xmlns="http://www.w3.org/2000/svg" xmlns:xlink="http://www.w3.org/1999/xlink">
 <metadata>
  <rdf:RDF xmlns:cc="http://creativecommons.org/ns#" xmlns:dc="http://purl.org/dc/elements/1.1/" xmlns:rdf="http://www.w3.org/1999/02/22-rdf-syntax-ns#">
   <cc:Work>
    <dc:type rdf:resource="http://purl.org/dc/dcmitype/StillImage"/>
    <dc:date>2020-12-16T15:49:20.251626</dc:date>
    <dc:format>image/svg+xml</dc:format>
    <dc:creator>
     <cc:Agent>
      <dc:title>Matplotlib v3.3.2, https://matplotlib.org/</dc:title>
     </cc:Agent>
    </dc:creator>
   </cc:Work>
  </rdf:RDF>
 </metadata>
 <defs>
  <style type="text/css">*{stroke-linecap:butt;stroke-linejoin:round;}</style>
 </defs>
 <g id="figure_1">
  <g id="patch_1">
   <path d="M 0 88.276375 
L 173.975162 88.276375 
L 173.975162 0 
L 0 0 
z
" style="fill:none;"/>
  </g>
  <g id="axes_1">
   <g id="patch_2">
    <path d="M 39.99075 54.591375 
L 162.75075 54.591375 
L 162.75075 10.239375 
L 39.99075 10.239375 
z
" style="fill:none;"/>
   </g>
   <g id="matplotlib.axis_1">
    <g id="xtick_1">
     <g id="line2d_1">
      <defs>
       <path d="M 0 0 
L 0 3.5 
" id="meb6af83052" style="stroke:#000000;stroke-width:1.5;"/>
      </defs>
      <g>
       <use style="stroke:#000000;stroke-width:1.5;" x="43.601338" xlink:href="#meb6af83052" y="54.591375"/>
      </g>
     </g>
     <g id="text_1">
      <text style="font-family:DejaVu Sans;font-size:8px;font-stretch:normal;font-style:normal;font-weight:normal;text-anchor:middle;" transform="rotate(-0, 43.601338, 67.670125)" x="43.601338" y="67.670125">283</text>
     </g>
    </g>
    <g id="xtick_2">
     <g id="line2d_2">
      <g>
       <use style="stroke:#000000;stroke-width:1.5;" x="72.486044" xlink:href="#meb6af83052" y="54.591375"/>
      </g>
     </g>
     <g id="text_2">
      <text style="font-family:DejaVu Sans;font-size:8px;font-stretch:normal;font-style:normal;font-weight:normal;text-anchor:middle;" transform="rotate(-0, 72.486044, 67.670125)" x="72.486044" y="67.670125">287</text>
     </g>
    </g>
    <g id="xtick_3">
     <g id="line2d_3">
      <g>
       <use style="stroke:#000000;stroke-width:1.5;" x="101.37075" xlink:href="#meb6af83052" y="54.591375"/>
      </g>
     </g>
     <g id="text_3">
      <text style="font-family:DejaVu Sans;font-size:8px;font-stretch:normal;font-style:normal;font-weight:normal;text-anchor:middle;" transform="rotate(-0, 101.37075, 67.670125)" x="101.37075" y="67.670125">291</text>
     </g>
    </g>
    <g id="xtick_4">
     <g id="line2d_4">
      <g>
       <use style="stroke:#000000;stroke-width:1.5;" x="130.255456" xlink:href="#meb6af83052" y="54.591375"/>
      </g>
     </g>
     <g id="text_4">
      <text style="font-family:DejaVu Sans;font-size:8px;font-stretch:normal;font-style:normal;font-weight:normal;text-anchor:middle;" transform="rotate(-0, 130.255456, 67.670125)" x="130.255456" y="67.670125">295</text>
     </g>
    </g>
    <g id="xtick_5">
     <g id="line2d_5">
      <g>
       <use style="stroke:#000000;stroke-width:1.5;" x="159.140162" xlink:href="#meb6af83052" y="54.591375"/>
      </g>
     </g>
     <g id="text_5">
      <text style="font-family:DejaVu Sans;font-size:8px;font-stretch:normal;font-style:normal;font-weight:normal;text-anchor:middle;" transform="rotate(-0, 159.140162, 67.670125)" x="159.140162" y="67.670125">299</text>
     </g>
    </g>
    <g id="text_6">
     <text style="font-family:DejaVu Sans;font-size:8px;font-stretch:normal;font-style:normal;font-weight:normal;text-anchor:middle;" transform="rotate(-0, 101.37075, 79.412625)" x="101.37075" y="79.412625">Temperature (°C)</text>
    </g>
   </g>
   <g id="matplotlib.axis_2">
    <g id="ytick_1">
     <g id="line2d_6">
      <defs>
       <path d="M 0 0 
L -3.5 0 
" id="m2958217f9d" style="stroke:#000000;stroke-width:1.5;"/>
      </defs>
      <g>
       <use style="stroke:#000000;stroke-width:1.5;" x="39.99075" xlink:href="#m2958217f9d" y="54.591375"/>
      </g>
     </g>
     <g id="text_7">
      <text style="font-family:DejaVu Sans;font-size:8px;font-stretch:normal;font-style:normal;font-weight:normal;text-anchor:end;" transform="rotate(-0, 32.99075, 57.63075)" x="32.99075" y="57.63075">0</text>
     </g>
    </g>
    <g id="ytick_2">
     <g id="line2d_7">
      <g>
       <use style="stroke:#000000;stroke-width:1.5;" x="39.99075" xlink:href="#m2958217f9d" y="10.239375"/>
      </g>
     </g>
     <g id="text_8">
      <text style="font-family:DejaVu Sans;font-size:8px;font-stretch:normal;font-style:normal;font-weight:normal;text-anchor:end;" transform="rotate(-0, 32.99075, 13.27875)" x="32.99075" y="13.27875">1</text>
     </g>
    </g>
    <g id="text_9">
     <text style="font-family:DejaVu Sans;font-size:8px;font-stretch:normal;font-style:normal;font-weight:normal;" transform="translate(13.27875 50.39475)rotate(-90)">Phase PY</text>
     <text style="font-family:DejaVu Sans;font-size:8px;font-stretch:normal;font-style:normal;font-weight:normal;" transform="translate(22.237 56.074125)rotate(-90)">(% of cycle)</text>
    </g>
   </g>
   <g id="line2d_8">
    <path clip-path="url(#pd41bcb4d94)" d="M 43.601338 25.409809 
L 50.822515 25.431657 
L 58.043691 25.041944 
L 65.264868 25.851995 
L 72.486044 26.39847 
L 79.707221 25.875584 
L 86.928397 26.213141 
L 94.149574 25.98629 
L 101.37075 27.045531 
L 108.591926 26.653899 
L 115.813103 26.585517 
L 123.034279 26.827721 
L 130.255456 27.145061 
L 137.476632 27.05521 
L 144.697809 27.337475 
L 151.918985 27.640779 
L 159.140162 27.470083 
" style="fill:none;stroke:#000000;stroke-linecap:square;stroke-width:1.5;"/>
   </g>
   <g id="line2d_9">
    <path clip-path="url(#pd41bcb4d94)" d="M 43.601338 25.880553 
L 50.822515 26.754133 
L 58.043691 27.359093 
L 65.264868 26.229237 
L 72.486044 28.595937 
L 79.707221 26.683731 
L 86.928397 27.737235 
L 94.149574 27.693574 
L 101.37075 27.977581 
L 108.591926 27.290758 
L 115.813103 27.743516 
L 123.034279 28.243261 
L 130.255456 28.059251 
L 137.476632 27.39385 
L 144.697809 27.952645 
L 151.918985 27.054916 
L 159.140162 27.988438 
" style="fill:none;stroke:#000000;stroke-linecap:square;stroke-width:1.5;"/>
   </g>
   <g id="line2d_10">
    <path clip-path="url(#pd41bcb4d94)" d="M 43.601338 25.463252 
L 50.822515 25.668609 
L 58.043691 26.143856 
L 65.264868 25.84584 
L 72.486044 26.205485 
L 79.707221 26.186029 
L 86.928397 27.384431 
L 94.149574 26.646637 
L 101.37075 26.953284 
L 108.591926 27.592381 
L 115.813103 27.780635 
L 123.034279 27.737977 
L 130.255456 27.517172 
L 137.476632 28.083765 
L 144.697809 28.455547 
L 151.918985 28.307643 
L 159.140162 28.61879 
" style="fill:none;stroke:#000000;stroke-linecap:square;stroke-width:1.5;"/>
   </g>
   <g id="patch_3">
    <path d="M 39.99075 54.591375 
L 39.99075 10.239375 
" style="fill:none;stroke:#000000;stroke-linecap:square;stroke-linejoin:miter;stroke-width:1.5;"/>
   </g>
   <g id="patch_4">
    <path d="M 39.99075 54.591375 
L 162.75075 54.591375 
" style="fill:none;stroke:#000000;stroke-linecap:square;stroke-linejoin:miter;stroke-width:1.5;"/>
   </g>
   <g id="PathCollection_1">
    <defs>
     <path d="M 0 1.581139 
C 0.419323 1.581139 0.821528 1.41454 1.118034 1.118034 
C 1.41454 0.821528 1.581139 0.419323 1.581139 0 
C 1.581139 -0.419323 1.41454 -0.821528 1.118034 -1.118034 
C 0.821528 -1.41454 0.419323 -1.581139 0 -1.581139 
C -0.419323 -1.581139 -0.821528 -1.41454 -1.118034 -1.118034 
C -1.41454 -0.821528 -1.581139 -0.419323 -1.581139 0 
C -1.581139 0.419323 -1.41454 0.821528 -1.118034 1.118034 
C -0.821528 1.41454 -0.419323 1.581139 0 1.581139 
z
" id="ma6fc6f6567" style="stroke:#800080;"/>
    </defs>
    <g clip-path="url(#pd41bcb4d94)">
     <use style="fill:#800080;stroke:#800080;" x="43.601338" xlink:href="#ma6fc6f6567" y="25.409809"/>
     <use style="fill:#800080;stroke:#800080;" x="50.822515" xlink:href="#ma6fc6f6567" y="25.431657"/>
     <use style="fill:#800080;stroke:#800080;" x="58.043691" xlink:href="#ma6fc6f6567" y="25.041944"/>
     <use style="fill:#800080;stroke:#800080;" x="65.264868" xlink:href="#ma6fc6f6567" y="25.851995"/>
     <use style="fill:#800080;stroke:#800080;" x="72.486044" xlink:href="#ma6fc6f6567" y="26.39847"/>
     <use style="fill:#800080;stroke:#800080;" x="79.707221" xlink:href="#ma6fc6f6567" y="25.875584"/>
     <use style="fill:#800080;stroke:#800080;" x="86.928397" xlink:href="#ma6fc6f6567" y="26.213141"/>
     <use style="fill:#800080;stroke:#800080;" x="94.149574" xlink:href="#ma6fc6f6567" y="25.98629"/>
     <use style="fill:#800080;stroke:#800080;" x="101.37075" xlink:href="#ma6fc6f6567" y="27.045531"/>
     <use style="fill:#800080;stroke:#800080;" x="108.591926" xlink:href="#ma6fc6f6567" y="26.653899"/>
     <use style="fill:#800080;stroke:#800080;" x="115.813103" xlink:href="#ma6fc6f6567" y="26.585517"/>
     <use style="fill:#800080;stroke:#800080;" x="123.034279" xlink:href="#ma6fc6f6567" y="26.827721"/>
     <use style="fill:#800080;stroke:#800080;" x="130.255456" xlink:href="#ma6fc6f6567" y="27.145061"/>
     <use style="fill:#800080;stroke:#800080;" x="137.476632" xlink:href="#ma6fc6f6567" y="27.05521"/>
     <use style="fill:#800080;stroke:#800080;" x="144.697809" xlink:href="#ma6fc6f6567" y="27.337475"/>
     <use style="fill:#800080;stroke:#800080;" x="151.918985" xlink:href="#ma6fc6f6567" y="27.640779"/>
     <use style="fill:#800080;stroke:#800080;" x="159.140162" xlink:href="#ma6fc6f6567" y="27.470083"/>
    </g>
   </g>
   <g id="PathCollection_2">
    <g clip-path="url(#pd41bcb4d94)">
     <use style="fill:#800080;stroke:#800080;" x="43.601338" xlink:href="#ma6fc6f6567" y="25.880553"/>
     <use style="fill:#800080;stroke:#800080;" x="50.822515" xlink:href="#ma6fc6f6567" y="26.754133"/>
     <use style="fill:#800080;stroke:#800080;" x="58.043691" xlink:href="#ma6fc6f6567" y="27.359093"/>
     <use style="fill:#800080;stroke:#800080;" x="65.264868" xlink:href="#ma6fc6f6567" y="26.229237"/>
     <use style="fill:#800080;stroke:#800080;" x="72.486044" xlink:href="#ma6fc6f6567" y="28.595937"/>
     <use style="fill:#800080;stroke:#800080;" x="79.707221" xlink:href="#ma6fc6f6567" y="26.683731"/>
     <use style="fill:#800080;stroke:#800080;" x="86.928397" xlink:href="#ma6fc6f6567" y="27.737235"/>
     <use style="fill:#800080;stroke:#800080;" x="94.149574" xlink:href="#ma6fc6f6567" y="27.693574"/>
     <use style="fill:#800080;stroke:#800080;" x="101.37075" xlink:href="#ma6fc6f6567" y="27.977581"/>
     <use style="fill:#800080;stroke:#800080;" x="108.591926" xlink:href="#ma6fc6f6567" y="27.290758"/>
     <use style="fill:#800080;stroke:#800080;" x="115.813103" xlink:href="#ma6fc6f6567" y="27.743516"/>
     <use style="fill:#800080;stroke:#800080;" x="123.034279" xlink:href="#ma6fc6f6567" y="28.243261"/>
     <use style="fill:#800080;stroke:#800080;" x="130.255456" xlink:href="#ma6fc6f6567" y="28.059251"/>
     <use style="fill:#800080;stroke:#800080;" x="137.476632" xlink:href="#ma6fc6f6567" y="27.39385"/>
     <use style="fill:#800080;stroke:#800080;" x="144.697809" xlink:href="#ma6fc6f6567" y="27.952645"/>
     <use style="fill:#800080;stroke:#800080;" x="151.918985" xlink:href="#ma6fc6f6567" y="27.054916"/>
     <use style="fill:#800080;stroke:#800080;" x="159.140162" xlink:href="#ma6fc6f6567" y="27.988438"/>
    </g>
   </g>
   <g id="PathCollection_3">
    <g clip-path="url(#pd41bcb4d94)">
     <use style="fill:#800080;stroke:#800080;" x="43.601338" xlink:href="#ma6fc6f6567" y="25.463252"/>
     <use style="fill:#800080;stroke:#800080;" x="50.822515" xlink:href="#ma6fc6f6567" y="25.668609"/>
     <use style="fill:#800080;stroke:#800080;" x="58.043691" xlink:href="#ma6fc6f6567" y="26.143856"/>
     <use style="fill:#800080;stroke:#800080;" x="65.264868" xlink:href="#ma6fc6f6567" y="25.84584"/>
     <use style="fill:#800080;stroke:#800080;" x="72.486044" xlink:href="#ma6fc6f6567" y="26.205485"/>
     <use style="fill:#800080;stroke:#800080;" x="79.707221" xlink:href="#ma6fc6f6567" y="26.186029"/>
     <use style="fill:#800080;stroke:#800080;" x="86.928397" xlink:href="#ma6fc6f6567" y="27.384431"/>
     <use style="fill:#800080;stroke:#800080;" x="94.149574" xlink:href="#ma6fc6f6567" y="26.646637"/>
     <use style="fill:#800080;stroke:#800080;" x="101.37075" xlink:href="#ma6fc6f6567" y="26.953284"/>
     <use style="fill:#800080;stroke:#800080;" x="108.591926" xlink:href="#ma6fc6f6567" y="27.592381"/>
     <use style="fill:#800080;stroke:#800080;" x="115.813103" xlink:href="#ma6fc6f6567" y="27.780635"/>
     <use style="fill:#800080;stroke:#800080;" x="123.034279" xlink:href="#ma6fc6f6567" y="27.737977"/>
     <use style="fill:#800080;stroke:#800080;" x="130.255456" xlink:href="#ma6fc6f6567" y="27.517172"/>
     <use style="fill:#800080;stroke:#800080;" x="137.476632" xlink:href="#ma6fc6f6567" y="28.083765"/>
     <use style="fill:#800080;stroke:#800080;" x="144.697809" xlink:href="#ma6fc6f6567" y="28.455547"/>
     <use style="fill:#800080;stroke:#800080;" x="151.918985" xlink:href="#ma6fc6f6567" y="28.307643"/>
     <use style="fill:#800080;stroke:#800080;" x="159.140162" xlink:href="#ma6fc6f6567" y="28.61879"/>
    </g>
   </g>
   <g id="PathCollection_4">
    <defs>
     <path d="M 0 2.738613 
C 0.726289 2.738613 1.422928 2.450055 1.936492 1.936492 
C 2.450055 1.422928 2.738613 0.726289 2.738613 0 
C 2.738613 -0.726289 2.450055 -1.422928 1.936492 -1.936492 
C 1.422928 -2.450055 0.726289 -2.738613 0 -2.738613 
C -0.726289 -2.738613 -1.422928 -2.450055 -1.936492 -1.936492 
C -2.450055 -1.422928 -2.738613 -0.726289 -2.738613 0 
C -2.738613 0.726289 -2.450055 1.422928 -1.936492 1.936492 
C -1.422928 2.450055 -0.726289 2.738613 0 2.738613 
z
" id="m273e543998" style="stroke:#008000;"/>
    </defs>
    <g clip-path="url(#pd41bcb4d94)">
     <use style="fill:#008000;stroke:#008000;" x="43.601338" xlink:href="#m273e543998" y="26.625448"/>
    </g>
   </g>
   <g id="PathCollection_5">
    <g clip-path="url(#pd41bcb4d94)">
     <use style="fill:#008000;stroke:#008000;" x="159.140162" xlink:href="#m273e543998" y="28.897073"/>
    </g>
   </g>
  </g>
 </g>
 <defs>
  <clipPath id="pd41bcb4d94">
   <rect height="44.352" width="122.76" x="39.99075" y="10.239375"/>
  </clipPath>
 </defs>
</svg>
