<?xml version="1.0" encoding="utf-8" standalone="no"?>
<!DOCTYPE svg PUBLIC "-//W3C//DTD SVG 1.1//EN"
  "http://www.w3.org/Graphics/SVG/1.1/DTD/svg11.dtd">
<!-- Created with matplotlib (https://matplotlib.org/) -->
<svg height="73.34pt" version="1.1" viewBox="0 0 419.66 73.34" width="419.66pt" xmlns="http://www.w3.org/2000/svg" xmlns:xlink="http://www.w3.org/1999/xlink">
 <metadata>
  <rdf:RDF xmlns:cc="http://creativecommons.org/ns#" xmlns:dc="http://purl.org/dc/elements/1.1/" xmlns:rdf="http://www.w3.org/1999/02/22-rdf-syntax-ns#">
   <cc:Work>
    <dc:type rdf:resource="http://purl.org/dc/dcmitype/StillImage"/>
    <dc:date>2020-10-27T17:16:35.500393</dc:date>
    <dc:format>image/svg+xml</dc:format>
    <dc:creator>
     <cc:Agent>
      <dc:title>Matplotlib v3.3.2, https://matplotlib.org/</dc:title>
     </cc:Agent>
    </dc:creator>
   </cc:Work>
  </rdf:RDF>
 </metadata>
 <defs>
  <style type="text/css">*{stroke-linecap:butt;stroke-linejoin:round;}</style>
 </defs>
 <g id="figure_1">
  <g id="patch_1">
   <path d="M 0 73.34 
L 419.66 73.34 
L 419.66 0 
L 0 0 
z
" style="fill:none;"/>
  </g>
  <g id="axes_1">
   <g id="patch_2">
    <path d="M 10.7 62.64 
L 53.440426 62.64 
L 53.440426 7.2 
L 10.7 7.2 
z
" style="fill:none;"/>
   </g>
   <g id="matplotlib.axis_1"/>
   <g id="matplotlib.axis_2"/>
   <g id="line2d_1">
    <path clip-path="url(#p7ee7cb75f5)" d="M 12.642747 60.12 
L 13.982572 60.12 
L 15.322397 59.3325 
L 16.662222 58.545 
L 18.002048 56.57625 
L 19.341873 56.57625 
L 20.681698 51.06375 
L 22.021523 51.06375 
L 23.361349 47.91375 
L 24.701174 44.76375 
L 26.040999 44.37 
L 27.380824 37.2825 
L 28.72065 31.37625 
L 30.060475 36.495 
L 31.4003 27.8325 
L 32.740125 25.47 
L 34.079951 23.895 
L 35.419776 17.595 
L 36.759601 17.98875 
L 38.099426 18.3825 
L 39.439252 23.50125 
L 40.779077 14.83875 
L 42.118902 15.2325 
L 43.458727 15.2325 
L 44.798553 17.98875 
L 46.138378 9.72 
L 47.478203 21.92625 
L 48.818028 11.295 
L 50.157854 23.1075 
L 51.497679 25.47 
" style="fill:none;stroke:#1f77b4;stroke-linecap:square;stroke-width:1.5;"/>
   </g>
   <g id="line2d_2">
    <path clip-path="url(#p7ee7cb75f5)" d="M 12.642747 60.12 
L 13.982572 60.12 
L 15.322397 59.3325 
L 16.662222 56.57625 
L 18.002048 55.395 
L 19.341873 53.42625 
L 20.681698 51.4575 
L 22.021523 47.91375 
L 23.361349 45.1575 
L 24.701174 43.5825 
L 26.040999 42.40125 
L 27.380824 38.46375 
L 28.72065 31.77 
L 30.060475 20.745 
L 31.4003 33.345 
L 32.740125 19.9575 
L 34.079951 23.1075 
L 35.419776 22.32 
L 36.759601 16.41375 
L 38.099426 18.3825 
L 39.439252 17.595 
L 40.779077 24.6825 
L 42.118902 14.83875 
L 43.458727 20.35125 
L 44.798553 23.50125 
L 46.138378 22.32 
L 47.478203 21.5325 
L 48.818028 19.56375 
L 50.157854 19.56375 
L 51.497679 20.745 
" style="fill:none;stroke:#ff0000;stroke-linecap:square;stroke-width:1.5;"/>
   </g>
   <g id="patch_3">
    <path d="M 10.7 62.64 
L 10.7 7.2 
" style="fill:none;stroke:#000000;stroke-linecap:square;stroke-linejoin:miter;stroke-width:1.5;"/>
   </g>
   <g id="patch_4">
    <path d="M 10.7 62.64 
L 53.440426 62.64 
" style="fill:none;stroke:#000000;stroke-linecap:square;stroke-linejoin:miter;stroke-width:1.5;"/>
   </g>
  </g>
  <g id="axes_2">
   <g id="patch_5">
    <path d="M 61.988511 62.64 
L 104.728936 62.64 
L 104.728936 7.2 
L 61.988511 7.2 
z
" style="fill:none;"/>
   </g>
   <g id="matplotlib.axis_3"/>
   <g id="matplotlib.axis_4"/>
   <g id="line2d_3">
    <path clip-path="url(#p82ff314ead)" d="M 63.931257 60.12 
L 65.271083 60.12 
L 66.610908 59.356364 
L 67.950733 58.974545 
L 69.290558 58.592727 
L 70.630384 55.538182 
L 71.970209 45.992727 
L 73.310034 47.901818 
L 74.649859 37.592727 
L 75.989685 36.829091 
L 77.32951 34.92 
L 78.669335 37.592727 
L 80.00916 28.047273 
L 81.348986 24.610909 
L 82.688811 26.901818 
L 84.028636 14.301818 
L 85.368461 20.792727 
L 86.708287 9.72 
L 88.048112 17.738182 
L 89.387937 24.992727 
L 90.727762 22.32 
L 92.067588 26.138182 
L 93.407413 22.701818 
L 94.747238 21.174545 
L 96.087063 16.210909 
L 97.426889 29.192727 
L 98.766714 29.192727 
L 100.106539 29.574545 
L 101.446364 35.301818 
L 102.78619 37.210909 
" style="fill:none;stroke:#1f77b4;stroke-linecap:square;stroke-width:1.5;"/>
   </g>
   <g id="line2d_4">
    <path clip-path="url(#p82ff314ead)" d="M 63.931257 60.12 
L 65.271083 59.738182 
L 66.610908 60.12 
L 67.950733 58.592727 
L 69.290558 56.301818 
L 70.630384 52.101818 
L 71.970209 50.956364 
L 73.310034 44.847273 
L 74.649859 39.12 
L 75.989685 40.265455 
L 77.32951 33.774545 
L 78.669335 32.247273 
L 80.00916 26.138182 
L 81.348986 25.374545 
L 82.688811 15.065455 
L 84.028636 16.974545 
L 85.368461 20.029091 
L 86.708287 20.410909 
L 88.048112 23.465455 
L 89.387937 24.229091 
L 90.727762 16.974545 
L 92.067588 30.72 
L 93.407413 24.229091 
L 94.747238 23.465455 
L 96.087063 13.92 
L 97.426889 27.283636 
L 98.766714 28.429091 
L 100.106539 33.392727 
L 101.446364 33.010909 
L 102.78619 37.974545 
" style="fill:none;stroke:#ff0000;stroke-linecap:square;stroke-width:1.5;"/>
   </g>
   <g id="patch_6">
    <path d="M 61.988511 62.64 
L 61.988511 7.2 
" style="fill:none;stroke:#000000;stroke-linecap:square;stroke-linejoin:miter;stroke-width:1.5;"/>
   </g>
   <g id="patch_7">
    <path d="M 61.988511 62.64 
L 104.728936 62.64 
" style="fill:none;stroke:#000000;stroke-linecap:square;stroke-linejoin:miter;stroke-width:1.5;"/>
   </g>
  </g>
  <g id="axes_3">
   <g id="patch_8">
    <path d="M 113.277021 62.64 
L 156.017447 62.64 
L 156.017447 7.2 
L 113.277021 7.2 
z
" style="fill:none;"/>
   </g>
   <g id="matplotlib.axis_5"/>
   <g id="matplotlib.axis_6"/>
   <g id="line2d_5">
    <path clip-path="url(#p39d37f913d)" d="M 115.219768 60.12 
L 116.559593 59.246012 
L 117.899418 59.828671 
L 119.239244 59.246012 
L 120.579069 58.080694 
L 121.918894 56.915376 
L 123.258719 57.206705 
L 124.598545 57.206705 
L 125.93837 54.29341 
L 127.278195 54.002081 
L 128.61802 53.419422 
L 129.957846 51.088786 
L 131.297671 46.136185 
L 132.637496 47.884162 
L 133.977321 44.970867 
L 135.317147 44.679538 
L 136.656972 42.348902 
L 137.996797 36.230983 
L 139.336622 37.68763 
L 140.676448 33.609017 
L 142.016273 31.569711 
L 143.356098 25.743121 
L 144.695923 24.869133 
L 146.035749 25.451792 
L 147.375574 20.207861 
L 148.715399 24.869133 
L 150.055224 16.711908 
L 151.39505 14.963931 
L 152.734875 12.924624 
L 154.0747 9.72 
" style="fill:none;stroke:#1f77b4;stroke-linecap:square;stroke-width:1.5;"/>
   </g>
   <g id="line2d_6">
    <path clip-path="url(#p39d37f913d)" d="M 115.219768 60.12 
L 116.559593 59.828671 
L 117.899418 59.537341 
L 119.239244 60.12 
L 120.579069 59.537341 
L 121.918894 59.246012 
L 123.258719 57.789364 
L 124.598545 57.789364 
L 125.93837 54.876069 
L 127.278195 54.29341 
L 128.61802 54.58474 
L 129.957846 52.836763 
L 131.297671 46.427514 
L 132.637496 47.884162 
L 133.977321 44.096879 
L 135.317147 46.427514 
L 136.656972 38.852948 
L 137.996797 34.483006 
L 139.336622 31.569711 
L 140.676448 29.530405 
L 142.016273 30.404393 
L 143.356098 19.916532 
L 144.695923 26.32578 
L 146.035749 25.160462 
L 147.375574 26.61711 
L 148.715399 18.751214 
L 150.055224 17.585896 
L 151.39505 17.585896 
L 152.734875 16.420578 
L 154.0747 13.215954 
" style="fill:none;stroke:#ff0000;stroke-linecap:square;stroke-width:1.5;"/>
   </g>
   <g id="patch_9">
    <path d="M 113.277021 62.64 
L 113.277021 7.2 
" style="fill:none;stroke:#000000;stroke-linecap:square;stroke-linejoin:miter;stroke-width:1.5;"/>
   </g>
   <g id="patch_10">
    <path d="M 113.277021 62.64 
L 156.017447 62.64 
" style="fill:none;stroke:#000000;stroke-linecap:square;stroke-linejoin:miter;stroke-width:1.5;"/>
   </g>
  </g>
  <g id="axes_4">
   <g id="patch_11">
    <path d="M 164.565532 62.64 
L 207.305957 62.64 
L 207.305957 7.2 
L 164.565532 7.2 
z
" style="fill:none;"/>
   </g>
   <g id="matplotlib.axis_7"/>
   <g id="matplotlib.axis_8"/>
   <g id="line2d_7">
    <path clip-path="url(#p92aa5136da)" d="M 166.508279 9.72 
L 167.848104 27.045 
L 169.187929 11.295 
L 170.527754 34.92 
L 171.86758 30.195 
L 173.207405 23.895 
L 174.54723 31.77 
L 175.887055 28.62 
L 177.226881 37.2825 
L 178.566706 28.62 
L 179.906531 38.8575 
L 181.246356 27.045 
L 182.586182 23.1075 
L 183.926007 33.345 
L 185.265832 32.5575 
L 186.605657 37.2825 
L 187.945483 47.52 
L 189.285308 42.795 
L 190.625133 35.7075 
L 191.964958 50.67 
L 193.304784 41.22 
L 194.644609 53.0325 
L 195.984434 52.245 
L 197.324259 45.945 
L 198.664085 46.7325 
L 200.00391 38.8575 
L 201.343735 55.395 
L 202.68356 52.245 
L 204.023386 58.545 
L 205.363211 53.0325 
" style="fill:none;stroke:#1f77b4;stroke-linecap:square;stroke-width:1.5;"/>
   </g>
   <g id="line2d_8">
    <path clip-path="url(#p92aa5136da)" d="M 166.508279 11.295 
L 167.848104 22.32 
L 169.187929 22.32 
L 170.527754 10.5075 
L 171.86758 25.47 
L 173.207405 12.0825 
L 174.54723 37.2825 
L 175.887055 23.895 
L 177.226881 44.37 
L 178.566706 27.045 
L 179.906531 37.2825 
L 181.246356 34.92 
L 182.586182 42.0075 
L 183.926007 34.92 
L 185.265832 34.92 
L 186.605657 43.5825 
L 187.945483 37.2825 
L 189.285308 33.345 
L 190.625133 48.3075 
L 191.964958 40.4325 
L 193.304784 60.12 
L 194.644609 42.795 
L 195.984434 48.3075 
L 197.324259 49.095 
L 198.664085 42.0075 
L 200.00391 48.3075 
L 201.343735 39.645 
L 202.68356 56.97 
L 204.023386 60.12 
L 205.363211 58.545 
" style="fill:none;stroke:#ff0000;stroke-linecap:square;stroke-width:1.5;"/>
   </g>
   <g id="patch_12">
    <path d="M 164.565532 62.64 
L 164.565532 7.2 
" style="fill:none;stroke:#000000;stroke-linecap:square;stroke-linejoin:miter;stroke-width:1.5;"/>
   </g>
   <g id="patch_13">
    <path d="M 164.565532 62.64 
L 207.305957 62.64 
" style="fill:none;stroke:#000000;stroke-linecap:square;stroke-linejoin:miter;stroke-width:1.5;"/>
   </g>
  </g>
  <g id="axes_5">
   <g id="patch_14">
    <path d="M 215.854043 62.64 
L 258.594468 62.64 
L 258.594468 7.2 
L 215.854043 7.2 
z
" style="fill:none;"/>
   </g>
   <g id="matplotlib.axis_9"/>
   <g id="matplotlib.axis_10"/>
   <g id="line2d_9">
    <path clip-path="url(#p2467f98fb6)" d="M 217.796789 21.578824 
L 219.136614 16.072941 
L 220.47644 19.884706 
L 221.816265 18.614118 
L 223.15609 17.767059 
L 224.495915 18.190588 
L 225.835741 22.425882 
L 227.175566 19.037647 
L 228.515391 14.802353 
L 229.855216 18.614118 
L 231.195042 21.155294 
L 232.534867 33.861176 
L 233.874692 24.543529 
L 235.214517 29.202353 
L 236.554343 19.461176 
L 237.894168 33.014118 
L 239.233993 35.978824 
L 240.573818 32.167059 
L 241.913644 31.743529 
L 243.253469 42.755294 
L 244.593294 41.484706 
L 245.933119 45.72 
L 247.272945 49.108235 
L 248.61277 53.767059 
L 249.952595 52.072941 
L 251.29242 56.731765 
L 252.632246 56.308235 
L 253.972071 57.578824 
L 255.311896 58.425882 
L 256.651721 58.849412 
" style="fill:none;stroke:#1f77b4;stroke-linecap:square;stroke-width:1.5;"/>
   </g>
   <g id="line2d_10">
    <path clip-path="url(#p2467f98fb6)" d="M 217.796789 18.190588 
L 219.136614 24.12 
L 220.47644 17.343529 
L 221.816265 20.308235 
L 223.15609 18.614118 
L 224.495915 14.802353 
L 225.835741 14.378824 
L 227.175566 15.225882 
L 228.515391 9.72 
L 229.855216 18.614118 
L 231.195042 19.037647 
L 232.534867 20.308235 
L 233.874692 30.049412 
L 235.214517 28.355294 
L 236.554343 30.472941 
L 237.894168 31.743529 
L 239.233993 33.861176 
L 240.573818 40.637647 
L 241.913644 39.790588 
L 243.253469 39.367059 
L 244.593294 44.449412 
L 245.933119 46.567059 
L 247.272945 47.837647 
L 248.61277 56.731765 
L 249.952595 51.225882 
L 251.29242 58.002353 
L 252.632246 56.731765 
L 253.972071 57.155294 
L 255.311896 57.578824 
L 256.651721 60.12 
" style="fill:none;stroke:#ff0000;stroke-linecap:square;stroke-width:1.5;"/>
   </g>
   <g id="patch_15">
    <path d="M 215.854043 62.64 
L 215.854043 7.2 
" style="fill:none;stroke:#000000;stroke-linecap:square;stroke-linejoin:miter;stroke-width:1.5;"/>
   </g>
   <g id="patch_16">
    <path d="M 215.854043 62.64 
L 258.594468 62.64 
" style="fill:none;stroke:#000000;stroke-linecap:square;stroke-linejoin:miter;stroke-width:1.5;"/>
   </g>
  </g>
  <g id="axes_6">
   <g id="patch_17">
    <path d="M 267.142553 62.64 
L 309.882979 62.64 
L 309.882979 7.2 
L 267.142553 7.2 
z
" style="fill:none;"/>
   </g>
   <g id="matplotlib.axis_11"/>
   <g id="matplotlib.axis_12"/>
   <g id="line2d_11">
    <path clip-path="url(#p4317e173bc)" d="M 269.0853 52.92 
L 270.425125 52.12 
L 271.76495 51.32 
L 273.104776 41.72 
L 274.444601 48.12 
L 275.784426 44.92 
L 277.124251 45.72 
L 278.464077 40.12 
L 279.803902 30.52 
L 281.143727 41.72 
L 282.483552 40.92 
L 283.823378 21.72 
L 285.163203 35.32 
L 286.503028 35.32 
L 287.842853 29.72 
L 289.182679 26.52 
L 290.522504 19.32 
L 291.862329 32.92 
L 293.202154 15.32 
L 294.54198 19.32 
L 295.881805 9.72 
L 297.22163 34.52 
L 298.561455 17.72 
L 299.901281 15.32 
L 301.241106 19.32 
L 302.580931 20.92 
L 303.920756 27.32 
L 305.260582 26.52 
L 306.600407 24.12 
L 307.940232 27.32 
" style="fill:none;stroke:#1f77b4;stroke-linecap:square;stroke-width:1.5;"/>
   </g>
   <g id="line2d_12">
    <path clip-path="url(#p4317e173bc)" d="M 269.0853 59.32 
L 270.425125 60.12 
L 271.76495 46.52 
L 273.104776 43.32 
L 274.444601 44.12 
L 275.784426 36.12 
L 277.124251 40.12 
L 278.464077 38.52 
L 279.803902 40.12 
L 281.143727 18.52 
L 282.483552 39.32 
L 283.823378 32.12 
L 285.163203 35.32 
L 286.503028 28.12 
L 287.842853 30.52 
L 289.182679 17.72 
L 290.522504 25.72 
L 291.862329 20.92 
L 293.202154 34.52 
L 294.54198 28.92 
L 295.881805 28.12 
L 297.22163 9.72 
L 298.561455 26.52 
L 299.901281 22.52 
L 301.241106 16.92 
L 302.580931 18.52 
L 303.920756 16.92 
L 305.260582 29.72 
L 306.600407 34.52 
L 307.940232 25.72 
" style="fill:none;stroke:#ff0000;stroke-linecap:square;stroke-width:1.5;"/>
   </g>
   <g id="patch_18">
    <path d="M 267.142553 62.64 
L 267.142553 7.2 
" style="fill:none;stroke:#000000;stroke-linecap:square;stroke-linejoin:miter;stroke-width:1.5;"/>
   </g>
   <g id="patch_19">
    <path d="M 267.142553 62.64 
L 309.882979 62.64 
" style="fill:none;stroke:#000000;stroke-linecap:square;stroke-linejoin:miter;stroke-width:1.5;"/>
   </g>
  </g>
  <g id="axes_7">
   <g id="patch_20">
    <path d="M 318.431064 62.64 
L 361.171489 62.64 
L 361.171489 7.2 
L 318.431064 7.2 
z
" style="fill:none;"/>
   </g>
   <g id="matplotlib.axis_13"/>
   <g id="matplotlib.axis_14"/>
   <g id="line2d_13">
    <path clip-path="url(#p036bbe2513)" d="M 320.37381 51.72 
L 321.713636 56.52 
L 323.053461 55.92 
L 324.393286 58.32 
L 325.733111 60.12 
L 327.072937 51.72 
L 328.412762 50.52 
L 329.752587 48.12 
L 331.092412 55.92 
L 332.432238 40.32 
L 333.772063 39.12 
L 335.111888 28.92 
L 336.451713 32.52 
L 337.791539 30.72 
L 339.131364 28.92 
L 340.471189 31.32 
L 341.811014 24.12 
L 343.15084 9.72 
L 344.490665 34.32 
L 345.83049 27.72 
L 347.170315 24.72 
L 348.510141 33.12 
L 349.849966 30.72 
L 351.189791 24.12 
L 352.529616 18.12 
L 353.869442 28.32 
L 355.209267 31.32 
L 356.549092 23.52 
L 357.888917 37.92 
L 359.228743 21.72 
" style="fill:none;stroke:#1f77b4;stroke-linecap:square;stroke-width:1.5;"/>
   </g>
   <g id="line2d_14">
    <path clip-path="url(#p036bbe2513)" d="M 320.37381 57.12 
L 321.713636 59.52 
L 323.053461 58.32 
L 324.393286 52.32 
L 325.733111 46.32 
L 327.072937 54.72 
L 328.412762 39.12 
L 329.752587 41.52 
L 331.092412 38.52 
L 332.432238 37.92 
L 333.772063 36.72 
L 335.111888 29.52 
L 336.451713 25.32 
L 337.791539 33.72 
L 339.131364 19.32 
L 340.471189 27.72 
L 341.811014 22.32 
L 343.15084 19.32 
L 344.490665 33.12 
L 345.83049 32.52 
L 347.170315 27.72 
L 348.510141 38.52 
L 349.849966 36.12 
L 351.189791 28.92 
L 352.529616 30.72 
L 353.869442 27.12 
L 355.209267 34.32 
L 356.549092 37.32 
L 357.888917 28.92 
L 359.228743 36.12 
" style="fill:none;stroke:#ff0000;stroke-linecap:square;stroke-width:1.5;"/>
   </g>
   <g id="patch_21">
    <path d="M 318.431064 62.64 
L 318.431064 7.2 
" style="fill:none;stroke:#000000;stroke-linecap:square;stroke-linejoin:miter;stroke-width:1.5;"/>
   </g>
   <g id="patch_22">
    <path d="M 318.431064 62.64 
L 361.171489 62.64 
" style="fill:none;stroke:#000000;stroke-linecap:square;stroke-linejoin:miter;stroke-width:1.5;"/>
   </g>
  </g>
  <g id="axes_8">
   <g id="patch_23">
    <path d="M 369.719574 62.64 
L 412.46 62.64 
L 412.46 7.2 
L 369.719574 7.2 
z
" style="fill:none;"/>
   </g>
   <g id="matplotlib.axis_15"/>
   <g id="matplotlib.axis_16"/>
   <g id="line2d_15">
    <path clip-path="url(#p3ab7f2964e)" d="M 371.662321 36.282162 
L 373.002146 36.282162 
L 374.341972 26.065946 
L 375.681797 19.255135 
L 377.021622 19.255135 
L 378.361447 28.109189 
L 379.701273 20.617297 
L 381.041098 24.022703 
L 382.380923 37.644324 
L 383.720748 36.963243 
L 385.060574 40.368649 
L 386.400399 32.876757 
L 387.740224 44.455135 
L 389.080049 36.282162 
L 390.419875 41.730811 
L 391.7597 45.817297 
L 393.099525 51.947027 
L 394.43935 45.136216 
L 395.779176 41.730811 
L 397.119001 34.238919 
L 398.458826 44.455135 
L 399.798651 42.411892 
L 401.138477 32.195676 
L 402.478302 37.644324 
L 403.818127 39.687568 
L 405.157952 52.628108 
L 406.497778 51.947027 
L 407.837603 43.774054 
L 409.177428 51.947027 
L 410.517253 41.730811 
" style="fill:none;stroke:#1f77b4;stroke-linecap:square;stroke-width:1.5;"/>
   </g>
   <g id="line2d_16">
    <path clip-path="url(#p3ab7f2964e)" d="M 371.662321 12.444324 
L 373.002146 18.574054 
L 374.341972 9.72 
L 375.681797 18.574054 
L 377.021622 9.72 
L 378.361447 15.84973 
L 379.701273 26.747027 
L 381.041098 24.703784 
L 382.380923 21.979459 
L 383.720748 25.384865 
L 385.060574 33.557838 
L 386.400399 47.860541 
L 387.740224 36.282162 
L 389.080049 41.730811 
L 390.419875 46.498378 
L 391.7597 42.411892 
L 393.099525 53.99027 
L 394.43935 51.947027 
L 395.779176 54.671351 
L 397.119001 48.541622 
L 398.458826 49.903784 
L 399.798651 32.876757 
L 401.138477 48.541622 
L 402.478302 36.963243 
L 403.818127 50.584865 
L 405.157952 50.584865 
L 406.497778 52.628108 
L 407.837603 58.076757 
L 409.177428 57.395676 
L 410.517253 60.12 
" style="fill:none;stroke:#ff0000;stroke-linecap:square;stroke-width:1.5;"/>
   </g>
   <g id="patch_24">
    <path d="M 369.719574 62.64 
L 369.719574 7.2 
" style="fill:none;stroke:#000000;stroke-linecap:square;stroke-linejoin:miter;stroke-width:1.5;"/>
   </g>
   <g id="patch_25">
    <path d="M 369.719574 62.64 
L 412.46 62.64 
" style="fill:none;stroke:#000000;stroke-linecap:square;stroke-linejoin:miter;stroke-width:1.5;"/>
   </g>
  </g>
 </g>
 <defs>
  <clipPath id="p7ee7cb75f5">
   <rect height="55.44" width="42.740426" x="10.7" y="7.2"/>
  </clipPath>
  <clipPath id="p82ff314ead">
   <rect height="55.44" width="42.740426" x="61.988511" y="7.2"/>
  </clipPath>
  <clipPath id="p39d37f913d">
   <rect height="55.44" width="42.740426" x="113.277021" y="7.2"/>
  </clipPath>
  <clipPath id="p92aa5136da">
   <rect height="55.44" width="42.740426" x="164.565532" y="7.2"/>
  </clipPath>
  <clipPath id="p2467f98fb6">
   <rect height="55.44" width="42.740426" x="215.854043" y="7.2"/>
  </clipPath>
  <clipPath id="p4317e173bc">
   <rect height="55.44" width="42.740426" x="267.142553" y="7.2"/>
  </clipPath>
  <clipPath id="p036bbe2513">
   <rect height="55.44" width="42.740426" x="318.431064" y="7.2"/>
  </clipPath>
  <clipPath id="p3ab7f2964e">
   <rect height="55.44" width="42.740426" x="369.719574" y="7.2"/>
  </clipPath>
 </defs>
</svg>
