<?xml version="1.0" encoding="utf-8" standalone="no"?>
<!DOCTYPE svg PUBLIC "-//W3C//DTD SVG 1.1//EN"
  "http://www.w3.org/Graphics/SVG/1.1/DTD/svg11.dtd">
<!-- Created with matplotlib (https://matplotlib.org/) -->
<svg height="73.34pt" version="1.1" viewBox="0 0 419.66 73.34" width="419.66pt" xmlns="http://www.w3.org/2000/svg" xmlns:xlink="http://www.w3.org/1999/xlink">
 <metadata>
  <rdf:RDF xmlns:cc="http://creativecommons.org/ns#" xmlns:dc="http://purl.org/dc/elements/1.1/" xmlns:rdf="http://www.w3.org/1999/02/22-rdf-syntax-ns#">
   <cc:Work>
    <dc:type rdf:resource="http://purl.org/dc/dcmitype/StillImage"/>
    <dc:date>2020-12-16T14:57:31.846194</dc:date>
    <dc:format>image/svg+xml</dc:format>
    <dc:creator>
     <cc:Agent>
      <dc:title>Matplotlib v3.3.2, https://matplotlib.org/</dc:title>
     </cc:Agent>
    </dc:creator>
   </cc:Work>
  </rdf:RDF>
 </metadata>
 <defs>
  <style type="text/css">*{stroke-linecap:butt;stroke-linejoin:round;}</style>
 </defs>
 <g id="figure_1">
  <g id="patch_1">
   <path d="M 0 73.34 
L 419.66 73.34 
L 419.66 0 
L 0 0 
z
" style="fill:none;"/>
  </g>
  <g id="axes_1">
   <g id="patch_2">
    <path d="M 10.7 62.64 
L 53.440426 62.64 
L 53.440426 7.2 
L 10.7 7.2 
z
" style="fill:none;"/>
   </g>
   <g id="matplotlib.axis_1"/>
   <g id="matplotlib.axis_2"/>
   <g id="line2d_1">
    <path clip-path="url(#p0ba275402c)" d="M 12.642747 60.12 
L 13.982572 52.28 
L 15.322397 45.933333 
L 16.662222 41.08 
L 18.002048 28.013333 
L 19.341873 28.013333 
L 20.681698 23.533333 
L 22.021523 26.146667 
L 23.361349 14.946667 
L 24.701174 17.186667 
L 26.040999 12.333333 
L 27.380824 14.946667 
L 28.72065 10.093333 
L 30.060475 16.44 
L 31.4003 14.946667 
L 32.740125 17.933333 
L 34.079951 10.466667 
L 35.419776 19.426667 
L 36.759601 19.053333 
L 38.099426 26.146667 
L 39.439252 27.266667 
L 40.779077 27.266667 
L 42.118902 25.026667 
L 43.458727 28.386667 
L 44.798553 32.493333 
L 46.138378 37.346667 
L 47.478203 37.72 
L 48.818028 34.36 
L 50.157854 38.466667 
L 51.497679 41.826667 
" style="fill:none;stroke:#1f77b4;stroke-linecap:square;stroke-width:1.5;"/>
   </g>
   <g id="line2d_2">
    <path clip-path="url(#p0ba275402c)" d="M 12.642747 58.253333 
L 13.982572 56.386667 
L 15.322397 42.2 
L 16.662222 34.733333 
L 18.002048 32.12 
L 19.341873 20.546667 
L 20.681698 17.186667 
L 22.021523 13.826667 
L 23.361349 14.2 
L 24.701174 13.08 
L 26.040999 20.546667 
L 27.380824 17.56 
L 28.72065 19.8 
L 30.060475 9.72 
L 31.4003 18.306667 
L 32.740125 17.933333 
L 34.079951 13.08 
L 35.419776 22.04 
L 36.759601 23.16 
L 38.099426 25.4 
L 39.439252 20.92 
L 40.779077 23.16 
L 42.118902 28.386667 
L 43.458727 38.466667 
L 44.798553 43.693333 
L 46.138378 36.6 
L 47.478203 35.48 
L 48.818028 38.466667 
L 50.157854 39.213333 
L 51.497679 34.733333 
" style="fill:none;stroke:#ff0000;stroke-linecap:square;stroke-width:1.5;"/>
   </g>
   <g id="patch_3">
    <path d="M 10.7 62.64 
L 10.7 7.2 
" style="fill:none;stroke:#000000;stroke-linecap:square;stroke-linejoin:miter;stroke-width:1.5;"/>
   </g>
   <g id="patch_4">
    <path d="M 10.7 62.64 
L 53.440426 62.64 
" style="fill:none;stroke:#000000;stroke-linecap:square;stroke-linejoin:miter;stroke-width:1.5;"/>
   </g>
  </g>
  <g id="axes_2">
   <g id="patch_5">
    <path d="M 61.988511 62.64 
L 104.728936 62.64 
L 104.728936 7.2 
L 61.988511 7.2 
z
" style="fill:none;"/>
   </g>
   <g id="matplotlib.axis_3"/>
   <g id="matplotlib.axis_4"/>
   <g id="line2d_3">
    <path clip-path="url(#p4ead35a1cf)" d="M 63.931257 60.12 
L 65.271083 50.692662 
L 66.610908 47.066763 
L 67.950733 42.353094 
L 69.290558 34.376115 
L 70.630384 29.662446 
L 71.970209 28.574676 
L 73.310034 9.72 
L 74.649859 16.971799 
L 75.989685 19.147338 
L 77.32951 17.696978 
L 78.669335 19.872518 
L 80.00916 22.048058 
L 81.348986 19.872518 
L 82.688811 27.849496 
L 84.028636 23.861007 
L 85.368461 24.948777 
L 86.708287 30.387626 
L 88.048112 24.586187 
L 89.387937 27.849496 
L 90.727762 31.475396 
L 92.067588 30.387626 
L 93.407413 33.288345 
L 94.747238 24.223597 
L 96.087063 32.563165 
L 97.426889 37.276835 
L 98.766714 41.990504 
L 100.106539 45.253813 
L 101.446364 42.715683 
L 102.78619 47.429353 
" style="fill:none;stroke:#1f77b4;stroke-linecap:square;stroke-width:1.5;"/>
   </g>
   <g id="line2d_4">
    <path clip-path="url(#p4ead35a1cf)" d="M 63.931257 52.505612 
L 65.271083 44.528633 
L 66.610908 40.902734 
L 67.950733 30.025036 
L 69.290558 22.410647 
L 70.630384 28.574676 
L 71.970209 24.223597 
L 73.310034 32.563165 
L 74.649859 28.574676 
L 75.989685 33.288345 
L 77.32951 23.135827 
L 78.669335 19.872518 
L 80.00916 23.861007 
L 81.348986 25.311367 
L 82.688811 22.773237 
L 84.028636 21.685468 
L 85.368461 25.673957 
L 86.708287 27.486906 
L 88.048112 28.574676 
L 89.387937 27.849496 
L 90.727762 36.189065 
L 92.067588 28.937266 
L 93.407413 30.750216 
L 94.747238 29.299856 
L 96.087063 29.299856 
L 97.426889 39.089784 
L 98.766714 42.715683 
L 100.106539 47.791942 
L 101.446364 40.177554 
L 102.78619 36.189065 
" style="fill:none;stroke:#ff0000;stroke-linecap:square;stroke-width:1.5;"/>
   </g>
   <g id="patch_6">
    <path d="M 61.988511 62.64 
L 61.988511 7.2 
" style="fill:none;stroke:#000000;stroke-linecap:square;stroke-linejoin:miter;stroke-width:1.5;"/>
   </g>
   <g id="patch_7">
    <path d="M 61.988511 62.64 
L 104.728936 62.64 
" style="fill:none;stroke:#000000;stroke-linecap:square;stroke-linejoin:miter;stroke-width:1.5;"/>
   </g>
  </g>
  <g id="axes_3">
   <g id="patch_8">
    <path d="M 113.277021 62.64 
L 156.017447 62.64 
L 156.017447 7.2 
L 113.277021 7.2 
z
" style="fill:none;"/>
   </g>
   <g id="matplotlib.axis_5"/>
   <g id="matplotlib.axis_6"/>
   <g id="line2d_5">
    <path clip-path="url(#p12f48906dd)" d="M 115.219768 59.838436 
L 116.559593 59.556872 
L 117.899418 57.585922 
L 119.239244 53.080894 
L 120.579069 51.673073 
L 121.918894 41.818324 
L 123.258719 39.847374 
L 124.598545 37.59486 
L 125.93837 32.808268 
L 127.278195 24.642905 
L 128.61802 19.856313 
L 129.957846 11.972514 
L 131.297671 19.856313 
L 132.637496 9.72 
L 133.977321 16.195978 
L 135.317147 14.788156 
L 136.656972 14.225028 
L 137.996797 16.477542 
L 139.336622 18.448492 
L 140.676448 19.574749 
L 142.016273 21.827263 
L 143.356098 20.137877 
L 144.695923 29.147933 
L 146.035749 27.740112 
L 147.375574 36.750168 
L 148.715399 44.915531 
L 150.055224 44.070838 
L 151.39505 43.226145 
L 152.734875 54.207151 
L 154.0747 51.109944 
" style="fill:none;stroke:#1f77b4;stroke-linecap:square;stroke-width:1.5;"/>
   </g>
   <g id="line2d_6">
    <path clip-path="url(#p12f48906dd)" d="M 115.219768 60.12 
L 116.559593 59.556872 
L 117.899418 54.207151 
L 119.239244 52.79933 
L 120.579069 42.663017 
L 121.918894 45.197095 
L 123.258719 36.187039 
L 124.598545 27.740112 
L 125.93837 28.021676 
L 127.278195 20.98257 
L 128.61802 20.701006 
L 129.957846 17.603799 
L 131.297671 17.885363 
L 132.637496 16.195978 
L 133.977321 16.477542 
L 135.317147 14.225028 
L 136.656972 22.390391 
L 137.996797 19.856313 
L 139.336622 19.293184 
L 140.676448 27.458547 
L 142.016273 25.487598 
L 143.356098 23.516648 
L 144.695923 26.613855 
L 146.035749 35.905475 
L 147.375574 35.623911 
L 148.715399 44.070838 
L 150.055224 42.381453 
L 151.39505 44.633966 
L 152.734875 48.294302 
L 154.0747 46.604916 
" style="fill:none;stroke:#ff0000;stroke-linecap:square;stroke-width:1.5;"/>
   </g>
   <g id="patch_9">
    <path d="M 113.277021 62.64 
L 113.277021 7.2 
" style="fill:none;stroke:#000000;stroke-linecap:square;stroke-linejoin:miter;stroke-width:1.5;"/>
   </g>
   <g id="patch_10">
    <path d="M 113.277021 62.64 
L 156.017447 62.64 
" style="fill:none;stroke:#000000;stroke-linecap:square;stroke-linejoin:miter;stroke-width:1.5;"/>
   </g>
  </g>
  <g id="axes_4">
   <g id="patch_11">
    <path d="M 164.565532 62.64 
L 207.305957 62.64 
L 207.305957 7.2 
L 164.565532 7.2 
z
" style="fill:none;"/>
   </g>
   <g id="matplotlib.axis_7"/>
   <g id="matplotlib.axis_8"/>
   <g id="line2d_7">
    <path clip-path="url(#pe0dbd7ae04)" d="M 166.508279 50.835789 
L 167.848104 54.151579 
L 169.187929 51.498947 
L 170.527754 47.52 
L 171.86758 36.246316 
L 173.207405 48.183158 
L 174.54723 37.572632 
L 175.887055 42.214737 
L 177.226881 38.898947 
L 178.566706 22.983158 
L 179.906531 27.625263 
L 181.246356 30.277895 
L 182.586182 28.288421 
L 183.926007 32.930526 
L 185.265832 29.614737 
L 186.605657 24.309474 
L 187.945483 26.298947 
L 189.285308 19.004211 
L 190.625133 30.941053 
L 191.964958 39.562105 
L 193.304784 33.593684 
L 194.644609 10.383158 
L 195.984434 15.025263 
L 197.324259 14.362105 
L 198.664085 9.72 
L 200.00391 27.625263 
L 201.343735 18.341053 
L 202.68356 28.951579 
L 204.023386 17.014737 
L 205.363211 14.362105 
" style="fill:none;stroke:#1f77b4;stroke-linecap:square;stroke-width:1.5;"/>
   </g>
   <g id="line2d_8">
    <path clip-path="url(#pe0dbd7ae04)" d="M 166.508279 58.793684 
L 167.848104 60.12 
L 169.187929 50.172632 
L 170.527754 44.867368 
L 171.86758 36.909474 
L 173.207405 44.867368 
L 174.54723 36.246316 
L 175.887055 36.246316 
L 177.226881 21.656842 
L 178.566706 21.656842 
L 179.906531 31.604211 
L 181.246356 30.941053 
L 182.586182 22.983158 
L 183.926007 34.256842 
L 185.265832 27.625263 
L 186.605657 20.330526 
L 187.945483 16.351579 
L 189.285308 22.32 
L 190.625133 29.614737 
L 191.964958 24.309474 
L 193.304784 27.625263 
L 194.644609 25.635789 
L 195.984434 22.32 
L 197.324259 26.962105 
L 198.664085 19.667368 
L 200.00391 30.941053 
L 201.343735 26.962105 
L 202.68356 17.014737 
L 204.023386 28.288421 
L 205.363211 11.046316 
" style="fill:none;stroke:#ff0000;stroke-linecap:square;stroke-width:1.5;"/>
   </g>
   <g id="patch_12">
    <path d="M 164.565532 62.64 
L 164.565532 7.2 
" style="fill:none;stroke:#000000;stroke-linecap:square;stroke-linejoin:miter;stroke-width:1.5;"/>
   </g>
   <g id="patch_13">
    <path d="M 164.565532 62.64 
L 207.305957 62.64 
" style="fill:none;stroke:#000000;stroke-linecap:square;stroke-linejoin:miter;stroke-width:1.5;"/>
   </g>
  </g>
  <g id="axes_5">
   <g id="patch_14">
    <path d="M 215.854043 62.64 
L 258.594468 62.64 
L 258.594468 7.2 
L 215.854043 7.2 
z
" style="fill:none;"/>
   </g>
   <g id="matplotlib.axis_9"/>
   <g id="matplotlib.axis_10"/>
   <g id="line2d_9">
    <path clip-path="url(#p91a624f599)" d="M 217.796789 60.12 
L 219.136614 57.24 
L 220.47644 56.664 
L 221.816265 53.208 
L 223.15609 46.872 
L 224.495915 44.568 
L 225.835741 40.536 
L 227.175566 37.944 
L 228.515391 33.048 
L 229.855216 31.896 
L 231.195042 35.64 
L 232.534867 23.832 
L 233.874692 25.56 
L 235.214517 22.68 
L 236.554343 20.952 
L 237.894168 16.056 
L 239.233993 21.24 
L 240.573818 14.616 
L 241.913644 14.904 
L 243.253469 14.904 
L 244.593294 22.68 
L 245.933119 18.936 
L 247.272945 19.224 
L 248.61277 25.272 
L 249.952595 24.984 
L 251.29242 27.864 
L 252.632246 37.08 
L 253.972071 34.488 
L 255.311896 43.416 
L 256.651721 39.096 
" style="fill:none;stroke:#1f77b4;stroke-linecap:square;stroke-width:1.5;"/>
   </g>
   <g id="line2d_10">
    <path clip-path="url(#p91a624f599)" d="M 217.796789 59.544 
L 219.136614 59.544 
L 220.47644 59.544 
L 221.816265 56.376 
L 223.15609 54.072 
L 224.495915 51.768 
L 225.835741 40.824 
L 227.175566 37.368 
L 228.515391 33.048 
L 229.855216 24.984 
L 231.195042 28.44 
L 232.534867 20.952 
L 233.874692 24.408 
L 235.214517 23.832 
L 236.554343 18.936 
L 237.894168 20.088 
L 239.233993 18.36 
L 240.573818 16.056 
L 241.913644 9.72 
L 243.253469 14.328 
L 244.593294 19.512 
L 245.933119 22.68 
L 247.272945 22.968 
L 248.61277 25.272 
L 249.952595 26.712 
L 251.29242 26.136 
L 252.632246 34.776 
L 253.972071 37.368 
L 255.311896 41.688 
L 256.651721 36.216 
" style="fill:none;stroke:#ff0000;stroke-linecap:square;stroke-width:1.5;"/>
   </g>
   <g id="patch_15">
    <path d="M 215.854043 62.64 
L 215.854043 7.2 
" style="fill:none;stroke:#000000;stroke-linecap:square;stroke-linejoin:miter;stroke-width:1.5;"/>
   </g>
   <g id="patch_16">
    <path d="M 215.854043 62.64 
L 258.594468 62.64 
" style="fill:none;stroke:#000000;stroke-linecap:square;stroke-linejoin:miter;stroke-width:1.5;"/>
   </g>
  </g>
  <g id="axes_6">
   <g id="patch_17">
    <path d="M 267.142553 62.64 
L 309.882979 62.64 
L 309.882979 7.2 
L 267.142553 7.2 
z
" style="fill:none;"/>
   </g>
   <g id="matplotlib.axis_11"/>
   <g id="matplotlib.axis_12"/>
   <g id="line2d_11">
    <path clip-path="url(#p5c3d4b7058)" d="M 269.0853 60.12 
L 270.425125 55.210909 
L 271.76495 56.52 
L 273.104776 54.556364 
L 274.444601 54.556364 
L 275.784426 47.356364 
L 277.124251 44.410909 
L 278.464077 47.683636 
L 279.803902 42.12 
L 281.143727 30.338182 
L 282.483552 42.12 
L 283.823378 30.010909 
L 285.163203 30.992727 
L 286.503028 26.083636 
L 287.842853 23.792727 
L 289.182679 27.72 
L 290.522504 19.538182 
L 291.862329 21.829091 
L 293.202154 28.374545 
L 294.54198 27.392727 
L 295.881805 24.12 
L 297.22163 26.083636 
L 298.561455 18.883636 
L 299.901281 17.574545 
L 301.241106 20.52 
L 302.580931 23.465455 
L 303.920756 25.101818 
L 305.260582 16.265455 
L 306.600407 16.592727 
L 307.940232 9.72 
" style="fill:none;stroke:#1f77b4;stroke-linecap:square;stroke-width:1.5;"/>
   </g>
   <g id="line2d_12">
    <path clip-path="url(#p5c3d4b7058)" d="M 269.0853 55.210909 
L 270.425125 58.156364 
L 271.76495 50.629091 
L 273.104776 47.356364 
L 274.444601 44.738182 
L 275.784426 46.374545 
L 277.124251 34.265455 
L 278.464077 41.465455 
L 279.803902 42.12 
L 281.143727 33.938182 
L 282.483552 33.938182 
L 283.823378 29.029091 
L 285.163203 26.083636 
L 286.503028 27.72 
L 287.842853 21.829091 
L 289.182679 26.083636 
L 290.522504 29.683636 
L 291.862329 23.465455 
L 293.202154 26.738182 
L 294.54198 22.483636 
L 295.881805 28.374545 
L 297.22163 25.101818 
L 298.561455 22.810909 
L 299.901281 28.374545 
L 301.241106 31.974545 
L 302.580931 28.374545 
L 303.920756 23.792727 
L 305.260582 18.883636 
L 306.600407 23.792727 
L 307.940232 16.265455 
" style="fill:none;stroke:#ff0000;stroke-linecap:square;stroke-width:1.5;"/>
   </g>
   <g id="patch_18">
    <path d="M 267.142553 62.64 
L 267.142553 7.2 
" style="fill:none;stroke:#000000;stroke-linecap:square;stroke-linejoin:miter;stroke-width:1.5;"/>
   </g>
   <g id="patch_19">
    <path d="M 267.142553 62.64 
L 309.882979 62.64 
" style="fill:none;stroke:#000000;stroke-linecap:square;stroke-linejoin:miter;stroke-width:1.5;"/>
   </g>
  </g>
  <g id="axes_7">
   <g id="patch_20">
    <path d="M 318.431064 62.64 
L 361.171489 62.64 
L 361.171489 7.2 
L 318.431064 7.2 
z
" style="fill:none;"/>
   </g>
   <g id="matplotlib.axis_13"/>
   <g id="matplotlib.axis_14"/>
   <g id="line2d_13">
    <path clip-path="url(#p873eb3df74)" d="M 320.37381 24.064615 
L 321.713636 29.104615 
L 323.053461 29.88 
L 324.393286 25.615385 
L 325.733111 21.738462 
L 327.072937 25.227692 
L 328.412762 17.473846 
L 329.752587 19.412308 
L 331.092412 22.126154 
L 332.432238 19.8 
L 333.772063 19.024615 
L 335.111888 12.821538 
L 336.451713 15.147692 
L 337.791539 23.676923 
L 339.131364 17.473846 
L 340.471189 26.003077 
L 341.811014 29.88 
L 343.15084 31.043077 
L 344.490665 36.470769 
L 345.83049 33.756923 
L 347.170315 32.593846 
L 348.510141 37.633846 
L 349.849966 43.061538 
L 351.189791 43.061538 
L 352.529616 50.427692 
L 353.869442 46.163077 
L 355.209267 45.775385 
L 356.549092 48.101538 
L 357.888917 56.243077 
L 359.228743 60.12 
" style="fill:none;stroke:#1f77b4;stroke-linecap:square;stroke-width:1.5;"/>
   </g>
   <g id="line2d_14">
    <path clip-path="url(#p873eb3df74)" d="M 320.37381 27.941538 
L 321.713636 33.369231 
L 323.053461 23.676923 
L 324.393286 19.8 
L 325.733111 26.390769 
L 327.072937 19.412308 
L 328.412762 10.495385 
L 329.752587 13.596923 
L 331.092412 12.821538 
L 332.432238 17.086154 
L 333.772063 9.72 
L 335.111888 18.636923 
L 336.451713 20.187692 
L 337.791539 15.535385 
L 339.131364 17.473846 
L 340.471189 24.84 
L 341.811014 30.655385 
L 343.15084 36.858462 
L 344.490665 39.572308 
L 345.83049 37.633846 
L 347.170315 37.246154 
L 348.510141 43.449231 
L 349.849966 42.286154 
L 351.189791 48.101538 
L 352.529616 45.387692 
L 353.869442 50.815385 
L 355.209267 51.590769 
L 356.549092 56.243077 
L 357.888917 59.732308 
L 359.228743 52.366154 
" style="fill:none;stroke:#ff0000;stroke-linecap:square;stroke-width:1.5;"/>
   </g>
   <g id="patch_21">
    <path d="M 318.431064 62.64 
L 318.431064 7.2 
" style="fill:none;stroke:#000000;stroke-linecap:square;stroke-linejoin:miter;stroke-width:1.5;"/>
   </g>
   <g id="patch_22">
    <path d="M 318.431064 62.64 
L 361.171489 62.64 
" style="fill:none;stroke:#000000;stroke-linecap:square;stroke-linejoin:miter;stroke-width:1.5;"/>
   </g>
  </g>
  <g id="axes_8">
   <g id="patch_23">
    <path d="M 369.719574 62.64 
L 412.46 62.64 
L 412.46 7.2 
L 369.719574 7.2 
z
" style="fill:none;"/>
   </g>
   <g id="matplotlib.axis_15"/>
   <g id="matplotlib.axis_16"/>
   <g id="line2d_15">
    <path clip-path="url(#p7c65d035a6)" d="M 371.662321 26.214545 
L 373.002146 32.018182 
L 374.341972 19.8 
L 375.681797 24.381818 
L 377.021622 21.632727 
L 378.361447 18.578182 
L 379.701273 23.16 
L 381.041098 29.269091 
L 382.380923 21.021818 
L 383.720748 20.105455 
L 385.060574 24.381818 
L 386.400399 23.770909 
L 387.740224 28.963636 
L 389.080049 31.101818 
L 390.419875 36.294545 
L 391.7597 36.905455 
L 393.099525 38.127273 
L 394.43935 36.6 
L 395.779176 43.32 
L 397.119001 44.847273 
L 398.458826 46.069091 
L 399.798651 49.429091 
L 401.138477 48.512727 
L 402.478302 50.04 
L 403.818127 53.4 
L 405.157952 51.261818 
L 406.497778 53.705455 
L 407.837603 54.010909 
L 409.177428 51.261818 
L 410.517253 50.650909 
" style="fill:none;stroke:#1f77b4;stroke-linecap:square;stroke-width:1.5;"/>
   </g>
   <g id="line2d_16">
    <path clip-path="url(#p7c65d035a6)" d="M 371.662321 16.134545 
L 373.002146 20.105455 
L 374.341972 15.218182 
L 375.681797 9.72 
L 377.021622 17.661818 
L 378.361447 12.774545 
L 379.701273 13.690909 
L 381.041098 14.607273 
L 382.380923 16.745455 
L 383.720748 25.909091 
L 385.060574 22.549091 
L 386.400399 26.825455 
L 387.740224 34.156364 
L 389.080049 36.905455 
L 390.419875 42.098182 
L 391.7597 39.349091 
L 393.099525 38.432727 
L 394.43935 43.625455 
L 395.779176 46.069091 
L 397.119001 46.374545 
L 398.458826 50.345455 
L 399.798651 53.4 
L 401.138477 51.567273 
L 402.478302 56.76 
L 403.818127 54.316364 
L 405.157952 60.12 
L 406.497778 57.676364 
L 407.837603 58.592727 
L 409.177428 55.232727 
L 410.517253 51.872727 
" style="fill:none;stroke:#ff0000;stroke-linecap:square;stroke-width:1.5;"/>
   </g>
   <g id="patch_24">
    <path d="M 369.719574 62.64 
L 369.719574 7.2 
" style="fill:none;stroke:#000000;stroke-linecap:square;stroke-linejoin:miter;stroke-width:1.5;"/>
   </g>
   <g id="patch_25">
    <path d="M 369.719574 62.64 
L 412.46 62.64 
" style="fill:none;stroke:#000000;stroke-linecap:square;stroke-linejoin:miter;stroke-width:1.5;"/>
   </g>
  </g>
 </g>
 <defs>
  <clipPath id="p0ba275402c">
   <rect height="55.44" width="42.740426" x="10.7" y="7.2"/>
  </clipPath>
  <clipPath id="p4ead35a1cf">
   <rect height="55.44" width="42.740426" x="61.988511" y="7.2"/>
  </clipPath>
  <clipPath id="p12f48906dd">
   <rect height="55.44" width="42.740426" x="113.277021" y="7.2"/>
  </clipPath>
  <clipPath id="pe0dbd7ae04">
   <rect height="55.44" width="42.740426" x="164.565532" y="7.2"/>
  </clipPath>
  <clipPath id="p91a624f599">
   <rect height="55.44" width="42.740426" x="215.854043" y="7.2"/>
  </clipPath>
  <clipPath id="p5c3d4b7058">
   <rect height="55.44" width="42.740426" x="267.142553" y="7.2"/>
  </clipPath>
  <clipPath id="p873eb3df74">
   <rect height="55.44" width="42.740426" x="318.431064" y="7.2"/>
  </clipPath>
  <clipPath id="p7c65d035a6">
   <rect height="55.44" width="42.740426" x="369.719574" y="7.2"/>
  </clipPath>
 </defs>
</svg>
