<?xml version="1.0" encoding="utf-8" standalone="no"?>
<!DOCTYPE svg PUBLIC "-//W3C//DTD SVG 1.1//EN"
  "http://www.w3.org/Graphics/SVG/1.1/DTD/svg11.dtd">
<!-- Created with matplotlib (https://matplotlib.org/) -->
<svg height="73.34pt" version="1.1" viewBox="0 0 419.66 73.34" width="419.66pt" xmlns="http://www.w3.org/2000/svg" xmlns:xlink="http://www.w3.org/1999/xlink">
 <metadata>
  <rdf:RDF xmlns:cc="http://creativecommons.org/ns#" xmlns:dc="http://purl.org/dc/elements/1.1/" xmlns:rdf="http://www.w3.org/1999/02/22-rdf-syntax-ns#">
   <cc:Work>
    <dc:type rdf:resource="http://purl.org/dc/dcmitype/StillImage"/>
    <dc:date>2020-10-27T17:16:38.150490</dc:date>
    <dc:format>image/svg+xml</dc:format>
    <dc:creator>
     <cc:Agent>
      <dc:title>Matplotlib v3.3.2, https://matplotlib.org/</dc:title>
     </cc:Agent>
    </dc:creator>
   </cc:Work>
  </rdf:RDF>
 </metadata>
 <defs>
  <style type="text/css">*{stroke-linecap:butt;stroke-linejoin:round;}</style>
 </defs>
 <g id="figure_1">
  <g id="patch_1">
   <path d="M 0 73.34 
L 419.66 73.34 
L 419.66 0 
L 0 0 
z
" style="fill:none;"/>
  </g>
  <g id="axes_1">
   <g id="patch_2">
    <path d="M 10.7 62.64 
L 59.695122 62.64 
L 59.695122 7.2 
L 10.7 7.2 
z
" style="fill:none;"/>
   </g>
   <g id="matplotlib.axis_1"/>
   <g id="matplotlib.axis_2"/>
   <g id="line2d_1">
    <path clip-path="url(#p444ab39d07)" d="M 12.927051 53.343529 
L 14.462948 53.343529 
L 15.998845 51.649412 
L 17.534743 54.614118 
L 19.07064 52.072941 
L 20.606537 53.767059 
L 22.142434 54.614118 
L 23.678332 52.92 
L 25.214229 52.92 
L 26.750126 52.92 
L 28.286023 52.496471 
L 29.821921 53.767059 
L 31.357818 51.225882 
L 32.893715 49.32 
L 34.429612 46.990588 
L 35.96551 43.178824 
L 37.501407 39.367059 
L 39.037304 27.931765 
L 40.573201 18.614118 
L 42.109099 12.896471 
L 43.644996 9.931765 
L 45.180893 10.567059 
L 46.71679 27.508235 
L 48.252688 41.061176 
L 49.788585 56.52 
L 51.324482 59.908235 
L 52.860379 60.12 
L 54.396276 60.12 
L 55.932174 60.12 
L 57.468071 60.12 
" style="fill:none;stroke:#1f77b4;stroke-linecap:square;stroke-width:1.5;"/>
   </g>
   <g id="line2d_2">
    <path clip-path="url(#p444ab39d07)" d="M 12.927051 52.284706 
L 14.462948 54.614118 
L 15.998845 53.343529 
L 17.534743 52.496471 
L 19.07064 51.437647 
L 20.606537 51.861176 
L 22.142434 53.343529 
L 23.678332 51.649412 
L 25.214229 52.496471 
L 26.750126 53.767059 
L 28.286023 51.014118 
L 29.821921 52.92 
L 31.357818 48.684706 
L 32.893715 50.167059 
L 34.429612 46.143529 
L 35.96551 46.567059 
L 37.501407 42.967059 
L 39.037304 30.261176 
L 40.573201 22.002353 
L 42.109099 13.108235 
L 43.644996 10.355294 
L 45.180893 9.72 
L 46.71679 19.672941 
L 48.252688 45.508235 
L 49.788585 57.155294 
L 51.324482 59.908235 
L 52.860379 60.12 
L 54.396276 60.12 
L 55.932174 60.12 
L 57.468071 60.12 
" style="fill:none;stroke:#ff0000;stroke-linecap:square;stroke-width:1.5;"/>
   </g>
   <g id="patch_3">
    <path d="M 10.7 62.64 
L 10.7 7.2 
" style="fill:none;stroke:#000000;stroke-linecap:square;stroke-linejoin:miter;stroke-width:1.5;"/>
   </g>
   <g id="patch_4">
    <path d="M 10.7 62.64 
L 59.695122 62.64 
" style="fill:none;stroke:#000000;stroke-linecap:square;stroke-linejoin:miter;stroke-width:1.5;"/>
   </g>
  </g>
  <g id="axes_2">
   <g id="patch_5">
    <path d="M 69.494146 62.64 
L 118.489268 62.64 
L 118.489268 7.2 
L 69.494146 7.2 
z
" style="fill:none;"/>
   </g>
   <g id="matplotlib.axis_3"/>
   <g id="matplotlib.axis_4"/>
   <g id="line2d_3">
    <path clip-path="url(#pcd55876407)" d="M 71.721197 40.428837 
L 73.257095 49.336744 
L 74.792992 41.132093 
L 76.328889 42.069767 
L 77.864786 45.351628 
L 79.400684 43.24186 
L 80.936581 40.897674 
L 82.472478 47.695814 
L 84.008375 41.366512 
L 85.544272 42.304186 
L 87.08017 40.194419 
L 88.616067 39.256744 
L 90.151964 38.553488 
L 91.687861 39.256744 
L 93.223759 38.31907 
L 94.759656 30.348837 
L 96.295553 24.722791 
L 97.83145 18.627907 
L 99.367348 15.111628 
L 100.903245 24.488372 
L 102.439142 45.820465 
L 103.975039 58.713488 
L 105.510937 60.12 
L 107.046834 60.12 
L 108.582731 60.12 
L 110.118628 60.12 
L 111.654526 60.12 
L 113.190423 60.12 
L 114.72632 60.12 
L 116.262217 60.12 
" style="fill:none;stroke:#1f77b4;stroke-linecap:square;stroke-width:1.5;"/>
   </g>
   <g id="line2d_4">
    <path clip-path="url(#pcd55876407)" d="M 71.721197 46.75814 
L 73.257095 47.461395 
L 74.792992 47.695814 
L 76.328889 43.476279 
L 77.864786 45.117209 
L 79.400684 45.586047 
L 80.936581 40.663256 
L 82.472478 41.835349 
L 84.008375 44.179535 
L 85.544272 45.820465 
L 87.08017 41.835349 
L 88.616067 45.117209 
L 90.151964 36.209302 
L 91.687861 40.897674 
L 93.223759 35.974884 
L 94.759656 31.989767 
L 96.295553 24.253953 
L 97.83145 11.829767 
L 99.367348 9.72 
L 100.903245 20.268837 
L 102.439142 42.304186 
L 103.975039 58.010233 
L 105.510937 60.12 
L 107.046834 60.12 
L 108.582731 60.12 
L 110.118628 60.12 
L 111.654526 60.12 
L 113.190423 60.12 
L 114.72632 60.12 
L 116.262217 60.12 
" style="fill:none;stroke:#ff0000;stroke-linecap:square;stroke-width:1.5;"/>
   </g>
   <g id="patch_6">
    <path d="M 69.494146 62.64 
L 69.494146 7.2 
" style="fill:none;stroke:#000000;stroke-linecap:square;stroke-linejoin:miter;stroke-width:1.5;"/>
   </g>
   <g id="patch_7">
    <path d="M 69.494146 62.64 
L 118.489268 62.64 
" style="fill:none;stroke:#000000;stroke-linecap:square;stroke-linejoin:miter;stroke-width:1.5;"/>
   </g>
  </g>
  <g id="axes_3">
   <g id="patch_8">
    <path d="M 128.288293 62.64 
L 177.283415 62.64 
L 177.283415 7.2 
L 128.288293 7.2 
z
" style="fill:none;"/>
   </g>
   <g id="matplotlib.axis_5"/>
   <g id="matplotlib.axis_6"/>
   <g id="line2d_5">
    <path clip-path="url(#p2ab6e19583)" d="M 130.515344 10.934458 
L 132.051241 16.399518 
L 133.587138 14.577831 
L 135.123035 30.973012 
L 136.658933 23.079036 
L 138.19483 21.257349 
L 139.730727 24.900723 
L 141.266624 21.864578 
L 142.802522 18.221205 
L 144.338419 10.934458 
L 145.874316 30.973012 
L 147.410213 27.936867 
L 148.946111 24.293494 
L 150.482008 29.151325 
L 152.017905 29.758554 
L 153.553802 20.042892 
L 155.0897 21.864578 
L 156.625597 20.65012 
L 158.161494 9.72 
L 159.697391 23.079036 
L 161.233288 23.079036 
L 162.769186 21.257349 
L 164.305083 17.613976 
L 165.84098 35.223614 
L 167.376877 21.257349 
L 168.912775 25.507952 
L 170.448672 37.045301 
L 171.984569 35.830843 
L 173.520466 46.760964 
L 175.056364 60.12 
" style="fill:none;stroke:#1f77b4;stroke-linecap:square;stroke-width:1.5;"/>
   </g>
   <g id="line2d_6">
    <path clip-path="url(#p2ab6e19583)" d="M 130.515344 13.970602 
L 132.051241 24.293494 
L 133.587138 32.18747 
L 135.123035 24.900723 
L 136.658933 19.435663 
L 138.19483 15.792289 
L 139.730727 16.399518 
L 141.266624 25.507952 
L 142.802522 15.18506 
L 144.338419 34.616386 
L 145.874316 21.864578 
L 147.410213 26.72241 
L 148.946111 29.758554 
L 150.482008 30.365783 
L 152.017905 34.616386 
L 153.553802 33.401928 
L 155.0897 20.042892 
L 156.625597 25.507952 
L 158.161494 31.580241 
L 159.697391 27.329639 
L 161.233288 25.507952 
L 162.769186 25.507952 
L 164.305083 20.042892 
L 165.84098 23.686265 
L 167.376877 9.72 
L 168.912775 17.006747 
L 170.448672 18.221205 
L 171.984569 20.042892 
L 173.520466 38.259759 
L 175.056364 54.65494 
" style="fill:none;stroke:#ff0000;stroke-linecap:square;stroke-width:1.5;"/>
   </g>
   <g id="patch_9">
    <path d="M 128.288293 62.64 
L 128.288293 7.2 
" style="fill:none;stroke:#000000;stroke-linecap:square;stroke-linejoin:miter;stroke-width:1.5;"/>
   </g>
   <g id="patch_10">
    <path d="M 128.288293 62.64 
L 177.283415 62.64 
" style="fill:none;stroke:#000000;stroke-linecap:square;stroke-linejoin:miter;stroke-width:1.5;"/>
   </g>
  </g>
  <g id="axes_4">
   <g id="patch_11">
    <path d="M 187.082439 62.64 
L 236.077561 62.64 
L 236.077561 7.2 
L 187.082439 7.2 
z
" style="fill:none;"/>
   </g>
   <g id="matplotlib.axis_7"/>
   <g id="matplotlib.axis_8"/>
   <g id="line2d_7">
    <path clip-path="url(#p13256400ef)" d="M 189.30949 58.536 
L 190.845387 59.544 
L 192.381285 59.544 
L 193.917182 59.256 
L 195.453079 59.256 
L 196.988976 59.544 
L 198.524873 59.112 
L 200.060771 58.824 
L 201.596668 59.112 
L 203.132565 59.112 
L 204.668462 58.968 
L 206.20436 58.824 
L 207.740257 59.256 
L 209.276154 58.68 
L 210.812051 58.536 
L 212.347949 58.248 
L 213.883846 57.528 
L 215.419743 55.08 
L 216.95564 54.216 
L 218.491538 52.056 
L 220.027435 47.448 
L 221.563332 39.672 
L 223.099229 28.296 
L 224.635127 20.088 
L 226.171024 9.72 
L 227.706921 13.32 
L 229.242818 21.816 
L 230.778715 47.736 
L 232.314613 59.976 
L 233.85051 60.12 
" style="fill:none;stroke:#1f77b4;stroke-linecap:square;stroke-width:1.5;"/>
   </g>
   <g id="line2d_8">
    <path clip-path="url(#p13256400ef)" d="M 189.30949 58.536 
L 190.845387 58.68 
L 192.381285 59.112 
L 193.917182 59.832 
L 195.453079 59.256 
L 196.988976 59.256 
L 198.524873 57.816 
L 200.060771 59.4 
L 201.596668 59.256 
L 203.132565 59.4 
L 204.668462 59.688 
L 206.20436 58.968 
L 207.740257 59.112 
L 209.276154 58.968 
L 210.812051 58.392 
L 212.347949 57.96 
L 213.883846 57.816 
L 215.419743 56.52 
L 216.95564 53.208 
L 218.491538 46.008 
L 220.027435 41.976 
L 221.563332 36.936 
L 223.099229 29.16 
L 224.635127 20.376 
L 226.171024 13.464 
L 227.706921 14.616 
L 229.242818 25.416 
L 230.778715 52.2 
L 232.314613 59.976 
L 233.85051 60.12 
" style="fill:none;stroke:#ff0000;stroke-linecap:square;stroke-width:1.5;"/>
   </g>
   <g id="patch_12">
    <path d="M 187.082439 62.64 
L 187.082439 7.2 
" style="fill:none;stroke:#000000;stroke-linecap:square;stroke-linejoin:miter;stroke-width:1.5;"/>
   </g>
   <g id="patch_13">
    <path d="M 187.082439 62.64 
L 236.077561 62.64 
" style="fill:none;stroke:#000000;stroke-linecap:square;stroke-linejoin:miter;stroke-width:1.5;"/>
   </g>
  </g>
  <g id="axes_5">
   <g id="patch_14">
    <path d="M 245.876585 62.64 
L 294.871707 62.64 
L 294.871707 7.2 
L 245.876585 7.2 
z
" style="fill:none;"/>
   </g>
   <g id="matplotlib.axis_9"/>
   <g id="matplotlib.axis_10"/>
   <g id="line2d_9">
    <path clip-path="url(#p427dcb5b2e)" d="M 248.103636 59.43661 
L 249.639534 59.778305 
L 251.175431 59.094915 
L 252.711328 59.265763 
L 254.247225 59.265763 
L 255.783123 59.094915 
L 257.31902 59.43661 
L 258.854917 59.43661 
L 260.390814 59.607458 
L 261.926712 59.43661 
L 263.462609 59.778305 
L 264.998506 58.924068 
L 266.534403 58.582373 
L 268.0703 57.728136 
L 269.606198 57.557288 
L 271.142095 55.677966 
L 272.677992 56.019661 
L 274.213889 53.456949 
L 275.749787 50.04 
L 277.285684 48.160678 
L 278.821581 45.768814 
L 280.357478 41.668475 
L 281.893376 40.985085 
L 283.429273 37.055593 
L 284.96517 31.075932 
L 286.501067 27.146441 
L 288.036965 25.779661 
L 289.572862 25.779661 
L 291.108759 16.895593 
L 292.644656 15.528814 
" style="fill:none;stroke:#1f77b4;stroke-linecap:square;stroke-width:1.5;"/>
   </g>
   <g id="line2d_10">
    <path clip-path="url(#p427dcb5b2e)" d="M 248.103636 59.43661 
L 249.639534 59.778305 
L 251.175431 59.778305 
L 252.711328 60.12 
L 254.247225 58.924068 
L 255.783123 59.43661 
L 257.31902 59.949153 
L 258.854917 59.607458 
L 260.390814 59.778305 
L 261.926712 59.778305 
L 263.462609 59.949153 
L 264.998506 59.43661 
L 266.534403 59.607458 
L 268.0703 58.069831 
L 269.606198 58.240678 
L 271.142095 57.728136 
L 272.677992 56.532203 
L 274.213889 54.823729 
L 275.749787 52.431864 
L 277.285684 53.456949 
L 278.821581 46.452203 
L 280.357478 43.547797 
L 281.893376 39.96 
L 283.429273 35.347119 
L 284.96517 36.030508 
L 286.501067 26.975593 
L 288.036965 24.071186 
L 289.572862 17.578983 
L 291.108759 9.72 
L 292.644656 10.915932 
" style="fill:none;stroke:#ff0000;stroke-linecap:square;stroke-width:1.5;"/>
   </g>
   <g id="patch_15">
    <path d="M 245.876585 62.64 
L 245.876585 7.2 
" style="fill:none;stroke:#000000;stroke-linecap:square;stroke-linejoin:miter;stroke-width:1.5;"/>
   </g>
   <g id="patch_16">
    <path d="M 245.876585 62.64 
L 294.871707 62.64 
" style="fill:none;stroke:#000000;stroke-linecap:square;stroke-linejoin:miter;stroke-width:1.5;"/>
   </g>
  </g>
  <g id="axes_6">
   <g id="patch_17">
    <path d="M 304.670732 62.64 
L 353.665854 62.64 
L 353.665854 7.2 
L 304.670732 7.2 
z
" style="fill:none;"/>
   </g>
   <g id="matplotlib.axis_11"/>
   <g id="matplotlib.axis_12"/>
   <g id="line2d_11">
    <path clip-path="url(#p1b943ea29f)" d="M 306.897783 21.08185 
L 308.43368 25.743121 
L 309.969577 23.121156 
L 311.505474 15.54659 
L 313.041372 20.499191 
L 314.577269 18.168555 
L 316.113166 15.54659 
L 317.649063 16.420578 
L 319.184961 26.034451 
L 320.720858 12.050636 
L 322.256755 20.79052 
L 323.792652 19.916532 
L 325.32855 25.451792 
L 326.864447 26.908439 
L 328.400344 34.191676 
L 329.936241 51.088786 
L 331.472139 58.372023 
L 333.008036 60.12 
L 334.543933 60.12 
L 336.07983 60.12 
L 337.615728 60.12 
L 339.151625 60.12 
L 340.687522 60.12 
L 342.223419 60.12 
L 343.759316 60.12 
L 345.295214 60.12 
L 346.831111 60.12 
L 348.367008 60.12 
L 349.902905 60.12 
L 351.438803 60.12 
" style="fill:none;stroke:#1f77b4;stroke-linecap:square;stroke-width:1.5;"/>
   </g>
   <g id="line2d_12">
    <path clip-path="url(#p1b943ea29f)" d="M 306.897783 21.664509 
L 308.43368 24.577803 
L 309.969577 18.168555 
L 311.505474 18.751214 
L 313.041372 19.916532 
L 314.577269 26.61711 
L 316.113166 9.72 
L 317.649063 14.381272 
L 319.184961 21.373179 
L 320.720858 14.089942 
L 322.256755 20.499191 
L 323.792652 21.664509 
L 325.32855 30.695723 
L 326.864447 27.199769 
L 328.400344 30.695723 
L 329.936241 52.254104 
L 331.472139 58.954682 
L 333.008036 60.12 
L 334.543933 60.12 
L 336.07983 60.12 
L 337.615728 60.12 
L 339.151625 60.12 
L 340.687522 60.12 
L 342.223419 60.12 
L 343.759316 60.12 
L 345.295214 60.12 
L 346.831111 60.12 
L 348.367008 60.12 
L 349.902905 60.12 
L 351.438803 60.12 
" style="fill:none;stroke:#ff0000;stroke-linecap:square;stroke-width:1.5;"/>
   </g>
   <g id="patch_18">
    <path d="M 304.670732 62.64 
L 304.670732 7.2 
" style="fill:none;stroke:#000000;stroke-linecap:square;stroke-linejoin:miter;stroke-width:1.5;"/>
   </g>
   <g id="patch_19">
    <path d="M 304.670732 62.64 
L 353.665854 62.64 
" style="fill:none;stroke:#000000;stroke-linecap:square;stroke-linejoin:miter;stroke-width:1.5;"/>
   </g>
  </g>
  <g id="axes_7">
   <g id="patch_20">
    <path d="M 363.464878 62.64 
L 412.46 62.64 
L 412.46 7.2 
L 363.464878 7.2 
z
" style="fill:none;"/>
   </g>
   <g id="matplotlib.axis_13"/>
   <g id="matplotlib.axis_14"/>
   <g id="line2d_13">
    <path clip-path="url(#p8073ab5d90)" d="M 365.691929 59.018361 
L 367.227826 57.365902 
L 368.763724 57.641311 
L 370.299621 57.365902 
L 371.835518 56.539672 
L 373.371415 55.713443 
L 374.907312 56.264262 
L 376.44321 56.815082 
L 377.979107 56.539672 
L 379.515004 56.815082 
L 381.050901 56.815082 
L 382.586799 56.264262 
L 384.122696 55.438033 
L 385.658593 55.438033 
L 387.19449 51.306885 
L 388.730388 50.756066 
L 390.266285 46.349508 
L 391.802182 43.87082 
L 393.338079 41.942951 
L 394.873977 31.752787 
L 396.409874 24.041311 
L 397.945771 23.765902 
L 399.481668 18.533115 
L 401.017566 17.982295 
L 402.553463 12.749508 
L 404.08936 19.634754 
L 405.625257 15.779016 
L 407.161155 19.910164 
L 408.697052 22.113443 
L 410.232949 27.34623 
" style="fill:none;stroke:#1f77b4;stroke-linecap:square;stroke-width:1.5;"/>
   </g>
   <g id="line2d_14">
    <path clip-path="url(#p8073ab5d90)" d="M 365.691929 59.56918 
L 367.227826 60.12 
L 368.763724 58.742951 
L 370.299621 58.467541 
L 371.835518 59.018361 
L 373.371415 56.815082 
L 374.907312 57.641311 
L 376.44321 59.56918 
L 377.979107 59.29377 
L 379.515004 58.742951 
L 381.050901 59.29377 
L 382.586799 58.192131 
L 384.122696 58.192131 
L 385.658593 59.29377 
L 387.19449 55.162623 
L 388.730388 52.133115 
L 390.266285 50.205246 
L 391.802182 46.624918 
L 393.338079 41.942951 
L 394.873977 30.100328 
L 396.409874 25.418361 
L 397.945771 14.126557 
L 399.481668 17.431475 
L 401.017566 16.054426 
L 402.553463 9.72 
L 404.08936 9.99541 
L 405.625257 14.126557 
L 407.161155 10.54623 
L 408.697052 18.257705 
L 410.232949 27.621639 
" style="fill:none;stroke:#ff0000;stroke-linecap:square;stroke-width:1.5;"/>
   </g>
   <g id="patch_21">
    <path d="M 363.464878 62.64 
L 363.464878 7.2 
" style="fill:none;stroke:#000000;stroke-linecap:square;stroke-linejoin:miter;stroke-width:1.5;"/>
   </g>
   <g id="patch_22">
    <path d="M 363.464878 62.64 
L 412.46 62.64 
" style="fill:none;stroke:#000000;stroke-linecap:square;stroke-linejoin:miter;stroke-width:1.5;"/>
   </g>
  </g>
 </g>
 <defs>
  <clipPath id="p444ab39d07">
   <rect height="55.44" width="48.995122" x="10.7" y="7.2"/>
  </clipPath>
  <clipPath id="pcd55876407">
   <rect height="55.44" width="48.995122" x="69.494146" y="7.2"/>
  </clipPath>
  <clipPath id="p2ab6e19583">
   <rect height="55.44" width="48.995122" x="128.288293" y="7.2"/>
  </clipPath>
  <clipPath id="p13256400ef">
   <rect height="55.44" width="48.995122" x="187.082439" y="7.2"/>
  </clipPath>
  <clipPath id="p427dcb5b2e">
   <rect height="55.44" width="48.995122" x="245.876585" y="7.2"/>
  </clipPath>
  <clipPath id="p1b943ea29f">
   <rect height="55.44" width="48.995122" x="304.670732" y="7.2"/>
  </clipPath>
  <clipPath id="p8073ab5d90">
   <rect height="55.44" width="48.995122" x="363.464878" y="7.2"/>
  </clipPath>
 </defs>
</svg>
