<?xml version="1.0" encoding="utf-8" standalone="no"?>
<!DOCTYPE svg PUBLIC "-//W3C//DTD SVG 1.1//EN"
  "http://www.w3.org/Graphics/SVG/1.1/DTD/svg11.dtd">
<!-- Created with matplotlib (https://matplotlib.org/) -->
<svg height="88.276375pt" version="1.1" viewBox="0 0 184.806926 88.276375" width="184.806926pt" xmlns="http://www.w3.org/2000/svg" xmlns:xlink="http://www.w3.org/1999/xlink">
 <metadata>
  <rdf:RDF xmlns:cc="http://creativecommons.org/ns#" xmlns:dc="http://purl.org/dc/elements/1.1/" xmlns:rdf="http://www.w3.org/1999/02/22-rdf-syntax-ns#">
   <cc:Work>
    <dc:type rdf:resource="http://purl.org/dc/dcmitype/StillImage"/>
    <dc:date>2020-12-16T15:49:31.950301</dc:date>
    <dc:format>image/svg+xml</dc:format>
    <dc:creator>
     <cc:Agent>
      <dc:title>Matplotlib v3.3.2, https://matplotlib.org/</dc:title>
     </cc:Agent>
    </dc:creator>
   </cc:Work>
  </rdf:RDF>
 </metadata>
 <defs>
  <style type="text/css">*{stroke-linecap:butt;stroke-linejoin:round;}</style>
 </defs>
 <g id="figure_1">
  <g id="patch_1">
   <path d="M 0 88.276375 
L 184.806926 88.276375 
L 184.806926 0 
L 0 0 
z
" style="fill:none;"/>
  </g>
  <g id="axes_1">
   <g id="patch_2">
    <path d="M 39.99075 54.591375 
L 173.91075 54.591375 
L 173.91075 10.239375 
L 39.99075 10.239375 
z
" style="fill:none;"/>
   </g>
   <g id="matplotlib.axis_1">
    <g id="xtick_1">
     <g id="line2d_1">
      <defs>
       <path d="M 0 0 
L 0 3.5 
" id="m4e03b78ae9" style="stroke:#000000;stroke-width:1.5;"/>
      </defs>
      <g>
       <use style="stroke:#000000;stroke-width:1.5;" x="43.929574" xlink:href="#m4e03b78ae9" y="54.591375"/>
      </g>
     </g>
     <g id="text_1">
      <text style="font-family:DejaVu Sans;font-size:8px;font-stretch:normal;font-style:normal;font-weight:normal;text-anchor:middle;" transform="rotate(-0, 43.929574, 67.670125)" x="43.929574" y="67.670125">283</text>
     </g>
    </g>
    <g id="xtick_2">
     <g id="line2d_2">
      <g>
       <use style="stroke:#000000;stroke-width:1.5;" x="75.440162" xlink:href="#m4e03b78ae9" y="54.591375"/>
      </g>
     </g>
     <g id="text_2">
      <text style="font-family:DejaVu Sans;font-size:8px;font-stretch:normal;font-style:normal;font-weight:normal;text-anchor:middle;" transform="rotate(-0, 75.440162, 67.670125)" x="75.440162" y="67.670125">287</text>
     </g>
    </g>
    <g id="xtick_3">
     <g id="line2d_3">
      <g>
       <use style="stroke:#000000;stroke-width:1.5;" x="106.95075" xlink:href="#m4e03b78ae9" y="54.591375"/>
      </g>
     </g>
     <g id="text_3">
      <text style="font-family:DejaVu Sans;font-size:8px;font-stretch:normal;font-style:normal;font-weight:normal;text-anchor:middle;" transform="rotate(-0, 106.95075, 67.670125)" x="106.95075" y="67.670125">291</text>
     </g>
    </g>
    <g id="xtick_4">
     <g id="line2d_4">
      <g>
       <use style="stroke:#000000;stroke-width:1.5;" x="138.461338" xlink:href="#m4e03b78ae9" y="54.591375"/>
      </g>
     </g>
     <g id="text_4">
      <text style="font-family:DejaVu Sans;font-size:8px;font-stretch:normal;font-style:normal;font-weight:normal;text-anchor:middle;" transform="rotate(-0, 138.461338, 67.670125)" x="138.461338" y="67.670125">295</text>
     </g>
    </g>
    <g id="xtick_5">
     <g id="line2d_5">
      <g>
       <use style="stroke:#000000;stroke-width:1.5;" x="169.971926" xlink:href="#m4e03b78ae9" y="54.591375"/>
      </g>
     </g>
     <g id="text_5">
      <text style="font-family:DejaVu Sans;font-size:8px;font-stretch:normal;font-style:normal;font-weight:normal;text-anchor:middle;" transform="rotate(-0, 169.971926, 67.670125)" x="169.971926" y="67.670125">299</text>
     </g>
    </g>
    <g id="text_6">
     <text style="font-family:DejaVu Sans;font-size:8px;font-stretch:normal;font-style:normal;font-weight:normal;text-anchor:middle;" transform="rotate(-0, 106.95075, 79.412625)" x="106.95075" y="79.412625">Temperature (°C)</text>
    </g>
   </g>
   <g id="matplotlib.axis_2">
    <g id="ytick_1">
     <g id="line2d_6">
      <defs>
       <path d="M 0 0 
L -3.5 0 
" id="m8834411101" style="stroke:#000000;stroke-width:1.5;"/>
      </defs>
      <g>
       <use style="stroke:#000000;stroke-width:1.5;" x="39.99075" xlink:href="#m8834411101" y="54.591375"/>
      </g>
     </g>
     <g id="text_7">
      <text style="font-family:DejaVu Sans;font-size:8px;font-stretch:normal;font-style:normal;font-weight:normal;text-anchor:end;" transform="rotate(-0, 32.99075, 57.63075)" x="32.99075" y="57.63075">0</text>
     </g>
    </g>
    <g id="ytick_2">
     <g id="line2d_7">
      <g>
       <use style="stroke:#000000;stroke-width:1.5;" x="39.99075" xlink:href="#m8834411101" y="10.239375"/>
      </g>
     </g>
     <g id="text_8">
      <text style="font-family:DejaVu Sans;font-size:8px;font-stretch:normal;font-style:normal;font-weight:normal;text-anchor:end;" transform="rotate(-0, 32.99075, 13.27875)" x="32.99075" y="13.27875">1</text>
     </g>
    </g>
    <g id="text_9">
     <text style="font-family:DejaVu Sans;font-size:8px;font-stretch:normal;font-style:normal;font-weight:normal;" transform="translate(13.27875 50.270375)rotate(-90)">Phase LP</text>
     <text style="font-family:DejaVu Sans;font-size:8px;font-stretch:normal;font-style:normal;font-weight:normal;" transform="translate(22.237 56.074125)rotate(-90)">(% of cycle)</text>
    </g>
   </g>
   <g id="line2d_8">
    <path clip-path="url(#p8c3ec4dfe0)" d="M 43.929574 36.75218 
L 51.807221 35.878097 
L 59.684868 35.590844 
L 67.562515 35.471672 
L 75.440162 36.087394 
L 83.317809 36.042131 
L 91.195456 36.465052 
L 99.073103 36.382759 
L 106.95075 36.39939 
L 114.828397 36.705642 
L 122.706044 36.303511 
L 130.583691 36.47581 
L 138.461338 36.529995 
L 146.338985 36.715802 
L 154.216632 37.147812 
L 162.094279 37.136483 
L 169.971926 37.173111 
" style="fill:none;stroke:#000000;stroke-linecap:square;stroke-width:1.5;"/>
   </g>
   <g id="line2d_9">
    <path clip-path="url(#p8c3ec4dfe0)" d="M 43.929574 36.986104 
L 51.807221 37.399151 
L 59.684868 37.437801 
L 67.562515 36.6186 
L 75.440162 36.792835 
L 83.317809 36.385846 
L 91.195456 37.229204 
L 99.073103 36.909409 
L 106.95075 36.648052 
L 114.828397 36.215654 
L 122.706044 36.467082 
L 130.583691 36.756724 
L 138.461338 36.811897 
L 146.338985 36.098085 
L 154.216632 36.110411 
L 162.094279 36.147268 
L 169.971926 36.384232 
" style="fill:none;stroke:#000000;stroke-linecap:square;stroke-width:1.5;"/>
   </g>
   <g id="line2d_10">
    <path clip-path="url(#p8c3ec4dfe0)" d="M 43.929574 34.944297 
L 51.807221 35.670577 
L 59.684868 36.304647 
L 67.562515 36.028136 
L 75.440162 35.433339 
L 83.317809 36.159435 
L 91.195456 37.436278 
L 99.073103 36.607016 
L 106.95075 37.003044 
L 114.828397 37.688296 
L 122.706044 38.157712 
L 130.583691 37.598672 
L 138.461338 37.822815 
L 146.338985 38.496619 
L 154.216632 38.550159 
L 162.094279 38.429181 
L 169.971926 38.912189 
" style="fill:none;stroke:#000000;stroke-linecap:square;stroke-width:1.5;"/>
   </g>
   <g id="patch_3">
    <path d="M 39.99075 54.591375 
L 39.99075 10.239375 
" style="fill:none;stroke:#000000;stroke-linecap:square;stroke-linejoin:miter;stroke-width:1.5;"/>
   </g>
   <g id="patch_4">
    <path d="M 39.99075 54.591375 
L 173.91075 54.591375 
" style="fill:none;stroke:#000000;stroke-linecap:square;stroke-linejoin:miter;stroke-width:1.5;"/>
   </g>
   <g id="PathCollection_1">
    <defs>
     <path d="M 0 1.581139 
C 0.419323 1.581139 0.821528 1.41454 1.118034 1.118034 
C 1.41454 0.821528 1.581139 0.419323 1.581139 0 
C 1.581139 -0.419323 1.41454 -0.821528 1.118034 -1.118034 
C 0.821528 -1.41454 0.419323 -1.581139 0 -1.581139 
C -0.419323 -1.581139 -0.821528 -1.41454 -1.118034 -1.118034 
C -1.41454 -0.821528 -1.581139 -0.419323 -1.581139 0 
C -1.581139 0.419323 -1.41454 0.821528 -1.118034 1.118034 
C -0.821528 1.41454 -0.419323 1.581139 0 1.581139 
z
" id="m5aa5ec288f" style="stroke:#800080;"/>
    </defs>
    <g clip-path="url(#p8c3ec4dfe0)">
     <use style="fill:#800080;stroke:#800080;" x="43.929574" xlink:href="#m5aa5ec288f" y="36.75218"/>
     <use style="fill:#800080;stroke:#800080;" x="51.807221" xlink:href="#m5aa5ec288f" y="35.878097"/>
     <use style="fill:#800080;stroke:#800080;" x="59.684868" xlink:href="#m5aa5ec288f" y="35.590844"/>
     <use style="fill:#800080;stroke:#800080;" x="67.562515" xlink:href="#m5aa5ec288f" y="35.471672"/>
     <use style="fill:#800080;stroke:#800080;" x="75.440162" xlink:href="#m5aa5ec288f" y="36.087394"/>
     <use style="fill:#800080;stroke:#800080;" x="83.317809" xlink:href="#m5aa5ec288f" y="36.042131"/>
     <use style="fill:#800080;stroke:#800080;" x="91.195456" xlink:href="#m5aa5ec288f" y="36.465052"/>
     <use style="fill:#800080;stroke:#800080;" x="99.073103" xlink:href="#m5aa5ec288f" y="36.382759"/>
     <use style="fill:#800080;stroke:#800080;" x="106.95075" xlink:href="#m5aa5ec288f" y="36.39939"/>
     <use style="fill:#800080;stroke:#800080;" x="114.828397" xlink:href="#m5aa5ec288f" y="36.705642"/>
     <use style="fill:#800080;stroke:#800080;" x="122.706044" xlink:href="#m5aa5ec288f" y="36.303511"/>
     <use style="fill:#800080;stroke:#800080;" x="130.583691" xlink:href="#m5aa5ec288f" y="36.47581"/>
     <use style="fill:#800080;stroke:#800080;" x="138.461338" xlink:href="#m5aa5ec288f" y="36.529995"/>
     <use style="fill:#800080;stroke:#800080;" x="146.338985" xlink:href="#m5aa5ec288f" y="36.715802"/>
     <use style="fill:#800080;stroke:#800080;" x="154.216632" xlink:href="#m5aa5ec288f" y="37.147812"/>
     <use style="fill:#800080;stroke:#800080;" x="162.094279" xlink:href="#m5aa5ec288f" y="37.136483"/>
     <use style="fill:#800080;stroke:#800080;" x="169.971926" xlink:href="#m5aa5ec288f" y="37.173111"/>
    </g>
   </g>
   <g id="PathCollection_2">
    <g clip-path="url(#p8c3ec4dfe0)">
     <use style="fill:#800080;stroke:#800080;" x="43.929574" xlink:href="#m5aa5ec288f" y="36.986104"/>
     <use style="fill:#800080;stroke:#800080;" x="51.807221" xlink:href="#m5aa5ec288f" y="37.399151"/>
     <use style="fill:#800080;stroke:#800080;" x="59.684868" xlink:href="#m5aa5ec288f" y="37.437801"/>
     <use style="fill:#800080;stroke:#800080;" x="67.562515" xlink:href="#m5aa5ec288f" y="36.6186"/>
     <use style="fill:#800080;stroke:#800080;" x="75.440162" xlink:href="#m5aa5ec288f" y="36.792835"/>
     <use style="fill:#800080;stroke:#800080;" x="83.317809" xlink:href="#m5aa5ec288f" y="36.385846"/>
     <use style="fill:#800080;stroke:#800080;" x="91.195456" xlink:href="#m5aa5ec288f" y="37.229204"/>
     <use style="fill:#800080;stroke:#800080;" x="99.073103" xlink:href="#m5aa5ec288f" y="36.909409"/>
     <use style="fill:#800080;stroke:#800080;" x="106.95075" xlink:href="#m5aa5ec288f" y="36.648052"/>
     <use style="fill:#800080;stroke:#800080;" x="114.828397" xlink:href="#m5aa5ec288f" y="36.215654"/>
     <use style="fill:#800080;stroke:#800080;" x="122.706044" xlink:href="#m5aa5ec288f" y="36.467082"/>
     <use style="fill:#800080;stroke:#800080;" x="130.583691" xlink:href="#m5aa5ec288f" y="36.756724"/>
     <use style="fill:#800080;stroke:#800080;" x="138.461338" xlink:href="#m5aa5ec288f" y="36.811897"/>
     <use style="fill:#800080;stroke:#800080;" x="146.338985" xlink:href="#m5aa5ec288f" y="36.098085"/>
     <use style="fill:#800080;stroke:#800080;" x="154.216632" xlink:href="#m5aa5ec288f" y="36.110411"/>
     <use style="fill:#800080;stroke:#800080;" x="162.094279" xlink:href="#m5aa5ec288f" y="36.147268"/>
     <use style="fill:#800080;stroke:#800080;" x="169.971926" xlink:href="#m5aa5ec288f" y="36.384232"/>
    </g>
   </g>
   <g id="PathCollection_3">
    <g clip-path="url(#p8c3ec4dfe0)">
     <use style="fill:#800080;stroke:#800080;" x="43.929574" xlink:href="#m5aa5ec288f" y="34.944297"/>
     <use style="fill:#800080;stroke:#800080;" x="51.807221" xlink:href="#m5aa5ec288f" y="35.670577"/>
     <use style="fill:#800080;stroke:#800080;" x="59.684868" xlink:href="#m5aa5ec288f" y="36.304647"/>
     <use style="fill:#800080;stroke:#800080;" x="67.562515" xlink:href="#m5aa5ec288f" y="36.028136"/>
     <use style="fill:#800080;stroke:#800080;" x="75.440162" xlink:href="#m5aa5ec288f" y="35.433339"/>
     <use style="fill:#800080;stroke:#800080;" x="83.317809" xlink:href="#m5aa5ec288f" y="36.159435"/>
     <use style="fill:#800080;stroke:#800080;" x="91.195456" xlink:href="#m5aa5ec288f" y="37.436278"/>
     <use style="fill:#800080;stroke:#800080;" x="99.073103" xlink:href="#m5aa5ec288f" y="36.607016"/>
     <use style="fill:#800080;stroke:#800080;" x="106.95075" xlink:href="#m5aa5ec288f" y="37.003044"/>
     <use style="fill:#800080;stroke:#800080;" x="114.828397" xlink:href="#m5aa5ec288f" y="37.688296"/>
     <use style="fill:#800080;stroke:#800080;" x="122.706044" xlink:href="#m5aa5ec288f" y="38.157712"/>
     <use style="fill:#800080;stroke:#800080;" x="130.583691" xlink:href="#m5aa5ec288f" y="37.598672"/>
     <use style="fill:#800080;stroke:#800080;" x="138.461338" xlink:href="#m5aa5ec288f" y="37.822815"/>
     <use style="fill:#800080;stroke:#800080;" x="146.338985" xlink:href="#m5aa5ec288f" y="38.496619"/>
     <use style="fill:#800080;stroke:#800080;" x="154.216632" xlink:href="#m5aa5ec288f" y="38.550159"/>
     <use style="fill:#800080;stroke:#800080;" x="162.094279" xlink:href="#m5aa5ec288f" y="38.429181"/>
     <use style="fill:#800080;stroke:#800080;" x="169.971926" xlink:href="#m5aa5ec288f" y="38.912189"/>
    </g>
   </g>
   <g id="PathCollection_4">
    <defs>
     <path d="M 0 2.738613 
C 0.726289 2.738613 1.422928 2.450055 1.936492 1.936492 
C 2.450055 1.422928 2.738613 0.726289 2.738613 0 
C 2.738613 -0.726289 2.450055 -1.422928 1.936492 -1.936492 
C 1.422928 -2.450055 0.726289 -2.738613 0 -2.738613 
C -0.726289 -2.738613 -1.422928 -2.450055 -1.936492 -1.936492 
C -2.450055 -1.422928 -2.738613 -0.726289 -2.738613 0 
C -2.738613 0.726289 -2.450055 1.422928 -1.936492 1.936492 
C -1.422928 2.450055 -0.726289 2.738613 0 2.738613 
z
" id="m8b150cdee9" style="stroke:#008000;"/>
    </defs>
    <g clip-path="url(#p8c3ec4dfe0)">
     <use style="fill:#008000;stroke:#008000;" x="43.929574" xlink:href="#m8b150cdee9" y="36.336077"/>
    </g>
   </g>
   <g id="PathCollection_5">
    <g clip-path="url(#p8c3ec4dfe0)">
     <use style="fill:#008000;stroke:#008000;" x="169.971926" xlink:href="#m8b150cdee9" y="38.278826"/>
    </g>
   </g>
  </g>
 </g>
 <defs>
  <clipPath id="p8c3ec4dfe0">
   <rect height="44.352" width="133.92" x="39.99075" y="10.239375"/>
  </clipPath>
 </defs>
</svg>
