<?xml version="1.0" encoding="utf-8" standalone="no"?>
<!DOCTYPE svg PUBLIC "-//W3C//DTD SVG 1.1//EN"
  "http://www.w3.org/Graphics/SVG/1.1/DTD/svg11.dtd">
<!-- Created with matplotlib (https://matplotlib.org/) -->
<svg height="73.34pt" version="1.1" viewBox="0 0 419.66 73.34" width="419.66pt" xmlns="http://www.w3.org/2000/svg" xmlns:xlink="http://www.w3.org/1999/xlink">
 <metadata>
  <rdf:RDF xmlns:cc="http://creativecommons.org/ns#" xmlns:dc="http://purl.org/dc/elements/1.1/" xmlns:rdf="http://www.w3.org/1999/02/22-rdf-syntax-ns#">
   <cc:Work>
    <dc:type rdf:resource="http://purl.org/dc/dcmitype/StillImage"/>
    <dc:date>2020-12-16T14:58:06.482250</dc:date>
    <dc:format>image/svg+xml</dc:format>
    <dc:creator>
     <cc:Agent>
      <dc:title>Matplotlib v3.3.2, https://matplotlib.org/</dc:title>
     </cc:Agent>
    </dc:creator>
   </cc:Work>
  </rdf:RDF>
 </metadata>
 <defs>
  <style type="text/css">*{stroke-linecap:butt;stroke-linejoin:round;}</style>
 </defs>
 <g id="figure_1">
  <g id="patch_1">
   <path d="M 0 73.34 
L 419.66 73.34 
L 419.66 0 
L 0 0 
z
" style="fill:none;"/>
  </g>
  <g id="axes_1">
   <g id="patch_2">
    <path d="M 10.7 62.64 
L 53.440426 62.64 
L 53.440426 7.2 
L 10.7 7.2 
z
" style="fill:none;"/>
   </g>
   <g id="matplotlib.axis_1"/>
   <g id="matplotlib.axis_2"/>
   <g id="line2d_1">
    <path clip-path="url(#p895b2f3f6e)" d="M 12.642747 59.469677 
L 13.982572 55.892903 
L 15.322397 49.389677 
L 16.662222 45.487742 
L 18.002048 42.886452 
L 19.341873 40.610323 
L 20.681698 35.732903 
L 22.021523 33.131613 
L 23.361349 31.180645 
L 24.701174 32.806452 
L 26.040999 24.677419 
L 27.380824 26.628387 
L 28.72065 19.149677 
L 30.060475 18.824516 
L 31.4003 18.174194 
L 32.740125 22.076129 
L 34.079951 20.450323 
L 35.419776 18.824516 
L 36.759601 14.272258 
L 38.099426 22.40129 
L 39.439252 16.873548 
L 40.779077 25.652903 
L 42.118902 25.002581 
L 43.458727 25.002581 
L 44.798553 23.376774 
L 46.138378 20.775484 
L 47.478203 20.125161 
L 48.818028 25.978065 
L 50.157854 25.652903 
L 51.497679 16.873548 
" style="fill:none;stroke:#1f77b4;stroke-linecap:square;stroke-width:1.5;"/>
   </g>
   <g id="line2d_2">
    <path clip-path="url(#p895b2f3f6e)" d="M 12.642747 60.12 
L 13.982572 59.794839 
L 15.322397 59.794839 
L 16.662222 55.242581 
L 18.002048 51.990968 
L 19.341873 49.064516 
L 20.681698 42.56129 
L 22.021523 38.659355 
L 23.361349 37.35871 
L 24.701174 29.229677 
L 26.040999 23.051613 
L 27.380824 27.929032 
L 28.72065 23.051613 
L 30.060475 18.174194 
L 31.4003 19.8 
L 32.740125 17.523871 
L 34.079951 16.548387 
L 35.419776 16.223226 
L 36.759601 18.499355 
L 38.099426 25.978065 
L 39.439252 22.076129 
L 40.779077 13.947097 
L 42.118902 11.670968 
L 43.458727 13.947097 
L 44.798553 9.72 
L 46.138378 13.947097 
L 47.478203 27.603871 
L 48.818028 15.898065 
L 50.157854 21.425806 
L 51.497679 16.548387 
" style="fill:none;stroke:#ff0000;stroke-linecap:square;stroke-width:1.5;"/>
   </g>
   <g id="patch_3">
    <path d="M 10.7 62.64 
L 10.7 7.2 
" style="fill:none;stroke:#000000;stroke-linecap:square;stroke-linejoin:miter;stroke-width:1.5;"/>
   </g>
   <g id="patch_4">
    <path d="M 10.7 62.64 
L 53.440426 62.64 
" style="fill:none;stroke:#000000;stroke-linecap:square;stroke-linejoin:miter;stroke-width:1.5;"/>
   </g>
  </g>
  <g id="axes_2">
   <g id="patch_5">
    <path d="M 61.988511 62.64 
L 104.728936 62.64 
L 104.728936 7.2 
L 61.988511 7.2 
z
" style="fill:none;"/>
   </g>
   <g id="matplotlib.axis_3"/>
   <g id="matplotlib.axis_4"/>
   <g id="line2d_3">
    <path clip-path="url(#p1980787dae)" d="M 63.931257 9.72 
L 65.271083 25.700488 
L 66.610908 31.232195 
L 67.950733 32.461463 
L 69.290558 27.54439 
L 70.630384 35.841951 
L 71.970209 39.529756 
L 73.310034 37.378537 
L 74.649859 36.149268 
L 75.989685 38.300488 
L 77.32951 45.36878 
L 78.669335 45.983415 
L 80.00916 45.061463 
L 81.348986 48.134634 
L 82.688811 41.066341 
L 84.028636 43.524878 
L 85.368461 45.36878 
L 86.708287 45.061463 
L 88.048112 43.524878 
L 89.387937 49.978537 
L 90.727762 46.905366 
L 92.067588 49.67122 
L 93.407413 50.285854 
L 94.747238 51.822439 
L 96.087063 53.359024 
L 97.426889 58.583415 
L 98.766714 59.198049 
L 100.106539 53.666341 
L 101.446364 60.12 
L 102.78619 55.202927 
" style="fill:none;stroke:#1f77b4;stroke-linecap:square;stroke-width:1.5;"/>
   </g>
   <g id="line2d_4">
    <path clip-path="url(#p1980787dae)" d="M 63.931257 24.778537 
L 65.271083 29.388293 
L 66.610908 25.393171 
L 67.950733 35.227317 
L 69.290558 41.373659 
L 70.630384 35.227317 
L 71.970209 36.456585 
L 73.310034 37.378537 
L 74.649859 38.300488 
L 75.989685 38.915122 
L 77.32951 34.305366 
L 78.669335 44.139512 
L 80.00916 38.300488 
L 81.348986 39.222439 
L 82.688811 39.222439 
L 84.028636 42.602927 
L 85.368461 50.900488 
L 86.708287 46.598049 
L 88.048112 53.051707 
L 89.387937 50.285854 
L 90.727762 46.290732 
L 92.067588 44.754146 
L 93.407413 51.515122 
L 94.747238 49.978537 
L 96.087063 54.89561 
L 97.426889 59.505366 
L 98.766714 55.817561 
L 100.106539 55.510244 
L 101.446364 57.96878 
L 102.78619 48.441951 
" style="fill:none;stroke:#ff0000;stroke-linecap:square;stroke-width:1.5;"/>
   </g>
   <g id="patch_6">
    <path d="M 61.988511 62.64 
L 61.988511 7.2 
" style="fill:none;stroke:#000000;stroke-linecap:square;stroke-linejoin:miter;stroke-width:1.5;"/>
   </g>
   <g id="patch_7">
    <path d="M 61.988511 62.64 
L 104.728936 62.64 
" style="fill:none;stroke:#000000;stroke-linecap:square;stroke-linejoin:miter;stroke-width:1.5;"/>
   </g>
  </g>
  <g id="axes_3">
   <g id="patch_8">
    <path d="M 113.277021 62.64 
L 156.017447 62.64 
L 156.017447 7.2 
L 113.277021 7.2 
z
" style="fill:none;"/>
   </g>
   <g id="matplotlib.axis_5"/>
   <g id="matplotlib.axis_6"/>
   <g id="line2d_5">
    <path clip-path="url(#p85add26089)" d="M 115.219768 53.608995 
L 116.559593 48.303732 
L 117.899418 40.828134 
L 119.239244 36.246316 
L 120.579069 26.359234 
L 121.918894 20.812823 
L 123.258719 15.989856 
L 124.598545 13.096077 
L 125.93837 11.16689 
L 127.278195 16.95445 
L 128.61802 13.337225 
L 129.957846 15.748708 
L 131.297671 17.195598 
L 132.637496 26.600383 
L 133.977321 21.777416 
L 135.317147 27.806124 
L 136.656972 31.664498 
L 137.996797 37.210909 
L 139.336622 42.033876 
L 140.676448 41.792727 
L 142.016273 42.033876 
L 143.356098 51.43866 
L 144.695923 51.43866 
L 146.035749 53.126699 
L 147.375574 52.403254 
L 148.715399 57.467368 
L 150.055224 57.22622 
L 151.39505 58.431962 
L 152.734875 59.637703 
L 154.0747 60.12 
" style="fill:none;stroke:#1f77b4;stroke-linecap:square;stroke-width:1.5;"/>
   </g>
   <g id="line2d_6">
    <path clip-path="url(#p85add26089)" d="M 115.219768 54.091292 
L 116.559593 50.956364 
L 117.899418 46.615694 
L 119.239244 40.586986 
L 120.579069 32.387943 
L 121.918894 24.1889 
L 123.258719 26.359234 
L 124.598545 16.713301 
L 125.93837 12.854928 
L 127.278195 14.542967 
L 128.61802 9.72 
L 129.957846 19.84823 
L 131.297671 11.649187 
L 132.637496 13.337225 
L 133.977321 22.018565 
L 135.317147 24.912344 
L 136.656972 29.011866 
L 137.996797 34.317129 
L 139.336622 36.487464 
L 140.676448 42.033876 
L 142.016273 47.339139 
L 143.356098 47.09799 
L 144.695923 47.821435 
L 146.035749 50.715215 
L 147.375574 56.261627 
L 148.715399 56.502775 
L 150.055224 56.985072 
L 151.39505 58.190813 
L 152.734875 58.914258 
L 154.0747 59.396555 
" style="fill:none;stroke:#ff0000;stroke-linecap:square;stroke-width:1.5;"/>
   </g>
   <g id="patch_9">
    <path d="M 113.277021 62.64 
L 113.277021 7.2 
" style="fill:none;stroke:#000000;stroke-linecap:square;stroke-linejoin:miter;stroke-width:1.5;"/>
   </g>
   <g id="patch_10">
    <path d="M 113.277021 62.64 
L 156.017447 62.64 
" style="fill:none;stroke:#000000;stroke-linecap:square;stroke-linejoin:miter;stroke-width:1.5;"/>
   </g>
  </g>
  <g id="axes_4">
   <g id="patch_11">
    <path d="M 164.565532 62.64 
L 207.305957 62.64 
L 207.305957 7.2 
L 164.565532 7.2 
z
" style="fill:none;"/>
   </g>
   <g id="matplotlib.axis_7"/>
   <g id="matplotlib.axis_8"/>
   <g id="line2d_7">
    <path clip-path="url(#p049ff2c0aa)" d="M 166.508279 59.461176 
L 167.848104 60.12 
L 169.187929 52.214118 
L 170.527754 52.872941 
L 171.86758 58.143529 
L 173.207405 56.167059 
L 174.54723 51.884706 
L 175.887055 47.602353 
L 177.226881 38.049412 
L 178.566706 43.649412 
L 179.906531 42.661176 
L 181.246356 46.284706 
L 182.586182 32.449412 
L 183.926007 29.155294 
L 185.265832 38.378824 
L 186.605657 40.684706 
L 187.945483 40.684706 
L 189.285308 39.367059 
L 190.625133 39.696471 
L 191.964958 43.649412 
L 193.304784 42.002353 
L 194.644609 36.731765 
L 195.984434 36.072941 
L 197.324259 32.778824 
L 198.664085 31.461176 
L 200.00391 34.425882 
L 201.343735 30.802353 
L 202.68356 31.461176 
L 204.023386 21.908235 
L 205.363211 19.602353 
" style="fill:none;stroke:#1f77b4;stroke-linecap:square;stroke-width:1.5;"/>
   </g>
   <g id="line2d_8">
    <path clip-path="url(#p049ff2c0aa)" d="M 166.508279 55.508235 
L 167.848104 53.861176 
L 169.187929 53.202353 
L 170.527754 53.202353 
L 171.86758 55.508235 
L 173.207405 59.131765 
L 174.54723 52.214118 
L 175.887055 52.543529 
L 177.226881 48.92 
L 178.566706 42.990588 
L 179.906531 43.649412 
L 181.246356 46.614118 
L 182.586182 40.684706 
L 183.926007 38.049412 
L 185.265832 36.731765 
L 186.605657 42.661176 
L 187.945483 42.002353 
L 189.285308 39.037647 
L 190.625133 31.790588 
L 191.964958 35.414118 
L 193.304784 39.696471 
L 194.644609 39.367059 
L 195.984434 39.037647 
L 197.324259 40.355294 
L 198.664085 31.131765 
L 200.00391 35.414118 
L 201.343735 29.155294 
L 202.68356 23.225882 
L 204.023386 19.602353 
L 205.363211 9.72 
" style="fill:none;stroke:#ff0000;stroke-linecap:square;stroke-width:1.5;"/>
   </g>
   <g id="patch_12">
    <path d="M 164.565532 62.64 
L 164.565532 7.2 
" style="fill:none;stroke:#000000;stroke-linecap:square;stroke-linejoin:miter;stroke-width:1.5;"/>
   </g>
   <g id="patch_13">
    <path d="M 164.565532 62.64 
L 207.305957 62.64 
" style="fill:none;stroke:#000000;stroke-linecap:square;stroke-linejoin:miter;stroke-width:1.5;"/>
   </g>
  </g>
  <g id="axes_5">
   <g id="patch_14">
    <path d="M 215.854043 62.64 
L 258.594468 62.64 
L 258.594468 7.2 
L 215.854043 7.2 
z
" style="fill:none;"/>
   </g>
   <g id="matplotlib.axis_9"/>
   <g id="matplotlib.axis_10"/>
   <g id="line2d_9">
    <path clip-path="url(#pf579be75e0)" d="M 217.796789 58.583415 
L 219.136614 60.12 
L 220.47644 57.96878 
L 221.816265 51.822439 
L 223.15609 53.051707 
L 224.495915 51.207805 
L 225.835741 50.900488 
L 227.175566 50.900488 
L 228.515391 46.905366 
L 229.855216 46.290732 
L 231.195042 44.446829 
L 232.534867 40.759024 
L 233.874692 43.217561 
L 235.214517 37.685854 
L 236.554343 39.222439 
L 237.894168 28.466341 
L 239.233993 35.227317 
L 240.573818 33.383415 
L 241.913644 20.783415 
L 243.253469 29.388293 
L 244.593294 25.393171 
L 245.933119 25.700488 
L 247.272945 28.773659 
L 248.61277 32.76878 
L 249.952595 26.315122 
L 251.29242 37.07122 
L 252.632246 30.002927 
L 253.972071 37.685854 
L 255.311896 30.924878 
L 256.651721 12.485854 
" style="fill:none;stroke:#1f77b4;stroke-linecap:square;stroke-width:1.5;"/>
   </g>
   <g id="line2d_10">
    <path clip-path="url(#pf579be75e0)" d="M 217.796789 57.661463 
L 219.136614 59.812683 
L 220.47644 60.12 
L 221.816265 59.812683 
L 223.15609 58.890732 
L 224.495915 57.96878 
L 225.835741 56.432195 
L 227.175566 54.588293 
L 228.515391 54.280976 
L 229.855216 49.363902 
L 231.195042 51.207805 
L 232.534867 38.915122 
L 233.874692 41.373659 
L 235.214517 38.300488 
L 236.554343 34.92 
L 237.894168 37.685854 
L 239.233993 31.539512 
L 240.573818 34.305366 
L 241.913644 36.149268 
L 243.253469 21.398049 
L 244.593294 22.627317 
L 245.933119 22.012683 
L 247.272945 18.324878 
L 248.61277 28.773659 
L 249.952595 21.398049 
L 251.29242 25.700488 
L 252.632246 26.622439 
L 253.972071 30.002927 
L 255.311896 27.54439 
L 256.651721 9.72 
" style="fill:none;stroke:#ff0000;stroke-linecap:square;stroke-width:1.5;"/>
   </g>
   <g id="patch_15">
    <path d="M 215.854043 62.64 
L 215.854043 7.2 
" style="fill:none;stroke:#000000;stroke-linecap:square;stroke-linejoin:miter;stroke-width:1.5;"/>
   </g>
   <g id="patch_16">
    <path d="M 215.854043 62.64 
L 258.594468 62.64 
" style="fill:none;stroke:#000000;stroke-linecap:square;stroke-linejoin:miter;stroke-width:1.5;"/>
   </g>
  </g>
  <g id="axes_6">
   <g id="patch_17">
    <path d="M 267.142553 62.64 
L 309.882979 62.64 
L 309.882979 7.2 
L 267.142553 7.2 
z
" style="fill:none;"/>
   </g>
   <g id="matplotlib.axis_11"/>
   <g id="matplotlib.axis_12"/>
   <g id="line2d_11">
    <path clip-path="url(#p60f51025b6)" d="M 269.0853 58.847273 
L 270.425125 57.065455 
L 271.76495 56.556364 
L 273.104776 54.774545 
L 274.444601 48.92 
L 275.784426 47.392727 
L 277.124251 46.883636 
L 278.464077 40.52 
L 279.803902 42.047273 
L 281.143727 40.774545 
L 282.483552 36.956364 
L 283.823378 36.447273 
L 285.163203 32.12 
L 286.503028 27.792727 
L 287.842853 31.356364 
L 289.182679 30.338182 
L 290.522504 30.847273 
L 291.862329 22.956364 
L 293.202154 30.592727 
L 294.54198 31.101818 
L 295.881805 28.301818 
L 297.22163 29.32 
L 298.561455 26.52 
L 299.901281 26.265455 
L 301.241106 26.010909 
L 302.580931 21.938182 
L 303.920756 26.010909 
L 305.260582 20.92 
L 306.600407 20.156364 
L 307.940232 17.865455 
" style="fill:none;stroke:#1f77b4;stroke-linecap:square;stroke-width:1.5;"/>
   </g>
   <g id="line2d_12">
    <path clip-path="url(#p60f51025b6)" d="M 269.0853 60.12 
L 270.425125 59.356364 
L 271.76495 58.847273 
L 273.104776 55.538182 
L 274.444601 57.829091 
L 275.784426 54.52 
L 277.124251 53.501818 
L 278.464077 47.901818 
L 279.803902 43.065455 
L 281.143727 40.52 
L 282.483552 41.538182 
L 283.823378 35.174545 
L 285.163203 31.356364 
L 286.503028 31.865455 
L 287.842853 31.865455 
L 289.182679 24.483636 
L 290.522504 28.810909 
L 291.862329 24.992727 
L 293.202154 25.247273 
L 294.54198 28.810909 
L 295.881805 28.556364 
L 297.22163 33.647273 
L 298.561455 28.047273 
L 299.901281 22.447273 
L 301.241106 21.683636 
L 302.580931 15.829091 
L 303.920756 22.447273 
L 305.260582 14.556364 
L 306.600407 15.32 
L 307.940232 9.72 
" style="fill:none;stroke:#ff0000;stroke-linecap:square;stroke-width:1.5;"/>
   </g>
   <g id="patch_18">
    <path d="M 267.142553 62.64 
L 267.142553 7.2 
" style="fill:none;stroke:#000000;stroke-linecap:square;stroke-linejoin:miter;stroke-width:1.5;"/>
   </g>
   <g id="patch_19">
    <path d="M 267.142553 62.64 
L 309.882979 62.64 
" style="fill:none;stroke:#000000;stroke-linecap:square;stroke-linejoin:miter;stroke-width:1.5;"/>
   </g>
  </g>
  <g id="axes_7">
   <g id="patch_20">
    <path d="M 318.431064 62.64 
L 361.171489 62.64 
L 361.171489 7.2 
L 318.431064 7.2 
z
" style="fill:none;"/>
   </g>
   <g id="matplotlib.axis_13"/>
   <g id="matplotlib.axis_14"/>
   <g id="line2d_13">
    <path clip-path="url(#p35b75ac3fe)" d="M 320.37381 55.421695 
L 321.713636 49.442034 
L 323.053461 51.150508 
L 324.393286 54.567458 
L 325.733111 46.025085 
L 327.072937 46.452203 
L 328.412762 43.035254 
L 329.752587 46.452203 
L 331.092412 45.597966 
L 332.432238 45.597966 
L 333.772063 39.618305 
L 335.111888 37.482712 
L 336.451713 41.32678 
L 337.791539 43.462373 
L 339.131364 43.035254 
L 340.471189 36.628475 
L 341.811014 38.764068 
L 343.15084 27.658983 
L 344.490665 37.482712 
L 345.83049 38.764068 
L 347.170315 39.191186 
L 348.510141 44.31661 
L 349.849966 34.492881 
L 351.189791 30.648814 
L 352.529616 41.753898 
L 353.869442 34.92 
L 355.209267 26.377627 
L 356.549092 39.191186 
L 357.888917 36.628475 
L 359.228743 31.503051 
" style="fill:none;stroke:#1f77b4;stroke-linecap:square;stroke-width:1.5;"/>
   </g>
   <g id="line2d_14">
    <path clip-path="url(#p35b75ac3fe)" d="M 320.37381 52.431864 
L 321.713636 60.12 
L 323.053461 58.411525 
L 324.393286 57.557288 
L 325.733111 50.296271 
L 327.072937 56.703051 
L 328.412762 52.431864 
L 329.752587 46.452203 
L 331.092412 44.31661 
L 332.432238 47.306441 
L 333.772063 45.597966 
L 335.111888 49.014915 
L 336.451713 48.587797 
L 337.791539 40.472542 
L 339.131364 36.628475 
L 340.471189 36.201356 
L 341.811014 37.482712 
L 343.15084 43.035254 
L 344.490665 47.733559 
L 345.83049 41.32678 
L 347.170315 38.764068 
L 348.510141 30.648814 
L 349.849966 34.492881 
L 351.189791 33.638644 
L 352.529616 32.357288 
L 353.869442 27.231864 
L 355.209267 31.075932 
L 356.549092 15.272542 
L 357.888917 21.679322 
L 359.228743 9.72 
" style="fill:none;stroke:#ff0000;stroke-linecap:square;stroke-width:1.5;"/>
   </g>
   <g id="patch_21">
    <path d="M 318.431064 62.64 
L 318.431064 7.2 
" style="fill:none;stroke:#000000;stroke-linecap:square;stroke-linejoin:miter;stroke-width:1.5;"/>
   </g>
   <g id="patch_22">
    <path d="M 318.431064 62.64 
L 361.171489 62.64 
" style="fill:none;stroke:#000000;stroke-linecap:square;stroke-linejoin:miter;stroke-width:1.5;"/>
   </g>
  </g>
  <g id="axes_8">
   <g id="patch_23">
    <path d="M 369.719574 62.64 
L 412.46 62.64 
L 412.46 7.2 
L 369.719574 7.2 
z
" style="fill:none;"/>
   </g>
   <g id="matplotlib.axis_15"/>
   <g id="matplotlib.axis_16"/>
   <g id="line2d_15">
    <path clip-path="url(#p1584d4fd93)" d="M 371.662321 52.112523 
L 373.002146 50.699439 
L 374.341972 59.177944 
L 375.681797 45.047103 
L 377.021622 48.344299 
L 378.361447 40.80785 
L 379.701273 38.45271 
L 381.041098 47.402243 
L 382.380923 47.402243 
L 383.720748 44.576075 
L 385.060574 46.931215 
L 386.400399 49.286355 
L 387.740224 47.402243 
L 389.080049 34.213458 
L 390.419875 35.155514 
L 391.7597 47.873271 
L 393.099525 49.757383 
L 394.43935 40.80785 
L 395.779176 48.344299 
L 397.119001 45.518131 
L 398.458826 40.80785 
L 399.798651 50.699439 
L 401.138477 39.394766 
L 402.478302 56.822804 
L 403.818127 44.576075 
L 405.157952 46.931215 
L 406.497778 47.873271 
L 407.837603 48.344299 
L 409.177428 29.503178 
L 410.517253 41.278879 
" style="fill:none;stroke:#1f77b4;stroke-linecap:square;stroke-width:1.5;"/>
   </g>
   <g id="line2d_16">
    <path clip-path="url(#p1584d4fd93)" d="M 371.662321 60.12 
L 373.002146 57.76486 
L 374.341972 53.996636 
L 375.681797 57.293832 
L 377.021622 53.525607 
L 378.361447 47.402243 
L 379.701273 60.12 
L 381.041098 43.162991 
L 382.380923 45.518131 
L 383.720748 51.170467 
L 385.060574 49.286355 
L 386.400399 54.467664 
L 387.740224 56.351776 
L 389.080049 51.641495 
L 390.419875 49.286355 
L 391.7597 43.162991 
L 393.099525 50.228411 
L 394.43935 35.155514 
L 395.779176 44.105047 
L 397.119001 49.757383 
L 398.458826 37.039626 
L 399.798651 43.162991 
L 401.138477 36.568598 
L 402.478302 39.865794 
L 403.818127 34.684486 
L 405.157952 37.510654 
L 406.497778 49.286355 
L 407.837603 37.981682 
L 409.177428 26.205981 
L 410.517253 9.72 
" style="fill:none;stroke:#ff0000;stroke-linecap:square;stroke-width:1.5;"/>
   </g>
   <g id="patch_24">
    <path d="M 369.719574 62.64 
L 369.719574 7.2 
" style="fill:none;stroke:#000000;stroke-linecap:square;stroke-linejoin:miter;stroke-width:1.5;"/>
   </g>
   <g id="patch_25">
    <path d="M 369.719574 62.64 
L 412.46 62.64 
" style="fill:none;stroke:#000000;stroke-linecap:square;stroke-linejoin:miter;stroke-width:1.5;"/>
   </g>
  </g>
 </g>
 <defs>
  <clipPath id="p895b2f3f6e">
   <rect height="55.44" width="42.740426" x="10.7" y="7.2"/>
  </clipPath>
  <clipPath id="p1980787dae">
   <rect height="55.44" width="42.740426" x="61.988511" y="7.2"/>
  </clipPath>
  <clipPath id="p85add26089">
   <rect height="55.44" width="42.740426" x="113.277021" y="7.2"/>
  </clipPath>
  <clipPath id="p049ff2c0aa">
   <rect height="55.44" width="42.740426" x="164.565532" y="7.2"/>
  </clipPath>
  <clipPath id="pf579be75e0">
   <rect height="55.44" width="42.740426" x="215.854043" y="7.2"/>
  </clipPath>
  <clipPath id="p60f51025b6">
   <rect height="55.44" width="42.740426" x="267.142553" y="7.2"/>
  </clipPath>
  <clipPath id="p35b75ac3fe">
   <rect height="55.44" width="42.740426" x="318.431064" y="7.2"/>
  </clipPath>
  <clipPath id="p1584d4fd93">
   <rect height="55.44" width="42.740426" x="369.719574" y="7.2"/>
  </clipPath>
 </defs>
</svg>
