<?xml version="1.0" encoding="utf-8" standalone="no"?>
<!DOCTYPE svg PUBLIC "-//W3C//DTD SVG 1.1//EN"
  "http://www.w3.org/Graphics/SVG/1.1/DTD/svg11.dtd">
<!-- Created with matplotlib (https://matplotlib.org/) -->
<svg height="99.364375pt" version="1.1" viewBox="0 0 150.46625 99.364375" width="150.46625pt" xmlns="http://www.w3.org/2000/svg" xmlns:xlink="http://www.w3.org/1999/xlink">
 <metadata>
  <rdf:RDF xmlns:cc="http://creativecommons.org/ns#" xmlns:dc="http://purl.org/dc/elements/1.1/" xmlns:rdf="http://www.w3.org/1999/02/22-rdf-syntax-ns#">
   <cc:Work>
    <dc:type rdf:resource="http://purl.org/dc/dcmitype/StillImage"/>
    <dc:date>2020-12-18T15:49:09.886990</dc:date>
    <dc:format>image/svg+xml</dc:format>
    <dc:creator>
     <cc:Agent>
      <dc:title>Matplotlib v3.3.2, https://matplotlib.org/</dc:title>
     </cc:Agent>
    </dc:creator>
   </cc:Work>
  </rdf:RDF>
 </metadata>
 <defs>
  <style type="text/css">*{stroke-linecap:butt;stroke-linejoin:round;}</style>
 </defs>
 <g id="figure_1">
  <g id="patch_1">
   <path d="M 0 99.364375 
L 150.46625 99.364375 
L 150.46625 0 
L 0 0 
z
" style="fill:none;"/>
  </g>
  <g id="axes_1">
   <g id="patch_2">
    <path d="M 42.82625 65.679375 
L 143.26625 65.679375 
L 143.26625 10.239375 
L 42.82625 10.239375 
z
" style="fill:#ffffff;"/>
   </g>
   <g id="patch_3">
    <path clip-path="url(#pd5be98caf9)" d="M 47.391705 10.239375 
L 48.888575 10.239375 
L 48.888575 16.310863 
L 47.391705 16.310863 
z
"/>
   </g>
   <g id="patch_4">
    <path clip-path="url(#pd5be98caf9)" d="M 50.385445 10.239375 
L 51.882316 10.239375 
L 51.882316 20.055712 
L 50.385445 20.055712 
z
"/>
   </g>
   <g id="patch_5">
    <path clip-path="url(#pd5be98caf9)" d="M 53.379186 10.239375 
L 54.876056 10.239375 
L 54.876056 24.605684 
L 53.379186 24.605684 
z
"/>
   </g>
   <g id="patch_6">
    <path clip-path="url(#pd5be98caf9)" d="M 56.372927 10.239375 
L 57.869797 10.239375 
L 57.869797 25.665976 
L 56.372927 25.665976 
z
"/>
   </g>
   <g id="patch_7">
    <path clip-path="url(#pd5be98caf9)" d="M 59.366667 10.239375 
L 60.863538 10.239375 
L 60.863538 26.681299 
L 59.366667 26.681299 
z
"/>
   </g>
   <g id="patch_8">
    <path clip-path="url(#pd5be98caf9)" d="M 62.360408 10.239375 
L 63.857278 10.239375 
L 63.857278 29.785241 
L 62.360408 29.785241 
z
"/>
   </g>
   <g id="patch_9">
    <path clip-path="url(#pd5be98caf9)" d="M 65.354149 10.239375 
L 66.851019 10.239375 
L 66.851019 30.618508 
L 65.354149 30.618508 
z
"/>
   </g>
   <g id="patch_10">
    <path clip-path="url(#pd5be98caf9)" d="M 68.347889 10.239375 
L 69.84476 10.239375 
L 69.84476 33.923886 
L 68.347889 33.923886 
z
"/>
   </g>
   <g id="patch_11">
    <path clip-path="url(#pd5be98caf9)" d="M 71.34163 10.239375 
L 72.8385 10.239375 
L 72.8385 34.432889 
L 71.34163 34.432889 
z
"/>
   </g>
   <g id="patch_12">
    <path clip-path="url(#pd5be98caf9)" d="M 74.335371 10.239375 
L 75.832241 10.239375 
L 75.832241 34.734358 
L 74.335371 34.734358 
z
"/>
   </g>
   <g id="patch_13">
    <path clip-path="url(#pd5be98caf9)" d="M 77.329111 10.239375 
L 78.825982 10.239375 
L 78.825982 35.869876 
L 77.329111 35.869876 
z
"/>
   </g>
   <g id="patch_14">
    <path clip-path="url(#pd5be98caf9)" d="M 80.322852 10.239375 
L 81.819722 10.239375 
L 81.819722 36.536308 
L 80.322852 36.536308 
z
"/>
   </g>
   <g id="patch_15">
    <path clip-path="url(#pd5be98caf9)" d="M 83.316593 10.239375 
L 84.813463 10.239375 
L 84.813463 37.101238 
L 83.316593 37.101238 
z
"/>
   </g>
   <g id="patch_16">
    <path clip-path="url(#pd5be98caf9)" d="M 86.310333 10.239375 
L 87.807204 10.239375 
L 87.807204 37.664782 
L 86.310333 37.664782 
z
"/>
   </g>
   <g id="patch_17">
    <path clip-path="url(#pd5be98caf9)" d="M 89.304074 10.239375 
L 90.800944 10.239375 
L 90.800944 38.2848 
L 89.304074 38.2848 
z
"/>
   </g>
   <g id="patch_18">
    <path clip-path="url(#pd5be98caf9)" d="M 92.297815 10.239375 
L 93.794685 10.239375 
L 93.794685 39.323233 
L 92.297815 39.323233 
z
"/>
   </g>
   <g id="patch_19">
    <path clip-path="url(#pd5be98caf9)" d="M 95.291556 10.239375 
L 96.788426 10.239375 
L 96.788426 40.368536 
L 95.291556 40.368536 
z
"/>
   </g>
   <g id="patch_20">
    <path clip-path="url(#pd5be98caf9)" d="M 98.285296 10.239375 
L 99.782167 10.239375 
L 99.782167 40.728404 
L 98.285296 40.728404 
z
"/>
   </g>
   <g id="patch_21">
    <path clip-path="url(#pd5be98caf9)" d="M 101.279037 10.239375 
L 102.775907 10.239375 
L 102.775907 41.804549 
L 101.279037 41.804549 
z
"/>
   </g>
   <g id="patch_22">
    <path clip-path="url(#pd5be98caf9)" d="M 104.272778 10.239375 
L 105.769648 10.239375 
L 105.769648 42.659472 
L 104.272778 42.659472 
z
"/>
   </g>
   <g id="patch_23">
    <path clip-path="url(#pd5be98caf9)" d="M 107.266518 10.239375 
L 108.763389 10.239375 
L 108.763389 47.976909 
L 107.266518 47.976909 
z
"/>
   </g>
   <g id="patch_24">
    <path clip-path="url(#pd5be98caf9)" d="M 110.260259 10.239375 
L 111.757129 10.239375 
L 111.757129 50.098408 
L 110.260259 50.098408 
z
"/>
   </g>
   <g id="patch_25">
    <path clip-path="url(#pd5be98caf9)" d="M 113.254 10.239375 
L 114.75087 10.239375 
L 114.75087 56.045035 
L 113.254 56.045035 
z
"/>
   </g>
   <g id="patch_26">
    <path clip-path="url(#pd5be98caf9)" d="M 116.24774 10.239375 
L 117.744611 10.239375 
L 117.744611 57.568656 
L 116.24774 57.568656 
z
"/>
   </g>
   <g id="patch_27">
    <path clip-path="url(#pd5be98caf9)" d="M 119.241481 10.239375 
L 120.738351 10.239375 
L 120.738351 59.14008 
L 119.241481 59.14008 
z
"/>
   </g>
   <g id="patch_28">
    <path clip-path="url(#pd5be98caf9)" d="M 122.235222 10.239375 
L 123.732092 10.239375 
L 123.732092 63.039375 
L 122.235222 63.039375 
z
"/>
   </g>
   <g id="patch_29">
    <path clip-path="url(#pd5be98caf9)" d="M 125.228962 10.239375 
L 126.725833 10.239375 
L 126.725833 62.052629 
L 125.228962 62.052629 
z
"/>
   </g>
   <g id="patch_30">
    <path clip-path="url(#pd5be98caf9)" d="M 128.222703 10.239375 
L 129.719573 10.239375 
L 129.719573 60.705981 
L 128.222703 60.705981 
z
"/>
   </g>
   <g id="patch_31">
    <path clip-path="url(#pd5be98caf9)" d="M 131.216444 10.239375 
L 132.713314 10.239375 
L 132.713314 58.071359 
L 131.216444 58.071359 
z
"/>
   </g>
   <g id="patch_32">
    <path clip-path="url(#pd5be98caf9)" d="M 134.210184 10.239375 
L 135.707055 10.239375 
L 135.707055 57.442186 
L 134.210184 57.442186 
z
"/>
   </g>
   <g id="patch_33">
    <path clip-path="url(#pd5be98caf9)" d="M 137.203925 10.239375 
L 138.700795 10.239375 
L 138.700795 53.343537 
L 137.203925 53.343537 
z
"/>
   </g>
   <g id="matplotlib.axis_1">
    <g id="xtick_1">
     <g id="line2d_1">
      <defs>
       <path d="M 0 0 
L 0 3.5 
" id="mb37c3fc1ec" style="stroke:#000000;stroke-width:1.5;"/>
      </defs>
      <g>
       <use style="stroke:#000000;stroke-width:1.5;" x="48.14014" xlink:href="#mb37c3fc1ec" y="65.679375"/>
      </g>
     </g>
     <g id="text_1">
      <text style="font-family:DejaVu Sans;font-size:8px;font-stretch:normal;font-style:normal;font-weight:normal;text-anchor:middle;" transform="rotate(-0, 48.14014, 78.758125)" x="48.14014" y="78.758125">0</text>
     </g>
    </g>
    <g id="xtick_2">
     <g id="line2d_2">
      <g>
       <use style="stroke:#000000;stroke-width:1.5;" x="78.077547" xlink:href="#mb37c3fc1ec" y="65.679375"/>
      </g>
     </g>
     <g id="text_2">
      <text style="font-family:DejaVu Sans;font-size:8px;font-stretch:normal;font-style:normal;font-weight:normal;text-anchor:middle;" transform="rotate(-0, 78.077547, 78.758125)" x="78.077547" y="78.758125">10</text>
     </g>
    </g>
    <g id="xtick_3">
     <g id="line2d_3">
      <g>
       <use style="stroke:#000000;stroke-width:1.5;" x="108.014953" xlink:href="#mb37c3fc1ec" y="65.679375"/>
      </g>
     </g>
     <g id="text_3">
      <text style="font-family:DejaVu Sans;font-size:8px;font-stretch:normal;font-style:normal;font-weight:normal;text-anchor:middle;" transform="rotate(-0, 108.014953, 78.758125)" x="108.014953" y="78.758125">20</text>
     </g>
    </g>
    <g id="xtick_4">
     <g id="line2d_4">
      <g>
       <use style="stroke:#000000;stroke-width:1.5;" x="137.95236" xlink:href="#mb37c3fc1ec" y="65.679375"/>
      </g>
     </g>
     <g id="text_4">
      <text style="font-family:DejaVu Sans;font-size:8px;font-stretch:normal;font-style:normal;font-weight:normal;text-anchor:middle;" transform="rotate(-0, 137.95236, 78.758125)" x="137.95236" y="78.758125">30</text>
     </g>
    </g>
    <g id="text_5">
     <text style="font-family:DejaVu Sans;font-size:8px;font-stretch:normal;font-style:normal;font-weight:normal;text-anchor:middle;" transform="rotate(-0, 93.04625, 90.500625)" x="93.04625" y="90.500625">Dimension</text>
    </g>
   </g>
   <g id="matplotlib.axis_2">
    <g id="ytick_1">
     <g id="line2d_5">
      <defs>
       <path d="M 0 0 
L -3.5 0 
" id="m270778d079" style="stroke:#000000;stroke-width:1.5;"/>
      </defs>
      <g>
       <use style="stroke:#000000;stroke-width:1.5;" x="42.82625" xlink:href="#m270778d079" y="45.677825"/>
      </g>
     </g>
     <g id="text_6">
      <text style="font-family:DejaVu Sans;font-size:8px;font-stretch:normal;font-style:normal;font-weight:normal;text-anchor:end;" transform="rotate(-0, 35.82625, 48.7172)" x="35.82625" y="48.7172">−20</text>
     </g>
    </g>
    <g id="ytick_2">
     <g id="line2d_6">
      <g>
       <use style="stroke:#000000;stroke-width:1.5;" x="42.82625" xlink:href="#m270778d079" y="10.239375"/>
      </g>
     </g>
     <g id="text_7">
      <text style="font-family:DejaVu Sans;font-size:8px;font-stretch:normal;font-style:normal;font-weight:normal;text-anchor:end;" transform="rotate(-0, 35.82625, 13.27875)" x="35.82625" y="13.27875">0</text>
     </g>
    </g>
    <g id="text_8">
     <text style="font-family:DejaVu Sans;font-size:8px;font-stretch:normal;font-style:normal;font-weight:normal;text-anchor:middle;" transform="rotate(-90, 13.27875, 37.959375)" x="13.27875" y="37.959375">log(E.-value)</text>
    </g>
   </g>
   <g id="patch_34">
    <path d="M 42.82625 65.679375 
L 42.82625 10.239375 
" style="fill:none;stroke:#000000;stroke-linecap:square;stroke-linejoin:miter;stroke-width:1.5;"/>
   </g>
   <g id="patch_35">
    <path d="M 42.82625 65.679375 
L 143.26625 65.679375 
" style="fill:none;stroke:#000000;stroke-linecap:square;stroke-linejoin:miter;stroke-width:1.5;"/>
   </g>
  </g>
 </g>
 <defs>
  <clipPath id="pd5be98caf9">
   <rect height="55.44" width="100.44" x="42.82625" y="10.239375"/>
  </clipPath>
 </defs>
</svg>
