<?xml version="1.0" encoding="utf-8" standalone="no"?>
<!DOCTYPE svg PUBLIC "-//W3C//DTD SVG 1.1//EN"
  "http://www.w3.org/Graphics/SVG/1.1/DTD/svg11.dtd">
<!-- Created with matplotlib (https://matplotlib.org/) -->
<svg height="166.8918pt" version="1.1" viewBox="0 0 154.42 166.8918" width="154.42pt" xmlns="http://www.w3.org/2000/svg" xmlns:xlink="http://www.w3.org/1999/xlink">
 <metadata>
  <rdf:RDF xmlns:cc="http://creativecommons.org/ns#" xmlns:dc="http://purl.org/dc/elements/1.1/" xmlns:rdf="http://www.w3.org/1999/02/22-rdf-syntax-ns#">
   <cc:Work>
    <dc:type rdf:resource="http://purl.org/dc/dcmitype/StillImage"/>
    <dc:date>2020-12-18T16:08:00.954851</dc:date>
    <dc:format>image/svg+xml</dc:format>
    <dc:creator>
     <cc:Agent>
      <dc:title>Matplotlib v3.3.2, https://matplotlib.org/</dc:title>
     </cc:Agent>
    </dc:creator>
   </cc:Work>
  </rdf:RDF>
 </metadata>
 <defs>
  <style type="text/css">*{stroke-linecap:butt;stroke-linejoin:round;}</style>
 </defs>
 <g id="figure_1">
  <g id="patch_1">
   <path d="M -0 166.8918 
L 154.42 166.8918 
L 154.42 -0 
L -0 -0 
z
" style="fill:none;"/>
  </g>
  <g id="axes_1">
   <g id="patch_2">
    <path d="M 38.9225 133.2068 
L 136.5725 133.2068 
L 136.5725 36.1868 
L 38.9225 36.1868 
z
" style="fill:#ffffff;"/>
   </g>
   <g id="PathCollection_1">
    <defs>
     <path d="M 0 1.870829 
C 0.49615 1.870829 0.972045 1.673706 1.322876 1.322876 
C 1.673706 0.972045 1.870829 0.49615 1.870829 0 
C 1.870829 -0.49615 1.673706 -0.972045 1.322876 -1.322876 
C 0.972045 -1.673706 0.49615 -1.870829 0 -1.870829 
C -0.49615 -1.870829 -0.972045 -1.673706 -1.322876 -1.322876 
C -1.673706 -0.972045 -1.870829 -0.49615 -1.870829 0 
C -1.870829 0.49615 -1.673706 0.972045 -1.322876 1.322876 
C -0.972045 1.673706 -0.49615 1.870829 0 1.870829 
z
" id="m642d76ab13" style="stroke:#1b9e77;"/>
    </defs>
    <g clip-path="url(#pd8d5c886a9)">
     <use style="fill:#1b9e77;stroke:#1b9e77;" x="60.288009" xlink:href="#m642d76ab13" y="106.78434"/>
    </g>
   </g>
   <g id="PathCollection_2">
    <defs>
     <path d="M 0 1.870829 
C 0.49615 1.870829 0.972045 1.673706 1.322876 1.322876 
C 1.673706 0.972045 1.870829 0.49615 1.870829 0 
C 1.870829 -0.49615 1.673706 -0.972045 1.322876 -1.322876 
C 0.972045 -1.673706 0.49615 -1.870829 0 -1.870829 
C -0.49615 -1.870829 -0.972045 -1.673706 -1.322876 -1.322876 
C -1.673706 -0.972045 -1.870829 -0.49615 -1.870829 0 
C -1.870829 0.49615 -1.673706 0.972045 -1.322876 1.322876 
C -0.972045 1.673706 -0.49615 1.870829 0 1.870829 
z
" id="mec704d3011" style="stroke:#d95f02;"/>
    </defs>
    <g clip-path="url(#pd8d5c886a9)">
     <use style="fill:#d95f02;stroke:#d95f02;" x="54.023256" xlink:href="#mec704d3011" y="104.704418"/>
    </g>
   </g>
   <g id="PathCollection_3">
    <defs>
     <path d="M 0 1.870829 
C 0.49615 1.870829 0.972045 1.673706 1.322876 1.322876 
C 1.673706 0.972045 1.870829 0.49615 1.870829 0 
C 1.870829 -0.49615 1.673706 -0.972045 1.322876 -1.322876 
C 0.972045 -1.673706 0.49615 -1.870829 0 -1.870829 
C -0.49615 -1.870829 -0.972045 -1.673706 -1.322876 -1.322876 
C -1.673706 -0.972045 -1.870829 -0.49615 -1.870829 0 
C -1.870829 0.49615 -1.673706 0.972045 -1.322876 1.322876 
C -0.972045 1.673706 -0.49615 1.870829 0 1.870829 
z
" id="mfbf233edde" style="stroke:#7570b3;"/>
    </defs>
    <g clip-path="url(#pd8d5c886a9)">
     <use style="fill:#7570b3;stroke:#7570b3;" x="48.932225" xlink:href="#mfbf233edde" y="102.323837"/>
    </g>
   </g>
   <g id="PathCollection_4">
    <defs>
     <path d="M 0 1.870829 
C 0.49615 1.870829 0.972045 1.673706 1.322876 1.322876 
C 1.673706 0.972045 1.870829 0.49615 1.870829 0 
C 1.870829 -0.49615 1.673706 -0.972045 1.322876 -1.322876 
C 0.972045 -1.673706 0.49615 -1.870829 0 -1.870829 
C -0.49615 -1.870829 -0.972045 -1.673706 -1.322876 -1.322876 
C -1.673706 -0.972045 -1.870829 -0.49615 -1.870829 0 
C -1.870829 0.49615 -1.673706 0.972045 -1.322876 1.322876 
C -0.972045 1.673706 -0.49615 1.870829 0 1.870829 
z
" id="ma5586a5358" style="stroke:#e7298a;"/>
    </defs>
    <g clip-path="url(#pd8d5c886a9)">
     <use style="fill:#e7298a;stroke:#e7298a;" x="45.647796" xlink:href="#ma5586a5358" y="112.086165"/>
    </g>
   </g>
   <g id="PathCollection_5">
    <defs>
     <path d="M 0 1.870829 
C 0.49615 1.870829 0.972045 1.673706 1.322876 1.322876 
C 1.673706 0.972045 1.870829 0.49615 1.870829 0 
C 1.870829 -0.49615 1.673706 -0.972045 1.322876 -1.322876 
C 0.972045 -1.673706 0.49615 -1.870829 0 -1.870829 
C -0.49615 -1.870829 -0.972045 -1.673706 -1.322876 -1.322876 
C -1.673706 -0.972045 -1.870829 -0.49615 -1.870829 0 
C -1.870829 0.49615 -1.673706 0.972045 -1.322876 1.322876 
C -0.972045 1.673706 -0.49615 1.870829 0 1.870829 
z
" id="me7ce047095" style="stroke:#66a61e;"/>
    </defs>
    <g clip-path="url(#pd8d5c886a9)">
     <use style="fill:#66a61e;stroke:#66a61e;" x="40.704401" xlink:href="#me7ce047095" y="129.02113"/>
    </g>
   </g>
   <g id="PathCollection_6">
    <defs>
     <path d="M 0 1.870829 
C 0.49615 1.870829 0.972045 1.673706 1.322876 1.322876 
C 1.673706 0.972045 1.870829 0.49615 1.870829 0 
C 1.870829 -0.49615 1.673706 -0.972045 1.322876 -1.322876 
C 0.972045 -1.673706 0.49615 -1.870829 0 -1.870829 
C -0.49615 -1.870829 -0.972045 -1.673706 -1.322876 -1.322876 
C -1.673706 -0.972045 -1.870829 -0.49615 -1.870829 0 
C -1.870829 0.49615 -1.673706 0.972045 -1.322876 1.322876 
C -0.972045 1.673706 -0.49615 1.870829 0 1.870829 
z
" id="mebc55dcfed" style="stroke:#e6ab02;"/>
    </defs>
    <g clip-path="url(#pd8d5c886a9)">
     <use style="fill:#e6ab02;stroke:#e6ab02;" x="81.49371" xlink:href="#mebc55dcfed" y="123.612433"/>
    </g>
   </g>
   <g id="PathCollection_7">
    <defs>
     <path d="M 0 1.870829 
C 0.49615 1.870829 0.972045 1.673706 1.322876 1.322876 
C 1.673706 0.972045 1.870829 0.49615 1.870829 0 
C 1.870829 -0.49615 1.673706 -0.972045 1.322876 -1.322876 
C 0.972045 -1.673706 0.49615 -1.870829 0 -1.870829 
C -0.49615 -1.870829 -0.972045 -1.673706 -1.322876 -1.322876 
C -1.673706 -0.972045 -1.870829 -0.49615 -1.870829 0 
C -1.870829 0.49615 -1.673706 0.972045 -1.322876 1.322876 
C -0.972045 1.673706 -0.49615 1.870829 0 1.870829 
z
" id="m3958ccbf86" style="stroke:#a6761d;"/>
    </defs>
    <g clip-path="url(#pd8d5c886a9)">
     <use style="fill:#a6761d;stroke:#a6761d;" x="38.933902" xlink:href="#m3958ccbf86" y="132.155862"/>
    </g>
   </g>
   <g id="PathCollection_8">
    <defs>
     <path d="M 0 1.870829 
C 0.49615 1.870829 0.972045 1.673706 1.322876 1.322876 
C 1.673706 0.972045 1.870829 0.49615 1.870829 0 
C 1.870829 -0.49615 1.673706 -0.972045 1.322876 -1.322876 
C 0.972045 -1.673706 0.49615 -1.870829 0 -1.870829 
C -0.49615 -1.870829 -0.972045 -1.673706 -1.322876 -1.322876 
C -1.673706 -0.972045 -1.870829 -0.49615 -1.870829 0 
C -1.870829 0.49615 -1.673706 0.972045 -1.322876 1.322876 
C -0.972045 1.673706 -0.49615 1.870829 0 1.870829 
z
" id="me3c75e632c" style="stroke:#666666;"/>
    </defs>
    <g clip-path="url(#pd8d5c886a9)">
     <use style="fill:#666666;stroke:#666666;" x="38.953524" xlink:href="#me3c75e632c" y="130.136271"/>
    </g>
   </g>
   <g id="PathCollection_9">
    <defs>
     <path d="M 0 -1.870829 
L -1.870829 1.870829 
L 1.870829 1.870829 
z
" id="m84227e3d3d" style="stroke:#1b9e77;"/>
    </defs>
    <g clip-path="url(#pd8d5c886a9)">
     <use style="fill:#1b9e77;stroke:#1b9e77;" x="46.143918" xlink:href="#m84227e3d3d" y="125.860267"/>
    </g>
   </g>
   <g id="PathCollection_10">
    <defs>
     <path d="M 0 -1.870829 
L -1.870829 1.870829 
L 1.870829 1.870829 
z
" id="m76c6d2172b" style="stroke:#d95f02;"/>
    </defs>
    <g clip-path="url(#pd8d5c886a9)">
     <use style="fill:#d95f02;stroke:#d95f02;" x="42.832764" xlink:href="#m76c6d2172b" y="123.792894"/>
    </g>
   </g>
   <g id="PathCollection_11">
    <defs>
     <path d="M 0 -1.870829 
L -1.870829 1.870829 
L 1.870829 1.870829 
z
" id="mca6d92673e" style="stroke:#7570b3;"/>
    </defs>
    <g clip-path="url(#pd8d5c886a9)">
     <use style="fill:#7570b3;stroke:#7570b3;" x="48.195633" xlink:href="#mca6d92673e" y="101.031672"/>
    </g>
   </g>
   <g id="PathCollection_12">
    <defs>
     <path d="M 0 -1.870829 
L -1.870829 1.870829 
L 1.870829 1.870829 
z
" id="m8c2a6e35bf" style="stroke:#e7298a;"/>
    </defs>
    <g clip-path="url(#pd8d5c886a9)">
     <use style="fill:#e7298a;stroke:#e7298a;" x="43.396564" xlink:href="#m8c2a6e35bf" y="123.030179"/>
    </g>
   </g>
   <g id="PathCollection_13">
    <defs>
     <path d="M 0 -1.870829 
L -1.870829 1.870829 
L 1.870829 1.870829 
z
" id="mca98bbd665" style="stroke:#66a61e;"/>
    </defs>
    <g clip-path="url(#pd8d5c886a9)">
     <use style="fill:#66a61e;stroke:#66a61e;" x="39.411255" xlink:href="#mca98bbd665" y="132.311891"/>
    </g>
   </g>
   <g id="PathCollection_14">
    <defs>
     <path d="M 0 -1.870829 
L -1.870829 1.870829 
L 1.870829 1.870829 
z
" id="ma594dfb690" style="stroke:#e6ab02;"/>
    </defs>
    <g clip-path="url(#pd8d5c886a9)">
     <use style="fill:#e6ab02;stroke:#e6ab02;" x="50.901681" xlink:href="#ma594dfb690" y="123.373294"/>
    </g>
   </g>
   <g id="PathCollection_15">
    <defs>
     <path d="M 0 -1.870829 
L -1.870829 1.870829 
L 1.870829 1.870829 
z
" id="mf28cb961f2" style="stroke:#a6761d;"/>
    </defs>
    <g clip-path="url(#pd8d5c886a9)">
     <use style="fill:#a6761d;stroke:#a6761d;" x="38.959324" xlink:href="#mf28cb961f2" y="131.649821"/>
    </g>
   </g>
   <g id="PathCollection_16">
    <defs>
     <path d="M 0 -1.870829 
L -1.870829 1.870829 
L 1.870829 1.870829 
z
" id="mc156b0fbc9" style="stroke:#666666;"/>
    </defs>
    <g clip-path="url(#pd8d5c886a9)">
     <use style="fill:#666666;stroke:#666666;" x="39.051567" xlink:href="#mc156b0fbc9" y="130.3039"/>
    </g>
   </g>
   <g id="PathCollection_17">
    <defs>
     <path d="M -1.870829 1.870829 
L 1.870829 1.870829 
L 1.870829 -1.870829 
L -1.870829 -1.870829 
z
" id="m7a17ad805b" style="stroke:#1b9e77;"/>
    </defs>
    <g clip-path="url(#pd8d5c886a9)">
     <use style="fill:#1b9e77;stroke:#1b9e77;" x="85.309638" xlink:href="#m7a17ad805b" y="74.726555"/>
    </g>
   </g>
   <g id="PathCollection_18">
    <defs>
     <path d="M -1.870829 1.870829 
L 1.870829 1.870829 
L 1.870829 -1.870829 
L -1.870829 -1.870829 
z
" id="mef1f30fe69" style="stroke:#d95f02;"/>
    </defs>
    <g clip-path="url(#pd8d5c886a9)">
     <use style="fill:#d95f02;stroke:#d95f02;" x="77.490518" xlink:href="#mef1f30fe69" y="64.674021"/>
    </g>
   </g>
   <g id="PathCollection_19">
    <defs>
     <path d="M -1.870829 1.870829 
L 1.870829 1.870829 
L 1.870829 -1.870829 
L -1.870829 -1.870829 
z
" id="m5667ee3ced" style="stroke:#7570b3;"/>
    </defs>
    <g clip-path="url(#pd8d5c886a9)">
     <use style="fill:#7570b3;stroke:#7570b3;" x="46.87129" xlink:href="#m5667ee3ced" y="93.433372"/>
    </g>
   </g>
   <g id="PathCollection_20">
    <defs>
     <path d="M -1.870829 1.870829 
L 1.870829 1.870829 
L 1.870829 -1.870829 
L -1.870829 -1.870829 
z
" id="m97796a8c74" style="stroke:#e7298a;"/>
    </defs>
    <g clip-path="url(#pd8d5c886a9)">
     <use style="fill:#e7298a;stroke:#e7298a;" x="54.433293" xlink:href="#m97796a8c74" y="111.442251"/>
    </g>
   </g>
   <g id="PathCollection_21">
    <defs>
     <path d="M -1.870829 1.870829 
L 1.870829 1.870829 
L 1.870829 -1.870829 
L -1.870829 -1.870829 
z
" id="ma1c2aba8bd" style="stroke:#66a61e;"/>
    </defs>
    <g clip-path="url(#pd8d5c886a9)">
     <use style="fill:#66a61e;stroke:#66a61e;" x="39.587775" xlink:href="#ma1c2aba8bd" y="117.373875"/>
    </g>
   </g>
   <g id="PathCollection_22">
    <defs>
     <path d="M -1.870829 1.870829 
L 1.870829 1.870829 
L 1.870829 -1.870829 
L -1.870829 -1.870829 
z
" id="mb0a0194b25" style="stroke:#e6ab02;"/>
    </defs>
    <g clip-path="url(#pd8d5c886a9)">
     <use style="fill:#e6ab02;stroke:#e6ab02;" x="132.554618" xlink:href="#mb0a0194b25" y="123.405228"/>
    </g>
   </g>
   <g id="PathCollection_23">
    <defs>
     <path d="M -1.870829 1.870829 
L 1.870829 1.870829 
L 1.870829 -1.870829 
L -1.870829 -1.870829 
z
" id="mb5574f88e1" style="stroke:#a6761d;"/>
    </defs>
    <g clip-path="url(#pd8d5c886a9)">
     <use style="fill:#a6761d;stroke:#a6761d;" x="38.991591" xlink:href="#mb5574f88e1" y="132.959097"/>
    </g>
   </g>
   <g id="PathCollection_24">
    <defs>
     <path d="M -1.870829 1.870829 
L 1.870829 1.870829 
L 1.870829 -1.870829 
L -1.870829 -1.870829 
z
" id="m109d69ee2f" style="stroke:#666666;"/>
    </defs>
    <g clip-path="url(#pd8d5c886a9)">
     <use style="fill:#666666;stroke:#666666;" x="39.058062" xlink:href="#m109d69ee2f" y="125.236446"/>
    </g>
   </g>
   <g id="PathCollection_25">
    <defs>
     <path d="M 0 1.870829 
C 0.49615 1.870829 0.972045 1.673706 1.322876 1.322876 
C 1.673706 0.972045 1.870829 0.49615 1.870829 0 
C 1.870829 -0.49615 1.673706 -0.972045 1.322876 -1.322876 
C 0.972045 -1.673706 0.49615 -1.870829 0 -1.870829 
C -0.49615 -1.870829 -0.972045 -1.673706 -1.322876 -1.322876 
C -1.673706 -0.972045 -1.870829 -0.49615 -1.870829 0 
C -1.870829 0.49615 -1.673706 0.972045 -1.322876 1.322876 
C -0.972045 1.673706 -0.49615 1.870829 0 1.870829 
z
" id="mc0e07cc898" style="stroke:#000000;"/>
    </defs>
    <g clip-path="url(#pd8d5c886a9)"/>
   </g>
   <g id="PathCollection_26">
    <defs>
     <path d="M 0 -1.870829 
L -1.870829 1.870829 
L 1.870829 1.870829 
z
" id="m7f7b73968d" style="stroke:#000000;"/>
    </defs>
    <g clip-path="url(#pd8d5c886a9)"/>
   </g>
   <g id="PathCollection_27">
    <defs>
     <path d="M -1.870829 1.870829 
L 1.870829 1.870829 
L 1.870829 -1.870829 
L -1.870829 -1.870829 
z
" id="m7519271c14" style="stroke:#000000;"/>
    </defs>
    <g clip-path="url(#pd8d5c886a9)"/>
   </g>
   <g id="patch_3">
    <path clip-path="url(#pd8d5c886a9)" d="M 129.191732 120.796164 
L 123.726285 119.589456 
L 125.26572 117.706991 
L 115.250335 109.621991 
L 115.32928 109.525455 
L 125.344665 117.610455 
L 126.884099 115.72799 
z
" style="stroke:#000000;stroke-linejoin:miter;"/>
   </g>
   <g id="patch_4">
    <path clip-path="url(#pd8d5c886a9)" d="M 74.044521 63.703625 
L 68.579074 62.496917 
L 70.118508 60.614453 
L 60.103123 52.529453 
L 60.182069 52.432916 
L 70.197453 60.517916 
L 71.736888 58.635452 
z
" style="stroke:#000000;stroke-linejoin:miter;"/>
   </g>
   <g id="patch_5">
    <path clip-path="url(#pd8d5c886a9)" d="M 47.560769 89.672185 
L 45.056923 84.6968 
L 47.498173 84.6968 
L 47.498173 72.258338 
L 47.623365 72.258338 
L 47.623365 84.6968 
L 50.064615 84.6968 
z
" style="stroke:#000000;stroke-linejoin:miter;"/>
   </g>
   <g id="matplotlib.axis_1">
    <g id="xtick_1">
     <g id="line2d_1">
      <defs>
       <path d="M 0 0 
L 0 3.5 
" id="m99a6812286" style="stroke:#000000;stroke-width:1.5;"/>
      </defs>
      <g>
       <use style="stroke:#000000;stroke-width:1.5;" x="38.9225" xlink:href="#m99a6812286" y="133.2068"/>
      </g>
     </g>
     <g id="text_1">
      <text style="font-family:DejaVu Sans;font-size:8px;font-stretch:normal;font-style:normal;font-weight:normal;text-anchor:middle;" transform="rotate(-0, 38.9225, 146.28555)" x="38.9225" y="146.28555">0.0</text>
     </g>
    </g>
    <g id="xtick_2">
     <g id="line2d_2">
      <g>
       <use style="stroke:#000000;stroke-width:1.5;" x="63.960962" xlink:href="#m99a6812286" y="133.2068"/>
      </g>
     </g>
     <g id="text_2">
      <text style="font-family:DejaVu Sans;font-size:8px;font-stretch:normal;font-style:normal;font-weight:normal;text-anchor:middle;" transform="rotate(-0, 63.960962, 146.28555)" x="63.960962" y="146.28555">0.2</text>
     </g>
    </g>
    <g id="xtick_3">
     <g id="line2d_3">
      <g>
       <use style="stroke:#000000;stroke-width:1.5;" x="88.999423" xlink:href="#m99a6812286" y="133.2068"/>
      </g>
     </g>
     <g id="text_3">
      <text style="font-family:DejaVu Sans;font-size:8px;font-stretch:normal;font-style:normal;font-weight:normal;text-anchor:middle;" transform="rotate(-0, 88.999423, 146.28555)" x="88.999423" y="146.28555">0.4</text>
     </g>
    </g>
    <g id="xtick_4">
     <g id="line2d_4">
      <g>
       <use style="stroke:#000000;stroke-width:1.5;" x="114.037885" xlink:href="#m99a6812286" y="133.2068"/>
      </g>
     </g>
     <g id="text_4">
      <text style="font-family:DejaVu Sans;font-size:8px;font-stretch:normal;font-style:normal;font-weight:normal;text-anchor:middle;" transform="rotate(-0, 114.037885, 146.28555)" x="114.037885" y="146.28555">0.6</text>
     </g>
    </g>
    <g id="text_5">
     <text style="font-family:DejaVu Sans;font-size:8px;font-stretch:normal;font-style:normal;font-weight:normal;text-anchor:middle;" transform="rotate(-0, 87.7475, 158.02805)" x="87.7475" y="158.02805">Consumed Energy</text>
    </g>
   </g>
   <g id="matplotlib.axis_2">
    <g id="ytick_1">
     <g id="line2d_5">
      <defs>
       <path d="M 0 0 
L -3.5 0 
" id="m3f277a5ab6" style="stroke:#000000;stroke-width:1.5;"/>
      </defs>
      <g>
       <use style="stroke:#000000;stroke-width:1.5;" x="38.9225" xlink:href="#m3f277a5ab6" y="133.2068"/>
      </g>
     </g>
     <g id="text_6">
      <text style="font-family:DejaVu Sans;font-size:8px;font-stretch:normal;font-style:normal;font-weight:normal;text-anchor:end;" transform="rotate(-0, 31.9225, 136.246175)" x="31.9225" y="136.246175">0.0</text>
     </g>
    </g>
    <g id="ytick_2">
     <g id="line2d_6">
      <g>
       <use style="stroke:#000000;stroke-width:1.5;" x="38.9225" xlink:href="#m3f277a5ab6" y="108.329877"/>
      </g>
     </g>
     <g id="text_7">
      <text style="font-family:DejaVu Sans;font-size:8px;font-stretch:normal;font-style:normal;font-weight:normal;text-anchor:end;" transform="rotate(-0, 31.9225, 111.369252)" x="31.9225" y="111.369252">0.2</text>
     </g>
    </g>
    <g id="ytick_3">
     <g id="line2d_7">
      <g>
       <use style="stroke:#000000;stroke-width:1.5;" x="38.9225" xlink:href="#m3f277a5ab6" y="83.452954"/>
      </g>
     </g>
     <g id="text_8">
      <text style="font-family:DejaVu Sans;font-size:8px;font-stretch:normal;font-style:normal;font-weight:normal;text-anchor:end;" transform="rotate(-0, 31.9225, 86.492329)" x="31.9225" y="86.492329">0.4</text>
     </g>
    </g>
    <g id="ytick_4">
     <g id="line2d_8">
      <g>
       <use style="stroke:#000000;stroke-width:1.5;" x="38.9225" xlink:href="#m3f277a5ab6" y="58.576031"/>
      </g>
     </g>
     <g id="text_9">
      <text style="font-family:DejaVu Sans;font-size:8px;font-stretch:normal;font-style:normal;font-weight:normal;text-anchor:end;" transform="rotate(-0, 31.9225, 61.615406)" x="31.9225" y="61.615406">0.6</text>
     </g>
    </g>
    <g id="text_10">
     <text style="font-family:DejaVu Sans;font-size:8px;font-stretch:normal;font-style:normal;font-weight:normal;text-anchor:middle;" transform="rotate(-90, 13.31375, 84.6968)" x="13.31375" y="84.6968">|Active dim.|</text>
    </g>
   </g>
   <g id="line2d_9">
    <path clip-path="url(#pd8d5c886a9)" d="M 38.9225 133.2068 
L 126.557115 46.137569 
" style="fill:none;stroke:#808080;stroke-linecap:square;stroke-opacity:0.5;stroke-width:1.5;"/>
   </g>
   <g id="patch_6">
    <path d="M 38.9225 133.2068 
L 38.9225 36.1868 
" style="fill:none;stroke:#000000;stroke-linecap:square;stroke-linejoin:miter;stroke-width:1.5;"/>
   </g>
   <g id="patch_7">
    <path d="M 38.9225 133.2068 
L 136.5725 133.2068 
" style="fill:none;stroke:#000000;stroke-linecap:square;stroke-linejoin:miter;stroke-width:1.5;"/>
   </g>
   <g id="legend_1">
    <g id="text_11">
     <text style="font-family:DejaVu Sans;font-size:8px;font-stretch:normal;font-style:normal;font-weight:normal;text-anchor:start;" transform="rotate(-0, 22.39, 16.47875)" x="22.39" y="16.47875">Na</text>
    </g>
    <g id="PathCollection_28">
     <g>
      <use style="fill:#1b9e77;stroke:#1b9e77;" x="38.0775" xlink:href="#m642d76ab13" y="14.37875"/>
     </g>
    </g>
    <g id="text_12">
     <text style="font-family:DejaVu Sans;font-size:8px;font-stretch:normal;font-style:normal;font-weight:normal;text-anchor:start;" transform="rotate(-0, 17.9025, 26.62125)" x="17.9025" y="26.62125">CaT</text>
    </g>
    <g id="PathCollection_29">
     <g>
      <use style="fill:#d95f02;stroke:#d95f02;" x="38.0775" xlink:href="#mec704d3011" y="24.52125"/>
     </g>
    </g>
    <g id="text_13">
     <text style="font-family:DejaVu Sans;font-size:8px;font-stretch:normal;font-style:normal;font-weight:normal;text-anchor:start;" transform="rotate(-0, 50.0775, 16.47875)" x="50.0775" y="16.47875">CaS</text>
    </g>
    <g id="PathCollection_30">
     <g>
      <use style="fill:#7570b3;stroke:#7570b3;" x="70.445" xlink:href="#mfbf233edde" y="14.37875"/>
     </g>
    </g>
    <g id="text_14">
     <text style="font-family:DejaVu Sans;font-size:8px;font-stretch:normal;font-style:normal;font-weight:normal;text-anchor:start;" transform="rotate(-0, 60.1725, 26.62125)" x="60.1725" y="26.62125">A</text>
    </g>
    <g id="PathCollection_31">
     <g>
      <use style="fill:#e7298a;stroke:#e7298a;" x="70.445" xlink:href="#ma5586a5358" y="24.52125"/>
     </g>
    </g>
    <g id="text_15">
     <text style="font-family:DejaVu Sans;font-size:8px;font-stretch:normal;font-style:normal;font-weight:normal;text-anchor:start;" transform="rotate(-0, 82.445, 16.47875)" x="82.445" y="16.47875">KCa</text>
    </g>
    <g id="PathCollection_32">
     <g>
      <use style="fill:#66a61e;stroke:#66a61e;" x="102.54" xlink:href="#me7ce047095" y="14.37875"/>
     </g>
    </g>
    <g id="text_16">
     <text style="font-family:DejaVu Sans;font-size:8px;font-stretch:normal;font-style:normal;font-weight:normal;text-anchor:start;" transform="rotate(-0, 87.415, 26.62125)" x="87.415" y="26.62125">Kd</text>
    </g>
    <g id="PathCollection_33">
     <g>
      <use style="fill:#e6ab02;stroke:#e6ab02;" x="102.54" xlink:href="#mebc55dcfed" y="24.52125"/>
     </g>
    </g>
    <g id="text_17">
     <text style="font-family:DejaVu Sans;font-size:8px;font-stretch:normal;font-style:normal;font-weight:normal;text-anchor:start;" transform="rotate(-0, 125.20375, 16.47875)" x="125.20375" y="16.47875">H</text>
    </g>
    <g id="PathCollection_34">
     <g>
      <use style="fill:#a6761d;stroke:#a6761d;" x="136.02" xlink:href="#m3958ccbf86" y="14.37875"/>
     </g>
    </g>
    <g id="text_18">
     <text style="font-family:DejaVu Sans;font-size:8px;font-stretch:normal;font-style:normal;font-weight:normal;text-anchor:start;" transform="rotate(-0, 114.54, 26.62125)" x="114.54" y="26.62125">leak</text>
    </g>
    <g id="PathCollection_35">
     <g>
      <use style="fill:#666666;stroke:#666666;" x="136.02" xlink:href="#me3c75e632c" y="24.52125"/>
     </g>
    </g>
   </g>
   <g id="legend_2">
    <g id="text_19">
     <text style="font-family:DejaVu Sans;font-size:8px;font-stretch:normal;font-style:normal;font-weight:normal;text-anchor:start;" transform="rotate(-0, 54.16875, 37.82315)" x="54.16875" y="37.82315">AB/PD</text>
    </g>
    <g id="PathCollection_36">
     <g>
      <use style="stroke:#000000;" x="83.60875" xlink:href="#mc0e07cc898" y="35.72315"/>
     </g>
    </g>
    <g id="text_20">
     <text style="font-family:DejaVu Sans;font-size:8px;font-stretch:normal;font-style:normal;font-weight:normal;text-anchor:start;" transform="rotate(-0, 95.60875, 37.82315)" x="95.60875" y="37.82315">LP</text>
    </g>
    <g id="PathCollection_37">
     <g>
      <use style="stroke:#000000;" x="109.69" xlink:href="#m7f7b73968d" y="35.72315"/>
     </g>
    </g>
    <g id="text_21">
     <text style="font-family:DejaVu Sans;font-size:8px;font-stretch:normal;font-style:normal;font-weight:normal;text-anchor:start;" transform="rotate(-0, 121.69, 37.82315)" x="121.69" y="37.82315">PY</text>
    </g>
    <g id="PathCollection_38">
     <g>
      <use style="stroke:#000000;" x="136.02" xlink:href="#m7519271c14" y="35.72315"/>
     </g>
    </g>
   </g>
  </g>
 </g>
 <defs>
  <clipPath id="pd8d5c886a9">
   <rect height="97.02" width="97.65" x="38.9225" y="36.1868"/>
  </clipPath>
 </defs>
</svg>
