<?xml version="1.0" encoding="utf-8" standalone="no"?>
<!DOCTYPE svg PUBLIC "-//W3C//DTD SVG 1.1//EN"
  "http://www.w3.org/Graphics/SVG/1.1/DTD/svg11.dtd">
<!-- Created with matplotlib (https://matplotlib.org/) -->
<svg height="99.925pt" version="1.1" viewBox="0 0 161.62625 99.925" width="161.62625pt" xmlns="http://www.w3.org/2000/svg" xmlns:xlink="http://www.w3.org/1999/xlink">
 <metadata>
  <rdf:RDF xmlns:cc="http://creativecommons.org/ns#" xmlns:dc="http://purl.org/dc/elements/1.1/" xmlns:rdf="http://www.w3.org/1999/02/22-rdf-syntax-ns#">
   <cc:Work>
    <dc:type rdf:resource="http://purl.org/dc/dcmitype/StillImage"/>
    <dc:date>2020-12-18T15:42:05.337838</dc:date>
    <dc:format>image/svg+xml</dc:format>
    <dc:creator>
     <cc:Agent>
      <dc:title>Matplotlib v3.3.2, https://matplotlib.org/</dc:title>
     </cc:Agent>
    </dc:creator>
   </cc:Work>
  </rdf:RDF>
 </metadata>
 <defs>
  <style type="text/css">*{stroke-linecap:butt;stroke-linejoin:round;}</style>
 </defs>
 <g id="figure_1">
  <g id="patch_1">
   <path d="M 0 99.925 
L 161.62625 99.925 
L 161.62625 0 
L 0 0 
z
" style="fill:none;"/>
  </g>
  <g id="axes_1">
   <g id="patch_2">
    <path d="M 42.82625 66.24 
L 154.42625 66.24 
L 154.42625 10.8 
L 42.82625 10.8 
z
" style="fill:#ffffff;"/>
   </g>
   <g id="patch_3">
    <path clip-path="url(#p995ddc7927)" d="M 47.898977 32.301118 
L 49.562167 32.301118 
L 49.562167 13.32 
L 47.898977 13.32 
z
"/>
   </g>
   <g id="patch_4">
    <path clip-path="url(#p995ddc7927)" d="M 51.225356 32.301118 
L 52.888545 32.301118 
L 52.888545 20.938238 
L 51.225356 20.938238 
z
"/>
   </g>
   <g id="patch_5">
    <path clip-path="url(#p995ddc7927)" d="M 54.551734 32.301118 
L 56.214924 32.301118 
L 56.214924 22.022623 
L 54.551734 22.022623 
z
"/>
   </g>
   <g id="patch_6">
    <path clip-path="url(#p995ddc7927)" d="M 57.878113 32.301118 
L 59.541302 32.301118 
L 59.541302 25.212786 
L 57.878113 25.212786 
z
"/>
   </g>
   <g id="patch_7">
    <path clip-path="url(#p995ddc7927)" d="M 61.204491 32.301118 
L 62.867681 32.301118 
L 62.867681 25.828961 
L 61.204491 25.828961 
z
"/>
   </g>
   <g id="patch_8">
    <path clip-path="url(#p995ddc7927)" d="M 64.53087 32.301118 
L 66.194059 32.301118 
L 66.194059 26.923621 
L 64.53087 26.923621 
z
"/>
   </g>
   <g id="patch_9">
    <path clip-path="url(#p995ddc7927)" d="M 67.857249 32.301118 
L 69.520438 32.301118 
L 69.520438 27.137245 
L 67.857249 27.137245 
z
"/>
   </g>
   <g id="patch_10">
    <path clip-path="url(#p995ddc7927)" d="M 71.183627 32.301118 
L 72.846816 32.301118 
L 72.846816 27.451073 
L 71.183627 27.451073 
z
"/>
   </g>
   <g id="patch_11">
    <path clip-path="url(#p995ddc7927)" d="M 74.510006 32.301118 
L 76.173195 32.301118 
L 76.173195 28.815172 
L 74.510006 28.815172 
z
"/>
   </g>
   <g id="patch_12">
    <path clip-path="url(#p995ddc7927)" d="M 77.836384 32.301118 
L 79.499573 32.301118 
L 79.499573 29.495778 
L 77.836384 29.495778 
z
"/>
   </g>
   <g id="patch_13">
    <path clip-path="url(#p995ddc7927)" d="M 81.162763 32.301118 
L 82.825952 32.301118 
L 82.825952 30.548386 
L 81.162763 30.548386 
z
"/>
   </g>
   <g id="patch_14">
    <path clip-path="url(#p995ddc7927)" d="M 84.489141 32.301118 
L 86.15233 32.301118 
L 86.15233 31.42771 
L 84.489141 31.42771 
z
"/>
   </g>
   <g id="patch_15">
    <path clip-path="url(#p995ddc7927)" d="M 87.81552 32.301118 
L 89.478709 32.301118 
L 89.478709 31.469063 
L 87.81552 31.469063 
z
"/>
   </g>
   <g id="patch_16">
    <path clip-path="url(#p995ddc7927)" d="M 91.141898 32.301118 
L 92.805088 32.301118 
L 92.805088 32.787856 
L 91.141898 32.787856 
z
"/>
   </g>
   <g id="patch_17">
    <path clip-path="url(#p995ddc7927)" d="M 94.468277 32.301118 
L 96.131466 32.301118 
L 96.131466 34.022496 
L 94.468277 34.022496 
z
"/>
   </g>
   <g id="patch_18">
    <path clip-path="url(#p995ddc7927)" d="M 97.794655 32.301118 
L 99.457845 32.301118 
L 99.457845 35.210484 
L 97.794655 35.210484 
z
"/>
   </g>
   <g id="patch_19">
    <path clip-path="url(#p995ddc7927)" d="M 101.121034 32.301118 
L 102.784223 32.301118 
L 102.784223 35.262405 
L 101.121034 35.262405 
z
"/>
   </g>
   <g id="patch_20">
    <path clip-path="url(#p995ddc7927)" d="M 104.447412 32.301118 
L 106.110602 32.301118 
L 106.110602 37.400869 
L 104.447412 37.400869 
z
"/>
   </g>
   <g id="patch_21">
    <path clip-path="url(#p995ddc7927)" d="M 107.773791 32.301118 
L 109.43698 32.301118 
L 109.43698 38.097915 
L 107.773791 38.097915 
z
"/>
   </g>
   <g id="patch_22">
    <path clip-path="url(#p995ddc7927)" d="M 111.10017 32.301118 
L 112.763359 32.301118 
L 112.763359 39.201842 
L 111.10017 39.201842 
z
"/>
   </g>
   <g id="patch_23">
    <path clip-path="url(#p995ddc7927)" d="M 114.426548 32.301118 
L 116.089737 32.301118 
L 116.089737 53.883835 
L 114.426548 53.883835 
z
"/>
   </g>
   <g id="patch_24">
    <path clip-path="url(#p995ddc7927)" d="M 117.752927 32.301118 
L 119.416116 32.301118 
L 119.416116 56.099087 
L 117.752927 56.099087 
z
"/>
   </g>
   <g id="patch_25">
    <path clip-path="url(#p995ddc7927)" d="M 121.079305 32.301118 
L 122.742494 32.301118 
L 122.742494 59.786024 
L 121.079305 59.786024 
z
"/>
   </g>
   <g id="patch_26">
    <path clip-path="url(#p995ddc7927)" d="M 124.405684 32.301118 
L 126.068873 32.301118 
L 126.068873 62.033166 
L 124.405684 62.033166 
z
"/>
   </g>
   <g id="patch_27">
    <path clip-path="url(#p995ddc7927)" d="M 127.732062 32.301118 
L 129.395251 32.301118 
L 129.395251 62.735865 
L 127.732062 62.735865 
z
"/>
   </g>
   <g id="patch_28">
    <path clip-path="url(#p995ddc7927)" d="M 131.058441 32.301118 
L 132.72163 32.301118 
L 132.72163 63.72 
L 131.058441 63.72 
z
"/>
   </g>
   <g id="patch_29">
    <path clip-path="url(#p995ddc7927)" d="M 134.384819 32.301118 
L 136.048009 32.301118 
L 136.048009 61.485285 
L 134.384819 61.485285 
z
"/>
   </g>
   <g id="patch_30">
    <path clip-path="url(#p995ddc7927)" d="M 137.711198 32.301118 
L 139.374387 32.301118 
L 139.374387 59.719482 
L 137.711198 59.719482 
z
"/>
   </g>
   <g id="patch_31">
    <path clip-path="url(#p995ddc7927)" d="M 141.037576 32.301118 
L 142.700766 32.301118 
L 142.700766 58.40944 
L 141.037576 58.40944 
z
"/>
   </g>
   <g id="patch_32">
    <path clip-path="url(#p995ddc7927)" d="M 144.363955 32.301118 
L 146.027144 32.301118 
L 146.027144 54.520374 
L 144.363955 54.520374 
z
"/>
   </g>
   <g id="patch_33">
    <path clip-path="url(#p995ddc7927)" d="M 147.690333 32.301118 
L 149.353523 32.301118 
L 149.353523 53.681099 
L 147.690333 53.681099 
z
"/>
   </g>
   <g id="matplotlib.axis_1">
    <g id="xtick_1">
     <g id="line2d_1">
      <defs>
       <path d="M 0 0 
L 0 3.5 
" id="m297eee3cfb" style="stroke:#000000;stroke-width:1.5;"/>
      </defs>
      <g>
       <use style="stroke:#000000;stroke-width:1.5;" x="48.730572" xlink:href="#m297eee3cfb" y="66.24"/>
      </g>
     </g>
     <g id="text_1">
      <text style="font-family:DejaVu Sans;font-size:8px;font-stretch:normal;font-style:normal;font-weight:normal;text-anchor:middle;" transform="rotate(-0, 48.730572, 79.31875)" x="48.730572" y="79.31875">0</text>
     </g>
    </g>
    <g id="xtick_2">
     <g id="line2d_2">
      <g>
       <use style="stroke:#000000;stroke-width:1.5;" x="81.994357" xlink:href="#m297eee3cfb" y="66.24"/>
      </g>
     </g>
     <g id="text_2">
      <text style="font-family:DejaVu Sans;font-size:8px;font-stretch:normal;font-style:normal;font-weight:normal;text-anchor:middle;" transform="rotate(-0, 81.994357, 79.31875)" x="81.994357" y="79.31875">10</text>
     </g>
    </g>
    <g id="xtick_3">
     <g id="line2d_3">
      <g>
       <use style="stroke:#000000;stroke-width:1.5;" x="115.258143" xlink:href="#m297eee3cfb" y="66.24"/>
      </g>
     </g>
     <g id="text_3">
      <text style="font-family:DejaVu Sans;font-size:8px;font-stretch:normal;font-style:normal;font-weight:normal;text-anchor:middle;" transform="rotate(-0, 115.258143, 79.31875)" x="115.258143" y="79.31875">20</text>
     </g>
    </g>
    <g id="xtick_4">
     <g id="line2d_4">
      <g>
       <use style="stroke:#000000;stroke-width:1.5;" x="148.521928" xlink:href="#m297eee3cfb" y="66.24"/>
      </g>
     </g>
     <g id="text_4">
      <text style="font-family:DejaVu Sans;font-size:8px;font-stretch:normal;font-style:normal;font-weight:normal;text-anchor:middle;" transform="rotate(-0, 148.521928, 79.31875)" x="148.521928" y="79.31875">30</text>
     </g>
    </g>
    <g id="text_5">
     <text style="font-family:DejaVu Sans;font-size:8px;font-stretch:normal;font-style:normal;font-weight:normal;text-anchor:middle;" transform="rotate(-0, 98.62625, 91.06125)" x="98.62625" y="91.06125">Dimension</text>
    </g>
   </g>
   <g id="matplotlib.axis_2">
    <g id="ytick_1">
     <g id="line2d_5">
      <defs>
       <path d="M 0 0 
L -3.5 0 
" id="md8464ea107" style="stroke:#000000;stroke-width:1.5;"/>
      </defs>
      <g>
       <use style="stroke:#000000;stroke-width:1.5;" x="42.82625" xlink:href="#md8464ea107" y="56.285953"/>
      </g>
     </g>
     <g id="text_6">
      <text style="font-family:DejaVu Sans;font-size:8px;font-stretch:normal;font-style:normal;font-weight:normal;text-anchor:end;" transform="rotate(-0, 35.82625, 59.325328)" x="35.82625" y="59.325328">−10</text>
     </g>
    </g>
    <g id="ytick_2">
     <g id="line2d_6">
      <g>
       <use style="stroke:#000000;stroke-width:1.5;" x="42.82625" xlink:href="#md8464ea107" y="32.301118"/>
      </g>
     </g>
     <g id="text_7">
      <text style="font-family:DejaVu Sans;font-size:8px;font-stretch:normal;font-style:normal;font-weight:normal;text-anchor:end;" transform="rotate(-0, 35.82625, 35.340493)" x="35.82625" y="35.340493">0</text>
     </g>
    </g>
    <g id="text_8">
     <text style="font-family:DejaVu Sans;font-size:8px;font-stretch:normal;font-style:normal;font-weight:normal;text-anchor:middle;" transform="rotate(-90, 13.27875, 38.52)" x="13.27875" y="38.52">log(Eigenvalue)</text>
    </g>
   </g>
   <g id="patch_34">
    <path d="M 42.82625 66.24 
L 42.82625 10.8 
" style="fill:none;stroke:#000000;stroke-linecap:square;stroke-linejoin:miter;stroke-width:1.5;"/>
   </g>
   <g id="patch_35">
    <path d="M 42.82625 66.24 
L 154.42625 66.24 
" style="fill:none;stroke:#000000;stroke-linecap:square;stroke-linejoin:miter;stroke-width:1.5;"/>
   </g>
  </g>
 </g>
 <defs>
  <clipPath id="p995ddc7927">
   <rect height="55.44" width="111.6" x="42.82625" y="10.8"/>
  </clipPath>
 </defs>
</svg>
