<?xml version="1.0" encoding="utf-8" standalone="no"?>
<!DOCTYPE svg PUBLIC "-//W3C//DTD SVG 1.1//EN"
  "http://www.w3.org/Graphics/SVG/1.1/DTD/svg11.dtd">
<!-- Created with matplotlib (https://matplotlib.org/) -->
<svg height="105.40375pt" version="1.1" viewBox="0 0 138.6725 105.40375" width="138.6725pt" xmlns="http://www.w3.org/2000/svg" xmlns:xlink="http://www.w3.org/1999/xlink">
 <metadata>
  <rdf:RDF xmlns:cc="http://creativecommons.org/ns#" xmlns:dc="http://purl.org/dc/elements/1.1/" xmlns:rdf="http://www.w3.org/1999/02/22-rdf-syntax-ns#">
   <cc:Work>
    <dc:type rdf:resource="http://purl.org/dc/dcmitype/StillImage"/>
    <dc:date>2021-01-07T19:34:10.958311</dc:date>
    <dc:format>image/svg+xml</dc:format>
    <dc:creator>
     <cc:Agent>
      <dc:title>Matplotlib v3.3.2, https://matplotlib.org/</dc:title>
     </cc:Agent>
    </dc:creator>
   </cc:Work>
  </rdf:RDF>
 </metadata>
 <defs>
  <style type="text/css">*{stroke-linecap:butt;stroke-linejoin:round;}</style>
 </defs>
 <g id="figure_1">
  <g id="patch_1">
   <path d="M 0 105.40375 
L 138.6725 105.40375 
L 138.6725 0 
L 0 0 
z
" style="fill:none;"/>
  </g>
  <g id="axes_1">
   <g id="patch_2">
    <path d="M 31.0325 71.71875 
L 131.4725 71.71875 
L 131.4725 16.27875 
L 31.0325 16.27875 
z
" style="fill:#ffffff;"/>
   </g>
   <g id="patch_3">
    <path clip-path="url(#p87285b36c5)" d="M 35.597955 71.71875 
L 37.094825 71.71875 
L 37.094825 18.91875 
L 35.597955 18.91875 
z
"/>
   </g>
   <g id="patch_4">
    <path clip-path="url(#p87285b36c5)" d="M 38.591695 71.71875 
L 40.088566 71.71875 
L 40.088566 69.545647 
L 38.591695 69.545647 
z
"/>
   </g>
   <g id="patch_5">
    <path clip-path="url(#p87285b36c5)" d="M 41.585436 71.71875 
L 43.082306 71.71875 
L 43.082306 70.463612 
L 41.585436 70.463612 
z
"/>
   </g>
   <g id="patch_6">
    <path clip-path="url(#p87285b36c5)" d="M 44.579177 71.71875 
L 46.076047 71.71875 
L 46.076047 71.486249 
L 44.579177 71.486249 
z
"/>
   </g>
   <g id="patch_7">
    <path clip-path="url(#p87285b36c5)" d="M 47.572917 71.71875 
L 49.069788 71.71875 
L 49.069788 71.614153 
L 47.572917 71.614153 
z
"/>
   </g>
   <g id="patch_8">
    <path clip-path="url(#p87285b36c5)" d="M 50.566658 71.71875 
L 52.063528 71.71875 
L 52.063528 71.646406 
L 50.566658 71.646406 
z
"/>
   </g>
   <g id="patch_9">
    <path clip-path="url(#p87285b36c5)" d="M 53.560399 71.71875 
L 55.057269 71.71875 
L 55.057269 71.697528 
L 53.560399 71.697528 
z
"/>
   </g>
   <g id="patch_10">
    <path clip-path="url(#p87285b36c5)" d="M 56.554139 71.71875 
L 58.05101 71.71875 
L 58.05101 71.712178 
L 56.554139 71.712178 
z
"/>
   </g>
   <g id="patch_11">
    <path clip-path="url(#p87285b36c5)" d="M 59.54788 71.71875 
L 61.04475 71.71875 
L 61.04475 71.712976 
L 59.54788 71.712976 
z
"/>
   </g>
   <g id="patch_12">
    <path clip-path="url(#p87285b36c5)" d="M 62.541621 71.71875 
L 64.038491 71.71875 
L 64.038491 71.715411 
L 62.541621 71.715411 
z
"/>
   </g>
   <g id="patch_13">
    <path clip-path="url(#p87285b36c5)" d="M 65.535361 71.71875 
L 67.032232 71.71875 
L 67.032232 71.716626 
L 65.535361 71.716626 
z
"/>
   </g>
   <g id="patch_14">
    <path clip-path="url(#p87285b36c5)" d="M 68.529102 71.71875 
L 70.025972 71.71875 
L 70.025972 71.717324 
L 68.529102 71.717324 
z
"/>
   </g>
   <g id="patch_15">
    <path clip-path="url(#p87285b36c5)" d="M 71.522843 71.71875 
L 73.019713 71.71875 
L 73.019713 71.717587 
L 71.522843 71.717587 
z
"/>
   </g>
   <g id="patch_16">
    <path clip-path="url(#p87285b36c5)" d="M 74.516583 71.71875 
L 76.013454 71.71875 
L 76.013454 71.717864 
L 74.516583 71.717864 
z
"/>
   </g>
   <g id="patch_17">
    <path clip-path="url(#p87285b36c5)" d="M 77.510324 71.71875 
L 79.007194 71.71875 
L 79.007194 71.718057 
L 77.510324 71.718057 
z
"/>
   </g>
   <g id="patch_18">
    <path clip-path="url(#p87285b36c5)" d="M 80.504065 71.71875 
L 82.000935 71.71875 
L 82.000935 71.71826 
L 80.504065 71.71826 
z
"/>
   </g>
   <g id="patch_19">
    <path clip-path="url(#p87285b36c5)" d="M 83.497806 71.71875 
L 84.994676 71.71875 
L 84.994676 71.718507 
L 83.497806 71.718507 
z
"/>
   </g>
   <g id="patch_20">
    <path clip-path="url(#p87285b36c5)" d="M 86.491546 71.71875 
L 87.988417 71.71875 
L 87.988417 71.718614 
L 86.491546 71.718614 
z
"/>
   </g>
   <g id="patch_21">
    <path clip-path="url(#p87285b36c5)" d="M 89.485287 71.71875 
L 90.982157 71.71875 
L 90.982157 71.718637 
L 89.485287 71.718637 
z
"/>
   </g>
   <g id="patch_22">
    <path clip-path="url(#p87285b36c5)" d="M 92.479028 71.71875 
L 93.975898 71.71875 
L 93.975898 71.718696 
L 92.479028 71.718696 
z
"/>
   </g>
   <g id="patch_23">
    <path clip-path="url(#p87285b36c5)" d="M 95.472768 71.71875 
L 96.969639 71.71875 
L 96.969639 71.71875 
L 95.472768 71.71875 
z
"/>
   </g>
   <g id="patch_24">
    <path clip-path="url(#p87285b36c5)" d="M 98.466509 71.71875 
L 99.963379 71.71875 
L 99.963379 71.71875 
L 98.466509 71.71875 
z
"/>
   </g>
   <g id="patch_25">
    <path clip-path="url(#p87285b36c5)" d="M 101.46025 71.71875 
L 102.95712 71.71875 
L 102.95712 71.71875 
L 101.46025 71.71875 
z
"/>
   </g>
   <g id="patch_26">
    <path clip-path="url(#p87285b36c5)" d="M 104.45399 71.71875 
L 105.950861 71.71875 
L 105.950861 71.71875 
L 104.45399 71.71875 
z
"/>
   </g>
   <g id="patch_27">
    <path clip-path="url(#p87285b36c5)" d="M 107.447731 71.71875 
L 108.944601 71.71875 
L 108.944601 71.71875 
L 107.447731 71.71875 
z
"/>
   </g>
   <g id="patch_28">
    <path clip-path="url(#p87285b36c5)" d="M 110.441472 71.71875 
L 111.938342 71.71875 
L 111.938342 71.71875 
L 110.441472 71.71875 
z
"/>
   </g>
   <g id="patch_29">
    <path clip-path="url(#p87285b36c5)" d="M 113.435212 71.71875 
L 114.932083 71.71875 
L 114.932083 71.71875 
L 113.435212 71.71875 
z
"/>
   </g>
   <g id="patch_30">
    <path clip-path="url(#p87285b36c5)" d="M 116.428953 71.71875 
L 117.925823 71.71875 
L 117.925823 71.71875 
L 116.428953 71.71875 
z
"/>
   </g>
   <g id="patch_31">
    <path clip-path="url(#p87285b36c5)" d="M 119.422694 71.71875 
L 120.919564 71.71875 
L 120.919564 71.71875 
L 119.422694 71.71875 
z
"/>
   </g>
   <g id="patch_32">
    <path clip-path="url(#p87285b36c5)" d="M 122.416434 71.71875 
L 123.913305 71.71875 
L 123.913305 71.718749 
L 122.416434 71.718749 
z
"/>
   </g>
   <g id="patch_33">
    <path clip-path="url(#p87285b36c5)" d="M 125.410175 71.71875 
L 126.907045 71.71875 
L 126.907045 71.718749 
L 125.410175 71.718749 
z
"/>
   </g>
   <g id="matplotlib.axis_1">
    <g id="xtick_1">
     <g id="line2d_1">
      <defs>
       <path d="M 0 0 
L 0 3.5 
" id="mc904a48534" style="stroke:#000000;stroke-width:1.5;"/>
      </defs>
      <g>
       <use style="stroke:#000000;stroke-width:1.5;" x="36.34639" xlink:href="#mc904a48534" y="71.71875"/>
      </g>
     </g>
     <g id="text_1">
      <text style="font-family:DejaVu Sans;font-size:8px;font-stretch:normal;font-style:normal;font-weight:normal;text-anchor:middle;" transform="rotate(-0, 36.34639, 84.7975)" x="36.34639" y="84.7975">0</text>
     </g>
    </g>
    <g id="xtick_2">
     <g id="line2d_2">
      <g>
       <use style="stroke:#000000;stroke-width:1.5;" x="66.283797" xlink:href="#mc904a48534" y="71.71875"/>
      </g>
     </g>
     <g id="text_2">
      <text style="font-family:DejaVu Sans;font-size:8px;font-stretch:normal;font-style:normal;font-weight:normal;text-anchor:middle;" transform="rotate(-0, 66.283797, 84.7975)" x="66.283797" y="84.7975">10</text>
     </g>
    </g>
    <g id="xtick_3">
     <g id="line2d_3">
      <g>
       <use style="stroke:#000000;stroke-width:1.5;" x="96.221203" xlink:href="#mc904a48534" y="71.71875"/>
      </g>
     </g>
     <g id="text_3">
      <text style="font-family:DejaVu Sans;font-size:8px;font-stretch:normal;font-style:normal;font-weight:normal;text-anchor:middle;" transform="rotate(-0, 96.221203, 84.7975)" x="96.221203" y="84.7975">20</text>
     </g>
    </g>
    <g id="xtick_4">
     <g id="line2d_4">
      <g>
       <use style="stroke:#000000;stroke-width:1.5;" x="126.15861" xlink:href="#mc904a48534" y="71.71875"/>
      </g>
     </g>
     <g id="text_4">
      <text style="font-family:DejaVu Sans;font-size:8px;font-stretch:normal;font-style:normal;font-weight:normal;text-anchor:middle;" transform="rotate(-0, 126.15861, 84.7975)" x="126.15861" y="84.7975">30</text>
     </g>
    </g>
    <g id="text_5">
     <text style="font-family:DejaVu Sans;font-size:8px;font-stretch:normal;font-style:normal;font-weight:normal;text-anchor:middle;" transform="rotate(-0, 81.2525, 96.54)" x="81.2525" y="96.54">Dimension</text>
    </g>
   </g>
   <g id="matplotlib.axis_2">
    <g id="ytick_1">
     <g id="line2d_5">
      <defs>
       <path d="M 0 0 
L -3.5 0 
" id="mef2d543982" style="stroke:#000000;stroke-width:1.5;"/>
      </defs>
      <g>
       <use style="stroke:#000000;stroke-width:1.5;" x="31.0325" xlink:href="#mef2d543982" y="71.71875"/>
      </g>
     </g>
     <g id="text_6">
      <text style="font-family:DejaVu Sans;font-size:8px;font-stretch:normal;font-style:normal;font-weight:normal;text-anchor:end;" transform="rotate(-0, 24.0325, 74.758125)" x="24.0325" y="74.758125">0</text>
     </g>
    </g>
    <g id="ytick_2">
     <g id="line2d_6">
      <g>
       <use style="stroke:#000000;stroke-width:1.5;" x="31.0325" xlink:href="#mef2d543982" y="52.764172"/>
      </g>
     </g>
     <g id="text_7">
      <text style="font-family:DejaVu Sans;font-size:8px;font-stretch:normal;font-style:normal;font-weight:normal;text-anchor:end;" transform="rotate(-0, 24.0325, 55.803547)" x="24.0325" y="55.803547">2</text>
     </g>
    </g>
    <g id="ytick_3">
     <g id="line2d_7">
      <g>
       <use style="stroke:#000000;stroke-width:1.5;" x="31.0325" xlink:href="#mef2d543982" y="33.809594"/>
      </g>
     </g>
     <g id="text_8">
      <text style="font-family:DejaVu Sans;font-size:8px;font-stretch:normal;font-style:normal;font-weight:normal;text-anchor:end;" transform="rotate(-0, 24.0325, 36.848969)" x="24.0325" y="36.848969">4</text>
     </g>
    </g>
    <g id="text_9">
     <text style="font-family:DejaVu Sans;font-size:8px;font-stretch:normal;font-style:normal;font-weight:normal;text-anchor:middle;" transform="rotate(-90, 13.27875, 43.99875)" x="13.27875" y="43.99875">log(E.-value)</text>
    </g>
    <g id="text_10">
     <text style="font-family:DejaVu Sans;font-size:8px;font-stretch:normal;font-style:normal;font-weight:normal;text-anchor:start;" transform="rotate(-0, 31.0325, 13.27875)" x="31.0325" y="13.27875">1e−5</text>
    </g>
   </g>
   <g id="patch_34">
    <path d="M 31.0325 71.71875 
L 31.0325 16.27875 
" style="fill:none;stroke:#000000;stroke-linecap:square;stroke-linejoin:miter;stroke-width:1.5;"/>
   </g>
   <g id="patch_35">
    <path d="M 31.0325 71.71875 
L 131.4725 71.71875 
" style="fill:none;stroke:#000000;stroke-linecap:square;stroke-linejoin:miter;stroke-width:1.5;"/>
   </g>
  </g>
 </g>
 <defs>
  <clipPath id="p87285b36c5">
   <rect height="55.44" width="100.44" x="31.0325" y="16.27875"/>
  </clipPath>
 </defs>
</svg>
