<?xml version="1.0" encoding="utf-8" standalone="no"?>
<!DOCTYPE svg PUBLIC "-//W3C//DTD SVG 1.1//EN"
  "http://www.w3.org/Graphics/SVG/1.1/DTD/svg11.dtd">
<!-- Created with matplotlib (https://matplotlib.org/) -->
<svg height="84.5825pt" version="1.1" viewBox="0 0 230.469 84.5825" width="230.469pt" xmlns="http://www.w3.org/2000/svg" xmlns:xlink="http://www.w3.org/1999/xlink">
 <metadata>
  <rdf:RDF xmlns:cc="http://creativecommons.org/ns#" xmlns:dc="http://purl.org/dc/elements/1.1/" xmlns:rdf="http://www.w3.org/1999/02/22-rdf-syntax-ns#">
   <cc:Work>
    <dc:type rdf:resource="http://purl.org/dc/dcmitype/StillImage"/>
    <dc:date>2020-11-09T20:08:03.390383</dc:date>
    <dc:format>image/svg+xml</dc:format>
    <dc:creator>
     <cc:Agent>
      <dc:title>Matplotlib v3.3.2, https://matplotlib.org/</dc:title>
     </cc:Agent>
    </dc:creator>
   </cc:Work>
  </rdf:RDF>
 </metadata>
 <defs>
  <style type="text/css">*{stroke-linecap:butt;stroke-linejoin:round;}</style>
 </defs>
 <g id="figure_1">
  <g id="patch_1">
   <path d="M -0 84.5825 
L 230.469 84.5825 
L 230.469 0 
L -0 0 
z
" style="fill:none;"/>
  </g>
  <g id="axes_1">
   <g id="patch_2">
    <path d="M 38.665 62.64 
L 183.745 62.64 
L 183.745 7.2 
L 38.665 7.2 
z
" style="fill:#ffffff;"/>
   </g>
   <g id="patch_3">
    <path clip-path="url(#pd1d1f9e817)" d="M 42.7105 44.16 
L 45.5005 44.16 
L 45.5005 29.626057 
L 42.7105 29.626057 
z
" style="fill:#3182bd;"/>
   </g>
   <g id="patch_4">
    <path clip-path="url(#pd1d1f9e817)" d="M 60.8455 44.16 
L 63.6355 44.16 
L 63.6355 28.099486 
L 60.8455 28.099486 
z
" style="fill:#3182bd;"/>
   </g>
   <g id="patch_5">
    <path clip-path="url(#pd1d1f9e817)" d="M 78.9805 44.16 
L 81.7705 44.16 
L 81.7705 32.366256 
L 78.9805 32.366256 
z
" style="fill:#3182bd;"/>
   </g>
   <g id="patch_6">
    <path clip-path="url(#pd1d1f9e817)" d="M 97.1155 44.16 
L 99.9055 44.16 
L 99.9055 56.555747 
L 97.1155 56.555747 
z
" style="fill:#3182bd;"/>
   </g>
   <g id="patch_7">
    <path clip-path="url(#pd1d1f9e817)" d="M 115.2505 44.16 
L 118.0405 44.16 
L 118.0405 40.060816 
L 115.2505 40.060816 
z
" style="fill:#3182bd;"/>
   </g>
   <g id="patch_8">
    <path clip-path="url(#pd1d1f9e817)" d="M 133.3855 44.16 
L 136.1755 44.16 
L 136.1755 49.8412 
L 133.3855 49.8412 
z
" style="fill:#3182bd;"/>
   </g>
   <g id="patch_9">
    <path clip-path="url(#pd1d1f9e817)" d="M 151.5205 44.16 
L 154.3105 44.16 
L 154.3105 44.139839 
L 151.5205 44.139839 
z
" style="fill:#3182bd;"/>
   </g>
   <g id="patch_10">
    <path clip-path="url(#pd1d1f9e817)" d="M 169.6555 44.16 
L 172.4455 44.16 
L 172.4455 44.59193 
L 169.6555 44.59193 
z
" style="fill:#3182bd;"/>
   </g>
   <g id="patch_11">
    <path clip-path="url(#pd1d1f9e817)" d="M 46.3375 44.16 
L 49.1275 44.16 
L 49.1275 40.459174 
L 46.3375 40.459174 
z
" style="fill:#fc8d59;"/>
   </g>
   <g id="patch_12">
    <path clip-path="url(#pd1d1f9e817)" d="M 64.4725 44.16 
L 67.2625 44.16 
L 67.2625 36.880666 
L 64.4725 36.880666 
z
" style="fill:#fc8d59;"/>
   </g>
   <g id="patch_13">
    <path clip-path="url(#pd1d1f9e817)" d="M 82.6075 44.16 
L 85.3975 44.16 
L 85.3975 29.999848 
L 82.6075 29.999848 
z
" style="fill:#fc8d59;"/>
   </g>
   <g id="patch_14">
    <path clip-path="url(#pd1d1f9e817)" d="M 100.7425 44.16 
L 103.5325 44.16 
L 103.5325 51.383368 
L 100.7425 51.383368 
z
" style="fill:#fc8d59;"/>
   </g>
   <g id="patch_15">
    <path clip-path="url(#pd1d1f9e817)" d="M 118.8775 44.16 
L 121.6675 44.16 
L 121.6675 43.827557 
L 118.8775 43.827557 
z
" style="fill:#fc8d59;"/>
   </g>
   <g id="patch_16">
    <path clip-path="url(#pd1d1f9e817)" d="M 137.0125 44.16 
L 139.8025 44.16 
L 139.8025 49.027906 
L 137.0125 49.027906 
z
" style="fill:#fc8d59;"/>
   </g>
   <g id="patch_17">
    <path clip-path="url(#pd1d1f9e817)" d="M 155.1475 44.16 
L 157.9375 44.16 
L 157.9375 43.676904 
L 155.1475 43.676904 
z
" style="fill:#fc8d59;"/>
   </g>
   <g id="patch_18">
    <path clip-path="url(#pd1d1f9e817)" d="M 173.2825 44.16 
L 176.0725 44.16 
L 176.0725 46.157633 
L 173.2825 46.157633 
z
" style="fill:#fc8d59;"/>
   </g>
   <g id="patch_19">
    <path clip-path="url(#pd1d1f9e817)" d="M 49.9645 44.16 
L 52.7545 44.16 
L 52.7545 16.829529 
L 49.9645 16.829529 
z
" style="fill:#2ca25f;"/>
   </g>
   <g id="patch_20">
    <path clip-path="url(#pd1d1f9e817)" d="M 68.0995 44.16 
L 70.8895 44.16 
L 70.8895 11.211052 
L 68.0995 11.211052 
z
" style="fill:#2ca25f;"/>
   </g>
   <g id="patch_21">
    <path clip-path="url(#pd1d1f9e817)" d="M 86.2345 44.16 
L 89.0245 44.16 
L 89.0245 25.228809 
L 86.2345 25.228809 
z
" style="fill:#2ca25f;"/>
   </g>
   <g id="patch_22">
    <path clip-path="url(#pd1d1f9e817)" d="M 104.3695 44.16 
L 107.1595 44.16 
L 107.1595 59.559257 
L 104.3695 59.559257 
z
" style="fill:#2ca25f;"/>
   </g>
   <g id="patch_23">
    <path clip-path="url(#pd1d1f9e817)" d="M 122.5045 44.16 
L 125.2945 44.16 
L 125.2945 53.110129 
L 122.5045 53.110129 
z
" style="fill:#2ca25f;"/>
   </g>
   <g id="patch_24">
    <path clip-path="url(#pd1d1f9e817)" d="M 140.6395 44.16 
L 143.4295 44.16 
L 143.4295 50.137884 
L 140.6395 50.137884 
z
" style="fill:#2ca25f;"/>
   </g>
   <g id="patch_25">
    <path clip-path="url(#pd1d1f9e817)" d="M 158.7745 44.16 
L 161.5645 44.16 
L 161.5645 42.637388 
L 158.7745 42.637388 
z
" style="fill:#2ca25f;"/>
   </g>
   <g id="patch_26">
    <path clip-path="url(#pd1d1f9e817)" d="M 176.9095 44.16 
L 179.6995 44.16 
L 179.6995 48.972935 
L 176.9095 48.972935 
z
" style="fill:#2ca25f;"/>
   </g>
   <g id="matplotlib.axis_1">
    <g id="xtick_1">
     <g id="line2d_1">
      <defs>
       <path d="M 0 0 
L 0 3.5 
" id="m9e061b6ba4" style="stroke:#000000;stroke-width:1.5;"/>
      </defs>
      <g>
       <use style="stroke:#000000;stroke-width:1.5;" x="47.7325" xlink:href="#m9e061b6ba4" y="62.64"/>
      </g>
     </g>
     <g id="text_1">
      <text style="font-family:DejaVu Sans;font-size:8px;font-stretch:normal;font-style:normal;font-weight:normal;text-anchor:middle;" transform="rotate(-0, 47.7325, 75.71875)" x="47.7325" y="75.71875">Na</text>
     </g>
    </g>
    <g id="xtick_2">
     <g id="line2d_2">
      <g>
       <use style="stroke:#000000;stroke-width:1.5;" x="65.8675" xlink:href="#m9e061b6ba4" y="62.64"/>
      </g>
     </g>
     <g id="text_2">
      <text style="font-family:DejaVu Sans;font-size:8px;font-stretch:normal;font-style:normal;font-weight:normal;text-anchor:middle;" transform="rotate(-0, 65.8675, 75.71875)" x="65.8675" y="75.71875">CaT</text>
     </g>
    </g>
    <g id="xtick_3">
     <g id="line2d_3">
      <g>
       <use style="stroke:#000000;stroke-width:1.5;" x="84.0025" xlink:href="#m9e061b6ba4" y="62.64"/>
      </g>
     </g>
     <g id="text_3">
      <text style="font-family:DejaVu Sans;font-size:8px;font-stretch:normal;font-style:normal;font-weight:normal;text-anchor:middle;" transform="rotate(-0, 84.0025, 75.71875)" x="84.0025" y="75.71875">CaS</text>
     </g>
    </g>
    <g id="xtick_4">
     <g id="line2d_4">
      <g>
       <use style="stroke:#000000;stroke-width:1.5;" x="102.1375" xlink:href="#m9e061b6ba4" y="62.64"/>
      </g>
     </g>
     <g id="text_4">
      <text style="font-family:DejaVu Sans;font-size:8px;font-stretch:normal;font-style:normal;font-weight:normal;text-anchor:middle;" transform="rotate(-0, 102.1375, 75.71875)" x="102.1375" y="75.71875">A</text>
     </g>
    </g>
    <g id="xtick_5">
     <g id="line2d_5">
      <g>
       <use style="stroke:#000000;stroke-width:1.5;" x="120.2725" xlink:href="#m9e061b6ba4" y="62.64"/>
      </g>
     </g>
     <g id="text_5">
      <text style="font-family:DejaVu Sans;font-size:8px;font-stretch:normal;font-style:normal;font-weight:normal;text-anchor:middle;" transform="rotate(-0, 120.2725, 75.71875)" x="120.2725" y="75.71875">KCa</text>
     </g>
    </g>
    <g id="xtick_6">
     <g id="line2d_6">
      <g>
       <use style="stroke:#000000;stroke-width:1.5;" x="138.4075" xlink:href="#m9e061b6ba4" y="62.64"/>
      </g>
     </g>
     <g id="text_6">
      <text style="font-family:DejaVu Sans;font-size:8px;font-stretch:normal;font-style:normal;font-weight:normal;text-anchor:middle;" transform="rotate(-0, 138.4075, 75.71875)" x="138.4075" y="75.71875">Kd</text>
     </g>
    </g>
    <g id="xtick_7">
     <g id="line2d_7">
      <g>
       <use style="stroke:#000000;stroke-width:1.5;" x="156.5425" xlink:href="#m9e061b6ba4" y="62.64"/>
      </g>
     </g>
     <g id="text_7">
      <text style="font-family:DejaVu Sans;font-size:8px;font-stretch:normal;font-style:normal;font-weight:normal;text-anchor:middle;" transform="rotate(-0, 156.5425, 75.71875)" x="156.5425" y="75.71875">H</text>
     </g>
    </g>
    <g id="xtick_8">
     <g id="line2d_8">
      <g>
       <use style="stroke:#000000;stroke-width:1.5;" x="174.6775" xlink:href="#m9e061b6ba4" y="62.64"/>
      </g>
     </g>
     <g id="text_8">
      <text style="font-family:DejaVu Sans;font-size:8px;font-stretch:normal;font-style:normal;font-weight:normal;text-anchor:middle;" transform="rotate(-0, 174.6775, 75.71875)" x="174.6775" y="75.71875">leak</text>
     </g>
    </g>
   </g>
   <g id="matplotlib.axis_2">
    <g id="ytick_1">
     <g id="line2d_9">
      <defs>
       <path d="M 0 0 
L -3.5 0 
" id="m9a891e17f0" style="stroke:#000000;stroke-width:1.5;"/>
      </defs>
      <g>
       <use style="stroke:#000000;stroke-width:1.5;" x="38.665" xlink:href="#m9a891e17f0" y="44.16"/>
      </g>
     </g>
     <g id="text_9">
      <text style="font-family:DejaVu Sans;font-size:8px;font-stretch:normal;font-style:normal;font-weight:normal;text-anchor:end;" transform="rotate(-0, 31.665, 47.199375)" x="31.665" y="47.199375">0.0</text>
     </g>
    </g>
    <g id="ytick_2">
     <g id="line2d_10">
      <g>
       <use style="stroke:#000000;stroke-width:1.5;" x="38.665" xlink:href="#m9a891e17f0" y="13.36"/>
      </g>
     </g>
     <g id="text_10">
      <text style="font-family:DejaVu Sans;font-size:8px;font-stretch:normal;font-style:normal;font-weight:normal;text-anchor:end;" transform="rotate(-0, 31.665, 16.399375)" x="31.665" y="16.399375">0.5</text>
     </g>
    </g>
    <g id="text_11">
     <text style="font-family:DejaVu Sans;font-size:8px;font-stretch:normal;font-style:normal;font-weight:normal;text-anchor:middle;" transform="rotate(-90, 13.27875, 34.92)" x="13.27875" y="34.92">Active dim.</text>
    </g>
   </g>
   <g id="patch_27">
    <path d="M 38.665 62.64 
L 38.665 7.2 
" style="fill:none;stroke:#000000;stroke-linecap:square;stroke-linejoin:miter;stroke-width:1.5;"/>
   </g>
   <g id="patch_28">
    <path d="M 38.665 62.64 
L 183.745 62.64 
" style="fill:none;stroke:#000000;stroke-linecap:square;stroke-linejoin:miter;stroke-width:1.5;"/>
   </g>
   <g id="legend_1">
    <g id="patch_29">
     <path d="M 190.229 31.56675 
L 192.629 31.56675 
L 192.629 25.96675 
L 190.229 25.96675 
z
" style="fill:#3182bd;"/>
    </g>
    <g id="text_12">
     <text style="font-family:DejaVu Sans;font-size:8px;font-stretch:normal;font-style:normal;font-weight:normal;text-anchor:start;" transform="rotate(-0, 195.429, 31.56675)" x="195.429" y="31.56675">AB/PD</text>
    </g>
    <g id="patch_30">
     <path d="M 190.229 43.30925 
L 192.629 43.30925 
L 192.629 37.70925 
L 190.229 37.70925 
z
" style="fill:#fc8d59;"/>
    </g>
    <g id="text_13">
     <text style="font-family:DejaVu Sans;font-size:8px;font-stretch:normal;font-style:normal;font-weight:normal;text-anchor:start;" transform="rotate(-0, 195.429, 43.30925)" x="195.429" y="43.30925">LP</text>
    </g>
    <g id="patch_31">
     <path d="M 190.229 55.05175 
L 192.629 55.05175 
L 192.629 49.45175 
L 190.229 49.45175 
z
" style="fill:#2ca25f;"/>
    </g>
    <g id="text_14">
     <text style="font-family:DejaVu Sans;font-size:8px;font-stretch:normal;font-style:normal;font-weight:normal;text-anchor:start;" transform="rotate(-0, 195.429, 55.05175)" x="195.429" y="55.05175">PY</text>
    </g>
   </g>
  </g>
 </g>
 <defs>
  <clipPath id="pd1d1f9e817">
   <rect height="55.44" width="145.08" x="38.665" y="7.2"/>
  </clipPath>
 </defs>
</svg>
