<?xml version="1.0" encoding="utf-8" standalone="no"?>
<!DOCTYPE svg PUBLIC "-//W3C//DTD SVG 1.1//EN"
  "http://www.w3.org/Graphics/SVG/1.1/DTD/svg11.dtd">
<!-- Created with matplotlib (https://matplotlib.org/) -->
<svg height="96.3425pt" version="1.1" viewBox="0 0 113.1225 96.3425" width="113.1225pt" xmlns="http://www.w3.org/2000/svg" xmlns:xlink="http://www.w3.org/1999/xlink">
 <metadata>
  <rdf:RDF xmlns:cc="http://creativecommons.org/ns#" xmlns:dc="http://purl.org/dc/elements/1.1/" xmlns:rdf="http://www.w3.org/1999/02/22-rdf-syntax-ns#">
   <cc:Work>
    <dc:type rdf:resource="http://purl.org/dc/dcmitype/StillImage"/>
    <dc:date>2020-11-09T18:00:49.009841</dc:date>
    <dc:format>image/svg+xml</dc:format>
    <dc:creator>
     <cc:Agent>
      <dc:title>Matplotlib v3.3.2, https://matplotlib.org/</dc:title>
     </cc:Agent>
    </dc:creator>
   </cc:Work>
  </rdf:RDF>
 </metadata>
 <defs>
  <style type="text/css">*{stroke-linecap:butt;stroke-linejoin:round;}</style>
 </defs>
 <g id="figure_1">
  <g id="patch_1">
   <path d="M 0 96.3425 
L 113.1225 96.3425 
L 113.1225 0 
L 0 0 
z
" style="fill:none;"/>
  </g>
  <g id="axes_1">
   <g id="patch_2">
    <path d="M 17.9425 62.64 
L 90.4825 62.64 
L 90.4825 7.2 
L 17.9425 7.2 
z
" style="fill:none;"/>
   </g>
   <g id="patch_3">
    <path clip-path="url(#pf6a8d63ad4)" d="M 17.9425 62.64 
L 18.733845 62.64 
L 18.733845 62.56988 
L 17.9425 62.56988 
z
"/>
   </g>
   <g id="patch_4">
    <path clip-path="url(#pf6a8d63ad4)" d="M 18.733845 62.64 
L 19.525191 62.64 
L 19.525191 62.499761 
L 18.733845 62.499761 
z
"/>
   </g>
   <g id="patch_5">
    <path clip-path="url(#pf6a8d63ad4)" d="M 19.525191 62.64 
L 20.316536 62.64 
L 20.316536 62.499761 
L 19.525191 62.499761 
z
"/>
   </g>
   <g id="patch_6">
    <path clip-path="url(#pf6a8d63ad4)" d="M 20.316536 62.64 
L 21.107882 62.64 
L 21.107882 62.56988 
L 20.316536 62.56988 
z
"/>
   </g>
   <g id="patch_7">
    <path clip-path="url(#pf6a8d63ad4)" d="M 21.107882 62.64 
L 21.899227 62.64 
L 21.899227 62.394582 
L 21.107882 62.394582 
z
"/>
   </g>
   <g id="patch_8">
    <path clip-path="url(#pf6a8d63ad4)" d="M 21.899227 62.64 
L 22.690573 62.64 
L 22.690573 61.973865 
L 21.899227 61.973865 
z
"/>
   </g>
   <g id="patch_9">
    <path clip-path="url(#pf6a8d63ad4)" d="M 22.690573 62.64 
L 23.481918 62.64 
L 23.481918 61.623267 
L 22.690573 61.623267 
z
"/>
   </g>
   <g id="patch_10">
    <path clip-path="url(#pf6a8d63ad4)" d="M 23.481918 62.64 
L 24.273264 62.64 
L 24.273264 61.16749 
L 23.481918 61.16749 
z
"/>
   </g>
   <g id="patch_11">
    <path clip-path="url(#pf6a8d63ad4)" d="M 24.273264 62.64 
L 25.064609 62.64 
L 25.064609 60.887012 
L 24.273264 60.887012 
z
"/>
   </g>
   <g id="patch_12">
    <path clip-path="url(#pf6a8d63ad4)" d="M 25.064609 62.64 
L 25.855955 62.64 
L 25.855955 60.326056 
L 25.064609 60.326056 
z
"/>
   </g>
   <g id="patch_13">
    <path clip-path="url(#pf6a8d63ad4)" d="M 25.855955 62.64 
L 26.6473 62.64 
L 26.6473 59.73004 
L 25.855955 59.73004 
z
"/>
   </g>
   <g id="patch_14">
    <path clip-path="url(#pf6a8d63ad4)" d="M 26.6473 62.64 
L 27.438645 62.64 
L 27.438645 58.467888 
L 26.6473 58.467888 
z
"/>
   </g>
   <g id="patch_15">
    <path clip-path="url(#pf6a8d63ad4)" d="M 27.438645 62.64 
L 28.229991 62.64 
L 28.229991 58.327649 
L 27.438645 58.327649 
z
"/>
   </g>
   <g id="patch_16">
    <path clip-path="url(#pf6a8d63ad4)" d="M 28.229991 62.64 
L 29.021336 62.64 
L 29.021336 56.82008 
L 28.229991 56.82008 
z
"/>
   </g>
   <g id="patch_17">
    <path clip-path="url(#pf6a8d63ad4)" d="M 29.021336 62.64 
L 29.812682 62.64 
L 29.812682 55.592988 
L 29.021336 55.592988 
z
"/>
   </g>
   <g id="patch_18">
    <path clip-path="url(#pf6a8d63ad4)" d="M 29.812682 62.64 
L 30.604027 62.64 
L 30.604027 54.716494 
L 29.812682 54.716494 
z
"/>
   </g>
   <g id="patch_19">
    <path clip-path="url(#pf6a8d63ad4)" d="M 30.604027 62.64 
L 31.395373 62.64 
L 31.395373 53.699761 
L 30.604027 53.699761 
z
"/>
   </g>
   <g id="patch_20">
    <path clip-path="url(#pf6a8d63ad4)" d="M 31.395373 62.64 
L 32.186718 62.64 
L 32.186718 51.666295 
L 31.395373 51.666295 
z
"/>
   </g>
   <g id="patch_21">
    <path clip-path="url(#pf6a8d63ad4)" d="M 32.186718 62.64 
L 32.978064 62.64 
L 32.978064 49.317291 
L 32.186718 49.317291 
z
"/>
   </g>
   <g id="patch_22">
    <path clip-path="url(#pf6a8d63ad4)" d="M 32.978064 62.64 
L 33.769409 62.64 
L 33.769409 48.791394 
L 32.978064 48.791394 
z
"/>
   </g>
   <g id="patch_23">
    <path clip-path="url(#pf6a8d63ad4)" d="M 33.769409 62.64 
L 34.560755 62.64 
L 34.560755 47.108526 
L 33.769409 47.108526 
z
"/>
   </g>
   <g id="patch_24">
    <path clip-path="url(#pf6a8d63ad4)" d="M 34.560755 62.64 
L 35.3521 62.64 
L 35.3521 42.971474 
L 34.560755 42.971474 
z
"/>
   </g>
   <g id="patch_25">
    <path clip-path="url(#pf6a8d63ad4)" d="M 35.3521 62.64 
L 36.143445 62.64 
L 36.143445 42.13004 
L 35.3521 42.13004 
z
"/>
   </g>
   <g id="patch_26">
    <path clip-path="url(#pf6a8d63ad4)" d="M 36.143445 62.64 
L 36.934791 62.64 
L 36.934791 38.659124 
L 36.143445 38.659124 
z
"/>
   </g>
   <g id="patch_27">
    <path clip-path="url(#pf6a8d63ad4)" d="M 36.934791 62.64 
L 37.726136 62.64 
L 37.726136 37.607331 
L 36.934791 37.607331 
z
"/>
   </g>
   <g id="patch_28">
    <path clip-path="url(#pf6a8d63ad4)" d="M 37.726136 62.64 
L 38.517482 62.64 
L 38.517482 36.906135 
L 37.726136 36.906135 
z
"/>
   </g>
   <g id="patch_29">
    <path clip-path="url(#pf6a8d63ad4)" d="M 38.517482 62.64 
L 39.308827 62.64 
L 39.308827 33.189801 
L 38.517482 33.189801 
z
"/>
   </g>
   <g id="patch_30">
    <path clip-path="url(#pf6a8d63ad4)" d="M 39.308827 62.64 
L 40.100173 62.64 
L 40.100173 28.94757 
L 39.308827 28.94757 
z
"/>
   </g>
   <g id="patch_31">
    <path clip-path="url(#pf6a8d63ad4)" d="M 40.100173 62.64 
L 40.891518 62.64 
L 40.891518 27.790598 
L 40.100173 27.790598 
z
"/>
   </g>
   <g id="patch_32">
    <path clip-path="url(#pf6a8d63ad4)" d="M 40.891518 62.64 
L 41.682864 62.64 
L 41.682864 26.808924 
L 40.891518 26.808924 
z
"/>
   </g>
   <g id="patch_33">
    <path clip-path="url(#pf6a8d63ad4)" d="M 41.682864 62.64 
L 42.474209 62.64 
L 42.474209 26.072669 
L 41.682864 26.072669 
z
"/>
   </g>
   <g id="patch_34">
    <path clip-path="url(#pf6a8d63ad4)" d="M 42.474209 62.64 
L 43.265555 62.64 
L 43.265555 22.917291 
L 42.474209 22.917291 
z
"/>
   </g>
   <g id="patch_35">
    <path clip-path="url(#pf6a8d63ad4)" d="M 43.265555 62.64 
L 44.0569 62.64 
L 44.0569 19.726853 
L 43.265555 19.726853 
z
"/>
   </g>
   <g id="patch_36">
    <path clip-path="url(#pf6a8d63ad4)" d="M 44.0569 62.64 
L 44.848245 62.64 
L 44.848245 19.130837 
L 44.0569 19.130837 
z
"/>
   </g>
   <g id="patch_37">
    <path clip-path="url(#pf6a8d63ad4)" d="M 44.848245 62.64 
L 45.639591 62.64 
L 45.639591 16.711713 
L 44.848245 16.711713 
z
"/>
   </g>
   <g id="patch_38">
    <path clip-path="url(#pf6a8d63ad4)" d="M 45.639591 62.64 
L 46.430936 62.64 
L 46.430936 13.766693 
L 45.639591 13.766693 
z
"/>
   </g>
   <g id="patch_39">
    <path clip-path="url(#pf6a8d63ad4)" d="M 46.430936 62.64 
L 47.222282 62.64 
L 47.222282 15.69498 
L 46.430936 15.69498 
z
"/>
   </g>
   <g id="patch_40">
    <path clip-path="url(#pf6a8d63ad4)" d="M 47.222282 62.64 
L 48.013627 62.64 
L 48.013627 15.309323 
L 47.222282 15.309323 
z
"/>
   </g>
   <g id="patch_41">
    <path clip-path="url(#pf6a8d63ad4)" d="M 48.013627 62.64 
L 48.804973 62.64 
L 48.804973 13.310916 
L 48.013627 13.310916 
z
"/>
   </g>
   <g id="patch_42">
    <path clip-path="url(#pf6a8d63ad4)" d="M 48.804973 62.64 
L 49.596318 62.64 
L 49.596318 12.644781 
L 48.804973 12.644781 
z
"/>
   </g>
   <g id="patch_43">
    <path clip-path="url(#pf6a8d63ad4)" d="M 49.596318 62.64 
L 50.387664 62.64 
L 50.387664 14.047171 
L 49.596318 14.047171 
z
"/>
   </g>
   <g id="patch_44">
    <path clip-path="url(#pf6a8d63ad4)" d="M 50.387664 62.64 
L 51.179009 62.64 
L 51.179009 9.84 
L 50.387664 9.84 
z
"/>
   </g>
   <g id="patch_45">
    <path clip-path="url(#pf6a8d63ad4)" d="M 51.179009 62.64 
L 51.970355 62.64 
L 51.970355 12.539602 
L 51.179009 12.539602 
z
"/>
   </g>
   <g id="patch_46">
    <path clip-path="url(#pf6a8d63ad4)" d="M 51.970355 62.64 
L 52.7617 62.64 
L 52.7617 10.611315 
L 51.970355 10.611315 
z
"/>
   </g>
   <g id="patch_47">
    <path clip-path="url(#pf6a8d63ad4)" d="M 52.7617 62.64 
L 53.553045 62.64 
L 53.553045 13.381036 
L 52.7617 13.381036 
z
"/>
   </g>
   <g id="patch_48">
    <path clip-path="url(#pf6a8d63ad4)" d="M 53.553045 62.64 
L 54.344391 62.64 
L 54.344391 13.065498 
L 53.553045 13.065498 
z
"/>
   </g>
   <g id="patch_49">
    <path clip-path="url(#pf6a8d63ad4)" d="M 54.344391 62.64 
L 55.135736 62.64 
L 55.135736 15.379442 
L 54.344391 15.379442 
z
"/>
   </g>
   <g id="patch_50">
    <path clip-path="url(#pf6a8d63ad4)" d="M 55.135736 62.64 
L 55.927082 62.64 
L 55.927082 12.574661 
L 55.135736 12.574661 
z
"/>
   </g>
   <g id="patch_51">
    <path clip-path="url(#pf6a8d63ad4)" d="M 55.927082 62.64 
L 56.718427 62.64 
L 56.718427 15.274263 
L 55.927082 15.274263 
z
"/>
   </g>
   <g id="patch_52">
    <path clip-path="url(#pf6a8d63ad4)" d="M 56.718427 62.64 
L 57.509773 62.64 
L 57.509773 18.079044 
L 56.718427 18.079044 
z
"/>
   </g>
   <g id="patch_53">
    <path clip-path="url(#pf6a8d63ad4)" d="M 57.509773 62.64 
L 58.301118 62.64 
L 58.301118 16.501355 
L 57.509773 16.501355 
z
"/>
   </g>
   <g id="patch_54">
    <path clip-path="url(#pf6a8d63ad4)" d="M 58.301118 62.64 
L 59.092464 62.64 
L 59.092464 20.568287 
L 58.301118 20.568287 
z
"/>
   </g>
   <g id="patch_55">
    <path clip-path="url(#pf6a8d63ad4)" d="M 59.092464 62.64 
L 59.883809 62.64 
L 59.883809 21.795378 
L 59.092464 21.795378 
z
"/>
   </g>
   <g id="patch_56">
    <path clip-path="url(#pf6a8d63ad4)" d="M 59.883809 62.64 
L 60.675155 62.64 
L 60.675155 21.760319 
L 59.883809 21.760319 
z
"/>
   </g>
   <g id="patch_57">
    <path clip-path="url(#pf6a8d63ad4)" d="M 60.675155 62.64 
L 61.4665 62.64 
L 61.4665 24.775458 
L 60.675155 24.775458 
z
"/>
   </g>
   <g id="patch_58">
    <path clip-path="url(#pf6a8d63ad4)" d="M 61.4665 62.64 
L 62.257845 62.64 
L 62.257845 25.897371 
L 61.4665 25.897371 
z
"/>
   </g>
   <g id="patch_59">
    <path clip-path="url(#pf6a8d63ad4)" d="M 62.257845 62.64 
L 63.049191 62.64 
L 63.049191 28.141195 
L 62.257845 28.141195 
z
"/>
   </g>
   <g id="patch_60">
    <path clip-path="url(#pf6a8d63ad4)" d="M 63.049191 62.64 
L 63.840536 62.64 
L 63.840536 30.700558 
L 63.049191 30.700558 
z
"/>
   </g>
   <g id="patch_61">
    <path clip-path="url(#pf6a8d63ad4)" d="M 63.840536 62.64 
L 64.631882 62.64 
L 64.631882 30.209721 
L 63.840536 30.209721 
z
"/>
   </g>
   <g id="patch_62">
    <path clip-path="url(#pf6a8d63ad4)" d="M 64.631882 62.64 
L 65.423227 62.64 
L 65.423227 34.346773 
L 64.631882 34.346773 
z
"/>
   </g>
   <g id="patch_63">
    <path clip-path="url(#pf6a8d63ad4)" d="M 65.423227 62.64 
L 66.214573 62.64 
L 66.214573 34.872669 
L 65.423227 34.872669 
z
"/>
   </g>
   <g id="patch_64">
    <path clip-path="url(#pf6a8d63ad4)" d="M 66.214573 62.64 
L 67.005918 62.64 
L 67.005918 37.396972 
L 66.214573 37.396972 
z
"/>
   </g>
   <g id="patch_65">
    <path clip-path="url(#pf6a8d63ad4)" d="M 67.005918 62.64 
L 67.797264 62.64 
L 67.797264 39.640797 
L 67.005918 39.640797 
z
"/>
   </g>
   <g id="patch_66">
    <path clip-path="url(#pf6a8d63ad4)" d="M 67.797264 62.64 
L 68.588609 62.64 
L 68.588609 41.358725 
L 67.797264 41.358725 
z
"/>
   </g>
   <g id="patch_67">
    <path clip-path="url(#pf6a8d63ad4)" d="M 68.588609 62.64 
L 69.379955 62.64 
L 69.379955 42.235219 
L 68.588609 42.235219 
z
"/>
   </g>
   <g id="patch_68">
    <path clip-path="url(#pf6a8d63ad4)" d="M 69.379955 62.64 
L 70.1713 62.64 
L 70.1713 43.357131 
L 69.379955 43.357131 
z
"/>
   </g>
   <g id="patch_69">
    <path clip-path="url(#pf6a8d63ad4)" d="M 70.1713 62.64 
L 70.962645 62.64 
L 70.962645 46.617689 
L 70.1713 46.617689 
z
"/>
   </g>
   <g id="patch_70">
    <path clip-path="url(#pf6a8d63ad4)" d="M 70.962645 62.64 
L 71.753991 62.64 
L 71.753991 47.248765 
L 70.962645 47.248765 
z
"/>
   </g>
   <g id="patch_71">
    <path clip-path="url(#pf6a8d63ad4)" d="M 71.753991 62.64 
L 72.545336 62.64 
L 72.545336 47.879841 
L 71.753991 47.879841 
z
"/>
   </g>
   <g id="patch_72">
    <path clip-path="url(#pf6a8d63ad4)" d="M 72.545336 62.64 
L 73.336682 62.64 
L 73.336682 50.684622 
L 72.545336 50.684622 
z
"/>
   </g>
   <g id="patch_73">
    <path clip-path="url(#pf6a8d63ad4)" d="M 73.336682 62.64 
L 74.128027 62.64 
L 74.128027 52.612908 
L 73.336682 52.612908 
z
"/>
   </g>
   <g id="patch_74">
    <path clip-path="url(#pf6a8d63ad4)" d="M 74.128027 62.64 
L 74.919373 62.64 
L 74.919373 52.753147 
L 74.128027 52.753147 
z
"/>
   </g>
   <g id="patch_75">
    <path clip-path="url(#pf6a8d63ad4)" d="M 74.919373 62.64 
L 75.710718 62.64 
L 75.710718 54.821673 
L 74.919373 54.821673 
z
"/>
   </g>
   <g id="patch_76">
    <path clip-path="url(#pf6a8d63ad4)" d="M 75.710718 62.64 
L 76.502064 62.64 
L 76.502064 56.153944 
L 75.710718 56.153944 
z
"/>
   </g>
   <g id="patch_77">
    <path clip-path="url(#pf6a8d63ad4)" d="M 76.502064 62.64 
L 77.293409 62.64 
L 77.293409 55.943586 
L 76.502064 55.943586 
z
"/>
   </g>
   <g id="patch_78">
    <path clip-path="url(#pf6a8d63ad4)" d="M 77.293409 62.64 
L 78.084755 62.64 
L 78.084755 56.118884 
L 77.293409 56.118884 
z
"/>
   </g>
   <g id="patch_79">
    <path clip-path="url(#pf6a8d63ad4)" d="M 78.084755 62.64 
L 78.8761 62.64 
L 78.8761 58.29259 
L 78.084755 58.29259 
z
"/>
   </g>
   <g id="patch_80">
    <path clip-path="url(#pf6a8d63ad4)" d="M 78.8761 62.64 
L 79.667445 62.64 
L 79.667445 58.923665 
L 78.8761 58.923665 
z
"/>
   </g>
   <g id="patch_81">
    <path clip-path="url(#pf6a8d63ad4)" d="M 79.667445 62.64 
L 80.458791 62.64 
L 80.458791 59.519681 
L 79.667445 59.519681 
z
"/>
   </g>
   <g id="patch_82">
    <path clip-path="url(#pf6a8d63ad4)" d="M 80.458791 62.64 
L 81.250136 62.64 
L 81.250136 59.835219 
L 80.458791 59.835219 
z
"/>
   </g>
   <g id="patch_83">
    <path clip-path="url(#pf6a8d63ad4)" d="M 81.250136 62.64 
L 82.041482 62.64 
L 82.041482 60.150757 
L 81.250136 60.150757 
z
"/>
   </g>
   <g id="patch_84">
    <path clip-path="url(#pf6a8d63ad4)" d="M 82.041482 62.64 
L 82.832827 62.64 
L 82.832827 60.781833 
L 82.041482 60.781833 
z
"/>
   </g>
   <g id="patch_85">
    <path clip-path="url(#pf6a8d63ad4)" d="M 82.832827 62.64 
L 83.624173 62.64 
L 83.624173 60.851952 
L 82.832827 60.851952 
z
"/>
   </g>
   <g id="patch_86">
    <path clip-path="url(#pf6a8d63ad4)" d="M 83.624173 62.64 
L 84.415518 62.64 
L 84.415518 61.097371 
L 83.624173 61.097371 
z
"/>
   </g>
   <g id="patch_87">
    <path clip-path="url(#pf6a8d63ad4)" d="M 84.415518 62.64 
L 85.206864 62.64 
L 85.206864 61.623267 
L 84.415518 61.623267 
z
"/>
   </g>
   <g id="patch_88">
    <path clip-path="url(#pf6a8d63ad4)" d="M 85.206864 62.64 
L 85.998209 62.64 
L 85.998209 61.903745 
L 85.206864 61.903745 
z
"/>
   </g>
   <g id="patch_89">
    <path clip-path="url(#pf6a8d63ad4)" d="M 85.998209 62.64 
L 86.789555 62.64 
L 86.789555 61.903745 
L 85.998209 61.903745 
z
"/>
   </g>
   <g id="patch_90">
    <path clip-path="url(#pf6a8d63ad4)" d="M 86.789555 62.64 
L 87.5809 62.64 
L 87.5809 62.079044 
L 86.789555 62.079044 
z
"/>
   </g>
   <g id="patch_91">
    <path clip-path="url(#pf6a8d63ad4)" d="M 87.5809 62.64 
L 88.372245 62.64 
L 88.372245 61.903745 
L 87.5809 61.903745 
z
"/>
   </g>
   <g id="patch_92">
    <path clip-path="url(#pf6a8d63ad4)" d="M 88.372245 62.64 
L 89.163591 62.64 
L 89.163591 62.184223 
L 88.372245 62.184223 
z
"/>
   </g>
   <g id="patch_93">
    <path clip-path="url(#pf6a8d63ad4)" d="M 89.163591 62.64 
L 89.954936 62.64 
L 89.954936 62.429641 
L 89.163591 62.429641 
z
"/>
   </g>
   <g id="patch_94">
    <path clip-path="url(#pf6a8d63ad4)" d="M 89.954936 62.64 
L 90.746282 62.64 
L 90.746282 62.429641 
L 89.954936 62.429641 
z
"/>
   </g>
   <g id="patch_95">
    <path clip-path="url(#pf6a8d63ad4)" d="M 90.746282 62.64 
L 91.537627 62.64 
L 91.537627 62.534821 
L 90.746282 62.534821 
z
"/>
   </g>
   <g id="patch_96">
    <path clip-path="url(#pf6a8d63ad4)" d="M 91.537627 62.64 
L 92.328973 62.64 
L 92.328973 62.429641 
L 91.537627 62.429641 
z
"/>
   </g>
   <g id="patch_97">
    <path clip-path="url(#pf6a8d63ad4)" d="M 92.328973 62.64 
L 93.120318 62.64 
L 93.120318 62.394582 
L 92.328973 62.394582 
z
"/>
   </g>
   <g id="patch_98">
    <path clip-path="url(#pf6a8d63ad4)" d="M 93.120318 62.64 
L 93.911664 62.64 
L 93.911664 62.60494 
L 93.120318 62.60494 
z
"/>
   </g>
   <g id="patch_99">
    <path clip-path="url(#pf6a8d63ad4)" d="M 93.911664 62.64 
L 94.703009 62.64 
L 94.703009 62.60494 
L 93.911664 62.60494 
z
"/>
   </g>
   <g id="patch_100">
    <path clip-path="url(#pf6a8d63ad4)" d="M 94.703009 62.64 
L 95.494355 62.64 
L 95.494355 62.56988 
L 94.703009 62.56988 
z
"/>
   </g>
   <g id="patch_101">
    <path clip-path="url(#pf6a8d63ad4)" d="M 95.494355 62.64 
L 96.2857 62.64 
L 96.2857 62.60494 
L 95.494355 62.60494 
z
"/>
   </g>
   <g id="patch_102">
    <path clip-path="url(#pf6a8d63ad4)" d="M 96.2857 62.64 
L 97.077045 62.64 
L 97.077045 62.56988 
L 96.2857 62.56988 
z
"/>
   </g>
   <g id="matplotlib.axis_1">
    <g id="xtick_1">
     <g id="line2d_1">
      <defs>
       <path d="M 0 0 
L 0 3.5 
" id="mceb6aa30d7" style="stroke:#000000;stroke-width:1.5;"/>
      </defs>
      <g>
       <use style="stroke:#000000;stroke-width:1.5;" x="17.9425" xlink:href="#mceb6aa30d7" y="62.64"/>
      </g>
     </g>
     <g id="text_1">
      <!-- $\;$21 -->
      <g transform="translate(11.7425 75.71875)">
       <text>
        <tspan style="font-family:DejaVu Sans;font-size:8px;font-style:book;font-weight:book;" x="2.164731 7.254575" y="-0.0625">21</tspan>
       </text>
      </g>
     </g>
    </g>
    <g id="xtick_2">
     <g id="line2d_2">
      <g>
       <use style="stroke:#000000;stroke-width:1.5;" x="90.4825" xlink:href="#mceb6aa30d7" y="62.64"/>
      </g>
     </g>
     <g id="text_2">
      <!-- 175$\;\;\;\;\;\;$  -->
      <g transform="translate(75.0425 75.71875)">
       <text>
        <tspan style="font-family:DejaVu Sans;font-size:8px;font-style:book;font-weight:book;" x="0 5.089844 10.179688 28.257916" y="-0.171875">175 </tspan>
       </text>
      </g>
     </g>
    </g>
    <g id="text_3">
     <!-- Energy ($\mu$J/s) -->
     <g transform="translate(28.5725 87.4625)">
      <text>
       <tspan style="font-family:DejaVu Sans;font-size:8px;font-style:book;font-weight:book;" x="0 5.054688 10.125 15.046875 18.335938 23.414062 28.148438 30.691406 33.8125 38.902344 41.261719 43.957031 48.125" y="-0.921875">Energy (μJ/s)</tspan>
      </text>
     </g>
    </g>
   </g>
   <g id="matplotlib.axis_2">
    <g id="text_4">
     <text style="font-family:DejaVu Sans;font-size:8px;font-stretch:normal;font-style:normal;font-weight:normal;text-anchor:middle;" transform="rotate(-90, 13.27875, 34.92)" x="13.27875" y="34.92">Count</text>
    </g>
   </g>
   <g id="patch_103">
    <path d="M 17.9425 62.64 
L 90.4825 62.64 
" style="fill:none;stroke:#000000;stroke-linecap:square;stroke-linejoin:miter;stroke-width:1.5;"/>
   </g>
  </g>
 </g>
 <defs>
  <clipPath id="pf6a8d63ad4">
   <rect height="55.44" width="72.54" x="17.9425" y="7.2"/>
  </clipPath>
 </defs>
</svg>
