<?xml version="1.0" encoding="utf-8" standalone="no"?>
<!DOCTYPE svg PUBLIC "-//W3C//DTD SVG 1.1//EN"
  "http://www.w3.org/Graphics/SVG/1.1/DTD/svg11.dtd">
<!-- Created with matplotlib (https://matplotlib.org/) -->
<svg height="112.829pt" version="1.1" viewBox="0 0 120.3225 112.829" width="120.3225pt" xmlns="http://www.w3.org/2000/svg" xmlns:xlink="http://www.w3.org/1999/xlink">
 <metadata>
  <rdf:RDF xmlns:cc="http://creativecommons.org/ns#" xmlns:dc="http://purl.org/dc/elements/1.1/" xmlns:rdf="http://www.w3.org/1999/02/22-rdf-syntax-ns#">
   <cc:Work>
    <dc:type rdf:resource="http://purl.org/dc/dcmitype/StillImage"/>
    <dc:date>2020-11-11T10:20:19.476565</dc:date>
    <dc:format>image/svg+xml</dc:format>
    <dc:creator>
     <cc:Agent>
      <dc:title>Matplotlib v3.3.2, https://matplotlib.org/</dc:title>
     </cc:Agent>
    </dc:creator>
   </cc:Work>
  </rdf:RDF>
 </metadata>
 <defs>
  <style type="text/css">*{stroke-linecap:butt;stroke-linejoin:round;}</style>
 </defs>
 <g id="figure_1">
  <g id="patch_1">
   <path d="M 0 112.829 
L 120.3225 112.829 
L 120.3225 0 
L 0 0 
z
" style="fill:none;"/>
  </g>
  <g id="axes_1">
   <g id="patch_2">
    <path d="M 34.0025 81.144 
L 100.9625 81.144 
L 100.9625 7.2 
L 34.0025 7.2 
z
" style="fill:none;"/>
   </g>
   <g id="matplotlib.axis_1">
    <g id="xtick_1">
     <g id="line2d_1">
      <defs>
       <path d="M 0 0 
L 0 3.5 
" id="mf787beaa91" style="stroke:#000000;stroke-width:1.5;"/>
      </defs>
      <g>
       <use style="stroke:#000000;stroke-width:1.5;" x="34.0025" xlink:href="#mf787beaa91" y="86.144"/>
      </g>
     </g>
     <g id="text_1">
      <!-- $\mathdefault{0}$ -->
      <g transform="translate(31.4425 99.22275)">
       <text>
        <tspan style="font-family:DejaVu Sans;font-size:8px;font-style:book;font-weight:book;" x="0" y="-0.0625">0</tspan>
       </text>
      </g>
     </g>
    </g>
    <g id="xtick_2">
     <g id="line2d_2">
      <g>
       <use style="stroke:#000000;stroke-width:1.5;" x="100.9625" xlink:href="#mf787beaa91" y="86.144"/>
      </g>
     </g>
     <g id="text_2">
      <!-- $\mathdefault{500}\;\;\;$  -->
      <g transform="translate(88.8025 99.22275)">
       <text>
        <tspan style="font-family:DejaVu Sans;font-size:8px;font-style:book;font-weight:book;" x="0 5.089844 10.179688 21.763724" y="-0.0625">500 </tspan>
       </text>
      </g>
     </g>
    </g>
    <g id="text_3">
     <text style="font-family:DejaVu Sans;font-size:8px;font-stretch:normal;font-style:normal;font-weight:normal;text-anchor:middle;" transform="rotate(-0, 67.4825, 103.96525)" x="67.4825" y="103.96525">AB-Na</text>
    </g>
   </g>
   <g id="matplotlib.axis_2">
    <g id="ytick_1">
     <g id="line2d_3">
      <defs>
       <path d="M 0 0 
L -3.5 0 
" id="m3747a0193f" style="stroke:#000000;stroke-width:1.5;"/>
      </defs>
      <g>
       <use style="stroke:#000000;stroke-width:1.5;" x="29.0025" xlink:href="#m3747a0193f" y="81.144"/>
      </g>
     </g>
     <g id="text_4">
      <text style="font-family:DejaVu Sans;font-size:8px;font-stretch:normal;font-style:normal;font-weight:normal;text-anchor:end;" transform="rotate(-0, 22.0025, 84.183375)" x="22.0025" y="84.183375">0.0</text>
     </g>
    </g>
    <g id="text_5">
     <!-- p($\theta$|x) -->
     <g transform="translate(13.36 56.012)rotate(-90)">
      <text>
       <tspan style="font-family:DejaVu Sans;font-size:8px;font-style:book;font-weight:book;" x="0 5.078125 8.199219 13.09375 15.789062 20.523438" y="-0.859375">p(θ|x)</tspan>
      </text>
     </g>
    </g>
   </g>
   <g id="line2d_4">
    <path clip-path="url(#p01be4dee76)" d="M 34.0025 80.433 
L 79.439778 80.329476 
L 80.496459 80.090866 
L 81.156884 79.746641 
L 81.81731 79.12626 
L 82.34565 78.331057 
L 83.006076 76.872337 
L 83.666502 74.811769 
L 84.459012 71.527951 
L 85.119438 67.905298 
L 86.044034 61.43924 
L 87.49697 48.977744 
L 88.553651 38.543525 
L 90.006587 23.993977 
L 90.799098 17.746802 
L 91.723693 12.11937 
L 92.384119 9.832461 
L 92.648289 9.495549 
L 92.912459 9.333 
L 93.308715 9.681481 
L 93.572885 9.949787 
L 94.101225 9.918591 
L 94.365396 10.130238 
L 94.761651 10.88883 
L 95.157906 12.219365 
L 95.289991 12.98218 
L 95.950417 21.555549 
L 96.082502 21.605838 
L 96.214587 21.189667 
L 96.742928 17.371687 
L 97.535438 11.170526 
L 97.799608 10.366913 
L 97.931693 10.498292 
L 98.195864 12.123539 
L 98.460034 15.642349 
L 98.724204 22.462167 
L 99.38463 51.00052 
L 99.91297 76.030932 
L 99.91297 76.030932 
" style="fill:none;stroke:#2e7fe8;stroke-linecap:square;stroke-width:1.5;"/>
   </g>
   <g id="line2d_5">
    <path clip-path="url(#p01be4dee76)" d="M 88.578048 81.144 
L 88.578048 7.2 
" style="fill:none;stroke:#8d62bc;stroke-linecap:square;stroke-width:1.5;"/>
   </g>
   <g id="line2d_6">
    <path clip-path="url(#p01be4dee76)" d="M 57.721872 81.144 
L 57.721872 7.2 
" style="fill:none;stroke:#d73789;stroke-linecap:square;stroke-width:1.5;"/>
   </g>
   <g id="patch_3">
    <path d="M 29.0025 81.144 
L 29.0025 7.2 
" style="fill:none;stroke:#000000;stroke-linecap:square;stroke-linejoin:miter;stroke-width:1.5;"/>
   </g>
   <g id="patch_4">
    <path d="M 34.0025 86.144 
L 100.9625 86.144 
" style="fill:none;stroke:#000000;stroke-linecap:square;stroke-linejoin:miter;stroke-width:1.5;"/>
   </g>
  </g>
 </g>
 <defs>
  <clipPath id="p01be4dee76">
   <rect height="73.944" width="66.96" x="34.0025" y="7.2"/>
  </clipPath>
 </defs>
</svg>
