<?xml version="1.0" encoding="utf-8" standalone="no"?>
<!DOCTYPE svg PUBLIC "-//W3C//DTD SVG 1.1//EN"
  "http://www.w3.org/Graphics/SVG/1.1/DTD/svg11.dtd">
<!-- Created with matplotlib (https://matplotlib.org/) -->
<svg height="84.5825pt" version="1.1" viewBox="0 0 266.739 84.5825" width="266.739pt" xmlns="http://www.w3.org/2000/svg" xmlns:xlink="http://www.w3.org/1999/xlink">
 <metadata>
  <rdf:RDF xmlns:cc="http://creativecommons.org/ns#" xmlns:dc="http://purl.org/dc/elements/1.1/" xmlns:rdf="http://www.w3.org/1999/02/22-rdf-syntax-ns#">
   <cc:Work>
    <dc:type rdf:resource="http://purl.org/dc/dcmitype/StillImage"/>
    <dc:date>2020-11-11T10:41:37.770431</dc:date>
    <dc:format>image/svg+xml</dc:format>
    <dc:creator>
     <cc:Agent>
      <dc:title>Matplotlib v3.3.2, https://matplotlib.org/</dc:title>
     </cc:Agent>
    </dc:creator>
   </cc:Work>
  </rdf:RDF>
 </metadata>
 <defs>
  <style type="text/css">*{stroke-linecap:butt;stroke-linejoin:round;}</style>
 </defs>
 <g id="figure_1">
  <g id="patch_1">
   <path d="M -0 84.5825 
L 266.739 84.5825 
L 266.739 0 
L -0 0 
z
" style="fill:none;"/>
  </g>
  <g id="axes_1">
   <g id="patch_2">
    <path d="M 38.665 62.64 
L 211.645 62.64 
L 211.645 7.2 
L 38.665 7.2 
z
" style="fill:#ffffff;"/>
   </g>
   <g id="patch_3">
    <path clip-path="url(#p535ab695b2)" d="M 43.75675 44.16 
L 46.54675 44.16 
L 46.54675 29.626057 
L 43.75675 29.626057 
z
" style="fill:#3182bd;"/>
   </g>
   <g id="patch_4">
    <path clip-path="url(#p535ab695b2)" d="M 65.37925 44.16 
L 68.16925 44.16 
L 68.16925 28.099486 
L 65.37925 28.099486 
z
" style="fill:#3182bd;"/>
   </g>
   <g id="patch_5">
    <path clip-path="url(#p535ab695b2)" d="M 87.00175 44.16 
L 89.79175 44.16 
L 89.79175 32.366256 
L 87.00175 32.366256 
z
" style="fill:#3182bd;"/>
   </g>
   <g id="patch_6">
    <path clip-path="url(#p535ab695b2)" d="M 108.62425 44.16 
L 111.41425 44.16 
L 111.41425 56.555747 
L 108.62425 56.555747 
z
" style="fill:#3182bd;"/>
   </g>
   <g id="patch_7">
    <path clip-path="url(#p535ab695b2)" d="M 130.24675 44.16 
L 133.03675 44.16 
L 133.03675 40.060816 
L 130.24675 40.060816 
z
" style="fill:#3182bd;"/>
   </g>
   <g id="patch_8">
    <path clip-path="url(#p535ab695b2)" d="M 151.86925 44.16 
L 154.65925 44.16 
L 154.65925 49.8412 
L 151.86925 49.8412 
z
" style="fill:#3182bd;"/>
   </g>
   <g id="patch_9">
    <path clip-path="url(#p535ab695b2)" d="M 173.49175 44.16 
L 176.28175 44.16 
L 176.28175 44.139839 
L 173.49175 44.139839 
z
" style="fill:#3182bd;"/>
   </g>
   <g id="patch_10">
    <path clip-path="url(#p535ab695b2)" d="M 195.11425 44.16 
L 197.90425 44.16 
L 197.90425 44.59193 
L 195.11425 44.59193 
z
" style="fill:#3182bd;"/>
   </g>
   <g id="patch_11">
    <path clip-path="url(#p535ab695b2)" d="M 48.08125 44.16 
L 50.87125 44.16 
L 50.87125 40.459174 
L 48.08125 40.459174 
z
" style="fill:#fc8d59;"/>
   </g>
   <g id="patch_12">
    <path clip-path="url(#p535ab695b2)" d="M 69.70375 44.16 
L 72.49375 44.16 
L 72.49375 36.880666 
L 69.70375 36.880666 
z
" style="fill:#fc8d59;"/>
   </g>
   <g id="patch_13">
    <path clip-path="url(#p535ab695b2)" d="M 91.32625 44.16 
L 94.11625 44.16 
L 94.11625 29.999848 
L 91.32625 29.999848 
z
" style="fill:#fc8d59;"/>
   </g>
   <g id="patch_14">
    <path clip-path="url(#p535ab695b2)" d="M 112.94875 44.16 
L 115.73875 44.16 
L 115.73875 51.383368 
L 112.94875 51.383368 
z
" style="fill:#fc8d59;"/>
   </g>
   <g id="patch_15">
    <path clip-path="url(#p535ab695b2)" d="M 134.57125 44.16 
L 137.36125 44.16 
L 137.36125 43.827557 
L 134.57125 43.827557 
z
" style="fill:#fc8d59;"/>
   </g>
   <g id="patch_16">
    <path clip-path="url(#p535ab695b2)" d="M 156.19375 44.16 
L 158.98375 44.16 
L 158.98375 49.027906 
L 156.19375 49.027906 
z
" style="fill:#fc8d59;"/>
   </g>
   <g id="patch_17">
    <path clip-path="url(#p535ab695b2)" d="M 177.81625 44.16 
L 180.60625 44.16 
L 180.60625 43.676904 
L 177.81625 43.676904 
z
" style="fill:#fc8d59;"/>
   </g>
   <g id="patch_18">
    <path clip-path="url(#p535ab695b2)" d="M 199.43875 44.16 
L 202.22875 44.16 
L 202.22875 46.157633 
L 199.43875 46.157633 
z
" style="fill:#fc8d59;"/>
   </g>
   <g id="patch_19">
    <path clip-path="url(#p535ab695b2)" d="M 52.40575 44.16 
L 55.19575 44.16 
L 55.19575 16.829529 
L 52.40575 16.829529 
z
" style="fill:#2ca25f;"/>
   </g>
   <g id="patch_20">
    <path clip-path="url(#p535ab695b2)" d="M 74.02825 44.16 
L 76.81825 44.16 
L 76.81825 11.211052 
L 74.02825 11.211052 
z
" style="fill:#2ca25f;"/>
   </g>
   <g id="patch_21">
    <path clip-path="url(#p535ab695b2)" d="M 95.65075 44.16 
L 98.44075 44.16 
L 98.44075 25.228809 
L 95.65075 25.228809 
z
" style="fill:#2ca25f;"/>
   </g>
   <g id="patch_22">
    <path clip-path="url(#p535ab695b2)" d="M 117.27325 44.16 
L 120.06325 44.16 
L 120.06325 59.559257 
L 117.27325 59.559257 
z
" style="fill:#2ca25f;"/>
   </g>
   <g id="patch_23">
    <path clip-path="url(#p535ab695b2)" d="M 138.89575 44.16 
L 141.68575 44.16 
L 141.68575 53.110129 
L 138.89575 53.110129 
z
" style="fill:#2ca25f;"/>
   </g>
   <g id="patch_24">
    <path clip-path="url(#p535ab695b2)" d="M 160.51825 44.16 
L 163.30825 44.16 
L 163.30825 50.137884 
L 160.51825 50.137884 
z
" style="fill:#2ca25f;"/>
   </g>
   <g id="patch_25">
    <path clip-path="url(#p535ab695b2)" d="M 182.14075 44.16 
L 184.93075 44.16 
L 184.93075 42.637388 
L 182.14075 42.637388 
z
" style="fill:#2ca25f;"/>
   </g>
   <g id="patch_26">
    <path clip-path="url(#p535ab695b2)" d="M 203.76325 44.16 
L 206.55325 44.16 
L 206.55325 48.972935 
L 203.76325 48.972935 
z
" style="fill:#2ca25f;"/>
   </g>
   <g id="matplotlib.axis_1">
    <g id="xtick_1">
     <g id="line2d_1">
      <defs>
       <path d="M 0 0 
L 0 3.5 
" id="m9e210b8c48" style="stroke:#000000;stroke-width:1.5;"/>
      </defs>
      <g>
       <use style="stroke:#000000;stroke-width:1.5;" x="49.47625" xlink:href="#m9e210b8c48" y="62.64"/>
      </g>
     </g>
     <g id="text_1">
      <text style="font-family:DejaVu Sans;font-size:8px;font-stretch:normal;font-style:normal;font-weight:normal;text-anchor:middle;" transform="rotate(-0, 49.47625, 75.71875)" x="49.47625" y="75.71875">Na</text>
     </g>
    </g>
    <g id="xtick_2">
     <g id="line2d_2">
      <g>
       <use style="stroke:#000000;stroke-width:1.5;" x="71.09875" xlink:href="#m9e210b8c48" y="62.64"/>
      </g>
     </g>
     <g id="text_2">
      <text style="font-family:DejaVu Sans;font-size:8px;font-stretch:normal;font-style:normal;font-weight:normal;text-anchor:middle;" transform="rotate(-0, 71.09875, 75.71875)" x="71.09875" y="75.71875">CaT</text>
     </g>
    </g>
    <g id="xtick_3">
     <g id="line2d_3">
      <g>
       <use style="stroke:#000000;stroke-width:1.5;" x="92.72125" xlink:href="#m9e210b8c48" y="62.64"/>
      </g>
     </g>
     <g id="text_3">
      <text style="font-family:DejaVu Sans;font-size:8px;font-stretch:normal;font-style:normal;font-weight:normal;text-anchor:middle;" transform="rotate(-0, 92.72125, 75.71875)" x="92.72125" y="75.71875">CaS</text>
     </g>
    </g>
    <g id="xtick_4">
     <g id="line2d_4">
      <g>
       <use style="stroke:#000000;stroke-width:1.5;" x="114.34375" xlink:href="#m9e210b8c48" y="62.64"/>
      </g>
     </g>
     <g id="text_4">
      <text style="font-family:DejaVu Sans;font-size:8px;font-stretch:normal;font-style:normal;font-weight:normal;text-anchor:middle;" transform="rotate(-0, 114.34375, 75.71875)" x="114.34375" y="75.71875">A</text>
     </g>
    </g>
    <g id="xtick_5">
     <g id="line2d_5">
      <g>
       <use style="stroke:#000000;stroke-width:1.5;" x="135.96625" xlink:href="#m9e210b8c48" y="62.64"/>
      </g>
     </g>
     <g id="text_5">
      <text style="font-family:DejaVu Sans;font-size:8px;font-stretch:normal;font-style:normal;font-weight:normal;text-anchor:middle;" transform="rotate(-0, 135.96625, 75.71875)" x="135.96625" y="75.71875">KCa</text>
     </g>
    </g>
    <g id="xtick_6">
     <g id="line2d_6">
      <g>
       <use style="stroke:#000000;stroke-width:1.5;" x="157.58875" xlink:href="#m9e210b8c48" y="62.64"/>
      </g>
     </g>
     <g id="text_6">
      <text style="font-family:DejaVu Sans;font-size:8px;font-stretch:normal;font-style:normal;font-weight:normal;text-anchor:middle;" transform="rotate(-0, 157.58875, 75.71875)" x="157.58875" y="75.71875">Kd</text>
     </g>
    </g>
    <g id="xtick_7">
     <g id="line2d_7">
      <g>
       <use style="stroke:#000000;stroke-width:1.5;" x="179.21125" xlink:href="#m9e210b8c48" y="62.64"/>
      </g>
     </g>
     <g id="text_7">
      <text style="font-family:DejaVu Sans;font-size:8px;font-stretch:normal;font-style:normal;font-weight:normal;text-anchor:middle;" transform="rotate(-0, 179.21125, 75.71875)" x="179.21125" y="75.71875">H</text>
     </g>
    </g>
    <g id="xtick_8">
     <g id="line2d_8">
      <g>
       <use style="stroke:#000000;stroke-width:1.5;" x="200.83375" xlink:href="#m9e210b8c48" y="62.64"/>
      </g>
     </g>
     <g id="text_8">
      <text style="font-family:DejaVu Sans;font-size:8px;font-stretch:normal;font-style:normal;font-weight:normal;text-anchor:middle;" transform="rotate(-0, 200.83375, 75.71875)" x="200.83375" y="75.71875">leak</text>
     </g>
    </g>
   </g>
   <g id="matplotlib.axis_2">
    <g id="ytick_1">
     <g id="line2d_9">
      <defs>
       <path d="M 0 0 
L -3.5 0 
" id="mb73b9ced35" style="stroke:#000000;stroke-width:1.5;"/>
      </defs>
      <g>
       <use style="stroke:#000000;stroke-width:1.5;" x="38.665" xlink:href="#mb73b9ced35" y="44.16"/>
      </g>
     </g>
     <g id="text_9">
      <text style="font-family:DejaVu Sans;font-size:8px;font-stretch:normal;font-style:normal;font-weight:normal;text-anchor:end;" transform="rotate(-0, 31.665, 47.199375)" x="31.665" y="47.199375">0.0</text>
     </g>
    </g>
    <g id="ytick_2">
     <g id="line2d_10">
      <g>
       <use style="stroke:#000000;stroke-width:1.5;" x="38.665" xlink:href="#mb73b9ced35" y="13.36"/>
      </g>
     </g>
     <g id="text_10">
      <text style="font-family:DejaVu Sans;font-size:8px;font-stretch:normal;font-style:normal;font-weight:normal;text-anchor:end;" transform="rotate(-0, 31.665, 16.399375)" x="31.665" y="16.399375">0.5</text>
     </g>
    </g>
    <g id="text_11">
     <text style="font-family:DejaVu Sans;font-size:8px;font-stretch:normal;font-style:normal;font-weight:normal;text-anchor:middle;" transform="rotate(-90, 13.27875, 34.92)" x="13.27875" y="34.92">Active dim.</text>
    </g>
   </g>
   <g id="patch_27">
    <path d="M 38.665 62.64 
L 38.665 7.2 
" style="fill:none;stroke:#000000;stroke-linecap:square;stroke-linejoin:miter;stroke-width:1.5;"/>
   </g>
   <g id="patch_28">
    <path d="M 38.665 62.64 
L 211.645 62.64 
" style="fill:none;stroke:#000000;stroke-linecap:square;stroke-linejoin:miter;stroke-width:1.5;"/>
   </g>
   <g id="legend_1">
    <g id="patch_29">
     <path d="M 226.499 31.56675 
L 228.899 31.56675 
L 228.899 25.96675 
L 226.499 25.96675 
z
" style="fill:#3182bd;"/>
    </g>
    <g id="text_12">
     <text style="font-family:DejaVu Sans;font-size:8px;font-stretch:normal;font-style:normal;font-weight:normal;text-anchor:start;" transform="rotate(-0, 231.699, 31.56675)" x="231.699" y="31.56675">AB/PD</text>
    </g>
    <g id="patch_30">
     <path d="M 226.499 43.30925 
L 228.899 43.30925 
L 228.899 37.70925 
L 226.499 37.70925 
z
" style="fill:#fc8d59;"/>
    </g>
    <g id="text_13">
     <text style="font-family:DejaVu Sans;font-size:8px;font-stretch:normal;font-style:normal;font-weight:normal;text-anchor:start;" transform="rotate(-0, 231.699, 43.30925)" x="231.699" y="43.30925">LP</text>
    </g>
    <g id="patch_31">
     <path d="M 226.499 55.05175 
L 228.899 55.05175 
L 228.899 49.45175 
L 226.499 49.45175 
z
" style="fill:#2ca25f;"/>
    </g>
    <g id="text_14">
     <text style="font-family:DejaVu Sans;font-size:8px;font-stretch:normal;font-style:normal;font-weight:normal;text-anchor:start;" transform="rotate(-0, 231.699, 55.05175)" x="231.699" y="55.05175">PY</text>
    </g>
   </g>
  </g>
 </g>
 <defs>
  <clipPath id="p535ab695b2">
   <rect height="55.44" width="172.98" x="38.665" y="7.2"/>
  </clipPath>
 </defs>
</svg>
