<?xml version="1.0" encoding="utf-8" standalone="no"?>
<!DOCTYPE svg PUBLIC "-//W3C//DTD SVG 1.1//EN"
  "http://www.w3.org/Graphics/SVG/1.1/DTD/svg11.dtd">
<!-- Created with matplotlib (https://matplotlib.org/) -->
<svg height="79.632pt" version="1.1" viewBox="0 0 137.16 79.632" width="137.16pt" xmlns="http://www.w3.org/2000/svg" xmlns:xlink="http://www.w3.org/1999/xlink">
 <metadata>
  <rdf:RDF xmlns:cc="http://creativecommons.org/ns#" xmlns:dc="http://purl.org/dc/elements/1.1/" xmlns:rdf="http://www.w3.org/1999/02/22-rdf-syntax-ns#">
   <cc:Work>
    <dc:type rdf:resource="http://purl.org/dc/dcmitype/StillImage"/>
    <dc:date>2021-02-17T18:16:14.034206</dc:date>
    <dc:format>image/svg+xml</dc:format>
    <dc:creator>
     <cc:Agent>
      <dc:title>Matplotlib v3.3.2, https://matplotlib.org/</dc:title>
     </cc:Agent>
    </dc:creator>
   </cc:Work>
  </rdf:RDF>
 </metadata>
 <defs>
  <style type="text/css">*{stroke-linecap:butt;stroke-linejoin:round;}</style>
 </defs>
 <g id="figure_1">
  <g id="patch_1">
   <path d="M 0 79.632 
L 137.16 79.632 
L 137.16 0 
L 0 0 
z
" style="fill:none;"/>
  </g>
  <g id="axes_1">
   <g id="patch_2">
    <path d="M 7.2 72.432 
L 129.96 72.432 
L 129.96 7.2 
L 7.2 7.2 
z
" style="fill:none;"/>
   </g>
   <g id="matplotlib.axis_1"/>
   <g id="matplotlib.axis_2"/>
   <g id="line2d_1">
    <path clip-path="url(#p569f00caac)" d="M 12.78 27.174553 
L 12.966 27.220345 
L 12.976333 27.196237 
L 13.157167 27.075522 
L 13.296667 27.035083 
L 13.301833 27.052904 
L 13.431 27.026275 
L 13.441333 27.049264 
L 13.617 27.206786 
L 13.622167 27.200465 
L 13.823667 27.034824 
L 13.8495 27.074971 
L 13.896 26.990023 
L 13.927 27.011346 
L 14.045833 26.970249 
L 14.3765 26.987707 
L 14.433333 27.017728 
L 14.485 26.965127 
L 14.516 26.941098 
L 14.64 27.041207 
L 14.743333 27.035032 
L 14.676167 27.075242 
L 14.753667 27.042296 
L 14.836333 26.953464 
L 14.893167 27.013365 
L 15.079167 27.08702 
L 15.280667 27.003684 
L 15.291 27.035796 
L 15.3995 27.022877 
L 15.409833 27.005788 
L 15.5855 26.947592 
L 15.435667 27.039209 
L 15.590667 26.960247 
L 15.745667 26.945837 
L 15.849 26.932901 
L 15.797333 26.96345 
L 15.854167 26.948772 
L 16.283 26.775675 
L 16.412167 26.705912 
L 16.505167 26.666217 
L 16.536167 26.70432 
L 16.613667 26.747588 
L 16.649833 26.698467 
L 16.773833 26.521818 
L 16.784167 26.541385 
L 16.996 26.505475 
L 17.021833 26.506803 
L 17.058 26.595589 
L 17.192333 26.635324 
L 17.1975 26.612588 
L 17.5385 26.523254 
L 17.657333 26.464588 
L 17.574667 26.532886 
L 17.6625 26.485793 
L 17.6935 26.440019 
L 17.771 26.508802 
L 17.833 26.453738 
L 17.8795 26.482284 
L 17.982833 26.428238 
L 18.0035 26.439544 
L 18.1275 26.286302 
L 18.148167 26.301617 
L 18.509833 26.112026 
L 18.602833 26.042309 
L 18.628667 26.065606 
L 18.690667 25.986125 
L 18.757833 26.085894 
L 18.887 26.072392 
L 18.928333 25.94998 
L 19.011 26.042569 
L 19.114333 26.127989 
L 19.1505 26.054746 
L 19.2745 25.917884 
L 19.166 26.05854 
L 19.279667 25.918631 
L 19.362333 25.937254 
L 19.300333 25.894922 
L 19.388167 25.896663 
L 19.687833 25.931411 
L 19.693 25.948106 
L 19.734333 25.878807 
L 19.780833 25.877701 
L 19.842833 25.817293 
L 19.8945 25.86385 
L 19.992667 25.836678 
L 19.930667 25.825587 
L 19.997833 25.82646 
L 20.085667 25.770573 
L 20.034 25.845965 
L 20.1115 25.815176 
L 20.214833 25.804374 
L 20.22 25.791406 
L 20.354333 25.708544 
L 20.3595 25.720366 
L 20.540333 25.664691 
L 20.7005 25.538745 
L 20.736667 25.60618 
L 20.814167 25.547098 
L 20.927833 25.44052 
L 20.933 25.465695 
L 21.077667 25.356895 
L 21.113833 25.396435 
L 21.1035 25.426493 
L 21.1345 25.449594 
L 21.139667 25.459076 
L 21.1655 25.387166 
L 21.206833 25.37645 
L 21.325667 25.258322 
L 21.336 25.267976 
L 21.470333 25.239565 
L 21.367 25.314147 
L 21.485833 25.264198 
L 21.522 25.314847 
L 21.5995 25.267092 
L 21.666667 25.239437 
L 21.615 25.28489 
L 21.697667 25.290818 
L 21.764833 25.355975 
L 21.806167 25.282182 
L 22.162667 25.263176 
L 22.193667 25.316189 
L 22.276333 25.256771 
L 22.627667 25.122807 
L 22.7155 25.129949 
L 22.725833 25.152147 
L 22.731 25.172583 
L 22.782667 25.099333 
L 22.829167 25.143671 
L 22.958333 25.062995 
L 22.844667 25.159235 
L 22.9635 25.080421 
L 23.258 25.149097 
L 23.387167 25.051947 
L 23.3975 25.055916 
L 23.454333 25.094846 
L 23.511167 25.075107 
L 23.537 25.005872 
L 23.6145 25.110883 
L 23.733333 25.082654 
L 23.748833 25.114373 
L 23.754 25.139213 
L 23.8315 24.970237 
L 23.965833 24.979421 
L 23.971 24.970254 
L 24.043333 24.859432 
L 24.089833 24.946136 
L 24.177667 25.019781 
L 24.213833 24.974903 
L 24.2655 24.930703 
L 24.322333 24.99167 
L 24.441167 24.974139 
L 24.446333 24.95342 
L 24.570333 24.934951 
L 24.580667 24.947885 
L 24.611667 24.929782 
L 24.725333 24.994615 
L 24.746 24.96413 
L 24.782167 25.026807 
L 24.828667 25.017218 
L 24.9475 25.070011 
L 25.097333 24.908676 
L 25.138667 24.930296 
L 25.236833 24.983063 
L 25.18 24.897446 
L 25.2575 24.954347 
L 25.360833 24.817361 
L 25.386667 24.828414 
L 25.748333 24.740657 
L 25.7535 24.760097 
L 25.949833 24.809442 
L 25.975667 24.764611 
L 26.037667 24.907515 
L 26.135833 24.795645 
L 26.203 24.841503 
L 26.208167 24.861328 
L 26.285667 24.722826 
L 26.378667 24.684739 
L 26.383833 24.676664 
L 26.430333 24.606371 
L 26.502667 24.651399 
L 26.6525 24.579761 
L 26.735167 24.549253 
L 26.673167 24.595592 
L 26.766167 24.578868 
L 26.812667 24.598151 
L 26.786833 24.558028 
L 26.848833 24.524725 
L 26.854 24.503532 
L 26.941833 24.611767 
L 27.158833 24.33719 
L 27.174333 24.366876 
L 27.236333 24.264869 
L 27.257 24.285187 
L 27.3035 24.328727 
L 27.355167 24.232608 
L 27.4585 24.133746 
L 27.505 24.186478 
L 28.373 23.904544 
L 28.460833 23.826423 
L 28.491833 23.852035 
L 28.5745 23.939067 
L 28.6055 23.884722 
L 28.6675 23.852539 
L 28.641667 23.909938 
L 28.719167 23.874405 
L 28.889667 23.833879 
L 28.905167 23.857518 
L 28.9465 23.863616 
L 28.982667 23.761676 
L 29.142833 23.524811 
L 29.153167 23.546946 
L 29.354667 23.086992 
L 29.478667 21.246061 
L 29.499333 10.165091 
L 29.587167 20.894951 
L 29.623333 25.513784 
L 29.706 25.018084 
L 29.948833 23.39331 
L 30.083167 21.708799 
L 30.109 10.833689 
L 30.191667 20.286234 
L 30.227833 26.062234 
L 30.315667 25.496354 
L 30.729 21.214664 
L 30.749667 10.873112 
L 30.8375 21.464466 
L 30.873667 26.265779 
L 30.956333 25.744254 
L 31.225 23.849272 
L 31.411 21.857103 
L 31.4265 17.239419 
L 31.436833 10.728628 
L 31.529833 22.884217 
L 31.560833 26.435589 
L 31.6435 25.987539 
L 31.974167 23.874788 
L 32.196333 21.902986 
L 32.211833 19.154503 
L 32.222167 10.730869 
L 32.315167 23.344462 
L 32.346167 26.493856 
L 32.428833 26.050645 
L 32.7595 24.166357 
L 32.800833 23.984416 
L 33.085 20.963682 
L 33.1005 10.716186 
L 33.188333 21.752768 
L 33.2245 26.525693 
L 33.307167 26.113567 
L 33.792833 23.688535 
L 34.066667 22.112113 
L 34.0925 17.990021 
L 34.102833 10.664438 
L 34.195833 25.46636 
L 34.221667 26.503696 
L 34.3095 26.059722 
L 34.702167 24.194861 
L 34.733167 24.095554 
L 35.1775 21.895396 
L 35.198167 16.733256 
L 35.2085 10.625824 
L 35.296333 24.945501 
L 35.327333 26.476863 
L 35.41 26.058043 
L 35.709667 24.67807 
L 35.937 23.893763 
L 35.9835 23.801176 
L 36.443333 22.298383 
L 36.4795 21.151862 
L 36.500167 10.726625 
L 36.577667 21.968791 
L 36.613833 26.379573 
L 36.6965 25.968906 
L 36.784333 25.520694 
L 37.063333 24.370736 
L 37.6265 23.156855 
L 37.631667 23.174803 
L 37.693667 23.011546 
L 37.915833 22.079234 
L 37.941667 20.591311 
L 37.962333 10.682776 
L 38.039833 23.613393 
L 38.076 26.343464 
L 38.158667 25.897015 
L 38.566833 24.213639 
L 38.634 24.088994 
L 39.259167 23.137828 
L 39.279833 23.179748 
L 39.3625 23.096038 
L 39.419333 23.005241 
L 39.481333 23.050739 
L 39.553667 23.078888 
L 39.589833 23.047913 
L 39.6725 23.040323 
L 39.631167 23.078147 
L 39.698333 23.063654 
L 39.8275 23.191882 
L 40.333833 23.750231 
L 40.4475 23.671902 
L 40.380333 23.763103 
L 40.457833 23.703915 
L 40.809167 24.069985 
L 40.8505 24.066333 
L 40.897 24.131516 
L 40.902167 24.132299 
L 40.917667 24.124763 
L 40.964167 24.204152 
L 40.99 24.192977 
L 41.088167 24.366623 
L 41.134667 24.318953 
L 41.139833 24.311171 
L 41.186333 24.428094 
L 41.3155 24.616959 
L 41.325833 24.611793 
L 41.480833 24.794054 
L 41.61 24.797366 
L 41.765 24.990635 
L 42.007833 25.391254 
L 42.018167 25.375979 
L 42.157667 25.488084 
L 42.204167 25.418931 
L 42.2765 25.48823 
L 42.472833 25.789868 
L 42.684667 25.976478 
L 42.715667 25.93916 
L 42.751833 26.036527 
L 42.782833 26.027213 
L 42.9275 26.18626 
L 43.0205 26.288077 
L 43.232333 26.521422 
L 43.242667 26.516401 
L 43.625 26.771275 
L 43.635333 26.75059 
L 43.759333 26.645591 
L 43.7645 26.653736 
L 44.059 26.842231 
L 44.084833 26.777169 
L 44.110667 26.855512 
L 44.1675 26.844884 
L 44.3225 26.832893 
L 44.369 26.765072 
L 44.441333 26.797726 
L 44.648 26.866194 
L 44.658333 26.873686 
L 44.679 26.786966 
L 44.7255 26.787143 
L 44.746167 26.762991 
L 44.8185 26.849612 
L 45.009667 27.068054 
L 45.014833 27.050102 
L 45.102667 26.992119 
L 45.1285 27.016756 
L 45.2215 27.083783 
L 45.2525 27.05376 
L 45.464333 27.042045 
L 45.4695 27.061897 
L 45.5005 27.10189 
L 45.572833 27.032885 
L 45.758833 27.102117 
L 45.598667 26.981245 
L 45.774333 27.066609 
L 45.9035 27.01258 
L 45.913833 27.056371 
L 45.960333 27.100795 
L 46.001667 27.01306 
L 46.012 27.016828 
L 46.1205 26.938119 
L 46.037833 27.057314 
L 46.130833 26.953819 
L 46.187667 26.941796 
L 46.2135 26.882811 
L 46.342667 26.814389 
L 46.497667 26.805071 
L 46.637167 26.629319 
L 46.663 26.666256 
L 46.766333 26.776667 
L 46.812833 26.701723 
L 46.921333 26.737365 
L 46.9265 26.76349 
L 47.024667 26.77721 
L 47.040167 26.770939 
L 47.071167 26.758046 
L 47.1125 26.840915 
L 47.138333 26.822623 
L 47.6085 26.816507 
L 47.649833 26.833349 
L 47.722167 26.803769 
L 47.861667 26.863453 
L 47.872 26.845816 
L 48.006333 26.813764 
L 47.892667 26.871808 
L 48.027 26.835313 
L 48.858833 27.070528 
L 48.874333 27.021962 
L 48.988 26.924704 
L 49.029333 26.991498 
L 49.1275 27.078781 
L 49.075833 26.981248 
L 49.148167 27.05948 
L 49.1585 27.047199 
L 49.210167 27.166506 
L 49.215333 27.183305 
L 49.277333 27.099149 
L 49.3135 27.132588 
L 49.411667 27.082703 
L 49.427167 27.134715 
L 49.546 27.237623 
L 49.577 27.216224 
L 49.7475 27.271724 
L 49.98 27.392419 
L 49.768167 27.236334 
L 50.000667 27.364355 
L 50.1195 27.289706 
L 50.140167 27.313281 
L 50.5535 27.35151 
L 50.620667 27.305305 
L 50.662 27.339299 
L 50.7705 27.308467 
L 50.775667 27.318468 
L 50.806667 27.369126 
L 50.853167 27.296718 
L 50.884167 27.318316 
L 51.008167 27.392363 
L 50.904833 27.27491 
L 51.0185 27.375616 
L 51.132167 27.318636 
L 51.147667 27.32664 
L 51.302667 27.350627 
L 51.318167 27.327609 
L 51.416333 27.330174 
L 51.385333 27.391503 
L 51.426667 27.347398 
L 52.2585 27.325206 
L 52.3825 27.297606 
L 52.315333 27.373766 
L 52.387667 27.306691 
L 52.522 27.374598 
L 52.620167 27.303945 
L 52.640833 27.333109 
L 52.790667 27.333142 
L 52.801 27.350011 
L 52.925 27.317672 
L 53.049 27.37631 
L 53.059333 27.347631 
L 53.147167 27.269624 
L 53.074833 27.353018 
L 53.167833 27.362219 
L 53.271167 27.350274 
L 53.198833 27.327734 
L 53.2815 27.331152 
L 53.297 27.281628 
L 53.384833 27.371104 
L 53.426167 27.364385 
L 53.4675 27.304776 
L 53.477833 27.325663 
L 53.581167 27.298869 
L 53.503667 27.35463 
L 53.601833 27.318862 
L 53.617333 27.34853 
L 53.7155 27.360793 
L 53.725833 27.372102 
L 53.741333 27.303712 
L 53.813667 27.317816 
L 53.886 27.3771 
L 53.927333 27.317794 
L 54.077167 27.298858 
L 54.082333 27.276895 
L 54.097833 27.344651 
L 54.185667 27.310307 
L 54.2115 27.380846 
L 54.309667 27.322569 
L 55.678833 27.332909 
L 55.756333 27.387962 
L 55.725333 27.314247 
L 55.787333 27.328764 
L 55.8855 27.305671 
L 55.833833 27.372725 
L 55.901 27.312953 
L 56.030167 27.333844 
L 56.247167 27.315656 
L 56.2575 27.339692 
L 57.828167 27.364733 
L 57.905667 27.371856 
L 57.921167 27.304615 
L 57.926333 27.308225 
L 58.019333 27.338934 
L 57.941833 27.292255 
L 58.045167 27.276916 
L 58.0555 27.313809 
L 58.215667 27.339565 
L 58.231167 27.311218 
L 58.3345 27.307429 
L 58.453333 27.27748 
L 58.401667 27.340438 
L 58.4585 27.279425 
L 58.479167 27.331945 
L 58.572167 27.296982 
L 58.685833 27.230053 
L 58.696167 27.241122 
L 58.784 27.340444 
L 58.820167 27.275876 
L 58.933833 27.283954 
L 58.856333 27.325037 
L 58.939 27.301584 
L 59.088833 27.33721 
L 59.099167 27.316776 
L 59.28 27.249088 
L 59.119833 27.348509 
L 59.290333 27.266628 
L 59.383333 27.307015 
L 59.316167 27.250579 
L 59.409167 27.274301 
L 59.455667 27.204115 
L 59.507333 27.29923 
L 59.517667 27.288042 
L 59.538333 27.325972 
L 59.579667 27.226535 
L 59.610667 27.232745 
L 59.631333 27.261721 
L 59.745 27.218986 
L 59.858667 27.298077 
L 59.879333 27.262797 
L 60.137667 27.306853 
L 60.142833 27.296582 
L 60.235833 27.234094 
L 60.184167 27.326755 
L 60.272 27.267347 
L 60.432167 27.289608 
L 60.437333 27.266253 
L 60.540667 27.238304 
L 60.494167 27.306554 
L 60.545833 27.258314 
L 60.654333 27.383918 
L 60.680167 27.354571 
L 60.737 27.278884 
L 60.799 27.326201 
L 61.165833 27.243271 
L 61.171 27.264536 
L 61.289833 27.340985 
L 61.388 27.414096 
L 61.408667 27.389744 
L 61.630833 27.253447 
L 61.636 27.261312 
L 62.080333 27.159627 
L 62.090667 27.102783 
L 62.183667 27.184114 
L 62.4575 27.14131 
L 62.586667 27.075937 
L 62.721 27.113528 
L 62.628 27.052858 
L 62.726167 27.107187 
L 62.808833 27.031887 
L 62.834667 27.134803 
L 62.9225 27.134778 
L 62.938 27.087593 
L 63.010333 27.124154 
L 63.056833 27.089138 
L 63.0775 27.117531 
L 63.129167 27.000524 
L 63.2015 26.847592 
L 63.268667 26.92771 
L 63.382333 27.026168 
L 63.392667 27.018017 
L 63.9765 27.100332 
L 64.033333 27.155729 
L 64.1005 27.107861 
L 64.1625 27.10729 
L 64.188333 27.039159 
L 64.446667 26.85671 
L 64.55 26.912596 
L 64.570667 26.89339 
L 64.710167 26.865708 
L 64.715333 26.882762 
L 64.798 26.880964 
L 64.736 26.874247 
L 64.818667 26.852115 
L 65.542 26.538847 
L 65.562667 26.593043 
L 65.660833 26.661535 
L 65.583333 26.578799 
L 65.6815 26.613539 
L 65.857167 26.490804 
L 65.914 26.547485 
L 65.939833 26.452725 
L 65.950167 26.467238 
L 65.9915 26.478066 
L 66.079333 26.331653 
L 67.009333 26.323599 
L 67.143667 26.166657 
L 67.257333 26.205724 
L 67.283167 26.167875 
L 67.4175 26.078253 
L 67.557 26.065076 
L 67.438167 26.10374 
L 67.567333 26.096213 
L 67.753333 26.036199 
L 67.815333 26.015057 
L 67.841167 26.058361 
L 67.867 26.035847 
L 67.887667 26.064226 
L 67.9445 25.963741 
L 67.949667 25.967383 
L 68.073667 25.872675 
L 68.109833 25.910872 
L 68.171833 25.96583 
L 68.218333 25.902537 
L 68.879667 25.782047 
L 69.008833 25.749297 
L 69.138 25.679586 
L 69.272333 25.580696 
L 69.411833 25.627635 
L 69.546167 25.588744 
L 69.561667 25.629176 
L 69.603 25.652379 
L 69.644333 25.574319 
L 69.659833 25.597091 
L 69.737333 25.5118 
L 69.783833 25.551751 
L 69.861333 25.600445 
L 69.887167 25.528874 
L 70.057667 25.426202 
L 70.062833 25.436707 
L 70.223 25.60967 
L 70.233333 25.587205 
L 70.290167 25.672579 
L 70.326333 25.650507 
L 70.357333 25.685967 
L 70.4245 25.6152 
L 70.584667 25.474291 
L 70.708667 25.39542 
L 70.853333 25.346577 
L 70.8585 25.355682 
L 70.868833 25.345511 
L 70.998 25.360037 
L 71.127167 25.254913 
L 71.2925 25.293838 
L 71.302833 25.268943 
L 71.4165 25.24037 
L 71.37 25.285636 
L 71.421667 25.244546 
L 71.618 25.227696 
L 71.623167 25.205938 
L 71.762667 25.047932 
L 71.824667 25.075034 
L 71.860833 25.007805 
L 71.9745 24.89491 
L 71.995167 24.933914 
L 72.134667 25.059215 
L 72.150167 25.003736 
L 72.336167 24.942997 
L 72.3465 24.963269 
L 72.413667 25.056563 
L 72.460167 24.962379 
L 72.553167 24.954723 
L 72.480833 24.926952 
L 72.568667 24.93957 
L 72.8115 24.939844 
L 72.816667 24.978112 
L 72.821833 25.005373 
L 72.9045 24.864698 
L 73.013 24.817227 
L 73.235167 24.650316 
L 73.261 24.702911 
L 73.3075 24.658087 
L 73.426333 24.76593 
L 73.529667 24.801428 
L 73.436667 24.784153 
L 73.534833 24.809495 
L 73.602 24.831738 
L 73.633 24.768125 
L 73.798333 24.626209 
L 73.8345 24.674249 
L 74.149667 24.555342 
L 74.289167 24.516325 
L 74.1755 24.574629 
L 74.294333 24.522472 
L 74.583667 24.734207 
L 74.604333 24.712176 
L 74.7025 24.64259 
L 74.7335 24.671808 
L 74.749 24.649768 
L 74.852333 24.672594 
L 74.940167 24.701651 
L 74.867833 24.702172 
L 74.9505 24.720131 
L 75.064167 24.807153 
L 75.079667 24.795178 
L 75.1365 24.730386 
L 75.188167 24.78378 
L 75.2915 24.682389 
L 75.3225 24.709504 
L 75.5395 24.604346 
L 75.668667 24.694018 
L 75.673833 24.678925 
L 75.715167 24.711933 
L 75.7875 24.665739 
L 75.859833 24.690361 
L 75.834 24.633148 
L 75.890833 24.638391 
L 76.118167 24.467267 
L 76.6245 24.278298 
L 76.712333 24.1863 
L 76.743333 24.208634 
L 76.888 24.270712 
L 76.898333 24.264114 
L 77.079167 24.164494 
L 77.125667 24.177698 
L 77.172167 24.10128 
L 77.301333 24.085243 
L 77.3065 24.101549 
L 77.508 23.980145 
L 77.5545 23.837441 
L 77.632 23.870337 
L 77.642333 23.876218 
L 77.668167 23.794737 
L 77.699167 23.795425 
L 77.998833 23.457495 
L 78.097 23.35602 
L 78.107333 23.367005 
L 78.350167 22.491316 
L 78.3915 20.819386 
L 78.412167 10.20307 
L 78.494833 20.776334 
L 78.531 25.411952 
L 78.618833 24.906241 
L 78.985667 21.646474 
L 79.006333 10.829004 
L 79.094167 20.526517 
L 79.130333 26.028836 
L 79.218167 25.47714 
L 79.590167 22.55473 
L 79.626333 21.290261 
L 79.647 10.842193 
L 79.734833 21.145546 
L 79.765833 26.278801 
L 79.853667 25.773794 
L 80.308333 22.31588 
L 80.334167 20.640152 
L 80.349667 10.737279 
L 80.4375 21.014718 
L 80.473667 26.406392 
L 80.556333 25.939992 
L 80.7475 24.7279 
L 81.031667 22.872817 
L 81.093667 22.171511 
L 81.114333 20.562212 
L 81.129833 10.667432 
L 81.217667 21.624552 
L 81.253833 26.500845 
L 81.3365 26.071383 
L 81.780833 23.600705 
L 81.9875 22.07996 
L 82.008167 19.792906 
L 82.023667 10.660551 
L 82.1115 23.747746 
L 82.1425 26.533908 
L 82.225167 26.102608 
L 82.9795 22.149852 
L 83.005333 18.802298 
L 83.020833 10.669855 
L 83.108667 24.99484 
L 83.1345 26.54802 
L 83.222333 26.103653 
L 83.2585 25.935902 
L 83.584 24.457807 
L 83.589167 24.461321 
L 83.609833 24.354721 
L 84.116167 22.582653 
L 84.173 21.309431 
L 84.193667 10.654404 
L 84.276333 22.428068 
L 84.3125 26.479585 
L 84.395167 26.068597 
L 84.462333 25.701913 
L 84.824 24.232096 
L 84.979 23.742323 
L 85.216667 23.262428 
L 85.289 23.088018 
L 85.537 21.687059 
L 85.557667 14.302179 
L 85.568 10.693741 
L 85.650667 24.925454 
L 85.681667 26.372103 
L 85.764333 25.948916 
L 85.981333 24.861325 
L 86.405 23.702762 
L 86.410167 23.711393 
L 86.4205 23.72031 
L 86.4825 23.612498 
L 86.673667 23.124389 
L 86.715 23.14893 
L 86.720167 23.160378 
L 86.787333 23.041874 
L 86.7925 23.052627 
L 87.18 21.935359 
L 87.205833 18.773771 
L 87.221333 10.779605 
L 87.304 25.238591 
L 87.329833 26.221102 
L 87.417667 25.759784 
L 87.650167 24.637465 
L 87.867167 23.973091 
L 87.887833 23.992379 
L 87.913667 23.884412 
L 88.130667 23.50527 
L 88.502667 23.136602 
L 88.507833 23.141355 
L 89.009 23.339232 
L 89.355167 23.755633 
L 89.3965 23.720958 
L 89.406833 23.703273 
L 89.484333 23.794412 
L 89.4895 23.77262 
L 89.680667 24.001721 
L 89.685833 23.993101 
L 89.959667 24.215211 
L 90.471167 24.609727 
L 90.507333 24.573707 
L 90.5435 24.648721 
L 90.579667 24.636254 
L 90.719167 24.749417 
L 90.734667 24.721135 
L 90.781167 24.819336 
L 90.9465 25.006705 
L 91.985 26.26418 
L 92.098667 26.409147 
L 92.109 26.405125 
L 92.5585 26.833065 
L 92.615333 26.766461 
L 92.6515 26.741982 
L 92.687667 26.839829 
L 92.708333 26.826949 
L 92.734167 26.784855 
L 92.842667 26.857326 
L 93.194 26.879071 
L 93.287 26.830656 
L 93.318 26.850001 
L 93.473 26.994435 
L 93.478167 26.976239 
L 93.6125 26.922471 
L 93.803667 26.890988 
L 93.814 26.911524 
L 93.896667 26.933817 
L 93.8295 26.879904 
L 93.932833 26.880509 
L 94.051667 26.852417 
L 94.056833 26.856945 
L 94.1705 26.97696 
L 94.186 26.969829 
L 94.299667 27.000952 
L 94.304833 26.993267 
L 94.341 26.953418 
L 94.4185 26.986135 
L 94.599333 27.071367 
L 94.434 26.968365 
L 94.6045 27.062282 
L 94.707833 27.060544 
L 94.656167 27.114327 
L 94.718167 27.072794 
L 94.754333 27.15918 
L 94.837 27.079025 
L 94.986833 26.924132 
L 94.992 26.93481 
L 95.1005 26.93816 
L 95.105667 26.919337 
L 95.245167 26.786141 
L 95.2555 26.818445 
L 95.307167 26.895248 
L 95.3795 26.791223 
L 95.488 26.788876 
L 95.498333 26.803565 
L 95.55 26.825304 
L 95.606833 26.787101 
L 95.6275 26.752959 
L 95.668833 26.852319 
L 95.705 26.836882 
L 96.133833 26.825046 
L 96.159667 26.809057 
L 96.268167 26.929577 
L 96.381833 26.917839 
L 96.469667 26.979313 
L 96.4955 26.924021 
L 96.614333 26.915272 
L 96.624667 26.890748 
L 96.831333 26.926041 
L 96.965667 26.973741 
L 96.841667 26.909543 
L 96.970833 26.953653 
L 97.089667 26.94827 
L 97.291167 27.095754 
L 97.1775 26.89278 
L 97.296333 27.086689 
L 97.368667 27.088733 
L 97.311833 27.113203 
L 97.3945 27.131841 
L 97.4875 27.214236 
L 97.41 27.113646 
L 97.523667 27.19657 
L 97.627 27.038393 
L 97.652833 27.095083 
L 97.7665 27.162889 
L 97.683833 27.071676 
L 97.787167 27.135003 
L 97.792333 27.124823 
L 97.844 27.224612 
L 97.880167 27.196089 
L 98.4175 27.32849 
L 98.422667 27.283721 
L 98.5105 27.294355 
L 98.469167 27.345727 
L 98.526 27.318934 
L 98.551833 27.364143 
L 98.686167 27.32386 
L 98.732667 27.299056 
L 98.805 27.342469 
L 98.903167 27.322339 
L 98.9135 27.347766 
L 98.954833 27.301054 
L 99.027167 27.335326 
L 99.233833 27.331245 
L 99.306167 27.316211 
L 99.290667 27.349221 
L 99.3475 27.336923 
L 99.3785 27.315638 
L 99.4715 27.334822 
L 99.58 27.307929 
L 99.590333 27.316494 
L 99.729833 27.281442 
L 99.600667 27.325626 
L 99.740167 27.304504 
L 99.879667 27.382128 
L 99.900333 27.334681 
L 99.972667 27.267423 
L 100.019167 27.353663 
L 100.065667 27.281129 
L 100.148333 27.337564 
L 100.272333 27.311081 
L 100.2775 27.315655 
L 100.3395 27.361845 
L 100.3085 27.287009 
L 100.386 27.316968 
L 100.391167 27.29793 
L 100.422167 27.386634 
L 100.489333 27.345483 
L 104.948167 27.373038 
L 105.046333 27.375917 
L 104.979167 27.302523 
L 105.061833 27.358516 
L 105.216833 27.25958 
L 105.242667 27.322782 
L 105.495833 27.325551 
L 105.557833 27.368404 
L 105.5165 27.30803 
L 105.604333 27.331009 
L 105.712833 27.289612 
L 105.630167 27.358157 
L 105.7335 27.315415 
L 105.738667 27.344174 
L 105.769667 27.292209 
L 105.842 27.308912 
L 105.960833 27.273088 
L 105.883333 27.364709 
L 105.971167 27.278989 
L 106.095167 27.293658 
L 106.1055 27.281364 
L 106.115833 27.255904 
L 106.188167 27.341154 
L 106.1985 27.336669 
L 106.312167 27.330874 
L 106.317333 27.319949 
L 106.524 27.327733 
L 106.642833 27.247217 
L 106.648 27.266111 
L 106.71 27.378928 
L 106.792667 27.327444 
L 106.8185 27.302792 
L 106.875333 27.378689 
L 106.901167 27.338789 
L 106.989 27.277559 
L 106.994167 27.261905 
L 107.076833 27.354116 
L 107.092333 27.305495 
L 107.169833 27.347697 
L 107.206 27.320966 
L 107.304167 27.330384 
L 107.268 27.353294 
L 107.3145 27.342592 
L 107.371333 27.271361 
L 107.433333 27.338099 
L 107.846667 27.330809 
L 107.851833 27.362562 
L 107.919 27.300472 
L 107.975833 27.34659 
L 108.0585 27.2762 
L 108.105 27.307179 
L 108.125667 27.289602 
L 108.229 27.363895 
L 108.373667 27.310047 
L 108.471833 27.319739 
L 108.389167 27.30239 
L 108.487333 27.308281 
L 108.508 27.279008 
L 108.564833 27.344384 
L 108.595833 27.325231 
L 108.735333 27.259137 
L 108.626833 27.377531 
L 108.7405 27.276094 
L 108.869667 27.302604 
L 108.874833 27.335474 
L 108.947167 27.361359 
L 108.973 27.290599 
L 109.0505 27.310822 
L 108.998833 27.323395 
L 109.071167 27.330735 
L 109.200333 27.36716 
L 109.505167 27.2894 
L 109.5155 27.276401 
L 109.567167 27.339967 
L 109.598167 27.333341 
L 109.696333 27.383245 
L 109.722167 27.36764 
L 109.8255 27.293545 
L 109.846167 27.311132 
L 109.970167 27.320818 
L 110.0115 27.356953 
L 110.047667 27.278054 
L 110.078667 27.309315 
L 110.249167 27.282317 
L 110.2595 27.305716 
L 110.326667 27.338386 
L 110.368 27.296172 
L 110.5075 27.269827 
L 111.0655 27.299783 
L 111.086167 27.332165 
L 111.1585 27.224081 
L 111.303167 27.313051 
L 111.3135 27.290923 
L 111.494333 27.263313 
L 111.4995 27.281446 
L 111.551167 27.365445 
L 111.613167 27.302758 
L 111.721667 27.260697 
L 111.737167 27.275028 
L 112.005833 27.290943 
L 112.0575 27.369746 
L 112.114333 27.291084 
L 112.687833 27.15864 
L 112.765333 27.13017 
L 112.744667 27.097703 
L 112.780833 27.11787 
L 112.884167 27.069879 
L 112.822167 27.133775 
L 112.904833 27.080701 
L 112.920333 27.054946 
L 112.961667 27.156713 
L 113.008167 27.12205 
L 113.137333 27.159851 
L 113.256167 27.006695 
L 113.307833 27.044757 
L 113.3285 27.069412 
L 113.395667 26.991468 
L 113.400833 26.983245 
L 113.442167 27.060333 
L 113.473167 27.073041 
L 113.6385 27.158622 
L 113.9175 27.072822 
L 113.927833 27.096195 
L 114.005333 27.007041 
L 114.015667 27.023102 
L 114.170667 26.875289 
L 114.181 26.891788 
L 114.325667 26.963361 
L 114.330833 26.956611 
L 114.4135 26.850091 
L 114.449667 26.879156 
L 114.5995 26.982132 
L 114.604667 26.969696 
L 114.702833 26.960589 
L 114.728667 26.997116 
L 114.852667 27.07332 
L 114.987 26.856423 
L 115.08 26.835389 
L 115.105833 26.881778 
L 115.2815 26.948162 
L 115.286667 26.937864 
L 115.3125 26.985939 
L 115.400333 26.9352 
L 115.452 27.031637 
L 115.514 26.963542 
L 115.617333 26.950297 
L 115.638 26.912161 
L 115.865333 26.789172 
L 115.886 26.834634 
L 115.896333 26.863925 
L 115.968667 26.785781 
L 115.989333 26.818831 
L 116.175333 26.70563 
L 116.1805 26.710926 
L 116.268333 26.64517 
L 116.2735 26.614305 
L 116.3665 26.681693 
L 116.376833 26.654159 
L 116.4905 26.702109 
L 116.433667 26.630336 
L 116.500833 26.690278 
L 116.774667 26.564486 
L 116.779833 26.57659 
L 116.8315 26.575778 
L 116.872833 26.519724 
L 117.105333 26.490439 
L 117.1415 26.537164 
L 117.198333 26.415248 
L 117.322333 26.3813 
L 117.213833 26.433903 
L 117.3275 26.384327 
L 117.441167 26.343699 
L 117.5755 26.210923 
L 117.585833 26.23365 
L 117.642667 26.266312 
L 117.611667 26.220466 
L 117.689167 26.198053 
L 117.751167 26.114908 
L 117.839 26.102468 
L 117.787333 26.148136 
L 117.8545 26.149362 
L 117.864833 26.120082 
L 117.937167 26.074311 
L 118.076667 25.918028 
L 118.081833 25.930695 
L 118.18 25.912423 
L 118.092167 25.90949 
L 118.185167 25.908817 
L 118.221333 25.856342 
L 118.267833 25.938721 
L 118.293667 25.90812 
L 118.386667 25.999498 
L 118.4125 25.949892 
L 118.851667 25.70108 
L 118.856833 25.735551 
L 118.882667 25.765496 
L 118.913667 25.687781 
L 118.960167 25.710989 
L 119.409667 25.711696 
L 119.4975 25.753384 
L 119.523333 25.683243 
L 119.657667 25.506129 
L 119.699 25.526867 
L 120.313833 25.257408 
L 120.375833 25.18385 
L 120.448167 25.241598 
L 120.6755 25.215917 
L 120.778833 25.176924 
L 120.789167 25.211911 
L 120.804667 25.233785 
L 120.840833 25.147953 
L 120.8925 25.176237 
L 121.032 25.063327 
L 121.156 25.061436 
L 121.063 24.995159 
L 121.161167 25.042155 
L 121.435 24.926568 
L 121.553833 25.045705 
L 121.559 25.036924 
L 121.714 25.127064 
L 121.838 25.086083 
L 121.863833 25.103107 
L 121.889667 25.026211 
L 121.931 25.040948 
L 122.013667 24.984851 
L 121.982667 25.051294 
L 122.049833 25.003459 
L 122.334 24.935219 
L 122.339167 24.89968 
L 122.4115 25.001098 
L 122.437333 24.984615 
L 122.452833 25.014125 
L 122.525167 24.947584 
L 122.551 24.98512 
L 122.592333 24.972242 
L 122.638833 25.020161 
L 122.654333 25.024075 
L 122.680167 25.059305 
L 122.762833 24.982167 
L 122.917833 24.904925 
L 122.8145 25.022449 
L 122.923 24.911648 
L 122.985 24.890864 
L 122.9695 24.853855 
L 123.005667 24.852952 
L 123.119333 24.713638 
L 123.160667 24.75396 
L 123.346667 24.874504 
L 123.191667 24.687577 
L 123.351833 24.857276 
L 123.475833 24.928252 
L 123.574 24.997967 
L 123.5895 24.973578 
L 123.599833 24.934858 
L 123.646333 25.031479 
L 123.703167 24.966246 
L 123.811667 24.927811 
L 123.827167 24.949349 
L 123.9615 25.038294 
L 123.971833 25.003086 
L 124.0235 24.902097 
L 124.095833 24.949165 
L 124.225 25.01435 
L 124.374833 24.955242 
L 124.374833 24.955242 
" style="fill:none;stroke:#000000;stroke-linecap:square;stroke-width:0.3;"/>
   </g>
   <g id="line2d_2">
    <path clip-path="url(#p569f00caac)" d="M 12.78 47.610033 
L 12.893667 47.580628 
L 12.805833 47.623059 
L 12.904 47.593628 
L 12.9195 47.602759 
L 12.960833 47.527382 
L 12.991833 47.525436 
L 13.276 47.597559 
L 13.281167 47.582002 
L 13.338 47.521219 
L 13.405167 47.574332 
L 13.534333 47.611187 
L 13.544667 47.65935 
L 13.622167 47.583934 
L 13.648 47.639828 
L 14.397167 47.490604 
L 14.402333 47.47276 
L 14.454 47.572043 
L 14.490167 47.554914 
L 15.198 47.59494 
L 15.2445 47.611505 
L 15.223833 47.569591 
L 15.291 47.540403 
L 15.931667 47.551079 
L 15.962667 47.521468 
L 16.024667 47.610488 
L 16.128 47.55958 
L 16.252 47.522112 
L 16.365667 47.538247 
L 16.381167 47.511232 
L 16.479333 47.458067 
L 16.401833 47.540211 
L 16.505167 47.495509 
L 17.471333 47.552963 
L 17.517833 47.531246 
L 17.590167 47.569478 
L 17.714167 47.528216 
L 17.734833 47.478852 
L 17.822667 47.548581 
L 17.900167 47.45621 
L 17.833 47.553636 
L 17.962167 47.508669 
L 18.060333 47.528908 
L 18.081 47.578318 
L 18.36 47.511743 
L 18.458167 47.526668 
L 18.432333 47.553099 
L 18.463333 47.531769 
L 18.478833 47.562289 
L 18.5615 47.486089 
L 18.566667 47.49844 
L 18.706167 47.419172 
L 18.721667 47.450944 
L 18.732 47.430637 
L 18.8715 47.569252 
L 18.887 47.547883 
L 19.031667 47.617584 
L 19.098833 47.548572 
L 19.145333 47.593197 
L 19.248667 47.499711 
L 19.279667 47.540383 
L 19.29 47.575794 
L 19.346833 47.505167 
L 19.383 47.513715 
L 19.496667 47.480041 
L 19.5225 47.508404 
L 20.333667 47.430456 
L 20.426667 47.413773 
L 20.442167 47.453591 
L 20.612667 47.578039 
L 21.485833 47.51879 
L 21.615 47.587041 
L 21.620167 47.573983 
L 21.702833 47.508562 
L 21.6615 47.585799 
L 21.733833 47.560215 
L 22.322833 47.546405 
L 22.431333 47.573858 
L 22.446833 47.565405 
L 22.472667 47.609985 
L 22.601833 47.498208 
L 22.767167 47.453184 
L 22.818833 47.456202 
L 22.855 47.521058 
L 22.979 47.55215 
L 23.103 47.485506 
L 23.201167 47.464163 
L 23.227 47.538311 
L 23.847 47.52239 
L 23.960667 47.423312 
L 23.981333 47.445658 
L 24.1105 47.554257 
L 24.229333 47.605452 
L 24.343 47.510782 
L 24.374 47.540028 
L 24.534167 47.510694 
L 24.580667 47.466092 
L 24.647833 47.50837 
L 24.782167 47.546197 
L 24.8855 47.478885 
L 24.7925 47.555678 
L 24.901 47.516955 
L 24.983667 47.611941 
L 25.025 47.559684 
L 25.174833 47.489447 
L 25.18 47.494107 
L 25.335 47.525077 
L 25.216167 47.413119 
L 25.3505 47.474975 
L 25.397 47.434403 
L 25.453833 47.517594 
L 25.577833 47.411631 
L 25.484833 47.542799 
L 25.5985 47.431036 
L 25.836167 47.503284 
L 25.898167 47.492443 
L 25.872333 47.520053 
L 25.944667 47.525771 
L 26.068667 47.563038 
L 26.073833 47.553386 
L 26.130667 47.51018 
L 26.197833 47.552607 
L 26.254667 47.567922 
L 26.296 47.514388 
L 26.399333 47.441852 
L 26.414833 47.493492 
L 26.430333 47.471948 
L 26.538833 47.521705 
L 26.595667 47.464387 
L 26.6525 47.504107 
L 26.724833 47.449673 
L 26.7765 47.530485 
L 26.916 47.554389 
L 27.009 47.568421 
L 27.0245 47.524295 
L 27.112333 47.498251 
L 27.04 47.535064 
L 27.133 47.545261 
L 27.567 47.451027 
L 27.623833 47.399439 
L 27.722 47.531588 
L 27.913167 47.557236 
L 27.918333 47.537087 
L 28.0475 47.541109 
L 28.057833 47.562654 
L 28.145667 47.572926 
L 28.1715 47.509214 
L 28.311 47.458472 
L 28.321333 47.494361 
L 28.522833 47.504342 
L 28.528 47.484666 
L 28.631333 47.465304 
L 28.6055 47.535847 
L 28.652 47.492816 
L 28.796667 47.586323 
L 28.801833 47.573216 
L 29.0395 47.529757 
L 29.0705 47.481809 
L 29.117 47.611214 
L 29.137667 47.583051 
L 29.142833 47.596581 
L 29.204833 47.470091 
L 29.21 47.470468 
L 29.251333 47.404932 
L 29.303 47.510569 
L 29.313333 47.507119 
L 29.489 47.505091 
L 29.494167 47.51935 
L 30.083167 47.560394 
L 30.129667 47.493084 
L 30.1865 47.577669 
L 30.300167 47.629196 
L 30.305333 47.604688 
L 30.537833 47.526935 
L 30.610167 47.602212 
L 30.553333 47.508061 
L 30.661833 47.579277 
L 30.708333 47.59875 
L 30.749667 47.538149 
L 30.765167 47.546899 
L 30.889167 47.529239 
L 30.997667 47.446125 
L 31.013167 47.45707 
L 31.183667 47.445824 
L 31.188833 47.462092 
L 31.323167 47.49287 
L 31.483333 47.453858 
L 31.504 47.49303 
L 31.545333 47.530562 
L 31.597 47.43454 
L 31.7365 47.458192 
L 31.752 47.416413 
L 31.834667 47.347844 
L 31.876 47.41863 
L 31.886333 47.441341 
L 31.963833 47.353188 
L 32.062 47.289536 
L 32.087833 47.304654 
L 32.1705 47.342486 
L 32.196333 47.290246 
L 32.315167 47.239063 
L 32.206667 47.295262 
L 32.3255 47.262357 
L 32.537333 47.280131 
L 32.5425 47.255341 
L 32.62 47.203752 
L 32.558 47.262372 
L 32.656167 47.259883 
L 32.702667 47.248015 
L 32.754333 47.284749 
L 32.7905 47.338961 
L 32.8215 47.261477 
L 32.868 47.296671 
L 33.147 47.027554 
L 33.260667 47.096624 
L 33.265833 47.066199 
L 33.322667 47.008128 
L 33.364 47.103718 
L 33.467333 47.176334 
L 33.493167 47.139966 
L 33.5345 47.122352 
L 33.524167 47.16167 
L 33.591333 47.159651 
L 33.622333 47.184357 
L 33.694667 47.128855 
L 33.736 47.092363 
L 33.777333 47.179156 
L 33.798 47.155964 
L 33.880667 47.31615 
L 33.922 47.252159 
L 34.020167 47.128677 
L 34.056333 47.154528 
L 34.118333 47.099775 
L 34.1235 47.075739 
L 34.133833 47.049157 
L 34.190667 47.116305 
L 34.232 47.085844 
L 34.4955 46.868651 
L 34.536833 46.931841 
L 34.583333 46.980218 
L 34.645333 46.923311 
L 34.800333 46.789911 
L 35.079333 46.759798 
L 35.203333 46.80562 
L 35.435833 46.596428 
L 35.523667 46.604274 
L 35.503 46.546973 
L 35.5495 46.583497 
L 35.647667 46.645039 
L 35.745833 46.695186 
L 35.761333 46.657176 
L 35.880167 46.51772 
L 35.9215 46.566002 
L 36.0145 46.625048 
L 36.0455 46.567747 
L 36.164333 46.562878 
L 36.185 46.607661 
L 36.334833 46.65106 
L 36.216 46.549249 
L 36.34 46.630412 
L 36.639667 46.325118 
L 36.675833 46.356587 
L 36.799833 46.538843 
L 36.810167 46.533225 
L 36.991 46.398419 
L 36.996167 46.406082 
L 37.512833 46.43496 
L 37.621333 46.329028 
L 37.652333 46.346278 
L 37.683333 46.379297 
L 37.724667 46.263071 
L 37.853833 46.287396 
L 37.859 46.313758 
L 37.941667 46.229644 
L 37.952 46.231634 
L 38.081167 46.085688 
L 38.101833 46.118024 
L 38.194833 46.184368 
L 38.231 46.162912 
L 38.344667 46.198018 
L 38.479 46.356661 
L 38.489333 46.353062 
L 38.6185 46.281488 
L 38.763167 46.336535 
L 38.9905 46.1426 
L 39.0215 46.208532 
L 39.031833 46.233635 
L 39.068 46.150987 
L 39.124833 46.165351 
L 39.279833 46.253846 
L 39.166167 46.121854 
L 39.285 46.242084 
L 39.409 46.295128 
L 39.4245 46.265067 
L 39.589833 46.074023 
L 39.605333 46.024611 
L 39.677667 46.013155 
L 39.688 45.998869 
L 39.755167 46.119863 
L 39.817167 46.083116 
L 39.791333 46.04552 
L 39.832667 46.057833 
L 39.925667 46.053757 
L 39.8895 46.096399 
L 39.936 46.071573 
L 40.034167 46.137566 
L 40.06 46.125594 
L 40.1065 46.018063 
L 40.178833 46.081257 
L 40.184 46.065773 
L 40.256333 46.155138 
L 40.271833 46.142381 
L 40.364833 46.156406 
L 40.2925 46.11553 
L 40.390667 46.130223 
L 40.530167 45.977356 
L 40.628333 45.992845 
L 40.556 45.967691 
L 40.638667 45.969821 
L 40.705833 45.989748 
L 40.773 45.87714 
L 40.871167 45.889084 
L 40.829833 45.825394 
L 40.891833 45.85858 
L 41.124333 45.810965 
L 41.1295 45.818229 
L 41.2535 45.868704 
L 41.269 45.843503 
L 41.455 45.729384 
L 41.460167 45.744768 
L 41.537667 45.70953 
L 41.475667 45.778503 
L 41.568667 45.769112 
L 41.692667 45.822718 
L 41.697833 45.81943 
L 41.8115 45.785631 
L 41.728833 45.832814 
L 41.821833 45.803164 
L 41.899333 45.850402 
L 41.8425 45.786318 
L 41.940667 45.807479 
L 42.116333 45.657388 
L 42.4625 45.506578 
L 42.498667 45.575528 
L 43.087667 45.493691 
L 43.216833 45.469987 
L 43.258167 45.425392 
L 43.351167 45.467638 
L 43.490667 45.34549 
L 43.495833 45.347758 
L 43.511333 45.392389 
L 43.5785 45.285152 
L 43.599167 45.308758 
L 43.785167 45.378204 
L 43.790333 45.37117 
L 43.883333 45.34991 
L 43.852333 45.414836 
L 43.898833 45.384364 
L 44.0435 45.306127 
L 44.048667 45.32817 
L 44.157167 45.353059 
L 44.172667 45.32286 
L 44.307 45.224203 
L 44.312167 45.226718 
L 44.462 45.365826 
L 44.482667 45.335073 
L 44.591167 45.355388 
L 44.596333 45.36565 
L 44.637667 45.407365 
L 44.71 45.325486 
L 44.813333 45.208269 
L 44.947667 45.149733 
L 45.0975 45.203531 
L 45.211167 45.046345 
L 45.257667 45.08819 
L 45.371333 45.192065 
L 45.386833 45.160361 
L 45.526333 45.129679 
L 45.738167 45.12174 
L 45.753667 45.148362 
L 45.815667 45.053761 
L 45.836333 45.078617 
L 45.929333 45.03002 
L 45.944833 45.067552 
L 46.048167 45.16106 
L 46.0585 45.121455 
L 46.208333 45.074312 
L 46.249667 45.108752 
L 46.316833 45.069234 
L 46.415 45.050108 
L 46.4305 45.081789 
L 46.446 45.101952 
L 46.508 45.035539 
L 46.528667 45.031738 
L 46.761167 44.76903 
L 46.766333 44.772053 
L 46.818 44.743532 
L 46.900667 44.811157 
L 47.040167 44.733777 
L 46.921333 44.842839 
L 47.066 44.779662 
L 48.052833 44.286823 
L 48.176833 44.220895 
L 48.187167 44.247577 
L 48.244 44.163208 
L 48.275 44.186982 
L 48.337 44.105744 
L 48.399 44.13771 
L 48.450667 44.206279 
L 48.512667 44.14208 
L 48.523 44.122769 
L 48.5695 44.219334 
L 48.605667 44.2106 
L 48.616 44.238353 
L 48.672833 44.090554 
L 48.827833 44.075093 
L 48.838167 44.09547 
L 48.858833 44.111042 
L 48.889833 44.035287 
L 48.931167 44.027219 
L 49.05 43.863328 
L 49.225667 43.60098 
L 49.277333 43.526079 
L 49.308333 43.530905 
L 49.489167 43.18295 
L 49.494333 43.197919 
L 49.535667 43.084286 
L 49.649333 42.563281 
L 49.701 41.473612 
L 49.737167 31.841129 
L 49.799167 41.634466 
L 49.8405 45.008455 
L 49.923167 44.379654 
L 50.114333 42.180106 
L 50.140167 37.351725 
L 50.1505 32.363561 
L 50.238333 44.943081 
L 50.259 45.553352 
L 50.341667 44.768331 
L 50.543167 41.762679 
L 50.569 32.522798 
L 50.6465 42.096511 
L 50.672333 45.689148 
L 50.765333 44.806666 
L 50.951333 42.206097 
L 50.972 40.292802 
L 50.9875 32.597309 
L 51.070167 43.794787 
L 51.090833 45.787552 
L 51.183833 44.931127 
L 51.395667 41.433816 
L 51.416333 32.585119 
L 51.493833 41.678873 
L 51.524833 45.929345 
L 51.612667 45.14432 
L 51.850333 40.975904 
L 51.871 32.498243 
L 51.9485 42.721861 
L 51.974333 46.091422 
L 52.062167 45.387089 
L 52.315333 42.296685 
L 52.341167 38.985531 
L 52.356667 32.365468 
L 52.439333 44.619011 
L 52.465167 46.241566 
L 52.553 45.575213 
L 52.6925 44.204268 
L 52.868167 40.925901 
L 52.888833 32.199083 
L 52.966333 42.877877 
L 52.997333 46.380011 
L 53.085167 45.811164 
L 53.462333 41.013531 
L 53.483 32.109612 
L 53.5605 43.260147 
L 53.5915 46.440478 
L 53.679333 45.922262 
L 54.1185 40.967359 
L 54.139167 32.080446 
L 54.216667 43.861814 
L 54.247667 46.499618 
L 54.3355 46.000707 
L 54.836667 41.786121 
L 54.867667 32.141046 
L 54.934833 41.517529 
L 54.971 46.515899 
L 55.058833 46.061998 
L 55.394667 43.839107 
L 55.508333 43.210811 
L 55.653 41.268489 
L 55.678833 32.336186 
L 55.746 42.615849 
L 55.782167 46.43845 
L 55.864833 46.030014 
L 56.143833 44.327082 
L 56.526167 41.555592 
L 56.557167 32.646825 
L 56.619167 41.994204 
L 56.665667 46.340706 
L 56.743167 45.921075 
L 57.399333 42.31665 
L 57.4355 40.937991 
L 57.461333 32.560333 
L 57.5285 43.934864 
L 57.564667 46.376921 
L 57.647333 45.993786 
L 58.0245 43.918585 
L 58.060667 43.806594 
L 58.293167 42.995527 
L 58.308667 42.998212 
L 58.3345 42.904739 
L 58.339667 42.901153 
L 58.696167 42.398431 
L 58.7375 42.481572 
L 58.975167 43.258753 
L 58.980333 43.256854 
L 59.223167 43.172995 
L 59.228333 43.193082 
L 59.243833 43.229679 
L 59.321333 43.147419 
L 59.3265 43.168575 
L 59.409167 43.105296 
L 59.440167 43.169557 
L 59.460833 43.154326 
L 59.517667 43.246082 
L 59.522833 43.233349 
L 59.662333 43.377994 
L 59.703667 43.376452 
L 59.739833 43.443238 
L 59.894833 43.634897 
L 59.910333 43.581799 
L 59.9465 43.666462 
L 60.003333 43.639413 
L 60.184167 43.905576 
L 60.3185 44.061592 
L 60.416667 44.815402 
L 60.576833 46.910085 
L 60.737 47.178636 
L 60.742167 47.173719 
L 61.098667 47.548952 
L 61.109 47.53452 
L 61.14 47.479085 
L 61.207167 47.587383 
L 61.212333 47.562025 
L 61.858167 47.584574 
L 61.940833 47.648863 
L 61.971833 47.610735 
L 62.002833 47.64447 
L 62.157833 47.513103 
L 62.219833 47.590251 
L 62.287 47.536227 
L 62.359333 47.584773 
L 62.312833 47.623305 
L 62.369667 47.608185 
L 62.6125 47.612406 
L 62.617667 47.599804 
L 62.777833 47.505455 
L 62.783 47.53113 
L 62.932833 47.586755 
L 63.196333 47.565502 
L 63.31 47.624409 
L 63.2325 47.504455 
L 63.315167 47.614077 
L 63.454667 47.590836 
L 63.459833 47.624268 
L 63.485667 47.583253 
L 63.563167 47.585329 
L 63.614833 47.619634 
L 63.6975 47.50575 
L 63.713 47.560887 
L 63.811167 47.52512 
L 63.940333 47.563659 
L 63.9455 47.550077 
L 64.033333 47.537532 
L 63.9765 47.573791 
L 64.054 47.561886 
L 64.178 47.598616 
L 64.1935 47.578729 
L 64.6585 47.559668 
L 64.767 47.568662 
L 64.741167 47.519604 
L 64.777333 47.559588 
L 64.927167 47.546846 
L 64.958167 47.639671 
L 65.046 47.565903 
L 65.139 47.543667 
L 65.144167 47.535372 
L 65.237167 47.453342 
L 65.263 47.487841 
L 65.381833 47.599488 
L 65.2785 47.478708 
L 65.418 47.544246 
L 65.511 47.540589 
L 65.454167 47.580146 
L 65.521333 47.58269 
L 65.691833 47.525605 
L 65.697 47.535829 
L 65.722833 47.549981 
L 65.759 47.4749 
L 65.784833 47.469508 
L 65.9605 47.504913 
L 66.058667 47.533155 
L 66.079333 47.517317 
L 66.291167 47.515122 
L 66.342833 47.486685 
L 66.435833 47.578361 
L 66.528833 47.482402 
L 66.559833 47.513335 
L 66.668333 47.553308 
L 66.596 47.490348 
L 66.678667 47.513669 
L 66.745833 47.44649 
L 66.7975 47.470397 
L 66.885333 47.507425 
L 66.818167 47.451724 
L 66.911167 47.479402 
L 66.937 47.436408 
L 67.092 47.540988 
L 67.216 47.589886 
L 67.252167 47.650245 
L 67.329667 47.601693 
L 67.520833 47.50337 
L 67.526 47.548366 
L 69.654667 47.589977 
L 69.6805 47.641211 
L 69.721833 47.573254 
L 69.763167 47.592914 
L 69.887167 47.552408 
L 69.9285 47.489775 
L 69.985333 47.528507 
L 70.0835 47.435263 
L 70.109333 47.466402 
L 70.150667 47.504412 
L 70.254 47.429805 
L 70.336667 47.529027 
L 70.378 47.501773 
L 70.388333 47.493488 
L 70.450333 47.565509 
L 70.460667 47.570774 
L 70.558833 47.586805 
L 70.496833 47.535854 
L 70.569167 47.556702 
L 70.698333 47.538353 
L 70.5795 47.581419 
L 70.708667 47.580221 
L 70.770667 47.621721 
L 70.817167 47.558961 
L 70.837833 47.568526 
L 70.930833 47.558775 
L 70.946333 47.598561 
L 71.008333 47.50016 
L 71.034167 47.521637 
L 71.220167 47.483438 
L 71.225333 47.474145 
L 71.297667 47.556325 
L 71.333833 47.591537 
L 71.364833 47.529338 
L 71.406167 47.551171 
L 71.550833 47.478828 
L 71.4165 47.593437 
L 71.561167 47.492687 
L 71.705833 47.546367 
L 71.607667 47.424015 
L 71.711 47.535556 
L 71.829833 47.496111 
L 71.840167 47.510439 
L 72.103667 47.50684 
L 72.108833 47.528369 
L 72.124333 47.502526 
L 72.294833 47.526451 
L 72.465333 47.481276 
L 72.496333 47.456775 
L 72.579 47.471738 
L 73.762167 47.483712 
L 73.886167 47.437043 
L 73.8965 47.46436 
L 73.994667 47.529982 
L 74.036 47.468825 
L 74.056667 47.428836 
L 74.0825 47.515791 
L 74.129 47.521546 
L 74.180667 47.626939 
L 74.242667 47.543468 
L 74.377 47.489684 
L 74.382167 47.496202 
L 74.397667 47.473847 
L 74.511333 47.521409 
L 74.604333 47.478774 
L 74.619833 47.528071 
L 74.774833 47.576499 
L 74.630167 47.513736 
L 74.78 47.548155 
L 74.873 47.495582 
L 74.805833 47.578748 
L 74.898833 47.582666 
L 74.960833 47.612449 
L 74.929833 47.555062 
L 75.007333 47.566396 
L 75.115833 47.49157 
L 75.131333 47.507312 
L 75.172667 47.590935 
L 75.245 47.529874 
L 75.4465 47.431672 
L 75.467167 47.463316 
L 75.534333 47.490429 
L 75.575667 47.474899 
L 75.591167 47.416904 
L 75.648 47.51387 
L 75.684167 47.472258 
L 75.9735 47.496261 
L 76.025167 47.444404 
L 76.082 47.513937 
L 76.417833 47.538138 
L 76.567667 47.466885 
L 76.681333 47.563854 
L 76.7175 47.529595 
L 76.8105 47.557319 
L 76.846667 47.518866 
L 76.95 47.495049 
L 76.882833 47.549072 
L 76.9655 47.517487 
L 77.099833 47.435468 
L 77.115333 47.498727 
L 77.218667 47.541255 
L 77.2445 47.523069 
L 77.347833 47.472468 
L 77.363333 47.485086 
L 77.921333 47.507022 
L 77.9885 47.468084 
L 77.952333 47.521079 
L 78.035 47.514458 
L 78.055667 47.557093 
L 78.262333 47.518668 
L 78.3295 47.592057 
L 78.381167 47.553102 
L 78.505167 47.483527 
L 78.603333 47.574961 
L 78.624 47.530223 
L 78.675667 47.560658 
L 78.717 47.493379 
L 78.804833 47.420813 
L 78.835833 47.465075 
L 78.954667 47.495128 
L 78.975333 47.472993 
L 79.089 47.402616 
L 78.990833 47.492314 
L 79.099333 47.425758 
L 79.187167 47.542792 
L 79.254333 47.496228 
L 79.404167 47.383871 
L 79.409333 47.408124 
L 79.548833 47.483587 
L 79.424833 47.365924 
L 79.564333 47.452561 
L 79.719333 47.392063 
L 79.734833 47.385392 
L 79.802 47.465868 
L 79.812333 47.503622 
L 79.884667 47.381268 
L 79.889833 47.383913 
L 79.915667 47.403299 
L 79.957 47.336584 
L 79.982833 47.352442 
L 80.081 47.312676 
L 80.05 47.376792 
L 80.0965 47.338578 
L 80.726833 47.280101 
L 80.773333 47.286097 
L 80.799167 47.222805 
L 80.923167 47.117314 
L 80.954167 47.162433 
L 80.990333 47.0259 
L 81.000667 47.03365 
L 81.005833 47.024903 
L 81.073 47.124181 
L 81.1195 47.170303 
L 81.1505 47.095278 
L 81.186667 47.127708 
L 81.326167 47.081707 
L 81.331333 47.099379 
L 81.439833 47.107306 
L 81.357167 47.06655 
L 81.445 47.096861 
L 81.496667 47.130628 
L 81.563833 47.09947 
L 81.625833 47.121931 
L 81.667167 47.063561 
L 81.672333 47.086633 
L 81.7705 47.052314 
L 81.698167 47.042426 
L 81.775667 47.046515 
L 81.811833 47.04024 
L 81.848 47.124694 
L 81.904833 47.166211 
L 81.873833 47.111427 
L 81.9565 47.113812 
L 82.096 47.020016 
L 82.225167 47.176719 
L 82.251 47.138145 
L 82.462833 46.920449 
L 82.473167 46.93693 
L 82.690167 46.877813 
L 82.803833 46.843754 
L 82.814167 46.868539 
L 82.881333 46.90855 
L 82.927833 46.878957 
L 83.057 46.770698 
L 83.067333 46.794077 
L 83.191333 46.839904 
L 83.201667 46.804584 
L 83.315333 46.780275 
L 83.4445 46.726817 
L 83.584 46.758157 
L 83.656333 46.700183 
L 83.702833 46.72495 
L 83.718333 46.747241 
L 83.7855 46.682785 
L 83.806167 46.687195 
L 83.966333 46.635064 
L 83.821667 46.7204 
L 83.981833 46.655644 
L 84.059333 46.728961 
L 84.007667 46.634899 
L 84.100667 46.667268 
L 84.266 46.576743 
L 84.271167 46.586512 
L 84.379667 46.624563 
L 84.384833 46.604486 
L 84.5915 46.592487 
L 84.7 46.461915 
L 84.7155 46.47375 
L 84.834333 46.555589 
L 84.741333 46.455047 
L 84.855 46.512864 
L 84.968667 46.470766 
L 84.973833 46.48134 
L 85.077167 46.494043 
L 84.989333 46.449121 
L 85.0875 46.486816 
L 85.227 46.468774 
L 85.2425 46.502107 
L 85.247667 46.53307 
L 85.340667 46.448042 
L 85.454333 46.304732 
L 85.480167 46.339999 
L 85.495667 46.360773 
L 85.568 46.274898 
L 85.717833 46.210226 
L 85.754 46.162828 
L 85.826333 46.183452 
L 85.9865 46.244868 
L 86.002 46.210333 
L 86.022667 46.222027 
L 86.0485 46.294046 
L 86.1725 46.411356 
L 86.177667 46.391123 
L 86.332667 46.179584 
L 86.368833 46.226434 
L 86.570333 46.36067 
L 86.591 46.310694 
L 86.720167 46.241884 
L 86.7615 46.289786 
L 86.735667 46.226863 
L 86.828667 46.218845 
L 87.035333 46.21111 
L 87.1645 46.264177 
L 87.18 46.251883 
L 87.3815 46.252971 
L 87.4435 46.306477 
L 87.479667 46.20111 
L 87.5365 46.243804 
L 87.515833 46.26163 
L 87.552 46.281667 
L 87.681167 46.343825 
L 87.686333 46.326747 
L 87.805167 46.165848 
L 87.841333 46.175733 
L 87.991167 46.177915 
L 87.996333 46.160966 
L 88.037667 46.170148 
L 88.115167 46.109492 
L 88.223667 46.038749 
L 88.1565 46.159737 
L 88.244333 46.090852 
L 88.275333 46.170041 
L 88.352833 46.084207 
L 88.394167 46.05494 
L 88.461333 46.127156 
L 88.482 46.143434 
L 88.5285 46.035916 
L 88.544 46.062618 
L 88.642167 45.997095 
L 88.585333 46.082907 
L 88.662833 46.039953 
L 88.73 46.01322 
L 88.7455 45.968838 
L 88.755833 45.979552 
L 88.9005 45.892769 
L 88.988333 45.992653 
L 89.019333 45.953932 
L 89.076167 45.960879 
L 89.0555 45.896976 
L 89.112333 45.923869 
L 89.195 45.826527 
L 89.231167 45.871963 
L 89.344833 45.815894 
L 89.355167 45.870627 
L 89.360333 45.881373 
L 89.412 45.816006 
L 89.437833 45.804187 
L 89.6135 45.69741 
L 89.623833 45.71046 
L 90.011333 45.84191 
L 90.145667 45.73465 
L 90.2335 45.779549 
L 90.2645 45.739316 
L 90.440167 45.80201 
L 90.5745 45.688335 
L 90.750167 45.674793 
L 90.869 45.578293 
L 90.879333 45.585035 
L 91.029167 45.497355 
L 91.127333 45.428908 
L 91.1635 45.444727 
L 91.344333 45.408886 
L 91.4425 45.294512 
L 91.483833 45.334788 
L 91.561333 45.390478 
L 91.5975 45.359801 
L 91.602667 45.34846 
L 91.664667 45.421719 
L 91.685333 45.426562 
L 91.700833 45.451265 
L 91.778333 45.373767 
L 91.793833 45.41091 
L 91.809333 45.43411 
L 91.964333 45.38613 
L 92.150333 45.530965 
L 92.284667 45.44063 
L 92.4345 45.302762 
L 92.455167 45.326853 
L 92.4965 45.320086 
L 92.475833 45.297095 
L 92.543 45.261441 
L 92.579167 45.284096 
L 92.677333 45.225136 
L 92.951167 45.269927 
L 93.013167 45.225754 
L 93.064833 45.280918 
L 93.1475 45.278596 
L 93.101 45.24289 
L 93.173333 45.261548 
L 93.292167 45.114966 
L 93.343833 45.152709 
L 93.411 45.092539 
L 93.545333 45.237965 
L 93.994833 45.134292 
L 94.0155 45.166744 
L 94.087833 45.07061 
L 94.098167 45.086217 
L 94.2325 45.027917 
L 94.237667 45.035621 
L 94.2945 44.987043 
L 94.366833 45.050156 
L 94.6045 44.998388 
L 94.702667 44.934322 
L 94.723333 44.952871 
L 94.7595 44.984498 
L 94.811167 44.881583 
L 94.816333 44.8833 
L 94.961 44.832679 
L 94.981667 44.801904 
L 95.085 44.830242 
L 95.234833 44.712359 
L 97.503 43.86679 
L 97.885333 43.199011 
L 98.112667 41.567582 
L 98.148833 31.771586 
L 98.210833 41.385209 
L 98.252167 45.014602 
L 98.334833 44.403124 
L 98.526 42.392823 
L 98.557 39.7534 
L 98.5725 32.343887 
L 98.655167 44.346558 
L 98.675833 45.52858 
L 98.763667 44.716825 
L 98.970333 41.03109 
L 98.991 32.539047 
L 99.0685 42.741305 
L 99.094333 45.690459 
L 99.182167 44.851469 
L 99.295833 43.462839 
L 99.388833 41.312247 
L 99.4095 32.56887 
L 99.487 42.038779 
L 99.518 45.81932 
L 99.605833 44.96811 
L 99.817667 41.776275 
L 99.8435 32.520545 
L 99.921 41.972568 
L 99.952 45.963383 
L 100.039833 45.167324 
L 100.272333 41.773603 
L 100.298167 32.366774 
L 100.375667 41.841789 
L 100.406667 46.117111 
L 100.4945 45.413972 
L 100.768333 41.862648 
L 100.794167 32.292389 
L 100.871667 41.48575 
L 100.902667 46.281206 
L 100.9905 45.654081 
L 101.310833 41.88228 
L 101.341833 32.246975 
L 101.414167 41.551561 
L 101.445167 46.384257 
L 101.533 45.821374 
L 101.910167 41.773815 
L 101.936 32.094295 
L 102.0135 42.348951 
L 102.049667 46.489072 
L 102.132333 45.979094 
L 102.4165 43.720164 
L 102.581833 41.333822 
L 102.607667 32.185288 
L 102.68 42.984653 
L 102.716167 46.537933 
L 102.798833 46.045346 
L 103.057167 44.257907 
L 103.331 41.402548 
L 103.356833 32.16844 
L 103.424 41.697133 
L 103.465333 46.518108 
L 103.542833 46.079526 
L 104.147333 41.792824 
L 104.173167 33.864802 
L 104.1835 32.464748 
L 104.2455 41.956429 
L 104.286833 46.430747 
L 104.364333 46.011878 
L 104.653667 44.289712 
L 105.030833 41.230152 
L 105.056667 32.63301 
L 105.123833 43.274127 
L 105.16 46.372901 
L 105.242667 45.943295 
L 105.630167 43.761297 
L 105.945333 41.910864 
L 105.971167 37.894123 
L 105.986667 32.714162 
L 106.064167 45.61715 
L 106.095167 46.342851 
L 106.177833 45.942584 
L 106.451667 44.350908 
L 106.968333 42.146231 
L 107.0045 40.011022 
L 107.025167 33.24105 
L 107.0975 45.02725 
L 107.1285 46.172852 
L 107.216333 45.758599 
L 107.707167 43.345592 
L 107.795 43.059817 
L 108.043 42.443175 
L 108.048167 42.444749 
L 108.136 42.065786 
L 108.1825 40.384953 
L 108.208333 34.411329 
L 108.270333 43.718125 
L 108.316833 45.726586 
L 108.389167 45.415198 
L 109.086667 41.342425 
L 109.117667 32.897699 
L 109.179667 42.915117 
L 109.2365 46.2688 
L 109.2985 45.943208 
L 109.6395 44.268188 
L 109.975333 43.408124 
L 110.094167 43.490953 
L 110.249167 46.121775 
L 110.419667 46.430286 
L 110.455833 46.535648 
L 110.982833 47.327443 
L 110.988 47.323998 
L 111.019 47.300639 
L 111.055167 47.39972 
L 111.0655 47.399135 
L 111.473667 47.548782 
L 111.535667 47.598609 
L 111.587333 47.553382 
L 111.695833 47.580158 
L 111.706167 47.597232 
L 111.814667 47.616939 
L 111.752667 47.549036 
L 111.825 47.601774 
L 111.9025 47.647238 
L 111.959333 47.568982 
L 112.532833 47.561532 
L 112.558667 47.520954 
L 112.6 47.608086 
L 112.6465 47.566517 
L 112.796333 47.642909 
L 112.822167 47.618727 
L 112.935833 47.570744 
L 112.853167 47.634206 
L 112.946167 47.600677 
L 113.158 47.543786 
L 113.256167 47.618456 
L 113.183833 47.532034 
L 113.282 47.574075 
L 113.674667 47.589675 
L 113.747 47.504544 
L 113.809 47.545912 
L 113.876167 47.510242 
L 113.943333 47.583391 
L 114.387667 47.545818 
L 114.532333 47.52477 
L 114.651167 47.571205 
L 114.553 47.507476 
L 114.6615 47.539043 
L 115.08 47.486846 
L 115.121333 47.47597 
L 115.147167 47.561398 
L 115.1885 47.521606 
L 115.333167 47.590432 
L 115.338333 47.578793 
L 115.483 47.519396 
L 115.524333 47.571927 
L 115.5915 47.528106 
L 115.6225 47.481631 
L 115.6845 47.577578 
L 115.689667 47.598013 
L 115.782667 47.529383 
L 115.891167 47.512357 
L 115.9015 47.52894 
L 116.004833 47.617186 
L 116.035833 47.591281 
L 116.258 47.482251 
L 116.3665 47.548651 
L 116.382 47.529282 
L 116.5215 47.517633 
L 116.526667 47.522899 
L 116.666167 47.519058 
L 116.5525 47.48041 
L 116.671333 47.506041 
L 116.7695 47.475492 
L 116.8005 47.492937 
L 116.991667 47.519293 
L 117.136333 47.543872 
L 117.2655 47.495362 
L 117.270667 47.497986 
L 117.415333 47.52827 
L 117.492833 47.463587 
L 117.534167 47.494303 
L 117.6995 47.581612 
L 117.704667 47.559807 
L 117.735667 47.530174 
L 117.802833 47.611184 
L 117.808 47.617345 
L 117.849333 47.540339 
L 117.880333 47.534634 
L 117.963 47.586145 
L 117.994 47.533616 
L 118.092167 47.463152 
L 118.174833 47.459566 
L 118.1955 47.49133 
L 118.345333 47.628733 
L 118.3815 47.581818 
L 118.541667 47.558124 
L 118.614 47.537948 
L 118.562333 47.512582 
L 118.634667 47.519644 
L 118.639833 47.501518 
L 118.712167 47.57514 
L 118.732833 47.559042 
L 118.810333 47.616318 
L 118.851667 47.564522 
L 119.011833 47.451838 
L 119.048 47.428573 
L 119.104833 47.508162 
L 119.244333 47.54418 
L 119.440667 47.465301 
L 119.445833 47.482642 
L 119.585333 47.555708 
L 119.704167 47.453973 
L 119.724833 47.479556 
L 119.864333 47.560569 
L 119.8695 47.540577 
L 120.174333 47.576418 
L 120.2415 47.625898 
L 120.277667 47.545638 
L 120.282833 47.558499 
L 120.386167 47.505415 
L 120.406833 47.521471 
L 121.083667 47.554868 
L 121.145667 47.623846 
L 121.207667 47.557493 
L 121.243833 47.591502 
L 121.352333 47.535993 
L 121.367833 47.514999 
L 121.491833 47.559144 
L 121.652 47.41086 
L 121.662333 47.431673 
L 121.7605 47.40163 
L 121.776 47.45676 
L 121.967167 47.568567 
L 122.0395 47.58922 
L 122.086 47.530657 
L 122.106667 47.557811 
L 122.158333 47.455625 
L 122.179 47.471464 
L 122.313333 47.549111 
L 122.365 47.58825 
L 122.427 47.548278 
L 122.607833 47.438039 
L 122.633667 47.473788 
L 122.757667 47.528753 
L 122.762833 47.52707 
L 122.881667 47.544155 
L 122.804167 47.43874 
L 122.892 47.532165 
L 122.928167 47.473255 
L 122.995333 47.571908 
L 123.129667 47.513111 
L 123.14 47.539287 
L 123.196833 47.602504 
L 123.243333 47.514511 
L 123.2485 47.517213 
L 123.362167 47.55547 
L 123.2795 47.469688 
L 123.382833 47.483727 
L 123.501667 47.458 
L 123.5275 47.484981 
L 123.708333 47.621462 
L 123.7135 47.599994 
L 123.847833 47.497528 
L 123.734167 47.630263 
L 123.858167 47.513448 
L 123.935667 47.541707 
L 123.971833 47.496097 
L 123.9925 47.525837 
L 124.126833 47.487892 
L 124.163 47.544007 
L 124.245667 47.515752 
L 124.359333 47.483807 
L 124.374833 47.533867 
" style="fill:none;stroke:#000000;stroke-linecap:square;stroke-width:0.3;"/>
   </g>
   <g id="line2d_3">
    <path clip-path="url(#p569f00caac)" d="M 12.78 53.281674 
L 12.893667 65.740182 
L 12.986667 65.059669 
L 13.250167 62.219795 
L 13.270833 51.619054 
L 13.369 60.0959 
L 13.405167 66.046272 
L 13.518833 65.214343 
L 13.803 62.415022 
L 13.823667 51.425319 
L 13.927 60.213004 
L 13.963167 66.26249 
L 14.071667 65.485008 
L 14.392 62.476505 
L 14.412667 51.309883 
L 14.516 59.986105 
L 14.557333 66.417782 
L 14.671 65.616368 
L 15.043 62.404913 
L 15.063667 51.231693 
L 15.167 60.236647 
L 15.203167 66.475417 
L 15.311667 65.757983 
L 15.595833 64.000745 
L 15.637167 63.772378 
L 15.719833 62.471359 
L 15.7405 51.175808 
L 15.843833 60.173881 
L 15.885167 66.526382 
L 15.993667 65.787242 
L 16.350167 63.792921 
L 16.4225 63.233438 
L 16.4535 61.646662 
L 16.469 51.138848 
L 16.567167 59.910205 
L 16.6085 66.537137 
L 16.727333 65.753619 
L 16.8565 64.965761 
L 17.213 62.505937 
L 17.233667 51.159687 
L 17.337 60.592916 
L 17.378333 66.489176 
L 17.471333 65.854428 
L 17.838167 63.976265 
L 17.895 63.733455 
L 17.993167 62.614854 
L 18.008667 57.22423 
L 18.019 51.114035 
L 18.112 59.803038 
L 18.153333 66.487556 
L 18.277333 65.684969 
L 18.794 62.168358 
L 18.814667 51.114677 
L 18.912833 60.363638 
L 18.954167 66.506267 
L 19.052333 65.865757 
L 19.315833 64.482208 
L 19.625833 61.675736 
L 19.641333 51.047365 
L 19.7395 60.175658 
L 19.780833 66.47951 
L 19.889333 65.789503 
L 20.158 64.400721 
L 20.251 64.122274 
L 20.488667 62.263878 
L 20.509333 51.049763 
L 20.6075 60.496847 
L 20.643667 66.415162 
L 20.741833 65.800829 
L 20.969167 64.578352 
L 21.0105 64.431554 
L 21.268833 63.614528 
L 21.330833 63.112872 
L 21.356667 61.93156 
L 21.372167 51.087878 
L 21.470333 60.20841 
L 21.5065 66.400261 
L 21.615 65.725327 
L 21.9095 64.27633 
L 22.204 62.757941 
L 22.2195 60.56591 
L 22.235 51.104872 
L 22.328 60.129625 
L 22.3745 66.399917 
L 22.477833 65.682423 
L 22.5295 65.367146 
L 22.803333 64.241663 
L 22.979 63.712569 
L 23.061667 63.208097 
L 23.092667 62.044754 
L 23.113333 51.069303 
L 23.206333 60.12358 
L 23.247667 66.364246 
L 23.356167 65.691961 
L 23.650667 64.305508 
L 23.655833 64.327697 
L 23.7075 64.168947 
L 23.976167 62.486917 
L 24.002 51.0612 
L 24.100167 60.824641 
L 24.136333 66.374743 
L 24.229333 65.766206 
L 24.616833 64.083158 
L 24.833833 63.357277 
L 24.875167 62.362984 
L 24.895833 51.016036 
L 24.994 60.423934 
L 25.035333 66.343445 
L 25.1335 65.683482 
L 25.546833 64.010849 
L 25.552 64.016151 
L 25.5675 64.035044 
L 25.5985 63.925279 
L 25.779333 63.19593 
L 25.8155 61.249674 
L 25.831 51.017409 
L 25.924 60.183541 
L 25.965333 66.253161 
L 26.073833 65.558771 
L 26.347667 64.308984 
L 26.383833 64.196232 
L 26.637 63.528834 
L 26.709333 62.379795 
L 26.73 51.021685 
L 26.828167 60.428533 
L 26.864333 66.278007 
L 26.967667 65.626987 
L 27.277667 64.237818 
L 27.298333 64.22633 
L 27.319 64.136041 
L 27.479167 63.766197 
L 27.567 63.425353 
L 27.623833 62.170211 
L 27.6445 51.020778 
L 27.7375 60.135858 
L 27.778833 66.267607 
L 27.887333 65.570466 
L 28.011333 64.857446 
L 28.243833 64.154538 
L 28.476333 63.650712 
L 28.569333 62.58697 
L 28.584833 57.844894 
L 28.595167 50.987801 
L 28.693333 60.672487 
L 28.734667 66.230126 
L 28.8225 65.640308 
L 29.122167 64.25996 
L 29.421833 63.575788 
L 29.5045 62.760016 
L 29.525167 60.313839 
L 29.540667 51.176328 
L 29.633667 60.697572 
L 29.669833 66.176239 
L 29.762833 65.621183 
L 29.974667 64.759248 
L 29.979833 64.77049 
L 30.047 64.684901 
L 30.088333 64.59729 
L 30.1555 64.67514 
L 30.393167 65.223492 
L 30.501667 65.45766 
L 30.915 66.833819 
L 31.064833 67.385363 
L 31.266333 68.017781 
L 31.731333 69.096409 
L 31.762333 69.051559 
L 31.803667 69.128957 
L 31.834667 69.126236 
L 31.958667 69.196203 
L 31.963833 69.192465 
L 31.969 69.18122 
L 32.036167 69.283763 
L 32.0775 69.235601 
L 32.175667 69.334777 
L 32.279 69.259881 
L 32.31 69.288407 
L 32.439167 69.380138 
L 33.054 69.30882 
L 33.079833 69.228687 
L 33.167667 69.286867 
L 33.281333 69.276294 
L 33.219333 69.313872 
L 33.2865 69.283901 
L 33.524167 69.404284 
L 33.544833 69.369943 
L 33.6275 69.31682 
L 33.570667 69.383383 
L 33.668833 69.332316 
L 33.792833 69.433557 
L 33.803167 69.405466 
L 33.958167 69.296639 
L 33.829 69.439461 
L 33.978833 69.320278 
L 34.004667 69.367542 
L 34.035667 69.263856 
L 34.071833 69.267995 
L 34.082167 69.245047 
L 34.133833 69.323096 
L 34.164833 69.30468 
L 34.273333 69.348748 
L 34.226833 69.262298 
L 34.283667 69.321249 
L 34.4645 69.190012 
L 34.490333 69.259871 
L 34.516167 69.231398 
L 34.655667 69.335222 
L 34.8365 69.263688 
L 34.846833 69.311673 
L 35.72 69.345189 
L 35.756167 69.296031 
L 35.900833 69.389853 
L 35.957667 69.34236 
L 36.024833 69.394489 
L 36.0765 69.352113 
L 36.133333 69.382554 
L 36.257333 69.250346 
L 36.267667 69.286526 
L 36.371 69.207003 
L 36.3865 69.168317 
L 36.458833 69.268432 
L 36.4795 69.220618 
L 36.639667 69.333065 
L 36.644833 69.317708 
L 36.655167 69.286562 
L 36.732667 69.342629 
L 36.753333 69.313993 
L 36.985833 69.419049 
L 36.768833 69.297431 
L 37.001333 69.40334 
L 37.0685 69.364475 
L 37.104667 69.413682 
L 37.125333 69.466909 
L 37.187333 69.306934 
L 37.1925 69.319547 
L 37.249333 69.32785 
L 37.213167 69.299455 
L 37.290667 69.268241 
L 37.554167 69.26548 
L 37.6575 69.146657 
L 37.6885 69.154 
L 37.817667 69.307785 
L 37.895167 69.245151 
L 38.008833 69.219818 
L 37.9365 69.291263 
L 38.014 69.236025 
L 38.039833 69.205293 
L 38.148333 69.295432 
L 38.324 69.324101 
L 38.329167 69.34531 
L 38.334333 69.36105 
L 38.360167 69.302334 
L 38.4325 69.30697 
L 38.732167 69.257973 
L 38.737333 69.270694 
L 38.789 69.388499 
L 38.8665 69.354971 
L 39.099 69.300752 
L 39.212667 69.390138 
L 39.223 69.355571 
L 39.347 69.385873 
L 39.233333 69.333676 
L 39.3625 69.343133 
L 39.429667 69.374577 
L 39.4865 69.277259 
L 39.496833 69.304871 
L 39.543333 69.19794 
L 39.5795 69.20769 
L 40.029 69.017036 
L 40.039333 69.053329 
L 40.1065 69.090552 
L 40.153 69.057776 
L 40.344167 68.929924 
L 40.3545 68.970558 
L 40.504333 69.119942 
L 40.519833 69.110734 
L 40.561167 69.089014 
L 40.612833 69.167488 
L 40.618 69.151808 
L 40.690333 69.175022 
L 40.649 69.113901 
L 40.7265 69.133594 
L 40.809167 69.098664 
L 40.824667 69.158187 
L 40.835 69.154072 
L 40.917667 69.170012 
L 40.855667 69.117032 
L 40.9435 69.142446 
L 41.010667 69.049233 
L 41.062333 69.082471 
L 41.093333 69.124002 
L 41.150167 69.048355 
L 41.170833 69.074758 
L 41.4395 69.117225 
L 41.522167 69.005163 
L 41.558333 69.016315 
L 41.573833 68.98513 
L 41.672 69.036531 
L 41.785667 69.013618 
L 41.6875 69.047861 
L 41.796 69.017627 
L 41.806333 69.036369 
L 41.863167 68.944674 
L 41.899333 68.977034 
L 41.945833 69.021129 
L 42.033667 68.886542 
L 42.085333 68.853093 
L 42.162833 68.949694 
L 42.286833 68.966741 
L 42.297167 68.976054 
L 42.359167 68.912918 
L 42.379833 68.906681 
L 42.6485 68.877688 
L 42.715667 68.773928 
L 42.777667 68.820328 
L 42.9585 68.977509 
L 42.9895 68.920036 
L 43.129 68.899144 
L 43.149667 68.934129 
L 43.278833 68.930613 
L 43.284 68.918493 
L 43.356333 68.814753 
L 43.418333 68.834886 
L 43.78 68.768015 
L 43.785167 68.784813 
L 43.8265 68.71772 
L 43.883333 68.736219 
L 43.991833 68.594267 
L 44.0125 68.615483 
L 44.193333 68.609015 
L 44.214 68.627193 
L 44.255333 68.556244 
L 44.281167 68.552422 
L 44.405167 68.372418 
L 44.420667 68.419871 
L 44.431 68.445956 
L 44.513667 68.335515 
L 44.637667 68.362443 
L 44.642833 68.343213 
L 44.9425 68.398159 
L 44.947667 68.387148 
L 45.123333 68.254779 
L 45.1595 68.303687 
L 45.412667 68.350394 
L 45.4695 68.461942 
L 45.526333 68.396106 
L 45.5935 68.342553 
L 45.645167 68.355408 
L 45.960333 68.27028 
L 45.970667 68.245961 
L 46.048167 68.335853 
L 46.0585 68.328798 
L 46.482167 68.042536 
L 46.4925 68.082798 
L 46.549333 67.990346 
L 46.5855 68.012103 
L 46.745667 67.868516 
L 46.8025 67.921737 
L 46.854167 67.854868 
L 46.978167 67.763442 
L 47.091833 67.783015 
L 47.102167 67.766468 
L 47.319167 67.735464 
L 47.427667 67.654501 
L 47.350167 67.743739 
L 47.438 67.667808 
L 47.531 67.688644 
L 47.4535 67.63919 
L 47.551667 67.660127 
L 47.572333 67.608735 
L 47.655 67.698613 
L 47.846167 67.61947 
L 47.851333 67.628768 
L 47.913333 67.626433 
L 47.872 67.603217 
L 47.954667 67.602659 
L 48.058 67.451533 
L 48.1045 67.489645 
L 48.187167 67.495578 
L 48.12 67.498407 
L 48.213 67.513332 
L 48.337 67.53169 
L 48.3525 67.496128 
L 48.357667 67.48037 
L 48.440333 67.549626 
L 48.450667 67.545402 
L 48.5385 67.538544 
L 48.481667 67.502337 
L 48.548833 67.514754 
L 48.698667 67.299492 
L 48.709 67.310919 
L 49.0035 67.252915 
L 49.013833 67.279057 
L 49.112 67.291975 
L 49.055167 67.234346 
L 49.132667 67.269454 
L 49.236 67.227629 
L 49.2515 67.241667 
L 49.3755 67.278433 
L 49.292833 67.207597 
L 49.391 67.260616 
L 49.540833 67.141125 
L 49.546 67.153631 
L 49.6855 67.171412 
L 49.804333 67.208503 
L 49.9025 67.17511 
L 49.825 67.220427 
L 49.918 67.211938 
L 50.052333 67.22725 
L 50.062667 67.206104 
L 50.186667 67.126652 
L 50.207333 67.161384 
L 50.310667 67.13788 
L 50.253833 67.081606 
L 50.315833 67.135669 
L 51.044333 67.02907 
L 51.0805 67.087363 
L 51.152833 67.011181 
L 51.369833 67.018145 
L 51.375 67.032015 
L 51.416333 67.095522 
L 51.488667 67.046814 
L 51.705667 66.969876 
L 51.721167 67.01818 
L 51.84 67.12609 
L 51.871 67.090619 
L 51.953667 67.059252 
L 51.881333 67.069075 
L 51.964 67.033035 
L 52.4445 66.926531 
L 52.516833 66.930849 
L 52.46 66.905721 
L 52.547833 66.891616 
L 53.813667 66.155034 
L 53.818833 66.172815 
L 53.922167 66.278947 
L 53.937667 66.264764 
L 54.154667 66.210039 
L 54.196 66.232214 
L 54.185667 66.200755 
L 54.263167 66.194329 
L 54.289 66.14439 
L 54.361333 66.226175 
L 54.480167 66.285577 
L 54.392333 66.201442 
L 54.485333 66.263825 
L 54.661 66.206196 
L 54.6765 66.227835 
L 54.795333 66.292054 
L 54.810833 66.266765 
L 54.94 66.184178 
L 54.867667 66.288501 
L 54.945167 66.189044 
L 55.007167 66.175974 
L 55.027833 66.115583 
L 55.436 65.972336 
L 55.518667 65.753545 
L 55.596167 65.831717 
L 55.689167 65.761266 
L 55.715 65.847834 
L 55.859667 65.740703 
L 55.880333 65.771993 
L 55.921667 65.791348 
L 55.9785 65.722837 
L 56.190333 65.539775 
L 56.1955 65.544942 
L 56.273 65.574878 
L 56.304 65.534734 
L 56.335 65.529226 
L 56.371167 65.607213 
L 56.386667 65.599977 
L 56.428 65.666767 
L 56.495167 65.568578 
L 56.5675 65.514862 
L 56.608833 65.550603 
L 56.681167 65.496688 
L 56.655333 65.452527 
L 56.6915 65.476981 
L 56.7845 65.473923 
L 56.810333 65.502201 
L 56.960167 65.539857 
L 56.965333 65.517321 
L 57.053167 65.612019 
L 57.135833 65.690188 
L 57.068667 65.595186 
L 57.177167 65.600794 
L 57.213333 65.510605 
L 57.265 65.630898 
L 57.296 65.561124 
L 57.301167 65.576187 
L 57.352833 65.440641 
L 57.3735 65.451119 
L 57.4665 65.433079 
L 57.482 65.489551 
L 57.569833 65.465948 
L 57.502667 65.468377 
L 57.575 65.436986 
L 57.600833 65.494177 
L 57.709333 65.379543 
L 57.7455 65.350377 
L 57.761 65.298607 
L 57.9005 65.190617 
L 58.0245 65.254372 
L 58.029667 65.241835 
L 58.107167 65.197827 
L 58.065833 65.162983 
L 58.112333 65.170439 
L 59.068167 64.708667 
L 59.099167 64.665526 
L 59.161167 64.773831 
L 59.28 64.82272 
L 59.187 64.75953 
L 59.2955 64.807622 
L 59.471167 64.662323 
L 59.5125 64.730557 
L 59.548667 64.782559 
L 59.626167 64.731929 
L 59.801833 64.530711 
L 59.807 64.538124 
L 59.858667 64.431176 
L 60.044667 64.300776 
L 60.080833 64.344215 
L 60.142833 64.261936 
L 60.375333 63.168383 
L 60.401167 60.919467 
L 60.416667 50.687351 
L 60.509667 58.851155 
L 60.571667 64.505972 
L 60.700833 63.937464 
L 60.809333 63.414932 
L 60.892 61.758104 
L 60.9075 52.364793 
L 61.0005 60.691255 
L 61.0315 64.920367 
L 61.129667 64.324629 
L 61.326 62.703651 
L 61.346667 58.413703 
L 61.357 52.073362 
L 61.45 60.470457 
L 61.486167 65.342339 
L 61.584333 64.62893 
L 61.8065 61.981576 
L 61.822 51.881976 
L 61.920167 60.178982 
L 61.956333 65.720433 
L 62.07 64.864866 
L 62.287 63.024792 
L 62.312833 60.288183 
L 62.323167 51.614759 
L 62.421333 59.807094 
L 62.462667 66.049453 
L 62.586667 65.109613 
L 62.7365 64.002613 
L 62.855333 62.023026 
L 62.870833 51.45221 
L 62.969 59.628884 
L 63.0155 66.244119 
L 63.144667 65.279734 
L 63.439167 62.361553 
L 63.459833 51.34476 
L 63.563167 60.187346 
L 63.599333 66.392257 
L 63.707833 65.653298 
L 64.0695 62.302826 
L 64.090167 51.277826 
L 64.188333 59.778292 
L 64.229667 66.502515 
L 64.358833 65.629561 
L 64.741167 62.627301 
L 64.756667 55.815639 
L 64.767 51.244989 
L 64.86 59.526668 
L 64.9065 66.543825 
L 65.040833 65.613692 
L 65.164833 64.844703 
L 65.4645 62.524443 
L 65.485167 51.160916 
L 65.5885 60.281045 
L 65.624667 66.535745 
L 65.733167 65.836683 
L 65.9915 64.344205 
L 66.198167 62.891839 
L 66.218833 58.847948 
L 66.229167 51.114989 
L 66.327333 59.911406 
L 66.368667 66.55824 
L 66.4875 65.783863 
L 66.668333 64.720158 
L 66.864667 63.937549 
L 66.895667 63.806667 
L 66.993833 62.712544 
L 67.009333 59.360592 
L 67.019667 51.070918 
L 67.117833 60.002569 
L 67.159167 66.527627 
L 67.272833 65.793101 
L 67.639667 63.967102 
L 67.6965 63.769386 
L 67.805 62.665775 
L 67.8205 58.495048 
L 67.830833 51.082731 
L 67.929 60.255135 
L 67.970333 66.477517 
L 68.073667 65.808247 
L 68.357833 64.374403 
L 68.523167 63.721108 
L 68.600667 62.957504 
L 68.621333 61.145087 
L 68.636833 51.092962 
L 68.729833 59.78898 
L 68.776333 66.519161 
L 68.895167 65.741906 
L 69.313667 63.960834 
L 69.422167 63.473561 
L 69.479 62.284228 
L 69.499667 51.031422 
L 69.597833 60.353069 
L 69.634 66.449547 
L 69.737333 65.810863 
L 70.011167 64.388598 
L 70.279833 63.580761 
L 70.357333 62.132068 
L 70.378 51.059924 
L 70.471 60.029587 
L 70.512333 66.396014 
L 70.626 65.68317 
L 70.884333 64.390934 
L 71.1065 63.718414 
L 71.209833 62.649636 
L 71.225333 58.608572 
L 71.235667 51.039648 
L 71.333833 60.46589 
L 71.375167 66.391866 
L 71.468167 65.774092 
L 71.891833 63.913482 
L 71.959 63.803702 
L 72.093333 61.978599 
L 72.114 51.099936 
L 72.207 60.22341 
L 72.248333 66.362954 
L 72.351667 65.676131 
L 72.945833 62.972686 
L 72.9665 61.475602 
L 72.982 51.021876 
L 73.075 59.890546 
L 73.1215 66.374803 
L 73.235167 65.624296 
L 73.514167 64.327707 
L 73.870667 62.675038 
L 73.886167 59.825735 
L 73.8965 51.041468 
L 73.994667 60.470132 
L 74.030833 66.293267 
L 74.134167 65.64336 
L 74.490667 64.103091 
L 74.5785 63.857224 
L 74.728333 63.214381 
L 74.7645 61.685389 
L 74.78 51.038821 
L 74.873 59.937691 
L 74.914333 66.314516 
L 75.033167 65.55078 
L 75.317333 64.28353 
L 75.679 62.630003 
L 75.6945 58.784202 
L 75.704833 50.997841 
L 75.803 60.598753 
L 75.839167 66.279246 
L 75.937333 65.646874 
L 76.200833 64.374068 
L 76.247333 64.259291 
L 76.443667 63.668784 
L 76.547 62.66237 
L 76.5625 59.753381 
L 76.572833 51.038599 
L 76.671 60.39629 
L 76.707167 66.309142 
L 76.8105 65.658258 
L 77.301333 63.930139 
L 77.3375 63.827468 
L 77.513167 62.591675 
L 77.528667 57.846834 
L 77.539 50.987656 
L 77.637167 60.698666 
L 77.673333 66.239363 
L 77.766333 65.625759 
L 78.029833 64.382277 
L 78.066 64.283187 
L 78.283 63.763295 
L 78.288167 63.773797 
L 78.345 63.686591 
L 78.401833 63.456117 
L 78.417333 63.750889 
L 78.629167 65.671415 
L 78.634333 65.666265 
L 78.6705 65.782873 
L 78.717 65.979514 
L 79.616 68.620219 
L 79.621167 68.599235 
L 79.6935 68.751473 
L 79.843333 69.008007 
L 80.029333 69.219741 
L 79.853667 68.997894 
L 80.0655 69.164621 
L 80.101667 69.121873 
L 80.163667 69.208129 
L 80.272167 69.285533 
L 80.2825 69.268227 
L 80.323833 69.204924 
L 80.391 69.279722 
L 80.453 69.285549 
L 80.473667 69.353006 
L 80.484 69.334401 
L 80.597667 69.392481 
L 80.6235 69.350607 
L 80.732 69.31491 
L 80.675167 69.390529 
L 80.7475 69.345001 
L 80.861167 69.368769 
L 80.866333 69.361831 
L 80.969667 69.208925 
L 80.9955 69.263152 
L 81.067833 69.238512 
L 81.036833 69.285468 
L 81.104 69.264729 
L 81.114333 69.304973 
L 81.191833 69.19248 
L 81.197 69.19614 
L 81.346833 69.252689 
L 81.362333 69.220115 
L 81.372667 69.202015 
L 81.424333 69.293852 
L 81.455333 69.278681 
L 81.6465 69.223587 
L 81.656833 69.265151 
L 81.6775 69.248914 
L 81.8325 69.38727 
L 81.972 69.338735 
L 81.977167 69.351447 
L 81.9875 69.388522 
L 82.085667 69.34598 
L 82.132167 69.297289 
L 82.163167 69.364199 
L 82.199333 69.336514 
L 82.225167 69.280574 
L 82.313 69.338128 
L 82.431833 69.302794 
L 82.437 69.306184 
L 82.617833 69.376566 
L 82.685 69.378078 
L 82.705667 69.319937 
L 82.716 69.32388 
L 82.721167 69.33474 
L 82.752167 69.253182 
L 82.7935 69.238637 
L 83.026 69.199738 
L 83.144833 69.219173 
L 83.299833 69.292477 
L 83.429 69.289593 
L 83.5375 69.375357 
L 83.558167 69.356247 
L 83.775167 69.199202 
L 83.790667 69.254448 
L 83.930167 69.361461 
L 83.842333 69.21818 
L 83.956 69.301329 
L 84.116167 69.1458 
L 84.121333 69.157623 
L 84.2815 69.161097 
L 84.291833 69.141372 
L 84.297 69.110962 
L 84.379667 69.220154 
L 84.39 69.212174 
L 84.519167 69.168724 
L 84.6535 69.230922 
L 84.710333 69.180048 
L 84.762 69.234702 
L 84.886 69.23696 
L 84.942833 69.256785 
L 84.896333 69.261013 
L 84.979 69.287647 
L 85.01 69.294112 
L 85.035833 69.248561 
L 85.077167 69.26107 
L 85.206333 69.154991 
L 85.2115 69.166319 
L 85.640333 69.236623 
L 85.686833 69.241564 
L 85.655833 69.266543 
L 85.743667 69.27154 
L 85.826333 69.298992 
L 85.857333 69.26324 
L 85.971 69.220602 
L 85.872833 69.269563 
L 85.976167 69.234898 
L 86.007167 69.263407 
L 86.064 69.182466 
L 86.074333 69.191003 
L 86.146667 69.112612 
L 86.2035 69.196148 
L 86.343 69.189977 
L 86.348167 69.183454 
L 86.611667 69.186504 
L 86.647833 69.166927 
L 86.694333 69.23065 
L 86.709833 69.230331 
L 86.833833 69.275071 
L 86.844167 69.270386 
L 86.895833 69.30698 
L 86.994 69.228347 
L 87.081833 69.257977 
L 87.019833 69.22074 
L 87.097333 69.208494 
L 87.138667 69.278748 
L 87.2575 69.146322 
L 87.376333 69.161304 
L 87.3815 69.137931 
L 87.397 69.164975 
L 87.5055 69.154796 
L 87.655333 69.278513 
L 87.526167 69.113701 
L 87.665667 69.262812 
L 87.727667 69.208804 
L 87.774167 69.254245 
L 87.980833 69.237392 
L 88.053167 69.152136 
L 88.0945 69.187448 
L 88.192667 69.313351 
L 88.2185 69.294128 
L 88.316667 69.275536 
L 88.352833 69.319222 
L 88.389 69.232497 
L 88.482 69.259211 
L 88.600833 69.160063 
L 88.606 69.178185 
L 88.8385 69.093804 
L 88.843667 69.103573 
L 88.952167 69.129595 
L 88.967667 69.111498 
L 89.091667 69.045652 
L 89.096833 69.049721 
L 89.143333 69.134354 
L 89.205333 69.019055 
L 89.236333 69.056973 
L 89.324167 69.04313 
L 89.3655 69.132593 
L 89.443 69.088903 
L 89.587667 69.232043 
L 89.727167 69.079161 
L 89.753 69.100261 
L 90.1095 69.079529 
L 90.269667 68.987682 
L 90.409167 68.943963 
L 90.5125 68.969461 
L 90.517667 68.978147 
L 90.548667 68.92124 
L 90.646833 68.9901 
L 90.657167 68.974965 
L 90.703667 69.078394 
L 90.7295 69.064758 
L 90.739833 69.100608 
L 90.832833 69.042734 
L 90.951667 69.001474 
L 91.122167 68.942786 
L 91.137667 68.895777 
L 91.241 68.92901 
L 91.292667 68.889379 
L 91.339167 68.896099 
L 91.483833 68.810022 
L 91.499333 68.837336 
L 91.540667 68.82567 
L 91.618167 68.868818 
L 91.8455 68.929394 
L 91.959167 68.730868 
L 92.010833 68.782209 
L 92.021167 68.82099 
L 92.109 68.74995 
L 92.129667 68.714514 
L 92.202 68.796999 
L 92.2175 68.738132 
L 92.300167 68.740037 
L 92.274333 68.711379 
L 92.320833 68.699337 
L 92.4345 68.674793 
L 92.444833 68.631953 
L 92.475833 68.600924 
L 92.5275 68.690614 
L 92.553333 68.633135 
L 92.6515 68.651488 
L 92.584333 68.599539 
L 92.667 68.621884 
L 92.946 68.640104 
L 92.9615 68.669862 
L 93.033833 68.582714 
L 93.137167 68.543225 
L 93.157833 68.571708 
L 93.1785 68.64359 
L 93.245667 68.542031 
L 93.266333 68.551727 
L 93.659 68.505669 
L 93.943167 68.351919 
L 93.963833 68.378453 
L 93.969 68.400687 
L 94.036167 68.3181 
L 94.072333 68.362506 
L 94.248 68.343888 
L 94.372 68.409165 
L 94.4805 68.466796 
L 94.506333 68.417121 
L 94.589 68.379023 
L 94.614833 68.425557 
L 94.780167 68.405084 
L 94.7905 68.365948 
L 94.935167 68.28688 
L 94.847333 68.42429 
L 94.940333 68.309587 
L 94.971333 68.395593 
L 95.023 68.264436 
L 95.054 68.302694 
L 95.214167 68.336871 
L 95.338167 68.259085 
L 95.343333 68.266808 
L 95.524167 68.240781 
L 95.741167 68.227135 
L 95.746333 68.238466 
L 95.767 68.209399 
L 95.854833 68.244001 
L 95.9375 68.158416 
L 95.984 68.183371 
L 96.097667 68.131046 
L 96.108 68.14966 
L 96.221667 68.195647 
L 96.1545 68.131036 
L 96.237167 68.186759 
L 96.397333 68.029837 
L 96.407667 68.046318 
L 96.4955 68.046586 
L 96.443833 67.981849 
L 96.511 68.024911 
L 96.676333 67.796138 
L 96.795167 67.8541 
L 96.831333 67.768467 
L 96.919167 67.806152 
L 97.048333 67.756474 
L 97.187833 67.833533 
L 97.110333 67.708305 
L 97.203333 67.804922 
L 97.9835 67.501886 
L 97.993833 67.539472 
L 98.133333 67.522238 
L 98.298667 67.315621 
L 98.422667 67.263656 
L 98.3245 67.334768 
L 98.438167 67.28592 
L 98.464 67.312705 
L 98.526 67.236332 
L 98.536333 67.235931 
L 98.8825 67.019417 
L 98.908333 67.0651 
L 98.9135 67.076875 
L 98.970333 67.011112 
L 99.0065 67.028146 
L 99.1615 67.038699 
L 99.213167 66.987271 
L 99.2855 67.09288 
L 99.363 67.062258 
L 99.301 67.104386 
L 99.388833 67.115882 
L 99.481833 67.156949 
L 99.4095 67.100751 
L 99.512833 67.132885 
L 100.132833 66.987587 
L 100.2465 66.835868 
L 100.256833 66.861344 
L 100.329167 66.747454 
L 100.406667 66.809327 
L 100.515167 66.848733 
L 100.520333 66.867666 
L 100.675333 66.972874 
L 100.685667 66.937014 
L 100.732167 66.907076 
L 100.7735 66.971765 
L 100.789 66.955064 
L 100.814833 66.965808 
L 100.8355 66.892112 
L 100.876833 66.891164 
L 101.000833 66.82578 
L 101.088667 66.815309 
L 101.037 66.764207 
L 101.099 66.769737 
L 101.228167 66.743678 
L 101.233333 66.781351 
L 101.254 66.833497 
L 101.285 66.750747 
L 101.347 66.786078 
L 101.357333 66.756711 
L 101.409 66.832957 
L 101.4555 66.81109 
L 101.770667 66.757531 
L 101.781 66.802739 
L 101.8275 66.777604 
L 101.910167 66.876816 
L 102.101333 66.769838 
L 102.2305 66.606532 
L 102.235667 66.618411 
L 102.251167 66.595715 
L 102.287333 66.67531 
L 102.344167 66.634914 
L 102.587 66.4625 
L 102.705833 66.428627 
L 102.767833 66.447275 
L 102.809167 66.38672 
L 102.845333 66.401229 
L 102.928 66.357984 
L 104.023333 66.033859 
L 104.142167 65.865386 
L 104.168 65.904695 
L 104.359167 65.850599 
L 104.178333 65.930023 
L 104.390167 65.924051 
L 104.591667 66.054195 
L 104.7105 66.019125 
L 104.720833 66.030223 
L 104.751833 66.0675 
L 104.788 65.988396 
L 104.819 65.988851 
L 104.839667 66.017317 
L 104.979167 65.929989 
L 104.984333 65.939709 
L 105.010167 65.892484 
L 105.067 65.879835 
L 105.227167 65.773983 
L 105.371833 65.756945 
L 105.377 65.731616 
L 105.883333 65.751641 
L 105.960833 65.782502 
L 105.991833 65.739752 
L 106.126167 65.653155 
L 106.177833 65.644832 
L 106.157167 65.614771 
L 106.214 65.585273 
L 106.498167 65.581186 
L 106.6015 65.559767 
L 106.544667 65.601644 
L 106.611833 65.567253 
L 106.627333 65.610356 
L 106.653167 65.544515 
L 106.704833 65.528935 
L 106.7255 65.497963 
L 106.803 65.582917 
L 106.808167 65.555474 
L 106.968333 65.51972 
L 107.076833 65.420372 
L 107.206 65.298529 
L 107.2215 65.312329 
L 107.278333 65.291268 
L 107.366167 65.44494 
L 107.479833 65.464788 
L 107.485 65.479021 
L 107.490167 65.50829 
L 107.583167 65.446178 
L 107.588333 65.449213 
L 108.094667 65.147726 
L 108.105 65.171759 
L 108.192833 65.122742 
L 108.198 65.103289 
L 108.316833 65.034988 
L 108.2445 65.171319 
L 108.3375 65.067278 
L 108.342667 65.096182 
L 108.446 65.057259 
L 108.564833 64.971901 
L 108.663 64.966179 
L 108.611333 65.002537 
L 108.668167 64.976247 
L 108.7095 64.998441 
L 108.735333 64.925825 
L 108.776667 64.979812 
L 108.88 64.818462 
L 108.921333 64.869538 
L 108.936833 64.856727 
L 109.060833 64.930503 
L 109.965 63.895494 
L 110.0735 62.827986 
L 110.089 60.702314 
L 110.1045 50.692387 
L 110.1975 58.944408 
L 110.2595 64.453201 
L 110.388667 63.927112 
L 110.5695 62.277128 
L 110.595333 52.418455 
L 110.683167 60.711296 
L 110.714167 64.898193 
L 110.812333 64.319247 
L 111.013833 62.568258 
L 111.029333 59.923014 
L 111.039667 52.088208 
L 111.137833 60.973663 
L 111.168833 65.324039 
L 111.261833 64.656128 
L 111.463333 63.089715 
L 111.494333 61.307453 
L 111.509833 51.84613 
L 111.602833 60.032637 
L 111.639 65.708424 
L 111.757833 64.855564 
L 111.990333 62.125754 
L 112.011 51.67827 
L 112.109167 60.190179 
L 112.1505 66.030999 
L 112.253833 65.225099 
L 112.527667 62.63056 
L 112.543167 56.415286 
L 112.5535 51.485676 
L 112.6465 59.471226 
L 112.693 66.270881 
L 112.8325 65.227182 
L 113.106333 63.065647 
L 113.127 61.679642 
L 113.1425 51.340595 
L 113.240667 59.692522 
L 113.287167 66.399242 
L 113.416333 65.457978 
L 113.752167 62.638194 
L 113.767667 56.420637 
L 113.778 51.293823 
L 113.871 59.442715 
L 113.9175 66.478622 
L 114.057 65.523634 
L 114.423833 62.756234 
L 114.439333 59.620556 
L 114.449667 51.185507 
L 114.547833 59.705819 
L 114.594333 66.536019 
L 114.718333 65.676734 
L 115.142 62.318121 
L 115.162667 51.171892 
L 115.260833 59.957 
L 115.307333 66.552877 
L 115.421 65.762922 
L 115.886 62.525616 
L 115.906667 51.12809 
L 116.01 60.264803 
L 116.046167 66.562118 
L 116.154667 65.884304 
L 116.433667 64.332228 
L 116.640333 63.294824 
L 116.6765 62.032232 
L 116.692 51.148877 
L 116.790167 59.938748 
L 116.836667 66.504954 
L 116.950333 65.738856 
L 117.151833 64.621234 
L 117.477333 62.259156 
L 117.498 51.094406 
L 117.596167 60.30982 
L 117.6375 66.509302 
L 117.740833 65.826555 
L 118.169667 63.84804 
L 118.211 63.672561 
L 118.309167 62.186663 
L 118.329833 51.083286 
L 118.428 60.486414 
L 118.469333 66.469677 
L 118.562333 65.832897 
L 118.676 65.155726 
L 118.887833 64.231869 
L 119.079 63.551915 
L 119.1255 63.162772 
L 119.1565 61.682772 
L 119.172 51.057928 
L 119.270167 60.374159 
L 119.306333 66.420309 
L 119.409667 65.800211 
L 119.6835 64.406401 
L 119.947 63.380694 
L 119.9935 62.100604 
L 120.014167 51.088661 
L 120.107167 60.036873 
L 120.1485 66.436834 
L 120.262167 65.708056 
L 120.530833 64.397115 
L 120.8305 62.731137 
L 120.846 60.151415 
L 120.856333 51.057531 
L 120.9545 60.112516 
L 121.001 66.441237 
L 121.104333 65.748716 
L 121.455667 64.195657 
L 121.745 62.678444 
L 121.7605 59.404258 
L 121.770833 51.019654 
L 121.869 60.422892 
L 121.905167 66.352754 
L 122.0085 65.700771 
L 122.452833 63.799507 
L 122.514833 63.536527 
L 122.587167 62.422899 
L 122.607833 51.049185 
L 122.706 60.25214 
L 122.742167 66.406381 
L 122.850667 65.7332 
L 123.150333 64.360447 
L 123.1555 64.370669 
L 123.191667 64.208791 
L 123.506833 62.498595 
L 123.532667 51.061654 
L 123.630833 60.984845 
L 123.667 66.32132 
L 123.754833 65.748852 
L 123.878833 65.021171 
L 124.07 64.257545 
L 124.374833 63.300633 
L 124.374833 63.300633 
" style="fill:none;stroke:#000000;stroke-linecap:square;stroke-width:0.3;"/>
   </g>
   <g id="line2d_4">
    <path clip-path="url(#p569f00caac)" d="M 103.196667 10.63827 
L 123.822 10.63827 
" style="fill:none;stroke:#ffffff;stroke-linecap:square;"/>
   </g>
   <g id="line2d_5">
    <path clip-path="url(#p569f00caac)" d="M 124.38 17.904213 
L 124.38 10.783589 
" style="fill:none;stroke:#ffffff;stroke-linecap:square;"/>
   </g>
  </g>
 </g>
 <defs>
  <clipPath id="p569f00caac">
   <rect height="65.232" width="122.76" x="7.2" y="7.2"/>
  </clipPath>
 </defs>
</svg>
