<?xml version='1.0' encoding='ASCII' standalone='yes'?>
<svg xmlns="http://www.w3.org/2000/svg" xmlns:xlink="http://www.w3.org/1999/xlink" version="1.1" width="20.3cm" viewBox="0 0 20.3cm 3.2cm" height="3.2cm">
  <g>
    <g transform="translate(0.0, 0.0) scale(1) ">
      <g transform="translate(0, 0.0) scale(1) translate(0, 0) scale(1.25) "><metadata>
  <rdf:RDF xmlns:cc="http://creativecommons.org/ns#" xmlns:dc="http://purl.org/dc/elements/1.1/" xmlns:rdf="http://www.w3.org/1999/02/22-rdf-syntax-ns#">
   <cc:Work>
    <dc:type rdf:resource="http://purl.org/dc/dcmitype/StillImage"/>
    <dc:date>2020-12-17T12:24:23.725178</dc:date>
    <dc:format>image/svg+xml</dc:format>
    <dc:creator>
     <cc:Agent>
      <dc:title>Matplotlib v3.3.2, https://matplotlib.org/</dc:title>
     </cc:Agent>
    </dc:creator>
   </cc:Work>
  </rdf:RDF>
 </metadata>
 <defs>
  <style type="text/css">*{stroke-linecap:butt;stroke-linejoin:round;}</style>
 </defs>
 <g id="figure_1">
  <g id="patch_1">
   <path d="M 0 99.925  L 161.62625 99.925  L 161.62625 0  L 0 0  z " style="fill:none;"/>
  </g>
  <g id="axes_1">
   <g id="patch_2">
    <path d="M 42.82625 66.24  L 154.42625 66.24  L 154.42625 10.8  L 42.82625 10.8  z " style="fill:#ffffff;"/>
   </g>
   <g id="patch_3">
    <path clip-path="url(#p6e573499e4)" d="M 47.898977 31.225816  L 49.562167 31.225816  L 49.562167 13.32  L 47.898977 13.32  z "/>
   </g>
   <g id="patch_4">
    <path clip-path="url(#p6e573499e4)" d="M 51.225356 31.225816  L 52.888545 31.225816  L 52.888545 28.697648  L 51.225356 28.697648  z "/>
   </g>
   <g id="patch_5">
    <path clip-path="url(#p6e573499e4)" d="M 54.551734 31.225816  L 56.214924 31.225816  L 56.214924 33.257128  L 54.551734 33.257128  z "/>
   </g>
   <g id="patch_6">
    <path clip-path="url(#p6e573499e4)" d="M 57.878113 31.225816  L 59.541302 31.225816  L 59.541302 34.081895  L 57.878113 34.081895  z "/>
   </g>
   <g id="patch_7">
    <path clip-path="url(#p6e573499e4)" d="M 61.204491 31.225816  L 62.867681 31.225816  L 62.867681 34.636961  L 61.204491 34.636961  z "/>
   </g>
   <g id="patch_8">
    <path clip-path="url(#p6e573499e4)" d="M 64.53087 31.225816  L 66.194059 31.225816  L 66.194059 34.889321  L 64.53087 34.889321  z "/>
   </g>
   <g id="patch_9">
    <path clip-path="url(#p6e573499e4)" d="M 67.857249 31.225816  L 69.520438 31.225816  L 69.520438 35.404775  L 67.857249 35.404775  z "/>
   </g>
   <g id="patch_10">
    <path clip-path="url(#p6e573499e4)" d="M 71.183627 31.225816  L 72.846816 31.225816  L 72.846816 36.049994  L 71.183627 36.049994  z "/>
   </g>
   <g id="patch_11">
    <path clip-path="url(#p6e573499e4)" d="M 74.510006 31.225816  L 76.173195 31.225816  L 76.173195 36.335817  L 74.510006 36.335817  z "/>
   </g>
   <g id="patch_12">
    <path clip-path="url(#p6e573499e4)" d="M 77.836384 31.225816  L 79.499573 31.225816  L 79.499573 36.479408  L 77.836384 36.479408  z "/>
   </g>
   <g id="patch_13">
    <path clip-path="url(#p6e573499e4)" d="M 81.162763 31.225816  L 82.825952 31.225816  L 82.825952 36.781657  L 81.162763 36.781657  z "/>
   </g>
   <g id="patch_14">
    <path clip-path="url(#p6e573499e4)" d="M 84.489141 31.225816  L 86.15233 31.225816  L 86.15233 37.836596  L 84.489141 37.836596  z "/>
   </g>
   <g id="patch_15">
    <path clip-path="url(#p6e573499e4)" d="M 87.81552 31.225816  L 89.478709 31.225816  L 89.478709 38.083666  L 87.81552 38.083666  z "/>
   </g>
   <g id="patch_16">
    <path clip-path="url(#p6e573499e4)" d="M 91.141898 31.225816  L 92.805088 31.225816  L 92.805088 39.042521  L 91.141898 39.042521  z "/>
   </g>
   <g id="patch_17">
    <path clip-path="url(#p6e573499e4)" d="M 94.468277 31.225816  L 96.131466 31.225816  L 96.131466 39.736589  L 94.468277 39.736589  z "/>
   </g>
   <g id="patch_18">
    <path clip-path="url(#p6e573499e4)" d="M 97.794655 31.225816  L 99.457845 31.225816  L 99.457845 40.438744  L 97.794655 40.438744  z "/>
   </g>
   <g id="patch_19">
    <path clip-path="url(#p6e573499e4)" d="M 101.121034 31.225816  L 102.784223 31.225816  L 102.784223 40.982817  L 101.121034 40.982817  z "/>
   </g>
   <g id="patch_20">
    <path clip-path="url(#p6e573499e4)" d="M 104.447412 31.225816  L 106.110602 31.225816  L 106.110602 41.654187  L 104.447412 41.654187  z "/>
   </g>
   <g id="patch_21">
    <path clip-path="url(#p6e573499e4)" d="M 107.773791 31.225816  L 109.43698 31.225816  L 109.43698 41.998743  L 107.773791 41.998743  z "/>
   </g>
   <g id="patch_22">
    <path clip-path="url(#p6e573499e4)" d="M 111.10017 31.225816  L 112.763359 31.225816  L 112.763359 43.052267  L 111.10017 43.052267  z "/>
   </g>
   <g id="patch_23">
    <path clip-path="url(#p6e573499e4)" d="M 114.426548 31.225816  L 116.089737 31.225816  L 116.089737 50.319208  L 114.426548 50.319208  z "/>
   </g>
   <g id="patch_24">
    <path clip-path="url(#p6e573499e4)" d="M 117.752927 31.225816  L 119.416116 31.225816  L 119.416116 52.530004  L 117.752927 52.530004  z "/>
   </g>
   <g id="patch_25">
    <path clip-path="url(#p6e573499e4)" d="M 121.079305 31.225816  L 122.742494 31.225816  L 122.742494 52.936582  L 121.079305 52.936582  z "/>
   </g>
   <g id="patch_26">
    <path clip-path="url(#p6e573499e4)" d="M 124.405684 31.225816  L 126.068873 31.225816  L 126.068873 53.705254  L 124.405684 53.705254  z "/>
   </g>
   <g id="patch_27">
    <path clip-path="url(#p6e573499e4)" d="M 127.732062 31.225816  L 129.395251 31.225816  L 129.395251 56.918874  L 127.732062 56.918874  z "/>
   </g>
   <g id="patch_28">
    <path clip-path="url(#p6e573499e4)" d="M 131.058441 31.225816  L 132.72163 31.225816  L 132.72163 63.72  L 131.058441 63.72  z "/>
   </g>
   <g id="patch_29">
    <path clip-path="url(#p6e573499e4)" d="M 134.384819 31.225816  L 136.048009 31.225816  L 136.048009 57.654576  L 134.384819 57.654576  z "/>
   </g>
   <g id="patch_30">
    <path clip-path="url(#p6e573499e4)" d="M 137.711198 31.225816  L 139.374387 31.225816  L 139.374387 55.719879  L 137.711198 55.719879  z "/>
   </g>
   <g id="patch_31">
    <path clip-path="url(#p6e573499e4)" d="M 141.037576 31.225816  L 142.700766 31.225816  L 142.700766 54.892077  L 141.037576 54.892077  z "/>
   </g>
   <g id="patch_32">
    <path clip-path="url(#p6e573499e4)" d="M 144.363955 31.225816  L 146.027144 31.225816  L 146.027144 52.441028  L 144.363955 52.441028  z "/>
   </g>
   <g id="patch_33">
    <path clip-path="url(#p6e573499e4)" d="M 147.690333 31.225816  L 149.353523 31.225816  L 149.353523 50.663211  L 147.690333 50.663211  z "/>
   </g>
   <g id="matplotlib.axis_1">
    <g id="xtick_1">
     <g id="line2d_1">
      <defs>
       <path d="M 0 0  L 0 3.5  " id="m2b20a325a4" style="stroke:#000000;stroke-width:1.5;"/>
      </defs>
      <g>
       <use style="stroke:#000000;stroke-width:1.5;" x="48.730572" xlink:href="#m2b20a325a4" y="66.24"/>
      </g>
     </g>
     <g id="text_1">
      <text style="font-family:DejaVu Sans;font-size:8px;font-stretch:normal;font-style:normal;font-weight:normal;text-anchor:middle;" transform="rotate(-0, 48.730572, 79.31875)" x="48.730572" y="79.31875">0</text>
     </g>
    </g>
    <g id="xtick_2">
     <g id="line2d_2">
      <g>
       <use style="stroke:#000000;stroke-width:1.5;" x="81.994357" xlink:href="#m2b20a325a4" y="66.24"/>
      </g>
     </g>
     <g id="text_2">
      <text style="font-family:DejaVu Sans;font-size:8px;font-stretch:normal;font-style:normal;font-weight:normal;text-anchor:middle;" transform="rotate(-0, 81.994357, 79.31875)" x="81.994357" y="79.31875">10</text>
     </g>
    </g>
    <g id="xtick_3">
     <g id="line2d_3">
      <g>
       <use style="stroke:#000000;stroke-width:1.5;" x="115.258143" xlink:href="#m2b20a325a4" y="66.24"/>
      </g>
     </g>
     <g id="text_3">
      <text style="font-family:DejaVu Sans;font-size:8px;font-stretch:normal;font-style:normal;font-weight:normal;text-anchor:middle;" transform="rotate(-0, 115.258143, 79.31875)" x="115.258143" y="79.31875">20</text>
     </g>
    </g>
    <g id="xtick_4">
     <g id="line2d_4">
      <g>
       <use style="stroke:#000000;stroke-width:1.5;" x="148.521928" xlink:href="#m2b20a325a4" y="66.24"/>
      </g>
     </g>
     <g id="text_4">
      <text style="font-family:DejaVu Sans;font-size:8px;font-stretch:normal;font-style:normal;font-weight:normal;text-anchor:middle;" transform="rotate(-0, 148.521928, 79.31875)" x="148.521928" y="79.31875">30</text>
     </g>
    </g>
    <g id="text_5">
     <text style="font-family:DejaVu Sans;font-size:8px;font-stretch:normal;font-style:normal;font-weight:normal;text-anchor:middle;" transform="rotate(-0, 98.62625, 91.06125)" x="98.62625" y="91.06125">Dimension</text>
    </g>
   </g>
   <g id="matplotlib.axis_2">
    <g id="ytick_1">
     <g id="line2d_5">
      <defs>
       <path d="M 0 0  L -3.5 0  " id="m0f798a6727" style="stroke:#000000;stroke-width:1.5;"/>
      </defs>
      <g>
       <use style="stroke:#000000;stroke-width:1.5;" x="42.82625" xlink:href="#m0f798a6727" y="53.802414"/>
      </g>
     </g>
     <g id="text_6">
      <text style="font-family:DejaVu Sans;font-size:8px;font-stretch:normal;font-style:normal;font-weight:normal;text-anchor:end;" transform="rotate(-0, 35.82625, 56.841789)" x="35.82625" y="56.841789">&#8722;10</text>
     </g>
    </g>
    <g id="ytick_2">
     <g id="line2d_6">
      <g>
       <use style="stroke:#000000;stroke-width:1.5;" x="42.82625" xlink:href="#m0f798a6727" y="31.225816"/>
      </g>
     </g>
     <g id="text_7">
      <text style="font-family:DejaVu Sans;font-size:8px;font-stretch:normal;font-style:normal;font-weight:normal;text-anchor:end;" transform="rotate(-0, 35.82625, 34.265191)" x="35.82625" y="34.265191">0</text>
     </g>
    </g>
    <g id="text_8">
     <text style="font-family:DejaVu Sans;font-size:8px;font-stretch:normal;font-style:normal;font-weight:normal;text-anchor:middle;" transform="rotate(-90, 13.27875, 38.52)" x="13.27875" y="38.52">log(Eigenvalue)</text>
    </g>
   </g>
   <g id="patch_34">
    <path d="M 42.82625 66.24  L 42.82625 10.8  " style="fill:none;stroke:#000000;stroke-linecap:square;stroke-linejoin:miter;stroke-width:1.5;"/>
   </g>
   <g id="patch_35">
    <path d="M 42.82625 66.24  L 154.42625 66.24  " style="fill:none;stroke:#000000;stroke-linecap:square;stroke-linejoin:miter;stroke-width:1.5;"/>
   </g>
  </g>
 </g>
 <defs>
  <clipPath id="p6e573499e4">
   <rect height="55.44" width="111.6" x="42.82625" y="10.8"/>
  </clipPath>
 </defs>
</g>
    </g>
    <g transform="translate(220.0, 0.0) scale(1) ">
      <g transform="translate(0, 0.0) scale(1) translate(0, 0) scale(1.25) "><metadata>
  <rdf:RDF xmlns:cc="http://creativecommons.org/ns#" xmlns:dc="http://purl.org/dc/elements/1.1/" xmlns:rdf="http://www.w3.org/1999/02/22-rdf-syntax-ns#">
   <cc:Work>
    <dc:type rdf:resource="http://purl.org/dc/dcmitype/StillImage"/>
    <dc:date>2020-12-17T12:24:34.227818</dc:date>
    <dc:format>image/svg+xml</dc:format>
    <dc:creator>
     <cc:Agent>
      <dc:title>Matplotlib v3.3.2, https://matplotlib.org/</dc:title>
     </cc:Agent>
    </dc:creator>
   </cc:Work>
  </rdf:RDF>
 </metadata>
 <defs>
  <style type="text/css">*{stroke-linecap:butt;stroke-linejoin:round;}</style>
 </defs>
 <g id="figure_1">
  <g id="patch_1">
   <path d="M 0 99.364375  L 150.46625 99.364375  L 150.46625 0  L 0 0  z " style="fill:none;"/>
  </g>
  <g id="axes_1">
   <g id="patch_2">
    <path d="M 42.82625 65.679375  L 143.26625 65.679375  L 143.26625 10.239375  L 42.82625 10.239375  z " style="fill:#ffffff;"/>
   </g>
   <g id="patch_3">
    <path clip-path="url(#p26aee08005)" d="M 47.391705 10.239375  L 48.888575 10.239375  L 48.888575 16.796463  L 47.391705 16.796463  z "/>
   </g>
   <g id="patch_4">
    <path clip-path="url(#p26aee08005)" d="M 50.385445 10.239375  L 51.882316 10.239375  L 51.882316 25.017965  L 50.385445 25.017965  z "/>
   </g>
   <g id="patch_5">
    <path clip-path="url(#p26aee08005)" d="M 53.379186 10.239375  L 54.876056 10.239375  L 54.876056 29.434492  L 53.379186 29.434492  z "/>
   </g>
   <g id="patch_6">
    <path clip-path="url(#p26aee08005)" d="M 56.372927 10.239375  L 57.869797 10.239375  L 57.869797 32.169095  L 56.372927 32.169095  z "/>
   </g>
   <g id="patch_7">
    <path clip-path="url(#p26aee08005)" d="M 59.366667 10.239375  L 60.863538 10.239375  L 60.863538 32.465356  L 59.366667 32.465356  z "/>
   </g>
   <g id="patch_8">
    <path clip-path="url(#p26aee08005)" d="M 62.360408 10.239375  L 63.857278 10.239375  L 63.857278 33.288778  L 62.360408 33.288778  z "/>
   </g>
   <g id="patch_9">
    <path clip-path="url(#p26aee08005)" d="M 65.354149 10.239375  L 66.851019 10.239375  L 66.851019 34.005457  L 65.354149 34.005457  z "/>
   </g>
   <g id="patch_10">
    <path clip-path="url(#p26aee08005)" d="M 68.347889 10.239375  L 69.84476 10.239375  L 69.84476 34.36958  L 68.347889 34.36958  z "/>
   </g>
   <g id="patch_11">
    <path clip-path="url(#p26aee08005)" d="M 71.34163 10.239375  L 72.8385 10.239375  L 72.8385 34.785619  L 71.34163 34.785619  z "/>
   </g>
   <g id="patch_12">
    <path clip-path="url(#p26aee08005)" d="M 74.335371 10.239375  L 75.832241 10.239375  L 75.832241 35.128972  L 74.335371 35.128972  z "/>
   </g>
   <g id="patch_13">
    <path clip-path="url(#p26aee08005)" d="M 77.329111 10.239375  L 78.825982 10.239375  L 78.825982 35.730042  L 77.329111 35.730042  z "/>
   </g>
   <g id="patch_14">
    <path clip-path="url(#p26aee08005)" d="M 80.322852 10.239375  L 81.819722 10.239375  L 81.819722 36.577699  L 80.322852 36.577699  z "/>
   </g>
   <g id="patch_15">
    <path clip-path="url(#p26aee08005)" d="M 83.316593 10.239375  L 84.813463 10.239375  L 84.813463 36.892061  L 83.316593 36.892061  z "/>
   </g>
   <g id="patch_16">
    <path clip-path="url(#p26aee08005)" d="M 86.310333 10.239375  L 87.807204 10.239375  L 87.807204 37.078814  L 86.310333 37.078814  z "/>
   </g>
   <g id="patch_17">
    <path clip-path="url(#p26aee08005)" d="M 89.304074 10.239375  L 90.800944 10.239375  L 90.800944 37.466135  L 89.304074 37.466135  z "/>
   </g>
   <g id="patch_18">
    <path clip-path="url(#p26aee08005)" d="M 92.297815 10.239375  L 93.794685 10.239375  L 93.794685 37.765425  L 92.297815 37.765425  z "/>
   </g>
   <g id="patch_19">
    <path clip-path="url(#p26aee08005)" d="M 95.291556 10.239375  L 96.788426 10.239375  L 96.788426 39.053217  L 95.291556 39.053217  z "/>
   </g>
   <g id="patch_20">
    <path clip-path="url(#p26aee08005)" d="M 98.285296 10.239375  L 99.782167 10.239375  L 99.782167 39.087267  L 98.285296 39.087267  z "/>
   </g>
   <g id="patch_21">
    <path clip-path="url(#p26aee08005)" d="M 101.279037 10.239375  L 102.775907 10.239375  L 102.775907 39.544078  L 101.279037 39.544078  z "/>
   </g>
   <g id="patch_22">
    <path clip-path="url(#p26aee08005)" d="M 104.272778 10.239375  L 105.769648 10.239375  L 105.769648 40.452921  L 104.272778 40.452921  z "/>
   </g>
   <g id="patch_23">
    <path clip-path="url(#p26aee08005)" d="M 107.266518 10.239375  L 108.763389 10.239375  L 108.763389 48.723074  L 107.266518 48.723074  z "/>
   </g>
   <g id="patch_24">
    <path clip-path="url(#p26aee08005)" d="M 110.260259 10.239375  L 111.757129 10.239375  L 111.757129 51.010114  L 110.260259 51.010114  z "/>
   </g>
   <g id="patch_25">
    <path clip-path="url(#p26aee08005)" d="M 113.254 10.239375  L 114.75087 10.239375  L 114.75087 52.519443  L 113.254 52.519443  z "/>
   </g>
   <g id="patch_26">
    <path clip-path="url(#p26aee08005)" d="M 116.24774 10.239375  L 117.744611 10.239375  L 117.744611 56.363488  L 116.24774 56.363488  z "/>
   </g>
   <g id="patch_27">
    <path clip-path="url(#p26aee08005)" d="M 119.241481 10.239375  L 120.738351 10.239375  L 120.738351 56.821466  L 119.241481 56.821466  z "/>
   </g>
   <g id="patch_28">
    <path clip-path="url(#p26aee08005)" d="M 122.235222 10.239375  L 123.732092 10.239375  L 123.732092 60.100581  L 122.235222 60.100581  z "/>
   </g>
   <g id="patch_29">
    <path clip-path="url(#p26aee08005)" d="M 125.228962 10.239375  L 126.725833 10.239375  L 126.725833 62.38689  L 125.228962 62.38689  z "/>
   </g>
   <g id="patch_30">
    <path clip-path="url(#p26aee08005)" d="M 128.222703 10.239375  L 129.719573 10.239375  L 129.719573 63.039375  L 128.222703 63.039375  z "/>
   </g>
   <g id="patch_31">
    <path clip-path="url(#p26aee08005)" d="M 131.216444 10.239375  L 132.713314 10.239375  L 132.713314 59.304074  L 131.216444 59.304074  z "/>
   </g>
   <g id="patch_32">
    <path clip-path="url(#p26aee08005)" d="M 134.210184 10.239375  L 135.707055 10.239375  L 135.707055 57.716701  L 134.210184 57.716701  z "/>
   </g>
   <g id="patch_33">
    <path clip-path="url(#p26aee08005)" d="M 137.203925 10.239375  L 138.700795 10.239375  L 138.700795 51.605333  L 137.203925 51.605333  z "/>
   </g>
   <g id="matplotlib.axis_1">
    <g id="xtick_1">
     <g id="line2d_1">
      <defs>
       <path d="M 0 0  L 0 3.5  " id="m426155ce5e" style="stroke:#000000;stroke-width:1.5;"/>
      </defs>
      <g>
       <use style="stroke:#000000;stroke-width:1.5;" x="48.14014" xlink:href="#m426155ce5e" y="65.679375"/>
      </g>
     </g>
     <g id="text_1">
      <text style="font-family:DejaVu Sans;font-size:8px;font-stretch:normal;font-style:normal;font-weight:normal;text-anchor:middle;" transform="rotate(-0, 48.14014, 78.758125)" x="48.14014" y="78.758125">0</text>
     </g>
    </g>
    <g id="xtick_2">
     <g id="line2d_2">
      <g>
       <use style="stroke:#000000;stroke-width:1.5;" x="78.077547" xlink:href="#m426155ce5e" y="65.679375"/>
      </g>
     </g>
     <g id="text_2">
      <text style="font-family:DejaVu Sans;font-size:8px;font-stretch:normal;font-style:normal;font-weight:normal;text-anchor:middle;" transform="rotate(-0, 78.077547, 78.758125)" x="78.077547" y="78.758125">10</text>
     </g>
    </g>
    <g id="xtick_3">
     <g id="line2d_3">
      <g>
       <use style="stroke:#000000;stroke-width:1.5;" x="108.014953" xlink:href="#m426155ce5e" y="65.679375"/>
      </g>
     </g>
     <g id="text_3">
      <text style="font-family:DejaVu Sans;font-size:8px;font-stretch:normal;font-style:normal;font-weight:normal;text-anchor:middle;" transform="rotate(-0, 108.014953, 78.758125)" x="108.014953" y="78.758125">20</text>
     </g>
    </g>
    <g id="xtick_4">
     <g id="line2d_4">
      <g>
       <use style="stroke:#000000;stroke-width:1.5;" x="137.95236" xlink:href="#m426155ce5e" y="65.679375"/>
      </g>
     </g>
     <g id="text_4">
      <text style="font-family:DejaVu Sans;font-size:8px;font-stretch:normal;font-style:normal;font-weight:normal;text-anchor:middle;" transform="rotate(-0, 137.95236, 78.758125)" x="137.95236" y="78.758125">30</text>
     </g>
    </g>
    <g id="text_5">
     <text style="font-family:DejaVu Sans;font-size:8px;font-stretch:normal;font-style:normal;font-weight:normal;text-anchor:middle;" transform="rotate(-0, 93.04625, 90.500625)" x="93.04625" y="90.500625">Dimension</text>
    </g>
   </g>
   <g id="matplotlib.axis_2">
    <g id="ytick_1">
     <g id="line2d_5">
      <defs>
       <path d="M 0 0  L -3.5 0  " id="mcbee180a88" style="stroke:#000000;stroke-width:1.5;"/>
      </defs>
      <g>
       <use style="stroke:#000000;stroke-width:1.5;" x="42.82625" xlink:href="#mcbee180a88" y="47.959961"/>
      </g>
     </g>
     <g id="text_6">
      <text style="font-family:DejaVu Sans;font-size:8px;font-stretch:normal;font-style:normal;font-weight:normal;text-anchor:end;" transform="rotate(-0, 35.82625, 50.999336)" x="35.82625" y="50.999336">&#8722;20</text>
     </g>
    </g>
    <g id="ytick_2">
     <g id="line2d_6">
      <g>
       <use style="stroke:#000000;stroke-width:1.5;" x="42.82625" xlink:href="#mcbee180a88" y="29.099668"/>
      </g>
     </g>
     <g id="text_7">
      <text style="font-family:DejaVu Sans;font-size:8px;font-stretch:normal;font-style:normal;font-weight:normal;text-anchor:end;" transform="rotate(-0, 35.82625, 32.139043)" x="35.82625" y="32.139043">&#8722;10</text>
     </g>
    </g>
    <g id="ytick_3">
     <g id="line2d_7">
      <g>
       <use style="stroke:#000000;stroke-width:1.5;" x="42.82625" xlink:href="#mcbee180a88" y="10.239375"/>
      </g>
     </g>
     <g id="text_8">
      <text style="font-family:DejaVu Sans;font-size:8px;font-stretch:normal;font-style:normal;font-weight:normal;text-anchor:end;" transform="rotate(-0, 35.82625, 13.27875)" x="35.82625" y="13.27875">0</text>
     </g>
    </g>
    <g id="text_9">
     <text style="font-family:DejaVu Sans;font-size:8px;font-stretch:normal;font-style:normal;font-weight:normal;text-anchor:middle;" transform="rotate(-90, 13.27875, 37.959375)" x="13.27875" y="37.959375">log(E.-value)</text>
    </g>
   </g>
   <g id="patch_34">
    <path d="M 42.82625 65.679375  L 42.82625 10.239375  " style="fill:none;stroke:#000000;stroke-linecap:square;stroke-linejoin:miter;stroke-width:1.5;"/>
   </g>
   <g id="patch_35">
    <path d="M 42.82625 65.679375  L 143.26625 65.679375  " style="fill:none;stroke:#000000;stroke-linecap:square;stroke-linejoin:miter;stroke-width:1.5;"/>
   </g>
  </g>
 </g>
 <defs>
  <clipPath id="p26aee08005">
   <rect height="55.44" width="100.44" x="42.82625" y="10.239375"/>
  </clipPath>
 </defs>
</g>
    </g>
    <g transform="translate(440.0, 0.0) scale(1) ">
      <g transform="translate(0, 0.0) scale(1) translate(0, 0) scale(1.25) "><metadata>
  <rdf:RDF xmlns:cc="http://creativecommons.org/ns#" xmlns:dc="http://purl.org/dc/elements/1.1/" xmlns:rdf="http://www.w3.org/1999/02/22-rdf-syntax-ns#">
   <cc:Work>
    <dc:type rdf:resource="http://purl.org/dc/dcmitype/StillImage"/>
    <dc:date>2020-12-17T12:24:55.452353</dc:date>
    <dc:format>image/svg+xml</dc:format>
    <dc:creator>
     <cc:Agent>
      <dc:title>Matplotlib v3.3.2, https://matplotlib.org/</dc:title>
     </cc:Agent>
    </dc:creator>
   </cc:Work>
  </rdf:RDF>
 </metadata>
 <defs>
  <style type="text/css">*{stroke-linecap:butt;stroke-linejoin:round;}</style>
 </defs>
 <g id="figure_1">
  <g id="patch_1">
   <path d="M 0 99.364375  L 150.46625 99.364375  L 150.46625 0  L 0 0  z " style="fill:none;"/>
  </g>
  <g id="axes_1">
   <g id="patch_2">
    <path d="M 42.82625 65.679375  L 143.26625 65.679375  L 143.26625 10.239375  L 42.82625 10.239375  z " style="fill:#ffffff;"/>
   </g>
   <g id="patch_3">
    <path clip-path="url(#pcd017f24c8)" d="M 47.391705 10.239375  L 48.888575 10.239375  L 48.888575 25.787592  L 47.391705 25.787592  z "/>
   </g>
   <g id="patch_4">
    <path clip-path="url(#pcd017f24c8)" d="M 50.385445 10.239375  L 51.882316 10.239375  L 51.882316 31.995076  L 50.385445 31.995076  z "/>
   </g>
   <g id="patch_5">
    <path clip-path="url(#pcd017f24c8)" d="M 53.379186 10.239375  L 54.876056 10.239375  L 54.876056 34.289712  L 53.379186 34.289712  z "/>
   </g>
   <g id="patch_6">
    <path clip-path="url(#pcd017f24c8)" d="M 56.372927 10.239375  L 57.869797 10.239375  L 57.869797 36.564762  L 56.372927 36.564762  z "/>
   </g>
   <g id="patch_7">
    <path clip-path="url(#pcd017f24c8)" d="M 59.366667 10.239375  L 60.863538 10.239375  L 60.863538 37.585282  L 59.366667 37.585282  z "/>
   </g>
   <g id="patch_8">
    <path clip-path="url(#pcd017f24c8)" d="M 62.360408 10.239375  L 63.857278 10.239375  L 63.857278 38.167333  L 62.360408 38.167333  z "/>
   </g>
   <g id="patch_9">
    <path clip-path="url(#pcd017f24c8)" d="M 65.354149 10.239375  L 66.851019 10.239375  L 66.851019 38.607238  L 65.354149 38.607238  z "/>
   </g>
   <g id="patch_10">
    <path clip-path="url(#pcd017f24c8)" d="M 68.347889 10.239375  L 69.84476 10.239375  L 69.84476 38.979719  L 68.347889 38.979719  z "/>
   </g>
   <g id="patch_11">
    <path clip-path="url(#pcd017f24c8)" d="M 71.34163 10.239375  L 72.8385 10.239375  L 72.8385 39.229462  L 71.34163 39.229462  z "/>
   </g>
   <g id="patch_12">
    <path clip-path="url(#pcd017f24c8)" d="M 74.335371 10.239375  L 75.832241 10.239375  L 75.832241 39.484187  L 74.335371 39.484187  z "/>
   </g>
   <g id="patch_13">
    <path clip-path="url(#pcd017f24c8)" d="M 77.329111 10.239375  L 78.825982 10.239375  L 78.825982 39.823737  L 77.329111 39.823737  z "/>
   </g>
   <g id="patch_14">
    <path clip-path="url(#pcd017f24c8)" d="M 80.322852 10.239375  L 81.819722 10.239375  L 81.819722 40.209524  L 80.322852 40.209524  z "/>
   </g>
   <g id="patch_15">
    <path clip-path="url(#pcd017f24c8)" d="M 83.316593 10.239375  L 84.813463 10.239375  L 84.813463 40.664905  L 83.316593 40.664905  z "/>
   </g>
   <g id="patch_16">
    <path clip-path="url(#pcd017f24c8)" d="M 86.310333 10.239375  L 87.807204 10.239375  L 87.807204 41.679377  L 86.310333 41.679377  z "/>
   </g>
   <g id="patch_17">
    <path clip-path="url(#pcd017f24c8)" d="M 89.304074 10.239375  L 90.800944 10.239375  L 90.800944 41.834814  L 89.304074 41.834814  z "/>
   </g>
   <g id="patch_18">
    <path clip-path="url(#pcd017f24c8)" d="M 92.297815 10.239375  L 93.794685 10.239375  L 93.794685 42.182208  L 92.297815 42.182208  z "/>
   </g>
   <g id="patch_19">
    <path clip-path="url(#pcd017f24c8)" d="M 95.291556 10.239375  L 96.788426 10.239375  L 96.788426 42.682625  L 95.291556 42.682625  z "/>
   </g>
   <g id="patch_20">
    <path clip-path="url(#pcd017f24c8)" d="M 98.285296 10.239375  L 99.782167 10.239375  L 99.782167 43.62496  L 98.285296 43.62496  z "/>
   </g>
   <g id="patch_21">
    <path clip-path="url(#pcd017f24c8)" d="M 101.279037 10.239375  L 102.775907 10.239375  L 102.775907 44.372591  L 101.279037 44.372591  z "/>
   </g>
   <g id="patch_22">
    <path clip-path="url(#pcd017f24c8)" d="M 104.272778 10.239375  L 105.769648 10.239375  L 105.769648 44.651519  L 104.272778 44.651519  z "/>
   </g>
   <g id="patch_23">
    <path clip-path="url(#pcd017f24c8)" d="M 107.266518 10.239375  L 108.763389 10.239375  L 108.763389 52.231495  L 107.266518 52.231495  z "/>
   </g>
   <g id="patch_24">
    <path clip-path="url(#pcd017f24c8)" d="M 110.260259 10.239375  L 111.757129 10.239375  L 111.757129 57.022558  L 110.260259 57.022558  z "/>
   </g>
   <g id="patch_25">
    <path clip-path="url(#pcd017f24c8)" d="M 113.254 10.239375  L 114.75087 10.239375  L 114.75087 58.427618  L 113.254 58.427618  z "/>
   </g>
   <g id="patch_26">
    <path clip-path="url(#pcd017f24c8)" d="M 116.24774 10.239375  L 117.744611 10.239375  L 117.744611 63.039375  L 116.24774 63.039375  z "/>
   </g>
   <g id="patch_27">
    <path clip-path="url(#pcd017f24c8)" d="M 119.241481 10.239375  L 120.738351 10.239375  L 120.738351 60.209469  L 119.241481 60.209469  z "/>
   </g>
   <g id="patch_28">
    <path clip-path="url(#pcd017f24c8)" d="M 122.235222 10.239375  L 123.732092 10.239375  L 123.732092 58.045737  L 122.235222 58.045737  z "/>
   </g>
   <g id="patch_29">
    <path clip-path="url(#pcd017f24c8)" d="M 125.228962 10.239375  L 126.725833 10.239375  L 126.725833 57.213217  L 125.228962 57.213217  z "/>
   </g>
   <g id="patch_30">
    <path clip-path="url(#pcd017f24c8)" d="M 128.222703 10.239375  L 129.719573 10.239375  L 129.719573 55.527906  L 128.222703 55.527906  z "/>
   </g>
   <g id="patch_31">
    <path clip-path="url(#pcd017f24c8)" d="M 131.216444 10.239375  L 132.713314 10.239375  L 132.713314 53.862757  L 131.216444 53.862757  z "/>
   </g>
   <g id="patch_32">
    <path clip-path="url(#pcd017f24c8)" d="M 134.210184 10.239375  L 135.707055 10.239375  L 135.707055 52.69773  L 134.210184 52.69773  z "/>
   </g>
   <g id="patch_33">
    <path clip-path="url(#pcd017f24c8)" d="M 137.203925 10.239375  L 138.700795 10.239375  L 138.700795 50.930457  L 137.203925 50.930457  z "/>
   </g>
   <g id="matplotlib.axis_1">
    <g id="xtick_1">
     <g id="line2d_1">
      <defs>
       <path d="M 0 0  L 0 3.5  " id="m20f1626b80" style="stroke:#000000;stroke-width:1.5;"/>
      </defs>
      <g>
       <use style="stroke:#000000;stroke-width:1.5;" x="48.14014" xlink:href="#m20f1626b80" y="65.679375"/>
      </g>
     </g>
     <g id="text_1">
      <text style="font-family:DejaVu Sans;font-size:8px;font-stretch:normal;font-style:normal;font-weight:normal;text-anchor:middle;" transform="rotate(-0, 48.14014, 78.758125)" x="48.14014" y="78.758125">0</text>
     </g>
    </g>
    <g id="xtick_2">
     <g id="line2d_2">
      <g>
       <use style="stroke:#000000;stroke-width:1.5;" x="78.077547" xlink:href="#m20f1626b80" y="65.679375"/>
      </g>
     </g>
     <g id="text_2">
      <text style="font-family:DejaVu Sans;font-size:8px;font-stretch:normal;font-style:normal;font-weight:normal;text-anchor:middle;" transform="rotate(-0, 78.077547, 78.758125)" x="78.077547" y="78.758125">10</text>
     </g>
    </g>
    <g id="xtick_3">
     <g id="line2d_3">
      <g>
       <use style="stroke:#000000;stroke-width:1.5;" x="108.014953" xlink:href="#m20f1626b80" y="65.679375"/>
      </g>
     </g>
     <g id="text_3">
      <text style="font-family:DejaVu Sans;font-size:8px;font-stretch:normal;font-style:normal;font-weight:normal;text-anchor:middle;" transform="rotate(-0, 108.014953, 78.758125)" x="108.014953" y="78.758125">20</text>
     </g>
    </g>
    <g id="xtick_4">
     <g id="line2d_4">
      <g>
       <use style="stroke:#000000;stroke-width:1.5;" x="137.95236" xlink:href="#m20f1626b80" y="65.679375"/>
      </g>
     </g>
     <g id="text_4">
      <text style="font-family:DejaVu Sans;font-size:8px;font-stretch:normal;font-style:normal;font-weight:normal;text-anchor:middle;" transform="rotate(-0, 137.95236, 78.758125)" x="137.95236" y="78.758125">30</text>
     </g>
    </g>
    <g id="text_5">
     <text style="font-family:DejaVu Sans;font-size:8px;font-stretch:normal;font-style:normal;font-weight:normal;text-anchor:middle;" transform="rotate(-0, 93.04625, 90.500625)" x="93.04625" y="90.500625">Dimension</text>
    </g>
   </g>
   <g id="matplotlib.axis_2">
    <g id="ytick_1">
     <g id="line2d_5">
      <defs>
       <path d="M 0 0  L -3.5 0  " id="m84af055586" style="stroke:#000000;stroke-width:1.5;"/>
      </defs>
      <g>
       <use style="stroke:#000000;stroke-width:1.5;" x="42.82625" xlink:href="#m84af055586" y="40.714021"/>
      </g>
     </g>
     <g id="text_6">
      <text style="font-family:DejaVu Sans;font-size:8px;font-stretch:normal;font-style:normal;font-weight:normal;text-anchor:end;" transform="rotate(-0, 35.82625, 43.753396)" x="35.82625" y="43.753396">&#8722;20</text>
     </g>
    </g>
    <g id="ytick_2">
     <g id="line2d_6">
      <g>
       <use style="stroke:#000000;stroke-width:1.5;" x="42.82625" xlink:href="#m84af055586" y="10.239375"/>
      </g>
     </g>
     <g id="text_7">
      <text style="font-family:DejaVu Sans;font-size:8px;font-stretch:normal;font-style:normal;font-weight:normal;text-anchor:end;" transform="rotate(-0, 35.82625, 13.27875)" x="35.82625" y="13.27875">0</text>
     </g>
    </g>
    <g id="text_8">
     <text style="font-family:DejaVu Sans;font-size:8px;font-stretch:normal;font-style:normal;font-weight:normal;text-anchor:middle;" transform="rotate(-90, 13.27875, 37.959375)" x="13.27875" y="37.959375">log(E.-value)</text>
    </g>
   </g>
   <g id="patch_34">
    <path d="M 42.82625 65.679375  L 42.82625 10.239375  " style="fill:none;stroke:#000000;stroke-linecap:square;stroke-linejoin:miter;stroke-width:1.5;"/>
   </g>
   <g id="patch_35">
    <path d="M 42.82625 65.679375  L 143.26625 65.679375  " style="fill:none;stroke:#000000;stroke-linecap:square;stroke-linejoin:miter;stroke-width:1.5;"/>
   </g>
  </g>
 </g>
 <defs>
  <clipPath id="pcd017f24c8">
   <rect height="55.44" width="100.44" x="42.82625" y="10.239375"/>
  </clipPath>
 </defs>
</g>
    </g>
  </g>
</svg>
