<?xml version='1.0' encoding='ASCII' standalone='yes'?>
<svg xmlns="http://www.w3.org/2000/svg" xmlns:xlink="http://www.w3.org/1999/xlink" version="1.1" width="20.3cm" viewBox="0 0 20.3cm 3.2cm" height="3.2cm">
  <g>
    <g transform="translate(0.0, 11.55) scale(1) ">
      <g transform="translate(0, 0.0) scale(1) translate(0, 0) scale(1.25) "><metadata>
  <rdf:RDF xmlns:cc="http://creativecommons.org/ns#" xmlns:dc="http://purl.org/dc/elements/1.1/" xmlns:rdf="http://www.w3.org/1999/02/22-rdf-syntax-ns#">
   <cc:Work>
    <dc:type rdf:resource="http://purl.org/dc/dcmitype/StillImage"/>
    <dc:date>2021-01-07T18:31:29.094752</dc:date>
    <dc:format>image/svg+xml</dc:format>
    <dc:creator>
     <cc:Agent>
      <dc:title>Matplotlib v3.3.2, https://matplotlib.org/</dc:title>
     </cc:Agent>
    </dc:creator>
   </cc:Work>
  </rdf:RDF>
 </metadata>
 <defs>
  <style type="text/css">*{stroke-linecap:butt;stroke-linejoin:round;}</style>
 </defs>
 <g id="figure_1">
  <g id="patch_1">
   <path d="M 0 96.325  L 165.1025 96.325  L 165.1025 0  L 0 0  z " style="fill:none;"/>
  </g>
  <g id="axes_1">
   <g id="patch_2">
    <path d="M 46.3025 62.64  L 157.9025 62.64  L 157.9025 7.2  L 46.3025 7.2  z " style="fill:#ffffff;"/>
   </g>
   <g id="patch_3">
    <path clip-path="url(#p7ff61ecd64)" d="M 51.375227 62.64  L 53.038417 62.64  L 53.038417 9.84  L 51.375227 9.84  z "/>
   </g>
   <g id="patch_4">
    <path clip-path="url(#p7ff61ecd64)" d="M 54.701606 62.64  L 56.364795 62.64  L 56.364795 60.436079  L 54.701606 60.436079  z "/>
   </g>
   <g id="patch_5">
    <path clip-path="url(#p7ff61ecd64)" d="M 58.027984 62.64  L 59.691174 62.64  L 59.691174 61.237683  L 58.027984 61.237683  z "/>
   </g>
   <g id="patch_6">
    <path clip-path="url(#p7ff61ecd64)" d="M 61.354363 62.64  L 63.017552 62.64  L 63.017552 62.269147  L 61.354363 62.269147  z "/>
   </g>
   <g id="patch_7">
    <path clip-path="url(#p7ff61ecd64)" d="M 64.680741 62.64  L 66.343931 62.64  L 66.343931 62.353166  L 64.680741 62.353166  z "/>
   </g>
   <g id="patch_8">
    <path clip-path="url(#p7ff61ecd64)" d="M 68.00712 62.64  L 69.670309 62.64  L 69.670309 62.458273  L 68.00712 62.458273  z "/>
   </g>
   <g id="patch_9">
    <path clip-path="url(#p7ff61ecd64)" d="M 71.333499 62.64  L 72.996688 62.64  L 72.996688 62.473759  L 71.333499 62.473759  z "/>
   </g>
   <g id="patch_10">
    <path clip-path="url(#p7ff61ecd64)" d="M 74.659877 62.64  L 76.323066 62.64  L 76.323066 62.494147  L 74.659877 62.494147  z "/>
   </g>
   <g id="patch_11">
    <path clip-path="url(#p7ff61ecd64)" d="M 77.986256 62.64  L 79.649445 62.64  L 79.649445 62.557412  L 77.986256 62.557412  z "/>
   </g>
   <g id="patch_12">
    <path clip-path="url(#p7ff61ecd64)" d="M 81.312634 62.64  L 82.975823 62.64  L 82.975823 62.577816  L 81.312634 62.577816  z "/>
   </g>
   <g id="patch_13">
    <path clip-path="url(#p7ff61ecd64)" d="M 84.639013 62.64  L 86.302202 62.64  L 86.302202 62.599906  L 84.639013 62.599906  z "/>
   </g>
   <g id="patch_14">
    <path clip-path="url(#p7ff61ecd64)" d="M 87.965391 62.64  L 89.62858 62.64  L 89.62858 62.612212  L 87.965391 62.612212  z "/>
   </g>
   <g id="patch_15">
    <path clip-path="url(#p7ff61ecd64)" d="M 91.29177 62.64  L 92.954959 62.64  L 92.954959 62.612687  L 91.29177 62.612687  z "/>
   </g>
   <g id="patch_16">
    <path clip-path="url(#p7ff61ecd64)" d="M 94.618148 62.64  L 96.281338 62.64  L 96.281338 62.624239  L 94.618148 62.624239  z "/>
   </g>
   <g id="patch_17">
    <path clip-path="url(#p7ff61ecd64)" d="M 97.944527 62.64  L 99.607716 62.64  L 99.607716 62.630581  L 97.944527 62.630581  z "/>
   </g>
   <g id="patch_18">
    <path clip-path="url(#p7ff61ecd64)" d="M 101.270905 62.64  L 102.934095 62.64  L 102.934095 62.63426  L 101.270905 62.63426  z "/>
   </g>
   <g id="patch_19">
    <path clip-path="url(#p7ff61ecd64)" d="M 104.597284 62.64  L 106.260473 62.64  L 106.260473 62.634383  L 104.597284 62.634383  z "/>
   </g>
   <g id="patch_20">
    <path clip-path="url(#p7ff61ecd64)" d="M 107.923662 62.64  L 109.586852 62.64  L 109.586852 62.637697  L 107.923662 62.637697  z "/>
   </g>
   <g id="patch_21">
    <path clip-path="url(#p7ff61ecd64)" d="M 111.250041 62.64  L 112.91323 62.64  L 112.91323 62.638278  L 111.250041 62.638278  z "/>
   </g>
   <g id="patch_22">
    <path clip-path="url(#p7ff61ecd64)" d="M 114.57642 62.64  L 116.239609 62.64  L 116.239609 62.638913  L 114.57642 62.638913  z "/>
   </g>
   <g id="patch_23">
    <path clip-path="url(#p7ff61ecd64)" d="M 117.902798 62.64  L 119.565987 62.64  L 119.565987 62.639998  L 117.902798 62.639998  z "/>
   </g>
   <g id="patch_24">
    <path clip-path="url(#p7ff61ecd64)" d="M 121.229177 62.64  L 122.892366 62.64  L 122.892366 62.639999  L 121.229177 62.639999  z "/>
   </g>
   <g id="patch_25">
    <path clip-path="url(#p7ff61ecd64)" d="M 124.555555 62.64  L 126.218744 62.64  L 126.218744 62.64  L 124.555555 62.64  z "/>
   </g>
   <g id="patch_26">
    <path clip-path="url(#p7ff61ecd64)" d="M 127.881934 62.64  L 129.545123 62.64  L 129.545123 62.64  L 127.881934 62.64  z "/>
   </g>
   <g id="patch_27">
    <path clip-path="url(#p7ff61ecd64)" d="M 131.208312 62.64  L 132.871501 62.64  L 132.871501 62.64  L 131.208312 62.64  z "/>
   </g>
   <g id="patch_28">
    <path clip-path="url(#p7ff61ecd64)" d="M 134.534691 62.64  L 136.19788 62.64  L 136.19788 62.64  L 134.534691 62.64  z "/>
   </g>
   <g id="patch_29">
    <path clip-path="url(#p7ff61ecd64)" d="M 137.861069 62.64  L 139.524259 62.64  L 139.524259 62.64  L 137.861069 62.64  z "/>
   </g>
   <g id="patch_30">
    <path clip-path="url(#p7ff61ecd64)" d="M 141.187448 62.64  L 142.850637 62.64  L 142.850637 62.64  L 141.187448 62.64  z "/>
   </g>
   <g id="patch_31">
    <path clip-path="url(#p7ff61ecd64)" d="M 144.513826 62.64  L 146.177016 62.64  L 146.177016 62.64  L 144.513826 62.64  z "/>
   </g>
   <g id="patch_32">
    <path clip-path="url(#p7ff61ecd64)" d="M 147.840205 62.64  L 149.503394 62.64  L 149.503394 62.639998  L 147.840205 62.639998  z "/>
   </g>
   <g id="patch_33">
    <path clip-path="url(#p7ff61ecd64)" d="M 151.166583 62.64  L 152.829773 62.64  L 152.829773 62.639997  L 151.166583 62.639997  z "/>
   </g>
   <g id="matplotlib.axis_1">
    <g id="xtick_1">
     <g id="line2d_1">
      <defs>
       <path d="M 0 0  L 0 3.5  " id="m7d04677a8f" style="stroke:#000000;stroke-width:1.5;"/>
      </defs>
      <g>
       <use style="stroke:#000000;stroke-width:1.5;" x="52.206822" xlink:href="#m7d04677a8f" y="62.64"/>
      </g>
     </g>
     <g id="text_1">
      <text style="font-family:DejaVu Sans;font-size:8px;font-stretch:normal;font-style:normal;font-weight:normal;text-anchor:middle;" transform="rotate(-0, 52.206822, 75.71875)" x="52.206822" y="75.71875">0</text>
     </g>
    </g>
    <g id="xtick_2">
     <g id="line2d_2">
      <g>
       <use style="stroke:#000000;stroke-width:1.5;" x="85.470607" xlink:href="#m7d04677a8f" y="62.64"/>
      </g>
     </g>
     <g id="text_2">
      <text style="font-family:DejaVu Sans;font-size:8px;font-stretch:normal;font-style:normal;font-weight:normal;text-anchor:middle;" transform="rotate(-0, 85.470607, 75.71875)" x="85.470607" y="75.71875">10</text>
     </g>
    </g>
    <g id="xtick_3">
     <g id="line2d_3">
      <g>
       <use style="stroke:#000000;stroke-width:1.5;" x="118.734393" xlink:href="#m7d04677a8f" y="62.64"/>
      </g>
     </g>
     <g id="text_3">
      <text style="font-family:DejaVu Sans;font-size:8px;font-stretch:normal;font-style:normal;font-weight:normal;text-anchor:middle;" transform="rotate(-0, 118.734393, 75.71875)" x="118.734393" y="75.71875">20</text>
     </g>
    </g>
    <g id="xtick_4">
     <g id="line2d_4">
      <g>
       <use style="stroke:#000000;stroke-width:1.5;" x="151.998178" xlink:href="#m7d04677a8f" y="62.64"/>
      </g>
     </g>
     <g id="text_4">
      <text style="font-family:DejaVu Sans;font-size:8px;font-stretch:normal;font-style:normal;font-weight:normal;text-anchor:middle;" transform="rotate(-0, 151.998178, 75.71875)" x="151.998178" y="75.71875">30</text>
     </g>
    </g>
    <g id="text_5">
     <text style="font-family:DejaVu Sans;font-size:8px;font-stretch:normal;font-style:normal;font-weight:normal;text-anchor:middle;" transform="rotate(-0, 102.1025, 87.46125)" x="102.1025" y="87.46125">Dimension</text>
    </g>
   </g>
   <g id="matplotlib.axis_2">
    <g id="ytick_1">
     <g id="line2d_5">
      <defs>
       <path d="M 0 0  L -3.5 0  " id="mbda5cf8cde" style="stroke:#000000;stroke-width:1.5;"/>
      </defs>
      <g>
       <use style="stroke:#000000;stroke-width:1.5;" x="46.3025" xlink:href="#mbda5cf8cde" y="62.64"/>
      </g>
     </g>
     <g id="text_6">
      <text style="font-family:DejaVu Sans;font-size:8px;font-stretch:normal;font-style:normal;font-weight:normal;text-anchor:end;" transform="rotate(-0, 39.3025, 65.679375)" x="39.3025" y="65.679375">0</text>
     </g>
    </g>
    <g id="ytick_2">
     <g id="line2d_6">
      <g>
       <use style="stroke:#000000;stroke-width:1.5;" x="46.3025" xlink:href="#mbda5cf8cde" y="43.333015"/>
      </g>
     </g>
     <g id="text_7">
      <text style="font-family:DejaVu Sans;font-size:8px;font-stretch:normal;font-style:normal;font-weight:normal;text-anchor:end;" transform="rotate(-0, 39.3025, 46.37239)" x="39.3025" y="46.37239">1000</text>
     </g>
    </g>
    <g id="ytick_3">
     <g id="line2d_7">
      <g>
       <use style="stroke:#000000;stroke-width:1.5;" x="46.3025" xlink:href="#mbda5cf8cde" y="24.026029"/>
      </g>
     </g>
     <g id="text_8">
      <text style="font-family:DejaVu Sans;font-size:8px;font-stretch:normal;font-style:normal;font-weight:normal;text-anchor:end;" transform="rotate(-0, 39.3025, 27.065404)" x="39.3025" y="27.065404">2000</text>
     </g>
    </g>
    <g id="text_9">
     <text style="font-family:DejaVu Sans;font-size:8px;font-stretch:normal;font-style:normal;font-weight:normal;text-anchor:middle;" transform="rotate(-90, 13.27875, 34.92)" x="13.27875" y="34.92">log(E.-value)</text>
    </g>
   </g>
   <g id="patch_34">
    <path d="M 46.3025 62.64  L 46.3025 7.2  " style="fill:none;stroke:#000000;stroke-linecap:square;stroke-linejoin:miter;stroke-width:1.5;"/>
   </g>
   <g id="patch_35">
    <path d="M 46.3025 62.64  L 157.9025 62.64  " style="fill:none;stroke:#000000;stroke-linecap:square;stroke-linejoin:miter;stroke-width:1.5;"/>
   </g>
  </g>
 </g>
 <defs>
  <clipPath id="p7ff61ecd64">
   <rect height="55.44" width="111.6" x="46.3025" y="7.2"/>
  </clipPath>
 </defs>
</g>
    </g>
    <g transform="translate(220.0, 11.55) scale(1) ">
      <g transform="translate(0, 0.0) scale(1) translate(0, 0) scale(1.25) "><metadata>
  <rdf:RDF xmlns:cc="http://creativecommons.org/ns#" xmlns:dc="http://purl.org/dc/elements/1.1/" xmlns:rdf="http://www.w3.org/1999/02/22-rdf-syntax-ns#">
   <cc:Work>
    <dc:type rdf:resource="http://purl.org/dc/dcmitype/StillImage"/>
    <dc:date>2021-01-07T18:35:53.781165</dc:date>
    <dc:format>image/svg+xml</dc:format>
    <dc:creator>
     <cc:Agent>
      <dc:title>Matplotlib v3.3.2, https://matplotlib.org/</dc:title>
     </cc:Agent>
    </dc:creator>
   </cc:Work>
  </rdf:RDF>
 </metadata>
 <defs>
  <style type="text/css">*{stroke-linecap:butt;stroke-linejoin:round;}</style>
 </defs>
 <g id="figure_1">
  <g id="patch_1">
   <path d="M 0 96.325  L 151.395 96.325  L 151.395 0  L 0 0  z " style="fill:none;"/>
  </g>
  <g id="axes_1">
   <g id="patch_2">
    <path d="M 43.755 62.64  L 144.195 62.64  L 144.195 7.2  L 43.755 7.2  z " style="fill:#ffffff;"/>
   </g>
   <g id="patch_3">
    <path clip-path="url(#pc093fd2159)" d="M 48.320455 62.64  L 49.817325 62.64  L 49.817325 9.84  L 48.320455 9.84  z "/>
   </g>
   <g id="patch_4">
    <path clip-path="url(#pc093fd2159)" d="M 51.314195 62.64  L 52.811066 62.64  L 52.811066 56.260607  L 51.314195 56.260607  z "/>
   </g>
   <g id="patch_5">
    <path clip-path="url(#pc093fd2159)" d="M 54.307936 62.64  L 55.804806 62.64  L 55.804806 62.150682  L 54.307936 62.150682  z "/>
   </g>
   <g id="patch_6">
    <path clip-path="url(#pc093fd2159)" d="M 57.301677 62.64  L 58.798547 62.64  L 58.798547 62.371023  L 57.301677 62.371023  z "/>
   </g>
   <g id="patch_7">
    <path clip-path="url(#pc093fd2159)" d="M 60.295417 62.64  L 61.792288 62.64  L 61.792288 62.488343  L 60.295417 62.488343  z "/>
   </g>
   <g id="patch_8">
    <path clip-path="url(#pc093fd2159)" d="M 63.289158 62.64  L 64.786028 62.64  L 64.786028 62.613692  L 63.289158 62.613692  z "/>
   </g>
   <g id="patch_9">
    <path clip-path="url(#pc093fd2159)" d="M 66.282899 62.64  L 67.779769 62.64  L 67.779769 62.623562  L 66.282899 62.623562  z "/>
   </g>
   <g id="patch_10">
    <path clip-path="url(#pc093fd2159)" d="M 69.276639 62.64  L 70.77351 62.64  L 70.77351 62.637455  L 69.276639 62.637455  z "/>
   </g>
   <g id="patch_11">
    <path clip-path="url(#pc093fd2159)" d="M 72.27038 62.64  L 73.76725 62.64  L 73.76725 62.63809  L 72.27038 62.63809  z "/>
   </g>
   <g id="patch_12">
    <path clip-path="url(#pc093fd2159)" d="M 75.264121 62.64  L 76.760991 62.64  L 76.760991 62.638389  L 75.264121 62.638389  z "/>
   </g>
   <g id="patch_13">
    <path clip-path="url(#pc093fd2159)" d="M 78.257861 62.64  L 79.754732 62.64  L 79.754732 62.639151  L 78.257861 62.639151  z "/>
   </g>
   <g id="patch_14">
    <path clip-path="url(#pc093fd2159)" d="M 81.251602 62.64  L 82.748472 62.64  L 82.748472 62.639417  L 81.251602 62.639417  z "/>
   </g>
   <g id="patch_15">
    <path clip-path="url(#pc093fd2159)" d="M 84.245343 62.64  L 85.742213 62.64  L 85.742213 62.639576  L 84.245343 62.639576  z "/>
   </g>
   <g id="patch_16">
    <path clip-path="url(#pc093fd2159)" d="M 87.239083 62.64  L 88.735954 62.64  L 88.735954 62.639692  L 87.239083 62.639692  z "/>
   </g>
   <g id="patch_17">
    <path clip-path="url(#pc093fd2159)" d="M 90.232824 62.64  L 91.729694 62.64  L 91.729694 62.639783  L 90.232824 62.639783  z "/>
   </g>
   <g id="patch_18">
    <path clip-path="url(#pc093fd2159)" d="M 93.226565 62.64  L 94.723435 62.64  L 94.723435 62.639879  L 93.226565 62.639879  z "/>
   </g>
   <g id="patch_19">
    <path clip-path="url(#pc093fd2159)" d="M 96.220306 62.64  L 97.717176 62.64  L 97.717176 62.639933  L 96.220306 62.639933  z "/>
   </g>
   <g id="patch_20">
    <path clip-path="url(#pc093fd2159)" d="M 99.214046 62.64  L 100.710917 62.64  L 100.710917 62.639945  L 99.214046 62.639945  z "/>
   </g>
   <g id="patch_21">
    <path clip-path="url(#pc093fd2159)" d="M 102.207787 62.64  L 103.704657 62.64  L 103.704657 62.63997  L 102.207787 62.63997  z "/>
   </g>
   <g id="patch_22">
    <path clip-path="url(#pc093fd2159)" d="M 105.201528 62.64  L 106.698398 62.64  L 106.698398 62.639982  L 105.201528 62.639982  z "/>
   </g>
   <g id="patch_23">
    <path clip-path="url(#pc093fd2159)" d="M 108.195268 62.64  L 109.692139 62.64  L 109.692139 62.639999  L 108.195268 62.639999  z "/>
   </g>
   <g id="patch_24">
    <path clip-path="url(#pc093fd2159)" d="M 111.189009 62.64  L 112.685879 62.64  L 112.685879 62.64  L 111.189009 62.64  z "/>
   </g>
   <g id="patch_25">
    <path clip-path="url(#pc093fd2159)" d="M 114.18275 62.64  L 115.67962 62.64  L 115.67962 62.64  L 114.18275 62.64  z "/>
   </g>
   <g id="patch_26">
    <path clip-path="url(#pc093fd2159)" d="M 117.17649 62.64  L 118.673361 62.64  L 118.673361 62.64  L 117.17649 62.64  z "/>
   </g>
   <g id="patch_27">
    <path clip-path="url(#pc093fd2159)" d="M 120.170231 62.64  L 121.667101 62.64  L 121.667101 62.64  L 120.170231 62.64  z "/>
   </g>
   <g id="patch_28">
    <path clip-path="url(#pc093fd2159)" d="M 123.163972 62.64  L 124.660842 62.64  L 124.660842 62.64  L 123.163972 62.64  z "/>
   </g>
   <g id="patch_29">
    <path clip-path="url(#pc093fd2159)" d="M 126.157712 62.64  L 127.654583 62.64  L 127.654583 62.64  L 126.157712 62.64  z "/>
   </g>
   <g id="patch_30">
    <path clip-path="url(#pc093fd2159)" d="M 129.151453 62.64  L 130.648323 62.64  L 130.648323 62.64  L 129.151453 62.64  z "/>
   </g>
   <g id="patch_31">
    <path clip-path="url(#pc093fd2159)" d="M 132.145194 62.64  L 133.642064 62.64  L 133.642064 62.64  L 132.145194 62.64  z "/>
   </g>
   <g id="patch_32">
    <path clip-path="url(#pc093fd2159)" d="M 135.138934 62.64  L 136.635805 62.64  L 136.635805 62.64  L 135.138934 62.64  z "/>
   </g>
   <g id="patch_33">
    <path clip-path="url(#pc093fd2159)" d="M 138.132675 62.64  L 139.629545 62.64  L 139.629545 62.64  L 138.132675 62.64  z "/>
   </g>
   <g id="matplotlib.axis_1">
    <g id="xtick_1">
     <g id="line2d_1">
      <defs>
       <path d="M 0 0  L 0 3.5  " id="m23a3daa150" style="stroke:#000000;stroke-width:1.5;"/>
      </defs>
      <g>
       <use style="stroke:#000000;stroke-width:1.5;" x="49.06889" xlink:href="#m23a3daa150" y="62.64"/>
      </g>
     </g>
     <g id="text_1">
      <text style="font-family:DejaVu Sans;font-size:8px;font-stretch:normal;font-style:normal;font-weight:normal;text-anchor:middle;" transform="rotate(-0, 49.06889, 75.71875)" x="49.06889" y="75.71875">0</text>
     </g>
    </g>
    <g id="xtick_2">
     <g id="line2d_2">
      <g>
       <use style="stroke:#000000;stroke-width:1.5;" x="79.006297" xlink:href="#m23a3daa150" y="62.64"/>
      </g>
     </g>
     <g id="text_2">
      <text style="font-family:DejaVu Sans;font-size:8px;font-stretch:normal;font-style:normal;font-weight:normal;text-anchor:middle;" transform="rotate(-0, 79.006297, 75.71875)" x="79.006297" y="75.71875">10</text>
     </g>
    </g>
    <g id="xtick_3">
     <g id="line2d_3">
      <g>
       <use style="stroke:#000000;stroke-width:1.5;" x="108.943703" xlink:href="#m23a3daa150" y="62.64"/>
      </g>
     </g>
     <g id="text_3">
      <text style="font-family:DejaVu Sans;font-size:8px;font-stretch:normal;font-style:normal;font-weight:normal;text-anchor:middle;" transform="rotate(-0, 108.943703, 75.71875)" x="108.943703" y="75.71875">20</text>
     </g>
    </g>
    <g id="xtick_4">
     <g id="line2d_4">
      <g>
       <use style="stroke:#000000;stroke-width:1.5;" x="138.88111" xlink:href="#m23a3daa150" y="62.64"/>
      </g>
     </g>
     <g id="text_4">
      <text style="font-family:DejaVu Sans;font-size:8px;font-stretch:normal;font-style:normal;font-weight:normal;text-anchor:middle;" transform="rotate(-0, 138.88111, 75.71875)" x="138.88111" y="75.71875">30</text>
     </g>
    </g>
    <g id="text_5">
     <text style="font-family:DejaVu Sans;font-size:8px;font-stretch:normal;font-style:normal;font-weight:normal;text-anchor:middle;" transform="rotate(-0, 93.975, 87.46125)" x="93.975" y="87.46125">Dimension</text>
    </g>
   </g>
   <g id="matplotlib.axis_2">
    <g id="ytick_1">
     <g id="line2d_5">
      <defs>
       <path d="M 0 0  L -3.5 0  " id="mc2c1d2f5b7" style="stroke:#000000;stroke-width:1.5;"/>
      </defs>
      <g>
       <use style="stroke:#000000;stroke-width:1.5;" x="43.755" xlink:href="#mc2c1d2f5b7" y="62.64"/>
      </g>
     </g>
     <g id="text_6">
      <text style="font-family:DejaVu Sans;font-size:8px;font-stretch:normal;font-style:normal;font-weight:normal;text-anchor:end;" transform="rotate(-0, 36.755, 65.679375)" x="36.755" y="65.679375">0.00</text>
     </g>
    </g>
    <g id="ytick_2">
     <g id="line2d_6">
      <g>
       <use style="stroke:#000000;stroke-width:1.5;" x="43.755" xlink:href="#mc2c1d2f5b7" y="30.148261"/>
      </g>
     </g>
     <g id="text_7">
      <text style="font-family:DejaVu Sans;font-size:8px;font-stretch:normal;font-style:normal;font-weight:normal;text-anchor:end;" transform="rotate(-0, 36.755, 33.187636)" x="36.755" y="33.187636">0.02</text>
     </g>
    </g>
    <g id="text_8">
     <text style="font-family:DejaVu Sans;font-size:8px;font-stretch:normal;font-style:normal;font-weight:normal;text-anchor:middle;" transform="rotate(-90, 13.27875, 34.92)" x="13.27875" y="34.92">log(E.-value)</text>
    </g>
   </g>
   <g id="patch_34">
    <path d="M 43.755 62.64  L 43.755 7.2  " style="fill:none;stroke:#000000;stroke-linecap:square;stroke-linejoin:miter;stroke-width:1.5;"/>
   </g>
   <g id="patch_35">
    <path d="M 43.755 62.64  L 144.195 62.64  " style="fill:none;stroke:#000000;stroke-linecap:square;stroke-linejoin:miter;stroke-width:1.5;"/>
   </g>
  </g>
 </g>
 <defs>
  <clipPath id="pc093fd2159">
   <rect height="55.44" width="100.44" x="43.755" y="7.2"/>
  </clipPath>
 </defs>
</g>
    </g>
    <g transform="translate(440.0, 0.0) scale(1) ">
      <g transform="translate(0, 0.0) scale(1) translate(0, 0) scale(1.25) "><metadata>
  <rdf:RDF xmlns:cc="http://creativecommons.org/ns#" xmlns:dc="http://purl.org/dc/elements/1.1/" xmlns:rdf="http://www.w3.org/1999/02/22-rdf-syntax-ns#">
   <cc:Work>
    <dc:type rdf:resource="http://purl.org/dc/dcmitype/StillImage"/>
    <dc:date>2021-01-07T18:37:38.643936</dc:date>
    <dc:format>image/svg+xml</dc:format>
    <dc:creator>
     <cc:Agent>
      <dc:title>Matplotlib v3.3.2, https://matplotlib.org/</dc:title>
     </cc:Agent>
    </dc:creator>
   </cc:Work>
  </rdf:RDF>
 </metadata>
 <defs>
  <style type="text/css">*{stroke-linecap:butt;stroke-linejoin:round;}</style>
 </defs>
 <g id="figure_1">
  <g id="patch_1">
   <path d="M 0 105.40375  L 138.6725 105.40375  L 138.6725 0  L 0 0  z " style="fill:none;"/>
  </g>
  <g id="axes_1">
   <g id="patch_2">
    <path d="M 31.0325 71.71875  L 131.4725 71.71875  L 131.4725 16.27875  L 31.0325 16.27875  z " style="fill:#ffffff;"/>
   </g>
   <g id="patch_3">
    <path clip-path="url(#p4e0ed1f54f)" d="M 35.597955 71.71875  L 37.094825 71.71875  L 37.094825 18.91875  L 35.597955 18.91875  z "/>
   </g>
   <g id="patch_4">
    <path clip-path="url(#p4e0ed1f54f)" d="M 38.591695 71.71875  L 40.088566 71.71875  L 40.088566 69.545647  L 38.591695 69.545647  z "/>
   </g>
   <g id="patch_5">
    <path clip-path="url(#p4e0ed1f54f)" d="M 41.585436 71.71875  L 43.082306 71.71875  L 43.082306 70.463612  L 41.585436 70.463612  z "/>
   </g>
   <g id="patch_6">
    <path clip-path="url(#p4e0ed1f54f)" d="M 44.579177 71.71875  L 46.076047 71.71875  L 46.076047 71.486249  L 44.579177 71.486249  z "/>
   </g>
   <g id="patch_7">
    <path clip-path="url(#p4e0ed1f54f)" d="M 47.572917 71.71875  L 49.069788 71.71875  L 49.069788 71.614153  L 47.572917 71.614153  z "/>
   </g>
   <g id="patch_8">
    <path clip-path="url(#p4e0ed1f54f)" d="M 50.566658 71.71875  L 52.063528 71.71875  L 52.063528 71.646406  L 50.566658 71.646406  z "/>
   </g>
   <g id="patch_9">
    <path clip-path="url(#p4e0ed1f54f)" d="M 53.560399 71.71875  L 55.057269 71.71875  L 55.057269 71.697528  L 53.560399 71.697528  z "/>
   </g>
   <g id="patch_10">
    <path clip-path="url(#p4e0ed1f54f)" d="M 56.554139 71.71875  L 58.05101 71.71875  L 58.05101 71.712178  L 56.554139 71.712178  z "/>
   </g>
   <g id="patch_11">
    <path clip-path="url(#p4e0ed1f54f)" d="M 59.54788 71.71875  L 61.04475 71.71875  L 61.04475 71.712976  L 59.54788 71.712976  z "/>
   </g>
   <g id="patch_12">
    <path clip-path="url(#p4e0ed1f54f)" d="M 62.541621 71.71875  L 64.038491 71.71875  L 64.038491 71.715411  L 62.541621 71.715411  z "/>
   </g>
   <g id="patch_13">
    <path clip-path="url(#p4e0ed1f54f)" d="M 65.535361 71.71875  L 67.032232 71.71875  L 67.032232 71.716626  L 65.535361 71.716626  z "/>
   </g>
   <g id="patch_14">
    <path clip-path="url(#p4e0ed1f54f)" d="M 68.529102 71.71875  L 70.025972 71.71875  L 70.025972 71.717324  L 68.529102 71.717324  z "/>
   </g>
   <g id="patch_15">
    <path clip-path="url(#p4e0ed1f54f)" d="M 71.522843 71.71875  L 73.019713 71.71875  L 73.019713 71.717587  L 71.522843 71.717587  z "/>
   </g>
   <g id="patch_16">
    <path clip-path="url(#p4e0ed1f54f)" d="M 74.516583 71.71875  L 76.013454 71.71875  L 76.013454 71.717864  L 74.516583 71.717864  z "/>
   </g>
   <g id="patch_17">
    <path clip-path="url(#p4e0ed1f54f)" d="M 77.510324 71.71875  L 79.007194 71.71875  L 79.007194 71.718057  L 77.510324 71.718057  z "/>
   </g>
   <g id="patch_18">
    <path clip-path="url(#p4e0ed1f54f)" d="M 80.504065 71.71875  L 82.000935 71.71875  L 82.000935 71.71826  L 80.504065 71.71826  z "/>
   </g>
   <g id="patch_19">
    <path clip-path="url(#p4e0ed1f54f)" d="M 83.497806 71.71875  L 84.994676 71.71875  L 84.994676 71.718507  L 83.497806 71.718507  z "/>
   </g>
   <g id="patch_20">
    <path clip-path="url(#p4e0ed1f54f)" d="M 86.491546 71.71875  L 87.988417 71.71875  L 87.988417 71.718614  L 86.491546 71.718614  z "/>
   </g>
   <g id="patch_21">
    <path clip-path="url(#p4e0ed1f54f)" d="M 89.485287 71.71875  L 90.982157 71.71875  L 90.982157 71.718637  L 89.485287 71.718637  z "/>
   </g>
   <g id="patch_22">
    <path clip-path="url(#p4e0ed1f54f)" d="M 92.479028 71.71875  L 93.975898 71.71875  L 93.975898 71.718696  L 92.479028 71.718696  z "/>
   </g>
   <g id="patch_23">
    <path clip-path="url(#p4e0ed1f54f)" d="M 95.472768 71.71875  L 96.969639 71.71875  L 96.969639 71.71875  L 95.472768 71.71875  z "/>
   </g>
   <g id="patch_24">
    <path clip-path="url(#p4e0ed1f54f)" d="M 98.466509 71.71875  L 99.963379 71.71875  L 99.963379 71.71875  L 98.466509 71.71875  z "/>
   </g>
   <g id="patch_25">
    <path clip-path="url(#p4e0ed1f54f)" d="M 101.46025 71.71875  L 102.95712 71.71875  L 102.95712 71.71875  L 101.46025 71.71875  z "/>
   </g>
   <g id="patch_26">
    <path clip-path="url(#p4e0ed1f54f)" d="M 104.45399 71.71875  L 105.950861 71.71875  L 105.950861 71.71875  L 104.45399 71.71875  z "/>
   </g>
   <g id="patch_27">
    <path clip-path="url(#p4e0ed1f54f)" d="M 107.447731 71.71875  L 108.944601 71.71875  L 108.944601 71.71875  L 107.447731 71.71875  z "/>
   </g>
   <g id="patch_28">
    <path clip-path="url(#p4e0ed1f54f)" d="M 110.441472 71.71875  L 111.938342 71.71875  L 111.938342 71.71875  L 110.441472 71.71875  z "/>
   </g>
   <g id="patch_29">
    <path clip-path="url(#p4e0ed1f54f)" d="M 113.435212 71.71875  L 114.932083 71.71875  L 114.932083 71.71875  L 113.435212 71.71875  z "/>
   </g>
   <g id="patch_30">
    <path clip-path="url(#p4e0ed1f54f)" d="M 116.428953 71.71875  L 117.925823 71.71875  L 117.925823 71.71875  L 116.428953 71.71875  z "/>
   </g>
   <g id="patch_31">
    <path clip-path="url(#p4e0ed1f54f)" d="M 119.422694 71.71875  L 120.919564 71.71875  L 120.919564 71.71875  L 119.422694 71.71875  z "/>
   </g>
   <g id="patch_32">
    <path clip-path="url(#p4e0ed1f54f)" d="M 122.416434 71.71875  L 123.913305 71.71875  L 123.913305 71.718749  L 122.416434 71.718749  z "/>
   </g>
   <g id="patch_33">
    <path clip-path="url(#p4e0ed1f54f)" d="M 125.410175 71.71875  L 126.907045 71.71875  L 126.907045 71.718749  L 125.410175 71.718749  z "/>
   </g>
   <g id="matplotlib.axis_1">
    <g id="xtick_1">
     <g id="line2d_1">
      <defs>
       <path d="M 0 0  L 0 3.5  " id="mfc695e026f" style="stroke:#000000;stroke-width:1.5;"/>
      </defs>
      <g>
       <use style="stroke:#000000;stroke-width:1.5;" x="36.34639" xlink:href="#mfc695e026f" y="71.71875"/>
      </g>
     </g>
     <g id="text_1">
      <text style="font-family:DejaVu Sans;font-size:8px;font-stretch:normal;font-style:normal;font-weight:normal;text-anchor:middle;" transform="rotate(-0, 36.34639, 84.7975)" x="36.34639" y="84.7975">0</text>
     </g>
    </g>
    <g id="xtick_2">
     <g id="line2d_2">
      <g>
       <use style="stroke:#000000;stroke-width:1.5;" x="66.283797" xlink:href="#mfc695e026f" y="71.71875"/>
      </g>
     </g>
     <g id="text_2">
      <text style="font-family:DejaVu Sans;font-size:8px;font-stretch:normal;font-style:normal;font-weight:normal;text-anchor:middle;" transform="rotate(-0, 66.283797, 84.7975)" x="66.283797" y="84.7975">10</text>
     </g>
    </g>
    <g id="xtick_3">
     <g id="line2d_3">
      <g>
       <use style="stroke:#000000;stroke-width:1.5;" x="96.221203" xlink:href="#mfc695e026f" y="71.71875"/>
      </g>
     </g>
     <g id="text_3">
      <text style="font-family:DejaVu Sans;font-size:8px;font-stretch:normal;font-style:normal;font-weight:normal;text-anchor:middle;" transform="rotate(-0, 96.221203, 84.7975)" x="96.221203" y="84.7975">20</text>
     </g>
    </g>
    <g id="xtick_4">
     <g id="line2d_4">
      <g>
       <use style="stroke:#000000;stroke-width:1.5;" x="126.15861" xlink:href="#mfc695e026f" y="71.71875"/>
      </g>
     </g>
     <g id="text_4">
      <text style="font-family:DejaVu Sans;font-size:8px;font-stretch:normal;font-style:normal;font-weight:normal;text-anchor:middle;" transform="rotate(-0, 126.15861, 84.7975)" x="126.15861" y="84.7975">30</text>
     </g>
    </g>
    <g id="text_5">
     <text style="font-family:DejaVu Sans;font-size:8px;font-stretch:normal;font-style:normal;font-weight:normal;text-anchor:middle;" transform="rotate(-0, 81.2525, 96.54)" x="81.2525" y="96.54">Dimension</text>
    </g>
   </g>
   <g id="matplotlib.axis_2">
    <g id="ytick_1">
     <g id="line2d_5">
      <defs>
       <path d="M 0 0  L -3.5 0  " id="m996018a370" style="stroke:#000000;stroke-width:1.5;"/>
      </defs>
      <g>
       <use style="stroke:#000000;stroke-width:1.5;" x="31.0325" xlink:href="#m996018a370" y="71.71875"/>
      </g>
     </g>
     <g id="text_6">
      <text style="font-family:DejaVu Sans;font-size:8px;font-stretch:normal;font-style:normal;font-weight:normal;text-anchor:end;" transform="rotate(-0, 24.0325, 74.758125)" x="24.0325" y="74.758125">0</text>
     </g>
    </g>
    <g id="ytick_2">
     <g id="line2d_6">
      <g>
       <use style="stroke:#000000;stroke-width:1.5;" x="31.0325" xlink:href="#m996018a370" y="52.764172"/>
      </g>
     </g>
     <g id="text_7">
      <text style="font-family:DejaVu Sans;font-size:8px;font-stretch:normal;font-style:normal;font-weight:normal;text-anchor:end;" transform="rotate(-0, 24.0325, 55.803547)" x="24.0325" y="55.803547">2</text>
     </g>
    </g>
    <g id="ytick_3">
     <g id="line2d_7">
      <g>
       <use style="stroke:#000000;stroke-width:1.5;" x="31.0325" xlink:href="#m996018a370" y="33.809594"/>
      </g>
     </g>
     <g id="text_8">
      <text style="font-family:DejaVu Sans;font-size:8px;font-stretch:normal;font-style:normal;font-weight:normal;text-anchor:end;" transform="rotate(-0, 24.0325, 36.848969)" x="24.0325" y="36.848969">4</text>
     </g>
    </g>
    <g id="text_9">
     <text style="font-family:DejaVu Sans;font-size:8px;font-stretch:normal;font-style:normal;font-weight:normal;text-anchor:middle;" transform="rotate(-90, 13.27875, 43.99875)" x="13.27875" y="43.99875">log(E.-value)</text>
    </g>
    <g id="text_10">
     <text style="font-family:DejaVu Sans;font-size:8px;font-stretch:normal;font-style:normal;font-weight:normal;text-anchor:start;" transform="rotate(-0, 31.0325, 13.27875)" x="31.0325" y="13.27875">1e&#8722;5</text>
    </g>
   </g>
   <g id="patch_34">
    <path d="M 31.0325 71.71875  L 31.0325 16.27875  " style="fill:none;stroke:#000000;stroke-linecap:square;stroke-linejoin:miter;stroke-width:1.5;"/>
   </g>
   <g id="patch_35">
    <path d="M 31.0325 71.71875  L 131.4725 71.71875  " style="fill:none;stroke:#000000;stroke-linecap:square;stroke-linejoin:miter;stroke-width:1.5;"/>
   </g>
  </g>
 </g>
 <defs>
  <clipPath id="p4e0ed1f54f">
   <rect height="55.44" width="100.44" x="31.0325" y="16.27875"/>
  </clipPath>
 </defs>
</g>
    </g>
  </g>
</svg>
