<?xml version="1.0" encoding="utf-8" standalone="no"?>
<!DOCTYPE svg PUBLIC "-//W3C//DTD SVG 1.1//EN"
  "http://www.w3.org/Graphics/SVG/1.1/DTD/svg11.dtd">
<!-- Created with matplotlib (https://matplotlib.org/) -->
<svg height="96.325pt" version="1.1" viewBox="0 0 165.1025 96.325" width="165.1025pt" xmlns="http://www.w3.org/2000/svg" xmlns:xlink="http://www.w3.org/1999/xlink">
 <metadata>
  <rdf:RDF xmlns:cc="http://creativecommons.org/ns#" xmlns:dc="http://purl.org/dc/elements/1.1/" xmlns:rdf="http://www.w3.org/1999/02/22-rdf-syntax-ns#">
   <cc:Work>
    <dc:type rdf:resource="http://purl.org/dc/dcmitype/StillImage"/>
    <dc:date>2021-01-07T19:28:34.126682</dc:date>
    <dc:format>image/svg+xml</dc:format>
    <dc:creator>
     <cc:Agent>
      <dc:title>Matplotlib v3.3.2, https://matplotlib.org/</dc:title>
     </cc:Agent>
    </dc:creator>
   </cc:Work>
  </rdf:RDF>
 </metadata>
 <defs>
  <style type="text/css">*{stroke-linecap:butt;stroke-linejoin:round;}</style>
 </defs>
 <g id="figure_1">
  <g id="patch_1">
   <path d="M 0 96.325 
L 165.1025 96.325 
L 165.1025 0 
L 0 0 
z
" style="fill:none;"/>
  </g>
  <g id="axes_1">
   <g id="patch_2">
    <path d="M 46.3025 62.64 
L 157.9025 62.64 
L 157.9025 7.2 
L 46.3025 7.2 
z
" style="fill:#ffffff;"/>
   </g>
   <g id="patch_3">
    <path clip-path="url(#p314fd5e7f0)" d="M 51.375227 62.64 
L 53.038417 62.64 
L 53.038417 9.84 
L 51.375227 9.84 
z
"/>
   </g>
   <g id="patch_4">
    <path clip-path="url(#p314fd5e7f0)" d="M 54.701606 62.64 
L 56.364795 62.64 
L 56.364795 60.436079 
L 54.701606 60.436079 
z
"/>
   </g>
   <g id="patch_5">
    <path clip-path="url(#p314fd5e7f0)" d="M 58.027984 62.64 
L 59.691174 62.64 
L 59.691174 61.237683 
L 58.027984 61.237683 
z
"/>
   </g>
   <g id="patch_6">
    <path clip-path="url(#p314fd5e7f0)" d="M 61.354363 62.64 
L 63.017552 62.64 
L 63.017552 62.269147 
L 61.354363 62.269147 
z
"/>
   </g>
   <g id="patch_7">
    <path clip-path="url(#p314fd5e7f0)" d="M 64.680741 62.64 
L 66.343931 62.64 
L 66.343931 62.353166 
L 64.680741 62.353166 
z
"/>
   </g>
   <g id="patch_8">
    <path clip-path="url(#p314fd5e7f0)" d="M 68.00712 62.64 
L 69.670309 62.64 
L 69.670309 62.458273 
L 68.00712 62.458273 
z
"/>
   </g>
   <g id="patch_9">
    <path clip-path="url(#p314fd5e7f0)" d="M 71.333499 62.64 
L 72.996688 62.64 
L 72.996688 62.473759 
L 71.333499 62.473759 
z
"/>
   </g>
   <g id="patch_10">
    <path clip-path="url(#p314fd5e7f0)" d="M 74.659877 62.64 
L 76.323066 62.64 
L 76.323066 62.494147 
L 74.659877 62.494147 
z
"/>
   </g>
   <g id="patch_11">
    <path clip-path="url(#p314fd5e7f0)" d="M 77.986256 62.64 
L 79.649445 62.64 
L 79.649445 62.557412 
L 77.986256 62.557412 
z
"/>
   </g>
   <g id="patch_12">
    <path clip-path="url(#p314fd5e7f0)" d="M 81.312634 62.64 
L 82.975823 62.64 
L 82.975823 62.577816 
L 81.312634 62.577816 
z
"/>
   </g>
   <g id="patch_13">
    <path clip-path="url(#p314fd5e7f0)" d="M 84.639013 62.64 
L 86.302202 62.64 
L 86.302202 62.599906 
L 84.639013 62.599906 
z
"/>
   </g>
   <g id="patch_14">
    <path clip-path="url(#p314fd5e7f0)" d="M 87.965391 62.64 
L 89.62858 62.64 
L 89.62858 62.612212 
L 87.965391 62.612212 
z
"/>
   </g>
   <g id="patch_15">
    <path clip-path="url(#p314fd5e7f0)" d="M 91.29177 62.64 
L 92.954959 62.64 
L 92.954959 62.612687 
L 91.29177 62.612687 
z
"/>
   </g>
   <g id="patch_16">
    <path clip-path="url(#p314fd5e7f0)" d="M 94.618148 62.64 
L 96.281338 62.64 
L 96.281338 62.624239 
L 94.618148 62.624239 
z
"/>
   </g>
   <g id="patch_17">
    <path clip-path="url(#p314fd5e7f0)" d="M 97.944527 62.64 
L 99.607716 62.64 
L 99.607716 62.630581 
L 97.944527 62.630581 
z
"/>
   </g>
   <g id="patch_18">
    <path clip-path="url(#p314fd5e7f0)" d="M 101.270905 62.64 
L 102.934095 62.64 
L 102.934095 62.63426 
L 101.270905 62.63426 
z
"/>
   </g>
   <g id="patch_19">
    <path clip-path="url(#p314fd5e7f0)" d="M 104.597284 62.64 
L 106.260473 62.64 
L 106.260473 62.634383 
L 104.597284 62.634383 
z
"/>
   </g>
   <g id="patch_20">
    <path clip-path="url(#p314fd5e7f0)" d="M 107.923662 62.64 
L 109.586852 62.64 
L 109.586852 62.637697 
L 107.923662 62.637697 
z
"/>
   </g>
   <g id="patch_21">
    <path clip-path="url(#p314fd5e7f0)" d="M 111.250041 62.64 
L 112.91323 62.64 
L 112.91323 62.638278 
L 111.250041 62.638278 
z
"/>
   </g>
   <g id="patch_22">
    <path clip-path="url(#p314fd5e7f0)" d="M 114.57642 62.64 
L 116.239609 62.64 
L 116.239609 62.638913 
L 114.57642 62.638913 
z
"/>
   </g>
   <g id="patch_23">
    <path clip-path="url(#p314fd5e7f0)" d="M 117.902798 62.64 
L 119.565987 62.64 
L 119.565987 62.639998 
L 117.902798 62.639998 
z
"/>
   </g>
   <g id="patch_24">
    <path clip-path="url(#p314fd5e7f0)" d="M 121.229177 62.64 
L 122.892366 62.64 
L 122.892366 62.639999 
L 121.229177 62.639999 
z
"/>
   </g>
   <g id="patch_25">
    <path clip-path="url(#p314fd5e7f0)" d="M 124.555555 62.64 
L 126.218744 62.64 
L 126.218744 62.64 
L 124.555555 62.64 
z
"/>
   </g>
   <g id="patch_26">
    <path clip-path="url(#p314fd5e7f0)" d="M 127.881934 62.64 
L 129.545123 62.64 
L 129.545123 62.64 
L 127.881934 62.64 
z
"/>
   </g>
   <g id="patch_27">
    <path clip-path="url(#p314fd5e7f0)" d="M 131.208312 62.64 
L 132.871501 62.64 
L 132.871501 62.64 
L 131.208312 62.64 
z
"/>
   </g>
   <g id="patch_28">
    <path clip-path="url(#p314fd5e7f0)" d="M 134.534691 62.64 
L 136.19788 62.64 
L 136.19788 62.64 
L 134.534691 62.64 
z
"/>
   </g>
   <g id="patch_29">
    <path clip-path="url(#p314fd5e7f0)" d="M 137.861069 62.64 
L 139.524259 62.64 
L 139.524259 62.64 
L 137.861069 62.64 
z
"/>
   </g>
   <g id="patch_30">
    <path clip-path="url(#p314fd5e7f0)" d="M 141.187448 62.64 
L 142.850637 62.64 
L 142.850637 62.64 
L 141.187448 62.64 
z
"/>
   </g>
   <g id="patch_31">
    <path clip-path="url(#p314fd5e7f0)" d="M 144.513826 62.64 
L 146.177016 62.64 
L 146.177016 62.64 
L 144.513826 62.64 
z
"/>
   </g>
   <g id="patch_32">
    <path clip-path="url(#p314fd5e7f0)" d="M 147.840205 62.64 
L 149.503394 62.64 
L 149.503394 62.639998 
L 147.840205 62.639998 
z
"/>
   </g>
   <g id="patch_33">
    <path clip-path="url(#p314fd5e7f0)" d="M 151.166583 62.64 
L 152.829773 62.64 
L 152.829773 62.639997 
L 151.166583 62.639997 
z
"/>
   </g>
   <g id="matplotlib.axis_1">
    <g id="xtick_1">
     <g id="line2d_1">
      <defs>
       <path d="M 0 0 
L 0 3.5 
" id="m0ceee3ee0c" style="stroke:#000000;stroke-width:1.5;"/>
      </defs>
      <g>
       <use style="stroke:#000000;stroke-width:1.5;" x="52.206822" xlink:href="#m0ceee3ee0c" y="62.64"/>
      </g>
     </g>
     <g id="text_1">
      <text style="font-family:DejaVu Sans;font-size:8px;font-stretch:normal;font-style:normal;font-weight:normal;text-anchor:middle;" transform="rotate(-0, 52.206822, 75.71875)" x="52.206822" y="75.71875">0</text>
     </g>
    </g>
    <g id="xtick_2">
     <g id="line2d_2">
      <g>
       <use style="stroke:#000000;stroke-width:1.5;" x="85.470607" xlink:href="#m0ceee3ee0c" y="62.64"/>
      </g>
     </g>
     <g id="text_2">
      <text style="font-family:DejaVu Sans;font-size:8px;font-stretch:normal;font-style:normal;font-weight:normal;text-anchor:middle;" transform="rotate(-0, 85.470607, 75.71875)" x="85.470607" y="75.71875">10</text>
     </g>
    </g>
    <g id="xtick_3">
     <g id="line2d_3">
      <g>
       <use style="stroke:#000000;stroke-width:1.5;" x="118.734393" xlink:href="#m0ceee3ee0c" y="62.64"/>
      </g>
     </g>
     <g id="text_3">
      <text style="font-family:DejaVu Sans;font-size:8px;font-stretch:normal;font-style:normal;font-weight:normal;text-anchor:middle;" transform="rotate(-0, 118.734393, 75.71875)" x="118.734393" y="75.71875">20</text>
     </g>
    </g>
    <g id="xtick_4">
     <g id="line2d_4">
      <g>
       <use style="stroke:#000000;stroke-width:1.5;" x="151.998178" xlink:href="#m0ceee3ee0c" y="62.64"/>
      </g>
     </g>
     <g id="text_4">
      <text style="font-family:DejaVu Sans;font-size:8px;font-stretch:normal;font-style:normal;font-weight:normal;text-anchor:middle;" transform="rotate(-0, 151.998178, 75.71875)" x="151.998178" y="75.71875">30</text>
     </g>
    </g>
    <g id="text_5">
     <text style="font-family:DejaVu Sans;font-size:8px;font-stretch:normal;font-style:normal;font-weight:normal;text-anchor:middle;" transform="rotate(-0, 102.1025, 87.46125)" x="102.1025" y="87.46125">Dimension</text>
    </g>
   </g>
   <g id="matplotlib.axis_2">
    <g id="ytick_1">
     <g id="line2d_5">
      <defs>
       <path d="M 0 0 
L -3.5 0 
" id="m9b67e0c1f7" style="stroke:#000000;stroke-width:1.5;"/>
      </defs>
      <g>
       <use style="stroke:#000000;stroke-width:1.5;" x="46.3025" xlink:href="#m9b67e0c1f7" y="62.64"/>
      </g>
     </g>
     <g id="text_6">
      <text style="font-family:DejaVu Sans;font-size:8px;font-stretch:normal;font-style:normal;font-weight:normal;text-anchor:end;" transform="rotate(-0, 39.3025, 65.679375)" x="39.3025" y="65.679375">0</text>
     </g>
    </g>
    <g id="ytick_2">
     <g id="line2d_6">
      <g>
       <use style="stroke:#000000;stroke-width:1.5;" x="46.3025" xlink:href="#m9b67e0c1f7" y="43.333015"/>
      </g>
     </g>
     <g id="text_7">
      <text style="font-family:DejaVu Sans;font-size:8px;font-stretch:normal;font-style:normal;font-weight:normal;text-anchor:end;" transform="rotate(-0, 39.3025, 46.37239)" x="39.3025" y="46.37239">1000</text>
     </g>
    </g>
    <g id="ytick_3">
     <g id="line2d_7">
      <g>
       <use style="stroke:#000000;stroke-width:1.5;" x="46.3025" xlink:href="#m9b67e0c1f7" y="24.026029"/>
      </g>
     </g>
     <g id="text_8">
      <text style="font-family:DejaVu Sans;font-size:8px;font-stretch:normal;font-style:normal;font-weight:normal;text-anchor:end;" transform="rotate(-0, 39.3025, 27.065404)" x="39.3025" y="27.065404">2000</text>
     </g>
    </g>
    <g id="text_9">
     <text style="font-family:DejaVu Sans;font-size:8px;font-stretch:normal;font-style:normal;font-weight:normal;text-anchor:middle;" transform="rotate(-90, 13.27875, 34.92)" x="13.27875" y="34.92">log(E.-value)</text>
    </g>
   </g>
   <g id="patch_34">
    <path d="M 46.3025 62.64 
L 46.3025 7.2 
" style="fill:none;stroke:#000000;stroke-linecap:square;stroke-linejoin:miter;stroke-width:1.5;"/>
   </g>
   <g id="patch_35">
    <path d="M 46.3025 62.64 
L 157.9025 62.64 
" style="fill:none;stroke:#000000;stroke-linecap:square;stroke-linejoin:miter;stroke-width:1.5;"/>
   </g>
  </g>
 </g>
 <defs>
  <clipPath id="p314fd5e7f0">
   <rect height="55.44" width="111.6" x="46.3025" y="7.2"/>
  </clipPath>
 </defs>
</svg>
