<?xml version="1.0" encoding="utf-8" standalone="no"?>
<!DOCTYPE svg PUBLIC "-//W3C//DTD SVG 1.1//EN"
  "http://www.w3.org/Graphics/SVG/1.1/DTD/svg11.dtd">
<!-- Created with matplotlib (https://matplotlib.org/) -->
<svg height="166.8918pt" version="1.1" viewBox="0 0 154.42 166.8918" width="154.42pt" xmlns="http://www.w3.org/2000/svg" xmlns:xlink="http://www.w3.org/1999/xlink">
 <metadata>
  <rdf:RDF xmlns:cc="http://creativecommons.org/ns#" xmlns:dc="http://purl.org/dc/elements/1.1/" xmlns:rdf="http://www.w3.org/1999/02/22-rdf-syntax-ns#">
   <cc:Work>
    <dc:type rdf:resource="http://purl.org/dc/dcmitype/StillImage"/>
    <dc:date>2021-01-12T18:03:36.046006</dc:date>
    <dc:format>image/svg+xml</dc:format>
    <dc:creator>
     <cc:Agent>
      <dc:title>Matplotlib v3.3.2, https://matplotlib.org/</dc:title>
     </cc:Agent>
    </dc:creator>
   </cc:Work>
  </rdf:RDF>
 </metadata>
 <defs>
  <style type="text/css">*{stroke-linecap:butt;stroke-linejoin:round;}</style>
 </defs>
 <g id="figure_1">
  <g id="patch_1">
   <path d="M -0 166.8918 
L 154.42 166.8918 
L 154.42 -0 
L -0 -0 
z
" style="fill:none;"/>
  </g>
  <g id="axes_1">
   <g id="patch_2">
    <path d="M 38.9225 133.2068 
L 136.5725 133.2068 
L 136.5725 36.1868 
L 38.9225 36.1868 
z
" style="fill:#ffffff;"/>
   </g>
   <g id="PathCollection_1">
    <defs>
     <path d="M 0 1.870829 
C 0.49615 1.870829 0.972045 1.673706 1.322876 1.322876 
C 1.673706 0.972045 1.870829 0.49615 1.870829 0 
C 1.870829 -0.49615 1.673706 -0.972045 1.322876 -1.322876 
C 0.972045 -1.673706 0.49615 -1.870829 0 -1.870829 
C -0.49615 -1.870829 -0.972045 -1.673706 -1.322876 -1.322876 
C -1.673706 -0.972045 -1.870829 -0.49615 -1.870829 0 
C -1.870829 0.49615 -1.673706 0.972045 -1.322876 1.322876 
C -0.972045 1.673706 -0.49615 1.870829 0 1.870829 
z
" id="mf1e3932c18" style="stroke:#1b9e77;"/>
    </defs>
    <g clip-path="url(#pd44ab508b7)">
     <use style="fill:#1b9e77;stroke:#1b9e77;" x="60.078564" xlink:href="#mf1e3932c18" y="106.78434"/>
    </g>
   </g>
   <g id="PathCollection_2">
    <defs>
     <path d="M 0 1.870829 
C 0.49615 1.870829 0.972045 1.673706 1.322876 1.322876 
C 1.673706 0.972045 1.870829 0.49615 1.870829 0 
C 1.870829 -0.49615 1.673706 -0.972045 1.322876 -1.322876 
C 0.972045 -1.673706 0.49615 -1.870829 0 -1.870829 
C -0.49615 -1.870829 -0.972045 -1.673706 -1.322876 -1.322876 
C -1.673706 -0.972045 -1.870829 -0.49615 -1.870829 0 
C -1.870829 0.49615 -1.673706 0.972045 -1.322876 1.322876 
C -0.972045 1.673706 -0.49615 1.870829 0 1.870829 
z
" id="m52eb7a80be" style="stroke:#d95f02;"/>
    </defs>
    <g clip-path="url(#pd44ab508b7)">
     <use style="fill:#d95f02;stroke:#d95f02;" x="53.45971" xlink:href="#m52eb7a80be" y="104.704418"/>
    </g>
   </g>
   <g id="PathCollection_3">
    <defs>
     <path d="M 0 1.870829 
C 0.49615 1.870829 0.972045 1.673706 1.322876 1.322876 
C 1.673706 0.972045 1.870829 0.49615 1.870829 0 
C 1.870829 -0.49615 1.673706 -0.972045 1.322876 -1.322876 
C 0.972045 -1.673706 0.49615 -1.870829 0 -1.870829 
C -0.49615 -1.870829 -0.972045 -1.673706 -1.322876 -1.322876 
C -1.673706 -0.972045 -1.870829 -0.49615 -1.870829 0 
C -1.870829 0.49615 -1.673706 0.972045 -1.322876 1.322876 
C -0.972045 1.673706 -0.49615 1.870829 0 1.870829 
z
" id="m9bcca4fc5d" style="stroke:#7570b3;"/>
    </defs>
    <g clip-path="url(#pd44ab508b7)">
     <use style="fill:#7570b3;stroke:#7570b3;" x="50.026289" xlink:href="#m9bcca4fc5d" y="102.323837"/>
    </g>
   </g>
   <g id="PathCollection_4">
    <defs>
     <path d="M 0 1.870829 
C 0.49615 1.870829 0.972045 1.673706 1.322876 1.322876 
C 1.673706 0.972045 1.870829 0.49615 1.870829 0 
C 1.870829 -0.49615 1.673706 -0.972045 1.322876 -1.322876 
C 0.972045 -1.673706 0.49615 -1.870829 0 -1.870829 
C -0.49615 -1.870829 -0.972045 -1.673706 -1.322876 -1.322876 
C -1.673706 -0.972045 -1.870829 -0.49615 -1.870829 0 
C -1.870829 0.49615 -1.673706 0.972045 -1.322876 1.322876 
C -0.972045 1.673706 -0.49615 1.870829 0 1.870829 
z
" id="m0e4ccb7b91" style="stroke:#e7298a;"/>
    </defs>
    <g clip-path="url(#pd44ab508b7)">
     <use style="fill:#e7298a;stroke:#e7298a;" x="46.225921" xlink:href="#m0e4ccb7b91" y="112.086165"/>
    </g>
   </g>
   <g id="PathCollection_5">
    <defs>
     <path d="M 0 1.870829 
C 0.49615 1.870829 0.972045 1.673706 1.322876 1.322876 
C 1.673706 0.972045 1.870829 0.49615 1.870829 0 
C 1.870829 -0.49615 1.673706 -0.972045 1.322876 -1.322876 
C 0.972045 -1.673706 0.49615 -1.870829 0 -1.870829 
C -0.49615 -1.870829 -0.972045 -1.673706 -1.322876 -1.322876 
C -1.673706 -0.972045 -1.870829 -0.49615 -1.870829 0 
C -1.870829 0.49615 -1.673706 0.972045 -1.322876 1.322876 
C -0.972045 1.673706 -0.49615 1.870829 0 1.870829 
z
" id="mf370aa18cf" style="stroke:#66a61e;"/>
    </defs>
    <g clip-path="url(#pd44ab508b7)">
     <use style="fill:#66a61e;stroke:#66a61e;" x="40.479252" xlink:href="#mf370aa18cf" y="129.02113"/>
    </g>
   </g>
   <g id="PathCollection_6">
    <defs>
     <path d="M 0 1.870829 
C 0.49615 1.870829 0.972045 1.673706 1.322876 1.322876 
C 1.673706 0.972045 1.870829 0.49615 1.870829 0 
C 1.870829 -0.49615 1.673706 -0.972045 1.322876 -1.322876 
C 0.972045 -1.673706 0.49615 -1.870829 0 -1.870829 
C -0.49615 -1.870829 -0.972045 -1.673706 -1.322876 -1.322876 
C -1.673706 -0.972045 -1.870829 -0.49615 -1.870829 0 
C -1.870829 0.49615 -1.673706 0.972045 -1.322876 1.322876 
C -0.972045 1.673706 -0.49615 1.870829 0 1.870829 
z
" id="m933e5f6cf1" style="stroke:#e6ab02;"/>
    </defs>
    <g clip-path="url(#pd44ab508b7)">
     <use style="fill:#e6ab02;stroke:#e6ab02;" x="80.138586" xlink:href="#m933e5f6cf1" y="123.612433"/>
    </g>
   </g>
   <g id="PathCollection_7">
    <defs>
     <path d="M 0 1.870829 
C 0.49615 1.870829 0.972045 1.673706 1.322876 1.322876 
C 1.673706 0.972045 1.870829 0.49615 1.870829 0 
C 1.870829 -0.49615 1.673706 -0.972045 1.322876 -1.322876 
C 0.972045 -1.673706 0.49615 -1.870829 0 -1.870829 
C -0.49615 -1.870829 -0.972045 -1.673706 -1.322876 -1.322876 
C -1.673706 -0.972045 -1.870829 -0.49615 -1.870829 0 
C -1.870829 0.49615 -1.673706 0.972045 -1.322876 1.322876 
C -0.972045 1.673706 -0.49615 1.870829 0 1.870829 
z
" id="m6a6f26ed86" style="stroke:#a6761d;"/>
    </defs>
    <g clip-path="url(#pd44ab508b7)">
     <use style="fill:#a6761d;stroke:#a6761d;" x="38.94073" xlink:href="#m6a6f26ed86" y="129.475262"/>
    </g>
   </g>
   <g id="PathCollection_8">
    <defs>
     <path d="M 0 1.870829 
C 0.49615 1.870829 0.972045 1.673706 1.322876 1.322876 
C 1.673706 0.972045 1.870829 0.49615 1.870829 0 
C 1.870829 -0.49615 1.673706 -0.972045 1.322876 -1.322876 
C 0.972045 -1.673706 0.49615 -1.870829 0 -1.870829 
C -0.49615 -1.870829 -0.972045 -1.673706 -1.322876 -1.322876 
C -1.673706 -0.972045 -1.870829 -0.49615 -1.870829 0 
C -1.870829 0.49615 -1.673706 0.972045 -1.322876 1.322876 
C -0.972045 1.673706 -0.49615 1.870829 0 1.870829 
z
" id="m92591ba061" style="stroke:#666666;"/>
    </defs>
    <g clip-path="url(#pd44ab508b7)">
     <use style="fill:#666666;stroke:#666666;" x="38.954254" xlink:href="#m92591ba061" y="129.475262"/>
    </g>
   </g>
   <g id="PathCollection_9">
    <defs>
     <path d="M 0 -1.870829 
L -1.870829 1.870829 
L 1.870829 1.870829 
z
" id="mb4ea1a6ebf" style="stroke:#1b9e77;"/>
    </defs>
    <g clip-path="url(#pd44ab508b7)">
     <use style="fill:#1b9e77;stroke:#1b9e77;" x="49.767293" xlink:href="#mb4ea1a6ebf" y="125.860267"/>
    </g>
   </g>
   <g id="PathCollection_10">
    <defs>
     <path d="M 0 -1.870829 
L -1.870829 1.870829 
L 1.870829 1.870829 
z
" id="m01128bacc7" style="stroke:#d95f02;"/>
    </defs>
    <g clip-path="url(#pd44ab508b7)">
     <use style="fill:#d95f02;stroke:#d95f02;" x="43.344781" xlink:href="#m01128bacc7" y="123.792894"/>
    </g>
   </g>
   <g id="PathCollection_11">
    <defs>
     <path d="M 0 -1.870829 
L -1.870829 1.870829 
L 1.870829 1.870829 
z
" id="m5743ba4e6e" style="stroke:#7570b3;"/>
    </defs>
    <g clip-path="url(#pd44ab508b7)">
     <use style="fill:#7570b3;stroke:#7570b3;" x="51.732542" xlink:href="#m5743ba4e6e" y="101.031672"/>
    </g>
   </g>
   <g id="PathCollection_12">
    <defs>
     <path d="M 0 -1.870829 
L -1.870829 1.870829 
L 1.870829 1.870829 
z
" id="mbc95d88211" style="stroke:#e7298a;"/>
    </defs>
    <g clip-path="url(#pd44ab508b7)">
     <use style="fill:#e7298a;stroke:#e7298a;" x="45.263456" xlink:href="#mbc95d88211" y="123.030179"/>
    </g>
   </g>
   <g id="PathCollection_13">
    <defs>
     <path d="M 0 -1.870829 
L -1.870829 1.870829 
L 1.870829 1.870829 
z
" id="m42bd4cf0d8" style="stroke:#66a61e;"/>
    </defs>
    <g clip-path="url(#pd44ab508b7)">
     <use style="fill:#66a61e;stroke:#66a61e;" x="39.581756" xlink:href="#m42bd4cf0d8" y="129.475262"/>
    </g>
   </g>
   <g id="PathCollection_14">
    <defs>
     <path d="M 0 -1.870829 
L -1.870829 1.870829 
L 1.870829 1.870829 
z
" id="mb3b4d136b6" style="stroke:#e6ab02;"/>
    </defs>
    <g clip-path="url(#pd44ab508b7)">
     <use style="fill:#e6ab02;stroke:#e6ab02;" x="56.97134" xlink:href="#mb3b4d136b6" y="123.373294"/>
    </g>
   </g>
   <g id="PathCollection_15">
    <defs>
     <path d="M 0 -1.870829 
L -1.870829 1.870829 
L 1.870829 1.870829 
z
" id="md02a520451" style="stroke:#a6761d;"/>
    </defs>
    <g clip-path="url(#pd44ab508b7)">
     <use style="fill:#a6761d;stroke:#a6761d;" x="38.972335" xlink:href="#md02a520451" y="129.475262"/>
    </g>
   </g>
   <g id="PathCollection_16">
    <defs>
     <path d="M 0 -1.870829 
L -1.870829 1.870829 
L 1.870829 1.870829 
z
" id="m9fb9d262cd" style="stroke:#666666;"/>
    </defs>
    <g clip-path="url(#pd44ab508b7)">
     <use style="fill:#666666;stroke:#666666;" x="39.078884" xlink:href="#m9fb9d262cd" y="129.475262"/>
    </g>
   </g>
   <g id="PathCollection_17">
    <defs>
     <path d="M -1.870829 1.870829 
L 1.870829 1.870829 
L 1.870829 -1.870829 
L -1.870829 -1.870829 
z
" id="mc2984ed18d" style="stroke:#1b9e77;"/>
    </defs>
    <g clip-path="url(#pd44ab508b7)">
     <use style="fill:#1b9e77;stroke:#1b9e77;" x="84.384991" xlink:href="#mc2984ed18d" y="74.726555"/>
    </g>
   </g>
   <g id="PathCollection_18">
    <defs>
     <path d="M -1.870829 1.870829 
L 1.870829 1.870829 
L 1.870829 -1.870829 
L -1.870829 -1.870829 
z
" id="meaf10d3890" style="stroke:#d95f02;"/>
    </defs>
    <g clip-path="url(#pd44ab508b7)">
     <use style="fill:#d95f02;stroke:#d95f02;" x="79.643882" xlink:href="#meaf10d3890" y="64.674021"/>
    </g>
   </g>
   <g id="PathCollection_19">
    <defs>
     <path d="M -1.870829 1.870829 
L 1.870829 1.870829 
L 1.870829 -1.870829 
L -1.870829 -1.870829 
z
" id="m8232e3e06a" style="stroke:#7570b3;"/>
    </defs>
    <g clip-path="url(#pd44ab508b7)">
     <use style="fill:#7570b3;stroke:#7570b3;" x="47.990538" xlink:href="#m8232e3e06a" y="93.433372"/>
    </g>
   </g>
   <g id="PathCollection_20">
    <defs>
     <path d="M -1.870829 1.870829 
L 1.870829 1.870829 
L 1.870829 -1.870829 
L -1.870829 -1.870829 
z
" id="mc5c9d5385a" style="stroke:#e7298a;"/>
    </defs>
    <g clip-path="url(#pd44ab508b7)">
     <use style="fill:#e7298a;stroke:#e7298a;" x="54.349255" xlink:href="#mc5c9d5385a" y="111.442251"/>
    </g>
   </g>
   <g id="PathCollection_21">
    <defs>
     <path d="M -1.870829 1.870829 
L 1.870829 1.870829 
L 1.870829 -1.870829 
L -1.870829 -1.870829 
z
" id="mfb6fba2798" style="stroke:#66a61e;"/>
    </defs>
    <g clip-path="url(#pd44ab508b7)">
     <use style="fill:#66a61e;stroke:#66a61e;" x="39.764105" xlink:href="#mfb6fba2798" y="117.373875"/>
    </g>
   </g>
   <g id="PathCollection_22">
    <defs>
     <path d="M -1.870829 1.870829 
L 1.870829 1.870829 
L 1.870829 -1.870829 
L -1.870829 -1.870829 
z
" id="md3ba6b0327" style="stroke:#e6ab02;"/>
    </defs>
    <g clip-path="url(#pd44ab508b7)">
     <use style="fill:#e6ab02;stroke:#e6ab02;" x="130.697377" xlink:href="#md3ba6b0327" y="123.405228"/>
    </g>
   </g>
   <g id="PathCollection_23">
    <defs>
     <path d="M -1.870829 1.870829 
L 1.870829 1.870829 
L 1.870829 -1.870829 
L -1.870829 -1.870829 
z
" id="mc7237fd3f7" style="stroke:#a6761d;"/>
    </defs>
    <g clip-path="url(#pd44ab508b7)">
     <use style="fill:#a6761d;stroke:#a6761d;" x="38.994914" xlink:href="#mc7237fd3f7" y="129.475262"/>
    </g>
   </g>
   <g id="PathCollection_24">
    <defs>
     <path d="M -1.870829 1.870829 
L 1.870829 1.870829 
L 1.870829 -1.870829 
L -1.870829 -1.870829 
z
" id="m857d554c56" style="stroke:#666666;"/>
    </defs>
    <g clip-path="url(#pd44ab508b7)">
     <use style="fill:#666666;stroke:#666666;" x="39.114522" xlink:href="#m857d554c56" y="125.236446"/>
    </g>
   </g>
   <g id="PathCollection_25">
    <defs>
     <path d="M 0 1.870829 
C 0.49615 1.870829 0.972045 1.673706 1.322876 1.322876 
C 1.673706 0.972045 1.870829 0.49615 1.870829 0 
C 1.870829 -0.49615 1.673706 -0.972045 1.322876 -1.322876 
C 0.972045 -1.673706 0.49615 -1.870829 0 -1.870829 
C -0.49615 -1.870829 -0.972045 -1.673706 -1.322876 -1.322876 
C -1.673706 -0.972045 -1.870829 -0.49615 -1.870829 0 
C -1.870829 0.49615 -1.673706 0.972045 -1.322876 1.322876 
C -0.972045 1.673706 -0.49615 1.870829 0 1.870829 
z
" id="m2367d77a86" style="stroke:#000000;"/>
    </defs>
    <g clip-path="url(#pd44ab508b7)"/>
   </g>
   <g id="PathCollection_26">
    <defs>
     <path d="M 0 -1.870829 
L -1.870829 1.870829 
L 1.870829 1.870829 
z
" id="mc967ee8306" style="stroke:#000000;"/>
    </defs>
    <g clip-path="url(#pd44ab508b7)"/>
   </g>
   <g id="PathCollection_27">
    <defs>
     <path d="M -1.870829 1.870829 
L 1.870829 1.870829 
L 1.870829 -1.870829 
L -1.870829 -1.870829 
z
" id="mf5d4ed140e" style="stroke:#000000;"/>
    </defs>
    <g clip-path="url(#pd44ab508b7)"/>
   </g>
   <g id="patch_3">
    <path clip-path="url(#pd44ab508b7)" d="M 126.687886 120.796164 
L 121.222439 119.589456 
L 122.761873 117.706991 
L 112.746489 109.621991 
L 112.825434 109.525455 
L 122.840819 117.610455 
L 124.380253 115.72799 
z
" style="stroke:#000000;stroke-linejoin:miter;"/>
   </g>
   <g id="patch_4">
    <path clip-path="url(#pd44ab508b7)" d="M 75.985002 63.703625 
L 70.519555 62.496917 
L 72.058989 60.614453 
L 62.043604 52.529453 
L 62.12255 52.432916 
L 72.137934 60.517916 
L 73.677368 58.635452 
z
" style="stroke:#000000;stroke-linejoin:miter;"/>
   </g>
   <g id="patch_5">
    <path clip-path="url(#pd44ab508b7)" d="M 47.623365 89.672185 
L 45.119519 84.6968 
L 47.560769 84.6968 
L 47.560769 72.258338 
L 47.685962 72.258338 
L 47.685962 84.6968 
L 50.127212 84.6968 
z
" style="stroke:#000000;stroke-linejoin:miter;"/>
   </g>
   <g id="matplotlib.axis_1">
    <g id="xtick_1">
     <g id="line2d_1">
      <defs>
       <path d="M 0 0 
L 0 3.5 
" id="mce092a9bc6" style="stroke:#000000;stroke-width:1.5;"/>
      </defs>
      <g>
       <use style="stroke:#000000;stroke-width:1.5;" x="38.9225" xlink:href="#mce092a9bc6" y="133.2068"/>
      </g>
     </g>
     <g id="text_1">
      <text style="font-family:DejaVu Sans;font-size:8px;font-stretch:normal;font-style:normal;font-weight:normal;text-anchor:middle;" transform="rotate(-0, 38.9225, 146.28555)" x="38.9225" y="146.28555">0.0</text>
     </g>
    </g>
    <g id="xtick_2">
     <g id="line2d_2">
      <g>
       <use style="stroke:#000000;stroke-width:1.5;" x="63.960962" xlink:href="#mce092a9bc6" y="133.2068"/>
      </g>
     </g>
     <g id="text_2">
      <text style="font-family:DejaVu Sans;font-size:8px;font-stretch:normal;font-style:normal;font-weight:normal;text-anchor:middle;" transform="rotate(-0, 63.960962, 146.28555)" x="63.960962" y="146.28555">0.2</text>
     </g>
    </g>
    <g id="xtick_3">
     <g id="line2d_3">
      <g>
       <use style="stroke:#000000;stroke-width:1.5;" x="88.999423" xlink:href="#mce092a9bc6" y="133.2068"/>
      </g>
     </g>
     <g id="text_3">
      <text style="font-family:DejaVu Sans;font-size:8px;font-stretch:normal;font-style:normal;font-weight:normal;text-anchor:middle;" transform="rotate(-0, 88.999423, 146.28555)" x="88.999423" y="146.28555">0.4</text>
     </g>
    </g>
    <g id="xtick_4">
     <g id="line2d_4">
      <g>
       <use style="stroke:#000000;stroke-width:1.5;" x="114.037885" xlink:href="#mce092a9bc6" y="133.2068"/>
      </g>
     </g>
     <g id="text_4">
      <text style="font-family:DejaVu Sans;font-size:8px;font-stretch:normal;font-style:normal;font-weight:normal;text-anchor:middle;" transform="rotate(-0, 114.037885, 146.28555)" x="114.037885" y="146.28555">0.6</text>
     </g>
    </g>
    <g id="text_5">
     <text style="font-family:DejaVu Sans;font-size:8px;font-stretch:normal;font-style:normal;font-weight:normal;text-anchor:middle;" transform="rotate(-0, 87.7475, 158.02805)" x="87.7475" y="158.02805">Consumed Energy</text>
    </g>
   </g>
   <g id="matplotlib.axis_2">
    <g id="ytick_1">
     <g id="line2d_5">
      <defs>
       <path d="M 0 0 
L -3.5 0 
" id="m0847d93fa6" style="stroke:#000000;stroke-width:1.5;"/>
      </defs>
      <g>
       <use style="stroke:#000000;stroke-width:1.5;" x="38.9225" xlink:href="#m0847d93fa6" y="133.2068"/>
      </g>
     </g>
     <g id="text_6">
      <text style="font-family:DejaVu Sans;font-size:8px;font-stretch:normal;font-style:normal;font-weight:normal;text-anchor:end;" transform="rotate(-0, 31.9225, 136.246175)" x="31.9225" y="136.246175">0.0</text>
     </g>
    </g>
    <g id="ytick_2">
     <g id="line2d_6">
      <g>
       <use style="stroke:#000000;stroke-width:1.5;" x="38.9225" xlink:href="#m0847d93fa6" y="108.329877"/>
      </g>
     </g>
     <g id="text_7">
      <text style="font-family:DejaVu Sans;font-size:8px;font-stretch:normal;font-style:normal;font-weight:normal;text-anchor:end;" transform="rotate(-0, 31.9225, 111.369252)" x="31.9225" y="111.369252">0.2</text>
     </g>
    </g>
    <g id="ytick_3">
     <g id="line2d_7">
      <g>
       <use style="stroke:#000000;stroke-width:1.5;" x="38.9225" xlink:href="#m0847d93fa6" y="83.452954"/>
      </g>
     </g>
     <g id="text_8">
      <text style="font-family:DejaVu Sans;font-size:8px;font-stretch:normal;font-style:normal;font-weight:normal;text-anchor:end;" transform="rotate(-0, 31.9225, 86.492329)" x="31.9225" y="86.492329">0.4</text>
     </g>
    </g>
    <g id="ytick_4">
     <g id="line2d_8">
      <g>
       <use style="stroke:#000000;stroke-width:1.5;" x="38.9225" xlink:href="#m0847d93fa6" y="58.576031"/>
      </g>
     </g>
     <g id="text_9">
      <text style="font-family:DejaVu Sans;font-size:8px;font-stretch:normal;font-style:normal;font-weight:normal;text-anchor:end;" transform="rotate(-0, 31.9225, 61.615406)" x="31.9225" y="61.615406">0.6</text>
     </g>
    </g>
    <g id="text_10">
     <text style="font-family:DejaVu Sans;font-size:8px;font-stretch:normal;font-style:normal;font-weight:normal;text-anchor:middle;" transform="rotate(-90, 13.31375, 84.6968)" x="13.31375" y="84.6968">|Active dim.|</text>
    </g>
   </g>
   <g id="line2d_9">
    <path clip-path="url(#pd44ab508b7)" d="M 38.9225 133.2068 
L 126.557115 46.137569 
" style="fill:none;stroke:#808080;stroke-linecap:square;stroke-opacity:0.5;stroke-width:1.5;"/>
   </g>
   <g id="patch_6">
    <path d="M 38.9225 133.2068 
L 38.9225 36.1868 
" style="fill:none;stroke:#000000;stroke-linecap:square;stroke-linejoin:miter;stroke-width:1.5;"/>
   </g>
   <g id="patch_7">
    <path d="M 38.9225 133.2068 
L 136.5725 133.2068 
" style="fill:none;stroke:#000000;stroke-linecap:square;stroke-linejoin:miter;stroke-width:1.5;"/>
   </g>
   <g id="legend_1">
    <g id="text_11">
     <text style="font-family:DejaVu Sans;font-size:8px;font-stretch:normal;font-style:normal;font-weight:normal;text-anchor:start;" transform="rotate(-0, 22.39, 16.47875)" x="22.39" y="16.47875">Na</text>
    </g>
    <g id="PathCollection_28">
     <g>
      <use style="fill:#1b9e77;stroke:#1b9e77;" x="38.0775" xlink:href="#mf1e3932c18" y="14.37875"/>
     </g>
    </g>
    <g id="text_12">
     <text style="font-family:DejaVu Sans;font-size:8px;font-stretch:normal;font-style:normal;font-weight:normal;text-anchor:start;" transform="rotate(-0, 17.9025, 26.62125)" x="17.9025" y="26.62125">CaT</text>
    </g>
    <g id="PathCollection_29">
     <g>
      <use style="fill:#d95f02;stroke:#d95f02;" x="38.0775" xlink:href="#m52eb7a80be" y="24.52125"/>
     </g>
    </g>
    <g id="text_13">
     <text style="font-family:DejaVu Sans;font-size:8px;font-stretch:normal;font-style:normal;font-weight:normal;text-anchor:start;" transform="rotate(-0, 50.0775, 16.47875)" x="50.0775" y="16.47875">CaS</text>
    </g>
    <g id="PathCollection_30">
     <g>
      <use style="fill:#7570b3;stroke:#7570b3;" x="70.445" xlink:href="#m9bcca4fc5d" y="14.37875"/>
     </g>
    </g>
    <g id="text_14">
     <text style="font-family:DejaVu Sans;font-size:8px;font-stretch:normal;font-style:normal;font-weight:normal;text-anchor:start;" transform="rotate(-0, 60.1725, 26.62125)" x="60.1725" y="26.62125">A</text>
    </g>
    <g id="PathCollection_31">
     <g>
      <use style="fill:#e7298a;stroke:#e7298a;" x="70.445" xlink:href="#m0e4ccb7b91" y="24.52125"/>
     </g>
    </g>
    <g id="text_15">
     <text style="font-family:DejaVu Sans;font-size:8px;font-stretch:normal;font-style:normal;font-weight:normal;text-anchor:start;" transform="rotate(-0, 82.445, 16.47875)" x="82.445" y="16.47875">KCa</text>
    </g>
    <g id="PathCollection_32">
     <g>
      <use style="fill:#66a61e;stroke:#66a61e;" x="102.54" xlink:href="#mf370aa18cf" y="14.37875"/>
     </g>
    </g>
    <g id="text_16">
     <text style="font-family:DejaVu Sans;font-size:8px;font-stretch:normal;font-style:normal;font-weight:normal;text-anchor:start;" transform="rotate(-0, 87.415, 26.62125)" x="87.415" y="26.62125">Kd</text>
    </g>
    <g id="PathCollection_33">
     <g>
      <use style="fill:#e6ab02;stroke:#e6ab02;" x="102.54" xlink:href="#m933e5f6cf1" y="24.52125"/>
     </g>
    </g>
    <g id="text_17">
     <text style="font-family:DejaVu Sans;font-size:8px;font-stretch:normal;font-style:normal;font-weight:normal;text-anchor:start;" transform="rotate(-0, 125.20375, 16.47875)" x="125.20375" y="16.47875">H</text>
    </g>
    <g id="PathCollection_34">
     <g>
      <use style="fill:#a6761d;stroke:#a6761d;" x="136.02" xlink:href="#m6a6f26ed86" y="14.37875"/>
     </g>
    </g>
    <g id="text_18">
     <text style="font-family:DejaVu Sans;font-size:8px;font-stretch:normal;font-style:normal;font-weight:normal;text-anchor:start;" transform="rotate(-0, 114.54, 26.62125)" x="114.54" y="26.62125">leak</text>
    </g>
    <g id="PathCollection_35">
     <g>
      <use style="fill:#666666;stroke:#666666;" x="136.02" xlink:href="#m92591ba061" y="24.52125"/>
     </g>
    </g>
   </g>
   <g id="legend_2">
    <g id="text_19">
     <text style="font-family:DejaVu Sans;font-size:8px;font-stretch:normal;font-style:normal;font-weight:normal;text-anchor:start;" transform="rotate(-0, 54.16875, 37.82315)" x="54.16875" y="37.82315">AB/PD</text>
    </g>
    <g id="PathCollection_36">
     <g>
      <use style="stroke:#000000;" x="83.60875" xlink:href="#m2367d77a86" y="35.72315"/>
     </g>
    </g>
    <g id="text_20">
     <text style="font-family:DejaVu Sans;font-size:8px;font-stretch:normal;font-style:normal;font-weight:normal;text-anchor:start;" transform="rotate(-0, 95.60875, 37.82315)" x="95.60875" y="37.82315">LP</text>
    </g>
    <g id="PathCollection_37">
     <g>
      <use style="stroke:#000000;" x="109.69" xlink:href="#mc967ee8306" y="35.72315"/>
     </g>
    </g>
    <g id="text_21">
     <text style="font-family:DejaVu Sans;font-size:8px;font-stretch:normal;font-style:normal;font-weight:normal;text-anchor:start;" transform="rotate(-0, 121.69, 37.82315)" x="121.69" y="37.82315">PY</text>
    </g>
    <g id="PathCollection_38">
     <g>
      <use style="stroke:#000000;" x="136.02" xlink:href="#mf5d4ed140e" y="35.72315"/>
     </g>
    </g>
   </g>
  </g>
 </g>
 <defs>
  <clipPath id="pd44ab508b7">
   <rect height="97.02" width="97.65" x="38.9225" y="36.1868"/>
  </clipPath>
 </defs>
</svg>
