<?xml version="1.0" encoding="utf-8" standalone="no"?>
<!DOCTYPE svg PUBLIC "-//W3C//DTD SVG 1.1//EN"
  "http://www.w3.org/Graphics/SVG/1.1/DTD/svg11.dtd">
<!-- Created with matplotlib (https://matplotlib.org/) -->
<svg height="96.325pt" version="1.1" viewBox="0 0 151.395 96.325" width="151.395pt" xmlns="http://www.w3.org/2000/svg" xmlns:xlink="http://www.w3.org/1999/xlink">
 <metadata>
  <rdf:RDF xmlns:cc="http://creativecommons.org/ns#" xmlns:dc="http://purl.org/dc/elements/1.1/" xmlns:rdf="http://www.w3.org/1999/02/22-rdf-syntax-ns#">
   <cc:Work>
    <dc:type rdf:resource="http://purl.org/dc/dcmitype/StillImage"/>
    <dc:date>2021-01-07T19:32:23.707981</dc:date>
    <dc:format>image/svg+xml</dc:format>
    <dc:creator>
     <cc:Agent>
      <dc:title>Matplotlib v3.3.2, https://matplotlib.org/</dc:title>
     </cc:Agent>
    </dc:creator>
   </cc:Work>
  </rdf:RDF>
 </metadata>
 <defs>
  <style type="text/css">*{stroke-linecap:butt;stroke-linejoin:round;}</style>
 </defs>
 <g id="figure_1">
  <g id="patch_1">
   <path d="M 0 96.325 
L 151.395 96.325 
L 151.395 0 
L 0 0 
z
" style="fill:none;"/>
  </g>
  <g id="axes_1">
   <g id="patch_2">
    <path d="M 43.755 62.64 
L 144.195 62.64 
L 144.195 7.2 
L 43.755 7.2 
z
" style="fill:#ffffff;"/>
   </g>
   <g id="patch_3">
    <path clip-path="url(#p155ac6f8ca)" d="M 48.320455 62.64 
L 49.817325 62.64 
L 49.817325 9.84 
L 48.320455 9.84 
z
"/>
   </g>
   <g id="patch_4">
    <path clip-path="url(#p155ac6f8ca)" d="M 51.314195 62.64 
L 52.811066 62.64 
L 52.811066 56.260607 
L 51.314195 56.260607 
z
"/>
   </g>
   <g id="patch_5">
    <path clip-path="url(#p155ac6f8ca)" d="M 54.307936 62.64 
L 55.804806 62.64 
L 55.804806 62.150682 
L 54.307936 62.150682 
z
"/>
   </g>
   <g id="patch_6">
    <path clip-path="url(#p155ac6f8ca)" d="M 57.301677 62.64 
L 58.798547 62.64 
L 58.798547 62.371023 
L 57.301677 62.371023 
z
"/>
   </g>
   <g id="patch_7">
    <path clip-path="url(#p155ac6f8ca)" d="M 60.295417 62.64 
L 61.792288 62.64 
L 61.792288 62.488343 
L 60.295417 62.488343 
z
"/>
   </g>
   <g id="patch_8">
    <path clip-path="url(#p155ac6f8ca)" d="M 63.289158 62.64 
L 64.786028 62.64 
L 64.786028 62.613692 
L 63.289158 62.613692 
z
"/>
   </g>
   <g id="patch_9">
    <path clip-path="url(#p155ac6f8ca)" d="M 66.282899 62.64 
L 67.779769 62.64 
L 67.779769 62.623562 
L 66.282899 62.623562 
z
"/>
   </g>
   <g id="patch_10">
    <path clip-path="url(#p155ac6f8ca)" d="M 69.276639 62.64 
L 70.77351 62.64 
L 70.77351 62.637455 
L 69.276639 62.637455 
z
"/>
   </g>
   <g id="patch_11">
    <path clip-path="url(#p155ac6f8ca)" d="M 72.27038 62.64 
L 73.76725 62.64 
L 73.76725 62.63809 
L 72.27038 62.63809 
z
"/>
   </g>
   <g id="patch_12">
    <path clip-path="url(#p155ac6f8ca)" d="M 75.264121 62.64 
L 76.760991 62.64 
L 76.760991 62.638389 
L 75.264121 62.638389 
z
"/>
   </g>
   <g id="patch_13">
    <path clip-path="url(#p155ac6f8ca)" d="M 78.257861 62.64 
L 79.754732 62.64 
L 79.754732 62.639151 
L 78.257861 62.639151 
z
"/>
   </g>
   <g id="patch_14">
    <path clip-path="url(#p155ac6f8ca)" d="M 81.251602 62.64 
L 82.748472 62.64 
L 82.748472 62.639417 
L 81.251602 62.639417 
z
"/>
   </g>
   <g id="patch_15">
    <path clip-path="url(#p155ac6f8ca)" d="M 84.245343 62.64 
L 85.742213 62.64 
L 85.742213 62.639576 
L 84.245343 62.639576 
z
"/>
   </g>
   <g id="patch_16">
    <path clip-path="url(#p155ac6f8ca)" d="M 87.239083 62.64 
L 88.735954 62.64 
L 88.735954 62.639692 
L 87.239083 62.639692 
z
"/>
   </g>
   <g id="patch_17">
    <path clip-path="url(#p155ac6f8ca)" d="M 90.232824 62.64 
L 91.729694 62.64 
L 91.729694 62.639783 
L 90.232824 62.639783 
z
"/>
   </g>
   <g id="patch_18">
    <path clip-path="url(#p155ac6f8ca)" d="M 93.226565 62.64 
L 94.723435 62.64 
L 94.723435 62.639879 
L 93.226565 62.639879 
z
"/>
   </g>
   <g id="patch_19">
    <path clip-path="url(#p155ac6f8ca)" d="M 96.220306 62.64 
L 97.717176 62.64 
L 97.717176 62.639933 
L 96.220306 62.639933 
z
"/>
   </g>
   <g id="patch_20">
    <path clip-path="url(#p155ac6f8ca)" d="M 99.214046 62.64 
L 100.710917 62.64 
L 100.710917 62.639945 
L 99.214046 62.639945 
z
"/>
   </g>
   <g id="patch_21">
    <path clip-path="url(#p155ac6f8ca)" d="M 102.207787 62.64 
L 103.704657 62.64 
L 103.704657 62.63997 
L 102.207787 62.63997 
z
"/>
   </g>
   <g id="patch_22">
    <path clip-path="url(#p155ac6f8ca)" d="M 105.201528 62.64 
L 106.698398 62.64 
L 106.698398 62.639982 
L 105.201528 62.639982 
z
"/>
   </g>
   <g id="patch_23">
    <path clip-path="url(#p155ac6f8ca)" d="M 108.195268 62.64 
L 109.692139 62.64 
L 109.692139 62.639999 
L 108.195268 62.639999 
z
"/>
   </g>
   <g id="patch_24">
    <path clip-path="url(#p155ac6f8ca)" d="M 111.189009 62.64 
L 112.685879 62.64 
L 112.685879 62.64 
L 111.189009 62.64 
z
"/>
   </g>
   <g id="patch_25">
    <path clip-path="url(#p155ac6f8ca)" d="M 114.18275 62.64 
L 115.67962 62.64 
L 115.67962 62.64 
L 114.18275 62.64 
z
"/>
   </g>
   <g id="patch_26">
    <path clip-path="url(#p155ac6f8ca)" d="M 117.17649 62.64 
L 118.673361 62.64 
L 118.673361 62.64 
L 117.17649 62.64 
z
"/>
   </g>
   <g id="patch_27">
    <path clip-path="url(#p155ac6f8ca)" d="M 120.170231 62.64 
L 121.667101 62.64 
L 121.667101 62.64 
L 120.170231 62.64 
z
"/>
   </g>
   <g id="patch_28">
    <path clip-path="url(#p155ac6f8ca)" d="M 123.163972 62.64 
L 124.660842 62.64 
L 124.660842 62.64 
L 123.163972 62.64 
z
"/>
   </g>
   <g id="patch_29">
    <path clip-path="url(#p155ac6f8ca)" d="M 126.157712 62.64 
L 127.654583 62.64 
L 127.654583 62.64 
L 126.157712 62.64 
z
"/>
   </g>
   <g id="patch_30">
    <path clip-path="url(#p155ac6f8ca)" d="M 129.151453 62.64 
L 130.648323 62.64 
L 130.648323 62.64 
L 129.151453 62.64 
z
"/>
   </g>
   <g id="patch_31">
    <path clip-path="url(#p155ac6f8ca)" d="M 132.145194 62.64 
L 133.642064 62.64 
L 133.642064 62.64 
L 132.145194 62.64 
z
"/>
   </g>
   <g id="patch_32">
    <path clip-path="url(#p155ac6f8ca)" d="M 135.138934 62.64 
L 136.635805 62.64 
L 136.635805 62.64 
L 135.138934 62.64 
z
"/>
   </g>
   <g id="patch_33">
    <path clip-path="url(#p155ac6f8ca)" d="M 138.132675 62.64 
L 139.629545 62.64 
L 139.629545 62.64 
L 138.132675 62.64 
z
"/>
   </g>
   <g id="matplotlib.axis_1">
    <g id="xtick_1">
     <g id="line2d_1">
      <defs>
       <path d="M 0 0 
L 0 3.5 
" id="mf2dec83921" style="stroke:#000000;stroke-width:1.5;"/>
      </defs>
      <g>
       <use style="stroke:#000000;stroke-width:1.5;" x="49.06889" xlink:href="#mf2dec83921" y="62.64"/>
      </g>
     </g>
     <g id="text_1">
      <text style="font-family:DejaVu Sans;font-size:8px;font-stretch:normal;font-style:normal;font-weight:normal;text-anchor:middle;" transform="rotate(-0, 49.06889, 75.71875)" x="49.06889" y="75.71875">0</text>
     </g>
    </g>
    <g id="xtick_2">
     <g id="line2d_2">
      <g>
       <use style="stroke:#000000;stroke-width:1.5;" x="79.006297" xlink:href="#mf2dec83921" y="62.64"/>
      </g>
     </g>
     <g id="text_2">
      <text style="font-family:DejaVu Sans;font-size:8px;font-stretch:normal;font-style:normal;font-weight:normal;text-anchor:middle;" transform="rotate(-0, 79.006297, 75.71875)" x="79.006297" y="75.71875">10</text>
     </g>
    </g>
    <g id="xtick_3">
     <g id="line2d_3">
      <g>
       <use style="stroke:#000000;stroke-width:1.5;" x="108.943703" xlink:href="#mf2dec83921" y="62.64"/>
      </g>
     </g>
     <g id="text_3">
      <text style="font-family:DejaVu Sans;font-size:8px;font-stretch:normal;font-style:normal;font-weight:normal;text-anchor:middle;" transform="rotate(-0, 108.943703, 75.71875)" x="108.943703" y="75.71875">20</text>
     </g>
    </g>
    <g id="xtick_4">
     <g id="line2d_4">
      <g>
       <use style="stroke:#000000;stroke-width:1.5;" x="138.88111" xlink:href="#mf2dec83921" y="62.64"/>
      </g>
     </g>
     <g id="text_4">
      <text style="font-family:DejaVu Sans;font-size:8px;font-stretch:normal;font-style:normal;font-weight:normal;text-anchor:middle;" transform="rotate(-0, 138.88111, 75.71875)" x="138.88111" y="75.71875">30</text>
     </g>
    </g>
    <g id="text_5">
     <text style="font-family:DejaVu Sans;font-size:8px;font-stretch:normal;font-style:normal;font-weight:normal;text-anchor:middle;" transform="rotate(-0, 93.975, 87.46125)" x="93.975" y="87.46125">Dimension</text>
    </g>
   </g>
   <g id="matplotlib.axis_2">
    <g id="ytick_1">
     <g id="line2d_5">
      <defs>
       <path d="M 0 0 
L -3.5 0 
" id="m6b09be74ad" style="stroke:#000000;stroke-width:1.5;"/>
      </defs>
      <g>
       <use style="stroke:#000000;stroke-width:1.5;" x="43.755" xlink:href="#m6b09be74ad" y="62.64"/>
      </g>
     </g>
     <g id="text_6">
      <text style="font-family:DejaVu Sans;font-size:8px;font-stretch:normal;font-style:normal;font-weight:normal;text-anchor:end;" transform="rotate(-0, 36.755, 65.679375)" x="36.755" y="65.679375">0.00</text>
     </g>
    </g>
    <g id="ytick_2">
     <g id="line2d_6">
      <g>
       <use style="stroke:#000000;stroke-width:1.5;" x="43.755" xlink:href="#m6b09be74ad" y="30.148261"/>
      </g>
     </g>
     <g id="text_7">
      <text style="font-family:DejaVu Sans;font-size:8px;font-stretch:normal;font-style:normal;font-weight:normal;text-anchor:end;" transform="rotate(-0, 36.755, 33.187636)" x="36.755" y="33.187636">0.02</text>
     </g>
    </g>
    <g id="text_8">
     <text style="font-family:DejaVu Sans;font-size:8px;font-stretch:normal;font-style:normal;font-weight:normal;text-anchor:middle;" transform="rotate(-90, 13.27875, 34.92)" x="13.27875" y="34.92">log(E.-value)</text>
    </g>
   </g>
   <g id="patch_34">
    <path d="M 43.755 62.64 
L 43.755 7.2 
" style="fill:none;stroke:#000000;stroke-linecap:square;stroke-linejoin:miter;stroke-width:1.5;"/>
   </g>
   <g id="patch_35">
    <path d="M 43.755 62.64 
L 144.195 62.64 
" style="fill:none;stroke:#000000;stroke-linecap:square;stroke-linejoin:miter;stroke-width:1.5;"/>
   </g>
  </g>
 </g>
 <defs>
  <clipPath id="p155ac6f8ca">
   <rect height="55.44" width="100.44" x="43.755" y="7.2"/>
  </clipPath>
 </defs>
</svg>
