<?xml version="1.0" encoding="utf-8" standalone="no"?>
<!DOCTYPE svg PUBLIC "-//W3C//DTD SVG 1.1//EN"
  "http://www.w3.org/Graphics/SVG/1.1/DTD/svg11.dtd">
<!-- Created with matplotlib (https://matplotlib.org/) -->
<svg height="98.709875pt" version="1.1" viewBox="0 0 229.91875 98.709875" width="229.91875pt" xmlns="http://www.w3.org/2000/svg" xmlns:xlink="http://www.w3.org/1999/xlink">
 <metadata>
  <rdf:RDF xmlns:cc="http://creativecommons.org/ns#" xmlns:dc="http://purl.org/dc/elements/1.1/" xmlns:rdf="http://www.w3.org/1999/02/22-rdf-syntax-ns#">
   <cc:Work>
    <dc:type rdf:resource="http://purl.org/dc/dcmitype/StillImage"/>
    <dc:date>2021-01-26T17:32:42.435864</dc:date>
    <dc:format>image/svg+xml</dc:format>
    <dc:creator>
     <cc:Agent>
      <dc:title>Matplotlib v3.3.2, https://matplotlib.org/</dc:title>
     </cc:Agent>
    </dc:creator>
   </cc:Work>
  </rdf:RDF>
 </metadata>
 <defs>
  <style type="text/css">*{stroke-linecap:butt;stroke-linejoin:round;}</style>
 </defs>
 <g id="figure_1">
  <g id="patch_1">
   <path d="M 0 98.709875 
L 229.91875 98.709875 
L 229.91875 -0 
L 0 -0 
z
" style="fill:none;"/>
  </g>
  <g id="axes_1">
   <g id="patch_2">
    <path d="M 45.36875 76.767375 
L 184.86875 76.767375 
L 184.86875 10.239375 
L 45.36875 10.239375 
z
" style="fill:#ffffff;"/>
   </g>
   <g id="patch_3">
    <path clip-path="url(#pfcd83e8890)" d="M 49.205 43.503375 
L 51.995 43.503375 
L 51.995 36.437254 
L 49.205 36.437254 
z
" style="fill:#3182bd;"/>
   </g>
   <g id="patch_4">
    <path clip-path="url(#pfcd83e8890)" d="M 66.6425 43.503375 
L 69.4325 43.503375 
L 69.4325 35.881024 
L 66.6425 35.881024 
z
" style="fill:#3182bd;"/>
   </g>
   <g id="patch_5">
    <path clip-path="url(#pfcd83e8890)" d="M 84.08 43.503375 
L 86.87 43.503375 
L 86.87 35.244388 
L 84.08 35.244388 
z
" style="fill:#3182bd;"/>
   </g>
   <g id="patch_6">
    <path clip-path="url(#pfcd83e8890)" d="M 101.5175 43.503375 
L 104.3075 43.503375 
L 104.3075 49.151636 
L 101.5175 49.151636 
z
" style="fill:#3182bd;"/>
   </g>
   <g id="patch_7">
    <path clip-path="url(#pfcd83e8890)" d="M 118.955 43.503375 
L 121.745 43.503375 
L 121.745 42.384007 
L 118.955 42.384007 
z
" style="fill:#3182bd;"/>
   </g>
   <g id="patch_8">
    <path clip-path="url(#pfcd83e8890)" d="M 136.3925 43.503375 
L 139.1825 43.503375 
L 139.1825 46.069183 
L 136.3925 46.069183 
z
" style="fill:#3182bd;"/>
   </g>
   <g id="patch_9">
    <path clip-path="url(#pfcd83e8890)" d="M 153.83 43.503375 
L 156.62 43.503375 
L 156.62 44.501295 
L 153.83 44.501295 
z
" style="fill:#3182bd;"/>
   </g>
   <g id="patch_10">
    <path clip-path="url(#pfcd83e8890)" d="M 171.2675 43.503375 
L 174.0575 43.503375 
L 174.0575 44.501295 
L 171.2675 44.501295 
z
" style="fill:#3182bd;"/>
   </g>
   <g id="patch_11">
    <path clip-path="url(#pfcd83e8890)" d="M 52.6925 43.503375 
L 55.4825 43.503375 
L 55.4825 41.538702 
L 52.6925 41.538702 
z
" style="fill:#fc8d59;"/>
   </g>
   <g id="patch_12">
    <path clip-path="url(#pfcd83e8890)" d="M 70.13 43.503375 
L 72.92 43.503375 
L 72.92 40.985828 
L 70.13 40.985828 
z
" style="fill:#fc8d59;"/>
   </g>
   <g id="patch_13">
    <path clip-path="url(#pfcd83e8890)" d="M 87.5675 43.503375 
L 90.3575 43.503375 
L 90.3575 34.898826 
L 87.5675 34.898826 
z
" style="fill:#fc8d59;"/>
   </g>
   <g id="patch_14">
    <path clip-path="url(#pfcd83e8890)" d="M 105.005 43.503375 
L 107.795 43.503375 
L 107.795 46.224894 
L 105.005 46.224894 
z
" style="fill:#fc8d59;"/>
   </g>
   <g id="patch_15">
    <path clip-path="url(#pfcd83e8890)" d="M 122.4425 43.503375 
L 125.2325 43.503375 
L 125.2325 42.505455 
L 122.4425 42.505455 
z
" style="fill:#fc8d59;"/>
   </g>
   <g id="patch_16">
    <path clip-path="url(#pfcd83e8890)" d="M 139.88 43.503375 
L 142.67 43.503375 
L 142.67 46.133135 
L 139.88 46.133135 
z
" style="fill:#fc8d59;"/>
   </g>
   <g id="patch_17">
    <path clip-path="url(#pfcd83e8890)" d="M 157.3175 43.503375 
L 160.1075 43.503375 
L 160.1075 42.505455 
L 157.3175 42.505455 
z
" style="fill:#fc8d59;"/>
   </g>
   <g id="patch_18">
    <path clip-path="url(#pfcd83e8890)" d="M 174.755 43.503375 
L 177.545 43.503375 
L 177.545 44.501295 
L 174.755 44.501295 
z
" style="fill:#fc8d59;"/>
   </g>
   <g id="patch_19">
    <path clip-path="url(#pfcd83e8890)" d="M 56.18 43.503375 
L 58.97 43.503375 
L 58.97 27.864087 
L 56.18 27.864087 
z
" style="fill:#2ca25f;"/>
   </g>
   <g id="patch_20">
    <path clip-path="url(#pfcd83e8890)" d="M 73.6175 43.503375 
L 76.4075 43.503375 
L 76.4075 25.175752 
L 73.6175 25.175752 
z
" style="fill:#2ca25f;"/>
   </g>
   <g id="patch_21">
    <path clip-path="url(#pfcd83e8890)" d="M 91.055 43.503375 
L 93.845 43.503375 
L 93.845 32.866824 
L 91.055 32.866824 
z
" style="fill:#2ca25f;"/>
   </g>
   <g id="patch_22">
    <path clip-path="url(#pfcd83e8890)" d="M 108.4925 43.503375 
L 111.2825 43.503375 
L 111.2825 49.323837 
L 108.4925 49.323837 
z
" style="fill:#2ca25f;"/>
   </g>
   <g id="patch_23">
    <path clip-path="url(#pfcd83e8890)" d="M 125.93 43.503375 
L 128.72 43.503375 
L 128.72 47.737551 
L 125.93 47.737551 
z
" style="fill:#2ca25f;"/>
   </g>
   <g id="patch_24">
    <path clip-path="url(#pfcd83e8890)" d="M 143.3675 43.503375 
L 146.1575 43.503375 
L 146.1575 46.124595 
L 143.3675 46.124595 
z
" style="fill:#2ca25f;"/>
   </g>
   <g id="patch_25">
    <path clip-path="url(#pfcd83e8890)" d="M 160.805 43.503375 
L 163.595 43.503375 
L 163.595 44.501295 
L 160.805 44.501295 
z
" style="fill:#2ca25f;"/>
   </g>
   <g id="patch_26">
    <path clip-path="url(#pfcd83e8890)" d="M 178.2425 43.503375 
L 181.0325 43.503375 
L 181.0325 45.634875 
L 178.2425 45.634875 
z
" style="fill:#2ca25f;"/>
   </g>
   <g id="matplotlib.axis_1">
    <g id="xtick_1">
     <g id="line2d_1">
      <defs>
       <path d="M 0 0 
L 0 3.5 
" id="mf519fd464d" style="stroke:#000000;stroke-width:1.5;"/>
      </defs>
      <g>
       <use style="stroke:#000000;stroke-width:1.5;" x="54.0875" xlink:href="#mf519fd464d" y="76.767375"/>
      </g>
     </g>
     <g id="text_1">
      <text style="font-family:DejaVu Sans;font-size:8px;font-stretch:normal;font-style:normal;font-weight:normal;text-anchor:middle;" transform="rotate(-0, 54.0875, 89.846125)" x="54.0875" y="89.846125">Na</text>
     </g>
    </g>
    <g id="xtick_2">
     <g id="line2d_2">
      <g>
       <use style="stroke:#000000;stroke-width:1.5;" x="71.525" xlink:href="#mf519fd464d" y="76.767375"/>
      </g>
     </g>
     <g id="text_2">
      <text style="font-family:DejaVu Sans;font-size:8px;font-stretch:normal;font-style:normal;font-weight:normal;text-anchor:middle;" transform="rotate(-0, 71.525, 89.846125)" x="71.525" y="89.846125">CaT</text>
     </g>
    </g>
    <g id="xtick_3">
     <g id="line2d_3">
      <g>
       <use style="stroke:#000000;stroke-width:1.5;" x="88.9625" xlink:href="#mf519fd464d" y="76.767375"/>
      </g>
     </g>
     <g id="text_3">
      <text style="font-family:DejaVu Sans;font-size:8px;font-stretch:normal;font-style:normal;font-weight:normal;text-anchor:middle;" transform="rotate(-0, 88.9625, 89.846125)" x="88.9625" y="89.846125">CaS</text>
     </g>
    </g>
    <g id="xtick_4">
     <g id="line2d_4">
      <g>
       <use style="stroke:#000000;stroke-width:1.5;" x="106.4" xlink:href="#mf519fd464d" y="76.767375"/>
      </g>
     </g>
     <g id="text_4">
      <text style="font-family:DejaVu Sans;font-size:8px;font-stretch:normal;font-style:normal;font-weight:normal;text-anchor:middle;" transform="rotate(-0, 106.4, 89.846125)" x="106.4" y="89.846125">A</text>
     </g>
    </g>
    <g id="xtick_5">
     <g id="line2d_5">
      <g>
       <use style="stroke:#000000;stroke-width:1.5;" x="123.8375" xlink:href="#mf519fd464d" y="76.767375"/>
      </g>
     </g>
     <g id="text_5">
      <text style="font-family:DejaVu Sans;font-size:8px;font-stretch:normal;font-style:normal;font-weight:normal;text-anchor:middle;" transform="rotate(-0, 123.8375, 89.846125)" x="123.8375" y="89.846125">KCa</text>
     </g>
    </g>
    <g id="xtick_6">
     <g id="line2d_6">
      <g>
       <use style="stroke:#000000;stroke-width:1.5;" x="141.275" xlink:href="#mf519fd464d" y="76.767375"/>
      </g>
     </g>
     <g id="text_6">
      <text style="font-family:DejaVu Sans;font-size:8px;font-stretch:normal;font-style:normal;font-weight:normal;text-anchor:middle;" transform="rotate(-0, 141.275, 89.846125)" x="141.275" y="89.846125">Kd</text>
     </g>
    </g>
    <g id="xtick_7">
     <g id="line2d_7">
      <g>
       <use style="stroke:#000000;stroke-width:1.5;" x="158.7125" xlink:href="#mf519fd464d" y="76.767375"/>
      </g>
     </g>
     <g id="text_7">
      <text style="font-family:DejaVu Sans;font-size:8px;font-stretch:normal;font-style:normal;font-weight:normal;text-anchor:middle;" transform="rotate(-0, 158.7125, 89.846125)" x="158.7125" y="89.846125">H</text>
     </g>
    </g>
    <g id="xtick_8">
     <g id="line2d_8">
      <g>
       <use style="stroke:#000000;stroke-width:1.5;" x="176.15" xlink:href="#mf519fd464d" y="76.767375"/>
      </g>
     </g>
     <g id="text_8">
      <text style="font-family:DejaVu Sans;font-size:8px;font-stretch:normal;font-style:normal;font-weight:normal;text-anchor:middle;" transform="rotate(-0, 176.15, 89.846125)" x="176.15" y="89.846125">leak</text>
     </g>
    </g>
   </g>
   <g id="matplotlib.axis_2">
    <g id="ytick_1">
     <g id="line2d_9">
      <defs>
       <path d="M 0 0 
L -3.5 0 
" id="me3318a5c91" style="stroke:#000000;stroke-width:1.5;"/>
      </defs>
      <g>
       <use style="stroke:#000000;stroke-width:1.5;" x="45.36875" xlink:href="#me3318a5c91" y="76.767375"/>
      </g>
     </g>
     <g id="text_9">
      <text style="font-family:DejaVu Sans;font-size:8px;font-stretch:normal;font-style:normal;font-weight:normal;text-anchor:end;" transform="rotate(-0, 38.36875, 79.80675)" x="38.36875" y="79.80675">−1.0</text>
     </g>
    </g>
    <g id="ytick_2">
     <g id="line2d_10">
      <g>
       <use style="stroke:#000000;stroke-width:1.5;" x="45.36875" xlink:href="#me3318a5c91" y="60.135375"/>
      </g>
     </g>
     <g id="text_10">
      <text style="font-family:DejaVu Sans;font-size:8px;font-stretch:normal;font-style:normal;font-weight:normal;text-anchor:end;" transform="rotate(-0, 38.36875, 63.17475)" x="38.36875" y="63.17475">−0.5</text>
     </g>
    </g>
    <g id="ytick_3">
     <g id="line2d_11">
      <g>
       <use style="stroke:#000000;stroke-width:1.5;" x="45.36875" xlink:href="#me3318a5c91" y="43.503375"/>
      </g>
     </g>
     <g id="text_11">
      <text style="font-family:DejaVu Sans;font-size:8px;font-stretch:normal;font-style:normal;font-weight:normal;text-anchor:end;" transform="rotate(-0, 38.36875, 46.54275)" x="38.36875" y="46.54275">0.0</text>
     </g>
    </g>
    <g id="ytick_4">
     <g id="line2d_12">
      <g>
       <use style="stroke:#000000;stroke-width:1.5;" x="45.36875" xlink:href="#me3318a5c91" y="26.871375"/>
      </g>
     </g>
     <g id="text_12">
      <text style="font-family:DejaVu Sans;font-size:8px;font-stretch:normal;font-style:normal;font-weight:normal;text-anchor:end;" transform="rotate(-0, 38.36875, 29.91075)" x="38.36875" y="29.91075">0.5</text>
     </g>
    </g>
    <g id="ytick_5">
     <g id="line2d_13">
      <g>
       <use style="stroke:#000000;stroke-width:1.5;" x="45.36875" xlink:href="#me3318a5c91" y="10.239375"/>
      </g>
     </g>
     <g id="text_13">
      <text style="font-family:DejaVu Sans;font-size:8px;font-stretch:normal;font-style:normal;font-weight:normal;text-anchor:end;" transform="rotate(-0, 38.36875, 13.27875)" x="38.36875" y="13.27875">1.0</text>
     </g>
    </g>
    <g id="text_14">
     <text style="font-family:DejaVu Sans;font-size:8px;font-stretch:normal;font-style:normal;font-weight:normal;text-anchor:middle;" transform="rotate(-90, 13.27875, 43.503375)" x="13.27875" y="43.503375">Active dim.</text>
    </g>
   </g>
   <g id="patch_27">
    <path d="M 45.36875 76.767375 
L 45.36875 10.239375 
" style="fill:none;stroke:#000000;stroke-linecap:square;stroke-linejoin:miter;stroke-width:1.5;"/>
   </g>
   <g id="patch_28">
    <path d="M 45.36875 76.767375 
L 184.86875 76.767375 
" style="fill:none;stroke:#000000;stroke-linecap:square;stroke-linejoin:miter;stroke-width:1.5;"/>
   </g>
   <g id="text_15">
    <text style="font-family:DejaVu Sans;font-size:8px;font-stretch:normal;font-style:normal;font-weight:normal;text-anchor:start;" transform="rotate(-0, 94.19375, 16.892175)" x="94.19375" y="16.892175">Total energy</text>
   </g>
   <g id="legend_1">
    <g id="patch_29">
     <path d="M 189.67875 36.823725 
L 192.07875 36.823725 
L 192.07875 31.223725 
L 189.67875 31.223725 
z
" style="fill:#3182bd;"/>
    </g>
    <g id="text_16">
     <text style="font-family:DejaVu Sans;font-size:8px;font-stretch:normal;font-style:normal;font-weight:normal;text-anchor:start;" transform="rotate(-0, 194.87875, 36.823725)" x="194.87875" y="36.823725">AB/PD</text>
    </g>
    <g id="patch_30">
     <path d="M 189.67875 48.566225 
L 192.07875 48.566225 
L 192.07875 42.966225 
L 189.67875 42.966225 
z
" style="fill:#fc8d59;"/>
    </g>
    <g id="text_17">
     <text style="font-family:DejaVu Sans;font-size:8px;font-stretch:normal;font-style:normal;font-weight:normal;text-anchor:start;" transform="rotate(-0, 194.87875, 48.566225)" x="194.87875" y="48.566225">LP</text>
    </g>
    <g id="patch_31">
     <path d="M 189.67875 60.308725 
L 192.07875 60.308725 
L 192.07875 54.708725 
L 189.67875 54.708725 
z
" style="fill:#2ca25f;"/>
    </g>
    <g id="text_18">
     <text style="font-family:DejaVu Sans;font-size:8px;font-stretch:normal;font-style:normal;font-weight:normal;text-anchor:start;" transform="rotate(-0, 194.87875, 60.308725)" x="194.87875" y="60.308725">PY</text>
    </g>
   </g>
  </g>
 </g>
 <defs>
  <clipPath id="pfcd83e8890">
   <rect height="66.528" width="139.5" x="45.36875" y="10.239375"/>
  </clipPath>
 </defs>
</svg>
