<?xml version="1.0" encoding="utf-8" standalone="no"?>
<!DOCTYPE svg PUBLIC "-//W3C//DTD SVG 1.1//EN"
  "http://www.w3.org/Graphics/SVG/1.1/DTD/svg11.dtd">
<!-- Created with matplotlib (https://matplotlib.org/) -->
<svg height="108.40375pt" version="1.1" viewBox="0 0 165.1025 108.40375" width="165.1025pt" xmlns="http://www.w3.org/2000/svg" xmlns:xlink="http://www.w3.org/1999/xlink">
 <metadata>
  <rdf:RDF xmlns:cc="http://creativecommons.org/ns#" xmlns:dc="http://purl.org/dc/elements/1.1/" xmlns:rdf="http://www.w3.org/1999/02/22-rdf-syntax-ns#">
   <cc:Work>
    <dc:type rdf:resource="http://purl.org/dc/dcmitype/StillImage"/>
    <dc:date>2021-01-08T10:50:58.870975</dc:date>
    <dc:format>image/svg+xml</dc:format>
    <dc:creator>
     <cc:Agent>
      <dc:title>Matplotlib v3.3.2, https://matplotlib.org/</dc:title>
     </cc:Agent>
    </dc:creator>
   </cc:Work>
  </rdf:RDF>
 </metadata>
 <defs>
  <style type="text/css">*{stroke-linecap:butt;stroke-linejoin:round;}</style>
 </defs>
 <g id="figure_1">
  <g id="patch_1">
   <path d="M 0 108.40375 
L 165.1025 108.40375 
L 165.1025 0 
L 0 0 
z
" style="fill:none;"/>
  </g>
  <g id="axes_1">
   <g id="patch_2">
    <path d="M 46.3025 74.71875 
L 157.9025 74.71875 
L 157.9025 19.27875 
L 46.3025 19.27875 
z
" style="fill:#ffffff;"/>
   </g>
   <g id="patch_3">
    <path clip-path="url(#p7cf67b7b71)" d="M 51.375227 74.71875 
L 53.038417 74.71875 
L 53.038417 21.91875 
L 51.375227 21.91875 
z
"/>
   </g>
   <g id="patch_4">
    <path clip-path="url(#p7cf67b7b71)" d="M 54.701606 74.71875 
L 56.364795 74.71875 
L 56.364795 72.514829 
L 54.701606 72.514829 
z
"/>
   </g>
   <g id="patch_5">
    <path clip-path="url(#p7cf67b7b71)" d="M 58.027984 74.71875 
L 59.691174 74.71875 
L 59.691174 73.316433 
L 58.027984 73.316433 
z
"/>
   </g>
   <g id="patch_6">
    <path clip-path="url(#p7cf67b7b71)" d="M 61.354363 74.71875 
L 63.017552 74.71875 
L 63.017552 74.347897 
L 61.354363 74.347897 
z
"/>
   </g>
   <g id="patch_7">
    <path clip-path="url(#p7cf67b7b71)" d="M 64.680741 74.71875 
L 66.343931 74.71875 
L 66.343931 74.431916 
L 64.680741 74.431916 
z
"/>
   </g>
   <g id="patch_8">
    <path clip-path="url(#p7cf67b7b71)" d="M 68.00712 74.71875 
L 69.670309 74.71875 
L 69.670309 74.537023 
L 68.00712 74.537023 
z
"/>
   </g>
   <g id="patch_9">
    <path clip-path="url(#p7cf67b7b71)" d="M 71.333499 74.71875 
L 72.996688 74.71875 
L 72.996688 74.552509 
L 71.333499 74.552509 
z
"/>
   </g>
   <g id="patch_10">
    <path clip-path="url(#p7cf67b7b71)" d="M 74.659877 74.71875 
L 76.323066 74.71875 
L 76.323066 74.572897 
L 74.659877 74.572897 
z
"/>
   </g>
   <g id="patch_11">
    <path clip-path="url(#p7cf67b7b71)" d="M 77.986256 74.71875 
L 79.649445 74.71875 
L 79.649445 74.636162 
L 77.986256 74.636162 
z
"/>
   </g>
   <g id="patch_12">
    <path clip-path="url(#p7cf67b7b71)" d="M 81.312634 74.71875 
L 82.975823 74.71875 
L 82.975823 74.656566 
L 81.312634 74.656566 
z
"/>
   </g>
   <g id="patch_13">
    <path clip-path="url(#p7cf67b7b71)" d="M 84.639013 74.71875 
L 86.302202 74.71875 
L 86.302202 74.678656 
L 84.639013 74.678656 
z
"/>
   </g>
   <g id="patch_14">
    <path clip-path="url(#p7cf67b7b71)" d="M 87.965391 74.71875 
L 89.62858 74.71875 
L 89.62858 74.690962 
L 87.965391 74.690962 
z
"/>
   </g>
   <g id="patch_15">
    <path clip-path="url(#p7cf67b7b71)" d="M 91.29177 74.71875 
L 92.954959 74.71875 
L 92.954959 74.691437 
L 91.29177 74.691437 
z
"/>
   </g>
   <g id="patch_16">
    <path clip-path="url(#p7cf67b7b71)" d="M 94.618148 74.71875 
L 96.281338 74.71875 
L 96.281338 74.702989 
L 94.618148 74.702989 
z
"/>
   </g>
   <g id="patch_17">
    <path clip-path="url(#p7cf67b7b71)" d="M 97.944527 74.71875 
L 99.607716 74.71875 
L 99.607716 74.709331 
L 97.944527 74.709331 
z
"/>
   </g>
   <g id="patch_18">
    <path clip-path="url(#p7cf67b7b71)" d="M 101.270905 74.71875 
L 102.934095 74.71875 
L 102.934095 74.71301 
L 101.270905 74.71301 
z
"/>
   </g>
   <g id="patch_19">
    <path clip-path="url(#p7cf67b7b71)" d="M 104.597284 74.71875 
L 106.260473 74.71875 
L 106.260473 74.713133 
L 104.597284 74.713133 
z
"/>
   </g>
   <g id="patch_20">
    <path clip-path="url(#p7cf67b7b71)" d="M 107.923662 74.71875 
L 109.586852 74.71875 
L 109.586852 74.716447 
L 107.923662 74.716447 
z
"/>
   </g>
   <g id="patch_21">
    <path clip-path="url(#p7cf67b7b71)" d="M 111.250041 74.71875 
L 112.91323 74.71875 
L 112.91323 74.717028 
L 111.250041 74.717028 
z
"/>
   </g>
   <g id="patch_22">
    <path clip-path="url(#p7cf67b7b71)" d="M 114.57642 74.71875 
L 116.239609 74.71875 
L 116.239609 74.717663 
L 114.57642 74.717663 
z
"/>
   </g>
   <g id="patch_23">
    <path clip-path="url(#p7cf67b7b71)" d="M 117.902798 74.71875 
L 119.565987 74.71875 
L 119.565987 74.718748 
L 117.902798 74.718748 
z
"/>
   </g>
   <g id="patch_24">
    <path clip-path="url(#p7cf67b7b71)" d="M 121.229177 74.71875 
L 122.892366 74.71875 
L 122.892366 74.718749 
L 121.229177 74.718749 
z
"/>
   </g>
   <g id="patch_25">
    <path clip-path="url(#p7cf67b7b71)" d="M 124.555555 74.71875 
L 126.218744 74.71875 
L 126.218744 74.71875 
L 124.555555 74.71875 
z
"/>
   </g>
   <g id="patch_26">
    <path clip-path="url(#p7cf67b7b71)" d="M 127.881934 74.71875 
L 129.545123 74.71875 
L 129.545123 74.71875 
L 127.881934 74.71875 
z
"/>
   </g>
   <g id="patch_27">
    <path clip-path="url(#p7cf67b7b71)" d="M 131.208312 74.71875 
L 132.871501 74.71875 
L 132.871501 74.71875 
L 131.208312 74.71875 
z
"/>
   </g>
   <g id="patch_28">
    <path clip-path="url(#p7cf67b7b71)" d="M 134.534691 74.71875 
L 136.19788 74.71875 
L 136.19788 74.71875 
L 134.534691 74.71875 
z
"/>
   </g>
   <g id="patch_29">
    <path clip-path="url(#p7cf67b7b71)" d="M 137.861069 74.71875 
L 139.524259 74.71875 
L 139.524259 74.71875 
L 137.861069 74.71875 
z
"/>
   </g>
   <g id="patch_30">
    <path clip-path="url(#p7cf67b7b71)" d="M 141.187448 74.71875 
L 142.850637 74.71875 
L 142.850637 74.71875 
L 141.187448 74.71875 
z
"/>
   </g>
   <g id="patch_31">
    <path clip-path="url(#p7cf67b7b71)" d="M 144.513826 74.71875 
L 146.177016 74.71875 
L 146.177016 74.71875 
L 144.513826 74.71875 
z
"/>
   </g>
   <g id="patch_32">
    <path clip-path="url(#p7cf67b7b71)" d="M 147.840205 74.71875 
L 149.503394 74.71875 
L 149.503394 74.718748 
L 147.840205 74.718748 
z
"/>
   </g>
   <g id="patch_33">
    <path clip-path="url(#p7cf67b7b71)" d="M 151.166583 74.71875 
L 152.829773 74.71875 
L 152.829773 74.718747 
L 151.166583 74.718747 
z
"/>
   </g>
   <g id="matplotlib.axis_1">
    <g id="xtick_1">
     <g id="line2d_1">
      <defs>
       <path d="M 0 0 
L 0 3.5 
" id="m8adb13864a" style="stroke:#000000;stroke-width:1.5;"/>
      </defs>
      <g>
       <use style="stroke:#000000;stroke-width:1.5;" x="52.206822" xlink:href="#m8adb13864a" y="74.71875"/>
      </g>
     </g>
     <g id="text_1">
      <text style="font-family:DejaVu Sans;font-size:8px;font-stretch:normal;font-style:normal;font-weight:normal;text-anchor:middle;" transform="rotate(-0, 52.206822, 87.7975)" x="52.206822" y="87.7975">0</text>
     </g>
    </g>
    <g id="xtick_2">
     <g id="line2d_2">
      <g>
       <use style="stroke:#000000;stroke-width:1.5;" x="85.470607" xlink:href="#m8adb13864a" y="74.71875"/>
      </g>
     </g>
     <g id="text_2">
      <text style="font-family:DejaVu Sans;font-size:8px;font-stretch:normal;font-style:normal;font-weight:normal;text-anchor:middle;" transform="rotate(-0, 85.470607, 87.7975)" x="85.470607" y="87.7975">10</text>
     </g>
    </g>
    <g id="xtick_3">
     <g id="line2d_3">
      <g>
       <use style="stroke:#000000;stroke-width:1.5;" x="118.734393" xlink:href="#m8adb13864a" y="74.71875"/>
      </g>
     </g>
     <g id="text_3">
      <text style="font-family:DejaVu Sans;font-size:8px;font-stretch:normal;font-style:normal;font-weight:normal;text-anchor:middle;" transform="rotate(-0, 118.734393, 87.7975)" x="118.734393" y="87.7975">20</text>
     </g>
    </g>
    <g id="xtick_4">
     <g id="line2d_4">
      <g>
       <use style="stroke:#000000;stroke-width:1.5;" x="151.998178" xlink:href="#m8adb13864a" y="74.71875"/>
      </g>
     </g>
     <g id="text_4">
      <text style="font-family:DejaVu Sans;font-size:8px;font-stretch:normal;font-style:normal;font-weight:normal;text-anchor:middle;" transform="rotate(-0, 151.998178, 87.7975)" x="151.998178" y="87.7975">30</text>
     </g>
    </g>
    <g id="text_5">
     <text style="font-family:DejaVu Sans;font-size:8px;font-stretch:normal;font-style:normal;font-weight:normal;text-anchor:middle;" transform="rotate(-0, 102.1025, 99.54)" x="102.1025" y="99.54">Dimension</text>
    </g>
   </g>
   <g id="matplotlib.axis_2">
    <g id="ytick_1">
     <g id="line2d_5">
      <defs>
       <path d="M 0 0 
L -3.5 0 
" id="mbcd80bfc98" style="stroke:#000000;stroke-width:1.5;"/>
      </defs>
      <g>
       <use style="stroke:#000000;stroke-width:1.5;" x="46.3025" xlink:href="#mbcd80bfc98" y="74.71875"/>
      </g>
     </g>
     <g id="text_6">
      <text style="font-family:DejaVu Sans;font-size:8px;font-stretch:normal;font-style:normal;font-weight:normal;text-anchor:end;" transform="rotate(-0, 39.3025, 77.758125)" x="39.3025" y="77.758125">0</text>
     </g>
    </g>
    <g id="ytick_2">
     <g id="line2d_6">
      <g>
       <use style="stroke:#000000;stroke-width:1.5;" x="46.3025" xlink:href="#mbcd80bfc98" y="55.411765"/>
      </g>
     </g>
     <g id="text_7">
      <text style="font-family:DejaVu Sans;font-size:8px;font-stretch:normal;font-style:normal;font-weight:normal;text-anchor:end;" transform="rotate(-0, 39.3025, 58.45114)" x="39.3025" y="58.45114">1000</text>
     </g>
    </g>
    <g id="ytick_3">
     <g id="line2d_7">
      <g>
       <use style="stroke:#000000;stroke-width:1.5;" x="46.3025" xlink:href="#mbcd80bfc98" y="36.104779"/>
      </g>
     </g>
     <g id="text_8">
      <text style="font-family:DejaVu Sans;font-size:8px;font-stretch:normal;font-style:normal;font-weight:normal;text-anchor:end;" transform="rotate(-0, 39.3025, 39.144154)" x="39.3025" y="39.144154">2000</text>
     </g>
    </g>
    <g id="text_9">
     <text style="font-family:DejaVu Sans;font-size:8px;font-stretch:normal;font-style:normal;font-weight:normal;text-anchor:middle;" transform="rotate(-90, 13.27875, 46.99875)" x="13.27875" y="46.99875">log(E.-value)</text>
    </g>
   </g>
   <g id="patch_34">
    <path d="M 46.3025 74.71875 
L 46.3025 19.27875 
" style="fill:none;stroke:#000000;stroke-linecap:square;stroke-linejoin:miter;stroke-width:1.5;"/>
   </g>
   <g id="patch_35">
    <path d="M 46.3025 74.71875 
L 157.9025 74.71875 
" style="fill:none;stroke:#000000;stroke-linecap:square;stroke-linejoin:miter;stroke-width:1.5;"/>
   </g>
   <g id="text_10">
    <text style="font-family:DejaVu Sans;font-size:8px;font-stretch:normal;font-style:normal;font-weight:normal;text-anchor:middle;" transform="rotate(-0, 102.1025, 13.27875)" x="102.1025" y="13.27875">Total energy</text>
   </g>
  </g>
 </g>
 <defs>
  <clipPath id="p7cf67b7b71">
   <rect height="55.44" width="111.6" x="46.3025" y="19.27875"/>
  </clipPath>
 </defs>
</svg>
