<?xml version="1.0" encoding="utf-8" standalone="no"?>
<!DOCTYPE svg PUBLIC "-//W3C//DTD SVG 1.1//EN"
  "http://www.w3.org/Graphics/SVG/1.1/DTD/svg11.dtd">
<!-- Created with matplotlib (https://matplotlib.org/) -->
<svg height="99.364375pt" version="1.1" viewBox="0 0 150.46625 99.364375" width="150.46625pt" xmlns="http://www.w3.org/2000/svg" xmlns:xlink="http://www.w3.org/1999/xlink">
 <metadata>
  <rdf:RDF xmlns:cc="http://creativecommons.org/ns#" xmlns:dc="http://purl.org/dc/elements/1.1/" xmlns:rdf="http://www.w3.org/1999/02/22-rdf-syntax-ns#">
   <cc:Work>
    <dc:type rdf:resource="http://purl.org/dc/dcmitype/StillImage"/>
    <dc:date>2020-12-16T09:29:44.773192</dc:date>
    <dc:format>image/svg+xml</dc:format>
    <dc:creator>
     <cc:Agent>
      <dc:title>Matplotlib v3.3.2, https://matplotlib.org/</dc:title>
     </cc:Agent>
    </dc:creator>
   </cc:Work>
  </rdf:RDF>
 </metadata>
 <defs>
  <style type="text/css">*{stroke-linecap:butt;stroke-linejoin:round;}</style>
 </defs>
 <g id="figure_1">
  <g id="patch_1">
   <path d="M 0 99.364375 
L 150.46625 99.364375 
L 150.46625 0 
L 0 0 
z
" style="fill:none;"/>
  </g>
  <g id="axes_1">
   <g id="patch_2">
    <path d="M 42.82625 65.679375 
L 143.26625 65.679375 
L 143.26625 10.239375 
L 42.82625 10.239375 
z
" style="fill:none;"/>
   </g>
   <g id="patch_3">
    <path clip-path="url(#p2501702ae9)" d="M 47.391705 10.239375 
L 49.182079 10.239375 
L 49.182079 25.876839 
L 47.391705 25.876839 
z
"/>
   </g>
   <g id="patch_4">
    <path clip-path="url(#p2501702ae9)" d="M 50.972453 10.239375 
L 52.762828 10.239375 
L 52.762828 32.062232 
L 50.972453 32.062232 
z
"/>
   </g>
   <g id="patch_5">
    <path clip-path="url(#p2501702ae9)" d="M 54.553202 10.239375 
L 56.343576 10.239375 
L 56.343576 34.26158 
L 54.553202 34.26158 
z
"/>
   </g>
   <g id="patch_6">
    <path clip-path="url(#p2501702ae9)" d="M 58.133951 10.239375 
L 59.924325 10.239375 
L 59.924325 36.753561 
L 58.133951 36.753561 
z
"/>
   </g>
   <g id="patch_7">
    <path clip-path="url(#p2501702ae9)" d="M 61.714699 10.239375 
L 63.505074 10.239375 
L 63.505074 37.258061 
L 61.714699 37.258061 
z
"/>
   </g>
   <g id="patch_8">
    <path clip-path="url(#p2501702ae9)" d="M 65.295448 10.239375 
L 67.085822 10.239375 
L 67.085822 37.73616 
L 65.295448 37.73616 
z
"/>
   </g>
   <g id="patch_9">
    <path clip-path="url(#p2501702ae9)" d="M 68.876197 10.239375 
L 70.666571 10.239375 
L 70.666571 38.085482 
L 68.876197 38.085482 
z
"/>
   </g>
   <g id="patch_10">
    <path clip-path="url(#p2501702ae9)" d="M 72.456945 10.239375 
L 74.24732 10.239375 
L 74.24732 38.1662 
L 72.456945 38.1662 
z
"/>
   </g>
   <g id="patch_11">
    <path clip-path="url(#p2501702ae9)" d="M 76.037694 10.239375 
L 77.828068 10.239375 
L 77.828068 38.279686 
L 76.037694 38.279686 
z
"/>
   </g>
   <g id="patch_12">
    <path clip-path="url(#p2501702ae9)" d="M 79.618443 10.239375 
L 81.408817 10.239375 
L 81.408817 38.672576 
L 79.618443 38.672576 
z
"/>
   </g>
   <g id="patch_13">
    <path clip-path="url(#p2501702ae9)" d="M 83.199191 10.239375 
L 84.989566 10.239375 
L 84.989566 39.11376 
L 83.199191 39.11376 
z
"/>
   </g>
   <g id="patch_14">
    <path clip-path="url(#p2501702ae9)" d="M 86.77994 10.239375 
L 88.570314 10.239375 
L 88.570314 39.819271 
L 86.77994 39.819271 
z
"/>
   </g>
   <g id="patch_15">
    <path clip-path="url(#p2501702ae9)" d="M 90.360689 10.239375 
L 92.151063 10.239375 
L 92.151063 40.212571 
L 90.360689 40.212571 
z
"/>
   </g>
   <g id="patch_16">
    <path clip-path="url(#p2501702ae9)" d="M 93.941437 10.239375 
L 95.731811 10.239375 
L 95.731811 40.432652 
L 93.941437 40.432652 
z
"/>
   </g>
   <g id="patch_17">
    <path clip-path="url(#p2501702ae9)" d="M 97.522186 10.239375 
L 99.31256 10.239375 
L 99.31256 40.724405 
L 97.522186 40.724405 
z
"/>
   </g>
   <g id="patch_18">
    <path clip-path="url(#p2501702ae9)" d="M 101.102934 10.239375 
L 102.893309 10.239375 
L 102.893309 41.038039 
L 101.102934 41.038039 
z
"/>
   </g>
   <g id="patch_19">
    <path clip-path="url(#p2501702ae9)" d="M 104.683683 10.239375 
L 106.474057 10.239375 
L 106.474057 41.512378 
L 104.683683 41.512378 
z
"/>
   </g>
   <g id="patch_20">
    <path clip-path="url(#p2501702ae9)" d="M 108.264432 10.239375 
L 110.054806 10.239375 
L 110.054806 42.616775 
L 108.264432 42.616775 
z
"/>
   </g>
   <g id="patch_21">
    <path clip-path="url(#p2501702ae9)" d="M 111.84518 10.239375 
L 113.635555 10.239375 
L 113.635555 43.160237 
L 111.84518 43.160237 
z
"/>
   </g>
   <g id="patch_22">
    <path clip-path="url(#p2501702ae9)" d="M 115.425929 10.239375 
L 117.216303 10.239375 
L 117.216303 44.806225 
L 115.425929 44.806225 
z
"/>
   </g>
   <g id="patch_23">
    <path clip-path="url(#p2501702ae9)" d="M 119.006678 10.239375 
L 120.797052 10.239375 
L 120.797052 51.462413 
L 119.006678 51.462413 
z
"/>
   </g>
   <g id="patch_24">
    <path clip-path="url(#p2501702ae9)" d="M 122.587426 10.239375 
L 124.377801 10.239375 
L 124.377801 54.187814 
L 122.587426 54.187814 
z
"/>
   </g>
   <g id="patch_25">
    <path clip-path="url(#p2501702ae9)" d="M 126.168175 10.239375 
L 127.958549 10.239375 
L 127.958549 55.068019 
L 126.168175 55.068019 
z
"/>
   </g>
   <g id="patch_26">
    <path clip-path="url(#p2501702ae9)" d="M 129.748924 10.239375 
L 131.539298 10.239375 
L 131.539298 57.598512 
L 129.748924 57.598512 
z
"/>
   </g>
   <g id="patch_27">
    <path clip-path="url(#p2501702ae9)" d="M 133.329672 10.239375 
L 135.120047 10.239375 
L 135.120047 59.712951 
L 133.329672 59.712951 
z
"/>
   </g>
   <g id="patch_28">
    <path clip-path="url(#p2501702ae9)" d="M 136.910421 10.239375 
L 138.700795 10.239375 
L 138.700795 63.039375 
L 136.910421 63.039375 
z
"/>
   </g>
   <g id="patch_29">
    <path clip-path="url(#p2501702ae9)" d="M 0 0 
z
"/>
   </g>
   <g id="patch_30">
    <path clip-path="url(#p2501702ae9)" d="M 0 0 
z
"/>
   </g>
   <g id="patch_31">
    <path clip-path="url(#p2501702ae9)" d="M 0 0 
z
"/>
   </g>
   <g id="patch_32">
    <path clip-path="url(#p2501702ae9)" d="M 0 0 
z
"/>
   </g>
   <g id="patch_33">
    <path clip-path="url(#p2501702ae9)" d="M 0 0 
z
"/>
   </g>
   <g id="matplotlib.axis_1">
    <g id="xtick_1">
     <g id="line2d_1">
      <defs>
       <path d="M 0 0 
L 0 3.5 
" id="m7cba555bec" style="stroke:#000000;stroke-width:1.5;"/>
      </defs>
      <g>
       <use style="stroke:#000000;stroke-width:1.5;" x="48.286892" xlink:href="#m7cba555bec" y="65.679375"/>
      </g>
     </g>
     <g id="text_1">
      <text style="font-family:DejaVu Sans;font-size:8px;font-stretch:normal;font-style:normal;font-weight:normal;text-anchor:middle;" transform="rotate(-0, 48.286892, 78.758125)" x="48.286892" y="78.758125">0</text>
     </g>
    </g>
    <g id="xtick_2">
     <g id="line2d_2">
      <g>
       <use style="stroke:#000000;stroke-width:1.5;" x="84.094378" xlink:href="#m7cba555bec" y="65.679375"/>
      </g>
     </g>
     <g id="text_2">
      <text style="font-family:DejaVu Sans;font-size:8px;font-stretch:normal;font-style:normal;font-weight:normal;text-anchor:middle;" transform="rotate(-0, 84.094378, 78.758125)" x="84.094378" y="78.758125">10</text>
     </g>
    </g>
    <g id="xtick_3">
     <g id="line2d_3">
      <g>
       <use style="stroke:#000000;stroke-width:1.5;" x="119.901865" xlink:href="#m7cba555bec" y="65.679375"/>
      </g>
     </g>
     <g id="text_3">
      <text style="font-family:DejaVu Sans;font-size:8px;font-stretch:normal;font-style:normal;font-weight:normal;text-anchor:middle;" transform="rotate(-0, 119.901865, 78.758125)" x="119.901865" y="78.758125">20</text>
     </g>
    </g>
    <g id="text_4">
     <text style="font-family:DejaVu Sans;font-size:8px;font-stretch:normal;font-style:normal;font-weight:normal;text-anchor:middle;" transform="rotate(-0, 93.04625, 90.500625)" x="93.04625" y="90.500625">Dimension</text>
    </g>
   </g>
   <g id="matplotlib.axis_2">
    <g id="ytick_1">
     <g id="line2d_4">
      <defs>
       <path d="M 0 0 
L -3.5 0 
" id="m511935ca95" style="stroke:#000000;stroke-width:1.5;"/>
      </defs>
      <g>
       <use style="stroke:#000000;stroke-width:1.5;" x="42.82625" xlink:href="#m511935ca95" y="40.974846"/>
      </g>
     </g>
     <g id="text_5">
      <text style="font-family:DejaVu Sans;font-size:8px;font-stretch:normal;font-style:normal;font-weight:normal;text-anchor:end;" transform="rotate(-0, 35.82625, 44.014221)" x="35.82625" y="44.014221">−20</text>
     </g>
    </g>
    <g id="ytick_2">
     <g id="line2d_5">
      <g>
       <use style="stroke:#000000;stroke-width:1.5;" x="42.82625" xlink:href="#m511935ca95" y="10.239375"/>
      </g>
     </g>
     <g id="text_6">
      <text style="font-family:DejaVu Sans;font-size:8px;font-stretch:normal;font-style:normal;font-weight:normal;text-anchor:end;" transform="rotate(-0, 35.82625, 13.27875)" x="35.82625" y="13.27875">0</text>
     </g>
    </g>
    <g id="text_7">
     <text style="font-family:DejaVu Sans;font-size:8px;font-stretch:normal;font-style:normal;font-weight:normal;text-anchor:middle;" transform="rotate(-90, 13.27875, 37.959375)" x="13.27875" y="37.959375">log(E.-value)</text>
    </g>
   </g>
   <g id="patch_34">
    <path d="M 42.82625 65.679375 
L 42.82625 10.239375 
" style="fill:none;stroke:#000000;stroke-linecap:square;stroke-linejoin:miter;stroke-width:1.5;"/>
   </g>
   <g id="patch_35">
    <path d="M 42.82625 65.679375 
L 143.26625 65.679375 
" style="fill:none;stroke:#000000;stroke-linecap:square;stroke-linejoin:miter;stroke-width:1.5;"/>
   </g>
  </g>
 </g>
 <defs>
  <clipPath id="p2501702ae9">
   <rect height="55.44" width="100.44" x="42.82625" y="10.239375"/>
  </clipPath>
 </defs>
</svg>
