<?xml version="1.0" encoding="utf-8" standalone="no"?>
<!DOCTYPE svg PUBLIC "-//W3C//DTD SVG 1.1//EN"
  "http://www.w3.org/Graphics/SVG/1.1/DTD/svg11.dtd">
<!-- Created with matplotlib (https://matplotlib.org/) -->
<svg height="79.632pt" version="1.1" viewBox="0 0 137.16 79.632" width="137.16pt" xmlns="http://www.w3.org/2000/svg" xmlns:xlink="http://www.w3.org/1999/xlink">
 <metadata>
  <rdf:RDF xmlns:cc="http://creativecommons.org/ns#" xmlns:dc="http://purl.org/dc/elements/1.1/" xmlns:rdf="http://www.w3.org/1999/02/22-rdf-syntax-ns#">
   <cc:Work>
    <dc:type rdf:resource="http://purl.org/dc/dcmitype/StillImage"/>
    <dc:date>2020-12-17T15:52:22.484364</dc:date>
    <dc:format>image/svg+xml</dc:format>
    <dc:creator>
     <cc:Agent>
      <dc:title>Matplotlib v3.3.2, https://matplotlib.org/</dc:title>
     </cc:Agent>
    </dc:creator>
   </cc:Work>
  </rdf:RDF>
 </metadata>
 <defs>
  <style type="text/css">*{stroke-linecap:butt;stroke-linejoin:round;}</style>
 </defs>
 <g id="figure_1">
  <g id="patch_1">
   <path d="M 0 79.632 
L 137.16 79.632 
L 137.16 0 
L 0 0 
z
" style="fill:none;"/>
  </g>
  <g id="axes_1">
   <g id="patch_2">
    <path d="M 7.2 72.432 
L 129.96 72.432 
L 129.96 7.2 
L 7.2 7.2 
z
" style="fill:none;"/>
   </g>
   <g id="matplotlib.axis_1"/>
   <g id="matplotlib.axis_2"/>
   <g id="line2d_1">
    <path clip-path="url(#p043b7e665c)" d="M 12.78 25.67687 
L 12.898833 25.597323 
L 12.955667 25.502647 
L 13.022833 25.56156 
L 13.095167 25.610867 
L 13.131333 25.547407 
L 13.219167 25.57986 
L 13.250167 25.559256 
L 13.369 25.505746 
L 13.379333 25.521378 
L 13.420667 25.561489 
L 13.487833 25.500661 
L 13.518833 25.476513 
L 13.529167 25.423345 
L 13.637667 25.28843 
L 13.653167 25.320867 
L 13.777167 25.353402 
L 13.834 25.295566 
L 13.885667 25.355486 
L 14.133667 25.461659 
L 14.144 25.452502 
L 14.335167 25.554706 
L 14.417833 25.534602 
L 14.448833 25.556172 
L 14.516 25.562564 
L 14.541833 25.504184 
L 14.547 25.506274 
L 14.769167 25.591381 
L 14.774333 25.580426 
L 14.815667 25.604975 
L 14.908667 25.522162 
L 15.471833 25.790201 
L 15.477 25.779884 
L 15.590667 25.759492 
L 15.539 25.840296 
L 15.601 25.770523 
L 15.621667 25.815331 
L 15.719833 25.775865 
L 15.843833 25.651237 
L 15.8645 25.687479 
L 16.004 25.606054 
L 15.88 25.697481 
L 16.009167 25.626996 
L 16.128 25.666269 
L 16.458667 25.672198 
L 16.644667 25.689227 
L 16.7325 25.743706 
L 16.655 25.681121 
L 16.768667 25.703875 
L 16.908167 25.528223 
L 17.0735 25.360299 
L 17.094167 25.383843 
L 17.109667 25.415792 
L 17.187167 25.330257 
L 17.347333 25.241151 
L 17.528167 25.361977 
L 17.621167 25.230201 
L 17.657333 25.283004 
L 17.7865 25.362794 
L 17.683167 25.269452 
L 17.796833 25.339778 
L 18.411667 25.169099 
L 18.416833 25.181082 
L 18.432333 25.168238 
L 18.540833 25.200621 
L 18.659667 25.180158 
L 18.5615 25.233769 
L 18.664833 25.19154 
L 18.788833 25.180852 
L 18.695833 25.13724 
L 18.794 25.162247 
L 18.825 25.187027 
L 18.943833 25.077546 
L 18.974833 25.13434 
L 19.140167 24.911919 
L 19.279667 24.85471 
L 19.434667 24.72709 
L 19.455333 24.754062 
L 19.651667 24.552148 
L 19.966833 24.589138 
L 19.972 24.566439 
L 20.065 24.522428 
L 19.9875 24.573334 
L 20.085667 24.567637 
L 20.261333 24.646751 
L 20.442167 24.807314 
L 20.4525 24.79069 
L 20.524833 24.814737 
L 20.550667 24.743094 
L 20.6385 24.62866 
L 20.6695 24.71497 
L 20.741833 24.664879 
L 20.788333 24.699119 
L 20.922667 24.707236 
L 21.082833 24.614972 
L 21.206833 24.705017 
L 21.212 24.690576 
L 21.547833 24.590477 
L 21.563333 24.560211 
L 21.635667 24.68355 
L 21.640833 24.682214 
L 21.697667 24.726723 
L 21.744167 24.656772 
L 21.888833 24.61205 
L 21.9095 24.638476 
L 21.914667 24.658234 
L 21.961167 24.522654 
L 21.997333 24.556402 
L 22.1885 24.419101 
L 22.0645 24.611451 
L 22.198833 24.43155 
L 22.271167 24.476726 
L 22.3125 24.402953 
L 22.369333 24.300709 
L 22.4985 24.20048 
L 22.508833 24.206148 
L 22.545 24.295784 
L 22.607 24.157367 
L 22.612167 24.165676 
L 22.917 23.967848 
L 23.196 23.714732 
L 23.309667 23.581972 
L 23.3355 23.596041 
L 23.593833 22.429035 
L 23.619667 20.16605 
L 23.640333 10.169604 
L 23.728167 18.34415 
L 23.795333 24.985999 
L 23.929667 24.390318 
L 24.239667 22.324391 
L 24.260333 20.517075 
L 24.275833 10.761713 
L 24.368833 18.530699 
L 24.430833 25.575278 
L 24.5755 24.694568 
L 24.818333 23.08887 
L 24.8855 21.518759 
L 24.906167 10.720458 
L 25.004333 18.531521 
L 25.066333 25.923746 
L 25.216167 25.087436 
L 25.603667 21.711596 
L 25.624333 10.655788 
L 25.727667 18.751261 
L 25.789667 26.125667 
L 25.929167 25.424352 
L 26.445833 21.633047 
L 26.4665 10.580011 
L 26.569833 18.98219 
L 26.626667 26.252276 
L 26.761 25.66023 
L 27.510167 22.660184 
L 27.5515 21.376027 
L 27.572167 10.590718 
L 27.670333 19.335417 
L 27.727167 26.185016 
L 27.840833 25.700396 
L 28.068167 24.928523 
L 28.398833 24.047409 
L 28.404 24.064383 
L 28.471167 23.932552 
L 28.703667 23.321199 
L 28.719167 23.353426 
L 28.750167 23.396514 
L 28.786333 23.335773 
L 28.8225 23.33752 
L 28.967167 23.192512 
L 28.982667 23.213267 
L 29.328833 23.475095 
L 29.463167 23.64885 
L 29.819667 24.13456 
L 29.824833 24.128664 
L 30.300167 24.580885 
L 30.305333 24.574441 
L 30.331167 24.549146 
L 30.4035 24.6349 
L 30.630833 25.009726 
L 30.7445 25.112577 
L 30.822 25.239406 
L 30.873667 25.227567 
L 30.940833 25.32804 
L 31.152667 25.608837 
L 31.204333 25.66279 
L 31.214667 25.688931 
L 31.483333 26.165742 
L 31.529833 26.283202 
L 31.669333 26.573796 
L 31.695167 26.542931 
L 31.700333 26.520865 
L 31.783 26.650728 
L 31.9535 26.847335 
L 32 26.746484 
L 32.062 26.859612 
L 32.253167 27.104977 
L 32.392667 27.221348 
L 32.656167 27.505708 
L 32.6665 27.479395 
L 32.687167 27.44799 
L 32.738833 27.566591 
L 32.749167 27.569846 
L 32.775 27.658581 
L 32.950667 27.904096 
L 32.955833 27.898692 
L 33.178 27.890704 
L 33.183167 27.914033 
L 33.302 27.969269 
L 33.364 27.942355 
L 33.420833 27.983953 
L 33.544833 27.99436 
L 33.55 27.998951 
L 33.586167 27.883007 
L 33.601667 27.897106 
L 33.699833 27.999062 
L 33.823833 28.014972 
L 33.9065 28.021486 
L 33.8445 28.043299 
L 33.927167 28.052041 
L 34.0615 28.118396 
L 34.180333 28.239046 
L 34.1855 28.223829 
L 34.345667 28.141162 
L 34.2165 28.266482 
L 34.350833 28.157346 
L 34.361167 28.147272 
L 34.48 28.172343 
L 34.578167 28.040026 
L 34.511 28.179175 
L 34.604 28.084875 
L 34.6815 28.039955 
L 34.728 28.104953 
L 34.857167 28.176041 
L 34.8675 28.160317 
L 34.981167 28.136725 
L 34.908833 28.179429 
L 34.986333 28.151073 
L 34.9915 28.161737 
L 35.058667 28.052364 
L 35.606333 27.950582 
L 35.6115 27.922388 
L 35.652833 27.979352 
L 35.709667 27.967882 
L 35.823333 28.064795 
L 35.844 28.028741 
L 35.8905 27.923299 
L 35.854333 28.031947 
L 35.957667 28.02326 
L 35.988667 28.065098 
L 36.055833 27.985692 
L 36.1075 27.93967 
L 36.159167 28.012893 
L 36.830833 27.931853 
L 36.9445 27.819113 
L 36.954833 27.839107 
L 37.058167 27.889666 
L 37.016833 27.786176 
L 37.078833 27.86703 
L 37.120167 27.837853 
L 37.182167 27.895221 
L 37.213167 27.940183 
L 37.275167 27.867567 
L 37.295833 27.906697 
L 37.5335 28.053614 
L 37.321667 27.865802 
L 37.554167 28.006901 
L 37.704 27.984131 
L 37.921 28.189964 
L 37.926167 28.174097 
L 38.143167 28.086179 
L 37.941667 28.192643 
L 38.148333 28.100684 
L 38.251667 28.09078 
L 38.231 28.062067 
L 38.256833 28.083097 
L 38.406667 28.098097 
L 38.417 28.070191 
L 38.515167 27.992412 
L 38.551333 28.036841 
L 38.634 27.982915 
L 38.572 27.998208 
L 38.639167 27.973537 
L 38.737333 27.992034 
L 38.6495 27.982514 
L 38.7425 27.995467 
L 38.768333 28.035604 
L 38.82 27.935769 
L 38.840667 27.942878 
L 38.944 27.982948 
L 38.861333 27.968773 
L 38.949167 27.988684 
L 39.037 28.019925 
L 39.042167 28.027792 
L 39.078333 28.076832 
L 39.13 28.003969 
L 39.150667 28.011965 
L 39.243667 27.979117 
L 39.186833 28.036955 
L 39.259167 28.002338 
L 39.326333 28.071273 
L 39.378 28.021933 
L 39.533 27.962959 
L 39.595 28.015649 
L 39.636333 27.943259 
L 39.786167 27.768483 
L 40.085833 27.772732 
L 40.127167 27.887986 
L 40.189167 27.910218 
L 40.163333 27.860042 
L 40.2305 27.850163 
L 40.3235 27.832739 
L 40.2615 27.885089 
L 40.344167 27.857177 
L 40.375167 27.907413 
L 40.432 27.833907 
L 40.457833 27.87156 
L 40.525 27.836239 
L 40.566333 27.887391 
L 40.581833 27.965639 
L 40.674833 27.8934 
L 40.736833 27.825841 
L 40.793667 27.882798 
L 40.886667 27.86685 
L 40.8195 27.851726 
L 40.897 27.849594 
L 41.000333 27.855008 
L 41.010667 27.872605 
L 41.083 27.934897 
L 41.119167 27.875196 
L 41.806333 27.750608 
L 41.9045 27.816203 
L 41.930333 27.737875 
L 42.209333 27.590886 
L 42.2145 27.605673 
L 42.3075 27.631856 
L 42.2765 27.584901 
L 42.328167 27.601758 
L 42.751833 27.350907 
L 42.762167 27.37845 
L 42.824167 27.266407 
L 42.85 27.275034 
L 42.917167 27.219528 
L 42.9275 27.195444 
L 43.0205 27.122106 
L 43.041167 27.161944 
L 43.061833 27.223292 
L 43.108333 27.143753 
L 43.149667 27.165553 
L 43.180667 27.11179 
L 43.263333 27.153374 
L 43.366667 27.182398 
L 43.309833 27.126683 
L 43.377 27.175572 
L 43.4855 27.140266 
L 43.495833 27.17239 
L 44.224333 27.275967 
L 44.286333 27.148147 
L 44.343167 27.243597 
L 44.3845 27.276518 
L 44.431 27.200775 
L 44.456833 27.239817 
L 44.622167 27.253713 
L 44.637667 27.227159 
L 44.689333 27.276573 
L 44.772 27.187533 
L 44.916667 27.303052 
L 44.792667 27.141005 
L 44.952833 27.238056 
L 44.989 27.178058 
L 45.061333 27.2527 
L 45.340333 27.318182 
L 45.350667 27.299029 
L 45.428167 27.35228 
L 45.474667 27.268515 
L 45.567667 27.326513 
L 45.598667 27.282761 
L 45.758833 27.264544 
L 45.764 27.251793 
L 46.0585 27.16832 
L 45.774333 27.267589 
L 46.063667 27.177581 
L 46.239333 27.340075 
L 46.26 27.290622 
L 46.3685 27.162672 
L 46.384 27.191828 
L 46.539 27.279825 
L 46.704333 27.199346 
L 46.606167 27.357642 
L 46.7095 27.207002 
L 46.7405 27.274563 
L 46.818 27.215768 
L 46.921333 27.165135 
L 46.936833 27.170681 
L 47.014333 27.132179 
L 47.040167 27.179365 
L 47.153833 27.259528 
L 47.159 27.238462 
L 47.246833 27.153092 
L 47.277833 27.182272 
L 47.417333 27.151577 
L 47.489667 27.057182 
L 47.536167 27.148866 
L 47.727333 27.131766 
L 47.779 27.175856 
L 47.835833 27.120439 
L 48.1045 26.97734 
L 48.145833 26.931091 
L 48.213 26.997082 
L 48.409333 26.940402 
L 48.523 26.895801 
L 48.605667 26.841608 
L 48.641833 26.856496 
L 48.776167 26.871625 
L 48.827833 26.925091 
L 48.807167 26.858821 
L 48.889833 26.875208 
L 48.915667 26.885797 
L 48.962167 26.806876 
L 48.988 26.832032 
L 49.163667 26.79631 
L 49.168833 26.806515 
L 49.194667 26.784338 
L 49.318667 26.91043 
L 49.334167 26.886068 
L 49.370333 26.955727 
L 49.4065 26.955858 
L 49.509833 26.98371 
L 49.478833 26.935848 
L 49.515 26.97832 
L 49.587333 26.931971 
L 49.546 26.986776 
L 49.6235 26.993208 
L 49.680333 27.015837 
L 49.721667 26.954504 
L 49.98 26.90856 
L 50.042 26.913514 
L 50.062667 26.854457 
L 50.078167 26.861754 
L 50.098833 26.900318 
L 50.197 26.863259 
L 50.341667 26.974444 
L 50.569 27.014499 
L 50.594833 26.928755 
L 50.662 27.048587 
L 50.6775 27.035568 
L 51.0185 27.078238 
L 51.096 27.02316 
L 51.1425 27.071518 
L 51.2975 27.144516 
L 51.406 27.146112 
L 51.411167 27.118351 
L 51.447333 27.198962 
L 51.5145 27.165031 
L 51.5765 27.175352 
L 51.623 27.145236 
L 51.648833 27.118217 
L 51.716 27.205357 
L 51.7315 27.248819 
L 51.819333 27.167393 
L 51.829667 27.218951 
L 51.969167 27.288309 
L 51.989833 27.240263 
L 52.036333 27.237508 
L 52.062167 27.31933 
L 52.067333 27.313327 
L 52.0725 27.331554 
L 52.155167 27.225313 
L 52.160333 27.212315 
L 52.217167 27.30728 
L 52.243 27.29857 
L 52.361833 27.306788 
L 52.299833 27.210725 
L 52.367 27.296355 
L 52.398 27.344791 
L 52.4755 27.320481 
L 52.516833 27.340133 
L 52.501333 27.384671 
L 52.5375 27.392421 
L 52.558167 27.415648 
L 52.625333 27.344286 
L 52.640833 27.361854 
L 52.682167 27.337042 
L 52.749333 27.377454 
L 52.888833 27.340754 
L 52.894 27.359141 
L 52.935333 27.291928 
L 52.992167 27.322053 
L 53.012833 27.307632 
L 53.074833 27.409836 
L 53.08 27.410059 
L 53.1885 27.41958 
L 53.193667 27.445136 
L 53.235 27.438704 
L 53.266 27.370949 
L 53.2815 27.344055 
L 53.359 27.428048 
L 53.519167 27.575212 
L 53.534667 27.552086 
L 53.627667 27.492414 
L 53.658667 27.553555 
L 53.756833 27.623209 
L 53.787833 27.610957 
L 53.911833 27.492691 
L 53.922167 27.509273 
L 53.927333 27.527471 
L 53.9945 27.452997 
L 54.0255 27.474385 
L 54.252833 27.606819 
L 54.258 27.636978 
L 54.314833 27.549316 
L 54.351 27.56108 
L 54.475 27.422926 
L 54.480167 27.42662 
L 54.681667 27.301618 
L 54.4905 27.444684 
L 54.692 27.30885 
L 54.795333 27.354959 
L 54.878 27.44995 
L 54.914167 27.419644 
L 55.012333 27.400725 
L 55.038167 27.457764 
L 55.095 27.475437 
L 55.053667 27.428112 
L 55.1415 27.418414 
L 55.322333 27.302516 
L 55.337833 27.321811 
L 55.343 27.346405 
L 55.430833 27.275388 
L 55.436 27.279174 
L 55.585833 27.225447 
L 55.653 27.21655 
L 55.673667 27.181716 
L 55.678833 27.180345 
L 55.7925 27.133544 
L 55.813167 27.169757 
L 55.937167 27.221416 
L 55.833833 27.114298 
L 55.968167 27.166678 
L 56.0715 27.170493 
L 56.014667 27.202863 
L 56.076667 27.188799 
L 56.2575 27.087136 
L 56.267833 27.109741 
L 56.273 27.115627 
L 56.309167 27.036822 
L 56.340167 27.024763 
L 56.459 26.917918 
L 56.386667 27.047767 
L 56.469333 26.930624 
L 56.738 27.058608 
L 56.743167 27.076467 
L 56.8155 26.953857 
L 56.820667 26.963261 
L 56.924 26.876757 
L 56.944667 26.90969 
L 57.048 27.02357 
L 57.089333 26.997089 
L 57.306333 26.845156 
L 57.425167 26.951891 
L 57.4665 26.901129 
L 57.585333 26.849631 
L 57.750667 26.737426 
L 57.755833 26.742463 
L 58.050333 26.748924 
L 58.102 26.798773 
L 58.122667 26.727641 
L 58.153667 26.734956 
L 58.288 26.619706 
L 58.298333 26.645352 
L 58.370667 26.596252 
L 58.308667 26.659522 
L 58.412 26.671952 
L 58.479167 26.762129 
L 58.5515 26.726349 
L 58.696167 26.640487 
L 58.840833 26.79254 
L 58.851167 26.781819 
L 59.119833 27.040823 
L 59.130167 27.010625 
L 59.466 26.770292 
L 59.719167 26.892386 
L 59.889667 26.871011 
L 59.894833 26.882445 
L 59.910333 26.907176 
L 59.993 26.819415 
L 60.148 26.715806 
L 60.204833 26.674378 
L 60.168667 26.755302 
L 60.261667 26.712133 
L 60.292667 26.74458 
L 60.313333 26.658964 
L 60.359833 26.684173 
L 60.4115 26.629391 
L 60.468333 26.707667 
L 60.587167 26.701656 
L 60.514833 26.63659 
L 60.602667 26.683533 
L 60.716333 26.564312 
L 60.747333 26.591655 
L 61.181333 26.537879 
L 61.1865 26.568879 
L 61.191667 26.602878 
L 61.269167 26.512947 
L 61.289833 26.528332 
L 61.398333 26.592355 
L 61.419 26.583948 
L 61.543 26.513486 
L 61.548167 26.519881 
L 61.677333 26.492164 
L 61.6825 26.476436 
L 61.811667 26.500595 
L 61.935667 26.562847 
L 61.842667 26.449666 
L 61.940833 26.541369 
L 61.977 26.480704 
L 62.049333 26.553108 
L 62.064833 26.573449 
L 62.106167 26.475745 
L 62.142333 26.48795 
L 62.157833 26.497134 
L 62.261167 26.495858 
L 62.276667 26.512408 
L 62.3335 26.403083 
L 62.338667 26.401014 
L 62.793333 26.239074 
L 62.7985 26.25617 
L 62.958667 26.464993 
L 63.031 26.38033 
L 63.072333 26.459236 
L 63.082667 26.490653 
L 63.113667 26.416013 
L 63.180833 26.426854 
L 63.284167 26.5015 
L 63.397833 26.5057 
L 63.304833 26.486129 
L 63.408167 26.492389 
L 63.532167 26.387851 
L 63.552833 26.350895 
L 63.640667 26.397275 
L 63.661333 26.340342 
L 63.723333 26.364117 
L 63.847333 26.260473 
L 63.9765 26.139506 
L 63.986833 26.174375 
L 64.0075 26.226938 
L 64.074667 26.12187 
L 64.085 26.126991 
L 64.147 26.097309 
L 64.188333 26.165327 
L 64.265833 26.124558 
L 64.229667 26.089112 
L 64.271 26.099191 
L 64.312333 26.137867 
L 64.3795 26.132484 
L 64.787667 26.276562 
L 64.808333 26.223691 
L 64.8445 26.224809 
L 64.880667 26.297448 
L 64.885833 26.300314 
L 64.994333 26.301268 
L 65.004667 26.280169 
L 65.056333 26.225268 
L 65.128667 26.254007 
L 65.500667 26.060728 
L 65.536833 26.13915 
L 66.280833 26.178165 
L 66.461667 26.300384 
L 66.466833 26.291548 
L 66.539167 26.148204 
L 66.616667 26.219188 
L 66.740667 26.271985 
L 66.761333 26.242754 
L 66.8285 26.353774 
L 67.686167 26.406936 
L 67.737833 26.44044 
L 67.701667 26.384432 
L 67.7895 26.377702 
L 67.815333 26.434823 
L 67.898 26.375349 
L 67.929 26.428233 
L 68.011667 26.392492 
L 68.487 26.339575 
L 68.523167 26.372154 
L 68.574833 26.304614 
L 68.5955 26.315405 
L 69.0295 26.350308 
L 69.034667 26.323504 
L 69.174167 26.214714 
L 69.241333 26.155059 
L 69.282667 26.191455 
L 69.365333 26.103481 
L 69.396333 26.177377 
L 69.4635 26.277567 
L 69.520333 26.211106 
L 69.603 26.175843 
L 69.623667 26.223037 
L 69.737333 26.299991 
L 69.7425 26.288261 
L 69.9285 26.202984 
L 70.057667 26.136544 
L 70.0835 26.220706 
L 70.171333 26.143371 
L 70.321167 26.118112 
L 70.409 26.025364 
L 70.434833 26.091466 
L 70.527833 26.199492 
L 70.584667 26.154454 
L 70.693167 26.240418 
L 70.739667 26.248223 
L 70.791333 26.190789 
L 70.7965 26.210755 
L 71.457833 26.154936 
L 71.566333 26.090402 
L 71.576667 26.099063 
L 71.685167 26.072474 
L 71.6955 26.057475 
L 71.705833 26.075603 
L 71.824667 26.084652 
L 71.933167 26.154768 
L 71.953833 26.139535 
L 72.083 26.184986 
L 72.088167 26.198863 
L 72.0985 26.226988 
L 72.1295 26.134166 
L 72.186333 26.140149 
L 72.305167 26.053971 
L 72.325833 26.06733 
L 72.429167 25.985274 
L 72.491167 25.933524 
L 72.542833 26.000894 
L 72.6875 25.883432 
L 72.821833 25.983081 
L 72.703 25.865232 
L 72.837333 25.950879 
L 72.956167 25.859747 
L 72.863167 25.974066 
L 72.9665 25.875696 
L 73.0285 25.930909 
L 73.075 25.865078 
L 73.281667 25.790149 
L 73.286833 25.810897 
L 73.317833 25.827671 
L 73.302333 25.800374 
L 73.390167 25.773223 
L 73.565833 25.751974 
L 73.607167 25.658019 
L 73.684667 25.744984 
L 73.881 25.803186 
L 73.886167 25.789443 
L 73.9275 25.696734 
L 74.005 25.767708 
L 74.134167 25.721704 
L 74.253 25.65732 
L 74.258167 25.667281 
L 74.413167 25.712387 
L 74.4235 25.66155 
L 74.459667 25.738799 
L 74.521667 25.732623 
L 74.532 25.760957 
L 74.6095 25.653927 
L 74.619833 25.666086 
L 74.749 25.767351 
L 74.7645 25.749915 
L 74.774833 25.726114 
L 74.8575 25.801456 
L 74.867833 25.793321 
L 75.0125 25.630039 
L 75.053833 25.669783 
L 75.162333 25.74211 
L 75.193333 25.681466 
L 75.493 25.450511 
L 75.224333 25.721067 
L 75.518833 25.521427 
L 75.5395 25.514902 
L 75.627333 25.537456 
L 75.689333 25.582632 
L 75.741 25.538623 
L 75.859833 25.600379 
L 76.009667 25.562903 
L 76.216333 25.688952 
L 76.2215 25.676546 
L 76.350667 25.581598 
L 76.443667 25.593182 
L 76.381667 25.562096 
L 76.454 25.577447 
L 76.521167 25.538698 
L 76.485 25.596665 
L 76.567667 25.569509 
L 76.691667 25.425994 
L 76.707167 25.460174 
L 76.722667 25.495697 
L 76.769167 25.427287 
L 76.815667 25.439686 
L 76.8415 25.399041 
L 76.888 25.493583 
L 76.919 25.474707 
L 76.9655 25.507594 
L 77.0275 25.456432 
L 77.125667 25.339627 
L 77.167 25.366781 
L 77.270333 25.412064 
L 77.285833 25.39457 
L 77.3375 25.446341 
L 77.394333 25.383039 
L 77.3995 25.418432 
L 77.466667 25.335906 
L 77.502833 25.369234 
L 77.57 25.446875 
L 77.626833 25.417429 
L 77.756 25.338634 
L 77.766333 25.359206 
L 77.807667 25.400142 
L 77.869667 25.325055 
L 78.009167 25.320282 
L 78.014333 25.288238 
L 78.184833 25.115594 
L 78.195167 25.120551 
L 78.210667 25.141117 
L 78.231333 25.092555 
L 78.283 25.061352 
L 78.288167 25.036778 
L 78.355333 25.117568 
L 78.381167 25.100437 
L 78.4845 25.195294 
L 78.510333 25.163813 
L 78.665333 25.060908 
L 78.675667 25.082213 
L 78.717 25.029711 
L 78.779 25.067168 
L 78.835833 25.103183 
L 78.897833 25.026562 
L 79.151 25.048533 
L 79.192333 25.098543 
L 79.269833 25.031747 
L 79.347333 25.054847 
L 79.295667 25.072187 
L 79.362833 25.092344 
L 79.791667 24.753932 
L 79.946667 24.642167 
L 79.967333 24.67199 
L 80.05 24.623331 
L 79.977667 24.648392 
L 80.055167 24.599743 
L 80.137833 24.621549 
L 80.148167 24.64134 
L 80.163667 24.672394 
L 80.246333 24.586398 
L 80.272167 24.601548 
L 80.4065 24.415382 
L 80.478833 24.406447 
L 80.504667 24.362839 
L 80.5305 24.389957 
L 80.6545 24.227356 
L 80.711333 24.17134 
L 80.773333 24.203521 
L 81.021333 24.002907 
L 81.031667 24.029754 
L 81.098833 23.937667 
L 81.517333 23.003745 
L 81.574167 22.253728 
L 81.594833 19.475127 
L 81.610333 10.165091 
L 81.703333 18.450974 
L 81.765333 24.626833 
L 81.8945 23.858172 
L 82.070167 22.176896 
L 82.090833 18.951353 
L 82.106333 11.419402 
L 82.199333 19.141333 
L 82.245833 24.953367 
L 82.369833 23.925125 
L 82.53 20.953561 
L 82.5455 11.56522 
L 82.643667 18.956501 
L 82.690167 25.149935 
L 82.8245 23.979484 
L 82.974333 21.0286 
L 82.989833 11.484635 
L 83.088 18.688297 
L 83.139667 25.392085 
L 83.284333 24.105566 
L 83.4445 20.263472 
L 83.46 11.277329 
L 83.553 18.302081 
L 83.615 25.624352 
L 83.759667 24.43037 
L 83.945667 22.05265 
L 83.961167 17.89814 
L 83.9715 11.106965 
L 84.069667 18.349955 
L 84.131667 25.864293 
L 84.2815 24.724416 
L 84.493333 22.859532 
L 84.534667 21.556787 
L 84.555333 10.967876 
L 84.658667 18.764709 
L 84.710333 26.043632 
L 84.855 25.137513 
L 85.004833 24.095339 
L 85.232167 21.136309 
L 85.252833 10.966807 
L 85.345833 18.616142 
L 85.407833 26.062893 
L 85.547333 25.274621 
L 85.743667 24.108472 
L 86.0175 22.813481 
L 86.0795 22.139528 
L 86.100167 19.563755 
L 86.115667 10.996571 
L 86.208667 19.275616 
L 86.260333 25.935781 
L 86.379167 25.318145 
L 86.937167 23.186769 
L 87.025 22.960115 
L 87.112833 22.813574 
L 87.1645 22.869693 
L 89.293167 26.110536 
L 89.468833 26.430914 
L 89.474 26.422597 
L 89.484333 26.421175 
L 89.515333 26.516418 
L 89.5205 26.519088 
L 89.7375 27.004105 
L 89.742667 26.984575 
L 89.804667 27.159933 
L 90.383333 27.97141 
L 89.815 27.150162 
L 90.404 27.946821 
L 90.5125 28.063539 
L 90.672667 28.280227 
L 90.745 28.262496 
L 90.786333 28.280629 
L 90.889667 28.350182 
L 90.910333 28.309516 
L 90.962 28.266487 
L 91.003333 28.36463 
L 91.158333 28.431286 
L 91.168667 28.415437 
L 91.664667 28.464107 
L 91.886833 28.611517 
L 92.005667 28.448264 
L 92.0315 28.470348 
L 92.057333 28.431709 
L 92.150333 28.435817 
L 92.289833 28.28449 
L 92.305333 28.324553 
L 92.419 28.351639 
L 92.331167 28.289766 
L 92.424167 28.329991 
L 92.966667 28.204068 
L 93.095833 28.308913 
L 93.106167 28.301823 
L 93.219833 28.28648 
L 93.235333 28.262348 
L 93.3645 28.393208 
L 93.498833 28.191705 
L 93.504 28.198488 
L 93.679667 28.16575 
L 93.834667 28.02404 
L 93.695167 28.183367 
L 93.8605 28.073761 
L 93.989667 28.12516 
L 94.056833 28.089511 
L 94.098167 28.142139 
L 94.211833 28.176053 
L 94.222167 28.171174 
L 94.547667 28.134745 
L 94.671667 28.071862 
L 94.609667 28.15911 
L 94.676833 28.077007 
L 94.687167 28.107717 
L 94.713 28.062301 
L 94.785333 28.065817 
L 95.095333 28.087748 
L 95.203833 28.031244 
L 95.152167 28.109301 
L 95.214167 28.050686 
L 95.343333 28.111925 
L 95.229667 28.026947 
L 95.364 28.064998 
L 95.5035 27.911709 
L 95.529333 27.947806 
L 95.637833 27.97172 
L 95.539667 27.938873 
L 95.653333 27.941694 
L 95.901333 27.868925 
L 95.911667 27.893083 
L 95.958167 27.903014 
L 95.973667 27.831495 
L 96.009833 27.841865 
L 96.0925 27.838715 
L 96.102833 27.789363 
L 96.583333 27.718728 
L 96.604 27.664712 
L 96.645333 27.772307 
L 96.686667 27.768041 
L 96.707333 27.776352 
L 96.748667 27.699166 
L 96.764167 27.706472 
L 96.800333 27.696172 
L 96.852 27.787704 
L 96.888167 27.825609 
L 96.945 27.735939 
L 96.9605 27.678584 
L 97.007 27.779781 
L 97.063833 27.709371 
L 97.167167 27.727719 
L 97.182667 27.711151 
L 97.296333 27.602509 
L 97.327333 27.644843 
L 97.415167 27.687571 
L 97.373833 27.616231 
L 97.446167 27.663612 
L 97.606333 27.728007 
L 97.621833 27.754271 
L 97.699333 27.663004 
L 97.818167 27.574651 
L 97.823333 27.57843 
L 97.8285 27.591096 
L 97.906 27.487792 
L 98.174667 27.613172 
L 98.190167 27.58127 
L 98.236667 27.636545 
L 98.34 27.49033 
L 98.639667 27.493164 
L 98.655167 27.521862 
L 98.701667 27.397699 
L 98.743 27.461302 
L 98.841167 27.533816 
L 98.872167 27.465806 
L 99.135667 27.345258 
L 99.213167 27.306647 
L 99.228667 27.278683 
L 99.3475 27.17696 
L 99.368167 27.200894 
L 99.497333 27.236497 
L 99.388833 27.170739 
L 99.5025 27.22646 
L 99.559333 27.229516 
L 99.585167 27.15775 
L 99.848667 26.944254 
L 99.600667 27.186941 
L 99.864167 26.987156 
L 100.148333 27.209686 
L 100.169 27.191188 
L 100.344667 27.01391 
L 100.349833 27.051857 
L 100.4635 27.071039 
L 100.380833 27.018295 
L 100.468667 27.066825 
L 100.479 27.035936 
L 100.566833 27.107019 
L 100.613333 27.155651 
L 100.6805 27.122335 
L 100.814833 27.062161 
L 100.882 26.952681 
L 100.933667 27.015914 
L 101.533 26.850707 
L 101.5485 26.844374 
L 101.6725 26.951408 
L 102.0135 27.005192 
L 102.147833 27.070716 
L 102.220167 27.034629 
L 102.163333 27.091181 
L 102.256333 27.063477 
L 102.344167 27.124479 
L 102.37 27.082047 
L 102.494 27.144793 
L 102.499167 27.126207 
L 102.767833 27.08063 
L 102.778167 27.128735 
L 102.9435 27.208396 
L 102.953833 27.194353 
L 103.057167 27.207027 
L 102.969333 27.221243 
L 103.0675 27.230051 
L 103.196667 27.27266 
L 103.103667 27.207468 
L 103.201833 27.262001 
L 103.434333 27.148844 
L 103.465333 27.169862 
L 103.527333 27.106566 
L 103.573833 27.020809 
L 103.646167 27.067645 
L 103.7495 27.032417 
L 103.6565 27.092247 
L 103.770167 27.054953 
L 103.863167 26.996638 
L 103.9045 27.051553 
L 104.064667 26.9712 
L 104.1215 26.932755 
L 104.168 27.010349 
L 104.374667 26.982173 
L 104.467667 26.888995 
L 104.498667 26.915586 
L 104.627833 26.9217 
L 104.633 26.912613 
L 104.653667 26.845751 
L 104.736333 26.94461 
L 104.7415 26.929757 
L 104.8035 26.876291 
L 104.8655 26.930528 
L 104.891333 26.965619 
L 105.263333 26.720623 
L 105.304667 26.705736 
L 105.387333 26.750894 
L 105.4545 26.669557 
L 105.459667 26.648411 
L 105.537167 26.714082 
L 105.552667 26.715799 
L 105.676667 26.81423 
L 105.692167 26.80387 
L 105.707667 26.779 
L 105.790333 26.856434 
L 106.146833 26.714026 
L 106.2605 26.729837 
L 106.265667 26.734196 
L 106.405167 26.781335 
L 106.410333 26.772356 
L 106.529167 26.716351 
L 106.6015 26.670053 
L 106.642833 26.69283 
L 106.648 26.687123 
L 106.6945 26.78103 
L 106.71 26.762953 
L 106.735833 26.782614 
L 106.777167 26.682464 
L 106.803 26.690674 
L 107.3455 27.014404 
L 107.355833 26.987979 
L 107.4075 26.901482 
L 107.464333 26.996157 
L 107.552167 27.043316 
L 107.583167 26.980122 
L 107.634833 26.962043 
L 107.614167 27.001712 
L 107.696833 26.982353 
L 107.862167 26.934574 
L 108.006833 26.847852 
L 108.068833 26.888498 
L 108.1205 26.825085 
L 108.161833 26.893867 
L 108.234167 26.838682 
L 108.2755 26.857648 
L 108.332333 26.797193 
L 108.3995 26.753216 
L 108.342667 26.813302 
L 108.451167 26.793599 
L 108.544167 26.837931 
L 108.564833 26.808147 
L 108.663 26.770714 
L 108.688833 26.78944 
L 108.7715 26.845127 
L 108.797333 26.797092 
L 108.859333 26.74813 
L 108.900667 26.809731 
L 108.978167 26.882734 
L 109.024667 26.839078 
L 109.122833 26.793296 
L 109.153833 26.870371 
L 109.169333 26.883446 
L 109.200333 26.78198 
L 109.246833 26.720873 
L 109.314 26.74865 
L 110.750333 26.650609 
L 110.884667 26.850002 
L 110.889833 26.838298 
L 111.029333 26.853456 
L 111.0345 26.83215 
L 111.117167 26.942146 
L 111.122333 26.927439 
L 111.194667 26.890212 
L 111.153333 26.882598 
L 111.205 26.860343 
L 111.504667 26.614511 
L 111.551167 26.688838 
L 111.582167 26.619929 
L 111.680333 26.646233 
L 111.742333 26.630876 
L 111.711333 26.677023 
L 111.7785 26.684099 
L 111.9645 26.821706 
L 111.98 26.781175 
L 111.990333 26.753091 
L 112.0575 26.858246 
L 112.078167 26.828877 
L 112.114333 26.794491 
L 112.2125 26.87652 
L 112.507 26.75217 
L 112.6155 26.794154 
L 112.631 26.78348 
L 112.827333 26.858123 
L 112.961667 26.925361 
L 112.966833 26.901419 
L 113.054667 27.004996 
L 113.101167 26.937595 
L 113.163167 27.042023 
L 113.183833 27.045426 
L 113.225167 26.966049 
L 113.256167 26.983385 
L 113.318167 26.925059 
L 113.375 26.955376 
L 113.473167 26.98138 
L 113.426667 26.915572 
L 113.4835 26.961695 
L 113.654 26.875987 
L 113.499 26.9822 
L 113.664333 26.908242 
L 113.716 26.892428 
L 113.783167 26.942329 
L 113.927833 26.884491 
L 113.814167 26.985411 
L 113.933 26.895254 
L 113.974333 26.997566 
L 114.046667 26.919815 
L 114.0725 26.851916 
L 114.160333 26.922029 
L 114.857833 26.91438 
L 115.090333 27.022931 
L 115.0955 27.00508 
L 115.271167 26.816223 
L 115.291833 26.855861 
L 115.581167 26.752059 
L 115.648333 26.807393 
L 115.694833 26.781431 
L 115.927333 26.644577 
L 115.968667 26.711865 
L 116.004833 26.742505 
L 116.046167 26.649921 
L 116.077167 26.700964 
L 116.103 26.725697 
L 116.201167 26.690001 
L 116.340667 26.878365 
L 116.376833 26.837553 
L 116.500833 26.748631 
L 116.6145 26.75504 
L 116.568 26.80383 
L 116.619667 26.774772 
L 116.748833 26.833453 
L 116.754 26.825306 
L 116.867667 26.651703 
L 116.909 26.68374 
L 117.25 26.695593 
L 117.275833 26.672673 
L 117.322333 26.738533 
L 117.3585 26.698821 
L 117.436 26.757949 
L 117.492833 26.724203 
L 117.498 26.706817 
L 117.570333 26.815413 
L 117.580667 26.804064 
L 117.6995 26.845193 
L 117.704667 26.829841 
L 117.849333 26.791237 
L 117.8545 26.801565 
L 117.937167 26.900288 
L 117.973333 26.862711 
L 118.154167 26.672487 
L 118.335 26.801468 
L 118.345333 26.825021 
L 118.417667 26.708499 
L 118.422833 26.724176 
L 118.531333 26.693148 
L 118.5365 26.678647 
L 118.624333 26.757291 
L 118.918833 26.822292 
L 118.639833 26.716521 
L 118.924 26.806586 
L 119.027333 26.823611 
L 119.017 26.85914 
L 119.0325 26.830924 
L 119.0945 26.89593 
L 119.161667 26.870889 
L 119.259833 26.830579 
L 119.337333 26.758391 
L 119.378667 26.790878 
L 119.4665 26.697152 
L 119.502667 26.746888 
L 119.600833 26.746399 
L 119.569833 26.715556 
L 119.611167 26.731895 
L 119.859167 26.644894 
L 119.874667 26.66619 
L 119.947 26.593136 
L 120.003833 26.657447 
L 120.153667 26.44037 
L 120.174333 26.447296 
L 120.236333 26.508285 
L 120.282833 26.429271 
L 120.453333 26.346083 
L 120.463667 26.359935 
L 120.556667 26.405046 
L 120.577333 26.35712 
L 120.696167 26.372779 
L 120.7065 26.346967 
L 120.758167 26.227533 
L 120.8305 26.303684 
L 120.840833 26.324814 
L 120.918333 26.265256 
L 120.933833 26.280316 
L 121.528 26.164612 
L 121.600333 26.217738 
L 121.646833 26.176269 
L 121.6985 26.139291 
L 121.6675 26.114432 
L 121.719167 26.093034 
L 121.832833 26.001761 
L 121.843167 26.008579 
L 121.9465 26.065003 
L 121.858667 26.001378 
L 121.972333 26.055677 
L 122.241 26.000877 
L 122.246167 26.023883 
L 122.277167 25.95732 
L 122.344333 25.964543 
L 122.494167 25.96521 
L 122.561333 25.991554 
L 122.592333 25.92714 
L 122.644 25.906434 
L 122.695667 25.967547 
L 122.83 26.055798 
L 123.052167 26.125757 
L 123.057333 26.146076 
L 123.134833 26.011446 
L 123.150333 25.995577 
L 123.274333 26.026945 
L 123.470667 25.922458 
L 123.5585 25.961489 
L 123.579167 25.903224 
L 124.173333 25.901478 
L 124.312833 26.002734 
L 124.343833 25.981716 
L 124.369667 25.984891 
L 124.374833 25.993837 
" style="fill:none;stroke:#000000;stroke-linecap:square;stroke-width:0.3;"/>
   </g>
   <g id="line2d_2">
    <path clip-path="url(#p043b7e665c)" d="M 12.78 46.225408 
L 12.852333 46.263154 
L 12.898833 46.225969 
L 12.960833 46.148727 
L 13.017667 46.202711 
L 13.286333 46.127396 
L 13.296667 46.153016 
L 13.410333 46.165842 
L 13.932167 45.884557 
L 13.952833 45.920651 
L 13.968333 45.938155 
L 14.040667 45.855565 
L 14.045833 45.820838 
L 14.107833 45.917294 
L 14.154333 45.844197 
L 14.200833 45.869418 
L 14.2835 45.835661 
L 14.402333 45.847363 
L 14.4075 45.81814 
L 14.454 45.805181 
L 14.495333 45.881445 
L 14.5005 45.879867 
L 15.115333 45.832076 
L 15.161833 45.773225 
L 15.125667 45.838328 
L 15.229 45.834533 
L 15.363333 45.98741 
L 15.3685 45.968625 
L 15.528667 45.862866 
L 15.378833 45.976663 
L 15.533833 45.866534 
L 15.657833 45.921625 
L 15.761167 45.914306 
L 15.6785 45.952234 
L 15.766333 45.935657 
L 15.8645 46.062553 
L 15.900667 46.040074 
L 16.0505 45.920779 
L 16.195167 46.004554 
L 16.076333 45.88364 
L 16.200333 45.99292 
L 16.257167 45.918148 
L 16.314 45.979659 
L 16.386333 46.023758 
L 16.4225 45.991337 
L 16.536167 45.932704 
L 16.438 46.003961 
L 16.541333 45.963551 
L 16.624 46.020811 
L 16.660167 46.009863 
L 16.717 45.985267 
L 16.737667 46.03595 
L 16.768667 46.029457 
L 16.779 46.055122 
L 16.866833 45.966182 
L 16.970167 45.989093 
L 16.923667 45.929853 
L 16.9805 45.95847 
L 17.052833 45.927889 
L 17.001167 45.990445 
L 17.089 45.976812 
L 17.238833 45.901183 
L 17.244 45.909065 
L 17.424833 46.025698 
L 17.517833 45.993062 
L 17.440333 46.046792 
L 17.554 46.050579 
L 17.683167 46.076628 
L 17.610833 45.976316 
L 17.688333 46.071229 
L 17.703833 46.050467 
L 17.781333 46.152845 
L 17.7865 46.130704 
L 17.977667 46.037496 
L 18.086167 46.079922 
L 18.117167 46.035906 
L 18.179167 46.034236 
L 18.205 46.101291 
L 18.215333 46.07134 
L 18.272167 46.043758 
L 18.334167 46.07497 
L 18.4065 46.010326 
L 18.453 46.074058 
L 18.551167 46.159464 
L 18.577 46.142918 
L 18.6855 46.137186 
L 18.695833 46.164973 
L 18.804333 46.264706 
L 18.721667 46.155353 
L 18.830167 46.251985 
L 18.8715 46.23962 
L 18.912833 46.336013 
L 19.197 46.224882 
L 19.310667 46.269253 
L 19.3985 46.230112 
L 19.326167 46.283467 
L 19.424333 46.275717 
L 20.385333 46.414567 
L 20.509333 46.378224 
L 20.617833 46.44213 
L 20.643667 46.426459 
L 20.752167 46.466098 
L 20.654 46.410487 
L 20.767667 46.434484 
L 20.772833 46.398861 
L 20.850333 46.536822 
L 20.871 46.484222 
L 21.015667 46.466534 
L 21.026 46.489237 
L 21.093167 46.492633 
L 21.119 46.560325 
L 21.144833 46.590763 
L 21.201667 46.481548 
L 21.232667 46.551813 
L 21.305 46.524311 
L 21.341167 46.572418 
L 21.589167 46.516302 
L 21.604667 46.557239 
L 21.651167 46.64056 
L 21.713167 46.557406 
L 21.7855 46.605717 
L 21.795833 46.635821 
L 21.914667 46.679569 
L 21.919833 46.674983 
L 21.976667 46.628696 
L 21.992167 46.593288 
L 22.054167 46.540654 
L 22.0955 46.631974 
L 22.100667 46.600651 
L 22.2505 46.676584 
L 22.348667 46.800757 
L 22.39 46.785206 
L 22.539833 46.829866 
L 22.601833 46.853784 
L 22.643167 46.798215 
L 22.7 46.791875 
L 22.674167 46.834809 
L 22.731 46.842696 
L 22.8705 47.020078 
L 22.886 47.01596 
L 22.896333 46.973541 
L 22.968667 47.119967 
L 22.979 47.111234 
L 23.072 47.229105 
L 23.103 47.177294 
L 23.2425 47.10259 
L 23.392333 47.20452 
L 23.423333 47.169767 
L 23.588667 47.205662 
L 23.604167 47.191999 
L 23.63 47.318606 
L 23.816 48.098877 
L 23.919333 48.178705 
L 23.950333 48.121879 
L 24.074333 48.02787 
L 24.182833 48.135106 
L 24.193167 48.10417 
L 24.647833 48.071607 
L 24.7615 48.100409 
L 24.678833 48.045911 
L 24.766667 48.077713 
L 24.932 48.01035 
L 24.9475 48.048353 
L 25.076667 48.12893 
L 25.087 48.124686 
L 25.123167 48.140942 
L 25.242 48.013983 
L 25.304 48.090646 
L 25.371167 48.035205 
L 25.448667 47.978255 
L 25.4125 48.052655 
L 25.479667 48.040421 
L 25.681167 48.169751 
L 25.686333 48.163484 
L 25.763833 48.008391 
L 25.8155 48.059915 
L 27.262167 48.073539 
L 27.288 47.987367 
L 27.375833 48.04623 
L 27.629 48.076423 
L 27.691 48.114278 
L 27.747833 48.079701 
L 28.269667 48.093692 
L 28.311 48.068177 
L 28.393667 48.120906 
L 28.507333 48.012234 
L 28.5125 48.039109 
L 28.621 48.087952 
L 28.641667 48.072717 
L 28.7605 47.964638 
L 28.786333 48.01805 
L 28.8845 48.029574 
L 28.817333 48.005835 
L 28.9 48.013092 
L 29.055 47.951997 
L 29.091167 47.992733 
L 29.173833 47.935829 
L 29.313333 47.991493 
L 29.375333 48.027624 
L 29.427 47.984166 
L 29.5355 48.008314 
L 29.489 47.914199 
L 29.545833 47.988514 
L 29.5975 47.928312 
L 29.5665 48.007062 
L 29.664667 47.987174 
L 29.762833 48.090757 
L 29.793833 48.018258 
L 29.923 47.823677 
L 29.964333 47.847738 
L 29.974667 47.861274 
L 30.047 47.75457 
L 30.14 47.770996 
L 30.0625 47.76794 
L 30.150333 47.78971 
L 30.300167 47.899332 
L 30.305333 47.886074 
L 30.610167 47.676827 
L 30.615333 47.682416 
L 30.698 47.792239 
L 30.749667 47.750029 
L 31.261167 47.599859 
L 31.3025 47.563912 
L 31.349 47.648029 
L 31.354167 47.640177 
L 31.400667 47.696033 
L 31.4575 47.606275 
L 31.684833 47.507404 
L 31.7985 47.580057 
L 31.803667 47.579033 
L 31.901833 47.574036 
L 31.814 47.585387 
L 31.917333 47.603388 
L 31.979333 47.660669 
L 32.020667 47.57735 
L 32.191167 47.479141 
L 32.0465 47.597918 
L 32.196333 47.501 
L 32.242833 47.571966 
L 32.320333 47.511138 
L 32.403 47.382416 
L 32.4495 47.457799 
L 32.893833 47.337936 
L 32.9145 47.376428 
L 33.002333 47.331614 
L 33.178 47.356956 
L 33.183167 47.343635 
L 33.358833 47.121989 
L 33.364 47.126734 
L 34.175167 46.847153 
L 34.190667 46.884771 
L 34.283667 46.834592 
L 34.325 46.817541 
L 34.350833 46.910794 
L 34.438667 46.855117 
L 34.4645 46.914578 
L 34.5885 46.872937 
L 34.593667 46.886372 
L 34.702167 46.881746 
L 34.7125 46.847063 
L 34.852 46.694297 
L 34.738333 46.853892 
L 34.857167 46.699984 
L 35.0225 46.73273 
L 34.888167 46.645875 
L 35.027667 46.721386 
L 35.1155 46.567253 
L 35.156833 46.632925 
L 35.3325 46.494586 
L 35.461667 46.684878 
L 35.466833 46.679786 
L 35.745833 46.491128 
L 35.482333 46.713037 
L 35.751 46.506751 
L 35.854333 46.527772 
L 35.875 46.508729 
L 35.916333 46.518452 
L 36.009333 46.409345 
L 36.112667 46.369263 
L 36.128167 46.383246 
L 36.252167 46.4303 
L 36.2625 46.419927 
L 36.691333 46.160652 
L 36.6965 46.179506 
L 36.753333 46.132141 
L 36.7585 46.108637 
L 36.810167 46.14829 
L 36.877333 46.067144 
L 37.094333 46.007672 
L 37.3165 45.905366 
L 37.321667 45.914336 
L 37.419833 45.9836 
L 37.4405 45.957494 
L 37.600667 45.849309 
L 37.693667 45.839582 
L 37.673 45.792329 
L 37.704 45.810667 
L 37.848667 45.860502 
L 37.853833 45.847506 
L 37.9675 45.769331 
L 38.050167 45.760536 
L 38.024333 45.804211 
L 38.081167 45.783985 
L 38.132833 45.797551 
L 38.158667 45.727895 
L 38.174167 45.733335 
L 38.220667 45.705977 
L 38.267167 45.797678 
L 38.5565 45.817618 
L 38.670167 45.707046 
L 38.690833 45.724192 
L 38.716667 45.786682 
L 38.794167 45.682898 
L 38.980167 45.672597 
L 38.985333 45.692458 
L 39.016333 45.683083 
L 39.104167 45.744714 
L 39.1765 45.658692 
L 39.228167 45.721929 
L 39.243667 45.739219 
L 39.310833 45.661935 
L 39.326333 45.663483 
L 39.383167 45.721726 
L 39.429667 45.654971 
L 39.558833 45.544995 
L 40.06 45.135095 
L 40.070333 45.172718 
L 40.1995 45.220856 
L 40.116833 45.15163 
L 40.204667 45.217329 
L 40.3855 45.195944 
L 40.390667 45.21442 
L 40.457833 45.296145 
L 40.5095 45.217857 
L 40.643833 45.069681 
L 40.649 45.087199 
L 40.7885 45.002021 
L 40.68 45.114037 
L 40.798833 45.01322 
L 40.814333 45.033388 
L 40.840167 44.963216 
L 40.891833 44.960264 
L 41.041667 44.910128 
L 41.062333 44.935534 
L 41.103667 44.971033 
L 41.1605 44.880258 
L 41.424 44.712615 
L 41.429167 44.731219 
L 41.506667 44.775666 
L 41.444667 44.719281 
L 41.5325 44.717825 
L 41.5945 44.693762 
L 41.635833 44.758147 
L 41.868333 44.48065 
L 41.8735 44.485364 
L 41.899333 44.474931 
L 41.92 44.408005 
L 41.971667 44.283589 
L 42.033667 44.384378 
L 42.173167 44.395297 
L 42.178333 44.389974 
L 42.323 44.181491 
L 42.333333 44.192118 
L 42.436667 44.10237 
L 42.684667 43.594148 
L 42.689833 43.603165 
L 42.777667 43.163809 
L 42.839667 41.566972 
L 42.870667 31.83338 
L 42.937833 43.549165 
L 42.968833 45.74122 
L 43.056667 45.115242 
L 43.289167 42.059212 
L 43.315 32.392127 
L 43.387333 42.892599 
L 43.418333 46.378097 
L 43.506167 45.576454 
L 43.7335 42.135815 
L 43.759333 32.471452 
L 43.831667 42.021534 
L 43.862667 46.630532 
L 43.9505 45.842148 
L 44.193333 42.337295 
L 44.219167 32.452818 
L 44.296667 42.740817 
L 44.3225 46.757664 
L 44.4155 45.989078 
L 44.679 41.885152 
L 44.699667 32.395085 
L 44.777167 42.946771 
L 44.803 46.880688 
L 44.896 46.17243 
L 45.180167 42.350576 
L 45.206 32.323222 
L 45.2835 42.655716 
L 45.3145 47.012513 
L 45.402333 46.361308 
L 45.702 43.133139 
L 45.738167 41.464195 
L 45.758833 32.278907 
L 45.836333 44.422169 
L 45.862167 47.114848 
L 45.95 46.511163 
L 46.322 42.23081 
L 46.347833 32.174636 
L 46.420167 42.07841 
L 46.451167 47.167333 
L 46.539 46.611209 
L 46.9575 41.922353 
L 46.983333 32.222382 
L 47.055667 43.570698 
L 47.091833 47.248185 
L 47.1745 46.680654 
L 47.494833 44.092682 
L 47.649833 42.238909 
L 47.680833 32.284877 
L 47.748 42.635556 
L 47.784167 47.185223 
L 47.866833 46.716843 
L 48.2905 43.6038 
L 48.373167 42.796456 
L 48.404167 40.831594 
L 48.424833 32.317426 
L 48.502333 46.209711 
L 48.533333 47.174639 
L 48.616 46.646235 
L 48.884667 44.771432 
L 48.998333 44.06752 
L 49.230833 41.503066 
L 49.256667 32.660865 
L 49.323833 44.826919 
L 49.354833 46.992289 
L 49.442667 46.499384 
L 49.9025 43.612602 
L 50.011 42.786084 
L 50.047167 40.94861 
L 50.067833 32.58745 
L 50.140167 45.52174 
L 50.176333 47.058164 
L 50.253833 46.539403 
L 50.941 41.971759 
L 50.972 32.895122 
L 51.028833 41.971085 
L 51.0805 46.912493 
L 51.152833 46.495455 
L 51.400833 44.870437 
L 51.736667 43.454819 
L 51.865833 43.096111 
L 51.969167 41.140814 
L 51.995 33.475965 
L 52.057 44.56589 
L 52.093167 46.665384 
L 52.175833 46.217709 
L 52.191333 46.137765 
L 52.423833 44.681239 
L 52.883667 42.824757 
L 52.935333 41.515266 
L 52.966333 33.353516 
L 53.023167 43.770821 
L 53.0645 46.744397 
L 53.142 46.280633 
L 53.7465 43.44979 
L 53.953167 43.004945 
L 54.082333 41.598193 
L 54.1185 34.177113 
L 54.170167 43.360704 
L 54.221833 46.464696 
L 54.294167 46.070013 
L 54.619667 44.235212 
L 54.7075 43.946276 
L 54.883167 43.494387 
L 54.888333 43.50196 
L 55.151833 43.208045 
L 55.2035 43.154462 
L 55.270667 43.246868 
L 55.394667 43.474184 
L 55.580667 43.822007 
L 55.585833 43.806076 
L 55.901 44.101153 
L 55.963 44.177252 
L 56.092167 44.35459 
L 56.112833 44.312058 
L 56.205833 44.280103 
L 56.2265 44.312831 
L 56.371167 44.524946 
L 56.402167 44.458727 
L 56.521 44.553284 
L 56.655333 44.785783 
L 56.670833 44.768272 
L 56.738 44.856782 
L 56.929167 45.156904 
L 56.986 45.156879 
L 56.960167 45.209715 
L 57.011833 45.198281 
L 57.1565 45.418287 
L 57.244333 45.371705 
L 57.166833 45.421821 
L 57.270167 45.407094 
L 57.425167 45.636571 
L 57.575 45.874944 
L 57.616333 45.842577 
L 57.802333 45.982459 
L 57.828167 45.937568 
L 57.874667 45.930527 
L 57.843667 45.960076 
L 57.926333 45.987828 
L 58.102 46.188742 
L 58.174333 46.145004 
L 58.215667 46.174079 
L 58.448167 46.357783 
L 58.4585 46.341162 
L 58.499833 46.435202 
L 58.510167 46.434033 
L 58.536 46.418049 
L 58.6445 46.551292 
L 58.804667 46.657093 
L 58.913167 46.812804 
L 58.944167 46.778754 
L 59.032 46.728534 
L 58.959667 46.793195 
L 59.073333 46.792711 
L 59.553833 46.889384 
L 59.6675 46.925974 
L 59.781167 46.87855 
L 59.7915 46.882652 
L 59.8225 46.950998 
L 59.910333 46.892463 
L 59.951667 46.838336 
L 60.029167 46.883072 
L 60.235833 46.963933 
L 60.251333 46.946272 
L 60.2875 46.962753 
L 60.390833 46.813912 
L 60.483833 46.816002 
L 60.416667 46.797 
L 60.489 46.784625 
L 60.700833 46.522448 
L 60.917833 46.472632 
L 60.933333 46.50745 
L 61.010833 46.543765 
L 60.990167 46.480254 
L 61.036667 46.477523 
L 61.160667 46.398204 
L 61.057333 46.496224 
L 61.176167 46.423992 
L 61.2175 46.463625 
L 61.289833 46.414682 
L 61.315667 46.428912 
L 61.455167 46.329493 
L 61.481 46.335704 
L 61.532667 46.260731 
L 61.672167 46.210067 
L 61.987333 46.535794 
L 62.039 46.470649 
L 62.194 46.433645 
L 62.343833 46.443525 
L 62.405833 46.465213 
L 62.4575 46.426412 
L 62.560833 46.398305 
L 62.566 46.375033 
L 62.726167 46.345745 
L 62.752 46.366745 
L 62.803667 46.299926 
L 62.824333 46.299458 
L 62.943167 46.243048 
L 62.9535 46.261846 
L 63.253167 46.130244 
L 63.361667 46.101302 
L 63.315167 46.147626 
L 63.366833 46.108743 
L 63.428833 46.143034 
L 63.465 46.062925 
L 63.470167 46.07427 
L 63.501167 46.05909 
L 63.537333 46.10529 
L 63.5735 46.111878 
L 63.764667 46.095183 
L 63.8525 46.263886 
L 63.888667 46.220834 
L 64.054 46.272838 
L 63.935167 46.171763 
L 64.059167 46.257435 
L 64.090167 46.272235 
L 64.178 46.192495 
L 64.260667 46.308268 
L 64.291667 46.21673 
L 64.415667 46.268632 
L 64.420833 46.261529 
L 64.575833 46.111805 
L 64.622333 46.062284 
L 64.699833 46.092176 
L 64.761833 46.144402 
L 64.818667 46.096555 
L 64.994333 46.134269 
L 65.221667 46.071114 
L 65.226833 46.086607 
L 65.356 46.160723 
L 65.438667 46.145427 
L 65.412833 46.183331 
L 65.4645 46.18693 
L 65.583333 46.171964 
L 65.5885 46.180658 
L 65.593667 46.190332 
L 65.6505 46.068811 
L 65.717667 45.939124 
L 65.759 46.03146 
L 65.8365 46.115199 
L 65.877833 46.069367 
L 66.275667 46.04933 
L 66.4255 46.071275 
L 66.430667 46.054662 
L 66.637333 46.006365 
L 66.647667 46.021556 
L 66.683833 46.048345 
L 66.7355 45.975971 
L 66.751 45.98594 
L 66.802667 45.941566 
L 66.864667 45.980239 
L 66.931833 45.91646 
L 66.978333 45.969987 
L 67.2625 46.151053 
L 67.272833 46.132576 
L 67.2935 46.10143 
L 67.34 46.17186 
L 67.376167 46.157699 
L 67.443333 46.186174 
L 67.4795 46.11542 
L 67.6035 46.045147 
L 67.624167 46.068493 
L 67.6345 46.082117 
L 67.686167 45.991907 
L 67.712 46.007852 
L 67.779167 45.925319 
L 67.841167 45.986332 
L 67.980667 46.049472 
L 68.058167 46.125858 
L 68.094333 46.05287 
L 68.621333 45.989918 
L 68.698833 46.033735 
L 68.735 45.993103 
L 68.864167 45.94644 
L 68.869333 45.963492 
L 68.993333 45.986122 
L 68.895167 45.903343 
L 69.003667 45.968621 
L 69.1535 45.893427 
L 69.169 45.933449 
L 69.241333 45.81497 
L 69.251667 45.829788 
L 69.298167 45.819357 
L 69.349833 45.888767 
L 69.427333 45.907273 
L 69.391167 45.847846 
L 69.458333 45.863016 
L 69.546167 45.860196 
L 69.551333 45.832773 
L 69.5565 45.810405 
L 69.623667 45.884208 
L 69.654667 45.872544 
L 69.8665 45.76543 
L 69.969833 45.827268 
L 69.9905 45.813937 
L 70.13 45.751197 
L 70.135167 45.757619 
L 70.140333 45.773496 
L 70.166167 45.718528 
L 70.2385 45.716126 
L 70.357333 45.758988 
L 70.279833 45.672753 
L 70.3625 45.751506 
L 70.564 45.686886 
L 70.569167 45.696145 
L 70.6105 45.659918 
L 70.693167 45.699127 
L 70.775833 45.600632 
L 70.812 45.624588 
L 70.915333 45.651363 
L 70.925667 45.622005 
L 71.054833 45.565644 
L 71.070333 45.593357 
L 71.1065 45.619556 
L 71.158167 45.54385 
L 71.178833 45.578179 
L 71.266667 45.532242 
L 71.297667 45.557967 
L 71.421667 45.446048 
L 71.452667 45.51194 
L 72.026167 45.390425 
L 72.041667 45.466536 
L 72.093333 45.411427 
L 72.207 45.538175 
L 72.232833 45.504081 
L 72.3 45.614986 
L 72.486 45.829858 
L 72.511833 45.776065 
L 72.635833 45.722393 
L 72.677167 45.703887 
L 72.7185 45.806258 
L 72.723667 45.796099 
L 72.883833 45.883685 
L 72.956167 45.87658 
L 72.971667 45.91676 
L 72.987167 45.917419 
L 73.3385 45.928116 
L 73.374667 45.993321 
L 73.405667 45.882407 
L 73.436667 45.881057 
L 73.576167 45.803652 
L 73.664 45.815669 
L 73.638167 45.767903 
L 73.684667 45.802283 
L 73.824167 45.667166 
L 73.8345 45.689852 
L 73.932667 45.727738 
L 73.963667 45.664763 
L 73.974 45.664664 
L 73.994667 45.728255 
L 74.0205 45.748377 
L 74.056667 45.676344 
L 74.123833 45.726258 
L 74.247833 45.645198 
L 74.325333 45.634279 
L 74.263333 45.608571 
L 74.346 45.599069 
L 74.4235 45.524458 
L 74.475167 45.579124 
L 74.4855 45.565837 
L 74.790333 45.764038 
L 74.862667 45.711776 
L 74.842 45.786154 
L 74.904 45.759166 
L 74.997 45.735312 
L 75.007333 45.710361 
L 75.131333 45.637515 
L 75.141667 45.659375 
L 75.214 45.689032 
L 75.183 45.722964 
L 75.219167 45.709951 
L 75.317333 45.816645 
L 75.343167 45.808248 
L 75.4155 45.771187 
L 75.363833 45.832799 
L 75.456833 45.815523 
L 75.591167 45.791346 
L 75.715167 45.879196 
L 75.611833 45.786 
L 75.720333 45.872315 
L 75.803 45.838261 
L 75.834 45.8893 
L 75.952833 45.798169 
L 75.958 45.815769 
L 76.051 45.92423 
L 76.082 45.893241 
L 76.138833 45.822075 
L 76.206 45.854829 
L 76.304167 45.842211 
L 76.3145 45.792846 
L 76.3765 45.767722 
L 76.423 45.806915 
L 76.4385 45.844222 
L 76.521167 45.757806 
L 76.526333 45.769767 
L 76.707167 45.887908 
L 76.7485 45.857066 
L 76.7795 45.968776 
L 76.8105 45.920549 
L 76.882833 45.954492 
L 76.867333 45.887173 
L 76.924167 45.934722 
L 77.068833 45.860558 
L 78.128 46.010257 
L 78.159 46.036725 
L 78.184833 45.970176 
L 78.2365 45.99062 
L 78.293333 45.988092 
L 78.314 46.06209 
L 78.319167 46.055427 
L 78.412167 46.153899 
L 78.448333 46.13937 
L 78.4535 46.128407 
L 78.489667 46.222772 
L 78.541333 46.182402 
L 78.5465 46.200105 
L 78.629167 46.128252 
L 78.644667 46.155296 
L 78.680833 46.180007 
L 78.820333 45.992958 
L 78.903 46.009695 
L 78.8565 45.929634 
L 78.928833 45.978531 
L 79.058 45.983339 
L 79.435167 46.254268 
L 79.440333 46.240101 
L 79.455833 46.22054 
L 79.502333 46.301538 
L 79.523 46.310378 
L 79.5385 46.283448 
L 79.657333 46.310953 
L 79.734833 46.274267 
L 79.771 46.339816 
L 80.225667 46.397848 
L 80.3445 46.498219 
L 80.349667 46.494347 
L 80.597667 46.452331 
L 80.602833 46.46118 
L 80.825 46.618071 
L 80.835333 46.595564 
L 80.8715 46.537944 
L 80.949 46.581226 
L 80.9645 46.556787 
L 81.0885 46.731859 
L 81.4295 46.823883 
L 81.827333 48.096909 
L 81.837667 48.091675 
L 81.9255 48.135144 
L 81.858333 48.077028 
L 81.9565 48.111329 
L 82.0495 48.117999 
L 81.992667 48.0899 
L 82.059833 48.082085 
L 82.116667 48.013813 
L 82.183833 48.079734 
L 82.194167 48.049314 
L 82.333667 48.114303 
L 82.416333 48.038451 
L 82.457667 48.048708 
L 83.015667 48.064024 
L 83.031167 48.018073 
L 83.108667 48.117793 
L 83.119 48.09557 
L 83.253333 48.03946 
L 83.2585 48.024603 
L 83.315333 48.103639 
L 83.346333 48.096641 
L 83.744167 48.090582 
L 83.832 48.013118 
L 83.8785 48.068461 
L 83.987 48.090703 
L 83.904333 48.041035 
L 83.997333 48.070858 
L 84.395167 48.110459 
L 84.457167 48.017741 
L 84.508833 48.093406 
L 84.5605 48.147963 
L 84.6225 48.089116 
L 84.638 48.054106 
L 84.710333 48.130411 
L 84.725833 48.123726 
L 84.886 48.049581 
L 85.041 48.11873 
L 85.077167 48.058444 
L 85.144333 48.11374 
L 85.1495 48.156946 
L 85.237333 48.077238 
L 85.252833 48.097495 
L 85.392333 48.059949 
L 85.433667 48.066489 
L 85.444 48.128186 
L 85.480167 48.128378 
L 85.557667 48.133036 
L 85.516333 48.060656 
L 85.588667 48.104191 
L 85.6145 48.096151 
L 85.640333 48.044131 
L 85.666167 48.034256 
L 85.7075 48.004968 
L 85.764333 48.087229 
L 85.7695 48.068718 
L 85.934833 48.074991 
L 85.945167 48.056951 
L 86.058833 48.037036 
L 86.074333 48.047298 
L 86.394667 48.106869 
L 86.4205 48.121336 
L 86.446333 48.064756 
L 86.492833 48.060131 
L 86.880333 47.992794 
L 86.952667 47.971541 
L 86.906167 47.999087 
L 86.983667 48.01176 
L 87.087 48.032201 
L 87.1025 48.004875 
L 87.216167 47.9927 
L 87.118 48.03658 
L 87.221333 48.008133 
L 87.2885 47.97746 
L 87.231667 47.98589 
L 87.314333 47.947603 
L 87.5365 48.014003 
L 87.546833 47.964973 
L 87.6295 48.060847 
L 87.639833 48.057419 
L 87.7845 47.951213 
L 87.8 47.973959 
L 87.825833 47.910517 
L 87.882667 47.913633 
L 87.934333 47.883984 
L 87.980833 47.948922 
L 87.991167 47.933531 
L 88.197833 47.983083 
L 88.213333 48.018331 
L 88.228833 47.965679 
L 88.306333 47.986813 
L 88.885 47.900016 
L 88.890167 47.919615 
L 88.895333 47.935512 
L 88.9625 47.788603 
L 89.391333 47.698318 
L 89.484333 47.766949 
L 89.515333 47.73707 
L 89.680667 47.575724 
L 89.546333 47.748721 
L 89.685833 47.583625 
L 89.727167 47.677679 
L 89.809833 47.600666 
L 89.933833 47.559498 
L 90.130167 47.497035 
L 90.192167 47.582042 
L 90.243833 47.487996 
L 90.672667 47.459226 
L 90.755333 47.411343 
L 90.781167 47.480797 
L 90.9 47.336886 
L 90.920667 47.372033 
L 91.080833 47.378032 
L 91.277167 47.244721 
L 91.1325 47.439224 
L 91.313333 47.301092 
L 92.0935 47.082634 
L 92.2175 46.995347 
L 92.822 46.841894 
L 92.9615 46.846389 
L 93.095833 46.70122 
L 93.535 46.481079 
L 93.617667 46.433006 
L 93.648667 46.470721 
L 93.752 46.517358 
L 93.659 46.464552 
L 93.772667 46.498075 
L 93.839833 46.448081 
L 93.8915 46.483966 
L 94.010333 46.413298 
L 94.025833 46.473865 
L 94.113667 46.370621 
L 94.222167 46.300174 
L 94.268667 46.379369 
L 94.351333 46.284818 
L 94.423667 46.231972 
L 94.459833 46.295524 
L 94.558 46.270185 
L 94.4805 46.25904 
L 94.568333 46.245491 
L 94.589 46.303056 
L 94.692333 46.225315 
L 94.795667 46.099139 
L 94.904167 46.024989 
L 94.9145 46.053338 
L 95.043667 46.136222 
L 95.095333 46.176562 
L 95.188333 46.08941 
L 95.250333 46.090487 
L 95.219333 46.04775 
L 95.2865 46.046239 
L 95.400167 45.953486 
L 95.420833 45.99604 
L 95.462167 46.040007 
L 95.4415 45.978526 
L 95.524167 45.959475 
L 95.648167 45.951765 
L 95.653333 45.959424 
L 95.679167 46.020235 
L 95.746333 45.891455 
L 95.818667 45.787497 
L 95.922 45.749527 
L 95.870333 45.834133 
L 95.932333 45.762406 
L 96.051167 45.83006 
L 95.947833 45.746608 
L 96.071833 45.797719 
L 96.226833 45.69616 
L 96.242333 45.711498 
L 96.263 45.755164 
L 96.335333 45.644577 
L 96.3405 45.669415 
L 96.459333 45.594055 
L 96.366333 45.696894 
L 96.4645 45.613591 
L 96.583333 45.624657 
L 96.598833 45.607019 
L 96.748667 45.505429 
L 96.753833 45.509922 
L 96.934667 45.522209 
L 96.939833 45.498061 
L 97.043167 45.49334 
L 96.981167 45.532992 
L 97.048333 45.512776 
L 97.110333 45.600936 
L 97.156833 45.532818 
L 97.280833 45.362222 
L 97.291167 45.375519 
L 97.3015 45.407081 
L 97.373833 45.308433 
L 97.5185 45.164899 
L 97.627 45.220447 
L 97.637333 45.190729 
L 97.6425 45.175142 
L 97.714833 45.302115 
L 97.72 45.291964 
L 98.102333 45.346643 
L 98.34 45.060766 
L 98.360667 45.079146 
L 98.412333 45.068005 
L 98.371 45.064124 
L 98.453667 45.019767 
L 98.629333 44.923812 
L 98.660333 44.86397 
L 98.717167 45.002276 
L 98.722333 44.991432 
L 98.7275 45.014777 
L 98.810167 44.929531 
L 98.8205 44.949198 
L 98.923833 44.890173 
L 98.939333 44.894817 
L 98.965167 44.915261 
L 99.0065 44.813848 
L 99.032333 44.829565 
L 99.218333 44.727123 
L 99.2235 44.735608 
L 99.27 44.772596 
L 99.337167 44.716406 
L 99.5335 44.547996 
L 99.693667 44.344717 
L 99.709167 44.374501 
L 99.853833 44.231512 
L 99.977833 44.122927 
L 99.983 44.137321 
L 99.988167 44.144082 
L 100.050167 44.061109 
L 100.0605 44.067324 
L 100.236167 43.697254 
L 100.4015 42.803795 
L 100.437667 40.731348 
L 100.4635 31.883651 
L 100.535833 44.552356 
L 100.566833 45.738458 
L 100.6495 45.149734 
L 100.871667 42.514567 
L 100.892333 38.755071 
L 100.907833 32.516497 
L 100.9905 45.844529 
L 101.006 46.358038 
L 101.093833 45.571541 
L 101.316 42.631927 
L 101.336667 39.551263 
L 101.352167 32.573033 
L 101.434833 45.700462 
L 101.4555 46.571647 
L 101.543333 45.770304 
L 101.786167 41.787156 
L 101.806833 32.504505 
L 101.884333 43.400292 
L 101.915333 46.704736 
L 101.998 45.961374 
L 102.256333 41.870239 
L 102.277 32.426441 
L 102.3545 42.976458 
L 102.3855 46.8486 
L 102.473333 46.119136 
L 102.7575 42.100634 
L 102.783333 32.436689 
L 102.855667 42.218554 
L 102.886667 46.967022 
L 102.9745 46.307789 
L 103.2845 42.561967 
L 103.305167 38.005072 
L 103.3155 32.26673 
L 103.403333 46.338096 
L 103.424 47.079453 
L 103.511833 46.464258 
L 103.878667 41.779301 
L 103.899333 32.240562 
L 103.976833 44.027647 
L 104.007833 47.138006 
L 104.0905 46.551557 
L 104.354 44.229043 
L 104.498667 42.218101 
L 104.5245 32.18509 
L 104.596833 42.228163 
L 104.633 47.200444 
L 104.715667 46.69073 
L 105.185833 41.824154 
L 105.211667 32.314459 
L 105.278833 42.578131 
L 105.309833 47.177543 
L 105.397667 46.68884 
L 105.9505 40.952444 
L 105.971167 32.480424 
L 106.0435 45.268001 
L 106.0745 47.036753 
L 106.157167 46.562461 
L 106.715167 42.108187 
L 106.746167 32.531366 
L 106.808167 42.255277 
L 106.8495 47.031641 
L 106.927 46.584386 
L 107.0045 46.063383 
L 107.547 41.753637 
L 107.572833 32.692527 
L 107.64 44.151206 
L 107.676167 46.999483 
L 107.758833 46.507481 
L 108.146333 44.095766 
L 108.1515 44.097991 
L 108.167 43.98507 
L 108.4305 42.105997 
L 108.456333 34.426628 
L 108.466667 32.874364 
L 108.528667 44.187505 
L 108.564833 46.909125 
L 108.6475 46.468078 
L 108.735333 45.885091 
L 109.283 43.350804 
L 109.407 42.919931 
L 109.412167 42.9242 
L 109.494833 41.546823 
L 109.525833 33.804339 
L 109.582667 43.732034 
L 109.629167 46.525227 
L 109.7015 46.096554 
L 110.12 43.829445 
L 110.388667 42.677452 
L 110.43 40.818623 
L 110.455833 33.366984 
L 110.523 45.662969 
L 110.554 46.73455 
L 110.636667 46.240254 
L 111.2515 43.431818 
L 111.556333 42.158317 
L 111.587333 37.804704 
L 111.602833 34.101786 
L 111.675167 45.832879 
L 111.711333 46.470725 
L 111.788833 45.979033 
L 112.532833 43.308747 
L 112.538 43.320359 
L 112.6 43.30899 
L 112.563833 43.288283 
L 112.625833 43.256873 
L 112.631 43.225254 
L 112.698167 43.31868 
L 112.724 43.304512 
L 112.7395 43.291623 
L 112.853167 43.433631 
L 112.868667 43.415484 
L 113.039167 43.817383 
L 113.163167 43.923253 
L 113.183833 43.885862 
L 113.225167 43.990191 
L 113.230333 43.989551 
L 113.256167 43.978721 
L 113.406 44.272828 
L 113.504167 44.243041 
L 113.473167 44.288455 
L 113.519667 44.266296 
L 113.5455 44.24856 
L 113.612667 44.328975 
L 113.964 44.801811 
L 113.969167 44.79358 
L 114.015667 44.897434 
L 114.031167 44.883364 
L 114.144833 44.984084 
L 114.057 44.870912 
L 114.1655 44.943793 
L 114.175833 44.905852 
L 114.2585 45.00297 
L 114.4755 45.221113 
L 114.480667 45.217896 
L 114.516833 45.184662 
L 114.584 45.256597 
L 114.635667 45.192786 
L 114.708 45.26561 
L 114.852667 45.436755 
L 114.857833 45.41611 
L 114.997333 45.668246 
L 115.012833 45.663356 
L 115.043833 45.631877 
L 115.100667 45.744474 
L 115.235 45.87818 
L 115.240167 45.874416 
L 115.457167 46.055097 
L 115.5915 46.22844 
L 115.596667 46.224408 
L 115.798167 46.341021 
L 115.9325 46.435779 
L 116.278667 46.669944 
L 115.953167 46.404322 
L 116.283833 46.664312 
L 116.289 46.651527 
L 116.330333 46.715627 
L 116.371667 46.717579 
L 116.480167 46.731014 
L 116.449167 46.678358 
L 116.485333 46.716624 
L 116.506 46.694062 
L 116.516333 46.777494 
L 116.573167 46.784389 
L 116.686833 46.88756 
L 116.712667 46.876704 
L 116.723 46.845254 
L 116.795333 46.973112 
L 116.971 47.058653 
L 116.976167 47.050637 
L 117.100167 46.966998 
L 117.2035 46.966291 
L 117.188 46.93696 
L 117.208667 46.958899 
L 117.353333 46.77532 
L 117.384333 46.815143 
L 117.415333 46.765866 
L 117.467 46.791802 
L 118.433167 46.795207 
L 118.5675 46.842228 
L 118.779333 46.719328 
L 118.887833 46.825016 
L 118.9085 46.785412 
L 118.934333 46.802805 
L 119.0945 46.679739 
L 119.389 46.684262 
L 119.394167 46.666237 
L 119.554333 46.475182 
L 119.673167 46.391444 
L 119.740333 46.387421 
L 119.771333 46.441931 
L 119.9625 46.509877 
L 120.189833 46.300033 
L 120.324167 46.347612 
L 120.205333 46.287154 
L 120.339667 46.337694 
L 120.4895 46.312377 
L 120.556667 46.365164 
L 120.598 46.297578 
L 120.732333 46.243188 
L 120.7685 46.296314 
L 120.933833 46.213573 
L 120.949333 46.219135 
L 121.073333 46.096241 
L 121.104333 46.083123 
L 121.119833 46.153337 
L 121.161167 46.16172 
L 121.316167 46.203918 
L 121.466 46.104278 
L 121.502167 46.166566 
L 121.553833 46.075322 
L 121.564167 46.073289 
L 121.672667 46.025191 
L 121.683 46.028959 
L 121.770833 46.045203 
L 121.801833 45.975139 
L 121.869 45.951659 
L 121.9 46.006002 
L 121.936167 46.047315 
L 121.982667 45.945578 
L 122.0085 45.981775 
L 122.091167 45.971657 
L 122.024 45.932884 
L 122.1015 45.937483 
L 122.179 45.824844 
L 122.215167 45.905991 
L 122.328833 45.948748 
L 122.344333 45.913865 
L 122.4115 45.780722 
L 122.483833 45.846697 
L 122.545833 45.876706 
L 122.592333 45.841234 
L 122.638833 45.805594 
L 122.607833 45.854987 
L 122.685333 45.879061 
L 122.6905 45.900336 
L 122.747333 45.797418 
L 122.778333 45.795438 
L 122.793833 45.788911 
L 122.923 45.889279 
L 123.0315 45.851549 
L 122.995333 45.928546 
L 123.036667 45.859629 
L 123.047 45.891769 
L 123.119333 45.796811 
L 123.134833 45.820089 
L 123.191667 45.874513 
L 123.253667 45.812092 
L 123.816833 45.72604 
L 123.878833 45.659099 
L 123.935667 45.696747 
L 124.219833 45.903897 
L 124.261167 45.89744 
L 124.312833 45.966112 
L 124.323167 45.997262 
L 124.3645 45.938773 
L 124.374833 45.970336 
" style="fill:none;stroke:#000000;stroke-linecap:square;stroke-width:0.3;"/>
   </g>
   <g id="line2d_3">
    <path clip-path="url(#p043b7e665c)" d="M 12.78 66.148349 
L 12.785167 66.16544 
L 12.852333 66.079559 
L 12.8885 66.129954 
L 13.059 66.100292 
L 12.898833 66.149371 
L 13.069333 66.124616 
L 13.177833 66.206606 
L 13.208833 66.158412 
L 13.405167 66.137163 
L 13.549833 66.049506 
L 13.425833 66.150877 
L 13.560167 66.064486 
L 13.673833 66.089685 
L 13.637667 66.024035 
L 13.679 66.074357 
L 13.7875 65.954129 
L 13.699667 66.11126 
L 13.813333 65.987458 
L 13.994167 66.110775 
L 14.014833 66.086173 
L 14.076833 66.048439 
L 14.107833 66.103077 
L 14.118167 66.093707 
L 14.195667 66.115951 
L 14.226667 66.077016 
L 14.231833 66.069558 
L 14.268 66.177018 
L 14.309333 66.13558 
L 14.412667 66.210932 
L 14.433333 66.180238 
L 14.5315 66.052399 
L 14.572833 66.074824 
L 14.614167 66.177901 
L 14.691667 66.09724 
L 15.022333 66.051665 
L 15.074 66.019123 
L 15.125667 66.080598 
L 15.130833 66.108654 
L 15.172167 66.044798 
L 15.229 66.045398 
L 15.9885 66.155791 
L 16.035 66.102007 
L 16.102167 66.15193 
L 16.215833 66.280908 
L 16.246833 66.227471 
L 16.3915 66.180847 
L 16.4225 66.238099 
L 16.510333 66.238292 
L 16.525833 66.199099 
L 16.644667 66.150248 
L 16.551667 66.217055 
L 16.649833 66.152072 
L 17.2285 66.015617 
L 17.233667 66.039666 
L 17.419667 66.1059 
L 17.424833 66.079927 
L 17.533333 66.008245 
L 17.543667 66.031124 
L 17.678 65.930771 
L 17.688333 65.962783 
L 17.709 65.999669 
L 17.7865 65.925912 
L 17.791667 65.928071 
L 17.884667 65.992585 
L 17.802 65.911692 
L 17.920833 65.912424 
L 18.117167 65.852394 
L 18.184333 65.9575 
L 18.2515 65.872872 
L 18.380667 65.774082 
L 18.416833 65.812801 
L 18.515 65.906386 
L 18.540833 65.884707 
L 18.633833 65.88335 
L 18.644167 65.907762 
L 18.7475 65.918833 
L 18.67 65.870677 
L 18.757833 65.908061 
L 19.062667 65.767628 
L 19.067833 65.773634 
L 19.124667 65.846712 
L 19.176333 65.75754 
L 20.313 65.896082 
L 20.375 65.984148 
L 20.447333 65.929917 
L 20.555833 65.889312 
L 20.561 65.868405 
L 20.628167 65.831948 
L 20.674667 65.886313 
L 20.679833 65.916399 
L 20.767667 65.859896 
L 20.783167 65.865352 
L 21.062167 66.071834 
L 20.809 65.835047 
L 21.067333 66.057093 
L 21.3205 66.187526 
L 21.434167 66.233509 
L 21.454833 66.189826 
L 21.646 66.064714 
L 21.718333 66.142679 
L 21.77 66.121234 
L 21.9405 66.175036 
L 21.945667 66.16837 
L 22.0335 66.082457 
L 22.0645 66.120325 
L 22.1885 66.029712 
L 22.08 66.128018 
L 22.198833 66.039819 
L 22.348667 66.089769 
L 22.369333 66.026811 
L 22.431333 65.921885 
L 22.493333 65.958077 
L 22.519167 65.93461 
L 22.6225 66.006616 
L 22.679333 65.942604 
L 22.741333 65.979219 
L 22.953167 66.141884 
L 22.958333 66.130257 
L 23.041 66.114952 
L 23.061667 66.159905 
L 23.123667 66.167314 
L 23.072 66.150634 
L 23.165 66.127492 
L 23.294167 66.075693 
L 23.299333 66.108825 
L 23.314833 66.140772 
L 23.392333 66.05904 
L 23.402667 66.075443 
L 23.604167 66.155832 
L 23.609333 66.144221 
L 23.6145 66.134633 
L 23.635167 66.288588 
L 23.9865 68.407199 
L 24.069167 68.646548 
L 24.2345 68.961479 
L 24.255167 68.951461 
L 24.260333 68.930746 
L 24.337833 69.022171 
L 24.348167 69.023442 
L 24.4205 69.051135 
L 24.384333 69.072735 
L 24.436 69.080503 
L 24.5755 69.191236 
L 24.580667 69.172895 
L 24.777 69.158359 
L 24.952667 69.381317 
L 24.999167 69.291756 
L 25.045667 69.227635 
L 25.118 69.295075 
L 25.247167 69.392975 
L 25.252333 69.375686 
L 25.4125 69.424917 
L 25.422833 69.391714 
L 25.546833 69.297905 
L 25.650167 69.333397 
L 25.572667 69.258486 
L 25.6605 69.307543 
L 25.676 69.276263 
L 25.738 69.407788 
L 25.758667 69.439825 
L 25.825833 69.310115 
L 25.980833 69.162029 
L 25.851667 69.33323 
L 25.986 69.185433 
L 26.084167 69.257114 
L 26.104833 69.24302 
L 26.213333 69.275751 
L 26.239167 69.209102 
L 26.347667 69.262177 
L 26.363167 69.297382 
L 26.445833 69.232179 
L 26.461333 69.207658 
L 26.518167 69.313887 
L 26.544 69.298707 
L 26.637 69.321189 
L 26.668 69.294396 
L 26.812667 69.162357 
L 26.848833 69.150756 
L 26.885 69.208707 
L 26.895333 69.213124 
L 26.905667 69.209289 
L 27.029667 69.330988 
L 27.091667 69.306197 
L 27.122667 69.368081 
L 27.133 69.402906 
L 27.226 69.310444 
L 27.319 69.242952 
L 27.355167 69.282032 
L 27.381 69.328292 
L 27.437833 69.228046 
L 27.4585 69.266814 
L 27.536 69.228251 
L 27.572167 69.265611 
L 27.778833 69.386476 
L 27.784 69.370206 
L 27.8305 69.288253 
L 27.897667 69.326315 
L 28.026833 69.424245 
L 28.037167 69.395303 
L 28.192167 69.378709 
L 28.28 69.401116 
L 28.228333 69.344532 
L 28.305833 69.386177 
L 28.497 69.232254 
L 28.533167 69.196916 
L 28.553833 69.156911 
L 28.646833 69.032817 
L 28.683 69.044127 
L 28.688167 69.066443 
L 28.776 69.001414 
L 28.786333 69.013511 
L 29.52 68.98847 
L 29.540667 68.944333 
L 29.602667 69.031455 
L 29.6285 68.996458 
L 29.649167 69.035798 
L 29.716333 68.963143 
L 29.731833 68.971076 
L 30.041833 68.882507 
L 30.176167 68.782531 
L 30.0625 68.904107 
L 30.181333 68.797844 
L 30.501667 68.807978 
L 30.610167 68.757426 
L 30.512 68.815324 
L 30.625667 68.791727 
L 31.349 68.672419 
L 31.462667 68.695172 
L 31.483333 68.658204 
L 31.5815 68.656519 
L 31.535 68.692317 
L 31.591833 68.667901 
L 31.757167 68.633149 
L 31.865667 68.574407 
L 31.777833 68.644243 
L 31.876 68.62482 
L 31.9535 68.582232 
L 31.9845 68.621235 
L 32.0155 68.575254 
L 32.093 68.621364 
L 32.258333 68.743006 
L 32.2635 68.729848 
L 32.434 68.515377 
L 32.5735 68.481486 
L 32.62 68.478481 
L 32.645833 68.417408 
L 32.785333 68.27967 
L 32.961 68.357856 
L 32.966167 68.331858 
L 33.1005 68.287649 
L 33.116 68.320277 
L 33.121167 68.341533 
L 33.203833 68.22872 
L 33.420833 68.100454 
L 33.4415 68.087244 
L 33.498333 68.167981 
L 33.524167 68.140983 
L 34.232 67.859024 
L 34.268167 67.77215 
L 34.350833 67.807658 
L 34.4645 67.915621 
L 34.392167 67.781437 
L 34.505833 67.858712 
L 34.6505 67.781657 
L 34.655667 67.783961 
L 34.7435 67.863643 
L 34.769333 67.806507 
L 35.291167 67.597666 
L 35.41 67.531241 
L 35.415167 67.538166 
L 35.616667 67.358269 
L 35.621833 67.366864 
L 35.823333 67.32942 
L 35.854333 67.250939 
L 35.942167 67.284855 
L 36.019667 67.305161 
L 36.0455 67.243839 
L 36.190167 67.154559 
L 36.2005 67.173912 
L 36.303833 67.212128 
L 36.314167 67.178918 
L 36.4485 67.082381 
L 36.5415 67.103971 
L 36.458833 67.057381 
L 36.562167 67.077023 
L 36.691333 66.974015 
L 36.7275 67.024816 
L 36.732667 67.052689 
L 36.830833 66.97989 
L 37.001333 67.013333 
L 37.0065 66.996592 
L 37.156333 66.909161 
L 37.1615 66.91845 
L 37.218333 66.807706 
L 37.233833 66.822093 
L 37.910667 66.812805 
L 38.024333 66.801013 
L 38.107 66.774661 
L 38.096667 66.820749 
L 38.132833 66.806618 
L 38.231 66.847736 
L 38.2465 66.815176 
L 38.262 66.818867 
L 38.3705 66.749534 
L 38.530667 66.903437 
L 38.597833 66.857474 
L 38.644333 66.922973 
L 38.752833 66.8677 
L 38.902667 66.674006 
L 38.954333 66.745523 
L 39.016333 66.687361 
L 39.1765 66.561206 
L 39.186833 66.577683 
L 39.197167 66.602313 
L 39.248833 66.528682 
L 39.285 66.540383 
L 39.367667 66.449634 
L 39.4245 66.478696 
L 39.584667 66.542827 
L 39.434833 66.468656 
L 39.595 66.505853 
L 39.662167 66.48446 
L 39.688 66.570475 
L 39.775833 66.653601 
L 39.806833 66.623425 
L 39.925667 66.620486 
L 39.874 66.684411 
L 39.930833 66.63489 
L 40.189167 66.556214 
L 40.240833 66.595197 
L 40.2925 66.51599 
L 40.364833 66.476647 
L 40.3855 66.576205 
L 40.514667 66.609201 
L 40.421667 66.518327 
L 40.519833 66.598044 
L 40.638667 66.486865 
L 40.649 66.502092 
L 40.742 66.519322 
L 40.669667 66.494466 
L 40.7575 66.489723 
L 41.305167 66.236967 
L 41.393 66.281046 
L 41.413667 66.238265 
L 41.5325 66.210797 
L 41.548 66.175596 
L 41.61 66.273227 
L 41.635833 66.236533 
L 41.661667 66.247241 
L 41.682333 66.17964 
L 41.723667 66.170898 
L 41.863167 66.162091 
L 41.8735 66.198883 
L 41.976833 66.15669 
L 41.982 66.132681 
L 42.095667 66.096119 
L 42.1215 66.1214 
L 42.2455 66.189837 
L 42.204167 66.08954 
L 42.250667 66.169834 
L 42.421167 66.134536 
L 42.514167 66.003069 
L 42.571 66.057006 
L 42.664 66.100188 
L 42.6795 66.05628 
L 42.757 65.980907 
L 42.808667 65.998505 
L 42.974 65.782647 
L 42.999833 65.828785 
L 43.046333 65.890741 
L 43.103167 65.862569 
L 43.196167 65.938351 
L 43.227167 65.914805 
L 43.3615 65.977612 
L 43.542333 66.070311 
L 43.552667 66.040078 
L 43.676667 65.947383 
L 43.681833 65.965966 
L 43.821333 65.995547 
L 43.8265 65.984879 
L 43.909167 66.000824 
L 43.893667 66.049341 
L 43.9195 66.046834 
L 44.115833 65.866154 
L 44.146833 65.931154 
L 44.270833 65.841269 
L 44.2915 65.813367 
L 44.327667 65.877512 
L 44.379333 65.84441 
L 44.482667 65.841599 
L 44.4 65.819866 
L 44.487833 65.818203 
L 44.575667 65.712515 
L 44.611833 65.774119 
L 44.6325 65.79721 
L 44.6635 65.739092 
L 44.715167 65.732758 
L 44.839167 65.651987 
L 44.9115 65.697077 
L 44.952833 65.659203 
L 45.0665 65.558619 
L 45.082 65.582569 
L 45.0975 65.597833 
L 45.144 65.540437 
L 45.180167 65.531802 
L 45.361 65.46843 
L 45.366167 65.491693 
L 45.443667 65.396581 
L 45.5005 65.381607 
L 45.4695 65.411387 
L 45.536667 65.433906 
L 45.547 65.423754 
L 45.6555 65.456361 
L 45.7795 65.496385 
L 45.784667 65.488549 
L 45.924167 65.393599 
L 45.944833 65.373574 
L 46.110167 65.505924 
L 46.161833 65.543763 
L 46.265167 65.37841 
L 46.420167 65.277221 
L 46.451167 65.317431 
L 46.714667 65.070231 
L 46.823167 65.028047 
L 46.828333 65.051358 
L 46.874833 65.086322 
L 46.9265 65.009277 
L 46.962667 65.02969 
L 47.055667 64.871514 
L 47.107333 64.930386 
L 47.148667 64.81347 
L 47.153833 64.834287 
L 47.3605 64.243197 
L 47.427667 62.70997 
L 47.448333 51.247125 
L 47.5465 61.14641 
L 47.587833 65.023233 
L 47.680833 64.670404 
L 47.908167 63.149135 
L 47.928833 58.952346 
L 47.939167 53.258538 
L 48.032167 65.139921 
L 48.0425 65.462222 
L 48.1355 64.948206 
L 48.3835 63.029909 
L 48.404167 53.995837 
L 48.409333 52.785965 
L 48.481667 60.76507 
L 48.517833 65.921832 
L 48.6315 65.20286 
L 48.8795 63.450149 
L 48.900167 61.761603 
L 48.915667 52.496046 
L 49.0035 63.232722 
L 49.029333 66.286925 
L 49.117167 65.679946 
L 49.453 61.435214 
L 49.4685 52.322346 
L 49.556333 62.977374 
L 49.582167 66.563422 
L 49.67 65.913538 
L 50.021333 63.62809 
L 50.047167 61.508717 
L 50.062667 52.171279 
L 50.1505 62.686209 
L 50.176333 66.72309 
L 50.269333 66.060831 
L 50.6775 62.93242 
L 50.698167 51.991017 
L 50.786 61.855029 
L 50.817 66.825433 
L 50.91 66.14043 
L 51.3595 63.197747 
L 51.375 59.245504 
L 51.385333 51.918836 
L 51.478333 64.17094 
L 51.504167 66.86478 
L 51.592 66.261939 
L 51.834833 64.882907 
L 52.082833 63.940272 
L 52.1345 62.708577 
L 52.155167 51.895044 
L 52.237833 61.809295 
L 52.274 66.782851 
L 52.361833 66.134791 
L 52.4445 65.602809 
L 52.682167 64.674431 
L 52.687333 64.677131 
L 52.718333 64.596377 
L 52.961167 62.854326 
L 52.981833 51.930168 
L 53.069667 63.143546 
L 53.100667 66.711449 
L 53.1885 66.090133 
L 53.514 64.590581 
L 53.762 63.820732 
L 53.798167 63.046781 
L 53.824 51.865859 
L 53.906667 62.406817 
L 53.937667 66.690287 
L 54.0255 66.071635 
L 54.4595 64.488416 
L 54.469833 64.50893 
L 54.5215 64.408618 
L 54.728167 62.70318 
L 54.748833 51.859569 
L 54.8315 62.27804 
L 54.8625 66.602347 
L 54.950333 65.982871 
L 55.379167 64.439522 
L 55.3895 64.455981 
L 55.498 64.266633 
L 55.709833 63.120964 
L 55.7305 54.678591 
L 55.740833 51.902825 
L 55.8235 63.705914 
L 55.849333 66.538409 
L 55.937167 65.94782 
L 56.128333 64.952566 
L 56.355667 64.378035 
L 56.360833 64.384847 
L 56.4125 64.27782 
L 56.417667 64.277267 
L 56.577833 63.405885 
L 56.5985 61.712181 
L 56.614 51.886942 
L 56.701833 64.443349 
L 56.727667 66.591536 
L 56.8155 65.979272 
L 57.1565 64.548275 
L 57.166833 64.564902 
L 57.389 64.213383 
L 57.4045 64.238492 
L 57.4355 64.119618 
L 57.456167 64.149099 
L 57.611167 62.789887 
L 57.637 51.914033 
L 57.7145 62.333165 
L 57.7455 66.451086 
L 57.833333 65.845057 
L 57.972833 65.084784 
L 58.138167 64.545131 
L 58.319 64.321898 
L 58.505 64.091146 
L 58.618667 62.958745 
L 58.6445 51.828242 
L 58.727167 62.948554 
L 58.758167 66.433228 
L 58.846 65.821595 
L 59.088833 64.685534 
L 59.316167 64.267635 
L 59.3265 64.277425 
L 59.331667 64.286244 
L 59.398833 64.205301 
L 59.414333 64.220259 
L 59.564167 63.796922 
L 59.610667 62.850537 
L 59.6365 51.893324 
L 59.714 62.140652 
L 59.745 66.423981 
L 59.832833 65.84077 
L 60.0395 64.81395 
L 60.091167 64.694149 
L 60.297833 64.365859 
L 60.303 64.384349 
L 60.3805 64.288107 
L 60.385667 64.295902 
L 60.602667 63.377988 
L 60.623333 61.315408 
L 60.638833 51.812919 
L 60.726667 64.710258 
L 60.7525 66.438216 
L 60.840333 65.825019 
L 61.103833 64.706456 
L 61.171 64.552183 
L 61.2795 64.342843 
L 61.320833 64.352807 
L 61.486167 64.306601 
L 61.491333 64.276205 
L 61.568833 64.408497 
L 61.584333 64.389234 
L 61.729 64.444684 
L 63.087833 66.59118 
L 63.098167 66.583336 
L 63.186 66.589607 
L 63.155 66.658855 
L 63.206667 66.61845 
L 63.4495 66.929115 
L 63.465 66.949075 
L 63.568333 66.966763 
L 63.630333 67.023428 
L 63.692333 66.971949 
L 63.707833 66.9412 
L 63.749167 67.03779 
L 63.795667 67.017297 
L 63.878333 67.10961 
L 63.909333 67.051952 
L 64.074667 67.27572 
L 63.919667 67.040302 
L 64.079833 67.273442 
L 64.167667 67.244645 
L 64.1315 67.306868 
L 64.183167 67.290595 
L 64.281333 67.3849 
L 64.312333 67.330268 
L 64.477667 67.431175 
L 64.493167 67.414431 
L 64.544833 67.347991 
L 64.612 67.390687 
L 64.699833 67.445661 
L 64.725667 67.403782 
L 64.978833 67.16254 
L 64.984 67.188033 
L 65.149333 67.248738 
L 65.1545 67.227416 
L 65.304333 67.102005 
L 65.325 67.07087 
L 65.407667 67.144562 
L 65.443833 67.189034 
L 65.474833 67.097014 
L 65.505833 67.100865 
L 65.614333 67.121134 
L 65.567833 67.172527 
L 65.6195 67.127161 
L 65.759 67.259673 
L 65.79 67.245542 
L 65.924333 67.275744 
L 65.939833 67.261285 
L 66.198167 67.187239 
L 66.311833 67.093509 
L 66.441 66.997252 
L 66.446167 67.008959 
L 66.6115 66.995414 
L 66.616667 67.009191 
L 66.725167 67.056179 
L 66.761333 67.022932 
L 66.869833 66.897672 
L 66.895667 66.944084 
L 66.911167 66.917134 
L 67.0145 66.976748 
L 67.143667 66.89214 
L 67.185 66.921375 
L 67.210833 66.822138 
L 67.2315 66.829384 
L 67.898 66.802379 
L 67.903167 66.8436 
L 67.991 66.730686 
L 68.001333 66.734532 
L 68.053 66.692419 
L 68.109833 66.740567 
L 68.233833 66.688991 
L 68.239 66.705446 
L 68.332 66.701723 
L 68.280333 66.672471 
L 68.3475 66.679982 
L 68.368167 66.719445 
L 68.492167 66.593041 
L 68.5645 66.640775 
L 68.605833 66.626581 
L 68.611 66.650227 
L 68.704 66.565112 
L 68.709167 66.579249 
L 68.931333 66.404192 
L 69.086333 66.330095 
L 69.096667 66.367989 
L 69.112167 66.320561 
L 69.2 66.330925 
L 69.210333 66.269426 
L 69.3085 66.338507 
L 69.334333 66.378323 
L 69.406667 66.291267 
L 69.597833 66.105915 
L 69.608167 66.125202 
L 69.654667 66.170745 
L 69.7115 66.094679 
L 69.871667 66.010296 
L 70.000833 66.091676 
L 69.8975 65.994749 
L 70.006 66.082032 
L 70.197167 66.045621 
L 70.2075 66.066788 
L 70.305667 66.182092 
L 70.336667 66.145873 
L 70.398667 66.154261 
L 70.4245 66.101039 
L 70.512333 66.040059 
L 70.543333 66.090852 
L 70.636333 66.09839 
L 70.558833 66.10765 
L 70.646667 66.121964 
L 70.7345 66.203393 
L 70.760333 66.174192 
L 71.003167 66.021668 
L 71.0135 66.045065 
L 71.147833 66.071316 
L 71.194333 66.119628 
L 71.256333 66.04638 
L 71.2615 66.03564 
L 71.2925 66.107711 
L 71.328667 66.11868 
L 71.452667 66.197872 
L 71.6335 66.285233 
L 71.721333 66.358964 
L 71.654167 66.263272 
L 71.747167 66.311294 
L 71.778167 66.268319 
L 71.8505 66.338608 
L 71.855667 66.323071 
L 71.979667 66.407672 
L 72.000333 66.34989 
L 72.103667 66.358436 
L 72.026167 66.37741 
L 72.114 66.373123 
L 72.238 66.418109 
L 72.599667 66.252251 
L 72.6565 66.247853 
L 72.6255 66.308929 
L 72.697833 66.294831 
L 72.796 66.373808 
L 72.816667 66.297009 
L 73.126667 66.26119 
L 73.137 66.270592 
L 73.266167 66.239971 
L 73.3695 66.383625 
L 73.4005 66.34528 
L 73.405667 66.337976 
L 73.447 66.455234 
L 73.472833 66.431433 
L 73.478 66.438194 
L 73.529667 66.356904 
L 73.5555 66.362734 
L 73.751833 66.26322 
L 73.8655 66.310752 
L 73.881 66.277776 
L 74.387333 66.009451 
L 74.475167 65.986543 
L 74.397667 66.018413 
L 74.511333 66.029252 
L 74.521667 66.064387 
L 74.604333 65.980166 
L 74.619833 66.01168 
L 74.728333 66.027527 
L 74.656 65.952751 
L 74.749 66.010688 
L 76.102667 66.091628 
L 76.164667 66.142587 
L 76.211167 66.09693 
L 76.2525 66.133921 
L 76.350667 66.073027 
L 76.371333 66.113187 
L 76.443667 66.011466 
L 76.448833 66.014148 
L 76.634833 66.112488 
L 76.495333 65.968803 
L 76.645167 66.103841 
L 76.696833 66.090179 
L 76.7485 66.137877 
L 76.800167 66.143201 
L 76.826 66.104562 
L 76.924167 65.98755 
L 76.944833 66.019925 
L 76.95 66.031053 
L 77.001667 65.96481 
L 77.037833 65.95956 
L 77.068833 65.913419 
L 77.136 66.000814 
L 77.141167 66.021345 
L 77.156667 65.962213 
L 77.234167 65.944643 
L 77.404667 66.098205 
L 77.632 66.224228 
L 77.642333 66.210751 
L 77.787 66.214212 
L 77.792167 66.22425 
L 77.9265 66.380209 
L 78.004 66.220948 
L 78.0505 66.278671 
L 78.159 66.347244 
L 78.169333 66.328722 
L 78.324333 66.201979 
L 78.365667 66.145687 
L 78.417333 66.177367 
L 78.4535 66.106702 
L 78.505167 66.21474 
L 78.520667 66.182932 
L 78.562 66.25974 
L 78.624 66.13495 
L 78.696333 66.100345 
L 78.7325 66.164164 
L 78.753167 66.2016 
L 78.81 66.133632 
L 78.841 66.147118 
L 78.9805 66.113078 
L 79.109667 66.084509 
L 79.125167 66.130641 
L 79.213 66.059635 
L 79.300833 66.022321 
L 79.3215 66.060076 
L 79.409333 66.084961 
L 79.357667 66.027715 
L 79.435167 66.058826 
L 79.672833 66.078472 
L 79.709 66.015141 
L 79.776167 66.117442 
L 79.858833 66.076839 
L 79.895 66.126073 
L 79.905333 66.141054 
L 79.967333 66.02725 
L 80.019 65.922917 
L 80.081 65.964648 
L 80.1585 66.025737 
L 80.194667 65.981186 
L 80.339333 65.898443 
L 80.354833 65.934861 
L 80.504667 66.070013 
L 80.757833 66.010137 
L 80.7785 66.073863 
L 80.794 66.093536 
L 80.850833 65.989695 
L 80.876667 66.019572 
L 81.166 66.218861 
L 81.176333 66.209828 
L 81.512167 66.235408 
L 81.574167 66.200545 
L 81.915167 68.284454 
L 81.951333 68.418747 
L 82.127 68.766265 
L 82.132167 68.763135 
L 82.1425 68.743072 
L 82.209667 68.894917 
L 82.271667 68.991846 
L 82.509333 69.300242 
L 82.659167 69.371722 
L 82.679833 69.3217 
L 82.690167 69.280845 
L 82.772833 69.362081 
L 82.783167 69.350818 
L 82.829667 69.316452 
L 82.896833 69.330596 
L 83.005333 69.216269 
L 83.020833 69.283798 
L 83.206833 69.249569 
L 83.2895 69.325551 
L 83.330833 69.264339 
L 83.46 69.231283 
L 83.594333 69.31003 
L 83.666667 69.284448 
L 83.708 69.315645 
L 83.801 69.370689 
L 83.739 69.282991 
L 83.821667 69.313829 
L 84.348667 69.41355 
L 84.353833 69.39891 
L 84.410667 69.441381 
L 84.4675 69.397077 
L 84.514 69.426715 
L 84.550167 69.331122 
L 84.555333 69.340837 
L 84.7155 69.237809 
L 84.720667 69.245519 
L 84.736167 69.279829 
L 84.803333 69.218962 
L 84.824 69.219308 
L 84.844667 69.185087 
L 84.865333 69.243332 
L 84.927333 69.239874 
L 85.035833 69.349434 
L 85.061667 69.33336 
L 85.185667 69.395966 
L 85.206333 69.364612 
L 85.8935 69.167652 
L 85.976167 69.130387 
L 86.012333 69.145065 
L 86.239667 69.175868 
L 86.337833 69.092898 
L 86.368833 69.149211 
L 86.503167 69.214926 
L 86.653 69.147388 
L 86.658167 69.155911 
L 86.844167 69.274559 
L 86.932 69.331236 
L 86.875167 69.328505 
L 86.937167 69.341101 
L 87.087 69.336595 
L 87.696667 69.089837 
L 87.732833 69.016043 
L 87.7845 69.129227 
L 87.810333 69.047384 
L 87.9395 69.065772 
L 87.944667 69.057494 
L 87.996333 68.92806 
L 88.099667 68.975572 
L 88.104833 68.995957 
L 88.1875 68.874632 
L 88.290833 68.833594 
L 88.301167 68.807206 
L 88.487167 68.678511 
L 88.616333 68.7623 
L 88.724833 68.883849 
L 88.740333 68.837986 
L 88.750667 68.820048 
L 89.060667 68.946151 
L 89.164 68.839055 
L 89.195 68.848411 
L 89.344833 68.791203 
L 89.386167 68.725475 
L 89.4585 68.780627 
L 89.66 68.75354 
L 89.784 68.805079 
L 89.789167 68.796804 
L 90.331667 68.599342 
L 90.352333 68.652465 
L 90.3885 68.554332 
L 90.440167 68.581457 
L 90.59 68.45245 
L 90.610667 68.493933 
L 90.652 68.499139 
L 90.693333 68.42228 
L 90.6985 68.420896 
L 90.812167 68.346259 
L 90.8225 68.367971 
L 90.843167 68.338314 
L 91.029167 68.398563 
L 91.065333 68.380642 
L 91.111833 68.434566 
L 91.137667 68.422164 
L 91.401167 68.279441 
L 91.406333 68.30382 
L 91.468333 68.168661 
L 91.483833 68.172618 
L 91.514833 68.144302 
L 91.5975 68.162618 
L 91.737 68.02921 
L 91.7525 68.039323 
L 91.855833 68.031031 
L 91.768 68.023073 
L 91.866167 68.004877 
L 91.954 67.887467 
L 91.886833 68.021117 
L 91.995333 67.935957 
L 92.114167 68.044685 
L 92.119333 68.017613 
L 92.202 67.86725 
L 92.212333 67.852667 
L 92.284667 67.937162 
L 92.388 67.980392 
L 92.4035 67.949231 
L 92.770333 67.869847 
L 92.894333 67.823379 
L 93.059667 67.850612 
L 93.075167 67.823962 
L 93.281833 67.613118 
L 93.400667 67.637106 
L 93.421333 67.614773 
L 93.597 67.644608 
L 93.6125 67.656024 
L 93.622833 67.596999 
L 93.684833 67.587334 
L 93.7055 67.532275 
L 93.762333 67.65648 
L 93.788167 67.628861 
L 93.7985 67.635591 
L 93.907 67.630154 
L 94.025833 67.592366 
L 94.031 67.578201 
L 94.144667 67.525555 
L 94.180833 67.550758 
L 94.211833 67.589168 
L 94.284167 67.514152 
L 94.532167 67.331465 
L 94.537333 67.349984 
L 94.661333 67.386109 
L 94.671667 67.35585 
L 94.811167 67.250037 
L 94.816333 67.251527 
L 94.9765 67.232481 
L 95.054 67.216155 
L 94.997167 67.24945 
L 95.085 67.26301 
L 95.167667 67.200011 
L 95.095333 67.230205 
L 95.172833 67.177781 
L 95.178 67.153012 
L 95.234833 67.213727 
L 95.281333 67.183065 
L 95.839333 67.199594 
L 95.8445 67.211509 
L 95.896167 67.108821 
L 95.916833 67.126592 
L 96.040833 67.045331 
L 96.082167 67.00537 
L 96.149333 67.022817 
L 96.294 66.892601 
L 96.304333 66.911727 
L 96.552333 67.008069 
L 96.593667 67.0424 
L 96.6505 66.936428 
L 96.728 67.051036 
L 96.784833 67.015776 
L 96.919167 66.972338 
L 96.986333 67.06302 
L 97.038 66.991272 
L 97.172333 66.85654 
L 97.182667 66.867248 
L 97.342833 66.854817 
L 97.477167 66.71301 
L 97.637333 66.710178 
L 97.745833 66.758502 
L 97.7665 66.720287 
L 97.807833 66.642356 
L 97.8905 66.675408 
L 97.906 66.699618 
L 98.066167 66.614574 
L 98.143667 66.512495 
L 98.185 66.652526 
L 98.257333 66.579748 
L 98.205667 66.657855 
L 98.2935 66.657726 
L 99.249333 66.597993 
L 99.326833 66.552851 
L 99.342333 66.529531 
L 99.368167 66.480404 
L 99.4095 66.578143 
L 99.450833 66.534866 
L 99.5025 66.551726 
L 99.461167 66.523099 
L 99.554167 66.519345 
L 99.704 66.314091 
L 99.9055 66.413239 
L 99.910667 66.403049 
L 99.983 66.353594 
L 99.926167 66.412006 
L 100.024333 66.381565 
L 100.334333 66.237922 
L 100.458333 66.126968 
L 100.468667 66.135049 
L 100.592667 66.103841 
L 100.484167 66.147436 
L 100.597833 66.117035 
L 100.654667 66.150921 
L 100.6805 66.07513 
L 100.716667 66.133037 
L 100.814833 66.059162 
L 100.840667 66.093892 
L 101.0215 66.132127 
L 101.135167 66.133235 
L 101.140333 66.123131 
L 101.155833 66.137198 
L 101.285 66.075395 
L 101.367667 66.105997 
L 101.295333 66.069831 
L 101.398667 66.066041 
L 101.414167 66.083495 
L 101.476167 66.000413 
L 101.491667 66.026513 
L 101.564 65.937894 
L 101.6105 65.985873 
L 101.791333 66.085383 
L 101.8275 66.031232 
L 101.967 65.881991 
L 102.065167 65.965415 
L 101.987667 65.873969 
L 102.096167 65.915004 
L 102.375167 65.913505 
L 102.390667 65.957405 
L 102.411333 65.870702 
L 102.488833 65.919652 
L 102.607667 65.893135 
L 102.618 65.911115 
L 102.742 65.831366 
L 102.829833 65.835019 
L 102.809167 65.774482 
L 102.8505 65.809341 
L 103.000333 65.781205 
L 103.139833 65.781609 
L 103.145 65.760736 
L 103.212167 65.771415 
L 103.170833 65.803787 
L 103.243167 65.804104 
L 103.387833 65.857611 
L 103.4085 65.803366 
L 103.424 65.754327 
L 103.480833 65.900214 
L 103.486 65.899815 
L 103.491167 65.907888 
L 103.506667 65.839792 
L 103.579 65.839553 
L 103.852833 65.785968 
L 103.868333 65.794864 
L 103.987167 65.662391 
L 104.126667 65.761551 
L 104.147333 65.774541 
L 104.250667 65.718589 
L 104.390167 65.782972 
L 104.395333 65.775992 
L 104.54 65.779664 
L 104.545167 65.768707 
L 104.602 65.803707 
L 104.653667 65.761074 
L 104.746667 65.865678 
L 104.777667 65.856083 
L 104.8965 65.783045 
L 104.901667 65.795785 
L 105.4235 65.452328 
L 105.428667 65.483361 
L 105.47 65.51305 
L 105.449333 65.451598 
L 105.542333 65.460807 
L 105.625 65.426137 
L 105.573333 65.411123 
L 105.635333 65.395579 
L 105.697333 65.454896 
L 105.650833 65.433052 
L 105.707667 65.479257 
L 106.0125 65.417069 
L 106.141667 65.334688 
L 106.0745 65.48707 
L 106.146833 65.338866 
L 106.2915 65.286221 
L 106.296667 65.305122 
L 106.301833 65.324311 
L 106.374167 65.189609 
L 106.498167 65.161223 
L 106.5705 65.177353 
L 106.524 65.111325 
L 106.606667 65.144607 
L 106.720333 65.097595 
L 106.859833 64.959328 
L 106.947667 64.956861 
L 106.896 64.913308 
L 106.958 64.927584 
L 107.226667 63.445707 
L 107.247333 59.292866 
L 107.262833 51.272581 
L 107.355833 60.967155 
L 107.392 65.016581 
L 107.495333 64.647242 
L 107.7175 62.999716 
L 107.738167 55.200595 
L 107.743333 53.278804 
L 107.826 62.764761 
L 107.851833 65.465089 
L 107.944833 64.936973 
L 108.167 63.584384 
L 108.198 61.939668 
L 108.2135 52.785486 
L 108.301333 63.784767 
L 108.322 65.938438 
L 108.415 65.358675 
L 108.611333 64.18839 
L 108.694 63.13705 
L 108.7095 59.584207 
L 108.719833 52.457505 
L 108.812833 64.693321 
L 108.8335 66.299295 
L 108.9265 65.65249 
L 109.246833 62.783356 
L 109.2675 52.256036 
L 109.355333 62.378128 
L 109.381167 66.588539 
L 109.474167 65.918892 
L 109.846167 63.073467 
L 109.872 52.169184 
L 109.959833 62.727012 
L 109.990833 66.703759 
L 110.078667 66.059993 
L 110.481667 63.267545 
L 110.497167 60.830278 
L 110.5075 52.065327 
L 110.6005 63.187372 
L 110.626333 66.829468 
L 110.714167 66.203719 
L 110.962167 64.761767 
L 110.993167 64.681203 
L 111.210167 62.684045 
L 111.230833 51.961348 
L 111.3135 61.722411 
L 111.3445 66.772619 
L 111.4375 66.10974 
L 111.525333 65.56738 
L 111.721667 64.695307 
L 111.726833 64.697695 
L 111.7475 64.592476 
L 111.928333 63.715172 
L 111.959333 62.412494 
L 111.98 52.017655 
L 112.062667 62.439934 
L 112.093667 66.788758 
L 112.1815 66.15209 
L 112.532833 64.590367 
L 112.729167 63.814817 
L 112.7705 61.925679 
L 112.786 51.843999 
L 112.873833 63.242803 
L 112.899667 66.768487 
L 112.9875 66.175282 
L 113.245833 64.850905 
L 113.256167 64.848257 
L 113.271667 64.778499 
L 113.276833 64.773393 
L 113.437 64.361877 
L 113.4525 64.386435 
L 113.462833 64.380827 
L 113.478333 64.300314 
L 113.4835 64.297659 
L 113.664333 62.451494 
L 113.685 51.892148 
L 113.767667 63.080208 
L 113.798667 66.593295 
L 113.8865 65.984533 
L 114.279167 64.428534 
L 114.284333 64.445242 
L 114.553 63.283336 
L 114.573667 59.092553 
L 114.584 51.915034 
L 114.677 65.67956 
L 114.697667 66.570054 
L 114.7855 65.982308 
L 115.100667 64.636224 
L 115.167833 64.512002 
L 115.348667 64.206879 
L 115.4055 64.025391 
L 115.477833 63.503974 
L 115.503667 61.623695 
L 115.519167 51.877385 
L 115.607 64.607623 
L 115.632833 66.535077 
L 115.720667 65.910061 
L 116.046167 64.568894 
L 116.066833 64.58985 
L 116.113333 64.484638 
L 116.1185 64.48644 
L 116.263167 64.260193 
L 116.2735 64.269403 
L 116.32 64.129956 
L 116.361333 64.033529 
L 116.444 62.672743 
L 116.464667 51.887079 
L 116.547333 62.478119 
L 116.578333 66.526875 
L 116.666167 65.930636 
L 116.8935 64.821956 
L 116.94 64.719645 
L 117.105333 64.414367 
L 117.1105 64.422851 
L 117.348167 64.00566 
L 117.405 63.535739 
L 117.430833 61.923344 
L 117.446333 51.887155 
L 117.534167 63.990887 
L 117.56 66.492822 
L 117.647833 65.89934 
L 118.123167 64.429155 
L 118.149 64.427326 
L 118.174833 64.325597 
L 118.1955 64.352243 
L 118.438333 63.857528 
L 118.484833 62.850857 
L 118.510667 51.812569 
L 118.588167 61.876598 
L 118.624333 66.434198 
L 118.712167 65.844832 
L 119.151333 64.383594 
L 119.3735 64.210791 
L 119.378667 64.217802 
L 119.409667 64.255946 
L 119.4665 64.15254 
L 119.600833 62.92206 
L 119.626667 51.781184 
L 119.709333 63.010065 
L 119.740333 66.382767 
L 119.828167 65.779783 
L 120.096833 64.56421 
L 120.102 64.576567 
L 120.164 64.456247 
L 120.463667 63.765261 
L 120.505 62.347977 
L 120.525667 51.902529 
L 120.608333 63.444813 
L 120.634167 66.481876 
L 120.722 65.89359 
L 120.820167 65.303887 
L 121.037167 64.60394 
L 121.063 64.639558 
L 121.1095 64.544272 
L 121.218 64.441287 
L 121.238667 64.453741 
L 121.336833 64.496918 
L 121.5745 64.730324 
L 121.6055 64.700411 
L 121.652 64.817535 
L 121.657167 64.81273 
L 122.571667 66.155803 
L 122.576833 66.143904 
L 122.613 66.139147 
L 122.654333 66.210805 
L 122.892 66.513373 
L 122.923 66.481282 
L 122.974667 66.602441 
L 123.165833 66.836631 
L 123.171 66.820977 
L 123.176167 66.813009 
L 123.222667 66.91112 
L 123.2485 66.904086 
L 123.289833 66.992858 
L 123.362167 66.925035 
L 123.475833 66.954939 
L 123.667 67.219165 
L 123.6825 67.212813 
L 123.708333 67.173598 
L 123.739333 67.242515 
L 123.791 67.231129 
L 123.946 67.179642 
L 124.101 67.354132 
L 124.106167 67.346025 
L 124.1785 67.260375 
L 124.281833 67.19707 
L 124.3025 67.206376 
L 124.3645 67.237257 
L 124.328333 67.187879 
L 124.374833 67.231333 
" style="fill:none;stroke:#000000;stroke-linecap:square;stroke-width:0.3;"/>
   </g>
   <g id="line2d_4">
    <path clip-path="url(#p043b7e665c)" d="M 103.196667 10.730823 
L 123.822 10.730823 
" style="fill:none;stroke:#000000;stroke-linecap:square;"/>
   </g>
   <g id="line2d_5">
    <path clip-path="url(#p043b7e665c)" d="M 124.38 18.075375 
L 124.38 10.877714 
" style="fill:none;stroke:#000000;stroke-linecap:square;"/>
   </g>
  </g>
 </g>
 <defs>
  <clipPath id="p043b7e665c">
   <rect height="65.232" width="122.76" x="7.2" y="7.2"/>
  </clipPath>
 </defs>
</svg>
