<?xml version="1.0" encoding="utf-8" standalone="no"?>
<!DOCTYPE svg PUBLIC "-//W3C//DTD SVG 1.1//EN"
  "http://www.w3.org/Graphics/SVG/1.1/DTD/svg11.dtd">
<!-- Created with matplotlib (https://matplotlib.org/) -->
<svg height="79.632pt" version="1.1" viewBox="0 0 137.16 79.632" width="137.16pt" xmlns="http://www.w3.org/2000/svg" xmlns:xlink="http://www.w3.org/1999/xlink">
 <metadata>
  <rdf:RDF xmlns:cc="http://creativecommons.org/ns#" xmlns:dc="http://purl.org/dc/elements/1.1/" xmlns:rdf="http://www.w3.org/1999/02/22-rdf-syntax-ns#">
   <cc:Work>
    <dc:type rdf:resource="http://purl.org/dc/dcmitype/StillImage"/>
    <dc:date>2021-01-11T17:00:53.873962</dc:date>
    <dc:format>image/svg+xml</dc:format>
    <dc:creator>
     <cc:Agent>
      <dc:title>Matplotlib v3.3.2, https://matplotlib.org/</dc:title>
     </cc:Agent>
    </dc:creator>
   </cc:Work>
  </rdf:RDF>
 </metadata>
 <defs>
  <style type="text/css">*{stroke-linecap:butt;stroke-linejoin:round;}</style>
 </defs>
 <g id="figure_1">
  <g id="patch_1">
   <path d="M 0 79.632 
L 137.16 79.632 
L 137.16 0 
L 0 0 
z
" style="fill:none;"/>
  </g>
  <g id="axes_1">
   <g id="patch_2">
    <path d="M 7.2 72.432 
L 129.96 72.432 
L 129.96 7.2 
L 7.2 7.2 
z
" style="fill:none;"/>
   </g>
   <g id="matplotlib.axis_1"/>
   <g id="matplotlib.axis_2"/>
   <g id="line2d_1">
    <path clip-path="url(#pd02f9651cc)" d="M 12.78 24.897327 
L 12.898833 24.811377 
L 12.955667 24.712855 
L 13.022833 24.770701 
L 13.095167 24.818181 
L 13.131333 24.752037 
L 13.203667 24.788726 
L 13.250167 24.759637 
L 13.369 24.700913 
L 13.379333 24.716508 
L 13.420667 24.755831 
L 13.487833 24.691205 
L 13.518833 24.66547 
L 13.529167 24.61087 
L 13.637667 24.470462 
L 13.653167 24.503253 
L 13.777167 24.533023 
L 13.834 24.472279 
L 13.890833 24.531462 
L 13.968333 24.613039 
L 13.916667 24.505092 
L 14.009667 24.565905 
L 14.087167 24.539067 
L 14.113 24.593881 
L 14.206 24.700937 
L 14.247333 24.678613 
L 14.361 24.661187 
L 14.278333 24.70618 
L 14.371333 24.69552 
L 14.433333 24.72997 
L 14.4075 24.684776 
L 14.485 24.697859 
L 14.5005 24.668173 
L 14.743333 24.730268 
L 14.95 24.636898 
L 15.001667 24.618758 
L 15.079167 24.697818 
L 15.099833 24.672734 
L 15.130833 24.75528 
L 15.167 24.762851 
L 15.296167 24.855635 
L 15.311667 24.828789 
L 15.394333 24.895999 
L 15.440833 24.861642 
L 15.518333 24.89722 
L 15.621667 24.895562 
L 15.632 24.871721 
L 15.781833 24.722907 
L 15.792167 24.74451 
L 15.88 24.759719 
L 15.823167 24.712905 
L 15.8955 24.747821 
L 16.0195 24.648821 
L 16.029833 24.623358 
L 16.1125 24.728383 
L 16.179667 24.642102 
L 16.246833 24.669517 
L 16.381167 24.748982 
L 16.386333 24.727679 
L 16.531 24.676949 
L 16.649833 24.719802 
L 16.706667 24.689927 
L 16.7325 24.757975 
L 16.7635 24.717741 
L 16.913333 24.516664 
L 17.047667 24.410373 
L 16.934 24.535921 
L 17.052833 24.422473 
L 17.249167 24.210991 
L 17.264667 24.224141 
L 17.368 24.252099 
L 17.373167 24.229031 
L 17.378333 24.205728 
L 17.4455 24.308699 
L 17.471333 24.297915 
L 17.528167 24.326305 
L 17.564333 24.261231 
L 17.574667 24.258976 
L 17.621167 24.184247 
L 17.6935 24.241071 
L 17.698667 24.230402 
L 17.74 24.302369 
L 17.781333 24.299934 
L 17.8485 24.238507 
L 17.807167 24.253497 
L 17.858833 24.22537 
L 17.962167 24.098001 
L 18.008667 24.191721 
L 18.044833 24.114285 
L 18.112 24.152038 
L 18.2205 24.064234 
L 18.236 24.090845 
L 18.241167 24.106329 
L 18.323833 24.01374 
L 18.5615 24.067899 
L 18.571833 24.038462 
L 18.695833 23.942208 
L 18.825 23.964346 
L 18.949 23.811086 
L 18.9645 23.843542 
L 18.974833 23.873465 
L 19.031667 23.726976 
L 19.166 23.578291 
L 19.827333 22.426451 
L 19.930667 21.671653 
L 19.992667 19.52803 
L 20.034 14.444647 
L 20.101167 19.797187 
L 20.2355 20.339278 
L 20.240667 20.320437 
L 20.271667 20.336869 
L 20.338833 20.267718 
L 20.5145 20.228741 
L 20.540333 20.204828 
L 20.664333 20.327886 
L 20.741833 20.30503 
L 20.778 20.342005 
L 20.8865 20.361151 
L 20.896833 20.384924 
L 21.15 20.444949 
L 21.155167 20.436576 
L 21.248167 20.420053 
L 21.206833 20.47191 
L 21.263667 20.441417 
L 21.749333 20.54336 
L 21.7545 20.511209 
L 21.801 20.612627 
L 21.8475 20.604198 
L 22.049 20.688828 
L 22.074833 20.722397 
L 22.131667 20.661529 
L 22.1575 20.667242 
L 22.302167 20.776863 
L 22.167833 20.655255 
L 22.317667 20.756793 
L 22.3745 20.733843 
L 22.353833 20.771813 
L 22.426167 20.766432 
L 22.545 20.954792 
L 22.596667 20.898656 
L 22.7465 20.96806 
L 22.922167 21.123459 
L 22.9325 21.110523 
L 22.968667 21.185791 
L 23.01 21.190783 
L 23.170167 21.355591 
L 23.2115 21.332824 
L 23.247667 21.4231 
L 23.475 21.872656 
L 23.485333 21.867299 
L 23.5215 21.967662 
L 23.759167 22.801057 
L 24.120833 24.143605 
L 24.208667 24.408596 
L 24.3895 25.013842 
L 24.4825 25.378437 
L 24.87 26.188591 
L 24.875167 26.178477 
L 24.9785 26.208202 
L 24.983667 26.218858 
L 25.329833 26.96113 
L 25.335 26.934988 
L 25.428 27.017665 
L 25.639833 27.390842 
L 25.712167 27.476871 
L 25.8465 27.57123 
L 26.378667 27.840345 
L 26.4355 27.786834 
L 26.502667 27.824878 
L 26.616333 27.91983 
L 26.642167 27.882938 
L 26.812667 27.89925 
L 26.817833 27.910237 
L 26.843667 27.992059 
L 26.890167 27.849722 
L 26.947 27.914653 
L 27.127833 28.07146 
L 27.153667 28.124968 
L 27.2415 28.099929 
L 27.422333 28.098498 
L 27.530833 28.140744 
L 27.546333 28.102087 
L 27.680667 27.903842 
L 27.685833 27.912106 
L 27.851167 27.989033 
L 28.104333 28.113065 
L 28.1095 28.100019 
L 28.2645 27.981235 
L 28.3575 28.044124 
L 28.429833 28.048251 
L 28.398833 27.981716 
L 28.466 28.032331 
L 28.595167 28.000212 
L 28.600333 27.990137 
L 28.703667 27.802061 
L 28.745 27.917331 
L 28.817333 27.926952 
L 28.7605 27.897169 
L 28.848333 27.90583 
L 28.967167 27.81696 
L 28.9775 27.822522 
L 29.024 27.858647 
L 29.086 27.801059 
L 29.230667 27.753361 
L 29.3185 27.698569 
L 29.339167 27.75415 
L 29.416667 27.674511 
L 29.52 27.625295 
L 29.432167 27.690722 
L 29.530333 27.668295 
L 29.649167 27.661651 
L 29.561333 27.706319 
L 29.654333 27.671877 
L 29.669833 27.700445 
L 29.7525 27.630146 
L 29.762833 27.648319 
L 30.016 27.642773 
L 30.1245 27.583978 
L 30.145167 27.615016 
L 30.165833 27.641744 
L 30.243333 27.559107 
L 30.4345 27.355384 
L 30.5275 27.400479 
L 30.553333 27.38476 
L 30.703167 27.228173 
L 30.749667 27.311284 
L 30.822 27.29633 
L 30.785833 27.263961 
L 30.842667 27.25321 
L 30.9925 27.133082 
L 31.002833 27.138269 
L 31.359333 27.121218 
L 31.400667 27.202957 
L 31.483333 27.163055 
L 31.560833 27.19507 
L 31.514333 27.21982 
L 31.5815 27.21351 
L 31.659 27.328006 
L 31.695167 27.24652 
L 31.7675 27.204505 
L 31.808833 27.21599 
L 32.1705 26.975611 
L 32.191167 27.030175 
L 32.284167 27.049122 
L 32.227333 26.980872 
L 32.304833 27.025039 
L 32.428833 26.95885 
L 32.547667 27.026274 
L 32.563167 27.017316 
L 32.687167 26.878278 
L 32.718167 26.914008 
L 32.749167 26.942096 
L 32.7285 26.941625 
L 32.775 27.009025 
L 32.904167 27.050271 
L 32.924833 27.055225 
L 32.950667 27.114682 
L 32.992 27.113143 
L 33.043667 27.100845 
L 33.0695 27.040019 
L 33.079833 27.048343 
L 33.141833 26.924852 
L 33.203833 26.989095 
L 33.5035 26.844839 
L 33.519 26.880144 
L 33.570667 26.745005 
L 33.643 26.691376 
L 33.694667 26.743354 
L 33.772167 26.740867 
L 33.787667 26.695929 
L 33.8445 26.728727 
L 33.9065 26.679163 
L 34.087333 26.746263 
L 34.097667 26.708246 
L 34.180333 26.794395 
L 34.195833 26.758321 
L 34.221667 26.811195 
L 34.2785 26.683079 
L 34.283667 26.686016 
L 34.459333 26.598255 
L 34.469667 26.612966 
L 34.511 26.624779 
L 34.552333 26.536937 
L 34.795167 26.478951 
L 34.908833 26.512778 
L 34.914 26.501236 
L 35.792333 26.192611 
L 35.880167 26.090968 
L 35.8905 26.050197 
L 35.926667 26.136286 
L 35.968 26.14867 
L 35.988667 26.179573 
L 36.040333 26.095717 
L 36.055833 26.088367 
L 36.1075 26.033857 
L 36.164333 26.100523 
L 36.221167 26.156029 
L 36.288333 26.132524 
L 36.2935 26.139726 
L 36.329667 26.058514 
L 36.350333 26.052058 
L 36.422667 25.982138 
L 36.469167 26.031523 
L 36.484667 26.076377 
L 36.639667 26.069062 
L 36.701667 26.114999 
L 36.748167 26.047671 
L 36.970333 25.82143 
L 36.9755 25.832604 
L 37.016833 25.771266 
L 37.213167 25.912106 
L 37.342333 25.830106 
L 37.461167 25.942937 
L 37.466333 25.940307 
L 37.745333 25.959442 
L 37.941667 26.114548 
L 37.952 26.079496 
L 38.008833 26.006247 
L 38.0605 26.09577 
L 38.096667 26.065494 
L 38.086333 26.04759 
L 38.112167 26.024654 
L 38.236167 25.960029 
L 39.285 25.891088 
L 39.305667 25.924572 
L 39.367667 25.843484 
L 39.388333 25.840799 
L 39.533 25.800684 
L 39.398667 25.853612 
L 39.5485 25.817498 
L 39.595 25.852446 
L 39.6415 25.751882 
L 39.791333 25.598088 
L 39.822333 25.648628 
L 39.9205 25.648608 
L 39.848167 25.613263 
L 39.925667 25.632805 
L 39.9825 25.672725 
L 40.034167 25.632138 
L 40.189167 25.734479 
L 40.0755 25.593366 
L 40.1995 25.710952 
L 40.3235 25.653158 
L 40.328667 25.656408 
L 40.375167 25.728508 
L 40.442333 25.687554 
L 40.530167 25.658398 
L 40.566333 25.705278 
L 40.581833 25.784869 
L 40.674833 25.709354 
L 40.736833 25.639635 
L 40.793667 25.69708 
L 40.886667 25.679591 
L 40.8195 25.665006 
L 40.897 25.661853 
L 41.000333 25.666301 
L 41.010667 25.684137 
L 41.083 25.746572 
L 41.119167 25.685062 
L 41.796 25.531825 
L 41.801167 25.549384 
L 41.9045 25.623464 
L 41.930333 25.543396 
L 42.209333 25.395705 
L 42.2145 25.410869 
L 42.3075 25.438711 
L 42.2765 25.390401 
L 42.328167 25.408221 
L 42.751833 25.162338 
L 42.762167 25.190707 
L 42.824167 25.077968 
L 42.85 25.087331 
L 42.886167 25.072143 
L 42.922333 25.015499 
L 43.0205 24.915337 
L 43.0515 24.973468 
L 43.061833 25.014943 
L 43.108333 24.930039 
L 43.154833 24.927634 
L 43.180667 24.891457 
L 43.227167 24.9558 
L 43.263333 24.927871 
L 43.366667 24.948169 
L 43.309833 24.897197 
L 43.377 24.940219 
L 43.4855 24.894058 
L 43.501 24.92712 
L 43.506167 24.93937 
L 43.557833 24.858839 
L 43.594 24.876669 
L 43.625 24.911023 
L 43.635333 24.964944 
L 43.687 25.043297 
L 43.754167 24.989597 
L 43.831667 24.959521 
L 43.7645 24.994916 
L 43.862667 25.009292 
L 44.239833 24.930447 
L 44.286333 24.848401 
L 44.348333 24.954829 
L 44.524 24.947698 
L 44.534333 24.969537 
L 44.565333 24.933587 
L 44.627333 24.919254 
L 44.689333 24.950606 
L 44.772 24.851688 
L 44.916667 24.95608 
L 44.792667 24.802051 
L 44.952833 24.886994 
L 44.989 24.822768 
L 45.0665 24.896085 
L 45.2525 24.955125 
L 45.3145 24.968705 
L 45.371333 24.899988 
L 45.572833 24.925611 
L 45.578 24.917417 
L 45.7175 24.863881 
L 45.831167 24.781158 
L 45.960333 24.684238 
L 45.991333 24.648744 
L 46.0585 24.724742 
L 46.239333 24.886221 
L 46.254833 24.846127 
L 46.3685 24.694459 
L 46.409833 24.763038 
L 46.6785 24.748209 
L 46.7405 24.773775 
L 46.792167 24.703894 
L 46.8955 24.714631 
L 46.823167 24.679597 
L 46.900667 24.684013 
L 47.014333 24.603089 
L 47.029833 24.625688 
L 47.153833 24.716244 
L 47.169333 24.668306 
L 47.246833 24.59694 
L 47.184833 24.682234 
L 47.288167 24.644884 
L 47.567167 24.563267 
L 47.572333 24.584544 
L 47.593 24.632166 
L 47.6705 24.535603 
L 47.680833 24.566606 
L 48.337 24.248137 
L 48.440333 24.232992 
L 48.4455 24.215407 
L 48.605667 24.073672 
L 48.791667 24.081928 
L 48.905333 24.021356 
L 48.827833 24.10451 
L 48.9105 24.028837 
L 48.915667 24.042663 
L 48.962167 23.950277 
L 48.998333 23.958564 
L 49.892167 23.705669 
L 50.062667 23.554517 
L 50.098833 23.576385 
L 50.160833 23.506293 
L 50.171167 23.53682 
L 50.284833 23.482673 
L 50.295167 23.495877 
L 50.817 22.945091 
L 51.137333 21.347942 
L 51.183833 19.374625 
L 51.225167 14.795272 
L 51.292333 19.546195 
L 51.431833 20.028647 
L 51.592 20.071683 
L 51.597167 20.051058 
L 51.685 20.133118 
L 51.690167 20.114131 
L 51.798667 20.155846 
L 51.814167 20.135121 
L 51.845167 20.190559 
L 51.9175 20.166963 
L 52.057 20.273188 
L 52.160333 20.231883 
L 52.181 20.275772 
L 52.578833 20.387407 
L 52.625333 20.371068 
L 52.682167 20.41345 
L 52.77 20.464927 
L 52.795833 20.435582 
L 52.914667 20.506013 
L 52.925 20.499866 
L 52.930167 20.478102 
L 53.018 20.559592 
L 53.152333 20.647342 
L 53.1575 20.622384 
L 53.271167 20.578675 
L 53.2815 20.593337 
L 53.39 20.773977 
L 53.4055 20.736694 
L 53.488167 20.747548 
L 53.441667 20.762701 
L 53.514 20.765498 
L 53.5605 20.732083 
L 53.638 20.820412 
L 53.643167 20.812768 
L 53.669 20.895181 
L 53.720667 20.877957 
L 53.818833 20.937816 
L 53.8395 20.921006 
L 54.712667 22.177799 
L 54.991667 23.085693 
L 54.996833 23.081514 
L 55.0175 23.182912 
L 55.312 24.025932 
L 55.337833 24.10825 
L 55.472167 24.459597 
L 55.492833 24.441349 
L 56.0405 25.769566 
L 56.087 25.867406 
L 56.283333 26.22403 
L 56.3505 26.304417 
L 56.515833 26.652247 
L 56.7225 27.153867 
L 57.0015 27.532586 
L 57.141 27.696791 
L 57.337333 27.78807 
L 57.425167 27.967347 
L 57.4665 27.945118 
L 57.482 27.912045 
L 57.544 27.985236 
L 57.564667 27.978455 
L 57.668 28.044134 
L 57.606 27.954852 
L 57.678333 28.018994 
L 57.766167 27.95283 
L 57.802333 27.977664 
L 57.910833 28.011932 
L 57.921167 28.002496 
L 58.045167 28.067007 
L 58.102 28.149663 
L 58.164 28.088302 
L 58.412 28.088581 
L 58.546333 28.163556 
L 58.5515 28.155523 
L 58.696167 28.078266 
L 58.840833 28.232288 
L 58.851167 28.220718 
L 59.119833 28.448385 
L 59.125 28.428154 
L 59.290333 28.226762 
L 59.305833 28.25622 
L 59.3265 28.286431 
L 59.378167 28.180835 
L 59.3885 28.183161 
L 59.486667 28.120322 
L 59.517667 28.163763 
L 59.641667 28.274927 
L 59.6675 28.199895 
L 59.874167 28.173553 
L 60.034333 27.992496 
L 60.111833 27.993959 
L 60.096333 27.953155 
L 60.1325 27.962609 
L 60.204833 27.890778 
L 60.168667 27.978751 
L 60.2565 27.913616 
L 60.292667 27.949286 
L 60.313333 27.858846 
L 60.359833 27.877746 
L 60.4115 27.814698 
L 60.468333 27.886084 
L 60.514833 27.806259 
L 60.545833 27.823071 
L 60.587167 27.861514 
L 60.685333 27.735965 
L 60.897167 27.635985 
L 61.005667 27.607183 
L 60.933333 27.647592 
L 61.010833 27.608694 
L 61.264 27.57785 
L 61.377667 27.541598 
L 61.284667 27.600578 
L 61.388 27.553874 
L 61.398333 27.623339 
L 61.4655 27.536733 
L 61.4965 27.539686 
L 61.506833 27.559802 
L 61.584333 27.477911 
L 61.687667 27.449695 
L 61.703167 27.455673 
L 61.827167 27.469781 
L 61.832333 27.437555 
L 61.842667 27.400387 
L 61.925333 27.4894 
L 61.9305 27.483052 
L 61.935667 27.498894 
L 61.977 27.407369 
L 62.0235 27.421939 
L 62.059667 27.488297 
L 62.230167 27.374551 
L 62.307667 27.342264 
L 62.318 27.298963 
L 62.442 27.24153 
L 62.824333 27.03524 
L 62.8295 27.05274 
L 62.958667 27.220046 
L 62.979333 27.167211 
L 63.031 27.120199 
L 62.989667 27.179822 
L 63.0775 27.200274 
L 63.082667 27.223111 
L 63.129167 27.128205 
L 63.175667 27.139373 
L 63.501167 27.039214 
L 63.687167 26.952092 
L 63.692333 26.967907 
L 63.955833 26.715501 
L 64.0075 26.78452 
L 64.110833 26.650393 
L 64.2865 26.610751 
L 64.291667 26.623782 
L 64.395 26.652704 
L 64.405333 26.619693 
L 64.467333 26.679118 
L 64.5035 26.65156 
L 64.622333 26.662741 
L 64.694667 26.738704 
L 64.705 26.766251 
L 64.792833 26.688319 
L 64.8445 26.652205 
L 64.891 26.727883 
L 64.994333 26.705884 
L 65.004667 26.682667 
L 65.149333 26.57684 
L 65.1855 26.559598 
L 65.263 26.599154 
L 65.412833 26.476134 
L 65.423167 26.486441 
L 65.4645 26.444972 
L 65.4335 26.458253 
L 65.48 26.418904 
L 65.490333 26.375511 
L 65.578167 26.468728 
L 65.6195 26.489434 
L 65.645333 26.435805 
L 65.6815 26.42994 
L 65.738333 26.464624 
L 65.779667 26.388171 
L 65.784833 26.399258 
L 65.919167 26.311174 
L 65.9295 26.335172 
L 66.193 26.384626 
L 66.2085 26.360035 
L 66.306667 26.413542 
L 66.342833 26.405258 
L 66.353167 26.463224 
L 66.3945 26.477589 
L 66.461667 26.499116 
L 66.492667 26.423041 
L 66.539167 26.333309 
L 66.606333 26.385319 
L 66.751 26.436924 
L 66.761333 26.400222 
L 66.844 26.517448 
L 66.849167 26.531823 
L 66.885333 26.461856 
L 66.937 26.462309 
L 66.999 26.518956 
L 67.066167 26.457481 
L 67.117833 26.497799 
L 67.1695 26.433147 
L 67.303833 26.354343 
L 67.329667 26.386677 
L 67.3555 26.434113 
L 67.433 26.348047 
L 67.438167 26.376444 
L 67.557 26.427427 
L 67.588 26.404113 
L 67.6345 26.375565 
L 67.608667 26.419141 
L 67.686167 26.438124 
L 67.737833 26.464919 
L 67.701667 26.412927 
L 67.784333 26.393245 
L 68.089167 26.305493 
L 68.233833 26.240604 
L 68.3165 26.292026 
L 68.3475 26.264856 
L 68.445667 26.213869 
L 68.456 26.265705 
L 68.554167 26.268758 
L 68.5645 26.23914 
L 68.709167 26.200783 
L 68.714333 26.228831 
L 68.817667 26.348806 
L 68.838333 26.308285 
L 69.008833 26.232156 
L 69.169 26.062456 
L 69.1845 26.067562 
L 69.324 25.919472 
L 69.861333 26.069428 
L 69.876833 26.015086 
L 70.026667 25.902591 
L 70.2695 25.893342 
L 70.409 25.731002 
L 70.419333 25.738677 
L 70.522667 25.901151 
L 70.553667 25.850162 
L 70.615667 25.797619 
L 70.564 25.85743 
L 70.662167 25.869157 
L 70.739667 25.931384 
L 70.801667 25.88819 
L 70.868833 25.8915 
L 70.822333 25.929977 
L 70.894667 25.954822 
L 71.876333 25.705381 
L 71.933167 25.744212 
L 71.99 25.698007 
L 71.995167 25.691004 
L 72.026167 25.778674 
L 72.077833 25.753572 
L 72.0985 25.806418 
L 72.1295 25.709443 
L 72.181167 25.723374 
L 72.362 25.577322 
L 72.4085 25.595024 
L 72.429167 25.539056 
L 72.465333 25.53668 
L 72.584167 25.489272 
L 72.6565 25.491772 
L 72.682333 25.433515 
L 72.770167 25.437287 
L 72.759833 25.478899 
L 72.7805 25.469714 
L 72.821833 25.520376 
L 72.889 25.468992 
L 72.956167 25.389744 
L 72.909667 25.483386 
L 73.013 25.461712 
L 73.240333 25.326474 
L 73.255833 25.293973 
L 73.374667 25.321581 
L 73.436667 25.232564 
L 73.483167 25.333707 
L 73.4935 25.363909 
L 73.571 25.253906 
L 73.596833 25.177157 
L 73.798333 25.296945 
L 73.9275 25.211092 
L 73.829333 25.327621 
L 73.943 25.230953 
L 73.994667 25.308853 
L 74.061833 25.23105 
L 74.165167 25.16763 
L 74.098 25.253618 
L 74.185833 25.181822 
L 74.413167 25.231514 
L 74.418333 25.204939 
L 74.4235 25.179754 
L 74.459667 25.259053 
L 74.521667 25.253398 
L 74.532 25.282413 
L 74.6095 25.174157 
L 74.619833 25.186754 
L 74.749 25.29192 
L 74.7645 25.274264 
L 74.774833 25.250087 
L 74.8575 25.327803 
L 74.867833 25.319563 
L 75.0125 25.155233 
L 75.053833 25.196675 
L 75.162333 25.272299 
L 75.193333 25.210869 
L 75.493 24.983319 
L 75.224333 25.251862 
L 75.518833 25.056763 
L 75.5395 25.050863 
L 75.627333 25.077286 
L 75.689333 25.125802 
L 75.741 25.082796 
L 75.859833 25.150308 
L 75.968333 25.098412 
L 76.0045 25.122793 
L 76.076833 25.162265 
L 76.051 25.192132 
L 76.087167 25.190757 
L 76.216333 25.254101 
L 76.386833 25.129668 
L 76.495333 25.171521 
L 76.5005 25.14636 
L 76.634833 25.023125 
L 76.64 25.03736 
L 76.8415 24.987153 
L 76.851833 25.010864 
L 76.9655 25.105 
L 76.975833 25.087605 
L 77.327167 25.029057 
L 77.332333 25.06002 
L 77.404667 25.041807 
L 77.342667 25.03265 
L 77.420167 24.993288 
L 77.466667 24.963653 
L 77.435667 25.003499 
L 77.518333 25.031173 
L 77.663 25.046075 
L 77.668167 25.013725 
L 77.756 24.988068 
L 77.781833 25.03666 
L 77.854167 25.012287 
L 77.874833 24.987093 
L 77.947167 24.915851 
L 77.998833 24.976861 
L 78.009167 24.991444 
L 78.066 24.879113 
L 78.071167 24.880841 
L 78.303667 24.744308 
L 78.319167 24.775975 
L 78.458667 24.912602 
L 78.768667 24.816759 
L 78.851333 24.873223 
L 78.784167 24.805201 
L 78.8875 24.830519 
L 78.9805 24.861071 
L 79.001167 24.813092 
L 79.192333 24.922609 
L 79.2285 24.853062 
L 79.306 24.90766 
L 79.399 24.928124 
L 79.424833 24.893021 
L 79.502333 24.919319 
L 79.517833 24.94996 
L 79.528167 24.969994 
L 79.6005 24.880901 
L 79.616 24.896033 
L 79.745167 24.731985 
L 79.7555 24.761981 
L 79.900167 24.650369 
L 80.05 24.614786 
L 80.070667 24.584876 
L 80.122333 24.661621 
L 80.148167 24.661008 
L 80.194667 24.695508 
L 80.2515 24.615323 
L 80.292833 24.655362 
L 80.329 24.579296 
L 80.349667 24.585082 
L 80.484 24.509749 
L 80.675167 24.423315 
L 80.773333 24.455985 
L 80.711333 24.390849 
L 80.788833 24.432675 
L 80.887 24.438778 
L 80.825 24.464264 
L 80.897333 24.45624 
L 81.021333 24.398133 
L 80.912833 24.471992 
L 81.0265 24.409573 
L 81.036833 24.437644 
L 81.124667 24.345344 
L 81.6465 24.272948 
L 81.651667 24.306125 
L 81.749833 24.229492 
L 81.755 24.252299 
L 81.817 24.274369 
L 81.858333 24.228776 
L 81.920333 24.130886 
L 81.982333 24.17584 
L 82.0805 24.220291 
L 82.101167 24.196308 
L 82.783167 23.913122 
L 82.8865 23.970622 
L 82.907167 23.959162 
L 83.031167 23.859491 
L 83.036333 23.872567 
L 83.098333 23.830433 
L 83.051833 23.893451 
L 83.144833 23.90934 
L 83.1655 23.86106 
L 83.268833 23.856493 
L 83.279167 23.864268 
L 83.470333 23.566425 
L 83.5995 23.528601 
L 83.635667 23.432704 
L 83.713167 23.476473 
L 84.235 22.83707 
L 84.493333 20.920953 
L 84.545 15.656278 
L 84.5605 14.699935 
L 84.617333 19.371863 
L 84.731 20.003222 
L 84.756833 19.993446 
L 84.922167 20.045216 
L 85.004833 20.105968 
L 84.953167 20.030945 
L 85.046167 20.090003 
L 85.051333 20.076976 
L 85.139167 20.144528 
L 85.444 20.252211 
L 85.506 20.313994 
L 85.568 20.282045 
L 85.655833 20.241347 
L 85.681667 20.293993 
L 85.816 20.393381 
L 85.821167 20.384068 
L 85.883167 20.335099 
L 85.934833 20.398525 
L 85.996833 20.455641 
L 86.053667 20.411288 
L 86.260333 20.52516 
L 86.2655 20.507986 
L 86.3585 20.524889 
L 86.286167 20.543663 
L 86.368833 20.535248 
L 86.508333 20.608722 
L 86.580667 20.58556 
L 86.523833 20.61899 
L 86.6065 20.645652 
L 86.787333 20.752579 
L 86.7925 20.747708 
L 86.839 20.684568 
L 86.895833 20.745554 
L 86.957833 20.811634 
L 87.0095 20.776737 
L 87.092167 20.795607 
L 87.107667 20.833028 
L 87.3815 21.112888 
L 87.402167 21.105066 
L 87.4435 21.212782 
L 87.453833 21.203811 
L 87.608833 21.356493 
L 87.614 21.354118 
L 87.655333 21.366687 
L 87.676 21.438294 
L 87.805167 21.575797 
L 88.352833 23.194323 
L 88.394167 23.299422 
L 88.611167 23.945545 
L 88.786833 24.362457 
L 89.448167 25.953406 
L 89.453333 25.946668 
L 89.592833 26.260763 
L 89.7375 26.576736 
L 89.742667 26.556794 
L 89.804667 26.735475 
L 90.383333 27.572449 
L 89.815 26.72537 
L 90.414333 27.547287 
L 90.460833 27.585046 
L 90.445333 27.619289 
L 90.486667 27.630996 
L 90.889667 27.954035 
L 90.497 27.621093 
L 90.9 27.918878 
L 90.962 27.86597 
L 91.003333 27.96432 
L 91.158333 28.023053 
L 91.1635 28.004391 
L 91.401167 27.970734 
L 91.545833 27.927936 
L 91.669833 28.022846 
L 91.819667 28.146772 
L 91.912667 28.066103 
L 92.047 27.967293 
L 92.207167 27.846724 
L 92.233 27.862617 
L 92.284667 27.768415 
L 92.377667 27.748751 
L 92.3105 27.814212 
L 92.393167 27.780159 
L 92.460333 27.808384 
L 92.444833 27.761171 
L 92.501667 27.758921 
L 92.636 27.656792 
L 92.646333 27.677167 
L 92.708333 27.590718 
L 92.734167 27.61456 
L 93.008 27.607691 
L 93.090667 27.695484 
L 93.126833 27.648608 
L 93.281833 27.718755 
L 93.287 27.698533 
L 93.3645 27.743113 
L 93.405833 27.647143 
L 93.514333 27.502655 
L 93.5505 27.515484 
L 93.669333 27.486006 
L 93.834667 27.303763 
L 93.876 27.359176 
L 93.989667 27.386923 
L 94 27.366592 
L 94.056833 27.341662 
L 94.103333 27.404496 
L 94.196333 27.372954 
L 94.129167 27.430937 
L 94.222167 27.402081 
L 94.5425 27.340408 
L 94.671667 27.235956 
L 94.676833 27.240503 
L 94.687167 27.27042 
L 94.7285 27.214949 
L 94.780167 27.220998 
L 94.8835 27.150289 
L 94.800833 27.238132 
L 94.93 27.191879 
L 94.986833 27.248659 
L 95.048833 27.20776 
L 95.152167 27.207455 
L 95.167667 27.186709 
L 95.281333 27.121161 
L 95.2865 27.129654 
L 95.343333 27.183471 
L 95.302 27.118941 
L 95.395 27.106688 
L 95.5035 26.957517 
L 95.55 26.983288 
L 96.097667 26.778765 
L 96.17 26.70737 
L 96.211333 26.750308 
L 96.237167 26.784547 
L 96.304333 26.684963 
L 96.428333 26.651316 
L 96.361167 26.779419 
L 96.4335 26.657096 
L 96.485167 26.710244 
L 96.542 26.649029 
L 96.604 26.573384 
L 96.645333 26.678737 
L 96.6505 26.663852 
L 96.800333 26.583926 
L 96.671167 26.678917 
L 96.8055 26.604874 
L 96.888167 26.70614 
L 96.924333 26.641186 
L 97.063833 26.568114 
L 97.167167 26.575804 
L 97.110333 26.54717 
L 97.1775 26.563061 
L 97.389333 26.44676 
L 97.3945 26.472344 
L 97.528833 26.518974 
L 97.637333 26.504032 
L 97.565 26.543814 
L 97.6425 26.529194 
L 97.647667 26.534173 
L 97.658 26.480962 
L 97.699333 26.455568 
L 97.818167 26.354082 
L 97.8285 26.36993 
L 98.050667 26.252296 
L 98.071333 26.279803 
L 98.174667 26.362472 
L 98.190167 26.328509 
L 98.236667 26.380741 
L 98.345167 26.220383 
L 98.3865 26.147861 
L 98.474333 26.20958 
L 98.557 26.144297 
L 98.567333 26.10766 
L 98.644833 26.225747 
L 98.65 26.225434 
L 98.655167 26.230302 
L 98.691333 26.11179 
L 98.799833 26.212695 
L 98.841167 26.228128 
L 98.887667 26.139794 
L 98.898 26.154948 
L 99.027167 26.062301 
L 99.0375 26.077292 
L 99.047833 26.093724 
L 99.089167 25.998998 
L 99.1305 26.010685 
L 99.177 26.016586 
L 99.218333 25.95727 
L 99.3475 25.830795 
L 99.352667 25.841568 
L 99.461167 25.903152 
L 99.388833 25.822317 
L 99.476667 25.889568 
L 99.590333 25.791793 
L 99.605833 25.805238 
L 99.6575 25.800347 
L 99.631667 25.768385 
L 99.698833 25.747355 
L 99.848667 25.569757 
L 99.884833 25.617782 
L 100.014 25.6875 
L 100.148333 25.827715 
L 100.344667 25.61792 
L 100.453167 25.664378 
L 100.458333 25.65618 
L 100.577167 25.715187 
L 100.479 25.627321 
L 100.5875 25.704551 
L 100.701167 25.651455 
L 100.613333 25.721497 
L 100.706333 25.660814 
L 100.727 25.683175 
L 101.042167 25.393432 
L 101.057667 25.418224 
L 101.124833 25.303104 
L 101.140333 25.337253 
L 101.150667 25.351567 
L 101.192 25.286273 
L 101.233333 25.283761 
L 101.5175 25.18702 
L 101.533 25.213183 
L 101.5485 25.203484 
L 101.662167 25.272766 
L 101.848167 25.316096 
L 101.961833 25.237588 
L 101.977333 25.266603 
L 102.111667 25.340576 
L 102.220167 25.285848 
L 102.235667 25.296561 
L 102.344167 25.359472 
L 102.359667 25.312645 
L 102.457833 25.308967 
L 102.390667 25.337138 
L 102.473333 25.318856 
L 102.612833 25.350541 
L 102.618 25.332862 
L 102.752333 25.24535 
L 102.8815 25.357873 
L 102.897 25.332835 
L 102.917667 25.310704 
L 102.99 25.399639 
L 103.103667 25.35236 
L 103.139833 25.388367 
L 103.2225 25.404814 
L 103.243167 25.348515 
L 103.651333 25.137474 
L 103.666833 25.159922 
L 103.728833 25.16816 
L 103.7495 25.104391 
L 103.770167 25.125193 
L 103.863167 25.055942 
L 103.909667 25.107284 
L 103.982 25.067327 
L 103.9975 25.035615 
L 104.1215 24.95348 
L 104.2145 25.07433 
L 104.261 25.009826 
L 104.4005 24.933702 
L 104.467667 24.870865 
L 104.410833 24.944998 
L 104.519333 24.915261 
L 104.627833 24.881569 
L 104.633 24.871491 
L 104.653667 24.799909 
L 104.7415 24.872977 
L 104.8035 24.810489 
L 104.855167 24.853462 
L 105.0825 24.67278 
L 104.891333 24.891271 
L 105.087667 24.699216 
L 105.092833 24.727746 
L 105.165167 24.594439 
L 105.180667 24.60735 
L 105.278833 24.642029 
L 105.304667 24.572707 
L 105.3925 24.605664 
L 105.418333 24.59222 
L 105.459667 24.488643 
L 105.537167 24.544142 
L 105.5475 24.523494 
L 105.594 24.624135 
L 105.614667 24.612482 
L 105.7335 24.627133 
L 105.821333 24.64798 
L 105.78 24.659197 
L 105.831667 24.676818 
L 105.867833 24.707458 
L 105.945333 24.655295 
L 106.146833 24.47072 
L 106.265667 24.472247 
L 106.270833 24.481042 
L 106.374167 24.519195 
L 106.394833 24.492343 
L 106.596333 24.375396 
L 106.648 24.377138 
L 106.617 24.414165 
L 106.684167 24.43832 
L 106.735833 24.465203 
L 106.761667 24.380224 
L 106.772 24.378847 
L 106.8185 24.342364 
L 106.8805 24.375988 
L 107.164667 24.598763 
L 107.175 24.563973 
L 107.180167 24.539236 
L 107.268 24.61841 
L 107.278333 24.580901 
L 107.3455 24.606228 
L 107.3145 24.570681 
L 107.381667 24.563279 
L 107.4075 24.483994 
L 107.479833 24.610738 
L 107.485 24.631535 
L 107.578 24.547867 
L 107.7795 24.515288 
L 107.800167 24.549814 
L 107.851833 24.438929 
L 107.867333 24.434905 
L 107.882833 24.445756 
L 108.006833 24.339012 
L 108.068833 24.371312 
L 108.115333 24.310255 
L 108.161833 24.36331 
L 108.234167 24.297076 
L 108.2445 24.32321 
L 108.332333 24.241504 
L 108.3995 24.187484 
L 108.342667 24.256555 
L 108.451167 24.221368 
L 108.544167 24.244289 
L 108.487333 24.211425 
L 108.559667 24.214829 
L 108.745667 24.169821 
L 108.7715 24.200521 
L 108.818 24.093219 
L 108.828333 24.101282 
L 108.9265 24.147673 
L 108.978167 24.195945 
L 109.014333 24.121274 
L 109.029833 24.137066 
L 109.122833 24.07615 
L 109.148667 24.136446 
L 109.169333 24.15908 
L 109.2055 24.018048 
L 109.210667 24.016958 
L 109.3295 23.972555 
L 109.334667 23.984356 
L 109.665333 23.883732 
L 109.742833 23.799746 
L 109.784167 23.841136 
L 109.7945 23.85703 
L 109.851333 23.71277 
L 109.954667 23.690141 
L 109.959833 23.680428 
L 110.109667 23.643372 
L 110.187167 23.631832 
L 110.192333 23.598753 
L 110.300833 23.465357 
L 110.3215 23.517104 
L 110.404167 23.446703 
L 110.523 23.320024 
L 110.548833 23.33368 
L 110.554 23.343875 
L 110.616 23.248643 
L 110.626333 23.24905 
L 110.750333 23.138916 
L 110.771 23.146974 
L 110.812333 23.113306 
L 110.884667 23.160697 
L 111.070667 22.879053 
L 111.163667 22.658071 
L 111.36 21.096818 
L 111.416833 16.065245 
L 111.432333 14.889169 
L 111.494333 19.466116 
L 111.633833 19.979568 
L 111.639 19.975623 
L 111.907667 20.116604 
L 112.052333 20.176832 
L 112.0575 20.173603 
L 112.109167 20.15876 
L 112.160833 20.196389 
L 112.2125 20.237892 
L 112.2745 20.213288 
L 112.377833 20.264143 
L 112.470833 20.318548 
L 112.501833 20.305282 
L 112.951333 20.475245 
L 112.966833 20.455641 
L 113.044333 20.534761 
L 113.0495 20.525231 
L 113.158 20.598347 
L 113.0805 20.488561 
L 113.189 20.565338 
L 113.416333 20.65983 
L 113.209667 20.531231 
L 113.4215 20.64356 
L 113.426667 20.635815 
L 113.462833 20.713759 
L 113.493833 20.712256 
L 113.6075 20.770443 
L 113.612667 20.748558 
L 113.654 20.734479 
L 113.6695 20.801276 
L 113.7005 20.814935 
L 114.057 21.046024 
L 114.067333 21.014273 
L 114.129333 21.156427 
L 114.144833 21.138261 
L 114.3825 21.483194 
L 114.387667 21.476086 
L 114.429 21.488194 
L 114.465167 21.559075 
L 114.563333 21.775122 
L 114.956 22.984092 
L 114.961167 22.980282 
L 114.981833 23.084957 
L 114.987 23.085797 
L 115.286667 23.960943 
L 115.462333 24.482263 
L 115.472667 24.468385 
L 115.5295 24.607936 
L 115.534667 24.596504 
L 115.581167 24.753691 
L 115.741333 25.114089 
L 116.035833 25.769539 
L 116.041 25.76585 
L 116.072 25.876024 
L 116.356167 26.630474 
L 116.4595 26.719901 
L 116.717833 27.307948 
L 116.728167 27.288936 
L 116.888333 27.432332 
L 117.027833 27.682069 
L 117.053667 27.674709 
L 117.131167 27.785075 
L 117.286167 27.956855 
L 117.291333 27.950035 
L 117.353333 27.980499 
L 117.322333 28.004275 
L 117.374 28.029308 
L 117.735667 28.272831 
L 117.7615 28.329669 
L 117.849333 28.270362 
L 117.957833 28.385896 
L 117.988833 28.317306 
L 118.0715 28.187263 
L 118.112833 28.210956 
L 118.304 28.305496 
L 118.345333 28.360168 
L 118.407333 28.269229 
L 118.4435 28.280555 
L 118.5365 28.214877 
L 118.6295 28.297109 
L 118.6605 28.249653 
L 118.8 28.337834 
L 118.862 28.300774 
L 118.918833 28.336554 
L 119.027333 28.323299 
L 119.0325 28.33004 
L 119.0945 28.385653 
L 119.1565 28.353228 
L 119.580167 28.137263 
L 119.657667 28.112181 
L 119.678333 28.089002 
L 119.704167 28.029201 
L 119.792 28.084046 
L 119.890167 28.058281 
L 119.828167 28.016928 
L 119.895333 28.03341 
L 120.0865 27.909722 
L 120.530833 27.668197 
L 120.536 27.692022 
L 120.727167 27.546998 
L 120.758167 27.494894 
L 120.8305 27.565015 
L 120.835667 27.586663 
L 120.918333 27.515159 
L 120.933833 27.528702 
L 121.528 27.336594 
L 121.600333 27.38038 
L 121.6365 27.31526 
L 121.693333 27.29483 
L 121.6675 27.265242 
L 121.714 27.242165 
L 121.931 27.117199 
L 121.936167 27.14805 
L 122.060167 27.169853 
L 122.065333 27.164781 
L 122.199667 27.073408 
L 122.246167 27.095185 
L 122.277167 27.022868 
L 122.303 27.040147 
L 122.421833 26.983795 
L 122.4425 27.017048 
L 122.561333 27.017606 
L 122.680167 26.938341 
L 122.700833 26.995431 
L 122.840333 27.039804 
L 122.861 27.006488 
L 122.9385 26.954672 
L 122.9695 27.018846 
L 123.057333 27.098723 
L 122.979833 27.009213 
L 123.088333 27.024936 
L 123.222667 26.946415 
L 123.2795 26.933475 
L 123.300167 26.891066 
L 123.408667 26.793623 
L 123.424167 26.816134 
L 123.5585 26.831288 
L 123.584333 26.766907 
L 123.692833 26.755556 
L 123.641167 26.819174 
L 123.698 26.762793 
L 123.703167 26.783244 
L 123.749667 26.712891 
L 123.8065 26.73983 
L 123.925333 26.728477 
L 123.9305 26.710651 
L 124.064833 26.612359 
L 124.312833 26.760742 
L 124.323167 26.730166 
L 124.328333 26.715035 
L 124.374833 26.742078 
" style="fill:none;stroke:#000000;stroke-linecap:square;stroke-width:0.3;"/>
   </g>
   <g id="line2d_2">
    <path clip-path="url(#pd02f9651cc)" d="M 12.78 46.020424 
L 12.852333 46.065271 
L 12.904 46.012347 
L 12.960833 45.956076 
L 13.0125 46.0123 
L 13.1055 45.96425 
L 13.115833 45.941645 
L 13.286333 45.94966 
L 13.4 45.997252 
L 13.405167 45.976348 
L 13.410333 45.99575 
L 13.4775 45.922724 
L 13.498167 45.917267 
L 13.5085 45.883379 
L 13.596333 45.970301 
L 13.6015 45.990222 
L 13.673833 45.905781 
L 13.6945 45.92392 
L 14.474667 45.616089 
L 14.634833 45.720625 
L 14.733 45.663037 
L 14.753667 45.671043 
L 14.929333 45.650339 
L 14.939667 45.681219 
L 15.063667 45.68968 
L 14.95 45.66432 
L 15.079167 45.664784 
L 15.161833 45.560557 
L 15.203167 45.604379 
L 15.291 45.737952 
L 15.363333 45.781905 
L 15.404667 45.748842 
L 15.477 45.635255 
L 15.549333 45.676385 
L 15.595833 45.661599 
L 15.6785 45.753757 
L 15.807667 45.741521 
L 15.823167 45.774946 
L 15.874833 45.874486 
L 15.962667 45.825481 
L 16.097 45.70507 
L 16.386333 45.862045 
L 16.3915 45.835198 
L 16.536167 45.776194 
L 16.567167 45.823715 
L 16.624 45.871052 
L 16.680833 45.835163 
L 16.779 45.915488 
L 16.8255 45.850455 
L 16.923667 45.794708 
L 16.965 45.838319 
L 17.0425 45.850596 
L 16.985667 45.804804 
L 17.0735 45.82322 
L 17.089 45.849324 
L 17.125167 45.75343 
L 17.161333 45.762635 
L 17.1665 45.741581 
L 17.207833 45.80824 
L 17.264667 45.80208 
L 17.579833 45.939755 
L 17.605667 45.877785 
L 17.626333 45.870871 
L 17.678 45.973397 
L 17.6935 45.943357 
L 17.781333 46.055019 
L 17.838167 46.005912 
L 17.977667 45.94699 
L 17.982833 45.952424 
L 18.153333 45.969381 
L 18.205 46.019951 
L 18.267 45.972069 
L 18.4065 45.934169 
L 18.411667 45.945418 
L 18.551167 46.093243 
L 18.556333 46.091654 
L 18.649333 46.046618 
L 18.6855 46.078854 
L 18.804333 46.218606 
L 18.819833 46.208358 
L 18.8715 46.200103 
L 18.9025 46.281599 
L 18.985167 46.244193 
L 18.990333 46.206995 
L 19.0575 46.171647 
L 19.104 46.21327 
L 19.217667 46.259996 
L 19.233167 46.241418 
L 19.3675 46.275196 
L 19.248667 46.229853 
L 19.377833 46.261368 
L 19.3985 46.247726 
L 19.408833 46.295762 
L 19.470833 46.318954 
L 19.625833 46.385455 
L 19.749833 46.476574 
L 19.760167 46.457249 
L 19.7705 46.431443 
L 19.853167 46.537386 
L 19.966833 46.555421 
L 20.245833 47.555367 
L 20.318167 47.612734 
L 20.323333 47.626163 
L 20.431833 47.769066 
L 20.447333 47.756537 
L 20.8555 48.084213 
L 20.902 48.001367 
L 20.964 47.992347 
L 20.974333 48.034256 
L 21.0105 48.019457 
L 21.408333 48.069532 
L 21.547833 47.973655 
L 21.558167 47.990024 
L 21.615 48.100162 
L 21.651167 48.14602 
L 21.713167 48.052151 
L 21.764833 48.060535 
L 21.795833 48.122108 
L 21.868167 48.156542 
L 21.914667 48.136872 
L 22.116167 48.038482 
L 22.121333 48.061212 
L 22.198833 48.111398 
L 22.235 48.063804 
L 22.446833 48.227406 
L 22.488167 48.15898 
L 22.586333 48.127089 
L 22.545 48.184419 
L 22.596667 48.129687 
L 22.601833 48.160469 
L 22.6535 48.076877 
L 22.694833 48.077483 
L 22.7 48.071852 
L 22.736167 48.133831 
L 22.767167 48.150857 
L 22.8705 48.23569 
L 22.891167 48.194469 
L 22.896333 48.174998 
L 22.968667 48.286578 
L 22.979 48.271321 
L 23.035833 48.358614 
L 23.097833 48.296938 
L 23.227 48.153073 
L 23.330333 48.107423 
L 23.351 48.125284 
L 23.392333 48.154254 
L 23.438833 48.087922 
L 23.4595 48.105276 
L 23.635167 48.030836 
L 23.640333 48.034714 
L 23.754 48.113989 
L 23.759167 48.102692 
L 24.007167 48.169177 
L 24.0175 48.142025 
L 24.100167 48.082376 
L 24.105333 48.067906 
L 24.115667 48.04438 
L 24.182833 48.14221 
L 24.2035 48.1234 
L 24.322333 48.064493 
L 24.394667 47.941971 
L 24.4515 47.979653 
L 25.149 47.867549 
L 25.216167 47.816161 
L 25.221333 47.789924 
L 25.340167 47.672387 
L 25.3505 47.68334 
L 25.360833 47.693703 
L 25.376333 47.636212 
L 25.433167 47.617942 
L 25.5365 47.566848 
L 25.546833 47.589039 
L 25.639833 47.631719 
L 25.645 47.649212 
L 25.686333 47.728763 
L 25.7535 47.623285 
L 25.862 47.501034 
L 25.8775 47.517504 
L 26.006667 47.392352 
L 26.027333 47.406883 
L 26.316667 47.373038 
L 26.383833 47.346047 
L 26.327 47.381696 
L 26.425167 47.369598 
L 26.538833 47.505551 
L 26.569833 47.473418 
L 26.6525 47.44538 
L 26.6215 47.504925 
L 26.678333 47.487749 
L 26.771333 47.400381 
L 26.797167 47.355157 
L 26.854 47.415458 
L 26.879833 47.386956 
L 27.014167 47.361801 
L 27.1485 47.335599 
L 27.257 47.347665 
L 27.2725 47.277515 
L 27.412 47.151444 
L 27.556667 47.179705 
L 27.561833 47.151704 
L 27.696167 47.131548 
L 27.7995 47.065823 
L 27.809833 47.074872 
L 27.939 47.083407 
L 28.073333 47.036679 
L 28.187 46.922504 
L 28.223167 46.972375 
L 28.362667 47.009965 
L 28.507333 46.905239 
L 28.559 46.9627 
L 28.6365 46.979454 
L 28.657167 46.910941 
L 28.7605 46.813129 
L 28.672667 46.923105 
L 28.7915 46.870443 
L 28.8845 46.846366 
L 28.817333 46.83761 
L 28.889667 46.832673 
L 29.075667 46.657492 
L 29.086 46.691228 
L 29.091167 46.705611 
L 29.148 46.600528 
L 29.168667 46.608626 
L 29.199667 46.619068 
L 29.2875 46.589833 
L 29.52 46.507804 
L 29.530333 46.550601 
L 29.5665 46.565043 
L 29.5975 46.47981 
L 29.6285 46.50743 
L 29.685333 46.525746 
L 29.706 46.571218 
L 29.762833 46.662409 
L 29.809333 46.551626 
L 29.923 46.35803 
L 29.954 46.377669 
L 30.14 46.124294 
L 30.300167 46.183025 
L 30.444833 46.026765 
L 30.460333 46.056885 
L 30.517167 45.961716 
L 30.610167 45.823185 
L 30.6515 45.87212 
L 31.788167 45.450212 
L 31.793333 45.476141 
L 31.927667 45.553872 
L 31.932833 45.53132 
L 32.0465 45.539585 
L 32.056833 45.517529 
L 32.180833 45.444586 
L 32.299667 45.490727 
L 32.304833 45.505829 
L 32.377167 45.393554 
L 32.403 45.349443 
L 32.4495 45.426472 
L 32.485667 45.415887 
L 32.893833 45.331962 
L 32.9145 45.37267 
L 33.0075 45.336131 
L 33.074667 45.446894 
L 33.147 45.377634 
L 33.4415 45.039226 
L 33.446667 45.053682 
L 33.488 44.951528 
L 33.539667 44.99629 
L 33.643 44.874141 
L 33.668833 44.90759 
L 33.880667 44.774374 
L 33.901333 44.795666 
L 33.978833 44.741518 
L 33.984 44.728711 
L 34.004667 44.683803 
L 34.046 44.75098 
L 34.097667 44.714667 
L 34.273333 44.647267 
L 34.490333 44.671009 
L 34.5885 44.6146 
L 34.614333 44.621874 
L 34.702167 44.58357 
L 34.7125 44.543996 
L 34.872667 44.29724 
L 35.105167 43.965603 
L 35.342833 42.357708 
L 35.3635 35.675701 
L 35.379 31.294111 
L 35.4565 45.823221 
L 35.4875 47.424419 
L 35.575333 47.019275 
L 35.699333 46.252806 
L 36.066167 43.111365 
L 36.092 41.145704 
L 36.1075 31.123632 
L 36.195333 43.080823 
L 36.236667 47.87338 
L 36.314167 47.516014 
L 36.3555 47.346811 
L 36.949667 42.160995 
L 36.970333 31.274407 
L 37.053 41.805794 
L 37.089167 47.947192 
L 37.177 47.644626 
L 37.828 43.899151 
L 37.915833 42.669362 
L 37.9365 35.815927 
L 37.946833 31.235166 
L 38.0295 43.90502 
L 38.070833 48.044067 
L 38.148333 47.767848 
L 38.442833 46.589342 
L 38.582333 45.977803 
L 39.062833 43.189217 
L 39.099 41.700105 
L 39.119667 31.311035 
L 39.197167 43.615052 
L 39.233333 48.082172 
L 39.316 47.847492 
L 39.538167 47.095544 
L 40.1375 44.617947 
L 40.204667 44.378502 
L 40.4475 42.696447 
L 40.468167 40.07926 
L 40.483667 31.448121 
L 40.566333 46.574566 
L 40.6025 48.094485 
L 40.685167 47.854842 
L 40.917667 47.111609 
L 41.062333 46.714766 
L 41.0675 46.727768 
L 41.279333 46.006759 
L 41.9665 42.84622 
L 41.992333 39.904101 
L 42.007833 31.267976 
L 42.0905 46.514363 
L 42.126667 48.223226 
L 42.209333 48.010786 
L 42.576167 47.063024 
L 42.581333 47.083405 
L 42.627833 46.997471 
L 42.8345 46.472655 
L 42.839667 46.481981 
L 42.886167 46.363221 
L 42.8965 46.361452 
L 43.211667 45.593125 
L 43.216833 45.596362 
L 43.521667 44.946107 
L 43.738667 44.435538 
L 43.785167 44.332325 
L 43.924667 44.065947 
L 44.250167 42.659781 
L 44.276 39.592347 
L 44.296667 31.806279 
L 44.374167 47.280102 
L 44.405167 48.101459 
L 44.493 47.852646 
L 44.6325 47.42071 
L 44.921833 46.712575 
L 45.149167 46.121465 
L 45.309333 45.704147 
L 45.609 44.874929 
L 45.929333 44.2039 
L 46.1205 43.71407 
L 46.125667 43.732312 
L 46.172167 43.517691 
L 46.234167 43.075741 
L 46.2755 41.598986 
L 46.301333 31.485939 
L 46.3685 44.016396 
L 46.415 48.149035 
L 46.487333 47.947552 
L 48.523 42.76657 
L 48.554 40.342398 
L 48.574667 31.915235 
L 48.652167 47.052412 
L 48.688333 48.014092 
L 48.771 47.733318 
L 48.796833 47.711997 
L 48.812333 47.645432 
L 49.122333 46.786416 
L 49.199833 46.601239 
L 49.4065 45.995657 
L 49.6545 45.319299 
L 49.819833 44.960087 
L 49.825 44.965106 
L 49.850833 44.844378 
L 50.036833 44.438347 
L 50.047167 44.454508 
L 50.140167 44.473 
L 50.1505 44.409465 
L 50.729167 43.664579 
L 50.791167 43.702455 
L 50.749833 43.646448 
L 50.827333 43.621506 
L 50.91 43.592626 
L 50.842833 43.637267 
L 50.941 43.642811 
L 51.245833 44.775085 
L 51.519667 46.166286 
L 51.7625 46.709177 
L 51.902 46.925574 
L 51.907167 46.921152 
L 51.943333 46.938225 
L 51.969167 46.997307 
L 52.093167 47.14179 
L 52.108667 47.135872 
L 52.144833 47.138601 
L 52.1345 47.170221 
L 52.175833 47.203655 
L 52.305 47.372882 
L 52.77 47.90144 
L 52.780333 47.861234 
L 52.8165 47.845533 
L 52.795833 47.874765 
L 52.8785 47.91027 
L 52.894 47.890948 
L 53.074833 48.068188 
L 53.167833 47.979018 
L 53.214333 48.019864 
L 53.286667 48.076176 
L 53.333167 48.044704 
L 53.3435 48.010208 
L 53.415833 48.116879 
L 53.426167 48.097919 
L 53.534667 48.126892 
L 53.441667 48.073625 
L 53.550167 48.107684 
L 53.5605 48.080173 
L 53.612167 48.140492 
L 53.648333 48.144138 
L 53.6535 48.155921 
L 53.705167 48.05401 
L 53.751667 48.106991 
L 53.880833 48.103102 
L 53.886 48.110982 
L 54.046167 48.134785 
L 54.0565 48.104452 
L 54.325167 48.124699 
L 54.4285 48.198748 
L 54.454333 48.160136 
L 54.469833 48.172594 
L 54.573167 48.091524 
L 54.7075 48.08306 
L 54.712667 48.064706 
L 54.717833 48.029468 
L 54.790167 48.097932 
L 54.826333 48.054073 
L 54.914167 48.08429 
L 54.960667 48.044458 
L 55.064 48.03474 
L 55.033 48.086804 
L 55.074333 48.058243 
L 55.182833 48.021315 
L 55.193167 47.990824 
L 55.317167 48.022586 
L 55.425667 48.076707 
L 55.436 48.067455 
L 55.477333 48.09248 
L 55.565167 48.037938 
L 55.622 48.003968 
L 55.647833 47.963359 
L 55.802833 47.934232 
L 55.813167 47.96862 
L 55.839 47.908205 
L 55.926833 47.954025 
L 55.999167 47.995953 
L 56.045667 47.954882 
L 56.092167 47.977083 
L 56.123167 47.888077 
L 56.2265 47.762021 
L 56.252333 47.824705 
L 56.2885 47.820568 
L 56.3195 47.735507 
L 56.324667 47.747108 
L 56.4745 47.557387 
L 56.371167 47.786131 
L 56.521 47.58923 
L 56.608833 47.666121 
L 56.645 47.643385 
L 56.717333 47.579233 
L 56.774167 47.651236 
L 56.9085 47.705849 
L 56.913667 47.700451 
L 57.0015 47.634965 
L 57.037667 47.697586 
L 57.1255 47.728744 
L 57.151333 47.714619 
L 57.476833 47.578775 
L 57.735167 47.475363 
L 57.802333 47.511623 
L 57.864333 47.396774 
L 58.014167 47.364512 
L 58.0245 47.393424 
L 58.029667 47.403684 
L 58.107167 47.322789 
L 58.1175 47.337595 
L 58.293167 47.201893 
L 58.370667 47.20067 
L 58.391333 47.152363 
L 58.510167 47.171129 
L 58.592833 47.192606 
L 58.536 47.130291 
L 58.618667 47.157714 
L 58.722 47.063571 
L 58.6445 47.16932 
L 58.763333 47.089332 
L 58.902833 47.233957 
L 58.913167 47.226581 
L 59.032 47.061417 
L 59.037167 47.073057 
L 59.099167 47.048637 
L 59.150833 47.10336 
L 59.28 47.046183 
L 59.311 47.068522 
L 59.378167 46.988034 
L 59.3885 46.998874 
L 59.548667 46.944711 
L 59.719167 46.91726 
L 59.879333 46.825987 
L 59.889667 46.854791 
L 59.951667 46.759229 
L 59.987833 46.809241 
L 60.0705 46.778834 
L 60.096333 46.800714 
L 60.148 46.863504 
L 60.21 46.814846 
L 60.695667 46.307129 
L 60.778333 46.336193 
L 60.83 46.231694 
L 60.943667 46.257418 
L 60.912667 46.188083 
L 60.948833 46.240979 
L 61.14 46.105871 
L 61.269167 46.068162 
L 61.274333 46.072267 
L 61.3725 46.071291 
L 61.393167 46.043588 
L 61.605 45.885917 
L 61.610167 45.896989 
L 61.661833 45.814015 
L 61.76 45.924312 
L 61.770333 45.913076 
L 61.842667 45.990332 
L 61.847833 45.99023 
L 61.987333 46.133559 
L 61.9925 46.12841 
L 62.1165 46.01653 
L 62.137167 46.047726 
L 62.157833 46.016258 
L 62.261167 46.083296 
L 62.349 46.018172 
L 62.385167 46.028382 
L 62.478167 46.05429 
L 62.493667 46.003054 
L 62.648667 45.908228 
L 62.504 46.014004 
L 62.664167 45.950526 
L 63.118833 45.80822 
L 63.2945 45.673788 
L 63.304833 45.6892 
L 63.434 45.704656 
L 63.454667 45.661123 
L 63.501167 45.615924 
L 63.568333 45.63934 
L 63.640667 45.720395 
L 63.687167 45.674642 
L 63.8525 45.806252 
L 63.749167 45.627908 
L 63.857667 45.787768 
L 64.017833 45.745859 
L 64.028167 45.764337 
L 64.090167 45.807197 
L 64.136667 45.75077 
L 64.178 45.722184 
L 64.198667 45.788621 
L 64.234833 45.788692 
L 64.260667 45.837548 
L 64.291667 45.742956 
L 64.338167 45.765192 
L 64.498333 45.664681 
L 64.5035 45.673238 
L 64.555167 45.65011 
L 64.529333 45.629377 
L 64.586167 45.601084 
L 64.622333 45.561598 
L 64.653333 45.619617 
L 64.699833 45.583801 
L 64.741167 45.640492 
L 64.8135 45.576085 
L 65.6195 45.52614 
L 65.728 45.322089 
L 65.759 45.409556 
L 65.8365 45.484648 
L 65.877833 45.43235 
L 66.322167 45.296215 
L 66.337667 45.328618 
L 66.4255 45.34293 
L 66.389333 45.293477 
L 66.446167 45.311439 
L 66.559833 45.290976 
L 66.565 45.295157 
L 66.699333 45.250803 
L 66.968 45.090844 
L 66.9835 45.135829 
L 67.117833 45.266577 
L 67.2315 45.270674 
L 67.2935 45.208479 
L 67.350333 45.268451 
L 67.495 45.150094 
L 67.6035 45.086255 
L 67.613833 45.093507 
L 67.732667 44.995401 
L 67.779167 44.915319 
L 67.8515 44.945788 
L 68.011667 45.035999 
L 68.125333 44.916256 
L 68.146 44.932308 
L 68.208 44.956413 
L 68.244167 44.906784 
L 68.373333 44.79654 
L 68.430167 44.800391 
L 68.388833 44.772335 
L 68.461167 44.737447 
L 68.518 44.669241 
L 68.58 44.691351 
L 68.693667 44.709495 
L 68.590333 44.683476 
L 68.704 44.691906 
L 68.848667 44.53723 
L 68.859 44.570737 
L 68.921 44.450621 
L 68.941667 44.459893 
L 69.2 44.252229 
L 69.4015 43.933753 
L 69.406667 43.937509 
L 69.422167 43.952941 
L 69.458333 43.843104 
L 69.468667 43.835663 
L 69.634 42.892787 
L 69.665 40.268428 
L 69.685667 31.269354 
L 69.763167 45.699711 
L 69.799333 47.593944 
L 69.882 47.186943 
L 70.0835 45.912348 
L 70.429667 42.943533 
L 70.450333 40.647731 
L 70.465833 31.060243 
L 70.553667 43.840812 
L 70.595 47.982726 
L 70.6725 47.688007 
L 71.401 42.013359 
L 71.421667 31.177985 
L 71.504333 42.629944 
L 71.545667 48.064549 
L 71.623167 47.77487 
L 72.305167 44.680298 
L 72.558333 41.683372 
L 72.579 31.165334 
L 72.6565 42.542171 
L 72.708167 48.15209 
L 72.775333 47.910842 
L 72.821833 47.765663 
L 73.049167 46.980811 
L 73.054333 46.989605 
L 73.953333 42.706985 
L 73.974 39.677415 
L 73.9895 31.294807 
L 74.072167 46.455664 
L 74.108333 48.171627 
L 74.191 47.928883 
L 75.586 43.939159 
L 75.8185 42.395214 
L 75.839167 36.745475 
L 75.854667 31.603651 
L 75.932167 47.009293 
L 75.963167 48.136396 
L 76.051 47.904706 
L 76.2525 47.266356 
L 76.257667 47.293528 
L 76.6555 46.328437 
L 76.660667 46.336853 
L 76.707167 46.229844 
L 77.0585 45.19051 
L 77.5855 43.890318 
L 77.7405 43.428932 
L 77.838667 41.966414 
L 77.869667 31.737637 
L 77.931667 43.458552 
L 77.993667 48.094169 
L 78.0505 47.943043 
L 78.2985 47.185644 
L 78.308833 47.193939 
L 78.314 47.203112 
L 78.355333 47.064153 
L 78.5 46.777336 
L 78.649833 46.363231 
L 78.660167 46.365527 
L 79.068333 45.208405 
L 79.176833 44.990047 
L 79.326667 44.739244 
L 79.4145 44.580682 
L 79.6625 44.081173 
L 80.013833 43.132887 
L 80.0655 41.644783 
L 80.091333 31.742772 
L 80.1585 44.578009 
L 80.199833 48.077243 
L 80.277333 47.871022 
L 80.339333 47.680299 
L 81.543167 44.567083 
L 81.5845 44.492527 
L 81.589667 44.475203 
L 82.168333 43.035527 
L 82.209667 41.678478 
L 82.2355 31.800905 
L 82.302667 44.545356 
L 82.349167 48.041186 
L 82.4215 47.845828 
L 82.721167 46.959185 
L 82.7935 46.795699 
L 83.005333 46.224757 
L 83.547833 44.87159 
L 83.558167 44.878021 
L 83.563333 44.90147 
L 83.625333 44.710651 
L 83.806167 44.338816 
L 84.1265 43.867229 
L 84.167833 43.914504 
L 84.514 44.297747 
L 84.865333 46.352828 
L 84.9325 46.480443 
L 85.216667 47.109007 
L 85.227 47.083475 
L 85.299333 47.216996 
L 85.309667 47.180712 
L 85.485333 47.461312 
L 85.495667 47.41787 
L 85.573167 47.533858 
L 85.681667 47.564817 
L 85.697167 47.542097 
L 85.7075 47.535098 
L 85.759167 47.619273 
L 85.8935 47.803546 
L 86.043333 47.864696 
L 86.317167 47.95861 
L 86.322333 47.95161 
L 86.3275 47.940151 
L 86.399833 48.034122 
L 86.410167 48.018814 
L 86.508333 48.044665 
L 86.436 48.00577 
L 86.529 48.025711 
L 86.678833 47.959622 
L 86.684 47.963726 
L 86.828667 48.079018 
L 86.6995 47.939831 
L 86.849333 48.052745 
L 86.952667 47.944182 
L 86.983667 47.983388 
L 87.123167 48.024528 
L 87.386667 47.95874 
L 87.397 47.980143 
L 87.49 48.110587 
L 87.526167 48.046028 
L 87.639833 48.13106 
L 87.546833 48.017475 
L 87.6605 48.089069 
L 87.810333 48.022242 
L 87.9395 47.941327 
L 87.944667 47.944785 
L 88.042833 47.994735 
L 88.068667 47.970495 
L 88.115167 47.980702 
L 88.099667 48.016615 
L 88.1565 48.027557 
L 88.327 48.106948 
L 88.430333 48.117271 
L 88.445833 48.073488 
L 88.533667 47.950826 
L 88.585333 47.996328 
L 88.859167 48.052731 
L 88.895333 48.068554 
L 89.009 47.863168 
L 89.019333 47.882001 
L 89.045167 47.809172 
L 89.107167 47.81685 
L 89.474 47.785216 
L 89.5515 47.781154 
L 89.499833 47.751876 
L 89.572167 47.733442 
L 89.680667 47.59504 
L 89.716833 47.672118 
L 89.727167 47.694003 
L 89.758167 47.618469 
L 89.809833 47.610249 
L 89.928667 47.5614 
L 90.1405 47.475166 
L 90.192167 47.556597 
L 90.249 47.460782 
L 90.466 47.52054 
L 90.491833 47.590352 
L 90.579667 47.563722 
L 90.755333 47.416125 
L 90.600333 47.573644 
L 90.7605 47.423686 
L 90.781167 47.488378 
L 90.869 47.409416 
L 91.1015 47.380321 
L 91.1325 47.459695 
L 91.199667 47.344585 
L 91.204833 47.349453 
L 91.277167 47.267566 
L 91.323667 47.322224 
L 91.4425 47.326931 
L 91.452833 47.312929 
L 91.545833 47.300303 
L 91.499333 47.350445 
L 91.556167 47.353216 
L 91.623333 47.40271 
L 91.664667 47.363914 
L 91.809333 47.227803 
L 91.706 47.38448 
L 91.819667 47.241356 
L 92.072833 47.221155 
L 92.227833 47.081118 
L 92.801333 46.897252 
L 92.811667 46.926362 
L 92.878833 47.007466 
L 92.9305 46.943973 
L 92.951167 46.958364 
L 93.075167 46.824757 
L 93.183667 46.8183 
L 93.121667 46.777712 
L 93.188833 46.801909 
L 93.204333 46.819038 
L 93.374833 46.701165 
L 93.4265 46.732296 
L 93.3955 46.679263 
L 93.478167 46.679772 
L 93.617667 46.556735 
L 93.648667 46.595784 
L 93.752 46.647361 
L 93.659 46.589752 
L 93.772667 46.628826 
L 93.839833 46.581972 
L 93.8915 46.621343 
L 94.005167 46.554919 
L 94.010333 46.556008 
L 94.025833 46.618819 
L 94.113667 46.518368 
L 94.222167 46.451077 
L 94.2635 46.528082 
L 94.279 46.538084 
L 94.31 46.428143 
L 94.335833 46.444858 
L 94.423667 46.390811 
L 94.454667 46.433963 
L 94.537333 46.451861 
L 94.485667 46.413904 
L 94.563167 46.423332 
L 94.589 46.472591 
L 94.6975 46.399968 
L 94.723333 46.31657 
L 94.7595 46.316138 
L 94.961 46.223917 
L 95.095333 46.366154 
L 95.219333 46.243557 
L 95.2245 46.265942 
L 95.250333 46.289201 
L 95.291667 46.232133 
L 95.327833 46.227478 
L 95.400167 46.157377 
L 95.4415 46.185131 
L 95.462167 46.249245 
L 95.539667 46.149132 
L 95.55 46.172107 
L 95.715333 46.192142 
L 95.736 46.135849 
L 95.823833 45.977016 
L 95.880667 46.021857 
L 95.973667 46.030901 
L 95.9065 45.977156 
L 95.989167 46.001847 
L 96.1855 45.970943 
L 96.3095 45.922963 
L 96.314667 45.934604 
L 96.366333 45.94309 
L 96.335333 45.888385 
L 96.4025 45.869019 
L 96.4955 45.846378 
L 96.516167 45.89327 
L 96.598833 45.86207 
L 96.614333 45.824739 
L 96.748667 45.764707 
L 96.888167 45.757311 
L 96.955333 45.740932 
L 96.919167 45.7919 
L 96.9915 45.795604 
L 97.043167 45.770919 
L 97.074167 45.865475 
L 97.079333 45.849597 
L 97.110333 45.887586 
L 97.162 45.794045 
L 97.280833 45.657878 
L 97.296333 45.683858 
L 97.3015 45.705102 
L 97.379 45.585881 
L 97.384167 45.590889 
L 97.5185 45.470551 
L 97.523667 45.488327 
L 97.740667 45.646687 
L 97.745833 45.641701 
L 97.8595 45.632614 
L 97.8285 45.697497 
L 97.864667 45.640414 
L 97.916333 45.749526 
L 97.9215 45.769704 
L 97.988667 45.671374 
L 98.019667 45.706896 
L 98.0455 45.776894 
L 98.128167 45.683314 
L 98.495 45.412479 
L 98.531167 45.462083 
L 98.5725 45.47178 
L 98.619 45.38675 
L 98.660333 45.321258 
L 98.706833 45.448061 
L 98.7585 45.479462 
L 98.8205 45.44069 
L 98.898 45.39342 
L 98.939333 45.411711 
L 98.965167 45.438875 
L 99.0065 45.345282 
L 99.0375 45.361186 
L 99.104667 45.329419 
L 99.151167 45.354576 
L 99.1925 45.299496 
L 99.27 45.376305 
L 99.352667 45.319201 
L 99.3785 45.384452 
L 99.523167 45.251547 
L 99.766 45.071158 
L 99.833167 45.130299 
L 99.884833 45.05921 
L 99.895167 45.03505 
L 99.983 45.109144 
L 100.039833 45.129154 
L 100.086333 45.072902 
L 100.101833 45.053382 
L 100.210333 45.044387 
L 100.267167 44.98234 
L 100.329167 45.028294 
L 100.3395 45.038757 
L 100.380833 44.921834 
L 100.411833 44.884578 
L 100.453167 44.966792 
L 100.489333 44.903294 
L 100.546167 44.919947 
L 100.582333 44.848319 
L 100.592667 44.867655 
L 100.701167 44.856952 
L 100.654667 44.91444 
L 100.7115 44.869897 
L 100.851 44.88285 
L 100.995667 44.734269 
L 101.016333 44.752866 
L 101.367667 44.63181 
L 101.372833 44.614637 
L 101.445167 44.697006 
L 101.471 44.660274 
L 101.522667 44.626569 
L 101.512333 44.603013 
L 101.5485 44.588017 
L 101.739667 44.294596 
L 101.755167 44.32048 
L 101.899833 44.167549 
L 101.905 44.129567 
L 101.936 44.176879 
L 102.008333 44.176377 
L 102.023833 44.146166 
L 102.091 44.114794 
L 102.302833 43.675455 
L 102.3235 43.68791 
L 102.411333 43.273431 
L 102.463 42.219216 
L 102.494 31.38656 
L 102.561167 42.221102 
L 102.612833 47.520169 
L 102.685167 47.121462 
L 103.176 43.431644 
L 103.217333 41.429135 
L 103.232833 31.142532 
L 103.320667 42.447948 
L 103.356833 47.988166 
L 103.4395 47.675937 
L 103.9975 44.409951 
L 104.1525 41.746238 
L 104.173167 31.163963 
L 104.255833 42.949712 
L 104.302333 48.064543 
L 104.374667 47.801305 
L 105.242667 43.18495 
L 105.273667 42.043635 
L 105.2995 31.277106 
L 105.371833 41.652781 
L 105.428667 48.142903 
L 105.495833 47.921323 
L 105.852333 46.714878 
L 105.893667 46.615055 
L 106.451667 44.37421 
L 106.71 40.726709 
L 106.730667 31.352924 
L 106.808167 45.979176 
L 106.8495 48.131124 
L 106.927 47.92218 
L 106.932167 47.926709 
L 106.963167 47.809799 
L 107.479833 46.337836 
L 107.836333 45.179545 
L 108.471833 42.752545 
L 108.497667 39.52889 
L 108.513167 31.481414 
L 108.595833 47.00459 
L 108.637167 48.162138 
L 108.714667 47.907764 
L 108.719833 47.917864 
L 108.761167 47.758787 
L 109.060833 46.960565 
L 109.334667 46.389851 
L 109.562 45.848434 
L 109.567167 45.8572 
L 109.598167 45.718374 
L 109.6085 45.716305 
L 109.820333 45.203881 
L 109.8255 45.211442 
L 109.954667 44.953521 
L 110.099333 44.672506 
L 110.1045 44.685397 
L 110.171667 44.596371 
L 110.316333 44.369459 
L 110.3215 44.386353 
L 110.399 44.27909 
L 110.404167 44.292336 
L 110.585 44.082064 
L 110.812333 43.849856 
L 110.869167 43.958028 
L 111.163667 44.431852 
L 111.184333 44.420483 
L 111.236 44.383761 
L 111.292833 44.428079 
L 111.303167 44.411765 
L 111.401333 44.684729 
L 111.649333 46.184017 
L 111.7165 46.432565 
L 111.918 46.931993 
L 111.923167 46.925046 
L 112.083333 47.245997 
L 112.228 47.504747 
L 112.233167 47.50331 
L 112.326167 47.503358 
L 112.357167 47.546731 
L 112.4605 47.697121 
L 112.5845 47.781434 
L 112.631 47.732355 
L 112.6775 47.825391 
L 112.687833 47.822737 
L 112.786 47.871736 
L 112.806667 47.836062 
L 112.8945 47.888801 
L 112.9255 47.868016 
L 112.935833 47.817019 
L 113.008167 47.992514 
L 113.065 48.084695 
L 113.106333 48.072319 
L 113.090833 48.037965 
L 113.147667 48.025015 
L 113.183833 47.969084 
L 113.158 48.029536 
L 113.261333 48.004976 
L 113.406 48.183172 
L 113.5455 48.040292 
L 113.767667 48.194705 
L 113.788333 48.154199 
L 113.829667 48.145397 
L 113.876167 48.230477 
L 113.969167 48.193524 
L 114.0105 48.231686 
L 114.015667 48.252003 
L 114.082833 48.175192 
L 114.119 48.207811 
L 114.232667 48.055923 
L 114.1345 48.21883 
L 114.263667 48.110672 
L 114.4135 48.074261 
L 114.604667 47.996496 
L 114.7235 47.900049 
L 114.749333 47.921725 
L 114.873333 47.980003 
L 114.8785 47.9714 
L 114.894 47.911083 
L 114.930167 48.008965 
L 114.981833 48.0078 
L 115.322833 48.00156 
L 115.4365 47.956952 
L 115.446833 47.969203 
L 115.545 48.046563 
L 115.576 48.011236 
L 116.004833 47.922099 
L 116.0875 47.962773 
L 116.1185 47.926125 
L 116.6455 47.847532 
L 116.655833 47.867426 
L 116.723 47.790044 
L 116.743667 47.800458 
L 116.754 47.783333 
L 116.779833 47.872543 
L 116.805667 47.889607 
L 116.8935 47.926557 
L 116.934833 47.865127 
L 117.188 47.69065 
L 116.950333 47.884143 
L 117.198333 47.703006 
L 117.2035 47.715511 
L 117.2655 47.601935 
L 117.270667 47.601599 
L 117.415333 47.447072 
L 117.4205 47.462991 
L 117.6685 47.354469 
L 117.673667 47.36147 
L 117.751167 47.407815 
L 117.782167 47.356132 
L 117.9165 47.260029 
L 117.7925 47.365934 
L 117.921667 47.286171 
L 118.0405 47.338825 
L 118.2265 47.24142 
L 118.236833 47.271381 
L 118.329833 47.307562 
L 118.283333 47.240183 
L 118.360833 47.267283 
L 118.552 47.320097 
L 118.614 47.372858 
L 118.650167 47.285189 
L 118.748333 47.190279 
L 118.779333 47.204958 
L 118.887833 47.308052 
L 118.9085 47.266929 
L 118.934333 47.283746 
L 119.099667 47.15131 
L 119.316667 47.157341 
L 119.378667 47.157125 
L 119.399333 47.103605 
L 119.544 46.933809 
L 119.740333 46.812258 
L 119.7765 46.871455 
L 119.905667 46.924132 
L 119.936667 46.938257 
L 120.04 46.837414 
L 120.076167 46.840366 
L 120.096833 46.777098 
L 120.127833 46.767591 
L 120.360333 46.659632 
L 120.370667 46.683042 
L 120.479167 46.677652 
L 120.386167 46.674228 
L 120.484333 46.673346 
L 120.732333 46.572449 
L 120.7375 46.598647 
L 120.8305 46.628972 
L 120.851167 46.583303 
L 121.104333 46.360426 
L 121.1715 46.461569 
L 121.223167 46.418201 
L 121.362667 46.422351 
L 121.466 46.331216 
L 121.491833 46.365101 
L 121.502167 46.389492 
L 121.683 46.218429 
L 121.786333 46.189723 
L 121.7915 46.157105 
L 121.869 46.10416 
L 121.9 46.153556 
L 121.936167 46.189389 
L 121.982667 46.076865 
L 121.998167 46.091992 
L 122.184167 45.913572 
L 122.013667 46.113756 
L 122.1945 45.944781 
L 122.313333 46.01463 
L 122.3185 45.998235 
L 122.5355 45.866356 
L 122.328833 46.006171 
L 122.540667 45.880037 
L 122.6285 45.823393 
L 122.6905 45.873962 
L 122.7525 45.75406 
L 123.103833 45.718598 
L 123.315667 45.654742 
L 123.320833 45.678413 
L 123.326 45.694268 
L 123.393167 45.587438 
L 123.408667 45.606743 
L 123.517167 45.537231 
L 123.553333 45.580742 
L 123.641167 45.622826 
L 123.661833 45.558184 
L 123.785833 45.460383 
L 123.796167 45.489142 
L 123.987333 45.421349 
L 123.9925 45.428023 
L 124.126833 45.555507 
L 124.132 45.553022 
L 124.163 45.493659 
L 124.245667 45.558974 
L 124.374833 45.594602 
L 124.256 45.538747 
L 124.374833 45.594602 
" style="fill:none;stroke:#000000;stroke-linecap:square;stroke-width:0.3;"/>
   </g>
   <g id="line2d_3">
    <path clip-path="url(#pd02f9651cc)" d="M 12.78 66.538971 
L 12.785167 66.556502 
L 12.852333 66.470014 
L 12.8885 66.522129 
L 13.059 66.49449 
L 12.898833 66.542117 
L 13.064167 66.506293 
L 13.177833 66.604212 
L 13.203667 66.584907 
L 13.270833 66.548742 
L 13.224333 66.601376 
L 13.317333 66.576395 
L 13.343167 66.607343 
L 13.518833 66.472449 
L 13.529167 66.458851 
L 13.6325 66.452485 
L 13.637667 66.422867 
L 13.699667 66.512682 
L 13.741 66.456166 
L 13.854667 66.458534 
L 13.870167 66.505517 
L 13.916667 66.543314 
L 13.9735 66.477675 
L 14.076833 66.451712 
L 13.994167 66.514865 
L 14.092333 66.489438 
L 14.231833 66.473761 
L 14.107833 66.507658 
L 14.237 66.488481 
L 14.3765 66.599475 
L 14.381667 66.597721 
L 14.412667 66.617712 
L 14.4695 66.528284 
L 14.5315 66.456232 
L 14.588333 66.513171 
L 14.696833 66.503527 
L 14.712333 66.471279 
L 14.7485 66.461681 
L 14.784667 66.519532 
L 14.8105 66.50539 
L 14.944833 66.552303 
L 15.074 66.424601 
L 15.084333 66.435676 
L 15.57 66.541075 
L 15.730167 66.592044 
L 15.823167 66.523774 
L 15.849 66.574823 
L 15.983333 66.57454 
L 15.9885 66.566305 
L 16.035 66.511629 
L 16.097 66.573327 
L 16.102167 66.562897 
L 16.138333 66.627298 
L 16.19 66.617102 
L 16.215833 66.694497 
L 16.2985 66.601164 
L 16.3915 66.592698 
L 16.308833 66.606772 
L 16.407 66.625354 
L 16.510333 66.651569 
L 16.525833 66.611627 
L 16.644667 66.562768 
L 16.551667 66.63013 
L 16.649833 66.56469 
L 17.2285 66.434674 
L 17.306 66.525025 
L 17.347333 66.492856 
L 17.4455 66.460302 
L 17.419667 66.52904 
L 17.461 66.48423 
L 17.812333 66.348432 
L 17.822667 66.374996 
L 17.8795 66.423217 
L 17.926 66.334974 
L 18.019 66.295485 
L 17.9725 66.385235 
L 18.05 66.314403 
L 18.0655 66.293188 
L 18.184333 66.392266 
L 18.334167 66.244332 
L 18.349667 66.260272 
L 18.380667 66.209602 
L 18.4685 66.2773 
L 18.618333 66.345464 
L 18.6235 66.333927 
L 18.7785 66.317377 
L 18.783667 66.335291 
L 18.845667 66.403169 
L 18.892167 66.352607 
L 19.062667 66.215438 
L 19.2125 66.261001 
L 19.222833 66.242398 
L 19.3055 66.195313 
L 19.341667 66.248982 
L 19.465667 66.251983 
L 19.470833 66.238872 
L 19.538 66.171331 
L 19.496667 66.254145 
L 19.5845 66.237115 
L 19.698167 66.272894 
L 19.703333 66.266024 
L 19.8015 66.207885 
L 19.817 66.239193 
L 19.91 66.350898 
L 19.941 66.293199 
L 19.992667 66.304744 
L 19.9565 66.329815 
L 20.013333 66.364347 
L 20.555833 67.982265 
L 20.561 67.969134 
L 20.633333 68.048356 
L 20.752167 68.254519 
L 20.772833 68.243211 
L 20.8865 68.479211 
L 21.057 68.663865 
L 21.434167 68.937992 
L 21.4445 68.903247 
L 21.558167 68.82814 
L 21.573667 68.854562 
L 21.6925 68.813812 
L 21.589167 68.864992 
L 21.702833 68.845248 
L 21.811333 68.895826 
L 21.744167 68.819846 
L 21.821667 68.88251 
L 21.832 68.84709 
L 21.888833 68.924619 
L 21.930167 68.899906 
L 21.9405 68.930149 
L 21.976667 68.848132 
L 22.028333 68.861256 
L 22.1265 68.817706 
L 22.054167 68.888788 
L 22.142 68.83531 
L 22.245333 68.831596 
L 22.183333 68.791826 
L 22.2505 68.828689 
L 22.333167 68.87299 
L 22.3745 68.771869 
L 22.431333 68.689816 
L 22.472667 68.738297 
L 22.519167 68.709578 
L 22.5605 68.780132 
L 22.581167 68.749784 
L 22.658667 68.780482 
L 22.679333 68.71825 
L 22.6845 68.733142 
L 22.689667 68.722679 
L 22.756833 68.806579 
L 22.762 68.799022 
L 22.803333 68.782444 
L 22.891167 68.860866 
L 23.082333 68.896271 
L 23.092667 68.865814 
L 23.113333 68.88026 
L 23.232167 68.798469 
L 23.252833 68.825099 
L 23.294167 68.742649 
L 23.3355 68.75844 
L 23.454333 68.677097 
L 23.557667 68.749886 
L 23.573167 68.724686 
L 23.914167 68.628535 
L 23.971 68.571466 
L 24.022667 68.625739 
L 24.1415 68.645224 
L 24.038167 68.605465 
L 24.146667 68.640904 
L 24.177667 68.680064 
L 24.353333 68.565449 
L 24.56 68.544605 
L 24.942333 68.568099 
L 24.952667 68.591702 
L 25.0095 68.46918 
L 25.045667 68.399325 
L 25.123167 68.46076 
L 25.262667 68.525256 
L 25.402167 68.569271 
L 25.2885 68.49651 
L 25.407333 68.560595 
L 25.479667 68.48801 
L 25.484833 68.469104 
L 25.676 68.368314 
L 25.686333 68.388449 
L 25.758667 68.51344 
L 25.8 68.420813 
L 25.980833 68.149018 
L 26.017 68.194496 
L 26.073833 68.17949 
L 26.130667 68.223497 
L 26.259833 68.114927 
L 26.265 68.121903 
L 26.368333 68.197834 
L 26.275333 68.115633 
L 26.4045 68.154168 
L 26.42 68.179838 
L 26.580167 68.133403 
L 26.637 68.139426 
L 26.673167 68.078034 
L 26.843667 67.884382 
L 26.936667 67.910353 
L 26.9005 67.945628 
L 26.947 67.9256 
L 27.050333 68.039874 
L 27.071 68.017728 
L 27.282833 68.006074 
L 27.288 67.991575 
L 27.319 67.954727 
L 27.381 68.044931 
L 27.401667 68.010322 
L 27.567 67.968589 
L 27.572167 67.976902 
L 27.778833 68.022838 
L 27.784 68.005567 
L 27.8305 67.908495 
L 27.908 67.93418 
L 28.073333 68.024761 
L 28.269667 67.990272 
L 28.28 68.021635 
L 28.362667 67.897522 
L 28.373 67.916886 
L 29.0705 67.499422 
L 29.292667 67.525059 
L 29.385667 67.579557 
L 29.406333 67.525503 
L 29.540667 67.376466 
L 29.421833 67.541056 
L 29.551 67.388732 
L 29.649167 67.467394 
L 29.680167 67.438182 
L 29.809333 67.361634 
L 29.912667 67.421306 
L 29.928167 67.380482 
L 30.088333 67.317485 
L 30.0935 67.336934 
L 30.171 67.214597 
L 30.269167 67.160476 
L 30.191667 67.23387 
L 30.289833 67.227278 
L 30.3105 67.287731 
L 30.377667 67.17884 
L 30.393167 67.203732 
L 30.574 67.162987 
L 30.439667 67.265873 
L 30.584333 67.183285 
L 30.646333 67.202648 
L 30.687667 67.149284 
L 30.8995 67.033729 
L 31.018333 67.11544 
L 31.0235 67.105724 
L 31.2095 67.09448 
L 31.385167 67.155746 
L 31.436833 67.184289 
L 31.400667 67.143975 
L 31.4885 67.126207 
L 31.602167 67.180026 
L 31.695167 67.205858 
L 31.726167 67.174918 
L 31.865667 67.134388 
L 31.8915 67.222461 
L 31.9845 67.207735 
L 32.0155 67.166884 
L 32.093 67.231097 
L 32.258333 67.404499 
L 32.268667 67.391731 
L 32.413333 67.253955 
L 32.2945 67.4102 
L 32.4185 67.261688 
L 32.873167 67.011889 
L 32.888667 67.084671 
L 32.961 67.121831 
L 32.9145 67.061548 
L 33.002333 67.086838 
L 33.209 67.024121 
L 33.296833 66.973986 
L 33.327833 66.987275 
L 33.699833 66.962323 
L 33.710167 67.011526 
L 33.767 66.935421 
L 33.808333 66.948902 
L 33.922 66.904933 
L 33.865167 66.99446 
L 33.927167 66.916434 
L 33.932333 66.933397 
L 33.9995 66.859013 
L 34.025333 66.857803 
L 34.2165 66.80429 
L 34.418 66.733421 
L 34.438667 66.799932 
L 34.4645 66.853304 
L 34.536833 66.757998 
L 34.655667 66.74566 
L 34.562667 66.798721 
L 34.671167 66.781084 
L 34.800333 66.822485 
L 34.8055 66.799651 
L 34.903667 66.753896 
L 34.831333 66.811999 
L 34.924333 66.793963 
L 34.934667 66.808609 
L 34.996667 66.724286 
L 35.017333 66.731247 
L 37.926167 65.862038 
L 37.931333 65.889681 
L 37.972667 65.823586 
L 38.024333 65.825214 
L 38.107 65.77909 
L 38.138 65.816899 
L 38.148333 65.859065 
L 38.241333 65.801215 
L 38.3705 65.686888 
L 38.386 65.709943 
L 38.437667 65.686801 
L 38.530667 65.792747 
L 38.597833 65.724721 
L 38.665 65.754476 
L 38.778667 65.66201 
L 38.902667 65.423461 
L 38.944 65.459101 
L 38.954333 65.465359 
L 38.9905 65.390973 
L 39.011167 65.374858 
L 39.3625 64.305154 
L 39.419333 63.192402 
L 39.4555 52.290631 
L 39.5485 61.555896 
L 39.620833 62.803007 
L 39.688 62.570275 
L 39.744833 62.147873 
L 39.8895 61.761795 
L 39.961833 61.783143 
L 39.899833 61.779105 
L 39.987667 61.808734 
L 40.829833 62.029319 
L 40.902167 62.022084 
L 40.866 62.077835 
L 40.922833 62.072932 
L 40.979667 62.103541 
L 41.041667 62.069427 
L 41.093333 62.037322 
L 41.145 62.109384 
L 41.387833 62.152729 
L 41.418833 62.107552 
L 41.511833 62.153872 
L 41.542833 62.129688 
L 41.604833 62.20399 
L 41.61 62.224569 
L 41.682333 62.131831 
L 41.708167 62.170061 
L 41.734 62.159355 
L 41.775333 62.212715 
L 41.8115 62.199872 
L 41.976833 62.185681 
L 41.987167 62.168784 
L 42.064667 62.28112 
L 42.131833 62.315035 
L 42.178333 62.269962 
L 42.2455 62.319968 
L 42.204167 62.237583 
L 42.297167 62.268159 
L 42.328167 62.256334 
L 42.390167 62.325972 
L 42.4935 62.317466 
L 42.441833 62.279654 
L 42.498667 62.30254 
L 42.514167 62.277008 
L 42.576167 62.395103 
L 42.695 62.336575 
L 42.700167 62.306484 
L 42.757 62.277431 
L 42.798333 62.376819 
L 43.196167 62.532624 
L 43.216833 62.461232 
L 43.315 62.334947 
L 43.346 62.433124 
L 43.5165 62.855726 
L 43.557833 62.741605 
L 43.619833 62.181914 
L 43.676667 61.408274 
L 43.723167 62.176425 
L 43.898833 63.855738 
L 43.909167 63.820882 
L 43.9815 63.910401 
L 43.997 63.9064 
L 44.002167 63.898016 
L 44.0435 64.027899 
L 44.053833 64.019074 
L 44.162333 64.354435 
L 44.797833 66.587886 
L 44.803 66.585853 
L 45.3765 67.884026 
L 45.392 67.877637 
L 45.459167 67.963789 
L 45.660667 68.422873 
L 45.665833 68.421367 
L 45.893167 68.705819 
L 45.913833 68.701698 
L 45.970667 68.775383 
L 45.975833 68.768023 
L 46.229 69.113321 
L 46.254833 69.044105 
L 46.373667 69.043454 
L 46.384 69.084257 
L 46.518333 69.19587 
L 46.652667 69.086006 
L 46.663 69.090501 
L 46.6785 69.111011 
L 46.787 69.09501 
L 46.874833 69.227028 
L 46.911 69.187435 
L 46.962667 69.233381 
L 46.931667 69.1574 
L 47.029833 69.196342 
L 47.055667 69.149853 
L 47.107333 69.261783 
L 47.148667 69.183497 
L 47.169333 69.23631 
L 47.221 69.13972 
L 47.252 69.158695 
L 47.427667 69.012694 
L 47.443167 69.038401 
L 47.458667 69.068195 
L 47.531 68.974759 
L 47.541333 68.983011 
L 48.140667 68.499763 
L 48.156167 68.518785 
L 48.2285 68.57876 
L 48.176833 68.500971 
L 48.280167 68.519917 
L 48.393833 68.454984 
L 48.559167 68.27324 
L 48.621167 68.195706 
L 48.698667 68.263166 
L 48.822667 68.148688 
L 48.838167 68.174943 
L 49.137833 68.108093 
L 49.205 67.990569 
L 49.272167 68.056221 
L 49.370333 68.097127 
L 49.385833 68.084563 
L 49.453 68.153707 
L 49.401333 68.120981 
L 49.458167 68.161569 
L 49.489167 68.240006 
L 49.571833 68.183287 
L 49.659667 68.295807 
L 49.695833 68.21862 
L 49.742333 68.185293 
L 49.8095 68.203654 
L 49.974833 68.134736 
L 49.98 68.152332 
L 50.016167 68.17837 
L 50.0575 68.083429 
L 50.073 68.088888 
L 50.0885 68.099565 
L 50.202167 68.060819 
L 50.207333 68.066519 
L 50.217667 68.027604 
L 50.279667 67.997472 
L 50.434667 67.904962 
L 50.445 67.932466 
L 50.527667 67.852457 
L 50.532833 67.855446 
L 50.744667 67.700688 
L 50.749833 67.708641 
L 50.791167 67.665158 
L 50.868667 67.692168 
L 50.879 67.696962 
L 51.0185 67.575521 
L 51.039167 67.614175 
L 51.065 67.557017 
L 51.127 67.572367 
L 51.194167 67.493413 
L 51.225167 67.622367 
L 51.535167 68.175012 
L 51.540333 68.140247 
L 51.612667 68.40367 
L 51.783167 68.606049 
L 51.803833 68.589331 
L 51.8865 68.584711 
L 51.829667 68.617901 
L 51.907167 68.609296 
L 52.031167 68.745413 
L 52.0415 68.732086 
L 52.248167 68.860186 
L 52.294667 68.860528 
L 52.330833 68.942081 
L 52.496167 68.960077 
L 52.5065 68.944671 
L 52.620167 68.851632 
L 52.640833 68.864645 
L 52.687333 68.980355 
L 52.811333 69.089953 
L 52.8165 69.082321 
L 52.925 69.123461 
L 52.992167 69.1576 
L 52.950833 69.104015 
L 53.038667 69.094735 
L 53.105833 69.127527 
L 53.167833 69.050561 
L 53.260833 69.045823 
L 53.209167 69.00784 
L 53.2815 69.035942 
L 53.379667 69.05657 
L 53.317667 68.990951 
L 53.4055 69.015761 
L 53.441667 69.062709 
L 53.5295 68.976348 
L 53.596667 69.024628 
L 53.570833 68.940968 
L 53.643167 68.999402 
L 54.004833 68.953852 
L 54.01 68.973682 
L 54.077167 68.920301 
L 54.128833 69.032205 
L 54.170167 69.052503 
L 54.278667 68.952956 
L 54.464667 69.043719 
L 54.516333 69.090308 
L 54.542167 69.017063 
L 54.573167 69.026902 
L 54.6145 68.960385 
L 54.681667 69.035686 
L 55.022667 68.759886 
L 55.027833 68.744676 
L 55.1105 68.823399 
L 55.120833 68.80937 
L 55.270667 68.726139 
L 55.281 68.756918 
L 55.4205 68.858488 
L 55.436 68.794557 
L 55.456667 68.784884 
L 55.4825 68.857555 
L 55.529 68.845865 
L 55.585833 68.949599 
L 55.653 68.869783 
L 55.839 68.67171 
L 55.673667 68.88689 
L 55.844167 68.675199 
L 55.8855 68.709051 
L 55.9165 68.643464 
L 55.952667 68.650588 
L 55.963 68.617793 
L 56.174833 68.672457 
L 56.262667 68.626809 
L 56.216167 68.697178 
L 56.2885 68.651856 
L 56.645 68.516507 
L 56.712167 68.463457 
L 56.758667 68.533806 
L 56.913667 68.62096 
L 57.058333 68.460219 
L 57.0635 68.463158 
L 57.11 68.513138 
L 57.1565 68.419571 
L 57.166833 68.44814 
L 57.177167 68.455014 
L 57.363167 68.286187 
L 57.575 68.311595 
L 57.580167 68.302908 
L 57.688667 68.228295 
L 57.709333 68.281738 
L 57.750667 68.308624 
L 57.802333 68.229426 
L 57.947 68.251211 
L 58.060667 68.351742 
L 57.978 68.205888 
L 58.0865 68.318023 
L 58.2105 68.208729 
L 58.226 68.226234 
L 58.236333 68.282424 
L 58.329333 68.204876 
L 58.339667 68.247937 
L 58.4895 68.20789 
L 58.608333 68.104393 
L 58.691 68.127502 
L 58.722 68.082189 
L 58.887333 67.984581 
L 58.9235 68.005862 
L 58.97 67.919175 
L 58.980333 67.945355 
L 59.1095 67.76909 
L 59.125 67.776251 
L 59.135333 67.810494 
L 59.187 67.681559 
L 59.269667 67.614138 
L 59.311 67.627839 
L 59.517667 67.646726 
L 59.522833 67.622293 
L 59.584833 67.712112 
L 59.621 67.692626 
L 59.657167 67.739447 
L 59.739833 67.646963 
L 59.750167 67.657455 
L 59.770833 67.59538 
L 59.832833 67.60638 
L 59.956833 67.52679 
L 59.863833 67.66042 
L 59.962 67.546871 
L 60.018833 67.547473 
L 59.998167 67.519959 
L 60.060167 67.504501 
L 60.168667 67.445582 
L 60.0705 67.530185 
L 60.204833 67.477637 
L 60.334 67.54014 
L 60.344333 67.552604 
L 60.509667 67.41319 
L 60.602667 67.392464 
L 60.587167 67.334941 
L 60.618167 67.380057 
L 60.778333 67.449927 
L 60.804167 67.392652 
L 60.8145 67.404379 
L 60.943667 67.346962 
L 60.954 67.35041 
L 60.979833 67.273947 
L 60.995333 67.26663 
L 61.0315 67.20737 
L 61.083167 67.323949 
L 61.0935 67.311455 
L 61.253667 67.249275 
L 61.269167 67.208574 
L 61.315667 67.291511 
L 61.351833 67.297241 
L 61.444833 67.359882 
L 61.377667 67.26172 
L 61.4655 67.293617 
L 61.491333 67.25801 
L 61.548167 67.360264 
L 61.553333 67.350865 
L 61.568833 67.388143 
L 61.630833 67.327637 
L 61.656667 67.333008 
L 61.7755 67.256577 
L 61.780667 67.258886 
L 61.811667 67.221025 
L 61.8995 67.297093 
L 61.966667 67.354105 
L 62.002833 67.273402 
L 62.080333 67.185021 
L 62.1165 67.268699 
L 62.235333 67.227474 
L 62.168167 67.31586 
L 62.245667 67.246774 
L 62.256 67.279878 
L 62.3025 67.211924 
L 62.349 67.228405 
L 62.498833 67.105978 
L 62.633167 67.141893 
L 62.726167 67.111067 
L 62.653833 67.174536 
L 62.752 67.144637 
L 62.958667 67.104978 
L 63.1395 67.063723 
L 63.149833 67.07611 
L 63.155 67.087412 
L 63.186 66.983854 
L 63.237667 67.004688 
L 63.304833 66.993763 
L 63.341 67.037178 
L 63.459833 67.093701 
L 63.4805 67.111708 
L 63.490833 67.064039 
L 63.563167 67.055665 
L 63.981667 67.017473 
L 64.1315 67.137828 
L 64.152167 67.106046 
L 64.167667 67.064467 
L 64.234833 67.156072 
L 64.2555 67.139724 
L 64.364 67.158787 
L 64.276167 67.176535 
L 64.369167 67.16862 
L 64.4415 67.215605 
L 64.482833 67.178124 
L 64.679167 67.160445 
L 64.699833 67.188612 
L 64.756667 67.113696 
L 64.777333 67.114361 
L 64.978833 66.887996 
L 64.984 66.913972 
L 65.149333 66.978947 
L 65.1545 66.957376 
L 65.304333 66.837194 
L 65.325 66.806654 
L 65.397333 66.881178 
L 65.4025 66.877675 
L 65.443833 66.936202 
L 65.505833 66.851718 
L 65.567833 66.930926 
L 65.598833 66.896837 
L 65.7435 67.041366 
L 65.614333 66.883315 
L 65.748667 67.032261 
L 65.852 67.008774 
L 65.759 67.041302 
L 65.857167 67.020831 
L 65.924333 67.07842 
L 65.976 67.027796 
L 66.105167 66.988243 
L 66.001833 67.069074 
L 66.120667 67.000085 
L 66.2395 67.041057 
L 66.249833 67.027541 
L 66.5805 66.845324 
L 66.606333 66.883146 
L 66.813 66.947811 
L 66.869833 66.824424 
L 66.937 66.884521 
L 67.0145 66.925059 
L 66.9835 66.858999 
L 67.055833 66.880248 
L 67.185 66.891157 
L 67.2005 66.839955 
L 67.267667 66.870559 
L 67.3245 66.808039 
L 67.334833 66.825934 
L 67.567333 66.740664 
L 67.7275 66.778748 
L 67.784333 66.765986 
L 67.748167 66.798304 
L 67.836 66.803101 
L 68.487 66.708755 
L 68.497333 66.73683 
L 68.600667 66.711259 
L 68.611 66.759386 
L 68.704 66.679052 
L 68.709167 66.693851 
L 68.931333 66.530286 
L 69.081167 66.463824 
L 69.422167 66.424992 
L 69.520333 66.357716 
L 69.442833 66.431351 
L 69.546167 66.370911 
L 69.5565 66.38568 
L 69.5875 66.276692 
L 69.592667 66.274158 
L 69.670167 66.260842 
L 69.634 66.32285 
L 69.696 66.278004 
L 69.701167 66.298613 
L 69.768333 66.213546 
L 69.8045 66.254243 
L 69.980167 66.19656 
L 70.062833 66.273128 
L 70.104167 66.25309 
L 70.13 66.180112 
L 70.347 66.296308 
L 70.3625 66.312476 
L 70.512333 66.162999 
L 70.595 66.245753 
L 70.6415 66.222809 
L 70.7345 66.312478 
L 70.781 66.281683 
L 70.910167 66.135944 
L 70.9515 66.161896 
L 70.956667 66.196366 
L 71.0445 66.084669 
L 71.049667 66.085006 
L 71.054833 66.056484 
L 71.132333 66.179576 
L 71.147833 66.141857 
L 71.194333 66.186235 
L 71.251167 66.107618 
L 71.3235 66.150087 
L 71.328667 66.170579 
L 71.411333 66.24256 
L 71.359667 66.165634 
L 71.4475 66.219379 
L 71.581833 66.283717 
L 71.721333 66.370729 
L 71.736833 66.342059 
L 71.809167 66.276619 
L 71.8505 66.337446 
L 71.8815 66.315853 
L 71.922833 66.370697 
L 71.959 66.344294 
L 71.979667 66.396337 
L 72.0055 66.329968 
L 72.077833 66.356832 
L 72.196667 66.380246 
L 72.103667 66.336716 
L 72.201833 66.368686 
L 72.212167 66.329246 
L 72.289667 66.42549 
L 72.305167 66.390878 
L 72.336167 66.440141 
L 72.387833 66.319978 
L 72.6875 66.222051 
L 72.697833 66.243539 
L 72.796 66.319618 
L 72.816667 66.240321 
L 73.1215 66.210335 
L 73.219667 66.152714 
L 73.240333 66.182205 
L 73.3695 66.303896 
L 73.266167 66.162949 
L 73.4005 66.263 
L 73.405667 66.255268 
L 73.447 66.372522 
L 73.472833 66.346694 
L 73.478 66.353304 
L 73.529667 66.267804 
L 73.5555 66.272631 
L 73.751833 66.163449 
L 73.757 66.173809 
L 73.8655 66.207026 
L 73.901667 66.164356 
L 74.015333 66.119089 
L 74.036 66.14917 
L 74.382167 65.878163 
L 74.475167 65.833456 
L 74.506167 65.871346 
L 74.650833 65.777173 
L 74.707667 65.771917 
L 74.728333 65.829658 
L 74.759333 65.811828 
L 74.816167 65.873914 
L 74.878167 65.82854 
L 75.079667 65.768472 
L 75.09 65.806844 
L 75.152 65.659497 
L 75.177833 65.71279 
L 75.343167 65.499907 
L 75.493 65.541319 
L 75.498167 65.530835 
L 75.622167 65.463261 
L 75.6945 65.398819 
L 75.735833 65.460166 
L 75.932167 65.137417 
L 76.164667 64.820766 
L 76.309333 63.603417 
L 76.335167 60.126973 
L 76.355833 52.495527 
L 76.443667 61.256615 
L 76.516 62.436706 
L 76.578 62.193638 
L 76.733 61.70556 
L 76.738167 61.70802 
L 76.893167 61.725988 
L 77.1205 61.855422 
L 77.156667 61.842128 
L 77.141167 61.881719 
L 77.229 61.867794 
L 77.420167 61.953813 
L 77.425333 61.945547 
L 77.539 61.946653 
L 77.4615 61.975146 
L 77.544167 61.960733 
L 77.730167 62.02223 
L 77.735333 61.999084 
L 77.828333 62.065986 
L 77.8335 62.062761 
L 77.962667 62.033473 
L 78.148667 62.116354 
L 78.370833 62.152096 
L 78.505167 62.239896 
L 78.634333 62.143911 
L 78.748 62.330216 
L 78.799667 62.248905 
L 78.835833 62.219078 
L 78.903 62.286015 
L 78.908167 62.266432 
L 79.1975 62.331933 
L 79.207833 62.313827 
L 79.2285 62.289682 
L 79.300833 62.372061 
L 79.399 62.486464 
L 79.43 62.442399 
L 79.585 62.35434 
L 79.636667 62.448827 
L 79.7865 62.671277 
L 79.838167 62.580522 
L 79.9725 62.06674 
L 80.013833 62.262543 
L 80.230833 63.344725 
L 80.267 63.297256 
L 80.370333 62.779584 
L 80.442667 59.553263 
L 80.494333 62.497551 
L 80.613167 64.449491 
L 80.633833 64.42784 
L 80.695833 64.46775 
L 80.659667 64.472204 
L 80.701 64.493538 
L 80.866333 64.865398 
L 81.7395 67.451075 
L 81.8015 67.598491 
L 81.941 67.914419 
L 82.189 68.32216 
L 82.251 68.39056 
L 82.468 68.910377 
L 82.473167 68.905048 
L 82.504167 68.911746 
L 82.535167 68.994983 
L 82.6075 69.085376 
L 82.710833 69.128764 
L 82.690167 69.043554 
L 82.721167 69.102842 
L 82.726333 69.088413 
L 82.798667 69.199934 
L 82.969167 69.167714 
L 83.005333 69.143323 
L 83.051833 69.245963 
L 83.067333 69.218202 
L 83.305 69.265296 
L 83.310167 69.246957 
L 83.46 69.169807 
L 83.558167 69.192345 
L 83.573667 69.170692 
L 83.801 69.221947 
L 83.8165 69.167944 
L 83.9095 69.189886 
L 83.857833 69.22035 
L 83.914667 69.195997 
L 83.919833 69.217209 
L 83.9405 69.151293 
L 84.012833 69.139841 
L 84.116167 69.134291 
L 84.085167 69.181958 
L 84.1265 69.14748 
L 84.255667 69.181706 
L 84.260833 69.172523 
L 84.359 69.096722 
L 84.379667 69.105316 
L 84.503667 69.11298 
L 84.855 69.152352 
L 85.232167 69.426857 
L 85.2425 69.405738 
L 85.361333 69.368284 
L 85.511167 69.42481 
L 85.516333 69.418323 
L 85.5525 69.282685 
L 85.635167 69.361844 
L 85.826333 69.252809 
L 85.934833 69.145254 
L 85.9555 69.187856 
L 86.549667 69.0962 
L 86.632333 69.030514 
L 86.720167 69.030214 
L 86.689167 69.066829 
L 86.735667 69.069957 
L 86.921667 69.218465 
L 87.061167 69.266718 
L 87.422833 69.12529 
L 87.49 69.191922 
L 87.541667 69.174024 
L 87.732833 68.973639 
L 87.763833 69.029455 
L 87.7845 69.088049 
L 87.841333 68.98173 
L 87.872333 69.033537 
L 87.996333 68.878626 
L 88.006667 68.892964 
L 88.104833 68.942404 
L 88.1255 68.912643 
L 88.347667 68.644182 
L 88.358 68.649684 
L 88.4975 68.571414 
L 88.544 68.638915 
L 88.709333 68.751015 
L 88.771333 68.678469 
L 88.8385 68.77407 
L 88.936667 68.772717 
L 88.8695 68.801599 
L 88.947 68.787424 
L 89.060667 68.855795 
L 89.071 68.821322 
L 89.164 68.751256 
L 89.189833 68.772585 
L 89.360333 68.665468 
L 89.463667 68.692669 
L 89.370667 68.652762 
L 89.499833 68.655787 
L 90.042333 68.556677 
L 90.119833 68.535717 
L 90.099167 68.594734 
L 90.150833 68.567234 
L 90.223167 68.537352 
L 90.166333 68.53086 
L 90.2335 68.496157 
L 90.238667 68.471608 
L 90.3265 68.539695 
L 90.331667 68.520937 
L 90.352333 68.57553 
L 90.3885 68.475949 
L 90.440167 68.50425 
L 90.59 68.368863 
L 90.610667 68.410648 
L 90.652 68.415209 
L 90.693333 68.33617 
L 90.6985 68.334564 
L 90.812167 68.253325 
L 90.827667 68.278554 
L 91.142833 68.325067 
L 91.153167 68.277703 
L 91.215167 68.18026 
L 91.272 68.205971 
L 91.494167 68.059332 
L 91.607833 68.049765 
L 91.530333 68.077642 
L 91.613 68.052546 
L 91.706 67.977856 
L 91.8455 67.911106 
L 91.850667 67.91639 
L 91.886833 67.913828 
L 91.933333 67.84339 
L 91.954 67.775818 
L 92.041833 67.862561 
L 92.114167 67.936684 
L 92.150333 67.863775 
L 92.212333 67.741411 
L 92.284667 67.828062 
L 92.388 67.876326 
L 92.4035 67.845258 
L 92.770333 67.783568 
L 92.853 67.754734 
L 92.878833 67.792213 
L 93.121667 67.702748 
L 93.256 67.591457 
L 93.152667 67.721767 
L 93.261167 67.594763 
L 93.597 67.595867 
L 93.6125 67.608627 
L 93.622833 67.549026 
L 93.684833 67.543099 
L 93.7055 67.487983 
L 93.762333 67.618672 
L 93.788167 67.592588 
L 93.8605 67.584589 
L 93.7985 67.600263 
L 93.896667 67.606995 
L 93.994833 67.589358 
L 94.010333 67.560551 
L 94.113667 67.491917 
L 94.025833 67.574714 
L 94.155 67.528615 
L 94.211833 67.586053 
L 94.268667 67.543885 
L 94.702667 67.309598 
L 94.7285 67.373882 
L 94.733667 67.387156 
L 94.754333 67.300032 
L 94.811167 67.282504 
L 95.152167 67.297052 
L 95.260667 67.23599 
L 95.2865 67.249106 
L 95.488 67.157804 
L 95.508667 67.195866 
L 95.5655 67.202872 
L 95.612 67.150871 
L 95.8445 67.325352 
L 95.8755 67.268033 
L 95.9995 67.181016 
L 96.004667 67.204304 
L 96.009833 67.218467 
L 96.082167 67.136051 
L 96.097667 67.159134 
L 96.232 67.077681 
L 96.237167 67.087082 
L 96.366333 67.126293 
L 96.252667 67.044704 
L 96.376667 67.113908 
L 96.459333 67.027394 
L 96.500667 67.060005 
L 96.593667 67.216355 
L 96.645333 67.131627 
L 96.6505 67.113182 
L 96.702167 67.23145 
L 96.738333 67.198741 
L 97.038 67.203692 
L 97.043167 67.183239 
L 97.2085 67.085382 
L 97.497833 66.928995 
L 97.606333 66.936863 
L 97.6115 66.950976 
L 97.668333 67.05247 
L 97.7355 67.002951 
L 97.745833 67.020431 
L 97.807833 66.906518 
L 97.823333 66.931367 
L 97.926667 66.93615 
L 97.849167 66.982036 
L 97.931833 66.941056 
L 98.040333 66.939369 
L 97.993833 66.878899 
L 98.0455 66.928825 
L 98.143667 66.798815 
L 98.1695 66.872841 
L 98.2935 66.958126 
L 99.249333 66.963353 
L 99.326833 66.922261 
L 99.342333 66.899443 
L 99.368167 66.850931 
L 99.4095 66.95334 
L 99.450833 66.911759 
L 99.5335 66.918911 
L 99.461167 66.900393 
L 99.554167 66.902341 
L 99.704 66.702038 
L 99.9055 66.815626 
L 99.910667 66.805535 
L 99.983 66.759404 
L 99.926167 66.815615 
L 100.024333 66.790447 
L 100.334333 66.662014 
L 100.458333 66.555865 
L 100.4635 66.564331 
L 101.471 66.49671 
L 101.564 66.410927 
L 101.589833 66.449214 
L 101.791333 66.574015 
L 101.801667 66.54543 
L 101.967 66.375563 
L 102.065167 66.466725 
L 102.096167 66.41708 
L 102.375167 66.431717 
L 102.390667 66.477388 
L 102.411333 66.390001 
L 102.488833 66.444566 
L 102.504333 66.412885 
L 102.566333 66.466151 
L 102.6025 66.443932 
L 102.711 66.400129 
L 102.721333 66.413177 
L 102.7265 66.426885 
L 102.7885 66.32422 
L 102.804 66.325191 
L 102.829833 66.381102 
L 102.938333 66.319398 
L 103.052 66.360383 
L 103.062333 66.327386 
L 103.150167 66.318947 
L 103.165667 66.369412 
L 103.362 66.472977 
L 103.186333 66.335259 
L 103.372333 66.442789 
L 103.424 66.341888 
L 103.475667 66.475532 
L 103.491167 66.503288 
L 103.506667 66.434661 
L 103.579 66.438859 
L 103.852833 66.402304 
L 103.868333 66.412602 
L 103.987167 66.287434 
L 104.126667 66.400737 
L 104.235167 66.364859 
L 104.147333 66.415691 
L 104.2455 66.371419 
L 104.328167 66.390138 
L 104.271333 66.414971 
L 104.3385 66.421873 
L 104.4315 66.453807 
L 104.447 66.428746 
L 104.560667 66.427283 
L 104.565833 66.435175 
L 104.669167 66.514655 
L 104.700167 66.479984 
L 104.798333 66.496051 
L 104.746667 66.558513 
L 104.8035 66.511016 
L 104.901667 66.498422 
L 104.917167 66.485752 
L 105.046333 66.362841 
L 105.072167 66.360721 
L 105.108333 66.305866 
L 105.123833 66.297186 
L 105.2685 66.208943 
L 106.1365 66.294995 
L 106.188167 66.278461 
L 106.203667 66.313666 
L 106.239833 66.322255 
L 106.327667 66.311622 
L 106.255333 66.302074 
L 106.348333 66.274966 
L 106.4 66.197089 
L 106.462 66.248708 
L 106.839167 66.297384 
L 106.885667 66.259024 
L 106.937333 66.349679 
L 106.968333 66.349813 
L 107.009667 66.26726 
L 107.025167 66.28216 
L 107.040667 66.27636 
L 107.056167 66.196478 
L 107.071667 66.189613 
L 107.0975 66.133384 
L 107.138833 66.218997 
L 107.1905 66.159783 
L 107.257667 66.203879 
L 107.304167 66.168544 
L 107.324833 66.161159 
L 107.366167 66.252119 
L 107.371333 66.278711 
L 107.459167 66.197014 
L 107.4695 66.211535 
L 107.795 66.131006 
L 107.851833 66.190585 
L 107.919 66.141061 
L 108.198 66.10376 
L 108.3685 66.213298 
L 108.513167 66.309012 
L 108.528667 66.260063 
L 108.626833 66.236228 
L 108.544167 66.295858 
L 108.652667 66.249978 
L 108.7405 66.321908 
L 108.776667 66.262017 
L 108.8645 66.244369 
L 108.874833 66.284613 
L 108.885167 66.331575 
L 108.9885 66.305834 
L 109.029833 66.241608 
L 109.117667 66.316076 
L 109.246833 66.221826 
L 109.458667 66.287374 
L 109.572333 66.341875 
L 109.603333 66.305533 
L 109.629167 66.268279 
L 109.680833 66.335606 
L 109.706667 66.334537 
L 109.804833 66.397084 
L 109.722167 66.306625 
L 109.841 66.368413 
L 109.851333 66.323209 
L 109.928833 66.444966 
L 109.939167 66.429995 
L 109.985667 66.328137 
L 110.052833 66.373894 
L 110.114833 66.281096 
L 110.161333 66.231507 
L 110.192333 66.318884 
L 110.233667 66.277144 
L 111.163667 66.367275 
L 111.174 66.363657 
L 111.2825 66.406468 
L 111.339333 66.317831 
L 111.385833 66.416301 
L 111.726833 67.642925 
L 111.732 67.635652 
L 111.850833 67.778889 
L 112.155667 68.518589 
L 112.176333 68.4941 
L 112.3365 68.478833 
L 112.352 68.529075 
L 112.620667 68.863047 
L 112.791167 68.70662 
L 112.796333 68.712656 
L 112.904833 68.766256 
L 113.008167 68.781047 
L 112.946167 68.757185 
L 113.0185 68.778058 
L 113.178667 68.848772 
L 113.261333 68.902092 
L 113.292333 68.867609 
L 113.4215 68.760074 
L 113.4525 68.841238 
L 113.509333 68.770816 
L 113.561 68.830166 
L 113.597167 68.903205 
L 113.674667 68.873381 
L 113.834833 68.940817 
L 113.850333 68.929444 
L 114.077667 68.79185 
L 113.871 68.951596 
L 114.088 68.825044 
L 114.201667 68.909696 
L 114.243 68.840142 
L 114.3515 68.836442 
L 114.356667 68.842449 
L 114.408333 68.871913 
L 114.367 68.834273 
L 114.465167 68.815784 
L 114.470333 68.805349 
L 114.501333 68.884867 
L 114.563333 68.860753 
L 114.635667 68.837948 
L 114.578833 68.834193 
L 114.646 68.814705 
L 114.728667 68.735698 
L 114.764833 68.779507 
L 115.364167 68.696216 
L 115.415833 68.647675 
L 115.4675 68.7257 
L 115.555333 68.768938 
L 115.581167 68.727394 
L 115.669 68.68696 
L 115.7 68.706564 
L 115.705167 68.721036 
L 115.741333 68.653196 
L 115.803333 68.669857 
L 116.0875 68.590146 
L 116.2115 68.555354 
L 116.402667 68.4416 
L 116.227 68.566211 
L 116.407833 68.446103 
L 116.4905 68.474007 
L 116.5215 68.454294 
L 116.624833 68.408261 
L 116.640333 68.431777 
L 116.810833 68.38253 
L 116.878 68.265975 
L 116.94 68.308694 
L 117.027833 68.184298 
L 117.0795 68.229281 
L 117.198333 68.252767 
L 117.2035 68.238126 
L 117.219 68.254616 
L 117.368833 68.084441 
L 117.818333 67.86074 
L 117.8235 67.868842 
L 117.875167 67.888842 
L 117.8545 67.844987 
L 117.926833 67.829733 
L 118.035333 67.832821 
L 117.999167 67.878365 
L 118.0405 67.839233 
L 118.149 67.946176 
L 118.169667 67.884629 
L 118.190333 67.909589 
L 118.283333 67.878849 
L 118.391833 67.81746 
L 118.464167 67.694622 
L 118.515833 67.756943 
L 118.608833 67.810982 
L 118.552 67.74142 
L 118.6295 67.777622 
L 118.918833 67.853326 
L 118.924 67.844522 
L 119.058333 67.625174 
L 119.084167 67.66855 
L 119.208167 67.773353 
L 119.265 67.683899 
L 119.332167 67.737148 
L 119.409667 67.826988 
L 119.451 67.798578 
L 119.575 67.635475 
L 119.580167 67.666625 
L 119.7145 67.545369 
L 119.735167 67.570806 
L 119.771333 67.493227 
L 119.854 67.58022 
L 119.895333 67.597244 
L 119.9935 67.521402 
L 120.060667 67.526321 
L 120.034833 67.489192 
L 120.081333 67.478194 
L 120.122667 67.420386 
L 120.195 67.463891 
L 120.324167 67.480053 
L 120.329333 67.49289 
L 120.386167 67.428124 
L 120.417167 67.41735 
L 120.525667 67.415861 
L 120.530833 67.439507 
L 120.546333 67.412861 
L 120.66 67.470234 
L 120.716833 67.46824 
L 120.691 67.497409 
L 120.758167 67.520168 
L 120.882167 67.538944 
L 121.037167 67.522584 
L 121.042333 67.53583 
L 121.2335 67.642069 
L 121.243833 67.612667 
L 121.336833 67.656241 
L 121.321333 67.694598 
L 121.342 67.663471 
L 121.383333 67.641329 
L 121.4505 67.663649 
L 121.693333 67.494795 
L 122.607833 66.999544 
L 122.644 66.960938 
L 122.716333 66.999913 
L 122.742167 66.938214 
L 122.804167 66.926378 
L 122.850667 66.993365 
L 122.933333 66.921285 
L 123.165833 67.062665 
L 123.171 67.04263 
L 123.196833 67.029076 
L 123.222667 67.095434 
L 123.264 67.103866 
L 123.289833 67.132099 
L 123.320833 67.050996 
L 123.336333 67.054093 
L 123.455167 66.985235 
L 123.6825 67.13226 
L 123.687667 67.106728 
L 123.739333 67.139178 
L 123.842667 67.005494 
L 124.008 67.093555 
L 124.013167 67.088886 
L 124.1165 67.131233 
L 124.137167 67.075846 
L 124.287 66.940117 
L 124.292167 66.951771 
L 124.3645 66.965293 
L 124.328333 66.920752 
L 124.374833 66.957683 
" style="fill:none;stroke:#000000;stroke-linecap:square;stroke-width:0.3;"/>
   </g>
   <g id="line2d_4">
    <path clip-path="url(#pd02f9651cc)" d="M 103.196667 10.165091 
L 123.822 10.165091 
" style="fill:none;stroke:#000000;stroke-linecap:square;"/>
   </g>
   <g id="line2d_5">
    <path clip-path="url(#pd02f9651cc)" d="M 124.38 17.663464 
L 124.38 10.315058 
" style="fill:none;stroke:#000000;stroke-linecap:square;"/>
   </g>
  </g>
 </g>
 <defs>
  <clipPath id="pd02f9651cc">
   <rect height="65.232" width="122.76" x="7.2" y="7.2"/>
  </clipPath>
 </defs>
</svg>
