<?xml version="1.0" encoding="utf-8" standalone="no"?>
<!DOCTYPE svg PUBLIC "-//W3C//DTD SVG 1.1//EN"
  "http://www.w3.org/Graphics/SVG/1.1/DTD/svg11.dtd">
<!-- Created with matplotlib (https://matplotlib.org/) -->
<svg height="79.632pt" version="1.1" viewBox="0 0 137.16 79.632" width="137.16pt" xmlns="http://www.w3.org/2000/svg" xmlns:xlink="http://www.w3.org/1999/xlink">
 <metadata>
  <rdf:RDF xmlns:cc="http://creativecommons.org/ns#" xmlns:dc="http://purl.org/dc/elements/1.1/" xmlns:rdf="http://www.w3.org/1999/02/22-rdf-syntax-ns#">
   <cc:Work>
    <dc:type rdf:resource="http://purl.org/dc/dcmitype/StillImage"/>
    <dc:date>2021-01-26T17:21:08.927289</dc:date>
    <dc:format>image/svg+xml</dc:format>
    <dc:creator>
     <cc:Agent>
      <dc:title>Matplotlib v3.3.2, https://matplotlib.org/</dc:title>
     </cc:Agent>
    </dc:creator>
   </cc:Work>
  </rdf:RDF>
 </metadata>
 <defs>
  <style type="text/css">*{stroke-linecap:butt;stroke-linejoin:round;}</style>
 </defs>
 <g id="figure_1">
  <g id="patch_1">
   <path d="M 0 79.632 
L 137.16 79.632 
L 137.16 0 
L 0 0 
z
" style="fill:none;"/>
  </g>
  <g id="axes_1">
   <g id="patch_2">
    <path d="M 7.2 72.432 
L 129.96 72.432 
L 129.96 7.2 
L 7.2 7.2 
z
" style="fill:none;"/>
   </g>
   <g id="matplotlib.axis_1"/>
   <g id="matplotlib.axis_2"/>
   <g id="line2d_1">
    <path clip-path="url(#pf546525c2b)" d="M 12.78 25.808216 
L 12.898833 25.724746 
L 12.955667 25.627855 
L 13.022833 25.686588 
L 13.095167 25.735231 
L 13.131333 25.670281 
L 13.219167 25.701805 
L 13.250167 25.680502 
L 13.369 25.625093 
L 13.379333 25.64086 
L 13.420667 25.681047 
L 13.487833 25.618735 
L 13.518833 25.594069 
L 13.529167 25.540127 
L 13.637667 25.403926 
L 13.653167 25.436999 
L 13.777167 25.471207 
L 13.834 25.41328 
L 13.885667 25.474701 
L 14.133667 25.584618 
L 14.3145 25.692429 
L 14.144 25.575362 
L 14.319667 25.672881 
L 14.417833 25.658411 
L 14.428167 25.683029 
L 14.516 25.686452 
L 14.5005 25.645268 
L 14.5315 25.639074 
L 14.541833 25.627228 
L 14.753667 25.718805 
L 14.867333 25.671635 
L 14.877667 25.679208 
L 14.888 25.70353 
L 14.924167 25.63758 
L 14.981 25.64886 
L 15.037833 25.628131 
L 15.074 25.688191 
L 15.229 25.856997 
L 15.270333 25.818513 
L 15.3375 25.869392 
L 15.730167 25.867223 
L 15.911 25.750509 
L 15.916167 25.766284 
L 15.947167 25.686461 
L 16.014333 25.723991 
L 16.029833 25.671773 
L 16.1125 25.779225 
L 16.117667 25.766058 
L 16.246833 25.72597 
L 16.262333 25.769029 
L 16.381167 25.810306 
L 16.386333 25.789345 
L 16.531 25.744712 
L 16.649833 25.792057 
L 16.655 25.771495 
L 16.7325 25.833306 
L 16.779 25.782408 
L 16.9495 25.572635 
L 17.213 25.362341 
L 17.3215 25.314459 
L 17.326667 25.324156 
L 17.4455 25.426868 
L 17.450667 25.415548 
L 17.4765 25.436506 
L 17.574667 25.390589 
L 17.621167 25.321345 
L 17.750333 25.451802 
L 17.869167 25.380208 
L 17.962167 25.278791 
L 17.884667 25.387916 
L 17.993167 25.346904 
L 18.013833 25.388136 
L 18.044833 25.307148 
L 18.101667 25.338378 
L 18.1275 25.274028 
L 18.215333 25.292235 
L 18.349667 25.250437 
L 18.241167 25.331724 
L 18.365167 25.276686 
L 18.453 25.321182 
L 18.494333 25.271478 
L 18.5615 25.360815 
L 18.597667 25.298936 
L 18.618333 25.348197 
L 18.695833 25.269456 
L 18.706167 25.284731 
L 18.799167 25.286008 
L 18.757833 25.308889 
L 18.814667 25.307256 
L 18.835333 25.325204 
L 18.9025 25.23606 
L 18.907667 25.247541 
L 19.563833 24.81107 
L 19.574167 24.841114 
L 19.636167 24.756756 
L 19.693 24.694499 
L 19.755 24.75566 
L 19.91 24.82536 
L 19.930667 24.78092 
L 20.152833 24.701104 
L 20.1735 24.734901 
L 20.524833 25.024754 
L 20.586833 24.911446 
L 20.7935 24.942018 
L 20.958833 24.938021 
L 21.082833 24.886794 
L 21.005333 24.963599 
L 21.088 24.911333 
L 21.206833 24.996129 
L 21.212 24.982265 
L 21.558167 24.921326 
L 21.563333 24.908782 
L 21.625333 25.041635 
L 21.863 25.05652 
L 21.961167 24.949792 
L 21.873333 25.069517 
L 22.012833 25.006237 
L 22.183333 24.913287 
L 22.1885 24.89653 
L 22.271167 24.97496 
L 22.286667 24.952414 
L 22.359 24.849392 
L 22.441667 24.759007 
L 22.483 24.772358 
L 22.6845 24.678411 
L 22.793 24.663029 
L 22.803333 24.679469 
L 22.911833 24.658045 
L 22.875667 24.619074 
L 22.917 24.653964 
L 23.206333 24.501039 
L 23.309667 24.491731 
L 23.268333 24.525207 
L 23.314833 24.505838 
L 23.345833 24.535182 
L 23.418167 24.479808 
L 23.816 24.02027 
L 24.074333 21.950977 
L 24.095 10.166367 
L 24.198333 17.657401 
L 24.291333 23.966342 
L 24.410167 23.736526 
L 24.735667 23.044402 
L 24.787333 22.108841 
L 24.813167 10.960749 
L 24.921667 19.648363 
L 24.973333 24.283108 
L 25.097333 23.874879 
L 25.3195 23.277992 
L 25.324667 23.28265 
L 25.345333 23.162025 
L 25.397 22.540003 
L 25.417667 18.869461 
L 25.428 10.945021 
L 25.526167 18.727703 
L 25.593333 24.752565 
L 25.727667 24.130542 
L 26.073833 22.771414 
L 26.099667 20.282374 
L 26.115167 10.741604 
L 26.208167 18.408781 
L 26.275333 25.063091 
L 26.42 24.321935 
L 26.668 23.738487 
L 26.905667 23.610396 
L 26.926333 23.665686 
L 27.133 24.044162 
L 27.313833 24.354186 
L 27.3345 24.329861 
L 27.381 24.440044 
L 27.587667 24.863545 
L 27.592833 24.857588 
L 27.649667 24.843965 
L 27.6135 24.884464 
L 27.680667 24.910515 
L 27.9855 25.675032 
L 27.990667 25.667107 
L 28.032 25.794993 
L 28.249 26.08139 
L 28.269667 26.066853 
L 28.285167 26.067609 
L 28.3265 26.169175 
L 28.486667 26.491023 
L 28.491833 26.486851 
L 28.533167 26.590616 
L 28.538333 26.582598 
L 28.6365 26.662463 
L 28.548667 26.569882 
L 28.672667 26.605397 
L 28.703667 26.596343 
L 28.7295 26.73304 
L 29.024 27.122105 
L 29.044667 27.09933 
L 29.111833 27.214817 
L 29.370167 27.426344 
L 29.478667 27.490784 
L 29.421833 27.403035 
L 29.489 27.469561 
L 29.52 27.477902 
L 29.499333 27.487389 
L 29.540667 27.539355 
L 29.669833 27.689871 
L 29.680167 27.677994 
L 29.7525 27.688215 
L 29.737 27.716303 
L 29.773167 27.728029 
L 30.0005 27.885003 
L 30.052167 27.9222 
L 30.1245 27.891342 
L 30.227833 27.971481 
L 30.2485 27.918727 
L 30.393167 27.794897 
L 30.419 27.81281 
L 30.6515 27.929292 
L 30.661833 27.898031 
L 30.703167 27.803083 
L 30.7755 27.897091 
L 30.915 27.827434 
L 30.9305 27.841027 
L 30.997667 27.825856 
L 31.0235 27.782817 
L 31.028667 27.77317 
L 31.0855 27.858533 
L 31.111333 27.841945 
L 31.219833 27.834388 
L 31.126833 27.809156 
L 31.225 27.830494 
L 31.287 27.778219 
L 31.250833 27.857836 
L 31.338667 27.833105 
L 31.400667 27.968969 
L 31.483333 27.942967 
L 31.560833 27.985817 
L 31.514333 28.004084 
L 31.571167 27.997565 
L 31.659 28.129323 
L 31.695167 28.051955 
L 31.7675 28.017629 
L 31.808833 28.032882 
L 32.1705 27.823895 
L 32.191167 27.879586 
L 32.284167 27.90416 
L 32.227333 27.832957 
L 32.304833 27.881342 
L 32.428833 27.821952 
L 32.547667 27.893498 
L 32.563167 27.885035 
L 32.687167 27.750168 
L 32.718167 27.786516 
L 32.749167 27.815097 
L 32.7285 27.814208 
L 32.775 27.881964 
L 32.904167 27.923427 
L 32.924833 27.928261 
L 32.950667 27.987086 
L 32.992 27.984991 
L 33.043667 27.971963 
L 33.0695 27.911142 
L 33.079833 27.919272 
L 33.141833 27.795884 
L 33.203833 27.858981 
L 33.5035 27.710472 
L 33.519 27.745203 
L 33.570667 27.609856 
L 33.643 27.555503 
L 33.694667 27.606087 
L 33.772167 27.601774 
L 33.787667 27.556751 
L 33.8445 27.587958 
L 33.9065 27.537017 
L 34.087333 27.597851 
L 34.097667 27.559695 
L 34.180333 27.641906 
L 34.195833 27.605389 
L 34.221667 27.656762 
L 34.2785 27.526967 
L 34.283667 27.529676 
L 34.459333 27.435239 
L 34.469667 27.449429 
L 34.511 27.459419 
L 34.547167 27.393224 
L 34.6815 27.260762 
L 34.686667 27.265465 
L 34.955333 27.292222 
L 35.131 27.152057 
L 35.141333 27.169282 
L 35.218833 27.159406 
L 35.244667 27.122946 
L 35.978333 26.938387 
L 35.988667 26.953846 
L 36.055833 26.860256 
L 36.1075 26.803972 
L 36.164333 26.867757 
L 36.221167 26.920302 
L 36.283167 26.881117 
L 36.2935 26.900776 
L 36.3555 26.793822 
L 36.365833 26.803048 
L 36.422667 26.73864 
L 36.4795 26.807383 
L 36.495 26.802999 
L 36.593167 26.82369 
L 36.6035 26.774548 
L 36.691333 26.855282 
L 36.6965 26.846211 
L 36.701667 26.858478 
L 36.774 26.762859 
L 36.9445 26.547124 
L 36.954833 26.566126 
L 37.058167 26.604852 
L 37.016833 26.504828 
L 37.0685 26.566471 
L 37.208 26.617638 
L 37.213167 26.63781 
L 37.275167 26.55698 
L 37.306167 26.596544 
L 37.342333 26.551784 
L 37.3785 26.652224 
L 37.4095 26.638428 
L 37.430167 26.603251 
L 37.507667 26.686101 
L 37.528333 26.721714 
L 37.5955 26.629453 
L 37.616167 26.670127 
L 37.704 26.62717 
L 37.729833 26.65813 
L 38.101833 26.748097 
L 38.241333 26.644658 
L 38.293 26.706965 
L 38.355 26.658154 
L 38.406667 26.666298 
L 38.365333 26.64548 
L 38.448 26.598369 
L 38.566833 26.585118 
L 38.582333 26.542083 
L 38.752833 26.539966 
L 38.861333 26.497923 
L 38.8665 26.487663 
L 38.975 26.491508 
L 38.980167 26.515848 
L 39.078333 26.591718 
L 39.109333 26.54847 
L 39.228167 26.497931 
L 39.326333 26.568304 
L 39.243667 26.480708 
L 39.357333 26.508031 
L 39.533 26.445346 
L 39.538167 26.460129 
L 39.879167 26.249559 
L 39.998 26.305004 
L 40.0135 26.275702 
L 40.091 26.232998 
L 40.029 26.289858 
L 40.116833 26.296778 
L 40.189167 26.36812 
L 40.2305 26.305912 
L 40.3235 26.285666 
L 40.2615 26.340456 
L 40.344167 26.309899 
L 40.375167 26.359918 
L 40.432 26.283797 
L 40.457833 26.321313 
L 40.525 26.283858 
L 40.566333 26.334648 
L 40.581833 26.413516 
L 40.674833 26.337207 
L 40.736833 26.267284 
L 40.793667 26.323784 
L 40.886667 26.305485 
L 40.8195 26.291646 
L 40.897 26.287765 
L 41.000333 26.291351 
L 41.010667 26.308985 
L 41.083 26.370304 
L 41.119167 26.30884 
L 41.796 26.156338 
L 41.9045 26.247803 
L 41.92 26.207128 
L 42.1835 25.999584 
L 42.199 26.022794 
L 42.3075 26.067851 
L 42.343667 26.016822 
L 42.483167 25.870815 
L 42.488333 25.873994 
L 42.514167 25.926454 
L 42.5555 25.817245 
L 42.5865 25.833791 
L 42.720833 25.801076 
L 42.943 25.630525 
L 43.0205 25.570843 
L 43.0515 25.630261 
L 43.061833 25.672025 
L 43.108333 25.590291 
L 43.154833 25.59066 
L 43.180667 25.556323 
L 43.227167 25.623205 
L 43.263333 25.597827 
L 43.366667 25.625177 
L 43.309833 25.570515 
L 43.377 25.618017 
L 43.4855 25.580278 
L 43.495833 25.612781 
L 44.219167 25.747903 
L 44.224333 25.730527 
L 44.286333 25.599992 
L 44.343167 25.696341 
L 44.3845 25.729989 
L 44.431 25.653372 
L 44.456833 25.693099 
L 44.622167 25.709998 
L 44.637667 25.683375 
L 44.689333 25.734476 
L 44.772 25.643221 
L 44.916667 25.759597 
L 44.792667 25.595696 
L 44.952833 25.694138 
L 44.989 25.633554 
L 45.061333 25.710181 
L 45.340333 25.781271 
L 45.350667 25.761948 
L 45.428167 25.816979 
L 45.474667 25.732726 
L 45.567667 25.793127 
L 45.598667 25.74935 
L 45.758833 25.73373 
L 45.764 25.720737 
L 46.0585 25.630745 
L 45.774333 25.736625 
L 46.063667 25.640141 
L 46.239333 25.808521 
L 46.26 25.758952 
L 46.3685 25.630101 
L 46.384 25.659299 
L 46.539 25.747489 
L 46.704333 25.667751 
L 46.606167 25.827174 
L 46.7095 25.675544 
L 46.7405 25.744431 
L 46.818 25.685922 
L 46.921333 25.636186 
L 46.8955 25.700991 
L 46.936833 25.642067 
L 47.014333 25.602376 
L 47.040167 25.649517 
L 47.153833 25.729668 
L 47.159 25.708301 
L 47.246833 25.621292 
L 47.277833 25.650847 
L 47.417333 25.620552 
L 47.489667 25.525433 
L 47.536167 25.618934 
L 47.727333 25.603607 
L 47.779 25.647457 
L 47.835833 25.590404 
L 48.1045 25.44293 
L 48.145833 25.395779 
L 48.213 25.462998 
L 48.368 25.414102 
L 48.373167 25.439967 
L 48.440333 25.425954 
L 48.404167 25.407406 
L 48.461 25.373216 
L 48.698667 25.337785 
L 48.714167 25.377852 
L 48.750333 25.32387 
L 48.812333 25.347676 
L 48.926 25.338911 
L 48.962167 25.272746 
L 49.039667 25.324205 
L 49.1275 25.262057 
L 49.05 25.339664 
L 49.168833 25.296016 
L 49.194667 25.276528 
L 49.318667 25.412351 
L 49.334167 25.388168 
L 49.370333 25.460597 
L 49.4065 25.463115 
L 49.509833 25.498985 
L 49.478833 25.448126 
L 49.520167 25.470141 
L 49.788833 25.502934 
L 49.819833 25.547156 
L 49.912833 25.439784 
L 50.042 25.474901 
L 50.0575 25.440912 
L 50.083333 25.415021 
L 50.098833 25.462734 
L 50.166 25.446675 
L 50.2745 25.532127 
L 50.191833 25.425087 
L 50.29 25.529101 
L 50.372667 25.583441 
L 50.315833 25.508953 
L 50.414 25.533134 
L 50.450167 25.530438 
L 50.486333 25.607598 
L 50.569 25.598226 
L 50.527667 25.562293 
L 50.579333 25.544345 
L 50.594833 25.512851 
L 50.641333 25.615686 
L 50.651667 25.618646 
L 50.7705 25.725576 
L 50.791167 25.707197 
L 50.91 25.630532 
L 50.920333 25.653129 
L 50.9565 25.741848 
L 51.054667 25.681865 
L 51.065 25.647933 
L 51.488667 25.788976 
L 51.633333 25.764966 
L 51.710833 25.823606 
L 51.716 25.846213 
L 51.819333 25.813619 
L 51.834833 25.872628 
L 51.969167 25.944202 
L 51.9795 25.913704 
L 52.000167 25.869423 
L 52.0725 25.98816 
L 52.082833 25.954206 
L 52.160333 25.867156 
L 52.201667 25.941375 
L 52.439333 25.99033 
L 52.558167 26.084085 
L 52.480667 25.980632 
L 52.563333 26.070749 
L 53.147167 26.112108 
L 53.152333 26.147174 
L 53.183333 26.095124 
L 53.2505 26.104389 
L 53.2815 26.022862 
L 53.359 26.110211 
L 53.519167 26.265691 
L 53.534667 26.242826 
L 53.627667 26.185267 
L 53.658667 26.248205 
L 53.756833 26.3219 
L 53.787833 26.310346 
L 53.911833 26.193204 
L 53.922167 26.210207 
L 53.927333 26.228761 
L 53.9945 26.154257 
L 54.0255 26.176352 
L 54.252833 26.309866 
L 54.258 26.340524 
L 54.314833 26.252022 
L 54.351 26.264081 
L 54.475 26.122729 
L 54.480167 26.126393 
L 54.681667 25.997267 
L 54.4905 26.144547 
L 54.686833 26.00645 
L 54.810833 26.080108 
L 55.131167 26.13276 
L 55.229333 26.018378 
L 55.275833 26.034379 
L 55.379167 26.035703 
L 55.291333 26.014422 
L 55.394667 26.010082 
L 55.647833 25.900865 
L 55.653 25.920952 
L 55.720167 25.832783 
L 55.751167 25.865617 
L 56.4125 25.712841 
L 56.459 25.639808 
L 56.541667 25.709315 
L 56.577833 25.748251 
L 56.619167 25.667568 
L 56.650167 25.705401 
L 56.707 25.753918 
L 56.6605 25.731363 
L 56.717333 25.775485 
L 56.743167 25.81996 
L 56.810333 25.707667 
L 56.924 25.629741 
L 56.949833 25.678929 
L 57.048 25.787119 
L 57.089333 25.762933 
L 57.306333 25.62395 
L 57.425167 25.740854 
L 57.476833 25.661891 
L 57.492333 25.690541 
L 57.606 25.62102 
L 57.668 25.679762 
L 57.631833 25.612416 
L 57.7145 25.618908 
L 57.879833 25.517877 
L 57.890167 25.529837 
L 58.029667 25.568 
L 58.127833 25.573109 
L 58.065833 25.633471 
L 58.143333 25.584641 
L 58.474 25.59628 
L 58.479167 25.642077 
L 58.577333 25.567713 
L 58.5825 25.571917 
L 58.696167 25.539297 
L 58.711667 25.560194 
L 58.742667 25.580676 
L 58.7685 25.650001 
L 58.773667 25.636301 
L 58.897667 25.737455 
L 58.944167 25.738329 
L 58.964833 25.798979 
L 58.9855 25.803742 
L 59.119833 25.974212 
L 59.011333 25.789788 
L 59.135333 25.937688 
L 59.290333 25.791196 
L 59.3265 25.857766 
L 59.393667 25.756438 
L 59.486667 25.721686 
L 59.517667 25.770515 
L 59.641667 25.907713 
L 59.672667 25.841887 
L 59.7295 25.83237 
L 59.7605 25.903054 
L 59.765667 25.88141 
L 59.7915 25.927637 
L 59.848333 25.834485 
L 59.874167 25.858114 
L 59.9 25.866674 
L 60.013667 25.760546 
L 60.018833 25.769982 
L 60.049833 25.698202 
L 60.096333 25.684666 
L 60.365 25.64226 
L 60.375333 25.599986 
L 60.468333 25.691091 
L 60.587167 25.691401 
L 60.514833 25.621445 
L 60.602667 25.673802 
L 60.716333 25.559679 
L 60.742167 25.571814 
L 60.819667 25.636297 
L 60.855833 25.579944 
L 60.902333 25.509087 
L 60.9695 25.555958 
L 62.049333 25.637983 
L 62.064833 25.65945 
L 62.106167 25.562761 
L 62.142333 25.57744 
L 62.157833 25.587725 
L 62.256 25.59089 
L 62.3335 25.50309 
L 62.845 25.425741 
L 62.850167 25.442178 
L 62.958667 25.615315 
L 63.010333 25.565417 
L 63.031 25.534211 
L 63.082667 25.649266 
L 63.118833 25.577296 
L 63.397833 25.680467 
L 63.537333 25.539418 
L 63.645833 25.586926 
L 63.552833 25.530816 
L 63.656167 25.555403 
L 63.744 25.482201 
L 63.775 25.489531 
L 63.8215 25.5065 
L 63.878333 25.448004 
L 64.147 25.311841 
L 64.198667 25.396889 
L 64.265833 25.34886 
L 64.276167 25.316336 
L 64.343333 25.386318 
L 64.374333 25.370412 
L 64.451833 25.395279 
L 64.389833 25.391133 
L 64.4725 25.429523 
L 64.570667 25.444715 
L 64.5035 25.414697 
L 64.591333 25.430119 
L 64.684333 25.532633 
L 64.772167 25.554714 
L 64.792833 25.51582 
L 64.8445 25.491212 
L 64.885833 25.570138 
L 64.994333 25.576475 
L 65.004667 25.555586 
L 65.056333 25.50258 
L 65.035667 25.568486 
L 65.128667 25.535359 
L 65.500667 25.360377 
L 65.531667 25.427259 
L 65.655667 25.479073 
L 65.779667 25.419544 
L 65.862333 25.464571 
L 65.8055 25.393838 
L 65.888167 25.415641 
L 65.986333 25.3677 
L 66.007 25.388924 
L 66.136167 25.500093 
L 66.151667 25.484846 
L 66.172333 25.462635 
L 66.234333 25.53044 
L 66.260167 25.496919 
L 66.528833 25.533166 
L 66.534 25.508444 
L 66.590833 25.592587 
L 66.616667 25.579693 
L 66.751 25.643221 
L 66.761333 25.608453 
L 66.8285 25.722666 
L 66.838833 25.724789 
L 66.849167 25.753333 
L 66.875 25.693046 
L 66.942167 25.69154 
L 67.1075 25.721953 
L 67.117833 25.761174 
L 67.210833 25.688626 
L 67.712 25.777893 
L 67.815333 25.812943 
L 67.794667 25.743728 
L 67.825667 25.794584 
L 67.970333 25.779285 
L 68.115 25.670221 
L 68.228667 25.660737 
L 68.171833 25.722802 
L 68.233833 25.663156 
L 68.3165 25.725265 
L 68.3475 25.702377 
L 68.445667 25.664705 
L 68.383667 25.712396 
L 68.456 25.717573 
L 68.554167 25.733359 
L 68.569667 25.700845 
L 68.6575 25.681567 
L 68.585167 25.705493 
L 68.678167 25.724313 
L 68.709167 25.685859 
L 68.766 25.798145 
L 68.776333 25.776868 
L 68.941667 25.836229 
L 68.791833 25.760436 
L 68.952 25.821892 
L 69.0295 25.725163 
L 69.143167 25.612203 
L 69.158667 25.627228 
L 69.365333 25.479752 
L 69.4635 25.658242 
L 69.515167 25.585195 
L 69.706333 25.667822 
L 69.541 25.550692 
L 69.7115 25.65976 
L 70.3935 25.469977 
L 70.409 25.423703 
L 70.476167 25.55161 
L 70.481333 25.549962 
L 70.589833 25.559531 
L 70.6105 25.514336 
L 70.677667 25.604232 
L 70.7035 25.669063 
L 70.786167 25.60414 
L 70.879167 25.646448 
L 70.8895 25.684059 
L 70.930833 25.699234 
L 70.972167 25.62432 
L 70.9825 25.636948 
L 70.987667 25.62153 
L 71.039333 25.709025 
L 71.0755 25.700787 
L 71.101333 25.724175 
L 71.1375 25.625291 
L 71.158167 25.643851 
L 71.256333 25.575302 
L 71.277 25.594092 
L 71.3235 25.652904 
L 71.3855 25.573625 
L 71.395833 25.587919 
L 71.592167 25.525956 
L 71.618 25.570922 
L 71.669667 25.473143 
L 71.6955 25.484667 
L 71.783333 25.480212 
L 71.705833 25.503392 
L 71.814333 25.522438 
L 71.824667 25.516269 
L 71.964167 25.580714 
L 71.995167 25.543084 
L 72.026167 25.632973 
L 72.0675 25.611328 
L 72.196667 25.59387 
L 72.331 25.480569 
L 72.336167 25.484403 
L 72.444667 25.462347 
L 72.362 25.462653 
L 72.449833 25.449622 
L 72.770167 25.358672 
L 72.775333 25.371668 
L 72.863167 25.438377 
L 72.894167 25.389399 
L 72.956167 25.327208 
L 72.909667 25.416313 
L 73.023333 25.40194 
L 73.157667 25.330596 
L 73.255833 25.256714 
L 73.286833 25.296844 
L 73.348833 25.306835 
L 73.302333 25.287138 
L 73.390167 25.265346 
L 73.565833 25.25593 
L 73.607167 25.163758 
L 73.6795 25.243903 
L 73.829333 25.334722 
L 74.2685 25.230738 
L 74.320167 25.281522 
L 74.387333 25.258294 
L 74.4235 25.228973 
L 74.4855 25.3165 
L 74.604333 25.247477 
L 74.614667 25.235216 
L 74.676667 25.308341 
L 74.697333 25.309728 
L 74.712833 25.298127 
L 74.847167 25.377824 
L 75.0125 25.241138 
L 74.8575 25.403463 
L 75.048667 25.265504 
L 75.162333 25.365842 
L 75.177833 25.334523 
L 75.5705 25.170637 
L 75.704833 25.246157 
L 75.808167 25.223665 
L 75.823667 25.238105 
L 75.927 25.298727 
L 75.839167 25.224161 
L 75.9425 25.27577 
L 75.968333 25.23174 
L 76.045833 25.310491 
L 76.164667 25.408987 
L 76.071667 25.299427 
L 76.175 25.387831 
L 76.2525 25.318068 
L 76.200833 25.395902 
L 76.288667 25.365501 
L 76.448833 25.289201 
L 76.552167 25.316087 
L 76.464333 25.272154 
L 76.567667 25.306043 
L 76.681333 25.168434 
L 76.702 25.217729 
L 76.8415 25.158216 
L 76.722667 25.24514 
L 76.846667 25.177374 
L 77.012 25.259553 
L 77.043 25.222512 
L 77.125667 25.125462 
L 77.172167 25.172866 
L 77.270333 25.213653 
L 77.223833 25.159544 
L 77.285833 25.197524 
L 77.3375 25.255434 
L 77.394333 25.197281 
L 77.4925 25.222613 
L 77.466667 25.157365 
L 77.508 25.214099 
L 77.549333 25.274726 
L 77.606167 25.252101 
L 77.694 25.184577 
L 77.719833 25.243104 
L 77.807667 25.260729 
L 77.745667 25.194545 
L 77.849 25.218723 
L 77.942 25.13908 
L 78.009167 25.204025 
L 78.097 25.060214 
L 78.122833 25.071681 
L 78.1435 25.020331 
L 78.200333 25.032653 
L 78.293333 24.954204 
L 78.210667 25.047756 
L 78.324333 25.017265 
L 78.4845 25.139391 
L 78.582667 25.070872 
L 78.613667 25.092698 
L 78.717 25.006775 
L 78.7635 25.040985 
L 78.985667 25.089216 
L 78.996 25.055219 
L 79.058 25.028498 
L 79.0115 25.088853 
L 79.099333 25.095654 
L 79.145833 25.089338 
L 79.187167 25.143766 
L 79.295667 25.152146 
L 79.2285 25.090748 
L 79.300833 25.14574 
L 79.616 25.14662 
L 79.745167 24.986944 
L 79.7555 25.016858 
L 79.900167 24.905344 
L 80.05 24.867369 
L 80.070667 24.837176 
L 80.122333 24.912168 
L 80.148167 24.911177 
L 80.194667 24.945132 
L 80.2515 24.864992 
L 80.292833 24.904056 
L 80.329 24.827732 
L 80.349667 24.832817 
L 80.484 24.750256 
L 80.675167 24.64888 
L 80.773333 24.668237 
L 80.711333 24.612039 
L 80.783667 24.653568 
L 80.9025 24.640142 
L 80.912833 24.666819 
L 80.9955 24.572605 
L 81.005833 24.598243 
L 81.135 24.497734 
L 81.036833 24.613446 
L 81.1505 24.52893 
L 81.166 24.552092 
L 81.238333 24.47759 
L 81.248667 24.487844 
L 81.403667 24.326473 
L 81.414 24.340136 
L 81.4295 24.257097 
L 81.465667 24.234797 
L 81.5845 24.156214 
L 81.594833 24.183796 
L 81.605167 24.216978 
L 81.687833 24.103826 
L 81.972 23.044751 
L 81.997833 21.738357 
L 82.0185 10.165091 
L 82.116667 17.400907 
L 82.209667 23.922494 
L 82.333667 23.668101 
L 82.338833 23.678063 
L 82.385333 23.560658 
L 82.395667 23.567651 
L 82.659167 22.435108 
L 82.679833 17.428858 
L 82.690167 11.083235 
L 82.788333 19.04648 
L 82.850333 24.262889 
L 82.984667 23.783998 
L 83.222333 23.008669 
L 83.263667 21.811314 
L 83.284333 10.992457 
L 83.3825 18.913602 
L 83.4445 24.707394 
L 83.584 24.062701 
L 83.5995 24.006055 
L 83.604667 23.954263 
L 83.873333 22.833812 
L 83.899167 21.541298 
L 83.919833 10.858679 
L 84.012833 18.487285 
L 84.08 25.082602 
L 84.224667 24.327335 
L 84.415833 23.7347 
L 84.767167 22.524611 
L 84.787833 17.566752 
L 84.798167 10.593505 
L 84.896333 18.619903 
L 84.9635 25.053868 
L 85.097833 24.362196 
L 85.314833 23.870637 
L 85.500833 24.167951 
L 85.6765 24.43085 
L 85.795333 24.705118 
L 86.095 25.52938 
L 86.100167 25.522966 
L 86.281 25.967403 
L 86.4515 26.41786 
L 86.456667 26.416044 
L 86.818333 27.267922 
L 86.952667 27.443302 
L 86.983667 27.473589 
L 86.968167 27.435242 
L 87.066333 27.453102 
L 87.200667 27.696983 
L 87.479667 28.174966 
L 87.484833 28.164842 
L 87.7535 28.354174 
L 87.495167 28.140877 
L 87.779333 28.31297 
L 87.805167 28.288884 
L 87.856833 28.367326 
L 87.887833 28.329686 
L 88.146167 28.565639 
L 88.2805 28.634799 
L 88.1875 28.51247 
L 88.285667 28.626647 
L 88.4355 28.66311 
L 88.451 28.643956 
L 88.554333 28.547874 
L 88.580167 28.58425 
L 88.699 28.625067 
L 88.833333 28.516531 
L 88.843667 28.526922 
L 88.957333 28.584157 
L 88.972833 28.551102 
L 89.071 28.524706 
L 88.998667 28.583252 
L 89.096833 28.553063 
L 89.298333 28.596362 
L 89.313833 28.556845 
L 89.344833 28.580886 
L 89.432667 28.531288 
L 89.448167 28.546635 
L 89.567 28.519269 
L 89.66 28.546533 
L 89.639333 28.502703 
L 89.6755 28.513798 
L 89.815 28.490291 
L 89.691 28.529856 
L 89.8305 28.50572 
L 89.9545 28.453741 
L 89.995833 28.387357 
L 90.073333 28.410884 
L 90.0785 28.418335 
L 90.130167 28.327191 
L 90.145667 28.333281 
L 90.254167 28.248279 
L 90.269667 28.262462 
L 90.311 28.292941 
L 90.342 28.201258 
L 90.373 28.217877 
L 90.383333 28.22523 
L 90.4195 28.139164 
L 90.455667 28.147497 
L 90.502167 28.096899 
L 90.564167 28.152293 
L 90.703667 28.121161 
L 90.708833 28.102231 
L 90.8535 27.99686 
L 90.863833 28.006628 
L 90.889667 28.0117 
L 90.905167 27.936789 
L 90.920667 27.93077 
L 90.962 27.861648 
L 91.029167 27.9517 
L 91.1945 27.841956 
L 91.638833 27.560176 
L 91.664667 27.604549 
L 91.866167 27.677503 
L 91.8765 27.665097 
L 92.005667 27.448761 
L 92.0315 27.460856 
L 92.098667 27.38235 
L 92.289833 27.170791 
L 92.300167 27.177092 
L 92.3105 27.218006 
L 92.377667 27.134667 
L 92.408667 27.167416 
L 92.460333 27.173679 
L 92.444833 27.130404 
L 92.501667 27.115192 
L 92.636 26.983274 
L 92.641167 26.994138 
L 92.646333 27.001224 
L 92.708333 26.901514 
L 93.0855 26.935244 
L 93.2095 26.910215 
L 93.235333 26.857149 
L 93.281833 26.943633 
L 93.312833 26.938192 
L 93.405833 26.864674 
L 93.514333 26.713648 
L 93.5505 26.723997 
L 93.576333 26.763655 
L 93.659 26.6812 
L 93.7675 26.624371 
L 93.834667 26.499589 
L 93.8915 26.587957 
L 94.1085 26.581449 
L 94.129167 26.620763 
L 94.222167 26.592992 
L 94.547667 26.51901 
L 94.671667 26.443292 
L 94.676833 26.448045 
L 94.687167 26.478264 
L 94.7285 26.425167 
L 94.785333 26.427336 
L 95.095333 26.427043 
L 95.203833 26.363146 
L 95.152167 26.445387 
L 95.214167 26.382293 
L 95.343333 26.437507 
L 95.229667 26.357357 
L 95.364 26.38885 
L 95.5035 26.227634 
L 95.529333 26.263417 
L 95.637833 26.284529 
L 95.539667 26.254021 
L 95.653333 26.253646 
L 95.901333 26.176093 
L 95.9065 26.201735 
L 96.846833 26.092506 
L 96.888167 26.15376 
L 96.945 26.064978 
L 96.9605 26.007526 
L 97.007 26.112242 
L 97.063833 26.043244 
L 97.167167 26.066799 
L 97.182667 26.050741 
L 97.280833 25.940632 
L 97.317 25.996228 
L 97.621833 26.120062 
L 97.632167 26.098099 
L 97.745833 25.987653 
L 97.647667 26.101749 
L 97.761333 26.005595 
L 97.7665 26.030515 
L 97.854333 25.920997 
L 97.906 25.877002 
L 97.885333 25.949142 
L 97.962833 25.942039 
L 98.050667 25.904222 
L 98.0145 25.958113 
L 98.071333 25.936114 
L 98.174667 26.040332 
L 98.195333 25.996351 
L 98.236667 26.071297 
L 98.319333 25.965806 
L 99.084 25.894777 
L 99.115 25.916929 
L 99.202833 25.856685 
L 99.275167 25.847513 
L 99.2235 25.836091 
L 99.301 25.812525 
L 99.388833 25.75891 
L 99.430167 25.822795 
L 99.709167 25.732538 
L 99.848667 25.604691 
L 99.853833 25.622231 
L 99.9675 25.752993 
L 99.988167 25.745139 
L 99.993333 25.735164 
L 100.045 25.866107 
L 100.194833 25.902723 
L 100.2 25.897021 
L 100.344667 25.749836 
L 100.4635 25.822257 
L 100.561667 25.839962 
L 100.566833 25.856296 
L 100.613333 25.905083 
L 100.6805 25.870691 
L 100.814833 25.808963 
L 100.882 25.696948 
L 100.938833 25.755952 
L 100.949167 25.766654 
L 100.975 25.700346 
L 101.000833 25.67429 
L 101.124833 25.577397 
L 101.13 25.590136 
L 101.150667 25.629972 
L 101.192 25.572903 
L 101.2385 25.576531 
L 101.419333 25.450556 
L 101.254 25.594837 
L 101.44 25.479147 
L 101.589833 25.628615 
L 101.595 25.625131 
L 101.863667 25.722207 
L 101.936 25.658205 
L 101.977333 25.697248 
L 102.111667 25.790408 
L 102.122 25.781005 
L 102.256333 25.781875 
L 102.344167 25.844543 
L 102.37 25.801611 
L 102.494 25.866332 
L 102.504333 25.845577 
L 102.612833 25.874264 
L 102.618 25.857369 
L 102.742 25.784192 
L 102.752333 25.787569 
L 102.8815 25.914426 
L 102.897 25.891268 
L 102.917667 25.871568 
L 102.979667 25.949912 
L 102.984833 25.949753 
L 103.072667 25.966635 
L 103.0985 25.950806 
L 103.103667 25.931699 
L 103.124333 25.989381 
L 103.201833 25.987563 
L 103.434333 25.869446 
L 103.465333 25.889716 
L 103.527333 25.825152 
L 103.573833 25.738061 
L 103.646167 25.785726 
L 103.7495 25.751029 
L 103.6565 25.810751 
L 103.765 25.765577 
L 103.8115 25.72213 
L 103.878667 25.739888 
L 103.982 25.740321 
L 103.992333 25.709682 
L 104.379833 25.663508 
L 104.467667 25.594389 
L 104.509 25.626138 
L 104.658833 25.5442 
L 104.529667 25.656935 
L 104.695 25.601146 
L 104.777667 25.647621 
L 104.798333 25.579394 
L 104.8035 25.566713 
L 104.813833 25.617989 
L 104.886167 25.630443 
L 104.912 25.663993 
L 104.979167 25.548535 
L 105.222 25.381915 
L 105.232333 25.413407 
L 105.242667 25.385479 
L 105.371833 25.416264 
L 105.511333 25.33353 
L 105.526833 25.343948 
L 105.676667 25.476951 
L 105.687 25.468545 
L 105.821333 25.511169 
L 105.8265 25.529573 
L 105.935 25.548056 
L 105.945333 25.532493 
L 106.131333 25.37754 
L 106.250167 25.413431 
L 106.172667 25.328688 
L 106.255333 25.40294 
L 106.296667 25.390013 
L 106.317333 25.449203 
L 106.3535 25.450984 
L 106.71 25.418107 
L 106.735833 25.438507 
L 106.777167 25.333872 
L 106.797833 25.334763 
L 107.164667 25.629838 
L 107.195667 25.59942 
L 107.278333 25.627882 
L 107.262833 25.661096 
L 107.288667 25.660207 
L 107.4075 25.54907 
L 107.448833 25.617267 
L 107.552167 25.69684 
L 107.583167 25.631856 
L 107.634833 25.610763 
L 107.614167 25.652072 
L 107.696833 25.628457 
L 107.862167 25.574079 
L 108.006833 25.481845 
L 108.068833 25.521931 
L 108.1205 25.456862 
L 108.161833 25.526192 
L 108.234167 25.470273 
L 108.2755 25.489692 
L 108.332333 25.428763 
L 108.3995 25.384653 
L 108.342667 25.445176 
L 108.451167 25.42592 
L 108.544167 25.462872 
L 108.559667 25.436 
L 108.730167 25.405415 
L 108.735333 25.41654 
L 108.7715 25.456396 
L 108.818 25.357927 
L 108.828333 25.367747 
L 108.9265 25.431839 
L 108.978167 25.489885 
L 109.035 25.428998 
L 109.169333 25.491953 
L 109.045333 25.409171 
L 109.195167 25.408011 
L 109.324333 25.338318 
L 109.536167 25.353495 
L 109.541333 25.343942 
L 109.649833 25.333867 
L 109.593 25.390075 
L 109.655 25.340269 
L 109.841 25.263614 
L 109.9495 25.231083 
L 109.954667 25.240336 
L 109.990833 25.224555 
L 110.052833 25.282046 
L 110.0735 25.259203 
L 110.171667 25.285634 
L 110.419667 25.215635 
L 110.543667 25.212656 
L 110.812333 25.26721 
L 110.946667 25.437284 
L 111.0345 25.400407 
L 111.055167 25.458297 
L 111.143 25.504829 
L 111.168833 25.449465 
L 111.783667 25.254571 
L 111.928333 25.370543 
L 112.0575 25.415941 
L 111.990333 25.309836 
L 112.073 25.397746 
L 112.1505 25.344274 
L 112.0885 25.406736 
L 112.186667 25.395514 
L 112.2125 25.435451 
L 112.269333 25.328828 
L 112.2745 25.328337 
L 112.377833 25.270154 
L 112.3985 25.302507 
L 112.408833 25.2957 
L 112.517333 25.339456 
L 113.152833 25.616312 
L 113.168333 25.646864 
L 113.225167 25.564352 
L 113.256167 25.583629 
L 113.318167 25.527874 
L 113.375 25.561789 
L 113.473167 25.593759 
L 113.426667 25.524346 
L 113.488667 25.568376 
L 113.586833 25.610846 
L 113.617833 25.556067 
L 113.654 25.497575 
L 113.850333 25.604694 
L 113.927833 25.523692 
L 113.958833 25.601501 
L 113.974333 25.64145 
L 114.051833 25.551693 
L 114.057 25.556905 
L 114.0725 25.500402 
L 114.129333 25.580096 
L 114.1655 25.57723 
L 114.248167 25.621288 
L 114.279167 25.575387 
L 114.325667 25.584155 
L 114.356667 25.650082 
L 114.361833 25.659415 
L 114.434167 25.565141 
L 114.439333 25.586353 
L 114.547833 25.540482 
L 114.5685 25.565354 
L 114.615 25.583021 
L 114.6615 25.508626 
L 114.718333 25.440057 
L 114.764833 25.511337 
L 114.899167 25.680442 
L 114.904333 25.673749 
L 114.966333 25.644618 
L 114.914667 25.686638 
L 115.007667 25.711952 
L 115.090333 25.7511 
L 115.049 25.693386 
L 115.111 25.692124 
L 115.266 25.55983 
L 115.415833 25.51506 
L 115.291833 25.597937 
L 115.426167 25.574046 
L 115.4985 25.513207 
L 115.503667 25.494272 
L 115.6225 25.542195 
L 115.705167 25.564362 
L 115.725833 25.516033 
L 115.968667 25.516931 
L 115.973833 25.535893 
L 116.103 25.544968 
L 116.046167 25.462114 
L 116.108167 25.535134 
L 116.185667 25.512149 
L 116.216667 25.5504 
L 116.340667 25.722764 
L 116.376833 25.684362 
L 116.4595 25.595242 
L 116.500833 25.605696 
L 116.573167 25.643379 
L 116.568 25.667783 
L 116.5835 25.672964 
L 116.8005 25.621346 
L 116.94 25.578828 
L 116.950333 25.587055 
L 117.0175 25.6323 
L 116.960667 25.575777 
L 117.064 25.573489 
L 117.348167 25.631465 
L 117.446333 25.666116 
L 117.399833 25.696421 
L 117.4515 25.672683 
L 117.932 25.857945 
L 117.937167 25.874255 
L 117.999167 25.742548 
L 118.014667 25.757964 
L 118.340167 25.812406 
L 118.345333 25.823267 
L 118.4125 25.716707 
L 118.5365 25.686413 
L 118.4435 25.748257 
L 118.546833 25.707652 
L 118.6295 25.774693 
L 118.681167 25.741455 
L 118.686333 25.726168 
L 118.763833 25.81891 
L 118.825833 25.866515 
L 118.8775 25.816063 
L 119.011833 25.874856 
L 119.0945 25.932733 
L 119.027333 25.857389 
L 119.1255 25.874975 
L 119.244333 25.884785 
L 119.2495 25.864247 
L 119.259833 25.871434 
L 119.425167 25.746532 
L 119.513 25.809363 
L 119.549167 25.798089 
L 119.693833 25.692317 
L 120.133 25.546631 
L 120.153667 25.518316 
L 120.220833 25.592304 
L 120.231167 25.589839 
L 120.262167 25.538001 
L 120.298333 25.50142 
L 120.711667 25.450197 
L 120.758167 25.353502 
L 120.8305 25.438024 
L 120.856333 25.45733 
L 120.918333 25.407722 
L 120.939 25.423107 
L 121.063 25.43791 
L 121.073333 25.408243 
L 121.114667 25.326108 
L 121.197333 25.356667 
L 121.2955 25.397834 
L 121.311 25.352787 
L 121.331667 25.384445 
L 121.435 25.342634 
L 121.553833 25.399443 
L 121.719167 25.321295 
L 121.832833 25.242537 
L 121.843167 25.250724 
L 121.972333 25.314247 
L 121.858667 25.24532 
L 121.9775 25.311769 
L 122.122167 25.246522 
L 122.127333 25.252366 
L 122.246167 25.315237 
L 122.272 25.282218 
L 122.365 25.250764 
L 122.385667 25.271 
L 122.561333 25.320432 
L 122.401167 25.24563 
L 122.576833 25.282718 
L 122.602667 25.227233 
L 122.6905 25.286699 
L 122.83 25.416172 
L 123.047 25.498004 
L 123.057333 25.530157 
L 123.114167 25.411045 
L 123.129667 25.415994 
L 123.150333 25.386005 
L 123.243333 25.422051 
L 123.274333 25.429062 
L 123.331167 25.3433 
L 123.408667 25.315192 
L 123.45 25.360302 
L 123.5585 25.389277 
L 123.584333 25.331621 
L 123.5895 25.314758 
L 123.641167 25.397287 
L 123.692833 25.346577 
L 123.822 25.396443 
L 123.832333 25.363776 
L 123.9615 25.291391 
L 123.847833 25.388939 
L 123.977 25.321315 
L 124.106167 25.353041 
L 124.163 25.353802 
L 124.204333 25.400249 
L 124.374833 25.492183 
L 124.374833 25.492183 
" style="fill:none;stroke:#000000;stroke-linecap:square;stroke-width:0.3;"/>
   </g>
   <g id="line2d_2">
    <path clip-path="url(#pf546525c2b)" d="M 12.78 46.187843 
L 12.852333 46.231568 
L 12.904 46.178796 
L 12.960833 46.123588 
L 13.0125 46.179992 
L 13.121 46.109283 
L 13.503333 46.067926 
L 13.586 46.0922 
L 13.544667 46.115643 
L 13.591167 46.123479 
L 13.6015 46.170708 
L 13.673833 46.087376 
L 13.699667 46.103173 
L 13.777167 46.009809 
L 13.896 45.886631 
L 13.906333 45.909547 
L 13.958 45.964144 
L 14.025167 45.892547 
L 14.107833 45.945495 
L 14.045833 45.846345 
L 14.138833 45.89808 
L 14.479833 45.871231 
L 14.572833 45.976691 
L 14.614167 45.96258 
L 14.805333 45.947242 
L 14.8105 45.927722 
L 14.8415 45.950101 
L 14.929333 45.916095 
L 14.9965 45.998388 
L 15.053333 45.952064 
L 15.0585 45.965572 
L 15.1205 45.879734 
L 15.141167 45.883255 
L 15.161833 45.83804 
L 15.239333 45.933767 
L 15.420167 46.036968 
L 15.435667 45.994016 
L 15.477 45.923296 
L 15.549333 45.968261 
L 15.595833 45.955821 
L 15.6785 46.050628 
L 15.807667 46.041399 
L 15.823167 46.074899 
L 15.874833 46.172978 
L 15.962667 46.123275 
L 16.097 46.006548 
L 16.386333 46.161588 
L 16.489667 46.072488 
L 16.505167 46.114064 
L 16.536167 46.075011 
L 16.6085 46.152252 
L 16.81 46.156118 
L 16.923667 46.085546 
L 16.928833 46.103841 
L 17.001167 46.149398 
L 17.0425 46.139449 
L 17.1665 46.030796 
L 17.176833 46.05011 
L 17.326667 46.141159 
L 17.399 46.145611 
L 17.43 46.182969 
L 17.4765 46.238891 
L 17.517833 46.152587 
L 17.548833 46.199656 
L 17.678 46.234584 
L 17.610833 46.132754 
L 17.683167 46.231888 
L 17.719333 46.217989 
L 17.771 46.285134 
L 17.781333 46.305253 
L 17.822667 46.232047 
L 17.858833 46.220772 
L 17.993167 46.17286 
L 18.086167 46.217606 
L 18.106833 46.173383 
L 18.179167 46.166535 
L 18.199833 46.225424 
L 18.241167 46.223336 
L 18.210167 46.203156 
L 18.292833 46.166618 
L 18.494333 46.214757 
L 18.587333 46.236569 
L 18.551167 46.272409 
L 18.602833 46.244032 
L 18.639 46.2111 
L 18.757833 46.276571 
L 18.763 46.26148 
L 18.804333 46.364287 
L 18.850833 46.331105 
L 18.923167 46.425538 
L 18.985167 46.357459 
L 19.0575 46.274022 
L 19.104 46.307652 
L 19.217667 46.332888 
L 19.160833 46.281184 
L 19.228 46.319252 
L 19.362333 46.308929 
L 19.538 46.391184 
L 19.383 46.289677 
L 19.543167 46.374146 
L 20.127 46.347513 
L 20.137333 46.397927 
L 20.225167 46.332543 
L 20.240667 46.367123 
L 20.426667 46.262233 
L 20.767667 46.224087 
L 20.772833 46.187112 
L 20.850333 46.316323 
L 20.871 46.260441 
L 21.036333 46.225349 
L 21.144833 46.335466 
L 21.1655 46.306298 
L 21.201667 46.21895 
L 21.284333 46.280713 
L 21.863 46.35757 
L 21.925 46.369955 
L 21.966333 46.313276 
L 22.054167 46.231338 
L 22.116167 46.289928 
L 22.534667 47.677544 
L 22.674167 47.813776 
L 22.6845 47.788831 
L 22.7 47.79144 
L 22.731 47.873702 
L 22.886 48.115412 
L 22.896333 48.073215 
L 22.968667 48.216692 
L 22.979 48.205256 
L 23.035833 48.309261 
L 23.097833 48.261209 
L 23.196 48.149085 
L 23.221833 48.167355 
L 23.330333 48.14063 
L 23.3355 48.170196 
L 23.392333 48.197326 
L 23.438833 48.136048 
L 23.454333 48.162147 
L 23.511167 48.064784 
L 23.526667 48.084461 
L 23.635167 48.079951 
L 23.542167 48.118273 
L 23.640333 48.083566 
L 23.754 48.19189 
L 23.764333 48.186862 
L 23.929667 48.342267 
L 23.950333 48.30036 
L 24.074333 48.168752 
L 24.0795 48.210681 
L 24.1415 48.154926 
L 24.2035 48.221485 
L 24.348167 48.143424 
L 24.467 48.106988 
L 24.498 48.067625 
L 24.580667 48.101962 
L 24.678833 48.047027 
L 24.6995 48.064658 
L 24.7615 48.112221 
L 24.813167 48.07048 
L 24.932 48.021288 
L 24.8235 48.093127 
L 24.968167 48.081365 
L 25.123167 48.202032 
L 24.988833 48.070569 
L 25.128333 48.192553 
L 25.242 48.083313 
L 25.159333 48.224849 
L 25.2575 48.103726 
L 25.593333 48.0212 
L 25.707 48.175456 
L 25.7535 48.108949 
L 25.8465 48.036605 
L 25.805167 48.120925 
L 25.867167 48.045067 
L 25.872333 48.070282 
L 25.934333 47.964806 
L 25.965333 47.971209 
L 26.1565 48.01613 
L 26.161667 48.00798 
L 26.166833 47.983892 
L 26.244333 48.054396 
L 26.259833 48.038337 
L 26.285667 48.094034 
L 26.3425 48.011958 
L 26.368333 48.03185 
L 26.482 48.061146 
L 26.600833 48.187747 
L 26.611167 48.18587 
L 26.73 48.238358 
L 26.642167 48.163649 
L 26.735167 48.219618 
L 26.797167 48.116296 
L 26.848833 48.174644 
L 26.947 48.183527 
L 26.8695 48.160753 
L 26.957333 48.176879 
L 27.0555 48.119261 
L 27.076167 48.158556 
L 27.0865 48.18709 
L 27.158833 48.115034 
L 27.1795 48.136621 
L 27.298333 48.032249 
L 27.226 48.168783 
L 27.308667 48.049049 
L 27.370667 48.105301 
L 27.401667 48.021472 
L 27.422333 48.044618 
L 27.474 48.096288 
L 27.525667 48.08837 
L 27.649667 48.145463 
L 27.665167 48.114065 
L 27.866667 48.148203 
L 28.001 48.095809 
L 28.517667 48.129119 
L 28.6365 48.205983 
L 28.641667 48.199585 
L 28.7605 48.077951 
L 28.7915 48.143285 
L 28.8845 48.136235 
L 28.817333 48.115815 
L 28.9 48.118054 
L 29.034333 48.042406 
L 29.158333 47.956292 
L 29.1635 47.972299 
L 29.251333 47.97874 
L 29.272 48.022377 
L 29.2875 48.015601 
L 29.4115 48.122853 
L 29.499333 48.046498 
L 29.4425 48.14937 
L 29.525167 48.108785 
L 29.5665 48.152785 
L 29.5975 48.076933 
L 29.633667 48.111261 
L 29.638833 48.09761 
L 29.711167 48.211212 
L 29.762833 48.27126 
L 29.809333 48.15428 
L 29.923 47.977521 
L 29.943667 48.018721 
L 30.14 47.828302 
L 30.1865 47.88532 
L 30.300167 47.934302 
L 30.227833 47.824953 
L 30.315667 47.898007 
L 30.377667 47.842208 
L 30.419 47.931802 
L 30.481 47.964667 
L 30.444833 47.914605 
L 30.532667 47.922101 
L 30.610167 47.879024 
L 30.636 47.925069 
L 30.698 48.019307 
L 30.76 47.985103 
L 31.137167 47.946785 
L 31.163 47.874003 
L 31.2405 47.911355 
L 31.3025 47.811773 
L 31.354167 47.897434 
L 31.447167 47.99555 
L 31.473 47.937109 
L 31.545333 48.013968 
L 31.576333 47.956584 
L 31.700333 48.020193 
L 31.777833 48.014282 
L 31.808833 48.056522 
L 31.819167 48.049663 
L 31.948333 48.128935 
L 32.191167 47.98642 
L 31.979333 48.162676 
L 32.211833 48.006888 
L 32.242833 48.081398 
L 32.3255 48.00304 
L 32.346167 48.002717 
L 32.382333 47.920918 
L 32.403 47.891245 
L 32.4495 47.968864 
L 32.485667 47.956386 
L 32.904167 47.867197 
L 33.017833 47.869326 
L 32.950667 47.835257 
L 33.023 47.863898 
L 33.167667 47.863191 
L 33.3175 47.623891 
L 33.3485 47.65356 
L 34.149333 47.349864 
L 34.190667 47.383604 
L 34.159667 47.334745 
L 34.257833 47.331886 
L 34.3405 47.335025 
L 34.356 47.417749 
L 34.4645 47.402356 
L 34.376667 47.375448 
L 34.469667 47.389126 
L 34.5885 47.352434 
L 34.598833 47.370432 
L 34.702167 47.354295 
L 34.707333 47.338895 
L 34.852 47.157822 
L 34.862333 47.167742 
L 34.986333 47.17971 
L 34.9915 47.206934 
L 35.079333 47.084454 
L 35.213667 47.02243 
L 35.3325 46.945542 
L 35.244667 47.043413 
L 35.342833 46.996786 
L 35.482333 47.162324 
L 35.4875 47.149332 
L 35.627 46.991154 
L 35.637333 47.000337 
L 36.319333 46.701114 
L 36.4485 46.608613 
L 36.474333 46.642044 
L 36.536333 46.550087 
L 36.619 46.543717 
L 36.593167 46.584299 
L 36.639667 46.560195 
L 36.701667 46.624053 
L 36.753333 46.574522 
L 36.810167 46.593318 
L 36.877333 46.513765 
L 37.089167 46.484542 
L 37.094333 46.46413 
L 37.2855 46.376078 
L 37.301 46.397722 
L 37.616167 46.332651 
L 37.673 46.284331 
L 37.724667 46.316727 
L 37.7815 46.394775 
L 37.853833 46.354864 
L 37.962333 46.302705 
L 37.9675 46.285235 
L 38.050167 46.28397 
L 38.024333 46.325931 
L 38.070833 46.324273 
L 38.231 46.253541 
L 38.256833 46.326247 
L 38.380833 46.427777 
L 38.4015 46.387412 
L 39.6725 46.120416 
L 39.775833 45.995096 
L 39.713833 46.138931 
L 39.806833 46.011867 
L 39.941167 45.965053 
L 40.06 45.860449 
L 39.972167 45.984748 
L 40.065167 45.884322 
L 40.1995 45.977513 
L 40.204667 45.97502 
L 40.3855 45.993991 
L 40.457833 46.110828 
L 40.5095 46.042242 
L 40.643833 45.924272 
L 40.68 45.978463 
L 40.747167 45.886702 
L 40.814333 45.933072 
L 40.860833 45.871293 
L 40.959 45.879189 
L 40.8815 45.88985 
L 40.969333 45.908143 
L 41.010667 45.879237 
L 41.103667 45.960011 
L 41.227667 45.853823 
L 41.238 45.892881 
L 41.341333 45.900925 
L 41.351667 45.874465 
L 41.630667 45.953942 
L 41.6875 45.9457 
L 41.703 45.86882 
L 41.806333 45.836484 
L 41.723667 45.874905 
L 41.816667 45.852176 
L 41.971667 45.689179 
L 42.0285 45.834276 
L 42.199 45.959277 
L 42.209333 45.945777 
L 42.410833 45.954499 
L 42.4315 45.979159 
L 42.488333 45.890137 
L 42.509 45.896383 
L 42.906833 45.851079 
L 42.999833 45.796331 
L 43.030833 45.832635 
L 43.1755 45.880339 
L 43.056667 45.811257 
L 43.180667 45.86703 
L 43.2995 45.868449 
L 43.304667 45.880042 
L 43.433833 45.88195 
L 43.785167 45.87821 
L 43.847167 45.819396 
L 43.893667 45.858304 
L 43.904 45.892473 
L 43.966 45.803073 
L 43.997 45.815369 
L 44.208833 45.752768 
L 44.214 45.780316 
L 44.431 45.790461 
L 44.436167 45.765037 
L 44.549833 45.655976 
L 44.565333 45.679559 
L 45.6245 45.482535 
L 45.7485 45.548622 
L 45.660667 45.464253 
L 45.764 45.518848 
L 45.7795 45.487039 
L 45.924167 45.5675 
L 46.043 45.450382 
L 46.084333 45.54373 
L 46.156667 45.488874 
L 46.239333 45.357755 
L 46.2755 45.438122 
L 46.477 45.310762 
L 46.482167 45.327533 
L 46.559667 45.212126 
L 46.657833 45.124759 
L 46.756 45.047051 
L 46.776667 45.071433 
L 46.973 45.071064 
L 46.978167 45.056328 
L 46.9885 45.036956 
L 47.055667 45.131157 
L 47.066 45.100906 
L 47.159 45.193532 
L 47.179667 45.136285 
L 47.2365 45.178637 
L 47.303667 45.101301 
L 47.4225 45.075526 
L 47.427667 45.078399 
L 47.443167 45.100104 
L 47.5155 44.98884 
L 47.618833 44.95589 
L 47.629167 44.935516 
L 47.758333 44.890907 
L 47.7635 44.901479 
L 47.866833 44.944862 
L 47.882333 44.909104 
L 48.616 44.417567 
L 48.791667 43.858526 
L 48.833 43.5897 
L 48.874333 42.565007 
L 48.9105 31.731226 
L 48.998333 40.643965 
L 49.0655 45.025459 
L 49.163667 44.608259 
L 49.3135 43.354793 
L 49.3445 41.694133 
L 49.370333 33.211035 
L 49.453 40.964711 
L 49.509833 45.572439 
L 49.608 44.89076 
L 49.763 43.326442 
L 49.788833 41.419483 
L 49.8095 32.852746 
L 49.897333 40.62973 
L 49.959333 46.03499 
L 50.062667 45.241506 
L 50.222833 43.612039 
L 50.259 41.051809 
L 50.279667 32.508772 
L 50.3675 40.201909 
L 50.434667 46.516858 
L 50.5535 45.642368 
L 50.687833 44.493471 
L 50.791167 43.075756 
L 50.811833 37.158578 
L 50.822167 32.243986 
L 50.915167 40.05765 
L 50.982333 46.82769 
L 51.106333 46.056611 
L 51.4525 42.255859 
L 51.478333 32.09821 
L 51.566167 40.072065 
L 51.628167 47.047383 
L 51.757333 46.40615 
L 51.953667 45.333853 
L 52.268833 42.186312 
L 52.294667 32.102135 
L 52.3825 40.55423 
L 52.439333 47.046328 
L 52.553 46.594343 
L 52.930167 45.038465 
L 52.935333 45.044712 
L 52.966333 44.933768 
L 53.2505 43.32235 
L 53.2815 40.523736 
L 53.302167 32.189345 
L 53.39 41.269622 
L 53.457167 46.971029 
L 53.534667 46.671019 
L 53.767167 45.759935 
L 53.772333 45.76573 
L 53.813667 45.64886 
L 54.077167 44.819078 
L 54.356167 44.190224 
L 54.438833 44.067215 
L 54.604167 43.0536 
L 54.63 40.596907 
L 54.655833 32.622627 
L 54.733333 41.58785 
L 54.805667 46.635237 
L 54.872833 46.369494 
L 55.136333 45.462862 
L 55.7615 44.203012 
L 55.818333 44.144835 
L 55.8235 44.107521 
L 55.963 43.920937 
L 55.9785 43.945147 
L 56.128333 43.660908 
L 56.205833 42.953129 
L 56.231667 40.647658 
L 56.2575 32.828495 
L 56.335 41.730141 
L 56.407333 46.347875 
L 56.4745 46.098111 
L 56.484833 46.100501 
L 56.5055 45.999912 
L 56.831 45.125123 
L 56.836167 45.131506 
L 56.841333 45.140164 
L 56.887833 45.00888 
L 57.306333 44.33535 
L 57.316667 44.351947 
L 57.337333 44.369518 
L 57.368333 44.299913 
L 57.414833 44.300128 
L 58.014167 44.359999 
L 58.102 44.480992 
L 58.138167 44.47012 
L 58.184667 44.46446 
L 58.2105 44.511398 
L 58.226 44.517331 
L 58.370667 44.725194 
L 58.386167 44.70303 
L 58.448167 44.801488 
L 58.463667 44.801359 
L 58.592833 45.052177 
L 58.603167 45.04051 
L 58.608333 45.030693 
L 58.670333 45.119835 
L 58.6755 45.119634 
L 58.913167 45.493822 
L 58.9235 45.457428 
L 58.928667 45.436091 
L 58.959667 45.49539 
L 59.032 45.465473 
L 59.2025 45.678924 
L 59.207667 45.674222 
L 59.373 45.77825 
L 59.378167 45.773598 
L 59.4815 45.857916 
L 59.631333 46.006961 
L 59.796667 46.075215 
L 59.925833 46.156482 
L 59.936167 46.149735 
L 59.951667 46.118948 
L 60.003333 46.220337 
L 60.024 46.19561 
L 60.189333 46.404154 
L 60.199667 46.376429 
L 60.2875 46.454995 
L 60.292667 46.4479 
L 60.416667 46.369015 
L 60.4425 46.399549 
L 60.5045 46.3452 
L 60.561333 46.382235 
L 60.706 46.277798 
L 60.778333 46.39261 
L 60.8455 46.366999 
L 60.850667 46.340711 
L 60.9385 46.436402 
L 60.959167 46.415581 
L 61.078 46.465149 
L 61.160667 46.415209 
L 61.1865 46.463918 
L 61.491333 46.497457 
L 61.4965 46.473434 
L 61.537833 46.435758 
L 61.605 46.485379 
L 61.661833 46.442985 
L 61.76 46.598263 
L 61.765167 46.588364 
L 61.8375 46.683166 
L 61.987333 46.873258 
L 62.033833 46.836534 
L 62.157833 46.788825 
L 62.261167 46.873425 
L 62.276667 46.831383 
L 62.478167 46.876834 
L 62.4885 46.841386 
L 62.6125 46.768541 
L 62.628 46.780186 
L 62.752 46.833465 
L 62.648667 46.758668 
L 62.762333 46.804579 
L 62.907 46.762673 
L 63.532167 46.641064 
L 63.640667 46.728984 
L 63.6665 46.700377 
L 63.749167 46.649677 
L 63.775 46.711456 
L 63.8525 46.834238 
L 63.904167 46.790661 
L 63.955833 46.730376 
L 64.017833 46.784077 
L 64.090167 46.847236 
L 64.126333 46.795621 
L 64.178 46.766828 
L 64.198667 46.833662 
L 64.229667 46.818286 
L 64.260667 46.883573 
L 64.291667 46.790318 
L 64.338167 46.814 
L 64.498333 46.7212 
L 64.5035 46.730114 
L 64.555167 46.711316 
L 64.529333 46.688481 
L 64.586167 46.665578 
L 64.622333 46.630423 
L 64.653333 46.691505 
L 64.699833 46.660398 
L 64.761833 46.712446 
L 64.818667 46.663405 
L 64.963333 46.723732 
L 64.984 46.687076 
L 65.505833 46.718762 
L 65.516167 46.770131 
L 65.609167 46.695456 
L 65.728 46.489402 
L 65.769333 46.605928 
L 65.8365 46.664959 
L 65.888167 46.622735 
L 66.074167 46.512618 
L 66.1 46.561147 
L 66.182667 46.514559 
L 66.229167 46.516583 
L 66.213667 46.552633 
L 66.2705 46.578494 
L 66.342833 46.601849 
L 66.317 46.549883 
L 66.384167 46.578023 
L 66.4565 46.554446 
L 66.4255 46.608245 
L 66.497833 46.568323 
L 66.585667 46.605788 
L 66.616667 46.567807 
L 66.761333 46.504718 
L 66.8595 46.509801 
L 66.802667 46.468563 
L 66.869833 46.489684 
L 66.968 46.454061 
L 66.9835 46.502161 
L 67.117833 46.654096 
L 67.123 46.638003 
L 67.143667 46.655132 
L 67.247 46.645453 
L 67.443333 46.702916 
L 67.4485 46.680457 
L 67.562167 46.54257 
L 67.6035 46.557594 
L 67.712 46.519499 
L 67.779167 46.436471 
L 67.841167 46.498846 
L 67.980667 46.563273 
L 68.058167 46.640069 
L 68.094333 46.565812 
L 68.621333 46.50462 
L 68.698833 46.549384 
L 68.735 46.508334 
L 68.864167 46.462322 
L 68.869333 46.479697 
L 68.993333 46.505258 
L 68.895167 46.419142 
L 69.003667 46.487671 
L 69.1535 46.414935 
L 69.169 46.455997 
L 69.241333 46.338516 
L 69.251667 46.35403 
L 69.256833 46.333393 
L 69.349833 46.418181 
L 69.427333 46.439612 
L 69.391167 46.378049 
L 69.458333 46.395791 
L 69.546167 46.396323 
L 69.561667 46.356046 
L 69.644333 46.427352 
L 69.690833 46.331197 
L 70.445167 46.240944 
L 70.460667 46.210424 
L 70.527833 46.317226 
L 70.543333 46.304033 
L 70.770667 46.245512 
L 70.775833 46.225241 
L 70.8275 46.275971 
L 70.879167 46.265587 
L 71.917667 46.064118 
L 71.922833 46.047489 
L 72.0055 46.139923 
L 72.010667 46.137397 
L 72.553167 46.561039 
L 72.584167 46.509059 
L 72.677167 46.493736 
L 72.599667 46.529567 
L 72.697833 46.543484 
L 72.883833 46.671582 
L 72.956167 46.661831 
L 72.971667 46.701999 
L 72.987167 46.702039 
L 73.23 46.697252 
L 73.235167 46.728041 
L 73.312667 46.651251 
L 73.374667 46.764986 
L 73.478 46.610827 
L 73.5245 46.630606 
L 73.529667 46.648702 
L 73.607167 46.547155 
L 73.612333 46.549932 
L 73.8035 46.431192 
L 73.875833 46.437385 
L 73.839667 46.45807 
L 73.906833 46.475118 
L 74.025667 46.532574 
L 73.9585 46.42828 
L 74.030833 46.524076 
L 74.377 46.375012 
L 74.387333 46.432183 
L 74.6095 47.450148 
L 74.842 47.882874 
L 74.8575 47.849385 
L 74.862667 47.821558 
L 74.940167 47.938076 
L 74.955667 47.913137 
L 75.053833 47.995134 
L 75.079667 47.929613 
L 75.084833 47.914238 
L 75.110667 47.981491 
L 75.172667 47.988093 
L 75.234667 48.136447 
L 75.296667 48.078775 
L 75.369 48.175568 
L 75.425833 48.146399 
L 75.5085 48.178731 
L 75.5395 48.150112 
L 75.71 48.189291 
L 75.761667 48.222573 
L 75.803 48.144826 
L 75.823667 48.184915 
L 75.859833 48.189317 
L 75.8805 48.123097 
L 75.921833 48.143851 
L 75.952833 48.118029 
L 75.989 48.213995 
L 76.02 48.194449 
L 76.051 48.231762 
L 76.107833 48.135803 
L 76.118167 48.143021 
L 76.2525 48.076352 
L 76.268 48.115682 
L 76.366167 48.079475 
L 76.319667 48.063125 
L 76.371333 48.07369 
L 76.433333 48.150968 
L 76.474667 48.106708 
L 76.764 48.187158 
L 76.7795 48.241894 
L 76.851833 48.135258 
L 76.862167 48.14034 
L 76.955167 48.123793 
L 76.882833 48.199685 
L 76.981 48.145466 
L 77.161833 48.099236 
L 77.177333 48.053451 
L 77.249667 48.191269 
L 77.254833 48.191156 
L 77.440833 48.092085 
L 77.508 48.007073 
L 77.559667 48.082272 
L 77.874833 48.111086 
L 77.88 48.097562 
L 78.009167 48.078876 
L 78.014333 48.089526 
L 78.148667 48.152267 
L 78.696333 48.154842 
L 78.8565 47.907988 
L 78.903 47.984719 
L 78.975333 47.91918 
L 79.399 48.235959 
L 78.985667 47.907395 
L 79.424833 48.196662 
L 79.455833 48.162642 
L 79.497167 48.223231 
L 79.5385 48.188874 
L 79.548833 48.215816 
L 79.626333 48.129973 
L 79.641833 48.15401 
L 79.853667 48.110396 
L 79.9415 48.147636 
L 79.957 48.096878 
L 80.019 47.989389 
L 80.070667 48.090186 
L 80.199833 48.129674 
L 80.205 48.117322 
L 80.246333 48.180194 
L 80.303167 48.148466 
L 80.380667 48.199831 
L 80.416833 48.140927 
L 80.597667 48.039663 
L 80.602833 48.046532 
L 80.794 48.071288 
L 80.949 47.967308 
L 80.990333 47.911887 
L 81.0885 48.091254 
L 81.233167 47.976622 
L 81.279667 47.961842 
L 81.326167 48.030241 
L 81.465667 48.141648 
L 81.470833 48.139405 
L 81.589667 48.112355 
L 82.013333 48.133122 
L 82.0495 48.171663 
L 82.106333 48.049715 
L 82.199333 48.055777 
L 82.132167 48.085536 
L 82.22 48.097091 
L 82.271667 48.049007 
L 82.333667 48.118429 
L 82.473167 47.99145 
L 82.499 47.967355 
L 82.561 48.035416 
L 82.566167 48.03602 
L 82.5765 48.076305 
L 82.617833 47.994028 
L 82.6695 47.995652 
L 83.175833 47.833655 
L 83.274 47.746566 
L 83.305 47.788973 
L 83.403167 47.819096 
L 83.4135 47.788466 
L 83.516833 47.716694 
L 83.532333 47.742478 
L 83.573667 47.801945 
L 83.609833 47.705306 
L 83.640833 47.71945 
L 83.77 47.625649 
L 83.790667 47.635712 
L 83.888833 47.614147 
L 83.832 47.562281 
L 83.899167 47.583809 
L 83.925 47.607457 
L 84.018 47.514557 
L 84.08 47.529001 
L 84.111 47.464368 
L 84.121333 47.473741 
L 84.147167 47.529707 
L 84.204 47.544173 
L 84.255667 47.469857 
L 84.322833 47.566156 
L 84.446833 47.492286 
L 84.457167 47.439239 
L 84.539833 47.551433 
L 84.550167 47.536032 
L 84.5605 47.563257 
L 84.627667 47.46151 
L 84.9635 47.298689 
L 84.968667 47.311246 
L 85.041 47.338132 
L 85.072 47.294267 
L 85.082333 47.268324 
L 85.1495 47.363115 
L 85.175333 47.32282 
L 85.402667 47.188881 
L 85.531833 47.148707 
L 85.449167 47.236107 
L 85.537 47.150939 
L 85.557667 47.207115 
L 85.635167 47.10756 
L 85.743667 46.977124 
L 85.779833 47.026931 
L 85.816 46.995337 
L 85.8935 47.011274 
L 86.151833 46.822128 
L 86.193167 46.824398 
L 86.229333 46.76538 
L 86.25 46.795235 
L 86.3275 46.73578 
L 86.363667 46.756181 
L 86.534167 46.684605 
L 86.663333 46.540223 
L 86.6685 46.554474 
L 87.2885 46.25853 
L 87.386667 46.185044 
L 87.407333 46.23459 
L 87.805167 46.20699 
L 87.9395 46.070416 
L 87.949833 46.084098 
L 88.084167 46.064241 
L 88.0945 46.10167 
L 88.213333 46.183645 
L 88.115167 46.07277 
L 88.244333 46.137391 
L 88.430333 46.225381 
L 88.4665 46.164718 
L 88.533667 46.060798 
L 88.595667 46.097443 
L 88.709333 46.205244 
L 88.6215 46.08719 
L 88.735167 46.166888 
L 89.003833 46.033131 
L 89.143333 45.898138 
L 89.169167 45.863446 
L 89.293167 45.887293 
L 89.355167 45.83429 
L 89.406833 45.881377 
L 89.484333 45.937521 
L 89.5205 45.895773 
L 89.680667 45.75176 
L 89.546333 45.925512 
L 89.716833 45.830455 
L 89.727167 45.853197 
L 89.758167 45.780969 
L 89.815 45.781155 
L 89.949333 45.721704 
L 90.1715 45.718381 
L 90.176667 45.736757 
L 90.285167 45.745818 
L 90.238667 45.670282 
L 90.290333 45.742293 
L 90.352333 45.696636 
L 90.409167 45.735121 
L 90.5435 45.846645 
L 90.548667 45.835529 
L 90.703667 45.718786 
L 90.559 45.849919 
L 90.734667 45.750005 
L 90.848333 45.776022 
L 90.874167 45.733499 
L 90.9775 45.688021 
L 90.987833 45.729421 
L 91.1325 45.831975 
L 91.437333 45.721066 
L 91.561333 45.823695 
L 91.943667 45.805418 
L 91.959167 45.847978 
L 92.047 45.766107 
L 92.1245 45.70528 
L 92.098667 45.680114 
L 92.129667 45.696673 
L 92.253667 45.609221 
L 92.269167 45.625195 
L 92.331167 45.566952 
L 92.377667 45.608676 
L 92.481 45.58574 
L 92.408667 45.630348 
L 92.491333 45.618781 
L 92.672167 45.645369 
L 92.677333 45.616776 
L 92.76 45.535768 
L 92.796167 45.595132 
L 92.801333 45.584995 
L 92.8685 45.690622 
L 92.9615 45.675662 
L 92.8995 45.64984 
L 92.971833 45.660424 
L 93.1165 45.550424 
L 93.204333 45.585668 
L 93.235333 45.516606 
L 93.359333 45.529332 
L 93.250833 45.483402 
L 93.3645 45.51724 
L 93.385167 45.53655 
L 93.493667 45.494998 
L 95.8135 45.186706 
L 95.922 45.131024 
L 95.870333 45.211575 
L 95.932333 45.144932 
L 96.051167 45.22377 
L 95.947833 45.130228 
L 96.071833 45.192864 
L 96.226833 45.101699 
L 96.242333 45.118116 
L 96.263 45.163479 
L 96.335333 45.055409 
L 96.3405 45.080802 
L 96.459333 45.006687 
L 96.366333 45.109396 
L 96.4645 45.026462 
L 96.583333 45.038046 
L 96.598833 45.020146 
L 96.748667 44.90783 
L 96.753833 44.911908 
L 96.888167 44.877427 
L 96.955333 44.847064 
L 96.919167 44.905058 
L 97.001833 44.870502 
L 97.089667 44.929774 
L 97.094833 44.949221 
L 97.136167 44.93063 
L 97.156833 44.879626 
L 97.286 44.667028 
L 97.296333 44.685206 
L 97.3015 44.703487 
L 97.373833 44.565826 
L 97.554667 44.198604 
L 97.663167 43.935029 
L 97.771667 42.288611 
L 97.807833 31.812776 
L 97.8905 40.586768 
L 97.957667 44.960603 
L 98.055833 44.560742 
L 98.221167 42.435382 
L 98.252167 33.280225 
L 98.34 41.409178 
L 98.396833 45.529734 
L 98.4795 44.91602 
L 98.639667 43.171094 
L 98.6655 38.319994 
L 98.681 32.870816 
L 98.768833 40.677574 
L 98.8205 46.040497 
L 98.934167 45.230972 
L 99.1305 41.688076 
L 99.151167 32.485198 
L 99.244167 40.497656 
L 99.311333 46.475644 
L 99.414667 45.658038 
L 99.6265 43.750631 
L 99.667833 41.886667 
L 99.6885 32.200703 
L 99.7815 40.168609 
L 99.848667 46.845068 
L 99.972667 46.058948 
L 100.3085 43.368154 
L 100.334333 41.101061 
L 100.355 32.105413 
L 100.442833 40.150703 
L 100.504833 47.015431 
L 100.634 46.360924 
L 100.7425 45.762324 
L 100.9905 44.424394 
L 101.155833 42.394414 
L 101.181667 32.172957 
L 101.274667 40.999966 
L 101.3315 46.998024 
L 101.429667 46.577197 
L 101.564 45.955717 
L 101.791333 45.073914 
L 101.848167 44.852839 
L 102.049667 44.196702 
L 102.054833 44.200503 
L 102.1065 43.958711 
L 102.1995 42.771903 
L 102.225333 34.102257 
L 102.235667 32.324838 
L 102.308 40.08615 
L 102.380333 46.826096 
L 102.488833 46.447226 
L 102.752333 45.464275 
L 102.8195 45.297655 
L 103.114 44.409803 
L 103.4395 43.166319 
L 103.4705 40.977729 
L 103.496333 32.706216 
L 103.573833 41.484572 
L 103.646167 46.597974 
L 103.7185 46.290771 
L 104.488333 44.390159 
L 104.576167 44.406258 
L 104.54 44.330046 
L 104.596833 44.390086 
L 104.782833 44.162407 
L 104.788 44.166209 
L 104.891333 44.227135 
L 104.798333 44.158003 
L 104.917167 44.207278 
L 104.943 44.18098 
L 104.968833 44.270964 
L 105.0205 44.24589 
L 105.3925 44.353293 
L 105.583667 44.711169 
L 105.852333 44.977992 
L 106.007333 45.245523 
L 106.017667 45.238192 
L 106.131333 45.259281 
L 106.141667 45.297031 
L 106.534333 45.618799 
L 106.5395 45.585464 
L 106.611833 45.768527 
L 106.617 45.766903 
L 106.8185 46.020676 
L 106.834 46.000559 
L 106.865 45.970982 
L 106.932167 46.043154 
L 107.082 46.113863 
L 107.144 46.067256 
L 107.185333 46.155795 
L 107.216333 46.225444 
L 107.304167 46.157746 
L 107.443667 46.276453 
L 107.805333 46.379065 
L 108.032667 46.678209 
L 108.043 46.657158 
L 108.048167 46.648195 
L 108.099833 46.744822 
L 108.125667 46.734138 
L 108.415 46.753368 
L 108.425333 46.733681 
L 108.4615 46.839006 
L 108.4925 46.848754 
L 108.756 47.006605 
L 108.776667 46.93917 
L 108.854167 46.918215 
L 108.890333 46.959044 
L 108.921333 47.001303 
L 108.983333 46.924983 
L 108.998833 46.951211 
L 109.179667 47.042417 
L 109.184833 47.025794 
L 109.531 47.207483 
L 109.624 47.110334 
L 109.649833 47.180788 
L 109.7635 47.151952 
L 110.0735 47.10236 
L 110.1355 47.157102 
L 110.1045 47.145406 
L 110.145833 47.178996 
L 110.244 47.163709 
L 110.176833 47.132606 
L 110.249167 47.15174 
L 110.269833 47.08423 
L 110.373167 47.116454 
L 110.512667 47.066811 
L 110.610833 46.969746 
L 110.771 46.84869 
L 110.621167 46.976816 
L 110.776167 46.882162 
L 110.7865 46.866357 
L 110.951833 46.974131 
L 111.225667 47.02445 
L 111.230833 47.011683 
L 111.339333 46.944095 
L 111.246333 47.019292 
L 111.354833 46.980211 
L 111.411667 47.070921 
L 111.489167 46.989046 
L 111.788833 46.801949 
L 111.804333 46.846402 
L 111.918 46.922188 
L 111.928333 46.902519 
L 112.036833 46.925811 
L 111.974833 46.942631 
L 112.042 46.932805 
L 112.29 47.028052 
L 112.052333 46.914443 
L 112.3055 46.988062 
L 113.034 46.75338 
L 113.039167 46.777365 
L 113.070167 46.817181 
L 113.137333 46.733405 
L 113.1425 46.742652 
L 113.261333 46.645481 
L 113.2665 46.665269 
L 113.406 46.787963 
L 113.276833 46.660631 
L 113.411167 46.760949 
L 113.5455 46.615871 
L 113.561 46.622452 
L 113.747 46.727947 
L 113.829667 46.676996 
L 113.860667 46.721534 
L 113.974333 46.766605 
L 113.9795 46.761598 
L 114.082833 46.723364 
L 114.015667 46.795975 
L 114.098333 46.75596 
L 114.217167 46.620227 
L 114.305 46.589158 
L 114.263667 46.638981 
L 114.336 46.617182 
L 114.966333 46.358953 
L 114.997333 46.411146 
L 115.0645 46.327937 
L 115.08 46.315596 
L 115.116167 46.436885 
L 115.152333 46.405609 
L 115.2815 46.429422 
L 115.167833 46.390603 
L 115.291833 46.416349 
L 115.421 46.376015 
L 115.545 46.489444 
L 115.565667 46.472417 
L 115.689667 46.436543 
L 115.767167 46.391355 
L 115.813667 46.457894 
L 115.953167 46.396254 
L 115.834333 46.471255 
L 115.958333 46.405351 
L 116.0875 46.522121 
L 116.108167 46.491418 
L 116.134 46.505407 
L 116.232167 46.485321 
L 116.252833 46.466098 
L 116.361333 46.503765 
L 116.562833 46.448109 
L 116.578333 46.499893 
L 116.686833 46.554128 
L 116.702333 46.530789 
L 116.8935 46.682125 
L 116.723 46.501715 
L 116.929667 46.644058 
L 116.971 46.670968 
L 117.0795 46.572316 
L 117.224167 46.486669 
L 117.368833 46.355385 
L 117.239667 46.497405 
L 117.394667 46.380429 
L 118.118 46.448342 
L 118.1645 46.428248 
L 118.247167 46.491166 
L 118.283333 46.456208 
L 118.329833 46.542487 
L 118.355667 46.517491 
L 118.433167 46.581842 
L 118.438333 46.596981 
L 118.5675 46.676154 
L 118.577833 46.670954 
L 118.701833 46.615552 
L 118.614 46.725202 
L 118.712167 46.620145 
L 119.0635 47.720899 
L 119.068667 47.716252 
L 119.482 48.034601 
L 119.554333 47.998992 
L 119.580167 48.064859 
L 119.5905 48.057257 
L 119.606 48.090505 
L 119.662833 47.986157 
L 119.668 47.991035 
L 119.693833 47.968224 
L 119.7455 48.075886 
L 119.755833 48.074269 
L 119.936667 48.245522 
L 120.071 48.138475 
L 120.076167 48.174696 
L 120.164 48.068741 
L 120.174333 48.081057 
L 120.205333 48.070753 
L 120.246667 48.15936 
L 120.251833 48.143673 
L 120.375833 48.172145 
L 120.505 48.176339 
L 120.510167 48.1883 
L 120.809833 48.185779 
L 120.815 48.203177 
L 120.902833 48.207866 
L 120.871833 48.14779 
L 120.913167 48.187896 
L 120.980333 48.062597 
L 121.042333 48.099649 
L 121.1715 48.16413 
L 121.088833 48.042084 
L 121.181833 48.128041 
L 121.28 48.128528 
L 121.192167 48.137235 
L 121.300667 48.159084 
L 121.378167 48.1834 
L 121.409167 48.147749 
L 121.502167 48.195174 
L 121.440167 48.129453 
L 121.528 48.141976 
L 121.8845 48.032317 
L 121.9 48.068102 
L 121.936167 48.111741 
L 121.982667 48.030811 
L 122.013667 48.089786 
L 122.184167 47.995884 
L 122.220333 48.090791 
L 122.313333 48.133926 
L 122.266833 48.07109 
L 122.339167 48.103175 
L 122.4115 47.959395 
L 122.483833 48.028213 
L 122.545833 48.051939 
L 122.576833 47.993305 
L 122.592333 48.011202 
L 122.638833 47.970451 
L 122.607833 48.023509 
L 122.685333 48.058268 
L 122.6905 48.081913 
L 122.726667 48.007347 
L 122.788667 48.039811 
L 122.793833 48.019053 
L 122.8765 48.139532 
L 123.016 48.142522 
L 123.026333 48.113035 
L 123.150333 48.028071 
L 123.047 48.127834 
L 123.1555 48.036943 
L 123.191667 48.097479 
L 123.264 48.015307 
L 123.326 48.054453 
L 123.377667 48.005042 
L 123.517167 47.919891 
L 123.537833 47.974533 
L 123.641167 48.090425 
L 123.661833 48.036315 
L 123.785833 48.006437 
L 123.796167 48.038947 
L 123.878833 47.957131 
L 123.889167 47.973783 
L 124.018333 48.104771 
L 124.126833 48.154877 
L 124.075167 48.048057 
L 124.152667 48.134175 
L 124.163 48.084911 
L 124.266333 48.122338 
L 124.374833 48.125792 
L 124.374833 48.125792 
" style="fill:none;stroke:#000000;stroke-linecap:square;stroke-width:0.3;"/>
   </g>
   <g id="line2d_3">
    <path clip-path="url(#pf546525c2b)" d="M 12.78 67.102805 
L 12.785167 67.119941 
L 12.852333 67.029697 
L 12.8885 67.079035 
L 13.059 67.041694 
L 12.898833 67.098316 
L 13.069333 67.06595 
L 13.177833 67.146823 
L 13.208833 67.097497 
L 13.405167 67.071988 
L 13.549833 66.977578 
L 13.425833 67.085341 
L 13.560167 66.992287 
L 13.637667 66.947992 
L 13.673833 67.012982 
L 13.7875 66.870342 
L 13.699667 67.033885 
L 13.8185 66.908187 
L 13.916667 67.052898 
L 13.952833 67.006896 
L 14.076833 66.956441 
L 14.082 66.969719 
L 14.195667 67.022284 
L 14.200833 67.01777 
L 14.231833 66.974362 
L 14.268 67.082866 
L 14.299 67.071788 
L 14.355833 67.036782 
L 14.319667 67.084367 
L 14.402333 67.108637 
L 14.474667 67.010376 
L 14.5315 66.95454 
L 14.583167 67.003174 
L 14.629667 67.070817 
L 14.702 66.97897 
L 14.8105 66.99516 
L 14.815667 67.004976 
L 14.8415 67.087914 
L 14.944833 67.039518 
L 15.074 66.907627 
L 15.084333 66.918036 
L 15.564833 67.000202 
L 16.029833 66.986748 
L 16.035 66.971098 
L 16.117667 67.057282 
L 16.122833 67.054872 
L 16.215833 67.152435 
L 16.241667 67.117126 
L 16.334667 67.035557 
L 16.365667 67.085048 
L 17.125167 66.909332 
L 17.130333 66.926393 
L 17.202667 66.832427 
L 17.223333 66.865165 
L 17.368 66.917069 
L 17.419667 66.949402 
L 17.440333 66.879976 
L 17.481667 66.920551 
L 17.595333 66.803896 
L 17.616 66.841212 
L 17.709 66.827994 
L 17.678 66.759975 
L 17.719333 66.806683 
L 17.874333 66.782194 
L 17.8795 66.81168 
L 17.931167 66.706527 
L 17.977667 66.764845 
L 18.106833 66.666066 
L 18.261833 66.648667 
L 18.370333 66.54308 
L 18.396167 66.55581 
L 18.649333 66.672684 
L 18.67 66.616784 
L 18.763 66.642545 
L 18.845667 66.689685 
L 18.881833 66.618565 
L 18.892167 66.635173 
L 18.9645 66.536703 
L 19.186667 66.433468 
L 19.207333 66.476729 
L 19.264167 66.479428 
L 19.295167 66.411826 
L 19.300333 66.411481 
L 19.331333 66.461453 
L 19.3985 66.447012 
L 19.403667 66.469269 
L 19.481167 66.391922 
L 19.501833 66.412539 
L 19.641333 66.365809 
L 19.651667 66.38492 
L 19.656833 66.404431 
L 19.713667 66.34886 
L 19.755 66.352603 
L 19.8015 66.290169 
L 19.858333 66.388642 
L 19.91 66.392131 
L 19.873833 66.369063 
L 19.941 66.321502 
L 20.101167 66.256889 
L 19.9565 66.350055 
L 20.106333 66.266903 
L 20.385333 66.389086 
L 20.395667 66.349522 
L 20.581667 66.214695 
L 20.679833 66.232932 
L 20.628167 66.168676 
L 20.695333 66.212938 
L 20.788333 66.141067 
L 20.809 66.093014 
L 20.876167 66.217756 
L 21.330833 66.242721 
L 21.3515 66.287556 
L 21.387667 66.207119 
L 21.439333 66.222656 
L 21.563333 66.047465 
L 21.584 66.05529 
L 21.589167 66.06244 
L 21.6305 65.948607 
L 21.640833 65.953661 
L 21.801 65.850428 
L 21.651167 65.961467 
L 21.806167 65.863754 
L 21.811333 65.871782 
L 21.837167 65.794279 
L 21.888833 65.802232 
L 22.167833 63.970696 
L 22.193667 51.921354 
L 22.302167 61.068299 
L 22.359 65.6456 
L 22.477833 65.274234 
L 22.534667 65.098742 
L 22.669 63.958888 
L 22.689667 57.805313 
L 22.7 53.804531 
L 22.793 62.596429 
L 22.824 66.062353 
L 22.917 65.63305 
L 23.113333 64.613896 
L 23.154667 62.776809 
L 23.170167 53.402167 
L 23.263167 61.888 
L 23.299333 66.514571 
L 23.407833 65.898696 
L 23.640333 64.07569 
L 23.655833 61.443745 
L 23.671333 53.163864 
L 23.764333 61.755728 
L 23.8005 66.933133 
L 23.909 66.260847 
L 24.136333 65.157573 
L 24.229333 64.41239 
L 24.25 63.155868 
L 24.2655 52.887961 
L 24.363667 61.687711 
L 24.405 67.106785 
L 24.5135 66.404756 
L 24.87 63.401203 
L 24.890667 52.756276 
L 24.983667 61.462538 
L 25.025 67.305192 
L 25.143833 66.55441 
L 25.5985 64.062321 
L 25.614 60.714464 
L 25.624333 52.645395 
L 25.7225 61.751434 
L 25.758667 67.303861 
L 25.867167 66.63777 
L 26.089333 65.646839 
L 26.4975 64.108754 
L 26.518167 57.24624 
L 26.5285 52.485839 
L 26.6215 61.772924 
L 26.662833 67.16641 
L 26.766167 66.512557 
L 26.947 65.718721 
L 26.952167 65.729937 
L 26.998667 65.568175 
L 27.153667 65.262514 
L 27.308667 64.488557 
L 27.3345 63.078973 
L 27.355167 52.538415 
L 27.448167 61.873228 
L 27.4895 67.27914 
L 27.592833 66.614145 
L 27.918333 65.490054 
L 27.944167 65.499946 
L 28.3265 64.573378 
L 28.3575 63.411773 
L 28.378167 52.408796 
L 28.471167 61.755115 
L 28.5125 67.113319 
L 28.621 66.435851 
L 28.972333 65.294784 
L 29.034333 65.179915 
L 29.2255 63.920772 
L 29.246167 53.722186 
L 29.251333 52.511495 
L 29.323667 60.187419 
L 29.385667 67.189498 
L 29.52 66.380309 
L 29.747333 65.598024 
L 29.985 65.272789 
L 29.990167 65.279931 
L 30.3105 64.508187 
L 30.3415 62.334431 
L 30.357 52.410645 
L 30.45 61.802757 
L 30.491333 67.033769 
L 30.594667 66.415004 
L 30.8995 65.38375 
L 30.935667 65.407774 
L 31.297333 64.59397 
L 31.328333 63.941031 
L 31.349 54.744618 
L 31.359333 52.509533 
L 31.442 61.288189 
L 31.4885 67.031989 
L 31.607333 66.341225 
L 32.0155 65.303043 
L 32.020667 65.31852 
L 32.118833 65.401938 
L 32.149833 65.360531 
L 32.258333 65.538434 
L 32.351333 65.518041 
L 32.2945 65.574221 
L 32.366833 65.558261 
L 32.532167 65.770523 
L 32.537333 65.766816 
L 32.687167 65.89795 
L 32.692333 65.879931 
L 32.702667 65.871423 
L 32.744 65.997344 
L 32.749167 65.986465 
L 33.229667 66.761049 
L 33.234833 66.751105 
L 33.281333 66.852091 
L 33.296833 66.85014 
L 33.436333 66.996496 
L 33.4415 66.993645 
L 33.457 67.055222 
L 33.482833 67.090178 
L 34.221667 67.801709 
L 34.257833 67.753484 
L 34.268167 67.735998 
L 34.325 67.850483 
L 34.335333 67.84021 
L 34.5265 68.07027 
L 34.542 68.053328 
L 34.614333 68.158885 
L 34.645333 68.126285 
L 34.702167 68.202787 
L 34.831333 68.331911 
L 34.888167 68.309345 
L 34.9295 68.393753 
L 35.213667 68.48798 
L 34.945 68.366152 
L 35.218833 68.477819 
L 37.2545 68.001292 
L 37.3785 67.942825 
L 37.383667 67.96795 
L 37.456 67.96443 
L 37.430167 67.905704 
L 37.487 67.938039 
L 37.616167 67.951102 
L 37.642 67.863578 
L 37.760833 67.903049 
L 37.802167 67.840624 
L 37.864167 67.938162 
L 38.0915 67.953232 
L 38.2 68.013106 
L 38.107 67.925763 
L 38.2155 68.005031 
L 38.3705 67.901836 
L 38.422167 67.957292 
L 38.6495 68.091345 
L 38.437667 67.923029 
L 38.654667 68.079141 
L 38.902667 67.847681 
L 38.913 67.893745 
L 38.954333 67.920449 
L 39.016333 67.86138 
L 39.1765 67.728529 
L 39.192 67.755149 
L 39.197167 67.76938 
L 39.248833 67.692221 
L 39.285 67.702214 
L 39.367667 67.604637 
L 39.4245 67.630518 
L 39.584667 67.690327 
L 39.434833 67.61978 
L 39.595 67.652691 
L 39.662167 67.629757 
L 39.688 67.716987 
L 39.775833 67.805089 
L 39.806833 67.776127 
L 39.874 67.842508 
L 39.925667 67.781397 
L 40.008333 67.782235 
L 40.034167 67.771998 
L 40.158167 67.710766 
L 40.163333 67.695915 
L 40.1995 67.771096 
L 40.2615 67.750095 
L 40.618 67.705124 
L 40.8195 67.617079 
L 40.824667 67.628082 
L 40.8505 67.542981 
L 40.897 67.53133 
L 40.902167 67.496218 
L 40.979667 67.629024 
L 41.0055 67.55357 
L 41.0985 67.441084 
L 41.031333 67.574275 
L 41.150167 67.465705 
L 41.413667 67.447683 
L 41.5325 67.422093 
L 41.548 67.386564 
L 41.61 67.487234 
L 41.635833 67.451266 
L 41.661667 67.463278 
L 41.682333 67.395414 
L 41.723667 67.387836 
L 41.863167 67.382558 
L 41.868333 67.404753 
L 41.945833 67.44629 
L 41.9665 67.370643 
L 41.976833 67.383387 
L 42.0905 67.324684 
L 42.095667 67.326754 
L 42.2455 67.430385 
L 42.328167 67.353878 
L 42.374667 67.370859 
L 42.410833 67.409169 
L 42.488333 67.332559 
L 42.627833 67.34019 
L 42.633 67.347929 
L 42.664 67.369262 
L 42.720833 67.281706 
L 42.726 67.281044 
L 43.149667 67.174569 
L 43.154833 67.186744 
L 43.278833 67.254934 
L 43.2995 67.22848 
L 43.315 67.204216 
L 43.382167 67.315158 
L 43.759333 67.386348 
L 43.769667 67.347992 
L 43.774833 67.318695 
L 43.7955 67.363023 
L 43.873 67.375186 
L 43.935 67.428481 
L 43.986667 67.364525 
L 44.3225 67.280761 
L 44.327667 67.303276 
L 44.4 67.252256 
L 44.431 67.262904 
L 44.575667 67.161878 
L 44.591167 67.20147 
L 44.6325 67.254418 
L 44.704833 67.225537 
L 44.828833 67.130426 
L 44.952833 67.153549 
L 44.963167 67.14081 
L 45.045833 67.059794 
L 45.076833 67.087292 
L 45.175 67.076487 
L 45.185333 67.057196 
L 45.505667 66.992552 
L 45.510833 67.014981 
L 45.7485 67.166943 
L 45.862167 67.155519 
L 45.764 67.18103 
L 45.867333 67.179721 
L 46.229 67.325903 
L 45.877667 67.155385 
L 46.2445 67.286499 
L 46.363333 67.177298 
L 46.3685 67.193389 
L 46.420167 67.195111 
L 46.3995 67.244707 
L 46.456333 67.248628 
L 46.518333 67.287164 
L 46.559667 67.234768 
L 46.688833 67.149521 
L 46.694 67.15643 
L 46.823167 67.179876 
L 46.952333 67.285881 
L 47.055667 67.250988 
L 46.962667 67.308041 
L 47.076333 67.298029 
L 47.3605 67.343099 
L 47.427667 67.264673 
L 47.474167 67.309642 
L 47.489667 67.315872 
L 47.5 67.267021 
L 47.562 67.25895 
L 47.660167 67.199754 
L 47.598167 67.285281 
L 47.686 67.212567 
L 47.711833 67.163617 
L 47.7635 67.150656 
L 47.872 67.012155 
L 47.897833 67.058646 
L 47.939167 67.063675 
L 47.9185 67.031483 
L 47.990833 67.010207 
L 48.140667 66.996985 
L 48.2285 67.109334 
L 48.269833 67.067782 
L 48.393833 67.057868 
L 48.399 67.042135 
L 48.574667 66.929424 
L 48.579833 66.942837 
L 48.621167 66.888478 
L 48.709 66.982789 
L 48.822667 66.919857 
L 48.858833 66.942103 
L 48.993167 67.06871 
L 49.0655 67.019651 
L 49.019 67.086796 
L 49.101667 67.071682 
L 49.199833 66.946922 
L 49.205 66.937726 
L 49.2515 67.070899 
L 49.272167 67.032476 
L 49.401333 67.158089 
L 49.4685 67.274428 
L 49.608 67.417015 
L 49.659667 67.475385 
L 49.742333 67.411647 
L 49.938667 67.498609 
L 50.078167 67.480078 
L 50.083333 67.495322 
L 50.207333 67.528108 
L 50.093667 67.487483 
L 50.2125 67.51963 
L 50.341667 67.421369 
L 51.178667 67.231225 
L 51.2975 67.181585 
L 51.369833 67.042177 
L 51.5145 67.001331 
L 51.519667 67.027416 
L 51.659167 67.11419 
L 51.540333 66.977981 
L 51.664333 67.099648 
L 51.695333 67.058151 
L 51.726333 67.133795 
L 51.772833 67.108502 
L 51.783167 67.130872 
L 51.809 67.078611 
L 51.865833 67.04919 
L 51.974333 67.008459 
L 51.927833 67.073639 
L 51.984667 67.029281 
L 52.108667 67.049603 
L 51.995 67.046024 
L 52.113833 67.0621 
L 52.274 67.118834 
L 52.279167 67.105727 
L 52.294667 67.072455 
L 52.377333 67.160863 
L 52.656333 67.011205 
L 52.671833 67.063606 
L 52.77 67.226739 
L 52.801 67.210114 
L 52.9405 67.307109 
L 52.950833 67.266845 
L 53.235 67.216151 
L 53.260833 67.235648 
L 53.359 67.191741 
L 53.477833 67.232723 
L 53.508833 67.190544 
L 53.570833 67.141134 
L 53.627667 67.189816 
L 53.725833 67.23187 
L 53.6845 67.138088 
L 53.741333 67.210433 
L 53.8705 67.145659 
L 53.875667 67.161734 
L 53.958333 67.199787 
L 53.891167 67.139489 
L 53.989333 67.170513 
L 54.097833 67.134258 
L 54.015167 67.20667 
L 54.108167 67.159786 
L 54.170167 67.268277 
L 54.232167 67.23008 
L 54.407833 67.18715 
L 54.418167 67.21023 
L 54.733333 67.329084 
L 54.883167 67.203484 
L 54.888333 67.221349 
L 54.8935 67.24272 
L 54.971 67.127951 
L 54.9865 67.17258 
L 55.1725 67.131501 
L 55.255167 67.134092 
L 55.229333 67.084461 
L 55.281 67.118634 
L 55.4205 67.248468 
L 55.446333 67.177898 
L 55.554833 67.32551 
L 55.585833 67.385155 
L 55.6685 67.348818 
L 55.673667 67.353169 
L 55.720167 67.250644 
L 55.725333 67.254781 
L 55.839 67.178971 
L 55.849333 67.199822 
L 56.107667 67.210237 
L 56.216167 67.28276 
L 56.123167 67.199881 
L 56.247167 67.252063 
L 56.3505 67.226656 
L 56.298833 67.284223 
L 56.366 67.241647 
L 56.515833 67.248148 
L 56.562333 67.198255 
L 56.624333 67.268835 
L 56.712167 67.181195 
L 56.743167 67.250142 
L 56.975667 67.343639 
L 57.1565 67.276585 
L 56.986 67.360013 
L 57.172 67.298549 
L 57.177167 67.317485 
L 57.2495 67.203975 
L 57.265 67.228467 
L 57.4355 67.152914 
L 57.275333 67.246876 
L 57.440667 67.172692 
L 57.564667 67.266782 
L 57.569833 67.263032 
L 57.879833 67.266175 
L 57.885 67.286865 
L 58.060667 67.427764 
L 58.158833 67.304579 
L 58.1795 67.364629 
L 58.236333 67.411816 
L 58.308667 67.373221 
L 58.329333 67.363076 
L 58.437833 67.415262 
L 58.623833 67.345508 
L 58.629 67.362407 
L 58.691 67.389762 
L 58.727167 67.342963 
L 58.794333 67.256702 
L 58.835667 67.364982 
L 59.021667 67.219457 
L 59.026833 67.23548 
L 59.104333 67.116744 
L 59.2025 66.988458 
L 59.269667 66.971339 
L 59.316167 66.990076 
L 59.435 67.090982 
L 59.455667 67.069784 
L 59.522833 67.001451 
L 59.569333 67.061513 
L 59.657167 67.135955 
L 59.683 67.086754 
L 59.838 67.007739 
L 59.693333 67.095517 
L 59.8535 67.037918 
L 59.863833 67.084113 
L 59.931 66.953133 
L 59.951667 66.97527 
L 59.967167 66.991304 
L 60.065333 66.942683 
L 60.086 66.98255 
L 60.148 66.902706 
L 60.168667 66.899756 
L 60.328833 67.012617 
L 60.551 66.900181 
L 60.587167 66.836653 
L 60.654333 66.934392 
L 60.742167 66.99428 
L 60.700833 66.913194 
L 60.778333 66.972583 
L 60.8455 66.878256 
L 60.897167 66.936907 
L 60.902333 66.950086 
L 60.974667 66.848686 
L 61.0315 66.75555 
L 61.078 66.853584 
L 61.114167 66.877389 
L 61.145167 66.826184 
L 61.181333 66.832405 
L 61.2795 66.782182 
L 61.191667 66.848502 
L 61.3105 66.832434 
L 61.439667 66.941606 
L 61.470667 66.865785 
L 61.656667 66.947847 
L 61.7755 66.886817 
L 61.780667 66.889724 
L 61.811667 66.855799 
L 61.904667 66.950368 
L 62.1475 66.904637 
L 62.157833 66.957426 
L 62.256 66.973948 
L 62.235333 66.919027 
L 62.266333 66.9525 
L 62.498833 66.828543 
L 62.659 66.913454 
L 62.7985 66.87185 
L 62.808833 66.89137 
L 62.8295 66.878748 
L 62.927667 66.929585 
L 63.036167 66.809501 
L 63.056833 66.83525 
L 63.155 66.876177 
L 63.165333 66.825027 
L 63.186 66.775445 
L 63.279 66.816425 
L 63.9145 66.824467 
L 63.919667 66.792446 
L 64.012667 66.89939 
L 64.1315 67.015346 
L 64.152167 66.986949 
L 64.167667 66.947786 
L 64.234833 67.0492 
L 64.250333 67.024213 
L 64.405333 67.12674 
L 64.4105 67.124411 
L 64.694667 67.158463 
L 64.767 67.132337 
L 64.741167 67.105511 
L 64.7825 67.096887 
L 64.885833 66.88739 
L 64.927167 66.915119 
L 65.087333 67.026501 
L 65.0925 67.023687 
L 65.159667 66.989632 
L 65.206167 67.021463 
L 65.211333 67.041628 
L 65.294 66.934576 
L 65.325 66.857299 
L 65.4025 66.93252 
L 65.5265 66.954147 
L 65.614333 66.956624 
L 65.567833 66.999355 
L 65.629833 66.995018 
L 65.846833 67.149324 
L 65.852 67.11481 
L 65.924333 67.195831 
L 65.955333 67.165626 
L 66.110333 67.140267 
L 66.1155 67.145203 
L 66.265333 67.196844 
L 66.286 67.152567 
L 66.637333 67.123811 
L 66.725167 67.191723 
L 66.7665 67.152283 
L 66.869833 67.068324 
L 66.7975 67.182163 
L 66.895667 67.121427 
L 66.911167 67.09782 
L 67.0145 67.183322 
L 67.143667 67.128452 
L 67.185 67.167789 
L 67.210833 67.072878 
L 67.247 67.092648 
L 67.531167 67.064174 
L 67.613833 67.030514 
L 67.5415 67.071584 
L 67.6345 67.071818 
L 67.691333 67.047807 
L 67.753333 67.116067 
L 67.784333 67.086138 
L 67.856667 67.158478 
L 67.903167 67.226406 
L 67.985833 67.130538 
L 68.140833 67.113355 
L 68.1615 67.176116 
L 68.476667 67.103365 
L 68.497333 67.114422 
L 68.600667 67.094608 
L 68.611 67.143067 
L 68.693667 67.070095 
L 68.709167 67.083108 
L 68.921 66.947284 
L 69.034667 66.834833 
L 69.050167 66.878946 
L 69.169 66.83699 
L 69.1845 66.85151 
L 69.3705 66.853934 
L 69.210333 66.793836 
L 69.380833 66.832716 
L 69.4945 66.760168 
L 69.504833 66.769896 
L 69.5565 66.758008 
L 69.520333 66.732253 
L 69.577167 66.68714 
L 69.670167 66.623989 
L 69.696 66.638518 
L 69.701167 66.6585 
L 69.768333 66.566365 
L 69.799333 66.610436 
L 69.980167 66.52146 
L 70.062833 66.589652 
L 70.099 66.57217 
L 70.197167 66.492256 
L 70.243667 66.571084 
L 70.3625 66.606326 
L 70.279833 66.549739 
L 70.367667 66.600429 
L 70.512333 66.445849 
L 70.522667 66.464749 
L 70.729333 66.573935 
L 70.775833 66.555067 
L 70.791333 66.515226 
L 70.7965 66.517218 
L 70.910167 66.391931 
L 70.9205 66.400831 
L 70.956667 66.446204 
L 71.003167 66.349973 
L 71.018667 66.367328 
L 71.054833 66.293651 
L 71.116833 66.401372 
L 71.122 66.393317 
L 71.225333 66.389418 
L 71.142667 66.365374 
L 71.2305 66.35118 
L 71.2615 66.302425 
L 71.328667 66.369865 
L 71.411333 66.433023 
L 71.359667 66.361713 
L 71.442333 66.3909 
L 71.576667 66.449542 
L 71.721333 66.542665 
L 71.731667 66.528186 
L 71.809167 66.446109 
L 71.860833 66.495355 
L 71.959 66.509403 
L 71.871167 66.505348 
L 71.969333 66.528651 
L 71.979667 66.560983 
L 72.0055 66.49482 
L 72.077833 66.519528 
L 72.196667 66.541101 
L 72.103667 66.498981 
L 72.201833 66.52956 
L 72.212167 66.490127 
L 72.289667 66.584949 
L 72.305167 66.550663 
L 72.3465 66.59433 
L 72.387833 66.480037 
L 72.6875 66.347672 
L 72.713333 66.385993 
L 72.796 66.432944 
L 72.816667 66.352053 
L 73.1215 66.275531 
L 73.219667 66.195069 
L 73.2455 66.227844 
L 73.3695 66.307212 
L 73.266167 66.192345 
L 73.385 66.280327 
L 73.447 66.360399 
L 73.612333 66.213195 
L 73.6175 66.225748 
L 73.658833 66.105074 
L 73.700167 66.136355 
L 73.824167 66.033039 
L 73.829333 66.045792 
L 73.932667 65.934181 
L 74.092833 65.754035 
L 73.9585 65.94712 
L 74.098 65.767511 
L 74.1755 65.664426 
L 74.325333 64.99412 
L 74.366667 63.975664 
L 74.3925 51.925506 
L 74.501 61.001699 
L 74.557833 65.618697 
L 74.681833 65.220993 
L 74.842 64.141371 
L 74.862667 62.472655 
L 74.878167 53.983367 
L 74.971167 62.482807 
L 75.002167 65.969477 
L 75.100333 65.52084 
L 75.307 62.324861 
L 75.3225 53.622902 
L 75.4155 62.259359 
L 75.451667 66.403905 
L 75.544667 65.84047 
L 75.772 63.208825 
L 75.792667 53.330045 
L 75.885667 61.929636 
L 75.921833 66.831675 
L 76.025167 66.162028 
L 76.2835 62.644246 
L 76.299 52.948379 
L 76.392 61.269055 
L 76.433333 67.210824 
L 76.5625 66.368152 
L 76.846667 63.682773 
L 76.867333 52.719443 
L 76.9655 61.36924 
L 77.006833 67.479025 
L 77.130833 66.665863 
L 77.508 64.192309 
L 77.5235 61.579725 
L 77.539 52.666048 
L 77.632 61.305092 
L 77.673333 67.493907 
L 77.797333 66.740666 
L 78.0815 65.444474 
L 78.086667 65.451283 
L 78.107333 65.316772 
L 78.1125 65.318306 
L 78.226167 64.486865 
L 78.252 61.274127 
L 78.262333 52.579203 
L 78.3605 61.428699 
L 78.401833 67.530933 
L 78.520667 66.783063 
L 78.562 66.562274 
L 78.758333 65.756535 
L 79.052833 64.220296 
L 79.0735 58.721513 
L 79.083833 52.470629 
L 79.176833 61.404336 
L 79.223333 67.455818 
L 79.337 66.73264 
L 79.688333 65.468993 
L 79.9415 64.932715 
L 79.998333 63.735087 
L 80.024167 52.46738 
L 80.117167 61.800688 
L 80.1585 67.350915 
L 80.261833 66.68739 
L 80.990333 64.188662 
L 81.011 60.092824 
L 81.0265 52.503038 
L 81.1195 62.270684 
L 81.155667 67.194074 
L 81.253833 66.603172 
L 81.470833 65.702921 
L 81.827333 64.906976 
L 81.8325 64.914637 
L 81.8635 64.781673 
L 81.915167 63.759265 
L 81.941 52.506699 
L 82.034 62.128669 
L 82.070167 67.237146 
L 82.168333 66.67634 
L 82.385333 65.854934 
L 82.3905 65.855688 
L 82.555833 65.695471 
L 82.623 65.775271 
L 82.674667 65.721454 
L 82.685 65.687366 
L 82.710833 65.817496 
L 82.7315 65.822604 
L 82.896833 66.151754 
L 82.912333 66.119762 
L 82.922667 66.192222 
L 82.989833 66.215706 
L 83.496167 67.13674 
L 83.522 67.147232 
L 83.553 67.228202 
L 83.713167 67.507636 
L 83.728667 67.495854 
L 83.7855 67.600438 
L 83.987 67.974658 
L 84.038667 68.021307 
L 84.043833 68.050799 
L 84.229833 68.432797 
L 84.235 68.423737 
L 84.297 68.527368 
L 84.302167 68.515024 
L 84.514 68.811681 
L 84.539833 68.786334 
L 84.658667 68.731781 
L 84.787833 68.869874 
L 84.844667 68.860816 
L 84.8705 68.948357 
L 84.979 69.06752 
L 85.185667 69.385934 
L 85.2115 69.371478 
L 85.252833 69.313353 
L 85.330333 69.354627 
L 85.511167 69.456789 
L 85.5215 69.420162 
L 85.5525 69.324788 
L 85.63 69.398053 
L 85.661 69.466909 
L 85.7385 69.392481 
L 85.903833 69.236935 
L 85.909 69.239336 
L 85.996833 69.275744 
L 86.022667 69.235418 
L 86.136333 69.226432 
L 86.146667 69.237551 
L 86.151833 69.258194 
L 86.1725 69.181496 
L 86.244833 69.178147 
L 86.25 69.18382 
L 86.306833 69.090218 
L 86.312 69.105714 
L 86.348167 69.0566 
L 86.399833 69.143092 
L 86.4205 69.128639 
L 86.554833 69.137478 
L 86.436 69.106325 
L 86.570333 69.10763 
L 86.756333 69.062531 
L 86.766667 69.085827 
L 86.875167 69.196896 
L 86.890667 69.172181 
L 87.097333 69.273609 
L 87.112833 69.250409 
L 87.2885 69.135918 
L 87.469333 69.124503 
L 87.577833 69.099564 
L 87.583 69.091757 
L 87.732833 68.888858 
L 87.7845 68.992261 
L 87.8465 68.887472 
L 88.611167 68.29893 
L 87.872333 68.920726 
L 88.626667 68.342591 
L 88.724833 68.419559 
L 88.7455 68.374725 
L 88.7765 68.324242 
L 88.823 68.411539 
L 88.848833 68.412202 
L 89.034833 68.497421 
L 89.04 68.492781 
L 89.164 68.38622 
L 89.282833 68.414722 
L 89.386167 68.27543 
L 89.437833 68.300678 
L 89.4895 68.279249 
L 89.561833 68.337002 
L 89.6135 68.245182 
L 89.670333 68.33246 
L 89.840833 68.391032 
L 89.97 68.24331 
L 89.975167 68.256868 
L 89.990667 68.273325 
L 90.063 68.184386 
L 90.223167 68.198688 
L 90.238667 68.133421 
L 90.331667 68.184121 
L 90.352333 68.239577 
L 90.3885 68.142782 
L 90.440167 68.173656 
L 90.59 68.038868 
L 90.610667 68.080159 
L 90.652 68.084753 
L 90.693333 68.006495 
L 90.6985 68.004746 
L 90.812167 67.918786 
L 90.827667 67.943138 
L 91.148 67.972252 
L 91.158333 67.914198 
L 91.297833 67.867617 
L 91.995333 67.475388 
L 92.0005 67.507129 
L 92.114167 67.585947 
L 92.021167 67.475622 
L 92.14 67.523027 
L 92.212333 67.390039 
L 92.2795 67.440895 
L 92.388 67.526062 
L 92.398333 67.50145 
L 92.548167 67.446458 
L 92.574 67.475216 
L 92.703167 67.534556 
L 92.734167 67.494564 
L 92.853 67.438059 
L 92.858167 67.444005 
L 92.915 67.487754 
L 92.894333 67.42969 
L 92.966667 67.438309 
L 93.0235 67.490005 
L 93.095833 67.410163 
L 93.152667 67.432717 
L 93.126833 67.390063 
L 93.204333 67.400495 
L 93.369667 67.272602 
L 93.3955 67.301004 
L 93.684833 67.287092 
L 93.7055 67.233579 
L 93.762333 67.36892 
L 93.783 67.367414 
L 93.803667 67.332933 
L 93.8915 67.374919 
L 94.434 67.257936 
L 94.532167 67.189159 
L 94.552833 67.216938 
L 94.661333 67.26472 
L 94.6665 67.244794 
L 94.816333 67.149656 
L 94.837 67.167308 
L 95.167667 67.150554 
L 95.178 67.104333 
L 95.234833 67.174335 
L 95.281333 67.151012 
L 95.834167 67.239539 
L 95.8445 67.275141 
L 95.896167 67.182984 
L 95.9375 67.198334 
L 95.973667 67.151639 
L 96.046 67.157054 
L 96.175167 67.108486 
L 96.180333 67.135496 
L 96.242333 67.088361 
L 96.2475 67.065702 
L 96.288833 67.032021 
L 96.335333 67.094231 
L 96.350833 67.093886 
L 96.366333 67.125702 
L 96.418 67.049259 
L 96.454167 67.062363 
L 96.459333 67.034365 
L 96.542 67.176941 
L 96.6505 67.140694 
L 96.5575 67.219999 
L 96.666 67.181902 
L 96.728 67.274544 
L 96.795167 67.240202 
L 96.815833 67.206607 
L 96.862333 67.276113 
L 96.903667 67.247172 
L 97.089667 67.268383 
L 97.1 67.242422 
L 97.213667 67.188231 
L 97.224 67.208267 
L 97.255 67.157187 
L 97.342833 67.204866 
L 97.472 67.084628 
L 97.606333 67.068233 
L 97.6115 67.082517 
L 97.668333 67.187428 
L 97.740667 67.156125 
L 97.751 67.159757 
L 97.787167 67.0799 
L 97.802667 67.067531 
L 97.807833 67.054026 
L 97.849167 67.132652 
L 97.900833 67.112762 
L 97.993833 67.043628 
L 98.0145 67.105024 
L 98.143667 66.974868 
L 98.154 67.023058 
L 98.298667 67.145487 
L 98.371 67.115043 
L 98.391667 67.20512 
L 98.402 67.193852 
L 98.557 67.081578 
L 98.619 67.037071 
L 98.6655 67.108274 
L 98.686167 67.092702 
L 98.784333 67.093552 
L 98.954833 67.126211 
L 98.9755 67.091845 
L 99.053 67.07241 
L 99.0065 67.100568 
L 99.084 67.100953 
L 99.27 67.246564 
L 99.290667 67.219515 
L 99.368167 67.136461 
L 99.404333 67.222362 
L 99.5025 67.232055 
L 99.461167 67.195895 
L 99.512833 67.212044 
L 99.704 67.018852 
L 99.5335 67.222206 
L 99.714333 67.037944 
L 99.9055 67.145376 
L 99.910667 67.135776 
L 99.977833 67.094095 
L 99.926167 67.146953 
L 100.024333 67.12888 
L 100.329167 67.029924 
L 100.51 66.897311 
L 100.520333 66.915723 
L 100.561667 66.890023 
L 100.654667 66.947272 
L 100.768333 66.883577 
L 100.789 66.890661 
L 100.814833 66.86015 
L 100.876833 66.938051 
L 100.882 66.970802 
L 100.907833 66.897659 
L 100.985333 66.932199 
L 101.000833 66.951644 
L 101.13 66.934542 
L 101.2385 67.00556 
L 101.254 66.972346 
L 101.3935 66.916095 
L 101.5795 66.798913 
L 101.595 66.834789 
L 101.713833 66.892385 
L 101.719 66.887587 
L 102.023833 66.770827 
L 102.039333 66.806948 
L 102.147833 66.871673 
L 102.158167 66.85709 
L 102.178833 66.874246 
L 102.287333 66.822236 
L 102.390667 66.872442 
L 102.406167 66.810866 
L 102.411333 66.786399 
L 102.457833 66.852532 
L 102.514667 66.832014 
L 102.690333 66.843421 
L 102.700667 66.818645 
L 102.871167 66.759091 
L 103.015833 66.76033 
L 103.072667 66.711262 
L 103.134667 66.755335 
L 103.356833 66.869081 
L 103.362 66.88416 
L 103.424 66.75646 
L 103.4395 66.778355 
L 103.449833 66.775215 
L 103.475667 66.890609 
L 103.491167 66.919562 
L 103.506667 66.852622 
L 103.579 66.862199 
L 103.852833 66.844492 
L 103.868333 66.855333 
L 103.987167 66.73224 
L 104.126667 66.84855 
L 104.219667 66.812396 
L 104.147333 66.864311 
L 104.2455 66.823822 
L 104.328167 66.84617 
L 104.271333 66.868089 
L 104.3385 66.878226 
L 104.4315 66.915658 
L 104.447 66.891682 
L 104.560667 66.896869 
L 104.565833 66.904998 
L 104.720833 66.973448 
L 104.824167 67.023309 
L 104.860333 66.985442 
L 105.123833 66.799791 
L 105.2685 66.70794 
L 106.348333 66.794506 
L 106.4 66.716772 
L 106.462 66.767958 
L 106.839167 66.827168 
L 106.885667 66.790007 
L 106.937333 66.881569 
L 106.968333 66.883259 
L 107.009667 66.802591 
L 107.030333 66.822441 
L 107.1905 66.693121 
L 107.211167 66.717744 
L 107.257667 66.735947 
L 107.226667 66.707696 
L 107.319667 66.69538 
L 107.3455 66.70758 
L 107.366167 66.782431 
L 107.371333 66.808992 
L 107.459167 66.729404 
L 107.4695 66.743834 
L 107.795 66.65708 
L 107.851833 66.71603 
L 107.919 66.666434 
L 108.198 66.625548 
L 108.203167 66.636968 
L 108.564833 66.827128 
L 108.5855 66.797441 
L 108.601 66.760146 
L 108.699167 66.789446 
L 108.7405 66.85972 
L 108.812833 66.800819 
L 108.8645 66.785265 
L 108.885167 66.872456 
L 108.916167 66.827029 
L 108.993667 66.856842 
L 109.014333 66.798061 
L 109.0195 66.805485 
L 109.128 66.816846 
L 109.133167 66.829416 
L 109.138333 66.861622 
L 109.153833 66.817818 
L 109.2365 66.807255 
L 109.324333 66.756783 
L 109.355333 66.779436 
L 109.432833 66.774579 
L 109.3915 66.826718 
L 109.458667 66.828902 
L 109.572333 66.884139 
L 109.603333 66.848056 
L 109.629167 66.810596 
L 109.680833 66.876802 
L 109.706667 66.875695 
L 109.804833 66.937593 
L 109.722167 66.847964 
L 109.841 66.909144 
L 109.851333 66.864156 
L 109.928833 66.985372 
L 109.939167 66.970704 
L 109.985667 66.869358 
L 110.052833 66.912663 
L 110.12 66.804792 
L 110.300833 66.835101 
L 110.311167 66.858875 
L 110.399 66.771766 
L 110.8795 66.735554 
L 110.900167 66.785744 
L 110.962167 66.680768 
L 110.988 66.725543 
L 111.380667 66.725235 
L 111.385833 66.762816 
L 111.494333 66.823346 
L 111.4375 66.736197 
L 111.504667 66.79621 
L 111.571833 66.830955 
L 111.628667 66.772996 
L 111.768167 66.868939 
L 111.804333 66.813943 
L 111.845667 66.732981 
L 111.9335 66.767661 
L 112.109167 67.033725 
L 112.1195 67.021309 
L 112.155667 67.05531 
L 112.207333 66.961506 
L 112.331333 66.852248 
L 112.346833 66.879877 
L 112.496667 66.989972 
L 112.501833 66.964424 
L 112.507 66.953328 
L 112.579333 67.060991 
L 112.6 67.100627 
L 112.667167 67.003028 
L 112.6775 67.028523 
L 112.853167 66.838259 
L 112.91 66.905045 
L 112.972 66.861537 
L 113.054667 66.823031 
L 113.085667 66.871135 
L 113.209667 66.93782 
L 113.214833 66.918762 
L 113.375 66.789792 
L 113.571333 66.788123 
L 113.5765 66.80387 
L 113.6385 66.786431 
L 113.7005 66.850945 
L 113.814167 66.852839 
L 113.819333 66.868069 
L 113.907167 66.909522 
L 113.938167 66.874182 
L 113.958833 66.883023 
L 114.0105 66.796127 
L 114.077667 66.729951 
L 114.031167 66.808436 
L 114.129333 66.768902 
L 114.201667 66.842673 
L 114.243 66.773917 
L 114.3515 66.766075 
L 114.356667 66.771929 
L 114.408333 66.801301 
L 114.367 66.763774 
L 114.465167 66.744962 
L 114.470333 66.734477 
L 114.501333 66.814373 
L 114.563333 66.794705 
L 114.635667 66.775469 
L 114.578833 66.769309 
L 114.651167 66.728001 
L 114.77 66.715042 
L 114.7855 66.747781 
L 114.873333 66.737625 
L 114.801 66.736333 
L 114.8785 66.721814 
L 114.930167 66.74255 
L 114.997333 66.66929 
L 115.452 66.696699 
L 115.555333 66.781446 
L 115.596667 66.743027 
L 115.669 66.72464 
L 115.705167 66.766869 
L 115.834333 66.738744 
L 115.8395 66.742526 
L 115.948 66.762657 
L 115.849833 66.734378 
L 115.9635 66.728967 
L 116.046167 66.672035 
L 116.0875 66.720133 
L 116.232167 66.722549 
L 116.402667 66.635029 
L 116.407833 66.640269 
L 116.5215 66.668065 
L 116.531833 66.646271 
L 116.743667 66.733379 
L 116.759167 66.698733 
L 116.878 66.548011 
L 116.8935 66.56426 
L 116.914167 66.612751 
L 116.9865 66.534214 
L 117.027833 66.481473 
L 117.100167 66.519999 
L 117.136333 66.56573 
L 117.213833 66.538056 
L 117.219 66.56934 
L 117.301667 66.442717 
L 117.306833 66.447963 
L 117.425667 66.365916 
L 117.430833 66.370769 
L 117.952667 65.992876 
L 117.983667 66.042909 
L 118.149 66.061358 
L 118.169667 65.992571 
L 118.190333 66.00795 
L 118.2885 65.932132 
L 118.329833 65.931825 
L 118.366 65.83688 
L 118.5365 65.511818 
L 118.655333 65.090189 
L 118.712167 64.271463 
L 118.727667 62.266404 
L 118.743167 51.951353 
L 118.836167 60.23364 
L 118.9085 65.554656 
L 119.027333 65.185637 
L 119.115167 64.883858 
L 119.213333 63.69503 
L 119.239167 53.987236 
L 119.332167 62.810251 
L 119.368333 65.929195 
L 119.456167 65.498341 
L 119.554333 65.073125 
L 119.668 63.394366 
L 119.688667 53.608128 
L 119.781667 62.303368 
L 119.817833 66.40146 
L 119.910833 65.841287 
L 120.133 64.070634 
L 120.1485 61.603088 
L 120.164 53.306451 
L 120.257 61.914211 
L 120.293167 66.855987 
L 120.3965 66.202731 
L 120.670333 62.696778 
L 120.685833 52.916597 
L 120.778833 61.2652 
L 120.820167 67.192068 
L 120.949333 66.3628 
L 121.254167 63.353341 
L 121.274833 52.800773 
L 121.367833 61.269001 
L 121.409167 67.426791 
L 121.538333 66.579005 
L 121.9155 63.393403 
L 121.936167 52.649053 
L 122.029167 61.260455 
L 122.075667 67.502122 
L 122.199667 66.690139 
L 122.468333 65.444844 
L 122.633667 64.267953 
L 122.654333 59.437577 
L 122.664667 52.528956 
L 122.762833 61.658592 
L 122.804167 67.518508 
L 122.912667 66.828946 
L 123.145167 65.796245 
L 123.491333 64.00306 
L 123.506833 59.590627 
L 123.517167 52.479008 
L 123.615333 61.91869 
L 123.656667 67.407229 
L 123.754833 66.76661 
L 124.0855 65.56806 
L 124.374833 64.786535 
L 124.374833 64.786535 
" style="fill:none;stroke:#000000;stroke-linecap:square;stroke-width:0.3;"/>
   </g>
   <g id="line2d_4">
    <path clip-path="url(#pf546525c2b)" d="M 103.196667 10.87276 
L 123.822 10.87276 
" style="fill:none;stroke:#000000;stroke-linecap:square;"/>
   </g>
   <g id="line2d_5">
    <path clip-path="url(#pf546525c2b)" d="M 124.38 18.323325 
L 124.38 11.021772 
" style="fill:none;stroke:#000000;stroke-linecap:square;"/>
   </g>
  </g>
 </g>
 <defs>
  <clipPath id="pf546525c2b">
   <rect height="65.232" width="122.76" x="7.2" y="7.2"/>
  </clipPath>
 </defs>
</svg>
