<?xml version="1.0" encoding="utf-8" standalone="no"?>
<!DOCTYPE svg PUBLIC "-//W3C//DTD SVG 1.1//EN"
  "http://www.w3.org/Graphics/SVG/1.1/DTD/svg11.dtd">
<!-- Created with matplotlib (https://matplotlib.org/) -->
<svg height="79.632pt" version="1.1" viewBox="0 0 137.16 79.632" width="137.16pt" xmlns="http://www.w3.org/2000/svg" xmlns:xlink="http://www.w3.org/1999/xlink">
 <metadata>
  <rdf:RDF xmlns:cc="http://creativecommons.org/ns#" xmlns:dc="http://purl.org/dc/elements/1.1/" xmlns:rdf="http://www.w3.org/1999/02/22-rdf-syntax-ns#">
   <cc:Work>
    <dc:type rdf:resource="http://purl.org/dc/dcmitype/StillImage"/>
    <dc:date>2020-12-17T15:53:08.927743</dc:date>
    <dc:format>image/svg+xml</dc:format>
    <dc:creator>
     <cc:Agent>
      <dc:title>Matplotlib v3.3.2, https://matplotlib.org/</dc:title>
     </cc:Agent>
    </dc:creator>
   </cc:Work>
  </rdf:RDF>
 </metadata>
 <defs>
  <style type="text/css">*{stroke-linecap:butt;stroke-linejoin:round;}</style>
 </defs>
 <g id="figure_1">
  <g id="patch_1">
   <path d="M 0 79.632 
L 137.16 79.632 
L 137.16 0 
L 0 0 
z
" style="fill:none;"/>
  </g>
  <g id="axes_1">
   <g id="patch_2">
    <path d="M 7.2 72.432 
L 129.96 72.432 
L 129.96 7.2 
L 7.2 7.2 
z
" style="fill:none;"/>
   </g>
   <g id="matplotlib.axis_1"/>
   <g id="matplotlib.axis_2"/>
   <g id="line2d_1">
    <path clip-path="url(#p5401213a15)" d="M 12.78 23.415456 
L 12.914333 23.220962 
L 13.022833 23.092567 
L 13.048667 23.102941 
L 13.053833 23.110543 
L 13.1055 23.013589 
L 13.296667 22.648036 
L 13.301833 22.651013 
L 13.312167 22.663188 
L 13.338 22.589519 
L 13.358667 22.562111 
L 13.627333 20.853976 
L 13.71 16.205337 
L 13.761667 20.229884 
L 13.8495 21.866236 
L 13.896 21.775855 
L 14.056167 20.695995 
L 14.164667 19.834977 
L 14.216333 20.085115 
L 14.381667 20.544222 
L 14.4385 20.501738 
L 14.743333 20.519082 
L 14.851833 20.546283 
L 14.9655 20.634705 
L 14.981 20.610591 
L 15.037833 20.620179 
L 15.068833 20.663376 
L 15.192833 20.726171 
L 15.198 20.714462 
L 15.327167 20.682727 
L 15.342667 20.70655 
L 15.471833 20.753784 
L 15.539 20.823978 
L 15.590667 20.763933 
L 15.719833 20.87137 
L 15.7405 20.850725 
L 15.7715 20.815185 
L 15.8025 20.907127 
L 15.838667 20.905805 
L 16.045333 21.063407 
L 16.1125 21.16744 
L 16.169333 21.105837 
L 17.047667 22.010224 
L 17.207833 22.31915 
L 17.218167 22.292497 
L 17.409333 22.823441 
L 17.5695 23.162844 
L 17.647 23.274312 
L 17.8175 23.656817 
L 17.962167 23.801646 
L 18.112 24.145276 
L 18.1275 24.09121 
L 18.199833 24.228557 
L 19.073 25.333616 
L 19.078167 25.329211 
L 19.098833 25.310873 
L 19.160833 25.407364 
L 19.171167 25.394561 
L 19.419167 25.658705 
L 19.424333 25.653421 
L 19.4295 25.633672 
L 19.465667 25.716734 
L 19.532833 25.67633 
L 19.6155 25.823138 
L 19.662 25.813952 
L 19.693 25.836849 
L 19.713667 25.904291 
L 19.718833 25.899208 
L 19.966833 26.2743 
L 19.977167 26.242342 
L 20.054667 26.351936 
L 20.065 26.328818 
L 20.225167 26.574724 
L 20.364667 26.866023 
L 20.509333 27.040688 
L 20.695333 27.075294 
L 20.829667 27.197391 
L 20.9485 27.260044 
L 20.958833 27.251406 
L 21.077667 27.253281 
L 21.005333 27.299151 
L 21.082833 27.257576 
L 21.222333 27.41319 
L 21.248167 27.362821 
L 21.336 27.403173 
L 21.4135 27.506092 
L 21.465167 27.492054 
L 21.563333 27.426201 
L 21.578833 27.458877 
L 21.697667 27.643428 
L 21.718333 27.617284 
L 21.7545 27.54358 
L 21.8475 27.615656 
L 23.340667 27.264843 
L 23.387167 27.273317 
L 23.433667 27.219731 
L 23.438833 27.228357 
L 23.500833 27.115264 
L 23.573167 27.177781 
L 23.624833 27.206989 
L 23.671333 27.135352 
L 23.712667 27.155 
L 23.821167 27.008591 
L 23.8935 26.968051 
L 23.934833 27.025406 
L 23.976167 27.113087 
L 24.0485 27.054869 
L 24.2035 26.911309 
L 24.312 26.949585 
L 24.337833 26.932143 
L 24.379167 26.903214 
L 24.430833 26.995194 
L 24.895833 26.872388 
L 25.050833 26.660282 
L 25.1955 26.74078 
L 25.329833 26.744713 
L 25.459 26.624766 
L 25.495167 26.650329 
L 25.552 26.661625 
L 25.619167 26.71113 
L 25.670833 26.683407 
L 25.769 26.721894 
L 25.789667 26.688536 
L 25.836167 26.623379 
L 25.9085 26.647849 
L 26.037667 26.649767 
L 26.053167 26.636358 
L 26.161667 26.67935 
L 26.383833 26.502114 
L 26.389 26.505417 
L 26.471667 26.466923 
L 26.4355 26.434497 
L 26.482 26.441238 
L 26.5595 26.423532 
L 26.5905 26.45462 
L 26.616333 26.48151 
L 26.688667 26.398391 
L 26.781667 26.347705 
L 26.704167 26.409739 
L 26.812667 26.388015 
L 26.843667 26.471645 
L 26.890167 26.317425 
L 26.9005 26.321452 
L 27.127833 26.486628 
L 27.153667 26.537375 
L 27.2415 26.505075 
L 27.391333 26.452165 
L 27.422333 26.492345 
L 27.530833 26.53184 
L 27.546333 26.493361 
L 27.680667 26.291025 
L 27.685833 26.298921 
L 27.851167 26.371059 
L 28.104333 26.506093 
L 28.1095 26.493503 
L 28.207667 26.40001 
L 28.249 26.43267 
L 28.311 26.358998 
L 28.3575 26.453694 
L 28.398833 26.395099 
L 28.471167 26.455171 
L 28.5125 26.498108 
L 28.621 26.391973 
L 28.6365 26.415248 
L 28.693333 26.274715 
L 28.6985 26.277227 
L 28.703667 26.24422 
L 28.750167 26.374144 
L 28.796667 26.352754 
L 28.801833 26.383542 
L 28.9 26.320648 
L 28.910333 26.335178 
L 29.044667 26.282139 
L 29.111833 26.315211 
L 29.148 26.25461 
L 29.266833 26.189101 
L 29.184167 26.266043 
L 29.272 26.206029 
L 29.375333 26.256671 
L 29.390833 26.232437 
L 29.52 26.150125 
L 29.540667 26.193462 
L 29.6595 26.231354 
L 29.886833 26.172161 
L 29.9695 26.256846 
L 30.005667 26.225224 
L 30.2485 26.164343 
L 30.4345 25.997737 
L 30.5275 26.054353 
L 30.553333 26.042089 
L 30.703167 25.905867 
L 30.7445 25.973294 
L 30.822 25.988931 
L 30.796167 25.945325 
L 30.847833 25.936001 
L 30.966667 25.880345 
L 31.235333 25.83251 
L 31.245667 25.86237 
L 31.400667 25.969887 
L 31.281833 25.787558 
L 31.421333 25.952601 
L 31.431667 25.91292 
L 31.524667 26.006342 
L 31.560833 25.983975 
L 31.535 26.01479 
L 31.622833 26.059463 
L 31.659 26.13015 
L 31.726167 26.041457 
L 31.731333 26.015416 
L 31.793333 26.062423 
L 31.8295 26.053583 
L 31.917333 26.049802 
L 31.932833 26.014794 
L 32.330667 25.903889 
L 32.366833 25.867258 
L 32.454667 25.908305 
L 32.656167 25.910681 
L 32.687167 25.824889 
L 32.7595 25.935443 
L 32.904167 26.024945 
L 32.909333 26.01937 
L 33.043667 26.094401 
L 33.064333 26.058686 
L 33.141833 25.932679 
L 33.188333 26.00709 
L 33.560333 25.8463 
L 33.643 25.764867 
L 33.674 25.8256 
L 33.772167 25.82972 
L 33.777333 25.81398 
L 33.901333 25.789879 
L 34.020167 25.816009 
L 34.180333 25.930736 
L 34.1855 25.914113 
L 34.2165 25.950389 
L 34.361167 25.79759 
L 34.418 25.762101 
L 34.48 25.798347 
L 34.578167 25.644649 
L 34.609167 25.678462 
L 34.6815 25.624571 
L 34.733167 25.692489 
L 34.857167 25.732393 
L 35.069 25.571672 
L 35.089667 25.596372 
L 35.9835 25.470056 
L 35.988667 25.475888 
L 36.040333 25.395196 
L 36.055833 25.388656 
L 36.1075 25.336886 
L 36.164333 25.405703 
L 36.221167 25.463404 
L 36.288333 25.442901 
L 36.2935 25.450278 
L 36.3555 25.348497 
L 36.360667 25.353965 
L 36.376167 25.30945 
L 36.551833 25.376803 
L 36.6035 25.348008 
L 36.5725 25.396572 
L 36.655167 25.41622 
L 36.8825 25.205546 
L 37.001333 25.147531 
L 37.058167 25.20496 
L 37.016833 25.103203 
L 37.115 25.147294 
L 37.394 25.252192 
L 37.528333 25.336747 
L 37.430167 25.215502 
L 37.5335 25.331635 
L 37.6265 25.249711 
L 37.667833 25.274155 
L 37.776333 25.304709 
L 37.910667 25.425784 
L 37.941667 25.43705 
L 37.988167 25.358195 
L 38.008833 25.328417 
L 38.065667 25.420291 
L 38.0915 25.373626 
L 38.096667 25.386081 
L 38.117333 25.31755 
L 38.1845 25.333519 
L 38.3085 25.301966 
L 38.406667 25.303117 
L 38.411833 25.275198 
L 39.285 25.176198 
L 39.305667 25.208501 
L 39.367667 25.124874 
L 39.383167 25.136548 
L 39.465833 25.050286 
L 39.512333 25.100508 
L 39.595 25.121374 
L 39.527833 25.072993 
L 39.6105 25.062111 
L 39.791333 24.85546 
L 39.822333 24.903335 
L 39.9205 24.895375 
L 39.848167 24.866169 
L 39.925667 24.879228 
L 40.034167 24.868973 
L 39.9825 24.913982 
L 40.039333 24.878329 
L 40.091 24.828794 
L 40.127167 24.940455 
L 40.189167 24.955682 
L 40.215 24.893015 
L 40.225333 24.895237 
L 40.328667 24.863426 
L 40.364833 24.900796 
L 40.375167 24.92998 
L 40.432 24.84803 
L 40.468167 24.868402 
L 40.525 24.838063 
L 40.5715 24.906942 
L 40.581833 24.961486 
L 40.674833 24.874742 
L 40.736833 24.797319 
L 40.793667 24.846774 
L 40.886667 24.81647 
L 40.8195 24.811356 
L 40.891833 24.804852 
L 40.953833 24.750849 
L 41.010667 24.802803 
L 41.083 24.853916 
L 41.119167 24.787197 
L 41.858 24.523544 
L 41.878667 24.574444 
L 41.945833 24.449607 
L 41.956167 24.466223 
L 41.9975 24.488826 
L 42.038833 24.410084 
L 42.049167 24.407066 
L 42.1835 24.239517 
L 42.199 24.257641 
L 42.333333 24.221188 
L 42.488333 23.999685 
L 42.503833 24.011759 
L 42.514167 24.04071 
L 42.5555 23.912409 
L 42.5865 23.914008 
L 42.7415 23.792593 
L 42.746667 23.806931 
L 43.025667 23.361894 
L 42.757 23.819417 
L 43.036 23.367033 
L 43.061833 23.423751 
L 43.108333 23.294652 
L 43.123833 23.293142 
L 43.697333 22.018972 
L 43.8265 19.819424 
L 43.878167 16.042979 
L 43.929833 19.777588 
L 43.986667 20.74718 
L 44.053833 20.413102 
L 44.2295 19.886557 
L 44.317333 20.033725 
L 44.389667 19.976842 
L 44.4 19.994759 
L 44.487833 20.007211 
L 44.596333 20.048089 
L 44.606667 20.042261 
L 44.689333 20.11112 
L 44.7255 20.038306 
L 44.8805 20.118726 
L 44.989 20.106061 
L 44.9115 20.160975 
L 44.999333 20.13297 
L 45.123333 20.17516 
L 45.4385 20.274669 
L 45.474667 20.245448 
L 45.5315 20.33266 
L 45.536667 20.328094 
L 45.691667 20.352508 
L 45.789833 20.426236 
L 45.826 20.386885 
L 45.8415 20.366734 
L 45.898333 20.484447 
L 45.924167 20.439807 
L 46.043 20.567321 
L 46.1515 20.544254 
L 46.099833 20.585813 
L 46.156667 20.561472 
L 47.0505 21.195875 
L 47.184833 21.288402 
L 47.071167 21.183467 
L 47.19 21.283037 
L 47.221 21.258741 
L 47.272667 21.384411 
L 47.277833 21.372209 
L 47.314 21.434864 
L 47.365667 21.447356 
L 47.469 21.596335 
L 47.494833 21.590672 
L 47.841 22.173253 
L 47.846167 22.163051 
L 47.903 22.257203 
L 47.908167 22.258737 
L 48.094167 22.607963 
L 48.874333 24.088135 
L 49.044833 24.364009 
L 49.174 24.589408 
L 49.184333 24.578835 
L 49.4065 25.083823 
L 49.5615 25.353348 
L 49.571833 25.339997 
L 49.799167 25.795664 
L 49.990333 26.178106 
L 50.786 27.799182 
L 50.8015 27.785072 
L 50.91 27.838268 
L 51.059833 28.003563 
L 51.065 27.970586 
L 51.158 28.091563 
L 51.256167 28.155817 
L 51.261333 28.177989 
L 51.369833 28.225949 
L 51.385333 28.218975 
L 51.3905 28.203581 
L 51.447333 28.302 
L 51.4835 28.262837 
L 51.592 28.295861 
L 51.612667 28.272188 
L 51.922667 28.443179 
L 51.933 28.431704 
L 52.000167 28.361646 
L 51.943333 28.451591 
L 52.046667 28.414349 
L 52.0725 28.474237 
L 52.1345 28.366572 
L 52.15 28.380371 
L 52.160333 28.344855 
L 52.217167 28.435742 
L 52.248167 28.432118 
L 52.253333 28.440348 
L 52.299833 28.329189 
L 52.336 28.370536 
L 52.439333 28.432005 
L 52.542667 28.507431 
L 52.480667 28.415004 
L 52.558167 28.503243 
L 52.708 28.411913 
L 52.77 28.438657 
L 52.821667 28.387395 
L 52.8475 28.410872 
L 52.976667 28.319611 
L 53.142 28.405017 
L 53.152333 28.459427 
L 53.2505 28.396733 
L 53.2815 28.309543 
L 53.359 28.380385 
L 53.519167 28.496955 
L 53.5295 28.482513 
L 53.627667 28.391094 
L 53.658667 28.446986 
L 53.756833 28.497105 
L 53.772333 28.460765 
L 53.911833 28.333042 
L 53.787833 28.478178 
L 53.927333 28.365325 
L 54.108167 28.223877 
L 54.113333 28.237584 
L 54.258 28.409898 
L 54.263167 28.402082 
L 54.4285 28.209979 
L 54.599 28.070272 
L 54.661 27.975902 
L 54.717833 28.006895 
L 54.836667 28.053264 
L 54.878 28.092318 
L 54.9555 28.049251 
L 55.095 28.073902 
L 54.971 28.023837 
L 55.105333 28.057413 
L 55.270667 27.892866 
L 55.849333 27.569744 
L 55.8545 27.581101 
L 55.937167 27.644181 
L 55.968167 27.582362 
L 56.0715 27.565395 
L 56.014667 27.609717 
L 56.081833 27.57452 
L 56.541667 27.278006 
L 56.552 27.307526 
L 56.577833 27.307937 
L 56.619167 27.217323 
L 56.639833 27.249968 
L 56.645 27.235628 
L 56.7225 27.325732 
L 56.732833 27.308875 
L 56.743167 27.340001 
L 56.810333 27.211612 
L 56.924 27.109296 
L 56.975667 27.150198 
L 57.0325 27.246256 
L 57.0945 27.197841 
L 57.332167 27.018484 
L 57.3735 27.074184 
L 57.425167 27.120533 
L 57.471667 27.028075 
L 57.569833 27.049699 
L 57.5905 26.987655 
L 57.817833 26.881092 
L 57.874667 26.825675 
L 57.910833 26.850305 
L 57.983167 26.806476 
L 57.967667 26.870326 
L 58.0245 26.847268 
L 58.102 26.916416 
L 58.164 26.837646 
L 58.370667 26.702913 
L 58.412 26.778776 
L 58.479167 26.867674 
L 58.5515 26.828255 
L 58.696167 26.738318 
L 58.840833 26.88633 
L 58.851167 26.874961 
L 59.119833 27.116067 
L 59.125 27.096463 
L 59.290333 26.910632 
L 59.305833 26.941225 
L 59.3265 26.973086 
L 59.378167 26.872385 
L 59.3885 26.875503 
L 59.486667 26.820274 
L 59.507333 26.860507 
L 59.641667 26.989002 
L 59.657167 26.95176 
L 59.7295 26.905178 
L 59.765667 26.950632 
L 59.7915 26.994134 
L 59.848333 26.895114 
L 59.869 26.919824 
L 60.437333 26.640181 
L 60.4735 26.713761 
L 60.556167 26.658678 
L 60.587167 26.701274 
L 60.638833 26.613676 
L 60.649167 26.614921 
L 60.768 26.572329 
L 60.773167 26.576833 
L 60.8145 26.634788 
L 60.861 26.548838 
L 60.881667 26.555683 
L 61.005667 26.519819 
L 61.010833 26.522271 
L 61.346667 26.553471 
L 61.646333 26.488687 
L 61.6515 26.504992 
L 61.729 26.541359 
L 61.661833 26.497527 
L 61.765167 26.500277 
L 61.894333 26.552498 
L 61.904667 26.544871 
L 61.935667 26.590927 
L 62.028667 26.527312 
L 62.059667 26.603812 
L 62.106167 26.502572 
L 62.137167 26.503401 
L 62.2715 26.537062 
L 62.307667 26.503578 
L 62.318 26.462443 
L 62.354167 26.408253 
L 62.3955 26.486748 
L 62.431667 26.448597 
L 62.436833 26.461189 
L 62.514333 26.377882 
L 62.669333 26.256131 
L 62.932833 26.488794 
L 62.958667 26.535322 
L 63.031 26.449636 
L 63.041333 26.473517 
L 63.082667 26.561362 
L 63.160167 26.492181 
L 63.315167 26.575369 
L 63.320333 26.565827 
L 63.454667 26.564691 
L 63.465 26.571062 
L 63.490833 26.4721 
L 63.501167 26.466836 
L 63.62 26.4492 
L 63.6355 26.475098 
L 63.661333 26.422349 
L 63.723333 26.448492 
L 63.847333 26.347457 
L 63.9765 26.230557 
L 63.986833 26.266442 
L 64.0075 26.320573 
L 64.074667 26.216478 
L 64.085 26.222177 
L 64.147 26.195131 
L 64.183167 26.243326 
L 64.198667 26.278339 
L 64.229667 26.19012 
L 64.2865 26.202716 
L 64.426 26.272911 
L 64.467333 26.320844 
L 64.529333 26.324703 
L 64.6585 26.38146 
L 64.772167 26.441011 
L 64.787667 26.42609 
L 64.8135 26.36527 
L 64.891 26.459446 
L 64.994333 26.455308 
L 65.009833 26.419651 
L 65.1855 26.341813 
L 65.035667 26.445609 
L 65.190667 26.358521 
L 65.288833 26.390614 
L 65.304333 26.346367 
L 65.412833 26.298098 
L 65.361167 26.386525 
L 65.423167 26.311047 
L 65.4645 26.280741 
L 65.485167 26.22808 
L 65.490333 26.218567 
L 65.536833 26.313498 
L 65.562667 26.31276 
L 65.738333 26.363846 
L 65.748667 26.343172 
L 65.821 26.267397 
L 65.877833 26.308358 
L 65.893333 26.274979 
L 65.981167 26.260649 
L 65.986333 26.244969 
L 66.048333 26.322662 
L 66.079333 26.308647 
L 66.249833 26.394717 
L 66.255 26.384249 
L 66.2705 26.368662 
L 66.348 26.445479 
L 66.461667 26.516902 
L 66.472 26.495439 
L 66.539167 26.361686 
L 66.6115 26.432267 
L 66.844 26.578869 
L 66.849167 26.593635 
L 66.885333 26.527475 
L 66.942167 26.525858 
L 67.1075 26.545332 
L 67.112667 26.555637 
L 67.117833 26.583869 
L 67.195333 26.499414 
L 67.216 26.504611 
L 67.407167 26.514848 
L 67.433 26.460036 
L 67.520833 26.525083 
L 67.743 26.59112 
L 67.794667 26.51579 
L 67.856667 26.560946 
L 67.939333 26.561329 
L 67.898 26.515625 
L 67.970333 26.536638 
L 68.120167 26.40236 
L 68.239 26.430618 
L 68.249333 26.419775 
L 69.008833 26.412816 
L 69.163833 26.261338 
L 69.334333 26.110793 
L 69.4635 26.267261 
L 69.51 26.209009 
L 69.603 26.150504 
L 69.623667 26.196397 
L 69.737333 26.262695 
L 69.7425 26.250242 
L 69.923333 26.149916 
L 70.057667 26.063992 
L 70.078333 26.134721 
L 70.0835 26.146817 
L 70.161 26.056213 
L 70.217833 26.107858 
L 70.3005 26.010158 
L 70.378 26.010602 
L 70.398667 25.949135 
L 70.409 25.91647 
L 70.445167 26.008909 
L 70.471 26.019708 
L 70.522667 26.083479 
L 70.589833 26.028603 
L 70.615667 25.978637 
L 70.688 26.09115 
L 70.7035 26.123315 
L 70.786167 26.047794 
L 70.879167 26.078291 
L 70.8895 26.114634 
L 70.915333 26.131288 
L 70.972167 26.044567 
L 70.9825 26.055897 
L 70.987667 26.039818 
L 71.018667 26.115699 
L 71.0755 26.108359 
L 71.101333 26.128643 
L 71.1375 26.025282 
L 71.158167 26.041298 
L 71.256333 25.960344 
L 71.282167 25.996023 
L 71.457833 25.93679 
L 71.566333 25.859956 
L 71.581833 25.871334 
L 71.612833 25.913056 
L 71.669667 25.805137 
L 71.685167 25.829506 
L 71.783333 25.79702 
L 71.793667 25.835625 
L 71.933167 25.887263 
L 71.938333 25.874018 
L 71.995167 25.831886 
L 72.026167 25.917828 
L 72.041667 25.910822 
L 72.0985 25.942605 
L 72.134667 25.852342 
L 72.1605 25.8714 
L 72.3775 25.699842 
L 72.4085 25.718978 
L 72.4705 25.63659 
L 72.728833 25.536192 
L 72.863167 25.607852 
L 72.956167 25.48262 
L 73.007833 25.552189 
L 73.9895 25.300877 
L 73.994667 25.311494 
L 74.067 25.207288 
L 74.165167 25.152056 
L 74.098 25.245206 
L 74.196167 25.184854 
L 74.413167 25.185604 
L 74.418333 25.158543 
L 74.4235 25.132856 
L 74.459667 25.207169 
L 74.521667 25.19377 
L 74.526833 25.22273 
L 74.614667 25.10245 
L 74.619833 25.114896 
L 74.749 25.202362 
L 74.7645 25.182766 
L 74.774833 25.157353 
L 74.8575 25.223606 
L 74.873 25.203642 
L 75.0125 25.03058 
L 75.048667 25.04775 
L 75.162333 25.125214 
L 75.172667 25.107863 
L 75.332833 24.956995 
L 75.431 24.943592 
L 75.369 24.89079 
L 75.436167 24.917429 
L 75.493 24.785564 
L 75.555 24.857379 
L 75.668667 24.841095 
L 75.684167 24.865628 
L 75.777167 24.888898 
L 75.741 24.838926 
L 75.792667 24.864028 
L 76.014833 24.825811 
L 76.1285 24.91069 
L 76.144 24.906656 
L 76.216333 24.910243 
L 76.242167 24.842204 
L 76.955167 24.53955 
L 76.9655 24.567242 
L 77.048167 24.46781 
L 77.141167 24.356785 
L 77.172167 24.383692 
L 77.265167 24.386214 
L 77.223833 24.349808 
L 77.280667 24.376269 
L 77.425333 24.277573 
L 77.3375 24.398195 
L 77.4305 24.283013 
L 77.549333 24.319884 
L 77.466667 24.242006 
L 77.5545 24.306256 
L 78.479333 23.502573 
L 78.562 23.353106 
L 78.789333 22.93039 
L 78.7945 22.950553 
L 78.861667 22.808405 
L 79.182 20.734442 
L 79.254333 15.886378 
L 79.311167 19.928769 
L 79.357667 20.565191 
L 79.424833 20.154058 
L 79.579833 19.785308 
L 79.590167 19.810912 
L 79.672833 19.837091 
L 79.683167 19.847176 
L 79.7555 19.898831 
L 79.703833 19.82088 
L 79.802 19.885873 
L 79.8485 19.924101 
L 79.915667 19.900726 
L 80.081 19.965598 
L 80.091333 19.985955 
L 80.1895 19.967052 
L 80.292833 20.017428 
L 80.308333 19.992345 
L 80.701 20.137854 
L 80.706167 20.123991 
L 80.794 20.129252 
L 80.752667 20.163533 
L 80.804333 20.166701 
L 80.990333 20.20936 
L 81.135 20.257039 
L 81.140167 20.276927 
L 81.248667 20.314254 
L 81.253833 20.302673 
L 81.29 20.293213 
L 81.341667 20.377561 
L 81.4295 20.342421 
L 81.455333 20.407783 
L 81.517333 20.467708 
L 81.5535 20.419338 
L 81.651667 20.517184 
L 81.672333 20.485744 
L 81.749833 20.515928 
L 81.729167 20.53758 
L 81.755 20.544496 
L 81.884167 20.594474 
L 81.920333 20.599724 
L 81.935833 20.6694 
L 81.9565 20.682326 
L 82.152833 20.73872 
L 82.271667 20.876799 
L 82.307833 20.838874 
L 82.313 20.819429 
L 82.395667 20.920067 
L 82.400833 20.920925 
L 82.406 20.905243 
L 82.478333 21.037516 
L 83.671833 22.699414 
L 83.894 23.085005 
L 83.9095 23.06476 
L 83.950833 23.172712 
L 84.136833 23.524524 
L 84.142 23.517308 
L 84.183333 23.644448 
L 84.328 23.814678 
L 84.338333 23.810173 
L 84.3435 23.787502 
L 84.39 23.926122 
L 84.421 23.91699 
L 85.046167 25.051643 
L 85.051333 25.040677 
L 85.113333 25.137348 
L 85.1185 25.13702 
L 85.867667 26.843188 
L 85.9245 26.91043 
L 86.095 27.323129 
L 86.1105 27.314804 
L 86.177667 27.40218 
L 86.332667 27.742418 
L 86.3585 27.7393 
L 86.394667 27.836447 
L 86.565167 28.061374 
L 86.570333 28.043436 
L 86.957833 28.369021 
L 86.580667 28.024897 
L 86.963 28.347015 
L 87.092167 28.156621 
L 87.1025 28.16085 
L 87.608833 28.394061 
L 87.614 28.385897 
L 87.732833 28.358718 
L 87.6295 28.402397 
L 87.743167 28.383826 
L 87.955 28.280519 
L 87.965333 28.306508 
L 88.0325 28.391668 
L 88.0945 28.347497 
L 88.513 28.333631 
L 88.554333 28.271345 
L 88.626667 28.322074 
L 88.781667 28.192985 
L 88.786833 28.214378 
L 89.2415 28.236093 
L 89.267333 28.20909 
L 89.3655 28.226795 
L 89.5205 28.151304 
L 89.530833 28.196582 
L 89.6135 28.19505 
L 89.567 28.167785 
L 89.634167 28.162979 
L 89.742667 28.131799 
L 89.66 28.195331 
L 89.753 28.151219 
L 89.784 28.139335 
L 89.871833 28.189141 
L 89.995833 28.04233 
L 90.032 28.072569 
L 90.0475 28.101158 
L 90.119833 28.002277 
L 90.212833 27.982481 
L 90.161167 27.943305 
L 90.218 27.9567 
L 90.342 27.865395 
L 90.378167 27.893062 
L 90.4195 27.8055 
L 90.4505 27.840741 
L 90.502167 27.765528 
L 90.564167 27.822979 
L 90.703667 27.7971 
L 90.708833 27.778359 
L 90.8535 27.678377 
L 90.858667 27.684511 
L 90.889667 27.694592 
L 90.905167 27.620212 
L 90.920667 27.614721 
L 90.962 27.546889 
L 91.024 27.615382 
L 91.029167 27.639386 
L 91.117 27.540989 
L 91.122167 27.547226 
L 91.261667 27.443999 
L 91.153167 27.568178 
L 91.2875 27.476682 
L 91.551 27.273419 
L 91.613 27.24788 
L 91.5665 27.290468 
L 91.654333 27.299849 
L 91.788667 27.395282 
L 92.088333 27.095952 
L 92.0935 27.099494 
L 92.150333 27.106151 
L 92.1865 27.050442 
L 92.377667 26.867268 
L 92.419 26.923922 
L 92.491333 26.886448 
L 92.610167 26.736846 
L 92.625667 26.746001 
L 92.7755 26.591253 
L 92.858167 26.592212 
L 92.816833 26.568809 
L 92.878833 26.570082 
L 92.889167 26.535734 
L 92.9305 26.618856 
L 92.982167 26.600862 
L 93.095833 26.676252 
L 93.121667 26.631314 
L 93.2405 26.601725 
L 93.2715 26.660307 
L 93.3645 26.70511 
L 93.3025 26.637449 
L 93.38 26.639121 
L 94.098167 26.318274 
L 94.211833 26.336589 
L 94.217 26.32231 
L 94.361667 26.38375 
L 94.372 26.366023 
L 94.496 26.265505 
L 94.4185 26.380176 
L 94.5115 26.282257 
L 94.671667 26.175388 
L 94.676833 26.180038 
L 94.687167 26.210078 
L 94.7285 26.156121 
L 94.785333 26.157065 
L 95.095333 26.149675 
L 95.152167 26.166631 
L 95.2245 26.083192 
L 95.302 26.087034 
L 95.245167 26.109198 
L 95.327833 26.12568 
L 95.343333 26.153762 
L 95.389833 26.06231 
L 95.4105 26.052609 
L 95.5035 25.938683 
L 95.539667 25.963712 
L 95.637833 25.990398 
L 95.674 25.940399 
L 95.901333 25.869991 
L 95.911667 25.893927 
L 95.958167 25.901413 
L 95.973667 25.827987 
L 96.004667 25.85207 
L 96.139 25.752033 
L 96.149333 25.767054 
L 96.325 25.7276 
L 96.335333 25.763602 
L 96.361167 25.818049 
L 96.428333 25.695659 
L 96.578167 25.700866 
L 96.604 25.631055 
L 96.645333 25.738839 
L 96.6815 25.718079 
L 96.702167 25.743057 
L 96.769333 25.651421 
L 96.7745 25.652171 
L 96.888167 25.784948 
L 96.9295 25.71049 
L 97.120667 25.65055 
L 97.125833 25.684366 
L 97.224 25.606908 
L 97.554667 25.638237 
L 97.621833 25.695442 
L 97.663167 25.624508 
L 97.854333 25.47323 
L 97.906 25.421438 
L 97.885333 25.496727 
L 97.968 25.456502 
L 98.071333 25.456386 
L 98.092 25.508188 
L 98.133333 25.472276 
L 98.226333 25.559746 
L 98.236667 25.56966 
L 98.469167 25.409113 
L 98.5105 25.427504 
L 98.5415 25.365823 
L 98.557 25.359244 
L 98.567333 25.323604 
L 98.644833 25.446905 
L 98.65 25.446993 
L 98.655167 25.45223 
L 98.691333 25.337203 
L 98.6965 25.337125 
L 98.701667 25.326277 
L 98.779167 25.419069 
L 98.7895 25.440095 
L 99.507667 25.17512 
L 99.621333 25.164582 
L 99.6575 25.178279 
L 99.766 25.066632 
L 99.791833 25.116828 
L 99.9055 25.07974 
L 100.081167 25.413314 
L 100.608167 25.46886 
L 100.644333 25.462366 
L 100.721833 25.495724 
L 100.758 25.525219 
L 100.799333 25.444024 
L 100.814833 25.441239 
L 100.882 25.341749 
L 100.933667 25.414749 
L 101.533 25.328536 
L 101.5485 25.323962 
L 101.677667 25.44623 
L 101.698333 25.428927 
L 101.848167 25.524871 
L 101.936 25.466512 
L 101.972167 25.484193 
L 102.1065 25.617944 
L 102.344167 25.699036 
L 102.116833 25.601641 
L 102.359667 25.656256 
L 102.421667 25.657282 
L 102.390667 25.688093 
L 102.463 25.693556 
L 102.6335 25.73655 
L 102.643833 25.715717 
L 102.752333 25.681102 
L 102.767833 25.700887 
L 102.8815 25.823171 
L 102.886667 25.797796 
L 102.959 25.831003 
L 102.979667 25.869135 
L 103.527333 25.807254 
L 103.573833 25.724844 
L 103.646167 25.779032 
L 103.7495 25.752788 
L 103.6565 25.804906 
L 103.765 25.769376 
L 103.8115 25.731995 
L 103.883833 25.765439 
L 103.9045 25.792279 
L 104.049167 25.726153 
L 104.111167 25.680626 
L 104.178333 25.779702 
L 104.689833 25.673436 
L 104.695 25.692336 
L 104.777667 25.741466 
L 104.798333 25.673688 
L 104.8035 25.661128 
L 104.813833 25.712663 
L 104.886167 25.726183 
L 104.912 25.759893 
L 104.979167 25.644577 
L 105.222 25.47742 
L 105.232333 25.50893 
L 105.242667 25.481072 
L 105.3925 25.537493 
L 105.459667 25.435622 
L 105.526833 25.473213 
L 105.676667 25.613074 
L 105.687 25.604883 
L 105.821333 25.648379 
L 105.8265 25.66675 
L 105.935 25.68339 
L 105.945333 25.66758 
L 106.131333 25.507147 
L 106.1365 25.517436 
L 106.265667 25.511321 
L 106.276 25.533611 
L 106.374167 25.564438 
L 106.296667 25.512459 
L 106.394833 25.538865 
L 106.596333 25.432042 
L 106.648 25.435729 
L 106.617 25.471395 
L 106.684167 25.497781 
L 106.735833 25.525992 
L 106.761667 25.442146 
L 106.772 25.441025 
L 106.8185 25.405796 
L 106.8805 25.440399 
L 107.164667 25.665245 
L 107.175 25.630741 
L 107.180167 25.606187 
L 107.268 25.685491 
L 107.278333 25.648262 
L 107.3455 25.673743 
L 107.381667 25.631141 
L 107.4075 25.552332 
L 107.479833 25.67833 
L 107.485 25.699012 
L 107.578 25.615765 
L 107.7795 25.581943 
L 107.784667 25.599724 
L 107.862167 25.516205 
L 108.006833 25.402967 
L 108.012 25.410307 
L 108.068833 25.433715 
L 108.115333 25.371855 
L 108.161833 25.423386 
L 108.234167 25.355753 
L 108.2445 25.381457 
L 108.327167 25.301845 
L 108.5235 25.265683 
L 108.544167 25.293835 
L 108.6165 25.195684 
L 108.621667 25.209526 
L 108.730167 25.20016 
L 108.745667 25.213046 
L 108.7715 25.242825 
L 108.818 25.134708 
L 108.828333 25.142371 
L 108.9265 25.185754 
L 108.978167 25.232802 
L 109.014333 25.15789 
L 109.029833 25.173276 
L 109.122833 25.110906 
L 109.148667 25.170451 
L 109.169333 25.192747 
L 109.2055 25.051947 
L 109.210667 25.050743 
L 109.3295 25.004571 
L 109.334667 25.016236 
L 109.665333 24.918127 
L 109.742833 24.836391 
L 109.784167 24.879012 
L 109.799667 24.893439 
L 109.851333 24.754361 
L 109.8565 24.76113 
L 109.970167 24.732047 
L 110.2595 24.668239 
L 110.342167 24.646701 
L 110.300833 24.564957 
L 110.357667 24.603018 
L 110.523 24.487422 
L 110.548833 24.51179 
L 110.554 24.52419 
L 110.636667 24.44029 
L 110.678 24.497445 
L 110.750333 24.436026 
L 110.884667 24.58061 
L 111.0035 24.505866 
L 111.024167 24.515543 
L 111.117167 24.579272 
L 111.0345 24.501093 
L 111.148167 24.550553 
L 111.277333 24.333922 
L 111.2825 24.348486 
L 112.021333 23.903202 
L 112.036833 23.935264 
L 112.0575 23.946966 
L 112.109167 23.851974 
L 112.3055 23.595155 
L 112.315833 23.613891 
L 112.331333 23.571207 
L 112.403667 23.563772 
L 112.532833 23.427952 
L 112.755 23.146282 
L 112.791167 23.171122 
L 112.817 23.099983 
L 112.842833 23.091236 
L 113.0185 22.815545 
L 113.194167 22.350606 
L 113.375 20.190462 
L 113.431833 16.012998 
L 113.488667 19.951316 
L 113.535167 20.733947 
L 113.6075 20.336235 
L 113.721167 19.885168 
L 113.752167 19.897381 
L 113.927833 19.940708 
L 114.057 19.980476 
L 114.067333 19.955405 
L 114.129333 20.041584 
L 114.155167 20.018304 
L 114.237833 20.065431 
L 114.274 20.025507 
L 115.111 20.276454 
L 115.1265 20.258843 
L 115.152333 20.322082 
L 115.204 20.333487 
L 116.743667 21.330637 
L 116.8625 21.413499 
L 117.368833 22.282757 
L 117.684 22.903867 
L 118.479667 24.303762 
L 118.484833 24.28433 
L 118.49 24.271956 
L 118.546833 24.398925 
L 118.805167 24.952726 
L 118.960167 25.217104 
L 119.239167 25.75891 
L 119.394167 26.05728 
L 119.409667 26.045173 
L 119.461333 26.157717 
L 119.983167 27.301348 
L 120.102 27.42232 
L 120.1175 27.390895 
L 120.174333 27.460508 
L 120.324167 27.694173 
L 120.525667 27.888957 
L 120.701333 28.044819 
L 120.732333 27.957972 
L 120.809833 28.048319 
L 120.975167 28.13877 
L 120.980333 28.129372 
L 121.2025 28.15871 
L 121.331667 28.203477 
L 121.342 28.195991 
L 121.393667 28.161337 
L 121.367833 28.215894 
L 121.4505 28.213673 
L 121.719167 28.173589 
L 121.832833 28.103277 
L 121.843167 28.112137 
L 121.972333 28.178566 
L 121.9775 28.175974 
L 122.122167 28.10647 
L 122.127333 28.112232 
L 122.246167 28.168583 
L 122.272 28.133768 
L 122.365 28.096048 
L 122.385667 28.114748 
L 122.561333 28.146575 
L 122.401167 28.088201 
L 122.571667 28.118183 
L 122.644 28.061468 
L 122.6905 28.09866 
L 122.819667 28.192225 
L 122.912667 28.179769 
L 122.933333 28.137326 
L 122.9385 28.127048 
L 122.985 28.211644 
L 123.010833 28.219095 
L 123.129667 28.148717 
L 123.243333 28.133157 
L 123.2485 28.146028 
L 123.326 28.048203 
L 123.408667 27.99631 
L 123.455167 28.036499 
L 123.5585 28.042455 
L 123.574 28.000757 
L 123.641167 28.034788 
L 123.692833 27.973929 
L 123.822 27.998492 
L 123.749667 27.934054 
L 123.827167 27.988338 
L 123.9615 27.86503 
L 124.028667 27.908849 
L 124.075167 27.853707 
L 124.374833 27.978007 
L 124.374833 27.978007 
" style="fill:none;stroke:#000000;stroke-linecap:square;stroke-width:0.3;"/>
   </g>
   <g id="line2d_2">
    <path clip-path="url(#p5401213a15)" d="M 12.78 46.145952 
L 12.852333 46.191054 
L 12.904 46.138886 
L 12.960833 46.083524 
L 13.0125 46.139967 
L 13.1055 46.093314 
L 13.115833 46.07098 
L 13.286333 46.081344 
L 13.4 46.130328 
L 13.405167 46.109632 
L 13.410333 46.129007 
L 13.4775 46.057734 
L 13.498167 46.052811 
L 13.5085 46.019403 
L 13.596333 46.108778 
L 13.6015 46.128792 
L 13.673833 46.050177 
L 13.699667 46.072401 
L 13.777167 45.999837 
L 13.896 45.901093 
L 13.901167 45.903983 
L 13.968333 45.989768 
L 14.02 45.927702 
L 14.361 45.949338 
L 14.4385 45.958975 
L 14.412667 45.914105 
L 14.4695 45.94375 
L 14.474667 45.934046 
L 14.5315 46.036987 
L 14.536667 46.028353 
L 14.634833 46.055179 
L 14.5935 46.009273 
L 14.650333 46.029218 
L 14.836333 46.003841 
L 14.944833 46.043732 
L 14.95 46.023395 
L 15.0585 46.059286 
L 15.079167 46.029891 
L 15.161833 45.929779 
L 15.203167 45.974939 
L 15.291 46.11017 
L 15.363333 46.155025 
L 15.404667 46.122809 
L 15.477 46.011247 
L 15.549333 46.053619 
L 15.595833 46.039674 
L 15.6785 46.132313 
L 15.807667 46.120842 
L 15.823167 46.154095 
L 15.874833 46.252788 
L 15.962667 46.203304 
L 16.097 46.082053 
L 16.102167 46.086797 
L 16.107333 46.076535 
L 16.153833 46.215833 
L 16.169333 46.179893 
L 16.195167 46.206654 
L 16.241667 46.125358 
L 16.272667 46.142842 
L 16.288167 46.183219 
L 16.365667 46.205327 
L 16.386333 46.229695 
L 16.463833 46.147553 
L 18.267 46.081149 
L 18.4065 46.005796 
L 18.416833 46.035139 
L 18.551167 46.123181 
L 18.5615 46.108835 
L 18.649333 46.048468 
L 18.6855 46.069822 
L 18.804333 46.173513 
L 18.814667 46.166976 
L 18.8715 46.135276 
L 18.907667 46.208114 
L 18.912833 46.226042 
L 18.990333 46.106632 
L 19.0575 46.049329 
L 19.109167 46.086091 
L 19.238333 46.063001 
L 19.476 46.032343 
L 19.579333 46.071543 
L 19.486333 46.025171 
L 19.594833 46.050665 
L 19.620667 46.012987 
L 19.687833 46.080574 
L 19.7085 46.039563 
L 19.8015 46.039729 
L 19.7705 45.984836 
L 19.811833 46.004873 
L 19.827333 45.989514 
L 19.930667 45.983702 
L 19.941 45.995425 
L 20.096 45.904555 
L 20.183833 45.95052 
L 20.1115 45.894663 
L 20.22 45.912386 
L 20.318167 45.802487 
L 20.240667 45.91873 
L 20.344 45.83913 
L 20.349167 45.849446 
L 20.3905 45.77034 
L 20.426667 45.764546 
L 20.7625 45.633981 
L 20.850333 45.691033 
L 20.881333 45.620637 
L 20.8865 45.635428 
L 20.907167 45.561992 
L 20.9795 45.575254 
L 21.093167 45.540905 
L 21.1035 45.564721 
L 21.144833 45.621048 
L 21.191333 45.511962 
L 21.305 45.491203 
L 21.232667 45.546967 
L 21.310167 45.496304 
L 21.372167 45.532236 
L 21.4135 45.468061 
L 21.573667 45.346423 
L 21.615 45.4291 
L 21.651167 45.472524 
L 21.708 45.373565 
L 21.764833 45.359911 
L 21.806167 45.423061 
L 21.868167 45.447915 
L 21.821667 45.410236 
L 21.919833 45.421078 
L 21.976667 45.357034 
L 21.987 45.33174 
L 22.054167 45.237367 
L 22.116167 45.270357 
L 22.198833 45.326669 
L 22.229833 45.281448 
L 22.235 45.273403 
L 22.286667 45.390796 
L 22.291833 45.384043 
L 22.369333 45.341121 
L 22.446833 45.456068 
L 22.4985 45.358531 
L 22.576 45.378051 
L 22.7 45.303573 
L 22.601833 45.400048 
L 22.731 45.343646 
L 22.8705 45.48177 
L 22.880833 45.472086 
L 23.030667 45.63022 
L 23.041 45.665079 
L 23.1185 45.578295 
L 23.134 45.576017 
L 23.351 45.489998 
L 23.392333 45.520397 
L 23.438833 45.452444 
L 23.4595 45.468596 
L 23.640333 45.367683 
L 23.754 45.449315 
L 23.759167 45.4385 
L 24.038167 45.56982 
L 24.053667 45.529045 
L 24.115667 45.457229 
L 24.167333 45.511548 
L 24.25 45.569083 
L 24.291333 45.522144 
L 24.394667 45.399755 
L 24.425667 45.422968 
L 24.539333 45.367792 
L 24.678833 45.276287 
L 24.6995 45.290799 
L 24.7925 45.331209 
L 24.813167 45.297247 
L 24.988833 45.246407 
L 24.8235 45.31999 
L 24.999167 45.281747 
L 25.335 45.210291 
L 25.541667 45.124801 
L 25.345333 45.224902 
L 25.5675 45.163267 
L 25.655333 45.246364 
L 25.686333 45.307105 
L 25.7535 45.217846 
L 25.862 45.115499 
L 25.872333 45.142342 
L 26.0635 45.007782 
L 26.073833 45.028332 
L 26.213333 45.038703 
L 26.254667 45.032327 
L 26.285667 45.113407 
L 26.301167 45.098528 
L 26.6215 45.275496 
L 26.321833 45.051652 
L 26.637 45.248753 
L 26.704167 45.303277 
L 26.750667 45.240032 
L 26.812667 45.188013 
L 26.879833 45.236339 
L 27.029667 45.253268 
L 27.0555 45.224157 
L 27.0865 45.300412 
L 27.133 45.269902 
L 27.257 45.31769 
L 27.158833 45.249437 
L 27.262167 45.302976 
L 27.298333 45.208577 
L 27.381 45.255822 
L 27.443 45.153799 
L 27.505 45.204301 
L 27.546333 45.246973 
L 27.623833 45.209588 
L 27.691 45.245387 
L 27.742667 45.196854 
L 27.97 45.289233 
L 27.990667 45.247942 
L 28.187 45.187312 
L 28.290333 45.31345 
L 28.305833 45.286101 
L 28.331667 45.276232 
L 28.393667 45.360191 
L 28.414333 45.303909 
L 28.595167 45.377024 
L 28.424667 45.29251 
L 28.6055 45.349483 
L 28.817333 45.294032 
L 28.615833 45.374494 
L 28.832833 45.324103 
L 28.910333 45.322015 
L 28.863833 45.29384 
L 28.936167 45.301594 
L 29.065333 45.206806 
L 29.091167 45.250878 
L 29.075667 45.19795 
L 29.179 45.173844 
L 29.199667 45.201026 
L 29.303 45.195803 
L 29.4425 45.2803 
L 29.4735 45.209313 
L 29.499333 45.166908 
L 29.5355 45.264064 
L 29.561333 45.235153 
L 29.5975 45.196142 
L 29.675 45.280645 
L 29.737 45.351143 
L 29.762833 45.432855 
L 29.835167 45.285525 
L 29.892 45.287364 
L 29.917833 45.212286 
L 29.943667 45.227019 
L 30.057333 45.053988 
L 30.176167 45.100865 
L 30.072833 45.031943 
L 30.181333 45.085372 
L 30.393167 45.0382 
L 30.429333 45.099159 
L 30.5895 44.924644 
L 30.698 45.017071 
L 30.610167 44.904055 
L 30.723833 44.987879 
L 30.770333 44.950086 
L 30.734167 44.997701 
L 30.832333 45.012685 
L 30.8375 45.038306 
L 30.915 44.957754 
L 30.940833 44.992859 
L 31.318 44.903511 
L 31.3335 44.945262 
L 31.400667 45.040538 
L 31.452333 44.988305 
L 31.576333 44.92444 
L 31.695167 44.960483 
L 31.834667 45.03793 
L 31.721 44.93602 
L 31.845 45.032241 
L 31.901833 45.061888 
L 31.917333 45.099029 
L 31.979333 45.191246 
L 32.0465 45.163156 
L 32.160167 45.110238 
L 32.165333 45.126022 
L 32.191167 45.10515 
L 32.304833 45.221198 
L 32.403 45.100847 
L 32.434 45.155892 
L 32.563167 45.243871 
L 32.687167 45.282773 
L 32.583833 45.216611 
L 32.6975 45.261008 
L 32.831833 45.24185 
L 32.971333 45.304465 
L 32.981667 45.293711 
L 33.033333 45.372681 
L 33.074667 45.45607 
L 33.147 45.417801 
L 33.157333 45.427233 
L 33.369167 45.277254 
L 33.384667 45.291197 
L 33.426 45.222575 
L 33.457 45.213314 
L 33.591333 45.164017 
L 33.5965 45.167038 
L 33.705 45.260978 
L 33.7205 45.248282 
L 33.958167 45.225577 
L 34.004667 45.191194 
L 34.046 45.284872 
L 34.051167 45.279124 
L 34.206167 45.346734 
L 34.221667 45.330941 
L 34.325 45.352502 
L 34.232 45.344863 
L 34.330167 45.374968 
L 34.490333 45.527209 
L 34.500667 45.5198 
L 34.5885 45.554536 
L 34.531667 45.566632 
L 34.593667 45.571137 
L 34.738333 45.621838 
L 34.748667 45.608873 
L 35.342833 45.641191 
L 35.482333 45.893247 
L 35.492667 45.866149 
L 35.627 45.816703 
L 35.771667 45.883565 
L 35.823333 45.866614 
L 35.854333 45.936697 
L 35.869833 45.928153 
L 36.283167 46.08742 
L 36.298667 46.031845 
L 36.458833 46.008279 
L 36.464 46.030067 
L 36.474333 46.056607 
L 36.557 45.996019 
L 36.5725 46.019061 
L 36.991 46.737786 
L 37.202833 47.669094 
L 37.435333 47.95324 
L 37.450833 47.934557 
L 37.487 47.901725 
L 37.543833 47.973739 
L 37.559333 47.941577 
L 37.647167 47.962418 
L 37.621333 47.925392 
L 37.667833 47.930458 
L 37.755667 48.038049 
L 37.771167 48.016595 
L 37.869333 48.050545 
L 37.9985 47.972378 
L 38.008833 47.984526 
L 38.132833 48.049764 
L 38.220667 47.984656 
L 38.256833 48.067476 
L 38.3705 48.138225 
L 38.396333 48.106709 
L 38.453167 48.029992 
L 38.515167 48.085363 
L 38.670167 47.98198 
L 38.5255 48.092487 
L 38.675333 48.002045 
L 38.716667 48.071843 
L 38.7425 47.986296 
L 38.789 48.007637 
L 38.856167 47.963623 
L 38.902667 47.997291 
L 39.155833 48.070036 
L 39.161 48.062318 
L 39.1765 48.018035 
L 39.233333 48.101502 
L 39.274667 48.060709 
L 39.636333 47.952782 
L 39.739667 47.927875 
L 39.713833 47.981141 
L 39.75 47.937684 
L 39.961833 47.915163 
L 39.967 47.928892 
L 39.972167 47.96334 
L 40.06 47.878214 
L 40.0755 47.938573 
L 40.116833 47.926223 
L 40.147833 47.980209 
L 40.163333 47.98025 
L 40.1995 48.022754 
L 40.256333 47.95085 
L 40.271833 47.97826 
L 40.339 47.981329 
L 40.3545 48.052875 
L 40.457833 48.124914 
L 40.375167 48.033621 
L 40.4785 48.082875 
L 40.643833 47.944942 
L 40.68 48.004839 
L 40.7575 47.942905 
L 40.902167 47.953189 
L 40.9125 47.927367 
L 41.088167 48.028128 
L 41.630667 48.060963 
L 41.646167 48.064564 
L 41.697833 47.984108 
L 41.806333 47.946381 
L 41.8115 47.955073 
L 41.899333 47.959907 
L 41.827 47.945818 
L 41.914833 47.931427 
L 41.971667 47.850819 
L 42.013 47.956183 
L 42.116333 48.070822 
L 42.142167 48.055705 
L 42.323 47.989328 
L 42.157667 48.094115 
L 42.328167 48.000416 
L 42.4315 48.059059 
L 42.447 48.004969 
L 42.488333 47.975683 
L 42.534833 48.058787 
L 42.560667 48.010379 
L 43.785167 47.881446 
L 43.847167 47.823046 
L 43.893667 47.863387 
L 43.904 47.897098 
L 43.966 47.805567 
L 43.991833 47.828096 
L 44.162333 47.743387 
L 44.255333 47.80825 
L 44.281167 47.758414 
L 44.327667 47.726737 
L 44.374167 47.799267 
L 44.405167 47.82163 
L 44.4465 47.734163 
L 44.467167 47.740526 
L 44.637667 47.608183 
L 44.487833 47.771843 
L 44.6635 47.635243 
L 44.720333 47.625627 
L 44.746167 47.580053 
L 44.761667 47.588577 
L 44.875333 47.49167 
L 44.885667 47.538037 
L 44.978667 47.611754 
L 44.999333 47.568527 
L 45.087167 47.457266 
L 45.118167 47.523836 
L 45.164667 47.450393 
L 45.211167 47.551145 
L 45.231833 47.519473 
L 45.350667 47.451168 
L 45.355833 47.464619 
L 45.433333 47.43854 
L 45.3765 47.419629 
L 45.443667 47.411371 
L 45.547 47.357618 
L 45.5625 47.373543 
L 45.660667 47.386506 
L 45.676167 47.41349 
L 45.733 47.461986 
L 45.7795 47.384549 
L 45.789833 47.412272 
L 45.862167 47.475295 
L 45.913833 47.424781 
L 46.1205 47.290555 
L 46.136 47.30945 
L 46.141167 47.340282 
L 46.223833 47.182442 
L 46.229 47.193015 
L 46.270333 47.244822 
L 46.353 47.132717 
L 46.4925 47.074638 
L 46.673333 46.817861 
L 46.983333 46.772727 
L 46.9885 46.763387 
L 47.055667 46.853824 
L 47.066 46.822669 
L 47.159 46.906274 
L 47.179667 46.846901 
L 47.2365 46.88454 
L 47.308833 46.788916 
L 47.4225 46.770226 
L 47.365667 46.824321 
L 47.427667 46.772897 
L 47.443167 46.794005 
L 47.5 46.700077 
L 47.510333 46.69769 
L 47.655 46.58314 
L 47.773833 46.635103 
L 47.820333 46.651811 
L 47.892667 46.614691 
L 47.990833 46.642756 
L 47.9185 46.572396 
L 48.0115 46.620251 
L 48.016667 46.628736 
L 48.0735 46.534161 
L 48.083833 46.552827 
L 48.099333 46.515725 
L 48.192333 46.560944 
L 48.233667 46.594633 
L 48.275 46.513744 
L 48.295667 46.526588 
L 48.512667 46.438711 
L 48.554 46.475145 
L 48.610833 46.408661 
L 48.616 46.407938 
L 48.729667 46.306862 
L 48.734833 46.317266 
L 48.838167 46.348899 
L 48.771 46.264727 
L 48.853667 46.320392 
L 48.988 46.346924 
L 48.998333 46.323851 
L 49.0965 46.249646 
L 49.117167 46.292637 
L 49.2515 46.378126 
L 49.277333 46.308614 
L 49.411667 46.189109 
L 50.083333 46.023892 
L 50.186667 46.137304 
L 50.222833 46.100148 
L 50.858333 45.78855 
L 50.961667 45.817915 
L 50.889333 45.809153 
L 50.966833 45.824675 
L 51.034 45.768672 
L 51.039167 45.744056 
L 51.178667 45.620324 
L 51.189 45.626313 
L 51.338833 45.618946 
L 51.364667 45.639228 
L 51.4835 45.53205 
L 51.5145 45.514245 
L 51.597167 45.558759 
L 51.6695 45.544757 
L 51.705667 45.56327 
L 51.860667 45.650739 
L 51.865833 45.630026 
L 51.943333 45.541937 
L 51.984667 45.555067 
L 52.170667 45.404531 
L 52.268833 45.358232 
L 52.274 45.339153 
L 52.367 45.306183 
L 52.305 45.357359 
L 52.398 45.327797 
L 52.522 45.255289 
L 52.635667 45.250895 
L 52.640833 45.260807 
L 52.713167 45.340842 
L 52.77 45.322258 
L 52.894 45.209282 
L 52.899167 45.227686 
L 52.956 45.335823 
L 52.9095 45.198633 
L 53.028333 45.269375 
L 53.074833 45.290082 
L 53.116167 45.198879 
L 53.276333 45.134796 
L 53.286667 45.168616 
L 53.3435 45.071898 
L 53.379667 45.110724 
L 53.415833 45.140425 
L 53.514 45.05467 
L 53.6535 45.088548 
L 53.880833 44.947022 
L 53.886 44.952768 
L 53.968667 44.906946 
L 53.973833 44.88911 
L 54.046167 44.911552 
L 54.097833 44.826849 
L 54.1185 44.867004 
L 54.1805 44.768704 
L 54.252833 44.714308 
L 54.299333 44.753489 
L 54.4285 44.820243 
L 54.454333 44.77697 
L 54.469833 44.785207 
L 54.578333 44.667424 
L 54.593833 44.706166 
L 54.635167 44.593391 
L 54.661 44.593279 
L 54.805667 44.560456 
L 54.934833 44.467303 
L 55.084667 44.375618 
L 55.1105 44.393048 
L 55.177667 44.315763 
L 55.394667 44.17326 
L 55.4205 44.196939 
L 55.487667 44.195912 
L 55.456667 44.165905 
L 55.523833 44.160825 
L 56.1025 42.813535 
L 56.154167 40.614613 
L 56.185167 32.099324 
L 56.2575 41.425246 
L 56.314333 44.062734 
L 56.386667 43.733709 
L 56.593333 41.248105 
L 56.624333 34.720913 
L 56.6915 41.684219 
L 56.732833 44.027194 
L 56.8155 43.474328 
L 56.903333 42.614617 
L 56.949833 41.083007 
L 56.980833 35.315087 
L 57.048 42.075566 
L 57.084167 43.9095 
L 57.166833 43.281189 
L 57.275333 40.788702 
L 57.301167 35.760342 
L 57.3735 42.385811 
L 57.409667 43.819331 
L 57.487167 43.16753 
L 57.585333 41.003498 
L 57.616333 35.954253 
L 57.6835 42.217988 
L 57.7145 43.772095 
L 57.802333 43.086231 
L 57.890167 40.339585 
L 57.916 35.987341 
L 57.988333 42.81738 
L 58.019333 43.861227 
L 58.102 43.092846 
L 58.189833 40.048012 
L 58.2105 35.817957 
L 58.288 43.125542 
L 58.319 44.043876 
L 58.3965 43.277444 
L 58.484333 41.602651 
L 58.5205 35.25254 
L 58.5825 41.643957 
L 58.629 44.383827 
L 58.7065 43.573035 
L 58.815 41.434025 
L 58.846 34.475498 
L 58.913167 42.005209 
L 58.959667 44.905203 
L 59.032 44.111886 
L 59.161167 42.281888 
L 59.187 38.475141 
L 59.2025 33.482282 
L 59.285167 43.762767 
L 59.316167 45.523928 
L 59.398833 44.791818 
L 59.595167 41.825749 
L 59.626167 32.754637 
L 59.703667 41.927501 
L 59.750167 46.043336 
L 59.827667 45.392815 
L 60.122167 40.764433 
L 60.142833 32.371987 
L 60.2255 42.226651 
L 60.266833 46.275329 
L 60.344333 45.733327 
L 60.7215 42.191691 
L 60.747333 35.082541 
L 60.757667 32.384191 
L 60.835167 41.67578 
L 60.881667 46.300207 
L 60.959167 45.802667 
L 61.393167 43.056022 
L 61.460333 41.833446 
L 61.4965 32.725445 
L 61.563667 41.454336 
L 61.615333 46.108255 
L 61.692833 45.693833 
L 62.049333 43.713942 
L 62.132 43.369071 
L 62.3025 41.902114 
L 62.3335 34.637006 
L 62.343833 33.27849 
L 62.405833 41.396852 
L 62.462667 45.801526 
L 62.535 45.449732 
L 63.196333 42.146096 
L 63.227333 38.855921 
L 63.248 33.656713 
L 63.320333 43.350338 
L 63.377167 45.629219 
L 63.444333 45.268558 
L 63.842167 43.679101 
L 63.904167 43.466583 
L 64.1005 43.00454 
L 64.136667 42.876723 
L 64.265833 41.739108 
L 64.312333 34.293824 
L 64.369167 41.41134 
L 64.436333 45.267293 
L 64.5035 45.012909 
L 65.020167 43.283832 
L 65.025333 43.294898 
L 65.1235 43.103466 
L 65.381833 40.622263 
L 65.418 34.486336 
L 65.48 42.547864 
L 65.542 45.178412 
L 65.609167 44.897216 
L 65.893333 43.828061 
L 66.322167 43.160598 
L 66.337667 43.187933 
L 66.441 43.205314 
L 66.389333 43.153074 
L 66.446167 43.184887 
L 66.4565 43.163717 
L 66.539167 43.249825 
L 66.709667 43.374689 
L 66.849167 43.541221 
L 67.2625 44.351699 
L 67.278 44.34161 
L 67.329667 44.418181 
L 67.334833 44.43805 
L 67.443333 44.613298 
L 67.464 44.606834 
L 67.500167 44.545584 
L 67.562167 44.618631 
L 67.6345 44.769701 
L 67.691333 44.754978 
L 68.363 45.593776 
L 68.368167 45.581046 
L 68.388833 45.557296 
L 68.430167 45.647817 
L 68.476667 45.58376 
L 68.735 45.956054 
L 68.745333 45.938093 
L 68.807333 46.025006 
L 68.9365 46.092453 
L 68.941667 46.088098 
L 69.2 46.306505 
L 69.225833 46.267493 
L 69.318833 46.338163 
L 69.427333 46.508528 
L 69.458333 46.487816 
L 69.623667 46.632049 
L 69.628833 46.62536 
L 69.768333 46.637036 
L 69.778667 46.590742 
L 69.845833 46.694834 
L 69.8665 46.669436 
L 69.9905 46.787748 
L 70.000833 46.769135 
L 70.011167 46.741469 
L 70.0525 46.851686 
L 70.109333 46.79162 
L 70.217833 46.802447 
L 70.228167 46.79556 
L 70.388333 46.884929 
L 70.419333 46.841251 
L 70.460667 46.777416 
L 70.522667 46.89156 
L 70.693167 46.920496 
L 70.775833 46.835073 
L 70.812 46.864814 
L 70.915333 46.905092 
L 70.930833 46.869655 
L 71.643833 46.65669 
L 71.783333 46.618597 
L 71.659333 46.676281 
L 71.7885 46.629671 
L 72.021 46.561346 
L 71.798833 46.650854 
L 72.031333 46.60527 
L 72.139833 46.712736 
L 72.093333 46.58894 
L 72.155333 46.708885 
L 72.232833 46.661552 
L 72.269 46.734888 
L 72.486 46.96353 
L 72.279333 46.727784 
L 72.506667 46.91792 
L 72.651333 46.809923 
L 72.666833 46.818925 
L 73.080167 46.943475 
L 73.085333 46.919058 
L 73.2145 46.934282 
L 73.100833 46.940787 
L 73.219667 46.949009 
L 73.312667 46.906573 
L 73.343667 46.970344 
L 73.478 46.844217 
L 73.3695 47.013799 
L 73.509 46.880144 
L 73.514167 46.888552 
L 73.576167 46.783622 
L 73.5865 46.805607 
L 73.746667 46.654995 
L 73.762167 46.685831 
L 73.7725 46.708105 
L 73.808667 46.583066 
L 73.85 46.592924 
L 74.010167 46.591074 
L 74.0205 46.612263 
L 74.025667 46.624575 
L 74.056667 46.529715 
L 74.108333 46.539299 
L 74.413167 46.314932 
L 74.4235 46.267775 
L 74.521667 46.320314 
L 74.573333 46.300543 
L 74.619833 46.375978 
L 74.842 46.427394 
L 74.8575 46.380363 
L 74.898833 46.400884 
L 74.976333 46.312398 
L 75.921833 46.293841 
L 75.952833 46.261125 
L 75.989 46.354914 
L 76.02 46.337075 
L 76.051 46.379138 
L 76.107833 46.287722 
L 76.118167 46.295078 
L 76.2525 46.233992 
L 76.262833 46.269885 
L 76.350667 46.222208 
L 76.3765 46.186078 
L 76.433333 46.256549 
L 76.464333 46.206595 
L 76.541833 46.185555 
L 76.495333 46.171611 
L 76.567667 46.165224 
L 76.7795 46.356003 
L 76.578 46.154132 
L 76.820833 46.314488 
L 77.022333 46.225437 
L 77.032667 46.244205 
L 77.254833 46.30683 
L 77.435667 46.283957 
L 77.440833 46.266823 
L 77.508 46.193686 
L 77.559667 46.259434 
L 78.396667 46.442557 
L 78.489667 46.572848 
L 78.531 46.546648 
L 78.722167 46.462894 
L 79.001167 46.312883 
L 79.006333 46.320081 
L 79.156167 46.47358 
L 79.187167 46.418801 
L 79.207833 46.406628 
L 79.264667 46.490299 
L 79.435167 46.728855 
L 79.440333 46.716681 
L 79.455833 46.703466 
L 79.502333 46.805562 
L 79.512667 46.774596 
L 79.636667 46.859491 
L 79.750333 46.90583 
L 79.7555 46.937554 
L 80.215333 47.876904 
L 80.303167 47.946719 
L 80.308333 47.96254 
L 80.380667 48.022485 
L 80.427167 47.950786 
L 80.618333 47.98249 
L 80.6235 47.962949 
L 80.67 48.036633 
L 80.732 47.952747 
L 80.825 48.040245 
L 80.845667 47.994357 
L 80.9645 47.936983 
L 81.228 47.921042 
L 81.279667 47.885938 
L 81.326167 47.955127 
L 81.465667 48.060827 
L 81.470833 48.057753 
L 81.589667 48.026517 
L 82.721167 47.988596 
L 82.850333 48.049167 
L 82.8555 48.04345 
L 82.984667 47.968749 
L 82.989833 47.977534 
L 83.253333 47.891268 
L 83.2585 47.874852 
L 83.330833 47.96509 
L 83.346333 47.962854 
L 83.501333 47.962656 
L 83.511667 47.935694 
L 83.547833 47.969349 
L 83.563333 48.031155 
L 83.5685 48.030479 
L 84.152333 47.972538 
L 84.209167 48.021742 
L 84.276333 47.966651 
L 84.2815 47.957739 
L 84.338333 48.07276 
L 84.359 48.033048 
L 84.431333 48.020071 
L 84.457167 47.935131 
L 84.5295 48.056533 
L 84.534667 48.048788 
L 84.5605 48.075876 
L 84.627667 47.982175 
L 84.942833 47.935114 
L 85.041 48.013327 
L 85.061667 47.973941 
L 85.128833 47.984495 
L 85.144333 48.019713 
L 85.1495 48.065917 
L 85.237333 48.006203 
L 85.252833 48.022821 
L 85.392333 47.95161 
L 85.433667 47.942048 
L 85.449167 48.011302 
L 85.480167 48.012762 
L 85.557667 48.01458 
L 85.516333 47.942602 
L 85.588667 47.991723 
L 85.604167 47.993419 
L 85.650667 47.917921 
L 85.661 47.929988 
L 85.712667 47.86583 
L 85.7695 47.933655 
L 85.934833 47.976452 
L 85.945167 47.958614 
L 86.058833 47.931993 
L 86.074333 47.942294 
L 86.771833 47.891391 
L 86.828667 47.955716 
L 86.87 47.859497 
L 86.875167 47.866027 
L 86.952667 47.804464 
L 86.994 47.841406 
L 87.087 47.856038 
L 87.045667 47.806379 
L 87.1025 47.829717 
L 87.216167 47.823303 
L 87.118 47.861288 
L 87.221333 47.838338 
L 87.2265 47.845986 
L 87.278167 47.783495 
L 87.298833 47.775207 
L 87.386667 47.755554 
L 87.402167 47.796769 
L 87.49 47.889299 
L 87.5365 47.838922 
L 87.552 47.787568 
L 87.634667 47.88915 
L 87.639833 47.886427 
L 87.7845 47.77299 
L 87.789667 47.797069 
L 87.872333 47.703172 
L 87.882667 47.708693 
L 87.9395 47.658056 
L 87.996333 47.695605 
L 88.161667 47.726449 
L 88.213333 47.780157 
L 88.275333 47.736591 
L 88.3735 47.804316 
L 88.399333 47.782858 
L 88.430333 47.780039 
L 88.451 47.719658 
L 88.4665 47.713081 
L 88.533667 47.605265 
L 88.595667 47.63818 
L 88.709333 47.7282 
L 88.6215 47.625157 
L 88.73 47.694474 
L 88.750667 47.708335 
L 88.874667 47.651851 
L 88.921167 47.664684 
L 88.947 47.598428 
L 89.0865 47.420118 
L 89.096833 47.441964 
L 89.143333 47.36309 
L 89.164 47.348758 
L 89.251833 47.340341 
L 89.220833 47.39159 
L 89.2725 47.352068 
L 89.484333 47.374963 
L 89.4895 47.35039 
L 89.639333 47.216907 
L 89.649667 47.238959 
L 89.804667 47.177269 
L 89.9545 47.078849 
L 90.166333 47.022034 
L 90.176667 47.051012 
L 90.192167 47.076597 
L 90.238667 46.969575 
L 90.285167 47.034188 
L 90.435 46.99652 
L 90.4505 47.024838 
L 90.6055 47.05399 
L 90.460833 47.004814 
L 90.626167 47.016316 
L 90.755333 46.888262 
L 90.7605 46.895328 
L 90.781167 46.957822 
L 90.869 46.871594 
L 91.1015 46.822262 
L 91.1325 46.898411 
L 91.199667 46.778021 
L 91.204833 46.782405 
L 91.277167 46.694673 
L 91.323667 46.744947 
L 91.4425 46.739196 
L 91.452833 46.724367 
L 91.545833 46.703599 
L 91.499333 46.757559 
L 91.556167 46.75529 
L 91.623333 46.798489 
L 91.664667 46.756227 
L 91.809333 46.608156 
L 91.706 46.772986 
L 91.819667 46.620741 
L 92.072833 46.57874 
L 92.233 46.424139 
L 92.568833 46.287725 
L 92.579167 46.306528 
L 92.672167 46.299173 
L 92.610167 46.28647 
L 92.677333 46.269138 
L 92.76 46.163995 
L 92.801333 46.201575 
L 92.878833 46.305633 
L 92.9305 46.238857 
L 92.951167 46.25172 
L 93.075167 46.110532 
L 93.183667 46.097326 
L 93.121667 46.060806 
L 93.188833 46.080709 
L 93.204333 46.096775 
L 93.374833 45.969782 
L 93.4265 45.997883 
L 93.3955 45.946859 
L 93.478167 45.942885 
L 93.617667 45.81376 
L 93.648667 45.851143 
L 93.752 45.8976 
L 93.659 45.844666 
L 93.772667 45.878202 
L 93.839833 45.828463 
L 93.8915 45.86528 
L 94.005167 45.794235 
L 94.010333 45.795101 
L 94.025833 45.856866 
L 94.113667 45.753325 
L 94.222167 45.682285 
L 94.268667 45.763424 
L 94.351333 45.668456 
L 94.423667 45.615177 
L 94.459833 45.680121 
L 94.558 45.656767 
L 94.4805 45.643597 
L 94.568333 45.631955 
L 94.589 45.690945 
L 94.682 45.639604 
L 94.904167 45.412684 
L 95.059167 45.530505 
L 95.219333 45.446566 
L 95.095333 45.571905 
L 95.24 45.474704 
L 95.250333 45.491101 
L 95.291667 45.433251 
L 95.327833 45.427689 
L 95.400167 45.356306 
L 95.4415 45.382865 
L 95.462167 45.446036 
L 95.539667 45.344516 
L 95.55 45.367098 
L 95.7205 45.368866 
L 95.736 45.32569 
L 95.823833 45.165628 
L 95.885833 45.220633 
L 96.025333 45.167025 
L 96.040833 45.218207 
L 96.087333 45.177448 
L 96.1545 45.185821 
L 96.288833 45.109166 
L 96.294 45.114577 
L 96.366333 45.115864 
L 96.335333 45.062569 
L 96.392167 45.061332 
L 96.5885 45.037749 
L 96.748667 44.922051 
L 96.764167 44.930401 
L 96.893333 44.88564 
L 96.7745 44.958389 
L 96.903667 44.912268 
L 96.955333 44.885256 
L 97.027667 44.928513 
L 97.032833 44.905491 
L 97.110333 45.017571 
L 97.120667 44.997491 
L 97.156833 44.948705 
L 97.167167 44.896311 
L 97.317 44.762479 
L 97.327333 44.791841 
L 97.404833 44.667282 
L 97.565 44.546179 
L 97.585667 44.592432 
L 97.957667 44.734317 
L 97.968 44.693094 
L 99.0995 43.79662 
L 99.218333 43.586089 
L 99.239 43.596924 
L 99.295833 43.464531 
L 99.487 41.759421 
L 99.528333 32.182702 
L 99.600667 41.353739 
L 99.6575 43.994777 
L 99.729833 43.638054 
L 99.9055 41.155248 
L 99.9365 34.899941 
L 100.003667 41.784942 
L 100.039833 43.902212 
L 100.127667 43.336062 
L 100.236167 41.667145 
L 100.272333 35.707508 
L 100.3395 41.610415 
L 100.380833 43.663152 
L 100.4635 43.046507 
L 100.5565 40.733399 
L 100.582333 36.361179 
L 100.654667 42.275486 
L 100.696 43.433079 
L 100.768333 42.814992 
L 100.851 40.192097 
L 100.876833 36.913831 
L 100.944 41.976404 
L 100.985333 43.173663 
L 101.057667 42.561887 
L 101.124833 40.740832 
L 101.155833 37.448289 
L 101.223 41.758893 
L 101.264333 42.966797 
L 101.341833 42.308375 
L 101.403833 40.184984 
L 101.429667 37.897988 
L 101.496833 41.621325 
L 101.543333 42.733061 
L 101.615667 42.127008 
L 101.682833 39.061134 
L 101.698333 38.331335 
L 101.760333 41.360575 
L 101.806833 42.525376 
L 101.879167 42.005666 
L 101.936 40.2407 
L 101.967 38.721512 
L 102.029 41.343306 
L 102.080667 42.351517 
L 102.147833 41.869318 
L 102.235667 39.056413 
L 102.2925 41.067784 
L 102.359667 42.23832 
L 102.421667 41.799788 
L 102.5095 39.206258 
L 102.566333 41.043189 
L 102.6335 42.226828 
L 102.6955 41.863424 
L 102.793667 39.194958 
L 102.8505 41.075037 
L 102.922833 42.328964 
L 102.984833 42.044921 
L 103.052 40.583829 
L 103.088167 38.741348 
L 103.150167 41.246976 
L 103.212167 42.761063 
L 103.2845 42.479382 
L 103.367167 41.056418 
L 103.4085 37.486526 
L 103.465333 41.338027 
L 103.527333 43.641023 
L 103.599667 43.263319 
L 103.708167 41.883584 
L 103.744333 36.364152 
L 103.754667 35.22368 
L 103.816667 42.043231 
L 103.868333 45.019999 
L 103.940667 44.53059 
L 104.178333 41.627335 
L 104.209333 33.002598 
L 104.281667 42.009556 
L 104.333333 46.212213 
L 104.405667 45.743115 
L 104.870667 43.358853 
L 105.0515 42.950637 
L 105.232333 41.156602 
L 105.273667 34.733731 
L 105.3305 41.831823 
L 105.397667 45.284489 
L 105.459667 45.025225 
L 105.614667 44.233388 
L 105.790333 43.613023 
L 106.121 43.368798 
L 106.131333 43.380421 
L 106.281167 43.633354 
L 106.286333 43.620078 
L 106.363833 43.709366 
L 106.369 43.705241 
L 108.973 46.893528 
L 108.978167 46.873315 
L 109.0505 46.925025 
L 109.060833 46.957592 
L 109.438 47.440418 
L 110.244 47.827747 
L 110.2595 47.796538 
L 110.269833 47.755043 
L 110.357667 47.831525 
L 110.368 47.813434 
L 110.951833 47.711181 
L 111.225667 47.759522 
L 111.230833 47.746538 
L 111.339333 47.672144 
L 111.246333 47.753439 
L 111.354833 47.707031 
L 111.411667 47.794184 
L 111.489167 47.707077 
L 111.788833 47.47585 
L 111.830167 47.532687 
L 111.959333 47.575627 
L 112.166 47.651616 
L 112.228 47.670711 
L 112.259 47.610516 
L 112.269333 47.613383 
L 112.29 47.637494 
L 112.326167 47.540607 
L 112.357167 47.538411 
L 112.4605 47.551933 
L 112.372667 47.561689 
L 112.470833 47.571348 
L 112.476 47.579676 
L 112.532833 47.47861 
L 112.548333 47.499421 
L 112.682667 47.39196 
L 112.693 47.418025 
L 112.698167 47.428616 
L 112.7395 47.342509 
L 112.7705 47.352901 
L 112.920333 47.172846 
L 113.070167 47.28476 
L 112.941 47.114479 
L 113.0805 47.259448 
L 113.183833 47.089407 
L 113.225167 47.130478 
L 113.261333 47.070503 
L 113.349167 47.139973 
L 113.406 47.185868 
L 113.457667 47.137754 
L 113.623 46.997985 
L 113.922667 47.129917 
L 114.124167 47.086879 
L 114.1345 47.114154 
L 114.1965 46.975963 
L 114.206833 46.987921 
L 114.305 46.91664 
L 114.336 46.940929 
L 114.976667 46.570397 
L 114.992167 46.596667 
L 114.997333 46.612619 
L 115.069667 46.49857 
L 115.074833 46.502713 
L 115.08 46.499325 
L 115.111 46.591815 
L 115.116167 46.613385 
L 115.193667 46.541822 
L 115.2195 46.573462 
L 115.328 46.529995 
L 115.338333 46.548848 
L 115.457167 46.506955 
L 115.472667 46.537819 
L 115.508833 46.493826 
L 115.612167 46.569624 
L 115.7465 46.469539 
L 116.165 46.491471 
L 116.433667 46.439155 
L 116.506 46.382926 
L 116.516333 46.46235 
L 116.5525 46.41188 
L 116.8935 46.614447 
L 116.909 46.58172 
L 117.038167 46.489708 
L 117.0485 46.512646 
L 117.2965 46.331802 
L 117.441167 46.212175 
L 117.312 46.355513 
L 117.446333 46.214949 
L 117.554833 46.22663 
L 117.498 46.169727 
L 117.565167 46.194892 
L 117.6685 46.137421 
L 117.715 46.183707 
L 117.751167 46.198445 
L 117.813167 46.129199 
L 117.9165 46.067033 
L 117.9475 46.111508 
L 118.0405 46.159174 
L 118.066333 46.133484 
L 118.2885 46.098302 
L 118.293667 46.116043 
L 118.4435 46.203227 
L 118.304 46.106016 
L 118.448667 46.192653 
L 118.614 46.270955 
L 118.624333 46.249693 
L 118.748333 46.109418 
L 118.758667 46.127066 
L 118.810333 46.212979 
L 118.836167 46.199338 
L 118.934333 46.230717 
L 118.8465 46.18774 
L 118.955 46.19116 
L 119.115167 46.098252 
L 119.234 46.173637 
L 119.254667 46.162774 
L 119.740333 45.877927 
L 119.755833 45.90899 
L 119.936667 46.031405 
L 120.071 45.918502 
L 120.076167 45.95439 
L 120.164 45.830592 
L 120.169167 45.849134 
L 120.205333 45.806155 
L 120.277667 45.863831 
L 120.324167 45.872857 
L 120.355167 45.812601 
L 120.381 45.845072 
L 120.448167 45.82034 
L 120.406833 45.866866 
L 120.494667 45.861551 
L 120.964833 45.742334 
L 121.088833 45.620339 
L 121.1715 45.738151 
L 121.212833 45.716822 
L 121.28 45.702357 
L 121.3265 45.739747 
L 121.600333 45.565568 
L 121.621 45.604227 
L 121.626167 45.625156 
L 121.6985 45.55085 
L 121.719167 45.546555 
L 121.755333 45.59588 
L 121.812167 45.488592 
L 121.869 45.477672 
L 121.9 45.530845 
L 121.936167 45.571158 
L 121.982667 45.46533 
L 121.998167 45.482386 
L 122.184167 45.329227 
L 122.013667 45.506033 
L 122.1945 45.361609 
L 122.313333 45.446474 
L 122.328833 45.440057 
L 122.4115 45.261669 
L 122.468333 45.338021 
L 122.545833 45.34541 
L 122.478667 45.323012 
L 122.571667 45.299191 
L 122.638833 45.263957 
L 122.582 45.315256 
L 122.675 45.332019 
L 123.734167 45.107632 
L 123.878833 45.007803 
L 124.028667 45.159932 
L 124.033833 45.153326 
L 124.075167 45.096635 
L 124.126833 45.2182 
L 124.137167 45.200831 
L 124.163 45.160785 
L 124.266333 45.234604 
L 124.374833 45.285504 
L 124.374833 45.285504 
" style="fill:none;stroke:#000000;stroke-linecap:square;stroke-width:0.3;"/>
   </g>
   <g id="line2d_3">
    <path clip-path="url(#p5401213a15)" d="M 12.78 66.565735 
L 12.785167 66.583061 
L 12.852333 66.494989 
L 12.8885 66.545552 
L 13.059 66.514262 
L 12.898833 66.565216 
L 13.069333 66.538925 
L 13.224333 66.623321 
L 13.2295 66.614854 
L 13.332833 66.592344 
L 13.338 66.617728 
L 13.343167 66.632671 
L 13.369 66.547328 
L 13.436167 66.567973 
L 13.441333 66.576272 
L 13.462 66.503838 
L 13.524 66.50762 
L 13.637667 66.459364 
L 13.586 66.532153 
L 13.642833 66.491123 
L 13.751333 66.572512 
L 13.6635 66.468406 
L 13.766833 66.539359 
L 13.7875 66.508413 
L 13.844333 66.662146 
L 14.200833 67.028784 
L 14.231833 67.009636 
L 14.262833 67.129074 
L 14.423 67.281344 
L 14.4695 67.232866 
L 14.4385 67.248657 
L 14.479833 67.192016 
L 14.485 67.168626 
L 14.547 67.242629 
L 14.572833 67.248247 
L 14.629667 67.378468 
L 14.702 67.330134 
L 14.7485 67.332263 
L 14.7795 67.388319 
L 14.8415 67.519147 
L 14.908667 67.463931 
L 15.032667 67.456419 
L 14.944833 67.525832 
L 15.037833 67.461744 
L 15.130833 67.576473 
L 15.172167 67.530009 
L 16.510333 68.159325 
L 16.5155 68.141395 
L 16.675667 68.075932 
L 16.820333 68.092149 
L 16.8255 68.074032 
L 16.897833 67.992874 
L 16.934 68.084387 
L 17.052833 68.07636 
L 17.063167 68.049096 
L 17.130333 68.083738 
L 17.1975 68.001 
L 17.249167 68.068872 
L 17.254333 68.090571 
L 17.306 68.129191 
L 17.368 68.102746 
L 17.440333 68.072165 
L 17.481667 68.116269 
L 17.595333 68.008285 
L 17.616 68.047149 
L 17.709 68.040106 
L 17.678 67.970001 
L 17.719333 68.019397 
L 17.874333 68.003328 
L 17.8795 68.033057 
L 17.931167 67.930025 
L 17.977667 67.990409 
L 18.106833 67.896564 
L 18.261833 67.883322 
L 18.370333 67.780932 
L 18.396167 67.794671 
L 18.649333 67.916007 
L 18.67 67.860183 
L 18.763 67.886272 
L 18.845667 67.933431 
L 18.881833 67.861981 
L 18.892167 67.878556 
L 18.9645 67.780075 
L 19.186667 67.680709 
L 19.202167 67.720917 
L 19.264167 67.728789 
L 19.300333 67.6619 
L 19.331333 67.713202 
L 19.3985 67.700652 
L 19.403667 67.72308 
L 19.481167 67.647996 
L 19.501833 67.669461 
L 19.641333 67.629389 
L 19.651667 67.649048 
L 19.656833 67.668828 
L 19.713667 67.615864 
L 19.755 67.621762 
L 19.8015 67.562269 
L 19.848 67.658102 
L 19.853167 67.650957 
L 19.91 67.671126 
L 19.946167 67.59478 
L 19.961667 67.629943 
L 20.065 67.532798 
L 20.1115 67.565492 
L 20.225167 67.543145 
L 20.251 67.602629 
L 20.375 67.724247 
L 20.3905 67.697024 
L 20.499 67.610915 
L 20.5145 67.61775 
L 20.53 67.628316 
L 20.566167 67.562429 
L 20.602333 67.55394 
L 20.679833 67.595054 
L 20.726333 67.53948 
L 21.000167 67.678037 
L 21.005333 67.670026 
L 21.144833 67.626937 
L 21.1655 67.666917 
L 21.2275 67.712111 
L 21.279167 67.677691 
L 21.3515 67.814079 
L 21.429 67.772121 
L 21.434167 67.78253 
L 21.496167 67.697577 
L 21.511667 67.709983 
L 21.646 67.570063 
L 21.666667 67.591331 
L 21.718333 67.633165 
L 21.687333 67.572575 
L 21.780333 67.598615 
L 21.837167 67.562636 
L 21.790667 67.608541 
L 21.894 67.600159 
L 21.9405 67.618818 
L 21.976667 67.528279 
L 22.178167 67.434524 
L 22.286667 67.410632 
L 22.297 67.418661 
L 22.317667 67.452534 
L 22.607 67.228505 
L 22.638 67.262138 
L 22.679333 67.182309 
L 22.7155 67.204357 
L 22.803333 67.211847 
L 22.767167 67.254632 
L 22.813667 67.254933 
L 22.937667 67.27354 
L 22.829167 67.292804 
L 22.948 67.294104 
L 22.979 67.252781 
L 23.082333 67.293085 
L 23.221833 67.184865 
L 23.252833 67.203765 
L 23.294167 67.115714 
L 23.32 67.141691 
L 23.454333 67.019891 
L 23.557667 67.073365 
L 23.568 67.051923 
L 23.805667 66.92292 
L 23.816 66.942579 
L 23.841833 66.961323 
L 23.872833 66.90726 
L 23.914167 66.905376 
L 23.971 66.839975 
L 24.027833 66.897538 
L 24.120833 66.877446 
L 24.089833 66.914389 
L 24.136333 66.896929 
L 24.157 66.866974 
L 24.286167 66.906587 
L 24.4205 66.779531 
L 24.529 66.844192 
L 24.565167 66.804041 
L 24.797667 66.657385 
L 24.802833 66.668882 
L 24.952667 66.862109 
L 25.045667 66.681819 
L 25.1335 66.754937 
L 25.4125 66.912643 
L 25.417667 66.892545 
L 25.572667 66.77072 
L 25.583 66.791601 
L 25.748333 66.938512 
L 25.810333 66.8554 
L 25.965333 66.640627 
L 26.647333 66.677056 
L 26.786833 66.519977 
L 26.792 66.521984 
L 26.848833 66.462317 
L 26.9005 66.531981 
L 26.936667 66.499331 
L 26.967667 66.578102 
L 27.009 66.541811 
L 27.200167 66.708675 
L 27.220833 66.679685 
L 27.319 66.609472 
L 27.339667 66.660284 
L 27.468833 66.661019 
L 27.608333 66.684406 
L 27.742667 66.730887 
L 27.918333 66.725651 
L 27.928667 66.763225 
L 28.026833 66.84664 
L 28.052667 66.816489 
L 28.181833 66.853152 
L 28.305833 66.904212 
L 28.316167 66.880499 
L 28.440167 66.814308 
L 28.445333 66.824182 
L 28.522833 66.735088 
L 28.533167 66.747298 
L 28.564167 66.657365 
L 28.595167 66.662239 
L 28.817333 66.496469 
L 28.874167 66.562577 
L 28.941333 66.527276 
L 29.0395 66.457169 
L 29.065333 66.485839 
L 29.184167 66.515229 
L 29.111833 66.434602 
L 29.1945 66.485581 
L 29.266833 66.471192 
L 29.204833 66.496089 
L 29.292667 66.531959 
L 29.385667 66.598329 
L 29.406333 66.547181 
L 29.540667 66.410537 
L 29.421833 66.564373 
L 29.551 66.423205 
L 29.649167 66.50868 
L 29.680167 66.482346 
L 29.809333 66.414979 
L 29.912667 66.481419 
L 29.928167 66.442087 
L 30.088333 66.387341 
L 30.0935 66.406939 
L 30.171 66.288109 
L 30.269167 66.23303 
L 30.191667 66.307212 
L 30.289833 66.299169 
L 30.3105 66.359885 
L 30.377667 66.252783 
L 30.393167 66.2776 
L 30.574 66.240733 
L 30.439667 66.340081 
L 30.584333 66.261001 
L 30.646333 66.281707 
L 30.698 66.234734 
L 30.889167 66.109095 
L 31.018333 66.187525 
L 31.0545 66.132347 
L 31.137167 66.11896 
L 31.173333 66.141233 
L 31.2405 66.193729 
L 31.292167 66.151921 
L 31.297333 66.130583 
L 31.385167 66.225799 
L 31.462667 66.249152 
L 31.400667 66.214861 
L 31.4885 66.201853 
L 31.597 66.260348 
L 31.793333 66.2852 
L 31.803667 66.242389 
L 31.865667 66.240542 
L 31.881167 66.306519 
L 31.9845 66.326564 
L 31.9535 66.277043 
L 31.989667 66.308349 
L 32.0155 66.289254 
L 32.0465 66.343307 
L 32.087833 66.356839 
L 32.320333 66.569721 
L 32.346167 66.483669 
L 32.361667 66.505161 
L 32.485667 66.408876 
L 32.532167 66.472466 
L 32.599333 66.441806 
L 32.873167 66.268897 
L 32.8835 66.327825 
L 32.961 66.387283 
L 33.012667 66.36387 
L 33.157333 66.396461 
L 33.028167 66.341022 
L 33.167667 66.348163 
L 33.4415 66.209847 
L 33.560333 66.299321 
L 33.5655 66.292277 
L 33.792833 66.278236 
L 33.865167 66.325448 
L 33.8135 66.252254 
L 33.9065 66.287817 
L 34.025333 66.196703 
L 34.0305 66.198403 
L 34.077 66.25216 
L 34.108 66.161755 
L 34.133833 66.157765 
L 34.211333 66.150369 
L 34.1545 66.141466 
L 34.232 66.114838 
L 34.268167 66.027808 
L 34.350833 66.066624 
L 34.4645 66.185003 
L 34.392167 66.041996 
L 34.505833 66.132945 
L 34.6505 66.070613 
L 34.8985 66.08333 
L 35.043167 66.03377 
L 34.9295 66.129219 
L 35.048333 66.055103 
L 35.151667 66.087164 
L 35.094833 66.012169 
L 35.162 66.066445 
L 35.420333 65.880206 
L 35.497833 65.802955 
L 35.632167 65.688305 
L 35.725167 65.655172 
L 35.6425 65.698975 
L 35.751 65.699839 
L 35.7665 65.72093 
L 35.823333 65.618135 
L 35.931833 65.519539 
L 35.947333 65.541037 
L 36.066167 65.433368 
L 36.763667 64.46817 
L 36.908333 63.441746 
L 36.9445 61.283847 
L 36.970333 52.97934 
L 37.047833 61.953109 
L 37.104667 63.167778 
L 37.177 62.91131 
L 37.259667 62.060017 
L 37.326833 61.113625 
L 37.394 61.537714 
L 37.549 61.726606 
L 37.5645 61.713237 
L 37.683333 61.786583 
L 37.704 61.76119 
L 37.8125 61.822504 
L 37.8435 61.857003 
L 37.926167 61.847403 
L 38.019167 61.863663 
L 37.9365 61.831766 
L 38.039833 61.846829 
L 38.148333 61.926273 
L 38.179333 61.891037 
L 38.251667 61.860083 
L 38.2 61.91072 
L 38.293 61.883112 
L 38.411833 61.954998 
L 38.417 61.948322 
L 38.566833 61.92834 
L 38.696 61.974343 
L 38.721833 61.938004 
L 38.8355 61.994313 
L 38.882 61.959779 
L 38.933667 62.047765 
L 39.3625 62.060104 
L 39.5485 62.140772 
L 39.646667 62.084034 
L 39.667333 62.114165 
L 39.708667 62.218251 
L 39.786167 62.149878 
L 39.801667 62.128261 
L 39.9205 62.14161 
L 39.925667 62.129686 
L 40.008333 62.209352 
L 40.618 62.185185 
L 40.638667 62.18017 
L 40.654167 62.235021 
L 40.68 62.258165 
L 40.767833 62.431259 
L 40.804 62.3963 
L 40.902167 62.223163 
L 40.953833 62.31226 
L 41.0675 62.451991 
L 41.077833 62.42973 
L 41.165667 62.38519 
L 41.1915 62.432702 
L 41.269 62.421939 
L 41.289667 62.390388 
L 41.356833 62.380061 
L 41.387833 62.425583 
L 41.418833 62.410119 
L 41.5325 62.533982 
L 41.548 62.514634 
L 41.604833 62.595982 
L 41.61 62.624045 
L 41.692667 62.500202 
L 41.697833 62.521674 
L 41.816667 62.105036 
L 41.8735 62.269945 
L 42.131833 63.184292 
L 42.142167 63.154029 
L 42.266167 62.962076 
L 42.348833 61.909727 
L 42.395333 59.61182 
L 42.447 62.132867 
L 42.545167 64.35719 
L 42.5865 64.320417 
L 42.757 64.039868 
L 42.777667 64.054886 
L 42.8345 64.044813 
L 42.860333 63.989325 
L 42.870667 63.998729 
L 43.077333 64.204 
L 43.278833 64.725822 
L 43.346 64.890386 
L 43.8265 65.952943 
L 43.862667 66.057312 
L 44.2295 66.886673 
L 44.239833 66.874518 
L 44.301833 66.96726 
L 44.549833 67.390771 
L 44.555 67.373044 
L 44.575667 67.377316 
L 44.596333 67.473378 
L 44.963167 68.016785 
L 44.999333 67.994545 
L 45.691667 68.922046 
L 45.696833 68.907648 
L 45.831167 69.074049 
L 45.913833 69.046515 
L 45.944833 69.054645 
L 46.229 69.353958 
L 46.285833 69.252142 
L 46.373667 69.239962 
L 46.384 69.277776 
L 46.420167 69.264313 
L 46.513167 69.354401 
L 46.518333 69.368346 
L 46.590667 69.252695 
L 46.595833 69.258037 
L 46.6785 69.268275 
L 46.714667 69.234642 
L 46.735333 69.20716 
L 46.8025 69.289032 
L 46.812833 69.282772 
L 46.967833 69.406319 
L 46.9885 69.362323 
L 47.257167 69.3985 
L 47.370833 69.36185 
L 47.293333 69.410177 
L 47.376 69.37846 
L 47.525833 69.315469 
L 47.660167 69.210347 
L 47.6705 69.214001 
L 47.691167 69.221552 
L 47.717 69.157357 
L 47.753167 69.155641 
L 47.872 68.995347 
L 47.908167 69.036813 
L 48.213 68.989385 
L 48.337 69.004762 
L 48.342167 69.002034 
L 48.471333 68.892843 
L 48.502333 68.915889 
L 48.543667 68.825591 
L 48.626333 68.734354 
L 48.667667 68.781499 
L 48.729667 68.804436 
L 48.7555 68.733394 
L 48.771 68.760472 
L 48.889833 68.722153 
L 48.895 68.741464 
L 49.019 68.832705 
L 49.168833 68.657967 
L 49.2515 68.749819 
L 49.205 68.629825 
L 49.287667 68.713853 
L 49.659667 69.036017 
L 49.695833 68.970179 
L 49.737167 68.947534 
L 49.783667 69.010527 
L 49.804333 68.992229 
L 49.954167 68.959913 
L 49.959333 68.970448 
L 50.016167 69.014198 
L 50.073 68.938156 
L 50.1815 68.926098 
L 50.0885 68.95197 
L 50.197 68.936057 
L 50.331333 68.837706 
L 50.372667 68.786195 
L 50.439833 68.828127 
L 50.445 68.841097 
L 50.470833 68.785293 
L 50.532833 68.772714 
L 50.744667 68.62621 
L 50.749833 68.634008 
L 50.7705 68.645362 
L 50.791167 68.589773 
L 50.837667 68.573171 
L 51.395667 68.127595 
L 51.5455 68.055578 
L 51.550667 68.073649 
L 51.6075 68.194311 
L 51.6695 68.109437 
L 51.896833 68.0152 
L 52.020833 67.989276 
L 51.927833 68.055649 
L 52.026 67.998923 
L 52.031167 68.028267 
L 52.067333 67.984708 
L 52.1345 68.002267 
L 52.253333 67.978195 
L 52.268833 67.998694 
L 52.294667 67.969714 
L 52.392833 68.056334 
L 52.656333 67.831379 
L 52.671833 67.88066 
L 52.77 68.025339 
L 52.795833 67.99748 
L 52.992167 68.087048 
L 53.007667 68.069549 
L 53.167833 67.972336 
L 53.260833 67.956077 
L 53.209167 67.925294 
L 53.271167 67.939647 
L 53.576 67.817819 
L 53.5915 67.861982 
L 53.596667 67.893758 
L 53.6845 67.795413 
L 53.689667 67.807216 
L 53.725833 67.883602 
L 53.849833 67.787941 
L 53.958333 67.821841 
L 53.979 67.803158 
L 54.015167 67.821993 
L 54.097833 67.739987 
L 54.170167 67.86649 
L 54.221833 67.812577 
L 54.3355 67.723505 
L 54.232167 67.821984 
L 54.356167 67.751847 
L 54.469833 67.882487 
L 54.4905 67.874011 
L 54.6145 67.794237 
L 54.516333 67.91121 
L 54.624833 67.804343 
L 54.774667 67.847379 
L 54.785 67.82957 
L 55.1725 67.650613 
L 55.177667 67.670863 
L 55.229333 67.600617 
L 55.281 67.632464 
L 55.4205 67.757886 
L 55.446333 67.686634 
L 55.554833 67.832627 
L 55.585833 67.892167 
L 55.6685 67.855831 
L 55.673667 67.860218 
L 55.720167 67.758034 
L 55.725333 67.76223 
L 55.839 67.688782 
L 55.844167 67.693321 
L 55.8855 67.736683 
L 55.957833 67.69896 
L 55.999167 67.663723 
L 56.061167 67.72784 
L 56.066333 67.708861 
L 56.076667 67.687047 
L 56.154167 67.781856 
L 56.159333 67.771332 
L 56.324667 68.025745 
L 56.345333 68.016798 
L 56.433167 68.09845 
L 56.6605 68.250696 
L 56.670833 68.237397 
L 56.676 68.224728 
L 56.743167 68.344199 
L 56.913667 68.561916 
L 56.975667 68.522694 
L 56.986 68.542668 
L 57.104833 68.564935 
L 57.1255 68.580443 
L 57.1565 68.509534 
L 57.197833 68.524591 
L 57.2495 68.461008 
L 57.3115 68.493529 
L 57.4045 68.532627 
L 57.42 68.475594 
L 57.4355 68.466909 
L 57.456167 68.546623 
L 57.476833 68.564608 
L 57.575 68.599566 
L 57.492333 68.539183 
L 57.595667 68.567218 
L 57.972833 68.671056 
L 57.978 68.636841 
L 58.060667 68.805091 
L 58.065833 68.769151 
L 58.076167 68.789633 
L 58.143333 68.690649 
L 58.2105 68.700884 
L 58.1795 68.735214 
L 58.231167 68.759683 
L 58.277667 68.726078 
L 58.344833 68.778188 
L 58.665167 68.722657 
L 58.691 68.740511 
L 58.742667 68.652379 
L 58.794333 68.609724 
L 58.835667 68.718189 
L 58.8615 68.632607 
L 58.9235 68.679695 
L 58.980333 68.63537 
L 59.1095 68.49516 
L 59.119833 68.500568 
L 59.135333 68.543103 
L 59.187 68.428266 
L 59.207667 68.36697 
L 59.300667 68.424929 
L 59.429833 68.547143 
L 59.471167 68.493055 
L 59.517667 68.495651 
L 59.522833 68.472454 
L 59.584833 68.573079 
L 59.610667 68.569765 
L 59.894833 68.514422 
L 60.003333 68.476063 
L 59.905167 68.522357 
L 60.024 68.489099 
L 60.571667 68.455945 
L 60.587167 68.409992 
L 60.664667 68.533053 
L 60.742167 68.567949 
L 60.700833 68.487989 
L 60.7835 68.532958 
L 60.954 68.496332 
L 61.0315 68.372209 
L 61.072833 68.45644 
L 61.114167 68.503141 
L 61.191667 68.477828 
L 61.357 68.520041 
L 61.212333 68.433121 
L 61.3725 68.477146 
L 61.377667 68.469256 
L 61.439667 68.568087 
L 61.656667 68.58434 
L 61.667 68.538889 
L 61.7755 68.529111 
L 61.734167 68.560917 
L 61.780667 68.532202 
L 61.811667 68.499097 
L 61.904667 68.593444 
L 62.1475 68.531409 
L 62.157833 68.583334 
L 62.183667 68.617242 
L 62.235333 68.536043 
L 62.266333 68.566275 
L 62.462667 68.47063 
L 62.6125 68.53169 
L 62.726167 68.510303 
L 62.653833 68.565066 
L 62.7365 68.542106 
L 63.020667 68.52243 
L 63.036167 68.452798 
L 63.134333 68.499118 
L 63.258333 68.435252 
L 63.155 68.514467 
L 63.279 68.468263 
L 63.676833 68.514291 
L 63.707833 68.461121 
L 63.749167 68.53979 
L 63.795667 68.498049 
L 63.878333 68.556777 
L 63.904167 68.495671 
L 63.919667 68.470029 
L 63.940333 68.547475 
L 63.997167 68.554029 
L 64.1315 68.668905 
L 64.157333 68.613176 
L 64.167667 68.595575 
L 64.203833 68.677117 
L 64.250333 68.65813 
L 64.405333 68.751302 
L 64.4105 68.748503 
L 64.694667 68.7545 
L 64.767 68.71904 
L 64.741167 68.695224 
L 64.777333 68.692834 
L 64.978833 68.487431 
L 65.087333 68.606837 
L 65.108 68.578634 
L 65.211333 68.610491 
L 65.226833 68.563281 
L 65.252667 68.572691 
L 65.299167 68.476337 
L 65.325 68.419838 
L 65.397333 68.500068 
L 65.4025 68.498275 
L 65.5575 68.580483 
L 65.950167 68.745788 
L 66.094833 68.672841 
L 66.265333 68.713433 
L 66.280833 68.688207 
L 66.379 68.57386 
L 66.415167 68.595471 
L 66.477167 68.54248 
L 66.539167 68.567551 
L 66.761333 68.626474 
L 66.554667 68.543527 
L 66.7665 68.610365 
L 66.869833 68.512336 
L 66.7975 68.635853 
L 66.895667 68.562651 
L 66.911167 68.537133 
L 67.0145 68.60918 
L 67.143667 68.536222 
L 67.185 68.569693 
L 67.210833 68.471329 
L 67.241833 68.500977 
L 67.329667 68.476466 
L 67.267667 68.545809 
L 67.3555 68.511076 
L 67.515667 68.425549 
L 67.613833 68.376253 
L 67.6345 68.414983 
L 67.691333 68.383144 
L 67.753333 68.44257 
L 67.784333 68.408045 
L 67.856667 68.468994 
L 67.9755 68.441836 
L 67.980667 68.429362 
L 68.053 68.376819 
L 68.104667 68.426762 
L 68.7505 68.188044 
L 68.957167 68.005344 
L 68.962333 68.018015 
L 69.256833 67.888066 
L 69.334333 67.955649 
L 69.375667 67.881785 
L 69.603 67.628322 
L 69.644333 67.678575 
L 69.763167 67.578378 
L 69.871667 67.456001 
L 69.887167 67.46383 
L 69.8975 67.432384 
L 70.109333 67.487285 
L 70.197167 67.396401 
L 70.233333 67.448762 
L 70.305667 67.504593 
L 70.347 67.471865 
L 70.3625 67.48486 
L 70.512333 67.302454 
L 70.595 67.366702 
L 70.631167 67.334537 
L 70.713833 67.345497 
L 70.651833 67.385958 
L 70.724167 67.383797 
L 70.7345 67.40768 
L 70.812 67.293916 
L 70.977333 67.215845 
L 71.054833 67.090235 
L 71.101333 67.170317 
L 71.2615 67.090312 
L 71.116833 67.195771 
L 71.287333 67.136844 
L 71.411333 67.218326 
L 71.421667 67.203739 
L 71.499167 67.182541 
L 71.535333 67.201489 
L 71.638667 67.289356 
L 71.545667 67.196868 
L 71.659333 67.256672 
L 71.721333 67.322812 
L 71.783333 67.223419 
L 71.938333 67.314834 
L 71.948667 67.307938 
L 72.0675 67.263299 
L 71.979667 67.337766 
L 72.083 67.302431 
L 72.212167 67.264402 
L 72.227667 67.3087 
L 72.336167 67.373153 
L 72.351667 67.360033 
L 72.480833 67.186242 
L 72.486 67.187515 
L 72.491167 67.205122 
L 72.548 67.127046 
L 72.589333 67.147915 
L 72.6565 67.10583 
L 72.708167 67.163702 
L 72.863167 67.194252 
L 72.878667 67.150587 
L 73.018167 67.082831 
L 72.9045 67.199325 
L 73.023333 67.094068 
L 73.085333 67.164874 
L 73.142167 67.068598 
L 73.266167 67.025456 
L 73.162833 67.088164 
L 73.281667 67.043471 
L 73.478 67.207252 
L 73.297167 67.031138 
L 73.503833 67.16318 
L 73.658833 67.011538 
L 73.674333 67.018176 
L 73.684667 67.074204 
L 73.715667 66.995104 
L 73.788 67.022601 
L 73.917167 66.963392 
L 74.134167 66.896249 
L 74.139333 66.908095 
L 74.170333 66.929657 
L 74.222 66.838474 
L 74.2375 66.859784 
L 74.3925 66.640806 
L 74.397667 66.654959 
L 74.475167 66.603632 
L 74.5165 66.660264 
L 74.521667 66.671695 
L 74.599167 66.576634 
L 74.707667 66.525791 
L 74.625 66.600974 
L 74.718 66.560492 
L 74.816167 66.627531 
L 74.836833 66.584007 
L 74.940167 66.618371 
L 74.960833 66.545601 
L 75.214 66.411954 
L 75.250167 66.448843 
L 75.343167 66.30101 
L 75.529167 66.375379 
L 75.668667 66.346628 
L 75.673833 66.357072 
L 75.7565 66.40968 
L 75.6945 66.328929 
L 75.797833 66.363106 
L 75.947667 66.244529 
L 75.952833 66.261203 
L 76.076833 66.305909 
L 76.231833 66.279929 
L 76.113 66.343628 
L 76.237 66.289965 
L 76.273167 66.318187 
L 76.304167 66.250514 
L 76.33 66.246772 
L 76.495333 66.093688 
L 76.366167 66.274092 
L 76.5005 66.097946 
L 76.5315 66.104234 
L 76.578 66.161772 
L 76.588333 66.16039 
L 76.598667 66.226157 
L 76.702 66.171087 
L 76.800167 66.191009 
L 76.826 66.145094 
L 76.924167 65.996408 
L 76.95 66.032516 
L 77.301333 65.841172 
L 77.420167 65.954276 
L 77.4305 65.938611 
L 77.451167 65.941429 
L 77.4925 66.036604 
L 77.564833 66.058257 
L 77.580333 66.001536 
L 77.595833 66.001457 
L 77.812833 65.955324 
L 77.818 65.976257 
L 77.9265 66.047845 
L 77.952333 65.989286 
L 78.009167 65.860936 
L 78.076333 65.916484 
L 78.159 65.935644 
L 78.102167 65.898626 
L 78.179667 65.88583 
L 78.345 65.683869 
L 78.520667 65.608269 
L 78.562 65.66516 
L 78.613667 65.531478 
L 79.378333 64.834829 
L 79.388667 64.868371 
L 79.4765 64.843727 
L 79.455833 64.793959 
L 79.486833 64.830358 
L 79.874333 63.031081 
L 79.900167 59.769585 
L 79.920833 53.365582 
L 80.0035 61.993176 
L 80.060333 62.786088 
L 80.122333 62.477605 
L 80.2515 61.43617 
L 80.339333 61.529658 
L 80.463333 61.629845 
L 80.473667 61.622373 
L 80.608 61.68544 
L 80.845667 61.740412 
L 80.912833 61.81314 
L 80.943833 61.757713 
L 80.990333 61.824011 
L 81.062667 61.806888 
L 81.786 61.933341 
L 81.873833 61.966366 
L 81.822167 61.919372 
L 81.904833 61.937746 
L 82.0495 61.951331 
L 82.189 62.010073 
L 82.292333 62.01782 
L 82.2975 62.032736 
L 82.307833 62.026576 
L 82.447333 62.093433 
L 82.555833 62.023816 
L 82.566167 62.047174 
L 82.623 62.103734 
L 82.679833 62.03039 
L 82.685 62.003508 
L 82.767667 62.125924 
L 82.829667 62.08818 
L 82.881333 62.111187 
L 83.098333 62.21235 
L 83.119 62.158026 
L 83.186167 62.100579 
L 83.2275 62.169148 
L 83.2895 62.254272 
L 83.341167 62.159198 
L 83.392833 62.153182 
L 83.434167 62.222311 
L 83.558167 62.273232 
L 83.666667 62.231573 
L 83.677 62.24346 
L 83.919833 62.345911 
L 83.930167 62.328015 
L 84.028333 62.246508 
L 84.049 62.299137 
L 84.147167 62.406322 
L 84.178167 62.488122 
L 84.255667 62.40093 
L 84.359 62.23917 
L 84.400333 62.311408 
L 84.514 62.572348 
L 84.576 62.456498 
L 84.632833 62.333888 
L 84.689667 62.251005 
L 84.741333 62.351893 
L 84.782667 62.458022 
L 84.927333 62.734573 
L 84.9325 62.753455 
L 85.015167 62.660644 
L 85.154667 62.073476 
L 85.206333 61.856164 
L 85.252833 62.085575 
L 85.449167 63.28087 
L 85.619667 62.54351 
L 85.6765 60.623912 
L 85.702333 59.723022 
L 85.754 62.450043 
L 85.836667 64.202784 
L 85.888333 64.128918 
L 86.095 63.721468 
L 86.151833 63.674465 
L 86.115667 63.677211 
L 86.157 63.645663 
L 86.368833 62.484036 
L 86.425667 57.841164 
L 86.472167 62.487784 
L 86.534167 65.027809 
L 86.601333 64.7773 
L 86.632333 64.659846 
L 86.818333 64.226096 
L 86.8235 64.231241 
L 86.983667 64.131763 
L 86.994 64.150052 
L 87.4745 64.781587 
L 87.639833 65.049575 
L 87.645 65.041148 
L 87.732833 65.165881 
L 87.924 65.623887 
L 88.182333 65.98434 
L 88.203 65.979061 
L 88.234 66.05407 
L 88.259833 66.061664 
L 88.440667 66.28897 
L 88.445833 66.272533 
L 88.513 66.419621 
L 88.518167 66.412778 
L 88.724833 66.895458 
L 88.755833 66.880369 
L 88.771333 66.876485 
L 88.802333 66.97217 
L 89.029667 67.442394 
L 89.045167 67.430725 
L 89.3655 67.766487 
L 89.370667 67.756285 
L 89.4275 67.872972 
L 89.432667 67.861639 
L 89.840833 68.505193 
L 89.846 68.481119 
L 89.877 68.519476 
L 89.97 68.50677 
L 90.099167 68.655595 
L 90.114667 68.632998 
L 90.119833 68.618229 
L 90.187 68.70192 
L 90.2025 68.706431 
L 90.429833 68.882374 
L 90.238667 68.669851 
L 90.445333 68.865985 
L 90.533167 68.8189 
L 90.553833 68.86357 
L 90.677833 68.917346 
L 90.564167 68.854858 
L 90.688167 68.880679 
L 90.812167 68.842326 
L 90.817333 68.849733 
L 90.910333 68.970917 
L 90.9465 68.919972 
L 91.049833 68.96711 
L 91.137667 69.046071 
L 91.1635 68.956603 
L 91.3495 68.916132 
L 91.406333 68.993942 
L 91.458 68.931798 
L 91.499333 68.847341 
L 91.571667 68.898886 
L 91.778333 68.739403 
L 91.7835 68.742763 
L 91.855833 68.752827 
L 91.871333 68.711712 
L 91.892 68.735815 
L 91.954 68.603883 
L 92.026333 68.660875 
L 92.114167 68.761479 
L 92.14 68.698195 
L 92.212333 68.563675 
L 92.2795 68.612167 
L 92.388 68.691186 
L 92.398333 68.665852 
L 92.548167 68.598683 
L 92.579167 68.6295 
L 92.703167 68.670872 
L 92.734167 68.627317 
L 92.853 68.556119 
L 92.858167 68.561393 
L 92.915 68.597598 
L 92.894333 68.542296 
L 92.966667 68.540979 
L 93.095833 68.493945 
L 93.0235 68.58454 
L 93.101 68.508037 
L 93.152667 68.507713 
L 93.126833 68.469074 
L 93.194 68.464183 
L 93.369667 68.310761 
L 93.385167 68.321757 
L 93.452333 68.242717 
L 93.498833 68.330186 
L 93.5505 68.279692 
L 93.607333 68.331503 
L 93.6125 68.338038 
L 93.622833 68.277684 
L 93.684833 68.264974 
L 93.7055 68.20723 
L 93.762333 68.33132 
L 93.788167 68.303716 
L 93.7985 68.310554 
L 93.907 68.306771 
L 94.025833 68.270651 
L 94.031 68.256344 
L 94.144667 68.20224 
L 94.180833 68.228167 
L 94.211833 68.268226 
L 94.284167 68.194578 
L 94.532167 67.998835 
L 94.547667 68.016894 
L 94.661333 68.048004 
L 94.676833 67.998342 
L 95.028167 67.866028 
L 95.033333 67.873734 
L 95.126333 67.895209 
L 95.054 67.847916 
L 95.152167 67.869039 
L 95.291667 67.799444 
L 95.834167 67.787118 
L 95.8445 67.82105 
L 95.896167 67.720227 
L 95.932333 67.742939 
L 96.082167 67.620786 
L 96.087333 67.633189 
L 96.190667 67.626242 
L 96.206167 67.600508 
L 96.319833 67.515972 
L 96.361167 67.57492 
L 96.366333 67.586419 
L 96.418 67.502054 
L 96.449 67.503545 
L 96.593667 67.66443 
L 96.459333 67.480771 
L 96.645333 67.579772 
L 96.6505 67.561314 
L 96.722833 67.685672 
L 96.738333 67.648392 
L 97.038 67.668757 
L 97.043167 67.648712 
L 97.203333 67.556749 
L 97.508167 67.395245 
L 97.606333 67.403981 
L 97.523667 67.407096 
L 97.6115 67.417909 
L 97.668333 67.519235 
L 97.7355 67.471818 
L 97.745833 67.48953 
L 97.807833 67.376903 
L 97.823333 67.401529 
L 97.926667 67.408058 
L 97.849167 67.452063 
L 97.931833 67.413006 
L 98.040333 67.412182 
L 97.993833 67.35165 
L 98.0455 67.401806 
L 98.143667 67.272033 
L 98.1695 67.345209 
L 98.2935 67.433596 
L 99.228667 67.489504 
L 99.27 67.544122 
L 99.342333 67.487756 
L 99.368167 67.445364 
L 99.4095 67.557584 
L 99.445667 67.524613 
L 99.8125 67.926076 
L 100.107 68.198835 
L 100.112167 68.181262 
L 100.143167 68.244284 
L 100.2 68.257739 
L 100.334333 68.222223 
L 100.411833 68.171541 
L 100.4325 68.246887 
L 100.453167 68.192544 
L 101.388333 68.491615 
L 101.522667 68.396525 
L 101.527833 68.403095 
L 101.8895 68.462711 
L 102.3855 68.535451 
L 102.390667 68.556458 
L 102.411333 68.471015 
L 102.488833 68.530621 
L 102.504333 68.50062 
L 102.566333 68.559982 
L 102.597333 68.534593 
L 102.638667 68.48266 
L 102.7265 68.532894 
L 102.809167 68.43368 
L 102.845333 68.483806 
L 102.984833 68.473116 
L 103.026167 68.454752 
L 103.124333 68.516841 
L 103.212167 68.504258 
L 103.227667 68.551632 
L 103.362 68.634002 
L 103.243167 68.541456 
L 103.3775 68.591255 
L 103.424 68.506448 
L 103.387833 68.605964 
L 103.4705 68.609996 
L 103.491167 68.6716 
L 103.506667 68.603588 
L 103.579 68.608263 
L 103.852833 68.575025 
L 103.976833 68.477423 
L 103.868333 68.586322 
L 103.982 68.480715 
L 103.987167 68.471676 
L 104.049167 68.575169 
L 104.054333 68.568281 
L 104.147333 68.6007 
L 104.0905 68.536311 
L 104.173167 68.577001 
L 104.286833 68.577456 
L 104.410833 68.639614 
L 104.591667 68.626519 
L 104.669167 68.70026 
L 104.7105 68.662046 
L 104.875833 68.674419 
L 105.010167 68.556706 
L 105.216833 68.355885 
L 105.3305 68.357959 
L 105.47 68.496734 
L 105.573333 68.427069 
L 105.604333 68.445183 
L 105.707667 68.536434 
L 105.976333 68.596736 
L 105.991833 68.522735 
L 106.064167 68.569196 
L 106.069333 68.585225 
L 106.0745 68.615536 
L 106.141667 68.471339 
L 106.162333 68.478744 
L 106.611833 68.444254 
L 106.617 68.467868 
L 106.8185 68.455474 
L 106.885667 68.376267 
L 106.932167 68.44005 
L 106.947667 68.471345 
L 107.009667 68.366344 
L 107.030333 68.382627 
L 107.226667 68.24084 
L 107.257667 68.264569 
L 107.335167 68.218091 
L 107.536667 68.235224 
L 107.541833 68.214685 
L 107.6555 68.082423 
L 107.676167 68.129029 
L 107.826 68.097443 
L 107.851833 68.15071 
L 107.888 68.070077 
L 107.939667 68.110885 
L 108.074 68.02526 
L 108.1205 68.070102 
L 108.172167 67.984577 
L 108.2755 68.015185 
L 108.2135 68.030339 
L 108.285833 68.02789 
L 108.415 68.131876 
L 108.425333 68.101135 
L 108.533833 68.088794 
L 108.513167 68.151249 
L 108.539 68.092696 
L 108.544167 68.132811 
L 108.601 68.053154 
L 108.6475 68.073098 
L 108.823167 68.025659 
L 108.936833 68.07725 
L 108.9575 68.065844 
L 109.029833 67.980842 
L 109.086667 68.024733 
L 109.102167 68.044065 
L 109.128 67.988147 
L 109.19 67.991242 
L 109.231333 67.975047 
L 109.252 67.908413 
L 109.277833 67.923756 
L 109.376 67.876919 
L 109.494833 67.9516 
L 109.5 67.95002 
L 109.644667 67.8685 
L 109.525833 67.988903 
L 109.649833 67.883287 
L 109.804833 67.944553 
L 109.851333 67.859544 
L 109.913333 67.931021 
L 109.928833 67.961807 
L 109.990833 67.812756 
L 110.001167 67.827567 
L 110.052833 67.857841 
L 110.021833 67.810423 
L 110.099333 67.782543 
L 110.244 67.715261 
L 110.347333 67.673218 
L 110.311167 67.737159 
L 110.357667 67.685497 
L 110.373167 67.700704 
L 110.419667 67.582936 
L 110.440333 67.588707 
L 110.621167 67.506466 
L 110.688333 67.543057 
L 110.7245 67.474165 
L 110.900167 67.511001 
L 110.920833 67.464664 
L 111.044833 67.394744 
L 111.210167 67.434488 
L 111.215333 67.428079 
L 111.6545 67.35229 
L 111.726833 67.418274 
L 111.773333 67.380244 
L 111.985167 67.275634 
L 112.155667 67.501625 
L 112.160833 67.479804 
L 112.300333 67.285574 
L 112.310667 67.309137 
L 112.3365 67.267007 
L 112.419167 67.3492 
L 112.538 67.381921 
L 112.445 67.340101 
L 112.543167 67.380217 
L 112.6 67.466333 
L 112.662 67.378085 
L 112.822167 67.191846 
L 112.9875 67.15402 
L 113.054667 67.110993 
L 113.090833 67.166724 
L 113.152833 67.128982 
L 113.209667 67.203787 
L 113.354333 67.071664 
L 113.462833 67.135147 
L 113.364667 67.043015 
L 113.4835 67.103715 
L 113.509333 67.072339 
L 113.5765 67.186779 
L 113.721167 67.337476 
L 113.767667 67.355602 
L 113.783167 67.40736 
L 113.814167 67.391587 
L 113.958833 67.504403 
L 114.077667 67.415216 
L 114.098333 67.457992 
L 114.201667 67.590443 
L 114.232667 67.554878 
L 114.439333 67.619718 
L 114.253333 67.517245 
L 114.449667 67.595747 
L 114.470333 67.603684 
L 114.501333 67.696594 
L 114.671833 67.663481 
L 114.687333 67.623029 
L 114.77 67.701781 
L 114.873333 67.760926 
L 114.888833 67.728145 
L 114.930167 67.785433 
L 115.007667 67.75102 
L 115.1575 67.859646 
L 115.167833 67.829429 
L 115.209167 67.782126 
L 115.276333 67.837772 
L 115.3435 67.892066 
L 115.400333 67.852102 
L 115.421 67.832502 
L 115.4675 67.927569 
L 115.555333 68.012134 
L 115.596667 67.983596 
L 115.612167 67.962499 
L 115.694833 68.028213 
L 115.7 68.016078 
L 115.725833 67.985204 
L 115.818833 68.032408 
L 116.159833 68.071173 
L 116.2735 68.101752 
L 116.289 68.077402 
L 116.402667 68.033359 
L 116.418167 68.045491 
L 116.754 68.166018 
L 116.759167 68.149842 
L 116.878 68.01468 
L 116.8935 68.033194 
L 116.934833 68.079466 
L 116.991667 67.988385 
L 117.549667 67.850742 
L 117.715 67.702642 
L 117.833833 67.782432 
L 117.844167 67.771067 
L 118.056 67.768921 
L 118.149 67.873568 
L 118.1955 67.842285 
L 118.701833 67.782493 
L 118.856833 67.874872 
L 118.867167 67.846969 
L 118.9085 67.880997 
L 119.027333 67.690931 
L 119.208167 67.822962 
L 119.053167 67.658734 
L 119.239167 67.749827 
L 119.301167 67.757833 
L 119.332167 67.801241 
L 119.409667 67.902903 
L 119.456167 67.847044 
L 119.564667 67.752813 
L 119.864333 67.682615 
L 119.941833 67.704697 
L 119.983167 67.671983 
L 120.122667 67.554149 
L 120.138167 67.571791 
L 120.246667 67.576212 
L 120.257 67.567397 
L 120.3965 67.600774 
L 120.505 67.555187 
L 120.525667 67.566292 
L 120.618667 67.636585 
L 120.649667 67.61418 
L 120.918333 67.709836 
L 120.97 67.701157 
L 120.933833 67.722294 
L 121.0165 67.749723 
L 121.032 67.733557 
L 121.212833 67.837193 
L 121.693333 67.842751 
L 122.1635 67.609465 
L 122.184167 67.621255 
L 122.282333 67.603268 
L 122.3805 67.71143 
L 122.4115 67.681283 
L 122.561333 67.449564 
L 122.5665 67.461865 
L 122.613 67.382102 
L 122.638833 67.38787 
L 122.685333 67.416068 
L 122.762833 67.333651 
L 122.8145 67.289005 
L 122.850667 67.378565 
L 122.871333 67.353543 
L 122.928167 67.300258 
L 122.995333 67.388611 
L 123.14 67.440453 
L 123.145167 67.437476 
L 123.2485 67.447735 
L 123.258833 67.470903 
L 123.289833 67.51198 
L 123.3415 67.405489 
L 123.346667 67.405862 
L 123.475833 67.358211 
L 123.491333 67.3703 
L 123.667 67.536473 
L 123.842667 67.413135 
L 123.847833 67.422994 
L 123.977 67.48953 
L 124.049333 67.511776 
L 124.028667 67.562699 
L 124.064833 67.551166 
L 124.1785 67.46163 
L 124.281833 67.382763 
L 124.307667 67.398242 
L 124.349 67.418693 
L 124.328333 67.367144 
L 124.374833 67.405894 
" style="fill:none;stroke:#000000;stroke-linecap:square;stroke-width:0.3;"/>
   </g>
   <g id="line2d_4">
    <path clip-path="url(#p5401213a15)" d="M 103.196667 10.165091 
L 123.822 10.165091 
" style="fill:none;stroke:#000000;stroke-linecap:square;"/>
   </g>
   <g id="line2d_5">
    <path clip-path="url(#p5401213a15)" d="M 124.38 17.619387 
L 124.38 10.314177 
" style="fill:none;stroke:#000000;stroke-linecap:square;"/>
   </g>
  </g>
 </g>
 <defs>
  <clipPath id="p5401213a15">
   <rect height="65.232" width="122.76" x="7.2" y="7.2"/>
  </clipPath>
 </defs>
</svg>
