<?xml version="1.0" encoding="utf-8" standalone="no"?>
<!DOCTYPE svg PUBLIC "-//W3C//DTD SVG 1.1//EN"
  "http://www.w3.org/Graphics/SVG/1.1/DTD/svg11.dtd">
<!-- Created with matplotlib (https://matplotlib.org/) -->
<svg height="125.690625pt" version="1.1" viewBox="0 0 279.245 125.690625" width="279.245pt" xmlns="http://www.w3.org/2000/svg" xmlns:xlink="http://www.w3.org/1999/xlink">
 <metadata>
  <rdf:RDF xmlns:cc="http://creativecommons.org/ns#" xmlns:dc="http://purl.org/dc/elements/1.1/" xmlns:rdf="http://www.w3.org/1999/02/22-rdf-syntax-ns#">
   <cc:Work>
    <dc:type rdf:resource="http://purl.org/dc/dcmitype/StillImage"/>
    <dc:date>2021-01-26T17:22:31.174049</dc:date>
    <dc:format>image/svg+xml</dc:format>
    <dc:creator>
     <cc:Agent>
      <dc:title>Matplotlib v3.3.2, https://matplotlib.org/</dc:title>
     </cc:Agent>
    </dc:creator>
   </cc:Work>
  </rdf:RDF>
 </metadata>
 <defs>
  <style type="text/css">*{stroke-linecap:butt;stroke-linejoin:round;}</style>
 </defs>
 <g id="figure_1">
  <g id="patch_1">
   <path d="M 0 125.690625 
L 279.245 125.690625 
L 279.245 0 
L 0 0 
z
" style="fill:none;"/>
  </g>
  <g id="axes_1">
   <g id="patch_2">
    <path d="M 48.845 67.588125 
L 272.045 67.588125 
L 272.045 12.148125 
L 48.845 12.148125 
z
" style="fill:none;"/>
   </g>
   <g id="patch_3">
    <path clip-path="url(#p4ade807b76)" d="M 50.313421 67.588125 
L 53.250263 67.588125 
L 53.250263 62.268213 
L 50.313421 62.268213 
z
" style="fill:#2b8cbe;"/>
   </g>
   <g id="patch_4">
    <path clip-path="url(#p4ade807b76)" d="M 64.997632 67.588125 
L 67.934474 67.588125 
L 67.934474 65.808209 
L 64.997632 65.808209 
z
" style="fill:#2b8cbe;"/>
   </g>
   <g id="patch_5">
    <path clip-path="url(#p4ade807b76)" d="M 79.681842 67.588125 
L 82.618684 67.588125 
L 82.618684 63.685906 
L 79.681842 63.685906 
z
" style="fill:#2b8cbe;"/>
   </g>
   <g id="patch_6">
    <path clip-path="url(#p4ade807b76)" d="M 94.366053 67.588125 
L 97.302895 67.588125 
L 97.302895 49.050746 
L 94.366053 49.050746 
z
" style="fill:#2b8cbe;"/>
   </g>
   <g id="patch_7">
    <path clip-path="url(#p4ade807b76)" d="M 109.050263 67.588125 
L 111.987105 67.588125 
L 111.987105 63.369378 
L 109.050263 63.369378 
z
" style="fill:#2b8cbe;"/>
   </g>
   <g id="patch_8">
    <path clip-path="url(#p4ade807b76)" d="M 123.734474 67.588125 
L 126.671316 67.588125 
L 126.671316 64.066482 
L 123.734474 64.066482 
z
" style="fill:#2b8cbe;"/>
   </g>
   <g id="patch_9">
    <path clip-path="url(#p4ade807b76)" d="M 138.418684 67.588125 
L 141.355526 67.588125 
L 141.355526 65.147104 
L 138.418684 65.147104 
z
" style="fill:#2b8cbe;"/>
   </g>
   <g id="patch_10">
    <path clip-path="url(#p4ade807b76)" d="M 153.102895 67.588125 
L 156.039737 67.588125 
L 156.039737 60.836023 
L 153.102895 60.836023 
z
" style="fill:#2b8cbe;"/>
   </g>
   <g id="patch_11">
    <path clip-path="url(#p4ade807b76)" d="M 167.787105 67.588125 
L 170.723947 67.588125 
L 170.723947 60.32624 
L 167.787105 60.32624 
z
" style="fill:#2b8cbe;"/>
   </g>
   <g id="patch_12">
    <path clip-path="url(#p4ade807b76)" d="M 182.471316 67.588125 
L 185.408158 67.588125 
L 185.408158 56.884654 
L 182.471316 56.884654 
z
" style="fill:#2b8cbe;"/>
   </g>
   <g id="patch_13">
    <path clip-path="url(#p4ade807b76)" d="M 197.155526 67.588125 
L 200.092368 67.588125 
L 200.092368 36.246404 
L 197.155526 36.246404 
z
" style="fill:#2b8cbe;"/>
   </g>
   <g id="patch_14">
    <path clip-path="url(#p4ade807b76)" d="M 211.839737 67.588125 
L 214.776579 67.588125 
L 214.776579 35.166164 
L 211.839737 35.166164 
z
" style="fill:#2b8cbe;"/>
   </g>
   <g id="patch_15">
    <path clip-path="url(#p4ade807b76)" d="M 226.523947 67.588125 
L 229.460789 67.588125 
L 229.460789 56.04526 
L 226.523947 56.04526 
z
" style="fill:#2b8cbe;"/>
   </g>
   <g id="patch_16">
    <path clip-path="url(#p4ade807b76)" d="M 241.208158 67.588125 
L 244.145 67.588125 
L 244.145 21.514974 
L 241.208158 21.514974 
z
" style="fill:#2b8cbe;"/>
   </g>
   <g id="patch_17">
    <path clip-path="url(#p4ade807b76)" d="M 255.892368 67.588125 
L 258.829211 67.588125 
L 258.829211 16.690059 
L 255.892368 16.690059 
z
" style="fill:#2b8cbe;"/>
   </g>
   <g id="patch_18">
    <path clip-path="url(#p4ade807b76)" d="M 54.718684 67.588125 
L 57.655526 67.588125 
L 57.655526 62.281995 
L 54.718684 62.281995 
z
" style="fill:#e34a33;"/>
   </g>
   <g id="patch_19">
    <path clip-path="url(#p4ade807b76)" d="M 69.402895 67.588125 
L 72.339737 67.588125 
L 72.339737 66.155249 
L 69.402895 66.155249 
z
" style="fill:#e34a33;"/>
   </g>
   <g id="patch_20">
    <path clip-path="url(#p4ade807b76)" d="M 84.087105 67.588125 
L 87.023947 67.588125 
L 87.023947 64.71357 
L 84.087105 64.71357 
z
" style="fill:#e34a33;"/>
   </g>
   <g id="patch_21">
    <path clip-path="url(#p4ade807b76)" d="M 98.771316 67.588125 
L 101.708158 67.588125 
L 101.708158 50.208383 
L 98.771316 50.208383 
z
" style="fill:#e34a33;"/>
   </g>
   <g id="patch_22">
    <path clip-path="url(#p4ade807b76)" d="M 113.455526 67.588125 
L 116.392368 67.588125 
L 116.392368 64.991087 
L 113.455526 64.991087 
z
" style="fill:#e34a33;"/>
   </g>
   <g id="patch_23">
    <path clip-path="url(#p4ade807b76)" d="M 128.139737 67.588125 
L 131.076579 67.588125 
L 131.076579 65.119943 
L 128.139737 65.119943 
z
" style="fill:#e34a33;"/>
   </g>
   <g id="patch_24">
    <path clip-path="url(#p4ade807b76)" d="M 142.823947 67.588125 
L 145.760789 67.588125 
L 145.760789 65.97136 
L 142.823947 65.97136 
z
" style="fill:#e34a33;"/>
   </g>
   <g id="patch_25">
    <path clip-path="url(#p4ade807b76)" d="M 157.508158 67.588125 
L 160.445 67.588125 
L 160.445 63.177453 
L 157.508158 63.177453 
z
" style="fill:#e34a33;"/>
   </g>
   <g id="patch_26">
    <path clip-path="url(#p4ade807b76)" d="M 172.192368 67.588125 
L 175.129211 67.588125 
L 175.129211 61.258273 
L 172.192368 61.258273 
z
" style="fill:#e34a33;"/>
   </g>
   <g id="patch_27">
    <path clip-path="url(#p4ade807b76)" d="M 186.876579 67.588125 
L 189.813421 67.588125 
L 189.813421 60.144326 
L 186.876579 60.144326 
z
" style="fill:#e34a33;"/>
   </g>
   <g id="patch_28">
    <path clip-path="url(#p4ade807b76)" d="M 201.560789 67.588125 
L 204.497632 67.588125 
L 204.497632 36.785213 
L 201.560789 36.785213 
z
" style="fill:#e34a33;"/>
   </g>
   <g id="patch_29">
    <path clip-path="url(#p4ade807b76)" d="M 216.245 67.588125 
L 219.181842 67.588125 
L 219.181842 43.416931 
L 216.245 43.416931 
z
" style="fill:#e34a33;"/>
   </g>
   <g id="patch_30">
    <path clip-path="url(#p4ade807b76)" d="M 230.929211 67.588125 
L 233.866053 67.588125 
L 233.866053 58.407122 
L 230.929211 58.407122 
z
" style="fill:#e34a33;"/>
   </g>
   <g id="patch_31">
    <path clip-path="url(#p4ade807b76)" d="M 245.613421 67.588125 
L 248.550263 67.588125 
L 248.550263 29.433736 
L 245.613421 29.433736 
z
" style="fill:#e34a33;"/>
   </g>
   <g id="patch_32">
    <path clip-path="url(#p4ade807b76)" d="M 260.297632 67.588125 
L 263.234474 67.588125 
L 263.234474 19.19556 
L 260.297632 19.19556 
z
" style="fill:#e34a33;"/>
   </g>
   <g id="matplotlib.axis_1">
    <g id="xtick_1">
     <g id="line2d_1">
      <defs>
       <path d="M 0 0 
L 0 3.5 
" id="ma82570a5be" style="stroke:#000000;stroke-width:1.5;"/>
      </defs>
      <g>
       <use style="stroke:#000000;stroke-width:1.5;" x="56.187105" xlink:href="#ma82570a5be" y="67.588125"/>
      </g>
     </g>
     <g id="text_1">
      <!-- $T$ -->
      <g transform="translate(58.394605 79.548125)rotate(-90)">
       <text>
        <tspan style="font-family:DejaVu Sans;font-size:8px;font-style:book;font-weight:book;" x="0" y="-0.171875">T</tspan>
       </text>
      </g>
     </g>
    </g>
    <g id="xtick_2">
     <g id="line2d_2">
      <g>
       <use style="stroke:#000000;stroke-width:1.5;" x="70.871316" xlink:href="#ma82570a5be" y="67.588125"/>
      </g>
     </g>
     <g id="text_2">
      <!-- $d^{\mathdefault{b}}_{\mathdefault{AB}}$ -->
      <g transform="translate(73.431316 87.708125)rotate(-90)">
       <text>
        <tspan style="font-family:DejaVu Sans;font-size:8px;font-style:book;font-weight:book;" x="0" y="-0.6828125000000007">d</tspan>
        <tspan style="font-family:DejaVu Sans;font-size:5.6px;font-style:book;font-weight:book;" x="5.154687 5.154687 8.985547" y="-3.7453125000000007 1.5046874999999993 1.5046874999999993">bAB</tspan>
       </text>
      </g>
     </g>
    </g>
    <g id="xtick_3">
     <g id="line2d_3">
      <g>
       <use style="stroke:#000000;stroke-width:1.5;" x="85.555526" xlink:href="#ma82570a5be" y="67.588125"/>
      </g>
     </g>
     <g id="text_3">
      <!-- $d^{\mathdefault{b}}_{\mathdefault{LP}}$ -->
      <g transform="translate(88.115526 86.508125)rotate(-90)">
       <text>
        <tspan style="font-family:DejaVu Sans;font-size:8px;font-style:book;font-weight:book;" x="0" y="-0.6828125000000007">d</tspan>
        <tspan style="font-family:DejaVu Sans;font-size:5.6px;font-style:book;font-weight:book;" x="5.154687 5.154687 8.274609" y="-3.7453125000000007 1.5046874999999993 1.5046874999999993">bLP</tspan>
       </text>
      </g>
     </g>
    </g>
    <g id="xtick_4">
     <g id="line2d_4">
      <g>
       <use style="stroke:#000000;stroke-width:1.5;" x="100.239737" xlink:href="#ma82570a5be" y="67.588125"/>
      </g>
     </g>
     <g id="text_4">
      <!-- $d^{\mathdefault{b}}_{\mathdefault{PY}}$ -->
      <g transform="translate(102.799737 86.828125)rotate(-90)">
       <text>
        <tspan style="font-family:DejaVu Sans;font-size:8px;font-style:book;font-weight:book;" x="0" y="-0.6828125000000007">d</tspan>
        <tspan style="font-family:DejaVu Sans;font-size:5.6px;font-style:book;font-weight:book;" x="5.154687 5.154687 8.531641" y="-3.7453125000000007 1.5046874999999993 1.5046874999999993">bPY</tspan>
       </text>
      </g>
     </g>
    </g>
    <g id="xtick_5">
     <g id="line2d_5">
      <g>
       <use style="stroke:#000000;stroke-width:1.5;" x="114.923947" xlink:href="#ma82570a5be" y="67.588125"/>
      </g>
     </g>
     <g id="text_5">
      <!-- $\Delta t^{\mathdefault{es}}_{\mathdefault{AB-LP}}$ -->
      <g transform="translate(116.923947 104.588125)rotate(-90)">
       <text>
        <tspan style="font-family:DejaVu Sans;font-size:8px;font-style:book;font-weight:book;" x="0 5.472656" y="-0.7984375000000004">Δt</tspan>
        <tspan style="font-family:DejaVu Sans;font-size:5.6px;font-style:book;font-weight:book;" x="8.685937 8.685937 12.13125 12.516797 17.449609 23.232812 26.352734" y="-3.8609375000000004 1.3890624999999996 -3.8609375000000004 1.3890624999999996 1.3890624999999996 1.3890624999999996 1.3890624999999996">eAsB−LP</tspan>
       </text>
      </g>
     </g>
    </g>
    <g id="xtick_6">
     <g id="line2d_6">
      <g>
       <use style="stroke:#000000;stroke-width:1.5;" x="129.608158" xlink:href="#ma82570a5be" y="67.588125"/>
      </g>
     </g>
     <g id="text_6">
      <!-- $\Delta t^{\mathdefault{es}}_{\mathdefault{LP-PY}}$ -->
      <g transform="translate(131.608158 103.708125)rotate(-90)">
       <text>
        <tspan style="font-family:DejaVu Sans;font-size:8px;font-style:book;font-weight:book;" x="0 5.472656" y="-0.7984375000000004">Δt</tspan>
        <tspan style="font-family:DejaVu Sans;font-size:5.6px;font-style:book;font-weight:book;" x="8.685937 8.685937 11.805859 12.13125 16.273828 22.057031 25.433984" y="-3.8609375000000004 1.3890624999999996 1.3890624999999996 -3.8609375000000004 1.3890624999999996 1.3890624999999996 1.3890624999999996">eLPs−PY</tspan>
       </text>
      </g>
     </g>
    </g>
    <g id="xtick_7">
     <g id="line2d_7">
      <g>
       <use style="stroke:#000000;stroke-width:1.5;" x="144.292368" xlink:href="#ma82570a5be" y="67.588125"/>
      </g>
     </g>
     <g id="text_7">
      <!-- $\Delta t^{\mathdefault{ss}}_{\mathdefault{AB-LP}}$ -->
      <g transform="translate(146.292368 104.588125)rotate(-90)">
       <text>
        <tspan style="font-family:DejaVu Sans;font-size:8px;font-style:book;font-weight:book;" x="0 5.472656" y="-0.7984375000000004">Δt</tspan>
        <tspan style="font-family:DejaVu Sans;font-size:5.6px;font-style:book;font-weight:book;" x="8.685937 8.685937 11.603516 12.516797 17.449609 23.232812 26.352734" y="-3.8609375000000004 1.3890624999999996 -3.8609375000000004 1.3890624999999996 1.3890624999999996 1.3890624999999996 1.3890624999999996">sAsB−LP</tspan>
       </text>
      </g>
     </g>
    </g>
    <g id="xtick_8">
     <g id="line2d_8">
      <g>
       <use style="stroke:#000000;stroke-width:1.5;" x="158.976579" xlink:href="#ma82570a5be" y="67.588125"/>
      </g>
     </g>
     <g id="text_8">
      <!-- $\Delta t^{\mathdefault{ss}}_{\mathdefault{LP-PY}}$ -->
      <g transform="translate(160.976579 103.708125)rotate(-90)">
       <text>
        <tspan style="font-family:DejaVu Sans;font-size:8px;font-style:book;font-weight:book;" x="0 5.472656" y="-0.7984375000000004">Δt</tspan>
        <tspan style="font-family:DejaVu Sans;font-size:5.6px;font-style:book;font-weight:book;" x="8.685937 8.685937 11.603516 11.805859 16.273828 22.057031 25.433984" y="-3.8609375000000004 1.3890624999999996 -3.8609375000000004 1.3890624999999996 1.3890624999999996 1.3890624999999996 1.3890624999999996">sLsP−PY</tspan>
       </text>
      </g>
     </g>
    </g>
    <g id="xtick_9">
     <g id="line2d_9">
      <g>
       <use style="stroke:#000000;stroke-width:1.5;" x="173.660789" xlink:href="#ma82570a5be" y="67.588125"/>
      </g>
     </g>
     <g id="text_9">
      <!-- $d_{\mathdefault{AB}}$ -->
      <g transform="translate(175.868289 87.708125)rotate(-90)">
       <text>
        <tspan style="font-family:DejaVu Sans;font-size:8px;font-style:book;font-weight:book;" x="0" y="-0.921875">d</tspan>
        <tspan style="font-family:DejaVu Sans;font-size:5.6px;font-style:book;font-weight:book;" x="5.154687 8.985547" y="0.390625">AB</tspan>
       </text>
      </g>
     </g>
    </g>
    <g id="xtick_10">
     <g id="line2d_10">
      <g>
       <use style="stroke:#000000;stroke-width:1.5;" x="188.345" xlink:href="#ma82570a5be" y="67.588125"/>
      </g>
     </g>
     <g id="text_10">
      <!-- $d_{\mathdefault{LP}}$ -->
      <g transform="translate(190.5525 86.508125)rotate(-90)">
       <text>
        <tspan style="font-family:DejaVu Sans;font-size:8px;font-style:book;font-weight:book;" x="0" y="-0.921875">d</tspan>
        <tspan style="font-family:DejaVu Sans;font-size:5.6px;font-style:book;font-weight:book;" x="5.154687 8.274609" y="0.390625">LP</tspan>
       </text>
      </g>
     </g>
    </g>
    <g id="xtick_11">
     <g id="line2d_11">
      <g>
       <use style="stroke:#000000;stroke-width:1.5;" x="203.029211" xlink:href="#ma82570a5be" y="67.588125"/>
      </g>
     </g>
     <g id="text_11">
      <!-- $d_{\mathdefault{PY}}$ -->
      <g transform="translate(205.236711 86.828125)rotate(-90)">
       <text>
        <tspan style="font-family:DejaVu Sans;font-size:8px;font-style:book;font-weight:book;" x="0" y="-0.921875">d</tspan>
        <tspan style="font-family:DejaVu Sans;font-size:5.6px;font-style:book;font-weight:book;" x="5.154687 8.531641" y="0.390625">PY</tspan>
       </text>
      </g>
     </g>
    </g>
    <g id="xtick_12">
     <g id="line2d_12">
      <g>
       <use style="stroke:#000000;stroke-width:1.5;" x="217.713421" xlink:href="#ma82570a5be" y="67.588125"/>
      </g>
     </g>
     <g id="text_12">
      <!-- $\Delta\phi_{\mathdefault{AB-LP}}$ -->
      <g transform="translate(219.913421 106.748125)rotate(-90)">
       <text>
        <tspan style="font-family:DejaVu Sans;font-size:8px;font-style:book;font-weight:book;" x="0 5.472656" y="-0.921875">Δϕ</tspan>
        <tspan style="font-family:DejaVu Sans;font-size:5.6px;font-style:book;font-weight:book;" x="10.826562 14.657422 19.590234 25.373438 28.493359" y="0.390625">AB−LP</tspan>
       </text>
      </g>
     </g>
    </g>
    <g id="xtick_13">
     <g id="line2d_13">
      <g>
       <use style="stroke:#000000;stroke-width:1.5;" x="232.397632" xlink:href="#ma82570a5be" y="67.588125"/>
      </g>
     </g>
     <g id="text_13">
      <!-- $\Delta\phi_{\mathdefault{LP-PY}}$ -->
      <g transform="translate(234.597632 105.868125)rotate(-90)">
       <text>
        <tspan style="font-family:DejaVu Sans;font-size:8px;font-style:book;font-weight:book;" x="0 5.472656" y="-0.921875">Δϕ</tspan>
        <tspan style="font-family:DejaVu Sans;font-size:5.6px;font-style:book;font-weight:book;" x="10.826562 13.946484 18.414453 24.197656 27.574609" y="0.390625">LP−PY</tspan>
       </text>
      </g>
     </g>
    </g>
    <g id="xtick_14">
     <g id="line2d_14">
      <g>
       <use style="stroke:#000000;stroke-width:1.5;" x="247.081842" xlink:href="#ma82570a5be" y="67.588125"/>
      </g>
     </g>
     <g id="text_14">
      <!-- $\phi_{\mathdefault{LP}}$ -->
      <g transform="translate(249.281842 86.668125)rotate(-90)">
       <text>
        <tspan style="font-family:DejaVu Sans;font-size:8px;font-style:book;font-weight:book;" x="0" y="-0.921875">ϕ</tspan>
        <tspan style="font-family:DejaVu Sans;font-size:5.6px;font-style:book;font-weight:book;" x="5.353906 8.473828" y="0.390625">LP</tspan>
       </text>
      </g>
     </g>
    </g>
    <g id="xtick_15">
     <g id="line2d_15">
      <g>
       <use style="stroke:#000000;stroke-width:1.5;" x="261.766053" xlink:href="#ma82570a5be" y="67.588125"/>
      </g>
     </g>
     <g id="text_15">
      <!-- $\phi_{\mathdefault{PY}}$ -->
      <g transform="translate(263.966053 86.988125)rotate(-90)">
       <text>
        <tspan style="font-family:DejaVu Sans;font-size:8px;font-style:book;font-weight:book;" x="0" y="-0.921875">ϕ</tspan>
        <tspan style="font-family:DejaVu Sans;font-size:5.6px;font-style:book;font-weight:book;" x="5.353906 8.730859" y="0.390625">PY</tspan>
       </text>
      </g>
     </g>
    </g>
    <g id="text_16">
     <text style="font-family:DejaVu Sans;font-size:8px;font-stretch:normal;font-style:normal;font-weight:normal;text-anchor:middle;" transform="rotate(-0, 160.445, 116.826875)" x="160.445" y="116.826875">Summary statistics</text>
    </g>
   </g>
   <g id="matplotlib.axis_2">
    <g id="ytick_1">
     <g id="line2d_16">
      <defs>
       <path d="M 0 0 
L -3.5 0 
" id="m1cff7b3cfd" style="stroke:#000000;stroke-width:1.5;"/>
      </defs>
      <g>
       <use style="stroke:#000000;stroke-width:1.5;" x="48.845" xlink:href="#m1cff7b3cfd" y="67.588125"/>
      </g>
     </g>
     <g id="text_17">
      <text style="font-family:DejaVu Sans;font-size:8px;font-stretch:normal;font-style:normal;font-weight:normal;text-anchor:end;" transform="rotate(-0, 41.845, 70.6275)" x="41.845" y="70.6275">0.000</text>
     </g>
    </g>
    <g id="ytick_2">
     <g id="line2d_17">
      <g>
       <use style="stroke:#000000;stroke-width:1.5;" x="48.845" xlink:href="#m1cff7b3cfd" y="32.938125"/>
      </g>
     </g>
     <g id="text_18">
      <text style="font-family:DejaVu Sans;font-size:8px;font-stretch:normal;font-style:normal;font-weight:normal;text-anchor:end;" transform="rotate(-0, 41.845, 35.9775)" x="41.845" y="35.9775">0.005</text>
     </g>
    </g>
    <g id="text_19">
     <text style="font-family:DejaVu Sans;font-size:8px;font-stretch:normal;font-style:normal;font-weight:normal;text-anchor:middle;" transform="rotate(-90, 13.27875, 39.868125)" x="13.27875" y="39.868125">Median sq. error</text>
    </g>
   </g>
   <g id="patch_33">
    <path d="M 48.845 67.588125 
L 48.845 12.148125 
" style="fill:none;stroke:#000000;stroke-linecap:square;stroke-linejoin:miter;stroke-width:1.5;"/>
   </g>
   <g id="patch_34">
    <path d="M 48.845 67.588125 
L 272.045 67.588125 
" style="fill:none;stroke:#000000;stroke-linecap:square;stroke-linejoin:miter;stroke-width:1.5;"/>
   </g>
   <g id="legend_1">
    <g id="patch_35">
     <path d="M 56.045 25.426875 
L 72.045 25.426875 
L 72.045 19.826875 
L 56.045 19.826875 
z
" style="fill:#2b8cbe;"/>
    </g>
    <g id="text_20">
     <text style="font-family:DejaVu Sans;font-size:8px;font-stretch:normal;font-style:normal;font-weight:normal;text-anchor:start;" transform="rotate(-0, 78.445, 25.426875)" x="78.445" y="25.426875">previous</text>
    </g>
    <g id="patch_36">
     <path d="M 56.045 37.169375 
L 72.045 37.169375 
L 72.045 31.569375 
L 56.045 31.569375 
z
" style="fill:#e34a33;"/>
    </g>
    <g id="text_21">
     <text style="font-family:DejaVu Sans;font-size:8px;font-stretch:normal;font-style:normal;font-weight:normal;text-anchor:start;" transform="rotate(-0, 78.445, 37.169375)" x="78.445" y="37.169375">ours</text>
    </g>
   </g>
  </g>
 </g>
 <defs>
  <clipPath id="p4ade807b76">
   <rect height="55.44" width="223.2" x="48.845" y="12.148125"/>
  </clipPath>
 </defs>
</svg>
