<?xml version="1.0" encoding="utf-8" standalone="no"?>
<!DOCTYPE svg PUBLIC "-//W3C//DTD SVG 1.1//EN"
  "http://www.w3.org/Graphics/SVG/1.1/DTD/svg11.dtd">
<!-- Created with matplotlib (https://matplotlib.org/) -->
<svg height="108.42125pt" version="1.1" viewBox="0 0 279.7875 108.42125" width="279.7875pt" xmlns="http://www.w3.org/2000/svg" xmlns:xlink="http://www.w3.org/1999/xlink">
 <metadata>
  <rdf:RDF xmlns:cc="http://creativecommons.org/ns#" xmlns:dc="http://purl.org/dc/elements/1.1/" xmlns:rdf="http://www.w3.org/1999/02/22-rdf-syntax-ns#">
   <cc:Work>
    <dc:type rdf:resource="http://purl.org/dc/dcmitype/StillImage"/>
    <dc:date>2020-12-17T16:04:42.240564</dc:date>
    <dc:format>image/svg+xml</dc:format>
    <dc:creator>
     <cc:Agent>
      <dc:title>Matplotlib v3.3.2, https://matplotlib.org/</dc:title>
     </cc:Agent>
    </dc:creator>
   </cc:Work>
  </rdf:RDF>
 </metadata>
 <defs>
  <style type="text/css">*{stroke-linecap:butt;stroke-linejoin:round;}</style>
 </defs>
 <g id="figure_1">
  <g id="patch_1">
   <path d="M -0 108.42125 
L 279.7875 108.42125 
L 279.7875 0 
L -0 0 
z
" style="fill:none;"/>
  </g>
  <g id="axes_1">
   <g id="patch_2">
    <path d="M 18.9425 74.71875 
L 88.6925 74.71875 
L 88.6925 19.27875 
L 18.9425 19.27875 
z
" style="fill:none;"/>
   </g>
   <g id="patch_3">
    <path clip-path="url(#pdd9820c3c0)" d="M 18.9425 74.71875 
L 19.64 74.71875 
L 19.64 74.71875 
L 18.9425 74.71875 
z
" style="fill:#3182bd;"/>
   </g>
   <g id="patch_4">
    <path clip-path="url(#pdd9820c3c0)" d="M 19.64 74.71875 
L 20.3375 74.71875 
L 20.3375 74.71875 
L 19.64 74.71875 
z
" style="fill:#3182bd;"/>
   </g>
   <g id="patch_5">
    <path clip-path="url(#pdd9820c3c0)" d="M 20.3375 74.71875 
L 21.035 74.71875 
L 21.035 74.71875 
L 20.3375 74.71875 
z
" style="fill:#3182bd;"/>
   </g>
   <g id="patch_6">
    <path clip-path="url(#pdd9820c3c0)" d="M 21.035 74.71875 
L 21.7325 74.71875 
L 21.7325 74.71875 
L 21.035 74.71875 
z
" style="fill:#3182bd;"/>
   </g>
   <g id="patch_7">
    <path clip-path="url(#pdd9820c3c0)" d="M 21.7325 74.71875 
L 22.43 74.71875 
L 22.43 74.341607 
L 21.7325 74.341607 
z
" style="fill:#3182bd;"/>
   </g>
   <g id="patch_8">
    <path clip-path="url(#pdd9820c3c0)" d="M 22.43 74.71875 
L 23.1275 74.71875 
L 23.1275 72.51875 
L 22.43 72.51875 
z
" style="fill:#3182bd;"/>
   </g>
   <g id="patch_9">
    <path clip-path="url(#pdd9820c3c0)" d="M 23.1275 74.71875 
L 23.825 74.71875 
L 23.825 70.633036 
L 23.1275 70.633036 
z
" style="fill:#3182bd;"/>
   </g>
   <g id="patch_10">
    <path clip-path="url(#pdd9820c3c0)" d="M 23.825 74.71875 
L 24.5225 74.71875 
L 24.5225 66.547321 
L 23.825 66.547321 
z
" style="fill:#3182bd;"/>
   </g>
   <g id="patch_11">
    <path clip-path="url(#pdd9820c3c0)" d="M 24.5225 74.71875 
L 25.22 74.71875 
L 25.22 63.970179 
L 24.5225 63.970179 
z
" style="fill:#3182bd;"/>
   </g>
   <g id="patch_12">
    <path clip-path="url(#pdd9820c3c0)" d="M 25.22 74.71875 
L 25.9175 74.71875 
L 25.9175 57.810179 
L 25.22 57.810179 
z
" style="fill:#3182bd;"/>
   </g>
   <g id="patch_13">
    <path clip-path="url(#pdd9820c3c0)" d="M 25.9175 74.71875 
L 26.615 74.71875 
L 26.615 58.627321 
L 25.9175 58.627321 
z
" style="fill:#3182bd;"/>
   </g>
   <g id="patch_14">
    <path clip-path="url(#pdd9820c3c0)" d="M 26.615 74.71875 
L 27.3125 74.71875 
L 27.3125 53.033036 
L 26.615 53.033036 
z
" style="fill:#3182bd;"/>
   </g>
   <g id="patch_15">
    <path clip-path="url(#pdd9820c3c0)" d="M 27.3125 74.71875 
L 28.01 74.71875 
L 28.01 49.387321 
L 27.3125 49.387321 
z
" style="fill:#3182bd;"/>
   </g>
   <g id="patch_16">
    <path clip-path="url(#pdd9820c3c0)" d="M 28.01 74.71875 
L 28.7075 74.71875 
L 28.7075 46.370179 
L 28.01 46.370179 
z
" style="fill:#3182bd;"/>
   </g>
   <g id="patch_17">
    <path clip-path="url(#pdd9820c3c0)" d="M 28.7075 74.71875 
L 29.405 74.71875 
L 29.405 39.581607 
L 28.7075 39.581607 
z
" style="fill:#3182bd;"/>
   </g>
   <g id="patch_18">
    <path clip-path="url(#pdd9820c3c0)" d="M 29.405 74.71875 
L 30.1025 74.71875 
L 30.1025 40.335893 
L 29.405 40.335893 
z
" style="fill:#3182bd;"/>
   </g>
   <g id="patch_19">
    <path clip-path="url(#pdd9820c3c0)" d="M 30.1025 74.71875 
L 30.8 74.71875 
L 30.8 36.815893 
L 30.1025 36.815893 
z
" style="fill:#3182bd;"/>
   </g>
   <g id="patch_20">
    <path clip-path="url(#pdd9820c3c0)" d="M 30.8 74.71875 
L 31.4975 74.71875 
L 31.4975 32.91875 
L 30.8 32.91875 
z
" style="fill:#3182bd;"/>
   </g>
   <g id="patch_21">
    <path clip-path="url(#pdd9820c3c0)" d="M 31.4975 74.71875 
L 32.195 74.71875 
L 32.195 29.461607 
L 31.4975 29.461607 
z
" style="fill:#3182bd;"/>
   </g>
   <g id="patch_22">
    <path clip-path="url(#pdd9820c3c0)" d="M 32.195 74.71875 
L 32.8925 74.71875 
L 32.8925 31.59875 
L 32.195 31.59875 
z
" style="fill:#3182bd;"/>
   </g>
   <g id="patch_23">
    <path clip-path="url(#pdd9820c3c0)" d="M 32.8925 74.71875 
L 33.59 74.71875 
L 33.59 26.75875 
L 32.8925 26.75875 
z
" style="fill:#3182bd;"/>
   </g>
   <g id="patch_24">
    <path clip-path="url(#pdd9820c3c0)" d="M 33.59 74.71875 
L 34.2875 74.71875 
L 34.2875 26.004464 
L 33.59 26.004464 
z
" style="fill:#3182bd;"/>
   </g>
   <g id="patch_25">
    <path clip-path="url(#pdd9820c3c0)" d="M 34.2875 74.71875 
L 34.985 74.71875 
L 34.985 24.495893 
L 34.2875 24.495893 
z
" style="fill:#3182bd;"/>
   </g>
   <g id="patch_26">
    <path clip-path="url(#pdd9820c3c0)" d="M 34.985 74.71875 
L 35.6825 74.71875 
L 35.6825 25.375893 
L 34.985 25.375893 
z
" style="fill:#3182bd;"/>
   </g>
   <g id="patch_27">
    <path clip-path="url(#pdd9820c3c0)" d="M 35.6825 74.71875 
L 36.38 74.71875 
L 36.38 23.930179 
L 35.6825 23.930179 
z
" style="fill:#3182bd;"/>
   </g>
   <g id="patch_28">
    <path clip-path="url(#pdd9820c3c0)" d="M 36.38 74.71875 
L 37.0775 74.71875 
L 37.0775 23.615893 
L 36.38 23.615893 
z
" style="fill:#3182bd;"/>
   </g>
   <g id="patch_29">
    <path clip-path="url(#pdd9820c3c0)" d="M 37.0775 74.71875 
L 37.775 74.71875 
L 37.775 23.67875 
L 37.0775 23.67875 
z
" style="fill:#3182bd;"/>
   </g>
   <g id="patch_30">
    <path clip-path="url(#pdd9820c3c0)" d="M 37.775 74.71875 
L 38.4725 74.71875 
L 38.4725 22.861607 
L 37.775 22.861607 
z
" style="fill:#3182bd;"/>
   </g>
   <g id="patch_31">
    <path clip-path="url(#pdd9820c3c0)" d="M 38.4725 74.71875 
L 39.17 74.71875 
L 39.17 22.484464 
L 38.4725 22.484464 
z
" style="fill:#3182bd;"/>
   </g>
   <g id="patch_32">
    <path clip-path="url(#pdd9820c3c0)" d="M 39.17 74.71875 
L 39.8675 74.71875 
L 39.8675 23.741607 
L 39.17 23.741607 
z
" style="fill:#3182bd;"/>
   </g>
   <g id="patch_33">
    <path clip-path="url(#pdd9820c3c0)" d="M 39.8675 74.71875 
L 40.565 74.71875 
L 40.565 26.444464 
L 39.8675 26.444464 
z
" style="fill:#3182bd;"/>
   </g>
   <g id="patch_34">
    <path clip-path="url(#pdd9820c3c0)" d="M 40.565 74.71875 
L 41.2625 74.71875 
L 41.2625 23.993036 
L 40.565 23.993036 
z
" style="fill:#3182bd;"/>
   </g>
   <g id="patch_35">
    <path clip-path="url(#pdd9820c3c0)" d="M 41.2625 74.71875 
L 41.96 74.71875 
L 41.96 26.31875 
L 41.2625 26.31875 
z
" style="fill:#3182bd;"/>
   </g>
   <g id="patch_36">
    <path clip-path="url(#pdd9820c3c0)" d="M 41.96 74.71875 
L 42.6575 74.71875 
L 42.6575 25.564464 
L 41.96 25.564464 
z
" style="fill:#3182bd;"/>
   </g>
   <g id="patch_37">
    <path clip-path="url(#pdd9820c3c0)" d="M 42.6575 74.71875 
L 43.355 74.71875 
L 43.355 21.91875 
L 42.6575 21.91875 
z
" style="fill:#3182bd;"/>
   </g>
   <g id="patch_38">
    <path clip-path="url(#pdd9820c3c0)" d="M 43.355 74.71875 
L 44.0525 74.71875 
L 44.0525 26.507321 
L 43.355 26.507321 
z
" style="fill:#3182bd;"/>
   </g>
   <g id="patch_39">
    <path clip-path="url(#pdd9820c3c0)" d="M 44.0525 74.71875 
L 44.75 74.71875 
L 44.75 24.99875 
L 44.0525 24.99875 
z
" style="fill:#3182bd;"/>
   </g>
   <g id="patch_40">
    <path clip-path="url(#pdd9820c3c0)" d="M 44.75 74.71875 
L 45.4475 74.71875 
L 45.4475 28.07875 
L 44.75 28.07875 
z
" style="fill:#3182bd;"/>
   </g>
   <g id="patch_41">
    <path clip-path="url(#pdd9820c3c0)" d="M 45.4475 74.71875 
L 46.145 74.71875 
L 46.145 27.010179 
L 45.4475 27.010179 
z
" style="fill:#3182bd;"/>
   </g>
   <g id="patch_42">
    <path clip-path="url(#pdd9820c3c0)" d="M 46.145 74.71875 
L 46.8425 74.71875 
L 46.8425 29.83875 
L 46.145 29.83875 
z
" style="fill:#3182bd;"/>
   </g>
   <g id="patch_43">
    <path clip-path="url(#pdd9820c3c0)" d="M 46.8425 74.71875 
L 47.54 74.71875 
L 47.54 27.575893 
L 46.8425 27.575893 
z
" style="fill:#3182bd;"/>
   </g>
   <g id="patch_44">
    <path clip-path="url(#pdd9820c3c0)" d="M 47.54 74.71875 
L 48.2375 74.71875 
L 48.2375 28.455893 
L 47.54 28.455893 
z
" style="fill:#3182bd;"/>
   </g>
   <g id="patch_45">
    <path clip-path="url(#pdd9820c3c0)" d="M 48.2375 74.71875 
L 48.935 74.71875 
L 48.935 28.51875 
L 48.2375 28.51875 
z
" style="fill:#3182bd;"/>
   </g>
   <g id="patch_46">
    <path clip-path="url(#pdd9820c3c0)" d="M 48.935 74.71875 
L 49.6325 74.71875 
L 49.6325 26.695893 
L 48.935 26.695893 
z
" style="fill:#3182bd;"/>
   </g>
   <g id="patch_47">
    <path clip-path="url(#pdd9820c3c0)" d="M 49.6325 74.71875 
L 50.33 74.71875 
L 50.33 31.221607 
L 49.6325 31.221607 
z
" style="fill:#3182bd;"/>
   </g>
   <g id="patch_48">
    <path clip-path="url(#pdd9820c3c0)" d="M 50.33 74.71875 
L 51.0275 74.71875 
L 51.0275 29.39875 
L 50.33 29.39875 
z
" style="fill:#3182bd;"/>
   </g>
   <g id="patch_49">
    <path clip-path="url(#pdd9820c3c0)" d="M 51.0275 74.71875 
L 51.725 74.71875 
L 51.725 33.610179 
L 51.0275 33.610179 
z
" style="fill:#3182bd;"/>
   </g>
   <g id="patch_50">
    <path clip-path="url(#pdd9820c3c0)" d="M 51.725 74.71875 
L 52.4225 74.71875 
L 52.4225 32.667321 
L 51.725 32.667321 
z
" style="fill:#3182bd;"/>
   </g>
   <g id="patch_51">
    <path clip-path="url(#pdd9820c3c0)" d="M 52.4225 74.71875 
L 53.12 74.71875 
L 53.12 37.381607 
L 52.4225 37.381607 
z
" style="fill:#3182bd;"/>
   </g>
   <g id="patch_52">
    <path clip-path="url(#pdd9820c3c0)" d="M 53.12 74.71875 
L 53.8175 74.71875 
L 53.8175 38.575893 
L 53.12 38.575893 
z
" style="fill:#3182bd;"/>
   </g>
   <g id="patch_53">
    <path clip-path="url(#pdd9820c3c0)" d="M 53.8175 74.71875 
L 54.515 74.71875 
L 54.515 36.627321 
L 53.8175 36.627321 
z
" style="fill:#3182bd;"/>
   </g>
   <g id="patch_54">
    <path clip-path="url(#pdd9820c3c0)" d="M 54.515 74.71875 
L 55.2125 74.71875 
L 55.2125 38.135893 
L 54.515 38.135893 
z
" style="fill:#3182bd;"/>
   </g>
   <g id="patch_55">
    <path clip-path="url(#pdd9820c3c0)" d="M 55.2125 74.71875 
L 55.91 74.71875 
L 55.91 38.387321 
L 55.2125 38.387321 
z
" style="fill:#3182bd;"/>
   </g>
   <g id="patch_56">
    <path clip-path="url(#pdd9820c3c0)" d="M 55.91 74.71875 
L 56.6075 74.71875 
L 56.6075 42.410179 
L 55.91 42.410179 
z
" style="fill:#3182bd;"/>
   </g>
   <g id="patch_57">
    <path clip-path="url(#pdd9820c3c0)" d="M 56.6075 74.71875 
L 57.305 74.71875 
L 57.305 44.107321 
L 56.6075 44.107321 
z
" style="fill:#3182bd;"/>
   </g>
   <g id="patch_58">
    <path clip-path="url(#pdd9820c3c0)" d="M 57.305 74.71875 
L 58.0025 74.71875 
L 58.0025 41.467321 
L 57.305 41.467321 
z
" style="fill:#3182bd;"/>
   </g>
   <g id="patch_59">
    <path clip-path="url(#pdd9820c3c0)" d="M 58.0025 74.71875 
L 58.7 74.71875 
L 58.7 42.095893 
L 58.0025 42.095893 
z
" style="fill:#3182bd;"/>
   </g>
   <g id="patch_60">
    <path clip-path="url(#pdd9820c3c0)" d="M 58.7 74.71875 
L 59.3975 74.71875 
L 59.3975 48.695893 
L 58.7 48.695893 
z
" style="fill:#3182bd;"/>
   </g>
   <g id="patch_61">
    <path clip-path="url(#pdd9820c3c0)" d="M 59.3975 74.71875 
L 60.095 74.71875 
L 60.095 48.633036 
L 59.3975 48.633036 
z
" style="fill:#3182bd;"/>
   </g>
   <g id="patch_62">
    <path clip-path="url(#pdd9820c3c0)" d="M 60.095 74.71875 
L 60.7925 74.71875 
L 60.7925 51.335893 
L 60.095 51.335893 
z
" style="fill:#3182bd;"/>
   </g>
   <g id="patch_63">
    <path clip-path="url(#pdd9820c3c0)" d="M 60.7925 74.71875 
L 61.49 74.71875 
L 61.49 52.655893 
L 60.7925 52.655893 
z
" style="fill:#3182bd;"/>
   </g>
   <g id="patch_64">
    <path clip-path="url(#pdd9820c3c0)" d="M 61.49 74.71875 
L 62.1875 74.71875 
L 62.1875 57.55875 
L 61.49 57.55875 
z
" style="fill:#3182bd;"/>
   </g>
   <g id="patch_65">
    <path clip-path="url(#pdd9820c3c0)" d="M 62.1875 74.71875 
L 62.885 74.71875 
L 62.885 57.935893 
L 62.1875 57.935893 
z
" style="fill:#3182bd;"/>
   </g>
   <g id="patch_66">
    <path clip-path="url(#pdd9820c3c0)" d="M 62.885 74.71875 
L 63.5825 74.71875 
L 63.5825 57.873036 
L 62.885 57.873036 
z
" style="fill:#3182bd;"/>
   </g>
   <g id="patch_67">
    <path clip-path="url(#pdd9820c3c0)" d="M 63.5825 74.71875 
L 64.28 74.71875 
L 64.28 61.267321 
L 63.5825 61.267321 
z
" style="fill:#3182bd;"/>
   </g>
   <g id="patch_68">
    <path clip-path="url(#pdd9820c3c0)" d="M 64.28 74.71875 
L 64.9775 74.71875 
L 64.9775 63.090179 
L 64.28 63.090179 
z
" style="fill:#3182bd;"/>
   </g>
   <g id="patch_69">
    <path clip-path="url(#pdd9820c3c0)" d="M 64.9775 74.71875 
L 65.675 74.71875 
L 65.675 64.913036 
L 64.9775 64.913036 
z
" style="fill:#3182bd;"/>
   </g>
   <g id="patch_70">
    <path clip-path="url(#pdd9820c3c0)" d="M 65.675 74.71875 
L 66.3725 74.71875 
L 66.3725 66.861607 
L 65.675 66.861607 
z
" style="fill:#3182bd;"/>
   </g>
   <g id="patch_71">
    <path clip-path="url(#pdd9820c3c0)" d="M 66.3725 74.71875 
L 67.07 74.71875 
L 67.07 67.804464 
L 66.3725 67.804464 
z
" style="fill:#3182bd;"/>
   </g>
   <g id="patch_72">
    <path clip-path="url(#pdd9820c3c0)" d="M 67.07 74.71875 
L 67.7675 74.71875 
L 67.7675 69.061607 
L 67.07 69.061607 
z
" style="fill:#3182bd;"/>
   </g>
   <g id="patch_73">
    <path clip-path="url(#pdd9820c3c0)" d="M 67.7675 74.71875 
L 68.465 74.71875 
L 68.465 69.501607 
L 67.7675 69.501607 
z
" style="fill:#3182bd;"/>
   </g>
   <g id="patch_74">
    <path clip-path="url(#pdd9820c3c0)" d="M 68.465 74.71875 
L 69.1625 74.71875 
L 69.1625 70.570179 
L 68.465 70.570179 
z
" style="fill:#3182bd;"/>
   </g>
   <g id="patch_75">
    <path clip-path="url(#pdd9820c3c0)" d="M 69.1625 74.71875 
L 69.86 74.71875 
L 69.86 71.450179 
L 69.1625 71.450179 
z
" style="fill:#3182bd;"/>
   </g>
   <g id="patch_76">
    <path clip-path="url(#pdd9820c3c0)" d="M 69.86 74.71875 
L 70.5575 74.71875 
L 70.5575 72.581607 
L 69.86 72.581607 
z
" style="fill:#3182bd;"/>
   </g>
   <g id="patch_77">
    <path clip-path="url(#pdd9820c3c0)" d="M 70.5575 74.71875 
L 71.255 74.71875 
L 71.255 72.707321 
L 70.5575 72.707321 
z
" style="fill:#3182bd;"/>
   </g>
   <g id="patch_78">
    <path clip-path="url(#pdd9820c3c0)" d="M 71.255 74.71875 
L 71.9525 74.71875 
L 71.9525 73.650179 
L 71.255 73.650179 
z
" style="fill:#3182bd;"/>
   </g>
   <g id="patch_79">
    <path clip-path="url(#pdd9820c3c0)" d="M 71.9525 74.71875 
L 72.65 74.71875 
L 72.65 73.775893 
L 71.9525 73.775893 
z
" style="fill:#3182bd;"/>
   </g>
   <g id="patch_80">
    <path clip-path="url(#pdd9820c3c0)" d="M 72.65 74.71875 
L 73.3475 74.71875 
L 73.3475 74.27875 
L 72.65 74.27875 
z
" style="fill:#3182bd;"/>
   </g>
   <g id="patch_81">
    <path clip-path="url(#pdd9820c3c0)" d="M 73.3475 74.71875 
L 74.045 74.71875 
L 74.045 74.341607 
L 73.3475 74.341607 
z
" style="fill:#3182bd;"/>
   </g>
   <g id="patch_82">
    <path clip-path="url(#pdd9820c3c0)" d="M 74.045 74.71875 
L 74.7425 74.71875 
L 74.7425 74.404464 
L 74.045 74.404464 
z
" style="fill:#3182bd;"/>
   </g>
   <g id="patch_83">
    <path clip-path="url(#pdd9820c3c0)" d="M 74.7425 74.71875 
L 75.44 74.71875 
L 75.44 74.530179 
L 74.7425 74.530179 
z
" style="fill:#3182bd;"/>
   </g>
   <g id="patch_84">
    <path clip-path="url(#pdd9820c3c0)" d="M 75.44 74.71875 
L 76.1375 74.71875 
L 76.1375 74.655893 
L 75.44 74.655893 
z
" style="fill:#3182bd;"/>
   </g>
   <g id="patch_85">
    <path clip-path="url(#pdd9820c3c0)" d="M 76.1375 74.71875 
L 76.835 74.71875 
L 76.835 74.71875 
L 76.1375 74.71875 
z
" style="fill:#3182bd;"/>
   </g>
   <g id="patch_86">
    <path clip-path="url(#pdd9820c3c0)" d="M 76.835 74.71875 
L 77.5325 74.71875 
L 77.5325 74.71875 
L 76.835 74.71875 
z
" style="fill:#3182bd;"/>
   </g>
   <g id="patch_87">
    <path clip-path="url(#pdd9820c3c0)" d="M 77.5325 74.71875 
L 78.23 74.71875 
L 78.23 74.71875 
L 77.5325 74.71875 
z
" style="fill:#3182bd;"/>
   </g>
   <g id="patch_88">
    <path clip-path="url(#pdd9820c3c0)" d="M 78.23 74.71875 
L 78.9275 74.71875 
L 78.9275 74.71875 
L 78.23 74.71875 
z
" style="fill:#3182bd;"/>
   </g>
   <g id="patch_89">
    <path clip-path="url(#pdd9820c3c0)" d="M 78.9275 74.71875 
L 79.625 74.71875 
L 79.625 74.71875 
L 78.9275 74.71875 
z
" style="fill:#3182bd;"/>
   </g>
   <g id="patch_90">
    <path clip-path="url(#pdd9820c3c0)" d="M 79.625 74.71875 
L 80.3225 74.71875 
L 80.3225 74.71875 
L 79.625 74.71875 
z
" style="fill:#3182bd;"/>
   </g>
   <g id="patch_91">
    <path clip-path="url(#pdd9820c3c0)" d="M 80.3225 74.71875 
L 81.02 74.71875 
L 81.02 74.71875 
L 80.3225 74.71875 
z
" style="fill:#3182bd;"/>
   </g>
   <g id="patch_92">
    <path clip-path="url(#pdd9820c3c0)" d="M 81.02 74.71875 
L 81.7175 74.71875 
L 81.7175 74.71875 
L 81.02 74.71875 
z
" style="fill:#3182bd;"/>
   </g>
   <g id="patch_93">
    <path clip-path="url(#pdd9820c3c0)" d="M 81.7175 74.71875 
L 82.415 74.71875 
L 82.415 74.71875 
L 81.7175 74.71875 
z
" style="fill:#3182bd;"/>
   </g>
   <g id="patch_94">
    <path clip-path="url(#pdd9820c3c0)" d="M 82.415 74.71875 
L 83.1125 74.71875 
L 83.1125 74.71875 
L 82.415 74.71875 
z
" style="fill:#3182bd;"/>
   </g>
   <g id="patch_95">
    <path clip-path="url(#pdd9820c3c0)" d="M 83.1125 74.71875 
L 83.81 74.71875 
L 83.81 74.71875 
L 83.1125 74.71875 
z
" style="fill:#3182bd;"/>
   </g>
   <g id="patch_96">
    <path clip-path="url(#pdd9820c3c0)" d="M 83.81 74.71875 
L 84.5075 74.71875 
L 84.5075 74.71875 
L 83.81 74.71875 
z
" style="fill:#3182bd;"/>
   </g>
   <g id="patch_97">
    <path clip-path="url(#pdd9820c3c0)" d="M 84.5075 74.71875 
L 85.205 74.71875 
L 85.205 74.71875 
L 84.5075 74.71875 
z
" style="fill:#3182bd;"/>
   </g>
   <g id="patch_98">
    <path clip-path="url(#pdd9820c3c0)" d="M 85.205 74.71875 
L 85.9025 74.71875 
L 85.9025 74.71875 
L 85.205 74.71875 
z
" style="fill:#3182bd;"/>
   </g>
   <g id="patch_99">
    <path clip-path="url(#pdd9820c3c0)" d="M 85.9025 74.71875 
L 86.6 74.71875 
L 86.6 74.71875 
L 85.9025 74.71875 
z
" style="fill:#3182bd;"/>
   </g>
   <g id="patch_100">
    <path clip-path="url(#pdd9820c3c0)" d="M 86.6 74.71875 
L 87.2975 74.71875 
L 87.2975 74.71875 
L 86.6 74.71875 
z
" style="fill:#3182bd;"/>
   </g>
   <g id="patch_101">
    <path clip-path="url(#pdd9820c3c0)" d="M 87.2975 74.71875 
L 87.995 74.71875 
L 87.995 74.71875 
L 87.2975 74.71875 
z
" style="fill:#3182bd;"/>
   </g>
   <g id="patch_102">
    <path clip-path="url(#pdd9820c3c0)" d="M 87.995 74.71875 
L 88.6925 74.71875 
L 88.6925 74.71875 
L 87.995 74.71875 
z
" style="fill:#3182bd;"/>
   </g>
   <g id="matplotlib.axis_1">
    <g id="xtick_1">
     <g id="line2d_1">
      <defs>
       <path d="M 0 0 
L 0 3.5 
" id="m826b5d21f9" style="stroke:#000000;stroke-width:1.5;"/>
      </defs>
      <g>
       <use style="stroke:#000000;stroke-width:1.5;" x="18.9425" xlink:href="#m826b5d21f9" y="74.71875"/>
      </g>
     </g>
     <g id="text_1">
      <text style="font-family:DejaVu Sans;font-size:8px;font-stretch:normal;font-style:normal;font-weight:normal;text-anchor:middle;" transform="rotate(-0, 18.9425, 87.7975)" x="18.9425" y="87.7975">0</text>
     </g>
    </g>
    <g id="xtick_2">
     <g id="line2d_2">
      <g>
       <use style="stroke:#000000;stroke-width:1.5;" x="88.6925" xlink:href="#m826b5d21f9" y="74.71875"/>
      </g>
     </g>
     <g id="text_2">
      <text style="font-family:DejaVu Sans;font-size:8px;font-stretch:normal;font-style:normal;font-weight:normal;text-anchor:middle;" transform="rotate(-0, 88.6925, 87.7975)" x="88.6925" y="87.7975">1</text>
     </g>
    </g>
    <g id="text_3">
     <!-- E/spike ($\mu$J) -->
     <g transform="translate(31.2975 99.54125)">
      <text>
       <tspan style="font-family:DejaVu Sans;font-size:8px;font-style:book;font-weight:book;" x="0 5.054688 7.75 11.917969 16.996094 19.21875 23.851562 28.773438 31.316406 34.4375 39.527344 41.886719" y="-0.921875">E/spike (μJ)</tspan>
      </text>
     </g>
    </g>
   </g>
   <g id="matplotlib.axis_2">
    <g id="text_4">
     <text style="font-family:DejaVu Sans;font-size:8px;font-stretch:normal;font-style:normal;font-weight:normal;text-anchor:middle;" transform="rotate(-90, 13.27875, 46.99875)" x="13.27875" y="46.99875">Count</text>
    </g>
   </g>
   <g id="patch_103">
    <path d="M 18.9425 74.71875 
L 88.6925 74.71875 
" style="fill:none;stroke:#000000;stroke-linecap:square;stroke-linejoin:miter;stroke-width:1.5;"/>
   </g>
   <g id="text_5">
    <text style="font-family:DejaVu Sans;font-size:8px;font-stretch:normal;font-style:normal;font-weight:normal;text-anchor:middle;" transform="rotate(-0, 53.8175, 13.27875)" x="53.8175" y="13.27875">AB/PD</text>
   </g>
  </g>
  <g id="axes_2">
   <g id="patch_104">
    <path d="M 109.6175 74.71875 
L 179.3675 74.71875 
L 179.3675 19.27875 
L 109.6175 19.27875 
z
" style="fill:none;"/>
   </g>
   <g id="patch_105">
    <path clip-path="url(#pa4b71b4f5a)" d="M 109.6175 74.71875 
L 110.315 74.71875 
L 110.315 74.71875 
L 109.6175 74.71875 
z
" style="fill:#fc8d59;"/>
   </g>
   <g id="patch_106">
    <path clip-path="url(#pa4b71b4f5a)" d="M 110.315 74.71875 
L 111.0125 74.71875 
L 111.0125 74.71875 
L 110.315 74.71875 
z
" style="fill:#fc8d59;"/>
   </g>
   <g id="patch_107">
    <path clip-path="url(#pa4b71b4f5a)" d="M 111.0125 74.71875 
L 111.71 74.71875 
L 111.71 74.71875 
L 111.0125 74.71875 
z
" style="fill:#fc8d59;"/>
   </g>
   <g id="patch_108">
    <path clip-path="url(#pa4b71b4f5a)" d="M 111.71 74.71875 
L 112.4075 74.71875 
L 112.4075 74.692547 
L 111.71 74.692547 
z
" style="fill:#fc8d59;"/>
   </g>
   <g id="patch_109">
    <path clip-path="url(#pa4b71b4f5a)" d="M 112.4075 74.71875 
L 113.105 74.71875 
L 113.105 74.299494 
L 112.4075 74.299494 
z
" style="fill:#fc8d59;"/>
   </g>
   <g id="patch_110">
    <path clip-path="url(#pa4b71b4f5a)" d="M 113.105 74.71875 
L 113.8025 74.71875 
L 113.8025 71.652944 
L 113.105 71.652944 
z
" style="fill:#fc8d59;"/>
   </g>
   <g id="patch_111">
    <path clip-path="url(#pa4b71b4f5a)" d="M 113.8025 74.71875 
L 114.5 74.71875 
L 114.5 66.124011 
L 113.8025 66.124011 
z
" style="fill:#fc8d59;"/>
   </g>
   <g id="patch_112">
    <path clip-path="url(#pa4b71b4f5a)" d="M 114.5 74.71875 
L 115.1975 74.71875 
L 115.1975 61.774234 
L 114.5 61.774234 
z
" style="fill:#fc8d59;"/>
   </g>
   <g id="patch_113">
    <path clip-path="url(#pa4b71b4f5a)" d="M 115.1975 74.71875 
L 115.895 74.71875 
L 115.895 55.799842 
L 115.1975 55.799842 
z
" style="fill:#fc8d59;"/>
   </g>
   <g id="patch_114">
    <path clip-path="url(#pa4b71b4f5a)" d="M 115.895 74.71875 
L 116.5925 74.71875 
L 116.5925 48.305648 
L 115.895 48.305648 
z
" style="fill:#fc8d59;"/>
   </g>
   <g id="patch_115">
    <path clip-path="url(#pa4b71b4f5a)" d="M 116.5925 74.71875 
L 117.29 74.71875 
L 117.29 44.84679 
L 116.5925 44.84679 
z
" style="fill:#fc8d59;"/>
   </g>
   <g id="patch_116">
    <path clip-path="url(#pa4b71b4f5a)" d="M 117.29 74.71875 
L 117.9875 74.71875 
L 117.9875 37.483614 
L 117.29 37.483614 
z
" style="fill:#fc8d59;"/>
   </g>
   <g id="patch_117">
    <path clip-path="url(#pa4b71b4f5a)" d="M 117.9875 74.71875 
L 118.685 74.71875 
L 118.685 36.17344 
L 117.9875 36.17344 
z
" style="fill:#fc8d59;"/>
   </g>
   <g id="patch_118">
    <path clip-path="url(#pa4b71b4f5a)" d="M 118.685 74.71875 
L 119.3825 74.71875 
L 119.3825 32.190512 
L 118.685 32.190512 
z
" style="fill:#fc8d59;"/>
   </g>
   <g id="patch_119">
    <path clip-path="url(#pa4b71b4f5a)" d="M 119.3825 74.71875 
L 120.08 74.71875 
L 120.08 27.50009 
L 119.3825 27.50009 
z
" style="fill:#fc8d59;"/>
   </g>
   <g id="patch_120">
    <path clip-path="url(#pa4b71b4f5a)" d="M 120.08 74.71875 
L 120.7775 74.71875 
L 120.7775 26.556765 
L 120.08 26.556765 
z
" style="fill:#fc8d59;"/>
   </g>
   <g id="patch_121">
    <path clip-path="url(#pa4b71b4f5a)" d="M 120.7775 74.71875 
L 121.475 74.71875 
L 121.475 23.517162 
L 120.7775 23.517162 
z
" style="fill:#fc8d59;"/>
   </g>
   <g id="patch_122">
    <path clip-path="url(#pa4b71b4f5a)" d="M 121.475 74.71875 
L 122.1725 74.71875 
L 122.1725 21.91875 
L 121.475 21.91875 
z
" style="fill:#fc8d59;"/>
   </g>
   <g id="patch_123">
    <path clip-path="url(#pa4b71b4f5a)" d="M 122.1725 74.71875 
L 122.87 74.71875 
L 122.87 23.857807 
L 122.1725 23.857807 
z
" style="fill:#fc8d59;"/>
   </g>
   <g id="patch_124">
    <path clip-path="url(#pa4b71b4f5a)" d="M 122.87 74.71875 
L 123.5675 74.71875 
L 123.5675 21.99736 
L 122.87 21.99736 
z
" style="fill:#fc8d59;"/>
   </g>
   <g id="patch_125">
    <path clip-path="url(#pa4b71b4f5a)" d="M 123.5675 74.71875 
L 124.265 74.71875 
L 124.265 24.146045 
L 123.5675 24.146045 
z
" style="fill:#fc8d59;"/>
   </g>
   <g id="patch_126">
    <path clip-path="url(#pa4b71b4f5a)" d="M 124.265 74.71875 
L 124.9625 74.71875 
L 124.9625 26.740189 
L 124.265 26.740189 
z
" style="fill:#fc8d59;"/>
   </g>
   <g id="patch_127">
    <path clip-path="url(#pa4b71b4f5a)" d="M 124.9625 74.71875 
L 125.66 74.71875 
L 125.66 28.653043 
L 124.9625 28.653043 
z
" style="fill:#fc8d59;"/>
   </g>
   <g id="patch_128">
    <path clip-path="url(#pa4b71b4f5a)" d="M 125.66 74.71875 
L 126.3575 74.71875 
L 126.3575 31.640239 
L 125.66 31.640239 
z
" style="fill:#fc8d59;"/>
   </g>
   <g id="patch_129">
    <path clip-path="url(#pa4b71b4f5a)" d="M 126.3575 74.71875 
L 127.055 74.71875 
L 127.055 34.706045 
L 126.3575 34.706045 
z
" style="fill:#fc8d59;"/>
   </g>
   <g id="patch_130">
    <path clip-path="url(#pa4b71b4f5a)" d="M 127.055 74.71875 
L 127.7525 74.71875 
L 127.7525 37.667038 
L 127.055 37.667038 
z
" style="fill:#fc8d59;"/>
   </g>
   <g id="patch_131">
    <path clip-path="url(#pa4b71b4f5a)" d="M 127.7525 74.71875 
L 128.45 74.71875 
L 128.45 41.649966 
L 127.7525 41.649966 
z
" style="fill:#fc8d59;"/>
   </g>
   <g id="patch_132">
    <path clip-path="url(#pa4b71b4f5a)" d="M 128.45 74.71875 
L 129.1475 74.71875 
L 129.1475 46.392795 
L 128.45 46.392795 
z
" style="fill:#fc8d59;"/>
   </g>
   <g id="patch_133">
    <path clip-path="url(#pa4b71b4f5a)" d="M 129.1475 74.71875 
L 129.845 74.71875 
L 129.845 51.659693 
L 129.1475 51.659693 
z
" style="fill:#fc8d59;"/>
   </g>
   <g id="patch_134">
    <path clip-path="url(#pa4b71b4f5a)" d="M 129.845 74.71875 
L 130.5425 74.71875 
L 130.5425 56.192894 
L 129.845 56.192894 
z
" style="fill:#fc8d59;"/>
   </g>
   <g id="patch_135">
    <path clip-path="url(#pa4b71b4f5a)" d="M 130.5425 74.71875 
L 131.24 74.71875 
L 131.24 58.970462 
L 130.5425 58.970462 
z
" style="fill:#fc8d59;"/>
   </g>
   <g id="patch_136">
    <path clip-path="url(#pa4b71b4f5a)" d="M 131.24 74.71875 
L 131.9375 74.71875 
L 131.9375 64.001529 
L 131.24 64.001529 
z
" style="fill:#fc8d59;"/>
   </g>
   <g id="patch_137">
    <path clip-path="url(#pa4b71b4f5a)" d="M 131.9375 74.71875 
L 132.635 74.71875 
L 132.635 67.17215 
L 131.9375 67.17215 
z
" style="fill:#fc8d59;"/>
   </g>
   <g id="patch_138">
    <path clip-path="url(#pa4b71b4f5a)" d="M 132.635 74.71875 
L 133.3325 74.71875 
L 133.3325 67.774829 
L 132.635 67.774829 
z
" style="fill:#fc8d59;"/>
   </g>
   <g id="patch_139">
    <path clip-path="url(#pa4b71b4f5a)" d="M 133.3325 74.71875 
L 134.03 74.71875 
L 134.03 70.316566 
L 133.3325 70.316566 
z
" style="fill:#fc8d59;"/>
   </g>
   <g id="patch_140">
    <path clip-path="url(#pa4b71b4f5a)" d="M 134.03 74.71875 
L 134.7275 74.71875 
L 134.7275 71.364705 
L 134.03 71.364705 
z
" style="fill:#fc8d59;"/>
   </g>
   <g id="patch_141">
    <path clip-path="url(#pa4b71b4f5a)" d="M 134.7275 74.71875 
L 135.425 74.71875 
L 135.425 72.936914 
L 134.7275 72.936914 
z
" style="fill:#fc8d59;"/>
   </g>
   <g id="patch_142">
    <path clip-path="url(#pa4b71b4f5a)" d="M 135.425 74.71875 
L 136.1225 74.71875 
L 136.1225 73.565797 
L 135.425 73.565797 
z
" style="fill:#fc8d59;"/>
   </g>
   <g id="patch_143">
    <path clip-path="url(#pa4b71b4f5a)" d="M 136.1225 74.71875 
L 136.82 74.71875 
L 136.82 74.168477 
L 136.1225 74.168477 
z
" style="fill:#fc8d59;"/>
   </g>
   <g id="patch_144">
    <path clip-path="url(#pa4b71b4f5a)" d="M 136.82 74.71875 
L 137.5175 74.71875 
L 137.5175 74.561529 
L 136.82 74.561529 
z
" style="fill:#fc8d59;"/>
   </g>
   <g id="patch_145">
    <path clip-path="url(#pa4b71b4f5a)" d="M 137.5175 74.71875 
L 138.215 74.71875 
L 138.215 74.666343 
L 137.5175 74.666343 
z
" style="fill:#fc8d59;"/>
   </g>
   <g id="patch_146">
    <path clip-path="url(#pa4b71b4f5a)" d="M 138.215 74.71875 
L 138.9125 74.71875 
L 138.9125 74.666343 
L 138.215 74.666343 
z
" style="fill:#fc8d59;"/>
   </g>
   <g id="patch_147">
    <path clip-path="url(#pa4b71b4f5a)" d="M 138.9125 74.71875 
L 139.61 74.71875 
L 139.61 74.71875 
L 138.9125 74.71875 
z
" style="fill:#fc8d59;"/>
   </g>
   <g id="patch_148">
    <path clip-path="url(#pa4b71b4f5a)" d="M 139.61 74.71875 
L 140.3075 74.71875 
L 140.3075 74.71875 
L 139.61 74.71875 
z
" style="fill:#fc8d59;"/>
   </g>
   <g id="patch_149">
    <path clip-path="url(#pa4b71b4f5a)" d="M 140.3075 74.71875 
L 141.005 74.71875 
L 141.005 74.71875 
L 140.3075 74.71875 
z
" style="fill:#fc8d59;"/>
   </g>
   <g id="patch_150">
    <path clip-path="url(#pa4b71b4f5a)" d="M 141.005 74.71875 
L 141.7025 74.71875 
L 141.7025 74.71875 
L 141.005 74.71875 
z
" style="fill:#fc8d59;"/>
   </g>
   <g id="patch_151">
    <path clip-path="url(#pa4b71b4f5a)" d="M 141.7025 74.71875 
L 142.4 74.71875 
L 142.4 74.71875 
L 141.7025 74.71875 
z
" style="fill:#fc8d59;"/>
   </g>
   <g id="patch_152">
    <path clip-path="url(#pa4b71b4f5a)" d="M 142.4 74.71875 
L 143.0975 74.71875 
L 143.0975 74.71875 
L 142.4 74.71875 
z
" style="fill:#fc8d59;"/>
   </g>
   <g id="patch_153">
    <path clip-path="url(#pa4b71b4f5a)" d="M 143.0975 74.71875 
L 143.795 74.71875 
L 143.795 74.71875 
L 143.0975 74.71875 
z
" style="fill:#fc8d59;"/>
   </g>
   <g id="patch_154">
    <path clip-path="url(#pa4b71b4f5a)" d="M 143.795 74.71875 
L 144.4925 74.71875 
L 144.4925 74.71875 
L 143.795 74.71875 
z
" style="fill:#fc8d59;"/>
   </g>
   <g id="patch_155">
    <path clip-path="url(#pa4b71b4f5a)" d="M 144.4925 74.71875 
L 145.19 74.71875 
L 145.19 74.71875 
L 144.4925 74.71875 
z
" style="fill:#fc8d59;"/>
   </g>
   <g id="patch_156">
    <path clip-path="url(#pa4b71b4f5a)" d="M 145.19 74.71875 
L 145.8875 74.71875 
L 145.8875 74.71875 
L 145.19 74.71875 
z
" style="fill:#fc8d59;"/>
   </g>
   <g id="patch_157">
    <path clip-path="url(#pa4b71b4f5a)" d="M 145.8875 74.71875 
L 146.585 74.71875 
L 146.585 74.71875 
L 145.8875 74.71875 
z
" style="fill:#fc8d59;"/>
   </g>
   <g id="patch_158">
    <path clip-path="url(#pa4b71b4f5a)" d="M 146.585 74.71875 
L 147.2825 74.71875 
L 147.2825 74.71875 
L 146.585 74.71875 
z
" style="fill:#fc8d59;"/>
   </g>
   <g id="patch_159">
    <path clip-path="url(#pa4b71b4f5a)" d="M 147.2825 74.71875 
L 147.98 74.71875 
L 147.98 74.71875 
L 147.2825 74.71875 
z
" style="fill:#fc8d59;"/>
   </g>
   <g id="patch_160">
    <path clip-path="url(#pa4b71b4f5a)" d="M 147.98 74.71875 
L 148.6775 74.71875 
L 148.6775 74.71875 
L 147.98 74.71875 
z
" style="fill:#fc8d59;"/>
   </g>
   <g id="patch_161">
    <path clip-path="url(#pa4b71b4f5a)" d="M 148.6775 74.71875 
L 149.375 74.71875 
L 149.375 74.71875 
L 148.6775 74.71875 
z
" style="fill:#fc8d59;"/>
   </g>
   <g id="patch_162">
    <path clip-path="url(#pa4b71b4f5a)" d="M 149.375 74.71875 
L 150.0725 74.71875 
L 150.0725 74.71875 
L 149.375 74.71875 
z
" style="fill:#fc8d59;"/>
   </g>
   <g id="patch_163">
    <path clip-path="url(#pa4b71b4f5a)" d="M 150.0725 74.71875 
L 150.77 74.71875 
L 150.77 74.71875 
L 150.0725 74.71875 
z
" style="fill:#fc8d59;"/>
   </g>
   <g id="patch_164">
    <path clip-path="url(#pa4b71b4f5a)" d="M 150.77 74.71875 
L 151.4675 74.71875 
L 151.4675 74.71875 
L 150.77 74.71875 
z
" style="fill:#fc8d59;"/>
   </g>
   <g id="patch_165">
    <path clip-path="url(#pa4b71b4f5a)" d="M 151.4675 74.71875 
L 152.165 74.71875 
L 152.165 74.71875 
L 151.4675 74.71875 
z
" style="fill:#fc8d59;"/>
   </g>
   <g id="patch_166">
    <path clip-path="url(#pa4b71b4f5a)" d="M 152.165 74.71875 
L 152.8625 74.71875 
L 152.8625 74.71875 
L 152.165 74.71875 
z
" style="fill:#fc8d59;"/>
   </g>
   <g id="patch_167">
    <path clip-path="url(#pa4b71b4f5a)" d="M 152.8625 74.71875 
L 153.56 74.71875 
L 153.56 74.71875 
L 152.8625 74.71875 
z
" style="fill:#fc8d59;"/>
   </g>
   <g id="patch_168">
    <path clip-path="url(#pa4b71b4f5a)" d="M 153.56 74.71875 
L 154.2575 74.71875 
L 154.2575 74.71875 
L 153.56 74.71875 
z
" style="fill:#fc8d59;"/>
   </g>
   <g id="patch_169">
    <path clip-path="url(#pa4b71b4f5a)" d="M 154.2575 74.71875 
L 154.955 74.71875 
L 154.955 74.71875 
L 154.2575 74.71875 
z
" style="fill:#fc8d59;"/>
   </g>
   <g id="patch_170">
    <path clip-path="url(#pa4b71b4f5a)" d="M 154.955 74.71875 
L 155.6525 74.71875 
L 155.6525 74.71875 
L 154.955 74.71875 
z
" style="fill:#fc8d59;"/>
   </g>
   <g id="patch_171">
    <path clip-path="url(#pa4b71b4f5a)" d="M 155.6525 74.71875 
L 156.35 74.71875 
L 156.35 74.71875 
L 155.6525 74.71875 
z
" style="fill:#fc8d59;"/>
   </g>
   <g id="patch_172">
    <path clip-path="url(#pa4b71b4f5a)" d="M 156.35 74.71875 
L 157.0475 74.71875 
L 157.0475 74.71875 
L 156.35 74.71875 
z
" style="fill:#fc8d59;"/>
   </g>
   <g id="patch_173">
    <path clip-path="url(#pa4b71b4f5a)" d="M 157.0475 74.71875 
L 157.745 74.71875 
L 157.745 74.71875 
L 157.0475 74.71875 
z
" style="fill:#fc8d59;"/>
   </g>
   <g id="patch_174">
    <path clip-path="url(#pa4b71b4f5a)" d="M 157.745 74.71875 
L 158.4425 74.71875 
L 158.4425 74.71875 
L 157.745 74.71875 
z
" style="fill:#fc8d59;"/>
   </g>
   <g id="patch_175">
    <path clip-path="url(#pa4b71b4f5a)" d="M 158.4425 74.71875 
L 159.14 74.71875 
L 159.14 74.71875 
L 158.4425 74.71875 
z
" style="fill:#fc8d59;"/>
   </g>
   <g id="patch_176">
    <path clip-path="url(#pa4b71b4f5a)" d="M 159.14 74.71875 
L 159.8375 74.71875 
L 159.8375 74.71875 
L 159.14 74.71875 
z
" style="fill:#fc8d59;"/>
   </g>
   <g id="patch_177">
    <path clip-path="url(#pa4b71b4f5a)" d="M 159.8375 74.71875 
L 160.535 74.71875 
L 160.535 74.71875 
L 159.8375 74.71875 
z
" style="fill:#fc8d59;"/>
   </g>
   <g id="patch_178">
    <path clip-path="url(#pa4b71b4f5a)" d="M 160.535 74.71875 
L 161.2325 74.71875 
L 161.2325 74.71875 
L 160.535 74.71875 
z
" style="fill:#fc8d59;"/>
   </g>
   <g id="patch_179">
    <path clip-path="url(#pa4b71b4f5a)" d="M 161.2325 74.71875 
L 161.93 74.71875 
L 161.93 74.71875 
L 161.2325 74.71875 
z
" style="fill:#fc8d59;"/>
   </g>
   <g id="patch_180">
    <path clip-path="url(#pa4b71b4f5a)" d="M 161.93 74.71875 
L 162.6275 74.71875 
L 162.6275 74.71875 
L 161.93 74.71875 
z
" style="fill:#fc8d59;"/>
   </g>
   <g id="patch_181">
    <path clip-path="url(#pa4b71b4f5a)" d="M 162.6275 74.71875 
L 163.325 74.71875 
L 163.325 74.71875 
L 162.6275 74.71875 
z
" style="fill:#fc8d59;"/>
   </g>
   <g id="patch_182">
    <path clip-path="url(#pa4b71b4f5a)" d="M 163.325 74.71875 
L 164.0225 74.71875 
L 164.0225 74.71875 
L 163.325 74.71875 
z
" style="fill:#fc8d59;"/>
   </g>
   <g id="patch_183">
    <path clip-path="url(#pa4b71b4f5a)" d="M 164.0225 74.71875 
L 164.72 74.71875 
L 164.72 74.71875 
L 164.0225 74.71875 
z
" style="fill:#fc8d59;"/>
   </g>
   <g id="patch_184">
    <path clip-path="url(#pa4b71b4f5a)" d="M 164.72 74.71875 
L 165.4175 74.71875 
L 165.4175 74.71875 
L 164.72 74.71875 
z
" style="fill:#fc8d59;"/>
   </g>
   <g id="patch_185">
    <path clip-path="url(#pa4b71b4f5a)" d="M 165.4175 74.71875 
L 166.115 74.71875 
L 166.115 74.71875 
L 165.4175 74.71875 
z
" style="fill:#fc8d59;"/>
   </g>
   <g id="patch_186">
    <path clip-path="url(#pa4b71b4f5a)" d="M 166.115 74.71875 
L 166.8125 74.71875 
L 166.8125 74.71875 
L 166.115 74.71875 
z
" style="fill:#fc8d59;"/>
   </g>
   <g id="patch_187">
    <path clip-path="url(#pa4b71b4f5a)" d="M 166.8125 74.71875 
L 167.51 74.71875 
L 167.51 74.71875 
L 166.8125 74.71875 
z
" style="fill:#fc8d59;"/>
   </g>
   <g id="patch_188">
    <path clip-path="url(#pa4b71b4f5a)" d="M 167.51 74.71875 
L 168.2075 74.71875 
L 168.2075 74.71875 
L 167.51 74.71875 
z
" style="fill:#fc8d59;"/>
   </g>
   <g id="patch_189">
    <path clip-path="url(#pa4b71b4f5a)" d="M 168.2075 74.71875 
L 168.905 74.71875 
L 168.905 74.71875 
L 168.2075 74.71875 
z
" style="fill:#fc8d59;"/>
   </g>
   <g id="patch_190">
    <path clip-path="url(#pa4b71b4f5a)" d="M 168.905 74.71875 
L 169.6025 74.71875 
L 169.6025 74.71875 
L 168.905 74.71875 
z
" style="fill:#fc8d59;"/>
   </g>
   <g id="patch_191">
    <path clip-path="url(#pa4b71b4f5a)" d="M 169.6025 74.71875 
L 170.3 74.71875 
L 170.3 74.71875 
L 169.6025 74.71875 
z
" style="fill:#fc8d59;"/>
   </g>
   <g id="patch_192">
    <path clip-path="url(#pa4b71b4f5a)" d="M 170.3 74.71875 
L 170.9975 74.71875 
L 170.9975 74.71875 
L 170.3 74.71875 
z
" style="fill:#fc8d59;"/>
   </g>
   <g id="patch_193">
    <path clip-path="url(#pa4b71b4f5a)" d="M 170.9975 74.71875 
L 171.695 74.71875 
L 171.695 74.71875 
L 170.9975 74.71875 
z
" style="fill:#fc8d59;"/>
   </g>
   <g id="patch_194">
    <path clip-path="url(#pa4b71b4f5a)" d="M 171.695 74.71875 
L 172.3925 74.71875 
L 172.3925 74.71875 
L 171.695 74.71875 
z
" style="fill:#fc8d59;"/>
   </g>
   <g id="patch_195">
    <path clip-path="url(#pa4b71b4f5a)" d="M 172.3925 74.71875 
L 173.09 74.71875 
L 173.09 74.71875 
L 172.3925 74.71875 
z
" style="fill:#fc8d59;"/>
   </g>
   <g id="patch_196">
    <path clip-path="url(#pa4b71b4f5a)" d="M 173.09 74.71875 
L 173.7875 74.71875 
L 173.7875 74.71875 
L 173.09 74.71875 
z
" style="fill:#fc8d59;"/>
   </g>
   <g id="patch_197">
    <path clip-path="url(#pa4b71b4f5a)" d="M 173.7875 74.71875 
L 174.485 74.71875 
L 174.485 74.71875 
L 173.7875 74.71875 
z
" style="fill:#fc8d59;"/>
   </g>
   <g id="patch_198">
    <path clip-path="url(#pa4b71b4f5a)" d="M 174.485 74.71875 
L 175.1825 74.71875 
L 175.1825 74.71875 
L 174.485 74.71875 
z
" style="fill:#fc8d59;"/>
   </g>
   <g id="patch_199">
    <path clip-path="url(#pa4b71b4f5a)" d="M 175.1825 74.71875 
L 175.88 74.71875 
L 175.88 74.71875 
L 175.1825 74.71875 
z
" style="fill:#fc8d59;"/>
   </g>
   <g id="patch_200">
    <path clip-path="url(#pa4b71b4f5a)" d="M 175.88 74.71875 
L 176.5775 74.71875 
L 176.5775 74.71875 
L 175.88 74.71875 
z
" style="fill:#fc8d59;"/>
   </g>
   <g id="patch_201">
    <path clip-path="url(#pa4b71b4f5a)" d="M 176.5775 74.71875 
L 177.275 74.71875 
L 177.275 74.71875 
L 176.5775 74.71875 
z
" style="fill:#fc8d59;"/>
   </g>
   <g id="patch_202">
    <path clip-path="url(#pa4b71b4f5a)" d="M 177.275 74.71875 
L 177.9725 74.71875 
L 177.9725 74.71875 
L 177.275 74.71875 
z
" style="fill:#fc8d59;"/>
   </g>
   <g id="patch_203">
    <path clip-path="url(#pa4b71b4f5a)" d="M 177.9725 74.71875 
L 178.67 74.71875 
L 178.67 74.71875 
L 177.9725 74.71875 
z
" style="fill:#fc8d59;"/>
   </g>
   <g id="patch_204">
    <path clip-path="url(#pa4b71b4f5a)" d="M 178.67 74.71875 
L 179.3675 74.71875 
L 179.3675 74.71875 
L 178.67 74.71875 
z
" style="fill:#fc8d59;"/>
   </g>
   <g id="matplotlib.axis_3">
    <g id="xtick_3">
     <g id="line2d_3">
      <g>
       <use style="stroke:#000000;stroke-width:1.5;" x="109.6175" xlink:href="#m826b5d21f9" y="74.71875"/>
      </g>
     </g>
     <g id="text_6">
      <text style="font-family:DejaVu Sans;font-size:8px;font-stretch:normal;font-style:normal;font-weight:normal;text-anchor:middle;" transform="rotate(-0, 109.6175, 87.7975)" x="109.6175" y="87.7975">0</text>
     </g>
    </g>
    <g id="xtick_4">
     <g id="line2d_4">
      <g>
       <use style="stroke:#000000;stroke-width:1.5;" x="179.3675" xlink:href="#m826b5d21f9" y="74.71875"/>
      </g>
     </g>
     <g id="text_7">
      <text style="font-family:DejaVu Sans;font-size:8px;font-stretch:normal;font-style:normal;font-weight:normal;text-anchor:middle;" transform="rotate(-0, 179.3675, 87.7975)" x="179.3675" y="87.7975">1</text>
     </g>
    </g>
    <g id="text_8">
     <!-- E/spike ($\mu$J) -->
     <g transform="translate(121.9725 99.54125)">
      <text>
       <tspan style="font-family:DejaVu Sans;font-size:8px;font-style:book;font-weight:book;" x="0 5.054688 7.75 11.917969 16.996094 19.21875 23.851562 28.773438 31.316406 34.4375 39.527344 41.886719" y="-0.921875">E/spike (μJ)</tspan>
      </text>
     </g>
    </g>
   </g>
   <g id="matplotlib.axis_4"/>
   <g id="patch_205">
    <path d="M 109.6175 74.71875 
L 179.3675 74.71875 
" style="fill:none;stroke:#000000;stroke-linecap:square;stroke-linejoin:miter;stroke-width:1.5;"/>
   </g>
   <g id="text_9">
    <text style="font-family:DejaVu Sans;font-size:8px;font-stretch:normal;font-style:normal;font-weight:normal;text-anchor:middle;" transform="rotate(-0, 144.4925, 13.27875)" x="144.4925" y="13.27875">LP</text>
   </g>
  </g>
  <g id="axes_3">
   <g id="patch_206">
    <path d="M 200.2925 74.71875 
L 270.0425 74.71875 
L 270.0425 19.27875 
L 200.2925 19.27875 
z
" style="fill:none;"/>
   </g>
   <g id="patch_207">
    <path clip-path="url(#p1041814195)" d="M 200.2925 74.71875 
L 200.99 74.71875 
L 200.99 74.71875 
L 200.2925 74.71875 
z
" style="fill:#2ca25f;"/>
   </g>
   <g id="patch_208">
    <path clip-path="url(#p1041814195)" d="M 200.99 74.71875 
L 201.6875 74.71875 
L 201.6875 74.71875 
L 200.99 74.71875 
z
" style="fill:#2ca25f;"/>
   </g>
   <g id="patch_209">
    <path clip-path="url(#p1041814195)" d="M 201.6875 74.71875 
L 202.385 74.71875 
L 202.385 74.71875 
L 201.6875 74.71875 
z
" style="fill:#2ca25f;"/>
   </g>
   <g id="patch_210">
    <path clip-path="url(#p1041814195)" d="M 202.385 74.71875 
L 203.0825 74.71875 
L 203.0825 74.71875 
L 202.385 74.71875 
z
" style="fill:#2ca25f;"/>
   </g>
   <g id="patch_211">
    <path clip-path="url(#p1041814195)" d="M 203.0825 74.71875 
L 203.78 74.71875 
L 203.78 74.71875 
L 203.0825 74.71875 
z
" style="fill:#2ca25f;"/>
   </g>
   <g id="patch_212">
    <path clip-path="url(#p1041814195)" d="M 203.78 74.71875 
L 204.4775 74.71875 
L 204.4775 74.594952 
L 203.78 74.594952 
z
" style="fill:#2ca25f;"/>
   </g>
   <g id="patch_213">
    <path clip-path="url(#p1041814195)" d="M 204.4775 74.71875 
L 205.175 74.71875 
L 205.175 73.047472 
L 204.4775 73.047472 
z
" style="fill:#2ca25f;"/>
   </g>
   <g id="patch_214">
    <path clip-path="url(#p1041814195)" d="M 205.175 74.71875 
L 205.8725 74.71875 
L 205.8725 72.676077 
L 205.175 72.676077 
z
" style="fill:#2ca25f;"/>
   </g>
   <g id="patch_215">
    <path clip-path="url(#p1041814195)" d="M 205.8725 74.71875 
L 206.57 74.71875 
L 206.57 71.252396 
L 205.8725 71.252396 
z
" style="fill:#2ca25f;"/>
   </g>
   <g id="patch_216">
    <path clip-path="url(#p1041814195)" d="M 206.57 74.71875 
L 207.2675 74.71875 
L 207.2675 69.952513 
L 206.57 69.952513 
z
" style="fill:#2ca25f;"/>
   </g>
   <g id="patch_217">
    <path clip-path="url(#p1041814195)" d="M 207.2675 74.71875 
L 207.965 74.71875 
L 207.965 67.414647 
L 207.2675 67.414647 
z
" style="fill:#2ca25f;"/>
   </g>
   <g id="patch_218">
    <path clip-path="url(#p1041814195)" d="M 207.965 74.71875 
L 208.6625 74.71875 
L 208.6625 66.795655 
L 207.965 66.795655 
z
" style="fill:#2ca25f;"/>
   </g>
   <g id="patch_219">
    <path clip-path="url(#p1041814195)" d="M 208.6625 74.71875 
L 209.36 74.71875 
L 209.36 65.557671 
L 208.6625 65.557671 
z
" style="fill:#2ca25f;"/>
   </g>
   <g id="patch_220">
    <path clip-path="url(#p1041814195)" d="M 209.36 74.71875 
L 210.0575 74.71875 
L 210.0575 62.957906 
L 209.36 62.957906 
z
" style="fill:#2ca25f;"/>
   </g>
   <g id="patch_221">
    <path clip-path="url(#p1041814195)" d="M 210.0575 74.71875 
L 210.755 74.71875 
L 210.755 60.853334 
L 210.0575 60.853334 
z
" style="fill:#2ca25f;"/>
   </g>
   <g id="patch_222">
    <path clip-path="url(#p1041814195)" d="M 210.755 74.71875 
L 211.4525 74.71875 
L 211.4525 60.296241 
L 210.755 60.296241 
z
" style="fill:#2ca25f;"/>
   </g>
   <g id="patch_223">
    <path clip-path="url(#p1041814195)" d="M 211.4525 74.71875 
L 212.15 74.71875 
L 212.15 56.706089 
L 211.4525 56.706089 
z
" style="fill:#2ca25f;"/>
   </g>
   <g id="patch_224">
    <path clip-path="url(#p1041814195)" d="M 212.15 74.71875 
L 212.8475 74.71875 
L 212.8475 56.458492 
L 212.15 56.458492 
z
" style="fill:#2ca25f;"/>
   </g>
   <g id="patch_225">
    <path clip-path="url(#p1041814195)" d="M 212.8475 74.71875 
L 213.545 74.71875 
L 213.545 53.425432 
L 212.8475 53.425432 
z
" style="fill:#2ca25f;"/>
   </g>
   <g id="patch_226">
    <path clip-path="url(#p1041814195)" d="M 213.545 74.71875 
L 214.2425 74.71875 
L 214.2425 52.806441 
L 213.545 52.806441 
z
" style="fill:#2ca25f;"/>
   </g>
   <g id="patch_227">
    <path clip-path="url(#p1041814195)" d="M 214.2425 74.71875 
L 214.94 74.71875 
L 214.94 50.639969 
L 214.2425 50.639969 
z
" style="fill:#2ca25f;"/>
   </g>
   <g id="patch_228">
    <path clip-path="url(#p1041814195)" d="M 214.94 74.71875 
L 215.6375 74.71875 
L 215.6375 51.32086 
L 214.94 51.32086 
z
" style="fill:#2ca25f;"/>
   </g>
   <g id="patch_229">
    <path clip-path="url(#p1041814195)" d="M 215.6375 74.71875 
L 216.335 74.71875 
L 216.335 49.216288 
L 215.6375 49.216288 
z
" style="fill:#2ca25f;"/>
   </g>
   <g id="patch_230">
    <path clip-path="url(#p1041814195)" d="M 216.335 74.71875 
L 217.0325 74.71875 
L 217.0325 47.359313 
L 216.335 47.359313 
z
" style="fill:#2ca25f;"/>
   </g>
   <g id="patch_231">
    <path clip-path="url(#p1041814195)" d="M 217.0325 74.71875 
L 217.73 74.71875 
L 217.73 45.997531 
L 217.0325 45.997531 
z
" style="fill:#2ca25f;"/>
   </g>
   <g id="patch_232">
    <path clip-path="url(#p1041814195)" d="M 217.73 74.71875 
L 218.4275 74.71875 
L 218.4275 43.397765 
L 217.73 43.397765 
z
" style="fill:#2ca25f;"/>
   </g>
   <g id="patch_233">
    <path clip-path="url(#p1041814195)" d="M 218.4275 74.71875 
L 219.125 74.71875 
L 219.125 41.293193 
L 218.4275 41.293193 
z
" style="fill:#2ca25f;"/>
   </g>
   <g id="patch_234">
    <path clip-path="url(#p1041814195)" d="M 219.125 74.71875 
L 219.8225 74.71875 
L 219.8225 42.035983 
L 219.125 42.035983 
z
" style="fill:#2ca25f;"/>
   </g>
   <g id="patch_235">
    <path clip-path="url(#p1041814195)" d="M 219.8225 74.71875 
L 220.52 74.71875 
L 220.52 38.879125 
L 219.8225 38.879125 
z
" style="fill:#2ca25f;"/>
   </g>
   <g id="patch_236">
    <path clip-path="url(#p1041814195)" d="M 220.52 74.71875 
L 221.2175 74.71875 
L 221.2175 38.817226 
L 220.52 38.817226 
z
" style="fill:#2ca25f;"/>
   </g>
   <g id="patch_237">
    <path clip-path="url(#p1041814195)" d="M 221.2175 74.71875 
L 221.915 74.71875 
L 221.915 37.145948 
L 221.2175 37.145948 
z
" style="fill:#2ca25f;"/>
   </g>
   <g id="patch_238">
    <path clip-path="url(#p1041814195)" d="M 221.915 74.71875 
L 222.6125 74.71875 
L 222.6125 35.103275 
L 221.915 35.103275 
z
" style="fill:#2ca25f;"/>
   </g>
   <g id="patch_239">
    <path clip-path="url(#p1041814195)" d="M 222.6125 74.71875 
L 223.31 74.71875 
L 223.31 36.774553 
L 222.6125 36.774553 
z
" style="fill:#2ca25f;"/>
   </g>
   <g id="patch_240">
    <path clip-path="url(#p1041814195)" d="M 223.31 74.71875 
L 224.0075 74.71875 
L 224.0075 31.327425 
L 223.31 31.327425 
z
" style="fill:#2ca25f;"/>
   </g>
   <g id="patch_241">
    <path clip-path="url(#p1041814195)" d="M 224.0075 74.71875 
L 224.705 74.71875 
L 224.705 34.298586 
L 224.0075 34.298586 
z
" style="fill:#2ca25f;"/>
   </g>
   <g id="patch_242">
    <path clip-path="url(#p1041814195)" d="M 224.705 74.71875 
L 225.4025 74.71875 
L 225.4025 32.070215 
L 224.705 32.070215 
z
" style="fill:#2ca25f;"/>
   </g>
   <g id="patch_243">
    <path clip-path="url(#p1041814195)" d="M 225.4025 74.71875 
L 226.1 74.71875 
L 226.1 30.460837 
L 225.4025 30.460837 
z
" style="fill:#2ca25f;"/>
   </g>
   <g id="patch_244">
    <path clip-path="url(#p1041814195)" d="M 226.1 74.71875 
L 226.7975 74.71875 
L 226.7975 28.232466 
L 226.1 28.232466 
z
" style="fill:#2ca25f;"/>
   </g>
   <g id="patch_245">
    <path clip-path="url(#p1041814195)" d="M 226.7975 74.71875 
L 227.495 74.71875 
L 227.495 29.903744 
L 226.7975 29.903744 
z
" style="fill:#2ca25f;"/>
   </g>
   <g id="patch_246">
    <path clip-path="url(#p1041814195)" d="M 227.495 74.71875 
L 228.1925 74.71875 
L 228.1925 27.98487 
L 227.495 27.98487 
z
" style="fill:#2ca25f;"/>
   </g>
   <g id="patch_247">
    <path clip-path="url(#p1041814195)" d="M 228.1925 74.71875 
L 228.89 74.71875 
L 228.89 29.594248 
L 228.1925 29.594248 
z
" style="fill:#2ca25f;"/>
   </g>
   <g id="patch_248">
    <path clip-path="url(#p1041814195)" d="M 228.89 74.71875 
L 229.5875 74.71875 
L 229.5875 27.737273 
L 228.89 27.737273 
z
" style="fill:#2ca25f;"/>
   </g>
   <g id="patch_249">
    <path clip-path="url(#p1041814195)" d="M 229.5875 74.71875 
L 230.285 74.71875 
L 230.285 27.18018 
L 229.5875 27.18018 
z
" style="fill:#2ca25f;"/>
   </g>
   <g id="patch_250">
    <path clip-path="url(#p1041814195)" d="M 230.285 74.71875 
L 230.9825 74.71875 
L 230.9825 27.799172 
L 230.285 27.799172 
z
" style="fill:#2ca25f;"/>
   </g>
   <g id="patch_251">
    <path clip-path="url(#p1041814195)" d="M 230.9825 74.71875 
L 231.68 74.71875 
L 231.68 25.942197 
L 230.9825 25.942197 
z
" style="fill:#2ca25f;"/>
   </g>
   <g id="patch_252">
    <path clip-path="url(#p1041814195)" d="M 231.68 74.71875 
L 232.3775 74.71875 
L 232.3775 27.861071 
L 231.68 27.861071 
z
" style="fill:#2ca25f;"/>
   </g>
   <g id="patch_253">
    <path clip-path="url(#p1041814195)" d="M 232.3775 74.71875 
L 233.075 74.71875 
L 233.075 21.91875 
L 232.3775 21.91875 
z
" style="fill:#2ca25f;"/>
   </g>
   <g id="patch_254">
    <path clip-path="url(#p1041814195)" d="M 233.075 74.71875 
L 233.7725 74.71875 
L 233.7725 26.375491 
L 233.075 26.375491 
z
" style="fill:#2ca25f;"/>
   </g>
   <g id="patch_255">
    <path clip-path="url(#p1041814195)" d="M 233.7725 74.71875 
L 234.47 74.71875 
L 234.47 24.394717 
L 233.7725 24.394717 
z
" style="fill:#2ca25f;"/>
   </g>
   <g id="patch_256">
    <path clip-path="url(#p1041814195)" d="M 234.47 74.71875 
L 235.1675 74.71875 
L 235.1675 26.375491 
L 234.47 26.375491 
z
" style="fill:#2ca25f;"/>
   </g>
   <g id="patch_257">
    <path clip-path="url(#p1041814195)" d="M 235.1675 74.71875 
L 235.865 74.71875 
L 235.865 24.456616 
L 235.1675 24.456616 
z
" style="fill:#2ca25f;"/>
   </g>
   <g id="patch_258">
    <path clip-path="url(#p1041814195)" d="M 235.865 74.71875 
L 236.5625 74.71875 
L 236.5625 24.766112 
L 235.865 24.766112 
z
" style="fill:#2ca25f;"/>
   </g>
   <g id="patch_259">
    <path clip-path="url(#p1041814195)" d="M 236.5625 74.71875 
L 237.26 74.71875 
L 237.26 25.261306 
L 236.5625 25.261306 
z
" style="fill:#2ca25f;"/>
   </g>
   <g id="patch_260">
    <path clip-path="url(#p1041814195)" d="M 237.26 74.71875 
L 237.9575 74.71875 
L 237.9575 27.427777 
L 237.26 27.427777 
z
" style="fill:#2ca25f;"/>
   </g>
   <g id="patch_261">
    <path clip-path="url(#p1041814195)" d="M 237.9575 74.71875 
L 238.655 74.71875 
L 238.655 26.932584 
L 237.9575 26.932584 
z
" style="fill:#2ca25f;"/>
   </g>
   <g id="patch_262">
    <path clip-path="url(#p1041814195)" d="M 238.655 74.71875 
L 239.3525 74.71875 
L 239.3525 27.118281 
L 238.655 27.118281 
z
" style="fill:#2ca25f;"/>
   </g>
   <g id="patch_263">
    <path clip-path="url(#p1041814195)" d="M 239.3525 74.71875 
L 240.05 74.71875 
L 240.05 30.337038 
L 239.3525 30.337038 
z
" style="fill:#2ca25f;"/>
   </g>
   <g id="patch_264">
    <path clip-path="url(#p1041814195)" d="M 240.05 74.71875 
L 240.7475 74.71875 
L 240.7475 29.47045 
L 240.05 29.47045 
z
" style="fill:#2ca25f;"/>
   </g>
   <g id="patch_265">
    <path clip-path="url(#p1041814195)" d="M 240.7475 74.71875 
L 241.445 74.71875 
L 241.445 29.099055 
L 240.7475 29.099055 
z
" style="fill:#2ca25f;"/>
   </g>
   <g id="patch_266">
    <path clip-path="url(#p1041814195)" d="M 241.445 74.71875 
L 242.1425 74.71875 
L 242.1425 36.27936 
L 241.445 36.27936 
z
" style="fill:#2ca25f;"/>
   </g>
   <g id="patch_267">
    <path clip-path="url(#p1041814195)" d="M 242.1425 74.71875 
L 242.84 74.71875 
L 242.84 31.079829 
L 242.1425 31.079829 
z
" style="fill:#2ca25f;"/>
   </g>
   <g id="patch_268">
    <path clip-path="url(#p1041814195)" d="M 242.84 74.71875 
L 243.5375 74.71875 
L 243.5375 33.741493 
L 242.84 33.741493 
z
" style="fill:#2ca25f;"/>
   </g>
   <g id="patch_269">
    <path clip-path="url(#p1041814195)" d="M 243.5375 74.71875 
L 244.235 74.71875 
L 244.235 35.041376 
L 243.5375 35.041376 
z
" style="fill:#2ca25f;"/>
   </g>
   <g id="patch_270">
    <path clip-path="url(#p1041814195)" d="M 244.235 74.71875 
L 244.9325 74.71875 
L 244.9325 31.822619 
L 244.235 31.822619 
z
" style="fill:#2ca25f;"/>
   </g>
   <g id="patch_271">
    <path clip-path="url(#p1041814195)" d="M 244.9325 74.71875 
L 245.63 74.71875 
L 245.63 39.99331 
L 244.9325 39.99331 
z
" style="fill:#2ca25f;"/>
   </g>
   <g id="patch_272">
    <path clip-path="url(#p1041814195)" d="M 245.63 74.71875 
L 246.3275 74.71875 
L 246.3275 40.612302 
L 245.63 40.612302 
z
" style="fill:#2ca25f;"/>
   </g>
   <g id="patch_273">
    <path clip-path="url(#p1041814195)" d="M 246.3275 74.71875 
L 247.025 74.71875 
L 247.025 43.892959 
L 246.3275 43.892959 
z
" style="fill:#2ca25f;"/>
   </g>
   <g id="patch_274">
    <path clip-path="url(#p1041814195)" d="M 247.025 74.71875 
L 247.7225 74.71875 
L 247.7225 46.245127 
L 247.025 46.245127 
z
" style="fill:#2ca25f;"/>
   </g>
   <g id="patch_275">
    <path clip-path="url(#p1041814195)" d="M 247.7225 74.71875 
L 248.42 74.71875 
L 248.42 52.682642 
L 247.7225 52.682642 
z
" style="fill:#2ca25f;"/>
   </g>
   <g id="patch_276">
    <path clip-path="url(#p1041814195)" d="M 248.42 74.71875 
L 249.1175 74.71875 
L 249.1175 54.601517 
L 248.42 54.601517 
z
" style="fill:#2ca25f;"/>
   </g>
   <g id="patch_277">
    <path clip-path="url(#p1041814195)" d="M 249.1175 74.71875 
L 249.815 74.71875 
L 249.815 60.296241 
L 249.1175 60.296241 
z
" style="fill:#2ca25f;"/>
   </g>
   <g id="patch_278">
    <path clip-path="url(#p1041814195)" d="M 249.815 74.71875 
L 250.5125 74.71875 
L 250.5125 62.153217 
L 249.815 62.153217 
z
" style="fill:#2ca25f;"/>
   </g>
   <g id="patch_279">
    <path clip-path="url(#p1041814195)" d="M 250.5125 74.71875 
L 251.21 74.71875 
L 251.21 65.743369 
L 250.5125 65.743369 
z
" style="fill:#2ca25f;"/>
   </g>
   <g id="patch_280">
    <path clip-path="url(#p1041814195)" d="M 251.21 74.71875 
L 251.9075 74.71875 
L 251.9075 66.919453 
L 251.21 66.919453 
z
" style="fill:#2ca25f;"/>
   </g>
   <g id="patch_281">
    <path clip-path="url(#p1041814195)" d="M 251.9075 74.71875 
L 252.605 74.71875 
L 252.605 69.519219 
L 251.9075 69.519219 
z
" style="fill:#2ca25f;"/>
   </g>
   <g id="patch_282">
    <path clip-path="url(#p1041814195)" d="M 252.605 74.71875 
L 253.3025 74.71875 
L 253.3025 70.323908 
L 252.605 70.323908 
z
" style="fill:#2ca25f;"/>
   </g>
   <g id="patch_283">
    <path clip-path="url(#p1041814195)" d="M 253.3025 74.71875 
L 254 74.71875 
L 254 71.809489 
L 253.3025 71.809489 
z
" style="fill:#2ca25f;"/>
   </g>
   <g id="patch_284">
    <path clip-path="url(#p1041814195)" d="M 254 74.71875 
L 254.6975 74.71875 
L 254.6975 73.047472 
L 254 73.047472 
z
" style="fill:#2ca25f;"/>
   </g>
   <g id="patch_285">
    <path clip-path="url(#p1041814195)" d="M 254.6975 74.71875 
L 255.395 74.71875 
L 255.395 73.604565 
L 254.6975 73.604565 
z
" style="fill:#2ca25f;"/>
   </g>
   <g id="patch_286">
    <path clip-path="url(#p1041814195)" d="M 255.395 74.71875 
L 256.0925 74.71875 
L 256.0925 74.099758 
L 255.395 74.099758 
z
" style="fill:#2ca25f;"/>
   </g>
   <g id="patch_287">
    <path clip-path="url(#p1041814195)" d="M 256.0925 74.71875 
L 256.79 74.71875 
L 256.79 74.161657 
L 256.0925 74.161657 
z
" style="fill:#2ca25f;"/>
   </g>
   <g id="patch_288">
    <path clip-path="url(#p1041814195)" d="M 256.79 74.71875 
L 257.4875 74.71875 
L 257.4875 74.223557 
L 256.79 74.223557 
z
" style="fill:#2ca25f;"/>
   </g>
   <g id="patch_289">
    <path clip-path="url(#p1041814195)" d="M 257.4875 74.71875 
L 258.185 74.71875 
L 258.185 74.471153 
L 257.4875 74.471153 
z
" style="fill:#2ca25f;"/>
   </g>
   <g id="patch_290">
    <path clip-path="url(#p1041814195)" d="M 258.185 74.71875 
L 258.8825 74.71875 
L 258.8825 74.71875 
L 258.185 74.71875 
z
" style="fill:#2ca25f;"/>
   </g>
   <g id="patch_291">
    <path clip-path="url(#p1041814195)" d="M 258.8825 74.71875 
L 259.58 74.71875 
L 259.58 74.71875 
L 258.8825 74.71875 
z
" style="fill:#2ca25f;"/>
   </g>
   <g id="patch_292">
    <path clip-path="url(#p1041814195)" d="M 259.58 74.71875 
L 260.2775 74.71875 
L 260.2775 74.71875 
L 259.58 74.71875 
z
" style="fill:#2ca25f;"/>
   </g>
   <g id="patch_293">
    <path clip-path="url(#p1041814195)" d="M 260.2775 74.71875 
L 260.975 74.71875 
L 260.975 74.71875 
L 260.2775 74.71875 
z
" style="fill:#2ca25f;"/>
   </g>
   <g id="patch_294">
    <path clip-path="url(#p1041814195)" d="M 260.975 74.71875 
L 261.6725 74.71875 
L 261.6725 74.71875 
L 260.975 74.71875 
z
" style="fill:#2ca25f;"/>
   </g>
   <g id="patch_295">
    <path clip-path="url(#p1041814195)" d="M 261.6725 74.71875 
L 262.37 74.71875 
L 262.37 74.71875 
L 261.6725 74.71875 
z
" style="fill:#2ca25f;"/>
   </g>
   <g id="patch_296">
    <path clip-path="url(#p1041814195)" d="M 262.37 74.71875 
L 263.0675 74.71875 
L 263.0675 74.71875 
L 262.37 74.71875 
z
" style="fill:#2ca25f;"/>
   </g>
   <g id="patch_297">
    <path clip-path="url(#p1041814195)" d="M 263.0675 74.71875 
L 263.765 74.71875 
L 263.765 74.71875 
L 263.0675 74.71875 
z
" style="fill:#2ca25f;"/>
   </g>
   <g id="patch_298">
    <path clip-path="url(#p1041814195)" d="M 263.765 74.71875 
L 264.4625 74.71875 
L 264.4625 74.71875 
L 263.765 74.71875 
z
" style="fill:#2ca25f;"/>
   </g>
   <g id="patch_299">
    <path clip-path="url(#p1041814195)" d="M 264.4625 74.71875 
L 265.16 74.71875 
L 265.16 74.71875 
L 264.4625 74.71875 
z
" style="fill:#2ca25f;"/>
   </g>
   <g id="patch_300">
    <path clip-path="url(#p1041814195)" d="M 265.16 74.71875 
L 265.8575 74.71875 
L 265.8575 74.71875 
L 265.16 74.71875 
z
" style="fill:#2ca25f;"/>
   </g>
   <g id="patch_301">
    <path clip-path="url(#p1041814195)" d="M 265.8575 74.71875 
L 266.555 74.71875 
L 266.555 74.71875 
L 265.8575 74.71875 
z
" style="fill:#2ca25f;"/>
   </g>
   <g id="patch_302">
    <path clip-path="url(#p1041814195)" d="M 266.555 74.71875 
L 267.2525 74.71875 
L 267.2525 74.71875 
L 266.555 74.71875 
z
" style="fill:#2ca25f;"/>
   </g>
   <g id="patch_303">
    <path clip-path="url(#p1041814195)" d="M 267.2525 74.71875 
L 267.95 74.71875 
L 267.95 74.71875 
L 267.2525 74.71875 
z
" style="fill:#2ca25f;"/>
   </g>
   <g id="patch_304">
    <path clip-path="url(#p1041814195)" d="M 267.95 74.71875 
L 268.6475 74.71875 
L 268.6475 74.71875 
L 267.95 74.71875 
z
" style="fill:#2ca25f;"/>
   </g>
   <g id="patch_305">
    <path clip-path="url(#p1041814195)" d="M 268.6475 74.71875 
L 269.345 74.71875 
L 269.345 74.71875 
L 268.6475 74.71875 
z
" style="fill:#2ca25f;"/>
   </g>
   <g id="patch_306">
    <path clip-path="url(#p1041814195)" d="M 269.345 74.71875 
L 270.0425 74.71875 
L 270.0425 74.71875 
L 269.345 74.71875 
z
" style="fill:#2ca25f;"/>
   </g>
   <g id="matplotlib.axis_5">
    <g id="xtick_5">
     <g id="line2d_5">
      <g>
       <use style="stroke:#000000;stroke-width:1.5;" x="200.2925" xlink:href="#m826b5d21f9" y="74.71875"/>
      </g>
     </g>
     <g id="text_10">
      <text style="font-family:DejaVu Sans;font-size:8px;font-stretch:normal;font-style:normal;font-weight:normal;text-anchor:middle;" transform="rotate(-0, 200.2925, 87.7975)" x="200.2925" y="87.7975">0</text>
     </g>
    </g>
    <g id="xtick_6">
     <g id="line2d_6">
      <g>
       <use style="stroke:#000000;stroke-width:1.5;" x="270.0425" xlink:href="#m826b5d21f9" y="74.71875"/>
      </g>
     </g>
     <g id="text_11">
      <text style="font-family:DejaVu Sans;font-size:8px;font-stretch:normal;font-style:normal;font-weight:normal;text-anchor:middle;" transform="rotate(-0, 270.0425, 87.7975)" x="270.0425" y="87.7975">1</text>
     </g>
    </g>
    <g id="text_12">
     <!-- E/spike ($\mu$J) -->
     <g transform="translate(212.6475 99.54125)">
      <text>
       <tspan style="font-family:DejaVu Sans;font-size:8px;font-style:book;font-weight:book;" x="0 5.054688 7.75 11.917969 16.996094 19.21875 23.851562 28.773438 31.316406 34.4375 39.527344 41.886719" y="-0.921875">E/spike (μJ)</tspan>
      </text>
     </g>
    </g>
   </g>
   <g id="matplotlib.axis_6"/>
   <g id="patch_307">
    <path d="M 200.2925 74.71875 
L 270.0425 74.71875 
" style="fill:none;stroke:#000000;stroke-linecap:square;stroke-linejoin:miter;stroke-width:1.5;"/>
   </g>
   <g id="text_13">
    <text style="font-family:DejaVu Sans;font-size:8px;font-stretch:normal;font-style:normal;font-weight:normal;text-anchor:middle;" transform="rotate(-0, 235.1675, 13.27875)" x="235.1675" y="13.27875">PY</text>
   </g>
  </g>
 </g>
 <defs>
  <clipPath id="pdd9820c3c0">
   <rect height="55.44" width="69.75" x="18.9425" y="19.27875"/>
  </clipPath>
  <clipPath id="pa4b71b4f5a">
   <rect height="55.44" width="69.75" x="109.6175" y="19.27875"/>
  </clipPath>
  <clipPath id="p1041814195">
   <rect height="55.44" width="69.75" x="200.2925" y="19.27875"/>
  </clipPath>
 </defs>
</svg>
