<?xml version="1.0" encoding="utf-8" standalone="no"?>
<!DOCTYPE svg PUBLIC "-//W3C//DTD SVG 1.1//EN"
  "http://www.w3.org/Graphics/SVG/1.1/DTD/svg11.dtd">
<!-- Created with matplotlib (https://matplotlib.org/) -->
<svg height="90.504pt" version="1.1" viewBox="0 0 137.16 90.504" width="137.16pt" xmlns="http://www.w3.org/2000/svg" xmlns:xlink="http://www.w3.org/1999/xlink">
 <metadata>
  <rdf:RDF xmlns:cc="http://creativecommons.org/ns#" xmlns:dc="http://purl.org/dc/elements/1.1/" xmlns:rdf="http://www.w3.org/1999/02/22-rdf-syntax-ns#">
   <cc:Work>
    <dc:type rdf:resource="http://purl.org/dc/dcmitype/StillImage"/>
    <dc:date>2020-10-20T17:06:49.499447</dc:date>
    <dc:format>image/svg+xml</dc:format>
    <dc:creator>
     <cc:Agent>
      <dc:title>Matplotlib v3.3.2, https://matplotlib.org/</dc:title>
     </cc:Agent>
    </dc:creator>
   </cc:Work>
  </rdf:RDF>
 </metadata>
 <defs>
  <style type="text/css">*{stroke-linecap:butt;stroke-linejoin:round;}</style>
 </defs>
 <g id="figure_1">
  <g id="patch_1">
   <path d="M 0 90.504 
L 137.16 90.504 
L 137.16 -0 
L 0 -0 
z
" style="fill:none;"/>
  </g>
  <g id="axes_1">
   <g id="patch_2">
    <path d="M 7.2 83.304 
L 129.96 83.304 
L 129.96 7.2 
L 7.2 7.2 
z
" style="fill:none;"/>
   </g>
   <g id="matplotlib.axis_1"/>
   <g id="matplotlib.axis_2"/>
   <g id="line2d_1">
    <path clip-path="url(#p230645d430)" d="M 12.78 30.838667 
L 13.033167 30.850354 
L 13.038333 30.878592 
L 13.0745 30.911646 
L 13.1055 30.851135 
L 13.146833 30.851945 
L 13.1675 30.801023 
L 13.224333 30.888107 
L 13.2605 30.858584 
L 13.513667 30.905767 
L 13.524 30.883711 
L 13.591167 30.905854 
L 13.637667 30.840728 
L 13.735833 30.885881 
L 13.7565 30.861905 
L 13.844333 30.841592 
L 13.766833 30.866705 
L 13.859833 30.892699 
L 16.184833 30.956856 
L 16.200333 30.999716 
L 16.246833 30.91536 
L 16.293333 30.933167 
L 16.412167 30.879166 
L 16.417333 30.858117 
L 16.474167 30.957844 
L 16.5155 30.905459 
L 16.655 30.918558 
L 16.665333 30.888357 
L 16.686 30.915989 
L 16.7945 30.818641 
L 17.202667 30.928852 
L 17.269833 30.872093 
L 17.311167 30.934022 
L 17.440333 30.935091 
L 17.554 30.970947 
L 17.688333 30.783494 
L 17.838167 30.961677 
L 18.0035 30.829334 
L 18.019 30.854919 
L 18.230833 30.883327 
L 18.236 30.863509 
L 18.241167 30.83023 
L 18.308333 30.920717 
L 18.334167 30.921684 
L 18.339333 30.946396 
L 18.3755 30.868295 
L 18.4375 30.884173 
L 18.453 30.843619 
L 18.556333 30.83041 
L 18.6545 30.834307 
L 18.613167 30.915168 
L 18.659667 30.836966 
L 18.701 30.906744 
L 18.773333 30.868884 
L 18.783667 30.886991 
L 18.918 30.810972 
L 18.98 30.747148 
L 19.036833 30.855191 
L 19.155667 30.937045 
L 19.160833 30.896067 
L 19.362333 30.861854 
L 19.372667 30.907134 
L 19.424333 30.917043 
L 19.455333 30.863097 
L 19.481167 30.875692 
L 19.667167 30.833565 
L 19.682667 30.892641 
L 19.693 30.932729 
L 19.7705 30.830755 
L 19.786 30.854005 
L 19.796333 30.827241 
L 19.961667 30.889813 
L 20.034 30.852211 
L 20.0805 30.90472 
L 20.168333 30.92456 
L 20.106333 30.881371 
L 20.178667 30.868735 
L 20.256167 30.934221 
L 20.338833 30.808513 
L 20.406 30.881297 
L 20.462833 30.852573 
L 20.597167 30.805673 
L 20.710833 30.898785 
L 20.716 30.880941 
L 20.721167 30.860677 
L 20.788333 30.973247 
L 20.814167 30.922959 
L 20.819333 30.95161 
L 20.891667 30.875904 
L 20.927833 30.928856 
L 21.139667 31.05124 
L 20.958833 30.889022 
L 21.144833 31.04354 
L 21.609833 30.66977 
L 21.615 30.692689 
L 21.759667 30.726106 
L 21.775167 30.689389 
L 21.7855 30.657923 
L 21.821667 30.757481 
L 21.873333 30.729099 
L 22.054167 30.774811 
L 21.888833 30.710806 
L 22.0645 30.758798 
L 22.431333 30.762953 
L 22.5295 30.750957 
L 22.472667 30.802532 
L 22.545 30.762904 
L 22.679333 30.693685 
L 22.689667 30.739218 
L 22.793 30.616596 
L 22.911833 30.548853 
L 22.917 30.565288 
L 23.113333 30.756259 
L 23.227 30.8662 
L 23.2425 30.836703 
L 23.345833 30.761429 
L 23.376833 30.801652 
L 23.464667 30.714619 
L 23.599 30.736429 
L 23.743667 30.65448 
L 23.826333 30.695939 
L 23.852167 30.632181 
L 24.089833 30.826246 
L 24.255167 30.742942 
L 24.286167 30.810472 
L 24.374 30.767687 
L 24.684 30.7379 
L 24.7615 30.657655 
L 24.802833 30.729657 
L 24.895833 30.734421 
L 24.911333 30.697594 
L 25.066333 30.549291 
L 25.159333 30.635704 
L 25.211 30.587005 
L 25.2885 30.512607 
L 25.340167 30.555852 
L 25.448667 30.583359 
L 25.417667 30.517874 
L 25.453833 30.569429 
L 26.130667 30.694665 
L 26.135833 30.67599 
L 26.259833 30.597995 
L 26.265 30.606903 
L 26.327 30.503751 
L 26.358 30.547668 
L 26.616333 30.684589 
L 26.626667 30.700817 
L 26.662833 30.614265 
L 26.693833 30.606568 
L 26.8385 30.459723 
L 26.885 30.492664 
L 26.936667 30.422006 
L 27.050333 30.362371 
L 27.0555 30.371092 
L 27.1795 30.4093 
L 27.344833 30.278819 
L 27.375833 30.343807 
L 27.443 30.361822 
L 27.479167 30.299256 
L 27.5205 30.335883 
L 27.598 30.232491 
L 27.608333 30.285214 
L 27.654833 30.187525 
L 27.7065 30.244091 
L 27.763333 30.240846 
L 27.789167 30.305028 
L 27.820167 30.374287 
L 27.902833 30.31162 
L 28.011333 30.200696 
L 28.037167 30.225836 
L 28.223167 30.343687 
L 28.057833 30.198402 
L 28.228333 30.332885 
L 28.347167 30.248393 
L 28.352333 30.260075 
L 28.460833 30.319208 
L 28.491833 30.271994 
L 28.569333 30.152428 
L 28.615833 30.215975 
L 28.626167 30.257751 
L 28.688167 30.183179 
L 28.724333 30.205801 
L 28.8225 30.136235 
L 28.838 30.119344 
L 28.889667 30.207183 
L 28.9 30.195049 
L 28.941333 30.210094 
L 28.987833 30.140675 
L 29.0085 30.174822 
L 29.0705 30.13232 
L 29.044667 30.097044 
L 29.080833 30.104933 
L 29.173833 29.876212 
L 29.230667 29.91545 
L 29.390833 29.69423 
L 29.406333 29.702042 
L 29.483833 29.730678 
L 29.4425 29.648374 
L 29.514833 29.711267 
L 29.571667 29.575354 
L 29.644 29.60418 
L 29.726667 29.525774 
L 29.83 29.430373 
L 29.850667 29.470881 
L 30.057333 29.464151 
L 30.067667 29.421523 
L 30.072833 29.411339 
L 30.088333 29.517742 
L 30.1555 29.478662 
L 30.171 29.48727 
L 30.233 29.378551 
L 30.3105 29.267461 
L 30.3725 29.374606 
L 30.460333 29.440699 
L 30.5585 29.539021 
L 30.5895 29.511404 
L 30.997667 29.616205 
L 31.002833 29.60428 
L 31.059667 29.524022 
L 31.132 29.557087 
L 32.124 29.409162 
L 32.392667 29.115357 
L 32.397833 29.140645 
L 32.496 29.139375 
L 32.413333 29.103128 
L 32.5115 29.111233 
L 32.5425 29.127867 
L 32.6665 28.989733 
L 32.842167 28.987671 
L 32.971333 28.892883 
L 33.829 28.582245 
L 33.901333 28.662623 
L 33.9375 28.608501 
L 34.056333 28.502018 
L 34.071833 28.520229 
L 34.082167 28.532947 
L 34.1545 28.45529 
L 34.159667 28.458309 
L 34.221667 28.38697 
L 34.195833 28.467491 
L 34.2785 28.403785 
L 34.6505 28.29847 
L 34.784833 28.148297 
L 34.815833 28.212045 
L 34.8985 28.170945 
L 35.187833 28.034874 
L 35.306667 27.942867 
L 35.322167 27.949478 
L 35.353167 27.979708 
L 35.420333 27.941847 
L 35.534 27.768493 
L 35.5495 27.793352 
L 35.627 27.761986 
L 35.590833 27.74101 
L 35.6425 27.734372 
L 35.7665 27.621375 
L 35.658 27.752322 
L 35.771667 27.631605 
L 35.833667 27.638498 
L 35.875 27.593092 
L 36.706833 26.208916 
L 36.784333 25.370787 
L 36.810167 22.951238 
L 36.825667 10.66427 
L 36.923833 19.37711 
L 36.996167 27.348401 
L 37.125333 25.897387 
L 37.1925 23.676799 
L 37.208 12.397121 
L 37.306167 20.986183 
L 37.352667 27.875343 
L 37.481833 26.051334 
L 37.549 23.718547 
L 37.5645 12.233347 
L 37.662667 20.571166 
L 37.714333 28.355755 
L 37.859 26.308222 
L 37.9365 23.111055 
L 37.952 11.973144 
L 38.045 19.936849 
L 38.107 28.822173 
L 38.262 26.695407 
L 38.355 24.187699 
L 38.3705 11.736118 
L 38.473833 19.926043 
L 38.535833 29.203039 
L 38.701167 27.105085 
L 38.814833 24.718199 
L 38.8355 11.534276 
L 38.9595 21.026592 
L 39.006 29.496797 
L 39.1455 27.898262 
L 39.321167 24.582462 
L 39.341833 11.396171 
L 39.4555 20.346568 
L 39.5175 29.689925 
L 39.682833 27.827142 
L 39.868833 24.062235 
L 39.884333 11.300845 
L 39.987667 19.60099 
L 40.06 29.836572 
L 40.225333 28.12241 
L 40.452667 24.06293 
L 40.468167 11.241555 
L 40.5715 19.675711 
L 40.643833 29.906234 
L 40.809167 28.270627 
L 41.077833 24.240358 
L 41.093333 11.209246 
L 41.201833 20.108638 
L 41.263833 29.94315 
L 41.434333 28.339611 
L 41.7495 23.260302 
L 41.765 11.205763 
L 41.863167 19.906338 
L 41.930333 29.924236 
L 42.095667 28.365724 
L 42.457333 23.423002 
L 42.472833 11.179601 
L 42.571 20.142811 
L 42.633 29.875609 
L 42.793167 28.391945 
L 43.118667 25.843392 
L 43.211667 24.904663 
L 43.227167 22.970922 
L 43.242667 11.205789 
L 43.335667 20.270675 
L 43.397667 29.724203 
L 43.5475 28.31847 
L 44.017667 24.537933 
L 44.0435 11.239193 
L 44.146833 21.578054 
L 44.193333 29.628731 
L 44.301833 28.633569 
L 44.71 25.79153 
L 44.859833 24.775076 
L 44.875333 22.885013 
L 44.890833 11.244023 
L 44.983833 20.986708 
L 45.0355 29.46497 
L 45.164667 28.276839 
L 45.485 26.030282 
L 45.660667 24.856473 
L 45.681333 19.215768 
L 45.691667 11.199614 
L 45.789833 21.159626 
L 45.836333 29.545456 
L 45.9655 28.392329 
L 46.3065 26.064541 
L 46.311667 26.079131 
L 46.487333 25.759801 
L 46.539 25.882076 
L 46.611333 26.047153 
L 46.885167 26.810446 
L 46.890333 26.805284 
L 46.916167 26.906861 
L 46.921333 26.907043 
L 47.138333 27.435588 
L 47.1435 27.433711 
L 47.164167 27.541564 
L 47.314 27.855108 
L 48.641833 31.545567 
L 47.324333 27.851202 
L 48.652167 31.534154 
L 48.719333 31.691919 
L 49.132667 32.295083 
L 48.729667 31.670713 
L 49.143 32.282457 
L 49.246333 32.272121 
L 49.184333 32.362818 
L 49.2515 32.306207 
L 49.711333 32.533236 
L 49.773333 32.544172 
L 49.799167 32.473562 
L 49.804333 32.483247 
L 49.943833 32.394516 
L 49.866333 32.539459 
L 49.949 32.404424 
L 50.0575 32.340368 
L 50.083333 32.424754 
L 50.104 32.410885 
L 50.197 32.440314 
L 50.393333 32.244752 
L 50.3985 32.259225 
L 50.450167 32.147129 
L 50.486333 32.181521 
L 50.579333 32.161262 
L 50.517333 32.211928 
L 50.6 32.194521 
L 50.662 32.201908 
L 50.6775 32.272389 
L 50.827333 32.313588 
L 50.8325 32.2994 
L 50.904833 32.285967 
L 50.9255 32.349858 
L 50.930667 32.347674 
L 51.0495 32.452453 
L 51.054667 32.427281 
L 51.132167 32.428924 
L 51.070167 32.457823 
L 51.158 32.467956 
L 51.163167 32.49187 
L 51.225167 32.368019 
L 51.251 32.390245 
L 51.411167 32.23847 
L 51.416333 32.257188 
L 51.4835 32.281078 
L 51.509333 32.222864 
L 51.6075 32.064321 
L 51.633333 32.118784 
L 51.896833 32.148671 
L 52.098333 32.323555 
L 52.1035 32.297158 
L 52.222333 32.219024 
L 52.237833 32.259232 
L 52.2895 32.289631 
L 52.336 32.205121 
L 52.341167 32.216175 
L 52.491 32.410128 
L 52.361833 32.184402 
L 52.516833 32.380218 
L 52.558167 32.340749 
L 52.609833 32.436597 
L 52.615 32.428295 
L 52.6925 32.407177 
L 52.677 32.377131 
L 52.708 32.379936 
L 52.832 32.302052 
L 52.842333 32.322001 
L 52.956 32.401647 
L 52.9715 32.397715 
L 53.3125 32.10339 
L 53.317667 32.113518 
L 53.426167 32.107384 
L 53.353833 32.070773 
L 53.431333 32.094572 
L 53.441667 32.040113 
L 53.514 32.150735 
L 53.534667 32.129443 
L 53.906667 31.853428 
L 53.545 32.151341 
L 53.9325 31.920523 
L 53.937667 31.956561 
L 54.030667 31.863733 
L 54.165 31.647523 
L 54.175333 31.659421 
L 55.115667 31.602154 
L 55.167333 31.622433 
L 55.239667 31.558176 
L 55.596167 31.472387 
L 55.601333 31.484093 
L 55.663333 31.525441 
L 55.622 31.475149 
L 55.709833 31.465263 
L 55.828667 31.467879 
L 55.7615 31.524191 
L 55.839 31.478058 
L 55.994 31.424176 
L 56.143833 31.225545 
L 56.149 31.233373 
L 56.154167 31.260645 
L 56.205833 31.20392 
L 56.252333 31.197563 
L 56.335 31.134875 
L 56.366 31.17085 
L 56.4435 31.219368 
L 56.448667 31.247229 
L 56.4745 31.311384 
L 56.562333 31.224344 
L 56.650167 31.132463 
L 56.6915 31.199519 
L 56.7535 31.223596 
L 56.707 31.176163 
L 56.794833 31.160765 
L 56.9085 31.117909 
L 56.913667 31.13705 
L 56.991167 31.192161 
L 57.011833 31.096358 
L 57.017 31.10534 
L 57.337333 30.888563 
L 57.358 30.912537 
L 57.368333 30.94405 
L 57.456167 30.865146 
L 57.461333 30.865492 
L 57.513 30.925394 
L 57.580167 30.861852 
L 57.709333 30.932476 
L 57.7145 30.924294 
L 57.792 30.855296 
L 57.823 30.924422 
L 57.998667 30.876663 
L 58.071 30.867717 
L 58.096833 30.918331 
L 58.143333 30.961927 
L 58.127833 30.905261 
L 58.205333 30.89931 
L 58.324167 30.872809 
L 58.3345 30.846173 
L 58.339667 30.829232 
L 58.381 30.905947 
L 58.4275 30.907566 
L 58.474 30.851134 
L 58.5515 30.956504 
L 58.6755 30.885855 
L 58.846 30.846217 
L 59.006167 30.903202 
L 59.373 30.911657 
L 59.424667 30.973217 
L 59.486667 30.908378 
L 59.7295 30.905222 
L 59.765667 30.954717 
L 59.827667 30.872559 
L 59.832833 30.874077 
L 59.9465 30.839348 
L 59.879333 30.918241 
L 59.951667 30.846334 
L 60.049833 30.906072 
L 59.987833 30.812267 
L 60.065333 30.856298 
L 60.0705 30.840864 
L 60.142833 30.935309 
L 60.148 30.93201 
L 60.2255 30.968882 
L 60.261667 30.929167 
L 60.396 30.876849 
L 60.509667 30.940439 
L 60.551 30.88287 
L 60.700833 30.877026 
L 60.706 30.863982 
L 60.711167 30.843255 
L 60.762833 30.938248 
L 60.809333 30.897346 
L 60.912667 30.848263 
L 60.923 30.808026 
L 61.010833 30.923815 
L 61.088333 30.832546 
L 61.134833 30.880602 
L 61.7445 30.915002 
L 61.765167 30.94232 
L 61.858167 30.888006 
L 62.002833 30.933362 
L 62.018333 30.921104 
L 62.664167 30.939016 
L 62.8295 30.879255 
L 62.850167 30.855895 
L 62.912167 30.937149 
L 62.938 30.901188 
L 62.9845 30.816677 
L 63.067167 30.865559 
L 63.072333 30.882548 
L 63.134333 30.754305 
L 63.165333 30.807402 
L 63.2325 30.760047 
L 63.268667 30.80959 
L 63.341 30.899967 
L 63.377167 30.792266 
L 63.3875 30.757467 
L 63.4495 30.955811 
L 63.459833 30.975284 
L 63.5425 30.910187 
L 63.552833 30.940968 
L 63.589 30.822296 
L 63.687167 30.879878 
L 63.7905 30.89388 
L 63.733667 30.826491 
L 63.800833 30.862181 
L 63.893833 30.845425 
L 63.878333 30.890708 
L 63.909333 30.871345 
L 64.1005 30.842617 
L 64.116 30.779432 
L 64.203833 30.870842 
L 64.209 30.861764 
L 64.333 30.83207 
L 64.219333 30.869082 
L 64.338167 30.855062 
L 64.3485 30.923184 
L 64.384667 30.826432 
L 64.446667 30.875479 
L 64.462167 30.797721 
L 64.524167 30.897433 
L 64.560333 30.832789 
L 64.684333 30.938911 
L 64.787667 30.884099 
L 64.8135 30.899309 
L 64.927167 30.950545 
L 64.8445 30.881566 
L 64.9375 30.939205 
L 64.973667 30.996162 
L 65.056333 30.904462 
L 65.1855 30.951682 
L 65.082167 30.878117 
L 65.190667 30.946339 
L 65.3095 30.87975 
L 65.319833 30.883261 
L 65.443833 30.956281 
L 65.3715 30.852576 
L 65.449 30.940064 
L 65.573 30.807873 
L 65.604 30.866818 
L 65.702167 30.963945 
L 65.738333 30.928629 
L 65.955333 30.867868 
L 65.970833 30.821079 
L 66.027667 30.882815 
L 66.069 30.851873 
L 66.125833 30.894956 
L 66.1775 30.829336 
L 66.3015 30.747941 
L 66.2085 30.887323 
L 66.311833 30.764283 
L 66.441 30.86544 
L 66.761333 30.905488 
L 66.782 30.978446 
L 66.838833 30.853497 
L 66.875 30.934757 
L 66.9525 30.926573 
L 66.988667 30.963442 
L 66.993833 30.974321 
L 67.03 30.912503 
L 67.0765 30.909435 
L 67.086833 30.872864 
L 67.097167 30.935409 
L 67.185 30.901458 
L 67.298667 30.92528 
L 67.329667 30.812885 
L 67.412333 30.912669 
L 67.438167 30.924601 
L 67.505333 30.867326 
L 67.551833 30.937742 
L 67.624167 30.884421 
L 67.949667 30.881655 
L 68.0375 30.858754 
L 67.970333 30.901526 
L 68.063333 30.886134 
L 68.259667 30.697718 
L 68.084 30.92305 
L 68.280333 30.773901 
L 68.3475 30.827076 
L 68.394 30.774651 
L 68.425 30.725904 
L 68.476667 30.80492 
L 68.5025 30.795276 
L 68.631667 30.868382 
L 68.543833 30.72285 
L 68.652333 30.836434 
L 68.693667 30.787863 
L 68.740167 30.892915 
L 68.7505 30.885107 
L 68.786667 30.922643 
L 68.833167 30.845728 
L 68.8435 30.860685 
L 68.879667 30.740966 
L 68.957167 30.813775 
L 69.0915 30.775582 
L 68.972667 30.835025 
L 69.112167 30.80174 
L 69.143167 30.767231 
L 69.231 30.78634 
L 69.349833 30.736408 
L 69.360167 30.758514 
L 69.4635 30.838116 
L 69.484167 30.810103 
L 69.5255 30.905042 
L 69.597833 30.803521 
L 69.8045 30.917454 
L 69.82 30.894823 
L 69.876833 31.022852 
L 70.000833 31.072094 
L 70.006 31.062437 
L 70.031833 31.099956 
L 70.1145 31.038625 
L 70.248833 30.904577 
L 70.254 30.907919 
L 70.372833 30.99826 
L 70.378 30.99294 
L 70.383167 31.015349 
L 70.471 30.937248 
L 70.481333 30.956037 
L 70.533 30.900292 
L 70.595 30.947758 
L 70.657 31.06805 
L 70.719 30.981126 
L 70.837833 30.871084 
L 70.843 30.884138 
L 70.868833 30.822885 
L 70.930833 30.932629 
L 70.946333 30.915749 
L 71.008333 30.980341 
L 70.967 30.897754 
L 71.054833 30.897843 
L 71.783333 30.401347 
L 71.804 30.437466 
L 71.8195 30.46636 
L 71.891833 30.400618 
L 71.9125 30.417476 
L 71.948667 30.39753 
L 72.041667 30.47343 
L 72.248333 30.312815 
L 72.320667 30.372504 
L 72.362 30.325884 
L 72.465333 30.275868 
L 72.480833 30.305126 
L 72.6255 30.467268 
L 72.754667 30.381211 
L 72.770167 30.382181 
L 72.796 30.311998 
L 72.827 30.329615 
L 72.9045 30.294947 
L 72.878667 30.362547 
L 72.9355 30.328104 
L 73.193833 30.440387 
L 73.204167 30.412062 
L 73.2765 30.357698 
L 73.317833 30.375447 
L 73.457333 30.431447 
L 73.4625 30.411313 
L 73.581333 30.352615 
L 73.658833 30.40285 
L 73.684667 30.32918 
L 73.8345 30.12301 
L 74.092833 30.173021 
L 74.170333 30.139181 
L 74.196167 30.189634 
L 74.201333 30.227212 
L 74.294333 30.161312 
L 74.2995 30.174141 
L 74.3305 30.152261 
L 74.377 30.226419 
L 74.3925 30.216433 
L 74.4855 30.316576 
L 74.511333 30.278481 
L 74.681833 30.06562 
L 74.687 30.078808 
L 74.738667 30.125235 
L 74.805833 30.091308 
L 74.878167 30.076866 
L 74.852333 30.138184 
L 74.9195 30.103978 
L 74.940167 30.090556 
L 75.069333 30.166194 
L 75.188167 30.048291 
L 75.193333 30.07384 
L 75.219167 30.127109 
L 75.270833 30.025598 
L 75.296667 30.060553 
L 75.4 29.989817 
L 75.410333 30.008918 
L 75.431 30.056679 
L 75.518833 30.007709 
L 75.668667 29.93609 
L 75.689333 29.972057 
L 75.715167 30.016836 
L 75.772 29.859586 
L 75.777167 29.858852 
L 75.896 29.875599 
L 75.9115 29.86187 
L 76.144 29.825677 
L 76.262833 29.875792 
L 76.350667 29.865261 
L 76.3145 29.80471 
L 76.366167 29.844038 
L 76.402333 29.846639 
L 76.428167 29.911323 
L 76.459167 29.903084 
L 76.603833 30.053202 
L 76.629667 30.013371 
L 76.712333 29.919966 
L 76.753667 29.97087 
L 76.908667 29.996485 
L 76.919 29.952474 
L 77.053333 29.808684 
L 77.063667 29.81505 
L 77.234167 29.884241 
L 77.3065 30.055237 
L 77.373667 30.010406 
L 77.482167 29.882957 
L 77.513167 29.947297 
L 77.5235 29.989114 
L 77.559667 29.877136 
L 77.606167 29.873807 
L 77.611333 29.851027 
L 77.688833 29.915756 
L 77.7095 29.915825 
L 77.828333 29.886983 
L 77.983333 29.79466 
L 78.060833 29.734757 
L 78.035 29.81107 
L 78.097 29.771365 
L 78.133167 29.806045 
L 78.19 29.693306 
L 78.257167 29.613287 
L 78.2985 29.686505 
L 78.432833 29.83775 
L 78.438 29.829654 
L 78.551667 29.678085 
L 78.5775 29.70112 
L 79.058 29.616388 
L 79.094167 29.662326 
L 79.0735 29.610196 
L 79.1665 29.609189 
L 79.404167 29.690189 
L 79.409333 29.67628 
L 79.502333 29.603098 
L 79.533333 29.639606 
L 79.5385 29.64689 
L 79.595333 29.560999 
L 79.610833 29.563493 
L 79.781333 29.384906 
L 79.838167 29.336636 
L 79.884667 29.420591 
L 80.0035 29.424094 
L 80.019 29.460596 
L 80.039667 29.523456 
L 80.132667 29.481546 
L 80.396167 29.302252 
L 80.401333 29.317222 
L 80.453 29.243122 
L 80.4995 29.279571 
L 80.540833 29.259924 
L 80.577 29.341607 
L 80.597667 29.328109 
L 80.8405 29.305225 
L 80.850833 29.330434 
L 80.943833 29.412373 
L 80.876667 29.312188 
L 80.974833 29.376935 
L 81.114333 29.385983 
L 81.197 29.384884 
L 81.186667 29.419195 
L 81.2125 29.422352 
L 81.279667 29.425279 
L 81.238333 29.384975 
L 81.310667 29.37808 
L 81.3365 29.380458 
L 81.377833 29.43937 
L 81.3985 29.435163 
L 81.496667 29.535767 
L 81.512167 29.466167 
L 81.6 29.467027 
L 81.610333 29.433794 
L 81.744667 29.287405 
L 81.755 29.304696 
L 81.760167 29.31387 
L 81.817 29.204385 
L 81.842833 29.157585 
L 81.904833 29.278528 
L 81.91 29.275043 
L 81.992667 29.255175 
L 81.946167 29.229761 
L 82.013333 29.238213 
L 82.214833 29.041145 
L 82.230333 29.058802 
L 82.5145 29.082793 
L 82.524833 29.049867 
L 82.6385 29.029777 
L 82.643667 29.061483 
L 82.803833 29.059878 
L 82.907167 29.053465 
L 82.834833 29.081454 
L 82.912333 29.06495 
L 82.9485 29.063087 
L 82.933 29.01208 
L 83.0105 29.025505 
L 83.062167 28.895784 
L 83.124167 28.96748 
L 83.129333 28.98644 
L 83.201667 28.886897 
L 83.217167 28.887022 
L 84.462333 28.65178 
L 84.4675 28.675577 
L 84.503667 28.577847 
L 84.565667 28.614209 
L 84.865333 28.605927 
L 84.9945 28.465339 
L 85.020333 28.495484 
L 85.077167 28.392589 
L 85.351 28.250668 
L 85.097833 28.420407 
L 85.371667 28.277423 
L 85.454333 28.330664 
L 85.418167 28.244252 
L 85.485333 28.30329 
L 85.557667 28.255618 
L 85.599 28.283428 
L 85.640333 28.287707 
L 85.671333 28.200811 
L 85.692 28.165398 
L 85.717833 28.212389 
L 85.785 28.194199 
L 85.934833 28.003176 
L 86.012333 28.078846 
L 86.053667 28.068906 
L 86.25 27.811169 
L 86.2965 27.855405 
L 86.312 27.890811 
L 86.343 27.922769 
L 86.3895 27.7918 
L 86.394667 27.80252 
L 86.399833 27.783558 
L 86.446333 27.884335 
L 86.487667 27.853194 
L 86.518667 27.944395 
L 86.611667 27.867684 
L 86.808 27.7908 
L 86.622 27.879804 
L 86.8235 27.814607 
L 86.963 27.731211 
L 87.107667 27.582507 
L 87.112833 27.589531 
L 87.123167 27.595569 
L 87.143833 27.495428 
L 87.154167 27.498472 
L 87.18 27.459783 
L 87.231667 27.522953 
L 87.262667 27.50115 
L 87.4745 27.31849 
L 87.650167 26.92828 
L 87.686333 26.844876 
L 88.0015 24.854791 
L 88.017 18.925692 
L 88.027333 10.659273 
L 88.1255 19.296883 
L 88.197833 27.371273 
L 88.327 25.955815 
L 88.399333 23.875691 
L 88.414833 12.36387 
L 88.518167 21.242767 
L 88.5595 27.944216 
L 88.6835 26.281693 
L 88.766167 23.178465 
L 88.781667 12.155767 
L 88.879833 20.615591 
L 88.9315 28.45466 
L 89.076167 26.444071 
L 89.158833 23.901571 
L 89.174333 11.867956 
L 89.277667 20.29325 
L 89.3345 28.92549 
L 89.4895 26.854842 
L 89.592833 24.182054 
L 89.608333 11.653503 
L 89.711667 19.848052 
L 89.778833 29.29022 
L 89.939 27.271232 
L 90.068167 24.408181 
L 90.088833 11.488546 
L 90.197333 20.179338 
L 90.259333 29.557044 
L 90.424667 27.617779 
L 90.579667 24.856095 
L 90.595167 16.136568 
L 90.6055 11.37777 
L 90.6985 19.107899 
L 90.776 29.755432 
L 90.941333 27.959411 
L 91.137667 24.674905 
L 91.158333 11.269889 
L 91.277167 20.64086 
L 91.328833 29.872564 
L 91.489 28.287864 
L 91.711167 25.513251 
L 91.742167 22.955662 
L 91.7525 11.233115 
L 91.850667 19.222983 
L 91.928167 29.956905 
L 92.0935 28.324006 
L 92.3725 24.55338 
L 92.393167 11.183104 
L 92.506833 20.664408 
L 92.563667 29.968314 
L 92.718667 28.500487 
L 92.940833 26.344658 
L 93.0545 24.737652 
L 93.07 15.173968 
L 93.075167 11.187196 
L 93.173333 19.645631 
L 93.2405 29.930302 
L 93.405833 28.430153 
L 93.793333 23.733055 
L 93.808833 11.160686 
L 93.907 20.163672 
L 93.969 29.831628 
L 94.124 28.428555 
L 94.423667 26.080525 
L 94.5735 24.534776 
L 94.594167 11.20432 
L 94.702667 21.4253 
L 94.749167 29.686195 
L 94.868 28.61142 
L 95.234833 26.012974 
L 95.3795 24.957251 
L 95.400167 21.928356 
L 95.4105 11.217712 
L 95.508667 20.829917 
L 95.5655 29.587809 
L 95.699833 28.322282 
L 95.978833 26.26924 
L 96.040833 26.02809 
L 96.2475 24.20785 
L 96.268167 11.212239 
L 96.366333 21.379532 
L 96.412833 29.479854 
L 96.531667 28.382853 
L 96.888167 25.969926 
L 97.089667 25.550379 
L 97.3945 26.53154 
L 97.399667 26.520282 
L 99.295833 31.717457 
L 99.4095 31.848789 
L 99.425 31.84596 
L 99.884833 32.238375 
L 99.895167 32.215961 
L 99.957167 32.175923 
L 99.941667 32.271478 
L 99.9985 32.230142 
L 100.096667 32.253248 
L 100.0605 32.200259 
L 100.112167 32.22879 
L 100.225833 32.41681 
L 100.282667 32.391568 
L 100.4635 32.30518 
L 100.479 32.331075 
L 100.5565 32.452327 
L 100.603 32.38858 
L 101.057667 32.18753 
L 101.088667 32.26553 
L 101.093833 32.298201 
L 101.181667 32.2016 
L 101.192 32.214728 
L 101.285 32.232478 
L 101.3005 32.17042 
L 101.558833 32.216821 
L 101.7035 32.305118 
L 101.801667 32.262413 
L 101.760333 32.339172 
L 101.817167 32.272972 
L 101.930833 32.353708 
L 101.967 32.302915 
L 102.1065 32.185537 
L 101.987667 32.32538 
L 102.122 32.222279 
L 102.173667 32.208205 
L 102.240833 32.277429 
L 102.4165 32.207501 
L 102.535333 32.288454 
L 102.5405 32.285548 
L 102.711 32.14865 
L 102.716167 32.154862 
L 102.845333 32.095364 
L 102.860833 32.148727 
L 103.139833 32.173655 
L 103.145 32.188587 
L 103.2225 32.110869 
L 103.227667 32.119971 
L 103.387833 31.937984 
L 103.429167 31.948532 
L 103.413667 32.007137 
L 103.4705 32.001083 
L 103.475667 32.010744 
L 103.506667 31.94285 
L 103.553167 31.930687 
L 103.703 31.800809 
L 103.951 31.764189 
L 103.976833 31.77951 
L 104.157667 31.580467 
L 104.193833 31.658933 
L 104.281667 31.620725 
L 104.323 31.533416 
L 104.4005 31.576402 
L 104.782833 31.496885 
L 104.948167 31.278614 
L 105.046333 31.209612 
L 105.1135 31.176837 
L 105.16 31.232012 
L 105.408 31.170546 
L 105.439 31.106975 
L 105.526833 31.12871 
L 105.630167 31.229875 
L 105.692167 31.174705 
L 105.78 31.164 
L 105.712833 31.215432 
L 105.800667 31.208412 
L 105.960833 31.321936 
L 105.836833 31.157062 
L 105.9815 31.286269 
L 106.110667 31.199545 
L 106.115833 31.216772 
L 106.157167 31.138769 
L 106.208833 31.147384 
L 106.312167 31.080558 
L 106.451667 31.001996 
L 106.348333 31.143264 
L 106.456833 31.008197 
L 106.487833 30.936713 
L 106.555 30.950025 
L 106.580833 30.970389 
L 106.715167 30.808631 
L 106.751333 30.863666 
L 106.797833 30.745358 
L 106.823667 30.797259 
L 106.958 30.789071 
L 106.963167 30.774898 
L 107.0665 30.79801 
L 107.076833 30.818492 
L 107.242167 30.969721 
L 107.087167 30.805555 
L 107.299 30.917806 
L 107.459167 30.889517 
L 107.464333 30.866285 
L 107.629667 30.839185 
L 107.981 30.88093 
L 107.986167 30.863336 
L 108.094667 30.84323 
L 108.0275 30.896789 
L 108.105 30.858234 
L 108.167 30.920056 
L 108.208333 30.845479 
L 108.2135 30.828347 
L 108.2755 30.929259 
L 108.301333 30.902713 
L 108.384 30.912131 
L 108.347833 30.857287 
L 108.3995 30.857432 
L 108.544167 30.780744 
L 108.549333 30.793152 
L 108.668167 30.941018 
L 108.683667 30.937013 
L 109.417333 30.861212 
L 109.432833 30.835943 
L 109.4535 30.875287 
L 109.520667 30.877879 
L 109.587833 30.929345 
L 109.618833 30.849696 
L 109.624 30.853257 
L 109.789333 30.888836 
L 109.846167 30.920015 
L 109.897833 30.866117 
L 109.928833 30.837112 
L 110.027 30.913375 
L 110.089 30.853806 
L 110.1355 30.899107 
L 110.244 30.742101 
L 110.264667 30.785204 
L 110.517833 30.935794 
L 110.5385 30.882539 
L 110.678 30.831099 
L 110.688333 30.856169 
L 110.796833 30.925841 
L 110.7245 30.802055 
L 110.812333 30.879762 
L 110.822667 30.858761 
L 110.833 30.901962 
L 110.915667 30.918428 
L 110.977667 30.956369 
L 110.936333 30.907248 
L 111.024167 30.904624 
L 111.148167 30.886717 
L 111.210167 30.926264 
L 111.2515 30.886423 
L 111.323833 30.8646 
L 111.349667 30.913289 
L 111.354833 30.912293 
L 111.4375 30.961025 
L 111.385833 30.855377 
L 111.4685 30.904547 
L 111.515 30.801813 
L 111.587333 30.854589 
L 111.706167 30.899462 
L 112.233167 30.894723 
L 112.346833 30.818129 
L 112.284833 30.9637 
L 112.357167 30.83139 
L 114.253333 30.925231 
L 114.294667 30.77772 
L 114.377333 30.823034 
L 114.496167 30.95392 
L 114.418667 30.781874 
L 114.532333 30.89849 
L 114.573667 30.789722 
L 114.646 30.878271 
L 114.651167 30.899134 
L 114.708 30.746553 
L 114.744167 30.814758 
L 114.832 30.940559 
L 114.883667 30.888252 
L 115.007667 30.832104 
L 114.894 30.896793 
L 115.012833 30.864261 
L 115.1575 30.833429 
L 115.178167 30.886025 
L 115.297 30.942282 
L 115.307333 30.932712 
L 115.5605 30.878444 
L 115.6225 30.790597 
L 115.669 30.905648 
L 115.813667 30.829526 
L 115.834333 30.805019 
L 115.953167 30.868856 
L 116.041 30.810651 
L 115.968667 30.877271 
L 116.066833 30.834164 
L 116.175333 30.927241 
L 116.196 30.91604 
L 116.32 30.798012 
L 116.325167 30.804613 
L 116.392333 30.874928 
L 116.449167 30.847667 
L 116.661 30.954155 
L 116.681667 30.960666 
L 116.790167 30.861316 
L 117.012333 30.79166 
L 117.022667 30.815108 
L 117.053667 30.901577 
L 117.105333 30.787426 
L 117.136333 30.826804 
L 117.1415 30.811615 
L 117.208667 30.911978 
L 117.2345 30.881381 
L 117.565167 30.975598 
L 117.244833 30.856341 
L 117.580667 30.921417 
L 117.632333 30.82875 
L 117.709833 30.879788 
L 117.7925 30.852041 
L 117.740833 30.851675 
L 117.808 30.833944 
L 117.968167 30.871667 
L 117.818333 30.865662 
L 117.973333 30.888068 
L 117.9785 30.902484 
L 118.030167 30.804836 
L 118.061167 30.811258 
L 118.262667 30.901994 
L 118.273 30.870893 
L 118.314333 30.839929 
L 118.386667 30.885021 
L 118.6605 30.774878 
L 118.6915 30.843042 
L 118.774167 30.790747 
L 118.8155 30.85126 
L 118.8775 30.745318 
L 118.991167 30.959994 
L 119.037667 30.925138 
L 119.1875 30.777852 
L 119.197833 30.812659 
L 119.259833 30.833412 
L 119.223667 30.763243 
L 119.290833 30.754992 
L 119.456167 30.693687 
L 119.476833 30.728672 
L 119.585333 30.85162 
L 119.606 30.830054 
L 119.719667 30.819803 
L 119.631833 30.859776 
L 119.724833 30.824027 
L 119.9005 30.970044 
L 119.771333 30.775942 
L 119.916 30.944483 
L 120.0245 30.845354 
L 119.9315 30.96562 
L 120.060667 30.876392 
L 120.189833 30.924789 
L 120.205333 30.881619 
L 120.267333 30.935229 
L 120.324167 30.843789 
L 120.3345 30.862631 
L 120.386167 30.752441 
L 120.401667 30.766429 
L 120.448167 30.697318 
L 120.505 30.792525 
L 120.567 30.837297 
L 120.623833 30.803208 
L 120.696167 30.800254 
L 120.722 30.850961 
L 120.8305 30.750906 
L 120.887333 30.721581 
L 120.933833 30.791845 
L 121.125 30.905144 
L 121.2335 30.799068 
L 121.274833 30.882983 
L 121.321333 30.916969 
L 121.383333 30.864314 
L 121.424667 30.901715 
L 121.4505 30.824411 
L 121.497 30.847433 
L 121.807 30.801458 
L 121.869 30.761362 
L 121.936167 30.822203 
L 122.055 30.771914 
L 122.184167 30.700522 
L 122.189333 30.725678 
L 122.235833 30.762908 
L 122.277167 30.684011 
L 122.297833 30.702202 
L 122.478667 30.919466 
L 122.489 30.886511 
L 122.5355 30.90424 
L 122.499333 30.878199 
L 122.5665 30.83917 
L 122.6905 30.746483 
L 122.809333 30.625055 
L 122.861 30.551058 
L 122.923 30.600788 
L 123.047 30.57202 
L 123.052167 30.603446 
L 123.098667 30.668262 
L 123.1245 30.58172 
L 123.160667 30.583741 
L 124.0545 30.498652 
L 124.080333 30.464399 
L 124.106167 30.545848 
L 124.152667 30.551947 
L 124.225 30.641884 
L 124.276667 30.533676 
L 124.287 30.482616 
L 124.343833 30.633532 
L 124.369667 30.628581 
L 124.374833 30.637049 
L 124.374833 30.637049 
" style="fill:none;stroke:#000000;stroke-linecap:square;stroke-width:0.3;"/>
   </g>
   <g id="line2d_2">
    <path clip-path="url(#p230645d430)" d="M 12.78 48.933514 
L 12.816167 45.784054 
L 12.831667 35.05194 
L 12.924667 46.196092 
L 12.966 54.288763 
L 13.053833 53.969902 
L 13.580833 49.502012 
L 13.658333 46.782254 
L 13.673833 34.977988 
L 13.766833 46.347254 
L 13.823667 54.382557 
L 13.896 54.094002 
L 14.030333 53.456119 
L 14.417833 50.591623 
L 14.614167 48.390232 
L 14.634833 45.072463 
L 14.650333 34.915017 
L 14.738167 46.644353 
L 14.784667 54.48529 
L 14.862167 54.23992 
L 14.867333 54.244546 
L 14.893167 54.149492 
L 15.812833 48.925084 
L 15.859333 47.390546 
L 15.885167 34.998477 
L 15.962667 46.319716 
L 16.009167 54.487004 
L 16.097 54.285616 
L 16.582667 52.296105 
L 17.528167 48.46307 
L 17.564333 46.291454 
L 17.585 35.282049 
L 17.6625 49.94087 
L 17.729667 54.381325 
L 17.781333 54.163249 
L 18.256667 52.191531 
L 18.473667 51.247951 
L 19.176333 49.66255 
L 19.2435 49.637145 
L 19.207333 49.605366 
L 19.253833 49.613527 
L 19.3055 49.53256 
L 19.362333 49.59648 
L 19.377833 49.564568 
L 19.486333 49.610374 
L 19.610333 49.490681 
L 19.620667 49.497445 
L 19.796333 49.378794 
L 19.91 49.408992 
L 19.915167 49.398926 
L 20.152833 49.062697 
L 20.168333 49.076064 
L 20.2975 49.009863 
L 20.6075 49.282997 
L 20.612667 49.270446 
L 20.6695 49.367568 
L 20.690167 49.37349 
L 20.747 49.387289 
L 20.721167 49.434141 
L 20.752167 49.439153 
L 20.9175 51.471833 
L 21.108667 52.981373 
L 21.325667 53.45321 
L 21.527167 53.822302 
L 21.5375 53.792265 
L 21.547833 53.782021 
L 21.604667 53.882206 
L 21.718333 53.946826 
L 21.7235 53.927936 
L 21.733833 53.904383 
L 21.811333 54.007871 
L 21.987 54.214328 
L 21.997333 54.160345 
L 22.085167 54.253358 
L 22.090333 54.232594 
L 22.193667 54.248866 
L 22.111 54.204197 
L 22.214333 54.235562 
L 22.7155 54.263005 
L 22.782667 54.260081 
L 22.736167 54.285805 
L 22.818833 54.297955 
L 22.844667 54.341956 
L 22.984167 54.306209 
L 23.072 54.246351 
L 23.097833 54.301996 
L 23.103 54.304404 
L 23.134 54.217502 
L 23.144333 54.210058 
L 23.175333 54.155901 
L 23.2425 54.251844 
L 23.247667 54.246979 
L 23.345833 54.326706 
L 23.268333 54.237496 
L 23.387167 54.297946 
L 23.573167 54.321427 
L 23.578333 54.334815 
L 23.5835 54.347234 
L 23.619667 54.27683 
L 23.661 54.261098 
L 23.790167 54.19249 
L 23.8005 54.208783 
L 23.867667 54.214626 
L 23.841833 54.177059 
L 23.903833 54.198326 
L 23.9555 54.109622 
L 24.0175 54.192642 
L 24.095 54.283845 
L 24.027833 54.189647 
L 24.136333 54.209661 
L 24.208667 54.206171 
L 24.182833 54.169115 
L 24.229333 54.15433 
L 24.239667 54.181948 
L 24.379167 54.192034 
L 24.549667 54.247627 
L 24.394667 54.161998 
L 24.565167 54.207406 
L 24.751167 54.100888 
L 24.782167 54.203968 
L 24.859667 54.096402 
L 25.019833 53.966492 
L 24.87 54.118231 
L 25.066333 54.028478 
L 25.2265 54.233481 
L 25.2885 54.302168 
L 25.2575 54.205065 
L 25.329833 54.214337 
L 25.479667 54.172278 
L 25.3505 54.250475 
L 25.484833 54.194406 
L 25.5985 54.259051 
L 25.619167 54.235884 
L 26.027333 54.175635 
L 26.0325 54.206568 
L 26.151333 54.257087 
L 26.161667 54.213543 
L 26.2805 54.099092 
L 26.285667 54.107215 
L 26.616333 54.09176 
L 26.631833 54.033809 
L 26.719667 54.155009 
L 26.828167 54.219335 
L 26.833333 54.233991 
L 26.895333 54.093481 
L 26.905667 54.107084 
L 27.009 54.120278 
L 27.0245 54.169498 
L 27.107167 54.197728 
L 27.0865 54.130736 
L 27.138167 54.172665 
L 27.200167 54.204297 
L 27.257 54.177051 
L 27.319 54.139193 
L 27.355167 54.220324 
L 27.3655 54.239466 
L 27.437833 54.136984 
L 27.448167 54.151253 
L 27.546333 54.082086 
L 27.468833 54.171392 
L 27.572167 54.117002 
L 27.670333 54.161534 
L 27.701333 54.135353 
L 27.742667 54.162829 
L 27.840833 54.030113 
L 27.851167 54.079102 
L 27.933833 53.957332 
L 27.9545 54.011922 
L 28.042333 53.988172 
L 28.192167 53.986104 
L 28.052667 54.011093 
L 28.197333 54.004495 
L 28.305833 54.119733 
L 28.321333 54.095418 
L 28.445333 54.147888 
L 28.4815 54.163549 
L 28.528 54.086043 
L 28.548667 54.113708 
L 28.672667 54.113525 
L 28.683 54.096153 
L 28.755333 53.95639 
L 28.817333 54.009493 
L 29.065333 54.138257 
L 29.080833 54.100455 
L 29.091167 54.081733 
L 29.122167 54.205539 
L 29.1635 54.27179 
L 29.204833 54.179288 
L 29.235833 54.203015 
L 29.9385 54.108105 
L 30.036667 54.246542 
L 30.0625 54.232466 
L 30.181333 54.189836 
L 30.2795 54.233127 
L 30.300167 54.197192 
L 30.470667 54.153913 
L 30.481 54.201677 
L 30.537833 54.074744 
L 30.568833 54.101325 
L 30.656667 54.037001 
L 30.6825 54.091862 
L 30.785833 54.003092 
L 30.791 53.980901 
L 30.863333 54.134098 
L 30.997667 54.241596 
L 31.137167 54.162538 
L 31.142333 54.174873 
L 31.183667 54.15748 
L 31.266333 54.209243 
L 31.3645 54.09532 
L 31.3025 54.219546 
L 31.390333 54.127143 
L 31.6125 54.063473 
L 31.628 54.090293 
L 31.762333 54.277294 
L 31.9225 54.105696 
L 31.927667 54.092799 
L 32 54.182936 
L 32.010333 54.167295 
L 32.134333 54.189305 
L 32.191167 54.233442 
L 32.258333 54.044227 
L 32.397833 54.081911 
L 32.516667 54.189226 
L 32.532167 54.173921 
L 32.640667 54.159232 
L 32.5425 54.180854 
L 32.645833 54.170298 
L 32.7905 54.279488 
L 32.800833 54.258849 
L 32.8835 54.10244 
L 32.919667 54.174143 
L 33.121167 54.147824 
L 33.126333 54.113357 
L 33.167667 54.035127 
L 33.245167 54.097349 
L 33.322667 54.111135 
L 33.2865 54.038363 
L 33.3485 54.057388 
L 33.5035 54.180899 
L 33.374333 54.0296 
L 33.519 54.1628 
L 33.55 54.163656 
L 33.586167 54.251194 
L 33.591333 54.238726 
L 33.612 54.306157 
L 33.6895 54.160561 
L 33.7205 54.07133 
L 33.803167 54.146525 
L 33.932333 54.174603 
L 33.9375 54.155886 
L 34.056333 54.102231 
L 33.958167 54.184571 
L 34.0615 54.111944 
L 34.159667 54.091272 
L 34.077 54.138451 
L 34.190667 54.123198 
L 34.273333 54.12838 
L 34.232 54.051151 
L 34.288833 54.083193 
L 34.423167 54.007886 
L 34.5265 54.085122 
L 34.5575 54.032651 
L 34.769333 54.161041 
L 34.779667 54.147084 
L 34.893333 54.009401 
L 34.9295 54.075107 
L 35.017333 54.19086 
L 35.048333 54.126242 
L 35.187833 54.22177 
L 35.3015 54.132815 
L 35.218833 54.254721 
L 35.322167 54.159733 
L 35.451333 54.282503 
L 35.461667 54.279076 
L 35.6115 54.111847 
L 35.627 54.118115 
L 35.7355 54.219388 
L 35.6735 54.080667 
L 35.7665 54.176806 
L 35.926667 54.004801 
L 35.9525 54.042253 
L 35.999 54.144772 
L 36.055833 54.01188 
L 36.061 54.027944 
L 36.128167 53.9656 
L 36.210833 54.16586 
L 36.748167 54.081968 
L 36.810167 54.037885 
L 36.830833 54.1502 
L 36.836 54.148355 
L 36.980667 54.439527 
L 37.053 54.36488 
L 37.156333 54.31464 
L 37.182167 54.350287 
L 37.187333 54.372027 
L 37.213167 54.29955 
L 37.290667 54.334846 
L 37.342333 54.274356 
L 37.3785 54.379794 
L 37.399167 54.36107 
L 37.456 54.357051 
L 37.435333 54.287356 
L 37.481833 54.291776 
L 37.518 54.217749 
L 37.58 54.355826 
L 37.714333 54.260972 
L 37.605833 54.382807 
L 37.729833 54.270287 
L 37.833167 54.397728 
L 37.859 54.352855 
L 37.952 54.332758 
L 37.89 54.400852 
L 37.972667 54.365502 
L 38.329167 54.296443 
L 38.417 54.330349 
L 38.442833 54.284428 
L 38.458333 54.258013 
L 38.479 54.321391 
L 38.546167 54.329666 
L 38.6805 54.405955 
L 38.701167 54.379782 
L 38.752833 54.29715 
L 38.830333 54.330105 
L 38.8975 54.35979 
L 38.851 54.300533 
L 38.944 54.323153 
L 39.016333 54.270005 
L 38.964667 54.354005 
L 39.057667 54.32306 
L 39.155833 54.399823 
L 39.0835 54.294945 
L 39.181667 54.320881 
L 39.259167 54.377826 
L 39.310833 54.269526 
L 39.321167 54.248493 
L 39.352167 54.324739 
L 39.3935 54.34155 
L 39.925667 54.299576 
L 40.0135 54.386383 
L 40.039333 54.3269 
L 40.184 54.259869 
L 40.204667 54.28537 
L 40.225333 54.249642 
L 40.3235 54.307048 
L 40.395833 54.245948 
L 40.442333 54.256646 
L 40.576667 54.341004 
L 40.452667 54.243515 
L 40.607667 54.303478 
L 40.654167 54.275583 
L 40.638667 54.331188 
L 40.711 54.33491 
L 40.731667 54.378767 
L 40.778167 54.289411 
L 40.809167 54.288251 
L 40.938333 54.246373 
L 41.139833 54.189285 
L 40.9745 54.320404 
L 41.165667 54.242054 
L 41.238 54.38048 
L 41.294833 54.353912 
L 41.4395 54.277957 
L 41.465333 54.238964 
L 41.548 54.241146 
L 41.661667 54.171269 
L 41.5635 54.270285 
L 41.666833 54.198236 
L 41.775333 54.321395 
L 41.790833 54.278791 
L 42.410833 54.208107 
L 42.4315 54.203394 
L 42.534833 54.296147 
L 42.715667 54.355501 
L 42.545167 54.279533 
L 42.726 54.296769 
L 43.273667 54.26241 
L 43.397667 54.35776 
L 43.532 54.241826 
L 43.6095 54.20299 
L 43.666333 54.287009 
L 43.898833 54.205666 
L 43.909167 54.244093 
L 44.0125 54.189447 
L 44.1055 54.183391 
L 44.0745 54.228647 
L 44.126167 54.19696 
L 44.3225 54.269904 
L 44.141667 54.160726 
L 44.343167 54.215988 
L 44.348333 54.206992 
L 44.410333 54.288018 
L 44.425833 54.274018 
L 44.4465 54.244062 
L 44.544667 54.290759 
L 44.622167 54.254438 
L 44.5705 54.306826 
L 44.658333 54.2846 
L 44.7255 54.295042 
L 44.751333 54.228105 
L 44.8805 54.181915 
L 45.014833 54.305141 
L 45.02 54.290136 
L 45.278333 54.179455 
L 45.361 54.25203 
L 45.397167 54.197429 
L 45.541833 54.291935 
L 45.557333 54.258326 
L 45.6865 54.21763 
L 45.805333 54.284127 
L 45.95 54.232581 
L 45.955167 54.246811 
L 45.986167 54.31967 
L 46.0585 54.234659 
L 46.063667 54.221348 
L 46.1205 54.342021 
L 46.1515 54.294625 
L 46.234167 54.33074 
L 46.26 54.274022 
L 46.384 54.170106 
L 46.725 54.222997 
L 46.838667 54.113932 
L 46.869667 54.127011 
L 47.102167 53.962181 
L 47.107333 53.98167 
L 47.226167 54.032106 
L 47.2365 54.019833 
L 47.7945 53.953234 
L 47.908167 53.940188 
L 47.804833 53.924513 
L 47.913333 53.895381 
L 48.052833 53.796109 
L 48.233667 53.916249 
L 48.238833 53.887043 
L 48.378333 53.740823 
L 48.455833 53.630954 
L 48.512667 53.682692 
L 48.595333 53.757716 
L 48.636667 53.708455 
L 48.807167 53.579811 
L 48.833 53.615725 
L 48.838167 53.63166 
L 48.889833 53.557449 
L 48.936333 53.58762 
L 49.086167 53.462824 
L 48.946667 53.59572 
L 49.0965 53.469408 
L 49.106833 53.513657 
L 49.174 53.321849 
L 49.179167 53.322968 
L 49.329 53.18667 
L 49.334167 53.197637 
L 49.432333 53.201189 
L 49.354833 53.182047 
L 49.447833 53.189405 
L 49.535667 53.044252 
L 49.582167 53.081437 
L 49.649333 53.092174 
L 49.613167 53.130124 
L 49.664833 53.140173 
L 49.675167 53.214436 
L 49.7785 53.156508 
L 49.928333 53.049837 
L 50.0575 53.144157 
L 49.954167 53.038625 
L 50.067833 53.128437 
L 50.233167 52.971628 
L 50.269333 53.045286 
L 50.357167 52.976624 
L 50.713667 52.861851 
L 50.775667 52.978835 
L 50.8325 52.867358 
L 51.023667 52.548629 
L 51.034 52.553897 
L 51.059833 52.574735 
L 51.096 52.48449 
L 51.132167 52.51269 
L 51.349167 52.405384 
L 51.354333 52.414981 
L 51.3595 52.431799 
L 51.3905 52.33621 
L 51.431833 52.332866 
L 51.499 52.30049 
L 51.473167 52.372108 
L 51.5455 52.324372 
L 51.586833 52.426506 
L 51.664333 52.382705 
L 52.217167 52.060758 
L 52.305 52.129277 
L 52.330833 52.094118 
L 52.341167 52.052062 
L 52.434167 52.135474 
L 52.956 51.745982 
L 52.961167 51.758371 
L 52.9715 51.792335 
L 53.0335 51.659833 
L 53.266 51.516395 
L 53.271167 51.547145 
L 53.328 51.591619 
L 53.3745 51.500492 
L 53.5295 51.306212 
L 53.410667 51.511189 
L 53.534667 51.308334 
L 53.648333 51.485692 
L 53.663833 51.468689 
L 53.7155 51.525391 
L 53.767167 51.438056 
L 53.787833 51.386627 
L 53.880833 51.424407 
L 54.066833 51.437858 
L 54.092667 51.497221 
L 54.1805 51.451399 
L 54.289 51.401988 
L 54.294167 51.368287 
L 54.423333 51.309598 
L 54.444 51.268503 
L 54.511167 51.267323 
L 54.650667 51.101062 
L 54.826333 51.06224 
L 54.8315 51.071671 
L 55.337833 50.880728 
L 55.467 50.698907 
L 55.472167 50.729703 
L 55.5755 50.743331 
L 55.585833 50.713494 
L 55.6995 50.649136 
L 55.709833 50.653443 
L 55.844167 50.545807 
L 55.8545 50.58775 
L 55.926833 50.590905 
L 55.952667 50.545576 
L 56.123167 50.364666 
L 56.236833 50.400425 
L 56.262667 50.36466 
L 56.738 49.655888 
L 56.991167 48.085097 
L 57.011833 44.075313 
L 57.027333 34.853497 
L 57.115167 50.693803 
L 57.151333 53.774081 
L 57.234 53.283889 
L 57.394167 51.603046 
L 57.595667 47.580251 
L 57.616333 34.849953 
L 57.709333 45.106158 
L 57.761 54.102778 
L 57.874667 53.455623 
L 58.0555 51.645126 
L 58.251833 47.089765 
L 58.267333 35.016667 
L 58.3655 45.638795 
L 58.412 54.121218 
L 58.510167 53.620655 
L 58.908 48.806076 
L 58.933833 47.081745 
L 58.949333 35.086458 
L 59.042333 45.272315 
L 59.088833 54.176658 
L 59.2025 53.638086 
L 59.362667 52.377907 
L 59.662333 47.690112 
L 59.683 35.028894 
L 59.776 45.784594 
L 59.827667 54.275699 
L 59.9155 53.903699 
L 60.0085 53.380368 
L 60.437333 49.169824 
L 60.489 46.596515 
L 60.5045 34.962456 
L 60.5975 46.297303 
L 60.649167 54.367807 
L 60.726667 54.070541 
L 60.850667 53.491662 
L 61.041833 52.267741 
L 61.460333 48.044397 
L 61.481 37.063052 
L 61.486167 35.011691 
L 61.568833 45.217419 
L 61.625667 54.421937 
L 61.729 54.096129 
L 62.194 51.658963 
L 62.524667 49.514394 
L 62.648667 47.944851 
L 62.669333 37.963092 
L 62.679667 35.020906 
L 62.757167 46.272755 
L 62.808833 54.458901 
L 62.8915 54.193674 
L 63.031 53.687969 
L 63.2945 52.515685 
L 63.320333 52.397926 
L 64.2555 48.167759 
L 64.281333 44.739935 
L 64.302 35.439924 
L 64.3795 51.59281 
L 64.420833 54.311068 
L 64.498333 54.070118 
L 64.5035 54.074414 
L 64.519 53.978029 
L 64.777333 52.813932 
L 65.009833 51.745012 
L 65.257833 50.562435 
L 65.263 50.574406 
L 65.319833 50.330351 
L 65.474833 49.868744 
L 65.48 49.875095 
L 65.733167 49.075288 
L 65.852 47.902597 
L 65.872667 43.371767 
L 65.888167 35.422783 
L 65.970833 52.266273 
L 66.012167 54.355545 
L 66.089667 54.130574 
L 66.094833 54.144535 
L 66.136167 53.945708 
L 67.117833 50.417267 
L 67.402 50.030845 
L 67.407167 50.03883 
L 67.412333 50.044754 
L 67.438167 49.96616 
L 67.458833 49.953497 
L 67.577667 49.827032 
L 67.588 49.845873 
L 67.670667 49.9103 
L 67.608667 49.811686 
L 67.722333 49.881362 
L 67.872167 49.748964 
L 67.877333 49.786127 
L 67.9445 49.946072 
L 68.016833 49.906346 
L 68.084 49.865132 
L 68.135667 49.897079 
L 68.631667 50.277791 
L 68.6575 50.240074 
L 68.7195 50.331073 
L 68.745333 50.294658 
L 68.807333 50.485455 
L 69.003667 53.301993 
L 69.008833 53.294278 
L 69.034667 53.39988 
L 69.039833 53.400482 
L 69.189667 53.740473 
L 69.437667 54.099183 
L 69.453167 54.067206 
L 69.468667 54.050588 
L 69.535833 54.145606 
L 69.706333 54.241812 
L 69.876833 54.232968 
L 69.887167 54.251089 
L 69.938833 54.274576 
L 69.980167 54.185183 
L 69.9905 54.213969 
L 70.460667 54.210835 
L 70.481333 54.124183 
L 70.564 54.264629 
L 70.667333 54.255231 
L 70.6105 54.203538 
L 70.6725 54.232627 
L 70.837833 54.135627 
L 70.698333 54.256221 
L 70.853333 54.163466 
L 70.956667 54.314504 
L 70.987667 54.278172 
L 70.992833 54.283856 
L 71.039333 54.182717 
L 71.054833 54.187081 
L 71.375167 54.305149 
L 71.401 54.222372 
L 71.4165 54.201952 
L 71.473333 54.261852 
L 71.5095 54.239579 
L 71.6645 54.2304 
L 71.7575 54.181684 
L 71.778167 54.240713 
L 71.9435 54.282867 
L 71.959 54.247399 
L 72.243167 54.197117 
L 72.336167 54.114958 
L 72.367167 54.159387 
L 72.382667 54.139134 
L 72.4395 54.24492 
L 73.736333 54.104432 
L 73.870667 54.009441 
L 73.979167 54.160391 
L 74.010167 54.125456 
L 74.015333 54.090872 
L 74.103167 54.233889 
L 74.123833 54.24738 
L 74.273667 54.10571 
L 74.573333 54.079063 
L 74.619833 54.050586 
L 74.656 54.115216 
L 74.676667 54.113924 
L 74.712833 54.171876 
L 74.7955 54.102771 
L 74.929833 54.208926 
L 74.940167 54.197345 
L 75.307 54.070121 
L 75.369 54.047502 
L 75.4 54.129949 
L 75.591167 54.360445 
L 75.735833 54.26997 
L 75.741 54.291091 
L 76.361 54.242064 
L 76.402333 54.254879 
L 76.433333 54.207258 
L 76.464333 54.226765 
L 76.603833 54.104346 
L 76.609 54.12893 
L 76.64 54.142938 
L 76.681333 54.049066 
L 76.702 54.059897 
L 76.712333 54.050621 
L 76.764 54.162168 
L 76.769167 54.164582 
L 76.862167 54.165282 
L 76.820833 54.118786 
L 76.8725 54.126379 
L 77.017167 54.050612 
L 77.0275 54.080848 
L 77.1515 54.158978 
L 77.291 54.06624 
L 77.296167 54.036617 
L 77.358167 54.101432 
L 77.394333 54.093092 
L 77.781833 54.121103 
L 77.8025 54.072655 
L 77.849 54.168795 
L 77.885167 54.126321 
L 78.0195 54.244698 
L 78.122833 54.132473 
L 78.138333 54.151657 
L 78.303667 54.161439 
L 78.314 54.119818 
L 78.3295 54.06223 
L 78.381167 54.180732 
L 78.4225 54.130711 
L 78.629167 53.963353 
L 78.644667 53.989253 
L 78.680833 53.951965 
L 78.8255 54.124333 
L 78.830667 54.093991 
L 78.903 54.242972 
L 78.913333 54.229088 
L 78.928833 54.280043 
L 78.985667 54.213307 
L 79.027 54.23486 
L 79.171667 54.032941 
L 79.037333 54.260202 
L 79.233667 54.100939 
L 79.249167 54.141992 
L 79.326667 54.04295 
L 79.337 54.04707 
L 79.3835 54.023987 
L 79.43 54.118917 
L 79.435167 54.12783 
L 79.4765 54.048787 
L 79.517833 54.053928 
L 79.657333 54.144415 
L 79.791667 54.267441 
L 79.802 54.250937 
L 79.920833 54.158435 
L 79.926 54.173445 
L 79.962167 54.092684 
L 80.05 54.176771 
L 80.163667 54.144157 
L 80.168833 54.123444 
L 80.246333 54.074481 
L 80.2825 54.121414 
L 80.292833 54.160559 
L 80.385833 54.07181 
L 80.706167 54.189574 
L 80.7165 54.168198 
L 80.866333 54.098657 
L 80.8715 54.105679 
L 80.912833 54.146531 
L 80.974833 54.075692 
L 81.424333 54.20742 
L 81.4295 54.190502 
L 81.481167 54.126901 
L 81.501833 54.240908 
L 81.538 54.192114 
L 81.656833 54.311829 
L 81.687833 54.291564 
L 82.168333 54.096021 
L 82.199333 54.014531 
L 82.338833 54.166268 
L 82.431833 54.083487 
L 82.4525 54.109899 
L 82.524833 54.243206 
L 82.581667 54.159417 
L 82.679833 54.09905 
L 82.612667 54.179792 
L 82.710833 54.122414 
L 82.819333 54.147785 
L 82.752167 54.08184 
L 82.8245 54.138198 
L 82.953667 54.036721 
L 82.958833 54.055131 
L 83.020833 54.135085 
L 83.062167 54.017893 
L 83.1035 53.983827 
L 83.160333 54.041812 
L 83.315333 54.19437 
L 83.398 54.160656 
L 83.423833 54.213039 
L 83.4445 54.153435 
L 83.532333 54.209743 
L 83.666667 54.167803 
L 84.136833 54.021697 
L 84.142 54.033647 
L 84.286667 54.155275 
L 84.426167 54.154238 
L 84.431333 54.174663 
L 84.694833 54.094494 
L 84.818833 54.027718 
L 84.942833 53.966126 
L 84.844667 54.053863 
L 84.948 53.982764 
L 85.113333 54.162471 
L 85.1185 54.152354 
L 85.325167 54.089853 
L 85.418167 54.132606 
L 85.500833 54.226181 
L 85.531833 54.146344 
L 85.640333 54.062128 
L 85.6765 54.105279 
L 85.7385 54.152824 
L 85.790167 54.065306 
L 85.847 54.006246 
L 85.888333 54.099212 
L 85.903833 54.177636 
L 86.007167 54.10292 
L 86.890667 54.207944 
L 86.973333 54.250107 
L 86.999167 54.226124 
L 87.128333 54.181405 
L 87.1335 54.197559 
L 87.185167 54.116931 
L 87.221333 54.107596 
L 87.407333 54.157924 
L 87.526167 54.169572 
L 87.531333 54.163241 
L 87.5985 54.122461 
L 87.614 54.098365 
L 87.7225 54.006034 
L 87.639833 54.105829 
L 87.738 54.029201 
L 87.9395 54.236424 
L 87.980833 54.191179 
L 88.042833 54.244708 
L 88.130667 54.425892 
L 88.177167 54.337438 
L 88.2805 54.289871 
L 88.239167 54.409277 
L 88.290833 54.326294 
L 88.3425 54.426823 
L 88.414833 54.307904 
L 88.647333 54.333351 
L 88.657667 54.304512 
L 88.755833 54.287213 
L 88.73 54.341284 
L 88.766167 54.29641 
L 88.8385 54.333297 
L 88.781667 54.281878 
L 88.874667 54.30795 
L 88.957333 54.306452 
L 88.916 54.364348 
L 88.978 54.34091 
L 89.1175 54.346399 
L 89.127833 54.316439 
L 89.138167 54.275726 
L 89.220833 54.341256 
L 89.2415 54.31865 
L 89.339667 54.379055 
L 89.375833 54.327343 
L 89.639333 54.286367 
L 89.701333 54.409528 
L 89.763333 54.353318 
L 89.773667 54.33338 
L 89.8305 54.400388 
L 89.871833 54.364649 
L 89.980333 54.367028 
L 89.995833 54.318482 
L 90.088833 54.228705 
L 90.135333 54.28128 
L 90.269667 54.35593 
L 90.378167 54.330162 
L 90.3885 54.294242 
L 90.398833 54.245159 
L 90.455667 54.311136 
L 90.497 54.309867 
L 90.584833 54.286102 
L 90.6055 54.32522 
L 90.621 54.380279 
L 90.703667 54.256653 
L 90.827667 54.323021 
L 90.7295 54.242377 
L 90.832833 54.320076 
L 90.941333 54.271948 
L 90.951667 54.291054 
L 90.982667 54.236303 
L 91.049833 54.264985 
L 91.168667 54.130657 
L 91.179 54.173293 
L 91.334 54.245883 
L 91.452833 54.346834 
L 91.494167 54.304077 
L 91.602667 54.240939 
L 91.607833 54.261679 
L 91.654333 54.306759 
L 91.700833 54.223055 
L 91.711167 54.223578 
L 92.222667 54.324374 
L 92.233 54.285618 
L 92.362167 54.209407 
L 92.517167 54.3218 
L 92.563667 54.251209 
L 92.641167 54.222815 
L 92.579167 54.266409 
L 92.667 54.241077 
L 92.6825 54.293282 
L 92.749667 54.158181 
L 92.7755 54.235232 
L 92.946 54.178941 
L 92.9615 54.202585 
L 93.2715 54.245977 
L 93.354167 54.23788 
L 93.3025 54.276598 
L 93.374833 54.274369 
L 93.436833 54.305131 
L 93.483333 54.25172 
L 93.5505 54.322302 
L 93.648667 54.170463 
L 93.710667 54.237227 
L 93.757167 54.163367 
L 93.8915 54.250123 
L 93.777833 54.148014 
L 93.896667 54.239269 
L 93.9225 54.309322 
L 93.974167 54.294236 
L 94.025833 54.376228 
L 94.087833 54.313017 
L 94.217 54.206428 
L 94.242833 54.224496 
L 94.330667 54.250209 
L 94.253167 54.2168 
L 94.351333 54.208123 
L 94.413333 54.181056 
L 94.392667 54.267986 
L 94.4495 54.256149 
L 94.470167 54.23112 
L 94.578667 54.251332 
L 94.723333 54.272764 
L 94.940333 54.313661 
L 94.950667 54.281948 
L 95.250333 54.224247 
L 95.312333 54.233822 
L 95.343333 54.168735 
L 95.353667 54.195967 
L 95.3795 54.155191 
L 95.420833 54.273869 
L 95.451833 54.220435 
L 95.5345 54.295294 
L 95.570667 54.287155 
L 95.648167 54.369082 
L 95.591333 54.267323 
L 95.6895 54.30587 
L 95.8135 54.216716 
L 95.834167 54.229796 
L 95.896167 54.252009 
L 95.849667 54.212485 
L 95.947833 54.210119 
L 96.0615 54.160382 
L 96.0305 54.24656 
L 96.071833 54.196429 
L 96.3715 54.173526 
L 96.376667 54.158639 
L 96.423167 54.25662 
L 96.459333 54.218294 
L 96.536833 54.341754 
L 96.578167 54.314076 
L 96.593667 54.262542 
L 96.6195 54.339856 
L 96.697 54.291398 
L 96.722833 54.234536 
L 96.815833 54.297741 
L 96.934667 54.261335 
L 97.043167 54.207356 
L 97.063833 54.220468 
L 97.249833 54.124113 
L 97.255 54.141064 
L 97.3325 54.205278 
L 97.373833 54.186435 
L 97.379 54.175265 
L 97.4255 54.272371 
L 97.4565 54.259637 
L 97.466833 54.275479 
L 97.534 54.189459 
L 97.668333 54.051201 
L 97.6735 54.058652 
L 97.740667 54.12647 
L 97.787167 54.08967 
L 98.1385 53.912995 
L 98.164333 53.972102 
L 98.226333 54.01486 
L 98.267667 53.923898 
L 98.4175 53.874893 
L 98.5105 53.798837 
L 98.536333 53.819809 
L 98.593167 53.906282 
L 98.655167 53.897695 
L 98.794667 53.799503 
L 98.9445 53.671364 
L 98.96 53.697115 
L 99.001333 53.759597 
L 99.078833 53.738324 
L 99.2855 53.501285 
L 99.3785 53.48585 
L 99.383667 53.454291 
L 99.487 53.424128 
L 99.497333 53.445883 
L 99.786667 53.407055 
L 99.900333 53.372761 
L 99.817667 53.439228 
L 99.9055 53.400988 
L 100.0295 53.340848 
L 100.1845 53.237631 
L 100.938833 52.966013 
L 100.964667 53.03889 
L 101.047333 53.101128 
L 100.975 53.02563 
L 101.088667 53.036393 
L 101.2075 53.047306 
L 101.217833 53.028024 
L 101.228167 52.979196 
L 101.3315 53.015605 
L 101.3625 52.93932 
L 101.383167 52.926461 
L 101.512333 52.821378 
L 101.414167 52.949054 
L 101.522667 52.848919 
L 101.600167 52.816967 
L 101.615667 52.778754 
L 101.631167 52.796378 
L 101.75 52.774662 
L 101.755167 52.805056 
L 101.848167 52.712873 
L 101.961833 52.591461 
L 101.987667 52.611271 
L 101.992833 52.630198 
L 102.034167 52.51079 
L 102.080667 52.54584 
L 102.282167 52.314594 
L 102.287333 52.326571 
L 102.3855 52.316262 
L 102.318333 52.242649 
L 102.390667 52.301902 
L 102.494 52.170932 
L 102.514667 52.19418 
L 102.581833 52.176512 
L 102.545667 52.142281 
L 102.607667 52.143357 
L 102.8505 51.887182 
L 102.6335 52.193954 
L 102.855667 51.908142 
L 103.584167 51.532583 
L 103.604833 51.598291 
L 103.672 51.68363 
L 103.723667 51.598573 
L 103.858 51.505925 
L 103.956167 51.423901 
L 103.9045 51.546476 
L 103.992333 51.444819 
L 104.044 51.402819 
L 104.0595 51.357015 
L 104.173167 51.257286 
L 104.188667 51.272305 
L 104.204167 51.253148 
L 104.390167 51.400952 
L 104.498667 51.352923 
L 104.457333 51.426618 
L 104.509 51.370683 
L 104.5245 51.400253 
L 104.5555 51.304033 
L 104.607167 51.322171 
L 104.720833 51.277645 
L 104.736333 51.297487 
L 104.7415 51.309705 
L 104.8035 51.172919 
L 104.819 51.211787 
L 104.943 51.090674 
L 104.881 51.232862 
L 104.9585 51.133628 
L 104.9895 51.17514 
L 105.0515 51.075374 
L 105.056667 51.086486 
L 105.666333 50.72198 
L 105.676667 50.745711 
L 105.749 50.621784 
L 105.759333 50.631293 
L 105.816167 50.587613 
L 105.893667 50.695867 
L 106.053833 50.416654 
L 106.064167 50.419467 
L 106.162333 50.387746 
L 106.121 50.481292 
L 106.177833 50.427152 
L 106.699667 49.790237 
L 106.921833 49.009659 
L 106.9735 48.321198 
L 106.999333 45.628277 
L 107.02 34.849233 
L 107.102667 49.826267 
L 107.144 53.657438 
L 107.2215 53.175523 
L 107.433333 50.777749 
L 107.557333 48.17767 
L 107.583167 34.853191 
L 107.681333 45.62421 
L 107.727833 54.02432 
L 107.826 53.466268 
L 108.1515 49.317041 
L 108.198 47.334599 
L 108.2135 35.144591 
L 108.311667 45.53525 
L 108.358167 54.046849 
L 108.456333 53.46974 
L 108.683667 50.986827 
L 108.838667 47.506787 
L 108.859333 35.171714 
L 108.952333 45.621854 
L 108.998833 54.092782 
L 109.097 53.565774 
L 109.458667 49.463252 
L 109.520667 47.210049 
L 109.536167 35.162848 
L 109.629167 45.292411 
L 109.680833 54.193145 
L 109.789333 53.633298 
L 109.866833 53.14251 
L 110.1975 49.61584 
L 110.280167 47.225894 
L 110.300833 35.096684 
L 110.388667 45.62041 
L 110.440333 54.285683 
L 110.533333 53.896399 
L 110.574667 53.686454 
L 111.0965 49.107708 
L 111.143 47.649523 
L 111.163667 35.014249 
L 111.256667 46.766662 
L 111.298 54.367392 
L 111.380667 54.111229 
L 111.8715 51.039296 
L 112.166 48.209659 
L 112.186667 42.345279 
L 112.197 35.005807 
L 112.29 49.398184 
L 112.331333 54.415277 
L 112.408833 54.180812 
L 112.465667 53.971899 
L 112.780833 52.462734 
L 112.786 52.46563 
L 112.806667 52.377066 
L 113.0185 51.020751 
L 113.225167 50.005003 
L 113.437 47.961362 
L 113.457667 39.638312 
L 113.468 35.017144 
L 113.550667 48.116647 
L 113.6075 54.435734 
L 113.6695 54.245275 
L 115.023167 49.574211 
L 115.028333 49.59504 
L 115.891167 49.309071 
L 115.979 49.340435 
L 115.922167 49.262413 
L 116.004833 49.308826 
L 116.165 49.315073 
L 116.175333 49.268007 
L 116.216667 49.256558 
L 116.258 49.311636 
L 116.278667 49.292039 
L 116.3355 49.362052 
L 116.382 49.259111 
L 116.407833 49.229075 
L 116.4285 49.321123 
L 116.464667 49.324559 
L 116.485333 49.347847 
L 116.547333 49.248387 
L 116.557667 49.268209 
L 116.712667 49.08863 
L 116.717833 49.096477 
L 116.743667 49.024895 
L 116.785 49.00933 
L 117.002 47.301847 
L 117.033 35.891208 
L 117.095 47.24144 
L 117.157 54.229758 
L 117.224167 54.041078 
L 117.725333 51.565007 
L 117.751167 51.450761 
L 118.185167 50.195099 
L 118.200667 50.21586 
L 118.329833 50.134974 
L 118.340167 50.175002 
L 118.391833 50.306613 
L 118.583 52.822595 
L 118.748333 53.22936 
L 118.805167 53.393246 
L 119.017 53.817844 
L 119.027333 53.792908 
L 119.042833 53.775406 
L 119.11 53.854946 
L 119.141 53.820922 
L 119.244333 53.909566 
L 119.445833 54.153886 
L 119.451 54.149314 
L 119.518167 54.134845 
L 119.482 54.168512 
L 119.544 54.192769 
L 119.637 54.278983 
L 119.595667 54.154289 
L 119.673167 54.265858 
L 119.6835 54.273413 
L 119.735167 54.202942 
L 119.755833 54.211083 
L 119.802333 54.169423 
L 119.859167 54.252405 
L 119.864333 54.230931 
L 119.978 54.273599 
L 119.998667 54.238288 
L 120.009 54.20989 
L 120.076167 54.337302 
L 120.102 54.28352 
L 120.164 54.328959 
L 120.127833 54.245465 
L 120.205333 54.261469 
L 120.2415 54.224903 
L 120.3035 54.307571 
L 120.308667 54.291918 
L 120.794333 54.273484 
L 120.815 54.330475 
L 120.8615 54.197287 
L 120.887333 54.230381 
L 120.944167 54.172253 
L 120.990667 54.261597 
L 121.936167 54.173021 
L 121.972333 54.12843 
L 122.003333 54.189594 
L 122.044667 54.180382 
L 122.1945 54.288589 
L 122.21 54.231516 
L 122.251333 54.290755 
L 122.323667 54.261468 
L 122.432167 54.339596 
L 122.458 54.319249 
L 122.633667 54.173364 
L 122.747333 54.229383 
L 122.6595 54.160117 
L 122.757667 54.224216 
L 122.799 54.172795 
L 122.871333 54.207471 
L 123.0315 54.2627 
L 123.145167 54.126351 
L 123.047 54.284839 
L 123.165833 54.140224 
L 123.181333 54.188826 
L 123.238167 54.105575 
L 123.269167 54.129956 
L 123.305333 54.095968 
L 123.367333 54.185635 
L 123.444833 54.277603 
L 123.486167 54.234925 
L 123.708333 54.089218 
L 123.7135 54.092961 
L 123.816833 54.102682 
L 123.7755 54.056098 
L 123.827167 54.080049 
L 123.832333 54.056878 
L 123.894333 54.229381 
L 123.909833 54.217189 
L 124.126833 54.030239 
L 124.157833 54.115659 
L 124.281833 54.274032 
L 124.297333 54.242776 
L 124.3335 54.169807 
L 124.374833 54.223987 
" style="fill:none;stroke:#000000;stroke-linecap:square;stroke-width:0.3;"/>
   </g>
   <g id="line2d_3">
    <path clip-path="url(#p230645d430)" d="M 12.78 76.651582 
L 12.898833 76.480305 
L 12.9195 76.503067 
L 13.121 76.482454 
L 13.245 76.582663 
L 13.270833 76.572884 
L 13.451667 76.39632 
L 13.498167 76.409047 
L 13.544667 76.347311 
L 13.549833 76.352486 
L 13.854667 76.340394 
L 13.859833 76.320975 
L 13.865 76.300608 
L 13.9115 76.394169 
L 13.963167 76.358867 
L 14.149167 76.130268 
L 14.1595 76.165825 
L 14.226667 76.276726 
L 14.2835 76.197079 
L 14.309333 76.176138 
L 14.293833 76.168706 
L 14.33 76.096872 
L 14.505667 75.871028 
L 14.516 75.877947 
L 14.521167 75.909516 
L 14.603833 75.780249 
L 14.609 75.799411 
L 14.665833 75.638533 
L 14.727833 75.715649 
L 14.877667 75.808818 
L 15.079167 75.676742 
L 15.130833 75.715831 
L 15.167 75.61905 
L 15.187667 75.654523 
L 15.270333 75.61834 
L 15.311667 75.714391 
L 15.4925 75.618432 
L 15.6165 75.741218 
L 15.642333 75.70608 
L 15.781833 75.584672 
L 15.8025 75.647612 
L 15.807667 75.663127 
L 15.88 75.581099 
L 15.890333 75.58163 
L 15.911 75.5339 
L 15.9265 75.607797 
L 16.004 75.57663 
L 16.1745 75.467858 
L 16.035 75.602064 
L 16.195167 75.483657 
L 16.396667 75.513638 
L 16.401833 75.505649 
L 16.427667 75.45948 
L 16.489667 75.572387 
L 16.525833 75.609117 
L 16.582667 75.5312 
L 16.593 75.553641 
L 16.6395 75.57896 
L 16.737667 75.456981 
L 16.742833 75.477751 
L 16.815167 75.334838 
L 16.8255 75.299225 
L 16.897833 75.386357 
L 16.913333 75.385385 
L 16.954667 75.401567 
L 16.990833 75.318879 
L 17.109667 75.220812 
L 17.125167 75.251867 
L 17.3525 75.090014 
L 17.378333 75.101424 
L 17.492 74.964704 
L 17.543667 74.942034 
L 17.610833 74.996796 
L 17.709 74.946257 
L 17.7245 74.966671 
L 17.771 75.010853 
L 17.843333 74.976148 
L 17.967333 74.900234 
L 18.0035 74.976041 
L 18.075833 74.877564 
L 18.205 74.76455 
L 18.308333 74.773749 
L 18.267 74.830656 
L 18.3135 74.780513 
L 18.365167 74.794621 
L 18.391 74.730341 
L 18.411667 74.736001 
L 18.447833 74.712843 
L 18.4995 74.772966 
L 18.515 74.757858 
L 18.597667 74.720422 
L 18.540833 74.715548 
L 18.608 74.69832 
L 18.876667 74.601637 
L 18.985167 74.636543 
L 18.9955 74.5992 
L 19.093667 74.579544 
L 19.005833 74.631243 
L 19.124667 74.618639 
L 19.222833 74.66619 
L 19.2435 74.632823 
L 19.414 74.465962 
L 19.4605 74.509659 
L 19.5535 74.483453 
L 19.527667 74.444391 
L 19.558667 74.465856 
L 19.698167 74.389193 
L 19.91 74.253151 
L 19.7395 74.441561 
L 19.915167 74.259188 
L 19.992667 74.320013 
L 20.013333 74.224934 
L 20.1735 74.104993 
L 20.189 74.1156 
L 20.256167 74.043174 
L 20.2665 74.045792 
L 20.276833 74.060596 
L 20.690167 73.578428 
L 20.809 72.806474 
L 20.845167 71.317449 
L 20.865833 57.994868 
L 20.964 67.241858 
L 21.036333 73.712374 
L 21.1655 73.180642 
L 21.336 71.993426 
L 21.356667 70.42198 
L 21.372167 59.97117 
L 21.465167 69.293954 
L 21.501333 74.081436 
L 21.604667 73.489691 
L 21.795833 71.480158 
L 21.8165 59.834476 
L 21.914667 69.324768 
L 21.950833 74.524601 
L 22.054167 73.791712 
L 22.255667 71.292959 
L 22.276333 59.454529 
L 22.3745 69.067784 
L 22.410667 75.033645 
L 22.519167 74.155904 
L 22.731 72.031586 
L 22.7465 69.926319 
L 22.762 59.168584 
L 22.855 68.137543 
L 22.9015 75.462806 
L 23.041 74.301276 
L 23.154667 73.446209 
L 23.2735 71.19742 
L 23.289 58.896018 
L 23.392333 68.276832 
L 23.438833 75.780493 
L 23.573167 74.660073 
L 23.852167 71.198375 
L 23.867667 58.726787 
L 23.971 68.124321 
L 24.022667 75.974637 
L 24.162167 74.834102 
L 24.456667 72.452263 
L 24.4825 69.336306 
L 24.492833 58.631143 
L 24.591 67.717988 
L 24.647833 76.108497 
L 24.797667 74.883563 
L 24.890667 74.252883 
L 25.128333 72.564377 
L 25.159333 70.14426 
L 25.174833 58.592793 
L 25.267833 67.697104 
L 25.324667 76.142259 
L 25.4745 74.984509 
L 25.856833 72.176234 
L 25.872333 70.412501 
L 25.887833 58.521135 
L 25.980833 67.697473 
L 26.037667 76.179971 
L 26.1875 75.033696 
L 26.471667 73.468984 
L 26.554333 73.027731 
L 26.6215 71.799166 
L 26.642167 58.480125 
L 26.750667 68.83287 
L 26.792 76.164183 
L 26.905667 75.339961 
L 27.220833 73.551746 
L 27.226 73.554038 
L 27.412 72.070658 
L 27.4275 69.016496 
L 27.437833 58.424296 
L 27.536 68.070569 
L 27.587667 76.130536 
L 27.727167 75.096722 
L 28.026833 73.550961 
L 28.032 73.552174 
L 28.037167 73.560309 
L 28.068167 73.41699 
L 28.187 72.830528 
L 28.238667 71.178641 
L 28.254167 58.431046 
L 28.3575 68.549655 
L 28.404 76.088841 
L 28.528 75.18115 
L 28.832833 73.636204 
L 28.838 73.638352 
L 28.858667 73.546362 
L 28.863833 73.542507 
L 29.065333 72.07155 
L 29.080833 69.375116 
L 29.091167 58.426106 
L 29.189333 68.162903 
L 29.241 76.054733 
L 29.375333 75.04037 
L 29.675 73.57698 
L 29.809333 73.068075 
L 29.897167 72.353248 
L 29.917833 70.842716 
L 29.933333 58.387026 
L 30.0315 68.385052 
L 30.078 76.004127 
L 30.207167 75.063724 
L 30.6205 73.266198 
L 30.708333 72.980101 
L 30.7755 71.721857 
L 30.796167 58.407289 
L 30.904667 69.358833 
L 30.946 75.970459 
L 31.044167 75.227027 
L 31.297333 73.885534 
L 31.369667 73.560317 
L 31.597 72.497888 
L 31.628 70.072769 
L 31.6435 58.40098 
L 31.7365 68.109904 
L 31.788167 75.976864 
L 31.9225 75.022238 
L 32.155 73.84338 
L 32.501167 71.57168 
L 32.521833 58.351918 
L 32.625167 68.981946 
L 32.6665 75.928414 
L 32.775 75.137784 
L 33.085 73.652058 
L 33.353667 72.017992 
L 33.369167 69.075977 
L 33.3795 58.393364 
L 33.477667 68.291649 
L 33.524167 75.944948 
L 33.6585 74.974019 
L 33.9685 73.631909 
L 33.9995 73.508072 
L 34.2475 72.134684 
L 34.268167 66.52378 
L 34.2785 58.349784 
L 34.376667 68.519987 
L 34.418 75.876531 
L 34.547167 74.992215 
L 34.795167 73.797901 
L 35.131 72.053847 
L 35.1465 69.426407 
L 35.156833 58.405988 
L 35.255 68.201723 
L 35.3015 75.916785 
L 35.435833 74.963341 
L 35.776833 73.529442 
L 35.782 73.543976 
L 35.8595 73.445267 
L 36.081667 72.404838 
L 36.1075 70.537938 
L 36.123 58.313603 
L 36.221167 68.592846 
L 36.267667 75.785805 
L 36.3865 74.8925 
L 36.799833 73.366135 
L 36.805 73.373622 
L 36.815333 73.337445 
L 36.9755 76.513059 
L 37.016833 76.726759 
L 37.419833 78.570819 
L 37.476667 78.808698 
L 37.631667 79.148944 
L 37.647167 79.104701 
L 37.724667 79.252581 
L 37.931333 79.47428 
L 38.008833 79.466268 
L 37.977833 79.504805 
L 38.0295 79.514647 
L 38.1535 79.632806 
L 38.169 79.613486 
L 38.231 79.555141 
L 38.282667 79.609131 
L 38.396333 79.669684 
L 38.360167 79.564235 
L 38.406667 79.661986 
L 38.437667 79.720611 
L 38.4945 79.69788 
L 38.566833 79.748069 
L 38.592667 79.663652 
L 38.603 79.691323 
L 39.507167 79.758134 
L 39.522667 79.818552 
L 39.6105 79.742323 
L 39.615667 79.749248 
L 39.646667 79.766128 
L 39.667333 79.692392 
L 39.713833 79.699962 
L 39.791333 79.653385 
L 39.75 79.728285 
L 39.822333 79.700329 
L 39.874 79.801283 
L 39.936 79.731206 
L 40.023833 79.671944 
L 40.054833 79.705309 
L 40.204667 79.742061 
L 40.235667 79.721 
L 40.282167 79.776531 
L 40.313167 79.766882 
L 40.339 79.826684 
L 40.380333 79.722016 
L 40.411333 79.723518 
L 40.426833 79.74762 
L 40.592167 79.662403 
L 40.711 79.712544 
L 40.716167 79.709013 
L 40.8195 79.608835 
L 40.845333 79.672404 
L 40.933167 79.760119 
L 40.984833 79.733304 
L 41.124333 79.622255 
L 41.139833 79.638877 
L 41.2535 79.777294 
L 41.294833 79.736394 
L 41.3155 79.696673 
L 41.382667 79.68519 
L 41.517 79.569682 
L 41.589333 79.635723 
L 41.6875 79.714744 
L 41.604833 79.631858 
L 41.713333 79.680925 
L 41.821833 79.645635 
L 41.734 79.720542 
L 41.832167 79.671265 
L 41.951 79.6446 
L 41.852833 79.644847 
L 41.956167 79.634802 
L 41.992333 79.59496 
L 42.0595 79.654821 
L 42.199 79.785289 
L 42.235167 79.75666 
L 42.374667 79.633239 
L 42.379833 79.64052 
L 42.591667 79.771515 
L 42.390167 79.624901 
L 42.602 79.75977 
L 42.726 79.659601 
L 42.731167 79.666581 
L 42.8035 79.744863 
L 42.844833 79.697118 
L 42.881 79.740584 
L 42.943 79.661783 
L 43.025667 79.631657 
L 42.984333 79.675748 
L 43.056667 79.652906 
L 43.154833 79.705983 
L 43.072167 79.638605 
L 43.180667 79.647252 
L 43.2995 79.618127 
L 43.366667 79.584621 
L 43.408 79.665416 
L 43.526833 79.686679 
L 43.444167 79.645684 
L 43.532 79.67934 
L 43.8265 79.640282 
L 43.883333 79.716484 
L 43.940167 79.679073 
L 44.141667 79.659471 
L 44.152 79.682547 
L 44.239833 79.752055 
L 44.1675 79.669904 
L 44.270833 79.724342 
L 44.394833 79.610173 
L 44.2915 79.763001 
L 44.420667 79.635953 
L 44.467167 79.730776 
L 44.5395 79.694465 
L 44.565333 79.60648 
L 44.658333 79.67404 
L 44.7875 79.741123 
L 44.803 79.698078 
L 44.9735 79.614187 
L 45.0355 79.601947 
L 45.0665 79.674335 
L 45.0975 79.739095 
L 45.169833 79.658686 
L 45.185333 79.661826 
L 45.288667 79.612733 
L 45.324833 79.676031 
L 45.443667 79.610381 
L 45.464333 79.627483 
L 45.495333 79.560868 
L 45.547 79.582956 
L 46.611333 79.577804 
L 46.673333 79.577701 
L 46.714667 79.619064 
L 46.849 79.596134 
L 46.745667 79.551749 
L 46.854167 79.579933 
L 46.973 79.596121 
L 47.107333 79.674944 
L 46.9885 79.572629 
L 47.1125 79.661623 
L 47.200333 79.690949 
L 47.2055 79.715434 
L 47.210667 79.724691 
L 47.277833 79.621455 
L 47.365667 79.496327 
L 47.417333 79.537324 
L 47.525833 79.544095 
L 47.438 79.49053 
L 47.536167 79.526753 
L 47.556833 79.512881 
L 47.629167 79.577011 
L 47.722167 79.596806 
L 47.6395 79.57158 
L 47.742833 79.579969 
L 47.846167 79.595148 
L 47.779 79.641406 
L 47.851333 79.614295 
L 47.872 79.669966 
L 47.928833 79.58658 
L 47.959833 79.5935 
L 48.078667 79.542735 
L 48.109667 79.575307 
L 48.089 79.528524 
L 48.161333 79.481463 
L 48.285333 79.446801 
L 48.342167 79.527886 
L 48.393833 79.425445 
L 48.641833 79.351308 
L 48.760667 79.311306 
L 48.771 79.317146 
L 48.962167 79.458423 
L 48.802 79.27266 
L 48.977667 79.432446 
L 49.0035 79.358958 
L 49.0965 79.394351 
L 49.117167 79.421911 
L 49.184333 79.306261 
L 49.1895 79.3276 
L 49.194667 79.315008 
L 49.261833 79.413022 
L 49.287667 79.370986 
L 49.385833 79.402864 
L 49.323833 79.339142 
L 49.416833 79.385132 
L 49.587333 79.311296 
L 49.757833 79.399659 
L 49.597667 79.290898 
L 49.794 79.337865 
L 49.9025 79.240263 
L 49.918 79.287913 
L 49.959333 79.313451 
L 50.016167 79.24272 
L 50.021333 79.250304 
L 50.486333 79.26562 
L 50.496667 79.304396 
L 50.579333 79.220891 
L 50.594833 79.259432 
L 50.7085 79.303147 
L 50.610333 79.222833 
L 50.7395 79.238948 
L 50.904833 79.071305 
L 50.775667 79.258161 
L 50.915167 79.089067 
L 51.044333 79.07801 
L 51.0495 79.105558 
L 51.132167 79.080834 
L 51.070167 79.085115 
L 51.1425 79.061571 
L 51.194167 79.036486 
L 51.1735 79.07876 
L 51.2355 79.101676 
L 51.276833 79.144593 
L 51.307833 79.072596 
L 51.338833 79.080269 
L 51.5455 79.006698 
L 51.550667 79.031801 
L 51.571333 79.077819 
L 51.6385 78.963671 
L 51.643667 78.978146 
L 51.7005 78.872074 
L 51.767667 78.906635 
L 51.803833 78.884113 
L 51.891667 78.933917 
L 51.943333 78.855548 
L 52.015667 78.910016 
L 52.279167 79.088418 
L 52.294667 79.068361 
L 52.325667 79.103303 
L 52.4135 79.020462 
L 52.418667 79.042781 
L 52.449667 78.939823 
L 52.5065 78.933451 
L 52.6615 78.769039 
L 52.666667 78.782316 
L 52.682167 78.78493 
L 52.697667 78.707253 
L 52.7235 78.692219 
L 52.801 78.711068 
L 52.780333 78.748144 
L 52.8165 78.72333 
L 52.8475 78.764789 
L 52.9095 78.659098 
L 52.914667 78.622326 
L 52.966333 78.73723 
L 53.018 78.671438 
L 53.105833 78.666999 
L 53.0335 78.695874 
L 53.116167 78.699833 
L 53.229833 78.786744 
L 53.136833 78.683418 
L 53.235 78.778374 
L 53.483 78.522146 
L 53.545 78.610834 
L 53.607 78.666708 
L 53.658667 78.583907 
L 53.782667 78.490197 
L 53.793 78.494495 
L 53.803333 78.464885 
L 53.8395 78.547928 
L 53.880833 78.540606 
L 53.896333 78.577678 
L 53.984167 78.502171 
L 54.113333 78.514415 
L 54.1185 78.525425 
L 54.216667 78.569941 
L 54.159833 78.452061 
L 54.227 78.520478 
L 54.3355 78.473932 
L 54.263167 78.549655 
L 54.340667 78.484134 
L 54.356167 78.522645 
L 54.418167 78.438912 
L 54.438833 78.457179 
L 54.449167 78.429739 
L 54.511167 78.561212 
L 54.531833 78.526763 
L 54.537 78.55076 
L 54.619667 78.445999 
L 54.624833 78.450355 
L 54.7385 78.419952 
L 54.748833 78.45165 
L 54.754 78.47932 
L 54.836667 78.352631 
L 54.841833 78.355427 
L 55.167333 78.114637 
L 54.872833 78.40648 
L 55.188 78.15614 
L 55.193167 78.162987 
L 55.2345 78.048564 
L 55.379167 77.927547 
L 55.384333 77.948587 
L 55.777 77.804899 
L 55.782167 77.795178 
L 55.833833 77.911493 
L 55.8855 77.938045 
L 55.926833 77.846631 
L 55.932 77.850601 
L 55.973333 77.949574 
L 56.0715 77.966774 
L 56.081833 77.935301 
L 56.087 77.893226 
L 56.1335 77.962868 
L 56.190333 77.939301 
L 56.298833 77.841861 
L 56.324667 77.895637 
L 56.329833 77.923317 
L 56.422833 77.817394 
L 56.433167 77.829693 
L 56.500333 77.752223 
L 56.546833 77.711536 
L 56.577833 77.780337 
L 56.614 77.749155 
L 56.825833 77.546471 
L 56.867167 77.597743 
L 56.872333 77.609992 
L 56.929167 77.462499 
L 57.068667 77.413712 
L 57.089333 77.447481 
L 57.1565 77.339175 
L 57.213333 77.283218 
L 57.177167 77.357361 
L 57.275333 77.303583 
L 57.332167 77.34984 
L 57.363167 77.266833 
L 57.389 77.288369 
L 57.518167 77.216176 
L 57.549167 77.207033 
L 57.569833 77.297077 
L 57.600833 77.284893 
L 57.7145 77.288053 
L 57.626667 77.227482 
L 57.724833 77.254975 
L 57.8695 77.181881 
L 57.7455 77.309778 
L 57.879833 77.219975 
L 57.9315 77.245334 
L 57.910833 77.196073 
L 57.988333 77.215503 
L 58.112333 77.122255 
L 58.1175 77.141365 
L 58.174333 77.112745 
L 58.215667 77.190202 
L 58.3655 76.959545 
L 58.406833 77.107453 
L 58.494667 77.125439 
L 58.432667 77.085618 
L 58.515333 77.084982 
L 58.649667 76.864859 
L 58.691 76.923098 
L 58.732333 76.900749 
L 58.809833 76.984435 
L 58.835667 77.064117 
L 58.928667 77.01252 
L 59.0165 76.981755 
L 59.026833 76.947656 
L 59.130167 76.842182 
L 59.150833 76.902883 
L 59.181833 76.920666 
L 59.218 76.817029 
L 59.243833 76.835611 
L 59.3575 76.77467 
L 59.362667 76.809358 
L 59.507333 76.726555 
L 59.610667 76.563531 
L 59.5435 76.733043 
L 59.641667 76.581296 
L 59.801833 76.376543 
L 59.807 76.384265 
L 60.173833 76.213496 
L 60.179 76.234241 
L 60.292667 76.230051 
L 60.297833 76.206962 
L 60.354667 76.301623 
L 60.396 76.233375 
L 60.4425 76.289525 
L 60.478667 76.182207 
L 60.489 76.183406 
L 60.525167 76.159179 
L 60.5665 76.277022 
L 60.582 76.251839 
L 60.6595 76.295058 
L 60.700833 76.238665 
L 60.8145 76.132254 
L 60.83 76.17968 
L 60.928167 76.2521 
L 60.8765 76.153225 
L 60.948833 76.209727 
L 61.041833 76.048989 
L 61.0935 76.080828 
L 61.956333 75.755929 
L 61.982167 75.771896 
L 62.121667 75.680211 
L 62.746833 75.551416 
L 62.814 75.649593 
L 62.855333 75.533288 
L 63.940333 75.238096 
L 64.074667 75.038355 
L 64.090167 75.058955 
L 64.209 75.134048 
L 64.250333 75.076159 
L 64.2555 75.053323 
L 64.3175 75.140852 
L 64.3485 75.129261 
L 64.467333 75.185426 
L 64.436333 75.097147 
L 64.4725 75.175367 
L 64.5345 75.106166 
L 64.5965 75.138428 
L 64.643 75.1756 
L 64.6585 75.225198 
L 64.777333 75.37881 
L 64.668833 75.20517 
L 64.818667 75.330976 
L 64.885833 75.296548 
L 64.9375 75.348711 
L 64.947833 75.368951 
L 65.004667 75.300921 
L 65.040833 75.307929 
L 65.423167 75.150542 
L 65.449 75.060683 
L 65.542 75.091304 
L 65.6505 75.088031 
L 65.655667 75.07524 
L 65.676333 75.032597 
L 65.748667 75.115482 
L 65.753833 75.115504 
L 65.759 75.123575 
L 65.8055 75.012777 
L 65.903667 74.884206 
L 65.826167 75.01849 
L 65.9295 74.909489 
L 66.001833 74.928859 
L 65.955333 74.833519 
L 66.032833 74.892763 
L 66.1465 74.831003 
L 66.156833 74.848659 
L 66.182667 74.820635 
L 66.306667 74.864855 
L 66.368667 74.820678 
L 66.41 74.871131 
L 66.461667 74.925601 
L 66.4875 74.852846 
L 66.528833 74.912313 
L 66.570167 74.976105 
L 66.652833 74.926842 
L 66.776833 74.805536 
L 66.802667 74.824074 
L 66.807833 74.834927 
L 66.854333 74.744954 
L 66.885333 74.763339 
L 66.957667 74.711942 
L 66.988667 74.766113 
L 67.0455 74.805437 
L 67.092 74.736363 
L 67.856667 74.146275 
L 67.1075 74.761167 
L 67.887667 74.197791 
L 67.892833 74.209118 
L 67.929 74.094878 
L 67.96 74.103763 
L 68.078833 73.992636 
L 68.094333 74.011519 
L 68.27 74.118664 
L 68.280333 74.083251 
L 68.466333 73.800856 
L 68.4715 73.824645 
L 68.543833 73.673963 
L 68.786667 72.142816 
L 68.802167 69.341664 
L 68.817667 57.993345 
L 68.910667 66.931319 
L 68.988167 73.652274 
L 69.107 73.203163 
L 69.287833 71.389195 
L 69.3085 60.171121 
L 69.406667 69.792097 
L 69.437667 74.040046 
L 69.535833 73.48303 
L 69.727 71.483565 
L 69.747667 59.871952 
L 69.845833 69.341245 
L 69.882 74.528854 
L 69.985333 73.785474 
L 70.181667 71.303499 
L 70.202333 59.450199 
L 70.3005 69.057369 
L 70.336667 75.012434 
L 70.445167 74.172723 
L 70.667333 71.111095 
L 70.682833 59.132939 
L 70.781 68.216209 
L 70.8275 75.472096 
L 70.961833 74.335289 
L 71.178833 72.326458 
L 71.1995 70.602081 
L 71.215 58.892593 
L 71.313167 68.079002 
L 71.364833 75.776302 
L 71.504333 74.603471 
L 71.778167 71.218975 
L 71.793667 58.731441 
L 71.897 68.159082 
L 71.948667 75.960933 
L 72.088167 74.81862 
L 72.393 71.735331 
L 72.413667 58.611269 
L 72.522167 68.56087 
L 72.568667 76.121745 
L 72.692667 75.136069 
L 73.064667 72.26206 
L 73.085333 68.488173 
L 73.095667 58.53 
L 73.193833 67.85068 
L 73.2455 76.159152 
L 73.395333 75.009308 
L 73.808667 71.122764 
L 73.824167 58.498037 
L 73.922333 67.960793 
L 73.974 76.140709 
L 74.118667 75.051693 
L 74.521667 72.678317 
L 74.557833 71.233718 
L 74.573333 58.469126 
L 74.676667 68.309863 
L 74.728333 76.182252 
L 74.8575 75.182365 
L 75.281167 73.060805 
L 75.358667 71.802459 
L 75.3845 58.482129 
L 75.487833 69.0219 
L 75.529167 76.095308 
L 75.637667 75.282473 
L 76.169833 71.885445 
L 76.185333 65.375966 
L 76.195667 58.428748 
L 76.293833 68.405478 
L 76.340333 76.07209 
L 76.4695 75.107995 
L 76.764 73.644039 
L 76.975833 72.502848 
L 77.006833 69.386784 
L 77.017167 58.419016 
L 77.115333 68.100237 
L 77.161833 76.063438 
L 77.301333 75.063018 
L 77.818 72.487955 
L 77.843833 71.209285 
L 77.8645 58.455365 
L 77.962667 68.619482 
L 78.004 76.022386 
L 78.128 75.143871 
L 78.210667 74.616331 
L 78.696333 71.894828 
L 78.711833 66.186484 
L 78.722167 58.385116 
L 78.820333 68.453686 
L 78.866833 75.996702 
L 78.996 75.062839 
L 79.311167 73.611999 
L 79.5695 71.967046 
L 79.585 67.993616 
L 79.595333 58.361716 
L 79.6935 68.389072 
L 79.74 75.965301 
L 79.869167 75.008516 
L 80.329 73.178107 
L 80.385833 72.896177 
L 80.447833 71.041566 
L 80.463333 58.366469 
L 80.5615 68.242401 
L 80.608 75.955857 
L 80.742333 74.991524 
L 81.331333 72.02028 
L 81.346833 69.140824 
L 81.357167 58.376513 
L 81.455333 68.293772 
L 81.501833 75.906231 
L 81.631 74.964645 
L 82.0185 73.378093 
L 82.152833 72.913979 
L 82.214833 71.897525 
L 82.230333 66.487023 
L 82.240667 58.355693 
L 82.338833 68.518289 
L 82.385333 75.904264 
L 82.509333 74.970691 
L 83.093167 71.924165 
L 83.108667 66.833402 
L 83.119 58.337315 
L 83.217167 68.454697 
L 83.268833 75.90903 
L 83.387667 75.019964 
L 83.573667 73.998947 
L 83.578833 74.008078 
L 84.018 72.04256 
L 84.0335 69.758013 
L 84.049 58.377886 
L 84.142 68.306394 
L 84.193667 75.818081 
L 84.317667 74.873058 
L 84.942833 72.112552 
L 84.958333 70.376338 
L 84.973833 58.332459 
L 85.066833 68.157714 
L 85.1185 75.784008 
L 85.247667 74.845217 
L 85.826333 72.078511 
L 85.841833 70.06528 
L 85.857333 58.350434 
L 85.950333 68.129589 
L 85.996833 75.858107 
L 86.136333 74.857494 
L 86.229333 74.32937 
L 86.487667 73.502512 
L 86.740833 72.853171 
L 86.802833 71.627143 
L 86.8235 58.33831 
L 86.926833 68.998717 
L 86.968167 75.739971 
L 87.076667 74.935009 
L 87.3195 73.736489 
L 87.696667 72.573687 
L 87.732833 70.281724 
L 87.748333 58.348062 
L 87.841333 68.274308 
L 87.887833 75.734759 
L 88.027333 75.008463 
L 88.0325 75.048779 
L 88.115167 74.83049 
L 88.177167 74.744722 
L 88.239167 74.788189 
L 89.200167 78.898023 
L 89.375833 79.1809 
L 89.381 79.170337 
L 89.437833 79.158874 
L 89.474 79.253752 
L 89.592833 79.414101 
L 89.603167 79.395499 
L 89.711667 79.520468 
L 89.825333 79.591348 
L 89.773667 79.508484 
L 89.8305 79.590315 
L 89.8615 79.653069 
L 89.944167 79.575018 
L 90.088833 79.743211 
L 90.197333 79.692721 
L 90.2025 79.701978 
L 90.3265 79.844727 
L 90.362667 79.753081 
L 90.398833 79.802392 
L 90.455667 79.780747 
L 90.476333 79.839302 
L 90.528 79.726049 
L 90.553833 79.726965 
L 90.621 79.698344 
L 90.641667 79.76236 
L 90.6675 79.725411 
L 90.6985 79.766006 
L 90.745 79.671723 
L 90.765667 79.681783 
L 90.817333 79.612503 
L 90.874167 79.697379 
L 91.385667 79.765462 
L 91.390833 79.724276 
L 91.4425 79.699679 
L 91.401167 79.736941 
L 91.5045 79.71481 
L 91.525167 79.784918 
L 91.561333 79.694485 
L 91.607833 79.69564 
L 91.716333 79.637589 
L 91.6285 79.718558 
L 91.737 79.682568 
L 91.819667 79.734439 
L 91.850667 79.682058 
L 91.9695 79.662762 
L 91.871333 79.708838 
L 91.974667 79.676924 
L 92.021167 79.606049 
L 92.088333 79.690736 
L 92.196833 79.642513 
L 92.222667 79.660831 
L 92.424167 79.71849 
L 92.429333 79.706196 
L 92.501667 79.737158 
L 92.543 79.699639 
L 93.008 79.678801 
L 93.049333 79.749704 
L 93.1165 79.674504 
L 93.188833 79.684553 
L 93.157833 79.728132 
L 93.2095 79.731095 
L 93.3025 79.724743 
L 93.219833 79.699928 
L 93.323167 79.687357 
L 93.354167 79.633016 
L 93.421333 79.72989 
L 93.524667 79.730847 
L 93.529833 79.706639 
L 93.5505 79.653397 
L 93.622833 79.769862 
L 93.633167 79.749142 
L 93.726167 79.792307 
L 93.679667 79.692778 
L 93.7365 79.738317 
L 93.746833 79.697565 
L 93.777833 79.761378 
L 93.839833 79.748766 
L 93.870833 79.767663 
L 93.9225 79.662785 
L 94.020667 79.593566 
L 93.932833 79.674799 
L 94.036167 79.682227 
L 94.206667 79.73628 
L 94.217 79.725785 
L 94.434 79.644846 
L 94.439167 79.651243 
L 94.552833 79.695384 
L 94.454667 79.645802 
L 94.558 79.69241 
L 94.599333 79.688955 
L 94.6355 79.771153 
L 94.640667 79.764371 
L 94.6975 79.770361 
L 94.6665 79.730204 
L 94.738833 79.703615 
L 94.837 79.642554 
L 94.775 79.720616 
L 94.857667 79.65675 
L 94.955833 79.701902 
L 94.909333 79.611956 
L 94.971333 79.694533 
L 95.074667 79.666501 
L 95.090167 79.63787 
L 95.141833 79.560023 
L 95.203833 79.627377 
L 95.312333 79.651674 
L 95.2555 79.568888 
L 95.322667 79.637197 
L 95.327833 79.611051 
L 95.369167 79.720525 
L 95.420833 79.707714 
L 95.431167 79.749342 
L 95.5035 79.63452 
L 95.519 79.672699 
L 95.591333 79.742357 
L 95.6585 79.606509 
L 95.792833 79.669685 
L 95.798 79.646853 
L 95.885833 79.735207 
L 95.891 79.713704 
L 95.947833 79.724228 
L 95.9685 79.634667 
L 95.973667 79.651093 
L 96.0925 79.600544 
L 96.133833 79.653103 
L 96.211333 79.616389 
L 96.387 79.613832 
L 96.392167 79.630161 
L 96.542 79.785129 
L 96.423167 79.599683 
L 96.562667 79.748971 
L 96.6815 79.654523 
L 96.578167 79.758285 
L 96.697 79.693288 
L 96.831333 79.722205 
L 96.846833 79.681536 
L 96.924333 79.649345 
L 96.955333 79.686166 
L 97.265333 79.669421 
L 97.384167 79.736175 
L 97.389333 79.72698 
L 97.616667 79.621983 
L 97.668333 79.675559 
L 97.730333 79.632861 
L 97.8595 79.499339 
L 97.895667 79.515577 
L 98.2935 79.610947 
L 98.298667 79.584718 
L 98.427833 79.489245 
L 98.980667 79.456769 
L 98.991 79.436285 
L 99.022 79.497373 
L 99.078833 79.489522 
L 99.208 79.563737 
L 99.321667 79.54155 
L 99.239 79.609272 
L 99.326833 79.550828 
L 99.399167 79.572948 
L 99.430167 79.521241 
L 99.518 79.494295 
L 99.538667 79.530695 
L 99.631667 79.558956 
L 99.616167 79.489348 
L 99.652333 79.531806 
L 99.791833 79.363204 
L 99.8125 79.389372 
L 99.962333 79.509277 
L 100.0915 79.453162 
L 100.174167 79.389636 
L 100.179333 79.372268 
L 100.324 79.31244 
L 100.329167 79.331096 
L 100.349833 79.263555 
L 100.422167 79.264597 
L 100.448 79.205478 
L 100.5875 79.260263 
L 100.654667 79.148081 
L 100.696 79.233651 
L 100.701167 79.254555 
L 100.752833 79.145547 
L 100.789 79.157271 
L 100.794167 79.127159 
L 100.871667 79.200154 
L 100.8975 79.171091 
L 100.9905 79.100665 
L 101.031833 79.124758 
L 101.1145 79.16168 
L 101.068 79.108189 
L 101.135167 79.094966 
L 101.171333 79.14871 
L 101.243667 79.128903 
L 101.290167 79.237558 
L 101.357333 79.153227 
L 101.460667 79.167954 
L 101.378 79.138973 
L 101.465833 79.158027 
L 101.471 79.137841 
L 101.553667 79.249586 
L 101.558833 79.220432 
L 101.595 79.285367 
L 101.667333 79.225148 
L 101.8275 79.155745 
L 101.7345 79.299322 
L 101.832667 79.166127 
L 101.9205 79.271439 
L 101.9515 79.204085 
L 102.085833 79.0746 
L 102.091 79.089712 
L 102.308 78.990132 
L 102.349333 78.925939 
L 102.4165 79.000015 
L 102.494 79.031686 
L 102.4475 78.983382 
L 102.525 79.002719 
L 102.612833 78.944866 
L 102.649 78.963217 
L 103.176 78.815723 
L 103.3 78.662752 
L 103.320667 78.727561 
L 103.4085 78.79684 
L 103.449833 78.772072 
L 103.568667 78.597371 
L 103.584167 78.617779 
L 103.785667 78.766064 
L 103.599667 78.606463 
L 103.790833 78.758478 
L 103.982 78.648383 
L 103.806333 78.778958 
L 103.992333 78.673709 
L 103.9975 78.679996 
L 104.0285 78.599975 
L 104.064667 78.604159 
L 104.178333 78.515919 
L 104.188667 78.547755 
L 104.281667 78.677714 
L 104.312667 78.638627 
L 104.4315 78.546596 
L 104.457333 78.475605 
L 104.545167 78.523132 
L 104.550333 78.531242 
L 104.5865 78.435499 
L 104.622667 78.453618 
L 104.746667 78.433945 
L 104.643333 78.488226 
L 104.751833 78.447057 
L 104.8035 78.453005 
L 104.824167 78.377018 
L 104.875833 78.339885 
L 104.844833 78.391446 
L 104.932667 78.39834 
L 105.0205 78.448503 
L 105.041167 78.381039 
L 105.222 78.323471 
L 105.273667 78.265334 
L 105.335667 78.34125 
L 105.4545 78.4064 
L 105.464833 78.383299 
L 105.6405 78.317713 
L 105.712833 78.255758 
L 105.749 78.304857 
L 105.754167 78.327112 
L 105.836833 78.209133 
L 105.955667 78.21265 
L 105.852333 78.186373 
L 105.966 78.183635 
L 106.1055 78.070374 
L 106.126167 78.115877 
L 106.157167 78.045236 
L 106.203667 78.064919 
L 106.234667 78.077074 
L 106.3225 77.991543 
L 106.327667 78.000932 
L 106.374167 77.872668 
L 106.379333 77.870383 
L 106.472333 77.738658 
L 106.513667 77.786373 
L 106.596333 77.924203 
L 106.524 77.776496 
L 106.642833 77.890823 
L 106.808167 77.843927 
L 106.813333 77.870711 
L 106.885667 77.705515 
L 106.896 77.712734 
L 106.958 77.78825 
L 106.937333 77.806685 
L 106.963167 77.800566 
L 107.082 77.81524 
L 107.087167 77.808365 
L 107.206 77.772233 
L 107.242167 77.786616 
L 107.293833 77.713354 
L 107.448833 77.502466 
L 107.510833 77.52478 
L 107.490167 77.479336 
L 107.5625 77.491624 
L 107.603833 77.559429 
L 107.681333 77.505341 
L 107.7795 77.52417 
L 107.753667 77.490357 
L 107.789833 77.50326 
L 107.857 77.455876 
L 107.908667 77.478436 
L 108.285833 77.299596 
L 108.291 77.317528 
L 108.296167 77.330281 
L 108.378833 77.259633 
L 108.384 77.26478 
L 108.409833 77.285562 
L 108.518333 77.153028 
L 108.626833 77.170493 
L 108.544167 77.188424 
L 108.637167 77.193955 
L 108.668167 77.107979 
L 108.714667 77.108245 
L 108.761167 77.079916 
L 108.781833 77.149905 
L 108.818 77.146475 
L 108.9885 77.031166 
L 109.029833 77.073469 
L 109.179667 77.090807 
L 109.195167 77.034835 
L 109.293333 76.961842 
L 109.319167 77.016037 
L 109.3295 77.046903 
L 109.396667 76.917218 
L 109.691167 76.944096 
L 109.696333 76.956609 
L 109.758333 76.867767 
L 109.773833 76.864556 
L 109.872 76.765229 
L 109.892667 76.816841 
L 109.996 76.743188 
L 110.0115 76.819464 
L 110.326667 76.80472 
L 110.362833 76.884504 
L 110.424833 76.718583 
L 110.4455 76.728778 
L 110.497167 76.63434 
L 110.512667 76.650212 
L 110.667667 76.5267 
L 110.672833 76.540564 
L 110.7555 76.638572 
L 110.802 76.619601 
L 110.957 76.564069 
L 110.962167 76.589335 
L 110.982833 76.641188 
L 111.039667 76.554798 
L 111.070667 76.566219 
L 111.308333 76.36768 
L 111.463333 76.432628 
L 111.602833 76.278006 
L 111.608 76.293834 
L 111.6855 76.278378 
L 111.639 76.237032 
L 111.701 76.244882 
L 111.8405 76.143198 
L 111.897333 76.176999 
L 111.990333 76.099983 
L 112.445 75.979594 
L 112.496667 76.049888 
L 112.543167 75.906977 
L 112.574167 75.904948 
L 112.610333 75.834462 
L 112.729167 75.687684 
L 112.631 75.853938 
L 112.744667 75.712181 
L 112.9565 75.543638 
L 113.178667 75.411282 
L 113.183833 75.448562 
L 113.2665 75.43511 
L 113.214833 75.389376 
L 113.282 75.397619 
L 113.395667 75.238288 
L 113.431833 75.275365 
L 113.437 75.304746 
L 113.488667 75.241066 
L 113.540333 75.276264 
L 114.015667 75.271396 
L 114.124167 75.297 
L 114.1345 75.290135 
L 114.2275 75.376467 
L 114.268833 75.434783 
L 114.315333 75.288095 
L 114.387667 75.236249 
L 114.3515 75.323876 
L 114.439333 75.272872 
L 114.532333 75.287178 
L 114.5375 75.264935 
L 114.656333 75.137515 
L 114.6925 75.120896 
L 114.7855 75.244104 
L 114.826833 75.307767 
L 114.8785 75.20567 
L 114.888833 75.165016 
L 114.9715 75.270228 
L 114.981833 75.243795 
L 114.997333 75.258656 
L 115.0645 75.16142 
L 115.116167 75.112768 
L 115.167833 75.190346 
L 115.1885 75.213724 
L 115.224667 75.139043 
L 115.266 75.148679 
L 115.395167 75.058971 
L 115.276333 75.155555 
L 115.415833 75.0782 
L 115.421 75.102093 
L 115.503667 74.982217 
L 115.586333 74.880498 
L 115.519167 74.986536 
L 115.6225 74.952303 
L 115.658667 75.012649 
L 115.7155 74.875024 
L 115.844667 74.75288 
L 115.849833 74.768502 
L 115.860167 74.785589 
L 115.927333 74.668561 
L 115.948 74.638731 
L 115.984167 74.730115 
L 116.030667 74.708887 
L 116.2115 74.659832 
L 116.227 74.679095 
L 116.232167 74.691511 
L 116.3045 74.60013 
L 116.309667 74.61742 
L 116.418167 74.509797 
L 116.433667 74.544041 
L 116.547333 74.459992 
L 116.609333 74.438603 
L 116.6455 74.506548 
L 116.650667 74.504027 
L 116.785 74.428122 
L 116.934833 74.305461 
L 116.805667 74.447888 
L 116.94 74.335304 
L 117.022667 74.390783 
L 116.9555 74.324632 
L 117.064 74.359983 
L 117.074333 74.397139 
L 117.120833 74.424188 
L 117.167333 74.405524 
L 117.2345 74.474765 
L 117.430833 74.314746 
L 117.436 74.330079 
L 117.487667 74.325001 
L 117.518667 74.265661 
L 117.642667 74.182933 
L 117.994 73.799516 
L 118.0095 73.841649 
L 118.014667 73.870839 
L 118.092167 73.717513 
L 118.1025 73.735543 
L 118.371167 72.015915 
L 118.386667 67.416156 
L 118.397 57.975552 
L 118.495167 67.155585 
L 118.5675 73.629438 
L 118.696667 73.127729 
L 118.862 71.72881 
L 118.8775 69.429651 
L 118.893 60.164621 
L 118.986 69.719684 
L 119.017 74.03589 
L 119.115167 73.484397 
L 119.290833 72.078862 
L 119.3115 70.64246 
L 119.327 59.789372 
L 119.42 68.939176 
L 119.461333 74.516746 
L 119.569833 73.737292 
L 119.735167 72.366338 
L 119.766167 69.942914 
L 119.781667 59.478253 
L 119.874667 68.635431 
L 119.916 75.019968 
L 120.04 74.007997 
L 120.2415 71.891412 
L 120.257 67.42989 
L 120.267333 59.118195 
L 120.3655 68.413061 
L 120.412 75.427821 
L 120.541167 74.326142 
L 120.758167 72.251304 
L 120.778833 69.918349 
L 120.794333 58.969018 
L 120.887333 67.850721 
L 120.939 75.764074 
L 121.088833 74.516683 
L 121.316167 72.657138 
L 121.352333 70.554027 
L 121.367833 58.760993 
L 121.466 67.973276 
L 121.517667 75.973546 
L 121.662333 74.800341 
L 121.894833 73.119677 
L 121.920667 72.965608 
L 121.9775 71.064686 
L 121.993 58.622334 
L 122.091167 67.8327 
L 122.148 76.064237 
L 122.297833 74.867573 
L 122.406333 74.096423 
L 122.638833 71.845451 
L 122.654333 62.533769 
L 122.6595 58.588154 
L 122.757667 67.72577 
L 122.809333 76.162225 
L 122.964333 74.983776 
L 123.351833 71.909568 
L 123.367333 64.4873 
L 123.377667 58.537508 
L 123.470667 67.730017 
L 123.5275 76.173364 
L 123.677333 75.04049 
L 124.028667 73.089043 
L 124.044167 72.994178 
L 124.111333 71.543182 
L 124.132 58.461736 
L 124.235333 68.594106 
L 124.276667 76.165588 
L 124.374833 75.441647 
" style="fill:none;stroke:#000000;stroke-linecap:square;stroke-width:0.3;"/>
   </g>
   <g id="line2d_4">
    <path clip-path="url(#p230645d430)" d="M 103.196667 11.48629 
L 123.822 11.48629 
" style="fill:none;stroke:#ffffff;stroke-linecap:square;"/>
   </g>
   <g id="line2d_5">
    <path clip-path="url(#p230645d430)" d="M 124.38 19.926355 
L 124.38 11.655091 
" style="fill:none;stroke:#ffffff;stroke-linecap:square;"/>
   </g>
  </g>
 </g>
 <defs>
  <clipPath id="p230645d430">
   <rect height="76.104" width="122.76" x="7.2" y="7.2"/>
  </clipPath>
 </defs>
</svg>
