<?xml version="1.0" encoding="utf-8" standalone="no"?>
<!DOCTYPE svg PUBLIC "-//W3C//DTD SVG 1.1//EN"
  "http://www.w3.org/Graphics/SVG/1.1/DTD/svg11.dtd">
<!-- Created with matplotlib (https://matplotlib.org/) -->
<svg height="90.504pt" version="1.1" viewBox="0 0 137.16 90.504" width="137.16pt" xmlns="http://www.w3.org/2000/svg" xmlns:xlink="http://www.w3.org/1999/xlink">
 <metadata>
  <rdf:RDF xmlns:cc="http://creativecommons.org/ns#" xmlns:dc="http://purl.org/dc/elements/1.1/" xmlns:rdf="http://www.w3.org/1999/02/22-rdf-syntax-ns#">
   <cc:Work>
    <dc:type rdf:resource="http://purl.org/dc/dcmitype/StillImage"/>
    <dc:date>2020-10-20T16:12:09.435490</dc:date>
    <dc:format>image/svg+xml</dc:format>
    <dc:creator>
     <cc:Agent>
      <dc:title>Matplotlib v3.3.2, https://matplotlib.org/</dc:title>
     </cc:Agent>
    </dc:creator>
   </cc:Work>
  </rdf:RDF>
 </metadata>
 <defs>
  <style type="text/css">*{stroke-linecap:butt;stroke-linejoin:round;}</style>
 </defs>
 <g id="figure_1">
  <g id="patch_1">
   <path d="M 0 90.504 
L 137.16 90.504 
L 137.16 -0 
L 0 -0 
z
" style="fill:none;"/>
  </g>
  <g id="axes_1">
   <g id="patch_2">
    <path d="M 7.2 83.304 
L 129.96 83.304 
L 129.96 7.2 
L 7.2 7.2 
z
" style="fill:none;"/>
   </g>
   <g id="matplotlib.axis_1"/>
   <g id="matplotlib.axis_2"/>
   <g id="line2d_1">
    <path clip-path="url(#p763767ccf0)" d="M 12.78 29.954375 
L 12.935007 29.814 
L 12.945341 29.840419 
L 12.991843 29.907029 
L 13.059013 29.872967 
L 13.157184 29.782698 
L 13.090014 29.884314 
L 13.183019 29.818347 
L 13.384528 29.597399 
L 13.389695 29.618618 
L 13.493033 29.67688 
L 13.441364 29.597603 
L 13.503367 29.632773 
L 13.56537 29.54399 
L 13.586037 29.469717 
L 13.673875 29.536884 
L 13.730711 29.51332 
L 13.746211 29.463205 
L 13.761712 29.473978 
L 13.885718 29.421712 
L 13.911552 29.460555 
L 14.040725 29.556216 
L 14.045892 29.550562 
L 14.06656 29.524786 
L 14.102728 29.640563 
L 14.107895 29.627988 
L 14.190565 29.714202 
L 14.237067 29.6812 
L 14.386908 29.843986 
L 14.443744 29.799902 
L 14.521247 29.762302 
L 14.485079 29.824762 
L 14.562583 29.795241 
L 14.567749 29.845024 
L 14.665921 29.745865 
L 14.71759 29.692626 
L 14.686588 29.693594 
L 14.738257 29.661577 
L 14.975935 29.424345 
L 14.748591 29.67854 
L 14.986269 29.446421 
L 15.136109 29.427158 
L 15.141276 29.404944 
L 15.260115 29.271024 
L 15.291116 29.286281 
L 15.296283 29.296628 
L 15.347952 29.170565 
L 15.358286 29.217312 
L 15.425456 29.259853 
L 15.477125 29.158734 
L 15.626965 29.014415 
L 15.632132 29.016498 
L 15.647633 29.053673 
L 15.673467 28.991719 
L 15.745804 29.026424 
L 15.864643 29.032881 
L 15.86981 29.040433 
L 15.916312 29.034382 
L 15.88531 29.006486 
L 15.947313 28.973337 
L 16.045485 28.933185 
L 16.060985 28.97441 
L 16.159156 29.131195 
L 16.272828 29.164862 
L 16.184991 29.122583 
L 16.277995 29.154277 
L 16.376166 29.071463 
L 16.396834 29.090039 
L 16.799853 29.028403 
L 16.80502 29.053096 
L 16.872189 29.215761 
L 16.934192 29.200928 
L 17.316543 29.280734 
L 17.440549 29.173413 
L 17.533553 29.197654 
L 17.466384 29.14806 
L 17.554221 29.165312 
L 17.60589 29.05024 
L 17.698894 29.122976 
L 17.791899 29.273795 
L 17.843568 29.220682 
L 18.076079 29.242996 
L 18.122581 29.153007 
L 18.18975 29.21398 
L 18.194917 29.23237 
L 18.267254 29.130684 
L 18.272421 29.129809 
L 18.349925 29.067176 
L 18.298255 29.15531 
L 18.396427 29.085139 
L 18.401594 29.10188 
L 18.484264 29.026033 
L 18.494598 29.03293 
L 18.778778 29.143741 
L 18.897617 28.952343 
L 18.944119 29.030105 
L 18.985454 29.052786 
L 19.011288 28.945718 
L 19.021622 28.944779 
L 19.104293 28.908476 
L 19.140461 28.951736 
L 19.181796 28.843716 
L 19.285134 28.674203 
L 19.316136 28.686371 
L 19.34197 28.727106 
L 19.383306 28.628275 
L 19.40914 28.63917 
L 19.450475 28.623982 
L 19.424641 28.678868 
L 19.512478 28.6691 
L 19.553814 28.617481 
L 19.672652 28.792658 
L 19.806992 28.623425 
L 19.812159 28.627267 
L 19.82766 28.657298 
L 19.874162 28.592559 
L 19.925831 28.627008 
L 20.080838 28.552845 
L 20.086005 28.556038 
L 20.122173 28.582843 
L 20.163508 28.476082 
L 20.297848 28.261341 
L 20.308182 28.279503 
L 20.339183 28.296319 
L 20.359851 28.357695 
L 20.365018 28.359682 
L 20.375352 28.380484 
L 20.396019 28.321047 
L 20.473523 28.349486 
L 20.597529 28.209896 
L 20.618196 28.227073 
L 20.726701 28.25505 
L 20.737035 28.234154 
L 20.747369 28.240308 
L 20.855874 28.219443 
L 20.943711 28.253701 
L 20.886875 28.176114 
L 20.97988 28.198941 
L 21.935757 27.600578 
L 21.961592 27.661633 
L 21.971926 27.69265 
L 22.033928 27.523666 
L 22.121766 27.488999 
L 22.06493 27.572446 
L 22.142433 27.530947 
L 22.204436 27.50571 
L 22.230271 27.478056 
L 22.235438 27.455485 
L 22.287107 27.539865 
L 22.338776 27.496335 
L 22.452448 27.488228 
L 22.467949 27.452395 
L 22.767629 26.930209 
L 22.819298 26.95813 
L 22.886468 26.836472 
L 23.134479 25.961964 
L 23.191315 24.654468 
L 23.211983 10.659273 
L 23.330822 20.483785 
L 23.387658 27.481904 
L 23.521997 26.045954 
L 23.599501 23.529973 
L 23.615002 12.165658 
L 23.713173 20.840229 
L 23.759675 28.122421 
L 23.899181 26.328691 
L 23.976685 24.199188 
L 23.997353 12.008558 
L 24.100691 20.763425 
L 24.147193 28.661634 
L 24.291866 26.792562 
L 24.395204 23.904087 
L 24.410705 11.717754 
L 24.508876 19.806193 
L 24.576046 29.097332 
L 24.73622 27.00907 
L 24.844725 24.727437 
L 24.865393 11.539135 
L 24.989399 21.057837 
L 25.035901 29.436749 
L 25.175407 27.814209 
L 25.345915 23.650503 
L 25.361416 11.395723 
L 25.459587 19.370726 
L 25.531924 29.684821 
L 25.702432 27.796865 
L 25.878106 23.856768 
L 25.893607 11.298768 
L 25.991778 19.273502 
L 26.069282 29.834309 
L 26.234623 28.116309 
L 26.446466 23.827242 
L 26.461967 11.221178 
L 26.560138 19.272841 
L 26.632475 29.957394 
L 26.802983 28.312644 
L 27.045827 24.561747 
L 27.066495 11.180178 
L 27.180167 20.393205 
L 27.24217 30.028689 
L 27.407511 28.43826 
L 27.696857 24.614029 
L 27.717525 11.143635 
L 27.831197 20.60047 
L 27.888033 30.046318 
L 28.04304 28.585435 
L 28.244549 26.600223 
L 28.384056 24.740122 
L 28.399556 14.785691 
L 28.404723 11.141789 
L 28.502895 19.599314 
L 28.575231 30.006757 
L 28.740572 28.482057 
L 29.133257 24.435671 
L 29.153925 11.128413 
L 29.26243 20.960875 
L 29.314099 29.908476 
L 29.453605 28.650578 
L 29.934128 23.884757 
L 29.949628 11.147596 
L 30.047799 20.489492 
L 30.104635 29.763382 
L 30.254476 28.403935 
L 30.7815 24.589782 
L 30.797001 17.406016 
L 30.807335 11.184967 
L 30.900339 20.768217 
L 30.952008 29.580435 
L 31.091514 28.319608 
L 31.437697 26.002983 
L 31.675375 25.535072 
L 31.690876 25.565309 
L 31.840716 25.813561 
L 32.06806 26.828628 
L 32.099061 26.9349 
L 32.383241 27.663588 
L 32.393575 27.658776 
L 32.51758 27.863985 
L 32.703589 28.353946 
L 32.899931 28.896422 
L 33.054939 29.248891 
L 33.111775 29.348088 
L 33.566462 30.772622 
L 33.571629 30.765108 
L 33.612964 30.898074 
L 33.788639 31.352351 
L 33.793806 31.335604 
L 33.845475 31.522498 
L 34.062485 32.008575 
L 34.186491 32.119095 
L 34.331164 32.356762 
L 34.475838 32.346906 
L 34.594677 32.488234 
L 34.610177 32.466051 
L 34.615344 32.446714 
L 34.698015 32.526527 
L 34.713515 32.490033 
L 34.80652 32.498395 
L 34.816854 32.449037 
L 34.930525 32.260771 
L 34.951193 32.270669 
L 35.002862 32.28568 
L 34.961527 32.253828 
L 35.039031 32.202393 
L 35.245707 32.228152 
L 35.250874 32.208996 
L 35.302543 32.148069 
L 35.364546 32.188427 
L 35.498885 32.267578 
L 35.519553 32.214507 
L 35.566055 32.317806 
L 35.612557 32.260581 
L 35.715895 32.344284 
L 35.839901 32.382259 
L 35.922571 32.324032 
L 35.927738 32.306544 
L 35.943239 32.296885 
L 35.989741 32.367573 
L 36.02591 32.340095 
L 36.04141 32.328069 
L 36.170583 32.417702 
L 36.25842 32.341269 
L 36.279088 32.406163 
L 36.330757 32.494275 
L 36.397927 32.462716 
L 36.47543 32.50288 
L 36.516766 32.435497 
L 36.625271 32.48505 
L 36.630438 32.479539 
L 36.790612 32.336317 
L 36.816446 32.371762 
L 36.868115 32.289126 
L 36.888783 32.295254 
L 36.90945 32.314789 
L 37.028289 32.213966 
L 37.12646 32.27822 
L 37.04379 32.20631 
L 37.141961 32.241023 
L 37.389973 32.061978 
L 37.400306 32.08679 
L 37.462309 32.199273 
L 37.513978 32.099276 
L 37.689653 32.146206 
L 37.534646 32.070653 
L 37.69482 32.132024 
L 37.710321 32.086329 
L 37.792991 32.204143 
L 37.973833 32.064594 
L 38.015168 32.079957 
L 38.041003 32.02038 
L 38.077171 32.04406 
L 38.082338 31.987672 
L 38.149508 32.052341 
L 38.185676 32.042947 
L 38.299348 32.102533 
L 38.237345 31.985612 
L 38.320016 32.078883 
L 38.41302 32.196567 
L 38.485357 32.11657 
L 38.54736 32.029473 
L 38.604196 31.950865 
L 38.666198 32.00175 
L 38.6972 32.039167 
L 38.743702 31.981705 
L 38.77987 32.003725 
L 38.940044 31.872229 
L 38.955545 31.896133 
L 38.971046 31.947136 
L 39.038216 31.789586 
L 39.053716 31.806459 
L 39.069217 31.819846 
L 39.100219 31.736629 
L 39.141554 31.729974 
L 39.250059 31.67699 
L 39.270726 31.695774 
L 39.332729 31.725845 
L 39.374065 31.666762 
L 39.430901 31.631214 
L 39.48257 31.685793 
L 39.756416 31.605464 
L 39.808085 31.533647 
L 39.771916 31.623513 
L 39.885588 31.563527 
L 39.921757 31.625478 
L 39.947591 31.534213 
L 39.99926 31.561763 
L 40.174935 31.371961 
L 40.257605 31.231491 
L 40.293774 31.312878 
L 40.335109 31.358656 
L 40.371277 31.289152 
L 40.412613 31.323813 
L 40.422946 31.368379 
L 41.042975 30.881456 
L 41.161814 30.823453 
L 41.296154 30.799171 
L 41.306487 30.809199 
L 41.461495 30.856362 
L 41.80251 30.808144 
L 41.864513 30.899009 
L 41.916182 30.851777 
L 41.957517 30.86221 
L 42.035021 30.820562 
L 42.040188 30.84354 
L 42.097024 30.762056 
L 42.128025 30.760538 
L 42.138359 30.738123 
L 42.205529 30.863368 
L 42.210696 30.846026 
L 42.448374 30.936869 
L 42.463874 30.905571 
L 42.515543 30.836633 
L 42.577546 30.884731 
L 42.763555 30.956527 
L 42.773889 30.898389 
L 42.903061 30.848494 
L 42.913395 30.872018 
L 42.95473 30.942593 
L 43.011566 30.842969 
L 43.016733 30.843383 
L 43.166573 30.814832 
L 43.047735 30.892615 
L 43.176907 30.832475 
L 43.269912 30.862413 
L 43.290579 30.839644 
L 43.337081 30.848802 
L 43.30608 30.873744 
L 43.362916 30.896049 
L 43.435253 30.925355 
L 43.471421 30.901626 
L 43.554091 30.910064 
L 43.512756 30.944166 
L 43.579926 30.922682 
L 43.755601 30.862787 
L 43.776268 30.909872 
L 43.802103 30.960472 
L 43.864106 30.846295 
L 43.869273 30.845586 
L 43.900274 30.793614 
L 43.972611 30.870672 
L 43.977778 30.851469 
L 44.163786 30.805493 
L 43.998445 30.897225 
L 44.189621 30.862476 
L 44.277458 30.963784 
L 44.32396 30.933812 
L 44.623641 30.89797 
L 44.644309 30.956951 
L 44.680477 30.866825 
L 44.732146 30.901341 
L 44.881986 30.794589 
L 44.907821 30.8365 
L 45.02666 30.852379 
L 44.95949 30.802151 
L 45.031826 30.844391 
L 45.052494 30.802715 
L 45.10933 30.91645 
L 45.140331 30.855945 
L 45.202334 30.805838 
L 45.269504 30.891881 
L 45.32634 30.85291 
L 45.357342 30.925517 
L 45.372842 30.905804 
L 45.409011 30.953267 
L 45.434845 30.880242 
L 45.486514 30.89672 
L 45.605353 30.850911 
L 45.61052 30.867907 
L 45.651855 30.911934 
L 45.672523 30.845538 
L 45.719025 30.875911 
L 45.863698 30.856259 
L 45.972203 30.898615 
L 45.879199 30.846403 
L 45.982537 30.878483 
L 46.049707 30.890292 
L 46.085875 30.833121 
L 46.17888 30.853083 
L 46.11171 30.90195 
L 46.184046 30.871257 
L 46.287385 30.96419 
L 46.32872 30.910731 
L 46.437225 30.861958 
L 46.442392 30.900348 
L 46.504395 30.892069 
L 46.483727 30.936544 
L 46.54573 30.924659 
L 46.571564 30.948093 
L 46.623233 30.868286 
L 46.649068 30.901073 
L 47.11409 30.812936 
L 47.124423 30.84292 
L 47.351767 30.938455 
L 47.356934 30.908356 
L 47.651448 30.818663 
L 47.770287 30.951846 
L 47.775453 30.938915 
L 48.044133 30.847894 
L 48.0493 30.869679 
L 48.168138 30.937953 
L 48.095802 30.847292 
L 48.188806 30.928675 
L 48.938007 30.906318 
L 49.056846 30.950514 
L 48.969009 30.868383 
L 49.062013 30.92783 
L 49.103348 30.850099 
L 49.175685 30.915868 
L 49.279023 30.932084 
L 49.242855 30.894328 
L 49.28419 30.90013 
L 49.330692 30.89173 
L 49.382361 30.942671 
L 49.490866 30.980896 
L 49.392695 30.934912 
L 49.511534 30.947887 
L 49.811214 30.883144 
L 49.821548 30.90513 
L 49.930053 30.993185 
L 49.955888 30.96193 
L 50.038558 30.834145 
L 50.074727 30.883418 
L 50.36924 30.926486 
L 50.374407 30.951196 
L 50.410575 30.873103 
L 50.472578 30.888979 
L 50.488079 30.848429 
L 50.591417 30.835222 
L 50.689588 30.839118 
L 50.648253 30.919971 
L 50.694755 30.841777 
L 50.736091 30.911548 
L 50.808427 30.873692 
L 50.818761 30.891798 
L 50.953101 30.815785 
L 51.015103 30.751968 
L 51.071939 30.86 
L 51.190778 30.941846 
L 51.195945 30.900872 
L 51.397455 30.866663 
L 51.407788 30.911938 
L 51.459457 30.921846 
L 51.490459 30.867906 
L 51.516293 30.8805 
L 51.702302 30.838376 
L 51.717803 30.897447 
L 51.728136 30.93753 
L 51.80564 30.835566 
L 51.821141 30.858814 
L 51.831475 30.832053 
L 51.996816 30.894619 
L 52.069152 30.857021 
L 52.115654 30.909524 
L 52.203492 30.929363 
L 52.141489 30.886177 
L 52.213826 30.873543 
L 52.291329 30.939022 
L 52.374 30.813326 
L 52.441169 30.886104 
L 52.498005 30.857382 
L 52.632345 30.810487 
L 52.746017 30.90359 
L 52.751184 30.885748 
L 52.756351 30.865485 
L 52.823521 30.978045 
L 52.849355 30.927762 
L 52.854522 30.956409 
L 52.926859 30.880712 
L 52.963027 30.933658 
L 53.17487 31.05603 
L 52.994028 30.893828 
L 53.180037 31.048331 
L 53.645059 30.674597 
L 53.650225 30.697515 
L 53.794899 30.730928 
L 53.8104 30.694214 
L 53.820733 30.662752 
L 53.856902 30.7623 
L 53.908571 30.733921 
L 54.089412 30.779628 
L 53.924071 30.71563 
L 54.099746 30.763616 
L 54.466597 30.767771 
L 54.564768 30.755777 
L 54.507932 30.807346 
L 54.580269 30.767722 
L 54.714608 30.69851 
L 54.724942 30.744038 
L 54.82828 30.621428 
L 54.947119 30.553692 
L 54.952286 30.570126 
L 55.148628 30.761078 
L 55.2623 30.871008 
L 55.277801 30.841514 
L 55.381139 30.766247 
L 55.41214 30.806466 
L 55.499978 30.719442 
L 55.634317 30.74125 
L 55.778991 30.659309 
L 55.861661 30.700764 
L 55.887496 30.637012 
L 56.125173 30.831058 
L 56.290514 30.747763 
L 56.321516 30.815286 
L 56.409353 30.772505 
L 56.719368 30.74272 
L 56.796871 30.662484 
L 56.838206 30.734478 
L 56.931211 30.739242 
L 56.946711 30.702418 
L 57.101719 30.554131 
L 57.194723 30.640535 
L 57.246392 30.59184 
L 57.323896 30.51745 
L 57.375565 30.56069 
L 57.48407 30.588195 
L 57.453068 30.522716 
L 57.489237 30.574266 
L 58.166101 30.69949 
L 58.171268 30.680817 
L 58.295274 30.60283 
L 58.300441 30.611736 
L 58.362444 30.508595 
L 58.393445 30.552508 
L 58.65179 30.689415 
L 58.662124 30.705641 
L 58.698293 30.619098 
L 58.729294 30.611402 
L 58.873967 30.464571 
L 58.920469 30.497508 
L 58.972139 30.426857 
L 59.08581 30.367229 
L 59.090977 30.375948 
L 59.214983 30.414153 
L 59.380324 30.283685 
L 59.411326 30.348667 
L 59.478495 30.36668 
L 59.514664 30.30412 
L 59.555999 30.340744 
L 59.633502 30.237361 
L 59.643836 30.290079 
L 59.690338 30.1924 
L 59.742008 30.24896 
L 59.798843 30.245715 
L 59.824678 30.309891 
L 59.855679 30.379144 
L 59.93835 30.316482 
L 60.046855 30.205569 
L 60.072689 30.230707 
L 60.258698 30.348546 
L 60.093357 30.203276 
L 60.263865 30.337746 
L 60.382704 30.253261 
L 60.387871 30.264942 
L 60.496376 30.32407 
L 60.527377 30.276861 
L 60.604881 30.157306 
L 60.651383 30.220847 
L 60.661717 30.262619 
L 60.72372 30.188054 
L 60.759888 30.210674 
L 60.858059 30.141115 
L 60.87356 30.124225 
L 60.925229 30.212056 
L 60.935563 30.199923 
L 60.976898 30.214967 
L 61.0234 30.145554 
L 61.044068 30.179698 
L 61.106071 30.1372 
L 61.080236 30.101927 
L 61.116404 30.109816 
L 61.209409 29.881117 
L 61.266245 29.920352 
L 61.426419 29.699153 
L 61.44192 29.706964 
L 61.519423 29.735597 
L 61.478088 29.653302 
L 61.550425 29.716189 
L 61.607261 29.580289 
L 61.679597 29.609112 
L 61.762268 29.530714 
L 61.865606 29.435322 
L 61.886273 29.475826 
L 62.09295 29.469097 
L 62.103283 29.426473 
L 62.10845 29.41629 
L 62.123951 29.522682 
L 62.191121 29.483606 
L 62.206622 29.492213 
L 62.268624 29.383505 
L 62.346128 29.272426 
L 62.408131 29.379561 
L 62.495968 29.445647 
L 62.59414 29.54396 
L 62.625141 29.516346 
L 63.033327 29.621136 
L 63.038493 29.609212 
L 63.095329 29.528962 
L 63.167666 29.562024 
L 64.159712 29.414114 
L 64.428391 29.120337 
L 64.433558 29.145623 
L 64.531729 29.144353 
L 64.449059 29.10811 
L 64.54723 29.116213 
L 64.578231 29.132846 
L 64.702237 28.994726 
L 64.877912 28.992663 
L 65.007085 28.897885 
L 65.864791 28.587277 
L 65.937128 28.667647 
L 65.973296 28.61353 
L 66.092135 28.507058 
L 66.107636 28.525267 
L 66.117969 28.537985 
L 66.190306 28.460335 
L 66.195473 28.463353 
L 66.257476 28.392021 
L 66.231641 28.472535 
L 66.314312 28.408835 
L 66.686329 28.30353 
L 66.820669 28.153372 
L 66.85167 28.217114 
L 66.93434 28.176018 
L 67.223687 28.03996 
L 67.342526 27.947962 
L 67.358027 27.954572 
L 67.389028 27.9848 
L 67.456198 27.946942 
L 67.56987 27.773606 
L 67.585371 27.798461 
L 67.662874 27.767099 
L 67.626706 27.746125 
L 67.678375 27.739487 
L 67.802381 27.626502 
L 67.693876 27.757436 
L 67.807548 27.636731 
L 67.86955 27.643623 
L 67.910886 27.598222 
L 68.742758 26.214181 
L 68.820261 25.376134 
L 68.846096 22.956823 
L 68.861596 10.671061 
L 68.959768 19.383046 
L 69.032104 27.353554 
L 69.161277 25.902683 
L 69.228447 23.682313 
L 69.243947 12.403742 
L 69.342119 20.991961 
L 69.388621 27.880445 
L 69.517793 26.056614 
L 69.584963 23.724056 
L 69.600464 12.239984 
L 69.698635 20.576985 
L 69.750304 28.36081 
L 69.894978 26.313477 
L 69.972481 23.116624 
L 69.987982 11.979807 
L 70.080986 19.94273 
L 70.142989 28.827182 
L 70.297996 26.700624 
L 70.391001 24.193162 
L 70.406501 11.742804 
L 70.509839 19.931925 
L 70.571842 29.208011 
L 70.737183 27.110262 
L 70.850855 24.72361 
L 70.871523 11.540982 
L 70.995528 21.032366 
L 71.042031 29.501739 
L 71.181537 27.903361 
L 71.357212 24.587887 
L 71.37788 11.40289 
L 71.491551 20.352408 
L 71.553554 29.694848 
L 71.718895 27.832248 
L 71.904904 24.067711 
L 71.920405 11.307574 
L 72.023743 19.606904 
L 72.096079 29.841481 
L 72.26142 28.127488 
L 72.488764 24.068406 
L 72.504265 11.248289 
L 72.607603 19.681618 
L 72.67994 29.911136 
L 72.845281 28.27569 
L 73.11396 24.245816 
L 73.129461 11.215984 
L 73.237966 20.114502 
L 73.299969 29.948049 
L 73.470476 28.344667 
L 73.785658 23.265857 
L 73.801158 11.212501 
L 73.89933 19.912222 
L 73.966499 29.929137 
L 74.13184 28.370777 
L 74.493524 23.428541 
L 74.509024 11.186342 
L 74.607196 20.148672 
L 74.669199 29.880514 
L 74.829373 28.396996 
L 75.154888 25.848693 
L 75.247892 24.910056 
L 75.263393 22.976506 
L 75.278893 11.212527 
L 75.371898 20.276523 
L 75.433901 29.729123 
L 75.583741 28.323528 
L 76.053929 24.543362 
L 76.079764 11.245928 
L 76.183102 21.583773 
L 76.229604 29.633661 
L 76.338109 28.638597 
L 76.746295 25.796837 
L 76.896135 24.780482 
L 76.911636 22.890605 
L 76.927136 11.250758 
L 77.020141 20.992486 
L 77.07181 29.469916 
L 77.200982 28.281902 
L 77.521331 26.035565 
L 77.697005 24.861871 
L 77.717673 19.22172 
L 77.728007 11.206352 
L 77.826178 21.165387 
L 77.87268 29.550393 
L 78.001853 28.39738 
L 78.342869 26.06982 
L 78.348036 26.084409 
L 78.52371 25.76511 
L 78.575379 25.887373 
L 78.647716 26.052434 
L 78.921562 26.815652 
L 78.926729 26.81049 
L 78.952564 26.912058 
L 78.95773 26.912239 
L 79.17474 27.440733 
L 79.179907 27.438856 
L 79.200575 27.546698 
L 79.350415 27.860212 
L 80.67831 31.550309 
L 79.360749 27.856306 
L 80.688644 31.538897 
L 80.755814 31.696646 
L 81.169166 32.299751 
L 80.766148 31.675443 
L 81.1795 32.287126 
L 81.282838 32.276791 
L 81.220835 32.367479 
L 81.288005 32.310874 
L 81.74786 32.53788 
L 81.809862 32.548816 
L 81.835697 32.478213 
L 81.840864 32.487897 
L 81.98037 32.399175 
L 81.902867 32.544102 
L 81.985537 32.409081 
L 82.094042 32.345031 
L 82.119877 32.429409 
L 82.140544 32.415541 
L 82.233549 32.444967 
L 82.429891 32.249425 
L 82.435058 32.263896 
L 82.486727 32.151811 
L 82.522896 32.1862 
L 82.6159 32.165943 
L 82.553897 32.216604 
L 82.636567 32.199199 
L 82.69857 32.206585 
L 82.714071 32.277059 
L 82.863911 32.318254 
L 82.869078 32.304067 
L 82.941415 32.290636 
L 82.962083 32.354521 
L 82.967249 32.352337 
L 83.086088 32.457106 
L 83.091255 32.431936 
L 83.168759 32.433579 
L 83.106756 32.462475 
L 83.194593 32.472606 
L 83.19976 32.496519 
L 83.261763 32.37268 
L 83.287598 32.394903 
L 83.447772 32.243143 
L 83.452939 32.261859 
L 83.520108 32.285747 
L 83.545943 32.227539 
L 83.644114 32.069012 
L 83.669949 32.123469 
L 83.933461 32.153354 
L 84.13497 32.32822 
L 84.140137 32.301826 
L 84.258976 32.223699 
L 84.274477 32.263903 
L 84.326146 32.294299 
L 84.372648 32.209797 
L 84.377815 32.22085 
L 84.527655 32.414785 
L 84.398482 32.18908 
L 84.55349 32.384877 
L 84.594825 32.345412 
L 84.646494 32.441251 
L 84.651661 32.432949 
L 84.729164 32.411834 
L 84.713664 32.381791 
L 84.744665 32.384596 
L 84.868671 32.306719 
L 84.879005 32.326666 
L 84.992677 32.406305 
L 85.008177 32.402373 
L 85.349193 32.108077 
L 85.35436 32.118203 
L 85.462865 32.11207 
L 85.390528 32.075462 
L 85.468032 32.099259 
L 85.478366 32.044805 
L 85.550702 32.155417 
L 85.57137 32.134127 
L 85.943387 31.858139 
L 85.581704 32.156023 
L 85.969222 31.925228 
L 85.974389 31.961262 
L 86.067393 31.868443 
L 86.201732 31.652255 
L 86.212066 31.664151 
L 87.152443 31.60689 
L 87.204112 31.627167 
L 87.276449 31.562916 
L 87.632965 31.477136 
L 87.638132 31.488841 
L 87.700135 31.530185 
L 87.6588 31.479897 
L 87.746637 31.470013 
L 87.865476 31.472628 
L 87.798306 31.528935 
L 87.87581 31.482806 
L 88.030817 31.42893 
L 88.180657 31.230318 
L 88.185824 31.238145 
L 88.190991 31.265414 
L 88.24266 31.208695 
L 88.289162 31.202339 
L 88.371833 31.139657 
L 88.402834 31.175628 
L 88.480338 31.224142 
L 88.485505 31.252 
L 88.511339 31.316148 
L 88.599177 31.229117 
L 88.687014 31.137245 
L 88.728349 31.204295 
L 88.790352 31.228369 
L 88.74385 31.18094 
L 88.831688 31.165544 
L 88.94536 31.122692 
L 88.950526 31.141831 
L 89.02803 31.196937 
L 89.048698 31.101144 
L 89.053865 31.110124 
L 89.374213 30.893369 
L 89.39488 30.917341 
L 89.405214 30.94885 
L 89.493052 30.869954 
L 89.498218 30.8703 
L 89.549887 30.930196 
L 89.617057 30.86666 
L 89.74623 30.937278 
L 89.751397 30.929097 
L 89.8289 30.860105 
L 89.859902 30.929224 
L 90.035577 30.88147 
L 90.107913 30.872525 
L 90.133748 30.923134 
L 90.18025 30.966726 
L 90.164749 30.910065 
L 90.242253 30.904115 
L 90.361092 30.877617 
L 90.371426 30.850983 
L 90.376592 30.834044 
L 90.417928 30.910752 
L 90.46443 30.91237 
L 90.510932 30.855944 
L 90.588436 30.961303 
L 90.712441 30.890661 
L 90.882949 30.851027 
L 91.043123 30.908007 
L 91.409974 30.916461 
L 91.461643 30.978015 
L 91.523646 30.913182 
L 91.76649 30.910026 
L 91.802658 30.959516 
L 91.864661 30.877366 
L 91.869828 30.878884 
L 91.9835 30.844159 
L 91.91633 30.923044 
L 91.988667 30.851144 
L 92.086838 30.910877 
L 92.024835 30.81708 
L 92.102339 30.861107 
L 92.107506 30.845674 
L 92.179843 30.940111 
L 92.185009 30.936812 
L 92.262513 30.97368 
L 92.298681 30.933969 
L 92.433021 30.881656 
L 92.546693 30.94524 
L 92.588028 30.887676 
L 92.737868 30.881833 
L 92.743035 30.86879 
L 92.748202 30.848065 
L 92.799871 30.943049 
L 92.846373 30.902151 
L 92.949712 30.853073 
L 92.960045 30.81284 
L 93.047883 30.928617 
L 93.125386 30.837357 
L 93.171889 30.885409 
L 93.781583 30.919805 
L 93.802251 30.94712 
L 93.895255 30.892812 
L 94.039929 30.938164 
L 94.055429 30.925907 
L 94.701293 30.943817 
L 94.866634 30.884062 
L 94.887301 30.860704 
L 94.949304 30.94195 
L 94.975139 30.905993 
L 95.021641 30.82149 
L 95.104311 30.870367 
L 95.109478 30.887355 
L 95.171481 30.759124 
L 95.202483 30.812216 
L 95.269652 30.764865 
L 95.305821 30.814403 
L 95.378157 30.904772 
L 95.414326 30.797081 
L 95.424659 30.762285 
L 95.486662 30.960611 
L 95.496996 30.980081 
L 95.579667 30.914991 
L 95.59 30.945769 
L 95.626169 30.827108 
L 95.72434 30.884685 
L 95.827678 30.898685 
L 95.770842 30.831303 
L 95.838012 30.866989 
L 95.931016 30.850235 
L 95.915516 30.895514 
L 95.946517 30.876152 
L 96.137692 30.847428 
L 96.153193 30.784249 
L 96.241031 30.87565 
L 96.246198 30.866573 
L 96.370203 30.836882 
L 96.256531 30.87389 
L 96.37537 30.859872 
L 96.385704 30.927987 
L 96.421872 30.831244 
L 96.483875 30.880286 
L 96.499376 30.802536 
L 96.561379 30.902238 
L 96.597547 30.837601 
L 96.721553 30.943712 
L 96.824891 30.888905 
L 96.850725 30.904114 
L 96.964397 30.955345 
L 96.881727 30.886372 
L 96.974731 30.944006 
L 97.0109 31.000957 
L 97.09357 30.909267 
L 97.222743 30.956481 
L 97.119405 30.882924 
L 97.22791 30.951139 
L 97.346748 30.884557 
L 97.357082 30.888068 
L 97.481088 30.96108 
L 97.408751 30.857386 
L 97.486255 30.944865 
L 97.610261 30.812687 
L 97.641262 30.871626 
L 97.739433 30.968743 
L 97.775602 30.933431 
L 97.992612 30.872676 
L 98.008112 30.825892 
L 98.064948 30.887622 
L 98.106284 30.856682 
L 98.16312 30.899761 
L 98.214789 30.834148 
L 98.338794 30.752761 
L 98.24579 30.892129 
L 98.349128 30.769101 
L 98.478301 30.870249 
L 98.798649 30.910292 
L 98.819317 30.983243 
L 98.876153 30.858306 
L 98.912321 30.939559 
L 98.989825 30.931375 
L 99.025993 30.968241 
L 99.03116 30.979119 
L 99.067328 30.917306 
L 99.11383 30.914238 
L 99.124164 30.877671 
L 99.134498 30.94021 
L 99.222335 30.906262 
L 99.336007 30.930082 
L 99.367009 30.817698 
L 99.449679 30.917472 
L 99.475514 30.929403 
L 99.542683 30.872134 
L 99.589186 30.942543 
L 99.661522 30.889227 
L 99.987037 30.886462 
L 100.074875 30.863563 
L 100.007705 30.90633 
L 100.100709 30.89094 
L 100.297052 30.702543 
L 100.121377 30.927853 
L 100.317719 30.778718 
L 100.384889 30.831888 
L 100.431391 30.779468 
L 100.462393 30.730726 
L 100.514062 30.809734 
L 100.539896 30.800091 
L 100.669069 30.87319 
L 100.581232 30.727672 
L 100.689737 30.841245 
L 100.731072 30.792679 
L 100.777574 30.89772 
L 100.787908 30.889913 
L 100.824076 30.927446 
L 100.870578 30.850538 
L 100.880912 30.865493 
L 100.91708 30.745786 
L 100.994584 30.818588 
L 101.128924 30.780399 
L 101.010085 30.839836 
L 101.149591 30.806555 
L 101.180593 30.772049 
L 101.26843 30.791156 
L 101.387269 30.741229 
L 101.397603 30.763333 
L 101.500941 30.842927 
L 101.521608 30.814916 
L 101.562944 30.909846 
L 101.63528 30.808335 
L 101.841957 30.922257 
L 101.857457 30.899628 
L 101.914293 31.027645 
L 102.038299 31.076882 
L 102.043466 31.067225 
L 102.0693 31.104741 
L 102.151971 31.043416 
L 102.28631 30.909381 
L 102.291477 30.912723 
L 102.410316 31.003055 
L 102.415483 30.997735 
L 102.42065 31.020143 
L 102.508487 30.942049 
L 102.518821 30.960837 
L 102.57049 30.905096 
L 102.632493 30.952558 
L 102.694496 31.072838 
L 102.756499 30.985923 
L 102.875338 30.875892 
L 102.880505 30.888944 
L 102.906339 30.827697 
L 102.968342 30.937431 
L 102.983843 30.920552 
L 103.045846 30.985138 
L 103.00451 30.902559 
L 103.092348 30.902648 
L 103.820882 30.4062 
L 103.841549 30.442316 
L 103.85705 30.471207 
L 103.929387 30.405471 
L 103.950054 30.422328 
L 103.986223 30.402384 
L 104.079227 30.478277 
L 104.285903 30.317677 
L 104.35824 30.377361 
L 104.399575 30.330745 
L 104.502913 30.280734 
L 104.518414 30.309989 
L 104.663087 30.472115 
L 104.79226 30.386066 
L 104.807761 30.387036 
L 104.833595 30.31686 
L 104.864597 30.334476 
L 104.9421 30.299811 
L 104.916266 30.367404 
L 104.973102 30.332965 
L 105.231447 30.445237 
L 105.241781 30.416914 
L 105.314117 30.362556 
L 105.355453 30.380304 
L 105.494959 30.436298 
L 105.500126 30.416165 
L 105.618965 30.357473 
L 105.696468 30.407704 
L 105.722303 30.334041 
L 105.872143 30.127891 
L 106.130488 30.177897 
L 106.207992 30.14406 
L 106.233827 30.194508 
L 106.238993 30.232082 
L 106.331998 30.16619 
L 106.337165 30.179017 
L 106.368166 30.15714 
L 106.414668 30.231289 
L 106.430169 30.221305 
L 106.523173 30.321438 
L 106.549008 30.283347 
L 106.719516 30.070507 
L 106.724683 30.083693 
L 106.776352 30.130116 
L 106.843521 30.096192 
L 106.915858 30.081752 
L 106.890024 30.143063 
L 106.957193 30.108861 
L 106.977861 30.09544 
L 107.107034 30.171071 
L 107.225872 30.053179 
L 107.231039 30.078726 
L 107.256874 30.131989 
L 107.308543 30.030489 
L 107.334378 30.06544 
L 107.437716 29.994711 
L 107.448049 30.013811 
L 107.468717 30.061566 
L 107.556554 30.012601 
L 107.706395 29.940989 
L 107.727062 29.976953 
L 107.752897 30.021727 
L 107.809733 29.864493 
L 107.8149 29.863759 
L 107.933739 29.880504 
L 107.949239 29.866777 
L 108.18175 29.830587 
L 108.300589 29.880697 
L 108.388426 29.870167 
L 108.352258 29.809622 
L 108.403927 29.848947 
L 108.440095 29.851547 
L 108.46593 29.916225 
L 108.496931 29.907987 
L 108.641605 30.058089 
L 108.667439 30.018262 
L 108.75011 29.924867 
L 108.791445 29.975766 
L 108.946452 30.001379 
L 108.956786 29.957372 
L 109.091126 29.813596 
L 109.101459 29.819961 
L 109.271967 29.889145 
L 109.344304 30.060124 
L 109.411474 30.015298 
L 109.519979 29.887862 
L 109.55098 29.952195 
L 109.561314 29.994008 
L 109.597482 29.882041 
L 109.643984 29.878712 
L 109.649151 29.855935 
L 109.726655 29.920657 
L 109.747323 29.920726 
L 109.866161 29.891887 
L 110.021169 29.799574 
L 110.098672 29.739676 
L 110.072838 29.815982 
L 110.134841 29.776281 
L 110.171009 29.810958 
L 110.227845 29.698229 
L 110.295015 29.618218 
L 110.33635 29.691429 
L 110.470689 29.842659 
L 110.475856 29.834564 
L 110.589528 29.68301 
L 110.615363 29.706042 
L 111.095885 29.621319 
L 111.132053 29.667252 
L 111.111386 29.615127 
L 111.20439 29.61412 
L 111.442068 29.695112 
L 111.447235 29.681205 
L 111.540239 29.60803 
L 111.57124 29.644535 
L 111.576407 29.651818 
L 111.633243 29.565935 
L 111.648744 29.568429 
L 111.819252 29.38986 
L 111.876088 29.341595 
L 111.92259 29.425541 
L 112.041429 29.429044 
L 112.056929 29.465542 
L 112.077597 29.528396 
L 112.170601 29.48649 
L 112.434114 29.307214 
L 112.439281 29.322182 
L 112.49095 29.248089 
L 112.537452 29.284535 
L 112.578787 29.264889 
L 112.614955 29.346565 
L 112.635623 29.333069 
L 112.878468 29.310187 
L 112.888801 29.335393 
L 112.981806 29.417324 
L 112.914636 29.317149 
L 113.012807 29.381889 
L 113.152314 29.390936 
L 113.234984 29.389838 
L 113.22465 29.424146 
L 113.250485 29.427302 
L 113.317655 29.430229 
L 113.276319 29.389928 
L 113.348656 29.383034 
L 113.37449 29.385412 
L 113.415826 29.444318 
L 113.436493 29.440111 
L 113.534665 29.540706 
L 113.550165 29.471112 
L 113.638003 29.471972 
L 113.648336 29.438742 
L 113.782676 29.292368 
L 113.79301 29.309658 
L 113.798177 29.31883 
L 113.855013 29.209357 
L 113.880847 29.162561 
L 113.94285 29.283492 
L 113.948017 29.280007 
L 114.030688 29.260141 
L 113.984185 29.23473 
L 114.051355 29.243181 
L 114.252864 29.046132 
L 114.268365 29.063788 
L 114.552545 29.087776 
L 114.562879 29.054853 
L 114.676551 29.034766 
L 114.681718 29.066469 
L 114.841892 29.064864 
L 114.94523 29.058452 
L 114.872893 29.086437 
L 114.950397 29.069935 
L 114.986565 29.068072 
L 114.971064 29.01707 
L 115.048568 29.030494 
L 115.100237 28.900785 
L 115.16224 28.972475 
L 115.167407 28.991432 
L 115.239744 28.891899 
L 115.255244 28.892025 
L 116.500469 28.656805 
L 116.505635 28.6806 
L 116.541804 28.58288 
L 116.603807 28.619238 
L 116.903487 28.610957 
L 117.03266 28.470383 
L 117.058494 28.500525 
L 117.11533 28.39764 
L 117.389176 28.255733 
L 117.135998 28.425456 
L 117.409844 28.282485 
L 117.492514 28.335721 
L 117.456346 28.249318 
L 117.523516 28.308349 
L 117.595853 28.260683 
L 117.637188 28.288489 
L 117.678523 28.292768 
L 117.709525 28.205881 
L 117.730192 28.170471 
L 117.756027 28.217458 
L 117.823196 28.199269 
L 117.973037 28.008266 
L 118.05054 28.083927 
L 118.091876 28.073988 
L 118.288218 27.816277 
L 118.33472 27.860508 
L 118.350221 27.895911 
L 118.381222 27.927866 
L 118.427724 27.79691 
L 118.432891 27.807629 
L 118.438058 27.788669 
L 118.48456 27.889436 
L 118.525896 27.858298 
L 118.556897 27.94949 
L 118.649901 27.872786 
L 118.846244 27.79591 
L 118.660235 27.884905 
L 118.861745 27.819715 
L 119.001251 27.736327 
L 119.145924 27.587637 
L 119.151091 27.59466 
L 119.161425 27.600698 
L 119.182093 27.500567 
L 119.192427 27.503611 
L 119.218261 27.464926 
L 119.26993 27.528089 
L 119.300932 27.506289 
L 119.512775 27.323646 
L 119.688449 26.933474 
L 119.724618 26.850079 
L 120.039799 24.86019 
L 120.0553 18.931673 
L 120.065634 10.666064 
L 120.163805 19.302827 
L 120.236141 27.376424 
L 120.365314 25.961105 
L 120.437651 23.881186 
L 120.453152 12.370494 
L 120.55649 21.24852 
L 120.597825 27.949311 
L 120.721831 26.286952 
L 120.804501 23.184028 
L 120.820002 12.162411 
L 120.918173 20.621405 
L 120.969842 28.459705 
L 121.114515 26.449313 
L 121.197186 23.907063 
L 121.212687 11.874629 
L 121.316025 20.299096 
L 121.372861 28.930489 
L 121.527868 26.860044 
L 121.631206 24.187518 
L 121.646707 11.660197 
L 121.750045 19.853942 
L 121.817215 29.295183 
L 121.977389 27.276393 
L 122.106561 24.413624 
L 122.127229 11.495256 
L 122.235734 20.185195 
L 122.297737 29.561981 
L 122.463078 27.622906 
L 122.618085 24.861493 
L 122.633586 16.142822 
L 122.64392 11.384491 
L 122.736924 19.113861 
L 122.814428 29.760349 
L 122.979769 27.964505 
L 123.176111 24.680321 
L 123.196779 11.276621 
L 123.315617 20.646672 
L 123.367286 29.87747 
L 123.527461 28.292925 
L 123.749637 25.518585 
L 123.780639 22.961247 
L 123.790973 11.23985 
L 123.889144 19.228934 
L 123.966648 29.961802 
L 124.131989 28.329064 
L 124.38 25.592228 
L 124.38 25.592228 
" style="fill:none;stroke:#000000;stroke-linecap:square;stroke-width:0.3;"/>
   </g>
   <g id="line2d_2">
    <path clip-path="url(#p763767ccf0)" d="M 12.78 54.171093 
L 12.821335 54.153554 
L 12.795501 54.200678 
L 12.873004 54.21676 
L 12.878171 54.235934 
L 12.935007 54.1114 
L 12.966009 54.146357 
L 13.100348 54.147233 
L 12.986676 54.11385 
L 13.105515 54.141994 
L 13.183019 54.1434 
L 13.126183 54.17478 
L 13.203686 54.191256 
L 13.544702 54.098876 
L 13.601538 54.029781 
L 13.555036 54.106562 
L 13.64804 54.122858 
L 13.78238 54.251687 
L 13.93222 54.098329 
L 13.79788 54.268964 
L 13.937387 54.130987 
L 14.040725 54.16143 
L 13.958055 54.075553 
L 14.056226 54.143088 
L 14.113062 54.033222 
L 14.169898 54.116668 
L 14.175065 54.13273 
L 14.2164 54.057001 
L 14.268069 54.084902 
L 14.361073 54.049946 
L 14.29907 54.098966 
L 14.376574 54.108318 
L 14.386908 54.101489 
L 14.505747 54.166812 
L 14.676254 54.167354 
L 14.51608 54.14383 
L 14.681421 54.146368 
L 14.779593 54.110724 
L 14.805427 54.152074 
L 14.882931 54.073317 
L 15.027604 54.001998 
L 15.167111 54.159764 
L 15.177444 54.110512 
L 15.265282 54.20858 
L 15.275616 54.183977 
L 15.296283 54.222378 
L 15.358286 54.098228 
L 15.611464 54.127114 
L 15.704469 54.165212 
L 15.632132 54.097705 
L 15.730303 54.129998 
L 16.01965 54.180204 
L 16.122988 54.169854 
L 16.097154 54.133607 
L 16.128155 54.166157 
L 16.246994 54.154185 
L 16.143656 54.185113 
L 16.252161 54.164571 
L 16.371 54.230868 
L 16.272828 54.149328 
L 16.381333 54.209727 
L 16.644846 54.065011 
L 16.748184 53.998355 
L 16.763684 54.018937 
L 17.02203 54.161219 
L 17.1047 54.141572 
L 17.078866 54.203397 
L 17.130535 54.162958 
L 17.146035 54.134008 
L 17.244207 54.120692 
L 17.363046 54.086806 
L 18.03991 54.142563 
L 18.158749 54.145245 
L 18.169083 54.157206 
L 18.303422 54.164055 
L 18.313756 54.127674 
L 18.463596 54.008325 
L 18.344758 54.180561 
L 18.489431 54.057118 
L 18.623771 54.189569 
L 18.634104 54.167534 
L 18.706441 54.233825 
L 18.747776 54.161237 
L 18.820113 54.195797 
L 18.789112 54.116521 
L 18.856281 54.155088 
L 18.933785 54.050783 
L 18.980287 54.114488 
L 19.000955 54.139988 
L 19.078458 54.068678 
L 19.083625 54.08007 
L 19.202464 54.011205 
L 19.12496 54.137404 
L 19.207631 54.024793 
L 19.300635 54.088146 
L 19.243799 54.003418 
L 19.32647 54.051786 
L 19.378139 54.051558 
L 19.40914 54.13229 
L 19.538313 54.246824 
L 19.558981 54.217332 
L 19.600316 54.16641 
L 19.672652 54.212378 
L 19.76049 54.138767 
L 19.69332 54.23381 
L 19.786324 54.20238 
L 19.791491 54.22434 
L 19.874162 54.107847 
L 20.101506 54.037712 
L 20.106673 54.059505 
L 20.179009 54.137321 
L 20.246179 54.087005 
L 20.349517 53.95891 
L 20.370185 53.997985 
L 20.551026 54.220369 
L 20.56136 54.195272 
L 20.587195 54.145154 
L 20.664698 54.231002 
L 20.669865 54.20976 
L 20.881708 54.198022 
L 20.886875 54.221686 
L 20.902376 54.200292 
L 21.000547 54.193736 
L 21.155554 54.072308 
L 21.295061 54.208039 
L 21.310562 54.171008 
L 21.351897 54.085297 
L 21.4294 54.166131 
L 21.470736 54.246454 
L 21.527572 54.117899 
L 21.667078 53.990854 
L 21.703246 54.049395 
L 21.827252 54.092601 
L 21.832419 54.084345 
L 21.977092 53.985698 
L 21.982259 53.987869 
L 22.1476 54.113915 
L 22.261272 54.20716 
L 22.157934 54.099837 
L 22.297441 54.164614 
L 22.354277 54.142261 
L 22.323275 54.206175 
L 22.395612 54.19327 
L 22.43178 54.239317 
L 22.493783 54.15573 
L 22.49895 54.170135 
L 22.617789 54.141862 
L 22.514451 54.183135 
L 22.622956 54.173856 
L 22.705626 54.126512 
L 22.664291 54.105122 
L 22.71596 54.115117 
L 22.958805 53.964829 
L 22.974305 54.004248 
L 23.087977 54.051854 
L 23.093144 54.046755 
L 23.211983 54.15162 
L 23.315321 54.402156 
L 23.351489 54.38769 
L 23.36699 54.381544 
L 23.485829 54.450075 
L 23.589167 54.383597 
L 23.527164 54.481535 
L 23.599501 54.430249 
L 23.604668 54.472466 
L 23.640836 54.398586 
L 23.708006 54.455632 
L 23.857846 54.313213 
L 23.961184 54.443781 
L 24.00252 54.415218 
L 24.100691 54.409546 
L 24.038688 54.443142 
L 24.111025 54.415029 
L 24.136859 54.41703 
L 24.173027 54.313458 
L 24.178194 54.316578 
L 24.266032 54.298606 
L 24.204029 54.342526 
L 24.281532 54.350767 
L 24.312534 54.404247 
L 24.364203 54.314147 
L 24.395204 54.354174 
L 24.514043 54.356057 
L 24.524377 54.368265 
L 24.591547 54.411283 
L 24.617381 54.31168 
L 24.627715 54.329483 
L 24.751721 54.296766 
L 24.643216 54.342748 
L 24.756888 54.304926 
L 24.88606 54.385178 
L 24.844725 54.257026 
L 24.896394 54.37298 
L 25.010066 54.320665 
L 24.932563 54.419273 
L 25.041068 54.351628 
L 25.128905 54.42271 
L 25.165073 54.38587 
L 25.278745 54.273423 
L 25.309747 54.289374 
L 25.356249 54.372124 
L 25.428586 54.324642 
L 25.728266 54.277153 
L 25.836771 54.256572 
L 25.785102 54.310117 
L 25.852272 54.267036 
L 25.903941 54.33569 
L 25.960777 54.248275 
L 26.136452 54.26666 
L 26.146785 54.253027 
L 26.177787 54.326567 
L 26.224289 54.334269 
L 26.291459 54.372959 
L 26.32246 54.284371 
L 26.327627 54.292458 
L 26.441299 54.202939 
L 26.348295 54.325508 
L 26.492968 54.275184 
L 26.689311 54.324762 
L 26.777148 54.139376 
L 26.818483 54.20285 
L 26.916654 54.22547 
L 26.932155 54.267732 
L 26.97349 54.242309 
L 27.050994 54.30028 
L 27.164666 54.29514 
L 27.180167 54.272725 
L 27.443679 54.319768 
L 27.448846 54.358413 
L 27.526349 54.267933 
L 27.547017 54.286941 
L 27.562518 54.245835 
L 27.810529 54.335975 
L 27.955203 54.193622 
L 27.960369 54.195926 
L 28.063708 54.324512 
L 28.115377 54.27594 
L 28.26005 54.19766 
L 28.265217 54.204412 
L 28.275551 54.190418 
L 28.451226 54.345099 
L 28.564897 54.247645 
L 28.575231 54.27469 
L 28.719905 54.250272 
L 28.730238 54.27123 
L 28.735405 54.283024 
L 28.812909 54.186756 
L 28.823243 54.230427 
L 28.895579 54.274865 
L 28.942082 54.209502 
L 29.029919 54.254035 
L 29.06092 54.19009 
L 29.086755 54.130936 
L 29.159092 54.247998 
L 29.231428 54.318677 
L 29.27793 54.230914 
L 29.386435 54.274172 
L 29.308932 54.219852 
L 29.391602 54.250875 
L 29.47944 54.252849 
L 29.432938 54.286954 
L 29.494941 54.276699 
L 29.551776 54.303058 
L 29.567277 54.226114 
L 29.593112 54.223414 
L 29.69645 54.185915 
L 29.706784 54.204265 
L 29.815289 54.256565 
L 29.820456 54.232651 
L 29.944461 54.118464 
L 29.954795 54.140301 
L 30.037466 54.254694 
L 30.094302 54.206212 
L 30.104635 54.226519 
L 30.202807 54.229307 
L 30.306145 54.276342 
L 30.337146 54.208423 
L 30.404316 54.146391 
L 30.450818 54.180762 
L 30.688496 54.264782 
L 30.693663 54.249374 
L 30.828002 54.183057 
L 30.972676 54.288548 
L 30.983009 54.261804 
L 31.06568 54.327029 
L 31.070847 54.365249 
L 31.086348 54.314741 
L 31.174185 54.323054 
L 31.34986 54.191589 
L 31.427363 54.267684 
L 31.375694 54.16785 
L 31.458365 54.184515 
L 31.510034 54.120037 
L 31.479032 54.140323 
L 31.515201 54.100907 
L 31.520368 54.076163 
L 31.592704 54.171743 
L 31.613372 54.156954 
L 31.670208 54.208474 
L 31.628873 54.127267 
L 31.737378 54.131742 
L 31.85105 54.091017 
L 31.856216 54.095086 
L 32.016391 54.183737 
L 32.052559 54.126888 
L 32.130063 54.169799 
L 32.269569 53.997665 
L 32.274736 54.017498 
L 32.414242 54.074444 
L 32.424576 54.046268 
L 32.73459 53.931016 
L 32.755258 53.872103 
L 32.837929 53.940117 
L 32.853429 53.97681 
L 32.915432 53.871688 
L 32.946434 53.920543 
L 32.961934 53.953552 
L 33.044605 53.866826 
L 33.049772 53.878884 
L 33.142776 53.88817 
L 33.075606 53.861377 
L 33.15311 53.838814 
L 33.282283 53.729037 
L 33.163444 53.850272 
L 33.308117 53.748883 
L 33.421789 53.776245 
L 33.339118 53.718515 
L 33.43729 53.765093 
L 33.58713 53.638252 
L 33.592297 53.65814 
L 33.602631 53.70846 
L 33.618131 53.625697 
L 33.700802 53.652029 
L 33.757638 53.549645 
L 33.850642 53.51929 
L 33.881644 53.552012 
L 33.933313 53.564468 
L 33.912645 53.511246 
L 33.984982 53.521469 
L 34.052151 53.441656 
L 34.145156 53.329136 
L 34.17099 53.36322 
L 34.207159 53.471365 
L 34.232993 53.427099 
L 34.388 53.525546 
L 34.424169 53.448223 
L 34.465504 53.561289 
L 34.501672 53.517463 
L 35.349045 53.031222 
L 34.537841 53.572042 
L 35.354212 53.04052 
L 35.560888 52.980148 
L 35.695228 52.767026 
L 35.700394 52.783877 
L 35.803733 52.897568 
L 35.8244 52.883807 
L 35.994908 52.636931 
L 36.005242 52.663697 
L 36.015576 52.686953 
L 36.051744 52.619346 
L 36.113747 52.645801 
L 36.196417 52.590406 
L 36.294589 52.519053 
L 36.310089 52.548631 
L 36.589102 52.64251 
L 36.599436 52.621655 
L 36.707941 52.581354 
L 36.630438 52.658011 
L 36.723442 52.63033 
L 36.749276 52.666913 
L 36.816446 52.559772 
L 36.899117 52.487132 
L 36.935285 52.544099 
L 36.986954 52.601818 
L 37.048957 52.548774 
L 37.234966 52.436401 
L 37.358971 52.38211 
L 37.384806 52.438229 
L 37.462309 52.545551 
L 37.54498 52.444805 
L 38.258013 51.913037 
L 38.27868 51.953663 
L 38.340683 51.862249 
L 38.366518 51.793692 
L 38.397519 51.876264 
L 38.459522 51.825076 
L 38.54736 51.898304 
L 38.666198 51.970121 
L 38.681699 51.92863 
L 38.852207 51.66716 
L 38.857374 51.673359 
L 38.940044 51.759097 
L 38.965879 51.659771 
L 39.182889 51.627599 
L 39.467069 51.367305 
L 39.472236 51.374855 
L 39.49807 51.409312 
L 39.560073 51.292209 
L 39.616909 51.187554 
L 39.678912 51.252467 
L 39.802918 51.245972 
L 39.818418 51.275807 
L 39.952758 51.327061 
L 40.107765 51.18526 
L 40.252439 51.117226 
L 40.355777 51.145397 
L 40.273106 51.06091 
L 40.371277 51.111604 
L 40.43328 51.136041 
L 40.490116 51.085033 
L 40.712293 50.948228 
L 40.71746 50.972407 
L 40.794964 50.876426 
L 40.810464 50.896061 
L 40.986139 50.631581 
L 40.991306 50.641214 
L 41.06881 50.64607 
L 41.022308 50.577668 
L 41.094644 50.604711 
L 41.156647 50.629904 
L 41.187649 50.534657 
L 41.404659 50.233698 
L 41.471828 50.267416 
L 41.507997 50.196424 
L 41.745674 49.917667 
L 41.750841 49.921968 
L 41.78701 49.814367 
L 41.905848 49.599983 
L 42.122858 47.797568 
L 42.143526 39.025879 
L 42.15386 34.888581 
L 42.23653 49.056299 
L 42.277866 53.782549 
L 42.355369 53.367035 
L 42.598214 50.712872 
L 42.732553 47.932036 
L 42.753221 34.828232 
L 42.851392 45.435068 
L 42.897894 54.124327 
L 43.001232 53.583171 
L 43.151073 52.305182 
L 43.38875 48.837085 
L 43.419752 44.898882 
L 43.430086 35.045369 
L 43.528257 45.764835 
L 43.574759 54.137595 
L 43.667763 53.656813 
L 44.02428 49.797886 
L 44.101783 47.667059 
L 44.122451 35.048718 
L 44.215455 45.564163 
L 44.261957 54.199401 
L 44.365296 53.691871 
L 44.447966 53.172333 
L 44.752814 49.873283 
L 44.840651 47.984166 
L 44.866485 35.056337 
L 44.95949 46.199395 
L 45.000825 54.291271 
L 45.088662 53.972442 
L 45.615687 49.50499 
L 45.69319 46.7855 
L 45.708691 34.982393 
L 45.801695 46.350542 
L 45.858531 54.385057 
L 45.930868 54.09653 
L 46.065208 53.458709 
L 46.452726 50.594494 
L 46.649068 48.39332 
L 46.669736 45.075876 
L 46.685236 34.919428 
L 46.773074 46.647613 
L 46.819576 54.48778 
L 46.897079 54.242434 
L 46.902246 54.247059 
L 46.928081 54.152014 
L 47.84779 48.928119 
L 47.894292 47.393732 
L 47.920127 35.002879 
L 47.99763 46.323007 
L 48.044133 54.489493 
L 48.13197 54.288125 
L 48.617659 52.29881 
L 49.563203 48.46615 
L 49.599371 46.294748 
L 49.620039 35.286423 
L 49.697542 49.943805 
L 49.764712 54.383825 
L 49.816381 54.16577 
L 50.291737 52.194246 
L 50.508747 51.250759 
L 51.211446 49.665513 
L 51.278616 49.64011 
L 51.242447 49.608334 
L 51.288949 49.616494 
L 51.340619 49.535535 
L 51.397455 49.59945 
L 51.412955 49.56754 
L 51.52146 49.613342 
L 51.645466 49.493661 
L 51.6558 49.500424 
L 51.831475 49.381785 
L 51.945147 49.411979 
L 51.950313 49.401915 
L 52.187991 49.065719 
L 52.203492 49.079085 
L 52.332664 49.01289 
L 52.642679 49.285997 
L 52.647846 49.273448 
L 52.704682 49.37056 
L 52.725349 49.376481 
L 52.782185 49.390279 
L 52.756351 49.437126 
L 52.787352 49.442138 
L 52.952693 51.474618 
L 53.143869 52.98401 
L 53.360879 53.4558 
L 53.562388 53.824856 
L 53.572722 53.794822 
L 53.583056 53.78458 
L 53.639892 53.884754 
L 53.753564 53.949368 
L 53.75873 53.930481 
L 53.769064 53.906929 
L 53.846568 54.010408 
L 54.022243 54.216844 
L 54.032577 54.162866 
L 54.120414 54.255871 
L 54.125581 54.235108 
L 54.228919 54.251379 
L 54.146248 54.206714 
L 54.249587 54.238076 
L 54.750776 54.265517 
L 54.817946 54.262592 
L 54.771444 54.288314 
L 54.854115 54.300462 
L 54.879949 54.34446 
L 55.019456 54.308716 
L 55.107293 54.248864 
L 55.133127 54.304503 
L 55.138294 54.306911 
L 55.169296 54.220017 
L 55.17963 54.212575 
L 55.210631 54.158423 
L 55.277801 54.254356 
L 55.282968 54.249492 
L 55.381139 54.329211 
L 55.303635 54.24001 
L 55.422474 54.300454 
L 55.608483 54.323932 
L 55.61365 54.337319 
L 55.618817 54.349737 
L 55.654985 54.27934 
L 55.69632 54.263609 
L 55.825493 54.195009 
L 55.835827 54.211299 
L 55.902996 54.217142 
L 55.877162 54.179578 
L 55.939165 54.200844 
L 55.990834 54.112148 
L 56.052837 54.195161 
L 56.13034 54.286354 
L 56.063171 54.192165 
L 56.171676 54.212177 
L 56.244012 54.208688 
L 56.218178 54.171635 
L 56.26468 54.156852 
L 56.275014 54.184467 
L 56.41452 54.194552 
L 56.585028 54.25014 
L 56.430021 54.16452 
L 56.600529 54.209923 
L 56.786537 54.103415 
L 56.817539 54.206485 
L 56.895042 54.098929 
L 57.055216 53.969033 
L 56.905376 54.120757 
L 57.101719 54.031013 
L 57.261893 54.235995 
L 57.323896 54.304676 
L 57.292894 54.207582 
L 57.365231 54.216853 
L 57.515071 54.174798 
L 57.385898 54.252988 
L 57.520238 54.196924 
L 57.63391 54.261563 
L 57.654578 54.238398 
L 58.062763 54.178155 
L 58.06793 54.209085 
L 58.186769 54.259598 
L 58.197103 54.216059 
L 58.315941 54.10162 
L 58.321108 54.109741 
L 58.65179 54.094288 
L 58.667291 54.036343 
L 58.755128 54.157531 
L 58.863634 54.22185 
L 58.8688 54.236505 
L 58.930803 54.096009 
L 58.941137 54.109611 
L 59.044475 54.122803 
L 59.059976 54.172019 
L 59.142646 54.200246 
L 59.121979 54.13326 
L 59.173648 54.175185 
L 59.235651 54.206814 
L 59.292487 54.179571 
L 59.35449 54.141717 
L 59.390658 54.22284 
L 59.400992 54.241979 
L 59.473328 54.139508 
L 59.483662 54.153776 
L 59.581833 54.084615 
L 59.50433 54.173913 
L 59.607668 54.119527 
L 59.705839 54.164055 
L 59.736841 54.137877 
L 59.778176 54.16535 
L 59.876347 54.032647 
L 59.886681 54.081631 
L 59.969351 53.959873 
L 59.990019 54.014458 
L 60.077856 53.990711 
L 60.227697 53.988642 
L 60.08819 54.013629 
L 60.232864 54.007032 
L 60.341369 54.122259 
L 60.356869 54.097945 
L 60.480875 54.150411 
L 60.517043 54.16607 
L 60.563546 54.088571 
L 60.584213 54.116234 
L 60.708219 54.116051 
L 60.718553 54.09868 
L 60.790889 53.958932 
L 60.852892 54.01203 
L 61.100904 54.14078 
L 61.116404 54.102982 
L 61.126738 54.084262 
L 61.15774 54.208056 
L 61.199075 54.274301 
L 61.24041 54.181807 
L 61.271412 54.205533 
L 61.974111 54.110632 
L 62.072282 54.249055 
L 62.098117 54.234981 
L 62.216955 54.192355 
L 62.315127 54.235641 
L 62.335794 54.19971 
L 62.506302 54.156435 
L 62.516636 54.204194 
L 62.573472 54.077274 
L 62.604473 54.103852 
L 62.692311 54.039535 
L 62.718145 54.09439 
L 62.821483 54.005629 
L 62.82665 53.98344 
L 62.898987 54.136622 
L 63.033327 54.24411 
L 63.172833 54.16506 
L 63.178 54.177393 
L 63.219335 54.160002 
L 63.302006 54.211759 
L 63.400177 54.097848 
L 63.338174 54.222062 
L 63.426011 54.129667 
L 63.648188 54.066004 
L 63.663689 54.092821 
L 63.798029 54.279804 
L 63.958203 54.108223 
L 63.96337 54.095327 
L 64.035706 54.185455 
L 64.04604 54.169815 
L 64.170046 54.191823 
L 64.226882 54.235956 
L 64.294052 54.046759 
L 64.433558 54.084441 
L 64.552397 54.191745 
L 64.567898 54.176441 
L 64.676403 54.161754 
L 64.578231 54.183374 
L 64.68157 54.172818 
L 64.826243 54.281997 
L 64.836577 54.261361 
L 64.919247 54.104967 
L 64.955416 54.176663 
L 65.156925 54.150346 
L 65.162092 54.115883 
L 65.203427 54.037661 
L 65.280931 54.099877 
L 65.358434 54.113662 
L 65.322266 54.040896 
L 65.384269 54.059919 
L 65.539276 54.183419 
L 65.410103 54.032134 
L 65.554777 54.165321 
L 65.585778 54.166177 
L 65.621946 54.253706 
L 65.627113 54.24124 
L 65.647781 54.308664 
L 65.725285 54.163082 
L 65.756286 54.07386 
L 65.838956 54.149048 
L 65.968129 54.177123 
L 65.973296 54.158407 
L 66.092135 54.104758 
L 65.993964 54.18709 
L 66.097302 54.11447 
L 66.195473 54.0938 
L 66.112802 54.140975 
L 66.226474 54.125723 
L 66.309145 54.130905 
L 66.26781 54.053684 
L 66.324646 54.085722 
L 66.458985 54.010422 
L 66.562323 54.087651 
L 66.593325 54.035185 
L 66.805168 54.163562 
L 66.815502 54.149607 
L 66.929174 54.011937 
L 66.965342 54.077637 
L 67.053179 54.193378 
L 67.084181 54.128766 
L 67.223687 54.224285 
L 67.337359 54.135339 
L 67.254689 54.257233 
L 67.358027 54.162255 
L 67.487199 54.285012 
L 67.497533 54.281586 
L 67.647373 54.114373 
L 67.662874 54.120641 
L 67.771379 54.221904 
L 67.709376 54.083197 
L 67.802381 54.179326 
L 67.962555 54.007338 
L 67.988389 54.044785 
L 68.034891 54.147295 
L 68.091727 54.014416 
L 68.096894 54.030479 
L 68.164064 53.968141 
L 68.246735 54.168381 
L 68.784093 54.084497 
L 68.846096 54.040418 
L 68.866763 54.152723 
L 68.87193 54.150877 
L 69.016604 54.442021 
L 69.08894 54.367381 
L 69.192278 54.317146 
L 69.218113 54.352789 
L 69.22328 54.374528 
L 69.249114 54.302058 
L 69.326618 54.33735 
L 69.378287 54.276866 
L 69.414455 54.382294 
L 69.435123 54.363572 
L 69.491959 54.359553 
L 69.471291 54.289865 
L 69.517793 54.294284 
L 69.553962 54.220265 
L 69.615965 54.358328 
L 69.750304 54.263483 
L 69.641799 54.385306 
L 69.765805 54.272797 
L 69.869143 54.400226 
L 69.894978 54.355358 
L 69.987982 54.335262 
L 69.925979 54.40335 
L 70.008649 54.368004 
L 70.365166 54.298951 
L 70.453003 54.332854 
L 70.478838 54.286937 
L 70.494339 54.260525 
L 70.515006 54.323897 
L 70.582176 54.332171 
L 70.716516 54.408453 
L 70.737183 54.382282 
L 70.788852 54.299658 
L 70.866356 54.33261 
L 70.933526 54.362291 
L 70.887023 54.30304 
L 70.980028 54.325658 
L 71.052364 54.272516 
L 71.000695 54.356507 
L 71.0937 54.325566 
L 71.191871 54.402321 
L 71.119534 54.297453 
L 71.217705 54.323387 
L 71.295209 54.380326 
L 71.346878 54.272036 
L 71.357212 54.251006 
L 71.388213 54.327245 
L 71.429549 54.344054 
L 71.96174 54.302084 
L 72.049577 54.388882 
L 72.075412 54.329405 
L 72.220085 54.262381 
L 72.240753 54.287879 
L 72.26142 54.252154 
L 72.359592 54.309555 
L 72.431928 54.248461 
L 72.47843 54.259158 
L 72.61277 54.343508 
L 72.488764 54.246028 
L 72.643771 54.305985 
L 72.690274 54.278093 
L 72.674773 54.333693 
L 72.74711 54.337414 
L 72.767777 54.381267 
L 72.814279 54.29192 
L 72.845281 54.29076 
L 72.974453 54.248886 
L 73.175963 54.191803 
L 73.010622 54.32291 
L 73.201797 54.244567 
L 73.274134 54.382979 
L 73.33097 54.356414 
L 73.475643 54.280467 
L 73.501478 54.241477 
L 73.584148 54.24366 
L 73.69782 54.173789 
L 73.599649 54.272796 
L 73.702987 54.200753 
L 73.811492 54.323901 
L 73.826993 54.281301 
L 74.447022 54.210624 
L 74.467689 54.205911 
L 74.571027 54.298655 
L 74.751869 54.358004 
L 74.581361 54.282042 
L 74.762203 54.299277 
L 75.309895 54.264921 
L 75.433901 54.360262 
L 75.56824 54.244339 
L 75.645744 54.205508 
L 75.70258 54.289518 
L 75.935091 54.208183 
L 75.945424 54.246606 
L 76.048762 54.191965 
L 76.141767 54.18591 
L 76.110765 54.231162 
L 76.162434 54.199478 
L 76.358777 54.272414 
L 76.177935 54.163247 
L 76.379444 54.218504 
L 76.384611 54.209509 
L 76.446614 54.290527 
L 76.462115 54.276529 
L 76.482783 54.246575 
L 76.580954 54.293267 
L 76.658457 54.25695 
L 76.606788 54.309333 
L 76.694626 54.287109 
L 76.761795 54.29755 
L 76.78763 54.23062 
L 76.916803 54.184434 
L 77.051142 54.307648 
L 77.056309 54.292645 
L 77.314654 54.181975 
L 77.397325 54.254543 
L 77.433493 54.199947 
L 77.578167 54.294444 
L 77.593667 54.260838 
L 77.72284 54.220146 
L 77.841679 54.286636 
L 77.986352 54.235095 
L 77.991519 54.249324 
L 78.02252 54.322176 
L 78.094857 54.237173 
L 78.100024 54.223864 
L 78.15686 54.344524 
L 78.187861 54.297133 
L 78.270532 54.333245 
L 78.296366 54.276532 
L 78.420372 54.172627 
L 78.761388 54.225512 
L 78.87506 54.116458 
L 78.906061 54.129535 
L 79.138572 53.964722 
L 79.143739 53.984209 
L 79.262578 54.03464 
L 79.272912 54.022368 
L 79.830938 53.955776 
L 79.944609 53.942731 
L 79.841271 53.927058 
L 79.949776 53.897928 
L 80.089283 53.798666 
L 80.270125 53.918794 
L 80.275291 53.889591 
L 80.414798 53.743386 
L 80.492301 53.633528 
L 80.549137 53.685261 
L 80.631808 53.760277 
L 80.673143 53.711021 
L 80.843651 53.58239 
L 80.869486 53.6183 
L 80.874653 53.634234 
L 80.926322 53.56003 
L 80.972824 53.590197 
L 81.122664 53.465414 
L 80.983158 53.598297 
L 81.132998 53.471997 
L 81.143332 53.516242 
L 81.210501 53.324452 
L 81.215668 53.325571 
L 81.365509 53.189287 
L 81.370675 53.200253 
L 81.468847 53.203805 
L 81.391343 53.184665 
L 81.484347 53.192022 
L 81.572185 53.046883 
L 81.618687 53.084064 
L 81.685857 53.094801 
L 81.649688 53.132747 
L 81.701357 53.142794 
L 81.711691 53.21705 
L 81.815029 53.159128 
L 81.96487 53.052468 
L 82.094042 53.146778 
L 81.990704 53.041257 
L 82.104376 53.13106 
L 82.269717 52.974266 
L 82.305885 53.047917 
L 82.393723 52.979262 
L 82.750239 52.8645 
L 82.812242 52.981472 
L 82.869078 52.870007 
L 83.060254 52.551308 
L 83.070588 52.556576 
L 83.096422 52.577412 
L 83.13259 52.487176 
L 83.168759 52.515373 
L 83.385769 52.408078 
L 83.390936 52.417673 
L 83.396103 52.43449 
L 83.427104 52.338911 
L 83.468439 52.335567 
L 83.535609 52.303194 
L 83.509775 52.374805 
L 83.582111 52.327073 
L 83.623446 52.429198 
L 83.70095 52.385401 
L 84.253809 52.063485 
L 84.341646 52.131997 
L 84.367481 52.096842 
L 84.377815 52.054791 
L 84.470819 52.138194 
L 84.992677 51.74874 
L 84.997843 51.761128 
L 85.008177 51.795089 
L 85.07018 51.6626 
L 85.302691 51.519176 
L 85.307858 51.549923 
L 85.364694 51.594392 
L 85.411196 51.503274 
L 85.566203 51.309014 
L 85.447364 51.51397 
L 85.57137 51.311135 
L 85.685042 51.488476 
L 85.700543 51.471475 
L 85.752212 51.528171 
L 85.803881 51.440845 
L 85.824548 51.38942 
L 85.917553 51.427197 
L 86.103561 51.440646 
L 86.129396 51.500004 
L 86.217233 51.454186 
L 86.325738 51.40478 
L 86.330905 51.371083 
L 86.460078 51.312399 
L 86.480745 51.271308 
L 86.547915 51.270128 
L 86.687422 51.103884 
L 86.863096 51.065066 
L 86.868263 51.074496 
L 87.37462 50.883571 
L 87.503793 50.701768 
L 87.50896 50.732561 
L 87.612298 50.746188 
L 87.622632 50.716353 
L 87.736304 50.652002 
L 87.746637 50.656309 
L 87.880977 50.548683 
L 87.891311 50.590622 
L 87.963647 50.593777 
L 87.989482 50.548452 
L 88.15999 50.36756 
L 88.273662 50.403316 
L 88.299496 50.367554 
L 88.774852 49.658852 
L 89.02803 48.088215 
L 89.048698 44.078824 
L 89.064198 34.857913 
L 89.152036 50.696664 
L 89.188204 53.77664 
L 89.270875 53.286496 
L 89.431049 51.605819 
L 89.632558 47.583418 
L 89.653226 34.85437 
L 89.74623 45.109568 
L 89.797899 54.105306 
L 89.911571 53.458213 
L 90.092413 51.647895 
L 90.288755 47.09298 
L 90.304256 35.021068 
L 90.402427 45.642153 
L 90.448929 54.123744 
L 90.5471 53.623229 
L 90.944952 48.809123 
L 90.970787 47.084961 
L 90.986287 35.090852 
L 91.079292 45.275709 
L 91.125794 54.179178 
L 91.239466 53.640659 
L 91.39964 52.380603 
L 91.69932 47.693269 
L 91.719988 35.033294 
L 91.812992 45.787937 
L 91.864661 54.278209 
L 91.952499 53.906245 
L 92.045503 53.382966 
L 92.474356 49.172835 
L 92.526025 46.599779 
L 92.541526 34.966862 
L 92.63453 46.300596 
L 92.686199 54.370308 
L 92.763703 54.073071 
L 92.887709 53.494249 
L 93.078884 52.270448 
L 93.497404 48.047519 
L 93.518071 37.067252 
L 93.523238 35.016092 
L 93.605909 45.220818 
L 93.662745 54.424433 
L 93.766083 54.098657 
L 94.231104 51.66173 
L 94.561786 49.517372 
L 94.685792 47.947983 
L 94.70646 37.967204 
L 94.716793 35.025306 
L 94.794297 46.27605 
L 94.845966 54.461394 
L 94.928637 54.196192 
L 95.068143 53.690536 
L 95.331655 52.518368 
L 95.35749 52.400621 
L 96.2927 48.170868 
L 96.318534 44.743382 
L 96.339202 35.444283 
L 96.416705 51.595583 
L 96.458041 54.313575 
L 96.535544 54.072648 
L 96.540711 54.076943 
L 96.556212 53.980568 
L 96.814557 52.816585 
L 97.047068 51.74777 
L 97.295079 50.565309 
L 97.300246 50.57728 
L 97.357082 50.333248 
L 97.512089 49.871687 
L 97.517256 49.878037 
L 97.770435 49.078308 
L 97.889274 47.905732 
L 97.909941 43.375348 
L 97.925442 35.427144 
L 98.008112 52.26898 
L 98.049448 54.358047 
L 98.126951 54.133098 
L 98.132118 54.147058 
L 98.173453 53.94825 
L 99.155166 50.420156 
L 99.439345 50.033771 
L 99.444512 50.041756 
L 99.449679 50.047679 
L 99.475514 49.969093 
L 99.496181 49.956431 
L 99.61502 49.829979 
L 99.625354 49.848818 
L 99.708024 49.913238 
L 99.646022 49.814635 
L 99.759694 49.884304 
L 99.909534 49.751919 
L 99.914701 49.789078 
L 99.98187 49.949007 
L 100.054207 49.909285 
L 100.121377 49.868075 
L 100.173046 49.900019 
L 100.669069 50.280694 
L 100.694903 50.24298 
L 100.756906 50.33397 
L 100.782741 50.297559 
L 100.844744 50.488337 
L 101.041086 53.304599 
L 101.046253 53.296885 
L 101.072088 53.402476 
L 101.077255 53.403078 
L 101.227095 53.743035 
L 101.475106 54.101711 
L 101.490607 54.069736 
L 101.506108 54.05312 
L 101.573277 54.148129 
L 101.743785 54.244326 
L 101.914293 54.235483 
L 101.924627 54.253601 
L 101.976296 54.277086 
L 102.017631 54.187702 
L 102.027965 54.216486 
L 102.498154 54.213352 
L 102.518821 54.126708 
L 102.601492 54.26714 
L 102.70483 54.257743 
L 102.647994 54.206056 
L 102.709997 54.235141 
L 102.875338 54.138151 
L 102.735831 54.258733 
L 102.890838 54.165987 
L 102.994177 54.31701 
L 103.025178 54.280682 
L 103.030345 54.286365 
L 103.076847 54.185236 
L 103.092348 54.1896 
L 103.412696 54.307656 
L 103.43853 54.224887 
L 103.454031 54.204469 
L 103.510867 54.264363 
L 103.547036 54.242093 
L 103.702043 54.232915 
L 103.795047 54.184204 
L 103.815715 54.243227 
L 103.981056 54.285377 
L 103.996556 54.249912 
L 104.280736 54.199635 
L 104.37374 54.117483 
L 104.404742 54.161908 
L 104.420243 54.141658 
L 104.477079 54.247433 
L 105.773972 54.106959 
L 105.908311 54.011977 
L 106.016817 54.162913 
L 106.047818 54.127981 
L 106.052985 54.0934 
L 106.140822 54.236403 
L 106.16149 54.249893 
L 106.31133 54.108237 
L 106.611011 54.081592 
L 106.657513 54.053118 
L 106.693681 54.117742 
L 106.714349 54.11645 
L 106.750517 54.174396 
L 106.833188 54.105298 
L 106.967527 54.211442 
L 106.977861 54.199863 
L 107.344711 54.072652 
L 107.406714 54.050034 
L 107.437716 54.132473 
L 107.628891 54.362947 
L 107.773565 54.272481 
L 107.778731 54.293599 
L 108.39876 54.244578 
L 108.440095 54.257391 
L 108.471097 54.209775 
L 108.502098 54.22928 
L 108.641605 54.106873 
L 108.646772 54.131454 
L 108.677773 54.145461 
L 108.719108 54.051598 
L 108.739776 54.062429 
L 108.75011 54.053153 
L 108.801779 54.164689 
L 108.806946 54.167103 
L 108.89995 54.167803 
L 108.858615 54.121312 
L 108.910284 54.128904 
L 109.054957 54.053144 
L 109.065291 54.083378 
L 109.189297 54.161499 
L 109.328803 54.068771 
L 109.33397 54.03915 
L 109.395973 54.103959 
L 109.432141 54.09562 
L 109.819659 54.123628 
L 109.840327 54.075185 
L 109.886829 54.171316 
L 109.922997 54.128846 
L 110.057337 54.247211 
L 110.160675 54.134997 
L 110.176176 54.154179 
L 110.341517 54.163961 
L 110.351851 54.122343 
L 110.367351 54.064761 
L 110.41902 54.183251 
L 110.460356 54.133236 
L 110.667032 53.965894 
L 110.682533 53.991791 
L 110.718701 53.954507 
L 110.863374 54.126858 
L 110.868541 54.096519 
L 110.940878 54.245486 
L 110.951212 54.231602 
L 110.966712 54.282552 
L 111.023548 54.215823 
L 111.064884 54.237374 
L 111.209557 54.035475 
L 111.075217 54.262714 
L 111.27156 54.103466 
L 111.287061 54.144515 
L 111.364564 54.045482 
L 111.374898 54.049602 
L 111.4214 54.026522 
L 111.467902 54.121442 
L 111.473069 54.130354 
L 111.514404 54.051319 
L 111.55574 54.056459 
L 111.695246 54.146938 
L 111.829586 54.269952 
L 111.839919 54.253449 
L 111.958758 54.160957 
L 111.963925 54.175965 
L 112.000094 54.095212 
L 112.087931 54.179291 
L 112.201603 54.14668 
L 112.20677 54.125969 
L 112.284273 54.07701 
L 112.320442 54.123939 
L 112.330775 54.16308 
L 112.42378 54.07434 
L 112.744128 54.192092 
L 112.754462 54.170719 
L 112.904302 54.101184 
L 112.909469 54.108206 
L 112.950804 54.149054 
L 113.012807 54.078221 
L 113.462328 54.209936 
L 113.467495 54.19302 
L 113.519164 54.129425 
L 113.539831 54.243422 
L 113.576 54.194632 
L 113.694839 54.314336 
L 113.720673 54.289355 
L 113.756842 54.281079 
L 113.777509 54.204388 
L 113.803344 54.215833 
L 114.340702 54.095738 
L 114.345869 54.12756 
L 114.433706 54.158938 
L 114.464708 54.09942 
L 114.469875 54.086016 
L 114.537044 54.210767 
L 114.542211 54.205805 
L 115.043401 54.120037 
L 115.058902 54.137609 
L 115.105404 54.007757 
L 115.120905 54.010763 
L 115.177741 54.002828 
L 115.208742 54.064855 
L 115.213909 54.065433 
L 115.353415 54.196888 
L 115.358582 54.188227 
L 115.436086 54.163177 
L 115.46192 54.215556 
L 115.482588 54.155957 
L 115.570425 54.21226 
L 115.704765 54.170324 
L 116.174953 54.024232 
L 116.18012 54.036181 
L 116.324794 54.157797 
L 116.4643 54.15676 
L 116.469467 54.177183 
L 116.732979 54.097022 
L 116.856985 54.030252 
L 116.980991 53.968667 
L 116.88282 54.056395 
L 116.986158 53.985302 
L 117.151499 54.164992 
L 117.156666 54.154876 
L 117.363342 54.092382 
L 117.456346 54.13513 
L 117.539017 54.228696 
L 117.570018 54.148867 
L 117.678523 54.064659 
L 117.714691 54.107806 
L 117.776694 54.155346 
L 117.828363 54.067837 
L 117.885199 54.008782 
L 117.926535 54.101739 
L 117.942035 54.180156 
L 118.045373 54.105447 
L 118.928914 54.21046 
L 119.011585 54.25262 
L 119.037419 54.228639 
L 119.166592 54.183925 
L 119.171759 54.200076 
L 119.223428 54.119457 
L 119.259596 54.110123 
L 119.445605 54.160446 
L 119.564444 54.172093 
L 119.569611 54.165762 
L 119.63678 54.124986 
L 119.652281 54.100893 
L 119.760786 54.00857 
L 119.678116 54.108356 
L 119.776287 54.031735 
L 119.977796 54.238938 
L 120.019131 54.193697 
L 120.081134 54.247221 
L 120.168972 54.428388 
L 120.215474 54.339942 
L 120.318812 54.292379 
L 120.277477 54.411774 
L 120.329146 54.328799 
L 120.380815 54.429319 
L 120.453152 54.310411 
L 120.685662 54.335855 
L 120.695996 54.307019 
L 120.794167 54.289722 
L 120.768333 54.343788 
L 120.804501 54.298918 
L 120.876838 54.335801 
L 120.820002 54.284387 
L 120.913006 54.310457 
L 120.995677 54.308959 
L 120.954341 54.366849 
L 121.016344 54.343414 
L 121.155851 54.348903 
L 121.166185 54.318945 
L 121.176518 54.278237 
L 121.259189 54.343759 
L 121.279856 54.321156 
L 121.378028 54.381555 
L 121.414196 54.329848 
L 121.677708 54.288876 
L 121.739711 54.412025 
L 121.801714 54.35582 
L 121.812048 54.335884 
L 121.868884 54.402886 
L 121.910219 54.367151 
L 122.018724 54.369529 
L 122.034225 54.320988 
L 122.127229 54.23122 
L 122.173731 54.283789 
L 122.308071 54.358432 
L 122.416576 54.332667 
L 122.42691 54.296751 
L 122.437243 54.247672 
L 122.494079 54.313643 
L 122.535415 54.312374 
L 122.623252 54.288611 
L 122.64392 54.327725 
L 122.65942 54.382779 
L 122.742091 54.259165 
L 122.866097 54.325526 
L 122.767925 54.24489 
L 122.871263 54.322581 
L 122.979769 54.274459 
L 122.990102 54.293562 
L 123.021104 54.238817 
L 123.088274 54.267496 
L 123.207112 54.133182 
L 123.217446 54.175813 
L 123.372453 54.248396 
L 123.491292 54.349337 
L 123.532627 54.306585 
L 123.641132 54.243453 
L 123.646299 54.26419 
L 123.692802 54.309266 
L 123.739304 54.22557 
L 123.749637 54.226093 
L 124.261161 54.326879 
L 124.271495 54.288127 
L 124.328331 54.204109 
L 124.38 54.2278 
" style="fill:none;stroke:#000000;stroke-linecap:square;stroke-width:0.3;"/>
   </g>
   <g id="line2d_3">
    <path clip-path="url(#p763767ccf0)" d="M 12.78 74.228035 
L 13.048679 72.256384 
L 13.069347 70.388868 
L 13.084847 58.799416 
L 13.177852 68.012399 
L 13.229521 75.511615 
L 13.369027 74.441092 
L 13.684209 71.745146 
L 13.704876 58.651423 
L 13.813381 68.931167 
L 13.854716 75.727216 
L 13.968388 74.848927 
L 14.190565 73.496983 
L 14.345572 72.06408 
L 14.361073 69.451689 
L 14.371407 58.567237 
L 14.469578 67.955273 
L 14.521247 75.879669 
L 14.665921 74.771648 
L 15.099941 71.528702 
L 15.120608 58.458913 
L 15.223946 68.697431 
L 15.265282 75.889282 
L 15.389287 74.971908 
L 15.880144 71.734379 
L 15.900811 58.456705 
L 16.009316 69.173232 
L 16.050651 75.884632 
L 16.15399 75.102217 
L 16.427836 73.670357 
L 16.433002 73.672659 
L 16.438169 73.677757 
L 16.469171 73.556814 
L 16.706848 72.155325 
L 16.727516 66.648889 
L 16.73785 58.380856 
L 16.836021 68.391814 
L 16.882523 75.887568 
L 17.011696 74.94231 
L 17.554221 72.11756 
L 17.574889 65.452315 
L 17.585222 58.388083 
L 17.683394 68.518032 
L 17.729896 75.87083 
L 17.853902 74.986608 
L 18.17425 73.545018 
L 18.334424 73.266342 
L 18.47393 71.627303 
L 18.494598 58.291663 
L 18.597936 68.755024 
L 18.644438 75.835993 
L 18.75811 74.979662 
L 19.336804 72.150972 
L 19.357471 67.446235 
L 19.367805 58.346343 
L 19.465976 68.432394 
L 19.512478 75.84468 
L 19.641651 74.900391 
L 20.06017 73.415366 
L 20.065337 73.424392 
L 20.070504 73.434151 
L 20.111839 73.29989 
L 20.313349 71.977497 
L 20.328849 68.927256 
L 20.339183 58.344919 
L 20.437355 68.425957 
L 20.483857 75.708695 
L 20.607862 74.797259 
L 20.876542 73.580499 
L 21.145221 72.720874 
L 21.186556 71.913903 
L 21.202057 67.86581 
L 21.21239 58.371506 
L 21.310562 68.601615 
L 21.357064 75.749966 
L 21.475903 74.840569 
L 21.822085 73.438153 
L 21.84792 73.449606 
L 21.884088 73.355704 
L 22.090764 71.509653 
L 22.111432 58.327477 
L 22.21477 69.08268 
L 22.250938 75.761401 
L 22.359443 74.982512 
L 22.63329 73.73048 
L 22.690125 73.592722 
L 22.989806 73.007786 
L 22.994973 73.016494 
L 23.020807 72.86046 
L 23.072477 72.405836 
L 23.098311 70.757626 
L 23.113812 58.309238 
L 23.211983 68.8688 
L 23.253318 75.779562 
L 23.36699 75.113883 
L 23.542665 74.650119 
L 23.568499 74.684051 
L 23.677004 75.001822 
L 24.173027 77.634217 
L 24.178194 77.624334 
L 24.183361 77.623439 
L 24.198862 77.718776 
L 24.813724 79.387474 
L 24.834391 79.359033 
L 24.839558 79.354138 
L 24.87056 79.457452 
L 24.906728 79.43616 
L 25.366583 79.651426 
L 25.45442 79.596544 
L 25.480255 79.63169 
L 25.614594 79.634146 
L 25.666263 79.678559 
L 25.7386 79.590882 
L 25.893607 79.673114 
L 25.898774 79.661085 
L 26.03828 79.678187 
L 26.043447 79.700943 
L 26.064115 79.733545 
L 26.136452 79.667309 
L 26.141619 79.681004 
L 26.23979 79.650057 
L 26.219122 79.692483 
L 26.250124 79.659348 
L 26.374129 79.705297 
L 26.275958 79.645777 
L 26.379296 79.701542 
L 26.487801 79.607253 
L 26.529137 79.690706 
L 26.554971 79.669434 
L 26.663476 79.726059 
L 26.735813 79.655118 
L 26.777148 79.68138 
L 26.926988 79.725441 
L 26.952823 79.690573 
L 27.366175 79.644635 
L 27.376509 79.691528 
L 27.433345 79.742561 
L 27.485014 79.673312 
L 27.510849 79.647612 
L 27.650355 79.733517 
L 27.696857 79.651395 
L 27.769194 79.710455 
L 27.841531 79.719236 
L 27.877699 79.66587 
L 27.919034 79.649486 
L 27.965536 79.727038 
L 27.981037 79.771501 
L 28.079208 79.744997 
L 28.198047 79.700496 
L 28.239382 79.739917 
L 28.270384 79.667241 
L 28.306552 79.693428 
L 28.497728 79.712476 
L 28.606233 79.687246 
L 28.580398 79.751081 
L 28.6114 79.711996 
L 28.802575 79.686386 
L 28.807742 79.714834 
L 28.812909 79.740555 
L 28.854244 79.656721 
L 28.91108 79.667999 
L 29.014418 79.653978 
L 28.983417 79.70625 
L 29.029919 79.672556 
L 29.133257 79.737422 
L 29.153925 79.670866 
L 29.159092 79.639492 
L 29.241762 79.768575 
L 29.257263 79.710119 
L 29.768787 79.60721 
L 29.892792 79.699434 
L 30.032299 79.650111 
L 30.037466 79.667566 
L 30.151138 79.687621 
L 30.171805 79.619654 
L 30.249309 79.556879 
L 30.269976 79.65457 
L 30.28031 79.64353 
L 30.461152 79.66634 
L 30.466319 79.659818 
L 30.517988 79.689852 
L 30.533489 79.746314 
L 30.590325 79.661739 
L 30.641994 79.742163 
L 30.745332 79.609354 
L 30.776333 79.665832 
L 30.874504 79.720039 
L 30.895172 79.671839 
L 31.117349 79.737713 
L 31.210353 79.750548 
L 31.158684 79.682482 
L 31.220687 79.728059 
L 31.272356 79.605766 
L 31.344693 79.633174 
L 31.453198 79.756579 
L 31.484199 79.693445 
L 31.628873 79.588992 
L 31.923386 79.678175 
L 31.93372 79.747322 
L 32.031891 79.682983 
L 32.161064 79.601531 
L 32.192065 79.644234 
L 32.264402 79.563977 
L 32.440077 79.678319 
L 32.460744 79.660404 
L 32.553749 79.554876 
L 32.605418 79.60377 
L 32.677755 79.609698 
L 32.65192 79.55508 
L 32.713923 79.595248 
L 32.817261 79.500472 
L 32.744924 79.61835 
L 32.843096 79.522232 
L 32.967101 79.513526 
L 32.972268 79.541582 
L 33.132442 79.620397 
L 33.137609 79.609584 
L 33.189278 79.566345 
L 33.256448 79.600066 
L 33.432123 79.571114 
L 33.530294 79.525033 
L 33.556129 79.553338 
L 34.201992 79.484624 
L 34.284662 79.525295 
L 34.243327 79.457033 
L 34.30533 79.475274 
L 34.393167 79.419855 
L 34.325997 79.507357 
L 34.424169 79.443764 
L 34.501672 79.50685 
L 34.532674 79.421514 
L 34.667013 79.45758 
L 34.698015 79.411942 
L 34.847855 79.413995 
L 34.863356 79.440916 
L 34.982195 79.489336 
L 34.987361 79.470542 
L 35.927738 79.173102 
L 36.020743 79.195422 
L 35.989741 79.133318 
L 36.031076 79.15298 
L 36.186084 79.096661 
L 36.196417 79.114172 
L 36.320423 79.189189 
L 36.227419 79.072332 
L 36.32559 79.178223 
L 36.47543 79.101403 
L 36.480597 79.106581 
L 36.583935 79.194291 
L 36.527099 79.097594 
L 36.599436 79.15498 
L 36.620104 79.19636 
L 36.67694 79.090273 
L 36.697607 79.108254 
L 36.883616 78.943471 
L 36.899117 78.967298 
L 36.940452 79.018414 
L 37.012789 78.969684 
L 37.229799 79.11197 
L 37.234966 79.101716 
L 37.286635 79.129458 
L 37.353804 79.09385 
L 37.369305 79.115557 
L 37.441642 79.030243 
L 37.446809 79.037811 
L 37.581148 78.931936 
L 37.472643 79.065284 
L 37.596649 78.94179 
L 37.62765 78.925576 
L 37.720655 78.989189 
L 37.823993 78.853288 
L 37.854994 78.876799 
L 37.942832 78.798993 
L 38.051337 78.785241 
L 38.06167 78.802571 
L 38.066837 78.821817 
L 38.12884 78.716405 
L 38.165009 78.768844 
L 38.201177 78.838034 
L 38.294181 78.769864 
L 38.340683 78.799795 
L 38.387186 78.717175 
L 38.392352 78.721616 
L 38.511191 78.695095 
L 38.645531 78.776753 
L 38.552527 78.65748 
L 38.650698 78.770002 
L 38.805705 78.659793 
L 38.841873 78.624906 
L 38.91421 78.674601 
L 38.919377 78.681592 
L 38.955545 78.575154 
L 38.971046 78.568526 
L 39.105385 78.56496 
L 39.007214 78.613172 
L 39.110552 78.585625 
L 39.229391 78.656773 
L 39.167388 78.55544 
L 39.239725 78.649162 
L 39.374065 78.45445 
L 39.379231 78.477493 
L 39.549739 78.618257 
L 39.560073 78.598863 
L 39.689246 78.515543 
L 39.870088 78.352986 
L 39.895922 78.378894 
L 39.937257 78.280243 
L 39.968259 78.301232 
L 39.983759 78.278223 
L 40.045762 78.391828 
L 40.102598 78.481966 
L 40.159434 78.404226 
L 40.195603 78.29688 
L 40.267939 78.412718 
L 40.495283 78.320944 
L 40.536618 78.286517 
L 40.583121 78.369036 
L 40.603788 78.331006 
L 40.63479 78.365876 
L 40.71746 78.361592 
L 40.727794 78.407824 
L 40.794964 78.28965 
L 40.949971 78.112803 
L 41.203149 78.102361 
L 41.28582 78.015544 
L 41.316821 78.067767 
L 41.404659 78.112458 
L 41.430493 78.06507 
L 41.699172 78.115084 
L 41.709506 78.090259 
L 41.812844 77.992014 
L 41.833512 77.994958 
L 42.050522 77.877969 
L 42.066023 77.930933 
L 42.138359 77.811009 
L 42.148693 77.816494 
L 42.252031 77.787482 
L 42.262365 77.813615 
L 42.267532 77.826816 
L 42.345035 77.741367 
L 42.541378 77.573496 
L 42.639549 77.682777 
L 42.67055 77.623348 
L 42.753221 77.46331 
L 42.80489 77.53435 
L 42.903061 77.517693 
L 42.866893 77.471566 
L 42.908228 77.504456 
L 43.032234 77.382342 
L 43.037401 77.390497 
L 43.125238 77.378263 
L 43.08907 77.293314 
L 43.145906 77.366545 
L 43.316414 77.261281 
L 43.321581 77.265163 
L 43.435253 77.345907 
L 43.450753 77.300139 
L 43.471421 77.254719 
L 43.559258 77.277143 
L 43.65743 77.164088 
L 43.683264 77.19245 
L 43.760768 77.217644 
L 43.709099 77.159079 
L 43.796936 77.193895 
L 43.915775 77.045917 
L 43.926109 77.055924 
L 43.946776 77.072982 
L 43.982945 76.97497 
L 44.008779 76.984988 
L 44.163786 76.804841 
L 44.272291 76.873533 
L 44.282625 76.825117 
L 44.298126 76.799366 
L 44.354962 76.90003 
L 44.385963 76.869563 
L 44.473801 76.872989 
L 44.489301 76.914904 
L 44.515136 76.942456 
L 44.556471 76.846272 
L 44.582306 76.855065 
L 44.680477 76.747966 
L 44.794149 76.644283 
L 44.80965 76.670971 
L 44.969824 76.489342 
L 45.011159 76.517751 
L 45.047327 76.435904 
L 45.067995 76.459871 
L 45.083496 76.431537 
L 45.119664 76.510451 
L 45.171333 76.497247 
L 45.440012 76.476385 
L 45.445179 76.445964 
L 45.574352 76.387005 
L 45.605353 76.326314 
L 45.682857 76.374881 
L 46.04454 76.279742 
L 46.184046 76.130633 
L 46.189213 76.141395 
L 46.26155 76.277076 
L 46.313219 76.203459 
L 46.840244 75.750113 
L 46.91258 75.809215 
L 46.959082 75.720481 
L 47.325933 75.627779 
L 47.336266 75.669691 
L 47.408603 75.72763 
L 47.372435 75.6618 
L 47.449938 75.684333 
L 47.584278 75.62648 
L 47.594612 75.643285 
L 47.744452 75.705294 
L 47.816789 75.585091 
L 47.868458 75.613132 
L 47.961462 75.608213 
L 47.935628 75.532169 
L 47.971796 75.575802 
L 48.137137 75.539708 
L 47.98213 75.587639 
L 48.147471 75.563343 
L 48.157805 75.582348 
L 48.209474 75.468287 
L 48.230141 75.484085 
L 48.431651 75.514063 
L 48.436817 75.506075 
L 48.462652 75.45991 
L 48.524655 75.572807 
L 48.560823 75.609533 
L 48.617659 75.531623 
L 48.627993 75.554062 
L 48.674495 75.579379 
L 48.772666 75.457411 
L 48.777833 75.47818 
L 48.85017 75.335281 
L 48.860504 75.299671 
L 48.93284 75.386795 
L 48.948341 75.385822 
L 48.989676 75.402003 
L 49.025845 75.319323 
L 49.144684 75.221266 
L 49.160184 75.252318 
L 49.387528 75.090481 
L 49.516701 74.985517 
L 49.413363 75.10189 
L 49.521868 74.988137 
L 49.578704 74.942515 
L 49.537368 74.999434 
L 49.63554 74.97788 
L 49.930053 74.949107 
L 50.00239 74.900719 
L 50.033391 74.96413 
L 50.038558 74.976519 
L 50.110895 74.878052 
L 50.240068 74.765048 
L 50.343406 74.774247 
L 50.30207 74.831148 
L 50.348573 74.78101 
L 50.400242 74.795117 
L 50.426076 74.730843 
L 50.446744 74.736503 
L 50.482912 74.713347 
L 50.534581 74.773463 
L 50.550082 74.758357 
L 50.632752 74.720925 
L 50.575916 74.716052 
L 50.643086 74.698825 
L 50.911765 74.602152 
L 51.02027 74.637055 
L 51.030604 74.599715 
L 51.128775 74.580061 
L 51.040938 74.631755 
L 51.159777 74.619152 
L 51.257948 74.666698 
L 51.278616 74.633334 
L 51.449124 74.46649 
L 51.495626 74.510183 
L 51.58863 74.48398 
L 51.562795 74.444921 
L 51.593797 74.466384 
L 51.733303 74.389728 
L 51.945147 74.2537 
L 51.774639 74.442091 
L 51.950313 74.259736 
L 52.027817 74.320555 
L 52.048485 74.225486 
L 52.208659 74.105557 
L 52.224159 74.116162 
L 52.291329 74.043744 
L 52.301663 74.046362 
L 52.311997 74.061163 
L 52.725349 73.579044 
L 52.844188 72.807165 
L 52.880356 71.318286 
L 52.901024 57.997013 
L 52.999195 67.243095 
L 53.071532 73.712976 
L 53.200705 73.181296 
L 53.371213 71.994197 
L 53.39188 70.422905 
L 53.407381 59.973121 
L 53.500385 69.294989 
L 53.536554 74.082002 
L 53.639892 73.490314 
L 53.831067 71.480979 
L 53.851735 59.83644 
L 53.949906 69.3258 
L 53.986074 74.525123 
L 54.089412 73.792306 
L 54.290922 71.293799 
L 54.311589 59.45653 
L 54.409761 69.068842 
L 54.445929 75.034117 
L 54.554434 74.156462 
L 54.766277 72.032353 
L 54.781778 69.927292 
L 54.797279 59.170614 
L 54.890283 68.138692 
L 54.936785 75.463236 
L 55.076291 74.30182 
L 55.189963 73.446837 
L 55.308802 71.198268 
L 55.324303 58.898075 
L 55.427641 68.277967 
L 55.474143 75.780892 
L 55.608483 74.660582 
L 55.887496 71.199223 
L 55.902996 58.72886 
L 56.006335 68.125472 
L 56.058004 75.975017 
L 56.19751 74.834594 
L 56.492024 72.452988 
L 56.517858 69.337338 
L 56.528192 58.633226 
L 56.626363 67.719178 
L 56.683199 76.108863 
L 56.833039 74.88405 
L 56.926044 74.253431 
L 57.163721 72.565092 
L 57.194723 70.145212 
L 57.210224 58.59488 
L 57.303228 67.698296 
L 57.360064 76.142623 
L 57.509904 74.984986 
L 57.892255 72.176987 
L 57.907756 70.413427 
L 57.923257 58.523229 
L 58.016261 67.698666 
L 58.073097 76.180331 
L 58.222937 75.034168 
L 58.507117 73.46961 
L 58.589787 73.0284 
L 58.656957 71.799956 
L 58.677625 58.482222 
L 58.78613 68.833951 
L 58.827465 76.164545 
L 58.941137 75.340403 
L 59.256318 73.552363 
L 59.261485 73.554655 
L 59.447494 72.071421 
L 59.462995 69.017558 
L 59.473328 58.426398 
L 59.5715 68.071725 
L 59.623169 76.130901 
L 59.762675 75.097188 
L 60.062356 73.551579 
L 60.067523 73.552792 
L 60.072689 73.560926 
L 60.103691 73.417621 
L 60.22253 72.831216 
L 60.274199 71.179492 
L 60.2897 58.433148 
L 60.387871 68.105542 
L 60.43954 76.08921 
L 60.579046 75.057601 
L 60.785722 73.912358 
L 60.852892 73.701489 
L 61.111238 71.165255 
L 61.126738 58.428209 
L 61.224909 68.16405 
L 61.276579 76.055105 
L 61.410918 75.040842 
L 61.710599 73.577595 
L 61.844938 73.068741 
L 61.932776 72.353984 
L 61.953443 70.8436 
L 61.968944 58.389133 
L 62.067115 68.386177 
L 62.113617 76.004504 
L 62.24279 75.064194 
L 62.656142 73.266844 
L 62.74398 72.980775 
L 62.81115 71.722654 
L 62.831817 58.409393 
L 62.940322 69.359862 
L 62.981657 75.970839 
L 63.079829 75.22748 
L 63.333007 73.886119 
L 63.405344 73.560934 
L 63.632688 72.49861 
L 63.663689 70.073728 
L 63.67919 58.403085 
L 63.772194 68.111056 
L 63.823863 75.977243 
L 63.958203 75.022711 
L 64.190713 73.843969 
L 64.536896 71.572493 
L 64.557564 58.354028 
L 64.660902 68.983012 
L 64.702237 75.928799 
L 64.810742 75.138246 
L 65.120757 73.652665 
L 65.389436 72.01876 
L 65.404936 69.077035 
L 65.41527 58.39547 
L 65.513441 68.292783 
L 65.559944 75.945331 
L 65.694283 74.974497 
L 66.004297 73.632519 
L 66.035299 73.508694 
L 66.28331 72.13544 
L 66.303978 66.525087 
L 66.314312 58.351894 
L 66.412483 68.521099 
L 66.453818 75.876921 
L 66.582991 74.992691 
L 66.831002 73.798495 
L 67.166851 72.054612 
L 67.182352 69.42743 
L 67.192686 58.408093 
L 67.290857 68.202866 
L 67.337359 75.917171 
L 67.471699 74.963821 
L 67.812714 73.530062 
L 67.817881 73.544594 
L 67.895385 73.445895 
L 68.117562 72.405569 
L 68.143396 70.538852 
L 68.158897 58.315717 
L 68.257068 68.59395 
L 68.303571 75.786203 
L 68.422409 74.892986 
L 68.835762 73.366771 
L 68.840929 73.374257 
L 68.851263 73.338083 
L 69.011437 76.513386 
L 69.052772 76.727065 
L 69.455791 78.570944 
L 69.512627 78.8088 
L 69.667634 79.149012 
L 69.683134 79.104774 
L 69.760638 79.252639 
L 69.967314 79.474317 
L 70.044818 79.466305 
L 70.013816 79.504839 
L 70.065485 79.514679 
L 70.189491 79.632826 
L 70.204992 79.613508 
L 70.266995 79.55517 
L 70.318664 79.609155 
L 70.432336 79.669701 
L 70.396167 79.564263 
L 70.44267 79.662004 
L 70.473671 79.720623 
L 70.530507 79.697894 
L 70.602844 79.748078 
L 70.628678 79.66367 
L 70.639012 79.691338 
L 71.543221 79.758143 
L 71.558721 79.818555 
L 71.646559 79.742333 
L 71.651726 79.749257 
L 71.682727 79.766135 
L 71.703395 79.692407 
L 71.749897 79.699976 
L 71.8274 79.653404 
L 71.786065 79.728296 
L 71.858402 79.700343 
L 71.910071 79.801288 
L 71.972074 79.731217 
L 72.059911 79.671961 
L 72.090913 79.705323 
L 72.240753 79.742071 
L 72.271754 79.721012 
L 72.318256 79.776538 
L 72.349258 79.766889 
L 72.375092 79.826686 
L 72.416428 79.722028 
L 72.447429 79.72353 
L 72.46293 79.74763 
L 72.628271 79.662421 
L 72.74711 79.712557 
L 72.752276 79.709027 
L 72.855615 79.608858 
L 72.881449 79.672421 
L 72.969287 79.760127 
L 73.020956 79.733315 
L 73.160462 79.622276 
L 73.175963 79.638897 
L 73.289635 79.777301 
L 73.33097 79.736404 
L 73.351638 79.696688 
L 73.418807 79.685206 
L 73.553147 79.569709 
L 73.625484 79.635743 
L 73.723655 79.714756 
L 73.640984 79.631879 
L 73.749489 79.680942 
L 73.857994 79.645654 
L 73.770157 79.720554 
L 73.868328 79.671282 
L 73.987167 79.64462 
L 73.888996 79.644866 
L 73.992334 79.634823 
L 74.028502 79.594984 
L 74.095672 79.65484 
L 74.235178 79.785295 
L 74.271347 79.756669 
L 74.410853 79.63326 
L 74.41602 79.64054 
L 74.627863 79.771522 
L 74.426354 79.624923 
L 74.638197 79.759778 
L 74.762203 79.659619 
L 74.76737 79.666598 
L 74.839706 79.744873 
L 74.881042 79.697132 
L 74.91721 79.740594 
L 74.979213 79.661801 
L 75.061883 79.631678 
L 75.020548 79.675765 
L 75.092885 79.652925 
L 75.191056 79.705997 
L 75.108386 79.638625 
L 75.216891 79.647271 
L 75.335729 79.618149 
L 75.402899 79.584647 
L 75.444234 79.665434 
L 75.563073 79.686695 
L 75.480403 79.645703 
L 75.56824 79.679356 
L 75.862754 79.640303 
L 75.91959 79.716497 
L 75.976426 79.679089 
L 76.177935 79.65949 
L 76.188269 79.682563 
L 76.276106 79.752064 
L 76.20377 79.669921 
L 76.307108 79.724353 
L 76.431113 79.610196 
L 76.327775 79.763009 
L 76.456948 79.635973 
L 76.50345 79.730788 
L 76.575787 79.69448 
L 76.601621 79.606504 
L 76.694626 79.674057 
L 76.823798 79.741134 
L 76.839299 79.698092 
L 77.009807 79.614209 
L 77.07181 79.601971 
L 77.102811 79.674352 
L 77.133813 79.739105 
L 77.206149 79.658704 
L 77.22165 79.661844 
L 77.324988 79.612756 
L 77.361157 79.676048 
L 77.479995 79.610404 
L 77.500663 79.627504 
L 77.531664 79.560896 
L 77.583333 79.582982 
L 78.647716 79.57783 
L 78.709719 79.577727 
L 78.751054 79.619086 
L 78.885394 79.596158 
L 78.782056 79.551777 
L 78.890561 79.579959 
L 79.0094 79.596145 
L 79.143739 79.674961 
L 79.0249 79.572656 
L 79.148906 79.661641 
L 79.236743 79.690964 
L 79.24191 79.715447 
L 79.247077 79.724702 
L 79.314247 79.621477 
L 79.402084 79.496362 
L 79.453753 79.537354 
L 79.562258 79.544124 
L 79.474421 79.490564 
L 79.572592 79.526784 
L 79.59326 79.512914 
L 79.665597 79.577037 
L 79.758601 79.59683 
L 79.67593 79.571607 
L 79.779268 79.579995 
L 79.882607 79.595173 
L 79.815437 79.641426 
L 79.887774 79.614318 
L 79.908441 79.669983 
L 79.965277 79.586605 
L 79.996279 79.593525 
L 80.115117 79.542764 
L 80.146119 79.575334 
L 80.125451 79.528555 
L 80.197788 79.481499 
L 80.321794 79.44684 
L 80.37863 79.527918 
L 80.430299 79.425486 
L 80.67831 79.351356 
L 80.797149 79.311358 
L 80.807483 79.317198 
L 80.998658 79.458461 
L 80.838484 79.272716 
L 81.014159 79.432487 
L 81.039994 79.359005 
L 81.132998 79.394395 
L 81.153665 79.421952 
L 81.220835 79.306314 
L 81.226002 79.32765 
L 81.231169 79.31506 
L 81.298339 79.413064 
L 81.324173 79.371033 
L 81.422345 79.402908 
L 81.360342 79.339191 
L 81.453346 79.385177 
L 81.623854 79.311348 
L 81.794362 79.399703 
L 81.634188 79.290952 
L 81.83053 79.337914 
L 81.939035 79.240322 
L 81.954536 79.287968 
L 81.995871 79.313503 
L 82.052707 79.242779 
L 82.057874 79.250363 
L 82.522896 79.265677 
L 82.533229 79.304449 
L 82.6159 79.220953 
L 82.631401 79.259489 
L 82.745072 79.3032 
L 82.646901 79.222894 
L 82.776074 79.239007 
L 82.941415 79.071381 
L 82.812242 79.258219 
L 82.951749 79.089141 
L 83.080921 79.078085 
L 83.086088 79.10563 
L 83.168759 79.080909 
L 83.106756 79.085189 
L 83.179093 79.061648 
L 83.230762 79.036565 
L 83.210094 79.078835 
L 83.272097 79.101749 
L 83.313432 79.144662 
L 83.344434 79.072672 
L 83.375435 79.080344 
L 83.582111 79.006781 
L 83.587278 79.03188 
L 83.607946 79.077894 
L 83.675116 78.963758 
L 83.680282 78.978231 
L 83.737118 78.872169 
L 83.804288 78.906727 
L 83.840457 78.884207 
L 83.928294 78.934007 
L 83.979963 78.855645 
L 84.0523 78.910108 
L 84.315812 79.088492 
L 84.331313 79.068437 
L 84.362314 79.103376 
L 84.450151 79.020543 
L 84.455318 79.04286 
L 84.48632 78.939911 
L 84.543156 78.93354 
L 84.698163 78.769144 
L 84.70333 78.78242 
L 84.718831 78.785034 
L 84.734331 78.707365 
L 84.760166 78.692333 
L 84.837669 78.711179 
L 84.817002 78.748251 
L 84.85317 78.72344 
L 84.884171 78.764895 
L 84.946174 78.659215 
L 84.951341 78.622446 
L 85.00301 78.737339 
L 85.054679 78.671553 
L 85.142517 78.667115 
L 85.07018 78.695987 
L 85.152851 78.699946 
L 85.266523 78.786848 
L 85.173518 78.683532 
L 85.271689 78.778478 
L 85.519701 78.522276 
L 85.581704 78.610955 
L 85.643707 78.666824 
L 85.695376 78.584031 
L 85.819381 78.49033 
L 85.829715 78.494628 
L 85.840049 78.46502 
L 85.876217 78.548055 
L 85.917553 78.540734 
L 85.933053 78.577802 
L 86.020891 78.502303 
L 86.150063 78.514546 
L 86.15523 78.525555 
L 86.253402 78.570066 
L 86.196566 78.452198 
L 86.263735 78.520608 
L 86.37224 78.474067 
L 86.299904 78.549783 
L 86.377407 78.484267 
L 86.392908 78.522775 
L 86.454911 78.43905 
L 86.475578 78.457315 
L 86.485912 78.429878 
L 86.547915 78.561338 
L 86.568583 78.526892 
L 86.57375 78.550887 
L 86.65642 78.446136 
L 86.661587 78.450492 
L 86.775259 78.420091 
L 86.785593 78.451787 
L 86.79076 78.479454 
L 86.87343 78.352778 
L 86.878597 78.355573 
L 87.204112 78.114807 
L 86.909599 78.406621 
L 87.22478 78.156306 
L 87.229947 78.163152 
L 87.271282 78.04874 
L 87.415955 77.927735 
L 87.421122 77.948774 
L 87.813807 77.805099 
L 87.818974 77.795379 
L 87.870643 77.911683 
L 87.922312 77.938232 
L 87.963647 77.846827 
L 87.968814 77.850796 
L 88.01015 77.94976 
L 88.108321 77.966959 
L 88.118655 77.935488 
L 88.123821 77.893418 
L 88.170324 77.963053 
L 88.22716 77.939488 
L 88.335665 77.842058 
L 88.361499 77.895828 
L 88.366666 77.923506 
L 88.45967 77.817593 
L 88.470004 77.829891 
L 88.537174 77.752429 
L 88.583676 77.711746 
L 88.614678 77.780539 
L 88.650846 77.74936 
L 88.862689 77.546697 
L 88.904024 77.597963 
L 88.909191 77.610211 
L 88.966027 77.462733 
L 89.105534 77.41395 
L 89.126201 77.447716 
L 89.193371 77.339421 
L 89.250207 77.283469 
L 89.214039 77.357605 
L 89.31221 77.303832 
L 89.369046 77.350085 
L 89.400047 77.267086 
L 89.425882 77.28862 
L 89.555054 77.216434 
L 89.586056 77.207292 
L 89.606723 77.297327 
L 89.637725 77.285145 
L 89.751397 77.288304 
L 89.663559 77.227739 
L 89.761731 77.255229 
L 89.906404 77.182142 
L 89.782398 77.310027 
L 89.916738 77.220232 
L 89.968407 77.24559 
L 89.947739 77.196333 
L 90.025243 77.215761 
L 90.149249 77.122522 
L 90.154415 77.14163 
L 90.211251 77.113013 
L 90.252587 77.190463 
L 90.402427 76.959829 
L 90.443762 77.107722 
L 90.5316 77.125706 
L 90.469597 77.085889 
L 90.552267 77.085253 
L 90.686607 76.865151 
L 90.727942 76.923385 
L 90.769277 76.901038 
L 90.846781 76.984716 
L 90.872615 77.06439 
L 90.96562 77.012798 
L 91.053457 76.982036 
L 91.063791 76.94794 
L 91.167129 76.842476 
L 91.187797 76.903172 
L 91.218798 76.920953 
L 91.254966 76.817326 
L 91.280801 76.835906 
L 91.394473 76.774972 
L 91.39964 76.809656 
L 91.544313 76.726861 
L 91.647651 76.563853 
L 91.580482 76.733349 
L 91.678653 76.581616 
L 91.838827 76.376883 
L 91.843994 76.384605 
L 92.210844 76.213852 
L 92.216011 76.234595 
L 92.329683 76.230406 
L 92.33485 76.207319 
L 92.391686 76.30197 
L 92.433021 76.23373 
L 92.479523 76.289874 
L 92.515691 76.182566 
L 92.526025 76.183765 
L 92.562194 76.159541 
L 92.603529 76.277372 
L 92.61903 76.252192 
L 92.696533 76.295407 
L 92.737868 76.239019 
L 92.85154 76.132619 
L 92.867041 76.18004 
L 92.965212 76.252452 
L 92.913543 76.153588 
L 92.98588 76.210084 
L 93.078884 76.049361 
L 93.130553 76.081197 
L 93.993427 75.75633 
L 94.019261 75.772296 
L 94.158768 75.68062 
L 94.783963 75.551837 
L 94.851133 75.650005 
L 94.892468 75.533712 
L 95.977518 75.238548 
L 96.111858 75.038826 
L 96.127359 75.059424 
L 96.246198 75.13451 
L 96.287533 75.076628 
L 96.2927 75.053794 
L 96.354703 75.141314 
L 96.385704 75.129724 
L 96.504543 75.185883 
L 96.473541 75.097613 
L 96.50971 75.175825 
L 96.571713 75.106631 
L 96.633715 75.13889 
L 96.680218 75.176059 
L 96.695718 75.225652 
L 96.814557 75.379248 
L 96.706052 75.205625 
L 96.855892 75.331419 
L 96.923062 75.296994 
L 96.974731 75.349152 
L 96.985065 75.36939 
L 97.041901 75.301367 
L 97.078069 75.308374 
L 97.46042 75.151003 
L 97.486255 75.061152 
L 97.579259 75.091771 
L 97.687764 75.088498 
L 97.692931 75.075709 
L 97.713599 75.033069 
L 97.785935 75.115946 
L 97.791102 75.115968 
L 97.796269 75.124038 
L 97.842771 75.013251 
L 97.940943 74.884693 
L 97.863439 75.018964 
L 97.966777 74.909973 
L 98.039114 74.929342 
L 97.992612 74.834011 
L 98.070115 74.89325 
L 98.183787 74.831495 
L 98.194121 74.84915 
L 98.219956 74.821128 
L 98.343961 74.865344 
L 98.405964 74.821172 
L 98.447299 74.871619 
L 98.498968 74.926084 
L 98.524803 74.853336 
L 98.566138 74.912797 
L 98.607473 74.976582 
L 98.690144 74.927324 
L 98.81415 74.80603 
L 98.839984 74.824567 
L 98.845151 74.835418 
L 98.891653 74.745454 
L 98.922655 74.763838 
L 98.994991 74.712446 
L 99.025993 74.766611 
L 99.082829 74.805931 
L 99.129331 74.736865 
L 99.894033 74.146835 
L 99.144832 74.761666 
L 99.925034 74.198346 
L 99.930201 74.209672 
L 99.96637 74.095442 
L 99.997371 74.104327 
L 100.11621 73.993211 
L 100.131711 74.012091 
L 100.307386 74.119226 
L 100.317719 74.083816 
L 100.503728 73.801449 
L 100.508895 73.825236 
L 100.581232 73.674569 
L 100.824076 72.143572 
L 100.839577 69.342695 
L 100.855078 57.995491 
L 100.948082 66.932587 
L 101.025585 73.652882 
L 101.144424 73.203815 
L 101.325266 71.390025 
L 101.345934 60.173053 
L 101.444105 69.793084 
L 101.475106 74.040615 
L 101.573277 73.483655 
L 101.764453 71.484386 
L 101.785121 59.873912 
L 101.883292 69.342276 
L 101.91946 74.529376 
L 102.022798 73.786069 
L 102.219141 71.304337 
L 102.239808 59.452201 
L 102.33798 69.058428 
L 102.374148 75.012909 
L 102.482653 74.173279 
L 102.70483 71.111952 
L 102.720331 59.134972 
L 102.818502 68.21735 
L 102.865004 75.472525 
L 102.999343 74.33583 
L 103.216354 72.327196 
L 103.237021 70.602989 
L 103.252522 58.894649 
L 103.350693 68.080157 
L 103.402362 75.776701 
L 103.541869 74.603986 
L 103.815715 71.219822 
L 103.831215 58.733514 
L 103.934553 68.160229 
L 103.986223 75.961314 
L 104.125729 74.819114 
L 104.430576 71.736127 
L 104.451244 58.613354 
L 104.559749 68.561978 
L 104.606251 76.12211 
L 104.730257 75.136531 
L 105.102274 72.262804 
L 105.122942 68.489287 
L 105.133276 58.532093 
L 105.231447 67.851858 
L 105.283116 76.159513 
L 105.432956 75.009783 
L 105.846309 71.12362 
L 105.861809 58.500132 
L 105.959981 67.961959 
L 106.01165 76.141073 
L 106.156323 75.052163 
L 106.559342 72.679021 
L 106.59551 71.234563 
L 106.611011 58.471224 
L 106.714349 68.310995 
L 106.766018 76.182611 
L 106.895191 75.182822 
L 107.318877 73.061471 
L 107.39638 71.803248 
L 107.422215 58.484226 
L 107.525553 69.022962 
L 107.566888 76.095676 
L 107.675393 75.282921 
L 108.207585 71.886226 
L 108.223085 65.377386 
L 108.233419 58.43085 
L 108.33159 68.406601 
L 108.378093 76.072461 
L 108.507265 75.10846 
L 108.801779 73.644648 
L 109.013622 72.503569 
L 109.044623 69.38781 
L 109.054957 58.421119 
L 109.153128 68.10139 
L 109.199631 76.063809 
L 109.339137 75.063487 
L 109.855828 72.488677 
L 109.881662 71.210133 
L 109.90233 58.457465 
L 110.000501 68.620584 
L 110.041836 76.022762 
L 110.165842 75.144332 
L 110.248512 74.616845 
L 110.734202 71.895609 
L 110.749702 66.187825 
L 110.760036 58.387222 
L 110.858207 68.454804 
L 110.904709 75.99708 
L 111.033882 75.063308 
L 111.349063 73.612611 
L 111.607409 71.96782 
L 111.622909 67.994779 
L 111.633243 58.363825 
L 111.731414 68.390197 
L 111.777917 75.965682 
L 111.907089 75.008991 
L 112.366944 73.178762 
L 112.42378 72.896859 
L 112.485783 71.042431 
L 112.501283 58.368578 
L 112.599455 68.24354 
L 112.645957 75.956239 
L 112.780296 74.992 
L 113.369324 72.021048 
L 113.384824 69.141875 
L 113.395158 58.37862 
L 113.493329 68.294906 
L 113.539831 75.906618 
L 113.669004 74.965124 
L 114.056522 73.378727 
L 114.190862 72.914659 
L 114.252864 71.898306 
L 114.268365 66.488334 
L 114.278699 58.357803 
L 114.37687 68.519401 
L 114.423372 75.90465 
L 114.547378 74.97117 
L 115.131238 71.924942 
L 115.146739 66.83468 
L 115.157073 58.339426 
L 115.255244 68.455816 
L 115.306913 75.909417 
L 115.425752 75.020438 
L 115.611761 73.999521 
L 115.616928 74.008651 
L 116.056115 72.043326 
L 116.071615 69.759004 
L 116.087116 58.379993 
L 116.18012 68.307527 
L 116.231789 75.818476 
L 116.355795 74.873546 
L 116.980991 72.113311 
L 116.996492 70.377267 
L 117.011992 58.334571 
L 117.104997 68.158861 
L 117.156666 75.784406 
L 117.285838 74.845708 
L 117.864532 72.079273 
L 117.880032 70.06624 
L 117.895533 58.352544 
L 117.988537 68.130739 
L 118.03504 75.858498 
L 118.174546 74.857984 
L 118.26755 74.329911 
L 118.525896 73.503135 
L 118.779074 72.853857 
L 118.841077 71.62795 
L 118.861745 58.340422 
L 118.965083 68.999782 
L 119.006418 75.740374 
L 119.114923 74.935491 
L 119.357767 73.737089 
L 119.734952 72.5744 
L 119.77112 70.282662 
L 119.786621 58.350172 
L 119.879625 68.275444 
L 119.926127 75.735162 
L 120.065634 75.008937 
L 120.070801 75.04925 
L 120.153471 74.830983 
L 120.215474 74.745222 
L 120.277477 74.788686 
L 121.238521 78.898116 
L 121.414196 79.180965 
L 121.419363 79.170403 
L 121.476199 79.158941 
L 121.512367 79.25381 
L 121.631206 79.414144 
L 121.64154 79.395543 
L 121.750045 79.5205 
L 121.863717 79.591372 
L 121.812048 79.508517 
L 121.868884 79.59034 
L 121.899885 79.653088 
L 121.982556 79.575045 
L 122.127229 79.743221 
L 122.235734 79.692736 
L 122.240901 79.701992 
L 122.364907 79.844727 
L 122.401075 79.75309 
L 122.437243 79.802396 
L 122.494079 79.780754 
L 122.514747 79.839303 
L 122.566416 79.726061 
L 122.592251 79.726976 
L 122.65942 79.698358 
L 122.680088 79.762368 
L 122.705922 79.725423 
L 122.736924 79.766013 
L 122.783426 79.67174 
L 122.804094 79.681799 
L 122.855763 79.612526 
L 122.912599 79.697393 
L 123.424122 79.76547 
L 123.429289 79.724287 
L 123.480958 79.699694 
L 123.439623 79.736951 
L 123.542961 79.714822 
L 123.563629 79.784924 
L 123.599797 79.6945 
L 123.646299 79.695655 
L 123.754804 79.637609 
L 123.666967 79.71857 
L 123.775472 79.682584 
L 123.858143 79.73445 
L 123.889144 79.682073 
L 124.007983 79.662779 
L 123.909812 79.708851 
L 124.01315 79.67694 
L 124.059652 79.606072 
L 124.126822 79.690752 
L 124.235327 79.642533 
L 124.261161 79.660849 
L 124.374833 79.726315 
L 124.38 79.703913 
" style="fill:none;stroke:#000000;stroke-linecap:square;stroke-width:0.3;"/>
   </g>
  </g>
 </g>
 <defs>
  <clipPath id="p763767ccf0">
   <rect height="76.104" width="122.76" x="7.2" y="7.2"/>
  </clipPath>
 </defs>
</svg>
