<?xml version="1.0" encoding="utf-8" standalone="no"?>
<!DOCTYPE svg PUBLIC "-//W3C//DTD SVG 1.1//EN"
  "http://www.w3.org/Graphics/SVG/1.1/DTD/svg11.dtd">
<!-- Created with matplotlib (https://matplotlib.org/) -->
<svg height="90.504pt" version="1.1" viewBox="0 0 137.16 90.504" width="137.16pt" xmlns="http://www.w3.org/2000/svg" xmlns:xlink="http://www.w3.org/1999/xlink">
 <metadata>
  <rdf:RDF xmlns:cc="http://creativecommons.org/ns#" xmlns:dc="http://purl.org/dc/elements/1.1/" xmlns:rdf="http://www.w3.org/1999/02/22-rdf-syntax-ns#">
   <cc:Work>
    <dc:type rdf:resource="http://purl.org/dc/dcmitype/StillImage"/>
    <dc:date>2020-12-14T18:01:09.518937</dc:date>
    <dc:format>image/svg+xml</dc:format>
    <dc:creator>
     <cc:Agent>
      <dc:title>Matplotlib v3.3.2, https://matplotlib.org/</dc:title>
     </cc:Agent>
    </dc:creator>
   </cc:Work>
  </rdf:RDF>
 </metadata>
 <defs>
  <style type="text/css">*{stroke-linecap:butt;stroke-linejoin:round;}</style>
 </defs>
 <g id="figure_1">
  <g id="patch_1">
   <path d="M 0 90.504 
L 137.16 90.504 
L 137.16 -0 
L 0 -0 
z
" style="fill:none;"/>
  </g>
  <g id="axes_1">
   <g id="patch_2">
    <path d="M 7.2 83.304 
L 129.96 83.304 
L 129.96 7.2 
L 7.2 7.2 
z
" style="fill:none;"/>
   </g>
   <g id="matplotlib.axis_1"/>
   <g id="matplotlib.axis_2"/>
   <g id="line2d_1">
    <path clip-path="url(#p25202303dc)" d="M 12.78 30.503645 
L 12.966 30.55707 
L 12.971167 30.543792 
L 13.141667 30.384866 
L 13.219167 30.366933 
L 13.1985 30.3258 
L 13.2295 30.347375 
L 13.343167 30.277774 
L 13.281167 30.373582 
L 13.348333 30.283705 
L 13.472333 30.401152 
L 13.4775 30.39083 
L 13.518833 30.490684 
L 13.560167 30.559677 
L 13.6325 30.512175 
L 13.730667 30.47675 
L 13.658333 30.462571 
L 13.735833 30.455244 
L 13.875333 30.315849 
L 13.885667 30.294427 
L 14.02 30.304815 
L 14.154333 30.224962 
L 14.1595 30.251034 
L 14.247333 30.138474 
L 14.2525 30.149954 
L 14.304167 30.154896 
L 14.319667 30.217817 
L 14.335167 30.210554 
L 14.433333 30.320683 
L 14.4695 30.297641 
L 14.629667 30.309683 
L 14.707167 30.38157 
L 14.7485 30.355833 
L 14.836333 30.245708 
L 14.913833 30.32486 
L 15.012 30.391573 
L 15.0275 30.379974 
L 15.115333 30.357176 
L 15.048167 30.402538 
L 15.130833 30.393694 
L 15.141167 30.40881 
L 15.192833 30.325234 
L 15.229 30.345704 
L 15.363333 30.284678 
L 15.394333 30.321001 
L 15.487333 30.312562 
L 15.404667 30.308331 
L 15.502833 30.282137 
L 15.5855 30.238858 
L 15.611333 30.295972 
L 15.637167 30.315163 
L 15.683667 30.21556 
L 15.699167 30.221035 
L 15.828333 30.255084 
L 15.838667 30.246334 
L 15.9575 30.215907 
L 16.066 30.266671 
L 16.004 30.189555 
L 16.071167 30.246574 
L 16.0815 30.252569 
L 16.324333 29.949808 
L 16.365667 30.018262 
L 16.427667 29.933596 
L 16.432833 29.93911 
L 16.505167 29.910586 
L 16.541333 29.966673 
L 16.613667 30.005519 
L 16.649833 29.948211 
L 16.773833 29.742121 
L 16.784167 29.76495 
L 16.965 29.737317 
L 17.001167 29.715168 
L 17.052833 29.801536 
L 17.145833 29.893744 
L 17.171667 29.867578 
L 17.280167 29.799944 
L 17.192333 29.874545 
L 17.295667 29.832984 
L 17.5385 29.743797 
L 17.574667 29.755034 
L 17.657333 29.675353 
L 17.6935 29.646689 
L 17.776167 29.734711 
L 17.905333 29.626018 
L 17.807167 29.758123 
L 17.915667 29.635698 
L 17.9415 29.693475 
L 18.013833 29.601295 
L 18.1275 29.467352 
L 18.153333 29.483573 
L 18.163667 29.495726 
L 18.184333 29.401503 
L 18.246333 29.43837 
L 18.36 29.400677 
L 18.2825 29.458631 
L 18.370333 29.41626 
L 18.447833 29.32419 
L 18.571833 29.180637 
L 18.582167 29.208625 
L 18.628667 29.209874 
L 18.6545 29.155474 
L 18.67 29.154827 
L 18.6855 29.115162 
L 18.763 29.241044 
L 18.768167 29.231502 
L 18.881833 29.222015 
L 18.799167 29.197554 
L 18.887 29.217791 
L 18.928333 29.074977 
L 19.011 29.182997 
L 19.114333 29.282653 
L 19.1505 29.197203 
L 19.2745 29.037532 
L 19.166 29.20163 
L 19.279667 29.038403 
L 19.346833 29.066218 
L 19.300333 29.010742 
L 19.388167 29.012774 
L 19.672333 29.046639 
L 19.693 29.072791 
L 19.734333 28.991942 
L 19.7705 29.011564 
L 19.842833 28.920175 
L 19.904833 28.961862 
L 19.91 28.986734 
L 20.003 28.905121 
L 20.008167 28.927389 
L 20.085667 28.865668 
L 20.034 28.953626 
L 20.121833 28.929825 
L 20.147667 28.939134 
L 20.132167 28.911469 
L 20.22 28.889974 
L 20.307833 28.77962 
L 20.354333 28.793301 
L 20.380167 28.811964 
L 20.426667 28.723629 
L 20.447333 28.741122 
L 20.4835 28.777517 
L 20.581667 28.726747 
L 20.592 28.749455 
L 20.648833 28.643839 
L 20.7005 28.595203 
L 20.736667 28.673876 
L 20.757333 28.644115 
L 20.7625 28.654537 
L 20.819333 28.554363 
L 20.8245 28.563261 
L 20.953667 28.432352 
L 20.860667 28.580234 
L 20.958833 28.434188 
L 20.9795 28.506621 
L 21.046667 28.377641 
L 21.062167 28.384116 
L 21.139667 28.502256 
L 21.206833 28.405858 
L 21.325667 28.268042 
L 21.336 28.279305 
L 21.470333 28.246159 
L 21.367 28.333171 
L 21.480667 28.270969 
L 21.620167 28.292511 
L 21.635667 28.258994 
L 21.666667 28.246009 
L 21.713167 28.364504 
L 21.718333 28.34083 
L 21.764833 28.381971 
L 21.811333 28.293552 
L 21.883667 28.341175 
L 21.966333 28.237436 
L 22.555333 28.16426 
L 22.710333 28.114016 
L 22.7155 28.118274 
L 22.731 28.168013 
L 22.782667 28.082555 
L 22.829167 28.134283 
L 22.958333 28.040161 
L 22.844667 28.152441 
L 22.9635 28.060491 
L 23.237333 28.147103 
L 23.2425 28.137532 
L 23.4285 28.046837 
L 23.511167 28.054292 
L 23.5215 28.014207 
L 23.537 27.973517 
L 23.6145 28.09603 
L 23.733333 28.063097 
L 23.748833 28.100102 
L 23.754 28.129082 
L 23.8315 27.931944 
L 23.965833 27.942658 
L 23.872833 27.892383 
L 23.971 27.931963 
L 24.012333 27.792512 
L 24.089833 27.903825 
L 24.177667 27.989744 
L 24.213833 27.937387 
L 24.2655 27.88582 
L 24.312 27.966595 
L 24.322333 27.956948 
L 24.441167 27.936496 
L 24.554833 27.881988 
L 24.56 27.894567 
L 24.647833 27.897609 
L 24.6685 27.93491 
L 24.782167 27.997942 
L 24.709833 27.925931 
L 24.787333 27.991504 
L 24.802833 27.951761 
L 24.87 28.056904 
L 24.8855 28.028098 
L 24.9475 28.048346 
L 24.932 27.992724 
L 24.994 28.008357 
L 25.097333 27.860122 
L 25.128333 27.894801 
L 25.236833 27.946907 
L 25.18 27.847021 
L 25.2575 27.913405 
L 25.360833 27.753588 
L 25.386667 27.766483 
L 25.464167 27.809135 
L 25.397 27.783846 
L 25.4745 27.830265 
L 25.479667 27.843767 
L 25.557167 27.754289 
L 25.562333 27.76362 
L 25.805167 27.669428 
L 25.810333 27.691092 
L 25.851667 27.788105 
L 25.929167 27.757511 
L 25.975667 27.692046 
L 26.027333 27.815812 
L 26.11 27.83082 
L 26.1255 27.76901 
L 26.208167 27.804882 
L 26.2495 27.712935 
L 26.254667 27.728609 
L 26.285667 27.643297 
L 26.327 27.636996 
L 26.430333 27.507433 
L 26.456167 27.517903 
L 27.0245 27.327178 
L 27.220833 27.12002 
L 27.3035 27.183515 
L 27.236333 27.109014 
L 27.329333 27.10412 
L 27.422333 26.935487 
L 27.468833 26.988685 
L 27.572167 27.07213 
L 27.603167 27.045118 
L 28.373 26.688635 
L 28.460833 26.597493 
L 28.491833 26.627374 
L 28.5745 26.728911 
L 28.6055 26.665509 
L 28.6675 26.627962 
L 28.641667 26.694928 
L 28.719167 26.653472 
L 28.874167 26.646948 
L 28.9465 26.640886 
L 28.889667 26.606192 
L 28.956833 26.59956 
L 29.096333 26.345574 
L 29.1015 26.357013 
L 29.241 26.042964 
L 29.463167 24.598121 
L 29.483833 22.334867 
L 29.499333 10.659273 
L 29.587167 23.177442 
L 29.623333 28.566081 
L 29.706 27.987765 
L 29.943667 26.131849 
L 30.078 24.422516 
L 30.0935 21.895073 
L 30.109 11.439303 
L 30.196833 24.304538 
L 30.227833 29.20594 
L 30.315667 28.545747 
L 30.729 23.550441 
L 30.749667 11.485298 
L 30.8375 23.841878 
L 30.873667 29.443409 
L 30.956333 28.834963 
L 31.225 26.624151 
L 31.411 24.299954 
L 31.4265 18.912656 
L 31.436833 11.316732 
L 31.529833 25.498253 
L 31.560833 29.641521 
L 31.6435 29.118795 
L 31.974167 26.653919 
L 32.196333 24.353484 
L 32.211833 21.14692 
L 32.222167 11.319347 
L 32.315167 26.035205 
L 32.346167 29.709499 
L 32.428833 29.192419 
L 32.7595 26.994084 
L 32.795667 26.804433 
L 33.012667 25.381569 
L 33.079833 23.963416 
L 33.1005 11.302217 
L 33.188333 24.178229 
L 33.2245 29.746642 
L 33.307167 29.265829 
L 33.792833 26.436625 
L 34.066667 24.597465 
L 34.0925 19.788358 
L 34.102833 11.241844 
L 34.195833 28.510753 
L 34.221667 29.720979 
L 34.3095 29.203009 
L 34.702167 27.027338 
L 34.722833 26.969049 
L 34.8985 26.252704 
L 35.182667 24.043506 
L 35.203333 12.560511 
L 35.2085 11.196795 
L 35.275667 21.119955 
L 35.327333 29.689673 
L 35.435833 29.051797 
L 35.663167 27.82512 
L 36.210833 25.829097 
L 36.3865 25.244836 
L 36.458833 24.573545 
L 36.484667 22.30664 
L 36.500167 11.314396 
L 36.582833 26.916748 
L 36.613833 29.576169 
L 36.6965 29.097057 
L 36.784333 28.574143 
L 37.063333 27.232525 
L 37.6265 25.81633 
L 37.631667 25.83727 
L 37.693667 25.646804 
L 37.915833 24.559106 
L 37.941667 22.823196 
L 37.962333 11.263239 
L 38.039833 26.348958 
L 38.076 29.534041 
L 38.158667 29.013184 
L 38.566833 27.049246 
L 38.623667 26.929036 
L 38.861333 26.284882 
L 38.876833 26.312389 
L 38.882 26.331127 
L 38.949167 26.170788 
L 39.0835 26.084412 
L 39.093833 26.101353 
L 39.13 25.981567 
L 39.155833 25.974276 
L 39.248833 25.787614 
L 39.285 25.843214 
L 39.3625 25.745378 
L 39.419333 25.639448 
L 39.481333 25.692529 
L 39.553667 25.725369 
L 39.589833 25.689232 
L 39.6725 25.680377 
L 39.631167 25.724504 
L 39.698333 25.707597 
L 39.822333 25.826548 
L 39.977333 26.105209 
L 40.06 26.190794 
L 40.2305 26.45199 
L 40.612833 26.65045 
L 40.871167 26.911085 
L 40.876333 26.889858 
L 40.953833 27.023006 
L 42.684667 29.105891 
L 42.705333 29.071629 
L 42.715667 29.062354 
L 42.751833 29.175949 
L 42.777667 29.150367 
L 42.994667 29.461293 
L 42.999833 29.458519 
L 43.227167 29.716616 
L 43.371833 29.873235 
L 43.3925 29.885385 
L 43.4855 29.844732 
L 43.625 30.033154 
L 43.645667 29.996726 
L 43.821333 29.892098 
L 43.831667 29.934199 
L 44.3535 30.084135 
L 44.358667 30.058647 
L 44.369 30.025918 
L 44.420667 30.098707 
L 44.456833 30.08067 
L 44.544667 30.093179 
L 44.493 30.021571 
L 44.565333 30.064463 
L 44.575667 30.02852 
L 44.658333 30.152633 
L 44.6635 30.117872 
L 44.7875 30.054433 
L 44.828833 30.122971 
L 45.009667 30.379396 
L 45.102667 30.290806 
L 45.133667 30.338854 
L 45.2215 30.397747 
L 45.1905 30.309912 
L 45.2525 30.362721 
L 45.402333 30.356457 
L 45.268 30.394206 
L 45.412667 30.395136 
L 45.5005 30.418872 
L 45.4385 30.358435 
L 45.5315 30.37596 
L 45.681333 30.335461 
L 45.6865 30.348628 
L 45.712333 30.466161 
L 45.795 30.354712 
L 45.8415 30.291577 
L 45.908667 30.344387 
L 45.960333 30.417595 
L 46.001667 30.315237 
L 46.012 30.319633 
L 46.1205 30.227805 
L 46.037833 30.366866 
L 46.130833 30.246123 
L 46.187667 30.232095 
L 46.208333 30.172511 
L 46.389167 30.05914 
L 46.456333 30.09534 
L 46.502833 30.056758 
L 46.714667 29.925193 
L 46.719833 29.930593 
L 46.766333 30.039444 
L 46.8335 29.936365 
L 47.148667 30.098619 
L 47.252 30.026517 
L 47.184833 30.144884 
L 47.272667 30.055574 
L 47.443167 30.166633 
L 47.4535 30.143413 
L 47.505167 30.111469 
L 47.463833 30.164285 
L 47.5465 30.174845 
L 47.551667 30.201593 
L 47.613667 30.052375 
L 47.6395 30.075996 
L 47.758333 30.112139 
L 47.820333 30.060855 
L 47.882333 30.117779 
L 47.954667 30.173439 
L 47.985667 30.096776 
L 48.006333 30.082725 
L 48.068333 30.145956 
L 48.0735 30.146485 
L 48.1975 30.294478 
L 48.202667 30.279784 
L 48.254333 30.210808 
L 48.3215 30.236538 
L 48.461 30.381967 
L 48.471333 30.362535 
L 48.574667 30.448636 
L 48.605667 30.384817 
L 48.688333 30.32416 
L 48.636667 30.399553 
L 48.7245 30.344572 
L 48.781333 30.428465 
L 48.843333 30.383064 
L 48.936333 30.195485 
L 48.988 30.212155 
L 49.215333 30.513856 
L 49.246333 30.461021 
L 49.380667 30.396935 
L 49.256667 30.484175 
L 49.401333 30.423177 
L 49.659667 30.540416 
L 49.411667 30.396487 
L 49.675167 30.518965 
L 49.819833 30.654858 
L 49.866333 30.730469 
L 49.9335 30.692742 
L 50.031667 30.650379 
L 49.969667 30.756058 
L 50.052333 30.684972 
L 50.062667 30.703595 
L 50.29 30.652841 
L 50.3985 30.677764 
L 50.403667 30.653783 
L 50.589667 30.712736 
L 50.698167 30.672024 
L 50.7085 30.689931 
L 50.806667 30.730647 
L 50.8325 30.682844 
L 50.904833 30.620729 
L 50.946167 30.675156 
L 51.431833 30.705893 
L 51.437 30.682674 
L 51.457667 30.636445 
L 51.499 30.741178 
L 51.550667 30.700919 
L 51.586833 30.741839 
L 51.659167 30.686353 
L 51.783167 30.645927 
L 51.679833 30.700709 
L 51.788333 30.662412 
L 51.891667 30.652405 
L 51.912333 30.697469 
L 52.0415 30.736812 
L 52.186167 30.673113 
L 52.305 30.723158 
L 52.3825 30.647207 
L 52.315333 30.73606 
L 52.434167 30.701466 
L 52.522 30.737031 
L 52.532333 30.680059 
L 52.547833 30.723069 
L 52.620167 30.654602 
L 52.6615 30.714647 
L 52.666667 30.739206 
L 52.733833 30.661979 
L 52.764833 30.691504 
L 52.873333 30.655459 
L 52.8165 30.716153 
L 52.883667 30.668878 
L 53.028333 30.726645 
L 53.147167 30.614562 
L 53.214333 30.693577 
L 53.322833 30.685832 
L 53.328 30.658218 
L 53.333167 30.642642 
L 53.395167 30.749505 
L 53.421 30.727076 
L 53.7155 30.720925 
L 53.725833 30.734119 
L 53.741333 30.654331 
L 53.813667 30.670786 
L 53.886 30.73995 
L 53.927333 30.67076 
L 53.937667 30.651266 
L 54.077167 30.648668 
L 54.082333 30.623045 
L 54.097833 30.702093 
L 54.185667 30.662025 
L 54.2115 30.744321 
L 54.3045 30.689229 
L 54.418167 30.666502 
L 54.330333 30.719571 
L 54.423333 30.672618 
L 54.526667 30.718948 
L 54.531833 30.70211 
L 54.588667 30.61737 
L 54.655833 30.649758 
L 54.686833 30.620225 
L 54.810833 30.682144 
L 54.903833 30.643368 
L 54.883167 30.699799 
L 54.919333 30.670709 
L 55.002 30.737861 
L 54.945167 30.639091 
L 55.043333 30.702474 
L 55.126 30.678796 
L 55.151833 30.715412 
L 55.177667 30.689211 
L 55.2655 30.710298 
L 55.317167 30.709043 
L 55.291333 30.668927 
L 55.353333 30.657482 
L 55.436 30.609695 
L 55.467 30.635691 
L 55.5755 30.706942 
L 55.585833 30.664314 
L 55.616833 30.629452 
L 55.684 30.711735 
L 55.926833 30.675932 
L 55.968167 30.644392 
L 56.0405 30.662823 
L 56.149 30.695354 
L 56.1645 30.670255 
L 56.211 30.655335 
L 56.1955 30.717785 
L 56.267833 30.705679 
L 56.3505 30.724471 
L 56.298833 30.674428 
L 56.371167 30.672027 
L 56.391833 30.64054 
L 56.459 30.728171 
L 56.469333 30.770396 
L 56.521 30.665152 
L 56.557167 30.687252 
L 56.655333 30.667604 
L 56.624333 30.747395 
L 56.665667 30.68485 
L 56.681167 30.67378 
L 56.789667 30.697237 
L 56.903333 30.656794 
L 56.913667 30.671402 
L 57.079 30.73639 
L 56.924 30.648179 
L 57.0945 30.687746 
L 59.1095 30.66656 
L 59.130167 30.716521 
L 59.2025 30.620969 
L 59.218 30.653135 
L 59.316167 30.592343 
L 59.336833 30.638528 
L 59.455667 30.538134 
L 59.383333 30.658184 
L 59.471167 30.581814 
L 59.517667 30.636049 
L 59.507333 30.649102 
L 59.533167 30.664962 
L 59.538333 30.680301 
L 59.579667 30.564291 
L 59.610667 30.571536 
L 59.708833 30.544137 
L 59.631333 30.605341 
L 59.7295 30.579066 
L 59.848333 30.623869 
L 59.8535 30.645393 
L 59.863833 30.610498 
L 60.003333 30.615952 
L 60.018833 30.578071 
L 60.060167 30.674152 
L 60.106667 30.669497 
L 60.184167 30.681214 
L 60.148 30.62971 
L 60.199667 30.622783 
L 60.235833 30.573109 
L 60.297833 30.65131 
L 60.308167 30.639487 
L 60.323667 30.673664 
L 60.427 30.631128 
L 60.494167 30.657647 
L 60.4425 30.589296 
L 60.530333 30.588188 
L 60.6285 30.708373 
L 60.654333 30.747904 
L 60.700833 30.66344 
L 60.726667 30.664642 
L 60.793833 30.704658 
L 60.850667 30.630224 
L 60.855833 30.646529 
L 60.902333 30.529878 
L 60.943667 30.559429 
L 60.954 30.531722 
L 61.021167 30.619306 
L 61.047 30.59192 
L 61.083167 30.646242 
L 61.1555 30.581885 
L 61.181333 30.637862 
L 61.264 30.634958 
L 61.388 30.783112 
L 61.4035 30.768756 
L 61.5585 30.647188 
L 61.563667 30.651461 
L 61.625667 30.59399 
L 61.698 30.682453 
L 61.847833 30.487818 
L 61.8995 30.531081 
L 61.940833 30.60368 
L 62.008 30.508067 
L 62.235333 30.564266 
L 62.2405 30.596504 
L 62.328333 30.498103 
L 62.338667 30.546853 
L 62.5505 30.389229 
L 62.555667 30.396043 
L 62.628 30.361668 
L 62.6745 30.449318 
L 62.808833 30.337201 
L 62.819167 30.38194 
L 62.865667 30.481716 
L 62.932833 30.409427 
L 63.056833 30.403995 
L 63.062 30.415578 
L 63.0775 30.437119 
L 63.129167 30.300611 
L 63.2015 30.122191 
L 63.2635 30.207209 
L 63.475333 30.347386 
L 63.656167 30.260278 
L 63.661333 30.266283 
L 63.7595 30.431962 
L 63.795667 30.401341 
L 63.9455 30.37371 
L 63.955833 30.396168 
L 64.033333 30.481683 
L 63.966167 30.390717 
L 64.079833 30.423203 
L 64.110833 30.446862 
L 64.172833 30.387003 
L 64.2245 30.266565 
L 64.296833 30.331667 
L 64.653333 30.206833 
L 64.6585 30.230963 
L 64.710167 30.143326 
L 64.756667 30.175936 
L 65.175167 29.822971 
L 65.180333 29.85337 
L 65.242333 29.939408 
L 65.294 29.897258 
L 65.407667 29.826466 
L 65.325 29.940522 
L 65.412833 29.843671 
L 65.418 29.859016 
L 65.490333 29.744419 
L 65.500667 29.773043 
L 65.5265 29.750237 
L 65.573 29.844109 
L 65.593667 29.839619 
L 65.660833 29.905124 
L 65.707333 29.850127 
L 65.852 29.713173 
L 66.136167 29.468085 
L 65.903667 29.766949 
L 66.1465 29.486409 
L 66.260167 29.587431 
L 66.172333 29.474255 
L 66.275667 29.538439 
L 66.3945 29.498433 
L 66.41 29.524601 
L 66.596 29.466182 
L 66.776833 29.67551 
L 66.787167 29.670825 
L 66.947333 29.507617 
L 66.9525 29.533196 
L 66.962833 29.565775 
L 67.035167 29.422694 
L 67.040333 29.448488 
L 67.143667 29.327766 
L 67.066167 29.474095 
L 67.1695 29.381844 
L 67.427833 29.213103 
L 67.453667 29.262352 
L 67.582833 29.254327 
L 67.495 29.193306 
L 67.588 29.242284 
L 67.7895 29.153055 
L 67.799833 29.167129 
L 67.887667 29.208264 
L 67.815333 29.1509 
L 67.9135 29.167376 
L 68.073667 28.984787 
L 68.089167 29.013896 
L 68.171833 29.093469 
L 68.202833 29.034602 
L 68.301 29.02 
L 68.264833 28.982741 
L 68.311333 29.002414 
L 68.383667 28.930166 
L 68.425 28.988134 
L 68.605833 29.056801 
L 68.621333 29.012322 
L 68.745333 28.909813 
L 68.636833 29.027956 
L 68.7815 28.950728 
L 68.802167 29.017914 
L 68.879667 28.879054 
L 69.008833 28.840846 
L 69.127667 28.791323 
L 69.132833 28.777104 
L 69.272333 28.644145 
L 69.2775 28.65685 
L 69.417 28.693951 
L 69.427333 28.657799 
L 69.4635 28.609584 
L 69.499667 28.680145 
L 69.541 28.662598 
L 69.566833 28.720875 
L 69.685667 28.633115 
L 69.721833 28.562611 
L 69.851 28.664895 
L 69.892333 28.573874 
L 70.026667 28.473842 
L 70.031833 28.476862 
L 70.104167 28.524488 
L 70.109333 28.54397 
L 70.223 28.677949 
L 70.243667 28.664932 
L 70.357333 28.766961 
L 70.372833 28.736823 
L 70.7965 28.360598 
L 70.801667 28.372825 
L 70.936 28.443839 
L 70.812 28.361294 
L 70.946333 28.420046 
L 71.173667 28.245873 
L 71.2615 28.240561 
L 71.277 28.279809 
L 71.380333 28.296431 
L 71.308 28.252936 
L 71.390667 28.275439 
L 71.519833 28.190018 
L 71.669667 28.129033 
L 71.804 28.011524 
L 71.824667 28.054207 
L 71.8815 27.933984 
L 71.9745 27.844062 
L 72.015833 27.92659 
L 72.134667 28.035751 
L 72.026167 27.915839 
L 72.145 27.993434 
L 72.186333 27.890417 
L 72.269 27.94541 
L 72.382667 27.942504 
L 72.403333 27.985666 
L 72.413667 28.032656 
L 72.480833 27.881444 
L 72.496333 27.883853 
L 72.599667 27.918749 
L 72.615167 27.908191 
L 72.661667 27.853968 
L 72.723667 27.919034 
L 72.940667 27.785469 
L 73.064667 27.633049 
L 73.075 27.671546 
L 73.235167 27.558701 
L 73.395333 27.694901 
L 73.405667 27.687821 
L 73.4935 27.690457 
L 73.472833 27.75614 
L 73.509 27.711643 
L 73.602 27.770361 
L 73.622667 27.725317 
L 73.798333 27.530577 
L 73.906833 27.655991 
L 73.932667 27.605918 
L 74.165167 27.443118 
L 74.222 27.472204 
L 74.247833 27.387061 
L 74.2685 27.404487 
L 74.3615 27.402544 
L 74.309833 27.432532 
L 74.366667 27.422014 
L 74.4855 27.578732 
L 74.501 27.557302 
L 74.506167 27.534834 
L 74.537167 27.646977 
L 74.599167 27.625027 
L 74.661167 27.629046 
L 74.6095 27.613783 
L 74.681833 27.582022 
L 74.738667 27.595951 
L 74.7955 27.541023 
L 74.924667 27.628004 
L 74.929833 27.620706 
L 75.363833 27.589534 
L 75.451667 27.519619 
L 75.4 27.599241 
L 75.482667 27.538622 
L 75.611833 27.615555 
L 75.5395 27.50507 
L 75.627333 27.60893 
L 75.797833 27.592771 
L 75.803 27.570246 
L 75.952833 27.488357 
L 75.859833 27.605422 
L 75.958 27.501427 
L 76.051 27.410734 
L 76.144 27.307196 
L 76.175 27.345041 
L 76.247333 27.408726 
L 76.2835 27.349485 
L 76.4075 27.167748 
L 76.428167 27.175541 
L 76.526333 27.24116 
L 76.547 27.218114 
L 76.712333 27.01735 
L 76.743333 27.043406 
L 76.888 27.115831 
L 76.898333 27.108133 
L 77.079167 26.99191 
L 77.125667 27.007314 
L 77.110167 26.958322 
L 77.167 26.932591 
L 77.270333 26.881807 
L 77.285833 26.909005 
L 77.347833 26.91921 
L 77.322 26.879672 
L 77.378833 26.875586 
L 77.533833 26.653743 
L 77.446 26.909292 
L 77.539 26.658823 
L 77.854167 26.309343 
L 77.859333 26.323744 
L 77.916167 26.206909 
L 77.931667 26.215665 
L 77.952333 26.232875 
L 78.076333 26.067068 
L 78.257167 25.615603 
L 78.355333 24.960699 
L 78.3915 23.089284 
L 78.412167 10.703581 
L 78.494833 23.039056 
L 78.531 28.447277 
L 78.618833 27.857281 
L 78.985667 24.05422 
L 79.006333 11.433838 
L 79.094167 22.747604 
L 79.130333 29.166975 
L 79.218167 28.52333 
L 79.590167 25.113852 
L 79.626333 23.638638 
L 79.647 11.449225 
L 79.734833 23.469803 
L 79.765833 29.458601 
L 79.853667 28.869426 
L 80.308333 24.835193 
L 80.334167 22.880178 
L 80.349667 11.326826 
L 80.4375 23.317171 
L 80.473667 29.607457 
L 80.556333 29.063324 
L 80.742333 27.695871 
L 81.109167 23.815175 
L 81.129833 11.245337 
L 81.217667 24.028644 
L 81.253833 29.717652 
L 81.3365 29.216613 
L 81.7705 26.406113 
L 81.982333 24.728862 
L 82.008167 21.891724 
L 82.023667 11.237309 
L 82.1115 26.505703 
L 82.1425 29.756226 
L 82.225167 29.253043 
L 82.9795 24.641494 
L 83.005333 20.736014 
L 83.020833 11.248164 
L 83.108667 27.960646 
L 83.1345 29.77269 
L 83.222333 29.254262 
L 83.2585 29.058553 
L 83.584 27.334108 
L 83.589167 27.338208 
L 83.609833 27.213842 
L 84.116167 25.146428 
L 84.173 23.661003 
L 84.193667 11.230138 
L 84.276333 24.966079 
L 84.3125 29.692849 
L 84.395167 29.213363 
L 84.457167 28.828266 
L 84.731 27.478442 
L 85.196 25.956127 
L 85.201167 25.967339 
L 85.252833 25.83591 
L 85.495667 24.94667 
L 85.531833 24.346141 
L 85.5525 20.912694 
L 85.568 11.276031 
L 85.655833 28.802932 
L 85.681667 29.567454 
L 85.7695 29.011597 
L 86.038167 27.539728 
L 86.043333 27.54859 
L 86.312 26.616533 
L 86.461833 26.374204 
L 86.472167 26.380681 
L 86.5135 26.282946 
L 86.673667 25.778453 
L 86.709833 25.804234 
L 86.771833 25.75202 
L 86.735667 25.746412 
L 86.777 25.726025 
L 86.968167 25.399238 
L 87.092167 25.160683 
L 87.190333 23.99155 
L 87.211 15.61107 
L 87.221333 11.376205 
L 87.298833 26.943007 
L 87.329833 29.391286 
L 87.4125 28.888212 
L 87.805167 26.981642 
L 88.4665 25.819218 
L 88.580167 25.841865 
L 88.533667 25.745831 
L 88.595667 25.821803 
L 88.761 25.862123 
L 88.766167 25.892575 
L 88.8385 25.993064 
L 88.890167 25.955011 
L 88.967667 25.944969 
L 88.9935 25.985399 
L 89.1485 26.251729 
L 89.153667 26.233036 
L 89.226 26.355635 
L 89.231167 26.352729 
L 89.355167 26.514905 
L 89.360333 26.480252 
L 89.406833 26.453818 
L 89.417167 26.505608 
L 89.463667 26.51153 
L 89.6135 26.783707 
L 89.623833 26.743243 
L 89.629 26.732628 
L 89.696167 26.809971 
L 89.701333 26.807104 
L 89.851167 26.987266 
L 89.871833 26.966717 
L 90.006167 27.106353 
L 90.2645 27.309019 
L 90.3885 27.42988 
L 90.393667 27.408034 
L 90.429833 27.515172 
L 90.4815 27.497135 
L 90.657167 27.605367 
L 90.507333 27.469325 
L 90.6675 27.597002 
L 90.672667 27.562581 
L 90.7605 27.715935 
L 90.910333 27.980124 
L 90.925833 27.954455 
L 91.0395 28.015919 
L 91.189333 28.349998 
L 91.1945 28.337533 
L 91.261667 28.454751 
L 91.272 28.430963 
L 91.432167 28.583225 
L 91.545833 28.815526 
L 91.5665 28.784073 
L 92.5585 30.105242 
L 92.5895 30.017567 
L 92.6515 29.998979 
L 92.6825 30.091701 
L 92.718667 30.117888 
L 92.765167 30.037699 
L 92.791 30.077309 
L 92.940833 30.136248 
L 93.002833 30.080994 
L 93.075167 30.162047 
L 93.230167 30.121631 
L 93.126833 30.258142 
L 93.235333 30.137518 
L 93.343833 30.192894 
L 93.287 30.102432 
L 93.3645 30.172746 
L 93.374833 30.143309 
L 93.452333 30.259305 
L 93.524667 30.220907 
L 93.571167 30.257591 
L 93.721 30.183479 
L 93.731333 30.192612 
L 93.819167 30.202142 
L 93.772667 30.138971 
L 93.839833 30.189636 
L 93.896667 30.222787 
L 93.963833 30.158078 
L 94.098167 30.195342 
L 94.330667 30.270943 
L 94.408167 30.312316 
L 94.439167 30.26008 
L 94.563167 30.397158 
L 94.568333 30.383139 
L 94.589 30.338508 
L 94.656167 30.433382 
L 94.671667 30.420718 
L 94.754333 30.48571 
L 94.707833 30.370635 
L 94.785333 30.439554 
L 94.795667 30.46079 
L 95.095333 30.221153 
L 95.178 30.188248 
L 95.1315 30.166435 
L 95.1935 30.168738 
L 95.245167 30.050498 
L 95.302 30.140843 
L 95.307167 30.17779 
L 95.395 30.029805 
L 95.4105 30.009803 
L 95.462167 30.100884 
L 95.498333 30.070826 
L 95.55 30.096188 
L 95.606833 30.051617 
L 95.6275 30.011785 
L 95.668833 30.127706 
L 95.705 30.109695 
L 96.020167 30.127274 
L 96.035667 30.13773 
L 96.077 30.053439 
L 96.108 30.057235 
L 96.350833 30.229728 
L 96.356 30.223565 
L 96.366333 30.250417 
L 96.4645 30.261713 
L 96.469667 30.275865 
L 96.490333 30.208712 
L 96.552333 30.219313 
L 96.645333 30.137894 
L 96.671167 30.155906 
L 96.691833 30.125514 
L 96.965667 30.269364 
L 97.001833 30.206369 
L 97.079333 30.245132 
L 97.472 30.496957 
L 97.4875 30.549942 
L 97.565 30.437578 
L 97.627 30.344792 
L 97.7045 30.42842 
L 97.813 30.486916 
L 97.849167 30.561434 
L 97.9215 30.4642 
L 97.937 30.436493 
L 97.993833 30.549687 
L 98.009333 30.531836 
L 98.148833 30.702712 
L 98.040333 30.517363 
L 98.1695 30.668913 
L 98.236667 30.625092 
L 98.205667 30.705939 
L 98.278 30.693836 
L 106.704833 30.723431 
L 106.71 30.742082 
L 106.772 30.641867 
L 106.797833 30.663948 
L 106.839167 30.663837 
L 106.875333 30.741804 
L 106.8805 30.720824 
L 106.885667 30.734549 
L 106.932167 30.651781 
L 106.958 30.652357 
L 106.994167 30.605556 
L 107.061333 30.66172 
L 107.169833 30.705646 
L 107.175 30.696068 
L 107.247333 30.659032 
L 107.2835 30.693556 
L 107.758833 30.683247 
L 107.7795 30.656839 
L 107.857 30.730193 
L 107.867333 30.703108 
L 108.2445 30.724446 
L 108.358167 30.698213 
L 108.363333 30.686338 
L 108.528667 30.641053 
L 108.544167 30.667053 
L 108.683667 30.717839 
L 108.5545 30.653737 
L 108.699167 30.705191 
L 108.781833 30.609603 
L 108.818 30.637099 
L 108.947167 30.721586 
L 108.838667 30.625702 
L 108.9575 30.688419 
L 108.9885 30.617344 
L 109.071167 30.685857 
L 109.1435 30.728321 
L 109.179667 30.674843 
L 109.562 30.688596 
L 109.696333 30.747119 
L 109.717 30.724189 
L 109.748 30.653251 
L 109.804833 30.663054 
L 109.882333 30.640445 
L 109.815167 30.671519 
L 109.908167 30.700727 
L 110.714167 30.545245 
L 110.719333 30.534657 
L 110.750333 30.629097 
L 110.791667 30.628179 
L 110.838167 30.670126 
L 110.874333 30.590268 
L 110.895 30.588522 
L 110.931167 30.617683 
L 111.013833 30.591444 
L 111.086167 30.687526 
L 111.137833 30.642551 
L 111.1585 30.561428 
L 111.2515 30.636668 
L 111.494333 30.607199 
L 111.261833 30.668322 
L 111.4995 30.628353 
L 111.551167 30.726352 
L 111.613167 30.653217 
L 111.721667 30.604146 
L 111.737167 30.620867 
L 111.9955 30.650235 
L 112.0575 30.731371 
L 112.005833 30.639434 
L 112.104 30.625803 
L 112.222833 30.644755 
L 112.2435 30.62244 
L 112.403667 30.502283 
L 112.264167 30.636244 
L 112.414 30.531371 
L 112.470833 30.573096 
L 112.512167 30.49559 
L 112.594833 30.404205 
L 112.631 30.47054 
L 112.724 30.470153 
L 112.7395 30.432328 
L 112.858333 30.395715 
L 112.765333 30.451865 
L 112.8635 30.400708 
L 112.972 30.480035 
L 112.920333 30.364104 
L 112.992667 30.45221 
L 113.101167 30.43317 
L 113.0185 30.475179 
L 113.106333 30.454829 
L 113.137333 30.486493 
L 113.2045 30.393352 
L 113.3905 30.303697 
L 113.400833 30.280452 
L 113.473167 30.385215 
L 113.617833 30.450031 
L 113.767667 30.50814 
L 113.778 30.457567 
L 114.299833 30.177397 
L 114.3205 30.248152 
L 114.325667 30.257255 
L 114.372167 30.174816 
L 114.398 30.164949 
L 114.4135 30.125106 
L 114.491 30.241852 
L 114.6615 30.246384 
L 114.666667 30.264929 
L 114.697667 30.247428 
L 114.801 30.350739 
L 114.852667 30.38554 
L 114.8785 30.26821 
L 114.966333 30.188543 
L 115.08 30.107954 
L 115.085167 30.128744 
L 115.183333 30.225717 
L 115.2195 30.201429 
L 115.224667 30.18853 
L 115.307333 30.273723 
L 115.452 30.336909 
L 115.338333 30.223206 
L 115.457167 30.324229 
L 115.674167 30.183293 
L 115.694833 30.239506 
L 115.7775 30.155154 
L 116.1185 30.042298 
L 116.247667 29.87652 
L 116.258 29.889329 
L 116.2735 29.850022 
L 116.361333 29.912477 
L 116.433667 29.868726 
L 116.4905 29.952461 
L 116.640333 29.833058 
L 116.697167 29.824963 
L 116.666167 29.794013 
L 116.733333 29.786892 
L 116.748833 29.806396 
L 116.867667 29.744501 
L 117.038167 29.658735 
L 117.074333 29.701744 
L 117.1415 29.760025 
L 117.084667 29.686211 
L 117.182833 29.674992 
L 117.25 29.550838 
L 117.317167 29.591136 
L 117.343 29.611763 
L 117.487667 29.43346 
L 117.523833 29.455581 
L 117.539333 29.386107 
L 117.596167 29.437758 
L 117.756333 29.250023 
L 117.7615 29.256035 
L 117.875167 29.307263 
L 117.890667 29.276033 
L 117.9165 29.22898 
L 117.957833 29.194283 
L 118.154167 29.00682 
L 118.18 29.03116 
L 118.283333 28.994622 
L 118.309167 29.068413 
L 118.386667 29.132747 
L 118.428 29.042717 
L 118.619167 28.821155 
L 118.624333 28.835705 
L 118.670833 28.863182 
L 118.727667 28.813473 
L 118.779333 28.757489 
L 118.7535 28.832494 
L 118.8465 28.787459 
L 118.862 28.844981 
L 119.285667 28.660862 
L 119.430333 28.856321 
L 119.445833 28.826715 
L 119.487167 28.858039 
L 119.523333 28.763784 
L 119.657667 28.55715 
L 119.699 28.581345 
L 120.246667 28.31511 
L 120.375833 28.181158 
L 120.381 28.191356 
L 120.515333 28.314857 
L 120.536 28.260662 
L 120.654833 28.234633 
L 120.6135 28.313715 
L 120.66 28.239766 
L 120.747833 28.224879 
L 120.680667 28.191854 
L 120.763333 28.193317 
L 120.840833 28.139278 
L 120.804667 28.239416 
L 120.877 28.182349 
L 120.882167 28.191241 
L 120.939 28.08398 
L 121.068167 27.963164 
L 121.099167 27.985687 
L 121.119833 28.049762 
L 121.2025 27.973185 
L 121.316167 27.92509 
L 121.274833 28.00017 
L 121.331667 27.93025 
L 121.342 27.959769 
L 121.393667 27.870112 
L 121.429833 27.882141 
L 121.528 27.965006 
L 121.739833 28.118225 
L 121.838 28.067096 
L 121.858667 28.081208 
L 121.863833 28.086958 
L 121.889667 27.997246 
L 121.931 28.01444 
L 122.013667 27.948993 
L 121.982667 28.02651 
L 122.049833 27.970702 
L 122.334 27.891089 
L 122.339167 27.849627 
L 122.4115 27.967948 
L 122.437333 27.948718 
L 122.452833 27.983146 
L 122.525167 27.905514 
L 122.540667 27.929418 
L 122.602667 27.938295 
L 122.551 27.949307 
L 122.633667 27.975729 
L 122.680167 28.035856 
L 122.731833 27.932075 
L 122.737 27.943624 
L 122.881667 27.908304 
L 122.886833 27.923363 
L 122.964333 27.810406 
L 123.119333 27.632578 
L 122.985 27.839341 
L 123.134833 27.662696 
L 123.165833 27.689196 
L 123.191667 27.602173 
L 123.2175 27.601335 
L 123.227833 27.583524 
L 123.284667 27.744728 
L 123.9615 28.011343 
L 123.987333 27.935737 
L 124.0235 27.852446 
L 124.106167 27.929316 
L 124.3025 28.008489 
L 124.1165 27.914239 
L 124.318 27.957426 
L 124.374833 27.914449 
L 124.374833 27.914449 
" style="fill:none;stroke:#000000;stroke-linecap:square;stroke-width:0.3;"/>
   </g>
   <g id="line2d_2">
    <path clip-path="url(#p25202303dc)" d="M 12.78 54.345039 
L 12.893667 54.310732 
L 12.805833 54.360235 
L 12.904 54.325899 
L 12.9195 54.336552 
L 12.960833 54.248612 
L 12.986667 54.243769 
L 13.296667 54.291594 
L 13.338 54.241422 
L 13.348333 54.303525 
L 13.405167 54.303388 
L 13.534333 54.346385 
L 13.544667 54.402574 
L 13.622167 54.31459 
L 13.648 54.379799 
L 14.397167 54.205705 
L 14.402333 54.184886 
L 14.454 54.300717 
L 14.490167 54.280733 
L 15.192833 54.307716 
L 15.208333 54.359202 
L 15.291 54.263803 
L 15.296167 54.264842 
L 15.621667 54.330231 
L 15.626833 54.318371 
L 15.699167 54.235547 
L 15.756 54.278454 
L 15.792167 54.350282 
L 15.885167 54.312783 
L 15.9575 54.240483 
L 15.993667 54.327259 
L 16.128 54.286176 
L 16.252 54.242464 
L 16.339833 54.284676 
L 16.283 54.218109 
L 16.381167 54.229771 
L 16.479333 54.167745 
L 16.401833 54.263579 
L 16.5 54.211433 
L 17.595333 54.301968 
L 17.6005 54.327164 
L 17.647 54.22269 
L 17.6935 54.264342 
L 17.734833 54.191993 
L 17.807167 54.25863 
L 17.858833 54.28212 
L 17.895 54.195116 
L 17.900167 54.165579 
L 17.936333 54.263142 
L 18.0035 54.205844 
L 18.0345 54.208234 
L 18.070667 54.29313 
L 18.163667 54.294872 
L 18.091333 54.26318 
L 18.179167 54.279721 
L 18.1895 54.242706 
L 18.236 54.3397 
L 18.287667 54.27565 
L 18.411667 54.230762 
L 18.3135 54.307635 
L 18.427167 54.265607 
L 18.478833 54.289337 
L 18.458167 54.247779 
L 18.535667 54.238892 
L 18.695833 54.123737 
L 18.726833 54.180251 
L 18.804333 54.150238 
L 18.938667 54.32711 
L 19.031667 54.353848 
L 19.0575 54.27473 
L 19.279667 54.26378 
L 19.284833 54.286177 
L 19.29 54.305093 
L 19.346833 54.222695 
L 19.383 54.232668 
L 19.496667 54.193381 
L 19.517333 54.228118 
L 19.6775 54.270481 
L 19.693 54.302932 
L 19.775667 54.216865 
L 19.780833 54.232329 
L 19.8015 54.215214 
L 19.822167 54.331424 
L 19.868667 54.289186 
L 19.930667 54.302094 
L 19.91 54.245656 
L 19.966833 54.25159 
L 19.997833 54.302775 
L 20.152833 54.163059 
L 20.261333 54.226926 
L 20.214833 54.146499 
L 20.2665 54.218707 
L 20.375 54.101451 
L 20.3905 54.138566 
L 20.685 54.347106 
L 20.8245 54.204862 
L 20.834833 54.227624 
L 20.912333 54.241432 
L 20.8865 54.197945 
L 20.938167 54.207468 
L 21.0105 54.200633 
L 21.026 54.248652 
L 21.0415 54.244069 
L 21.212 54.152283 
L 21.217167 54.167797 
L 21.341167 54.235181 
L 21.274 54.132579 
L 21.3515 54.197003 
L 21.408333 54.159693 
L 21.465167 54.219616 
L 21.522 54.332634 
L 21.584 54.260818 
L 21.713167 54.231929 
L 21.615 54.318214 
L 21.728667 54.272933 
L 21.780333 54.239092 
L 21.857833 54.304567 
L 21.997333 54.220844 
L 22.0335 54.261058 
L 22.059333 54.194349 
L 22.105833 54.202282 
L 22.136833 54.152194 
L 22.193667 54.251524 
L 22.209167 54.230116 
L 22.519167 54.259211 
L 22.524333 54.231157 
L 22.565667 54.202479 
L 22.6225 54.262769 
L 22.632833 54.242256 
L 23.196 54.208701 
L 23.201167 54.174857 
L 23.263167 54.277803 
L 23.289 54.264556 
L 23.387167 54.307307 
L 23.402667 54.300202 
L 23.562833 54.285243 
L 23.568 54.275314 
L 23.661 54.252587 
L 23.6455 54.313871 
L 23.686833 54.265437 
L 23.867667 54.19462 
L 23.960667 54.127198 
L 23.991667 54.172554 
L 24.146667 54.326717 
L 24.012333 54.143247 
L 24.188 54.2956 
L 24.219 54.336713 
L 24.363667 54.242669 
L 24.446333 54.281624 
L 24.472167 54.254357 
L 24.580667 54.177107 
L 24.591 54.201675 
L 24.689167 54.266992 
L 24.715 54.261109 
L 24.973333 54.345739 
L 25.0405 54.283036 
L 25.045667 54.257791 
L 25.1335 54.193546 
L 25.076667 54.268215 
L 25.1645 54.233687 
L 25.221333 54.110425 
L 25.293667 54.18047 
L 25.335 54.245923 
L 25.407333 54.1721 
L 25.4125 54.164751 
L 25.469333 54.254267 
L 25.479667 54.245914 
L 25.5055 54.268005 
L 25.5675 54.143636 
L 25.655333 54.127262 
L 25.634667 54.176219 
L 25.670833 54.168144 
L 25.696667 54.162264 
L 25.789667 54.218694 
L 25.887833 54.241793 
L 25.820667 54.196971 
L 25.9085 54.232825 
L 25.924 54.256321 
L 26.0015 54.2766 
L 26.006667 54.311381 
L 26.084167 54.23855 
L 26.104833 54.242014 
L 26.802333 54.250285 
L 26.926333 54.318204 
L 26.9315 54.316521 
L 27.096833 54.214007 
L 27.195 54.314219 
L 27.226 54.226454 
L 27.344833 54.25899 
L 27.360333 54.222106 
L 27.443 54.112457 
L 27.479167 54.182237 
L 27.577333 54.197931 
L 27.505 54.161938 
L 27.5825 54.178868 
L 27.623833 54.099345 
L 27.680667 54.202751 
L 27.763333 54.271991 
L 27.794333 54.216073 
L 27.975167 54.313912 
L 27.990667 54.233057 
L 28.094 54.264457 
L 28.197333 54.2181 
L 28.2645 54.152019 
L 28.311 54.168217 
L 28.331667 54.254478 
L 28.429833 54.231539 
L 28.4505 54.238418 
L 28.548667 54.169193 
L 28.6055 54.258488 
L 28.672667 54.229837 
L 28.817333 54.307157 
L 28.827667 54.297079 
L 29.215167 54.159699 
L 29.251333 54.105754 
L 29.303 54.228997 
L 29.308167 54.222371 
L 29.778333 54.336452 
L 29.954 54.276905 
L 29.804167 54.372189 
L 29.959167 54.282188 
L 30.0315 54.356675 
L 30.067667 54.281447 
L 30.202 54.328311 
L 30.129667 54.208598 
L 30.2175 54.314785 
L 30.331167 54.269972 
L 30.300167 54.367395 
L 30.336333 54.282533 
L 30.377667 54.347244 
L 30.429333 54.252499 
L 30.470667 54.275306 
L 30.537833 54.248091 
L 30.610167 54.335914 
L 30.553333 54.226072 
L 30.661833 54.309156 
L 30.708333 54.331875 
L 30.749667 54.261174 
L 30.765167 54.271383 
L 30.884 54.257453 
L 30.889167 54.250778 
L 30.997667 54.153813 
L 31.008 54.172733 
L 31.111333 54.131863 
L 31.142333 54.184525 
L 31.204333 54.220151 
L 31.168167 54.160586 
L 31.245667 54.170553 
L 31.287 54.128905 
L 31.343833 54.221309 
L 31.349 54.212403 
L 31.473 54.147536 
L 31.369667 54.241449 
L 31.483333 54.162835 
L 31.545333 54.252323 
L 31.591833 54.144791 
L 31.6745 54.06158 
L 31.731333 54.163939 
L 31.7365 54.16789 
L 31.772667 54.06469 
L 31.777833 54.073044 
L 31.834667 54.039152 
L 31.876 54.121735 
L 31.886333 54.148232 
L 31.963833 54.045386 
L 32.062 53.971125 
L 32.087833 53.988763 
L 32.1705 54.0329 
L 32.191167 53.960006 
L 32.196333 53.971954 
L 32.315167 53.91224 
L 32.206667 53.977806 
L 32.320333 53.919895 
L 32.366833 53.961891 
L 32.4185 53.889322 
L 32.423667 53.89192 
L 32.496 53.926381 
L 32.475333 53.956187 
L 32.506333 53.960171 
L 32.521833 53.97625 
L 32.547667 53.911642 
L 32.589 53.903585 
L 32.62 53.871044 
L 32.687167 53.942314 
L 32.6975 53.921069 
L 32.9455 53.899194 
L 33.110833 53.687159 
L 33.24 53.7153 
L 33.245167 53.708728 
L 33.322667 53.642816 
L 33.260667 53.746061 
L 33.358833 53.748753 
L 33.560333 53.825754 
L 33.5655 53.809917 
L 33.5965 53.846328 
L 33.7205 53.743144 
L 33.880667 54.002175 
L 33.942667 53.860266 
L 34.0615 53.814917 
L 34.133833 53.690683 
L 34.077 53.825849 
L 34.180333 53.739107 
L 34.190667 53.769023 
L 34.252667 53.684113 
L 34.273333 53.688543 
L 34.314667 53.708966 
L 34.418 53.592387 
L 34.4955 53.480093 
L 34.547167 53.564243 
L 34.583333 53.610254 
L 34.6505 53.524656 
L 34.810667 53.384593 
L 35.193 53.361732 
L 35.198167 53.38354 
L 35.306667 53.399381 
L 35.296333 53.342168 
L 35.311833 53.392085 
L 35.503 53.104802 
L 35.513333 53.146112 
L 35.539167 53.126548 
L 35.663167 53.25073 
L 35.745833 53.277717 
L 35.7665 53.219965 
L 35.880167 53.070674 
L 35.9215 53.127002 
L 35.978333 53.212056 
L 36.040333 53.125871 
L 36.205667 53.163592 
L 36.216 53.107457 
L 36.236667 53.099765 
L 36.252167 53.162345 
L 36.267667 53.17759 
L 36.334833 53.226236 
L 36.376167 53.163466 
L 36.675833 52.882685 
L 36.737833 53.005424 
L 36.799833 53.095317 
L 36.856667 53.067515 
L 36.949667 53.005465 
L 37.058167 52.901348 
L 37.078833 52.934941 
L 37.228667 53.039868 
L 37.2545 53.05501 
L 37.311333 52.943307 
L 37.321667 52.990608 
L 37.4095 52.942956 
L 37.332 53.015035 
L 37.445667 52.97216 
L 37.487 53.021219 
L 37.543833 52.93154 
L 37.549 52.945764 
L 37.729833 52.770086 
L 37.740167 52.790225 
L 37.900333 52.780756 
L 37.9055 52.769339 
L 38.0605 52.605673 
L 38.081167 52.566636 
L 38.117333 52.667056 
L 38.158667 52.669815 
L 38.489333 52.878572 
L 38.51 52.849915 
L 38.634 52.792954 
L 38.639167 52.827493 
L 38.763167 52.85929 
L 38.768333 52.853291 
L 38.7735 52.857531 
L 38.8045 52.787432 
L 38.82 52.782012 
L 38.938833 52.660121 
L 38.944 52.661161 
L 39.088667 52.693948 
L 39.099 52.678941 
L 39.166167 52.60883 
L 39.2075 52.69957 
L 39.409 52.810982 
L 39.434833 52.763284 
L 39.574333 52.558037 
L 39.5795 52.567723 
L 39.620833 52.487054 
L 39.651833 52.476759 
L 39.688 52.465348 
L 39.7035 52.538865 
L 39.729333 52.550844 
L 39.760333 52.612758 
L 39.791333 52.519773 
L 39.832667 52.534138 
L 39.925667 52.529384 
L 39.8895 52.579132 
L 39.936 52.550168 
L 40.034167 52.627161 
L 40.06 52.613193 
L 40.1065 52.48774 
L 40.178833 52.561467 
L 40.184 52.543402 
L 40.256333 52.647661 
L 40.271833 52.632778 
L 40.364833 52.649141 
L 40.297667 52.598669 
L 40.375167 52.61507 
L 40.530167 52.440249 
L 40.535333 52.461128 
L 40.835 52.268612 
L 40.8505 52.318421 
L 40.902167 52.288002 
L 40.959 52.332348 
L 41.0675 52.236077 
L 41.088167 52.256628 
L 41.196667 52.281304 
L 41.0985 52.25289 
L 41.207 52.268927 
L 41.320667 52.239309 
L 41.248333 52.315562 
L 41.325833 52.247296 
L 41.331 52.273834 
L 41.403333 52.155509 
L 41.424 52.188216 
L 41.883833 52.261087 
L 41.899333 52.292136 
L 41.961333 52.199219 
L 41.976833 52.204554 
L 42.095667 52.066772 
L 42.106 52.074061 
L 42.178333 52.010127 
L 42.126667 52.041555 
L 42.1835 51.998491 
L 42.323 51.887417 
L 42.4315 51.975148 
L 42.359167 51.864344 
L 42.441833 51.955784 
L 42.5245 51.894272 
L 42.498667 51.971449 
L 42.5555 51.937323 
L 42.715667 52.020717 
L 42.720833 51.98591 
L 42.819 52.068978 
L 42.829333 52.088681 
L 42.860333 52.013337 
L 42.906833 52.002258 
L 43.030833 51.912166 
L 43.056667 51.960735 
L 43.103167 51.832976 
L 43.129 51.869687 
L 43.170333 51.89755 
L 43.263333 51.793537 
L 43.433833 51.707813 
L 43.2995 51.871633 
L 43.449333 51.74892 
L 43.511333 51.757788 
L 43.490667 51.703071 
L 43.537167 51.695049 
L 43.594 51.633573 
L 43.625 51.740873 
L 43.645667 51.71875 
L 43.774833 51.706154 
L 43.852333 51.783976 
L 43.898833 51.748425 
L 44.0435 51.657149 
L 44.048667 51.682865 
L 44.146833 51.719076 
L 44.172667 51.676669 
L 44.307 51.56157 
L 44.312167 51.564504 
L 44.462 51.726797 
L 44.482667 51.690919 
L 44.591167 51.71462 
L 44.637667 51.775259 
L 44.6635 51.677822 
L 44.6945 51.676432 
L 44.741 51.655491 
L 44.7565 51.59364 
L 44.834 51.523126 
L 44.792667 51.605513 
L 44.870167 51.551253 
L 44.901167 51.551137 
L 44.947667 51.474688 
L 44.952833 51.484694 
L 45.009667 51.547416 
L 45.076833 51.484283 
L 45.0975 51.537453 
L 45.164667 51.410368 
L 45.211167 51.35407 
L 45.273167 51.431891 
L 45.619333 51.440697 
L 45.660667 51.360787 
L 45.733 51.435791 
L 45.753667 51.473089 
L 45.815667 51.362722 
L 45.836333 51.39172 
L 45.929333 51.335024 
L 45.944833 51.378811 
L 46.048167 51.487903 
L 46.0585 51.441697 
L 46.208333 51.386697 
L 46.249667 51.426878 
L 46.316833 51.380773 
L 46.415 51.358459 
L 46.384 51.416862 
L 46.4305 51.395421 
L 46.446 51.418944 
L 46.508 51.341462 
L 46.5235 51.340725 
L 46.657833 51.112842 
L 46.828333 50.998084 
L 46.683667 51.146958 
L 46.8335 51.006661 
L 46.9265 51.119124 
L 46.849 50.987425 
L 46.952333 51.03185 
L 47.040167 50.989407 
L 47.060833 51.029299 
L 47.153833 51.031478 
L 47.117667 51.001619 
L 47.1745 51.01771 
L 47.401833 50.769586 
L 47.520667 50.855798 
L 47.644667 50.684888 
L 47.727333 50.722506 
L 47.675667 50.652827 
L 47.7635 50.707964 
L 48.078667 50.414608 
L 48.083833 50.428966 
L 48.1665 50.432733 
L 48.140667 50.401385 
L 48.192333 50.406084 
L 48.337 50.256702 
L 48.362833 50.277881 
L 48.450667 50.373992 
L 48.486833 50.32691 
L 48.523 50.276564 
L 48.497167 50.33714 
L 48.579833 50.380774 
L 48.616 50.411412 
L 48.652167 50.298776 
L 48.657333 50.297967 
L 48.729667 50.214981 
L 48.771 50.259838 
L 48.858833 50.262883 
L 48.812333 50.224231 
L 48.869167 50.210211 
L 49.019 50.024141 
L 49.024167 50.039321 
L 49.081 49.912075 
L 49.101667 49.924812 
L 49.2825 49.580028 
L 49.323833 49.55959 
L 49.339333 49.499287 
L 49.664833 48.320709 
L 49.706167 46.632465 
L 49.737167 35.947984 
L 49.804333 48.641829 
L 49.8405 51.309864 
L 49.923167 50.576263 
L 50.114333 48.010124 
L 50.140167 42.377012 
L 50.1505 36.557488 
L 50.238333 51.233595 
L 50.259 51.945577 
L 50.341667 51.029719 
L 50.543167 47.523125 
L 50.569 36.743265 
L 50.6465 47.912596 
L 50.672333 52.104006 
L 50.765333 51.074444 
L 50.951333 48.040447 
L 50.972 45.808268 
L 50.9875 36.830194 
L 51.070167 49.893918 
L 51.090833 52.21881 
L 51.183833 51.219648 
L 51.395667 47.139452 
L 51.416333 36.815972 
L 51.493833 47.425352 
L 51.524833 52.384235 
L 51.612667 51.468373 
L 51.850333 46.605221 
L 51.871 36.714617 
L 51.9485 48.642171 
L 51.974333 52.573325 
L 52.062167 51.751603 
L 52.315333 48.146133 
L 52.341167 44.283119 
L 52.356667 36.559712 
L 52.439333 50.855513 
L 52.465167 52.748494 
L 52.553 51.971082 
L 52.6925 50.371646 
L 52.868167 46.546884 
L 52.888833 36.365596 
L 52.966333 48.82419 
L 52.997333 52.910013 
L 53.085167 52.246358 
L 53.462333 46.64912 
L 53.483 36.261214 
L 53.5605 49.270171 
L 53.5915 52.980558 
L 53.679333 52.375972 
L 54.1185 46.595252 
L 54.139167 36.227187 
L 54.216667 49.972116 
L 54.247667 53.049555 
L 54.3355 52.467492 
L 54.836667 47.550475 
L 54.867667 36.297887 
L 54.934833 47.237117 
L 54.971 53.068548 
L 55.058833 52.538998 
L 55.394667 49.945625 
L 55.508333 49.212612 
L 55.653 46.94657 
L 55.678833 36.52555 
L 55.746 48.518491 
L 55.782167 52.978191 
L 55.864833 52.501683 
L 56.143833 50.51493 
L 56.526167 47.281524 
L 56.557167 36.887962 
L 56.619167 47.793238 
L 56.665667 52.864158 
L 56.743167 52.374588 
L 57.399333 48.169425 
L 57.4355 46.560989 
L 57.461333 36.787055 
L 57.5285 50.057341 
L 57.564667 52.906408 
L 57.647333 52.459417 
L 58.0245 50.038349 
L 58.0555 49.929403 
L 58.525667 48.41986 
L 58.536 48.439461 
L 58.5825 48.321933 
L 58.598 48.345242 
L 58.691 48.260854 
L 58.716833 48.298978 
L 58.789167 48.621927 
L 58.9545 49.219424 
L 58.975167 49.268545 
L 59.0785 49.203638 
L 59.145667 49.259682 
L 59.099167 49.187238 
L 59.187 49.201648 
L 59.352333 49.098228 
L 59.243833 49.234626 
L 59.3575 49.111318 
L 59.378167 49.092109 
L 59.615833 49.383233 
L 59.703667 49.405861 
L 59.693333 49.441333 
L 59.708833 49.43674 
L 59.894833 49.70738 
L 59.905167 49.674285 
L 59.910333 49.645432 
L 59.9465 49.744205 
L 60.003333 49.712648 
L 60.184167 50.023172 
L 60.297833 50.179939 
L 60.427 51.526049 
L 60.592333 53.584942 
L 60.773167 53.875526 
L 60.778333 53.855425 
L 60.840333 54.038058 
L 60.8455 54.031895 
L 60.9075 53.99781 
L 60.8765 54.05153 
L 60.943667 54.067361 
L 61.098667 54.273777 
L 61.14 54.192266 
L 61.202 54.310821 
L 61.207167 54.318613 
L 61.2485 54.230141 
L 61.284667 54.235506 
L 61.393167 54.307898 
L 61.408667 54.356205 
L 61.419 54.27432 
L 61.506833 54.327324 
L 61.625667 54.248468 
L 61.543 54.342234 
L 61.646333 54.271181 
L 61.703167 54.315159 
L 61.749667 54.255943 
L 61.754833 54.243279 
L 61.785833 54.32241 
L 61.847833 54.305513 
L 62.0855 54.301958 
L 62.173333 54.229918 
L 62.204333 54.304899 
L 62.323167 54.370791 
L 62.2715 54.246277 
L 62.338667 54.35291 
L 62.462667 54.290103 
L 62.3955 54.399999 
L 62.467833 54.292868 
L 62.5505 54.385449 
L 62.597 54.369587 
L 62.7365 54.263776 
L 62.834667 54.314355 
L 62.777833 54.223031 
L 62.850167 54.267105 
L 63.279 54.307003 
L 63.372 54.354032 
L 63.397833 54.323559 
L 63.5735 54.294196 
L 63.4185 54.359084 
L 63.578667 54.314847 
L 63.661333 54.340016 
L 63.676833 54.279876 
L 63.754333 54.220904 
L 63.795667 54.255673 
L 63.909333 54.304072 
L 63.811167 54.245974 
L 63.93 54.28199 
L 64.110833 54.373933 
L 63.950667 54.259453 
L 64.121167 54.33303 
L 64.307167 54.258575 
L 64.400167 54.34627 
L 64.420833 54.301203 
L 64.513833 54.214782 
L 64.544833 54.223288 
L 65.1235 54.279992 
L 65.237167 54.162232 
L 65.242333 54.186957 
L 65.381833 54.332736 
L 65.387 54.314298 
L 65.407667 54.239748 
L 65.511 54.26402 
L 65.614333 54.324512 
L 65.624667 54.278544 
L 65.769333 54.183939 
L 65.7745 54.188622 
L 66.415167 54.280407 
L 66.435833 54.308088 
L 66.4875 54.204844 
L 66.513333 54.230821 
L 66.596 54.205406 
L 66.616667 54.254882 
L 66.668333 54.27886 
L 66.694167 54.177194 
L 66.745833 54.154239 
L 66.761333 54.211302 
L 66.7975 54.18213 
L 66.885333 54.225329 
L 66.818167 54.160344 
L 66.911167 54.192636 
L 67.081667 54.271229 
L 66.937 54.142475 
L 67.086833 54.266472 
L 67.2005 54.315792 
L 67.252167 54.391952 
L 67.314167 54.363927 
L 67.458833 54.266436 
L 67.520833 54.220598 
L 67.588 54.294155 
L 67.7895 54.209522 
L 67.794667 54.219361 
L 67.8825 54.269056 
L 67.846333 54.199906 
L 67.9135 54.246614 
L 68.089167 54.232955 
L 68.1925 54.289466 
L 68.208 54.256974 
L 68.2855 54.199284 
L 68.228667 54.281572 
L 68.326833 54.24637 
L 68.414667 54.288581 
L 68.4715 54.160903 
L 68.569667 54.210808 
L 68.585167 54.158863 
L 68.616167 54.190476 
L 68.6885 54.188185 
L 68.822833 54.306565 
L 68.833167 54.29571 
L 68.9055 54.193318 
L 68.962333 54.240173 
L 69.107 54.16309 
L 69.014 54.288977 
L 69.138 54.202776 
L 69.251667 54.28709 
L 69.163833 54.179147 
L 69.2775 54.269615 
L 69.360167 54.253787 
L 69.3705 54.21315 
L 69.468667 54.144872 
L 69.411833 54.222275 
L 69.4945 54.156585 
L 69.634 54.299962 
L 69.8665 54.306075 
L 69.969833 54.18589 
L 69.995667 54.210822 
L 70.031833 54.239555 
L 70.006 54.200244 
L 70.078333 54.147798 
L 70.119667 54.157997 
L 70.104167 54.185795 
L 70.155833 54.224565 
L 70.848167 54.287161 
L 70.930833 54.285237 
L 70.915333 54.32126 
L 70.956667 54.304874 
L 71.158167 54.229236 
L 71.225333 54.186503 
L 71.266667 54.235273 
L 71.4165 54.325676 
L 71.432 54.293311 
L 71.535333 54.220662 
L 71.612833 54.126906 
L 71.5715 54.230606 
L 71.643833 54.222706 
L 71.705833 54.270762 
L 71.674833 54.213605 
L 71.7575 54.250547 
L 71.891833 54.193804 
L 72.217333 54.340984 
L 72.232833 54.288358 
L 72.455 54.18531 
L 72.465333 54.194822 
L 72.5635 54.190495 
L 72.496333 54.166237 
L 72.579 54.183694 
L 73.736333 54.213433 
L 73.922333 54.183997 
L 73.937833 54.220425 
L 73.968833 54.267247 
L 74.036 54.180296 
L 74.056667 54.133642 
L 74.092833 54.242011 
L 74.123833 54.210102 
L 74.180667 54.364762 
L 74.242667 54.267379 
L 74.377 54.204631 
L 74.511333 54.241644 
L 74.397667 54.186154 
L 74.5165 54.220438 
L 74.604333 54.191903 
L 74.619833 54.249416 
L 74.630167 54.232692 
L 74.774833 54.305915 
L 74.873 54.211512 
L 74.8885 54.285379 
L 75.002167 54.305953 
L 75.022833 54.268742 
L 75.115833 54.206832 
L 75.1365 54.250492 
L 75.172667 54.322758 
L 75.245 54.25152 
L 75.4465 54.13695 
L 75.286333 54.304369 
L 75.467167 54.173869 
L 75.534333 54.2055 
L 75.575667 54.187382 
L 75.591167 54.119721 
L 75.648 54.232848 
L 75.684167 54.184301 
L 75.958 54.232463 
L 75.963167 54.21928 
L 76.025167 54.151804 
L 76.076833 54.219251 
L 76.226667 54.348005 
L 76.231833 54.332716 
L 76.304167 54.243351 
L 76.3455 54.298924 
L 76.443667 54.270521 
L 76.448833 54.247881 
L 76.567667 54.178033 
L 76.583167 54.199025 
L 76.774333 54.287481 
L 76.939667 54.243941 
L 76.944833 54.225585 
L 76.986167 54.244797 
L 77.0895 54.14629 
L 77.415 54.217696 
L 77.533833 54.163866 
L 77.5545 54.218741 
L 77.714667 54.284516 
L 77.719833 54.273561 
L 77.761167 54.208551 
L 77.843833 54.272985 
L 77.9885 54.179432 
L 78.004 54.228138 
L 78.1435 54.247088 
L 78.148667 54.232799 
L 78.2055 54.166367 
L 78.257167 54.244598 
L 78.272667 54.24109 
L 78.303667 54.317273 
L 78.339833 54.29814 
L 78.345 54.316904 
L 78.4225 54.192801 
L 78.432833 54.228758 
L 78.567167 54.224316 
L 78.603333 54.304121 
L 78.686 54.268138 
L 78.804833 54.124281 
L 78.8255 54.155489 
L 78.923667 54.216198 
L 78.944333 54.197674 
L 79.182 54.248882 
L 79.187167 54.266591 
L 79.2285 54.187222 
L 79.275 54.176036 
L 79.362833 54.122763 
L 79.285333 54.14719 
L 79.373167 54.096193 
L 79.440333 54.056004 
L 79.3835 54.119124 
L 79.481667 54.112457 
L 79.864 54.126518 
L 80.0035 53.977676 
L 80.024167 54.014827 
L 80.117167 54.022672 
L 80.122333 53.983101 
L 80.179167 53.934159 
L 80.215333 54.036064 
L 80.230833 54.004306 
L 80.411667 53.885571 
L 80.520167 53.856105 
L 80.4685 53.924066 
L 80.5305 53.860546 
L 80.551167 53.905941 
L 80.675167 53.856034 
L 80.757833 53.982084 
L 80.799167 53.893272 
L 80.923167 53.770199 
L 80.954167 53.822838 
L 80.990333 53.66355 
L 81.0575 53.744146 
L 81.098833 53.83719 
L 81.176333 53.778325 
L 81.899667 53.816415 
L 81.904833 53.827246 
L 81.972 53.726099 
L 82.096 53.656686 
L 82.1115 53.683452 
L 82.137333 53.703695 
L 82.158 53.779632 
L 82.225167 53.839505 
L 82.271667 53.756592 
L 82.509333 53.56505 
L 82.282 53.763532 
L 82.5145 53.568495 
L 82.654 53.552258 
L 82.659167 53.544655 
L 82.7315 53.416439 
L 82.788333 53.47754 
L 83.0415 53.40465 
L 83.160333 53.393402 
L 83.1655 53.396417 
L 83.294667 53.406942 
L 83.315333 53.376988 
L 83.4445 53.314619 
L 83.5375 53.348157 
L 83.558167 53.308765 
L 83.584 53.351183 
L 83.682167 53.297948 
L 83.718333 53.338448 
L 83.7855 53.26325 
L 83.790667 53.278966 
L 84.028333 53.228724 
L 84.059333 53.317122 
L 84.1265 53.180033 
L 84.136833 53.215963 
L 84.266 53.139534 
L 84.291833 53.17799 
L 84.317667 53.140131 
L 84.421 53.209162 
L 84.772333 52.984391 
L 84.813667 53.0725 
L 84.834333 53.114854 
L 84.911833 52.996185 
L 85.051333 53.039815 
L 85.139167 52.973242 
L 85.113333 53.059508 
L 85.159833 53.045543 
L 85.247667 53.088582 
L 85.216667 53.001216 
L 85.268333 53.024279 
L 85.418167 52.879326 
L 85.294167 53.036655 
L 85.4285 52.883828 
L 85.5215 52.871467 
L 85.454333 52.822187 
L 85.542167 52.831945 
L 85.836667 52.686165 
L 85.888333 52.773118 
L 85.9555 52.7081 
L 85.960667 52.687211 
L 86.043333 52.785572 
L 86.1725 52.946581 
L 86.182833 52.909977 
L 86.2965 52.698771 
L 86.322333 52.718693 
L 86.332667 52.676181 
L 86.394667 52.817439 
L 86.405 52.816694 
L 86.570333 52.887449 
L 86.585833 52.846602 
L 86.735667 52.731341 
L 86.7615 52.804751 
L 86.839 52.691437 
L 87.045667 52.720646 
L 87.118 52.717028 
L 87.066333 52.76085 
L 87.149 52.740929 
L 87.262667 52.780503 
L 87.267833 52.775664 
L 87.3815 52.7618 
L 87.386667 52.769308 
L 87.4435 52.824223 
L 87.484833 52.697565 
L 87.619167 52.844951 
L 87.639833 52.818829 
L 87.805167 52.660156 
L 87.676 52.867604 
L 87.820667 52.675418 
L 88.4665 52.626124 
L 88.482 52.634007 
L 88.5285 52.508569 
L 88.544 52.539721 
L 88.642167 52.463277 
L 88.585333 52.563391 
L 88.662833 52.513278 
L 88.704167 52.524206 
L 88.740333 52.445463 
L 88.890167 52.346234 
L 88.988333 52.458095 
L 89.034833 52.419217 
L 89.164 52.271557 
L 89.2415 52.32341 
L 89.293167 52.301103 
L 89.448167 52.228322 
L 89.546333 52.110858 
L 89.567 52.135574 
L 89.6135 52.113646 
L 89.680667 52.176064 
L 89.696167 52.142581 
L 89.763333 52.287144 
L 89.7685 52.306984 
L 89.820167 52.240326 
L 89.8615 52.258658 
L 89.877 52.213668 
L 89.9235 52.341584 
L 89.949333 52.348653 
L 90.156 52.154238 
L 90.1715 52.173576 
L 90.192167 52.167148 
L 90.2955 52.206531 
L 90.471167 52.156298 
L 90.584833 52.103208 
L 90.533167 52.213143 
L 90.595167 52.11216 
L 90.677833 52.11165 
L 90.626167 52.073486 
L 90.708833 52.071723 
L 90.765667 52.032415 
L 90.827667 52.067811 
L 90.832833 52.083306 
L 90.869 51.974675 
L 90.9155 52.010349 
L 91.055 51.8183 
L 91.0705 51.83596 
L 91.127333 51.800393 
L 91.1945 51.8523 
L 91.483833 51.690586 
L 91.514833 51.741486 
L 91.540667 51.718049 
L 91.638833 51.768431 
L 91.737 51.808523 
L 91.773167 51.745185 
L 91.809333 51.806462 
L 91.881667 51.775032 
L 91.912667 51.754923 
L 92.010833 51.81066 
L 92.103833 51.816258 
L 92.067667 51.878274 
L 92.109 51.829741 
L 92.202 51.93278 
L 92.227833 51.887311 
L 92.388 51.699579 
L 92.393167 51.72124 
L 92.4035 51.737851 
L 92.4345 51.653222 
L 92.491333 51.673533 
L 93.225 51.551759 
L 93.297333 51.411637 
L 93.349 51.471074 
L 93.757167 51.385093 
L 93.772667 51.369222 
L 93.8295 51.457635 
L 93.850167 51.444433 
L 95.2245 51.005169 
L 95.291667 50.88429 
L 95.3485 50.924036 
L 95.358833 50.942492 
L 95.400167 50.869276 
L 95.4415 50.892112 
L 95.539667 50.799923 
L 95.560333 50.856688 
L 95.581 50.823757 
L 95.7515 50.897399 
L 95.911667 50.730979 
L 96.0305 50.787875 
L 96.040833 50.763614 
L 96.226833 50.62599 
L 96.232 50.629161 
L 96.288833 50.674518 
L 96.335333 50.603009 
L 96.3405 50.605176 
L 96.428333 50.528241 
L 96.366333 50.613378 
L 96.459333 50.559261 
L 96.500667 50.504913 
L 96.474833 50.56581 
L 96.573 50.53412 
L 96.578167 50.555913 
L 96.629833 50.448308 
L 96.666 50.460051 
L 96.872667 50.340544 
L 97.017333 50.213895 
L 96.888167 50.349815 
L 97.0225 50.250993 
L 97.0535 50.227972 
L 97.151667 50.306255 
L 97.172333 50.246112 
L 97.265333 50.291707 
L 97.415167 50.156475 
L 97.5805 49.759957 
L 97.756167 49.45591 
L 97.776833 49.476623 
L 97.818167 49.302826 
L 97.823333 49.312415 
L 97.942167 49.102392 
L 98.1075 47.601797 
L 98.133333 40.555385 
L 98.148833 35.866851 
L 98.226333 50.336711 
L 98.252167 51.317036 
L 98.334833 50.603644 
L 98.526 48.258293 
L 98.557 45.178967 
L 98.5725 36.534535 
L 98.655167 50.537651 
L 98.675833 51.916677 
L 98.763667 50.969629 
L 98.970333 46.669605 
L 98.991 36.762221 
L 99.0685 48.664855 
L 99.094333 52.105536 
L 99.182167 51.126713 
L 99.295833 49.506646 
L 99.388833 46.997621 
L 99.4095 36.797015 
L 99.487 47.845243 
L 99.518 52.255873 
L 99.605833 51.262796 
L 99.817667 47.538987 
L 99.8435 36.740636 
L 99.921 47.767996 
L 99.952 52.423947 
L 100.039833 51.495212 
L 100.272333 47.53587 
L 100.298167 36.561236 
L 100.375667 47.615421 
L 100.406667 52.603296 
L 100.4945 51.782967 
L 100.768333 47.639755 
L 100.794167 36.474454 
L 100.871667 47.200041 
L 100.902667 52.79474 
L 100.9905 52.063095 
L 101.310833 47.66266 
L 101.341833 36.421471 
L 101.414167 47.276821 
L 101.445167 52.914966 
L 101.533 52.25827 
L 101.910167 47.536118 
L 101.936 36.243344 
L 102.0135 48.20711 
L 102.049667 53.037251 
L 102.132333 52.442276 
L 102.4165 49.806858 
L 102.581833 47.022793 
L 102.607667 36.349503 
L 102.68 48.948761 
L 102.716167 53.094255 
L 102.798833 52.51957 
L 103.057167 50.434224 
L 103.331 47.102973 
L 103.356833 36.329847 
L 103.424 47.446655 
L 103.465333 53.071126 
L 103.542833 52.559447 
L 104.147333 47.558294 
L 104.173167 38.308936 
L 104.1835 36.67554 
L 104.2455 47.749167 
L 104.286833 52.969205 
L 104.364333 52.480525 
L 104.653667 50.471331 
L 105.030833 46.901844 
L 105.056667 36.871845 
L 105.123833 49.286482 
L 105.16 52.901717 
L 105.242667 52.400511 
L 105.630167 49.854846 
L 105.945333 47.696007 
L 105.971167 43.00981 
L 105.986667 36.966523 
L 106.064167 52.020009 
L 106.095167 52.86666 
L 106.177833 52.399681 
L 106.451667 50.542726 
L 106.963167 48.037587 
L 106.999333 46.51997 
L 107.025167 37.581225 
L 107.087167 49.056855 
L 107.1285 52.668328 
L 107.206 52.271162 
L 107.6865 49.451071 
L 108.167 47.222533 
L 108.198 40.938961 
L 108.208333 38.946551 
L 108.270333 49.804479 
L 108.316833 52.147683 
L 108.389167 51.784397 
L 109.086667 47.032829 
L 109.117667 37.180648 
L 109.179667 48.867637 
L 109.2365 52.780267 
L 109.2985 52.400409 
L 109.6395 50.44622 
L 109.975333 49.442812 
L 110.094167 49.539445 
L 110.249167 52.608738 
L 110.419667 52.968667 
L 110.450667 53.059593 
L 110.626333 53.460322 
L 111.246333 54.178897 
L 111.3445 54.143115 
L 111.3755 54.162567 
L 111.535667 54.331711 
L 111.546 54.295198 
L 111.644167 54.251941 
L 111.664833 54.273525 
L 111.814667 54.353095 
L 111.819833 54.337035 
L 112.098833 54.359292 
L 112.160833 54.400074 
L 112.2125 54.368816 
L 112.264167 54.327084 
L 112.315833 54.401003 
L 112.321 54.368376 
L 112.450167 54.332925 
L 112.543167 54.23596 
L 112.574167 54.25914 
L 112.6 54.342767 
L 112.693 54.299964 
L 112.7705 54.322101 
L 112.7085 54.330221 
L 112.786 54.35743 
L 112.904833 54.35641 
L 112.91 54.353042 
L 113.044333 54.237261 
L 113.054667 54.241721 
L 113.132167 54.246443 
L 113.090833 54.282211 
L 113.158 54.267751 
L 113.256167 54.354866 
L 113.183833 54.25404 
L 113.276833 54.321111 
L 113.369833 54.249608 
L 113.2975 54.329812 
L 113.3905 54.300151 
L 113.488667 54.375371 
L 113.5145 54.344349 
L 113.9485 54.314964 
L 114.046667 54.345438 
L 113.974333 54.289202 
L 114.057 54.316718 
L 114.1655 54.277859 
L 114.191333 54.309466 
L 114.294667 54.349483 
L 114.305 54.325734 
L 114.573667 54.229438 
L 114.584 54.256445 
L 114.718333 54.242644 
L 114.7235 54.235581 
L 115.142 54.259143 
L 115.229833 54.219693 
L 115.255667 54.283479 
L 115.348667 54.289276 
L 115.333167 54.322171 
L 115.359 54.308631 
L 115.410667 54.241445 
L 115.415833 54.218558 
L 115.483 54.239295 
L 115.426167 54.234218 
L 115.508833 54.275771 
L 115.524333 54.300581 
L 115.596667 54.235354 
L 115.607 54.245401 
L 115.6225 54.195237 
L 115.689667 54.331016 
L 115.7 54.311299 
L 115.8085 54.254661 
L 115.886 54.229047 
L 115.911833 54.290704 
L 116.046167 54.328141 
L 116.051333 54.305301 
L 116.154667 54.188608 
L 116.175333 54.237326 
L 116.268333 54.27012 
L 116.2115 54.174543 
L 116.283833 54.247122 
L 116.309667 54.218752 
L 116.3665 54.273426 
L 116.392333 54.257193 
L 116.588667 54.246668 
L 116.593833 54.256568 
L 116.619667 54.287198 
L 116.681667 54.19881 
L 116.692 54.205733 
L 116.785 54.233149 
L 116.805667 54.205377 
L 116.810833 54.169658 
L 116.847 54.293013 
L 116.909 54.238627 
L 117.027833 54.273304 
L 117.100167 54.215325 
L 117.146667 54.240892 
L 117.3585 54.285766 
L 117.363667 54.259944 
L 117.4825 54.191648 
L 117.653 54.327228 
L 117.492833 54.174185 
L 117.658167 54.313831 
L 117.735667 54.25187 
L 117.771833 54.300503 
L 117.808 54.353569 
L 117.849333 54.263729 
L 117.875167 54.274619 
L 117.963 54.317169 
L 117.994 54.255886 
L 118.0405 54.247335 
L 118.0715 54.194454 
L 118.174833 54.169494 
L 118.18 54.197111 
L 118.345333 54.366856 
L 118.3505 54.355877 
L 118.479667 54.245966 
L 118.614 54.260939 
L 118.639833 54.218438 
L 118.712167 54.30433 
L 118.7225 54.280054 
L 118.882667 54.232129 
L 118.893 54.23866 
L 119.022167 54.148396 
L 119.42 54.197389 
L 119.430333 54.167432 
L 119.507833 54.276183 
L 119.523333 54.308039 
L 119.575 54.236544 
L 119.616333 54.25352 
L 119.642167 54.267681 
L 119.699 54.184281 
L 119.704167 54.162969 
L 119.797167 54.243654 
L 120.169167 54.296618 
L 120.2415 54.363547 
L 120.282833 54.284915 
L 120.386167 54.222985 
L 120.406833 54.241716 
L 120.980333 54.260589 
L 121.088833 54.292526 
L 121.057833 54.223883 
L 121.094 54.286587 
L 121.311 54.298127 
L 121.316167 54.319943 
L 121.367833 54.234165 
L 121.404 54.234808 
L 121.455667 54.220335 
L 121.429833 54.281011 
L 121.502167 54.275459 
L 121.584833 54.237854 
L 121.522833 54.228109 
L 121.59 54.214137 
L 121.7295 54.109082 
L 121.739833 54.102499 
L 121.951667 54.294072 
L 122.246167 54.170957 
L 122.261667 54.207483 
L 122.416667 54.299304 
L 122.509667 54.17277 
L 122.561333 54.220628 
L 122.644 54.243391 
L 122.5975 54.142883 
L 122.680167 54.219491 
L 122.7215 54.25959 
L 122.804167 54.145197 
L 123.388 54.190764 
L 123.4655 54.151236 
L 123.501667 54.167667 
L 123.636 54.307779 
L 123.641167 54.292157 
L 123.656667 54.244629 
L 123.708333 54.358373 
L 123.723833 54.349408 
L 123.739333 54.367624 
L 123.811667 54.27759 
L 123.816833 54.276206 
L 123.951167 54.215255 
L 123.9615 54.23078 
L 124.1475 54.231231 
L 124.152667 54.253509 
L 124.245667 54.235044 
L 124.199167 54.218536 
L 124.256 54.215795 
L 124.281833 54.140144 
L 124.3645 54.233952 
L 124.369667 54.259529 
L 124.374833 54.256179 
" style="fill:none;stroke:#000000;stroke-linecap:square;stroke-width:0.3;"/>
   </g>
   <g id="line2d_3">
    <path clip-path="url(#p25202303dc)" d="M 12.78 60.961953 
L 12.893667 75.496879 
L 12.986667 74.702948 
L 13.250167 71.389761 
L 13.270833 59.022229 
L 13.369 68.911883 
L 13.405167 75.853984 
L 13.518833 74.883401 
L 13.803 71.617525 
L 13.823667 58.796206 
L 13.927 69.048504 
L 13.963167 76.106238 
L 14.071667 75.199175 
L 14.392 71.689256 
L 14.412667 58.66153 
L 14.516 68.783789 
L 14.557333 76.287412 
L 14.671 75.35243 
L 15.043 71.605732 
L 15.063667 58.570309 
L 15.167 69.076088 
L 15.203167 76.354653 
L 15.311667 75.517647 
L 15.595833 73.467536 
L 15.637167 73.201107 
L 15.719833 71.683252 
L 15.7405 58.50511 
L 15.843833 69.002862 
L 15.885167 76.414113 
L 15.993667 75.551783 
L 16.350167 73.225075 
L 16.4225 72.572344 
L 16.4535 70.721106 
L 16.469 58.461989 
L 16.567167 68.695239 
L 16.6085 76.42666 
L 16.727333 75.512556 
L 16.8565 74.593388 
L 17.213 71.723593 
L 17.233667 58.486302 
L 17.337 69.491735 
L 17.378333 76.370705 
L 17.471333 75.630166 
L 17.838167 73.438976 
L 17.889833 73.196835 
L 17.993167 71.850663 
L 18.008667 65.561601 
L 18.019 58.433041 
L 18.112 68.570211 
L 18.153333 76.368816 
L 18.277333 75.432464 
L 18.794 71.32975 
L 18.814667 58.43379 
L 18.912833 69.224244 
L 18.954167 76.390644 
L 19.052333 75.643383 
L 19.315833 74.029243 
L 19.563833 72.865907 
L 19.605167 72.305799 
L 19.625833 70.755025 
L 19.641333 58.355259 
L 19.7395 69.004934 
L 19.780833 76.359429 
L 19.889333 75.55442 
L 20.158 73.934175 
L 20.245833 73.624662 
L 20.442167 72.763753 
L 20.493833 70.432518 
L 20.509333 58.358057 
L 20.602333 68.703207 
L 20.643667 76.284355 
L 20.7625 75.406239 
L 21.346333 71.992994 
L 21.361833 69.140994 
L 21.372167 58.402524 
L 21.470333 69.043144 
L 21.5065 76.266971 
L 21.615 75.479548 
L 21.9095 73.789052 
L 22.204 72.017598 
L 22.2195 69.460228 
L 22.235 58.42235 
L 22.328 68.95123 
L 22.3745 76.26657 
L 22.477833 75.429494 
L 22.524333 75.094432 
L 22.896333 73.444731 
L 23.082333 72.019129 
L 23.097833 69.644227 
L 23.113333 58.380854 
L 23.206333 68.944177 
L 23.247667 76.224953 
L 23.356167 75.440621 
L 23.650667 73.823093 
L 23.655833 73.84898 
L 23.702333 73.691469 
L 23.976167 71.701403 
L 24.002 58.3714 
L 24.100167 69.762081 
L 24.136333 76.2372 
L 24.229333 75.527241 
L 24.616833 73.563685 
L 24.833833 72.716824 
L 24.875167 71.556815 
L 24.895833 58.318709 
L 24.994 69.29459 
L 25.035333 76.200686 
L 25.1335 75.430729 
L 25.546833 73.479324 
L 25.552 73.48551 
L 25.5675 73.507551 
L 25.593333 73.41021 
L 25.805167 71.791402 
L 25.820667 65.756255 
L 25.831 58.32031 
L 25.924 69.014131 
L 25.965333 76.095354 
L 26.073833 75.285233 
L 26.347667 73.827147 
L 26.378667 73.735026 
L 26.549167 73.240606 
L 26.564667 73.273524 
L 26.611167 73.079951 
L 26.709333 71.576428 
L 26.73 58.325299 
L 26.828167 69.299955 
L 26.864333 76.124341 
L 26.967667 75.364819 
L 27.267333 73.75525 
L 27.2725 73.784233 
L 27.453333 73.239771 
L 27.4585 73.25095 
L 27.505 73.09996 
L 27.592833 72.546222 
L 27.623833 71.331913 
L 27.6445 58.32424 
L 27.7375 68.958501 
L 27.778833 76.112208 
L 27.887333 75.298877 
L 28.011333 74.467021 
L 28.243833 73.646961 
L 28.476333 73.059164 
L 28.569333 71.818131 
L 28.584833 66.285709 
L 28.595167 58.285768 
L 28.693333 69.584568 
L 28.734667 76.068481 
L 28.8225 75.380359 
L 29.122167 73.769953 
L 29.416667 73.004598 
L 29.509667 71.860001 
L 29.525167 69.166145 
L 29.540667 58.505716 
L 29.633667 69.613834 
L 29.669833 76.005612 
L 29.762833 75.358047 
L 29.974667 74.352455 
L 29.979833 74.365572 
L 30.047 74.265718 
L 30.088333 74.163505 
L 30.1555 74.25433 
L 30.393167 74.894074 
L 30.481 75.135843 
L 30.971833 77.06494 
L 30.977 77.056055 
L 31.018333 77.191222 
L 31.188833 77.866921 
L 31.194 77.855766 
L 31.405833 78.627641 
L 32.041333 79.643624 
L 32.0775 79.574867 
L 32.149833 79.646808 
L 32.237667 79.682954 
L 32.160167 79.640081 
L 32.2635 79.630305 
L 32.279 79.603195 
L 32.346167 79.689984 
L 32.372 79.674528 
L 32.465 79.751976 
L 32.5425 79.731908 
L 32.578667 79.751346 
L 32.614833 79.789372 
L 32.713 79.718613 
L 32.831833 79.772492 
L 32.868 79.693075 
L 32.909333 79.658094 
L 32.888667 79.70726 
L 32.966167 79.707757 
L 32.981667 79.759162 
L 33.059167 79.611323 
L 33.079833 79.566801 
L 33.136667 79.646114 
L 33.167667 79.634678 
L 33.281333 79.622344 
L 33.219333 79.666184 
L 33.2865 79.631218 
L 33.508667 79.788996 
L 33.5345 79.734419 
L 33.679167 79.703218 
L 33.694667 79.750743 
L 33.792833 79.805817 
L 33.8135 79.771878 
L 33.901333 79.775313 
L 33.9065 79.737974 
L 34.035667 79.607832 
L 34.159667 79.684247 
L 34.082167 79.585889 
L 34.175167 79.660746 
L 34.263 79.706197 
L 34.304333 79.634687 
L 34.314667 79.682902 
L 34.3715 79.563794 
L 34.4025 79.57412 
L 34.753833 79.679116 
L 34.759 79.657498 
L 34.919167 79.647896 
L 34.924333 79.670356 
L 35.017333 79.67927 
L 34.986333 79.628295 
L 35.032833 79.653628 
L 35.1775 79.562119 
L 35.187833 79.579758 
L 35.234333 79.628056 
L 35.203333 79.570701 
L 35.296333 79.589529 
L 35.342833 79.560584 
L 35.399667 79.626267 
L 35.441 79.714619 
L 35.482333 79.572644 
L 35.508167 79.616143 
L 35.544333 79.542478 
L 35.596 79.662471 
L 35.601167 79.649221 
L 35.637333 79.585836 
L 35.725167 79.709464 
L 35.756167 79.645369 
L 35.844 79.696749 
L 35.993833 79.742124 
L 36.035167 79.775923 
L 36.097167 79.711843 
L 36.221167 79.629292 
L 36.3865 79.496369 
L 36.526 79.612053 
L 36.763667 79.68162 
L 36.768833 79.647003 
L 36.856667 79.741936 
L 36.867 79.718965 
L 36.965167 79.808281 
L 36.918667 79.702651 
L 36.996167 79.776055 
L 37.084 79.735764 
L 37.109833 79.804229 
L 37.125333 79.844727 
L 37.182167 79.671328 
L 37.3165 79.590749 
L 37.197667 79.684852 
L 37.326833 79.599154 
L 37.435333 79.603797 
L 37.342333 79.636956 
L 37.456 79.637383 
L 37.487 79.655608 
L 37.5025 79.605693 
L 37.554167 79.609726 
L 37.6575 79.471099 
L 37.683333 79.498605 
L 37.6885 79.479667 
L 37.760833 79.60049 
L 37.766 79.595877 
L 37.817667 79.659082 
L 37.895167 79.586009 
L 38.008833 79.556455 
L 37.9365 79.639807 
L 38.014 79.575363 
L 38.039833 79.539508 
L 38.148333 79.64467 
L 38.324 79.678118 
L 38.329167 79.702862 
L 38.334333 79.721225 
L 38.360167 79.652723 
L 38.427333 79.664016 
L 38.437667 79.655374 
L 38.484167 79.765065 
L 38.592667 79.684391 
L 38.696 79.566992 
L 38.716667 79.595894 
L 38.721833 79.59055 
L 38.758 79.672268 
L 38.763167 79.665629 
L 38.789 79.753248 
L 38.876833 79.68633 
L 39.006 79.647877 
L 39.016333 79.671627 
L 39.217833 79.750515 
L 39.047333 79.628159 
L 39.228167 79.720703 
L 39.295333 79.668353 
L 39.336667 79.699961 
L 39.347 79.750185 
L 39.378 79.653176 
L 39.445167 79.67855 
L 39.657 79.415548 
L 39.662167 79.446451 
L 39.7345 79.352307 
L 39.760333 79.400742 
L 39.853333 79.295136 
L 39.8895 79.336886 
L 39.941167 79.414308 
L 40.003167 79.348801 
L 40.0135 79.310123 
L 40.049667 79.398474 
L 40.101333 79.370624 
L 40.1065 79.405644 
L 40.173667 79.333534 
L 40.204667 79.353999 
L 40.344167 79.218245 
L 40.504333 79.439932 
L 40.561167 79.403849 
L 40.607667 79.463166 
L 40.690333 79.504192 
L 40.649 79.432885 
L 40.716167 79.461659 
L 40.809167 79.415108 
L 40.829833 79.478592 
L 40.99 79.415654 
L 41.010667 79.357439 
L 41.093333 79.444669 
L 41.232833 79.370441 
L 41.269 79.452329 
L 41.320667 79.483351 
L 41.387833 79.4508 
L 41.4395 79.436762 
L 41.444667 79.374172 
L 41.449833 79.377183 
L 41.573833 79.282651 
L 41.6875 79.355838 
L 41.708167 79.329485 
L 42.240333 79.243161 
L 42.297167 79.272063 
L 42.348833 79.217972 
L 42.472833 79.181048 
L 42.488333 79.212661 
L 42.550333 79.270103 
L 42.5865 79.17153 
L 42.596833 79.190917 
L 42.715667 79.03625 
L 42.736333 79.077119 
L 42.906833 79.220877 
L 43.067 79.23934 
L 43.185833 79.284356 
L 43.103167 79.175143 
L 43.196167 79.272234 
L 43.356333 79.083878 
L 43.377 79.10723 
L 43.413167 79.129774 
L 43.47 79.018731 
L 43.552667 78.920332 
L 43.594 78.974759 
L 43.692167 79.039781 
L 43.7025 78.984047 
L 43.718 78.949098 
L 43.785167 79.048949 
L 43.800667 79.036327 
L 44.002167 78.829591 
L 44.0125 78.851397 
L 44.0435 78.892693 
L 44.146833 78.871507 
L 44.214 78.865059 
L 44.1675 78.831015 
L 44.245 78.820124 
L 44.301833 78.714466 
L 44.503333 78.532025 
L 44.565333 78.503164 
L 44.622167 78.551287 
L 44.642833 78.533749 
L 44.761667 78.589345 
L 44.823667 78.555683 
L 44.777167 78.604885 
L 44.870167 78.579821 
L 44.916667 78.604307 
L 44.978667 78.562745 
L 45.082 78.407154 
L 45.107833 78.43983 
L 45.149167 78.497827 
L 45.2215 78.454133 
L 45.33 78.5683 
L 45.361 78.533784 
L 45.454 78.644907 
L 45.4695 78.672266 
L 45.5315 78.566376 
L 45.547 78.587022 
L 45.660667 78.531874 
L 45.671 78.554778 
L 45.6865 78.516514 
L 45.846667 78.551393 
L 45.991333 78.434125 
L 46.032667 78.501434 
L 46.125667 78.5348 
L 46.1515 78.489387 
L 46.477 78.177323 
L 46.482167 78.182959 
L 46.4925 78.229931 
L 46.549333 78.122071 
L 46.5855 78.147454 
L 46.745667 77.979935 
L 46.8025 78.042027 
L 46.854167 77.964013 
L 46.978167 77.857349 
L 47.091833 77.880184 
L 47.097 77.866905 
L 47.262333 77.822403 
L 47.355333 77.833368 
L 47.324333 77.788393 
L 47.3605 77.80725 
L 47.4535 77.712388 
L 47.479333 77.716245 
L 47.572333 77.676858 
L 47.510333 77.759346 
L 47.6085 77.710493 
L 47.7325 77.760605 
L 47.748 77.752562 
L 48.058 77.493455 
L 48.083833 77.554957 
L 48.089 77.589102 
L 48.109667 77.521121 
L 48.192333 77.561809 
L 48.548833 77.567213 
L 48.698667 77.316074 
L 48.709 77.329405 
L 49.0035 77.261734 
L 49.008667 77.280818 
L 49.112 77.307305 
L 49.055167 77.240071 
L 49.1275 77.28341 
L 49.370333 77.290302 
L 49.473667 77.210952 
L 49.582167 77.078063 
L 49.602833 77.104963 
L 49.763 77.218198 
L 49.856 77.164841 
L 49.876667 77.188627 
L 49.892167 77.166143 
L 50.073 77.205063 
L 50.186667 77.114428 
L 50.109167 77.221534 
L 50.207333 77.154948 
L 50.2125 77.169907 
L 50.253833 77.061874 
L 50.310667 77.127527 
L 50.538 77.106194 
L 50.543167 77.120513 
L 50.620667 77.147165 
L 50.589667 77.077737 
L 50.651667 77.106425 
L 50.760167 76.971438 
L 50.667167 77.126231 
L 50.791167 76.97992 
L 50.796333 76.996966 
L 50.8635 76.900611 
L 50.8945 76.940116 
L 51.044333 77.000582 
L 51.0805 77.06859 
L 51.1425 76.979619 
L 51.152833 76.979711 
L 51.1735 77.02118 
L 51.369833 76.987836 
L 51.416333 77.078109 
L 51.493833 77.017276 
L 51.643667 76.959958 
L 51.860667 77.095837 
L 51.891667 77.045651 
L 52.139667 76.890445 
L 51.9175 77.075406 
L 52.144833 76.904383 
L 52.191333 76.999078 
L 52.268833 76.962772 
L 52.356667 76.849126 
L 52.408333 76.894261 
L 52.801 76.65724 
L 52.806167 76.685379 
L 52.868167 76.588949 
L 52.899167 76.646732 
L 53.105833 76.280846 
L 53.245333 76.324034 
L 53.5915 75.952272 
L 53.617333 76.014079 
L 53.658667 76.121626 
L 53.725833 76.017792 
L 53.793 75.946582 
L 53.824 76.059638 
L 53.953167 76.12383 
L 53.860167 76.035297 
L 53.958333 76.109985 
L 54.066833 76.000034 
L 54.092667 76.022464 
L 54.196 76.070916 
L 54.2115 76.060642 
L 54.289 75.968455 
L 54.3355 76.027252 
L 54.599 76.120256 
L 54.661 76.040563 
L 54.7075 76.120978 
L 54.723 76.160343 
L 54.805667 76.10036 
L 54.810833 76.111226 
L 54.94 76.014875 
L 54.867667 76.136585 
L 54.945167 76.020551 
L 55.007167 76.005303 
L 54.991667 75.963872 
L 55.022667 75.957821 
L 55.1415 75.887656 
L 55.146667 75.910014 
L 55.410167 75.80838 
L 55.518667 75.512469 
L 55.554833 75.553789 
L 55.6065 75.635248 
L 55.6685 75.575213 
L 55.715 75.622472 
L 55.787333 75.538666 
L 55.859667 75.497487 
L 55.849333 75.560696 
L 55.890667 75.558285 
L 55.921667 75.556573 
L 55.973333 75.491929 
L 56.149 75.24676 
L 56.1645 75.255249 
L 56.273 75.304025 
L 56.278167 75.278238 
L 56.314333 75.240692 
L 56.371167 75.341748 
L 56.5675 75.234006 
L 56.422833 75.407593 
L 56.577833 75.249767 
L 56.614 75.281718 
L 56.650167 75.167886 
L 56.7225 75.154527 
L 56.681167 75.212802 
L 56.763833 75.201978 
L 56.836167 75.255753 
L 56.7845 75.186243 
L 56.8775 75.198458 
L 56.882667 75.171955 
L 56.9395 75.273014 
L 56.975667 75.264382 
L 57.135833 75.438553 
L 57.151333 75.394569 
L 57.213333 75.229039 
L 57.270167 75.346485 
L 57.549167 75.177518 
L 57.704167 75.091715 
L 57.848833 74.861708 
L 57.879833 74.88295 
L 57.983167 74.885082 
L 57.9005 74.855719 
L 57.988333 74.866484 
L 58.102 74.871496 
L 58.112333 74.832179 
L 58.629 74.715621 
L 58.6445 74.735928 
L 58.711667 74.613484 
L 58.7375 74.6036 
L 58.758167 74.537747 
L 58.7685 74.555687 
L 58.882167 74.425694 
L 58.8925 74.449761 
L 58.995833 74.359087 
L 59.099167 74.243114 
L 59.145667 74.291363 
L 59.28 74.426507 
L 59.429833 74.239186 
L 59.435 74.261703 
L 59.548667 74.379652 
L 59.4505 74.233115 
L 59.5745 74.345393 
L 59.863833 73.957697 
L 59.972333 73.910946 
L 59.925833 73.972235 
L 59.9775 73.913138 
L 59.982667 73.928455 
L 60.044667 73.817572 
L 60.065333 73.845584 
L 60.080833 73.868251 
L 60.328833 73.084127 
L 60.396 71.301123 
L 60.416667 57.935243 
L 60.514833 67.827057 
L 60.571667 74.056968 
L 60.700833 73.393708 
L 60.809333 72.784087 
L 60.892 70.851122 
L 60.9075 59.892258 
L 61.0005 69.606464 
L 61.0315 74.540428 
L 61.129667 73.8454 
L 61.326 71.95426 
L 61.346667 66.94932 
L 61.357 59.552256 
L 61.45 69.348866 
L 61.486167 75.032729 
L 61.584333 74.200418 
L 61.8065 71.111839 
L 61.822 59.328972 
L 61.920167 69.008812 
L 61.956333 75.473839 
L 62.07 74.475677 
L 62.287 72.328924 
L 62.312833 69.136213 
L 62.323167 59.017219 
L 62.421333 68.574943 
L 62.462667 75.857695 
L 62.586667 74.761216 
L 62.731333 73.501536 
L 62.839833 72.240491 
L 62.8605 69.271078 
L 62.870833 58.827579 
L 62.969 68.367031 
L 63.0155 76.084805 
L 63.144667 74.959689 
L 63.439167 71.555145 
L 63.459833 58.70222 
L 63.563167 69.018571 
L 63.599333 76.257633 
L 63.707833 75.395514 
L 64.0695 71.48663 
L 64.090167 58.62413 
L 64.188333 68.541341 
L 64.229667 76.386268 
L 64.358833 75.367822 
L 64.741167 71.865184 
L 64.756667 63.918246 
L 64.767 58.58582 
L 64.86 68.247779 
L 64.9065 76.434462 
L 65.040833 75.349307 
L 65.164833 74.452154 
L 65.4645 71.745184 
L 65.485167 58.487735 
L 65.5885 69.127886 
L 65.624667 76.425036 
L 65.733167 75.609464 
L 65.9915 73.868239 
L 66.198167 72.173812 
L 66.218833 67.45594 
L 66.229167 58.434154 
L 66.327333 68.69664 
L 66.368667 76.45128 
L 66.4875 75.54784 
L 66.668333 74.306851 
L 66.864667 73.393807 
L 66.895667 73.241111 
L 66.993833 71.964635 
L 67.009333 68.054024 
L 67.019667 58.382738 
L 67.117833 68.802997 
L 67.159167 76.415565 
L 67.272833 75.558618 
L 67.639667 73.428286 
L 67.691333 73.242144 
L 67.810167 71.517073 
L 67.830833 58.39652 
L 67.929 69.097658 
L 67.970333 76.357103 
L 68.073667 75.576289 
L 68.357833 73.90347 
L 68.518 73.165366 
L 68.5955 72.396671 
L 68.621333 70.135934 
L 68.636833 58.408456 
L 68.729833 68.55381 
L 68.776333 76.405687 
L 68.895167 75.498891 
L 69.313667 73.420973 
L 69.422167 72.852488 
L 69.479 71.464933 
L 69.499667 58.336659 
L 69.597833 69.211914 
L 69.634 76.324472 
L 69.737333 75.57934 
L 70.011167 73.920031 
L 70.279833 72.977554 
L 70.357333 71.287413 
L 70.378 58.369912 
L 70.471 68.834518 
L 70.512333 76.262017 
L 70.626 75.430365 
L 70.884333 73.922756 
L 71.101333 73.171746 
L 71.209833 71.891242 
L 71.225333 67.176667 
L 71.235667 58.346255 
L 71.333833 69.343539 
L 71.375167 76.257177 
L 71.468167 75.536441 
L 71.891833 73.365729 
L 71.9435 73.273081 
L 72.077833 72.205367 
L 72.0985 69.429903 
L 72.114 58.416592 
L 72.207 69.060644 
L 72.248333 76.223446 
L 72.351667 75.422153 
L 72.945833 72.268133 
L 72.9665 70.521536 
L 72.982 58.325523 
L 73.075 68.672303 
L 73.1215 76.23727 
L 73.235167 75.361678 
L 73.514167 73.848992 
L 73.870667 71.920877 
L 73.886167 68.596691 
L 73.8965 58.348379 
L 73.994667 69.348487 
L 74.030833 76.142145 
L 74.134167 75.38392 
L 74.490667 73.586939 
L 74.568167 73.34974 
L 74.759333 71.526283 
L 74.78 58.345291 
L 74.878167 69.408971 
L 74.914333 76.166936 
L 75.0125 75.419244 
L 75.679 71.868337 
L 75.6945 67.381569 
L 75.704833 58.297481 
L 75.803 69.498545 
L 75.839167 76.125787 
L 75.937333 75.38802 
L 76.200833 73.90308 
L 76.247333 73.769173 
L 76.443667 73.080248 
L 76.547 71.906099 
L 76.5625 68.512278 
L 76.572833 58.345032 
L 76.671 69.262339 
L 76.707167 76.160665 
L 76.8105 75.401301 
L 77.301333 73.385162 
L 77.327167 73.290881 
L 77.502833 72.241038 
L 77.5235 70.37639 
L 77.539 58.285598 
L 77.632 68.869394 
L 77.673333 76.079256 
L 77.787 75.22599 
L 78.066 73.797052 
L 78.283 73.190511 
L 78.293333 73.203671 
L 78.350167 73.078281 
L 78.401833 72.832137 
L 78.4225 73.288694 
L 78.629167 75.416651 
L 78.634333 75.410642 
L 78.8565 76.308855 
L 78.965 76.711081 
L 79.182 77.624577 
L 79.192333 77.632224 
L 79.213 77.722753 
L 79.512667 78.693384 
L 79.647 78.878759 
L 79.657333 78.864002 
L 80.029333 79.556364 
L 80.101667 79.442185 
L 80.148167 79.506791 
L 80.272167 79.633122 
L 80.318667 79.561313 
L 80.323833 79.539078 
L 80.4065 79.639257 
L 80.416833 79.628781 
L 80.453 79.633141 
L 80.473667 79.711841 
L 80.494333 79.69065 
L 80.597667 79.757894 
L 80.608 79.729552 
L 80.675167 79.755617 
L 80.732 79.667395 
L 80.861167 79.730231 
L 80.866333 79.722137 
L 80.969667 79.543746 
L 80.990333 79.599515 
L 81.114333 79.655801 
L 81.005833 79.583321 
L 81.129833 79.621083 
L 81.191833 79.52456 
L 81.248667 79.574964 
L 81.3055 79.627393 
L 81.357167 79.550602 
L 81.517333 79.611861 
L 81.372667 79.535684 
L 81.532833 79.59511 
L 81.641333 79.558807 
L 81.569 79.61555 
L 81.651667 79.586042 
L 81.791167 79.740267 
L 81.796333 79.725909 
L 81.879 79.722547 
L 81.904833 79.763811 
L 81.91 79.785245 
L 81.966833 79.6935 
L 82.008167 79.728992 
L 82.034 79.70018 
L 82.121833 79.701277 
L 82.225167 79.627336 
L 82.163167 79.724899 
L 82.240667 79.670558 
L 82.313 79.694482 
L 82.287167 79.650598 
L 82.349167 79.675192 
L 82.4215 79.651199 
L 82.457667 79.688521 
L 82.561 79.678354 
L 82.5765 79.710886 
L 82.685 79.741091 
L 82.695333 79.728029 
L 82.798667 79.574069 
L 82.834833 79.588303 
L 82.8865 79.638318 
L 82.9175 79.566965 
L 82.943333 79.566356 
L 82.9795 79.490511 
L 83.067333 79.526682 
L 83.1965 79.611268 
L 83.201667 79.602483 
L 83.609833 79.671255 
L 83.620167 79.63116 
L 83.677 79.55277 
L 83.733833 79.622989 
L 83.842333 79.554543 
L 83.857833 79.616867 
L 83.9095 79.733282 
L 83.981833 79.63355 
L 84.183333 79.395213 
L 84.198833 79.443489 
L 84.3435 79.520603 
L 84.4675 79.5394 
L 84.5605 79.534878 
L 84.519167 79.496844 
L 84.576 79.516768 
L 84.612167 79.469111 
L 84.648333 79.570841 
L 84.674167 79.552043 
L 84.7775 79.592487 
L 84.710333 79.510056 
L 84.798167 79.577602 
L 84.922167 79.625678 
L 84.829167 79.546458 
L 84.9325 79.609585 
L 85.247667 79.538274 
L 85.356167 79.602234 
L 85.278667 79.521661 
L 85.3665 79.58198 
L 85.4905 79.655732 
L 85.5215 79.621645 
L 85.537 79.65998 
L 85.717833 79.606957 
L 85.826333 79.648824 
L 85.847 79.620929 
L 85.971 79.55737 
L 86.007167 79.607308 
L 86.064 79.512877 
L 86.074333 79.522836 
L 86.146667 79.431381 
L 86.2035 79.52884 
L 86.343 79.52164 
L 86.492833 79.475351 
L 86.585833 79.539815 
L 86.611667 79.517588 
L 86.647833 79.494748 
L 86.694333 79.569092 
L 86.709833 79.568719 
L 86.833833 79.620916 
L 86.839 79.608927 
L 86.932 79.67002 
L 86.973333 79.606002 
L 87.112833 79.529925 
L 87.128333 79.605842 
L 87.138667 79.625206 
L 87.18 79.513815 
L 87.200667 79.522249 
L 87.273 79.458296 
L 87.309167 79.523318 
L 87.407333 79.489792 
L 87.335 79.456509 
L 87.417667 79.468754 
L 87.526167 79.432651 
L 87.453833 79.493418 
L 87.541667 79.470952 
L 87.758667 79.616584 
L 87.779333 79.599624 
L 87.872333 79.630179 
L 87.882667 79.648379 
L 87.887833 79.683653 
L 87.980833 79.576958 
L 88.053167 79.477492 
L 88.0945 79.51869 
L 88.192667 79.665576 
L 88.2185 79.643149 
L 88.316667 79.621458 
L 88.337333 79.669043 
L 88.358 79.674958 
L 88.399333 79.56457 
L 88.409667 79.585455 
L 88.445833 79.641836 
L 88.575 79.524123 
L 88.585333 79.534728 
L 88.662833 79.452985 
L 88.792 79.395628 
L 88.719667 79.50331 
L 88.797167 79.414599 
L 88.879833 79.482418 
L 88.916 79.455917 
L 89.065833 79.355208 
L 89.143333 79.456746 
L 89.184667 79.337359 
L 89.246667 79.371416 
L 89.298333 79.328779 
L 89.3655 79.454692 
L 89.432667 79.427967 
L 89.437833 79.401163 
L 89.4895 79.538645 
L 89.5205 79.509536 
L 89.556667 79.578922 
L 89.629 79.520737 
L 89.701333 79.388111 
L 89.753 79.416971 
L 89.789167 79.335673 
L 89.794333 79.308378 
L 89.840833 79.423574 
L 89.8925 79.352115 
L 90.0785 79.498114 
L 90.083667 79.482689 
L 90.207667 79.303654 
L 90.238667 79.348455 
L 90.311 79.336553 
L 90.254167 79.298512 
L 90.331667 79.270619 
L 90.435 79.220223 
L 90.460833 79.258821 
L 90.522833 79.285306 
L 90.548667 79.208113 
L 90.579667 79.25927 
L 90.59 79.23667 
L 90.672667 79.311143 
L 90.739833 79.417376 
L 90.801833 79.367553 
L 90.941333 79.303728 
L 91.086 79.315462 
L 91.096333 79.26982 
L 91.137667 79.178406 
L 91.215167 79.246266 
L 91.328833 79.154277 
L 91.3495 79.165474 
L 91.706 79.171491 
L 91.824833 79.228159 
L 91.959167 78.986012 
L 91.995333 79.02165 
L 92.021167 79.091155 
L 92.103833 79.026786 
L 92.129667 78.966933 
L 92.202 79.063166 
L 92.222667 79.013124 
L 92.3725 78.953579 
L 92.475833 78.834411 
L 92.4965 78.86422 
L 92.5275 78.93905 
L 92.584333 78.832796 
L 92.599833 78.8461 
L 92.703167 78.818442 
L 92.6515 78.893402 
L 92.7135 78.8334 
L 92.729 78.807941 
L 92.832333 78.873169 
L 92.925333 78.833502 
L 92.884 78.902281 
L 92.940833 78.876606 
L 93.008 78.875118 
L 93.033833 78.813166 
L 93.137167 78.767096 
L 93.157833 78.800326 
L 93.1785 78.884188 
L 93.245667 78.765702 
L 93.266333 78.777015 
L 93.602167 78.743097 
L 93.617667 78.757705 
L 93.7365 78.651249 
L 93.788167 78.550642 
L 93.850167 78.481458 
L 93.917333 78.554695 
L 93.994833 78.590953 
L 93.938 78.541625 
L 94.025833 78.54174 
L 94.062 78.570717 
L 94.1705 78.498066 
L 94.2945 78.608526 
L 94.191167 78.477794 
L 94.299667 78.606792 
L 94.3565 78.571733 
L 94.413333 78.649312 
L 94.4805 78.677929 
L 94.506333 78.619975 
L 94.589 78.575527 
L 94.614833 78.629816 
L 94.780167 78.605931 
L 94.785333 78.57519 
L 94.847333 78.628339 
L 94.935167 78.468027 
L 94.971333 78.594859 
L 95.023 78.441841 
L 95.048833 78.471369 
L 95.141833 78.599203 
L 95.183167 78.539603 
L 95.291667 78.437461 
L 95.302 78.462595 
L 95.338167 78.435599 
L 95.415667 78.500603 
L 95.426 78.510066 
L 95.555167 78.412848 
L 95.699833 78.382495 
L 95.767 78.377632 
L 95.730833 78.426223 
L 95.8135 78.397267 
L 95.916833 78.402826 
L 95.8755 78.356527 
L 95.927167 78.373365 
L 96.020167 78.309861 
L 95.958167 78.394857 
L 96.040833 78.325769 
L 96.133833 78.348309 
L 96.097667 78.28622 
L 96.144167 78.30105 
L 96.1855 78.350998 
L 96.252667 78.323967 
L 96.2785 78.348125 
L 96.314667 78.273556 
L 96.3405 78.27159 
L 96.443833 78.112157 
L 96.469667 78.157781 
L 96.48 78.196989 
L 96.562667 78.074792 
L 96.857167 77.879402 
L 96.5885 78.099741 
L 96.862333 77.893641 
L 96.903667 77.940366 
L 96.965667 77.849396 
L 97.017333 77.891852 
L 97.079333 77.831678 
L 97.187833 77.939122 
L 97.110333 77.793023 
L 97.213667 77.916304 
L 97.306667 77.877918 
L 97.229167 77.932113 
L 97.337667 77.905948 
L 97.342833 77.939032 
L 97.435833 77.829673 
L 97.451333 77.848384 
L 97.565 77.74653 
L 97.658 77.743741 
L 97.678667 77.70301 
L 97.833667 77.502524 
L 97.875 77.546283 
L 97.931833 77.52 
L 98.009333 77.619595 
L 98.154 77.501212 
L 98.686167 77.070063 
L 98.784333 76.92181 
L 98.815333 76.941473 
L 98.9135 77.056354 
L 98.939333 77.024378 
L 99.032333 77.000876 
L 98.949667 77.030886 
L 99.053 77.016661 
L 99.115 77.001572 
L 99.166667 77.040917 
L 99.213167 76.951816 
L 99.275167 77.023207 
L 99.394 77.117036 
L 99.399167 77.105526 
L 99.419833 77.121269 
L 99.528333 77.104845 
L 99.554167 77.067431 
L 99.698833 77.123873 
L 99.822833 77.030635 
L 99.833167 77.052395 
L 99.921 77.168752 
L 99.962333 77.073916 
L 100.132833 76.952185 
L 100.2465 76.775179 
L 100.256833 76.804902 
L 100.329167 76.672029 
L 100.3705 76.802686 
L 100.479 76.826569 
L 100.4015 76.730276 
L 100.489333 76.806893 
L 100.577167 76.851435 
L 100.675333 76.93502 
L 100.685667 76.893183 
L 100.696 76.852067 
L 100.7735 76.933726 
L 100.789 76.914242 
L 100.814833 76.926776 
L 100.8355 76.840797 
L 100.871667 76.85909 
L 101.026667 76.704245 
L 101.228167 76.667624 
L 101.254 76.772414 
L 101.341833 76.701141 
L 101.409 76.771783 
L 101.357333 76.68283 
L 101.465833 76.730866 
L 101.600167 76.568176 
L 101.476167 76.748897 
L 101.631167 76.619152 
L 101.7345 76.70171 
L 101.75 76.665073 
L 101.755167 76.654823 
L 101.786167 76.763927 
L 101.832667 76.711554 
L 101.961833 76.819216 
L 101.972167 76.832645 
L 101.992833 76.730713 
L 102.023833 76.718375 
L 102.153 76.62785 
L 102.251167 76.495001 
L 102.271833 76.539446 
L 102.297667 76.588688 
L 102.375167 76.514885 
L 102.380333 76.522631 
L 102.561167 76.430943 
L 102.705833 76.300065 
L 102.721333 76.320137 
L 102.7265 76.338058 
L 102.809167 76.251174 
L 102.845333 76.268101 
L 102.928 76.217648 
L 103.976833 75.857371 
L 104.142167 75.64295 
L 103.992333 75.87703 
L 104.168 75.688811 
L 104.354 75.61365 
L 104.193833 75.7532 
L 104.379833 75.69238 
L 104.529667 75.803911 
L 104.534833 75.787456 
L 104.689833 75.83621 
L 104.695 75.831024 
L 104.824167 75.777148 
L 104.731167 75.871382 
L 104.829333 75.807003 
L 104.943 75.741989 
L 105.284 75.476633 
L 105.289167 75.501397 
L 105.335667 75.554507 
L 105.397667 75.492896 
L 105.439 75.402562 
L 105.521667 75.451112 
L 105.619833 75.419517 
L 105.532 75.46489 
L 105.6405 75.461101 
L 105.7335 75.540314 
L 105.759333 75.485438 
L 105.7955 75.433759 
L 105.862667 75.533978 
L 106.208833 75.335575 
L 106.239833 75.262873 
L 106.3225 75.31345 
L 106.425833 75.348005 
L 106.441333 75.34206 
L 106.606667 75.288773 
L 106.451667 75.357682 
L 106.611833 75.295128 
L 106.627333 75.345416 
L 106.704833 75.250424 
L 106.7255 75.21429 
L 106.803 75.313403 
L 106.808167 75.281386 
L 106.958 75.259503 
L 107.1285 75.09178 
L 107.133667 75.10473 
L 107.138833 75.124754 
L 107.206 74.981617 
L 107.216333 74.989272 
L 107.381667 75.144714 
L 107.4075 75.095823 
L 107.485 75.192191 
L 107.490167 75.226338 
L 107.583167 75.153874 
L 107.588333 75.157415 
L 108.094667 74.80568 
L 108.099833 74.82453 
L 108.136 74.847072 
L 108.187667 74.759783 
L 108.192833 74.776532 
L 108.316833 74.674152 
L 108.2445 74.833206 
L 108.322 74.702861 
L 108.57 74.583665 
L 108.663 74.593876 
L 108.611333 74.636293 
L 108.668167 74.605621 
L 108.7095 74.631514 
L 108.735333 74.546796 
L 108.776667 74.609781 
L 108.88 74.421539 
L 108.921333 74.481128 
L 108.936833 74.466181 
L 109.060833 74.552254 
L 109.965 73.344743 
L 110.0735 72.099317 
L 110.089 69.619367 
L 110.1045 57.941118 
L 110.1975 67.568476 
L 110.2595 73.995402 
L 110.388667 73.38163 
L 110.5695 71.45665 
L 110.595333 59.954864 
L 110.683167 69.629845 
L 110.714167 74.514558 
L 110.812333 73.839121 
L 111.013833 71.796301 
L 111.029333 68.710183 
L 111.039667 59.569576 
L 111.137833 69.935941 
L 111.168833 75.011379 
L 111.261833 74.23215 
L 111.463333 72.404668 
L 111.494333 70.325362 
L 111.509833 59.287151 
L 111.602833 68.838076 
L 111.639 75.459828 
L 111.757833 74.464825 
L 111.990333 71.280046 
L 112.011 59.091315 
L 112.109167 69.021875 
L 112.1505 75.836165 
L 112.253833 74.895948 
L 112.527667 71.868986 
L 112.543167 64.617834 
L 112.5535 58.866622 
L 112.6465 68.183097 
L 112.693 76.116028 
L 112.8325 74.898379 
L 113.106333 72.376588 
L 113.127 70.759582 
L 113.1425 58.697361 
L 113.240667 68.441275 
L 113.287167 76.265783 
L 113.416333 75.167641 
L 113.752167 71.877893 
L 113.767667 64.624076 
L 113.778 58.642794 
L 113.871 68.149834 
L 113.9175 76.358393 
L 114.057 75.24424 
L 114.423833 72.015607 
L 114.439333 68.357315 
L 114.449667 58.516424 
L 114.547833 68.456789 
L 114.594333 76.425355 
L 114.718333 75.422856 
L 115.142 71.504475 
L 115.162667 58.500541 
L 115.260833 68.749834 
L 115.307333 76.445023 
L 115.421 75.523409 
L 115.886 71.746552 
L 115.906667 58.449438 
L 116.01 69.108936 
L 116.046167 76.455804 
L 116.154667 75.665022 
L 116.433667 73.854266 
L 116.640333 72.643962 
L 116.6765 71.170937 
L 116.692 58.47369 
L 116.790167 68.72854 
L 116.836667 76.389113 
L 116.950333 75.495332 
L 117.136333 74.246214 
L 117.461833 72.278756 
L 117.4825 70.367945 
L 117.498 58.41014 
L 117.591 68.543038 
L 117.6375 76.394185 
L 117.756333 75.475373 
L 118.1025 73.570684 
L 118.118 73.553032 
L 118.128333 73.475751 
L 118.1335 73.474659 
L 118.221333 73.041559 
L 118.309167 71.351106 
L 118.329833 58.397167 
L 118.428 69.367483 
L 118.469333 76.347957 
L 118.562333 75.605046 
L 118.676 74.815014 
L 118.8775 73.774982 
L 118.882667 73.775658 
L 119.151333 71.547492 
L 119.172 58.367583 
L 119.270167 69.236519 
L 119.306333 76.29036 
L 119.409667 75.566913 
L 119.6835 73.940801 
L 119.947 72.744143 
L 119.9935 71.250704 
L 120.014167 58.403438 
L 120.107167 68.843019 
L 120.1485 76.30964 
L 120.262167 75.459399 
L 120.530833 73.929968 
L 120.8305 71.986327 
L 120.846 68.976651 
L 120.856333 58.36712 
L 120.9545 68.931269 
L 121.001 76.314777 
L 121.104333 75.506835 
L 121.445333 73.741258 
L 121.517667 73.49251 
L 121.755333 70.800031 
L 121.770833 58.322929 
L 121.869 69.293374 
L 121.905167 76.211547 
L 122.0085 75.450899 
L 122.452833 73.232758 
L 122.514833 72.925948 
L 122.587167 71.626716 
L 122.607833 58.357383 
L 122.706 69.094163 
L 122.742167 76.274112 
L 122.850667 75.488734 
L 123.150333 73.887188 
L 123.1555 73.899114 
L 123.191667 73.710256 
L 123.506833 71.715028 
L 123.532667 58.371929 
L 123.630833 69.948986 
L 123.667 76.174874 
L 123.754833 75.506993 
L 123.878833 74.658033 
L 124.07 73.767136 
L 124.374833 72.650738 
L 124.374833 72.650738 
" style="fill:none;stroke:#000000;stroke-linecap:square;stroke-width:0.3;"/>
   </g>
   <g id="line2d_4">
    <path clip-path="url(#p25202303dc)" d="M 103.196667 11.211315 
L 123.822 11.211315 
" style="fill:none;stroke:#ffffff;stroke-linecap:square;"/>
   </g>
   <g id="line2d_5">
    <path clip-path="url(#p25202303dc)" d="M 124.38 19.688248 
L 124.38 11.380853 
" style="fill:none;stroke:#ffffff;stroke-linecap:square;"/>
   </g>
  </g>
 </g>
 <defs>
  <clipPath id="p25202303dc">
   <rect height="76.104" width="122.76" x="7.2" y="7.2"/>
  </clipPath>
 </defs>
</svg>
