<?xml version="1.0" encoding="utf-8" standalone="no"?>
<!DOCTYPE svg PUBLIC "-//W3C//DTD SVG 1.1//EN"
  "http://www.w3.org/Graphics/SVG/1.1/DTD/svg11.dtd">
<!-- Created with matplotlib (https://matplotlib.org/) -->
<svg height="30.708pt" version="1.1" viewBox="0 0 181.8 30.708" width="181.8pt" xmlns="http://www.w3.org/2000/svg" xmlns:xlink="http://www.w3.org/1999/xlink">
 <defs>
  <style type="text/css">
*{stroke-linecap:butt;stroke-linejoin:round;}
  </style>
 </defs>
 <g id="figure_1">
  <g id="patch_1">
   <path d="M 0 30.708 
L 181.8 30.708 
L 181.8 0 
L 0 0 
z
" style="fill:none;"/>
  </g>
  <g id="axes_1">
   <g id="patch_2">
    <path d="M 7.2 23.508 
L 174.6 23.508 
L 174.6 7.2 
L 7.2 7.2 
z
" style="fill:none;"/>
   </g>
   <g id="matplotlib.axis_1"/>
   <g id="matplotlib.axis_2"/>
   <g id="line2d_1">
    <path clip-path="url(#p1ecbeaadde)" d="M 14.809091 20.751018 
L 47.198997 20.013629 
L 55.613607 19.608838 
L 59.334641 19.233081 
L 60.856882 18.887119 
L 61.448865 18.561541 
L 61.702571 18.20084 
L 61.829425 17.652532 
L 61.913994 15.268171 
L 62.040847 7.941273 
L 62.167701 8.527386 
L 62.421407 11.798983 
L 62.759683 14.970713 
L 62.928821 16.554516 
L 63.182528 19.968335 
L 63.478519 19.818452 
L 64.958476 18.730429 
L 65.46589 18.161833 
L 65.592743 17.797746 
L 65.677312 16.9641 
L 65.804165 8.975589 
L 65.888734 9.547715 
L 66.692139 19.517468 
L 66.861277 20.400907 
L 67.199553 20.135483 
L 68.848647 18.543259 
L 69.144639 18.036786 
L 69.271492 17.209356 
L 69.398346 8.940282 
L 69.567483 10.200929 
L 70.074897 14.889393 
L 70.244035 16.526688 
L 70.455457 20.690206 
L 70.582311 20.663792 
L 71.554854 19.758945 
L 72.823388 18.362512 
L 72.992526 17.958668 
L 73.077095 17.362777 
L 73.119379 16.189397 
L 73.203948 8.850983 
L 73.288517 9.135624 
L 74.091922 16.633732 
L 74.303344 20.931179 
L 74.430198 20.912725 
L 75.360456 20.079346 
L 76.924982 18.418581 
L 77.136404 17.886347 
L 77.220973 16.953075 
L 77.347826 8.69904 
L 77.432395 9.159083 
L 78.2358 16.765326 
L 78.447223 21.118537 
L 78.574076 21.109378 
L 79.46205 20.365506 
L 81.364851 18.508464 
L 81.618558 17.97686 
L 81.703127 17.318801 
L 81.745412 15.845706 
L 81.829981 8.590187 
L 81.872265 8.67222 
L 82.041403 10.067583 
L 82.591101 15.034383 
L 82.717954 16.299782 
L 82.971661 21.266687 
L 83.140799 21.21384 
L 84.536187 20.076205 
L 86.438988 18.289181 
L 86.608126 17.690484 
L 86.65041 17.161496 
L 86.777264 8.503645 
L 86.904117 9.21008 
L 87.665238 16.664452 
L 87.87666 21.315373 
L 88.003514 21.346554 
L 88.72235 20.828333 
L 91.851401 18.312028 
L 92.020539 17.845333 
L 92.105107 16.730486 
L 92.231961 8.470335 
L 92.274245 8.646477 
L 92.485668 10.720723 
L 92.950797 15.074896 
L 93.07765 16.507373 
L 93.289073 21.327026 
L 93.415926 21.386467 
L 94.007909 20.985904 
L 97.179244 18.834824 
L 97.813511 18.328642 
L 97.982649 17.976101 
L 98.067218 17.438202 
L 98.109503 16.503447 
L 98.236356 8.446494 
L 98.278641 8.638187 
L 98.490063 10.840489 
L 98.912908 14.991294 
L 99.039761 16.326082 
L 99.293468 21.35677 
L 99.462606 21.335327 
L 104.029329 18.596989 
L 104.452174 18.237583 
L 104.621311 17.795631 
L 104.70588 16.780873 
L 104.832734 8.407022 
L 104.917303 8.852285 
L 105.255579 12.973412 
L 105.636139 16.83308 
L 105.847561 21.268451 
L 106.016699 21.291653 
L 110.076008 18.987656 
L 111.555965 18.33278 
L 111.767387 18.04736 
L 111.894241 17.481884 
L 111.936525 16.829229 
L 112.063379 8.411435 
L 112.147948 8.82721 
L 112.443939 12.658021 
L 112.866784 17.76235 
L 113.035922 21.146237 
L 113.205059 21.213784 
L 114.515878 20.334573 
L 115.995835 19.511726 
L 117.433507 18.977403 
L 119.463161 18.259435 
L 119.674584 17.938002 
L 119.759153 17.564665 
L 119.843722 15.713751 
L 119.970575 8.464473 
L 120.01286 8.708528 
L 120.224282 11.458453 
L 120.604842 15.514566 
L 120.731696 18.175349 
L 120.900834 21.065843 
L 121.027687 21.126188 
L 121.661954 20.701216 
L 123.311049 19.697024 
L 124.621867 19.167867 
L 126.355531 18.730908 
L 128.046909 18.268854 
L 128.300616 17.978598 
L 128.42747 17.460194 
L 128.512039 15.19897 
L 128.638892 8.498356 
L 128.681177 8.772224 
L 128.934883 12.381432 
L 129.611435 21.018179 
L 129.653719 21.013724 
L 130.161133 20.675188 
L 131.767943 19.685643 
L 133.036477 19.18058 
L 134.601003 18.812737 
L 136.757511 18.543486 
L 138.322036 18.535444 
L 139.506002 18.764972 
L 141.916217 19.259535 
L 157.350049 21.840682 
L 161.240221 22.407554 
L 164.749832 22.68537 
L 166.990909 22.766727 
L 166.990909 22.766727 
" style="fill:none;stroke:#008000;stroke-linecap:square;"/>
   </g>
  </g>
 </g>
 <defs>
  <clipPath id="p1ecbeaadde">
   <rect height="16.308" width="167.4" x="7.2" y="7.2"/>
  </clipPath>
 </defs>
</svg>
