<?xml version="1.0" encoding="utf-8" standalone="no"?>
<!DOCTYPE svg PUBLIC "-//W3C//DTD SVG 1.1//EN"
  "http://www.w3.org/Graphics/SVG/1.1/DTD/svg11.dtd">
<!-- Created with matplotlib (https://matplotlib.org/) -->
<svg height="30.708pt" version="1.1" viewBox="0 0 181.8 30.708" width="181.8pt" xmlns="http://www.w3.org/2000/svg" xmlns:xlink="http://www.w3.org/1999/xlink">
 <defs>
  <style type="text/css">
*{stroke-linecap:butt;stroke-linejoin:round;}
  </style>
 </defs>
 <g id="figure_1">
  <g id="patch_1">
   <path d="M 0 30.708 
L 181.8 30.708 
L 181.8 0 
L 0 0 
z
" style="fill:none;"/>
  </g>
  <g id="axes_1">
   <g id="patch_2">
    <path d="M 7.2 23.508 
L 174.6 23.508 
L 174.6 7.2 
L 7.2 7.2 
z
" style="fill:none;"/>
   </g>
   <g id="matplotlib.axis_1"/>
   <g id="matplotlib.axis_2"/>
   <g id="line2d_1">
    <path clip-path="url(#pd873c0977f)" d="M 14.809091 20.849402 
L 32.356335 20.382477 
L 40.848073 19.958261 
L 44.688735 19.574046 
L 46.239094 19.232789 
L 46.838096 18.917432 
L 47.084744 18.593947 
L 47.225686 18.03167 
L 47.296157 16.531169 
L 47.401863 7.941273 
L 47.437098 8.020996 
L 47.542805 8.784571 
L 48.106571 17.002582 
L 48.317984 22.210699 
L 48.458926 22.286793 
L 49.022693 21.94758 
L 50.573051 20.742843 
L 52.651942 18.900928 
L 52.828119 18.497869 
L 52.933825 17.619781 
L 53.039531 8.067424 
L 53.215709 9.139994 
L 53.849946 17.478372 
L 54.026123 22.478724 
L 54.167065 22.624486 
L 54.660361 22.383318 
L 56.386897 21.292257 
L 59.311438 19.196442 
L 59.699028 18.679571 
L 59.839969 18.068043 
L 59.91044 15.892967 
L 59.980911 8.057113 
L 60.051382 8.251521 
L 60.192324 9.540232 
L 60.791326 18.611055 
L 60.932268 22.475525 
L 61.108445 22.716403 
L 61.672212 22.46038 
L 66.992761 19.63395 
L 67.944118 18.989224 
L 68.226001 18.534957 
L 68.331708 17.972432 
L 68.402179 15.224085 
L 68.472649 8.024447 
L 68.54312 8.228731 
L 68.684062 9.603927 
L 69.247829 18.53259 
L 69.388771 22.488511 
L 69.564948 22.766727 
L 70.058244 22.561747 
L 74.110318 20.775853 
L 78.902336 18.973995 
L 79.219455 18.592837 
L 79.360397 18.022586 
L 79.430868 16.344358 
L 79.536574 8.026275 
L 79.57181 8.140577 
L 79.712751 9.503784 
L 80.241283 17.92564 
L 80.41746 22.577182 
L 80.593637 22.759085 
L 81.26311 22.460967 
L 84.081944 21.213853 
L 86.125599 20.647301 
L 89.825319 19.876896 
L 93.59551 19.336999 
L 95.392517 18.988788 
L 95.850578 18.722826 
L 96.06199 18.36196 
L 96.167697 17.715396 
L 96.238168 14.114155 
L 96.308638 8.042714 
L 96.379109 8.274939 
L 96.520051 10.139106 
L 97.259995 22.677677 
L 97.471408 22.624545 
L 101.453011 20.790204 
L 103.567137 20.29193 
L 106.632619 19.801346 
L 109.803808 19.521793 
L 113.151173 19.447632 
L 116.498539 19.599729 
L 125.131219 20.336547 
L 141.16334 21.625429 
L 149.197017 22.009905 
L 158.957231 22.239503 
L 166.990909 22.31734 
L 166.990909 22.31734 
" style="fill:none;stroke:#008000;stroke-linecap:square;"/>
   </g>
  </g>
 </g>
 <defs>
  <clipPath id="pd873c0977f">
   <rect height="16.308" width="167.4" x="7.2" y="7.2"/>
  </clipPath>
 </defs>
</svg>
