<?xml version="1.0" encoding="utf-8" standalone="no"?>
<!DOCTYPE svg PUBLIC "-//W3C//DTD SVG 1.1//EN"
  "http://www.w3.org/Graphics/SVG/1.1/DTD/svg11.dtd">
<!-- Created with matplotlib (https://matplotlib.org/) -->
<svg height="30.708pt" version="1.1" viewBox="0 0 181.8 30.708" width="181.8pt" xmlns="http://www.w3.org/2000/svg" xmlns:xlink="http://www.w3.org/1999/xlink">
 <defs>
  <style type="text/css">
*{stroke-linecap:butt;stroke-linejoin:round;}
  </style>
 </defs>
 <g id="figure_1">
  <g id="patch_1">
   <path d="M 0 30.708 
L 181.8 30.708 
L 181.8 0 
L 0 0 
z
" style="fill:none;"/>
  </g>
  <g id="axes_1">
   <g id="patch_2">
    <path d="M 7.2 23.508 
L 174.6 23.508 
L 174.6 7.2 
L 7.2 7.2 
z
" style="fill:none;"/>
   </g>
   <g id="matplotlib.axis_1"/>
   <g id="matplotlib.axis_2"/>
   <g id="line2d_1">
    <path clip-path="url(#p5b3f5566b2)" d="M 14.809091 8.87093 
L 19.375391 8.349463 
L 24.054439 8.039592 
L 28.930797 7.941534 
L 34.032651 8.064057 
L 39.416375 8.41771 
L 45.251092 9.026977 
L 51.790485 9.938835 
L 59.457359 11.239972 
L 68.533585 13.011137 
L 77.299754 14.93904 
L 83.782773 16.578511 
L 88.292699 17.934466 
L 91.195964 19.021601 
L 92.577129 19.740131 
L 92.746251 19.98199 
L 93.197244 21.346065 
L 93.648236 22.028489 
L 94.155603 22.394763 
L 94.803905 22.578377 
L 95.846825 22.616852 
L 98.411846 22.417428 
L 98.75009 22.501392 
L 99.370205 22.712236 
L 100.328564 22.764458 
L 102.442592 22.605249 
L 112.110746 21.720131 
L 116.16968 21.535592 
L 121.919835 21.529541 
L 127.190811 21.75695 
L 131.362493 22.104455 
L 132.518162 22.689253 
L 133.532895 22.727082 
L 135.900606 22.535874 
L 138.296504 22.388473 
L 138.860245 22.656162 
L 139.649482 22.757882 
L 141.199769 22.689078 
L 145.117768 22.245444 
L 154.222181 20.950391 
L 159.887776 19.908671 
L 165.468809 18.655064 
L 166.990909 18.275592 
L 166.990909 18.275592 
" style="fill:none;stroke:#e31a1c;stroke-linecap:square;"/>
   </g>
  </g>
 </g>
 <defs>
  <clipPath id="p5b3f5566b2">
   <rect height="16.308" width="167.4" x="7.2" y="7.2"/>
  </clipPath>
 </defs>
</svg>
