<?xml version="1.0" encoding="utf-8" standalone="no"?>
<!DOCTYPE svg PUBLIC "-//W3C//DTD SVG 1.1//EN"
  "http://www.w3.org/Graphics/SVG/1.1/DTD/svg11.dtd">
<!-- Created with matplotlib (https://matplotlib.org/) -->
<svg height="113.9315pt" version="1.1" viewBox="0 0 299.5625 113.9315" width="299.5625pt" xmlns="http://www.w3.org/2000/svg" xmlns:xlink="http://www.w3.org/1999/xlink">
 <metadata>
  <rdf:RDF xmlns:cc="http://creativecommons.org/ns#" xmlns:dc="http://purl.org/dc/elements/1.1/" xmlns:rdf="http://www.w3.org/1999/02/22-rdf-syntax-ns#">
   <cc:Work>
    <dc:type rdf:resource="http://purl.org/dc/dcmitype/StillImage"/>
    <dc:date>2020-11-09T09:24:12.383862</dc:date>
    <dc:format>image/svg+xml</dc:format>
    <dc:creator>
     <cc:Agent>
      <dc:title>Matplotlib v3.3.2, https://matplotlib.org/</dc:title>
     </cc:Agent>
    </dc:creator>
   </cc:Work>
  </rdf:RDF>
 </metadata>
 <defs>
  <style type="text/css">*{stroke-linecap:butt;stroke-linejoin:round;}</style>
 </defs>
 <g id="figure_1">
  <g id="patch_1">
   <path d="M 0 113.9315 
L 299.5625 113.9315 
L 299.5625 0 
L 0 0 
z
" style="fill:none;"/>
  </g>
  <g id="axes_1">
   <g id="patch_2">
    <path d="M 18.9425 80.2465 
L 149.1425 80.2465 
L 149.1425 19.2625 
L 18.9425 19.2625 
z
" style="fill:none;"/>
   </g>
   <g id="matplotlib.axis_1">
    <g id="xtick_1">
     <g id="line2d_1">
      <defs>
       <path d="M 0 0 
L 0 3.5 
" id="mf98f0a44b8" style="stroke:#000000;stroke-width:1.5;"/>
      </defs>
      <g>
       <use style="stroke:#000000;stroke-width:1.5;" x="24.860682" xlink:href="#mf98f0a44b8" y="80.2465"/>
      </g>
     </g>
     <g id="text_1">
      <text style="font-family:DejaVu Sans;font-size:8px;font-stretch:normal;font-style:normal;font-weight:normal;text-anchor:middle;" transform="rotate(-0, 24.860682, 93.32525)" x="24.860682" y="93.32525">0</text>
     </g>
    </g>
    <g id="xtick_2">
     <g id="line2d_2">
      <g>
       <use style="stroke:#000000;stroke-width:1.5;" x="63.04404" xlink:href="#mf98f0a44b8" y="80.2465"/>
      </g>
     </g>
     <g id="text_2">
      <text style="font-family:DejaVu Sans;font-size:8px;font-stretch:normal;font-style:normal;font-weight:normal;text-anchor:middle;" transform="rotate(-0, 63.04404, 93.32525)" x="63.04404" y="93.32525">1</text>
     </g>
    </g>
    <g id="xtick_3">
     <g id="line2d_3">
      <g>
       <use style="stroke:#000000;stroke-width:1.5;" x="101.227397" xlink:href="#mf98f0a44b8" y="80.2465"/>
      </g>
     </g>
     <g id="text_3">
      <text style="font-family:DejaVu Sans;font-size:8px;font-stretch:normal;font-style:normal;font-weight:normal;text-anchor:middle;" transform="rotate(-0, 101.227397, 93.32525)" x="101.227397" y="93.32525">2</text>
     </g>
    </g>
    <g id="xtick_4">
     <g id="line2d_4">
      <g>
       <use style="stroke:#000000;stroke-width:1.5;" x="139.410755" xlink:href="#mf98f0a44b8" y="80.2465"/>
      </g>
     </g>
     <g id="text_4">
      <text style="font-family:DejaVu Sans;font-size:8px;font-stretch:normal;font-style:normal;font-weight:normal;text-anchor:middle;" transform="rotate(-0, 139.410755, 93.32525)" x="139.410755" y="93.32525">3</text>
     </g>
    </g>
    <g id="text_5">
     <text style="font-family:DejaVu Sans;font-size:8px;font-stretch:normal;font-style:normal;font-weight:normal;text-anchor:middle;" transform="rotate(-0, 84.0425, 105.06775)" x="84.0425" y="105.06775">Time (seconds)</text>
    </g>
   </g>
   <g id="matplotlib.axis_2">
    <g id="text_6">
     <text style="font-family:DejaVu Sans;font-size:8px;font-stretch:normal;font-style:normal;font-weight:normal;text-anchor:middle;" transform="rotate(-90, 13.27875, 49.7545)" x="13.27875" y="49.7545">Energy</text>
    </g>
   </g>
   <g id="line2d_5">
    <path clip-path="url(#pd1352c8556)" d="M 24.860682 39.590398 
L 39.317856 39.48946 
L 39.384677 38.771859 
L 39.461043 39.296757 
L 39.714008 39.499575 
L 39.890606 39.479988 
L 39.895379 39.464159 
L 39.938335 38.731353 
L 39.957427 38.245839 
L 40.033794 39.261055 
L 40.324942 39.492244 
L 40.515859 39.479785 
L 40.520631 39.463267 
L 40.563588 38.60443 
L 40.582679 38.116901 
L 40.659046 39.278475 
L 40.964513 39.497099 
L 41.241342 39.481998 
L 41.284299 38.929449 
L 41.30339 38.316173 
L 41.38453 39.320961 
L 41.709088 39.511587 
L 42.028874 39.488736 
L 42.07183 38.99191 
L 42.090922 38.423473 
L 42.172062 39.348092 
L 42.510939 39.521366 
L 42.959593 39.507793 
L 43.012096 39.133629 
L 43.031187 38.75773 
L 43.112327 39.38482 
L 43.465523 39.53213 
L 43.928496 39.499288 
L 43.985771 38.96672 
L 44.00009 38.834086 
L 44.071684 39.393422 
L 44.420107 39.533813 
L 44.973766 39.517599 
L 45.031041 39.261855 
L 45.054905 38.965438 
L 45.131272 39.410948 
L 45.479695 39.538229 
L 46.133585 39.522308 
L 46.195633 39.332146 
L 46.229043 39.11509 
L 46.291091 39.418456 
L 46.567921 39.530202 
L 47.231357 39.540862 
L 47.298177 39.414659 
L 47.35068 39.091686 
L 47.407955 39.413307 
L 47.656146 39.524421 
L 48.314809 39.555985 
L 48.453224 39.445528 
L 48.510499 39.088237 
L 48.567774 39.417258 
L 48.80642 39.524068 
L 49.493721 39.569796 
L 82.527098 39.543157 
L 82.584373 39.296145 
L 82.613011 38.754088 
L 82.69415 39.309745 
L 82.956661 39.507947 
L 83.180988 39.482005 
L 83.185761 39.461677 
L 83.243036 38.336256 
L 83.319403 39.279308 
L 83.610551 39.49905 
L 83.839651 39.481475 
L 83.844424 39.460714 
L 83.896926 38.231351 
L 83.901699 38.181357 
L 83.925563 38.884965 
L 84.044886 39.364823 
L 84.378991 39.525617 
L 84.651047 39.464974 
L 84.708322 38.479555 
L 84.775143 39.330152 
L 85.090156 39.513333 
L 85.514946 39.515686 
L 85.548356 39.28194 
L 85.591312 38.661585 
L 85.648587 39.3505 
L 85.934963 39.511179 
L 86.464757 39.539865 
L 86.517259 39.415624 
L 86.569761 38.789775 
L 86.631809 39.377788 
L 86.932503 39.52239 
L 87.538664 39.546364 
L 87.619803 39.424393 
L 87.677078 38.996038 
L 87.734353 39.398432 
L 88.00641 39.523046 
L 88.583933 39.541435 
L 88.636435 39.404195 
L 88.688937 38.86667 
L 88.746212 39.392666 
L 89.023042 39.522363 
L 89.700796 39.56529 
L 105.375065 39.590396 
L 123.908312 39.494477 
L 123.975133 38.743428 
L 124.0515 39.294059 
L 124.304464 39.499157 
L 124.490608 39.479692 
L 124.495381 39.46245 
L 124.54311 38.456645 
L 124.552656 38.246127 
L 124.62425 39.248803 
L 124.910625 39.487879 
L 125.111088 39.477128 
L 125.115861 39.456783 
L 125.158817 38.504871 
L 125.173136 38.05995 
L 125.254275 39.274903 
L 125.559742 39.496355 
L 125.855663 39.480659 
L 125.89862 38.928035 
L 125.917711 38.347251 
L 125.998851 39.324772 
L 126.323409 39.512375 
L 126.676605 39.489932 
L 126.724335 38.882376 
L 126.738653 38.526152 
L 126.819793 39.354327 
L 127.15867 39.52256 
L 127.554823 39.501052 
L 127.602552 39.100942 
L 127.621644 38.655541 
L 127.702783 39.376699 
L 128.055979 39.53067 
L 128.623957 39.518924 
L 128.676459 39.280407 
L 128.705096 38.901935 
L 128.77669 39.399842 
L 129.12034 39.534772 
L 129.654907 39.507861 
L 129.712182 39.140748 
L 129.731274 38.935788 
L 129.807641 39.411023 
L 130.160837 39.539067 
L 130.724041 39.508772 
L 130.781316 39.150294 
L 130.800408 38.960592 
L 130.872002 39.415122 
L 131.210879 39.538871 
L 131.974546 39.540278 
L 132.041367 39.407534 
L 132.093869 39.125249 
L 132.151144 39.417681 
L 132.399336 39.526415 
L 133.081864 39.559399 
L 133.339601 39.457786 
L 133.401649 39.195178 
L 133.458924 39.425949 
L 133.688025 39.527223 
L 134.389644 39.566534 
L 139.405982 39.589601 
L 139.405982 39.589601 
" style="fill:none;stroke:#666666;stroke-linecap:square;stroke-width:0.6;"/>
   </g>
   <g id="line2d_6">
    <path clip-path="url(#pd1352c8556)" d="M 24.860682 59.917911 
L 57.717461 59.860094 
L 57.73178 59.600797 
L 57.793828 55.935639 
L 57.746099 59.775789 
L 57.841557 59.377503 
L 57.989518 59.69374 
L 58.294985 59.843757 
L 58.538403 59.817712 
L 58.543176 59.78312 
L 58.58136 57.367948 
L 58.619543 52.472131 
L 58.681591 59.264676 
L 58.839097 59.6443 
L 59.125473 59.826346 
L 59.526398 59.838817 
L 59.540717 59.648615 
L 59.61231 53.005858 
L 59.655267 59.041595 
L 59.784135 59.624073 
L 60.060965 59.824414 
L 60.614624 59.891183 
L 60.733947 59.787163 
L 60.786449 55.496871 
L 60.80554 54.190357 
L 60.862815 59.441965 
L 61.015549 59.715565 
L 61.335334 59.85972 
L 62.084683 59.887826 
L 62.118093 59.812418 
L 62.16105 57.569928 
L 62.189687 54.998594 
L 62.256508 59.562164 
L 62.461743 59.786726 
L 62.872215 59.886806 
L 63.831571 59.862091 
L 63.84589 59.671067 
L 63.912711 55.658672 
L 63.860209 59.74399 
L 63.955667 59.496771 
L 64.089309 59.74622 
L 64.428186 59.873924 
L 65.454364 59.911954 
L 91.777016 59.918306 
L 100.802608 59.825063 
L 100.845564 57.977728 
L 100.874201 55.821486 
L 100.941022 59.468388 
L 101.151031 59.755195 
L 101.528091 59.865362 
L 101.628323 59.786047 
L 101.666506 57.348743 
L 101.704689 52.449466 
L 101.766737 59.253737 
L 101.929017 59.643856 
L 102.220165 59.825837 
L 102.606771 59.828848 
L 102.62109 59.497536 
L 102.687911 53.142127 
L 102.630636 59.599737 
L 102.730867 58.962863 
L 102.859736 59.614339 
L 103.136565 59.819491 
L 103.656814 59.877981 
L 103.704543 59.767885 
L 103.776137 53.915301 
L 103.823866 59.287568 
L 103.957508 59.671957 
L 104.253429 59.842871 
L 104.92641 59.892168 
L 104.998004 59.816245 
L 105.04096 57.542061 
L 105.074371 54.796125 
L 105.136419 59.540057 
L 105.332108 59.772963 
L 105.713942 59.880512 
L 106.558749 59.857529 
L 106.573068 59.647374 
L 106.639888 55.460525 
L 106.587386 59.737575 
L 106.682845 59.469554 
L 106.816486 59.737232 
L 107.145818 59.869542 
L 108.066991 59.908593 
L 108.544283 59.830114 
L 108.58724 58.111211 
L 108.615877 55.991713 
L 108.682698 59.638977 
L 108.911798 59.822812 
L 109.412955 59.899984 
L 112.548763 59.916221 
L 139.405982 59.918123 
L 139.405982 59.918123 
" style="fill:none;stroke:#666666;stroke-linecap:square;stroke-width:0.6;"/>
   </g>
   <g id="line2d_7">
    <path clip-path="url(#pd1352c8556)" d="M 24.860682 80.040755 
L 25.099328 80.128358 
L 25.104101 80.122448 
L 25.127965 79.902269 
L 25.175695 78.011686 
L 25.242515 79.688889 
L 25.505026 80.093789 
L 25.757991 80.141493 
L 25.762764 80.133733 
L 25.786628 79.881678 
L 25.834357 78.238482 
L 25.896405 79.72771 
L 26.158916 80.10399 
L 26.469156 80.164194 
L 26.502566 80.066068 
L 26.555068 78.467062 
L 26.626662 79.786889 
L 26.889173 80.119707 
L 27.232823 80.17819 
L 27.280552 80.069303 
L 27.333054 78.65154 
L 27.404648 79.8208 
L 27.667159 80.129565 
L 28.029901 80.182531 
L 28.072857 80.08054 
L 28.125359 78.670535 
L 28.196953 79.825936 
L 28.459463 80.132038 
L 28.822205 80.184281 
L 28.874707 80.052931 
L 28.927209 78.686243 
L 28.99403 79.826625 
L 29.256541 80.133182 
L 29.633602 80.195378 
L 29.719514 80.0946 
L 29.776789 78.749979 
L 29.848383 79.849429 
L 30.110894 80.139741 
L 30.521365 80.205624 
L 30.626369 80.094468 
L 30.683644 78.656498 
L 30.750465 79.830043 
L 31.012975 80.136693 
L 31.409128 80.205364 
L 31.557088 80.125368 
L 31.614363 78.787479 
L 31.695503 79.869581 
L 31.958013 80.146823 
L 32.392349 80.212152 
L 32.578493 80.137875 
L 32.626222 79.078387 
L 32.640541 78.83964 
L 32.712135 79.861123 
L 32.974645 80.14669 
L 33.385116 80.206377 
L 33.504439 80.12102 
L 33.561714 78.831117 
L 33.638081 79.864346 
L 33.900592 80.147741 
L 34.320609 80.209534 
L 34.511526 80.127853 
L 34.568801 78.88813 
L 34.64994 79.880511 
L 34.912451 80.152208 
L 35.356332 80.215612 
L 35.571114 80.135753 
L 35.633162 78.845997 
L 35.709528 79.87089 
L 35.972039 80.151175 
L 36.392056 80.210902 
L 36.544789 80.128118 
L 36.602064 78.848681 
L 36.683204 79.87298 
L 36.945715 80.151795 
L 37.384823 80.216247 
L 37.65688 80.119708 
L 37.714155 78.89522 
L 37.785748 79.861143 
L 38.043486 80.148407 
L 38.463503 80.216431 
L 38.864428 80.127965 
L 38.921703 78.879175 
L 38.99807 79.86513 
L 39.255808 80.150321 
L 39.694916 80.223557 
L 42.668445 80.245835 
L 65.34936 80.161871 
L 65.392316 79.267299 
L 65.416181 78.153283 
L 65.49732 79.446038 
L 65.707329 80.012123 
L 65.826652 80.055869 
L 65.845744 79.999047 
L 65.893473 78.596165 
L 65.903019 78.460591 
L 65.960294 79.48594 
L 66.179848 80.013439 
L 66.260988 80.028302 
L 66.275306 79.971461 
L 66.332581 78.334533 
L 66.413721 79.626041 
L 66.642821 80.040458 
L 66.695323 80.0299 
L 66.709642 79.967603 
L 66.762144 78.229786 
L 66.843284 79.635371 
L 67.077157 80.050695 
L 67.139205 80.041797 
L 67.148751 80.000386 
L 67.191707 78.326196 
L 67.206026 78.014362 
L 67.268074 79.583302 
L 67.516265 80.056718 
L 67.616497 80.074954 
L 67.630816 80.023019 
L 67.668999 78.587558 
L 67.688091 77.913842 
L 67.759684 79.63726 
L 68.012649 80.073692 
L 68.141518 80.096059 
L 68.155837 80.047981 
L 68.19402 78.64288 
L 68.213112 77.886743 
L 68.289478 79.675481 
L 68.547216 80.086228 
L 68.728587 80.119367 
L 68.738133 80.096954 
L 68.761997 79.563772 
L 68.771543 79.571293 
L 68.804954 78.066081 
L 68.876548 79.718172 
L 69.139058 80.100156 
L 69.363385 80.126008 
L 69.368158 80.114028 
L 69.392023 79.605618 
L 69.401569 79.650744 
L 69.434979 78.199022 
L 69.506573 79.750971 
L 69.773856 80.111424 
L 70.069777 80.157225 
L 70.098415 80.046485 
L 70.150917 78.491096 
L 70.217738 79.784271 
L 70.480249 80.118502 
L 70.800034 80.163196 
L 70.828672 80.058931 
L 70.881174 78.547147 
L 70.952768 79.807727 
L 71.215278 80.125348 
L 71.568474 80.180974 
L 71.616203 80.083039 
L 71.673479 78.621411 
L 71.740299 79.818712 
L 72.00281 80.129608 
L 72.379871 80.195025 
L 72.475329 80.113605 
L 72.532604 78.766228 
L 72.608971 79.854718 
L 72.871481 80.13986 
L 73.262861 80.194524 
L 73.324909 80.089267 
L 73.382184 78.687515 
L 73.449005 79.833342 
L 73.711515 80.136001 
L 74.098122 80.199459 
L 74.19358 80.11364 
L 74.250855 78.741779 
L 74.327222 79.85579 
L 74.589732 80.142154 
L 74.995431 80.20479 
L 75.143391 80.110755 
L 75.200666 78.861604 
L 75.27226 79.863391 
L 75.534771 80.145597 
L 75.954788 80.20673 
L 76.083656 80.09567 
L 76.140931 78.840348 
L 76.207752 79.853533 
L 76.470263 80.144364 
L 76.875961 80.207308 
L 77.019149 80.13424 
L 77.081197 78.834648 
L 77.162336 79.882099 
L 77.424847 80.151104 
L 77.863955 80.211564 
L 78.026235 80.10924 
L 78.08351 78.848489 
L 78.155104 79.862426 
L 78.417614 80.1482 
L 78.837631 80.212036 
L 79.04764 80.125903 
L 79.104915 78.87942 
L 79.181281 79.870475 
L 79.443792 80.150954 
L 79.859036 80.208153 
L 79.997451 80.120637 
L 80.054726 78.881328 
L 80.131092 79.872355 
L 80.38883 80.149309 
L 80.81362 80.215027 
L 81.176362 80.117484 
L 81.233637 78.887371 
L 81.305231 79.862831 
L 81.562968 80.148972 
L 81.992531 80.219319 
L 82.493688 80.139454 
L 82.550963 78.931444 
L 82.632102 79.877725 
L 82.88984 80.153773 
L 83.333721 80.223493 
L 86.283386 80.245777 
L 111.078704 80.154637 
L 111.12166 79.189767 
L 111.145525 78.149183 
L 111.226664 79.452317 
L 111.436673 80.016832 
L 111.54645 80.057307 
L 111.565542 80.004714 
L 111.608498 78.757528 
L 111.622817 78.447322 
L 111.69441 79.557799 
L 111.918738 80.035679 
L 111.995104 80.044092 
L 112.009423 80.000391 
L 112.047607 78.95409 
L 112.066698 78.373569 
L 112.143065 79.616889 
L 112.372165 80.050141 
L 112.443759 80.048213 
L 112.458078 79.981756 
L 112.51058 78.190279 
L 112.591719 79.641523 
L 112.830365 80.065201 
L 112.921051 80.065519 
L 112.930597 80.031902 
L 112.96878 78.787684 
L 112.987872 78.081562 
L 113.064238 79.650257 
L 113.31243 80.07713 
L 113.42698 80.089021 
L 113.436526 80.058634 
L 113.469937 79.233904 
L 113.498574 77.945517 
L 113.574941 79.672516 
L 113.827906 80.086054 
L 113.985412 80.112421 
L 113.999731 80.067417 
L 114.037914 78.832699 
L 114.057006 78.045241 
L 114.133372 79.701987 
L 114.39111 80.096384 
L 114.610664 80.135057 
L 114.62021 80.113198 
L 114.644075 79.607686 
L 114.653621 79.649101 
L 114.687031 78.192285 
L 114.758625 79.739476 
L 115.021136 80.108599 
L 115.312284 80.152234 
L 115.340921 79.971218 
L 115.38865 78.489485 
L 115.455471 79.773052 
L 115.717982 80.118028 
L 116.037767 80.16998 
L 116.071178 80.074565 
L 116.128453 78.563876 
L 116.195274 79.801211 
L 116.457784 80.125812 
L 116.791889 80.1724 
L 116.825299 80.048762 
L 116.877801 78.536079 
L 116.944622 79.799004 
L 117.207133 80.12597 
L 117.574648 80.194748 
L 117.66056 80.108585 
L 117.717835 78.66628 
L 117.794202 79.841149 
L 118.056712 80.137326 
L 118.448092 80.19786 
L 118.529232 80.094846 
L 118.586507 78.714488 
L 118.6581 79.842137 
L 118.920611 80.138836 
L 119.316763 80.2046 
L 119.42654 80.112029 
L 119.483815 78.668777 
L 119.555409 79.835395 
L 119.81792 80.138387 
L 120.214072 80.206451 
L 120.376351 80.129838 
L 120.433626 78.826657 
L 120.514766 79.869328 
L 120.777277 80.147354 
L 121.202067 80.210902 
L 121.392983 80.128411 
L 121.450258 78.900736 
L 121.531398 79.879093 
L 121.793909 80.150992 
L 122.228244 80.210219 
L 122.361886 80.118099 
L 122.419161 78.808054 
L 122.495528 79.861659 
L 122.758038 80.147745 
L 123.192374 80.215106 
L 123.540797 80.138076 
L 123.602845 78.952435 
L 123.679212 79.881451 
L 123.93695 80.152197 
L 124.390377 80.222584 
L 127.120487 80.245318 
L 139.405982 80.246201 
L 139.405982 80.246201 
" style="fill:none;stroke:#666666;stroke-linecap:square;stroke-width:0.6;"/>
   </g>
   <g id="line2d_8">
    <path clip-path="url(#pd1352c8556)" d="M 143.224318 76.5505 
L 143.224318 67.3105 
" style="fill:none;stroke:#000000;stroke-linecap:square;stroke-width:1.5;"/>
   </g>
   <g id="patch_3">
    <path d="M 18.9425 80.2465 
L 18.9425 19.2625 
" style="fill:none;stroke:#000000;stroke-linecap:square;stroke-linejoin:miter;stroke-width:1.5;"/>
   </g>
   <g id="patch_4">
    <path d="M 18.9425 80.2465 
L 149.1425 80.2465 
" style="fill:none;stroke:#000000;stroke-linecap:square;stroke-linejoin:miter;stroke-width:1.5;"/>
   </g>
   <g id="text_7">
    <!-- Average Energy: 21.2 $\mu$J/s -->
    <g transform="translate(32.2825 13.2625)">
     <text>
      <tspan style="font-family:DejaVu Sans;font-size:8px;font-style:book;font-weight:book;" x="0 5.472656 10.207031 15.128906 18.417969 23.320312 28.398438 33.320312 35.863281 40.917969 45.988281 50.910156 54.199219 59.277344 64.011719 66.707031 69.25 74.339844 79.429688 81.597656 86.6875 89.230469 94.320312 96.679688 99.375" y="-0.0625">Average Energy: 21.2 μJ/s</tspan>
     </text>
    </g>
   </g>
  </g>
  <g id="axes_2">
   <g id="patch_5">
    <path d="M 162.1625 80.2465 
L 292.3625 80.2465 
L 292.3625 19.2625 
L 162.1625 19.2625 
z
" style="fill:none;"/>
   </g>
   <g id="matplotlib.axis_3">
    <g id="xtick_5">
     <g id="line2d_9">
      <g>
       <use style="stroke:#000000;stroke-width:1.5;" x="168.080682" xlink:href="#mf98f0a44b8" y="80.2465"/>
      </g>
     </g>
     <g id="text_8">
      <text style="font-family:DejaVu Sans;font-size:8px;font-stretch:normal;font-style:normal;font-weight:normal;text-anchor:middle;" transform="rotate(-0, 168.080682, 93.32525)" x="168.080682" y="93.32525">0</text>
     </g>
    </g>
    <g id="xtick_6">
     <g id="line2d_10">
      <g>
       <use style="stroke:#000000;stroke-width:1.5;" x="206.26404" xlink:href="#mf98f0a44b8" y="80.2465"/>
      </g>
     </g>
     <g id="text_9">
      <text style="font-family:DejaVu Sans;font-size:8px;font-stretch:normal;font-style:normal;font-weight:normal;text-anchor:middle;" transform="rotate(-0, 206.26404, 93.32525)" x="206.26404" y="93.32525">1</text>
     </g>
    </g>
    <g id="xtick_7">
     <g id="line2d_11">
      <g>
       <use style="stroke:#000000;stroke-width:1.5;" x="244.447397" xlink:href="#mf98f0a44b8" y="80.2465"/>
      </g>
     </g>
     <g id="text_10">
      <text style="font-family:DejaVu Sans;font-size:8px;font-stretch:normal;font-style:normal;font-weight:normal;text-anchor:middle;" transform="rotate(-0, 244.447397, 93.32525)" x="244.447397" y="93.32525">2</text>
     </g>
    </g>
    <g id="xtick_8">
     <g id="line2d_12">
      <g>
       <use style="stroke:#000000;stroke-width:1.5;" x="282.630755" xlink:href="#mf98f0a44b8" y="80.2465"/>
      </g>
     </g>
     <g id="text_11">
      <text style="font-family:DejaVu Sans;font-size:8px;font-stretch:normal;font-style:normal;font-weight:normal;text-anchor:middle;" transform="rotate(-0, 282.630755, 93.32525)" x="282.630755" y="93.32525">3</text>
     </g>
    </g>
    <g id="text_12">
     <text style="font-family:DejaVu Sans;font-size:8px;font-stretch:normal;font-style:normal;font-weight:normal;text-anchor:middle;" transform="rotate(-0, 227.2625, 105.06775)" x="227.2625" y="105.06775">Time (seconds)</text>
    </g>
   </g>
   <g id="matplotlib.axis_4"/>
   <g id="line2d_13">
    <path clip-path="url(#pa11c120e1f)" d="M 168.080682 39.590215 
L 175.340293 39.484618 
L 175.383249 36.413692 
L 175.430978 28.254952 
L 175.493026 36.580345 
L 175.67917 38.697437 
L 175.836676 39.171111 
L 175.855768 39.089385 
L 175.884406 35.46212 
L 175.936908 26.137642 
L 175.98941 36.352252 
L 176.123052 38.280789 
L 176.361698 39.18208 
L 176.376016 39.183761 
L 176.390335 39.113186 
L 176.418973 35.623862 
L 176.476248 24.722476 
L 176.523977 34.835336 
L 176.6433 38.208302 
L 176.901037 39.197448 
L 176.963085 39.253167 
L 176.982177 39.175001 
L 177.010815 35.861199 
L 177.06809 24.959545 
L 177.115819 35.457253 
L 177.235142 38.337039 
L 177.497652 39.23133 
L 177.60743 39.323399 
L 177.626521 39.264201 
L 177.64084 37.330169 
L 177.650386 37.720144 
L 177.712434 25.66106 
L 177.764936 36.729368 
L 177.889032 38.491286 
L 178.156315 39.273307 
L 178.318595 39.38403 
L 178.337686 39.337634 
L 178.352005 38.230705 
L 178.361551 38.348568 
L 178.428372 26.817246 
L 178.476101 37.009759 
L 178.600197 38.588042 
L 178.86748 39.295846 
L 179.101353 39.426115 
L 179.106126 39.420746 
L 179.129991 39.185076 
L 179.206358 28.089531 
L 179.249314 35.165274 
L 179.368637 38.62129 
L 179.640693 39.309121 
L 179.922296 39.468789 
L 180.017754 39.424209 
L 180.022527 39.394684 
L 180.055937 37.351237 
L 180.10844 29.685583 
L 180.160942 38.016402 
L 180.304129 38.854241 
L 180.571413 39.368385 
L 180.881653 39.492459 
L 181.043932 39.400355 
L 181.082115 36.646935 
L 181.125071 30.944802 
L 181.182346 38.238745 
L 181.344626 38.983492 
L 181.607136 39.401072 
L 181.955559 39.510794 
L 183.587898 39.577946 
L 190.518177 39.590278 
L 218.053151 39.519042 
L 218.091335 38.208039 
L 218.14861 28.032566 
L 218.210658 36.293515 
L 218.396802 38.579572 
L 218.482714 38.880398 
L 218.497033 38.760196 
L 218.544762 28.420615 
L 218.5734 25.633179 
L 218.621129 34.529669 
L 218.740452 37.902519 
L 218.912277 38.82533 
L 218.931369 38.656737 
L 219.007735 23.866591 
L 219.06501 36.073891 
L 219.193879 38.068318 
L 219.37525 38.898149 
L 219.394342 38.721293 
L 219.470709 23.105739 
L 219.527984 35.700093 
L 219.652079 38.114136 
L 219.876407 39.016432 
L 219.890725 38.977861 
L 219.900271 38.697914 
L 219.976638 23.189721 
L 220.024367 30.220894 
L 220.14369 38.155555 
L 220.406201 39.12063 
L 220.425292 39.130173 
L 220.444384 39.017088 
L 220.482568 31.736128 
L 220.525524 23.793297 
L 220.578026 35.306478 
L 220.697349 38.311383 
L 220.964632 39.181008 
L 221.02668 39.225454 
L 221.045772 39.127095 
L 221.079182 34.263501 
L 221.131685 24.846708 
L 221.179414 36.047503 
L 221.298737 38.42575 
L 221.570793 39.221136 
L 221.675797 39.297837 
L 221.699662 39.224082 
L 221.7283 36.592242 
L 221.785575 25.919093 
L 221.833304 36.308866 
L 221.9574 38.537716 
L 222.229456 39.252666 
L 222.406054 39.355326 
L 222.420373 39.321454 
L 222.434692 38.920548 
L 222.511058 27.481138 
L 222.554015 35.9428 
L 222.673338 38.598806 
L 222.945394 39.272321 
L 223.203132 39.402922 
L 223.236542 39.289042 
L 223.274726 35.251855 
L 223.317682 29.241902 
L 223.370184 37.923392 
L 223.503826 38.78749 
L 223.771109 39.323296 
L 224.052711 39.433459 
L 224.090895 39.349639 
L 224.124305 37.109708 
L 224.172034 30.148944 
L 224.22931 38.160571 
L 224.382043 38.909969 
L 224.649326 39.359919 
L 224.978658 39.464282 
L 225.097981 39.388681 
L 225.131391 37.801703 
L 225.179121 32.015275 
L 225.236396 38.37945 
L 225.417767 39.072752 
L 225.680277 39.402288 
L 226.009609 39.449196 
L 226.033473 39.357217 
L 226.076429 35.409676 
L 226.10984 31.676013 
L 226.171888 38.379693 
L 226.367578 39.104587 
L 226.630088 39.414617 
L 227.035786 39.499088 
L 229.551115 39.589072 
L 254.971685 39.590357 
L 264.737079 39.514673 
L 264.775263 38.133769 
L 264.832538 28.120285 
L 264.894586 36.361557 
L 265.080729 38.603058 
L 265.166642 38.911955 
L 265.185734 38.771182 
L 265.2621 25.678498 
L 265.319375 36.382236 
L 265.467336 38.236993 
L 265.610524 38.874885 
L 265.629615 38.674169 
L 265.705982 23.933263 
L 265.758484 35.061429 
L 265.877807 37.9946 
L 266.083043 38.947421 
L 266.097361 38.910196 
L 266.106907 38.600669 
L 266.183274 23.288966 
L 266.231003 31.045447 
L 266.350326 38.070233 
L 266.598518 39.061274 
L 266.603291 39.059043 
L 266.622383 38.804827 
L 266.698749 23.34 
L 266.751251 33.64311 
L 266.870574 38.211895 
L 267.133085 39.149258 
L 267.166495 39.173427 
L 267.185587 39.08885 
L 267.214225 35.270234 
L 267.2715 24.082343 
L 267.319229 34.602906 
L 267.438552 38.336927 
L 267.705835 39.194466 
L 267.786975 39.257913 
L 267.806067 39.18474 
L 267.834704 36.166135 
L 267.891979 25.153591 
L 267.939708 35.599739 
L 268.059031 38.447961 
L 268.331088 39.231706 
L 268.469502 39.324941 
L 268.483821 39.289685 
L 268.49814 38.728698 
L 268.574507 26.383608 
L 268.617463 34.244646 
L 268.736786 38.527819 
L 269.008842 39.2543 
L 269.228397 39.384576 
L 269.242715 39.368324 
L 269.261807 39.120813 
L 269.338174 28.203789 
L 269.38113 36.046128 
L 269.500453 38.633321 
L 269.77251 39.286766 
L 270.044566 39.428022 
L 270.106614 39.330087 
L 270.144797 35.829345 
L 270.187754 29.903945 
L 270.245029 38.14154 
L 270.397762 38.896407 
L 270.665046 39.356472 
L 270.960967 39.441699 
L 270.99915 39.330843 
L 271.042106 34.877587 
L 271.075517 30.706007 
L 271.132792 38.184369 
L 271.280752 38.91638 
L 271.543263 39.362954 
L 271.872594 39.475865 
L 272.211472 39.429992 
L 272.22579 38.934524 
L 272.292611 33.05301 
L 272.235336 39.027628 
L 272.34034 38.303497 
L 272.483528 38.999602 
L 272.741266 39.390888 
L 273.094462 39.482298 
L 273.380837 39.412145 
L 273.414247 38.115809 
L 273.457204 33.356812 
L 273.519252 38.515498 
L 273.738806 39.217172 
L 274.001316 39.446358 
L 274.526338 39.524873 
L 276.755291 39.58903 
L 282.625982 39.590291 
L 282.625982 39.590291 
" style="fill:none;stroke:#666666;stroke-linecap:square;stroke-width:0.6;"/>
   </g>
   <g id="line2d_14">
    <path clip-path="url(#pa11c120e1f)" d="M 168.080682 59.917991 
L 190.379763 59.831638 
L 190.432265 58.397435 
L 190.460902 57.389474 
L 190.532496 59.037011 
L 190.747278 59.582632 
L 190.780688 59.584171 
L 190.795007 59.523889 
L 190.847509 56.831061 
L 190.866601 56.477653 
L 190.909557 58.542938 
L 191.038426 59.258807 
L 191.148203 59.447642 
L 191.167295 59.381229 
L 191.234115 56.102093 
L 191.300936 58.845759 
L 191.510945 59.414736 
L 191.520491 59.40305 
L 191.539582 58.90306 
L 191.596857 55.896538 
L 191.649359 58.720994 
L 191.787774 59.284392 
L 191.883233 59.441112 
L 191.907097 59.301605 
L 191.973918 55.783267 
L 192.02642 58.829071 
L 192.169608 59.328824 
L 192.279385 59.487673 
L 192.298477 59.397076 
L 192.37007 55.662442 
L 192.422572 58.905963 
L 192.570533 59.369793 
L 192.704175 59.543142 
L 192.723266 59.464659 
L 192.79486 55.554082 
L 192.852135 58.986428 
L 193.004869 59.411053 
L 193.176694 59.604259 
L 193.195785 59.55343 
L 193.229196 57.942306 
L 193.272152 55.595262 
L 193.324654 58.994678 
L 193.458296 59.408979 
L 193.716034 59.666372 
L 193.72558 59.657665 
L 193.744671 59.521008 
L 193.816265 55.862078 
L 193.863994 58.998908 
L 193.992863 59.443675 
L 194.293557 59.720328 
L 194.355605 59.675068 
L 194.360378 59.636861 
L 194.436745 56.259777 
L 194.489247 59.235393 
L 194.651526 59.547332 
L 194.971312 59.763304 
L 195.06677 59.715755 
L 195.071543 59.680668 
L 195.14791 56.752492 
L 195.200412 59.330686 
L 195.381783 59.611532 
L 195.725433 59.793476 
L 195.86862 59.749163 
L 195.873393 59.720746 
L 195.930668 57.499015 
L 195.94976 57.196908 
L 195.987943 59.250492 
L 196.112039 59.573915 
L 196.441371 59.787391 
L 196.727746 59.768341 
L 196.765929 59.058444 
L 196.808886 57.396448 
L 196.866161 59.451031 
L 197.114353 59.716988 
L 197.529597 59.839933 
L 197.777788 59.759791 
L 197.849382 57.91998 
L 197.906657 59.510895 
L 198.164395 59.748527 
L 198.598731 59.847969 
L 198.861241 59.762413 
L 198.932835 58.227024 
L 198.99011 59.550192 
L 199.271712 59.77556 
L 199.753777 59.854879 
L 199.887419 59.767305 
L 199.959013 58.021896 
L 200.016288 59.52913 
L 200.274025 59.760426 
L 200.727453 59.859621 
L 201.223836 59.787543 
L 201.29543 58.520098 
L 201.357478 59.594684 
L 201.648626 59.799524 
L 202.192739 59.871883 
L 205.762883 59.917949 
L 236.600717 59.843231 
L 236.648447 58.912783 
L 236.68663 57.450848 
L 236.753451 59.049689 
L 236.968232 59.579635 
L 236.99687 59.530923 
L 237.001643 59.476785 
L 237.068464 56.467903 
L 237.130512 58.849141 
L 237.345293 59.450738 
L 237.350066 59.447359 
L 237.369158 59.279064 
L 237.431205 56.069353 
L 237.483708 58.701263 
L 237.626895 59.293565 
L 237.708035 59.422831 
L 237.727127 59.328242 
L 237.793947 55.863785 
L 237.851222 58.834641 
L 238.02782 59.389168 
L 238.085095 59.455098 
L 238.104187 59.351717 
L 238.171008 55.734812 
L 238.228283 58.88169 
L 238.390562 59.382725 
L 238.486021 59.504351 
L 238.505112 59.408808 
L 238.576706 55.625896 
L 238.629208 58.899236 
L 238.767623 59.358439 
L 238.925129 59.566598 
L 238.944221 59.513968 
L 238.977631 57.811707 
L 239.020588 55.588866 
L 239.07309 58.963713 
L 239.211505 59.394028 
L 239.421513 59.629333 
L 239.440605 59.592924 
L 239.454923 59.201266 
L 239.521744 55.734402 
L 239.564701 58.513573 
L 239.684024 59.389369 
L 239.975172 59.691967 
L 240.018128 59.617619 
L 240.065857 57.084807 
L 240.094495 56.07182 
L 240.142224 59.082327 
L 240.271093 59.46681 
L 240.57656 59.73368 
L 240.667245 59.702853 
L 240.672018 59.678803 
L 240.710201 58.316794 
L 240.748385 56.524465 
L 240.80566 59.29222 
L 240.991804 59.596327 
L 241.325908 59.781346 
L 241.426139 59.72499 
L 241.430912 59.685403 
L 241.502506 57.032346 
L 241.555008 59.354362 
L 241.726833 59.618111 
L 242.075256 59.799336 
L 242.290038 59.760531 
L 242.294811 59.73224 
L 242.366404 57.535884 
L 242.428452 59.457949 
L 242.695736 59.728999 
L 243.101434 59.828887 
L 243.201665 59.736995 
L 243.273259 57.701369 
L 243.330534 59.479914 
L 243.578726 59.729957 
L 243.99397 59.841099 
L 244.328074 59.768395 
L 244.399668 58.328224 
L 244.461716 59.563002 
L 244.757637 59.784222 
L 245.249248 59.85052 
L 245.359025 59.760405 
L 245.430619 58.20395 
L 245.487894 59.547395 
L 245.75995 59.772693 
L 246.256334 59.867428 
L 247.712075 59.917347 
L 282.625982 59.912671 
L 282.625982 59.912671 
" style="fill:none;stroke:#666666;stroke-linecap:square;stroke-width:0.6;"/>
   </g>
   <g id="line2d_15">
    <path clip-path="url(#pa11c120e1f)" d="M 168.080682 79.600205 
L 168.314555 80.058497 
L 168.352738 80.054988 
L 168.367057 79.973725 
L 168.40524 75.938554 
L 168.462515 67.538923 
L 168.51979 73.998869 
L 168.639113 79.158779 
L 168.887305 79.982881 
L 169.006628 80.068653 
L 169.02572 80.015631 
L 169.035266 79.671261 
L 169.125951 67.816993 
L 169.168908 71.118846 
L 169.326414 79.323478 
L 169.569833 80.013403 
L 169.660518 80.060367 
L 169.674837 80.018247 
L 169.684383 79.780788 
L 169.775068 67.600974 
L 169.822798 71.46324 
L 169.965985 79.259759 
L 170.214177 80.004884 
L 170.319181 80.070957 
L 170.338273 80.025237 
L 170.347819 79.783795 
L 170.438504 67.783715 
L 170.486233 71.689031 
L 170.624648 79.247614 
L 170.87284 80.002486 
L 170.982617 80.067177 
L 171.001709 79.987171 
L 171.039892 76.106093 
L 171.097167 67.725852 
L 171.154442 74.248223 
L 171.273765 79.1878 
L 171.521957 79.988782 
L 171.646053 80.07671 
L 171.665145 80.027786 
L 171.67469 79.775266 
L 171.765376 67.768169 
L 171.813105 71.676265 
L 171.956293 79.279525 
L 172.204484 80.009215 
L 172.314262 80.070312 
L 172.32858 80.025175 
L 172.338126 79.751351 
L 172.428812 67.742061 
L 172.471768 70.930561 
L 172.634047 79.357414 
L 172.877466 80.020291 
L 172.98247 80.070969 
L 172.996789 80.02576 
L 173.006335 79.686251 
L 173.09702 67.954039 
L 173.139977 71.266578 
L 173.29271 79.325215 
L 173.540902 80.018657 
L 173.645906 80.077111 
L 173.664998 80.00663 
L 173.698408 77.269189 
L 173.760456 67.918357 
L 173.817731 74.3434 
L 173.937054 79.206298 
L 174.185246 79.992649 
L 174.309342 80.074745 
L 174.328434 80.009082 
L 174.361844 77.354372 
L 174.423892 67.887641 
L 174.481167 74.006762 
L 174.60049 79.203488 
L 174.848682 79.991466 
L 174.972778 80.078617 
L 174.99187 80.033009 
L 175.001415 79.807579 
L 175.092101 67.928354 
L 175.13983 71.848625 
L 175.278245 79.272884 
L 175.526437 80.007425 
L 175.803266 80.176224 
L 176.495339 80.232005 
L 182.008062 80.245628 
L 202.350245 80.161195 
L 202.369337 80.186486 
L 202.393202 78.453781 
L 202.464796 67.68904 
L 202.531616 72.658248 
L 202.679577 78.526708 
L 202.693896 78.587207 
L 202.708214 78.136157 
L 202.760717 73.018966 
L 202.822765 76.186768 
L 202.937315 78.698566 
L 202.951633 78.550748 
L 203.004135 74.486152 
L 203.070956 77.596381 
L 203.166415 78.81912 
L 203.185506 78.071286 
L 203.228463 75.1281 
L 203.295284 77.992705 
L 203.385969 78.963768 
L 203.405061 78.455375 
L 203.45279 75.140159 
L 203.514838 78.134259 
L 203.619842 79.13419 
L 203.634161 78.899838 
L 203.686663 74.318961 
L 203.748711 78.071476 
L 203.882353 79.322294 
L 203.891899 79.295122 
L 203.91099 77.484612 
L 203.963492 72.163876 
L 204.020767 77.354058 
L 204.144863 79.234652 
L 204.206911 79.48421 
L 204.22123 79.369247 
L 204.297597 68.784629 
L 204.359645 75.757458 
L 204.478968 79.052676 
L 204.603064 79.616523 
L 204.617382 79.497477 
L 204.703295 65.871954 
L 204.770116 74.465231 
L 204.889439 78.976676 
L 205.061264 79.728738 
L 205.080356 79.558291 
L 205.171041 64.737338 
L 205.233089 71.572495 
L 205.357185 78.985834 
L 205.56242 79.804797 
L 205.576739 79.763253 
L 205.586285 79.407644 
L 205.676971 64.567866 
L 205.719927 68.014866 
L 205.906071 79.280517 
L 206.096987 79.866293 
L 206.111306 79.826178 
L 206.120852 79.499877 
L 206.211538 64.811496 
L 206.254494 68.126777 
L 206.445411 79.331645 
L 206.650646 79.903432 
L 206.664965 79.860744 
L 206.674511 79.555373 
L 206.765196 64.920551 
L 206.812925 68.800063 
L 206.984751 79.2767 
L 207.228169 79.943807 
L 207.247261 79.886258 
L 207.275899 77.236484 
L 207.347492 65.401889 
L 207.404767 71.705357 
L 207.528863 79.111712 
L 207.781828 79.942027 
L 207.824784 79.962952 
L 207.839103 79.90173 
L 207.867741 77.289204 
L 207.939334 65.538309 
L 207.99661 72.031319 
L 208.115933 79.102899 
L 208.37367 79.948984 
L 208.426172 79.981628 
L 208.445264 79.890669 
L 208.483447 75.032545 
L 208.540722 65.74376 
L 208.597997 71.280924 
L 208.726866 79.156859 
L 208.984604 79.962723 
L 209.046652 79.996141 
L 209.060971 79.92971 
L 209.094381 76.548504 
L 209.161202 66.051614 
L 209.218477 73.166823 
L 209.3378 79.14265 
L 209.595538 79.96183 
L 209.667131 80.008323 
L 209.686223 79.922802 
L 209.724406 75.371555 
L 209.781681 66.299299 
L 209.838957 72.070121 
L 209.963052 79.165432 
L 210.22079 79.968595 
L 210.297157 80.015659 
L 210.311476 79.970762 
L 210.321021 79.679528 
L 210.411707 66.462713 
L 210.459436 70.364851 
L 210.61217 79.284586 
L 210.865134 79.991 
L 210.927182 80.019932 
L 210.946274 79.917112 
L 210.994003 72.957479 
L 211.041732 66.496271 
L 211.099007 72.812031 
L 211.21833 79.159395 
L 211.476068 79.970376 
L 211.566753 80.027627 
L 211.581072 79.983438 
L 211.590618 79.701215 
L 211.681304 66.761342 
L 211.729033 70.691984 
L 211.876993 79.277952 
L 212.129958 79.993727 
L 212.206325 80.033349 
L 212.220643 79.98161 
L 212.230189 79.649593 
L 212.320875 66.750286 
L 212.363831 69.986839 
L 212.530883 79.351379 
L 212.779075 80.005378 
L 212.850669 80.033656 
L 212.864988 79.973455 
L 212.893625 77.88135 
L 212.960446 66.948703 
L 213.017721 72.530962 
L 213.137044 79.171251 
L 213.390009 79.971994 
L 213.49024 80.039889 
L 213.504559 79.989784 
L 213.514105 79.655494 
L 213.60479 66.872065 
L 213.647746 70.123183 
L 213.814799 79.359769 
L 214.06299 80.01002 
L 214.139357 80.042278 
L 214.153676 79.994505 
L 214.163222 79.687605 
L 214.253907 67.082507 
L 214.296864 70.333035 
L 214.463916 79.370108 
L 214.712108 80.013611 
L 214.783701 80.040437 
L 214.79802 79.988404 
L 214.807566 79.602628 
L 214.898251 67.044281 
L 214.941208 70.381056 
L 215.103487 79.349423 
L 215.351679 80.009724 
L 215.432818 80.043253 
L 215.447137 79.97206 
L 215.480548 76.900355 
L 215.542596 67.124017 
L 215.599871 73.198754 
L 215.719194 79.190437 
L 215.972158 79.980451 
L 216.081936 80.052253 
L 216.096254 80.006695 
L 216.1058 79.724365 
L 216.196486 67.199092 
L 216.239442 70.397486 
L 216.406494 79.376474 
L 216.654686 80.016947 
L 216.731053 80.056007 
L 216.750144 79.99912 
L 216.764463 77.990699 
L 216.778782 78.108177 
L 216.850376 67.273376 
L 216.902878 72.714881 
L 217.022201 79.188552 
L 217.275165 79.982001 
L 217.389716 80.055025 
L 217.404034 80.011202 
L 217.41358 79.71891 
L 217.504266 67.421182 
L 217.547222 70.67655 
L 217.709501 79.366313 
L 217.957693 80.017382 
L 218.043606 80.060129 
L 218.062697 79.966083 
L 218.105653 74.767116 
L 218.158156 67.408263 
L 218.215431 74.256806 
L 218.334754 79.211195 
L 218.587718 79.988321 
L 218.855002 80.161644 
L 219.547075 80.227191 
L 226.520311 80.245657 
L 245.936548 80.150242 
L 245.95564 80.17516 
L 245.984278 77.458989 
L 246.051099 67.257702 
L 246.117919 72.327378 
L 246.26588 78.500953 
L 246.284972 78.5909 
L 246.29929 78.014893 
L 246.351792 72.766799 
L 246.41384 76.086845 
L 246.533163 78.69202 
L 246.542709 78.61572 
L 246.599984 74.286029 
L 246.671578 77.818424 
L 246.762264 78.808236 
L 246.781355 78.030915 
L 246.824312 74.969308 
L 246.891132 77.927601 
L 246.981818 78.94975 
L 247.00091 78.622312 
L 247.048639 75.040378 
L 247.110687 77.998607 
L 247.210918 79.104536 
L 247.23001 78.86903 
L 247.282512 74.284376 
L 247.34456 78.053925 
L 247.473429 79.287505 
L 247.482974 79.262246 
L 247.497293 78.080043 
L 247.554568 72.282706 
L 247.611843 77.42873 
L 247.740712 79.260496 
L 247.788441 79.443314 
L 247.807533 79.119449 
L 247.879127 68.998898 
L 247.936402 74.145053 
L 248.055725 79.023001 
L 248.170275 79.576657 
L 248.189367 79.400432 
L 248.275279 65.979063 
L 248.337327 73.315403 
L 248.45665 78.955419 
L 248.618929 79.693858 
L 248.638021 79.578606 
L 248.690523 69.011001 
L 248.728706 64.6944 
L 248.790754 71.143042 
L 248.919623 78.999896 
L 249.11054 79.780516 
L 249.129632 79.674281 
L 249.172588 71.854703 
L 249.22509 64.354275 
L 249.282365 70.154428 
L 249.42078 79.071563 
L 249.635561 79.840985 
L 249.645107 79.824191 
L 249.659426 79.335256 
L 249.750111 64.470673 
L 249.793068 67.912873 
L 249.983984 79.318195 
L 250.179674 79.890088 
L 250.198766 79.840967 
L 250.208312 79.422251 
L 250.298997 64.751265 
L 250.341953 68.095531 
L 250.528097 79.319351 
L 250.752424 79.927476 
L 250.76197 79.916969 
L 250.776289 79.737074 
L 250.871747 65.105429 
L 250.929022 71.576419 
L 251.053118 79.101077 
L 251.310856 79.9398 
L 251.344266 79.947913 
L 251.358585 79.858914 
L 251.396769 74.672405 
L 251.454044 65.357537 
L 251.511319 70.883636 
L 251.64496 79.159616 
L 251.897925 79.949762 
L 251.940881 79.974705 
L 251.959973 79.880743 
L 251.998156 74.909451 
L 252.055432 65.749529 
L 252.112707 71.455011 
L 252.236802 79.133443 
L 252.49454 79.95387 
L 252.547042 79.986562 
L 252.566134 79.912043 
L 252.599544 76.338656 
L 252.661592 65.887542 
L 252.72364 73.209738 
L 252.842963 79.138989 
L 253.100701 79.957301 
L 253.167522 79.999263 
L 253.181841 79.951882 
L 253.191386 79.617035 
L 253.282072 66.117226 
L 253.325028 69.346238 
L 253.501626 79.361639 
L 253.749818 79.996212 
L 253.792774 80.008486 
L 253.807093 79.95621 
L 253.816639 79.553422 
L 253.907324 66.312269 
L 253.950281 69.619922 
L 254.122106 79.352665 
L 254.370298 79.998087 
L 254.418027 80.017042 
L 254.437118 79.939205 
L 254.470529 76.631923 
L 254.532577 66.344909 
L 254.589852 71.862883 
L 254.713948 79.168566 
L 254.971685 79.970494 
L 255.052825 80.025714 
L 255.071917 79.953002 
L 255.105327 76.737447 
L 255.167375 66.475123 
L 255.22465 71.976682 
L 255.348746 79.175299 
L 255.606484 79.973533 
L 255.687623 80.026942 
L 255.706715 79.960594 
L 255.735353 77.780975 
L 255.806946 66.605733 
L 255.864221 74.14834 
L 255.983544 79.180321 
L 256.241282 79.976172 
L 256.327195 80.036969 
L 256.346286 79.988128 
L 256.355832 79.703402 
L 256.446518 66.812128 
L 256.494247 70.742156 
L 256.642207 79.283425 
L 256.895172 79.99492 
L 256.976312 80.039881 
L 256.995403 79.956873 
L 257.033587 75.775033 
L 257.090862 67.084175 
L 257.148137 73.440215 
L 257.26746 79.189393 
L 257.520425 79.975973 
L 257.61111 80.039106 
L 257.630202 79.98215 
L 257.644521 77.89879 
L 257.658839 77.988022 
L 257.730433 66.847362 
L 257.787708 74.206983 
L 257.907031 79.191344 
L 258.159996 79.977097 
L 258.255454 80.042314 
L 258.274546 79.979426 
L 258.303183 77.929696 
L 258.374777 66.988349 
L 258.427279 72.489469 
L 258.551375 79.202632 
L 258.80434 79.980837 
L 258.904571 80.043754 
L 258.91889 79.996187 
L 258.928436 79.720912 
L 259.019121 67.071202 
L 259.066851 71.019954 
L 259.214811 79.299771 
L 259.467776 80.003442 
L 259.548916 80.049651 
L 259.568007 79.96284 
L 259.606191 75.761492 
L 259.663466 67.028864 
L 259.720741 73.24005 
L 259.840064 79.189852 
L 260.093028 79.979952 
L 260.202806 80.055195 
L 260.221897 79.989474 
L 260.250535 78.025902 
L 260.317356 67.293298 
L 260.374631 72.985147 
L 260.493954 79.193959 
L 260.746918 79.98196 
L 260.861468 80.057173 
L 260.875787 80.015177 
L 260.885333 79.774179 
L 260.976019 67.430983 
L 261.023748 71.37402 
L 261.166935 79.292816 
L 261.415127 80.000161 
L 261.510586 80.055185 
L 261.529677 79.972987 
L 261.567861 75.950474 
L 261.625136 67.364822 
L 261.682411 73.793601 
L 261.801734 79.206896 
L 262.054698 79.987208 
L 262.159703 80.051213 
L 262.174021 80.002082 
L 262.183567 79.730501 
L 262.274253 67.263324 
L 262.321982 71.235276 
L 262.465169 79.287522 
L 262.718134 80.006033 
L 262.818366 80.064019 
L 262.837457 79.985792 
L 262.875641 76.042757 
L 262.932916 67.440651 
L 262.990191 73.796116 
L 263.109514 79.210042 
L 263.362478 79.989417 
L 263.472256 80.058888 
L 263.491347 79.979914 
L 263.529531 76.001904 
L 263.586806 67.416513 
L 263.644081 73.806833 
L 263.763404 79.209837 
L 264.016368 79.989747 
L 264.121373 80.060703 
L 264.140464 79.995433 
L 264.154783 78.062444 
L 264.169102 78.086963 
L 264.240696 67.285808 
L 264.293198 72.767389 
L 264.412521 79.19297 
L 264.665485 79.98631 
L 264.942315 80.165825 
L 265.577113 80.22666 
L 274.57884 80.245694 
L 282.625982 80.246248 
L 282.625982 80.246248 
" style="fill:none;stroke:#666666;stroke-linecap:square;stroke-width:0.6;"/>
   </g>
   <g id="line2d_16">
    <path clip-path="url(#pa11c120e1f)" d="M 286.444318 76.5505 
L 286.444318 67.3105 
" style="fill:none;stroke:#000000;stroke-linecap:square;stroke-width:1.5;"/>
   </g>
   <g id="patch_6">
    <path d="M 162.1625 80.2465 
L 162.1625 19.2625 
" style="fill:none;stroke:#000000;stroke-linecap:square;stroke-linejoin:miter;stroke-width:1.5;"/>
   </g>
   <g id="patch_7">
    <path d="M 162.1625 80.2465 
L 292.3625 80.2465 
" style="fill:none;stroke:#000000;stroke-linecap:square;stroke-linejoin:miter;stroke-width:1.5;"/>
   </g>
   <g id="text_13">
    <!-- Average Energy: 188.6 $\mu$J/s -->
    <g transform="translate(172.7425 13.2625)">
     <text>
      <tspan style="font-family:DejaVu Sans;font-size:8px;font-style:book;font-weight:book;" x="0 5.472656 10.207031 15.128906 18.417969 23.320312 28.398438 33.320312 35.863281 40.917969 45.988281 50.910156 54.199219 59.277344 64.011719 66.707031 69.25 74.339844 79.429688 84.519531 87.0625 92.152344 94.695312 99.785156 102.144531 104.839844" y="-0.0625">Average Energy: 188.6 μJ/s</tspan>
     </text>
    </g>
   </g>
  </g>
 </g>
 <defs>
  <clipPath id="pd1352c8556">
   <rect height="60.984" width="130.2" x="18.9425" y="19.2625"/>
  </clipPath>
  <clipPath id="pa11c120e1f">
   <rect height="60.984" width="130.2" x="162.1625" y="19.2625"/>
  </clipPath>
 </defs>
</svg>
